<?xml version="1.0" encoding="utf-8"?>
<!-- Generator: Adobe Illustrator 19.0.0, SVG Export Plug-In . SVG Version: 6.00 Build 0)  -->
<svg version="1.1" id="Layer_1" xmlns="http://www.w3.org/2000/svg" xmlns:xlink="http://www.w3.org/1999/xlink" x="0px" y="0px"
	 viewBox="0 0 430 238.75" style="enable-background:new 0 0 430 238.75;" xml:space="preserve">
<style type="text/css">
	.st0{fill:none;stroke:#BCBEC0;stroke-miterlimit:10;}
	.st1{fill:none;stroke:#000000;stroke-miterlimit:10;}
	.st2{fill:#010101;}
	.st3{fill:none;stroke:#010101;stroke-width:0.5997636;stroke-linecap:square;stroke-miterlimit:10;}
</style>
<line id="XMLID_124_" class="st0" x1="60.25" y1="124.6261597" x2="148.5619202" y2="212.9380798"/>
<line id="XMLID_125_" class="st0" x1="61.1163025" y1="101.5862122" x2="160.5150452" y2="200.9849548"/>
<line id="XMLID_126_" class="st0" x1="61.1163025" y1="76.8136597" x2="172.8717346" y2="188.5691071"/>
<line id="XMLID_127_" class="st0" x1="60.0502205" y1="148.5324097" x2="136.5089111" y2="224.9910889"/>
<line id="XMLID_128_" class="st0" x1="84.15625" y1="76.8136597" x2="184.4212952" y2="177.0787048"/>
<line id="XMLID_129_" class="st0" x1="108.0625" y1="76.8136597" x2="196.25" y2="165.0011749"/>
<line id="XMLID_130_" class="st0" x1="131.96875" y1="76.8136597" x2="208.7516785" y2="153.5965881"/>
<line id="XMLID_131_" class="st0" x1="155.875" y1="76.8136597" x2="220.4050751" y2="141.3437347"/>
<g id="XMLID_122_">
	<rect id="XMLID_2_" x="60.25" y="76.8136597" class="st1" width="23.90625" height="23.90625"/>
	<rect id="XMLID_3_" x="84.15625" y="76.8136597" class="st1" width="23.9062462" height="23.90625"/>
	<rect id="XMLID_4_" x="108.0625" y="76.8136597" class="st1" width="23.9062538" height="23.90625"/>
	<rect id="XMLID_5_" x="131.96875" y="76.8136597" class="st1" width="23.90625" height="23.90625"/>
	<rect id="XMLID_6_" x="155.875" y="76.8136597" class="st1" width="23.90625" height="23.90625"/>
	<rect id="XMLID_12_" x="60.25" y="100.7199097" class="st1" width="23.90625" height="23.90625"/>
	<rect id="XMLID_11_" x="84.15625" y="100.7199097" class="st1" width="23.9062462" height="23.90625"/>
	<rect id="XMLID_10_" x="108.0625" y="100.7199097" class="st1" width="23.9062538" height="23.90625"/>
	<rect id="XMLID_9_" x="131.96875" y="100.7199097" class="st1" width="23.90625" height="23.90625"/>
	<rect id="XMLID_8_" x="155.875" y="100.7199097" class="st1" width="23.90625" height="23.90625"/>
	<rect id="XMLID_18_" x="60.25" y="124.6261597" class="st1" width="23.90625" height="23.90625"/>
	<rect id="XMLID_17_" x="84.15625" y="124.6261597" class="st1" width="23.9062462" height="23.90625"/>
	<rect id="XMLID_16_" x="108.0625" y="124.6261597" class="st1" width="23.9062538" height="23.90625"/>
	<rect id="XMLID_15_" x="131.96875" y="124.6261597" class="st1" width="23.90625" height="23.90625"/>
	<rect id="XMLID_14_" x="155.875" y="124.6261597" class="st1" width="23.90625" height="23.90625"/>
	<rect id="XMLID_24_" x="60.25" y="148.5324097" class="st1" width="23.90625" height="23.90625"/>
	<rect id="XMLID_23_" x="84.15625" y="148.5324097" class="st1" width="23.9062462" height="23.90625"/>
	<rect id="XMLID_22_" x="108.0625" y="148.5324097" class="st1" width="23.9062538" height="23.90625"/>
	<rect id="XMLID_21_" x="131.96875" y="148.5324097" class="st1" width="23.90625" height="23.90625"/>
	<rect id="XMLID_20_" x="155.875" y="148.5324097" class="st1" width="23.90625" height="23.90625"/>
</g>
<g id="XMLID_123_">
	<rect id="XMLID_48_" x="323.53125" y="27.268549" class="st1" width="23.90625" height="23.90625"/>
	<rect id="XMLID_42_" x="323.53125" y="51.1748009" class="st1" width="23.90625" height="23.90625"/>
	<rect id="XMLID_41_" x="347.4375" y="51.1748009" class="st1" width="23.90625" height="23.90625"/>
	<rect id="XMLID_36_" x="323.53125" y="75.0810471" class="st1" width="23.90625" height="23.90625"/>
	<rect id="XMLID_35_" x="347.4375" y="75.0810471" class="st1" width="23.90625" height="23.90625"/>
	<rect id="XMLID_34_" x="371.34375" y="75.0810471" class="st1" width="23.90625" height="23.90625"/>
	<rect id="XMLID_30_" x="323.53125" y="98.9872971" class="st1" width="23.90625" height="23.90625"/>
	<rect id="XMLID_29_" x="347.4375" y="98.9872971" class="st1" width="23.90625" height="23.90625"/>
	<rect id="XMLID_28_" x="371.34375" y="98.9872971" class="st1" width="23.90625" height="23.90625"/>
	<rect id="XMLID_27_" x="395.25" y="98.9872971" class="st1" width="23.90625" height="23.90625"/>
	<rect id="XMLID_56_" x="323.53125" y="122.8935471" class="st1" width="23.90625" height="23.90625"/>
	<rect id="XMLID_55_" x="347.4375" y="122.8935471" class="st1" width="23.90625" height="23.90625"/>
	<rect id="XMLID_54_" x="371.34375" y="122.8935471" class="st1" width="23.90625" height="23.90625"/>
	<rect id="XMLID_53_" x="395.25" y="122.8935471" class="st1" width="23.90625" height="23.90625"/>
	<rect id="XMLID_52_" x="323.53125" y="146.7998047" class="st1" width="23.90625" height="23.90625"/>
	<rect id="XMLID_51_" x="347.4375" y="146.7998047" class="st1" width="23.90625" height="23.90625"/>
	<rect id="XMLID_50_" x="371.34375" y="146.7998047" class="st1" width="23.90625" height="23.90625"/>
	<rect id="XMLID_44_" x="323.53125" y="170.7060547" class="st1" width="23.90625" height="23.90625"/>
	<rect id="XMLID_43_" x="347.4375" y="170.7060547" class="st1" width="23.90625" height="23.90625"/>
	<rect id="XMLID_32_" x="323.53125" y="194.6123047" class="st1" width="23.90625" height="23.90625"/>
</g>
<g id="XMLID_7_">
	<g id="XMLID_19_">
		<path id="XMLID_378_" class="st2" d="M19.6254883,127.1396484l1.1328125-0.5410156h0.1132813v3.8476563
			c0,0.2558594,0.0107422,0.4150391,0.0332031,0.4775391c0.0214844,0.0625,0.0664063,0.1113281,0.1347656,0.1445313
			c0.0693359,0.0341797,0.2089844,0.0527344,0.4189453,0.0576172V131.25h-1.7509766v-0.1240234
			c0.2197266-0.0048828,0.3623047-0.0234375,0.4257813-0.0556641c0.0644531-0.0322266,0.1083984-0.0761719,0.1337891-0.1308594
			c0.0253906-0.0556641,0.0380859-0.2197266,0.0380859-0.4931641v-2.4599609c0-0.3310547-0.0117188-0.5439453-0.0341797-0.6386719
			c-0.0166016-0.0712891-0.0449219-0.1240234-0.0878906-0.1572266c-0.0419922-0.0341797-0.0927734-0.0507813-0.1523438-0.0507813
			c-0.0849609,0-0.203125,0.0351563-0.3535156,0.1044922L19.6254883,127.1396484z"/>
	</g>
	<g id="XMLID_13_">
		<path id="XMLID_376_" class="st2" d="M13.6879883,122.9111328l-0.7719727,2.6220703
			c0.3447266-0.6166992,0.6376953-1.0795898,0.8789063-1.3901367c0.3764648-0.4804688,0.7426758-0.8291016,1.0991211-1.0463867
			c0.2094727-0.1235352,0.4291992-0.1855469,0.6591797-0.1855469c0.1977539,0,0.3623047,0.0620117,0.4926758,0.1855469
			c0.1308594,0.1245117,0.1962891,0.2832031,0.1962891,0.4770508c0,0.1899414-0.0458984,0.4379883-0.1367188,0.7441406
			l-0.421875,1.4770508c0.6455078-1.1826172,1.2573242-2.012207,1.8354492-2.4887695
			c0.3203125-0.2636719,0.6376953-0.3950195,0.9501953-0.3950195c0.1816406,0,0.3310547,0.0610352,0.4482422,0.1831055
			s0.1757813,0.3105469,0.1757813,0.5664063c0,0.2250977-0.0361328,0.4633789-0.1074219,0.715332l-0.6533203,2.2607422
			c-0.1425781,0.4931641-0.2138672,0.765625-0.2138672,0.8203125c0,0.0537109,0.0175781,0.1005859,0.0537109,0.1396484
			c0.0234375,0.0263672,0.0556641,0.0400391,0.0947266,0.0400391c0.0400391,0,0.109375-0.0361328,0.2080078-0.1103516
			c0.2255859-0.1699219,0.4375-0.3955078,0.6357422-0.6738281l0.1953125,0.1220703
			c-0.0986328,0.1552734-0.2734375,0.3681641-0.5253906,0.6396484c-0.2509766,0.2705078-0.4658203,0.4550781-0.6445313,0.5517578
			c-0.1777344,0.0966797-0.3417969,0.1455078-0.4921875,0.1455078c-0.1386719,0-0.2548828-0.046875-0.3476563-0.1396484
			s-0.1396484-0.2070313-0.1396484-0.3427734c0-0.1865234,0.0810547-0.5605469,0.2431641-1.1220703l0.5410156-1.8662109
			c0.1220703-0.4301758,0.1875-0.668457,0.1953125-0.7148438c0.0126953-0.0737305,0.0185547-0.1455078,0.0185547-0.215332
			c0-0.0966797-0.0224609-0.1723633-0.0654297-0.2265625c-0.0478516-0.0541992-0.1015625-0.081543-0.1601563-0.081543
			c-0.1669922,0-0.3427734,0.0834961-0.5292969,0.25c-0.5458984,0.4921875-1.0571289,1.1821289-1.5322266,2.0693359
			c-0.3125,0.5859375-0.6054688,1.3349609-0.8789063,2.25h-0.8964844l1.015625-3.5170898
			c0.1103516-0.3798828,0.1660156-0.6337891,0.1660156-0.7612305c0-0.1049805-0.0219727-0.1821289-0.0654297-0.2329102
			c-0.043457-0.050293-0.097168-0.0751953-0.1601563-0.0751953c-0.1308594,0-0.2695313,0.0463867-0.4160156,0.1391602
			c-0.2373047,0.1513672-0.5429688,0.4750977-0.9174805,0.9711914c-0.3740234,0.4960938-0.6640625,0.9702148-0.8701172,1.4233398
			c-0.0986328,0.2138672-0.3344727,0.8974609-0.706543,2.0527344h-0.8789063l1.0986328-3.7670898l0.1425781-0.4882813
			c0.0273438-0.0737305,0.0415039-0.1279297,0.0415039-0.1625977c0-0.0854492-0.0395508-0.1616211-0.1186523-0.2294922
			c-0.0795898-0.0678711-0.1801758-0.1020508-0.3032227-0.1020508c-0.0512695,0-0.1938477,0.0234375-0.4272461,0.0698242
			l-0.0537109-0.2148438L13.6879883,122.9111328z"/>
	</g>
</g>
<g id="XMLID_25_">
	<g id="XMLID_26_">
		<path id="XMLID_370_" class="st2" d="M36.2392578,87.2075195c0.2280273-0.53125,0.5161133-0.940918,0.8637695-1.2294922
			s0.7807617-0.4331055,1.2998047-0.4331055c0.6401367,0,1.1313477,0.2055664,1.4731445,0.6162109
			c0.2597656,0.3061523,0.3891602,0.6333008,0.3891602,0.9824219c0,0.5737305-0.3652344,1.1665039-1.0961914,1.7788086
			c0.4912109,0.1899414,0.8623047,0.4614258,1.1137695,0.8144531c0.2514648,0.3515625,0.3774414,0.7666016,0.3774414,1.2431641
			c0,0.6826172-0.2202148,1.2734375-0.6601563,1.7734375c-0.5737305,0.6513672-1.4047852,0.9765625-2.4931641,0.9765625
			c-0.5385742,0-0.9047852-0.0664063-1.0996094-0.1982422c-0.1943359-0.1308594-0.2915039-0.2724609-0.2915039-0.4238281
			c0-0.1123047,0.0458984-0.2109375,0.1386719-0.296875c0.0922852-0.0849609,0.203125-0.1279297,0.3330078-0.1279297
			c0.0981445,0,0.1982422,0.015625,0.300293,0.046875c0.0668945,0.0195313,0.2182617,0.0898438,0.4541016,0.2119141
			s0.3984375,0.1953125,0.4892578,0.2177734c0.1450195,0.0429688,0.300293,0.0644531,0.465332,0.0644531
			c0.4008789,0,0.7495117-0.1533203,1.0463867-0.4589844c0.296875-0.3066406,0.4448242-0.6689453,0.4448242-1.0869141
			c0-0.3066406-0.0688477-0.6054688-0.2060547-0.8955078c-0.1020508-0.2177734-0.2143555-0.3818359-0.3359375-0.4941406
			c-0.1689453-0.1552734-0.4008789-0.2958984-0.6958008-0.4208984c-0.2944336-0.1269531-0.5952148-0.1894531-0.9018555-0.1894531
			h-0.1884766V89.503418c0.3105469-0.0385742,0.6220703-0.1489258,0.9345703-0.3310547
			c0.3120117-0.1821289,0.5390625-0.4013672,0.6806641-0.6572266c0.1411133-0.2553711,0.2119141-0.5366211,0.2119141-0.8427734
			c0-0.3989258-0.1264648-0.7216797-0.3798828-0.9677734s-0.5688477-0.3691406-0.9462891-0.3691406
			c-0.6088867,0-1.1176758,0.3217773-1.5263672,0.9648438L36.2392578,87.2075195z"/>
		<path id="XMLID_372_" class="st2" d="M46.7348633,85.3237305l-2.8935547,8.4296875h-0.4716797l2.8935547-8.4296875H46.7348633z"/>
		<path id="XMLID_374_" class="st2" d="M54.7280273,92.0727539l-0.5605469,1.5175781h-4.7148438v-0.2148438
			c1.3867188-1.2480469,2.3632813-2.2675781,2.9287109-3.0585938c0.5664063-0.7900391,0.8486328-1.5126953,0.8486328-2.1679688
			c0-0.4995117-0.1552734-0.9106445-0.4648438-1.2324219c-0.3105469-0.3212891-0.6826172-0.4824219-1.1142578-0.4824219
			c-0.3935547,0-0.7460938,0.1132813-1.0585938,0.340332c-0.3115234,0.2265625-0.5429688,0.559082-0.6923828,0.9970703h-0.2177734
			c0.0976563-0.7172852,0.3505859-1.2675781,0.7578125-1.6513672c0.40625-0.3833008,0.9140625-0.5751953,1.5234375-0.5751953
			c0.6484375,0,1.1894531,0.2055664,1.6240234,0.6162109c0.4335938,0.4106445,0.6513672,0.8950195,0.6513672,1.453125
			c0,0.3994141-0.0947266,0.7983398-0.2832031,1.1977539c-0.2910156,0.6274414-0.7626953,1.2919922-1.4150391,1.9941406
			c-0.9785156,1.0537109-1.5888672,1.6894531-1.8330078,1.90625h2.0869141c0.4238281,0,0.7216797-0.015625,0.8925781-0.0458984
			c0.1708984-0.03125,0.3251953-0.0947266,0.4628906-0.1894531s0.2568359-0.2294922,0.359375-0.4042969H54.7280273z"/>
	</g>
</g>
<g id="XMLID_31_">
	<g id="XMLID_33_">
		<path id="XMLID_364_" class="st2" d="M37.0429688,110.140625l1.9477539-0.9360352h0.1948242v6.6557617
			c0,0.4423828,0.0185547,0.7177734,0.0561523,0.8261719c0.0371094,0.1083984,0.1147461,0.1914063,0.2329102,0.25
			c0.1181641,0.0576172,0.3579102,0.0908203,0.7202148,0.0986328V117.25h-3.0102539v-0.2148438
			c0.3779297-0.0078125,0.621582-0.0400391,0.7319336-0.0957031c0.1103516-0.0566406,0.1870117-0.1318359,0.2299805-0.2275391
			c0.043457-0.0947266,0.0649414-0.3779297,0.0649414-0.8515625v-4.2548828c0-0.5737305-0.0195313-0.9418945-0.0585938-1.1044922
			c-0.027832-0.1240234-0.078125-0.215332-0.1508789-0.2734375s-0.1601563-0.0869141-0.2626953-0.0869141
			c-0.1455078,0-0.3481445,0.0600586-0.6079102,0.1801758L37.0429688,110.140625z"/>
		<path id="XMLID_366_" class="st2" d="M46.1821289,108.9833984l-2.8979492,8.4296875h-0.472168l2.8984375-8.4296875H46.1821289z"/>
		<path id="XMLID_368_" class="st2" d="M54.1850586,115.7324219L53.6245117,117.25H48.902832v-0.2148438
			c1.3886719-1.2480469,2.3671875-2.2675781,2.9335938-3.0585938c0.5664063-0.7900391,0.8496094-1.5126953,0.8496094-2.1679688
			c0-0.4995117-0.1552734-0.9106445-0.4658203-1.2324219c-0.3115234-0.3212891-0.6835938-0.4824219-1.1162109-0.4824219
			c-0.3935547,0-0.7460938,0.1132813-1.0595703,0.340332c-0.3125,0.2265625-0.5439453,0.559082-0.6933594,0.9970703h-0.2177734
			c0.0976563-0.7172852,0.3505859-1.2675781,0.7578125-1.6513672c0.4072266-0.3833008,0.9160156-0.5751953,1.5263672-0.5751953
			c0.6484375,0,1.1904297,0.2055664,1.6259766,0.6162109c0.4345703,0.4106445,0.6523438,0.8950195,0.6523438,1.453125
			c0,0.3994141-0.0947266,0.7983398-0.2841797,1.1977539c-0.2910156,0.6274414-0.7626953,1.2919922-1.4160156,1.9941406
			c-0.9794922,1.0537109-1.5917969,1.6894531-1.8359375,1.90625h2.0898438c0.4248047,0,0.7226563-0.015625,0.8935547-0.0458984
			c0.171875-0.03125,0.3261719-0.0947266,0.4638672-0.1894531s0.2578125-0.2294922,0.3603516-0.4042969H54.1850586z"/>
	</g>
</g>
<g id="XMLID_37_">
	<g id="XMLID_39_">
		<path id="XMLID_358_" class="st2" d="M37.0371094,134.1479492l1.9389648-0.9360352h0.1938477v6.6557617
			c0,0.4423828,0.0185547,0.7177734,0.0561523,0.8261719c0.0371094,0.1083984,0.1147461,0.1914063,0.2319336,0.25
			c0.1176758,0.0576172,0.3564453,0.0908203,0.7172852,0.0986328v0.2148438h-2.9975586v-0.2148438
			c0.3764648-0.0078125,0.6191406-0.0400391,0.7290039-0.0957031c0.109375-0.0566406,0.1860352-0.1318359,0.2290039-0.2275391
			c0.0429688-0.0947266,0.0649414-0.3779297,0.0649414-0.8515625v-4.2548828c0-0.5737305-0.0200195-0.9418945-0.059082-1.1044922
			c-0.0273438-0.1240234-0.0771484-0.215332-0.1499023-0.2734375c-0.0722656-0.0581055-0.159668-0.0869141-0.2612305-0.0869141
			c-0.1450195,0-0.3466797,0.0600586-0.6054688,0.1801758L37.0371094,134.1479492z"/>
		<path id="XMLID_360_" class="st2" d="M46.1362305,132.9907227l-2.8857422,8.4296875h-0.4697266l2.8857422-8.4296875H46.1362305z"
			/>
		<path id="XMLID_362_" class="st2" d="M54.1049805,139.7397461l-0.5585938,1.5175781h-4.7011719v-0.2148438
			c1.3828125-1.2480469,2.3564453-2.2675781,2.9208984-3.0585938c0.5634766-0.7900391,0.8457031-1.5126953,0.8457031-2.1679688
			c0-0.4995117-0.1542969-0.9106445-0.4638672-1.2324219c-0.3095703-0.3212891-0.6796875-0.4824219-1.1113281-0.4824219
			c-0.3916016,0-0.7431641,0.1132813-1.0546875,0.340332c-0.3115234,0.2265625-0.5410156,0.559082-0.6904297,0.9970703h-0.2177734
			c0.0986328-0.7172852,0.3505859-1.2675781,0.7558594-1.6513672c0.4052734-0.3833008,0.9111328-0.5751953,1.5185547-0.5751953
			c0.6464844,0,1.1865234,0.2055664,1.6191406,0.6162109c0.4335938,0.4106445,0.6494141,0.8950195,0.6494141,1.453125
			c0,0.3994141-0.09375,0.7983398-0.2822266,1.1977539c-0.2900391,0.6274414-0.7597656,1.2919922-1.4101563,1.9941406
			c-0.9755859,1.0537109-1.5849609,1.6894531-1.8271484,1.90625h2.0800781c0.4228516,0,0.7197266-0.015625,0.890625-0.0458984
			c0.1699219-0.03125,0.3242188-0.0947266,0.4609375-0.1894531s0.2568359-0.2294922,0.3583984-0.4042969H54.1049805z"/>
	</g>
	<g id="XMLID_38_">
		<path id="XMLID_356_" class="st2" d="M29.2578125,137.9086914h6.1708984v0.5761719h-6.1708984V137.9086914z"/>
	</g>
</g>
<g id="XMLID_40_">
	<g id="XMLID_46_">
		<path id="XMLID_350_" class="st2" d="M36.1523438,158.8671875c0.2246094-0.53125,0.5087891-0.940918,0.8515625-1.2294922
			s0.7695313-0.4331055,1.2807617-0.4331055c0.6313477,0,1.1157227,0.2055664,1.4526367,0.6162109
			c0.2558594,0.3061523,0.3833008,0.6333008,0.3833008,0.9824219c0,0.5737305-0.3598633,1.1665039-1.0805664,1.7788086
			c0.484375,0.1899414,0.8500977,0.4614258,1.0981445,0.8144531c0.2480469,0.3515625,0.3720703,0.7666016,0.3720703,1.2431641
			c0,0.6826172-0.2172852,1.2734375-0.6508789,1.7734375c-0.5654297,0.6513672-1.3847656,0.9765625-2.4575195,0.9765625
			c-0.5307617,0-0.8920898-0.0664063-1.0834961-0.1982422c-0.1918945-0.1308594-0.2875977-0.2724609-0.2875977-0.4238281
			c0-0.1123047,0.0454102-0.2109375,0.1362305-0.296875c0.0913086-0.0849609,0.2006836-0.1279297,0.3286133-0.1279297
			c0.0966797,0,0.1953125,0.015625,0.2958984,0.046875c0.065918,0.0195313,0.215332,0.0898438,0.4477539,0.2119141
			s0.3930664,0.1953125,0.4819336,0.2177734c0.1435547,0.0429688,0.2963867,0.0644531,0.4589844,0.0644531
			c0.3950195,0,0.7387695-0.1533203,1.03125-0.4589844c0.2924805-0.3066406,0.4389648-0.6689453,0.4389648-1.0869141
			c0-0.3066406-0.0678711-0.6054688-0.2036133-0.8955078c-0.1005859-0.2177734-0.2109375-0.3818359-0.3310547-0.4941406
			c-0.1665039-0.1552734-0.3950195-0.2958984-0.6855469-0.4208984c-0.2905273-0.1269531-0.5869141-0.1894531-0.8891602-0.1894531
			h-0.1855469v-0.1748047c0.3056641-0.0385742,0.612793-0.1489258,0.9208984-0.3310547
			c0.3076172-0.1821289,0.53125-0.4013672,0.6708984-0.6572266c0.1391602-0.2553711,0.2089844-0.5366211,0.2089844-0.8427734
			c0-0.3989258-0.125-0.7216797-0.3745117-0.9677734c-0.25-0.2460938-0.5610352-0.3691406-0.9326172-0.3691406
			c-0.6005859,0-1.1020508,0.3217773-1.5048828,0.9648438L36.1523438,158.8671875z"/>
		<path id="XMLID_352_" class="st2" d="M46.4985352,156.9833984l-2.8525391,8.4296875h-0.4648438l2.8525391-8.4296875H46.4985352z"
			/>
		<path id="XMLID_354_" class="st2" d="M54.3764648,163.7324219L53.8237305,165.25h-4.6474609v-0.2148438
			c1.3671875-1.2480469,2.3291016-2.2675781,2.8876953-3.0585938c0.5576172-0.7900391,0.8359375-1.5126953,0.8359375-2.1679688
			c0-0.4995117-0.1523438-0.9106445-0.4589844-1.2324219c-0.3056641-0.3212891-0.671875-0.4824219-1.0976563-0.4824219
			c-0.3876953,0-0.7353516,0.1132813-1.0429688,0.340332c-0.3076172,0.2265625-0.5351563,0.559082-0.6826172,0.9970703H49.402832
			c0.0966797-0.7172852,0.3457031-1.2675781,0.7460938-1.6513672c0.4013672-0.3833008,0.9013672-0.5751953,1.5019531-0.5751953
			c0.6396484,0,1.1728516,0.2055664,1.6005859,0.6162109c0.4287109,0.4106445,0.6425781,0.8950195,0.6425781,1.453125
			c0,0.3994141-0.0927734,0.7983398-0.2792969,1.1977539c-0.2861328,0.6274414-0.7509766,1.2919922-1.3945313,1.9941406
			c-0.9638672,1.0537109-1.5664063,1.6894531-1.8066406,1.90625h2.0566406c0.4179688,0,0.7119141-0.015625,0.8798828-0.0458984
			c0.1689453-0.03125,0.3212891-0.0947266,0.4560547-0.1894531c0.1357422-0.0947266,0.2539063-0.2294922,0.3544922-0.4042969
			H54.3764648z"/>
	</g>
	<g id="XMLID_45_">
		<path id="XMLID_348_" class="st2" d="M29.2553711,161.9013672h6.1005859v0.5761719h-6.1005859V161.9013672z"/>
	</g>
</g>
<g id="XMLID_47_">
	<g id="XMLID_57_">
		<path id="XMLID_346_" class="st2" d="M78.1010742,69.6933594L77.5483398,71.25h-4.6474609v-0.2207031
			c1.3671875-1.2792969,2.3300781-2.3251953,2.8876953-3.1357422c0.5576172-0.8115234,0.8359375-1.5522461,0.8359375-2.2241211
			c0-0.5126953-0.1523438-0.934082-0.4589844-1.2641602c-0.3056641-0.3300781-0.671875-0.4946289-1.0976563-0.4946289
			c-0.3876953,0-0.7353516,0.1162109-1.0429688,0.3486328s-0.5351563,0.5732422-0.6826172,1.0224609h-0.2148438
			c0.0966797-0.7353516,0.3457031-1.2998047,0.7460938-1.6933594c0.4013672-0.3935547,0.9013672-0.590332,1.5019531-0.590332
			c0.6396484,0,1.1728516,0.2109375,1.6005859,0.6323242c0.4287109,0.4213867,0.6425781,0.9179688,0.6425781,1.4902344
			c0,0.409668-0.0927734,0.8188477-0.2792969,1.2285156c-0.2861328,0.644043-0.7509766,1.3256836-1.3945313,2.0454102
			c-0.9638672,1.0810547-1.5664063,1.7324219-1.8066406,1.9550781h2.0566406c0.4179688,0,0.7119141-0.015625,0.8798828-0.0478516
			c0.1689453-0.03125,0.3212891-0.0957031,0.4560547-0.1933594c0.1357422-0.0976563,0.2539063-0.2353516,0.3544922-0.4150391
			H78.1010742z"/>
	</g>
	<g id="XMLID_49_">
		<path id="XMLID_344_" class="st2" d="M66.3442383,67.8154297h6.1005859V68.40625h-6.1005859V67.8154297z"/>
	</g>
</g>
<g id="XMLID_58_">
	<g id="XMLID_60_">
		<path id="XMLID_342_" class="st2" d="M98.9257813,63.9580078l1.9599609-0.9599609h0.1953125v6.8271484
			c0,0.453125,0.0185547,0.7353516,0.0566406,0.8466797c0.0371094,0.1113281,0.1162109,0.1962891,0.234375,0.2558594
			c0.1191406,0.0595703,0.3603516,0.09375,0.7246094,0.1015625V71.25h-3.0283203v-0.2207031
			c0.3798828-0.0078125,0.625-0.0410156,0.7363281-0.0986328c0.1103516-0.0576172,0.1875-0.1347656,0.2314453-0.2324219
			c0.0429688-0.0966797,0.0654297-0.3886719,0.0654297-0.8730469v-4.3647461c0-0.5878906-0.0205078-0.9658203-0.0595703-1.1328125
			c-0.0273438-0.1269531-0.078125-0.2207031-0.1513672-0.2802734s-0.1611328-0.0893555-0.2646484-0.0893555
			c-0.1464844,0-0.3505859,0.0620117-0.6113281,0.1850586L98.9257813,63.9580078z"/>
	</g>
	<g id="XMLID_59_">
		<path id="XMLID_340_" class="st2" d="M91.0712891,67.8154297h6.2363281V68.40625h-6.2363281V67.8154297z"/>
	</g>
</g>
<g id="XMLID_61_">
	<g id="XMLID_62_">
		<path id="XMLID_337_" class="st2" d="M119.3798828,67.3554688c0-0.8994141,0.1352539-1.6733398,0.40625-2.3227539
			c0.2714844-0.6489258,0.6313477-1.1323242,1.0810547-1.4501953c0.3486328-0.2519531,0.7084961-0.3779297,1.0805664-0.3779297
			c0.6035156,0,1.1464844,0.3081055,1.6269531,0.9243164c0.5996094,0.7631836,0.9003906,1.7983398,0.9003906,3.1040039
			c0,0.9155273-0.1318359,1.6918945-0.3955078,2.331543c-0.2626953,0.6396484-0.5986328,1.1035156-1.0078125,1.3916016
			c-0.4091797,0.2890625-0.8027344,0.4335938-1.1821289,0.4335938c-0.7514648,0-1.3769531-0.4433594-1.8769531-1.3310547
			C119.5908203,69.3105469,119.3798828,68.4091797,119.3798828,67.3554688z M120.5185547,67.5
			c0,1.0859375,0.1333008,1.9707031,0.4008789,2.6572266c0.2207031,0.5771484,0.5498047,0.8662109,0.987793,0.8662109
			c0.2089844,0,0.425293-0.09375,0.6499023-0.2822266c0.2246094-0.1875,0.3955078-0.5029297,0.5117188-0.9443359
			c0.1787109-0.6669922,0.2675781-1.6064453,0.2675781-2.8198242c0-0.8989258-0.0927734-1.6489258-0.2792969-2.2495117
			c-0.1386719-0.4458008-0.3193359-0.7617188-0.5400391-0.9477539c-0.1591797-0.1279297-0.3505859-0.1914063-0.5751953-0.1914063
			c-0.2636719,0-0.4975586,0.1181641-0.703125,0.3544922c-0.2788086,0.3217773-0.46875,0.8271484-0.5693359,1.5170898
			S120.5185547,66.8300781,120.5185547,67.5z"/>
	</g>
</g>
<g id="XMLID_63_">
	<g id="XMLID_64_">
		<path id="XMLID_335_" class="st2" d="M143.1655273,63.9580078l2.0087891-0.9599609h0.2001953v6.8271484
			c0,0.453125,0.0195313,0.7353516,0.0585938,0.8466797c0.0380859,0.1113281,0.1181641,0.1962891,0.2402344,0.2558594
			c0.1210938,0.0595703,0.3691406,0.09375,0.7421875,0.1015625V71.25h-3.1040039v-0.2207031
			c0.3896484-0.0078125,0.6411133-0.0410156,0.7548828-0.0986328c0.1132813-0.0576172,0.1923828-0.1347656,0.2373047-0.2324219
			c0.0444336-0.0966797,0.0668945-0.3886719,0.0668945-0.8730469v-4.3647461c0-0.5878906-0.0205078-0.9658203-0.0610352-1.1328125
			c-0.0283203-0.1269531-0.0800781-0.2207031-0.1552734-0.2802734s-0.1650391-0.0893555-0.2705078-0.0893555
			c-0.1503906,0-0.359375,0.0620117-0.6269531,0.1850586L143.1655273,63.9580078z"/>
	</g>
</g>
<g id="XMLID_65_">
	<g id="XMLID_66_">
		<path id="XMLID_333_" class="st2" d="M170.5932617,69.6933594L170.0405273,71.25h-4.6474609v-0.2207031
			c1.3671875-1.2792969,2.3295898-2.3251953,2.887207-3.1357422c0.5581055-0.8115234,0.8374023-1.5522461,0.8374023-2.2241211
			c0-0.5126953-0.1542969-0.934082-0.4589844-1.2641602c-0.3066406-0.3300781-0.6728516-0.4946289-1.0986328-0.4946289
			c-0.387207,0-0.7348633,0.1162109-1.0429688,0.3486328s-0.5356445,0.5732422-0.6826172,1.0224609h-0.2148438
			c0.0966797-0.7353516,0.3457031-1.2998047,0.746582-1.6933594s0.9013672-0.590332,1.5014648-0.590332
			c0.6386719,0,1.1728516,0.2109375,1.6005859,0.6323242c0.4287109,0.4213867,0.6425781,0.9179688,0.6425781,1.4902344
			c0,0.409668-0.0927734,0.8188477-0.2792969,1.2285156c-0.2861328,0.644043-0.7509766,1.3256836-1.3935547,2.0454102
			c-0.965332,1.0810547-1.5673828,1.7324219-1.8076172,1.9550781h2.0566406c0.4189453,0,0.7119141-0.015625,0.8798828-0.0478516
			c0.1689453-0.03125,0.3212891-0.0957031,0.4560547-0.1933594c0.1357422-0.0976563,0.2539063-0.2353516,0.3544922-0.4150391
			H170.5932617z"/>
	</g>
</g>
<g id="XMLID_67_">
	<g id="XMLID_69_">
		<path id="XMLID_331_" class="st2" d="M128.2719727,53.4428711l-0.3193359,0.8769531h-2.6875v-0.1240234
			c0.7910156-0.7216797,1.3476563-1.3105469,1.6699219-1.7685547c0.3222656-0.4570313,0.4833984-0.8740234,0.4833984-1.2529297
			c0-0.2890625-0.0888672-0.5263672-0.265625-0.7128906c-0.1767578-0.1855469-0.3886719-0.2783203-0.6347656-0.2783203
			c-0.2236328,0-0.4248047,0.0654297-0.6025391,0.1962891s-0.3095703,0.3232422-0.3945313,0.5761719h-0.125
			c0.0566406-0.4140625,0.2001953-0.7324219,0.4316406-0.9541016c0.2324219-0.2216797,0.5214844-0.3330078,0.8691406-0.3330078
			c0.3691406,0,0.6777344,0.1191406,0.9248047,0.3564453s0.3710938,0.5175781,0.3710938,0.8398438
			c0,0.2314453-0.0537109,0.4619141-0.1611328,0.6923828c-0.1660156,0.3632813-0.4345703,0.7470703-0.8056641,1.1533203
			c-0.5576172,0.609375-0.90625,0.9765625-1.0449219,1.1015625h1.1894531c0.2412109,0,0.4111328-0.0087891,0.5087891-0.0263672
			c0.0966797-0.0185547,0.1845703-0.0546875,0.2636719-0.109375c0.078125-0.0546875,0.1464844-0.1328125,0.2041016-0.2333984
			H128.2719727z"/>
	</g>
	<g id="XMLID_68_">
		<path id="XMLID_329_" class="st2" d="M119.3613281,45.980957l-0.7553711,2.6220703
			c0.3369141-0.6166992,0.6235352-1.0795898,0.8598633-1.3901367c0.3681641-0.4804688,0.7265625-0.8291016,1.0751953-1.0463867
			c0.2050781-0.1235352,0.4199219-0.1855469,0.6445313-0.1855469c0.1938477,0,0.3544922,0.0620117,0.4824219,0.1855469
			c0.1279297,0.1245117,0.1918945,0.2832031,0.1918945,0.4770508c0,0.1899414-0.0449219,0.4379883-0.1337891,0.7441406
			l-0.4125977,1.4770508c0.6313477-1.1826172,1.2299805-2.012207,1.7954102-2.4887695
			c0.3134766-0.2636719,0.6240234-0.3950195,0.9296875-0.3950195c0.1777344,0,0.3242188,0.0610352,0.4384766,0.1831055
			s0.171875,0.3105469,0.171875,0.5664063c0,0.2250977-0.0351563,0.4633789-0.1054688,0.715332l-0.6386719,2.2607422
			c-0.1396484,0.4931641-0.2089844,0.765625-0.2089844,0.8203125c0,0.0537109,0.0175781,0.1005859,0.0527344,0.1396484
			c0.0224609,0.0263672,0.0537109,0.0400391,0.0927734,0.0400391c0.0380859,0,0.1064453-0.0361328,0.203125-0.1103516
			c0.2207031-0.1699219,0.4277344-0.3955078,0.6210938-0.6738281l0.1923828,0.1220703
			c-0.0966797,0.1552734-0.2685547,0.3681641-0.5146484,0.6396484c-0.2460938,0.2705078-0.4560547,0.4550781-0.6298828,0.5517578
			c-0.1748047,0.0966797-0.3359375,0.1455078-0.4824219,0.1455078c-0.1357422,0-0.2490234-0.046875-0.3398438-0.1396484
			c-0.0913086-0.0927734-0.1367188-0.2070313-0.1367188-0.3427734c0-0.1865234,0.0795898-0.5605469,0.2382813-1.1220703
			l0.5292969-1.8662109c0.1191406-0.4301758,0.1835938-0.668457,0.1914063-0.7148438
			c0.0117188-0.0737305,0.0175781-0.1455078,0.0175781-0.215332c0-0.0966797-0.0214844-0.1723633-0.0644531-0.2265625
			c-0.046875-0.0541992-0.0986328-0.081543-0.15625-0.081543c-0.1630859,0-0.3359375,0.0834961-0.5175781,0.25
			c-0.534668,0.4921875-1.0341797,1.1821289-1.4990234,2.0693359c-0.3061523,0.5859375-0.5927734,1.3349609-0.8598633,2.25
			h-0.8774414L120.75,47.7246094c0.1083984-0.3798828,0.1625977-0.6337891,0.1625977-0.7612305
			c0-0.1049805-0.0214844-0.1821289-0.0639648-0.2329102c-0.0424805-0.050293-0.0947266-0.0751953-0.1567383-0.0751953
			c-0.1279297,0-0.2636719,0.0463867-0.4067383,0.1391602c-0.2324219,0.1513672-0.5317383,0.4750977-0.8974609,0.9711914
			c-0.3662109,0.4960938-0.6499023,0.9702148-0.8515625,1.4233398c-0.0966797,0.2138672-0.3271484,0.8974609-0.6914063,2.0527344
			h-0.8598633l1.0751953-3.7670898l0.1391602-0.4882813c0.0273438-0.0737305,0.0410156-0.1279297,0.0410156-0.1625977
			c0-0.0854492-0.0390625-0.1616211-0.1162109-0.2294922c-0.0776367-0.0678711-0.1762695-0.1020508-0.2963867-0.1020508
			c-0.050293,0-0.1899414,0.0234375-0.418457,0.0698242l-0.0522461-0.2148438L119.3613281,45.980957z"/>
	</g>
</g>
<g id="XMLID_70_">
	<g id="XMLID_71_">
		<path id="XMLID_323_" class="st2" d="M327.7294922,10.6430664h4.2246094v0.2211914l-2.6269531,7.824707h-0.6503906
			l2.3535156-7.0981445h-2.1679688c-0.4375,0-0.7490234,0.0522461-0.9345703,0.1567383
			c-0.3261719,0.1782227-0.5869141,0.4536133-0.7851563,0.8256836l-0.1679688-0.0639648L327.7294922,10.6430664z"/>
		<path id="XMLID_325_" class="st2" d="M338.0429688,10.2592773l-2.8535156,8.4296875h-0.4648438l2.8535156-8.4296875H338.0429688z"
			/>
		<path id="XMLID_327_" class="st2" d="M345.9199219,17.0083008l-0.5527344,1.5175781h-4.6474609v-0.2148438
			c1.3671875-1.2480469,2.3291016-2.2675781,2.8876953-3.0585938c0.5576172-0.7900391,0.8359375-1.5126953,0.8359375-2.1679688
			c0-0.4995117-0.1523438-0.9106445-0.4589844-1.2324219c-0.3056641-0.3212891-0.671875-0.4824219-1.0976563-0.4824219
			c-0.3876953,0-0.7353516,0.1132813-1.0429688,0.340332c-0.3076172,0.2265625-0.5351563,0.559082-0.6826172,0.9970703h-0.2148438
			c0.0966797-0.7172852,0.3457031-1.2675781,0.7460938-1.6513672c0.4013672-0.3833008,0.9013672-0.5751953,1.5019531-0.5751953
			c0.6396484,0,1.1728516,0.2055664,1.6005859,0.6162109c0.4287109,0.4106445,0.6425781,0.8950195,0.6425781,1.453125
			c0,0.3994141-0.0927734,0.7983398-0.2792969,1.1977539c-0.2861328,0.6274414-0.7509766,1.2919922-1.3945313,1.9941406
			c-0.9638672,1.0537109-1.5664063,1.6894531-1.8066406,1.90625h2.0566406c0.4179688,0,0.7119141-0.015625,0.8798828-0.0458984
			c0.1689453-0.03125,0.3212891-0.0947266,0.4560547-0.1894531c0.1357422-0.0947266,0.2539063-0.2294922,0.3544922-0.4042969
			H345.9199219z"/>
	</g>
</g>
<g id="XMLID_72_">
	<g id="XMLID_73_">
		<path id="XMLID_317_" class="st2" d="M356.1162109,34.6430664l-0.4589844,0.9882813h-2.4052734l-0.5244141,1.0581055
			c1.0410156,0.1508789,1.8662109,0.5327148,2.4755859,1.1450195c0.5224609,0.5273438,0.7841797,1.1474609,0.7841797,1.8603516
			c0,0.4150391-0.0859375,0.7988281-0.2568359,1.1513672s-0.3857422,0.6523438-0.6455078,0.9003906
			c-0.2587891,0.2480469-0.5478516,0.4482422-0.8662109,0.5986328c-0.4521484,0.2138672-0.9160156,0.3203125-1.390625,0.3203125
			c-0.4794922,0-0.828125-0.0810547-1.046875-0.2412109c-0.2177734-0.1611328-0.3271484-0.3378906-0.3271484-0.5322266
			c0-0.1083984,0.0449219-0.2041016,0.1357422-0.2880859c0.0908203-0.0830078,0.2041016-0.1240234,0.3417969-0.1240234
			c0.1025391,0,0.1914063,0.0146484,0.2685547,0.0458984c0.0761719,0.03125,0.2070313,0.1103516,0.3916016,0.2382813
			c0.2949219,0.2021484,0.59375,0.3027344,0.8964844,0.3027344c0.4589844,0,0.8632813-0.171875,1.2109375-0.5146484
			s0.5214844-0.7607422,0.5214844-1.2529297c0-0.4765625-0.1552734-0.921875-0.4658203-1.3339844
			c-0.3105469-0.4125977-0.7382813-0.7314453-1.2851563-0.956543c-0.4277344-0.1743164-1.0117188-0.2749023-1.75-0.3022461
			l1.5322266-3.0634766H356.1162109z"/>
		<path id="XMLID_319_" class="st2" d="M362.1787109,34.2592773l-2.8935547,8.4296875h-0.4716797l2.8935547-8.4296875H362.1787109z"
			/>
		<path id="XMLID_321_" class="st2" d="M370.171875,41.0083008l-0.5605469,1.5175781h-4.7148438v-0.2148438
			c1.3867188-1.2480469,2.3632813-2.2675781,2.9287109-3.0585938c0.5664063-0.7900391,0.8486328-1.5126953,0.8486328-2.1679688
			c0-0.4995117-0.1552734-0.9106445-0.4648438-1.2324219c-0.3105469-0.3212891-0.6826172-0.4824219-1.1142578-0.4824219
			c-0.3935547,0-0.7460938,0.1132813-1.0585938,0.340332c-0.3115234,0.2265625-0.5429688,0.559082-0.6923828,0.9970703h-0.2177734
			c0.0976563-0.7172852,0.3505859-1.2675781,0.7578125-1.6513672c0.40625-0.3833008,0.9140625-0.5751953,1.5234375-0.5751953
			c0.6484375,0,1.1894531,0.2055664,1.6240234,0.6162109c0.4335938,0.4106445,0.6513672,0.8950195,0.6513672,1.453125
			c0,0.3994141-0.0947266,0.7983398-0.2832031,1.1977539c-0.2910156,0.6274414-0.7626953,1.2919922-1.4150391,1.9941406
			c-0.9785156,1.0537109-1.5888672,1.6894531-1.8330078,1.90625h2.0869141c0.4238281,0,0.7216797-0.015625,0.8925781-0.0458984
			c0.1708984-0.03125,0.3251953-0.0947266,0.4628906-0.1894531s0.2568359-0.2294922,0.359375-0.4042969H370.171875z"/>
	</g>
</g>
<g id="XMLID_74_">
	<g id="XMLID_75_">
		<path id="XMLID_311_" class="st2" d="M375.8222656,62.1425781c0.2285156-0.53125,0.5166016-0.940918,0.8642578-1.2294922
			s0.7802734-0.4331055,1.2998047-0.4331055c0.640625,0,1.1308594,0.2055664,1.4726563,0.6162109
			c0.2597656,0.3061523,0.3896484,0.6333008,0.3896484,0.9824219c0,0.5737305-0.3652344,1.1665039-1.0966797,1.7788086
			c0.4921875,0.1899414,0.8632813,0.4614258,1.1142578,0.8144531c0.2509766,0.3515625,0.3779297,0.7666016,0.3779297,1.2431641
			c0,0.6826172-0.2207031,1.2734375-0.6601563,1.7734375c-0.5742188,0.6513672-1.4052734,0.9765625-2.4941406,0.9765625
			c-0.5380859,0-0.9042969-0.0664063-1.0996094-0.1982422c-0.1933594-0.1308594-0.2910156-0.2724609-0.2910156-0.4238281
			c0-0.1123047,0.0458984-0.2109375,0.1386719-0.296875c0.0917969-0.0849609,0.203125-0.1279297,0.3330078-0.1279297
			c0.0986328,0,0.1982422,0.015625,0.2998047,0.046875c0.0673828,0.0195313,0.21875,0.0898438,0.4550781,0.2119141
			c0.2353516,0.1220703,0.3984375,0.1953125,0.4882813,0.2177734c0.1455078,0.0429688,0.3007813,0.0644531,0.4658203,0.0644531
			c0.4013672,0,0.7490234-0.1533203,1.0458984-0.4589844c0.296875-0.3066406,0.4453125-0.6689453,0.4453125-1.0869141
			c0-0.3066406-0.0683594-0.6054688-0.2060547-0.8955078C379.0625,65.5,378.9511719,65.3359375,378.8291016,65.2236328
			c-0.1689453-0.1552734-0.4013672-0.2958984-0.6962891-0.4208984c-0.2939453-0.1269531-0.5947266-0.1894531-0.9013672-0.1894531
			h-0.1884766v-0.1748047c0.3105469-0.0385742,0.6220703-0.1489258,0.9345703-0.3310547
			c0.3115234-0.1821289,0.5390625-0.4013672,0.6806641-0.6572266c0.140625-0.2553711,0.2119141-0.5366211,0.2119141-0.8427734
			c0-0.3989258-0.1259766-0.7216797-0.3798828-0.9677734s-0.5683594-0.3691406-0.9462891-0.3691406
			c-0.6083984,0-1.1181641,0.3217773-1.5263672,0.9648438L375.8222656,62.1425781z"/>
		<path id="XMLID_313_" class="st2" d="M386.3183594,60.2587891l-2.8935547,8.4296875h-0.4716797l2.8935547-8.4296875H386.3183594z"
			/>
		<path id="XMLID_315_" class="st2" d="M394.3115234,67.0078125l-0.5605469,1.5175781h-4.7148438v-0.2148438
			c1.3867188-1.2480469,2.3632813-2.2675781,2.9287109-3.0585938c0.5664063-0.7900391,0.8486328-1.5126953,0.8486328-2.1679688
			c0-0.4995117-0.1552734-0.9106445-0.4648438-1.2324219c-0.3105469-0.3212891-0.6826172-0.4824219-1.1142578-0.4824219
			c-0.3935547,0-0.7460938,0.1132813-1.0585938,0.340332c-0.3115234,0.2265625-0.5429688,0.559082-0.6923828,0.9970703h-0.2177734
			c0.0976563-0.7172852,0.3505859-1.2675781,0.7578125-1.6513672c0.40625-0.3833008,0.9140625-0.5751953,1.5234375-0.5751953
			c0.6484375,0,1.1894531,0.2055664,1.6240234,0.6162109c0.4335938,0.4106445,0.6513672,0.8950195,0.6513672,1.453125
			c0,0.3994141-0.0947266,0.7983398-0.2832031,1.1977539c-0.2910156,0.6274414-0.7626953,1.2919922-1.4150391,1.9941406
			c-0.9785156,1.0537109-1.5888672,1.6894531-1.8330078,1.90625h2.0869141c0.4238281,0,0.7216797-0.015625,0.8925781-0.0458984
			c0.1708984-0.03125,0.3251953-0.0947266,0.4628906-0.1894531s0.2568359-0.2294922,0.359375-0.4042969H394.3115234z"/>
	</g>
</g>
<g id="XMLID_76_">
	<g id="XMLID_77_">
		<path id="XMLID_305_" class="st2" d="M400.0146484,84.1855469l1.9472656-0.9360352h0.1953125v6.6557617
			c0,0.4423828,0.0185547,0.7177734,0.0556641,0.8261719s0.1152344,0.1914063,0.2333984,0.25
			c0.1181641,0.0576172,0.3574219,0.0908203,0.7197266,0.0986328v0.2148438H400.15625v-0.2148438
			c0.3779297-0.0078125,0.6210938-0.0400391,0.7314453-0.0957031c0.1103516-0.0566406,0.1875-0.1318359,0.2304688-0.2275391
			c0.0429688-0.0947266,0.0644531-0.3779297,0.0644531-0.8515625v-4.2548828c0-0.5737305-0.0195313-0.9418945-0.0585938-1.1044922
			c-0.0273438-0.1240234-0.078125-0.215332-0.1503906-0.2734375c-0.0732422-0.0581055-0.1601563-0.0869141-0.2626953-0.0869141
			c-0.1455078,0-0.3486328,0.0600586-0.6083984,0.1801758L400.0146484,84.1855469z"/>
		<path id="XMLID_307_" class="st2" d="M409.1533203,83.0283203l-2.8974609,8.4296875h-0.4726563l2.8984375-8.4296875H409.1533203z"
			/>
		<path id="XMLID_309_" class="st2" d="M417.15625,89.7773438l-0.5605469,1.5175781h-4.7216797v-0.2148438
			c1.3886719-1.2480469,2.3671875-2.2675781,2.9335938-3.0585938c0.5664063-0.7900391,0.8496094-1.5126953,0.8496094-2.1679688
			c0-0.4995117-0.1552734-0.9106445-0.4658203-1.2324219c-0.3115234-0.3212891-0.6835938-0.4824219-1.1162109-0.4824219
			c-0.3935547,0-0.7460938,0.1132813-1.0595703,0.340332c-0.3125,0.2265625-0.5439453,0.559082-0.6933594,0.9970703h-0.2177734
			c0.0976563-0.7172852,0.3505859-1.2675781,0.7578125-1.6513672c0.4072266-0.3833008,0.9160156-0.5751953,1.5263672-0.5751953
			c0.6484375,0,1.1904297,0.2055664,1.6259766,0.6162109c0.4345703,0.4106445,0.6523438,0.8950195,0.6523438,1.453125
			c0,0.3994141-0.0947266,0.7983398-0.2841797,1.1977539c-0.2910156,0.6274414-0.7626953,1.2919922-1.4160156,1.9941406
			c-0.9794922,1.0537109-1.5917969,1.6894531-1.8359375,1.90625h2.0898438c0.4248047,0,0.7226563-0.015625,0.8935547-0.0458984
			c0.171875-0.03125,0.3261719-0.0947266,0.4638672-0.1894531s0.2578125-0.2294922,0.3603516-0.4042969H417.15625z"/>
	</g>
</g>
<g id="XMLID_78_">
	<g id="XMLID_79_">
		<path id="XMLID_303_" class="st2" d="M400.8710938,39.2216797h-6.015625l0.0839844-0.2207031
			c0.3183594-0.0078125,0.5322266-0.0332031,0.6396484-0.0771484c0.1679688-0.0722656,0.2919922-0.1650391,0.3710938-0.2802734
			c0.1240234-0.1826172,0.2558594-0.5126953,0.3955078-0.9902344l1.4306641-4.918457
			c0.1201172-0.4057617,0.1796875-0.7036133,0.1796875-0.8945313c0-0.1508789-0.0546875-0.2680664-0.1650391-0.3515625
			c-0.109375-0.0834961-0.3164063-0.1254883-0.6191406-0.1254883c-0.0683594,0-0.1220703-0.0019531-0.1621094-0.0058594
			l0.0722656-0.2207031h3.3095703l-0.0478516,0.2207031c-0.3710938,0-0.6337891,0.0356445-0.7900391,0.1074219
			c-0.1552734,0.0712891-0.2851563,0.1889648-0.3886719,0.3515625c-0.0712891,0.1074219-0.1904297,0.4414063-0.3535156,1.0019531
			l-1.40625,4.8349609c-0.1074219,0.3662109-0.1621094,0.6201172-0.1621094,0.7636719
			c0,0.0947266,0.0546875,0.1865234,0.1621094,0.2744141c0.0673828,0.0595703,0.2216797,0.0888672,0.4609375,0.0888672h0.7841797
			c0.5703125,0,1.0234375-0.0712891,1.3583984-0.2148438c0.2470703-0.1064453,0.4746094-0.2675781,0.6826172-0.4824219
			c0.1113281-0.1191406,0.3095703-0.4150391,0.5927734-0.8886719l0.1552734-0.2685547h0.2216797L400.8710938,39.2216797z"/>
	</g>
</g>
<g id="XMLID_80_">
	<g id="XMLID_81_">
		<path id="XMLID_301_" class="st2" d="M275.4204102,118.5410156l0.7265625,6.5107422l4.5722656-6.5107422h1.9228516v0.2207031
			c-0.4179688,0.027832-0.6640625,0.0556641-0.7373047,0.0834961c-0.1279297,0.0517578-0.2451172,0.1547852-0.3515625,0.3100586
			c-0.1064453,0.1547852-0.2216797,0.453125-0.3457031,0.8945313l-1.4580078,5.1269531
			c-0.0859375,0.2988281-0.1279297,0.5332031-0.1279297,0.7041016c0,0.1552734,0.0517578,0.2724609,0.15625,0.3515625
			c0.1474609,0.1152344,0.3798828,0.1728516,0.6972656,0.1728516h0.1396484l-0.0527344,0.2207031h-3.3168945l0.0581055-0.2207031
			h0.1567383c0.2944336,0,0.519043-0.0439453,0.6743164-0.1308594c0.1191406-0.0634766,0.2265625-0.1835938,0.3222656-0.3613281
			c0.0947266-0.1767578,0.2275391-0.5693359,0.3974609-1.1767578l1.3017578-4.6865234l-4.5957031,6.5761719h-0.2324219
			l-0.737793-6.5761719l-1.40625,5.0019531c-0.1201172,0.4257813-0.1801758,0.7119141-0.1801758,0.8583984
			c0,0.1474609,0.0527344,0.2597656,0.1572266,0.3369141c0.1044922,0.078125,0.3579102,0.1308594,0.7607422,0.1582031
			l-0.0634766,0.2207031h-2.597168l0.0639648-0.2207031h0.1567383c0.3833008,0,0.6601563-0.0996094,0.8305664-0.2978516
			c0.1240234-0.1435547,0.2539063-0.453125,0.3896484-0.9306641l1.7138672-6.0273438
			c-0.1279297-0.1352539-0.25-0.2265625-0.3662109-0.2744141s-0.3310547-0.0854492-0.6450195-0.1132813l0.0581055-0.2207031
			H275.4204102z"/>
	</g>
</g>
<g id="XMLID_82_">
	<g id="XMLID_83_">
		<path id="XMLID_295_" class="st2" d="M298.1464844,36.0629883h4.2236328v0.2211914l-2.6259766,7.824707H299.09375
			l2.3525391-7.0981445h-2.1669922c-0.4375,0-0.75,0.0522461-0.9355469,0.1567383
			c-0.3251953,0.1782227-0.5869141,0.4536133-0.7841797,0.8256836l-0.1689453-0.0639648L298.1464844,36.0629883z"/>
		<path id="XMLID_297_" class="st2" d="M308.4589844,35.6791992l-2.8525391,8.4296875h-0.4648438l2.8525391-8.4296875H308.4589844z"
			/>
		<path id="XMLID_299_" class="st2" d="M316.3359375,42.4282227l-0.5527344,1.5175781h-4.6474609V43.730957
			c1.3671875-1.2480469,2.3291016-2.2675781,2.8876953-3.0585938c0.5576172-0.7900391,0.8359375-1.5126953,0.8359375-2.1679688
			c0-0.4995117-0.1523438-0.9106445-0.4589844-1.2324219c-0.3056641-0.3212891-0.671875-0.4824219-1.0976563-0.4824219
			c-0.3876953,0-0.7353516,0.1132813-1.0429688,0.340332c-0.3076172,0.2265625-0.5351563,0.559082-0.6826172,0.9970703h-0.2148438
			c0.0966797-0.7172852,0.3457031-1.2675781,0.7460938-1.6513672c0.4013672-0.3833008,0.9013672-0.5751953,1.5019531-0.5751953
			c0.6396484,0,1.1728516,0.2055664,1.6005859,0.6162109c0.4287109,0.4106445,0.6425781,0.8950195,0.6425781,1.453125
			c0,0.3994141-0.0927734,0.7983398-0.2792969,1.1977539c-0.2861328,0.6274414-0.7509766,1.2919922-1.3945313,1.9941406
			c-0.9638672,1.0537109-1.5664063,1.6894531-1.8066406,1.90625h2.0566406c0.4179688,0,0.7119141-0.015625,0.8798828-0.0458984
			c0.1689453-0.03125,0.3212891-0.0947266,0.4560547-0.1894531c0.1357422-0.0947266,0.2539063-0.2294922,0.3544922-0.4042969
			H316.3359375z"/>
	</g>
</g>
<g id="XMLID_84_">
	<g id="XMLID_85_">
		<path id="XMLID_289_" class="st2" d="M302.1894531,60.7451172l-0.4599609,0.9882813h-2.4042969l-0.5253906,1.0585938
			c1.0419922,0.1503906,1.8671875,0.5322266,2.4755859,1.1445313c0.5234375,0.5273438,0.7841797,1.1474609,0.7841797,1.8603516
			c0,0.4150391-0.0849609,0.7988281-0.2558594,1.1513672s-0.3867188,0.6523438-0.6455078,0.9003906
			c-0.2597656,0.2480469-0.5488281,0.4482422-0.8671875,0.5986328c-0.4511719,0.2138672-0.9150391,0.3203125-1.390625,0.3203125
			c-0.4794922,0-0.828125-0.0810547-1.0458984-0.2412109c-0.21875-0.1611328-0.3271484-0.3378906-0.3271484-0.5322266
			c0-0.1083984,0.0449219-0.2041016,0.1357422-0.2880859c0.0898438-0.0830078,0.2041016-0.1240234,0.3417969-0.1240234
			c0.1015625,0,0.1914063,0.0146484,0.2675781,0.0458984c0.0771484,0.03125,0.2070313,0.1103516,0.3925781,0.2382813
			c0.2939453,0.2021484,0.5927734,0.3027344,0.8955078,0.3027344c0.4599609,0,0.8632813-0.171875,1.2109375-0.5146484
			s0.5224609-0.7607422,0.5224609-1.2529297c0-0.4765625-0.1552734-0.921875-0.4658203-1.3339844
			s-0.7392578-0.7314453-1.2851563-0.9560547c-0.4287109-0.1748047-1.0117188-0.2753906-1.7509766-0.3027344l1.5332031-3.0634766
			H302.1894531z"/>
		<path id="XMLID_291_" class="st2" d="M308.2509766,60.3613281l-2.8935547,8.4296875h-0.4716797l2.8935547-8.4296875H308.2509766z"
			/>
		<path id="XMLID_293_" class="st2" d="M316.2441406,67.1103516l-0.5605469,1.5175781H310.96875v-0.2148438
			c1.3867188-1.2480469,2.3632813-2.2675781,2.9287109-3.0585938c0.5664063-0.7900391,0.8486328-1.5126953,0.8486328-2.1679688
			c0-0.4990234-0.1552734-0.9101563-0.4648438-1.2324219c-0.3105469-0.3212891-0.6826172-0.4824219-1.1142578-0.4824219
			c-0.3935547,0-0.7460938,0.1132813-1.0585938,0.3408203c-0.3115234,0.2265625-0.5429688,0.5585938-0.6923828,0.9970703h-0.2177734
			c0.0976563-0.7177734,0.3505859-1.2675781,0.7578125-1.6513672c0.40625-0.3837891,0.9140625-0.5751953,1.5234375-0.5751953
			c0.6484375,0,1.1894531,0.2050781,1.6240234,0.6162109c0.4335938,0.4101563,0.6513672,0.8945313,0.6513672,1.453125
			c0,0.3994141-0.0947266,0.7978516-0.2832031,1.1972656c-0.2910156,0.6279297-0.7626953,1.2919922-1.4150391,1.9941406
			c-0.9785156,1.0537109-1.5888672,1.6894531-1.8330078,1.90625h2.0869141c0.4238281,0,0.7216797-0.015625,0.8925781-0.0458984
			c0.1708984-0.03125,0.3251953-0.0947266,0.4628906-0.1894531s0.2568359-0.2294922,0.359375-0.4042969H316.2441406z"/>
	</g>
</g>
<g id="XMLID_86_">
	<g id="XMLID_87_">
		<path id="XMLID_283_" class="st2" d="M297.5625,86.9121094c0.2275391-0.53125,0.515625-0.940918,0.8632813-1.2294922
			s0.78125-0.4331055,1.2998047-0.4331055c0.640625,0,1.1318359,0.2055664,1.4736328,0.6162109
			c0.2597656,0.3061523,0.3886719,0.6333008,0.3886719,0.9824219c0,0.5737305-0.3652344,1.1665039-1.0957031,1.7788086
			c0.4912109,0.1899414,0.8623047,0.4614258,1.1132813,0.8144531c0.2519531,0.3515625,0.3779297,0.7666016,0.3779297,1.2431641
			c0,0.6826172-0.2207031,1.2734375-0.6601563,1.7734375c-0.5742188,0.6513672-1.4052734,0.9765625-2.4931641,0.9765625
			c-0.5390625,0-0.9052734-0.0664063-1.0996094-0.1982422c-0.1943359-0.1308594-0.2919922-0.2724609-0.2919922-0.4238281
			c0-0.1123047,0.0458984-0.2109375,0.1386719-0.296875c0.0927734-0.0849609,0.203125-0.1279297,0.3330078-0.1279297
			c0.0986328,0,0.1982422,0.015625,0.3007813,0.046875c0.0664063,0.0195313,0.2177734,0.0898438,0.4541016,0.2119141
			c0.2353516,0.1220703,0.3984375,0.1953125,0.4892578,0.2177734c0.1445313,0.0429688,0.2998047,0.0644531,0.4648438,0.0644531
			c0.4013672,0,0.75-0.1533203,1.046875-0.4589844c0.296875-0.3066406,0.4443359-0.6689453,0.4443359-1.0869141
			c0-0.3066406-0.0683594-0.6054688-0.2060547-0.8955078c-0.1015625-0.2177734-0.2138672-0.3818359-0.3359375-0.4941406
			c-0.1689453-0.1552734-0.4003906-0.2958984-0.6953125-0.4208984c-0.2949219-0.1269531-0.5957031-0.1894531-0.9023438-0.1894531
			h-0.1884766v-0.1748047c0.3105469-0.0385742,0.6220703-0.1489258,0.9345703-0.3310547s0.5390625-0.4013672,0.6806641-0.6572266
			c0.1416016-0.2553711,0.2119141-0.5366211,0.2119141-0.8427734c0-0.3989258-0.1259766-0.7216797-0.3798828-0.9677734
			c-0.2529297-0.2460938-0.5683594-0.3691406-0.9462891-0.3691406c-0.6083984,0-1.1171875,0.3217773-1.5263672,0.9648438
			L297.5625,86.9121094z"/>
		<path id="XMLID_285_" class="st2" d="M308.0576172,85.0283203l-2.8935547,8.4296875h-0.4716797l2.8935547-8.4296875H308.0576172z"
			/>
		<path id="XMLID_287_" class="st2" d="M316.0507813,91.7773438l-0.5605469,1.5175781h-4.7148438v-0.2148438
			c1.3867188-1.2480469,2.3632813-2.2675781,2.9287109-3.0585938c0.5664063-0.7900391,0.8486328-1.5126953,0.8486328-2.1679688
			c0-0.4995117-0.1552734-0.9106445-0.4648438-1.2324219c-0.3105469-0.3212891-0.6826172-0.4824219-1.1142578-0.4824219
			c-0.3935547,0-0.7460938,0.1132813-1.0585938,0.340332c-0.3115234,0.2265625-0.5429688,0.559082-0.6923828,0.9970703h-0.2177734
			c0.0976563-0.7172852,0.3505859-1.2675781,0.7578125-1.6513672c0.40625-0.3833008,0.9140625-0.5751953,1.5234375-0.5751953
			c0.6484375,0,1.1894531,0.2055664,1.6240234,0.6162109c0.4335938,0.4106445,0.6513672,0.8950195,0.6513672,1.453125
			c0,0.3994141-0.0947266,0.7983398-0.2832031,1.1977539c-0.2910156,0.6274414-0.7626953,1.2919922-1.4150391,1.9941406
			c-0.9785156,1.0537109-1.5888672,1.6894531-1.8330078,1.90625h2.0869141c0.4238281,0,0.7216797-0.015625,0.8925781-0.0458984
			c0.1708984-0.03125,0.3251953-0.0947266,0.4628906-0.1894531s0.2568359-0.2294922,0.359375-0.4042969H316.0507813z"/>
	</g>
</g>
<g id="XMLID_88_">
	<g id="XMLID_89_">
		<path id="XMLID_277_" class="st2" d="M298.3662109,109.8520508l1.9472656-0.9360352h0.1953125v6.6557617
			c0,0.4423828,0.0185547,0.7177734,0.0556641,0.8261719s0.1152344,0.1914063,0.2333984,0.25
			c0.1181641,0.0576172,0.3574219,0.0908203,0.7197266,0.0986328v0.2148438h-3.0097656v-0.2148438
			c0.3779297-0.0078125,0.6210938-0.0400391,0.7314453-0.0957031c0.1103516-0.0566406,0.1875-0.1318359,0.2304688-0.2275391
			c0.0429688-0.0947266,0.0644531-0.3779297,0.0644531-0.8515625v-4.2548828c0-0.5737305-0.0195313-0.9418945-0.0585938-1.1044922
			c-0.0273438-0.1240234-0.078125-0.215332-0.1503906-0.2734375c-0.0732422-0.0581055-0.1601563-0.0869141-0.2626953-0.0869141
			c-0.1455078,0-0.3486328,0.0600586-0.6083984,0.1801758L298.3662109,109.8520508z"/>
		<path id="XMLID_279_" class="st2" d="M307.5048828,108.6948242l-2.8974609,8.4296875h-0.4726563l2.8984375-8.4296875H307.5048828z
			"/>
		<path id="XMLID_281_" class="st2" d="M315.5078125,115.4438477l-0.5605469,1.5175781h-4.7216797v-0.2148438
			c1.3886719-1.2480469,2.3671875-2.2675781,2.9335938-3.0585938c0.5664063-0.7900391,0.8496094-1.5126953,0.8496094-2.1679688
			c0-0.4995117-0.1552734-0.9106445-0.4658203-1.2324219c-0.3115234-0.3212891-0.6835938-0.4824219-1.1162109-0.4824219
			c-0.3935547,0-0.7460938,0.1132813-1.0595703,0.340332c-0.3125,0.2265625-0.5439453,0.559082-0.6933594,0.9970703h-0.2177734
			c0.0976563-0.7172852,0.3505859-1.2675781,0.7578125-1.6513672c0.4072266-0.3833008,0.9160156-0.5751953,1.5263672-0.5751953
			c0.6484375,0,1.1904297,0.2055664,1.6259766,0.6162109c0.4345703,0.4106445,0.6523438,0.8950195,0.6523438,1.453125
			c0,0.3994141-0.0947266,0.7983398-0.2841797,1.1977539c-0.2910156,0.6274414-0.7626953,1.2919922-1.4160156,1.9941406
			c-0.9794922,1.0537109-1.5917969,1.6894531-1.8359375,1.90625h2.0898438c0.4248047,0,0.7226563-0.015625,0.8935547-0.0458984
			c0.171875-0.03125,0.3261719-0.0947266,0.4638672-0.1894531s0.2578125-0.2294922,0.3603516-0.4042969H315.5078125z"/>
	</g>
</g>
<g id="XMLID_90_">
	<g id="XMLID_92_">
		<path id="XMLID_271_" class="st2" d="M298.3603516,133.1855469l1.9384766-0.9360352h0.1943359v6.6557617
			c0,0.4423828,0.0185547,0.7177734,0.0556641,0.8261719s0.1152344,0.1914063,0.2324219,0.25
			c0.1171875,0.0576172,0.3564453,0.0908203,0.7167969,0.0986328v0.2148438h-2.9970703v-0.2148438
			c0.3759766-0.0078125,0.6191406-0.0400391,0.7285156-0.0957031c0.109375-0.0566406,0.1865234-0.1318359,0.2294922-0.2275391
			c0.0429688-0.0947266,0.0644531-0.3779297,0.0644531-0.8515625v-4.2548828c0-0.5737305-0.0195313-0.9418945-0.0585938-1.1044922
			c-0.0273438-0.1240234-0.0771484-0.215332-0.1503906-0.2734375c-0.0722656-0.0581055-0.1591797-0.0869141-0.2607422-0.0869141
			c-0.1455078,0-0.3466797,0.0600586-0.6054688,0.1801758L298.3603516,133.1855469z"/>
		<path id="XMLID_273_" class="st2" d="M307.4589844,132.0283203l-2.8857422,8.4296875h-0.4697266l2.8857422-8.4296875H307.4589844z
			"/>
		<path id="XMLID_275_" class="st2" d="M315.4277344,138.7773438l-0.5585938,1.5175781h-4.7011719v-0.2148438
			c1.3828125-1.2480469,2.3564453-2.2675781,2.9208984-3.0585938c0.5634766-0.7900391,0.8457031-1.5126953,0.8457031-2.1679688
			c0-0.4995117-0.1542969-0.9106445-0.4638672-1.2324219c-0.3095703-0.3212891-0.6796875-0.4824219-1.1113281-0.4824219
			c-0.3916016,0-0.7431641,0.1132813-1.0546875,0.340332c-0.3115234,0.2265625-0.5410156,0.559082-0.6904297,0.9970703h-0.2177734
			c0.0986328-0.7172852,0.3505859-1.2675781,0.7558594-1.6513672c0.4052734-0.3833008,0.9111328-0.5751953,1.5185547-0.5751953
			c0.6464844,0,1.1865234,0.2055664,1.6191406,0.6162109c0.4335938,0.4106445,0.6494141,0.8950195,0.6494141,1.453125
			c0,0.3994141-0.09375,0.7983398-0.2822266,1.1977539c-0.2900391,0.6274414-0.7597656,1.2919922-1.4101563,1.9941406
			c-0.9755859,1.0537109-1.5849609,1.6894531-1.8271484,1.90625H313.5c0.4228516,0,0.7197266-0.015625,0.890625-0.0458984
			c0.1699219-0.03125,0.3242188-0.0947266,0.4609375-0.1894531s0.2568359-0.2294922,0.3583984-0.4042969H315.4277344z"/>
	</g>
	<g id="XMLID_91_">
		<path id="XMLID_269_" class="st2" d="M290.5810547,136.9462891h6.1708984v0.5761719h-6.1708984V136.9462891z"/>
	</g>
</g>
<g id="XMLID_93_">
	<g id="XMLID_95_">
		<path id="XMLID_263_" class="st2" d="M297.4755859,158.2451172c0.2246094-0.53125,0.5087891-0.9404297,0.8515625-1.2294922
			c0.3427734-0.2880859,0.7695313-0.4326172,1.2802734-0.4326172c0.6318359,0,1.1162109,0.2050781,1.453125,0.6162109
			c0.2558594,0.3056641,0.3828125,0.6328125,0.3828125,0.9824219c0,0.5732422-0.359375,1.1660156-1.0800781,1.7783203
			c0.484375,0.1904297,0.8496094,0.4619141,1.0976563,0.8144531c0.2480469,0.3515625,0.3720703,0.7666016,0.3720703,1.2431641
			c0,0.6826172-0.2167969,1.2734375-0.6503906,1.7734375c-0.5654297,0.6513672-1.3847656,0.9765625-2.4580078,0.9765625
			c-0.5302734,0-0.8916016-0.0664063-1.0830078-0.1982422c-0.1923828-0.1308594-0.2880859-0.2724609-0.2880859-0.4238281
			c0-0.1123047,0.0458984-0.2109375,0.1367188-0.296875c0.0908203-0.0849609,0.2001953-0.1279297,0.328125-0.1279297
			c0.0966797,0,0.1953125,0.015625,0.2958984,0.046875c0.0664063,0.0195313,0.2158203,0.0898438,0.4482422,0.2119141
			s0.3925781,0.1953125,0.4814453,0.2177734c0.1435547,0.0429688,0.296875,0.0644531,0.4589844,0.0644531
			c0.3955078,0,0.7392578-0.1533203,1.03125-0.4589844c0.2929688-0.3066406,0.4394531-0.6689453,0.4394531-1.0869141
			c0-0.3066406-0.0683594-0.6054688-0.2041016-0.8955078c-0.1005859-0.2177734-0.2109375-0.3818359-0.3310547-0.4941406
			c-0.1660156-0.1552734-0.3945313-0.2958984-0.6855469-0.4208984c-0.2900391-0.1269531-0.5869141-0.1894531-0.8886719-0.1894531
			h-0.1855469v-0.1748047c0.3056641-0.0380859,0.6123047-0.1484375,0.9208984-0.3310547
			c0.3076172-0.1816406,0.53125-0.4013672,0.6708984-0.6572266c0.1386719-0.2548828,0.2089844-0.5361328,0.2089844-0.8427734
			c0-0.3984375-0.125-0.7216797-0.375-0.9677734s-0.5605469-0.3691406-0.9326172-0.3691406
			c-0.6005859,0-1.1015625,0.3222656-1.5048828,0.9648438L297.4755859,158.2451172z"/>
		<path id="XMLID_265_" class="st2" d="M307.8212891,156.3613281l-2.8525391,8.4296875h-0.4648438l2.8525391-8.4296875H307.8212891z
			"/>
		<path id="XMLID_267_" class="st2" d="M315.6992188,163.1103516l-0.5527344,1.5175781h-4.6474609v-0.2148438
			c1.3671875-1.2480469,2.3291016-2.2675781,2.8876953-3.0585938c0.5576172-0.7900391,0.8359375-1.5126953,0.8359375-2.1679688
			c0-0.4990234-0.1523438-0.9101563-0.4589844-1.2324219c-0.3056641-0.3212891-0.671875-0.4824219-1.0976563-0.4824219
			c-0.3876953,0-0.7353516,0.1132813-1.0429688,0.3408203c-0.3076172,0.2265625-0.5351563,0.5585938-0.6826172,0.9970703h-0.2148438
			c0.0966797-0.7177734,0.3457031-1.2675781,0.7460938-1.6513672c0.4013672-0.3837891,0.9013672-0.5751953,1.5019531-0.5751953
			c0.6396484,0,1.1728516,0.2050781,1.6005859,0.6162109c0.4287109,0.4101563,0.6425781,0.8945313,0.6425781,1.453125
			c0,0.3994141-0.0927734,0.7978516-0.2792969,1.1972656c-0.2861328,0.6279297-0.7509766,1.2919922-1.3945313,1.9941406
			c-0.9638672,1.0537109-1.5664063,1.6894531-1.8066406,1.90625h2.0566406c0.4179688,0,0.7119141-0.015625,0.8798828-0.0458984
			c0.1689453-0.03125,0.3212891-0.0947266,0.4560547-0.1894531c0.1357422-0.0947266,0.2539063-0.2294922,0.3544922-0.4042969
			H315.6992188z"/>
	</g>
	<g id="XMLID_94_">
		<path id="XMLID_261_" class="st2" d="M290.578125,161.2792969h6.1005859v0.5761719h-6.1005859V161.2792969z"/>
	</g>
</g>
<g id="XMLID_96_">
	<g id="XMLID_98_">
		<path id="XMLID_255_" class="st2" d="M302.0361328,180.7451172l-0.453125,0.9882813h-2.3701172l-0.5175781,1.0585938
			c1.0263672,0.1503906,1.8398438,0.5322266,2.4404297,1.1445313c0.515625,0.5273438,0.7724609,1.1474609,0.7724609,1.8603516
			c0,0.4150391-0.0839844,0.7988281-0.2519531,1.1513672c-0.1689453,0.3525391-0.3808594,0.6523438-0.6367188,0.9003906
			s-0.5400391,0.4482422-0.8535156,0.5986328c-0.4462891,0.2138672-0.9033203,0.3203125-1.3710938,0.3203125
			c-0.4726563,0-0.8164063-0.0810547-1.0322266-0.2412109c-0.2148438-0.1611328-0.3222656-0.3378906-0.3222656-0.5322266
			c0-0.1083984,0.0449219-0.2041016,0.1337891-0.2880859c0.0888672-0.0830078,0.2011719-0.1240234,0.3369141-0.1240234
			c0.1005859,0,0.1894531,0.0146484,0.2646484,0.0458984s0.2041016,0.1103516,0.3867188,0.2382813
			c0.2900391,0.2021484,0.5839844,0.3027344,0.8828125,0.3027344c0.453125,0,0.8505859-0.171875,1.1933594-0.5146484
			s0.5146484-0.7607422,0.5146484-1.2529297c0-0.4765625-0.1533203-0.921875-0.4589844-1.3339844
			s-0.7285156-0.7314453-1.2666016-0.9560547c-0.421875-0.1748047-0.9970703-0.2753906-1.7255859-0.3027344l1.5107422-3.0634766
			H302.0361328z"/>
		<path id="XMLID_257_" class="st2" d="M308.0117188,180.3613281l-2.8525391,8.4296875h-0.4648438l2.8525391-8.4296875H308.0117188z
			"/>
		<path id="XMLID_259_" class="st2" d="M315.8896484,187.1103516l-0.5527344,1.5175781h-4.6474609v-0.2148438
			c1.3671875-1.2480469,2.3291016-2.2675781,2.8876953-3.0585938c0.5576172-0.7900391,0.8359375-1.5126953,0.8359375-2.1679688
			c0-0.4990234-0.1523438-0.9101563-0.4589844-1.2324219c-0.3056641-0.3212891-0.671875-0.4824219-1.0976563-0.4824219
			c-0.3876953,0-0.7353516,0.1132813-1.0429688,0.3408203c-0.3076172,0.2265625-0.5351563,0.5585938-0.6826172,0.9970703h-0.2148438
			c0.0966797-0.7177734,0.3457031-1.2675781,0.7460938-1.6513672c0.4013672-0.3837891,0.9013672-0.5751953,1.5019531-0.5751953
			c0.6396484,0,1.1728516,0.2050781,1.6005859,0.6162109c0.4287109,0.4101563,0.6425781,0.8945313,0.6425781,1.453125
			c0,0.3994141-0.0927734,0.7978516-0.2792969,1.1972656c-0.2861328,0.6279297-0.7509766,1.2919922-1.3945313,1.9941406
			c-0.9638672,1.0537109-1.5664063,1.6894531-1.8066406,1.90625h2.0566406c0.4179688,0,0.7119141-0.015625,0.8798828-0.0458984
			c0.1689453-0.03125,0.3212891-0.0947266,0.4560547-0.1894531c0.1357422-0.0947266,0.2539063-0.2294922,0.3544922-0.4042969
			H315.8896484z"/>
	</g>
	<g id="XMLID_97_">
		<path id="XMLID_253_" class="st2" d="M290.578125,185.2792969h6.1005859v0.5761719h-6.1005859V185.2792969z"/>
	</g>
</g>
<g id="XMLID_99_">
	<g id="XMLID_101_">
		<path id="XMLID_247_" class="st2" d="M298.0683594,204.7451172h4.2236328v0.2216797l-2.6259766,7.8242188h-0.6503906
			l2.3525391-7.0976563h-2.1669922c-0.4375,0-0.75,0.0517578-0.9355469,0.15625
			c-0.3251953,0.1787109-0.5869141,0.4541016-0.7841797,0.8261719l-0.1689453-0.0644531L298.0683594,204.7451172z"/>
		<path id="XMLID_249_" class="st2" d="M308.3798828,204.3613281l-2.8525391,8.4296875H305.0625l2.8525391-8.4296875H308.3798828z"
			/>
		<path id="XMLID_251_" class="st2" d="M316.2578125,211.1103516l-0.5527344,1.5175781h-4.6474609v-0.2148438
			c1.3671875-1.2480469,2.3291016-2.2675781,2.8876953-3.0585938c0.5576172-0.7900391,0.8359375-1.5126953,0.8359375-2.1679688
			c0-0.4990234-0.1523438-0.9101563-0.4589844-1.2324219c-0.3056641-0.3212891-0.671875-0.4824219-1.0976563-0.4824219
			c-0.3876953,0-0.7353516,0.1132813-1.0429688,0.3408203c-0.3076172,0.2265625-0.5351563,0.5585938-0.6826172,0.9970703h-0.2148438
			c0.0966797-0.7177734,0.3457031-1.2675781,0.7460938-1.6513672c0.4013672-0.3837891,0.9013672-0.5751953,1.5019531-0.5751953
			c0.6396484,0,1.1728516,0.2050781,1.6005859,0.6162109c0.4287109,0.4101563,0.6425781,0.8945313,0.6425781,1.453125
			c0,0.3994141-0.0927734,0.7978516-0.2792969,1.1972656c-0.2861328,0.6279297-0.7509766,1.2919922-1.3945313,1.9941406
			c-0.9638672,1.0537109-1.5664063,1.6894531-1.8066406,1.90625h2.0566406c0.4179688,0,0.7119141-0.015625,0.8798828-0.0458984
			c0.1689453-0.03125,0.3212891-0.0947266,0.4560547-0.1894531c0.1357422-0.0947266,0.2539063-0.2294922,0.3544922-0.4042969
			H316.2578125z"/>
	</g>
	<g id="XMLID_100_">
		<path id="XMLID_245_" class="st2" d="M290.578125,209.2792969h6.1005859v0.5761719h-6.1005859V209.2792969z"/>
	</g>
</g>
<g id="XMLID_102_">
	<g id="XMLID_103_">
		<path id="XMLID_242_" class="st2" d="M334.2880859,231.7421875c-0.0283203,0.1992188-0.0429688,0.3652344-0.0429688,0.4970703
			c0,0.3554688,0.1269531,0.6582031,0.3798828,0.9072266c0.2529297,0.25,0.5605469,0.3740234,0.921875,0.3740234
			c0.2890625,0,0.5673828-0.0585938,0.8339844-0.1767578c0.2675781-0.1171875,0.6640625-0.3779297,1.1904297-0.78125
			l0.1269531,0.1738281c-0.9521484,0.9384766-1.8603516,1.4072266-2.7236328,1.4072266
			c-0.5869141,0-1.0283203-0.1835938-1.3251953-0.5507813c-0.2978516-0.3671875-0.4462891-0.7724609-0.4462891-1.2158203
			c0-0.5957031,0.1845703-1.2041016,0.5546875-1.8266602c0.3691406-0.6230469,0.8330078-1.1074219,1.3916016-1.4526367
			s1.1328125-0.5180664,1.7226563-0.5180664c0.4257813,0,0.7412109,0.0859375,0.9462891,0.2573242
			c0.2050781,0.171875,0.3076172,0.3754883,0.3076172,0.6113281c0,0.3310547-0.1328125,0.6489258-0.3984375,0.9521484
			c-0.3486328,0.3955078-0.8632813,0.7148438-1.5419922,0.9589844
			C335.7353516,231.5224609,335.1035156,231.6503906,334.2880859,231.7421875z M334.3300781,231.4492188
			c0.5947266-0.0683594,1.078125-0.184082,1.4521484-0.3481445c0.4931641-0.2197266,0.8642578-0.4819336,1.1113281-0.7875977
			c0.2470703-0.3051758,0.3701172-0.5957031,0.3701172-0.871582c0-0.1674805-0.0527344-0.3032227-0.1591797-0.4072266
			c-0.1064453-0.1035156-0.2587891-0.1557617-0.4550781-0.1557617c-0.4101563,0-0.8447266,0.2167969-1.3046875,0.6499023
			C334.8847656,229.9624023,334.546875,230.6020508,334.3300781,231.4492188z"/>
	</g>
</g>
<g id="XMLID_104_">
	<g id="XMLID_105_">
		<path id="XMLID_239_" class="st2" d="M362.8925781,208.0820313c0,0.5991211-0.1542969,1.1923828-0.4619141,1.7792969
			s-0.7373047,1.0517578-1.2861328,1.3955078c-0.5507813,0.3427734-1.0849609,0.5146484-1.6035156,0.5146484
			c-0.53125,0-0.9648438-0.1748047-1.2988281-0.5234375c-0.3359375-0.3496094-0.5029297-0.8017578-0.5029297-1.3574219
			c0-0.5869141,0.1630859-1.175293,0.4912109-1.7666016c0.3271484-0.5908203,0.7646484-1.0581055,1.3125-1.4013672
			c0.5488281-0.3432617,1.078125-0.5151367,1.5898438-0.5151367c0.5107422,0,0.9316406,0.1738281,1.2626953,0.5209961
			C362.7275391,207.0761719,362.8925781,207.5273438,362.8925781,208.0820313z M361.9287109,207.6689453
			c0-0.371582-0.0888672-0.6557617-0.2646484-0.8535156c-0.1767578-0.1977539-0.4042969-0.2963867-0.6826172-0.2963867
			c-0.5693359,0-1.09375,0.4204102-1.5712891,1.2607422c-0.4785156,0.840332-0.71875,1.6762695-0.71875,2.5063477
			c0,0.3798828,0.09375,0.671875,0.2792969,0.8779297c0.1855469,0.2050781,0.4199219,0.3085938,0.703125,0.3085938
			c0.546875,0,1.0585938-0.4189453,1.5371094-1.2548828C361.6894531,209.3808594,361.9287109,208.53125,361.9287109,207.6689453z"/>
	</g>
</g>
<g id="XMLID_1_">
	<g id="XMLID_106_">
		<path id="XMLID_236_" class="st2" d="M381.9707031,186.3706055c-0.0283203,0.1992188-0.0429688,0.3652344-0.0429688,0.4970703
			c0,0.3554688,0.1269531,0.6582031,0.3798828,0.9072266c0.2529297,0.25,0.5605469,0.3740234,0.921875,0.3740234
			c0.2890625,0,0.5673828-0.0585938,0.8339844-0.1767578c0.2675781-0.1171875,0.6640625-0.3779297,1.1904297-0.78125
			l0.1269531,0.1738281c-0.9521484,0.9384766-1.8603516,1.4072266-2.7236328,1.4072266
			c-0.5869141,0-1.0283203-0.1835938-1.3251953-0.5507813c-0.2978516-0.3671875-0.4462891-0.7724609-0.4462891-1.2158203
			c0-0.5957031,0.1845703-1.2041016,0.5546875-1.8266602c0.3691406-0.6230469,0.8330078-1.1074219,1.3916016-1.4526367
			s1.1328125-0.5180664,1.7226563-0.5180664c0.4257813,0,0.7412109,0.0859375,0.9462891,0.2573242
			c0.2050781,0.171875,0.3076172,0.3754883,0.3076172,0.6113281c0,0.3310547-0.1328125,0.6489258-0.3984375,0.9521484
			c-0.3486328,0.3955078-0.8632813,0.7148438-1.5419922,0.9589844
			C383.4179688,186.1508789,382.7861328,186.2788086,381.9707031,186.3706055z M382.0126953,186.0776367
			c0.5947266-0.0683594,1.078125-0.184082,1.4521484-0.3481445c0.4931641-0.2197266,0.8642578-0.4819336,1.1113281-0.7875977
			c0.2470703-0.3051758,0.3701172-0.5957031,0.3701172-0.871582c0-0.1674805-0.0527344-0.3032227-0.1591797-0.4072266
			c-0.1064453-0.1035156-0.2587891-0.1557617-0.4550781-0.1557617c-0.4101563,0-0.8447266,0.2167969-1.3046875,0.6499023
			C382.5673828,184.5908203,382.2294922,185.2304688,382.0126953,186.0776367z"/>
	</g>
</g>
<g id="XMLID_107_">
	<g id="XMLID_108_">
		<path id="XMLID_233_" class="st2" d="M411.7050781,158.9399414c0,0.5991211-0.1542969,1.1923828-0.4619141,1.7792969
			s-0.7373047,1.0517578-1.2861328,1.3955078c-0.5507813,0.3427734-1.0849609,0.5146484-1.6044922,0.5146484
			c-0.5302734,0-0.9638672-0.1748047-1.2988281-0.5234375c-0.3349609-0.3496094-0.5019531-0.8017578-0.5019531-1.3574219
			c0-0.5869141,0.1630859-1.175293,0.4902344-1.7666016c0.328125-0.5908203,0.765625-1.0581055,1.3134766-1.4013672
			s1.078125-0.5151367,1.5898438-0.5151367c0.5107422,0,0.9316406,0.1738281,1.2626953,0.5209961
			C411.5400391,157.934082,411.7050781,158.3852539,411.7050781,158.9399414z M410.7412109,158.5268555
			c0-0.371582-0.0888672-0.6557617-0.2646484-0.8535156c-0.1767578-0.1977539-0.4042969-0.2963867-0.6826172-0.2963867
			c-0.5703125,0-1.09375,0.4204102-1.5722656,1.2607422s-0.7177734,1.6762695-0.7177734,2.5063477
			c0,0.3798828,0.09375,0.671875,0.2792969,0.8779297c0.1855469,0.2050781,0.4199219,0.3085938,0.703125,0.3085938
			c0.5458984,0,1.0585938-0.4189453,1.5371094-1.2548828C410.5019531,160.2387695,410.7412109,159.3891602,410.7412109,158.5268555z
			"/>
	</g>
</g>
<g id="XMLID_132_">
	<g id="XMLID_134_">
		<path id="XMLID_227_" class="st2" d="M139.5683594,227.7451172h4.2241211v0.2216797l-2.6264648,7.8242188h-0.6503906
			l2.3530273-7.0976563h-2.1674805c-0.4375,0-0.7495117,0.0517578-0.9350586,0.15625
			c-0.3256836,0.1787109-0.5869141,0.4541016-0.784668,0.8261719l-0.168457-0.0644531L139.5683594,227.7451172z"/>
		<path id="XMLID_229_" class="st2" d="M149.8803711,227.3613281l-2.8525391,8.4296875h-0.4648438l2.8525391-8.4296875H149.8803711z
			"/>
		<path id="XMLID_231_" class="st2" d="M157.7583008,234.1103516l-0.5527344,1.5175781h-4.6474609v-0.2148438
			c1.3671875-1.2480469,2.3291016-2.2675781,2.8876953-3.0585938c0.5576172-0.7900391,0.8359375-1.5126953,0.8359375-2.1679688
			c0-0.4990234-0.1523438-0.9101563-0.4589844-1.2324219c-0.3056641-0.3212891-0.671875-0.4824219-1.0976563-0.4824219
			c-0.3876953,0-0.7353516,0.1132813-1.0429688,0.3408203c-0.3076172,0.2265625-0.5351563,0.5585938-0.6826172,0.9970703h-0.2148438
			c0.0966797-0.7177734,0.3457031-1.2675781,0.7460938-1.6513672c0.4013672-0.3837891,0.9013672-0.5751953,1.5019531-0.5751953
			c0.6396484,0,1.1728516,0.2050781,1.6005859,0.6162109c0.4287109,0.4101563,0.6425781,0.8945313,0.6425781,1.453125
			c0,0.3994141-0.0927734,0.7978516-0.2792969,1.1972656c-0.2861328,0.6279297-0.7509766,1.2919922-1.3945313,1.9941406
			c-0.9638672,1.0537109-1.5664063,1.6894531-1.8066406,1.90625h2.0566406c0.4179688,0,0.7119141-0.015625,0.8798828-0.0458984
			c0.1689453-0.03125,0.3212891-0.0947266,0.4560547-0.1894531c0.1357422-0.0947266,0.2539063-0.2294922,0.3544922-0.4042969
			H157.7583008z"/>
	</g>
	<g id="XMLID_133_">
		<path id="XMLID_225_" class="st2" d="M132.0786133,232.2792969h6.1005859v0.5761719h-6.1005859V232.2792969z"/>
	</g>
</g>
<g id="XMLID_135_">
	<g id="XMLID_137_">
		<path id="XMLID_219_" class="st2" d="M153.3408203,216.1083984l-0.453125,0.9882813h-2.3706055L150,218.1547852
			c1.0263672,0.1508789,1.8398438,0.5327148,2.4404297,1.1450195c0.5151367,0.5273438,0.7724609,1.1474609,0.7724609,1.8603516
			c0,0.4150391-0.0839844,0.7988281-0.2524414,1.1513672s-0.3808594,0.6523438-0.6362305,0.9003906
			c-0.2558594,0.2480469-0.5405273,0.4482422-0.8540039,0.5986328c-0.4458008,0.2138672-0.902832,0.3203125-1.3710938,0.3203125
			c-0.4726563,0-0.8164063-0.0810547-1.0317383-0.2412109c-0.2148438-0.1611328-0.3222656-0.3378906-0.3222656-0.5322266
			c0-0.1083984,0.0444336-0.2041016,0.1337891-0.2880859c0.0888672-0.0830078,0.2011719-0.1240234,0.3369141-0.1240234
			c0.1005859,0,0.1889648,0.0146484,0.2641602,0.0458984c0.0756836,0.03125,0.2045898,0.1103516,0.3867188,0.2382813
			c0.2905273,0.2021484,0.5844727,0.3027344,0.8828125,0.3027344c0.453125,0,0.8510742-0.171875,1.1938477-0.5146484
			s0.5141602-0.7607422,0.5141602-1.2529297c0-0.4765625-0.152832-0.921875-0.4589844-1.3339844
			c-0.3056641-0.4125977-0.7280273-0.7314453-1.2666016-0.956543c-0.421875-0.1743164-0.9970703-0.2749023-1.7250977-0.3022461
			l1.5102539-3.0634766H153.3408203z"/>
		<path id="XMLID_221_" class="st2" d="M159.3164063,215.7246094l-2.8525391,8.4296875h-0.4648438l2.8525391-8.4296875H159.3164063z
			"/>
		<path id="XMLID_223_" class="st2" d="M167.1943359,222.4736328l-0.5527344,1.5175781h-4.6474609v-0.2148438
			c1.3671875-1.2480469,2.3291016-2.2675781,2.8876953-3.0585938c0.5576172-0.7900391,0.8359375-1.5126953,0.8359375-2.1679688
			c0-0.4995117-0.1523438-0.9106445-0.4589844-1.2324219c-0.3056641-0.3212891-0.671875-0.4824219-1.0976563-0.4824219
			c-0.3876953,0-0.7353516,0.1132813-1.0429688,0.340332c-0.3076172,0.2265625-0.5351563,0.559082-0.6826172,0.9970703h-0.2148438
			c0.0966797-0.7172852,0.3457031-1.2675781,0.7460938-1.6513672c0.4013672-0.3833008,0.9013672-0.5751953,1.5019531-0.5751953
			c0.6396484,0,1.1728516,0.2055664,1.6005859,0.6162109c0.4287109,0.4106445,0.6425781,0.8950195,0.6425781,1.453125
			c0,0.3994141-0.0927734,0.7983398-0.2792969,1.1977539c-0.2861328,0.6274414-0.7509766,1.2919922-1.3945313,1.9941406
			c-0.9638672,1.0537109-1.5664063,1.6894531-1.8066406,1.90625h2.0566406c0.4179688,0,0.7119141-0.015625,0.8798828-0.0458984
			c0.1689453-0.03125,0.3212891-0.0947266,0.4560547-0.1894531c0.1357422-0.0947266,0.2539063-0.2294922,0.3544922-0.4042969
			H167.1943359z"/>
	</g>
	<g id="XMLID_136_">
		<path id="XMLID_217_" class="st2" d="M141.8828125,220.6425781h6.1005859v0.5761719h-6.1005859V220.6425781z"/>
	</g>
</g>
<g id="XMLID_138_">
	<g id="XMLID_140_">
		<path id="XMLID_211_" class="st2" d="M160.7329102,204.2456055c0.2246094-0.53125,0.5087891-0.940918,0.8515625-1.2294922
			s0.7695313-0.4331055,1.2807617-0.4331055c0.6313477,0,1.1157227,0.2055664,1.4526367,0.6162109
			c0.2558594,0.3061523,0.3833008,0.6333008,0.3833008,0.9824219c0,0.5737305-0.3598633,1.1665039-1.0805664,1.7788086
			c0.484375,0.1899414,0.8500977,0.4614258,1.0981445,0.8144531c0.2480469,0.3515625,0.3720703,0.7666016,0.3720703,1.2431641
			c0,0.6826172-0.2172852,1.2734375-0.6508789,1.7734375c-0.5654297,0.6513672-1.3847656,0.9765625-2.4575195,0.9765625
			c-0.5307617,0-0.8920898-0.0664063-1.0834961-0.1982422c-0.1918945-0.1308594-0.2875977-0.2724609-0.2875977-0.4238281
			c0-0.1123047,0.0454102-0.2109375,0.1362305-0.296875c0.0913086-0.0849609,0.2006836-0.1279297,0.3286133-0.1279297
			c0.0966797,0,0.1953125,0.015625,0.2958984,0.046875c0.065918,0.0195313,0.215332,0.0898438,0.4477539,0.2119141
			s0.3930664,0.1953125,0.4819336,0.2177734c0.1435547,0.0429688,0.2963867,0.0644531,0.4589844,0.0644531
			c0.3950195,0,0.7387695-0.1533203,1.03125-0.4589844c0.2924805-0.3066406,0.4389648-0.6689453,0.4389648-1.0869141
			c0-0.3066406-0.0678711-0.6054688-0.2036133-0.8955078c-0.1005859-0.2177734-0.2109375-0.3818359-0.3310547-0.4941406
			c-0.1665039-0.1552734-0.3950195-0.2958984-0.6855469-0.4208984c-0.2905273-0.1269531-0.5869141-0.1894531-0.8891602-0.1894531
			h-0.1855469v-0.1748047c0.3056641-0.0385742,0.612793-0.1489258,0.9208984-0.3310547
			c0.3076172-0.1821289,0.53125-0.4013672,0.6708984-0.6572266c0.1391602-0.2553711,0.2089844-0.5366211,0.2089844-0.8427734
			c0-0.3989258-0.125-0.7216797-0.3745117-0.9677734c-0.25-0.2460938-0.5610352-0.3691406-0.9326172-0.3691406
			c-0.6005859,0-1.1020508,0.3217773-1.5048828,0.9648438L160.7329102,204.2456055z"/>
		<path id="XMLID_213_" class="st2" d="M171.0791016,202.3618164l-2.8525391,8.4296875h-0.4648438l2.8525391-8.4296875H171.0791016z
			"/>
		<path id="XMLID_215_" class="st2" d="M178.9570313,209.1108398l-0.5527344,1.5175781h-4.6474609v-0.2148438
			c1.3671875-1.2480469,2.3291016-2.2675781,2.8876953-3.0585938c0.5576172-0.7900391,0.8359375-1.5126953,0.8359375-2.1679688
			c0-0.4995117-0.1523438-0.9106445-0.4589844-1.2324219c-0.3056641-0.3212891-0.671875-0.4824219-1.0976563-0.4824219
			c-0.3876953,0-0.7353516,0.1132813-1.0429688,0.340332c-0.3076172,0.2265625-0.5351563,0.559082-0.6826172,0.9970703h-0.2148438
			c0.0966797-0.7172852,0.3457031-1.2675781,0.7460938-1.6513672c0.4013672-0.3833008,0.9013672-0.5751953,1.5019531-0.5751953
			c0.6396484,0,1.1728516,0.2055664,1.6005859,0.6162109c0.4287109,0.4106445,0.6425781,0.8950195,0.6425781,1.453125
			c0,0.3994141-0.0927734,0.7983398-0.2792969,1.1977539c-0.2861328,0.6274414-0.7509766,1.2919922-1.3945313,1.9941406
			c-0.9638672,1.0537109-1.5664063,1.6894531-1.8066406,1.90625h2.0566406c0.4179688,0,0.7119141-0.015625,0.8798828-0.0458984
			c0.1689453-0.03125,0.3212891-0.0947266,0.4560547-0.1894531c0.1357422-0.0947266,0.2539063-0.2294922,0.3544922-0.4042969
			H178.9570313z"/>
	</g>
	<g id="XMLID_139_">
		<path id="XMLID_209_" class="st2" d="M153.8359375,207.2797852h6.1005859v0.5761719h-6.1005859V207.2797852z"/>
	</g>
</g>
<g id="XMLID_141_">
	<g id="XMLID_143_">
		<path id="XMLID_203_" class="st2" d="M175.0634766,191.1855469l1.9389648-0.9360352h0.1938477v6.6557617
			c0,0.4423828,0.0185547,0.7177734,0.0561523,0.8261719c0.0371094,0.1083984,0.1147461,0.1914063,0.2319336,0.25
			c0.1176758,0.0576172,0.3564453,0.0908203,0.7172852,0.0986328v0.2148438h-2.9975586v-0.2148438
			c0.3764648-0.0078125,0.6191406-0.0400391,0.7290039-0.0957031c0.109375-0.0566406,0.1860352-0.1318359,0.2290039-0.2275391
			c0.0429688-0.0947266,0.0649414-0.3779297,0.0649414-0.8515625v-4.2548828c0-0.5737305-0.0200195-0.9418945-0.059082-1.1044922
			c-0.0273438-0.1240234-0.0771484-0.215332-0.1499023-0.2734375c-0.0722656-0.0581055-0.159668-0.0869141-0.2612305-0.0869141
			c-0.1450195,0-0.3466797,0.0600586-0.6054688,0.1801758L175.0634766,191.1855469z"/>
		<path id="XMLID_205_" class="st2" d="M184.1625977,190.0283203l-2.8857422,8.4296875h-0.4697266l2.8857422-8.4296875H184.1625977z
			"/>
		<path id="XMLID_207_" class="st2" d="M192.1313477,196.7773438l-0.5585938,1.5175781h-4.7011719v-0.2148438
			c1.3828125-1.2480469,2.3564453-2.2675781,2.9208984-3.0585938c0.5634766-0.7900391,0.8457031-1.5126953,0.8457031-2.1679688
			c0-0.4995117-0.1542969-0.9106445-0.4638672-1.2324219c-0.3095703-0.3212891-0.6796875-0.4824219-1.1113281-0.4824219
			c-0.3916016,0-0.7431641,0.1132813-1.0546875,0.340332c-0.3115234,0.2265625-0.5410156,0.559082-0.6904297,0.9970703h-0.2177734
			c0.0986328-0.7172852,0.3505859-1.2675781,0.7558594-1.6513672c0.4052734-0.3833008,0.9111328-0.5751953,1.5185547-0.5751953
			c0.6464844,0,1.1865234,0.2055664,1.6191406,0.6162109c0.4335938,0.4106445,0.6494141,0.8950195,0.6494141,1.453125
			c0,0.3994141-0.09375,0.7983398-0.2822266,1.1977539c-0.2900391,0.6274414-0.7597656,1.2919922-1.4101563,1.9941406
			c-0.9755859,1.0537109-1.5849609,1.6894531-1.8271484,1.90625h2.0800781c0.4228516,0,0.7197266-0.015625,0.890625-0.0458984
			c0.1699219-0.03125,0.3242188-0.0947266,0.4609375-0.1894531s0.2568359-0.2294922,0.3583984-0.4042969H192.1313477z"/>
	</g>
	<g id="XMLID_142_">
		<path id="XMLID_201_" class="st2" d="M167.2841797,194.9462891h6.1708984v0.5761719h-6.1708984V194.9462891z"/>
	</g>
</g>
<g id="XMLID_144_">
	<g id="XMLID_145_">
		<path id="XMLID_195_" class="st2" d="M185.8374023,179.6523438l1.9477539-0.9360352h0.1948242v6.6557617
			c0,0.4423828,0.0185547,0.7177734,0.0561523,0.8261719c0.0371094,0.1083984,0.1147461,0.1914063,0.2329102,0.25
			c0.1181641,0.0576172,0.3579102,0.0908203,0.7202148,0.0986328v0.2148438h-3.0102539v-0.2148438
			c0.3779297-0.0078125,0.621582-0.0400391,0.7319336-0.0957031c0.1103516-0.0566406,0.1870117-0.1318359,0.2299805-0.2275391
			c0.043457-0.0947266,0.0649414-0.3779297,0.0649414-0.8515625v-4.2548828c0-0.5737305-0.0195313-0.9418945-0.0585938-1.1044922
			c-0.027832-0.1240234-0.078125-0.215332-0.1508789-0.2734375s-0.1601563-0.0869141-0.2626953-0.0869141
			c-0.1455078,0-0.3481445,0.0600586-0.6079102,0.1801758L185.8374023,179.6523438z"/>
		<path id="XMLID_197_" class="st2" d="M194.9765625,178.4951172l-2.8979492,8.4296875h-0.472168l2.8984375-8.4296875H194.9765625z"
			/>
		<path id="XMLID_199_" class="st2" d="M202.9794922,185.2441406l-0.5605469,1.5175781h-4.7216797v-0.2148438
			c1.3886719-1.2480469,2.3671875-2.2675781,2.9335938-3.0585938c0.5664063-0.7900391,0.8496094-1.5126953,0.8496094-2.1679688
			c0-0.4995117-0.1552734-0.9106445-0.4658203-1.2324219c-0.3115234-0.3212891-0.6835938-0.4824219-1.1162109-0.4824219
			c-0.3935547,0-0.7460938,0.1132813-1.0595703,0.340332c-0.3125,0.2265625-0.5439453,0.559082-0.6933594,0.9970703h-0.2177734
			c0.0976563-0.7172852,0.3505859-1.2675781,0.7578125-1.6513672c0.4072266-0.3833008,0.9160156-0.5751953,1.5263672-0.5751953
			c0.6484375,0,1.1904297,0.2055664,1.6259766,0.6162109c0.4345703,0.4106445,0.6523438,0.8950195,0.6523438,1.453125
			c0,0.3994141-0.0947266,0.7983398-0.2841797,1.1977539c-0.2910156,0.6274414-0.7626953,1.2919922-1.4160156,1.9941406
			c-0.9794922,1.0537109-1.5917969,1.6894531-1.8359375,1.90625h2.0898438c0.4248047,0,0.7226563-0.015625,0.8935547-0.0458984
			c0.171875-0.03125,0.3261719-0.0947266,0.4638672-0.1894531s0.2578125-0.2294922,0.3603516-0.4042969H202.9794922z"/>
	</g>
</g>
<g id="XMLID_146_">
	<g id="XMLID_147_">
		<path id="XMLID_189_" class="st2" d="M197.862793,167.9121094c0.2280273-0.53125,0.5161133-0.940918,0.8637695-1.2294922
			s0.7807617-0.4331055,1.2998047-0.4331055c0.6401367,0,1.1313477,0.2055664,1.4731445,0.6162109
			c0.2597656,0.3061523,0.3891602,0.6333008,0.3891602,0.9824219c0,0.5737305-0.3652344,1.1665039-1.0961914,1.7788086
			c0.4912109,0.1899414,0.8623047,0.4614258,1.1137695,0.8144531c0.2514648,0.3515625,0.3774414,0.7666016,0.3774414,1.2431641
			c0,0.6826172-0.2202148,1.2734375-0.6601563,1.7734375c-0.5737305,0.6513672-1.4047852,0.9765625-2.4931641,0.9765625
			c-0.5385742,0-0.9047852-0.0664063-1.0996094-0.1982422c-0.1943359-0.1308594-0.2915039-0.2724609-0.2915039-0.4238281
			c0-0.1123047,0.0458984-0.2109375,0.1386719-0.296875c0.0922852-0.0849609,0.203125-0.1279297,0.3330078-0.1279297
			c0.0981445,0,0.1982422,0.015625,0.300293,0.046875c0.0668945,0.0195313,0.2182617,0.0898438,0.4541016,0.2119141
			s0.3984375,0.1953125,0.4892578,0.2177734c0.1450195,0.0429688,0.300293,0.0644531,0.465332,0.0644531
			c0.4008789,0,0.7495117-0.1533203,1.0463867-0.4589844c0.296875-0.3066406,0.4448242-0.6689453,0.4448242-1.0869141
			c0-0.3066406-0.0688477-0.6054688-0.2060547-0.8955078c-0.1020508-0.2177734-0.2143555-0.3818359-0.3359375-0.4941406
			c-0.1689453-0.1552734-0.4008789-0.2958984-0.6958008-0.4208984c-0.2944336-0.1269531-0.5952148-0.1894531-0.9018555-0.1894531
			h-0.1884766v-0.1748047c0.3105469-0.0385742,0.6220703-0.1489258,0.9345703-0.3310547
			c0.3120117-0.1821289,0.5390625-0.4013672,0.6806641-0.6572266c0.1411133-0.2553711,0.2119141-0.5366211,0.2119141-0.8427734
			c0-0.3989258-0.1264648-0.7216797-0.3798828-0.9677734s-0.5688477-0.3691406-0.9462891-0.3691406
			c-0.6088867,0-1.1176758,0.3217773-1.5263672,0.9648438L197.862793,167.9121094z"/>
		<path id="XMLID_191_" class="st2" d="M208.3583984,166.0283203l-2.8935547,8.4296875h-0.4716797l2.8935547-8.4296875H208.3583984z
			"/>
		<path id="XMLID_193_" class="st2" d="M216.3515625,172.7773438l-0.5605469,1.5175781h-4.7148438v-0.2148438
			c1.3867188-1.2480469,2.3632813-2.2675781,2.9287109-3.0585938c0.5664063-0.7900391,0.8486328-1.5126953,0.8486328-2.1679688
			c0-0.4995117-0.1552734-0.9106445-0.4648438-1.2324219c-0.3105469-0.3212891-0.6826172-0.4824219-1.1142578-0.4824219
			c-0.3935547,0-0.7460938,0.1132813-1.0585938,0.340332c-0.3115234,0.2265625-0.5429688,0.559082-0.6923828,0.9970703h-0.2177734
			c0.0976563-0.7172852,0.3505859-1.2675781,0.7578125-1.6513672c0.40625-0.3833008,0.9140625-0.5751953,1.5234375-0.5751953
			c0.6484375,0,1.1894531,0.2055664,1.6240234,0.6162109c0.4335938,0.4106445,0.6513672,0.8950195,0.6513672,1.453125
			c0,0.3994141-0.0947266,0.7983398-0.2832031,1.1977539c-0.2910156,0.6274414-0.7626953,1.2919922-1.4150391,1.9941406
			c-0.9785156,1.0537109-1.5888672,1.6894531-1.8330078,1.90625h2.0869141c0.4238281,0,0.7216797-0.015625,0.8925781-0.0458984
			c0.1708984-0.03125,0.3251953-0.0947266,0.4628906-0.1894531s0.2568359-0.2294922,0.359375-0.4042969H216.3515625z"/>
	</g>
</g>
<g id="XMLID_148_">
	<g id="XMLID_149_">
		<path id="XMLID_183_" class="st2" d="M215.9912109,155.7456055l-0.4594727,0.9882813h-2.4047852l-0.5249023,1.0581055
			c1.0415039,0.1508789,1.8666992,0.5327148,2.4755859,1.1450195c0.5229492,0.5273438,0.7841797,1.1474609,0.7841797,1.8603516
			c0,0.4150391-0.0854492,0.7988281-0.2563477,1.1513672s-0.3862305,0.6523438-0.6455078,0.9003906
			s-0.5483398,0.4482422-0.8666992,0.5986328c-0.4516602,0.2138672-0.9155273,0.3203125-1.390625,0.3203125
			c-0.4794922,0-0.828125-0.0810547-1.0463867-0.2412109c-0.2182617-0.1611328-0.3271484-0.3378906-0.3271484-0.5322266
			c0-0.1083984,0.0449219-0.2041016,0.1357422-0.2880859c0.090332-0.0830078,0.2041016-0.1240234,0.3417969-0.1240234
			c0.1020508,0,0.1914063,0.0146484,0.2680664,0.0458984s0.2070313,0.1103516,0.3920898,0.2382813
			c0.2944336,0.2021484,0.5932617,0.3027344,0.8959961,0.3027344c0.4594727,0,0.8632813-0.171875,1.2109375-0.5146484
			s0.5219727-0.7607422,0.5219727-1.2529297c0-0.4765625-0.1552734-0.921875-0.4658203-1.3339844
			c-0.3105469-0.4125977-0.7387695-0.7314453-1.2851563-0.956543c-0.4282227-0.1743164-1.0117188-0.2749023-1.7504883-0.3022461
			l1.5327148-3.0634766H215.9912109z"/>
		<path id="XMLID_185_" class="st2" d="M222.0532227,155.3618164l-2.8935547,8.4296875h-0.4716797l2.8935547-8.4296875H222.0532227z
			"/>
		<path id="XMLID_187_" class="st2" d="M230.0463867,162.1108398l-0.5605469,1.5175781h-4.7148438v-0.2148438
			c1.3867188-1.2480469,2.3632813-2.2675781,2.9287109-3.0585938c0.5664063-0.7900391,0.8486328-1.5126953,0.8486328-2.1679688
			c0-0.4995117-0.1552734-0.9106445-0.4648438-1.2324219c-0.3105469-0.3212891-0.6826172-0.4824219-1.1142578-0.4824219
			c-0.3935547,0-0.7460938,0.1132813-1.0585938,0.340332c-0.3115234,0.2265625-0.5429688,0.559082-0.6923828,0.9970703h-0.2177734
			c0.0976563-0.7172852,0.3505859-1.2675781,0.7578125-1.6513672c0.40625-0.3833008,0.9140625-0.5751953,1.5234375-0.5751953
			c0.6484375,0,1.1894531,0.2055664,1.6240234,0.6162109c0.4335938,0.4106445,0.6513672,0.8950195,0.6513672,1.453125
			c0,0.3994141-0.0947266,0.7983398-0.2832031,1.1977539c-0.2910156,0.6274414-0.7626953,1.2919922-1.4150391,1.9941406
			c-0.9785156,1.0537109-1.5888672,1.6894531-1.8330078,1.90625h2.0869141c0.4238281,0,0.7216797-0.015625,0.8925781-0.0458984
			c0.1708984-0.03125,0.3251953-0.0947266,0.4628906-0.1894531s0.2568359-0.2294922,0.359375-0.4042969H230.0463867z"/>
	</g>
</g>
<g id="XMLID_150_">
	<g id="XMLID_151_">
		<path id="XMLID_177_" class="st2" d="M223.1464844,142.402832h4.2241211v0.2211914l-2.6264648,7.824707H224.09375
			l2.3530273-7.0981445h-2.1674805c-0.4375,0-0.7495117,0.0522461-0.9350586,0.1567383
			c-0.3256836,0.1782227-0.5869141,0.4536133-0.784668,0.8256836l-0.168457-0.0639648L223.1464844,142.402832z"/>
		<path id="XMLID_179_" class="st2" d="M233.4594727,142.019043l-2.8530273,8.4296875h-0.4648438l2.8530273-8.4296875H233.4594727z"
			/>
		<path id="XMLID_181_" class="st2" d="M241.3364258,148.7680664l-0.5527344,1.5175781h-4.6474609v-0.2148438
			c1.3671875-1.2480469,2.3291016-2.2675781,2.8876953-3.0585938c0.5576172-0.7900391,0.8359375-1.5126953,0.8359375-2.1679688
			c0-0.4995117-0.1523438-0.9106445-0.4589844-1.2324219c-0.3056641-0.3212891-0.671875-0.4824219-1.0976563-0.4824219
			c-0.3876953,0-0.7353516,0.1132813-1.0429688,0.340332c-0.3076172,0.2265625-0.5351563,0.559082-0.6826172,0.9970703h-0.2148438
			c0.0966797-0.7172852,0.3457031-1.2675781,0.7460938-1.6513672c0.4013672-0.3833008,0.9013672-0.5751953,1.5019531-0.5751953
			c0.6396484,0,1.1728516,0.2055664,1.6005859,0.6162109c0.4287109,0.4106445,0.6425781,0.8950195,0.6425781,1.453125
			c0,0.3994141-0.0927734,0.7983398-0.2792969,1.1977539c-0.2861328,0.6274414-0.7509766,1.2919922-1.3945313,1.9941406
			c-0.9638672,1.0537109-1.5664063,1.6894531-1.8066406,1.90625h2.0566406c0.4179688,0,0.7119141-0.015625,0.8798828-0.0458984
			c0.1689453-0.03125,0.3212891-0.0947266,0.4560547-0.1894531c0.1357422-0.0947266,0.2539063-0.2294922,0.3544922-0.4042969
			H241.3364258z"/>
	</g>
</g>
<g id="XMLID_152_">
	<g id="XMLID_153_">
		<path id="XMLID_175_" class="st2" d="M202.4702148,204.8530273l0.7265625,6.5107422l4.5722656-6.5107422h1.9228516v0.2207031
			c-0.4179688,0.027832-0.6640625,0.0556641-0.7373047,0.0834961c-0.1279297,0.0517578-0.2451172,0.1547852-0.3515625,0.3100586
			c-0.1064453,0.1547852-0.2216797,0.453125-0.3457031,0.8945313l-1.4580078,5.1269531
			c-0.0859375,0.2988281-0.1279297,0.5332031-0.1279297,0.7041016c0,0.1552734,0.0517578,0.2724609,0.15625,0.3515625
			c0.1474609,0.1152344,0.3798828,0.1728516,0.6972656,0.1728516h0.1396484l-0.0527344,0.2207031h-3.3168945l0.0581055-0.2207031
			h0.1567383c0.2944336,0,0.519043-0.0439453,0.6743164-0.1308594c0.1191406-0.0634766,0.2265625-0.1835938,0.3222656-0.3613281
			c0.0947266-0.1767578,0.2275391-0.5693359,0.3974609-1.1767578l1.3017578-4.6865234l-4.5957031,6.5761719h-0.2324219
			l-0.737793-6.5761719l-1.40625,5.0019531c-0.1201172,0.4257813-0.1801758,0.7119141-0.1801758,0.8583984
			c0,0.1474609,0.0527344,0.2597656,0.1572266,0.3369141c0.1044922,0.078125,0.3579102,0.1308594,0.7607422,0.1582031
			l-0.0634766,0.2207031h-2.597168l0.0639648-0.2207031h0.1567383c0.3833008,0,0.6601563-0.0996094,0.8305664-0.2978516
			c0.1240234-0.1435547,0.2539063-0.453125,0.3896484-0.9306641l1.7138672-6.0273438
			c-0.1279297-0.1352539-0.25-0.2265625-0.3662109-0.2744141s-0.3310547-0.0854492-0.6450195-0.1132813l0.0581055-0.2207031
			H202.4702148z"/>
	</g>
</g>
<g id="XMLID_155_">
	<line id="XMLID_161_" class="st3" x1="198.7561798" y1="30.0932789" x2="205.8488464" y2="30.0932789"/>
	<g id="XMLID_160_">
		<path id="XMLID_173_" class="st2" d="M183.168457,32.0605469l1.112793-0.5507813h0.1113281v3.9179688
			c0,0.2597656,0.0107422,0.421875,0.0322266,0.4853516c0.0214844,0.0644531,0.065918,0.1132813,0.1333008,0.1474609
			s0.2045898,0.0537109,0.4111328,0.0576172v0.1269531h-1.7197266v-0.1269531
			c0.2158203-0.0039063,0.3554688-0.0234375,0.418457-0.0556641c0.0625-0.0332031,0.1064453-0.078125,0.1313477-0.1337891
			c0.0244141-0.0556641,0.0371094-0.2226563,0.0371094-0.5009766v-2.5048828c0-0.3378906-0.0112305-0.5546875-0.0336914-0.6503906
			c-0.015625-0.0732422-0.0444336-0.1269531-0.0859375-0.1611328c-0.0419922-0.0341797-0.0917969-0.0507813-0.1503906-0.0507813
			c-0.0830078,0-0.1987305,0.0351563-0.347168,0.1054688L183.168457,32.0605469z"/>
	</g>
	<g id="XMLID_159_">
		<path id="XMLID_171_" class="st2" d="M200.1142578,18.9882813c0.2255859-0.5400391,0.5107422-0.9580078,0.8544922-1.2519531
			c0.3447266-0.2939453,0.7734375-0.4404297,1.2861328-0.4404297c0.6337891,0,1.1201172,0.2089844,1.4580078,0.6269531
			c0.2568359,0.3115234,0.3857422,0.6455078,0.3857422,1c0,0.5839844-0.3623047,1.1884766-1.0849609,1.8115234
			c0.4853516,0.1933594,0.8535156,0.4697266,1.1015625,0.828125c0.2490234,0.359375,0.3740234,0.78125,0.3740234,1.2666016
			c0,0.6953125-0.2177734,1.296875-0.6533203,1.8056641c-0.5683594,0.6630859-1.390625,0.9941406-2.4677734,0.9941406
			c-0.5322266,0-0.8955078-0.0673828-1.0878906-0.2011719s-0.2880859-0.2783203-0.2880859-0.4316406
			c0-0.1142578,0.0449219-0.2148438,0.1367188-0.3017578s0.2011719-0.1308594,0.3300781-0.1308594
			c0.0966797,0,0.1962891,0.015625,0.296875,0.0478516c0.0664063,0.0195313,0.2158203,0.0917969,0.4492188,0.2158203
			s0.3945313,0.1982422,0.484375,0.2216797c0.1435547,0.0439453,0.296875,0.0654297,0.4609375,0.0654297
			c0.3964844,0,0.7412109-0.15625,1.0351563-0.4677734c0.2929688-0.3115234,0.4404297-0.6806641,0.4404297-1.1064453
			c0-0.3115234-0.0683594-0.6162109-0.2041016-0.9121094c-0.1015625-0.2207031-0.2119141-0.3886719-0.3330078-0.5029297
			c-0.1669922-0.1572266-0.3964844-0.3007813-0.6884766-0.4287109c-0.2910156-0.1279297-0.5888672-0.1923828-0.8916016-0.1923828
			h-0.1865234v-0.1777344c0.3066406-0.0390625,0.6152344-0.1513672,0.9238281-0.3369141
			c0.3095703-0.1855469,0.5341797-0.4091797,0.6738281-0.6689453c0.1396484-0.2607422,0.2099609-0.546875,0.2099609-0.8583984
			c0-0.40625-0.125-0.7353516-0.3759766-0.9853516c-0.2509766-0.2509766-0.5634766-0.3759766-0.9365234-0.3759766
			c-0.6025391,0-1.1064453,0.3271484-1.5107422,0.9824219L200.1142578,18.9882813z"/>
	</g>
	<g id="XMLID_158_">
		<path id="XMLID_169_" class="st2" d="M204.984375,41.0517578l-0.5537109,1.5449219h-4.6660156v-0.21875
			c1.3720703-1.2705078,2.3388672-2.3085938,2.8984375-3.1132813c0.5605469-0.8046875,0.8398438-1.5410156,0.8398438-2.2080078
			c0-0.5087891-0.1533203-0.9267578-0.4609375-1.2548828c-0.3066406-0.3271484-0.6738281-0.4912109-1.1015625-0.4912109
			c-0.3896484,0-0.7382813,0.1152344-1.046875,0.3466797c-0.3095703,0.2304688-0.5380859,0.5693359-0.6855469,1.0146484h-0.2158203
			c0.0966797-0.7294922,0.3466797-1.2900391,0.7490234-1.6806641s0.9052734-0.5859375,1.5078125-0.5859375
			c0.6416016,0,1.1777344,0.2089844,1.6074219,0.6269531c0.4296875,0.4189453,0.6445313,0.9121094,0.6445313,1.4804688
			c0,0.40625-0.09375,0.8125-0.2802734,1.21875c-0.2880859,0.6396484-0.7548828,1.3164063-1.3994141,2.0302734
			c-0.96875,1.0732422-1.5732422,1.7207031-1.8144531,1.9414063h2.0644531c0.4199219,0,0.7148438-0.015625,0.8837891-0.0478516
			c0.1689453-0.03125,0.3222656-0.0957031,0.4580078-0.1923828s0.2548828-0.2333984,0.3554688-0.4111328H204.984375z"/>
	</g>
	<g id="XMLID_157_">
		<path id="XMLID_167_" class="st2" d="M183.3334961,24.703125l-1.9951172,7.0439453
			c-0.097168,0.3515625-0.1455078,0.5664063-0.1455078,0.6455078c0,0.0585938,0.0185547,0.1083984,0.0551758,0.1474609
			c0.0371094,0.0390625,0.0825195,0.0595703,0.137207,0.0595703c0.0737305,0,0.1538086-0.0341797,0.2392578-0.1005859
			c0.2021484-0.1621094,0.4140625-0.4130859,0.6357422-0.7519531l0.1748047,0.1835938
			c-0.3691406,0.5283203-0.7094727,0.8974609-1.0205078,1.1064453c-0.2294922,0.1503906-0.4472656,0.2246094-0.6533203,0.2246094
			c-0.1479492,0-0.2714844-0.0507813-0.3706055-0.1533203s-0.1484375-0.2207031-0.1484375-0.3554688
			c0-0.1416016,0.0620117-0.4335938,0.1865234-0.8759766l1.5805664-5.5517578
			c0.128418-0.4541016,0.1923828-0.7138672,0.1923828-0.78125c0-0.0947266-0.0366211-0.1728516-0.1108398-0.2333984
			c-0.0737305-0.0615234-0.1884766-0.0917969-0.34375-0.0917969c-0.0898438,0-0.2255859,0.0136719-0.4086914,0.0410156v-0.21875
			L183.3334961,24.703125z"/>
	</g>
	<g id="XMLID_156_">
		<path id="XMLID_120_" class="st2" d="M189.4580078,28.6279297h6.1240234v0.5742188h-6.1240234V28.6279297z
			 M189.4580078,30.8359375h6.1240234v0.5859375h-6.1240234V30.8359375z"/>
	</g>
</g>
<g id="XMLID_162_">
	<g id="XMLID_166_">
		<path id="XMLID_118_" class="st2" d="M233.8525391,35.2407227l-0.3203125,0.8789063h-2.6977539v-0.125
			c0.793457-0.7226563,1.3520508-1.3125,1.6757813-1.7705078s0.4858398-0.8769531,0.4858398-1.2568359
			c0-0.2890625-0.0888672-0.5273438-0.2666016-0.7138672c-0.1777344-0.1855469-0.3901367-0.2792969-0.637207-0.2792969
			c-0.2250977,0-0.4267578,0.0654297-0.6054688,0.1972656c-0.1787109,0.1308594-0.3105469,0.3242188-0.3959961,0.5771484h-0.125
			c0.0561523-0.4150391,0.2006836-0.7333984,0.4335938-0.9560547c0.2324219-0.2226563,0.5229492-0.3330078,0.871582-0.3330078
			c0.3706055,0,0.6806641,0.1181641,0.9287109,0.3564453c0.2485352,0.2382813,0.3730469,0.5185547,0.3730469,0.8417969
			c0,0.2314453-0.0541992,0.4628906-0.1621094,0.6943359c-0.1665039,0.3632813-0.4360352,0.7480469-0.809082,1.1542969
			c-0.5600586,0.6113281-0.909668,0.9794922-1.0488281,1.1044922h1.1938477c0.2426758,0,0.4130859-0.0087891,0.5107422-0.0263672
			c0.0976563-0.0185547,0.1860352-0.0546875,0.2646484-0.109375c0.0786133-0.0556641,0.1469727-0.1337891,0.2055664-0.234375
			H233.8525391z"/>
	</g>
	<g id="XMLID_165_">
		<path id="XMLID_116_" class="st2" d="M252.9047852,31.5209961l-0.5537109,1.5205078h-4.6660156v-0.2158203
			c1.3720703-1.25,2.3388672-2.2714844,2.8984375-3.0634766c0.5605469-0.7919922,0.8398438-1.5166016,0.8398438-2.1728516
			c0-0.5009766-0.1533203-0.9121094-0.4609375-1.2348633c-0.3066406-0.3222656-0.6738281-0.4833984-1.1015625-0.4833984
			c-0.3896484,0-0.7382813,0.1137695-1.046875,0.3408203c-0.3095703,0.2270508-0.5380859,0.5600586-0.6855469,0.9990234h-0.2158203
			c0.0966797-0.7182617,0.3466797-1.2700195,0.7490234-1.6542969s0.9052734-0.5766602,1.5078125-0.5766602
			c0.6416016,0,1.1777344,0.2060547,1.6074219,0.6176758s0.6445313,0.8969727,0.6445313,1.4560547
			c0,0.3999023-0.09375,0.7998047-0.2802734,1.199707c-0.2880859,0.6293945-0.7548828,1.2954102-1.3994141,1.9980469
			c-0.96875,1.0566406-1.5732422,1.6933594-1.8144531,1.9101563h2.0644531c0.4199219,0,0.7148438-0.0146484,0.8837891-0.0458984
			s0.3222656-0.0947266,0.4580078-0.1894531c0.1357422-0.0957031,0.2548828-0.2304688,0.3554688-0.4052734H252.9047852z"/>
	</g>
	<g id="XMLID_164_">
		<path id="XMLID_114_" class="st2" d="M230.9101563,24.7587891l-1.9951172,6.9311523
			c-0.097168,0.3457031-0.1455078,0.5576172-0.1455078,0.6347656c0,0.0585938,0.0185547,0.1074219,0.0551758,0.1455078
			c0.0371094,0.0390625,0.0825195,0.0585938,0.137207,0.0585938c0.0737305,0,0.1538086-0.0332031,0.2392578-0.0986328
			c0.2021484-0.1591797,0.4140625-0.40625,0.6357422-0.7402344l0.1748047,0.1806641
			c-0.3691406,0.5205078-0.7094727,0.8837891-1.0205078,1.0888672c-0.2294922,0.1484375-0.4472656,0.2216797-0.6533203,0.2216797
			c-0.1479492,0-0.2714844-0.0507813-0.3706055-0.1513672s-0.1484375-0.2177734-0.1484375-0.3496094
			c0-0.1396484,0.0620117-0.4267578,0.1865234-0.8623047l1.5805664-5.4633789
			c0.128418-0.4462891,0.1923828-0.7026367,0.1923828-0.7685547c0-0.0932617-0.0366211-0.1699219-0.1108398-0.2299805
			c-0.0737305-0.0605469-0.1884766-0.090332-0.34375-0.090332c-0.0898438,0-0.2255859,0.0136719-0.4086914,0.0405273v-0.215332
			L230.9101563,24.7587891z"/>
	</g>
	<g id="XMLID_163_">
		<path id="XMLID_111_" class="st2" d="M238.3081055,28.6206055h6.1240234v0.5649414h-6.1240234V28.6206055z M238.3081055,30.793457
			h6.1240234v0.5761719h-6.1240234V30.793457z"/>
	</g>
</g>
<rect id="XMLID_109_" x="162.25" y="10.25" class="st1" width="107.75" height="39.25"/>
<g id="XMLID_110_">
</g>
<g id="XMLID_380_">
</g>
<g id="XMLID_381_">
</g>
<g id="XMLID_382_">
</g>
<g id="XMLID_383_">
</g>
<g id="XMLID_384_">
</g>
</svg>
