<?xml version="1.0" encoding="utf-8"?>
<!-- Generator: Adobe Illustrator 19.0.0, SVG Export Plug-In . SVG Version: 6.00 Build 0)  -->
<svg version="1.1" id="Layer_1" xmlns="http://www.w3.org/2000/svg" xmlns:xlink="http://www.w3.org/1999/xlink" x="0px" y="0px"
	 viewBox="0 0 194.6666718 88.5" style="enable-background:new 0 0 194.6666718 88.5;" xml:space="preserve">
<style type="text/css">
	.st0{fill:#FFFFFF;stroke:#A7A9AC;stroke-miterlimit:10;}
	.st1{fill:none;stroke:#939598;stroke-miterlimit:10;}
	.st2{fill:#EF4136;}
	.st3{fill:none;stroke:#000000;stroke-miterlimit:10;}
	.st4{fill:none;stroke:#EF4136;stroke-miterlimit:10;}
	.st5{fill:#2E3192;}
	.st6{fill:#F7941E;}
	.st7{fill:#27AAE1;}
	.st8{fill:#010101;}
	.st9{fill:none;stroke:#27AAE1;stroke-miterlimit:10;}
	.st10{fill:#A7A9AC;}
</style>
<path id="XMLID_19_" class="st0" d="M161.163269,51.8767967c-2.2467804,0-3.094635-0.3809967-5.0873718-1.2738304"/>
<path id="XMLID_24_" class="st0" d="M141.2115631,68.6666641c2.2467651,0,3.094635,0.3809967,5.0873718,1.2738342"/>
<line id="XMLID_2_" class="st1" x1="42.7873268" y1="86.625" x2="42.7873268" y2="1.7499746"/>
<g id="XMLID_14_">
	<g id="XMLID_15_">
		<path id="XMLID_102_" class="st2" d="M79.0499649,44.90625l-0.3017578,2.7685547h-7.1264648v-0.2148438h0.2661133
			c0.2329102,0,0.4204102-0.0410156,0.5625-0.1220703c0.1025391-0.0546875,0.1811523-0.1474609,0.2368164-0.2792969
			c0.0429688-0.09375,0.0649414-0.3378906,0.0649414-0.7333984v-5.1884766c0-0.4033203-0.0219727-0.6552734-0.0649414-0.7558594
			c-0.043457-0.1015625-0.1313477-0.1894531-0.2636719-0.2646484c-0.1323242-0.0761719-0.3105469-0.1132813-0.5356445-0.1132813
			h-0.2661133v-0.2158203h4.2788086v0.2158203H75.551918c-0.2329102,0-0.4204102,0.0400391-0.5625,0.1220703
			c-0.1025391,0.0537109-0.1835938,0.1474609-0.2426758,0.2792969c-0.043457,0.0927734-0.0649414,0.3369141-0.0649414,0.7324219
			v5.0253906c0,0.4033203,0.0234375,0.6601563,0.0708008,0.7714844c0.0473633,0.1103516,0.1401367,0.1923828,0.2783203,0.2470703
			c0.0986328,0.0341797,0.3374023,0.0517578,0.7163086,0.0517578h0.6689453c0.4257813,0,0.78125-0.0732422,1.0654297-0.2207031
			s0.5292969-0.3798828,0.7363281-0.6982422c0.2070313-0.3173828,0.4033203-0.7871094,0.5888672-1.4072266H79.0499649z"/>
	</g>
</g>
<path id="XMLID_6_" class="st3" d="M42.7873955,32.5514297"/>
<path id="XMLID_1_" class="st3" d="M2.9166667,22.7976475c0-5.3868656,17.8507328-9.7537842,39.8707275-9.7537842
	s39.8707237,4.3669186,39.8707237,9.7537842"/>
<path id="XMLID_5_" class="st3" d="M42.7873955,32.5514297c-22.0199966,0-39.8707275-4.3669167-39.8707275-9.7537823"/>
<path id="XMLID_3_" class="st3" d="M82.6581192,22.7976475c0,5.3868656-17.8507309,9.7537823-39.8707237,9.7537823"/>
<polygon id="XMLID_7_" points="23.3185368,29.0996151 30.727169,32.1354942 22.7983208,33.2480431 "/>
<path id="XMLID_11_" class="st4" d="M81.7832336,24.8331413"/>
<g id="XMLID_27_">
	<line id="XMLID_10_" class="st4" x1="42.7873268" y1="86.625" x2="58.0822067" y2="56.1713028"/>
	
		<ellipse id="XMLID_9_" transform="matrix(0.9405977 0.3395232 -0.3395232 0.9405977 22.5216808 -16.3835526)" class="st5" cx="58.0822067" cy="56.1713028" rx="14.8288651" ry="3.035439"/>
	<g id="XMLID_8_">
		<g id="XMLID_26_">
			<g id="XMLID_28_">
				<polygon id="XMLID_29_" class="st2" points="67.6277542,38.330658 69.420784,39.2311707 71.3983231,29.6623535 
					64.8998184,36.9606018 66.6929703,37.8611755 57.6148796,55.9365845 58.5496788,56.4060669 				"/>
			</g>
		</g>
	</g>
	<g id="XMLID_13_">
		<g id="XMLID_35_">
			<g id="XMLID_36_">
				<path id="XMLID_41_" class="st5" d="M66.7016068,64.7582092l-0.0567322,1.2146912
					c1.0691528-0.2046814,2.0751648-0.5227966,3.0212402-0.8994141c0.954895-0.3635559,1.8158875-0.8426819,2.7322083-1.1774292
					c-0.9842834-0.1715088-1.9837646-0.1889038-2.9249268-0.3434753c-0.9450378-0.1381226-1.8497009-0.3459167-2.6854248-0.6424561
					l-0.0567627,1.2147827c-0.0159607-0.006897-0.1731873,0.0065308-0.5580444-0.0376282
					c-0.4177856-0.0352783-0.9730835-0.1078491-1.5179443-0.2287903c-1.0972862-0.2218933-2.1282921-0.6621399-2.1282921-0.6621399
					l-0.2456665,0.5844421c0,0,1.0860901,0.4639893,2.2410851,0.6976013
					c0.5734863,0.1271057,1.1568604,0.2033691,1.5947571,0.240387
					C66.5211258,64.7645569,66.6846085,64.7511902,66.7016068,64.7582092z"/>
			</g>
		</g>
	</g>
</g>
<g id="XMLID_12_">
	<g id="XMLID_31_">
		<g id="XMLID_32_">
			<polygon id="XMLID_33_" class="st6" points="62.0658684,28.1448059 61.6348534,30.1044006 71.3959122,29.6635132 
				62.7215996,25.1634216 62.2905693,27.1231689 42.8997307,22.8583069 42.6750298,23.8799438 			"/>
		</g>
	</g>
</g>
<circle id="XMLID_4_" cx="42.7873955" cy="22.7976475" r="1.1864251"/>
<g id="XMLID_17_">
	<g id="XMLID_18_">
		<path id="XMLID_100_" class="st6" d="M58.7154961,16.1616211v1.2348633c0.3583984-0.5625,0.6733398-0.9365234,0.9428711-1.121582
			c0.2705078-0.184082,0.5302734-0.2768555,0.78125-0.2768555c0.2167969,0,0.3886719,0.0673828,0.5185547,0.2011719
			c0.1289063,0.1342773,0.1933594,0.3232422,0.1933594,0.5683594c0,0.2597656-0.0625,0.4619141-0.1875,0.6064453
			c-0.1259766,0.1435547-0.2773438,0.2148438-0.4550781,0.2148438c-0.2041016,0-0.3818359-0.0654297-0.5322266-0.1982422
			c-0.1503906-0.1318359-0.2392578-0.2050781-0.265625-0.2207031c-0.0390625-0.0234375-0.0839844-0.0351563-0.1328125-0.0351563
			c-0.1132813,0-0.21875,0.0429688-0.3183594,0.1279297c-0.1586914,0.1318359-0.2783203,0.3203125-0.359375,0.5654297
			c-0.1235352,0.3769531-0.1850586,0.7929688-0.1850586,1.2480469v1.2529297l0.0053711,0.3261719
			c0,0.2216797,0.0136719,0.3632813,0.0405273,0.4257813c0.0463867,0.1044922,0.1147461,0.1816406,0.2055664,0.2304688
			c0.0908203,0.0478516,0.2441406,0.078125,0.4599609,0.0898438v0.2099609h-2.9223633v-0.2099609
			c0.2353516-0.0195313,0.3945313-0.0839844,0.4775391-0.1953125c0.0830078-0.1103516,0.1245117-0.4033203,0.1245117-0.8769531
			v-3.0136719c0-0.3105469-0.015625-0.5087891-0.0463867-0.5947266c-0.0385742-0.1083984-0.0947266-0.1884766-0.1679688-0.2387695
			s-0.2026367-0.0854492-0.3876953-0.1049805v-0.215332H58.7154961z"/>
	</g>
</g>
<g id="XMLID_16_">
	<g id="XMLID_38_">
		<g id="XMLID_39_">
			<polygon id="XMLID_40_" class="st7" points="75.7603836,29.0595398 76.2031631,30.82901 83.9691849,26.5171204 
				75.0866776,26.3674011 75.5295181,28.1370239 74.9143448,28.2909546 71.280983,29.2001953 71.5118484,30.1227112 
				75.1452103,29.2134705 			"/>
		</g>
	</g>
</g>
<g id="XMLID_20_">
	<g id="XMLID_21_">
		<path id="XMLID_98_" class="st7" d="M91.8907852,28.0693359l2.1689453-5.1992188h3.2519531v0.2148438h-0.2587891
			c-0.2353516,0-0.4248047,0.0410156-0.5654297,0.1220703c-0.0986328,0.0546875-0.1767578,0.1455078-0.2363281,0.2734375
			c-0.0429688,0.0927734-0.0644531,0.3359375-0.0644531,0.7275391v5.1992188c0,0.4033203,0.0214844,0.6552734,0.0644531,0.7558594
			c0.0439453,0.1015625,0.1318359,0.1894531,0.265625,0.2646484c0.1337891,0.0761719,0.3125,0.1142578,0.5361328,0.1142578
			h0.2587891v0.2148438h-4.171875v-0.2148438h0.2597656c0.2353516,0,0.4238281-0.0410156,0.5654297-0.1220703
			c0.0986328-0.0546875,0.1767578-0.1474609,0.2353516-0.2792969c0.0439453-0.09375,0.0654297-0.3378906,0.0654297-0.7333984
			v-5.8457031l-3.0644531,7.1953125h-0.1411133l-3.1113281-7.1425781v5.5546875
			c0,0.3876953,0.0097656,0.6259766,0.0292969,0.7158203c0.0512695,0.1933594,0.1621094,0.3515625,0.3330078,0.4736328
			s0.4389648,0.1835938,0.8041992,0.1835938v0.2148438h-2.7338867v-0.2148438h0.0825195
			c0.1767578,0.0039063,0.3417969-0.0244141,0.4946289-0.0849609c0.1533203-0.0595703,0.269043-0.140625,0.3476563-0.2412109
			s0.1396484-0.2421875,0.1831055-0.4248047c0.0078125-0.0419922,0.0117188-0.2402344,0.0117188-0.5927734v-4.9902344
			c0-0.3994141-0.0219727-0.6494141-0.0649414-0.7480469c-0.043457-0.0986328-0.1318359-0.1855469-0.2651367-0.2617188
			c-0.1337891-0.0751953-0.3125-0.1132813-0.5361328-0.1132813h-0.253418v-0.2148438h3.2641602L91.8907852,28.0693359z"/>
	</g>
</g>
<line id="XMLID_53_" class="st4" x1="161.163269" y1="40.3440742" x2="178.5312042" y2="5.7627053"/>
<g id="XMLID_51_">
	<g id="XMLID_80_">
		<g id="XMLID_81_">
			<polygon id="XMLID_82_" points="160.640152,57.8698425 158.6337128,57.8698425 161.161087,67.3083496 163.6928253,57.8698425 
				161.6862335,57.8698425 161.6862335,40.3440857 160.640152,40.3440857 			"/>
		</g>
	</g>
</g>
<g id="XMLID_56_">
	<g id="XMLID_57_">
		<path id="XMLID_92_" class="st8" d="M170.7428436,62.0439453l-0.7666016,2.6240234
			c0.3417969-0.6171875,0.6328125-1.0800781,0.8730469-1.390625c0.3730469-0.4804688,0.7373047-0.8300781,1.0908203-1.046875
			c0.2080078-0.1240234,0.4267578-0.1865234,0.6542969-0.1865234c0.1972656,0,0.3603516,0.0625,0.4902344,0.1865234
			c0.1289063,0.1240234,0.1943359,0.2832031,0.1943359,0.4765625c0,0.1904297-0.0449219,0.4384766-0.1357422,0.7451172
			l-0.4189453,1.4775391c0.640625-1.1826172,1.2490234-2.0126953,1.8222656-2.4902344
			c0.3193359-0.2636719,0.6337891-0.3955078,0.9443359-0.3955078c0.1806641,0,0.3291016,0.0615234,0.4453125,0.1835938
			c0.1152344,0.1220703,0.1738281,0.3115234,0.1738281,0.5673828c0,0.2246094-0.0351563,0.4628906-0.1064453,0.7148438
			l-0.6484375,2.2626953c-0.1416016,0.4931641-0.2128906,0.7666016-0.2128906,0.8203125
			c0,0.0546875,0.0185547,0.1005859,0.0537109,0.1396484c0.0234375,0.0273438,0.0546875,0.0410156,0.09375,0.0410156
			c0.0400391,0,0.1083984-0.0371094,0.2070313-0.1103516c0.2236328-0.1708984,0.4345703-0.3955078,0.6308594-0.6748047
			l0.1943359,0.1220703c-0.0976563,0.1552734-0.2724609,0.3681641-0.5214844,0.6396484
			c-0.25,0.2714844-0.4628906,0.4560547-0.6396484,0.5527344c-0.1777344,0.0966797-0.3408203,0.1455078-0.4902344,0.1455078
			c-0.1376953,0-0.2529297-0.046875-0.3447266-0.1396484c-0.0927734-0.09375-0.1386719-0.2080078-0.1386719-0.34375
			c0-0.1855469,0.0800781-0.5595703,0.2421875-1.1220703l0.5361328-1.8671875
			c0.1220703-0.4306641,0.1865234-0.6689453,0.1953125-0.7158203c0.0117188-0.0732422,0.0175781-0.1455078,0.0175781-0.2148438
			c0-0.0966797-0.0224609-0.1728516-0.0654297-0.2265625c-0.046875-0.0546875-0.0996094-0.0820313-0.1591797-0.0820313
			c-0.1650391,0-0.3398438,0.0839844-0.5244141,0.25c-0.5429688,0.4931641-1.0498047,1.1826172-1.5224609,2.0712891
			c-0.3105469,0.5849609-0.6015625,1.3359375-0.8720703,2.2509766h-0.890625l1.0078125-3.5195313
			c0.1103516-0.3798828,0.1650391-0.6337891,0.1650391-0.7617188c0-0.1044922-0.0214844-0.1826172-0.0644531-0.2324219
			c-0.0429688-0.0507813-0.0966797-0.0761719-0.1591797-0.0761719c-0.1298828,0-0.2675781,0.046875-0.4130859,0.1396484
			c-0.2353516,0.1513672-0.5390625,0.4755859-0.9111328,0.9716797c-0.3710938,0.4960938-0.6591797,0.9716797-0.8642578,1.4248047
			c-0.0976563,0.2138672-0.3320313,0.8984375-0.7011719,2.0537109h-0.8730469l1.0908203-3.7695313l0.1416016-0.4882813
			c0.0273438-0.0742188,0.0410156-0.1279297,0.0410156-0.1630859c0-0.0849609-0.0390625-0.1621094-0.1181641-0.2294922
			c-0.078125-0.0683594-0.1787109-0.1015625-0.3007813-0.1015625c-0.0507813,0-0.1923828,0.0224609-0.4238281,0.0693359
			l-0.0537109-0.2148438L170.7428436,62.0439453z"/>
		<path id="XMLID_94_" class="st8" d="M183.1041718,62.4052734l-0.1708984,0.6044922h-0.984375
			c0.0742188,0.2099609,0.1113281,0.4052734,0.1113281,0.5878906c0,0.5117188-0.2197266,0.9667969-0.6601563,1.3662109
			c-0.4443359,0.3994141-1.0537109,0.6210938-1.828125,0.6630859c-0.4169922,0.125-0.7294922,0.2714844-0.9384766,0.4423828
			c-0.078125,0.0625-0.1181641,0.1259766-0.1181641,0.1923828c0,0.0771484,0.0361328,0.1484375,0.1064453,0.2119141
			c0.0712891,0.0644531,0.25,0.1289063,0.5371094,0.1953125l1.1435547,0.2617188
			c0.6337891,0.1474609,1.0527344,0.3212891,1.2568359,0.5234375c0.2001953,0.2050781,0.3007813,0.4414063,0.3007813,0.7089844
			c0,0.3183594-0.1191406,0.609375-0.3564453,0.8730469c-0.2382813,0.2636719-0.5859375,0.4697266-1.0439453,0.6191406
			c-0.4589844,0.1494141-0.9648438,0.2236328-1.5195313,0.2236328c-0.4873047,0-0.9316406-0.0566406-1.3330078-0.1708984
			c-0.4003906-0.1142578-0.6875-0.2685547-0.8603516-0.4628906c-0.1728516-0.1933594-0.2597656-0.3935547-0.2597656-0.5986328
			c0-0.1669922,0.0556641-0.3408203,0.1679688-0.5205078c0.1123047-0.1806641,0.2529297-0.3291016,0.421875-0.4453125
			c0.1054688-0.0742188,0.4072266-0.2480469,0.9023438-0.5234375c-0.1806641-0.1396484-0.2714844-0.2929688-0.2714844-0.4599609
			c0-0.1542969,0.0800781-0.3193359,0.2392578-0.4941406s0.4960938-0.3662109,1.0107422-0.5761719
			c-0.4326172-0.0810547-0.7753906-0.2597656-1.0283203-0.5351563c-0.2539063-0.2744141-0.3808594-0.5810547-0.3808594-0.9189453
			c0-0.5498047,0.2451172-1.0429688,0.734375-1.4775391c0.4892578-0.4335938,1.1416016-0.6513672,1.9550781-0.6513672
			c0.2949219,0,0.5371094,0.0292969,0.7255859,0.0878906c0.1884766,0.0576172,0.3710938,0.1494141,0.5488281,0.2734375H183.1041718z
			 M178.233078,67.3085938c-0.3193359,0.1435547-0.5595703,0.3271484-0.7226563,0.5527344
			c-0.1630859,0.2246094-0.2451172,0.4453125-0.2451172,0.6630859c0,0.2558594,0.1181641,0.4667969,0.3535156,0.6337891
			c0.3388672,0.2402344,0.8339844,0.3603516,1.4863281,0.3603516c0.5625,0,1.0429688-0.09375,1.4423828-0.2822266
			c0.3994141-0.1875,0.5986328-0.4316406,0.5986328-0.7294922c0-0.1513672-0.0732422-0.2949219-0.2207031-0.4306641
			s-0.4335938-0.2460938-0.8583984-0.3320313C179.8346405,67.6982422,179.2233124,67.5527344,178.233078,67.3085938z
			 M181.0582733,63.3183594c0-0.3105469-0.0878906-0.5546875-0.2626953-0.7333984
			c-0.1748047-0.1777344-0.4042969-0.2675781-0.6875-0.2675781c-0.4443359,0-0.8105469,0.2207031-1.0996094,0.6601563
			c-0.2890625,0.4404297-0.4335938,0.8994141-0.4335938,1.3759766c0,0.2988281,0.0917969,0.5429688,0.2773438,0.7324219
			c0.1845703,0.1904297,0.4082031,0.2851563,0.671875,0.2851563c0.2089844,0,0.4101563-0.0556641,0.6044922-0.1679688
			c0.1953125-0.1132813,0.359375-0.2675781,0.4931641-0.4658203c0.1328125-0.1972656,0.2392578-0.4492188,0.3183594-0.7558594
			C181.0182343,63.6748047,181.0582733,63.4541016,181.0582733,63.3183594z"/>
	</g>
</g>
<g id="XMLID_58_">
	<g id="XMLID_60_">
		<path id="XMLID_89_" class="st2" d="M149.2467499,48.3310547c0-0.5234375,0.0791016-0.9755859,0.2392578-1.3535156
			c0.1591797-0.3789063,0.3720703-0.6611328,0.6357422-0.8457031c0.2060547-0.1474609,0.4179688-0.2207031,0.6367188-0.2207031
			c0.3554688,0,0.6748047,0.1796875,0.9580078,0.5390625c0.3535156,0.4453125,0.5302734,1.0488281,0.5302734,1.8105469
			c0,0.5332031-0.0771484,0.9863281-0.2324219,1.359375c-0.1552734,0.3720703-0.3535156,0.6435547-0.59375,0.8115234
			s-0.4726563,0.2529297-0.6962891,0.2529297c-0.4423828,0-0.8105469-0.2587891-1.1054688-0.7763672
			C149.3707733,49.4716797,149.2467499,48.9462891,149.2467499,48.3310547z M149.9166718,48.4160156
			c0,0.6328125,0.0791016,1.1494141,0.2363281,1.5498047c0.1298828,0.3359375,0.3242188,0.5048828,0.5820313,0.5048828
			c0.1230469,0,0.25-0.0546875,0.3828125-0.1640625c0.1318359-0.1103516,0.2324219-0.2939453,0.3007813-0.5517578
			c0.1054688-0.3886719,0.1572266-0.9365234,0.1572266-1.6435547c0-0.5244141-0.0546875-0.9619141-0.1640625-1.3125
			c-0.0820313-0.2597656-0.1875-0.4433594-0.3183594-0.5517578c-0.0927734-0.0751953-0.2060547-0.1123047-0.3378906-0.1123047
			c-0.1552734,0-0.2939453,0.0693359-0.4140625,0.2070313c-0.1650391,0.1875-0.2763672,0.4824219-0.3359375,0.8847656
			C149.9469452,47.6289063,149.9166718,48.0253906,149.9166718,48.4160156z"/>
	</g>
	<g id="XMLID_59_">
		<path id="XMLID_83_" class="st2" d="M147.1510468,42.0107422v1.2431641
			c0.3671875-0.5664063,0.6884766-0.9433594,0.9648438-1.1289063s0.5429688-0.2783203,0.7988281-0.2783203
			c0.2207031,0,0.3974609,0.0673828,0.5302734,0.2021484c0.1318359,0.1347656,0.1982422,0.3251953,0.1982422,0.5722656
			c0,0.2617188-0.0644531,0.4648438-0.1923828,0.609375c-0.1289063,0.1445313-0.2832031,0.2167969-0.4648438,0.2167969
			c-0.2089844,0-0.390625-0.0664063-0.5449219-0.1992188c-0.1533203-0.1328125-0.2441406-0.2070313-0.2714844-0.2226563
			c-0.0400391-0.0234375-0.0849609-0.0351563-0.1367188-0.0351563c-0.1142578,0-0.2226563,0.0429688-0.3251953,0.1289063
			c-0.1621094,0.1328125-0.2841797,0.3222656-0.3671875,0.5683594c-0.1259766,0.3798828-0.1894531,0.7978516-0.1894531,1.2548828
			v1.2607422l0.0058594,0.3291016c0,0.2226563,0.0136719,0.3652344,0.0419922,0.4277344
			c0.046875,0.1054688,0.1171875,0.1826172,0.2099609,0.2314453s0.2490234,0.0791016,0.4707031,0.0908203v0.2109375h-2.9892578
			v-0.2109375c0.2402344-0.0195313,0.4033203-0.0849609,0.4882813-0.1962891s0.1269531-0.4052734,0.1269531-0.8828125v-3.03125
			c0-0.3125-0.015625-0.5117188-0.046875-0.5976563c-0.0400391-0.1103516-0.0966797-0.1904297-0.171875-0.2412109
			s-0.2070313-0.0859375-0.3964844-0.1054688v-0.2167969H147.1510468z"/>
	</g>
</g>
<rect id="XMLID_52_" x="144.538269" y="38.9419861" transform="matrix(0.8939649 0.448137 -0.448137 0.8939649 35.1686325 -67.9453278)" class="st5" width="33.25" height="2.8041801"/>
<g id="XMLID_55_">
	<g id="XMLID_68_">
		<g id="XMLID_69_">
			<polygon id="XMLID_70_" class="st2" points="157.3946381,49.0133362 159.1876373,49.9138489 161.1652069,40.3450623 
				154.6667023,47.64328 156.4598541,48.5438538 140.7442474,79.8352661 141.6790314,80.3047485 			"/>
		</g>
	</g>
</g>
<g id="XMLID_61_">
	<g id="XMLID_62_">
		<path id="XMLID_73_" class="st8" d="M129.8404999,73.6357422c0.5332031,0,1.0048828,0.1142578,1.4150391,0.3427734
			s0.7314453,0.5654297,0.9648438,1.0117188c0.2324219,0.4472656,0.3496094,0.9101563,0.3496094,1.3896484
			c0,0.8505859-0.25,1.7431641-0.7490234,2.6777344s-1.1513672,1.6464844-1.9560547,2.1386719
			c-0.8056641,0.4912109-1.6376953,0.7373047-2.4980545,0.7373047c-0.6201172,0-1.1376953-0.1357422-1.5537109-0.4072266
			c-0.4169922-0.2705078-0.7246094-0.6289063-0.9238281-1.0732422c-0.1992188-0.4453125-0.2988281-0.8759766-0.2988281-1.2929688
			c0-0.7412109,0.1806641-1.4736328,0.5419922-2.1972656c0.3603516-0.7236328,0.7919922-1.3291016,1.2929688-1.8144531
			s1.0361328-0.859375,1.6044998-1.1201172C128.5973358,73.7666016,129.201828,73.6357422,129.8404999,73.6357422z
			 M129.639328,74.0107422c-0.3945313,0-0.7802734,0.0966797-1.1572266,0.2890625
			c-0.3769531,0.1933594-0.7509842,0.5097656-1.1211014,0.9482422c-0.3710938,0.4384766-0.7050781,1.0136719-1.0009766,1.7236328
			c-0.3623047,0.8740234-0.5439453,1.6982422-0.5439453,2.4746094c0,0.5546875,0.1435547,1.0449219,0.4316406,1.4716797
			c0.2880859,0.4277344,0.7304688,0.640625,1.3261719,0.640625c0.359375,0,0.7109451-0.0878906,1.0566483-0.2626953
			c0.3457031-0.1757813,0.7050781-0.4765625,1.0800781-0.9013672c0.4697266-0.5341797,0.8642578-1.2158203,1.1835938-2.0449219
			c0.3203125-0.8291016,0.4794922-1.6025391,0.4794922-2.3203125c0-0.5302734-0.1435547-1-0.4316406-1.4072266
			S130.2194061,74.0107422,129.639328,74.0107422z"/>
	</g>
</g>
<g id="XMLID_74_">
	<circle id="XMLID_54_" class="st9" cx="175.3802185" cy="35.7024155" r="3.1509838"/>
	<g id="XMLID_65_">
		<line id="XMLID_64_" class="st9" x1="173.2737579" y1="37.808876" x2="177.4866791" y2="33.5959511"/>
		<line id="XMLID_63_" class="st9" x1="177.4866791" y1="37.808876" x2="173.2737579" y2="33.5959511"/>
	</g>
</g>
<g id="XMLID_75_">
	<g id="XMLID_76_">
		<path id="XMLID_71_" class="st7" d="M188.2242889,35.1220703l2.1689453-5.2001953h3.2519531v0.2158203h-0.2587891
			c-0.2353516,0-0.4248047,0.0400391-0.5654297,0.1220703c-0.0986328,0.0537109-0.1767578,0.1455078-0.2363281,0.2734375
			c-0.0429688,0.0927734-0.0644531,0.3349609-0.0644531,0.7265625v5.2001953c0,0.4033203,0.0214844,0.6552734,0.0644531,0.7558594
			c0.0439453,0.1015625,0.1318359,0.1894531,0.265625,0.2646484c0.1337891,0.0761719,0.3125,0.1142578,0.5361328,0.1142578
			h0.2587891v0.2148438h-4.171875v-0.2148438h0.2597656c0.2353516,0,0.4238281-0.0410156,0.5654297-0.1220703
			c0.0986328-0.0546875,0.1767578-0.1474609,0.2353516-0.2792969c0.0439453-0.09375,0.0654297-0.3378906,0.0654297-0.7333984
			v-5.8457031l-3.0644531,7.1953125h-0.1416016l-3.1113281-7.1425781v5.5546875
			c0,0.3876953,0.0097656,0.6259766,0.0292969,0.7158203c0.0517578,0.1933594,0.1621094,0.3515625,0.3330078,0.4736328
			s0.4394531,0.1835938,0.8046875,0.1835938v0.2148438h-2.734375v-0.2148438h0.0830078
			c0.1767578,0.0039063,0.3417969-0.0244141,0.4941406-0.0849609c0.1533203-0.0595703,0.2695313-0.140625,0.3476563-0.2412109
			c0.0791016-0.1005859,0.1396484-0.2421875,0.1835938-0.4248047c0.0078125-0.0419922,0.0117188-0.2402344,0.0117188-0.5927734
			v-4.9912109c0-0.3994141-0.0224609-0.6484375-0.0654297-0.7470703c-0.0429688-0.0996094-0.1318359-0.1865234-0.2646484-0.2617188
			c-0.1337891-0.0761719-0.3125-0.1132813-0.5361328-0.1132813h-0.2539063V29.921875h3.2646484L188.2242889,35.1220703z"/>
	</g>
</g>
<g id="XMLID_66_">
	<g id="XMLID_85_">
		<g id="XMLID_86_">
			<polygon id="XMLID_87_" points="141.7346802,62.5441895 143.7411194,62.5441895 141.2137451,53.1057129 138.6820068,62.5441895 
				140.6885986,62.5441895 140.6885986,80.0699768 141.7346802,80.0699768 			"/>
		</g>
	</g>
</g>
<g id="XMLID_22_">
	<g id="XMLID_23_">
		<path id="XMLID_49_" class="st8" d="M131.3385468,49.8173828l2.4560547,6.2197266l1.3310547-4.6455078
			c0.109375-0.3828125,0.1640625-0.6787109,0.1640625-0.8896484c0-0.1445313-0.0507813-0.2578125-0.1523438-0.3388672
			c-0.1015625-0.0820313-0.2910156-0.1230469-0.5683594-0.1230469c-0.046875,0-0.0957031-0.0019531-0.1464844-0.0058594
			l0.0644531-0.2167969h2.5556641l-0.0703125,0.2167969c-0.265625-0.0039063-0.4628906,0.0234375-0.5917969,0.0820313
			c-0.1845703,0.0820313-0.3212891,0.1865234-0.4111328,0.3154297c-0.125,0.1835938-0.2519531,0.5029297-0.3808594,0.9599609
			l-1.8701172,6.5419922h-0.2109375l-2.6435547-6.6943359l-1.4130859,4.9443359
			c-0.1054688,0.375-0.1582031,0.6611328-0.1582031,0.8603516c0,0.1484375,0.0478516,0.2607422,0.1435547,0.3369141
			c0.0957031,0.0751953,0.3232422,0.1269531,0.6826172,0.1542969l-0.0585938,0.2167969h-2.4970779l0.0820313-0.2167969
			c0.3125-0.0078125,0.521492-0.0351563,0.6269608-0.0820313c0.1611328-0.0693359,0.2802734-0.1611328,0.3583984-0.2744141
			c0.1132813-0.171875,0.2402344-0.5029297,0.3808594-0.9951172l1.5771484-5.5175781
			c-0.1523438-0.234375-0.3164063-0.3955078-0.4902344-0.4824219c-0.1738281-0.0878906-0.4443359-0.1376953-0.8115234-0.1494141
			l0.0644531-0.2167969H131.3385468z"/>
	</g>
</g>
<g id="XMLID_42_">
	<g id="XMLID_43_">
		<path id="XMLID_45_" class="st10" d="M149.7828827,71.0332031c0.5117188-1.5371094,1.2167969-2.7207031,2.1162109-3.5517578
			c0.6777344-0.6230469,1.3466797-0.9355469,2.0048828-0.9355469c0.6386719,0,1.0839844,0.2998047,1.3359375,0.9003906
			c0.3525391,0.8388672,0.2861328,1.9804688-0.1933594,3.4238281c-0.4570313,1.3730469-1.1259766,2.4570313-2.0097656,3.2529297
			c-0.6884766,0.6162109-1.359375,0.9248047-2.0136719,0.9248047c-0.3535156,0-0.6484375-0.0859375-0.8837891-0.2578125
			c-0.234375-0.1708984-0.4111328-0.4199219-0.5292969-0.7431641s-0.1767578-0.6669922-0.1777344-1.0292969
			C149.4342499,72.3925781,149.5504608,71.7324219,149.7828827,71.0332031z M150.9078827,71.0039063
			c-0.2148438,0.6953125-0.3701172,1.3183594-0.4648438,1.8730469c-0.0732422,0.421875-0.0810547,0.7871094-0.0205078,1.0996094
			c0.0341797,0.1875,0.1240234,0.3466797,0.2666016,0.4775391c0.1445313,0.1308594,0.3222656,0.1953125,0.5361328,0.1953125
			c0.2490234,0,0.5253906-0.1171875,0.8271484-0.3515625c0.3017578-0.2333984,0.5957031-0.609375,0.8837891-1.1279297
			c0.2871094-0.5195313,0.5957031-1.2412109,0.9267578-2.1660156H150.9078827z M154.0026093,70.6181641
			c0.3359375-1.0185547,0.5107422-1.8359375,0.5244141-2.4521484c0.0087891-0.4716797-0.0742188-0.8095703-0.2529297-1.0126953
			c-0.1298828-0.1474609-0.3105469-0.2216797-0.5449219-0.2216797c-0.2646484,0-0.5429688,0.1035156-0.8330078,0.3095703
			c-0.2900391,0.2070313-0.5742188,0.5527344-0.8496094,1.0361328c-0.2763672,0.484375-0.6132813,1.2646484-1.0097656,2.3408203
			H154.0026093z"/>
	</g>
</g>
<g id="XMLID_44_">
</g>
<g id="XMLID_104_">
</g>
<g id="XMLID_105_">
</g>
<g id="XMLID_106_">
</g>
<g id="XMLID_107_">
</g>
<g id="XMLID_108_">
</g>
</svg>
