<?xml version="1.0" encoding="utf-8"?>
<!-- Generator: Adobe Illustrator 19.0.0, SVG Export Plug-In . SVG Version: 6.00 Build 0)  -->
<svg version="1.1" id="Layer_1" xmlns="http://www.w3.org/2000/svg" xmlns:xlink="http://www.w3.org/1999/xlink" x="0px" y="0px"
	 viewBox="308.6666565 112.8333359 95.8333359 72.6666641"
	 style="enable-background:new 308.6666565 112.8333359 95.8333359 72.6666641;" xml:space="preserve">
<style type="text/css">
	.st0{fill-opacity:0;stroke:#000000;stroke-dasharray:3,2;}
	.st1{fill-opacity:0;stroke:#000000;}
	.st2{stroke:#000000;}
	.st3{fill:none;stroke:#000000;}
</style>
<path class="st0" d="M342.3661804,130.4200592h28.0591125"/>
<g>
	<path class="st1" d="M370.425293,130.4200592h25.9214172"/>
	<path class="st2" d="M396.3467102,132.3401184l5.1201477-1.9200592L396.3467102,128.5V132.3401184z"/>
</g>
<g>
	<path class="st1" d="M359.8752136,183.2869263l-15.6983948-47.3985443"/>
	<path class="st2" d="M345.9995728,135.2842102l-3.4324036-4.2567749l-0.2131348,5.4644928L345.9995728,135.2842102z"/>
</g>
<g>
	<path class="st1" d="M359.8752136,183.2869263l9.4230042-47.2180481"/>
	<path class="st2" d="M371.1811523,136.4445496l-0.8813171-5.3966217l-2.8845825,4.6452484L371.1811523,136.4445496z"/>
</g>
<g>
	<path class="st1" d="M316.4441528,130.4200592h25.9220276"/>
	<path class="st2" d="M316.4441528,128.5l-5.1201477,1.9200592l5.1201477,1.9200592V128.5z"/>
</g>
<g>
	<g>
		<path d="M344.3588867,158.9736328l-0.9716797,3.3320313l0.390625-0.3291016
			c0.4257813-0.3564453,0.703125-0.6210938,0.8310547-0.7929688c0.0410156-0.0566406,0.0615234-0.0996094,0.0615234-0.1289063
			c0-0.0205078-0.0068359-0.0390625-0.0205078-0.0576172c-0.0136719-0.0175781-0.0400391-0.0322266-0.0800781-0.0439453
			s-0.1103516-0.0166016-0.2109375-0.0166016h-0.1191406l0.0371094-0.1289063h1.4951172l-0.0341797,0.1289063
			c-0.1708984,0.0087891-0.3183594,0.0351563-0.4423828,0.0791016c-0.125,0.0439453-0.2451172,0.109375-0.3613281,0.1953125
			c-0.2304688,0.1689453-0.3818359,0.2871094-0.4550781,0.3525391l-0.2939453,0.2578125
			c0.0498047,0.1621094,0.1113281,0.3896484,0.1845703,0.6806641c0.1230469,0.484375,0.2060547,0.7714844,0.25,0.8613281
			c0.0429688,0.0908203,0.0878906,0.1357422,0.1328125,0.1357422c0.0390625,0,0.0849609-0.0195313,0.1367188-0.0576172
			c0.1191406-0.0859375,0.2460938-0.2226563,0.3798828-0.4101563l0.1201172,0.0849609
			c-0.2490234,0.3095703-0.4394531,0.5136719-0.5712891,0.6113281c-0.1328125,0.0986328-0.2529297,0.1474609-0.3632813,0.1474609
			c-0.0957031,0-0.1699219-0.0371094-0.2216797-0.1113281c-0.0917969-0.1337891-0.2431641-0.6591797-0.4550781-1.5761719
			l-0.46875,0.4033203l-0.3525391,1.203125h-0.5341797l1.1357422-3.8681641l0.0966797-0.3291016
			c0.0107422-0.0556641,0.0166016-0.1054688,0.0166016-0.1484375c0-0.0546875-0.0214844-0.0996094-0.0634766-0.1357422
			s-0.1035156-0.0546875-0.1826172-0.0546875c-0.0527344,0-0.1357422,0.0117188-0.25,0.0341797v-0.1181641L344.3588867,158.9736328z
			"/>
	</g>
	<g>
		<path d="M340.4262695,155.2177734v1.2431641c0.3666992-0.5668945,0.6884766-0.9433594,0.9648438-1.1289063
			c0.2758789-0.1855469,0.5424805-0.2788086,0.7988281-0.2788086c0.2207031,0,0.3974609,0.0678711,0.5292969,0.2026367
			c0.1328125,0.1347656,0.1982422,0.3251953,0.1982422,0.5717773c0,0.2617188-0.0634766,0.4648438-0.1923828,0.6098633
			c-0.1279297,0.1445313-0.2832031,0.2167969-0.4648438,0.2167969c-0.2084961,0-0.3901367-0.0664063-0.5439453-0.1992188
			c-0.1538086-0.1333008-0.2446289-0.2075195-0.2719727-0.2231445c-0.0395508-0.0234375-0.0849609-0.0351563-0.1362305-0.0351563
			c-0.1147461,0-0.2231445,0.0429688-0.3256836,0.1289063c-0.1616211,0.1333008-0.2841797,0.3227539-0.3666992,0.5688477
			c-0.1264648,0.3793945-0.1894531,0.7973633-0.1894531,1.2548828v1.2607422l0.0058594,0.328125
			c0,0.2226563,0.0136719,0.3662109,0.0415039,0.4287109c0.0473633,0.1054688,0.1171875,0.1826172,0.2099609,0.2314453
			s0.2495117,0.0791016,0.4707031,0.0908203v0.2109375h-2.9892578v-0.2109375
			c0.2407227-0.0195313,0.4033203-0.0849609,0.4882813-0.1962891s0.1274414-0.40625,0.1274414-0.8828125v-3.0317383
			c0-0.3125-0.0161133-0.5117188-0.0473633-0.5976563c-0.0395508-0.1098633-0.0966797-0.1899414-0.171875-0.2407227
			c-0.074707-0.0507813-0.2070313-0.0859375-0.3964844-0.1054688v-0.2167969H340.4262695z"/>
	</g>
</g>
<g>
	<g>
		<path d="M376.8325195,160.5205078l-1.1542969,4.0341797c-0.0566406,0.2011719-0.0839844,0.3242188-0.0839844,0.3691406
			c0,0.0341797,0.0107422,0.0625,0.0322266,0.0849609c0.0205078,0.0224609,0.046875,0.0341797,0.0791016,0.0341797
			c0.0429688,0,0.0888672-0.0195313,0.1376953-0.0576172c0.1171875-0.0927734,0.2402344-0.2363281,0.3681641-0.4306641
			l0.1015625,0.1044922c-0.2138672,0.3027344-0.4111328,0.5146484-0.5908203,0.6337891
			c-0.1328125,0.0859375-0.2587891,0.1289063-0.3779297,0.1289063c-0.0859375,0-0.1572266-0.0292969-0.2148438-0.0878906
			c-0.0566406-0.0585938-0.0859375-0.1269531-0.0859375-0.203125c0-0.0820313,0.0361328-0.2490234,0.1083984-0.5019531
			l0.9150391-3.1796875c0.0742188-0.2597656,0.1113281-0.4091797,0.1113281-0.4472656
			c0-0.0546875-0.0214844-0.0996094-0.0644531-0.1337891c-0.0429688-0.0351563-0.109375-0.0527344-0.1992188-0.0527344
			c-0.0517578,0-0.1308594,0.0078125-0.2363281,0.0234375v-0.125L376.8325195,160.5205078z"/>
	</g>
	<g>
		<path d="M373.0942383,156.7646484v1.2431641c0.3618164-0.5668945,0.6791992-0.9433594,0.9521484-1.1289063
			c0.2714844-0.1855469,0.5351563-0.2788086,0.7880859-0.2788086c0.2177734,0,0.3925781,0.0678711,0.5224609,0.2026367
			c0.1308594,0.1347656,0.1962891,0.3251953,0.1962891,0.5717773c0,0.2617188-0.0634766,0.4648438-0.1904297,0.6098633
			c-0.1259766,0.1445313-0.2792969,0.2167969-0.4580078,0.2167969c-0.2070313,0-0.3857422-0.0664063-0.5380859-0.1992188
			c-0.1513672-0.1333008-0.2402344-0.2075195-0.2675781-0.2231445c-0.0390625-0.0234375-0.0839844-0.0351563-0.1347656-0.0351563
			c-0.112793,0-0.2202148,0.0429688-0.3212891,0.1289063c-0.159668,0.1333008-0.2802734,0.3227539-0.3618164,0.5688477
			c-0.125,0.3793945-0.1870117,0.7973633-0.1870117,1.2548828v1.2607422l0.0058594,0.328125
			c0,0.2226563,0.0136719,0.3662109,0.0410156,0.4287109c0.0463867,0.1054688,0.1157227,0.1826172,0.2070313,0.2314453
			s0.2460938,0.0791016,0.4643555,0.0908203v0.2109375h-2.9492188v-0.2109375
			c0.2373047-0.0195313,0.3979492-0.0849609,0.4819336-0.1962891c0.0834961-0.1113281,0.1254883-0.40625,0.1254883-0.8828125
			v-3.0317383c0-0.3125-0.015625-0.5117188-0.046875-0.5976563c-0.0390625-0.1098633-0.0952148-0.1899414-0.1694336-0.2407227
			c-0.0737305-0.0507813-0.2041016-0.0859375-0.3911133-0.1054688v-0.2167969H373.0942383z"/>
	</g>
</g>
<g>
	<g>
		<path d="M328.1455078,120.7792969l-1.1533203,4.0341797c-0.0561523,0.2011719-0.0844727,0.3242188-0.0844727,0.3691406
			c0,0.0341797,0.0107422,0.0625,0.0322266,0.0849609s0.0478516,0.0341797,0.0791016,0.0341797
			c0.0429688,0,0.0888672-0.0195313,0.1381836-0.0576172c0.1171875-0.0927734,0.2397461-0.2363281,0.3676758-0.4306641
			l0.1010742,0.1044922c-0.2133789,0.3027344-0.4101563,0.5146484-0.5898438,0.6337891
			c-0.1328125,0.0859375-0.2587891,0.1289063-0.3779297,0.1289063c-0.0854492,0-0.1567383-0.0292969-0.2138672-0.0878906
			c-0.0576172-0.0585938-0.0859375-0.1269531-0.0859375-0.203125c0-0.0820313,0.0356445-0.2490234,0.1079102-0.5019531
			l0.9135742-3.1796875c0.0742188-0.2597656,0.1113281-0.4091797,0.1113281-0.4472656
			c0-0.0546875-0.0214844-0.0996094-0.0639648-0.1337891c-0.0429688-0.0351563-0.1088867-0.0527344-0.1992188-0.0527344
			c-0.0517578,0-0.1303711,0.0078125-0.2358398,0.0234375v-0.125L328.1455078,120.7792969z"/>
		<path d="M337.7705078,120.7792969l-0.9580078,3.3320313l0.3847656-0.3291016
			c0.4199219-0.3564453,0.6933594-0.6210938,0.8193359-0.7929688c0.0400391-0.0566406,0.0605469-0.0996094,0.0605469-0.1289063
			c0-0.0205078-0.0068359-0.0390625-0.0205078-0.0576172c-0.0136719-0.0175781-0.0400391-0.0322266-0.0791016-0.0439453
			s-0.1083984-0.0166016-0.2070313-0.0166016h-0.1181641l0.0371094-0.1289063h1.4736328l-0.0341797,0.1289063
			c-0.1679688,0.0087891-0.3144531,0.0351563-0.4365234,0.0791016s-0.2412109,0.109375-0.3554688,0.1953125
			c-0.2275391,0.1689453-0.3769531,0.2871094-0.4492188,0.3525391l-0.2900391,0.2578125
			c0.0498047,0.1621094,0.1103516,0.3896484,0.1826172,0.6806641c0.1210938,0.484375,0.203125,0.7714844,0.2460938,0.8613281
			c0.0429688,0.0908203,0.0869141,0.1357422,0.1318359,0.1357422c0.0380859,0,0.0830078-0.0195313,0.1347656-0.0576172
			c0.1162109-0.0859375,0.2412109-0.2226563,0.3740234-0.4101563l0.1181641,0.0849609
			c-0.2451172,0.3095703-0.4326172,0.5136719-0.5634766,0.6113281c-0.1298828,0.0986328-0.2490234,0.1474609-0.3574219,0.1474609
			c-0.09375,0-0.1669922-0.0371094-0.21875-0.1113281c-0.0898438-0.1337891-0.2392578-0.6591797-0.4482422-1.5761719
			l-0.4628906,0.4033203l-0.3466797,1.203125h-0.5263672l1.1201172-3.8681641l0.09375-0.3291016
			c0.0117188-0.0556641,0.0166016-0.1054688,0.0166016-0.1484375c0-0.0546875-0.0205078-0.0996094-0.0615234-0.1357422
			c-0.0419922-0.0361328-0.1025391-0.0546875-0.1806641-0.0546875c-0.0517578,0-0.1337891,0.0117188-0.2460938,0.0341797v-0.1181641
			L337.7705078,120.7792969z"/>
	</g>
	<g>
		<path d="M334.0957031,124.0810547h-5.1728516v-0.3291016h5.1728516c-0.3193359-0.3701172-0.5429688-0.6572266-0.6708984-0.859375
			s-0.2529297-0.453125-0.3740234-0.7539063h0.2695313c0.2626953,0.3251953,0.5898438,0.6552734,0.9814453,0.9892578
			c0.390625,0.3349609,0.7011719,0.5673828,0.9306641,0.6982422v0.1904297
			c-0.2988281,0.1669922-0.6259766,0.40625-0.9794922,0.71875c-0.3544922,0.3115234-0.6650391,0.6318359-0.9326172,0.9589844
			h-0.2695313c0.1279297-0.3046875,0.2597656-0.5634766,0.3945313-0.7763672
			C333.5800781,124.7060547,333.796875,124.4267578,334.0957031,124.0810547z"/>
	</g>
	<g>
		<path d="M323.1572266,115.012207v3.2661133h0.2275391c0.3496094,0,0.6357422-0.0532227,0.8574219-0.1586914
			s0.4091797-0.2832031,0.5629883-0.5332031c0.1533203-0.2504883,0.253418-0.5883789,0.300293-1.0146484h0.2041016v3.9936523
			h-0.2041016c-0.0742188-0.7548828-0.2753906-1.2524414-0.6040039-1.4926758
			c-0.3286133-0.2407227-0.7006836-0.3608398-1.1166992-0.3608398h-0.2275391v2.4335938
			c0,0.40625,0.0219727,0.6601563,0.0668945,0.7626953c0.0449219,0.1015625,0.1323242,0.1904297,0.2626953,0.2666016
			c0.1298828,0.0761719,0.3061523,0.1142578,0.527832,0.1142578h0.262207v0.2167969h-4.1352539v-0.2167969h0.262207
			c0.2294922,0,0.4140625-0.0410156,0.5541992-0.1230469c0.1010742-0.0546875,0.1787109-0.1484375,0.2333984-0.28125
			c0.0424805-0.0947266,0.0639648-0.3408203,0.0639648-0.7392578v-5.2304688c0-0.4067383-0.0214844-0.6606445-0.0639648-0.762207
			c-0.0429688-0.1015625-0.1293945-0.1904297-0.2597656-0.2670898c-0.1303711-0.0761719-0.3061523-0.1142578-0.527832-0.1142578
			h-0.262207v-0.2167969h6.6728516v2.2807617h-0.2392578c-0.0541992-0.5351563-0.1933594-0.9321289-0.4169922-1.1899414
			c-0.2236328-0.2583008-0.5473633-0.4399414-0.9711914-0.5454102c-0.2333984-0.0585938-0.6650391-0.0878906-1.2949219-0.0878906
			H323.1572266z"/>
	</g>
</g>
<g>
	<g>
		<path d="M383.8100586,122.3261719l-0.9575195,3.3320313l0.3842773-0.3291016
			c0.4204102-0.3564453,0.6933594-0.6210938,0.8193359-0.7929688c0.0405273-0.0566406,0.0610352-0.0996094,0.0610352-0.1289063
			c0-0.0205078-0.0068359-0.0390625-0.0205078-0.0576172c-0.0131836-0.0175781-0.0400391-0.0322266-0.0791016-0.0439453
			c-0.0395508-0.0117188-0.1083984-0.0166016-0.2075195-0.0166016h-0.1181641l0.0371094-0.1289063h1.4741211l-0.0341797,0.1289063
			c-0.168457,0.0087891-0.3139648,0.0351563-0.4365234,0.0791016s-0.2412109,0.109375-0.355957,0.1953125
			c-0.2270508,0.1689453-0.3764648,0.2871094-0.4482422,0.3525391l-0.2900391,0.2578125
			c0.0493164,0.1621094,0.1098633,0.3896484,0.1821289,0.6806641c0.121582,0.484375,0.2036133,0.7714844,0.2460938,0.8613281
			c0.0424805,0.0908203,0.0864258,0.1357422,0.1313477,0.1357422c0.0385742,0,0.0834961-0.0195313,0.1352539-0.0576172
			c0.1166992-0.0859375,0.2416992-0.2226563,0.3740234-0.4101563l0.1181641,0.0849609
			c-0.2451172,0.3095703-0.4326172,0.5136719-0.5629883,0.6113281c-0.1303711,0.0986328-0.2495117,0.1474609-0.3574219,0.1474609
			c-0.0947266,0-0.1679688-0.0371094-0.2192383-0.1113281c-0.090332-0.1337891-0.2397461-0.6591797-0.4487305-1.5761719
			l-0.4619141,0.4033203l-0.347168,1.203125h-0.5263672l1.1196289-3.8681641l0.0942383-0.3291016
			c0.0112305-0.0556641,0.0170898-0.1054688,0.0170898-0.1484375c0-0.0546875-0.0209961-0.0996094-0.0625-0.1357422
			s-0.1015625-0.0546875-0.1801758-0.0546875c-0.0517578,0-0.1337891,0.0117188-0.2460938,0.0341797v-0.1181641
			L383.8100586,122.3261719z"/>
		<path d="M394.6816406,122.3261719l-1.1533203,4.0341797c-0.0566406,0.2011719-0.0839844,0.3242188-0.0839844,0.3691406
			c0,0.0341797,0.0107422,0.0625,0.03125,0.0849609c0.0214844,0.0224609,0.0478516,0.0341797,0.0800781,0.0341797
			c0.0419922,0,0.0888672-0.0195313,0.1376953-0.0576172c0.1171875-0.0927734,0.2392578-0.2363281,0.3681641-0.4306641
			l0.1005859,0.1044922c-0.2138672,0.3027344-0.4101563,0.5146484-0.5898438,0.6337891
			c-0.1328125,0.0859375-0.2587891,0.1289063-0.3779297,0.1289063c-0.0849609,0-0.15625-0.0292969-0.2138672-0.0878906
			s-0.0859375-0.1269531-0.0859375-0.203125c0-0.0820313,0.0361328-0.2490234,0.1074219-0.5019531l0.9140625-3.1796875
			c0.0742188-0.2597656,0.1113281-0.4091797,0.1113281-0.4472656c0-0.0546875-0.0214844-0.0996094-0.0644531-0.1337891
			c-0.0419922-0.0351563-0.1083984-0.0527344-0.1982422-0.0527344c-0.0517578,0-0.1308594,0.0078125-0.2363281,0.0234375v-0.125
			L394.6816406,122.3261719z"/>
	</g>
	<g>
		<path d="M391.1503906,125.6279297h-5.1728516v-0.3291016h5.1728516c-0.3193359-0.3701172-0.5429688-0.6572266-0.6708984-0.859375
			s-0.2529297-0.453125-0.3740234-0.7539063H390.375c0.2626953,0.3251953,0.5898438,0.6552734,0.9814453,0.9892578
			c0.390625,0.3349609,0.7011719,0.5673828,0.9306641,0.6982422v0.1904297
			c-0.2988281,0.1669922-0.6259766,0.40625-0.9794922,0.71875c-0.3544922,0.3115234-0.6650391,0.6318359-0.9326172,0.9589844
			h-0.2695313c0.1279297-0.3046875,0.2597656-0.5634766,0.3945313-0.7763672
			C390.6347656,126.2529297,390.8515625,125.9736328,391.1503906,125.6279297z"/>
	</g>
	<g>
		<path d="M378.6806641,116.559082v3.2661133h0.2275391c0.3496094,0,0.6357422-0.0532227,0.8574219-0.1586914
			s0.4091797-0.2832031,0.5629883-0.5332031c0.1533203-0.2504883,0.253418-0.5883789,0.300293-1.0146484h0.2041016v3.9936523
			h-0.2041016c-0.0742188-0.7548828-0.2753906-1.2524414-0.6040039-1.4926758
			c-0.3286133-0.2407227-0.7006836-0.3608398-1.1166992-0.3608398h-0.2275391v2.4335938
			c0,0.40625,0.0219727,0.6601563,0.0668945,0.7626953c0.0449219,0.1015625,0.1323242,0.1904297,0.2626953,0.2666016
			c0.1298828,0.0761719,0.3061523,0.1142578,0.527832,0.1142578h0.262207v0.2167969h-4.1352539v-0.2167969h0.262207
			c0.2294922,0,0.4140625-0.0410156,0.5541992-0.1230469c0.1010742-0.0546875,0.1787109-0.1484375,0.2333984-0.28125
			c0.0424805-0.0947266,0.0639648-0.3408203,0.0639648-0.7392578v-5.2304688c0-0.4067383-0.0214844-0.6606445-0.0639648-0.762207
			c-0.0429688-0.1015625-0.1293945-0.1904297-0.2597656-0.2670898c-0.1303711-0.0761719-0.3061523-0.1142578-0.527832-0.1142578
			h-0.262207v-0.2167969h6.6728516v2.2807617h-0.2392578c-0.0541992-0.5351563-0.1933594-0.9321289-0.4169922-1.1899414
			c-0.2236328-0.2583008-0.5473633-0.4399414-0.9711914-0.5454102c-0.2333984-0.0585938-0.6650391-0.0878906-1.2949219-0.0878906
			H378.6806641z"/>
	</g>
</g>
<path class="st0" d="M359.8750916,183.2870178V130.420166"/>
<polyline class="st3" points="359.8750916,136.4445496 354.25,136.4445496 354.25,130.4200592 "/>
<path class="st3" d="M359.8750916,130.4200592"/>
</svg>
