<?xml version="1.0" encoding="utf-8"?>
<!-- Generator: Adobe Illustrator 19.0.0, SVG Export Plug-In . SVG Version: 6.00 Build 0)  -->
<svg version="1.1" id="Layer_1" xmlns="http://www.w3.org/2000/svg" xmlns:xlink="http://www.w3.org/1999/xlink" x="0px" y="0px"
	 viewBox="0 0 502 412.6666565" style="enable-background:new 0 0 502 412.6666565;" xml:space="preserve">
<style type="text/css">
	.st0{fill:#D3E5A5;}
	.st1{fill:#EF4136;}
	.st2{fill:none;stroke:#D1D3D4;stroke-miterlimit:10;}
	.st3{fill:none;stroke:#000000;stroke-miterlimit:10;}
	.st4{fill:#00A651;}
	.st5{fill:#BE1E2D;}
	.st6{fill:none;stroke:#939598;stroke-width:1.4;stroke-miterlimit:10;}
	.st7{fill:#808285;}
</style>
<ellipse id="XMLID_2_" class="st0" cx="249.875" cy="208.1719055" rx="198.125" ry="47.75"/>
<g id="XMLID_14_">
	<g id="XMLID_50_">
		<g id="XMLID_51_">
			<polygon id="XMLID_52_" class="st1" points="462.201355,209.7236176 462.201355,212.3380585 474.5,209.0448151 
				462.201355,205.7458954 462.201355,208.3605499 26.5,208.3605499 26.5,209.7236176 			"/>
		</g>
	</g>
</g>
<path id="XMLID_35_" class="st2" d="M166.4648743,27.7510586c38.4324493-16.9389496,112.3164368,7.4728985,179.4466553,62.3669357
	c37.6520386,30.7890015,66.3275452,65.5643616,82.668396,97.4082031"/>
<path id="XMLID_37_" class="st2" d="M242.2936554,9.2681828c32.7610321-1.8434587,81.6736603,19.054409,126.6938934,57.0235291
	c44.3410645,37.3963165,72.9964905,81.3081894,77.3956604,113.7736588"/>
<path id="XMLID_33_" class="st2" d="M60.1530724,151.8705902c1.4974594-5.8363647,4.1018867-10.9722748,7.8818092-15.2642059
	c22.3928909-25.4260483,79.3815918-13.6706009,139.5604095,24.9052277"/>
<path id="XMLID_66_" class="st3" d="M448,207.3333282c0,109.4214325-88.7035828,198.1250153-198.125,198.1250153
	S51.75,316.7547607,51.75,207.3333282s88.7035828-198.125,198.125-198.125c28.6309509,0,55.8434753,6.0730696,80.4196167,17.0012894
	c13.7351379,6.1075687,26.6468201,13.7316303,38.5224304,22.6595821C416.9013672,85.0184631,448,142.5441589,448,207.3333282z"/>
<path id="XMLID_40_" class="st3" d="M338.3999939,51.7729149c5.2713928-6.6207542,21.0558472-2.8228722,35.2555237,8.4828033
	s21.4374695,25.837925,16.1660767,32.4586754"/>
<path id="XMLID_39_" class="st3" d="M354.5661011,84.2315903"/>
<path id="XMLID_5_" class="st3" d="M431.01828,282.0800171"/>
<path id="XMLID_4_" class="st3" d="M438.3983459,268.5845642"/>
<path id="XMLID_72_" class="st3" d="M398.8062439,337.9685669"/>
<path id="XMLID_75_" class="st3" d="M332.1635132,387.1704102"/>
<g id="XMLID_12_">
	<circle id="XMLID_6_" cx="249.9960175" cy="172.5281525" r="4.4251461"/>
	<path id="XMLID_7_" d="M253.2890472,194.2991333h-6.5344849c-3.09375,0-5.625-2.53125-5.625-5.625v-5.1029205
		c0-3.09375,2.53125-5.625,5.625-5.625h6.5344849c3.0937653,0,5.6250153,2.53125,5.6250153,5.625v5.1029205
		C258.9140625,191.7678833,256.3828125,194.2991333,253.2890472,194.2991333z"/>
	<path id="XMLID_8_" d="M252.8034668,209.1538391h-0.8054199c-1.0869293,0-1.9762421-0.8892975-1.9762421-1.9762421v-17.7271729
		c0-1.0869293,0.8893127-1.9762421,1.9762421-1.9762421h0.8054199c1.0869446,0,1.9762421,0.8893127,1.9762421,1.9762421v17.7271729
		C254.7797089,208.2645416,253.8904114,209.1538391,252.8034668,209.1538391z"/>
	<path id="XMLID_9_" d="M247.9857635,209.1538391h-0.8054199c-1.0869293,0-1.9762421-0.8892975-1.9762421-1.9762421v-17.7271729
		c0-1.0869293,0.8893127-1.9762421,1.9762421-1.9762421h0.8054199c1.0869446,0,1.9762421,0.8893127,1.9762421,1.9762421v17.7271729
		C249.9620056,208.2645416,249.0727081,209.1538391,247.9857635,209.1538391z"/>
	<path id="XMLID_10_" d="M257.1968079,196.0055237h-0.6998596c-0.9444733,0-1.7172394-0.7727509-1.7172394-1.7172241v-7.4555511
		c0-0.9444733,0.7727661-1.7172394,1.7172394-1.7172394h0.6998596c0.9444885,0,1.7172546,0.7727661,1.7172546,1.7172394v7.4555511
		C258.9140625,195.2327728,258.1412964,196.0055237,257.1968079,196.0055237z"/>
	<path id="XMLID_11_" d="M243.5370483,196.0055237h-0.6998596c-0.9444885,0-1.7172394-0.7727509-1.7172394-1.7172241v-7.4555511
		c0-0.9444733,0.7727509-1.7172394,1.7172394-1.7172394h0.6998596c0.9444733,0,1.7172394,0.7727661,1.7172394,1.7172394v7.4555511
		C245.2542877,195.2327728,244.4815216,196.0055237,243.5370483,196.0055237z"/>
</g>
<g id="XMLID_15_">
	<path id="XMLID_129_" d="M18.4301758,200.8367462c0.0961914,0.0961914,0.144043,0.1601563,0.144043,0.1923828
		c0,0.0478516-0.0639648,0.0639648-0.1757813,0.0639648h-7.0429688v2.0966797h4.3056641l0.4960938-0.7524414l1.0405273,0.6884766
		c0.1118164,0.0639648,0.1601563,0.1118164,0.1601563,0.1601563c0,0.0639648-0.0483398,0.1118164-0.1601563,0.1918945
		l-0.512207,0.3520508v7.3793945c0,0.9599609-0.144043,1.3125-1.2163086,1.7446289
		c-0.0644531,0.0317383-0.1123047,0.0478516-0.144043,0.0478516c-0.0644531,0-0.0961914-0.0478516-0.1123047-0.1601563
		c-0.0961914-0.4799805-0.4321289-0.7841797-2.1289063-1.2324219l0.0161133-0.2241211
		c1.1206055,0.2241211,1.8085938,0.3203125,2.2089844,0.3203125c0.5922852,0,0.6240234-0.2080078,0.6240234-0.5444336v-7.6191406
		H6.2495117v5.6665039c0,1.2163086,0.015625,2.4169922,0.0639648,3.137207v0.1279297
		c0,0.2080078-0.0483398,0.2724609-0.3842773,0.4165039c-0.144043,0.0639648-0.2563477,0.0957031-0.3203125,0.0957031
		c-0.1118164,0-0.1279297-0.0800781-0.1279297-0.3198242v-0.1923828c0.0322266-0.9443359,0.0478516-2.3847656,0.0478516-3.2973633
		v-4.4174805c0-0.65625-0.0317383-1.7446289-0.0639648-2.3369141l0.9604492,0.7680664h4.1777344v-2.0966797H4.9370117
		c-0.3364258,0-0.8164063,0.0639648-1.0727539,0.1601563L3.4160156,200.67659
		c0.3842773,0.0322266,0.800293,0.0644531,1.168457,0.0644531h6.0185547v-1.152832
		c0-0.6240234-0.0161133-1.0083008-0.0478516-1.5683594l1.2802734,0.5922852
		c0.1123047,0.0478516,0.1762695,0.0957031,0.1762695,0.1279297c0,0.0317383-0.0478516,0.0800781-0.1279297,0.1279297
		l-0.5283203,0.3041992v1.5688477h5.2021484l0.7363281-1.0244141L18.4301758,200.8367462z M15.1489258,208.9680939
		c0.0800781,0.0800781,0.1118164,0.144043,0.1118164,0.1762695c0,0.0478516-0.0478516,0.0639648-0.159668,0.0639648h-3.8095703
		c0,1.7768555,0.015625,2.1450195,0.0639648,2.8168945v0.0961914c0,0.2241211-0.0639648,0.2880859-0.3842773,0.4160156
		c-0.144043,0.0644531-0.2558594,0.0961914-0.3203125,0.0961914c-0.1118164,0-0.144043-0.0961914-0.144043-0.3359375v-0.144043
		c0.0322266-0.8325195,0.0483398-2.0810547,0.0483398-2.9453125H8.0102539c-0.3041992,0-0.7363281,0.0639648-0.9765625,0.1601563
		l-0.4003906-0.5761719c0.3525391,0.0317383,0.7202148,0.0639648,1.0566406,0.0639648h2.8652344v-1.8408203h-2.097168
		c-0.3037109,0-0.7363281,0.0639648-0.9760742,0.1601563l-0.4003906-0.5761719
		c0.3520508,0.0317383,0.7202148,0.0639648,1.0566406,0.0639648h3.0571289
		c0.4960938-0.8486328,1.1362305-2.0810547,1.456543-2.8012695l0.9926758,0.5283203
		c0.0957031,0.0478516,0.144043,0.0957031,0.144043,0.1279297c0,0.0478516-0.0483398,0.0639648-0.144043,0.0961914
		c-0.5283203,0.159668-0.6245117,0.2397461-2.1450195,2.0488281h1.7924805l0.5444336-0.7685547l0.9282227,0.9125977
		c0.0639648,0.0639648,0.1123047,0.1279297,0.1123047,0.159668c0,0.0322266-0.0639648,0.0483398-0.1762695,0.0483398h-3.4091797
		v1.8408203h2.4008789l0.5761719-0.800293L15.1489258,208.9680939z M8.2338867,204.0540314
		c0.7207031,0.2724609,1.9047852,0.784668,1.9047852,1.5048828c0,0.3359375-0.2080078,0.65625-0.4321289,0.65625
		c-0.1757813,0-0.2241211-0.0483398-0.3999023-0.5605469c-0.1123047-0.3359375-0.4804688-0.8959961-1.168457-1.456543
		L8.2338867,204.0540314z"/>
</g>
<g id="XMLID_16_">
	<path id="XMLID_126_" d="M489.2001953,202.4480743c0.0957031,0.0478516,0.1435547,0.1123047,0.1435547,0.1601563
		s-0.0478516,0.1118164-0.1279297,0.1601563l-0.4003906,0.2397461v9.4599609c0,1.2167969,0.0166016,2.4169922,0.0644531,3.137207
		v0.0639648c0,0.2084961-0.0800781,0.2880859-0.4003906,0.4804688c-0.1757813,0.1118164-0.2714844,0.1601563-0.3359375,0.1601563
		c-0.0800781,0-0.0957031-0.0800781-0.0957031-0.2241211v-3.5537109l-2.7373047,1.0405273
		c-0.7207031,0.2563477-1.1689453,0.5761719-1.4082031,0.8164063c-0.0322266,0.0317383-0.0800781,0.0639648-0.1123047,0.0639648
		s-0.0644531-0.0322266-0.1123047-0.0639648l-0.6884766-0.7685547l5.0585938-1.4404297v-4.8818359h-3.0253906
		c-0.3359375,0-0.8007813,0.0639648-1.0722656,0.1757813l-0.4482422-0.5917969
		c0.4003906,0.0317383,0.7998047,0.0639648,1.1679688,0.0639648h3.3779297v-2.8491211
		c0-0.65625-0.0322266-1.7451172-0.0644531-2.3369141L489.2001953,202.4480743z M496.9306641,211.9241486
		c0.0644531,1.8886719,0.2568359,2.2246094,0.6728516,2.3686523c0.0478516,0.0161133,0.0800781,0.0483398,0.0800781,0.0961914
		c0,0.0317383-0.0166016,0.0639648-0.0322266,0.1118164c-0.5117188,1.168457-1.0244141,1.168457-3.3769531,1.168457
		c-2.4814453,0-2.7695313,0-2.7695313-1.472168v-10.5644531c0-0.7202148-0.015625-1.2646484-0.0478516-1.9047852
		l1.1679688,0.6401367c0.1123047,0.0639648,0.1601563,0.1123047,0.1601563,0.1762695
		c0,0.0478516-0.03125,0.1118164-0.1113281,0.1601563l-0.4003906,0.2719727v5.0097656
		c1.4082031-0.8959961,3.0410156-2.2568359,3.8251953-3.2490234l0.9609375,0.7202148
		c0.0800781,0.0639648,0.1113281,0.1118164,0.1113281,0.1279297c0,0.0322266-0.03125,0.0483398-0.1279297,0.0639648
		c-0.3837891,0.0322266-0.8798828,0.2241211-1.328125,0.5605469c-0.8486328,0.6401367-2.3535156,1.6005859-3.4414063,2.1928711
		v5.9223633c0,0.5439453,0,0.6723633,2.2724609,0.6723633c0.4804688,0,0.8964844-0.0161133,1.1689453-0.0483398
		c0.7519531-0.0800781,0.8798828-0.1601563,0.9443359-3.0249023H496.9306641z"/>
</g>
<g id="XMLID_17_">
	<g id="XMLID_29_">
		<g id="XMLID_30_">
			<polygon id="XMLID_31_" class="st4" points="217.3429108,275.5032654 220.4629517,277.3936768 225.4255676,260.3353882 
				212.5959625,272.6271362 215.7162628,274.5177002 215.0590363,275.6023865 209.7646179,284.3406372 211.3912659,285.3262024 
				216.6856995,276.5879822 			"/>
		</g>
	</g>
</g>
<g id="XMLID_18_">
	<path id="XMLID_91_" d="M175.5307617,290.2698669c0.0639648,0.0634766,0.0957031,0.1123047,0.0957031,0.1601563
		s-0.0478516,0.0800781-0.144043,0.1123047c-0.3681641,0.1113281-0.4638672,0.2880859-0.5439453,0.7519531
		c-0.2719727,1.5527344-0.6245117,2.9609375-1.1206055,4.2412109c0.4643555,0.5761719,1.1367188,1.5214844,1.4726563,2.0175781
		c0.2563477,0.3837891,0.3520508,0.7363281,0.3520508,1.0244141c0,0.3837891-0.1757813,0.6396484-0.4160156,0.6396484
		c-0.2880859,0-0.3681641-0.0634766-0.7202148-1.1201172c-0.1601563-0.4804688-0.4321289-1.0087891-0.9926758-1.8251953
		c-0.8642578,1.953125-2.0644531,3.6337891-3.8095703,5.1386719l-0.159668-0.1279297
		c1.3925781-1.6171875,2.640625-3.4101563,3.5053711-5.6503906c-0.784668-1.0722656-1.5527344-1.96875-2.4331055-2.9130859
		l0.1601563-0.1767578c0.9604492,0.8007813,1.6645508,1.4570313,2.5288086,2.4013672
		c0.4321289-1.3125,0.7524414-2.8007813,0.8803711-4.4814453l-2.8168945,0.0957031
		c-0.4643555,0.015625-0.7207031,0.0800781-0.9765625,0.1757813l-0.4160156-0.5595703
		c0.3999023,0.0478516,0.7841797,0.0634766,1.168457,0.0478516l2.8969727-0.0800781l0.5600586-0.7685547L175.5307617,290.2698669z
		 M180.3007813,291.3899841c0.0957031,0.0478516,0.144043,0.0800781,0.144043,0.1279297
		c0,0.0322266-0.0483398,0.0644531-0.1123047,0.1279297l-0.3681641,0.3203125
		c-0.0800781,1.6650391-0.2880859,3.921875-0.6723633,5.234375c-0.5761719,1.9365234-1.8725586,4.0820313-5.2817383,5.7304688
		l-0.1601563-0.1923828c3.137207-2.0009766,4.3374023-3.7451172,5.0097656-6.4980469
		c0.1923828-0.8164063,0.3041992-2.7373047,0.3041992-4.4023438c0-0.3681641,0-0.7363281-0.0161133-1.0722656
		L180.3007813,291.3899841z M183.277832,289.4856873c0.0478516,0.0322266,0.0639648,0.0800781,0.0639648,0.1113281
		c0,0.0322266-0.0161133,0.0644531-0.0800781,0.0966797l-0.5922852,0.3203125v4.1289063
		c0,1.2167969,0.0161133,1.8886719,0.0639648,2.609375v0.0957031c0,0.2089844-0.0639648,0.2724609-0.3837891,0.4003906
		c-0.1601563,0.0644531-0.2563477,0.0966797-0.3364258,0.0966797c-0.0961914,0-0.1279297-0.0800781-0.1279297-0.2402344v-0.1923828
		c0.0317383-0.5761719,0.0317383-1.0400391,0.0317383-1.953125v-5.265625h-4.59375v5.6503906
		c0,0.2080078,0.0322266,1.2158203,0.0322266,1.4560547c0,0.1601563-0.0639648,0.2246094-0.4165039,0.4160156
		c-0.1118164,0.0644531-0.1918945,0.0966797-0.2558594,0.0966797c-0.0961914,0-0.1279297-0.0966797-0.1279297-0.3046875v-0.1757813
		c0.0317383-0.5605469,0.0478516-1.2167969,0.0478516-1.7929688v-4.3535156c0-0.5917969-0.0161133-1.5683594-0.0478516-2.1132813
		l0.9443359,0.7685547h4.1777344l0.4799805-0.7197266L183.277832,289.4856873z M183.9018555,298.3528748
		c-0.015625,0.3046875-0.015625,0.5605469-0.015625,0.7841797c0,1.1044922,0.1279297,1.3447266,0.4799805,1.5371094
		c0.0639648,0.0322266,0.1118164,0.0800781,0.1118164,0.1601563c0,0.03125,0,0.0634766-0.015625,0.0957031
		c-0.3041992,0.8808594-0.8486328,1.1845703-2.2890625,1.1845703c-2.3847656,0-2.4648438-0.0957031-2.4648438-1.4404297v-3.7773438
		c0-0.5126953-0.0161133-0.8486328-0.0483398-1.1533203l1.1367188,0.5449219
		c0.0639648,0.0322266,0.0957031,0.0478516,0.0957031,0.0957031c0,0.0322266-0.0317383,0.0644531-0.0957031,0.1123047
		l-0.3681641,0.2714844v3.6337891c0,1.0244141,0.0800781,1.0566406,1.7446289,1.0566406
		c1.168457,0,1.2963867-0.0800781,1.4887695-3.1054688H183.9018555z"/>
	<path id="XMLID_96_" d="M193.1630859,292.3987732c0.0644531,0.0478516,0.0961914,0.0800781,0.0961914,0.1123047
		c0,0.0478516-0.0639648,0.0957031-0.1918945,0.1435547c-0.2402344,0.0957031-0.4165039,0.2246094-0.6245117,0.5927734
		c-1.3925781,2.5283203-3.5693359,4.8974609-6.8666992,6.0976563l-0.0639648-0.2080078
		c3.1533203-1.5361328,5.3300781-3.9697266,6.4506836-6.6103516h-2.5131836
		c-1.3125,1.7763672-2.2729492,2.9130859-3.3774414,3.7138672l-0.1279297-0.1601563
		c1.4726563-1.5693359,2.9130859-3.5693359,3.6333008-5.1865234l0.8964844,0.5126953
		c0.0800781,0.0478516,0.1123047,0.0800781,0.1123047,0.1113281c0,0.0322266-0.0483398,0.0488281-0.144043,0.0644531
		c-0.3203125,0.0322266-0.3525391,0.0957031-0.7363281,0.5917969h2.2246094l0.3041992-0.3994141L193.1630859,292.3987732z
		 M190.7944336,299.7132263c0.0800781,0.0488281,0.1279297,0.0966797,0.1279297,0.1279297
		c0,0.0166016-0.0478516,0.0322266-0.144043,0.0488281c-0.2402344,0.015625-0.4482422,0.0800781-0.8481445,0.3994141
		c-1.5849609,1.28125-2.5454102,1.9208984-3.777832,2.6572266l-0.0800781-0.2080078
		c1.6328125-1.2802734,2.8012695-2.4169922,3.7617188-3.6494141L190.7944336,299.7132263z M199.6459961,290.0940857
		c0.0961914,0.0800781,0.1601563,0.1279297,0.1601563,0.1591797c0,0.0322266-0.0639648,0.0488281-0.1762695,0.0644531
		c-0.5283203,0.0644531-0.9121094,0.3359375-1.6166992,1.2324219l-0.1918945-0.0957031l0.512207-1.0888672h-10.628418
		c0.0161133,0.9609375-0.2719727,1.96875-1.1044922,1.96875c-0.2241211,0-0.4799805-0.1279297-0.4799805-0.3681641
		c0-0.1435547,0.1118164-0.3037109,0.2719727-0.3837891c0.4321289-0.2080078,0.8325195-0.8964844,1.0405273-2.1289063
		l0.1918945,0.015625c0.0322266,0.1923828,0.0478516,0.3681641,0.0639648,0.5449219h10.4682617l0.4960938-0.6884766
		L199.6459961,290.0940857z M187.9931641,294.7034607c0.8481445,0.640625,1.0566406,0.9287109,1.0566406,1.2802734
		c0,0.4326172-0.2241211,0.640625-0.4165039,0.640625c-0.144043,0-0.3198242-0.1123047-0.3198242-0.2880859
		c0-0.3203125-0.1123047-1.1044922-0.4321289-1.5048828L187.9931641,294.7034607z M197.0366211,298.1448669
		c0.0644531,0.0644531,0.0961914,0.1123047,0.0961914,0.1279297c0,0.0322266-0.0478516,0.0478516-0.144043,0.0478516H193.53125
		v3.1855469c0,0.8164063-0.1279297,1.2324219-1.0400391,1.6484375c-0.0322266,0.0166016-0.0639648,0.0322266-0.0800781,0.0322266
		c-0.0483398,0-0.0800781-0.0322266-0.0961914-0.1123047c-0.0478516-0.4794922-0.3041992-0.8320313-1.8085938-1.2636719
		l0.0478516-0.2246094c0.9443359,0.1757813,1.4887695,0.2402344,1.8085938,0.2402344
		c0.4003906,0,0.4321289-0.1123047,0.4321289-0.3046875v-3.2011719h-2.3686523
		c-0.3203125,0-0.7841797,0.0644531-1.0244141,0.1601563l-0.4321289-0.5761719
		c0.3681641,0.0322266,0.7680664,0.0644531,1.1201172,0.0644531h5.4746094l0.5600586-0.7529297L197.0366211,298.1448669z
		 M189.1137695,293.278656c0.7041016,0.2568359,1.4726563,0.5761719,1.4726563,1.1523438
		c0,0.2724609-0.1923828,0.5283203-0.3681641,0.5283203c-0.0961914,0-0.2080078-0.0957031-0.2402344-0.1914063
		c-0.144043-0.5283203-0.4960938-0.9609375-0.9282227-1.3125L189.1137695,293.278656z M195.355957,296.2561951
		c0.0644531,0.0800781,0.1123047,0.1279297,0.1123047,0.1757813c0,0.0322266-0.0639648,0.0478516-0.1918945,0.0478516h-3.2495117
		c-0.3203125,0-0.6723633,0.0322266-0.9125977,0.1289063l-0.4321289-0.5449219
		c0.3681641,0.0478516,0.7685547,0.0644531,1.1206055,0.0644531h2.2729492l0.5444336-0.7207031L195.355957,296.2561951z
		 M191.5625,287.9329529c1.5366211,0.4638672,1.9047852,0.9121094,1.9047852,1.4404297
		c0,0.3203125-0.1757813,0.6083984-0.4160156,0.6083984c-0.2241211,0-0.3359375-0.1601563-0.4003906-0.4003906
		c-0.1279297-0.5117188-0.512207-1.0244141-1.1523438-1.4882813L191.5625,287.9329529z M200.590332,297.2806091
		c-0.8642578,0.0644531-1.1044922,0.2558594-1.3925781,0.7041016c-0.0161133,0.0322266-0.0478516,0.0478516-0.0800781,0.0478516
		s-0.0800781-0.015625-0.144043-0.0478516c-3.2651367-1.6162109-4.9458008-3.4736328-5.7944336-7.0263672l0.2080078-0.0478516
		c0.144043,0.4472656,0.3041992,0.8798828,0.4804688,1.2802734h3.0249023l0.4003906-0.5761719l0.9282227,0.7041016
		c0.0800781,0.0634766,0.128418,0.1123047,0.128418,0.1435547c0,0.0488281-0.0644531,0.0644531-0.1601563,0.0966797
		c-0.4804688,0.1113281-0.8486328,0.3359375-2.609375,2.2890625c1.2646484,1.2802734,2.9135742,2.0488281,5.0102539,2.2246094
		V297.2806091z M196.8608398,292.5423279h-2.8330078c0.3837891,0.8164063,0.8481445,1.5205078,1.3925781,2.1289063
		L196.8608398,292.5423279z M194.8598633,299.3138123c2.1611328,0.5273438,3.5214844,1.2636719,3.8417969,1.6962891
		c0.144043,0.1923828,0.2080078,0.4160156,0.2080078,0.6083984c0,0.2880859-0.1601563,0.5283203-0.3520508,0.5283203
		c-0.1923828,0-0.3041992-0.0478516-0.496582-0.2880859c-0.6401367-0.8007813-1.5361328-1.5205078-3.2651367-2.3535156
		L194.8598633,299.3138123z"/>
	<path id="XMLID_108_" d="M216.4140625,293.5188904c0.0639648,0.0644531,0.1123047,0.1279297,0.1123047,0.1601563
		c0,0.0478516-0.0639648,0.0644531-0.1923828,0.0644531h-6.3862305c-0.9926758,0.8320313-2.0009766,1.6162109-3.0253906,2.3525391
		h5.1699219l0.512207-0.7207031l0.9926758,0.7851563c0.0639648,0.0478516,0.0961914,0.0957031,0.0961914,0.1279297
		c0,0.0478516-0.0322266,0.0800781-0.1123047,0.1279297l-0.4482422,0.2724609v3.8408203
		c0,0.2880859,0.0639648,1.7607422,0.0639648,1.8408203c0,0.2246094-0.0639648,0.2880859-0.3999023,0.4326172
		c-0.1601563,0.0634766-0.2563477,0.0957031-0.3041992,0.0957031c-0.0961914,0-0.1123047-0.0800781-0.1123047-0.2080078v-1.1367188
		h-6.1782227v0.9287109c0,0.2236328-0.0478516,0.2880859-0.3041992,0.4003906
		c-0.144043,0.0634766-0.2558594,0.0957031-0.3359375,0.0957031c-0.1123047,0-0.144043-0.0957031-0.144043-0.3681641
		c0-0.3359375,0.0478516-2.0166016,0.0478516-2.1445313v-3.3613281c-1.2963867,0.8476563-2.5932617,1.6005859-3.8417969,2.1923828
		l-0.1279297-0.2236328c1.456543-0.8964844,2.769043-1.7607422,3.9697266-2.59375l-0.0478516-1.0244141l0.7202148,0.5283203
		c1.0561523-0.7675781,2.0004883-1.5205078,2.8491211-2.2402344h-6.1147461c-0.3359375,0-0.815918,0.0634766-1.0722656,0.1601563
		l-0.4482422-0.5771484c0.3842773,0.0488281,0.800293,0.0644531,1.168457,0.0644531h5.2182617v-2.5927734h-2.8813477
		c-0.3198242,0-0.7841797,0.0634766-1.0244141,0.1601563l-0.4321289-0.5761719
		c0.3681641,0.0478516,0.7685547,0.0634766,1.1206055,0.0634766h3.2172852v-0.9765625
		c0-0.6240234-0.0161133-1.0078125-0.0478516-1.5683594l1.0722656,0.4482422
		c0.0961914,0.0322266,0.144043,0.0800781,0.144043,0.1279297c0,0.0322266-0.0322266,0.0644531-0.0800781,0.1123047
		l-0.3520508,0.3037109v1.5527344h1.5205078l0.5600586-0.8164063l0.9125977,0.9921875
		c0.0478516,0.0488281,0.0639648,0.0800781,0.0639648,0.1123047c0,0.0478516-0.0317383,0.0644531-0.1118164,0.0644531h-2.9453125
		v2.5927734h0.9282227c1.8085938-1.5683594,3.1855469-3.0410156,4.2416992-4.4335938l0.9287109,0.671875
		c0.0639648,0.0478516,0.0957031,0.0800781,0.0957031,0.1123047s-0.0317383,0.0478516-0.1118164,0.0800781
		c-0.4804688,0.1279297-0.5444336,0.1601563-0.7363281,0.3525391c-1.0883789,1.1035156-2.2568359,2.1923828-3.4575195,3.2167969
		h4.3217773l0.7202148-0.9599609L216.4140625,293.5188904z M212.3803711,298.5774841v-2.1289063h-5.9541016
		c-0.0800781,0.0634766-0.144043,0.1113281-0.2241211,0.1601563v1.96875H212.3803711z M212.3803711,301.2024841v-2.2734375
		h-6.1782227v2.2734375H212.3803711z"/>
	<path id="XMLID_112_" d="M223.690918,292.7825623c0.0639648,0.0478516,0.0957031,0.0800781,0.0957031,0.1123047
		s-0.0478516,0.0644531-0.1601563,0.0800781c-0.3037109,0.0478516-0.4960938,0.2880859-0.65625,0.7363281
		c-1.168457,3.4414063-2.9130859,6.0664063-5.3300781,7.9707031l-0.144043-0.1757813
		c2.5292969-2.609375,3.9375-5.234375,4.7700195-8.4677734h-3.0732422c-0.3359375,0-0.800293,0.0644531-1.0722656,0.1767578
		l-0.4482422-0.5927734c0.3999023,0.0322266,0.800293,0.0644531,1.168457,0.0644531h3.3452148l0.4804688-0.7207031
		L223.690918,292.7825623z M232.4462891,300.6097107c-0.1918945-0.015625-0.3842773-0.0322266-0.5444336-0.0322266
		c-0.5922852,0-0.9604492,0.1601563-1.168457,0.4482422c-0.0478516,0.0644531-0.0800781,0.0966797-0.1279297,0.0966797
		c-0.0317383,0-0.0800781-0.0166016-0.1279297-0.0644531c-2.8330078-2.609375-4.1777344-4.9775391-5.2182617-10.0361328v10.1005859
		c0,1.2480469-0.1757813,1.6328125-1.168457,1.9365234c-0.0317383,0.015625-0.0639648,0.015625-0.0800781,0.015625
		c-0.0639648,0-0.0800781-0.03125-0.0961914-0.0957031c-0.0478516-0.4638672-0.3520508-0.7685547-2.0327148-1.1845703
		l0.0322266-0.2724609c1.0405273,0.2089844,1.6645508,0.3203125,2.0327148,0.3203125
		c0.5444336,0,0.5600586-0.2236328,0.5600586-0.7041016v-10.7880859c0-0.65625-0.0317383-1.7451172-0.0639648-2.3369141
		l1.3125,0.65625c0.0639648,0.0322266,0.0800781,0.0634766,0.0800781,0.0800781
		c0,0.0322266-0.0161133,0.0634766-0.0800781,0.0957031l-0.4960938,0.3203125v0.7998047
		c0.3520508,1.4091797,0.8325195,3.0253906,1.4086914,4.4179688c0.8642578-0.7841797,2.1767578-2.2890625,3.137207-3.5214844
		l0.9765625,0.8964844c0.0957031,0.0800781,0.1279297,0.1279297,0.1279297,0.1757813
		c0,0.0322266-0.0322266,0.0322266-0.2880859,0.0322266c-0.3041992,0-0.4804688,0.0644531-0.7524414,0.2724609l-3.0732422,2.4326172
		c1.6489258,3.7939453,3.5693359,5.2666016,5.6503906,5.6826172V300.6097107z"/>
	<path id="XMLID_115_" d="M248.3022461,295.5677185c0.1123047,0.1123047,0.1757813,0.2080078,0.1757813,0.2558594
		c0,0.0644531-0.0800781,0.0966797-0.2236328,0.0966797h-6.7392578v3.1054688c0,1.2158203,0.0166016,2.4003906,0.0644531,3.1210938
		v0.1279297c0,0.2080078-0.0644531,0.2714844-0.4003906,0.4160156c-0.1601563,0.0644531-0.2558594,0.1123047-0.3359375,0.1123047
		c-0.1123047,0-0.1445313-0.1123047-0.1445313-0.3525391v-0.1757813c0.0322266-0.9443359,0.0488281-2.3691406,0.0488281-3.28125
		v-3.0732422h-5.7626953c-0.3364258,0-0.800293,0.0634766-1.0722656,0.1757813l-0.4482422-0.5917969
		c0.3999023,0.03125,0.800293,0.0634766,1.168457,0.0634766h6.1147461v-6.0498047h-4.5141602
		c-0.3364258,0-0.800293,0.0634766-1.0727539,0.1757813l-0.4477539-0.5927734
		c0.3999023,0.0322266,0.800293,0.0644531,1.168457,0.0644531h9.5078125l0.7685547-0.9121094l0.7998047,0.9121094
		c0.1123047,0.1279297,0.1601563,0.2080078,0.1601563,0.2558594c0,0.0644531-0.0800781,0.0966797-0.2724609,0.0966797h-5.3300781
		v6.0498047h5.1699219l0.7207031-0.9765625L248.3022461,295.5677185z M236.2011719,290.638031
		c1.5688477,1.0878906,2.6733398,2.1611328,2.6733398,2.8652344c0,0.6240234-0.3681641,0.8798828-0.6240234,0.8798828
		c-0.2246094,0-0.2724609-0.1279297-0.3847656-0.7041016c-0.1601563-0.8164063-0.7685547-1.8408203-1.7763672-2.8652344
		L236.2011719,290.638031z M245.980957,291.0218201c0.0966797,0.0644531,0.1445313,0.1123047,0.1445313,0.1601563
		c0,0.0644531-0.0800781,0.1123047-0.2402344,0.1923828c-0.4326172,0.2080078-0.7841797,0.5439453-3.0087891,3.3935547
		l-0.2246094-0.1601563c0.8642578-1.28125,1.96875-3.1855469,2.4492188-4.2099609L245.980957,291.0218201z"/>
	<path id="XMLID_119_" d="M264.2861328,289.325531c0.1123047,0.1123047,0.1757813,0.1757813,0.1757813,0.2236328
		c0,0.0644531-0.0957031,0.0800781-0.2714844,0.0800781h-6.9477539c-0.5117188,0.9130859-0.9921875,1.7451172-1.4560547,2.5771484
		h5.8095703l0.4970703-0.7998047l1.1040039,0.7363281c0.0966797,0.0478516,0.1289063,0.0957031,0.1289063,0.1435547
		c0,0.0322266-0.0322266,0.0800781-0.1289063,0.1601563l-0.496582,0.4160156v6.4511719
		c0,1.2158203,0.0166016,1.8720703,0.0800781,2.5927734v0.0957031c0,0.3359375-0.7197266,0.6083984-0.7363281,0.6083984
		c-0.0800781,0-0.0957031-0.0957031-0.0957031-0.2724609v-1.2480469h-9.9404297v0.9443359
		c0,0.1923828-0.03125,0.2402344-0.3515625,0.4003906c-0.1757813,0.0800781-0.2880859,0.1279297-0.3681641,0.1279297
		c-0.0957031,0-0.1279297-0.0644531-0.1279297-0.2558594c0-0.0644531,0-0.1601563,0.015625-0.2724609
		c0.0644531-0.7841797,0.0800781-1.7285156,0.0800781-2.9931641v-5.2978516c0-0.9287109-0.015625-1.8730469-0.0478516-2.3691406
		l1.0244141,0.8320313h3.2167969c0.3681641-0.8798828,0.6728516-1.8564453,0.7851563-2.5771484h-5.2021484
		c-0.3369141,0-0.8007813,0.0644531-1.0732422,0.1767578l-0.4482422-0.5771484
		c0.4003906,0.0322266,0.8007813,0.0644531,1.1689453,0.0644531h11.9404297l0.6254883-0.9443359L264.2861328,289.325531z
		 M254.5053711,300.7376404v-8.1787109h-2.4970703v8.1787109H254.5053711z M258.5551758,294.9593201v-2.4003906h-3.3134766
		v2.4003906H258.5551758z M258.5551758,297.6966248v-2.3847656h-3.3134766v2.3847656H258.5551758z M258.5551758,300.7376404
		v-2.6884766h-3.3134766v2.6884766H258.5551758z M261.9487305,300.7376404v-8.1787109h-2.6572266v8.1787109H261.9487305z"/>
</g>
<path id="XMLID_34_" class="st2" d="M101.8224335,76.6025925c30.6083069-34.7542648,121.8822784-4.3954926,203.8661346,67.8082047
	c7.3557129,6.478241,14.3867493,13.0732269,21.0700073,19.736969"/>
<path id="XMLID_19_" class="st3" d="M286.7276917,255.0942078c-16.0667725-9.4263306-32.3136597-20.6997223-48.183136-33.6765747
	c-4.8968811-4.0043182-9.6419373-8.0760498-14.2277679-12.1999969
	C155.5292664,147.3584137,122.5668106,73.7520065,150.3623505,39.760704"/>
<path id="XMLID_1_" class="st3" d="M82.8820038,233.5759735c-19.4281769-31.8702698-28.0127525-61.3316498-22.7085686-82.0047607"/>
<path id="XMLID_3_" class="st3" d="M175.853302,252.3054352C106.7114487,184.193161,73.8180008,108.380249,101.9462967,76.4419174"
	/>
<path id="XMLID_32_" class="st3" d="M150.3623505,39.760704c4.2457733-5.1921921,9.6789703-9.1784935,16.1025238-12.0096455"/>
<path id="XMLID_24_" class="st3" d="M212.5919037,22.0318222c6.6766357-7.9165421,16.9680786-12.066638,29.6982727-12.7829647"/>
<path id="XMLID_36_" class="st3" d="M446.3832092,180.0653687c1.803009,13.3058472-0.4684143,24.6889954-7.4042664,32.9128876"/>
<g id="XMLID_13_">
	<g id="XMLID_169_">
		<g id="XMLID_170_">
			<polygon id="XMLID_171_" class="st5" points="401.312439,27.6777859 403.3201599,29.3524227 408.6688538,17.7984676 
				398.257843,25.1299343 400.2657166,26.8047085 249.3517151,207.7354279 250.3984375,208.6085052 			"/>
		</g>
	</g>
</g>
<path id="XMLID_41_" class="st3" d="M354.6528015,84.1273499c-14.1996765-11.3056793-21.4375-25.8379211-16.1661072-32.4586792"/>
<path id="XMLID_70_" class="st3" d="M389.9082947,92.6101532c-5.2713928,6.6207504-21.0558167,2.822876-35.2554932-8.4828033"/>
<ellipse id="XMLID_71_" transform="matrix(0.7642555 0.6449136 -0.6449136 0.7642555 139.8542633 -204.860321)" class="st3" cx="350.1398315" cy="88.8657455" rx="98.9123917" ry="42.377533"/>
<path id="XMLID_38_" class="st3" d="M438.9789429,212.9782562c-23.8589172,28.2896729-93.8780518,8.4824982-156.3921509-44.2405701
	S188.7364655,50.3408241,212.5953827,22.0511475"/>
<circle id="XMLID_42_" cx="364.625" cy="70.6158142" r="2"/>
<g id="XMLID_179_">
	<path id="XMLID_78_" class="st5" d="M419.1357422,36.6072578l-4.3691406,2.1450195
		c-0.3369141,0.1601563-0.7529297,0.5283203-0.8808594,0.7363281c-0.0322266,0.0639648-0.0800781,0.1118164-0.1279297,0.1118164
		s-0.0957031-0.0478516-0.1601563-0.1118164l-0.65625-0.7363281l2.7373047-1.0566406v-5.5541992h-1.1845703
		c-0.3037109,0-0.7363281,0.0639648-0.9765625,0.1601563l-0.4003906-0.5600567
		c0.3525391,0.0317383,0.7207031,0.0639648,1.0566406,0.0639648h1.5048828v-2.8012695
		c0-0.6240234-0.0322266-1.6484375-0.0644531-2.2089844l1.2011719,0.5605469
		c0.1113281,0.0478516,0.1757813,0.0957031,0.1757813,0.159668s-0.0478516,0.1123047-0.5605469,0.4321289v3.8579102h1.1210938
		l0.5595703-0.7524414l0.7363281,0.7524414c0.0966797,0.0957031,0.1601563,0.1757813,0.1601563,0.2397442
		c0,0.0644531-0.0800781,0.0961914-0.2236328,0.0961914h-2.3535156v5.2661133l2.59375-1.0083008L419.1357422,36.6072578z
		 M427.2675781,36.8152657c0.03125,1.7446289,0.0800781,2.0170898,0.5117188,2.4008789
		c0.0800781,0.0644531,0.1123047,0.1123047,0.1123047,0.1762695c0,0.0478516-0.015625,0.0961914-0.0478516,0.1601563
		c-0.4648438,1.1044922-0.7529297,1.2485352-4.4658203,1.2485352c-3.8574219,0-4.0498047-0.144043-4.0498047-2.0009766v-5.3779297
		c-0.4003906,0.159668-1.0888672,0.4477539-1.4570313,0.815918l-0.6875-0.3681641
		c0.3515625-0.0795898,0.7675781-0.2558594,1.0722656-0.3837891l1.0722656-0.4482422v-2.6249981
		c0-0.4482422-0.015625-1.2646484-0.0478516-1.9047852l1.1523438,0.5439453
		c0.0957031,0.0483398,0.1435547,0.0961914,0.1435547,0.1601563c0,0.0800781-0.0478516,0.1123047-0.4960938,0.4321289v3.0732403
		l2.1767578-0.9121075v-3.5375977c0-0.6401367-0.015625-1.3764648-0.03125-1.9365234l1.1523438,0.5917969
		c0.0800781,0.0483398,0.1279297,0.0800781,0.1279297,0.128418c0,0.0478516-0.0478516,0.0957031-0.1123047,0.144043
		l-0.4160156,0.2719727v4.0336914l2.4013672-1.0083008l0.3037109-0.784668l1.1523438,0.640625
		c0.0644531,0.0317383,0.0957031,0.0800781,0.0957031,0.144043c0,0.0478516-0.03125,0.0957031-0.0957031,0.144043
		l-0.5283203,0.3520508c-0.0322266,1.3124981-0.1914063,3.6015606-0.3203125,4.7216778
		c-0.1113281,0.9765625-0.3515625,1.3125-1.0722656,1.6806641c-0.0478516,0.0322266-0.0800781,0.0322266-0.1113281,0.0322266
		c-0.0644531,0-0.1123047-0.0478516-0.1289063-0.1279297c-0.1279297-0.4643555-0.3193359-0.5605469-1.4726563-0.8964844
		L423.25,36.1429024c0.5439453,0.0961914,0.9443359,0.1601563,1.2324219,0.1601563
		c0.6240234,0,0.7519531-0.2880859,0.8642578-1.0561523c0.1435547-0.9765625,0.2714844-3.4096661,0.2714844-4.4658184
		l-2.640625,1.1044922v3.5371075c0,0.3041992,0.0322266,1.824707,0.0322266,2.1772461
		c0,0.2880859-0.0644531,0.3676758-0.3847656,0.5600586c-0.1113281,0.0639648-0.1914063,0.1118164-0.2558594,0.1118164
		c-0.0957031,0-0.1435547-0.1118164-0.1435547-0.3837891c0-0.3525391,0.03125-2.0810547,0.03125-2.480957v-3.2177734
		l-2.1767578,0.9125977v5.7304688c0,1.2324219,0,1.2963867,3.3613281,1.2963867c0.9931641,0,1.9375-0.0322266,2.4648438-0.0961914
		c0.8808594-0.1118164,0.9453125-0.2080078,1.1044922-3.2172852H427.2675781z"/>
	<path id="XMLID_81_" class="st5" d="M435.1357422,35.887043l-2.2402344,0.6240234v1.2485352
		c0,0.9765625,0.015625,1.7768555,0.0478516,2.4970703v0.1279297c0,0.2084961-0.0478516,0.2724609-0.3359375,0.4165039
		c-0.1767578,0.0957031-0.2880859,0.144043-0.3681641,0.144043c-0.0966797,0-0.1289063-0.0800781-0.1289063-0.2719727
		c0-0.0961914,0-0.1923828,0.0166016-0.3203125c0.0634766-0.9125977,0.0800781-1.7128906,0.0800781-2.625V36.687336
		c-1.7285156,0.4799805-2.3847656,0.7841797-2.4970703,0.9282227c-0.0478516,0.0639648-0.0800781,0.0961914-0.1123047,0.0961914
		s-0.0634766-0.0322266-0.0957031-0.0961914l-0.4326172-0.8481445l3.1376953-0.5761719v-2.4970703h-1.6972656
		c-0.1601563,0.144043-0.4482422,0.4160156-0.4960938,0.4160156c-0.0322266,0-0.0634766-0.0317383-0.0957031-0.0639648
		l-0.7841797-0.7363281c0.5283203-0.2241211,0.6083984-0.3041992,0.8798828-0.9921875
		c0.2246094-0.6083965,0.6083984-1.744627,0.9921875-2.9453106c-0.5761719,0-1.0878906,0-1.5205078,0.1762695l-0.4482422-0.5922852
		c0.4003906,0.0317383,0.8007813,0.0639648,1.1689453,0.0639648h0.8964844
		c0.3203125-1.0244141,0.6396484-2.0649414,0.8486328-2.8491211l1.0078125,0.5922852
		c0.0800781,0.0478516,0.1123047,0.0639648,0.1123047,0.0957031c0,0.0322266-0.0322266,0.0639648-0.1123047,0.0961914
		l-0.5117188,0.2402344l-0.640625,1.824707h1.8408203l0.6240234-0.8164063l0.7363281,0.8481445
		c0.0957031,0.128418,0.1601563,0.2084961,0.1601563,0.2563477s-0.0800781,0.0639648-0.2236328,0.0639648h-3.25
		l-1.3759766,3.9697247h1.8886719v-0.640625c0-0.65625-0.0166016-1.7124004-0.0478516-2.3046856l1.0078125,0.5600586
		c0.0966797,0.0483398,0.1445313,0.0800781,0.1445313,0.1123047c0,0.0317383-0.0478516,0.0800781-0.4160156,0.3681641v1.9047832
		h0.5761719l0.65625-0.7363281l0.65625,0.7363281c0.1113281,0.1279297,0.1757813,0.2241211,0.1757813,0.2719727
		c0,0.0639648-0.0800781,0.0800781-0.2402344,0.0800781h-1.8242188v2.3691406l2.2080078-0.4165039L435.1357422,35.887043z
		 M442.9951172,29.8846035c0.0800781,0.0639648,0.1279297,0.1118164,0.1279297,0.1601563
		c0,0.0478516-0.0478516,0.0957031-0.1435547,0.1757813l-0.3847656,0.3041992v5.8906231
		c0,1.2163086,0.0322266,2.7851563,0.0644531,3.5053711v0.0639648c0,0.1918945-0.0644531,0.2402344-0.3847656,0.4321289
		c-0.1591797,0.0961914-0.2558594,0.144043-0.3193359,0.144043c-0.0966797,0-0.1123047-0.0961914-0.1123047-0.3203125v-1.184082
		h-5.4746094v1.1523438c0,0.1757813-0.03125,0.2241211-0.3193359,0.3681641
		c-0.1601563,0.0800781-0.2724609,0.1279297-0.3369141,0.1279297c-0.0957031,0-0.1113281-0.0800781-0.1113281-0.2719727
		c0-0.4482422,0.0634766-2.6411133,0.0634766-3.137207V30.717123c0-0.7207031-0.015625-1.296875-0.0478516-1.7451172
		l1.0400391,0.8964844h2.0488281v-1.3603516c0-1.0405273-0.015625-1.809082-0.0478516-2.4008789l1.1367188,0.6079102
		c0.1123047,0.0639648,0.1757813,0.0961914,0.1757813,0.144043c0,0.0483398-0.0322266,0.0639648-0.5283203,0.3364258v2.6728516
		h2.1611328l0.4326172-0.7041016L442.9951172,29.8846035z M438.7050781,34.2542305V30.220541h-2.3369141v4.0336895H438.7050781z
		 M438.7050781,38.7039375v-4.0976563h-2.3369141v4.0976563H438.7050781z M441.8427734,34.2542305V30.220541h-2.4013672v4.0336895
		H441.8427734z M441.8427734,38.7039375v-4.0976563h-2.4013672v4.0976563H441.8427734z"/>
	<path id="XMLID_88_" class="st5" d="M451.2001953,26.8753262c0.0957031,0.0478516,0.1435547,0.1123047,0.1435547,0.1601563
		s-0.0478516,0.1118164-0.1279297,0.1601563l-0.4003906,0.2397461v9.459959c0,1.2167969,0.0166016,2.4169922,0.0644531,3.137207
		v0.0639648c0,0.2084961-0.0800781,0.2880859-0.4003906,0.4804688c-0.1757813,0.1118164-0.2714844,0.1601563-0.3359375,0.1601563
		c-0.0800781,0-0.0957031-0.0800781-0.0957031-0.2241211v-3.5537109l-2.7373047,1.0405273
		c-0.7207031,0.2563477-1.1689453,0.5761719-1.4082031,0.8164063c-0.0322266,0.0317383-0.0800781,0.0639648-0.1123047,0.0639648
		s-0.0644531-0.0322266-0.1123047-0.0639648l-0.6884766-0.7685547l5.0585938-1.4404297v-4.881834h-3.0253906
		c-0.3359375,0-0.8007813,0.0639648-1.0722656,0.1757813l-0.4482422-0.5917969
		c0.4003906,0.0317383,0.7998047,0.0639648,1.1679688,0.0639648h3.3779297v-2.8491211
		c0-0.65625-0.0322266-1.7451172-0.0644531-2.3369141L451.2001953,26.8753262z M458.9306641,36.3513985
		c0.0644531,1.8886719,0.2568359,2.2246094,0.6728516,2.3686523c0.0478516,0.0161133,0.0800781,0.0483398,0.0800781,0.0961914
		c0,0.0317383-0.0166016,0.0639648-0.0322266,0.1118164c-0.5117188,1.168457-1.0244141,1.168457-3.3769531,1.168457
		c-2.4814453,0-2.7695313,0-2.7695313-1.472168V28.0598965c0-0.7202148-0.015625-1.2646484-0.0478516-1.9047852L454.625,26.795248
		c0.1123047,0.0639648,0.1601563,0.1123047,0.1601563,0.1762695c0,0.0478516-0.03125,0.1118164-0.1113281,0.1601563
		l-0.4003906,0.2719727v5.0097637c1.4082031-0.8959942,3.0410156-2.256834,3.8251953-3.2490215l0.9609375,0.7202148
		c0.0800781,0.0639648,0.1113281,0.1118164,0.1113281,0.1279297c0,0.0322266-0.03125,0.0483398-0.1279297,0.0639648
		c-0.3837891,0.0322266-0.8798828,0.2241211-1.328125,0.5605469c-0.8486328,0.6401367-2.3535156,1.600584-3.4414063,2.1928692
		v5.9223633c0,0.5439453,0,0.6723633,2.2724609,0.6723633c0.4804688,0,0.8964844-0.0161133,1.1689453-0.0483398
		c0.7519531-0.0800781,0.8798828-0.1601563,0.9443359-3.0249023H458.9306641z"/>
</g>
<path id="XMLID_181_" class="st6" d="M265.4494629,189.4996948C271,194.2991333,275.5,202.0833282,275.5,209.0419922"/>
<g id="XMLID_180_">
	<path id="XMLID_21_" class="st7" d="M263.3779297,215.6868439c0.0644531,0.0639648,0.0957031,0.1118164,0.0957031,0.1601563
		c0,0.0478516-0.0478516,0.0795898-0.1435547,0.1118164c-0.3686523,0.1118164-0.4643555,0.2880859-0.5444336,0.7524414
		c-0.2719727,1.5527344-0.6245117,2.9609375-1.1206055,4.2412109c0.4643555,0.5761719,1.1367188,1.5214844,1.4726563,2.0175781
		c0.2568359,0.3837891,0.3525391,0.7363281,0.3525391,1.0234375c0,0.3847656-0.1757813,0.640625-0.4160156,0.640625
		c-0.2885742,0-0.3686523-0.0644531-0.7207031-1.1201172c-0.1601563-0.4804688-0.4321289-1.0087891-0.9926758-1.8251953
		c-0.8642578,1.953125-2.0644531,3.6337891-3.8095703,5.1386719l-0.159668-0.1289063
		c1.3925781-1.6162109,2.640625-3.4082031,3.5053711-5.6503906c-0.784668-1.0722656-1.5527344-1.96875-2.4331055-2.9121094
		l0.1601563-0.1757813c0.9604492,0.7998047,1.6645508,1.4560547,2.5288086,2.4003906
		c0.4321289-1.3125,0.7524414-2.8007813,0.8803711-4.4819336l-2.8168945,0.0961914
		c-0.4643555,0.0161133-0.7207031,0.0800781-0.9765625,0.1757813l-0.4160156-0.5600586
		c0.3999023,0.0478516,0.7841797,0.0639648,1.168457,0.0478516l2.8969727-0.0795898l0.5600586-0.7685547L263.3779297,215.6868439z
		 M268.1484375,216.8069611c0.0957031,0.0478516,0.1435547,0.0800781,0.1435547,0.1279297
		c0,0.0322266-0.0478516,0.0644531-0.1123047,0.1289063l-0.3681641,0.3203125
		c-0.0800781,1.6640625-0.2880859,3.9208984-0.671875,5.2333984c-0.5761719,1.9365234-1.8730469,4.0810547-5.2822266,5.7304688
		l-0.1601563-0.1923828c3.1376953-2,4.3378906-3.7451172,5.0097656-6.4980469
		c0.1923828-0.8164063,0.3046875-2.7373047,0.3046875-4.4023438c0-0.3681641,0-0.7363281-0.0166016-1.0722656
		L268.1484375,216.8069611z M271.125,214.9021759c0.0478516,0.0322266,0.0644531,0.0800781,0.0644531,0.1123047
		c0,0.0317383-0.0166016,0.0639648-0.0800781,0.0961914l-0.5927734,0.3198242v4.1293945
		c0,1.2167969,0.0166016,1.8886719,0.0644531,2.609375v0.0957031c0,0.2089844-0.0644531,0.2724609-0.3837891,0.4003906
		c-0.1601563,0.0644531-0.2568359,0.0957031-0.3369141,0.0957031c-0.0957031,0-0.1279297-0.0800781-0.1279297-0.2402344v-0.1914063
		c0.0322266-0.5761719,0.0322266-1.0410156,0.0322266-1.953125v-5.265625h-4.59375v5.6503906
		c0,0.2080078,0.0322266,1.2167969,0.0322266,1.4560547c0,0.1601563-0.0644531,0.2236328-0.4160156,0.4169922
		c-0.1123047,0.0634766-0.1923828,0.0957031-0.2568359,0.0957031c-0.0957031,0-0.1279297-0.0957031-0.1279297-0.3046875v-0.1757813
		c0.0322266-0.5605469,0.0478516-1.2167969,0.0478516-1.7929688v-4.3535156c0-0.5922852-0.015625-1.5683594-0.0478516-2.112793
		l0.9443359,0.7680664h4.1777344l0.4804688-0.7202148L271.125,214.9021759z M271.7490234,223.7698517
		c-0.015625,0.3037109-0.015625,0.5605469-0.015625,0.7841797c0,1.1044922,0.1279297,1.3447266,0.4804688,1.5371094
		c0.0634766,0.03125,0.1113281,0.0800781,0.1113281,0.1601563c0,0.03125,0,0.0634766-0.015625,0.0957031
		c-0.3037109,0.8808594-0.8486328,1.1845703-2.2890625,1.1845703c-2.3847656,0-2.4648438-0.0966797-2.4648438-1.4404297v-3.7773438
		c0-0.5126953-0.015625-0.8486328-0.0478516-1.1523438l1.1367188,0.5439453
		c0.0634766,0.0322266,0.0957031,0.0478516,0.0957031,0.0957031c0,0.0322266-0.0322266,0.0634766-0.0957031,0.1123047
		l-0.3681641,0.2714844v3.6337891c0,1.0244141,0.0800781,1.0566406,1.7441406,1.0566406
		c1.1689453,0,1.296875-0.0800781,1.4892578-3.1054688H271.7490234z"/>
	<path id="XMLID_27_" class="st7" d="M281.0107422,217.8157501c0.0644531,0.0478516,0.0957031,0.0800781,0.0957031,0.1113281
		c0,0.0488281-0.0634766,0.0966797-0.1914063,0.1445313c-0.2402344,0.0957031-0.4169922,0.2246094-0.625,0.5917969
		c-1.3925781,2.5292969-3.5693359,4.8984375-6.8662109,6.0996094l-0.0644531-0.2089844
		c3.1533203-1.5361328,5.3300781-3.96875,6.4511719-6.6103516h-2.5136719
		c-1.3125,1.7763672-2.2724609,2.9130859-3.3769531,3.7138672l-0.1279297-0.1601563
		c1.4726563-1.5683594,2.9130859-3.5703125,3.6328125-5.1865234l0.8964844,0.5126953
		c0.0800781,0.0478516,0.1123047,0.0800781,0.1123047,0.1113281c0,0.0322266-0.0478516,0.0488281-0.1435547,0.0644531
		c-0.3203125,0.03125-0.3525391,0.0957031-0.7363281,0.5917969h2.2246094l0.3037109-0.4003906L281.0107422,217.8157501z
		 M278.6416016,225.1302032c0.0800781,0.0488281,0.1279297,0.0957031,0.1279297,0.1289063
		c0,0.015625-0.0478516,0.03125-0.1435547,0.046875c-0.2402344,0.0166016-0.4482422,0.0800781-0.8486328,0.4003906
		c-1.5849609,1.28125-2.5449219,1.921875-3.7773438,2.6572266l-0.0800781-0.2080078
		c1.6328125-1.2802734,2.8007813-2.4169922,3.7617188-3.6494141L278.6416016,225.1302032z M287.4931641,215.5105743
		c0.0966797,0.0800781,0.1601563,0.1279297,0.1601563,0.1601563s-0.0634766,0.0478516-0.1757813,0.0639648
		c-0.5283203,0.0639648-0.9121094,0.3359375-1.6171875,1.2324219l-0.1914063-0.0957031l0.5117188-1.0888672h-10.6279297
		c0.015625,0.9609375-0.2724609,1.96875-1.1044922,1.96875c-0.2246094,0-0.4804688-0.1279297-0.4804688-0.3671875
		c0-0.1445313,0.1123047-0.3046875,0.2724609-0.3847656c0.4316406-0.2080078,0.8320313-0.8964844,1.0400391-2.1289063
		l0.1923828,0.0161133c0.0322266,0.1918945,0.0478516,0.3681641,0.0634766,0.5439453h10.46875l0.4960938-0.6879883
		L287.4931641,215.5105743z M275.8408203,220.1204376c0.8486328,0.640625,1.0566406,0.9277344,1.0566406,1.28125
		c0,0.4316406-0.2246094,0.6396484-0.4169922,0.6396484c-0.1435547,0-0.3193359-0.1123047-0.3193359-0.2880859
		c0-0.3203125-0.1123047-1.1044922-0.4326172-1.5048828L275.8408203,220.1204376z M284.8847656,223.5618439
		c0.0634766,0.0644531,0.0957031,0.1123047,0.0957031,0.1279297c0,0.0322266-0.0478516,0.0478516-0.1445313,0.0478516h-3.4570313
		v3.1855469c0,0.8164063-0.1279297,1.2324219-1.0400391,1.6484375c-0.0322266,0.015625-0.0644531,0.0322266-0.0800781,0.0322266
		c-0.0488281,0-0.0800781-0.0322266-0.0966797-0.1123047c-0.0478516-0.4804688-0.3037109-0.8320313-1.8085938-1.2636719
		l0.0478516-0.2246094c0.9443359,0.1757813,1.4892578,0.2402344,1.8085938,0.2402344
		c0.4003906,0,0.4326172-0.1123047,0.4326172-0.3046875v-3.2011719h-2.3691406
		c-0.3203125,0-0.7841797,0.0644531-1.0244141,0.1601563l-0.4316406-0.5761719
		c0.3681641,0.0322266,0.7675781,0.0644531,1.1201172,0.0644531h5.4746094l0.5595703-0.7519531L284.8847656,223.5618439z
		 M276.9609375,218.6966095c0.7041016,0.2558594,1.4726563,0.5761719,1.4726563,1.1523438
		c0,0.2714844-0.1923828,0.5273438-0.3681641,0.5273438c-0.0957031,0-0.2080078-0.0957031-0.2402344-0.1914063
		c-0.1435547-0.5283203-0.4960938-0.9609375-0.9277344-1.3125L276.9609375,218.6966095z M283.203125,221.673172
		c0.0644531,0.0800781,0.1123047,0.1279297,0.1123047,0.1757813c0,0.0322266-0.0634766,0.0488281-0.1914063,0.0488281h-3.25
		c-0.3203125,0-0.671875,0.03125-0.9121094,0.1269531l-0.4326172-0.5429688
		c0.3681641,0.046875,0.7685547,0.0634766,1.1210938,0.0634766h2.2724609l0.5449219-0.7197266L283.203125,221.673172z
		 M279.4101563,213.3499298c1.5361328,0.4638672,1.9042969,0.9121094,1.9042969,1.4404297
		c0,0.3203125-0.1757813,0.6083984-0.4160156,0.6083984c-0.2236328,0-0.3359375-0.1601563-0.4003906-0.4003906
		c-0.1279297-0.512207-0.5117188-1.0244141-1.1523438-1.4882813L279.4101563,213.3499298z M288.4375,222.6975861
		c-0.8642578,0.0634766-1.1044922,0.2558594-1.3925781,0.7041016c-0.015625,0.0322266-0.0478516,0.0488281-0.0800781,0.0488281
		c-0.03125,0-0.0800781-0.0166016-0.1435547-0.0488281c-3.265625-1.6171875-4.9462891-3.4726563-5.7949219-7.0273438
		l0.2080078-0.0473633c0.1445313,0.4477539,0.3046875,0.8803711,0.4804688,1.2807617h3.0253906l0.4003906-0.5771484
		l0.9277344,0.7050781c0.0800781,0.0644531,0.1289063,0.1113281,0.1289063,0.1445313
		c0,0.046875-0.0644531,0.0634766-0.1601563,0.0957031c-0.4804688,0.1113281-0.8486328,0.3359375-2.609375,2.2890625
		c1.2646484,1.2802734,2.9130859,2.0488281,5.0097656,2.2246094V222.6975861z M284.7080078,217.9602814H281.875
		c0.3837891,0.8164063,0.8486328,1.5195313,1.3925781,2.1289063L284.7080078,217.9602814z M282.7070313,224.7298126
		c2.1611328,0.5292969,3.5214844,1.265625,3.8417969,1.6972656c0.1445313,0.1914063,0.2080078,0.4160156,0.2080078,0.6083984
		c0,0.2880859-0.1601563,0.5283203-0.3515625,0.5283203c-0.1923828,0-0.3046875-0.0488281-0.4960938-0.2890625
		c-0.640625-0.7998047-1.5371094-1.5195313-3.265625-2.3515625L282.7070313,224.7298126z"/>
	<path id="XMLID_58_" class="st7" d="M304.2617188,218.9358673c0.0634766,0.0634766,0.1123047,0.1279297,0.1123047,0.1601563
		c0,0.0478516-0.0644531,0.0634766-0.1923828,0.0634766h-6.3867188c-0.9921875,0.8330078-2.0009766,1.6171875-3.0253906,2.3535156
		h5.1699219l0.5126953-0.7207031l0.9921875,0.7851563c0.0644531,0.0478516,0.0966797,0.0957031,0.0966797,0.1279297
		c0,0.0478516-0.0322266,0.0791016-0.1123047,0.1279297l-0.4482422,0.2714844v3.8417969
		c0,0.2890625,0.0634766,1.7607422,0.0634766,1.8408203c0,0.2236328-0.0634766,0.2880859-0.3994141,0.4326172
		c-0.1601563,0.0644531-0.2568359,0.0957031-0.3046875,0.0957031c-0.0957031,0-0.1123047-0.0800781-0.1123047-0.2080078v-1.1357422
		h-6.1777344v0.9277344c0,0.2246094-0.0478516,0.2880859-0.3046875,0.4003906
		c-0.1435547,0.0634766-0.2558594,0.0957031-0.3359375,0.0957031c-0.1123047,0-0.1435547-0.0957031-0.1435547-0.3681641
		c0-0.3359375,0.0478516-2.0166016,0.0478516-2.1455078v-3.3613281c-1.296875,0.8496094-2.59375,1.6015625-3.8417969,2.1933594
		l-0.1279297-0.2246094c1.4560547-0.8955078,2.7685547-1.7597656,3.9697266-2.5917969l-0.0478516-1.0253906l0.7197266,0.5292969
		c1.0566406-0.7695313,2.0009766-1.5214844,2.8496094-2.2421875h-6.1152344c-0.3359375,0-0.8154297,0.0644531-1.0722656,0.1601563
		l-0.4482422-0.5761719c0.3847656,0.0488281,0.8007813,0.0644531,1.1689453,0.0644531h5.2177734v-2.5927734h-2.8808594
		c-0.3203125,0-0.7841797,0.0639648-1.0244141,0.1591797l-0.4326172-0.5756836
		c0.3681641,0.0483398,0.7685547,0.0639648,1.1210938,0.0639648h3.2167969v-0.9760742
		c0-0.6245117-0.015625-1.0087891-0.0478516-1.5688477l1.0722656,0.4482422
		c0.0966797,0.0322266,0.1445313,0.0800781,0.1445313,0.1279297c0,0.0322266-0.0322266,0.0639648-0.0800781,0.1123047
		l-0.3525391,0.3041992v1.5522461h1.5205078l0.5605469-0.8164063l0.9121094,0.9926758
		c0.0478516,0.0478516,0.0644531,0.0800781,0.0644531,0.1118164c0,0.0483398-0.0322266,0.0644531-0.1123047,0.0644531h-2.9453125
		v2.5927734h0.9287109c1.8085938-1.5683594,3.1855469-3.0410156,4.2412109-4.4335938l0.9287109,0.671875
		c0.0644531,0.0483398,0.0957031,0.0800781,0.0957031,0.1123047s-0.03125,0.0478516-0.1113281,0.0800781
		c-0.4804688,0.1279297-0.5449219,0.1601563-0.7363281,0.3520508c-1.0888672,1.1040039-2.2568359,2.1928711-3.4580078,3.2172852
		h4.3222656l0.7197266-0.9609375L304.2617188,218.9358673z M300.2275391,223.9934845v-2.1289063h-5.9541016
		c-0.0800781,0.0644531-0.1435547,0.1132813-0.2236328,0.1601563v1.96875H300.2275391z M300.2275391,226.6184845v-2.2724609
		h-6.1777344v2.2724609H300.2275391z"/>
	<path id="XMLID_62_" class="st7" d="M312.0185547,224.954422l-3.5058594,1.2480469
		c-1.0878906,0.3847656-1.6484375,0.6728516-1.9042969,0.8652344c-0.0800781,0.0478516-0.1279297,0.0800781-0.1767578,0.0800781
		c-0.0478516,0-0.0800781-0.0322266-0.1435547-0.1123047l-0.5927734-0.7685547l6.2431641-1.5527344L312.0185547,224.954422z
		 M311.9384766,218.1194611c0.0634766,0.0478516,0.0800781,0.0800781,0.0800781,0.1123047
		c0,0.0478516-0.0322266,0.0800781-0.1279297,0.0957031c-0.4482422,0.0800781-0.5605469,0.1123047-0.7851563,0.3847656
		c-1.0878906,1.2636719-2.5605469,2.8007813-4.0976563,4.2412109l4.1943359-0.5126953L311.25,222.6497345
		c-2.8173828,0.640625-3.8095703,0.9443359-4.2421875,1.1523438c-0.0957031,0.0478516-0.1591797,0.0644531-0.2080078,0.0644531
		c-0.0478516,0-0.0634766-0.0332031-0.0957031-0.0800781l-0.5439453-0.8808594
		c0.4160156-0.1279297,0.8964844-0.4316406,1.1044922-0.65625c0.7197266-0.7363281,1.5039063-1.7285156,2.4804688-3.1054688
		c-1.9521484,0.2558594-2.8964844,0.4482422-3.1044922,0.5917969c-0.0800781,0.0488281-0.1289063,0.0800781-0.1767578,0.0800781
		s-0.0800781-0.03125-0.1123047-0.0800781l-0.6240234-0.8476563c0.3203125-0.1279297,0.5761719-0.2880859,0.8486328-0.6083984
		c1.0087891-1.1689453,2.2089844-3.0732422,2.7050781-4.4975586l1.0888672,0.7041016
		c0.0957031,0.0639648,0.1435547,0.1123047,0.1435547,0.1601563c0,0.0322266-0.0644531,0.0639648-0.1601563,0.0961914
		c-0.2880859,0.0639648-0.4960938,0.2241211-0.671875,0.4321289c-1.0722656,1.3598633-2.2568359,2.7524414-3.265625,3.7612305
		l3.5537109-0.1123047c0.3359375-0.4804688,0.7519531-1.1835938,0.9443359-1.5527344L311.9384766,218.1194611z
		 M319.7978516,221.8011017c0.0800781,0.0634766,0.1113281,0.1123047,0.1113281,0.1601563
		c0,0.0634766,0,0.0634766-0.4638672,0.3525391c-0.015625,0.7041016-0.0957031,1.4726563-0.1757813,1.9365234
		c-0.2402344,1.4248047-0.3203125,1.6318359-1.4570313,2.1123047c-0.0478516,0.0166016-0.0800781,0.0322266-0.1123047,0.0322266
		c-0.0634766,0-0.0957031-0.0322266-0.1279297-0.1279297c-0.1601563-0.4960938-0.3681641-0.7041016-1.3925781-1.0078125v-0.2402344
		c0.6728516,0.1601563,1.1523438,0.2402344,1.4726563,0.2402344c0.6884766,0,0.7841797-0.3525391,0.8964844-1.1855469
		c0.0957031-0.6875,0.1279297-1.0722656,0.1445313-2.0322266h-3.3300781v2.8173828
		c0,1.8242188,0.0166016,2.3046875,0.0644531,2.9765625v0.0957031c0,0.1933594-0.0644531,0.2568359-0.4326172,0.4326172
		c-0.1279297,0.0644531-0.2236328,0.0966797-0.2880859,0.0966797c-0.0957031,0-0.1279297-0.0966797-0.1279297-0.3525391v-0.1435547
		c0.0322266-0.8964844,0.0478516-2.2734375,0.0478516-3.1376953v-2.7851563h-2.3203125
		c-0.3847656,0-0.5927734,0.0478516-0.7841797,0.1601563l-0.5283203-0.5761719
		c0.4960938,0.0478516,0.8642578,0.0634766,1.2158203,0.0634766h2.4169922v-2.1601563h-1.328125
		c-0.3359375,0-0.8007813,0.0634766-1.0722656,0.1757813l-0.4482422-0.5917969
		c0.4003906,0.03125,0.7998047,0.0634766,1.1679688,0.0634766h1.6806641v-2.2255859h-1.6484375
		c-0.3359375,0-0.7998047,0.0644531-1.0722656,0.1767578l-0.4482422-0.5927734
		c0.4003906,0.0332031,0.8007813,0.0644531,1.1689453,0.0644531h2v-0.7519531c0-0.7045898-0.03125-1.7128906-0.0634766-2.2729492
		l1.2480469,0.4477539c0.1601563,0.0644531,0.2402344,0.0961914,0.2402344,0.1601563
		c0,0.0483398-0.0634766,0.1123047-0.1914063,0.1923828l-0.4970703,0.3198242v1.9047852h2.7695313l0.6884766-0.8320313
		l0.8964844,0.8964844c0.1113281,0.1113281,0.1601563,0.1757813,0.1601563,0.2236328s-0.0800781,0.0634766-0.1923828,0.0634766
		h-4.3222656v2.2255859h2.0175781l0.7197266-0.7998047l0.8808594,0.8798828
		c0.0957031,0.0966797,0.1435547,0.1767578,0.1435547,0.2080078c0,0.0478516-0.0634766,0.0644531-0.1914063,0.0644531h-3.5703125
		v2.1601563h3.1220703l0.4316406-0.6240234L319.7978516,221.8011017z"/>
	<path id="XMLID_67_" class="st7" d="M335.8779297,215.7508087c0.0634766,0.0639648,0.1113281,0.1279297,0.1113281,0.1601563
		c0,0.0478516-0.0634766,0.0639648-0.1757813,0.0639648h-11.6210938v3.5371094c0,3.921875-0.4160156,7.1064453-2.7685547,8.8994141
		l-0.1279297-0.1435547c1.6806641-2.1923828,2.1601563-3.6816406,2.1601563-8.6435547v-2.9130859
		c0-0.6083984-0.03125-1.3286133-0.0478516-1.8730469l1.0722656,0.784668h9.6523438l0.7041016-0.9443359L335.8779297,215.7508087z
		 M336.421875,227.4680939c-0.7841797,0-1.2802734,0.3515625-1.4404297,0.7363281
		c-0.0322266,0.046875-0.0644531,0.0634766-0.1279297,0.0634766c-0.1289063,0-3.5058594-0.7529297-5.0908203-1.7607422
		c-1.7119141,1.3125-4.0009766,1.8085938-6.7548828,2.0644531v-0.2402344
		c2.6572266-0.4316406,4.7705078-1.2158203,6.2109375-2.2402344c-1.0566406-0.9121094-1.6484375-1.984375-2.0166016-3.0898438
		h-0.5605469c-0.2714844,0-0.5605469,0.0488281-0.8320313,0.1757813l-0.4482422-0.5917969
		c0.4003906,0.0322266,0.7998047,0.0644531,1.1679688,0.0644531h5.21875l0.5117188-0.5917969l0.9287109,0.7197266
		c0.0634766,0.0478516,0.0800781,0.0800781,0.0800781,0.1123047c0,0.03125-0.0322266,0.0634766-0.1279297,0.0957031
		c-0.1767578,0.0478516-0.4648438,0.2402344-0.5927734,0.4316406c-0.7841797,1.1855469-1.3759766,1.8730469-2.2246094,2.6416016
		c1.3769531,0.7041016,3.3134766,1.1201172,6.0986328,1.1523438V227.4680939z M335.9091797,218.4563751
		c0.0800781,0.0634766,0.1279297,0.1113281,0.1279297,0.1435547c0,0.0478516-0.0634766,0.0634766-0.1591797,0.0634766h-3.6337891
		v1.0410156c0,0.2402344,0.0322266,1.5205078,0.0322266,1.5205078c0,0.1767578-0.0488281,0.2236328-0.3525391,0.3359375
		c-0.1435547,0.0478516-0.2558594,0.0800781-0.3203125,0.0800781c-0.1113281,0-0.1113281-0.0478516-0.1113281-0.4794922h-3.4101563
		c0,0.3515625,0,0.3994141-0.3193359,0.5273438c-0.1601563,0.0644531-0.2568359,0.1123047-0.3203125,0.1123047
		c-0.0966797,0-0.1123047-0.0634766-0.1123047-0.2080078c0-0.1914063,0.015625-1.1523438,0.015625-1.3603516v-1.5693359h-1.0244141
		c-0.3359375,0-0.7998047,0.0644531-1.0722656,0.1767578l-0.4482422-0.5761719
		c0.4003906,0.0322266,0.8007813,0.0634766,1.1689453,0.0634766h1.3759766v-0.65625
		c0-0.5761719-0.015625-1.0234375-0.0478516-1.472168l1.1689453,0.5444336
		c0.0478516,0.03125,0.0800781,0.0634766,0.0800781,0.0957031s-0.0322266,0.0800781-0.0800781,0.1113281l-0.3847656,0.2890625
		v1.0878906h3.4101563v-0.6240234c0-0.5761719,0-1.0722656-0.0488281-1.5527344l1.1044922,0.4970703
		c0.0800781,0.046875,0.1279297,0.0800781,0.1279297,0.1113281c0,0.0644531-0.0478516,0.0957031-0.4316406,0.3847656v1.1835938
		h1.953125l0.6074219-0.7998047L335.9091797,218.4563751z M327.5380859,223.001297
		c0.4482422,1.0722656,1.1367188,2.0009766,2.1611328,2.7050781c1.0878906-0.9121094,1.6806641-1.6796875,2.1123047-2.7050781
		H327.5380859z M331.4921875,220.8089142v-2.1455078h-3.4101563v2.1455078H331.4921875z M328.1621094,213.5257111
		c0.7685547,0.0961914,1.4892578,0.3364258,1.8408203,0.65625c0.1279297,0.128418,0.1923828,0.3203125,0.1923828,0.5283203
		c0,0.3520508-0.1757813,0.7202148-0.4482422,0.7202148c-0.1757813,0-0.3203125-0.2241211-0.4482422-0.5761719
		c-0.1123047-0.3041992-0.65625-0.8803711-1.2001953-1.1845703L328.1621094,213.5257111z"/>
</g>
<g id="XMLID_20_">
</g>
<g id="XMLID_133_">
</g>
<g id="XMLID_134_">
</g>
<g id="XMLID_135_">
</g>
<g id="XMLID_136_">
</g>
<g id="XMLID_137_">
</g>
</svg>
