<?xml version="1.0" encoding="utf-8"?>
<!-- Generator: Adobe Illustrator 19.0.0, SVG Export Plug-In . SVG Version: 6.00 Build 0)  -->
<svg version="1.1" id="Layer_1" xmlns="http://www.w3.org/2000/svg" xmlns:xlink="http://www.w3.org/1999/xlink" x="0px" y="0px"
	 viewBox="0 0 328.0799866 231.1199951" style="enable-background:new 0 0 328.0799866 231.1199951;" xml:space="preserve">
<style type="text/css">
	.st0{clip-path:url(#SVGID_2_);}
	.st1{clip-path:url(#SVGID_4_);}
	
		.st2{clip-path:url(#SVGID_6_);fill:none;stroke:#000000;stroke-width:2.7969966;stroke-linecap:round;stroke-linejoin:round;stroke-miterlimit:10;}
	.st3{clip-path:url(#SVGID_6_);}
	.st4{clip-path:url(#SVGID_8_);fill-rule:evenodd;clip-rule:evenodd;}
	.st5{clip-path:url(#SVGID_10_);fill-rule:evenodd;clip-rule:evenodd;}
	.st6{clip-path:url(#SVGID_12_);fill-rule:evenodd;clip-rule:evenodd;}
	.st7{clip-path:url(#SVGID_14_);fill-rule:evenodd;clip-rule:evenodd;}
</style>
<g>
	<defs>
		<rect id="SVGID_1_" x="0.0000049" width="328.0799866" height="231.1199951"/>
	</defs>
	<clipPath id="SVGID_2_">
		<use xlink:href="#SVGID_1_"  style="overflow:visible;"/>
	</clipPath>
	<g class="st0">
	</g>
</g>
<g>
	<defs>
		<rect id="SVGID_3_" y="-0.0000305" width="328.0799866" height="231.1199951"/>
	</defs>
	<clipPath id="SVGID_4_">
		<use xlink:href="#SVGID_3_"  style="overflow:visible;"/>
	</clipPath>
	<g class="st1">
		<defs>
			<rect id="SVGID_5_" y="-0.0016785" width="327.6457825" height="230.7516327"/>
		</defs>
		<clipPath id="SVGID_6_">
			<use xlink:href="#SVGID_5_"  style="overflow:visible;"/>
		</clipPath>
		<line class="st2" x1="6.5803638" y1="184.481781" x2="286.2784424" y2="8.9692383"/>
		<line class="st2" x1="6.5803638" y1="184.481781" x2="286.2784424" y2="184.481781"/>
		<line class="st2" x1="286.2784424" y1="184.481781" x2="286.2784424" y2="8.9692383"/>
		<path class="st2" d="M50.8677559,156.6981201c5.2228966,8.3257751,7.9937744,17.9549561,7.9937744,27.7836609"/>
		<g class="st3">
			<defs>
				<rect id="SVGID_7_" x="68.5800934" y="132.0065002" width="30.3832932" height="58.7666893"/>
			</defs>
			<clipPath id="SVGID_8_">
				<use xlink:href="#SVGID_7_"  style="overflow:visible;"/>
			</clipPath>
			<path class="st4" d="M79.7273254,160.203537c-0.3386154,1.3794708-0.6347198,2.7705231-0.8864517,4.1727448
				c-0.200264,1.0132446-0.3009567,2.0265198-0.3009567,3.0379028c0,0.3796387,0.0126801,0.7454834,0.0380402,1.0979156
				c0.0249863,0.4769745,0.0820465,0.9230042,0.1693115,1.3369598c0.0880127,0.415451,0.2047424,0.7723389,0.3486862,1.070694
				c0.1439514,0.2998352,0.3363876,0.5306854,0.5754318,0.6955109c0.2390518,0.1644745,0.5284424,0.2468872,0.8666916,0.2457733
				c0.7160187,0.0011139,1.3854294-0.333786,2.0074768-1.0054321c0.6224213-0.6701508,1.2090378-1.4764404,1.7624588-2.4165955
				c0.8293991-1.3656769,1.4697189-2.7496338,1.9228287-4.1533508c0.4531097-1.4022369,0.8416977-2.7634277,1.1676407-4.0821228
				H79.7273254z M88.963295,150.4144287c-0.0503464-0.477356-0.1133728-0.9211426-0.1887054-1.3350983
				s-0.1853485-0.7756958-0.3292923-1.0814972c-0.1443329-0.3020782-0.3296738-0.5407562-0.5560455-0.7048492
				c-0.2263641-0.1640778-0.5146408-0.2461395-0.8670578-0.2461395c-0.7283325,0-1.4010925,0.339386-2.0164261,1.014389
				c-0.6153336,0.6787262-1.2123947,1.4879913-1.7911835,2.424057c-0.8290176,1.3425598-1.4697113,2.7224121-1.9224472,4.1376953
				c-0.4531097,1.4160156-0.8420715,2.7816925-1.169136,4.0981445h7.6715317
				c0.3397369-1.3768616,0.6541214-2.7805786,0.9423904-4.2089233c0.2013855-0.9632721,0.3020782-1.9161224,0.3020782-2.8559113
				C89.0390015,151.2423401,89.0136414,150.8283844,88.963295,150.4144287z M91.5081635,149.9930115
				c0.3020706,1.1598358,0.4519882,2.3420258,0.4519882,3.5492096c0,0.3796387-0.0126801,0.7458649-0.0380402,1.0979156
				c-0.1245575,1.6118164-0.3945541,3.2277222-0.8096237,4.8496094c-0.451622,1.6356812-1.0236969,3.2564392-1.7143555,4.8600464
				c-0.69104,1.6047363-1.6095657,3.1441956-2.7533417,4.6199036c-0.3889618,0.5008392-0.8200684,0.9960938-1.2910767,1.4835205
				c-0.4713898,0.4881592-0.9770813,0.9241333-1.5167084,1.3082428c-0.5400009,0.3845062-1.1027527,0.6988831-1.6871262,0.9416656
				c-0.5843811,0.2446289-1.1974792,0.3658447-1.8381729,0.3658447c-0.6529999,0-1.2157516-0.1245728-1.6871338-0.3751831
				c-0.4710083-0.2494812-0.8760071-0.571701-1.215744-0.9688721c-0.338623-0.3956909-0.6186905-0.8383484-0.8383484-1.3265228
				c-0.2196579-0.4874115-0.3990326-0.988266-0.5377655-1.5018005c-0.3132553-1.1337128-0.4710083-2.3050995-0.4710083-3.5137634
				c0-0.3889771,0.0249863-0.773468,0.0753326-1.1531067c0.1006927-1.5853424,0.3706894-3.1889496,0.8099976-4.8130646
				c0.4150772-1.6334534,0.974472-3.2493591,1.6778107-4.8485107c0.7044678-1.5991211,1.6401443-3.1430664,2.8092804-4.631073
				c0.3900833-0.4997253,0.8178329-0.9957275,1.2821274-1.4917297c0.4642944-0.4922638,0.9606628-0.9323273,1.4879913-1.3164368
				c0.5284348-0.3841248,1.0840988-0.6973877,1.6688538-0.9435272c0.5843811-0.2424011,1.2030716-0.3654785,1.8564453-0.3654785
				c0.6541138,0,1.2135086,0.1268005,1.677803,0.3766632c0.4643021,0.2498779,0.8760147,0.5705872,1.234024,0.9584351
				c0.3591309,0.3915863,0.6418152,0.8391113,0.8487854,1.3388367
				C91.1982574,148.9935608,91.3709259,149.4932861,91.5081635,149.9930115z"/>
		</g>
		<g class="st3">
			<defs>
				<rect id="SVGID_9_" x="294.7066345" y="65.9429245" width="30.8922119" height="58.7667007"/>
			</defs>
			<clipPath id="SVGID_10_">
				<use xlink:href="#SVGID_9_"  style="overflow:visible;"/>
			</clipPath>
			<path class="st5" d="M313.2098389,94.2865448c-0.0499878-0.2185516-0.0936279-0.4471588-0.1312866-0.6850891
				s-0.0950928-0.4725037-0.1704102-0.7059479c-0.2002563-0.5717163-0.4862976-1.0509338-0.8566284-1.4354248
				c-0.370697-0.3841248-0.8398438-0.5765533-1.4048157-0.5776672c-0.5273132,0.0011139-1.0486755,0.1912994-1.5644226,0.5687103
				c-0.5150146,0.3785248-0.9860229,0.8655853-1.4137878,1.4626465c-0.6029968,0.8432007-1.0546265,1.719223-1.3566895,2.6273041
				c-0.3016968,0.9095917-0.5787964,1.8575745-0.8301392,2.8447266c-0.2506104,0.9767151-0.4575806,1.9228516-0.622406,2.8365326
				c-0.0995789,0.4642944-0.1499329,0.9036102-0.1499329,1.3175659c0,0.4404297,0.050354,0.8670654,0.1499329,1.2810211
				c0.1144714,0.5743256,0.3180847,1.0479431,0.6130676,1.419754c0.2950134,0.3725586,0.7070923,0.5579071,1.2340393,0.5567932
				c0.5787659,0.0011139,1.15979-0.1998901,1.7445374-0.6026611c0.5843811-0.4027634,1.1277466-0.8968964,1.6296997-1.4835205
				c0.2013855-0.2424088,0.3934326-0.4769821,0.5754395-0.7033539c0.1831055-0.2252502,0.3430786-0.4669037,0.4803162-0.7242279
				L313.2098389,94.2865448z M318.6004944,101.0209503c-0.1495361,0.5996857-0.3188477,1.2400055-0.5075378,1.9228363
				c-0.1887207,0.6839676-0.4404297,1.3175812-0.755188,1.9034576c-0.3132629,0.5855026-0.7089233,1.0923157-1.1870117,1.5189514
				c-0.4769897,0.4266357-1.0740356,0.6392059-1.7911987,0.6392059c-0.9539185,0-1.7180786-0.2640381-2.2897644-0.7950897
				c-0.572052-0.5306854-0.9013672-1.0703201-0.9893799-1.6207733c-0.4277344,0.4896622-1.0650635,1.0147552-1.9134827,1.5752716
				c-0.8476563,0.5605164-1.7434387,0.8405914-2.6858215,0.8405914c-0.9927368,0-1.8255005-0.2494965-2.4978638-0.7492218
				c-0.67276-0.499733-1.1963501-1.1288757-1.573761-1.8859253c-0.4519958-0.9013748-0.69104-1.8713684-0.7160339-2.9099884
				v-0.2744751c0-0.9629211,0.1323853-1.9262085,0.3956909-2.8913574c0.302063-1.0606079,0.7227173-2.1092987,1.2627258-3.1468048
				c0.5411072-1.0359955,1.2571411-2.0003967,2.1491699-2.8924561c0.7298279-0.7309418,1.5621948-1.346283,2.4978638-1.8471375
				c0.9356995-0.5001068,1.8873901-0.7503357,2.8547668-0.7514496c0.8420715,0.0011139,1.5271301,0.2241211,2.0544739,0.6690369
				c0.5284424,0.4460297,0.861084,0.8141174,0.9994507,1.1061249l-0.0753479,0.3110199
				c0.0880127-0.450882,0.2983398-0.7917328,0.6313782-1.0236969c0.3337708-0.2312164,0.6701355-0.3479462,1.0087585-0.3490753
				c0.3889771,0.0011292,0.7160339,0.1167297,0.9800415,0.3479614c0.1637268,0.1838379,0.2517395,0.4277496,0.2633057,0.7320557
				c0,0.1107635-0.0126953,0.2330933-0.0376587,0.3658447l-2.7141724,10.5778656
				c-0.1260376,0.5008392-0.2140503,0.9711151-0.2644043,1.4089355c-0.0238647,0.2207718-0.0365601,0.4221573-0.0365601,0.6041489
				c0,0.1599884,0.0126953,0.3304138,0.0365601,0.5124054c0.0387878,0.2938766,0.1271667,0.5135269,0.2644043,0.6597214
				c0.1383667,0.1465607,0.3326416,0.2196579,0.5843811,0.2185364c0.2640381,0.0011215,0.5123901-0.1085205,0.7447205-0.3281784
				c0.2330933-0.2196579,0.4471436-0.5456009,0.641449-0.9789505c0.1943054-0.4326019,0.3796387-0.9517212,0.5560303-1.5554962
				c0.1760254-0.6041565,0.3580017-1.2593994,0.5455933-1.9687195c0.0753174-0.3154907,0.2893982-0.4747314,0.641449-0.4758606
				h0.4337158c0.3270569,0.0011292,0.4892578,0.1350098,0.4892578,0.402771V101.0209503z"/>
		</g>
		<g class="st3">
			<defs>
				<rect id="SVGID_11_" x="150.7945557" y="181.8283691" width="27.6312714" height="58.7667007"/>
			</defs>
			<clipPath id="SVGID_12_">
				<use xlink:href="#SVGID_11_"  style="overflow:visible;"/>
			</clipPath>
			<path class="st6" d="M168.3135376,208.72612c-0.1118774-0.5843811-0.325943-1.0569-0.6403198-1.4171448
				c-0.3136292-0.3591309-0.7219849-0.5400085-1.2250671-0.5411224c-0.6026459,0.0011139-1.1929932,0.1968994-1.7717743,0.5869904
				c-0.577652,0.3912201-1.1184082,0.8842316-1.6218567,1.4812927c-0.3889618,0.5008545-0.7286987,0.9707489-1.0177155,1.4089355
				l-1.0363617,4.0261841c-0.2517242,0.9767151-0.4393158,1.9168701-0.5649872,2.8182526
				c-0.0503387,0.3796387-0.0756989,0.7387695-0.0756989,1.0796356c0,0.5377655,0.0630188,1.0501862,0.1887054,1.5372314
				c0.1383514,0.5627594,0.3673248,1.03302,0.6876678,1.4104309c0.3199768,0.3785248,0.7443695,0.5672302,1.2716827,0.5661163
				c0.5284424,0.0011139,1.0535126-0.1931915,1.5748749-0.5843964c0.5217133-0.3900909,0.9893646-0.8782501,1.4036865-1.4652557
				c0.603775-0.8167114,1.0591125-1.684906,1.3667755-2.6067963c0.3087921-0.9207611,0.587738-1.8631592,0.8383484-2.8283081
				c0.2517242-0.9998322,0.4724884-1.9627533,0.66008-2.8917236c0.0753326-0.4378204,0.1129913-0.8644562,0.1129913-1.2810211
				C168.4645691,209.5876007,168.4142303,209.1538696,168.3135376,208.72612z M171.0470886,214.2895203
				c-0.3016968,1.0625-0.7249603,2.1126709-1.2716827,3.1490479c-0.5467072,1.0371246-1.2593689,1.9944458-2.1398468,2.8719482
				c-0.7286987,0.7331848-1.5547333,1.3462982-2.4788513,1.8404236c-0.9229889,0.4941406-1.8814087,0.7398987-2.8741455,0.7398987
				c-0.9550629,0-1.7534943-0.2550812-2.3938141-0.7674866c-0.640686-0.5124207-1.1314545-1.1471405-1.4711914-1.9045715
				c-0.4012756-0.901001-0.6153412-1.8710022-0.6403198-2.9096222v-0.2379303c0-0.9629059,0.1256714-1.9202271,0.3773956-2.8730621
				l3.7881927-14.7338257c0.1006927-0.3990326,0.1637115-0.7048492,0.1887054-0.913681v-0.0559387
				c0-0.1081543-0.0249939-0.1864624-0.0753326-0.2349548c-0.1510468-0.0969543-0.4337158-0.164093-0.8487854-0.2013855
				c-0.4139557-0.0372925-0.8920441-0.0559387-1.4320374-0.0559387c-0.1875916,0-0.325943-0.0596619-0.4150696-0.1827393
				c-0.0756989-0.074585-0.1133728-0.1640778-0.1133728-0.2759552c0-0.0708618,0.0193939-0.1379852,0.0570526-0.2013855
				l0.0563202-0.2908936c0.1006927-0.2946167,0.3270569-0.477356,0.6794739-0.5519409l4.9946136-0.3990326h0.0756989
				c0.1506653,0,0.275589,0.0484772,0.3762817,0.1454468c0.0503387,0.0969543,0.0753326,0.1976471,0.0753326,0.2908783
				c0,0.0746002-0.01828,0.1417084-0.0559387,0.2013855l-2.7141571,10.5420532
				c0.2767029-0.2789459,0.7857513-0.6392059,1.5267639-1.0785217c0.7413788-0.4393158,1.52005-0.6585999,2.3367615-0.6597137
				c0.9927216,0.0011139,1.8321838,0.2573242,2.51651,0.7697296c0.6850586,0.5124054,1.2097626,1.1400604,1.5737457,1.8836823
				c0.4277496,0.9036255,0.6529999,1.8803253,0.67836,2.9282684v0.2562103
				C171.4237518,212.3200684,171.2988129,213.2896881,171.0470886,214.2895203z"/>
		</g>
		<g class="st3">
			<defs>
				<rect id="SVGID_13_" x="117.7174606" y="44.599865" width="28.2540512" height="58.7666855"/>
			</defs>
			<clipPath id="SVGID_14_">
				<use xlink:href="#SVGID_13_"  style="overflow:visible;"/>
			</clipPath>
			<path class="st7" d="M138.837616,80.7761688c0.0880127,0.0868988,0.1316528,0.1782684,0.1316528,0.2744751
				c0,0.1107635-0.0492401,0.233078-0.1499329,0.3658447c-0.9927521,1.3794861-2.2588806,2.4330139-3.7983551,3.1579895
				c-1.539856,0.7253571-3.0815735,1.0878448-4.6281433,1.0878448c-1.0934601,0-2.0414581-0.2401581-2.8455124-0.7216187
				c-0.8040466-0.4814606-1.4391632-1.1128387-1.9045868-1.8952484c-0.5273361-0.8775024-0.8290405-1.8348236-0.904747-2.8734436
				c-0.0249863-0.2550812-0.0376663-0.5112915-0.0376663-0.7686157c0-0.7798004,0.1006927-1.5909271,0.3020782-2.4337616
				c0.3017044-1.1210327,0.7626572-2.2006683,1.3850861-3.2381592c0.6220627-1.036377,1.40448-1.9892273,2.3468857-2.8559265
				c0.8670807-0.755188,1.825531-1.3716431,2.8746033-1.8475037c1.0498199-0.4754944,2.1022491-0.7134094,3.1569061-0.7145386
				c0.6414642,0.0011292,1.2418823,0.0992126,1.8012848,0.293869c0.5594177,0.1954193,1.0363922,0.4792175,1.4320831,0.8510284
				c0.3956909,0.3725739,0.6817322,0.8085327,0.8577576,1.3071289c0.0503387,0.2700195,0.074585,0.5377808,0.074585,0.8051758
				c0,0.2942352-0.0365448,0.6052704-0.1122589,0.9334412c-0.1383514,0.5500793-0.4206696,0.9688721-0.8488007,1.2549286
				c-0.4266357,0.2867737-0.8544006,0.4299774-1.2821503,0.4288635c-0.4516296,0.0011139-0.8152466-0.1581268-1.0923309-0.4758606
				c-0.2136993-0.2058563-0.321106-0.4747467-0.321106-0.8051605c0-0.1327667,0.0249939-0.2976074,0.0753326-0.4941406
				c0.1394806-0.5355225,0.4128418-0.9345703,0.8212128-1.1974792c0.4083557-0.2621765,0.7253571-0.3994141,0.9506073-0.413208
				c-0.1249237-0.3039398-0.4232788-0.5899811-0.8946686-0.8588715c-0.4710236-0.2677612-1.0326691-0.4027557-1.6871643-0.4038849
				c-0.627655,0.0011292-1.2717133,0.1935577-1.9318237,0.5776672c-0.6597137,0.384491-1.2407532,0.8819885-1.7442169,1.4906158
				c-0.6783752,0.7935944-1.1963806,1.6513519-1.5543976,2.572113c-0.358017,0.9218903-0.6634674,1.8758545-0.9151917,2.8630066
				c-0.2502441,0.9767151-0.4449158,1.9228363-0.5843887,2.8365173c-0.0503464,0.293869-0.0753326,0.5683594-0.0753326,0.8234406
				c0,0.5996704,0.1006927,1.1725006,0.3017044,1.7203369c0.1887054,0.6108704,0.5057068,1.1027679,0.9517365,1.4745789
				c0.4460297,0.3725586,0.9838104,0.5579071,1.6118317,0.5567932c1.3325043,0.0011139,2.6329346-0.3397522,3.9024048-1.0237122
				c1.2698517-0.6828308,2.3185577-1.610321,3.1479645-2.7828064c0.0753326-0.1327667,0.2207794-0.2368164,0.4333496-0.3110352
				h0.1510468c0.1256714,0.0011139,0.2334595,0.0436401,0.320343,0.1279144L138.837616,80.7761688z"/>
		</g>
	</g>
</g>
</svg>
