<?xml version="1.0" encoding="UTF-8"?>
<svg xmlns="http://www.w3.org/2000/svg" xmlns:xlink="http://www.w3.org/1999/xlink" width="969pt" height="264pt" viewBox="0 0 969 264" version="1.1">
<g id="surface1">
<path style="fill:none;stroke-width:22.5;stroke-linecap:round;stroke-linejoin:round;stroke:rgb(0%,0%,0%);stroke-opacity:1;stroke-miterlimit:10;" d="M 617.878989 1230.02675 L 624.58829 1236.736014 L 631.334254 1243.445277 L 638.043556 1250.15454 L 644.752857 1256.900466 L 651.498821 1263.60973 L 664.917424 1277.028257 L 671.663388 1283.700857 L 685.081991 1297.046059 L 691.827955 1303.718659 L 698.537256 1310.354598 L 705.28322 1317.027198 L 711.992522 1323.626474 L 718.701823 1330.262412 L 725.447787 1336.825025 L 732.157088 1343.4243 L 738.86639 1349.986913 L 745.612354 1356.512863 L 752.321655 1363.038813 L 759.067619 1369.528101 L 765.776921 1376.017388 L 772.486222 1382.470013 L 779.232186 1388.885975 L 785.941487 1395.301938 L 792.650789 1401.681237 L 799.396753 1408.023874 L 806.106054 1414.366511 L 812.815355 1420.672486 L 819.56132 1426.905135 L 826.270621 1433.137784 L 833.016585 1439.33377 L 839.725886 1445.529756 L 846.435188 1451.652418 L 853.144489 1457.738416 L 859.890453 1463.824414 L 866.599754 1469.837088 L 873.345719 1475.813098 L 886.764321 1487.691794 L 893.510285 1493.557817 L 900.219587 1499.387177 L 906.928888 1505.143211 L 913.674852 1510.899246 L 920.384154 1516.581955 L 927.093455 1522.228002 L 933.839419 1527.837386 L 940.54872 1533.410108 L 947.294684 1538.909504 L 954.003986 1544.372238 L 960.713287 1549.761646 L 967.422588 1555.114392 L 974.168553 1560.430475 L 980.877854 1565.673232 L 987.623818 1570.879327 L 994.333119 1576.04876 L 1001.042421 1581.144867 L 1007.788385 1586.167649 L 1014.497686 1591.153768 L 1021.206987 1596.066562 L 1027.952952 1600.942693 L 1034.662253 1605.745499 L 1041.408217 1610.47498 L 1048.117518 1615.167798 L 1054.82682 1619.787291 L 1061.572784 1624.370121 L 1068.282085 1628.842963 L 1074.991386 1633.279143 L 1081.737351 1637.67866 L 1088.446652 1641.968189 L 1095.155953 1646.221055 L 1101.901917 1650.400597 L 1108.611219 1654.506812 L 1115.357183 1658.539703 L 1122.066484 1662.535931 L 1128.775785 1666.422171 L 1135.52175 1670.271748 L 1142.231051 1674.048 L 1148.940352 1677.714264 L 1155.686316 1681.343866 L 1162.395618 1684.900142 L 1169.104919 1688.383093 L 1175.850883 1691.792719 L 1182.560185 1695.129019 L 1189.269486 1698.391994 L 1196.01545 1701.618307 L 1202.724751 1704.697968 L 1209.434053 1707.740968 L 1216.180017 1710.710642 L 1222.889318 1713.60699 L 1229.635282 1716.393351 L 1236.344584 1719.143049 L 1243.053885 1721.782759 L 1249.799849 1724.385807 L 1256.50915 1726.878867 L 1263.218452 1729.298601 L 1269.964416 1731.64501 L 1276.673717 1733.918094 L 1283.383018 1736.08119 L 1290.128983 1738.17096 L 1296.838284 1740.187405 L 1303.584248 1742.130525 L 1310.293549 1744.00032 L 1317.002851 1745.796789 L 1323.712152 1747.483271 L 1330.458116 1749.096427 L 1337.167417 1750.636258 L 1343.913382 1752.066101 L 1350.622683 1753.422619 L 1357.331984 1754.705811 L 1364.077948 1755.915679 L 1370.78725 1757.015558 L 1377.533214 1758.042112 L 1384.242515 1758.99534 L 1390.951816 1759.875244 L 1397.697781 1760.645159 L 1404.407082 1761.341749 L 1411.116383 1761.965014 L 1417.862347 1762.514954 L 1424.571649 1762.954906 L 1431.28095 1763.284869 L 1438.026914 1763.578171 L 1444.736215 1763.761484 L 1451.445517 1763.871472 L 1458.191481 1763.908134 L 1464.900782 1763.834809 L 1471.646746 1763.688158 L 1478.356048 1763.468183 L 1485.065349 1763.138219 L 1491.77465 1762.73493 L 1498.520615 1762.258315 L 1505.229916 1761.671713 L 1511.97588 1761.011786 L 1518.685181 1760.278533 L 1525.394483 1759.471955 L 1532.140447 1758.555389 L 1538.849748 1757.565497 L 1545.595712 1756.465618 L 1552.305014 1755.329076 L 1559.014315 1754.082546 L 1565.723616 1752.762691 L 1572.46958 1751.332848 L 1579.178882 1749.866343 L 1585.924846 1748.289849 L 1592.634147 1746.64003 L 1599.343448 1744.916886 L 1606.089413 1743.083754 L 1612.798714 1741.177297 L 1619.508015 1739.197514 L 1626.253979 1737.144406 L 1632.963281 1735.017973 L 1639.672582 1732.781552 L 1646.418546 1730.471805 L 1653.127847 1728.088734 L 1659.873812 1725.632337 L 1666.583113 1723.102614 L 1673.292414 1720.462904 L 1680.038378 1717.786531 L 1686.74768 1715.000171 L 1693.456981 1712.177147 L 1700.202945 1709.244136 L 1706.912246 1706.237799 L 1713.658211 1703.158138 L 1720.367512 1700.00515 L 1727.076813 1696.778838 L 1733.822777 1693.4792 L 1740.532079 1690.106237 L 1747.24138 1686.659949 L 1753.987344 1683.140335 L 1760.696646 1679.547396 L 1767.405947 1675.881132 L 1774.151911 1672.178206 L 1780.861212 1668.365291 L 1787.570514 1664.479051 L 1794.316478 1660.556148 L 1801.025779 1656.523258 L 1807.73508 1652.453704 L 1814.481045 1648.310826 L 1821.190346 1644.094622 L 1827.93631 1639.841756 L 1834.645611 1635.478902 L 1841.354913 1631.079385 L 1848.100877 1626.606542 L 1854.810178 1622.097037 L 1861.519479 1617.477545 L 1868.265444 1612.821389 L 1874.974745 1608.128571 L 1881.684046 1603.325765 L 1888.43001 1598.522959 L 1895.139312 1593.610165 L 1901.885276 1588.660708 L 1908.594577 1583.637927 L 1915.303878 1578.578482 L 1922.049843 1573.482375 L 1928.759144 1568.312942 L 1935.468445 1563.070185 L 1942.214409 1557.790764 L 1948.923711 1552.474681 L 1955.633012 1547.085273 L 1962.378976 1541.62254 L 1969.088277 1536.159806 L 1975.834242 1530.623747 L 1982.543543 1525.051026 L 1995.962146 1513.758932 L 2002.70811 1508.03956 L 2009.417411 1502.283525 L 2016.163375 1496.454165 L 2022.872676 1490.624805 L 2029.581978 1484.72212 L 2036.327942 1478.782772 L 2043.037243 1472.843424 L 2049.746545 1466.830751 L 2056.492509 1460.781415 L 2063.20181 1454.695417 L 2069.947774 1448.572756 L 2076.657076 1442.450095 L 2083.366377 1436.254108 L 2090.112341 1430.058122 L 2103.530944 1417.519498 L 2110.276908 1411.213524 L 2116.986209 1404.870887 L 2123.69551 1398.491587 L 2130.441475 1392.112288 L 2137.150776 1385.696326 L 2143.89674 1379.243701 L 2150.606041 1372.791076 L 2157.315343 1366.301788 L 2164.024644 1359.775838 L 2170.770608 1353.249888 L 2177.479909 1346.687275 L 2184.225874 1340.124662 L 2197.644476 1326.926111 L 2204.39044 1320.326836 L 2211.099742 1313.690898 L 2217.845706 1307.05496 L 2237.97361 1287.037158 L 2244.719574 1280.364557 L 2251.428875 1273.655294 L 2258.174839 1266.94603 L 2271.593442 1253.527503 L 2278.339406 1246.81824 L 2285.048707 1240.072314 L 2291.758009 1233.363051 L 2298.503973 1226.653787 L 2305.213274 1219.907861 L 2311.922576 1213.198598 L 2318.66854 1206.489334 L 2332.087142 1193.070808 L 2338.833106 1186.361544 L 2345.542408 1179.652281 L 2352.251709 1172.97968 L 2358.997673 1166.307079 L 2365.706975 1159.634479 L 2372.452939 1152.961878 L 2379.16224 1146.32594 L 2385.908204 1139.690002 L 2392.617506 1133.054064 L 2399.326807 1126.454788 L 2406.036108 1119.892175 L 2412.782072 1113.2929 L 2419.491374 1106.76695 L 2426.237338 1100.241 L 2432.946639 1093.71505 L 2439.65594 1087.225762 L 2446.401905 1080.773137 L 2453.111206 1074.320512 L 2459.820507 1067.90455 L 2466.566471 1061.52525 L 2473.275773 1055.145951 L 2479.985074 1048.803314 L 2486.731038 1042.497339 L 2493.440339 1036.228028 L 2500.186304 1029.958716 L 2513.604906 1017.566743 L 2520.35087 1011.40742 L 2533.769473 999.235423 L 2540.515437 993.186087 L 2547.224738 987.173414 L 2553.93404 981.197403 L 2560.680004 975.294718 L 2567.389305 969.392033 L 2574.098607 963.562673 L 2580.844571 957.733313 L 2587.553872 951.977278 L 2594.263173 946.257906 L 2601.009137 940.575196 L 2607.718439 934.965812 L 2614.464403 929.393091 L 2621.173704 923.857032 L 2627.883006 918.357636 L 2634.62897 912.931565 L 2641.338271 907.542156 L 2648.047572 902.226073 L 2654.793537 896.946653 L 2661.502838 891.703895 L 2668.212139 886.534463 L 2674.958103 881.438356 L 2681.667405 876.342249 L 2688.413369 871.356129 L 2695.12267 866.406673 L 2701.831971 861.493879 L 2708.577936 856.65441 L 2715.287237 851.888267 L 2721.996538 847.195449 L 2728.742502 842.539293 L 2735.451804 837.9198 L 2742.197768 833.410296 L 2748.907069 828.937453 L 2755.61637 824.537936 L 2762.362335 820.175082 L 2769.071636 815.922216 L 2775.780937 811.706012 L 2782.526901 807.563133 L 2789.236203 803.49358 L 2795.945504 799.46069 L 2802.691468 795.537787 L 2809.400769 791.651547 L 2816.110071 787.875295 L 2822.856035 784.135706 L 2829.565336 780.469441 L 2836.274638 776.876503 L 2843.020602 773.356889 L 2849.729903 769.910601 L 2856.439204 766.537638 L 2863.185168 763.238 L 2869.89447 760.011687 L 2876.603771 756.8587 L 2883.349735 753.779038 L 2890.059037 750.772702 L 2896.805001 747.839691 L 2903.514302 745.016667 L 2910.223603 742.230306 L 2916.969567 739.553934 L 2923.678869 736.914223 L 2930.38817 734.384501 L 2937.134134 731.928104 L 2943.843436 729.545032 L 2950.552737 727.235286 L 2957.298701 725.035528 L 2964.008002 722.872432 L 2970.753967 720.819324 L 2977.463268 718.839541 L 2984.172569 716.933084 L 2990.88187 715.136614 L 2997.627835 713.376808 L 3004.337136 711.726989 L 3011.0831 710.150495 L 3017.792401 708.68399 L 3024.501703 707.254146 L 3031.247667 705.934291 L 3037.956968 704.687762 L 3044.666269 703.55122 L 3051.412234 702.45134 L 3058.121535 701.461449 L 3064.867499 700.544883 L 3071.5768 699.738305 L 3078.286102 699.005052 L 3085.032066 698.345125 L 3091.741367 697.795185 L 3098.450669 697.281908 L 3105.196633 696.878619 L 3111.905934 696.585318 L 3118.615235 696.328679 L 3125.361199 696.182029 L 3132.070501 696.145366 L 3138.779802 696.145366 L 3145.525766 696.255354 L 3152.235068 696.438667 L 3158.981032 696.731968 L 3165.690333 697.061932 L 3172.399634 697.501884 L 3179.145598 698.051823 L 3185.8549 698.675088 L 3192.564201 699.371679 L 3199.273502 700.141594 L 3206.019467 701.021497 L 3212.728768 701.974726 L 3219.474732 703.00128 L 3226.184033 704.101159 L 3232.893335 705.311026 L 3239.639299 706.594219 L 3246.3486 707.950737 L 3253.057901 709.417242 L 3259.803866 710.920411 L 3266.513167 712.533567 L 3273.222468 714.256711 L 3279.968432 716.016518 L 3286.677734 717.886312 L 3293.423698 719.829432 L 3300.132999 721.845878 L 3306.8423 723.935648 L 3313.588265 726.135407 L 3320.297566 728.371828 L 3327.006867 730.718237 L 3333.752831 733.137971 L 3340.462133 735.631031 L 3347.208097 738.234078 L 3353.917398 740.873789 L 3360.626699 743.623487 L 3367.372664 746.409848 L 3374.081965 749.306196 L 3380.791266 752.27587 L 3387.53723 755.318869 L 3394.246532 758.435194 L 3400.955833 761.624844 L 3407.701797 764.887819 L 3414.411099 768.224119 L 3421.1204 771.633745 L 3427.866364 775.116696 L 3434.575665 778.672972 L 3441.284967 782.265911 L 3448.030931 785.968838 L 3454.740232 789.74509 L 3461.486196 793.594667 L 3468.195498 797.480907 L 3474.904799 801.477135 L 3481.6141 805.510025 L 3488.360064 809.616241 L 3495.069366 813.795782 L 3501.81533 818.048649 L 3508.524631 822.338178 L 3515.233932 826.737695 L 3521.979897 831.173874 L 3528.689198 835.646717 L 3535.398499 840.229547 L 3542.144463 844.84904 L 3548.853765 849.541858 L 3555.563066 854.271339 L 3562.30903 859.074145 L 3569.018331 863.950276 L 3575.764296 868.86307 L 3582.473597 873.849189 L 3589.182898 878.871971 L 3595.8922 883.968078 L 3602.638164 889.13751 L 3609.347465 894.306943 L 3616.093429 899.586363 L 3622.80273 904.865784 L 3629.512032 910.255192 L 3636.257996 915.6446 L 3642.967297 921.107334 L 3649.713261 926.60673 L 3663.131864 937.752173 L 3669.877828 943.434882 L 3676.58713 949.117592 L 3683.296431 954.836964 L 3690.042395 960.629661 L 3696.751696 966.459021 L 3703.460998 972.325044 L 3710.206962 978.227729 L 3716.916263 984.167077 L 3723.625564 990.17975 L 3730.371529 996.192423 L 3737.08083 1002.241759 L 3743.826794 1008.36442 L 3750.536095 1014.487081 L 3757.245397 1020.646405 L 3763.954698 1026.842392 L 3770.700662 1033.075041 L 3777.409963 1039.344352 L 3784.155928 1045.650327 L 3790.865229 1051.956301 L 3797.57453 1058.335601 L 3804.320494 1064.7149 L 3811.029796 1071.0942 L 3817.739097 1077.546825 L 3824.485061 1083.99945 L 3831.194362 1090.452074 L 3837.903664 1096.978025 L 3844.649628 1103.503975 L 3851.358929 1110.029925 L 3858.104893 1116.592538 L 3864.814195 1123.155151 L 3878.232797 1136.353701 L 3884.978761 1142.98964 L 3891.688063 1149.625578 L 3898.434027 1156.298178 L 3905.143328 1162.934116 L 3911.85263 1169.64338 L 3918.598594 1176.315981 L 3925.307895 1182.988581 L 3932.017196 1189.697845 L 3938.76316 1196.407108 L 3952.181763 1209.825635 L 3958.927727 1216.534898 L 3965.637029 1223.280824 L 3972.382993 1229.990088 " transform="matrix(0.106545,0,0,-0.106546,0,264.4487)"/>
<path style=" stroke:none;fill-rule:nonzero;fill:rgb(0%,0%,0%);fill-opacity:1;" d="M 3.902344 132.796875 L 457.957031 132.796875 L 457.957031 133.996094 L 3.902344 133.996094 C 3.570312 133.996094 3.304688 133.726562 3.304688 133.394531 C 3.304688 133.066406 3.570312 132.796875 3.902344 132.796875 Z M 471.367188 133.394531 L 454.585938 128.601562 L 457.945312 132.796875 L 457.945312 133.996094 L 454.585938 138.191406 Z M 471.367188 133.394531 "/>
<path style=" stroke:none;fill-rule:nonzero;fill:rgb(0%,0%,0%);fill-opacity:1;" d="M 65.230469 232.210938 L 65.230469 21.972656 L 66.429688 21.972656 L 66.429688 232.210938 C 66.429688 232.542969 66.164062 232.808594 65.832031 232.808594 C 65.5 232.808594 65.230469 232.542969 65.230469 232.210938 Z M 65.832031 8.558594 L 61.039062 25.339844 L 65.230469 21.984375 L 66.429688 21.984375 L 70.625 25.339844 Z M 65.832031 8.558594 "/>
<path style=" stroke:none;fill-rule:evenodd;fill:rgb(0%,0%,0%);fill-opacity:1;" d="M 57.890625 147.914062 C 57.628906 148.925781 57.210938 149.902344 56.632812 150.84375 C 56.054688 151.785156 55.328125 152.644531 54.453125 153.425781 C 53.664062 154.128906 52.800781 154.691406 51.863281 155.105469 C 50.925781 155.519531 49.988281 155.726562 49.046875 155.726562 C 48.097656 155.726562 47.257812 155.515625 46.519531 155.097656 C 45.785156 154.679688 45.199219 154.117188 44.757812 153.402344 C 44.277344 152.617188 44 151.746094 43.929688 150.789062 C 43.902344 150.558594 43.886719 150.332031 43.886719 150.101562 C 43.886719 149.382812 43.980469 148.640625 44.167969 147.871094 C 44.441406 146.847656 44.859375 145.855469 45.433594 144.886719 C 46.003906 143.921875 46.734375 143.050781 47.625 142.265625 C 48.414062 141.5625 49.277344 140.996094 50.214844 140.570312 C 51.152344 140.140625 52.097656 139.925781 53.050781 139.925781 C 54 139.925781 54.839844 140.144531 55.566406 140.574219 C 56.296875 141.007812 56.878906 141.578125 57.316406 142.289062 C 57.796875 143.078125 58.082031 143.957031 58.167969 144.921875 C 58.183594 145.160156 58.191406 145.394531 58.191406 145.625 C 58.191406 146.371094 58.089844 147.132812 57.890625 147.914062 Z M 55.714844 142.644531 C 55.476562 142.058594 55.121094 141.582031 54.648438 141.21875 C 54.171875 140.851562 53.589844 140.667969 52.902344 140.667969 C 52.21875 140.667969 51.542969 140.855469 50.867188 141.226562 C 50.191406 141.601562 49.589844 142.085938 49.054688 142.675781 C 48.386719 143.394531 47.859375 144.171875 47.472656 145.011719 C 47.085938 145.855469 46.785156 146.707031 46.570312 147.570312 C 46.316406 148.511719 46.164062 149.429688 46.105469 150.320312 C 46.089844 150.488281 46.085938 150.65625 46.085938 150.820312 C 46.085938 151.519531 46.199219 152.203125 46.429688 152.871094 C 46.652344 153.464844 46.992188 153.960938 47.453125 154.363281 C 47.910156 154.761719 48.484375 154.960938 49.175781 154.960938 C 49.886719 154.960938 50.582031 154.757812 51.257812 154.351562 C 51.9375 153.941406 52.546875 153.4375 53.085938 152.839844 C 53.78125 152.03125 54.324219 151.175781 54.710938 150.277344 C 55.097656 149.378906 55.414062 148.460938 55.660156 147.527344 C 55.882812 146.65625 56.023438 145.800781 56.078125 144.953125 L 56.078125 144.589844 C 56.078125 143.894531 55.957031 143.242188 55.714844 142.644531 Z M 55.714844 142.644531 "/>
<path style="fill:none;stroke-width:15;stroke-linecap:round;stroke-linejoin:round;stroke:rgb(0%,0%,0%);stroke-opacity:1;stroke-dasharray:60,30;stroke-miterlimit:10;" d="M 617.878989 1768.637615 L 1457.898178 1768.637615 " transform="matrix(0.106545,0,0,-0.106546,0,264.4487)"/>
<path style=" stroke:none;fill-rule:evenodd;fill:rgb(0%,0%,0%);fill-opacity:1;" d="M 58.882812 81.554688 C 57.589844 81.511719 56.332031 81.492188 55.105469 81.492188 C 53.882812 81.492188 52.621094 81.511719 51.328125 81.554688 L 51.328125 80.671875 L 52.054688 80.671875 C 52.289062 80.671875 52.503906 80.671875 52.710938 80.664062 C 52.914062 80.65625 53.105469 80.640625 53.289062 80.613281 C 53.472656 80.585938 53.632812 80.558594 53.765625 80.527344 C 53.878906 80.507812 53.972656 80.445312 54.046875 80.339844 C 54.121094 80.234375 54.15625 80.117188 54.15625 79.984375 L 54.15625 68.4375 C 53.804688 68.609375 53.371094 68.738281 52.859375 68.828125 C 52.34375 68.917969 51.78125 68.960938 51.167969 68.960938 L 51.167969 68.089844 C 52.011719 68.089844 52.792969 67.988281 53.507812 67.789062 C 54.222656 67.585938 54.839844 67.207031 55.359375 66.652344 L 55.6875 66.652344 C 55.917969 66.652344 56.035156 66.765625 56.035156 66.992188 L 56.035156 79.984375 C 56.035156 80.125 56.070312 80.242188 56.140625 80.34375 C 56.210938 80.449219 56.3125 80.507812 56.445312 80.527344 C 56.558594 80.558594 56.703125 80.585938 56.878906 80.613281 C 57.054688 80.640625 57.253906 80.65625 57.476562 80.664062 C 57.695312 80.671875 57.914062 80.671875 58.125 80.671875 L 58.882812 80.671875 Z M 58.882812 81.554688 "/>
<path style="fill:none;stroke-width:15;stroke-linecap:round;stroke-linejoin:round;stroke:rgb(0%,0%,0%);stroke-opacity:1;stroke-dasharray:60,30;stroke-miterlimit:10;" d="M 617.878989 700.50822 L 3145.672418 692.662415 " transform="matrix(0.106545,0,0,-0.106546,0,264.4487)"/>
<path style="fill:none;stroke-width:0.402;stroke-linecap:round;stroke-linejoin:round;stroke:rgb(0%,0%,0%);stroke-opacity:1;stroke-miterlimit:10;" d="M 1.87517 7.878924 L 6.236188 7.878925 " transform="matrix(2.130917,0.000000427979,-0.000000183529,-2.130901,36.640889,205.804833)"/>
<path style=" stroke:none;fill-rule:evenodd;fill:rgb(0%,0%,0%);fill-opacity:1;" d="M 61.359375 195.363281 C 60.066406 195.320312 58.808594 195.300781 57.582031 195.300781 C 56.355469 195.300781 55.097656 195.320312 53.800781 195.363281 L 53.800781 194.480469 L 54.53125 194.480469 C 54.761719 194.480469 54.980469 194.476562 55.183594 194.472656 C 55.390625 194.464844 55.582031 194.449219 55.765625 194.417969 C 55.949219 194.394531 56.109375 194.367188 56.242188 194.335938 C 56.351562 194.316406 56.445312 194.253906 56.519531 194.148438 C 56.59375 194.042969 56.632812 193.925781 56.632812 193.792969 L 56.632812 182.246094 C 56.28125 182.417969 55.847656 182.546875 55.332031 182.636719 C 54.820312 182.726562 54.257812 182.769531 53.644531 182.769531 L 53.644531 181.894531 C 54.488281 181.894531 55.269531 181.796875 55.984375 181.59375 C 56.695312 181.394531 57.3125 181.015625 57.835938 180.460938 L 58.164062 180.460938 C 58.394531 180.460938 58.511719 180.574219 58.511719 180.800781 L 58.511719 193.792969 C 58.511719 193.929688 58.542969 194.050781 58.613281 194.152344 C 58.683594 194.253906 58.789062 194.316406 58.921875 194.335938 C 59.035156 194.367188 59.179688 194.394531 59.355469 194.417969 C 59.53125 194.449219 59.730469 194.464844 59.949219 194.472656 C 60.171875 194.476562 60.390625 194.480469 60.597656 194.480469 L 61.359375 194.480469 Z M 61.359375 195.363281 "/>
<path style=" stroke:none;fill-rule:evenodd;fill:rgb(0%,0%,0%);fill-opacity:1;" d="M 242.289062 145.8125 C 242.542969 145.820312 242.714844 145.902344 242.808594 146.0625 C 242.859375 146.167969 242.882812 146.277344 242.882812 146.386719 L 242.882812 146.554688 C 242.832031 146.742188 242.730469 146.910156 242.570312 147.050781 C 242.414062 147.195312 242.207031 147.265625 241.957031 147.265625 L 239.265625 147.265625 C 239.011719 148.417969 238.886719 149.566406 238.886719 150.714844 L 238.886719 150.882812 C 238.902344 152.082031 239.140625 153.199219 239.609375 154.230469 C 239.660156 154.328125 239.683594 154.4375 239.683594 154.554688 C 239.683594 154.671875 239.652344 154.78125 239.585938 154.878906 C 239.472656 155.082031 239.316406 155.238281 239.125 155.347656 C 238.945312 155.453125 238.757812 155.507812 238.5625 155.515625 C 238.519531 155.515625 238.492188 155.507812 238.476562 155.496094 C 238.261719 155.496094 238.105469 155.375 238.003906 155.128906 C 237.773438 154.613281 237.636719 154.039062 237.59375 153.402344 C 237.582031 153.167969 237.574219 152.9375 237.574219 152.714844 C 237.574219 152.296875 237.601562 151.855469 237.660156 151.394531 C 237.730469 150.691406 237.851562 149.980469 238.015625 149.253906 C 238.179688 148.527344 238.339844 147.867188 238.488281 147.265625 L 236.25 147.265625 C 236.082031 147.894531 235.894531 148.617188 235.683594 149.4375 C 235.472656 150.257812 235.261719 151.039062 235.054688 151.789062 C 234.84375 152.539062 234.65625 153.199219 234.492188 153.765625 C 234.328125 154.335938 234.203125 154.703125 234.117188 154.867188 C 233.984375 155.140625 233.8125 155.3125 233.597656 155.390625 C 233.441406 155.453125 233.292969 155.488281 233.15625 155.496094 C 233.085938 155.496094 233.023438 155.484375 232.972656 155.464844 C 232.765625 155.429688 232.617188 155.320312 232.53125 155.140625 C 232.480469 155.070312 232.457031 154.988281 232.457031 154.890625 C 232.457031 154.765625 232.496094 154.625 232.574219 154.472656 C 233.179688 153.257812 233.730469 152.046875 234.230469 150.832031 C 234.726562 149.621094 235.140625 148.429688 235.472656 147.265625 L 234.039062 147.265625 C 233.546875 147.265625 233.070312 147.433594 232.617188 147.761719 C 232.167969 148.09375 231.792969 148.507812 231.5 149 C 231.382812 149.113281 231.277344 149.167969 231.175781 149.167969 L 230.9375 149.167969 C 230.832031 149.09375 230.777344 149.003906 230.777344 148.898438 L 230.777344 148.835938 C 230.925781 148.457031 231.125 148.09375 231.363281 147.738281 C 231.605469 147.382812 231.878906 147.0625 232.1875 146.773438 C 232.496094 146.488281 232.835938 146.257812 233.207031 146.078125 C 233.574219 145.902344 233.964844 145.8125 234.375 145.8125 Z M 242.289062 145.8125 "/>
<path style=" stroke:none;fill-rule:evenodd;fill:rgb(0%,0%,0%);fill-opacity:1;" d="M 427.75 155.167969 L 419.15625 155.167969 L 419.15625 154.605469 C 419.15625 154.566406 419.179688 154.503906 419.222656 154.421875 L 422.671875 150.667969 C 423.082031 150.21875 423.492188 149.757812 423.914062 149.285156 C 424.332031 148.816406 424.707031 148.332031 425.039062 147.84375 C 425.367188 147.351562 425.632812 146.84375 425.828125 146.320312 C 426.027344 145.796875 426.125 145.25 426.125 144.675781 C 426.125 144.191406 426.0625 143.738281 425.933594 143.316406 C 425.808594 142.898438 425.625 142.53125 425.386719 142.210938 C 425.144531 141.890625 424.847656 141.636719 424.488281 141.441406 C 424.128906 141.246094 423.714844 141.152344 423.242188 141.148438 C 422.539062 141.152344 421.917969 141.359375 421.378906 141.78125 C 420.839844 142.203125 420.484375 142.664062 420.308594 143.167969 C 420.273438 143.179688 420.332031 143.191406 420.476562 143.1875 L 420.65625 143.1875 C 420.867188 143.238281 421.050781 143.3125 421.207031 143.410156 C 421.359375 143.511719 421.492188 143.644531 421.597656 143.820312 C 421.703125 143.992188 421.753906 144.203125 421.753906 144.449219 C 421.753906 144.859375 421.621094 145.175781 421.355469 145.394531 C 421.085938 145.613281 420.785156 145.722656 420.457031 145.71875 C 420.140625 145.722656 419.84375 145.613281 419.570312 145.394531 C 419.296875 145.175781 419.15625 144.859375 419.15625 144.449219 C 419.15625 143.875 419.269531 143.332031 419.496094 142.820312 C 419.722656 142.308594 420.027344 141.863281 420.414062 141.488281 C 420.800781 141.113281 421.257812 140.816406 421.785156 140.597656 C 422.3125 140.378906 422.875 140.269531 423.464844 140.269531 C 424.195312 140.269531 424.867188 140.378906 425.476562 140.59375 C 426.085938 140.808594 426.601562 141.117188 427.03125 141.519531 C 427.460938 141.921875 427.796875 142.390625 428.039062 142.917969 C 428.28125 143.449219 428.402344 144.035156 428.402344 144.675781 C 428.402344 145.386719 428.242188 146.039062 427.917969 146.636719 C 427.59375 147.234375 427.195312 147.785156 426.714844 148.28125 C 426.238281 148.78125 425.730469 149.25 425.191406 149.691406 C 424.652344 150.132812 424.164062 150.5625 423.726562 150.976562 L 421.300781 153.261719 L 424.476562 153.261719 C 424.921875 153.261719 425.335938 153.261719 425.71875 153.253906 C 426.101562 153.246094 426.425781 153.234375 426.695312 153.210938 C 426.960938 153.191406 427.097656 153.179688 427.105469 153.171875 C 427.160156 153.121094 427.214844 153.027344 427.265625 152.882812 C 427.3125 152.742188 427.359375 152.570312 427.402344 152.375 C 427.445312 152.183594 427.484375 151.984375 427.527344 151.78125 C 427.570312 151.582031 427.609375 151.359375 427.644531 151.121094 L 428.425781 151.121094 Z M 427.75 155.167969 "/>
<path style=" stroke:none;fill-rule:evenodd;fill:rgb(0%,0%,0%);fill-opacity:1;" d="M 441.898438 145.8125 C 442.148438 145.820312 442.320312 145.902344 442.414062 146.0625 C 442.464844 146.167969 442.492188 146.277344 442.492188 146.386719 L 442.492188 146.554688 C 442.4375 146.742188 442.335938 146.910156 442.175781 147.050781 C 442.019531 147.195312 441.816406 147.265625 441.5625 147.265625 L 438.871094 147.265625 C 438.617188 148.417969 438.496094 149.566406 438.496094 150.714844 L 438.496094 150.882812 C 438.507812 152.082031 438.75 153.199219 439.214844 154.230469 C 439.265625 154.328125 439.289062 154.4375 439.289062 154.554688 C 439.289062 154.671875 439.257812 154.78125 439.195312 154.878906 C 439.078125 155.082031 438.925781 155.238281 438.730469 155.347656 C 438.550781 155.453125 438.363281 155.507812 438.171875 155.515625 C 438.128906 155.515625 438.097656 155.507812 438.082031 155.496094 C 437.867188 155.496094 437.710938 155.375 437.609375 155.128906 C 437.378906 154.613281 437.246094 154.039062 437.203125 153.402344 C 437.1875 153.167969 437.179688 152.9375 437.179688 152.714844 C 437.179688 152.296875 437.207031 151.855469 437.265625 151.394531 C 437.339844 150.691406 437.457031 149.980469 437.621094 149.253906 C 437.789062 148.527344 437.945312 147.867188 438.09375 147.265625 L 435.855469 147.265625 C 435.691406 147.894531 435.5 148.617188 435.289062 149.4375 C 435.078125 150.257812 434.867188 151.039062 434.660156 151.789062 C 434.453125 152.539062 434.265625 153.199219 434.101562 153.765625 C 433.933594 154.335938 433.808594 154.703125 433.722656 154.867188 C 433.59375 155.140625 433.421875 155.3125 433.207031 155.390625 C 433.046875 155.453125 432.902344 155.488281 432.765625 155.496094 C 432.691406 155.496094 432.632812 155.484375 432.582031 155.464844 C 432.375 155.429688 432.226562 155.320312 432.140625 155.140625 C 432.089844 155.070312 432.0625 154.988281 432.0625 154.890625 C 432.0625 154.765625 432.105469 154.625 432.183594 154.472656 C 432.785156 153.257812 433.335938 152.046875 433.835938 150.832031 C 434.335938 149.621094 434.75 148.429688 435.078125 147.265625 L 433.648438 147.265625 C 433.152344 147.265625 432.679688 147.433594 432.226562 147.761719 C 431.773438 148.09375 431.398438 148.507812 431.105469 149 C 430.992188 149.113281 430.882812 149.167969 430.78125 149.167969 L 430.546875 149.167969 C 430.4375 149.09375 430.382812 149.003906 430.382812 148.898438 L 430.382812 148.835938 C 430.535156 148.457031 430.730469 148.09375 430.96875 147.738281 C 431.210938 147.382812 431.484375 147.0625 431.792969 146.773438 C 432.105469 146.488281 432.441406 146.257812 432.8125 146.078125 C 433.183594 145.902344 433.574219 145.8125 433.980469 145.8125 Z M 441.898438 145.8125 "/>
<path style=" stroke:none;fill-rule:evenodd;fill:rgb(0%,0%,0%);fill-opacity:1;" d="M 460.464844 113.074219 C 460.636719 113.738281 460.722656 114.414062 460.722656 115.101562 C 460.722656 115.320312 460.714844 115.527344 460.703125 115.730469 C 460.628906 116.648438 460.476562 117.574219 460.238281 118.5 C 459.980469 119.433594 459.652344 120.359375 459.257812 121.277344 C 458.863281 122.195312 458.339844 123.074219 457.6875 123.917969 C 457.464844 124.203125 457.21875 124.484375 456.949219 124.765625 C 456.679688 125.042969 456.390625 125.292969 456.082031 125.511719 C 455.773438 125.730469 455.453125 125.910156 455.117188 126.050781 C 454.785156 126.191406 454.433594 126.257812 454.066406 126.257812 C 453.695312 126.257812 453.371094 126.1875 453.101562 126.046875 C 452.835938 125.902344 452.601562 125.71875 452.410156 125.492188 C 452.214844 125.265625 452.054688 125.011719 451.929688 124.734375 C 451.804688 124.453125 451.703125 124.167969 451.621094 123.875 C 451.445312 123.226562 451.351562 122.558594 451.351562 121.867188 C 451.351562 121.644531 451.367188 121.425781 451.394531 121.207031 C 451.453125 120.304688 451.609375 119.386719 451.859375 118.457031 C 452.097656 117.523438 452.414062 116.601562 452.816406 115.6875 C 453.21875 114.773438 453.753906 113.890625 454.421875 113.042969 C 454.644531 112.757812 454.890625 112.472656 455.15625 112.191406 C 455.421875 111.910156 455.703125 111.65625 456.007812 111.4375 C 456.308594 111.21875 456.625 111.039062 456.960938 110.898438 C 457.292969 110.761719 457.648438 110.691406 458.019531 110.691406 C 458.394531 110.691406 458.714844 110.761719 458.980469 110.90625 C 459.246094 111.046875 459.480469 111.230469 459.683594 111.453125 C 459.890625 111.675781 460.050781 111.933594 460.167969 112.21875 C 460.289062 112.503906 460.386719 112.789062 460.464844 113.074219 Z M 459.011719 113.316406 C 458.980469 113.042969 458.945312 112.789062 458.902344 112.550781 C 458.859375 112.316406 458.796875 112.109375 458.714844 111.933594 C 458.632812 111.761719 458.527344 111.625 458.398438 111.53125 C 458.269531 111.4375 458.101562 111.390625 457.902344 111.390625 C 457.484375 111.390625 457.101562 111.585938 456.75 111.96875 C 456.398438 112.359375 456.058594 112.820312 455.726562 113.355469 C 455.253906 114.121094 454.886719 114.910156 454.628906 115.71875 C 454.367188 116.527344 454.144531 117.308594 453.960938 118.0625 L 458.34375 118.0625 C 458.539062 117.273438 458.71875 116.472656 458.882812 115.65625 C 458.996094 115.105469 459.054688 114.5625 459.054688 114.023438 C 459.054688 113.789062 459.039062 113.550781 459.011719 113.316406 Z M 453.734375 118.90625 C 453.539062 119.695312 453.371094 120.492188 453.226562 121.292969 C 453.113281 121.871094 453.054688 122.449219 453.054688 123.027344 C 453.054688 123.246094 453.0625 123.453125 453.078125 123.65625 C 453.089844 123.929688 453.125 124.183594 453.171875 124.417969 C 453.222656 124.65625 453.289062 124.859375 453.371094 125.03125 C 453.453125 125.203125 453.566406 125.335938 453.703125 125.429688 C 453.839844 125.523438 454.003906 125.570312 454.195312 125.570312 C 454.605469 125.570312 454.988281 125.378906 455.34375 124.996094 C 455.699219 124.613281 456.035156 124.152344 456.351562 123.613281 C 456.824219 122.832031 457.191406 122.042969 457.449219 121.242188 C 457.707031 120.4375 457.929688 119.660156 458.117188 118.90625 Z M 453.734375 118.90625 "/>
<path style=" stroke:none;fill-rule:evenodd;fill:rgb(0%,0%,0%);fill-opacity:1;" d="M 24.148438 32.183594 C 24.148438 32.609375 24.074219 33.027344 23.921875 33.433594 C 23.773438 33.839844 23.515625 34.195312 23.15625 34.492188 C 22.769531 34.800781 22.339844 35.011719 21.871094 35.121094 C 21.398438 35.234375 20.925781 35.289062 20.441406 35.289062 C 19.914062 35.289062 19.449219 35.203125 19.054688 35.027344 C 18.660156 34.851562 18.335938 34.640625 18.085938 34.390625 L 17.394531 35.183594 C 17.335938 35.246094 17.25 35.28125 17.136719 35.289062 L 17.070312 35.289062 C 16.855469 35.289062 16.75 35.179688 16.75 34.964844 L 16.75 31.515625 C 16.75 31.359375 16.832031 31.261719 16.996094 31.222656 C 17.046875 31.207031 17.09375 31.199219 17.136719 31.199219 C 17.195312 31.199219 17.25 31.210938 17.296875 31.230469 C 17.40625 31.273438 17.476562 31.347656 17.515625 31.449219 C 17.699219 32.40625 18.019531 33.171875 18.472656 33.742188 C 18.925781 34.3125 19.582031 34.597656 20.441406 34.597656 C 20.789062 34.597656 21.121094 34.566406 21.445312 34.5 C 21.769531 34.433594 22.046875 34.304688 22.285156 34.105469 C 22.480469 33.949219 22.621094 33.75 22.714844 33.515625 C 22.808594 33.285156 22.855469 33.03125 22.855469 32.757812 C 22.855469 32.3125 22.679688 31.929688 22.328125 31.613281 C 21.976562 31.296875 21.542969 31.085938 21.023438 30.980469 L 19.539062 30.675781 C 19.179688 30.609375 18.832031 30.5 18.5 30.347656 C 18.164062 30.199219 17.871094 30.015625 17.617188 29.792969 C 17.359375 29.574219 17.152344 29.316406 16.992188 29.015625 C 16.828125 28.714844 16.75 28.382812 16.75 28.019531 C 16.75 27.625 16.832031 27.242188 17.003906 26.875 C 17.171875 26.511719 17.425781 26.210938 17.761719 25.972656 C 18.15625 25.679688 18.589844 25.488281 19.066406 25.402344 C 19.539062 25.316406 19.996094 25.273438 20.441406 25.269531 C 21.261719 25.273438 21.921875 25.460938 22.425781 25.835938 L 22.984375 25.332031 C 23.070312 25.292969 23.144531 25.273438 23.199219 25.269531 L 23.277344 25.269531 C 23.492188 25.273438 23.597656 25.371094 23.597656 25.5625 L 23.597656 28.34375 C 23.597656 28.554688 23.492188 28.664062 23.277344 28.667969 L 23.15625 28.667969 C 22.941406 28.671875 22.835938 28.5625 22.835938 28.34375 C 22.835938 27.585938 22.628906 26.984375 22.214844 26.542969 C 21.800781 26.101562 21.210938 25.878906 20.441406 25.878906 C 20.113281 25.878906 19.789062 25.90625 19.46875 25.960938 C 19.148438 26.019531 18.863281 26.132812 18.613281 26.304688 C 18.230469 26.558594 18.042969 26.929688 18.042969 27.425781 C 18.042969 27.789062 18.207031 28.097656 18.535156 28.355469 C 18.867188 28.613281 19.285156 28.792969 19.785156 28.890625 L 21.261719 29.160156 C 21.648438 29.230469 22.019531 29.355469 22.371094 29.539062 C 22.722656 29.71875 23.03125 29.9375 23.292969 30.191406 C 23.554688 30.445312 23.761719 30.746094 23.917969 31.089844 C 24.070312 31.4375 24.148438 31.800781 24.148438 32.183594 Z M 24.148438 32.183594 "/>
<path style=" stroke:none;fill-rule:evenodd;fill:rgb(0%,0%,0%);fill-opacity:1;" d="M 28.734375 21.726562 C 28.734375 22.070312 28.609375 22.359375 28.359375 22.605469 C 28.105469 22.847656 27.804688 22.96875 27.453125 22.96875 C 27.101562 22.96875 26.800781 22.847656 26.554688 22.605469 C 26.304688 22.359375 26.183594 22.070312 26.183594 21.726562 C 26.183594 21.386719 26.304688 21.09375 26.554688 20.855469 C 26.800781 20.613281 27.101562 20.492188 27.453125 20.492188 C 27.804688 20.492188 28.105469 20.613281 28.359375 20.855469 C 28.609375 21.09375 28.734375 21.386719 28.734375 21.726562 Z M 30.1875 35.058594 C 29.328125 35.011719 28.496094 34.984375 27.699219 34.984375 C 26.917969 34.984375 26.097656 35.011719 25.234375 35.058594 L 25.234375 34.179688 C 25.558594 34.179688 25.855469 34.175781 26.125 34.164062 C 26.394531 34.15625 26.597656 34.117188 26.730469 34.054688 C 26.816406 34.015625 26.875 33.941406 26.902344 33.839844 C 26.933594 33.742188 26.945312 33.628906 26.945312 33.511719 L 26.945312 27.570312 C 26.945312 27.378906 26.9375 27.199219 26.921875 27.039062 C 26.902344 26.878906 26.839844 26.75 26.730469 26.652344 C 26.609375 26.570312 26.425781 26.519531 26.175781 26.503906 C 25.929688 26.492188 25.644531 26.484375 25.320312 26.484375 L 25.320312 25.617188 L 28.636719 25.363281 L 28.636719 33.511719 C 28.636719 33.628906 28.648438 33.742188 28.671875 33.839844 C 28.691406 33.941406 28.746094 34.015625 28.832031 34.054688 C 28.945312 34.117188 29.128906 34.15625 29.375 34.164062 C 29.625 34.175781 29.894531 34.179688 30.1875 34.179688 Z M 30.1875 35.058594 "/>
<path style=" stroke:none;fill-rule:evenodd;fill:rgb(0%,0%,0%);fill-opacity:1;" d="M 42.453125 35.058594 C 41.542969 35.011719 40.671875 34.984375 39.847656 34.984375 C 39.007812 34.984375 38.148438 35.011719 37.273438 35.058594 L 37.273438 34.179688 C 37.597656 34.179688 37.894531 34.175781 38.164062 34.164062 C 38.429688 34.15625 38.636719 34.117188 38.773438 34.054688 C 38.851562 34.015625 38.902344 33.941406 38.925781 33.839844 C 38.953125 33.742188 38.964844 33.628906 38.964844 33.511719 L 38.964844 28.40625 C 38.964844 28.0625 38.945312 27.730469 38.910156 27.414062 C 38.875 27.101562 38.773438 26.816406 38.609375 26.558594 C 38.511719 26.390625 38.359375 26.269531 38.164062 26.191406 C 37.964844 26.117188 37.753906 26.078125 37.53125 26.078125 C 37.121094 26.078125 36.742188 26.164062 36.386719 26.332031 C 36.03125 26.503906 35.726562 26.734375 35.476562 27.023438 C 35.222656 27.3125 35.023438 27.652344 34.871094 28.042969 C 34.722656 28.433594 34.648438 28.839844 34.648438 29.265625 L 34.648438 33.511719 C 34.648438 33.628906 34.660156 33.742188 34.6875 33.839844 C 34.71875 33.941406 34.777344 34.015625 34.863281 34.054688 C 35 34.117188 35.203125 34.15625 35.476562 34.164062 C 35.75 34.175781 36.042969 34.179688 36.359375 34.179688 L 36.359375 35.046875 C 35.992188 35.035156 35.65625 35.023438 35.347656 35.015625 C 35.039062 35.011719 34.734375 35 34.441406 34.984375 L 33.761719 34.984375 C 32.921875 34.984375 32.066406 35.011719 31.191406 35.058594 L 31.191406 34.179688 C 31.511719 34.179688 31.808594 34.175781 32.078125 34.164062 C 32.347656 34.15625 32.550781 34.117188 32.6875 34.054688 C 32.773438 34.015625 32.832031 33.941406 32.859375 33.839844 C 32.886719 33.742188 32.902344 33.628906 32.902344 33.511719 L 32.902344 27.570312 C 32.902344 27.378906 32.894531 27.199219 32.875 27.039062 C 32.859375 26.878906 32.789062 26.75 32.664062 26.652344 C 32.542969 26.570312 32.347656 26.519531 32.074219 26.503906 C 31.800781 26.492188 31.507812 26.484375 31.191406 26.484375 L 31.191406 25.617188 L 33.042969 25.480469 L 34.527344 25.363281 L 34.527344 27.164062 C 34.664062 26.84375 35.015625 26.464844 35.578125 26.03125 C 36.140625 25.59375 36.808594 25.375 37.578125 25.375 C 37.980469 25.375 38.394531 25.421875 38.820312 25.515625 C 39.246094 25.613281 39.621094 25.816406 39.945312 26.128906 C 40.269531 26.441406 40.480469 26.804688 40.578125 27.210938 C 40.679688 27.621094 40.730469 28.019531 40.730469 28.40625 L 40.730469 33.511719 C 40.730469 33.628906 40.746094 33.742188 40.773438 33.839844 C 40.800781 33.941406 40.859375 34.015625 40.945312 34.054688 C 41.082031 34.117188 41.285156 34.15625 41.558594 34.164062 C 41.832031 34.175781 42.128906 34.179688 42.453125 34.179688 Z M 42.453125 35.058594 "/>
<path style=" stroke:none;fill-rule:evenodd;fill:rgb(0%,0%,0%);fill-opacity:1;" d="M 54.859375 22.125 C 55.03125 22.785156 55.117188 23.460938 55.117188 24.152344 C 55.117188 24.371094 55.109375 24.578125 55.09375 24.78125 C 55.023438 25.699219 54.871094 26.625 54.632812 27.550781 C 54.375 28.484375 54.046875 29.410156 53.652344 30.328125 C 53.257812 31.246094 52.734375 32.125 52.078125 32.96875 C 51.859375 33.253906 51.609375 33.535156 51.34375 33.816406 C 51.074219 34.09375 50.785156 34.34375 50.476562 34.5625 C 50.164062 34.78125 49.847656 34.960938 49.511719 35.101562 C 49.175781 35.242188 48.828125 35.308594 48.460938 35.308594 C 48.089844 35.308594 47.765625 35.238281 47.496094 35.09375 C 47.226562 34.953125 46.996094 34.769531 46.804688 34.542969 C 46.609375 34.316406 46.449219 34.0625 46.324219 33.785156 C 46.199219 33.503906 46.097656 33.21875 46.015625 32.925781 C 45.839844 32.277344 45.746094 31.609375 45.746094 30.917969 C 45.746094 30.695312 45.761719 30.476562 45.789062 30.257812 C 45.847656 29.351562 46.003906 28.4375 46.253906 27.507812 C 46.488281 26.574219 46.808594 25.652344 47.210938 24.738281 C 47.613281 23.824219 48.148438 22.941406 48.816406 22.09375 C 49.039062 21.808594 49.285156 21.523438 49.550781 21.238281 C 49.8125 20.957031 50.097656 20.707031 50.398438 20.488281 C 50.699219 20.269531 51.019531 20.089844 51.351562 19.949219 C 51.6875 19.808594 52.042969 19.738281 52.414062 19.738281 C 52.785156 19.738281 53.105469 19.8125 53.371094 19.953125 C 53.636719 20.097656 53.875 20.28125 54.078125 20.503906 C 54.28125 20.726562 54.445312 20.980469 54.5625 21.269531 C 54.679688 21.554688 54.78125 21.839844 54.859375 22.125 Z M 53.40625 22.363281 C 53.375 22.09375 53.339844 21.839844 53.296875 21.601562 C 53.253906 21.367188 53.191406 21.160156 53.109375 20.984375 C 53.027344 20.8125 52.921875 20.675781 52.792969 20.582031 C 52.660156 20.488281 52.496094 20.441406 52.292969 20.441406 C 51.878906 20.441406 51.496094 20.636719 51.144531 21.019531 C 50.792969 21.410156 50.453125 21.871094 50.117188 22.40625 C 49.644531 23.171875 49.28125 23.960938 49.023438 24.769531 C 48.761719 25.578125 48.539062 26.359375 48.351562 27.113281 L 52.734375 27.113281 C 52.933594 26.324219 53.109375 25.523438 53.273438 24.707031 C 53.390625 24.15625 53.449219 23.613281 53.449219 23.074219 C 53.449219 22.839844 53.433594 22.601562 53.40625 22.363281 Z M 48.125 27.957031 C 47.933594 28.746094 47.765625 29.542969 47.621094 30.34375 C 47.507812 30.921875 47.449219 31.5 47.449219 32.078125 C 47.449219 32.296875 47.457031 32.503906 47.46875 32.707031 C 47.484375 32.976562 47.515625 33.234375 47.566406 33.46875 C 47.617188 33.707031 47.683594 33.910156 47.765625 34.082031 C 47.851562 34.253906 47.957031 34.386719 48.09375 34.480469 C 48.230469 34.574219 48.398438 34.621094 48.589844 34.621094 C 49 34.621094 49.382812 34.429688 49.738281 34.046875 C 50.09375 33.660156 50.429688 33.203125 50.746094 32.664062 C 51.21875 31.882812 51.585938 31.09375 51.84375 30.289062 C 52.101562 29.488281 52.324219 28.710938 52.511719 27.957031 Z M 48.125 27.957031 "/>
<path style="fill:none;stroke-width:22.5;stroke-linecap:round;stroke-linejoin:round;stroke:rgb(0%,0%,0%);stroke-opacity:1;stroke-miterlimit:10;" d="M 5250.889852 1763.908134 L 5257.599154 1763.834809 L 5264.308455 1763.724821 L 5271.054419 1763.504845 L 5277.76372 1763.211544 L 5284.473022 1762.844918 L 5291.218986 1762.368303 L 5297.928287 1761.818364 L 5304.674251 1761.195099 L 5311.383553 1760.461846 L 5318.092854 1759.655268 L 5324.802155 1758.775365 L 5331.548119 1757.822136 L 5338.257421 1756.758919 L 5345.003385 1755.622377 L 5351.712686 1754.41251 L 5358.421987 1753.092655 L 5365.167952 1751.699475 L 5371.877253 1750.232969 L 5378.586554 1748.693138 L 5385.332518 1747.043319 L 5392.04182 1745.356838 L 5398.787784 1743.523706 L 5405.497085 1741.653911 L 5412.206387 1739.710791 L 5418.952351 1737.657683 L 5425.661652 1735.53125 L 5432.370953 1733.331491 L 5439.116917 1731.058408 L 5445.826219 1728.711999 L 5452.53552 1726.255602 L 5459.281484 1723.725879 L 5465.990786 1721.122832 L 5472.73675 1718.483122 L 5479.446051 1715.696761 L 5486.155352 1712.873737 L 5492.864654 1709.977389 L 5499.610618 1707.007715 L 5506.319919 1703.928053 L 5513.065883 1700.811728 L 5519.775185 1697.585416 L 5526.484486 1694.322441 L 5533.23045 1690.949478 L 5539.939751 1687.539852 L 5546.649053 1684.020239 L 5553.395017 1680.463963 L 5560.104318 1676.834361 L 5566.813619 1673.094772 L 5573.559584 1669.31852 L 5580.268885 1665.468942 L 5587.014849 1661.54604 L 5593.72415 1657.549812 L 5600.433452 1653.480258 L 5607.179416 1649.374043 L 5613.888717 1645.157839 L 5620.598018 1640.904972 L 5627.343983 1636.578781 L 5634.053284 1632.179264 L 5640.762585 1627.743084 L 5647.508549 1623.233579 L 5654.217851 1618.650749 L 5660.963815 1613.994594 L 5667.673116 1609.301776 L 5674.382417 1604.535632 L 5681.091719 1599.732826 L 5687.837683 1594.856695 L 5694.546984 1589.907238 L 5701.292948 1584.921119 L 5708.00225 1579.861674 L 5714.748214 1574.765567 L 5721.457515 1569.596135 L 5728.166817 1564.39004 L 5734.876118 1559.110619 L 5741.622082 1553.794536 L 5748.331383 1548.441791 L 5755.077347 1543.01572 L 5768.49595 1532.016927 L 5775.241914 1526.444206 L 5781.951216 1520.834822 L 5788.660517 1515.152112 L 5795.406481 1509.469403 L 5802.115782 1503.713368 L 5808.825084 1497.920671 L 5815.571048 1492.091311 L 5822.280349 1486.225288 L 5829.026313 1480.28594 L 5835.735615 1474.346593 L 5842.444916 1468.333919 L 5849.19088 1462.284584 L 5855.900181 1456.235248 L 5862.609483 1450.112587 L 5869.355447 1443.989925 L 5882.774049 1431.597953 L 5889.520014 1425.365304 L 5896.229315 1419.095992 L 5902.938616 1412.790018 L 5909.68458 1406.447381 L 5916.393882 1400.104744 L 5923.103183 1393.725444 L 5929.849147 1387.309482 L 5936.558448 1380.856857 L 5943.304413 1374.404232 L 5956.723015 1361.425657 L 5963.468979 1354.899707 L 5976.887582 1341.774481 L 5983.633546 1335.211868 L 5990.342848 1328.612593 L 5997.052149 1321.976655 L 6003.798113 1315.340717 L 6010.507414 1308.704779 L 6017.253378 1302.032178 L 6023.96268 1295.39624 L 6030.671981 1288.723639 L 6037.417945 1282.014376 L 6044.127247 1275.341775 L 6050.836548 1268.632512 L 6057.582512 1261.923248 L 6064.291813 1255.213985 L 6071.037777 1248.504722 L 6077.747079 1241.758795 L 6084.45638 1235.049532 L 6091.202344 1228.340269 L 6097.911646 1221.594343 L 6104.620947 1214.885079 L 6111.366911 1208.175816 L 6124.785514 1194.757289 L 6131.531478 1188.048026 L 6138.240779 1181.338762 L 6144.95008 1174.666162 L 6151.696045 1167.956898 L 6165.114647 1154.611697 L 6171.860611 1147.975759 L 6178.569913 1141.339821 L 6185.315877 1134.740545 L 6192.025178 1128.104607 L 6198.734479 1121.541994 L 6205.443781 1114.942719 L 6212.189745 1108.416769 L 6218.899046 1101.854156 L 6225.64501 1095.364868 L 6232.354312 1088.838918 L 6239.063613 1082.386293 L 6245.809577 1075.933668 L 6252.518878 1069.517706 L 6259.264843 1063.101744 L 6265.974144 1056.722444 L 6272.683445 1050.41647 L 6279.392747 1044.073833 L 6286.138711 1037.804521 L 6292.848012 1031.53521 L 6299.593976 1025.302561 L 6306.303278 1019.106574 L 6313.012579 1012.94725 L 6319.758543 1006.824589 L 6326.467844 1000.738591 L 6333.177146 994.689255 L 6339.92311 988.676582 L 6346.632411 982.700571 L 6353.341712 976.761223 L 6360.087677 970.858538 L 6366.796978 964.992516 L 6373.542942 959.199818 L 6380.252243 953.407121 L 6386.961545 947.687749 L 6393.707509 942.005039 L 6400.41681 936.358993 L 6407.126111 930.786271 L 6413.872076 925.250212 L 6420.581377 919.750816 L 6427.327341 914.288082 L 6434.036642 908.898674 L 6440.745944 903.545929 L 6447.455245 898.266508 L 6454.201209 893.02375 L 6460.91051 887.854318 L 6467.656475 882.684886 L 6474.365776 877.625441 L 6481.075077 872.602659 L 6487.821041 867.653203 L 6494.530343 862.740409 L 6501.239644 857.864277 L 6507.985608 853.098134 L 6514.694909 848.368653 L 6521.404211 843.675835 L 6528.150175 839.093005 L 6534.859476 834.546837 L 6541.60544 830.037333 L 6548.314742 825.637816 L 6555.024043 821.274961 L 6561.770007 816.985432 L 6568.479309 812.732566 L 6575.18861 808.589687 L 6581.934574 804.483471 L 6588.643875 800.487244 L 6595.353177 796.527678 L 6602.099141 792.604776 L 6608.808442 788.791861 L 6615.554406 785.052272 L 6622.263708 781.386007 L 6628.973009 777.756406 L 6635.718973 774.236792 L 6642.428274 770.753841 L 6649.137576 767.380878 L 6655.88354 764.044578 L 6662.592841 760.818266 L 6669.302142 757.628616 L 6676.048107 754.548954 L 6682.757408 751.505955 L 6689.503372 748.572943 L 6696.212673 745.713257 L 6702.921975 742.926897 L 6709.667939 740.213861 L 6716.37724 737.574151 L 6723.086541 735.007766 L 6729.832506 732.514706 L 6736.541807 730.131635 L 6743.251108 727.821888 L 6749.997072 725.585467 L 6756.706374 723.422371 L 6763.415675 721.332601 L 6770.161639 719.316156 L 6776.87094 717.409698 L 6783.616905 715.576566 L 6790.326206 713.816759 L 6797.035507 712.130278 L 6803.781471 710.553784 L 6810.490773 709.013953 L 6817.200074 707.58411 L 6823.946038 706.264255 L 6830.655339 705.017725 L 6837.364641 703.807858 L 6844.110605 702.707979 L 6850.819906 701.718088 L 6857.56587 700.764859 L 6864.275172 699.958281 L 6870.984473 699.188365 L 6877.693774 698.491775 L 6884.439739 697.905173 L 6891.14904 697.391896 L 6897.895004 696.988607 L 6904.604305 696.62198 L 6911.313607 696.402005 L 6918.059571 696.218691 L 6924.768872 696.145366 L 6931.514836 696.145366 L 6938.224138 696.218691 L 6944.933439 696.402005 L 6951.64274 696.62198 L 6958.388704 696.988607 L 6965.098006 697.391896 L 6971.84397 697.905173 L 6978.553271 698.491775 L 6985.262572 699.188365 L 6992.008537 699.958281 L 6998.717838 700.764859 L 7005.427139 701.718088 L 7012.173103 702.707979 L 7018.882405 703.807858 L 7025.591706 705.017725 L 7032.33767 706.264255 L 7039.046971 707.620773 L 7045.756273 709.013953 L 7052.502237 710.553784 L 7059.211538 712.130278 L 7065.957502 713.816759 L 7072.666804 715.576566 L 7079.376105 717.409698 L 7086.122069 719.316156 L 7092.83137 721.332601 L 7099.577335 723.422371 L 7106.286636 725.585467 L 7112.995937 727.821888 L 7119.705239 730.131635 L 7126.451203 732.551369 L 7133.160504 735.007766 L 7139.906468 737.574151 L 7146.61577 740.213861 L 7153.325071 742.926897 L 7160.071035 745.713257 L 7166.780336 748.572943 L 7173.489638 751.542617 L 7180.235602 754.548954 L 7186.944903 757.628616 L 7193.654204 760.818266 L 7200.400169 764.044578 L 7207.10947 767.380878 L 7213.855434 770.753841 L 7220.564735 774.236792 L 7227.274037 777.756406 L 7234.020001 781.386007 L 7240.729302 785.052272 L 7247.438603 788.791861 L 7254.184568 792.641438 L 7260.893869 796.527678 L 7267.60317 800.487244 L 7274.349134 804.483471 L 7281.058436 808.589687 L 7287.767737 812.732566 L 7294.513701 816.985432 L 7301.223002 821.274961 L 7307.932304 825.637816 L 7314.678268 830.037333 L 7321.387569 834.546837 L 7328.133533 839.093005 L 7334.842835 843.675835 L 7341.552136 848.368653 L 7348.2981 853.098134 L 7355.007401 857.90094 L 7361.716703 862.740409 L 7368.462667 867.653203 L 7375.171968 872.602659 L 7381.917932 877.625441 L 7388.627234 882.721548 L 7395.336535 887.854318 L 7402.082499 893.02375 L 7408.7918 898.266508 L 7415.501102 903.545929 L 7422.247066 908.898674 L 7428.956367 914.288082 L 7435.665669 919.750816 L 7442.411633 925.250212 L 7449.120934 930.786271 L 7455.866898 936.395655 L 7462.5762 942.005039 L 7469.285501 947.687749 L 7475.994802 953.443784 L 7482.740766 959.199818 L 7489.450068 964.992516 L 7496.196032 970.858538 L 7502.905333 976.761223 L 7509.614634 982.700571 L 7516.360599 988.676582 L 7523.0699 994.689255 L 7529.779201 1000.738591 L 7536.525165 1006.824589 L 7543.234467 1012.94725 L 7549.943768 1019.106574 L 7556.689732 1025.302561 L 7563.399033 1031.53521 L 7570.108335 1037.804521 L 7576.854299 1044.073833 L 7583.5636 1050.41647 L 7590.272902 1056.722444 L 7597.018866 1063.101744 L 7603.728167 1069.517706 L 7610.474131 1075.933668 L 7617.183432 1082.386293 L 7630.602035 1095.364868 L 7637.347999 1101.854156 L 7644.057301 1108.416769 L 7650.803265 1114.942719 L 7657.512566 1121.541994 L 7664.221867 1128.104607 L 7670.967831 1134.740545 L 7677.677133 1141.339821 L 7684.386434 1147.975759 L 7691.132398 1154.64836 L 7697.8417 1161.284298 L 7704.587664 1167.956898 L 7711.296965 1174.666162 L 7718.006266 1181.338762 L 7724.75223 1188.048026 L 7738.170833 1201.466553 L 7744.916797 1208.175816 L 7771.790665 1235.049532 L 7778.53663 1241.758795 L 7785.245931 1248.504722 L 7791.955232 1255.213985 L 7798.701196 1261.923248 L 7812.119799 1275.341775 L 7818.865763 1282.014376 L 7825.575064 1288.723639 L 7832.284366 1295.39624 L 7839.03033 1302.032178 L 7845.739631 1308.704779 L 7852.448932 1315.340717 L 7859.194897 1321.976655 L 7872.613499 1335.175206 L 7879.359463 1341.774481 L 7886.068765 1348.337094 L 7892.814729 1354.899707 L 7899.52403 1361.425657 L 7912.942633 1374.404232 L 7919.688597 1380.856857 L 7926.397898 1387.309482 L 7933.143862 1393.725444 L 7939.853164 1400.104744 L 7946.562465 1406.447381 L 7953.308429 1412.790018 L 7960.017731 1419.095992 L 7966.727032 1425.365304 L 7973.472996 1431.597953 L 7980.182297 1437.793939 L 7986.928261 1443.989925 L 8000.346864 1456.235248 L 8007.092828 1462.284584 L 8013.80213 1468.333919 L 8020.511431 1474.346593 L 8027.257395 1480.28594 L 8040.675998 1492.091311 L 8047.421962 1497.920671 L 8054.131263 1503.713368 L 8060.877227 1509.469403 L 8074.29583 1520.834822 L 8081.005131 1526.444206 L 8087.751095 1532.016927 L 8094.460397 1537.516324 L 8101.206361 1543.01572 L 8114.624963 1553.794536 L 8121.370928 1559.110619 L 8128.080229 1564.39004 L 8134.78953 1569.596135 L 8141.535494 1574.765567 L 8148.244796 1579.861674 L 8154.954097 1584.921119 L 8161.700061 1589.907238 L 8168.409362 1594.856695 L 8175.118664 1599.732826 L 8181.864628 1604.535632 L 8188.573929 1609.301776 L 8195.283231 1613.994594 L 8202.029195 1618.650749 L 8208.738496 1623.233579 L 8215.48446 1627.743084 L 8222.193762 1632.179264 L 8228.903063 1636.578781 L 8235.649027 1640.904972 L 8242.358328 1645.157839 L 8249.06763 1649.33738 L 8255.813594 1653.480258 L 8262.522895 1657.549812 L 8269.232196 1661.54604 L 8275.978161 1665.468942 L 8282.687462 1669.31852 L 8289.433426 1673.094772 L 8296.142727 1676.797698 L 8302.852029 1680.463963 L 8309.597993 1684.020239 L 8316.307294 1687.539852 L 8323.016595 1690.949478 L 8329.76256 1694.322441 L 8336.471861 1697.585416 L 8343.217825 1700.811728 L 8349.927126 1703.928053 L 8356.636428 1707.007715 L 8363.345729 1709.977389 L 8370.091693 1712.873737 L 8376.800994 1715.696761 L 8383.546959 1718.446459 L 8390.25626 1721.122832 L 8396.965561 1723.725879 L 8403.711525 1726.255602 L 8410.420827 1728.675336 L 8417.130128 1731.058408 L 8423.876092 1733.331491 L 8430.585393 1735.53125 L 8437.294695 1737.657683 L 8444.040659 1739.710791 L 8450.74996 1741.653911 L 8457.459262 1743.523706 L 8464.205226 1745.356838 L 8470.914527 1747.043319 L 8477.623828 1748.693138 L 8484.369793 1750.232969 L 8491.079094 1751.699475 L 8497.825058 1753.092655 L 8504.534359 1754.41251 L 8511.243661 1755.622377 L 8517.952962 1756.758919 L 8524.698926 1757.822136 L 8531.408227 1758.775365 L 8538.154192 1759.655268 L 8544.863493 1760.461846 L 8551.572794 1761.195099 L 8558.318758 1761.818364 L 8565.02806 1762.368303 L 8571.737361 1762.844918 L 8578.483325 1763.211544 L 8585.192626 1763.504845 L 8591.901928 1763.724821 L 8598.647892 1763.834809 L 8605.357193 1763.908134 " transform="matrix(0.106545,0,0,-0.106546,0,264.4487)"/>
<path style=" stroke:none;fill-rule:nonzero;fill:rgb(0%,0%,0%);fill-opacity:1;" d="M 497.527344 132.796875 L 951.582031 132.796875 L 951.582031 133.996094 L 497.527344 133.996094 C 497.195312 133.996094 496.925781 133.726562 496.925781 133.394531 C 496.925781 133.066406 497.195312 132.796875 497.527344 132.796875 Z M 964.996094 133.394531 L 948.214844 128.601562 L 951.570312 132.796875 L 951.570312 133.996094 L 948.214844 138.191406 Z M 964.996094 133.394531 "/>
<path style=" stroke:none;fill-rule:nonzero;fill:rgb(0%,0%,0%);fill-opacity:1;" d="M 558.855469 232.210938 L 558.855469 21.972656 L 560.054688 21.972656 L 560.054688 232.210938 C 560.054688 232.542969 559.785156 232.808594 559.457031 232.808594 C 559.125 232.808594 558.855469 232.542969 558.855469 232.210938 Z M 559.457031 8.558594 L 554.660156 25.339844 L 558.855469 21.984375 L 560.054688 21.984375 L 564.25 25.339844 Z M 559.457031 8.558594 "/>
<path style=" stroke:none;fill-rule:evenodd;fill:rgb(0%,0%,0%);fill-opacity:1;" d="M 551.515625 147.914062 C 551.253906 148.925781 550.835938 149.902344 550.257812 150.84375 C 549.679688 151.785156 548.953125 152.644531 548.078125 153.425781 C 547.289062 154.128906 546.425781 154.691406 545.488281 155.105469 C 544.550781 155.519531 543.613281 155.726562 542.671875 155.726562 C 541.722656 155.726562 540.882812 155.515625 540.144531 155.097656 C 539.410156 154.679688 538.824219 154.117188 538.386719 153.402344 C 537.902344 152.617188 537.628906 151.746094 537.554688 150.789062 C 537.527344 150.558594 537.511719 150.332031 537.511719 150.101562 C 537.511719 149.382812 537.605469 148.640625 537.792969 147.871094 C 538.066406 146.847656 538.488281 145.855469 539.058594 144.886719 C 539.628906 143.921875 540.359375 143.050781 541.25 142.265625 C 542.039062 141.5625 542.902344 140.996094 543.839844 140.570312 C 544.777344 140.140625 545.722656 139.925781 546.679688 139.925781 C 547.625 139.925781 548.464844 140.144531 549.191406 140.574219 C 549.921875 141.007812 550.503906 141.578125 550.941406 142.289062 C 551.425781 143.078125 551.707031 143.957031 551.792969 144.921875 C 551.808594 145.160156 551.816406 145.394531 551.816406 145.625 C 551.816406 146.371094 551.714844 147.132812 551.515625 147.914062 Z M 549.339844 142.644531 C 549.101562 142.058594 548.746094 141.582031 548.273438 141.21875 C 547.796875 140.851562 547.214844 140.667969 546.527344 140.667969 C 545.84375 140.667969 545.167969 140.855469 544.492188 141.226562 C 543.816406 141.601562 543.214844 142.085938 542.683594 142.675781 C 542.015625 143.394531 541.488281 144.171875 541.097656 145.011719 C 540.710938 145.855469 540.410156 146.707031 540.195312 147.570312 C 539.941406 148.511719 539.789062 149.429688 539.730469 150.320312 C 539.71875 150.488281 539.710938 150.65625 539.710938 150.820312 C 539.710938 151.519531 539.824219 152.203125 540.054688 152.871094 C 540.277344 153.464844 540.617188 153.960938 541.078125 154.363281 C 541.539062 154.761719 542.113281 154.960938 542.800781 154.960938 C 543.511719 154.960938 544.207031 154.757812 544.886719 154.351562 C 545.5625 153.941406 546.171875 153.4375 546.710938 152.839844 C 547.40625 152.03125 547.949219 151.175781 548.335938 150.277344 C 548.726562 149.378906 549.039062 148.460938 549.285156 147.527344 C 549.507812 146.65625 549.648438 145.800781 549.703125 144.953125 L 549.703125 144.589844 C 549.703125 143.894531 549.582031 143.242188 549.339844 142.644531 Z M 549.339844 142.644531 "/>
<path style="fill:none;stroke-width:15;stroke-linecap:round;stroke-linejoin:round;stroke:rgb(0%,0%,0%);stroke-opacity:1;stroke-dasharray:60,30;stroke-miterlimit:10;" d="M 5250.853189 1768.637615 L 8602.314177 1768.637615 " transform="matrix(0.106545,0,0,-0.106546,0,264.4487)"/>
<path style=" stroke:none;fill-rule:evenodd;fill:rgb(0%,0%,0%);fill-opacity:1;" d="M 552.507812 81.554688 C 551.210938 81.511719 549.953125 81.492188 548.726562 81.492188 C 547.503906 81.492188 546.246094 81.511719 544.949219 81.554688 L 544.949219 80.671875 L 545.679688 80.671875 C 545.910156 80.671875 546.128906 80.671875 546.332031 80.664062 C 546.535156 80.65625 546.730469 80.640625 546.914062 80.613281 C 547.097656 80.585938 547.253906 80.558594 547.386719 80.527344 C 547.5 80.507812 547.59375 80.445312 547.667969 80.339844 C 547.742188 80.234375 547.777344 80.117188 547.777344 79.984375 L 547.777344 68.4375 C 547.425781 68.609375 546.992188 68.738281 546.480469 68.828125 C 545.964844 68.917969 545.402344 68.960938 544.792969 68.960938 L 544.792969 68.089844 C 545.636719 68.089844 546.414062 67.988281 547.128906 67.789062 C 547.84375 67.585938 548.460938 67.207031 548.980469 66.652344 L 549.308594 66.652344 C 549.539062 66.652344 549.65625 66.765625 549.65625 66.992188 L 549.65625 79.984375 C 549.65625 80.125 549.691406 80.242188 549.761719 80.34375 C 549.832031 80.449219 549.9375 80.507812 550.070312 80.527344 C 550.179688 80.558594 550.328125 80.585938 550.5 80.613281 C 550.679688 80.640625 550.875 80.65625 551.097656 80.664062 C 551.320312 80.671875 551.535156 80.671875 551.746094 80.671875 L 552.507812 80.671875 Z M 552.507812 81.554688 "/>
<path style="fill:none;stroke-width:15;stroke-linecap:round;stroke-linejoin:round;stroke:rgb(0%,0%,0%);stroke-opacity:1;stroke-dasharray:60,30;stroke-miterlimit:10;" d="M 5250.853189 700.50822 L 6926.565352 695.302125 " transform="matrix(0.106545,0,0,-0.106546,0,264.4487)"/>
<path style="fill:none;stroke-width:0.402;stroke-linecap:round;stroke-linejoin:round;stroke:rgb(0%,0%,0%);stroke-opacity:1;stroke-miterlimit:10;" d="M 1.874712 7.878924 L 6.237564 7.878925 " transform="matrix(2.130917,0.000000427979,0,-2.130901,530.266863,205.804833)"/>
<path style=" stroke:none;fill-rule:evenodd;fill:rgb(0%,0%,0%);fill-opacity:1;" d="M 554.984375 195.363281 C 553.691406 195.320312 552.433594 195.300781 551.207031 195.300781 C 549.984375 195.300781 548.722656 195.320312 547.429688 195.363281 L 547.429688 194.480469 L 548.15625 194.480469 C 548.390625 194.480469 548.609375 194.476562 548.8125 194.472656 C 549.015625 194.464844 549.207031 194.449219 549.390625 194.417969 C 549.574219 194.394531 549.734375 194.367188 549.867188 194.335938 C 549.980469 194.316406 550.074219 194.253906 550.148438 194.148438 C 550.222656 194.042969 550.257812 193.925781 550.257812 193.792969 L 550.257812 182.246094 C 549.90625 182.417969 549.472656 182.546875 548.960938 182.636719 C 548.445312 182.726562 547.882812 182.769531 547.269531 182.769531 L 547.269531 181.894531 C 548.113281 181.894531 548.894531 181.796875 549.609375 181.59375 C 550.324219 181.394531 550.941406 181.015625 551.460938 180.460938 L 551.789062 180.460938 C 552.019531 180.460938 552.136719 180.574219 552.136719 180.800781 L 552.136719 193.792969 C 552.136719 193.929688 552.171875 194.050781 552.242188 194.152344 C 552.3125 194.253906 552.414062 194.316406 552.546875 194.335938 C 552.660156 194.367188 552.804688 194.394531 552.980469 194.417969 C 553.15625 194.449219 553.355469 194.464844 553.578125 194.472656 C 553.796875 194.476562 554.015625 194.480469 554.226562 194.480469 L 554.984375 194.480469 Z M 554.984375 195.363281 "/>
<path style=" stroke:none;fill-rule:evenodd;fill:rgb(0%,0%,0%);fill-opacity:1;" d="M 742.648438 143.59375 C 742.898438 143.601562 743.070312 143.683594 743.164062 143.84375 C 743.214844 143.949219 743.242188 144.058594 743.242188 144.167969 L 743.242188 144.335938 C 743.191406 144.523438 743.085938 144.691406 742.929688 144.832031 C 742.769531 144.976562 742.566406 145.046875 742.3125 145.046875 L 739.621094 145.046875 C 739.371094 146.199219 739.246094 147.347656 739.246094 148.496094 L 739.246094 148.664062 C 739.257812 149.863281 739.5 150.980469 739.964844 152.011719 C 740.015625 152.109375 740.042969 152.21875 740.042969 152.335938 C 740.042969 152.453125 740.007812 152.5625 739.945312 152.660156 C 739.828125 152.863281 739.675781 153.019531 739.480469 153.128906 C 739.300781 153.234375 739.117188 153.289062 738.921875 153.296875 C 738.878906 153.296875 738.847656 153.289062 738.835938 153.277344 C 738.621094 153.277344 738.460938 153.15625 738.359375 152.910156 C 738.132812 152.394531 737.996094 151.820312 737.953125 151.183594 C 737.9375 150.949219 737.929688 150.71875 737.929688 150.496094 C 737.929688 150.078125 737.960938 149.636719 738.015625 149.175781 C 738.089844 148.472656 738.207031 147.757812 738.371094 147.035156 C 738.539062 146.308594 738.695312 145.648438 738.847656 145.046875 L 736.605469 145.046875 C 736.441406 145.675781 736.253906 146.398438 736.039062 147.21875 C 735.828125 148.035156 735.617188 148.820312 735.410156 149.570312 C 735.203125 150.320312 735.015625 150.976562 734.851562 151.546875 C 734.6875 152.113281 734.558594 152.480469 734.472656 152.648438 C 734.34375 152.921875 734.171875 153.09375 733.957031 153.171875 C 733.796875 153.234375 733.652344 153.269531 733.515625 153.277344 C 733.441406 153.277344 733.382812 153.265625 733.332031 153.246094 C 733.125 153.210938 732.976562 153.101562 732.890625 152.921875 C 732.839844 152.851562 732.816406 152.769531 732.816406 152.667969 C 732.816406 152.542969 732.855469 152.40625 732.933594 152.25 C 733.535156 151.039062 734.085938 149.824219 734.585938 148.613281 C 735.085938 147.398438 735.5 146.210938 735.828125 145.046875 L 734.398438 145.046875 C 733.902344 145.046875 733.429688 145.214844 732.976562 145.542969 C 732.523438 145.875 732.152344 146.289062 731.855469 146.78125 C 731.742188 146.894531 731.632812 146.949219 731.53125 146.949219 L 731.296875 146.949219 C 731.1875 146.875 731.132812 146.78125 731.132812 146.679688 L 731.132812 146.613281 C 731.285156 146.238281 731.480469 145.875 731.722656 145.519531 C 731.960938 145.164062 732.238281 144.84375 732.546875 144.554688 C 732.855469 144.269531 733.195312 144.039062 733.5625 143.859375 C 733.933594 143.683594 734.324219 143.59375 734.730469 143.59375 Z M 742.648438 143.59375 "/>
<path style=" stroke:none;fill-rule:evenodd;fill:rgb(0%,0%,0%);fill-opacity:1;" d="M 913.386719 155.167969 L 904.796875 155.167969 L 904.796875 154.605469 C 904.796875 154.566406 904.816406 154.503906 904.859375 154.421875 L 908.308594 150.667969 C 908.71875 150.21875 909.132812 149.757812 909.550781 149.285156 C 909.96875 148.816406 910.34375 148.332031 910.675781 147.84375 C 911.003906 147.351562 911.269531 146.84375 911.464844 146.320312 C 911.664062 145.796875 911.761719 145.25 911.761719 144.675781 C 911.761719 144.191406 911.699219 143.738281 911.570312 143.316406 C 911.445312 142.898438 911.261719 142.53125 911.023438 142.210938 C 910.785156 141.890625 910.484375 141.636719 910.125 141.441406 C 909.765625 141.246094 909.351562 141.152344 908.878906 141.148438 C 908.175781 141.152344 907.554688 141.359375 907.015625 141.78125 C 906.480469 142.203125 906.121094 142.664062 905.945312 143.167969 C 905.910156 143.179688 905.96875 143.191406 906.113281 143.1875 L 906.292969 143.1875 C 906.503906 143.238281 906.6875 143.3125 906.84375 143.410156 C 906.996094 143.511719 907.128906 143.644531 907.234375 143.820312 C 907.339844 143.992188 907.390625 144.203125 907.390625 144.449219 C 907.390625 144.859375 907.257812 145.175781 906.992188 145.394531 C 906.722656 145.613281 906.425781 145.722656 906.09375 145.71875 C 905.777344 145.722656 905.480469 145.613281 905.207031 145.394531 C 904.933594 145.175781 904.796875 144.859375 904.796875 144.449219 C 904.796875 143.875 904.90625 143.332031 905.132812 142.820312 C 905.359375 142.308594 905.664062 141.863281 906.050781 141.488281 C 906.4375 141.113281 906.894531 140.816406 907.421875 140.597656 C 907.949219 140.378906 908.511719 140.269531 909.101562 140.269531 C 909.832031 140.269531 910.503906 140.378906 911.113281 140.59375 C 911.722656 140.808594 912.238281 141.117188 912.667969 141.519531 C 913.097656 141.921875 913.433594 142.390625 913.675781 142.917969 C 913.921875 143.449219 914.042969 144.035156 914.042969 144.675781 C 914.042969 145.386719 913.878906 146.039062 913.554688 146.636719 C 913.230469 147.234375 912.832031 147.785156 912.351562 148.28125 C 911.875 148.78125 911.367188 149.25 910.828125 149.691406 C 910.289062 150.132812 909.800781 150.5625 909.367188 150.976562 L 906.9375 153.261719 L 910.113281 153.261719 C 910.558594 153.261719 910.972656 153.261719 911.355469 153.253906 C 911.738281 153.246094 912.0625 153.234375 912.332031 153.210938 C 912.597656 153.191406 912.738281 153.179688 912.742188 153.171875 C 912.800781 153.121094 912.851562 153.027344 912.902344 152.882812 C 912.949219 152.742188 912.996094 152.570312 913.039062 152.375 C 913.082031 152.183594 913.125 151.984375 913.164062 151.78125 C 913.207031 151.582031 913.246094 151.359375 913.28125 151.121094 L 914.0625 151.121094 Z M 913.386719 155.167969 "/>
<path style=" stroke:none;fill-rule:evenodd;fill:rgb(0%,0%,0%);fill-opacity:1;" d="M 927.535156 145.8125 C 927.785156 145.820312 927.960938 145.902344 928.050781 146.0625 C 928.101562 146.167969 928.128906 146.277344 928.128906 146.386719 L 928.128906 146.554688 C 928.078125 146.742188 927.972656 146.910156 927.816406 147.050781 C 927.65625 147.195312 927.453125 147.265625 927.199219 147.265625 L 924.507812 147.265625 C 924.257812 148.417969 924.132812 149.566406 924.132812 150.714844 L 924.132812 150.882812 C 924.144531 152.082031 924.386719 153.199219 924.851562 154.230469 C 924.902344 154.328125 924.925781 154.4375 924.925781 154.554688 C 924.925781 154.671875 924.894531 154.78125 924.832031 154.878906 C 924.714844 155.082031 924.5625 155.238281 924.367188 155.347656 C 924.191406 155.453125 924.003906 155.507812 923.808594 155.515625 C 923.765625 155.515625 923.734375 155.507812 923.722656 155.496094 C 923.507812 155.496094 923.347656 155.375 923.246094 155.128906 C 923.019531 154.613281 922.882812 154.039062 922.839844 153.402344 C 922.824219 153.167969 922.816406 152.9375 922.816406 152.714844 C 922.816406 152.296875 922.84375 151.855469 922.902344 151.394531 C 922.976562 150.691406 923.09375 149.980469 923.257812 149.253906 C 923.425781 148.527344 923.582031 147.867188 923.730469 147.265625 L 921.492188 147.265625 C 921.328125 147.894531 921.140625 148.617188 920.925781 149.4375 C 920.714844 150.257812 920.503906 151.039062 920.296875 151.789062 C 920.089844 152.539062 919.902344 153.199219 919.738281 153.765625 C 919.570312 154.335938 919.445312 154.703125 919.359375 154.867188 C 919.230469 155.140625 919.058594 155.3125 918.84375 155.390625 C 918.683594 155.453125 918.539062 155.488281 918.402344 155.496094 C 918.328125 155.496094 918.269531 155.484375 918.21875 155.464844 C 918.011719 155.429688 917.863281 155.320312 917.777344 155.140625 C 917.726562 155.070312 917.699219 154.988281 917.699219 154.890625 C 917.699219 154.765625 917.742188 154.625 917.820312 154.472656 C 918.421875 153.257812 918.972656 152.046875 919.472656 150.832031 C 919.972656 149.621094 920.386719 148.429688 920.714844 147.265625 L 919.285156 147.265625 C 918.789062 147.265625 918.316406 147.433594 917.863281 147.761719 C 917.410156 148.09375 917.035156 148.507812 916.742188 149 C 916.628906 149.113281 916.519531 149.167969 916.417969 149.167969 L 916.183594 149.167969 C 916.074219 149.09375 916.019531 149.003906 916.019531 148.898438 L 916.019531 148.835938 C 916.171875 148.457031 916.367188 148.09375 916.609375 147.738281 C 916.847656 147.382812 917.125 147.0625 917.433594 146.773438 C 917.742188 146.488281 918.082031 146.257812 918.449219 146.078125 C 918.820312 145.902344 919.210938 145.8125 919.617188 145.8125 Z M 927.535156 145.8125 "/>
<path style=" stroke:none;fill-rule:evenodd;fill:rgb(0%,0%,0%);fill-opacity:1;" d="M 948.28125 113.074219 C 948.453125 113.738281 948.539062 114.414062 948.539062 115.101562 C 948.539062 115.320312 948.53125 115.527344 948.519531 115.730469 C 948.445312 116.648438 948.292969 117.574219 948.054688 118.5 C 947.796875 119.433594 947.46875 120.359375 947.074219 121.277344 C 946.679688 122.195312 946.15625 123.074219 945.503906 123.917969 C 945.28125 124.203125 945.035156 124.484375 944.765625 124.765625 C 944.496094 125.042969 944.207031 125.292969 943.898438 125.511719 C 943.589844 125.730469 943.269531 125.910156 942.933594 126.050781 C 942.601562 126.191406 942.25 126.257812 941.882812 126.257812 C 941.511719 126.257812 941.1875 126.1875 940.917969 126.046875 C 940.648438 125.902344 940.417969 125.71875 940.226562 125.492188 C 940.03125 125.265625 939.871094 125.011719 939.746094 124.734375 C 939.621094 124.453125 939.519531 124.167969 939.4375 123.875 C 939.257812 123.226562 939.167969 122.558594 939.167969 121.867188 C 939.167969 121.644531 939.183594 121.425781 939.210938 121.207031 C 939.269531 120.304688 939.425781 119.386719 939.675781 118.457031 C 939.914062 117.523438 940.230469 116.601562 940.632812 115.6875 C 941.035156 114.773438 941.570312 113.890625 942.238281 113.042969 C 942.460938 112.757812 942.707031 112.472656 942.972656 112.191406 C 943.238281 111.910156 943.519531 111.65625 943.820312 111.4375 C 944.125 111.21875 944.441406 111.039062 944.777344 110.898438 C 945.109375 110.761719 945.464844 110.691406 945.835938 110.691406 C 946.210938 110.691406 946.53125 110.761719 946.796875 110.90625 C 947.058594 111.046875 947.296875 111.230469 947.5 111.453125 C 947.707031 111.675781 947.867188 111.933594 947.984375 112.21875 C 948.105469 112.503906 948.203125 112.789062 948.28125 113.074219 Z M 946.828125 113.316406 C 946.796875 113.042969 946.761719 112.789062 946.71875 112.550781 C 946.675781 112.316406 946.613281 112.109375 946.53125 111.933594 C 946.449219 111.761719 946.34375 111.625 946.214844 111.53125 C 946.082031 111.4375 945.917969 111.390625 945.71875 111.390625 C 945.300781 111.390625 944.917969 111.585938 944.566406 111.96875 C 944.214844 112.359375 943.871094 112.820312 943.542969 113.355469 C 943.070312 114.121094 942.703125 114.910156 942.445312 115.71875 C 942.183594 116.527344 941.960938 117.308594 941.777344 118.0625 L 946.160156 118.0625 C 946.351562 117.273438 946.53125 116.472656 946.699219 115.65625 C 946.8125 115.105469 946.871094 114.5625 946.871094 114.023438 C 946.871094 113.789062 946.855469 113.550781 946.828125 113.316406 Z M 941.550781 118.90625 C 941.355469 119.695312 941.1875 120.492188 941.042969 121.292969 C 940.929688 121.871094 940.871094 122.449219 940.871094 123.027344 C 940.871094 123.246094 940.878906 123.453125 940.894531 123.65625 C 940.90625 123.929688 940.941406 124.183594 940.988281 124.417969 C 941.039062 124.65625 941.105469 124.859375 941.1875 125.03125 C 941.269531 125.203125 941.382812 125.335938 941.519531 125.429688 C 941.652344 125.523438 941.820312 125.570312 942.011719 125.570312 C 942.421875 125.570312 942.804688 125.378906 943.160156 124.996094 C 943.515625 124.613281 943.851562 124.152344 944.167969 123.613281 C 944.640625 122.832031 945.007812 122.042969 945.265625 121.242188 C 945.523438 120.4375 945.746094 119.660156 945.933594 118.90625 Z M 941.550781 118.90625 "/>
<path style=" stroke:none;fill-rule:evenodd;fill:rgb(0%,0%,0%);fill-opacity:1;" d="M 517.769531 32.402344 C 517.648438 33.273438 517.238281 33.972656 516.535156 34.5 C 515.835938 35.027344 514.992188 35.289062 514 35.289062 C 513.339844 35.289062 512.710938 35.160156 512.117188 34.902344 C 511.519531 34.644531 511 34.289062 510.554688 33.835938 C 510.089844 33.363281 509.734375 32.824219 509.492188 32.226562 C 509.253906 31.625 509.132812 31 509.132812 30.34375 C 509.132812 29.675781 509.253906 29.03125 509.488281 28.410156 C 509.726562 27.789062 510.082031 27.238281 510.554688 26.757812 C 511 26.289062 511.519531 25.925781 512.117188 25.664062 C 512.710938 25.402344 513.339844 25.273438 514 25.269531 C 514.417969 25.273438 514.832031 25.316406 515.25 25.402344 C 515.667969 25.488281 516.042969 25.628906 516.375 25.816406 C 516.710938 26.003906 516.984375 26.25 517.199219 26.554688 C 517.414062 26.855469 517.523438 27.214844 517.523438 27.625 C 517.523438 27.988281 517.40625 28.261719 517.171875 28.449219 C 516.9375 28.640625 516.683594 28.734375 516.402344 28.734375 C 516.121094 28.734375 515.867188 28.640625 515.632812 28.449219 C 515.398438 28.261719 515.28125 27.988281 515.28125 27.625 C 515.28125 27.261719 515.40625 26.984375 515.660156 26.789062 C 515.875 26.632812 516.109375 26.554688 516.359375 26.546875 L 516.152344 26.546875 C 516.03125 26.4375 515.765625 26.320312 515.359375 26.199219 C 514.949219 26.074219 514.496094 26.015625 514 26.011719 C 513.597656 26.015625 513.214844 26.121094 512.84375 26.339844 C 512.472656 26.554688 512.167969 26.84375 511.921875 27.207031 C 511.628906 27.660156 511.433594 28.152344 511.339844 28.679688 C 511.25 29.210938 511.199219 29.765625 511.199219 30.34375 C 511.199219 30.894531 511.257812 31.425781 511.367188 31.941406 C 511.480469 32.460938 511.691406 32.933594 512.007812 33.363281 C 512.265625 33.722656 512.585938 34.003906 512.960938 34.21875 C 513.339844 34.429688 513.734375 34.535156 514.152344 34.535156 C 514.917969 34.535156 515.542969 34.332031 516.023438 33.917969 C 516.507812 33.507812 516.832031 32.976562 517.003906 32.328125 C 517.046875 32.164062 517.152344 32.078125 517.316406 32.078125 L 517.511719 32.097656 C 517.683594 32.140625 517.769531 32.242188 517.769531 32.402344 Z M 517.769531 32.402344 "/>
<path style=" stroke:none;fill-rule:evenodd;fill:rgb(0%,0%,0%);fill-opacity:1;" d="M 528.601562 30.382812 C 528.601562 31.039062 528.476562 31.667969 528.226562 32.265625 C 527.976562 32.867188 527.609375 33.398438 527.125 33.855469 C 526.667969 34.304688 526.136719 34.652344 525.535156 34.90625 C 524.929688 35.160156 524.292969 35.289062 523.617188 35.289062 C 522.941406 35.289062 522.304688 35.164062 521.699219 34.914062 C 521.097656 34.664062 520.5625 34.308594 520.09375 33.855469 C 519.605469 33.390625 519.242188 32.859375 518.996094 32.261719 C 518.753906 31.667969 518.632812 31.039062 518.632812 30.382812 C 518.632812 29.714844 518.753906 29.070312 519.003906 28.449219 C 519.25 27.832031 519.613281 27.273438 520.09375 26.777344 C 520.554688 26.308594 521.089844 25.941406 521.695312 25.675781 C 522.300781 25.40625 522.941406 25.273438 523.617188 25.269531 C 524.292969 25.273438 524.929688 25.40625 525.535156 25.675781 C 526.136719 25.941406 526.667969 26.308594 527.125 26.777344 C 527.613281 27.28125 527.984375 27.839844 528.230469 28.457031 C 528.476562 29.074219 528.601562 29.714844 528.601562 30.382812 Z M 526.554688 30.144531 C 526.554688 29.609375 526.519531 29.078125 526.445312 28.554688 C 526.367188 28.03125 526.183594 27.554688 525.886719 27.121094 C 525.617188 26.753906 525.28125 26.464844 524.886719 26.261719 C 524.492188 26.054688 524.070312 25.953125 523.617188 25.949219 C 523.164062 25.953125 522.742188 26.054688 522.347656 26.261719 C 521.953125 26.464844 521.617188 26.753906 521.34375 27.121094 C 521.050781 27.546875 520.867188 28.023438 520.789062 28.550781 C 520.714844 29.078125 520.675781 29.609375 520.675781 30.144531 C 520.675781 30.710938 520.710938 31.269531 520.78125 31.824219 C 520.847656 32.378906 521.035156 32.886719 521.34375 33.355469 C 521.589844 33.71875 521.914062 34.003906 522.324219 34.21875 C 522.734375 34.429688 523.164062 34.535156 523.617188 34.535156 C 524.070312 34.535156 524.5 34.429688 524.910156 34.21875 C 525.316406 34.003906 525.644531 33.71875 525.886719 33.355469 C 526.199219 32.886719 526.386719 32.378906 526.457031 31.824219 C 526.523438 31.269531 526.554688 30.710938 526.554688 30.144531 Z M 526.554688 30.144531 "/>
<path style=" stroke:none;fill-rule:evenodd;fill:rgb(0%,0%,0%);fill-opacity:1;" d="M 537.027344 32.183594 C 537.027344 32.609375 536.953125 33.027344 536.804688 33.433594 C 536.652344 33.839844 536.398438 34.195312 536.039062 34.492188 C 535.652344 34.800781 535.222656 35.011719 534.75 35.121094 C 534.28125 35.234375 533.804688 35.289062 533.324219 35.289062 C 532.792969 35.289062 532.332031 35.203125 531.933594 35.027344 C 531.539062 34.851562 531.214844 34.640625 530.964844 34.390625 L 530.277344 35.183594 C 530.21875 35.246094 530.132812 35.28125 530.019531 35.289062 L 529.953125 35.289062 C 529.738281 35.289062 529.628906 35.179688 529.628906 34.964844 L 529.628906 31.515625 C 529.628906 31.359375 529.710938 31.261719 529.878906 31.222656 C 529.929688 31.207031 529.972656 31.199219 530.019531 31.199219 C 530.074219 31.199219 530.128906 31.210938 530.179688 31.230469 C 530.285156 31.273438 530.359375 31.347656 530.394531 31.449219 C 530.582031 32.40625 530.902344 33.171875 531.351562 33.742188 C 531.804688 34.3125 532.460938 34.597656 533.324219 34.597656 C 533.667969 34.597656 534.003906 34.566406 534.324219 34.5 C 534.648438 34.433594 534.929688 34.304688 535.164062 34.105469 C 535.359375 33.949219 535.503906 33.75 535.597656 33.515625 C 535.691406 33.285156 535.738281 33.03125 535.738281 32.757812 C 535.738281 32.3125 535.5625 31.929688 535.210938 31.613281 C 534.859375 31.296875 534.421875 31.085938 533.90625 30.980469 L 532.421875 30.675781 C 532.058594 30.609375 531.714844 30.5 531.378906 30.347656 C 531.046875 30.199219 530.75 30.015625 530.496094 29.792969 C 530.242188 29.574219 530.035156 29.316406 529.871094 29.015625 C 529.710938 28.714844 529.628906 28.382812 529.628906 28.019531 C 529.628906 27.625 529.714844 27.242188 529.882812 26.875 C 530.050781 26.511719 530.304688 26.210938 530.644531 25.972656 C 531.035156 25.679688 531.472656 25.488281 531.945312 25.402344 C 532.421875 25.316406 532.878906 25.273438 533.324219 25.269531 C 534.140625 25.273438 534.804688 25.460938 535.304688 25.835938 L 535.867188 25.332031 C 535.949219 25.292969 536.023438 25.273438 536.082031 25.269531 L 536.15625 25.269531 C 536.371094 25.273438 536.480469 25.371094 536.480469 25.5625 L 536.480469 28.34375 C 536.480469 28.554688 536.371094 28.664062 536.15625 28.667969 L 536.039062 28.667969 C 535.824219 28.671875 535.714844 28.5625 535.714844 28.34375 C 535.714844 27.585938 535.507812 26.984375 535.097656 26.542969 C 534.683594 26.101562 534.09375 25.878906 533.324219 25.878906 C 532.992188 25.878906 532.667969 25.90625 532.351562 25.960938 C 532.03125 26.019531 531.746094 26.132812 531.492188 26.304688 C 531.113281 26.558594 530.921875 26.929688 530.921875 27.425781 C 530.921875 27.789062 531.089844 28.097656 531.417969 28.355469 C 531.75 28.613281 532.164062 28.792969 532.667969 28.890625 L 534.140625 29.160156 C 534.53125 29.230469 534.902344 29.355469 535.253906 29.539062 C 535.605469 29.71875 535.910156 29.9375 536.171875 30.191406 C 536.433594 30.445312 536.644531 30.746094 536.796875 31.089844 C 536.953125 31.4375 537.027344 31.800781 537.027344 32.183594 Z M 537.027344 32.183594 "/>
<path style=" stroke:none;fill-rule:evenodd;fill:rgb(0%,0%,0%);fill-opacity:1;" d="M 549.722656 22.125 C 549.894531 22.785156 549.980469 23.460938 549.980469 24.152344 C 549.980469 24.371094 549.972656 24.578125 549.957031 24.78125 C 549.886719 25.699219 549.734375 26.625 549.496094 27.550781 C 549.238281 28.484375 548.910156 29.410156 548.515625 30.328125 C 548.121094 31.246094 547.597656 32.125 546.941406 32.96875 C 546.71875 33.253906 546.472656 33.535156 546.203125 33.816406 C 545.9375 34.09375 545.648438 34.34375 545.335938 34.5625 C 545.027344 34.78125 544.707031 34.960938 544.375 35.101562 C 544.039062 35.242188 543.691406 35.308594 543.324219 35.308594 C 542.949219 35.308594 542.628906 35.238281 542.359375 35.09375 C 542.089844 34.953125 541.859375 34.769531 541.667969 34.542969 C 541.472656 34.316406 541.3125 34.0625 541.1875 33.785156 C 541.0625 33.503906 540.957031 33.21875 540.878906 32.925781 C 540.699219 32.277344 540.609375 31.609375 540.609375 30.917969 C 540.609375 30.695312 540.625 30.476562 540.652344 30.257812 C 540.710938 29.351562 540.863281 28.4375 541.117188 27.507812 C 541.351562 26.574219 541.671875 25.652344 542.074219 24.738281 C 542.476562 23.824219 543.011719 22.941406 543.679688 22.09375 C 543.902344 21.808594 544.144531 21.523438 544.414062 21.238281 C 544.675781 20.957031 544.960938 20.707031 545.261719 20.488281 C 545.5625 20.269531 545.882812 20.089844 546.214844 19.949219 C 546.550781 19.808594 546.902344 19.738281 547.277344 19.738281 C 547.648438 19.738281 547.96875 19.8125 548.234375 19.953125 C 548.5 20.097656 548.738281 20.28125 548.941406 20.503906 C 549.144531 20.726562 549.308594 20.980469 549.425781 21.269531 C 549.542969 21.554688 549.640625 21.839844 549.722656 22.125 Z M 548.265625 22.363281 C 548.238281 22.09375 548.203125 21.839844 548.160156 21.601562 C 548.117188 21.367188 548.054688 21.160156 547.972656 20.984375 C 547.886719 20.8125 547.785156 20.675781 547.652344 20.582031 C 547.523438 20.488281 547.359375 20.441406 547.15625 20.441406 C 546.742188 20.441406 546.359375 20.636719 546.007812 21.019531 C 545.65625 21.410156 545.3125 21.871094 544.980469 22.40625 C 544.507812 23.171875 544.140625 23.960938 543.882812 24.769531 C 543.625 25.578125 543.402344 26.359375 543.214844 27.113281 L 547.597656 27.113281 C 547.792969 26.324219 547.972656 25.523438 548.136719 24.707031 C 548.253906 24.15625 548.308594 23.613281 548.308594 23.074219 C 548.308594 22.839844 548.296875 22.601562 548.265625 22.363281 Z M 542.988281 27.957031 C 542.796875 28.746094 542.628906 29.542969 542.484375 30.34375 C 542.371094 30.921875 542.3125 31.5 542.3125 32.078125 C 542.3125 32.296875 542.316406 32.503906 542.332031 32.707031 C 542.347656 32.976562 542.378906 33.234375 542.429688 33.46875 C 542.480469 33.707031 542.546875 33.910156 542.628906 34.082031 C 542.710938 34.253906 542.820312 34.386719 542.957031 34.480469 C 543.09375 34.574219 543.261719 34.621094 543.453125 34.621094 C 543.863281 34.621094 544.246094 34.429688 544.601562 34.046875 C 544.957031 33.660156 545.289062 33.203125 545.609375 32.664062 C 546.082031 31.882812 546.449219 31.09375 546.707031 30.289062 C 546.964844 29.488281 547.1875 28.710938 547.371094 27.957031 Z M 542.988281 27.957031 "/>
<path style="fill:none;stroke-width:11.25;stroke-linecap:round;stroke-linejoin:round;stroke:rgb(0%,0%,0%);stroke-opacity:1;stroke-miterlimit:10;" d="M 6926.565352 1286.817182 L 6926.565352 1234.096303 " transform="matrix(0.106545,0,0,-0.106546,0,264.4487)"/>
<path style="fill:none;stroke-width:11.25;stroke-linecap:round;stroke-linejoin:round;stroke:rgb(0%,0%,0%);stroke-opacity:1;stroke-miterlimit:10;" d="M 6088.745933 1286.817182 L 6088.745933 1234.096303 " transform="matrix(0.106545,0,0,-0.106546,0,264.4487)"/>
<path style="fill:none;stroke-width:11.25;stroke-linecap:round;stroke-linejoin:round;stroke:rgb(0%,0%,0%);stroke-opacity:1;stroke-miterlimit:10;" d="M 7761.158439 1286.817182 L 7761.158439 1234.096303 " transform="matrix(0.106545,0,0,-0.106546,0,264.4487)"/>
<path style="fill:none;stroke-width:11.25;stroke-linecap:round;stroke-linejoin:round;stroke:rgb(0%,0%,0%);stroke-opacity:1;stroke-miterlimit:10;" d="M 8602.314177 1286.817182 L 8602.314177 1234.096303 " transform="matrix(0.106545,0,0,-0.106546,0,264.4487)"/>
<path style="fill:none;stroke-width:11.25;stroke-linecap:round;stroke-linejoin:round;stroke:rgb(0%,0%,0%);stroke-opacity:1;stroke-miterlimit:10;" d="M 3973.446215 1286.817182 L 3973.446215 1234.096303 " transform="matrix(0.106545,0,0,-0.106546,0,264.4487)"/>
<path style="fill:none;stroke-width:11.25;stroke-linecap:round;stroke-linejoin:round;stroke:rgb(0%,0%,0%);stroke-opacity:1;stroke-miterlimit:10;" d="M 3145.672418 1286.817182 L 3145.672418 1234.096303 " transform="matrix(0.106545,0,0,-0.106546,0,264.4487)"/>
<path style="fill:none;stroke-width:11.25;stroke-linecap:round;stroke-linejoin:round;stroke:rgb(0%,0%,0%);stroke-opacity:1;stroke-miterlimit:10;" d="M 2298.320659 1286.817182 L 2298.320659 1234.096303 " transform="matrix(0.106545,0,0,-0.106546,0,264.4487)"/>
<path style="fill:none;stroke-width:11.25;stroke-linecap:round;stroke-linejoin:round;stroke:rgb(0%,0%,0%);stroke-opacity:1;stroke-miterlimit:10;" d="M 1457.898178 1286.817182 L 1457.898178 1234.096303 " transform="matrix(0.106545,0,0,-0.106546,0,264.4487)"/>
</g>
</svg>
