<?xml version="1.0" encoding="UTF-8" standalone="no"?>
<svg
   xmlns:dc="http://purl.org/dc/elements/1.1/"
   xmlns:cc="http://creativecommons.org/ns#"
   xmlns:rdf="http://www.w3.org/1999/02/22-rdf-syntax-ns#"
   xmlns:svg="http://www.w3.org/2000/svg"
   xmlns="http://www.w3.org/2000/svg"
   viewBox="0 0 468 453.35999"
   height="453.35999"
   width="468"
   xml:space="preserve"
   id="svg2"
   version="1.1"><metadata
     id="metadata8"><rdf:RDF><cc:Work
         rdf:about=""><dc:format>image/svg+xml</dc:format><dc:type
           rdf:resource="http://purl.org/dc/dcmitype/StillImage" /></cc:Work></rdf:RDF></metadata><defs
     id="defs6"><clipPath
       id="clipPath18"
       clipPathUnits="userSpaceOnUse"><path
         style="clip-rule:evenodd"
         id="path16"
         d="M 5.23e-6,0 H 351.00001 V 340.02 H 5.23e-6 Z" /></clipPath><clipPath
       id="clipPath26"
       clipPathUnits="userSpaceOnUse"><path
         style="clip-rule:evenodd"
         id="path24"
         d="M 5.23e-6,1.5259e-4 H 350.60001 V 338.25015 H 5.23e-6 Z" /></clipPath><clipPath
       id="clipPath36"
       clipPathUnits="userSpaceOnUse"><path
         id="path34"
         d="M 0,0 H 2027.85 V 1962.76 H 0 Z" /></clipPath><clipPath
       id="clipPath56"
       clipPathUnits="userSpaceOnUse"><path
         id="path54"
         d="M 0,0 H 8.1472 V 15.758 H 0 Z" /></clipPath><clipPath
       id="clipPath68"
       clipPathUnits="userSpaceOnUse"><path
         id="path66"
         d="M 0,0 H 10.695 V 15.758 H 0 Z" /></clipPath><clipPath
       id="clipPath82"
       clipPathUnits="userSpaceOnUse"><path
         id="path80"
         d="M 0,0 H 6.0549 V 15.758 H 0 Z" /></clipPath></defs><g
     transform="matrix(1.3333333,0,0,-1.3333333,0,453.36)"
     id="g10"><g
       id="g12"><g
         clip-path="url(#clipPath18)"
         id="g14" /></g><g
       id="g20"><g
         clip-path="url(#clipPath26)"
         id="g22"><g
           transform="matrix(4.8694,0,0,4.7168,0,-1.3659)"
           id="g28"><g
             transform="scale(0.035506,0.036683)"
             id="g30"><g
               clip-path="url(#clipPath36)"
               id="g32"><path
                 id="path38"
                 style="fill:#ffffff;fill-opacity:1;fill-rule:evenodd;stroke:none"
                 d="m 1825.69,981.39 c 0,-470.13 -381.12,-851.25 -851.25,-851.25 -470.13,0 -851.25,381.12 -851.25,851.25 0,470.13 381.12,851.25 851.25,851.25 470.13,0 851.25,-381.12 851.25,-851.25 z" /><path
                 id="path40"
                 style="fill:none;stroke:#000000;stroke-width:15;stroke-linecap:round;stroke-linejoin:round;stroke-miterlimit:10;stroke-dasharray:none;stroke-opacity:1"
                 d="m 1825.69,981.39 c 0,-470.13 -381.12,-851.25 -851.25,-851.25 -470.13,0 -851.25,381.12 -851.25,851.25 0,470.13 381.12,851.25 851.25,851.25 470.13,0 851.25,-381.12 851.25,-851.25 z" /><path
                 id="path42"
                 style="fill:#000000;fill-opacity:1;fill-rule:nonzero;stroke:none"
                 d="m 974.44,988.89 h 731.37 v -15 H 974.44 c -4.14,0 -7.5,3.36 -7.5,7.5 0,4.14 3.36,7.5 7.5,7.5 z m 851.25,-7.5 -150,45 30,-37.5 v -15 l -30,-37.5 z" /><path
                 id="path44"
                 style="fill:#000000;fill-opacity:1;fill-rule:nonzero;stroke:none"
                 d="m 969.59,987.11 564.8,478.7 9.7,-11.44 -564.8,-478.7 c -3.16,-2.68 -7.9,-2.29 -10.57,0.87 -2.68,3.16 -2.29,7.89 0.87,10.57 z m 661.1,550.49 -143.53,-62.65 47.14,-9.21 9.69,-11.45 1.37,-48 z" /><path
                 id="path46"
                 style="fill:none;stroke:#000000;stroke-width:15;stroke-linecap:round;stroke-linejoin:round;stroke-miterlimit:10;stroke-dasharray:none;stroke-opacity:1"
                 d="m 1111.95,1098.72 c 27.92,-32.72 43.25,-74.32 43.25,-117.33" /><g
                 transform="matrix(2.2631,-1.507e-6,-1.507e-6,4.3772,1169.82,925.15)"
                 id="g48"><g
                   transform="scale(8.8374,4.5691)"
                   id="g50"><g
                     clip-path="url(#clipPath56)"
                     id="g52"><path
                       id="path58"
                       style="fill:#000000;fill-opacity:1;fill-rule:evenodd;stroke:none"
                       d="m 6.1481,10.935 c 0.081,-0.311 0.1212,-0.628 0.1212,-0.9517 0,-0.1018 -0.0034,-0.2 -0.0102,-0.2944 C 6.2257,9.2567 6.1533,8.8234 6.042,8.3885 5.9209,7.9499 5.7675,7.5153 5.5823,7.0853 5.397,6.655 5.1507,6.2422 4.844,5.8465 4.7397,5.7122 4.6241,5.5794 4.4978,5.4487 4.3714,5.3178 4.2358,5.2009 4.0911,5.0979 3.9463,4.9948 3.7954,4.9105 3.6387,4.8454 3.482,4.7798 3.3176,4.7473 3.1458,4.7473 2.9707,4.7473 2.8198,4.7807 2.6934,4.8479 2.5671,4.9148 2.4585,5.0012 2.3674,5.1077 2.2766,5.2138 2.2015,5.3325 2.1426,5.4634 2.0837,5.5941 2.0356,5.7284 1.9984,5.8661 1.9144,6.1701 1.8721,6.4842 1.8721,6.8083 c 0,0.1043 0.0067,0.2074 0.0202,0.3092 0.027,0.4251 0.0994,0.8551 0.2172,1.2906 0.1113,0.438 0.2613,0.8713 0.4499,1.3001 0.1889,0.4288 0.4398,0.8428 0.7533,1.2418 0.1046,0.134 0.2193,0.267 0.3438,0.4 0.1245,0.132 0.2576,0.25 0.399,0.353 0.1417,0.103 0.2907,0.187 0.4475,0.253 0.1567,0.065 0.3226,0.098 0.4978,0.098 0.1754,0 0.3254,-0.034 0.4499,-0.101 C 5.5752,11.886 5.6856,11.8 5.7816,11.696 5.8779,11.591 5.9537,11.471 6.0092,11.337 6.065,11.203 6.1113,11.069 6.1481,10.935 Z M 5.4657,10.822 C 5.4522,10.95 5.4353,11.069 5.4151,11.18 5.3949,11.291 5.3654,11.388 5.3268,11.47 5.2881,11.551 5.2384,11.615 5.1777,11.659 5.117,11.703 5.0397,11.725 4.9452,11.725 4.7499,11.725 4.5695,11.634 4.4045,11.453 4.2395,11.271 4.0794,11.054 3.9242,10.803 3.7019,10.443 3.5301,10.073 3.4087,9.6935 3.2872,9.3138 3.1829,8.9476 3.0952,8.5946 h 2.0571 c 0.0911,0.3692 0.1754,0.7456 0.2527,1.1286 0.054,0.2583 0.081,0.5138 0.081,0.7658 0,0.111 -0.0068,0.222 -0.0203,0.333 z M 2.9891,8.1971 C 2.8983,7.8272 2.8189,7.4542 2.7514,7.0782 2.6977,6.8065 2.6707,6.5348 2.6707,6.2636 2.6707,6.1618 2.6741,6.0637 2.6809,5.9692 2.6876,5.8413 2.7029,5.7217 2.7263,5.6107 2.7499,5.4993 2.7812,5.4036 2.8198,5.3236 2.8584,5.2432 2.91,5.1813 2.9741,5.1371 3.0382,5.093 3.1158,5.0709 3.2065,5.0712 3.3985,5.0709 3.578,5.1607 3.7448,5.3408 3.9117,5.5205 4.069,5.7367 4.2174,5.9888 4.4398,6.355 4.6115,6.7261 4.733,7.1025 c 0.1215,0.376 0.2257,0.741 0.3131,1.0946 z" /></g></g></g><g
                 transform="matrix(2.9707,-7.54e-7,-1.507e-6,4.3772,1271.73,704.84)"
                 id="g60"><g
                   transform="scale(6.7323,4.5691)"
                   id="g62"><g
                     clip-path="url(#clipPath68)"
                     id="g64"><path
                       id="path70"
                       style="fill:#000000;fill-opacity:1;fill-rule:evenodd;stroke:none"
                       d="M 8.8207,5.8514 C 8.7839,5.7039 8.7284,5.5591 8.6542,5.4168 8.58,5.2745 8.4892,5.146 8.3812,5.0316 8.2733,4.9169 8.1527,4.8234 8.0196,4.7498 7.8865,4.6761 7.7427,4.6393 7.5875,4.6393 c -0.4886,0 -0.856,0.1292 -1.102,0.3877 -0.1684,0.1764 -0.2527,0.3987 -0.2527,0.6674 0,0.1371 0.0221,0.2858 0.0659,0.4466 L 6.526,7.0193 C 6.553,7.1304 6.5665,7.235 6.5665,7.3334 6.5665,7.3822 6.5631,7.4328 6.5563,7.4855 6.5361,7.6226 6.4892,7.7435 6.415,7.8484 6.3407,7.9529 6.2457,8.0354 6.1294,8.0962 6.0132,8.1566 5.8758,8.187 5.7172,8.1873 H 4.5751 L 3.9028,5.5717 C 3.8893,5.5091 3.8825,5.4585 3.8825,5.4196 3.8825,5.3702 3.8926,5.3374 3.9129,5.3214 3.9567,5.2951 4.0478,5.2794 4.1858,5.2745 4.3242,5.2696 4.4723,5.2672 4.6306,5.2675 4.725,5.2672 4.7723,5.2279 4.7723,5.1497 4.7723,5.1298 4.7689,5.1086 4.7621,5.0859 L 4.7419,5.0074 C 4.7051,4.9092 4.6392,4.8602 4.5447,4.8602 4.1303,4.8798 3.7126,4.8896 3.2912,4.8896 c -0.4211,0 -0.844,-0.0098 -1.2685,-0.0294 -0.0908,0 -0.1396,0.0423 -0.1466,0.1276 V 5.027 l 0.0202,0.0834 c 0.027,0.1077 0.0926,0.1601 0.1969,0.1571 0.1586,-3e-4 0.3086,0.0021 0.45,0.007 0.1416,0.0049 0.2459,0.0221 0.3134,0.0519 0.0641,0.0355 0.1129,0.1239 0.1466,0.2649 l 1.4203,5.5307 c 0.0203,0.072 0.0301,0.127 0.0301,0.167 0,0.039 -0.0083,0.062 -0.0252,0.068 -0.0472,0.029 -0.1389,0.047 -0.2754,0.054 -0.1365,0.006 -0.2855,0.01 -0.4474,0.01 -0.0942,0 -0.1414,0.044 -0.1414,0.133 v 0.039 l 0.0303,0.083 c 0.0203,0.098 0.0828,0.147 0.1871,0.148 H 6.6272 C 6.9474,11.823 7.2522,11.781 7.5421,11.696 7.8319,11.61 8.0846,11.47 8.3002,11.274 8.4787,11.117 8.6085,10.924 8.6895,10.695 8.7401,10.57 8.767,10.441 8.7701,10.307 8.7701,10.186 8.7517,10.066 8.7146,9.949 8.6508,9.687 8.5177,9.4496 8.3153,9.2371 8.1132,9.0243 7.8856,8.843 7.6329,8.6927 7.4577,8.5909 7.2802,8.5065 7.0998,8.4397 6.9195,8.3725 6.7907,8.3308 6.7131,8.3149 6.9051,8.2394 7.0872,8.0922 7.259,7.8732 7.4041,7.683 7.4764,7.4558 7.4764,7.1911 7.4764,7.1353 7.4731,7.0795 7.4663,7.0243 L 7.37,6.141 C 7.3433,5.9115 7.3298,5.7122 7.3298,5.5423 7.3298,5.4306 7.3366,5.3325 7.3501,5.2478 7.3737,5.0546 7.4746,4.958 7.6531,4.9583 7.815,4.958 7.9632,5.0454 8.0981,5.2205 8.2331,5.3954 8.3325,5.6122 8.3962,5.8711 8.4334,5.9689 8.499,6.0164 8.5935,6.0134 H 8.6741 C 8.7652,6.0131 8.814,5.9704 8.8207,5.8858 Z M 7.6329,9.9784 C 7.6868,10.174 7.7172,10.371 7.724,10.567 v 0.03 c 0,0.166 -0.0522,0.31 -0.1568,0.432 -0.1245,0.143 -0.287,0.245 -0.4876,0.303 -0.2006,0.059 -0.4205,0.089 -0.6597,0.089 H 5.7476 c -0.1718,0 -0.2745,-0.013 -0.3083,-0.039 -0.0337,-0.027 -0.069,-0.12 -0.1061,-0.28 L 4.6661,8.5062 H 5.6415 C 5.8807,8.5059 6.1168,8.5354 6.3493,8.5943 6.5818,8.6531 6.8026,8.7577 7.0112,8.9086 7.19,9.0359 7.3249,9.196 7.4157,9.3892 7.5068,9.5821 7.5792,9.7784 7.6329,9.9784 Z" /></g></g></g><path
                 id="path72"
                 style="fill:none;stroke:#0080ff;stroke-width:16.875;stroke-linecap:round;stroke-linejoin:round;stroke-miterlimit:10;stroke-dasharray:none;stroke-opacity:0.90979997"
                 d="m 1629.11,1540.75 c 131.4,-156.28 203.52,-354.5 203.52,-559.36" /><g
                 transform="matrix(1.6819,-1.507e-6,-1.507e-6,4.3772,1816.75,1157.84)"
                 id="g74"><g
                   transform="scale(11.891,4.5691)"
                   id="g76"><g
                     clip-path="url(#clipPath82)"
                     id="g78"><path
                       id="path84"
                       style="fill:#000000;fill-opacity:1;fill-rule:evenodd;stroke:none"
                       d="M 2.6784,5.9839 C 2.6447,5.8496 2.6211,5.7235 2.6076,5.6061 2.6008,5.5469 2.5974,5.4929 2.5974,5.4441 2.5974,5.4012 2.6008,5.3555 2.6076,5.3067 2.618,5.2279 2.6416,5.169 2.6784,5.1298 2.7155,5.0905 2.771,5.0709 2.8453,5.0712 c 0.0708,-3e-4 0.134,0.0291 0.1895,0.088 0.0558,0.0589 0.1104,0.1463 0.1644,0.2625 0.054,0.116 0.1036,0.2552 0.149,0.4171 0.0454,0.162 0.0936,0.3347 0.1439,0.5181 0.0202,0.0914 0.0776,0.1371 0.172,0.1374 H 3.7804 C 3.8614,6.494 3.9015,6.4581 3.9015,6.3863 V 6.352 C 3.8678,6.2011 3.8242,6.0333 3.7703,5.8487 3.7163,5.6637 3.6491,5.491 3.5681,5.331 3.4872,5.1705 3.3829,5.0331 3.2547,4.9187 3.1265,4.8043 2.9698,4.7473 2.7845,4.7473 2.6094,4.7473 2.4579,4.7807 2.3297,4.8479 2.2018,4.9148 2.099,5.0077 2.0215,5.1273 1.9442,5.2466 1.8985,5.3834 1.885,5.5374 1.8782,5.5763 1.8748,5.6189 1.8748,5.665 c 0,0.111 0.0135,0.2238 0.0405,0.3385 L 3.209,11.029 c 0.027,0.107 0.0457,0.189 0.0558,0.245 v 0.015 c 0,0.029 -0.0083,0.05 -0.0254,0.063 -0.0405,0.026 -0.1163,0.044 -0.2273,0.054 -0.111,0.01 -0.2392,0.015 -0.3843,0.015 -0.0503,0 -0.0874,0.016 -0.111,0.049 -0.0203,0.02 -0.0304,0.044 -0.0304,0.074 0,0.019 0.0052,0.037 0.015,0.054 l 0.0154,0.073 c 0.0101,0.046 0.0337,0.08 0.0708,0.103 0.0371,0.023 0.0776,0.039 0.1212,0.05 l 1.3191,0.107 h 0.0304 c 0.0809,0 0.1214,-0.036 0.1214,-0.107 0,-0.02 -0.0034,-0.042 -0.0101,-0.064 z" /></g></g></g></g></g></g></g></g></g></svg>