<?xml version="1.0" encoding="UTF-8"?>
<svg xmlns="http://www.w3.org/2000/svg" xmlns:xlink="http://www.w3.org/1999/xlink" width="1036.02pt" height="223.02pt" viewBox="0 0 1036.02 223.02" version="1.1">
<defs>
<clipPath id="clip1">
  <path d="M 52 61 L 408.925781 61 L 408.925781 178 L 52 178 Z M 52 61 "/>
</clipPath>
</defs>
<g id="surface1">
<g clip-path="url(#clip1)" clip-rule="nonzero">
<path style="fill:none;stroke-width:22.5;stroke-linecap:round;stroke-linejoin:round;stroke:rgb(0%,0%,0%);stroke-opacity:1;stroke-miterlimit:10;" d="M 506.298253 824.597144 L 513.007347 830.903045 L 519.753102 837.208946 L 533.171289 849.894072 L 539.917044 856.30996 L 546.626137 862.725847 L 553.335231 869.178397 L 560.080986 875.630947 L 566.790079 882.120159 L 573.535834 888.646033 L 580.244928 895.171907 L 593.663115 908.29698 L 600.40887 914.896179 L 607.117963 921.495377 L 613.863718 928.094576 L 627.281905 941.366297 L 634.027661 948.03882 L 640.736754 954.711344 L 647.482509 961.383867 L 654.191603 968.093052 L 660.900696 974.765575 L 667.646451 981.47476 L 681.064638 994.893131 L 687.810393 1001.602316 L 694.519487 1008.348163 L 701.265242 1015.057349 L 707.974335 1021.766534 L 714.683429 1028.512381 L 721.392522 1035.221567 L 728.138277 1041.930752 L 734.847371 1048.676599 L 741.593126 1055.349122 L 755.011313 1068.767493 L 761.757068 1075.440016 L 775.175255 1088.785062 L 781.92101 1095.457585 L 788.630103 1102.093446 L 795.375858 1108.729307 L 802.084952 1115.365168 L 808.794045 1121.964366 L 815.5398 1128.526903 L 822.248894 1135.126101 L 828.957987 1141.651976 L 835.703742 1148.17785 L 842.412836 1154.703724 L 849.121929 1161.192936 L 855.867684 1167.645486 L 862.576778 1174.098035 L 869.322533 1180.513923 L 882.74072 1193.272374 L 889.486475 1199.614937 L 896.195568 1205.884175 L 902.904662 1212.190076 L 909.650417 1218.422653 L 916.35951 1224.655229 L 923.105266 1230.814481 L 929.814359 1236.973733 L 936.523453 1243.096323 L 943.232546 1249.182251 L 949.978301 1255.194854 L 956.687395 1261.207457 L 963.43315 1267.183398 L 970.142243 1273.086015 L 976.887998 1278.988631 L 990.306185 1290.647215 L 997.015279 1296.403183 L 1003.761034 1302.122489 L 1010.470127 1307.76847 L 1017.215882 1313.414451 L 1023.924976 1318.987107 L 1030.634069 1324.523102 L 1037.379824 1329.985772 L 1044.088918 1335.411779 L 1050.798011 1340.801125 L 1057.543766 1346.117146 L 1064.25286 1351.396505 L 1070.961953 1356.639202 L 1077.707708 1361.808574 L 1084.416802 1366.904622 L 1091.162557 1371.964007 L 1097.87165 1376.986731 L 1104.580744 1381.93613 L 1111.326499 1386.812204 L 1118.035592 1391.651617 L 1124.744686 1396.417704 L 1131.490441 1401.14713 L 1138.199534 1405.803231 L 1144.94529 1410.386008 L 1151.654383 1414.895461 L 1158.363476 1419.368251 L 1165.07257 1423.767716 L 1171.818325 1428.093858 L 1178.527418 1432.383337 L 1185.273174 1436.599492 L 1191.982267 1440.742322 L 1198.728022 1444.811828 L 1205.437116 1448.808009 L 1212.146209 1452.767528 L 1218.855302 1456.617061 L 1225.601058 1460.429931 L 1232.310151 1464.132815 L 1239.055906 1467.799036 L 1245.765 1471.391933 L 1252.474093 1474.911506 L 1259.219848 1478.357754 L 1265.928942 1481.730678 L 1272.638035 1485.030277 L 1279.38379 1488.256552 L 1286.092884 1491.37284 L 1292.801977 1494.452466 L 1299.547732 1497.458768 L 1306.256826 1500.391745 L 1313.002581 1503.214735 L 1319.711674 1506.001064 L 1326.420768 1508.677405 L 1333.166523 1511.280423 L 1339.875616 1513.810115 L 1346.58471 1516.266484 L 1353.330465 1518.649528 L 1360.039558 1520.959247 L 1366.785313 1523.15898 L 1373.494407 1525.322051 L 1380.2035 1527.375135 L 1386.949256 1529.354894 L 1393.658349 1531.224667 L 1400.367442 1533.057778 L 1407.113198 1534.780902 L 1413.822291 1536.430702 L 1420.568046 1538.007177 L 1427.27714 1539.473666 L 1433.986233 1540.903492 L 1440.695326 1542.223332 L 1447.441082 1543.433185 L 1454.150175 1544.606376 L 1460.89593 1545.66958 L 1467.605024 1546.65946 L 1474.314117 1547.576015 L 1481.059872 1548.382584 L 1487.768966 1549.115828 L 1494.478059 1549.775748 L 1501.223814 1550.325681 L 1507.932908 1550.80229 L 1514.642001 1551.205574 L 1521.387756 1551.535534 L 1528.09685 1551.755507 L 1534.842605 1551.902156 L 1541.551698 1551.938819 L 1548.260792 1551.938819 L 1555.006547 1551.828832 L 1561.71564 1551.608859 L 1568.424734 1551.352223 L 1575.170489 1550.985601 L 1581.879582 1550.545654 L 1588.625337 1549.995721 L 1595.334431 1549.372463 L 1602.043524 1548.675881 L 1608.789279 1547.905975 L 1615.498373 1547.026082 L 1622.207466 1546.072864 L 1628.953221 1545.046322 L 1635.662315 1543.909794 L 1642.40807 1542.69994 L 1649.117163 1541.416763 L 1655.826257 1540.060261 L 1662.572012 1538.593772 L 1669.281105 1537.053959 L 1675.990199 1535.440822 L 1682.735954 1533.75436 L 1689.445048 1531.957912 L 1696.154141 1530.088139 L 1702.899896 1528.145041 L 1709.60899 1526.128619 L 1716.318083 1524.038873 L 1723.063838 1521.83914 L 1729.772932 1519.566083 L 1736.482025 1517.219701 L 1743.22778 1514.799995 L 1749.936874 1512.306965 L 1756.682629 1509.703947 L 1763.391722 1507.064268 L 1770.100816 1504.314602 L 1776.846571 1501.528274 L 1783.555664 1498.631959 L 1790.264758 1495.662319 L 1797.010513 1492.619355 L 1803.719606 1489.503067 L 1810.465361 1486.313454 L 1817.174455 1483.013855 L 1823.883548 1479.677594 L 1830.629303 1476.268008 L 1837.338397 1472.785097 L 1844.04749 1469.228862 L 1850.793245 1465.599303 L 1857.502339 1461.89642 L 1864.248094 1458.120211 L 1870.957187 1454.307341 L 1877.666281 1450.384484 L 1884.375374 1446.388303 L 1891.121129 1442.355459 L 1897.830223 1438.249291 L 1904.575978 1434.069799 L 1911.285071 1429.816982 L 1917.994165 1425.490841 L 1924.73992 1421.128037 L 1931.449013 1416.691909 L 1938.194769 1412.182457 L 1944.903862 1407.59968 L 1951.612955 1402.980241 L 1958.322049 1398.287477 L 1965.067804 1393.558052 L 1971.776898 1388.755302 L 1978.522653 1383.879227 L 1985.231746 1378.96649 L 1991.977501 1373.980429 L 1998.686595 1368.921043 L 2005.395688 1363.824996 L 2012.104782 1358.692286 L 2018.850537 1353.486251 L 2025.55963 1348.206892 L 2032.305385 1342.927533 L 2045.723572 1332.148842 L 2052.469327 1326.686172 L 2059.178421 1321.18684 L 2065.924176 1315.614184 L 2072.633269 1310.004865 L 2079.342363 1304.358884 L 2086.088118 1298.67624 L 2092.797211 1292.920273 L 2099.506305 1287.127643 L 2106.25206 1281.298351 L 2112.961153 1275.432396 L 2119.670247 1269.52978 L 2126.416002 1263.590501 L 2139.834189 1251.565295 L 2146.579944 1245.516029 L 2153.289037 1239.393439 L 2160.034793 1233.27085 L 2173.452979 1220.879021 L 2180.162073 1214.646445 L 2186.907828 1208.377206 L 2193.616921 1202.107967 L 2200.362677 1195.765404 L 2207.07177 1189.422841 L 2213.817525 1183.043616 L 2227.235712 1170.211841 L 2233.981467 1163.722629 L 2240.690561 1157.270079 L 2247.399654 1150.744205 L 2254.145409 1144.254993 L 2267.563596 1131.12992 L 2274.309351 1124.567384 L 2281.018445 1117.968185 L 2287.7642 1111.332324 L 2294.473293 1104.733125 L 2301.182387 1098.097265 L 2307.928142 1091.424742 L 2321.346329 1078.079695 L 2328.092084 1071.407172 L 2334.801177 1064.734649 L 2341.510271 1058.025464 L 2348.256026 1051.316279 L 2375.129061 1024.442876 L 2381.874816 1017.73369 L 2388.58391 1010.987843 L 2395.293003 1004.278658 L 2402.038758 997.569472 L 2408.747852 990.823625 L 2415.456945 984.11444 L 2422.2027 977.405254 L 2428.911794 970.732731 L 2435.657549 964.023546 L 2449.075736 950.6785 L 2455.821491 944.005977 L 2469.239678 930.734255 L 2475.985433 924.098394 L 2489.40362 910.899997 L 2496.149375 904.337461 L 2502.858469 897.774924 L 2509.604224 891.212388 L 2516.313317 884.686514 L 2523.022411 878.197302 L 2529.768166 871.70809 L 2536.477259 865.25554 L 2543.186353 858.839652 L 2549.932108 852.423765 L 2556.641201 846.04454 L 2563.350295 839.701976 L 2570.09605 833.396076 L 2576.805143 827.090175 L 2583.514237 820.820936 L 2590.259992 814.58836 L 2596.969085 808.392445 L 2603.71484 802.233193 L 2610.423934 796.110603 L 2617.133027 790.024676 L 2623.878782 783.938748 L 2630.587876 777.926145 L 2637.296969 771.950204 L 2644.042724 765.974263 L 2650.751818 760.108309 L 2657.497573 754.205692 L 2670.91576 742.620432 L 2677.661515 736.864465 L 2684.370608 731.181821 L 2691.079702 725.53584 L 2697.825457 719.926522 L 2704.53455 714.390527 L 2711.243644 708.891195 L 2717.989399 703.428525 L 2724.698493 698.039179 L 2731.444248 692.686496 L 2738.153341 687.370475 L 2744.862435 682.127778 L 2751.60819 676.921744 L 2758.317283 671.752372 L 2765.026377 666.692986 L 2771.772132 661.6336 L 2778.481225 656.684201 L 2785.22698 651.771465 L 2791.936074 646.89539 L 2798.645167 642.09264 L 2805.354261 637.363214 L 2812.100016 632.670451 L 2818.809109 628.051012 L 2825.554864 623.504897 L 2832.263958 618.995445 L 2838.973051 614.559317 L 2845.718806 610.196513 L 2852.4279 605.870372 L 2859.136993 601.654217 L 2865.882748 597.474725 L 2872.591842 593.368557 L 2879.337597 589.335713 L 2886.04669 585.339532 L 2892.755784 581.453337 L 2899.501539 577.603805 L 2906.210632 573.864259 L 2912.956388 570.161375 L 2919.665481 566.531816 L 2926.374574 562.975581 L 2933.083668 559.492671 L 2939.829423 556.083085 L 2946.538516 552.746823 L 2953.284272 549.483886 L 2959.993365 546.330936 L 2966.702458 543.214647 L 2973.448214 540.171684 L 2980.157307 537.202044 L 2986.8664 534.342392 L 2993.612156 531.519401 L 3000.321249 528.806397 L 3007.067004 526.166718 L 3013.776098 523.5637 L 3020.485191 521.07067 L 3027.194285 518.650964 L 3033.94004 516.304582 L 3040.649133 514.068187 L 3047.394888 511.905116 L 3054.103982 509.778708 L 3060.813075 507.762286 L 3067.55883 505.855851 L 3074.267924 503.986078 L 3081.013679 502.226292 L 3087.722772 500.503167 L 3094.431866 498.926692 L 3101.177621 497.386879 L 3107.886714 495.957053 L 3114.595808 494.563889 L 3121.341563 493.317373 L 3128.050656 492.10752 L 3134.796411 491.007654 L 3141.505505 489.981112 L 3148.214598 489.027894 L 3154.960353 488.148001 L 3161.669447 487.378095 L 3168.37854 486.681513 L 3175.124296 486.094917 L 3181.833389 485.544984 L 3188.542482 485.105037 L 3195.288238 484.775077 L 3201.997331 484.48178 L 3208.706424 484.298469 L 3215.45218 484.225144 L 3222.161273 484.188482 L 3228.907028 484.261806 L 3235.616122 484.408455 L 3242.325215 484.665091 L 3249.07097 484.958389 L 3255.780064 485.361673 L 3262.489157 485.874944 L 3269.234912 486.424877 L 3275.944006 487.084797 L 3282.653099 487.854703 L 3289.398854 488.661272 L 3296.107948 489.577828 L 3302.853703 490.567707 L 3309.562796 491.667574 L 3316.27189 492.804102 L 3323.017645 494.08728 L 3329.726738 495.40712 L 3336.435832 496.800284 L 3343.181587 498.303435 L 3349.89068 499.87991 L 3356.636435 501.529709 L 3363.345529 503.289496 L 3370.054622 505.085944 L 3376.800377 506.992379 L 3383.509471 508.972139 L 3390.218564 511.061885 L 3396.964319 513.188294 L 3403.673413 515.424689 L 3410.382506 517.734408 L 3417.128261 520.117452 L 3423.837355 522.573821 L 3430.58311 525.103513 L 3437.292203 527.743193 L 3444.001297 530.456197 L 3450.747052 533.205863 L 3457.456145 536.065516 L 3464.165239 538.998493 L 3470.910994 542.004794 L 3477.620088 545.08442 L 3484.329181 548.237371 L 3491.074936 551.463646 L 3497.78403 554.763245 L 3504.493123 558.136169 L 3511.238878 561.582417 L 3517.947972 565.10199 L 3524.693727 568.731549 L 3531.40282 572.39777 L 3538.111914 576.137316 L 3544.857669 579.913524 L 3551.566762 583.799719 L 3558.275856 587.722576 L 3565.021611 591.755419 L 3571.730704 595.824925 L 3578.476459 600.004418 L 3585.185553 604.18391 L 3591.894646 608.473389 L 3598.640401 612.836193 L 3605.349495 617.235659 L 3612.058588 621.708449 L 3618.804343 626.254563 L 3625.513437 630.83734 L 3632.22253 635.493441 L 3638.968285 640.222867 L 3645.677379 644.988955 L 3652.423134 649.828367 L 3659.132227 654.741104 L 3665.841321 659.690503 L 3672.587076 664.676564 L 3686.005263 674.86866 L 3692.751018 680.074694 L 3699.460111 685.280729 L 3706.169205 690.560088 L 3712.91496 695.912771 L 3719.624053 701.302117 L 3726.333147 706.728124 L 3733.078902 712.227456 L 3739.787995 717.726789 L 3746.533751 723.336108 L 3753.242844 728.945426 L 3759.951937 734.62807 L 3766.697693 740.347375 L 3773.406786 746.103343 L 3780.11588 751.932635 L 3786.861635 757.761927 L 3793.570728 763.664544 L 3800.316483 769.603822 L 3807.025577 775.543101 L 3813.73467 781.555704 L 3820.443764 787.60497 L 3827.189519 793.690897 L 3833.898612 799.813487 L 3840.644367 805.972739 L 3847.353461 812.131991 L 3854.062554 818.364568 L 3860.808309 824.597144 " transform="matrix(0.106548,0,0,-0.106547,0,228.374)"/>
</g>
<path style=" stroke:none;fill-rule:nonzero;fill:rgb(0%,0%,0%);fill-opacity:1;" d="M 9.367188 119.300781 L 435.46875 119.300781 L 435.46875 120.5 L 9.367188 120.5 C 9.035156 120.5 8.769531 120.234375 8.769531 119.902344 C 8.769531 119.570312 9.035156 119.300781 9.367188 119.300781 Z M 448.878906 119.902344 L 432.097656 115.105469 L 435.457031 119.300781 L 435.457031 120.5 L 432.097656 124.695312 Z M 448.878906 119.902344 "/>
<path style=" stroke:none;fill-rule:nonzero;fill:rgb(0%,0%,0%);fill-opacity:1;" d="M 142.699219 219.789062 L 142.699219 33.425781 L 143.898438 33.425781 L 143.898438 219.789062 C 143.898438 220.121094 143.628906 220.390625 143.300781 220.390625 C 142.96875 220.390625 142.699219 220.121094 142.699219 219.789062 Z M 143.300781 20.015625 L 138.503906 36.796875 L 142.699219 33.4375 L 143.898438 33.4375 L 148.09375 36.796875 Z M 143.300781 20.015625 "/>
<path style="fill:none;stroke-width:22.5;stroke-linecap:round;stroke-linejoin:round;stroke:rgb(0%,0%,0%);stroke-opacity:1;stroke-miterlimit:10;" d="M 5782.651954 824.597144 L 5789.397709 830.903045 L 5796.106803 837.208946 L 5809.524989 849.894072 L 5816.270745 856.30996 L 5822.979838 862.725847 L 5829.725593 869.178397 L 5836.434687 875.630947 L 5843.14378 882.120159 L 5849.889535 888.646033 L 5856.598629 895.171907 L 5863.307722 901.734443 L 5870.053477 908.29698 L 5876.762571 914.896179 L 5883.508326 921.495377 L 5890.217419 928.094576 L 5896.926513 934.730437 L 5903.672268 941.366297 L 5917.090455 954.711344 L 5923.83621 961.383867 L 5930.545303 968.093052 L 5937.254397 974.765575 L 5944.000152 981.47476 L 5950.709245 988.183945 L 5957.455 994.893131 L 5964.164094 1001.602316 L 5970.873187 1008.348163 L 5977.582281 1015.057349 L 5984.328036 1021.766534 L 5991.037129 1028.512381 L 5997.782885 1035.221567 L 6011.237733 1048.676599 L 6017.946827 1055.349122 L 6024.65592 1062.058308 L 6031.401675 1068.767493 L 6044.819862 1082.112539 L 6051.565617 1088.785062 L 6058.274711 1095.457585 L 6064.983804 1102.093446 L 6071.729559 1108.729307 L 6078.438653 1115.365168 L 6085.147746 1121.964366 L 6091.893501 1128.526903 L 6098.602595 1135.126101 L 6105.311688 1141.651976 L 6112.057443 1148.17785 L 6118.766537 1154.703724 L 6125.512292 1161.192936 L 6138.930479 1174.098035 L 6145.676234 1180.513923 L 6159.094421 1193.272374 L 6165.840176 1199.614937 L 6172.549269 1205.884175 L 6179.295024 1212.190076 L 6192.713211 1224.655229 L 6199.458966 1230.814481 L 6206.16806 1236.973733 L 6212.877153 1243.096323 L 6219.622908 1249.182251 L 6226.332002 1255.194854 L 6233.077757 1261.207457 L 6239.78685 1267.183398 L 6246.495944 1273.086015 L 6253.241699 1278.988631 L 6266.659886 1290.647215 L 6273.405641 1296.403183 L 6280.114734 1302.122489 L 6286.823828 1307.76847 L 6293.569583 1313.414451 L 6300.278677 1318.987107 L 6306.98777 1324.523102 L 6313.733525 1329.985772 L 6320.442619 1335.411779 L 6327.151712 1340.801125 L 6333.897467 1346.117146 L 6340.606561 1351.396505 L 6347.352316 1356.639202 L 6354.061409 1361.808574 L 6360.770503 1366.904622 L 6367.516258 1371.964007 L 6374.225351 1376.986731 L 6380.934445 1381.93613 L 6387.6802 1386.812204 L 6394.389293 1391.651617 L 6401.135048 1396.417704 L 6407.844142 1401.14713 L 6414.553235 1405.803231 L 6421.29899 1410.386008 L 6428.008084 1414.895461 L 6434.717177 1419.368251 L 6441.462932 1423.767716 L 6448.172026 1428.13052 L 6454.917781 1432.383337 L 6461.626874 1436.599492 L 6468.335968 1440.742322 L 6475.081723 1444.811828 L 6481.790816 1448.808009 L 6488.49991 1452.767528 L 6495.245665 1456.617061 L 6501.954758 1460.429931 L 6508.663852 1464.132815 L 6515.409607 1467.799036 L 6522.1187 1471.391933 L 6528.827794 1474.911506 L 6535.573549 1478.357754 L 6542.282642 1481.730678 L 6549.028398 1485.030277 L 6555.737491 1488.256552 L 6562.446584 1491.37284 L 6569.19234 1494.452466 L 6575.901433 1497.458768 L 6582.647188 1500.391745 L 6589.356282 1503.214735 L 6596.065375 1506.001064 L 6602.774469 1508.677405 L 6609.520224 1511.280423 L 6616.229317 1513.846778 L 6622.975072 1516.266484 L 6629.684166 1518.649528 L 6636.393259 1520.959247 L 6643.139014 1523.15898 L 6649.848108 1525.322051 L 6656.557201 1527.375135 L 6663.302956 1529.354894 L 6670.01205 1531.224667 L 6676.757805 1533.057778 L 6683.466898 1534.780902 L 6690.175992 1536.430702 L 6696.921747 1538.007177 L 6703.63084 1539.473666 L 6710.376595 1540.903492 L 6717.085689 1542.223332 L 6723.794782 1543.433185 L 6730.503876 1544.606376 L 6737.249631 1545.66958 L 6743.958724 1546.65946 L 6750.70448 1547.576015 L 6757.413573 1548.382584 L 6764.122666 1549.115828 L 6770.868422 1549.775748 L 6777.577515 1550.325681 L 6784.286608 1550.80229 L 6791.032364 1551.205574 L 6797.741457 1551.535534 L 6804.487212 1551.755507 L 6811.196306 1551.902156 L 6817.905399 1551.938819 L 6824.614492 1551.938819 L 6831.360248 1551.828832 L 6838.069341 1551.608859 L 6844.815096 1551.352223 L 6851.52419 1550.985601 L 6858.233283 1550.545654 L 6864.979038 1549.995721 L 6871.688132 1549.372463 L 6878.433887 1548.675881 L 6885.14298 1547.905975 L 6891.852074 1547.026082 L 6898.597829 1546.072864 L 6905.306922 1545.046322 L 6912.016016 1543.909794 L 6918.761771 1542.69994 L 6925.470864 1541.416763 L 6932.216619 1540.060261 L 6938.925713 1538.593772 L 6945.634806 1537.053959 L 6952.3439 1535.440822 L 6959.089655 1533.75436 L 6965.798748 1531.957912 L 6972.544503 1530.088139 L 6979.253597 1528.145041 L 6985.96269 1526.128619 L 6992.708445 1524.038873 L 6999.417539 1521.83914 L 7006.126632 1519.566083 L 7012.872387 1517.219701 L 7019.581481 1514.799995 L 7026.327236 1512.306965 L 7033.036329 1509.703947 L 7039.745423 1507.064268 L 7046.491178 1504.314602 L 7053.200272 1501.528274 L 7059.909365 1498.631959 L 7066.65512 1495.662319 L 7073.364214 1492.619355 L 7080.073307 1489.503067 L 7086.819062 1486.313454 L 7093.528156 1483.013855 L 7100.273911 1479.677594 L 7106.983004 1476.268008 L 7113.692098 1472.785097 L 7120.437853 1469.228862 L 7127.146946 1465.599303 L 7133.85604 1461.89642 L 7140.601795 1458.120211 L 7147.310888 1454.307341 L 7154.056643 1450.384484 L 7160.765737 1446.388303 L 7167.47483 1442.355459 L 7174.183924 1438.249291 L 7180.929679 1434.069799 L 7187.638772 1429.816982 L 7194.384527 1425.490841 L 7201.093621 1421.128037 L 7207.802714 1416.691909 L 7214.548469 1412.182457 L 7221.257563 1407.59968 L 7227.966656 1402.980241 L 7234.712411 1398.287477 L 7241.421505 1393.558052 L 7248.16726 1388.755302 L 7254.876353 1383.879227 L 7261.585447 1378.96649 L 7268.29454 1373.943767 L 7275.040295 1368.921043 L 7281.749389 1363.824996 L 7288.495144 1358.692286 L 7295.204237 1353.486251 L 7301.913331 1348.206892 L 7308.659086 1342.927533 L 7322.077273 1332.148842 L 7328.823028 1326.686172 L 7335.532121 1321.18684 L 7342.277877 1315.614184 L 7348.98697 1310.004865 L 7355.696064 1304.358884 L 7362.441819 1298.67624 L 7369.150912 1292.920273 L 7375.896667 1287.127643 L 7382.605761 1281.298351 L 7389.314854 1275.432396 L 7396.023948 1269.52978 L 7402.769703 1263.590501 L 7409.478796 1257.577898 L 7416.224551 1251.565295 L 7422.933645 1245.516029 L 7429.642738 1239.393439 L 7436.388493 1233.27085 L 7449.80668 1220.879021 L 7456.552435 1214.646445 L 7469.970622 1202.107967 L 7476.716377 1195.765404 L 7483.425471 1189.422841 L 7490.134564 1183.043616 L 7496.880319 1176.627728 L 7503.589413 1170.211841 L 7510.335168 1163.759291 L 7523.753355 1150.780867 L 7530.49911 1144.254993 L 7543.917297 1131.12992 L 7550.663052 1124.567384 L 7557.372145 1117.968185 L 7564.117901 1111.368986 L 7577.536087 1098.097265 L 7584.281843 1091.424742 L 7590.990936 1084.752219 L 7597.700029 1078.116358 L 7604.445785 1071.407172 L 7611.154878 1064.734649 L 7617.863971 1058.025464 L 7624.609727 1051.316279 L 7631.31882 1044.607094 L 7638.064575 1037.897908 L 7644.773669 1031.152061 L 7671.646704 1004.278658 L 7678.392459 997.569472 L 7691.810646 984.151102 L 7698.556401 977.441917 L 7711.974588 964.023546 L 7718.720343 957.351023 L 7725.429437 950.6785 L 7732.175192 944.005977 L 7752.302472 924.098394 L 7759.048227 917.499196 L 7765.757321 910.899997 L 7772.503076 904.337461 L 7779.212169 897.774924 L 7785.957924 891.212388 L 7792.667018 884.723176 L 7799.376111 878.197302 L 7806.085205 871.744752 L 7812.83096 865.292202 L 7819.540053 858.839652 L 7826.285809 852.423765 L 7832.994902 846.081202 L 7839.703995 839.701976 L 7846.449751 833.396076 L 7853.158844 827.090175 L 7859.867937 820.857598 L 7866.613693 814.625022 L 7873.322786 808.392445 L 7880.031879 802.233193 L 7886.777635 796.110603 L 7893.486728 790.024676 L 7900.232483 783.97541 L 7906.941577 777.926145 L 7913.65067 771.950204 L 7920.396425 766.010925 L 7927.105519 760.108309 L 7933.814612 754.242354 L 7940.560367 748.413062 L 7947.269461 742.620432 L 7953.978554 736.901127 L 7960.724309 731.181821 L 7974.142496 719.963184 L 7980.888251 714.390527 L 7987.597345 708.891195 L 7994.3431 703.428525 L 8001.052193 698.039179 L 8007.761287 692.686496 L 8014.507042 687.370475 L 8021.216135 682.127778 L 8027.925229 676.921744 L 8034.670984 671.789034 L 8041.380077 666.692986 L 8048.125832 661.670263 L 8054.834926 656.684201 L 8061.544019 651.771465 L 8068.289774 646.89539 L 8074.998868 642.09264 L 8081.707961 637.363214 L 8088.453716 632.670451 L 8095.16281 628.051012 L 8101.871903 623.504897 L 8108.617659 618.995445 L 8115.326752 614.559317 L 8122.072507 610.196513 L 8128.781601 605.907034 L 8135.490694 601.654217 L 8142.236449 597.474725 L 8148.945543 593.368557 L 8155.654636 589.335713 L 8162.400391 585.376194 L 8169.109485 581.453337 L 8175.818578 577.603805 L 8182.564333 573.864259 L 8189.273427 570.161375 L 8195.98252 566.531816 L 8202.728275 562.975581 L 8209.437369 559.492671 L 8216.183124 556.083085 L 8222.892217 552.783485 L 8229.601311 549.520548 L 8236.347066 546.330936 L 8243.056159 543.214647 L 8249.765253 540.171684 L 8256.511008 537.202044 L 8263.220101 534.342392 L 8269.965856 531.519401 L 8276.67495 528.806397 L 8283.384043 526.166718 L 8290.093137 523.5637 L 8296.838892 521.07067 L 8303.547985 518.687626 L 8310.29374 516.341244 L 8317.002834 514.068187 L 8323.711927 511.905116 L 8330.457682 509.81537 L 8337.166776 507.762286 L 8343.875869 505.855851 L 8350.621624 503.986078 L 8357.330718 502.226292 L 8364.076473 500.53983 L 8370.785566 498.926692 L 8377.49466 497.386879 L 8384.240415 495.957053 L 8390.949508 494.563889 L 8397.658602 493.317373 L 8404.404357 492.10752 L 8411.113451 491.007654 L 8417.822544 489.981112 L 8424.568299 489.027894 L 8431.277393 488.148001 L 8437.986486 487.378095 L 8444.732241 486.681513 L 8451.441335 486.094917 L 8458.18709 485.544984 L 8464.896183 485.105037 L 8471.605277 484.775077 L 8478.351032 484.48178 L 8485.060125 484.298469 L 8491.769219 484.225144 L 8498.514974 484.188482 L 8505.224067 484.261806 L 8511.933161 484.408455 L 8518.678916 484.665091 L 8525.388009 484.958389 L 8532.133764 485.361673 L 8538.842858 485.874944 L 8545.551951 486.424877 L 8552.297706 487.084797 L 8559.0068 487.854703 L 8565.715893 488.661272 L 8572.461648 489.577828 L 8579.170742 490.567707 L 8585.916497 491.667574 L 8592.62559 492.804102 L 8599.334684 494.050618 L 8606.043777 495.40712 L 8612.789532 496.800284 L 8619.498626 498.303435 L 8626.244381 499.87991 L 8632.953474 501.529709 L 8639.662568 503.252834 L 8646.408323 505.085944 L 8653.117416 506.992379 L 8659.82651 508.972139 L 8666.572265 511.061885 L 8673.281358 513.188294 L 8680.027114 515.424689 L 8686.736207 517.734408 L 8693.4453 520.117452 L 8700.154394 522.573821 L 8706.900149 525.103513 L 8713.609243 527.743193 L 8720.354998 530.419535 L 8727.064091 533.205863 L 8733.773185 536.065516 L 8740.51894 538.998493 L 8747.228033 542.004794 L 8753.937127 545.08442 L 8760.682882 548.237371 L 8767.391975 551.463646 L 8774.13773 554.763245 L 8780.846824 558.136169 L 8787.555917 561.582417 L 8794.301672 565.10199 L 8801.010766 568.694887 L 8807.756521 572.361108 L 8814.465614 576.100654 L 8821.174708 579.913524 L 8827.883801 583.763057 L 8834.629556 587.722576 L 8841.33865 591.755419 L 8848.084405 595.824925 L 8854.793498 599.967756 L 8861.502592 604.18391 L 8868.248347 608.473389 L 8874.95744 612.799531 L 8881.666534 617.198996 L 8888.412289 621.671787 L 8895.121382 626.217901 L 8901.830476 630.83734 L 8908.576231 635.456779 L 8915.285324 640.186205 L 8921.994418 644.952293 L 8928.740173 649.791705 L 8935.449266 654.704442 L 8942.195022 659.653841 L 8948.904115 664.676564 L 8955.613208 669.73595 L 8962.358964 674.86866 L 8969.068057 680.038032 L 8975.77715 685.280729 L 8982.522906 690.560088 L 8989.231999 695.876109 L 8995.977754 701.265454 L 9002.686848 706.691462 L 9009.395941 712.190794 L 9016.141696 717.726789 L 9022.85079 723.299445 L 9029.559883 728.945426 L 9036.305638 734.62807 L 9043.014732 740.347375 L 9049.723825 746.103343 L 9056.46958 751.895973 L 9063.178674 757.725265 L 9069.924429 763.627881 L 9076.633522 769.56716 L 9083.342616 775.543101 L 9090.051709 781.555704 L 9096.797464 787.568307 L 9103.506558 793.654235 L 9110.252313 799.776825 L 9116.961406 805.936077 L 9123.6705 812.131991 L 9130.416255 818.327905 L 9137.125348 824.597144 " transform="matrix(0.106548,0,0,-0.106547,0,228.374)"/>
<path style=" stroke:none;fill-rule:nonzero;fill:rgb(0%,0%,0%);fill-opacity:1;" d="M 466.980469 119.300781 L 1006.082031 119.300781 L 1006.082031 120.5 L 466.980469 120.5 C 466.652344 120.5 466.382812 120.234375 466.382812 119.902344 C 466.382812 119.570312 466.652344 119.300781 466.980469 119.300781 Z M 1019.492188 119.902344 L 1002.710938 115.105469 L 1006.066406 119.300781 L 1006.066406 120.5 L 1002.710938 124.695312 Z M 1019.492188 119.902344 "/>
<path style=" stroke:none;fill-rule:nonzero;fill:rgb(0%,0%,0%);fill-opacity:1;" d="M 526.179688 219.789062 L 526.179688 33.425781 L 527.378906 33.425781 L 527.378906 219.789062 C 527.378906 220.121094 527.109375 220.390625 526.777344 220.390625 C 526.449219 220.390625 526.179688 220.121094 526.179688 219.789062 Z M 526.777344 20.015625 L 521.984375 36.796875 L 526.179688 33.4375 L 527.378906 33.4375 L 531.574219 36.796875 Z M 526.777344 20.015625 "/>
<path style=" stroke:none;fill-rule:evenodd;fill:rgb(0%,0%,0%);fill-opacity:1;" d="M 131.53125 140.941406 C 131.273438 141.953125 130.855469 142.929688 130.277344 143.871094 C 129.699219 144.8125 128.972656 145.671875 128.097656 146.453125 C 127.308594 147.15625 126.441406 147.71875 125.507812 148.132812 C 124.570312 148.546875 123.628906 148.753906 122.691406 148.753906 C 121.742188 148.753906 120.898438 148.542969 120.164062 148.125 C 119.425781 147.707031 118.839844 147.144531 118.402344 146.429688 C 117.921875 145.644531 117.644531 144.773438 117.574219 143.816406 C 117.542969 143.585938 117.53125 143.359375 117.53125 143.128906 C 117.53125 142.410156 117.625 141.667969 117.808594 140.898438 C 118.082031 139.875 118.503906 138.878906 119.074219 137.914062 C 119.648438 136.949219 120.378906 136.078125 121.269531 135.292969 C 122.058594 134.589844 122.921875 134.023438 123.859375 133.597656 C 124.796875 133.167969 125.742188 132.953125 126.695312 132.953125 C 127.644531 132.953125 128.480469 133.171875 129.210938 133.601562 C 129.941406 134.03125 130.523438 134.605469 130.960938 135.316406 C 131.441406 136.105469 131.726562 136.980469 131.8125 137.949219 C 131.828125 138.1875 131.832031 138.421875 131.832031 138.652344 C 131.832031 139.398438 131.734375 140.160156 131.53125 140.941406 Z M 129.355469 135.671875 C 129.121094 135.085938 128.765625 134.609375 128.289062 134.242188 C 127.816406 133.878906 127.234375 133.695312 126.546875 133.695312 C 125.863281 133.695312 125.183594 133.882812 124.511719 134.253906 C 123.835938 134.628906 123.230469 135.113281 122.699219 135.703125 C 122.03125 136.421875 121.503906 137.199219 121.117188 138.039062 C 120.730469 138.878906 120.425781 139.734375 120.210938 140.597656 C 119.960938 141.539062 119.808594 142.457031 119.75 143.347656 C 119.734375 143.515625 119.726562 143.683594 119.726562 143.847656 C 119.726562 144.546875 119.84375 145.230469 120.070312 145.898438 C 120.296875 146.492188 120.636719 146.988281 121.09375 147.390625 C 121.554688 147.789062 122.128906 147.988281 122.820312 147.988281 C 123.53125 147.988281 124.226562 147.785156 124.902344 147.378906 C 125.582031 146.96875 126.191406 146.464844 126.730469 145.867188 C 127.425781 145.058594 127.96875 144.203125 128.355469 143.304688 C 128.742188 142.40625 129.058594 141.488281 129.300781 140.554688 C 129.523438 139.683594 129.664062 138.828125 129.722656 137.980469 L 129.722656 137.617188 C 129.722656 136.921875 129.601562 136.269531 129.355469 135.671875 Z M 129.355469 135.671875 "/>
<path style=" stroke:none;fill-rule:evenodd;fill:rgb(0%,0%,0%);fill-opacity:1;" d="M 512.988281 140.941406 C 512.726562 141.953125 512.308594 142.929688 511.730469 143.871094 C 511.152344 144.8125 510.425781 145.671875 509.550781 146.453125 C 508.761719 147.15625 507.898438 147.71875 506.960938 148.132812 C 506.023438 148.546875 505.085938 148.753906 504.144531 148.753906 C 503.195312 148.753906 502.355469 148.542969 501.617188 148.125 C 500.882812 147.707031 500.296875 147.144531 499.855469 146.429688 C 499.375 145.644531 499.097656 144.773438 499.027344 143.816406 C 499 143.585938 498.984375 143.359375 498.984375 143.128906 C 498.984375 142.410156 499.078125 141.667969 499.265625 140.898438 C 499.539062 139.875 499.957031 138.878906 500.53125 137.914062 C 501.101562 136.949219 501.832031 136.078125 502.722656 135.292969 C 503.511719 134.589844 504.375 134.023438 505.3125 133.597656 C 506.25 133.167969 507.195312 132.953125 508.148438 132.953125 C 509.097656 132.953125 509.9375 133.171875 510.664062 133.601562 C 511.394531 134.03125 511.976562 134.605469 512.414062 135.316406 C 512.898438 136.105469 513.179688 136.980469 513.265625 137.949219 C 513.28125 138.1875 513.289062 138.421875 513.289062 138.652344 C 513.289062 139.398438 513.1875 140.160156 512.988281 140.941406 Z M 510.8125 135.671875 C 510.574219 135.085938 510.21875 134.609375 509.746094 134.242188 C 509.269531 133.878906 508.6875 133.695312 508 133.695312 C 507.316406 133.695312 506.640625 133.882812 505.964844 134.253906 C 505.289062 134.628906 504.6875 135.113281 504.152344 135.703125 C 503.488281 136.421875 502.957031 137.199219 502.570312 138.039062 C 502.183594 138.878906 501.882812 139.734375 501.667969 140.597656 C 501.414062 141.539062 501.261719 142.457031 501.203125 143.347656 C 501.1875 143.515625 501.183594 143.683594 501.183594 143.847656 C 501.183594 144.546875 501.296875 145.230469 501.527344 145.898438 C 501.75 146.492188 502.089844 146.988281 502.550781 147.390625 C 503.007812 147.789062 503.582031 147.988281 504.273438 147.988281 C 504.984375 147.988281 505.679688 147.785156 506.359375 147.378906 C 507.035156 146.96875 507.644531 146.464844 508.183594 145.867188 C 508.878906 145.058594 509.421875 144.203125 509.808594 143.304688 C 510.199219 142.40625 510.511719 141.488281 510.757812 140.554688 C 510.980469 139.683594 511.121094 138.828125 511.175781 137.980469 L 511.175781 137.617188 C 511.175781 136.921875 511.054688 136.269531 510.8125 135.671875 Z M 510.8125 135.671875 "/>
<path style=" stroke:none;fill-rule:evenodd;fill:rgb(0%,0%,0%);fill-opacity:1;" d="M 432.960938 140.355469 C 432.882812 140.671875 432.722656 140.90625 432.480469 141.0625 C 432.242188 141.21875 432 141.296875 431.753906 141.296875 C 431.503906 141.296875 431.292969 141.21875 431.128906 141.054688 C 431.007812 140.9375 430.941406 140.785156 430.933594 140.597656 C 430.933594 140.519531 430.949219 140.421875 430.976562 140.304688 C 431.058594 140.039062 431.179688 139.839844 431.34375 139.703125 C 431.511719 139.566406 431.625 139.488281 431.6875 139.46875 C 431.554688 139.363281 431.273438 139.3125 430.847656 139.308594 C 430.476562 139.3125 430.140625 139.503906 429.847656 139.890625 C 429.554688 140.277344 429.335938 140.742188 429.191406 141.285156 L 428.199219 145.113281 C 428.097656 145.5 428.023438 145.863281 427.972656 146.210938 C 427.945312 146.332031 427.929688 146.433594 427.929688 146.527344 C 427.929688 146.742188 427.964844 146.949219 428.039062 147.140625 C 428.109375 147.351562 428.21875 147.519531 428.363281 147.644531 C 428.503906 147.769531 428.6875 147.832031 428.910156 147.832031 C 429.199219 147.832031 429.472656 147.757812 429.738281 147.609375 C 430.003906 147.457031 430.25 147.257812 430.472656 147.003906 C 430.695312 146.746094 430.890625 146.453125 431.066406 146.113281 C 431.238281 145.773438 431.375 145.429688 431.472656 145.070312 C 431.515625 144.890625 431.640625 144.800781 431.839844 144.800781 L 432.085938 144.800781 C 432.273438 144.800781 432.367188 144.871094 432.367188 145.007812 C 432.367188 145.050781 432.359375 145.089844 432.335938 145.125 C 432.234375 145.542969 432.070312 145.957031 431.84375 146.363281 C 431.621094 146.773438 431.355469 147.132812 431.054688 147.445312 C 430.753906 147.761719 430.410156 148.019531 430.027344 148.21875 C 429.640625 148.421875 429.230469 148.523438 428.792969 148.523438 C 428.347656 148.523438 427.960938 148.425781 427.640625 148.234375 C 427.316406 148.042969 427.054688 147.792969 426.851562 147.488281 C 426.789062 147.410156 426.738281 147.332031 426.703125 147.253906 C 426.667969 147.171875 426.65625 147.160156 426.671875 147.214844 C 426.5 147.5 426.226562 147.792969 425.851562 148.085938 C 425.480469 148.378906 425.046875 148.523438 424.558594 148.523438 C 424.285156 148.523438 424.015625 148.488281 423.75 148.417969 C 423.484375 148.347656 423.253906 148.242188 423.054688 148.09375 C 422.859375 147.949219 422.710938 147.769531 422.609375 147.5625 C 422.558594 147.4375 422.535156 147.300781 422.535156 147.152344 C 422.535156 147.050781 422.550781 146.925781 422.578125 146.785156 C 422.65625 146.472656 422.816406 146.238281 423.0625 146.082031 C 423.308594 145.925781 423.550781 145.847656 423.792969 145.847656 C 424.046875 145.847656 424.261719 145.925781 424.441406 146.085938 C 424.5625 146.207031 424.625 146.359375 424.625 146.546875 C 424.625 146.644531 424.609375 146.742188 424.582031 146.839844 C 424.515625 147.082031 424.398438 147.28125 424.230469 147.429688 C 424.0625 147.582031 423.941406 147.664062 423.871094 147.675781 C 424.007812 147.789062 424.28125 147.839844 424.699219 147.832031 C 425.074219 147.832031 425.410156 147.636719 425.710938 147.246094 C 426.011719 146.859375 426.230469 146.390625 426.367188 145.847656 L 427.371094 141.996094 C 427.46875 141.636719 427.550781 141.28125 427.605469 140.929688 C 427.621094 140.820312 427.628906 140.714844 427.628906 140.617188 C 427.628906 140.402344 427.597656 140.199219 427.53125 140.011719 C 427.460938 139.800781 427.347656 139.632812 427.199219 139.503906 C 427.046875 139.375 426.859375 139.3125 426.636719 139.308594 C 426.351562 139.3125 426.070312 139.386719 425.800781 139.535156 C 425.535156 139.6875 425.289062 139.886719 425.066406 140.136719 C 424.84375 140.386719 424.644531 140.679688 424.472656 141.011719 C 424.300781 141.339844 424.175781 141.691406 424.09375 142.058594 C 424.015625 142.25 423.882812 142.347656 423.699219 142.351562 L 423.460938 142.351562 C 423.289062 142.355469 423.203125 142.265625 423.203125 142.09375 L 423.203125 142.019531 C 423.308594 141.585938 423.476562 141.167969 423.699219 140.757812 C 423.917969 140.351562 424.1875 139.992188 424.496094 139.675781 C 424.804688 139.363281 425.148438 139.105469 425.527344 138.910156 C 425.910156 138.710938 426.324219 138.609375 426.765625 138.609375 C 427.199219 138.609375 427.578125 138.703125 427.910156 138.894531 C 428.238281 139.082031 428.507812 139.332031 428.714844 139.644531 C 428.757812 139.722656 428.800781 139.804688 428.835938 139.890625 C 428.871094 139.980469 428.882812 140 428.867188 139.957031 C 429.046875 139.652344 429.324219 139.351562 429.695312 139.054688 C 430.070312 138.757812 430.496094 138.609375 430.976562 138.609375 C 431.25 138.609375 431.523438 138.644531 431.792969 138.710938 C 432.0625 138.777344 432.292969 138.882812 432.492188 139.027344 C 432.691406 139.175781 432.835938 139.355469 432.929688 139.570312 C 432.976562 139.699219 433.003906 139.839844 433.003906 140 C 433.003906 140.105469 432.988281 140.222656 432.960938 140.355469 Z M 432.960938 140.355469 "/>
<path style=" stroke:none;fill-rule:evenodd;fill:rgb(0%,0%,0%);fill-opacity:1;" d="M 999.332031 140.355469 C 999.253906 140.671875 999.09375 140.90625 998.851562 141.0625 C 998.613281 141.21875 998.371094 141.296875 998.125 141.296875 C 997.875 141.296875 997.667969 141.21875 997.5 141.054688 C 997.378906 140.9375 997.316406 140.785156 997.308594 140.597656 C 997.308594 140.519531 997.320312 140.421875 997.351562 140.304688 C 997.429688 140.039062 997.550781 139.839844 997.714844 139.703125 C 997.882812 139.566406 997.996094 139.488281 998.0625 139.46875 C 997.925781 139.363281 997.644531 139.3125 997.222656 139.308594 C 996.847656 139.3125 996.515625 139.503906 996.21875 139.890625 C 995.925781 140.277344 995.707031 140.742188 995.5625 141.285156 L 994.570312 145.113281 C 994.472656 145.5 994.394531 145.863281 994.34375 146.210938 C 994.316406 146.332031 994.300781 146.433594 994.300781 146.527344 C 994.300781 146.742188 994.339844 146.949219 994.410156 147.140625 C 994.480469 147.351562 994.589844 147.519531 994.734375 147.644531 C 994.878906 147.769531 995.058594 147.832031 995.28125 147.832031 C 995.570312 147.832031 995.847656 147.757812 996.113281 147.609375 C 996.378906 147.457031 996.621094 147.257812 996.84375 147.003906 C 997.066406 146.746094 997.265625 146.453125 997.4375 146.113281 C 997.609375 145.773438 997.746094 145.429688 997.847656 145.070312 C 997.890625 144.890625 998.011719 144.800781 998.210938 144.800781 L 998.460938 144.800781 C 998.648438 144.800781 998.742188 144.871094 998.742188 145.007812 C 998.742188 145.050781 998.730469 145.089844 998.707031 145.125 C 998.609375 145.542969 998.445312 145.957031 998.21875 146.363281 C 997.992188 146.773438 997.726562 147.132812 997.425781 147.445312 C 997.125 147.761719 996.78125 148.019531 996.398438 148.21875 C 996.011719 148.421875 995.601562 148.523438 995.164062 148.523438 C 994.71875 148.523438 994.335938 148.425781 994.011719 148.234375 C 993.691406 148.042969 993.425781 147.792969 993.226562 147.488281 C 993.160156 147.410156 993.109375 147.332031 993.074219 147.253906 C 993.039062 147.171875 993.027344 147.160156 993.042969 147.214844 C 992.871094 147.5 992.597656 147.792969 992.222656 148.085938 C 991.851562 148.378906 991.421875 148.523438 990.929688 148.523438 C 990.660156 148.523438 990.390625 148.488281 990.125 148.417969 C 989.859375 148.347656 989.625 148.242188 989.429688 148.09375 C 989.230469 147.949219 989.082031 147.769531 988.980469 147.5625 C 988.933594 147.4375 988.90625 147.300781 988.90625 147.152344 C 988.90625 147.050781 988.921875 146.925781 988.949219 146.785156 C 989.027344 146.472656 989.191406 146.238281 989.433594 146.082031 C 989.679688 145.925781 989.921875 145.847656 990.167969 145.847656 C 990.417969 145.847656 990.632812 145.925781 990.8125 146.085938 C 990.933594 146.207031 990.996094 146.359375 990.996094 146.546875 C 990.996094 146.644531 990.980469 146.742188 990.953125 146.839844 C 990.890625 147.082031 990.773438 147.28125 990.601562 147.429688 C 990.433594 147.582031 990.3125 147.664062 990.242188 147.675781 C 990.378906 147.789062 990.65625 147.839844 991.070312 147.832031 C 991.445312 147.832031 991.78125 147.636719 992.082031 147.246094 C 992.386719 146.859375 992.605469 146.390625 992.742188 145.847656 L 993.742188 141.996094 C 993.84375 141.636719 993.921875 141.28125 993.980469 140.929688 C 993.992188 140.820312 994 140.714844 994 140.617188 C 994 140.402344 993.96875 140.199219 993.902344 140.011719 C 993.832031 139.800781 993.722656 139.632812 993.570312 139.503906 C 993.417969 139.375 993.234375 139.3125 993.011719 139.308594 C 992.722656 139.3125 992.445312 139.386719 992.175781 139.535156 C 991.90625 139.6875 991.660156 139.886719 991.4375 140.136719 C 991.214844 140.386719 991.019531 140.679688 990.84375 141.011719 C 990.671875 141.339844 990.546875 141.691406 990.46875 142.058594 C 990.390625 142.25 990.257812 142.347656 990.070312 142.351562 L 989.832031 142.351562 C 989.660156 142.355469 989.574219 142.265625 989.574219 142.09375 L 989.574219 142.019531 C 989.683594 141.585938 989.847656 141.167969 990.070312 140.757812 C 990.292969 140.351562 990.558594 139.992188 990.867188 139.675781 C 991.175781 139.363281 991.519531 139.105469 991.902344 138.910156 C 992.28125 138.710938 992.695312 138.609375 993.140625 138.609375 C 993.570312 138.609375 993.949219 138.703125 994.28125 138.894531 C 994.613281 139.082031 994.882812 139.332031 995.089844 139.644531 C 995.132812 139.722656 995.171875 139.804688 995.207031 139.890625 C 995.242188 139.980469 995.253906 140 995.238281 139.957031 C 995.417969 139.652344 995.695312 139.351562 996.070312 139.054688 C 996.441406 138.757812 996.871094 138.609375 997.351562 138.609375 C 997.625 138.609375 997.894531 138.644531 998.164062 138.710938 C 998.433594 138.777344 998.667969 138.882812 998.863281 139.027344 C 999.0625 139.175781 999.207031 139.355469 999.300781 139.570312 C 999.351562 139.699219 999.375 139.839844 999.375 140 C 999.375 140.105469 999.359375 140.222656 999.332031 140.355469 Z M 999.332031 140.355469 "/>
<path style="fill:none;stroke-width:15;stroke-linecap:round;stroke-linejoin:round;stroke:rgb(0%,0%,0%);stroke-opacity:1;stroke-dasharray:60,30;stroke-miterlimit:10;" d="M 6816.988856 268.064727 L 6816.988856 1768.062573 " transform="matrix(0.106548,0,0,-0.106547,0,228.374)"/>
<path style=" stroke:none;fill-rule:nonzero;fill:rgb(0%,0%,0%);fill-opacity:1;" d="M 531.648438 51.085938 L 623.488281 51.085938 L 623.488281 52.683594 L 531.648438 52.683594 C 531.207031 52.683594 530.847656 52.324219 530.847656 51.882812 C 530.847656 51.441406 531.207031 51.085938 531.648438 51.085938 Z M 636.257812 51.882812 L 620.277344 47.089844 L 623.472656 51.085938 L 623.472656 52.683594 L 620.277344 56.675781 Z M 636.257812 51.882812 "/>
<path style=" stroke:none;fill-rule:evenodd;fill:rgb(0%,0%,0%);fill-opacity:1;" d="M 577.910156 28.179688 C 578.105469 28.371094 578.226562 28.636719 578.277344 28.976562 C 578.292969 29.144531 578.300781 29.304688 578.300781 29.457031 C 578.300781 29.652344 578.285156 29.847656 578.253906 30.042969 C 578.210938 30.433594 578.148438 30.828125 578.054688 31.230469 C 577.96875 31.632812 577.878906 31.988281 577.792969 32.300781 C 577.648438 32.894531 577.457031 33.515625 577.214844 34.164062 C 576.976562 34.8125 576.679688 35.40625 576.328125 35.953125 C 575.976562 36.496094 575.566406 36.953125 575.09375 37.320312 C 574.625 37.691406 574.082031 37.875 573.464844 37.875 C 572.976562 37.875 572.511719 37.789062 572.078125 37.613281 C 571.644531 37.441406 571.304688 37.15625 571.0625 36.765625 C 570.796875 36.371094 570.667969 35.917969 570.671875 35.40625 C 570.671875 35.378906 570.679688 35.351562 570.695312 35.324219 C 570.695312 34.828125 570.753906 34.332031 570.867188 33.828125 C 570.980469 33.347656 571.148438 32.816406 571.367188 32.238281 C 571.585938 31.660156 571.796875 31.097656 571.996094 30.554688 C 572.214844 29.976562 572.320312 29.503906 572.320312 29.132812 C 572.320312 28.820312 572.1875 28.664062 571.921875 28.664062 C 571.679688 28.664062 571.457031 28.734375 571.261719 28.871094 C 571.0625 29.011719 570.882812 29.207031 570.722656 29.453125 C 570.5625 29.699219 570.414062 29.992188 570.285156 30.332031 C 570.15625 30.667969 570.050781 31.03125 569.960938 31.414062 C 569.882812 31.601562 569.75 31.699219 569.5625 31.707031 L 569.316406 31.707031 C 569.144531 31.707031 569.058594 31.617188 569.058594 31.445312 L 569.058594 31.371094 C 569.15625 30.988281 569.292969 30.597656 569.457031 30.195312 C 569.621094 29.792969 569.828125 29.429688 570.082031 29.101562 C 570.332031 28.773438 570.621094 28.503906 570.941406 28.285156 C 571.265625 28.070312 571.636719 27.960938 572.050781 27.960938 C 572.410156 27.960938 572.71875 28.039062 572.972656 28.191406 C 573.226562 28.347656 573.421875 28.550781 573.554688 28.804688 C 573.6875 29.058594 573.761719 29.347656 573.777344 29.667969 L 573.777344 29.738281 C 573.777344 30.039062 573.714844 30.351562 573.59375 30.671875 C 573.382812 31.214844 573.179688 31.769531 572.972656 32.339844 C 572.769531 32.90625 572.609375 33.417969 572.492188 33.871094 C 572.378906 34.34375 572.300781 34.796875 572.257812 35.230469 C 572.242188 35.328125 572.234375 35.421875 572.234375 35.511719 C 572.234375 35.824219 572.289062 36.121094 572.398438 36.402344 C 572.488281 36.644531 572.644531 36.835938 572.855469 36.976562 C 573.066406 37.117188 573.316406 37.183594 573.601562 37.183594 C 574.027344 37.183594 574.410156 37.046875 574.75 36.773438 C 575.089844 36.496094 575.394531 36.125 575.660156 35.660156 C 575.925781 35.191406 576.160156 34.660156 576.367188 34.0625 C 576.570312 33.46875 576.753906 32.867188 576.910156 32.257812 C 576.980469 31.953125 577.015625 31.660156 577.015625 31.382812 C 577.015625 31.171875 577.003906 30.972656 576.972656 30.785156 C 576.882812 30.332031 576.671875 29.949219 576.347656 29.632812 C 576.199219 29.488281 576.121094 29.320312 576.113281 29.132812 C 576.113281 29.0625 576.125 28.996094 576.144531 28.933594 C 576.210938 28.691406 576.335938 28.480469 576.527344 28.300781 C 576.71875 28.125 576.941406 28.011719 577.199219 27.960938 C 577.242188 27.949219 577.292969 27.941406 577.351562 27.941406 C 577.558594 27.941406 577.746094 28.023438 577.910156 28.179688 Z M 577.910156 28.179688 "/>
<path style=" stroke:none;fill-rule:evenodd;fill:rgb(0%,0%,0%);fill-opacity:1;" d="M 585.574219 28.757812 C 585.496094 28.964844 585.355469 29.070312 585.15625 29.070312 L 583.152344 29.070312 L 581.558594 35.25 C 581.429688 35.695312 581.367188 36.085938 581.367188 36.421875 C 581.367188 36.511719 581.371094 36.601562 581.386719 36.683594 C 581.421875 37.019531 581.589844 37.183594 581.894531 37.183594 C 582.164062 37.183594 582.425781 37.109375 582.667969 36.960938 C 582.914062 36.8125 583.140625 36.609375 583.355469 36.359375 C 583.574219 36.109375 583.765625 35.8125 583.9375 35.46875 C 584.113281 35.128906 584.269531 34.769531 584.414062 34.394531 C 584.433594 34.308594 584.480469 34.25 584.554688 34.210938 C 584.625 34.171875 584.691406 34.152344 584.757812 34.152344 L 585.027344 34.152344 C 585.121094 34.152344 585.195312 34.191406 585.253906 34.265625 C 585.273438 34.316406 585.285156 34.363281 585.285156 34.402344 L 585.285156 34.464844 C 585.132812 34.878906 584.945312 35.285156 584.71875 35.683594 C 584.492188 36.085938 584.234375 36.445312 583.9375 36.765625 C 583.644531 37.085938 583.320312 37.351562 582.964844 37.5625 C 582.609375 37.769531 582.214844 37.875 581.785156 37.875 C 581.410156 37.875 581.089844 37.804688 580.816406 37.660156 C 580.542969 37.519531 580.324219 37.320312 580.160156 37.066406 C 579.992188 36.8125 579.898438 36.519531 579.867188 36.191406 C 579.855469 36.109375 579.847656 36.015625 579.847656 35.917969 C 579.847656 35.683594 579.875 35.441406 579.933594 35.199219 L 581.515625 29.070312 L 579.492188 29.070312 C 579.3125 29.070312 579.214844 28.976562 579.199219 28.789062 L 579.199219 28.703125 L 579.265625 28.527344 C 579.335938 28.316406 579.46875 28.214844 579.664062 28.210938 L 581.71875 28.210938 L 582.601562 24.78125 C 582.667969 24.523438 582.800781 24.332031 582.996094 24.207031 C 583.195312 24.082031 583.394531 24.019531 583.59375 24.019531 C 583.800781 24.019531 583.976562 24.085938 584.109375 24.21875 C 584.203125 24.308594 584.25 24.4375 584.25 24.59375 C 584.25 24.671875 584.242188 24.75 584.230469 24.824219 L 583.355469 28.210938 L 585.339844 28.210938 C 585.527344 28.214844 585.617188 28.308594 585.617188 28.496094 L 585.617188 28.566406 Z M 585.574219 28.757812 "/>
</g>
</svg>
