<?xml version="1.0" encoding="utf-8"?>
<!-- Generator: Adobe Illustrator 19.0.0, SVG Export Plug-In . SVG Version: 6.00 Build 0)  -->
<svg version="1.1" id="Layer_1" xmlns="http://www.w3.org/2000/svg" xmlns:xlink="http://www.w3.org/1999/xlink" x="0px" y="0px"
	 viewBox="0 0 261.1199951 245.0399933" style="enable-background:new 0 0 261.1199951 245.0399933;" xml:space="preserve">
<style type="text/css">
	.st0{clip-path:url(#SVGID_2_);}
	.st1{clip-path:url(#SVGID_4_);}
	.st2{clip-path:url(#SVGID_6_);}
	.st3{clip-path:url(#SVGID_8_);fill-rule:evenodd;clip-rule:evenodd;fill:#FFFFFF;}
	
		.st4{clip-path:url(#SVGID_8_);fill:none;stroke:#000000;stroke-width:1.9977207;stroke-linecap:round;stroke-linejoin:round;stroke-miterlimit:10;}
	.st5{clip-path:url(#SVGID_8_);}
	.st6{clip-path:url(#SVGID_10_);fill-rule:evenodd;clip-rule:evenodd;}
	.st7{clip-path:url(#SVGID_12_);fill-rule:evenodd;clip-rule:evenodd;}
	
		.st8{opacity:0.9098;clip-path:url(#SVGID_8_);fill:none;stroke:#0080FF;stroke-width:2.2474358;stroke-linecap:round;stroke-linejoin:round;stroke-miterlimit:10;}
	.st9{clip-path:url(#SVGID_14_);fill-rule:evenodd;clip-rule:evenodd;}
</style>
<g>
	<defs>
		<rect id="SVGID_1_" width="261.1199951" height="245.0399933"/>
	</defs>
	<clipPath id="SVGID_2_">
		<use xlink:href="#SVGID_1_"  style="overflow:visible;"/>
	</clipPath>
	<g class="st0">
		<defs>
			<rect id="SVGID_3_" x="0.0000039" y="0.0000153" width="261.1199951" height="245.0399933"/>
		</defs>
		<clipPath id="SVGID_4_">
			<use xlink:href="#SVGID_3_"  style="overflow:visible;"/>
		</clipPath>
		<g class="st1">
		</g>
	</g>
	<g class="st0">
		<defs>
			<rect id="SVGID_5_" y="-0.0000458" width="261.1199951" height="245.0399933"/>
		</defs>
		<clipPath id="SVGID_6_">
			<use xlink:href="#SVGID_5_"  style="overflow:visible;"/>
		</clipPath>
		<g class="st2">
			<defs>
				<rect id="SVGID_7_" y="-0.0031128" width="260.7003479" height="244.7214966"/>
			</defs>
			<clipPath id="SVGID_8_">
				<use xlink:href="#SVGID_7_"  style="overflow:visible;"/>
			</clipPath>
			<circle class="st3" cx="125.5906525" cy="122.8577347" r="113.3693695"/>
			<circle class="st4" cx="125.5906525" cy="122.8577347" r="113.3693695"/>
			<path class="st5" d="M238.960022,122.8577347l-19.9770508-5.9932175l3.9954071,4.9943466v1.9977417l-3.9954071,4.9943466
				L238.960022,122.8577347z M125.5903168,121.8588638h97.4040527v1.9977417h-97.4040527
				c-0.5513687,0-0.998848-0.4474945-0.998848-0.9988708S125.0389481,121.8588638,125.5903168,121.8588638z"/>
			<path class="st5" d="M212.9898682,48.7789764L193.875824,57.124176l6.2767944,1.2266235l1.2918396,1.5235901l0.1811371,6.394104
				L212.9898682,48.7789764z M124.9443893,122.0959244l75.2202072-63.7557907l1.2918549,1.5249481l-75.2202148,63.7544479
				c-0.420845,0.3569336-1.0507889,0.3050003-1.4077148-0.1158676
				C124.4716034,123.0828094,124.5235443,122.4515305,124.9443893,122.0959244z"/>
			<path class="st4" d="M143.9052734,107.2314301c3.7183838,4.3577271,5.7600403,9.8981247,5.7600403,15.6263046"/>
			<g class="st5">
				<defs>
					<rect id="SVGID_9_" x="161.6009216" y="83.3800735" width="21.7008209" height="41.9734955"/>
				</defs>
				<clipPath id="SVGID_10_">
					<use xlink:href="#SVGID_9_"  style="overflow:visible;"/>
				</clipPath>
				<path class="st6" d="M169.5626831,103.519516c-0.2418518,0.9852753-0.4533386,1.9788055-0.6331329,2.9803314
					c-0.1430359,0.7237091-0.2149506,1.4474182-0.2149506,2.1697998c0,0.2711639,0.0090485,0.5324554,0.0271606,0.7841644
					c0.0178528,0.340683,0.0585938,0.659256,0.1209259,0.9549255c0.0628662,0.2967224,0.1462402,0.5516357,0.249054,0.7647247
					c0.1028137,0.2141571,0.2402496,0.3790283,0.4109955,0.4967651c0.1707306,0.1174622,0.3774261,0.1763306,0.6190186,0.1755371
					c0.5113983,0.0007935,0.9895172-0.2384033,1.4338074-0.7181244c0.4445496-0.478653,0.8635406-1.0545197,1.2588196-1.7260284
					c0.5923767-0.9754181,1.0497131-1.9638977,1.3733368-2.9664764c0.3236237-1.0015259,0.601181-1.9737549,0.8339691-2.9156189
					H169.5626831z M176.1593323,96.5277557c-0.0359497-0.3409424-0.0809631-0.6579285-0.1347809-0.9535828
					c-0.0538025-0.2956696-0.13237-0.5540466-0.2351837-0.7724609c-0.1030884-0.215744-0.2354736-0.3862305-0.3971558-0.503418
					c-0.1616669-0.1172028-0.367569-0.1758118-0.619278-0.1758118c-0.5202026,0-1.0007172,0.2424011-1.4402008,0.7245178
					c-0.4394989,0.4847717-0.8659363,1.0627899-1.2793274,1.7313538c-0.5921173,0.9589081-1.0497284,1.944458-1.3730774,2.955307
					c-0.3236389,1.0113831-0.6014404,1.9868011-0.8350372,2.927063h5.4792786
					c0.2426453-0.9834137,0.4671936-1.9860077,0.6730804-3.0061798c0.1438446-0.6880188,0.2157593-1.368576,0.2157593-2.0398102
					C176.2134094,97.1190796,176.1952972,96.82341,176.1593323,96.5277557z M177.9769745,96.2267609
					c0.215744,0.8283844,0.3228302,1.67276,0.3228302,2.5349731c0,0.2711639-0.0090637,0.5327301-0.0271759,0.7841797
					c-0.0889587,1.1512146-0.2817993,2.3053741-0.5782623,3.4637756c-0.3225555,1.1682739-0.7311554,2.3258972-1.2244568,3.4712524
					c-0.4935608,1.1461639-1.1495972,2.2457123-1.9665222,3.2997131c-0.2778168,0.3577271-0.5857239,0.7114563-0.9221344,1.0595856
					c-0.3366852,0.3486633-0.6978607,0.6600494-1.0832825,0.9344025c-0.3856964,0.2746277-0.7876282,0.4991608-1.2050171,0.6725616
					c-0.4173889,0.1747437-0.8552856,0.2613068-1.3128815,0.2613068c-0.4664001,0-0.8683319-0.0889587-1.2050171-0.2679596
					c-0.3364105-0.1782074-0.6256714-0.4083405-0.8683319-0.6920166c-0.2418518-0.282608-0.4418945-0.5987854-0.5987701-0.9474487
					c-0.1568909-0.3481445-0.2850037-0.7058716-0.3840942-1.0726471c-0.2237396-0.8097382-0.3364105-1.6463928-0.3364105-2.5096741
					c0-0.2778168,0.0178375-0.5524292,0.0538025-0.8235931c0.0719147-1.132309,0.2647552-2.2776794,0.578537-3.4376831
					c0.2964478-1.1666718,0.6959839-2.320816,1.198349-3.4629974c0.5031433-1.1421509,1.1714478-2.2449036,2.006485-3.3076935
					c0.2786102-0.3569183,0.5841217-0.7111816,0.915741-1.0654449c0.3316193-0.3516083,0.686142-0.6659088,1.0627747-0.9402618
					c0.3774261-0.274353,0.7743073-0.4981079,1.1919556-0.6739044c0.4173889-0.1731262,0.8592682-0.2610321,1.325943-0.2610321
					c0.4671936,0,0.8667297,0.0905609,1.198349,0.2690277s0.6256714,0.4075317,0.8813782,0.6845551
					c0.2565002,0.2796783,0.4584045,0.5993195,0.6062317,0.9562378
					C177.7556305,95.5129089,177.878952,95.8698273,177.9769745,96.2267609z"/>
			</g>
			<g class="st5">
				<defs>
					<rect id="SVGID_11_" x="165.1834717" y="117.7158432" width="28.4867401" height="41.9735107"/>
				</defs>
				<clipPath id="SVGID_12_">
					<use xlink:href="#SVGID_11_"  style="overflow:visible;"/>
				</clipPath>
				<path class="st7" d="M185.5141449,133.1105652c0.1435699-0.5209961,0.2245331-1.0457458,0.2426605-1.5678101v-0.0799103
					c0-0.4421539-0.1390381-0.8257294-0.4176483-1.1506805c-0.3316193-0.3809052-0.7644501-0.6525879-1.2987518-0.8070831
					c-0.534317-0.1571503-1.1200256-0.2370758-1.7571564-0.2370758h-1.7907104c-0.4575958,0-0.7311401,0.0346375-0.821167,0.1038818
					c-0.0897675,0.0719299-0.1837921,0.3196411-0.282608,0.7458191l-1.7768555,6.9142609h2.5980377
					c0.6371155,0.0008087,1.265976-0.077774,1.8852692-0.2346649c0.6192627-0.1566162,1.2073822-0.4352417,1.7630005-0.8371887
					c0.4762421-0.3390808,0.835556-0.7655182,1.0774078-1.2801361
					C185.1782684,134.1661682,185.371109,133.6432953,185.5141449,133.1105652z M188.6779175,144.1033783
					c-0.0980072,0.3928833-0.2458344,0.7785797-0.4434814,1.157608c-0.1976318,0.3790436-0.4394836,0.7213135-0.7271423,1.0260315
					c-0.2873993,0.3055267-0.6086273,0.5545654-0.9631348,0.7506104c-0.3545227,0.1963196-0.7375488,0.294342-1.1509247,0.294342
					c-1.3014221,0-2.280014-0.3441467-2.9352417-1.0326843c-0.4485474-0.4698792-0.6730804-1.0619965-0.6730804-1.77771
					c0-0.3651886,0.0588531-0.7612762,0.1755219-1.1895752l0.605423-2.3394775
					c0.0719147-0.295929,0.1078796-0.5745544,0.1078796-0.8366394c0-0.1299896-0.0090637-0.2647705-0.0271759-0.4051514
					c-0.0538025-0.3651733-0.1787262-0.6872101-0.376358-0.966629c-0.1979065-0.2783508-0.450943-0.4980927-0.7607117-0.6600494
					c-0.3095093-0.1608887-0.6754761-0.2418518-1.0979156-0.2426453h-3.0420532l-1.7907104,6.96698
					c-0.0359497,0.166748-0.0540619,0.3015289-0.0540619,0.4051514c0,0.1315765,0.0269012,0.2189484,0.0809631,0.2615662
					c0.1166687,0.0700531,0.359314,0.1118774,0.7268829,0.1249237c0.3686371,0.0130463,0.7631226,0.0194397,1.1847534,0.0186462
					c0.2514496,0.0007935,0.3774261,0.105484,0.3774261,0.3137665c0,0.053009-0.0090485,0.1094818-0.0271606,0.1699524
					l-0.0538025,0.2090912c-0.0980225,0.2615662-0.2735596,0.3920746-0.5252533,0.3920746
					c-1.1037903-0.0522003-2.2163544-0.0783081-3.3387756-0.0783081c-1.1216278,0-2.2480469,0.0261078-3.3787231,0.0783081
					c-0.2418518,0-0.3718262-0.1126709-0.3904724-0.3398743v-0.1044006l0.0538025-0.222168
					c0.0719147-0.2868652,0.2466431-0.4264374,0.5244446-0.4184418c0.4224396,0.0007935,0.8219757-0.0056,1.1986084-0.0186462
					c0.3771515-0.0130463,0.6549683-0.0588684,0.8347626-0.1382446c0.1707306-0.0945587,0.300705-0.3300323,0.3904724-0.7055969
					l3.7830505-14.7317505c0.0540619-0.1917877,0.0801697-0.3382721,0.0801697-0.4448242
					c0-0.1038818-0.02211-0.1651459-0.0671234-0.1811371c-0.1257172-0.07724-0.3699646-0.1251831-0.7335358-0.1438293
					c-0.3635864-0.015976-0.7604523-0.0266418-1.1916809-0.0266418c-0.2509155,0-0.3766327-0.1171875-0.3766327-0.354248v-0.1038818
					l0.0807037-0.2210846c0.0540771-0.2610321,0.2205505-0.3915558,0.4983521-0.3942261h7.579422
					c0.8528748,0.0026703,1.6647186,0.1145477,2.4368896,0.3409576c0.7718964,0.2290649,1.4449768,0.6019745,2.0192413,1.124054
					c0.4754486,0.4181824,0.8211823,0.9322662,1.0369263,1.5422363c0.1347809,0.3329468,0.2064209,0.6765594,0.2146912,1.0334778
					c0,0.3223114-0.0490112,0.6419373-0.1478271,0.9535828c-0.1699371,0.697876-0.5244598,1.3302307-1.0635681,1.8962402
					c-0.5382996,0.5668335-1.1445313,1.0497437-1.8176117,1.4500885c-0.4666595,0.2711639-0.9394379,0.4959564-1.4199371,0.6739044
					c-0.4802399,0.1789856-0.8233032,0.2900696-1.0299988,0.3324127c0.5113983,0.2011108,0.9964294,0.5931854,1.4540405,1.1765289
					c0.3864746,0.5066223,0.5790558,1.1118011,0.5790558,1.816864c0,0.1486206-0.0087891,0.2972565-0.0269012,0.4442902
					l-0.2565002,2.3527985c-0.0711212,0.6112976-0.1070709,1.1421509-0.1070709,1.594696
					c0,0.2975464,0.0181122,0.5588379,0.0540619,0.7844543c0.0628662,0.5146179,0.3316193,0.7719116,0.8070679,0.7711182
					c0.4312286,0.0007935,0.8259583-0.2319946,1.1852722-0.6983948c0.3595886-0.4658813,0.6243439-1.0433655,0.7940063-1.7329712
					c0.0990906-0.260498,0.273819-0.3870239,0.525528-0.3790283h0.2146759
					c0.2426453,0.0007935,0.3726349,0.1145325,0.3904724,0.3398743V144.1033783z"/>
			</g>
			<path class="st8" d="M212.7807617,48.359436c17.4985504,20.8137665,27.1035156,47.2131958,27.1035156,74.4982986"/>
			<g class="st5">
				<defs>
					<rect id="SVGID_13_" x="237.7706909" y="57.3841858" width="16.1274261" height="41.9735107"/>
				</defs>
				<clipPath id="SVGID_14_">
					<use xlink:href="#SVGID_13_"  style="overflow:visible;"/>
				</clipPath>
				<path class="st9" d="M244.9047089,83.4187775c-0.0897522,0.3577271-0.1526184,0.6936188-0.1885681,1.0063171
					c-0.0181122,0.1576996-0.0271759,0.3015289-0.0271759,0.4315186c0,0.1142731,0.0090637,0.2359924,0.0271759,0.3659821
					c0.0276947,0.2098846,0.0905609,0.3667755,0.1885681,0.4711914c0.0988159,0.1046906,0.2466431,0.1568909,0.4445496,0.1560974
					c0.1885834,0.0007935,0.3569183-0.0775146,0.5047455-0.2344055c0.1486206-0.1568909,0.2940521-0.3896942,0.4378815-0.6992035
					c0.1438293-0.3089752,0.2759399-0.6797638,0.3968658-1.1109924c0.1209259-0.4315186,0.2492981-0.8915253,0.3832855-1.3800354
					c0.0538025-0.243454,0.2066803-0.3651886,0.4581146-0.3659821h0.3097839
					c0.215744,0.0007935,0.3225403,0.0964203,0.3225403,0.287674v0.0913696
					c-0.0897522,0.4019318-0.2058868,0.8488922-0.3494568,1.3405914c-0.1438293,0.4927826-0.3228149,0.9527893-0.538559,1.3789673
					c-0.2154846,0.4275208-0.4932861,0.7935028-0.8347473,1.0982208c-0.3414764,0.304718-0.7588501,0.456543-1.2523956,0.456543
					c-0.4663849,0-0.8699188-0.088974-1.21138-0.2679596c-0.3406677-0.1782074-0.6144714-0.4256592-0.8208923-0.7442169
					c-0.2059021-0.3177795-0.3276215-0.6821594-0.3635864-1.0923615c-0.0181122-0.1036224-0.0271606-0.2170868-0.0271606-0.3398895
					c0-0.2956543,0.0359497-0.5961151,0.1078644-0.9016266l3.445816-13.3860931
					c0.0719147-0.2850037,0.1217194-0.503418,0.1486206-0.6525879v-0.0399475c0-0.07724-0.0220947-0.1331787-0.0676422-0.1678162
					c-0.1078796-0.0692444-0.3097687-0.1171875-0.605423-0.1438293s-0.6371155-0.0399475-1.0236053-0.0399475
					c-0.1339722,0-0.2327881-0.0426331-0.2956543-0.1305237c-0.0540619-0.0532684-0.0809631-0.1172028-0.0809631-0.197113
					c0-0.0506134,0.013855-0.0985565,0.0399475-0.1438293l0.0410156-0.1944427
					c0.0269012-0.1225433,0.0897675-0.2131042,0.1885834-0.2743683c0.0988159-0.0612488,0.2066956-0.1038818,0.3228149-0.1331787
					l3.5134735-0.2850037h0.0809784c0.2154694,0,0.323349,0.0958862,0.323349,0.2850037
					c0,0.0532837-0.0090485,0.1118774-0.0269012,0.1704712L244.9047089,83.4187775z"/>
			</g>
		</g>
	</g>
</g>
</svg>
