<?xml version="1.0" encoding="utf-8"?>
<!-- Generator: Adobe Illustrator 19.0.0, SVG Export Plug-In . SVG Version: 6.00 Build 0)  -->
<svg version="1.1" id="Layer_1" xmlns="http://www.w3.org/2000/svg" xmlns:xlink="http://www.w3.org/1999/xlink" x="0px" y="0px"
	 viewBox="0 0 109.25 110.75" style="enable-background:new 0 0 109.25 110.75;" xml:space="preserve">
<style type="text/css">
	.st0{fill:#FFFFFF;stroke:#000000;stroke-miterlimit:10;}
	.st1{fill-rule:evenodd;clip-rule:evenodd;}
	.st2{fill:none;stroke:#000000;stroke-miterlimit:10;}
	.st3{fill:#010101;}
</style>
<circle class="st0" cx="54.195797" cy="55.1278992" r="51.6889992"/>
<polyline class="st1" points="92.5604935,77.0938034 86.4325943,75.25 86.4325943,76.4452972 15.8319998,76.4452972 
	15.8319998,77.6913986 86.4325943,77.6913986 86.4325943,78.8867035 92.5604935,77.0938034 "/>
<polyline class="st1" points="92.5595932,61.9858017 86.4315948,60.1421013 86.4315948,61.3373985 15.8310966,61.3373985 
	15.8310966,62.5834999 86.4315948,62.5834999 86.4315948,63.778801 92.5595932,61.9858017 "/>
<polyline class="st1" points="92.5595932,47.8983994 86.4315948,46.0546989 86.4315948,47.25 15.8310966,47.25 
	15.8310966,48.4961014 86.4315948,48.4961014 86.4315948,49.6913986 92.5595932,47.8983994 "/>
<polyline class="st1" points="92.5595932,34.8046989 86.4315948,32.9608994 86.4315948,34.1562996 15.8310966,34.1562996 
	15.8310966,35.4023018 86.4315948,35.4023018 86.4315948,36.5976982 92.5595932,34.8046989 "/>
<path class="st0" d="M43.0287971,55.1278992"/>
<g>
	<g>
		<path class="st0" d="M54.195797,3.4389999c6.1669998,0,11.1665001,23.1421013,11.1665001,51.6889
			c0,28.5478973-4.9995003,51.6894989-11.1665001,51.6894989"/>
		<path class="st2" d="M43.0287971,55.1278992c0-28.5467987,4.9995003-51.6889,11.1669998-51.6889"/>
	</g>
	<path class="st2" d="M54.195797,106.8173981c-6.1674995,0-11.1669998-23.1416016-11.1669998-51.6894989"/>
</g>
<g>
	<g>
		<path class="st3" d="M27.4799805,59.6728516v-0.2558594c0.4023438-0.1318359,0.7138672-0.3369141,0.9350586-0.6132813
			c0.2207031-0.2773438,0.3310547-0.5712891,0.3310547-0.8818359c0-0.0732422-0.0175781-0.1357422-0.0527344-0.1855469
			c-0.0273438-0.0351563-0.0546875-0.0527344-0.0820313-0.0527344c-0.0429688,0-0.1367188,0.0390625-0.28125,0.1162109
			c-0.0703125,0.0351563-0.1450195,0.0527344-0.2231445,0.0527344c-0.1914063,0-0.34375-0.0566406-0.4570313-0.1689453
			s-0.1699219-0.2675781-0.1699219-0.4648438c0-0.1904297,0.0732422-0.3535156,0.2197266-0.4892578
			s0.3251953-0.203125,0.5366211-0.203125c0.2578125,0,0.4873047,0.1113281,0.6884766,0.3339844
			c0.2011719,0.2236328,0.3022461,0.5185547,0.3022461,0.8876953c0,0.3984375-0.1401367,0.7705078-0.4194336,1.1132813
			C28.5283203,59.2050781,28.0854492,59.4755859,27.4799805,59.6728516z"/>
	</g>
	<g>
		<path class="st3" d="M23.4770508,52.425293l-0.7797852,2.6464844c0.730957-1.081543,1.2905273-1.793457,1.6796875-2.1342773
			c0.3886719-0.3413086,0.7631836-0.512207,1.1225586-0.512207c0.1953125,0,0.3564453,0.0639648,0.4838867,0.1918945
			c0.1269531,0.1279297,0.1904297,0.2949219,0.1904297,0.5004883c0,0.2324219-0.0566406,0.5429688-0.1699219,0.9306641
			l-0.715332,2.4487305c-0.0820313,0.2832031-0.1230469,0.4560547-0.1230469,0.5175781
			c0,0.0546875,0.015625,0.0996094,0.046875,0.1367188s0.0644531,0.0556641,0.0996094,0.0556641
			c0.046875,0,0.1035156-0.0253906,0.1699219-0.0761719c0.2070313-0.1630859,0.434082-0.4111328,0.6801758-0.7441406
			l0.1816406,0.1103516c-0.3632813,0.515625-0.7075195,0.8837891-1.0317383,1.1054688
			c-0.2265625,0.1513672-0.4301758,0.2265625-0.6098633,0.2265625c-0.1445313,0-0.2597656-0.0439453-0.3457031-0.1308594
			s-0.1289063-0.2041016-0.1289063-0.3515625c0-0.1865234,0.0664063-0.5068359,0.1992188-0.9599609l0.6801758-2.3383789
			c0.0859375-0.2910156,0.1289063-0.5175781,0.1289063-0.6806641c0-0.0776367-0.0253906-0.140625-0.0761719-0.1889648
			s-0.1137695-0.0727539-0.1875-0.0727539c-0.1098633,0-0.2407227,0.0463867-0.3930664,0.1396484
			c-0.2890625,0.1743164-0.590332,0.4624023-0.902832,0.8637695s-0.6430664,0.9140625-0.9907227,1.5385742
			c-0.1835938,0.3295898-0.3359375,0.6899414-0.4570313,1.081543l-0.293457,0.9599609h-0.8793945l1.0668945-3.6411133
			c0.125-0.4384766,0.1879883-0.7016602,0.1879883-0.7910156c0-0.0854492-0.034668-0.1601563-0.1025391-0.2241211
			C22.1391602,52.9692383,22.0541992,52.9375,21.9526367,52.9375c-0.046875,0-0.1289063,0.0078125-0.2460938,0.0229492
			l-0.2226563,0.0351563l-0.0351563-0.2094727L23.4770508,52.425293z"/>
	</g>
	<g>
		<path class="st3" d="M34.5888672,57.8525391l-1.8466797-4.2172852c-0.2236328-0.5078125-0.3974609-0.8295898-0.5224609-0.965332
			c-0.0898438-0.1010742-0.2226563-0.1689453-0.3984375-0.2036133v-0.215332h2.9140625v0.215332
			c-0.1845703,0-0.3095703,0.0327148-0.3759766,0.0986328c-0.09375,0.0854492-0.140625,0.1860352-0.140625,0.3027344
			c0,0.1435547,0.0859375,0.4125977,0.2587891,0.8081055l0.9023438,2.0419922l0.7207031-1.7626953
			c0.2070313-0.5039063,0.3115234-0.8608398,0.3115234-1.0703125c0-0.1201172-0.0439453-0.2177734-0.1328125-0.293457
			c-0.0878906-0.0756836-0.2431641-0.1171875-0.4658203-0.125v-0.215332h1.7939453v0.215332
			c-0.171875,0.0229492-0.3125,0.0869141-0.421875,0.1918945c-0.109375,0.1044922-0.2734375,0.4130859-0.4921875,0.9248047
			l-1.8291016,4.2695313H34.5888672z"/>
	</g>
</g>
<g>
</g>
<g>
</g>
<g>
</g>
<g>
</g>
<g>
</g>
<g>
</g>
</svg>
