<?xml version="1.0" encoding="utf-8"?>
<!-- Generator: Adobe Illustrator 19.0.0, SVG Export Plug-In . SVG Version: 6.00 Build 0)  -->
<svg version="1.1" id="Layer_1" xmlns="http://www.w3.org/2000/svg" xmlns:xlink="http://www.w3.org/1999/xlink" x="0px" y="0px"
	 viewBox="0 0 296 104.3333359" style="enable-background:new 0 0 296 104.3333359;" xml:space="preserve">
<style type="text/css">
	.st0{fill:none;stroke:#000000;stroke-miterlimit:10;}
	.st1{fill:none;stroke:#000000;stroke-miterlimit:10;stroke-dasharray:2.9888301,2.9888301;}
	.st2{fill:none;stroke:#010101;stroke-linecap:square;stroke-miterlimit:10;}
	.st3{fill:#010101;}
</style>
<line id="XMLID_1_" class="st0" x1="7.0480042" y1="69.1820068" x2="290.5161133" y2="69.1820068"/>
<line id="XMLID_2_" class="st0" x1="7.0480042" y1="69.1820068" x2="286.2123413" y2="19.9592285"/>
<line id="XMLID_3_" class="st1" x1="286.2123413" y1="19.9592285" x2="286.2123413" y2="69.1832886"/>
<line id="XMLID_4_" class="st0" x1="286.2101746" y1="74.8513184" x2="286.2101746" y2="89.0247192"/>
<line id="XMLID_5_" class="st0" x1="290.5161133" y1="74.8513184" x2="290.5161133" y2="89.0247192"/>
<path id="XMLID_6_" class="st0" d="M288.248291,94.6939697"/>
<line id="XMLID_7_" class="st0" x1="7.0480042" y1="74.8513184" x2="7.0480042" y2="89.0247192"/>
<line id="XMLID_8_" class="st0" x1="7.0480042" y1="81.9379883" x2="120.4352417" y2="81.9379883"/>
<line id="XMLID_9_" class="st0" x1="286.2101746" y1="81.9379883" x2="162.9554443" y2="81.9379883"/>
<g id="XMLID_10_">
	<line id="XMLID_11_" class="st2" x1="206.25914" y1="5.5884609" x2="206.25914" y2="22.6867924"/>
	<line id="XMLID_12_" class="st2" x1="221.6896057" y1="5.5884609" x2="224.5828094" y2="14.1376247"/>
	<line id="XMLID_13_" class="st2" x1="224.5828094" y1="14.1376247" x2="221.6896057" y2="22.6867924"/>
	<g id="XMLID_14_">
		<path id="XMLID_67_" class="st3" d="M219.0625,17.1674805l-0.8740234,3.0380859
			c-0.1542969,0.5429688-0.3681641,0.9345703-0.6386719,1.1748047s-0.5634766,0.359375-0.8789063,0.359375
			c-0.1416016,0-0.2480469-0.0322266-0.3222656-0.0976563c-0.0722656-0.0664063-0.109375-0.1445313-0.109375-0.234375
			c0-0.0703125,0.0273438-0.1318359,0.0830078-0.1855469c0.0556641-0.0527344,0.1191406-0.0791016,0.1904297-0.0791016
			c0.0654297,0,0.1230469,0.0214844,0.171875,0.0644531c0.0410156,0.0332031,0.0605469,0.0722656,0.0605469,0.1152344
			c0,0.0585938-0.0273438,0.109375-0.0839844,0.1523438c-0.03125,0.0253906-0.046875,0.0458984-0.046875,0.0615234
			l0.0068359,0.0166016c0.0068359,0.0087891,0.0166016,0.015625,0.0302734,0.0205078s0.0332031,0.0068359,0.0605469,0.0068359
			c0.1816406,0,0.3378906-0.0585938,0.4667969-0.1748047c0.1298828-0.1162109,0.2451172-0.3486328,0.3457031-0.6972656
			l0.7558594-2.6074219c0.0742188-0.2558594,0.1113281-0.3974609,0.1113281-0.4238281
			c0-0.0546875-0.0244141-0.1035156-0.0732422-0.1464844c-0.0478516-0.0429688-0.109375-0.0644531-0.1835938-0.0644531
			c-0.0292969,0-0.0625,0.0039063-0.1005859,0.0107422c-0.0292969,0.0039063-0.0722656,0.0107422-0.1289063,0.0195313V17.378418
			L219.0625,17.1674805z M219.0087891,15.8237305c0.09375,0,0.1748047,0.0332031,0.2402344,0.0996094
			c0.0664063,0.0673828,0.0996094,0.1474609,0.0996094,0.2431641c0,0.0947266-0.0332031,0.1757813-0.0996094,0.2421875
			c-0.0654297,0.0673828-0.1464844,0.1005859-0.2402344,0.1005859c-0.0947266,0-0.1748047-0.0332031-0.2412109-0.1005859
			c-0.0664063-0.0664063-0.0996094-0.1474609-0.0996094-0.2421875c0-0.0957031,0.0332031-0.1757813,0.0996094-0.2431641
			C218.8339844,15.8569336,218.9140625,15.8237305,219.0087891,15.8237305z"/>
	</g>
	<g id="XMLID_15_">
		<path id="XMLID_64_" class="st3" d="M215.0527344,11.8017578h0.9677734l-1.6425781,2.6723633
			c-0.1064453,0.1679688-0.2744141,0.4326172-0.5019531,0.7919922c-0.0517578,0.6035156-0.0595703,0.9638672-0.0253906,1.0810547
			c0.0693359,0.2148438,0.2099609,0.3222656,0.4238281,0.3222656c0.1552734,0,0.3212891-0.0644531,0.4960938-0.1933594
			s0.3291016-0.3310547,0.4628906-0.6044922h0.2333984c-0.2412109,0.5634766-0.4882813,0.953125-0.7402344,1.1679688
			s-0.4970703,0.3232422-0.734375,0.3232422c-0.2216797,0-0.3916016-0.09375-0.5097656-0.2822266
			c-0.1181641-0.1875-0.1474609-0.5908203-0.0869141-1.2089844c-0.2832031,0.3408203-0.5361328,0.5986328-0.7578125,0.7753906
			c-0.3095703,0.2421875-0.6191406,0.4238281-0.9267578,0.5429688s-0.6328125,0.1787109-0.9755859,0.1787109
			c-0.859375,0-1.3955078-0.2880859-1.609375-0.8632813s-0.1992188-1.2304688,0.0449219-1.9667969
			c0.2851563-0.8613281,0.7539063-1.559082,1.4042969-2.0932617c0.6513672-0.5341797,1.296875-0.8017578,1.9345703-0.8017578
			c0.4433594,0,0.7890625,0.1362305,1.0361328,0.4086914c0.2490234,0.2714844,0.3876953,0.777832,0.4199219,1.5175781
			L215.0527344,11.8017578z M213.5439453,14.2270508c0.0566406-0.8066406-0.0273438-1.3691406-0.2519531-1.6879883
			c-0.2255859-0.3188477-0.5087891-0.4785156-0.8515625-0.4785156c-0.3808594,0-0.7666016,0.2104492-1.1591797,0.6313477
			s-0.7402344,1.0913086-1.0449219,2.0107422c-0.1796875,0.5439453-0.2675781,0.9716797-0.2617188,1.2832031
			s0.0908203,0.5517578,0.2539063,0.7216797c0.1630859,0.1708984,0.3671875,0.2558594,0.6123047,0.2558594
			c0.2998047,0,0.6201172-0.1386719,0.9609375-0.4169922C212.2636719,16.1713867,212.8447266,15.3979492,213.5439453,14.2270508z"/>
	</g>
	<g id="XMLID_16_">
		<path id="XMLID_62_" class="st3" d="M217.3203125,11.7358398l0.1806641-1.7382813
			c0.0507813-0.4931641,0.1005859-0.8256836,0.1513672-0.9980469c0.0742188-0.246582,0.1777344-0.4238281,0.3125-0.53125
			c0.1337891-0.1079102,0.2841797-0.1616211,0.4521484-0.1616211c0.1396484,0,0.2509766,0.0390625,0.3320313,0.1176758
			c0.0820313,0.078125,0.1230469,0.1777344,0.1230469,0.2993164c0,0.09375-0.0195313,0.1938477-0.0585938,0.2993164
			c-0.0507813,0.1489258-0.1943359,0.4755859-0.4316406,0.9804688l-0.8046875,1.7324219H217.3203125z"/>
	</g>
</g>
<g id="XMLID_17_">
	<line id="XMLID_18_" class="st2" x1="227.712677" y1="47.4755173" x2="227.712677" y2="64.5738525"/>
	<line id="XMLID_19_" class="st2" x1="243.1431427" y1="47.4755173" x2="246.0363464" y2="56.0246811"/>
	<line id="XMLID_20_" class="st2" x1="246.0363464" y1="56.0246811" x2="243.1431427" y2="64.5738525"/>
	<g id="XMLID_21_">
		<path id="XMLID_59_" class="st3" d="M240.5166016,59.0546875l-0.8740234,3.0380859
			c-0.1542969,0.5429688-0.3681641,0.9345703-0.6386719,1.1748047s-0.5634766,0.359375-0.8789063,0.359375
			c-0.1416016,0-0.2480469-0.0322266-0.3222656-0.0976563c-0.0722656-0.0664063-0.109375-0.1445313-0.109375-0.234375
			c0-0.0703125,0.0273438-0.1318359,0.0830078-0.1855469c0.0556641-0.0527344,0.1191406-0.0791016,0.1904297-0.0791016
			c0.0654297,0,0.1230469,0.0214844,0.171875,0.0644531c0.0410156,0.0332031,0.0605469,0.0722656,0.0605469,0.1152344
			c0,0.0585938-0.0273438,0.109375-0.0839844,0.1523438c-0.03125,0.0253906-0.046875,0.0458984-0.046875,0.0615234
			l0.0068359,0.0166016c0.0068359,0.0087891,0.0166016,0.015625,0.0302734,0.0205078s0.0332031,0.0068359,0.0605469,0.0068359
			c0.1816406,0,0.3378906-0.0585938,0.4667969-0.1748047c0.1298828-0.1162109,0.2451172-0.3486328,0.3457031-0.6972656
			l0.7558594-2.6074219c0.0742188-0.2558594,0.1113281-0.3974609,0.1113281-0.4238281
			c0-0.0546875-0.0244141-0.1035156-0.0732422-0.1464844c-0.0478516-0.0429688-0.109375-0.0644531-0.1835938-0.0644531
			c-0.0292969,0-0.0625,0.0039063-0.1005859,0.0107422c-0.0292969,0.0039063-0.0722656,0.0107422-0.1289063,0.0195313V59.265625
			L240.5166016,59.0546875z M240.4628906,57.7109375c0.09375,0,0.1748047,0.0332031,0.2402344,0.0996094
			c0.0664063,0.0673828,0.0996094,0.1474609,0.0996094,0.2431641c0,0.0947266-0.0332031,0.1757813-0.0996094,0.2421875
			c-0.0654297,0.0673828-0.1464844,0.1005859-0.2402344,0.1005859c-0.0947266,0-0.1748047-0.0332031-0.2412109-0.1005859
			c-0.0664063-0.0664063-0.0996094-0.1474609-0.0996094-0.2421875c0-0.0957031,0.0332031-0.1757813,0.0996094-0.2431641
			C240.2880859,57.7441406,240.3681641,57.7109375,240.4628906,57.7109375z"/>
	</g>
	<g id="XMLID_22_">
		<path id="XMLID_56_" class="st3" d="M236.5068359,53.6884766h0.9677734l-1.6425781,2.6723633
			c-0.1064453,0.1679688-0.2744141,0.4326172-0.5019531,0.7919922c-0.0527344,0.6035156-0.0605469,0.9638672-0.0263672,1.0810547
			c0.0703125,0.2148438,0.2109375,0.3222656,0.4248047,0.3222656c0.1552734,0,0.3212891-0.0644531,0.4960938-0.1933594
			c0.1738281-0.1289063,0.3291016-0.3310547,0.4628906-0.6044922h0.2333984
			c-0.2412109,0.5634766-0.4882813,0.953125-0.7402344,1.1679688s-0.4970703,0.3232422-0.734375,0.3232422
			c-0.2216797,0-0.3916016-0.09375-0.5097656-0.2822266c-0.1191406-0.1875-0.1474609-0.5908203-0.0869141-1.2089844
			c-0.2841797,0.3408203-0.5361328,0.5986328-0.7578125,0.7753906c-0.3095703,0.2421875-0.6191406,0.4238281-0.9267578,0.5429688
			c-0.3085938,0.1191406-0.6328125,0.1787109-0.9755859,0.1787109c-0.859375,0-1.3955078-0.2880859-1.609375-0.8632813
			s-0.1992188-1.2304688,0.0449219-1.9667969c0.2851563-0.8613281,0.7539063-1.559082,1.4042969-2.0932617
			c0.6513672-0.5341797,1.296875-0.8017578,1.9345703-0.8017578c0.4433594,0,0.7880859,0.1362305,1.0361328,0.4086914
			c0.2490234,0.2714844,0.3876953,0.777832,0.4189453,1.5175781L236.5068359,53.6884766z M234.9970703,56.1137695
			c0.0576172-0.8066406-0.0263672-1.3691406-0.2509766-1.6879883c-0.2255859-0.3188477-0.5087891-0.4785156-0.8515625-0.4785156
			c-0.3808594,0-0.7666016,0.2104492-1.1591797,0.6313477s-0.7402344,1.0913086-1.0449219,2.0107422
			c-0.1796875,0.5439453-0.2675781,0.9716797-0.2617188,1.2832031c0.0048828,0.3115234,0.0908203,0.5517578,0.2539063,0.7216797
			c0.1621094,0.1708984,0.3662109,0.2558594,0.6113281,0.2558594c0.2998047,0,0.6210938-0.1386719,0.9619141-0.4169922
			C233.7177734,58.0581055,234.2978516,57.284668,234.9970703,56.1137695z"/>
	</g>
</g>
<g id="XMLID_23_">
	<line id="XMLID_24_" class="st2" x1="140.2511292" y1="74.8513184" x2="140.2511292" y2="91.949646"/>
	<line id="XMLID_25_" class="st2" x1="155.6997528" y1="74.8513184" x2="158.5963593" y2="83.4004822"/>
	<line id="XMLID_26_" class="st2" x1="158.5963593" y1="83.4004822" x2="155.6997528" y2="91.949646"/>
	<g id="XMLID_27_">
		<path id="XMLID_53_" class="st3" d="M135.6464844,89.1035156l-0.6342773,2.203125
			c-0.1123047,0.3935547-0.2670898,0.6777344-0.4638672,0.8515625s-0.4091797,0.2607422-0.6376953,0.2607422
			c-0.1030273,0-0.1806641-0.0234375-0.2338867-0.0712891s-0.0795898-0.1044922-0.0795898-0.1699219
			c0-0.0507813,0.0200195-0.0957031,0.0600586-0.1337891c0.0400391-0.0390625,0.0859375-0.0576172,0.1381836-0.0576172
			c0.0473633,0,0.0888672,0.015625,0.125,0.0458984c0.0292969,0.0253906,0.0439453,0.0527344,0.0439453,0.0839844
			c0,0.0429688-0.0205078,0.0800781-0.0610352,0.1113281c-0.0229492,0.0175781-0.034668,0.0322266-0.034668,0.0439453
			l0.0053711,0.0126953c0.0048828,0.0058594,0.012207,0.0107422,0.0219727,0.0146484
			c0.0097656,0.0029297,0.0244141,0.0048828,0.0439453,0.0048828c0.1323242,0,0.2451172-0.0429688,0.3388672-0.1269531
			c0.0942383-0.0849609,0.1777344-0.2529297,0.2509766-0.5058594l0.5488281-1.890625
			c0.0537109-0.1855469,0.0805664-0.2880859,0.0805664-0.3076172c0-0.0400391-0.0175781-0.0751953-0.0527344-0.1064453
			s-0.0795898-0.046875-0.1333008-0.046875c-0.0209961,0-0.0458984,0.0029297-0.0732422,0.0078125
			c-0.0214844,0.0029297-0.0522461,0.0078125-0.0932617,0.0146484v-0.0859375L135.6464844,89.1035156z M135.6074219,88.1279297
			c0.0683594,0,0.1269531,0.0244141,0.1748047,0.0732422c0.0483398,0.0478516,0.0722656,0.1064453,0.0722656,0.1757813
			c0,0.0683594-0.0239258,0.1279297-0.0722656,0.1757813c-0.0478516,0.0488281-0.1064453,0.0732422-0.1748047,0.0732422
			c-0.0688477,0-0.1269531-0.0244141-0.175293-0.0732422c-0.0478516-0.0478516-0.0722656-0.1074219-0.0722656-0.1757813
			c0-0.0693359,0.0244141-0.1279297,0.0722656-0.1757813C135.4804688,88.1523438,135.5385742,88.1279297,135.6074219,88.1279297z"/>
	</g>
	<g id="XMLID_28_">
		<path id="XMLID_50_" class="st3" d="M153.0732422,86.4306641l-0.875,3.0380859
			c-0.1552734,0.5429688-0.3681641,0.9345703-0.6396484,1.1748047s-0.5644531,0.359375-0.8789063,0.359375
			c-0.1425781,0-0.25-0.0322266-0.3232422-0.0976563c-0.0722656-0.0664063-0.109375-0.1445313-0.109375-0.234375
			c0-0.0703125,0.0273438-0.1318359,0.0830078-0.1855469c0.0546875-0.0527344,0.1181641-0.0791016,0.1904297-0.0791016
			c0.0654297,0,0.1230469,0.0214844,0.171875,0.0644531c0.0410156,0.0332031,0.0615234,0.0722656,0.0615234,0.1152344
			c0,0.0585938-0.0283203,0.109375-0.0849609,0.1523438c-0.03125,0.0253906-0.046875,0.0458984-0.046875,0.0615234
			l0.0068359,0.0166016c0.0068359,0.0087891,0.0166016,0.015625,0.0302734,0.0205078s0.0332031,0.0068359,0.0605469,0.0068359
			c0.1826172,0,0.3378906-0.0585938,0.4677734-0.1748047c0.1289063-0.1162109,0.2451172-0.3486328,0.3457031-0.6972656
			l0.7568359-2.6074219c0.0742188-0.2558594,0.1113281-0.3974609,0.1113281-0.4238281
			c0-0.0546875-0.0244141-0.1035156-0.0732422-0.1464844c-0.0478516-0.0429688-0.109375-0.0644531-0.1835938-0.0644531
			c-0.0292969,0-0.0634766,0.0039063-0.1015625,0.0107422c-0.0292969,0.0039063-0.0712891,0.0107422-0.1279297,0.0195313v-0.1181641
			L153.0732422,86.4306641z M153.0185547,85.0869141c0.0947266,0,0.1757813,0.0332031,0.2421875,0.0996094
			c0.0664063,0.0673828,0.0996094,0.1474609,0.0996094,0.2431641c0,0.0947266-0.0332031,0.1757813-0.0996094,0.2421875
			c-0.0664063,0.0673828-0.1474609,0.1005859-0.2421875,0.1005859c-0.09375,0-0.1748047-0.0332031-0.2412109-0.1005859
			c-0.0664063-0.0664063-0.0996094-0.1474609-0.0996094-0.2421875c0-0.0957031,0.0332031-0.1757813,0.0996094-0.2431641
			C152.84375,85.1201172,152.9248047,85.0869141,153.0185547,85.0869141z"/>
	</g>
	<g id="XMLID_29_">
		<path id="XMLID_47_" class="st3" d="M125.7416992,78.4472656h3.1186523c0.8178711,0,1.4287109,0.1767578,1.8339844,0.53125
			c0.4047852,0.3544922,0.6069336,0.7861328,0.6069336,1.2949219c0,0.4023438-0.128418,0.7939453-0.3852539,1.1738281
			s-0.6386719,0.6884766-1.1445313,0.9248047c-0.5063477,0.2373047-1.0532227,0.3554688-1.6411133,0.3554688
			c-0.3662109,0-0.8310547-0.0664063-1.3955078-0.2001953l-0.6308594,2.1728516
			c-0.1479492,0.5166016-0.222168,0.8574219-0.222168,1.0224609c0,0.125,0.0527344,0.2285156,0.1577148,0.3105469
			c0.1054688,0.0820313,0.3564453,0.1347656,0.753418,0.1591797l-0.0581055,0.2167969h-3.1479492l0.0644531-0.2167969
			c0.4125977,0,0.699707-0.0722656,0.8613281-0.2148438c0.1611328-0.1425781,0.3354492-0.5371094,0.5224609-1.1826172
			l1.3081055-4.5332031c0.1557617-0.5449219,0.2338867-0.9082031,0.2338867-1.0927734
			c0-0.1367188-0.0556641-0.25-0.1665039-0.3408203c-0.1113281-0.0898438-0.3554688-0.1445313-0.7329102-0.1640625
			L125.7416992,78.4472656z M126.8339844,82.1582031c0.4399414,0.1132813,0.7939453,0.1699219,1.0629883,0.1699219
			c0.4243164,0,0.8105469-0.0878906,1.1591797-0.2646484c0.3481445-0.1757813,0.6206055-0.4404297,0.8173828-0.7919922
			c0.1967773-0.3525391,0.2949219-0.71875,0.2949219-1.0986328c0-0.3945313-0.1206055-0.7080078-0.3618164-0.9394531
			c-0.2416992-0.2304688-0.6074219-0.3457031-1.0981445-0.3457031c-0.2646484,0-0.5859375,0.0332031-0.9633789,0.0996094
			L126.8339844,82.1582031z"/>
	</g>
	<g id="XMLID_30_">
		<path id="XMLID_44_" class="st3" d="M132.9365234,86.4472656h0.5605469l-0.9506836,1.5439453
			c-0.0615234,0.0976563-0.1582031,0.25-0.2900391,0.4580078c-0.0302734,0.3486328-0.0356445,0.5566406-0.0151367,0.625
			c0.0400391,0.1240234,0.121582,0.1855469,0.2456055,0.1855469c0.0898438,0,0.1855469-0.0371094,0.2871094-0.1113281
			c0.1010742-0.0742188,0.1904297-0.1914063,0.2675781-0.3496094h0.1357422
			c-0.140625,0.3261719-0.2822266,0.5507813-0.4287109,0.6757813c-0.1459961,0.1240234-0.2880859,0.1865234-0.4248047,0.1865234
			c-0.1289063,0-0.2265625-0.0546875-0.2954102-0.1630859s-0.0859375-0.3417969-0.050293-0.6992188
			c-0.1640625,0.1972656-0.3105469,0.3466797-0.4384766,0.4482422c-0.1796875,0.1396484-0.3583984,0.2451172-0.5371094,0.3134766
			c-0.1777344,0.0693359-0.3662109,0.1035156-0.5634766,0.1035156c-0.4980469,0-0.8081055-0.1660156-0.9321289-0.4980469
			c-0.1240234-0.3330078-0.1157227-0.7119141,0.0253906-1.1376953c0.1650391-0.4980469,0.4365234-0.9013672,0.8129883-1.2099609
			c0.3769531-0.3095703,0.7504883-0.4628906,1.1196289-0.4628906c0.2568359,0,0.456543,0.078125,0.6010742,0.2353516
			c0.1425781,0.1572266,0.2236328,0.4492188,0.2416992,0.8779297L132.9365234,86.4472656z M132.0634766,87.8486328
			c0.0336914-0.4667969-0.0161133-0.7919922-0.1450195-0.9765625c-0.1303711-0.1845703-0.2949219-0.2763672-0.4931641-0.2763672
			c-0.2197266,0-0.4438477,0.1220703-0.6708984,0.3642578c-0.2275391,0.2441406-0.4287109,0.6318359-0.6054688,1.1640625
			c-0.1040039,0.3134766-0.1547852,0.5615234-0.1508789,0.7412109c0.003418,0.1796875,0.0522461,0.3193359,0.1469727,0.4169922
			c0.0942383,0.0986328,0.2124023,0.1484375,0.3540039,0.1484375c0.1738281,0,0.3588867-0.0810547,0.5566406-0.2421875
			C131.3227539,88.9716797,131.659668,88.5253906,132.0634766,87.8486328z"/>
	</g>
	<g id="XMLID_31_">
		<path id="XMLID_41_" class="st3" d="M149.0776367,81.078125h0.9697266l-1.6445313,2.6708984
			c-0.1064453,0.1679688-0.2744141,0.4335938-0.5029297,0.7929688c-0.0507813,0.6025391-0.0595703,0.9628906-0.0253906,1.0810547
			c0.0693359,0.2148438,0.2109375,0.3222656,0.4257813,0.3222656c0.1552734,0,0.3203125-0.0644531,0.4960938-0.1933594
			c0.1748047-0.1289063,0.3291016-0.3310547,0.4628906-0.6054688h0.2333984
			c-0.2412109,0.5644531-0.4882813,0.9541016-0.7402344,1.1689453c-0.2529297,0.2148438-0.4970703,0.3222656-0.7353516,0.3222656
			c-0.2226563,0-0.3925781-0.09375-0.5107422-0.28125c-0.1191406-0.1875-0.1474609-0.5908203-0.0869141-1.2099609
			c-0.2841797,0.3408203-0.5371094,0.5996094-0.7597656,0.7753906c-0.3085938,0.2421875-0.6181641,0.4238281-0.9267578,0.5439453
			c-0.3076172,0.1181641-0.6337891,0.1787109-0.9755859,0.1787109c-0.8613281,0-1.3984375-0.2880859-1.6132813-0.8632813
			c-0.2128906-0.5751953-0.1992188-1.2314453,0.0449219-1.9667969c0.2851563-0.8613281,0.7539063-1.5595703,1.4072266-2.0947266
			c0.6513672-0.5332031,1.296875-0.8007813,1.9355469-0.8007813c0.4443359,0,0.7900391,0.1357422,1.0380859,0.4082031
			c0.2490234,0.2714844,0.3886719,0.7773438,0.4199219,1.5175781L149.0776367,81.078125z M147.5678711,83.5029297
			c0.0576172-0.8066406-0.0273438-1.3691406-0.2519531-1.6884766c-0.2255859-0.3183594-0.5097656-0.4794922-0.8515625-0.4794922
			c-0.3828125,0-0.7695313,0.2109375-1.1621094,0.6318359s-0.7402344,1.0917969-1.0449219,2.0117188
			c-0.1806641,0.5439453-0.2685547,0.9716797-0.2626953,1.2832031c0.0058594,0.3105469,0.0908203,0.5507813,0.2539063,0.7216797
			s0.3681641,0.2558594,0.6132813,0.2558594c0.2998047,0,0.6201172-0.1386719,0.9619141-0.4169922
			C146.2866211,85.4453125,146.8686523,84.6738281,147.5678711,83.5029297z"/>
	</g>
	<g id="XMLID_32_">
		<path id="XMLID_39_" class="st3" d="M151.3300781,81.0068359l0.1806641-1.7382813
			c0.0507813-0.4931641,0.1015625-0.8261719,0.1513672-0.9980469c0.0742188-0.2470703,0.1787109-0.4238281,0.3125-0.53125
			c0.1347656-0.1083984,0.2851563-0.1621094,0.453125-0.1621094c0.1396484,0,0.2509766,0.0390625,0.3330078,0.1181641
			c0.0810547,0.078125,0.1220703,0.1777344,0.1220703,0.2988281c0,0.09375-0.0195313,0.1943359-0.0576172,0.2998047
			c-0.0507813,0.1484375-0.1953125,0.4755859-0.4326172,0.9804688l-0.8056641,1.7324219H151.3300781z"/>
	</g>
</g>
<g id="XMLID_33_">
	<g id="XMLID_34_">
		<path id="XMLID_36_" class="st3" d="M290.9882813,101.3994141h-7.0605469l3.6953125-8.0673828L290.9882813,101.3994141z
			 M289.5996094,100.9228516l-2.3476563-5.625l-2.5888672,5.625H289.5996094z"/>
	</g>
</g>
<g id="XMLID_35_">
</g>
<g id="XMLID_70_">
</g>
<g id="XMLID_71_">
</g>
<g id="XMLID_72_">
</g>
<g id="XMLID_73_">
</g>
<g id="XMLID_74_">
</g>
</svg>
