<?xml version="1.0" encoding="utf-8"?>
<!-- Generator: Adobe Illustrator 19.0.0, SVG Export Plug-In . SVG Version: 6.00 Build 0)  -->
<svg version="1.1" id="Layer_1" xmlns="http://www.w3.org/2000/svg" xmlns:xlink="http://www.w3.org/1999/xlink" x="0px" y="0px"
	 viewBox="0 0 187 57" style="enable-background:new 0 0 187 57;" xml:space="preserve">
<style type="text/css">
	.st0{fill:none;stroke:#A7A9AC;stroke-miterlimit:10;}
	.st1{fill:#010101;}
	.st2{fill:none;stroke:#000000;stroke-miterlimit:10;}
	.st3{fill:none;stroke:#EF4136;stroke-miterlimit:10;}
	.st4{fill:#EF4136;}
	.st5{fill:#A7A9AC;}
	.st6{fill:#2B3990;}
	.st7{fill:#F7941E;}
</style>
<path id="XMLID_13_" class="st0" d="M74.8658829,21.625042c3.8527527,0,6.2817383-1.4471264,8.1297455-3.6610622"/>
<line id="XMLID_7_" class="st0" x1="74.8658752" y1="11.8789473" x2="128.4686279" y2="52.000042"/>
<g id="XMLID_1_">
	<g id="XMLID_49_">
		<g id="XMLID_50_">
			<polygon id="XMLID_51_" points="175.625824,52.4993896 175.625824,54.4146118 184.6353149,52.0021362 175.625824,49.5854797 
				175.625824,51.5008545 3,51.5008545 3,52.4993896 			"/>
		</g>
	</g>
</g>
<g id="XMLID_5_">
	<g id="XMLID_6_">
		<path id="XMLID_70_" class="st1" d="M59.9248047,6.2246094c0.7617188,0.1738281,1.296875,0.3857422,1.6044922,0.6337891
			c0.4414063,0.3525391,0.6630859,0.8105469,0.6630859,1.3720703c0,0.59375-0.2431641,1.0839844-0.7285156,1.4716797
			c-0.5957031,0.4697266-1.4619141,0.7041016-2.5986328,0.7041016h-4.078125v-0.2148438
			c0.3710938,0,0.6230469-0.0341797,0.7548828-0.1025391c0.1318359-0.0673828,0.2246094-0.1552734,0.2783203-0.2646484
			c0.0537109-0.1083984,0.0800781-0.3759766,0.0800781-0.8027344V3.9033203c0-0.4267578-0.0263672-0.6953125-0.0800781-0.8056641
			s-0.1474609-0.1987305-0.28125-0.2646484S55.1542969,2.734375,54.7871094,2.734375V2.519043h3.8476563
			c0.9199219,0,1.5703125,0.0805664,1.953125,0.2412109c0.3828125,0.1611328,0.6845703,0.4013672,0.90625,0.7211914
			c0.2207031,0.3198242,0.3310547,0.6601563,0.3310547,1.0209961c0,0.3798828-0.1396484,0.7182617-0.4199219,1.0151367
			C61.125,5.8139648,60.6318359,6.0498047,59.9248047,6.2246094z M57.7705078,6.5205078v2.5302734l-0.0058594,0.2910156
			c0,0.2089844,0.0546875,0.3671875,0.1630859,0.4736328c0.1083984,0.1074219,0.2685547,0.1601563,0.4824219,0.1601563
			c0.3154297,0,0.6064453-0.0683594,0.8730469-0.2060547s0.4707031-0.3378906,0.6123047-0.5996094
			c0.1425781-0.2617188,0.2128906-0.5527344,0.2128906-0.875c0-0.3681641-0.0869141-0.6992188-0.2597656-0.9921875
			c-0.1738281-0.2919922-0.4130859-0.4970703-0.7158203-0.6132813C58.828125,6.5732422,58.3740234,6.5166016,57.7705078,6.5205078z
			 M57.7705078,6.0664063c0.5605469,0,0.9736328-0.0615234,1.2402344-0.1855469s0.4707031-0.2983398,0.6123047-0.5234375
			c0.1425781-0.2246094,0.2138672-0.5117188,0.2138672-0.8608398s-0.0703125-0.6347656-0.2109375-0.8579102
			c-0.1396484-0.2231445-0.3398438-0.3925781-0.6005859-0.5087891c-0.2607422-0.1166992-0.6787109-0.1728516-1.2548828-0.1689453
			V6.0664063z"/>
	</g>
</g>
<line id="XMLID_4_" class="st2" x1="74.8658752" y1="11.8789473" x2="74.8658752" y2="52.000042"/>
<circle id="XMLID_2_" class="st3" cx="74.8658829" cy="11.8789473" r="5.4875002"/>
<circle id="XMLID_3_" class="st4" cx="74.8658752" cy="11.8789473" r="1.4724224"/>
<g id="XMLID_14_">
	<g id="XMLID_15_">
		<path id="XMLID_66_" class="st5" d="M79.5878906,28.1416016c0.5117188-1.5371094,1.2167969-2.7207031,2.1162109-3.5517578
			c0.6777344-0.6230469,1.3466797-0.9355469,2.0048828-0.9355469c0.6386719,0,1.0839844,0.2998047,1.3359375,0.9003906
			c0.3525391,0.8388672,0.2861328,1.9804688-0.1933594,3.4238281c-0.4570313,1.3730469-1.1259766,2.4570313-2.0097656,3.2529297
			c-0.6884766,0.6162109-1.359375,0.9248047-2.0136719,0.9248047c-0.3535156,0-0.6484375-0.0859375-0.8837891-0.2578125
			c-0.234375-0.1708984-0.4111328-0.4199219-0.5292969-0.7431641s-0.1767578-0.6669922-0.1777344-1.0292969
			C79.2392578,29.5009766,79.3554688,28.8408203,79.5878906,28.1416016z M80.7128906,28.1123047
			c-0.2148438,0.6953125-0.3701172,1.3183594-0.4648438,1.8730469c-0.0732422,0.421875-0.0810547,0.7871094-0.0205078,1.0996094
			c0.0341797,0.1875,0.1240234,0.3466797,0.2666016,0.4775391c0.1445313,0.1308594,0.3222656,0.1953125,0.5361328,0.1953125
			c0.2490234,0,0.5253906-0.1171875,0.8271484-0.3515625c0.3017578-0.2333984,0.5957031-0.609375,0.8837891-1.1279297
			c0.2871094-0.5195313,0.5957031-1.2412109,0.9267578-2.1660156H80.7128906z M83.8076172,27.7265625
			c0.3359375-1.0185547,0.5107422-1.8359375,0.5244141-2.4521484c0.0087891-0.4716797-0.0742188-0.8095703-0.2529297-1.0126953
			c-0.1298828-0.1474609-0.3105469-0.2216797-0.5449219-0.2216797c-0.2646484,0-0.5429688,0.1035156-0.8330078,0.3095703
			c-0.2900391,0.2070313-0.5742188,0.5527344-0.8496094,1.0361328c-0.2763672,0.484375-0.6132813,1.2646484-1.0097656,2.3408203
			H83.8076172z"/>
	</g>
</g>
<g id="XMLID_12_">
	<g id="XMLID_23_">
		<g id="XMLID_24_">
			<polygon id="XMLID_25_" class="st6" points="120.8779068,45.6947441 122.0255508,44.1614494 113.3671341,40.6941338 
				119.131813,48.0275383 120.2795486,46.4941216 128.1694946,52.3996696 128.7678528,51.6002922 			"/>
		</g>
	</g>
</g>
<g id="XMLID_17_">
	<g id="XMLID_19_">
		<path id="XMLID_64_" class="st7" d="M143.9951172,38.0097656h1.0751953l1.109375,1.9257813h-0.1816406l-1.59375-1.2392578
			l-1.3378906,1.2392578h-0.1748047L143.9951172,38.0097656z"/>
	</g>
	<g id="XMLID_18_">
		<path id="XMLID_62_" class="st7" d="M145.2363281,43.2958984l0.9453125,1.7919922
			c0.3271484,0.6240234,0.5859375,1.0195313,0.7773438,1.1865234c0.1044922,0.0888672,0.2490234,0.1376953,0.4316406,0.1455078
			v0.2089844h-3.0419922v-0.2089844c0.2373047-0.0195313,0.3847656-0.0507813,0.4404297-0.09375
			c0.0566406-0.0419922,0.0849609-0.1005859,0.0849609-0.1738281c0-0.109375-0.0625-0.2792969-0.1865234-0.5126953
			l-0.4736328-0.8837891l-0.4023438,0.5878906c-0.1835938,0.2675781-0.2861328,0.4267578-0.3095703,0.4765625
			c-0.03125,0.0742188-0.046875,0.1396484-0.046875,0.1982422c0,0.0888672,0.0185547,0.1630859,0.0556641,0.2236328
			s0.0869141,0.1044922,0.1513672,0.1337891s0.1826172,0.0439453,0.3535156,0.0439453v0.2089844h-2.1376953v-0.2089844
			c0.2646484,0,0.5078125-0.0732422,0.7275391-0.21875s0.5400391-0.5263672,0.9609375-1.1425781l0.4492188-0.6630859
			l-0.9404297-1.7333984c-0.3076172-0.5664063-0.5371094-0.9140625-0.6884766-1.0419922
			c-0.1523438-0.1279297-0.3212891-0.1992188-0.5087891-0.2148438v-0.2148438h3.0244141v0.2148438l-0.15625,0.0058594
			l-0.3037109,0.1044922c-0.03125,0.0273438-0.046875,0.0722656-0.046875,0.1337891
			c0,0.0585938,0.0097656,0.1181641,0.0292969,0.1806641c0.0117188,0.0273438,0.0654297,0.1318359,0.1630859,0.3144531
			l0.4257813,0.7910156l0.2226563-0.3144531c0.3105469-0.4267578,0.4667969-0.7255859,0.4667969-0.8955078
			c0-0.0820313-0.0341797-0.1503906-0.1015625-0.2070313c-0.0683594-0.0556641-0.1904297-0.09375-0.3652344-0.1132813v-0.2148438
			h1.9326172v0.2148438c-0.2373047,0.0078125-0.4589844,0.0810547-0.6660156,0.2177734
			c-0.2060547,0.1376953-0.4375,0.4042969-0.6943359,0.8007813L145.2363281,43.2958984z"/>
	</g>
</g>
<g id="XMLID_8_">
	<g id="XMLID_33_">
		<g id="XMLID_34_">
			<polygon id="XMLID_35_" class="st7" points="139.0578308,52.4993706 139.0578308,54.4146233 148.0672913,52.0021172 
				139.0578308,49.5854607 139.0578308,51.5008659 129.2033081,51.5008659 129.2033081,52.4993706 			"/>
		</g>
	</g>
</g>
<g id="XMLID_10_">
	<g id="XMLID_16_">
		<path id="XMLID_60_" class="st6" d="M121.1572266,27.3417969h1.0722656l1.1074219,1.9228516H123.15625l-1.5908203-1.2373047
			l-1.3349609,1.2373047h-0.1748047L121.1572266,27.3417969z"/>
	</g>
	<g id="XMLID_11_">
		<path id="XMLID_57_" class="st6" d="M120.4550781,34.9609375v2.2070313c0,0.4267578,0.0263672,0.6943359,0.078125,0.8046875
			c0.0527344,0.1103516,0.1445313,0.1982422,0.2773438,0.2646484c0.1318359,0.0654297,0.3789063,0.0986328,0.7402344,0.0986328
			v0.2148438h-4.0449219v-0.2148438c0.3652344,0,0.6132813-0.0341797,0.7431641-0.1015625
			c0.1298828-0.0683594,0.2216797-0.15625,0.2734375-0.2646484c0.0527344-0.1083984,0.0791016-0.375,0.0791016-0.8017578v-5.1113281
			c0-0.4257813-0.0263672-0.6943359-0.0791016-0.8046875c-0.0517578-0.1103516-0.1445313-0.1982422-0.2763672-0.2646484
			c-0.1318359-0.0654297-0.3789063-0.0986328-0.7402344-0.0986328v-0.2148438h3.671875
			c0.9550781,0,1.6542969,0.0664063,2.0976563,0.1972656c0.4423828,0.1318359,0.8037109,0.375,1.0839844,0.7294922
			c0.2792969,0.3544922,0.4189453,0.7695313,0.4189453,1.2451172c0,0.5820313-0.2089844,1.0615234-0.6289063,1.4414063
			c-0.2685547,0.2402344-0.6435547,0.4199219-1.125,0.5400391l1.9003906,2.6660156
			c0.2480469,0.3447266,0.4248047,0.5595703,0.5302734,0.6455078c0.1591797,0.1201172,0.34375,0.1855469,0.5537109,0.1972656
			v0.2148438h-2.4892578l-2.5458984-3.5898438H120.4550781z M120.4550781,31.0976563v3.4511719h0.3320313
			c0.5400391,0,0.9443359-0.0498047,1.2119141-0.1484375s0.4785156-0.2773438,0.6318359-0.5341797
			c0.1533203-0.2578125,0.2304688-0.59375,0.2304688-1.0087891c0-0.5996094-0.140625-1.0429688-0.4228516-1.3291016
			c-0.28125-0.2871094-0.734375-0.4306641-1.3603516-0.4306641H120.4550781z"/>
	</g>
</g>
<g id="XMLID_20_">
	<g id="XMLID_21_">
		<path id="XMLID_55_" class="st1" d="M181.1123047,45.0419922l-0.0644531,0.2148438h-3.2587891l0.0820313-0.2148438
			c0.3271484-0.0078125,0.5429688-0.0351563,0.6484375-0.0820313c0.1708984-0.0654297,0.2978516-0.1572266,0.3789063-0.2734375
			c0.1289063-0.1816406,0.2607422-0.5078125,0.3974609-0.9765625l1.3779297-4.7578125
			c0.1171875-0.3955078,0.1757813-0.6943359,0.1757813-0.8964844c0-0.1005859-0.0253906-0.1855469-0.0761719-0.2558594
			c-0.0507813-0.0693359-0.1279297-0.1230469-0.2304688-0.1591797c-0.1035156-0.0371094-0.3046875-0.0556641-0.6044922-0.0556641
			l0.0693359-0.2148438h3.0605469l-0.0644531,0.2148438c-0.2490234-0.0039063-0.4335938,0.0234375-0.5546875,0.0810547
			c-0.1748047,0.078125-0.3085938,0.1884766-0.3994141,0.3320313c-0.0917969,0.1435547-0.2099609,0.4609375-0.3535156,0.9541016
			l-1.3730469,4.7578125c-0.1240234,0.4375-0.1865234,0.7167969-0.1865234,0.8369141
			c0,0.0976563,0.0244141,0.1796875,0.0732422,0.2470703c0.0488281,0.0683594,0.1259766,0.1210938,0.2333984,0.1572266
			C180.5507813,44.9882813,180.7734375,45.0185547,181.1123047,45.0419922z"/>
	</g>
</g>
<g id="XMLID_26_">
	<g id="XMLID_27_">
		<path id="XMLID_52_" class="st1" d="M83.7646484,40.5527344c0.5332031,0,1.0048828,0.1142578,1.4150391,0.3417969
			c0.4101563,0.2285156,0.7314453,0.5664063,0.9648438,1.0126953c0.2324219,0.4462891,0.3496094,0.9101563,0.3496094,1.3896484
			c0,0.8505859-0.25,1.7421875-0.7490234,2.6767578s-1.1513672,1.6464844-1.9560547,2.1386719
			c-0.8056641,0.4912109-1.6376953,0.7373047-2.4980469,0.7373047c-0.6191406,0-1.1367188-0.1357422-1.5537109-0.4072266
			c-0.4160156-0.2705078-0.7236328-0.6289063-0.9228516-1.0732422c-0.1992188-0.4453125-0.2988281-0.8759766-0.2988281-1.2929688
			c0-0.7412109,0.1806641-1.4736328,0.5410156-2.1972656c0.3613281-0.7236328,0.7919922-1.328125,1.2939453-1.8134766
			c0.5009766-0.4863281,1.0351563-0.859375,1.6035156-1.1210938C82.5214844,40.6835938,83.1259766,40.5527344,83.7646484,40.5527344
			z M83.5634766,40.9267578c-0.3945313,0-0.7802734,0.0966797-1.1572266,0.2900391
			c-0.3759766,0.1933594-0.75,0.5087891-1.1210938,0.9482422c-0.3710938,0.4384766-0.7041016,1.0126953-1,1.7226563
			c-0.3632813,0.8740234-0.5449219,1.6982422-0.5449219,2.4746094c0,0.5546875,0.1445313,1.0449219,0.4326172,1.4716797
			c0.2880859,0.4277344,0.7294922,0.640625,1.3251953,0.640625c0.359375,0,0.7119141-0.0878906,1.0566406-0.2626953
			c0.3457031-0.1757813,0.7050781-0.4765625,1.0800781-0.9013672c0.4697266-0.5341797,0.8642578-1.2158203,1.1835938-2.0449219
			c0.3203125-0.8291016,0.4794922-1.6025391,0.4794922-2.3203125c0-0.5302734-0.1435547-0.9990234-0.4316406-1.4072266
			C84.578125,41.1308594,84.1435547,40.9267578,83.5634766,40.9267578z"/>
	</g>
</g>
<g id="XMLID_9_">
	<g id="XMLID_39_">
		<g id="XMLID_40_">
			<polygon id="XMLID_41_" class="st7" points="25.9993477,34.9645691 27.9145699,34.9645691 25.5020638,25.9550781 
				23.0854378,34.9645691 25.0008125,34.9645691 25.0008125,44.8190918 25.9993477,44.8190918 			"/>
		</g>
	</g>
</g>
<g id="XMLID_29_">
	<g id="XMLID_31_">
		<path id="XMLID_46_" class="st7" d="M34.0649414,30.2246094h1.0751953L36.25,32.1474609h-0.1816406l-1.5947266-1.2373047
			l-1.3374023,1.2373047h-0.1748047L34.0649414,30.2246094z"/>
	</g>
	<g id="XMLID_30_">
		<path id="XMLID_44_" class="st7" d="M34.394043,39.0527344l-1.7636719-4.0253906
			c-0.2646484-0.6083984-0.4604492-0.9814453-0.5869141-1.1210938s-0.2792969-0.2363281-0.4584961-0.2900391v-0.2158203h2.902832
			v0.2158203c-0.190918,0.0078125-0.3251953,0.0439453-0.4033203,0.1103516
			c-0.0776367,0.0654297-0.1166992,0.1445313-0.1166992,0.2373047c0,0.1474609,0.097168,0.4384766,0.2919922,0.8720703
			l0.9350586,2.1259766l0.6362305-1.6445313c0.2294922-0.5839844,0.3447266-0.9912109,0.3447266-1.2197266
			c0-0.1425781-0.0478516-0.2568359-0.1435547-0.3427734c-0.0947266-0.0849609-0.2636719-0.1308594-0.5048828-0.1386719v-0.2158203
			h1.828125v0.2158203c-0.1787109,0.0185547-0.3251953,0.0878906-0.4384766,0.2060547
			c-0.1123047,0.1181641-0.3017578,0.5195313-0.5664063,1.2050781l-1.5600586,4.0253906
			c-0.3925781,1.0068359-0.6845703,1.6269531-0.8754883,1.859375c-0.2685547,0.3251953-0.6054688,0.4873047-1.0102539,0.4873047
			c-0.3232422,0-0.5849609-0.0917969-0.7851563-0.2753906c-0.2006836-0.1845703-0.3007813-0.40625-0.3007813-0.6650391
			c0-0.2246094,0.0688477-0.4111328,0.2070313-0.5576172c0.1381836-0.1474609,0.3085938-0.2216797,0.5112305-0.2216797
			c0.1943359,0,0.3510742,0.0625,0.4702148,0.1865234c0.1186523,0.1240234,0.1796875,0.3154297,0.1835938,0.5751953
			c0.0039063,0.1464844,0.0214844,0.2421875,0.0527344,0.2841797c0.03125,0.0429688,0.0756836,0.0644531,0.1342773,0.0644531
			c0.0932617,0,0.1928711-0.0566406,0.2978516-0.1689453c0.1557617-0.1621094,0.3388672-0.5341797,0.5488281-1.1152344
			L34.394043,39.0527344z"/>
	</g>
</g>
<g id="XMLID_36_">
	<g id="XMLID_37_">
		<path id="XMLID_42_" class="st1" d="M66.9150391,32.0214844l1.9960938-0.3261719l-0.8330078,2.8330078
			c0.6748047-1.1621094,1.2890625-1.9736328,1.8408203-2.4365234c0.3125-0.2646484,0.5673828-0.3964844,0.7636719-0.3964844
			c0.1269531,0,0.2275391,0.0380859,0.3007813,0.1142578c0.0732422,0.0751953,0.1103516,0.1855469,0.1103516,0.3291016
			c0,0.2558594-0.0654297,0.5009766-0.1972656,0.734375c-0.0917969,0.1748047-0.2255859,0.2617188-0.3994141,0.2617188
			c-0.0878906,0-0.1640625-0.0283203-0.2285156-0.0869141c-0.0634766-0.0585938-0.1025391-0.1474609-0.1181641-0.2685547
			c-0.0078125-0.0732422-0.0253906-0.1220703-0.0517578-0.1455078c-0.03125-0.03125-0.0683594-0.046875-0.1103516-0.046875
			c-0.0654297,0-0.1269531,0.015625-0.1855469,0.046875c-0.0996094,0.0546875-0.2529297,0.2060547-0.4570313,0.4550781
			c-0.3203125,0.3808594-0.6679688,0.8740234-1.0419922,1.4804688c-0.1621094,0.2568359-0.3007813,0.5458984-0.4169922,0.8681641
			c-0.1611328,0.4433594-0.2539063,0.7089844-0.2773438,0.7988281l-0.1855469,0.734375h-0.8847656l1.0703125-3.6201172
			c0.1230469-0.4189453,0.1855469-0.71875,0.1855469-0.8974609c0-0.0703125-0.0292969-0.1279297-0.0869141-0.1748047
			c-0.0771484-0.0625-0.1796875-0.0927734-0.3066406-0.0927734c-0.0810547,0-0.2294922,0.0166016-0.4462891,0.0517578
			L66.9150391,32.0214844z"/>
	</g>
</g>
<g id="XMLID_28_">
</g>
<g id="XMLID_74_">
</g>
<g id="XMLID_75_">
</g>
<g id="XMLID_76_">
</g>
<g id="XMLID_77_">
</g>
<g id="XMLID_78_">
</g>
</svg>
