<?xml version="1.0" encoding="utf-8"?>
<!-- Generator: Adobe Illustrator 19.0.0, SVG Export Plug-In . SVG Version: 6.00 Build 0)  -->
<svg version="1.1" id="Layer_1" xmlns="http://www.w3.org/2000/svg" xmlns:xlink="http://www.w3.org/1999/xlink" x="0px" y="0px"
	 viewBox="0 0 277 186" style="enable-background:new 0 0 277 186;" xml:space="preserve">
<style type="text/css">
	.st0{fill:#FFFFFF;}
	.st1{fill:none;stroke:#262626;stroke-width:0.5000002;stroke-linecap:square;stroke-linejoin:round;stroke-miterlimit:10;}
	.st2{fill:#262626;}
	.st3{fill:none;stroke:#0072BD;stroke-width:0.5000002;stroke-linejoin:round;stroke-miterlimit:10;}
	.st4{fill:#0072BD;}
	.st5{fill:none;stroke:#FF0000;stroke-width:0.5000002;stroke-linejoin:round;stroke-miterlimit:10;}
	.st6{fill:#FF0000;}
	.st7{fill:none;stroke:#0000FF;stroke-width:0.75;stroke-miterlimit:10;}
</style>
<rect x="19.75" y="16.375" class="st0" width="243" height="150.75"/>
<line class="st1" x1="19.75" y1="167.125" x2="262.75" y2="167.125"/>
<line class="st1" x1="19.75" y1="16.375" x2="262.75" y2="16.375"/>
<line class="st1" x1="19.75" y1="167.125" x2="19.75" y2="164.6950073"/>
<line class="st1" x1="68.3499908" y1="167.125" x2="68.3499908" y2="164.6950073"/>
<line class="st1" x1="116.9499817" y1="167.125" x2="116.9499817" y2="164.6950073"/>
<line class="st1" x1="165.5499878" y1="167.125" x2="165.5499878" y2="164.6950073"/>
<line class="st1" x1="214.1499939" y1="167.125" x2="214.1499939" y2="164.6950073"/>
<line class="st1" x1="262.75" y1="167.125" x2="262.75" y2="164.6950073"/>
<line class="st1" x1="19.75" y1="16.375" x2="19.75" y2="18.8050232"/>
<line class="st1" x1="68.3499908" y1="16.375" x2="68.3499908" y2="18.8050232"/>
<line class="st1" x1="116.9499817" y1="16.375" x2="116.9499817" y2="18.8050232"/>
<line class="st1" x1="165.5499878" y1="16.375" x2="165.5499878" y2="18.8050232"/>
<line class="st1" x1="214.1499939" y1="16.375" x2="214.1499939" y2="18.8050232"/>
<line class="st1" x1="262.75" y1="16.375" x2="262.75" y2="18.8050232"/>
<g>
	<path class="st2" d="M17.1445313,176.921875c0-0.8046875,0.0825195-1.4511719,0.2480469-1.9414063
		s0.4111328-0.8681641,0.7373047-1.1347656c0.3261719-0.265625,0.7368164-0.3984375,1.2319336-0.3984375
		c0.3647461,0,0.6845703,0.0732422,0.9599609,0.2197266c0.2753906,0.1474609,0.5024414,0.359375,0.6821289,0.6357422
		c0.1791992,0.2773438,0.3198242,0.6142578,0.421875,1.0117188s0.1533203,0.9326172,0.1533203,1.6074219
		c0,0.7978516-0.0820313,1.4414063-0.2460938,1.9316406s-0.4086914,0.8691406-0.7353516,1.1367188
		c-0.3261719,0.2675781-0.7382813,0.4013672-1.2358398,0.4013672c-0.6557617,0-1.1708984-0.2353516-1.5449219-0.7050781
		C17.3686523,179.1201172,17.1445313,178.1992188,17.1445313,176.921875z M18.0024414,176.921875
		c0,1.1162109,0.1308594,1.859375,0.3920898,2.2285156c0.2612305,0.3701172,0.5834961,0.5546875,0.9672852,0.5546875
		c0.3833008,0,0.7055664-0.1855469,0.9667969-0.5566406c0.2617188-0.3710938,0.3920898-1.1132813,0.3920898-2.2265625
		c0-1.1201172-0.1303711-1.8632813-0.3920898-2.2314453c-0.2612305-0.3681641-0.5864258-0.5517578-0.9760742-0.5517578
		c-0.3837891,0-0.6899414,0.1621094-0.918457,0.4863281C18.1464844,175.0400391,18.0024414,175.8056641,18.0024414,176.921875z"/>
</g>
<g>
	<path class="st2" d="M70.1328125,179.4726563v0.8027344h-4.4951172c-0.0063477-0.2011719,0.0263672-0.3945313,0.0976563-0.5800781
		c0.1142578-0.3056641,0.2973633-0.6074219,0.5493164-0.9042969s0.6162109-0.640625,1.0927734-1.0302734
		c0.7387695-0.6054688,1.2382813-1.0859375,1.4980469-1.4394531c0.2597656-0.3544922,0.3896484-0.6894531,0.3896484-1.0048828
		c0-0.3310547-0.1181641-0.6103516-0.3549805-0.8369141c-0.2363281-0.2275391-0.5449219-0.3408203-0.925293-0.3408203
		c-0.4018555,0-0.7236328,0.1201172-0.9648438,0.3613281s-0.3632813,0.5751953-0.3662109,1.0019531l-0.8583984-0.0878906
		c0.0585938-0.640625,0.2797852-1.1279297,0.6635742-1.4638672c0.3833008-0.3349609,0.8979492-0.5029297,1.5444336-0.5029297
		c0.6523438,0,1.1689453,0.1806641,1.5493164,0.5429688c0.3803711,0.3613281,0.5708008,0.8095703,0.5708008,1.3447266
		c0,0.2724609-0.0556641,0.5400391-0.1669922,0.8027344s-0.2963867,0.5400391-0.5546875,0.8300781
		c-0.2578125,0.2910156-0.6870117,0.6894531-1.2871094,1.1972656c-0.5009766,0.4199219-0.8227539,0.7060547-0.9648438,0.8554688
		c-0.1420898,0.1503906-0.2597656,0.3007813-0.3525391,0.4521484H70.1328125z"/>
</g>
<g>
	<path class="st2" d="M117.0209961,180.2753906v-1.6279297h-2.9501953v-0.765625l3.1035156-4.4072266h0.6816406v4.4072266h0.918457
		v0.765625h-0.918457v1.6279297H117.0209961z M117.0209961,177.8818359v-3.0664063l-2.1289063,3.0664063H117.0209961z"/>
</g>
<g>
	<path class="st2" d="M167.2763672,175.140625l-0.8300781,0.0644531c-0.0742188-0.328125-0.1796875-0.5654297-0.3154297-0.7138672
		c-0.2255859-0.2382813-0.5039063-0.3574219-0.8349609-0.3574219c-0.265625,0-0.4990234,0.0742188-0.7001953,0.2226563
		c-0.2626953,0.1914063-0.4707031,0.4716797-0.6220703,0.8398438s-0.2304688,0.8916016-0.2363281,1.5722656
		c0.2011719-0.3066406,0.4472656-0.5332031,0.7373047-0.6816406c0.2910156-0.1484375,0.5957031-0.2226563,0.9140625-0.2226563
		c0.5566406,0,1.0302734,0.2041016,1.421875,0.6142578s0.5869141,0.9394531,0.5869141,1.5888672
		c0,0.4267578-0.0917969,0.8232422-0.2763672,1.1894531c-0.1835938,0.3671875-0.4365234,0.6474609-0.7578125,0.8417969
		c-0.3222656,0.1953125-0.6865234,0.2929688-1.0947266,0.2929688c-0.6962891,0-1.2636719-0.2558594-1.703125-0.7675781
		c-0.4384766-0.5117188-0.6582031-1.3554688-0.6582031-2.53125c0-1.3134766,0.2421875-2.2695313,0.7285156-2.8662109
		c0.4228516-0.5195313,0.9941406-0.7792969,1.7109375-0.7792969c0.5351563,0,0.9736328,0.1494141,1.3154297,0.4501953
		C167.0039063,174.1972656,167.2089844,174.6113281,167.2763672,175.140625z M163.8671875,178.0722656
		c0,0.2871094,0.0615234,0.5625,0.1835938,0.8251953s0.2929688,0.4628906,0.5126953,0.6005859
		c0.21875,0.1376953,0.4492188,0.2070313,0.6904297,0.2070313c0.3525391,0,0.65625-0.1425781,0.9091797-0.4267578
		c0.2539063-0.2851563,0.3808594-0.6708984,0.3808594-1.1601563c0-0.4697266-0.125-0.8398438-0.3759766-1.1103516
		c-0.25-0.2714844-0.5654297-0.40625-0.9462891-0.40625c-0.3769531,0-0.6972656,0.1347656-0.9599609,0.40625
		C163.9990234,177.2783203,163.8671875,177.6328125,163.8671875,178.0722656z"/>
</g>
<g>
	<path class="st2" d="M212.8300781,176.5878906c-0.3466797-0.1269531-0.6035156-0.3076172-0.7705078-0.5429688
		s-0.25-0.5166016-0.25-0.8447266c0-0.4941406,0.1777344-0.9101563,0.5332031-1.2470703
		c0.3554688-0.3378906,0.828125-0.5058594,1.4189453-0.5058594c0.59375,0,1.0722656,0.171875,1.4335938,0.5166016
		c0.3623047,0.3457031,0.5429688,0.7646484,0.5429688,1.2597656c0,0.3154297-0.0830078,0.5898438-0.2480469,0.8232422
		c-0.1660156,0.2333984-0.4169922,0.4140625-0.7539063,0.5410156c0.4169922,0.1357422,0.7353516,0.3554688,0.953125,0.6582031
		c0.2177734,0.3037109,0.3271484,0.6650391,0.3271484,1.0859375c0,0.5810547-0.2060547,1.0693359-0.6171875,1.4658203
		c-0.4111328,0.3955078-0.9521484,0.59375-1.6230469,0.59375c-0.671875,0-1.2128906-0.1992188-1.6240234-0.5966797
		s-0.6171875-0.8925781-0.6171875-1.4863281c0-0.4423828,0.1123047-0.8125,0.3369141-1.1113281
		C212.0957031,176.8994141,212.4150391,176.6962891,212.8300781,176.5878906z M212.3935547,178.3134766
		c0,0.2382813,0.0566406,0.4677734,0.1689453,0.6904297c0.1132813,0.2226563,0.28125,0.3955078,0.5039063,0.5175781
		s0.4619141,0.1835938,0.71875,0.1835938c0.3994141,0,0.7285156-0.1289063,0.9882813-0.3857422
		c0.2597656-0.2558594,0.3896484-0.5820313,0.3896484-0.9785156c0-0.4013672-0.1337891-0.734375-0.4013672-0.9970703
		s-0.6025391-0.3945313-1.0039063-0.3945313c-0.3935547,0-0.71875,0.1298828-0.9765625,0.3896484
		C212.5224609,177.5986328,212.3935547,177.9238281,212.3935547,178.3134766z M212.6630859,175.1728516
		c0,0.3212891,0.1035156,0.5839844,0.3105469,0.7880859s0.4755859,0.3066406,0.8066406,0.3066406
		c0.3222656,0,0.5859375-0.1015625,0.7910156-0.3037109c0.2060547-0.203125,0.3085938-0.4511719,0.3085938-0.7451172
		c0-0.3056641-0.1054688-0.5634766-0.3173828-0.7724609c-0.2119141-0.2080078-0.4755859-0.3125-0.7910156-0.3125
		c-0.3183594,0-0.5830078,0.1015625-0.7929688,0.3056641C212.7675781,174.6435547,212.6630859,174.8886719,212.6630859,175.1728516z
		"/>
</g>
<g>
	<path class="st2" d="M260.6640625,180.2753906h-0.8349609v-5.3203125
		c-0.2011719,0.1914063-0.4648438,0.3828125-0.7910156,0.5751953c-0.3261719,0.1914063-0.6191406,0.3349609-0.8789063,0.4306641
		v-0.8066406c0.4667969-0.2197266,0.875-0.4853516,1.2246094-0.7978516s0.5966797-0.6152344,0.7421875-0.9091797h0.5380859
		V180.2753906z"/>
	<path class="st2" d="M262.8027344,176.921875c0-0.8046875,0.0820313-1.4511719,0.2480469-1.9414063
		c0.1650391-0.4902344,0.4111328-0.8681641,0.7373047-1.1347656c0.3261719-0.265625,0.7373047-0.3984375,1.2314453-0.3984375
		c0.3652344,0,0.6855469,0.0732422,0.9609375,0.2197266c0.2744141,0.1474609,0.5019531,0.359375,0.6816406,0.6357422
		c0.1787109,0.2773438,0.3203125,0.6142578,0.421875,1.0117188c0.1025391,0.3974609,0.1533203,0.9326172,0.1533203,1.6074219
		c0,0.7978516-0.0820313,1.4414063-0.2460938,1.9316406s-0.4091797,0.8691406-0.7353516,1.1367188
		s-0.7382813,0.4013672-1.2363281,0.4013672c-0.6552734,0-1.1699219-0.2353516-1.5439453-0.7050781
		C263.0263672,179.1201172,262.8027344,178.1992188,262.8027344,176.921875z M263.6611328,176.921875
		c0,1.1162109,0.1298828,1.859375,0.3916016,2.2285156c0.2607422,0.3701172,0.5839844,0.5546875,0.9667969,0.5546875
		c0.3837891,0,0.7060547-0.1855469,0.9677734-0.5566406c0.2607422-0.3710938,0.3916016-1.1132813,0.3916016-2.2265625
		c0-1.1201172-0.1308594-1.8632813-0.3916016-2.2314453c-0.2617188-0.3681641-0.5869141-0.5517578-0.9765625-0.5517578
		c-0.3837891,0-0.6894531,0.1621094-0.9189453,0.4863281C263.8046875,175.0400391,263.6611328,175.8056641,263.6611328,176.921875z"
		/>
</g>
<line class="st1" x1="19.75" y1="167.125" x2="19.75" y2="16.375"/>
<line class="st1" x1="262.75" y1="167.125" x2="262.75" y2="16.375"/>
<line class="st1" x1="19.75" y1="167.125" x2="22.1799927" y2="167.125"/>
<line class="st1" x1="19.75" y1="129.4375" x2="22.1799927" y2="129.4375"/>
<line class="st1" x1="19.75" y1="91.75" x2="22.1799927" y2="91.75"/>
<line class="st1" x1="19.75" y1="54.0625" x2="22.1799927" y2="54.0625"/>
<line class="st1" x1="19.75" y1="16.375" x2="22.1799927" y2="16.375"/>
<line class="st1" x1="262.75" y1="167.125" x2="260.3199768" y2="167.125"/>
<line class="st1" x1="262.75" y1="129.4375" x2="260.3199768" y2="129.4375"/>
<line class="st1" x1="262.75" y1="91.75" x2="260.3199768" y2="91.75"/>
<line class="st1" x1="262.75" y1="54.0625" x2="260.3199768" y2="54.0625"/>
<line class="st1" x1="262.75" y1="16.375" x2="260.3199768" y2="16.375"/>
<g>
	<path class="st2" d="M7.6518555,168.8339844v-0.8398438h2.5649414v0.8398438H7.6518555z"/>
	<path class="st2" d="M15.2963867,170.0722656V170.875h-4.4951172c-0.0063477-0.2011719,0.0263672-0.3945313,0.0976563-0.5800781
		c0.1142578-0.3056641,0.2973633-0.6074219,0.5493164-0.9042969s0.6162109-0.640625,1.0927734-1.0302734
		c0.7387695-0.6054688,1.2382813-1.0859375,1.4980469-1.4394531c0.2597656-0.3544922,0.3896484-0.6894531,0.3896484-1.0048828
		c0-0.3310547-0.1181641-0.6103516-0.3549805-0.8369141c-0.2363281-0.2275391-0.5449219-0.3408203-0.925293-0.3408203
		c-0.4018555,0-0.7236328,0.1201172-0.9648438,0.3613281s-0.3632813,0.5751953-0.3662109,1.0019531l-0.8583984-0.0878906
		c0.0585938-0.640625,0.2797852-1.1279297,0.6635742-1.4638672c0.3833008-0.3349609,0.8979492-0.5029297,1.5444336-0.5029297
		c0.6523438,0,1.1689453,0.1806641,1.5493164,0.5429688c0.3803711,0.3613281,0.5708008,0.8095703,0.5708008,1.3447266
		c0,0.2724609-0.0556641,0.5400391-0.1669922,0.8027344s-0.2963867,0.5400391-0.5546875,0.8300781
		c-0.2578125,0.2910156-0.6870117,0.6894531-1.2871094,1.1972656c-0.5009766,0.4199219-0.8227539,0.7060547-0.9648438,0.8554688
		c-0.1420898,0.1503906-0.2597656,0.3007813-0.3525391,0.4521484H15.2963867z"/>
</g>
<g>
	<path class="st2" d="M7.6518555,131.1464844v-0.8398438h2.5649414v0.8398438H7.6518555z"/>
	<path class="st2" d="M14.0532227,133.1875h-0.8349609v-5.3203125c-0.2011719,0.1914063-0.4648438,0.3828125-0.7910156,0.5751953
		c-0.3261719,0.1914063-0.6191406,0.3349609-0.8789063,0.4306641v-0.8066406
		c0.4667969-0.2197266,0.875-0.4853516,1.2246094-0.7978516c0.3491211-0.3125,0.5966797-0.6152344,0.7421875-0.9091797h0.5380859
		V133.1875z"/>
</g>
<g>
	<path class="st2" d="M10.7446289,92.1459961c0-0.8037109,0.0825195-1.4511719,0.2480469-1.9414063
		c0.1655273-0.4897461,0.4111328-0.8681641,0.7373047-1.1337891c0.3261719-0.2661133,0.7368164-0.3989258,1.2319336-0.3989258
		c0.3647461,0,0.6845703,0.0732422,0.9599609,0.2202148s0.5024414,0.3588867,0.6821289,0.6352539
		c0.1791992,0.2768555,0.3198242,0.6142578,0.421875,1.0112305c0.1020508,0.3974609,0.1533203,0.9335938,0.1533203,1.6074219
		c0,0.7978516-0.0820313,1.4418945-0.2460938,1.9321289s-0.4086914,0.8691406-0.7353516,1.1367188
		c-0.3261719,0.2675781-0.7382813,0.4013672-1.2358398,0.4013672c-0.6557617,0-1.1708984-0.2353516-1.5449219-0.7050781
		C10.96875,94.3447266,10.7446289,93.4233398,10.7446289,92.1459961z M11.6025391,92.1459961
		c0,1.1166992,0.1308594,1.8598633,0.3920898,2.2290039c0.2612305,0.3701172,0.5834961,0.5546875,0.9672852,0.5546875
		c0.3833008,0,0.7055664-0.1855469,0.9667969-0.5566406c0.2617188-0.3710938,0.3920898-1.1137695,0.3920898-2.2270508
		c0-1.1191406-0.1303711-1.8632813-0.3920898-2.230957c-0.2612305-0.3681641-0.5864258-0.5522461-0.9760742-0.5522461
		c-0.3837891,0-0.6899414,0.1625977-0.918457,0.4873047C11.746582,90.2641602,11.6025391,91.0297852,11.6025391,92.1459961z"/>
</g>
<g>
	<path class="st2" d="M13.8896484,57.8125h-0.8349609v-5.3208008c-0.2011719,0.1918945-0.4648438,0.3837891-0.7910156,0.5751953
		c-0.3261719,0.1918945-0.6191406,0.3359375-0.8789063,0.4316406v-0.8071289
		c0.4667969-0.2197266,0.875-0.4858398,1.2246094-0.7978516c0.3491211-0.3125,0.5966797-0.6157227,0.7421875-0.9091797h0.5380859
		V57.8125z"/>
</g>
<g>
	<path class="st2" d="M15.1328125,19.3222656V20.125h-4.4951172c-0.0063477-0.2011719,0.0263672-0.3945313,0.0976563-0.5800781
		c0.1142578-0.3061523,0.2973633-0.6074219,0.5493164-0.9042969s0.6162109-0.6401367,1.0927734-1.0297852
		c0.7387695-0.605957,1.2382813-1.0864258,1.4980469-1.4404297s0.3896484-0.6889648,0.3896484-1.0043945
		c0-0.3305664-0.1181641-0.6098633-0.3549805-0.8374023c-0.2363281-0.2270508-0.5449219-0.3408203-0.925293-0.3408203
		c-0.4018555,0-0.7236328,0.1206055-0.9648438,0.3618164s-0.3632813,0.5751953-0.3662109,1.0019531l-0.8583984-0.0878906
		c0.0585938-0.6401367,0.2797852-1.1279297,0.6635742-1.4638672c0.3833008-0.3354492,0.8979492-0.5029297,1.5444336-0.5029297
		c0.6523438,0,1.1689453,0.1806641,1.5493164,0.5424805s0.5708008,0.8105469,0.5708008,1.3452148
		c0,0.2724609-0.0556641,0.5400391-0.1669922,0.8027344s-0.2963867,0.5395508-0.5546875,0.8300781
		c-0.2578125,0.2910156-0.6870117,0.6899414-1.2871094,1.1967773c-0.5009766,0.4208984-0.8227539,0.7060547-0.9648438,0.855957
		s-0.2597656,0.3007813-0.3525391,0.4521484H15.1328125z"/>
</g>
<g>
	<path d="M99.0483398,11.4155273v-1.1171875l2.0307617-2.3320313c0.3334961-0.3808594,0.5800781-0.6513672,0.7402344-0.8115234
		c-0.1669922,0.0102539-0.3862305,0.0170898-0.6586914,0.0205078l-1.9130859,0.0102539V5.996582h4.4799805v1.015625
		l-2.0717773,2.3876953l-0.7294922,0.7910156c0.3979492-0.0239258,0.6445313-0.0356445,0.7397461-0.0356445h2.2197266v1.2602539
		H99.0483398z"/>
	<path d="M107.9882813,9.690918l1.4287109,0.2397461c-0.184082,0.5239258-0.4741211,0.9228516-0.8701172,1.1967773
		c-0.3964844,0.2734375-0.8920898,0.4106445-1.4873047,0.4106445c-0.9423828,0-1.6396484-0.3081055-2.0922852-0.9238281
		c-0.3569336-0.4931641-0.5356445-1.1157227-0.5356445-1.8671875c0-0.8979492,0.2348633-1.6015625,0.7041016-2.1098633
		c0.4697266-0.5087891,1.0629883-0.7626953,1.7807617-0.7626953c0.8061523,0,1.4423828,0.2661133,1.9082031,0.7983398
		c0.4663086,0.5322266,0.6889648,1.3476563,0.668457,2.4467773h-3.5917969
		c0.0102539,0.425293,0.1254883,0.7558594,0.3466797,0.9921875s0.496582,0.3544922,0.8266602,0.3544922
		c0.2246094,0,0.4135742-0.0610352,0.5664063-0.1835938C107.7944336,10.1601563,107.909668,9.9628906,107.9882813,9.690918z
		 M108.0698242,8.2416992c-0.0102539-0.4150391-0.1171875-0.7304688-0.3212891-0.9462891s-0.4526367-0.3242188-0.7451172-0.3242188
		c-0.3129883,0-0.5712891,0.1142578-0.7753906,0.3417969c-0.2041016,0.2280273-0.3046875,0.5375977-0.3012695,0.9287109H108.0698242
		z"/>
	<path d="M112.0341797,11.4155273h-1.4335938V5.996582h1.331543v0.7705078
		c0.2280273-0.3637695,0.4331055-0.6035156,0.6147461-0.7192383c0.1821289-0.1157227,0.3886719-0.1733398,0.6201172-0.1733398
		c0.3266602,0,0.6411133,0.0898438,0.9438477,0.2700195l-0.4438477,1.2504883
		c-0.2416992-0.1567383-0.4663086-0.2348633-0.6733398-0.2348633c-0.2006836,0-0.3710938,0.0551758-0.5102539,0.1660156
		c-0.1396484,0.1103516-0.2495117,0.3100586-0.3291016,0.5991211c-0.0800781,0.2895508-0.1201172,0.8950195-0.1201172,1.8164063
		V11.4155273z"/>
	<path d="M114.3964844,8.6293945c0-0.4760742,0.1171875-0.9370117,0.3520508-1.3823242
		c0.2348633-0.4458008,0.5668945-0.7861328,0.9975586-1.0205078c0.4301758-0.2348633,0.9106445-0.3520508,1.4414063-0.3520508
		c0.8198242,0,1.4916992,0.2661133,2.015625,0.7983398c0.5234375,0.5322266,0.7856445,1.2050781,0.7856445,2.0180664
		c0,0.8198242-0.2646484,1.4990234-0.793457,2.0385742c-0.5288086,0.5390625-1.1948242,0.8085938-1.9975586,0.8085938
		c-0.496582,0-0.9702148-0.1123047-1.4208984-0.3369141c-0.4511719-0.2246094-0.793457-0.5537109-1.0283203-0.9873047
		S114.3964844,9.2519531,114.3964844,8.6293945z M115.8657227,8.7060547c0,0.5375977,0.1279297,0.9492188,0.3828125,1.2348633
		c0.2553711,0.2856445,0.5698242,0.4287109,0.9438477,0.4287109c0.3745117,0,0.6879883-0.1430664,0.9414063-0.4287109
		s0.3803711-0.7006836,0.3803711-1.2451172c0-0.5302734-0.1269531-0.9384766-0.3803711-1.2246094
		c-0.253418-0.2856445-0.5668945-0.4282227-0.9414063-0.4282227c-0.3740234,0-0.6884766,0.1425781-0.9438477,0.4282227
		C115.9936523,7.7573242,115.8657227,8.1689453,115.8657227,8.7060547z"/>
	<path d="M120.6064453,9.8696289l1.4384766-0.2197266c0.0615234,0.2792969,0.1855469,0.4907227,0.3725586,0.6352539
		c0.1870117,0.1450195,0.4492188,0.2167969,0.7861328,0.2167969c0.3706055,0,0.6494141-0.0678711,0.8364258-0.2036133
		c0.1259766-0.0952148,0.1889648-0.2231445,0.1889648-0.3828125c0-0.1088867-0.0341797-0.1992188-0.1020508-0.2705078
		c-0.0712891-0.0678711-0.2314453-0.1308594-0.4794922-0.1889648c-1.1567383-0.2548828-1.8896484-0.487793-2.1992188-0.6987305
		c-0.4287109-0.2924805-0.6430664-0.6992188-0.6430664-1.2197266c0-0.4692383,0.1855469-0.8637695,0.5561523-1.1835938
		s0.9458008-0.4794922,1.7246094-0.4794922c0.7416992,0,1.2924805,0.1206055,1.6533203,0.3623047
		c0.3603516,0.2412109,0.6088867,0.5986328,0.7451172,1.0712891l-1.3525391,0.25
		c-0.0576172-0.2109375-0.1674805-0.3725586-0.3291016-0.4848633s-0.3920898-0.168457-0.6914063-0.168457
		c-0.3774414,0-0.6479492,0.0532227-0.8110352,0.1582031c-0.1088867,0.0751953-0.1630859,0.171875-0.1630859,0.2910156
		c0,0.1020508,0.0473633,0.1889648,0.1425781,0.2602539c0.1293945,0.0952148,0.5756836,0.2294922,1.3393555,0.402832
		c0.7636719,0.1738281,1.296875,0.3862305,1.5996094,0.6381836c0.2993164,0.2548828,0.4492188,0.6103516,0.4492188,1.0664063
		c0,0.496582-0.2075195,0.9233398-0.6225586,1.2807617c-0.4150391,0.3569336-1.0292969,0.5356445-1.8417969,0.5356445
		c-0.7382813,0-1.3227539-0.1499023-1.7529297-0.4492188S120.7387695,10.3833008,120.6064453,9.8696289z"/>
	<path d="M129.4946289,8.6293945c0-0.4760742,0.1171875-0.9370117,0.3520508-1.3823242
		c0.2348633-0.4458008,0.5668945-0.7861328,0.9975586-1.0205078c0.4301758-0.2348633,0.9106445-0.3520508,1.4414063-0.3520508
		c0.8198242,0,1.4916992,0.2661133,2.015625,0.7983398c0.5234375,0.5322266,0.7856445,1.2050781,0.7856445,2.0180664
		c0,0.8198242-0.2646484,1.4990234-0.793457,2.0385742c-0.5288086,0.5390625-1.1948242,0.8085938-1.9975586,0.8085938
		c-0.496582,0-0.9702148-0.1123047-1.4208984-0.3369141c-0.4511719-0.2246094-0.793457-0.5537109-1.0283203-0.9873047
		S129.4946289,9.2519531,129.4946289,8.6293945z M130.9638672,8.7060547c0,0.5375977,0.1279297,0.9492188,0.3828125,1.2348633
		c0.2553711,0.2856445,0.5698242,0.4287109,0.9438477,0.4287109c0.3745117,0,0.6879883-0.1430664,0.9414063-0.4287109
		s0.3803711-0.7006836,0.3803711-1.2451172c0-0.5302734-0.1269531-0.9384766-0.3803711-1.2246094
		c-0.253418-0.2856445-0.5668945-0.4282227-0.9414063-0.4282227c-0.3740234,0-0.6884766,0.1425781-0.9438477,0.4282227
		C131.0917969,7.7573242,130.9638672,8.1689453,130.9638672,8.7060547z"/>
	<path d="M135.5820313,5.996582h0.7958984V5.5883789c0-0.4555664,0.0478516-0.7958984,0.1455078-1.0205078
		c0.0976563-0.2241211,0.2753906-0.4072266,0.5351563-0.5483398s0.5898438-0.2119141,0.9882813-0.2119141
		c0.4082031,0,0.8066406,0.0615234,1.1992188,0.184082l-0.1953125,1c-0.2265625-0.0546875-0.4472656-0.081543-0.6582031-0.081543
		c-0.2070313,0-0.3554688,0.0483398-0.4453125,0.1450195c-0.0898438,0.097168-0.1347656,0.2832031-0.1347656,0.559082V5.996582
		h1.0703125v1.1279297H137.8125v4.2910156h-1.4345703V7.1245117h-0.7958984V5.996582z"/>
	<path d="M141.9648438,5.996582h0.7958984V5.5883789c0-0.4555664,0.0488281-0.7958984,0.1455078-1.0205078
		c0.0976563-0.2241211,0.2763672-0.4072266,0.5361328-0.5483398s0.5888672-0.2119141,0.9873047-0.2119141
		c0.4082031,0,0.8076172,0.0615234,1.1992188,0.184082l-0.1943359,1c-0.2275391-0.0546875-0.4472656-0.081543-0.6582031-0.081543
		c-0.2070313,0-0.3564453,0.0483398-0.4462891,0.1450195c-0.0898438,0.097168-0.1347656,0.2832031-0.1347656,0.559082V5.996582
		h1.0712891v1.1279297h-1.0712891v4.2910156h-1.4345703V7.1245117h-0.7958984V5.996582z"/>
	<path d="M149.6386719,11.4155273v-0.8115234c-0.1972656,0.2895508-0.4560547,0.5175781-0.7783203,0.684082
		c-0.3212891,0.1665039-0.6601563,0.25-1.0175781,0.25c-0.3642578,0-0.6904297-0.0800781-0.9794922-0.2397461
		c-0.2890625-0.1601563-0.4980469-0.3847656-0.6279297-0.6738281c-0.1289063-0.2890625-0.1933594-0.6884766-0.1933594-1.1987305
		V5.996582h1.4335938v2.4902344c0,0.7617188,0.0263672,1.2290039,0.0791016,1.4003906
		c0.0527344,0.171875,0.1484375,0.3081055,0.2880859,0.4082031c0.1396484,0.1005859,0.3164063,0.1508789,0.5302734,0.1508789
		c0.2451172,0,0.4648438-0.0673828,0.6582031-0.2016602c0.1943359-0.1342773,0.3271484-0.3012695,0.3984375-0.5
		c0.0712891-0.1992188,0.1074219-0.6865234,0.1074219-1.4619141V5.996582h1.4335938v5.4189453H149.6386719z"/>
	<path d="M157.3837891,11.4155273h-1.4335938v-2.765625c0-0.5849609-0.0302734-0.9633789-0.0917969-1.1352539
		s-0.1611328-0.3051758-0.2988281-0.4003906s-0.3027344-0.1430664-0.4970703-0.1430664
		c-0.2480469,0-0.4716797,0.0683594-0.6679688,0.2041016c-0.1982422,0.1362305-0.3330078,0.3164063-0.40625,0.5410156
		s-0.109375,0.6396484-0.109375,1.2451172v2.4541016h-1.4335938V5.996582h1.3310547v0.7963867
		c0.4726563-0.6123047,1.0683594-0.918457,1.7861328-0.918457c0.3164063,0,0.6054688,0.0566406,0.8671875,0.1708984
		c0.2617188,0.1137695,0.4599609,0.2592773,0.5947266,0.4360352c0.1337891,0.1767578,0.2275391,0.3774414,0.2802734,0.6020508
		s0.0791016,0.5458984,0.0791016,0.9643555V11.4155273z"/>
	<path d="M163.5634766,7.5991211l-1.4130859,0.2548828c-0.0478516-0.2822266-0.1552734-0.4951172-0.3242188-0.6376953
		c-0.1679688-0.1430664-0.3867188-0.2143555-0.6552734-0.2143555c-0.3574219,0-0.6425781,0.1235352-0.8544922,0.3701172
		c-0.2128906,0.246582-0.3193359,0.6586914-0.3193359,1.2373047c0,0.6425781,0.1083984,1.0966797,0.3242188,1.3623047
		c0.2158203,0.2651367,0.5058594,0.3979492,0.8701172,0.3979492c0.2714844,0,0.4951172-0.0776367,0.6679688-0.2324219
		c0.1738281-0.1547852,0.2958984-0.4208984,0.3671875-0.7983398l1.4082031,0.2397461
		c-0.1455078,0.6464844-0.4267578,1.1347656-0.8417969,1.4643555c-0.4150391,0.3300781-0.9707031,0.4951172-1.6679688,0.4951172
		c-0.7929688,0-1.4248047-0.25-1.8955078-0.75c-0.4716797-0.5-0.7070313-1.1923828-0.7070313-2.0766602
		c0-0.8950195,0.2363281-1.5913086,0.7089844-2.0898438c0.4726563-0.4980469,1.1123047-0.7470703,1.9189453-0.7470703
		c0.6601563,0,1.1845703,0.1420898,1.5742188,0.4257813C163.1142578,6.5844727,163.3935547,7.0170898,163.5634766,7.5991211z"/>
	<path d="M167.1357422,5.996582v1.1430664h-0.9804688v2.184082c0,0.4418945,0.0097656,0.699707,0.0283203,0.7729492
		s0.0615234,0.1333008,0.1279297,0.1811523c0.0664063,0.0473633,0.1464844,0.0712891,0.2421875,0.0712891
		c0.1328125,0,0.3251953-0.0458984,0.5761719-0.1376953l0.1230469,1.1123047
		c-0.3339844,0.1425781-0.7109375,0.2143555-1.1328125,0.2143555c-0.2587891,0-0.4921875-0.043457-0.6992188-0.1303711
		c-0.2070313-0.0864258-0.359375-0.1987305-0.4570313-0.3364258c-0.0966797-0.1381836-0.1640625-0.3242188-0.2011719-0.559082
		c-0.0302734-0.1665039-0.0458984-0.503418-0.0458984-1.0102539V7.1396484h-0.6582031V5.996582h0.6582031V4.9199219
		l1.4384766-0.8364258V5.996582H167.1357422z"/>
	<path d="M168.1298828,5.262207V3.9355469h1.4335938V5.262207H168.1298828z M168.1298828,11.4155273V5.996582h1.4335938v5.4189453
		H168.1298828z"/>
	<path d="M170.7011719,8.6293945c0-0.4760742,0.1181641-0.9370117,0.3525391-1.3823242
		c0.234375-0.4458008,0.5673828-0.7861328,0.9970703-1.0205078c0.4306641-0.2348633,0.9111328-0.3520508,1.4414063-0.3520508
		c0.8203125,0,1.4921875,0.2661133,2.015625,0.7983398c0.5244141,0.5322266,0.7861328,1.2050781,0.7861328,2.0180664
		c0,0.8198242-0.2646484,1.4990234-0.7939453,2.0385742c-0.5283203,0.5390625-1.1943359,0.8085938-1.9970703,0.8085938
		c-0.4970703,0-0.9707031-0.1123047-1.4208984-0.3369141c-0.4511719-0.2246094-0.7939453-0.5537109-1.0283203-0.9873047
		S170.7011719,9.2519531,170.7011719,8.6293945z M172.1708984,8.7060547c0,0.5375977,0.1279297,0.9492188,0.3828125,1.2348633
		s0.5693359,0.4287109,0.9443359,0.4287109c0.3740234,0,0.6875-0.1430664,0.9414063-0.4287109
		c0.2529297-0.2856445,0.3798828-0.7006836,0.3798828-1.2451172c0-0.5302734-0.1269531-0.9384766-0.3798828-1.2246094
		c-0.2539063-0.2856445-0.5673828-0.4282227-0.9414063-0.4282227c-0.375,0-0.6894531,0.1425781-0.9443359,0.4282227
		C172.2988281,7.7573242,172.1708984,8.1689453,172.1708984,8.7060547z"/>
	<path d="M182.3447266,11.4155273h-1.4335938v-2.765625c0-0.5849609-0.0302734-0.9633789-0.0917969-1.1352539
		s-0.1611328-0.3051758-0.2988281-0.4003906s-0.3027344-0.1430664-0.4970703-0.1430664
		c-0.2480469,0-0.4716797,0.0683594-0.6679688,0.2041016c-0.1982422,0.1362305-0.3330078,0.3164063-0.40625,0.5410156
		s-0.109375,0.6396484-0.109375,1.2451172v2.4541016H177.40625V5.996582h1.3310547v0.7963867
		c0.4726563-0.6123047,1.0683594-0.918457,1.7861328-0.918457c0.3164063,0,0.6054688,0.0566406,0.8671875,0.1708984
		c0.2617188,0.1137695,0.4599609,0.2592773,0.5947266,0.4360352c0.1337891,0.1767578,0.2275391,0.3774414,0.2802734,0.6020508
		s0.0791016,0.5458984,0.0791016,0.9643555V11.4155273z"/>
</g>
<polyline class="st3" points="22.1799927,52.9572449 24.6099854,60.1755371 27.0399933,68.881012 29.469986,79.3500061 
	31.8999939,91.75 34.3300018,105.9616394 36.7599945,121.4093933 39.1899872,137.1019287 41.6199951,149.9151001 
	44.0499878,136.5545349 46.4799957,124.9438477 48.9100037,114.9595947 51.3399963,106.3144836 53.769989,98.6820984 
	56.1999969,91.75 58.6299896,85.2288513 61.0599976,78.8397217 63.4899902,72.2891541 65.9199982,65.2322998 68.3499908,57.2190247 
	70.7799835,47.6140137 73.2099915,35.4943848 75.6399994,45.4941406 78.0700073,66.3417358 80.5,91.75 82.9299927,118.0812988 
	85.3599854,140.7861633 87.789978,143.6628113 90.2200012,130.6593323 92.6499939,120.7929993 95.0799866,113.0250854 
	97.5099792,106.6465149 99.9399719,101.1816406 102.3699951,96.2990417 104.7999878,91.75 107.2299805,87.3264771 
	109.6600037,82.8282776 112.0899963,78.030304 114.519989,72.6394348 116.9499817,66.2239685 119.3799744,58.0838013 
	121.809967,47.0040588 124.2399902,34.2467346 126.6699829,58.5518188 129.0999756,91.75 131.5299683,125.5911865 
	133.9599915,150.9091797 136.3899841,134.219574 138.8200073,122.9020691 141.25,114.7828064 143.6799927,108.5718079 
	146.1099854,103.5351563 148.539978,99.2312927 150.9700012,95.3722839 153.3999939,91.75 155.8299866,88.1924133 
	158.2599792,84.5322876 160.6900024,80.5769043 163.1199951,76.0662842 165.5499878,70.6012878 167.9799805,63.4987793 
	170.4099731,53.4758301 172.8399963,37.9672546 175.269989,52.8426208 177.6999817,91.75 180.1299744,131.1542664 
	182.559967,144.394043 184.9899902,128.5715942 187.4199829,118.4633484 189.8499756,111.4110718 192.2799988,106.089325 
	194.7099915,101.7987366 197.1400146,98.1368103 199.5700073,94.8479614 202,91.75 204.4299927,88.6928711 206.8599854,85.5298462 
	209.289978,82.089447 211.7199707,78.1364746 214.1499939,73.3019104 216.5799866,66.9358215 219.0099792,57.7621765 
	221.4400024,43.0194702 223.8699646,48.3188171 226.2999878,91.75 228.730011,135.585968 231.1600037,139.6333313 
	233.5899963,124.7089233 236.019989,115.5019226 238.4499817,109.1847229 240.8800049,104.4553528 243.309967,100.6551208 
	245.7399902,97.4139099 248.1699829,94.5002136 250.5999756,91.75 253.0299988,89.0285034 255.4599915,86.2033691 
	257.8900146,83.1186218 260.3199768,79.5581665 262.75,75.1784058 "/>
<circle class="st4" cx="22.1800003" cy="52.9572449" r="1.0000076"/>
<circle class="st4" cx="24.609993" cy="60.1755066" r="1.0000076"/>
<circle class="st4" cx="27.0399857" cy="68.8809814" r="1.0000076"/>
<circle class="st4" cx="29.4699936" cy="79.3500061" r="1.0000076"/>
<circle class="st4" cx="31.8999863" cy="91.75" r="1.0000076"/>
<circle class="st4" cx="34.3299942" cy="105.9616089" r="1.0000076"/>
<circle class="st4" cx="36.7599869" cy="121.4093628" r="1.0000076"/>
<circle class="st4" cx="39.1899948" cy="137.1019287" r="1.0000076"/>
<circle class="st4" cx="41.6199875" cy="149.9151001" r="1.0000076"/>
<circle class="st4" cx="44.0499954" cy="136.5545044" r="1.0000076"/>
<circle class="st4" cx="46.4799881" cy="124.9438171" r="1.0000076"/>
<circle class="st4" cx="48.909996" cy="114.9595947" r="1.0000076"/>
<circle class="st4" cx="51.3399887" cy="106.3144836" r="1.0000076"/>
<circle class="st4" cx="53.7699966" cy="98.6820984" r="1.0000076"/>
<circle class="st4" cx="56.1999893" cy="91.75" r="1.0000076"/>
<circle class="st4" cx="58.6299973" cy="85.2288513" r="1.0000076"/>
<circle class="st4" cx="61.0599899" cy="78.8397217" r="1.0000076"/>
<circle class="st4" cx="63.4899979" cy="72.2891541" r="1.0000076"/>
<circle class="st4" cx="65.9199905" cy="65.2322998" r="1.0000076"/>
<circle class="st4" cx="68.3499985" cy="57.2190247" r="1.0000076"/>
<circle class="st4" cx="70.7799911" cy="47.6140137" r="1.0000076"/>
<circle class="st4" cx="73.2099991" cy="35.4943542" r="1.0000076"/>
<circle class="st4" cx="75.6399918" cy="45.4941406" r="1.0000076"/>
<circle class="st4" cx="78.0699997" cy="66.3417358" r="1.0000076"/>
<circle class="st4" cx="80.4999924" cy="91.75" r="1.0000076"/>
<circle class="st4" cx="82.929985" cy="118.0812988" r="1.0000076"/>
<circle class="st4" cx="85.3599854" cy="140.7861328" r="1"/>
<circle class="st4" cx="87.7899933" cy="143.6628113" r="1.0000153"/>
<circle class="st4" cx="90.219986" cy="130.6593018" r="1.0000153"/>
<circle class="st4" cx="92.6499786" cy="120.7929993" r="1.0000153"/>
<circle class="st4" cx="95.0800018" cy="113.0250549" r="1.0000153"/>
<circle class="st4" cx="97.5099945" cy="106.6464844" r="1.0000153"/>
<circle class="st4" cx="99.9399872" cy="101.1816406" r="1.0000153"/>
<circle class="st4" cx="102.3699799" cy="96.2990417" r="1.0000153"/>
<circle class="st4" cx="104.7999725" cy="91.75" r="1.0000153"/>
<circle class="st4" cx="107.2299957" cy="87.3264771" r="1.0000153"/>
<circle class="st4" cx="109.6599884" cy="82.8282471" r="1.0000153"/>
<circle class="st4" cx="112.0899811" cy="78.0302734" r="1.0000153"/>
<circle class="st4" cx="114.5199738" cy="72.6394348" r="1.0000153"/>
<circle class="st4" cx="116.9499969" cy="66.2239685" r="1.0000153"/>
<circle class="st4" cx="119.3799896" cy="58.0838013" r="1.0000153"/>
<circle class="st4" cx="121.8099823" cy="47.0040588" r="1.0000153"/>
<circle class="st4" cx="124.2400055" cy="34.2467346" r="1.0000153"/>
<circle class="st4" cx="126.6699677" cy="58.5518188" r="1.0000153"/>
<circle class="st4" cx="129.0999908" cy="91.75" r="1.0000153"/>
<circle class="st4" cx="131.5299835" cy="125.591156" r="1.0000153"/>
<circle class="st4" cx="133.9599762" cy="150.9091797" r="1.0000153"/>
<circle class="st4" cx="136.3899994" cy="134.2195435" r="1.0000153"/>
<circle class="st4" cx="138.8199921" cy="122.9020691" r="1.0000153"/>
<circle class="st4" cx="141.2499847" cy="114.7828064" r="1.0000153"/>
<circle class="st4" cx="143.6799774" cy="108.5718079" r="1.0000153"/>
<circle class="st4" cx="146.1099701" cy="103.5351563" r="1.0000153"/>
<circle class="st4" cx="148.5399933" cy="99.2312622" r="1.0000153"/>
<circle class="st4" cx="150.969986" cy="95.3722839" r="1.0000153"/>
<circle class="st4" cx="153.3999786" cy="91.75" r="1.0000153"/>
<circle class="st4" cx="155.8300018" cy="88.1923828" r="1.0000153"/>
<circle class="st4" cx="158.259964" cy="84.5322876" r="1.0000153"/>
<circle class="st4" cx="160.6899872" cy="80.5768738" r="1.0000153"/>
<circle class="st4" cx="163.1199799" cy="76.0662842" r="1.0000153"/>
<circle class="st4" cx="165.5499725" cy="70.6012573" r="1.0000153"/>
<circle class="st4" cx="167.9799957" cy="63.4987488" r="1.0000153"/>
<circle class="st4" cx="170.4099884" cy="53.4757996" r="1.0000153"/>
<circle class="st4" cx="172.8399811" cy="37.9672546" r="1.0000153"/>
<circle class="st4" cx="175.2700043" cy="52.8426208" r="1.0000153"/>
<circle class="st4" cx="177.6999969" cy="91.75" r="1.0000153"/>
<circle class="st4" cx="180.1299896" cy="131.1542664" r="1.0000153"/>
<circle class="st4" cx="182.5599823" cy="144.3940125" r="1.0000153"/>
<circle class="st4" cx="184.9900055" cy="128.5715637" r="1.0000153"/>
<circle class="st4" cx="187.4199677" cy="118.4633484" r="1.0000153"/>
<circle class="st4" cx="189.8499908" cy="111.4110718" r="1.0000153"/>
<circle class="st4" cx="192.2799835" cy="106.089325" r="1.0000153"/>
<circle class="st4" cx="194.7099762" cy="101.7987366" r="1.0000153"/>
<circle class="st4" cx="197.1399994" cy="98.1367798" r="1.0000153"/>
<circle class="st4" cx="199.5699921" cy="94.8479614" r="1.0000153"/>
<circle class="st4" cx="201.9999847" cy="91.75" r="1.0000153"/>
<circle class="st4" cx="204.4299774" cy="88.6928711" r="1.0000153"/>
<circle class="st4" cx="206.8599701" cy="85.5298157" r="1.0000153"/>
<circle class="st4" cx="209.2899933" cy="82.089447" r="1.0000153"/>
<circle class="st4" cx="211.719986" cy="78.1364746" r="1.0000153"/>
<circle class="st4" cx="214.1499786" cy="73.3018799" r="1.0000153"/>
<circle class="st4" cx="216.5800018" cy="66.9358215" r="1.0000153"/>
<circle class="st4" cx="219.009964" cy="57.7621765" r="1.0000153"/>
<circle class="st4" cx="221.4399872" cy="43.0194702" r="1.0000153"/>
<circle class="st4" cx="223.8699799" cy="48.3187866" r="1.0000153"/>
<circle class="st4" cx="226.2999725" cy="91.75" r="1.0000153"/>
<circle class="st4" cx="228.7299957" cy="135.5859375" r="1.0000153"/>
<circle class="st4" cx="231.1599884" cy="139.6333008" r="1.0000153"/>
<circle class="st4" cx="233.5899811" cy="124.7088928" r="1.0000153"/>
<circle class="st4" cx="236.0199738" cy="115.5019226" r="1.0000153"/>
<circle class="st4" cx="238.4499969" cy="109.1847229" r="1.0000153"/>
<circle class="st4" cx="240.8799896" cy="104.4553528" r="1.0000153"/>
<circle class="st4" cx="243.3099823" cy="100.6550903" r="1.0000153"/>
<circle class="st4" cx="245.7400055" cy="97.4139099" r="1.0000153"/>
<circle class="st4" cx="248.1699677" cy="94.5001831" r="1.0000153"/>
<circle class="st4" cx="250.5999908" cy="91.75" r="1.0000153"/>
<circle class="st4" cx="253.0299835" cy="89.0285034" r="1.0000153"/>
<circle class="st4" cx="255.4599762" cy="86.2033386" r="1.0000153"/>
<circle class="st4" cx="257.8900146" cy="83.1186218" r="1.0000153"/>
<circle class="st4" cx="260.3199463" cy="79.558136" r="1.0000153"/>
<circle class="st4" cx="262.75" cy="75.1783752" r="1.0000153"/>
<line class="st5" x1="29.469986" y1="79.3500061" x2="31.8999939" y2="91.75"/>
<circle class="st6" cx="29.4699936" cy="79.3500061" r="1.0000076"/>
<circle class="st6" cx="31.8999863" cy="91.75" r="1.0000076"/>
<circle class="st7" cx="31.8999939" cy="91.75" r="3"/>
<line class="st5" x1="53.769989" y1="98.6820984" x2="56.1999969" y2="91.75"/>
<circle class="st6" cx="53.7699966" cy="98.6820984" r="1.0000076"/>
<circle class="st6" cx="56.1999893" cy="91.75" r="1.0000076"/>
<circle class="st7" cx="56.1999969" cy="91.75" r="3"/>
<line class="st5" x1="78.0700073" y1="66.3417358" x2="80.5" y2="91.75"/>
<circle class="st6" cx="78.0699997" cy="66.3417358" r="1.0000076"/>
<circle class="st6" cx="80.4999924" cy="91.75" r="1.0000076"/>
<circle class="st7" cx="80.5" cy="91.75" r="3"/>
<line class="st5" x1="102.3699951" y1="96.2990417" x2="104.7999878" y2="91.75"/>
<circle class="st6" cx="102.3699799" cy="96.2990417" r="1.0000153"/>
<circle class="st6" cx="104.7999725" cy="91.75" r="1.0000153"/>
<circle class="st7" cx="104.7999878" cy="91.75" r="3"/>
<line class="st5" x1="126.6699829" y1="58.5518188" x2="129.0999756" y2="91.75"/>
<circle class="st6" cx="126.6699677" cy="58.5518188" r="1.0000153"/>
<circle class="st6" cx="129.0999908" cy="91.75" r="1.0000153"/>
<circle class="st7" cx="129.1000061" cy="91.75" r="3"/>
<line class="st5" x1="150.9700012" y1="95.3722839" x2="153.3999939" y2="91.75"/>
<circle class="st6" cx="150.969986" cy="95.3722839" r="1.0000153"/>
<circle class="st6" cx="153.3999786" cy="91.75" r="1.0000153"/>
<circle class="st7" cx="153.3999939" cy="91.75" r="3"/>
<line class="st5" x1="175.269989" y1="52.8426208" x2="177.6999817" y2="91.75"/>
<circle class="st6" cx="175.2700043" cy="52.8426208" r="1.0000153"/>
<circle class="st6" cx="177.6999969" cy="91.75" r="1.0000153"/>
<circle class="st7" cx="177.7000122" cy="91.75" r="3"/>
<line class="st5" x1="199.5700073" y1="94.8479614" x2="202" y2="91.75"/>
<circle class="st6" cx="199.5699921" cy="94.8479614" r="1.0000153"/>
<circle class="st6" cx="201.9999847" cy="91.75" r="1.0000153"/>
<circle class="st7" cx="202" cy="91.75" r="3"/>
<line class="st5" x1="223.8699646" y1="48.3188171" x2="226.2999878" y2="91.75"/>
<circle class="st6" cx="223.8699799" cy="48.3187866" r="1.0000153"/>
<circle class="st6" cx="226.2999725" cy="91.75" r="1.0000153"/>
<circle class="st7" cx="226.2999878" cy="91.75" r="3"/>
<line class="st5" x1="248.1699829" y1="94.5002136" x2="250.5999756" y2="91.75"/>
<circle class="st6" cx="248.1699677" cy="94.5001831" r="1.0000153"/>
<circle class="st6" cx="250.5999908" cy="91.75" r="1.0000153"/>
<circle class="st7" cx="250.6000061" cy="91.75" r="3"/>
</svg>
