<?xml version="1.0" encoding="utf-8"?>
<!-- Generator: Adobe Illustrator 19.0.0, SVG Export Plug-In . SVG Version: 6.00 Build 0)  -->
<svg version="1.1" id="Layer_1" xmlns="http://www.w3.org/2000/svg" xmlns:xlink="http://www.w3.org/1999/xlink" x="0px" y="0px"
	 viewBox="0 0 312.9599915 245.0399933" style="enable-background:new 0 0 312.9599915 245.0399933;" xml:space="preserve">
<style type="text/css">
	.st0{clip-path:url(#SVGID_2_);}
	.st1{clip-path:url(#SVGID_4_);}
	.st2{clip-path:url(#SVGID_6_);fill-rule:evenodd;clip-rule:evenodd;fill:#FFFFFF;}
	
		.st3{clip-path:url(#SVGID_6_);fill:none;stroke:#000000;stroke-width:2.5971136;stroke-linecap:round;stroke-linejoin:round;stroke-miterlimit:10;}
	.st4{clip-path:url(#SVGID_6_);fill-rule:evenodd;clip-rule:evenodd;fill:#0000F0;}
	.st5{clip-path:url(#SVGID_6_);}
	.st6{clip-path:url(#SVGID_8_);fill-rule:evenodd;clip-rule:evenodd;fill:#0000F0;}
	
		.st7{clip-path:url(#SVGID_8_);fill:none;stroke:#0000F0;stroke-width:1.1136471;stroke-linecap:round;stroke-linejoin:round;stroke-miterlimit:10;}
	.st8{clip-path:url(#SVGID_10_);fill-rule:evenodd;clip-rule:evenodd;}
	.st9{clip-path:url(#SVGID_6_);fill-rule:evenodd;clip-rule:evenodd;fill:#FF0000;}
	.st10{clip-path:url(#SVGID_12_);fill-rule:evenodd;clip-rule:evenodd;fill:#FF0000;}
	
		.st11{clip-path:url(#SVGID_12_);fill:none;stroke:#FF0000;stroke-width:1.1136571;stroke-linecap:round;stroke-linejoin:round;stroke-miterlimit:10;}
	.st12{clip-path:url(#SVGID_6_);fill:#FF8000;}
	.st13{clip-path:url(#SVGID_14_);fill-rule:evenodd;clip-rule:evenodd;fill:#FF8000;}
</style>
<g>
	<defs>
		<rect id="SVGID_1_" x="0.0000047" y="0.0000153" width="312.9599915" height="245.0399933"/>
	</defs>
	<clipPath id="SVGID_2_">
		<use xlink:href="#SVGID_1_"  style="overflow:visible;"/>
	</clipPath>
	<g class="st0">
	</g>
</g>
<g>
	<defs>
		<rect id="SVGID_3_" y="-0.0000458" width="312.9599915" height="245.0399933"/>
	</defs>
	<clipPath id="SVGID_4_">
		<use xlink:href="#SVGID_3_"  style="overflow:visible;"/>
	</clipPath>
	<g class="st1">
		<defs>
			<rect id="SVGID_5_" y="-0.0045013" width="312.6495972" height="244.7305145"/>
		</defs>
		<clipPath id="SVGID_6_">
			<use xlink:href="#SVGID_5_"  style="overflow:visible;"/>
		</clipPath>
		<circle class="st2" cx="122.0790634" cy="124.1657486" r="106.3949814"/>
		<circle class="st3" cx="122.0790634" cy="124.1657486" r="106.3949814"/>
		<circle class="st4" cx="197.8784485" cy="49.2767944" r="6.2330475"/>
		<g class="st5">
			<defs>
				<rect id="SVGID_7_" x="216.2624817" y="26.151619" width="89.4718323" height="43.6528473"/>
			</defs>
			<clipPath id="SVGID_8_">
				<use xlink:href="#SVGID_7_"  style="overflow:visible;"/>
			</clipPath>
			<path class="st6" d="M230.0094452,47.2047729c-0.0373993-0.1620636-0.0695953-0.3320923-0.097641-0.5086975
				c-0.0280609-0.1769562-0.0706482-0.3511353-0.1264038-0.5242767c-0.1488953-0.4248962-0.3611603-0.7808838-0.6364594-1.0662231
				c-0.2752991-0.2856903-0.6236572-0.4283447-1.0433502-0.4293976c-0.3916321,0.0010529-0.779129,0.141983-1.1624603,0.4224701
				c-0.3822937,0.281189-0.7323761,0.6430664-1.0499115,1.0866547c-0.4480896,0.6260834-0.7836304,1.2770996-1.0076752,1.9516754
				c-0.2243958,0.6755981-0.4300842,1.3799438-0.6170807,2.1130371c-0.1859436,0.7258148-0.3396912,1.428421-0.4622803,2.1071472
				c-0.0737457,0.3449097-0.111145,0.6710968-0.111145,0.9789581c0,0.326889,0.0373993,0.6440887,0.111145,0.9515839
				c0.0851898,0.4262848,0.2365112,0.7781067,0.4557037,1.0544434c0.2192078,0.2770386,0.5249634,0.414505,0.9166107,0.4138184
				c0.4300842,0.0006866,0.8615417-0.1489105,1.2957764-0.4477539c0.4342346-0.2991943,0.8376617-0.6662445,1.2106018-1.1022186
				c0.1495972-0.180069,0.2922516-0.3542633,0.4273071-0.5225525c0.1360931-0.1672516,0.2548676-0.3466339,0.3570099-0.5377808
				L230.0094452,47.2047729z M228.8753815,59.7933197c-0.0560913,0.2174683-0.084137,0.3857574-0.084137,0.5031586
				c0,0.0907288,0.018692,0.1495972,0.0560913,0.1766052c0.0934906,0.0730591,0.2988434,0.1180878,0.6167297,0.1360931
				c0.3178864,0.018692,0.6762848,0.0270081,1.0772705,0.0270081c0.1309052,0,0.248291,0.046051,0.3500977,0.1360931
				c0.0373993,0.0730591,0.0560913,0.1357422,0.0560913,0.1901093s-0.013504,0.1045685-0.0415497,0.1495972l-0.0426025,0.2174683
				c-0.0270081,0.1274261-0.0952148,0.2268066-0.2022247,0.2991791c-0.1069946,0.0730743-0.2216187,0.1087341-0.3431549,0.1087341
				c-0.9702759-0.0543671-1.9557953-0.0817108-2.9551544-0.0817108c-0.9889832,0-1.992157,0.0273438-3.0102234,0.0817108
				c-0.1392059,0-0.2420502-0.0450134-0.3074951-0.1360931c-0.0560913-0.0543518-0.084137-0.1170349-0.084137-0.1901093
				c0-0.0543671,0.0145416-0.1035309,0.0415497-0.1495819l0.0425873-0.2174683
				c0.0561066-0.2805023,0.2327118-0.4162445,0.5318909-0.4079285c0.3822937,0,0.7400055-0.008316,1.0713959-0.0270081
				c0.3313904-0.0180206,0.5810547-0.068222,0.7486572-0.1495972c0.1398926-0.0543671,0.2614288-0.2940063,0.3642731-0.7206268
				l1.119873-4.3774109c-0.2140045,0.2091522-0.5897064,0.4768372-1.1264496,0.8030396
				c-0.5370789,0.3262024-1.1181335,0.4886169-1.743515,0.4886169c-0.7375793,0-1.3560333-0.1852722-1.8557129-0.556839
				c-0.4996796-0.3712158-0.8885651-0.8383484-1.1690521-1.4010773c-0.3355408-0.6693573-0.5131836-1.3899841-0.5318756-2.1615143
				v-0.2036133c0-0.7154236,0.0983429-1.4308624,0.2939911-2.1480103c0.2243805-0.7878113,0.5370789-1.5669556,0.9380646-2.3374329
				c0.4016876-0.7698059,0.9335785-1.4859161,1.5963593-2.1487122c0.5419159-0.542984,1.1607208-1.0000763,1.8557129-1.3723297
				c0.6949768-0.3712311,1.4017334-0.5571747,2.1206055-0.5582123c0.6728363,0.0010376,1.2116394,0.1911469,1.6178284,0.5717163
				c0.405838,0.3809204,0.6787109,0.7386322,0.8189545,1.0731354c0.1215363-0.171402,0.3151093-0.4016876,0.5810547-0.692215
				c0.2659454-0.289856,0.5575104-0.5616913,0.8743591-0.8165588c0.1308899-0.1080322,0.2572784-0.1623993,0.3781433-0.1630859
				c0.1409302,0.0006866,0.2385864,0.0730591,0.2939911,0.2174683c0.0287323,0.0550537,0.0422363,0.1094208,0.0422363,0.1630859
				v0.0952301L228.8753815,59.7933197z"/>
			<line class="st7" x1="240.941864" y1="45.0539856" x2="260.4305115" y2="45.0539856"/>
			<line class="st7" x1="240.941864" y1="50.9006805" x2="260.4305115" y2="50.9006958"/>
			<line class="st7" x1="269.8977966" y1="47.9773407" x2="281.9795227" y2="47.9773407"/>
			<path class="st6" d="M298.8883667,46.8242188c0.0554199-0.2164307,0.0831299-0.4110413,0.0831299-0.5845337
				c0-0.3618774-0.1073608-0.6787262-0.322052-0.9515991c-0.318573-0.4068909-0.7860413-0.6108551-1.4024353-0.6118927
				c-0.4743958,0.0010376-0.9522705,0.1215515-1.4335938,0.3611755c-0.4813232,0.2406769-0.9072571,0.5686035-1.28125,0.984848
				c-0.4190063,0.4453278-0.7479553,0.9370422-0.9868774,1.4758759c-0.2389526,0.539505-0.4259338,1.0492401-0.5679016,1.5285034
				c0.6059875,0.0006866,1.2535095-0.0263214,1.9391785-0.0806885c0.6856079-0.0543671,1.302002-0.1578979,1.8421936-0.3126984
				c0.5401917-0.1537476,0.9972839-0.3781433,1.3712769-0.6728363
				C298.5039978,47.6663818,298.7567749,47.2872009,298.8883667,46.8242188z M300.4396973,53.0234375
				c0.0657959,0.0644073,0.0969849,0.1326294,0.0969849,0.2039642c0,0.0824127-0.0346375,0.1731415-0.1108093,0.2718353
				c-0.7375793,1.0246582-1.6759949,1.8072662-2.8187256,2.3457336c-1.1462097,0.5388336-2.2923889,0.8082428-3.4385681,0.8082428
				c-0.8310547,0-1.5374756-0.2084656-2.1226807-0.6247101c-0.5817871-0.4162292-1.0423279-0.9287415-1.3782043-1.5368195
				c-0.3739929-0.733429-0.5713806-1.5312805-0.5886841-2.3928375c-0.0173035-0.0900421-0.02771-0.1894226-0.02771-0.2988434
				c0-0.7697906,0.1039124-1.5582886,0.308197-2.3654785c0.1973877-0.7427979,0.5194092-1.4582214,0.9661255-2.1473236
				c0.4501648-0.6880798,1.0180664-1.3048096,1.7071533-1.8495178c0.644104-0.5249786,1.3504944-0.9346313,2.1157837-1.2293243
				c0.7652588-0.2939911,1.5201721-0.4418488,2.2681274-0.4428864c0.4570923,0.0010376,0.8864746,0.0806732,1.2881775,0.2389374
				c0.4016724,0.1585999,0.7341003,0.373642,0.9938049,0.6454773c0.2631836,0.272171,0.4432373,0.5983734,0.5471191,0.9782562
				c0.0346375,0.1731415,0.0554199,0.3583984,0.0554199,0.5571747c0,0.2185059-0.02771,0.4494781-0.0865784,0.6932678
				c-0.1766052,0.7445068-0.5401917,1.322113-1.0976868,1.7341919c-0.5540771,0.4131165-1.1912231,0.7136993-1.911499,0.9041595
				c-0.7167969,0.1901093-1.4786072,0.3040314-2.2819824,0.3397064c-0.7998962,0.0367126-1.5201416,0.0543671-2.1573181,0.0536804
				c-0.1939087,0.7077942-0.328949,1.4187317-0.4051514,2.1341553c-0.0380859,0.2455139-0.0553894,0.4809875-0.0553894,0.7071228
				c0,0.4536285,0.0553894,0.8844147,0.1696777,1.2912903c0.1384888,0.4996948,0.3601074,0.9100494,0.664856,1.2310486
				c0.3012695,0.322052,0.6960144,0.4827271,1.1808167,0.4820404c0.9903564,0.0006866,1.9564819-0.2524414,2.8983459-0.7604523
				c0.9453735-0.507309,1.7279663-1.1964111,2.3547058-2.0673218c0.0727234-0.1257019,0.1800842-0.2029266,0.322052-0.2309723
				h0.0692749c0.1107788,0.0006866,0.2008057,0.032196,0.2666016,0.0948792L300.4396973,53.0234375z"/>
		</g>
		<g class="st5">
			<defs>
				<rect id="SVGID_9_" x="189.4915161" y="-2.4565887" width="32.4691467" height="43.6528625"/>
			</defs>
			<clipPath id="SVGID_10_">
				<use xlink:href="#SVGID_9_"  style="overflow:visible;"/>
			</clipPath>
			<path class="st8" d="M216.7253418,23.6267395c-0.1121826,0.4809875-0.2794342,0.9820709-0.50383,1.5028839
				c-0.2243805,0.5218506-0.4927368,0.994873-0.8054199,1.4208069c-0.3126984,0.4262848-0.6787109,0.7815704-1.0987396,1.0662231
				c-0.4196777,0.2853394-0.9055023,0.4283447-1.4571228,0.4283447c-0.4664307,0-0.8674164-0.0993805-1.2036438-0.2991943
				c-0.3355408-0.198761-0.5897064-0.4612427-0.7631989-0.787796c-0.1724396-0.3262024-0.2683563-0.7067719-0.2870636-1.142746
				v-0.1087341c0-0.3888702,0.0799866-0.7832947,0.2378845-1.1825714c0.3085327-0.7971497,0.5931702-1.589798,0.8546143-2.3782806
				c0.2617798-0.7884979,0.4996643-1.5811462,0.7136688-2.3796844c0.1495972-0.5253143,0.2524414-1.0367889,0.3085327-1.5364838
				c0.018692-0.1257019,0.0280457-0.2614441,0.0280457-0.4075775c0-0.3161469-0.0467377-0.6153412-0.1402435-0.8972168
				c-0.1682892-0.570343-0.522522-0.8556824-1.0644531-0.85672c-0.9515533,0.0010376-1.7732697,0.3296661-2.4640808,0.9865723
				c-0.6904755,0.6575928-1.2929993,1.529541-1.8061676,2.6161957c-0.2888031,1.2334595-0.5973206,2.4638214-0.9245605,3.6917572
				c-0.3261871,1.2286224-0.6482239,2.4537811-0.9657593,3.6765137c-0.0834503,0.3362579-0.2558899,0.5869598-0.5176697,0.7542114
				c-0.2614441,0.1683044-0.5180359,0.2517548-0.770462,0.2517548c-0.2700958,0-0.4944916-0.0900269-0.6721191-0.2721863
				c-0.1205139-0.1170349-0.1859589-0.2801361-0.1963501-0.4893036c0-0.0983429,0.0093536-0.198761,0.0280609-0.2988434
				l1.8761139-7.218689c0.1495819-0.5253143,0.2524261-1.0367737,0.3085327-1.5364685l-0.0000153-0.4075775
				c0-0.3255005-0.037384-0.6246948-0.1121826-0.8972321c-0.1676025-0.5703278-0.5218353-0.8556671-1.0637665-0.8567047
				c-0.9515533,0.0010376-1.7732697,0.3296661-2.4640808,0.9865723c-0.6904755,0.6575928-1.2971497,1.529541-1.8207092,2.6161804
				l-1.9183655,7.3682861c-0.0830994,0.3362427-0.2541656,0.5869598-0.5107574,0.7542114
				c-0.2565918,0.1683044-0.5156097,0.2517548-0.7773895,0.2517548c-0.2794342,0-0.4944763-0.0900421-0.6440735-0.2721863
				c-0.1204987-0.1170502-0.1817932-0.2801514-0.1817932-0.4893036c0-0.0806885,0.0093536-0.180069,0.0280457-0.2988434
				l2.1555634-8.4151001c0.1495972-0.5879974,0.2243805-1.0960083,0.2243805-1.5226288v-0.3262024
				c-0.046051-0.4342346-0.2652435-0.6517029-0.6575775-0.6527557c-0.4113617,0.0010529-0.7545319,0.3324432-1.0298157,0.9934998
				c-0.2752838,0.6617584-0.5429535,1.5226288-0.8047333,2.5819092c-0.1025085,0.2455292-0.2749481,0.3722687-0.5180359,0.3805695
				h-0.3220367c-0.2243805,0.0010376-0.3365784-0.1118469-0.3365784-0.3397064v-0.0952301
				c0.1121979-0.424881,0.2389374-0.8896027,0.3791656-1.3924103c0.1399078-0.5031586,0.326889-0.9789581,0.5595856-1.4273987
				c0.2337341-0.4487762,0.5277252-0.8293457,0.881958-1.1420441c0.3552856-0.3126984,0.797821-0.4688721,1.3296967-0.4699097
				c0.7663116,0.0010376,1.3688202,0.2320099,1.8072052,0.6943054s0.6669312,0.9107208,0.6856232,1.3449707
				c0.3926849-0.515625,0.9380646-0.9848328,1.6382294-1.4062653c0.6998291-0.4214325,1.5121918-0.6319733,2.4356995-0.6330109
				c0.5703125,0.0010376,1.0935364,0.1028442,1.5693207,0.3068085s0.8445587,0.5325928,1.1053162,0.9848328
				c0.2243805,0.390625,0.3459167,0.7171631,0.364624,0.9786072c0.411026-0.5793304,0.9803009-1.1018677,1.7085114-1.5693665
				c0.7282257-0.4664459,1.5821381-0.6998444,2.5617523-0.700882c0.5505676,0.0010376,1.0644379,0.1028595,1.5402222,0.3068085
				c0.4757843,0.2039642,0.849762,0.5325928,1.1198578,0.984848c0.2804718,0.4629822,0.416214,0.9837952,0.4061737,1.5631409
				v0.068222c-0.018692,0.5810547-0.1021423,1.1655884-0.2517395,1.7535858
				c-0.2146912,0.8258972-0.4619293,1.6372375-0.7424011,2.4340363c-0.2794495,0.7978516-0.5734406,1.6043549-0.8819733,2.4191589
				c-0.2804718,0.7348328-0.4203644,1.3508759-0.4203644,1.8488312c0,0.4086151,0.1772766,0.6125793,0.5325623,0.6118927
				c0.3178864,0.0006866,0.604248-0.0945435,0.8608398-0.2846527c0.2565918-0.1904602,0.489975-0.4463654,0.6998291-0.7680664
				c0.2108765-0.3213501,0.3995972-0.7019196,0.5675354-1.1420441c0.1682892-0.4394379,0.3171844-0.9041595,0.4477386-1.3941498
				c0.0560913-0.234787,0.2202301-0.3528748,0.4903259-0.3535614h0.3074799
				c0.1038818,0.0006866,0.2108917,0.032196,0.3220367,0.0952301c0.0373993,0.0824127,0.0561066,0.1502838,0.0561066,0.2036133
				C216.7669067,23.5415497,216.7534027,23.5824127,216.7253418,23.6267395z"/>
		</g>
		<circle class="st9" cx="122.0785446" cy="124.1657486" r="5.7179565"/>
		<g class="st5">
			<defs>
				<rect id="SVGID_11_" x="95.2721176" y="134.08638" width="108.4707413" height="43.6528625"/>
			</defs>
			<clipPath id="SVGID_12_">
				<use xlink:href="#SVGID_11_"  style="overflow:visible;"/>
			</clipPath>
			<path class="st10" d="M109.0193329,155.1395416c-0.0373917-0.1620636-0.0695953-0.3320923-0.0976486-0.5086975
				c-0.0280533-0.1769562-0.0706406-0.3511353-0.1263962-0.5242767c-0.1489029-0.4248962-0.3611755-0.7808838-0.6364746-1.0662231
				c-0.2752991-0.285675-0.6236572-0.4283447-1.0433578-0.4293823c-0.391655,0.0010376-0.7791443,0.1419678-1.1624832,0.4224548
				c-0.3823013,0.281189-0.732399,0.6430664-1.049942,1.0866547c-0.4480972,0.6260834-0.7836456,1.2771149-1.0076904,1.9516754
				c-0.2243958,0.6755981-0.4300919,1.3799438-0.6170807,2.1130371c-0.1859589,0.7258148-0.3397064,1.4284363-0.4622955,2.1071472
				c-0.073761,0.3449097-0.1111603,0.6711121-0.1111603,0.9789581c0,0.326889,0.0373993,0.6440887,0.1111603,0.9515991
				c0.0851898,0.4262848,0.2365112,0.7781067,0.4557114,1.0544281c0.2192001,0.2770386,0.524971,0.4145203,0.9166183,0.4138184
				c0.4300919,0.0007019,0.8615646-0.1488953,1.2958069-0.4477539c0.4342422-0.2991791,0.8376694-0.6662445,1.2106171-1.1022186
				c0.1495972-0.180069,0.2922668-0.354248,0.4273148-0.5225372c0.1360931-0.1672668,0.2548676-0.3466492,0.3570251-0.537796
				L109.0193329,155.1395416z M107.8852539,167.7280884c-0.0560989,0.2174683-0.0841522,0.3857727-0.0841522,0.5031586
				c0,0.0907288,0.0186996,0.1495972,0.0560989,0.1766052c0.0934982,0.0730743,0.298851,0.1180878,0.6167374,0.1360931
				c0.317894,0.0187073,0.6763,0.0270081,1.077301,0.0270081c0.1308899,0,0.2482834,0.046051,0.35009,0.1360931
				c0.0373993,0.0730743,0.0560989,0.1357422,0.0560989,0.1901093s-0.013504,0.1045837-0.0415497,0.1495972l-0.0425949,0.2174683
				c-0.0270081,0.1274414-0.0952301,0.2268066-0.2022324,0.2991943c-0.1070023,0.0730591-0.2216263,0.1087341-0.3431702,0.1087341
				c-0.9702911-0.0543671-1.9558258-0.0817261-2.9552078-0.0817261c-0.9889908,0-1.9921875,0.027359-3.0102692,0.0817261
				c-0.1392059,0-0.2420502-0.0450134-0.3075027-0.1360931c-0.0560989-0.0543671-0.0841446-0.1170502-0.0841446-0.1901093
				c0-0.0543671,0.0145416-0.1035461,0.0415497-0.1495972l0.0425949-0.2174683
				c0.0560989-0.2804871,0.2327042-0.4162292,0.5318985-0.4079285c0.3823013,0,0.7400131-0.0083008,1.0714111-0.0270081
				c0.331398-0.0180054,0.5810699-0.068222,0.7486725-0.1495972c0.1399002-0.0543671,0.2614441-0.2940063,0.3642883-0.7206116
				l1.1198883-4.3774109c-0.2140045,0.2091522-0.5897217,0.4768372-1.1264648,0.8030396
				c-0.5370941,0.3262024-1.1181641,0.4886017-1.7435532,0.4886017c-0.7375946,0-1.3560562-0.185257-1.855751-0.556839
				c-0.4996872-0.3712158-0.8885727-0.8383484-1.1690598-1.401062c-0.335556-0.6693726-0.5131989-1.3899994-0.5318985-2.1615295
				v-0.2036133c0-0.7154236,0.0983429-1.4308472,0.2939987-2.1480103c0.2243881-0.7878113,0.5370865-1.5669556,0.9380875-2.3374329
				c0.4016953-0.7698059,0.9335861-1.4859161,1.5963821-2.1487122c0.5419388-0.5429688,1.1607513-1.0000763,1.8557434-1.3723297
				c0.6949997-0.3712158,1.4017715-0.5571747,2.1206589-0.5582123c0.6728363,0.0010376,1.2116547,0.1911469,1.6178513,0.5717163
				c0.4058456,0.3809204,0.6787186,0.7386322,0.8189697,1.0731506c0.1215439-0.1714172,0.3151169-0.4017029,0.5810699-0.6922302
				c0.2659454-0.289856,0.557518-0.561676,0.8743668-0.8165436c0.1308975-0.1080475,0.2572937-0.1624146,0.3781509-0.1631012
				c0.1409378,0.0006866,0.2385864,0.0730591,0.2939911,0.2174683c0.0287476,0.0550537,0.0422516,0.1094208,0.0422516,0.1631012
				v0.0952301L107.8852539,167.7280884z"/>
			<line class="st11" x1="119.9519424" y1="152.9887543" x2="139.4409485" y2="152.9887543"/>
			<line class="st11" x1="119.9519501" y1="158.8354492" x2="139.4409485" y2="158.8354492"/>
			<path class="st10" d="M165.5924988,145.7053223c0,0.0730591-0.0415649,0.1502838-0.1246643,0.2309723l-14.744873,17.1425629
				h3.836853c0.8310852,0.0006866,1.6309967-0.0689087,2.3997498-0.2098541
				c0.7722321-0.1402435,1.4855804-0.4688721,2.1365967-0.9865723c0.335907-0.2707977,0.6267853-0.5852203,0.8761139-0.9439697
				c0.2458649-0.3577118,0.474411-0.7493744,0.6856384-1.1756439c0.2112274-0.4259338,0.3947601-0.8771515,0.5540619-1.3529358
				c0.1592865-0.4757996,0.3116455-0.9540253,0.460556-1.4350281c0.1038818-0.2707825,0.2839508-0.4068756,0.5471344-0.4079132
				h0.2250824c0.2493286,0.0010376,0.3843842,0.1232758,0.4051514,0.3670654v0.0952301
				c-0.3081818,1.1877594-0.6579437,2.3374329-1.0492401,3.4472809c-0.3947601,1.1101837-0.7722168,2.2404633-1.1358032,3.3908234
				c-0.1004333,0.2718506-0.2839661,0.4079285-0.5471497,0.4079285h-12.2100525
				c-0.2597198,0-0.3913116-0.1173859-0.3913116-0.3535461v-0.1087341l0.0969696-0.3400574l0.1004181-0.1901245
				l14.7864227-17.1834106h-3.670639c-0.7548981,0.0006866-1.4959564,0.0671692-2.2266083,0.1980591
				c-0.7272034,0.1315918-1.3886108,0.4373779-1.9877014,0.916626c-0.6163788,0.4629822-1.0907898,1.0367889-1.4266968,1.7207031
				c-0.3358917,0.6846008-0.62677,1.4069519-0.8691711,2.1674042c-0.0554047,0.2818756-0.2389374,0.4221344-0.5471344,0.4214325
				h-0.2216187c-0.141983,0.0007019-0.2424011-0.0443268-0.308197-0.1360931
				c-0.0588684-0.0533295-0.0865631-0.1170502-0.0865631-0.1901093c0-0.0536804,0.010376-0.1080322,0.0276947-0.1631012
				c0.2527924-0.9602509,0.5332794-1.9042206,0.834549-2.8336639c0.3047333-0.9287415,0.5990753-1.865097,0.8899536-2.8080292
				c0.0727234-0.2711487,0.2527924-0.4072418,0.5298157-0.4079285h11.8464661
				c0.2631836,0.0006866,0.3947754,0.1232758,0.3947754,0.3670654v0.1087341L165.5924988,145.7053223z"/>
			<circle class="st10" cx="176.8693237" cy="155.9121094" r="1.7158432"/>
			<path class="st10" d="M196.8933258,154.7589722c0.0554047-0.2164307,0.0865631-0.4110413,0.0865631-0.5845337
				c0-0.3618622-0.1073456-0.6787109-0.322052-0.9515991c-0.318573-0.4068756-0.7860565-0.6108398-1.4024506-0.6118774
				c-0.474411,0.0010376-0.9522858,0.1215515-1.4336243,0.3611755c-0.4813385,0.2406616-0.9072723,0.5686035-1.2812653,0.9848328
				c-0.4190063,0.4453278-0.7514343,0.9370575-0.986908,1.4758759c-0.2389374,0.5395203-0.4293976,1.0492554-0.5679169,1.5285187
				c0.6060028,0.0006866,1.2535553-0.0263214,1.939209-0.0806885s1.2985687-0.1579132,1.8422394-0.3126984
				c0.5402222-0.1537476,0.9973145-0.3781433,1.3713074-0.6728363
				C196.5124054,155.6011353,196.7651978,155.2219543,196.8933258,154.7589722z M198.4481506,160.9581909
				c0.0657959,0.0644226,0.0969543,0.1326294,0.0969543,0.2039795c0,0.0823975-0.0346222,0.1731262-0.1108093,0.2718201
				c-0.7375793,1.0246582-1.6760254,1.8072815-2.8222351,2.3457489c-1.1427307,0.5388184-2.2889404,0.8082275-3.4351501,0.8082275
				c-0.8310852,0-1.5409851-0.2084503-2.1227417-0.6246948s-1.0423279-0.9287415-1.3782196-1.5368195
				c-0.3739777-0.733429-0.5713654-1.5312805-0.5886841-2.3928375c-0.0207825-0.0900421-0.02771-0.1894226-0.02771-0.2988434
				c0-0.7698059,0.1004181-1.5582886,0.308197-2.3654785c0.1973724-0.7427979,0.5194244-1.4582214,0.9661407-2.1473389
				c0.4467163-0.6880646,1.0180817-1.3048096,1.7071838-1.8495178c0.644104-0.5249634,1.3505249-0.9346161,2.1158142-1.2293091
				c0.7652893-0.2940063,1.5202026-0.441864,2.2681885-0.4429016c0.4570923,0.0010376,0.8864746,0.0806885,1.2881775,0.2389374
				c0.4016876,0.1585999,0.7306519,0.373642,0.9938354,0.6454773c0.2597198,0.2721863,0.4432373,0.5983887,0.5436707,0.9782562
				c0.0380859,0.1731567,0.0588684,0.3584137,0.0588684,0.5571899c0,0.2185059-0.0311584,0.4494629-0.0865784,0.6932526
				c-0.1766052,0.7445221-0.5401917,1.3221283-1.0977173,1.7342072c-0.5540619,0.4131165-1.1912231,0.7136993-1.911499,0.9041443
				c-0.7202759,0.1901245-1.4786377,0.3040466-2.2820435,0.3397217c-0.8033752,0.0366974-1.5201874,0.0543518-2.1573486,0.0536652
				c-0.193924,0.7078094-0.3289795,1.4187469-0.4051514,2.1341705c-0.0380859,0.2455139-0.0554199,0.4809875-0.0554199,0.7071228
				c0,0.4536285,0.0554199,0.8843994,0.1662292,1.2912903c0.1419678,0.4996948,0.3636169,0.9100342,0.6648865,1.2310486
				c0.304718,0.322052,0.6994934,0.4827271,1.1842957,0.4820251c0.9903564,0.0007019,1.9565125-0.2524414,2.898407-0.760437
				c0.9418945-0.507309,1.7279663-1.1964111,2.3512878-2.0673218c0.0761719-0.1257019,0.1835327-0.2029266,0.3220367-0.2309875
				h0.0727386c0.1108093,0.0007019,0.2008362,0.0322113,0.2631531,0.0948792L198.4481506,160.9581909z"/>
		</g>
		<path class="st12" d="M150.8050995,96.4319153l23.8708344-12.8609619l-8.2639771-0.9159241l-1.8370209-1.8370209
			l-0.9193726-8.2623291L150.8050995,96.4319153z M198.7874451,50.2671509l-32.3910675,32.4017334l-1.8352814-1.8353119
			l32.389328-32.4034424c0.5072937-0.5073242,1.3297119-0.5073242,1.8370209,0
			C199.294754,48.9374237,199.294754,49.7598419,198.7874451,50.2671509z"/>
		<g class="st5">
			<defs>
				<rect id="SVGID_13_" x="124.2765579" y="54.550293" width="29.8789368" height="43.6528625"/>
			</defs>
			<clipPath id="SVGID_14_">
				<use xlink:href="#SVGID_13_"  style="overflow:visible;"/>
			</clipPath>
			<path class="st13" d="M148.2171783,71.6069794c-0.027359,0.1187744-0.0858765,0.220932-0.1741791,0.3064575
				c-0.0886536,0.0869141-0.1845703,0.1291656-0.2874146,0.128479c-0.018692,0.018692-0.0654449,0.0280457-0.1402435,0.0270081
				c-0.1118469,0.0010376-0.1679382-0.008316-0.1679382-0.0270081h-0.0280457
				c-0.2424011,0.0006866-0.3639374-0.0986938-0.3639374-0.2991943v-0.0952301
				c0.0560913-0.4245453,0.1021423-0.8553314,0.1395416-1.2913055c0.0373993-0.3348541,0.0561066-0.6423645,0.0561066-0.9245758
				v-0.2309723c-0.0187073-0.3618774-0.060257-0.6873779-0.1257019-0.9779205
				c-0.0647583-0.2898407-0.1769562-0.5301666-0.3365784-0.7213135c-0.354248-0.4162445-0.8605042-0.662796-1.5184326-0.7400208
				c-0.6575928-0.0765228-1.3747253-0.1156464-2.149353-0.1163483h-2.8429413
				c-0.4944916,0.0007019-0.7832794,0.0370483-0.8674316,0.1087341c-0.0467377,0.0373993-0.1402435,0.3040466-0.2804718,0.802002
				l-1.8197021,7.0012207h1.8757935c0.4944916,0.0006866,0.9498444-0.0169678,1.3653717-0.0536804
				c0.4155426-0.0356598,0.7722015-0.1766052,1.070694-0.4221191c0.2614441-0.207428,0.4671326-0.5225525,0.6167145-0.9439697
				c0.1495972-0.4214325,0.2981567-0.8865051,0.4477386-1.3945007c0.0280457-0.1257019,0.0959167-0.2275085,0.2029266-0.3050842
				c0.1073456-0.0761719,0.2219696-0.1153107,0.3435059-0.1163483h0.2233429
				c0.1309052,0.0010376,0.2479401,0.046051,0.3500977,0.1360931c0.0373993,0.0730591,0.0560913,0.1409302,0.0560913,0.2039642
				c0,0.0550537-0.013504,0.1052704-0.0415497,0.1492462l-1.7088776,6.7293854
				c-0.1018066,0.2728729-0.2846375,0.4086151-0.5460815,0.4079285h-0.2236938
				c-0.2514038,0.0006866-0.387146-0.1174011-0.405838-0.3535614V78.485611
				c0.1492462-0.542984,0.2572784-1.0281219,0.3216858-1.4547424c0.018692-0.0983582,0.0280457-0.1935883,0.0280457-0.2853394
				c0-0.2531433-0.0560913-0.4571075-0.1679382-0.6118927c-0.1582489-0.2164307-0.4359741-0.3455963-0.8328094-0.3864594
				c-0.3968201-0.040863-0.8376465-0.0612946-1.3238068-0.0619812h-1.9599457l-1.8065186,7.0825958
				c-0.0370636,0.1367798-0.0557556,0.2687073-0.0557556,0.3944092c0,0.1461334,0.0370483,0.2320099,0.1118469,0.2583313
				c0.1963348,0.0824127,0.5488434,0.1350555,1.0571899,0.1572113c0.5086823,0.0228577,1.02948,0.0339508,1.5613708,0.0328979
				c0.2617798,0.0010529,0.391983,0.1097717,0.391983,0.3262024c0,0.0554199-0.0093536,0.1139374-0.0280457,0.1769562
				l-0.0561066,0.2174683c-0.1021423,0.2718353-0.2797852,0.4079285-0.5318756,0.4079285
				c-1.2788086-0.035675-2.5624542-0.0630188-3.8506165-0.0817261h-0.5744781c-1.1105042,0-2.2258759,0.027359-3.3457336,0.0817261
				c-0.1402435,0-0.2430878-0.040863-0.3085327-0.1225891c-0.0644073-0.0626831-0.0966187-0.1308899-0.0976563-0.2039642
				c0.0010376-0.0533295,0.0103912-0.1076965,0.0280609-0.1631012l0.0560913-0.2036133
				c0.0280457-0.1173859,0.0934906-0.2185059,0.1963348-0.3050842c0.1028442-0.0858765,0.2191925-0.1291656,0.3490448-0.1302032
				c0.4394379,0.0010376,0.8504639-0.0058899,1.2327576-0.0193939c0.3826294-0.013504,0.6721191-0.0612793,0.8677673-0.1437073
				c0.1679535-0.0900269,0.2988434-0.3348541,0.392334-0.7341156l3.9347534-15.2255249
				c0.0561066-0.1991119,0.0841522-0.3570251,0.0841522-0.4761505c0-0.1076965-0.0232086-0.171402-0.0706482-0.1901093
				c-0.1308899-0.0806885-0.3874817-0.1302032-0.7697754-0.1485596c-0.3822937-0.0180054-0.7936707-0.027359-1.2327423-0.0280457
				c-0.2607574,0.0006866-0.3916473-0.1215515-0.3916473-0.3670654v-0.0952301l0.0561066-0.231308
				c0.0747833-0.2981567,0.2572784-0.4477539,0.5460663-0.4484558l13.8192596,0.0000153
				c0.261795,0.0006866,0.3926849,0.1461334,0.3926849,0.4349213L148.2171783,71.6069794z"/>
		</g>
	</g>
</g>
</svg>
