<?xml version="1.0" encoding="UTF-8"?>
<svg xmlns="http://www.w3.org/2000/svg" xmlns:xlink="http://www.w3.org/1999/xlink" width="570pt" height="453pt" viewBox="0 0 570 453" version="1.1">
<g id="surface1">
<path style=" stroke:none;fill-rule:nonzero;fill:rgb(0%,0%,0%);fill-opacity:1;" d="M 72.628906 372.601562 L 527.457031 372.601562 L 527.457031 374.398438 L 72.628906 374.398438 C 72.128906 374.398438 71.730469 373.996094 71.730469 373.5 C 71.730469 373.003906 72.128906 372.601562 72.628906 372.601562 Z M 552.597656 373.5 L 527.429688 366.3125 L 527.429688 380.683594 Z M 552.597656 373.5 "/>
<path style=" stroke:none;fill-rule:nonzero;fill:rgb(0%,0%,0%);fill-opacity:1;" d="M 71.730469 373.5 L 71.730469 49.628906 L 73.527344 49.628906 L 73.527344 373.5 C 73.527344 373.996094 73.125 374.398438 72.628906 374.398438 C 72.128906 374.398438 71.730469 373.996094 71.730469 373.5 Z M 72.628906 24.507812 L 65.4375 49.65625 L 79.816406 49.65625 Z M 72.628906 24.507812 "/>
<path style=" stroke:none;fill-rule:evenodd;fill:rgb(0%,0%,0%);fill-opacity:1;" d="M 62.90625 385.636719 C 62.4375 387.453125 61.6875 389.207031 60.644531 390.902344 C 59.605469 392.59375 58.296875 394.140625 56.722656 395.542969 C 55.300781 396.808594 53.746094 397.816406 52.058594 398.5625 C 50.371094 399.308594 48.683594 399.679688 46.992188 399.679688 C 45.285156 399.679688 43.769531 399.304688 42.445312 398.554688 C 41.121094 397.800781 40.066406 396.785156 39.277344 395.507812 C 38.410156 394.089844 37.914062 392.523438 37.785156 390.804688 C 37.734375 390.394531 37.707031 389.980469 37.707031 389.566406 C 37.707031 388.273438 37.875 386.9375 38.210938 385.558594 C 38.703125 383.71875 39.460938 381.929688 40.488281 380.195312 C 41.515625 378.457031 42.832031 376.886719 44.433594 375.480469 C 45.855469 374.214844 47.40625 373.199219 49.09375 372.429688 C 50.78125 371.65625 52.484375 371.269531 54.199219 371.269531 C 55.90625 371.269531 57.414062 371.660156 58.726562 372.433594 C 60.039062 373.214844 61.089844 374.242188 61.875 375.519531 C 62.742188 376.9375 63.253906 378.515625 63.40625 380.257812 C 63.433594 380.6875 63.445312 381.105469 63.445312 381.515625 C 63.445312 382.859375 63.265625 384.234375 62.90625 385.636719 Z M 58.988281 376.15625 C 58.5625 375.109375 57.921875 374.25 57.070312 373.59375 C 56.21875 372.9375 55.171875 372.605469 53.929688 372.605469 C 52.703125 372.605469 51.480469 372.941406 50.265625 373.613281 C 49.054688 374.285156 47.96875 375.148438 47.011719 376.214844 C 45.808594 377.507812 44.859375 378.90625 44.160156 380.417969 C 43.464844 381.929688 42.921875 383.460938 42.53125 385.015625 C 42.082031 386.707031 41.804688 388.355469 41.699219 389.960938 C 41.675781 390.261719 41.660156 390.5625 41.660156 390.863281 C 41.660156 392.117188 41.867188 393.34375 42.28125 394.546875 C 42.683594 395.613281 43.296875 396.507812 44.121094 397.226562 C 44.949219 397.949219 45.984375 398.308594 47.222656 398.308594 C 48.503906 398.308594 49.753906 397.941406 50.976562 397.207031 C 52.195312 396.476562 53.289062 395.570312 54.257812 394.492188 C 55.511719 393.039062 56.488281 391.503906 57.1875 389.886719 C 57.882812 388.269531 58.453125 386.621094 58.890625 384.9375 C 59.292969 383.375 59.542969 381.832031 59.648438 380.3125 L 59.648438 379.65625 C 59.648438 378.402344 59.429688 377.238281 58.988281 376.15625 Z M 58.988281 376.15625 "/>
<path style=" stroke:none;fill-rule:evenodd;fill:rgb(0%,0%,0%);fill-opacity:1;" d="M 45.835938 49.347656 C 45.554688 50.363281 45.066406 51.304688 44.382812 52.164062 C 43.699219 53.019531 42.882812 53.761719 41.941406 54.386719 C 40.921875 55.089844 39.832031 55.621094 38.675781 55.980469 C 37.519531 56.335938 36.371094 56.515625 35.234375 56.511719 L 29.476562 56.511719 L 27.054688 65.914062 C 26.976562 66.191406 26.9375 66.410156 26.9375 66.574219 C 26.9375 66.722656 26.972656 66.816406 27.035156 66.855469 C 27.21875 66.96875 27.574219 67.035156 28.101562 67.054688 C 28.632812 67.070312 29.199219 67.082031 29.808594 67.082031 C 30.167969 67.082031 30.351562 67.257812 30.351562 67.605469 L 30.351562 67.738281 L 30.273438 68.078125 C 30.128906 68.453125 29.878906 68.640625 29.515625 68.640625 C 27.902344 68.566406 26.28125 68.527344 24.652344 68.527344 C 23.011719 68.527344 21.371094 68.566406 19.730469 68.640625 C 19.382812 68.640625 19.195312 68.480469 19.167969 68.152344 L 19.167969 68 L 19.246094 67.683594 C 19.347656 67.269531 19.601562 67.070312 20 67.082031 C 20.609375 67.082031 21.183594 67.070312 21.726562 67.054688 C 22.269531 67.035156 22.667969 66.96875 22.925781 66.855469 C 23.171875 66.71875 23.359375 66.378906 23.488281 65.839844 L 28.933594 44.648438 C 29.011719 44.375 29.050781 44.160156 29.050781 44.011719 C 29.050781 43.859375 29.019531 43.769531 28.953125 43.746094 C 28.773438 43.632812 28.421875 43.566406 27.898438 43.542969 C 27.375 43.515625 26.804688 43.503906 26.183594 43.503906 C 25.820312 43.503906 25.640625 43.332031 25.640625 42.996094 L 25.640625 42.84375 L 25.757812 42.523438 C 25.835938 42.148438 26.074219 41.960938 26.472656 41.960938 L 38.898438 41.960938 C 40.035156 41.960938 41.089844 42.140625 42.066406 42.496094 C 43.042969 42.855469 43.878906 43.390625 44.578125 44.101562 C 45.210938 44.765625 45.65625 45.558594 45.914062 46.472656 C 45.992188 46.898438 46.027344 47.332031 46.027344 47.769531 C 46.027344 48.273438 45.964844 48.800781 45.835938 49.347656 Z M 41.707031 49.257812 C 41.929688 48.46875 42.078125 47.703125 42.152344 46.960938 L 42.152344 46.621094 C 42.152344 46.046875 41.992188 45.519531 41.667969 45.046875 C 41.242188 44.480469 40.675781 44.082031 39.964844 43.851562 C 39.253906 43.617188 38.484375 43.503906 37.65625 43.503906 L 34.011719 43.503906 C 33.355469 43.503906 32.960938 43.554688 32.832031 43.652344 C 32.703125 43.753906 32.566406 44.109375 32.421875 44.722656 L 29.730469 55.101562 L 34.574219 55.101562 C 35.414062 55.101562 36.253906 54.984375 37.09375 54.746094 C 37.933594 54.507812 38.722656 54.101562 39.460938 53.523438 C 40.117188 52.960938 40.605469 52.304688 40.921875 51.550781 C 41.238281 50.796875 41.5 50.03125 41.707031 49.257812 Z M 41.707031 49.257812 "/>
<path style=" stroke:none;fill-rule:evenodd;fill:rgb(0%,0%,0%);fill-opacity:1;" d="M 535.089844 401.550781 C 535.015625 401.929688 534.78125 402.117188 534.394531 402.117188 C 533.976562 402.117188 533.585938 402.164062 533.210938 402.257812 C 532.835938 402.351562 532.472656 402.511719 532.117188 402.734375 C 531.761719 402.960938 531.433594 403.234375 531.136719 403.554688 C 530.839844 403.875 530.566406 404.238281 530.320312 404.636719 L 516.191406 427.59375 C 516 427.945312 515.703125 428.113281 515.300781 428.101562 L 514.933594 428.101562 C 514.457031 428.101562 514.222656 427.902344 514.234375 427.5 L 511.8125 403.488281 C 511.761719 403.164062 511.710938 402.90625 511.65625 402.726562 C 511.605469 402.546875 511.527344 402.417969 511.425781 402.339844 C 511.246094 402.242188 510.957031 402.179688 510.5625 402.15625 C 510.167969 402.128906 509.71875 402.117188 509.214844 402.117188 C 509.023438 402.117188 508.878906 402.054688 508.789062 401.929688 C 508.710938 401.855469 508.671875 401.757812 508.671875 401.644531 C 508.671875 401.570312 508.691406 401.503906 508.730469 401.4375 L 508.789062 401.15625 C 508.828125 400.996094 508.914062 400.855469 509.050781 400.742188 C 509.1875 400.632812 509.351562 400.574219 509.546875 400.574219 C 510.785156 400.652344 512.039062 400.6875 513.304688 400.6875 C 513.5 400.6875 513.707031 400.671875 513.925781 400.648438 C 515.425781 400.652344 516.925781 400.625 518.421875 400.574219 C 518.601562 400.574219 518.765625 400.636719 518.90625 400.761719 C 518.957031 400.863281 518.984375 400.957031 518.984375 401.042969 C 518.984375 401.121094 518.964844 401.191406 518.925781 401.25 L 518.867188 401.53125 C 518.828125 401.707031 518.734375 401.851562 518.585938 401.957031 C 518.4375 402.0625 518.28125 402.117188 518.113281 402.117188 C 517.660156 402.117188 517.246094 402.136719 516.871094 402.171875 C 516.496094 402.207031 516.128906 402.3125 515.765625 402.472656 C 515.546875 402.585938 515.445312 402.773438 515.457031 403.035156 L 515.457031 403.167969 C 515.910156 406.503906 516.269531 409.851562 516.542969 413.21875 C 516.8125 416.585938 517.105469 419.773438 517.414062 422.78125 L 528.847656 404.183594 C 529.019531 403.921875 529.121094 403.644531 529.160156 403.355469 L 529.160156 403.261719 C 529.160156 403.074219 529.117188 402.90625 529.023438 402.753906 C 528.742188 402.332031 528.210938 402.117188 527.433594 402.117188 C 527.097656 402.117188 526.929688 401.945312 526.929688 401.609375 L 526.929688 401.472656 L 527.007812 401.136719 C 527.152344 400.761719 527.402344 400.574219 527.765625 400.574219 C 528.902344 400.625 530.042969 400.652344 531.195312 400.648438 C 531.351562 400.671875 531.5 400.6875 531.640625 400.6875 C 532.621094 400.6875 533.628906 400.652344 534.664062 400.574219 C 535.015625 400.574219 535.199219 400.742188 535.226562 401.082031 L 535.226562 401.230469 Z M 535.089844 401.550781 "/>
<path style="fill:none;stroke-width:15;stroke-linecap:round;stroke-linejoin:round;stroke:rgb(0%,0%,0%);stroke-opacity:1;stroke-miterlimit:10;" d="M 602.516346 2252.272457 C 905.889255 1386.904167 1678.586826 772.13252 2590.001286 671.032605 " transform="matrix(0.159779,0,0,-0.15965,0,460.2477)"/>
<path style="fill:none;stroke-width:15;stroke-linecap:round;stroke-linejoin:round;stroke:rgb(0%,0%,0%);stroke-opacity:1;stroke-miterlimit:10;" d="M 1040.938973 2129.616631 C 1051.720458 1825.949875 1130.39352 1528.546811 1271.11513 1259.208027 " transform="matrix(0.159779,0,0,-0.15965,0,460.2477)"/>
<path style="fill:none;stroke-width:15;stroke-linecap:round;stroke-linejoin:round;stroke:rgb(0%,0%,0%);stroke-opacity:1;stroke-miterlimit:10;" d="M 839.782369 2567.805975 C 1143.155278 1702.413218 1915.852849 1087.64157 2827.291757 986.541656 " transform="matrix(0.159779,0,0,-0.15965,0,460.2477)"/>
<path style="fill:none;stroke-width:15;stroke-linecap:round;stroke-linejoin:round;stroke:rgb(0%,0%,0%);stroke-opacity:1;stroke-miterlimit:10;" d="M 1590.110191 1502.929287 C 1614.26463 1266.401486 1712.642629 1043.624448 1871.162247 866.454923 " transform="matrix(0.159779,0,0,-0.15965,0,460.2477)"/>
<path style=" stroke:none;fill-rule:evenodd;fill:rgb(0%,0%,0%);fill-opacity:1;" d="M 498.851562 294.839844 C 498.816406 295.003906 498.734375 295.144531 498.609375 295.265625 C 498.488281 295.382812 498.335938 295.445312 498.15625 295.441406 L 497.785156 295.441406 C 497.425781 295.445312 497.246094 295.289062 497.246094 294.992188 L 497.246094 294.859375 C 497.347656 294.292969 497.4375 293.710938 497.515625 293.101562 C 497.59375 292.492188 497.65625 291.925781 497.710938 291.398438 L 497.710938 290.796875 C 497.710938 290.511719 497.695312 290.246094 497.671875 290.007812 C 497.617188 289.621094 497.527344 289.328125 497.398438 289.125 C 497.050781 288.675781 496.5625 288.371094 495.9375 288.210938 C 495.308594 288.054688 494.609375 287.980469 493.832031 287.976562 L 491.683594 287.976562 C 491.035156 287.980469 490.636719 288.015625 490.480469 288.089844 C 490.363281 288.203125 490.234375 288.578125 490.09375 289.21875 L 484.683594 310.164062 C 484.632812 310.351562 484.605469 310.503906 484.605469 310.613281 C 484.605469 310.867188 484.683594 311.015625 484.839844 311.066406 C 485.203125 311.179688 485.785156 311.253906 486.585938 311.285156 C 487.386719 311.316406 488.1875 311.332031 488.988281 311.328125 C 489.347656 311.332031 489.53125 311.480469 489.53125 311.78125 C 489.53125 311.855469 489.519531 311.9375 489.492188 312.027344 L 489.414062 312.308594 C 489.335938 312.699219 489.085938 312.890625 488.65625 312.890625 C 486.539062 312.816406 484.398438 312.777344 482.242188 312.777344 C 480.097656 312.777344 477.941406 312.816406 475.769531 312.890625 C 475.574219 312.890625 475.433594 312.832031 475.34375 312.722656 C 475.253906 312.632812 475.207031 312.539062 475.207031 312.4375 C 475.207031 312.363281 475.21875 312.289062 475.246094 312.214844 L 475.324219 311.929688 C 475.363281 311.769531 475.453125 311.628906 475.59375 311.507812 C 475.738281 311.390625 475.898438 311.332031 476.078125 311.328125 C 476.867188 311.332031 477.675781 311.316406 478.503906 311.285156 C 479.328125 311.253906 479.933594 311.179688 480.3125 311.066406 C 480.695312 310.953125 480.949219 310.628906 481.078125 310.089844 L 486.488281 289.125 C 486.617188 288.6875 486.679688 288.351562 486.679688 288.125 L 486.679688 288.050781 C 486.628906 288 486.273438 287.980469 485.613281 287.976562 L 483.464844 287.976562 C 482.6875 287.980469 481.933594 288.058594 481.195312 288.222656 C 480.460938 288.382812 479.800781 288.699219 479.21875 289.160156 C 478.949219 289.375 478.6875 289.683594 478.441406 290.082031 C 478.199219 290.484375 477.957031 290.945312 477.714844 291.464844 C 477.476562 291.984375 477.25 292.542969 477.027344 293.128906 C 476.808594 293.71875 476.589844 294.308594 476.371094 294.894531 C 476.242188 295.273438 476 295.457031 475.652344 295.441406 L 475.324219 295.441406 C 475.128906 295.445312 474.988281 295.378906 474.894531 295.253906 C 474.820312 295.179688 474.78125 295.089844 474.78125 294.992188 C 474.78125 294.917969 474.800781 294.839844 474.839844 294.765625 C 475.175781 293.5 475.59375 292.210938 476.097656 290.890625 C 476.601562 289.574219 477.082031 288.265625 477.53125 286.960938 C 477.664062 286.585938 477.90625 286.398438 478.269531 286.398438 L 499.628906 286.398438 C 499.992188 286.398438 500.171875 286.554688 500.171875 286.867188 L 500.171875 287 Z M 498.851562 294.839844 "/>
<path style=" stroke:none;fill-rule:evenodd;fill:rgb(0%,0%,0%);fill-opacity:1;" d="M 506.074219 318.351562 C 504.585938 318.308594 503.132812 318.289062 501.722656 318.289062 C 500.3125 318.289062 498.863281 318.308594 497.371094 318.351562 L 497.371094 317.445312 L 498.210938 317.445312 C 498.476562 317.445312 498.730469 317.445312 498.964844 317.4375 C 499.199219 317.429688 499.421875 317.414062 499.632812 317.382812 C 499.84375 317.355469 500.027344 317.328125 500.179688 317.300781 C 500.308594 317.277344 500.417969 317.214844 500.5 317.105469 C 500.585938 316.996094 500.628906 316.875 500.628906 316.742188 L 500.628906 304.875 C 500.226562 305.050781 499.726562 305.183594 499.132812 305.273438 C 498.542969 305.367188 497.894531 305.414062 497.191406 305.410156 L 497.191406 304.515625 C 498.160156 304.515625 499.058594 304.414062 499.882812 304.207031 C 500.703125 304 501.414062 303.613281 502.015625 303.042969 L 502.390625 303.042969 C 502.65625 303.042969 502.792969 303.160156 502.792969 303.390625 L 502.792969 316.742188 C 502.792969 316.882812 502.832031 317.003906 502.914062 317.109375 C 502.996094 317.214844 503.113281 317.277344 503.269531 317.300781 C 503.394531 317.328125 503.5625 317.355469 503.765625 317.382812 C 503.96875 317.414062 504.195312 317.429688 504.449219 317.4375 C 504.707031 317.445312 504.953125 317.445312 505.199219 317.445312 L 506.074219 317.445312 Z M 506.074219 318.351562 "/>
<path style=" stroke:none;fill-rule:evenodd;fill:rgb(0%,0%,0%);fill-opacity:1;" d="M 458.308594 345.214844 C 458.269531 345.375 458.191406 345.515625 458.066406 345.636719 C 457.945312 345.757812 457.792969 345.816406 457.609375 345.8125 L 457.242188 345.8125 C 456.882812 345.816406 456.699219 345.664062 456.699219 345.363281 L 456.699219 345.234375 C 456.804688 344.667969 456.894531 344.082031 456.972656 343.472656 C 457.046875 342.867188 457.113281 342.296875 457.164062 341.773438 L 457.164062 341.171875 C 457.164062 340.882812 457.152344 340.617188 457.125 340.378906 C 457.074219 339.992188 456.984375 339.699219 456.855469 339.5 C 456.507812 339.046875 456.019531 338.746094 455.390625 338.585938 C 454.765625 338.429688 454.066406 338.351562 453.289062 338.347656 L 451.136719 338.347656 C 450.492188 338.351562 450.089844 338.386719 449.933594 338.464844 C 449.820312 338.574219 449.691406 338.953125 449.546875 339.589844 L 444.140625 360.535156 C 444.089844 360.726562 444.0625 360.875 444.0625 360.988281 C 444.0625 361.238281 444.140625 361.390625 444.292969 361.4375 C 444.65625 361.554688 445.238281 361.625 446.039062 361.65625 C 446.839844 361.6875 447.640625 361.703125 448.441406 361.703125 C 448.804688 361.703125 448.988281 361.855469 448.988281 362.152344 C 448.988281 362.230469 448.972656 362.3125 448.949219 362.398438 L 448.871094 362.679688 C 448.792969 363.070312 448.539062 363.261719 448.113281 363.261719 C 445.996094 363.1875 443.855469 363.148438 441.699219 363.148438 C 439.554688 363.148438 437.394531 363.1875 435.226562 363.261719 C 435.03125 363.261719 434.890625 363.207031 434.796875 363.09375 C 434.707031 363.007812 434.664062 362.914062 434.664062 362.8125 C 434.664062 362.738281 434.675781 362.664062 434.703125 362.585938 L 434.777344 362.304688 C 434.816406 362.140625 434.910156 362.003906 435.050781 361.882812 C 435.191406 361.761719 435.355469 361.703125 435.535156 361.703125 C 436.324219 361.703125 437.132812 361.6875 437.957031 361.65625 C 438.785156 361.625 439.390625 361.554688 439.769531 361.441406 C 440.152344 361.328125 440.40625 361.003906 440.535156 360.460938 L 445.941406 339.5 C 446.070312 339.0625 446.136719 338.726562 446.136719 338.5 L 446.136719 338.425781 C 446.085938 338.375 445.730469 338.351562 445.070312 338.347656 L 442.917969 338.347656 C 442.144531 338.351562 441.390625 338.433594 440.652344 338.59375 C 439.917969 338.757812 439.257812 339.070312 438.675781 339.535156 C 438.402344 339.746094 438.144531 340.058594 437.898438 340.457031 C 437.65625 340.859375 437.414062 341.316406 437.171875 341.839844 C 436.933594 342.359375 436.703125 342.914062 436.484375 343.503906 C 436.265625 344.09375 436.046875 344.679688 435.824219 345.269531 C 435.695312 345.648438 435.457031 345.828125 435.109375 345.8125 L 434.777344 345.8125 C 434.585938 345.816406 434.445312 345.753906 434.351562 345.625 C 434.273438 345.550781 434.234375 345.460938 434.234375 345.363281 C 434.234375 345.289062 434.253906 345.214844 434.292969 345.136719 C 434.628906 343.871094 435.050781 342.582031 435.554688 341.265625 C 436.058594 339.949219 436.539062 338.640625 436.988281 337.332031 C 437.117188 336.960938 437.363281 336.769531 437.726562 336.769531 L 459.082031 336.769531 C 459.449219 336.769531 459.628906 336.929688 459.628906 337.242188 L 459.628906 337.371094 Z M 458.308594 345.214844 "/>
<path style=" stroke:none;fill-rule:evenodd;fill:rgb(0%,0%,0%);fill-opacity:1;" d="M 466.441406 368.726562 L 456.546875 368.726562 L 456.546875 368.144531 C 456.546875 368.105469 456.574219 368.039062 456.621094 367.957031 L 460.59375 364.101562 C 461.066406 363.640625 461.542969 363.164062 462.023438 362.679688 C 462.507812 362.195312 462.9375 361.703125 463.316406 361.195312 C 463.699219 360.691406 464 360.171875 464.230469 359.632812 C 464.457031 359.097656 464.570312 358.53125 464.570312 357.941406 C 464.570312 357.445312 464.496094 356.980469 464.351562 356.546875 C 464.207031 356.117188 463.996094 355.738281 463.71875 355.410156 C 463.441406 355.085938 463.101562 354.820312 462.683594 354.621094 C 462.273438 354.421875 461.792969 354.320312 461.253906 354.320312 C 460.441406 354.320312 459.726562 354.539062 459.105469 354.96875 C 458.488281 355.402344 458.074219 355.875 457.871094 356.394531 C 457.832031 356.410156 457.898438 356.417969 458.066406 356.414062 L 458.273438 356.414062 C 458.515625 356.464844 458.726562 356.542969 458.90625 356.644531 C 459.082031 356.746094 459.234375 356.886719 459.355469 357.0625 C 459.476562 357.242188 459.539062 357.460938 459.539062 357.710938 C 459.539062 358.132812 459.382812 358.457031 459.078125 358.679688 C 458.769531 358.90625 458.425781 359.015625 458.042969 359.015625 C 457.679688 359.015625 457.339844 358.90625 457.023438 358.679688 C 456.707031 358.457031 456.546875 358.132812 456.546875 357.710938 C 456.546875 357.121094 456.679688 356.5625 456.9375 356.039062 C 457.195312 355.511719 457.550781 355.054688 457.996094 354.667969 C 458.441406 354.28125 458.964844 353.976562 459.574219 353.753906 C 460.183594 353.527344 460.828125 353.414062 461.507812 353.414062 C 462.351562 353.414062 463.121094 353.527344 463.824219 353.746094 C 464.523438 353.96875 465.121094 354.285156 465.617188 354.699219 C 466.109375 355.113281 466.496094 355.59375 466.777344 356.136719 C 467.058594 356.683594 467.195312 357.285156 467.195312 357.941406 C 467.195312 358.671875 467.007812 359.347656 466.636719 359.960938 C 466.265625 360.574219 465.800781 361.136719 465.25 361.648438 C 464.699219 362.164062 464.113281 362.644531 463.492188 363.097656 C 462.875 363.550781 462.316406 363.992188 461.8125 364.417969 L 459.015625 366.765625 L 462.675781 366.765625 C 463.183594 366.765625 463.660156 366.765625 464.101562 366.757812 C 464.546875 366.75 464.917969 366.734375 465.226562 366.714844 C 465.535156 366.691406 465.691406 366.679688 465.699219 366.671875 C 465.765625 366.621094 465.828125 366.523438 465.882812 366.378906 C 465.9375 366.230469 465.992188 366.054688 466.039062 365.855469 C 466.089844 365.65625 466.140625 365.453125 466.1875 365.246094 C 466.234375 365.039062 466.28125 364.8125 466.320312 364.566406 L 467.21875 364.566406 Z M 466.441406 368.726562 "/>
<path style=" stroke:none;fill-rule:evenodd;fill:rgb(0%,0%,0%);fill-opacity:1;" d="M 457.3125 194.144531 C 457.273438 194.308594 457.191406 194.449219 457.070312 194.570312 C 456.949219 194.6875 456.792969 194.75 456.613281 194.746094 L 456.246094 194.746094 C 455.882812 194.75 455.703125 194.59375 455.703125 194.292969 L 455.703125 194.164062 C 455.804688 193.597656 455.894531 193.015625 455.972656 192.40625 C 456.050781 191.796875 456.117188 191.230469 456.167969 190.703125 L 456.167969 190.101562 C 456.167969 189.816406 456.15625 189.550781 456.128906 189.308594 C 456.078125 188.925781 455.988281 188.628906 455.855469 188.429688 C 455.507812 187.980469 455.023438 187.675781 454.394531 187.515625 C 453.769531 187.359375 453.066406 187.28125 452.292969 187.28125 L 450.140625 187.28125 C 449.496094 187.28125 449.09375 187.316406 448.9375 187.394531 C 448.824219 187.507812 448.695312 187.882812 448.550781 188.523438 L 443.144531 209.46875 C 443.09375 209.65625 443.066406 209.808594 443.066406 209.917969 C 443.066406 210.171875 443.144531 210.320312 443.296875 210.371094 C 443.660156 210.484375 444.242188 210.558594 445.042969 210.585938 C 445.84375 210.621094 446.644531 210.632812 447.445312 210.632812 C 447.808594 210.632812 447.988281 210.785156 447.988281 211.085938 C 447.988281 211.160156 447.976562 211.242188 447.949219 211.328125 L 447.871094 211.609375 C 447.796875 212 447.542969 212.195312 447.117188 212.195312 C 444.996094 212.117188 442.859375 212.082031 440.699219 212.082031 C 438.554688 212.082031 436.398438 212.117188 434.226562 212.195312 C 434.035156 212.195312 433.890625 212.136719 433.800781 212.023438 C 433.710938 211.9375 433.664062 211.84375 433.664062 211.742188 C 433.664062 211.667969 433.679688 211.59375 433.703125 211.515625 L 433.78125 211.234375 C 433.820312 211.074219 433.910156 210.933594 434.054688 210.8125 C 434.195312 210.695312 434.355469 210.632812 434.539062 210.632812 C 435.324219 210.632812 436.132812 210.621094 436.960938 210.585938 C 437.789062 210.558594 438.390625 210.484375 438.773438 210.371094 C 439.15625 210.257812 439.410156 209.933594 439.539062 209.390625 L 444.945312 188.429688 C 445.074219 187.992188 445.140625 187.65625 445.140625 187.429688 L 445.140625 187.355469 C 445.085938 187.304688 444.734375 187.28125 444.074219 187.28125 L 441.921875 187.28125 C 441.148438 187.28125 440.390625 187.363281 439.65625 187.527344 C 438.917969 187.6875 438.257812 188 437.675781 188.464844 C 437.40625 188.679688 437.148438 188.988281 436.902344 189.386719 C 436.65625 189.789062 436.414062 190.25 436.175781 190.769531 C 435.9375 191.289062 435.707031 191.84375 435.488281 192.433594 C 435.269531 193.023438 435.046875 193.613281 434.828125 194.199219 C 434.699219 194.578125 434.460938 194.761719 434.109375 194.746094 L 433.78125 194.746094 C 433.589844 194.75 433.445312 194.683594 433.355469 194.554688 C 433.277344 194.484375 433.238281 194.394531 433.238281 194.292969 C 433.238281 194.222656 433.257812 194.144531 433.296875 194.066406 C 433.632812 192.804688 434.054688 191.511719 434.558594 190.195312 C 435.0625 188.878906 435.539062 187.570312 435.992188 186.265625 C 436.121094 185.890625 436.367188 185.703125 436.726562 185.703125 L 458.085938 185.703125 C 458.449219 185.703125 458.628906 185.859375 458.628906 186.171875 L 458.628906 186.300781 Z M 457.3125 194.144531 "/>
<path style=" stroke:none;fill-rule:evenodd;fill:rgb(0%,0%,0%);fill-opacity:1;" d="M 464.542969 217.65625 C 463.050781 217.613281 461.601562 217.59375 460.1875 217.59375 C 458.78125 217.59375 457.328125 217.613281 455.839844 217.65625 L 455.839844 216.75 L 456.679688 216.75 C 456.945312 216.75 457.195312 216.746094 457.429688 216.742188 C 457.667969 216.734375 457.890625 216.714844 458.097656 216.6875 C 458.308594 216.660156 458.492188 216.632812 458.644531 216.601562 C 458.777344 216.582031 458.886719 216.519531 458.96875 216.410156 C 459.054688 216.300781 459.097656 216.179688 459.097656 216.042969 L 459.097656 204.179688 C 458.691406 204.355469 458.191406 204.488281 457.601562 204.578125 C 457.007812 204.671875 456.363281 204.714844 455.65625 204.714844 L 455.65625 203.820312 C 456.628906 203.820312 457.527344 203.71875 458.347656 203.511719 C 459.171875 203.304688 459.882812 202.914062 460.484375 202.347656 L 460.859375 202.347656 C 461.125 202.347656 461.257812 202.460938 461.257812 202.695312 L 461.257812 216.042969 C 461.257812 216.183594 461.300781 216.308594 461.382812 216.414062 C 461.464844 216.519531 461.582031 216.582031 461.734375 216.601562 C 461.863281 216.632812 462.03125 216.660156 462.234375 216.6875 C 462.433594 216.714844 462.664062 216.734375 462.921875 216.742188 C 463.171875 216.746094 463.421875 216.75 463.664062 216.75 L 464.542969 216.75 Z M 464.542969 217.65625 "/>
<path style="fill:none;stroke-width:0.4824;stroke-linecap:round;stroke-linejoin:round;stroke:rgb(0%,0%,0%);stroke-opacity:1;stroke-miterlimit:10;" d="M 16.088457 12.972975 L 23.854398 9.595202 " transform="matrix(3.195543,0.000000431551,-0.00000182006,-3.192977,426.057413,231.266159)"/>
<path style="fill:none;stroke-width:0.4824;stroke-linecap:round;stroke-linejoin:round;stroke:rgb(0%,0%,0%);stroke-opacity:1;stroke-miterlimit:10;" d="M 23.854398 9.595202 L 16.088453 6.21865 " transform="matrix(3.195543,0.000000431551,-0.00000182006,-3.192977,426.057413,231.266159)"/>
<path style=" stroke:none;fill-rule:evenodd;fill:rgb(0%,0%,0%);fill-opacity:1;" d="M 477.46875 190.617188 C 477.042969 190.617188 476.695312 190.273438 476.695312 189.84375 C 476.695312 189.417969 477.042969 189.074219 477.46875 189.074219 C 477.890625 189.074219 478.238281 189.417969 478.238281 189.84375 C 478.238281 190.273438 477.890625 190.617188 477.46875 190.617188 Z M 477.46875 190.617188 "/>
<path style=" stroke:none;fill-rule:evenodd;fill:rgb(0%,0%,0%);fill-opacity:1;" d="M 502.285156 201.398438 C 501.859375 201.398438 501.515625 201.050781 501.515625 200.628906 C 501.515625 200.203125 501.859375 199.855469 502.285156 199.855469 C 502.710938 199.855469 503.058594 200.203125 503.058594 200.628906 C 503.058594 201.050781 502.710938 201.398438 502.285156 201.398438 Z M 502.285156 201.398438 "/>
<path style=" stroke:none;fill-rule:evenodd;fill:rgb(0%,0%,0%);fill-opacity:1;" d="M 477.46875 212.179688 C 477.042969 212.179688 476.695312 211.835938 476.695312 211.410156 C 476.695312 210.984375 477.042969 210.640625 477.46875 210.640625 C 477.890625 210.640625 478.238281 210.984375 478.238281 211.410156 C 478.238281 211.835938 477.890625 212.179688 477.46875 212.179688 Z M 477.46875 212.179688 "/>
<path style=" stroke:none;fill-rule:evenodd;fill:rgb(0%,0%,0%);fill-opacity:1;" d="M 538.605469 194.144531 C 538.566406 194.308594 538.484375 194.449219 538.363281 194.570312 C 538.238281 194.6875 538.085938 194.75 537.90625 194.746094 L 537.539062 194.746094 C 537.179688 194.75 536.996094 194.59375 536.996094 194.292969 L 536.996094 194.164062 C 537.097656 193.597656 537.1875 193.015625 537.269531 192.40625 C 537.34375 191.796875 537.410156 191.230469 537.460938 190.703125 L 537.460938 190.101562 C 537.460938 189.816406 537.449219 189.550781 537.421875 189.308594 C 537.371094 188.925781 537.28125 188.628906 537.152344 188.429688 C 536.800781 187.980469 536.316406 187.675781 535.691406 187.515625 C 535.0625 187.359375 534.359375 187.28125 533.585938 187.28125 L 531.433594 187.28125 C 530.789062 187.28125 530.390625 187.316406 530.230469 187.394531 C 530.117188 187.507812 529.984375 187.882812 529.84375 188.523438 L 524.4375 209.46875 C 524.382812 209.65625 524.359375 209.808594 524.359375 209.917969 C 524.359375 210.171875 524.4375 210.320312 524.59375 210.371094 C 524.953125 210.484375 525.535156 210.558594 526.335938 210.585938 C 527.140625 210.621094 527.9375 210.632812 528.738281 210.632812 C 529.101562 210.632812 529.28125 210.785156 529.28125 211.085938 C 529.28125 211.160156 529.269531 211.242188 529.246094 211.328125 L 529.167969 211.609375 C 529.089844 212 528.835938 212.195312 528.410156 212.195312 C 526.292969 212.117188 524.152344 212.082031 521.992188 212.082031 C 519.851562 212.082031 517.691406 212.117188 515.519531 212.195312 C 515.328125 212.195312 515.1875 212.136719 515.09375 212.023438 C 515.003906 211.9375 514.960938 211.84375 514.960938 211.742188 C 514.960938 211.667969 514.972656 211.59375 515 211.515625 L 515.074219 211.234375 C 515.113281 211.074219 515.203125 210.933594 515.347656 210.8125 C 515.492188 210.695312 515.652344 210.632812 515.832031 210.632812 C 516.617188 210.632812 517.425781 210.621094 518.253906 210.585938 C 519.082031 210.558594 519.6875 210.484375 520.066406 210.371094 C 520.449219 210.257812 520.703125 209.933594 520.832031 209.390625 L 526.238281 188.429688 C 526.367188 187.992188 526.433594 187.65625 526.433594 187.429688 L 526.433594 187.355469 C 526.382812 187.304688 526.027344 187.28125 525.367188 187.28125 L 523.214844 187.28125 C 522.441406 187.28125 521.683594 187.363281 520.949219 187.527344 C 520.214844 187.6875 519.550781 188 518.972656 188.464844 C 518.699219 188.679688 518.441406 188.988281 518.195312 189.386719 C 517.953125 189.789062 517.707031 190.25 517.46875 190.769531 C 517.230469 191.289062 517 191.84375 516.78125 192.433594 C 516.5625 193.023438 516.339844 193.613281 516.125 194.199219 C 515.992188 194.578125 515.753906 194.761719 515.40625 194.746094 L 515.074219 194.746094 C 514.882812 194.75 514.738281 194.683594 514.648438 194.554688 C 514.570312 194.484375 514.53125 194.394531 514.53125 194.292969 C 514.53125 194.222656 514.550781 194.144531 514.589844 194.066406 C 514.929688 192.804688 515.347656 191.511719 515.851562 190.195312 C 516.355469 188.878906 516.832031 187.570312 517.285156 186.265625 C 517.414062 185.890625 517.660156 185.703125 518.023438 185.703125 L 539.382812 185.703125 C 539.742188 185.703125 539.925781 185.859375 539.925781 186.171875 L 539.925781 186.300781 Z M 538.605469 194.144531 "/>
<path style=" stroke:none;fill-rule:evenodd;fill:rgb(0%,0%,0%);fill-opacity:1;" d="M 546.738281 217.65625 L 536.84375 217.65625 L 536.84375 217.078125 C 536.84375 217.035156 536.871094 216.972656 536.917969 216.886719 L 540.890625 213.035156 C 541.363281 212.570312 541.839844 212.097656 542.320312 211.613281 C 542.804688 211.128906 543.234375 210.632812 543.613281 210.128906 C 543.996094 209.621094 544.300781 209.101562 544.527344 208.5625 C 544.753906 208.027344 544.867188 207.464844 544.867188 206.875 C 544.867188 206.375 544.792969 205.910156 544.648438 205.480469 C 544.503906 205.046875 544.292969 204.667969 544.015625 204.34375 C 543.738281 204.015625 543.394531 203.753906 542.980469 203.550781 C 542.570312 203.351562 542.089844 203.253906 541.546875 203.25 C 540.738281 203.253906 540.023438 203.46875 539.402344 203.898438 C 538.785156 204.332031 538.371094 204.808594 538.167969 205.324219 C 538.128906 205.339844 538.195312 205.347656 538.363281 205.347656 L 538.570312 205.347656 C 538.816406 205.398438 539.023438 205.472656 539.203125 205.574219 C 539.382812 205.675781 539.53125 205.816406 539.652344 205.996094 C 539.773438 206.175781 539.835938 206.390625 539.835938 206.640625 C 539.835938 207.0625 539.679688 207.386719 539.375 207.609375 C 539.066406 207.835938 538.71875 207.949219 538.339844 207.949219 C 537.976562 207.949219 537.636719 207.835938 537.320312 207.609375 C 537.003906 207.386719 536.84375 207.0625 536.84375 206.640625 C 536.84375 206.054688 536.976562 205.496094 537.234375 204.96875 C 537.492188 204.441406 537.84375 203.984375 538.292969 203.601562 C 538.734375 203.214844 539.261719 202.910156 539.871094 202.683594 C 540.480469 202.460938 541.121094 202.347656 541.804688 202.347656 C 542.648438 202.347656 543.417969 202.457031 544.121094 202.679688 C 544.820312 202.898438 545.417969 203.21875 545.914062 203.632812 C 546.40625 204.046875 546.792969 204.523438 547.074219 205.070312 C 547.351562 205.613281 547.492188 206.214844 547.492188 206.875 C 547.492188 207.605469 547.304688 208.277344 546.933594 208.890625 C 546.5625 209.503906 546.097656 210.070312 545.546875 210.582031 C 544.996094 211.09375 544.410156 211.574219 543.789062 212.027344 C 543.171875 212.480469 542.609375 212.921875 542.105469 213.347656 L 539.3125 215.695312 L 542.96875 215.695312 C 543.480469 215.699219 543.957031 215.695312 544.398438 215.6875 C 544.839844 215.679688 545.214844 215.667969 545.523438 215.644531 C 545.832031 215.625 545.988281 215.609375 545.996094 215.601562 C 546.0625 215.554688 546.125 215.457031 546.179688 215.308594 C 546.234375 215.160156 546.289062 214.988281 546.335938 214.789062 C 546.386719 214.585938 546.433594 214.382812 546.484375 214.175781 C 546.53125 213.96875 546.578125 213.742188 546.617188 213.496094 L 547.515625 213.496094 Z M 546.738281 217.65625 "/>
<path style=" stroke:none;fill-rule:evenodd;fill:rgb(0%,0%,0%);fill-opacity:1;" d="M 178.886719 110.351562 C 176.945312 110.292969 175.054688 110.261719 173.21875 110.261719 C 171.382812 110.261719 169.492188 110.292969 167.550781 110.351562 L 167.550781 109.03125 L 168.644531 109.03125 C 168.992188 109.035156 169.320312 109.027344 169.625 109.019531 C 169.933594 109.007812 170.222656 108.984375 170.496094 108.941406 C 170.773438 108.902344 171.007812 108.859375 171.207031 108.816406 C 171.378906 108.789062 171.519531 108.695312 171.628906 108.535156 C 171.738281 108.375 171.792969 108.199219 171.792969 108.003906 L 171.792969 90.699219 C 171.265625 90.953125 170.617188 91.148438 169.847656 91.285156 C 169.078125 91.417969 168.234375 91.480469 167.316406 91.480469 L 167.316406 90.175781 C 168.582031 90.175781 169.75 90.027344 170.820312 89.726562 C 171.890625 89.421875 172.816406 88.855469 173.597656 88.027344 L 174.089844 88.027344 C 174.4375 88.027344 174.609375 88.195312 174.609375 88.535156 L 174.609375 108.003906 C 174.609375 108.207031 174.664062 108.386719 174.769531 108.542969 C 174.875 108.695312 175.027344 108.789062 175.230469 108.816406 C 175.398438 108.859375 175.613281 108.902344 175.878906 108.941406 C 176.140625 108.984375 176.441406 109.007812 176.773438 109.019531 C 177.105469 109.027344 177.429688 109.035156 177.746094 109.03125 L 178.886719 109.03125 Z M 178.886719 110.351562 "/>
<path style=" stroke:none;fill-rule:evenodd;fill:rgb(0%,0%,0%);fill-opacity:1;" d="M 267.210938 210.359375 L 254.332031 210.359375 L 254.332031 209.515625 C 254.332031 209.457031 254.363281 209.363281 254.425781 209.238281 L 259.601562 203.621094 C 260.214844 202.945312 260.832031 202.253906 261.460938 201.546875 C 262.089844 200.839844 262.648438 200.121094 263.144531 199.382812 C 263.640625 198.644531 264.035156 197.886719 264.332031 197.101562 C 264.628906 196.320312 264.777344 195.496094 264.777344 194.636719 C 264.777344 193.914062 264.679688 193.234375 264.492188 192.605469 C 264.300781 191.976562 264.027344 191.421875 263.667969 190.945312 C 263.308594 190.46875 262.859375 190.085938 262.324219 189.792969 C 261.785156 189.5 261.164062 189.355469 260.457031 189.351562 C 259.402344 189.355469 258.46875 189.667969 257.664062 190.300781 C 256.855469 190.929688 256.320312 191.625 256.054688 192.378906 C 256.003906 192.398438 256.089844 192.414062 256.308594 192.410156 L 256.578125 192.410156 C 256.894531 192.484375 257.167969 192.59375 257.402344 192.742188 C 257.632812 192.890625 257.828125 193.09375 257.988281 193.359375 C 258.144531 193.617188 258.222656 193.933594 258.222656 194.300781 C 258.222656 194.914062 258.023438 195.386719 257.621094 195.714844 C 257.222656 196.042969 256.773438 196.203125 256.277344 196.203125 C 255.804688 196.203125 255.359375 196.042969 254.949219 195.714844 C 254.535156 195.386719 254.332031 194.914062 254.332031 194.300781 C 254.332031 193.441406 254.5 192.625 254.835938 191.859375 C 255.175781 191.089844 255.632812 190.425781 256.214844 189.859375 C 256.792969 189.300781 257.480469 188.855469 258.269531 188.527344 C 259.0625 188.199219 259.902344 188.035156 260.789062 188.035156 C 261.882812 188.035156 262.890625 188.199219 263.804688 188.519531 C 264.714844 188.84375 265.492188 189.304688 266.136719 189.910156 C 266.78125 190.511719 267.285156 191.210938 267.648438 192.003906 C 268.011719 192.796875 268.195312 193.675781 268.195312 194.636719 C 268.195312 195.703125 267.953125 196.683594 267.464844 197.578125 C 266.980469 198.476562 266.378906 199.296875 265.664062 200.042969 C 264.945312 200.789062 264.183594 201.496094 263.375 202.15625 C 262.570312 202.816406 261.835938 203.457031 261.183594 204.082031 L 257.542969 207.503906 L 262.308594 207.503906 C 262.972656 207.507812 263.59375 207.5 264.167969 207.492188 C 264.742188 207.480469 265.230469 207.460938 265.628906 207.429688 C 266.03125 207.398438 266.238281 207.378906 266.246094 207.367188 C 266.332031 207.296875 266.410156 207.152344 266.484375 206.9375 C 266.558594 206.722656 266.628906 206.46875 266.691406 206.175781 C 266.753906 205.886719 266.816406 205.589844 266.882812 205.285156 C 266.945312 204.984375 267.003906 204.65625 267.054688 204.296875 L 268.226562 204.296875 Z M 267.210938 210.359375 "/>
<path style=" stroke:none;fill-rule:evenodd;fill:rgb(0%,0%,0%);fill-opacity:1;" d="M 197.996094 273.203125 C 197.996094 274.082031 197.800781 274.929688 197.410156 275.738281 C 197.019531 276.546875 196.5 277.238281 195.84375 277.808594 C 195.105469 278.453125 194.289062 278.933594 193.398438 279.246094 C 192.507812 279.558594 191.578125 279.714844 190.605469 279.714844 C 189.730469 279.714844 188.875 279.589844 188.042969 279.34375 C 187.210938 279.097656 186.457031 278.746094 185.789062 278.285156 C 185.117188 277.824219 184.582031 277.261719 184.179688 276.589844 C 183.78125 275.917969 183.578125 275.148438 183.578125 274.277344 C 183.578125 273.621094 183.796875 273.132812 184.238281 272.8125 C 184.675781 272.488281 185.136719 272.328125 185.621094 272.328125 C 186.128906 272.328125 186.597656 272.488281 187.039062 272.8125 C 187.476562 273.132812 187.695312 273.621094 187.695312 274.277344 C 187.695312 274.667969 187.617188 274.992188 187.464844 275.253906 C 187.3125 275.515625 187.117188 275.730469 186.878906 275.90625 C 186.640625 276.082031 186.371094 276.1875 186.0625 276.226562 C 185.90625 276.269531 185.757812 276.289062 185.621094 276.289062 C 185.484375 276.289062 185.464844 276.300781 185.558594 276.320312 C 185.882812 276.894531 186.527344 277.402344 187.488281 277.839844 C 188.449219 278.28125 189.488281 278.5 190.605469 278.5 C 191.132812 278.5 191.625 278.371094 192.085938 278.109375 C 192.542969 277.847656 192.929688 277.5 193.234375 277.058594 C 193.613281 276.484375 193.871094 275.871094 194.007812 275.214844 C 194.144531 274.5625 194.214844 273.890625 194.214844 273.203125 C 194.214844 272.496094 194.144531 271.820312 194.007812 271.167969 C 193.871094 270.519531 193.613281 269.917969 193.234375 269.363281 C 192.917969 268.914062 192.53125 268.550781 192.078125 268.273438 C 191.625 267.996094 191.132812 267.859375 190.605469 267.859375 L 188.3125 267.859375 C 188.003906 267.859375 187.84375 267.714844 187.820312 267.429688 L 187.820312 267.261719 C 187.820312 267.136719 187.859375 267.042969 187.929688 266.96875 C 188.027344 266.878906 188.148438 266.832031 188.296875 266.828125 C 188.601562 266.789062 188.917969 266.769531 189.246094 266.769531 C 189.5625 266.769531 189.875 266.75 190.179688 266.707031 C 190.75 266.667969 191.242188 266.492188 191.664062 266.179688 C 192.089844 265.867188 192.441406 265.46875 192.726562 264.980469 C 193.011719 264.496094 193.226562 263.933594 193.375 263.300781 C 193.523438 262.664062 193.597656 262.011719 193.597656 261.347656 C 193.597656 260.859375 193.542969 260.390625 193.4375 259.949219 C 193.332031 259.511719 193.136719 259.128906 192.851562 258.796875 C 192.261719 258.125 191.511719 257.792969 190.605469 257.800781 C 189.636719 257.800781 188.746094 257.984375 187.941406 258.347656 C 187.132812 258.710938 186.589844 259.101562 186.316406 259.519531 C 186.242188 259.53125 186.28125 259.535156 186.429688 259.535156 C 186.808594 259.535156 187.167969 259.652344 187.503906 259.875 C 188.011719 260.171875 188.261719 260.671875 188.261719 261.378906 C 188.261719 261.976562 188.070312 262.421875 187.6875 262.722656 C 187.300781 263.027344 186.871094 263.175781 186.398438 263.175781 C 185.933594 263.175781 185.496094 263.027344 185.089844 262.730469 C 184.683594 262.433594 184.480469 261.984375 184.480469 261.378906 C 184.480469 260.632812 184.660156 259.972656 185.019531 259.398438 C 185.378906 258.828125 185.839844 258.335938 186.402344 257.925781 C 186.96875 257.519531 187.621094 257.203125 188.359375 256.988281 C 189.097656 256.773438 189.847656 256.664062 190.605469 256.664062 C 191.417969 256.664062 192.203125 256.773438 192.964844 256.988281 C 193.722656 257.203125 194.441406 257.535156 195.117188 257.984375 C 195.664062 258.375 196.125 258.851562 196.5 259.421875 C 196.875 259.988281 197.0625 260.632812 197.0625 261.347656 C 197.0625 262.066406 196.933594 262.742188 196.675781 263.375 C 196.417969 264.011719 196.074219 264.585938 195.648438 265.097656 C 195.21875 265.609375 194.710938 266.058594 194.121094 266.445312 C 193.527344 266.835938 193.085938 267.082031 192.789062 267.183594 C 193.042969 267.214844 193.476562 267.367188 194.089844 267.636719 C 194.699219 267.910156 195.285156 268.269531 195.84375 268.71875 C 196.5 269.285156 197.019531 269.957031 197.410156 270.738281 C 197.800781 271.523438 197.996094 272.34375 197.996094 273.203125 Z M 197.996094 273.203125 "/>
<path style=" stroke:none;fill-rule:evenodd;fill:rgb(0%,0%,0%);fill-opacity:1;" d="M 295.078125 344.601562 L 295.078125 347.714844 C 295.078125 347.902344 295.113281 348.074219 295.183594 348.230469 C 295.253906 348.390625 295.367188 348.496094 295.523438 348.546875 C 295.765625 348.660156 296.160156 348.722656 296.710938 348.730469 C 297.257812 348.742188 297.8125 348.746094 298.371094 348.746094 L 298.371094 350.066406 C 296.757812 350.003906 295.175781 349.972656 293.625 349.972656 C 292.09375 349.972656 290.484375 350.003906 288.796875 350.066406 L 288.796875 348.746094 C 289.378906 348.746094 289.9375 348.742188 290.476562 348.730469 C 291.011719 348.722656 291.414062 348.660156 291.675781 348.546875 C 291.835938 348.496094 291.953125 348.390625 292.027344 348.230469 C 292.101562 348.074219 292.136719 347.902344 292.136719 347.714844 L 292.136719 344.601562 L 283.117188 344.601562 L 283.117188 343.355469 L 293.6875 327.648438 C 293.824219 327.464844 294 327.371094 294.210938 327.371094 L 294.558594 327.371094 C 294.90625 327.371094 295.078125 327.546875 295.078125 327.894531 L 295.078125 343.25 L 298.480469 343.25 L 298.480469 344.601562 Z M 292.292969 331.6875 L 284.507812 343.25 L 292.292969 343.25 Z M 292.292969 331.6875 "/>
<path style=" stroke:none;fill-rule:nonzero;fill:rgb(0%,0%,0%);fill-opacity:1;" d="M 210.800781 180.636719 L 205.773438 166.347656 L 204.695312 170.820312 L 202.800781 172.289062 L 198.199219 172.222656 Z M 210.800781 180.636719 "/>
<path style=" stroke:none;fill-rule:nonzero;fill:rgb(0%,0%,0%);fill-opacity:1;" d="M 266.84375 273.476562 L 267.164062 258.332031 L 264.582031 262.140625 L 262.292969 262.851562 L 258.007812 261.171875 Z M 266.84375 273.476562 "/>
<path style=" stroke:none;fill-rule:nonzero;fill:rgb(0%,0%,0%);fill-opacity:1;" d="M 243.996094 290.535156 L 253.5 302.335938 L 253.027344 297.757812 L 254.320312 295.742188 L 258.6875 294.277344 Z M 243.996094 290.535156 "/>
<path style=" stroke:none;fill-rule:nonzero;fill:rgb(0%,0%,0%);fill-opacity:1;" d="M 180.917969 203.207031 L 180.972656 188.0625 L 178.457031 191.914062 L 176.183594 192.664062 L 171.867188 191.058594 Z M 180.917969 203.207031 "/>
<path style=" stroke:none;fill-rule:nonzero;fill:rgb(94.099426%,0%,0%);fill-opacity:1;" d="M 237.621094 162.484375 L 225.933594 211.140625 L 224.769531 210.859375 L 236.453125 162.207031 C 236.53125 161.882812 236.855469 161.6875 237.175781 161.761719 C 237.5 161.839844 237.695312 162.164062 237.621094 162.484375 Z M 223.117188 220.304688 L 229.410156 209.5 L 225.9375 211.132812 L 224.769531 210.851562 L 222.417969 207.824219 Z M 223.117188 220.304688 "/>
<path style=" stroke:none;fill-rule:evenodd;fill:rgb(94.099426%,0%,0%);fill-opacity:1;" d="M 247.050781 139.609375 C 246.78125 140.667969 246.339844 141.691406 245.734375 142.679688 C 245.128906 143.667969 244.363281 144.570312 243.445312 145.390625 C 242.570312 146.15625 241.667969 146.746094 240.730469 147.15625 C 240.746094 147.417969 240.773438 147.6875 240.8125 147.964844 C 240.847656 148.246094 240.914062 148.484375 241.007812 148.683594 C 241.101562 148.886719 241.234375 149.046875 241.398438 149.160156 C 241.566406 149.277344 241.789062 149.335938 242.078125 149.335938 C 242.339844 149.335938 242.59375 149.28125 242.839844 149.167969 C 243.085938 149.054688 243.316406 148.902344 243.535156 148.707031 C 243.753906 148.511719 243.945312 148.28125 244.113281 148.011719 C 244.277344 147.738281 244.394531 147.460938 244.460938 147.175781 C 244.484375 147.082031 244.535156 147 244.617188 146.9375 C 244.695312 146.871094 244.785156 146.835938 244.890625 146.835938 C 245 146.835938 245.09375 146.878906 245.175781 146.957031 C 245.207031 147.015625 245.21875 147.066406 245.21875 147.109375 C 245.21875 147.15625 245.210938 147.195312 245.1875 147.230469 C 245.074219 147.730469 244.910156 148.234375 244.695312 148.75 C 244.480469 149.265625 244.21875 149.742188 243.910156 150.175781 C 243.601562 150.613281 243.234375 150.96875 242.8125 151.246094 C 242.390625 151.523438 241.910156 151.664062 241.375 151.664062 C 240.773438 151.664062 240.335938 151.527344 240.066406 151.257812 C 239.792969 150.988281 239.625 150.632812 239.554688 150.191406 C 239.527344 149.996094 239.511719 149.785156 239.511719 149.554688 C 239.511719 149.324219 239.527344 149.082031 239.554688 148.832031 C 239.617188 148.335938 239.667969 147.898438 239.714844 147.515625 C 239.125 147.707031 238.480469 147.800781 237.769531 147.800781 C 236.773438 147.800781 235.890625 147.582031 235.117188 147.144531 C 234.347656 146.707031 233.730469 146.113281 233.269531 145.367188 C 232.765625 144.542969 232.476562 143.628906 232.398438 142.625 C 232.371094 142.382812 232.355469 142.144531 232.355469 141.902344 C 232.355469 141.148438 232.453125 140.371094 232.648438 139.566406 C 232.933594 138.492188 233.375 137.445312 233.976562 136.433594 C 234.574219 135.421875 235.34375 134.503906 236.277344 133.6875 C 237.105469 132.949219 238.011719 132.355469 238.996094 131.902344 C 239.980469 131.453125 240.972656 131.230469 241.976562 131.230469 C 242.96875 131.230469 243.851562 131.457031 244.617188 131.910156 C 245.382812 132.363281 245.992188 132.960938 246.453125 133.707031 C 246.957031 134.535156 247.253906 135.457031 247.347656 136.472656 C 247.359375 136.722656 247.367188 136.964844 247.367188 137.207031 C 247.367188 137.988281 247.261719 138.789062 247.050781 139.609375 Z M 244.789062 134.167969 C 244.542969 133.554688 244.167969 133.042969 243.671875 132.628906 C 243.171875 132.214844 242.554688 132.007812 241.816406 132.007812 C 241.085938 132.007812 240.359375 132.21875 239.636719 132.640625 C 238.914062 133.058594 238.265625 133.578125 237.703125 134.203125 C 236.980469 135 236.410156 135.863281 236 136.789062 C 235.589844 137.71875 235.257812 138.660156 235.011719 139.609375 C 234.761719 140.542969 234.617188 141.46875 234.570312 142.382812 C 234.554688 142.515625 234.546875 142.648438 234.546875 142.777344 C 234.546875 143.539062 234.683594 144.25 234.953125 144.90625 C 235.128906 145.316406 235.347656 145.683594 235.609375 146.003906 C 235.875 146.324219 236.121094 146.535156 236.34375 146.628906 C 236.335938 146.613281 236.335938 146.503906 236.335938 146.300781 C 236.335938 146.125 236.355469 145.945312 236.402344 145.761719 C 236.46875 145.507812 236.578125 145.261719 236.730469 145.023438 C 236.878906 144.785156 237.054688 144.570312 237.253906 144.386719 C 237.453125 144.199219 237.683594 144.050781 237.9375 143.9375 C 238.195312 143.824219 238.464844 143.765625 238.742188 143.765625 C 239.132812 143.765625 239.453125 143.839844 239.699219 143.984375 C 239.941406 144.132812 240.136719 144.320312 240.277344 144.542969 C 240.421875 144.773438 240.519531 145.03125 240.574219 145.328125 C 240.625 145.625 240.65625 145.867188 240.664062 146.058594 C 240.828125 145.949219 241.039062 145.789062 241.292969 145.574219 C 241.542969 145.363281 241.789062 145.128906 242.019531 144.875 C 242.746094 144.089844 243.308594 143.246094 243.714844 142.335938 C 244.125 141.425781 244.449219 140.5 244.6875 139.566406 C 244.9375 138.609375 245.09375 137.660156 245.152344 136.722656 C 245.167969 136.585938 245.175781 136.4375 245.175781 136.285156 C 245.175781 135.539062 245.046875 134.835938 244.789062 134.167969 Z M 239.828125 146.550781 C 239.84375 146.382812 239.851562 146.199219 239.851562 146.003906 L 239.851562 145.738281 C 239.835938 145.484375 239.785156 145.265625 239.703125 145.082031 C 239.621094 144.898438 239.492188 144.753906 239.324219 144.644531 C 239.15625 144.535156 238.917969 144.480469 238.617188 144.476562 C 238.292969 144.480469 237.988281 144.609375 237.707031 144.867188 C 237.425781 145.128906 237.234375 145.441406 237.136719 145.804688 C 237.105469 145.929688 237.089844 146.050781 237.089844 146.167969 C 237.089844 146.320312 237.117188 146.464844 237.171875 146.59375 C 237.261719 146.824219 237.410156 146.964844 237.609375 147.023438 L 237.90625 147.023438 C 238.574219 147.023438 239.214844 146.867188 239.828125 146.550781 Z M 239.828125 146.550781 "/>
<path style=" stroke:none;fill-rule:evenodd;fill:rgb(94.099426%,0%,0%);fill-opacity:1;" d="M 253.519531 150.496094 C 252.648438 150.46875 251.800781 150.457031 250.980469 150.457031 C 250.15625 150.457031 249.3125 150.46875 248.441406 150.496094 L 248.441406 149.964844 L 248.929688 149.964844 C 249.085938 149.964844 249.234375 149.964844 249.371094 149.960938 C 249.507812 149.957031 249.636719 149.945312 249.761719 149.929688 C 249.882812 149.914062 249.988281 149.898438 250.078125 149.878906 C 250.15625 149.867188 250.21875 149.832031 250.265625 149.765625 C 250.316406 149.703125 250.339844 149.632812 250.339844 149.554688 L 250.339844 142.632812 C 250.105469 142.734375 249.8125 142.8125 249.46875 142.867188 C 249.125 142.917969 248.746094 142.945312 248.335938 142.945312 L 248.335938 142.421875 C 248.902344 142.421875 249.425781 142.363281 249.90625 142.242188 C 250.386719 142.121094 250.800781 141.894531 251.148438 141.5625 L 251.371094 141.5625 C 251.527344 141.5625 251.601562 141.632812 251.601562 141.765625 L 251.601562 149.554688 C 251.601562 149.636719 251.625 149.707031 251.675781 149.769531 C 251.722656 149.832031 251.789062 149.867188 251.878906 149.878906 C 251.957031 149.898438 252.054688 149.914062 252.171875 149.929688 C 252.289062 149.945312 252.421875 149.957031 252.570312 149.960938 C 252.71875 149.964844 252.867188 149.964844 253.007812 149.964844 L 253.519531 149.964844 Z M 253.519531 150.496094 "/>
<path style=" stroke:none;fill-rule:nonzero;fill:rgb(0%,0%,94.099426%);fill-opacity:1;" d="M 235.554688 261.761719 L 220.007812 304.234375 L 218.882812 303.824219 L 234.429688 261.351562 C 234.542969 261.039062 234.886719 260.878906 235.195312 260.992188 C 235.507812 261.105469 235.667969 261.453125 235.554688 261.761719 Z M 216.15625 313.015625 L 223.648438 303.003906 L 220.011719 304.226562 L 218.886719 303.8125 L 216.898438 300.535156 Z M 216.15625 313.015625 "/>
<path style=" stroke:none;fill-rule:evenodd;fill:rgb(0%,0%,94.099426%);fill-opacity:1;" d="M 205.632812 319.636719 C 205.359375 320.699219 204.921875 321.722656 204.316406 322.710938 C 203.707031 323.695312 202.945312 324.601562 202.027344 325.417969 C 201.152344 326.1875 200.246094 326.777344 199.3125 327.183594 C 199.328125 327.449219 199.355469 327.71875 199.390625 327.996094 C 199.429688 328.273438 199.496094 328.511719 199.589844 328.714844 C 199.683594 328.914062 199.8125 329.074219 199.980469 329.191406 C 200.144531 329.308594 200.371094 329.367188 200.65625 329.367188 C 200.921875 329.367188 201.175781 329.3125 201.421875 329.195312 C 201.664062 329.082031 201.898438 328.929688 202.117188 328.734375 C 202.335938 328.542969 202.527344 328.308594 202.691406 328.039062 C 202.859375 327.769531 202.976562 327.492188 203.042969 327.207031 C 203.066406 327.113281 203.117188 327.03125 203.195312 326.964844 C 203.273438 326.898438 203.367188 326.867188 203.472656 326.867188 C 203.578125 326.867188 203.671875 326.90625 203.753906 326.988281 C 203.785156 327.046875 203.800781 327.097656 203.800781 327.140625 C 203.800781 327.183594 203.789062 327.226562 203.765625 327.261719 C 203.652344 327.757812 203.488281 328.265625 203.273438 328.78125 C 203.058594 329.296875 202.796875 329.769531 202.488281 330.207031 C 202.179688 330.640625 201.816406 330.996094 201.394531 331.273438 C 200.96875 331.554688 200.492188 331.691406 199.957031 331.691406 C 199.355469 331.691406 198.917969 331.558594 198.644531 331.285156 C 198.375 331.015625 198.203125 330.660156 198.136719 330.222656 C 198.105469 330.023438 198.089844 329.8125 198.089844 329.585938 C 198.089844 329.351562 198.105469 329.109375 198.136719 328.863281 C 198.195312 328.367188 198.25 327.925781 198.292969 327.546875 C 197.707031 327.738281 197.058594 327.832031 196.351562 327.832031 C 195.355469 327.832031 194.472656 327.613281 193.699219 327.171875 C 192.925781 326.734375 192.308594 326.144531 191.851562 325.394531 C 191.34375 324.570312 191.054688 323.65625 190.980469 322.65625 C 190.949219 322.414062 190.933594 322.171875 190.933594 321.929688 C 190.933594 321.175781 191.03125 320.398438 191.226562 319.59375 C 191.515625 318.519531 191.957031 317.476562 192.558594 316.464844 C 193.15625 315.449219 193.921875 314.535156 194.855469 313.714844 C 195.6875 312.976562 196.59375 312.382812 197.578125 311.933594 C 198.558594 311.484375 199.554688 311.257812 200.554688 311.257812 C 201.550781 311.257812 202.429688 311.484375 203.195312 311.9375 C 203.960938 312.394531 204.574219 312.992188 205.03125 313.738281 C 205.539062 314.5625 205.835938 315.484375 205.925781 316.5 C 205.941406 316.75 205.949219 316.996094 205.949219 317.234375 C 205.949219 318.019531 205.84375 318.820312 205.632812 319.636719 Z M 203.371094 314.199219 C 203.121094 313.585938 202.75 313.070312 202.25 312.65625 C 201.753906 312.246094 201.136719 312.039062 200.398438 312.035156 C 199.667969 312.039062 198.9375 312.25 198.214844 312.667969 C 197.492188 313.089844 196.847656 313.609375 196.28125 314.230469 C 195.558594 315.027344 194.992188 315.890625 194.582031 316.820312 C 194.167969 317.75 193.839844 318.6875 193.589844 319.636719 C 193.34375 320.574219 193.195312 321.5 193.152344 322.414062 C 193.136719 322.546875 193.128906 322.675781 193.128906 322.808594 C 193.128906 323.570312 193.261719 324.277344 193.535156 324.9375 C 193.707031 325.347656 193.925781 325.710938 194.191406 326.035156 C 194.453125 326.355469 194.699219 326.5625 194.925781 326.65625 C 194.917969 326.644531 194.914062 326.535156 194.914062 326.328125 C 194.914062 326.152344 194.9375 325.976562 194.980469 325.792969 C 195.050781 325.535156 195.160156 325.289062 195.308594 325.050781 C 195.460938 324.816406 195.636719 324.601562 195.835938 324.414062 C 196.035156 324.230469 196.261719 324.078125 196.519531 323.964844 C 196.777344 323.851562 197.042969 323.796875 197.320312 323.796875 C 197.714844 323.796875 198.03125 323.867188 198.277344 324.015625 C 198.523438 324.160156 198.71875 324.347656 198.859375 324.574219 C 199.003906 324.800781 199.101562 325.0625 199.152344 325.359375 C 199.207031 325.65625 199.238281 325.898438 199.242188 326.085938 C 199.410156 325.976562 199.621094 325.816406 199.871094 325.605469 C 200.125 325.394531 200.367188 325.160156 200.601562 324.902344 C 201.324219 324.121094 201.890625 323.273438 202.296875 322.363281 C 202.703125 321.453125 203.027344 320.53125 203.269531 319.59375 C 203.519531 318.636719 203.671875 317.691406 203.734375 316.753906 C 203.746094 316.613281 203.753906 316.46875 203.753906 316.316406 C 203.753906 315.570312 203.628906 314.863281 203.371094 314.199219 Z M 198.40625 326.582031 C 198.421875 326.414062 198.429688 326.230469 198.429688 326.03125 L 198.429688 325.769531 C 198.414062 325.515625 198.367188 325.296875 198.285156 325.113281 C 198.199219 324.929688 198.074219 324.78125 197.90625 324.671875 C 197.734375 324.5625 197.5 324.507812 197.199219 324.507812 C 196.875 324.507812 196.570312 324.640625 196.289062 324.898438 C 196.003906 325.15625 195.816406 325.46875 195.71875 325.835938 C 195.6875 325.960938 195.671875 326.082031 195.671875 326.195312 C 195.671875 326.351562 195.699219 326.492188 195.75 326.625 C 195.839844 326.851562 195.988281 326.996094 196.191406 327.050781 L 196.484375 327.050781 C 197.15625 327.054688 197.796875 326.894531 198.40625 326.582031 Z M 198.40625 326.582031 "/>
<path style=" stroke:none;fill-rule:evenodd;fill:rgb(0%,0%,94.099426%);fill-opacity:1;" d="M 212.625 330.523438 L 206.851562 330.523438 L 206.851562 330.1875 C 206.851562 330.160156 206.867188 330.125 206.894531 330.074219 L 209.214844 327.828125 C 209.488281 327.558594 209.765625 327.28125 210.046875 327 C 210.328125 326.714844 210.578125 326.425781 210.800781 326.132812 C 211.023438 325.835938 211.203125 325.535156 211.332031 325.21875 C 211.464844 324.90625 211.53125 324.578125 211.53125 324.234375 C 211.53125 323.945312 211.488281 323.671875 211.40625 323.421875 C 211.320312 323.167969 211.195312 322.949219 211.035156 322.757812 C 210.875 322.566406 210.675781 322.414062 210.433594 322.296875 C 210.191406 322.179688 209.914062 322.121094 209.597656 322.121094 C 209.125 322.121094 208.707031 322.246094 208.34375 322.5 C 207.984375 322.75 207.742188 323.027344 207.625 323.332031 C 207.601562 323.339844 207.640625 323.34375 207.738281 323.34375 L 207.859375 323.34375 C 208 323.371094 208.125 323.417969 208.226562 323.476562 C 208.332031 323.535156 208.417969 323.617188 208.488281 323.722656 C 208.5625 323.828125 208.597656 323.953125 208.597656 324.097656 C 208.597656 324.34375 208.507812 324.535156 208.328125 324.664062 C 208.148438 324.796875 207.945312 324.859375 207.722656 324.859375 C 207.511719 324.859375 207.3125 324.796875 207.128906 324.664062 C 206.945312 324.535156 206.851562 324.34375 206.851562 324.097656 C 206.851562 323.753906 206.925781 323.429688 207.078125 323.121094 C 207.230469 322.816406 207.4375 322.550781 207.695312 322.324219 C 207.957031 322.097656 208.261719 321.921875 208.617188 321.789062 C 208.972656 321.660156 209.347656 321.59375 209.746094 321.59375 C 210.238281 321.59375 210.6875 321.65625 211.097656 321.785156 C 211.503906 321.914062 211.855469 322.101562 212.140625 322.34375 C 212.429688 322.585938 212.65625 322.863281 212.820312 323.179688 C 212.980469 323.5 213.0625 323.847656 213.0625 324.234375 C 213.0625 324.660156 212.957031 325.050781 212.738281 325.410156 C 212.519531 325.769531 212.25 326.097656 211.929688 326.398438 C 211.609375 326.695312 211.265625 326.976562 210.90625 327.242188 C 210.542969 327.503906 210.214844 327.761719 209.921875 328.011719 L 208.292969 329.382812 L 210.425781 329.382812 C 210.722656 329.382812 211 329.378906 211.257812 329.375 C 211.515625 329.371094 211.734375 329.363281 211.914062 329.351562 C 212.09375 329.339844 212.1875 329.332031 212.191406 329.328125 C 212.230469 329.296875 212.265625 329.242188 212.296875 329.15625 C 212.332031 329.070312 212.363281 328.96875 212.390625 328.851562 C 212.417969 328.734375 212.445312 328.613281 212.476562 328.492188 C 212.503906 328.375 212.53125 328.242188 212.554688 328.097656 L 213.078125 328.097656 Z M 212.625 330.523438 "/>
</g>
</svg>
