<?xml version="1.0" encoding="UTF-8"?>
<svg xmlns="http://www.w3.org/2000/svg" xmlns:xlink="http://www.w3.org/1999/xlink" width="462pt" height="463.02pt" viewBox="0 0 462 463.02" version="1.1">
<defs>
<clipPath id="clip1">
  <path d="M 128 42 L 143 42 L 143 64 L 128 64 Z M 128 42 "/>
</clipPath>
<clipPath id="clip2">
  <path d="M 122.148438 72.246094 L 148.753906 72.25 L 148.753906 21.898438 L 122.148438 21.898438 Z M 122.148438 72.246094 "/>
</clipPath>
</defs>
<g id="surface1">
<path style=" stroke:none;fill-rule:nonzero;fill:rgb(0%,0%,0%);fill-opacity:1;" d="M 16.78125 366.074219 L 419.570312 366.074219 L 419.570312 367.871094 L 16.78125 367.871094 C 16.285156 367.871094 15.882812 367.46875 15.882812 366.972656 C 15.882812 366.472656 16.285156 366.074219 16.78125 366.074219 Z M 444.714844 366.972656 L 419.542969 359.78125 L 419.542969 374.160156 Z M 444.714844 366.972656 "/>
<path style=" stroke:none;fill-rule:nonzero;fill:rgb(0%,0%,0%);fill-opacity:1;" d="M 114.308594 448.472656 L 114.308594 44.652344 L 116.105469 44.652344 L 116.105469 448.472656 C 116.105469 448.96875 115.703125 449.371094 115.207031 449.371094 C 114.710938 449.371094 114.308594 448.96875 114.308594 448.472656 Z M 115.207031 19.515625 L 108.011719 44.675781 L 122.398438 44.675781 Z M 115.207031 19.515625 "/>
<path style=" stroke:none;fill-rule:evenodd;fill:rgb(0%,0%,0%);fill-opacity:1;" d="M 97.777344 389.597656 C 97.390625 391.113281 96.761719 392.578125 95.894531 393.988281 C 95.027344 395.398438 93.9375 396.691406 92.625 397.859375 C 91.4375 398.917969 90.144531 399.757812 88.738281 400.378906 C 87.332031 401 85.921875 401.3125 84.511719 401.3125 C 83.089844 401.3125 81.828125 400.996094 80.722656 400.371094 C 79.621094 399.742188 78.738281 398.898438 78.082031 397.828125 C 77.359375 396.648438 76.945312 395.34375 76.839844 393.910156 C 76.796875 393.566406 76.773438 393.222656 76.773438 392.875 C 76.773438 391.800781 76.914062 390.6875 77.195312 389.535156 C 77.601562 388 78.234375 386.507812 79.09375 385.058594 C 79.949219 383.613281 81.042969 382.304688 82.378906 381.132812 C 83.566406 380.078125 84.859375 379.226562 86.265625 378.585938 C 87.671875 377.941406 89.089844 377.621094 90.523438 377.621094 C 91.945312 377.621094 93.203125 377.945312 94.296875 378.589844 C 95.390625 379.238281 96.265625 380.09375 96.921875 381.164062 C 97.640625 382.34375 98.066406 383.660156 98.195312 385.113281 C 98.21875 385.46875 98.230469 385.820312 98.230469 386.164062 C 98.230469 387.285156 98.078125 388.429688 97.777344 389.597656 Z M 94.515625 381.695312 C 94.160156 380.816406 93.625 380.105469 92.914062 379.554688 C 92.203125 379.007812 91.332031 378.734375 90.296875 378.730469 C 89.273438 378.734375 88.257812 379.011719 87.242188 379.570312 C 86.230469 380.128906 85.328125 380.855469 84.527344 381.742188 C 83.527344 382.820312 82.734375 383.988281 82.152344 385.246094 C 81.574219 386.507812 81.121094 387.785156 80.796875 389.082031 C 80.421875 390.492188 80.1875 391.867188 80.101562 393.203125 C 80.082031 393.457031 80.070312 393.707031 80.070312 393.957031 C 80.070312 395.003906 80.242188 396.027344 80.585938 397.03125 C 80.921875 397.921875 81.433594 398.664062 82.121094 399.265625 C 82.8125 399.867188 83.671875 400.167969 84.707031 400.164062 C 85.773438 400.167969 86.816406 399.859375 87.832031 399.25 C 88.851562 398.636719 89.765625 397.882812 90.570312 396.984375 C 91.617188 395.773438 92.429688 394.492188 93.011719 393.144531 C 93.59375 391.792969 94.066406 390.417969 94.433594 389.019531 C 94.765625 387.710938 94.976562 386.425781 95.0625 385.160156 L 95.0625 384.613281 C 95.0625 383.570312 94.878906 382.59375 94.515625 381.695312 Z M 94.515625 381.695312 "/>
<path style="fill:none;stroke-width:15;stroke-linecap:round;stroke-linejoin:round;stroke:rgb(0%,0%,0%);stroke-opacity:1;stroke-miterlimit:10;" d="M 2109.620151 1994.995356 C 2233.876475 1779.75733 2101.970224 1470.971573 1814.987975 1305.270323 C 1528.030167 1139.593524 1194.659542 1179.765747 1070.378777 1394.979322 C 946.122453 1610.217348 1078.028704 1919.003105 1365.010953 2084.704355 C 1651.968762 2250.381154 1985.339387 2210.208931 2109.620151 1994.995356 Z M 2109.620151 1994.995356 " transform="matrix(0.159826,0,0,-0.159761,0,465.2466)"/>
<path style="fill:none;stroke-width:15;stroke-linecap:round;stroke-linejoin:round;stroke:rgb(0%,0%,0%);stroke-opacity:1;stroke-miterlimit:10;" d="M 2122.50038 2516.231779 C 2396.431316 2338.623121 2380.080513 1826.946856 2085.986032 1373.389503 C 1791.89155 919.83215 1331.429484 696.10979 1057.498548 873.742899 C 783.567613 1051.351557 799.918415 1563.027822 1094.012897 2016.585175 C 1388.107379 2470.142528 1848.569444 2693.840437 2122.50038 2516.231779 Z M 2122.50038 2516.231779 " transform="matrix(0.159826,0,0,-0.159761,0,465.2466)"/>
<path style=" stroke:none;fill-rule:evenodd;fill:rgb(0%,0%,0%);fill-opacity:1;" d="M 310.957031 88.3125 C 310.894531 88.5625 310.722656 88.726562 310.441406 88.796875 L 310.070312 88.796875 C 309.78125 88.796875 309.625 88.648438 309.601562 88.34375 C 309.710938 87.621094 309.769531 86.949219 309.777344 86.320312 C 309.777344 85.976562 309.769531 85.652344 309.746094 85.347656 C 309.660156 84.429688 309.429688 83.617188 309.050781 82.910156 C 308.675781 82.203125 308.167969 81.640625 307.535156 81.21875 C 306.898438 80.796875 306.121094 80.582031 305.207031 80.582031 C 304.085938 80.582031 302.960938 80.855469 301.832031 81.398438 C 300.699219 81.941406 299.675781 82.667969 298.761719 83.574219 C 297.695312 84.65625 296.859375 85.847656 296.257812 87.152344 C 295.652344 88.460938 295.179688 89.792969 294.835938 91.148438 C 294.457031 92.53125 294.253906 93.875 294.222656 95.179688 C 294.199219 95.304688 294.1875 95.414062 294.1875 95.507812 C 294.1875 96.671875 294.425781 97.730469 294.898438 98.691406 C 295.351562 99.601562 296.003906 100.328125 296.855469 100.871094 C 297.703125 101.414062 298.710938 101.6875 299.875 101.6875 C 300.5 101.6875 301.121094 101.605469 301.734375 101.4375 C 302.347656 101.269531 302.90625 101.027344 303.40625 100.707031 C 303.90625 100.390625 304.339844 100.011719 304.707031 99.578125 C 305.074219 99.144531 305.316406 98.675781 305.433594 98.175781 L 306.128906 95.414062 C 306.171875 95.257812 306.191406 95.105469 306.191406 94.960938 C 306.191406 94.792969 306.148438 94.695312 306.0625 94.660156 C 305.839844 94.570312 305.445312 94.507812 304.882812 94.484375 C 304.324219 94.457031 303.746094 94.441406 303.15625 94.441406 C 302.992188 94.441406 302.875 94.394531 302.800781 94.300781 C 302.722656 94.230469 302.6875 94.148438 302.6875 94.066406 C 302.6875 94.003906 302.695312 93.945312 302.71875 93.894531 L 302.785156 93.613281 C 302.816406 93.464844 302.894531 93.351562 303.019531 93.265625 C 303.140625 93.183594 303.273438 93.140625 303.414062 93.140625 C 304.953125 93.203125 306.53125 93.234375 308.148438 93.234375 C 309.183594 93.234375 310.222656 93.203125 311.265625 93.140625 C 311.417969 93.140625 311.546875 93.195312 311.652344 93.296875 C 311.695312 93.382812 311.71875 93.457031 311.71875 93.515625 C 311.71875 93.582031 311.707031 93.640625 311.6875 93.691406 L 311.621094 93.972656 C 311.554688 94.296875 311.347656 94.453125 310.992188 94.441406 C 310.613281 94.441406 310.296875 94.453125 310.046875 94.476562 C 309.792969 94.496094 309.609375 94.546875 309.488281 94.628906 C 309.390625 94.671875 309.273438 94.960938 309.132812 95.492188 L 307.484375 101.796875 C 307.484375 101.890625 307.425781 101.996094 307.308594 102.109375 C 307.210938 102.203125 307.082031 102.25 306.917969 102.25 C 306.78125 102.25 306.671875 102.199219 306.597656 102.09375 C 306.351562 101.8125 306.125 101.511719 305.925781 101.195312 C 305.726562 100.875 305.59375 100.621094 305.53125 100.433594 C 304.90625 101.175781 303.988281 101.78125 302.785156 102.25 C 301.578125 102.722656 300.367188 102.957031 299.148438 102.957031 C 297.660156 102.957031 296.339844 102.644531 295.183594 102.023438 C 294.023438 101.402344 293.085938 100.542969 292.363281 99.445312 C 291.609375 98.265625 291.167969 96.957031 291.039062 95.523438 C 290.996094 95.136719 290.972656 94.734375 290.972656 94.316406 C 290.972656 93.261719 291.109375 92.183594 291.375 91.085938 C 291.785156 89.550781 292.4375 88.070312 293.324219 86.644531 C 294.214844 85.214844 295.324219 83.917969 296.660156 82.746094 C 297.921875 81.679688 299.285156 80.832031 300.757812 80.207031 C 302.226562 79.578125 303.699219 79.265625 305.175781 79.265625 C 306.347656 79.265625 307.355469 79.523438 308.1875 80.042969 C 309.023438 80.558594 309.640625 81.183594 310.039062 81.914062 L 312.21875 79.484375 C 312.304688 79.339844 312.449219 79.265625 312.65625 79.265625 L 312.785156 79.265625 C 313.042969 79.265625 313.171875 79.390625 313.171875 79.640625 L 313.171875 79.765625 Z M 310.957031 88.3125 "/>
<path style=" stroke:none;fill-rule:evenodd;fill:rgb(0%,0%,0%);fill-opacity:1;" d="M 264.40625 192.019531 C 264.039062 193.429688 263.460938 194.796875 262.667969 196.113281 C 261.878906 197.429688 260.882812 198.625 259.6875 199.703125 C 258.601562 200.675781 257.40625 201.449219 256.101562 202.03125 C 254.796875 202.613281 253.496094 202.898438 252.191406 202.898438 L 241.445312 202.898438 C 241.15625 202.898438 241 202.765625 240.976562 202.492188 L 240.976562 202.367188 L 241.042969 202.101562 C 241.128906 201.757812 241.339844 201.589844 241.671875 201.597656 C 242.179688 201.601562 242.660156 201.59375 243.109375 201.578125 C 243.5625 201.5625 243.898438 201.507812 244.113281 201.410156 C 244.316406 201.296875 244.472656 201.015625 244.582031 200.5625 L 249.121094 182.894531 C 249.1875 182.664062 249.21875 182.488281 249.21875 182.359375 C 249.21875 182.234375 249.191406 182.160156 249.136719 182.140625 C 248.984375 182.050781 248.691406 181.992188 248.257812 181.96875 C 247.820312 181.949219 247.34375 181.9375 246.828125 181.9375 C 246.523438 181.9375 246.375 181.796875 246.375 181.511719 L 246.375 181.386719 L 246.472656 181.121094 C 246.535156 180.808594 246.734375 180.652344 247.070312 180.648438 L 257.84375 180.648438 C 259.179688 180.652344 260.34375 180.960938 261.335938 181.578125 C 262.328125 182.195312 263.125 183.003906 263.726562 184.007812 C 264.371094 185.136719 264.738281 186.390625 264.824219 187.769531 C 264.847656 188.0625 264.855469 188.335938 264.855469 188.585938 C 264.855469 189.703125 264.707031 190.847656 264.40625 192.019531 Z M 261.285156 184.726562 C 260.921875 183.859375 260.347656 183.179688 259.566406 182.683594 C 258.785156 182.1875 257.875 181.9375 256.828125 181.9375 L 253.355469 181.9375 C 252.804688 181.9375 252.476562 181.980469 252.367188 182.0625 C 252.261719 182.148438 252.148438 182.445312 252.027344 182.957031 L 247.457031 200.628906 C 247.371094 200.984375 247.328125 201.238281 247.328125 201.394531 L 247.328125 201.519531 C 247.371094 201.5625 247.65625 201.589844 248.183594 201.597656 L 251.65625 201.597656 C 252.714844 201.601562 253.765625 201.363281 254.816406 200.886719 C 255.867188 200.410156 256.804688 199.75 257.636719 198.902344 C 258.585938 197.921875 259.3125 196.824219 259.816406 195.617188 C 260.324219 194.410156 260.726562 193.191406 261.027344 191.957031 C 261.363281 190.671875 261.59375 189.402344 261.722656 188.144531 C 261.746094 187.855469 261.753906 187.570312 261.753906 187.300781 C 261.753906 186.378906 261.601562 185.523438 261.285156 184.726562 Z M 261.285156 184.726562 "/>
<path style=" stroke:none;fill-rule:evenodd;fill:rgb(0%,0%,0%);fill-opacity:1;" d="M 209.0625 278.859375 C 208.996094 279.152344 208.808594 279.304688 208.496094 279.3125 L 208.140625 279.3125 C 207.890625 279.3125 207.757812 279.1875 207.734375 278.9375 L 207.734375 278.8125 C 207.84375 278.152344 207.902344 277.523438 207.914062 276.914062 C 207.914062 276.570312 207.902344 276.21875 207.882812 275.863281 C 207.773438 274.945312 207.53125 274.132812 207.15625 273.425781 C 206.777344 272.71875 206.273438 272.15625 205.636719 271.734375 C 205 271.3125 204.226562 271.097656 203.308594 271.097656 C 202.191406 271.097656 201.066406 271.371094 199.933594 271.914062 C 198.804688 272.457031 197.78125 273.183594 196.863281 274.089844 C 195.800781 275.171875 194.964844 276.359375 194.359375 277.667969 C 193.757812 278.976562 193.285156 280.308594 192.941406 281.664062 C 192.5625 283.046875 192.347656 284.382812 192.292969 285.679688 L 192.292969 286.117188 C 192.292969 287.257812 192.519531 288.296875 192.972656 289.238281 C 193.402344 290.128906 194.03125 290.84375 194.863281 291.386719 C 195.691406 291.929688 196.675781 292.203125 197.816406 292.203125 C 198.746094 292.203125 199.652344 292.003906 200.546875 291.605469 C 201.441406 291.210938 202.261719 290.675781 203.011719 290 C 203.761719 289.324219 204.414062 288.542969 204.972656 287.65625 C 205.535156 286.769531 205.9375 285.824219 206.183594 284.832031 C 206.25 284.539062 206.4375 284.394531 206.75 284.394531 L 207.105469 284.394531 C 207.375 284.394531 207.519531 284.507812 207.542969 284.738281 C 207.542969 284.800781 207.527344 284.859375 207.492188 284.910156 C 207.203125 286.0625 206.722656 287.152344 206.054688 288.1875 C 205.386719 289.222656 204.59375 290.132812 203.671875 290.910156 C 202.753906 291.6875 201.742188 292.308594 200.644531 292.773438 C 199.546875 293.238281 198.414062 293.472656 197.253906 293.472656 C 195.765625 293.472656 194.445312 293.160156 193.285156 292.539062 C 192.128906 291.917969 191.1875 291.058594 190.46875 289.960938 C 189.714844 288.78125 189.273438 287.472656 189.144531 286.039062 C 189.101562 285.652344 189.078125 285.25 189.078125 284.832031 C 189.078125 283.777344 189.214844 282.699219 189.484375 281.601562 C 189.894531 280.066406 190.542969 278.585938 191.429688 277.15625 C 192.316406 275.730469 193.429688 274.433594 194.765625 273.261719 C 196.027344 272.195312 197.390625 271.347656 198.859375 270.722656 C 200.332031 270.09375 201.804688 269.78125 203.277344 269.78125 C 204.453125 269.78125 205.457031 270.039062 206.289062 270.558594 C 207.125 271.074219 207.742188 271.699219 208.140625 272.429688 L 210.320312 270 C 210.40625 269.855469 210.554688 269.78125 210.757812 269.78125 L 210.886719 269.78125 C 211.144531 269.78125 211.273438 269.90625 211.273438 270.15625 L 211.273438 270.28125 Z M 209.0625 278.859375 "/>
<path style=" stroke:none;fill-rule:evenodd;fill:rgb(0%,0%,0%);fill-opacity:1;" d="M 410.535156 388.71875 C 410.417969 389.191406 410.179688 389.542969 409.820312 389.78125 C 409.457031 390.015625 409.09375 390.132812 408.726562 390.132812 C 408.351562 390.132812 408.039062 390.011719 407.792969 389.769531 C 407.609375 389.59375 407.511719 389.363281 407.5 389.082031 C 407.5 388.96875 407.519531 388.820312 407.566406 388.640625 C 407.683594 388.246094 407.867188 387.945312 408.113281 387.742188 C 408.363281 387.539062 408.535156 387.417969 408.632812 387.386719 C 408.425781 387.230469 408.007812 387.152344 407.371094 387.152344 C 406.8125 387.152344 406.308594 387.441406 405.867188 388.023438 C 405.425781 388.601562 405.097656 389.300781 404.882812 390.117188 L 403.394531 395.855469 C 403.246094 396.429688 403.132812 396.980469 403.058594 397.5 C 403.015625 397.679688 402.992188 397.835938 402.992188 397.972656 C 402.992188 398.296875 403.046875 398.605469 403.152344 398.894531 C 403.261719 399.210938 403.421875 399.460938 403.640625 399.648438 C 403.855469 399.835938 404.128906 399.933594 404.460938 399.929688 C 404.894531 399.933594 405.308594 399.820312 405.707031 399.59375 C 406.105469 399.371094 406.472656 399.066406 406.804688 398.683594 C 407.140625 398.304688 407.433594 397.859375 407.695312 397.351562 C 407.953125 396.847656 408.15625 396.324219 408.308594 395.792969 C 408.371094 395.519531 408.554688 395.382812 408.855469 395.382812 L 409.226562 395.382812 C 409.507812 395.382812 409.648438 395.488281 409.648438 395.699219 C 409.648438 395.761719 409.632812 395.820312 409.601562 395.871094 C 409.449219 396.496094 409.203125 397.117188 408.867188 397.730469 C 408.527344 398.339844 408.132812 398.882812 407.679688 399.351562 C 407.226562 399.820312 406.710938 400.210938 406.136719 400.511719 C 405.558594 400.816406 404.941406 400.964844 404.285156 400.964844 C 403.617188 400.964844 403.042969 400.824219 402.558594 400.535156 C 402.074219 400.25 401.679688 399.875 401.375 399.414062 C 401.28125 399.300781 401.203125 399.183594 401.152344 399.0625 C 401.097656 398.941406 401.082031 398.921875 401.101562 399.003906 C 400.84375 399.433594 400.433594 399.871094 399.875 400.308594 C 399.316406 400.746094 398.667969 400.964844 397.933594 400.964844 C 397.527344 400.964844 397.121094 400.914062 396.722656 400.808594 C 396.324219 400.703125 395.976562 400.542969 395.679688 400.324219 C 395.386719 400.105469 395.160156 399.835938 395.011719 399.523438 C 394.9375 399.335938 394.898438 399.132812 394.898438 398.910156 C 394.898438 398.757812 394.921875 398.574219 394.964844 398.363281 C 395.082031 397.894531 395.324219 397.539062 395.691406 397.304688 C 396.058594 397.070312 396.421875 396.953125 396.789062 396.953125 C 397.164062 396.953125 397.488281 397.074219 397.757812 397.3125 C 397.941406 397.492188 398.03125 397.722656 398.03125 398.003906 C 398.03125 398.148438 398.011719 398.296875 397.96875 398.441406 C 397.871094 398.808594 397.695312 399.105469 397.441406 399.328125 C 397.191406 399.554688 397.007812 399.675781 396.902344 399.695312 C 397.105469 399.863281 397.519531 399.941406 398.144531 399.929688 C 398.707031 399.933594 399.210938 399.640625 399.664062 399.054688 C 400.117188 398.46875 400.445312 397.769531 400.648438 396.953125 L 402.152344 391.183594 C 402.304688 390.640625 402.421875 390.105469 402.507812 389.582031 C 402.53125 389.414062 402.539062 389.257812 402.539062 389.113281 C 402.539062 388.789062 402.492188 388.484375 402.394531 388.203125 C 402.285156 387.890625 402.121094 387.636719 401.894531 387.441406 C 401.667969 387.25 401.386719 387.152344 401.054688 387.152344 C 400.621094 387.152344 400.203125 387.265625 399.800781 387.488281 C 399.398438 387.714844 399.027344 388.015625 398.695312 388.390625 C 398.363281 388.769531 398.066406 389.207031 397.808594 389.699219 C 397.546875 390.199219 397.359375 390.722656 397.238281 391.277344 C 397.121094 391.558594 396.921875 391.707031 396.644531 391.714844 L 396.289062 391.714844 C 396.03125 391.714844 395.898438 391.585938 395.898438 391.324219 L 395.898438 391.214844 C 396.0625 390.566406 396.308594 389.9375 396.644531 389.324219 C 396.976562 388.714844 397.375 388.171875 397.839844 387.703125 C 398.300781 387.230469 398.820312 386.847656 399.390625 386.550781 C 399.960938 386.25 400.582031 386.101562 401.246094 386.101562 C 401.894531 386.101562 402.464844 386.242188 402.960938 386.527344 C 403.457031 386.808594 403.859375 387.183594 404.171875 387.652344 C 404.238281 387.769531 404.296875 387.894531 404.351562 388.023438 C 404.402344 388.15625 404.417969 388.1875 404.398438 388.125 C 404.667969 387.664062 405.082031 387.214844 405.640625 386.769531 C 406.203125 386.324219 406.84375 386.101562 407.566406 386.101562 C 407.972656 386.101562 408.378906 386.152344 408.785156 386.25 C 409.1875 386.351562 409.539062 386.511719 409.835938 386.730469 C 410.132812 386.949219 410.351562 387.21875 410.488281 387.542969 C 410.566406 387.734375 410.601562 387.949219 410.601562 388.1875 C 410.601562 388.34375 410.582031 388.523438 410.535156 388.71875 Z M 410.535156 388.71875 "/>
<g clip-path="url(#clip1)" clip-rule="nonzero">
<g clip-path="url(#clip2)" clip-rule="nonzero">
<path style=" stroke:none;fill-rule:evenodd;fill:rgb(0%,0%,0%);fill-opacity:1;" d="M 139.410156 56.59375 C 139.183594 57.472656 138.828125 58.308594 138.34375 59.109375 C 137.859375 59.910156 137.289062 60.621094 136.632812 61.242188 C 135.972656 61.863281 135.238281 62.371094 134.417969 62.753906 C 133.601562 63.144531 132.75 63.335938 131.867188 63.335938 C 131.339844 63.335938 130.855469 63.238281 130.414062 63.046875 C 129.972656 62.851562 129.609375 62.589844 129.332031 62.261719 C 129.050781 61.933594 128.863281 61.542969 128.765625 61.09375 C 128.722656 60.894531 128.699219 60.691406 128.699219 60.480469 C 128.699219 60.210938 128.730469 59.933594 128.796875 59.652344 C 128.914062 59.179688 129.15625 58.828125 129.523438 58.59375 C 129.890625 58.355469 130.25 58.238281 130.605469 58.238281 C 130.984375 58.238281 131.300781 58.359375 131.558594 58.601562 C 131.742188 58.777344 131.832031 59.007812 131.832031 59.289062 C 131.832031 59.40625 131.8125 59.546875 131.769531 59.714844 C 131.652344 60.183594 131.410156 60.535156 131.042969 60.773438 C 130.675781 61.007812 130.386719 61.125 130.167969 61.125 C 130.234375 61.40625 130.4375 61.671875 130.773438 61.917969 C 131.113281 62.164062 131.550781 62.285156 132.078125 62.285156 C 132.65625 62.285156 133.203125 62.128906 133.707031 61.816406 C 134.214844 61.5 134.675781 61.082031 135.097656 60.550781 C 135.515625 60.023438 135.886719 59.414062 136.203125 58.71875 C 136.519531 58.023438 136.777344 57.292969 136.96875 56.53125 L 137.066406 56.15625 C 136.90625 56.300781 136.566406 56.492188 136.050781 56.726562 C 135.53125 56.960938 134.96875 57.078125 134.355469 57.078125 C 133.621094 57.078125 132.96875 56.945312 132.390625 56.671875 C 131.816406 56.402344 131.359375 55.984375 131.027344 55.417969 C 130.703125 54.8125 130.546875 54.144531 130.558594 53.410156 L 130.558594 53.285156 C 130.578125 52.523438 130.675781 51.765625 130.847656 51.011719 C 131.019531 50.292969 131.269531 49.496094 131.601562 48.628906 C 131.929688 47.761719 132.242188 46.921875 132.542969 46.105469 C 132.867188 45.238281 133.027344 44.527344 133.027344 43.972656 C 133.027344 43.503906 132.828125 43.265625 132.429688 43.265625 C 132.066406 43.265625 131.734375 43.371094 131.4375 43.582031 C 131.140625 43.789062 130.875 44.082031 130.628906 44.449219 C 130.386719 44.820312 130.171875 45.261719 129.976562 45.765625 C 129.78125 46.273438 129.621094 46.816406 129.492188 47.390625 C 129.375 47.671875 129.175781 47.820312 128.894531 47.828125 L 128.523438 47.828125 C 128.261719 47.828125 128.132812 47.699219 128.132812 47.4375 L 128.132812 47.328125 C 128.285156 46.753906 128.484375 46.164062 128.730469 45.5625 C 128.980469 44.964844 129.292969 44.417969 129.667969 43.925781 C 130.046875 43.433594 130.476562 43.027344 130.960938 42.703125 C 131.445312 42.378906 132 42.214844 132.625 42.214844 C 133.164062 42.214844 133.625 42.332031 134.007812 42.5625 C 134.390625 42.792969 134.679688 43.097656 134.878906 43.476562 C 135.078125 43.859375 135.1875 44.289062 135.210938 44.769531 L 135.210938 44.878906 C 135.210938 45.332031 135.117188 45.796875 134.933594 46.277344 C 134.625 47.09375 134.3125 47.925781 134.007812 48.777344 C 133.699219 49.628906 133.460938 50.394531 133.289062 51.074219 C 133.117188 51.753906 132.996094 52.429688 132.933594 53.097656 C 132.890625 53.273438 132.863281 53.46875 132.851562 53.675781 C 132.851562 54.085938 132.921875 54.488281 133.0625 54.882812 C 133.160156 55.242188 133.335938 55.523438 133.59375 55.730469 C 133.855469 55.941406 134.160156 56.046875 134.515625 56.042969 C 135.203125 56.046875 135.808594 55.839844 136.324219 55.433594 C 136.84375 55.027344 137.292969 54.492188 137.679688 53.832031 L 140.28125 43.71875 C 140.378906 43.335938 140.574219 43.050781 140.871094 42.867188 C 141.167969 42.683594 141.464844 42.59375 141.765625 42.589844 C 142.082031 42.59375 142.339844 42.6875 142.542969 42.875 C 142.683594 43.011719 142.753906 43.191406 142.753906 43.421875 C 142.753906 43.539062 142.742188 43.660156 142.722656 43.785156 Z M 139.410156 56.59375 "/>
</g>
</g>
</g>
</svg>
