<?xml version="1.0" encoding="utf-8"?>
<!-- Generator: Adobe Illustrator 19.0.0, SVG Export Plug-In . SVG Version: 6.00 Build 0)  -->
<svg version="1.1" id="Layer_1" xmlns="http://www.w3.org/2000/svg" xmlns:xlink="http://www.w3.org/1999/xlink" x="0px" y="0px"
	 viewBox="0 0 145.25 94.25" style="enable-background:new 0 0 145.25 94.25;" xml:space="preserve">
<style type="text/css">
	.st0{fill:none;stroke:#A7A9AC;stroke-miterlimit:10;}
	.st1{fill:none;stroke:#1173BB;stroke-linejoin:round;stroke-miterlimit:10;}
	.st2{fill:#262626;}
	.st3{fill:#010101;}
	.st4{fill:#A7A9AC;}
</style>
<line id="XMLID_3_" class="st0" x1="37.1874924" y1="10.0907068" x2="37.1874924" y2="72.6405487"/>
<polyline id="XMLID_8_" class="st1" points="26.7589722,91.75 27.5231171,72.8958817 28.287262,58.0127869 29.0514069,46.2728882 
	29.8155518,37.034832 30.5796967,29.7978458 31.3438416,24.1682014 32.1079865,19.8343697 32.8721313,16.5483932 
	33.6362762,14.1117735 34.4004211,12.3649712 35.164566,11.1789999 35.9287109,10.4493084 36.6928558,10.0907068 
	37.4570007,10.033596 38.2211456,10.2209949 38.9852905,10.6060276 39.7494202,11.1501198 40.5135803,11.8214426 
	41.27771,12.5936527 42.0418701,13.4449596 42.8059998,14.3573236 43.5701447,15.3158274 44.3342896,16.3080044 
	45.0984344,17.3236179 45.8625793,18.3541489 46.6267242,19.3925953 47.3908691,20.4331226 48.155014,21.4709606 
	48.9191589,22.5022087 49.6833038,23.5236988 50.4474487,24.5328522 51.2116089,25.527565 51.9757385,26.5062332 
	52.7398682,27.467577 53.5040283,28.4105778 54.268158,29.3345623 55.0323181,30.2389698 55.7964478,31.1235161 
	56.5606079,31.9879627 57.3247375,32.8322639 58.0888977,33.6564713 58.8530273,34.4606819 59.6171875,35.2451019 
	60.3813171,36.0099602 61.1454773,36.7555885 61.9096069,37.4822884 62.6737671,38.1904259 63.4378967,38.8803749 
	64.2020264,39.5525436 64.9661865,40.2073479 65.7303467,40.845192 66.4944763,41.4665184 67.258606,42.0717316 
	68.0227661,42.6612701 68.7869263,43.2355423 69.5510559,43.7949867 70.3151855,44.3399887 71.0793457,44.8709869 
	71.8434753,45.3883438 72.6076355,45.892498 73.3717651,46.3837738 74.1359253,46.8626022 74.9000549,47.3293304 
	75.6642151,47.7842865 76.4283447,48.2278633 77.1925049,48.6603546 77.9566345,49.082119 78.7207642,49.4934731 
	79.4849243,49.8946991 80.2490845,50.2861061 81.0132141,50.6680183 81.7773438,51.0406685 82.5415039,51.4043655 
	83.3056641,51.7593651 84.0697937,52.1059113 84.8339233,52.4442635 85.5980835,52.7746544 86.3622131,53.0973282 
	87.1263733,53.4124794 87.8905029,53.7203674 88.6546631,54.0211868 89.4187927,54.3151093 90.1829529,54.6023979 
	90.9470825,54.8831825 91.7112427,55.1576576 92.4754028,55.4260178 93.2395325,55.6884346 94.0036621,55.9450874 
	94.7678223,56.1961021 95.5319519,56.4416542 96.2960815,56.6818924 97.0602417,56.9169693 97.8244019,57.1470375 
	98.5885315,57.3722076 99.3526611,57.5926285 100.1168213,57.8084106 100.8809814,58.0197029 101.6451111,58.2266159 
	102.4092407,58.4292564 103.1734009,58.6277351 103.937561,58.8221817 104.7016602,59.0127029 105.4658203,59.1993866 
	106.2299805,59.3823166 106.9941406,59.5616302 107.7582397,59.7374077 108.5223999,59.9097137 109.2865601,60.07864 
	110.0507202,60.2443161 110.8148193,60.4067802 111.5789795,60.5661201 112.3431396,60.7224045 113.1072998,60.8757439 
	113.8713989,61.0261955 114.6355591,61.1738281 115.3997192,61.3186874 116.1638489,61.4608574 116.928009,61.6004257 
	117.6921387,61.7374153 118.4562988,61.8719063 119.2203979,62.0039749 119.9845581,62.1336555 120.7487183,62.2610168 
	121.5128784,62.3861008 122.2770081,62.5089722 123.0411377,62.6296577 123.8052979,62.7482376 124.569458,62.8647575 
	125.3335876,62.9792595 126.0977173,63.0917702 126.8618774,63.2023468 127.6260376,63.311039 128.3901672,63.4178886 
	129.1542969,63.5229416 129.918457,63.6262131 130.6825867,63.7277718 131.4467468,63.8276405 132.2108765,63.9258614 "/>
<g id="XMLID_1_">
	<g id="XMLID_16_">
		<g id="XMLID_18_">
			<polygon id="XMLID_19_" class="st2" points="134.3238525,73.1398926 134.3238525,75.0551147 143.3333435,72.6426392 
				134.3238525,70.2259827 134.3238525,72.1413574 1.6666718,72.1413574 1.6666718,73.1398926 			"/>
		</g>
	</g>
</g>
<g id="XMLID_2_">
	<g id="XMLID_25_">
		<g id="XMLID_26_">
			<polygon id="XMLID_27_" class="st2" points="8.6381531,11.2594604 10.5533752,11.2594604 8.1408844,2.25 5.7242432,11.2594604 
				7.6396332,11.2594604 7.6396332,91.75 8.6381531,91.75 			"/>
		</g>
	</g>
</g>
<g id="XMLID_4_">
	<g id="XMLID_5_">
		<path id="XMLID_45_" class="st3" d="M137.5820313,80.2871094l1.9960938-0.3261719l-0.8330078,2.8330078
			c0.6748047-1.1621094,1.2890625-1.9736328,1.8408203-2.4365234c0.3125-0.2646484,0.5673828-0.3964844,0.7636719-0.3964844
			c0.1269531,0,0.2275391,0.0380859,0.3007813,0.1142578c0.0732422,0.0751953,0.1103516,0.1855469,0.1103516,0.3291016
			c0,0.2558594-0.0654297,0.5009766-0.1972656,0.734375c-0.0917969,0.1748047-0.2255859,0.2617188-0.3994141,0.2617188
			c-0.0878906,0-0.1640625-0.0283203-0.2285156-0.0869141c-0.0634766-0.0585938-0.1025391-0.1474609-0.1181641-0.2685547
			c-0.0078125-0.0732422-0.0253906-0.1220703-0.0517578-0.1455078c-0.03125-0.03125-0.0683594-0.046875-0.1103516-0.046875
			c-0.0654297,0-0.1269531,0.015625-0.1855469,0.046875c-0.0996094,0.0546875-0.2529297,0.2060547-0.4570313,0.4550781
			c-0.3203125,0.3808594-0.6679688,0.8740234-1.0419922,1.4804688c-0.1621094,0.2568359-0.3007813,0.5458984-0.4169922,0.8681641
			c-0.1611328,0.4433594-0.2539063,0.7089844-0.2773438,0.7988281l-0.1855469,0.734375h-0.8847656l1.0703125-3.6201172
			c0.1230469-0.4189453,0.1855469-0.71875,0.1855469-0.8974609c0-0.0703125-0.0292969-0.1279297-0.0869141-0.1748047
			c-0.0771484-0.0625-0.1796875-0.0927734-0.3066406-0.0927734c-0.0810547,0-0.2294922,0.0166016-0.4462891,0.0517578
			L137.5820313,80.2871094z"/>
	</g>
</g>
<g id="XMLID_6_">
	<g id="XMLID_17_">
		<path id="XMLID_41_" class="st3" d="M73.7773438,28.4873047v0.2148438
			c-0.5898438-0.2939453-1.0830078-0.6386719-1.4775391-1.0332031c-0.5625-0.5615234-0.996582-1.2246094-1.3012695-1.9873047
			s-0.4570313-1.5546875-0.4570313-2.375c0-1.2011719,0.2988281-2.2958984,0.8969727-3.2856445
			c0.5976563-0.9892578,1.3769531-1.6972656,2.3388672-2.1230469v0.2436523
			c-0.4804688,0.2636719-0.8759766,0.6235352-1.1845703,1.0805664s-0.5390625,1.0361328-0.6914063,1.7368164
			c-0.1523438,0.7011719-0.2285156,1.4331055-0.2285156,2.1958008c0,0.8295898,0.0644531,1.5825195,0.1933594,2.2602539
			c0.1015625,0.5341797,0.2246094,0.9628906,0.3691406,1.2861328s0.3388672,0.6337891,0.5830078,0.9326172
			C73.0634766,27.9316406,73.3828125,28.2167969,73.7773438,28.4873047z"/>
		<path id="XMLID_43_" class="st3" d="M80.0673828,18.1416016v-0.2436523c0.59375,0.2900391,1.0888672,0.6328125,1.4833984,1.027832
			c0.5585938,0.5654297,0.9902344,1.2290039,1.2958984,1.9897461c0.3046875,0.7612305,0.4570313,1.5537109,0.4570313,2.3793945
			c0,1.2001953-0.2978516,2.2949219-0.8945313,3.2841797c-0.5957031,0.9892578-1.3759766,1.6972656-2.3417969,2.1230469v-0.2148438
			c0.4804688-0.2666016,0.8769531-0.6279297,1.1875-1.0830078s0.5410156-1.0341797,0.6914063-1.7373047
			c0.1503906-0.7021484,0.2255859-1.4355469,0.2255859-2.1982422c0-0.8251953-0.0644531-1.578125-0.1933594-2.2597656
			c-0.0976563-0.534668-0.2197266-0.9624023-0.3662109-1.2836914c-0.1464844-0.3217773-0.3408203-0.6313477-0.5830078-0.9296875
			C80.7861328,18.6977539,80.4658203,18.4130859,80.0673828,18.1416016z"/>
	</g>
	<g id="XMLID_12_">
		<path id="XMLID_37_" class="st3" d="M60.0517578,26.3378906l0.6567383-6.5581055
			c0.03125-0.3330078,0.046875-0.5576172,0.046875-0.6738281c0-0.1743164-0.0654297-0.3193359-0.1962891-0.4355469
			c-0.1313477-0.1162109-0.3374023-0.1743164-0.6186523-0.1743164h-0.2109375l0.0585938-0.2148438h3.1362305l-0.0644531,0.2148438
			C62.5200195,18.5,62.2861328,18.534668,62.1591797,18.6005859s-0.2275391,0.1782227-0.3017578,0.3369141
			c-0.0390625,0.0854492-0.0800781,0.3271484-0.1230469,0.7260742l-0.4692383,4.699707l3.1015625-4.1943359
			c0.3359375-0.453125,0.546875-0.7685547,0.6328125-0.9467773c0.0585938-0.1201172,0.0878906-0.2246094,0.0878906-0.3134766
			c0-0.1044922-0.0449219-0.1958008-0.1347656-0.2729492c-0.0898438-0.0776367-0.2578125-0.1240234-0.5039063-0.1396484
			L64.519043,18.28125h2.3916016l-0.0585938,0.2148438c-0.1914063,0.015625-0.34375,0.0522461-0.4570313,0.1103516
			c-0.2148438,0.1005859-0.4291992,0.2539063-0.6420898,0.4589844s-0.550293,0.6196289-1.0112305,1.2431641l-4.4790039,6.0292969
			H60.0517578z"/>
		<path id="XMLID_39_" class="st3" d="M74.9785156,21.2265625l2.0224609-0.3256836l-0.84375,2.8237305
			c0.6835938-1.1582031,1.3056641-1.9677734,1.8642578-2.4287109c0.3164063-0.2631836,0.5742188-0.3950195,0.7734375-0.3950195
			c0.1289063,0,0.2304688,0.0380859,0.3056641,0.1132813c0.0742188,0.0756836,0.1113281,0.1850586,0.1113281,0.328125
			c0,0.2558594-0.0664063,0.5-0.1992188,0.7319336c-0.0947266,0.1743164-0.2294922,0.2617188-0.4052734,0.2617188
			c-0.0898438,0-0.1669922-0.0292969-0.2314453-0.0874023s-0.1044922-0.1469727-0.1201172-0.2670898
			c-0.0078125-0.0732422-0.0253906-0.1220703-0.0527344-0.1450195c-0.03125-0.03125-0.0683594-0.0463867-0.1113281-0.0463867
			c-0.0664063,0-0.1289063,0.0151367-0.1875,0.0463867c-0.1015625,0.0541992-0.2558594,0.2050781-0.4628906,0.453125
			c-0.3251953,0.3793945-0.6767578,0.8710938-1.0556641,1.4750977c-0.1640625,0.2558594-0.3046875,0.5439453-0.421875,0.8662109
			c-0.1640625,0.4414063-0.2578125,0.7060547-0.28125,0.7949219l-0.1875,0.7324219h-0.8974609l1.0849609-3.6074219
			c0.125-0.418457,0.1875-0.7163086,0.1875-0.8945313c0-0.0698242-0.0292969-0.1279297-0.0878906-0.1743164
			c-0.078125-0.0620117-0.1816406-0.0927734-0.3105469-0.0927734c-0.0820313,0-0.2333984,0.0170898-0.4521484,0.0522461
			L74.9785156,21.2265625z"/>
	</g>
	<g id="XMLID_7_">
		<path id="XMLID_35_" class="st3" d="M67.9458008,20.8061523l0.1816406-1.7197266
			c0.0507813-0.487793,0.1015625-0.8168945,0.1523438-0.9873047c0.0742188-0.2441406,0.1787109-0.4194336,0.3134766-0.5258789
			c0.1352539-0.1064453,0.2866211-0.159668,0.4545898-0.159668c0.140625,0,0.2519531,0.0385742,0.3339844,0.1162109
			s0.1230469,0.1762695,0.1230469,0.2963867c0,0.0927734-0.0195313,0.1914063-0.0585938,0.2958984
			c-0.0507813,0.1474609-0.1953125,0.4707031-0.4335938,0.9702148l-0.809082,1.7138672H67.9458008z"/>
	</g>
</g>
<g id="XMLID_10_">
	<g id="XMLID_13_">
		<path id="XMLID_32_" class="st4" d="M38.3994141,82.9648438c0-0.5244141,0.0791016-0.9755859,0.2382813-1.3544922
			c0.1582031-0.3779297,0.3691406-0.6601563,0.6318359-0.8457031c0.2041016-0.1464844,0.4150391-0.2197266,0.6328125-0.2197266
			c0.3535156,0,0.6708984,0.1796875,0.9521484,0.5390625c0.3515625,0.4453125,0.5273438,1.0478516,0.5273438,1.8095703
			c0,0.5341797-0.0771484,0.9863281-0.2314453,1.359375s-0.3505859,0.6435547-0.5898438,0.8125
			c-0.2392578,0.1679688-0.4697266,0.2519531-0.6923828,0.2519531c-0.4394531,0-0.8056641-0.2587891-1.0976563-0.7763672
			C38.5224609,84.1054688,38.3994141,83.5800781,38.3994141,82.9648438z M39.0654297,83.0498047
			c0,0.6328125,0.078125,1.1494141,0.2353516,1.5488281c0.1289063,0.3369141,0.3212891,0.5058594,0.578125,0.5058594
			c0.1220703,0,0.2490234-0.0546875,0.3808594-0.1650391c0.1308594-0.109375,0.2314453-0.2929688,0.2988281-0.5507813
			c0.1044922-0.3886719,0.15625-0.9365234,0.15625-1.6435547c0-0.5244141-0.0537109-0.9619141-0.1630859-1.3125
			c-0.0810547-0.2597656-0.1865234-0.4443359-0.3164063-0.5527344c-0.0927734-0.0742188-0.2050781-0.1113281-0.3359375-0.1113281
			c-0.1542969,0-0.2919922,0.0683594-0.4121094,0.2070313c-0.1630859,0.1875-0.2744141,0.4824219-0.3330078,0.8847656
			C39.0947266,82.2626953,39.0654297,82.6591797,39.0654297,83.0498047z"/>
	</g>
	<g id="XMLID_11_">
		<path id="XMLID_30_" class="st4" d="M35.315918,77.1640625l2.0297852-0.328125l-0.847168,2.8496094
			c0.6860352-1.1689453,1.3100586-1.9863281,1.8706055-2.4511719c0.3173828-0.265625,0.5771484-0.3984375,0.7763672-0.3984375
			c0.1298828,0,0.2314453,0.0380859,0.3066406,0.1142578c0.0742188,0.0761719,0.1113281,0.1865234,0.1113281,0.3310547
			c0,0.2578125-0.0664063,0.5039063-0.2001953,0.7392578c-0.09375,0.1757813-0.2294922,0.2636719-0.4052734,0.2636719
			c-0.0908203,0-0.1679688-0.0292969-0.2324219-0.0878906s-0.1054688-0.1484375-0.1210938-0.2695313
			c-0.0078125-0.0742188-0.0253906-0.1240234-0.0527344-0.1474609c-0.03125-0.03125-0.0683594-0.046875-0.1113281-0.046875
			c-0.0673828,0-0.1298828,0.015625-0.1889648,0.046875c-0.1020508,0.0556641-0.2568359,0.2080078-0.4643555,0.4580078
			c-0.3256836,0.3828125-0.6787109,0.8789063-1.059082,1.4892578c-0.1650391,0.2578125-0.3061523,0.5498047-0.4238281,0.8740234
			c-0.1645508,0.4453125-0.2587891,0.7128906-0.2822266,0.8027344l-0.1884766,0.7392578h-0.8999023l1.0883789-3.6416016
			c0.1254883-0.421875,0.1884766-0.7236328,0.1884766-0.9033203c0-0.0703125-0.0297852-0.1289063-0.0883789-0.1757813
			c-0.0786133-0.0625-0.1826172-0.09375-0.3120117-0.09375c-0.0820313,0-0.2333984,0.0175781-0.4526367,0.0527344
			L35.315918,77.1640625z"/>
	</g>
</g>
<g id="XMLID_14_">
	<g id="XMLID_21_">
		<path id="XMLID_28_" class="st3" d="M22.6533203,81.0908203l1.1142578-0.5458984h0.1113281v3.8808594
			c0,0.2578125,0.0107422,0.4189453,0.0322266,0.4814453c0.0205078,0.0634766,0.0654297,0.1123047,0.1328125,0.1464844
			c0.0673828,0.0332031,0.2050781,0.0527344,0.4121094,0.0576172v0.125h-1.7226563v-0.125
			c0.2167969-0.0048828,0.3564453-0.0234375,0.4189453-0.0566406c0.0634766-0.0322266,0.1074219-0.0761719,0.1318359-0.1318359
			c0.0253906-0.0556641,0.0371094-0.2207031,0.0371094-0.4970703v-2.4814453c0-0.3339844-0.0107422-0.5488281-0.0332031-0.6435547
			c-0.015625-0.0722656-0.0449219-0.1259766-0.0859375-0.1591797c-0.0419922-0.0341797-0.0917969-0.0507813-0.1503906-0.0507813
			c-0.0839844,0-0.1992188,0.0341797-0.3476563,0.1044922L22.6533203,81.0908203z"/>
	</g>
	<g id="XMLID_20_">
		<path id="XMLID_22_" class="st3" d="M19.6943359,77.1640625l2.0146484-0.328125l-0.8408203,2.8496094
			c0.6811523-1.1689453,1.300293-1.9863281,1.8574219-2.4511719c0.3144531-0.265625,0.5722656-0.3984375,0.7705078-0.3984375
			c0.1289063,0,0.2294922,0.0380859,0.3037109,0.1142578s0.1113281,0.1865234,0.1113281,0.3310547
			c0,0.2578125-0.0664063,0.5039063-0.1992188,0.7392578c-0.0927734,0.1757813-0.2275391,0.2636719-0.4023438,0.2636719
			c-0.0898438,0-0.1669922-0.0292969-0.2314453-0.0878906c-0.0634766-0.0585938-0.1044922-0.1484375-0.1191406-0.2695313
			c-0.0087891-0.0742188-0.0253906-0.1240234-0.0527344-0.1474609c-0.03125-0.03125-0.0683594-0.046875-0.1103516-0.046875
			c-0.0664063,0-0.1289063,0.015625-0.1875,0.046875c-0.1015625,0.0556641-0.2548828,0.2080078-0.4614258,0.4580078
			c-0.3232422,0.3828125-0.6733398,0.8789063-1.0512695,1.4892578c-0.1635742,0.2578125-0.3037109,0.5498047-0.4204102,0.8740234
			c-0.1635742,0.4453125-0.2568359,0.7128906-0.2802734,0.8027344l-0.1870117,0.7392578h-0.8935547l1.0805664-3.6416016
			c0.1245117-0.421875,0.1870117-0.7236328,0.1870117-0.9033203c0-0.0703125-0.0292969-0.1289063-0.0878906-0.1757813
			c-0.0776367-0.0625-0.1806641-0.09375-0.3095703-0.09375c-0.081543,0-0.2314453,0.0175781-0.449707,0.0527344
			L19.6943359,77.1640625z"/>
	</g>
</g>
<g id="XMLID_9_">
</g>
<g id="XMLID_47_">
</g>
<g id="XMLID_48_">
</g>
<g id="XMLID_49_">
</g>
<g id="XMLID_50_">
</g>
<g id="XMLID_51_">
</g>
</svg>
