<?xml version="1.0" encoding="utf-8"?>
<!-- Generator: Adobe Illustrator 19.0.0, SVG Export Plug-In . SVG Version: 6.00 Build 0)  -->
<svg version="1.1" id="Layer_1" xmlns="http://www.w3.org/2000/svg" xmlns:xlink="http://www.w3.org/1999/xlink" x="0px" y="0px"
	 viewBox="0 0 171.3333282 152.6666718" style="enable-background:new 0 0 171.3333282 152.6666718;" xml:space="preserve">
<style type="text/css">
	.st0{fill:#010101;}
	.st1{fill:#EF4136;}
	.st2{fill:none;stroke:#010101;stroke-width:0.5906434;stroke-linecap:square;stroke-miterlimit:10;}
	.st3{fill:none;stroke:#000000;stroke-miterlimit:10;}
	.st4{fill:none;stroke:#000000;stroke-miterlimit:10;stroke-dasharray:4.9860182,4.9860182;}
	.st5{fill:none;stroke:#000000;stroke-miterlimit:10;stroke-dasharray:4.6429257,4.6429257;}
	.st6{fill:none;stroke:#010101;stroke-miterlimit:10;}
</style>
<g id="XMLID_1_">
	<g id="XMLID_51_">
		<g id="XMLID_52_">
			<polygon id="XMLID_53_" points="138.0448914,115.8564453 138.0448914,117.8628845 147.4833984,115.3355103 
				138.0448914,112.803772 138.0448914,114.8103943 4,114.8103943 4,115.8564453 			"/>
		</g>
	</g>
</g>
<g id="XMLID_3_">
	<g id="XMLID_20_">
		<g id="XMLID_22_">
			<polygon id="XMLID_49_" points="31.189743,24.7620544 33.196167,24.7620544 30.668808,15.3235474 28.1370697,24.7620544 
				30.1436768,24.7620544 30.1436768,148.6666565 31.189743,148.6666565 			"/>
		</g>
	</g>
</g>
<g id="XMLID_4_">
	<g id="XMLID_5_">
		<path id="XMLID_79_" class="st0" d="M162.2402344,119h-2.1171875l-2.6855469-3.7099609
			c-0.1982422,0.0078125-0.3603516,0.0117188-0.4853516,0.0117188c-0.0507813,0-0.1054688-0.0009766-0.1630859-0.0029297
			c-0.0585938-0.0019531-0.1191406-0.0048828-0.1816406-0.0087891v2.3056641c0,0.4990234,0.0546875,0.8095703,0.1640625,0.9306641
			c0.1474609,0.1708984,0.3701172,0.2568359,0.6660156,0.2568359h0.3105469V119h-3.3984375v-0.2167969h0.2978516
			c0.3359375,0,0.5751953-0.1083984,0.7197266-0.3271484c0.0820313-0.1210938,0.1230469-0.4082031,0.1230469-0.8603516v-5.1254883
			c0-0.4995117-0.0546875-0.8095703-0.1640625-0.9306641c-0.1523438-0.1713867-0.3779297-0.2573242-0.6787109-0.2573242h-0.2978516
			v-0.2163086h2.8896484c0.8417969,0,1.4628906,0.0610352,1.8623047,0.184082
			c0.4003906,0.1230469,0.7392578,0.3491211,1.0185547,0.6787109c0.2783203,0.3295898,0.4179688,0.7226563,0.4179688,1.1791992
			c0,0.487793-0.1591797,0.9106445-0.4765625,1.2695313c-0.3183594,0.3588867-0.8105469,0.612793-1.4775391,0.7612305
			l1.6376953,2.2753906c0.375,0.5234375,0.6962891,0.8701172,0.9648438,1.0419922
			c0.2695313,0.171875,0.6201172,0.2802734,1.0537109,0.3271484V119z M156.6074219,114.921875
			c0.0742188,0,0.1386719,0.0009766,0.1933594,0.0029297c0.0537109,0.0019531,0.0986328,0.0029297,0.1337891,0.0029297
			c0.7568359,0,1.3271484-0.1640625,1.7109375-0.4916992c0.3847656-0.3276367,0.5761719-0.7451172,0.5761719-1.2519531
			c0-0.4956055-0.1542969-0.8984375-0.4648438-1.2084961c-0.3095703-0.3100586-0.7207031-0.465332-1.2314453-0.465332
			c-0.2255859,0-0.5322266,0.0371094-0.9179688,0.1113281V114.921875z"/>
		<path id="XMLID_82_" class="st0" d="M163.4580078,115.6591797c-0.0039063,0.7958984,0.1884766,1.4199219,0.5791016,1.8720703
			c0.3896484,0.453125,0.8476563,0.6787109,1.3740234,0.6787109c0.3515625,0,0.65625-0.0966797,0.9160156-0.2890625
			c0.2587891-0.1933594,0.4765625-0.5244141,0.6513672-0.9921875l0.1816406,0.1171875
			c-0.0820313,0.5341797-0.3193359,1.0205078-0.7138672,1.4599609c-0.3935547,0.4384766-0.8867188,0.6582031-1.4794922,0.6582031
			c-0.6435547,0-1.1943359-0.2509766-1.6523438-0.7519531s-0.6875-1.1748047-0.6875-2.0214844
			c0-0.9169922,0.2353516-1.6318359,0.7050781-2.1445313c0.4697266-0.5131836,1.0595703-0.7695313,1.7695313-0.7695313
			c0.6005859,0,1.09375,0.1977539,1.4794922,0.59375c0.3867188,0.3959961,0.5791016,0.925293,0.5791016,1.5888672H163.4580078z
			 M163.4580078,115.3193359H165.9375c-0.0195313-0.3427734-0.0605469-0.5849609-0.1220703-0.7250977
			c-0.0976563-0.21875-0.2431641-0.3901367-0.4365234-0.5151367c-0.1923828-0.125-0.3945313-0.1870117-0.6054688-0.1870117
			c-0.3232422,0-0.6132813,0.1254883-0.8681641,0.3774414C163.6494141,114.5209961,163.5009766,114.8710938,163.4580078,115.3193359
			z"/>
	</g>
</g>
<g id="XMLID_6_">
	<g id="XMLID_7_">
		<path id="XMLID_75_" class="st0" d="M26.3417969,10.3808594v0.2148438h-3.3984375v-0.2148438h0.2807617
			c0.3276367,0,0.5654297-0.0957031,0.7133789-0.2851563c0.09375-0.1240234,0.140625-0.4228516,0.140625-0.8955078V4.1044922
			c0-0.3994141-0.0253906-0.6630859-0.0761719-0.7910156c-0.0390625-0.097168-0.1191406-0.1806641-0.2397461-0.2504883
			c-0.1713867-0.0927734-0.3510742-0.1391602-0.5380859-0.1391602h-0.2807617v-0.215332h3.3984375v0.215332h-0.2866211
			c-0.3237305,0-0.5595703,0.0947266-0.7080078,0.284668C25.25,3.3330078,25.2011719,3.6313477,25.2011719,4.1044922v5.0957031
			c0,0.3994141,0.0253906,0.6630859,0.0761719,0.7910156c0.0385742,0.0966797,0.1206055,0.1796875,0.2456055,0.25
			c0.1674805,0.0927734,0.3452148,0.1396484,0.5322266,0.1396484H26.3417969z"/>
		<path id="XMLID_77_" class="st0" d="M28.3598633,6.2451172C28.75,5.8569336,28.9799805,5.6342773,29.050293,5.5761719
			c0.175293-0.1474609,0.3642578-0.2617188,0.5673828-0.3432617s0.4042969-0.1220703,0.6015625-0.1220703
			c0.3359375,0,0.625,0.0966797,0.8671875,0.2905273c0.2402344,0.1938477,0.4023438,0.4750977,0.484375,0.84375
			c0.4023438-0.465332,0.7402344-0.7709961,1.0175781-0.9165039c0.2773438-0.1450195,0.5625-0.2177734,0.8535156-0.2177734
			c0.2851563,0,0.5390625,0.0727539,0.7578125,0.2177734c0.2207031,0.1455078,0.3945313,0.3833008,0.5234375,0.7128906
			c0.0859375,0.2241211,0.1289063,0.5776367,0.1289063,1.0581055v2.2919922c0,0.3339844,0.0253906,0.5625,0.0761719,0.6865234
			c0.0390625,0.0849609,0.1113281,0.1582031,0.2167969,0.2177734c0.1054688,0.0605469,0.2773438,0.0908203,0.515625,0.0908203
			v0.2089844h-2.6445313v-0.2089844h0.1113281c0.2304688,0,0.4082031-0.0449219,0.5371094-0.1337891
			c0.0898438-0.0625,0.1542969-0.1611328,0.1933594-0.296875c0.015625-0.0664063,0.0234375-0.2539063,0.0234375-0.5644531V7.0996094
			c0-0.4335938-0.0527344-0.7402344-0.1582031-0.9189453c-0.1523438-0.2480469-0.3945313-0.3720703-0.7304688-0.3720703
			c-0.2070313,0-0.4140625,0.0512695-0.6230469,0.1542969c-0.2089844,0.1025391-0.4609375,0.2929688-0.7578125,0.5722656
			l-0.0117188,0.0644531l0.0117188,0.25v2.5419922c0,0.3642578,0.0214844,0.5917969,0.0625,0.6806641
			s0.1171875,0.1640625,0.2304688,0.2236328c0.1132813,0.0605469,0.3066406,0.0908203,0.578125,0.0908203v0.2089844h-2.7070313
			v-0.2089844c0.2949219,0,0.5-0.0351563,0.6113281-0.1054688c0.1113281-0.0693359,0.1875-0.1738281,0.2304688-0.3134766
			c0.0195313-0.0664063,0.0292969-0.2578125,0.0292969-0.5761719V7.0996094c0-0.4335938-0.0644531-0.7460938-0.1933594-0.9360352
			c-0.171875-0.2480469-0.4121094-0.3725586-0.71875-0.3725586c-0.2109375,0-0.4194336,0.0566406-0.6264648,0.1689453
			c-0.3237305,0.1704102-0.5732422,0.3623047-0.7485352,0.5751953v2.8564453c0,0.3486328,0.0244141,0.5761719,0.0732422,0.6806641
			s0.1206055,0.1835938,0.2163086,0.2353516c0.0957031,0.0527344,0.2895508,0.0791016,0.5820313,0.0791016v0.2089844H26.581543
			v-0.2089844c0.2456055,0,0.4174805-0.0263672,0.5151367-0.0791016c0.097168-0.0517578,0.1713867-0.1357422,0.222168-0.25
			c0.050293-0.1142578,0.0756836-0.3359375,0.0756836-0.6660156V7.3554688c0-0.5849609-0.0170898-0.9628906-0.0522461-1.1337891
			c-0.0273438-0.1279297-0.0703125-0.2163086-0.1289063-0.2646484s-0.1381836-0.0727539-0.2397461-0.0727539
			c-0.109375,0-0.2397461,0.0292969-0.3920898,0.0874023L26.4941406,5.762207l1.6142578-0.6513672h0.2514648V6.2451172z"/>
	</g>
</g>
<g id="XMLID_2_">
	<g id="XMLID_129_">
		<g id="XMLID_130_">
			<polygon id="XMLID_131_" class="st1" points="105.241394,36.6012878 106.7047424,37.973999 111.3189697,29.361145 
				103.0150146,34.5127258 104.4784546,35.8855896 30.2852631,114.9755554 31.048172,115.6912231 			"/>
		</g>
	</g>
</g>
<g id="XMLID_9_">
	<line id="XMLID_27_" class="st2" x1="96.715332" y1="10.5957031" x2="96.715332" y2="24.7711487"/>
	<line id="XMLID_26_" class="st2" x1="107.1258316" y1="10.5957031" x2="107.1258316" y2="24.7711487"/>
	<g id="XMLID_21_">
		<path id="XMLID_72_" class="st0" d="M121.2094727,17.347168c-0.0039063,0.7929688,0.1884766,1.4140625,0.578125,1.8652344
			s0.8476563,0.6757813,1.3730469,0.6757813c0.3515625,0,0.65625-0.0957031,0.9150391-0.2880859
			s0.4765625-0.5214844,0.6513672-0.9882813l0.1816406,0.1162109c-0.0820313,0.5332031-0.3193359,1.0175781-0.7128906,1.4550781
			c-0.3935547,0.4365234-0.8867188,0.6552734-1.4785156,0.6552734c-0.6435547,0-1.1933594-0.25-1.6513672-0.7490234
			s-0.6865234-1.1708984-0.6865234-2.0136719c0-0.9130859,0.234375-1.625,0.7041016-2.1362305
			c0.4697266-0.5107422,1.0585938-0.7666016,1.7675781-0.7666016c0.6005859,0,1.0927734,0.1972656,1.4785156,0.5917969
			s0.5791016,0.921875,0.5791016,1.5825195H121.2094727z M121.2094727,17.0087891h2.4775391
			c-0.0195313-0.3417969-0.0605469-0.5825195-0.1230469-0.7226563c-0.0966797-0.2172852-0.2421875-0.3881836-0.4345703-0.5126953
			c-0.1933594-0.1245117-0.3945313-0.1865234-0.6054688-0.1865234c-0.3232422,0-0.6123047,0.125-0.8681641,0.3759766
			C121.4008789,16.2133789,121.2514648,16.5620117,121.2094727,17.0087891z"/>
	</g>
	<g id="XMLID_12_">
		<path id="XMLID_70_" class="st0" d="M127.1186523,12.2739258c0.1103516,0.1171875,0.1943359,0.2338867,0.25,0.3505859
			c0.0410156,0.0810547,0.1074219,0.293457,0.1992188,0.6367188l0.2978516-0.4443359
			c0.0791016-0.1079102,0.1748047-0.2109375,0.2871094-0.3085938s0.2119141-0.1645508,0.296875-0.2006836
			c0.0546875-0.0224609,0.1142578-0.0336914,0.1796875-0.0336914c0.0966797,0,0.1738281,0.0258789,0.2314453,0.0776367
			s0.0859375,0.1147461,0.0859375,0.1889648c0,0.0854492-0.0166016,0.1435547-0.0507813,0.1748047
			c-0.0634766,0.0566406-0.1347656,0.0844727-0.2158203,0.0844727c-0.0478516,0-0.0986328-0.0102539-0.1523438-0.0302734
			c-0.1054688-0.0361328-0.1767578-0.0541992-0.2128906-0.0541992c-0.0537109,0-0.1181641,0.0317383-0.1923828,0.0947266
			c-0.1396484,0.1166992-0.3066406,0.3422852-0.5,0.6772461l0.2763672,1.1591797
			c0.0429688,0.1772461,0.0791016,0.2836914,0.1083984,0.3183594s0.0585938,0.0522461,0.0878906,0.0522461
			c0.0478516,0,0.1025391-0.0258789,0.1660156-0.0776367c0.1230469-0.1030273,0.2294922-0.237793,0.3173828-0.4042969
			l0.1181641,0.0605469c-0.1416016,0.2651367-0.3222656,0.4853516-0.5410156,0.6606445
			c-0.1240234,0.0986328-0.2285156,0.1484375-0.3134766,0.1484375c-0.1269531,0-0.2265625-0.0708008-0.3007813-0.2124023
			c-0.0478516-0.0878906-0.1455078-0.465332-0.2939453-1.1323242c-0.3515625,0.6088867-0.6328125,1.0009766-0.8447266,1.1762695
			c-0.1376953,0.1123047-0.2705078,0.168457-0.3994141,0.168457c-0.0898438,0-0.171875-0.0327148-0.2460938-0.0981445
			c-0.0537109-0.0493164-0.0810547-0.1152344-0.0810547-0.1987305c0-0.0742188,0.0244141-0.1357422,0.0742188-0.1850586
			s0.1103516-0.0742188,0.1826172-0.0742188s0.1484375,0.0361328,0.2294922,0.1079102
			c0.0585938,0.0517578,0.1035156,0.0771484,0.1347656,0.0771484c0.0273438,0,0.0625-0.0175781,0.1054688-0.0537109
			c0.1054688-0.0854492,0.25-0.2695313,0.4326172-0.5527344c0.1816406-0.2827148,0.3017578-0.4873047,0.3574219-0.6132813
			c-0.1396484-0.5458984-0.2148438-0.8344727-0.2255859-0.8657227c-0.0527344-0.1459961-0.1201172-0.2495117-0.203125-0.3100586
			s-0.2060547-0.0913086-0.3681641-0.0913086c-0.0517578,0-0.1113281,0.0024414-0.1796875,0.0068359v-0.1210938
			L127.1186523,12.2739258z"/>
	</g>
	<g id="XMLID_11_">
		<path id="XMLID_68_" class="st0" d="M103.3710938,15.4003906l0.4033203,4.371582
			c0.6782227-0.7929688,1.2197266-1.5371094,1.625-2.2324219c0.2373047-0.4082031,0.3564453-0.7036133,0.3564453-0.8862305
			c0-0.0854492-0.0195313-0.1611328-0.0585938-0.2270508c-0.015625-0.0351563-0.0771484-0.0864258-0.184082-0.1547852
			c-0.1074219-0.0678711-0.1821289-0.1376953-0.2250977-0.2094727s-0.0639648-0.1489258-0.0639648-0.2304688
			c0-0.1201172,0.0444336-0.222168,0.1342773-0.3061523c0.0893555-0.0834961,0.2045898-0.125,0.3447266-0.125
			c0.159668,0,0.2949219,0.059082,0.40625,0.1777344c0.1108398,0.1186523,0.1665039,0.2768555,0.1665039,0.4750977
			c0,0.2021484-0.0292969,0.390625-0.0878906,0.5654297c-0.1166992,0.3339844-0.3447266,0.765625-0.6835938,1.2939453
			c-0.4130859,0.6337891-0.8388672,1.2207031-1.2768555,1.7626953c-0.4384766,0.5419922-0.7646484,0.921875-0.9790039,1.1396484
			h-0.2163086l-0.3798828-4.0332031l-2.4135742,4.0332031h-0.2573242c-0.0273438-1.6591797-0.1108398-2.9677734-0.2509766-3.9282227
			c-0.0585938-0.4003906-0.15625-0.6625977-0.2924805-0.7871094c-0.097168-0.0893555-0.2451172-0.1337891-0.4438477-0.1337891
			c-0.1132813,0-0.2573242,0.0117188-0.4326172,0.034668v-0.2094727l1.6772461-0.390625
			c0.2338867,0.6489258,0.3857422,1.6455078,0.4560547,2.9897461c0.0229492,0.5097656,0.0424805,0.8300781,0.0581055,0.9619141
			l2.4023438-3.9516602H103.3710938z"/>
	</g>
	<g id="XMLID_10_">
		<path id="XMLID_65_" class="st0" d="M110.9873047,16.2514648h6.1362305v0.5654297h-6.1362305V16.2514648z M110.9873047,18.425293
			h6.1362305v0.5771484h-6.1362305V18.425293z"/>
	</g>
</g>
<g id="XMLID_8_">
	<g id="XMLID_38_">
		<line id="XMLID_41_" class="st3" x1="77.4529419" y1="65.4591675" x2="77.4529419" y2="67.9591675"/>
		<line id="XMLID_40_" class="st4" x1="77.4529419" y1="72.9451904" x2="77.4529419" y2="110.340332"/>
		<line id="XMLID_39_" class="st3" x1="77.4529419" y1="112.8333435" x2="77.4529419" y2="115.3333435"/>
	</g>
</g>
<g id="XMLID_28_">
	<g id="XMLID_44_">
		<line id="XMLID_47_" class="st3" x1="30.6666412" y1="65.4591675" x2="33.1666412" y2="65.4591675"/>
		<line id="XMLID_46_" class="st5" x1="37.8095703" y1="65.4591675" x2="72.6315155" y2="65.4591675"/>
		<line id="XMLID_45_" class="st3" x1="74.9529724" y1="65.4591675" x2="77.4529724" y2="65.4591675"/>
	</g>
</g>
<g id="XMLID_23_">
	<g id="XMLID_24_">
		<path id="XMLID_63_" class="st0" d="M53.8681641,102.675293c0.1333008,0.2250977,0.2255859,0.4355469,0.2763672,0.6313477
			s0.1020508,0.5805664,0.152832,1.1542969l0.2592773,2.8623047c0.2353516-0.2792969,0.5761719-0.7216797,1.0234375-1.3266602
			c0.2158203-0.2944336,0.4824219-0.6958008,0.7998047-1.2041016c0.1923828-0.3100586,0.3095703-0.5273438,0.3535156-0.6513672
			c0.0234375-0.0620117,0.0351563-0.1259766,0.0351563-0.1918945c0-0.0424805-0.0136719-0.0776367-0.0410156-0.1044922
			c-0.0273438-0.0273438-0.0996094-0.059082-0.2148438-0.0961914c-0.1162109-0.0366211-0.2119141-0.1044922-0.2880859-0.2036133
			c-0.0771484-0.0986328-0.1152344-0.2124023-0.1152344-0.340332c0-0.1586914,0.046875-0.2866211,0.1416016-0.3837891
			c0.09375-0.0966797,0.2119141-0.1455078,0.3525391-0.1455078c0.1728516,0,0.3193359,0.0708008,0.4414063,0.2124023
			c0.1210938,0.1416016,0.1826172,0.3364258,0.1826172,0.5844727c0,0.3066406-0.1064453,0.6567383-0.3183594,1.0498047
			c-0.2109375,0.394043-0.6191406,0.9975586-1.2236328,1.8120117c-0.6035156,0.8144531-1.3349609,1.7021484-2.1938477,2.6640625
			c-0.5922852,0.6630859-1.0317383,1.0810547-1.3178711,1.2539063c-0.2861328,0.171875-0.53125,0.2587891-0.7353516,0.2587891
			c-0.121582,0-0.2285156-0.0458984-0.3208008-0.1367188c-0.0917969-0.0917969-0.1381836-0.1972656-0.1381836-0.3173828
			c0-0.1513672,0.0639648-0.2890625,0.1914063-0.4130859s0.265625-0.1855469,0.4145508-0.1855469
			c0.0786133,0,0.1430664,0.0166016,0.1943359,0.0517578c0.03125,0.0195313,0.0654297,0.0751953,0.1025391,0.1660156
			c0.0375977,0.0908203,0.0717773,0.1523438,0.1030273,0.1835938c0.0195313,0.0185547,0.043457,0.0283203,0.0708008,0.0283203
			c0.0234375,0,0.0644531-0.0195313,0.1235352-0.0576172c0.2158203-0.1318359,0.4667969-0.3417969,0.7529297-0.6289063
			c0.3764648-0.3798828,0.6547852-0.6894531,0.8354492-0.9296875l-0.3295898-3.6879883
			c-0.0546875-0.6088867-0.137207-0.9794922-0.2470703-1.1113281s-0.2939453-0.1977539-0.5527344-0.1977539
			c-0.0825195,0-0.2294922,0.0117188-0.4414063,0.0351563l-0.0527344-0.215332L53.8681641,102.675293z"/>
	</g>
</g>
<path id="XMLID_25_" class="st6" d="M40.841465,104.4869919C44.75,107.9394531,45.8333321,110,45.8333321,115.3333359"/>
<g id="XMLID_29_">
	<g id="XMLID_35_">
		<path id="XMLID_56_" class="st0" d="M71.2421875,124.4150391c-0.1445313,0.7021484-0.4277344,1.2421875-0.8500977,1.6201172
			c-0.421875,0.3779297-0.8891602,0.5673828-1.4008789,0.5673828c-0.6098633,0-1.1411133-0.2539063-1.5947266-0.7617188
			c-0.453125-0.5087891-0.6801758-1.1953125-0.6801758-2.0595703c0-0.8378906,0.2514648-1.5185547,0.753418-2.0419922
			c0.5024414-0.5234375,1.1049805-0.7851563,1.8085938-0.7851563c0.527832,0,0.9614258,0.1386719,1.3017578,0.4160156
			c0.3398438,0.2773438,0.5097656,0.5654297,0.5097656,0.8632813c0,0.1474609-0.0478516,0.2666016-0.1435547,0.3583984
			c-0.0957031,0.0908203-0.2294922,0.1367188-0.4013672,0.1367188c-0.230957,0-0.4047852-0.0742188-0.5219727-0.2216797
			c-0.0664063-0.0810547-0.1103516-0.2363281-0.1318359-0.4648438s-0.1005859-0.4033203-0.2373047-0.5234375
			c-0.137207-0.1162109-0.3266602-0.1748047-0.5688477-0.1748047c-0.390625,0-0.7055664,0.1435547-0.9438477,0.4306641
			c-0.3164063,0.3798828-0.4750977,0.8818359-0.4750977,1.5068359c0,0.6357422,0.1577148,1.1972656,0.472168,1.6835938
			s0.7397461,0.7304688,1.2749023,0.7304688c0.3833008,0,0.7270508-0.1298828,1.0322266-0.390625
			c0.2148438-0.1777344,0.4238281-0.5019531,0.6269531-0.9707031L71.2421875,124.4150391z"/>
		<path id="XMLID_58_" class="st0" d="M74.5644531,120.9541016c0.8129883,0,1.4658203,0.3066406,1.9580078,0.9189453
			c0.418457,0.5234375,0.6274414,1.125,0.6274414,1.8037109c0,0.4765625-0.1152344,0.9589844-0.3457031,1.4482422
			c-0.230957,0.4882813-0.5483398,0.8574219-0.9526367,1.1054688c-0.4047852,0.2480469-0.8549805,0.3720703-1.3515625,0.3720703
			c-0.809082,0-1.4516602-0.3203125-1.9287109-0.9599609c-0.4023438-0.5390625-0.6040039-1.1445313-0.6040039-1.8154297
			c0-0.4882813,0.1225586-0.9736328,0.3666992-1.4570313c0.2441406-0.4824219,0.5654297-0.8388672,0.9643555-1.0703125
			C73.6967773,121.0693359,74.1191406,120.9541016,74.5644531,120.9541016z M74.3828125,121.3320313
			c-0.2070313,0-0.4155273,0.0615234-0.6245117,0.1835938s-0.3779297,0.3359375-0.5068359,0.6425781
			s-0.1933594,0.7001953-0.1933594,1.1806641c0,0.7753906,0.1552734,1.4443359,0.4658203,2.0068359
			s0.7202148,0.84375,1.2280273,0.84375c0.3793945,0,0.6918945-0.1552734,0.9379883-0.4658203
			c0.246582-0.3095703,0.3696289-0.84375,0.3696289-1.5996094c0-0.9462891-0.2050781-1.6904297-0.6157227-2.2333984
			C75.1665039,121.5185547,74.8125,121.3320313,74.3828125,121.3320313z"/>
		<path id="XMLID_61_" class="st0" d="M81.4116211,120.9541016v1.8144531h-0.1933594
			c-0.1484375-0.5693359-0.3378906-0.9570313-0.5703125-1.1630859c-0.2324219-0.2050781-0.5292969-0.3085938-0.8886719-0.3085938
			c-0.2734375,0-0.4941406,0.0722656-0.6621094,0.2158203c-0.1689453,0.1435547-0.2529297,0.3027344-0.2529297,0.4765625
			c0,0.2177734,0.0625,0.4033203,0.1884766,0.5585938c0.1210938,0.1591797,0.3671875,0.328125,0.7382813,0.5058594
			l0.8554688,0.4130859c0.7929688,0.3837891,1.1894531,0.8896484,1.1894531,1.5185547
			c0,0.484375-0.1835938,0.875-0.5527344,1.171875s-0.7832031,0.4453125-1.2402344,0.4453125
			c-0.328125,0-0.703125-0.0585938-1.1259766-0.1748047c-0.1289063-0.0390625-0.234375-0.0576172-0.3164063-0.0576172
			c-0.0898438,0-0.1601563,0.0498047-0.2109375,0.1503906h-0.1933594v-1.9023438h0.1933594
			c0.109375,0.5439453,0.3183594,0.953125,0.6279297,1.2275391c0.3085938,0.2753906,0.6542969,0.4130859,1.0371094,0.4130859
			c0.2695313,0,0.4902344-0.078125,0.6601563-0.2353516s0.2539063-0.3457031,0.2539063-0.5673828
			c0-0.2666016-0.09375-0.4921875-0.2832031-0.6748047c-0.1894531-0.1816406-0.5683594-0.4130859-1.1347656-0.6923828
			c-0.5673828-0.2783203-0.9384766-0.53125-1.1142578-0.7558594c-0.1757813-0.2207031-0.2636719-0.5-0.2636719-0.8378906
			c0-0.4375,0.1513672-0.8037109,0.4541016-1.0986328s0.6953125-0.4423828,1.1757813-0.4423828
			c0.2109375,0,0.4667969,0.0449219,0.7675781,0.1337891c0.1992188,0.0585938,0.3320313,0.0869141,0.3984375,0.0869141
			c0.0625,0,0.1113281-0.0126953,0.1464844-0.0400391s0.0761719-0.0878906,0.1230469-0.1806641H81.4116211z"/>
	</g>
	<g id="XMLID_30_">
		<path id="XMLID_54_" class="st0" d="M86.9887695,121.1748047c0.1328125,0.2255859,0.2246094,0.4355469,0.2753906,0.6318359
			c0.0507813,0.1953125,0.1015625,0.5800781,0.1523438,1.1542969l0.2578125,2.8623047
			c0.2353516-0.2792969,0.5751953-0.7216797,1.0205078-1.3271484c0.2148438-0.2939453,0.4804688-0.6953125,0.796875-1.2041016
			c0.1914063-0.3095703,0.3095703-0.5273438,0.3525391-0.6513672c0.0234375-0.0615234,0.0351563-0.1259766,0.0351563-0.1914063
			c0-0.0429688-0.0136719-0.078125-0.0410156-0.1044922c-0.0273438-0.0273438-0.0996094-0.0595703-0.2148438-0.0966797
			c-0.1152344-0.0361328-0.2109375-0.1044922-0.2871094-0.203125s-0.1142578-0.2128906-0.1142578-0.3408203
			c0-0.1582031,0.046875-0.2861328,0.140625-0.3837891c0.09375-0.0966797,0.2109375-0.1455078,0.3525391-0.1455078
			c0.171875,0,0.3183594,0.0712891,0.4394531,0.2128906s0.1816406,0.3359375,0.1816406,0.5839844
			c0,0.3066406-0.1054688,0.6572266-0.3164063,1.0498047c-0.2109375,0.3945313-0.6181641,0.9980469-1.2197266,1.8125
			s-1.3310547,1.7021484-2.1865234,2.6640625c-0.5908203,0.6630859-1.0283203,1.0810547-1.3134766,1.2539063
			c-0.2851563,0.171875-0.5292969,0.2587891-0.7324219,0.2587891c-0.1210938,0-0.2275391-0.0458984-0.3193359-0.1367188
			c-0.0917969-0.0917969-0.1386719-0.1972656-0.1386719-0.3173828c0-0.1513672,0.0644531-0.2890625,0.1914063-0.4130859
			s0.2646484-0.1855469,0.4130859-0.1855469c0.078125,0,0.1425781,0.0166016,0.1933594,0.0517578
			c0.03125,0.0195313,0.0654297,0.0751953,0.1025391,0.1660156s0.0712891,0.1523438,0.1025391,0.1835938
			c0.0195313,0.0185547,0.0429688,0.0283203,0.0703125,0.0283203c0.0234375,0,0.0644531-0.0195313,0.1230469-0.0576172
			c0.2148438-0.1318359,0.4648438-0.3417969,0.7509766-0.6289063c0.375-0.3798828,0.6523438-0.6894531,0.8320313-0.9296875
			l-0.328125-3.6884766c-0.0546875-0.6083984-0.1367188-0.9794922-0.2460938-1.1113281s-0.2929688-0.1972656-0.5517578-0.1972656
			c-0.0820313,0-0.2285156,0.0117188-0.4394531,0.0351563l-0.0527344-0.2158203L86.9887695,121.1748047z"/>
	</g>
</g>
<g id="XMLID_36_">
	<g id="XMLID_48_">
		<path id="XMLID_16_" class="st0" d="M6.5854492,59.980957v1.8125H6.3930664
			c-0.1479492-0.5693359-0.3374023-0.956543-0.5683594-1.1616211c-0.230957-0.2055664-0.5253906-0.3081055-0.8828125-0.3081055
			c-0.2719727,0-0.4916992,0.0717773-0.6586914,0.2148438c-0.1669922,0.1435547-0.2504883,0.3022461-0.2504883,0.4765625
			c0,0.2167969,0.0620117,0.402832,0.1865234,0.5576172c0.1201172,0.1586914,0.3652344,0.3271484,0.734375,0.5053711
			l0.8505859,0.4125977c0.7885742,0.3833008,1.1831055,0.8881836,1.1831055,1.5161133
			c0,0.484375-0.1835938,0.8740234-0.5507813,1.1708984c-0.3671875,0.2958984-0.777832,0.4443359-1.2324219,0.4443359
			c-0.3261719,0-0.6992188-0.0585938-1.1191406-0.1748047c-0.1279297-0.0380859-0.2329102-0.0576172-0.3144531-0.0576172
			c-0.0893555,0-0.159668,0.0498047-0.2099609,0.1503906H3.3681641V63.640625h0.1923828
			c0.1088867,0.5419922,0.3168945,0.9511719,0.6235352,1.2255859c0.3071289,0.2753906,0.6508789,0.4130859,1.0317383,0.4130859
			c0.2680664,0,0.4863281-0.0791016,0.6552734-0.2353516C6.0405273,64.8867188,6.125,64.6982422,6.125,64.4775391
			c0-0.2675781-0.0942383-0.4921875-0.2827148-0.6738281c-0.1884766-0.1826172-0.5644531-0.4130859-1.1279297-0.6914063
			c-0.5629883-0.2783203-0.9321289-0.5302734-1.1069336-0.7553711c-0.1748047-0.2207031-0.262207-0.4995117-0.262207-0.8364258
			c0-0.4375,0.1503906-0.8037109,0.4516602-1.0981445c0.3007813-0.2939453,0.6904297-0.4414063,1.168457-0.4414063
			c0.2094727,0,0.4638672,0.0449219,0.7631836,0.1337891C5.9267578,60.1728516,6.0585938,60.2016602,6.125,60.2016602
			c0.0620117,0,0.1103516-0.0131836,0.1455078-0.0405273c0.0351563-0.0268555,0.0756836-0.0869141,0.1225586-0.1801758H6.5854492z"
			/>
		<path id="XMLID_18_" class="st0" d="M9.6328125,59.980957v4.2758789c0,0.3330078,0.0244141,0.5546875,0.0732422,0.6650391
			c0.0483398,0.1103516,0.1201172,0.1923828,0.215332,0.2470703C10.0166016,65.2226563,10.1904297,65.25,10.4428711,65.25v0.2089844
			H7.8496094V65.25c0.2602539,0,0.4350586-0.0253906,0.5244141-0.0751953c0.0893555-0.0507813,0.1606445-0.1337891,0.2128906-0.25
			s0.0786133-0.3388672,0.0786133-0.6679688v-2.0507813c0-0.5771484-0.0175781-0.9506836-0.0522461-1.1210938
			C8.5859375,60.9609375,8.543457,60.875,8.4848633,60.8261719c-0.0581055-0.0483398-0.1376953-0.0722656-0.2387695-0.0722656
			c-0.1088867,0-0.2412109,0.0288086-0.3964844,0.0869141l-0.081543-0.2089844l1.6083984-0.6508789H9.6328125z
			 M9.1494141,57.1987305c0.1630859,0,0.3017578,0.0571289,0.4165039,0.1713867s0.171875,0.2524414,0.171875,0.4150391
			s-0.0571289,0.3022461-0.171875,0.418457S9.3125,58.3779297,9.1494141,58.3779297s-0.3032227-0.0581055-0.4199219-0.1743164
			c-0.1162109-0.1162109-0.1748047-0.2558594-0.1748047-0.418457s0.0576172-0.3007813,0.171875-0.4150391
			C8.8413086,57.2558594,8.9824219,57.1987305,9.1494141,57.1987305z"/>
		<path id="XMLID_33_" class="st0" d="M12.699707,61.1079102c0.6254883-0.7509766,1.2216797-1.1269531,1.7890625-1.1269531
			c0.2910156,0,0.5410156,0.0727539,0.7519531,0.2177734c0.2089844,0.1455078,0.3769531,0.3847656,0.5,0.7177734
			c0.0859375,0.2324219,0.1289063,0.5883789,0.1289063,1.0688477v2.2714844c0,0.3369141,0.0273438,0.5654297,0.0820313,0.6855469
			c0.0429688,0.0966797,0.1113281,0.171875,0.2070313,0.2265625C16.2543945,65.2226563,16.4301758,65.25,16.6860352,65.25v0.2089844
			h-2.6401367V65.25H14.15625c0.2485352,0,0.4223633-0.0380859,0.5219727-0.1132813s0.1679688-0.1865234,0.2070313-0.3339844
			c0.015625-0.0585938,0.0234375-0.2402344,0.0234375-0.5458984V62.078125c0-0.4838867-0.0644531-0.8354492-0.1894531-1.0541992
			c-0.1269531-0.21875-0.3398438-0.328125-0.6386719-0.328125c-0.4624023,0-0.9228516,0.2514648-1.3808594,0.7548828v2.8061523
			c0,0.359375,0.0209961,0.5830078,0.0639648,0.6679688c0.0541992,0.1123047,0.1289063,0.1943359,0.2241211,0.2470703
			C13.0830078,65.2236328,13.2763672,65.25,13.5678711,65.25v0.2089844h-2.6401367V65.25h0.1166992
			c0.2719727,0,0.4555664-0.0693359,0.5507813-0.2060547c0.0952148-0.1376953,0.1425781-0.4003906,0.1425781-0.7871094V62.28125
			c0-0.6386719-0.0146484-1.027832-0.043457-1.1674805c-0.0292969-0.1391602-0.0737305-0.234375-0.1342773-0.284668
			c-0.0600586-0.050293-0.140625-0.0751953-0.2416992-0.0751953c-0.1088867,0-0.2387695,0.0288086-0.390625,0.0869141
			l-0.0874023-0.2089844l1.6083984-0.6508789h0.2509766V61.1079102z"/>
	</g>
	<g id="XMLID_42_">
		<path id="XMLID_14_" class="st0" d="M21.8237305,60.2016602c0.1328125,0.2246094,0.2236328,0.4350586,0.2744141,0.6303711
			c0.0507813,0.1958008,0.1005859,0.5800781,0.1513672,1.1533203l0.2568359,2.8574219
			c0.2324219-0.2783203,0.5703125-0.7197266,1.0136719-1.3242188c0.2138672-0.2939453,0.4775391-0.6943359,0.7929688-1.2021484
			c0.1894531-0.3100586,0.3066406-0.5268555,0.3496094-0.6508789c0.0234375-0.0615234,0.0341797-0.1254883,0.0341797-0.1914063
			c0-0.0424805-0.0136719-0.0776367-0.0400391-0.1044922c-0.0273438-0.0273438-0.0986328-0.059082-0.2128906-0.0961914
			c-0.1152344-0.0366211-0.2099609-0.1044922-0.2861328-0.203125c-0.0751953-0.0986328-0.1132813-0.2119141-0.1132813-0.3398438
			c0-0.1586914,0.046875-0.2866211,0.1396484-0.3833008c0.09375-0.0966797,0.2099609-0.1455078,0.3496094-0.1455078
			c0.1708984,0,0.3173828,0.0708008,0.4375,0.2124023c0.1201172,0.1411133,0.1806641,0.3359375,0.1806641,0.5834961
			c0,0.3061523-0.1044922,0.6557617-0.3144531,1.0488281s-0.6142578,0.996582-1.2128906,1.809082
			c-0.5976563,0.8134766-1.3222656,1.7001953-2.1738281,2.6611328c-0.5859375,0.6621094-1.0214844,1.0791016-1.3046875,1.2519531
			c-0.2841797,0.171875-0.5263672,0.2578125-0.7285156,0.2578125c-0.1201172,0-0.2265625-0.0449219-0.3173828-0.1367188
			c-0.0917969-0.0908203-0.1376953-0.1962891-0.1376953-0.3164063c0-0.1503906,0.0634766-0.2880859,0.1894531-0.4121094
			c0.1269531-0.1240234,0.2636719-0.1855469,0.4111328-0.1855469c0.078125,0,0.1416016,0.0166016,0.1923828,0.0517578
			c0.03125,0.0195313,0.0654297,0.0742188,0.1015625,0.1660156c0.0371094,0.0908203,0.0712891,0.1513672,0.1025391,0.1826172
			c0.0195313,0.0195313,0.0429688,0.0292969,0.0693359,0.0292969c0.0234375,0,0.0644531-0.0195313,0.1230469-0.0585938
			c0.2128906-0.1318359,0.4619141-0.3408203,0.7460938-0.6269531c0.3720703-0.3798828,0.6484375-0.6894531,0.8271484-0.9296875
			l-0.3261719-3.6826172c-0.0546875-0.6083984-0.1367188-0.9780273-0.2451172-1.1098633
			c-0.1083984-0.1313477-0.2910156-0.1972656-0.5478516-0.1972656c-0.0810547,0-0.2275391,0.0112305-0.4365234,0.034668
			l-0.0527344-0.2148438L21.8237305,60.2016602z"/>
	</g>
</g>
<g id="XMLID_13_">
</g>
<g id="XMLID_85_">
</g>
<g id="XMLID_86_">
</g>
<g id="XMLID_87_">
</g>
<g id="XMLID_88_">
</g>
<g id="XMLID_89_">
</g>
</svg>
