<?xml version="1.0" encoding="utf-8"?>
<!-- Generator: Adobe Illustrator 19.0.0, SVG Export Plug-In . SVG Version: 6.00 Build 0)  -->
<svg version="1.1" id="Layer_1" xmlns="http://www.w3.org/2000/svg" xmlns:xlink="http://www.w3.org/1999/xlink" x="0px" y="0px"
	 viewBox="0 0 287 243.3333282" style="enable-background:new 0 0 287 243.3333282;" xml:space="preserve">
<style type="text/css">
	.st0{fill:#010101;}
	.st1{fill:none;stroke:#1173BB;stroke-linejoin:round;stroke-miterlimit:10;}
	.st2{fill:#1173BB;}
	.st3{fill:none;stroke:#D1D3D4;stroke-linejoin:round;stroke-miterlimit:10;}
	.st4{fill:#A7A9AC;}
</style>
<g id="XMLID_1_">
	<g id="XMLID_154_">
		<g id="XMLID_155_">
			<polygon id="XMLID_156_" points="257.4772339,78.6144791 257.4772339,80.7425156 267.4877625,78.0619736 257.4772339,75.3768082 
				257.4772339,77.5050278 119.0059357,77.5050278 119.0059357,78.6144791 			"/>
		</g>
	</g>
</g>
<g id="XMLID_6_">
	<g id="XMLID_7_">
		<path id="XMLID_193_" class="st0" d="M277.8393555,74.9153671c0.1860352,0.2075195,0.3261719,0.4150391,0.4213867,0.6225586
			c0.0678711,0.1435547,0.1796875,0.5209961,0.3359375,1.1313477l0.5-0.7900391
			c0.1328125-0.1914063,0.2939453-0.3740234,0.484375-0.5478516c0.1894531-0.1733398,0.3564453-0.2919922,0.5-0.355957
			c0.0917969-0.0400391,0.1923828-0.0600586,0.3017578-0.0600586c0.1630859,0,0.2929688,0.0458984,0.3896484,0.1376953
			s0.1455078,0.2036133,0.1455078,0.3354492c0,0.1513672-0.0283203,0.2553711-0.0849609,0.3110352
			c-0.1064453,0.1000977-0.2275391,0.1499023-0.3642578,0.1499023c-0.0800781,0-0.1650391-0.0180664-0.2568359-0.0541992
			c-0.1777344-0.0634766-0.2978516-0.0957031-0.3583984-0.0957031c-0.0908203,0-0.1992188,0.0561523-0.3242188,0.1679688
			c-0.2353516,0.2075195-0.515625,0.6083984-0.8417969,1.203125l0.4667969,2.0595703
			c0.0712891,0.3154297,0.1328125,0.5039063,0.1816406,0.5654297c0.0498047,0.0625,0.0986328,0.0927734,0.1484375,0.0927734
			c0.0791016,0,0.171875-0.0458984,0.2783203-0.1376953c0.2089844-0.1835938,0.3867188-0.4228516,0.5351563-0.7177734
			l0.1992188,0.1074219c-0.2392578,0.4707031-0.5429688,0.8623047-0.9111328,1.1728516
			c-0.2080078,0.1757813-0.3847656,0.2636719-0.5283203,0.2636719c-0.2128906,0-0.3818359-0.1259766-0.5068359-0.3769531
			c-0.0795898-0.1552734-0.2446289-0.8261719-0.4951172-2.0117188c-0.5917969,1.0820313-1.065918,1.7783203-1.4223633,2.0898438
			c-0.2314453,0.1992188-0.4555664,0.2988281-0.671875,0.2988281c-0.1513672,0-0.2900391-0.0576172-0.4150391-0.1738281
			c-0.0913086-0.0869141-0.1367188-0.2050781-0.1367188-0.3525391c0-0.1318359,0.0415039-0.2421875,0.125-0.3300781
			c0.0834961-0.0869141,0.1860352-0.1308594,0.3076172-0.1308594c0.1210938,0,0.25,0.0634766,0.3867188,0.1914063
			c0.0986328,0.0917969,0.1743164,0.1376953,0.2275391,0.1376953c0.0454102,0,0.1044922-0.0322266,0.1767578-0.0957031
			c0.1782227-0.1523438,0.4208984-0.4794922,0.7280273-0.9824219c0.3076172-0.5029297,0.5083008-0.8662109,0.6035156-1.0893555
			c-0.2353516-0.9697266-0.3623047-1.4824219-0.3813477-1.5385742c-0.0874023-0.2592773-0.2011719-0.4428711-0.3417969-0.5507813
			c-0.1401367-0.1074219-0.3466797-0.1616211-0.6201172-0.1616211c-0.0874023,0-0.1875,0.0039063-0.3012695,0.012207v-0.2158203
			L277.8393555,74.9153671z"/>
	</g>
</g>
<g id="XMLID_29_">
	<g id="XMLID_30_">
		<path id="XMLID_191_" class="st0" d="M97.4941406,9.2503252l3.5683594,0.9902344
			c0.5302734,0.1474609,0.8662109,0.2216797,1.0058594,0.2216797c0.0712891,0,0.125-0.0126953,0.1582031-0.0371094
			c0.0341797-0.0244141,0.0507813-0.0576172,0.0507813-0.0996094c0-0.0644531-0.0302734-0.1357422-0.0927734-0.2128906
			c-0.0615234-0.078125-0.3076172-0.2744141-0.7392578-0.5898438l0.1376953-0.1699219
			c0.4990234,0.2998047,0.8662109,0.6064453,1.1015625,0.921875c0.1513672,0.2080078,0.2275391,0.4091797,0.2275391,0.6035156
			c0,0.1474609-0.0439453,0.2636719-0.1318359,0.3461914c-0.0878906,0.0834961-0.2011719,0.1254883-0.3408203,0.1254883
			c-0.1357422,0-0.3154297-0.0249023-0.5390625-0.0742188c-0.2949219-0.0605469-0.9375-0.2333984-1.9277344-0.5175781
			c1.1132813,0.6450195,1.8818359,1.1845703,2.3046875,1.6186523c0.4238281,0.4345703,0.6347656,0.8378906,0.6347656,1.2094727
			c0,0.1743164-0.0634766,0.3222656-0.1914063,0.4438477s-0.2890625,0.1821289-0.4853516,0.1821289
			c-0.2988281,0-0.7578125-0.0834961-1.3769531-0.2504883l-1.8496094-0.4951172
			c-0.4428711-0.1210938-0.7182617-0.1821289-0.8261719-0.1821289c-0.0478516,0-0.0883789,0.0161133-0.1225586,0.0483398
			c-0.0336914,0.0322266-0.0507813,0.0673828-0.0507813,0.1054688c0,0.0795898,0.0297852,0.1591797,0.0898438,0.2387695
			c0.0595703,0.0800781,0.28125,0.2602539,0.6645508,0.5405273l-0.1318359,0.1767578
			c-0.4628906-0.284668-0.8041992-0.5864258-1.0239258-0.9047852c-0.1713867-0.2426758-0.2573242-0.4667969-0.2573242-0.6713867
			c0-0.140625,0.046875-0.2553711,0.140625-0.3442383c0.09375-0.0893555,0.2148438-0.1337891,0.3623047-0.1337891
			c0.215332,0,0.6005859,0.0756836,1.1552734,0.2275391l1.9335938,0.534668c0.5273438,0.1479492,0.8603516,0.222168,1,0.222168
			c0.0761719,0,0.1367188-0.0239258,0.1826172-0.0712891s0.0683594-0.1108398,0.0683594-0.1904297
			c0-0.1254883-0.0654297-0.2885742-0.1972656-0.4897461c-0.1318359-0.2006836-0.4238281-0.4692383-0.8769531-0.8051758
			c-0.4521484-0.3354492-0.8779297-0.6123047-1.2749023-0.8310547c-0.3974609-0.2177734-1.0288086-0.4501953-1.8950195-0.6962891
			l-0.4550781-0.1259766V9.2503252z"/>
	</g>
</g>
<g id="XMLID_8_">
	<g id="XMLID_12_">
		<path id="XMLID_189_" class="st0" d="M234.6484375,18.201498v0.3261719c-1.0029297-0.6582031-1.7841797-1.625-2.3427734-2.8984385
			c-0.5595703-1.2744141-0.8388672-2.6689453-0.8388672-4.1835938c0-1.5756836,0.2939453-3.0102539,0.8818359-4.304687
			s1.3544922-2.2202148,2.2998047-2.777832v0.3193359c-0.4726563,0.3447266-0.8603516,0.815918-1.1640625,1.4135742
			s-0.5302734,1.3564453-0.6806641,2.2758784c-0.1494141,0.9194336-0.2246094,1.878418-0.2246094,2.8759766
			c0,1.1303711,0.0693359,2.1508789,0.2080078,3.0629883c0.1376953,0.9111328,0.3496094,1.6679688,0.6337891,2.2675791
			C233.7050781,17.1790371,234.1142578,17.7200527,234.6484375,18.201498z"/>
	</g>
	<g id="XMLID_11_">
		<path id="XMLID_187_" class="st0" d="M242.984375,4.6824546V4.3631186
			c1.0029297,0.6538086,1.7832031,1.6176758,2.3427734,2.8916016c0.5595703,1.2744136,0.8388672,2.6684566,0.8388672,4.1840816
			c0,1.5751953-0.2939453,3.0107422-0.8818359,4.3076172s-1.3544922,2.2246103-2.2998047,2.781251V18.201498
			c0.4765625-0.3447266,0.8662109-0.8154297,1.1699219-1.4140625c0.3037109-0.5976563,0.5292969-1.3544931,0.6767578-2.2714853
			c0.1484375-0.9169922,0.2226563-1.8769531,0.2226563-2.8798828c0-1.125-0.0683594-2.1445313-0.2050781-3.059082
			s-0.3476563-1.6718745-0.6337891-2.2719722C243.9287109,5.7044272,243.5185547,5.1638999,242.984375,4.6824546z"/>
	</g>
	<g id="XMLID_10_">
		<path id="XMLID_179_" class="st0" d="M209.496582,9.1912432l-1.0166016,3.4575195
			c-0.1518555,0.5146484-0.2275391,0.8388672-0.2275391,0.9746094c0,0.0693359,0.012207,0.1210938,0.0375977,0.1533203
			c0.0253906,0.0332031,0.0595703,0.0498047,0.1025391,0.0498047c0.065918,0,0.1391602-0.0302734,0.21875-0.0898438
			c0.0800781-0.0605469,0.2817383-0.2988281,0.6049805-0.7167969l0.175293,0.1337891
			c-0.3081055,0.4833984-0.6235352,0.8388672-0.9467773,1.0673828c-0.2138672,0.1464844-0.4204102,0.2207031-0.6191406,0.2207031
			c-0.1518555,0-0.2705078-0.0429688-0.355957-0.1279297c-0.0859375-0.0849609-0.1289063-0.1953125-0.1289063-0.3310547
			c0-0.1308594,0.0253906-0.3056641,0.0761719-0.5214844c0.0620117-0.2861328,0.2392578-0.9091797,0.5317383-1.8681641
			c-0.6621094,1.0791016-1.2163086,1.8232422-1.6621094,2.2333984s-0.8598633,0.6152344-1.2412109,0.6152344
			c-0.1791992,0-0.3310547-0.0625-0.4560547-0.1865234c-0.1245117-0.1230469-0.1865234-0.2802734-0.1865234-0.4697266
			c0-0.2900391,0.0854492-0.734375,0.2568359-1.3339844l0.5083008-1.7924805
			c0.1245117-0.4296875,0.1870117-0.6962891,0.1870117-0.8007813c0-0.0463867-0.0166016-0.0859375-0.0498047-0.1191406
			c-0.0332031-0.0327148-0.0693359-0.0493164-0.1079102-0.0493164c-0.0820313,0-0.1635742,0.0292969-0.2456055,0.0874023
			c-0.081543,0.0581055-0.2666016,0.2724609-0.5546875,0.644043l-0.1811523-0.1279297
			c0.2919922-0.4487305,0.6015625-0.7792969,0.9287109-0.9921875c0.2490234-0.1660156,0.4790039-0.2490234,0.6894531-0.2490234
			c0.144043,0,0.2617188,0.0454102,0.3535156,0.1362305c0.0913086,0.0908203,0.137207,0.2080078,0.137207,0.3510742
			c0,0.2084961-0.078125,0.5820313-0.2338867,1.1196289l-0.5488281,1.8735352
			c-0.1518555,0.5107422-0.2280273,0.8339844-0.2280273,0.96875c0,0.0732422,0.0244141,0.1328125,0.0732422,0.1767578
			c0.0483398,0.0449219,0.1137695,0.0673828,0.1953125,0.0673828c0.128418,0,0.2958984-0.0644531,0.5024414-0.1914063
			c0.206543-0.1279297,0.4819336-0.4111328,0.8266602-0.8505859c0.3447266-0.4384766,0.6289063-0.8505859,0.8530273-1.2353516
			c0.2236328-0.3847656,0.4624023-0.996582,0.715332-1.8359375l0.128418-0.440918H209.496582z"/>
		<path id="XMLID_181_" class="st0" d="M229.15625,9.411458l-0.1699219,0.6035156h-0.9746094
			c0.0742188,0.2089844,0.1113281,0.4042969,0.1113281,0.5859375c0,0.5102539-0.21875,0.9648438-0.6542969,1.3632813
			c-0.4414063,0.3984375-1.0449219,0.6191406-1.8115234,0.6611328c-0.4130859,0.1240234-0.7226563,0.2705078-0.9287109,0.4414063
			c-0.078125,0.0615234-0.1171875,0.125-0.1171875,0.1914063c0,0.0771484,0.0351563,0.1474609,0.1054688,0.2119141
			c0.0698242,0.0634766,0.2470703,0.1279297,0.5317383,0.1943359l1.1323242,0.2607422
			c0.6269531,0.1464844,1.0429688,0.3212891,1.2441406,0.5224609c0.1992188,0.2041016,0.2988281,0.4404297,0.2988281,0.7070313
			c0,0.3173828-0.1171875,0.6074219-0.3535156,0.8701181c-0.2363281,0.2636719-0.5800781,0.4697266-1.0332031,0.6181641
			c-0.4550781,0.1484375-0.9560547,0.2236328-1.5048828,0.2236328c-0.4829102,0-0.9228516-0.0576172-1.3203125-0.171875
			c-0.3969727-0.1132813-0.6816406-0.2675781-0.8530273-0.4609375c-0.1708984-0.1933594-0.2568359-0.3925791-0.2568359-0.5976572
			c0-0.1660156,0.0556641-0.3388672,0.1665039-0.5185547c0.1108398-0.1806641,0.25-0.328125,0.4174805-0.4443359
			c0.1054688-0.0732422,0.4033203-0.2470703,0.894043-0.5214844c-0.1791992-0.1396484-0.269043-0.2919922-0.269043-0.4589844
			c0-0.1542969,0.0791016-0.3183594,0.2368164-0.4931641c0.1577148-0.1738281,0.4916992-0.3652344,1.0019531-0.5742188
			c-0.4287109-0.0810547-0.7680664-0.2587891-1.0195313-0.5341797c-0.2509766-0.2734375-0.3769531-0.5800781-0.3769531-0.9160156
			c0-0.5493164,0.2426758-1.0405273,0.7275391-1.4736328s1.1308594-0.6494141,1.9355469-0.6494141
			c0.2929688,0,0.5332031,0.0288086,0.71875,0.0869141c0.1875,0.0581055,0.3691406,0.1489258,0.5429688,0.2724609H229.15625z
			 M224.3310547,14.302083c-0.3154297,0.1425781-0.5537109,0.3271484-0.715332,0.5507813
			c-0.1616211,0.2246094-0.2426758,0.4453125-0.2426758,0.6621094c0,0.2548828,0.1166992,0.4658203,0.3505859,0.6318369
			c0.3349609,0.2402344,0.8256836,0.359375,1.472168,0.359375c0.5561523,0,1.0327148-0.09375,1.4272461-0.28125
			c0.3964844-0.1875,0.59375-0.4296885,0.59375-0.72754c0-0.1513672-0.0722656-0.2939453-0.21875-0.4296875
			s-0.4296875-0.2451172-0.8496094-0.3300781C225.9179688,14.6907549,225.3125,14.5462236,224.3310547,14.302083z
			 M227.1289063,10.3225908c0-0.3095703-0.0859375-0.5532227-0.2597656-0.730957
			c-0.1738281-0.1782227-0.4003906-0.2670898-0.6796875-0.2670898c-0.4414063,0-0.8037109,0.2197266-1.090332,0.6582031
			c-0.2861328,0.4394531-0.4291992,0.8964844-0.4291992,1.3720703c0,0.2978516,0.0913086,0.5410156,0.2744141,0.7304688
			c0.1831055,0.1904297,0.4052734,0.2851563,0.6660156,0.2851563c0.2060547,0,0.4052734-0.0566406,0.5986328-0.1679688
			c0.1933594-0.1132813,0.3554688-0.2675781,0.4882813-0.4648438s0.2363281-0.4482422,0.3144531-0.7539063
			S227.1289063,10.4578447,227.1289063,10.3225908z"/>
		<path id="XMLID_185_" class="st0" d="M238.5410156,9.052083c0.1904297,0.2011719,0.3339844,0.4018555,0.4316406,0.6030273
			c0.0703125,0.1391602,0.1855469,0.5048828,0.3447266,1.0966797l0.5146484-0.7661133
			c0.1357422-0.1855469,0.3017578-0.3623047,0.4960938-0.5307617c0.1943359-0.1679688,0.3662109-0.2832031,0.5136719-0.3452148
			c0.09375-0.0385742,0.1972656-0.0576172,0.3095703-0.0576172c0.1679688,0,0.3007813,0.0444336,0.4003906,0.1333008
			s0.1494141,0.1972656,0.1494141,0.324707c0,0.1469727-0.0292969,0.2475586-0.0878906,0.3017578
			c-0.109375,0.0966797-0.2333984,0.1450195-0.3740234,0.1450195c-0.0820313,0-0.1689453-0.0175781-0.2626953-0.0522461
			c-0.1835938-0.0620117-0.3056641-0.0927734-0.3681641-0.0927734c-0.09375,0-0.2041016,0.0541992-0.3330078,0.1625977
			c-0.2412109,0.2011719-0.5292969,0.5898438-0.8642578,1.1660156l0.4785156,1.9956055
			c0.0742188,0.3056641,0.1367188,0.4882813,0.1875,0.5478516c0.0507813,0.0605469,0.1005859,0.0898438,0.1513672,0.0898438
			c0.0820313,0,0.1777344-0.0439453,0.2861328-0.1328125c0.2148438-0.1777344,0.3974609-0.4101563,0.5498047-0.6962891
			l0.2041016,0.1044922c-0.2451172,0.4560547-0.5566406,0.8349609-0.9345703,1.1367188
			c-0.2138672,0.1699219-0.3955078,0.2558594-0.5429688,0.2558594c-0.21875,0-0.3916016-0.1220703-0.5205078-0.3662109
			c-0.0810547-0.1503906-0.2509766-0.7998047-0.5078125-1.9492188c-0.6074219,1.0488281-1.0947266,1.7236328-1.4609375,2.0253906
			c-0.2373047,0.1933594-0.4667969,0.2900391-0.6884766,0.2900391c-0.15625,0-0.2988281-0.0566406-0.4267578-0.1689453
			c-0.09375-0.0849609-0.140625-0.1992188-0.140625-0.3417969c0-0.1279297,0.0429688-0.234375,0.1289063-0.3193359
			s0.1904297-0.1279297,0.3154297-0.1279297s0.2568359,0.0625,0.3974609,0.1855469
			c0.1005859,0.0898438,0.1787109,0.1337891,0.2333984,0.1337891c0.046875,0,0.1074219-0.03125,0.1806641-0.0927734
			c0.1835938-0.1464844,0.4326172-0.4638672,0.7480469-0.9511719s0.5214844-0.8398438,0.6191406-1.0566406
			c-0.2412109-0.9394531-0.3720703-1.4360352-0.3916016-1.4902344c-0.0888672-0.2514648-0.2060547-0.4291992-0.3505859-0.5336914
			c-0.1435547-0.1044922-0.3554688-0.1567383-0.6367188-0.1567383c-0.0888672,0-0.1923828,0.0039063-0.3095703,0.0117188V9.324544
			L238.5410156,9.052083z"/>
	</g>
	<g id="XMLID_9_">
		<path id="XMLID_176_" class="st0" d="M213.2456055,9.8987627h6.1333008v0.5629883h-6.1333008V9.8987627z M213.2456055,12.0628252
			h6.1333008v0.5742188h-6.1333008V12.0628252z"/>
	</g>
</g>
<g id="XMLID_26_">
	<g id="XMLID_32_">
		<path id="XMLID_174_" class="st0" d="M17.7714844,39.5725899h0.3261719c-0.6582031,1.0068359-1.625,1.7900391-2.8984375,2.3515625
			c-1.2744141,0.5605469-2.6689453,0.8408203-4.1835938,0.8408203c-1.5756836,0-3.0102539-0.2949219-4.3046875-0.8847656
			s-2.2202148-1.359375-2.777832-2.3076172h0.3193359c0.3447266,0.4746094,0.815918,0.8642578,1.4135742,1.1679688
			c0.5976563,0.3046875,1.3564453,0.5322266,2.2758789,0.6826172s1.878418,0.2255859,2.8759766,0.2255859
			c1.1303711,0,2.1508789-0.0693359,3.0629883-0.2080078c0.9111328-0.1386719,1.6679688-0.3505859,2.2675781-0.6357422
			C16.7490234,40.5188789,17.2900391,40.1087227,17.7714844,39.5725899z"/>
	</g>
	<g id="XMLID_31_">
		<path id="XMLID_172_" class="st0" d="M4.2524414,31.201498H3.9331055
			c0.6538086-1.0058594,1.6176758-1.7900391,2.8916016-2.3505859c1.2744141-0.5615234,2.668457-0.8417969,4.184082-0.8417969
			c1.5751953,0,3.0107422,0.2949219,4.3076172,0.8847656s2.2246094,1.359375,2.78125,2.3076172h-0.3261719
			c-0.3447266-0.4775391-0.8154297-0.8691406-1.4140625-1.1738281c-0.5976563-0.3046875-1.3544922-0.53125-2.2714844-0.6796875
			s-1.8769531-0.2226563-2.8798828-0.2226563c-1.125,0-2.1445313,0.0683594-3.059082,0.2050781
			C7.2324219,29.4680996,6.4750977,29.6800137,5.875,29.967123C5.2744141,30.2542324,4.7338867,30.6663418,4.2524414,31.201498z"/>
	</g>
	<g id="XMLID_28_">
		<path id="XMLID_166_" class="st0" d="M8.6220703,68.7249374c0.2241211-0.1328125,0.434082-0.2246094,0.6293945-0.2753906
			s0.5791016-0.1015625,1.1513672-0.1523438l2.8540039-0.2578125c-0.2783203-0.234375-0.71875-0.574707-1.3222656-1.0200195
			c-0.2939453-0.2148438-0.6943359-0.4804688-1.2011719-0.7973633c-0.309082-0.1914063-0.5258789-0.3085938-0.6494141-0.3515625
			c-0.0620117-0.0234375-0.1259766-0.0351563-0.1914063-0.0351563c-0.0429688,0-0.0776367,0.0136719-0.1044922,0.0410156
			c-0.0273438,0.0273438-0.059082,0.0986328-0.0957031,0.2138672c-0.0371094,0.1152344-0.1044922,0.2114258-0.203125,0.2875977
			s-0.2119141,0.1142578-0.3393555,0.1142578c-0.1586914,0-0.2861328-0.046875-0.3828125-0.140625
			c-0.0966797-0.0942383-0.1450195-0.2114258-0.1450195-0.3520508c0-0.171875,0.0703125-0.3183594,0.2114258-0.4394531
			s0.3354492-0.1816406,0.5830078-0.1816406c0.3056641,0,0.6547852,0.1054688,1.0473633,0.3164063
			s0.9941406,0.6176758,1.8066406,1.2192383c0.8125,0.6020508,1.6982422,1.3305664,2.6572266,2.1865234
			c0.6611328,0.5898438,1.078125,1.027832,1.25,1.3129883c0.1728516,0.2851563,0.2587891,0.5292969,0.2587891,0.7324219
			c0,0.1210938-0.0458984,0.2280273-0.1367188,0.3198242s-0.1962891,0.1376953-0.3164063,0.1376953
			c-0.1503906,0-0.2880859-0.0634766-0.4111328-0.1904297c-0.1240234-0.1274414-0.1865234-0.2651367-0.1865234-0.4135742
			c0-0.078125,0.0175781-0.1425781,0.0527344-0.1933594c0.0195313-0.03125,0.0742188-0.0654297,0.1650391-0.1025391
			s0.1523438-0.0712891,0.1826172-0.1025391c0.0195313-0.0195313,0.0292969-0.0429688,0.0292969-0.0703125
			c0-0.0234375-0.0195313-0.0644531-0.0576172-0.1230469c-0.1318359-0.2148438-0.3408203-0.465332-0.6269531-0.7504883
			c-0.3789063-0.375-0.6884766-0.6523438-0.9277344-0.8320313l-3.6782227,0.328125
			c-0.6074219,0.0546875-0.9765625,0.1367188-1.1083984,0.2460938c-0.1313477,0.109375-0.1972656,0.2929688-0.1972656,0.5507813
			c0,0.0825195,0.0117188,0.2290039,0.0351563,0.4399414l-0.2148438,0.0527344L8.6220703,68.7249374z"/>
		<path id="XMLID_168_" class="st0" d="M8.7612305,47.0149727l0.3828125,0.1054688v0.8554688l2.534668,0.6445313
			c1.1181641,0.2851563,1.9824219,0.5722656,2.59375,0.8613281c0.8623047,0.4101563,1.4580078,0.8520508,1.7871094,1.324707
			c0.2509766,0.359375,0.3769531,0.7192383,0.3769531,1.0786133c0,0.234375-0.0703125,0.4335938-0.2089844,0.5981445
			c-0.0966797,0.1210938-0.2226563,0.1816406-0.3769531,0.1816406c-0.1240234,0-0.2314453-0.0498047-0.3222656-0.1494141
			c-0.0908203-0.1000977-0.1367188-0.222168-0.1367188-0.3666992c0-0.1054688,0.0332031-0.1943359,0.0986328-0.2666016
			c0.0664063-0.0722656,0.1416016-0.1083984,0.2265625-0.1083984s0.1640625,0.0410156,0.2382813,0.1230469
			c0.0537109,0.0625,0.0947266,0.09375,0.1210938,0.09375c0.0351563,0,0.0625-0.0136719,0.0820313-0.0410156
			c0.0263672-0.0351563,0.0400391-0.0898438,0.0400391-0.1640625c0-0.1679688-0.0517578-0.3447266-0.15625-0.5302734
			c-0.1044922-0.1860352-0.2607422-0.3510742-0.4667969-0.4956055c-0.2070313-0.1445313-0.5058594-0.28125-0.8964844-0.4101563
			c-0.1630859-0.0546875-0.6982422-0.2011719-1.6074219-0.4399414L9.144043,48.8899727v1.0195313l-0.3828125-0.0820313
			c0-0.3242188-0.0224609-0.5507813-0.0668945-0.6796875s-0.1293945-0.2480469-0.2553711-0.3554688
			c-0.1254883-0.1074219-0.3603516-0.2460938-0.7045898-0.4179688c-0.4643555-0.2304688-0.8237305-0.4511719-1.0791016-0.6621094
			c-0.3442383-0.2890625-0.6025391-0.59375-0.7744141-0.9121094c-0.1723633-0.3183594-0.2583008-0.6191406-0.2583008-0.9003906
			c0-0.296875,0.074707-0.5351563,0.2231445-0.7148438c0.1489258-0.1796875,0.3105469-0.2695313,0.4848633-0.2695313
			c0.1352539,0,0.2490234,0.0449219,0.3417969,0.1347656c0.0932617,0.0898438,0.1396484,0.2050781,0.1396484,0.3457031
			c0,0.1210938-0.0351563,0.2207031-0.1044922,0.296875c-0.0698242,0.0761719-0.152832,0.1132813-0.2495117,0.1132813
			c-0.0620117,0-0.1381836-0.0253906-0.2290039-0.0761719s-0.1518555-0.0761719-0.1831055-0.0761719
			c-0.0541992,0-0.0947266,0.0175781-0.121582,0.0527344c-0.0385742,0.0507813-0.0581055,0.125-0.0581055,0.2226563
			c0,0.2460938,0.0776367,0.4667969,0.2319336,0.6621094c0.2050781,0.2636719,0.5263672,0.4980469,0.9633789,0.7050781
			c0.2280273,0.1054688,0.7944336,0.2988281,1.699707,0.5800781V47.0149727z"/>
		<path id="XMLID_170_" class="st0" d="M8.7612305,33.0149727l3.4575195,1.0195313
			c0.5146484,0.1523438,0.8388672,0.2285156,0.9746094,0.2285156c0.0693359,0,0.1210938-0.0126953,0.1533203-0.0380859
			c0.0332031-0.0253906,0.0498047-0.0595703,0.0498047-0.1025391c0-0.0664063-0.0302734-0.1396484-0.0898438-0.2197266
			c-0.0605469-0.0800781-0.2988281-0.2822266-0.7167969-0.6064453l0.1337891-0.1757813
			c0.4833984,0.3085938,0.8388672,0.625,1.0673828,0.9492188c0.1464844,0.2148438,0.2207031,0.421875,0.2207031,0.6210938
			c0,0.1523438-0.0429688,0.2724609-0.1279297,0.3583984s-0.1953125,0.1289063-0.3310547,0.1289063
			c-0.1308594,0-0.3056641-0.0253906-0.5214844-0.0761719c-0.2861328-0.0625-0.9091797-0.2412109-1.8681641-0.5341797
			c1.0791016,0.6650391,1.8232422,1.2207031,2.2333984,1.6679688s0.6152344,0.8623047,0.6152344,1.2460938
			c0,0.1796875-0.0625,0.3320313-0.1865234,0.4570313c-0.1230469,0.125-0.2802734,0.1875-0.4697266,0.1875
			c-0.2900391,0-0.734375-0.0859375-1.3339844-0.2578125l-1.7924805-0.5107422c-0.4296875-0.125-0.6962891-0.1875-0.8007813-0.1875
			c-0.0463867,0-0.0859375,0.0166016-0.1191406,0.0498047c-0.0327148,0.0332031-0.0493164,0.0703125-0.0493164,0.1083984
			c0,0.0820313,0.0292969,0.1650391,0.0874023,0.2470703s0.2724609,0.2675781,0.644043,0.5566406l-0.1279297,0.1816406
			c-0.4487305-0.2929688-0.7792969-0.6035156-0.9921875-0.9326172c-0.1660156-0.25-0.2490234-0.4804688-0.2490234-0.6914063
			c0-0.1445313,0.0454102-0.2626953,0.1362305-0.3544922s0.2080078-0.1376953,0.3510742-0.1376953
			c0.2084961,0,0.5820313,0.078125,1.1196289,0.234375l1.8735352,0.5507813
			c0.5107422,0.1523438,0.8339844,0.2285156,0.96875,0.2285156c0.0732422,0,0.1328125-0.0244141,0.1767578-0.0732422
			c0.0449219-0.0488281,0.0673828-0.1142578,0.0673828-0.1962891c0-0.1289063-0.0644531-0.296875-0.1914063-0.5039063
			c-0.1279297-0.2070313-0.4111328-0.4833984-0.8505859-0.8291016c-0.4384766-0.3457031-0.8505859-0.6308594-1.2353516-0.8564453
			c-0.3847656-0.2246094-0.996582-0.4638672-1.8359375-0.7177734l-0.440918-0.1289063V33.0149727z"/>
	</g>
	<g id="XMLID_27_">
		<path id="XMLID_163_" class="st0" d="M9.46875,61.9798164v-6.1547852h0.5629883v6.1547852H9.46875z M11.6328125,61.9798164
			v-6.1547852h0.5742188v6.1547852H11.6328125z"/>
	</g>
</g>
<g id="XMLID_3_">
	<g id="XMLID_150_">
		<g id="XMLID_151_">
			<polygon id="XMLID_152_" points="193.8016663,21.2533627 195.9297028,21.2533627 193.2491455,11.2428331 190.5639801,21.2533627 
				192.6921997,21.2533627 192.6921997,129.8333282 193.8016663,129.8333282 			"/>
		</g>
	</g>
</g>
<g id="XMLID_4_">
	<g id="XMLID_146_">
		<g id="XMLID_147_">
			<polygon id="XMLID_148_" points="89.5348892,21.2861385 91.6629257,21.2861385 88.9823837,11.275609 86.2972183,21.2861385 
				88.4254227,21.2861385 88.4254227,129.8333282 89.5348892,129.8333282 			"/>
		</g>
	</g>
</g>
<g id="XMLID_2_">
	<g id="XMLID_142_">
		<g id="XMLID_143_">
			<polygon id="XMLID_144_" points="24.7497826,77.5376663 24.7497826,75.4096298 14.7392559,78.0901718 24.7497826,80.7753372 
				24.7497826,78.6471329 98.8276596,78.6471329 98.8276596,77.5376663 			"/>
		</g>
	</g>
</g>
<polyline id="XMLID_5_" class="st1" points="137.4710541,78.0924149 137.8437805,78.8397903 138.2164917,79.5868378 
	138.5892029,80.3332291 138.9619141,81.0786209 139.3346405,81.8227081 139.7073517,82.5651321 140.0800629,83.3055878 
	140.4527893,84.0437393 140.8255005,84.7792664 141.1982269,85.5118408 141.5709381,86.2411423 141.9436493,86.966835 
	142.3163757,87.6886139 142.6890869,88.4061584 143.0617981,89.1191406 143.4345093,89.8272705 143.8072357,90.5301971 
	144.1799469,91.2276459 144.5526581,91.9192963 144.9253845,92.6048355 145.2980957,93.2839661 145.6708221,93.9563828 
	146.0435333,94.6218033 146.4162445,95.2799225 146.7889557,95.9304504 147.1616821,96.5731049 147.5343933,97.2075958 
	147.9071045,97.8336487 148.2798309,98.4509811 148.6525421,99.0593338 149.0252533,99.6584167 149.3979797,100.2479858 
	149.7706909,100.8277588 150.1434021,101.3974991 150.5161285,101.9569473 150.8888397,102.5058594 151.2615509,103.0439911 
	151.6342773,103.571106 152.0069885,104.0869675 152.3796997,104.5913544 152.7524109,105.0840454 153.1251373,105.5647964 
	153.4978485,106.033432 153.8705597,106.4897308 154.2432861,106.9334793 154.6159973,107.364502 154.9887238,107.782608 
	155.3614349,108.1875839 155.7341461,108.5792847 156.1068573,108.9575195 156.4795837,109.3221207 156.8522949,109.6729355 
	157.2250061,110.0097961 157.5977173,110.3325806 157.9704437,110.6411133 158.3431549,110.9352798 158.7158813,111.2149429 
	159.0885925,111.4799881 159.4613037,111.730278 159.8340302,111.9657211 160.2067413,112.186203 160.5794525,112.3916245 
	160.952179,112.5819168 161.3248901,112.7569733 161.6976013,112.9167252 162.0703125,113.0610886 162.4430389,113.1900177 
	162.8157501,113.3034439 163.1884766,113.401329 163.5611877,113.4836121 163.9338989,113.5502777 164.3066254,113.6012878 
	164.6793365,113.6366119 165.0520477,113.6562424 165.4247589,113.6601639 165.7974701,113.6483841 166.1701965,113.6209106 
	166.5429077,113.5777435 166.9156342,113.5189056 167.2883453,113.4444275 167.6610718,113.354332 168.033783,113.2486725 
	168.4064941,113.1274872 168.7792053,112.9908218 169.1519165,112.8387604 169.5246277,112.6713486 169.8973541,112.488678 
	170.2700653,112.2908096 170.6427917,112.0778351 171.0155029,111.8498611 171.3882294,111.606987 171.7609406,111.3493042 
	172.1336517,111.0769348 172.5063629,110.7900009 172.8790741,110.4886322 173.2518005,110.1729584 173.6245117,109.8431244 
	173.9972382,109.4992599 174.3699341,109.1415329 174.7426605,108.7700882 175.1153717,108.3851013 175.4880981,107.9867477 
	175.8608093,107.5751877 176.2335205,107.1505966 176.6062469,106.7131882 176.9789581,106.2631378 177.3516846,105.8006516 
	177.7243805,105.3259201 178.0971069,104.8391724 178.4698181,104.3406067 178.8425446,103.8304596 179.2152557,103.3089371 
	179.5879822,102.7762909 179.9606934,102.2327423 180.3334045,101.6785202 180.706131,101.1138992 181.0788269,100.5391083 
	181.4515533,99.9543991 181.8242645,99.3600464 182.196991,98.7562943 182.5697021,98.143425 182.9424286,97.521698 
	183.3151398,96.8913803 183.687851,96.2527847 184.0605621,95.6061554 184.4332733,94.9517899 184.8059998,94.2899857 
	185.1787109,93.6210327 185.5514374,92.9452133 185.9241333,92.2628479 186.2968597,91.5742111 186.6695709,90.879631 
	187.0422974,90.1794052 187.4150085,89.4738312 187.7877197,88.763237 188.1604462,88.0479355 188.5331573,87.3282318 
	188.9058838,86.604454 189.278595,85.876915 189.6513214,85.1459503 190.0240173,84.41185 190.3967438,83.6749725 
	190.769455,82.9356308 191.1421661,82.1941452 191.5148926,81.4508438 191.8876038,80.7060699 192.2603149,79.9601364 
	192.6330261,79.2133865 193.0057526,78.4661255 193.3784637,77.7187119 193.7511902,76.9714584 194.1239014,76.2247086 
	194.4966125,75.478775 194.8693237,74.7339935 195.2420349,73.9906921 195.6147614,73.2492065 195.9874725,72.5098648 
	196.360199,71.7729874 196.7329102,71.0388947 197.1056366,70.3079224 197.4783478,69.5803833 197.8510742,68.8566055 
	198.2237854,68.1369019 198.5964966,67.4216003 198.9692078,66.7110062 199.3419189,66.0054398 199.7146454,65.3052139 
	200.0873566,64.6106262 200.460083,63.9219971 200.8327789,63.239624 201.2055054,62.5638084 201.5782166,61.8948479 
	201.950943,61.2330437 202.3236542,60.5786896 202.6963654,59.9320564 203.0690765,59.2934494 203.4417877,58.663147 
	203.8145142,58.0414162 204.1872253,57.4285469 204.5599518,56.8247948 204.932663,56.230442 205.3053894,55.6457329 
	205.6781006,55.0709419 206.0508118,54.5063171 206.4235382,53.9520988 206.7962494,53.4085503 207.1689758,52.8759003 
	207.5416718,52.3543854 207.9143982,51.8442345 208.2871094,51.3456688 208.6598358,50.8589211 209.032547,50.3841896 
	209.4052582,49.9217033 209.7779694,49.4716568 210.1506805,49.0342407 210.523407,48.6096611 210.8961182,48.1980972 
	211.2688446,47.799736 211.6415405,47.414753 212.014267,47.0433235 212.3869781,46.6855774 212.7597046,46.3417282 
	213.1324158,46.0118828 213.5051422,45.6962166 213.8778534,45.3948441 214.2505646,45.1079063 214.623291,44.8355484 
	214.9960022,44.577858 215.3687286,44.3349838 215.7414246,44.1069984 216.114151,43.8940353 216.4868622,43.6961746 
	216.8595886,43.5134888 217.2322998,43.346077 217.605011,43.1940079 217.9777374,43.0573654 218.3504333,42.9361649 
	218.7231598,42.8305092 219.095871,42.7404175 219.4685974,42.6659355 219.8413086,42.6070976 220.214035,42.563942 
	220.586731,42.5364647 220.9594574,42.5246849 221.3321686,42.5285988 221.7048798,42.5482292 222.0776062,42.5835533 
	222.4503174,42.6345596 222.8230438,42.7012253 223.195755,42.7835236 223.5684814,42.8813972 223.9411926,42.9948311 
	224.3139038,43.123764 224.686615,43.2681351 225.0593262,43.4278679 225.4320526,43.6029243 225.8047638,43.7932053 
	226.1774902,43.998642 226.5502014,44.2191162 226.9229126,44.4545631 227.2956238,44.7048607 227.6683502,44.9698944 
	228.0410614,45.2495613 228.4137726,45.5437241 228.786499,45.8522682 229.1591949,46.1750412 229.5319214,46.5119057 
	229.9046326,46.8627281 230.277359,47.2273254 230.6500702,47.6055565 231.0227966,47.9972572 231.3955078,48.4022408 
	231.7682343,48.8203316 232.1409454,49.251358 232.5136566,49.6951103 232.8863831,50.1514015 233.2590942,50.6200409 
	233.6318054,51.1008072 234.0045166,51.5934868 234.377243,52.0978737 234.7499542,52.6137352 235.1226654,53.1408501 
	235.4953766,53.6789818 235.868103,54.2278938 236.2408142,54.7873421 236.6135254,55.3570786 236.9862518,55.9368591 
	237.358963,56.5264282 237.7316742,57.125515 238.1043854,57.73386 238.4771118,58.3511925 238.849823,58.9772415 
	239.2225494,59.6117325 239.5952606,60.2543907 239.9679718,60.904911 240.3406982,61.5630379 240.7134094,62.2284546 
	241.0861359,62.9008789 241.458847,63.5800095 241.8315735,64.2655411 242.2042694,64.9571915 242.5769958,65.6546326 
	242.949707,66.3575821 243.3224182,67.0656967 243.6951294,67.7786865 244.0678406,68.4962234 244.440567,69.2180023 
	244.8132782,69.9437027 245.1860046,70.6729965 245.5587158,71.405571 245.9314423,72.141098 246.3041382,72.8792572 
	246.6768646,73.6197052 247.0495758,74.3621368 247.4223022,75.1062164 247.7950134,75.8516083 248.1677246,76.5979996 
	248.540451,77.3450394 248.9131622,78.0924149 "/>
<polyline id="XMLID_13_" class="st1" points="37.0426407,121.0777283 41.1976357,119.3218842 45.1795044,117.5660477 
	48.9882507,115.8102036 52.6238747,114.0543671 56.0863686,112.2985306 59.3757362,110.5426941 62.4919815,108.78685 
	65.4351044,107.0310135 68.205101,105.275177 70.8019791,103.5193329 73.2257233,101.7634964 75.4763412,100.0076523 
	77.5538406,98.2518158 79.4582138,96.4959793 81.1894608,94.7401352 82.7475891,92.9842987 84.1325836,91.2284622 
	85.3444519,89.4726257 86.3832016,87.7167816 87.2488251,85.9609451 87.94133,84.205101 88.460701,82.4492645 88.8069534,80.693428 
	88.9800797,78.9375839 88.9800797,77.1817474 88.8069534,75.4259109 88.460701,73.6700745 87.94133,71.9142303 
	87.2488251,70.1583862 86.3832016,68.4025497 85.3444519,66.6467133 84.1325836,64.8908768 82.7475891,63.1350365 
	81.1894608,61.3792 79.4582138,59.6233521 77.5538406,57.8675156 75.4763412,56.1116753 73.2257233,54.3558388 
	70.8019791,52.5999985 68.205101,50.844162 65.4351044,49.0883255 62.4919815,47.3324776 59.3757362,45.5766411 
	56.0863686,43.8208008 52.6238747,42.0649643 48.9882507,40.309124 45.1795044,38.5532799 41.1976357,36.797451 
	37.0426407,35.0416031 "/>
<g id="XMLID_34_">
	<g id="XMLID_36_">
		<path id="XMLID_161_" class="st2" d="M33.4560547,18.0218105l0.887207,0.3232422v2.7148438h-0.1259766
			c-0.7294922-0.7988281-1.3256836-1.3613281-1.7875977-1.6865234c-0.4624023-0.3261719-0.8852539-0.4892578-1.2680664-0.4892578
			c-0.2924805,0-0.5327148,0.0898438-0.7207031,0.2685547s-0.2822266,0.3925781-0.2822266,0.6416016
			c0,0.2255859,0.0664063,0.4287109,0.1992188,0.609375c0.1323242,0.1796875,0.3266602,0.3125,0.5825195,0.3984375v0.1259766
			c-0.4189453-0.0566406-0.7407227-0.2021484-0.965332-0.4365234c-0.2241211-0.234375-0.3364258-0.5263672-0.3364258-0.8779297
			c0-0.3730469,0.1201172-0.6845703,0.3603516-0.9345703s0.5234375-0.375,0.8496094-0.375
			c0.2338867,0,0.4672852,0.0537109,0.7006836,0.1630859c0.3666992,0.1669922,0.7553711,0.4384766,1.1655273,0.8144531
			c0.6166992,0.5634766,0.9882813,0.9150391,1.1152344,1.0556641v-1.2021484c0-0.2441406-0.0092773-0.4150391-0.0273438-0.5136719
			s-0.0546875-0.1875-0.1103516-0.2666016s-0.1342773-0.1484375-0.2363281-0.2070313V18.0218105z"/>
	</g>
	<g id="XMLID_35_">
		<path id="XMLID_159_" class="st2" d="M34.5615234,22.4085293l3.5043945,1.0219727
			c0.5214844,0.152832,0.8505859,0.2290039,0.9882813,0.2290039c0.0703125,0,0.1220703-0.0126953,0.1552734-0.0380859
			s0.0498047-0.0595703,0.0498047-0.1030273c0-0.0664063-0.0302734-0.1396484-0.0908203-0.2202148
			c-0.0605469-0.0800781-0.3027344-0.2827148-0.7265625-0.6074219l0.1357422-0.1767578
			c0.4902344,0.3100586,0.8505859,0.6269531,1.0820313,0.9516602c0.1484375,0.215332,0.2236328,0.4228516,0.2236328,0.6225586
			c0,0.1523438-0.0439453,0.2719727-0.1298828,0.3579102c-0.0859375,0.0864258-0.1982422,0.1293945-0.3349609,0.1293945
			c-0.1337891,0-0.3095703-0.0253906-0.5292969-0.0766602c-0.2900391-0.0625-0.9208984-0.2407227-1.8935547-0.5341797
			c1.09375,0.6655273,1.8486328,1.222168,2.2636719,1.6704102c0.4160156,0.4482422,0.6240234,0.8642578,0.6240234,1.2475586
			c0,0.1801758-0.0634766,0.3330078-0.1884766,0.4580078c-0.1259766,0.1254883-0.2841797,0.1879883-0.4765625,0.1879883
			c-0.2939453,0-0.7441406-0.0859375-1.3525391-0.2583008l-1.8164063-0.5107422
			c-0.4355469-0.1254883-0.7060547-0.1879883-0.8115234-0.1879883c-0.046875,0-0.0869141,0.0166016-0.1201172,0.0498047
			s-0.0507813,0.0693359-0.0507813,0.1088867c0,0.0820313,0.0302734,0.1640625,0.0888672,0.246582
			c0.0585938,0.0820313,0.2763672,0.2680664,0.6523438,0.5576172l-0.1289063,0.1821289
			c-0.4550781-0.2939453-0.7900391-0.6049805-1.0058594-0.9335938c-0.168457-0.2504883-0.2529297-0.4814453-0.2529297-0.6928711
			c0-0.1450195,0.0463867-0.2631836,0.1381836-0.3554688c0.0922852-0.0917969,0.2104492-0.1376953,0.355957-0.1376953
			c0.2119141,0,0.5898438,0.078125,1.1347656,0.2348633l1.8994141,0.5517578
			c0.5166016,0.152832,0.8447266,0.2290039,0.9814453,0.2290039c0.0742188,0,0.1347656-0.0244141,0.1796875-0.0732422
			s0.0673828-0.1147461,0.0673828-0.1967773c0-0.1293945-0.0644531-0.2973633-0.1943359-0.5048828
			c-0.1289063-0.2075195-0.4160156-0.484375-0.8613281-0.8310547c-0.4443359-0.3461914-0.8623047-0.6318359-1.2519531-0.8569336
			c-0.390625-0.2250977-1.0107422-0.4648438-1.8613281-0.7192383l-0.4467773-0.1289063V22.4085293z"/>
	</g>
</g>
<polyline id="XMLID_33_" class="st3" points="75.2638092,78.0924759 75.2638092,56.0146141 205.0693054,56.0146141 
	205.0693054,78.0917053 "/>
<g id="XMLID_19_">
	<g id="XMLID_25_">
		<path id="XMLID_128_" class="st2" d="M244.4331055,41.2322578v1.8168945h-0.1923828
			c-0.1479492-0.5708008-0.3378906-0.9589844-0.5693359-1.1645508c-0.2314453-0.2060547-0.5263672-0.3085938-0.8842773-0.3085938
			c-0.2724609,0-0.4921875,0.0717773-0.6591797,0.215332c-0.1674805,0.1435547-0.2509766,0.3027344-0.2509766,0.4775391
			c0,0.2172852,0.0620117,0.4038086,0.1865234,0.5585938c0.1206055,0.1601563,0.3657227,0.328125,0.7353516,0.5068359
			l0.8520508,0.4140625c0.7900391,0.3837891,1.1850586,0.890625,1.1850586,1.5195313
			c0,0.4853516-0.184082,0.8769531-0.5517578,1.1738281s-0.7788086,0.4453125-1.234375,0.4453125
			c-0.3266602,0-0.7001953-0.0585938-1.1206055-0.1748047c-0.128418-0.0390625-0.2333984-0.0585938-0.3149414-0.0585938
			c-0.0898438,0-0.159668,0.0507813-0.2099609,0.1513672h-0.1928711v-1.9042969h0.1928711
			c0.1088867,0.5439453,0.3168945,0.953125,0.6240234,1.2294922c0.3076172,0.2753906,0.6518555,0.4130859,1.0332031,0.4130859
			c0.2685547,0,0.4873047-0.078125,0.6567383-0.2353516c0.1689453-0.1572266,0.2539063-0.3466797,0.2539063-0.5683594
			c0-0.2675781-0.0947266-0.4931641-0.2832031-0.6757813c-0.1889648-0.1816406-0.5654297-0.4130859-1.1293945-0.6923828
			c-0.5639648-0.2802734-0.9335938-0.5322266-1.1088867-0.7568359c-0.1748047-0.2216797-0.2626953-0.5019531-0.2626953-0.8398438
			c0-0.4379883,0.1508789-0.8046875,0.4526367-1.1000977c0.3012695-0.2949219,0.6914063-0.4423828,1.1699219-0.4423828
			c0.2099609,0,0.4648438,0.0444336,0.7646484,0.1337891c0.1982422,0.0581055,0.3305664,0.0874023,0.3969727,0.0874023
			c0.0620117,0,0.1108398-0.0136719,0.1459961-0.0405273c0.034668-0.0273438,0.0756836-0.0874023,0.1225586-0.1806641H244.4331055z"
			/>
		<path id="XMLID_130_" class="st2" d="M247.4853516,41.2322578v4.2866211c0,0.3339844,0.0244141,0.5556641,0.0727539,0.6660156
			c0.0488281,0.1113281,0.1206055,0.1933594,0.2163086,0.2480469c0.0952148,0.0546875,0.269043,0.0810547,0.5219727,0.0810547
			v0.2099609h-2.5966797v-0.2099609c0.2602539,0,0.4355469-0.0244141,0.5249023-0.0751953s0.1606445-0.1337891,0.2133789-0.2509766
			c0.0522461-0.1162109,0.0786133-0.3388672,0.0786133-0.6689453v-2.0566406c0-0.578125-0.0175781-0.9526367-0.0527344-1.1235352
			c-0.0273438-0.1240234-0.0698242-0.2104492-0.128418-0.2592773c-0.0581055-0.0483398-0.1381836-0.0727539-0.2392578-0.0727539
			c-0.1088867,0-0.2412109,0.0292969-0.3964844,0.0874023l-0.0820313-0.2094727l1.6108398-0.6523438H247.4853516z
			 M247.0009766,38.4427071c0.1635742,0,0.3022461,0.0571289,0.4174805,0.171875
			c0.1147461,0.1142578,0.171875,0.2529297,0.171875,0.4160156s-0.0571289,0.3032227-0.171875,0.4194336
			c-0.1152344,0.1166992-0.2539063,0.1748047-0.4174805,0.1748047s-0.3037109-0.0581055-0.4204102-0.1748047
			c-0.1166992-0.1162109-0.1748047-0.2563477-0.1748047-0.4194336s0.0571289-0.3017578,0.171875-0.4160156
			C246.6923828,38.499836,246.8334961,38.4427071,247.0009766,38.4427071z"/>
		<path id="XMLID_157_" class="st2" d="M250.5561523,42.3621407c0.6264648-0.753418,1.2236328-1.1298828,1.7924805-1.1298828
			c0.2910156,0,0.5429688,0.0727539,0.7519531,0.2182617c0.2109375,0.1455078,0.3769531,0.3852539,0.5019531,0.7192383
			c0.0859375,0.2329102,0.1289063,0.590332,0.1289063,1.0717773v2.2773438c0,0.3369141,0.0273438,0.5664063,0.0820313,0.6865234
			c0.0429688,0.0976563,0.1113281,0.1728516,0.2070313,0.2275391s0.2714844,0.0810547,0.5273438,0.0810547v0.2099609h-2.6435547
			v-0.2099609h0.1113281c0.2490234,0,0.4228516-0.0371094,0.5224609-0.1132813s0.1679688-0.1875,0.2070313-0.3349609
			c0.015625-0.0585938,0.0234375-0.2402344,0.0234375-0.546875v-2.1845703c0-0.4853516-0.0644531-0.8374023-0.1894531-1.0566406
			c-0.1269531-0.2192383-0.3398438-0.3291016-0.6396484-0.3291016c-0.4628906,0-0.9238281,0.2524414-1.3833008,0.7568359v2.8134766
			c0,0.3603516,0.0214844,0.5839844,0.0644531,0.6689453c0.0541992,0.1132813,0.1293945,0.1953125,0.2246094,0.2480469
			c0.0952148,0.0517578,0.2890625,0.078125,0.5805664,0.078125v0.2099609h-2.6435547v-0.2099609h0.1166992
			c0.2719727,0,0.4560547-0.0683594,0.5512695-0.2060547s0.1430664-0.4013672,0.1430664-0.7890625v-1.9804688
			c0-0.640625-0.0146484-1.0307617-0.043457-1.1704102c-0.0292969-0.1401367-0.0742188-0.2348633-0.1342773-0.2856445
			c-0.0605469-0.050293-0.1411133-0.0756836-0.2421875-0.0756836c-0.109375,0-0.2397461,0.0292969-0.3911133,0.0874023
			l-0.0878906-0.2094727l1.6108398-0.6523438h0.2509766V42.3621407z"/>
	</g>
	<g id="XMLID_24_">
		<path id="XMLID_118_" class="st2" d="M259.2939453,41.4534492c0.1904297,0.2021484,0.3339844,0.4038086,0.4316406,0.6054688
			c0.0703125,0.1401367,0.1845703,0.5068359,0.34375,1.1005859l0.5136719-0.7685547
			c0.1367188-0.1860352,0.3017578-0.3637695,0.4960938-0.5327148c0.1953125-0.1689453,0.3662109-0.2841797,0.5136719-0.3466797
			c0.09375-0.0385742,0.1962891-0.0581055,0.3095703-0.0581055c0.1669922,0,0.3007813,0.0449219,0.3994141,0.1337891
			c0.0996094,0.0893555,0.1494141,0.1982422,0.1494141,0.3261719c0,0.1479492-0.0292969,0.2485352-0.0878906,0.3027344
			c-0.1083984,0.097168-0.2333984,0.1459961-0.3730469,0.1459961c-0.0820313,0-0.1699219-0.0175781-0.2626953-0.0527344
			c-0.1835938-0.0620117-0.3056641-0.0932617-0.3681641-0.0932617c-0.0927734,0-0.2041016,0.0546875-0.3320313,0.1630859
			c-0.2412109,0.2021484-0.5292969,0.5927734-0.8642578,1.1708984l0.4785156,2.0029297
			c0.0742188,0.3066406,0.1367188,0.4902344,0.1865234,0.5507813c0.0507813,0.0605469,0.1015625,0.0898438,0.1523438,0.0898438
			c0.0810547,0,0.1767578-0.0439453,0.2861328-0.1337891c0.2138672-0.1787109,0.3964844-0.4111328,0.5478516-0.6982422
			l0.2050781,0.1044922c-0.2451172,0.4580078-0.5566406,0.8388672-0.9345703,1.1416016
			c-0.2138672,0.1708984-0.3945313,0.2558594-0.5419922,0.2558594c-0.21875,0-0.3916016-0.1220703-0.5195313-0.3671875
			c-0.0820313-0.1513672-0.2509766-0.8037109-0.5078125-1.9560547c-0.6074219,1.0517578-1.09375,1.7294922-1.4589844,2.0322266
			c-0.2373047,0.1943359-0.4667969,0.2910156-0.6894531,0.2910156c-0.1552734,0-0.296875-0.0566406-0.4257813-0.1689453
			c-0.0927734-0.0849609-0.1396484-0.2001953-0.1396484-0.34375c0-0.1279297,0.0429688-0.234375,0.1279297-0.3203125
			c0.0859375-0.0849609,0.1904297-0.1279297,0.3154297-0.1279297c0.1240234,0,0.2568359,0.0625,0.3964844,0.1865234
			c0.1015625,0.0888672,0.1796875,0.1337891,0.2333984,0.1337891c0.046875,0,0.1074219-0.03125,0.1816406-0.0927734
			c0.1826172-0.1474609,0.4316406-0.4658203,0.7470703-0.9550781c0.3144531-0.4892578,0.5205078-0.8427734,0.6181641-1.0605469
			c-0.2412109-0.9433594-0.3710938-1.4418945-0.390625-1.496582c-0.0898438-0.2519531-0.2070313-0.4306641-0.3505859-0.5356445
			s-0.3554688-0.1572266-0.6357422-0.1572266c-0.0898438,0-0.1933594,0.0039063-0.3095703,0.0117188V41.727375
			L259.2939453,41.4534492z"/>
	</g>
</g>
<polyline id="XMLID_16_" class="st3" points="68.205101,78.0604401 68.205101,50.844162 208.6598358,50.844162 
	208.6598358,78.0594864 "/>
<g id="XMLID_18_">
	<g id="XMLID_21_">
		<path id="XMLID_116_" class="st4" d="M210.7138672,84.0179062c0.1875,0.2021484,0.3300781,0.4038086,0.4257813,0.6054688
			c0.0693359,0.1401367,0.1826172,0.5068359,0.3408203,1.1005859l0.5068359-0.7685547
			c0.1347656-0.1860352,0.2978516-0.3637695,0.4902344-0.5327148s0.3613281-0.2841797,0.5068359-0.3466797
			c0.0927734-0.0385742,0.1943359-0.0581055,0.3056641-0.0581055c0.1650391,0,0.296875,0.0449219,0.3955078,0.1337891
			c0.0976563,0.0893555,0.1464844,0.1982422,0.1464844,0.3261719c0,0.1479492-0.0283203,0.2485352-0.0859375,0.3027344
			c-0.1083984,0.097168-0.2304688,0.1459961-0.3691406,0.1459961c-0.0810547,0-0.1669922-0.0175781-0.2597656-0.0527344
			c-0.1806641-0.0620117-0.3017578-0.0932617-0.3632813-0.0932617c-0.0917969,0-0.2011719,0.0546875-0.328125,0.1630859
			c-0.2382813,0.2021484-0.5224609,0.5927734-0.8535156,1.1708984l0.4726563,2.0029297
			c0.0732422,0.3066406,0.1347656,0.4902344,0.1845703,0.5507813s0.0996094,0.0898438,0.1503906,0.0898438
			c0.0800781,0,0.1748047-0.0439453,0.2822266-0.1337891c0.2109375-0.1787109,0.3916016-0.4111328,0.5419922-0.6982422
			l0.2011719,0.1044922c-0.2421875,0.4580078-0.5488281,0.8388672-0.921875,1.1416016
			c-0.2119141,0.1708984-0.390625,0.2558594-0.5361328,0.2558594c-0.2158203,0-0.3867188-0.1220703-0.5126953-0.3671875
			c-0.0810547-0.1513672-0.2480469-0.8037109-0.5019531-1.9560547c-0.5996094,1.0517578-1.0800781,1.7294922-1.4414063,2.0322266
			c-0.234375,0.1943359-0.4609375,0.2910156-0.6796875,0.2910156c-0.1542969,0-0.2949219-0.0566406-0.421875-0.1689453
			c-0.0917969-0.0849609-0.1376953-0.2001953-0.1376953-0.34375c0-0.1279297,0.0419922-0.234375,0.1269531-0.3203125
			c0.0849609-0.0849609,0.1884766-0.1279297,0.3115234-0.1279297s0.2529297,0.0625,0.3916016,0.1865234
			c0.0996094,0.0888672,0.1767578,0.1337891,0.2304688,0.1337891c0.0458984,0,0.1054688-0.03125,0.1787109-0.0927734
			c0.1806641-0.1474609,0.4267578-0.4658203,0.7382813-0.9550781s0.5146484-0.8427734,0.6103516-1.0605469
			c-0.2382813-0.9433594-0.3662109-1.4418945-0.3857422-1.496582c-0.0888672-0.2519531-0.2041016-0.4306641-0.3457031-0.5356445
			c-0.1425781-0.1049805-0.3515625-0.1572266-0.6289063-0.1572266c-0.0878906,0-0.1894531,0.0039063-0.3056641,0.0117188V84.291832
			L210.7138672,84.0179062z"/>
	</g>
	<g id="XMLID_20_">
		<path id="XMLID_113_" class="st4" d="M208.5390625,89.288414h-6.9174805l3.6201172-8.0776367L208.5390625,89.288414z
			 M207.1787109,88.8108749l-2.2998047-5.6313477l-2.5366211,5.6313477H207.1787109z"/>
	</g>
</g>
<g id="XMLID_44_">
	<g id="XMLID_54_">
		<path id="XMLID_111_" class="st4" d="M145.753418,41.5930977l-1.0078125,3.4707031
			c-0.1513672,0.5166016-0.2265625,0.8427734-0.2265625,0.9785156c0,0.0703125,0.0126953,0.1220703,0.0380859,0.1542969
			c0.0244141,0.0332031,0.0585938,0.0498047,0.1015625,0.0498047c0.0654297,0,0.1376953-0.0302734,0.2167969-0.0898438
			c0.0791016-0.0605469,0.2792969-0.3007813,0.5996094-0.7197266l0.1738281,0.1337891
			c-0.3046875,0.4853516-0.6181641,0.8427734-0.9384766,1.0722656c-0.2128906,0.1474609-0.4169922,0.2207031-0.6142578,0.2207031
			c-0.1503906,0-0.2685547-0.0429688-0.3535156-0.1279297s-0.1279297-0.1962891-0.1279297-0.3320313
			c0-0.1318359,0.0253906-0.3066406,0.0751953-0.5244141c0.0625-0.2871094,0.2382813-0.9121094,0.5273438-1.875
			c-0.65625,1.0830078-1.2060547,1.8310547-1.6484375,2.2421875s-0.8525391,0.6171875-1.2314453,0.6171875
			c-0.1777344,0-0.328125-0.0625-0.4521484-0.1865234s-0.1855469-0.28125-0.1855469-0.4716797
			c0-0.2910156,0.0849609-0.7373047,0.2548828-1.3388672l0.5039063-1.7998047
			c0.1240234-0.4311523,0.1855469-0.6987305,0.1855469-0.8037109c0-0.046875-0.015625-0.0864258-0.0488281-0.1196289
			c-0.0332031-0.0327148-0.0683594-0.0493164-0.1074219-0.0493164c-0.0810547,0-0.1621094,0.0292969-0.2431641,0.0874023
			s-0.2646484,0.2734375-0.5507813,0.6459961l-0.1796875-0.1279297c0.2900391-0.4501953,0.5966797-0.7822266,0.921875-0.9956055
			c0.2470703-0.1669922,0.4746094-0.2504883,0.6835938-0.2504883c0.1425781,0,0.2597656,0.0458984,0.3505859,0.1367188
			c0.0908203,0.0913086,0.1367188,0.2089844,0.1367188,0.3525391c0,0.2094727-0.078125,0.5844727-0.2324219,1.1240234
			l-0.5449219,1.8808594c-0.1503906,0.5126953-0.2255859,0.8369141-0.2255859,0.9726563
			c0,0.0742188,0.0244141,0.1328125,0.0722656,0.1777344s0.1132813,0.0673828,0.1943359,0.0673828
			c0.1269531,0,0.2929688-0.0644531,0.4980469-0.1923828s0.4785156-0.4130859,0.8203125-0.8535156
			s0.6240234-0.8544922,0.8466797-1.2402344c0.2216797-0.3857422,0.4580078-1.0009766,0.7099609-1.8432617l0.1269531-0.4428711
			H145.753418z"/>
	</g>
	<g id="XMLID_45_">
		<path id="XMLID_108_" class="st4" d="M140.0297852,46.7239571h-6.9545898l3.6396484-8.0776367L140.0297852,46.7239571z
			 M138.6621094,46.246418l-2.3125-5.6313477l-2.550293,5.6313477H138.6621094z"/>
	</g>
</g>
<g id="XMLID_55_">
	<g id="XMLID_57_">
		<path id="XMLID_106_" class="st4" d="M64.6196289,85.3909531c0.2275391-0.1308594,0.4399414-0.2216797,0.6381836-0.2714844
			c0.1977539-0.0498047,0.5869141-0.0996094,1.1669922-0.1494141l2.8930664-0.2539063
			c-0.2822266-0.2304688-0.7294922-0.5654297-1.3408203-1.0029297c-0.2978516-0.2119141-0.703125-0.4726563-1.2172852-0.7841797
			c-0.3134766-0.1884766-0.5327148-0.3037109-0.6582031-0.3457031c-0.0629883-0.0234375-0.1274414-0.0351563-0.1943359-0.0351563
			c-0.0429688,0-0.078125,0.0136719-0.1054688,0.0410156c-0.0273438,0.0263672-0.0600586,0.0966797-0.097168,0.2099609
			s-0.105957,0.2080078-0.2060547,0.2822266c-0.0996094,0.0751953-0.2143555,0.1132813-0.34375,0.1132813
			c-0.1606445,0-0.2900391-0.046875-0.3881836-0.1386719c-0.0976563-0.0927734-0.1469727-0.2080078-0.1469727-0.3457031
			c0-0.1689453,0.0717773-0.3134766,0.2148438-0.4326172s0.3398438-0.1787109,0.5908203-0.1787109
			c0.3095703,0,0.6635742,0.1035156,1.0610352,0.3115234c0.3979492,0.2070313,1.0083008,0.6074219,1.831543,1.1992188
			s1.7207031,1.3085938,2.6933594,2.1494141c0.6699219,0.5810547,1.0927734,1.0117188,1.2666016,1.2919922
			c0.1748047,0.2802734,0.2617188,0.5205078,0.2617188,0.7202148c0,0.1191406-0.0458984,0.2241211-0.1376953,0.3144531
			c-0.0927734,0.090332-0.1992188,0.1352539-0.3203125,0.1352539c-0.1533203,0-0.2919922-0.0625-0.4179688-0.1870117
			c-0.125-0.125-0.1884766-0.2607422-0.1884766-0.4067383c0-0.0761719,0.0185547-0.140625,0.0537109-0.1894531
			c0.0195313-0.03125,0.0751953-0.0644531,0.1669922-0.1015625s0.1542969-0.0703125,0.1855469-0.1005859
			c0.0195313-0.0195313,0.0292969-0.0429688,0.0292969-0.0693359c0-0.0234375-0.0195313-0.0634766-0.0585938-0.1210938
			c-0.1337891-0.2119141-0.3447266-0.4570313-0.6347656-0.7382813c-0.3847656-0.3691406-0.6982422-0.6416016-0.9414063-0.8183594
			l-3.7275391,0.3232422c-0.6152344,0.0537109-0.9897461,0.1337891-1.1230469,0.2421875
			c-0.1333008,0.1074219-0.199707,0.2880859-0.199707,0.5410156c0,0.0810547,0.0117188,0.2255859,0.0351563,0.4326172
			l-0.2177734,0.0517578L64.6196289,85.3909531z"/>
	</g>
	<g id="XMLID_56_">
		<path id="XMLID_97_" class="st4" d="M69.940918,87.4036484v6.9174805l-8.1552734-3.6201172L69.940918,87.4036484z
			 M69.4584961,88.7639999l-5.6855469,2.2998047l5.6855469,2.5366211V88.7639999z"/>
	</g>
</g>
<polyline id="XMLID_126_" class="st1" points="54.209404,224.9661102 54.7516441,224.9432831 55.2938843,224.8748474 
	55.8361244,224.76091 56.3783569,224.6016846 56.9205971,224.3974457 57.4628334,224.1485748 58.0050659,223.855484 
	58.5473061,223.5187073 59.0895462,223.1388245 59.6317863,222.716507 60.1740265,222.252533 60.7162666,221.7476807 
	61.2585068,221.2028656 61.8007355,220.6190338 62.3429756,219.9972382 62.8852043,219.3385468 63.4274445,218.644165 
	63.969677,217.9152832 64.5119171,217.1531982 65.0541534,216.3592529 65.5963974,215.5348663 66.1386337,214.681488 
	66.6808777,213.8005981 67.223114,212.8937988 67.7653427,211.9626465 68.3075867,211.0088196 68.8498154,210.0339813 
	69.3920517,209.039856 69.9342957,208.0282135 70.4765244,207.0008392 71.0187683,205.9595337 71.5610046,204.9061279 
	72.103241,203.842514 72.6454849,202.7705536 73.1877213,201.6921234 73.7299576,200.6091461 74.2721939,199.5235443 
	74.8144379,198.4372253 75.3566666,197.3520813 75.8989029,196.2700806 76.4411316,195.1930847 76.9833755,194.1230316 
	77.5256119,193.0617981 78.0678558,192.0112457 78.6100922,190.9732513 79.1523361,189.9496307 79.6945724,188.9421997 
	80.2368011,187.9527435 80.7790451,186.9830017 81.3212738,186.0346832 81.8635178,185.1094666 82.4057465,184.2089996 
	82.9479828,183.3348389 83.4902267,182.4885712 84.0324631,181.6716461 84.574707,180.8855438 85.1169434,180.1316376 
	85.6591873,179.4112701 86.201416,178.7256927 86.7436523,178.0761261 87.285881,177.4637146 87.828125,176.8895569 
	88.3703613,176.3546295 88.9126053,175.8599243 89.454834,175.4062805 89.9970779,174.9945221 90.5393143,174.625351 
	91.0815506,174.2994385 91.6237946,174.0173645 92.1660233,173.7796021 92.7082672,173.5865784 93.2505035,173.4386597 
	93.7927475,173.3360901 94.3349762,173.2790375 94.8772125,173.2676239 95.4194412,173.3018646 95.9616852,173.3816986 
	96.5039215,173.5069733 97.0461655,173.677475 97.5884018,173.8928986 98.1306458,174.1528778 98.6728745,174.456955 
	99.2151108,174.8045654 99.7573547,175.1951294 100.2995758,175.6279144 100.8418121,176.1022034 101.3840561,176.6171265 
	101.9262924,177.1717834 102.4685364,177.765213 103.0107727,178.3963318 103.5530167,179.0640564 104.095253,179.7671814 
	104.6374741,180.5044861 105.1797104,181.2746582 105.7219543,182.076355 106.2641907,182.9081268 106.8064346,183.7685242 
	107.348671,184.6560364 107.890892,185.5690918 108.433136,186.5060577 108.9753723,187.4653015 109.5176163,188.4451141 
	110.0598526,189.4437866 110.6020966,190.4595337 111.1443329,191.4905701 111.6865768,192.5350647 112.2288132,193.5912018 
	112.7710342,194.657074 113.3132706,195.730835 113.8555145,196.8105774 114.3977509,197.8943787 114.9399948,198.9803467 
	115.4822311,200.0665588 116.0244751,201.1510925 116.5667114,202.2320251 117.1089554,203.3074493 117.6511765,204.375473 
	118.1934128,205.4342194 118.7356567,206.4818115 119.2778931,207.5163879 119.8201294,208.5361176 120.3623734,209.5392151 
	120.9046097,210.5239105 121.4468307,211.4884644 121.9890747,212.4311676 122.531311,213.3503418 123.073555,214.2443848 
	123.6157913,215.1117096 124.1580353,215.9507751 124.7002563,216.7601166 125.2424927,217.5383148 125.7847366,218.2839508 
	126.326973,218.9957428 126.8692093,219.6724243 127.4114532,220.3128052 127.9536896,220.9157562 128.4959259,221.4802094 
	129.0381775,222.0051575 129.5804138,222.4896851 130.1226501,222.9329224 130.6648712,223.3341064 131.2071075,223.6925201 
	131.7493591,224.0075226 132.2915955,224.2785797 132.8338318,224.5051727 133.3760681,224.6869507 133.9182892,224.8235474 
	134.4605255,224.9147644 135.0027771,224.9604034 135.5450134,224.9604034 136.0872498,224.9147644 136.6294861,224.8235474 
	137.1717072,224.6869507 137.7139587,224.5051727 138.2561951,224.2785797 138.7984314,224.0075226 139.3406677,223.6925201 
	139.8829193,223.3341064 140.4251556,222.9329224 140.967392,222.4896851 141.5096283,222.0051575 142.0518646,221.4802094 
	142.5941162,220.9157562 143.1363373,220.3128052 143.6785736,219.6724243 144.2208099,218.9957428 144.7630463,218.2839508 
	145.3052979,217.5383148 145.8475342,216.7601166 146.3897552,215.9507751 146.9319916,215.1117096 147.4742279,214.2443848 
	148.0164795,213.3503418 148.5587158,212.4311676 149.1009521,211.4884644 149.6431732,210.5239105 150.1854095,209.5392151 
	150.7276459,208.5361176 151.2698975,207.5163879 151.8121338,206.4818115 152.3543701,205.4342194 152.8966064,204.375473 
	153.438858,203.3074493 153.9810944,202.2320251 154.5233307,201.1510925 155.065567,200.0665588 155.6078186,198.9803467 
	156.1500244,197.8943787 156.692276,196.8105774 157.2345123,195.730835 157.7767487,194.657074 158.318985,193.5912018 
	158.8612061,192.5350647 159.4034576,191.4905701 159.945694,190.4595337 160.4879303,189.4437866 161.0301666,188.4451141 
	161.5724182,187.4653015 162.1146393,186.5060577 162.6568756,185.5690918 163.1991119,184.6560364 163.7413483,183.7685242 
	164.2835846,182.9081268 164.8258362,182.076355 165.3680725,181.2746582 165.9103088,180.5044861 166.4525452,179.7671814 
	166.9947968,179.0640564 167.5370331,178.3963318 168.0792542,177.765213 168.6214905,177.1717834 169.1637268,176.6171265 
	169.7059784,176.1022034 170.2482147,175.6279144 170.790451,175.1951294 171.3326874,174.8045654 171.8749084,174.456955 
	172.4171448,174.1528778 172.9593964,173.8928986 173.5016327,173.677475 174.043869,173.5069733 174.5861053,173.3816986 
	175.1283264,173.3018646 175.670578,173.2676239 176.2128143,173.2790375 176.7550507,173.3360901 177.297287,173.4386597 
	177.8395233,173.5865784 178.3817749,173.7796021 178.9240112,174.0173645 179.4662476,174.2994385 180.0084839,174.625351 
	180.5507355,174.9945221 181.0929565,175.4062805 181.6351929,175.8599243 182.1774292,176.3546295 182.7196655,176.8895569 
	183.2619171,177.4637146 183.8041534,178.0761261 184.3463745,178.7256927 184.8886108,179.4112701 185.4308472,180.1316376 
	185.9730835,180.8855438 186.5153351,181.6716461 187.0575714,182.4885712 187.5997925,183.3348389 188.1420288,184.2089996 
	188.6842651,185.1094666 189.2265167,186.0346832 189.7687531,186.9830017 190.3109894,187.9527435 190.8532257,188.9421997 
	191.3954773,189.9496307 191.9377136,190.9732513 192.47995,192.0112457 193.0221863,193.0617981 193.5644226,194.1230316 
	194.1066437,195.1930847 194.6488953,196.2700806 195.1911316,197.3520813 195.7333679,198.4372253 196.275589,199.5235443 
	196.8178253,200.6091461 197.3600769,201.6921234 197.9023132,202.7705536 198.4445496,203.842514 198.9867859,204.9061279 
	199.5290375,205.9595337 200.0712433,207.0008392 200.6134949,208.0282135 201.1557312,209.039856 201.6979675,210.0339813 
	202.2402039,211.0088196 202.7824554,211.9626465 203.3246918,212.8937988 203.8669281,213.8005981 204.4091644,214.681488 
	204.951416,215.5348663 205.4936523,216.3592529 206.0358887,217.1531982 206.5781097,217.9152832 207.1203461,218.644165 
	207.6625824,219.3385468 208.204834,219.9972382 208.7470551,220.6190338 209.2892914,221.2028656 209.8315277,221.7476807 
	210.373764,222.252533 210.9160156,222.716507 211.458252,223.1388245 212.0004883,223.5187073 212.5427094,223.855484 
	213.0849457,224.1485748 213.6271973,224.3974457 214.1694336,224.6016846 214.7116699,224.76091 215.2539063,224.8748474 
	215.7961426,224.9432831 216.3383942,224.9661102 "/>
<g id="XMLID_125_">
	<g id="XMLID_138_">
		<g id="XMLID_139_">
			<polygon id="XMLID_140_" points="229.171936,225.5209198 229.171936,227.6489716 239.1824646,224.968399 229.171936,222.2832489 
				229.171936,224.4114532 37.6824646,224.4114532 37.6824646,225.5209198 			"/>
		</g>
	</g>
</g>
<g id="XMLID_124_">
	<g id="XMLID_134_">
		<g id="XMLID_135_">
			<polygon id="XMLID_136_" points="135.8286133,167.0464935 137.9566498,167.0464935 135.2761078,157.035965 
				132.5909424,167.0464935 134.7191467,167.0464935 134.7191467,240.3333282 135.8286133,240.3333282 			"/>
		</g>
	</g>
</g>
<g id="XMLID_120_">
	<g id="XMLID_123_">
		<path id="XMLID_95_" class="st2" d="M207.0209961,163.7195587l-0.3193359,0.887207h-2.6884766v-0.1259766
			c0.7910156-0.7294922,1.3476563-1.3256836,1.6708984-1.7875977c0.3222656-0.4624023,0.4833984-0.8852539,0.4833984-1.2680664
			c0-0.2924805-0.0878906-0.5327148-0.265625-0.7207031c-0.1767578-0.1879883-0.3886719-0.2822266-0.6347656-0.2822266
			c-0.2236328,0-0.4248047,0.0664063-0.6035156,0.1992188c-0.1777344,0.1323242-0.3095703,0.3266602-0.3945313,0.5825195h-0.1240234
			c0.0556641-0.4189453,0.1992188-0.7407227,0.4316406-0.965332c0.2314453-0.2241211,0.5214844-0.3364258,0.8681641-0.3364258
			c0.3701172,0,0.6787109,0.1201172,0.9257813,0.3603516c0.2480469,0.2402344,0.3720703,0.5234375,0.3720703,0.8496094
			c0,0.2338867-0.0537109,0.4672852-0.1621094,0.7006836c-0.1650391,0.3666992-0.4345703,0.7553711-0.8056641,1.1655273
			c-0.5585938,0.6166992-0.90625,0.9882813-1.0458984,1.1152344h1.1904297c0.2412109,0,0.4111328-0.0092773,0.5087891-0.0273438
			s0.1855469-0.0546875,0.2636719-0.1103516s0.1464844-0.1342773,0.2050781-0.2363281H207.0209961z"/>
	</g>
	<g id="XMLID_122_">
		<path id="XMLID_88_" class="st2" d="M192.8896484,164.4607697v1.8344727h-0.1914063
			c-0.1474609-0.5761719-0.3364258-0.96875-0.5668945-1.1757813c-0.2304688-0.2080078-0.5244141-0.3120117-0.8808594-0.3120117
			c-0.2709961,0-0.4902344,0.0727539-0.6567383,0.2172852c-0.1665039,0.1455078-0.25,0.3056641-0.25,0.4824219
			c0,0.2197266,0.0620117,0.4082031,0.1860352,0.5644531c0.1201172,0.1611328,0.3642578,0.3310547,0.7324219,0.5117188
			l0.8486328,0.4169922c0.7866211,0.3886719,1.1801758,0.9003906,1.1801758,1.5351563
			c0,0.4902344-0.1831055,0.8847656-0.5493164,1.1845703s-0.7758789,0.4501953-1.2294922,0.4501953
			c-0.3256836,0-0.6977539-0.0595703-1.1162109-0.1767578c-0.1279297-0.0390625-0.2324219-0.0585938-0.3134766-0.0585938
			c-0.0893555,0-0.1591797,0.0507813-0.2094727,0.1523438h-0.1918945v-1.9228516h0.1918945
			c0.1083984,0.5488281,0.315918,0.9628906,0.6220703,1.2412109s0.6489258,0.4169922,1.0288086,0.4169922
			c0.2670898,0,0.4853516-0.0791016,0.6538086-0.2373047c0.168457-0.1591797,0.2529297-0.3505859,0.2529297-0.5742188
			c0-0.2695313-0.0942383-0.4970703-0.2817383-0.6816406c-0.1879883-0.1845703-0.5629883-0.4169922-1.125-0.6992188
			s-0.9301758-0.5371094-1.1044922-0.7646484c-0.1743164-0.2236328-0.2617188-0.5058594-0.2617188-0.8466797
			c0-0.4433594,0.1503906-0.8134766,0.4506836-1.1113281s0.6889648-0.4467773,1.1655273-0.4467773
			c0.2094727,0,0.4628906,0.0449219,0.7612305,0.1352539c0.1977539,0.0585938,0.3295898,0.0878906,0.3955078,0.0878906
			c0.0620117,0,0.1103516-0.0136719,0.1455078-0.0410156c0.034668-0.0273438,0.0751953-0.0883789,0.1220703-0.1821289H192.8896484z"
			/>
		<path id="XMLID_90_" class="st2" d="M195.9301758,164.4607697v4.3276367c0,0.3369141,0.0239258,0.5615234,0.0727539,0.6728516
			c0.0483398,0.1113281,0.1196289,0.1953125,0.2148438,0.25c0.0947266,0.0546875,0.2685547,0.0820313,0.5205078,0.0820313v0.2119141
			h-2.5869141v-0.2119141c0.2597656,0,0.434082-0.0253906,0.5229492-0.0761719
			c0.0893555-0.0507813,0.1601563-0.1357422,0.2124023-0.2529297s0.0786133-0.3427734,0.0786133-0.6757813v-2.0761719
			c0-0.5839844-0.0175781-0.9619141-0.0527344-1.1347656c-0.0268555-0.125-0.0693359-0.2119141-0.1274414-0.2617188
			c-0.0581055-0.0488281-0.1376953-0.0732422-0.2387695-0.0732422c-0.1083984,0-0.2402344,0.0292969-0.3950195,0.0878906
			l-0.081543-0.2109375l1.6044922-0.6586914H195.9301758z M195.4477539,161.6443634
			c0.1625977,0,0.3012695,0.0576172,0.4155273,0.1733398s0.1713867,0.2558594,0.1713867,0.4204102
			s-0.0571289,0.3056641-0.1713867,0.4233398s-0.2529297,0.1762695-0.4155273,0.1762695
			c-0.1630859,0-0.3022461-0.0585938-0.418457-0.1762695c-0.1166992-0.1176758-0.1748047-0.2587891-0.1748047-0.4233398
			s0.0571289-0.3046875,0.171875-0.4204102C195.140625,161.7019806,195.2807617,161.6443634,195.4477539,161.6443634z"/>
		<path id="XMLID_93_" class="st2" d="M198.9887695,165.6009064c0.6240234-0.7602539,1.21875-1.1401367,1.784668-1.1401367
			c0.2905273,0,0.5405273,0.0732422,0.75,0.2202148c0.2089844,0.1469727,0.3759766,0.3896484,0.5,0.7265625
			c0.0849609,0.2353516,0.1279297,0.5957031,0.1279297,1.0820313v2.2988281c0,0.3408203,0.0268555,0.5722656,0.0810547,0.6933594
			c0.0424805,0.0986328,0.1113281,0.1748047,0.206543,0.2294922c0.0947266,0.0546875,0.2700195,0.0820313,0.5258789,0.0820313
			v0.2119141h-2.6333008v-0.2119141h0.1108398c0.2475586,0,0.4213867-0.0380859,0.5200195-0.1142578
			s0.1674805-0.1894531,0.206543-0.3378906c0.0151367-0.0595703,0.0229492-0.2431641,0.0229492-0.5527344v-2.2050781
			c0-0.4902344-0.0629883-0.8457031-0.1889648-1.0673828s-0.3378906-0.3320313-0.6362305-0.3320313
			c-0.4614258,0-0.9204102,0.2548828-1.3779297,0.7646484v2.8398438c0,0.3642578,0.0214844,0.5898438,0.0639648,0.6757813
			c0.0541992,0.1142578,0.1289063,0.1972656,0.2241211,0.25c0.0947266,0.0527344,0.2875977,0.0791016,0.578125,0.0791016v0.2119141
			h-2.6333008v-0.2119141h0.1166992c0.2709961,0,0.4541016-0.0693359,0.5493164-0.2080078
			c0.0947266-0.1396484,0.1420898-0.4052734,0.1420898-0.796875v-1.9990234c0-0.6474609-0.0146484-1.0410156-0.043457-1.1826172
			c-0.0292969-0.140625-0.0737305-0.2363281-0.1337891-0.2880859c-0.0600586-0.0507813-0.140625-0.0761719-0.2412109-0.0761719
			c-0.1083984,0-0.2382813,0.0292969-0.3896484,0.0878906l-0.0869141-0.2109375l1.6044922-0.6586914h0.2495117V165.6009064z"/>
	</g>
	<g id="XMLID_121_">
		<path id="XMLID_86_" class="st2" d="M212.7495117,164.6839142c0.1894531,0.2041016,0.3330078,0.4082031,0.4306641,0.6113281
			c0.0693359,0.1416016,0.1835938,0.5117188,0.3427734,1.1113281l0.5117188-0.7763672
			c0.1347656-0.1875,0.2998047-0.3671875,0.4931641-0.5371094c0.1943359-0.1708984,0.3642578-0.2875977,0.5117188-0.3500977
			c0.09375-0.0390625,0.1962891-0.059082,0.3085938-0.059082c0.1660156,0,0.2988281,0.0454102,0.3984375,0.1352539
			c0.0986328,0.090332,0.1474609,0.199707,0.1474609,0.3295898c0,0.1484375-0.0283203,0.2509766-0.0869141,0.3056641
			c-0.1083984,0.0976563-0.2324219,0.1464844-0.3720703,0.1464844c-0.0810547,0-0.1689453-0.0175781-0.2617188-0.0527344
			c-0.1816406-0.0625-0.3037109-0.09375-0.3662109-0.09375c-0.0927734,0-0.203125,0.0546875-0.3310547,0.1640625
			c-0.2402344,0.2041016-0.5273438,0.5986328-0.8603516,1.1826172l0.4765625,2.0224609
			c0.0732422,0.3095703,0.1357422,0.4951172,0.1865234,0.5556641c0.0498047,0.0605469,0.1005859,0.0908203,0.1503906,0.0908203
			c0.0820313,0,0.1767578-0.0449219,0.2851563-0.1347656c0.2128906-0.1806641,0.3955078-0.4160156,0.5458984-0.7060547
			l0.2041016,0.1054688c-0.2441406,0.4628906-0.5546875,0.8466797-0.9306641,1.1533203
			c-0.2128906,0.171875-0.3925781,0.2587891-0.5400391,0.2587891c-0.2167969,0-0.3896484-0.1240234-0.5175781-0.3710938
			c-0.0810547-0.1523438-0.25-0.8115234-0.5058594-1.9755859c-0.6044922,1.0625-1.0888672,1.7460938-1.453125,2.0517578
			c-0.2363281,0.1962891-0.4648438,0.2949219-0.6855469,0.2949219c-0.1552734,0-0.296875-0.0576172-0.4248047-0.1708984
			c-0.0927734-0.0859375-0.1396484-0.2021484-0.1396484-0.3466797c0-0.1298828,0.0429688-0.2373047,0.1279297-0.3232422
			c0.0859375-0.0869141,0.1904297-0.1298828,0.3144531-0.1298828s0.2558594,0.0625,0.3955078,0.1884766
			c0.1005859,0.0898438,0.1777344,0.1347656,0.2324219,0.1347656c0.0458984,0,0.1064453-0.03125,0.1796875-0.09375
			c0.1826172-0.1494141,0.4306641-0.4707031,0.7441406-0.9648438c0.3144531-0.4931641,0.5195313-0.8505859,0.6162109-1.0693359
			c-0.2402344-0.953125-0.3701172-1.4560547-0.3896484-1.5117188c-0.0888672-0.2548828-0.2050781-0.4345703-0.3486328-0.5410156
			c-0.1435547-0.1054688-0.3544922-0.1582031-0.6337891-0.1582031c-0.0888672,0-0.1914063,0.0039063-0.3076172,0.0117188v-0.2119141
			L212.7495117,164.6839142z"/>
	</g>
</g>
<g id="XMLID_100_">
	<g id="XMLID_119_">
		<path id="XMLID_84_" class="st0" d="M247.8266602,223.7517853c0.1860352,0.2075195,0.3261719,0.4150391,0.4213867,0.6225586
			c0.0678711,0.1435547,0.1796875,0.5209961,0.3359375,1.1313477l0.5-0.7900391
			c0.1328125-0.1914063,0.2939453-0.3740234,0.484375-0.5478516c0.1894531-0.1733398,0.3564453-0.2919922,0.5-0.355957
			c0.0917969-0.0400391,0.1923828-0.0600586,0.3017578-0.0600586c0.1630859,0,0.2929688,0.0458984,0.3896484,0.1376953
			s0.1455078,0.2036133,0.1455078,0.3354492c0,0.1513672-0.0283203,0.2553711-0.0849609,0.3110352
			c-0.1064453,0.1000977-0.2275391,0.1499023-0.3642578,0.1499023c-0.0800781,0-0.1650391-0.0180664-0.2568359-0.0541992
			c-0.1777344-0.0634766-0.2978516-0.0957031-0.3583984-0.0957031c-0.0908203,0-0.1992188,0.0561523-0.3242188,0.1679688
			c-0.2353516,0.2075195-0.515625,0.6083984-0.8417969,1.203125l0.4667969,2.0595703
			c0.0712891,0.3154297,0.1328125,0.5039063,0.1816406,0.5654297c0.0498047,0.0625,0.0986328,0.0927734,0.1484375,0.0927734
			c0.0791016,0,0.171875-0.0458984,0.2783203-0.1376953c0.2089844-0.1835938,0.3867188-0.4228516,0.5351563-0.7177734
			l0.1992188,0.1074219c-0.2392578,0.4707031-0.5429688,0.8623047-0.9111328,1.1728516
			c-0.2080078,0.1757813-0.3847656,0.2636719-0.5283203,0.2636719c-0.2128906,0-0.3818359-0.1259766-0.5068359-0.3769531
			c-0.0795898-0.1552734-0.2446289-0.8261719-0.4951172-2.0117188c-0.5917969,1.0820313-1.065918,1.7783203-1.4223633,2.0898438
			c-0.2314453,0.1992188-0.4555664,0.2988281-0.671875,0.2988281c-0.1513672,0-0.2900391-0.0576172-0.4150391-0.1738281
			c-0.0913086-0.0869141-0.1367188-0.2050781-0.1367188-0.3525391c0-0.1318359,0.0415039-0.2421875,0.125-0.3300781
			c0.0834961-0.0869141,0.1860352-0.1308594,0.3076172-0.1308594c0.1210938,0,0.25,0.0634766,0.3867188,0.1914063
			c0.0986328,0.0917969,0.1743164,0.1376953,0.2275391,0.1376953c0.0454102,0,0.1044922-0.0322266,0.1767578-0.0957031
			c0.1782227-0.1523438,0.4208984-0.4794922,0.7280273-0.9824219c0.3076172-0.5029297,0.5083008-0.8662109,0.6035156-1.0893555
			c-0.2353516-0.9697266-0.3623047-1.4824219-0.3813477-1.5385742c-0.0874023-0.2592773-0.2011719-0.4428711-0.3417969-0.5507813
			c-0.1401367-0.1074219-0.3466797-0.1616211-0.6201172-0.1616211c-0.0874023,0-0.1875,0.0039063-0.3012695,0.012207v-0.2158203
			L247.8266602,223.7517853z"/>
	</g>
</g>
<g id="XMLID_38_">
	<g id="XMLID_53_">
		<path id="XMLID_82_" d="M153.9106445,150.9593048v0.3291016c-1.0048828-0.6640625-1.7880859-1.6376953-2.3496094-2.9208984
			c-0.5605469-1.2832031-0.8408203-2.6875-0.8408203-4.2138672c0-1.5874023,0.2949219-3.0327148,0.8847656-4.3369141
			c0.5898438-1.3037109,1.3583984-2.2363281,2.3056641-2.7978516v0.3217773
			c-0.4736328,0.347168-0.8623047,0.8217773-1.1669922,1.4238281s-0.5322266,1.3662109-0.6826172,2.2924805
			c-0.1494141,0.9262695-0.2246094,1.8920898-0.2246094,2.8974609c0,1.1386719,0.0693359,2.1669922,0.2080078,3.0849609
			c0.1386719,0.9189453,0.3505859,1.6806641,0.6357422,2.2851563S153.3754883,150.4739532,153.9106445,150.9593048z"/>
	</g>
	<g id="XMLID_52_">
		<path id="XMLID_80_" d="M162.2680664,137.3406525v-0.3217773c1.0058594,0.6582031,1.7890625,1.6293945,2.3496094,2.9130859
			c0.5615234,1.2832031,0.8417969,2.6879883,0.8417969,4.2138672c0,1.5869141-0.2949219,3.0341797-0.8847656,4.3408203
			s-1.3583984,2.2402344-2.3066406,2.8017578v-0.3291016c0.4785156-0.3476563,0.8691406-0.8222656,1.1738281-1.4238281
			c0.3046875-0.6025391,0.5302734-1.3652344,0.6787109-2.2890625s0.2226563-1.890625,0.2226563-2.9013672
			c0-1.1328125-0.0683594-2.1601563-0.2050781-3.0810547c-0.1367188-0.9213867-0.3486328-1.6845703-0.6357422-2.2890625
			C163.215332,138.3699493,162.8041992,137.8255157,162.2680664,137.3406525z"/>
	</g>
	<g id="XMLID_51_">
		<path id="XMLID_70_" d="M110.4550781,141.7327423c0.1328125,0.2260742,0.2246094,0.4375,0.2753906,0.6342773
			s0.1015625,0.5834961,0.1523438,1.1601563l0.2578125,2.8754883c0.2338867-0.28125,0.5737305-0.7246094,1.019043-1.3330078
			c0.2148438-0.2958984,0.4804688-0.6992188,0.796875-1.2094727c0.190918-0.3115234,0.3081055-0.5297852,0.3510742-0.6547852
			c0.0234375-0.0620117,0.0351563-0.1264648,0.0351563-0.1928711c0-0.0424805-0.0136719-0.0776367-0.0410156-0.1049805
			s-0.0986328-0.0595703-0.2138672-0.0961914c-0.1152344-0.0371094-0.2104492-0.1054688-0.2866211-0.2045898
			c-0.0761719-0.0996094-0.1142578-0.2133789-0.1142578-0.3422852c0-0.159668,0.046875-0.2880859,0.140625-0.3852539
			c0.09375-0.0976563,0.2104492-0.1464844,0.3510742-0.1464844c0.171875,0,0.3183594,0.0712891,0.4394531,0.2133789
			c0.1210938,0.1425781,0.1816406,0.3378906,0.1816406,0.5874023c0,0.3076172-0.1054688,0.659668-0.3164063,1.0546875
			c-0.2109375,0.3955078-0.6171875,1.0019531-1.2182617,1.8203125c-0.6015625,0.8183594-1.3295898,1.7109375-2.1850586,2.6767578
			c-0.5898438,0.6660156-1.0268555,1.0859375-1.3120117,1.2597656c-0.2851563,0.1728516-0.5292969,0.2597656-0.7324219,0.2597656
			c-0.1210938,0-0.2275391-0.0458984-0.3193359-0.1376953c-0.0913086-0.0908203-0.137207-0.1972656-0.137207-0.3183594
			c0-0.1513672,0.0634766-0.2900391,0.1899414-0.4150391c0.1269531-0.1240234,0.2646484-0.1865234,0.4130859-0.1865234
			c0.078125,0,0.1425781,0.0175781,0.1933594,0.0527344c0.03125,0.0195313,0.0654297,0.0751953,0.1025391,0.1660156
			c0.0371094,0.0917969,0.0712891,0.1533203,0.1025391,0.1845703c0.0195313,0.0195313,0.0429688,0.0292969,0.0703125,0.0292969
			c0.0234375,0,0.0644531-0.0195313,0.1230469-0.0585938c0.2148438-0.1328125,0.4648438-0.3427734,0.7495117-0.6308594
			c0.375-0.3818359,0.6523438-0.6943359,0.8320313-0.9355469l-0.328125-3.7050781
			c-0.0546875-0.6118164-0.1367188-0.9838867-0.2460938-1.1162109s-0.2929688-0.1987305-0.550293-0.1987305
			c-0.0820313,0-0.2285156,0.0117188-0.4394531,0.0351563l-0.0527344-0.2163086L110.4550781,141.7327423z"/>
		<path id="XMLID_72_" d="M132.1518555,141.8733673l-0.1054688,0.3852539h-0.8549805l-0.6445313,2.5541992
			c-0.2851563,1.1259766-0.5722656,1.9970703-0.8613281,2.6123047c-0.409668,0.8691406-0.8510742,1.46875-1.3237305,1.7998047
			c-0.359375,0.2529297-0.7182617,0.3798828-1.0776367,0.3798828c-0.234375,0-0.4335938-0.0703125-0.5976563-0.2099609
			c-0.1210938-0.0976563-0.1816406-0.2246094-0.1816406-0.3798828c0-0.125,0.0498047-0.2333984,0.1494141-0.3242188
			c0.0996094-0.0917969,0.2216797-0.1376953,0.3662109-0.1376953c0.1054688,0,0.1943359,0.0332031,0.2666016,0.0996094
			c0.0722656,0.0654297,0.1083984,0.1416016,0.1083984,0.2275391s-0.0410156,0.1660156-0.1230469,0.2392578
			c-0.0625,0.0546875-0.09375,0.0957031-0.09375,0.1230469c0,0.0351563,0.0136719,0.0625,0.0410156,0.0820313
			c0.0351563,0.0273438,0.0898438,0.0410156,0.1640625,0.0410156c0.1679688,0,0.3447266-0.0527344,0.5297852-0.1582031
			c0.1855469-0.1054688,0.3505859-0.2617188,0.4951172-0.4707031c0.1445313-0.2080078,0.28125-0.5087891,0.4101563-0.9023438
			c0.0546875-0.1640625,0.2011719-0.703125,0.4394531-1.6191406l1.019043-3.956543h-1.019043l0.0820313-0.3852539
			c0.3237305,0,0.550293-0.0224609,0.6791992-0.0673828s0.2470703-0.1303711,0.3544922-0.2573242
			c0.1074219-0.1264648,0.2470703-0.3632813,0.4189453-0.7099609c0.2304688-0.4672852,0.4511719-0.8295898,0.6616211-1.0869141
			c0.2890625-0.3466797,0.5927734-0.6069336,0.9111328-0.7802734s0.6181641-0.2602539,0.8989258-0.2602539
			c0.296875,0,0.5351563,0.0751953,0.7148438,0.2250977c0.1796875,0.1503906,0.2695313,0.3129883,0.2695313,0.4882813
			c0,0.1362305-0.0449219,0.2509766-0.1347656,0.3447266c-0.0898438,0.0932617-0.2050781,0.1401367-0.3457031,0.1401367
			c-0.1210938,0-0.2197266-0.0351563-0.2958984-0.1049805c-0.0761719-0.0703125-0.1142578-0.1538086-0.1142578-0.2514648
			c0-0.0625,0.0253906-0.1391602,0.0761719-0.230957c0.0507813-0.0913086,0.0761719-0.152832,0.0761719-0.184082
			c0-0.0541992-0.0175781-0.0952148-0.0527344-0.1225586c-0.0507813-0.0390625-0.125-0.0585938-0.2226563-0.0585938
			c-0.2456055,0-0.4663086,0.078125-0.6616211,0.2338867c-0.2617188,0.206543-0.4960938,0.5297852-0.703125,0.9702148
			c-0.1054688,0.2299805-0.2988281,0.800293-0.5800781,1.7124023H132.1518555z"/>
		<path id="XMLID_74_" d="M148.4008789,142.095047l-0.1699219,0.6079102h-0.9775391
			c0.0732422,0.2104492,0.1113281,0.4072266,0.1113281,0.590332c0,0.5141602-0.21875,0.9726563-0.65625,1.3730469
			c-0.4414063,0.4013672-1.046875,0.6240234-1.8164063,0.6669922c-0.4140625,0.1240234-0.7246094,0.2724609-0.9316406,0.4433594
			c-0.078125,0.0625-0.1162109,0.1269531-0.1162109,0.1933594c0,0.078125,0.0351563,0.1484375,0.1044922,0.2128906
			c0.0703125,0.0644531,0.2480469,0.1298828,0.5332031,0.1962891l1.1367188,0.2626953
			c0.6289063,0.1484375,1.0449219,0.3232422,1.2480469,0.5263672c0.1992188,0.2060547,0.2988281,0.4433594,0.2988281,0.7128906
			c0,0.3193359-0.1181641,0.6113281-0.3544922,0.8759766c-0.2363281,0.265625-0.5820313,0.4726563-1.0371094,0.6230469
			c-0.4550781,0.1494141-0.9580078,0.2246094-1.5087891,0.2246094c-0.4833984,0-0.9248047-0.0576172-1.3232422-0.171875
			c-0.3984375-0.1152344-0.6835938-0.2705078-0.8554688-0.4648438c-0.171875-0.1953125-0.2578125-0.3955078-0.2578125-0.6025391
			c0-0.1669922,0.0556641-0.3417969,0.1669922-0.5224609c0.1113281-0.1816406,0.2509766-0.3300781,0.4189453-0.4472656
			c0.1054688-0.0742188,0.4042969-0.2490234,0.8964844-0.5263672c-0.1796875-0.1396484-0.2695313-0.2939453-0.2695313-0.4609375
			c0-0.15625,0.0791016-0.3212891,0.2373047-0.4970703s0.4921875-0.3681641,1.0039063-0.578125
			c-0.4296875-0.0820313-0.7695313-0.2617188-1.0214844-0.5380859c-0.2519531-0.2773438-0.3779297-0.5839844-0.3779297-0.9233398
			c0-0.5532227,0.2431641-1.0478516,0.7294922-1.484375c0.4853516-0.4365234,1.1328125-0.6547852,1.9414063-0.6547852
			c0.2929688,0,0.5332031,0.0292969,0.7207031,0.0878906s0.3691406,0.1499023,0.5449219,0.2744141H148.4008789z
			 M143.5629883,147.0218048c-0.3164063,0.1445313-0.5556641,0.3291016-0.7177734,0.5556641
			c-0.1621094,0.2255859-0.2431641,0.4472656-0.2431641,0.6660156c0,0.2568359,0.1171875,0.46875,0.3515625,0.6367188
			c0.3359375,0.2412109,0.828125,0.3623047,1.4755859,0.3623047c0.5585938,0,1.0361328-0.0947266,1.4326172-0.2832031
			c0.3964844-0.1894531,0.5947266-0.4335938,0.5947266-0.7333984c0-0.1523438-0.0732422-0.2958984-0.2197266-0.4326172
			s-0.4306641-0.2470703-0.8525391-0.3330078C145.1538086,147.4134064,144.5463867,147.266922,143.5629883,147.0218048z
			 M146.3686523,143.0125275c0-0.3115234-0.0869141-0.5571289-0.2607422-0.7363281s-0.4013672-0.2685547-0.6826172-0.2685547
			c-0.4414063,0-0.8056641,0.2211914-1.0927734,0.6630859c-0.2871094,0.4423828-0.4296875,0.902832-0.4296875,1.3823242
			c0,0.2998047,0.0908203,0.5449219,0.2744141,0.7363281s0.40625,0.2861328,0.6679688,0.2861328
			c0.2070313,0,0.4072266-0.0556641,0.6005859-0.1689453s0.3564453-0.2695313,0.4892578-0.4677734
			s0.2382813-0.4521484,0.3164063-0.7597656S146.3686523,143.1492462,146.3686523,143.0125275z"/>
		<path id="XMLID_78_" d="M157.8100586,141.7327423c0.1914063,0.2026367,0.3359375,0.4052734,0.4335938,0.6079102
			c0.0703125,0.1401367,0.1855469,0.5083008,0.3457031,1.1044922l0.515625-0.7714844
			c0.1367188-0.1870117,0.3027344-0.3652344,0.4980469-0.534668s0.3671875-0.2851563,0.515625-0.3476563
			c0.09375-0.0390625,0.1972656-0.0585938,0.3105469-0.0585938c0.1679688,0,0.3017578,0.0449219,0.4013672,0.1347656
			c0.0996094,0.0893555,0.1494141,0.1987305,0.1494141,0.3271484c0,0.1479492-0.0292969,0.2495117-0.0878906,0.3037109
			c-0.109375,0.0976563-0.234375,0.1459961-0.375,0.1459961c-0.0820313,0-0.1699219-0.0170898-0.2636719-0.0522461
			c-0.1835938-0.0625-0.3066406-0.09375-0.3691406-0.09375c-0.09375,0-0.2050781,0.0546875-0.3339844,0.1635742
			c-0.2421875,0.2026367-0.53125,0.5942383-0.8671875,1.1748047l0.4804688,2.0102539
			c0.0742188,0.3076172,0.1367188,0.4921875,0.1875,0.5527344s0.1015625,0.0898438,0.1523438,0.0898438
			c0.0820313,0,0.1777344-0.0439453,0.2871094-0.1337891c0.2148438-0.1796875,0.3984375-0.4130859,0.5507813-0.7011719
			l0.2050781,0.1044922c-0.2460938,0.4599609-0.5585938,0.8417969-0.9375,1.1455078
			c-0.2148438,0.171875-0.3964844,0.2578125-0.5449219,0.2578125c-0.21875,0-0.3925781-0.1230469-0.5214844-0.3681641
			c-0.0820313-0.1523438-0.2519531-0.8066406-0.5097656-1.9638672c-0.6083984,1.0556641-1.0966797,1.7353516-1.4638672,2.0390625
			c-0.2382813,0.1953125-0.46875,0.2929688-0.6914063,0.2929688c-0.15625,0-0.2988281-0.0566406-0.4277344-0.1699219
			c-0.09375-0.0859375-0.140625-0.2001953-0.140625-0.3447266c0-0.1289063,0.0429688-0.2353516,0.1289063-0.3212891
			s0.1914063-0.1289063,0.3164063-0.1289063s0.2578125,0.0625,0.3984375,0.1875
			c0.1015625,0.0898438,0.1796875,0.1337891,0.234375,0.1337891c0.046875,0,0.1074219-0.03125,0.1816406-0.0927734
			c0.1835938-0.1484375,0.4335938-0.4677734,0.75-0.9589844c0.3154297-0.4902344,0.5224609-0.8457031,0.6201172-1.0634766
			c-0.2421875-0.9467773-0.3730469-1.4472656-0.3925781-1.5019531c-0.0898438-0.253418-0.2070313-0.4326172-0.3505859-0.5375977
			c-0.1445313-0.1054688-0.3574219-0.1577148-0.6386719-0.1577148c-0.0898438,0-0.1933594,0.0039063-0.3105469,0.0117188v-0.2104492
			L157.8100586,141.7327423z"/>
	</g>
	<g id="XMLID_50_">
		<path id="XMLID_67_" d="M117.1938477,142.5862579h6.1503906v0.5668945h-6.1503906V142.5862579z M117.1938477,144.7659454
			h6.1503906v0.578125h-6.1503906V144.7659454z"/>
	</g>
	<g id="XMLID_49_">
		<path id="XMLID_63_" d="M137.0454102,148.0227814h-0.5683594V135.966629h4.1181641v0.5727539h-3.5498047V148.0227814z"/>
		<path id="XMLID_65_" d="M166.6118164,135.966629h4.1181641v12.0561523h-0.5742188v-11.4833984h-3.5439453V135.966629z"/>
	</g>
	<g id="XMLID_48_">
		<path id="XMLID_59_" d="M140.5952148,152.0774689h-4.1181641v-12.0561523h0.5683594v11.4897461h3.5498047V152.0774689z"/>
		<path id="XMLID_61_" d="M170.1557617,140.0213165h0.5742188v12.0561523h-4.1181641v-0.5664063h3.5439453V140.0213165z"/>
	</g>
</g>
<polyline id="XMLID_22_" class="st3" points="135.2737885,202.4444885 153.8739624,202.4444885 153.8739624,224.9499969 "/>
<polyline id="XMLID_101_" class="st3" points="135.2737885,195.2754211 157.4644928,195.2754211 157.4644928,224.9177856 "/>
<g id="XMLID_23_">
	<g id="XMLID_102_">
		<path id="XMLID_47_" class="st4" d="M159.5185547,232.0178986c0.1875,0.2021484,0.3300781,0.4038086,0.4257813,0.6054688
			c0.0693359,0.1401367,0.1826172,0.5068359,0.3408203,1.1005859l0.5068359-0.7685547
			c0.1347656-0.1860352,0.2978516-0.3637695,0.4902344-0.5327148s0.3613281-0.2841797,0.5068359-0.3466797
			c0.0927734-0.0385742,0.1943359-0.0581055,0.3056641-0.0581055c0.1650391,0,0.296875,0.0449219,0.3955078,0.1337891
			c0.0976563,0.0893555,0.1464844,0.1982422,0.1464844,0.3261719c0,0.1479492-0.0283203,0.2485352-0.0859375,0.3027344
			c-0.1083984,0.097168-0.2304688,0.1459961-0.3691406,0.1459961c-0.0810547,0-0.1669922-0.0175781-0.2597656-0.0527344
			c-0.1806641-0.0620117-0.3017578-0.0932617-0.3632813-0.0932617c-0.0917969,0-0.2011719,0.0546875-0.328125,0.1630859
			c-0.2382813,0.2021484-0.5224609,0.5927734-0.8535156,1.1708984l0.4726563,2.0029297
			c0.0732422,0.3066406,0.1347656,0.4902344,0.1845703,0.5507813s0.0996094,0.0898438,0.1503906,0.0898438
			c0.0800781,0,0.1748047-0.0439453,0.2822266-0.1337891c0.2109375-0.1787109,0.3916016-0.4111328,0.5419922-0.6982422
			l0.2011719,0.1044922c-0.2421875,0.4580078-0.5488281,0.8388672-0.921875,1.1416016
			c-0.2119141,0.1708984-0.390625,0.2558594-0.5361328,0.2558594c-0.2158203,0-0.3867188-0.1220703-0.5126953-0.3671875
			c-0.0810547-0.1513672-0.2480469-0.8037109-0.5019531-1.9560547c-0.5996094,1.0517578-1.0800781,1.7294922-1.4414063,2.0322266
			c-0.234375,0.1943359-0.4609375,0.2910156-0.6796875,0.2910156c-0.1542969,0-0.2949219-0.0566406-0.421875-0.1689453
			c-0.0917969-0.0849609-0.1376953-0.2001953-0.1376953-0.34375c0-0.1279297,0.0419922-0.234375,0.1269531-0.3203125
			c0.0849609-0.0849609,0.1884766-0.1279297,0.3115234-0.1279297s0.2529297,0.0625,0.3916016,0.1865234
			c0.0996094,0.0888672,0.1767578,0.1337891,0.2304688,0.1337891c0.0458984,0,0.1054688-0.03125,0.1787109-0.0927734
			c0.1806641-0.1474609,0.4267578-0.4658203,0.7382813-0.9550781s0.5146484-0.8427734,0.6103516-1.0605469
			c-0.2382813-0.9433594-0.3662109-1.4418945-0.3857422-1.496582c-0.0888672-0.2519531-0.2041016-0.4306641-0.3457031-0.5356445
			c-0.1425781-0.1049805-0.3515625-0.1572266-0.6289063-0.1572266c-0.0878906,0-0.1894531,0.0039063-0.3056641,0.0117188v-0.2094727
			L159.5185547,232.0178986z"/>
	</g>
	<g id="XMLID_37_">
		<path id="XMLID_42_" class="st4" d="M157.34375,237.2884064h-6.9174805l3.6201172-8.0776367L157.34375,237.2884064z
			 M155.9833984,236.8108673l-2.2998047-5.6313477l-2.5366211,5.6313477H155.9833984z"/>
	</g>
</g>
<g id="XMLID_103_">
	<g id="XMLID_105_">
		<path id="XMLID_40_" class="st4" d="M128.7529297,195.2122345c0.1308594,0.2275391,0.2216797,0.4399414,0.2714844,0.6381836
			c0.0498047,0.1977539,0.0996094,0.5869141,0.1494141,1.1669922l0.2539063,2.8930664
			c0.2304688-0.2822266,0.5654297-0.7294922,1.0029297-1.3408203c0.2119141-0.2978516,0.4726563-0.703125,0.7841797-1.2172852
			c0.1884766-0.3134766,0.3037109-0.5327148,0.3457031-0.6582031c0.0234375-0.0629883,0.0351563-0.1274414,0.0351563-0.1943359
			c0-0.0429688-0.0136719-0.078125-0.0410156-0.1054688c-0.0263672-0.0273438-0.0966797-0.0600586-0.2099609-0.097168
			s-0.2080078-0.105957-0.2822266-0.2060547c-0.0751953-0.0996094-0.1132813-0.2143555-0.1132813-0.34375
			c0-0.1606445,0.046875-0.2900391,0.1386719-0.3881836c0.0927734-0.0976563,0.2080078-0.1469727,0.3457031-0.1469727
			c0.1689453,0,0.3134766,0.0717773,0.4326172,0.2148438s0.1787109,0.3398438,0.1787109,0.5908203
			c0,0.3095703-0.1035156,0.6635742-0.3115234,1.0610352c-0.2070313,0.3979492-0.6074219,1.0083008-1.1992188,1.831543
			s-1.3085938,1.7207031-2.1494141,2.6933594c-0.5810547,0.6699219-1.0117188,1.0927734-1.2919922,1.2666016
			c-0.2802734,0.1748047-0.5205078,0.2617188-0.7207031,0.2617188c-0.1191406,0-0.2236328-0.0458984-0.3144531-0.1376953
			c-0.0898438-0.0927734-0.1347656-0.1992188-0.1347656-0.3203125c0-0.1533203,0.0625-0.2919922,0.1865234-0.4179688
			c0.125-0.125,0.2607422-0.1884766,0.4072266-0.1884766c0.0761719,0,0.140625,0.0185547,0.1894531,0.0537109
			c0.03125,0.0195313,0.0644531,0.0751953,0.1015625,0.1669922s0.0703125,0.1542969,0.1005859,0.1855469
			c0.0195313,0.0195313,0.0429688,0.0292969,0.0693359,0.0292969c0.0234375,0,0.0634766-0.0195313,0.1210938-0.0585938
			c0.2119141-0.1337891,0.4570313-0.3447266,0.7382813-0.6347656c0.3691406-0.3847656,0.6416016-0.6982422,0.8183594-0.9414063
			l-0.3232422-3.7275391c-0.0537109-0.6152344-0.1337891-0.9897461-0.2421875-1.1230469
			c-0.1074219-0.1333008-0.2880859-0.199707-0.5410156-0.199707c-0.0810547,0-0.2255859,0.0117188-0.4326172,0.0351563
			l-0.0517578-0.2177734L128.7529297,195.2122345z"/>
	</g>
	<g id="XMLID_104_">
		<path id="XMLID_15_" class="st4" d="M126.7402344,200.5335236h-6.9179688l3.6201172-8.1552734L126.7402344,200.5335236z
			 M125.3798828,200.0511017l-2.2998047-5.6855469l-2.5371094,5.6855469H125.3798828z"/>
	</g>
</g>
<g id="XMLID_14_">
</g>
<g id="XMLID_195_">
</g>
<g id="XMLID_196_">
</g>
<g id="XMLID_197_">
</g>
<g id="XMLID_198_">
</g>
<g id="XMLID_199_">
</g>
</svg>
