<?xml version="1.0" encoding="UTF-8" standalone="no"?>
<svg
   xmlns:dc="http://purl.org/dc/elements/1.1/"
   xmlns:cc="http://creativecommons.org/ns#"
   xmlns:rdf="http://www.w3.org/1999/02/22-rdf-syntax-ns#"
   xmlns:svg="http://www.w3.org/2000/svg"
   xmlns="http://www.w3.org/2000/svg"
   viewBox="0 0 684 465.35999"
   height="465.35999"
   width="684"
   xml:space="preserve"
   id="svg2"
   version="1.1"><metadata
     id="metadata8"><rdf:RDF><cc:Work
         rdf:about=""><dc:format>image/svg+xml</dc:format><dc:type
           rdf:resource="http://purl.org/dc/dcmitype/StillImage" /></cc:Work></rdf:RDF></metadata><defs
     id="defs6"><clipPath
       id="clipPath18"
       clipPathUnits="userSpaceOnUse"><path
         style="clip-rule:evenodd"
         id="path16"
         d="M 7.644e-6,0 H 513.00001 V 349.02 H 7.644e-6 Z" /></clipPath><clipPath
       id="clipPath26"
       clipPathUnits="userSpaceOnUse"><path
         style="clip-rule:evenodd"
         id="path24"
         d="M 7.644e-6,1.5259e-4 H 512.45001 V 343.95015 H 7.644e-6 Z" /></clipPath><clipPath
       id="clipPath36"
       clipPathUnits="userSpaceOnUse"><path
         id="path34"
         d="M 0,0 H 3498.22 V 2379.76 H 0 Z" /></clipPath><clipPath
       id="clipPath54"
       clipPathUnits="userSpaceOnUse"><path
         id="path52"
         d="M 0,0 H 21.109 V 15.875 H 0 Z" /></clipPath><clipPath
       id="clipPath76"
       clipPathUnits="userSpaceOnUse"><path
         id="path74"
         d="M 0,0 H 15.08 V 14.134 H 0 Z" /></clipPath><clipPath
       id="clipPath98"
       clipPathUnits="userSpaceOnUse"><path
         id="path96"
         d="M 0,0 H 20.642 V 15.875 H 0 Z" /></clipPath><clipPath
       id="clipPath118"
       clipPathUnits="userSpaceOnUse"><path
         id="path116"
         d="M 0,0 H 4.0736 V 7.879 H 0 Z" /></clipPath><clipPath
       id="clipPath130"
       clipPathUnits="userSpaceOnUse"><path
         id="path128"
         d="M 0,0 H 10.171 V 15.875 H 0 Z" /></clipPath><clipPath
       id="clipPath144"
       clipPathUnits="userSpaceOnUse"><path
         id="path142"
         d="M 0,0 H 10.638 V 15.875 H 0 Z" /></clipPath><clipPath
       id="clipPath162"
       clipPathUnits="userSpaceOnUse"><path
         id="path160"
         d="M 0,0 H 15.08 V 14.134 H 0 Z" /></clipPath></defs><g
     transform="matrix(1.3333333,0,0,-1.3333333,0,465.36)"
     id="g10"><g
       id="g12"><g
         clip-path="url(#clipPath18)"
         id="g14" /></g><g
       id="g20"><g
         clip-path="url(#clipPath26)"
         id="g22"><g
           transform="matrix(7.1174,0,0,4.842,0,-4.6792)"
           id="g28"><g
             transform="scale(0.020582,0.030255)"
             id="g30"><g
               clip-path="url(#clipPath36)"
               id="g32"><path
                 id="path38"
                 style="fill:#ffffff;fill-opacity:1;fill-rule:evenodd;stroke:none"
                 d="m 777.75,1065.93 c 0,-24.85 -20.15,-45 -45,-45 -24.85,0 -45,20.15 -45,45 0,24.85 20.15,45 45,45 24.85,0 45,-20.15 45,-45 z" /><path
                 id="path40"
                 style="fill:#ffffff;fill-opacity:1;fill-rule:evenodd;stroke:none"
                 d="m 3249.64,2108.67 c 0,-24.85 -20.15,-45 -45,-45 -24.86,0 -45,20.15 -45,45 0,24.86 20.14,45 45,45 24.85,0 45,-20.14 45,-45 z" /><path
                 id="path42"
                 style="fill:#000000;fill-opacity:1;fill-rule:nonzero;stroke:none"
                 d="m 784.17,1100.85 2359.59,995.37 9.47,-22.46 -2359.59,-995.37 z m -22.61,-102.86 -28.71,-5.64 -27.68,5.64 -23.53,15.35 -16.46,23.65 -5.65,28.77 5.64,27.68 15.39,23.59 24.08,16.4 28.28,5.65 27.7,-5.64 23.54,-15.35 16.03,-23.05 4.84,-15.06 1.07,-14.95 -4.99,-26.94 -15.45,-23.69 z m 8.37,35.18 -3.35,-3.41 12.78,19.6 -1.77,-4.44 4.26,23.01 -0.17,-3.08 -0.85,11.93 0.55,-2.86 -3.84,11.93 1.6,-3.23 -13.63,19.6 3.34,-3.25 -19.6,12.79 4.23,-1.74 -23.02,4.69 4.83,-0.01 -23.44,-4.69 4.47,1.88 -20.03,-13.64 3.35,3.42 -12.78,-19.6 1.73,4.22 -4.69,-23.01 0.02,4.78 4.69,-23.86 -1.96,4.61 13.64,-19.6 -3.35,3.25 19.6,-12.79 -4.22,1.74 23.01,-4.69 -4.78,0.02 23.86,4.68 -4.51,-1.88 z m 2406.32,1143.03 28.71,5.64 27.68,-5.64 23.54,-15.35 16.45,-23.66 5.65,-28.76 -5.64,-27.68 -15.38,-23.6 -24.09,-16.4 -28.28,-5.65 -27.7,5.64 -23.54,15.35 -16.03,23.05 -4.84,15.07 -1.07,14.95 4.99,26.94 15.45,23.68 z m -8.37,-35.19 3.35,3.42 -12.78,-19.61 1.77,4.44 -4.26,-23.01 0.17,3.09 0.85,-11.93 -0.55,2.86 3.84,-11.93 -1.6,3.23 13.63,-19.61 -3.34,3.25 19.6,-12.78 -4.22,1.73 23.01,-4.69 -4.83,0.01 23.44,4.69 -4.47,-1.88 20.03,13.64 -3.35,-3.42 12.79,19.61 -1.74,-4.23 4.69,23.01 -0.02,-4.78 -4.69,23.86 1.96,-4.61 -13.64,19.61 3.35,-3.25 -19.6,12.78 4.22,-1.73 -23.01,4.68 4.78,-0.01 -23.86,-4.69 4.51,1.89 z" /><path
                 id="path44"
                 style="fill:#000000;fill-opacity:1;fill-rule:nonzero;stroke:none"
                 d="m 3212.14,2108.79 v -660.37 h -15 v 660.37 c 0,4.14 3.35,7.5 7.5,7.5 4.14,0 7.5,-3.36 7.5,-7.5 z m -7.5,-780.25 45,150 -37.5,-30 h -15 l -37.5,30 z" /><g
                 transform="matrix(5.8635,-1.507e-6,-3.014e-6,4.4098,2986.05,1067.38)"
                 id="g46"><g
                   transform="scale(3.4109,4.5353)"
                   id="g48"><g
                     clip-path="url(#clipPath54)"
                     id="g50"><path
                       id="path56"
                       style="fill:#000000;fill-opacity:1;fill-rule:evenodd;stroke:none"
                       d="M 9.831,6.4596 C 9.7905,6.286 9.7301,6.1051 9.6491,5.9171 9.5682,5.7288 9.4712,5.5579 9.3584,5.4043 9.2455,5.2503 9.1133,5.1221 8.9618,5.0194 8.8103,4.9163 8.6349,4.8648 8.4358,4.8648 8.2674,4.8648 8.1227,4.9007 8.0012,4.9727 7.8801,5.0445 7.7884,5.1393 7.7258,5.257 7.6635,5.3748 7.6289,5.5122 7.6221,5.6696 v 0.0392 c 0,0.1405 0.0289,0.2828 0.0859,0.4269 C 7.8193,6.4234 7.9221,6.7096 8.0165,6.9942 8.111,7.2788 8.1969,7.565 8.2742,7.8533 8.3282,8.0428 8.3653,8.2275 8.3855,8.4078 8.3923,8.4532 8.3956,8.5023 8.3956,8.555 8.3956,8.6691 8.3788,8.7771 8.345,8.8789 8.2843,9.0847 8.1564,9.1877 7.9607,9.188 7.6172,9.1877 7.3206,9.069 7.0713,8.832 6.8219,8.5946 6.6045,8.2799 6.4192,7.8876 6.315,7.4423 6.2036,6.9982 6.0856,6.555 5.9678,6.1115 5.8515,5.6693 5.7368,5.2279 5.7068,5.1065 5.6445,5.016 5.5501,4.9556 5.4556,4.8948 5.363,4.8648 5.2719,4.8648 5.1743,4.8648 5.0934,4.8973 5.0293,4.9629 4.9857,5.0052 4.9621,5.0641 4.9584,5.1396 c 0,0.0356 0.0034,0.0717 0.0101,0.1079 l 0.6772,2.6058 c 0.054,0.1895 0.0911,0.3742 0.1114,0.5545 V 8.555 c 0,0.1175 -0.0135,0.2254 -0.0405,0.3239 C 5.6562,9.0847 5.5283,9.1877 5.3326,9.188 4.9891,9.1877 4.6925,9.069 4.4432,8.832 4.1938,8.5946 3.9748,8.2799 3.7859,7.8876 L 3.0934,5.2279 C 3.0633,5.1065 3.0017,5.016 2.909,4.9556 2.8164,4.8948 2.7229,4.8648 2.6284,4.8648 2.5275,4.8648 2.4499,4.8973 2.3959,4.9629 2.3524,5.0052 2.3303,5.0641 2.3303,5.1396 c 0,0.0291 0.0034,0.065 0.0101,0.1079 l 0.7781,3.0376 c 0.054,0.2123 0.081,0.3957 0.081,0.5496 V 8.9525 C 3.1829,9.1092 3.1038,9.1877 2.9621,9.188 2.8137,9.1877 2.6898,9.0681 2.5904,8.8295 2.491,8.5906 2.3944,8.2799 2.2999,7.8974 2.2628,7.8088 2.2006,7.7631 2.1129,7.76 H 1.9966 C 1.9156,7.7597 1.8752,7.8005 1.8752,7.8827 V 7.9171 C 1.9156,8.0704 1.9613,8.2382 2.0119,8.4198 2.0626,8.6013 2.13,8.7731 2.2141,8.935 2.2984,9.097 2.4045,9.2344 2.5324,9.3472 2.6606,9.4601 2.8204,9.5165 3.0124,9.5168 3.2891,9.5165 3.5065,9.4331 3.6648,9.2663 3.823,9.0994 3.9055,8.9375 3.9123,8.7807 4.054,8.9669 4.2509,9.1362 4.5036,9.2883 4.7563,9.4405 5.0495,9.5165 5.3829,9.5168 5.5887,9.5165 5.7776,9.4797 5.9494,9.4061 6.1211,9.3325 6.2542,9.2138 6.3484,9.0506 6.4294,8.9096 6.4732,8.7918 6.48,8.6973 6.6284,8.9065 6.8339,9.0951 7.0968,9.2638 7.3596,9.4322 7.6678,9.5165 8.0215,9.5168 8.2202,9.5165 8.4058,9.4797 8.5775,9.4061 8.7493,9.3325 8.8842,9.2138 8.9817,9.0506 9.083,8.8835 9.132,8.6955 9.1283,8.4863 V 8.4618 C 9.1216,8.252 9.0915,8.041 9.0376,7.8287 8.96,7.5306 8.8707,7.2377 8.7695,6.95 8.6686,6.662 8.5625,6.371 8.4511,6.0769 8.3499,5.8116 8.2993,5.5892 8.2993,5.4095 c 0,-0.1475 0.0641,-0.2212 0.1923,-0.2208 0.1147,-4e-4 0.2181,0.034 0.3107,0.1027 0.0926,0.0687 0.177,0.161 0.2527,0.2773 0.0761,0.1159 0.1442,0.2533 0.2049,0.4122 0.0607,0.1585 0.1144,0.3263 0.1616,0.5033 0.0203,0.0846 0.0795,0.1272 0.177,0.1275 h 0.111 C 9.747,6.6114 9.7856,6.6001 9.8258,6.5774 9.8393,6.5476 9.846,6.5231 9.846,6.5038 9.846,6.4903 9.8411,6.4756 9.831,6.4596 Z" /><path
                       id="path58"
                       style="fill:#000000;fill-opacity:1;fill-rule:evenodd;stroke:none"
                       d="m 12.826,3.5522 h -2.58 v 0.1511 c 0,0.0109 0.006,0.0273 0.019,0.0495 l 1.037,1.0058 c 0.122,0.1207 0.246,0.2444 0.372,0.3708 0.126,0.1264 0.239,0.2556 0.338,0.3875 0.099,0.1319 0.179,0.2679 0.238,0.4081 0.059,0.1401 0.088,0.2871 0.088,0.4412 0,0.1298 -0.019,0.2513 -0.057,0.3639 C 12.243,6.8428 12.188,6.9417 12.116,7.0269 12.045,7.1121 11.955,7.1808 11.847,7.233 11.739,7.2852 11.615,7.3113 11.473,7.3115 11.262,7.3113 11.075,7.255 10.913,7.1423 10.752,7.0297 10.644,6.9055 10.592,6.7702 10.581,6.7664 10.598,6.7645 10.642,6.7647 h 0.054 c 0.064,-0.0131 0.119,-0.0328 0.165,-0.0593 0.047,-0.0266 0.086,-0.0632 0.117,-0.1099 0.032,-0.0467 0.048,-0.1031 0.048,-0.1689 0,-0.11 -0.04,-0.1944 -0.12,-0.2529 -0.081,-0.0588 -0.171,-0.088 -0.27,-0.0878 -0.095,-2e-4 -0.184,0.029 -0.266,0.0878 -0.083,0.0585 -0.124,0.1429 -0.124,0.2529 0,0.1538 0.034,0.2994 0.102,0.4368 0.067,0.1374 0.159,0.2564 0.275,0.3573 0.117,0.1006 0.254,0.1803 0.412,0.239 0.159,0.0586 0.327,0.088 0.505,0.0881 0.219,-10e-5 0.421,-0.029 0.604,-0.0867 0.182,-0.0577 0.338,-0.1407 0.467,-0.2487 0.129,-0.1082 0.23,-0.2332 0.303,-0.3751 0.073,-0.142 0.109,-0.299 0.109,-0.4711 C 13.023,6.1755 12.975,6 12.877,5.8398 12.78,5.6793 12.66,5.5323 12.516,5.3987 12.372,5.2649 12.22,5.139 12.058,5.0208 11.896,4.9027 11.75,4.7878 11.619,4.6761 L 10.89,4.0633 h 0.954 c 0.133,-10e-5 0.257,7e-4 0.372,0.0026 0.116,0.0017 0.213,0.0055 0.294,0.011 0.08,0.0055 0.121,0.0091 0.123,0.0112 0.017,0.0127 0.033,0.0383 0.048,0.0767 0.015,0.0385 0.028,0.0838 0.041,0.1361 0.013,0.0522 0.025,0.1052 0.038,0.1593 0.013,0.054 0.024,0.1132 0.035,0.1775 h 0.234 z" /><path
                       id="path60"
                       style="fill:#000000;fill-opacity:1;fill-rule:evenodd;stroke:none"
                       d="M 18.054,4.3642 C 17.997,4.1514 17.898,3.9551 17.758,3.7754 17.618,3.5953 17.456,3.4417 17.271,3.3141 17.085,3.1865 16.881,3.0865 16.659,3.0148 16.437,2.9427 16.214,2.9068 15.992,2.9068 c -0.152,0 -0.313,0.0064 -0.485,0.0196 -0.172,0.0129 -0.328,0.0448 -0.468,0.0957 -0.14,0.0506 -0.245,0.1301 -0.316,0.238 -0.054,0.0653 -0.082,0.1488 -0.086,0.2503 0,0.0491 0.007,0.1061 0.021,0.1717 0.037,0.1473 0.112,0.2567 0.227,0.3288 0.115,0.0718 0.229,0.108 0.344,0.108 0.118,0 0.216,-0.0377 0.293,-0.1129 0.057,-0.0558 0.086,-0.1276 0.086,-0.2159 0,-0.0362 -0.007,-0.0785 -0.021,-0.1276 C 15.564,3.5576 15.52,3.4717 15.456,3.4049 15.392,3.3377 15.357,3.3043 15.35,3.3043 c 0.02,-0.0098 0.099,-0.0239 0.235,-0.0417 0.137,-0.0181 0.291,-0.027 0.463,-0.027 0.138,0 0.272,0.03 0.401,0.0908 0.13,0.0604 0.251,0.1447 0.362,0.2527 0.111,0.1079 0.209,0.2306 0.293,0.368 0.084,0.1374 0.146,0.2828 0.187,0.4368 L 17.559,5.434 C 17.481,5.3586 17.343,5.2635 17.144,5.1491 16.946,5.0344 16.738,4.9776 16.523,4.9776 c -0.26,0 -0.483,0.0641 -0.67,0.1936 C 15.666,5.3003 15.522,5.4665 15.421,5.6696 15.3,5.9048 15.235,6.16 15.229,6.4351 V 6.494 c 0,0.2515 0.033,0.5066 0.101,0.7655 0.07,0.2877 0.18,0.5646 0.328,0.8315 0.149,0.2665 0.342,0.5162 0.582,0.7486 0.195,0.196 0.417,0.358 0.664,0.4855 0.248,0.1276 0.5,0.1914 0.756,0.1917 0.219,-3e-4 0.401,-0.0586 0.546,-0.1745 0.145,-0.1162 0.237,-0.2135 0.278,-0.2917 L 18.458,8.9574 c 0.031,0.1208 0.092,0.2107 0.185,0.2696 0.092,0.0589 0.186,0.0883 0.28,0.0886 0.098,-3e-4 0.179,-0.0313 0.243,-0.0932 0.044,-0.0429 0.066,-0.1018 0.066,-0.1767 0,-0.0362 -0.004,-0.0723 -0.01,-0.1079 z m 0.238,3.9356 c -0.007,0.062 -0.017,0.1224 -0.031,0.1813 -0.013,0.0589 -0.028,0.1178 -0.045,0.177 -0.054,0.1533 -0.131,0.28 -0.23,0.38 C 17.887,9.1377 17.761,9.1877 17.609,9.188 17.468,9.1877 17.328,9.1368 17.19,9.0356 17.052,8.9341 16.925,8.8065 16.811,8.6532 16.656,8.4403 16.538,8.2137 16.457,7.9732 16.376,7.7327 16.3,7.4883 16.229,7.2399 16.169,6.9844 16.117,6.7357 16.073,6.494 16.046,6.3759 16.032,6.2615 16.032,6.1505 c 0,-0.1181 0.014,-0.231 0.041,-0.3386 0.03,-0.1476 0.087,-0.2702 0.171,-0.3684 0.085,-0.0981 0.198,-0.1472 0.339,-0.1469 0.155,-3e-4 0.31,0.0528 0.465,0.1592 0.156,0.1061 0.3,0.2346 0.435,0.3855 0.098,0.1141 0.19,0.2386 0.278,0.373 z" /></g></g></g><path
                 id="path62"
                 style="fill:#000000;fill-opacity:1;fill-rule:evenodd;stroke:none"
                 d="m 2215.01,1568.66 h 128.56 l -64.28,150 z" /><path
                 id="path64"
                 style="fill:none;stroke:#000000;stroke-width:15;stroke-linecap:round;stroke-linejoin:round;stroke-miterlimit:10;stroke-dasharray:none;stroke-opacity:1"
                 d="m 2215.01,1568.66 h 128.56 l -64.28,150 z" /><path
                 id="path66"
                 style="fill:none;stroke:#0080ff;stroke-width:15;stroke-linecap:round;stroke-linejoin:round;stroke-miterlimit:10;stroke-dasharray:none;stroke-opacity:1"
                 d="m 3204.64,1950.09 c -65.45,0 -124.17,40.2 -147.85,101.22" /><g
                 transform="matrix(4.1889,-1.507e-6,-3.014e-6,3.9262,2887.75,1734.82)"
                 id="g68"><g
                   transform="scale(4.7746,5.094)"
                   id="g70"><g
                     clip-path="url(#clipPath76)"
                     id="g72"><path
                       id="path78"
                       style="fill:none;stroke:#0080ff;stroke-width:0.20100001;stroke-linecap:round;stroke-linejoin:round;stroke-miterlimit:10;stroke-dasharray:none;stroke-opacity:1"
                       d="M 1.038,7.0671 H 4.9339" /><path
                       id="path80"
                       style="fill:#0080ff;fill-opacity:1;fill-rule:evenodd;stroke:none"
                       d="m 4.2657,10.901 c 0.059,-0.002 0.0995,-0.022 0.1213,-0.059 0.0119,-0.025 0.0178,-0.05 0.0178,-0.076 V 10.727 C 4.393,10.682 4.3686,10.643 4.3315,10.61 4.2943,10.576 4.2464,10.56 4.1873,10.56 H 3.5555 C 3.4966,10.29 3.4672,10.02 3.4672,9.7502 V 9.7109 C 3.4705,9.4294 3.527,9.1678 3.6365,8.9258 3.6483,8.9028 3.6541,8.8773 3.6541,8.8497 3.6541,8.8218 3.6466,8.7963 3.6314,8.7737 3.6044,8.7261 3.5682,8.6893 3.5227,8.6632 3.4807,8.6387 3.4368,8.6255 3.3913,8.624 3.3811,8.624 3.3744,8.6255 3.371,8.6289 3.3206,8.6289 3.2835,8.6574 3.2598,8.7148 3.206,8.8356 3.174,8.9706 3.1638,9.1196 c -0.0033,0.0555 -0.005,0.1095 -0.005,0.162 0,0.0979 0.0067,0.201 0.0202,0.3091 0.0169,0.165 0.0448,0.3326 0.0835,0.5033 0.0388,0.17 0.0759,0.325 0.1111,0.466 H 2.8479 C 2.8093,10.413 2.765,10.243 2.7153,10.051 2.6656,9.8583 2.6164,9.6743 2.5675,9.4985 2.5187,9.3226 2.4748,9.1681 2.436,9.0348 2.3974,8.9014 2.3678,8.8152 2.3476,8.7761 2.3172,8.7122 2.2769,8.6714 2.2263,8.6534 2.1891,8.6387 2.1546,8.6304 2.1226,8.6289 2.1059,8.6289 2.0916,8.6313 2.0797,8.6363 2.0309,8.6444 1.9962,8.6697 1.976,8.7123 1.9643,8.7286 1.9584,8.7482 1.9584,8.7712 c 0,0.0293 0.0093,0.062 0.0277,0.0981 0.1417,0.2845 0.271,0.5691 0.388,0.8537 0.1172,0.285 0.2144,0.564 0.2918,0.837 H 2.3299 C 2.2137,10.56 2.1025,10.521 1.9964,10.443 1.8903,10.365 1.8026,10.269 1.7334,10.153 1.7066,10.126 1.6813,10.113 1.6576,10.113 H 1.602 c -0.0252,0.018 -0.0379,0.039 -0.0379,0.064 v 0.015 c 0.0354,0.088 0.0813,0.174 0.1377,0.257 0.0564,0.084 0.121,0.159 0.1934,0.226 0.0725,0.067 0.1521,0.122 0.2389,0.163 0.0868,0.042 0.1782,0.063 0.2742,0.063 z" /><path
                       id="path82"
                       style="fill:#0080ff;fill-opacity:1;fill-rule:evenodd;stroke:none"
                       d="M 3.9143,2.4503 H 1.8984 v 0.1323 c 0,0.0095 0.0049,0.0239 0.0149,0.0433 l 0.8098,0.88 C 2.8189,3.6116 2.9158,3.7198 3.0141,3.8304 3.1124,3.941 3.2004,4.054 3.278,4.1694 3.3555,4.2849 3.4174,4.4039 3.4637,4.5265 3.51,4.6492 3.533,4.7778 3.533,4.9126 3.533,5.0262 3.5181,5.1325 3.4884,5.2311 3.4586,5.3296 3.4158,5.4162 3.3596,5.4907 3.3035,5.5653 3.2333,5.6254 3.1492,5.6711 3.065,5.7168 2.9675,5.7396 2.8569,5.7398 2.6919,5.7396 2.5461,5.6903 2.4197,5.5917 2.2935,5.4931 2.2096,5.3845 2.1683,5.2661 2.1602,5.2628 2.1734,5.2611 2.208,5.2613 H 2.25 C 2.2996,5.2498 2.3425,5.2326 2.3788,5.2094 2.4152,5.1861 2.4457,5.1541 2.4705,5.1132 2.4953,5.0724 2.5076,5.0231 2.5076,4.9655 2.5076,4.8692 2.4764,4.7954 2.4135,4.7441 2.3507,4.6927 2.2805,4.6672 2.203,4.6673 2.1288,4.6672 2.0593,4.6927 1.995,4.7441 1.9307,4.7954 1.8984,4.8692 1.8984,4.9655 1.8984,5.1 1.9248,5.2274 1.9777,5.3477 2.0306,5.4679 2.1023,5.572 2.1931,5.6603 2.2839,5.7483 2.3912,5.8181 2.515,5.8695 2.6388,5.9207 2.7702,5.9464 2.9089,5.9466 3.0807,5.9464 3.238,5.9212 3.3808,5.8707 3.5235,5.8202 3.6453,5.7476 3.746,5.653 3.8467,5.5584 3.9256,5.449 3.9825,5.3248 4.0395,5.2005 4.0679,5.0632 4.0679,4.9126 4.0679,4.7458 4.03,4.5922 3.954,4.452 3.8781,4.3116 3.784,4.183 3.6717,4.0661 3.5595,3.949 3.4401,3.8388 3.3137,3.7354 3.1875,3.632 3.0731,3.5315 2.9708,3.4338 L 2.4011,2.8976 h 0.7455 c 0.104,-2e-4 0.2011,6e-4 0.291,0.0022 0.09,0.0016 0.1663,0.0049 0.2292,0.0097 0.0628,0.0048 0.0949,0.0079 0.0964,0.0097 0.0133,0.0112 0.0257,0.0335 0.0373,0.0672 0.0116,0.0337 0.0223,0.0733 0.0322,0.119 0.0099,0.0457 0.0198,0.0922 0.0297,0.1395 0.01,0.0472 0.019,0.099 0.0272,0.1552 h 0.1832 z" /><path
                       id="path84"
                       style="fill:none;stroke:#0080ff;stroke-width:0.20100001;stroke-linecap:round;stroke-linejoin:round;stroke-miterlimit:10;stroke-dasharray:none;stroke-opacity:1"
                       d="m 6.969,7.0671 h 3.518" /><path
                       id="path86"
                       style="fill:#0080ff;fill-opacity:1;fill-rule:evenodd;stroke:none"
                       d="m 14.08,8.5953 c 0.041,-0.1555 0.061,-0.3142 0.061,-0.476 0,-0.0509 -0.002,-0.1 -0.005,-0.1472 C 14.119,7.756 14.083,7.5393 14.027,7.3219 13.967,7.1026 13.89,6.8853 13.797,6.6703 13.705,6.4551 13.582,6.2487 13.428,6.0509 13.376,5.9837 13.318,5.9173 13.255,5.852 13.192,5.7865 13.124,5.7281 13.052,5.6765 12.979,5.625 12.904,5.5829 12.826,5.5503 12.747,5.5175 12.665,5.5013 12.579,5.5013 c -0.087,0 -0.163,0.0167 -0.226,0.0503 -0.063,0.0334 -0.117,0.0766 -0.163,0.1299 -0.045,0.053 -0.083,0.1124 -0.112,0.1778 -0.03,0.0654 -0.054,0.1325 -0.072,0.2014 -0.042,0.152 -0.064,0.309 -0.064,0.4711 0,0.0521 0.004,0.1037 0.01,0.1546 0.014,0.2125 0.05,0.4275 0.109,0.6453 0.056,0.219 0.131,0.4356 0.225,0.65 0.094,0.2142 0.22,0.4213 0.377,0.6209 0.052,0.0669 0.109,0.1336 0.172,0.1999 0.062,0.0662 0.128,0.1251 0.199,0.1766 0.071,0.0515 0.145,0.0936 0.224,0.1264 0.078,0.0326 0.161,0.049 0.249,0.0492 0.087,-2e-4 0.162,-0.017 0.225,-0.0505 0.062,-0.0335 0.117,-0.0765 0.165,-0.1288 0.048,-0.0524 0.086,-0.1121 0.114,-0.1791 0.028,-0.0671 0.051,-0.1342 0.069,-0.201 z M 13.739,8.5388 C 13.732,8.6025 13.724,8.6621 13.714,8.7178 13.704,8.7733 13.689,8.8216 13.67,8.8626 13.65,8.9034 13.626,8.9349 13.595,8.957 13.565,8.9791 13.526,8.9902 13.479,8.9903 13.381,8.9902 13.291,8.9448 13.209,8.854 13.126,8.7632 13.046,8.6548 12.968,8.529 12.857,8.349 12.771,8.1641 12.711,7.9744 12.65,7.7845 12.598,7.6014 12.554,7.4249 h 1.028 c 0.046,0.1846 0.088,0.3728 0.127,0.5643 0.027,0.1292 0.04,0.2567 0.04,0.3828 0,0.0555 -0.003,0.111 -0.01,0.1668 z M 12.501,7.2262 C 12.455,7.0412 12.416,6.8547 12.382,6.6667 12.355,6.5309 12.342,6.395 12.342,6.2594 c 0,-0.0509 10e-4,-0.0999 0.005,-0.1472 0.003,-0.0639 0.011,-0.1237 0.022,-0.1792 0.012,-0.0557 0.028,-0.1036 0.047,-0.1436 0.02,-0.0402 0.045,-0.0711 0.077,-0.0932 0.032,-0.0221 0.071,-0.0331 0.117,-0.033 0.096,-10e-5 0.185,0.0448 0.269,0.1348 0.083,0.0899 0.162,0.198 0.236,0.324 0.111,0.1831 0.197,0.3687 0.258,0.5569 0.061,0.188 0.113,0.3704 0.156,0.5473 z" /></g></g></g><path
                 id="path88"
                 style="fill:#000000;fill-opacity:1;fill-rule:nonzero;stroke:none"
                 d="M 740.25,1071.75 V 411.38 h -15 v 660.37 c 0,4.14 3.36,7.5 7.5,7.5 4.14,0 7.5,-3.36 7.5,-7.5 z m -7.5,-780.25 45,150 -37.5,-30 h -15 l -37.5,30 z" /><g
                 transform="matrix(5.7339,0,-7.54e-7,4.4098,518.83,89.985)"
                 id="g90"><g
                   transform="scale(3.488,4.5353)"
                   id="g92"><g
                     clip-path="url(#clipPath98)"
                     id="g94"><path
                       id="path100"
                       style="fill:#000000;fill-opacity:1;fill-rule:evenodd;stroke:none"
                       d="M 9.831,6.4596 C 9.7905,6.286 9.7301,6.1051 9.6491,5.9171 9.5682,5.7288 9.4712,5.5579 9.3584,5.4043 9.2455,5.2503 9.1133,5.1221 8.9618,5.0194 8.8103,4.9163 8.6349,4.8648 8.4358,4.8648 8.2674,4.8648 8.1227,4.9007 8.0012,4.9727 7.8801,5.0445 7.7884,5.1393 7.7258,5.257 7.6635,5.3748 7.6289,5.5122 7.6221,5.6696 v 0.0392 c 0,0.1405 0.0289,0.2828 0.0859,0.4269 C 7.8193,6.4234 7.9221,6.7096 8.0165,6.9942 8.111,7.2788 8.1969,7.565 8.2742,7.8533 8.3282,8.0428 8.3653,8.2275 8.3855,8.4078 8.3923,8.4532 8.3956,8.5023 8.3956,8.555 8.3956,8.6691 8.3788,8.7771 8.345,8.8789 8.2843,9.0847 8.1564,9.1877 7.9607,9.188 7.6172,9.1877 7.3206,9.069 7.0713,8.832 6.8219,8.5946 6.6045,8.2799 6.4192,7.8876 6.315,7.4423 6.2036,6.9982 6.0856,6.555 5.9678,6.1115 5.8515,5.6693 5.7368,5.2279 5.7068,5.1065 5.6445,5.016 5.5501,4.9556 5.4556,4.8948 5.363,4.8648 5.2719,4.8648 5.1743,4.8648 5.0934,4.8973 5.0293,4.9629 4.9857,5.0052 4.9621,5.0641 4.9584,5.1396 c 0,0.0356 0.0034,0.0717 0.0101,0.1079 l 0.6772,2.6058 c 0.054,0.1895 0.0911,0.3742 0.1114,0.5545 V 8.555 c 0,0.1175 -0.0135,0.2254 -0.0405,0.3239 C 5.6562,9.0847 5.5283,9.1877 5.3326,9.188 4.9891,9.1877 4.6925,9.069 4.4432,8.832 4.1938,8.5946 3.9748,8.2799 3.7859,7.8876 L 3.0934,5.2279 C 3.0633,5.1065 3.0017,5.016 2.909,4.9556 2.8164,4.8948 2.7229,4.8648 2.6284,4.8648 2.5275,4.8648 2.4499,4.8973 2.3959,4.9629 2.3524,5.0052 2.3303,5.0641 2.3303,5.1396 c 0,0.0291 0.0034,0.065 0.0101,0.1079 l 0.7781,3.0376 c 0.054,0.2123 0.081,0.3957 0.081,0.5496 V 8.9525 C 3.1829,9.1092 3.1038,9.1877 2.9621,9.188 2.8137,9.1877 2.6898,9.0681 2.5904,8.8295 2.491,8.5906 2.3944,8.2799 2.2999,7.8974 2.2628,7.8088 2.2006,7.7631 2.1129,7.76 H 1.9966 C 1.9156,7.7597 1.8752,7.8005 1.8752,7.8827 V 7.9171 C 1.9156,8.0704 1.9613,8.2382 2.0119,8.4198 2.0626,8.6013 2.13,8.7731 2.2141,8.935 2.2984,9.097 2.4045,9.2344 2.5324,9.3472 2.6606,9.4601 2.8204,9.5165 3.0124,9.5168 3.2891,9.5165 3.5065,9.4331 3.6648,9.2663 3.823,9.0994 3.9055,8.9375 3.9123,8.7807 4.054,8.9669 4.2509,9.1362 4.5036,9.2883 4.7563,9.4405 5.0495,9.5165 5.3829,9.5168 5.5887,9.5165 5.7776,9.4797 5.9494,9.4061 6.1211,9.3325 6.2542,9.2138 6.3484,9.0506 6.4294,8.9096 6.4732,8.7918 6.48,8.6973 6.6284,8.9065 6.8339,9.0951 7.0968,9.2638 7.3596,9.4322 7.6678,9.5165 8.0215,9.5168 8.2202,9.5165 8.4058,9.4797 8.5775,9.4061 8.7493,9.3325 8.8842,9.2138 8.9817,9.0506 9.083,8.8835 9.132,8.6955 9.1283,8.4863 V 8.4618 C 9.1216,8.252 9.0915,8.041 9.0376,7.8287 8.96,7.5306 8.8707,7.2377 8.7695,6.95 8.6686,6.662 8.5625,6.371 8.4511,6.0769 8.3499,5.8116 8.2993,5.5892 8.2993,5.4095 c 0,-0.1475 0.0641,-0.2212 0.1923,-0.2208 0.1147,-4e-4 0.2181,0.034 0.3107,0.1027 0.0926,0.0687 0.177,0.161 0.2527,0.2773 0.0761,0.1159 0.1442,0.2533 0.2049,0.4122 0.0607,0.1585 0.1144,0.3263 0.1616,0.5033 0.0203,0.0846 0.0795,0.1272 0.177,0.1275 h 0.111 C 9.747,6.6114 9.7856,6.6001 9.8258,6.5774 9.8393,6.5476 9.846,6.5231 9.846,6.5038 9.846,6.4903 9.8411,6.4756 9.831,6.4596 Z" /><path
                       id="path102"
                       style="fill:#000000;fill-opacity:1;fill-rule:evenodd;stroke:none"
                       d="m 12.589,3.5522 c -0.389,0.011 -0.767,0.0165 -1.135,0.0165 -0.367,0 -0.746,-0.0055 -1.134,-0.0165 v 0.2363 h 0.218 c 0.07,-2e-4 0.136,7e-4 0.197,0.0026 0.061,0.0017 0.119,0.0064 0.174,0.0137 0.055,0.0073 0.103,0.0146 0.143,0.0222 0.034,0.0053 0.062,0.0221 0.084,0.0507 0.022,0.0283 0.033,0.0599 0.033,0.0949 V 7.0697 C 11.064,7.0237 10.933,6.9888 10.779,6.9651 10.625,6.9412 10.456,6.9294 10.272,6.9295 v 0.2336 c 0.254,-10e-5 0.488,0.0268 0.702,0.0809 0.215,0.0539 0.4,0.1553 0.556,0.3038 h 0.099 c 0.069,-10e-5 0.104,-0.0304 0.104,-0.0906 V 3.9726 c 0,-0.0367 0.011,-0.0688 0.032,-0.0963 0.021,-0.0275 0.052,-0.044 0.092,-0.0493 0.034,-0.0076 0.077,-0.0149 0.13,-0.0222 0.053,-0.0073 0.112,-0.012 0.179,-0.0137 0.066,-0.0019 0.131,-0.0028 0.195,-0.0026 h 0.228 z" /><path
                       id="path104"
                       style="fill:#000000;fill-opacity:1;fill-rule:evenodd;stroke:none"
                       d="M 17.588,4.3642 C 17.53,4.1514 17.432,3.9551 17.292,3.7754 17.152,3.5953 16.989,3.4417 16.804,3.3141 16.619,3.1865 16.415,3.0865 16.193,3.0148 15.97,2.9427 15.748,2.9068 15.525,2.9068 c -0.151,0 -0.313,0.0064 -0.485,0.0196 -0.171,0.0129 -0.328,0.0448 -0.467,0.0957 -0.14,0.0506 -0.245,0.1301 -0.316,0.238 -0.054,0.0653 -0.083,0.1488 -0.086,0.2503 0,0.0491 0.007,0.1061 0.02,0.1717 0.037,0.1473 0.113,0.2567 0.227,0.3288 0.115,0.0718 0.229,0.108 0.344,0.108 0.118,0 0.216,-0.0377 0.293,-0.1129 0.058,-0.0558 0.086,-0.1276 0.086,-0.2159 0,-0.0362 -0.006,-0.0785 -0.02,-0.1276 C 15.098,3.5576 15.054,3.4717 14.99,3.4049 14.926,3.3377 14.89,3.3043 14.883,3.3043 c 0.021,-0.0098 0.099,-0.0239 0.236,-0.0417 0.136,-0.0181 0.29,-0.027 0.462,-0.027 0.138,0 0.272,0.03 0.402,0.0908 0.13,0.0604 0.25,0.1447 0.361,0.2527 0.111,0.1079 0.209,0.2306 0.293,0.368 0.085,0.1374 0.147,0.2828 0.187,0.4368 L 17.092,5.434 C 17.015,5.3586 16.877,5.2635 16.678,5.1491 16.479,5.0344 16.272,4.9776 16.056,4.9776 c -0.259,0 -0.483,0.0641 -0.67,0.1936 C 15.199,5.3003 15.055,5.4665 14.954,5.6696 14.833,5.9048 14.769,6.16 14.762,6.4351 V 6.494 c 0,0.2515 0.034,0.5066 0.101,0.7655 0.071,0.2877 0.18,0.5646 0.329,0.8315 0.148,0.2665 0.342,0.5162 0.581,0.7486 0.196,0.196 0.417,0.358 0.665,0.4855 0.247,0.1276 0.499,0.1914 0.755,0.1917 0.219,-3e-4 0.402,-0.0586 0.546,-0.1745 0.145,-0.1162 0.238,-0.2135 0.278,-0.2917 L 17.992,8.9574 c 0.03,0.1208 0.092,0.2107 0.184,0.2696 0.093,0.0589 0.187,0.0883 0.281,0.0886 0.098,-3e-4 0.179,-0.0313 0.243,-0.0932 0.043,-0.0429 0.065,-0.1018 0.065,-0.1767 0,-0.0362 -0.003,-0.0723 -0.01,-0.1079 z m 0.237,3.9356 c -0.007,0.062 -0.017,0.1224 -0.03,0.1813 -0.014,0.0589 -0.029,0.1178 -0.046,0.177 -0.054,0.1533 -0.13,0.28 -0.23,0.38 C 17.42,9.1377 17.294,9.1877 17.143,9.188 17.001,9.1877 16.862,9.1368 16.723,9.0356 16.585,8.9341 16.459,8.8065 16.344,8.6532 16.189,8.4403 16.071,8.2137 15.991,7.9732 15.91,7.7327 15.834,7.4883 15.763,7.2399 15.702,6.9844 15.65,6.7357 15.606,6.494 15.579,6.3759 15.566,6.2615 15.566,6.1505 c 0,-0.1181 0.013,-0.231 0.04,-0.3386 0.031,-0.1476 0.088,-0.2702 0.172,-0.3684 0.084,-0.0981 0.197,-0.1472 0.339,-0.1469 0.155,-3e-4 0.31,0.0528 0.465,0.1592 0.155,0.1061 0.3,0.2346 0.434,0.3855 0.098,0.1141 0.191,0.2386 0.278,0.373 z" /></g></g></g><path
                 id="path106"
                 style="fill:none;stroke:#000000;stroke-width:15;stroke-linecap:round;stroke-linejoin:round;stroke-miterlimit:10;stroke-dasharray:none;stroke-opacity:1"
                 d="m 2287.9,1705.03 h 535.9" /><path
                 id="path108"
                 style="fill:none;stroke:#0080ff;stroke-width:15;stroke-linecap:round;stroke-linejoin:round;stroke-miterlimit:10;stroke-dasharray:none;stroke-opacity:1"
                 d="m 2422.55,1773.03 c 10.09,-21.25 15.33,-44.48 15.33,-68" /><g
                 transform="matrix(1.1315,-1.507e-6,-3.014e-6,2.1886,2479.41,1679.21)"
                 id="g110"><g
                   transform="scale(17.675,9.1382)"
                   id="g112"><g
                     clip-path="url(#clipPath118)"
                     id="g114"><path
                       id="path120"
                       style="fill:#0080ff;fill-opacity:1;fill-rule:evenodd;stroke:none"
                       d="m 3.0741,5.4677 c 0.0404,-0.1555 0.0605,-0.3143 0.0605,-0.476 0,-0.051 -0.0017,-0.1 -0.005,-0.1473 C 3.1129,4.6284 3.0767,4.4117 3.021,4.1942 2.9604,3.9749 2.8838,3.7576 2.7911,3.5426 2.6985,3.3275 2.5754,3.1211 2.422,2.9233 2.3699,2.8561 2.3121,2.7897 2.2489,2.7244 2.1857,2.6589 2.1179,2.6005 2.0455,2.5489 1.9732,2.4974 1.8977,2.4552 1.8193,2.4227 1.741,2.3899 1.6588,2.3736 1.5729,2.3736 1.4853,2.3736 1.4099,2.3904 1.3467,2.4239 1.2835,2.4574 1.2293,2.5006 1.1837,2.5538 1.1383,2.6069 1.1007,2.6662 1.0713,2.7317 1.0419,2.7971 1.0178,2.8642 0.99922,2.9331 0.95721,3.085 0.93604,3.2421 0.93604,3.4042 c 0,0.0521 0.00338,0.1036 0.01013,0.1545 C 0.95966,3.7713 0.99585,3.9863 1.0547,4.204 1.1104,4.423 1.1854,4.6397 1.2797,4.8541 1.3742,5.0683 1.4996,5.2754 1.6563,5.475 1.7086,5.5419 1.766,5.6086 1.8282,5.6748 1.8905,5.7411 1.9571,5.8 2.0277,5.8515 2.0986,5.903 2.1731,5.945 2.2515,5.9779 2.3298,6.0105 2.4128,6.0269 2.5004,6.0271 2.5881,6.0269 2.6631,6.0101 2.7253,5.9766 2.7876,5.943 2.8428,5.9001 2.8908,5.8478 2.939,5.7954 2.9768,5.7357 3.0046,5.6687 3.0325,5.6015 3.0557,5.5345 3.0741,5.4677 Z M 2.7329,5.4112 C 2.7261,5.4749 2.7177,5.5345 2.7076,5.5902 2.6974,5.6457 2.6827,5.694 2.6634,5.7349 2.6441,5.7757 2.6192,5.8073 2.5889,5.8294 2.5585,5.8515 2.5199,5.8625 2.4726,5.8627 2.3749,5.8625 2.2848,5.8171 2.2023,5.7264 2.1198,5.6356 2.0397,5.5272 1.9621,5.4014 1.8509,5.2214 1.7651,5.0364 1.7043,4.8467 1.6436,4.6569 1.5915,4.4738 1.5476,4.2973 h 1.0285 c 0.0456,0.1846 0.0877,0.3728 0.1264,0.5643 0.027,0.1291 0.0405,0.2567 0.0405,0.3828 0,0.0555 -0.0034,0.111 -0.0101,0.1668 z M 1.4945,4.0985 C 1.4492,3.9136 1.4094,3.7271 1.3757,3.5391 1.3489,3.4032 1.3354,3.2674 1.3354,3.1318 c 0,-0.0509 0.0017,-0.1 0.005,-0.1472 C 1.3438,2.9207 1.3515,2.8608 1.3631,2.8053 1.3749,2.7497 1.3906,2.7018 1.4099,2.6618 1.4292,2.6216 1.455,2.5906 1.487,2.5686 1.5191,2.5465 1.5579,2.5354 1.6033,2.5356 c 0.096,-2e-4 0.1857,0.0448 0.2691,0.1348 0.0834,0.0898 0.1621,0.198 0.2363,0.324 0.1112,0.1831 0.1971,0.3687 0.2578,0.5568 0.0607,0.188 0.1129,0.3705 0.1566,0.5473 z" /></g></g></g><g
                 transform="matrix(2.8254,-1.507e-6,-1.507e-6,4.4098,1348.77,1395.19)"
                 id="g122"><g
                   transform="scale(7.0787,4.5353)"
                   id="g124"><g
                     clip-path="url(#clipPath130)"
                     id="g126"><path
                       id="path132"
                       style="fill:#000000;fill-opacity:1;fill-rule:evenodd;stroke:none"
                       d="M 6.155,8.6924 C 6.1182,8.5483 6.0431,8.4394 5.9302,8.3658 5.8173,8.2922 5.7039,8.2554 5.5892,8.2557 5.4714,8.2554 5.3735,8.2931 5.296,8.3685 5.2322,8.4207 5.2,8.4924 5.2,8.5845 5.2,8.6298 5.2067,8.6759 5.2202,8.7219 5.2506,8.8359 5.3036,8.9258 5.3794,8.9914 5.4551,9.0568 5.5063,9.093 5.5333,9.0997 5.4561,9.1583 5.296,9.1877 5.0534,9.188 4.7976,9.1877 4.5694,9.0838 4.3688,8.8761 4.1682,8.6682 3.9873,8.3879 3.8253,8.0348 L 3.0926,5.2279 C 3.0626,5.1065 3.0009,5.016 2.9083,4.9556 2.8157,4.8948 2.7221,4.8648 2.6276,4.8648 2.5267,4.8648 2.4491,4.8973 2.3952,4.9629 2.3516,5.0052 2.3295,5.0641 2.3295,5.1396 c 0,0.0291 0.0034,0.065 0.0102,0.1079 L 3.1178,8.2851 C 3.1717,8.4974 3.1987,8.6808 3.1987,8.8347 V 8.9525 C 3.1822,9.1092 3.103,9.1877 2.9613,9.188 2.8132,9.1877 2.6893,9.0681 2.5899,8.8295 2.4906,8.5906 2.3936,8.2799 2.2992,7.8974 2.2624,7.8088 2.2001,7.7631 2.1124,7.76 H 1.9961 C 1.9152,7.7597 1.8747,7.8005 1.8747,7.8827 V 7.9171 C 1.9152,8.0704 1.9609,8.2382 2.0112,8.4198 2.0618,8.6013 2.1293,8.7731 2.2133,8.935 2.2976,9.097 2.4038,9.2344 2.5317,9.3472 2.6599,9.4601 2.8196,9.5165 3.0116,9.5168 3.268,9.5165 3.4745,9.4435 3.6309,9.2981 3.7876,9.1525 3.8759,9.0095 3.8962,8.8691 4.0142,9.0258 4.1786,9.173 4.389,9.3104 4.5994,9.4478 4.8411,9.5165 5.1141,9.5168 5.249,9.5165 5.3861,9.5024 5.526,9.4748 5.6658,9.4469 5.7885,9.4012 5.8946,9.3374 6.0008,9.2736 6.0793,9.1893 6.1299,9.085 6.1602,9.0194 6.1771,8.9457 6.1802,8.8642 6.1802,8.8148 6.1719,8.7574 6.155,8.6924 Z" /><path
                       id="path134"
                       style="fill:#000000;fill-opacity:1;fill-rule:evenodd;stroke:none"
                       d="M 8.421,3.5522 C 8.0323,3.5632 7.6541,3.5687 7.2863,3.5687 6.9187,3.5687 6.5405,3.5632 6.1517,3.5522 v 0.2363 h 0.2188 c 0.0696,-2e-4 0.1352,7e-4 0.1964,0.0026 C 6.6282,3.7928 6.6863,3.7975 6.7413,3.8048 6.7964,3.8121 6.8439,3.8194 6.8839,3.827 6.9177,3.8323 6.9456,3.8491 6.9677,3.8777 6.9901,3.906 7.001,3.9376 7.001,3.9726 V 7.0697 C 6.8956,7.0237 6.7656,6.9888 6.6113,6.9651 6.457,6.9412 6.2881,6.9294 6.1042,6.9295 V 7.1631 C 6.3578,7.163 6.5919,7.1899 6.8064,7.244 7.0208,7.2979 7.2063,7.3993 7.3625,7.5478 H 7.4608 C 7.5304,7.5477 7.5652,7.5174 7.5652,7.4572 V 3.9726 C 7.5652,3.9359 7.5758,3.9038 7.597,3.8763 7.6181,3.8488 7.6489,3.8323 7.6889,3.827 7.7228,3.8194 7.7662,3.8121 7.819,3.8048 7.8717,3.7975 7.9313,3.7928 7.9979,3.7911 8.0644,3.7892 8.1294,3.7883 8.1929,3.7885 H 8.421 Z" /></g></g></g><g
                 transform="matrix(2.9551,-3.014e-6,-3.014e-6,4.4098,2544.09,1884.46)"
                 id="g136"><g
                   transform="scale(6.768,4.5353)"
                   id="g138"><g
                     clip-path="url(#clipPath144)"
                     id="g140"><path
                       id="path146"
                       style="fill:#000000;fill-opacity:1;fill-rule:evenodd;stroke:none"
                       d="M 6.1546,8.6924 C 6.1178,8.5483 6.0426,8.4394 5.9298,8.3658 5.8169,8.2922 5.7031,8.2554 5.5884,8.2557 5.4706,8.2554 5.3728,8.2931 5.2952,8.3685 c -0.0638,0.0522 -0.096,0.1239 -0.096,0.216 0,0.0453 0.0067,0.0914 0.0202,0.1374 0.0304,0.114 0.0835,0.2039 0.1592,0.2695 C 5.4547,9.0568 5.5059,9.093 5.5329,9.0997 5.4556,9.1583 5.2955,9.1877 5.0526,9.188 4.7968,9.1877 4.5686,9.0838 4.368,8.8761 4.1674,8.6682 3.9865,8.3879 3.8246,8.0348 L 3.0915,5.2279 C 3.0615,5.1065 2.9998,5.016 2.9072,4.9556 2.8146,4.8948 2.721,4.8648 2.6266,4.8648 2.5257,4.8648 2.4481,4.8973 2.3941,4.9629 2.3505,5.0052 2.3285,5.0641 2.3285,5.1396 c 0,0.0291 0.0033,0.065 0.0101,0.1079 l 0.7781,3.0376 c 0.054,0.2123 0.081,0.3957 0.081,0.5496 V 8.9525 C 3.1811,9.1092 3.102,9.1877 2.9603,9.188 2.8118,9.1877 2.6879,9.0681 2.5885,8.8295 2.4892,8.5906 2.3926,8.2799 2.2981,7.8974 2.261,7.8088 2.1987,7.7631 2.111,7.76 H 1.9948 C 1.9138,7.7597 1.8733,7.8005 1.8733,7.8827 V 7.9171 C 1.9138,8.0704 1.9595,8.2382 2.0101,8.4198 2.0607,8.6013 2.1282,8.7731 2.2122,8.935 2.2966,9.097 2.4027,9.2344 2.5306,9.3472 2.6588,9.4601 2.8186,9.5165 3.0106,9.5168 3.267,9.5165 3.4734,9.4435 3.6298,9.2981 3.7865,9.1525 3.8749,9.0095 3.8951,8.8691 4.0132,9.0258 4.1776,9.173 4.388,9.3104 4.5987,9.4478 4.8403,9.5165 5.1133,9.5168 5.2483,9.5165 5.3854,9.5024 5.5252,9.4748 5.6651,9.4469 5.7881,9.4012 5.8942,9.3374 6.0003,9.2736 6.0788,9.1893 6.1294,9.085 6.1598,9.0194 6.1766,8.9457 6.1797,8.8642 6.1797,8.8148 6.1714,8.7574 6.1546,8.6924 Z" /><path
                       id="path148"
                       style="fill:#000000;fill-opacity:1;fill-rule:evenodd;stroke:none"
                       d="M 8.6597,3.5522 H 6.0798 v 0.1511 c 0,0.0109 0.0063,0.0273 0.019,0.0495 L 7.1353,4.7586 C 7.258,4.8793 7.3821,5.003 7.5079,5.1294 7.6337,5.2558 7.746,5.385 7.8453,5.5169 7.9445,5.6488 8.0238,5.7848 8.083,5.925 8.1423,6.0651 8.1717,6.2121 8.1717,6.3662 8.1717,6.496 8.1529,6.6175 8.1148,6.7301 8.0767,6.8428 8.0219,6.9417 7.9499,7.0269 7.878,7.1121 7.7881,7.1808 7.6804,7.233 7.5727,7.2852 7.448,7.3113 7.3065,7.3115 7.0952,7.3113 6.9087,7.255 6.7471,7.1423 6.5855,7.0297 6.4781,6.9055 6.4252,6.7702 6.4149,6.7664 6.4318,6.7645 6.476,6.7647 H 6.5299 C 6.5934,6.7516 6.6482,6.7319 6.6947,6.7054 6.7413,6.6788 6.7803,6.6422 6.8121,6.5955 6.8438,6.5488 6.8596,6.4924 6.8596,6.4266 6.8596,6.3166 6.8196,6.2322 6.7392,6.1737 6.6588,6.1149 6.5689,6.0857 6.4697,6.0859 6.3747,6.0857 6.286,6.1149 6.2035,6.1737 6.1211,6.2322 6.0798,6.3166 6.0798,6.4266 6.0798,6.5804 6.1136,6.726 6.1813,6.8634 6.249,7.0008 6.3408,7.1198 6.457,7.2207 6.5732,7.3213 6.7105,7.401 6.869,7.4597 7.0275,7.5183 7.1957,7.5477 7.373,7.5478 7.5927,7.5477 7.7941,7.5188 7.9768,7.4611 8.1596,7.4034 8.3154,7.3204 8.4443,7.2124 8.5732,7.1042 8.6742,6.9792 8.7471,6.8373 8.82,6.6953 8.8563,6.5383 8.8563,6.3662 8.8563,6.1755 8.8079,6 8.7105,5.8398 8.6134,5.6793 8.493,5.5323 8.3493,5.3987 8.2056,5.2649 8.0528,5.139 7.8912,5.0208 7.7297,4.9027 7.5833,4.7878 7.4523,4.6761 L 6.7232,4.0633 h 0.9541 c 0.1332,-10e-5 0.2574,7e-4 0.3725,0.0026 0.1152,0.0017 0.2129,0.0055 0.2931,0.011 0.0804,0.0055 0.1216,0.0091 0.1235,0.0112 0.0169,0.0127 0.0329,0.0383 0.0477,0.0767 0.0148,0.0385 0.0285,0.0838 0.0412,0.1361 0.0127,0.0522 0.0254,0.1052 0.0381,0.1593 0.0127,0.054 0.0242,0.1132 0.0348,0.1775 h 0.2345 z" /></g></g></g><path
                 id="path150"
                 style="fill:none;stroke:#0080ff;stroke-width:15;stroke-linecap:round;stroke-linejoin:round;stroke-miterlimit:10;stroke-dasharray:none;stroke-opacity:1"
                 d="M 732.75,1071.75 112.5,792.77" /><path
                 id="path152"
                 style="fill:none;stroke:#0080ff;stroke-width:15;stroke-linecap:round;stroke-linejoin:round;stroke-miterlimit:10;stroke-dasharray:none;stroke-opacity:1"
                 d="m 732.75,907.34 c -62.73,0 -119.57,36.98 -144.98,94.34" /><g
                 transform="matrix(4.1889,-7.54e-7,-3.77e-7,3.9262,415.87,713.1)"
                 id="g154"><g
                   transform="scale(4.7746,5.094)"
                   id="g156"><g
                     clip-path="url(#clipPath162)"
                     id="g158"><path
                       id="path164"
                       style="fill:none;stroke:#0080ff;stroke-width:0.20100001;stroke-linecap:round;stroke-linejoin:round;stroke-miterlimit:10;stroke-dasharray:none;stroke-opacity:1"
                       d="M 1.038,7.0671 H 4.9339" /><path
                       id="path166"
                       style="fill:#0080ff;fill-opacity:1;fill-rule:evenodd;stroke:none"
                       d="m 4.2657,10.901 c 0.059,-0.002 0.0995,-0.022 0.1213,-0.059 0.0119,-0.025 0.0178,-0.05 0.0178,-0.076 V 10.727 C 4.393,10.682 4.3686,10.643 4.3315,10.61 4.2943,10.576 4.2464,10.56 4.1873,10.56 H 3.5555 C 3.4966,10.29 3.4672,10.02 3.4672,9.7502 V 9.7109 C 3.4705,9.4294 3.527,9.1678 3.6365,8.9258 3.6483,8.9028 3.6541,8.8773 3.6541,8.8497 3.6541,8.8218 3.6466,8.7963 3.6314,8.7737 3.6044,8.7261 3.5682,8.6893 3.5227,8.6632 3.4807,8.6387 3.4368,8.6255 3.3913,8.624 3.3811,8.624 3.3744,8.6255 3.371,8.6289 3.3206,8.6289 3.2835,8.6574 3.2598,8.7148 3.206,8.8356 3.174,8.9706 3.1638,9.1196 c -0.0033,0.0555 -0.005,0.1095 -0.005,0.162 0,0.0979 0.0067,0.201 0.0202,0.3091 0.0169,0.165 0.0448,0.3326 0.0835,0.5033 0.0388,0.17 0.0759,0.325 0.1111,0.466 H 2.8479 C 2.8093,10.413 2.765,10.243 2.7153,10.051 2.6656,9.8583 2.6164,9.6743 2.5675,9.4985 2.5187,9.3226 2.4748,9.1681 2.436,9.0348 2.3974,8.9014 2.3678,8.8152 2.3476,8.7761 2.3172,8.7122 2.2769,8.6714 2.2263,8.6534 2.1891,8.6387 2.1546,8.6304 2.1226,8.6289 2.1059,8.6289 2.0916,8.6313 2.0797,8.6363 2.0309,8.6444 1.9962,8.6697 1.976,8.7123 1.9643,8.7286 1.9584,8.7482 1.9584,8.7712 c 0,0.0293 0.0093,0.062 0.0277,0.0981 0.1417,0.2845 0.271,0.5691 0.388,0.8537 0.1172,0.285 0.2144,0.564 0.2918,0.837 H 2.3299 C 2.2137,10.56 2.1025,10.521 1.9964,10.443 1.8903,10.365 1.8026,10.269 1.7334,10.153 1.7066,10.126 1.6813,10.113 1.6576,10.113 H 1.602 c -0.0252,0.018 -0.0379,0.039 -0.0379,0.064 v 0.015 c 0.0354,0.088 0.0813,0.174 0.1377,0.257 0.0564,0.084 0.121,0.159 0.1934,0.226 0.0725,0.067 0.1521,0.122 0.2389,0.163 0.0868,0.042 0.1782,0.063 0.2742,0.063 z" /><path
                       id="path168"
                       style="fill:#0080ff;fill-opacity:1;fill-rule:evenodd;stroke:none"
                       d="M 3.9143,2.4503 H 1.8984 v 0.1323 c 0,0.0095 0.0049,0.0239 0.0149,0.0433 l 0.8098,0.88 C 2.8189,3.6116 2.9158,3.7198 3.0141,3.8304 3.1124,3.941 3.2004,4.054 3.278,4.1694 3.3555,4.2849 3.4174,4.4039 3.4637,4.5265 3.51,4.6492 3.533,4.7778 3.533,4.9126 3.533,5.0262 3.5181,5.1325 3.4884,5.2311 3.4586,5.3296 3.4158,5.4162 3.3596,5.4907 3.3035,5.5653 3.2333,5.6254 3.1492,5.6711 3.065,5.7168 2.9675,5.7396 2.8569,5.7398 2.6919,5.7396 2.5461,5.6903 2.4197,5.5917 2.2935,5.4931 2.2096,5.3845 2.1683,5.2661 2.1602,5.2628 2.1734,5.2611 2.208,5.2613 H 2.25 C 2.2996,5.2498 2.3425,5.2326 2.3788,5.2094 2.4152,5.1861 2.4457,5.1541 2.4705,5.1132 2.4953,5.0724 2.5076,5.0231 2.5076,4.9655 2.5076,4.8692 2.4764,4.7954 2.4135,4.7441 2.3507,4.6927 2.2805,4.6672 2.203,4.6673 2.1288,4.6672 2.0593,4.6927 1.995,4.7441 1.9307,4.7954 1.8984,4.8692 1.8984,4.9655 1.8984,5.1 1.9248,5.2274 1.9777,5.3477 2.0306,5.4679 2.1023,5.572 2.1931,5.6603 2.2839,5.7483 2.3912,5.8181 2.515,5.8695 2.6388,5.9207 2.7702,5.9464 2.9089,5.9466 3.0807,5.9464 3.238,5.9212 3.3808,5.8707 3.5235,5.8202 3.6453,5.7476 3.746,5.653 3.8467,5.5584 3.9256,5.449 3.9825,5.3248 4.0395,5.2005 4.0679,5.0632 4.0679,4.9126 4.0679,4.7458 4.03,4.5922 3.954,4.452 3.8781,4.3116 3.784,4.183 3.6717,4.0661 3.5595,3.949 3.4401,3.8388 3.3137,3.7354 3.1875,3.632 3.0731,3.5315 2.9708,3.4338 L 2.4011,2.8976 h 0.7455 c 0.104,-2e-4 0.2011,6e-4 0.291,0.0022 0.09,0.0016 0.1663,0.0049 0.2292,0.0097 0.0628,0.0048 0.0949,0.0079 0.0964,0.0097 0.0133,0.0112 0.0257,0.0335 0.0373,0.0672 0.0116,0.0337 0.0223,0.0733 0.0322,0.119 0.0099,0.0457 0.0198,0.0922 0.0297,0.1395 0.01,0.0472 0.019,0.099 0.0272,0.1552 h 0.1832 z" /><path
                       id="path170"
                       style="fill:none;stroke:#0080ff;stroke-width:0.20100001;stroke-linecap:round;stroke-linejoin:round;stroke-miterlimit:10;stroke-dasharray:none;stroke-opacity:1"
                       d="m 6.969,7.0671 h 3.518" /><path
                       id="path172"
                       style="fill:#0080ff;fill-opacity:1;fill-rule:evenodd;stroke:none"
                       d="m 14.08,8.5953 c 0.041,-0.1555 0.061,-0.3142 0.061,-0.476 0,-0.0509 -0.002,-0.1 -0.005,-0.1472 C 14.119,7.756 14.083,7.5393 14.027,7.3219 13.967,7.1026 13.89,6.8853 13.797,6.6703 13.705,6.4551 13.582,6.2487 13.428,6.0509 13.376,5.9837 13.318,5.9173 13.255,5.852 13.192,5.7865 13.124,5.7281 13.052,5.6765 12.979,5.625 12.904,5.5829 12.826,5.5503 12.747,5.5175 12.665,5.5013 12.579,5.5013 c -0.087,0 -0.163,0.0167 -0.226,0.0503 -0.063,0.0334 -0.117,0.0766 -0.163,0.1299 -0.045,0.053 -0.083,0.1124 -0.112,0.1778 -0.03,0.0654 -0.054,0.1325 -0.072,0.2014 -0.042,0.152 -0.064,0.309 -0.064,0.4711 0,0.0521 0.004,0.1037 0.01,0.1546 0.014,0.2125 0.05,0.4275 0.109,0.6453 0.056,0.219 0.131,0.4356 0.225,0.65 0.094,0.2142 0.22,0.4213 0.377,0.6209 0.052,0.0669 0.109,0.1336 0.172,0.1999 0.062,0.0662 0.128,0.1251 0.199,0.1766 0.071,0.0515 0.145,0.0936 0.224,0.1264 0.078,0.0326 0.161,0.049 0.249,0.0492 0.087,-2e-4 0.162,-0.017 0.225,-0.0505 0.062,-0.0335 0.117,-0.0765 0.165,-0.1288 0.048,-0.0524 0.086,-0.1121 0.114,-0.1791 0.028,-0.0671 0.051,-0.1342 0.069,-0.201 z M 13.739,8.5388 C 13.732,8.6025 13.724,8.6621 13.714,8.7178 13.704,8.7733 13.689,8.8216 13.67,8.8626 13.65,8.9034 13.626,8.9349 13.595,8.957 13.565,8.9791 13.526,8.9902 13.479,8.9903 13.381,8.9902 13.291,8.9448 13.209,8.854 13.126,8.7632 13.046,8.6548 12.968,8.529 12.857,8.349 12.771,8.1641 12.711,7.9744 12.65,7.7845 12.598,7.6014 12.554,7.4249 h 1.028 c 0.046,0.1846 0.088,0.3728 0.127,0.5643 0.027,0.1292 0.04,0.2567 0.04,0.3828 0,0.0555 -0.003,0.111 -0.01,0.1668 z M 12.501,7.2262 C 12.455,7.0412 12.416,6.8547 12.382,6.6667 12.355,6.5309 12.342,6.395 12.342,6.2594 c 0,-0.0509 10e-4,-0.0999 0.005,-0.1472 0.003,-0.0639 0.011,-0.1237 0.022,-0.1792 0.012,-0.0557 0.028,-0.1036 0.047,-0.1436 0.02,-0.0402 0.045,-0.0711 0.077,-0.0932 0.032,-0.0221 0.071,-0.0331 0.117,-0.033 0.096,-10e-5 0.185,0.0448 0.269,0.1348 0.083,0.0899 0.162,0.198 0.236,0.324 0.111,0.1831 0.197,0.3687 0.258,0.5569 0.061,0.188 0.113,0.3704 0.156,0.5473 z" /></g></g></g></g></g></g></g></g></g></svg>