<?xml version="1.0" encoding="utf-8"?>
<!-- Generator: Adobe Illustrator 19.0.0, SVG Export Plug-In . SVG Version: 6.00 Build 0)  -->
<svg version="1.1" id="Layer_1" xmlns="http://www.w3.org/2000/svg" xmlns:xlink="http://www.w3.org/1999/xlink" x="0px" y="0px"
	 viewBox="0 0 275.5 262.5" style="enable-background:new 0 0 275.5 262.5;" xml:space="preserve">
<style type="text/css">
	.st0{fill:#FFFFFF;stroke:#000000;stroke-miterlimit:10;}
	.st1{fill:#6D6E71;stroke:#808285;stroke-miterlimit:10;}
	.st2{fill:#808285;}
	.st3{fill:#010101;}
	.st4{fill:none;stroke:#ED1C24;stroke-miterlimit:10;}
	.st5{fill:none;stroke:#F7941E;stroke-miterlimit:10;}
	.st6{fill:#ED1C24;}
	.st7{fill:#F7941E;}
	.st8{fill:none;stroke:#000000;stroke-miterlimit:10;}
	.st9{fill:none;stroke:#939598;stroke-miterlimit:10;}
	.st10{fill:none;stroke:#010101;stroke-width:0.5921882;stroke-linecap:square;stroke-miterlimit:10;}
</style>
<circle class="st0" cx="130.2556" cy="148.282196" r="87.101799"/>
<line class="st1" x1="130.2558899" y1="258.7314148" x2="130.2558899" y2="33.3442001"/>
<polygon class="st2" points="126.2070007,33.1245003 130.1776886,21.9657993 134.1483917,33.1245003 "/>
<g>
	<line class="st1" x1="6.3379002" y1="148.282196" x2="249.6845856" y2="148.282196"/>
	<polygon class="st2" points="249.6815948,144.3114929 260.8407898,148.2816925 249.6815948,152.2534027 	"/>
</g>
<g>
	<g>
		<path class="st3" d="M256.0644531,131.7998047c0.2226563,0.2519531,0.390625,0.5039063,0.5048828,0.7558594
			c0.0810547,0.1743164,0.2148438,0.6318359,0.4013672,1.3730469l0.5996094-0.9589844
			c0.1591797-0.2324219,0.3515625-0.4541016,0.5791016-0.6650391c0.2275391-0.2104492,0.4267578-0.3544922,0.5996094-0.4321289
			c0.109375-0.0483398,0.2294922-0.0727539,0.3613281-0.0727539c0.1953125,0,0.3505859,0.0556641,0.4667969,0.1669922
			c0.1152344,0.1118164,0.1728516,0.2470703,0.1728516,0.4072266c0,0.184082-0.0332031,0.3100586-0.1015625,0.3774414
			c-0.1269531,0.121582-0.2724609,0.1816406-0.4365234,0.1816406c-0.0947266,0-0.1972656-0.0214844-0.3066406-0.0649414
			c-0.2128906-0.0776367-0.3564453-0.1166992-0.4287109-0.1166992c-0.109375,0-0.2382813,0.0678711-0.3886719,0.2036133
			c-0.28125,0.2519531-0.6171875,0.7387695-1.0078125,1.4604492l0.5585938,2.5
			c0.0859375,0.3828125,0.1591797,0.6113281,0.2177734,0.6865234s0.1181641,0.112793,0.1767578,0.112793
			c0.0957031,0,0.2070313-0.0556641,0.3339844-0.1674805c0.25-0.2226563,0.4638672-0.5131836,0.640625-0.871582l0.2382813,0.1308594
			c-0.2861328,0.5712891-0.6494141,1.0463867-1.0898438,1.4238281c-0.25,0.2133789-0.4609375,0.3198242-0.6337891,0.3198242
			c-0.2539063,0-0.4560547-0.1523438-0.6064453-0.4575195c-0.0947266-0.1889648-0.2929688-1.0029297-0.5917969-2.4418945
			c-0.7089844,1.3129883-1.2763672,2.1582031-1.703125,2.5361328c-0.2773438,0.2421875-0.5458984,0.3632813-0.8046875,0.3632813
			c-0.1816406,0-0.3466797-0.0703125-0.4970703-0.2104492c-0.1083984-0.1069336-0.1630859-0.2495117-0.1630859-0.4287109
			c0-0.1601563,0.0498047-0.293457,0.1494141-0.3999023c0.1005859-0.1064453,0.2226563-0.159668,0.3681641-0.159668
			s0.2998047,0.0771484,0.4628906,0.2324219c0.1181641,0.1113281,0.2089844,0.1669922,0.2724609,0.1669922
			c0.0546875,0,0.125-0.0385742,0.2119141-0.1162109c0.2128906-0.184082,0.5039063-0.581543,0.8710938-1.1918945
			c0.3681641-0.6103516,0.609375-1.0507813,0.7226563-1.3222656c-0.28125-1.1772461-0.4335938-1.7998047-0.4560547-1.8676758
			c-0.1054688-0.3149414-0.2412109-0.5375977-0.4091797-0.668457s-0.4160156-0.1962891-0.7421875-0.1962891
			c-0.1044922,0-0.2255859,0.0048828-0.3613281,0.0146484v-0.2617188L256.0644531,131.7998047z"/>
	</g>
</g>
<g>
	<g>
		<path class="st3" d="M118.0717773,21.1860352c0.1542969,0.2714844,0.2607422,0.5258789,0.3203125,0.762207
			c0.0585938,0.2368164,0.1181641,0.7016602,0.1767578,1.3950195l0.2998047,3.4575195
			c0.2724609-0.3374023,0.6679688-0.871582,1.1855469-1.6025391c0.25-0.355957,0.5585938-0.8408203,0.9267578-1.4545898
			c0.2226563-0.3745117,0.3583984-0.6367188,0.4082031-0.7871094c0.0273438-0.074707,0.0410156-0.1518555,0.0410156-0.2314453
			c0-0.0517578-0.015625-0.09375-0.0478516-0.1264648c-0.03125-0.0327148-0.1142578-0.0717773-0.2480469-0.1162109
			s-0.2451172-0.1264648-0.3339844-0.2460938c-0.0888672-0.1191406-0.1328125-0.2563477-0.1328125-0.4111328
			c0-0.1918945,0.0546875-0.3461914,0.1630859-0.4633789c0.109375-0.1171875,0.2451172-0.1757813,0.4091797-0.1757813
			c0.1992188,0,0.3706055,0.0854492,0.5112305,0.2563477c0.140625,0.1713867,0.2109375,0.4067383,0.2109375,0.7060547
			c0,0.3706055-0.1220703,0.7929688-0.3671875,1.2685547c-0.2456055,0.4755859-0.7182617,1.2050781-1.4174805,2.1889648
			c-0.7001953,0.9838867-1.546875,2.0566406-2.5410156,3.2182617c-0.6865234,0.8012695-1.1953125,1.3061523-1.5263672,1.5146484
			c-0.3310547,0.2080078-0.6152344,0.3125-0.8515625,0.3125c-0.140625,0-0.2646484-0.0551758-0.3710938-0.1650391
			c-0.1064453-0.1103516-0.1601563-0.237793-0.1601563-0.3833008c0-0.1826172,0.0742188-0.3486328,0.2216797-0.4985352
			c0.1474609-0.1503906,0.3076172-0.2250977,0.4794922-0.2250977c0.0917969,0,0.1660156,0.0209961,0.2255859,0.0634766
			c0.0361328,0.0234375,0.0761719,0.0898438,0.1191406,0.2001953c0.0429688,0.1098633,0.0830078,0.1835938,0.1191406,0.2211914
			c0.0224609,0.0234375,0.0498047,0.0351563,0.0820313,0.0351563c0.0263672,0,0.0742188-0.0234375,0.1425781-0.0703125
			c0.25-0.1591797,0.5400391-0.4121094,0.8720703-0.7587891c0.4355469-0.4589844,0.7587891-0.8339844,0.9677734-1.1245117
			l-0.3818359-4.4550781c-0.0634766-0.7353516-0.1591797-1.1826172-0.2861328-1.3422852
			c-0.1269531-0.1591797-0.3408203-0.2387695-0.640625-0.2387695c-0.0957031,0-0.265625,0.0141602-0.5107422,0.0424805
			l-0.0615234-0.2602539L118.0717773,21.1860352z"/>
	</g>
</g>
<line class="st4" x1="130.1776886" y1="148.282196" x2="203.0937958" y2="100.9301987"/>
<line class="st5" x1="130.2558899" y1="148.282196" x2="179.2040863" y2="76.2250977"/>
<line class="st4" x1="203.0937958" y1="100.9301987" x2="174.4267883" y2="56.7871017"/>
<line class="st5" x1="179.2040863" y1="76.2250977" x2="135.7792969" y2="46.9336014"/>
<polygon class="st6" points="173.4481964,58.8945007 172.0741882,53.1333008 176.7782898,56.730999 "/>
<polygon class="st7" points="135.0780945,48.7030983 131.4843903,43.9950981 137.2440948,45.375 "/>
<line class="st4" x1="130.1776886" y1="148.5048981" x2="101.5106964" y2="104.3618011"/>
<polygon class="st6" points="100.532196,106.4692001 99.1581955,100.7080002 103.8622971,104.3057022 "/>
<line class="st5" x1="129.8690948" y1="148.5048981" x2="86.4442978" y2="119.2134018"/>
<polygon class="st7" points="85.7431946,120.9829025 82.1493988,116.2749023 87.9091949,117.6548004 "/>
<line class="st8" x1="99.1581955" y1="100.7080002" x2="84.123497" y2="114.4682999"/>
<polygon class="st3" points="87.7006989,113.7201996 82.357399,116.2749023 84.8852921,110.9194031 "/>
<path class="st9" d="M145.0976868,126.4336014c3.6445007,1.3612976,6.3408051,3.7128983,7.2900085,7.4258041"/>
<g>
	<g>
		<path class="st3" d="M187.5732422,130.4272461l-0.5527344,1.8754883h1.1113281l-0.1201172,0.434082h-1.1044922
			l-1.2167969,4.0673828c-0.1318359,0.4365234-0.1982422,0.7192383-0.1982422,0.8481445
			c0,0.078125,0.0195313,0.1376953,0.0566406,0.1791992c0.0380859,0.0410156,0.0830078,0.0620117,0.1347656,0.0620117
			c0.1181641,0,0.2734375-0.0805664,0.4667969-0.2412109c0.1132813-0.0922852,0.3652344-0.3745117,0.7568359-0.8481445
			l0.234375,0.1723633c-0.4345703,0.6157227-0.8447266,1.050293-1.2314453,1.3027344
			c-0.2646484,0.1748047-0.53125,0.262207-0.7998047,0.262207c-0.2070313,0-0.3769531-0.0634766-0.5097656-0.1894531
			c-0.1318359-0.1264648-0.1972656-0.2885742-0.1972656-0.4863281c0-0.2480469,0.0751953-0.6274414,0.2255859-1.137207
			l1.1816406-3.9916992h-1.0683594l0.0712891-0.269043c0.5185547-0.1376953,0.9501953-0.3432617,1.2949219-0.6166992
			c0.34375-0.2734375,0.7285156-0.7480469,1.1533203-1.4238281H187.5732422z"/>
	</g>
	<g>
		<path class="st3" d="M172.9042969,132.1416016l0.0849609-0.2485352c0.796875,0,1.4033203,0.1318359,1.8183594,0.3959961
			c0.4130859,0.2646484,0.6748047,0.6894531,0.7832031,1.2763672c0.1083984,0.5859375,0.0429688,1.2280273-0.1953125,1.9262695
			c-0.203125,0.5932617-0.5087891,1.1357422-0.9179688,1.6274414c-0.4091797,0.4912109-0.8652344,0.862793-1.3671875,1.1132813
			c-0.5039063,0.2504883-0.9443359,0.375-1.3212891,0.375c-0.4150391,0-0.7304688-0.1142578-0.9433594-0.3447266
			c-0.2148438-0.2290039-0.3544922-0.5854492-0.4199219-1.0678711c-0.4267578,0.4868164-0.8427734,0.8442383-1.2470703,1.0717773
			c-0.40625,0.2270508-0.8125,0.3408203-1.2177734,0.3408203c-0.3535156,0-0.6855469-0.1230469-0.9951172-0.3686523
			c-0.3105469-0.2456055-0.4980469-0.6245117-0.5625-1.137207c-0.0654297-0.512207,0.0039063-1.0673828,0.2089844-1.6650391
			c0.2216797-0.6479492,0.5576172-1.2382813,1.0097656-1.7714844c0.3476563-0.4140625,0.7304688-0.7558594,1.1464844-1.0273438
			c0.4160156-0.2709961,0.8251953-0.4628906,1.2265625-0.5756836c0.4023438-0.112793,0.8828125-0.1689453,1.4453125-0.1689453
			l-0.0859375,0.2485352c-0.6767578,0.0644531-1.3222656,0.3666992-1.9335938,0.90625
			c-0.6113281,0.5405273-1.0966797,1.3344727-1.4550781,2.3818359c-0.3535156,1.0341797-0.4511719,1.7929688-0.2910156,2.2749023
			c0.0996094,0.2895508,0.328125,0.4345703,0.6865234,0.4345703c0.2978516,0,0.6201172-0.1191406,0.96875-0.3583984
			c0.3486328-0.2397461,0.7236328-0.6708984,1.1259766-1.2963867c-0.0234375-0.5380859-0.0224609-0.9370117,0.0039063-1.199707
			c0.0263672-0.2612305,0.0800781-0.5117188,0.1611328-0.7509766c0.1533203-0.4462891,0.390625-0.8295898,0.7119141-1.1513672
			c0.1591797-0.1606445,0.3095703-0.2412109,0.4511719-0.2412109c0.1455078,0,0.2431641,0.0805664,0.2929688,0.2412109
			c0.0976563,0.3032227,0.0732422,0.6738281-0.0761719,1.1098633c-0.1826172,0.5332031-0.5634766,1.1972656-1.1416016,1.9921875
			c-0.03125,0.6298828,0.0400391,1.0541992,0.2119141,1.2719727c0.1738281,0.2182617,0.4160156,0.3271484,0.7275391,0.3271484
			c0.3681641,0,0.7119141-0.1396484,1.0351563-0.4204102c0.4355469-0.3769531,0.8300781-1.0820313,1.1835938-2.1157227
			c0.4296875-1.2548828,0.4609375-2.1806641,0.0947266-2.7783203
			C173.8916016,132.4057617,173.4892578,132.1967773,172.9042969,132.1416016z"/>
	</g>
	<g>
		<path class="st3" d="M183.65625,138.3759766h-8.4912109l4.4433594-9.5615234L183.65625,138.3759766z M181.9863281,137.8105469
			l-2.8232422-6.6660156l-3.1132813,6.6660156H181.9863281z"/>
	</g>
</g>
<line class="st8" x1="129.8690948" y1="149.2104034" x2="101.5220032" y2="175.1542969"/>
<polygon class="st3" points="105.1000977,174.4062958 99.7562943,176.960907 102.283699,171.6054993 "/>
<g>
	<g>
		<path class="st3" d="M187.1875,50.8828125l1.328125-0.6508789h0.1328125v4.6313477
			c0,0.3076172,0.0126953,0.4990234,0.0380859,0.5742188c0.0253906,0.0756836,0.078125,0.1337891,0.1591797,0.1743164
			c0.0800781,0.0400391,0.2441406,0.0629883,0.4912109,0.0683594v0.1499023h-2.0527344v-0.1499023
			c0.2578125-0.0053711,0.4238281-0.0273438,0.4990234-0.0664063s0.1269531-0.0917969,0.1572266-0.1577148
			c0.0292969-0.0664063,0.0439453-0.2636719,0.0439453-0.5927734v-2.9609375c0-0.3989258-0.0136719-0.6552734-0.0400391-0.7685547
			c-0.0195313-0.0864258-0.0537109-0.1499023-0.1025391-0.1899414c-0.0498047-0.0405273-0.109375-0.0610352-0.1796875-0.0610352
			c-0.0986328,0-0.2373047,0.0419922-0.4140625,0.1254883L187.1875,50.8828125z"/>
	</g>
	<g>
		<path class="st3" d="M182.6220703,52.3344727l-2.1923828-5.0727539c-0.2646484-0.6108398-0.4716797-0.9980469-0.6201172-1.1611328
			c-0.1064453-0.121582-0.2646484-0.203125-0.4736328-0.2451172v-0.2587891h3.4599609v0.2587891
			c-0.2177734,0-0.3662109,0.0395508-0.4453125,0.1191406c-0.1113281,0.1025391-0.1669922,0.2236328-0.1669922,0.3637695
			c0,0.1723633,0.1015625,0.496582,0.3056641,0.9726563l1.0722656,2.4555664l0.8564453-2.1201172
			c0.2460938-0.605957,0.3691406-1.0351563,0.3691406-1.2871094c0-0.1445313-0.0527344-0.262207-0.1572266-0.3535156
			c-0.1044922-0.0908203-0.2890625-0.1411133-0.5527344-0.1503906v-0.2587891h2.1298828v0.2587891
			c-0.2041016,0.027832-0.3710938,0.1049805-0.5009766,0.230957c-0.1308594,0.1259766-0.3251953,0.496582-0.5849609,1.1123047
			l-2.171875,5.1357422H182.6220703z"/>
	</g>
</g>
<g>
	<g>
		<path class="st3" d="M116.1401367,101.2602539l1.328125-0.6508789h0.1328125v4.6313477
			c0,0.3076172,0.0126953,0.4990234,0.0380859,0.5742188c0.0253906,0.0756836,0.0786133,0.1337891,0.1591797,0.1743164
			c0.0800781,0.0400391,0.2441406,0.0629883,0.4907227,0.0683594v0.1499023h-2.0522461v-0.1499023
			c0.2573242-0.0053711,0.4238281-0.0273438,0.4990234-0.0664063s0.1274414-0.0917969,0.1567383-0.1577148
			c0.0297852-0.0664063,0.0444336-0.2636719,0.0444336-0.5927734v-2.9609375c0-0.3989258-0.0136719-0.6552734-0.0405273-0.7685547
			c-0.0185547-0.0864258-0.0527344-0.1499023-0.1025391-0.1899414c-0.0493164-0.0405273-0.109375-0.0610352-0.1787109-0.0610352
			c-0.0996094,0-0.237793,0.0419922-0.4145508,0.1254883L116.1401367,101.2602539z"/>
	</g>
	<g>
		<path class="st3" d="M111.574707,102.7119141l-2.1928711-5.0727539c-0.2646484-0.6108398-0.4711914-0.9980469-0.6196289-1.1611328
			c-0.1064453-0.121582-0.2641602-0.203125-0.4731445-0.2451172v-0.2587891h3.4594727v0.2587891
			c-0.2182617,0-0.3666992,0.0395508-0.4453125,0.1191406c-0.1113281,0.1025391-0.1669922,0.2236328-0.1669922,0.3637695
			c0,0.1723633,0.1015625,0.496582,0.3061523,0.9726563l1.0717773,2.4555664l0.8564453-2.1201172
			c0.2456055-0.605957,0.3686523-1.0351563,0.3686523-1.2871094c0-0.1445313-0.0522461-0.262207-0.15625-0.3535156
			c-0.1044922-0.0908203-0.2890625-0.1411133-0.5537109-0.1503906v-0.2587891h2.1298828v0.2587891
			c-0.2041016,0.027832-0.3710938,0.1049805-0.5009766,0.230957s-0.324707,0.496582-0.5844727,1.1123047l-2.171875,5.1357422
			H111.574707z"/>
	</g>
</g>
<g>
	<g>
		<path class="st3" d="M87.9248047,134.6499023l-0.3847656,1.0556641h-3.2382813v-0.1499023
			c0.9526367-0.8681641,1.6230469-1.5771484,2.0117188-2.1274414s0.5830078-1.0532227,0.5830078-1.5087891
			c0-0.3476563-0.1064453-0.6337891-0.3198242-0.8574219c-0.2128906-0.2241211-0.4682617-0.3359375-0.7651367-0.3359375
			c-0.2700195,0-0.512207,0.0791016-0.7265625,0.2368164s-0.3730469,0.3886719-0.4755859,0.6933594h-0.1499023
			c0.0673828-0.4985352,0.2407227-0.8813477,0.5200195-1.1484375c0.2797852-0.2670898,0.628418-0.4003906,1.046875-0.4003906
			c0.4453125,0,0.8168945,0.1425781,1.1152344,0.4287109c0.2978516,0.2856445,0.4472656,0.6230469,0.4472656,1.0112305
			c0,0.277832-0.0649414,0.5556641-0.1943359,0.8330078c-0.199707,0.4370117-0.5234375,0.8994141-0.9716797,1.3876953
			c-0.671875,0.7333984-1.0917969,1.1757813-1.2587891,1.3266602h1.4331055c0.2915039,0,0.4956055-0.0107422,0.6132813-0.0322266
			c0.1171875-0.0214844,0.2231445-0.0654297,0.3178711-0.1313477c0.0942383-0.0664063,0.1762695-0.1601563,0.246582-0.28125
			H87.9248047z"/>
	</g>
	<g>
		<path class="st3" d="M79.6015625,132.2089844l-2.2055664-5.0727539c-0.2661133-0.6108398-0.4736328-0.9980469-0.6230469-1.1611328
			c-0.1074219-0.121582-0.2661133-0.203125-0.4765625-0.2451172v-0.2587891h3.4804688v0.2587891
			c-0.2197266,0-0.3691406,0.0395508-0.4482422,0.1191406c-0.1118164,0.1025391-0.1679688,0.2236328-0.1679688,0.3637695
			c0,0.1723633,0.1025391,0.496582,0.3081055,0.9726563l1.078125,2.4555664l0.8613281-2.1201172
			c0.2475586-0.605957,0.3710938-1.0351563,0.3710938-1.2871094c0-0.1445313-0.0522461-0.262207-0.1572266-0.3535156
			c-0.1049805-0.0908203-0.2905273-0.1411133-0.5566406-0.1503906v-0.2587891h2.1425781v0.2587891
			c-0.2055664,0.027832-0.3735352,0.1049805-0.5043945,0.230957c-0.1303711,0.1259766-0.3266602,0.496582-0.5878906,1.1123047
			l-2.1850586,5.1357422H79.6015625z"/>
	</g>
</g>
<g>
	<g>
		<path class="st3" d="M83.9731445,100.7080078h-8.3837891l4.3876953-9.684082L83.9731445,100.7080078z M82.3242188,100.1352539
			l-2.7875977-6.7514648l-3.0737305,6.7514648H82.3242188z"/>
	</g>
	<g>
		<path class="st3" d="M87.5537109,100.9033203l-2.2006836-5.0615234c-0.2651367-0.6098633-0.4726563-0.9960938-0.621582-1.1591797
			c-0.1074219-0.1210938-0.265625-0.2026367-0.4750977-0.2441406v-0.2583008h3.472168v0.2583008
			c-0.21875,0-0.3681641,0.0395508-0.4472656,0.1186523c-0.1118164,0.1020508-0.1674805,0.2231445-0.1674805,0.362793
			c0,0.1723633,0.1025391,0.4956055,0.3076172,0.9707031l1.0756836,2.4506836l0.859375-2.1157227
			c0.246582-0.6049805,0.3701172-1.0332031,0.3701172-1.284668c0-0.144043-0.0522461-0.2617188-0.1572266-0.3525391
			c-0.1044922-0.0908203-0.2895508-0.140625-0.5551758-0.1499023v-0.2583008h2.1376953v0.2583008
			c-0.2050781,0.027832-0.3725586,0.1044922-0.5029297,0.2299805c-0.1303711,0.1259766-0.3261719,0.4960938-0.5869141,1.1103516
			l-2.1796875,5.1245117H87.5537109z"/>
	</g>
</g>
<g>
	<line class="st10" x1="105.5697098" y1="191.9495087" x2="123.2468491" y2="191.9495087"/>
	<g>
		<path class="st3" d="M86.9580078,185.5947266v8.4726563c0,0.3994141,0.0288086,0.6650391,0.0874023,0.7949219
			c0.0581055,0.1298828,0.1479492,0.2285156,0.269043,0.2958984s0.347168,0.1015625,0.6782227,0.1015625v0.2509766h-3.1396484
			v-0.2509766c0.293457,0,0.4941406-0.0302734,0.6015625-0.0908203c0.1069336-0.0605469,0.190918-0.1601563,0.2514648-0.2998047
			s0.0908203-0.40625,0.0908203-0.8017578v-5.8017578c0-0.7207031-0.0161133-1.1630859-0.0488281-1.328125
			s-0.0849609-0.2783203-0.1572266-0.3388672c-0.0722656-0.0595703-0.1645508-0.0908203-0.2763672-0.0908203
			c-0.1210938,0-0.2749023,0.0380859-0.4614258,0.1123047l-0.1186523-0.2441406l1.9086914-0.78125H86.9580078z"/>
		<path class="st3" d="M90.7714844,188.9345703v5.1328125c0,0.3994141,0.0288086,0.6660156,0.0874023,0.7978516
			c0.0581055,0.1328125,0.1445313,0.2314453,0.2587891,0.296875s0.3227539,0.0976563,0.6254883,0.0976563v0.2509766h-3.1113281
			v-0.2509766c0.3120117,0,0.5219727-0.0302734,0.6293945-0.0908203c0.1069336-0.0605469,0.1918945-0.1601563,0.2548828-0.2998047
			s0.0947266-0.40625,0.0947266-0.8017578v-2.4619141c0-0.6923828-0.0209961-1.140625-0.0629883-1.3457031
			c-0.0327148-0.1484375-0.0839844-0.2519531-0.1538086-0.3105469c-0.0703125-0.0576172-0.1655273-0.0869141-0.2866211-0.0869141
			c-0.1308594,0-0.2895508,0.0351563-0.4755859,0.1044922l-0.0981445-0.2509766l1.9301758-0.78125H90.7714844z
			 M90.190918,185.5947266c0.1958008,0,0.3623047,0.0683594,0.5,0.2060547
			c0.1376953,0.1367188,0.206543,0.3027344,0.206543,0.4980469s-0.0688477,0.3632813-0.206543,0.5019531
			c-0.1376953,0.1396484-0.3041992,0.2099609-0.5,0.2099609s-0.3632813-0.0703125-0.503418-0.2099609
			c-0.1396484-0.1386719-0.2094727-0.3066406-0.2094727-0.5019531s0.0683594-0.3613281,0.2060547-0.4980469
			C89.8212891,185.6630859,89.9907227,185.5947266,90.190918,185.5947266z"/>
		<path class="st3" d="M94.4853516,190.2949219c0.4658203-0.4648438,0.7412109-0.7324219,0.8251953-0.8017578
			c0.2094727-0.1767578,0.4355469-0.3144531,0.6782227-0.4121094c0.2421875-0.0976563,0.4824219-0.1464844,0.7202148-0.1464844
			c0.4008789,0,0.7456055,0.1162109,1.034668,0.3486328c0.2890625,0.2333984,0.4824219,0.5703125,0.5805664,1.0117188
			c0.4799805-0.5576172,0.8857422-0.9238281,1.2167969-1.0986328c0.3305664-0.1738281,0.6708984-0.2617188,1.0205078-0.2617188
			c0.340332,0,0.6425781,0.0878906,0.9057617,0.2617188c0.2631836,0.1748047,0.472168,0.4589844,0.6259766,0.8544922
			c0.1025391,0.2695313,0.1538086,0.6923828,0.1538086,1.2695313v2.7470703c0,0.3994141,0.0302734,0.6738281,0.0908203,0.8222656
			c0.0463867,0.1025391,0.1328125,0.1904297,0.2587891,0.2617188c0.1259766,0.0722656,0.3310547,0.1083984,0.6152344,0.1083984
			v0.2509766h-3.1606445v-0.2509766h0.1328125c0.2749023,0,0.4897461-0.0537109,0.6435547-0.1601563
			c0.1069336-0.0742188,0.184082-0.1933594,0.2304688-0.3554688c0.0185547-0.0791016,0.0283203-0.3046875,0.0283203-0.6767578
			v-2.7470703c0-0.5214844-0.0629883-0.8886719-0.1889648-1.1025391c-0.1816406-0.296875-0.4731445-0.4462891-0.8740234-0.4462891
			c-0.2470703,0-0.4956055,0.0615234-0.7446289,0.1855469c-0.2495117,0.1230469-0.5512695,0.3515625-0.9057617,0.6865234
			l-0.0141602,0.0761719l0.0141602,0.2998047v3.0478516c0,0.4365234,0.0244141,0.7089844,0.0732422,0.8154297
			c0.0493164,0.1074219,0.1411133,0.1972656,0.2763672,0.2685547c0.1352539,0.0722656,0.3662109,0.1083984,0.6923828,0.1083984
			v0.2509766h-3.237793v-0.2509766c0.3544922,0,0.5981445-0.0419922,0.730957-0.1259766
			c0.1328125-0.0830078,0.2246094-0.2089844,0.2763672-0.3759766c0.0229492-0.0791016,0.034668-0.3095703,0.034668-0.6904297
			v-2.7470703c0-0.5214844-0.0766602-0.8955078-0.2304688-1.1230469c-0.2055664-0.2978516-0.4921875-0.4462891-0.8603516-0.4462891
			c-0.2514648,0-0.5009766,0.0673828-0.7480469,0.2021484c-0.387207,0.2041016-0.6855469,0.4345703-0.8950195,0.6904297v3.4238281
			c0,0.4179688,0.0288086,0.6904297,0.0874023,0.8154297c0.0581055,0.1259766,0.1445313,0.2197266,0.2587891,0.2832031
			c0.1137695,0.0625,0.3461914,0.09375,0.6958008,0.09375v0.2509766H92.359375v-0.2509766
			c0.2939453,0,0.4990234-0.03125,0.6152344-0.09375c0.1166992-0.0634766,0.2050781-0.1630859,0.2661133-0.3007813
			c0.0605469-0.1367188,0.0908203-0.4023438,0.0908203-0.7978516v-2.4404297c0-0.7021484-0.0209961-1.1552734-0.0629883-1.3603516
			c-0.0327148-0.1533203-0.0839844-0.2587891-0.1538086-0.3173828c-0.0698242-0.0576172-0.1655273-0.0869141-0.2866211-0.0869141
			c-0.1308594,0-0.2866211,0.0351563-0.46875,0.1044922l-0.1049805-0.2509766l1.9301758-0.78125h0.3007813V190.2949219z"/>
	</g>
	<g>
		<path class="st3" d="M120.2480469,198.6376953l-0.5449219,1.8964844h1.0976563l-0.1191406,0.4394531h-1.0908203
			l-1.2021484,4.1142578c-0.1308594,0.4414063-0.1962891,0.7275391-0.1962891,0.8574219
			c0,0.0791016,0.0185547,0.1396484,0.0556641,0.1816406c0.0380859,0.0419922,0.0820313,0.0625,0.1328125,0.0625
			c0.1171875,0,0.2705078-0.0810547,0.4619141-0.2441406c0.1123047-0.0927734,0.3613281-0.3789063,0.7480469-0.8574219
			l0.2314453,0.1738281c-0.4296875,0.6230469-0.8349609,1.0625-1.2167969,1.3183594
			c-0.2617188,0.1767578-0.5244141,0.2646484-0.7900391,0.2646484c-0.2060547,0-0.3730469-0.0634766-0.5039063-0.1914063
			s-0.1962891-0.2919922-0.1962891-0.4912109c0-0.2509766,0.0751953-0.6347656,0.2246094-1.1513672l1.1669922-4.0371094h-1.0556641
			l0.0703125-0.2714844c0.5126953-0.1396484,0.9394531-0.3476563,1.2792969-0.625
			c0.3408203-0.2763672,0.7207031-0.7558594,1.1396484-1.4394531H120.2480469z"/>
	</g>
	<g>
		<path class="st3" d="M115.0332031,186.5234375h-8.3916016l4.3916016-9.671875L115.0332031,186.5234375z M113.3828125,185.9511719
			l-2.7900391-6.7421875l-3.0771484,6.7421875H113.3828125z"/>
	</g>
	<g>
		<path class="st3" d="M73.6015625,190.2177734h7.3422852v0.6767578h-7.3422852V190.2177734z M73.6015625,192.8193359h7.3422852
			v0.6904297h-7.3422852V192.8193359z"/>
	</g>
	<g>
		<path class="st3" d="M116.3769531,206.6777344h-8.3916016l4.3916016-9.671875L116.3769531,206.6777344z M114.7265625,206.1054688
			l-2.7900391-6.7421875l-3.0771484,6.7421875H114.7265625z"/>
	</g>
	<g>
		<path class="st3" d="M118.6279297,186.71875l-2.203125-5.0556641c-0.265625-0.609375-0.4726563-0.9951172-0.6220703-1.1572266
			c-0.1074219-0.1210938-0.265625-0.2021484-0.4755859-0.2441406v-0.2578125h3.4755859v0.2578125
			c-0.2197266,0-0.3681641,0.0390625-0.4482422,0.1181641c-0.1113281,0.1025391-0.1669922,0.2236328-0.1669922,0.3623047
			c0,0.1728516,0.1025391,0.4951172,0.3076172,0.9697266l1.0761719,2.4472656l0.8603516-2.1123047
			c0.2470703-0.6044922,0.3710938-1.0322266,0.3710938-1.2832031c0-0.1445313-0.0527344-0.2617188-0.1572266-0.3525391
			c-0.1054688-0.0908203-0.2910156-0.140625-0.5566406-0.1494141v-0.2578125h2.1396484v0.2578125
			c-0.2050781,0.0273438-0.3730469,0.1044922-0.5029297,0.2294922c-0.1308594,0.1259766-0.3261719,0.4951172-0.5878906,1.109375
			l-2.1816406,5.1181641H118.6279297z"/>
	</g>
	<g>
		<path class="st3" d="M66.9169922,194.5488281c-0.7973633,0.7011719-1.5131836,1.0527344-2.1469727,1.0527344
			c-0.3730469,0-0.6831055-0.1220703-0.9296875-0.3662109c-0.2475586-0.2441406-0.3706055-0.5498047-0.3706055-0.9169922
			c0-0.4970703,0.2143555-0.9453125,0.6430664-1.3427734s1.3637695-0.9257813,2.8041992-1.5859375v-0.6552734
			c0-0.4931641-0.0268555-0.8037109-0.0805664-0.9316406c-0.0537109-0.1269531-0.1552734-0.2392578-0.3041992-0.3339844
			c-0.1494141-0.0957031-0.3168945-0.1435547-0.503418-0.1435547c-0.3032227,0-0.5522461,0.0673828-0.7480469,0.2021484
			c-0.121582,0.0839844-0.1821289,0.1816406-0.1821289,0.2929688c0,0.0976563,0.0654297,0.21875,0.1958008,0.3632813
			c0.1772461,0.1992188,0.265625,0.3925781,0.265625,0.578125c0,0.2285156-0.0849609,0.421875-0.2548828,0.5820313
			c-0.1704102,0.1611328-0.3930664,0.2412109-0.6679688,0.2412109c-0.293457,0-0.5395508-0.0888672-0.737793-0.2646484
			c-0.1982422-0.1767578-0.296875-0.3837891-0.296875-0.6210938c0-0.3349609,0.1328125-0.6542969,0.3984375-0.9589844
			s0.6362305-0.5380859,1.1118164-0.7001953c0.4755859-0.1630859,0.9697266-0.2441406,1.4824219-0.2441406
			c0.6201172,0,1.1103516,0.1308594,1.4716797,0.3935547s0.5957031,0.5478516,0.703125,0.8544922
			c0.0649414,0.1953125,0.0976563,0.6435547,0.0976563,1.3457031v2.53125c0,0.2978516,0.0117188,0.484375,0.0351563,0.5615234
			c0.0229492,0.0761719,0.0581055,0.1337891,0.1049805,0.1708984c0.0463867,0.0371094,0.1000977,0.0556641,0.1606445,0.0556641
			c0.1210938,0,0.2446289-0.0859375,0.3706055-0.2578125l0.2099609,0.1669922c-0.2333984,0.34375-0.4746094,0.59375-0.7241211,0.75
			c-0.2495117,0.1552734-0.5327148,0.2333984-0.8496094,0.2333984c-0.3730469,0-0.6640625-0.0869141-0.8740234-0.2617188
			C67.0917969,195.1660156,66.9633789,194.9013672,66.9169922,194.5488281z M66.9169922,194.0390625v-2.1826172
			c-0.5644531,0.3300781-0.9838867,0.6835938-1.2587891,1.0605469c-0.1816406,0.2509766-0.2729492,0.5039063-0.2729492,0.7597656
			c0,0.2138672,0.0771484,0.4023438,0.230957,0.5644531c0.1166992,0.1259766,0.2797852,0.1884766,0.4892578,0.1884766
			C66.3388672,194.4296875,66.609375,194.2998047,66.9169922,194.0390625z"/>
	</g>
</g>
<g>
	<g>
		<path class="st3" d="M152.8789063,42.9394531l-0.3847656,1.0556641h-3.2382813v-0.1499023
			c0.953125-0.8681641,1.6230469-1.5771484,2.0117188-2.1274414s0.5830078-1.0532227,0.5830078-1.5087891
			c0-0.3476563-0.1064453-0.6337891-0.3193359-0.8574219c-0.2128906-0.2241211-0.46875-0.3359375-0.765625-0.3359375
			c-0.2695313,0-0.5117188,0.0791016-0.7265625,0.2368164c-0.2138672,0.1577148-0.3730469,0.3886719-0.4755859,0.6933594h-0.1494141
			c0.0673828-0.4985352,0.2402344-0.8813477,0.5195313-1.1484375c0.2802734-0.2670898,0.6289063-0.4003906,1.046875-0.4003906
			c0.4453125,0,0.8173828,0.1425781,1.1152344,0.4287109c0.2978516,0.2856445,0.4472656,0.6230469,0.4472656,1.0112305
			c0,0.277832-0.0644531,0.5556641-0.1943359,0.8330078c-0.1992188,0.4370117-0.5234375,0.8994141-0.9716797,1.3876953
			c-0.671875,0.7333984-1.0917969,1.1757813-1.2587891,1.3266602h1.4335938c0.2910156,0,0.4951172-0.0107422,0.6132813-0.0322266
			c0.1171875-0.0214844,0.2226563-0.0654297,0.3173828-0.1313477c0.0947266-0.0664063,0.1767578-0.1601563,0.2470703-0.28125
			H152.8789063z"/>
	</g>
	<g>
		<path class="st3" d="M144.5556641,40.4985352l-2.2050781-5.0727539c-0.2666016-0.6108398-0.4736328-0.9980469-0.6230469-1.1611328
			c-0.1074219-0.121582-0.2666016-0.203125-0.4765625-0.2451172v-0.2587891h3.4804688v0.2587891
			c-0.2197266,0-0.3691406,0.0395508-0.4482422,0.1191406c-0.1123047,0.1025391-0.1679688,0.2236328-0.1679688,0.3637695
			c0,0.1723633,0.1025391,0.496582,0.3076172,0.9726563l1.078125,2.4555664l0.8613281-2.1201172
			c0.2480469-0.605957,0.3710938-1.0351563,0.3710938-1.2871094c0-0.1445313-0.0517578-0.262207-0.1572266-0.3535156
			c-0.1044922-0.0908203-0.2900391-0.1411133-0.5566406-0.1503906v-0.2587891h2.1425781v0.2587891
			c-0.2050781,0.027832-0.3730469,0.1049805-0.5039063,0.230957s-0.3271484,0.496582-0.5878906,1.1123047l-2.1855469,5.1357422
			H144.5556641z"/>
	</g>
</g>
<g>
</g>
<g>
</g>
<g>
</g>
<g>
</g>
<g>
</g>
<g>
</g>
</svg>
