<?xml version="1.0" encoding="utf-8"?>
<!-- Generator: Adobe Illustrator 19.0.0, SVG Export Plug-In . SVG Version: 6.00 Build 0)  -->
<svg version="1.1" id="Layer_1" xmlns="http://www.w3.org/2000/svg" xmlns:xlink="http://www.w3.org/1999/xlink" x="0px" y="0px"
	 viewBox="0 0 178.6666718 180.6666718" style="enable-background:new 0 0 178.6666718 180.6666718;" xml:space="preserve">
<style type="text/css">
	.st0{fill:none;stroke:#000000;stroke-miterlimit:10;}
	.st1{fill:#6D6E71;stroke:#808285;stroke-miterlimit:10;}
	.st2{fill:#808285;}
	.st3{fill:none;stroke:#F7941E;stroke-miterlimit:10;}
	.st4{fill:#F7941E;}
	.st5{fill:none;stroke:#ED1C24;stroke-miterlimit:10;}
	.st6{fill:#ED1C24;}
	.st7{fill:none;stroke:#808285;stroke-miterlimit:10;}
	.st8{fill:#010101;}
</style>
<circle class="st0" cx="82.3159485" cy="95.3630142" r="69.688858"/>
<line class="st1" x1="82.316185" y1="176" x2="82.316185" y2="11.8834219"/>
<polygon class="st2" points="79.0767212,11.71628 82.2536163,3.2270439 85.4305191,11.71628 "/>
<g>
	<line class="st1" x1="3.3333333" y1="95.3630142" x2="167.1562195" y2="95.3630142"/>
	<polygon class="st2" points="167.1542053,92.1861115 174.6666718,95.3626099 167.1542053,98.5403137 	"/>
</g>
<line class="st3" x1="82.316185" y1="95.3626099" x2="138.2471008" y2="71.6206436"/>
<line class="st3" x1="146.0877686" y1="68.1327515" x2="129.1351624" y2="28.1965027"/>
<polygon class="st4" points="126.2114182,29.4395943 125.6465607,19.9800282 132.0597229,26.9569302 "/>
<line class="st5" x1="82.3169022" y1="95.3626099" x2="82.316185" y2="76.3371506"/>
<line class="st5" x1="82.7419891" y1="95.3646164" x2="137.5353394" y2="95.3630142"/>
<line class="st1" x1="145.5330811" y1="68.1327515" x2="82.3145828" y2="68.1327515"/>
<line class="st1" x1="146.0877686" y1="95.3622971" x2="146.0877686" y2="68.4148636"/>
<polygon class="st4" points="137.0048065,68.6976929 146.4635773,68.1327515 139.4870758,74.5459976 "/>
<polygon class="st6" points="79.140007,76.3387451 82.3145828,67.4108353 85.4922867,76.3387451 "/>
<polygon class="st6" points="137.5360565,92.1869125 146.4635773,95.3622971 137.5360565,98.5403137 "/>
<path class="st7" d="M100.7814331,87.5247421c2.6908417,1.0785904,3.5995865,4.6621704,2.6908417,7.8398743"/>
<g>
	<g>
		<path class="st8" d="M169.1692657,103.8128281c0.1855469,0.2099609,0.3251953,0.4199219,0.4199219,0.6293945
			c0.0683594,0.1455078,0.1796875,0.5268555,0.3349609,1.1445313l0.4990234-0.7993164
			c0.1328125-0.1938477,0.2939453-0.378418,0.4833984-0.5541992c0.1884766-0.175293,0.3554688-0.2954102,0.4990234-0.3598633
			c0.0908203-0.0405273,0.1914063-0.0605469,0.3007813-0.0605469c0.1630859,0,0.2929688,0.0463867,0.3886719,0.1391602
			c0.0966797,0.0927734,0.1455078,0.2055664,0.1455078,0.3388672c0,0.1538086-0.0283203,0.2583008-0.0859375,0.3149414
			c-0.1054688,0.1010742-0.2265625,0.1513672-0.3632813,0.1513672c-0.0791016,0-0.1640625-0.0180664-0.2548828-0.0541992
			c-0.1777344-0.0649414-0.296875-0.097168-0.3574219-0.097168c-0.0908203,0-0.1992188,0.0566406-0.3242188,0.1694336
			c-0.234375,0.2099609-0.5146484,0.6157227-0.8398438,1.2172852l0.4658203,2.0834961
			c0.0712891,0.3183594,0.1318359,0.5097656,0.1816406,0.5722656c0.0488281,0.0625,0.0976563,0.09375,0.1474609,0.09375
			c0.0791016,0,0.171875-0.046875,0.2783203-0.1396484c0.2080078-0.1855469,0.3857422-0.4277344,0.5332031-0.7265625
			l0.1982422,0.109375c-0.2382813,0.4755859-0.5410156,0.8720703-0.9082031,1.1865234
			c-0.2080078,0.1777344-0.3837891,0.2666016-0.5273438,0.2666016c-0.2119141,0-0.3808594-0.1269531-0.5058594-0.3818359
			c-0.0791016-0.1572266-0.2431641-0.8359375-0.4931641-2.0351563c-0.5908203,1.0947266-1.0634766,1.7988281-1.4189453,2.1142578
			c-0.2314453,0.2011719-0.4550781,0.3027344-0.6699219,0.3027344c-0.1513672,0-0.2900391-0.0585938-0.4150391-0.1757813
			c-0.0908203-0.0888672-0.1357422-0.2080078-0.1357422-0.3574219c0-0.1328125,0.0410156-0.2441406,0.125-0.3330078
			c0.0830078-0.0888672,0.1855469-0.1328125,0.3066406-0.1328125c0.1201172,0,0.2490234,0.0644531,0.3857422,0.1933594
			c0.0986328,0.0927734,0.1738281,0.1396484,0.2265625,0.1396484c0.0458984,0,0.1044922-0.0322266,0.1767578-0.0966797
			c0.1777344-0.1542969,0.4199219-0.4853516,0.7265625-0.9931641c0.3066406-0.5087891,0.5068359-0.8759766,0.6015625-1.1025391
			c-0.234375-0.980957-0.3613281-1.4995117-0.3808594-1.5561523c-0.0869141-0.262207-0.2001953-0.4482422-0.3398438-0.5571289
			c-0.140625-0.1088867-0.3466797-0.1635742-0.6191406-0.1635742c-0.0869141,0-0.1875,0.0039063-0.3007813,0.012207v-0.2182617
			L169.1692657,103.8128281z"/>
	</g>
</g>
<g>
	<g>
		<path class="st8" d="M94.8929062,6.4173179c0.128418,0.2260742,0.2172852,0.4379883,0.2666016,0.6352539
			s0.0986328,0.5844727,0.1479492,1.1621089l0.2495117,2.8808594c0.2275391-0.2802734,0.5566406-0.7255859,0.9882813-1.3349609
			c0.2080078-0.2963867,0.4648438-0.7006836,0.7714844-1.2119141c0.1855469-0.3125,0.2988281-0.5307617,0.3408203-0.6557612
			c0.0224609-0.0625,0.0341797-0.1269531,0.0341797-0.1933594c0-0.0429688-0.0136719-0.078125-0.0400391-0.1054688
			S97.5559921,7.5345054,97.444664,7.497396s-0.2041016-0.1054688-0.2783203-0.2050781
			c-0.0732422-0.0991211-0.1103516-0.2133789-0.1103516-0.3422852c0-0.1601563,0.0449219-0.2890625,0.1357422-0.3867188
			c0.0908203-0.097168,0.2050781-0.1459961,0.3408203-0.1459961c0.1669922,0,0.3085938,0.0712891,0.4257813,0.2133789
			c0.1171875,0.1425781,0.1757813,0.3388672,0.1757813,0.5888672c0,0.3081055-0.1015625,0.6606445-0.3066406,1.0566401
			c-0.2041016,0.3964844-0.5976563,1.0043945-1.1806641,1.8242188c-0.5830078,0.8193359-1.2885742,1.7138672-2.1171875,2.6816406
			c-0.5717773,0.6679688-0.9956055,1.0888672-1.2719727,1.2626953c-0.2758789,0.1728516-0.5126953,0.2597656-0.7094727,0.2597656
			c-0.1171875,0-0.2202148-0.0458984-0.3095703-0.1376953c-0.0888672-0.0908203-0.1333008-0.1972656-0.1333008-0.3183594
			c0-0.1523438,0.0615234-0.2910156,0.1845703-0.4160156s0.2563477-0.1875,0.4003906-0.1875
			c0.0756836,0,0.1381836,0.0175781,0.1870117,0.0527344c0.0307617,0.0195313,0.0634766,0.0751953,0.0996094,0.1669922
			s0.0688477,0.1533203,0.0991211,0.1845703c0.019043,0.0195313,0.0419922,0.0292969,0.0683594,0.0292969
			c0.0224609,0,0.0625-0.0195313,0.1191406-0.0585938c0.2080078-0.1328125,0.4501953-0.34375,0.7265625-0.6328125
			c0.3632813-0.3828125,0.6323242-0.6943359,0.8061523-0.9365234l-0.3178711-3.7128906
			c-0.0532227-0.6127925-0.1323242-0.9858394-0.2382813-1.1181636c-0.105957-0.1328125-0.2841797-0.1992188-0.5336914-0.1992188
			c-0.0795898,0-0.2216797,0.0117188-0.4257813,0.0351563L93.229332,6.8387046L94.8929062,6.4173179z"/>
	</g>
</g>
<g>
	<g>
		<path class="st4" d="M139.8714142,24.8738613l-1.8388672-4.2568359c-0.2216797-0.5126953-0.3955078-0.8374023-0.5195313-0.9746094
			c-0.0898438-0.1015625-0.2226563-0.1699219-0.3974609-0.2055664v-0.2172852h2.9023438v0.2172852
			c-0.1835938,0-0.3076172,0.0336914-0.3740234,0.1000977c-0.0927734,0.0859375-0.1396484,0.1879883-0.1396484,0.3051758
			c0,0.1450195,0.0849609,0.4169922,0.2568359,0.8164063l0.8994141,2.0610352l0.7177734-1.7792969
			c0.2060547-0.5087891,0.3095703-0.8691406,0.3095703-1.0805664c0-0.1210938-0.0439453-0.2202148-0.1308594-0.2963867
			c-0.0878906-0.0761719-0.2431641-0.1181641-0.4648438-0.1264648v-0.2172852h1.7871094v0.2172852
			c-0.1708984,0.0234375-0.3115234,0.0883789-0.4208984,0.1938477c-0.1083984,0.105957-0.2724609,0.4169922-0.4902344,0.9335938
			l-1.8222656,4.3095703H139.8714142z"/>
	</g>
</g>
<g>
	<g>
		<path class="st8" d="M70.604332,79.1931992h1.0761719l1.1103516,1.9228516h-0.1806641l-1.5966797-1.2373047l-1.3388672,1.2373047
			h-0.1757813L70.604332,79.1931992z"/>
	</g>
	<g>
		<path class="st8" d="M47.5388985,82.323082v1.8125h-0.1933594c-0.1479492-0.5693359-0.3378906-0.956543-0.5698242-1.1616211
			c-0.2319336-0.2055664-0.5273438-0.3081055-0.8857422-0.3081055c-0.2729492,0-0.4931641,0.0717773-0.6611328,0.2148438
			c-0.1674805,0.1435547-0.2509766,0.3022461-0.2509766,0.4765625c0,0.2167969,0.0620117,0.402832,0.1870117,0.5576172
			c0.1206055,0.1586914,0.3662109,0.3271484,0.7368164,0.5053711l0.8535156,0.4125977
			c0.7910156,0.3833008,1.1870117,0.8881836,1.1870117,1.5161133c0,0.484375-0.184082,0.8740234-0.5527344,1.1708984
			c-0.3681641,0.2958984-0.7802734,0.4443359-1.2368164,0.4443359c-0.3271484,0-0.7011719-0.0585938-1.1225586-0.1748047
			c-0.128418-0.0380859-0.2338867-0.0576172-0.3154297-0.0576172c-0.0898438,0-0.1601563,0.0498047-0.2104492,0.1503906h-0.1933594
			v-1.8994141h0.1933594c0.1088867,0.5419922,0.3173828,0.9511719,0.6254883,1.2255859
			c0.3076172,0.2753906,0.652832,0.4130859,1.034668,0.4130859c0.269043,0,0.4882813-0.0791016,0.6582031-0.2353516
			c0.1694336-0.1572266,0.2543945-0.3457031,0.2543945-0.5664063c0-0.2675781-0.0947266-0.4921875-0.2836914-0.6738281
			c-0.1894531-0.1826172-0.5664063-0.4130859-1.1313477-0.6914063c-0.5654297-0.2783203-0.9355469-0.5302734-1.1113281-0.7553711
			c-0.175293-0.2207031-0.2631836-0.4995117-0.2631836-0.8364258c0-0.4375,0.1513672-0.8037109,0.4536133-1.0981445
			c0.3017578-0.2939453,0.6928711-0.4414063,1.1723633-0.4414063c0.2104492,0,0.465332,0.0449219,0.765625,0.1337891
			c0.1987305,0.0581055,0.331543,0.0869141,0.3979492,0.0869141c0.0620117,0,0.1108398-0.0131836,0.1459961-0.0405273
			c0.0351563-0.0268555,0.0761719-0.0869141,0.1225586-0.1801758H47.5388985z"/>
		<path class="st8" d="M50.5970039,82.323082v4.2758789c0,0.3330078,0.0244141,0.5546875,0.0732422,0.6650391
			s0.1210938,0.1923828,0.2163086,0.2470703c0.0957031,0.0537109,0.2700195,0.0810547,0.5234375,0.0810547v0.2089844h-2.6020508
			v-0.2089844c0.2612305,0,0.4365234-0.0253906,0.5263672-0.0751953c0.0893555-0.0507813,0.1606445-0.1337891,0.2133789-0.25
			s0.0791016-0.3388672,0.0791016-0.6679688v-2.0507813c0-0.5771484-0.0175781-0.9506836-0.0527344-1.1210938
			c-0.0273438-0.1240234-0.0703125-0.2099609-0.1289063-0.2587891c-0.0581055-0.0483398-0.1381836-0.0722656-0.2397461-0.0722656
			c-0.1088867,0-0.2416992,0.0288086-0.3974609,0.0869141l-0.0820313-0.2089844l1.6142578-0.6508789H50.5970039z
			 M50.1121407,79.5408554c0.1635742,0,0.3027344,0.0571289,0.4179688,0.1713867
			c0.1147461,0.1142578,0.1723633,0.2524414,0.1723633,0.4150391s-0.0576172,0.3022461-0.1723633,0.418457
			c-0.1152344,0.1162109-0.2543945,0.1743164-0.4179688,0.1743164c-0.1640625,0-0.3041992-0.0581055-0.4213867-0.1743164
			c-0.1166992-0.1162109-0.175293-0.2558594-0.175293-0.418457s0.0576172-0.3007813,0.1723633-0.4150391
			C49.8030586,79.5979843,49.9441719,79.5408554,50.1121407,79.5408554z"/>
		<path class="st8" d="M53.6736641,83.4500351c0.6274414-0.7509766,1.2255859-1.1269531,1.7949219-1.1269531
			c0.2919922,0,0.5439453,0.0727539,0.7539063,0.2177734c0.2109375,0.1455078,0.3789063,0.3847656,0.5029297,0.7177734
			c0.0859375,0.2324219,0.1289063,0.5883789,0.1289063,1.0688477v2.2714844c0,0.3369141,0.0273438,0.5654297,0.0820313,0.6855469
			c0.0429688,0.0966797,0.1123047,0.171875,0.2070313,0.2265625c0.0957031,0.0537109,0.2724609,0.0810547,0.5292969,0.0810547
			v0.2089844H55.02425v-0.2089844h0.1113281c0.2490234,0,0.4238281-0.0380859,0.5234375-0.1132813
			c0.0986328-0.0751953,0.1679688-0.1865234,0.2070313-0.3339844c0.015625-0.0585938,0.0234375-0.2402344,0.0234375-0.5458984
			v-2.1787109c0-0.4838867-0.0634766-0.8354492-0.1894531-1.0541992c-0.1269531-0.21875-0.3408203-0.328125-0.640625-0.328125
			c-0.4638672,0-0.9257813,0.2514648-1.3857422,0.7548828v2.8061523c0,0.359375,0.0209961,0.5830078,0.0639648,0.6679688
			c0.0546875,0.1123047,0.1298828,0.1943359,0.2250977,0.2470703c0.0957031,0.0517578,0.2895508,0.078125,0.5820313,0.078125
			v0.2089844h-2.6489258v-0.2089844h0.1171875c0.2729492,0,0.4570313-0.0693359,0.5522461-0.2060547
			c0.0957031-0.1376953,0.1435547-0.4003906,0.1435547-0.7871094v-1.9755859c0-0.6386719-0.0146484-1.027832-0.0439453-1.1674805
			c-0.0292969-0.1391602-0.0742188-0.234375-0.1342773-0.284668c-0.0605469-0.050293-0.1416016-0.0751953-0.2426758-0.0751953
			c-0.109375,0-0.2397461,0.0288086-0.3920898,0.0869141l-0.0874023-0.2089844l1.6137695-0.6508789h0.2514648V83.4500351z"/>
	</g>
	<g>
		<path class="st8" d="M39.8821602,87.8011093l-1.269043-3.828125c-0.2963867,0.0039063-0.6000977-0.0253906-0.9121094-0.0869141
			l-0.684082,2.3818359c-0.0898438,0.3095703-0.1342773,0.5712891-0.1342773,0.7841797
			c0,0.1621094,0.0561523,0.2900391,0.1694336,0.3828125c0.0854492,0.0703125,0.3193359,0.1201172,0.7016602,0.1513672
			l-0.0527344,0.2148438h-3.0698242l0.0644531-0.2148438c0.2885742-0.0117188,0.4833984-0.0410156,0.5844727-0.0869141
			c0.1601563-0.0664063,0.2768555-0.1552734,0.3510742-0.2675781c0.1245117-0.1816406,0.2553711-0.5029297,0.3916016-0.9638672
			l1.3857422-4.7578125c0.09375-0.3178711,0.140625-0.5634766,0.140625-0.737793
			c0-0.1782227-0.0732422-0.3291016-0.2192383-0.453125c-0.1464844-0.1240234-0.355957-0.184082-0.6289063-0.1801758
			l0.0703125-0.2148438h2.5844727c0.8652344,0,1.4887695,0.1625977,1.8710938,0.487793
			c0.3818359,0.3251953,0.5727539,0.753418,0.5727539,1.2836914c0,0.5073242-0.1958008,0.9711914-0.5874023,1.3916016
			c-0.3916016,0.4199219-0.9287109,0.6865234-1.6108398,0.7988281l0.7719727,2.3056641
			c0.1870117,0.5654297,0.3740234,0.9335938,0.5610352,1.1035156c0.1870117,0.1708984,0.4892578,0.2675781,0.90625,0.2910156
			l-0.0639648,0.2148438H39.8821602z M37.8006172,83.5545273c0.2490234,0.0351563,0.4711914,0.0522461,0.6665039,0.0522461
			c0.6704102,0,1.2006836-0.1845703,1.590332-0.5546875c0.3896484-0.3696289,0.5844727-0.8295898,0.5844727-1.3793945
			c0-0.4301758-0.121582-0.7592773-0.3652344-0.987793s-0.6088867-0.3427734-1.0961914-0.3427734
			c-0.125,0-0.2729492,0.015625-0.4443359,0.046875L37.8006172,83.5545273z"/>
	</g>
	<g>
		<path class="st8" d="M60.4871407,84.0056992c0.5117188-1.5258789,1.2177734-2.7006836,2.1181641-3.5258789
			c0.6796875-0.6191406,1.3496094-0.9291992,2.0078163-0.9291992c0.6386719,0,1.0849609,0.2978516,1.3369141,0.894043
			c0.3515625,0.8334961,0.2880859,1.9658203-0.1923828,3.3989258c-0.4570313,1.362793-1.1289063,2.4399414-2.0136757,3.2290039
			c-0.6884766,0.6123047-1.3613281,0.9189453-2.015625,0.9189453c-0.3554688,0-0.6494141-0.0859375-0.8847656-0.2568359
			c-0.2353516-0.1699219-0.4121094-0.4150391-0.5302734-0.7363281c-0.1181641-0.3222656-0.1767578-0.6630859-0.1767578-1.0234375
			C60.1375313,85.3557968,60.2547188,84.6990585,60.4871407,84.0056992z M61.6131172,83.9768906
			c-0.2158203,0.6899414-0.3710938,1.3095703-0.4658203,1.859375c-0.0732422,0.4169922-0.0810547,0.7822266-0.0214844,1.0908203
			c0.0351563,0.1865234,0.125,0.3447266,0.2685547,0.4746094s0.3222656,0.1943359,0.5371094,0.1943359
			c0.25,0,0.5253906-0.1162109,0.8271484-0.3486328s0.5966797-0.6054688,0.8857422-1.1220703
			c0.2871094-0.5146484,0.5957069-1.2304688,0.9277382-2.1484375H61.6131172z M64.7127304,83.5935898
			c0.3349609-1.0112305,0.5097656-1.8222656,0.5244141-2.434082c0.0087891-0.4682617-0.0761719-0.8037109-0.2539063-1.0053711
			c-0.1298828-0.1464844-0.3115234-0.2202148-0.5458984-0.2202148c-0.2646484,0-0.5429726,0.1025391-0.8339882,0.3081055
			c-0.2910156,0.2045898-0.5742188,0.5473633-0.8505859,1.027832s-0.6132813,1.2543945-1.0107422,2.3237305H64.7127304z"/>
	</g>
	<g>
		<path class="st8" d="M70.9353867,88.0218124l-1.765625-4.0253906c-0.265625-0.6083984-0.4619141-0.9819336-0.5878906-1.121582
			c-0.1269531-0.1391602-0.2802734-0.2358398-0.4589844-0.2900391v-0.215332h2.90625v0.215332
			c-0.1914063,0.0078125-0.3261719,0.0444336-0.4042969,0.1103516c-0.0771484,0.065918-0.1162109,0.1450195-0.1162109,0.237793
			c0,0.1474609,0.0966797,0.4379883,0.2919922,0.871582l0.9355469,2.1264648l0.6376953-1.6445313
			c0.2294922-0.5844727,0.3447266-0.9912109,0.3447266-1.2197266c0-0.1430664-0.0478516-0.2573242-0.1435547-0.3427734
			c-0.0957031-0.0849609-0.2636719-0.1313477-0.5058594-0.1391602v-0.215332h1.8300781v0.215332
			c-0.1787109,0.019043-0.3251953,0.0878906-0.4384766,0.2060547c-0.1123047,0.1181641-0.3017578,0.5200195-0.5664063,1.2055664
			l-1.5615234,4.0253906c-0.3935547,1.0068359-0.6865234,1.6269531-0.8769531,1.859375
			c-0.2695313,0.3251953-0.6064453,0.4873047-1.0117188,0.4873047c-0.3232422,0-0.5859375-0.0917969-0.7861328-0.2753906
			c-0.2011719-0.1845703-0.3017578-0.40625-0.3017578-0.6650391c0-0.2246094,0.0693359-0.4111328,0.2080078-0.5576172
			c0.1376953-0.1474609,0.3085938-0.2216797,0.5117188-0.2216797c0.1943359,0,0.3515625,0.0625,0.4707031,0.1865234
			c0.1181641,0.1240234,0.1796875,0.3154297,0.1835938,0.5751953c0.0039063,0.1464844,0.0214844,0.2421875,0.0527344,0.2841797
			c0.03125,0.0429688,0.0761719,0.0644531,0.1347656,0.0644531c0.09375,0,0.1933594-0.0566406,0.2978516-0.1689453
			c0.15625-0.1621094,0.3398438-0.5341797,0.5498047-1.1152344L70.9353867,88.0218124z"/>
	</g>
</g>
<g>
	<g>
		<path class="st8" d="M128.7014923,100.6848984h1.0810547l1.1162109,1.9228516h-0.1826172l-1.6035156-1.2373047
			l-1.3447189,1.2373047h-0.1757813L128.7014923,100.6848984z"/>
	</g>
	<g>
		<path class="st8" d="M105.7171249,103.8147812v1.8125h-0.1933594c-0.1484375-0.5693359-0.3398438-0.956543-0.5722656-1.1616211
			c-0.2333984-0.2055664-0.5302734-0.3081055-0.890625-0.3081055c-0.2734375,0-0.4951172,0.0717773-0.6630859,0.2148438
			c-0.1689453,0.1435547-0.2529297,0.3022461-0.2529297,0.4765625c0,0.2167969,0.0625,0.402832,0.1884766,0.5576172
			c0.1210938,0.1586914,0.3681641,0.3271484,0.7392578,0.5053711l0.8583984,0.4125977
			c0.7939453,0.3833008,1.1914063,0.8881836,1.1914063,1.5161133c0,0.484375-0.1845703,0.8740234-0.5546875,1.1708984
			c-0.3701172,0.2958984-0.7841797,0.4443359-1.2421875,0.4443359c-0.3291016,0-0.7050781-0.0585938-1.1279297-0.1748047
			c-0.1289063-0.0380859-0.234375-0.0576172-0.3164063-0.0576172c-0.0908203,0-0.1611328,0.0498047-0.2119141,0.1503906h-0.1933594
			v-1.8994141h0.1933594c0.109375,0.5419922,0.3193359,0.9511719,0.6289063,1.2255859
			c0.3085938,0.2753906,0.6552734,0.4130859,1.0390625,0.4130859c0.2705078,0,0.4902344-0.0791016,0.6611328-0.2353516
			c0.1699219-0.1572266,0.2548828-0.3457031,0.2548828-0.5664063c0-0.2675781-0.0947266-0.4921875-0.2841797-0.6738281
			c-0.1904297-0.1826172-0.5693359-0.4130859-1.1367188-0.6914063s-0.9394531-0.5302734-1.1162109-0.7553711
			c-0.1757813-0.2207031-0.2636719-0.4995117-0.2636719-0.8364258c0-0.4375,0.1513672-0.8037109,0.4550781-1.0981445
			c0.3027344-0.2939453,0.6953125-0.4414063,1.1777344-0.4414063c0.2109375,0,0.4677734,0.0449219,0.7685547,0.1337891
			c0.2001953,0.0581055,0.3330078,0.0869141,0.3994141,0.0869141c0.0625,0,0.1123047-0.0131836,0.1474609-0.0405273
			c0.0351563-0.0268555,0.0761719-0.0869141,0.1230469-0.1801758H105.7171249z"/>
		<path class="st8" d="M108.7893906,103.8147812v4.2758789c0,0.3330078,0.0244141,0.5546875,0.0732422,0.6650391
			s0.1210938,0.1923828,0.2177734,0.2470703c0.0957031,0.0537109,0.2705078,0.0810547,0.5253906,0.0810547v0.2089844h-2.6132813
			v-0.2089844c0.2617188,0,0.4384766-0.0253906,0.5283203-0.0751953c0.0898438-0.0507813,0.1611328-0.1337891,0.2148438-0.25
			c0.0527344-0.1162109,0.0791016-0.3388672,0.0791016-0.6679688v-2.0507813c0-0.5771484-0.0175781-0.9506836-0.0527344-1.1210938
			c-0.0273438-0.1240234-0.0712891-0.2099609-0.1298828-0.2587891c-0.0585938-0.0483398-0.1386719-0.0722656-0.2402344-0.0722656
			c-0.1103516,0-0.2431641,0.0288086-0.3994141,0.0869141l-0.0820313-0.2089844l1.6201172-0.6508789H108.7893906z
			 M108.3020859,101.0325546c0.1640625,0,0.3046875,0.0571289,0.4199219,0.1713867s0.1728516,0.2524414,0.1728516,0.4150391
			s-0.0576172,0.3022461-0.1728516,0.418457s-0.2558594,0.1743164-0.4199219,0.1743164
			c-0.1650391,0-0.3056641-0.0581055-0.4228516-0.1743164s-0.1767578-0.2558594-0.1767578-0.418457
			s0.0585938-0.3007813,0.1738281-0.4150391S108.1331406,101.0325546,108.3020859,101.0325546z"/>
		<path class="st8" d="M111.8792343,104.9417343c0.6298828-0.7509766,1.2314453-1.1269531,1.8037109-1.1269531
			c0.2929688,0,0.5449219,0.0727539,0.7578125,0.2177734c0.2109375,0.1455078,0.3789063,0.3847656,0.5039063,0.7177734
			c0.0859375,0.2324219,0.1289063,0.5883789,0.1289063,1.0688477v2.2714844c0,0.3369141,0.0273438,0.5654297,0.0820313,0.6855469
			c0.0429688,0.0966797,0.1132813,0.171875,0.2089844,0.2265625c0.0957031,0.0537109,0.2734375,0.0810547,0.53125,0.0810547
			v0.2089844h-2.6601563v-0.2089844h0.1113281c0.2519531,0,0.4257813-0.0380859,0.5253906-0.1132813
			c0.1015625-0.0751953,0.1699219-0.1865234,0.2089844-0.3339844c0.015625-0.0585938,0.0234375-0.2402344,0.0234375-0.5458984
			v-2.1787109c0-0.4838867-0.0625-0.8354492-0.1914063-1.0541992c-0.1269531-0.21875-0.3398438-0.328125-0.6425781-0.328125
			c-0.4658203,0-0.9296875,0.2514648-1.3916016,0.7548828v2.8061523c0,0.359375,0.0214844,0.5830078,0.0654297,0.6679688
			c0.0546875,0.1123047,0.1298828,0.1943359,0.2255859,0.2470703c0.0957031,0.0517578,0.2900391,0.078125,0.5839844,0.078125
			v0.2089844h-2.6601563v-0.2089844h0.1171875c0.2744141,0,0.4589844-0.0693359,0.5556641-0.2060547
			c0.0957031-0.1376953,0.1435547-0.4003906,0.1435547-0.7871094v-1.9755859c0-0.6386719-0.0146484-1.027832-0.0439453-1.1674805
			c-0.0292969-0.1391602-0.0742188-0.234375-0.1347656-0.284668c-0.0615234-0.050293-0.1425781-0.0751953-0.2441406-0.0751953
			c-0.109375,0-0.2412109,0.0288086-0.3935547,0.0869141l-0.0878906-0.2089844l1.6210938-0.6508789h0.2519531V104.9417343z"/>
	</g>
	<g>
		<path class="st8" d="M98.0345078,109.2928085l-1.2744141-3.828125c-0.2978516,0.0039063-0.6030273-0.0253906-0.9165039-0.0869141
			l-0.6870117,2.3818359c-0.0898438,0.3095703-0.1352539,0.5712891-0.1352539,0.7841797
			c0,0.1621094,0.0571289,0.2900391,0.1704102,0.3828125c0.0864258,0.0703125,0.3212891,0.1201172,0.7050781,0.1513672
			l-0.0532227,0.2148438H92.760582l0.0644531-0.2148438c0.2895508-0.0117188,0.4853516-0.0410156,0.5874023-0.0869141
			c0.1601563-0.0664063,0.277832-0.1552734,0.3520508-0.2675781c0.1254883-0.1816406,0.2568359-0.5029297,0.3935547-0.9638672
			l1.3920898-4.7578125c0.09375-0.3178711,0.1411133-0.5634766,0.1411133-0.737793
			c0-0.1782227-0.0737305-0.3291016-0.2202148-0.453125c-0.1469727-0.1240234-0.3574219-0.184082-0.6313477-0.1801758
			l0.0703125-0.2148438h2.5957031c0.8696289,0,1.4956055,0.1625977,1.8793945,0.487793s0.5761719,0.753418,0.5761719,1.2836914
			c0,0.5073242-0.1972656,0.9711914-0.5908203,1.3916016c-0.3935547,0.4199219-0.9326172,0.6865234-1.6181641,0.7988281
			l0.7753906,2.3056641c0.1884766,0.5654297,0.3759766,0.9335938,0.5644531,1.1035156
			c0.1875,0.1708984,0.4912109,0.2675781,0.9101563,0.2910156l-0.0644531,0.2148438H98.0345078z M95.9436874,105.0462265
			c0.2504883,0.0351563,0.4736328,0.0522461,0.6694336,0.0522461c0.6733398,0,1.2060547-0.1845703,1.5976563-0.5546875
			c0.3911133-0.3696289,0.5874023-0.8295898,0.5874023-1.3793945c0-0.4301758-0.1220703-0.7592773-0.3671875-0.987793
			s-0.6118164-0.3427734-1.1015625-0.3427734c-0.125,0-0.2739258,0.015625-0.4462891,0.046875L95.9436874,105.0462265z"/>
	</g>
	<g>
		<path class="st8" d="M118.6800156,105.4651718c0.5146484-1.5249023,1.2236328-2.7001953,2.1279297-3.5258789
			c0.6835938-0.6191406,1.3554688-0.9291992,2.0175781-0.9291992c0.6416016,0,1.0888672,0.2983398,1.3417969,0.8950195
			c0.3544922,0.8320313,0.2900391,1.9648438-0.1933594,3.3984375c-0.4589844,1.362793-1.1337891,2.4389648-2.0224609,3.2299805
			c-0.6923828,0.6113281-1.3662109,0.9179688-2.0244141,0.9179688c-0.3554688,0-0.6523438-0.0869141-0.8886719-0.2568359
			s-0.4130859-0.4150391-0.5322266-0.7373047c-0.1181641-0.3212891-0.1787109-0.6621094-0.1777344-1.0224609
			C118.3284531,106.8157578,118.4466171,106.1595078,118.6800156,105.4651718z M119.8118515,105.4368515
			c-0.2167969,0.6889648-0.3730469,1.3095703-0.4677734,1.859375c-0.0751953,0.4179688-0.0810547,0.78125-0.0214844,1.0917969
			c0.0341797,0.1855469,0.125,0.3427734,0.2685547,0.4726563c0.1445313,0.1308594,0.3242188,0.1953125,0.5400391,0.1953125
			c0.25,0,0.5283203-0.1162109,0.8310547-0.3486328c0.3037109-0.2324219,0.5996094-0.6064453,0.8876953-1.1210938
			c0.2900391-0.515625,0.6005859-1.2314453,0.9335938-2.1494141H119.8118515z M122.9251328,105.0535507
			c0.3359375-1.0107422,0.5117188-1.8222656,0.5253906-2.434082c0.0097656-0.4692383-0.0751953-0.8041992-0.2539063-1.0048828
			c-0.1308594-0.1469727-0.3125-0.2211914-0.5488281-0.2211914c-0.265625,0-0.5449219,0.1025391-0.8369141,0.3081055
			c-0.2929688,0.2055664-0.5771484,0.5478516-0.8554688,1.0283203c-0.2763672,0.4804688-0.6152344,1.2548828-1.0146484,2.3237305
			H122.9251328z"/>
	</g>
	<g>
		<path class="st8" d="M129.9553986,105.9641953l0.9511719,1.7895508c0.3291016,0.6230469,0.5888672,1.0185547,0.78125,1.1845703
			c0.1054688,0.0888672,0.25,0.1376953,0.4345703,0.1455078v0.2089844h-3.0595703v-0.2089844
			c0.2382813-0.0195313,0.3857422-0.0507813,0.4433594-0.0927734c0.0566406-0.0429688,0.0849609-0.1005859,0.0849609-0.1748047
			c0-0.1083984-0.0625-0.2783203-0.1884766-0.5107422l-0.4755859-0.8828125l-0.4052734,0.5859375
			c-0.1835938,0.2675781-0.2871094,0.4267578-0.3105469,0.4765625c-0.0322266,0.0742188-0.0478516,0.1396484-0.0478516,0.1972656
			c0,0.0898438,0.0185547,0.1640625,0.0566406,0.2236328c0.0371094,0.0605469,0.0878906,0.1054688,0.1523438,0.1337891
			c0.0644531,0.0292969,0.1826172,0.0439453,0.3554688,0.0439453v0.2089844h-2.1494064v-0.2089844
			c0.265625,0,0.5097656-0.0722656,0.7304688-0.2177734c0.2216797-0.1455078,0.5439453-0.5263672,0.9667892-1.1416016
			l0.4521484-0.6621094l-0.9453049-1.7314453c-0.3095703-0.5654297-0.5410156-0.9116211-0.6933594-1.0395508
			s-0.3232422-0.199707-0.5107422-0.2148438v-0.215332h3.0419846v0.215332l-0.1591797,0.0053711l-0.3046875,0.1049805
			c-0.03125,0.0268555-0.046875,0.0712891-0.046875,0.1333008c0,0.0581055,0.0097656,0.1181641,0.0292969,0.1801758
			c0.0117188,0.0273438,0.0664063,0.1318359,0.1640625,0.3139648l0.4287109,0.7895508l0.2236328-0.3134766
			c0.3125-0.4257813,0.4697266-0.7241211,0.4697266-0.8945313c0-0.081543-0.0341797-0.1499023-0.1025391-0.2060547
			c-0.0693359-0.0561523-0.1914063-0.0942383-0.3671875-0.1132813v-0.215332h1.9433594v0.215332
			c-0.2382813,0.0078125-0.4619141,0.0800781-0.6689453,0.2177734c-0.2080078,0.137207-0.4404297,0.4038086-0.6992188,0.7988281
			L129.9553986,105.9641953z"/>
	</g>
</g>
<g>
	<g>
		<path class="st4" d="M106.4583359,76.4388046v1.2353516c0.3583984-0.5629883,0.6738281-0.9370117,0.9433594-1.1220703
			c0.2705078-0.184082,0.5302734-0.2768555,0.78125-0.2768555c0.2167969,0,0.3886719,0.0673828,0.5185547,0.2011719
			c0.1289063,0.1342773,0.1933594,0.3237305,0.1933594,0.5683594c0,0.2602539-0.0625,0.4624023-0.1875,0.6064453
			c-0.1259766,0.1435547-0.2773438,0.215332-0.4550781,0.215332c-0.2041016,0-0.3818359-0.065918-0.5322266-0.1982422
			c-0.1503906-0.1318359-0.2392578-0.2055664-0.265625-0.2211914c-0.0390625-0.0234375-0.0839844-0.0351563-0.1328125-0.0351563
			c-0.1132813,0-0.21875,0.0429688-0.3183594,0.128418c-0.1591797,0.1318359-0.2783203,0.3203125-0.359375,0.5654297
			c-0.1240234,0.3769531-0.1855469,0.7924805-0.1855469,1.2475586v1.2529297l0.0058594,0.3261719
			c0,0.2216797,0.0136719,0.3632813,0.0400391,0.4257813c0.046875,0.1044922,0.1152344,0.1816406,0.2060547,0.2304688
			c0.0908203,0.0478516,0.2441406,0.078125,0.4599609,0.0898438v0.2099609h-2.9228516v-0.2099609
			c0.2353516-0.0195313,0.3945313-0.0839844,0.4775391-0.1953125c0.0830078-0.1103516,0.125-0.4033203,0.125-0.8769531v-3.0136719
			c0-0.3105469-0.015625-0.5087891-0.046875-0.5942383c-0.0380859-0.1088867-0.0947266-0.1884766-0.1679688-0.2392578
			c-0.0732422-0.050293-0.2021484-0.0854492-0.3876953-0.1049805v-0.215332H106.4583359z"/>
	</g>
</g>
<g>
	<g>
		<path class="st2" d="M110.4944687,89.1438828c0.5117188-1.5366211,1.2167969-2.7202148,2.1162109-3.5512695
			c0.6777344-0.6235352,1.3466797-0.9360352,2.0048828-0.9360352c0.6386719,0,1.0839844,0.300293,1.3359375,0.9008789
			c0.3525391,0.8383789,0.2861328,1.9799805-0.1933594,3.4233398c-0.4570313,1.3730469-1.1259766,2.4570313-2.0097656,3.2529297
			c-0.6884766,0.6162109-1.359375,0.9248047-2.0136719,0.9248047c-0.3535156,0-0.6484375-0.0859375-0.8837891-0.2578125
			c-0.234375-0.1708984-0.4111328-0.4199219-0.5292969-0.7431641s-0.1767578-0.6669922-0.1777344-1.0292969
			C110.1458359,90.5032578,110.2620468,89.8431015,110.4944687,89.1438828z M111.6194687,89.1145859
			c-0.2148438,0.6953125-0.3701172,1.3183594-0.4648438,1.8730469c-0.0732422,0.421875-0.0810547,0.7871094-0.0205078,1.0996094
			c0.0341797,0.1875,0.1240234,0.3466797,0.2666016,0.4775391c0.1445313,0.1308594,0.3222656,0.1953125,0.5361328,0.1953125
			c0.2490234,0,0.5253906-0.1171875,0.8271484-0.3515625c0.3017578-0.2333984,0.5957031-0.609375,0.8837891-1.1279297
			c0.2871094-0.5195313,0.5957031-1.2412109,0.9267578-2.1660156H111.6194687z M114.7141953,88.729332
			c0.3359375-1.0185547,0.5107422-1.8359375,0.5244141-2.4521484c0.0087891-0.4716797-0.0742188-0.8095703-0.2529297-1.0126953
			c-0.1298828-0.1474609-0.3105469-0.222168-0.5449219-0.222168c-0.2646484,0-0.5429688,0.1035156-0.8330078,0.3100586
			c-0.2900391,0.2070313-0.5742188,0.5522461-0.8496094,1.0361328c-0.2763672,0.4838867-0.6132813,1.2641602-1.0097656,2.3408203
			H114.7141953z"/>
	</g>
</g>
<g>
	<g>
		<path class="st8" d="M151.4446564,60.527668h3.1611328c0.8291016,0,1.4482422,0.175293,1.8583984,0.5263672
			s0.6152344,0.7783203,0.6152344,1.2827148c0,0.3994141-0.1298828,0.7871094-0.390625,1.1630859
			c-0.2597656,0.3759766-0.6464844,0.6816444-1.1591797,0.9160194c-0.5136719,0.234375-1.0683594,0.3515625-1.6640625,0.3515625
			c-0.3710938,0-0.8427734-0.0654297-1.4140625-0.1972656l-0.6396484,2.1523438
			c-0.1503906,0.5117188-0.2246094,0.8486328-0.2246094,1.0117188c0,0.1240234,0.0527344,0.2265625,0.1591797,0.3085938
			c0.1064453,0.0810547,0.3613281,0.1337891,0.7636719,0.1572266l-0.0585938,0.2148438h-3.1904297l0.0644531-0.2148438
			c0.4189453,0,0.7099609-0.0712891,0.8730469-0.2128906c0.1640625-0.1416016,0.3408203-0.5322266,0.5302734-1.171875
			l1.3261719-4.4902382c0.1572266-0.5390625,0.2363281-0.8999023,0.2363281-1.0820313
			c0-0.1357422-0.0566406-0.2480469-0.1689453-0.3374023s-0.3603516-0.1435547-0.7421875-0.1625977L151.4446564,60.527668z
			 M152.5520782,64.2039413c0.4453125,0.1123047,0.8046875,0.1679688,1.0771484,0.1679688
			c0.4296875,0,0.8212891-0.0869141,1.1748047-0.2617188c0.3535156-0.1743202,0.6298828-0.436039,0.8291016-0.7846718
			c0.1992188-0.3491211,0.2988281-0.7119141,0.2988281-1.0878906c0-0.3916016-0.1230469-0.7016602-0.3671875-0.9306641
			c-0.2451172-0.2285156-0.6152344-0.3432617-1.1132813-0.3432617c-0.2675781,0-0.59375,0.0332031-0.9765625,0.0991211
			L152.5520782,64.2039413z"/>
	</g>
</g>
<g>
</g>
<g>
</g>
<g>
</g>
<g>
</g>
<g>
</g>
<g>
</g>
</svg>
