<?xml version="1.0" encoding="utf-8"?>
<!-- Generator: Adobe Illustrator 19.0.0, SVG Export Plug-In . SVG Version: 6.00 Build 0)  -->
<svg version="1.1" id="Layer_1" xmlns="http://www.w3.org/2000/svg" xmlns:xlink="http://www.w3.org/1999/xlink" x="0px" y="0px"
	 viewBox="0 0 115.5 107.5" style="enable-background:new 0 0 115.5 107.5;" xml:space="preserve">
<style type="text/css">
	.st0{fill:#F7941E;}
	.st1{fill:none;stroke:#000000;stroke-miterlimit:10;}
	.st2{fill:#010101;}
	.st3{fill:#F15A29;}
	.st4{fill:#21409A;}
	.st5{fill:none;stroke:#A7A9AC;stroke-miterlimit:10;}
	.st6{fill:#A7A9AC;}
</style>
<g id="XMLID_8_">
	<g id="XMLID_35_">
		<g id="XMLID_36_">
			<polygon id="XMLID_37_" class="st0" points="69.4263763,62.1794891 68.2837524,63.7165375 76.9535065,67.1554565 
				71.1648102,59.8409576 70.0220947,61.3781433 49.1535339,45.8647156 48.5578156,46.6660767 			"/>
		</g>
	</g>
</g>
<ellipse id="XMLID_1_" transform="matrix(0.9063078 0.4226183 -0.4226183 0.9063078 24.1299744 -16.3126183)" class="st1" cx="48.8557205" cy="46.2653313" rx="49.8776054" ry="9.7245646"/>
<g id="XMLID_2_">
	<g id="XMLID_26_">
		<g id="XMLID_27_">
			<polygon id="XMLID_28_" points="64.193573,14.5547333 65.9293671,15.364151 67.5504608,6.1792297 61.5526733,13.3232727 
				63.2886047,14.1327515 21.2257385,104.336853 22.1307068,104.7588348 			"/>
		</g>
	</g>
</g>
<g id="XMLID_4_" transform="matrix(1 0 0 -1 0 0)">
	<g id="XMLID_5_">
		<path id="E1-MJMATHBI-3C9" class="st2" d="M56.6219406-4.5356116c0,0.2425275,0.1023178,0.4661074,0.3069496,0.6707397
			s0.4282112,0.3069484,0.6707382,0.3069484c0.2046356,0,0.3941078-0.0871582,0.5684242-0.2614746
			c0.1743164-0.1743166,0.2614746-0.450949,0.2614746-0.8298981c0-0.2880011-0.053051-0.651792-0.1591568-1.0913725
			s-0.2122116-0.7806344-0.3183174-1.0231614c-0.0682106-0.1667376-0.1553688-0.341054-0.2614746-0.5229492
			c-0.1061058-0.1818957-0.2576866-0.3978963-0.4547386-0.6480026c-0.197052-0.2501059-0.4433708-0.4547386-0.7389488-0.6138973
			c-0.2955818-0.1591578-0.6101074-0.2387371-0.9435844-0.2387371c-0.2804222,0-0.530529,0.0530529-0.7503166,0.1591578
			c-0.2197914,0.1061058-0.3675804,0.193264-0.4433708,0.2614746c-0.0757904,0.0682116-0.1591606,0.1705275-0.2501068,0.3069487
			c-0.4926338-0.4926329-1.0458984-0.7389498-1.6597977-0.7389498c-0.3486328,0-0.6631584,0.1023159-0.9435806,0.3069487
			c-0.2804222,0.2046318-0.4774742,0.5191598-0.5911598,0.9435821c-0.045475,0.1818957-0.0682106,0.4130545-0.0682106,0.6934767
			v0.170527c0,0.242527,0.049263,0.5343175,0.147789,0.8753715c0.1818962,0.6896868,0.4888458,1.3301101,0.920845,1.9212704
			c0.1743164,0.2046323,0.337265,0.3069484,0.4888458,0.3069484c0.098526,0,0.1856842-0.0303156,0.2614746-0.0909476
			s0.1136818-0.1515796,0.1136818-0.2728431c0-0.1288428-0.056839-0.2501063-0.1705246-0.363791
			C51.941925-5.1722455,51.608448-5.8581429,51.608448-6.3659339c0-0.3562121,0.1174774-0.6138973,0.3524246-0.7730556
			c0.2349472-0.1591587,0.488842-0.2387381,0.7616882-0.2387381c0.2728424,0,0.6214752,0.1061058,1.0458984,0.3183169v0.3183174
			c0.0151558,0.3789487,0.0644188,0.6821074,0.147789,0.9094768c0.0757904,0.1743169,0.1856842,0.3107381,0.3296852,0.4092646
			c0.144001,0.098527,0.2993698,0.1515799,0.4661064,0.1591587c0.1667366,0,0.3031578-0.0606318,0.4092636-0.1818953
			s0.1629486-0.2614746,0.1705284-0.4206333c0-0.2349482-0.1136856-0.5873709-0.341053-1.0572672l-0.0795784-0.14779
			c0-0.0151577,0.0378952-0.0454741,0.1136818-0.0909476c0.0757904-0.0454741,0.193264-0.0909476,0.3524246-0.1364217
			c0.1591568-0.0454736,0.3221054-0.072,0.488842-0.0795794c0.4547386,0,0.8488464,0.1818957,1.1823196,0.5456862
			c0.333477,0.363791,0.5002136,0.704845,0.5002136,1.0231619c0,0.2501063-0.1856842,0.4964228-0.5570526,0.7389503
			C56.7318382-4.9410868,56.6219406-4.7629809,56.6219406-4.5356116z"/>
	</g>
</g>
<ellipse id="XMLID_3_" transform="matrix(0.9063078 0.4226183 -0.4226183 0.9063078 24.1299744 -16.3126202)" class="st2" cx="48.8557243" cy="46.2653313" rx="1.9383601" ry="2.2152686"/>
<g id="XMLID_6_">
	<g id="XMLID_30_">
		<g id="XMLID_31_">
			<polygon id="XMLID_32_" class="st3" points="69.7722015,72.6155701 70.8453522,74.2019043 76.9559174,67.1555023 
				68.1394806,70.2020416 69.2127075,71.7885132 21.3984528,104.1343536 21.9579468,104.9613953 			"/>
		</g>
	</g>
</g>
<g id="XMLID_7_">
	<g id="XMLID_38_">
		<g id="XMLID_39_">
			<polygon id="XMLID_40_" class="st4" points="103.3614044,73.0807953 102.9886322,74.9593964 112.2953644,74.3466339 
				103.9285736,70.2226105 103.5557556,72.1013641 76.9759369,66.8270569 76.7815857,67.8064728 			"/>
		</g>
	</g>
</g>
<path id="XMLID_9_" class="st5" d="M32.9745636,80.3225784c5.022419,2.3419952,8.1270294,5.4577179,10.6968422,9.2345734"/>
<g id="XMLID_10_">
	<g id="XMLID_15_">
		<path id="XMLID_44_" class="st6" d="M40.112793,78.7827148c0.5117188-1.5366211,1.2167969-2.7202148,2.1162109-3.5512695
			c0.6777344-0.6235352,1.3466797-0.9360352,2.0048828-0.9360352c0.6386719,0,1.0839844,0.300293,1.3359375,0.9008789
			c0.3525391,0.8383789,0.2861328,1.9799805-0.1933594,3.4233398c-0.4570313,1.3730469-1.1259766,2.4570313-2.0097656,3.2529297
			c-0.6884766,0.6162109-1.3598633,0.9248047-2.0141602,0.9248047c-0.3535156,0-0.6479492-0.0859375-0.8833008-0.2578125
			c-0.234375-0.1708984-0.4111328-0.4199219-0.5297852-0.7431641c-0.1176758-0.3232422-0.1762695-0.6669922-0.1772461-1.0292969
			C39.7641602,80.1420898,39.8803711,79.4819336,40.112793,78.7827148z M41.237793,78.753418
			c-0.215332,0.6953125-0.3701172,1.3183594-0.4648438,1.8730469c-0.0737305,0.421875-0.0810547,0.7871094-0.0209961,1.0996094
			c0.034668,0.1875,0.1240234,0.3466797,0.2670898,0.4775391c0.144043,0.1308594,0.3222656,0.1953125,0.5361328,0.1953125
			c0.2490234,0,0.5253906-0.1171875,0.8271484-0.3515625c0.3017578-0.2333984,0.5957031-0.609375,0.8837891-1.1279297
			c0.2871094-0.5195313,0.5957031-1.2412109,0.9267578-2.1660156H41.237793z M44.3325195,78.3681641
			c0.3359375-1.0185547,0.5107422-1.8359375,0.5244141-2.4521484c0.0087891-0.4716797-0.0742188-0.8095703-0.2529297-1.0126953
			c-0.1298828-0.1474609-0.3105469-0.222168-0.5449219-0.222168c-0.2646484,0-0.5429688,0.1035156-0.8330078,0.3100586
			c-0.2900391,0.2070313-0.5742188,0.5522461-0.8496094,1.0361328c-0.2763672,0.4838867-0.6132813,1.2641602-1.0102539,2.3408203
			H44.3325195z"/>
	</g>
</g>
<g id="XMLID_11_">
	<g id="XMLID_12_">
		<path id="XMLID_42_" class="st3" d="M63.6567383,84.1074219v1.2353516
			c0.3583984-0.5629883,0.6733398-0.9370117,0.9428711-1.1220703c0.2705078-0.184082,0.5302734-0.2768555,0.78125-0.2768555
			c0.2167969,0,0.3886719,0.0673828,0.5185547,0.2011719c0.1289063,0.1342773,0.1933594,0.3237305,0.1933594,0.5683594
			c0,0.2602539-0.0625,0.4624023-0.1875,0.6064453c-0.1259766,0.1435547-0.2773438,0.215332-0.4550781,0.215332
			c-0.2041016,0-0.3818359-0.065918-0.5322266-0.1982422c-0.1503906-0.1318359-0.2392578-0.2055664-0.265625-0.2211914
			c-0.0390625-0.0234375-0.0839844-0.0351563-0.1328125-0.0351563c-0.1132813,0-0.21875,0.0429688-0.3183594,0.128418
			c-0.1586914,0.1318359-0.2783203,0.3203125-0.359375,0.5654297c-0.1235352,0.3769531-0.1850586,0.7924805-0.1850586,1.2475586
			v1.2529297l0.0053711,0.3261719c0,0.2216797,0.0136719,0.3632813,0.0405273,0.4257813
			c0.0463867,0.1044922,0.1147461,0.1816406,0.2055664,0.2304688c0.0908203,0.0478516,0.2441406,0.078125,0.4599609,0.0898438
			v0.2099609h-2.9223633V89.347168c0.2353516-0.0195313,0.3945313-0.0839844,0.4775391-0.1953125
			c0.0830078-0.1103516,0.1245117-0.4033203,0.1245117-0.8769531v-3.0136719c0-0.3105469-0.015625-0.5087891-0.0463867-0.5942383
			c-0.0385742-0.1088867-0.0947266-0.1884766-0.1679688-0.2392578c-0.0732422-0.050293-0.2026367-0.0854492-0.3876953-0.1049805
			v-0.215332H63.6567383z"/>
	</g>
</g>
<g id="XMLID_13_">
	<g id="XMLID_14_">
		<path id="XMLID_24_" class="st4" d="M102.7475586,85.1040039l-1.8393555-4.2568359
			c-0.2216797-0.5126953-0.3950195-0.8374023-0.5195313-0.9746094c-0.0898438-0.1015625-0.222168-0.1699219-0.3974609-0.2055664
			V79.449707h2.902832v0.2172852c-0.1835938,0-0.3076172,0.0336914-0.3740234,0.1000977
			c-0.0932617,0.0859375-0.1401367,0.1879883-0.1401367,0.3051758c0,0.1450195,0.0854492,0.4169922,0.2568359,0.8164063
			l0.8999023,2.0610352l0.7177734-1.7792969c0.2060547-0.5087891,0.3095703-0.8691406,0.3095703-1.0805664
			c0-0.1210938-0.0439453-0.2202148-0.1308594-0.2963867c-0.0878906-0.0761719-0.2431641-0.1181641-0.4648438-0.1264648V79.449707
			h1.7871094v0.2172852c-0.1708984,0.0234375-0.3115234,0.0883789-0.4208984,0.1938477
			c-0.1083984,0.105957-0.2724609,0.4169922-0.4902344,0.9335938l-1.8222656,4.3095703H102.7475586z"/>
	</g>
</g>
<g id="XMLID_17_">
	<g id="XMLID_19_">
		<path id="XMLID_22_" class="st0" d="M74.5693359,55.222168v4.2714844h1.9716797v0.3251953h-4.2895508v-0.3251953h1.9916992
			V55.222168H74.5693359z"/>
	</g>
	<g id="XMLID_18_">
		<path id="XMLID_20_" class="st0" d="M70.2119141,51.2270508v1.2431641
			c0.3613281-0.5668945,0.6782227-0.9433594,0.9501953-1.1289063S71.6962891,51.0625,71.9487305,51.0625
			c0.2177734,0,0.3916016,0.0678711,0.5214844,0.2026367c0.1303711,0.1347656,0.1958008,0.3251953,0.1958008,0.5717773
			c0,0.2617188-0.0634766,0.4648438-0.1899414,0.6098633c-0.1259766,0.1445313-0.2788086,0.2167969-0.4575195,0.2167969
			c-0.2055664,0-0.3842773-0.0664063-0.5361328-0.1992188c-0.1513672-0.1333008-0.2407227-0.2075195-0.2680664-0.2231445
			c-0.0385742-0.0234375-0.0834961-0.0351563-0.1337891-0.0351563c-0.112793,0-0.2197266,0.0429688-0.3208008,0.1289063
			c-0.1591797,0.1333008-0.2797852,0.3227539-0.3613281,0.5688477c-0.1240234,0.3793945-0.1865234,0.7973633-0.1865234,1.2548828
			v1.2607422l0.0058594,0.328125c0,0.2226563,0.0136719,0.3662109,0.0410156,0.4287109
			c0.0463867,0.1054688,0.1157227,0.1826172,0.2070313,0.2314453c0.0908203,0.0488281,0.2456055,0.0791016,0.4628906,0.0908203
			v0.2109375h-2.9428711v-0.2109375c0.2368164-0.0195313,0.3974609-0.0849609,0.480957-0.1962891s0.125-0.40625,0.125-0.8828125
			v-3.0317383c0-0.3125-0.0151367-0.5117188-0.0463867-0.5976563c-0.0390625-0.1098633-0.0952148-0.1899414-0.1689453-0.2407227
			s-0.2041016-0.0859375-0.390625-0.1054688v-0.2167969H70.2119141z"/>
	</g>
</g>
<g id="XMLID_16_">
</g>
<g id="XMLID_48_">
</g>
<g id="XMLID_49_">
</g>
<g id="XMLID_50_">
</g>
<g id="XMLID_51_">
</g>
<g id="XMLID_52_">
</g>
</svg>
