<?xml version="1.0" encoding="utf-8"?>
<!-- Generator: Adobe Illustrator 19.0.0, SVG Export Plug-In . SVG Version: 6.00 Build 0)  -->
<svg version="1.1" id="Layer_1" xmlns="http://www.w3.org/2000/svg" xmlns:xlink="http://www.w3.org/1999/xlink" x="0px" y="0px"
	 viewBox="0 0 177.5 105" style="enable-background:new 0 0 177.5 105;" xml:space="preserve">
<style type="text/css">
	.st0{fill:none;stroke:#A7A9AC;stroke-miterlimit:10;}
	.st1{fill:none;stroke:#F15A29;stroke-miterlimit:10;}
	.st2{fill:none;stroke:#2B3990;stroke-miterlimit:10;}
	.st3{fill:none;stroke:#000000;stroke-miterlimit:10;}
	.st4{fill:none;stroke:#000000;stroke-miterlimit:10;stroke-dasharray:5.3166785,5.3166785;}
	.st5{fill:none;stroke:#000000;stroke-miterlimit:10;stroke-dasharray:5.3170209,5.3170209;}
	.st6{fill:#A7A9AC;}
	.st7{fill:none;}
	.st8{fill:#F15A29;}
</style>
<path id="XMLID_7_" class="st0" d="M135.0139465,72.6924057c-1.9285583,2.54039-3.1113281,7.0163956-3.1113281,10.0586472"/>
<path id="XMLID_11_" class="st0" d="M106.89534,72.6924057c-1.928566,2.54039-3.1113434,7.0163956-3.1113434,10.0586472"/>
<path id="XMLID_26_" class="st1" d="M5.3387613,96.7077332C16.2985382,71.447197,30.341507,47.8346214,46.9928474,26.3448353
	c6.3394241-8.1814957,13.0569153-16.0553055,20.1262779-23.5952282"/>
<path id="XMLID_25_" class="st2" d="M33.626667,96.2494125c8.6134987-19.7697906,19.1167412-38.5268211,31.281559-56.0429192
	c9.1855927-13.2263241,19.318573-25.7451096,30.3006973-37.4581299"/>
<line id="XMLID_10_" class="st1" x1="119.8929977" y1="82.7489624" x2="47.0082054" y2="26.3564892"/>
<path id="XMLID_9_" class="st3" d="M455.9550476,348.3293762"/>
<line id="XMLID_8_" class="st2" x1="147.9843445" y1="82.7510529" x2="75.0968399" y2="26.3564892"/>
<path id="XMLID_5_" class="st3" d="M497.5141296,348.3293762"/>
<g id="XMLID_4_">
	<g id="XMLID_30_">
		<line id="XMLID_33_" class="st3" x1="173.7546997" y1="102.6901245" x2="171.3819885" y2="100.8542786"/>
		<line id="XMLID_32_" class="st4" x1="167.177002" y1="97.6007996" x2="152.4595337" y2="86.213623"/>
		<line id="XMLID_31_" class="st3" x1="150.3570557" y1="84.5868835" x2="147.9843445" y2="82.7510376"/>
	</g>
</g>
<g id="XMLID_3_">
	<g id="XMLID_35_">
		<line id="XMLID_46_" class="st3" x1="145.6647034" y1="102.6901245" x2="143.2919922" y2="100.8542786"/>
		<line id="XMLID_45_" class="st5" x1="139.086731" y1="97.6005859" x2="124.3683472" y2="86.212677"/>
		<line id="XMLID_44_" class="st3" x1="122.2657166" y1="84.5858154" x2="119.8930054" y2="82.75"/>
	</g>
</g>
<line id="XMLID_1_" class="st0" x1="89.0837784" y1="82.7489624" x2="147.9843445" y2="82.7489624"/>
<g id="XMLID_13_">
	<g id="XMLID_14_">
		<path id="XMLID_50_" d="M93.8876953,76.2597656c0.5117188-1.5366211,1.2167969-2.7202148,2.1162109-3.5512695
			c0.6777344-0.6235352,1.3466797-0.9360352,2.0048828-0.9360352c0.6386719,0,1.0839844,0.300293,1.3359375,0.9008789
			c0.3525391,0.8383789,0.2861328,1.9799805-0.1933594,3.4233398c-0.4570313,1.3730469-1.1259766,2.4570313-2.0097656,3.2529297
			c-0.6884766,0.6162109-1.3598633,0.9248047-2.0141602,0.9248047c-0.3535156,0-0.6479492-0.0859375-0.8833008-0.2578125
			c-0.234375-0.1708984-0.4111328-0.4199219-0.5297852-0.7431641c-0.1176758-0.3232422-0.1762695-0.6669922-0.1772461-1.0292969
			C93.5390625,77.6191406,93.6552734,76.9589844,93.8876953,76.2597656z M95.0126953,76.2304688
			c-0.215332,0.6953125-0.3701172,1.3183594-0.4648438,1.8730469c-0.0737305,0.421875-0.0810547,0.7871094-0.0209961,1.0996094
			c0.034668,0.1875,0.1240234,0.3466797,0.2670898,0.4775391c0.144043,0.1308594,0.3222656,0.1953125,0.5361328,0.1953125
			c0.2490234,0,0.5253906-0.1171875,0.8271484-0.3515625c0.3017578-0.2333984,0.5957031-0.609375,0.8837891-1.1279297
			c0.2871094-0.5195313,0.5957031-1.2412109,0.9267578-2.1660156H95.0126953z M98.1074219,75.8452148
			c0.3359375-1.0185547,0.5107422-1.8359375,0.5244141-2.4521484c0.0087891-0.4716797-0.0742188-0.8095703-0.2529297-1.0126953
			c-0.1298828-0.1474609-0.3105469-0.222168-0.5449219-0.222168c-0.2646484,0-0.5429688,0.1035156-0.8330078,0.3100586
			c-0.2900391,0.2070313-0.5742188,0.5522461-0.8496094,1.0361328c-0.2763672,0.4838867-0.6132813,1.2641602-1.0102539,2.3408203
			H98.1074219z"/>
	</g>
</g>
<g id="XMLID_12_">
	<g id="XMLID_15_">
		<path id="XMLID_43_" d="M124.4458008,76.2592773c0.5117188-1.5366211,1.2167969-2.7202148,2.1162109-3.5512695
			c0.6777344-0.6235352,1.3466797-0.9360352,2.0048828-0.9360352c0.6386719,0,1.0839844,0.300293,1.3359375,0.9008789
			c0.3525391,0.8383789,0.2861328,1.9799805-0.1933594,3.4233398c-0.4570313,1.3730469-1.1259766,2.4570313-2.0097656,3.2529297
			c-0.6884766,0.6162109-1.3598633,0.9248047-2.0141602,0.9248047c-0.3535156,0-0.6479492-0.0859375-0.8833008-0.2578125
			c-0.234375-0.1708984-0.4111328-0.4199219-0.5297852-0.7431641c-0.1176758-0.3232422-0.1762695-0.6669922-0.1772461-1.0292969
			C124.097168,77.6186523,124.2133789,76.9584961,124.4458008,76.2592773z M125.5708008,76.2299805
			c-0.215332,0.6953125-0.3701172,1.3183594-0.4648438,1.8730469c-0.0737305,0.421875-0.0810547,0.7871094-0.0209961,1.0996094
			c0.034668,0.1875,0.1240234,0.3466797,0.2670898,0.4775391c0.144043,0.1308594,0.3222656,0.1953125,0.5361328,0.1953125
			c0.2490234,0,0.5253906-0.1171875,0.8271484-0.3515625c0.3017578-0.2333984,0.5957031-0.609375,0.8837891-1.1279297
			c0.2871094-0.5195313,0.5957031-1.2412109,0.9267578-2.1660156H125.5708008z M128.6655273,75.8447266
			c0.3359375-1.0185547,0.5107422-1.8359375,0.5244141-2.4521484c0.0087891-0.4716797-0.0742188-0.8095703-0.2529297-1.0126953
			c-0.1298828-0.1474609-0.3105469-0.222168-0.5449219-0.222168c-0.2646484,0-0.5429688,0.1035156-0.8330078,0.3100586
			c-0.2900391,0.2070313-0.5742188,0.5522461-0.8496094,1.0361328c-0.2763672,0.4838867-0.6132813,1.2641602-1.0102539,2.3408203
			H128.6655273z"/>
	</g>
</g>
<g id="XMLID_16_">
	<g id="XMLID_71_">
		<g id="XMLID_72_">
			<polygon id="XMLID_73_" class="st6" points="77.8517609,16.2493439 77.8517609,18.1645813 83.7477112,15.7520752 
				77.8517609,13.335434 77.8517609,15.250824 74.3239136,15.250824 74.3239136,16.2493439 			"/>
		</g>
	</g>
</g>
<g id="XMLID_17_">
	<g id="XMLID_74_">
		<g id="XMLID_75_">
			<polygon id="XMLID_76_" class="st6" points="61.5570679,15.2506561 61.5570679,13.3354187 55.6577148,15.7479095 
				61.5570679,18.1645508 61.5570679,16.249176 65.0869751,16.249176 65.0869751,15.2506561 			"/>
		</g>
	</g>
</g>
<g id="XMLID_19_">
	<g id="XMLID_20_">
		<path id="XMLID_40_" d="M73.4106445,10.1972656l-2.0244141,6.9042969
			c-0.109375,0.3740234-0.1640625,0.6201172-0.1640625,0.7373047c0,0.0390625,0.0166016,0.0761719,0.0498047,0.1113281
			s0.0673828,0.0527344,0.1025391,0.0527344c0.0517578,0,0.1123047-0.0253906,0.1826172-0.0761719
			c0.1337891-0.09375,0.3574219-0.328125,0.6708984-0.7021484l0.2001953,0.1230469
			c-0.2822266,0.3896484-0.5683594,0.7060547-0.8564453,0.9472656c-0.2880859,0.2421875-0.5576172,0.3632813-0.8085938,0.3632813
			c-0.1328125,0-0.2431641-0.046875-0.3295898-0.140625s-0.1293945-0.2265625-0.1293945-0.3974609
			c0-0.2226563,0.059082-0.5214844,0.1767578-0.8955078l0.2294922-0.7255859
			c-0.5688477,0.8740234-1.0869141,1.4785156-1.5532227,1.8134766c-0.3217773,0.2304688-0.6298828,0.3457031-0.9238281,0.3457031
			c-0.2978516,0-0.5581055-0.1318359-0.7792969-0.3955078C67.2324219,18,67.121582,17.6416016,67.121582,17.1894531
			c0-0.5810547,0.1860352-1.2011719,0.5585938-1.8603516s0.8652344-1.1958008,1.4770508-1.609375
			c0.4824219-0.331543,0.925293-0.4975586,1.3295898-0.4975586c0.2119141,0,0.3935547,0.0429688,0.546875,0.1289063
			s0.3037109,0.2280273,0.453125,0.4272461l0.5761719-2.0366211c0.0429688-0.144043,0.0791016-0.2592773,0.1064453-0.3452148
			c0.046875-0.1557617,0.0703125-0.284668,0.0703125-0.3862305c0-0.081543-0.0292969-0.1499023-0.0878906-0.2045898
			c-0.0830078-0.0664063-0.1884766-0.0996094-0.3183594-0.0996094c-0.0898438,0-0.2392578,0.0136719-0.4472656,0.0410156v-0.2163086
			L73.4106445,10.1972656z M71.2280273,14.3515625c0-0.2495117-0.0732422-0.4506836-0.2177734-0.6025391
			c-0.1455078-0.1523438-0.3291016-0.2285156-0.5532227-0.2285156c-0.4941406,0-1.0087891,0.4057617-1.5439453,1.2167969
			c-0.5356445,0.8115234-0.8032227,1.5878906-0.8032227,2.3291016c0,0.2929688,0.0649414,0.515625,0.1943359,0.6699219
			s0.2841797,0.2314453,0.4643555,0.2314453c0.4082031,0,0.9199219-0.4394531,1.5356445-1.3164063
			C70.9194336,15.7734375,71.2280273,15.0068359,71.2280273,14.3515625z"/>
	</g>
</g>
<g id="XMLID_18_">
	<g id="XMLID_67_">
		<g id="XMLID_68_">
			<polygon id="XMLID_69_" class="st6" points="50.5569458,36.5211792 51.7289429,35.0064392 43.1270142,31.4012146 
				48.7738037,38.8258057 49.9459076,37.3109131 50.4725342,37.7183838 52.0241547,38.9189148 52.6351929,38.1291809 
				51.0835571,36.9286499 			"/>
		</g>
	</g>
</g>
<g id="XMLID_21_">
	<g id="XMLID_53_">
		<g id="XMLID_64_">
			<polygon id="XMLID_65_" class="st6" points="53.5479431,40.1197815 52.3759308,41.634552 60.9778595,45.2397461 
				55.3310699,37.815155 54.1589661,39.3300476 53.6323547,38.9225769 52.080719,37.7220459 51.469696,38.5117798 
				53.0213165,39.7123108 			"/>
		</g>
	</g>
</g>
<g id="XMLID_23_">
	<g id="XMLID_24_">
		<path id="XMLID_38_" d="M46.0791016,40.8481445l-1.6411133,5.6816406
			c0.7084961-1.0693359,1.2617188-1.7788086,1.6586914-2.1298828c0.3964844-0.3510742,0.7763672-0.5268555,1.1386719-0.5268555
			c0.1865234,0,0.3427734,0.0644531,0.4667969,0.1933594c0.125,0.128418,0.1875,0.300293,0.1875,0.5146484
			c0,0.2573242-0.0546875,0.5698242-0.1640625,0.9360352l-0.7119141,2.4521484
			c-0.0898438,0.2958984-0.1347656,0.4599609-0.1347656,0.4912109c0,0.0546875,0.0166016,0.0996094,0.0498047,0.1347656
			S47,48.6479492,47.0429688,48.6479492c0.0507813,0,0.1083984-0.0253906,0.1748047-0.0761719
			c0.2216797-0.171875,0.4423828-0.4101563,0.6601563-0.7138672l0.1806641,0.1113281
			c-0.1318359,0.2060547-0.3164063,0.4335938-0.5517578,0.6816406c-0.2353516,0.2470703-0.4375,0.4189453-0.6074219,0.5146484
			c-0.1689453,0.0957031-0.3203125,0.1435547-0.4521484,0.1435547c-0.1445313,0-0.2626953-0.0458984-0.3535156-0.1376953
			s-0.1376953-0.2099609-0.1376953-0.3535156c0-0.171875,0.0683594-0.4921875,0.2050781-0.9599609l0.6708984-2.3408203
			c0.0859375-0.2919922,0.1289063-0.5224609,0.1289063-0.6904297c0-0.0776367-0.0244141-0.1401367-0.0732422-0.1870117
			s-0.1113281-0.0703125-0.1894531-0.0703125c-0.1132813,0-0.2421875,0.0429688-0.3857422,0.1289063
			c-0.2646484,0.1635742-0.5703125,0.4677734-0.9165039,0.9125977c-0.09375,0.1210938-0.4052734,0.6083984-0.9345703,1.4628906
			c-0.1635742,0.2734375-0.2978516,0.5712891-0.402832,0.8955078l-0.3740234,1.1992188h-0.8759766l1.9213867-6.6938477
			l0.2045898-0.7255859c0-0.1010742-0.0419922-0.190918-0.1254883-0.269043
			c-0.0839844-0.078125-0.1860352-0.1171875-0.3066406-0.1171875c-0.0703125,0-0.1772461,0.0117188-0.3212891,0.0351563
			l-0.1225586,0.0175781V41.1875L46.0791016,40.8481445z"/>
	</g>
</g>
<line id="XMLID_22_" class="st7" x1="-2.75" y1="96.25" x2="55.6577148" y2="96.25"/>
<g id="XMLID_117_">
	<g id="XMLID_119_">
		<path id="XMLID_28_" class="st8" d="M32.1098633,73.9956055l-0.2304688,0.6855469
			c-0.3242188,0.9638672-0.6328125,1.7041016-0.9296875,2.2236328H29.940918c0.1669922-0.25,0.2875977-0.453125,0.3637695-0.609375
			c0.1274414-0.2646484,0.2602539-0.5976563,0.3950195-1l1.2607422-3.7504883
			c0.2714844-0.8076172,0.7490234-1.4692383,1.4326172-1.9838867c0.6826172-0.5112305,1.4140625-0.7666016,2.1923828-0.7666016
			c0.8886719,0,1.4589844,0.3154297,1.7099609,0.9477539c0.1933594,0.4916992,0.1855469,1.0478516-0.0234375,1.668457
			c-0.234375,0.6977539-0.6679688,1.3408203-1.3027344,1.9296875c-0.8378906,0.7734375-1.6992188,1.1591797-2.5839844,1.1591797
			c-0.3183594,0-0.5917969-0.046875-0.8193359-0.140625C32.4145508,74.293457,32.2631836,74.1713867,32.1098633,73.9956055z
			 M32.7036133,72.2290039c-0.1796875,0.5351563-0.2578125,0.9072266-0.2314453,1.1181641
			c0.0263672,0.2099609,0.1416016,0.3886719,0.3486328,0.5351563c0.2050781,0.1464844,0.4716797,0.21875,0.7988281,0.21875
			c0.4912109,0,0.9726563-0.1904297,1.4433594-0.5722656c0.4697266-0.3828125,0.8154297-0.9042969,1.0371094-1.5629883
			c0.1660156-0.4951172,0.2167969-0.9541016,0.1474609-1.378418c-0.0673828-0.4228516-0.2314453-0.7358398-0.4892578-0.9384766
			s-0.5683594-0.3046875-0.9296875-0.3046875c-0.4521484,0-0.8349609,0.1743164-1.1484375,0.5209961
			c-0.1904297,0.206543-0.40625,0.6650391-0.6445313,1.375L32.7036133,72.2290039z"/>
	</g>
	<g id="XMLID_118_">
		<path id="XMLID_6_" class="st8" d="M25.7080078,68.199707h0.578125v2.796875h2.8017578v0.5673828h-2.8017578v2.7792969h-0.578125
			v-2.7792969h-2.8134766V70.996582h2.8134766V68.199707z"/>
	</g>
</g>
<g id="XMLID_2_">
</g>
<g id="XMLID_57_">
</g>
<g id="XMLID_58_">
</g>
<g id="XMLID_59_">
</g>
<g id="XMLID_60_">
</g>
<g id="XMLID_61_">
</g>
</svg>
