<?xml version="1.0" encoding="UTF-8"?>
<svg xmlns="http://www.w3.org/2000/svg" xmlns:xlink="http://www.w3.org/1999/xlink" width="778.98pt" height="454.98pt" viewBox="0 0 778.98 454.98" version="1.1">
<g id="surface1">
<path style="fill:none;stroke-width:15;stroke-linecap:round;stroke-linejoin:round;stroke:rgb(0%,0%,0%);stroke-opacity:1;stroke-dasharray:120,60;stroke-miterlimit:10;" d="M 3623.207623 2820.593895 C 3623.207623 2497.853708 3361.566975 2236.201266 3038.81693 2236.201266 C 2716.066886 2236.201266 2454.389557 2497.853708 2454.389557 2820.593895 C 2454.389557 3143.370815 2716.066886 3405.023257 3038.81693 3405.023257 C 3361.566975 3405.023257 3623.207623 3143.370815 3623.207623 2820.593895 Z M 3623.207623 2820.593895 " transform="matrix(0.106494,0,0,-0.10634,0,461.2477)"/>
<path style="fill:none;stroke-width:15;stroke-linecap:round;stroke-linejoin:round;stroke:rgb(0%,0%,0%);stroke-opacity:1;stroke-dasharray:120,60;stroke-miterlimit:10;" d="M 4008.937759 2820.593895 C 4008.937759 2284.799635 3574.606213 1850.463194 3038.81693 1850.463194 C 2503.027648 1850.463194 2068.659421 2284.799635 2068.659421 2820.593895 C 2068.659421 3356.388155 2503.027648 3790.761329 3038.81693 3790.761329 C 3574.606213 3790.761329 4008.937759 3356.388155 4008.937759 2820.593895 Z M 4008.937759 2820.593895 " transform="matrix(0.106494,0,0,-0.10634,0,461.2477)"/>
<path style="fill:none;stroke-width:15;stroke-linecap:round;stroke-linejoin:round;stroke:rgb(0%,0%,0%);stroke-opacity:1;stroke-dasharray:120,60;stroke-miterlimit:10;" d="M 4354.723038 2820.593895 C 4354.723038 2093.822372 3765.563905 1504.654394 3038.81693 1504.654394 C 2312.033276 1504.654394 1722.874143 2093.822372 1722.874143 2820.593895 C 1722.874143 3547.365417 2312.033276 4136.533396 3038.81693 4136.533396 C 3765.563905 4136.533396 4354.723038 3547.365417 4354.723038 2820.593895 Z M 4354.723038 2820.593895 " transform="matrix(0.106494,0,0,-0.10634,0,461.2477)"/>
<path style=" stroke:none;fill-rule:evenodd;fill:rgb(0%,0%,0%);fill-opacity:1;" d="M 268.207031 142.0625 C 268.207031 144.175781 266.488281 145.890625 264.371094 145.890625 C 262.253906 145.890625 260.539062 144.175781 260.539062 142.0625 C 260.539062 139.945312 262.253906 138.234375 264.371094 138.234375 C 266.488281 138.234375 268.207031 139.945312 268.207031 142.0625 Z M 268.207031 142.0625 "/>
<path style=" stroke:none;fill-rule:evenodd;fill:rgb(0%,0%,0%);fill-opacity:1;" d="M 386.214844 182.480469 C 386.214844 184.597656 384.5 186.308594 382.382812 186.308594 C 380.265625 186.308594 378.546875 184.597656 378.546875 182.480469 C 378.546875 180.367188 380.265625 178.652344 382.382812 178.652344 C 384.5 178.652344 386.214844 180.367188 386.214844 182.480469 Z M 386.214844 182.480469 "/>
<path style=" stroke:none;fill-rule:evenodd;fill:rgb(0%,0%,0%);fill-opacity:1;" d="M 327.449219 264.414062 C 327.449219 266.527344 325.734375 268.242188 323.617188 268.242188 C 321.5 268.242188 319.78125 266.527344 319.78125 264.414062 C 319.78125 262.296875 321.5 260.585938 323.617188 260.585938 C 325.734375 260.585938 327.449219 262.296875 327.449219 264.414062 Z M 327.449219 264.414062 "/>
<path style=" stroke:none;fill-rule:evenodd;fill:rgb(0%,0%,0%);fill-opacity:1;" d="M 327.449219 59.222656 C 327.449219 61.339844 325.734375 63.050781 323.617188 63.050781 C 321.5 63.050781 319.78125 61.339844 319.78125 59.222656 C 319.78125 57.109375 321.5 55.394531 323.617188 55.394531 C 325.734375 55.394531 327.449219 57.109375 327.449219 59.222656 Z M 327.449219 59.222656 "/>
<path style=" stroke:none;fill-rule:evenodd;fill:rgb(0%,0%,0%);fill-opacity:1;" d="M 327.449219 161.304688 C 327.449219 163.417969 325.734375 165.132812 323.617188 165.132812 C 321.5 165.132812 319.78125 163.417969 319.78125 161.304688 C 319.78125 159.1875 321.5 157.476562 323.617188 157.476562 C 325.734375 157.476562 327.449219 159.1875 327.449219 161.304688 Z M 327.449219 161.304688 "/>
<path style=" stroke:none;fill-rule:evenodd;fill:rgb(0%,0%,0%);fill-opacity:1;" d="M 394.125 83.230469 C 394.125 85.34375 392.40625 87.058594 390.289062 87.058594 C 388.171875 87.058594 386.457031 85.34375 386.457031 83.230469 C 386.457031 81.117188 388.171875 79.402344 390.289062 79.402344 C 392.40625 79.402344 394.125 81.117188 394.125 83.230469 Z M 394.125 83.230469 "/>
<path style=" stroke:none;fill-rule:evenodd;fill:rgb(0%,0%,0%);fill-opacity:1;" d="M 428.949219 140.25 C 428.949219 142.363281 427.230469 144.078125 425.117188 144.078125 C 423 144.078125 421.28125 142.363281 421.28125 140.25 C 421.28125 138.132812 423 136.417969 425.117188 136.417969 C 427.230469 136.417969 428.949219 138.132812 428.949219 140.25 Z M 428.949219 140.25 "/>
<path style=" stroke:none;fill-rule:evenodd;fill:rgb(0%,0%,0%);fill-opacity:1;" d="M 268.207031 243.695312 C 268.207031 245.808594 266.488281 247.523438 264.371094 247.523438 C 262.253906 247.523438 260.539062 245.808594 260.539062 243.695312 C 260.539062 241.582031 262.253906 239.867188 264.371094 239.867188 C 266.488281 239.867188 268.207031 241.582031 268.207031 243.695312 Z M 268.207031 243.695312 "/>
<path style=" stroke:none;fill-rule:evenodd;fill:rgb(0%,0%,0%);fill-opacity:1;" d="M 227.246094 187.425781 C 227.246094 189.539062 225.53125 191.253906 223.410156 191.253906 C 221.292969 191.253906 219.578125 189.539062 219.578125 187.425781 C 219.578125 185.308594 221.292969 183.597656 223.410156 183.597656 C 225.53125 183.597656 227.246094 185.308594 227.246094 187.425781 Z M 227.246094 187.425781 "/>
<path style=" stroke:none;fill-rule:evenodd;fill:rgb(0%,0%,0%);fill-opacity:1;" d="M 374.617188 292.890625 C 374.617188 295.003906 372.902344 296.71875 370.785156 296.71875 C 368.667969 296.71875 366.953125 295.003906 366.953125 292.890625 C 366.953125 290.777344 368.667969 289.0625 370.785156 289.0625 C 372.902344 289.0625 374.617188 290.777344 374.617188 292.890625 Z M 374.617188 292.890625 "/>
<path style="fill:none;stroke-width:15;stroke-linecap:round;stroke-linejoin:round;stroke:rgb(0%,0%,0%);stroke-opacity:1;stroke-miterlimit:10;" d="M 112.49851 1583.190533 L 333.790818 1583.190533 C 342.777493 1593.182035 360.787525 1653.20451 387.747553 1643.213008 C 414.744261 1633.184773 459.71432 1523.204792 495.697704 1523.204792 C 531.681088 1523.204792 567.664472 1643.213008 603.647855 1643.213008 C 639.631239 1643.213008 675.614623 1523.204792 711.598007 1523.204792 C 747.58139 1523.204792 783.564774 1643.213008 819.548158 1643.213008 C 855.531541 1643.213008 891.514925 1523.204792 927.498309 1523.204792 C 963.481693 1523.204792 999.465076 1643.213008 1035.41178 1643.213008 C 1071.395164 1643.213008 1107.378547 1523.204792 1143.361931 1523.204792 C 1179.345315 1523.204792 1215.328699 1643.213008 1251.312082 1643.213008 C 1287.295466 1643.213008 1323.27885 1523.204792 1359.262233 1523.204792 C 1395.245617 1523.204792 1431.229001 1643.213008 1467.212385 1643.213008 C 1503.195768 1643.213008 1539.179152 1523.204792 1575.162536 1523.204792 C 1611.14592 1523.204792 1647.129303 1643.213008 1683.112687 1643.213008 C 1719.096071 1643.213008 1755.079455 1523.204792 1791.062838 1523.204792 C 1827.046222 1523.204792 1862.992925 1643.213008 1899.012989 1643.213008 C 1934.996373 1643.213008 1970.943077 1523.204792 2006.92646 1523.204792 C 2042.909844 1523.204792 2078.893228 1643.213008 2114.876612 1643.213008 C 2150.859995 1643.213008 2186.843379 1523.204792 2222.826763 1523.204792 C 2258.810146 1523.204792 2294.79353 1643.213008 2330.776914 1643.213008 C 2366.760298 1643.213008 2402.743681 1523.204792 2438.727065 1523.204792 C 2474.710449 1523.204792 2510.693833 1643.213008 2546.677216 1643.213008 C 2582.6606 1643.213008 2618.643984 1523.204792 2654.627368 1523.204792 C 2690.610751 1523.204792 2726.594135 1643.213008 2762.577519 1643.213008 C 2798.524222 1643.213008 2834.544286 1523.204792 2870.52767 1523.204792 C 2906.474373 1523.204792 2942.457757 1643.213008 2978.441141 1643.213008 C 3014.424525 1643.213008 3059.394584 1533.196293 3086.391292 1523.204792 C 3113.388 1513.21329 3131.398032 1573.199032 3140.384708 1583.190533 L 3475.972861 1583.190533 " transform="matrix(0.106494,0,0,-0.10634,0,461.2477)"/>
<path style=" stroke:none;fill-rule:evenodd;fill:rgb(0%,0%,0%);fill-opacity:1;" d="M 405.953125 230.3125 C 405.953125 232.425781 404.234375 234.140625 402.117188 234.140625 C 400 234.140625 398.285156 232.425781 398.285156 230.3125 C 398.285156 228.199219 400 226.484375 402.117188 226.484375 C 404.234375 226.484375 405.953125 228.199219 405.953125 230.3125 Z M 405.953125 230.3125 "/>
<path style=" stroke:none;fill-rule:evenodd;fill:rgb(0%,0%,0%);fill-opacity:1;" d="M 254.074219 89.367188 C 254.074219 91.480469 252.359375 93.195312 250.242188 93.195312 C 248.121094 93.195312 246.40625 91.480469 246.40625 89.367188 C 246.40625 87.25 248.121094 85.539062 250.242188 85.539062 C 252.359375 85.539062 254.074219 87.25 254.074219 89.367188 Z M 254.074219 89.367188 "/>
<path style=" stroke:none;fill-rule:evenodd;fill:rgb(0%,0%,0%);fill-opacity:1;" d="M 40.542969 309.886719 L 41.394531 309.058594 C 43.734375 309.863281 45.15625 310.734375 45.660156 311.683594 C 46.167969 312.636719 46.765625 314.117188 47.460938 316.128906 C 48.09375 318.15625 49.25 320.242188 50.921875 322.382812 C 52.59375 324.527344 54.566406 325.933594 56.835938 326.601562 L 56.835938 326.96875 C 55.765625 326.972656 54.945312 327.371094 54.375 328.160156 C 52.800781 327.003906 51.472656 325.734375 50.398438 324.355469 C 49.324219 322.980469 48.453125 321.589844 47.789062 320.175781 C 47.125 318.769531 46.511719 317.027344 45.941406 314.9375 C 45.058594 317.761719 43.796875 320.285156 42.152344 322.519531 C 40.511719 324.757812 38.015625 326.910156 34.667969 328.988281 L 34.480469 328.621094 C 37.324219 326.484375 39.585938 324.171875 41.257812 321.691406 C 42.929688 319.214844 44.113281 316.410156 44.804688 313.285156 C 45 312.554688 44.699219 311.910156 43.90625 311.359375 C 43.121094 310.808594 42 310.320312 40.542969 309.886719 Z M 40.542969 309.886719 "/>
<path style=" stroke:none;fill-rule:evenodd;fill:rgb(0%,0%,0%);fill-opacity:1;" d="M 60.449219 311.996094 L 60.449219 314.753906 L 65.089844 314.753906 L 65.089844 311.996094 Z M 60.449219 315.304688 L 60.449219 317.785156 L 65.089844 317.785156 L 65.089844 315.304688 Z M 60.449219 318.335938 L 60.449219 321.089844 L 65.089844 321.089844 L 65.089844 318.335938 Z M 62.4375 308.046875 L 64.238281 309.058594 C 63.605469 309.246094 62.910156 310.046875 62.152344 311.445312 L 64.996094 311.445312 L 65.65625 310.527344 L 67.078125 311.632812 L 66.417969 312.183594 L 66.417969 327.242188 C 66.417969 328.289062 65.757812 329.082031 64.425781 329.632812 C 64.425781 328.839844 63.605469 328.195312 61.960938 327.703125 L 61.960938 327.335938 C 63.289062 327.460938 64.140625 327.519531 64.519531 327.519531 C 64.898438 327.519531 65.089844 327.3125 65.089844 326.875 L 65.089844 321.640625 L 64.238281 321.640625 C 63.296875 323.421875 62.15625 324.925781 60.828125 326.148438 C 59.5 327.375 58.109375 328.378906 56.65625 329.171875 L 56.464844 328.898438 C 57.855469 327.859375 59.078125 326.734375 60.117188 325.503906 C 61.160156 324.28125 62.03125 322.996094 62.722656 321.640625 L 59.59375 321.640625 C 58.777344 321.648438 58.019531 321.738281 57.320312 321.917969 L 56.464844 321.089844 L 59.121094 321.089844 C 59.121094 315.519531 59.09375 312.066406 59.023438 310.710938 L 60.449219 311.445312 L 61.582031 311.445312 C 61.960938 310.105469 62.246094 308.972656 62.4375 308.046875 Z M 73.425781 314.753906 C 73.425781 311.941406 73.394531 309.769531 73.332031 308.234375 L 75.601562 309.152344 L 74.753906 309.886719 L 74.753906 314.753906 L 75.792969 314.753906 L 77.027344 313.558594 L 78.828125 315.304688 L 74.753906 315.304688 L 74.753906 327.058594 C 74.820312 328.289062 74.089844 329.171875 72.574219 329.722656 C 72.445312 328.867188 71.40625 328.195312 69.445312 327.703125 L 69.445312 327.242188 C 71.152344 327.425781 72.246094 327.519531 72.714844 327.519531 C 73.191406 327.519531 73.425781 327.25 73.425781 326.691406 L 73.425781 315.304688 L 69.925781 315.304688 C 69.101562 315.3125 68.34375 315.402344 67.648438 315.578125 L 66.796875 314.753906 Z M 68.117188 317.785156 L 68.40625 317.601562 C 69.480469 318.460938 70.222656 319.136719 70.632812 319.625 C 71.042969 320.121094 71.21875 320.609375 71.152344 321.097656 C 71.089844 321.589844 70.9375 321.941406 70.683594 322.152344 C 70.429688 322.371094 70.238281 322.472656 70.113281 322.46875 C 69.796875 322.472656 69.605469 322.078125 69.542969 321.273438 C 69.355469 320.242188 68.875 319.074219 68.117188 317.785156 Z M 68.117188 317.785156 "/>
<path style=" stroke:none;fill-rule:evenodd;fill:rgb(0%,0%,0%);fill-opacity:1;" d="M 82.34375 310.988281 L 82.535156 310.710938 C 84.613281 312.125 85.800781 313.105469 86.085938 313.65625 C 86.375 314.207031 86.511719 314.636719 86.511719 314.9375 C 86.511719 315.3125 86.402344 315.648438 86.179688 315.953125 C 85.957031 316.261719 85.78125 316.410156 85.652344 316.40625 C 85.402344 316.410156 85.183594 316.015625 84.992188 315.210938 C 84.613281 314.117188 83.734375 312.710938 82.34375 310.988281 Z M 88.878906 317.507812 L 88.878906 312.183594 C 88.878906 311.207031 88.851562 309.984375 88.78125 308.507812 L 91.058594 309.425781 L 90.203125 310.253906 L 90.203125 317.507812 L 91.816406 317.507812 C 93.082031 315.492188 94.121094 313.289062 94.9375 310.894531 L 96.933594 312.273438 L 96.078125 312.734375 C 94.691406 314.636719 93.460938 316.226562 92.378906 317.507812 L 96.933594 317.507812 L 98.253906 316.222656 L 100.054688 318.058594 L 92.289062 318.058594 L 92.289062 326.234375 C 92.289062 327.277344 92.765625 327.792969 93.710938 327.792969 L 97.496094 327.792969 C 97.945312 327.792969 98.226562 327.507812 98.351562 326.929688 C 98.480469 326.347656 98.605469 324.953125 98.730469 322.742188 L 99.203125 322.742188 C 99.203125 324.339844 99.265625 325.429688 99.394531 326.007812 C 99.519531 326.59375 99.898438 327.066406 100.53125 327.425781 C 100.089844 328.34375 99.304688 328.839844 98.164062 328.898438 L 93.425781 328.898438 C 91.851562 328.898438 91.058594 328.160156 91.058594 326.691406 L 91.058594 318.058594 L 87.363281 318.058594 C 87.179688 321.492188 86.511719 324.023438 85.371094 325.640625 C 84.234375 327.265625 81.992188 328.65625 78.648438 329.816406 L 78.546875 329.449219 C 81.582031 328.105469 83.554688 326.578125 84.46875 324.859375 C 85.390625 323.152344 85.878906 320.882812 85.941406 318.058594 L 81.964844 318.058594 C 81.144531 318.066406 80.382812 318.15625 79.6875 318.335938 L 78.835938 317.507812 Z M 88.878906 317.507812 "/>
<path style=" stroke:none;fill-rule:evenodd;fill:rgb(0%,0%,0%);fill-opacity:1;" d="M 103.378906 309.886719 L 117.308594 309.886719 L 118.539062 308.785156 L 120.339844 310.804688 C 119.578125 310.808594 118.621094 311.132812 117.453125 311.773438 C 116.285156 312.417969 114.625 313.472656 112.472656 314.9375 L 113.332031 315.488281 L 112.28125 316.039062 L 112.28125 317.785156 L 118.824219 317.785156 L 120.339844 316.3125 L 122.421875 318.335938 L 112.28125 318.335938 L 112.28125 327.152344 C 112.28125 328.316406 111.46875 329.171875 109.824219 329.722656 C 109.824219 328.804688 108.785156 328.070312 106.695312 327.519531 L 106.695312 327.058594 C 108.402344 327.25 109.542969 327.339844 110.109375 327.339844 C 110.679688 327.339844 110.933594 326.910156 110.863281 326.050781 L 110.863281 318.335938 L 103.476562 318.335938 C 102.660156 318.339844 101.902344 318.433594 101.199219 318.609375 L 100.347656 317.785156 L 110.863281 317.785156 C 110.863281 316.441406 110.835938 315.125 110.773438 313.835938 L 112.09375 314.660156 L 117.308594 310.4375 L 106.507812 310.4375 C 105.691406 310.441406 104.929688 310.535156 104.234375 310.710938 Z M 103.378906 309.886719 "/>
<path style=" stroke:none;fill-rule:evenodd;fill:rgb(0%,0%,0%);fill-opacity:1;" d="M 139.726562 316.527344 C 139.703125 316.617188 139.65625 316.695312 139.585938 316.761719 C 139.511719 316.828125 139.433594 316.863281 139.347656 316.859375 C 139.316406 316.875 139.285156 316.882812 139.238281 316.882812 C 139.152344 316.882812 139.113281 316.875 139.113281 316.859375 C 138.933594 316.863281 138.835938 316.785156 138.820312 316.632812 L 138.820312 316.558594 C 138.863281 316.230469 138.898438 315.902344 138.929688 315.566406 C 138.957031 315.3125 138.972656 315.074219 138.972656 314.859375 L 138.972656 314.679688 C 138.957031 314.402344 138.921875 314.152344 138.867188 313.933594 C 138.816406 313.714844 138.71875 313.527344 138.582031 313.375 C 138.3125 313.054688 137.902344 312.867188 137.367188 312.808594 C 136.828125 312.746094 136.253906 312.71875 135.644531 312.71875 L 133.328125 312.71875 C 132.949219 312.71875 132.726562 312.746094 132.664062 312.800781 C 132.625 312.832031 132.554688 313.035156 132.445312 313.417969 L 131.113281 318.511719 L 132.597656 318.511719 C 133 318.511719 133.367188 318.492188 133.695312 318.457031 C 134.027344 318.425781 134.3125 318.320312 134.546875 318.144531 C 134.761719 317.972656 134.925781 317.726562 135.035156 317.414062 C 135.148438 317.101562 135.257812 316.742188 135.363281 316.339844 C 135.445312 316.132812 135.582031 316.03125 135.773438 316.035156 L 135.957031 316.035156 C 136.15625 316.039062 136.257812 316.128906 136.257812 316.308594 L 136.257812 316.382812 L 134.910156 321.546875 C 134.867188 321.765625 134.730469 321.867188 134.492188 321.859375 L 134.320312 321.859375 C 134.117188 321.859375 134.019531 321.777344 134.019531 321.609375 C 134.019531 321.570312 134.03125 321.53125 134.050781 321.496094 C 134.144531 321.105469 134.210938 320.746094 134.253906 320.421875 C 134.269531 320.335938 134.277344 320.265625 134.277344 320.199219 C 134.277344 320.007812 134.234375 319.851562 134.148438 319.730469 C 134.027344 319.566406 133.808594 319.464844 133.496094 319.433594 C 133.183594 319.402344 132.835938 319.386719 132.445312 319.386719 L 130.894531 319.386719 L 129.421875 325.105469 C 129.351562 325.351562 129.3125 325.53125 129.3125 325.648438 L 129.3125 325.691406 C 129.34375 325.71875 129.542969 325.734375 129.917969 325.742188 L 132.382812 325.742188 C 133.023438 325.742188 133.640625 325.699219 134.242188 325.613281 C 134.839844 325.527344 135.398438 325.304688 135.914062 324.949219 C 136.140625 324.78125 136.363281 324.5625 136.570312 324.28125 C 136.78125 324.003906 136.976562 323.695312 137.164062 323.359375 C 137.351562 323.019531 137.527344 322.664062 137.695312 322.285156 C 137.863281 321.90625 138.03125 321.53125 138.195312 321.160156 C 138.253906 320.996094 138.378906 320.910156 138.574219 320.910156 L 138.757812 320.910156 C 138.957031 320.910156 139.058594 321 139.058594 321.183594 L 139.058594 321.265625 L 136.914062 326.359375 C 136.835938 326.527344 136.707031 326.609375 136.527344 326.609375 L 125.332031 326.609375 C 125.222656 326.609375 125.144531 326.578125 125.09375 326.515625 C 125.042969 326.464844 125.019531 326.414062 125.019531 326.359375 C 125.019531 326.316406 125.027344 326.277344 125.042969 326.234375 L 125.082031 326.078125 C 125.105469 325.988281 125.15625 325.910156 125.234375 325.84375 C 125.3125 325.777344 125.402344 325.742188 125.503906 325.742188 C 125.839844 325.742188 126.15625 325.738281 126.453125 325.726562 C 126.746094 325.71875 126.964844 325.679688 127.117188 325.617188 C 127.246094 325.546875 127.347656 325.359375 127.421875 325.054688 L 130.445312 313.363281 C 130.488281 313.210938 130.507812 313.089844 130.507812 313 C 130.507812 312.914062 130.492188 312.867188 130.457031 312.855469 C 130.355469 312.789062 130.15625 312.753906 129.863281 312.738281 C 129.570312 312.726562 129.253906 312.71875 128.914062 312.71875 C 128.714844 312.71875 128.613281 312.625 128.613281 312.433594 L 128.613281 312.363281 L 128.65625 312.1875 C 128.714844 311.957031 128.855469 311.84375 129.078125 311.84375 L 139.984375 311.84375 C 140.160156 311.84375 140.257812 311.929688 140.273438 312.101562 L 140.273438 312.175781 Z M 139.726562 316.527344 "/>
<path style=" stroke:none;fill-rule:evenodd;fill:rgb(0%,0%,0%);fill-opacity:1;" d="M 148.445312 324.621094 C 148.003906 325.363281 147.597656 326.109375 147.230469 326.859375 C 146.859375 327.605469 146.53125 328.367188 146.25 329.136719 C 146.210938 329.40625 146.167969 329.675781 146.109375 329.949219 C 146.050781 330.222656 145.984375 330.492188 145.90625 330.761719 C 145.90625 330.769531 145.890625 330.832031 145.867188 330.945312 C 145.828125 331.09375 145.777344 331.261719 145.710938 331.449219 C 145.640625 331.636719 145.5625 331.820312 145.46875 331.988281 C 145.371094 332.160156 145.269531 332.246094 145.164062 332.246094 C 145.039062 332.246094 144.972656 332.15625 144.96875 331.976562 C 144.96875 331.957031 144.972656 331.941406 144.980469 331.929688 C 144.980469 331.78125 145 331.609375 145.042969 331.421875 C 145.089844 331.230469 145.132812 331.0625 145.175781 330.914062 L 145.230469 330.746094 C 145.378906 330.207031 145.558594 329.667969 145.769531 329.125 C 145.804688 328.816406 145.824219 328.503906 145.824219 328.191406 L 145.824219 327.8125 C 145.796875 327.394531 145.722656 326.988281 145.59375 326.585938 C 145.46875 326.1875 145.238281 325.859375 144.902344 325.605469 C 144.570312 325.351562 144.148438 325.222656 143.644531 325.222656 C 143.414062 325.222656 143.1875 325.253906 142.960938 325.320312 C 142.738281 325.386719 142.53125 325.480469 142.339844 325.59375 C 142.152344 325.707031 141.988281 325.84375 141.855469 326.003906 C 141.71875 326.160156 141.628906 326.335938 141.578125 326.527344 C 141.523438 326.625 141.445312 326.671875 141.347656 326.671875 L 141.261719 326.671875 C 141.199219 326.671875 141.160156 326.65625 141.128906 326.625 C 141.101562 326.609375 141.082031 326.582031 141.082031 326.542969 C 141.082031 326.527344 141.09375 326.511719 141.105469 326.492188 C 141.1875 326.207031 141.3125 325.929688 141.488281 325.65625 C 141.660156 325.386719 141.871094 325.148438 142.121094 324.9375 C 142.371094 324.730469 142.644531 324.5625 142.945312 324.4375 C 143.242188 324.308594 143.558594 324.246094 143.886719 324.246094 C 144.242188 324.246094 144.542969 324.316406 144.789062 324.449219 C 145.03125 324.585938 145.234375 324.761719 145.394531 324.96875 C 145.554688 325.175781 145.6875 325.410156 145.796875 325.664062 C 145.90625 325.917969 145.996094 326.167969 146.074219 326.414062 C 146.15625 326.683594 146.214844 326.957031 146.253906 327.234375 C 146.292969 327.511719 146.3125 327.691406 146.316406 327.777344 C 146.746094 326.753906 147.308594 325.667969 148.007812 324.507812 C 148.042969 324.421875 148.109375 324.378906 148.214844 324.375 C 148.277344 324.375 148.324219 324.378906 148.347656 324.386719 C 148.433594 324.402344 148.476562 324.445312 148.476562 324.519531 C 148.476562 324.542969 148.464844 324.578125 148.445312 324.621094 Z M 148.445312 324.621094 "/>
<path style="fill:none;stroke-width:15;stroke-linecap:round;stroke-linejoin:round;stroke:rgb(0%,0%,0%);stroke-opacity:1;stroke-miterlimit:10;" d="M 3475.972861 1583.190533 L 5664.173411 2816.736881 " transform="matrix(0.106494,0,0,-0.10634,0,461.2477)"/>
<path style=" stroke:none;fill-rule:evenodd;fill:rgb(0%,0%,0%);fill-opacity:1;" d="M 607.039062 161.714844 C 607.039062 163.828125 605.320312 165.542969 603.203125 165.542969 C 601.085938 165.542969 599.371094 163.828125 599.371094 161.714844 C 599.371094 159.601562 601.085938 157.886719 603.203125 157.886719 C 605.320312 157.886719 607.039062 159.601562 607.039062 161.714844 Z M 607.039062 161.714844 "/>
<path style="fill:none;stroke-width:15;stroke-linecap:round;stroke-linejoin:round;stroke:rgb(0%,0%,0%);stroke-opacity:1;stroke-dasharray:120,60;stroke-miterlimit:10;" d="M 5665.860705 2817.655218 L 6713.046864 3407.998667 " transform="matrix(0.106494,0,0,-0.10634,0,461.2477)"/>
<path style="fill:none;stroke-width:15;stroke-linecap:round;stroke-linejoin:round;stroke:rgb(0%,0%,0%);stroke-opacity:1;stroke-dasharray:120,60;stroke-miterlimit:10;" d="M 3499.044775 1583.190533 L 6713.046864 1583.190533 " transform="matrix(0.106494,0,0,-0.10634,0,461.2477)"/>
<path style="fill:none;stroke-width:15;stroke-linecap:round;stroke-linejoin:round;stroke:rgb(0%,0%,0%);stroke-opacity:1;stroke-miterlimit:10;" d="M 3889.726753 1806.493242 C 3928.607881 1738.462872 3949.038814 1661.506272 3949.038814 1583.190533 " transform="matrix(0.106494,0,0,-0.10634,0,461.2477)"/>
<path style=" stroke:none;fill-rule:evenodd;fill:rgb(0%,0%,0%);fill-opacity:1;" d="M 441.445312 276.824219 C 441.257812 277.5 440.9375 278.136719 440.484375 278.738281 C 440.027344 279.339844 439.488281 279.863281 438.863281 280.308594 C 438.222656 280.753906 437.554688 281.097656 436.847656 281.339844 C 436.148438 281.578125 435.464844 281.714844 434.804688 281.75 L 433.835938 285.601562 C 433.757812 285.789062 433.625 285.886719 433.4375 285.894531 L 433.328125 285.894531 C 433.140625 285.894531 433.050781 285.824219 433.050781 285.683594 C 433.050781 285.648438 433.054688 285.601562 433.070312 285.539062 L 434.027344 281.738281 C 433.449219 281.71875 432.863281 281.585938 432.273438 281.34375 C 431.6875 281.101562 431.179688 280.75 430.757812 280.296875 C 430.355469 279.847656 430.082031 279.3125 429.9375 278.691406 C 429.878906 278.429688 429.851562 278.148438 429.851562 277.855469 C 429.851562 277.507812 429.894531 277.148438 429.980469 276.769531 C 430.167969 276.074219 430.488281 275.425781 430.945312 274.820312 C 431.402344 274.214844 431.941406 273.691406 432.566406 273.242188 C 433.203125 272.800781 433.875 272.457031 434.574219 272.214844 C 435.273438 271.976562 435.945312 271.84375 436.589844 271.8125 L 437.914062 266.71875 C 437.957031 266.539062 438.085938 266.449219 438.292969 266.449219 L 438.398438 266.449219 C 438.578125 266.449219 438.675781 266.527344 438.691406 266.679688 L 438.691406 266.753906 L 437.375 271.824219 C 437.972656 271.847656 438.566406 271.976562 439.152344 272.214844 C 439.742188 272.457031 440.238281 272.800781 440.644531 273.253906 C 441.050781 273.707031 441.332031 274.234375 441.488281 274.839844 C 441.5625 275.121094 441.597656 275.410156 441.597656 275.71875 C 441.597656 276.066406 441.546875 276.433594 441.445312 276.824219 Z M 439.722656 276.761719 C 439.859375 276.308594 439.929688 275.855469 439.929688 275.402344 L 439.929688 275.101562 C 439.886719 274.582031 439.730469 274.125 439.464844 273.734375 C 439.207031 273.367188 438.875 273.078125 438.46875 272.867188 C 438.0625 272.660156 437.640625 272.542969 437.203125 272.511719 L 434.988281 281.0625 C 435.425781 281.039062 435.90625 280.921875 436.425781 280.703125 C 436.945312 280.480469 437.425781 280.191406 437.871094 279.828125 C 438.359375 279.433594 438.753906 278.96875 439.050781 278.429688 C 439.347656 277.894531 439.574219 277.339844 439.722656 276.761719 Z M 436.429688 272.523438 C 435.445312 272.585938 434.484375 272.996094 433.542969 273.753906 C 433.058594 274.152344 432.664062 274.617188 432.359375 275.152344 C 432.058594 275.691406 431.835938 276.242188 431.691406 276.8125 C 431.5625 277.308594 431.5 277.777344 431.5 278.222656 L 431.5 278.472656 C 431.527344 278.996094 431.683594 279.453125 431.960938 279.851562 C 432.207031 280.207031 432.535156 280.488281 432.945312 280.703125 C 433.359375 280.914062 433.78125 281.035156 434.210938 281.0625 Z M 436.429688 272.523438 "/>
<path style="fill:none;stroke-width:15;stroke-linecap:round;stroke-linejoin:round;stroke:rgb(0%,0%,0%);stroke-opacity:1;stroke-miterlimit:10;" d="M 3481.731669 1583.190533 L 3965.728355 1365.544778 C 3981.867691 1369.254857 4030.505781 1413.188076 4062.454331 1387.841989 C 4094.402881 1362.532634 4109.331767 1235.177725 4157.419653 1213.57845 C 4205.470858 1191.942442 4302.747039 1279.772147 4350.798245 1258.172872 C 4398.886131 1236.573597 4397.712361 1105.508609 4445.763566 1083.909334 C 4493.851452 1062.273325 4591.127633 1150.10303 4639.178839 1128.503755 C 4687.230045 1106.90448 4686.092955 975.839492 4734.144161 954.240217 C 4782.195366 932.604208 4879.471547 1020.433913 4927.522753 998.834638 C 4975.610639 977.235363 4974.436869 846.170375 5022.524755 824.5711 C 5070.57596 802.935092 5167.852142 890.764797 5215.903347 869.165522 C 5263.954553 847.566247 5262.817463 716.501258 5310.868669 694.901983 C 5358.956555 673.265975 5456.232736 761.09568 5504.283941 739.496405 C 5552.335147 717.89713 5551.198057 586.832142 5599.249263 565.232867 C 5647.300469 543.596858 5744.57665 631.426563 5792.627855 609.827288 C 5840.715741 588.228013 5855.681307 460.873104 5887.593177 435.527016 C 5919.541727 410.217662 5968.216497 454.114148 5984.319153 457.860961 L 6630.662889 167.225819 " transform="matrix(0.106494,0,0,-0.10634,0,461.2477)"/>
<path style="fill:none;stroke-width:15;stroke-linecap:round;stroke-linejoin:round;stroke:rgb(0%,0%,0%);stroke-opacity:1;stroke-miterlimit:10;" d="M 3857.924925 1583.190533 C 3857.924925 1532.351423 3847.140914 1482.063316 3826.233137 1435.705688 " transform="matrix(0.106494,0,0,-0.10634,0,461.2477)"/>
<path style=" stroke:none;fill-rule:evenodd;fill:rgb(0%,0%,0%);fill-opacity:1;" d="M 425.882812 296.859375 C 426.054688 297.519531 426.140625 298.195312 426.140625 298.882812 C 426.140625 299.101562 426.132812 299.308594 426.117188 299.507812 C 426.046875 300.429688 425.894531 301.351562 425.65625 302.273438 C 425.398438 303.207031 425.070312 304.132812 424.675781 305.046875 C 424.28125 305.960938 423.757812 306.839844 423.105469 307.683594 C 422.882812 307.96875 422.636719 308.25 422.367188 308.527344 C 422.097656 308.804688 421.808594 309.054688 421.5 309.273438 C 421.191406 309.492188 420.871094 309.671875 420.539062 309.8125 C 420.203125 309.949219 419.855469 310.019531 419.488281 310.019531 C 419.113281 310.019531 418.792969 309.949219 418.523438 309.804688 C 418.253906 309.664062 418.023438 309.480469 417.828125 309.253906 C 417.636719 309.027344 417.476562 308.773438 417.351562 308.496094 C 417.226562 308.21875 417.121094 307.933594 417.042969 307.640625 C 416.863281 306.992188 416.773438 306.324219 416.773438 305.636719 C 416.773438 305.414062 416.789062 305.195312 416.816406 304.976562 C 416.875 304.074219 417.03125 303.160156 417.28125 302.234375 C 417.515625 301.300781 417.835938 300.378906 418.238281 299.46875 C 418.640625 298.558594 419.175781 297.675781 419.84375 296.828125 C 420.066406 296.542969 420.308594 296.257812 420.574219 295.976562 C 420.839844 295.695312 421.125 295.445312 421.425781 295.226562 C 421.726562 295.007812 422.042969 294.828125 422.378906 294.6875 C 422.710938 294.550781 423.066406 294.480469 423.4375 294.480469 C 423.8125 294.480469 424.132812 294.550781 424.398438 294.695312 C 424.660156 294.835938 424.898438 295.019531 425.101562 295.242188 C 425.308594 295.464844 425.46875 295.71875 425.585938 296.003906 C 425.707031 296.289062 425.804688 296.574219 425.882812 296.859375 Z M 424.429688 297.101562 C 424.398438 296.828125 424.363281 296.574219 424.320312 296.339844 C 424.277344 296.101562 424.214844 295.894531 424.132812 295.722656 C 424.050781 295.550781 423.945312 295.414062 423.816406 295.320312 C 423.6875 295.226562 423.519531 295.179688 423.320312 295.179688 C 422.902344 295.179688 422.519531 295.371094 422.167969 295.757812 C 421.816406 296.144531 421.476562 296.605469 421.144531 297.140625 C 420.671875 297.90625 420.304688 298.691406 420.046875 299.5 C 419.789062 300.308594 419.566406 301.085938 419.378906 301.835938 L 423.761719 301.835938 C 423.957031 301.050781 424.136719 300.25 424.300781 299.4375 C 424.414062 298.886719 424.472656 298.34375 424.472656 297.808594 C 424.472656 297.570312 424.457031 297.335938 424.429688 297.101562 Z M 419.152344 302.683594 C 418.960938 303.46875 418.792969 304.261719 418.648438 305.0625 C 418.535156 305.640625 418.476562 306.21875 418.476562 306.792969 C 418.476562 307.011719 418.484375 307.21875 418.496094 307.421875 C 418.511719 307.691406 418.542969 307.945312 418.59375 308.183594 C 418.644531 308.421875 418.710938 308.625 418.792969 308.792969 C 418.875 308.964844 418.984375 309.097656 419.121094 309.191406 C 419.257812 309.285156 419.421875 309.332031 419.617188 309.332031 C 420.027344 309.332031 420.40625 309.140625 420.761719 308.757812 C 421.117188 308.375 421.453125 307.914062 421.769531 307.378906 C 422.242188 306.601562 422.609375 305.8125 422.867188 305.011719 C 423.125 304.210938 423.347656 303.433594 423.535156 302.683594 Z M 419.152344 302.683594 "/>
<path style=" stroke:none;fill-rule:evenodd;fill:rgb(0%,0%,0%);fill-opacity:1;" d="M 616.984375 178.40625 C 617.683594 176.546875 618.027344 174.070312 618.027344 170.976562 C 618.027344 167.886719 618 165.601562 617.929688 164.128906 L 619.351562 164.863281 C 621.878906 164.683594 624.503906 164.351562 627.214844 163.859375 C 629.933594 163.367188 631.605469 162.9375 632.242188 162.566406 L 633.75 164.402344 C 632.933594 164.34375 630.945312 164.472656 627.785156 164.769531 C 624.628906 165.082031 621.816406 165.296875 619.351562 165.414062 L 619.351562 169.914062 L 631.101562 169.914062 L 632.046875 168.992188 L 633.660156 170.464844 L 632.710938 171.105469 C 630.882812 174.417969 629.300781 176.742188 627.972656 178.085938 C 630.3125 179.929688 633.089844 181.125 636.308594 181.667969 L 636.308594 181.945312 C 635.304688 182.128906 634.578125 182.585938 634.128906 183.320312 C 631.355469 182.097656 629.019531 180.664062 627.125 179.003906 C 624.410156 180.910156 621.058594 182.347656 617.082031 183.320312 L 617.082031 182.953125 C 621.375 181.371094 624.4375 179.746094 626.265625 178.085938 C 624.25 175.953125 622.730469 173.410156 621.71875 170.464844 L 619.351562 170.464844 C 619.421875 173.894531 619.039062 176.566406 618.21875 178.460938 C 617.398438 180.359375 616.070312 182.070312 614.234375 183.597656 L 613.953125 183.320312 C 615.28125 181.914062 616.292969 180.28125 616.984375 178.40625 Z M 622.289062 170.464844 C 623.871094 173.59375 625.449219 175.824219 627.027344 177.167969 C 628.734375 175.335938 630.125 173.105469 631.191406 170.464844 Z M 622.289062 170.464844 "/>
<path style=" stroke:none;fill-rule:evenodd;fill:rgb(0%,0%,0%);fill-opacity:1;" d="M 643.898438 176.433594 C 643.964844 174.785156 643.992188 173.167969 643.992188 171.570312 C 643.992188 169.980469 643.964844 168.386719 643.898438 166.789062 L 645.320312 167.523438 L 649.585938 167.523438 C 649.585938 165.574219 649.554688 163.792969 649.488281 162.199219 L 651.476562 163.023438 L 650.90625 163.667969 L 650.90625 167.523438 L 655.074219 167.523438 L 655.929688 166.515625 L 657.441406 167.710938 L 656.59375 168.351562 C 656.59375 172.152344 656.628906 174.417969 656.691406 175.148438 L 655.265625 175.699219 L 655.265625 174.414062 L 650.90625 174.414062 C 650.90625 179.378906 650.941406 182.28125 651.003906 183.136719 L 649.488281 183.597656 C 649.554688 180.96875 649.585938 177.910156 649.585938 174.414062 L 645.320312 174.414062 L 645.320312 175.882812 Z M 645.320312 168.074219 L 645.320312 173.863281 L 649.585938 173.863281 L 649.585938 168.074219 Z M 650.90625 168.074219 L 650.90625 173.863281 L 655.265625 173.863281 L 655.265625 168.074219 Z M 636.605469 163.667969 C 639.066406 164.894531 640.347656 165.730469 640.441406 166.152344 C 640.535156 166.585938 640.582031 166.886719 640.582031 167.066406 C 640.582031 167.558594 640.472656 167.898438 640.253906 168.082031 C 640.039062 168.265625 639.894531 168.359375 639.824219 168.351562 C 639.515625 168.359375 639.199219 167.925781 638.875 167.066406 C 638.4375 166.035156 637.617188 164.988281 636.414062 163.941406 Z M 635.9375 175.972656 C 637.019531 176.226562 637.695312 176.347656 637.976562 176.347656 C 638.265625 176.347656 638.582031 176.070312 638.929688 175.519531 C 639.273438 174.96875 640.707031 171.785156 643.234375 165.964844 L 643.710938 166.148438 C 641.058594 172.886719 639.703125 176.578125 639.640625 177.21875 C 639.578125 177.863281 639.542969 178.339844 639.542969 178.636719 C 639.542969 179.378906 639.605469 180.175781 639.734375 181.027344 C 639.859375 182.3125 639.703125 182.953125 639.261719 182.953125 C 638.820312 182.953125 638.4375 182.816406 638.125 182.542969 C 637.804688 182.265625 637.644531 181.914062 637.644531 181.484375 C 637.644531 181.308594 637.710938 181.003906 637.835938 180.566406 C 638.023438 179.71875 638.117188 178.953125 638.117188 178.277344 C 638.117188 177.605469 637.363281 176.992188 635.847656 176.433594 Z M 635.9375 175.972656 "/>
<path style=" stroke:none;fill-rule:evenodd;fill:rgb(0%,0%,0%);fill-opacity:1;" d="M 667.59375 167.066406 C 667.59375 165.296875 667.5625 163.671875 667.492188 162.199219 L 669.671875 163.207031 L 668.921875 163.851562 L 668.921875 167.066406 L 674.699219 167.066406 L 675.648438 166.148438 L 676.96875 167.433594 L 676.117188 168.074219 C 676.117188 172.976562 676.152344 176.042969 676.214844 177.261719 L 674.789062 177.902344 L 674.789062 176.800781 L 668.921875 176.800781 L 668.921875 180.933594 C 668.921875 181.609375 669.300781 181.945312 670.050781 181.945312 L 676.589844 181.945312 C 677.164062 181.886719 677.480469 181.566406 677.542969 180.984375 C 677.605469 180.40625 677.671875 179.222656 677.726562 177.445312 L 678.207031 177.445312 C 678.207031 178.980469 678.320312 179.992188 678.539062 180.480469 C 678.757812 180.972656 679.089844 181.371094 679.527344 181.667969 C 679.273438 182.164062 678.964844 182.511719 678.585938 182.726562 C 678.207031 182.941406 677.671875 183.046875 676.96875 183.046875 L 669.582031 183.046875 C 668.257812 183.046875 667.59375 182.4375 667.59375 181.210938 L 667.59375 176.800781 L 661.90625 176.800781 L 661.90625 178.085938 L 660.488281 178.730469 C 660.550781 176.652344 660.578125 174.511719 660.578125 172.304688 C 660.578125 170.101562 660.550781 168.082031 660.488281 166.238281 L 662.003906 167.066406 Z M 661.90625 167.617188 L 661.90625 171.566406 L 667.59375 171.566406 L 667.59375 167.617188 Z M 668.921875 167.617188 L 668.921875 171.566406 L 674.789062 171.566406 L 674.789062 167.617188 Z M 661.90625 172.117188 L 661.90625 176.25 L 667.59375 176.25 L 667.59375 172.117188 Z M 668.921875 172.117188 L 668.921875 176.25 L 674.789062 176.25 L 674.789062 172.117188 Z M 668.921875 172.117188 "/>
<path style=" stroke:none;fill-rule:evenodd;fill:rgb(0%,0%,0%);fill-opacity:1;" d="M 682.660156 163.851562 L 696.589844 163.851562 L 697.820312 162.75 L 699.617188 164.769531 C 698.859375 164.777344 697.898438 165.097656 696.734375 165.738281 C 695.566406 166.382812 693.90625 167.4375 691.753906 168.902344 L 692.613281 169.453125 L 691.5625 170.003906 L 691.5625 171.75 L 698.105469 171.75 L 699.617188 170.28125 L 701.703125 172.300781 L 691.5625 172.300781 L 691.5625 181.117188 C 691.5625 182.28125 690.746094 183.136719 689.105469 183.6875 C 689.105469 182.769531 688.0625 182.035156 685.976562 181.484375 L 685.976562 181.027344 C 687.683594 181.214844 688.824219 181.308594 689.390625 181.308594 C 689.960938 181.308594 690.214844 180.875 690.144531 180.015625 L 690.144531 172.300781 L 682.757812 172.300781 C 681.941406 172.304688 681.183594 172.398438 680.480469 172.578125 L 679.628906 171.75 L 690.144531 171.75 C 690.144531 170.40625 690.117188 169.089844 690.054688 167.800781 L 691.375 168.628906 L 696.589844 164.402344 L 685.789062 164.402344 C 684.972656 164.410156 684.210938 164.5 683.515625 164.679688 Z M 682.660156 163.851562 "/>
<path style=" stroke:none;fill-rule:evenodd;fill:rgb(0%,0%,0%);fill-opacity:1;" d="M 719.003906 170.492188 C 718.984375 170.585938 718.9375 170.664062 718.863281 170.730469 C 718.792969 170.796875 718.714844 170.828125 718.628906 170.828125 C 718.597656 170.839844 718.5625 170.847656 718.519531 170.847656 C 718.433594 170.847656 718.390625 170.839844 718.390625 170.828125 C 718.210938 170.828125 718.113281 170.75 718.101562 170.597656 L 718.101562 170.523438 C 718.140625 170.199219 718.179688 169.867188 718.207031 169.535156 C 718.234375 169.277344 718.25 169.039062 718.25 168.824219 L 718.25 168.644531 C 718.234375 168.367188 718.203125 168.121094 718.148438 167.902344 C 718.09375 167.679688 718 167.496094 717.863281 167.339844 C 717.589844 167.023438 717.183594 166.832031 716.648438 166.773438 C 716.109375 166.714844 715.535156 166.683594 714.925781 166.683594 L 712.609375 166.683594 C 712.230469 166.683594 712.007812 166.710938 711.941406 166.765625 C 711.90625 166.796875 711.835938 167 711.726562 167.382812 L 710.390625 172.476562 L 711.878906 172.476562 C 712.28125 172.476562 712.648438 172.460938 712.976562 172.425781 C 713.308594 172.390625 713.589844 172.285156 713.828125 172.109375 C 714.042969 171.9375 714.207031 171.695312 714.316406 171.382812 C 714.429688 171.066406 714.535156 170.710938 714.644531 170.304688 C 714.722656 170.097656 714.859375 169.996094 715.054688 170.003906 L 715.238281 170.003906 C 715.4375 170.003906 715.539062 170.09375 715.539062 170.273438 L 715.539062 170.347656 L 714.191406 175.511719 C 714.148438 175.730469 714.011719 175.832031 713.773438 175.828125 L 713.597656 175.828125 C 713.398438 175.828125 713.300781 175.742188 713.300781 175.574219 C 713.300781 175.535156 713.308594 175.496094 713.332031 175.460938 C 713.425781 175.070312 713.492188 174.714844 713.535156 174.386719 C 713.550781 174.304688 713.558594 174.230469 713.558594 174.167969 C 713.558594 173.972656 713.515625 173.816406 713.429688 173.695312 C 713.308594 173.53125 713.089844 173.433594 712.777344 173.398438 C 712.464844 173.367188 712.113281 173.351562 711.726562 173.351562 L 710.175781 173.351562 L 708.703125 179.070312 C 708.628906 179.316406 708.59375 179.496094 708.59375 179.613281 L 708.59375 179.65625 C 708.625 179.683594 708.824219 179.703125 709.195312 179.707031 L 711.664062 179.707031 C 712.300781 179.710938 712.921875 179.667969 713.519531 179.578125 C 714.117188 179.492188 714.675781 179.269531 715.191406 178.914062 C 715.421875 178.75 715.640625 178.527344 715.851562 178.25 C 716.058594 177.96875 716.253906 177.664062 716.441406 177.324219 C 716.628906 176.988281 716.808594 176.628906 716.976562 176.25 C 717.144531 175.871094 717.3125 175.496094 717.476562 175.128906 C 717.535156 174.960938 717.660156 174.878906 717.851562 174.875 L 718.035156 174.875 C 718.234375 174.878906 718.339844 174.96875 718.339844 175.148438 L 718.339844 175.230469 L 716.195312 180.324219 C 716.117188 180.492188 715.988281 180.574219 715.808594 180.574219 L 704.613281 180.574219 C 704.503906 180.574219 704.425781 180.542969 704.375 180.480469 C 704.324219 180.433594 704.300781 180.378906 704.296875 180.324219 C 704.300781 180.285156 704.308594 180.242188 704.320312 180.199219 L 704.363281 180.042969 C 704.386719 179.953125 704.4375 179.875 704.515625 179.808594 C 704.59375 179.742188 704.683594 179.710938 704.785156 179.707031 C 705.121094 179.710938 705.4375 179.703125 705.730469 179.695312 C 706.027344 179.683594 706.246094 179.648438 706.398438 179.582031 C 706.527344 179.515625 706.628906 179.328125 706.699219 179.019531 L 709.726562 167.332031 C 709.769531 167.175781 709.789062 167.054688 709.789062 166.964844 C 709.789062 166.882812 709.773438 166.832031 709.734375 166.820312 C 709.636719 166.757812 709.4375 166.71875 709.144531 166.707031 C 708.851562 166.691406 708.535156 166.683594 708.195312 166.683594 C 707.996094 166.683594 707.894531 166.589844 707.894531 166.402344 L 707.894531 166.328125 L 707.9375 166.152344 C 707.996094 165.921875 708.136719 165.808594 708.359375 165.808594 L 719.261719 165.808594 C 719.441406 165.808594 719.539062 165.894531 719.554688 166.066406 L 719.554688 166.140625 Z M 719.003906 170.492188 "/>
<path style=" stroke:none;fill-rule:evenodd;fill:rgb(0%,0%,0%);fill-opacity:1;" d="M 724.953125 184.347656 C 724.878906 184.601562 724.746094 184.835938 724.558594 185.050781 C 724.371094 185.265625 724.15625 185.449219 723.90625 185.597656 C 723.660156 185.75 723.386719 185.871094 723.089844 185.957031 C 722.792969 186.042969 722.496094 186.085938 722.199219 186.085938 C 721.996094 186.085938 721.78125 186.078125 721.550781 186.0625 C 721.324219 186.046875 721.113281 186.007812 720.925781 185.945312 C 720.738281 185.886719 720.597656 185.792969 720.503906 185.664062 C 720.433594 185.585938 720.394531 185.488281 720.390625 185.367188 C 720.390625 185.308594 720.398438 185.238281 720.417969 185.160156 C 720.464844 184.984375 720.566406 184.855469 720.71875 184.769531 C 720.871094 184.683594 721.027344 184.640625 721.179688 184.640625 C 721.335938 184.640625 721.46875 184.6875 721.570312 184.773438 C 721.648438 184.84375 721.6875 184.925781 721.6875 185.03125 C 721.6875 185.074219 721.679688 185.125 721.660156 185.183594 C 721.625 185.308594 721.570312 185.410156 721.484375 185.492188 C 721.398438 185.570312 721.351562 185.609375 721.339844 185.609375 C 721.371094 185.621094 721.472656 185.640625 721.65625 185.660156 C 721.835938 185.683594 722.042969 185.691406 722.273438 185.691406 C 722.457031 185.691406 722.636719 185.65625 722.8125 185.585938 C 722.984375 185.511719 723.144531 185.414062 723.292969 185.285156 C 723.441406 185.15625 723.570312 185.007812 723.683594 184.84375 C 723.796875 184.683594 723.878906 184.507812 723.933594 184.324219 L 724.292969 183.074219 C 724.1875 183.164062 724.003906 183.277344 723.738281 183.414062 C 723.472656 183.550781 723.195312 183.617188 722.910156 183.617188 C 722.5625 183.617188 722.265625 183.542969 722.011719 183.386719 C 721.761719 183.234375 721.570312 183.035156 721.433594 182.792969 C 721.273438 182.515625 721.1875 182.210938 721.179688 181.882812 L 721.179688 181.8125 C 721.179688 181.511719 721.222656 181.207031 721.3125 180.902344 C 721.410156 180.558594 721.554688 180.226562 721.753906 179.910156 C 721.953125 179.59375 722.210938 179.296875 722.53125 179.019531 C 722.792969 178.785156 723.089844 178.59375 723.417969 178.441406 C 723.75 178.289062 724.085938 178.210938 724.425781 178.210938 C 724.71875 178.210938 724.964844 178.28125 725.15625 178.417969 C 725.351562 178.558594 725.472656 178.675781 725.527344 178.765625 L 725.496094 178.878906 C 725.535156 178.734375 725.617188 178.628906 725.738281 178.558594 C 725.867188 178.488281 725.988281 178.453125 726.113281 178.453125 C 726.246094 178.453125 726.355469 178.488281 726.441406 178.5625 C 726.496094 178.613281 726.527344 178.683594 726.527344 178.773438 C 726.527344 178.816406 726.523438 178.859375 726.511719 178.902344 Z M 725.269531 179.660156 C 725.261719 179.585938 725.25 179.515625 725.230469 179.445312 C 725.214844 179.375 725.191406 179.304688 725.167969 179.234375 C 725.097656 179.050781 724.996094 178.902344 724.863281 178.78125 C 724.730469 178.664062 724.5625 178.605469 724.359375 178.605469 C 724.171875 178.605469 723.984375 178.664062 723.800781 178.785156 C 723.613281 178.90625 723.445312 179.058594 723.292969 179.242188 C 723.085938 179.496094 722.929688 179.765625 722.820312 180.050781 C 722.714844 180.335938 722.609375 180.628906 722.515625 180.925781 C 722.4375 181.226562 722.367188 181.523438 722.304688 181.8125 C 722.269531 181.953125 722.253906 182.089844 722.253906 182.222656 C 722.253906 182.363281 722.269531 182.496094 722.304688 182.625 C 722.347656 182.800781 722.421875 182.945312 722.535156 183.0625 C 722.648438 183.179688 722.800781 183.238281 722.988281 183.238281 C 723.195312 183.238281 723.402344 183.175781 723.609375 183.046875 C 723.820312 182.921875 724.011719 182.769531 724.191406 182.589844 C 724.320312 182.453125 724.445312 182.304688 724.5625 182.144531 Z M 725.269531 179.660156 "/>
<path style=" stroke:none;fill-rule:evenodd;fill:rgb(0%,0%,0%);fill-opacity:1;" d="M 662.226562 406.800781 C 663.742188 403.746094 664.882812 399.949219 665.632812 395.410156 L 667.8125 396.605469 L 666.960938 397.066406 C 666.582031 398.421875 666.109375 399.828125 665.542969 401.289062 L 670.277344 401.289062 L 671.417969 400.1875 L 673.117188 401.839844 L 670.371094 401.839844 C 670.058594 405.886719 669.363281 409.132812 668.289062 411.578125 C 669.871094 413.539062 671.515625 414.703125 673.214844 415.066406 L 673.214844 415.433594 C 672.203125 415.558594 671.605469 415.894531 671.417969 416.445312 C 669.898438 415.40625 668.605469 414.125 667.53125 412.585938 C 665.449219 414.734375 663.144531 416.203125 660.617188 416.996094 L 660.519531 416.71875 C 663.300781 415.3125 665.386719 413.601562 666.773438 411.578125 C 665.449219 408.578125 664.753906 405.796875 664.691406 403.21875 C 663.933594 404.878906 663.207031 406.132812 662.507812 406.984375 Z M 665.351562 401.839844 L 664.972656 402.667969 C 665.542969 405.859375 666.363281 408.394531 667.433594 410.289062 C 668.191406 408.394531 668.699219 405.582031 668.953125 401.839844 Z M 655.6875 399.910156 L 655.6875 403.128906 L 658.339844 403.128906 L 658.339844 399.910156 Z M 654.359375 406.066406 L 654.359375 408.453125 L 659.476562 408.453125 L 659.476562 406.066406 Z M 654.359375 409.003906 L 654.359375 411.300781 L 659.476562 411.300781 L 659.476562 409.003906 Z M 656.449219 396.515625 L 655.6875 397.15625 L 655.6875 399.359375 L 658.339844 399.359375 C 658.339844 398.203125 658.308594 396.980469 658.246094 395.6875 L 660.328125 396.699219 L 659.574219 397.25 L 659.574219 399.359375 L 660.425781 399.359375 L 661.464844 398.351562 L 663.074219 399.910156 L 659.574219 399.910156 L 659.574219 403.128906 L 660.707031 403.128906 L 661.753906 402.117188 L 663.363281 403.679688 L 652.371094 403.679688 L 651.519531 403.863281 L 650.761719 403.128906 L 654.457031 403.128906 L 654.457031 399.910156 L 653.128906 399.910156 L 652.28125 400.097656 L 651.519531 399.359375 L 654.457031 399.359375 C 654.457031 398.328125 654.429688 397.070312 654.359375 395.597656 Z M 653.03125 404.6875 L 654.359375 405.515625 L 659.289062 405.515625 L 660.136719 404.597656 L 661.5625 405.882812 L 660.707031 406.433594 L 660.707031 414.789062 C 660.707031 415.835938 660.082031 416.570312 658.816406 416.996094 C 658.816406 416.324219 658.15625 415.742188 656.828125 415.25 L 656.828125 414.882812 C 657.648438 415.007812 658.300781 415.082031 658.769531 415.113281 C 659.242188 415.148438 659.476562 414.917969 659.476562 414.421875 L 659.476562 411.851562 L 654.359375 411.851562 L 654.359375 416.628906 L 653.03125 417.179688 C 653.101562 415.039062 653.128906 413.003906 653.128906 411.078125 C 653.128906 409.148438 653.101562 407.019531 653.03125 404.6875 Z M 653.03125 404.6875 "/>
<path style=" stroke:none;fill-rule:evenodd;fill:rgb(0%,0%,0%);fill-opacity:1;" d="M 676.734375 399.359375 L 676.734375 402.117188 L 681.371094 402.117188 L 681.371094 399.359375 Z M 676.734375 402.667969 L 676.734375 405.148438 L 681.371094 405.148438 L 681.371094 402.667969 Z M 676.734375 405.699219 L 676.734375 408.453125 L 681.371094 408.453125 L 681.371094 405.699219 Z M 678.71875 395.410156 L 680.519531 396.421875 C 679.886719 396.609375 679.191406 397.410156 678.433594 398.808594 L 681.28125 398.808594 L 681.941406 397.890625 L 683.359375 398.996094 L 682.699219 399.546875 L 682.699219 414.605469 C 682.699219 415.652344 682.039062 416.445312 680.710938 416.996094 C 680.710938 416.203125 679.886719 415.558594 678.242188 415.066406 L 678.242188 414.699219 C 679.570312 414.824219 680.421875 414.882812 680.804688 414.882812 C 681.183594 414.882812 681.371094 414.675781 681.371094 414.238281 L 681.371094 409.003906 L 680.519531 409.003906 C 679.578125 410.785156 678.4375 412.289062 677.113281 413.511719 C 675.78125 414.738281 674.390625 415.742188 672.9375 416.535156 L 672.746094 416.261719 C 674.136719 415.222656 675.359375 414.097656 676.398438 412.867188 C 677.445312 411.644531 678.3125 410.359375 679.003906 409.003906 L 675.875 409.003906 C 675.058594 409.011719 674.300781 409.101562 673.605469 409.28125 L 672.746094 408.453125 L 675.402344 408.453125 C 675.402344 402.886719 675.375 399.429688 675.304688 398.074219 L 676.734375 398.808594 L 677.863281 398.808594 C 678.242188 397.46875 678.53125 396.335938 678.71875 395.410156 Z M 689.707031 402.117188 C 689.707031 399.304688 689.679688 397.132812 689.613281 395.597656 L 691.886719 396.515625 L 691.035156 397.25 L 691.035156 402.117188 L 692.074219 402.117188 L 693.308594 400.921875 L 695.109375 402.667969 L 691.035156 402.667969 L 691.035156 414.421875 C 691.105469 415.652344 690.371094 416.535156 688.855469 417.085938 C 688.730469 416.230469 687.6875 415.558594 685.730469 415.066406 L 685.730469 414.605469 C 687.4375 414.789062 688.527344 414.882812 689 414.882812 C 689.472656 414.882812 689.707031 414.613281 689.707031 414.054688 L 689.707031 402.667969 L 686.207031 402.667969 C 685.382812 402.675781 684.625 402.765625 683.929688 402.941406 L 683.078125 402.117188 Z M 684.402344 405.148438 L 684.6875 404.964844 C 685.765625 405.824219 686.503906 406.503906 686.914062 406.988281 C 687.328125 407.484375 687.5 407.972656 687.4375 408.460938 C 687.371094 408.953125 687.21875 409.304688 686.964844 409.515625 C 686.710938 409.734375 686.523438 409.835938 686.394531 409.832031 C 686.078125 409.835938 685.890625 409.441406 685.824219 408.636719 C 685.636719 407.605469 685.160156 406.4375 684.402344 405.148438 Z M 684.402344 405.148438 "/>
<path style=" stroke:none;fill-rule:evenodd;fill:rgb(0%,0%,0%);fill-opacity:1;" d="M 698.625 398.351562 L 698.816406 398.074219 C 700.898438 399.488281 702.082031 400.46875 702.367188 401.019531 C 702.65625 401.570312 702.792969 402.003906 702.792969 402.300781 C 702.792969 402.675781 702.683594 403.011719 702.460938 403.316406 C 702.242188 403.625 702.0625 403.777344 701.9375 403.769531 C 701.683594 403.777344 701.464844 403.378906 701.277344 402.578125 C 700.898438 401.480469 700.015625 400.074219 698.625 398.351562 Z M 705.160156 404.871094 L 705.160156 399.546875 C 705.160156 398.570312 705.132812 397.347656 705.066406 395.871094 L 707.339844 396.789062 L 706.484375 397.617188 L 706.484375 404.871094 L 708.101562 404.871094 C 709.363281 402.855469 710.40625 400.652344 711.222656 398.257812 L 713.214844 399.636719 L 712.359375 400.097656 C 710.972656 402.003906 709.746094 403.589844 708.664062 404.871094 L 713.214844 404.871094 L 714.539062 403.585938 L 716.335938 405.421875 L 708.570312 405.421875 L 708.570312 413.597656 C 708.570312 414.640625 709.046875 415.160156 709.992188 415.160156 L 713.777344 415.160156 C 714.226562 415.160156 714.507812 414.871094 714.636719 414.292969 C 714.761719 413.710938 714.890625 412.316406 715.015625 410.105469 L 715.488281 410.105469 C 715.488281 411.703125 715.550781 412.792969 715.675781 413.371094 C 715.800781 413.957031 716.179688 414.429688 716.8125 414.789062 C 716.371094 415.710938 715.585938 416.203125 714.445312 416.261719 L 709.707031 416.261719 C 708.132812 416.261719 707.339844 415.527344 707.339844 414.054688 L 707.339844 405.421875 L 703.644531 405.421875 C 703.460938 408.855469 702.792969 411.386719 701.65625 413.003906 C 700.519531 414.628906 698.273438 416.019531 694.929688 417.179688 L 694.832031 416.8125 C 697.867188 415.46875 699.839844 413.941406 700.753906 412.226562 C 701.671875 410.515625 702.164062 408.246094 702.222656 405.421875 L 698.246094 405.421875 C 697.425781 405.429688 696.664062 405.519531 695.96875 405.699219 L 695.117188 404.871094 Z M 705.160156 404.871094 "/>
<path style=" stroke:none;fill-rule:evenodd;fill:rgb(0%,0%,0%);fill-opacity:1;" d="M 719.660156 397.25 L 733.589844 397.25 L 734.820312 396.148438 L 736.621094 398.167969 C 735.859375 398.175781 734.902344 398.496094 733.734375 399.136719 C 732.566406 399.78125 730.90625 400.835938 728.753906 402.300781 L 729.613281 402.851562 L 728.566406 403.402344 L 728.566406 405.148438 L 735.109375 405.148438 L 736.621094 403.679688 L 738.707031 405.699219 L 728.566406 405.699219 L 728.566406 414.515625 C 728.566406 415.679688 727.75 416.535156 726.105469 417.085938 C 726.105469 416.167969 725.066406 415.433594 722.976562 414.882812 L 722.976562 414.421875 C 724.6875 414.613281 725.824219 414.703125 726.394531 414.703125 C 726.960938 414.703125 727.214844 414.273438 727.148438 413.414062 L 727.148438 405.699219 L 719.761719 405.699219 C 718.941406 405.703125 718.183594 405.796875 717.484375 405.972656 L 716.632812 405.148438 L 727.148438 405.148438 C 727.148438 403.804688 727.117188 402.488281 727.054688 401.199219 L 728.375 402.027344 L 733.589844 397.800781 L 722.789062 397.800781 C 721.972656 397.804688 721.210938 397.898438 720.519531 398.074219 Z M 719.660156 397.25 "/>
<path style=" stroke:none;fill-rule:evenodd;fill:rgb(0%,0%,0%);fill-opacity:1;" d="M 756.007812 403.890625 C 755.984375 403.980469 755.9375 404.058594 755.867188 404.125 C 755.792969 404.191406 755.714844 404.226562 755.628906 404.226562 C 755.601562 404.238281 755.566406 404.246094 755.523438 404.246094 C 755.4375 404.246094 755.394531 404.238281 755.394531 404.226562 C 755.214844 404.226562 755.117188 404.148438 755.101562 403.996094 L 755.101562 403.921875 C 755.144531 403.597656 755.179688 403.265625 755.210938 402.929688 C 755.238281 402.675781 755.253906 402.4375 755.253906 402.222656 L 755.253906 402.042969 C 755.238281 401.765625 755.203125 401.515625 755.152344 401.296875 C 755.097656 401.078125 755.003906 400.890625 754.867188 400.738281 C 754.59375 400.417969 754.1875 400.230469 753.648438 400.171875 C 753.109375 400.113281 752.535156 400.082031 751.925781 400.082031 L 749.609375 400.082031 C 749.230469 400.082031 749.011719 400.109375 748.945312 400.164062 C 748.910156 400.195312 748.839844 400.398438 748.730469 400.78125 L 747.394531 405.875 L 748.878906 405.875 C 749.28125 405.875 749.648438 405.859375 749.976562 405.820312 C 750.308594 405.789062 750.59375 405.683594 750.828125 405.507812 C 751.042969 405.335938 751.207031 405.089844 751.320312 404.777344 C 751.429688 404.464844 751.539062 404.105469 751.648438 403.703125 C 751.726562 403.496094 751.863281 403.394531 752.054688 403.398438 L 752.238281 403.398438 C 752.441406 403.402344 752.539062 403.492188 752.539062 403.671875 L 752.539062 403.746094 L 751.195312 408.910156 C 751.152344 409.128906 751.011719 409.230469 750.773438 409.222656 L 750.601562 409.222656 C 750.402344 409.222656 750.300781 409.140625 750.300781 408.972656 C 750.300781 408.933594 750.3125 408.894531 750.332031 408.859375 C 750.425781 408.46875 750.496094 408.109375 750.539062 407.785156 C 750.550781 407.699219 750.558594 407.628906 750.558594 407.5625 C 750.558594 407.371094 750.515625 407.214844 750.429688 407.09375 C 750.308594 406.929688 750.089844 406.828125 749.78125 406.796875 C 749.464844 406.765625 749.117188 406.75 748.730469 406.75 L 747.179688 406.75 L 745.703125 412.46875 C 745.632812 412.714844 745.597656 412.894531 745.597656 413.011719 L 745.597656 413.054688 C 745.625 413.082031 745.828125 413.101562 746.199219 413.105469 L 748.664062 413.105469 C 749.304688 413.105469 749.921875 413.0625 750.523438 412.976562 C 751.121094 412.890625 751.679688 412.667969 752.195312 412.3125 C 752.425781 412.148438 752.644531 411.925781 752.851562 411.644531 C 753.0625 411.367188 753.257812 411.058594 753.445312 410.722656 C 753.632812 410.386719 753.808594 410.027344 753.976562 409.648438 C 754.144531 409.269531 754.3125 408.894531 754.476562 408.523438 C 754.535156 408.359375 754.660156 408.273438 754.855469 408.273438 L 755.039062 408.273438 C 755.238281 408.273438 755.339844 408.367188 755.339844 408.546875 L 755.339844 408.628906 L 753.199219 413.722656 C 753.121094 413.890625 752.988281 413.972656 752.808594 413.972656 L 741.613281 413.972656 C 741.503906 413.972656 741.425781 413.941406 741.375 413.878906 C 741.324219 413.832031 741.300781 413.777344 741.300781 413.722656 C 741.300781 413.679688 741.308594 413.640625 741.324219 413.597656 L 741.367188 413.441406 C 741.386719 413.351562 741.4375 413.273438 741.515625 413.207031 C 741.597656 413.140625 741.6875 413.105469 741.785156 413.105469 C 742.121094 413.105469 742.441406 413.101562 742.734375 413.089844 C 743.027344 413.082031 743.25 413.042969 743.398438 412.980469 C 743.53125 412.910156 743.628906 412.722656 743.703125 412.417969 L 746.726562 400.726562 C 746.769531 400.574219 746.792969 400.453125 746.792969 400.363281 C 746.792969 400.28125 746.773438 400.230469 746.738281 400.21875 C 746.636719 400.152344 746.441406 400.117188 746.144531 400.101562 C 745.851562 400.089844 745.535156 400.082031 745.199219 400.082031 C 744.996094 400.082031 744.898438 399.988281 744.898438 399.796875 L 744.898438 399.726562 L 744.941406 399.550781 C 744.996094 399.320312 745.136719 399.207031 745.359375 399.207031 L 756.265625 399.207031 C 756.445312 399.207031 756.542969 399.292969 756.558594 399.464844 L 756.558594 399.539062 Z M 756.007812 403.890625 "/>
<path style=" stroke:none;fill-rule:evenodd;fill:rgb(0%,0%,0%);fill-opacity:1;" d="M 760.40625 403.757812 C 760.355469 403.886719 760.269531 403.949219 760.144531 403.949219 L 760.070312 403.949219 L 760.011719 403.921875 C 759.890625 403.894531 759.820312 403.820312 759.808594 403.699219 L 759.808594 403.640625 L 760.78125 398.253906 C 760.828125 397.996094 760.964844 397.804688 761.195312 397.675781 C 761.421875 397.542969 761.652344 397.476562 761.882812 397.476562 C 762.132812 397.476562 762.335938 397.546875 762.492188 397.6875 C 762.585938 397.769531 762.636719 397.882812 762.636719 398.019531 C 762.636719 398.121094 762.605469 398.238281 762.546875 398.371094 Z M 760.40625 403.757812 "/>
<path style=" stroke:none;fill-rule:evenodd;fill:rgb(0%,0%,0%);fill-opacity:1;" d="M 764.726562 411.984375 C 764.285156 412.726562 763.878906 413.476562 763.511719 414.222656 C 763.144531 414.972656 762.816406 415.730469 762.53125 416.5 C 762.496094 416.769531 762.449219 417.042969 762.390625 417.3125 C 762.332031 417.585938 762.265625 417.859375 762.1875 418.125 C 762.1875 418.132812 762.171875 418.195312 762.148438 418.308594 C 762.113281 418.457031 762.0625 418.625 761.992188 418.8125 C 761.925781 419.003906 761.84375 419.183594 761.75 419.355469 C 761.652344 419.527344 761.554688 419.609375 761.445312 419.609375 C 761.320312 419.609375 761.253906 419.523438 761.25 419.34375 C 761.25 419.324219 761.253906 419.308594 761.261719 419.296875 C 761.261719 419.144531 761.285156 418.972656 761.324219 418.785156 C 761.371094 418.59375 761.414062 418.425781 761.457031 418.277344 L 761.511719 418.109375 C 761.660156 417.570312 761.839844 417.03125 762.050781 416.488281 C 762.089844 416.179688 762.105469 415.867188 762.105469 415.554688 L 762.105469 415.175781 C 762.078125 414.757812 762.003906 414.351562 761.878906 413.949219 C 761.75 413.550781 761.519531 413.222656 761.183594 412.96875 C 760.851562 412.714844 760.429688 412.585938 759.925781 412.585938 C 759.695312 412.585938 759.46875 412.621094 759.242188 412.6875 C 759.019531 412.75 758.8125 412.84375 758.621094 412.957031 C 758.433594 413.074219 758.273438 413.207031 758.136719 413.367188 C 758 413.523438 757.910156 413.699219 757.859375 413.890625 C 757.804688 413.988281 757.726562 414.035156 757.628906 414.035156 L 757.542969 414.035156 C 757.484375 414.035156 757.441406 414.019531 757.414062 413.988281 C 757.382812 413.972656 757.367188 413.945312 757.367188 413.90625 C 757.367188 413.890625 757.375 413.875 757.386719 413.855469 C 757.46875 413.570312 757.597656 413.292969 757.769531 413.023438 C 757.941406 412.75 758.15625 412.511719 758.402344 412.304688 C 758.652344 412.09375 758.925781 411.925781 759.226562 411.800781 C 759.527344 411.671875 759.839844 411.609375 760.167969 411.609375 C 760.523438 411.609375 760.824219 411.679688 761.070312 411.816406 C 761.316406 411.953125 761.519531 412.125 761.675781 412.332031 C 761.835938 412.539062 761.972656 412.773438 762.078125 413.027344 C 762.1875 413.28125 762.28125 413.53125 762.355469 413.777344 C 762.4375 414.046875 762.496094 414.320312 762.535156 414.597656 C 762.574219 414.875 762.59375 415.054688 762.601562 415.140625 C 763.027344 414.121094 763.589844 413.03125 764.289062 411.871094 C 764.324219 411.789062 764.394531 411.742188 764.496094 411.738281 C 764.558594 411.738281 764.605469 411.742188 764.632812 411.75 C 764.71875 411.765625 764.757812 411.8125 764.757812 411.882812 C 764.757812 411.910156 764.75 411.941406 764.726562 411.984375 Z M 764.726562 411.984375 "/>
</g>
</svg>
