<?xml version="1.0" encoding="utf-8"?>
<!-- Generator: Adobe Illustrator 19.0.0, SVG Export Plug-In . SVG Version: 6.00 Build 0)  -->
<svg version="1.1" id="Layer_1" xmlns="http://www.w3.org/2000/svg" xmlns:xlink="http://www.w3.org/1999/xlink" x="0px" y="0px"
	 viewBox="0 0 926 785" style="enable-background:new 0 0 926 785;" xml:space="preserve">
<style type="text/css">
	.st0{clip-path:url(#SVGID_2_);fill:#FFFFFF;}
	.st1{clip-path:url(#SVGID_2_);fill:none;stroke:#000000;stroke-miterlimit:10;}
	
		.st2{clip-path:url(#SVGID_2_);fill:none;stroke:#003300;stroke-width:3;stroke-linecap:round;stroke-linejoin:round;stroke-miterlimit:10;}
	
		.st3{clip-path:url(#SVGID_2_);fill:none;stroke:#000000;stroke-width:3;stroke-linecap:round;stroke-linejoin:round;stroke-miterlimit:10;}
	
		.st4{clip-path:url(#SVGID_2_);fill:none;stroke:#000000;stroke-width:3;stroke-linejoin:round;stroke-miterlimit:10;stroke-dasharray:11,8;}
	
		.st5{clip-path:url(#SVGID_2_);fill:none;stroke:#000000;stroke-width:5;stroke-linecap:round;stroke-linejoin:round;stroke-miterlimit:10;}
	.st6{clip-path:url(#SVGID_2_);fill-rule:evenodd;clip-rule:evenodd;}
	
		.st7{clip-path:url(#SVGID_2_);fill:none;stroke:#003399;stroke-width:5;stroke-linecap:round;stroke-linejoin:round;stroke-miterlimit:10;}
	.st8{clip-path:url(#SVGID_2_);fill-rule:evenodd;clip-rule:evenodd;fill:#003399;}
	
		.st9{clip-path:url(#SVGID_2_);fill:none;stroke:#993300;stroke-width:5;stroke-linecap:round;stroke-linejoin:round;stroke-miterlimit:10;}
	.st10{clip-path:url(#SVGID_2_);fill-rule:evenodd;clip-rule:evenodd;fill:#993300;}
	.st11{clip-path:url(#SVGID_2_);fill:#330000;}
	.st12{clip-path:url(#SVGID_2_);fill:none;stroke:#000000;stroke-linecap:round;stroke-linejoin:round;stroke-miterlimit:10;}
	.st13{clip-path:url(#SVGID_2_);}
	.st14{clip-path:url(#SVGID_2_);fill:#7D7DFF;}
</style>
<g>
	<defs>
		<rect id="SVGID_1_" width="926" height="785"/>
	</defs>
	<clipPath id="SVGID_2_">
		<use xlink:href="#SVGID_1_"  style="overflow:visible;"/>
	</clipPath>
	<polyline class="st0" points="0,0 926,0 926,785 0,785 0,0 	"/>
	<line class="st1" x1="0" y1="499" x2="923" y2="499"/>
	<line class="st1" x1="924" y1="499" x2="920" y2="495"/>
	<line class="st1" x1="924" y1="499" x2="920" y2="503"/>
	<line class="st1" x1="36" y1="499" x2="36" y2="502"/>
	<line class="st1" x1="133" y1="499" x2="133" y2="502"/>
	<line class="st1" x1="229" y1="499" x2="229" y2="502"/>
	<line class="st1" x1="326" y1="499" x2="326" y2="502"/>
	<line class="st1" x1="423" y1="499" x2="423" y2="502"/>
	<line class="st1" x1="520" y1="499" x2="520" y2="502"/>
	<line class="st1" x1="617" y1="499" x2="617" y2="502"/>
	<line class="st1" x1="713" y1="499" x2="713" y2="502"/>
	<line class="st1" x1="810" y1="499" x2="810" y2="502"/>
	<line class="st1" x1="907" y1="499" x2="907" y2="502"/>
	<path class="st2" d="M402.2298279,498.9857483c0-20.4909973-8.2654419-40.1157227-22.9255066-54.432312"/>
	<path class="st3" d="M719.2567139,170.7773438c0-19.5507202-7.8861694-38.2749023-21.8734741-51.9345093"/>
	<line class="st4" x1="646.6656494" y1="170.7773438" x2="765.7028198" y2="48.8840332"/>
	<line class="st4" x1="326.1473999" y1="498.9857483" x2="166.4432068" y2="662.5217285"/>
	<line class="st5" x1="646.6656494" y1="170.7773438" x2="800.1794434" y2="170.7773438"/>
	<polygon class="st6" points="824.1794434,170.7773438 800.1794434,176.7773438 800.1794434,164.7773438 	"/>
	<line class="st7" x1="326.1473999" y1="498.9857483" x2="629.8973999" y2="187.947876"/>
	<polygon class="st8" points="646.6656494,170.7773438 634.1900635,192.1398926 625.6047974,183.7557983 	"/>
	<line class="st9" x1="646.6656494" y1="170.7773438" x2="614.3179321" y2="127.2612915"/>
	<polygon class="st10" points="600,108 619.1332397,123.6818237 609.5025635,130.8407593 	"/>
	<circle class="st11" cx="166.4432068" cy="662.5217285" r="9"/>
	<circle class="st12" cx="166.4432068" cy="662.5217285" r="9"/>
	<circle class="st13" cx="326.1473999" cy="498.9857483" r="6"/>
	<circle class="st14" cx="646.6656494" cy="170.7773438" r="9"/>
	<circle class="st12" cx="646.6656494" cy="170.7773438" r="9"/>
	<path class="st13" d="M753.9232788,190.0917969h-16.3200073c0,0-1.5809937,0-1.7340088-0.7139893
		c0,0-0.0509644-0.1530151-0.0509644-0.3060303c0,0,0.3059692-1.0200195,1.7849731-1.0200195h17.1870117
		c0,0-1.0200195-1.3259888-1.223999-2.9580078c0,0,0-0.815979,0.7139893-1.0199585c0,0,0.1530151-0.0510254,0.3060303-0.0510254
		c0,0,0.7649536,0,1.0199585,1.1220093c0,0,0.6630249,1.9379883,2.0910034,2.9069824c0,0,0.7140503,0.5100098,0.7140503,1.0200195
		c0,0,0,0.5610352-0.8670044,1.0709839c0,0-2.2950439,1.1220093-4.0290527,3.3150024c0,0-0.5609741,0.6630249-0.9689941,0.6630249
		c0,0-0.7139893,0-0.9689941-0.7139893c0,0-0.0509644-0.1530151-0.0509644-0.3060303
		C751.5263062,193.100769,751.5263062,192.28479,753.9232788,190.0917969z"/>
	<path class="st13" d="M732.2487793,219.9660645h11.6790161l-1.632019-16.8300171L732.2487793,219.9660645z
		 M726.1287842,227.4630127l17.7479858-29.7839355c0,0,0.5100098-0.81604,1.3259888-0.8670654c0,0,0.7650146,0,0.8670044,0.5100098
		c0,0,0.0510254,0.1530151,0.1020508,0.7139893l3.1109619,31.875c0,0,0.1530151,1.2750244,0.6119995,1.5300293h0.0510254v0.0510254
		c0,0,0.6119995,0.2550049,2.6519775,0.2550049c0,0,1.1220093,0,1.1730347,0.5609741c0,0,0,1.0200195-0.9180298,1.0200195
		l-5.7119751-0.1530151h-0.0510254l-6.3239746,0.1530151h-0.0510254c0,0-0.7139893,0-0.7139893-0.5610352
		c0,0,0.40802-0.9689941,1.223999-1.0199585c0,0,3.6719971,0,3.6719971-1.6830444c0,0,0,0.0510254-0.815979-8.5169678h-12.8010254
		l-3.8759766,6.5280151c0,0-0.7140503,1.2749634-0.7140503,1.8869629c0,0,0,1.5809937,2.3970337,1.7850342
		c0,0,0.815979,0,0.815979,0.6119385c0,0,0,0.9690552-0.9689941,0.9690552l-4.8959961-0.1530151h-0.2039795l-4.2839966,0.1530151
		h-0.1019897c0,0-0.6630249,0-0.6630249-0.5610352c0,0,0-0.9179688,0.7650146-0.9689941v-0.0509644h0.3059692
		c0,0,3.2130127-0.2040405,5.2529907-2.7540283C725.1087646,228.993042,725.6187744,228.3300781,726.1287842,227.4630127"/>
	<path class="st13" d="M765.7461548,218.1300659v20.0276489c0,0,0,1.0710449,0.4284058,1.3566284
		c0,0,0.6068726,0.3569946,2.8916626,0.3569946h1.142395v1.1066895c0,0-1.2495117-0.1070557-5.7833862-0.1070557
		c0,0-4.5338745,0-5.7833862,0.1070557v-1.1066895h1.142395c0,0,2.7489014,0,3.1416016-0.6425781l0.0357056-0.0357056
		c0,0,0.1427612-0.2855835,0.1427612-1.0353394v-18.4925537c0,0-1.8563843,0.9282227-4.6766968,0.9282227v-1.1067505
		c0,0,4.2839966,0,6.4974365-2.28479c0,0,0.6782837,0,0.7854004,0.249939v0.0356445
		C765.7104492,217.4874268,765.7461548,217.5945435,765.7461548,218.1300659z"/>
	<path class="st13" d="M739.7478638,135.5355225h-10.6080322c0,0-1.631958,6.1710205-1.631958,10.0980225
		c0,0,0,6.1199951,2.7539673,6.2220459c0,0,2.8560181,0,5.9160156-5.967041
		C736.1778564,145.8885498,738.1668701,142.114563,739.7478638,135.5355225z M729.5478516,133.9035645L729.5478516,133.9035645
		h10.6589966c0,0,1.632019-6.7319946,1.632019-10.1489868c0,0,0-5.7630005-2.3970337-6.1199951
		c0,0-0.2039795-0.0510254-0.407959-0.0510254c0,0-2.6010132,0-5.559021,5.3549805c0,0-1.9379883,3.4170532-3.8759766,10.710022
		C729.598877,133.6485596,729.598877,133.8015747,729.5478516,133.9035645 M745.204834,126.9165649L745.204834,126.9165649
		c0,0,0,7.8029785-3.9779663,15.8099976c0,0-3.5700073,7.1400146-7.9050293,9.4349976c0,0-1.5809937,0.815979-3.0599976,0.815979
		c0,0-4.1820068,0-5.6099854-5.7119751c0,0-0.5100098-2.1420288-0.5100098-4.742981c0,0,0-8.007019,4.0800171-16.0650024
		c0,0,3.5700073-6.9869995,7.9049683-9.2310181c0,0,1.5300293-0.7650146,2.9580078-0.7650146c0,0,4.4370117,0,5.7120361,6.4769897
		C744.796875,122.9385376,745.204834,124.8765869,745.204834,126.9165649"/>
	<path class="st13" d="M433.7478638,455.535553h-10.6080017c0,0-1.6319885,6.17099-1.6319885,10.0979919
		c0,0,0,6.1199951,2.7539978,6.2220154c0,0,2.8559875,0,5.9159851-5.9670105
		C430.1778564,465.8885498,432.1668701,462.114563,433.7478638,455.535553z M423.5478516,453.9035645L423.5478516,453.9035645
		h10.6589966c0,0,1.632019-6.7320251,1.632019-10.1490173c0,0,0-5.7630005-2.3970032-6.1199951
		c0,0-0.20401-0.0509949-0.4079895-0.0509949c0,0-2.6010132,0-5.559021,5.3549805c0,0-1.9379883,3.4170227-3.8759766,10.710022
		C423.598877,453.6485596,423.598877,453.8015442,423.5478516,453.9035645 M439.2048645,446.9165649L439.2048645,446.9165649
		c0,0,0,7.8029785-3.9779968,15.8099976c0,0-3.5700073,7.1399841-7.9049988,9.4349976c0,0-1.5809937,0.815979-3.0599976,0.815979
		c0,0-4.1820068,0-5.6100159-5.7119751c0,0-0.5099792-2.1420288-0.5099792-4.7430115c0,0,0-8.0069885,4.0799866-16.0650024
		c0,0,3.5700073-6.9869995,7.9049988-9.2309875c0,0,1.5299988-0.7650146,2.9580078-0.7650146c0,0,4.4369812,0,5.7120056,6.4769897
		C438.796875,442.9385376,439.2048645,444.8765564,439.2048645,446.9165649"/>
	<path class="st13" d="M567.387207,295.0915833h-16.3200073c0,0-1.5809937,0-1.7340088-0.7139893
		c0,0-0.0509644-0.1529846-0.0509644-0.3059998c0,0,0.3059692-1.019989,1.7849731-1.019989h17.1870117
		c0,0-1.0200195-1.3260193-1.223999-2.9580078c0,0,0-0.8160095,0.7139893-1.019989c0,0,0.1530151-0.0509949,0.3060303-0.0509949
		c0,0,0.7649536,0,1.0199585,1.1219788c0,0,0.6630249,1.9380188,2.0910034,2.9070129c0,0,0.7140503,0.5100098,0.7140503,1.019989
		c0,0,0,0.5610046-0.8670044,1.0710144c0,0-2.2950439,1.1219788-4.0290527,3.3150024c0,0-0.5609741,0.6629944-0.9689941,0.6629944
		c0,0-0.7139893,0-0.9689941-0.7139893c0,0-0.0509644-0.1530151-0.0509644-0.3060303
		C564.9902344,298.1005859,564.9902344,297.2846069,567.387207,295.0915833z"/>
	<path class="st13" d="M546.1140747,322.4276123L546.1140747,322.4276123l2.9580078-11.7810059
		c0,0,0.815979-3.2640076,0.815979-4.2839966c0,0,0-2.3460083-1.5809937-2.3460083c0,0-2.0910034,0-3.4169922,4.8450012
		c0,0-0.1530151,0.5610046-0.3060303,1.223999c0,0-0.5609741,1.1220093-0.8670044,1.1730042c0,0-0.6119995,0-0.6119995-0.5100098
		c0,0,0-0.8160095,0.9180298-3.4169922c0,0,0.3569946-0.9179993,0.6630249-1.5299988c0,0,1.223999-2.4989929,3.0599976-2.8560181
		c0,0,0.3569946-0.0509949,0.7139893-0.0509949c0,0,2.855957,0,4.1309814,2.447998c0,0,0.3060303,0.5610046,0.4589844,1.223999
		c0,0,0.0510254,0.1020203,0.0510254,0.2550049c0,0,2.9580078-3.6719971,6.5280151-3.927002c0,0,2.855957,0,3.8759766,1.9890137
		c0,0,0.3569946,0.6119995,0.3569946,1.3259888c0,0,0,1.9890137-1.6829834,2.7539978c0,0-0.5610352,0.2550049-1.1220093,0.2550049
		c0,0-1.5809937,0-1.8870239-1.3769836c0,0-0.0509644-0.20401-0.0509644-0.40802c0,0,0-1.6829834,1.7340088-2.4989929
		l0.0509644-0.0509949c0,0,0.40802-0.1530151,0.8670044-0.2550049l-1.0199585-0.4590149
		c0,0-0.6630249-0.1019897-1.1220093-0.1529846c0,0-2.1420288,0-4.0800171,1.6829834c0,0-1.5809937,1.428009-2.7030029,3.7740173
		c0,0-0.1019897,0.2550049-0.1530151,0.4079895l-1.631958,6.6300049l-2.0400391,8.0580139
		c0,0-0.4589844,1.3259888-1.8869629,1.4279785c0,0-1.2750244-0.2549744-1.4790039-1.3769836
		C545.6550903,324.6206055,545.6550903,324.7225952,546.1140747,322.4276123z"/>
	<path class="st13" d="M575.1310425,310.2385864v20.02771c0,0,0,1.0709839,0.4284058,1.3565979
		c0,0,0.6068726,0.3569946,2.8916626,0.3569946h1.142395v1.10672c0,0-1.2495117-0.1071167-5.7833862-0.1071167
		c0,0-4.5338745,0-5.7833862,0.1071167v-1.10672h1.142395c0,0,2.7489014,0,3.1416016-0.6426086l0.0357056-0.035675
		c0,0,0.1427612-0.285614,0.1427612-1.0353088v-18.4926147c0,0-1.8563843,0.9282227-4.6766968,0.9282227v-1.10672
		c0,0,4.2839966,0,6.4974365-2.28479c0,0,0.6782837,0,0.7854004,0.2499084v0.0357056
		C575.0953369,309.5960083,575.1310425,309.7030945,575.1310425,310.2385864z"/>
	<path class="st13" d="M599.387146,136.0914307h-16.3200073c0,0-1.5809937,0-1.7340088-0.7139893
		c0,0-0.0509644-0.1529541-0.0509644-0.3059692c0,0,0.3059692-1.0200195,1.7849731-1.0200195h17.1870117
		c0,0-1.0200195-1.3259888-1.223999-2.9580078c0,0,0-0.815979,0.7139893-1.0199585c0,0,0.1530151-0.0510254,0.3060303-0.0510254
		c0,0,0.7649536,0,1.0199585,1.1220093c0,0,0.6630249,1.9379883,2.0910034,2.9069824c0,0,0.7140503,0.5100098,0.7140503,1.0200195
		c0,0,0,0.5609741-0.8670044,1.0709839c0,0-2.2950439,1.1220093-4.0290527,3.3150024c0,0-0.5609741,0.6630249-0.9689941,0.6630249
		c0,0-0.7139893,0-0.9689941-0.7139893c0,0-0.0509644-0.1530762-0.0509644-0.3060303
		C596.9901733,139.1004639,596.9901733,138.2844238,599.387146,136.0914307z"/>
	<path class="st13" d="M597.8485107,147.4644775c0,0,0,2.8049927-1.5300293,7.8540039c0,0-2.9580078,9.8939819-8.2109985,11.4239502
		c0,0-0.815979,0.2550049-1.7340088,0.2550049c0,0-4.6409912,0-6.1709595-3.2130127c0,0-0.6630249-1.3259888-0.6630249-3.1109619
		c0,0,0-2.6519775,2.3460083-8.9760132l0.5609741-1.4790039c0,0,0.8670044-2.2439575,0.8670044-3.5700073
		c0,0,0-1.631958-1.2749634-1.631958c0,0-2.7540283,0-4.5390015,4.5389404c0,0-0.3569946,0.81604-0.6119995,1.7850342
		c0,0-0.5610352,0.8670044-0.81604,0.9179688c0,0-0.6119995,0-0.6119995-0.5099487c0,0,0-0.9180298,1.1220093-3.2130127
		c0,0,2.1929932-4.6409912,5.6100464-4.6409912c0,0,2.7029419,0,3.7739868,2.2949829c0,0,0.407959,0.8670044,0.407959,1.8869629
		c0,0,0,1.0710449-0.6119995,2.5500488c0,0-2.7539673,7.3439941-2.9579468,10.1489868v0.6630249
		c0,0,0,4.0799561,3.2639771,4.4370117h0.5100098c0,0,4.1309814,0,7.1400146-6.9360352c0,0,1.7849731-4.0800171,1.9379883-6.8850098
		c0,0,0-2.5499878-1.7340088-4.1820068c0,0-0.815979-0.815979-0.815979-1.5299683c0,0,0-1.2750244,1.3259888-2.0910034
		c0,0,0.5609741-0.3569946,1.1729736-0.3569946c0,0,1.4790039,0,2.039978,1.8869629
		C597.6444702,145.7814331,597.8485107,146.4954834,597.8485107,147.4644775z"/>
</g>
</svg>
