<?xml version="1.0" encoding="utf-8"?>
<!-- Generator: Adobe Illustrator 19.0.0, SVG Export Plug-In . SVG Version: 6.00 Build 0)  -->
<svg version="1.1" id="Layer_1" xmlns="http://www.w3.org/2000/svg" xmlns:xlink="http://www.w3.org/1999/xlink" x="0px" y="0px"
	 viewBox="0 0 926 785" style="enable-background:new 0 0 926 785;" xml:space="preserve">
<style type="text/css">
	.st0{fill:#FFFFFF;}
	.st1{clip-path:url(#SVGID_2_);fill:none;stroke:#000000;stroke-width:0.5;stroke-miterlimit:10;}
	.st2{fill:none;stroke:#000000;stroke-width:0.5;stroke-miterlimit:10;}
	
		.st3{clip-path:url(#SVGID_4_);fill:none;stroke:#003399;stroke-width:1.5;stroke-linecap:round;stroke-linejoin:round;stroke-miterlimit:10;}
	
		.st4{clip-path:url(#SVGID_4_);fill:none;stroke:#663300;stroke-width:1.5;stroke-linecap:round;stroke-linejoin:round;stroke-miterlimit:10;}
	.st5{fill:none;stroke:#000000;stroke-width:1.5;stroke-linejoin:round;stroke-miterlimit:10;stroke-dasharray:5.5,4;}
	.st6{fill:none;stroke:#000000;stroke-width:1.5;stroke-linecap:round;stroke-linejoin:round;stroke-miterlimit:10;}
	.st7{fill-rule:evenodd;clip-rule:evenodd;}
	.st8{clip-path:url(#SVGID_6_);}
	
		.st9{clip-path:url(#SVGID_6_);fill:none;stroke:#000000;stroke-width:0.5;stroke-linecap:round;stroke-linejoin:round;stroke-miterlimit:10;}
	.st10{clip-path:url(#SVGID_6_);fill:#7D7DFF;}
	.st11{clip-path:url(#SVGID_6_);fill:#CC6600;}
	.st12{clip-path:url(#SVGID_8_);fill:none;stroke:#000000;stroke-width:0.5;stroke-miterlimit:10;}
	.st13{clip-path:url(#SVGID_10_);fill:none;stroke:#000000;stroke-width:0.5;stroke-miterlimit:10;}
	
		.st14{clip-path:url(#SVGID_12_);fill:none;stroke:#0000FF;stroke-width:1.5;stroke-linecap:round;stroke-linejoin:round;stroke-miterlimit:10;}
	
		.st15{clip-path:url(#SVGID_12_);fill:none;stroke:#993300;stroke-width:1.5;stroke-linecap:round;stroke-linejoin:round;stroke-miterlimit:10;}
	.st16{clip-path:url(#SVGID_14_);}
	.st17{clip-path:url(#SVGID_14_);fill:#7D7DFF;}
	
		.st18{clip-path:url(#SVGID_14_);fill:none;stroke:#000000;stroke-width:0.5;stroke-linecap:round;stroke-linejoin:round;stroke-miterlimit:10;}
	.st19{clip-path:url(#SVGID_14_);fill:#FF6600;}
	.st20{clip-path:url(#SVGID_16_);fill:none;stroke:#000000;stroke-width:0.5;stroke-miterlimit:10;}
	
		.st21{clip-path:url(#SVGID_18_);fill:none;stroke:#663300;stroke-width:1.5;stroke-linecap:round;stroke-linejoin:round;stroke-miterlimit:10;}
	
		.st22{clip-path:url(#SVGID_18_);fill:none;stroke:#003399;stroke-width:1.5;stroke-linecap:round;stroke-linejoin:round;stroke-miterlimit:10;}
	.st23{fill:none;stroke:#000000;stroke-width:1.5;stroke-linejoin:round;stroke-miterlimit:10;stroke-dasharray:5.75,4;}
	.st24{clip-path:url(#SVGID_20_);}
	
		.st25{clip-path:url(#SVGID_20_);fill:none;stroke:#000000;stroke-width:0.5;stroke-linecap:round;stroke-linejoin:round;stroke-miterlimit:10;}
	.st26{clip-path:url(#SVGID_20_);fill:#7D7DFF;}
	.st27{clip-path:url(#SVGID_20_);fill:#CC6600;}
	.st28{clip-path:url(#SVGID_22_);fill:none;stroke:#000000;stroke-width:0.5;stroke-miterlimit:10;}
	
		.st29{clip-path:url(#SVGID_24_);fill:none;stroke:#0000FF;stroke-width:1.5;stroke-linecap:round;stroke-linejoin:round;stroke-miterlimit:10;}
	
		.st30{clip-path:url(#SVGID_24_);fill:none;stroke:#663300;stroke-width:1.5;stroke-linecap:round;stroke-linejoin:round;stroke-miterlimit:10;}
	.st31{clip-path:url(#SVGID_26_);}
	.st32{clip-path:url(#SVGID_26_);fill:#CC6600;}
	
		.st33{clip-path:url(#SVGID_26_);fill:none;stroke:#000000;stroke-width:0.5;stroke-linecap:round;stroke-linejoin:round;stroke-miterlimit:10;}
	.st34{clip-path:url(#SVGID_26_);fill:#0099FF;}
	.st35{clip-path:url(#SVGID_28_);fill:none;stroke:#000000;stroke-miterlimit:10;}
	.st36{clip-path:url(#SVGID_30_);fill:none;stroke:#000000;stroke-miterlimit:10;}
</style>
<rect x="463" class="st0" width="463.0009766" height="392.5"/>
<g>
	<defs>
		<rect id="SVGID_1_" x="463" width="463.0009766" height="392.5"/>
	</defs>
	<clipPath id="SVGID_2_">
		<use xlink:href="#SVGID_1_"  style="overflow:visible;"/>
	</clipPath>
	<line class="st1" x1="674" y1="1" x2="674" y2="392.5"/>
	<line class="st1" x1="674" y1="0.5" x2="672.5" y2="2"/>
	<line class="st1" x1="674" y1="0.5" x2="675.5" y2="2"/>
</g>
<line class="st2" x1="463" y1="194" x2="925" y2="194"/>
<line class="st2" x1="925.5" y1="194" x2="924" y2="192.5"/>
<line class="st2" x1="925.5" y1="194" x2="924" y2="195.5"/>
<line class="st2" x1="473" y1="194" x2="473" y2="195.5"/>
<line class="st2" x1="498" y1="194" x2="498" y2="195.5"/>
<line class="st2" x1="523" y1="194" x2="523" y2="195.5"/>
<line class="st2" x1="548" y1="194" x2="548" y2="195.5"/>
<line class="st2" x1="573.5" y1="194" x2="573.5" y2="195.5"/>
<line class="st2" x1="598.5" y1="194" x2="598.5" y2="195.5"/>
<line class="st2" x1="623.5" y1="194" x2="623.5" y2="195.5"/>
<line class="st2" x1="648.5" y1="194" x2="648.5" y2="195.5"/>
<line class="st2" x1="674" y1="194" x2="674" y2="195.5"/>
<line class="st2" x1="699" y1="194" x2="699" y2="195.5"/>
<line class="st2" x1="724" y1="194" x2="724" y2="195.5"/>
<line class="st2" x1="749" y1="194" x2="749" y2="195.5"/>
<line class="st2" x1="774.5" y1="194" x2="774.5" y2="195.5"/>
<line class="st2" x1="799.5" y1="194" x2="799.5" y2="195.5"/>
<line class="st2" x1="824.5" y1="194" x2="824.5" y2="195.5"/>
<line class="st2" x1="849.5" y1="194" x2="849.5" y2="195.5"/>
<line class="st2" x1="875" y1="194" x2="875" y2="195.5"/>
<line class="st2" x1="900" y1="194" x2="900" y2="195.5"/>
<line class="st2" x1="672.5" y1="370" x2="674" y2="370"/>
<line class="st2" x1="672.5" y1="344.5" x2="674" y2="344.5"/>
<line class="st2" x1="672.5" y1="319.5" x2="674" y2="319.5"/>
<line class="st2" x1="672.5" y1="294.5" x2="674" y2="294.5"/>
<line class="st2" x1="672.5" y1="269.5" x2="674" y2="269.5"/>
<line class="st2" x1="672.5" y1="244.5" x2="674" y2="244.5"/>
<line class="st2" x1="672.5" y1="219" x2="674" y2="219"/>
<line class="st2" x1="672.5" y1="169" x2="674" y2="169"/>
<line class="st2" x1="672.5" y1="144" x2="674" y2="144"/>
<line class="st2" x1="672.5" y1="118.5" x2="674" y2="118.5"/>
<line class="st2" x1="672.5" y1="93.5" x2="674" y2="93.5"/>
<line class="st2" x1="672.5" y1="68.5" x2="674" y2="68.5"/>
<line class="st2" x1="672.5" y1="43.5" x2="674" y2="43.5"/>
<line class="st2" x1="672.5" y1="18" x2="674" y2="18"/>
<g>
	<defs>
		<rect id="SVGID_3_" x="463" width="463.0009766" height="392.5"/>
	</defs>
	<clipPath id="SVGID_4_">
		<use xlink:href="#SVGID_3_"  style="overflow:visible;"/>
	</clipPath>
	<ellipse class="st3" cx="749.1621704" cy="194.001709" rx="125.621521" ry="100.4969482"/>
	<ellipse class="st4" cx="623.5405273" cy="194.001709" rx="80.4179993" ry="62.7859497"/>
</g>
<line class="st5" x1="617.1245117" y1="256.5874023" x2="764.1304932" y2="94.2203979"/>
<line class="st6" x1="764.1309204" y1="94.22052" x2="821.4049072" y2="99.7195435"/>
<polygon class="st7" points="830.3637695,100.5792847 821.1897583,101.9592896 821.619751,97.4793091 "/>
<line class="st6" x1="617.1245117" y1="256.5874023" x2="580.2594604" y2="254.2844238"/>
<polygon class="st7" points="571.2769165,253.722229 580.3999023,252.038269 580.1188965,256.5292358 "/>
<g>
	<defs>
		<rect id="SVGID_5_" x="463" width="463.0009766" height="392.5"/>
	</defs>
	<clipPath id="SVGID_6_">
		<use xlink:href="#SVGID_5_"  style="overflow:visible;"/>
	</clipPath>
	<path class="st8" d="M676.2893066,194.001709c0,1.3800049-1.1190186,2.5-2.5,2.5c-1.3800049,0-2.5-1.1199951-2.5-2.5
		c0-1.3809814,1.1199951-2.5,2.5-2.5C675.1702881,191.501709,676.2893066,192.6207275,676.2893066,194.001709"/>
	<circle class="st9" cx="673.7893066" cy="194.001709" r="2.5"/>
	<path class="st10" d="M768.6309204,94.22052c0,2.4850464-2.0150146,4.5-4.5,4.5c-2.4850464,0-4.5-2.0149536-4.5-4.5
		c0-2.4849854,2.0149536-4.5,4.5-4.5C766.6159058,89.72052,768.6309204,91.7355347,768.6309204,94.22052"/>
	<circle class="st9" cx="764.1309204" cy="94.22052" r="4.5"/>
	<path class="st11" d="M621.6245117,256.5874023c0,2.4850464-2.0150146,4.5-4.5,4.5c-2.4860229,0-4.5-2.0149536-4.5-4.5
		c0-2.4849854,2.0139771-4.5,4.5-4.5C619.6094971,252.0874023,621.6245117,254.102417,621.6245117,256.5874023"/>
	<circle class="st9" cx="617.1245117" cy="256.5874023" r="4.5"/>
</g>
<rect y="392.5" class="st0" width="463" height="392.5"/>
<g>
	<defs>
		<rect id="SVGID_7_" y="392.5" width="463" height="392.5"/>
	</defs>
	<clipPath id="SVGID_8_">
		<use xlink:href="#SVGID_7_"  style="overflow:visible;"/>
	</clipPath>
	<line class="st12" x1="223.5" y1="393.5" x2="223.5" y2="785"/>
</g>
<line class="st2" x1="223.5" y1="393" x2="222" y2="394.5"/>
<line class="st2" x1="223.5" y1="393" x2="225" y2="394.5"/>
<g>
	<defs>
		<rect id="SVGID_9_" y="392.5" width="463" height="392.5"/>
	</defs>
	<clipPath id="SVGID_10_">
		<use xlink:href="#SVGID_9_"  style="overflow:visible;"/>
	</clipPath>
	<line class="st13" x1="0" y1="600" x2="462" y2="600"/>
	<line class="st13" x1="462.5" y1="600" x2="461" y2="598.5"/>
	<line class="st13" x1="462.5" y1="600" x2="461" y2="601.5"/>
</g>
<line class="st2" x1="18" y1="600" x2="18" y2="601.5"/>
<line class="st2" x1="43.5" y1="600" x2="43.5" y2="601.5"/>
<line class="st2" x1="69.5" y1="600" x2="69.5" y2="601.5"/>
<line class="st2" x1="95" y1="600" x2="95" y2="601.5"/>
<line class="st2" x1="120.5" y1="600" x2="120.5" y2="601.5"/>
<line class="st2" x1="146.5" y1="600" x2="146.5" y2="601.5"/>
<line class="st2" x1="172" y1="600" x2="172" y2="601.5"/>
<line class="st2" x1="197.5" y1="600" x2="197.5" y2="601.5"/>
<line class="st2" x1="223.5" y1="600" x2="223.5" y2="601.5"/>
<line class="st2" x1="249" y1="600" x2="249" y2="601.5"/>
<line class="st2" x1="274.5" y1="600" x2="274.5" y2="601.5"/>
<line class="st2" x1="300" y1="600" x2="300" y2="601.5"/>
<line class="st2" x1="326" y1="600" x2="326" y2="601.5"/>
<line class="st2" x1="351.5" y1="600" x2="351.5" y2="601.5"/>
<line class="st2" x1="377" y1="600" x2="377" y2="601.5"/>
<line class="st2" x1="403" y1="600" x2="403" y2="601.5"/>
<line class="st2" x1="428.5" y1="600" x2="428.5" y2="601.5"/>
<line class="st2" x1="454" y1="600" x2="454" y2="601.5"/>
<line class="st2" x1="222" y1="780" x2="223.5" y2="780"/>
<line class="st2" x1="222" y1="754" x2="223.5" y2="754"/>
<line class="st2" x1="222" y1="728.5" x2="223.5" y2="728.5"/>
<line class="st2" x1="222" y1="703" x2="223.5" y2="703"/>
<line class="st2" x1="222" y1="677" x2="223.5" y2="677"/>
<line class="st2" x1="222" y1="651.5" x2="223.5" y2="651.5"/>
<line class="st2" x1="222" y1="626" x2="223.5" y2="626"/>
<line class="st2" x1="222" y1="574.5" x2="223.5" y2="574.5"/>
<line class="st2" x1="222" y1="549" x2="223.5" y2="549"/>
<line class="st2" x1="222" y1="523" x2="223.5" y2="523"/>
<line class="st2" x1="222" y1="497.5" x2="223.5" y2="497.5"/>
<line class="st2" x1="222" y1="472" x2="223.5" y2="472"/>
<line class="st2" x1="222" y1="446" x2="223.5" y2="446"/>
<line class="st2" x1="222" y1="420.5" x2="223.5" y2="420.5"/>
<g>
	<defs>
		<rect id="SVGID_11_" y="392.5" width="463" height="392.5"/>
	</defs>
	<clipPath id="SVGID_12_">
		<use xlink:href="#SVGID_11_"  style="overflow:visible;"/>
	</clipPath>
	<path class="st14" d="M672.3173828,754.1425781c-615.8560181-102.6419678-615.8560181-205.2849731,0-307.9279785"/>
	<path class="st15" d="M-354.109314,908.1063843c821.1409912-205.2849731,821.1409912-410.5699768,0-615.855957"/>
</g>
<line class="st5" x1="98.9191971" y1="441.8447876" x2="264.7011719" y2="652.9567871"/>
<line class="st6" x1="98.9191971" y1="441.8447876" x2="179.3771973" y2="480.9638062"/>
<polygon class="st7" points="187.4718933,484.8994141 178.3938904,482.9874268 180.3618927,478.9404297 "/>
<line class="st6" x1="264.7011108" y1="652.9564819" x2="225.3431091" y2="633.8215332"/>
<polygon class="st7" points="217.2492981,629.8853149 226.3272858,631.7973022 224.3592834,635.8442993 "/>
<g>
	<defs>
		<rect id="SVGID_13_" y="392.5" width="463" height="392.5"/>
	</defs>
	<clipPath id="SVGID_14_">
		<use xlink:href="#SVGID_13_"  style="overflow:visible;"/>
	</clipPath>
	<path class="st16" d="M225.7556,600.1787109c0,1.3809814-1.1200104,2.5-2.5,2.5c-1.381012,0-2.5-1.1190186-2.5-2.5
		s1.118988-2.5,2.5-2.5C224.6355896,597.6787109,225.7556,598.7977295,225.7556,600.1787109"/>
	<path class="st17" d="M269.2011108,652.9564819c0,2.4860229-2.0150146,4.5-4.5,4.5c-2.4860229,0-4.5-2.0139771-4.5-4.5
		c0-2.4849854,2.0139771-4.5,4.5-4.5C267.1860962,648.4564819,269.2011108,650.4714966,269.2011108,652.9564819"/>
	<circle class="st18" cx="264.7011108" cy="652.9564819" r="4.5"/>
	<path class="st19" d="M103.4191971,441.8447876c0,2.4860229-2.015007,4.5-4.5,4.5c-2.4860001,0-4.5-2.0139771-4.5-4.5
		c0-2.4849854,2.0139999-4.5,4.5-4.5C101.4041901,437.3447876,103.4191971,439.3598022,103.4191971,441.8447876"/>
	<circle class="st18" cx="98.9191971" cy="441.8447876" r="4.5"/>
</g>
<rect x="463" y="392.5" class="st0" width="463.0009766" height="392.5"/>
<g>
	<defs>
		<rect id="SVGID_15_" x="463" y="392.5" width="463.0009766" height="392.5"/>
	</defs>
	<clipPath id="SVGID_16_">
		<use xlink:href="#SVGID_15_"  style="overflow:visible;"/>
	</clipPath>
	<line class="st20" x1="700.5" y1="393.5" x2="700.5" y2="785"/>
</g>
<line class="st2" x1="700.5" y1="393" x2="699" y2="394.5"/>
<line class="st2" x1="700.5" y1="393" x2="702" y2="394.5"/>
<line class="st2" x1="463" y1="614.5" x2="925" y2="614.5"/>
<line class="st2" x1="925.5" y1="614.5" x2="924" y2="613"/>
<line class="st2" x1="925.5" y1="614.5" x2="924" y2="616"/>
<line class="st2" x1="475" y1="614.5" x2="475" y2="616"/>
<line class="st2" x1="507" y1="614.5" x2="507" y2="616"/>
<line class="st2" x1="539.5" y1="614.5" x2="539.5" y2="616"/>
<line class="st2" x1="571.5" y1="614.5" x2="571.5" y2="616"/>
<line class="st2" x1="604" y1="614.5" x2="604" y2="616"/>
<line class="st2" x1="636" y1="614.5" x2="636" y2="616"/>
<line class="st2" x1="668.5" y1="614.5" x2="668.5" y2="616"/>
<line class="st2" x1="700.5" y1="614.5" x2="700.5" y2="616"/>
<line class="st2" x1="733" y1="614.5" x2="733" y2="616"/>
<line class="st2" x1="765" y1="614.5" x2="765" y2="616"/>
<line class="st2" x1="797" y1="614.5" x2="797" y2="616"/>
<line class="st2" x1="829.5" y1="614.5" x2="829.5" y2="616"/>
<line class="st2" x1="861.5" y1="614.5" x2="861.5" y2="616"/>
<line class="st2" x1="894" y1="614.5" x2="894" y2="616"/>
<line class="st2" x1="699" y1="775.5" x2="700.5" y2="775.5"/>
<line class="st2" x1="699" y1="743.5" x2="700.5" y2="743.5"/>
<line class="st2" x1="699" y1="711" x2="700.5" y2="711"/>
<line class="st2" x1="699" y1="679" x2="700.5" y2="679"/>
<line class="st2" x1="699" y1="646.5" x2="700.5" y2="646.5"/>
<line class="st2" x1="699" y1="582" x2="700.5" y2="582"/>
<line class="st2" x1="699" y1="550" x2="700.5" y2="550"/>
<line class="st2" x1="699" y1="517.5" x2="700.5" y2="517.5"/>
<line class="st2" x1="699" y1="485.5" x2="700.5" y2="485.5"/>
<line class="st2" x1="699" y1="453.5" x2="700.5" y2="453.5"/>
<line class="st2" x1="699" y1="421" x2="700.5" y2="421"/>
<g>
	<defs>
		<rect id="SVGID_17_" x="463" y="392.5" width="463.0009766" height="392.5"/>
	</defs>
	<clipPath id="SVGID_18_">
		<use xlink:href="#SVGID_17_"  style="overflow:visible;"/>
	</clipPath>
	<polyline class="st21" points="263.6583862,1116.0834961 325.3513794,1061.9345703 376.1253662,1017.1135254 
		418.609375,979.3685303 454.6443787,947.1195068 485.5643921,919.220459 512.3603516,894.8255005 535.7773438,873.2915039 
		556.392395,854.1224976 574.6583862,836.9315186 590.9313965,821.4094849 605.5023804,807.3084717 618.602356,794.4265137 
		630.4243774,782.5964966 641.1293945,771.6815186 650.8493652,761.5654907 659.6963501,752.1495361 667.7643433,743.3515015 
		675.135376,735.1004639 681.8773804,727.3344727 688.0493774,720.0004883 693.7053833,713.0524902 698.8873901,706.4484863 
		703.6373901,700.1535034 707.9853516,694.135498 711.9643555,688.364502 715.5973511,682.8175049 718.9104004,677.470459 
		721.9234009,672.3024902 724.6503906,667.2944946 727.1113892,662.4284668 729.3173828,657.6904907 731.2803955,653.0634766 
		733.0123901,648.5355225 734.5203857,644.0925293 735.8123779,639.7214966 736.8953857,635.4144897 737.7753906,631.1564941 
		738.4543457,626.9394531 738.9383545,622.7514648 739.2263794,618.5834961 739.3223877,614.4255371 739.2263794,610.2674561 
		738.9383545,606.0994873 738.4543457,601.911499 737.7753906,597.694519 736.8953857,593.4375 735.8123779,589.128479 
		734.5203857,584.7584839 733.0123901,580.3154907 731.2803955,575.7874756 729.3173828,571.161499 727.1113892,566.4224854 
		724.6503906,561.5574951 721.9234009,556.5494995 718.9104004,551.3804932 715.5973511,546.0335083 711.9643555,540.4865112 
		707.9853516,534.7164917 703.6373901,528.6984863 698.8873901,522.4035034 693.7053833,515.7994995 688.0493774,508.8515015 
		681.8773804,501.5164795 675.135376,493.7504883 667.7643433,485.4995117 659.6963501,476.7014771 650.8493652,467.286499 
		641.1293945,457.1694946 630.4243774,446.2545166 618.602356,434.4244995 605.5023804,421.5424805 590.9313965,407.4425049 
		574.6583862,391.9194946 556.392395,374.7294922 535.7773438,355.5604858 512.3603516,334.0264893 485.5643921,309.6304932 
		454.6443787,281.7315063 418.609375,249.4824829 376.1253662,211.7374878 325.3513794,166.9165039 263.6583862,112.7675171 	"/>
	<polyline class="st22" points="1119.3041992,1098.1069336 1044.9291992,1032.947998 986.5831909,981.4169922 
		939.663147,939.5820313 901.1741943,904.8880005 869.0911865,875.6040039 841.9921875,850.5109863 818.847168,828.730957 
		798.8981934,809.6109619 781.5681763,792.6560059 766.4161987,777.4880371 753.097168,763.8060303 741.3361816,751.3740234 
		730.9141846,740 721.6541748,729.5279541 713.4091797,719.8270264 706.0601807,710.7910156 699.5081787,702.3289795 
		693.6691895,694.3649902 688.4732056,686.8299561 683.8621826,679.6699829 679.788208,672.8339844 676.2061768,666.2769775 
		673.0841675,659.9609985 670.3901978,653.8499756 668.1011963,647.9129639 666.196167,642.1199951 664.6591797,636.4450073 
		663.4761963,630.8609619 662.6381836,625.3449707 662.1381836,619.8740234 661.972168,614.4260254 662.1381836,608.9769897 
		662.6381836,603.5059814 663.4761963,597.9909668 664.6591797,592.4060059 666.196167,586.730957 668.1011963,580.9379883 
		670.3901978,575.0009766 673.0841675,568.8909912 676.2061768,562.5750122 679.788208,556.0180054 683.8621826,549.1809692 
		688.4732056,542.0209961 693.6691895,534.4869995 699.5081787,526.5230103 706.0601807,518.0599976 713.4091797,509.0239868 
		721.6541748,499.3250122 730.9141846,488.8519897 741.3361816,477.4769897 753.097168,465.0449829 766.4161987,451.3629761 
		781.5681763,436.1950073 798.8981934,419.2409668 818.847168,400.1199951 841.9921875,378.3399658 869.0911865,353.2470093 
		901.1741943,323.9630127 939.663147,289.2689819 986.5831909,247.4349976 1044.9291992,195.9039917 1119.3041992,130.7440186 	"/>
</g>
<line class="st23" x1="661.9727173" y1="614.4257813" x2="739.3226929" y2="614.4257813"/>
<line class="st6" x1="661.9727173" y1="614.4257813" x2="661.9727173" y2="657.9868164"/>
<polygon class="st7" points="661.9727173,666.9863281 659.7227173,657.9863281 664.2227173,657.9863281 "/>
<line class="st6" x1="739.3228149" y1="614.4257813" x2="739.3228149" y2="570.3867798"/>
<polygon class="st7" points="739.3228149,561.3864136 741.5728149,570.3864136 737.0728149,570.3864136 "/>
<g>
	<defs>
		<rect id="SVGID_19_" x="463" y="392.5" width="463.0009766" height="392.5"/>
	</defs>
	<clipPath id="SVGID_20_">
		<use xlink:href="#SVGID_19_"  style="overflow:visible;"/>
	</clipPath>
	<path class="st24" d="M703.0375977,614.4257813c0,1.3810425-1.1190186,2.5-2.5,2.5c-1.3810425,0-2.5-1.1189575-2.5-2.5
		c0-1.3809814,1.1189575-2.5,2.5-2.5C701.9185791,611.9257813,703.0375977,613.0447998,703.0375977,614.4257813"/>
	<circle class="st25" cx="700.5375977" cy="614.4257813" r="2.5"/>
	<path class="st26" d="M666.4727173,614.4257813c0,2.4860229-2.0150146,4.5-4.5,4.5c-2.4850464,0-4.5-2.0139771-4.5-4.5
		c0-2.4849854,2.0149536-4.5,4.5-4.5C664.4577026,609.9257813,666.4727173,611.9407959,666.4727173,614.4257813"/>
	<circle class="st25" cx="661.9727173" cy="614.4257813" r="4.5"/>
	<path class="st27" d="M743.8228149,614.4257813c0,2.4860229-2.0150146,4.5-4.5,4.5c-2.4850464,0-4.5-2.0139771-4.5-4.5
		c0-2.4849854,2.0149536-4.5,4.5-4.5C741.8078003,609.9257813,743.8228149,611.9407959,743.8228149,614.4257813"/>
	<circle class="st25" cx="739.3228149" cy="614.4257813" r="4.5"/>
</g>
<rect class="st0" width="463" height="392.5"/>
<g>
	<defs>
		<rect id="SVGID_21_" width="463" height="392.5"/>
	</defs>
	<clipPath id="SVGID_22_">
		<use xlink:href="#SVGID_21_"  style="overflow:visible;"/>
	</clipPath>
	<line class="st28" x1="230.5" y1="1" x2="230.5" y2="392.5"/>
	<line class="st28" x1="230.5" y1="0.5" x2="229" y2="2"/>
	<line class="st28" x1="230.5" y1="0.5" x2="232" y2="2"/>
	<line class="st28" x1="0" y1="205" x2="462" y2="205"/>
	<line class="st28" x1="462.5" y1="205" x2="461" y2="203.5"/>
	<line class="st28" x1="462.5" y1="205" x2="461" y2="206.5"/>
	<line class="st28" x1="0" y1="205" x2="0" y2="206.5"/>
</g>
<line class="st2" x1="33" y1="205" x2="33" y2="206.5"/>
<line class="st2" x1="66" y1="205" x2="66" y2="206.5"/>
<line class="st2" x1="99" y1="205" x2="99" y2="206.5"/>
<line class="st2" x1="132" y1="205" x2="132" y2="206.5"/>
<line class="st2" x1="165" y1="205" x2="165" y2="206.5"/>
<line class="st2" x1="197.5" y1="205" x2="197.5" y2="206.5"/>
<line class="st2" x1="230.5" y1="205" x2="230.5" y2="206.5"/>
<line class="st2" x1="263.5" y1="205" x2="263.5" y2="206.5"/>
<line class="st2" x1="296.5" y1="205" x2="296.5" y2="206.5"/>
<line class="st2" x1="329.5" y1="205" x2="329.5" y2="206.5"/>
<line class="st2" x1="362" y1="205" x2="362" y2="206.5"/>
<line class="st2" x1="395" y1="205" x2="395" y2="206.5"/>
<line class="st2" x1="428" y1="205" x2="428" y2="206.5"/>
<line class="st2" x1="229" y1="369.5" x2="230.5" y2="369.5"/>
<line class="st2" x1="229" y1="336.5" x2="230.5" y2="336.5"/>
<line class="st2" x1="229" y1="304" x2="230.5" y2="304"/>
<line class="st2" x1="229" y1="271" x2="230.5" y2="271"/>
<line class="st2" x1="229" y1="238" x2="230.5" y2="238"/>
<line class="st2" x1="229" y1="172" x2="230.5" y2="172"/>
<line class="st2" x1="229" y1="139" x2="230.5" y2="139"/>
<line class="st2" x1="229" y1="106.5" x2="230.5" y2="106.5"/>
<line class="st2" x1="229" y1="73.5" x2="230.5" y2="73.5"/>
<line class="st2" x1="229" y1="40.5" x2="230.5" y2="40.5"/>
<line class="st2" x1="229" y1="7.5" x2="230.5" y2="7.5"/>
<g>
	<defs>
		<rect id="SVGID_23_" width="463" height="392.5"/>
	</defs>
	<clipPath id="SVGID_24_">
		<use xlink:href="#SVGID_23_"  style="overflow:visible;"/>
	</clipPath>
	<circle class="st29" cx="230.5903931" cy="205.0360718" r="153.3305054"/>
	<circle class="st30" cx="230.5901947" cy="205.0360718" r="74.7154999"/>
</g>
<line class="st5" x1="166.6860962" y1="243.7490234" x2="361.7341003" y2="125.5890503"/>
<line class="st6" x1="361.7338867" y1="125.5895996" x2="320.0708618" y2="56.8166504"/>
<polygon class="st7" points="315.4082031,49.1188965 321.9951782,55.6509399 318.1471863,57.9829102 "/>
<line class="st6" x1="166.6860962" y1="243.7490234" x2="188.263092" y2="279.3670349"/>
<polygon class="st7" points="192.927002,287.0654907 186.3389893,280.5345154 190.1879883,278.2025146 "/>
<g>
	<defs>
		<rect id="SVGID_25_" width="463" height="392.5"/>
	</defs>
	<clipPath id="SVGID_26_">
		<use xlink:href="#SVGID_25_"  style="overflow:visible;"/>
	</clipPath>
	<path class="st31" d="M233.5903015,205.0360718c0,1.6560059-1.3440094,3-3,3c-1.6570129,0-3-1.3439941-3-3
		c0-1.6559448,1.3429871-3,3-3C232.2462921,202.0360718,233.5903015,203.380127,233.5903015,205.0360718"/>
	<path class="st32" d="M171.1860962,243.7490234c0,2.4850464-2.0150146,4.5-4.5,4.5c-2.4860077,0-4.5-2.0149536-4.5-4.5
		c0-2.4859619,2.0139923-4.5,4.5-4.5C169.1710815,239.2490234,171.1860962,241.2630615,171.1860962,243.7490234"/>
	<circle class="st33" cx="166.6860962" cy="243.7490234" r="4.5"/>
	<path class="st34" d="M366.2338867,125.5895996c0,2.4850464-2.0150146,4.5-4.5,4.5c-2.4860229,0-4.5-2.0149536-4.5-4.5
		c0-2.4849854,2.0139771-4.5,4.5-4.5C364.2188721,121.0895996,366.2338867,123.1046143,366.2338867,125.5895996"/>
	<circle class="st33" cx="361.7338867" cy="125.5895996" r="4.5"/>
</g>
<path class="st0" d="M0,392.5000916h926H0z"/>
<g>
	<defs>
		<rect id="SVGID_27_" width="926" height="785"/>
	</defs>
	<clipPath id="SVGID_28_">
		<use xlink:href="#SVGID_27_"  style="overflow:visible;"/>
	</clipPath>
	<line class="st35" x1="0" y1="392.5" x2="926" y2="392.5"/>
</g>
<path class="st0" d="M462.9996033,0.0001831v785V0.0001831z"/>
<g>
	<defs>
		<rect id="SVGID_29_" width="926" height="785"/>
	</defs>
	<clipPath id="SVGID_30_">
		<use xlink:href="#SVGID_29_"  style="overflow:visible;"/>
	</clipPath>
	<line class="st36" x1="463" y1="0" x2="463" y2="785"/>
</g>
</svg>
