<?xml version="1.0" encoding="utf-8"?>
<!-- Generator: Adobe Illustrator 19.0.0, SVG Export Plug-In . SVG Version: 6.00 Build 0)  -->
<svg version="1.1" id="Layer_1" xmlns="http://www.w3.org/2000/svg" xmlns:xlink="http://www.w3.org/1999/xlink" x="0px" y="0px"
	 viewBox="0 0 122.3333359 100" style="enable-background:new 0 0 122.3333359 100;" xml:space="preserve">
<style type="text/css">
	.st0{fill:none;stroke:#000000;stroke-miterlimit:10;}
	.st1{fill:none;stroke:#F7941E;stroke-miterlimit:10;}
	.st2{fill:none;stroke:#1C75BC;stroke-miterlimit:10;}
	.st3{fill:none;stroke:#A7A9AC;stroke-miterlimit:10;}
	.st4{fill:#010101;}
	.st5{fill:#1C75BC;}
	.st6{fill:#F7941E;}
</style>
<line class="st0" x1="13.9415226" y1="95.4983368" x2="13.9415226" y2="2.7996333"/>
<line class="st0" x1="114.0026627" y1="51.0981827" x2="35.6526718" y2="51.0981827"/>
<polygon points="114.0026627,49.1487923 119.3414612,51.0988274 114.0026627,53.0481567 "/>
<line class="st1" x1="89.6888733" y1="19.9008217" x2="35.6526718" y2="51.0988274"/>
<line class="st2" x1="89.6895142" y1="19.9008217" x2="13.9415226" y2="19.9008217"/>
<line class="st0" x1="35.6526718" y1="60.0885658" x2="35.6526718" y2="64.584404"/>
<polygon points="30.3138714,60.3871536 35.6526718,62.3371277 30.3138714,64.2865219 "/>
<polygon points="19.2803249,64.285881 13.9415226,62.336483 19.2803249,60.3871536 "/>
<line class="st0" x1="30.3138714" y1="62.3371277" x2="16.0824394" y2="62.3371277"/>
<path class="st3" d="M46.1866035,45.0170555c2.2231255,2.0118217,2.5038605,3.7259521,2.2231255,6.0811272"/>
<g>
	<g>
		<path class="st4" d="M25.3429356,64.3479843l-1.6411133,5.6816406c0.7084961-1.0693359,1.2617188-1.7788086,1.6586914-2.1298828
			c0.3964844-0.3510742,0.7763672-0.5268555,1.1386719-0.5268555c0.1865234,0,0.3427734,0.0644531,0.4667969,0.1933594
			c0.125,0.128418,0.1875,0.300293,0.1875,0.5146484c0,0.2573242-0.0546875,0.5698242-0.1640625,0.9360352l-0.7119141,2.4521484
			c-0.0898438,0.2958984-0.1347656,0.4599609-0.1347656,0.4912109c0,0.0546875,0.0166016,0.0996094,0.0498047,0.1347656
			s0.0712891,0.0527344,0.1142578,0.0527344c0.0507813,0,0.1083984-0.0253906,0.1748047-0.0761719
			c0.2216797-0.171875,0.4423828-0.4101563,0.6601563-0.7138672l0.1806641,0.1113281
			c-0.1318359,0.2060547-0.3164063,0.4335938-0.5517578,0.6816406c-0.2353516,0.2470703-0.4375,0.4189453-0.6074219,0.5146484
			c-0.1689453,0.0957031-0.3203125,0.1435547-0.4521484,0.1435547c-0.1445313,0-0.2626953-0.0458984-0.3535156-0.1376953
			s-0.1376953-0.2099609-0.1376953-0.3535156c0-0.171875,0.0683594-0.4921875,0.2050781-0.9599609l0.6708984-2.3408203
			c0.0859375-0.2919922,0.1289063-0.5224609,0.1289063-0.6904297c0-0.0776367-0.0244141-0.1401367-0.0732422-0.1870117
			s-0.1113281-0.0703125-0.1894531-0.0703125c-0.1132813,0-0.2421875,0.0429688-0.3857422,0.1289063
			c-0.2646484,0.1635742-0.5703125,0.4677734-0.9165039,0.9125977c-0.09375,0.1210938-0.4052734,0.6083984-0.9345703,1.4628906
			c-0.1635742,0.2734375-0.2978516,0.5712891-0.402832,0.8955078l-0.3740234,1.1992188h-0.8759766l1.9213867-6.6938477
			l0.2045898-0.7255859c0-0.1010742-0.0419922-0.190918-0.1254883-0.269043
			c-0.0839844-0.078125-0.1860352-0.1171875-0.3066406-0.1171875c-0.0703125,0-0.1772461,0.0117188-0.3212891,0.0351563
			l-0.1225586,0.0175781v-0.2280273L25.3429356,64.3479843z"/>
	</g>
</g>
<g>
	<g>
		<path class="st4" d="M53.6056328,45.3513985c0.5117188-1.5366211,1.2167969-2.7202148,2.1162109-3.5512695
			c0.6777344-0.6235352,1.3466797-0.9360352,2.0048828-0.9360352c0.6386719,0,1.0839844,0.300293,1.3359375,0.9008789
			c0.3525391,0.8383789,0.2861328,1.9799805-0.1933594,3.4233398c-0.4570313,1.3730469-1.1259766,2.4570313-2.0097656,3.2529297
			c-0.6884766,0.6162109-1.3598633,0.9248047-2.0141602,0.9248047c-0.3535156,0-0.6479492-0.0859375-0.8833008-0.2578125
			c-0.234375-0.1708984-0.4111328-0.4199219-0.5297852-0.7431641c-0.1176758-0.3232422-0.1762695-0.6669922-0.1772461-1.0292969
			C53.257,46.7107735,53.3732109,46.0506172,53.6056328,45.3513985z M54.7306328,45.3221016
			c-0.215332,0.6953125-0.3701172,1.3183594-0.4648438,1.8730469c-0.0737305,0.421875-0.0810547,0.7871094-0.0209961,1.0996094
			c0.034668,0.1875,0.1240234,0.3466797,0.2670898,0.4775391c0.144043,0.1308594,0.3222656,0.1953125,0.5361328,0.1953125
			c0.2490234,0,0.5253906-0.1171875,0.8271484-0.3515625c0.3017578-0.2333984,0.5957031-0.609375,0.8837891-1.1279297
			c0.2871094-0.5195313,0.5957031-1.2412109,0.9267578-2.1660156H54.7306328z M57.8253593,44.9368477
			c0.3359375-1.0185547,0.5107422-1.8359375,0.5244141-2.4521484c0.0087891-0.4716797-0.0742188-0.8095703-0.2529297-1.0126953
			c-0.1298828-0.1474609-0.3105469-0.222168-0.5449219-0.222168c-0.2646484,0-0.5429688,0.1035156-0.8330078,0.3100586
			c-0.2900391,0.2070313-0.5742188,0.5522461-0.8496094,1.0361328c-0.2763672,0.4838867-0.6132813,1.2641602-1.0102539,2.3408203
			H57.8253593z"/>
	</g>
</g>
<g>
	<g>
		<path class="st5" d="M52.9552422,11.5447588l-1.1386719,3.980957l-0.1289063,0.5341806
			c-0.0117188,0.0507813-0.0175781,0.09375-0.0175781,0.1298828c0,0.0625,0.0195313,0.1171875,0.0585938,0.1640625
			c0.03125,0.0351563,0.0703125,0.0527344,0.1171875,0.0527344c0.0498047,0,0.1162109-0.03125,0.1982422-0.09375
			c0.1513672-0.1132813,0.3544922-0.3486338,0.6074219-0.7050791l0.1982422,0.1416016
			c-0.2685547,0.4072275-0.5449219,0.7167978-0.8291016,0.930665c-0.2841797,0.2128906-0.546875,0.3193359-0.7880859,0.3193359
			c-0.1669922,0-0.2939453-0.0419922-0.3769531-0.1259766s-0.1259766-0.2060547-0.1259766-0.3671875
			c0-0.1914063,0.0429688-0.4443359,0.1289063-0.7568369l0.1230469-0.4404297
			c-0.5102539,0.6689453-0.9794922,1.1367197-1.4077148,1.4033213c-0.3076172,0.1914063-0.609375,0.2871094-0.9052734,0.2871094
			c-0.2841797,0-0.5292969-0.1181641-0.7358398-0.3544922c-0.206543-0.2373047-0.3095703-0.5634766-0.3095703-0.9785166
			c0-0.6220703,0.1860352-1.2783203,0.5576172-1.9697266c0.3720703-0.6904297,0.8442383-1.2436523,1.4165039-1.6586914
			c0.4472656-0.3286133,0.8701172-0.4931641,1.2670898-0.4931641c0.2373047,0,0.4355469,0.0629883,0.5927734,0.1879883
			c0.1572266,0.1254883,0.2773438,0.3325195,0.359375,0.6225586l0.2099609-0.6694336L52.9552422,11.5447588z M50.8761406,11.8504229
			c-0.2490234,0-0.5141602,0.1171875-0.7944336,0.3520508c-0.3969727,0.3330078-0.7504883,0.8261719-1.0595703,1.4794922
			c-0.3095703,0.6533203-0.4643555,1.2451172-0.4643555,1.7734375c0,0.2666016,0.065918,0.4765625,0.1982422,0.6308603
			c0.1323242,0.1552734,0.2841797,0.2324219,0.4555664,0.2324219c0.4243164,0,0.8857422-0.3154297,1.3842773-0.9453135
			c0.6650391-0.8378906,0.9990234-1.6972656,0.9990234-2.5776367c0-0.3330078-0.0644531-0.5737305-0.1933594-0.7226563
			C51.272625,11.9246416,51.0978203,11.8504229,50.8761406,11.8504229z"/>
	</g>
</g>
<g>
	<g>
		<path class="st4" d="M30.4239902,44.9324532c0.5332031,0,1.0048828,0.1142578,1.4150391,0.3422852
			c0.4101582,0.2285156,0.7314472,0.565918,0.9648457,1.012207c0.2324219,0.4467773,0.3496094,0.9101563,0.3496094,1.3896484
			c0,0.8505859-0.25,1.7426758-0.7490234,2.6772461c-0.4990253,0.9345703-1.1513691,1.6464844-1.9560566,2.1386719
			c-0.8056641,0.4912109-1.6376953,0.7373047-2.4980469,0.7373047c-0.6196289,0-1.137207-0.1357422-1.5537109-0.4072266
			c-0.4165039-0.2705078-0.7241211-0.6289063-0.9233398-1.0732422c-0.1992188-0.4453125-0.2988281-0.8759766-0.2988281-1.2929688
			c0-0.7412109,0.1806641-1.4736328,0.5415039-2.1972656s0.7919922-1.3286133,1.293457-1.8139648
			c0.5009766-0.4858398,1.0356445-0.859375,1.6040039-1.1206055C29.1808262,45.0633125,29.7853184,44.9324532,30.4239902,44.9324532
			z M30.2228184,45.3069649c-0.3945313,0-0.7802734,0.0966797-1.1572266,0.2895508
			c-0.3764648,0.1933594-0.7504883,0.5092773-1.1210938,0.9482422c-0.3710938,0.4384766-0.7045898,1.0131836-1.0004883,1.7231445
			c-0.362793,0.8740234-0.5444336,1.6982422-0.5444336,2.4746094c0,0.5546875,0.144043,1.0449219,0.4321289,1.4716797
			c0.2880859,0.4277344,0.7299805,0.640625,1.3256836,0.640625c0.359375,0,0.7114258-0.0878906,1.0566406-0.2626953
			c0.3457031-0.1757813,0.7050781-0.4765625,1.0800781-0.9013672c0.4697266-0.5341797,0.8642578-1.2158203,1.1835938-2.0449219
			c0.3203125-0.8291016,0.4794922-1.6025391,0.4794922-2.3203125c0-0.5302734-0.1435547-0.9995117-0.4316406-1.4072266
			C31.2374668,45.5110664,30.8028965,45.3069649,30.2228184,45.3069649z"/>
	</g>
</g>
<g>
	<g>
		<path class="st4" d="M8.2111006,55.0906563H2.2985027l0.0820313-0.2148438
			C2.6944988,54.868,2.9044597,54.8426094,3.0104167,54.7996407c0.1645508-0.0693359,0.2861328-0.1611328,0.3647461-0.2734375
			c0.121582-0.1777344,0.2509766-0.5,0.3881836-0.9648438l1.4057615-4.7993164
			c0.1176758-0.3955078,0.1767578-0.6860352,0.1767578-0.8725586c0-0.1469727-0.0541992-0.2617188-0.1616211-0.3427734
			c-0.1079102-0.081543-0.3110352-0.1225586-0.6088867-0.1225586c-0.0668945,0-0.1201172-0.0014648-0.1591797-0.0053711
			l0.0708008-0.215332h3.253418l-0.046875,0.215332c-0.3652344,0-0.6240234,0.034668-0.7773438,0.1044922
			c-0.1523438,0.0698242-0.2802734,0.184082-0.3818359,0.3432617C6.4640298,47.9710274,6.3478189,48.296711,6.186686,48.843586
			l-1.3823242,4.7177734C4.6988931,53.9178047,4.6456704,54.1658516,4.6456704,54.3055
			c0,0.0927734,0.0532227,0.1826172,0.1586914,0.2675781c0.0668945,0.0576172,0.2177734,0.0869141,0.453125,0.0869141h0.7709961
			c0.5605469,0,1.0058594-0.0693359,1.3349609-0.2089844c0.2431641-0.1044922,0.4667969-0.2617188,0.6708989-0.4716797
			c0.109375-0.1162109,0.3037109-0.4052734,0.5820313-0.8662109l0.1533203-0.2617188h0.2177734L8.2111006,55.0906563z"/>
	</g>
</g>
<g>
	<g>
		<path class="st6" d="M69.2482071,34.6888008l1.996582-0.3261719l-0.8330078,2.8325195
			c0.6748047-1.1616211,1.2885742-1.9736328,1.840332-2.4360352c0.3125-0.2646484,0.5673828-0.3964844,0.7636719-0.3964844
			c0.1269531,0,0.2275391,0.0375977,0.3007813,0.1137695c0.0732422,0.0756836,0.1103516,0.1855469,0.1103516,0.3291016
			c0,0.2563477-0.0654297,0.5014648-0.1972656,0.734375c-0.0917969,0.1748047-0.2255859,0.262207-0.3994141,0.262207
			c-0.0878906,0-0.1640625-0.0288086-0.2285156-0.0874023c-0.0634766-0.0581055-0.1025391-0.1474609-0.1181641-0.2680664
			c-0.0078125-0.0737305-0.0253906-0.1225586-0.0517578-0.1455078c-0.03125-0.03125-0.0683594-0.046875-0.1103516-0.046875
			c-0.0654297,0-0.1269531,0.015625-0.1855469,0.046875c-0.0996094,0.0541992-0.2529297,0.2060547-0.4570313,0.4545898
			c-0.3203125,0.3808594-0.6674805,0.8740234-1.0415039,1.4804688c-0.1621094,0.2568359-0.3012695,0.5458984-0.4169922,0.8681641
			c-0.1616211,0.4433594-0.2543945,0.7089844-0.2773438,0.7988281l-0.1855469,0.734375h-0.8852539l1.0708008-3.6196289
			c0.1230469-0.4194336,0.1850586-0.71875,0.1850586-0.8974609c0-0.0703125-0.0288086-0.128418-0.0869141-0.1748047
			c-0.0771484-0.0625-0.1791992-0.0932617-0.3066406-0.0932617c-0.0810547,0-0.2294922,0.0170898-0.4458008,0.0522461
			L69.2482071,34.6888008z"/>
	</g>
</g>
<g>
</g>
<g>
</g>
<g>
</g>
<g>
</g>
<g>
</g>
<g>
</g>
</svg>
