<?xml version="1.0" encoding="utf-8"?>
<!-- Generator: Adobe Illustrator 19.0.0, SVG Export Plug-In . SVG Version: 6.00 Build 0)  -->
<svg version="1.1" id="Layer_1" xmlns="http://www.w3.org/2000/svg" xmlns:xlink="http://www.w3.org/1999/xlink" x="0px" y="0px"
	 viewBox="0 0 394.8330078 299.0886536" style="enable-background:new 0 0 394.8330078 299.0886536;" xml:space="preserve">
<style type="text/css">
	.st0{fill:none;stroke:#3553A4;stroke-linejoin:round;stroke-miterlimit:10;}
	.st1{fill:none;stroke:#ED2124;stroke-linejoin:round;stroke-miterlimit:10;}
	.st2{fill-rule:evenodd;clip-rule:evenodd;}
	.st3{fill:#010101;}
</style>
<g>
	<path class="st0" d="M65.416008,147.6716461l-0.0830002-0.1660004l-0.1669998-0.1669922l-0.1660004-0.0830078l-0.0839996-0.1669922
		l-0.1660004-0.1670074l-0.1669998-0.0829926l-0.1669998-0.1670074l-0.1660004-0.1660004l-0.0839996-0.0839996l-0.1660004-0.1660004
		l-0.166996-0.0839996l-0.1669998-0.0829926l-0.1660004-0.1670074l-0.1669998-0.0829926l-0.1669998-0.0830078l-0.1660004-0.0839996
		l-0.1669998-0.0829926l-0.1669998-0.0830078l-0.1660004-0.0839996l-0.1669998-0.0829926l-0.25-0.0830078l-0.1669998-0.0839996
		l-0.1660004-0.0829926l-0.1669998-0.0830078h-0.1669998l-0.1660004-0.0839996l-0.1669998-0.0829926h-0.1669998
		l-0.1660004-0.0830078h-0.1669998l-0.1669998-0.0839996h-0.25l-0.1660004-0.0829926h-0.5l-0.1669998-0.0830078h-1.75
		l-0.1669998,0.0830078h-0.5l-0.1660004,0.0829926h-0.25l-0.1669998,0.0839996h-0.25l-0.1669998,0.0830078h-0.1660004
		l-0.0839996,0.0829926h-0.1660004l-0.0839996,0.0839996l-0.1660004,0.0830078h-0.1669998l-0.0830002,0.0829926h-0.1669998
		l-0.0830002,0.0839996l-0.1669998,0.0830078h-0.0830002l-0.0839996,0.0829926l-0.1660004,0.0839996h-0.0839996
		l-0.1660004,0.0830078l-0.0839996,0.0829926l-0.0830002,0.0839996h-0.1669998l-0.0830002,0.0830078l-0.0830002,0.0829926
		l-0.0839996,0.0839996h-0.1660004l-0.0839996,0.0830078l-0.0830002,0.0829926l-0.0830002,0.0839996l-0.0839996,0.0830078
		l-0.0830002,0.0829926h-0.0830002l-0.1669998,0.0839996l-0.0830002,0.0830078l-0.0839996,0.0829926l-0.0830002,0.0839996
		l-0.0830002,0.0830078l-0.0839996,0.0829926l-0.0830002,0.0839996l-0.0830002,0.0830078l-0.0839996,0.0829926v0.0839996
		l-0.0830002,0.0830078l-0.0830002,0.0829926l-0.0839996,0.0839996h-0.0830002l-0.0830002,0.0830078l-0.0839996,0.0829926v0.0839996
		l-0.0830002,0.0830078l-0.0830002,0.0829926l-0.0839996,0.0839996v0.0830078l-0.0830002,0.0829926l-0.0830002,0.0839996v0.0830078
		l-0.0839996,0.0829926l-0.0830002,0.0839996v0.0830078l-0.0830002,0.1669922l-0.0839996,0.0830078v0.0829926l-0.0830002,0.0839996
		v0.0830078l-0.0830002,0.0829926v0.0839996l-0.0839996,0.0830078v0.0829926l-0.0830002,0.0839996v0.0830078l-0.0830002,0.0829926
		v0.1670074l-0.0839996,0.0829926v0.0839996l-0.0830002,0.0830078v0.1669922l-0.0830002,0.0830078v0.3329926l-0.0839996,0.0839996
		v0.25l-0.0830002,0.0830078v0.3329926l-0.0830002,0.0839996v1.9160004l0.0830002,0.0839996v0.4160004l0.0830002,0.0839996v0.25
		l0.0839996,0.0830078v0.25l0.0830002,0.0829926v0.1670074l0.0830002,0.0829926v0.0839996l0.0839996,0.0830078v0.25
		l0.0830002,0.0829926v0.0839996l0.0830002,0.0830078v0.0829926l0.0839996,0.0839996v0.0830078l0.0830002,0.0829926v0.0839996
		l0.0830002,0.0830078v0.0829926l0.0839996,0.0839996l0.0830002,0.0830078v0.0829926l0.0830002,0.0839996l0.0839996,0.0830078
		v0.0829926l0.0830002,0.0839996l0.0830002,0.0830078v0.0829926l0.0839996,0.0839996l0.0830002,0.0830078l0.0830002,0.0829926
		v0.0839996l0.0839996,0.0830078l0.0830002,0.0829926l0.0830002,0.0839996l0.0839996,0.0830078l0.0830002,0.0829926
		l0.0830002,0.0839996v0.0830078l0.0839996,0.0829926l0.0830002,0.0839996l0.0830002,0.0830078l0.0839996,0.0829926
		l0.0830002,0.0839996h0.0830002l0.0839996,0.0830078l0.0830002,0.0829926l0.1669998,0.0839996l0.0830002,0.0830078
		l0.0830002,0.0829926l0.0839996,0.0839996l0.0830002,0.0830078h0.0830002l0.0839996,0.0829926l0.1660004,0.0839996
		l0.0839996,0.0830078l0.0830002,0.0829926h0.0830002l0.1669998,0.0839996l0.0830002,0.0830078l0.0839996,0.0829926h0.1660004
		l0.0839996,0.0839996l0.1660004,0.0830078h0.0839996l0.0830002,0.0829926l0.1669998,0.0839996h0.0830002l0.1669998,0.0830078
		l0.0830002,0.0829926h0.1669998l0.1660004,0.0839996h0.0839996l0.1660004,0.0830078h0.0839996l0.1660004,0.0829926h0.1669998
		l0.0830002,0.0839996h0.3339996l0.1660004,0.0830078h0.25l0.1669998,0.0829926h0.5830002l0.1669998,0.0839996h1.1669998
		l0.1660004-0.0839996h0.6669998l0.1669998-0.0829926h0.1660004l0.25-0.0830078h0.1669998l0.1669998-0.0839996h0.1660004
		l0.1669998-0.0829926h0.1669998l0.1660004-0.0830078l0.1669998-0.0839996h0.1669998l0.1660004-0.0829926l0.1669998-0.0830078
		l0.25-0.0839996l0.1669998-0.0829926l0.1660004-0.0830078l0.1669998-0.0839996l0.1669998-0.0829926l0.1660004-0.0830078
		l0.1669998-0.1669922l0.1669998-0.0830078l0.1660004-0.0839996l0.1669998-0.0829926l0.166996-0.1670074l0.1660004-0.0829926
		l0.0839996-0.1670074l0.1660004-0.0829926l0.1669998-0.1670074l0.1669998-0.1660004l0.1660004-0.0839996l0.0839996-0.1660004
		l0.1660004-0.1669922l0.1669998-0.1670074l0.0830002-0.1660004l0.1669998-0.0839996l0.0830002-0.1660004l0.1669998-0.1669922
		l0.0830002-0.1670074l0.0839996-0.25l0.1660004-0.1660004l0.0839996-0.1669922l0.0830002-0.1670074l0.0830002-0.1660004
		l0.0839996-0.25l0.0830002-0.1669922l0.0830002-0.1670074l0.0839996-0.25l0.0830002-0.1660004l0.0830002-0.1669922v-0.25
		l0.0839996-0.1670074v-0.25l0.0830002-0.1660004v-0.25l0.0830002-0.1669922v-0.8330078 M67.166008,152.5056458v-0.8339996
		l-0.0830002-0.25v-0.1660004l-0.0830002-0.25v-0.1669922l-0.0839996-0.25v-0.1670074l-0.0830002-0.1660004l-0.0830002-0.25
		l-0.0839996-0.1669922l-0.0830002-0.25l-0.0830002-0.1670074l-0.0839996-0.1660004l-0.0830002-0.1669922l-0.0830002-0.25
		l-0.0839996-0.1670074l-0.1660004-0.1660004l-0.0839996-0.1669922l-0.0830002-0.1670074l-0.1669998-0.1660004l-0.0830002-0.1669922
		l-0.1669998-0.1670074 M89.166008,128.0886536h-4.5830002l-1.0830002,0.0829926l-1.0839996,0.0839996l-1,0.0830078l-1,0.0829926
		l-1,0.0839996l-0.9160004,0.1660004l-0.9169998,0.1670074l-0.9169998,0.0829926l-0.9160004,0.1670074l-0.8339996,0.1669922
		l-0.8330002,0.1660004l-0.75,0.1670074l-0.8330002,0.1669922l-0.75,0.1660004l-0.6669998,0.25l-0.75,0.1670074
		l-0.6669998,0.1669922l-0.6660004,0.25l-0.6669998,0.1660004l-0.6669998,0.25l-0.5830002,0.1670074l-0.5830002,0.25
		l-0.5839996,0.1669922l-0.5830002,0.25l-0.5,0.25l-0.5830002,0.1660004l-0.4999962,0.25l-0.5,0.1670074l-0.5,0.25l-0.4169998,0.25
		l-0.5,0.1669922l-0.4169998,0.25l-0.4160004,0.25l-0.4169998,0.1660004l-0.4169998,0.25l-0.4160004,0.1670074l-0.3339996,0.25
		l-0.4160004,0.25l-0.3339996,0.1669922l-0.3330002,0.25l-0.4169998,0.1660004l-0.3330002,0.25l-0.25,0.1670074l-0.3330002,0.25
		l-0.3339996,0.1669922l-0.25,0.25l-0.3330002,0.1660004l-0.25,0.25l-0.25,0.1670074l-0.3330002,0.25l-0.25,0.1669922l-0.25,0.25
		l-0.25,0.1660004l-0.1669998,0.1670074l-0.25,0.25l-0.25,0.1669922l-0.25,0.25l-0.1669998,0.1660004l-0.25,0.1670074
		l-0.1660004,0.25l-0.1669998,0.1669922l-0.25,0.1660004l-0.1669998,0.1670074l-0.1660004,0.25l-0.1669998,0.1669922
		l-0.1669998,0.1660004l-0.1660004,0.1670074l-0.1669998,0.1669922l-0.1669998,0.25l-0.1660004,0.1660004l-0.1669998,0.1670074
		l-0.1669998,0.1669922l-0.0830002,0.1660004l-0.1669998,0.1670074l-0.1660004,0.1669922l-0.0839996,0.1660004l-0.1660004,0.1670074
		l-0.0839996,0.25l-0.1660004,0.1669922l-0.0839996,0.1660004l-0.0830002,0.1670074l-0.1669998,0.1669922l-0.0830002,0.1660004
		l-0.0830002,0.1670074l-0.1669998,0.1669922l-0.0830002,0.1660004l-0.0839996,0.1670074l-0.0830002,0.0829926l-0.0830002,0.1670074
		l-0.0839996,0.1669922l-0.0830002,0.1660004l-0.0830002,0.1670074l-0.0839996,0.1669922l-0.0830002,0.1660004l-0.0830002,0.1670074
		l-0.0839996,0.1669922l-0.0830002,0.1660004l-0.0830002,0.0839996l-0.0839996,0.1660004l-0.0830002,0.1670074v0.1669922
		l-0.0830002,0.1660004l-0.0839996,0.1670074l-0.0830002,0.0829926v0.1670074l-0.0830002,0.1669922l-0.0839996,0.1660004v0.1670074
		l-0.0830002,0.0829926v0.1670074l-0.0830002,0.1669922v0.1660004l-0.0839996,0.0839996v0.1660004l-0.0830002,0.1670074v0.1669922
		l-0.0830002,0.0830078v0.1669922l-0.0839996,0.1660004v0.25l-0.0830002,0.1670074v0.25l-0.0830002,0.1669922v0.3330078
		l-0.0839996,0.0829926v0.75l-0.0830002,0.0839996v2.4160004l0.0830002,0.1670074v0.6669922l0.0839996,0.1660004v0.25
		l0.0830002,0.1670074v0.3329926l0.0830002,0.0839996v0.3330078l0.0839996,0.0829926v0.1670074l0.0830002,0.1669922v0.1660004
		l0.0830002,0.0839996v0.1660004l0.0839996,0.1670074v0.1669922l0.0830002,0.0830078v0.1669922l0.0830002,0.1660004v0.1670074
		l0.0839996,0.1669922l0.0830002,0.0830078v0.1669922l0.0830002,0.1660004l0.0839996,0.1670074l0.0830002,0.1669922v0.0830078
		l0.0830002,0.1669922l0.0839996,0.1660004l0.0830002,0.1670074l0.0830002,0.1669922l0.0839996,0.1660004l0.0830002,0.1670074
		l0.0830002,0.1669922l0.0839996,0.0830078l0.0830002,0.1669922l0.0830002,0.1660004l0.0839996,0.1670074l0.0830002,0.1669922
		l0.0830002,0.1660004l0.0839996,0.1670074l0.0830002,0.1669922l0.1669998,0.1660004l0.0830002,0.1670074l0.0830002,0.1669922
		l0.1669998,0.1660004l0.0830002,0.1670074l0.0839996,0.1669922l0.1660004,0.1660004l0.0839996,0.1670074l0.1660004,0.1669922
		l0.0839996,0.1660004l0.1660004,0.1670074l0.1669998,0.1669922l0.0830002,0.25l0.1669998,0.1660004l0.1669998,0.1670074
		l0.1660004,0.1669922l0.1669998,0.1660004l0.1669998,0.1670074l0.1660004,0.25l0.1669998,0.1669922l0.1669998,0.1660004
		l0.1660004,0.1670074l0.1669998,0.25l0.25,0.1669922l0.1669998,0.1660004l0.1660004,0.1670074l0.25,0.25l0.1669998,0.1669922
		l0.25,0.1660004l0.25,0.25l0.25,0.1670074l0.1669998,0.25l0.25,0.1669922l0.25,0.1660004l0.25,0.25l0.3330002,0.1670074l0.25,0.25
		l0.25,0.1669922l0.3330002,0.25l0.25,0.1660004l0.3339996,0.25l0.3330002,0.1670074l0.25,0.25l0.3330002,0.1669922l0.4169998,0.25
		l0.3330002,0.1660004l0.3339996,0.25l0.4160004,0.25l0.3339996,0.1670074l0.4160004,0.25l0.4169998,0.1669922l0.4169998,0.25
		l0.4160004,0.25l0.4169998,0.1660004l0.5,0.25l0.4169998,0.25l0.5,0.1670074l0.5,0.25l0.4999962,0.1669922l0.5830002,0.25l0.5,0.25
		l0.5830002,0.1660004l0.5839996,0.25l0.5830002,0.1670074l0.5830002,0.25l0.6669998,0.1669922l0.6669998,0.25l0.6660004,0.1660004
		l0.6669998,0.25l0.75,0.1670074l0.6669998,0.1669922l0.75,0.1660004l0.8330002,0.25l0.75,0.1670074l0.8330002,0.1669922
		l0.8339996,0.1660004l0.9160004,0.0839996l0.9169998,0.1660004l0.9169998,0.1670074l0.9160004,0.0829926l1,0.0839996l1,0.1660004
		l1,0.0839996l1.0839996,0.0830078h1.0830002l1.0830002,0.0829926h3.5l1.25-0.0829926h1.25l1.25-0.1670074l1.25-0.0829926
		l1.3339996-0.1670074l1.3330002-0.1660004l1.3330002-0.1669922l1.4169998-0.25l1.4169998-0.25l1.3330002-0.3330078
		l1.4169998-0.3339996l1.4160004-0.4160004l1.4169998-0.4169922l1.4169998-0.5l1.4160004-0.5l1.4169998-0.5830078
		l1.4169998-0.5839996l1.3330002-0.6660004l1.3330002-0.6669922l1.3339996-0.75l1.25-0.8330078l1.25-0.8339996l1.1660004-0.9160004
		l1.1669998-0.9169922l1.0830002-1l1-1l0.9169998-1.0830078l0.8330002-1.0839996l0.75-1.0829926l0.6669998-1.1670074l0.5830002-1.25
		l0.5-1.1660004l0.3339996-1.25l0.3330002-1.25l0.1670074-1.25v-1.25 M128.2500153,152.5056458v-1.25l-0.1670074-1.25
		l-0.3330002-1.25l-0.3339996-1.25l-0.5-1.25l-0.5830002-1.1669922l-0.6669998-1.1670074l-0.75-1.1660004l-0.8330002-1.0839996
		l-0.9169998-1l-1-1.0829926l-1.0830002-0.9170074l-1.1669998-1l-1.1660004-0.8329926l-1.25-0.9170074l-1.25-0.75l-1.3339996-0.75
		l-1.3330002-0.75l-1.3330002-0.5829926l-1.4169998-0.6670074l-1.4169998-0.5l-1.4160004-0.5829926l-1.4169998-0.4170074
		l-1.4169998-0.4160004l-1.4160004-0.4169922l-1.4169998-0.3330078l-1.3330002-0.3339996l-1.4169998-0.25l-1.4169998-0.25
		l-1.3330002-0.25l-1.3330002-0.1660004l-1.3339996-0.0839996l-1.25-0.1660004l-1.25-0.0839996l-1.25-0.0829926h-1.25
		 M100.7500076,117.3386536l-2.0839996,0.4169998l-1.9160004,0.4160004l-1.9169998,0.3339996l-1.8330002,0.4160004l-1.75,0.4169998
		l-1.6669998,0.4169998l-1.5830002,0.4160004l-1.5,0.4169998l-1.5,0.4169998l-1.4169998,0.4160004l-1.3330002,0.4169998
		l-1.25,0.4169998l-1.25,0.4160004l-1.1669998,0.4169998l-1.1669998,0.3330002l-1.0830002,0.4169998l-1.0830002,0.4169998
		l-1,0.4160004l-0.9169998,0.4169998l-0.9169998,0.3330002l-0.9160004,0.4169998l-0.8339996,0.3330002l-0.8330002,0.4169998
		l-0.8330002,0.3330002l-0.75,0.4169998l-0.75,0.3330002l-0.6669998,0.333992l-0.6669998,0.4160004l-0.6660004,0.3339996
		l-0.6669998,0.3330078l-0.5830002,0.3329926l-0.5839958,0.3339996l-0.5830002,0.3330078l-0.5,0.3329926l-0.5830002,0.3339996
		l-0.5,0.3330078l-0.5,0.3329926l-0.4169998,0.25l-0.5,0.3339996l-0.4169998,0.3330078l-0.4160004,0.25l-0.4169998,0.3329926
		l-0.4169998,0.25l-0.4160004,0.3339996l-0.3339996,0.25l-0.4160004,0.3330078l-0.3339996,0.25l-0.3330002,0.25
		l-0.3330002,0.3329926l-0.3339996,0.25l-0.3330002,0.25l-0.25,0.25l-0.3330002,0.25l-0.25,0.25l-0.25,0.25l-0.25,0.25
		l-0.3339996,0.25l-0.25,0.25l-0.1660004,0.25l-0.25,0.25l-0.25,0.25l-0.25,0.1670074l-0.1669998,0.25l-0.25,0.25l-0.1669998,0.25
		l-0.25,0.1669922l-0.1660004,0.25l-0.1669998,0.25l-0.1669998,0.1660004l-0.1660004,0.25l-0.1669998,0.1670074l-0.1669998,0.25
		l-0.1660004,0.1669922l-0.1669998,0.25l-0.1669998,0.1660004l-0.1660004,0.25l-0.0839996,0.1670074l-0.1660004,0.1669922
		l-0.1669998,0.25l-0.0830002,0.1660004l-0.1669998,0.1670074l-0.0830002,0.25l-0.1669998,0.1669922l-0.0830002,0.1660004
		l-0.1669998,0.25l-0.0830002,0.1670074l-0.0839996,0.1669922l-0.0830002,0.1660004l-0.1669998,0.1670074l-0.0830002,0.25
		l-0.0830002,0.1669922l-0.0839996,0.1660004l-0.0830002,0.1670074l-0.0830002,0.1669922l-0.0839996,0.1660004l-0.0830002,0.1670074
		l-0.0830002,0.1669922l-0.0839996,0.1660004l-0.0830002,0.25l-0.0830002,0.1670074l-0.0839996,0.1669922l-0.0830002,0.1660004
		v0.1670074l-0.0830002,0.1669922l-0.0839996,0.1660004l-0.0830002,0.1670074v0.1669922l-0.0830002,0.0830078l-0.0839996,0.1669922
		v0.1660004l-0.0830002,0.1670074l-0.0830002,0.1669922v0.1660004l-0.0839996,0.1670074v0.1669922l-0.0830002,0.1660004v0.1670074
		l-0.0830002,0.1669922v0.0830078l-0.0839996,0.1669922v0.3330078l-0.0830002,0.1669922v0.1660004l-0.0830002,0.1670074v0.4169922
		l-0.0839996,0.1660004v0.4170074l-0.0830002,0.1669922v1.0830078l-0.0830002,0.1669922v1l0.0830002,0.1660004v1
		l0.0830002,0.1670074v0.5l0.0839996,0.1669922v0.4160004l0.0830002,0.1670074v0.1669922l0.0830002,0.1660004v0.25
		l0.0839996,0.1670074v0.1669922l0.0830002,0.1660004v0.1670074l0.0830002,0.1669922v0.1660004l0.0839996,0.0839996v0.1660004
		l0.0830002,0.1670074l0.0830002,0.1669922v0.1660004l0.0839996,0.1670074l0.0830002,0.1669922v0.1660004l0.0830002,0.1670074
		l0.0839996,0.1669922l0.0830002,0.1660004v0.1670074l0.0830002,0.1669922l0.0839996,0.1660004l0.0830002,0.1670074
		l0.0830002,0.1669922l0.0839996,0.1660004l0.0830002,0.1670074l0.0830002,0.1669922l0.0839996,0.1660004l0.0830002,0.25
		l0.0830002,0.1670074l0.0839996,0.1669922l0.0830002,0.1660004l0.0830002,0.1670074l0.1669998,0.1669922l0.0830002,0.25
		l0.0839996,0.1660004l0.0830002,0.1670074l0.1669998,0.1669922l0.0830002,0.25l0.1669998,0.1660004l0.0830002,0.1670074
		l0.1669998,0.1669922l0.0830002,0.25l0.1669998,0.1660004l0.1660004,0.25l0.0839996,0.1670074l0.1660004,0.1669922l0.1669998,0.25
		l0.1669998,0.1660004l0.1660004,0.25l0.1669998,0.1670074l0.1669998,0.25l0.1660004,0.1669922l0.1669998,0.25l0.1669998,0.25
		l0.1660004,0.1660004l0.25,0.25l0.1669998,0.25l0.25,0.1670074l0.1669998,0.25l0.25,0.25l0.25,0.25l0.25,0.25l0.1660004,0.25
		l0.25,0.1669922l0.3339996,0.25l0.25,0.25l0.25,0.25l0.25,0.25l0.3330002,0.3330078l0.25,0.25l0.3330002,0.25l0.3339996,0.25
		l0.3330002,0.25l0.3330002,0.3329926l0.3339996,0.25l0.4160004,0.25l0.3339996,0.3339996l0.4160004,0.25l0.4169998,0.3330078
		l0.4169998,0.25l0.4160004,0.3329926l0.4169998,0.25l0.5,0.3339996l0.4169998,0.3330078l0.5,0.3329926l0.5,0.3339996
		l0.5830002,0.25l0.5,0.3330078l0.5830002,0.3329926l0.5839958,0.3339996l0.5830002,0.4160004l0.6669998,0.3339996
		l0.6660004,0.3330078l0.6669998,0.3329926l0.6669998,0.3339996l0.75,0.4160004l0.75,0.3339996l0.8330002,0.4160004
		l0.8330002,0.3339996l0.8339996,0.4160004l0.9160004,0.3339996l0.9169998,0.4160004l0.9169998,0.4170074l1,0.4169922
		l1.0830002,0.3330078l1.0830002,0.4169922l1.1669998,0.4160004l1.1669998,0.4170074l1.25,0.4169922l1.25,0.4160004
		l1.3330002,0.4170074l1.4169998,0.4169922l1.5,0.4160004l1.5,0.4170074l1.5830002,0.4169922l1.6669998,0.4160004l1.75,0.4170074
		l1.8330002,0.3329926l1.9169998,0.4170074l1.9160004,0.4169922l2.0839996,0.3330078l2.1660004,0.4169922l2.25,0.3330078
		l2.3339996,0.3329926l2.5,0.3339996l2.5830002,0.25l2.6669998,0.25l2.75,0.25l2.9160004,0.1660004l3.0839996,0.1670074
		l3.0830002,0.1669922l3.3330078,0.0830078h3.3339996l3.5829926-0.0830078l3.5830078-0.0839996l3.75-0.1660004l3.8339996-0.25
		l4-0.4169922l4.0829926-0.4170074l4.0830078-0.5829926l4.25-0.6670074l4.25-0.75l4.3339996-0.9160004l4.25-1.0839996
		l4.3329926-1.1660004l4.25-1.3339996l4.1670074-1.5l4-1.6660004l3.9160004-1.8339996l3.6669922-2l3.4170074-2.0829926
		l3.1660004-2.25l2.8339996-2.3330078l2.5-2.5839996l2.0829926-2.5829926l1.6670074-2.6670074l1.1660004-2.75l0.75-2.8329926
		l0.25-2.8330078 M219.9160156,152.5056458l-0.25-2.8339996l-0.75-2.8329926l-1.1660004-2.75l-1.6670074-2.75l-2.0829926-2.5830078
		l-2.5-2.5l-2.8339996-2.4169922l-3.1660004-2.25l-3.4170074-2.0830078l-3.6669922-1.9169922l-3.9160004-1.8330002l-4-1.6669998
		l-4.1670074-1.5l-4.25-1.3330002l-4.3329926-1.1669998l-4.25-1.0830002l-4.3339996-0.9169998l-4.25-0.8330002l-4.25-0.6669998
		l-4.0830078-0.5l-4.0829926-0.5l-4-0.3330002l-3.8339996-0.25l-3.75-0.1669998l-3.5830078-0.1669998h-6.9169922
		l-3.3330078,0.0839996l-3.0830002,0.0830002l-3.0839996,0.1669998l-2.9160004,0.25l-2.75,0.1660004l-2.6669998,0.3339996
		l-2.5830002,0.25l-2.5,0.3330002l-2.3339996,0.3330002l-2.25,0.3339996l-2.1660004,0.3330002 M114.666008,109.8386536l-3,0.75
		l-2.9160004,0.6669998l-2.6669998,0.6660004l-2.5830002,0.6669998l-2.5,0.6669998l-2.25,0.5830002l-2.25,0.6669998
		l-2.0839996,0.6660004l-1.9160004,0.5839996l-1.9169998,0.6660004l-1.75,0.5839996l-1.75,0.5830002l-1.5830002,0.5830002
		l-1.5,0.5839996l-1.5,0.5830002l-1.4169998,0.5l-1.3330002,0.5830002l-1.25,0.5l-1.25,0.5839996l-1.0839996,0.5l-1.1660004,0.5
		l-1,0.5l-1.0839996,0.5l-0.9160004,0.4160004l-0.9169998,0.5l-0.9169998,0.4169998l-0.8330002,0.5l-0.8330002,0.4169998
		l-0.75,0.4160004l-0.75,0.4169998l-0.75,0.4169998l-0.6669998,0.4160004l-0.6669998,0.4169998l-0.6660004,0.4169922
		l-0.5839958,0.4160004l-0.6660004,0.3339996l-0.5,0.4160004l-0.5839996,0.3339996l-0.5,0.3330078l-0.5830002,0.4169922
		l-0.4169998,0.3330078l-0.5,0.3329926l-0.5,0.3339996l-0.4160004,0.3330078l-0.4169998,0.3329926l-0.4169998,0.3339996
		l-0.4160004,0.3330078l-0.3339996,0.3329926l-0.4160004,0.25l-0.3339996,0.3339996l-0.3330002,0.25l-0.3330002,0.3330078
		l-0.3339996,0.25l-0.3330002,0.3329926l-0.3330002,0.25l-0.25,0.3339996l-0.3339996,0.25l-0.25,0.25l-0.25,0.25l-0.25,0.25
		l-0.25,0.3330078l-0.25,0.25l-0.25,0.25l-0.25,0.25l-0.1660004,0.25l-0.25,0.25l-0.1669998,0.1669922l-0.25,0.25l-0.1669998,0.25
		l-0.1660004,0.25l-0.25,0.25l-0.1669998,0.1660004l-0.1669998,0.25l-0.1660004,0.25l-0.1669998,0.1670074l-0.1669998,0.25
		l-0.1660004,0.25l-0.1669998,0.1669922l-0.0830002,0.25l-0.1669998,0.1660004l-0.1669998,0.25l-0.0830002,0.1670074
		l-0.1669998,0.25l-0.0830002,0.1669922l-0.1669998,0.1660004l-0.0830002,0.25l-0.1669998,0.1670074l-0.0830002,0.1669922
		l-0.0830002,0.25l-0.1669998,0.1660004l-0.0830002,0.1670074l-0.0839996,0.25l-0.0830002,0.1669922l-0.0830002,0.1660004
		l-0.0839996,0.1670074l-0.1660004,0.25l-0.0839996,0.1669922l-0.0830002,0.1660004l-0.0830002,0.1670074v0.1669922
		l-0.0839996,0.1660004l-0.0830002,0.1670074l-0.0830002,0.1669922l-0.0839996,0.25l-0.0830002,0.1660004l-0.0830002,0.1670074
		v0.1669922l-0.0839996,0.1660004l-0.0830002,0.1670074v0.1669922l-0.0830002,0.1660004l-0.0839996,0.1670074v0.1669922
		l-0.0830002,0.1660004l-0.0830002,0.1670074v0.1669922l-0.0839996,0.1660004v0.1670074l-0.0830002,0.0829926v0.1670074
		l-0.0830002,0.1669922v0.3330078l-0.0839996,0.1669922v0.1660004l-0.0830002,0.1670074v0.3329926l-0.0830002,0.0839996v0.5
		l-0.0839996,0.1660004v0.75l-0.0830002,0.1670074v2.3329926l0.0830002,0.0839996v0.8330078l0.0839996,0.1669922v0.4160004
		l0.0830002,0.1670074v0.3329926l0.0830002,0.1670074v0.1669922l0.0839996,0.0830078v0.3329926l0.0830002,0.1670074v0.1669922
		l0.0830002,0.1660004v0.1670074l0.0839996,0.1669922v0.1660004l0.0830002,0.1670074l0.0830002,0.1669922v0.1660004
		l0.0839996,0.1670074l0.0830002,0.1669922v0.1660004l0.0830002,0.1670074l0.0839996,0.1669922v0.1660004l0.0830002,0.1670074
		l0.0830002,0.1669922l0.0839996,0.1660004l0.0830002,0.1670074l0.0830002,0.1669922l0.0839996,0.1660004v0.25l0.0830002,0.1670074
		l0.0830002,0.1669922l0.0839996,0.1660004l0.1660004,0.1670074l0.0839996,0.1669922l0.0830002,0.25l0.0830002,0.1660004
		l0.0839996,0.1670074l0.0830002,0.1669922l0.1669998,0.25l0.0830002,0.1660004l0.0830002,0.1670074l0.1669998,0.25
		l0.0830002,0.1669922l0.1669998,0.25l0.0830002,0.1660004l0.1669998,0.1670074l0.0830002,0.25l0.1669998,0.1669922l0.1669998,0.25
		l0.0830002,0.1660004l0.1669998,0.25l0.1660004,0.25l0.1669998,0.1670074l0.1669998,0.25l0.1660004,0.1669922l0.1669998,0.25
		l0.1669998,0.25l0.25,0.25l0.1660004,0.1660004l0.1669998,0.25l0.25,0.25l0.1669998,0.25l0.25,0.25l0.1660004,0.25l0.25,0.25
		l0.25,0.25l0.25,0.25l0.25,0.25l0.25,0.25l0.25,0.25l0.25,0.3339996l0.3339996,0.25l0.25,0.25l0.3330002,0.3330078l0.3330002,0.25
		l0.3339996,0.3329926l0.3330002,0.25l0.3330002,0.3339996l0.3339996,0.25l0.4160004,0.3330078l0.3339996,0.3329926
		l0.4160004,0.3339996l0.4169998,0.3330078l0.4169998,0.25l0.4160004,0.3329926l0.5,0.4170074l0.5,0.3329926l0.4169998,0.3339996
		l0.5830002,0.3330078l0.5,0.3329926l0.5839996,0.4170074l0.5,0.3329926l0.6660004,0.4170074l0.5839958,0.4169922
		l0.6660004,0.3330078l0.6669998,0.4169922l0.6669998,0.4160004l0.75,0.4170074l0.75,0.4169922l0.75,0.4160004l0.8330002,0.5
		l0.8330002,0.4170074l0.9169998,0.5l0.9169998,0.4169922l0.9160004,0.5l1.0839996,0.5l1,0.5l1.1660004,0.5l1.0839996,0.5l1.25,0.5
		l1.25,0.5830078l1.3330002,0.5l1.4169998,0.5829926l1.5,0.5839996l1.5,0.5830078l1.5830002,0.5829926l1.75,0.5839996
		l1.75,0.5830078l1.9169998,0.5829926l1.9160004,0.6670074l2.0839996,0.5829926l2.25,0.6670074l2.25,0.6669922l2.5,0.6660004
		l2.5830002,0.6670074l2.6669998,0.6669922l2.9160004,0.6660004l3,0.6670074l3.25,0.6669922l3.4169998,0.6660004
		l3.5830002,0.6670074l3.7500076,0.6669922l4.0839996,0.6660004l4.25,0.6670074l4.5,0.5829926l4.8329926,0.5839996
		l5.0830078,0.5830078l5.3339996,0.5l5.6660004,0.5l6,0.4169922l6.3339996,0.3330078l6.6660004,0.1669922l7,0.1660004
		l7.3339996,0.0839996l7.75-0.1669922l8.0829926-0.25l8.4170074-0.4170074l8.6660004-0.5829926l9-0.8330078l9.25-1.0839996
		L256.25,198.3386536l9.5-1.6670074l9.5-2l9.4160156-2.25l9.1669922-2.6660004l8.75-2.9169922l8.3330078-3.3330078
		L318.5,179.8386536l6.8330078-4l5.8330078-4.3330078l4.6669922-4.5l3.4169922-4.75l2.0830078-4.8339996l0.75-4.9160004
		 M342.0830078,152.5056458l-0.75-4.9169922L339.25,142.6716461l-3.4169922-4.6660004l-4.6669922-4.5839996l-5.8330078-4.25
		L318.5,125.1716537l-7.5839844-3.6660004l-8.3330078-3.3339996l-8.75-3l-9.1669922-2.5830002L275.25,110.2556534l-9.5-1.9169998
		l-9.5-1.6669998l-9.3339844-1.3330002l-9.25-1.0830002l-9-0.8339996l-8.6660004-0.6660004l-8.4170074-0.4169998l-8.0829926-0.25
		l-7.75-0.0830002h-7.3339996l-7,0.1660004l-6.6660004,0.25l-6.3339996,0.3339996l-6,0.4160004l-5.6660004,0.4169998
		l-5.3339996,0.5830002l-5.0830078,0.5l-4.8329926,0.5839996l-4.5,0.6660004l-4.25,0.5839996l-4.0839996,0.6660004
		l-3.7500076,0.6669998l-3.5830002,0.6669998l-3.4169998,0.6660004l-3.25,0.6669998"/>
	<polyline class="st1" points="388.4160156,40.4216537 382.3330078,41.4216537 348.9160156,47.0886536 320.1660156,52.1716537 
		295.25,56.8386536 273.5,61.0886536 254.4160156,65.0056534 237.5830078,68.6716537 222.6660156,72.0056534 
		209.4160156,75.0886536 197.5000153,77.9216537 186.8330078,80.5886536 177.1660156,83.0886536 168.4160156,85.4216537 
		160.5000153,87.6716537 153.3330078,89.6716537 146.7500153,91.6716537 140.7500153,93.5056534 135.1660156,95.2556534 
		130.0830078,96.9216537 125.416008,98.5056534 121.0830078,99.9216537 117.0830078,101.3386536 113.3330078,102.7556534 
		109.916008,104.0056534 106.666008,105.2556534 103.666008,106.4216537 100.8330078,107.5886536 98.2500076,108.6716537 
		95.7500076,109.6716537 93.5000076,110.6716537 91.3330078,111.6716537 89.2500076,112.5886536 87.3330078,113.4216537 
		85.5830078,114.3386536 83.8330078,115.1716537 82.2500076,115.9216537 80.7500076,116.6716537 79.2500076,117.4216537 
		77.916008,118.1716537 76.5830078,118.8386536 75.416008,119.5886536 74.2500076,120.2556534 73.0830078,120.8386536 
		72.0830078,121.5056534 71.0000076,122.0886536 70.0830078,122.6716537 69.166008,123.2556534 68.2500076,123.7556534 
		67.416008,124.3386536 66.666008,124.8386536 65.916008,125.3386536 65.166008,125.8386536 64.5000076,126.3386536 
		63.8330116,126.8386536 63.1660118,127.2556534 62.5000114,127.7556534 61.9160118,128.1716461 61.4160118,128.5886536 
		60.8330116,129.0056458 60.3330116,129.4216461 59.8330116,129.8386536 59.3330116,130.2556458 58.8330116,130.5886536 
		58.4160118,131.0056458 58.0000114,131.3386536 57.5830116,131.7556458 57.1660118,132.0886536 56.7500114,132.4216461 
		56.4160118,132.7556458 56.0830116,133.0886536 55.6660118,133.4216461 55.3330116,133.7556458 55.0000114,134.0886536 
		54.7500114,134.4216461 54.4160118,134.6716461 54.1660118,135.0056458 53.8330116,135.3386536 53.5830116,135.5886536 
		53.3330116,135.9216461 53.0830116,136.1716461 52.8330116,136.4216461 52.5830116,136.7556458 52.3330116,137.0056458 
		52.0830116,137.2556458 51.9160118,137.5056458 51.6660118,137.8386536 51.5000114,138.0886536 51.2500114,138.3386536 
		51.0830116,138.5886536 50.9160118,138.8386536 50.7500114,139.0886536 50.5830116,139.2556458 50.4160118,139.5056458 
		50.2500114,139.7556458 50.0830116,140.0056458 49.9160118,140.2556458 49.7500114,140.4216461 49.5830116,140.6716461 
		49.5000114,140.9216461 49.3330116,141.0886536 49.1660118,141.3386536 49.0830116,141.5886536 48.9160118,141.7556458 
		48.8330116,142.0056458 48.6660118,142.1716461 48.5830116,142.4216461 48.5000114,142.5886536 48.3330116,142.8386536 
		48.2500114,143.0056458 48.1660118,143.1716461 48.0830116,143.4216461 47.9160118,143.5886536 47.8330116,143.7556458 
		47.7500114,144.0056458 47.6660118,144.1716461 47.5830116,144.3386536 47.5000114,144.5886536 47.4160118,144.7556458 
		47.3330116,144.9216461 47.2500114,145.0886536 47.2500114,145.2556458 47.1660118,145.5056458 47.0830116,145.6716461 
		47.0000114,145.8386536 46.9160118,146.0056458 46.9160118,146.1716461 46.8330116,146.3386536 46.7500114,146.5056458 
		46.7500114,146.6716461 46.6660118,146.9216461 46.5830116,147.0886536 46.5830116,147.2556458 46.5000114,147.4216461 
		46.5000114,147.5886536 46.4160118,147.7556458 46.3330116,147.9216461 46.3330116,148.0886536 46.2500114,148.2556458 
		46.2500114,148.5886536 46.1660118,148.7556458 46.1660118,148.9216461 46.0830116,149.0886536 46.0830116,149.4216461 
		46.0000114,149.5056458 46.0000114,150.0056458 45.9160118,150.1716461 45.9160118,150.6716461 45.8330116,150.8386536 
		45.8330116,154.1716461 45.9160118,154.3386536 45.9160118,154.7556458 46.0000114,154.9216461 46.0000114,155.4216461 
		46.0830116,155.5886536 46.0830116,155.9216461 46.1660118,156.0886536 46.1660118,156.2556458 46.2500114,156.4216461 
		46.2500114,156.7556458 46.3330116,156.9216461 46.3330116,157.0886536 46.4160118,157.2556458 46.5000114,157.4216461 
		46.5000114,157.5886536 46.5830116,157.7556458 46.5830116,157.9216461 46.6660118,158.0886536 46.7500114,158.2556458 
		46.7500114,158.4216461 46.8330116,158.5886536 46.9160118,158.7556458 46.9160118,159.0056458 47.0000114,159.1716461 
		47.0830116,159.3386536 47.1660118,159.5056458 47.2500114,159.6716461 47.2500114,159.8386536 47.3330116,160.0886536 
		47.4160118,160.2556458 47.5000114,160.4216461 47.5830116,160.5886536 47.6660118,160.8386536 47.7500114,161.0056458 
		47.8330116,161.1716461 47.9160118,161.4216461 48.0830116,161.5886536 48.1660118,161.7556458 48.2500114,162.0056458 
		48.3330116,162.1716461 48.5000114,162.3386536 48.5830116,162.5886536 48.6660118,162.7556458 48.8330116,163.0056458 
		48.9160118,163.1716461 49.0830116,163.4216461 49.1660118,163.6716461 49.3330116,163.8386536 49.5000114,164.0886536 
		49.5830116,164.2556458 49.7500114,164.5056458 49.9160118,164.7556458 50.0830116,165.0056458 50.2500114,165.1716461 
		50.4160118,165.4216461 50.5830116,165.6716461 50.7500114,165.9216461 50.9160118,166.1716461 51.0830116,166.4216461 
		51.2500114,166.6716461 51.5000114,166.9216461 51.6660118,167.1716461 51.9160118,167.4216461 52.0830116,167.6716461 
		52.3330116,168.0056458 52.5830116,168.2556458 52.8330116,168.5056458 53.0830116,168.8386536 53.3330116,169.0886536 
		53.5830116,169.3386536 53.8330116,169.6716461 54.1660118,170.0056458 54.4160118,170.2556458 54.7500114,170.5886536 
		55.0000114,170.9216461 55.3330116,171.1716461 55.6660118,171.5056458 56.0830116,171.8386536 56.4160118,172.1716461 
		56.7500114,172.5886536 57.1660118,172.9216461 57.5830116,173.2556458 58.0000114,173.5886536 58.4160118,174.0056458 
		58.8330116,174.3386536 59.3330116,174.7556458 59.8330116,175.1716461 60.3330116,175.5886536 60.8330116,176.0056458 
		61.4160118,176.4216461 61.9160118,176.8386536 62.5000114,177.2556458 63.1660118,177.6716461 63.8330116,178.1716461 
		64.5000076,178.6716461 65.166008,179.1716461 65.916008,179.6716461 66.666008,180.1716461 67.416008,180.6716461 
		68.2500076,181.1716461 69.166008,181.7556458 70.0830078,182.3386536 71.0000076,182.9216461 72.0830078,183.5056458 
		73.0830078,184.0886536 74.2500076,184.7556458 75.416008,185.4216461 76.5830078,186.0886536 77.916008,186.7556458 
		79.2500076,187.5056458 80.7500076,188.2556458 82.2500076,189.0056458 83.8330078,189.8386536 85.5830078,190.6716461 
		87.3330078,191.5056458 89.2500076,192.4216461 91.3330078,193.3386536 93.5000076,194.2556458 95.7500076,195.2556458 
		98.2500076,196.3386536 100.8330078,197.4216461 103.666008,198.5056458 106.666008,199.7556458 109.916008,200.9216461 
		113.3330078,202.2556458 117.0830078,203.5886536 121.0830078,205.0056458 125.416008,206.5056458 130.0830078,208.0886536 
		135.1660156,209.7556458 140.7500153,211.5056458 146.7500153,213.3386536 153.3330078,215.2556458 160.5000153,217.3386536 
		168.4160156,219.5056458 177.1660156,221.8386536 186.8330078,224.3386536 197.5000153,227.0886536 209.4160156,229.9216461 
		222.6660156,233.0056458 237.5830078,236.3386536 254.4160156,239.9216461 273.5,243.8386536 295.25,248.0886536 
		320.1660156,252.7556458 348.9160156,257.9216614 382.3330078,263.5886536 388.4160156,264.5056458 	"/>
	<path class="st0" d="M225.1660156,3.5056524l-5.6660004,3.75l-22.0839996,15.1659994l-17.6660004,12.0840015l-14.4170074,9.9160004
		l-11.9169922,8.3339996l-10.0830078,7.0830002l-8.6669922,6.0830002l-7.416008,5.3339996l-6.4169998,4.6660004l-5.75,4.0839996
		l-5,3.75l-4.5,3.25l-4,3l-3.6669998,2.75l-3.25,2.5l-3,2.3330002l-2.6660004,2.0830002l-2.5,2l-2.25,1.75l-2.1669998,1.75
		l-1.9169998,1.5839996l-1.8330002,1.5l-1.6669998,1.3330002l-1.5,1.3330002l-1.5,1.25l-1.3330002,1.1669998l-1.25,1.0830002
		l-1.25,1.0839996l-1.0830002,1l-1.0839996,1l-1,0.8330002l-0.9160004,0.9169998l-0.8339996,0.8330002l-0.9160004,0.75
		l-0.7499962,0.8330002l-0.75,0.75l-0.75,0.6669998l-0.6669998,0.6669998l-0.5830002,0.6660004l-0.6669998,0.6669998
		l-0.5830002,0.5830002l-0.5,0.5839996l-0.5839996,0.5830002l-0.5,0.5830002l-0.5,0.5l-0.4160004,0.4999924l-0.5,0.5l-0.4169998,0.5
		l-0.4169998,0.5l-0.3330002,0.5l-0.4169998,0.4170074l-0.3330002,0.4169922l-0.3330002,0.4160004l-0.3339996,0.4170074
		l-0.3330002,0.4169922l-0.3330002,0.4160004l-0.25,0.4170074l-0.3339996,0.3329926l-0.25,0.4170074l-0.25,0.3329926
		l-0.25,0.3339996l-0.25,0.3330078l-0.25,0.4169922l-0.25,0.3330078l-0.1660004,0.3329926l-0.25,0.25l-0.1669998,0.3339996
		l-0.25,0.3330078l-0.1669998,0.3329926l-0.1660004,0.25l-0.1669998,0.3339996l-0.25,0.25l-0.1669998,0.3330078l-0.1660004,0.25
		l-0.0839996,0.25l-0.1660004,0.25l-0.1669998,0.3329926l-0.1669998,0.25l-0.0830002,0.25l-0.1669998,0.25l-0.0830002,0.25
		l-0.1669998,0.25l-0.0830002,0.25l-0.1669998,0.25l-0.0830002,0.25l-0.0830002,0.25l-0.1669998,0.1670074l-0.0830002,0.25
		l-0.0839996,0.25l-0.0830002,0.25l-0.0830002,0.1669922l-0.1669998,0.25l-0.0830002,0.1660004l-0.0839996,0.25l-0.0830002,0.25
		l-0.0830002,0.1670074v0.25l-0.0839996,0.1669922l-0.0830002,0.25l-0.0830002,0.1660004l-0.0839996,0.25l-0.0830002,0.1670074
		v0.1669922l-0.0830002,0.25l-0.0839996,0.1660004v0.1670074l-0.0830002,0.25l-0.0830002,0.1669922v0.1660004l-0.0839996,0.25
		l-0.0830002,0.1670074v0.1669922l-0.0830002,0.1660004v0.25l-0.0839996,0.1670074v0.3329926l-0.0830002,0.1670074v0.25
		l-0.0830002,0.1669922v0.3330078l-0.0839996,0.1669922v0.5830078l-0.0830002,0.1669922v0.5l-0.0830002,0.1660004v3.6670074
		l0.0830002,0.1669922v0.5l0.0830002,0.1660004v0.5l0.0839996,0.25v0.3339996l0.0830002,0.1660004v0.1670074l0.0830002,0.1669922
		v0.4160004l0.0839996,0.1670074v0.1669922l0.0830002,0.1660004v0.25l0.0830002,0.1670074l0.0839996,0.1669922v0.25
		l0.0830002,0.1660004l0.0830002,0.1670074v0.25l0.0839996,0.1669922l0.0830002,0.1660004v0.25l0.0830002,0.1670074
		l0.0839996,0.1669922l0.0830002,0.25l0.0830002,0.1660004l0.0839996,0.25v0.1670074l0.0830002,0.25l0.0830002,0.25
		l0.0839996,0.1669922l0.0830002,0.25l0.1669998,0.1660004l0.0830002,0.25l0.0830002,0.25l0.0839996,0.25l0.0830002,0.1670074
		l0.1669998,0.25l0.0830002,0.25l0.0830002,0.25l0.1669998,0.25l0.0830002,0.25l0.1669998,0.25l0.0830002,0.25l0.1669998,0.25
		l0.0830002,0.25l0.1669998,0.25l0.1669998,0.25l0.1660004,0.25l0.0839996,0.3329926l0.1660004,0.25l0.1669998,0.3339996l0.25,0.25
		l0.1669998,0.25l0.1660004,0.3330078l0.1669998,0.3329926l0.25,0.25l0.1669998,0.3339996l0.25,0.3330078l0.1660004,0.3329926
		l0.25,0.3339996l0.25,0.3330078l0.25,0.3329926l0.25,0.4170074l0.25,0.3329926l0.25,0.3339996l0.3339996,0.4160004l0.25,0.4170074
		l0.3330002,0.3329926l0.3330002,0.4170074l0.3339996,0.4169922l0.3330002,0.4160004l0.3330002,0.5l0.4169998,0.4170074
		l0.3330002,0.5l0.4169998,0.4169922l0.4169998,0.5l0.5,0.5l0.4160004,0.5830078l0.5,0.5l0.5,0.5829926l0.5839996,0.5l0.5,0.6670074
		l0.5830002,0.5829926l0.6669998,0.6670074l0.5830002,0.5829926l0.6669998,0.75l0.75,0.6670074l0.75,0.75l0.7499962,0.75
		l0.9160004,0.8329926l0.8339996,0.8339996l0.9160004,0.8330078l1,0.9169922l1.0839996,1l1.0830002,1l1.25,1l1.25,1.1660004
		l1.3330002,1.1670074l1.5,1.25l1.5,1.25l1.6669998,1.4169922l1.8330002,1.5l1.9169998,1.5830078l2.1669998,1.6669922
		l2.25,1.8330078l2.5,2l2.6660004,2.0829926l3,2.25l3.25,2.5l3.6669998,2.75l4,3l4.5,3.3339996l5,3.6660004l5.75,4.1670074
		l6.4169998,4.6669922l7.416008,5.25l8.6669922,6.0830078l10.0830078,7.0829926l11.9169922,8.3339996l14.4170074,10
		l17.6660004,12.0830078l19.0839996,13.0830078 M145.6660156,3.5056524l-7.3330078,9.25l-11.8330002,15.000001l-9.5,12.0830002
		l-7.6669998,9.8330002l-6.5,8.25l-5.4169998,7l-4.5830002,6.0839996l-4,5.1660004l-3.5,4.5839996l-3.0830002,4.0830002
		l-2.75,3.6669998l-2.4169998,3.25l-2.25,2.9160004l-1.9169998,2.6669998l-1.8330002,2.4169998l-1.5830002,2.25l-1.5,2.0830002
		l-1.4169998,1.9169998l-1.25,1.75l-1.1669998,1.5830002l-1.0829964,1.5830002l-1,1.4169998l-0.9169998,1.3330002
		l-0.8330002,1.3339996l-0.8330002,1.1660004l-0.75,1.0839996l-0.6669998,1.0830002l-0.6669998,1l-0.6660004,1l-0.5839996,0.9169998
		l-0.5830002,0.8330002l-0.5,0.9169998l-0.5,0.75l-0.5,0.75l-0.4169998,0.75l-0.4160004,0.75l-0.4169998,0.6660004
		l-0.3330002,0.5839996l-0.4169998,0.6660004l-0.3330002,0.583992l-0.3339996,0.5830078l-0.3330002,0.5829926l-0.25,0.5839996
		l-0.3330002,0.5l-0.25,0.5l-0.25,0.5l-0.3339996,0.5l-0.1660004,0.4160004l-0.25,0.5l-0.25,0.4170074l-0.25,0.4169922
		l-0.1669998,0.4160004l-0.1669998,0.4170074l-0.25,0.4169922l-0.1660004,0.4160004l-0.1669998,0.3339996l-0.1669998,0.4160004
		l-0.1660004,0.3339996l-0.1669998,0.4160004l-0.1669998,0.3339996l-0.0830002,0.3330078l-0.1669998,0.3329926l-0.1660004,0.3339996
		l-0.0839996,0.3330078l-0.1660004,0.25l-0.0839996,0.3329926l-0.1660004,0.3339996l-0.0839996,0.25l-0.0830002,0.3330078
		l-0.1669998,0.25l-0.0830002,0.3329926l-0.0830002,0.25l-0.0839996,0.3339996l-0.0830002,0.25l-0.0830002,0.25l-0.0839996,0.25
		l-0.0830002,0.25l-0.0830002,0.25l-0.0839996,0.3330078l-0.0830002,0.25l-0.0830002,0.1669922l-0.0839996,0.25l-0.0830002,0.25
		v0.25l-0.0830002,0.25l-0.0839996,0.25l-0.0830002,0.25v0.1660004l-0.0830002,0.25v0.25l-0.0839996,0.25l-0.0830002,0.1670074v0.25
		l-0.0830002,0.1669922v0.25l-0.0839996,0.25v0.1660004l-0.0830002,0.25v0.4170074l-0.0830002,0.1669922v0.4160004l-0.0839996,0.25
		v0.4170074l-0.0830002,0.1669922v0.5830078l-0.0830002,0.1669922v1.25l-0.0839996,0.1660004v2.1670074l0.0839996,0.1669922
		v1.1660004l0.0830002,0.1670074v0.6669922l0.0830002,0.1660004v0.4170074l0.0839996,0.1669922v0.4160004l0.0830002,0.25v0.4170074
		l0.0830002,0.1669922v0.25l0.0839996,0.25v0.1660004l0.0830002,0.25v0.1670074l0.0830002,0.25l0.0839996,0.25v0.1669922
		l0.0830002,0.25v0.25l0.0830002,0.25l0.0839996,0.25l0.0830002,0.1660004v0.25l0.0830002,0.25l0.0839996,0.25l0.0830002,0.25
		l0.0830002,0.25l0.0839996,0.25l0.0830002,0.25l0.0830002,0.25l0.0839996,0.3339996l0.0830002,0.25l0.0830002,0.25l0.0839996,0.25
		l0.0830002,0.3330078l0.0830002,0.25l0.1669998,0.3329926l0.0830002,0.25l0.0839996,0.3339996l0.1660004,0.25l0.0839996,0.3330078
		l0.1660004,0.3329926l0.0839996,0.3339996l0.1660004,0.3330078l0.1669998,0.3329926l0.0830002,0.3339996l0.1669998,0.3330078
		l0.1669998,0.3329926l0.1660004,0.4170074l0.1669998,0.3329926l0.1669998,0.4170074l0.1660004,0.3329926l0.25,0.4170074
		l0.1669998,0.4169922l0.1669998,0.4160004l0.25,0.4170074l0.25,0.5l0.25,0.4169922l0.1660004,0.5l0.3339996,0.5l0.25,0.4160004
		l0.25,0.5839996l0.3330002,0.5l0.25,0.5830078l0.3330002,0.5l0.3339996,0.5829926l0.3330002,0.6670074l0.4169998,0.5829926
		l0.3330002,0.6670074l0.4169998,0.6669922l0.4160004,0.75l0.4169998,0.6660004l0.5,0.8339996l0.5,0.75l0.5,0.8330078
		l0.5830002,0.9169922l0.5839996,0.9160004l0.6660004,0.9170074l0.6669998,1l0.6669998,1.0829926l0.75,1.1670074
		l0.8330002,1.1669922l0.8330002,1.25l0.9169998,1.3330078l1,1.5l1.0829964,1.5l1.1669998,1.6669922l1.25,1.75l1.4169998,1.9160004
		l1.5,2.0839996l1.5830002,2.1660004l1.8330002,2.5l1.9169998,2.6670074l2.25,2.9169922l2.4169998,3.25l2.75,3.6660004l3.0830002,4
		l3.5,4.5839996l4,5.25l4.5830002,6l5.4169998,7l6.5,8.25l7.6669998,9.9160156l9.5,12l11.8330002,15.0839844l2.6670074,3.4160156
		 M91.416008,3.5056524l-4.8330002,12.750001l-5.6669998,15l-4.5,12l-3.75,9.9160004l-3.0830002,8.1669998l-2.5830002,7l-2.25,6
		l-1.916996,5.1669998l-1.6669998,4.5830002l-1.5,4.0830002l-1.3330002,3.5839996l-1.1669998,3.25l-1,2.9160004l-1,2.6669998
		l-0.8330002,2.4169998l-0.8330002,2.1660004l-0.6669998,2.0839996l-0.6669998,1.8330002l-0.5830002,1.75l-0.5830002,1.6669998
		l-0.5,1.5l-0.5,1.4160004l-0.5,1.3339996l-0.4169998,1.25l-0.3330002,1.1660004l-0.4169998,1.1669998l-0.3330002,1l-0.3339996,1
		l-0.25,1l-0.3330002,0.9169998l-0.25,0.8330002l-0.25,0.8330002l-0.25,0.8339996l-0.25,0.75l-0.1669998,0.6659927l-0.25,0.75
		l-0.1660004,0.6670074l-0.1669998,0.5829926l-0.1669998,0.6670074l-0.1660004,0.5829926l-0.1669998,0.5839996l-0.1669998,0.5830078
		l-0.1660004,0.5l-0.1669998,0.5829926l-0.0830002,0.5l-0.1669998,0.5l-0.0830002,0.4170074l-0.1669998,0.5l-0.0830002,0.4169922
		l-0.0839996,0.5l-0.1660004,0.4160004l-0.0839996,0.4170074l-0.0830002,0.4169922l-0.0830002,0.4160004l-0.0839996,0.3339996
		l-0.0830002,0.4160004l-0.0830002,0.3339996l-0.0839996,0.4160004l-0.0830002,0.3339996l-0.0830002,0.3330078l-0.0839996,0.3329926
		v0.3339996l-0.0830002,0.3330078l-0.0830002,0.3329926l-0.0839996,0.3339996v0.3330078l-0.0830002,0.3329926v0.25
		l-0.0830002,0.3339996l-0.0839996,0.3330078v0.25l-0.0830002,0.25v0.3329926l-0.0830002,0.25v0.3339996l-0.0839996,0.25v0.5
		l-0.0830002,0.3330078v0.25l-0.0830002,0.25v0.75l-0.0839996,0.25v0.5l-0.0830002,0.25v1l-0.0830002,0.25v2.3329926
		l-0.0839996,0.25v0.6670074l0.0839996,0.25v2.3329926l0.0830002,0.25v1l0.0830002,0.1670074v0.5l0.0839996,0.25v0.8329926
		l0.0830002,0.25v0.25l0.0830002,0.25v0.5839996l0.0839996,0.25v0.25l0.0830002,0.3330078v0.25l0.0830002,0.3329926v0.25
		l0.0839996,0.3339996l0.0830002,0.25v0.3330078l0.0830002,0.3329926v0.25l0.0839996,0.3339996l0.0830002,0.3330078
		l0.0830002,0.3329926v0.3339996l0.0839996,0.3330078l0.0830002,0.4169922l0.0830002,0.3330078l0.0839996,0.3329926
		l0.0830002,0.4170074l0.0830002,0.3329926l0.0839996,0.4170074l0.0830002,0.4169922l0.0830002,0.4160004l0.0839996,0.4170074
		l0.1660004,0.4169922l0.0839996,0.4160004l0.0830002,0.5l0.1669998,0.4170074l0.0830002,0.5l0.1669998,0.5l0.0830002,0.5
		l0.1669998,0.5l0.1660004,0.5829926l0.1669998,0.5839996l0.1669998,0.5830078l0.1660004,0.5829926l0.1669998,0.5839996
		l0.1669998,0.6660004l0.1660004,0.6670074l0.25,0.6669922l0.1669998,0.75l0.25,0.75l0.25,0.8330078l0.25,0.75l0.25,0.9169922
		l0.3330002,0.9160004l0.25,0.9170074l0.3339996,1l0.3330002,1.0829926l0.4169998,1.0839996l0.3330002,1.1660004l0.4169998,1.25
		l0.5,1.3339996l0.5,1.5l0.5,1.5l0.5830002,1.5830078l0.5830002,1.75l0.6669998,1.9169922l0.6669998,2l0.8330002,2.25
		l0.8330002,2.4160004l1,2.6670074l1,2.9169922l1.1669998,3.25l1.3330002,3.5830078l1.5,4l1.6669998,4.5829926l1.916996,5.25l2.25,6
		l2.5830002,6.9170074l3.0830002,8.25l3.75,9.8330078l4.5,12l5.6669998,15.0839844l2.5830002,6.9160156"/>
</g>
<polyline class="st2" points="384.8330078,152.5056458 375.25,149.5886536 375.25,151.5056458 0,151.5056458 0,153.4216461 
	375.25,153.4216461 375.25,155.3386536 384.8330078,152.5056458 "/>
<g>
	<polyline class="st2" points="55.0000114,5.8386526 52.0830116,15.5056524 54.0000114,15.5056524 54.0000114,299.0886536 
		55.9160118,299.0886536 55.9160118,15.5056524 57.8330116,15.5056524 55.0000114,5.8386526 	"/>
</g>
<rect x="36.0000114" y="149.5886536" class="st2" width="1.25" height="5.75"/>
<rect x="237.5830078" y="149.5886536" class="st2" width="1.25" height="5.75"/>
<rect x="52.0830116" y="60.2556534" class="st2" width="5.75" height="1.25"/>
<g>
	<g>
		<path class="st3" d="M30.4921894,159.2058411l1.9482441-0.9306641h0.1953125v6.6181641
			c0,0.4384766,0.0185547,0.7128906,0.0556641,0.8203125c0.0380859,0.1074219,0.1152344,0.1904297,0.2333984,0.2480469
			c0.1181641,0.0585938,0.3583984,0.0908203,0.7207031,0.0986328v0.2138672H30.633791v-0.2138672
			c0.3779297-0.0078125,0.6220703-0.0390625,0.7324219-0.0957031c0.109375-0.0556641,0.1865234-0.1308594,0.2304688-0.2246094
			c0.0429688-0.0947266,0.0644531-0.3769531,0.0644531-0.8466797v-4.2314453c0-0.5693359-0.0195313-0.9355469-0.0585938-1.0976563
			c-0.0283203-0.1230469-0.078125-0.2138672-0.1513672-0.2714844c-0.0722656-0.0576172-0.1601563-0.0869141-0.2626953-0.0869141
			c-0.1455078,0-0.3486328,0.0595703-0.6083984,0.1787109L30.4921894,159.2058411z"/>
	</g>
	<g>
		<path class="st3" d="M22.6757832,162.9450989h6.2011719v0.5722656h-6.2011719V162.9450989z"/>
	</g>
</g>
<g>
	<g>
		<path class="st3" d="M233.7480469,158.9822083l1.9892578-0.9599609h0.1992188v6.8271484
			c0,0.453125,0.0185547,0.7353516,0.0566406,0.8466797s0.1171875,0.1962891,0.2382813,0.2558594
			c0.1201172,0.0595703,0.3652344,0.09375,0.734375,0.1015625v0.2207031h-3.0722656v-0.2207031
			c0.3847656-0.0078125,0.6347656-0.0410156,0.7460938-0.0986328c0.1132813-0.0576172,0.1914063-0.1347656,0.2353516-0.2324219
			c0.0439453-0.0966797,0.0664063-0.3886719,0.0664063-0.8730469v-4.3652344c0-0.5878906-0.0205078-0.9658203-0.0595703-1.1328125
			c-0.0292969-0.1269531-0.0800781-0.2207031-0.1542969-0.2802734s-0.1640625-0.0888672-0.2675781-0.0888672
			c-0.1494141,0-0.3554688,0.0615234-0.6210938,0.1845703L233.7480469,158.9822083z"/>
		<path class="st3" d="M238.9189453,162.2790833c0-0.921875,0.140625-1.7158203,0.421875-2.3818359
			s0.6542969-1.1621094,1.1210938-1.4873047c0.3613281-0.2587891,0.734375-0.3876953,1.1210938-0.3876953
			c0.6269531,0,1.1894531,0.3154297,1.6875,0.9482422c0.6230469,0.7832031,0.9335938,1.84375,0.9335938,3.1835938
			c0,0.9384766-0.1367188,1.7353516-0.4101563,2.390625c-0.2714844,0.65625-0.6210938,1.1318359-1.0449219,1.4287109
			c-0.4238281,0.2958984-0.8320313,0.4443359-1.2265625,0.4443359c-0.7792969,0-1.4277344-0.4560547-1.9472656-1.3662109
			C239.1376953,164.2849426,238.9189453,163.3601379,238.9189453,162.2790833z M240.1005859,162.4284973
			c0,1.1132813,0.1386719,2.0214844,0.4160156,2.7246094c0.2285156,0.5927734,0.5703125,0.8886719,1.0234375,0.8886719
			c0.2167969,0,0.4433594-0.0966797,0.6757813-0.2890625c0.2324219-0.1933594,0.4101563-0.515625,0.53125-0.96875
			c0.1835938-0.6845703,0.2753906-1.6484375,0.2753906-2.8925781c0-0.921875-0.0957031-1.6914063-0.2890625-2.3076172
			c-0.1445313-0.4570313-0.3300781-0.7802734-0.5605469-0.9716797c-0.1640625-0.1308594-0.3632813-0.1962891-0.5957031-0.1962891
			c-0.2734375,0-0.515625,0.1210938-0.7285156,0.3632813c-0.2910156,0.3300781-0.4863281,0.8486328-0.5917969,1.5566406
			C240.1533203,161.0427551,240.1005859,161.7409973,240.1005859,162.4284973z"/>
	</g>
</g>
<g>
	<g>
		<path class="st3" d="M47.2109413,57.3806458l-0.4746094,1.0136719h-2.4868164l-0.5419922,1.0849609
			c1.0761719,0.1552734,1.9301758,0.546875,2.559082,1.1748047c0.5400391,0.5405273,0.8105469,1.1772461,0.8105469,1.9077148
			c0,0.4257813-0.0878906,0.8193359-0.2646484,1.1806641c-0.1767578,0.3623047-0.3994141,0.6699219-0.6679688,0.9248047
			c-0.2675781,0.2539063-0.5664063,0.4589844-0.8955078,0.6142578c-0.4672852,0.21875-0.9467773,0.328125-1.4379883,0.328125
			c-0.4956055,0-0.8564453-0.0830078-1.081543-0.2480469c-0.2255859-0.1650391-0.3383789-0.3466797-0.3383789-0.5458984
			c0-0.1103516,0.046875-0.2089844,0.1401367-0.2949219c0.0932617-0.0849609,0.2114258-0.1279297,0.3535156-0.1279297
			c0.1054688,0,0.1982422,0.015625,0.2773438,0.0478516c0.0791016,0.03125,0.2143555,0.1132813,0.4052734,0.2441406
			c0.3046875,0.2070313,0.6132813,0.3105469,0.9262695,0.3105469c0.4750977,0,0.8920898-0.1757813,1.2514648-0.5283203
			c0.3603516-0.3515625,0.5400391-0.7802734,0.5400391-1.2851563c0-0.4882813-0.1601563-0.9443359-0.4814453-1.3681641
			c-0.3203125-0.4238281-0.7636719-0.75-1.3286133-0.980957c-0.4428711-0.1787109-1.0458984-0.2817383-1.8095703-0.3100586
			l1.5839844-3.1420898H47.2109413z"/>
	</g>
</g>
<g>
	<g>
		<path class="st3" d="M285.4228516,48.8796692l1.9482422-0.9599609h0.1953125v6.8276367
			c0,0.453125,0.0185547,0.7353516,0.0556641,0.8466797c0.0380859,0.1113281,0.1152344,0.1962891,0.2333984,0.2558594
			s0.3583984,0.09375,0.7207031,0.1015625v0.2207031h-3.0117188v-0.2207031
			c0.3779297-0.0078125,0.6220703-0.0410156,0.7324219-0.0986328c0.109375-0.0576172,0.1865234-0.1347656,0.2294922-0.2324219
			c0.0439453-0.0966797,0.0654297-0.3886719,0.0654297-0.8730469v-4.3652344c0-0.5878906-0.0195313-0.9658203-0.0585938-1.1328125
			c-0.0283203-0.1269531-0.078125-0.2207031-0.1513672-0.2802734c-0.0722656-0.0595703-0.1601563-0.0893555-0.2626953-0.0893555
			c-0.1455078,0-0.3486328,0.0615234-0.6083984,0.1850586L285.4228516,48.8796692z"/>
	</g>
	<g>
		<path class="st3" d="M269.1962891,53.9241028c-0.0273438,0.1992188-0.0410156,0.3642578-0.0410156,0.4951172
			c0,0.3535156,0.1230469,0.6552734,0.3710938,0.9033203s0.5498047,0.3730469,0.9042969,0.3730469
			c0.2832031,0,0.5556641-0.0585938,0.8183594-0.1767578c0.2617188-0.1171875,0.6503906-0.3759766,1.1660156-0.7773438
			l0.1240234,0.1728516c-0.9326172,0.9335938-1.8232422,1.4013672-2.6699219,1.4013672
			c-0.5751953,0-1.0078125-0.1835938-1.2998047-0.5488281c-0.2910156-0.3662109-0.4365234-0.7695313-0.4365234-1.2109375
			c0-0.5917969,0.1806641-1.1982422,0.5439453-1.8183594c0.3613281-0.6201172,0.8164063-1.1020508,1.3632813-1.4458008
			c0.5478516-0.34375,1.1113281-0.5161133,1.6894531-0.5161133c0.4179688,0,0.7265625,0.0859375,0.9277344,0.2563477
			c0.2011719,0.1713867,0.3007813,0.3740234,0.3007813,0.6083984c0,0.3305664-0.1298828,0.6459961-0.3896484,0.9477539
			c-0.3427734,0.3935547-0.8466797,0.7119141-1.5117188,0.9541016
			C270.6152344,53.7053528,269.9951172,53.8323059,269.1962891,53.9241028z M269.2373047,53.6321106
			c0.5820313-0.0673828,1.0566406-0.1826172,1.4238281-0.3457031c0.484375-0.21875,0.8476563-0.4804688,1.0898438-0.7841797
			c0.2421875-0.3046875,0.3632813-0.5932617,0.3632813-0.8676758c0-0.1669922-0.0527344-0.3022461-0.1572266-0.4057617
			c-0.1044922-0.1030273-0.2529297-0.1547852-0.4462891-0.1547852c-0.4003906,0-0.8271484,0.2158203-1.2783203,0.6469727
			C269.7822266,52.1526184,269.4501953,52.7893372,269.2373047,53.6321106z"/>
	</g>
	<g>
		<path class="st3" d="M276.0986328,51.6462708h6.2011719v0.5786133h-6.2011719V51.6462708z M276.0986328,53.8703918h6.2011719
			v0.5908203h-6.2011719V53.8703918z"/>
	</g>
</g>
<g>
	<g>
		<path class="st3" d="M268.1933594,98.4709778c0-0.921875,0.1376953-1.7163086,0.4150391-2.3818359
			c0.2763672-0.6660156,0.6445313-1.1621094,1.1015625-1.487793c0.3554688-0.2583008,0.7236328-0.3876953,1.1025391-0.3876953
			c0.6171875,0,1.1699219,0.315918,1.6601563,0.9482422c0.6123047,0.7832031,0.9179688,1.8442383,0.9179688,3.184082
			c0,0.9384766-0.1337891,1.7353516-0.4023438,2.390625c-0.2695313,0.65625-0.6123047,1.1318359-1.0283203,1.4287109
			c-0.4169922,0.2958984-0.8193359,0.4443359-1.2070313,0.4443359c-0.765625,0-1.4042969-0.4560547-1.9140625-1.3662109
			C268.4091797,100.4768372,268.1933594,99.5520325,268.1933594,98.4709778z M269.3544922,98.6203918
			c0,1.1132813,0.1367188,2.0214844,0.4091797,2.7246094c0.2255859,0.5927734,0.5615234,0.8886719,1.0078125,0.8886719
			c0.2128906,0,0.4345703-0.0966797,0.6640625-0.2890625c0.2285156-0.1933594,0.4023438-0.515625,0.5214844-0.96875
			c0.1816406-0.6845703,0.2724609-1.6484375,0.2724609-2.8925781c0-0.921875-0.0947266-1.6914063-0.2851563-2.3076172
			c-0.1416016-0.4570313-0.3251953-0.7807617-0.5507813-0.9716797c-0.1621094-0.1313477-0.3574219-0.1967773-0.5869141-0.1967773
			c-0.2685547,0-0.5068359,0.1210938-0.7167969,0.3637695c-0.2841797,0.3300781-0.4775391,0.8486328-0.5810547,1.5561523
			C269.40625,97.2346497,269.3544922,97.9324036,269.3544922,98.6203918z"/>
		<path class="st3" d="M275.3408203,101.3088684c0.1855469,0,0.3408203,0.0654297,0.4677734,0.1943359
			c0.1259766,0.1289063,0.1894531,0.2851563,0.1894531,0.4677734s-0.0644531,0.3388672-0.1923828,0.46875
			c-0.1289063,0.1289063-0.2832031,0.1933594-0.4648438,0.1933594c-0.1826172,0-0.3369141-0.0644531-0.4658203-0.1933594
			c-0.1279297-0.1298828-0.1923828-0.2861328-0.1923828-0.46875c0-0.1865234,0.0644531-0.34375,0.1923828-0.4707031
			C275.0039063,101.3733215,275.1582031,101.3088684,275.3408203,101.3088684z"/>
		<path class="st3" d="M277.4970703,102.6330872v-0.2207031c0.5136719-0.0078125,0.9921875-0.1279297,1.4345703-0.3603516
			s0.8701172-0.6396484,1.2832031-1.2197266s0.7001953-1.21875,0.8623047-1.9140625
			c-0.6201172,0.4013672-1.1816406,0.6025391-1.6835938,0.6025391c-0.5644531,0-1.0488281-0.2197266-1.4511719-0.6591797
			c-0.4033203-0.4384766-0.6044922-1.0224609-0.6044922-1.75c0-0.7075195,0.2011719-1.3378906,0.6044922-1.8901367
			c0.4853516-0.671875,1.1201172-1.0078125,1.9023438-1.0078125c0.6591797,0,1.2246094,0.2744141,1.6943359,0.8227539
			c0.5771484,0.6796875,0.8652344,1.5185547,0.8652344,2.5166016c0,0.8974609-0.21875,1.7363281-0.6572266,2.5126953
			c-0.4394531,0.7773438-1.0498047,1.4228516-1.8320313,1.9355469c-0.6357422,0.4208984-1.3291016,0.6318359-2.0800781,0.6318359
			H277.4970703z M281.171875,98.4768372c0.0712891-0.5166016,0.1064453-0.9301758,0.1064453-1.2402344
			c0-0.3852539-0.0654297-0.8017578-0.1953125-1.2490234c-0.1308594-0.4472656-0.3154297-0.7900391-0.5546875-1.0288086
			c-0.2382813-0.2382813-0.5097656-0.3574219-0.8144531-0.3574219c-0.3515625,0-0.6601563,0.1586914-0.9248047,0.4770508
			c-0.2646484,0.3178711-0.3964844,0.7910156-0.3964844,1.4189453c0,0.8388672,0.1757813,1.4946289,0.5273438,1.9677734
			c0.2568359,0.3417969,0.5722656,0.5126953,0.9482422,0.5126953c0.1816406,0,0.3964844-0.0439453,0.6455078-0.1308594
			C280.7626953,98.7590637,280.9824219,98.6360168,281.171875,98.4768372z"/>
		<path class="st3" d="M288.5732422,99.4846497v0.8466797h-1.078125v2.1347656h-0.9775391v-2.1347656h-3.4023438V99.568634
			l3.7275391-5.3549805h0.6523438v5.2709961H288.5732422z M286.5175781,99.4846497v-4.0126953l-2.8212891,4.0126953H286.5175781z"/>
	</g>
	<g>
		<path class="st3" d="M251.7548828,100.2180481c-0.0273438,0.1992188-0.0410156,0.3642578-0.0410156,0.4951172
			c0,0.3535156,0.125,0.6552734,0.3730469,0.9033203c0.25,0.2480469,0.5517578,0.3730469,0.9072266,0.3730469
			c0.2841797,0,0.5576172-0.0585938,0.8212891-0.1767578c0.2617188-0.1171875,0.6523438-0.3759766,1.1699219-0.7773438
			l0.125,0.1728516c-0.9375,0.9335938-1.8300781,1.4013672-2.6796875,1.4013672
			c-0.5761719,0-1.0107422-0.1835938-1.3027344-0.5488281c-0.2929688-0.3662109-0.4394531-0.7695313-0.4394531-1.2109375
			c0-0.5917969,0.1816406-1.1982422,0.5449219-1.8183594c0.3642578-0.6201172,0.8203125-1.1020508,1.3691406-1.4458008
			c0.5498047-0.34375,1.1152344-0.5161133,1.6953125-0.5161133c0.4189453,0,0.7285156,0.0859375,0.9306641,0.2563477
			c0.2011719,0.1713867,0.3017578,0.3740234,0.3017578,0.6083984c0,0.3305664-0.1298828,0.6459961-0.390625,0.9477539
			c-0.34375,0.3935547-0.8496094,0.7119141-1.5175781,0.9541016
			C253.1796875,99.9992981,252.5576172,100.1262512,251.7548828,100.2180481z M251.796875,99.9260559
			c0.5849609-0.0673828,1.0615234-0.1826172,1.4287109-0.3457031c0.4863281-0.21875,0.8496094-0.4804688,1.09375-0.7841797
			c0.2421875-0.3046875,0.3632813-0.5932617,0.3632813-0.8676758c0-0.1669922-0.0517578-0.3022461-0.15625-0.4057617
			c-0.1054688-0.1030273-0.2539063-0.1547852-0.4472656-0.1547852c-0.4033203,0-0.8310547,0.2158203-1.2832031,0.6469727
			C252.3427734,98.4465637,252.0107422,99.0832825,251.796875,99.9260559z"/>
	</g>
	<g>
		<path class="st3" d="M258.6845703,97.9402161h6.2226563v0.5786133h-6.2226563V97.9402161z M258.6845703,100.1643372h6.2226563
			v0.5908203h-6.2226563V100.1643372z"/>
	</g>
</g>
<g>
	<g>
		<path class="st3" d="M228.9863281,128.4709778c0-0.921875,0.1367188-1.7163086,0.4101563-2.3818359
			c0.2734375-0.6660156,0.6367188-1.1621094,1.0898438-1.487793c0.3515625-0.2583008,0.7148438-0.3876953,1.0898438-0.3876953
			c0.609375,0,1.15625,0.315918,1.640625,0.9482422c0.6054688,0.7832031,0.9082031,1.8442383,0.9082031,3.184082
			c0,0.9384766-0.1328125,1.7353516-0.3984375,2.390625c-0.265625,0.65625-0.6044922,1.1318359-1.0166016,1.4287109
			c-0.4121094,0.2958984-0.8095703,0.4443359-1.1923828,0.4443359c-0.7578125,0-1.3886719-0.4560547-1.8925781-1.3662109
			C229.1992188,130.4768372,228.9863281,129.5520325,228.9863281,128.4709778z M230.1347656,128.6203918
			c0,1.1132813,0.1347656,2.0214844,0.4042969,2.7246094c0.2226563,0.5927734,0.5546875,0.8886719,0.9960938,0.8886719
			c0.2109375,0,0.4296875-0.0966797,0.65625-0.2890625c0.2265625-0.1933594,0.3984375-0.515625,0.515625-0.96875
			c0.1796875-0.6845703,0.2695313-1.6484375,0.2695313-2.8925781c0-0.921875-0.09375-1.6914063-0.28125-2.3076172
			c-0.140625-0.4570313-0.3222656-0.7807617-0.5449219-0.9716797c-0.1601563-0.1313477-0.3535156-0.1967773-0.5800781-0.1967773
			c-0.265625,0-0.5019531,0.1210938-0.7089844,0.3637695c-0.28125,0.3300781-0.4726563,0.8486328-0.5742188,1.5561523
			S230.1347656,127.9324036,230.1347656,128.6203918z"/>
		<path class="st3" d="M236.0527344,131.3088684c0.1835938,0,0.3378906,0.0654297,0.4628906,0.1943359
			s0.1875,0.2851563,0.1875,0.4677734s-0.0634766,0.3388672-0.1904297,0.46875
			c-0.1269531,0.1289063-0.2802734,0.1933594-0.4599609,0.1933594s-0.3330078-0.0644531-0.4599609-0.1933594
			c-0.1269531-0.1298828-0.1904297-0.2861328-0.1904297-0.46875c0-0.1865234,0.0634766-0.34375,0.1904297-0.4707031
			S235.8730469,131.3088684,236.0527344,131.3088684z"/>
		<path class="st3" d="M238.1855469,132.6330872v-0.2207031c0.5078125-0.0078125,0.9804688-0.1279297,1.4179688-0.3603516
			s0.8603516-0.6396484,1.2685547-1.2197266s0.6923828-1.21875,0.8525391-1.9140625
			c-0.6132813,0.4013672-1.1679688,0.6025391-1.6640625,0.6025391c-0.5585938,0-1.0371094-0.2197266-1.4355469-0.6591797
			c-0.3984375-0.4384766-0.5976563-1.0224609-0.5976563-1.75c0-0.7075195,0.1992188-1.3378906,0.5976563-1.8901367
			c0.4804688-0.671875,1.1074219-1.0078125,1.8808594-1.0078125c0.6523438,0,1.2109375,0.2744141,1.6757813,0.8227539
			c0.5703125,0.6796875,0.8554688,1.5185547,0.8554688,2.5166016c0,0.8974609-0.2167969,1.7363281-0.6503906,2.5126953
			c-0.4335938,0.7773438-1.0371094,1.4228516-1.8105469,1.9355469c-0.6289063,0.4208984-1.3144531,0.6318359-2.0566406,0.6318359
			H238.1855469z M241.8183594,128.4768372c0.0703125-0.5166016,0.1054688-0.9301758,0.1054688-1.2402344
			c0-0.3852539-0.0644531-0.8017578-0.1933594-1.2490234s-0.3115234-0.7900391-0.5478516-1.0288086
			c-0.2363281-0.2382813-0.5048828-0.3574219-0.8056641-0.3574219c-0.3476563,0-0.6523438,0.1586914-0.9140625,0.4770508
			c-0.2617188,0.3178711-0.3925781,0.7910156-0.3925781,1.4189453c0,0.8388672,0.1738281,1.4946289,0.5214844,1.9677734
			c0.2539063,0.3417969,0.5664063,0.5126953,0.9375,0.5126953c0.1796875,0,0.3925781-0.0439453,0.6386719-0.1308594
			C241.4140625,128.7590637,241.6308594,128.6360168,241.8183594,128.4768372z"/>
	</g>
	<g>
		<path class="st3" d="M212.7402344,130.2180481c-0.0273438,0.1992188-0.0410156,0.3642578-0.0410156,0.4951172
			c0,0.3535156,0.1230469,0.6552734,0.3691406,0.9033203s0.5449219,0.3730469,0.8964844,0.3730469
			c0.28125,0,0.5517578-0.0585938,0.8115234-0.1767578c0.2597656-0.1171875,0.6455078-0.3759766,1.1572266-0.7773438
			l0.1230469,0.1728516c-0.9257813,0.9335938-1.8085938,1.4013672-2.6484375,1.4013672
			c-0.5703125,0-1-0.1835938-1.2890625-0.5488281c-0.2890625-0.3662109-0.4335938-0.7695313-0.4335938-1.2109375
			c0-0.5917969,0.1796875-1.1982422,0.5390625-1.8183594s0.8105469-1.1020508,1.3535156-1.4458008
			s1.1015625-0.5161133,1.6757813-0.5161133c0.4140625,0,0.7207031,0.0859375,0.9199219,0.2563477
			c0.1992188,0.1713867,0.2988281,0.3740234,0.2988281,0.6083984c0,0.3305664-0.1289063,0.6459961-0.3867188,0.9477539
			c-0.3398438,0.3935547-0.8398438,0.7119141-1.5,0.9541016
			C214.1484375,129.9992981,213.5332031,130.1262512,212.7402344,130.2180481z M212.78125,129.9260559
			c0.578125-0.0673828,1.0488281-0.1826172,1.4121094-0.3457031c0.4804688-0.21875,0.8408203-0.4804688,1.0810547-0.7841797
			c0.2402344-0.3046875,0.3603516-0.5932617,0.3603516-0.8676758c0-0.1669922-0.0517578-0.3022461-0.1552734-0.4057617
			c-0.1035156-0.1030273-0.2509766-0.1547852-0.4423828-0.1547852c-0.3984375,0-0.8212891,0.2158203-1.2685547,0.6469727
			C213.3212891,128.4465637,212.9921875,129.0832825,212.78125,129.9260559z"/>
	</g>
	<g>
		<path class="st3" d="M219.5820313,127.9402161h6.1523438v0.5786133h-6.1523438V127.9402161z M219.5820313,130.1643372h6.1523438
			v0.5908203h-6.1523438V130.1643372z"/>
	</g>
</g>
<g>
	<g>
		<path class="st3" d="M147.6518555,139.1374817c0-0.921875,0.1367188-1.7163086,0.4101563-2.3818359
			c0.2734375-0.6660156,0.6367188-1.1621094,1.0898438-1.487793c0.3515625-0.2583008,0.7148438-0.3876953,1.0898438-0.3876953
			c0.609375,0,1.15625,0.315918,1.640625,0.9482422c0.6054688,0.7832031,0.9082031,1.8442383,0.9082031,3.184082
			c0,0.9384766-0.1328125,1.7353516-0.3984375,2.390625c-0.265625,0.65625-0.6044922,1.1318359-1.0166016,1.4287109
			c-0.4121094,0.2958984-0.8095703,0.4443359-1.1923828,0.4443359c-0.7578125,0-1.3886719-0.4560547-1.8925781-1.3662109
			C147.8647461,141.1433411,147.6518555,140.2185364,147.6518555,139.1374817z M148.800293,139.2868958
			c0,1.1132813,0.1347656,2.0214844,0.4042969,2.7246094c0.2226563,0.5927734,0.5546875,0.8886719,0.9960938,0.8886719
			c0.2109375,0,0.4296875-0.0966797,0.65625-0.2890625c0.2265625-0.1933594,0.3984375-0.515625,0.515625-0.96875
			c0.1796875-0.6845703,0.2695313-1.6484375,0.2695313-2.8925781c0-0.921875-0.09375-1.6914063-0.28125-2.3076172
			c-0.140625-0.4570313-0.3222656-0.7807617-0.5449219-0.9716797c-0.1601563-0.1313477-0.3535156-0.1967773-0.5800781-0.1967773
			c-0.265625,0-0.5019531,0.1210938-0.7089844,0.3637695c-0.28125,0.3300781-0.4726563,0.8486328-0.5742188,1.5561523
			S148.800293,138.5989075,148.800293,139.2868958z"/>
		<path class="st3" d="M154.7182617,141.9753723c0.1835938,0,0.3378906,0.0654297,0.4628906,0.1943359
			s0.1875,0.2851563,0.1875,0.4677734s-0.0634766,0.3388672-0.1904297,0.46875
			c-0.1269531,0.1289063-0.2802734,0.1933594-0.4599609,0.1933594s-0.3330078-0.0644531-0.4599609-0.1933594
			c-0.1269531-0.1298828-0.1904297-0.2861328-0.1904297-0.46875c0-0.1865234,0.0634766-0.34375,0.1904297-0.4707031
			S154.5385742,141.9753723,154.7182617,141.9753723z"/>
		<path class="st3" d="M158.5209961,139.0603333c-0.6289063-0.5249023-1.0341797-0.9462891-1.2158203-1.2646484
			c-0.1816406-0.3178711-0.2724609-0.6474609-0.2724609-0.9897461c0-0.5244141,0.1992188-0.9765625,0.5976563-1.3564453
			c0.3984375-0.3793945,0.9277344-0.5693359,1.5878906-0.5693359c0.640625,0,1.15625,0.1767578,1.546875,0.5307617
			c0.390625,0.3535156,0.5859375,0.7573242,0.5859375,1.2104492c0,0.3022461-0.1054688,0.6103516-0.3164063,0.9243164
			s-0.6503906,0.6835938-1.3183594,1.1088867c0.6875,0.5405273,1.1425781,0.9663086,1.3652344,1.2758789
			c0.296875,0.4052734,0.4453125,0.8330078,0.4453125,1.2822266c0,0.5683594-0.2128906,1.0546875-0.6386719,1.4580078
			s-0.984375,0.6054688-1.6757813,0.6054688c-0.7539063,0-1.3417969-0.2412109-1.7636719-0.7216797
			c-0.3359375-0.3857422-0.5039063-0.8076172-0.5039063-1.2646484c0-0.3574219,0.1181641-0.7119141,0.3544922-1.0644531
			C157.5356445,139.8738098,157.9428711,139.4851379,158.5209961,139.0603333z M158.7963867,139.2868958
			c-0.3242188,0.2783203-0.5644531,0.5810547-0.7207031,0.9091797s-0.234375,0.6826172-0.234375,1.0644531
			c0,0.5126953,0.1376953,0.9228516,0.4130859,1.2314453c0.2753906,0.3076172,0.6259766,0.4619141,1.0517578,0.4619141
			c0.421875,0,0.7597656-0.1210938,1.0136719-0.3642578c0.2539063-0.2421875,0.3808594-0.5361328,0.3808594-0.8818359
			c0-0.2861328-0.0742188-0.5429688-0.2226563-0.7695313C160.2006836,140.5173645,159.6401367,139.9665833,158.7963867,139.2868958z
			 M159.440918,138.4221497c0.46875-0.4296875,0.765625-0.7680664,0.890625-1.0166016s0.1875-0.5297852,0.1875-0.84375
			c0-0.4174805-0.1152344-0.7446289-0.3457031-0.980957s-0.5449219-0.3549805-0.9433594-0.3549805
			s-0.7226563,0.1171875-0.9726563,0.3520508c-0.25,0.234375-0.375,0.5087891-0.375,0.8227539
			c0,0.206543,0.0517578,0.4135742,0.1552734,0.6201172s0.2509766,0.4033203,0.4423828,0.590332L159.440918,138.4221497z"/>
	</g>
	<g>
		<path class="st3" d="M131.4057617,140.884552c-0.0273438,0.1992188-0.0410156,0.3642578-0.0410156,0.4951172
			c0,0.3535156,0.1230469,0.6552734,0.3691406,0.9033203s0.5449219,0.3730469,0.8964844,0.3730469
			c0.28125,0,0.5517578-0.0585938,0.8115234-0.1767578c0.2597656-0.1171875,0.6455078-0.3759766,1.1572266-0.7773438
			l0.1230469,0.1728516c-0.9257813,0.9335938-1.8085938,1.4013672-2.6484375,1.4013672
			c-0.5703125,0-1-0.1835938-1.2890625-0.5488281c-0.2890625-0.3662109-0.4335938-0.7695313-0.4335938-1.2109375
			c0-0.5917969,0.1796875-1.1982422,0.5390625-1.8183594s0.8105469-1.1020508,1.3535156-1.4458008
			s1.1015625-0.5161133,1.6757813-0.5161133c0.4140625,0,0.7207031,0.0859375,0.9199219,0.2563477
			c0.1992188,0.1713867,0.2988281,0.3740234,0.2988281,0.6083984c0,0.3305664-0.1289063,0.6459961-0.3867188,0.9477539
			c-0.3398438,0.3935547-0.8398438,0.7119141-1.5,0.9541016C132.8139648,140.665802,132.1987305,140.7927551,131.4057617,140.884552
			z M131.4467773,140.5925598c0.578125-0.0673828,1.0488281-0.1826172,1.4121094-0.3457031
			c0.4804688-0.21875,0.8408203-0.4804688,1.0810547-0.7841797c0.2402344-0.3046875,0.3603516-0.5932617,0.3603516-0.8676758
			c0-0.1669922-0.0517578-0.3022461-0.1552734-0.4057617c-0.1035156-0.1030273-0.2509766-0.1547852-0.4423828-0.1547852
			c-0.3984375,0-0.8212891,0.2158203-1.2685547,0.6469727C131.9868164,139.1130676,131.6577148,139.7497864,131.4467773,140.5925598
			z"/>
	</g>
	<g>
		<path class="st3" d="M138.2475586,138.60672h6.1523438v0.5786133h-6.1523438V138.60672z M138.2475586,140.8308411h6.1523438
			v0.5908203h-6.1523438V140.8308411z"/>
	</g>
</g>
<g>
	<g>
		<path class="st3" d="M86.3183594,143.693634c0-0.921875,0.1367188-1.7163086,0.4101563-2.3818359
			c0.2734375-0.6660156,0.6367188-1.1621094,1.0898438-1.487793c0.3515625-0.2583008,0.7148438-0.3876953,1.0898438-0.3876953
			c0.609375,0,1.15625,0.315918,1.640625,0.9482422c0.6054688,0.7832031,0.9082031,1.8442383,0.9082031,3.184082
			c0,0.9384766-0.1328125,1.7353516-0.3984375,2.390625c-0.265625,0.65625-0.6044922,1.1318359-1.0166016,1.4287109
			c-0.4121094,0.2958984-0.8095703,0.4443359-1.1923828,0.4443359c-0.7578125,0-1.3886719-0.4560547-1.8925781-1.3662109
			C86.53125,145.6994934,86.3183594,144.7746887,86.3183594,143.693634z M87.4667969,143.8430481
			c0,1.1132813,0.1347656,2.0214844,0.4042969,2.7246094c0.2226563,0.5927734,0.5546875,0.8886719,0.9960938,0.8886719
			c0.2109375,0,0.4296875-0.0966797,0.65625-0.2890625c0.2265625-0.1933594,0.3984375-0.515625,0.515625-0.96875
			c0.1796875-0.6845703,0.2695313-1.6484375,0.2695313-2.8925781c0-0.921875-0.09375-1.6914063-0.28125-2.3076172
			c-0.140625-0.4570313-0.3222656-0.7807617-0.5449219-0.9716797c-0.1601563-0.1313477-0.3535156-0.1967773-0.5800781-0.1967773
			c-0.265625,0-0.5019531,0.1210938-0.7089844,0.3637695c-0.28125,0.3300781-0.4726563,0.8486328-0.5742188,1.5561523
			S87.4667969,143.1550598,87.4667969,143.8430481z"/>
		<path class="st3" d="M93.3847656,146.5315247c0.1835938,0,0.3378906,0.0654297,0.4628906,0.1943359
			s0.1875,0.2851563,0.1875,0.4677734s-0.0634766,0.3388672-0.1904297,0.46875
			c-0.1269531,0.1289063-0.2802734,0.1933594-0.4599609,0.1933594s-0.3330078-0.0644531-0.4599609-0.1933594
			c-0.1269531-0.1298828-0.1904297-0.2861328-0.1904297-0.46875c0-0.1865234,0.0634766-0.34375,0.1904297-0.4707031
			S93.2050781,146.5315247,93.3847656,146.5315247z"/>
		<path class="st3" d="M100.46875,144.7073059v0.8466797h-1.0664063v2.1347656h-0.9667969v-2.1347656h-3.3632813v-0.7626953
			l3.6855469-5.3549805h0.6445313v5.2709961H100.46875z M98.4355469,144.7073059v-4.0126953l-2.7890625,4.0126953H98.4355469z"/>
	</g>
	<g>
		<path class="st3" d="M70.0722656,145.4407043c-0.0273438,0.1992188-0.0410156,0.3642578-0.0410156,0.4951172
			c0,0.3535156,0.1230469,0.6552734,0.3691406,0.9033203s0.5449219,0.3730469,0.8964844,0.3730469
			c0.28125,0,0.5517578-0.0585938,0.8115234-0.1767578c0.2597656-0.1171875,0.6455078-0.3759766,1.1572266-0.7773438
			l0.1230469,0.1728516c-0.9257813,0.9335938-1.8085938,1.4013672-2.6484375,1.4013672
			c-0.5703125,0-1-0.1835938-1.2890625-0.5488281c-0.2890625-0.3662109-0.4335938-0.7695313-0.4335938-1.2109375
			c0-0.5917969,0.1796875-1.1982422,0.5390625-1.8183594s0.8105469-1.1020508,1.3535156-1.4458008
			s1.1015625-0.5161133,1.6757813-0.5161133c0.4140625,0,0.7207031,0.0859375,0.9199219,0.2563477
			c0.1992188,0.1713867,0.2988281,0.3740234,0.2988281,0.6083984c0,0.3305664-0.1289063,0.6459961-0.3867188,0.9477539
			c-0.3398438,0.3935547-0.8398438,0.7119141-1.5,0.9541016C71.4804688,145.2219543,70.8652344,145.3489075,70.0722656,145.4407043z
			 M70.1132813,145.1487122c0.578125-0.0673828,1.0488281-0.1826172,1.4121094-0.3457031
			c0.4804688-0.21875,0.8408203-0.4804688,1.0810547-0.7841797c0.2402344-0.3046875,0.3603516-0.5932617,0.3603516-0.8676758
			c0-0.1669922-0.0517578-0.3022461-0.1552734-0.4057617c-0.1035156-0.1030273-0.2509766-0.1547852-0.4423828-0.1547852
			c-0.3984375,0-0.8212891,0.2158203-1.2685547,0.6469727C70.6533203,143.66922,70.3242188,144.3059387,70.1132813,145.1487122z"/>
	</g>
	<g>
		<path class="st3" d="M76.9140625,143.1628723h6.1523438v0.5786133h-6.1523438V143.1628723z M76.9140625,145.3869934h6.1523438
			v0.5908203h-6.1523438V145.3869934z"/>
	</g>
</g>
<g>
	<g>
		<path class="st3" d="M215.5009766,22.5066204l1.9482422-0.9599609h0.1953125v6.8276367
			c0,0.453125,0.0185547,0.7353516,0.0556641,0.8466797c0.0380859,0.1113281,0.1152344,0.1962891,0.2333984,0.2558594
			s0.3583984,0.09375,0.7207031,0.1015625v0.2207031h-3.0117188v-0.2207031
			c0.3779297-0.0078125,0.6220703-0.0410156,0.7324219-0.0986328c0.109375-0.0576172,0.1865234-0.1347656,0.2294922-0.2324219
			c0.0439453-0.0966797,0.0654297-0.3886719,0.0654297-0.8730469v-4.3652344c0-0.5878906-0.0195313-0.9658203-0.0585938-1.1328125
			c-0.0283203-0.1269531-0.078125-0.2207031-0.1513672-0.2802734c-0.0722656-0.0595703-0.1601563-0.0893555-0.2626953-0.0893555
			c-0.1455078,0-0.3486328,0.0615234-0.6083984,0.1850586L215.5009766,22.5066204z"/>
		<path class="st3" d="M221.6425781,28.6418743c0.1855469,0,0.3408203,0.0654297,0.4667969,0.1943359
			s0.1894531,0.2851563,0.1894531,0.4677734s-0.0644531,0.3388672-0.1923828,0.46875
			c-0.1279297,0.1289063-0.2822266,0.1933594-0.4638672,0.1933594c-0.1806641,0-0.3359375-0.0644531-0.4628906-0.1933594
			c-0.1289063-0.1298828-0.1923828-0.2861328-0.1923828-0.46875c0-0.1865234,0.0634766-0.34375,0.1923828-0.4707031
			C221.3066406,28.7063274,221.4619141,28.6418743,221.6425781,28.6418743z"/>
		<path class="st3" d="M228.7011719,28.2424603l-0.5605469,1.5566406h-4.7255859v-0.2207031
			c1.3896484-1.2802734,2.3681641-2.3251953,2.9355469-3.1367188c0.5673828-0.8105469,0.8505859-1.5517578,0.8505859-2.2236328
			c0-0.5126953-0.1552734-0.934082-0.4667969-1.2641602c-0.3105469-0.3300781-0.6826172-0.4951172-1.1162109-0.4951172
			c-0.3935547,0-0.7470703,0.1162109-1.0605469,0.3491211c-0.3125,0.2324219-0.5439453,0.5732422-0.6933594,1.0224609h-0.21875
			c0.0986328-0.7353516,0.3515625-1.2998047,0.7587891-1.6933594s0.9169922-0.590332,1.5273438-0.590332
			c0.6494141,0,1.1914063,0.2109375,1.6269531,0.6318359c0.4345703,0.4213867,0.6523438,0.918457,0.6523438,1.4907227
			c0,0.409668-0.0947266,0.8193359-0.2832031,1.2285156c-0.2919922,0.644043-0.7636719,1.3261719-1.4179688,2.0449219
			c-0.9804688,1.0820313-1.5927734,1.7333984-1.8369141,1.9560547h2.0908203c0.4257813,0,0.7236328-0.015625,0.8955078-0.0478516
			c0.1708984-0.03125,0.3251953-0.0957031,0.4628906-0.1933594s0.2578125-0.2353516,0.3603516-0.4150391H228.7011719z"/>
	</g>
	<g>
		<path class="st3" d="M199.2744141,27.551054c-0.0273438,0.1992188-0.0410156,0.3642578-0.0410156,0.4951172
			c0,0.3535156,0.1230469,0.6552734,0.3710938,0.9033203s0.5498047,0.3730469,0.9042969,0.3730469
			c0.2832031,0,0.5556641-0.0585938,0.8183594-0.1767578c0.2617188-0.1171875,0.6503906-0.3759766,1.1660156-0.7773438
			l0.1240234,0.1728516c-0.9326172,0.9335938-1.8232422,1.4013672-2.6699219,1.4013672
			c-0.5751953,0-1.0078125-0.1835938-1.2998047-0.5488281c-0.2910156-0.3662109-0.4365234-0.7695313-0.4365234-1.2109375
			c0-0.5917969,0.1806641-1.1982422,0.5439453-1.8183594c0.3613281-0.6201172,0.8164063-1.1020508,1.3632813-1.4458008
			c0.5478516-0.34375,1.1113281-0.5161133,1.6894531-0.5161133c0.4179688,0,0.7265625,0.0859375,0.9277344,0.2563477
			c0.2011719,0.1713867,0.3007813,0.3740234,0.3007813,0.6083984c0,0.3305664-0.1298828,0.6459961-0.3896484,0.9477539
			c-0.3427734,0.3935547-0.8466797,0.7119141-1.5117188,0.9541016
			C200.6933594,27.332304,200.0732422,27.4592571,199.2744141,27.551054z M199.3154297,27.2590618
			c0.5820313-0.0673828,1.0566406-0.1826172,1.4238281-0.3457031c0.484375-0.21875,0.8476563-0.4804688,1.0898438-0.7841797
			c0.2421875-0.3046875,0.3632813-0.5932617,0.3632813-0.8676758c0-0.1669922-0.0527344-0.3022461-0.1572266-0.4057617
			c-0.1044922-0.1030273-0.2529297-0.1547852-0.4462891-0.1547852c-0.4003906,0-0.8271484,0.2158203-1.2783203,0.6469727
			C199.8603516,25.7795696,199.5283203,26.4162884,199.3154297,27.2590618z"/>
	</g>
	<g>
		<path class="st3" d="M206.1767578,25.273222h6.2011719v0.5786133h-6.2011719V25.273222z M206.1767578,27.4973431h6.2011719
			v0.5908203h-6.2011719V27.4973431z"/>
	</g>
</g>
<g>
	<g>
		<path class="st3" d="M152.8339844,17.1736126l1.9482422-0.9599609h0.1953125v6.8276367
			c0,0.453125,0.0185547,0.7353516,0.0556641,0.8466797c0.0380859,0.1113281,0.1152344,0.1962891,0.2333984,0.2558594
			s0.3583984,0.09375,0.7207031,0.1015625v0.2207031h-3.0117188v-0.2207031
			c0.3779297-0.0078125,0.6220703-0.0410156,0.7324219-0.0986328c0.109375-0.0576172,0.1865234-0.1347656,0.2294922-0.2324219
			c0.0439453-0.0966797,0.0654297-0.3886719,0.0654297-0.8730469V18.676054c0-0.5878906-0.0195313-0.9658203-0.0585938-1.1328125
			c-0.0283203-0.1269531-0.078125-0.2207031-0.1513672-0.2802734c-0.0722656-0.0595703-0.1601563-0.0893555-0.2626953-0.0893555
			c-0.1455078,0-0.3486328,0.0615234-0.6083984,0.1850586L152.8339844,17.1736126z"/>
		<path class="st3" d="M158.9755859,23.3088665c0.1855469,0,0.3408203,0.0654297,0.4667969,0.1943359
			s0.1894531,0.2851563,0.1894531,0.4677734s-0.0644531,0.3388672-0.1923828,0.46875
			c-0.1279297,0.1289063-0.2822266,0.1933594-0.4638672,0.1933594c-0.1806641,0-0.3359375-0.0644531-0.4628906-0.1933594
			c-0.1289063-0.1298828-0.1923828-0.2861328-0.1923828-0.46875c0-0.1865234,0.0634766-0.34375,0.1923828-0.4707031
			C158.6396484,23.3733196,158.7949219,23.3088665,158.9755859,23.3088665z"/>
		<path class="st3" d="M165.9101563,16.2136517v0.2207031c-0.5195313,0.0517578-0.9443359,0.1557617-1.2724609,0.3129883
			c-0.3291016,0.1572266-0.6542969,0.3964844-0.9746094,0.7182617c-0.3212891,0.3222656-0.5869141,0.6811523-0.7978516,1.0766602
			c-0.2099609,0.3955078-0.3867188,0.8652344-0.5283203,1.4101563c0.5673828-0.3935547,1.1357422-0.590332,1.7070313-0.590332
			c0.546875,0,1.0214844,0.2226563,1.4228516,0.6674805c0.4023438,0.4453125,0.6025391,1.0175781,0.6025391,1.7177734
			c0,0.6757813-0.2021484,1.2919922-0.6083984,1.8486328c-0.4882813,0.6757813-1.1337891,1.0136719-1.9365234,1.0136719
			c-0.5478516,0-1.0126953-0.1835938-1.3945313-0.5488281c-0.7480469-0.7119141-1.1220703-1.6337891-1.1220703-2.7666016
			c0-0.7236328,0.1435547-1.4116211,0.4316406-2.0634766c0.2871094-0.6518555,0.6972656-1.2304688,1.2314453-1.7353516
			c0.5332031-0.5043945,1.0439453-0.8442383,1.5322266-1.0195313c0.4882813-0.1748047,0.9433594-0.262207,1.3642578-0.262207
			H165.9101563z M162.2363281,20.3879681c-0.0703125,0.5361328-0.1064453,0.9697266-0.1064453,1.2998047
			c0,0.3808594,0.0703125,0.7958984,0.2099609,1.2431641s0.3476563,0.8017578,0.6230469,1.0644531
			c0.2011719,0.1865234,0.4453125,0.2802734,0.7324219,0.2802734c0.3427734,0,0.6484375-0.1630859,0.9189453-0.4892578
			c0.2695313-0.3261719,0.4042969-0.7910156,0.4042969-1.3955078c0-0.6796875-0.1337891-1.2675781-0.4013672-1.7646484
			c-0.2685547-0.4970703-0.6484375-0.7456055-1.140625-0.7456055c-0.1494141,0-0.3095703,0.0317383-0.4814453,0.0957031
			C162.8242188,20.0398235,162.5712891,20.1770306,162.2363281,20.3879681z"/>
	</g>
	<g>
		<path class="st3" d="M136.6069336,22.2180462c-0.0273438,0.1992188-0.0410156,0.3642578-0.0410156,0.4951172
			c0,0.3535156,0.1240234,0.6552734,0.3720703,0.9033203s0.5493164,0.3730469,0.9033203,0.3730469
			c0.2836914,0,0.5561523-0.0585938,0.8183594-0.1767578c0.2617188-0.1171875,0.6503906-0.3759766,1.1665039-0.7773438
			l0.1240234,0.1728516c-0.9331055,0.9335938-1.8232422,1.4013672-2.6699219,1.4013672
			c-0.574707,0-1.0078125-0.1835938-1.2993164-0.5488281c-0.2915039-0.3662109-0.4370117-0.7695313-0.4370117-1.2109375
			c0-0.5917969,0.1811523-1.1982422,0.543457-1.8183594s0.8168945-1.1020508,1.3642578-1.4458008
			s1.1103516-0.5161133,1.6894531-0.5161133c0.4169922,0,0.7260742,0.0859375,0.9272461,0.2563477
			c0.2006836,0.1713867,0.3012695,0.3740234,0.3012695,0.6083984c0,0.3305664-0.1303711,0.6459961-0.3901367,0.9477539
			c-0.3422852,0.3935547-0.8466797,0.7119141-1.5117188,0.9541016
			C138.0263672,21.9992962,137.40625,22.1262493,136.6069336,22.2180462z M136.6484375,21.926054
			c0.5825195-0.0673828,1.0571289-0.1826172,1.4233398-0.3457031c0.484375-0.21875,0.8476563-0.4804688,1.0898438-0.7841797
			c0.2421875-0.3046875,0.3632813-0.5932617,0.3632813-0.8676758c0-0.1669922-0.0522461-0.3022461-0.1567383-0.4057617
			c-0.1040039-0.1030273-0.2529297-0.1547852-0.4458008-0.1547852c-0.4013672,0-0.8276367,0.2158203-1.2788086,0.6469727
			C137.1928711,20.4465618,136.8613281,21.0832806,136.6484375,21.926054z"/>
	</g>
	<g>
		<path class="st3" d="M143.5097656,19.9402142h6.2011719v0.5786133h-6.2011719V19.9402142z M143.5097656,22.1643353h6.2011719
			v0.5908203h-6.2011719V22.1643353z"/>
	</g>
</g>
<g>
	<g>
		<path class="st3" d="M108.8164063,22.9094524l-0.5566406,1.5566406h-4.6875v-0.2207031
			c1.3789063-1.2802734,2.3496094-2.3251953,2.9121094-3.1367188c0.5625-0.8105469,0.84375-1.5517578,0.84375-2.2236328
			c0-0.5126953-0.1542969-0.934082-0.4628906-1.2641602s-0.6777344-0.4951172-1.1074219-0.4951172
			c-0.390625,0-0.7412109,0.1162109-1.0517578,0.3491211c-0.3105469,0.2324219-0.5400391,0.5732422-0.6884766,1.0224609h-0.2167969
			c0.0976563-0.7353516,0.3486328-1.2998047,0.7529297-1.6933594s0.9091797-0.590332,1.5146484-0.590332
			c0.6445313,0,1.1826172,0.2109375,1.6142578,0.6318359c0.4316406,0.4213867,0.6474609,0.918457,0.6474609,1.4907227
			c0,0.409668-0.09375,0.8193359-0.28125,1.2285156c-0.2890625,0.644043-0.7578125,1.3261719-1.40625,2.0449219
			c-0.9726563,1.0820313-1.5800781,1.7333984-1.8222656,1.9560547h2.0742188c0.421875,0,0.7177734-0.015625,0.8876953-0.0478516
			c0.1699219-0.03125,0.3232422-0.0957031,0.4599609-0.1933594s0.2558594-0.2353516,0.3574219-0.4150391H108.8164063z"/>
		<path class="st3" d="M110.8144531,23.3088665c0.1835938,0,0.3378906,0.0654297,0.4628906,0.1943359
			s0.1875,0.2851563,0.1875,0.4677734s-0.0634766,0.3388672-0.1904297,0.46875
			c-0.1269531,0.1289063-0.2802734,0.1933594-0.4599609,0.1933594s-0.3330078-0.0644531-0.4599609-0.1933594
			c-0.1269531-0.1298828-0.1904297-0.2861328-0.1904297-0.46875c0-0.1865234,0.0634766-0.34375,0.1904297-0.4707031
			S110.6347656,23.3088665,110.8144531,23.3088665z"/>
		<path class="st3" d="M114.6171875,20.3938274c-0.6289063-0.5249023-1.0341797-0.9462891-1.2158203-1.2646484
			c-0.1816406-0.3178711-0.2724609-0.6474609-0.2724609-0.9897461c0-0.5244141,0.1992188-0.9765625,0.5976563-1.3564453
			c0.3984375-0.3793945,0.9277344-0.5693359,1.5878906-0.5693359c0.640625,0,1.15625,0.1767578,1.546875,0.5307617
			c0.390625,0.3535156,0.5859375,0.7573242,0.5859375,1.2104492c0,0.3022461-0.1054688,0.6103516-0.3164063,0.9243164
			s-0.6503906,0.6835938-1.3183594,1.1088867c0.6875,0.5405273,1.1425781,0.9663086,1.3652344,1.2758789
			c0.296875,0.4052734,0.4453125,0.8330078,0.4453125,1.2822266c0,0.5683594-0.2128906,1.0546875-0.6386719,1.4580078
			S116,24.6096478,115.3085938,24.6096478c-0.7539063,0-1.3417969-0.2412109-1.7636719-0.7216797
			c-0.3359375-0.3857422-0.5039063-0.8076172-0.5039063-1.2646484c0-0.3574219,0.1181641-0.7119141,0.3544922-1.0644531
			C113.6318359,21.207304,114.0390625,20.8186321,114.6171875,20.3938274z M114.8925781,20.6203899
			c-0.3242188,0.2783203-0.5644531,0.5810547-0.7207031,0.9091797s-0.234375,0.6826172-0.234375,1.0644531
			c0,0.5126953,0.1376953,0.9228516,0.4130859,1.2314453c0.2753906,0.3076172,0.6259766,0.4619141,1.0517578,0.4619141
			c0.421875,0,0.7597656-0.1210938,1.0136719-0.3642578c0.2539063-0.2421875,0.3808594-0.5361328,0.3808594-0.8818359
			c0-0.2861328-0.0742188-0.5429688-0.2226563-0.7695313C116.296875,21.8508587,115.7363281,21.3000774,114.8925781,20.6203899z
			 M115.5371094,19.7556438c0.46875-0.4296875,0.765625-0.7680664,0.890625-1.0166016s0.1875-0.5297852,0.1875-0.84375
			c0-0.4174805-0.1152344-0.7446289-0.3457031-0.980957s-0.5449219-0.3549805-0.9433594-0.3549805
			s-0.7226563,0.1171875-0.9726563,0.3520508c-0.25,0.234375-0.375,0.5087891-0.375,0.8227539
			c0,0.206543,0.0517578,0.4135742,0.1552734,0.6201172s0.2509766,0.4033203,0.4423828,0.590332L115.5371094,19.7556438z"/>
	</g>
	<g>
		<path class="st3" d="M87.3144531,22.2180462c-0.0273438,0.1992188-0.0410156,0.3642578-0.0410156,0.4951172
			c0,0.3535156,0.1230469,0.6552734,0.3691406,0.9033203s0.5449219,0.3730469,0.8964844,0.3730469
			c0.28125,0,0.5517578-0.0585938,0.8115234-0.1767578c0.2597656-0.1171875,0.6455078-0.3759766,1.1572266-0.7773438
			l0.1230469,0.1728516c-0.9257813,0.9335938-1.8085938,1.4013672-2.6484375,1.4013672
			c-0.5703125,0-1-0.1835938-1.2890625-0.5488281c-0.2890625-0.3662109-0.4335938-0.7695313-0.4335938-1.2109375
			c0-0.5917969,0.1796875-1.1982422,0.5390625-1.8183594s0.8105469-1.1020508,1.3535156-1.4458008
			s1.1015625-0.5161133,1.6757813-0.5161133c0.4140625,0,0.7207031,0.0859375,0.9199219,0.2563477
			c0.1992188,0.1713867,0.2988281,0.3740234,0.2988281,0.6083984c0,0.3305664-0.1289063,0.6459961-0.3867188,0.9477539
			c-0.3398438,0.3935547-0.8398438,0.7119141-1.5,0.9541016C88.7226563,21.9992962,88.1074219,22.1262493,87.3144531,22.2180462z
			 M87.3554688,21.926054c0.578125-0.0673828,1.0488281-0.1826172,1.4121094-0.3457031
			c0.4804688-0.21875,0.8408203-0.4804688,1.0810547-0.7841797c0.2402344-0.3046875,0.3603516-0.5932617,0.3603516-0.8676758
			c0-0.1669922-0.0517578-0.3022461-0.1552734-0.4057617c-0.1035156-0.1030273-0.2509766-0.1547852-0.4423828-0.1547852
			c-0.3984375,0-0.8212891,0.2158203-1.2685547,0.6469727C87.8955078,20.4465618,87.5664063,21.0832806,87.3554688,21.926054z"/>
	</g>
	<g>
		<path class="st3" d="M94.15625,19.9402142h6.1523438v0.5786133H94.15625V19.9402142z M94.15625,22.1643353h6.1523438v0.5908203
			H94.15625V22.1643353z"/>
	</g>
</g>
<g>
</g>
<g>
</g>
<g>
</g>
<g>
</g>
<g>
</g>
<g>
</g>
</svg>
