<?xml version="1.0" encoding="utf-8"?>
<!-- Generator: Adobe Illustrator 19.0.0, SVG Export Plug-In . SVG Version: 6.00 Build 0)  -->
<svg version="1.1" id="Layer_1" xmlns="http://www.w3.org/2000/svg" xmlns:xlink="http://www.w3.org/1999/xlink" x="0px" y="0px"
	 viewBox="0 0 926 785" style="enable-background:new 0 0 926 785;" xml:space="preserve">
<style type="text/css">
	.st0{clip-path:url(#SVGID_2_);fill:#FFFFFF;}
	
		.st1{clip-path:url(#SVGID_2_);fill:none;stroke:#000000;stroke-width:5;stroke-linecap:round;stroke-linejoin:round;stroke-miterlimit:10;}
	
		.st2{clip-path:url(#SVGID_2_);fill:none;stroke:#003399;stroke-width:5;stroke-linecap:round;stroke-linejoin:round;stroke-miterlimit:10;}
	
		.st3{clip-path:url(#SVGID_2_);fill:none;stroke:#FF0000;stroke-width:5;stroke-linecap:round;stroke-linejoin:round;stroke-miterlimit:10;}
	
		.st4{clip-path:url(#SVGID_2_);fill:none;stroke:#000000;stroke-width:5;stroke-linejoin:round;stroke-miterlimit:10;stroke-dasharray:12,8;}
	
		.st5{clip-path:url(#SVGID_2_);fill:none;stroke:#000000;stroke-width:3;stroke-linecap:round;stroke-linejoin:round;stroke-miterlimit:10;}
	.st6{clip-path:url(#SVGID_2_);}
</style>
<g>
	<defs>
		<rect id="SVGID_1_" width="926" height="785"/>
	</defs>
	<clipPath id="SVGID_2_">
		<use xlink:href="#SVGID_1_"  style="overflow:visible;"/>
	</clipPath>
	<polyline class="st0" points="0,0 926,0 926,785 0,785 0,0 	"/>
	<ellipse class="st1" cx="401.5172424" cy="438.0788269" rx="387.7117615" ry="310.1694031"/>
	<line class="st1" x1="607.1116943" y1="175.1094971" x2="634.1442871" y2="438.0788269"/>
	<line class="st2" x1="354.6890259" y1="48.8062744" x2="854.9220581" y2="299.1049805"/>
	<line class="st3" x1="607.1116943" y1="175.1094971" x2="506.2871399" y2="376.6117859"/>
	<line class="st1" x1="168.8901825" y1="438.0788269" x2="833.7860107" y2="39.0861206"/>
	<line class="st4" x1="833.7860107" y1="39.0861206" x2="634.1442871" y2="438.0788269"/>
	<line class="st5" x1="13.8054838" y1="438.0788269" x2="789.2290039" y2="438.0788269"/>
	<circle class="st6" cx="168.8901825" cy="438.0788269" r="5"/>
	<circle class="st6" cx="634.1442871" cy="438.0788269" r="5"/>
	<circle class="st6" cx="607.1116943" cy="175.1094971" r="5"/>
	<circle class="st6" cx="833.7860107" cy="39.0861206" r="5"/>
	<circle class="st6" cx="479.5443726" cy="111.2794189" r="5"/>
	<path class="st6" d="M168.8098907,473.9189148l-2.3450012,9.3099976c0,0,0.6999969,0.1399841,2.2050018,0.1399841h1.1549988
		c0,0,1.1549988,0,1.1549988,0.6300049c0,0,0,1.0150146-1.0500031,1.0150146c0,0-0.4900055,0-1.4875031-0.0350037
		c0,0-0.9974976-0.0350037-1.5224915-0.0350037c0,0-0.5250092,0-1.5750122-0.0175171c0,0-1.0499878-0.0174866-1.5749969-0.0174866
		c0,0-0.4899902,0-1.4349976,0.0174866c0,0-0.9449921,0.0175171-1.3999939,0.0175171c0,0-0.4550018,0-1.3300018,0.0350037
		c0,0-0.875,0.0350037-1.3300018,0.0350037c0,0-0.7700043,0-0.7700043-0.6300049c0,0,0-0.7000122,0.4199982-0.9450073
		c0,0,0.1399994-0.0700073,1.1200104-0.0700073c0,0,1.2599945,0,1.8549957-0.0350037c0,0,0.4550018-0.0350037,0.5774994-0.1399841
		c0,0,0.1224976-0.105011,0.2274933-0.5249939l4.9350128-19.7400208c0,0-1.4700012-0.0700073-2.1350098-0.0700073
		c0,0-0.5950012,0-0.8224945-0.0174866c0,0-0.2275085-0.0174866-0.4199982-0.1575012c0,0-0.1925049-0.1399841-0.1925049-0.4549866
		c0,0,0-0.6300049,0.3150024-0.8400269c0,0,0.2099915-0.1749878,0.9449921-0.1749878h18.8300018
		c0,0,1.1549988,0,1.1549988,0.6300049l-0.0349884,0.5599976l-0.6300049,6.2650146c0,0-0.0350037,0.3849792-0.0874939,0.5424805
		c0,0-0.0525055,0.1575012-0.2275085,0.2975159c0,0-0.1750031,0.1399841-0.5249939,0.1399841c0,0-0.8400116,0-0.8400116-0.6650085
		l0.0700073-0.769989c0,0,0.0699921-0.769989,0.0699921-1.2600098c0,0,0-2.3099976-1.1199951-3.2024841
		c0,0-1.1199951-0.8925171-4.0950012-0.8925171h-4.1649933c0,0-0.7350006,0-1.1900024,0.0700073l-2.3099976,9.3450012h1.9599915
		c0,0,1.9600067,0,2.8875122-0.6300049c0,0,0.9274902-0.6300049,1.4174957-2.5549927c0,0,0.1399994-0.5599976,0.2975006-0.7349854
		c0,0,0.1575012-0.1750183,0.6125031-0.1750183c0,0,0.8399963,0,0.8399963,0.6300049c0,0,0,0.105011-0.1399994,0.5599976
		l-1.9600067,7.8049927c0,0-0.1049957,0.3850098-0.1575012,0.5075073c0,0-0.0524902,0.1224976-0.2274933,0.2275085
		c0,0-0.1750031,0.1049805-0.4900055,0.1049805c0,0-0.8049927,0-0.8049927-0.6299744c0,0,0-0.1400146,0.1049957-0.4900208
		c0,0,0.2100067-0.8399963,0.2100067-1.4700012c0,0,0-0.875-0.5600128-1.1900024c0,0-0.5599976-0.3149719-2.1349945-0.3149719
		H168.8098907z"/>
	<path class="st6" d="M188.7840424,475.0003662v14.1119995h3.4300079v1.1515198c0,0-1.0780029-0.0735168-4.8755035-0.0735168
		c0,0-3.7975006,0-4.8755035,0.0735168v-1.1515198h3.4055023v-12.6665039c0,0-1.5189972,0.4900208-3.1849976,0.4900208h-0.4900055
		v-1.1515198h0.4900055c0,0,3.0379944,0,4.9244995-1.3964844c0,0,0.2205048-0.1715088,0.5390015-0.1715088
		c0,0,0.4409943,0,0.5390015,0.1592407C188.6860504,474.3756104,188.7840424,474.5348816,188.7840424,475.0003662z"/>
	<path class="st6" d="M608.2600098,135.2788696l-2.4499512,9.7299805h4.7949829c0,0,3.9550171,0,5.4599609-1.9249878
		c0,0,0.8400269-1.085022,1.2950439-3.0100098c0,0,0.4549561-1.9249878,0.4549561-2.6600342c0,0,0-2.7649536-4.5849609-2.7649536
		h-3.6400146c0,0-0.6300049,0-0.9450073,0.0349731C608.6450195,134.6838379,608.4000244,134.7188721,608.2600098,135.2788696z
		 M605.6700439,146.4438477l-2.2050171,8.8549805c0,0,1.4700317,0.0700073,2.1350098,0.0700073c0,0,0.5949707,0,0.8399658,0.0175171
		c0,0,0.2450562,0.0175171,0.4200439,0.1749878c0,0,0.1749878,0.1575317,0.1749878,0.4724731c0,0,0,0.9800415-1.0150146,0.9800415
		c0,0-0.4199829,0-1.3474731-0.0349731c0,0-0.9274902-0.0350342-1.3825073-0.0350342c0,0-0.4199829,0-1.3300171-0.0175171
		c0,0-0.9099731-0.0175171-1.3649902-0.0175171c0,0-0.4550171,0-1.3300171,0.0175171c0,0-0.875,0.0175171-1.3299561,0.0175171
		c0,0-0.4550171,0-1.3300171,0.0350342c0,0-0.875,0.0349731-1.3300171,0.0349731c0,0-0.7700195,0-0.7700195-0.6300049
		c0,0,0-0.7000122,0.4550171-0.9099731c0,0,0.1049805-0.1050415,1.085022-0.1050415c0,0,1.2600098,0,1.8549805-0.0349731
		c0,0,0.4550171-0.0350342,0.5775146-0.1400146c0,0,0.1224976-0.1049805,0.227478-0.5250244l5.0050049-19.9499512
		c0,0-1.4699707-0.0700073-2.1350098-0.0700073c0,0-0.5949707,0-0.8399658-0.0175171c0,0-0.2449951-0.0175171-0.4375-0.1574707
		c0,0-0.1925049-0.1400146-0.1925049-0.4550171c0,0,0-0.4899902,0.2099609-0.7175293c0,0,0.210022-0.227478,0.4200439-0.2625122
		c0,0,0.2099609-0.0349731,0.664978-0.0349731h13.4750366c0,0,3.5699463,0,5.7049561,1.3825073
		c0,0,2.1350098,1.3825073,2.1350098,4.0075073c0,0,0,3.2199707-3.0800171,5.6350098c0,0-3.0799561,2.414978-7.7699585,2.414978
		H605.6700439"/>
	<path class="st6" d="M838.8099976,64.9673462l-2.3450317,9.3099976c0,0,0.7000122,0.1400146,2.2050171,0.1400146h1.1549683
		c0,0,1.1550293,0,1.1550293,0.6300049c0,0,0,1.0150146-1.0499878,1.0150146c0,0-0.4900513,0-1.4875488-0.0350342
		c0,0-0.9974976-0.0350342-1.5224609-0.0350342c0,0-0.5250244,0-1.5750122-0.0174561c0,0-1.0499878-0.0175171-1.5750122-0.0175171
		c0,0-0.4899902,0-1.4349976,0.0175171c0,0-0.9450073,0.0174561-1.3999634,0.0174561c0,0-0.4550171,0-1.3300171,0.0350342
		c0,0-0.875,0.0350342-1.3300171,0.0350342c0,0-0.7700195,0-0.7700195-0.6300049c0,0,0-0.7000122,0.4200439-0.9450073
		c0,0,0.1399536-0.0700073,1.1199951-0.0700073c0,0,1.2600098,0,1.8549805-0.0350342c0,0,0.4550171-0.0349731,0.5775146-0.1400146
		c0,0,0.1224976-0.1049805,0.227478-0.5249634l4.9349976-19.7399902c0,0-1.4699707-0.0700073-2.1350098-0.0700073
		c0,0-0.5949707,0-0.8224487-0.0175171c0,0-0.2275391-0.0175171-0.4200439-0.1574707c0,0-0.1925049-0.1400146-0.1925049-0.4550171
		c0,0,0-0.6300049,0.3150024-0.8400269c0,0,0.210022-0.1749878,0.9450073-0.1749878h18.8300171c0,0,1.1549683,0,1.1549683,0.6300049
		l-0.0349731,0.5599976l-0.6300049,6.2650146c0,0-0.0349731,0.3850098-0.0874634,0.5424805
		c0,0-0.0525513,0.1575317-0.2275391,0.2975464c0,0-0.1749878,0.1399536-0.5249634,0.1399536c0,0-0.8400269,0-0.8400269-0.664978
		l0.0700073-0.7700195c0,0,0.0700073-0.7699585,0.0700073-1.2600098c0,0,0-2.3099976-1.1199951-3.2024536
		c0,0-1.1199951-0.8925171-4.0950317-0.8925171h-4.164978c0,0-0.7349854,0-1.1900024,0.0700073l-2.3099976,9.3449707h1.9599609
		c0,0,1.960022,0,2.8875122-0.6300049c0,0,0.9274902-0.6300049,1.4175415-2.5549927c0,0,0.1399536-0.5599976,0.2974854-0.7349854
		c0,0,0.1574707-0.1749878,0.6124878-0.1749878c0,0,0.8400269,0,0.8400269,0.6300049c0,0,0,0.1049805-0.1400146,0.5599976
		l-1.960022,7.8049927c0,0-0.1049805,0.3850098-0.1574707,0.5075073c0,0-0.0524902,0.1224976-0.2275391,0.227478
		c0,0-0.1749878,0.1049805-0.4899902,0.1049805c0,0-0.8049927,0-0.8049927-0.6299438c0,0,0-0.1400146,0.1049805-0.4900513
		c0,0,0.210022-0.8399658,0.210022-1.4699707c0,0,0-0.875-0.5599976-1.1900024c0,0-0.5599976-0.3150024-2.1350098-0.3150024
		H838.8099976z"/>
	<path class="st6" d="M863.4678345,50.7822266l-5.1450195,9.5794678c0,0-0.1959839,0.3920288-0.4165039,0.3920288
		c0,0-0.0979614,0-0.7594604-0.2940063c0,0-0.4165039-0.1715088-0.5145264-0.2572632c0,0-0.0980225-0.0857544-0.0980225-0.2327271
		c0,0,0-0.0980225,0.1224976-0.4655151l3.4055176-10.2164917c0,0,0.5145264-1.4454956,1.7640381-1.4454956
		c0,0,0.7594604,0,1.3719482,0.5267334c0,0,0.6125488,0.5267334,0.6125488,1.31073
		C863.8108521,49.6796875,863.8108521,50.1696777,863.4678345,50.7822266z"/>
	<path class="st6" d="M862.7776489,79.276062l-0.7594604,5.4389648h-10.510498v-0.440979c0,0,0-0.3919678,0.0490112-0.5022583
		c0,0,0.0489502-0.1102295,0.2694702-0.3307495l4.9244995-5.0224609c0,0,2.6459961-2.6950073,2.6459961-5.0960083
		c0,0,0-1.4700317-0.8574829-2.4867554c0,0-0.8574829-1.0167847-2.3765259-1.0167847c0,0-1.4945068,0-2.5234985,0.8574829
		c0,0,0.2695313,0.0735474,0.5390015,0.208252c0,0,0.2695313,0.1347656,0.5635376,0.5512695
		c0,0,0.2940063,0.4165039,0.2940063,1.0045166c0,0,0,0.8574829-0.5512695,1.31073c0,0-0.5512695,0.4532471-1.2127686,0.4532471
		c0,0-0.6124878,0-1.1882324-0.4287109c0,0-0.5757446-0.428772-0.5757446-1.3842773c0,0,0-1.6414795,1.5067139-2.6827393
		c0,0,1.5067749-1.0412598,3.7607422-1.0412598c0,0,2.621521,0,4.3120117,1.2739868c0,0,1.6904907,1.2740479,1.6904907,3.3565063
		c0,0,0,0.8574829-0.2449951,1.5189819c0,0-0.2449951,0.661499-0.9309692,1.3842773c0,0-0.6860352,0.7227783-1.2739868,1.1882324
		c0,0-0.5880127,0.4655151-1.9110107,1.4454956c0,0-1.1514893,0.8330078-3.5280151,2.8175049h3.6015015
		c0,0,2.2294922,0,2.4990234-0.1469727c0,0,0.3184814-0.1715088,0.6369629-2.2294922H862.7776489z"/>
	<path class="st6" d="M879.2549438,299.6640625l-4.8999634,19.5999756c0,0,0.8399658,0.105011,2.5200195,0.105011h1.4349976
		c0,0,1.1900024,0,1.1900024,0.6300049c0,0,0,1.0150146-1.085022,1.0150146c0,0-0.5599976,0-1.6799927-0.0350037
		c0,0-1.1199951-0.0350037-1.6799927-0.0350037c0,0-0.5950317,0-1.7850342-0.0175171c0,0-1.1900024-0.0174866-1.7849731-0.0174866
		c0,0-0.5950317,0-1.75,0.0174866c0,0-1.1550293,0.0175171-1.7150269,0.0175171c0,0-0.5599976,0-1.6799927,0.0350037
		c0,0-1.1199951,0.0350037-1.6450195,0.0350037c0,0-0.8399658,0-0.8399658-0.6650085c0,0,0-0.4550171,0.2099609-0.6824951
		c0,0,0.210022-0.2275085,0.4200439-0.2625122c0,0,0.2099609-0.0350037,0.6300049-0.0350037h1.4699707
		c0,0,1.8549805,0,2.9050293-0.1749878l5.0050049-20.125c0,0-0.7000122-0.0350037-1.8200073-0.0350037
		c0,0-3.7449951,0-5.1975098,1.0499878c0,0-1.4525146,1.0500183-2.8175049,4.8650208c0,0-0.210022,0.5599976-0.3674927,0.7174988
		c0,0-0.1575317,0.1575012-0.5775146,0.1575012c0,0-0.8399658,0-0.8399658-0.6300049c0,0,0-0.0350037,0.1049805-0.3500061
		l0.1049805-0.2799988l2.2399902-6.4750061c0,0,0.1750488-0.4899902,0.3850098-0.5950012c0,0,0.210022-0.105011,0.875-0.105011
		h21.2449951c0,0,0.4550171,0,0.647522,0.0175171c0,0,0.1925049,0.0174866,0.3674927,0.1925049
		c0,0,0.1749878,0.1749878,0.1749878,0.4899902l-0.9799805,6.7550049c0,0-0.0700073,0.5599976-0.2449951,0.769989
		c0,0-0.1749878,0.210022-0.6300049,0.210022c0,0-0.8400269,0-0.8400269-0.6650085c0,0,0-0.0350037,0.0350342-0.2799988
		c0,0,0.0349731-0.2449951,0.0349731-0.3500061c0,0,0.2449951-1.4700012,0.2449951-2.3800049c0,0,0-2.0299988-1.102478-2.5725098
		c0,0-1.102478-0.5424805-3.9725342-0.5424805h-1.4699707c0,0-0.4899902,0.0350037-0.6124878,0.1224976
		C879.4824829,299.1565552,879.3599854,299.2440491,879.2549438,299.6640625z"/>
	<path class="st6" d="M493.8349304,363.6639709l-5.1100159,20.5099792c0,0-0.1399841,0.5950012-0.332489,0.7174988
		c0,0-0.1925049,0.1225281-0.8575134,0.1225281c0,0-0.5599976,0-0.7174988-0.0875244c0,0-0.1575012-0.0874939-0.3674927-0.4725037
		l-10.2900085-19.8799744l-4.5849915,18.4449768c0,0,0.8399963,0.3500061,2.4150085,0.3500061c0,0,1.0849915,0,1.0849915,0.6300049
		c0,0,0,1.0150146-0.9450073,1.0150146c0,0-0.664978,0-2.0650024-0.0525208c0,0-1.3999939-0.0524902-2.0999756-0.0524902
		c0,0-0.6650085,0-2.0299988,0.0524902c0,0-1.3650208,0.0525208-1.9950256,0.0525208c0,0-0.3849792,0-0.5424805-0.2275085
		c0,0-0.1575012-0.2275085-0.1575012-0.4024963c0,0,0-0.4550171,0.2099915-0.7000122c0,0,0.2099915-0.2449951,0.4024963-0.2799988
		c0,0,0.1925049-0.0350037,0.5775146-0.0350037c0,0,1.0499878,0,1.9949951-0.1749878c0,0,0.6650085-0.1400146,0.8399963-0.2975159
		c0,0,0.1749878-0.1575012,0.2799988-0.5774841l4.7600098-19.1100159c0,0,0.1049805-0.3150024,0.1049805-0.3849792
		c0,0,0-0.1750183-1.5049744-0.1750183h-0.9450073c0,0-1.1199951,0-1.1199951-0.6300049c0,0,0-0.4899902,0.2099915-0.7174988
		c0,0,0.2099915-0.227478,0.4199829-0.2624817c0,0,0.210022-0.0350037,0.5950012-0.0350037h6.4750061
		c0,0,0.5950012,0,0.7525024,0.0874939c0,0,0.1575012,0.0874939,0.4024963,0.5075073l8.3999939,16.2049866l3.710022-14.8049927
		c0,0-0.875-0.3500061-2.4500122-0.3500061c0,0-1.0849915,0-1.0849915-0.6300049c0,0,0-1.0149841,0.980011-1.0149841
		c0,0,0.664978,0,2.0474854,0.0524902c0,0,1.3825073,0.0524902,2.082489,0.0524902c0,0,0.6650085,0,2.0299988-0.0524902
		c0,0,1.3650208-0.0524902,1.9950256-0.0524902c0,0,0.6999817,0,0.6999817,0.6300049c0,0,0,0.4549866-0.1925049,0.6999817
		c0,0-0.1925049,0.2449951-0.3674927,0.2799988c0,0-0.1749878,0.0350037-0.5249939,0.0350037c0,0-1.1900024,0-1.9949951,0.1750183
		c0,0-0.7350159,0.1399841-0.9100037,0.2799988C494.1149292,363.1039734,493.9399109,363.2439575,493.8349304,363.6639709z"/>
	<path class="st6" d="M503.0598755,100.5787964c0,0,0-1.4700317-0.4200134-2.0999756c0,0-0.4200134-0.6300049-1.4349976-0.6300049
		c0,0-1.0150146,0-1.8200073,0.6824951c0,0-0.8049927,0.6824951-0.8049927,1.5574951c0,0,0,1.1199951,1.6099854,1.1199951
		C500.1898499,101.2088013,501.7998657,101.2088013,503.0598755,100.5787964z M497.3198547,100.4038086
		c0,0,0-1.9949951,1.3125-2.9050293c0,0,1.3125-0.9099731,2.5375061-0.9099731c0,0,1.3999939,0,2.1524963,0.8049927
		c0,0,0.7525024,0.8049927,1.2774963,2.3099976c0,0,1.8200073-1.2600098,3.1499939-3.6224976
		c0,0,1.3300171-2.3624878,1.9075012-4.8125c0,0,0.5775146-2.4500122,0.8400269-4.0949707
		c0,0,0.2624817-1.6450195,0.2624817-2.4150391c0,0,0-2.7650146-1.2250061-4.3049927c0,0-1.3999939-1.6450195-3.7799988-1.6450195
		c0,0-1.75,0-3.7099915,1.085022c0,0-1.9599915,1.085022-3.5,3.5c0,0-1.5400085,2.4500122-2.4849854,6.2299805
		c0,0-0.9450073,3.7800293-0.9450073,5.7399902C495.1148682,95.3637695,495.1148682,98.968811,497.3198547,100.4038086
		 M505.1248474,101.6287842c0,0,0.3150024,0.9799805,0.7525024,1.4874878c0,0,0.4375,0.5075073,0.7350159,0.5775146
		c0,0,0.2974854,0.0700073,0.7525024,0.0700073c0,0,0.2449951,0,0.5424805-0.0349731c0,0,0.2975159-0.0350342,0.9100037-0.1925049
		c0,0,0.6125183-0.1575317,1.1375122-0.5775146c0,0,0.5249939-0.4199829,0.769989-1.0499878
		c0,0,0.1750183-0.5250244,0.6300049-0.5250244c0,0,0.2449951,0,0.4375,0.1749878c0,0,0.1925049,0.1749878,0.1925049,0.4550171
		c0,0,0,0.3150024-0.3500061,1.3125c0,0-0.3500061,0.9974976-1.0149841,2.2750244c0,0-0.6650085,1.2774658-1.9075012,2.2399902
		c0,0-1.2425232,0.9624634-2.7124939,0.9624634c0,0-3.1500244,0-3.1500244-4.0949707c0,0,0-0.4899902,0.1400146-2.4500122
		c0,0-1.3999939,0.3499756-3.1499939,0.3499756c0,0-4.1300049,0-6.6849976-2.1699829c0,0-2.5550232-2.1699829-2.5550232-6.4400024
		c0,0,0-2.1350098,0.6300049-4.4274902c0,0,0.6300049-2.2924805,1.9425049-4.4625244c0,0,1.3125-2.1699829,3.1149902-3.8849487
		c0,0,1.8025208-1.7150269,4.3575134-2.7650146c0,0,2.5549927-1.0499878,5.4599915-1.0499878c0,0,3.9550171,0,6.5625,2.1524658
		c0,0,2.6074829,2.1525269,2.6074829,6.5975342c0,0,0,1.3999634-0.2974854,2.9924927c0,0-0.2974854,1.5924683-1.0499878,3.4824829
		c0,0-0.7525024,1.8900146-1.8550415,3.5350342c0,0-1.102478,1.6449585-2.9049683,3.1324463
		C509.1673584,99.3012695,507.3648682,100.7888184,505.1248474,101.6287842"/>
	<path class="st6" d="M628.8099976,476.9187317l-2.3450317,9.3099976c0,0,0.7000122,0.1399841,2.2050171,0.1399841h1.1549683
		c0,0,1.1550293,0,1.1550293,0.6300049c0,0,0,1.0150146-1.0499878,1.0150146c0,0-0.4900513,0-1.4875488-0.0350037
		c0,0-0.9974976-0.0350037-1.5224609-0.0350037c0,0-0.5250244,0-1.5750122-0.0175171c0,0-1.0499878-0.0174866-1.5750122-0.0174866
		c0,0-0.4899902,0-1.4349976,0.0174866c0,0-0.9450073,0.0175171-1.3999634,0.0175171c0,0-0.4550171,0-1.3300171,0.0350037
		c0,0-0.875,0.0350037-1.3300171,0.0350037c0,0-0.7700195,0-0.7700195-0.6300049c0,0,0-0.7000122,0.4200439-0.9450073
		c0,0,0.1399536-0.0700073,1.1199951-0.0700073c0,0,1.2600098,0,1.8549805-0.0350037c0,0,0.4550171-0.0350037,0.5775146-0.1399841
		c0,0,0.1224976-0.105011,0.227478-0.5249939l4.9349976-19.7400208c0,0-1.4699707-0.0700073-2.1350098-0.0700073
		c0,0-0.5949707,0-0.8224487-0.0174866c0,0-0.2275391-0.0174866-0.4200439-0.1575012c0,0-0.1925049-0.1399841-0.1925049-0.4549866
		c0,0,0-0.6300049,0.3150024-0.8400269c0,0,0.210022-0.1749878,0.9450073-0.1749878h18.8300171c0,0,1.1549683,0,1.1549683,0.6300049
		l-0.0349731,0.5599976l-0.6300049,6.2650146c0,0-0.0349731,0.3849792-0.0874634,0.5424805
		c0,0-0.0525513,0.1575012-0.2275391,0.2975159c0,0-0.1749878,0.1399841-0.5249634,0.1399841c0,0-0.8400269,0-0.8400269-0.6650085
		l0.0700073-0.769989c0,0,0.0700073-0.769989,0.0700073-1.2600098c0,0,0-2.3099976-1.1199951-3.2024841
		c0,0-1.1199951-0.8925171-4.0950317-0.8925171h-4.164978c0,0-0.7349854,0-1.1900024,0.0700073l-2.3099976,9.3450012h1.9599609
		c0,0,1.960022,0,2.8875122-0.6300049c0,0,0.9274902-0.6300049,1.4175415-2.5549927c0,0,0.1399536-0.5599976,0.2974854-0.7349854
		c0,0,0.1574707-0.1750183,0.6124878-0.1750183c0,0,0.8400269,0,0.8400269,0.6300049c0,0,0,0.105011-0.1400146,0.5599976
		l-1.960022,7.8049927c0,0-0.1049805,0.3850098-0.1574707,0.5075073c0,0-0.0524902,0.1224976-0.2275391,0.2275085
		c0,0-0.1749878,0.1049805-0.4899902,0.1049805c0,0-0.8049927,0-0.8049927-0.6299744c0,0,0-0.1400146,0.1049805-0.4900208
		c0,0,0.210022-0.8399963,0.210022-1.4700012c0,0,0-0.875-0.5599976-1.1900024c0,0-0.5599976-0.3149719-2.1350098-0.3149719
		H628.8099976z"/>
	<path class="st6" d="M652.7776489,487.8247375l-0.7594604,5.4390259h-10.510498v-0.4410095c0,0,0-0.3919983,0.0490112-0.5022583
		c0,0,0.0489502-0.11026,0.2694702-0.3307495l4.9244995-5.0224915c0,0,2.6459961-2.6950073,2.6459961-5.0960083
		c0,0,0-1.4700012-0.8574829-2.4867554c0,0-0.8574829-1.0167542-2.3765259-1.0167542c0,0-1.4945068,0-2.5234985,0.8575134
		c0,0,0.2695313,0.0734863,0.5390015,0.208252c0,0,0.2695313,0.1347351,0.5635376,0.551239
		c0,0,0.2940063,0.4165039,0.2940063,1.0045166c0,0,0,0.8574829-0.5512695,1.31073c0,0-0.5512695,0.4532471-1.2127686,0.4532471
		c0,0-0.6124878,0-1.1882324-0.4287415c0,0-0.5757446-0.4287415-0.5757446-1.3842468c0,0,0-1.64151,1.5067139-2.6827393
		c0,0,1.5067749-1.0412598,3.7607422-1.0412598c0,0,2.621521,0,4.3120117,1.2739868c0,0,1.6904907,1.2740173,1.6904907,3.3565063
		c0,0,0,0.8575134-0.2449951,1.5190125c0,0-0.2449951,0.661499-0.9309692,1.3842468c0,0-0.6860352,0.7227478-1.2739868,1.1882629
		c0,0-0.5880127,0.4654846-1.9110107,1.4454956c0,0-1.1514893,0.8329773-3.5280151,2.8175049h3.6015015
		c0,0,2.2294922,0,2.4990234-0.1470032c0,0,0.3184814-0.1715088,0.6369629-2.2295227H652.7776489z"/>
</g>
</svg>
