<?xml version="1.0" encoding="utf-8"?>
<!-- Generator: Adobe Illustrator 19.0.0, SVG Export Plug-In . SVG Version: 6.00 Build 0)  -->
<svg version="1.1" id="Layer_1" xmlns="http://www.w3.org/2000/svg" xmlns:xlink="http://www.w3.org/1999/xlink" x="0px" y="0px"
	 viewBox="0 0 240.7720032 97.3300018" style="enable-background:new 0 0 240.7720032 97.3300018;" xml:space="preserve">
<style type="text/css">
	.st0{clip-path:url(#SVGID_2_);fill:#FFFFFF;}
	.st1{clip-path:url(#SVGID_2_);}
</style>
<g>
	<defs>
		<rect id="SVGID_1_" width="240.7720032" height="97.3300018"/>
	</defs>
	<clipPath id="SVGID_2_">
		<use xlink:href="#SVGID_1_"  style="overflow:visible;"/>
	</clipPath>
	<path class="st0" d="M-1.0345993,0.9146042h239.8059998v95.9250031H-1.0345993V0.9146042z M19.5384007,81.0966034
		c-0.0030003,0.2630005-0.0060005,0.526001-0.0090008,0.7890015h191.5819855l0.0120087-0.9049988h-4.2640076
		c-26.1259918,0-52.253006,0.0549927-78.3779907-0.090004c-2.5019989-0.0149994-5.3310013-0.7460022-7.4449997-2.0550003
		c-27.7340012-17.1639977-55.3650055-34.4939995-83.0289993-51.772995c-1.038002-0.6490021-2.1380005-1.1990051-3.2100029-1.7949982
		c-0.1659966,0.2859955-0.3309975,0.5709991-0.4969978,0.8559952c28.7319984,17.9869995,57.4649963,35.973999,86.1969986,53.9599991
		c-0.1380005,0.3379974-0.2740021,0.6750031-0.4110031,1.0130005H19.5384007z"/>
	<path class="st1" d="M19.5384007,81.0966034h100.5479965c0.137001-0.3379974,0.2730026-0.6750031,0.4110031-1.0130005
		C91.7653961,62.0976028,63.0323982,44.1106033,34.3003998,26.1236038c0.1660004-0.284996,0.3310013-0.5699997,0.4969978-0.8559952
		c1.0720024,0.595993,2.1720009,1.1459961,3.2100029,1.7949982c27.6639938,17.2789955,55.2949982,34.6089973,83.0289993,51.772995
		c2.1139984,1.3089981,4.9430008,2.0400009,7.4449997,2.0550003c26.1249847,0.1449966,52.2519989,0.090004,78.3779907,0.090004
		h4.2640076l-0.0120087,0.9049988H19.5293999C19.5324001,81.6226044,19.5354004,81.3596039,19.5384007,81.0966034"/>
	<g class="st1">
		<path d="M16.0952148,88.3300018v-0.2871094c0.1953125-0.0390625,0.3408203-0.0820313,0.4365234-0.1289063
			s0.1669922-0.1123047,0.2138672-0.1962891s0.0703125-0.1962891,0.0703125-0.3369141
			c0-0.1328125-0.015625-0.2763672-0.046875-0.4306641s-0.0761719-0.3271484-0.1347656-0.5185547l-0.2167969-0.7558594h-2.7304688
			l-0.1992188,0.5742188c-0.1015625,0.2890625-0.1679688,0.5078125-0.1992188,0.65625s-0.046875,0.2832031-0.046875,0.4042969
			c0,0.234375,0.0595703,0.40625,0.1787109,0.515625s0.3017578,0.1816406,0.5478516,0.2167969v0.2871094h-2.5019531v-0.2871094
			c0.21875-0.0351563,0.4091797-0.1621094,0.5712891-0.3808594s0.3193359-0.53125,0.4716797-0.9375l2.4433594-6.4863281h0.9257813
			l1.9921875,6.5332031c0.09375,0.3046875,0.1767578,0.5371094,0.2490234,0.6972656s0.1591797,0.2851563,0.2607422,0.375
			s0.2402344,0.15625,0.4160156,0.1992188v0.2871094H16.0952148z M13.8452148,85.1659393h2.4492188l-1.1132813-3.7792969
			L13.8452148,85.1659393z"/>
	</g>
	<g class="st1">
		<path d="M121.1005859,76.3300018v-0.2871094c0.2421875-0.0625,0.4042969-0.1318359,0.4863281-0.2080078
			s0.1357422-0.1845703,0.1611328-0.3251953s0.0380859-0.3554688,0.0380859-0.6445313v-5.0683594
			c0-0.2695313-0.0097656-0.4658203-0.0292969-0.5888672s-0.0517578-0.21875-0.0966797-0.2871094
			s-0.1044922-0.1230469-0.1787109-0.1640625s-0.2011719-0.0869141-0.3808594-0.1376953V68.331955h3.2050781
			c0.6210938,0,1.1201172,0.0664063,1.4970703,0.1992188s0.6572266,0.3291016,0.8408203,0.5888672
			s0.2753906,0.5947266,0.2753906,1.0048828c0,0.3398438-0.0654297,0.6347656-0.1962891,0.8847656
			s-0.3017578,0.4570313-0.5126953,0.6210938s-0.4824219,0.3164063-0.8144531,0.4570313v0.0527344
			c0.53125,0.1601563,0.9335938,0.4072266,1.2070313,0.7412109s0.4101563,0.7314453,0.4101563,1.1923828
			c0,0.53125-0.1181641,0.9648438-0.3544922,1.3007813s-0.5673828,0.5791016-0.9931641,0.7294922
			s-0.9414063,0.2255859-1.546875,0.2255859H121.1005859z M123.9072266,71.9178925
			c0.59375,0,1.0478516-0.1435547,1.3623047-0.4306641s0.4716797-0.7041016,0.4716797-1.2509766
			c0-0.2695313-0.0439453-0.4931641-0.1318359-0.6708984s-0.2089844-0.3193359-0.3632813-0.4248047
			s-0.3369141-0.1806641-0.5478516-0.2255859s-0.4394531-0.0673828-0.6855469-0.0673828
			c-0.1484375,0-0.34375,0.0039063-0.5859375,0.0117188s-0.4238281,0.015625-0.5449219,0.0234375v3.0351563H123.9072266z
			 M122.8818359,75.7733612c0.2851563,0.0273438,0.6035156,0.0410156,0.9550781,0.0410156
			c0.5117188,0,0.9091797-0.0644531,1.1923828-0.1933594s0.4882813-0.3193359,0.6152344-0.5712891
			s0.1904297-0.5673828,0.1904297-0.9462891s-0.0693359-0.6914063-0.2080078-0.9375s-0.3525391-0.4296875-0.6416016-0.5507813
			s-0.6875-0.1816406-1.1953125-0.1816406h-0.9082031V75.7733612z"/>
	</g>
	<g class="st1">
		<path d="M30.5444336,21.4979706v1.6230469h-0.5800781c-0.09375-0.3398438-0.2128906-0.6103516-0.3574219-0.8115234
			s-0.3125-0.3447266-0.5039063-0.4306641s-0.421875-0.1289063-0.6914063-0.1289063
			c-0.4023438,0-0.7607422,0.1337891-1.0751953,0.4013672s-0.5615234,0.6699219-0.7412109,1.2070313
			s-0.2695313,1.1865234-0.2695313,1.9482422c0,0.765625,0.0742188,1.4189453,0.2226563,1.9599609
			s0.3671875,0.9492188,0.65625,1.2246094s0.6445313,0.4130859,1.0664063,0.4130859
			c0.3203125,0,0.5820313-0.0458984,0.7851563-0.1376953s0.3740234-0.2373047,0.5126953-0.4365234
			s0.2705078-0.4921875,0.3955078-0.8789063h0.5800781v1.6757813c-0.3671875,0.0976563-0.7431641,0.1708984-1.1279297,0.2197266
			s-0.8076172,0.0732422-1.2685547,0.0732422c-0.9921875,0-1.7421875-0.3359375-2.25-1.0078125
			s-0.7617188-1.6738281-0.7617188-3.0058594c0-0.8359375,0.1318359-1.5683594,0.3955078-2.1972656
			s0.6513672-1.1152344,1.1630859-1.4589844s1.1230469-0.515625,1.8339844-0.515625
			c0.3554688,0,0.6835938,0.0185547,0.984375,0.0556641S30.1577148,21.3964081,30.5444336,21.4979706z"/>
	</g>
	<g class="st1">
		<path d="M219.0996094,84.8260956v-0.2871094c0.1953125-0.0390625,0.3408203-0.0820313,0.4365234-0.1289063
			s0.1669922-0.1123047,0.2138672-0.1962891s0.0703125-0.1962891,0.0703125-0.3369141
			c0-0.1328125-0.015625-0.2763672-0.046875-0.4306641s-0.0761719-0.3271484-0.1347656-0.5185547l-0.2167969-0.7558594h-2.7304688
			l-0.1992188,0.5742188c-0.1015625,0.2890625-0.1679688,0.5078125-0.1992188,0.65625s-0.046875,0.2832031-0.046875,0.4042969
			c0,0.234375,0.0595703,0.40625,0.1787109,0.515625s0.3017578,0.1816406,0.5478516,0.2167969v0.2871094h-2.5019531v-0.2871094
			c0.21875-0.0351563,0.4091797-0.1621094,0.5712891-0.3808594s0.3193359-0.53125,0.4716797-0.9375l2.4433594-6.4863281h0.9257813
			L220.875,83.2675018c0.09375,0.3046875,0.1767578,0.5371094,0.2490234,0.6972656s0.1591797,0.2851563,0.2607422,0.375
			s0.2402344,0.15625,0.4160156,0.1992188v0.2871094H219.0996094z M216.8496094,81.6620331h2.4492188l-1.1132813-3.7792969
			L216.8496094,81.6620331z"/>
		<path d="M222.6884766,76.44133c0.046875,0.1289063,0.0830078,0.2695313,0.1083984,0.421875
			s0.0380859,0.2910156,0.0380859,0.4160156c0,0.2578125-0.0390625,0.4863281-0.1171875,0.6855469
			s-0.2021484,0.4013672-0.3720703,0.6064453s-0.4287109,0.4599609-0.7763672,0.7646484l-0.3574219-0.3515625
			c0.1914063-0.2304688,0.3320313-0.4638672,0.421875-0.7001953s0.1347656-0.5244141,0.1347656-0.8642578
			c0-0.1171875-0.0058594-0.2421875-0.0175781-0.375s-0.0410156-0.3339844-0.0878906-0.6035156H222.6884766z"/>
	</g>
</g>
</svg>
