<?xml version="1.0" encoding="utf-8"?>
<!-- Generator: Adobe Illustrator 19.0.0, SVG Export Plug-In . SVG Version: 6.00 Build 0)  -->
<svg version="1.1" id="Layer_1" xmlns="http://www.w3.org/2000/svg" xmlns:xlink="http://www.w3.org/1999/xlink" x="0px" y="0px"
	 viewBox="0 0 926 785" style="enable-background:new 0 0 926 785;" xml:space="preserve">
<style type="text/css">
	.st0{clip-path:url(#SVGID_2_);fill:#FFFFFF;}
	
		.st1{clip-path:url(#SVGID_2_);fill:none;stroke:#000000;stroke-width:3;stroke-linecap:round;stroke-linejoin:round;stroke-miterlimit:10;}
	.st2{clip-path:url(#SVGID_2_);}
	
		.st3{clip-path:url(#SVGID_2_);fill:none;stroke:#000000;stroke-width:5;stroke-linecap:round;stroke-linejoin:round;stroke-miterlimit:10;}
	
		.st4{clip-path:url(#SVGID_2_);fill:none;stroke:#FF0000;stroke-width:5;stroke-linecap:round;stroke-linejoin:round;stroke-miterlimit:10;}
	
		.st5{clip-path:url(#SVGID_2_);fill:none;stroke:#003399;stroke-width:5;stroke-linecap:round;stroke-linejoin:round;stroke-miterlimit:10;}
	
		.st6{clip-path:url(#SVGID_2_);fill:none;stroke:#000000;stroke-width:5;stroke-linejoin:round;stroke-miterlimit:10;stroke-dasharray:12,8;}
</style>
<g>
	<defs>
		<rect id="SVGID_1_" width="926" height="785"/>
	</defs>
	<clipPath id="SVGID_2_">
		<use xlink:href="#SVGID_1_"  style="overflow:visible;"/>
	</clipPath>
	<polyline class="st0" points="0,0 926,0 926,785 0,785 0,0 	"/>
	<polyline class="st1" points="-298.5498657,1259.0871582 -207.268158,1159.7581787 -134.9416504,1080.3929443 
		-76.3131027,1015.4277344 -27.909502,961.1858521 12.655386,915.1395874 47.0749741,875.4935913 76.5840149,840.9373169 
		102.1037674,810.4915771 124.3353195,783.4094849 143.8213654,759.1114502 160.9883575,737.1403809 176.1757202,717.1307983 
		189.6568146,698.7866821 201.6539612,681.8653564 212.3495789,666.1658936 221.8945007,651.5202026 230.4142456,637.7862549 
		238.0138855,624.8429565 244.781662,612.5861816 250.7920532,600.9255371 256.1078796,589.7819824 260.7823486,579.0856323 
		264.8602295,568.774292 268.3792725,558.7919312 271.3709717,549.0877686 273.8613586,539.6149902 275.871582,530.3304443 
		277.418335,521.1933594 278.5143433,512.1651611 279.168457,503.2088318 279.3858948,494.288147 279.168457,485.3674622 
		278.5143433,476.4111023 277.418335,467.3829346 275.871582,458.2458801 273.8613586,448.9612732 271.3709717,439.4885254 
		268.3792725,429.7843323 264.8602295,419.802002 260.7823486,409.4906311 256.1078796,398.7943115 250.7920532,387.6507568 
		244.781662,375.9901123 238.0138855,363.7333374 230.4142456,350.7900391 221.8945007,337.0560608 212.3495789,322.4104004 
		201.6539612,306.7109375 189.6568146,289.7896118 176.1757202,271.4454346 160.9883575,251.4359131 143.8213654,229.4648438 
		124.3353195,205.1668091 102.1037674,178.0847168 76.5840149,147.6389771 47.0749741,113.0827026 12.655386,73.4367065 
		-27.909502,27.3904419 -76.3131027,-26.8514404 -134.9416504,-91.8165894 -207.268158,-171.1819458 -298.5498657,-270.5108643 	"/>
	<polyline class="st1" points="1184.3145752,1259.0871582 1093.0328369,1159.7581787 1020.7063599,1080.3929443 
		962.0778198,1015.4277344 913.6741943,961.1858521 873.109314,915.1395874 838.6897583,875.4935913 809.1806641,840.9373169 
		783.6609497,810.4915771 761.4293823,783.4094849 741.9433594,759.1114502 724.7763672,737.1403809 709.5889893,717.1307983 
		696.1079102,698.7866821 684.1107178,681.8653564 673.4151001,666.1658936 663.8701782,651.5202026 655.3504639,637.7862549 
		647.7507935,624.8429565 640.9830322,612.5861816 634.9726563,600.9255371 629.6567993,589.7819824 624.9823608,579.0856323 
		620.90448,568.774292 617.385437,558.7919312 614.3937378,549.0877686 611.9033203,539.6149902 609.8931274,530.3304443 
		608.3463745,521.1933594 607.2503662,512.1651611 606.5962524,503.2088318 606.3787842,494.288147 606.5962524,485.3674622 
		607.2503662,476.4111023 608.3463745,467.3829346 609.8931274,458.2458801 611.9033203,448.9612732 614.3937378,439.4885254 
		617.385437,429.7843323 620.90448,419.802002 624.9823608,409.4906311 629.6567993,398.7943115 634.9726563,387.6507568 
		640.9830322,375.9901123 647.7507935,363.7333374 655.3504639,350.7900391 663.8701782,337.0560608 673.4151001,322.4104004 
		684.1107178,306.7109375 696.1079102,289.7896118 709.5889893,271.4454346 724.7763672,251.4359131 741.9433594,229.4648438 
		761.4293823,205.1668091 783.6609497,178.0847168 809.1806641,147.6389771 838.6897583,113.0827026 873.109314,73.4367065 
		913.6741943,27.3904419 962.0778198,-26.8514404 1020.7063599,-91.8165894 1093.0328369,-171.1819458 1184.3145752,-270.5108643 	
		"/>
	<line class="st1" x1="-5" y1="494.288147" x2="931" y2="494.288147"/>
	<g class="st2">
		<path d="M6.0429688,486v-5.4023438H5.1113281v-0.8203125h0.9316406v-0.6621094
			c0-0.4179688,0.0371094-0.7285156,0.1113281-0.9316406c0.1015625-0.2734375,0.2802734-0.4951172,0.5361328-0.6650391
			s0.6142578-0.2548828,1.0751953-0.2548828c0.296875,0,0.625,0.0351563,0.984375,0.1054688l-0.1582031,0.9199219
			c-0.21875-0.0390625-0.4257813-0.0585938-0.6210938-0.0585938c-0.3203125,0-0.546875,0.0683594-0.6796875,0.2050781
			s-0.1992188,0.3925781-0.1992188,0.7675781v0.5742188h1.2128906v0.8203125H7.0917969V486H6.0429688z"/>
	</g>
	<g class="st2">
		<path d="M6.0429688,486v-5.4023438H5.1113281v-0.8203125h0.9316406v-0.6621094
			c0-0.4179688,0.0371094-0.7285156,0.1113281-0.9316406c0.1015625-0.2734375,0.2802734-0.4951172,0.5361328-0.6650391
			s0.6142578-0.2548828,1.0751953-0.2548828c0.296875,0,0.625,0.0351563,0.984375,0.1054688l-0.1582031,0.9199219
			c-0.21875-0.0390625-0.4257813-0.0585938-0.6210938-0.0585938c-0.3203125,0-0.546875,0.0683594-0.6796875,0.2050781
			s-0.1992188,0.3925781-0.1992188,0.7675781v0.5742188h1.2128906v0.8203125H7.0917969V486H6.0429688z"/>
	</g>
	<line class="st3" x1="680.8474121" y1="494.288147" x2="707.2109375" y2="274.6372986"/>
	<line class="st4" x1="707.2109375" y1="274.6372986" x2="819.6568604" y2="358.1845093"/>
	<line class="st5" x1="570.7922974" y1="458.2427673" x2="835.8896484" y2="101.4489746"/>
	<line class="st3" x1="707.2109375" y1="274.6372986" x2="837.614624" y2="217.6123047"/>
	<line class="st6" x1="204.9172668" y1="494.288147" x2="707.2109375" y2="274.6372986"/>
	<circle class="st2" cx="204.9172668" cy="494.288147" r="5"/>
	<circle class="st2" cx="680.8474121" cy="494.288147" r="5"/>
	<circle class="st2" cx="707.2109375" cy="274.6372986" r="5"/>
	<path class="st2" d="M188.6658173,536.8244019l-3.4169922,13.56604c0,0,1.0200043,0.2039795,3.2129974,0.2039795h1.6829987
		c0,0,1.6829987,0,1.6829987,0.9180298c0,0,0,1.4790039-1.5299988,1.4790039c0,0-0.7139893,0-2.1674957-0.0510254
		c0,0-1.4535065-0.0510254-2.2185059-0.0510254c0,0-0.7649994,0-2.2949982-0.0254517c0,0-1.5299988-0.0255127-2.2949982-0.0255127
		c0,0-0.7140045,0-2.0910034,0.0255127c0,0-1.3769989,0.0254517-2.0399933,0.0254517c0,0-0.6629944,0-1.9380035,0.0510254
		c0,0-1.2749939,0.0510254-1.9380035,0.0510254c0,0-1.121994,0-1.121994-0.9180298c0,0,0-1.0200195,0.6119995-1.3770142
		c0,0,0.2039948-0.1019897,1.6320038-0.1019897c0,0,1.8359985,0,2.7030029-0.0510254c0,0,0.6629944-0.0509644,0.8414917-0.2039795
		c0,0,0.1784973-0.1530151,0.3314972-0.7650146l7.1910095-28.7639771c0,0-2.1419983-0.1019897-3.1110077-0.1019897
		c0,0-0.8670044,0-1.1985016-0.0255127c0,0-0.3314972-0.0255127-0.6119995-0.2294922c0,0-0.2805023-0.2039795-0.2805023-0.6630249
		c0,0,0-0.9179688,0.4589996-1.223999c0,0,0.3059998-0.2550049,1.3769989-0.2550049h27.4380035c0,0,1.6829987,0,1.6829987,0.9180298
		l-0.0509949,0.815979l-0.9179993,9.1290283c0,0-0.0509949,0.5609741-0.1275024,0.7904663
		c0,0-0.0764923,0.2294922-0.3314972,0.4335327c0,0-0.2550049,0.2039795-0.7649994,0.2039795c0,0-1.223999,0-1.223999-0.9689941
		l0.102005-1.1220093c0,0,0.1019897-1.1220093,0.1019897-1.8359985c0,0,0-3.3659668-1.6320038-4.6665039
		c0,0-1.6319885-1.3004761-5.9669952-1.3004761h-6.0690002c0,0-1.0709991,0-1.7339935,0.1019897l-3.3660126,13.6170044h2.8560028
		c0,0,2.8560028,0,4.2075043-0.9180298c0,0,1.3515015-0.9179688,2.065506-3.7229614c0,0,0.2039948-0.81604,0.4335022-1.0709839
		c0,0,0.2294922-0.2550049,0.8924866-0.2550049c0,0,1.223999,0,1.223999,0.9179688c0,0,0,0.1530151-0.2039948,0.815979
		l-2.8560028,11.3730469c0,0-0.1529999,0.5609741-0.2294922,0.739502c0,0-0.0765076,0.1784668-0.3314972,0.3314819
		c0,0-0.2550049,0.1530151-0.7140045,0.1530151c0,0-1.1730042,0-1.1730042-0.9180298c0,0,0-0.2039795,0.1529999-0.7139893
		c0,0,0.3059998-1.223999,0.3059998-2.1420288c0,0,0-1.2749634-0.8159943-1.7339478c0,0-0.8160095-0.4590454-3.1110077-0.4590454
		H188.6658173z"/>
	<path class="st2" d="M217.7710114,538.4003296v20.5632324h4.9980011v1.6779175c0,0-1.5708008-0.1071167-7.1042938-0.1071167
		c0,0-5.5335083,0-7.1043091,0.1071167v-1.6779175h4.9623108v-18.4569092c0,0-2.2134094,0.7139893-4.6410065,0.7139893h-0.7140045
		v-1.6779175h0.7140045c0,0,4.4268036,0,7.175705-2.0348511c0,0,0.3213043-0.249939,0.7854004-0.249939
		c0,0,0.6425934,0,0.7854004,0.2320557C217.6282196,537.4899902,217.7710114,537.7220459,217.7710114,538.4003296z"/>
	<path class="st2" d="M687.6660767,541.8244629l-3.4169922,13.56604c0,0,1.0200195,0.2039795,3.2130127,0.2039795h1.6829834
		c0,0,1.6829834,0,1.6829834,0.9180298c0,0,0,1.4790039-1.5299683,1.4790039c0,0-0.7139893,0-2.1674805-0.0510254
		c0,0-1.4535522-0.0510254-2.2185059-0.0510254c0,0-0.7650146,0-2.2950439-0.0254517c0,0-1.5299683-0.0255127-2.2949829-0.0255127
		c0,0-0.7139893,0-2.0910034,0.0255127c0,0-1.3770142,0.0254517-2.039978,0.0254517c0,0-0.6630249,0-1.9379883,0.0510254
		c0,0-1.2750244,0.0510254-1.9380493,0.0510254c0,0-1.1219482,0-1.1219482-0.9180298c0,0,0-1.0200195,0.6119995-1.3770142
		c0,0,0.2039795-0.1019897,1.631958-0.1019897c0,0,1.8359985,0,2.7030029-0.0510254c0,0,0.6630249-0.0509644,0.8414917-0.2039795
		c0,0,0.1785278-0.1530151,0.331543-0.7650146l7.190979-28.7639771c0,0-2.1419678-0.1019897-3.1110229-0.1019897
		c0,0-0.8670044,0-1.1984863-0.0255127c0,0-0.3314819-0.0255127-0.6119995-0.2294922c0,0-0.2805176-0.2039795-0.2805176-0.6630249
		c0,0,0-0.9179688,0.4590454-1.223999c0,0,0.3059692-0.2550049,1.3769531-0.2550049h27.4380493c0,0,1.6829834,0,1.6829834,0.9180298
		l-0.0510254,0.815979l-0.9179688,9.1290283c0,0-0.0510254,0.5609741-0.1275024,0.7904663
		c0,0-0.0764771,0.2294922-0.3314819,0.4335327c0,0-0.2550049,0.2039795-0.7650146,0.2039795c0,0-1.223999,0-1.223999-0.9689941
		l0.1019897-1.1220093c0,0,0.1019897-1.1220093,0.1019897-1.8359985c0,0,0-3.3659668-1.632019-4.6665039
		c0,0-1.631958-1.3004761-5.96698-1.3004761h-6.0689697c0,0-1.0710449,0-1.7340088,0.1019897l-3.3660278,13.6170044h2.8560181
		c0,0,2.8560181,0,4.2075195-0.9180298c0,0,1.3515015-0.9179688,2.0654907-3.7229614c0,0,0.2039795-0.81604,0.4334717-1.0709839
		c0,0,0.2294922-0.2550049,0.8925171-0.2550049c0,0,1.223999,0,1.223999,0.9179688c0,0,0,0.1530151-0.2039795,0.815979
		l-2.8560181,11.3730469c0,0-0.1530151,0.5609741-0.2294922,0.739502c0,0-0.0765381,0.1784668-0.3314819,0.3314819
		c0,0-0.2550049,0.1530151-0.7140503,0.1530151c0,0-1.1729736,0-1.1729736-0.9180298c0,0,0-0.2039795,0.1530151-0.7139893
		c0,0,0.3059692-1.223999,0.3059692-2.1420288c0,0,0-1.2749634-0.815979-1.7339478c0,0-0.81604-0.4590454-3.1110229-0.4590454
		H687.6660767z"/>
	<path class="st2" d="M722.5899048,557.7161255l-1.1066895,7.925415h-15.3153076v-0.6426392c0,0,0-0.571167,0.0714111-0.7318115
		c0,0,0.0714111-0.1607056,0.3927002-0.4819946l7.1757202-7.3184814c0,0,3.8555908-3.927002,3.8555908-7.4255981
		c0,0,0-2.1420288-1.2495117-3.6235352c0,0-1.2495117-1.4815674-3.4628906-1.4815674c0,0-2.1776733,0-3.677124,1.2495117
		c0,0,0.3927002,0.1070557,0.7854004,0.3034058c0,0,0.3927002,0.1963501,0.821106,0.8032837
		c0,0,0.4284058,0.6068726,0.4284058,1.4636841c0,0,0,1.2495117-0.8032227,1.9099731c0,0-0.8032837,0.6604614-1.7671509,0.6604614
		c0,0-0.8925171,0-1.7314453-0.6247559c0,0-0.8389893-0.6247559-0.8389893-2.0170898c0,0,0-2.3919067,2.1955566-3.9091187
		c0,0,2.1955566-1.5172729,5.4799805-1.5172729c0,0,3.8198853,0,6.2832031,1.8563843c0,0,2.4632568,1.8564453,2.4632568,4.8909302
		c0,0,0,1.2495117-0.3569946,2.2133789c0,0-0.3569946,0.9639282-1.3565674,2.0170898c0,0-0.9996338,1.0531616-1.8564453,1.7314453
		c0,0-0.8567505,0.6782837-2.7845459,2.1062622c0,0-1.6779175,1.2138062-5.1408081,4.1055298h5.2478638
		c0,0,3.2487183,0,3.6414185-0.2142334c0,0,0.4641113-0.2498779,0.9282227-3.2486572H722.5899048z"/>
	<path class="st2" d="M695.2360229,238.3204346l-3.5700073,14.1779785h6.9869995c0,0,5.7630005,0,7.9559937-2.8049316
		c0,0,1.223999-1.5810547,1.8870239-4.3860474c0,0,0.6630249-2.8049927,0.6630249-3.8759766c0,0,0-4.0289917-6.6810303-4.0289917
		h-5.3040161c0,0-0.9179688,0-1.3769531,0.0509644C695.7970581,237.4534302,695.4400024,237.5044556,695.2360229,238.3204346z
		 M691.4620361,254.5894775l-3.2130127,12.9029541c0,0,2.1420288,0.1020508,3.1110229,0.1020508c0,0,0.8670044,0,1.223999,0.0254517
		c0,0,0.3569946,0.0255127,0.6119995,0.2550049c0,0,0.2550049,0.2294922,0.2550049,0.6885376c0,0,0,1.4279785-1.4790039,1.4279785
		c0,0-0.6119995,0-1.963501-0.0510254c0,0-1.3515015-0.0510254-2.0145264-0.0510254c0,0-0.6119995,0-1.9379883-0.0254517
		c0,0-1.3259888-0.0255127-1.9890137-0.0255127c0,0-0.6629639,0-1.9379883,0.0255127c0,0-1.2750244,0.0254517-1.9379883,0.0254517
		c0,0-0.6630249,0-1.9379883,0.0510254c0,0-1.2750244,0.0510254-1.9380493,0.0510254c0,0-1.1219482,0-1.1219482-0.9180298
		c0,0,0-1.0199585,0.6629639-1.3259888c0,0,0.1530151-0.1529541,1.5809937-0.1529541c0,0,1.8359985,0,2.7030029-0.0510254
		c0,0,0.6630249-0.0510254,0.8414917-0.2039795c0,0,0.1785278-0.1530762,0.331543-0.7650146l7.2929688-29.0700073
		c0,0-2.1419678-0.1019897-3.1109619-0.1019897c0,0-0.8670044,0-1.223999-0.0255127c0,0-0.3570557-0.0255127-0.6375122-0.2294922
		c0,0-0.2805176-0.2039795-0.2805176-0.6630249c0,0,0-0.7139893,0.3060303-1.0454712c0,0,0.3059692-0.331543,0.6119995-0.3825073
		c0,0,0.3059692-0.0510254,0.9689941-0.0510254h19.6350098c0,0,5.2019653,0,8.3129883,2.0145264
		c0,0,3.1109619,2.0144653,3.1109619,5.8394775c0,0,0,4.6920166-4.4879761,8.2109985c0,0-4.4879761,3.519043-11.3220215,3.519043
		H691.4620361"/>
	<path class="st2" d="M565.7771606,415.8927612l-6.78302,27.0809937c0,0-0.2039795,0.7649841-0.2039795,1.0709839
		c0,0,0,0.7650146,0.815979,0.9689941h0.0510254c0,0,0.3569946,0.1020203,1.0199585,0.1530151
		c0,0,1.3260498,0.1019897,3.2640381,0.1019897c0,0,1.5809937,0,1.6829834,0.3059998c0,0,0.0510254,0.1020203,0.0510254,0.2550049
		c0,0-0.2040405,0.9689941-1.1220093,1.0200195l-4.3859863-0.1020203h-0.0510254l-4.1309814-0.0509949h-0.1019897
		l-4.2330322,0.0509949h-0.1019897l-4.1309814,0.1020203h-0.0510254c0,0-0.8670044,0-0.8670044-0.61203
		c0,0,0-0.7649841,0.5610352-0.9179993c0,0,0.3569946-0.0509949,1.5809937-0.0509949c0,0,4.5390015,0,5.4060059-0.8670044
		c0,0,0.3059692-0.3059998,0.5099487-0.9179993c0,0,0-0.1019897,0.0510254-0.2549744v-0.1020203h0.0510254v-0.0509949
		c0,0,0-0.0509949,0.0509644-0.2550049l6.8339844-27.2339783c0,0,0.2040405-0.6119995,0.2040405-1.0710144
		c0,0,0-0.4590149-0.4590454-0.5610046c0,0-0.3059692-0.0509949-0.9689941-0.0509949h-1.9889526c0,0-5.2530518,0-7.19104,1.1730042
		c0,0-1.0709839,0.6119995-1.8869629,1.8869934l-0.0510254,0.0509949v0.0509949h-0.0510254
		c0,0-1.0709839,1.6830139-2.447998,5.6610107c0,0-0.3569946,0.9689941-0.6119995,1.019989
		c0,0-0.1019897,0.0510254-0.2549438,0.0510254c0,0-0.6119995,0-0.6119995-0.5610046c0,0,0-0.3059998,0.3059692-0.9179993
		l3.0599976-8.9760132c0,0,0.3060303-0.8670044,0.7139893-0.9689941c0,0,0.2550049-0.0509949,0.9180298-0.0509949h28.3049927
		c0,0,1.2749634,0,1.3770142,0.5610046c0,0,0,0.4589844-0.1020508,0.8669739l-1.3769531,8.8740234
		c0,0-0.1530151,1.0709839-0.7650146,1.1730042c0,0-0.6119995,0-0.6119995-0.6630249c0,0,0-0.3569946,0.1530151-0.9689941
		c0,0,0.407959-2.6520081,0.407959-4.0799866c0,0,0-2.9580078-2.0910034-3.7230225c0,0-1.3259888-0.4589844-5.3549805-0.4589844
		c0,0-2.7539673,0-3.2130127,0.1019897c0,0-0.6629639,0.1530151-0.9689941,1.1220093v0.0509949
		C565.9811401,415.1787415,565.8791504,415.4337463,565.7771606,415.8927612z"/>
</g>
</svg>
