<?xml version="1.0" encoding="utf-8"?>
<!-- Generator: Adobe Illustrator 19.0.0, SVG Export Plug-In . SVG Version: 6.00 Build 0)  -->
<svg version="1.1" id="Layer_1" xmlns="http://www.w3.org/2000/svg" xmlns:xlink="http://www.w3.org/1999/xlink" x="0px" y="0px"
	 viewBox="0 0 250 200" style="enable-background:new 0 0 250 200;" xml:space="preserve">
<style type="text/css">
	.st0{clip-path:url(#SVGID_2_);fill:#FEFEFE;}
	.st1{clip-path:url(#SVGID_2_);fill:#4D4D4D;}
	.st2{clip-path:url(#SVGID_2_);fill:#7171FE;}
	.st3{clip-path:url(#SVGID_2_);fill:#3C0E40;}
	.st4{clip-path:url(#SVGID_2_);fill:#141414;}
	.st5{clip-path:url(#SVGID_2_);fill:#441644;}
	.st6{clip-path:url(#SVGID_2_);fill:#421442;}
	.st7{clip-path:url(#SVGID_4_);}
</style>
<g>
	<defs>
		<rect id="SVGID_1_" width="250" height="200"/>
	</defs>
	<clipPath id="SVGID_2_">
		<use xlink:href="#SVGID_1_"  style="overflow:visible;"/>
	</clipPath>
	<path class="st0" d="M126,201c-40.5,0-81-0.0410004-121.5,0.0839996c-2.9830017,0.0090027-3.586998-0.602005-3.5830002-3.5839996
		c0.1090012-64.3330078,0.1090012-128.6670074,0-193C0.913002,1.5180054,1.5179977,0.9140015,4.5,0.9179993
		c81,0.1029968,162,0.1029968,243,0c2.9819946-0.0039978,3.5879974,0.6000061,3.5820007,3.5820007
		c-0.1080017,64.3329926-0.1080017,128.6669922,0,193c0.0059967,2.9819946-0.598999,3.5930023-3.5820007,3.5839996
		C207,200.9589996,166.5,201,126,201"/>
	<path class="st1" d="M126.0292969,104.0332031c33.2859955,0.1910019,66.5709991,0.5580063,99.8549957-0.1869965
		c0.6900024,1.2279968,0.0189972,1.8820038-1.0039978,2.3880005l-97.8720016-0.1549988
		C126.0982895,105.6762085,125.5812912,105.0862045,126.0292969,104.0332031"/>
	<path class="st2" d="M123.0487976,102.910202V21.5682068c0.6419983,0,1.2839966-0.0010071,1.9249954-0.0010071v81.3330078
		C124.3357925,103.5022049,123.6937943,103.5012054,123.0487976,102.910202"/>
	<path class="st2" d="M124.955101,107.9589996v66.7079926l-1.8490067,0.026001v-66.7859879
		C123.7370987,107.3950043,124.3540955,107.3820038,124.955101,107.9589996"/>
	<path class="st1" d="M80.8115005,106.2656021c-19.2290001,0-38.4580002,0.0010071-57.6870003,0.0020065
		c-0.6469994-0.6480026-0.6850014-1.3380051-0.1399994-2.0670013c19.3509979-0.0319977,38.7019997-0.064003,58.0529976-0.0960007
		C81.5774994,104.8886032,81.5304947,105.6126022,80.8115005,106.2656021"/>
	<path class="st3" d="M124.955101,107.9589996c-0.6160049-0.0179977-1.2320023-0.034996-1.8490067-0.0519943
		c-0.7319946-1.1170044-1.8689957-1.3010025-3.0649948-1.2910004c-11.6500015,0.0929947-23.3000031,0.1949997-34.9499969,0.2929993
		c0-1.5049973,1.1110001-1.3860016,2.0859985-1.3860016c10.8180008-0.0019989,21.635994-0.0250015,32.4539948-0.0049973
		c0.6780014,0.0009995,0.7290039,0.4589996,1.0169983,1.0039978c-0.5739975-1.8949966-1.9990005-0.9779968-2.9219971-0.9869995
		c-9.1529999-0.0830002-18.3079987,0.0090027-27.4599991-0.1139984c-1.3840027-0.0190048-3.3990021,1.2319946-4.1790009-1.2060013
		c10.6139984-0.0500031,21.2280045-0.0810013,31.8410034-0.1660004c1.7630005-0.0139999,3.7039948,0.5339966,5.1199951-1.1380005
		c0.6429977-0.0039978,1.2850037-0.0069962,1.927002-0.0110016c0.3499985,0.3769989,0.7019958,0.7550049,1.0540009,1.1330032
		c0.3259964,0.6829987,0.6539993,1.3639984,0.9789963,2.0459976
		C126.3230972,106.7060013,125.6400986,107.3320007,124.955101,107.9589996"/>
	<path class="st4" d="M86.0874023,104.214798c3.4639969,1.677002,7.1419983,0.6590042,10.7069931,0.739006
		c8.0450058,0.1809998,16.0980072,0.0569992,24.1440048,0.9229965c-10.2399979,0-20.4800034-0.0319977-30.7200012,0.0319977
		c-1.7340012,0.0110016-3.6910019-0.6879959-5.1289978,1.0010071c-1.7110062,1.6829987-3.0680008,1.010994-4.2779999-0.6440048
		c0.0749969-0.7210007,0.151001-1.4410019,0.2259979-2.1609955C82.767395,101.9818039,84.4263992,103.165802,86.0874023,104.214798"
		/>
	<path class="st5" d="M22.9848995,104.2002029c0.0459995,0.689003,0.0929985,1.378006,0.1399994,2.0670013
		c-1.3540001,1.362999-2.7460003,2.5500031-4.4969997,0.5620041c-0.7159996-0.814003-0.8950005-1.8010025-0.2299995-2.6949997
		C19.9178982,102.0862045,21.471899,102.9312057,22.9848995,104.2002029"/>
	<path class="st6" d="M224.8798981,106.2343979c0.3349915-0.7959976,0.67099-1.5929947,1.0049896-2.3889999
		c1.5149994-1.5629959,2.8700104-1.1669998,3.9029999,0.4860001c0.5410004,0.8660049,0.3440094,1.9070053-0.4079895,2.6660004
		C227.5468903,108.843399,226.2238922,107.421402,224.8798981,106.2343979"/>
</g>
<g>
	<path d="M22.6479492,122v-0.2871094c0.1953125-0.0390625,0.3408203-0.0820313,0.4365234-0.1289063
		s0.1669922-0.1123047,0.2138672-0.1962891s0.0703125-0.1962891,0.0703125-0.3369141
		c0-0.1328125-0.015625-0.2763672-0.046875-0.4306641s-0.0761719-0.3271484-0.1347656-0.5185547l-0.2167969-0.7558594h-2.7304688
		l-0.1992188,0.5742188c-0.1015625,0.2890625-0.1679688,0.5078125-0.1992188,0.65625s-0.046875,0.2832031-0.046875,0.4042969
		c0,0.234375,0.0595703,0.40625,0.1787109,0.515625s0.3017578,0.1816406,0.5478516,0.2167969V122H18.019043v-0.2871094
		c0.21875-0.0351563,0.4091797-0.1621094,0.5712891-0.3808594s0.3193359-0.53125,0.4716797-0.9375l2.4433594-6.4863281h0.9257813
		l1.9921875,6.5332031c0.09375,0.3046875,0.1767578,0.5371094,0.2490234,0.6972656s0.1591797,0.2851563,0.2607422,0.375
		s0.2402344,0.15625,0.4160156,0.1992188V122H22.6479492z M20.3979492,118.8359375h2.4492188l-1.1132813-3.7792969
		L20.3979492,118.8359375z"/>
</g>
<g>
	<path d="M129.7050781,122v-0.2871094c0.2421875-0.0625,0.4042969-0.1318359,0.4863281-0.2080078
		s0.1357422-0.1845703,0.1611328-0.3251953s0.0380859-0.3554688,0.0380859-0.6445313v-5.0683594
		c0-0.2695313-0.0097656-0.4658203-0.0292969-0.5888672s-0.0517578-0.21875-0.0966797-0.2871094
		s-0.1044922-0.1230469-0.1787109-0.1640625s-0.2011719-0.0869141-0.3808594-0.1376953v-0.2871094h3.2050781
		c0.6210938,0,1.1201172,0.0664063,1.4970703,0.1992188s0.6572266,0.3291016,0.8408203,0.5888672
		s0.2753906,0.5947266,0.2753906,1.0048828c0,0.3398438-0.0654297,0.6347656-0.1962891,0.8847656
		s-0.3017578,0.4570313-0.5126953,0.6210938S134.3320313,117.6171875,134,117.7578125v0.0527344
		c0.53125,0.1601563,0.9335938,0.4072266,1.2070313,0.7412109s0.4101563,0.7314453,0.4101563,1.1923828
		c0,0.53125-0.1181641,0.9648438-0.3544922,1.3007813s-0.5673828,0.5791016-0.9931641,0.7294922S133.328125,122,132.7226563,122
		H129.7050781z M132.5117188,117.5878906c0.59375,0,1.0478516-0.1435547,1.3623047-0.4306641
		s0.4716797-0.7041016,0.4716797-1.2509766c0-0.2695313-0.0439453-0.4931641-0.1318359-0.6708984
		s-0.2089844-0.3193359-0.3632813-0.4248047s-0.3369141-0.1806641-0.5478516-0.2255859s-0.4394531-0.0673828-0.6855469-0.0673828
		c-0.1484375,0-0.34375,0.0039063-0.5859375,0.0117188s-0.4238281,0.015625-0.5449219,0.0234375v3.0351563H132.5117188z
		 M131.4863281,121.4433594c0.2851563,0.0273438,0.6035156,0.0410156,0.9550781,0.0410156
		c0.5117188,0,0.9091797-0.0644531,1.1923828-0.1933594s0.4882813-0.3193359,0.6152344-0.5712891
		s0.1904297-0.5673828,0.1904297-0.9462891s-0.0693359-0.6914063-0.2080078-0.9375s-0.3525391-0.4296875-0.6416016-0.5507813
		s-0.6875-0.1816406-1.1953125-0.1816406h-0.9082031V121.4433594z"/>
</g>
<g>
	<path d="M83.1054688,114.171875v1.6230469h-0.5800781c-0.09375-0.3398438-0.2128906-0.6103516-0.3574219-0.8115234
		s-0.3125-0.3447266-0.5039063-0.4306641s-0.421875-0.1289063-0.6914063-0.1289063
		c-0.4023438,0-0.7607422,0.1337891-1.0751953,0.4013672s-0.5615234,0.6699219-0.7412109,1.2070313
		s-0.2695313,1.1865234-0.2695313,1.9482422c0,0.765625,0.0742188,1.4189453,0.2226563,1.9599609
		s0.3671875,0.9492188,0.65625,1.2246094s0.6445313,0.4130859,1.0664063,0.4130859
		c0.3203125,0,0.5820313-0.0458984,0.7851563-0.1376953s0.3740234-0.2373047,0.5126953-0.4365234
		s0.2705078-0.4921875,0.3955078-0.8789063h0.5800781v1.6757813c-0.3671875,0.0976563-0.7431641,0.1708984-1.1279297,0.2197266
		s-0.8076172,0.0732422-1.2685547,0.0732422c-0.9921875,0-1.7421875-0.3359375-2.25-1.0078125
		s-0.7617188-1.6738281-0.7617188-3.0058594c0-0.8359375,0.1318359-1.5683594,0.3955078-2.1972656
		s0.6513672-1.1152344,1.1630859-1.4589844s1.1230469-0.515625,1.8339844-0.515625
		c0.3554688,0,0.6835938,0.0185547,0.984375,0.0556641S82.71875,114.0703125,83.1054688,114.171875z"/>
</g>
<g>
	<path d="M229.5400391,122v-0.2871094c0.1953125-0.0390625,0.3408203-0.0820313,0.4365234-0.1289063
		s0.1669922-0.1123047,0.2138672-0.1962891s0.0703125-0.1962891,0.0703125-0.3369141
		c0-0.1328125-0.015625-0.2763672-0.046875-0.4306641s-0.0761719-0.3271484-0.1347656-0.5185547l-0.2167969-0.7558594h-2.7304688
		l-0.1992188,0.5742188c-0.1015625,0.2890625-0.1679688,0.5078125-0.1992188,0.65625s-0.046875,0.2832031-0.046875,0.4042969
		c0,0.234375,0.0595703,0.40625,0.1787109,0.515625s0.3017578,0.1816406,0.5478516,0.2167969V122h-2.5019531v-0.2871094
		c0.21875-0.0351563,0.4091797-0.1621094,0.5712891-0.3808594s0.3193359-0.53125,0.4716797-0.9375l2.4433594-6.4863281h0.9257813
		l1.9921875,6.5332031c0.09375,0.3046875,0.1767578,0.5371094,0.2490234,0.6972656s0.1591797,0.2851563,0.2607422,0.375
		s0.2402344,0.15625,0.4160156,0.1992188V122H229.5400391z M227.2900391,118.8359375h2.4492188l-1.1132813-3.7792969
		L227.2900391,118.8359375z"/>
	<path d="M233.1289063,113.6152344c0.046875,0.1289063,0.0830078,0.2695313,0.1083984,0.421875
		s0.0380859,0.2910156,0.0380859,0.4160156c0,0.2578125-0.0390625,0.4863281-0.1171875,0.6855469
		s-0.2021484,0.4013672-0.3720703,0.6064453s-0.4287109,0.4599609-0.7763672,0.7646484l-0.3574219-0.3515625
		c0.1914063-0.2304688,0.3320313-0.4638672,0.421875-0.7001953s0.1347656-0.5244141,0.1347656-0.8642578
		c0-0.1171875-0.0058594-0.2421875-0.0175781-0.375s-0.0410156-0.3339844-0.0878906-0.6035156H233.1289063z"/>
</g>
<g>
	<defs>
		<rect id="SVGID_3_" width="250" height="200"/>
	</defs>
	<clipPath id="SVGID_4_">
		<use xlink:href="#SVGID_3_"  style="overflow:visible;"/>
	</clipPath>
	<g class="st7">
		<path d="M132.421875,26.8300781c0.140625,0.234375,0.2587891,0.4394531,0.3544922,0.6152344
			s0.1943359,0.3730469,0.2958984,0.5917969h0.0761719c-0.0195313-0.2382813-0.0371094-0.7119141-0.0527344-1.4208984
			s-0.0234375-1.3486328-0.0234375-1.9189453v-1.2304688c0-0.2695313-0.0078125-0.4667969-0.0234375-0.5917969
			s-0.0439453-0.2207031-0.0849609-0.2871094s-0.0976563-0.1201172-0.1699219-0.1611328s-0.1982422-0.0869141-0.3779297-0.1376953
			v-0.2871094h2.109375v0.2871094c-0.1757813,0.046875-0.2998047,0.0898438-0.3720703,0.1289063
			s-0.1308594,0.0898438-0.1757813,0.1523438s-0.0791016,0.15625-0.1025391,0.28125s-0.0351563,0.3300781-0.0351563,0.6152344
			v6.5683594h-0.7324219L129.84375,24.5625c-0.203125-0.3398438-0.3476563-0.5878906-0.4335938-0.7441406
			s-0.1660156-0.3105469-0.2402344-0.4628906h-0.0996094c0.0273438,0.3007813,0.046875,0.8447266,0.0585938,1.6318359
			s0.0175781,1.5712891,0.0175781,2.3525391v1.1953125c0,0.2617188,0.0087891,0.453125,0.0263672,0.5742188
			s0.046875,0.2167969,0.0878906,0.2871094s0.1015625,0.1289063,0.1816406,0.1757813s0.2099609,0.09375,0.3896484,0.140625V30
			h-2.1386719v-0.2871094c0.2421875-0.0625,0.4042969-0.1318359,0.4863281-0.2080078s0.1357422-0.1845703,0.1611328-0.3251953
			s0.0380859-0.3554688,0.0380859-0.6445313v-5.0683594c0-0.2695313-0.0097656-0.4658203-0.0292969-0.5888672
			s-0.0517578-0.21875-0.0966797-0.2871094s-0.1044922-0.1230469-0.1787109-0.1640625s-0.2011719-0.0869141-0.3808594-0.1376953
			v-0.2871094h1.8339844L132.421875,26.8300781z"/>
	</g>
</g>
</svg>
