<?xml version="1.0" encoding="utf-8"?>
<!-- Generator: Adobe Illustrator 19.0.0, SVG Export Plug-In . SVG Version: 6.00 Build 0)  -->
<svg version="1.1" id="Layer_1" xmlns="http://www.w3.org/2000/svg" xmlns:xlink="http://www.w3.org/1999/xlink" x="0px" y="0px"
	 viewBox="0 0 926 785" style="enable-background:new 0 0 926 785;" xml:space="preserve">
<style type="text/css">
	.st0{clip-path:url(#SVGID_2_);fill:#FFFFFF;}
	
		.st1{clip-path:url(#SVGID_2_);fill:none;stroke:#000000;stroke-width:3;stroke-linecap:round;stroke-linejoin:round;stroke-miterlimit:10;}
	.st2{clip-path:url(#SVGID_2_);}
	
		.st3{clip-path:url(#SVGID_2_);fill:none;stroke:#000000;stroke-width:5;stroke-linecap:round;stroke-linejoin:round;stroke-miterlimit:10;}
	
		.st4{clip-path:url(#SVGID_2_);fill:none;stroke:#000000;stroke-width:5;stroke-linejoin:round;stroke-miterlimit:10;stroke-dasharray:12,8;}
	
		.st5{clip-path:url(#SVGID_2_);fill:none;stroke:#FF0000;stroke-width:5;stroke-linecap:round;stroke-linejoin:round;stroke-miterlimit:10;}
	
		.st6{clip-path:url(#SVGID_2_);fill:none;stroke:#003399;stroke-width:5;stroke-linecap:round;stroke-linejoin:round;stroke-miterlimit:10;}
</style>
<g>
	<defs>
		<rect id="SVGID_1_" width="926" height="785"/>
	</defs>
	<clipPath id="SVGID_2_">
		<use xlink:href="#SVGID_1_"  style="overflow:visible;"/>
	</clipPath>
	<polyline class="st0" points="0,0 926,0 926,785 0,785 0,0 	"/>
	<path class="st1" d="M834.4143677,982.7756958C109.3269119,655.1837769,109.3269119,327.5918884,834.4143677,0"/>
	<g class="st2">
		<path d="M738.8515625,912.7207031l1.0371094,0.1347656c-0.1132813,0.7148438-0.4033203,1.2744141-0.8701172,1.6787109
			s-1.0400391,0.6064453-1.7197266,0.6064453c-0.8515625,0-1.5361328-0.2783203-2.0537109-0.8349609
			s-0.7763672-1.3544922-0.7763672-2.3935547c0-0.671875,0.1113281-1.2597656,0.3339844-1.7636719
			s0.5615234-0.8818359,1.0166016-1.1337891s0.9501953-0.3779297,1.4853516-0.3779297
			c0.6757813,0,1.2285156,0.1708984,1.6582031,0.5126953s0.7050781,0.8271484,0.8261719,1.4560547l-1.0253906,0.1582031
			c-0.0976563-0.4179688-0.2705078-0.7324219-0.5185547-0.9433594s-0.5478516-0.3164063-0.8994141-0.3164063
			c-0.53125,0-0.9628906,0.1904297-1.2949219,0.5712891s-0.4980469,0.9833984-0.4980469,1.8076172
			c0,0.8359375,0.1601563,1.4433594,0.4804688,1.8222656s0.7382813,0.5683594,1.2539063,0.5683594
			c0.4140625,0,0.7597656-0.1269531,1.0371094-0.3808594S738.7773438,913.2480469,738.8515625,912.7207031z"/>
	</g>
	<g class="st2">
		<path d="M738.8515625,912.7207031l1.0371094,0.1347656c-0.1132813,0.7148438-0.4033203,1.2744141-0.8701172,1.6787109
			s-1.0400391,0.6064453-1.7197266,0.6064453c-0.8515625,0-1.5361328-0.2783203-2.0537109-0.8349609
			s-0.7763672-1.3544922-0.7763672-2.3935547c0-0.671875,0.1113281-1.2597656,0.3339844-1.7636719
			s0.5615234-0.8818359,1.0166016-1.1337891s0.9501953-0.3779297,1.4853516-0.3779297
			c0.6757813,0,1.2285156,0.1708984,1.6582031,0.5126953s0.7050781,0.8271484,0.8261719,1.4560547l-1.0253906,0.1582031
			c-0.0976563-0.4179688-0.2705078-0.7324219-0.5185547-0.9433594s-0.5478516-0.3164063-0.8994141-0.3164063
			c-0.53125,0-0.9628906,0.1904297-1.2949219,0.5712891s-0.4980469,0.9833984-0.4980469,1.8076172
			c0,0.8359375,0.1601563,1.4433594,0.4804688,1.8222656s0.7382813,0.5683594,1.2539063,0.5683594
			c0.4140625,0,0.7597656-0.1269531,1.0371094-0.3808594S738.7773438,913.2480469,738.8515625,912.7207031z"/>
	</g>
	<line class="st1" x1="179.5951385" y1="790" x2="179.5951385" y2="-5"/>
	<line class="st3" x1="401.602417" y1="491.3878479" x2="425.6029968" y2="246.5535278"/>
	<line class="st4" x1="179.5951385" y1="246.5535278" x2="401.602417" y2="491.3878479"/>
	<line class="st4" x1="179.5951385" y1="246.5535278" x2="425.6029968" y2="246.5535278"/>
	<line class="st3" x1="425.6029968" y1="246.5535278" x2="612.7927856" y2="246.5535278"/>
	<line class="st5" x1="425.6029968" y1="246.5535278" x2="556.2107544" y2="390.5905151"/>
	<line class="st6" x1="235.6621857" y1="418.7852783" x2="603.1431885" y2="85.5662231"/>
	<circle class="st2" cx="401.602417" cy="491.3878479" r="5"/>
	<circle class="st2" cx="425.6029968" cy="246.5535278" r="5"/>
	<circle class="st2" cx="179.5951385" cy="246.5535278" r="5"/>
	<path class="st2" d="M212.4838409,619.8075562l-7.0379944,28.1009521c0,0-0.3059998,1.4280396-0.3059998,2.2440186
		c0,0,0,1.8359985,1.1729889,1.8359985c0,0,2.1930084,0,3.4680023-5.0999756c0,0,0.3569946-1.4280396,0.4080048-1.4790039
		c0,0,0.2549896-0.2550049,1.0200043-0.2550049c0,0,1.223999,0,1.223999,0.7139893c0,0,0,0.40802-0.5610046,2.0910034
		c0,0-0.5610046,1.6829834-1.3769989,2.9580078c0,0-1.7850037,2.9069824-4.4369965,2.9069824c0,0-2.4990082,0-4.4370117-1.3259888
		c0,0-1.9379883-1.3259888-1.9379883-3.6719971c0,0,0-0.815979,0.2549896-1.7340088l6.5279999-26.1630249
		c0,0-0.6629944-0.1019897-2.1419983-0.1019897c0,0-1.326004,0-1.326004-0.9179688c0,0,0-0.6630249,0.3059998-1.0200195
		c0,0,0.3059998-0.3569946,0.5610046-0.40802c0,0,0.2550049-0.0509644,0.7649994-0.1019897l6.57901-0.3059692
		c0,0,0.1019897-0.0510254,0.3569946-0.0510254c0,0,1.121994,0,1.121994,0.9180298
		C212.6878357,618.9405518,212.6878357,619.0935059,212.4838409,619.8075562z"/>
	<path class="st2" d="M418.4529419,518.2747803l-3.1619873,12.6989746c0,0-0.20401,0.7650146-0.20401,1.1730347
		c0,0,0,0.7139893,0.6630249,0.8669434c0,0,0.3569946,0.1020508,0.9689941,0.1530151c0,0,1.2749939,0.1019897,2.6519775,0.1019897
		c0,0,1.2750244,0,1.428009,0.0510254l0.2550049,0.3569946c0,0,0.0509949,0.1019897,0.0509949,0.2039795
		c0,0,0,0.9690552-1.0709839,0.9690552l-7.5480042-0.1530151h-0.0509949l-6.6809998,0.1530151h-0.0510254
		c0,0-0.7649841,0-0.7649841-0.6120605c0,0,0-0.8669434,0.8160095-0.9689941h0.6119995c0,0,3.3150024,0,3.9779968-0.7139893
		c0,0,0.3059998-0.3569946,0.6119995-1.4279785c0,0,0-0.0510254,0.0509949-0.2550049l6.7319946-26.9789734
		c0,0,0.2550049-0.9179993,0.2550049-1.223999c0,0,0-0.8670044-2.3460083-0.9180298h-0.0509949h-0.9179993
		c0,0-1.3259888,0-1.428009-0.5609741c0,0,0-0.9179993,0.8160095-1.0200195h0.7139893h24.9900208
		c0,0,1.223999,0,1.3259888,0.3569946h0.0509949c0,0,0.1020203,0.3059998,0,1.0200195l-1.019989,8.822998
		c0,0-0.3569946,1.1730042-0.7140198,1.2749939c0,0-0.6119995,0-0.6119995-0.6119995c0,0,0-0.2550049,0.1020203-0.9179993
		c0,0,0.1529846-1.3770142,0.1529846-2.7539978c0,0,0-3.4169922-1.7339783-4.5390015l-0.0510254-0.0509949
		c0,0-1.6319885-1.0200195-5.6609802-1.0200195h-6.7319946c0,0-1.8870239,0-2.2440186,0.5610046h-0.0509949v0.0509949
		c0,0-0.1529846,0.20401-0.2550049,0.61203v0.0509949l-0.0509949,0.0509949c0,0-0.0509949,0.2039795-0.1529846,0.6629944
		l-3.2640076,12.95401h4.6409912c0,0,3.7229919,0,4.9980164-1.3770142l0.0509949-0.0510254
		c0,0,0.8670044-0.9689941,1.5299988-3.4679565c0,0,0.2550049-0.9690247,0.7649841-1.0710144c0,0,0.5610046,0,0.6119995,0.5610046
		c0,0,0,0.2550049-0.1529846,0.815979l-2.8049927,11.0670166c0,0-0.5100098,1.0199585-0.7650146,1.0709839
		c0,0-0.6119995,0-0.6119995-0.6119995c0,0,0-0.2039795,0.1529846-0.5609741c0,0,0.3570251-1.5300293,0.3570251-2.4990234
		c0,0,0-1.4790039-1.1220093-1.9379883c0,0-0.9689941-0.3569946-3.1109924-0.3569946H418.4529419z"/>
	<path class="st2" d="M418.1250305,203.5358887l-3.4680176,13.8720093h7.1910095c0,0,4.8450012,0,7.8540039-2.7030029
		c0,0,2.0910034-1.9379883,2.8559875-6.4769897v-0.0510254c0,0,0.1530151-0.9689941,0.1530151-1.6829834
		c0,0,0-4.8959961-6.9360046-4.8959961h-4.8959961c0,0-1.8359985,0-2.2440186,0.5100098v0.0509644h-0.0509949v0.0510254
		C418.5840149,202.2098999,418.3800049,202.5158691,418.1250305,203.5358887z M414.4530029,218.7338867L414.4530029,218.7338867
		l-3.1619873,12.75l-0.1530151,0.8670044c0,0,0,0.8670044,2.3460083,0.9180298h0.9689941c0,0,1.3260193,0,1.428009,0.5609741
		c0,0,0,1.0200195-1.019989,1.0200195l-3.2640076-0.1019897h-0.0509949l-3.1620178-0.0510254h-0.1019897l-6.4259949,0.1530151
		h-0.0509949c0,0-0.7650146,0-0.7650146-0.6119995c0,0,0-0.8670044,0.8160095-0.9689941h0.6119995
		c0,0,3.3150024,0,3.9779968-0.7140503c0,0,0.3059998-0.3569946,0.6119995-1.4279785c0,0,0-0.0509644,0.0509949-0.2550049
		l6.8340149-27.3870239c0,0,0.2039795-0.815979,0.2039795-0.9689941c0,0,0-0.6119995-0.815979-0.7650146h-0.0509949
		c0,0-0.1020203-0.0509644-0.2550049-0.0509644c0,0-1.223999-0.1019897-2.1930237-0.1019897c0,0-1.3259888,0-1.4279785-0.40802
		c0,0-0.0509949-0.1019897-0.0509949-0.2039795c0,0,0-0.8670044,0.8669739-0.9689941h0.6630249h16.5239868
		c0,0,6.17099,0,8.822998,3.7739868c0,0,1.223999,1.7850342,1.223999,3.927002c0,0,0,4.1309814-4.2330017,7.4970093
		c0,0-4.4880066,3.5189819-10.0979919,3.5189819H414.4530029"/>
	<path class="st2" d="M142.1247559,223.5768433l-3.4680023,13.8720093h7.1910095c0,0,4.844986,0,7.8539886-2.7030029
		c0,0,2.0910034-1.9379883,2.8560028-6.4769897v-0.0510254c0,0,0.1529999-0.9689941,0.1529999-1.6829834
		c0,0,0-4.8959961-6.9360046-4.8959961h-4.8959961c0,0-1.8359985,0-2.2440033,0.5100098v0.0509644h-0.0509949v0.0510254
		C142.5837555,222.2508545,142.3797607,222.5568237,142.1247559,223.5768433z M138.4527588,238.7748413L138.4527588,238.7748413
		l-3.1620026,12.75l-0.1529999,0.8670044c0,0,0,0.8670044,2.345993,0.9179688h0.9690094c0,0,1.326004,0,1.4279938,0.5610352
		c0,0,0,1.0200195-1.0200043,1.0200195l-3.2639923-0.1020508h-0.0509949l-3.1620026-0.0509644h-0.102005l-6.4259949,0.1530151
		h-0.0510025c0,0-0.7649994,0-0.7649994-0.6120605c0,0,0-0.8669434,0.8160019-0.9689941h0.6119995
		c0,0,3.3150024,0,3.9779968-0.7139893c0,0,0.3059998-0.3569946,0.6119995-1.4279785c0,0,0-0.0510254,0.0509949-0.2550049
		l6.8339996-27.3869629c0,0,0.20401-0.81604,0.20401-0.9690552c0,0,0-0.6119995-0.8160095-0.7649536h-0.0509949
		c0,0-0.102005-0.0510254-0.2550049-0.0510254c0,0-1.223999-0.1019897-2.1929932-0.1019897c0,0-1.326004,0-1.4279938-0.40802
		c0,0-0.0510101-0.1019897-0.0510101-0.2039795c0,0,0-0.8670044,0.8670044-0.9689941h0.6629944h16.5240021
		c0,0,6.1710052,0,8.822998,3.7739868c0,0,1.223999,1.7849731,1.223999,3.927002c0,0,0,4.1309814-4.2330017,7.4970093
		c0,0-4.4879913,3.5189819-10.0979919,3.5189819H138.4527588"/>
	<path class="st2" d="M171.929657,216.7331543l-6.3902893,14.9940186c0,0-0.2142029,0.4997559-0.4640961,0.4997559
		c0,0-0.6426086,0-1.0710144-0.3927002c0,0-0.1427917-0.1070557-0.1427917-0.2498779c0,0,0-0.0714111,0.1071014-0.4997559
		l4.3197021-15.5652466c0,0,0.4640961-1.4636841,1.5708008-1.6065063c0,0,0.1784973-0.0357056,0.3212891-0.0357056
		c0,0,1.2138062,0,1.7850037,1.0353394c0,0,0.2142029,0.3927002,0.2142029,0.8210449
		C172.1795654,215.7335205,172.1795654,216.1976318,171.929657,216.7331543z"/>
	<path class="st2" d="M238.776886,435.8929138l-6.7830048,27.0809937c0,0-0.2039948,0.7649841-0.2039948,1.0709839
		c0,0,0,0.7650146,0.8159943,0.9689941h0.0510101c0,0,0.3569946,0.1020203,1.019989,0.1530151
		c0,0,1.326004,0.1019897,3.2640076,0.1019897c0,0,1.5809937,0,1.6829987,0.3059998c0,0,0.0509949,0.1020203,0.0509949,0.2550049
		c0,0-0.2039948,0.9689941-1.121994,1.0200195l-4.3860016-0.1020203h-0.0509949l-4.131012-0.0509949h-0.1019897
		l-4.2330017,0.0509949h-0.102005l-4.1309967,0.1020203h-0.0509949c0,0-0.8670044,0-0.8670044-0.61203
		c0,0,0-0.7649841,0.5610046-0.9179993c0,0,0.3569946-0.0509949,1.5809937-0.0509949c0,0,4.5390015,0,5.4060059-0.8670044
		c0,0,0.3059998-0.3059998,0.5099945-0.9179993c0,0,0-0.1019897,0.0509949-0.2549744v-0.1020203h0.0510101v-0.0509949
		c0,0,0-0.0509949,0.0509949-0.2550049l6.8339996-27.2339783c0,0,0.2039948-0.6119995,0.2039948-1.0710144
		c0,0,0-0.4590149-0.4589996-0.5610046c0,0-0.3059998-0.0509949-0.9689941-0.0509949h-1.9889984c0,0-5.253006,0-7.1909943,1.1730042
		c0,0-1.0710144,0.6119995-1.8870087,1.8869934l-0.0509949,0.0509949v0.0509949h-0.0510101
		c0,0-1.0709991,1.6830139-2.447998,5.6610107c0,0-0.3569946,0.9689941-0.6119995,1.019989
		c0,0-0.1019897,0.0510254-0.2549896,0.0510254c0,0-0.6119995,0-0.6119995-0.5610046c0,0,0-0.3059998,0.3059998-0.9179993
		l3.0599976-8.9760132c0,0,0.3059998-0.8670044,0.7139893-0.9689941c0,0,0.2550049-0.0509949,0.9179993-0.0509949h28.3050079
		c0,0,1.2749939,0,1.3769989,0.5610046c0,0,0,0.4589844-0.102005,0.8669739l-1.3769989,8.8740234
		c0,0-0.1529999,1.0709839-0.7649994,1.1730042c0,0-0.6119995,0-0.6119995-0.6630249c0,0,0-0.3569946,0.1529999-0.9689941
		c0,0,0.4080048-2.6520081,0.4080048-4.0799866c0,0,0-2.9580078-2.0910034-3.7230225c0,0-1.326004-0.4589844-5.3549957-0.4589844
		c0,0-2.7539978,0-3.2129974,0.1019897c0,0-0.6630096,0.1530151-0.9690094,1.1220093v0.0509949
		C238.9808807,435.178894,238.878891,435.4338989,238.776886,435.8929138z"/>
</g>
</svg>
