<?xml version="1.0" encoding="UTF-8" standalone="no"?>
<!DOCTYPE svg PUBLIC "-//W3C//DTD SVG 1.1//EN" "http://www.w3.org/Graphics/SVG/1.1/DTD/svg11.dtd">
<svg xmlns="http://www.w3.org/2000/svg" xmlns:xlink="http://www.w3.org/1999/xlink" version="1.1" width="342.96pt" height="152.04pt" viewBox="0 0 342.96 152.04">
<g enable-background="new">
<g>
<g id="Layer-1" data-name="P">
<clipPath id="cp0">
<path transform="matrix(1,0,0,-1,0,152.04)" d="M .000005111 -.000015259 L 342.96 -.000015259 L 342.96 152.03998 L .000005111 152.03998 Z " fill-rule="evenodd"/>
</clipPath>
<g clip-path="url(#cp0)">
<text xml:space="preserve" transform="matrix(1 0 -0 1 0 152.04)" font-size="11.04" font-family="Calibri"><tspan y="-.12" x="342.72"> </tspan></text>
</g>
</g>
<g id="Layer-1" data-name="P">
<clipPath id="cp1">
<path transform="matrix(1,0,0,-1,0,152.04)" d="M .000005111 .24005 L 342.55 .24005 L 342.55 152.04006 L .000005111 152.04006 Z " fill-rule="evenodd"/>
</clipPath>
<g clip-path="url(#cp1)">
<clipPath id="cp2">
<path transform="matrix(.06657785,0,0,-.06640091,0,151.79998)" d="M 0 0 L 5144.99 0 L 5144.99 2286.07 L 0 2286.07 Z " fill-rule="evenodd"/>
</clipPath>
<g clip-path="url(#cp2)">
<path transform="matrix(.06657785,0,0,-.06640091,0,151.79998)" stroke-width="15" stroke-linecap="round" stroke-linejoin="round" fill="none" stroke="#000000" d="M 2973.75 562.51 C 2973.75 313.98 2772.28 112.51 2523.75 112.51 C 2275.22 112.51 2073.75 313.98 2073.75 562.51 C 2073.75 811.04 2275.22 1012.51 2523.75 1012.51 C 2772.28 1012.51 2973.75 811.04 2973.75 562.51 Z "/>
<path transform="matrix(.06657785,0,0,-.06640091,0,151.79998)" d="M 3009.75 562.51 C 3009.75 542.63 2993.63 526.51 2973.75 526.51 C 2953.87 526.51 2937.75 542.63 2937.75 562.51 C 2937.75 582.39 2953.87 598.51 2973.75 598.51 C 2993.63 598.51 3009.75 582.39 3009.75 562.51 Z " fill-rule="evenodd"/>
<path transform="matrix(.06657785,0,0,-.06640091,0,151.79998)" d="M 2997.75 562.51 C 2997.75 549.25 2987 538.51 2973.75 538.51 C 2960.49 538.51 2949.75 549.25 2949.75 562.51 C 2949.75 575.76 2960.49 586.51 2973.75 586.51 C 2987 586.51 2997.75 575.76 2997.75 562.51 Z " fill="#ffffff" fill-rule="evenodd"/>
<path transform="matrix(.06657785,0,0,-.06640091,0,151.79998)" stroke-width="15" stroke-linecap="round" stroke-linejoin="round" fill="none" stroke="#000000" d="M 112.5 1935.01 L 5032.5 1935.01 "/>
<path transform="matrix(.06657785,0,0,-.06640091,0,151.79998)" d="M 2531.25 1728.76 L 2531.25 1244.89 L 2516.25 1244.89 L 2516.25 1728.76 C 2516.25 1732.9 2519.61 1736.26 2523.75 1736.26 C 2527.89 1736.26 2531.25 1732.9 2531.25 1728.76 Z M 2523.75 1125.01 L 2568.75 1275.01 L 2531.25 1245.01 L 2516.25 1245.01 L 2478.75 1275.01 Z " fill="#9900ff"/>
<clipPath id="cp3">
<path transform="matrix(1.3315948,0,0,-1.3280301,170.67632,64.92634)" d="M 0 0 L 40.269 0 L 40.269 12.606 L 0 12.606 Z " fill-rule="evenodd"/>
</clipPath>
<g clip-path="url(#cp3)">
<path transform="matrix(1.3315948,0,0,-1.3280301,170.67632,64.92634)" d="M 4.7126 6.6896 L 4.2506 6.275 L 3.9655 6.5859 C 3.7755 6.3311 3.551 6.0764 3.2897 5.8259 L 3.2897 2.6821 L 2.5772 2.6821 L 2.5772 5.2386 C 2.3397 5.0529 2.0568 4.8672 1.7243 4.6859 L 1.4026 5.4113 C 2.2576 5.8475 2.9464 6.411 3.4668 7.1041 L 3.8943 6.8278 C 4.5831 7.4021 5.0106 7.9311 5.1747 8.4169 L 2.4001 8.4169 L 2.4001 9.6951 L 4.2851 9.6951 L 4.2851 10.11 L 1.6531 10.11 L 1.6531 10.662 L 9.303 10.662 L 9.303 10.11 L 6.7401 10.11 L 6.7401 9.6951 L 8.6618 9.6951 L 8.6618 8.4169 L 5.708 8.4169 L 5.9218 8.3133 C 6.0168 8.2183 5.9822 8.1621 5.816 8.1405 L 5.6735 7.9678 L 9.3743 7.9678 L 9.3743 7.5532 L 5.4597 7.5532 L 5.1034 7.1732 L 8.6618 7.1732 L 8.6618 5.1004 L 6.5285 5.1004 L 6.2068 4.6859 L 8.1652 4.6859 L 8.271 4.7895 L 8.6618 4.4786 C 8.8043 4.362 8.7805 4.2929 8.5905 4.2713 C 8.2602 3.9928 7.9039 3.7617 7.5239 3.5804 C 8.1414 3.4638 8.8755 3.3839 9.7306 3.3385 L 9.5168 2.7512 C 8.4027 2.7728 7.5368 2.9348 6.9193 3.2349 C 6.0427 2.8419 5.0214 2.6476 3.8597 2.6476 L 3.6805 3.2003 C 4.6068 3.2003 5.4381 3.3256 6.1722 3.5804 C 6.006 3.6926 5.7922 3.8783 5.531 4.1331 C 5.1034 3.8783 4.5701 3.671 3.9288 3.5113 L 3.7518 4.0986 C 4.5593 4.2799 5.2114 4.6146 5.708 5.1004 L 4.7126 5.1004 Z M 6.1355 4.2713 C 6.3514 4.0856 6.589 3.9474 6.8481 3.8567 C 7.1331 3.9474 7.4073 4.0856 7.6664 4.2713 L 6.1355 4.2713 Z M 6.1355 10.11 L 4.8897 10.11 L 4.8897 9.6951 L 6.1355 9.6951 Z M 8.0572 9.2806 L 6.7401 9.2806 L 6.7401 8.8315 L 8.0572 8.8315 Z M 6.1355 9.2806 L 4.8897 9.2806 L 4.8897 8.8315 L 6.1355 8.8315 Z M 4.2851 9.2806 L 3.0047 9.2806 L 3.0047 8.8315 L 4.2851 8.8315 Z M 3.646 7.8642 C 3.7885 7.7476 3.7539 7.7001 3.538 7.726 C 3.1364 7.2855 2.5794 6.8709 1.8668 6.4823 L 1.5106 7.1387 C 2.1993 7.4129 2.7327 7.7821 3.1105 8.2442 Z M 8.0572 6.7587 L 5.3172 6.7587 L 5.3172 6.3441 L 8.0572 6.3441 Z M 8.0572 5.9295 L 5.3172 5.9295 L 5.3172 5.515 L 8.0572 5.515 Z " fill="#9900ff" fill-rule="evenodd"/>
<path transform="matrix(1.3315948,0,0,-1.3280301,170.67632,64.92634)" d="M 12.046 3.8913 L 12.046 3.4767 L 15.499 3.4767 L 15.499 3.8913 Z M 16.138 3.4767 L 17.917 3.4767 L 17.917 2.8894 L 9.6971 2.8894 L 9.6971 3.4767 L 11.405 3.4767 L 11.405 5.8259 L 16.138 5.8259 Z M 15.499 5.0313 L 15.499 5.3768 L 12.046 5.3768 L 12.046 5.0313 Z M 12.046 4.6513 L 12.046 4.3058 L 15.499 4.3058 L 15.499 4.6513 Z M 17.669 5.515 L 16.956 5.515 L 16.956 6.1714 L 10.552 6.1714 L 10.552 5.4113 L 9.8396 5.4113 L 9.8396 6.6896 L 17.669 6.6896 Z M 13.862 8.2787 L 13.862 8.6587 L 16.779 8.6587 L 16.922 8.7624 L 17.526 8.3824 L 17.349 8.2787 C 17.112 8.093 16.816 7.8966 16.46 7.6914 C 16.792 7.5748 17.112 7.4474 17.42 7.3114 L 17.064 6.8278 C 16.615 7.0782 16.235 7.251 15.924 7.346 C 15.356 7.1128 14.646 6.9184 13.791 6.7587 L 13.577 7.1732 C 14.29 7.3093 14.858 7.4582 15.285 7.6223 C 15.071 7.6893 14.763 7.7692 14.359 7.8642 L 14.573 8.2096 C 14.905 8.1384 15.333 8.0455 15.853 7.9333 C 16.164 8.0693 16.378 8.1837 16.494 8.2787 Z M 12.046 7.9333 C 12.379 8.0693 12.606 8.1837 12.722 8.2787 L 10.053 8.2787 L 10.053 8.6587 L 12.973 8.6587 L 13.113 8.7624 L 13.72 8.3824 L 13.54 8.2787 C 13.303 8.093 13.007 7.8966 12.651 7.6914 C 12.912 7.5964 13.137 7.5057 13.327 7.4151 L 12.973 6.9314 C 12.64 7.1365 12.344 7.2747 12.083 7.346 C 11.56 7.1365 10.861 6.953 9.9821 6.7932 L 9.7338 7.2078 C 10.494 7.3438 11.075 7.482 11.476 7.6223 C 11.265 7.6893 10.956 7.7692 10.552 7.8642 L 10.766 8.2096 C 11.098 8.1384 11.524 8.0455 12.046 7.9333 Z M 14.11 9.2115 C 13.353 9.002 12.31 8.8401 10.98 8.7278 L 10.8 9.1424 C 11.988 9.2093 12.806 9.313 13.255 9.4533 C 12.735 9.5893 12.236 9.693 11.761 9.7642 L 11.975 10.075 C 12.783 9.9802 13.493 9.8657 14.11 9.7297 C 14.609 9.8895 14.976 10.038 15.214 10.179 L 11.014 10.179 L 11.014 10.628 L 15.782 10.628 L 15.924 10.766 L 16.494 10.213 L 16.246 10.144 C 15.961 10.004 15.499 9.7966 14.858 9.5224 C 15.214 9.4274 15.628 9.2892 16.103 9.1078 L 15.71 8.7278 C 15.166 8.9092 14.633 9.0711 14.11 9.2115 Z " fill="#9900ff" fill-rule="evenodd"/>
<path transform="matrix(1.3315948,0,0,-1.3280301,170.67632,64.92634)" d="M 20.127 3.5458 C 21.695 3.9345 22.595 4.8111 22.832 6.1714 L 20.697 6.1714 L 20.697 6.8278 L 21.373 6.8278 L 21.373 9.2806 L 22.904 9.2806 L 22.904 10.732 L 23.58 10.732 C 23.77 10.706 23.783 10.637 23.614 10.524 L 23.614 9.2806 L 25.216 9.2806 L 25.216 6.8278 L 25.963 6.8278 L 25.963 6.1714 L 23.685 6.1714 C 24.137 5.0184 24.992 4.2108 26.248 3.7531 L 25.855 3.0276 C 24.67 3.5566 23.828 4.362 23.329 5.4459 C 22.904 4.1547 21.967 3.2802 20.518 2.8203 Z M 22.904 8.6242 L 22.085 8.6242 L 22.085 6.8278 L 22.904 6.8278 Z M 24.504 6.8278 L 24.504 8.6242 L 23.614 8.6242 L 23.614 6.8278 Z M 18.134 3.684 L 18.134 9.9715 L 20.483 9.9715 L 20.483 4.2367 L 18.847 4.2367 L 18.847 3.684 Z M 19.771 7.5187 L 19.771 9.3151 L 18.847 9.3151 L 18.847 7.5187 Z M 19.771 4.8931 L 19.771 6.8623 L 18.847 6.8623 L 18.847 4.8931 Z " fill="#9900ff" fill-rule="evenodd"/>
<path transform="matrix(1.3315948,0,0,-1.3280301,170.67632,64.92634)" d="M 31.198 7.2769 C 31.555 6.8148 31.85 6.18 32.088 5.3768 L 31.41 5.0313 C 31.27 5.7438 31.008 6.3765 30.628 6.9314 Z M 29.844 3.4422 C 29.844 3.0967 29.691 2.924 29.382 2.924 L 28.564 2.924 L 28.422 3.4767 L 29.134 3.4767 C 29.205 3.4767 29.24 3.5221 29.24 3.6149 L 29.24 5.2041 C 28.53 4.4419 27.569 3.7855 26.357 3.2349 L 26.109 3.8567 C 27.344 4.3836 28.305 5.0529 28.992 5.8604 L 26.608 5.4459 C 26.513 5.2602 26.431 5.2472 26.357 5.4113 L 26.18 6.1368 L 26.891 6.1714 L 26.891 9.7988 L 27.852 9.7988 L 28.065 10.732 L 28.812 10.662 C 28.981 10.637 28.968 10.567 28.778 10.455 L 28.53 9.7988 L 29.844 9.7988 L 29.844 6.8623 L 30.309 6.5168 C 30.19 6.3311 30.034 6.1109 29.844 5.8604 L 29.844 3.4422 Z M 33.189 3.5113 C 33.189 3.142 33.001 2.9585 32.621 2.9585 L 31.732 2.9585 L 31.589 3.6149 L 32.336 3.6149 C 32.431 3.6127 32.479 3.6581 32.479 3.7531 L 32.479 8.0714 L 30.201 8.0714 L 30.201 8.7278 L 32.479 8.7278 L 32.479 10.49 L 33.154 10.49 C 33.344 10.464 33.357 10.395 33.189 10.282 L 33.189 8.7278 L 34.329 8.7278 L 34.329 8.0714 L 33.189 8.0714 Z M 29.24 6.4132 L 29.24 7.035 L 27.497 7.035 L 27.497 6.2405 Z M 27.497 8.1405 L 27.497 7.5878 L 29.24 7.5878 L 29.24 8.1405 Z M 29.24 8.6933 L 29.24 9.246 L 27.497 9.246 L 27.497 8.6933 Z " fill="#9900ff" fill-rule="evenodd"/>
<path transform="matrix(1.3315948,0,0,-1.3280301,170.67632,64.92634)" d="M 38.663 5.7136 C 38.663 5.4621 38.623 5.2153 38.544 4.9734 C 38.464 4.7312 38.332 4.518 38.148 4.3335 C 37.963 4.149 37.751 4.0155 37.513 3.933 C 37.274 3.8506 37.026 3.8096 36.767 3.8096 C 36.595 3.8096 36.434 3.8376 36.286 3.894 C 36.138 3.95 36.042 3.9951 35.999 4.0295 L 35.999 2.8164 L 36.569 2.8164 L 36.569 2.2943 C 36.342 2.3021 36.144 2.3073 35.972 2.31 C 35.801 2.3124 35.628 2.3139 35.453 2.3139 C 35.275 2.3139 35.101 2.3124 34.929 2.31 C 34.758 2.3073 34.56 2.3021 34.337 2.2943 L 34.337 2.8164 L 34.907 2.8164 L 34.907 6.9424 C 34.907 6.9763 34.896 6.9971 34.875 7.0052 C 34.831 7.0128 34.762 7.018 34.666 7.0207 C 34.571 7.0231 34.461 7.0246 34.337 7.0248 L 34.337 7.547 L 35.954 7.6216 L 35.954 7.3507 C 36.019 7.4002 36.142 7.4569 36.324 7.5212 C 36.506 7.5852 36.698 7.6174 36.9 7.6176 C 37.14 7.6174 37.374 7.5735 37.6 7.4859 C 37.826 7.398 38.023 7.2653 38.19 7.0876 C 38.36 6.8911 38.482 6.6752 38.554 6.4396 C 38.627 6.2041 38.663 5.9619 38.663 5.7136 Z M 37.466 5.7136 C 37.466 5.9124 37.453 6.1025 37.426 6.2846 C 37.399 6.4664 37.341 6.6399 37.252 6.805 C 37.196 6.9095 37.13 6.9937 37.054 7.058 C 36.979 7.122 36.895 7.1541 36.803 7.1544 C 36.639 7.1541 36.485 7.1149 36.342 7.0364 C 36.199 6.9578 36.085 6.8597 35.999 6.7422 L 35.999 4.6694 C 36.08 4.5462 36.181 4.4446 36.302 4.3649 C 36.423 4.2849 36.559 4.2451 36.71 4.2454 C 36.815 4.2451 36.914 4.2778 37.005 4.3433 C 37.097 4.4085 37.17 4.4937 37.224 4.5987 C 37.321 4.7633 37.386 4.94 37.418 5.1284 C 37.45 5.3169 37.466 5.5119 37.466 5.7136 Z " fill="#9900ff" fill-rule="evenodd"/>
</g>
<path transform="matrix(.06657785,0,0,-.06640091,0,151.79998)" stroke-width="15" stroke-linecap="round" stroke-linejoin="round" fill="none" stroke="#00ff00" d="M 2523.75 1012.51 C 2772.28 1012.51 2973.75 811.04 2973.75 562.51 "/>
<clipPath id="cp4">
<path transform="matrix(1.331605,0,0,-1.3280301,163.0445,21.724579)" d="M 0 0 L 6.7322 0 L 6.7322 12.606 L 0 12.606 Z " fill-rule="evenodd"/>
</clipPath>
<g clip-path="url(#cp4)">
<path transform="matrix(1.331605,0,0,-1.3280301,163.0445,21.724579)" d="M 5.1943 6.5983 C 5.1943 6.2287 5.1686 5.8613 5.1171 5.4958 C 5.0657 5.1303 4.9382 4.7872 4.7348 4.4669 C 4.5896 4.2331 4.3953 4.0538 4.1522 3.9283 C 3.9093 3.8025 3.6451 3.7397 3.3597 3.7397 C 3.0851 3.7397 2.8254 3.8025 2.5811 3.9283 C 2.3368 4.0538 2.1418 4.2331 1.9965 4.4669 C 1.7931 4.7872 1.6657 5.1303 1.6142 5.4958 C 1.5627 5.8613 1.5368 6.2287 1.5368 6.5983 C 1.5368 6.9724 1.5627 7.3463 1.6142 7.7195 C 1.6657 8.0927 1.7931 8.4421 1.9965 8.7681 C 2.1418 9.0038 2.336 9.1872 2.5791 9.318 C 2.8222 9.4488 3.0824 9.5142 3.3597 9.5145 C 3.6424 9.5142 3.906 9.4488 4.1503 9.318 C 4.3946 9.1872 4.5896 9.0038 4.7348 8.7681 C 4.9382 8.4421 5.0657 8.0927 5.1171 7.7195 C 5.1686 7.3463 5.1943 6.9724 5.1943 6.5983 Z M 4.4097 6.7329 C 4.4097 6.8943 4.4085 7.0647 4.4059 7.2444 C 4.4032 7.4237 4.3965 7.5995 4.3859 7.7714 C 4.3753 7.9431 4.3563 8.1054 4.3284 8.2581 C 4.3008 8.4106 4.2671 8.5409 4.2275 8.6488 C 4.1483 8.8229 4.0322 8.966 3.8788 9.0776 C 3.7256 9.1891 3.5525 9.2449 3.3597 9.2452 C 3.1721 9.2449 3.0026 9.1884 2.8506 9.0757 C 2.6987 8.9626 2.583 8.8205 2.5036 8.6488 C 2.4642 8.5409 2.4305 8.4106 2.4027 8.2581 C 2.375 8.1054 2.3558 7.9431 2.3452 7.7714 C 2.3346 7.5995 2.3281 7.4237 2.3255 7.2444 C 2.3228 7.0647 2.3214 6.8943 2.3214 6.7329 C 2.3214 6.5531 2.3228 6.3638 2.3255 6.1652 C 2.3281 5.9663 2.3346 5.774 2.3452 5.5881 C 2.3558 5.402 2.375 5.2257 2.4027 5.0591 C 2.4305 4.8922 2.4642 4.7525 2.5036 4.64 C 2.5777 4.4524 2.6922 4.2986 2.8465 4.1781 C 3.0011 4.0574 3.1721 3.9973 3.3597 3.9975 C 3.5554 3.9973 3.7304 4.0574 3.8848 4.1781 C 4.0394 4.2986 4.1536 4.4524 4.2275 4.64 C 4.2671 4.7525 4.3008 4.8922 4.3284 5.0591 C 4.3563 5.2257 4.3753 5.402 4.3859 5.5881 C 4.3965 5.774 4.4032 5.9663 4.4059 6.1652 C 4.4085 6.3638 4.4097 6.5531 4.4097 6.7329 Z " fill-rule="evenodd"/>
</g>
<clipPath id="cp5">
<path transform="matrix(1.3315598,0,0,-1.3280301,210.99787,21.724579)" d="M 0 0 L 5.9559 0 L 5.9559 12.606 L 0 12.606 Z " fill-rule="evenodd"/>
</clipPath>
<g clip-path="url(#cp5)">
<path transform="matrix(1.3315598,0,0,-1.3280301,210.99787,21.724579)" d="M 4.424 3.9206 C 3.9381 3.9359 3.4651 3.9436 3.0054 3.9436 C 2.5459 3.9436 2.0729 3.9359 1.5867 3.9206 L 1.5867 4.2514 L 1.8603 4.2514 C 1.9474 4.2512 2.0294 4.2524 2.1058 4.255 C 2.1825 4.2574 2.2551 4.2639 2.3239 4.2743 C 2.3927 4.2844 2.4521 4.2947 2.5021 4.3053 C 2.5444 4.3127 2.5795 4.3363 2.6072 4.3762 C 2.6351 4.4159 2.6488 4.4601 2.6488 4.5092 L 2.6488 8.8451 C 2.5168 8.7806 2.3542 8.7318 2.1614 8.6986 C 1.9685 8.6652 1.7572 8.6486 1.5273 8.6488 L 1.5273 8.9759 C 1.8444 8.9756 2.1371 9.0134 2.4052 9.0891 C 2.6733 9.1646 2.9051 9.3065 3.1006 9.5145 L 3.2235 9.5145 C 3.3105 9.5142 3.354 9.4719 3.354 9.3875 L 3.354 4.5092 C 3.354 4.4577 3.3672 4.4128 3.3937 4.3743 C 3.4201 4.3358 3.4586 4.3127 3.5086 4.3053 C 3.551 4.2947 3.6053 4.2844 3.6712 4.2743 C 3.7373 4.2639 3.8118 4.2574 3.895 4.255 C 3.9782 4.2524 4.0595 4.2512 4.1386 4.2514 L 4.424 4.2514 L 4.424 3.9206 Z " fill-rule="evenodd"/>
</g>
<clipPath id="cp6">
<path transform="matrix(1.3315532,0,0,-1.3280301,257.53913,21.724579)" d="M 0 0 L 6.5501 0 L 6.5501 12.606 L 0 12.606 Z " fill-rule="evenodd"/>
</clipPath>
<g clip-path="url(#cp6)">
<path transform="matrix(1.3315532,0,0,-1.3280301,257.53913,21.724579)" d="M 4.7604 3.9206 L 1.5349 3.9206 L 1.5349 4.1322 C 1.5349 4.1473 1.5429 4.1704 1.5587 4.2014 L 2.8545 5.6095 C 3.0077 5.7785 3.1628 5.9517 3.3201 6.1286 C 3.4773 6.3056 3.6182 6.4864 3.7423 6.6711 C 3.8664 6.8558 3.9654 7.0462 4.0395 7.2424 C 4.1136 7.4386 4.1503 7.6445 4.1503 7.8602 C 4.1503 8.0419 4.1265 8.2119 4.0789 8.3697 C 4.0313 8.5274 3.9628 8.6659 3.8729 8.7852 C 3.7832 8.9045 3.6709 9.0006 3.5362 9.0737 C 3.4016 9.1468 3.2455 9.1834 3.0685 9.1836 C 2.8045 9.1834 2.5713 9.1045 2.3691 8.9468 C 2.1671 8.789 2.0329 8.6152 1.9668 8.4257 C 1.9538 8.4204 1.975 8.4178 2.0303 8.418 L 2.0976 8.418 C 2.1769 8.3997 2.2455 8.3721 2.3037 8.3351 C 2.3618 8.2978 2.4107 8.2466 2.4503 8.1812 C 2.49 8.1158 2.5097 8.0369 2.5097 7.9448 C 2.5097 7.7907 2.4597 7.6726 2.3592 7.5906 C 2.2587 7.5084 2.1464 7.4675 2.0223 7.4677 C 1.9035 7.4675 1.7925 7.5084 1.6895 7.5906 C 1.5866 7.6726 1.5349 7.7907 1.5349 7.9448 C 1.5349 8.16 1.5772 8.3639 1.6619 8.5563 C 1.7465 8.7486 1.8612 8.9153 2.0065 9.0564 C 2.1517 9.1973 2.3234 9.3089 2.5215 9.3911 C 2.7196 9.4731 2.9298 9.5142 3.1517 9.5145 C 3.4266 9.5142 3.6783 9.4738 3.9068 9.3931 C 4.1352 9.3123 4.33 9.1961 4.4911 9.0449 C 4.6522 8.8934 4.7784 8.7183 4.8695 8.5197 C 4.9607 8.3209 5.0061 8.1011 5.0061 7.8602 C 5.0061 7.5933 4.9455 7.3475 4.8239 7.1232 C 4.7024 6.8986 4.5519 6.6928 4.3723 6.5057 C 4.1927 6.3184 4.0017 6.1421 3.7995 5.9767 C 3.5975 5.8112 3.4146 5.6504 3.2508 5.4941 L 2.3392 4.6362 L 3.5321 4.6362 C 3.6985 4.6359 3.8539 4.6371 3.9977 4.6398 C 4.1417 4.6422 4.2638 4.6475 4.3643 4.6551 C 4.4649 4.6628 4.5163 4.6679 4.5187 4.6708 C 4.5399 4.6886 4.5598 4.7244 4.5784 4.7783 C 4.5969 4.8321 4.6139 4.8956 4.6298 4.9687 C 4.6457 5.0418 4.6616 5.1161 4.6774 5.1918 C 4.6933 5.2673 4.7077 5.3503 4.7209 5.4402 L 5.0141 5.4402 Z " fill-rule="evenodd"/>
</g>
<clipPath id="cp7">
<path transform="matrix(1.3316337,0,0,-1.3280301,304.38798,21.724579)" d="M 0 0 L 6.6836 0 L 6.6836 12.606 L 0 12.606 Z " fill-rule="evenodd"/>
</clipPath>
<g clip-path="url(#cp7)">
<path transform="matrix(1.3316337,0,0,-1.3280301,304.38798,21.724579)" d="M 5.146 5.371 C 5.146 5.1502 5.0972 4.9384 4.9996 4.7359 C 4.9019 4.5332 4.7711 4.3601 4.6071 4.2168 C 4.4222 4.055 4.2181 3.9352 3.9949 3.8571 C 3.7718 3.7787 3.5386 3.7397 3.2955 3.7397 C 3.0762 3.7397 2.8624 3.7705 2.6537 3.8321 C 2.445 3.8936 2.2569 3.9819 2.0891 4.0973 C 1.9213 4.2127 1.7873 4.3543 1.6868 4.5224 C 1.5863 4.6903 1.5361 4.8833 1.5361 5.1017 C 1.5361 5.2657 1.5909 5.3881 1.7005 5.4688 C 1.8102 5.5496 1.9258 5.59 2.0473 5.5903 C 2.1742 5.59 2.2923 5.5496 2.4019 5.4688 C 2.5116 5.3881 2.5664 5.2657 2.5664 5.1017 C 2.5664 5.004 2.5474 4.9225 2.5089 4.8571 C 2.4707 4.7917 2.4219 4.7371 2.3623 4.6936 C 2.3029 4.6499 2.2348 4.6232 2.1581 4.6131 C 2.1187 4.6025 2.0817 4.5974 2.0473 4.5977 C 2.0131 4.5974 2.0078 4.5948 2.0314 4.59 C 2.1134 4.4462 2.2745 4.319 2.515 4.2089 C 2.7554 4.0985 3.0156 4.0434 3.2955 4.0437 C 3.4277 4.0434 3.5511 4.0761 3.666 4.1415 C 3.7809 4.2069 3.8769 4.2947 3.9533 4.4053 C 4.0486 4.5486 4.1133 4.7025 4.1476 4.8667 C 4.182 5.0307 4.1991 5.1988 4.1991 5.371 C 4.1991 5.5477 4.182 5.7175 4.1476 5.8805 C 4.1133 6.0433 4.0486 6.1941 3.9533 6.3328 C 3.874 6.4453 3.7776 6.5365 3.6641 6.6057 C 3.5506 6.675 3.4277 6.7096 3.2955 6.7098 L 2.721 6.7098 C 2.6446 6.7096 2.6034 6.7454 2.5982 6.8176 L 2.5982 6.8599 C 2.5982 6.8904 2.6075 6.9147 2.6258 6.933 C 2.6496 6.9558 2.6799 6.9674 2.7169 6.9676 C 2.7936 6.9777 2.873 6.9827 2.9547 6.983 C 3.0341 6.9827 3.112 6.9878 3.1885 6.9984 C 3.3313 7.0085 3.4554 7.0525 3.5612 7.1309 C 3.667 7.209 3.7555 7.309 3.8266 7.4309 C 3.8978 7.5526 3.9519 7.693 3.9889 7.8522 C 4.026 8.0112 4.0445 8.1742 4.0445 8.3411 C 4.0445 8.4639 4.0313 8.5806 4.0048 8.6909 C 3.9784 8.8011 3.9295 8.8975 3.8581 8.9797 C 3.7103 9.1488 3.5227 9.2322 3.2955 9.2298 C 3.0526 9.2295 2.8299 9.1839 2.628 9.093 C 2.426 9.0018 2.2904 8.9037 2.2216 8.7989 C 2.2033 8.796 2.2125 8.7948 2.2495 8.795 C 2.3447 8.7948 2.4344 8.7667 2.5188 8.7104 C 2.6458 8.6359 2.709 8.5101 2.709 8.3334 C 2.709 8.1843 2.6609 8.072 2.5645 7.9965 C 2.4681 7.9208 2.3603 7.883 2.2416 7.8832 C 2.1252 7.883 2.0163 7.92 1.9145 7.9946 C 1.8128 8.0689 1.7619 8.1819 1.7619 8.3334 C 1.7619 8.5204 1.8068 8.6856 1.8967 8.8294 C 1.9867 8.973 2.1021 9.0961 2.2435 9.1988 C 2.3849 9.3012 2.5479 9.3796 2.7328 9.4335 C 2.918 9.4873 3.1055 9.5142 3.2955 9.5145 C 3.4989 9.5142 3.6958 9.4873 3.886 9.4335 C 4.0762 9.3796 4.2558 9.2962 4.4249 9.1836 C 4.5624 9.086 4.6778 8.966 4.7716 8.8237 C 4.8654 8.6813 4.9123 8.5204 4.9123 8.3411 C 4.9123 8.1612 4.8801 7.9919 4.8154 7.833 C 4.7507 7.6738 4.6649 7.5303 4.5579 7.4021 C 4.4508 7.2737 4.3234 7.1609 4.1753 7.0635 C 4.0274 6.9659 3.9163 6.9046 3.8423 6.8791 C 3.9057 6.8712 4.0142 6.8332 4.1674 6.7654 C 4.3208 6.6973 4.4672 6.6069 4.6071 6.4944 C 4.7711 6.353 4.9019 6.1844 4.9996 5.9882 C 5.0972 5.792 5.146 5.5862 5.146 5.371 Z " fill-rule="evenodd"/>
</g>
<clipPath id="cp8">
<path transform="matrix(1.3315487,0,0,-1.3280301,116.38674,21.724579)" d="M 0 0 L 10.812 0 L 10.812 12.606 L 0 12.606 Z " fill-rule="evenodd"/>
</clipPath>
<g clip-path="url(#cp8)">
<path transform="matrix(1.3315487,0,0,-1.3280301,116.38674,21.724579)" stroke-width=".3216" stroke-linecap="round" stroke-linejoin="round" fill="none" stroke="#000000" d="M 1.5 6.3032 L 4.9894 6.3032 "/>
<path transform="matrix(1.3315487,0,0,-1.3280301,116.38674,21.724579)" d="M 9.2802 3.9206 C 8.7942 3.9359 8.3213 3.9436 7.8615 3.9436 C 7.402 3.9436 6.929 3.9359 6.4428 3.9206 L 6.4428 4.2514 L 6.7165 4.2514 C 6.8035 4.2512 6.8855 4.2524 6.962 4.255 C 7.0387 4.2574 7.1113 4.2639 7.1801 4.2743 C 7.2488 4.2844 7.3082 4.2947 7.3583 4.3053 C 7.4006 4.3127 7.4357 4.3363 7.4633 4.3762 C 7.4912 4.4159 7.5049 4.4601 7.5049 4.5092 L 7.5049 8.8451 C 7.3729 8.7806 7.2104 8.7318 7.0175 8.6986 C 6.8247 8.6652 6.6133 8.6486 6.3834 8.6488 L 6.3834 8.9759 C 6.7006 8.9756 6.9932 9.0134 7.2613 9.0891 C 7.5295 9.1646 7.7613 9.3065 7.9567 9.5145 L 8.0796 9.5145 C 8.1667 9.5142 8.2102 9.4719 8.2102 9.3875 L 8.2102 4.5092 C 8.2102 4.4577 8.2234 4.4128 8.2499 4.3743 C 8.2763 4.3358 8.3148 4.3127 8.3648 4.3053 C 8.4071 4.2947 8.4615 4.2844 8.5273 4.2743 C 8.5935 4.2639 8.668 4.2574 8.7512 4.255 C 8.8344 4.2524 8.9157 4.2512 8.9948 4.2514 L 9.2802 4.2514 L 9.2802 3.9206 Z " fill-rule="evenodd"/>
</g>
<clipPath id="cp9">
<path transform="matrix(1.3315499,0,0,-1.3280301,66.05788,21.724579)" d="M 0 0 L 11.406 0 L 11.406 12.606 L 0 12.606 Z " fill-rule="evenodd"/>
</clipPath>
<g clip-path="url(#cp9)">
<path transform="matrix(1.3315499,0,0,-1.3280301,66.05788,21.724579)" stroke-width=".3216" stroke-linecap="round" stroke-linejoin="round" fill="none" stroke="#000000" d="M 1.5 6.3032 L 4.9894 6.3032 "/>
<path transform="matrix(1.3315499,0,0,-1.3280301,66.05788,21.724579)" d="M 9.6165 3.9206 L 6.3911 3.9206 L 6.3911 4.1322 C 6.3911 4.1473 6.399 4.1704 6.4149 4.2014 L 7.7107 5.6095 C 7.8639 5.7785 8.019 5.9517 8.1762 6.1286 C 8.3335 6.3056 8.4744 6.4864 8.5985 6.6711 C 8.7225 6.8558 8.8216 7.0462 8.8957 7.2424 C 8.9697 7.4386 9.0065 7.6445 9.0065 7.8602 C 9.0065 8.0419 8.9827 8.2119 8.9351 8.3697 C 8.8875 8.5274 8.819 8.6659 8.729 8.7852 C 8.6393 8.9045 8.527 9.0006 8.3924 9.0737 C 8.2577 9.1468 8.1017 9.1834 7.9247 9.1836 C 7.6607 9.1834 7.4274 9.1045 7.2252 8.9468 C 7.0232 8.789 6.8891 8.6152 6.8229 8.4257 C 6.81 8.4204 6.8311 8.4178 6.8864 8.418 L 6.9537 8.418 C 7.0331 8.3997 7.1016 8.3721 7.1598 8.3351 C 7.218 8.2978 7.2668 8.2466 7.3065 8.1812 C 7.3462 8.1158 7.3659 8.0369 7.3659 7.9448 C 7.3659 7.7907 7.3159 7.6726 7.2154 7.5906 C 7.1149 7.5084 7.0026 7.4675 6.8785 7.4677 C 6.7597 7.4675 6.6486 7.5084 6.5457 7.5906 C 6.4428 7.6726 6.3911 7.7907 6.3911 7.9448 C 6.3911 8.16 6.4334 8.3639 6.518 8.5563 C 6.6027 8.7486 6.7174 8.9153 6.8626 9.0564 C 7.0079 9.1973 7.1795 9.3089 7.3777 9.3911 C 7.5758 9.4731 7.786 9.5142 8.0079 9.5145 C 8.2827 9.5142 8.5345 9.4738 8.7629 9.3931 C 8.9914 9.3123 9.1861 9.1961 9.3472 9.0449 C 9.5083 8.8934 9.6346 8.7183 9.7257 8.5197 C 9.8168 8.3209 9.8623 8.1011 9.8623 7.8602 C 9.8623 7.5933 9.8017 7.3475 9.68 7.1232 C 9.5586 6.8986 9.4081 6.6928 9.2284 6.5057 C 9.0488 6.3184 8.8579 6.1421 8.6557 5.9767 C 8.4537 5.8112 8.2707 5.6504 8.107 5.4941 L 7.1954 4.6362 L 8.3883 4.6362 C 8.5547 4.6359 8.71 4.6371 8.8538 4.6398 C 8.9978 4.6422 9.12 4.6475 9.2205 4.6551 C 9.321 4.6628 9.3725 4.6679 9.3749 4.6708 C 9.396 4.6886 9.416 4.7244 9.4345 4.7783 C 9.453 4.8321 9.4701 4.8956 9.486 4.9687 C 9.5018 5.0418 9.5177 5.1161 9.5336 5.1918 C 9.5494 5.2673 9.5639 5.3503 9.5771 5.4402 L 9.8702 5.4402 Z " fill-rule="evenodd"/>
</g>
<clipPath id="cp10">
<path transform="matrix(1.331562,0,0,-1.3280301,19.031279,21.724579)" d="M 0 0 L 11.54 0 L 11.54 12.606 L 0 12.606 Z " fill-rule="evenodd"/>
</clipPath>
<g clip-path="url(#cp10)">
<path transform="matrix(1.331562,0,0,-1.3280301,19.031279,21.724579)" stroke-width=".3216" stroke-linecap="round" stroke-linejoin="round" fill="none" stroke="#000000" d="M 1.5 6.3032 L 4.9894 6.3032 "/>
<path transform="matrix(1.331562,0,0,-1.3280301,19.031279,21.724579)" d="M 10.002 5.371 C 10.002 5.1502 9.9533 4.9384 9.8557 4.7359 C 9.7581 4.5332 9.6273 4.3601 9.4633 4.2168 C 9.2784 4.055 9.0742 3.9352 8.8511 3.8571 C 8.628 3.7787 8.3947 3.7397 8.1516 3.7397 C 7.9323 3.7397 7.7186 3.7705 7.5099 3.8321 C 7.3011 3.8936 7.1131 3.9819 6.9453 4.0973 C 6.7774 4.2127 6.6435 4.3543 6.543 4.5224 C 6.4425 4.6903 6.3922 4.8833 6.3922 5.1017 C 6.3922 5.2657 6.447 5.3881 6.5567 5.4688 C 6.6663 5.5496 6.782 5.59 6.9034 5.5903 C 7.0304 5.59 7.1485 5.5496 7.2581 5.4688 C 7.3677 5.3881 7.4226 5.2657 7.4226 5.1017 C 7.4226 5.004 7.4036 4.9225 7.3651 4.8571 C 7.3269 4.7917 7.2781 4.7371 7.2184 4.6936 C 7.159 4.6499 7.091 4.6232 7.0143 4.6131 C 6.9748 4.6025 6.9378 4.5974 6.9034 4.5977 C 6.8693 4.5974 6.864 4.5948 6.8876 4.59 C 6.9696 4.4462 7.1307 4.319 7.3711 4.2089 C 7.6116 4.0985 7.8717 4.0434 8.1516 4.0437 C 8.2839 4.0434 8.4072 4.0761 8.5222 4.1415 C 8.6371 4.2069 8.733 4.2947 8.8095 4.4053 C 8.9047 4.5486 8.9694 4.7025 9.0038 4.8667 C 9.0382 5.0307 9.0553 5.1988 9.0553 5.371 C 9.0553 5.5477 9.0382 5.7175 9.0038 5.8805 C 8.9694 6.0433 8.9047 6.1941 8.8095 6.3328 C 8.7302 6.4453 8.6337 6.5365 8.5202 6.6057 C 8.4067 6.675 8.2839 6.7096 8.1516 6.7098 L 7.5772 6.7098 C 7.5007 6.7096 7.4596 6.7454 7.4543 6.8176 L 7.4543 6.8599 C 7.4543 6.8904 7.4637 6.9147 7.482 6.933 C 7.5058 6.9558 7.5361 6.9674 7.5731 6.9676 C 7.6498 6.9777 7.7291 6.9827 7.8109 6.983 C 7.8903 6.9827 7.9682 6.9878 8.0446 6.9984 C 8.1875 7.0085 8.3115 7.0525 8.4173 7.1309 C 8.5231 7.209 8.6116 7.309 8.6828 7.4309 C 8.754 7.5526 8.8081 7.693 8.8451 7.8522 C 8.8821 8.0112 8.9006 8.1742 8.9006 8.3411 C 8.9006 8.4639 8.8874 8.5806 8.861 8.6909 C 8.8345 8.8011 8.7857 8.8975 8.7143 8.9797 C 8.5664 9.1488 8.3789 9.2322 8.1516 9.2298 C 7.9088 9.2295 7.6861 9.1839 7.4841 9.093 C 7.2821 9.0018 7.1465 8.9037 7.0778 8.7989 C 7.0595 8.796 7.0686 8.7948 7.1057 8.795 C 7.2009 8.7948 7.2906 8.7667 7.375 8.7104 C 7.5019 8.6359 7.5652 8.5101 7.5652 8.3334 C 7.5652 8.1843 7.5171 8.072 7.4206 7.9965 C 7.3242 7.9208 7.2165 7.883 7.0977 7.8832 C 6.9813 7.883 6.8724 7.92 6.7707 7.9946 C 6.669 8.0689 6.618 8.1819 6.618 8.3334 C 6.618 8.5204 6.663 8.6856 6.7529 8.8294 C 6.8428 8.973 6.9583 9.0961 7.0996 9.1988 C 7.241 9.3012 7.4041 9.3796 7.589 9.4335 C 7.7741 9.4873 7.9617 9.5142 8.1516 9.5145 C 8.3551 9.5142 8.552 9.4873 8.7422 9.4335 C 8.9324 9.3796 9.112 9.2962 9.281 9.1836 C 9.4186 9.086 9.534 8.966 9.6278 8.8237 C 9.7216 8.6813 9.7684 8.5204 9.7684 8.3411 C 9.7684 8.1612 9.7362 7.9919 9.6715 7.833 C 9.6069 7.6738 9.521 7.5303 9.414 7.4021 C 9.307 7.2737 9.1796 7.1609 9.0314 7.0635 C 8.8836 6.9659 8.7725 6.9046 8.6984 6.8791 C 8.7619 6.8712 8.8703 6.8332 9.0235 6.7654 C 9.1769 6.6973 9.3234 6.6069 9.4633 6.4944 C 9.6273 6.353 9.7581 6.1844 9.8557 5.9882 C 9.9533 5.792 10.002 5.5862 10.002 5.371 Z " fill-rule="evenodd"/>
</g>
<path transform="matrix(.06657785,0,0,-.06640091,0,151.79998)" d="M 2570.62 1935.01 C 2570.62 1910.16 2550.48 1890.01 2525.62 1890.01 C 2500.77 1890.01 2480.62 1910.16 2480.62 1935.01 C 2480.62 1959.86 2500.77 1980.01 2525.62 1980.01 C 2550.48 1980.01 2570.62 1959.86 2570.62 1935.01 Z " fill="#ffffff" fill-rule="evenodd"/>
<path transform="matrix(.06657785,0,0,-.06640091,0,151.79998)" d="M 3275.62 1935.01 C 3275.62 1910.16 3255.48 1890.01 3230.62 1890.01 C 3205.77 1890.01 3185.62 1910.16 3185.62 1935.01 C 3185.62 1959.86 3205.77 1980.01 3230.62 1980.01 C 3255.48 1980.01 3275.62 1959.86 3275.62 1935.01 Z " fill="#ffffff" fill-rule="evenodd"/>
<path transform="matrix(.06657785,0,0,-.06640091,0,151.79998)" d="M 2563.12 1942.51 L 3193.13 1942.51 L 3193.13 1927.51 L 2563.12 1927.51 Z M 2525.62 1889.88 L 2507.74 1893.23 L 2494.02 1902.38 L 2483.86 1917.05 L 2480.49 1935.01 L 2483.89 1953.11 L 2494.02 1966.62 L 2507.52 1976.75 L 2525.62 1980.14 L 2543.58 1976.77 L 2558.26 1966.61 L 2567.4 1952.9 L 2570.75 1935.01 L 2567.43 1917.26 L 2558.26 1902.37 L 2543.37 1893.21 Z M 2539.24 1907.69 L 2536.69 1906.71 L 2548.88 1914.21 L 2546.42 1911.75 L 2553.92 1923.94 L 2552.94 1921.39 L 2555.75 1936.39 L 2555.75 1933.63 L 2552.94 1948.63 L 2554.07 1945.85 L 2546.57 1957.1 L 2548.54 1955.09 L 2536.35 1963.53 L 2539.24 1962.32 L 2524.24 1965.14 L 2527.01 1965.14 L 2512.01 1962.32 L 2515.12 1963.7 L 2503.87 1955.26 L 2505.37 1956.76 L 2496.94 1945.51 L 2498.31 1948.63 L 2495.5 1933.63 L 2495.5 1936.39 L 2498.31 1921.39 L 2497.1 1924.28 L 2505.54 1912.09 L 2503.53 1914.06 L 2514.78 1906.56 L 2512.01 1907.69 L 2527.01 1904.88 L 2524.24 1904.88 Z M 3230.62 1980.14 L 3248.58 1976.77 L 3263.26 1966.61 L 3272.4 1952.9 L 3275.75 1935.01 L 3272.43 1917.26 L 3263.26 1902.37 L 3248.37 1893.21 L 3230.62 1889.88 L 3212.74 1893.23 L 3199.02 1902.38 L 3188.86 1917.05 L 3185.49 1935.01 L 3188.89 1953.11 L 3199.02 1966.62 L 3212.52 1976.75 Z M 3217.01 1962.32 L 3220.12 1963.7 L 3208.87 1955.26 L 3210.37 1956.76 L 3201.94 1945.51 L 3203.31 1948.63 L 3200.49 1933.63 L 3200.49 1936.39 L 3203.31 1921.39 L 3202.1 1924.28 L 3210.54 1912.09 L 3208.53 1914.06 L 3219.78 1906.56 L 3217.01 1907.69 L 3232.01 1904.88 L 3229.24 1904.88 L 3244.24 1907.69 L 3241.69 1906.71 L 3253.88 1914.21 L 3251.42 1911.75 L 3258.92 1923.94 L 3257.94 1921.39 L 3260.75 1936.39 L 3260.75 1933.63 L 3257.94 1948.63 L 3259.07 1945.85 L 3251.57 1957.1 L 3253.54 1955.09 L 3241.35 1963.53 L 3244.24 1962.32 L 3229.24 1965.14 L 3232.01 1965.14 Z "/>
<path transform="matrix(.06657785,0,0,-.06640091,0,151.79998)" stroke-width="15" stroke-linecap="round" stroke-linejoin="round" fill="none" stroke="#00ff00" d="M 2514.38 1935.01 L 2713.13 1935.01 "/>
<path transform="matrix(.06657785,0,0,-.06640091,0,151.79998)" d="M 3275.62 1935.01 C 3275.62 1910.16 3255.48 1890.01 3230.62 1890.01 C 3205.77 1890.01 3185.62 1910.16 3185.62 1935.01 C 3185.62 1959.86 3205.77 1980.01 3230.62 1980.01 C 3255.48 1980.01 3275.62 1959.86 3275.62 1935.01 Z " fill="#ffffff" fill-rule="evenodd"/>
<path transform="matrix(.06657785,0,0,-.06640091,0,151.79998)" d="M 3980.63 1935.01 C 3980.63 1910.16 3960.48 1890.01 3935.63 1890.01 C 3910.77 1890.01 3890.63 1910.16 3890.63 1935.01 C 3890.63 1959.86 3910.77 1980.01 3935.63 1980.01 C 3960.48 1980.01 3980.63 1959.86 3980.63 1935.01 Z " fill="#ffffff" fill-rule="evenodd"/>
<path transform="matrix(.06657785,0,0,-.06640091,0,151.79998)" d="M 3268.12 1942.51 L 3898.13 1942.51 L 3898.13 1927.51 L 3268.12 1927.51 Z M 3230.63 1889.88 L 3212.74 1893.23 L 3199.02 1902.38 L 3188.86 1917.05 L 3185.49 1935.01 L 3188.89 1953.11 L 3199.02 1966.62 L 3212.52 1976.75 L 3230.63 1980.14 L 3248.58 1976.77 L 3263.26 1966.61 L 3272.4 1952.9 L 3275.76 1935.01 L 3272.43 1917.26 L 3263.26 1902.37 L 3248.37 1893.21 Z M 3244.24 1907.69 L 3241.69 1906.71 L 3253.88 1914.21 L 3251.42 1911.75 L 3258.92 1923.94 L 3257.94 1921.39 L 3260.75 1936.39 L 3260.75 1933.63 L 3257.94 1948.63 L 3259.07 1945.85 L 3251.57 1957.1 L 3253.54 1955.09 L 3241.36 1963.53 L 3244.24 1962.32 L 3229.24 1965.14 L 3232.01 1965.14 L 3217.01 1962.32 L 3220.13 1963.7 L 3208.88 1955.26 L 3210.38 1956.76 L 3201.94 1945.51 L 3203.31 1948.63 L 3200.5 1933.63 L 3200.5 1936.39 L 3203.31 1921.39 L 3202.1 1924.28 L 3210.54 1912.09 L 3208.54 1914.06 L 3219.79 1906.56 L 3217.01 1907.69 L 3232.01 1904.88 L 3229.24 1904.88 Z M 3935.62 1980.14 L 3953.58 1976.77 L 3968.26 1966.61 L 3977.4 1952.9 L 3980.76 1935.01 L 3977.43 1917.26 L 3968.26 1902.37 L 3953.37 1893.21 L 3935.62 1889.88 L 3917.74 1893.23 L 3904.02 1902.38 L 3893.86 1917.05 L 3890.49 1935.01 L 3893.89 1953.11 L 3904.02 1966.62 L 3917.52 1976.75 Z M 3922.01 1962.32 L 3925.12 1963.7 L 3913.87 1955.26 L 3915.37 1956.76 L 3906.94 1945.51 L 3908.31 1948.63 L 3905.5 1933.63 L 3905.5 1936.39 L 3908.31 1921.39 L 3907.1 1924.28 L 3915.54 1912.09 L 3913.54 1914.06 L 3924.79 1906.56 L 3922.01 1907.69 L 3937.01 1904.88 L 3934.24 1904.88 L 3949.24 1907.69 L 3946.69 1906.71 L 3958.88 1914.21 L 3956.42 1911.75 L 3963.92 1923.94 L 3962.94 1921.39 L 3965.75 1936.39 L 3965.75 1933.63 L 3962.94 1948.63 L 3964.07 1945.85 L 3956.57 1957.1 L 3958.54 1955.09 L 3946.36 1963.53 L 3949.24 1962.32 L 3934.24 1965.14 L 3937.01 1965.14 Z "/>
<path transform="matrix(.06657785,0,0,-.06640091,0,151.79998)" stroke-width="15" stroke-linecap="round" stroke-linejoin="round" fill="none" stroke="#00ff00" d="M 3219.37 1935.01 L 3418.13 1935.01 "/>
<path transform="matrix(.06657785,0,0,-.06640091,0,151.79998)" d="M 3988.12 1935.01 C 3988.12 1910.16 3967.98 1890.01 3943.12 1890.01 C 3918.27 1890.01 3898.12 1910.16 3898.12 1935.01 C 3898.12 1959.86 3918.27 1980.01 3943.12 1980.01 C 3967.98 1980.01 3988.12 1959.86 3988.12 1935.01 Z " fill="#ffffff" fill-rule="evenodd"/>
<path transform="matrix(.06657785,0,0,-.06640091,0,151.79998)" d="M 4693.13 1935.01 C 4693.13 1910.16 4672.98 1890.01 4648.13 1890.01 C 4623.27 1890.01 4603.13 1910.16 4603.13 1935.01 C 4603.13 1959.86 4623.27 1980.01 4648.13 1980.01 C 4672.98 1980.01 4693.13 1959.86 4693.13 1935.01 Z " fill="#ffffff" fill-rule="evenodd"/>
<path transform="matrix(.06657785,0,0,-.06640091,0,151.79998)" d="M 3980.62 1942.51 L 4610.62 1942.51 L 4610.62 1927.51 L 3980.62 1927.51 Z M 3943.12 1889.88 L 3925.24 1893.23 L 3911.52 1902.38 L 3901.36 1917.05 L 3897.99 1935.01 L 3901.39 1953.11 L 3911.52 1966.62 L 3925.02 1976.75 L 3943.12 1980.14 L 3961.08 1976.77 L 3975.76 1966.61 L 3984.9 1952.9 L 3988.25 1935.01 L 3984.93 1917.26 L 3975.76 1902.37 L 3960.87 1893.21 Z M 3956.74 1907.69 L 3954.19 1906.71 L 3966.38 1914.21 L 3963.92 1911.75 L 3971.42 1923.94 L 3970.44 1921.39 L 3973.25 1936.39 L 3973.25 1933.63 L 3970.44 1948.63 L 3971.57 1945.85 L 3964.07 1957.1 L 3966.04 1955.09 L 3953.86 1963.53 L 3956.74 1962.32 L 3941.74 1965.14 L 3944.51 1965.14 L 3929.51 1962.32 L 3932.62 1963.7 L 3921.37 1955.26 L 3922.87 1956.76 L 3914.44 1945.51 L 3915.81 1948.63 L 3913 1933.63 L 3913 1936.39 L 3915.81 1921.39 L 3914.6 1924.28 L 3923.04 1912.09 L 3921.03 1914.06 L 3932.28 1906.56 L 3929.51 1907.69 L 3944.51 1904.88 L 3941.74 1904.88 Z M 4648.12 1980.14 L 4666.08 1976.77 L 4680.76 1966.61 L 4689.9 1952.9 L 4693.25 1935.01 L 4689.93 1917.26 L 4680.76 1902.37 L 4665.87 1893.21 L 4648.12 1889.88 L 4630.24 1893.23 L 4616.52 1902.38 L 4606.36 1917.05 L 4602.99 1935.01 L 4606.39 1953.11 L 4616.52 1966.62 L 4630.02 1976.75 Z M 4634.51 1962.32 L 4637.62 1963.7 L 4626.37 1955.26 L 4627.87 1956.76 L 4619.44 1945.51 L 4620.81 1948.63 L 4618 1933.63 L 4618 1936.39 L 4620.81 1921.39 L 4619.6 1924.28 L 4628.04 1912.09 L 4626.03 1914.06 L 4637.28 1906.56 L 4634.51 1907.69 L 4649.51 1904.88 L 4646.74 1904.88 L 4661.74 1907.69 L 4659.19 1906.71 L 4671.38 1914.21 L 4668.92 1911.75 L 4676.42 1923.94 L 4675.44 1921.39 L 4678.25 1936.39 L 4678.25 1933.63 L 4675.44 1948.63 L 4676.57 1945.85 L 4669.07 1957.1 L 4671.04 1955.09 L 4658.86 1963.53 L 4661.74 1962.32 L 4646.74 1965.14 L 4649.51 1965.14 Z "/>
<path transform="matrix(.06657785,0,0,-.06640091,0,151.79998)" d="M 1865.63 1935.01 C 1865.63 1910.16 1845.48 1890.01 1820.63 1890.01 C 1795.77 1890.01 1775.63 1910.16 1775.63 1935.01 C 1775.63 1959.86 1795.77 1980.01 1820.63 1980.01 C 1845.48 1980.01 1865.63 1959.86 1865.63 1935.01 Z " fill="#ffffff" fill-rule="evenodd"/>
<path transform="matrix(.06657785,0,0,-.06640091,0,151.79998)" d="M 2570.62 1935.01 C 2570.62 1910.16 2550.48 1890.01 2525.62 1890.01 C 2500.77 1890.01 2480.62 1910.16 2480.62 1935.01 C 2480.62 1959.86 2500.77 1980.01 2525.62 1980.01 C 2550.48 1980.01 2570.62 1959.86 2570.62 1935.01 Z " fill="#ffffff" fill-rule="evenodd"/>
<path transform="matrix(.06657785,0,0,-.06640091,0,151.79998)" d="M 1858.12 1942.51 L 2488.12 1942.51 L 2488.12 1927.51 L 1858.12 1927.51 Z M 1820.62 1889.88 L 1802.74 1893.23 L 1789.02 1902.38 L 1778.86 1917.05 L 1775.49 1935.01 L 1778.89 1953.11 L 1789.02 1966.62 L 1802.52 1976.75 L 1820.62 1980.14 L 1838.58 1976.77 L 1853.26 1966.61 L 1862.4 1952.9 L 1865.76 1935.01 L 1862.43 1917.26 L 1853.26 1902.37 L 1838.37 1893.21 Z M 1834.24 1907.69 L 1831.69 1906.71 L 1843.88 1914.21 L 1841.42 1911.75 L 1848.92 1923.94 L 1847.94 1921.39 L 1850.75 1936.39 L 1850.75 1933.63 L 1847.94 1948.63 L 1849.07 1945.85 L 1841.57 1957.1 L 1843.54 1955.09 L 1831.36 1963.53 L 1834.24 1962.32 L 1819.24 1965.14 L 1822.01 1965.14 L 1807.01 1962.32 L 1810.12 1963.7 L 1798.87 1955.26 L 1800.37 1956.76 L 1791.94 1945.51 L 1793.31 1948.63 L 1790.5 1933.63 L 1790.5 1936.39 L 1793.31 1921.39 L 1792.1 1924.28 L 1800.54 1912.09 L 1798.54 1914.06 L 1809.79 1906.56 L 1807.01 1907.69 L 1822.01 1904.88 L 1819.24 1904.88 Z M 2525.62 1980.14 L 2543.58 1976.77 L 2558.26 1966.61 L 2567.4 1952.9 L 2570.76 1935.01 L 2567.43 1917.26 L 2558.26 1902.37 L 2543.37 1893.21 L 2525.62 1889.88 L 2507.74 1893.23 L 2494.02 1902.38 L 2483.86 1917.05 L 2480.49 1935.01 L 2483.89 1953.11 L 2494.02 1966.62 L 2507.52 1976.75 Z M 2512.01 1962.32 L 2515.12 1963.7 L 2503.87 1955.26 L 2505.37 1956.76 L 2496.94 1945.51 L 2498.31 1948.63 L 2495.5 1933.63 L 2495.5 1936.39 L 2498.31 1921.39 L 2497.1 1924.28 L 2505.54 1912.09 L 2503.53 1914.06 L 2514.78 1906.56 L 2512.01 1907.69 L 2527.01 1904.88 L 2524.24 1904.88 L 2539.24 1907.69 L 2536.69 1906.71 L 2548.88 1914.21 L 2546.42 1911.75 L 2553.92 1923.94 L 2552.94 1921.39 L 2555.75 1936.39 L 2555.75 1933.63 L 2552.94 1948.63 L 2554.07 1945.85 L 2546.57 1957.1 L 2548.54 1955.09 L 2536.36 1963.53 L 2539.24 1962.32 L 2524.24 1965.14 L 2527.01 1965.14 Z "/>
<path transform="matrix(.06657785,0,0,-.06640091,0,151.79998)" d="M 1160.63 1935.01 C 1160.63 1910.16 1140.48 1890.01 1115.63 1890.01 C 1090.77 1890.01 1070.63 1910.16 1070.63 1935.01 C 1070.63 1959.86 1090.77 1980.01 1115.63 1980.01 C 1140.48 1980.01 1160.63 1959.86 1160.63 1935.01 Z " fill="#ffffff" fill-rule="evenodd"/>
<path transform="matrix(.06657785,0,0,-.06640091,0,151.79998)" d="M 1865.63 1935.01 C 1865.63 1910.16 1845.48 1890.01 1820.63 1890.01 C 1795.77 1890.01 1775.63 1910.16 1775.63 1935.01 C 1775.63 1959.86 1795.77 1980.01 1820.63 1980.01 C 1845.48 1980.01 1865.63 1959.86 1865.63 1935.01 Z " fill="#ffffff" fill-rule="evenodd"/>
<path transform="matrix(.06657785,0,0,-.06640091,0,151.79998)" d="M 1153.13 1942.51 L 1783.13 1942.51 L 1783.13 1927.51 L 1153.13 1927.51 Z M 1115.62 1889.88 L 1097.74 1893.23 L 1084.02 1902.38 L 1073.86 1917.05 L 1070.49 1935.01 L 1073.89 1953.11 L 1084.02 1966.62 L 1097.52 1976.75 L 1115.62 1980.14 L 1133.58 1976.77 L 1148.26 1966.61 L 1157.4 1952.9 L 1160.76 1935.01 L 1157.43 1917.26 L 1148.26 1902.37 L 1133.37 1893.21 Z M 1129.24 1907.69 L 1126.69 1906.71 L 1138.88 1914.21 L 1136.42 1911.75 L 1143.92 1923.94 L 1142.94 1921.39 L 1145.75 1936.39 L 1145.75 1933.63 L 1142.94 1948.63 L 1144.07 1945.85 L 1136.57 1957.1 L 1138.54 1955.09 L 1126.36 1963.53 L 1129.24 1962.32 L 1114.24 1965.14 L 1117.01 1965.14 L 1102.01 1962.32 L 1105.12 1963.7 L 1093.87 1955.26 L 1095.37 1956.76 L 1086.94 1945.51 L 1088.31 1948.63 L 1085.5 1933.63 L 1085.5 1936.39 L 1088.31 1921.39 L 1087.1 1924.28 L 1095.54 1912.09 L 1093.53 1914.06 L 1104.78 1906.56 L 1102.01 1907.69 L 1117.01 1904.88 L 1114.24 1904.88 Z M 1820.62 1980.14 L 1838.58 1976.77 L 1853.26 1966.61 L 1862.4 1952.9 L 1865.76 1935.01 L 1862.43 1917.26 L 1853.26 1902.37 L 1838.37 1893.21 L 1820.62 1889.88 L 1802.74 1893.23 L 1789.02 1902.38 L 1778.86 1917.05 L 1775.49 1935.01 L 1778.89 1953.11 L 1789.02 1966.62 L 1802.52 1976.75 Z M 1807.01 1962.32 L 1810.12 1963.7 L 1798.87 1955.26 L 1800.37 1956.76 L 1791.94 1945.51 L 1793.31 1948.63 L 1790.5 1933.63 L 1790.5 1936.39 L 1793.31 1921.39 L 1792.1 1924.28 L 1800.54 1912.09 L 1798.53 1914.06 L 1809.78 1906.56 L 1807.01 1907.69 L 1822.01 1904.88 L 1819.24 1904.88 L 1834.24 1907.69 L 1831.69 1906.71 L 1843.88 1914.21 L 1841.42 1911.75 L 1848.92 1923.94 L 1847.94 1921.39 L 1850.75 1936.39 L 1850.75 1933.63 L 1847.94 1948.63 L 1849.07 1945.85 L 1841.57 1957.1 L 1843.54 1955.09 L 1831.36 1963.53 L 1834.24 1962.32 L 1819.24 1965.14 L 1822.01 1965.14 Z "/>
<path transform="matrix(.06657785,0,0,-.06640091,0,151.79998)" d="M 455.63 1935.01 C 455.63 1910.16 435.48 1890.01 410.63 1890.01 C 385.77 1890.01 365.63 1910.16 365.63 1935.01 C 365.63 1959.86 385.77 1980.01 410.63 1980.01 C 435.48 1980.01 455.63 1959.86 455.63 1935.01 Z " fill="#ffffff" fill-rule="evenodd"/>
<path transform="matrix(.06657785,0,0,-.06640091,0,151.79998)" d="M 1160.63 1935.01 C 1160.63 1910.16 1140.48 1890.01 1115.63 1890.01 C 1090.77 1890.01 1070.63 1910.16 1070.63 1935.01 C 1070.63 1959.86 1090.77 1980.01 1115.63 1980.01 C 1140.48 1980.01 1160.63 1959.86 1160.63 1935.01 Z " fill="#ffffff" fill-rule="evenodd"/>
<path transform="matrix(.06657785,0,0,-.06640091,0,151.79998)" d="M 448.13 1942.51 L 1078.13 1942.51 L 1078.13 1927.51 L 448.13 1927.51 Z M 410.63 1889.88 L 392.74 1893.23 L 379.02 1902.38 L 368.86 1917.05 L 365.5 1935.01 L 368.89 1953.11 L 379.02 1966.62 L 392.53 1976.75 L 410.63 1980.14 L 428.58 1976.77 L 443.26 1966.61 L 452.4 1952.9 L 455.76 1935.01 L 452.43 1917.26 L 443.27 1902.37 L 428.37 1893.21 Z M 424.24 1907.69 L 421.7 1906.71 L 433.88 1914.21 L 431.43 1911.75 L 438.93 1923.94 L 437.94 1921.39 L 440.75 1936.39 L 440.75 1933.63 L 437.94 1948.63 L 439.07 1945.85 L 431.57 1957.1 L 433.54 1955.09 L 421.36 1963.53 L 424.24 1962.32 L 409.24 1965.14 L 412.01 1965.14 L 397.01 1962.32 L 400.13 1963.7 L 388.88 1955.26 L 390.38 1956.76 L 381.94 1945.51 L 383.31 1948.63 L 380.5 1933.63 L 380.5 1936.39 L 383.31 1921.39 L 382.11 1924.28 L 390.54 1912.09 L 388.54 1914.06 L 399.79 1906.56 L 397.01 1907.69 L 412.01 1904.88 L 409.24 1904.88 Z M 1115.63 1980.14 L 1133.58 1976.77 L 1148.26 1966.61 L 1157.4 1952.9 L 1160.76 1935.01 L 1157.43 1917.26 L 1148.27 1902.37 L 1133.37 1893.21 L 1115.63 1889.88 L 1097.74 1893.23 L 1084.02 1902.38 L 1073.86 1917.05 L 1070.5 1935.01 L 1073.89 1953.11 L 1084.02 1966.62 L 1097.53 1976.75 Z M 1102.01 1962.32 L 1105.13 1963.7 L 1093.88 1955.26 L 1095.38 1956.76 L 1086.94 1945.51 L 1088.31 1948.63 L 1085.5 1933.63 L 1085.5 1936.39 L 1088.31 1921.39 L 1087.11 1924.28 L 1095.54 1912.09 L 1093.54 1914.06 L 1104.79 1906.56 L 1102.01 1907.69 L 1117.01 1904.88 L 1114.24 1904.88 L 1129.24 1907.69 L 1126.7 1906.71 L 1138.88 1914.21 L 1136.43 1911.75 L 1143.93 1923.94 L 1142.94 1921.39 L 1145.75 1936.39 L 1145.75 1933.63 L 1142.94 1948.63 L 1144.07 1945.85 L 1136.57 1957.1 L 1138.54 1955.09 L 1126.36 1963.53 L 1129.24 1962.32 L 1114.24 1965.14 L 1117.01 1965.14 Z "/>
<path transform="matrix(.06657785,0,0,-.06640091,0,151.79998)" stroke-width="15" stroke-linecap="round" stroke-linejoin="round" fill="none" stroke="#00ff00" d="M 3939.38 1935.01 L 4138.12 1935.01 "/>
<path transform="matrix(.06657785,0,0,-.06640091,0,151.79998)" stroke-width="15" stroke-linecap="round" stroke-linejoin="round" fill="none" stroke="#00ff00" d="M 4651.87 1935.01 L 4850.62 1935.01 "/>
<path transform="matrix(.06657785,0,0,-.06640091,0,151.79998)" stroke-width="15" stroke-linecap="round" stroke-linejoin="round" fill="none" stroke="#00ff00" d="M 1824.37 1935.01 L 2023.13 1935.01 "/>
<path transform="matrix(.06657785,0,0,-.06640091,0,151.79998)" stroke-width="15" stroke-linecap="round" stroke-linejoin="round" fill="none" stroke="#00ff00" d="M 1119.38 1935.01 L 1318.12 1935.01 "/>
<path transform="matrix(.06657785,0,0,-.06640091,0,151.79998)" stroke-width="15" stroke-linecap="round" stroke-linejoin="round" fill="none" stroke="#00ff00" d="M 414.38 1935.01 L 613.13 1935.01 "/>
<clipPath id="cp11">
<path transform="matrix(1.331605,0,0,-1.3280301,200.58443,122.32195)" d="M 0 0 L 6.7322 0 L 6.7322 12.606 L 0 12.606 Z " fill-rule="evenodd"/>
</clipPath>
<g clip-path="url(#cp11)">
<path transform="matrix(1.331605,0,0,-1.3280301,200.58443,122.32195)" d="M 5.1943 6.5983 C 5.1943 6.2287 5.1686 5.8613 5.1171 5.4958 C 5.0657 5.1303 4.9382 4.7872 4.7348 4.4669 C 4.5896 4.2331 4.3953 4.0538 4.1522 3.9283 C 3.9093 3.8025 3.6451 3.7397 3.3597 3.7397 C 3.0851 3.7397 2.8254 3.8025 2.5811 3.9283 C 2.3368 4.0538 2.1418 4.2331 1.9965 4.4669 C 1.7931 4.7872 1.6657 5.1303 1.6142 5.4958 C 1.5627 5.8613 1.5368 6.2287 1.5368 6.5983 C 1.5368 6.9724 1.5627 7.3463 1.6142 7.7195 C 1.6657 8.0927 1.7931 8.4421 1.9965 8.7681 C 2.1418 9.0038 2.336 9.1872 2.5791 9.318 C 2.8222 9.4488 3.0824 9.5142 3.3597 9.5145 C 3.6424 9.5142 3.906 9.4488 4.1503 9.318 C 4.3946 9.1872 4.5896 9.0038 4.7348 8.7681 C 4.9382 8.4421 5.0657 8.0927 5.1171 7.7195 C 5.1686 7.3463 5.1943 6.9724 5.1943 6.5983 Z M 4.4097 6.7329 C 4.4097 6.8943 4.4085 7.0647 4.4059 7.2444 C 4.4032 7.4237 4.3965 7.5995 4.3859 7.7714 C 4.3753 7.9431 4.3563 8.1054 4.3284 8.2581 C 4.3008 8.4106 4.2671 8.5409 4.2275 8.6488 C 4.1483 8.8229 4.0322 8.966 3.8788 9.0776 C 3.7256 9.1891 3.5525 9.2449 3.3597 9.2452 C 3.1721 9.2449 3.0026 9.1884 2.8506 9.0757 C 2.6987 8.9626 2.583 8.8205 2.5036 8.6488 C 2.4642 8.5409 2.4305 8.4106 2.4027 8.2581 C 2.375 8.1054 2.3558 7.9431 2.3452 7.7714 C 2.3346 7.5995 2.3281 7.4237 2.3255 7.2444 C 2.3228 7.0647 2.3214 6.8943 2.3214 6.7329 C 2.3214 6.5531 2.3228 6.3638 2.3255 6.1652 C 2.3281 5.9663 2.3346 5.774 2.3452 5.5881 C 2.3558 5.402 2.375 5.2257 2.4027 5.0591 C 2.4305 4.8922 2.4642 4.7525 2.5036 4.64 C 2.5777 4.4524 2.6922 4.2986 2.8465 4.1781 C 3.0011 4.0574 3.1721 3.9973 3.3597 3.9975 C 3.5554 3.9973 3.7304 4.0574 3.8848 4.1781 C 4.0394 4.2986 4.1536 4.4524 4.2275 4.64 C 4.2671 4.7525 4.3008 4.8922 4.3284 5.0591 C 4.3563 5.2257 4.3753 5.402 4.3859 5.5881 C 4.3965 5.774 4.4032 5.9663 4.4059 6.1652 C 4.4085 6.3638 4.4097 6.5531 4.4097 6.7329 Z " fill-rule="evenodd"/>
</g>
<path transform="matrix(.06657785,0,0,-.06640091,0,151.79998)" d="M 2561.62 1012.51 C 2561.62 992.63 2545.51 976.51 2525.62 976.51 C 2505.74 976.51 2489.62 992.63 2489.62 1012.51 C 2489.62 1032.39 2505.74 1048.51 2525.62 1048.51 C 2545.51 1048.51 2561.62 1032.39 2561.62 1012.51 Z " fill-rule="evenodd"/>
<clipPath id="cp12">
<path transform="matrix(1.3315598,0,0,-1.3280301,163.48859,101.642719)" d="M 0 0 L 5.127 0 L 5.127 12.606 L 0 12.606 Z " fill-rule="evenodd"/>
</clipPath>
<g clip-path="url(#cp12)">
<path transform="matrix(1.3315598,0,0,-1.3280301,163.48859,101.642719)" d="M 3.1916 8.9053 C 3.1916 8.7139 3.121 8.5498 2.9794 8.4123 C 2.8378 8.2749 2.6685 8.2062 2.4718 8.2065 C 2.2725 8.2062 2.1032 8.2749 1.9643 8.4123 C 1.8255 8.5498 1.756 8.7139 1.756 8.9053 C 1.756 9.0986 1.8269 9.2615 1.9685 9.3938 C 2.1101 9.5258 2.2779 9.592 2.4718 9.5923 C 2.6685 9.592 2.8378 9.5253 2.9794 9.3918 C 3.121 9.2584 3.1916 9.0962 3.1916 8.9053 Z M 3.6242 3.8528 C 3.2495 3.871 2.9046 3.8803 2.589 3.8803 C 2.2468 3.8803 1.8829 3.871 1.4972 3.8528 L 1.4972 4.3749 L 2.0716 4.3749 L 2.0716 6.8796 C 2.0716 6.9056 2.0669 6.9304 2.0573 6.9539 C 2.048 6.9775 2.0365 6.992 2.023 6.9974 C 1.9881 7.0101 1.9275 7.018 1.8412 7.0207 C 1.7548 7.0231 1.6483 7.0246 1.5215 7.0248 L 1.5215 7.547 L 3.1107 7.6216 L 3.1107 4.3749 L 3.6242 4.3749 L 3.6242 3.8528 Z " fill-rule="evenodd"/>
</g>
</g>
</g>
</g>
</g>
</g>
</svg>
