<?xml version="1.0" encoding="utf-8"?>
<!-- Generator: Adobe Illustrator 19.0.0, SVG Export Plug-In . SVG Version: 6.00 Build 0)  -->
<svg version="1.1" id="Layer_1" xmlns="http://www.w3.org/2000/svg" xmlns:xlink="http://www.w3.org/1999/xlink" x="0px" y="0px"
	 viewBox="0 0 147.6666718 141" style="enable-background:new 0 0 147.6666718 141;" xml:space="preserve">
<style type="text/css">
	.st0{fill:#010101;}
	.st1{fill:#EF4136;}
	.st2{fill:none;stroke:#000000;stroke-miterlimit:10;}
	.st3{fill:none;stroke:#000000;stroke-miterlimit:10;stroke-dasharray:4.8717937,4.8717937;}
	.st4{fill:none;stroke:#000000;stroke-miterlimit:10;stroke-dasharray:5.3729706,5.3729706;}
	.st5{fill:none;stroke:#010101;stroke-miterlimit:10;}
</style>
<g id="XMLID_1_">
	<g id="XMLID_51_">
		<g id="XMLID_52_">
			<polygon id="XMLID_53_" points="120.2281723,106.5231094 120.2281723,108.5295486 129.6666718,106.0021744 
				120.2281723,103.4704361 120.2281723,105.4770584 5.3333335,105.4770584 5.3333335,106.5231094 			"/>
		</g>
	</g>
</g>
<g id="XMLID_3_">
	<g id="XMLID_20_">
		<g id="XMLID_22_">
			<polygon id="XMLID_49_" points="32.5230751,15.4287214 34.5294991,15.4287214 32.00214,5.9902139 29.4704037,15.4287214 
				31.4770107,15.4287214 31.4770107,139.3333282 32.5230751,139.3333282 			"/>
		</g>
	</g>
</g>
<g id="XMLID_4_">
	<g id="XMLID_5_">
		<path id="XMLID_181_" class="st0" d="M140.9070587,109.6666641h-2.1176758l-2.6850586-3.7099609
			c-0.1987305,0.0078125-0.3603516,0.0117188-0.4853516,0.0117188c-0.0507813,0-0.1054688-0.0009766-0.1635742-0.0029297
			c-0.0585938-0.0019531-0.1191406-0.0048828-0.1816406-0.0087891v2.3056641c0,0.4990234,0.0546875,0.8095703,0.1640625,0.9306641
			c0.1479492,0.1708984,0.3701172,0.2568359,0.6665039,0.2568359h0.3100586v0.2167969h-3.3984375v-0.2167969h0.2983398
			c0.3354492,0,0.5751953-0.1083984,0.7197266-0.3271484c0.081543-0.1210938,0.1225586-0.4082031,0.1225586-0.8603516v-5.1254883
			c0-0.4995117-0.0546875-0.8095703-0.1635742-0.9306641c-0.1523438-0.1713867-0.378418-0.2573242-0.6787109-0.2573242h-0.2983398
			v-0.2163086h2.8896484c0.8422852,0,1.4633789,0.0610352,1.862793,0.184082
			c0.3999023,0.1230469,0.7392578,0.3491211,1.0180664,0.6787109s0.4179688,0.7226563,0.4179688,1.1791992
			c0,0.487793-0.1586914,0.9106445-0.4765625,1.2695313s-0.8100586,0.612793-1.4770508,0.7612305l1.6376953,2.2753906
			c0.3745117,0.5234375,0.6962891,0.8701172,0.9648438,1.0419922c0.2695313,0.171875,0.6201172,0.2802734,1.0537109,0.3271484
			V109.6666641z M135.2737579,105.5885391c0.0742188,0,0.1386719,0.0009766,0.1933594,0.0029297
			c0.0541992,0.0019531,0.0991211,0.0029297,0.1342773,0.0029297c0.7563477,0,1.3266602-0.1640625,1.7109375-0.4916992
			s0.5761719-0.7451172,0.5761719-1.2519531c0-0.4956055-0.1547852-0.8984375-0.4648438-1.2084961
			s-0.7207031-0.465332-1.2314453-0.465332c-0.2260742,0-0.5322266,0.0371094-0.918457,0.1113281V105.5885391z"/>
		<path id="XMLID_184_" class="st0" d="M142.1253204,106.3258438c-0.0039063,0.7958984,0.1884766,1.4199219,0.5791016,1.8720703
			c0.3896484,0.453125,0.8476563,0.6787109,1.3740234,0.6787109c0.3515625,0,0.65625-0.0966797,0.9160156-0.2890625
			c0.2587891-0.1933594,0.4765625-0.5244141,0.6513672-0.9921875l0.1816406,0.1171875
			c-0.0820313,0.5341797-0.3193359,1.0205078-0.7138672,1.4599609c-0.3935547,0.4384766-0.8867188,0.6582031-1.4794922,0.6582031
			c-0.6435547,0-1.1943359-0.2509766-1.6523438-0.7519531s-0.6879883-1.1748047-0.6879883-2.0214844
			c0-0.9169922,0.2358398-1.6318359,0.7055664-2.1445313c0.4697266-0.5131836,1.0595703-0.7695313,1.7695313-0.7695313
			c0.6005859,0,1.09375,0.1977539,1.4794922,0.59375c0.3867188,0.3959961,0.5791016,0.925293,0.5791016,1.5888672H142.1253204z
			 M142.1253204,105.9860001h2.4794922c-0.0195313-0.3427734-0.0605469-0.5849609-0.1220703-0.7250977
			c-0.0976563-0.21875-0.2431641-0.3901367-0.4365234-0.5151367c-0.1923828-0.125-0.3945313-0.1870117-0.6054688-0.1870117
			c-0.3232422,0-0.6132813,0.1254883-0.8681641,0.3774414C142.3167267,105.1876602,142.1682892,105.5377579,142.1253204,105.9860001
			z"/>
	</g>
</g>
<g id="XMLID_6_">
	<g id="XMLID_7_">
		<path id="XMLID_177_" class="st0" d="M43.6751289,11.7140303v0.2148438h-3.3984375v-0.2148438h0.2807617
			c0.3276367,0,0.5654297-0.0957031,0.7133789-0.2851563c0.09375-0.1240234,0.140625-0.4228516,0.140625-0.8955078V5.4376626
			c0-0.3994141-0.0253906-0.6630859-0.0761719-0.7910156c-0.0390625-0.097168-0.1191406-0.1806641-0.2397461-0.2504883
			c-0.1713867-0.0927734-0.3510742-0.1391602-0.5380859-0.1391602h-0.2807617v-0.215332h3.3984375v0.215332h-0.2866211
			c-0.3237305,0-0.5595703,0.0947266-0.7080078,0.284668c-0.097168,0.1245117-0.1459961,0.4228516-0.1459961,0.8959961v5.0957036
			c0,0.3994141,0.0253906,0.6630859,0.0761719,0.7910156c0.0385742,0.0966797,0.1206055,0.1796875,0.2456055,0.25
			c0.1674805,0.0927734,0.3452148,0.1396484,0.5322266,0.1396484H43.6751289z"/>
		<path id="XMLID_179_" class="st0" d="M45.6931953,7.5782876c0.3901367-0.3881836,0.6201172-0.6108398,0.6904297-0.6689453
			c0.175293-0.1474609,0.3642578-0.2617188,0.5673828-0.3432617s0.4042969-0.1220703,0.6015625-0.1220703
			c0.3359375,0,0.625,0.0966797,0.8671875,0.2905273c0.2402344,0.1938477,0.4023438,0.4750977,0.484375,0.84375
			c0.4023438-0.465332,0.7402344-0.7709961,1.0175781-0.9165039c0.2773438-0.1450195,0.5625-0.2177734,0.8535156-0.2177734
			c0.2851563,0,0.5390625,0.0727539,0.7578125,0.2177734c0.2207031,0.1455078,0.3945313,0.3833008,0.5234375,0.7128906
			c0.0859375,0.2241211,0.1289063,0.5776367,0.1289063,1.0581059v2.2919922c0,0.3339844,0.0253906,0.5625,0.0761719,0.6865234
			c0.0390625,0.0849609,0.1113281,0.1582031,0.2167969,0.2177734c0.1054688,0.0605469,0.2773438,0.0908203,0.515625,0.0908203
			v0.2089844h-2.6445313v-0.2089844h0.1113281c0.2304688,0,0.4082031-0.0449219,0.5371094-0.1337891
			c0.0898438-0.0625,0.1542969-0.1611328,0.1933594-0.296875c0.015625-0.0664063,0.0234375-0.2539063,0.0234375-0.5644531V8.4327803
			c0-0.4335942-0.0527344-0.7402349-0.1582031-0.9189458c-0.1523438-0.2480469-0.3945313-0.3720703-0.7304688-0.3720703
			c-0.2070313,0-0.4140625,0.0512695-0.6230469,0.1542969c-0.2089844,0.1025391-0.4609375,0.2929688-0.7578125,0.5722656
			l-0.0117188,0.0644531l0.0117188,0.2500005v2.5419922c0,0.3642578,0.0214844,0.5917969,0.0625,0.6806641
			s0.1171875,0.1640625,0.2304688,0.2236328c0.1132813,0.0605469,0.3066406,0.0908203,0.578125,0.0908203v0.2089844H47.109211
			v-0.2089844c0.2949219,0,0.5-0.0351563,0.6113281-0.1054688c0.1113281-0.0693359,0.1875-0.1738281,0.2304688-0.3134766
			c0.0195313-0.0664063,0.0292969-0.2578125,0.0292969-0.5761719V8.4327803c0-0.4335942-0.0644531-0.7460942-0.1933594-0.9360356
			c-0.171875-0.2480469-0.4121094-0.3725586-0.71875-0.3725586c-0.2109375,0-0.4194336,0.0566406-0.6264648,0.1689453
			C46.118,7.4635415,45.8684883,7.655436,45.6931953,7.8683267v2.8564458c0,0.3486328,0.0244141,0.5761719,0.0732422,0.6806641
			s0.1206055,0.1835938,0.2163086,0.2353516c0.0957031,0.0527344,0.2895508,0.0791016,0.5820313,0.0791016v0.2089844H43.914875
			v-0.2089844c0.2456055,0,0.4174805-0.0263672,0.5151367-0.0791016c0.097168-0.0517578,0.1713867-0.1357422,0.222168-0.25
			c0.050293-0.1142578,0.0756836-0.3359375,0.0756836-0.6660156V8.6886396c0-0.5849609-0.0170898-0.9628911-0.0522461-1.1337895
			c-0.0273438-0.1279297-0.0703125-0.2163086-0.1289063-0.2646484s-0.1381836-0.0727539-0.2397461-0.0727539
			c-0.109375,0-0.2397461,0.0292969-0.3920898,0.0874023l-0.0874023-0.2094727l1.6142578-0.6513672h0.2514648V7.5782876z"/>
	</g>
</g>
<g id="XMLID_2_">
	<g id="XMLID_32_">
		<g id="XMLID_33_">
			<polygon id="XMLID_47_" class="st1" points="90.0265579,44.9082756 91.4898911,46.2810173 96.1041489,37.6681633 
				87.8001785,42.8197441 89.2636337,44.1926079 31.618597,105.6422195 32.3815041,106.3578873 			"/>
		</g>
	</g>
</g>
<g id="XMLID_8_">
	<g id="XMLID_37_">
		<line id="XMLID_40_" class="st2" x1="96.1025925" y1="37.6666679" x2="96.1025925" y2="40.1666679"/>
		<line id="XMLID_39_" class="st3" x1="96.1025925" y1="45.0384636" x2="96.1025925" y2="101.0640945"/>
		<line id="XMLID_38_" class="st2" x1="96.1025925" y1="103.5000076" x2="96.1025925" y2="106.0000076"/>
	</g>
</g>
<g id="XMLID_28_">
	<g id="XMLID_43_">
		<line id="XMLID_46_" class="st2" x1="31.9999142" y1="37.6666679" x2="34.4999123" y2="37.6666679"/>
		<line id="XMLID_45_" class="st4" x1="39.8728828" y1="37.6666679" x2="90.9160995" y2="37.6666679"/>
		<line id="XMLID_44_" class="st2" x1="93.6025925" y1="37.6666679" x2="96.1025925" y2="37.6666679"/>
	</g>
</g>
<path id="XMLID_25_" class="st5" d="M42.1747971,95.153656c3.908535,3.4524612,4.9918709,5.5130081,4.9918709,10.846344"/>
<g id="XMLID_10_">
	<g id="XMLID_11_">
		<path id="XMLID_175_" class="st1" d="M101.0530624,29.1686192h3.7084961v0.1459961l-4.0415039,4.196291h1.7114258
			c0.4042969,0,0.6621094-0.015625,0.7705078-0.0458984c0.109375-0.03125,0.2099609-0.0976563,0.3007813-0.1982422
			c0.0917969-0.1015625,0.1943359-0.2841797,0.3066406-0.5478516h0.2158203l-0.5078125,1.5849609h-3.8017578v-0.1689453
			l4.0410156-4.1967793h-1.6816406c-0.3540039,0-0.5683594,0.0097656-0.6420898,0.0292969
			c-0.109375,0.0229492-0.2172852,0.0844727-0.3242188,0.1835938c-0.1074219,0.0991211-0.2172852,0.2631836-0.3300781,0.4921875
			h-0.2216797L101.0530624,29.1686192z"/>
	</g>
</g>
<g id="XMLID_12_">
	<g id="XMLID_14_">
		<path id="XMLID_165_" class="st0" d="M90.8421249,118.9078751H88.722496l-2.6875-3.6826172
			c-0.1987305,0.0078125-0.3608398,0.0117188-0.4858398,0.0117188c-0.0507813,0-0.1054688-0.0009766-0.1640625-0.0029297
			s-0.1191406-0.0048828-0.1816406-0.0087891v2.2880859c0,0.4960938,0.0546875,0.8037109,0.1640625,0.9238281
			c0.1484375,0.1708984,0.3710938,0.2558594,0.6674805,0.2558594h0.3105469v0.2148438h-3.4018555v-0.2148438h0.2983398
			c0.3359375,0,0.5756836-0.1083984,0.7202148-0.3251953c0.0820313-0.1201172,0.1230469-0.4052734,0.1230469-0.8544922v-5.0878906
			c0-0.4960938-0.0546875-0.8037109-0.1640625-0.9238281c-0.1518555-0.1699219-0.378418-0.2558594-0.6791992-0.2558594h-0.2983398
			v-0.2148438h2.8925781c0.8427734,0,1.4643555,0.0615234,1.8647461,0.1835938
			c0.3999023,0.1210938,0.7397461,0.3457031,1.0185547,0.6738281c0.2792969,0.3271484,0.4189453,0.7167969,0.4189453,1.1699219
			c0,0.484375-0.1591797,0.9042969-0.4775391,1.2607422c-0.3178711,0.3564453-0.8105469,0.6083984-1.4780273,0.7548828
			l1.6391602,2.2597656c0.375,0.5185547,0.6967773,0.8632813,0.9663086,1.0341797
			c0.269043,0.1699219,0.6206055,0.2783203,1.0537109,0.3251953V118.9078751z M85.2034531,114.8590469
			c0.0742188,0,0.1386719,0.0009766,0.1933594,0.0029297s0.0996094,0.0029297,0.1347656,0.0029297
			c0.7573242,0,1.328125-0.1621094,1.7124023-0.4882813c0.3847656-0.3251953,0.5771484-0.7392578,0.5771484-1.2431641
			c0-0.4912109-0.1552734-0.8916016-0.4658203-1.1992188c-0.3100586-0.3076172-0.7211914-0.4619141-1.2324219-0.4619141
			c-0.2265625,0-0.5327148,0.0371094-0.9194336,0.1103516V114.8590469z"/>
		<path id="XMLID_168_" class="st0" d="M92.0613632,115.5914688c-0.0039063,0.7890625,0.1894531,1.4091797,0.5795898,1.8583984
			c0.390625,0.4492188,0.8491211,0.6738281,1.3759766,0.6738281c0.3515625,0,0.6567383-0.0957031,0.9165039-0.2871094
			c0.2597656-0.1923828,0.4770508-0.5205078,0.652832-0.9853516l0.1816406,0.1162109
			c-0.0820313,0.53125-0.3203125,1.0136719-0.7143555,1.4492188c-0.3945313,0.4355469-0.8881836,0.6542969-1.4814453,0.6542969
			c-0.644043,0-1.1953125-0.2490234-1.6542969-0.7470703c-0.4584961-0.4970703-0.6879883-1.1660156-0.6879883-2.0068359
			c0-0.9101563,0.2353516-1.6191406,0.7055664-2.1289063c0.4707031-0.5087891,1.0610352-0.7636719,1.7714844-0.7636719
			c0.6010742,0,1.0947266,0.1962891,1.4814453,0.5898438c0.3862305,0.3925781,0.5795898,0.9189453,0.5795898,1.5771484H92.0613632z
			 M92.0613632,115.2545547h2.4829102c-0.0200195-0.3408203-0.0605469-0.5810547-0.1230469-0.7207031
			c-0.0976563-0.2167969-0.2431641-0.3867188-0.4365234-0.5107422c-0.1928711-0.1240234-0.3950195-0.1865234-0.605957-0.1865234
			c-0.3237305,0-0.6137695,0.125-0.8696289,0.375C92.253746,114.461586,92.104332,114.8092422,92.0613632,115.2545547z"/>
		<path id="XMLID_171_" class="st0" d="M99.5950546,121.2662735h-2.5751953v-10.4150391h2.5751953v0.4589844H97.897789v9.5029297
			h1.6972656V121.2662735z"/>
		<path id="XMLID_173_" class="st0" d="M106.5833359,110.8512344h2.5761719v10.4208984h-2.5761719v-0.4589844h1.6972656v-9.5029297
			h-1.6972656V110.8512344z"/>
	</g>
	<g id="XMLID_13_">
		<path id="XMLID_163_" class="st0" d="M101.9173203,113.7906876h3.71875v0.1445313l-4.0517578,4.1826172h1.7148438
			c0.40625,0,0.6640625-0.015625,0.7734375-0.046875c0.109375-0.0302734,0.2099609-0.0966797,0.3007813-0.1972656
			c0.0917969-0.1005859,0.1943359-0.2822266,0.3076172-0.5458984h0.2167969l-0.5097656,1.5800781h-3.8115234v-0.1689453
			l4.0517578-4.1816406h-1.6855469c-0.3554688,0-0.5703125,0.0097656-0.6445313,0.0292969
			c-0.109375,0.0224609-0.2177734,0.0839844-0.3251953,0.1826172s-0.2177734,0.2626953-0.3310547,0.4912109h-0.2216797
			L101.9173203,113.7906876z"/>
	</g>
</g>
<g id="XMLID_15_">
	<g id="XMLID_17_">
		<path id="XMLID_155_" class="st0" d="M5.0242515,41.6935234v0.2148438H1.6311849v-0.2148438h0.2802734
			c0.3271483,0,0.564453-0.0947266,0.7124022-0.2851563c0.09375-0.1230469,0.1401367-0.421875,0.1401367-0.8945313V35.425457
			c0-0.3989258-0.0253906-0.6621094-0.0756836-0.7900391c-0.0390625-0.0966797-0.1191406-0.1801758-0.2397461-0.2495117
			c-0.1713867-0.0932617-0.3500977-0.1396484-0.5371093-0.1396484H1.6311849V34.031414h3.3930664v0.2148438H4.7381186
			c-0.3232422,0-0.5585938,0.0947266-0.706543,0.284668c-0.0976565,0.1240234-0.1459963,0.4223633-0.1459963,0.8945313v5.0883789
			c0,0.3994141,0.0249023,0.6621094,0.0756836,0.7900391c0.0390627,0.0976563,0.1206057,0.1806641,0.2451174,0.25
			c0.1674805,0.0927734,0.3447266,0.1396484,0.5317383,0.1396484H5.0242515z"/>
		<path id="XMLID_157_" class="st0" d="M7.0393882,37.5631523c0.3891602-0.387207,0.6186523-0.6098633,0.6889648-0.6679688
			c0.175293-0.1469727,0.3637691-0.2612305,0.5664058-0.3427734c0.2026367-0.0810547,0.402832-0.1220703,0.6015625-0.1220703
			c0.3349609,0,0.6230469,0.097168,0.8642578,0.2905273c0.2412109,0.1938477,0.402832,0.4746094,0.4848633,0.8422852
			c0.4008789-0.4648438,0.7397461-0.7695313,1.0161133-0.9150391c0.2763672-0.1450195,0.5605469-0.2177734,0.8525391-0.2177734
			c0.2841797,0,0.5361328,0.0727539,0.7563477,0.2177734c0.2197266,0.1455078,0.394043,0.3828125,0.5224609,0.7119141
			c0.0859375,0.2246094,0.128418,0.5771484,0.128418,1.0571289v2.2890625c0,0.3330078,0.0253906,0.5615234,0.0761719,0.6855469
			c0.0390625,0.0849609,0.1108398,0.1572266,0.2158203,0.2177734c0.1054688,0.0595703,0.2768555,0.0898438,0.5141602,0.0898438
			v0.2089844h-2.6396484v-0.2089844h0.1108398c0.2299805,0,0.4086914-0.0449219,0.5375977-0.1337891
			c0.0893555-0.0615234,0.1533203-0.1601563,0.1923828-0.2958984c0.015625-0.0664063,0.0234375-0.2539063,0.0234375-0.5634766
			v-2.2890625c0-0.4335938-0.0527344-0.7397461-0.1577148-0.9179688c-0.1518555-0.2475586-0.3950195-0.371582-0.7299805-0.371582
			c-0.206543,0-0.4135742,0.0512695-0.6220703,0.1538086c-0.2080078,0.1025391-0.4604492,0.293457-0.7558594,0.5722656
			l-0.0117188,0.0639648l0.0117188,0.2495117v2.5390625c0,0.3632813,0.0200195,0.5898438,0.0610352,0.6796875
			c0.0410156,0.0888672,0.1176758,0.1630859,0.230957,0.2236328c0.112793,0.0595703,0.3051758,0.0898438,0.578125,0.0898438
			v0.2089844H8.4524736v-0.2089844c0.2958984,0,0.4995117-0.0351563,0.6103516-0.1044922
			c0.1108398-0.0703125,0.1875-0.1748047,0.2304688-0.3134766c0.0195313-0.0664063,0.0292969-0.2578125,0.0292969-0.5751953
			v-2.2890625c0-0.4335938-0.0639648-0.7456055-0.1928711-0.9350586c-0.1713867-0.2480469-0.4106445-0.3720703-0.7182617-0.3720703
			c-0.2099609,0-0.4184566,0.0561523-0.6245112,0.168457c-0.3232422,0.1704102-0.5727539,0.3623047-0.7475586,0.5751953v2.8525391
			c0,0.3486328,0.0239258,0.5751953,0.0727539,0.6796875s0.1206055,0.1826172,0.2163086,0.2353516
			c0.0952148,0.0517578,0.2890625,0.078125,0.5810547,0.078125v0.2089844H5.2639976v-0.2089844
			c0.2451172,0,0.4165039-0.0263672,0.5136719-0.078125c0.097168-0.0527344,0.1713867-0.1357422,0.222168-0.25
			C6.0501304,41.257,6.075521,41.0353203,6.075521,40.7062187v-2.0336914c0-0.5844727-0.0175781-0.9619141-0.0522461-1.1323242
			c-0.0273438-0.1279297-0.0703125-0.2163086-0.1289063-0.2646484c-0.0581055-0.0483398-0.1381836-0.0722656-0.2392578-0.0722656
			c-0.1088867,0-0.2392578,0.0288086-0.3911133,0.0869141l-0.0878906-0.2089844l1.6118164-0.6508789h0.2514648V37.5631523z"/>
		<path id="XMLID_159_" class="st0" d="M17.7874355,44.2667656h-2.5693369V33.8512383h2.5693369v0.4589844h-1.6933594v9.503418
			h1.6933594V44.2667656z"/>
		<path id="XMLID_161_" class="st0" d="M24.7571621,33.8512383h2.5693359V44.272625h-2.5693359v-0.4589844h1.6933594v-9.503418
			h-1.6933594V33.8512383z"/>
	</g>
	<g id="XMLID_16_">
		<path id="XMLID_153_" class="st0" d="M20.0882168,36.7906914h3.7080078v0.1450195l-4.0410156,4.1826172h1.7109375
			c0.4042969,0,0.6621094-0.015625,0.7705078-0.046875c0.109375-0.0302734,0.2099609-0.0966797,0.3007813-0.1972656
			c0.0917969-0.1005859,0.1943359-0.2822266,0.3066406-0.5458984h0.2158203l-0.5078125,1.5800781h-3.8017578v-0.1689453
			l4.0410156-4.1821289h-1.6816406c-0.3544922,0-0.5683594,0.0097656-0.6425781,0.0292969
			c-0.1083984,0.0229492-0.2167969,0.0839844-0.3242188,0.1826172c-0.1064453,0.0991211-0.2167969,0.2626953-0.3291016,0.4912109
			h-0.2226563L20.0882168,36.7906914z"/>
	</g>
</g>
<g id="XMLID_55_">
	<g id="XMLID_59_">
		<path id="XMLID_151_" class="st0" d="M70.3875351,102.5270157v0.3291016
			c-1.0087891-0.6621094-1.7949219-1.6328125-2.3574219-2.9130859c-0.5615234-1.2802734-0.8427734-2.6806641-0.8427734-4.203125
			c0-1.5830078,0.2949219-3.0244141,0.8867188-4.3251953c0.5908203-1.300293,1.3623047-2.2304688,2.3134766-2.7905273v0.3208008
			c-0.4755859,0.3461914-0.8662109,0.8193359-1.171875,1.4199219c-0.3046875,0.6005859-0.5332031,1.362793-0.6835938,2.2866211
			s-0.2265625,1.887207-0.2265625,2.8901367c0,1.1347656,0.0703125,2.1601563,0.2089844,3.0771484
			c0.1396484,0.9160156,0.3515625,1.6757813,0.6376953,2.2783203
			C69.4383163,101.5006485,69.8494492,102.0436172,70.3875351,102.5270157z"/>
	</g>
	<g id="XMLID_58_">
		<path id="XMLID_149_" class="st0" d="M78.3982773,88.9449844v-0.3208008c1.0087891,0.6567383,1.7939453,1.625,2.3564453,2.9052734
			c0.5625,1.2797852,0.84375,2.6811523,0.84375,4.2026367c0,1.5830078-0.2958984,3.0263672-0.8867188,4.3291016
			c-0.5917969,1.3027344-1.3623047,2.234375-2.3134766,2.7949219v-0.3291016
			c0.4794922-0.3457031,0.8720703-0.8193359,1.1767578-1.4199219c0.3056641-0.6005859,0.5322266-1.3613281,0.6816406-2.2822266
			c0.1484375-0.921875,0.2226563-1.8857422,0.2226563-2.8945313c0-1.1293945-0.0683594-2.1538086-0.2050781-3.0727539
			c-0.1376953-0.918457-0.3505859-1.6796875-0.6376953-2.2827148
			C79.3484726,89.9718399,78.9353867,89.4283829,78.3982773,88.9449844z"/>
	</g>
	<g id="XMLID_57_">
		<path id="XMLID_140_" class="st0" d="M53.3909492,97.8443985c-0.5522461,0.4238281-0.8989258,0.6689453-1.0400391,0.734375
			c-0.2114258,0.0976563-0.4365234,0.1455078-0.6757813,0.1455078c-0.3720703,0-0.6782227-0.1259766-0.9194336-0.3789063
			c-0.2407227-0.2519531-0.3613281-0.5839844-0.3613281-0.9960938c0-0.2607422,0.059082-0.4863281,0.1762695-0.6767578
			c0.1606445-0.2636719,0.4399414-0.5126953,0.8374023-0.7460938c0.3974609-0.2324219,1.0585938-0.5161133,1.9829102-0.8505859
			v-0.2099609c0-0.5322266-0.0854492-0.8974609-0.2558594-1.0957031s-0.4179688-0.2973633-0.7431641-0.2973633
			c-0.246582,0-0.4423828,0.0664063-0.5874023,0.1982422c-0.1489258,0.1323242-0.2231445,0.2836914-0.2231445,0.4545898
			l0.0117188,0.3383789c0,0.1787109-0.0458984,0.3164063-0.1381836,0.4135742
			c-0.0917969,0.097168-0.2124023,0.1459961-0.3613281,0.1459961c-0.1450195,0-0.2631836-0.0507813-0.3554688-0.1518555
			c-0.0917969-0.1010742-0.1381836-0.2387695-0.1381836-0.4135742c0-0.3344727,0.1723633-0.6411133,0.5170898-0.9208984
			s0.8286133-0.4199219,1.4511719-0.4199219c0.4780273,0,0.8696289,0.0795898,1.175293,0.2392578
			c0.230957,0.1201172,0.4013672,0.3085938,0.5107422,0.5654297c0.0708008,0.1669922,0.105957,0.5087891,0.105957,1.0253906
			v1.8129883c0,0.5087891,0.0097656,0.8212891,0.0292969,0.9355469s0.0517578,0.1914063,0.097168,0.2304688
			c0.0449219,0.0390625,0.0966797,0.0576172,0.1557617,0.0576172c0.0625,0,0.1171875-0.0136719,0.1640625-0.0400391
			c0.0825195-0.0507813,0.2412109-0.1923828,0.4760742-0.4257813v0.3261719
			c-0.4384766,0.5830078-0.8579102,0.8740234-1.2573242,0.8740234c-0.1918945,0-0.3447266-0.0654297-0.4580078-0.1972656
			C53.4534492,98.3883438,53.3948555,98.1627579,53.3909492,97.8443985z M53.3909492,97.4654922v-2.0341797
			c-0.5917969,0.2333984-0.9736328,0.3984375-1.1459961,0.4951172c-0.309082,0.171875-0.5307617,0.3496094-0.6635742,0.5371094
			c-0.1333008,0.1865234-0.199707,0.3896484-0.199707,0.6113281c0,0.2802734,0.0839844,0.5126953,0.2524414,0.6972656
			s0.3623047,0.2763672,0.581543,0.2763672C52.5135078,98.0485001,52.9051094,97.8541641,53.3909492,97.4654922z"/>
		<path id="XMLID_143_" class="st0" d="M57.1844063,93.1173477v1.2006836
			c0.4501953-0.800293,0.9125977-1.2006836,1.3862305-1.2006836c0.215332,0,0.3935547,0.0654297,0.534668,0.1953125
			c0.1411133,0.1303711,0.2114258,0.2807617,0.2114258,0.4516602c0,0.1518555-0.0507813,0.2797852-0.152832,0.3847656
			c-0.1015625,0.1049805-0.2231445,0.1572266-0.3642578,0.1572266c-0.1367188,0-0.2905273-0.0668945-0.4609375-0.2006836
			c-0.1704102-0.1342773-0.296875-0.2011719-0.3789063-0.2011719c-0.0708008,0-0.1469727,0.0385742-0.2290039,0.1162109
			c-0.1762695,0.159668-0.3583984,0.421875-0.5463867,0.7871094v2.559082c0,0.2949219,0.0371094,0.5185547,0.1113281,0.6699219
			c0.0507813,0.1054688,0.1411133,0.1923828,0.2705078,0.2626953c0.1289063,0.0693359,0.3149414,0.1044922,0.5581055,0.1044922
			v0.2099609h-2.7553711v-0.2099609c0.2739258,0,0.4775391-0.0429688,0.6108398-0.1279297
			c0.0976563-0.0625,0.1665039-0.1611328,0.2055664-0.2978516c0.0195313-0.0654297,0.0292969-0.2539063,0.0292969-0.5654297
			v-2.0688477c0-0.621582-0.0126953-0.9916992-0.0380859-1.1103516c-0.0253906-0.1181641-0.0722656-0.2045898-0.1411133-0.2592773
			c-0.0683594-0.0541992-0.1538086-0.081543-0.2553711-0.081543c-0.121582,0-0.2583008,0.0292969-0.4111328,0.0874023
			l-0.059082-0.2099609l1.6274414-0.652832H57.1844063z"/>
		<path id="XMLID_145_" class="st0" d="M61.0081367,96.6666641c-0.3291016-0.1582031-0.581543-0.3808594-0.7578125-0.6669922
			s-0.2646484-0.6010742-0.2646484-0.9472656c0-0.5283203,0.2006836-0.9829102,0.6025391-1.3637695
			c0.4013672-0.3808594,0.9155273-0.5712891,1.5419922-0.5712891c0.5131836,0,0.9575195,0.1245117,1.3334961,0.3730469h1.1401405
			c0.1679688,0,0.2661133,0.0048828,0.293457,0.0146484s0.046875,0.0263672,0.0585938,0.0493164
			c0.0239258,0.0351563,0.0356445,0.0976563,0.0356445,0.1865234c0,0.1015625-0.0097656,0.1713867-0.0297852,0.2099609
			c-0.0117188,0.0195313-0.0322266,0.0351563-0.0615234,0.046875s-0.128418,0.0175781-0.2963867,0.0175781h-0.6992226
			c0.2192421,0.2797852,0.3291054,0.637207,0.3291054,1.0722656c0,0.4975586-0.1923828,0.9228516-0.5761757,1.2763672
			c-0.3837891,0.3535156-0.8989258,0.5302734-1.5449219,0.5302734c-0.2666016,0-0.5385742-0.0380859-0.8168945-0.1162109
			c-0.1723633,0.1474609-0.2885742,0.2763672-0.3491211,0.3876953c-0.0610352,0.1103516-0.0913086,0.2050781-0.0913086,0.2822266
			c0,0.0664063,0.0322266,0.1308594,0.097168,0.1923828c0.0644531,0.0625,0.190918,0.1074219,0.3789063,0.1347656
			c0.109375,0.0146484,0.3837891,0.0283203,0.8222656,0.0400391c0.8066406,0.0195313,1.3295898,0.046875,1.5688477,0.0820313
			c0.3642616,0.0507813,0.654789,0.1845703,0.8720741,0.4023438c0.2177734,0.2177734,0.3261719,0.4853516,0.3261719,0.8037109
			c0,0.4394531-0.2075195,0.8515625-0.6225586,1.2363281c-0.6108437,0.5673828-1.4082069,0.8505859-2.3911171,0.8505859
			c-0.7558594,0-1.3945313-0.1689453-1.9155273-0.5068359c-0.293457-0.1943359-0.4404297-0.3964844-0.4404297-0.6064453
			c0-0.0927734,0.0214844-0.1865234,0.0644531-0.2792969c0.0668945-0.1445313,0.2036133-0.3447266,0.4116211-0.6005859
			c0.0273438-0.0351563,0.2270508-0.2451172,0.5991211-0.6298828c-0.2036133-0.1201172-0.3476563-0.2275391-0.4321289-0.3232422
			c-0.0839844-0.0947266-0.1259766-0.203125-0.1259766-0.3232422c0-0.1367188,0.0556641-0.2958984,0.1674805-0.4785156
			C60.3470039,97.2594376,60.6048164,97.0016251,61.0081367,96.6666641z M60.949543,98.6139297
			c-0.1845703,0.1982422-0.3232422,0.3828125-0.4174805,0.5537109c-0.09375,0.1708984-0.140625,0.328125-0.140625,0.4716797
			c0,0.1865234,0.1132813,0.3505859,0.340332,0.4902344c0.3916016,0.2412109,0.9580078,0.3613281,1.6982422,0.3613281
			c0.7050781,0,1.2246094-0.1230469,1.5595703-0.3701172c0.3349648-0.2470703,0.5024452-0.5097656,0.5024452-0.7900391
			c0-0.2021484-0.1000977-0.3457031-0.2998047-0.4316406c-0.2036171-0.0849609-0.6069374-0.1357422-1.2099648-0.1513672
			C62.1009102,98.7242813,61.4231758,98.680336,60.949543,98.6139297z M62.0301094,93.3971329
			c-0.2895508,0-0.5322266,0.1147461-0.7280273,0.34375c-0.1962891,0.2294922-0.2939453,0.5810547-0.2939453,1.0551758
			c0,0.6142578,0.1333008,1.0893555,0.3994141,1.4282227c0.2036133,0.2568359,0.4619141,0.3847656,0.7753906,0.3847656
			c0.2978516,0,0.5424805-0.1103516,0.734375-0.3330078c0.1918945-0.2207031,0.2880859-0.5683594,0.2880859-1.0429688
			c0-0.6176758-0.1352539-1.1015625-0.4052734-1.4511719C62.6004219,93.5255508,62.343586,93.3971329,62.0301094,93.3971329z"/>
	</g>
	<g id="XMLID_56_">
		<path id="XMLID_138_" class="st0" d="M73.2576523,93.4786758h3.7304688v0.1459961l-4.0654297,4.1962891h1.7216797
			c0.4072266,0,0.6650391-0.015625,0.7753906-0.0458984c0.109375-0.03125,0.2099609-0.0976563,0.3017578-0.1982422
			c0.0927734-0.1015625,0.1953125-0.2841797,0.3085938-0.5478516h0.2177734l-0.5107422,1.5849609h-3.8251953v-0.1689453
			l4.0654297-4.1967773h-1.6914063c-0.3564453,0-0.5722656,0.0097656-0.6464844,0.0292969
			c-0.1103516,0.0229492-0.21875,0.0844727-0.3261719,0.1835938s-0.21875,0.2631836-0.3320313,0.4921875h-0.2236328
			L73.2576523,93.4786758z"/>
	</g>
</g>
<g id="XMLID_137_">
</g>
<g id="XMLID_187_">
</g>
<g id="XMLID_188_">
</g>
<g id="XMLID_189_">
</g>
<g id="XMLID_190_">
</g>
<g id="XMLID_191_">
</g>
</svg>
