<?xml version="1.0" encoding="utf-8"?>
<!-- Generator: Adobe Illustrator 19.0.0, SVG Export Plug-In . SVG Version: 6.00 Build 0)  -->
<svg version="1.1" id="Layer_1" xmlns="http://www.w3.org/2000/svg" xmlns:xlink="http://www.w3.org/1999/xlink" x="0px" y="0px"
	 viewBox="0 0 109.8333359 79" style="enable-background:new 0 0 109.8333359 79;" xml:space="preserve">
<style type="text/css">
	.st0{fill:#00AEEF;}
	.st1{fill:#010101;}
	.st2{fill:#EF4136;}
	.st3{fill:none;stroke:#010101;stroke-miterlimit:10;}
	.st4{fill:none;stroke:#000000;stroke-miterlimit:10;}
</style>
<polygon id="XMLID_17_" class="st0" points="51.0862236,29.1021175 62.9201698,18.1598873 66.6888657,22.427824 
	70.4019775,27.2947044 73.3806229,31.8230305 59.6212311,40.2188301 57.2872162,36.6652946 53.6839561,31.9983101 "/>
<g id="XMLID_1_">
	<g id="XMLID_12_">
		<g id="XMLID_13_">
			<polygon id="XMLID_14_" points="71.4905243,75.1660156 71.4905243,77.0812378 80.5,74.6687317 71.4905243,72.2521057 
				71.4905243,74.1674805 3.1666718,74.1674805 3.1666718,75.1660156 			"/>
		</g>
	</g>
</g>
<g id="XMLID_3_">
	<g id="XMLID_4_">
		<path id="XMLID_66_" class="st1" d="M86.6767578,71.4619141c0.1904297,0.203125,0.3349609,0.4072266,0.4321289,0.6103516
			c0.0698242,0.140625,0.1850586,0.5107422,0.3442383,1.1103516l0.5146484-0.7753906
			c0.1357422-0.1884766,0.3007813-0.3671875,0.4960938-0.5371094c0.1943359-0.1708984,0.3662109-0.2871094,0.5136719-0.3496094
			c0.09375-0.0390625,0.1962891-0.0585938,0.3095703-0.0585938c0.1669922,0,0.3007813,0.0449219,0.4003906,0.1347656
			c0.0986328,0.0898438,0.1484375,0.2001953,0.1484375,0.3291016c0,0.1484375-0.0292969,0.25-0.0878906,0.3046875
			c-0.1083984,0.0986328-0.2333984,0.1474609-0.3730469,0.1474609c-0.0820313,0-0.1699219-0.0175781-0.2626953-0.0527344
			c-0.1835938-0.0625-0.3056641-0.0947266-0.3681641-0.0947266c-0.09375,0-0.2041016,0.0556641-0.3330078,0.1650391
			c-0.2412109,0.203125-0.5292969,0.5966797-0.8642578,1.1796875l0.4785156,2.0195313
			c0.0742188,0.3095703,0.1367188,0.4951172,0.1875,0.5556641c0.0498047,0.0605469,0.1005859,0.0908203,0.1513672,0.0908203
			c0.0820313,0,0.1777344-0.0449219,0.2861328-0.1347656c0.2138672-0.1806641,0.3974609-0.4150391,0.5488281-0.7050781
			l0.2050781,0.1054688c-0.2451172,0.4619141-0.5566406,0.8457031-0.9345703,1.1513672
			c-0.2138672,0.171875-0.3955078,0.2578125-0.5429688,0.2578125c-0.21875,0-0.3916016-0.1230469-0.5205078-0.3691406
			c-0.0820313-0.1533203-0.2504883-0.8105469-0.5078125-1.9726563c-0.6069336,1.0605469-1.09375,1.7431641-1.4599609,2.0488281
			c-0.2373047,0.1953125-0.4672852,0.2929688-0.6889648,0.2929688c-0.1557617,0-0.2978516-0.0566406-0.4262695-0.1699219
			c-0.0932617-0.0859375-0.1401367-0.2011719-0.1401367-0.3466797c0-0.1289063,0.0429688-0.2363281,0.128418-0.3222656
			c0.0854492-0.0869141,0.190918-0.1298828,0.3154297-0.1298828s0.2568359,0.0625,0.3969727,0.1884766
			c0.1010742,0.0898438,0.1791992,0.1347656,0.2338867,0.1347656c0.0463867,0,0.1069336-0.03125,0.1806641-0.09375
			c0.1831055-0.1494141,0.4321289-0.4697266,0.7475586-0.9628906s0.5219727-0.8496094,0.6191406-1.0683594
			c-0.2412109-0.9511719-0.3720703-1.4541016-0.3911133-1.5097656c-0.0898438-0.2539063-0.206543-0.4345703-0.3505859-0.5400391
			S85.7070313,71.9375,85.4267578,71.9375c-0.0893555,0-0.1923828,0.0039063-0.309082,0.0117188v-0.2119141L86.6767578,71.4619141z"
			/>
	</g>
</g>
<g id="XMLID_2_">
	<g id="XMLID_36_">
		<g id="XMLID_37_">
			<polygon id="XMLID_38_" class="st2" points="52.1904144,45.3396301 53.187973,46.9745789 59.6223145,40.2225342 
				50.672699,42.8522034 51.6703339,44.4872742 2.906662,74.2405396 3.4267426,75.092926 			"/>
		</g>
	</g>
</g>
<g id="XMLID_6_">
	<g id="XMLID_7_">
		<path id="XMLID_64_" class="st1" d="M39.3222656,58.3837891v1.2353516
			c0.3583984-0.5629883,0.6733398-0.9370117,0.9428711-1.1220703c0.2705078-0.184082,0.5302734-0.2768555,0.78125-0.2768555
			c0.2167969,0,0.3886719,0.0673828,0.5185547,0.2011719c0.1289063,0.1342773,0.1933594,0.3237305,0.1933594,0.5683594
			c0,0.2602539-0.0625,0.4624023-0.1875,0.6064453c-0.1259766,0.1435547-0.2773438,0.215332-0.4550781,0.215332
			c-0.2041016,0-0.3818359-0.065918-0.5322266-0.1982422c-0.1503906-0.1318359-0.2392578-0.2055664-0.265625-0.2211914
			c-0.0390625-0.0234375-0.0839844-0.0351563-0.1328125-0.0351563c-0.1132813,0-0.21875,0.0429688-0.3183594,0.128418
			c-0.1586914,0.1318359-0.2783203,0.3203125-0.359375,0.5654297c-0.1235352,0.3769531-0.1850586,0.7924805-0.1850586,1.2475586
			v1.2524414l0.0053711,0.3261719c0,0.2216797,0.0136719,0.3632813,0.0405273,0.4257813
			c0.0463867,0.1044922,0.1147461,0.1816406,0.2055664,0.2304688c0.0908203,0.0478516,0.2441406,0.078125,0.4599609,0.0898438
			v0.2099609h-2.9223633v-0.2099609c0.2353516-0.0195313,0.3945313-0.0839844,0.4775391-0.1953125
			c0.0830078-0.1103516,0.1245117-0.4033203,0.1245117-0.8769531v-3.0131836c0-0.3105469-0.015625-0.5087891-0.0463867-0.5942383
			c-0.0385742-0.1088867-0.0947266-0.1884766-0.1679688-0.2392578c-0.0732422-0.050293-0.2026367-0.0854492-0.3876953-0.1049805
			v-0.215332H39.3222656z"/>
	</g>
</g>
<path id="XMLID_22_" class="st3" d="M36.6775589,17.6497517c5.8960533,3.4728069,11.2061729,7.8340683,15.7462921,12.8997211
	c2.6800652,2.9902878,5.0918121,6.2260246,7.1973801,9.6693573c2.3604622,3.8601646,4.3361282,7.9812202,5.8736572,12.3098297"/>
<line id="XMLID_8_" class="st4" x1="3.1666667" y1="74.6666641" x2="72.4718475" y2="9.1271973"/>
<path id="XMLID_16_" class="st3" d="M44.8450012,3.7533047c7.3330688,4.3192158,13.937397,9.7434254,19.5840607,16.0437031
	c3.3332596,3.7190952,6.3328094,7.7434654,8.951561,12.026022c2.9357605,4.8009815,5.3929443,9.9264431,7.3052139,15.3100414"/>
<line id="XMLID_5_" class="st4" x1="59.6212311" y1="40.2207642" x2="84.6035614" y2="24.9777298"/>
<g id="XMLID_10_">
	<g id="XMLID_15_">
		<path id="XMLID_62_" class="st1" d="M66.1142578,55.0219727l1.996582-0.3261719l-0.8330078,2.8325195
			c0.6748047-1.1616211,1.2885742-1.9736328,1.840332-2.4360352c0.3125-0.2646484,0.5673828-0.3964844,0.7636719-0.3964844
			c0.1269531,0,0.2275391,0.0375977,0.3007813,0.1137695c0.0732422,0.0756836,0.1103516,0.1855469,0.1103516,0.3291016
			c0,0.2563477-0.0654297,0.5014648-0.1972656,0.734375c-0.0917969,0.1748047-0.2255859,0.262207-0.3994141,0.262207
			c-0.0878906,0-0.1640625-0.0288086-0.2285156-0.0874023c-0.0634766-0.0581055-0.1025391-0.1474609-0.1181641-0.2680664
			c-0.0078125-0.0737305-0.0253906-0.1225586-0.0517578-0.1455078c-0.03125-0.03125-0.0683594-0.046875-0.1103516-0.046875
			c-0.0654297,0-0.1269531,0.015625-0.1855469,0.046875c-0.0996094,0.0541992-0.2529297,0.2060547-0.4570313,0.4545898
			c-0.3203125,0.3808594-0.6674805,0.8740234-1.0415039,1.4804688c-0.1621094,0.2568359-0.3012695,0.5458984-0.4169922,0.8681641
			c-0.1616211,0.4433594-0.2543945,0.7089844-0.2773438,0.7988281l-0.1855469,0.734375h-0.8852539l1.0708008-3.6196289
			c0.1230469-0.4194336,0.1850586-0.71875,0.1850586-0.8974609c0-0.0703125-0.0288086-0.128418-0.0869141-0.1748047
			c-0.0771484-0.0625-0.1791992-0.0932617-0.3066406-0.0932617c-0.0810547,0-0.2294922,0.0170898-0.4458008,0.0522461
			L66.1142578,55.0219727z"/>
	</g>
</g>
<path id="XMLID_25_" class="st3" d="M15.189002,67.3276901C16.4964466,69.4649048,17.25,71.9777832,17.25,74.6666641"/>
<path id="XMLID_9_" class="st3" d="M17.9093266,60.7253494c0.8597431,0.908844,1.6363525,1.8971443,2.3176632,2.9527321"/>
<g id="XMLID_27_">
	<g id="XMLID_28_">
		<path id="XMLID_58_" class="st1" d="M23.4946289,68.8662109c0.5117188-1.5361328,1.2167969-2.7197266,2.1162109-3.5507813
			c0.6777344-0.6240234,1.3466797-0.9365234,2.0048828-0.9365234c0.6386719,0,1.0839844,0.3007813,1.3359375,0.9013672
			c0.3525391,0.8378906,0.2861328,1.9794922-0.1933594,3.4228516c-0.4570313,1.3730469-1.1259766,2.4570313-2.0097656,3.2529297
			c-0.6884766,0.6162109-1.3598633,0.9248047-2.0141602,0.9248047c-0.3535156,0-0.6479492-0.0859375-0.8833008-0.2578125
			c-0.234375-0.1708984-0.4111328-0.4199219-0.5297852-0.7431641c-0.1176758-0.3232422-0.1762695-0.6669922-0.1772461-1.0292969
			C23.1459961,70.2255859,23.262207,69.5654297,23.4946289,68.8662109z M24.6196289,68.8369141
			c-0.215332,0.6953125-0.3701172,1.3183594-0.4648438,1.8730469c-0.0737305,0.421875-0.0810547,0.7871094-0.0209961,1.0996094
			c0.034668,0.1875,0.1240234,0.3466797,0.2670898,0.4775391c0.144043,0.1308594,0.3222656,0.1953125,0.5361328,0.1953125
			c0.2490234,0,0.5253906-0.1171875,0.8271484-0.3515625c0.3017578-0.2333984,0.5957031-0.609375,0.8837891-1.1279297
			c0.2871094-0.5195313,0.5957031-1.2412109,0.9267578-2.1660156H24.6196289z M27.7143555,68.4521484
			C28.050293,67.4335938,28.2250977,66.6162109,28.2387695,66c0.0087891-0.4716797-0.0742188-0.8095703-0.2529297-1.0126953
			c-0.1298828-0.1474609-0.3105469-0.2226563-0.5449219-0.2226563c-0.2646484,0-0.5429688,0.1035156-0.8330078,0.3105469
			s-0.5742188,0.5517578-0.8496094,1.0361328c-0.2763672,0.4833984-0.6132813,1.2636719-1.0102539,2.3408203H27.7143555z"/>
	</g>
</g>
<g id="XMLID_29_">
	<g id="XMLID_31_">
		<path id="XMLID_55_" class="st1" d="M7.3251953,56.8579102c-0.2612305,0.2734375-0.5166016,0.46875-0.7661133,0.5878906
			s-0.5185547,0.1787109-0.8071289,0.1787109c-0.5849609,0-1.0957031-0.2451172-1.5327148-0.734375
			c-0.4365234-0.4892578-0.6547852-1.1191406-0.6547852-1.8867188c0-0.7685547,0.2416992-1.4716797,0.7250977-2.1098633
			c0.4833984-0.6376953,1.1054688-0.956543,1.8657227-0.956543c0.472168,0,0.8618164,0.1499023,1.1699219,0.4501953v-0.9887695
			c0-0.6123047-0.0146484-0.9887695-0.0439453-1.1289063c-0.0292969-0.140625-0.074707-0.2363281-0.137207-0.2871094
			c-0.0625-0.050293-0.140625-0.0756836-0.2338867-0.0756836c-0.1015625,0-0.2363281,0.03125-0.4038086,0.0932617
			l-0.0761719-0.2045898l1.597168-0.6552734h0.2631836v6.1962891c0,0.6279297,0.0146484,1.0117188,0.0439453,1.1494141
			c0.0292969,0.1386719,0.0756836,0.2353516,0.1401367,0.2900391s0.1396484,0.0820313,0.2250977,0.0820313
			c0.1054688,0,0.2456055-0.0332031,0.4213867-0.0996094l0.0644531,0.2050781l-1.5913086,0.6611328h-0.269043V56.8579102z
			 M7.3251953,56.4477539v-2.7617188c-0.0234375-0.2646484-0.0932617-0.5068359-0.2104492-0.7250977
			s-0.2719727-0.3833008-0.4648438-0.4946289c-0.1933594-0.1108398-0.3813477-0.1665039-0.5644531-0.1665039
			c-0.3432617,0-0.6494141,0.1538086-0.918457,0.4619141c-0.3549805,0.4057617-0.5322266,0.9985352-0.5322266,1.7788086
			c0,0.7880859,0.1713867,1.3916016,0.5146484,1.8115234c0.3432617,0.4189453,0.7250977,0.6289063,1.1464844,0.6289063
			C6.6508789,56.980957,6.9936523,56.8032227,7.3251953,56.4477539z"/>
	</g>
	<g id="XMLID_30_">
		<path id="XMLID_51_" class="st1" d="M10.9716797,53.6342773c0.5117188-1.5366211,1.2167969-2.7207031,2.1181641-3.5517578
			c0.6806641-0.6245117,1.3505859-0.9365234,2.0087891-0.9365234c0.6396484,0,1.0849609,0.3012695,1.3369141,0.9013672
			c0.3525391,0.8383789,0.2890625,1.9799805-0.1923828,3.4228516c-0.4570313,1.3740234-1.1289063,2.4580078-2.0146484,3.2539063
			c-0.6884766,0.6152344-1.3603516,0.9238281-2.015625,0.9238281c-0.3544922,0-0.6494141-0.0859375-0.8857422-0.2568359
			c-0.234375-0.171875-0.4111328-0.4199219-0.5292969-0.7431641c-0.1181641-0.3242188-0.1777344-0.6669922-0.1767578-1.0302734
			C10.6220703,54.9936523,10.7382813,54.3325195,10.9716797,53.6342773z M12.0976563,53.6049805
			c-0.2158203,0.6943359-0.3701172,1.3183594-0.4658203,1.8730469c-0.0732422,0.4199219-0.0810547,0.7871094-0.0214844,1.0996094
			c0.0351563,0.1865234,0.125,0.3457031,0.2675781,0.4765625c0.1445313,0.1308594,0.3242188,0.1953125,0.5371094,0.1953125
			c0.25,0,0.5253906-0.1162109,0.828125-0.3505859c0.3027344-0.2333984,0.5976563-0.609375,0.8857422-1.1298828
			c0.2880859-0.5175781,0.5976563-1.2392578,0.9287109-2.1640625H12.0976563z M15.1982422,53.21875
			c0.3359375-1.0180664,0.5097656-1.8354492,0.5234375-2.4516602c0.0107422-0.472168-0.0742188-0.8095703-0.2529297-1.012207
			c-0.1289063-0.1484375-0.3115234-0.2226563-0.5458984-0.2226563c-0.2646484,0-0.5429688,0.1040039-0.8339844,0.3105469
			s-0.5751953,0.5522461-0.8505859,1.0356445c-0.2763672,0.4838867-0.6142578,1.2636719-1.0117188,2.340332H15.1982422z"/>
	</g>
</g>
<g id="XMLID_24_">
	<g id="XMLID_33_">
		<path id="XMLID_48_" class="st1" d="M100.5927734,54.3994141c-0.2617188,0.2734375-0.5175781,0.46875-0.7666016,0.5878906
			c-0.25,0.1191406-0.5195313,0.1787109-0.8085938,0.1787109c-0.5849609,0-1.0966797-0.2451172-1.5341797-0.734375
			C97.046875,53.9423828,96.828125,53.3125,96.828125,52.5449219c0-0.7685547,0.2421875-1.4716797,0.7255859-2.1098633
			c0.484375-0.6376953,1.1064453-0.956543,1.8681641-0.956543c0.4716797,0,0.8623047,0.1499023,1.1708984,0.4501953v-0.9887695
			c0-0.6123047-0.0146484-0.9887695-0.0439453-1.1289063c-0.0292969-0.140625-0.0751953-0.2363281-0.1376953-0.2871094
			c-0.0625-0.050293-0.140625-0.0756836-0.234375-0.0756836c-0.1015625,0-0.2363281,0.03125-0.4033203,0.0932617
			l-0.0761719-0.2045898l1.5976563-0.6552734h0.2636719v6.1962891c0,0.6279297,0.0146484,1.0117188,0.0439453,1.1494141
			c0.0292969,0.1386719,0.0761719,0.2353516,0.140625,0.2900391s0.1396484,0.0820313,0.2255859,0.0820313
			c0.1054688,0,0.2460938-0.0332031,0.421875-0.0996094l0.0644531,0.2050781l-1.5927734,0.6611328h-0.2695313V54.3994141z
			 M100.5927734,53.9892578v-2.7617188c-0.0234375-0.2646484-0.09375-0.5068359-0.2109375-0.7250977
			s-0.2724609-0.3833008-0.4658203-0.4946289c-0.1923828-0.1108398-0.3808594-0.1665039-0.5644531-0.1665039
			c-0.34375,0-0.6503906,0.1538086-0.9189453,0.4619141c-0.3554688,0.4057617-0.5332031,0.9985352-0.5332031,1.7788086
			c0,0.7880859,0.171875,1.3916016,0.515625,1.8115234C98.7578125,54.3125,99.140625,54.5224609,99.5625,54.5224609
			C99.9169922,54.5224609,100.2607422,54.3447266,100.5927734,53.9892578z"/>
	</g>
	<g id="XMLID_32_">
		<path id="XMLID_44_" class="st1" d="M81.1264648,50.0341797l2.0200195-0.3276367l-0.8432617,2.8432617
			c0.6831055-1.1660156,1.3037109-1.980957,1.8623047-2.4453125c0.315918-0.2651367,0.5737305-0.3979492,0.7729492-0.3979492
			c0.128418,0,0.2299805,0.0380859,0.3041992,0.1142578s0.1113281,0.1860352,0.1113281,0.3305664
			c0,0.2573242-0.0664063,0.5029297-0.1992188,0.7373047c-0.09375,0.1757813-0.2280273,0.2626953-0.4038086,0.2626953
			c-0.0898438,0-0.1669922-0.0283203-0.2314453-0.0869141s-0.1044922-0.1484375-0.1201172-0.2695313
			c-0.0078125-0.0742188-0.0253906-0.1230469-0.0527344-0.1464844c-0.03125-0.0307617-0.0683594-0.0463867-0.1108398-0.0463867
			c-0.0664063,0-0.1289063,0.015625-0.1875,0.0463867c-0.1015625,0.0546875-0.2558594,0.2070313-0.4628906,0.4570313
			c-0.3237305,0.3818359-0.675293,0.8769531-1.0537109,1.4853516c-0.1640625,0.2578125-0.3046875,0.5488281-0.4213867,0.8720703
			c-0.1640625,0.4453125-0.2578125,0.7119141-0.28125,0.8017578l-0.1875,0.7373047h-0.8955078l1.0830078-3.6337891
			c0.125-0.4208984,0.1875-0.7216797,0.1875-0.9008789c0-0.0703125-0.0292969-0.1289063-0.0878906-0.1757813
			c-0.078125-0.0620117-0.1816406-0.0932617-0.3105469-0.0932617c-0.0820313,0-0.2319336,0.0175781-0.4506836,0.0527344
			L81.1264648,50.0341797z"/>
		<path id="XMLID_46_" class="st1" d="M103.0371094,50.0341797l2.0195313-0.3276367l-0.8427734,2.8432617
			c0.6826172-1.1660156,1.3037109-1.980957,1.8613281-2.4453125c0.3164063-0.2651367,0.5742188-0.3979492,0.7734375-0.3979492
			c0.1289063,0,0.2304688,0.0380859,0.3046875,0.1142578c0.0732422,0.0761719,0.1103516,0.1860352,0.1103516,0.3305664
			c0,0.2573242-0.0664063,0.5029297-0.1982422,0.7373047c-0.09375,0.1757813-0.2285156,0.2626953-0.4042969,0.2626953
			c-0.0898438,0-0.1669922-0.0283203-0.2314453-0.0869141s-0.1044922-0.1484375-0.1201172-0.2695313
			c-0.0078125-0.0742188-0.0253906-0.1230469-0.0527344-0.1464844c-0.03125-0.0307617-0.0683594-0.0463867-0.1113281-0.0463867
			c-0.0664063,0-0.1289063,0.015625-0.1875,0.0463867c-0.1015625,0.0546875-0.2548828,0.2070313-0.4619141,0.4570313
			c-0.3242188,0.3818359-0.6757813,0.8769531-1.0537109,1.4853516c-0.1640625,0.2578125-0.3046875,0.5488281-0.421875,0.8720703
			c-0.1640625,0.4453125-0.2578125,0.7119141-0.28125,0.8017578l-0.1875,0.7373047H102.65625l1.0830078-3.6337891
			c0.125-0.4208984,0.1875-0.7216797,0.1875-0.9008789c0-0.0703125-0.0292969-0.1289063-0.0878906-0.1757813
			c-0.078125-0.0620117-0.1816406-0.0932617-0.3105469-0.0932617c-0.0820313,0-0.2324219,0.0175781-0.4501953,0.0527344
			L103.0371094,50.0341797z"/>
	</g>
	<g id="XMLID_26_">
		<path id="XMLID_42_" class="st1" d="M90.8144531,48.8583984h0.5737305v2.796875h2.78125v0.5673828h-2.78125v2.7792969h-0.5737305
			v-2.7792969h-2.7929688v-0.5673828h2.7929688V48.8583984z"/>
	</g>
</g>
<g id="XMLID_19_">
	<g id="XMLID_21_">
		<path id="XMLID_39_" class="st1" d="M60.7910156,31.996582c-0.2631836,0.2734375-0.5205078,0.46875-0.7719727,0.5878906
			s-0.5224609,0.1787109-0.8129883,0.1787109c-0.5893555,0-1.1040039-0.2451172-1.5439453-0.734375
			s-0.659668-1.1191406-0.659668-1.8867188c0-0.7685547,0.2431641-1.4716797,0.7304688-2.1098633
			c0.4873047-0.6376953,1.1137695-0.956543,1.8798828-0.956543c0.4750977,0,0.8681641,0.1499023,1.1782227,0.4501953v-0.9887695
			c0-0.6123047-0.0146484-0.9887695-0.0439453-1.1289063c-0.0292969-0.140625-0.0756836-0.2363281-0.1386719-0.2871094
			c-0.0629883-0.050293-0.1411133-0.0756836-0.2353516-0.0756836c-0.1025391,0-0.237793,0.03125-0.4067383,0.0932617
			l-0.0766602-0.2045898l1.6088867-0.6552734h0.2651367v6.1962891c0,0.6279297,0.0146484,1.0117188,0.0439453,1.1494141
			c0.0292969,0.1386719,0.0766602,0.2353516,0.1416016,0.2900391c0.0644531,0.0546875,0.1401367,0.0820313,0.2265625,0.0820313
			c0.1064453,0,0.2475586-0.0332031,0.4238281-0.0996094l0.0654297,0.2050781l-1.6030273,0.6611328h-0.2709961V31.996582z
			 M60.7910156,31.5864258V28.824707c-0.0234375-0.2646484-0.0942383-0.5068359-0.2119141-0.7250977
			s-0.2739258-0.3833008-0.4682617-0.4946289c-0.1948242-0.1108398-0.3842773-0.1665039-0.5688477-0.1665039
			c-0.3457031,0-0.6542969,0.1538086-0.925293,0.4619141c-0.3574219,0.4057617-0.5361328,0.9985352-0.5361328,1.7788086
			c0,0.7880859,0.1728516,1.3916016,0.5185547,1.8115234c0.3457031,0.4189453,0.7304688,0.6289063,1.1547852,0.6289063
			C60.1113281,32.1196289,60.4570313,31.9418945,60.7910156,31.5864258z"/>
	</g>
	<g id="XMLID_20_">
		<path id="XMLID_23_" class="st1" d="M67.0185547,27.3037109l-0.359375,1.7963867h-0.2177734
			c-0.0195313-0.5224609-0.1318359-0.902832-0.3359375-1.1411133c-0.2041016-0.237793-0.4580078-0.3569336-0.7597656-0.3569336
			c-0.2441406,0-0.4375,0.0664063-0.5810547,0.1992188c-0.1435547,0.1323242-0.2148438,0.2924805-0.2148438,0.4794922
			c0,0.1289063,0.0283203,0.2519531,0.0859375,0.3691406c0.0566406,0.1162109,0.1816406,0.2802734,0.3740234,0.4912109
			c0.5107422,0.5537109,0.8398438,0.9716797,0.9892578,1.2519531c0.1494141,0.28125,0.2246094,0.5458984,0.2246094,0.7958984
			c0,0.4052734-0.1699219,0.765625-0.5097656,1.0791016c-0.3398438,0.3144531-0.7695313,0.4716797-1.2880859,0.4716797
			c-0.2822266,0-0.6083984-0.0664063-0.9775391-0.1992188c-0.1298828-0.046875-0.2304688-0.0703125-0.3007813-0.0703125
			c-0.1767578,0-0.3105469,0.0898438-0.4003906,0.2695313h-0.2177734l0.3583984-1.8955078h0.21875
			c0.0234375,0.5927734,0.1474609,1.0117188,0.3710938,1.2578125c0.2236328,0.2451172,0.5302734,0.3681641,0.9189453,0.3681641
			c0.2988281,0,0.5351563-0.0830078,0.7099609-0.2480469c0.1748047-0.1660156,0.2626953-0.3701172,0.2626953-0.6123047
			c0-0.1552734-0.03125-0.2998047-0.0947266-0.4326172c-0.109375-0.234375-0.3408203-0.5576172-0.6923828-0.9716797
			c-0.3515625-0.4130859-0.5771484-0.7226563-0.6777344-0.9296875c-0.0996094-0.2070313-0.1503906-0.4140625-0.1503906-0.6201172
			c0-0.3789063,0.1386719-0.6987305,0.4160156-0.9599609c0.2763672-0.2612305,0.6328125-0.3920898,1.0693359-0.3920898
			c0.1259766,0,0.2392578,0.0097656,0.3417969,0.0292969c0.0546875,0.0117188,0.1835938,0.0556641,0.3857422,0.1318359
			c0.2021484,0.0756836,0.3369141,0.1137695,0.4042969,0.1137695c0.1679688,0,0.3095703-0.0913086,0.4238281-0.2749023H67.0185547z"
			/>
	</g>
</g>
<g id="XMLID_18_">
</g>
<g id="XMLID_68_">
</g>
<g id="XMLID_69_">
</g>
<g id="XMLID_70_">
</g>
<g id="XMLID_71_">
</g>
<g id="XMLID_72_">
</g>
</svg>
