<?xml version="1.0" encoding="utf-8"?>
<!-- Generator: Adobe Illustrator 19.0.0, SVG Export Plug-In . SVG Version: 6.00 Build 0)  -->
<svg version="1.1" id="图层_1" xmlns="http://www.w3.org/2000/svg" xmlns:xlink="http://www.w3.org/1999/xlink" x="0px" y="0px"
	 viewBox="0 0 271.6666565 135.3333282" style="enable-background:new 0 0 271.6666565 135.3333282;" xml:space="preserve">
<style type="text/css">
	.st0{fill:#000100;fill-opacity:0;stroke:#BABBBE;}
	.st1{fill:#000100;fill-opacity:0;stroke:#BABBBD;stroke-linecap:round;stroke-linejoin:round;}
	.st2{fill:#F05457;fill-opacity:0.502;}
	.st3{fill:#B75E64;}
	.st4{fill:#98282C;}
	.st5{fill:#000100;fill-opacity:0;stroke:#BABBBD;}
	.st6{fill:#000100;fill-opacity:0;stroke:#BFC0C3;}
	.st7{fill:#000100;fill-opacity:0;stroke:#000100;}
	.st8{fill:#F69A9D;fill-opacity:0.809;}
	.st9{fill:none;stroke:#000100;}
	.st10{fill:#834649;fill-opacity:0.732;}
	.st11{fill:#BE6267;fill-opacity:0.869;}
	.st12{opacity:0;fill:#000100;}
	.st13{fill:#000100;}
	.st14{fill:#010101;}
	.st15{fill:#000100;stroke:#000100;}
	.st16{fill:none;stroke:#00AEEF;}
	.st17{fill:#1E1D58;}
	.st18{fill:#9795C9;}
	.st19{fill:#43479D;}
	.st20{fill:#8C8CC4;fill-opacity:0.777;}
	.st21{fill:#595BA8;fill-opacity:0.488;}
	.st22{fill:#5559A7;fill-opacity:0.627;}
	.st23{fill:none;stroke:#000000;}
	.st24{fill:none;stroke:#BFBEBE;}
	.st25{fill:none;stroke:#010101;}
	.st26{fill:#010101;fill-opacity:0;stroke:#000000;}
	.st27{fill:#010101;fill-opacity:0;stroke:#010101;}
</style>
<path class="st0" d="M158.5058594,70.2951279c0-5.5891113,24.5863037-10.1201706,54.9151917-10.1201706
	c30.3292389,0,54.9154358,4.5310593,54.9154358,10.1201706"/>
<path class="st1" d="M222.4017944,74.0568848c0.3728333-0.1399536,0.5835876-0.4549179,0.8505707-0.7289581"/>
<path class="st2" d="M232.2223053,43.5230942l1.7234802,7.070118l5.0475159-4.8588562l-3.3745575-9.0293045"/>
<path class="st3" d="M225.4736328,44.4725914l6.7486725-0.9494972l3.3964386-6.8180428l-6.9853058,0.7716599"/>
<path class="st4" d="M225.4736328,44.4725914l1.9098053,6.9192123l6.5623474-0.7985916l-1.7234802-7.070118L225.4736328,44.4725914z
	"/>
<path class="st5" d="M213.4438629,70.2186966l29.5532532,8.7062225"/>
<path class="st6" d="M213.4779816,70.1742325l20.1834412,9.4902344"/>
<path class="st7" d="M213.421051,127.956131c-30.3288879,0-54.9151917-24.5861816-54.9151917-54.9154205
	c0-30.3287773,24.5863037-54.9151993,54.9151917-54.9151993c30.3292389,0,54.9154358,24.5864239,54.9154358,54.9151993
	C268.3364868,103.3699493,243.7502899,127.956131,213.421051,127.956131z"/>
<path class="st7" d="M158.5058594,70.2951279c0,5.5890121,24.5863037,10.1199493,54.9151917,10.1199493
	c30.3292389,0,54.9154358-4.5309372,54.9154358-10.1199493"/>
<path class="st8" d="M228.7745667,37.4003792l2.3360291,9.1339874l7.8827057-1.0082932l-3.3745575-8.821022"/>
<path class="st9" d="M213.421051,18.1255093c16.3344269,0,29.5760651,24.5864239,29.5760651,54.9151993
	c0,30.3292389-13.2416382,54.9154205-29.5760651,54.9154205"/>
<path class="st10" d="M225.3585815,44.4725914l1.9599304,7.0003624l3.7920837-5.0491486l-2.3360291-9.0234261"/>
<path class="st11" d="M231.1105957,46.5343666l-3.7271576,4.8574371l6.5623474-0.7985916l5.0475159-5.0671387"/>
<path class="st7" d="M177.6499329,31.4878216c0,3.6407413,16.015213,6.5920086,35.7711182,6.5920086
	c19.7562561,0,35.7714691-2.9512672,35.7714691-6.5920086"/>
<path class="st7" d="M170.5210114,39.1951675c0,4.3661537,19.2068939,7.9058495,42.9000397,7.9058495
	c23.6934967,0,42.9002686-3.5396957,42.9002686-7.9058495"/>
<g>
	<line class="st12" x1="213.4210358" y1="127.9561234" x2="213.4210358" y2="5.6666646"/>
	<g>
		<g>
			<polygon class="st13" points="213.9203796,14.676137 215.8356171,14.676137 213.4231262,5.666677 211.0064697,14.676137 
				212.9218597,14.676137 212.9218597,127.9561386 213.9203796,127.9561386 			"/>
		</g>
	</g>
</g>
<path class="st7" d="M225.4736328,44.4725914l1.8448792,7.0003624"/>
<path class="st7" d="M227.318512,51.4729538l6.8378296-0.9495926"/>
<path class="st9" d="M213.421051,18.1255093c11.1784668,0,20.2403717,24.5864239,20.2403717,54.9151993
	c0,30.3292389-9.0619049,54.9154205-20.2403717,54.9154205"/>
<path class="st7" d="M213.421051,70.2951279l15.3535156-33.215374"/>
<path class="st7" d="M213.421051,70.2951279l17.6895447-23.7607613"/>
<path class="st7" d="M213.4779816,70.1742325l25.5153198-24.4398766"/>
<g>
	<g>
		<path class="st14" d="M251.3828125,57.5984688c-0.2636719,0.2734375-0.5205078,0.46875-0.7724609,0.5878906
			c-0.2509766,0.1191406-0.5224609,0.1787109-0.8125,0.1787109c-0.5898438,0-1.1044922-0.2451172-1.5439453-0.734375
			c-0.4404297-0.4892578-0.6601563-1.1191406-0.6601563-1.8867188c0-0.7685547,0.2431641-1.4716797,0.7304688-2.1098633
			c0.4873047-0.6376953,1.1142578-0.956543,1.8798828-0.956543c0.4755859,0,0.8681641,0.1499023,1.1787109,0.4501953v-0.9887695
			c0-0.6123047-0.0146484-0.9887695-0.0439453-1.1289063c-0.0292969-0.140625-0.0761719-0.2363281-0.1386719-0.2871094
			c-0.0634766-0.050293-0.1416016-0.0756836-0.2353516-0.0756836c-0.1025391,0-0.2382813,0.03125-0.4072266,0.0932617
			l-0.0761719-0.2045898l1.6083984-0.6552734h0.265625v6.1962891c0,0.6279297,0.0146484,1.0117188,0.0439453,1.1494141
			c0.0292969,0.1386719,0.0761719,0.2353516,0.1416016,0.2900391c0.0644531,0.0546875,0.1396484,0.0820313,0.2265625,0.0820313
			c0.1064453,0,0.2470703-0.0332031,0.4238281-0.0996094l0.0654297,0.2050781l-1.6035156,0.6611328h-0.2705078V57.5984688z
			 M251.3828125,57.1883125v-2.7617188c-0.0234375-0.2646484-0.0947266-0.5068359-0.2119141-0.7250977
			c-0.1181641-0.2182617-0.2744141-0.3833008-0.46875-0.4946289c-0.1943359-0.1108398-0.3837891-0.1665039-0.5683594-0.1665039
			c-0.3457031,0-0.6542969,0.1538086-0.9257813,0.4619141c-0.3574219,0.4057617-0.5361328,0.9985352-0.5361328,1.7788086
			c0,0.7880859,0.1728516,1.3916016,0.5185547,1.8115234c0.3457031,0.4189453,0.7304688,0.6289063,1.1552734,0.6289063
			C250.703125,57.7215157,251.0488281,57.5437813,251.3828125,57.1883125z"/>
	</g>
	<g>
		<path class="st14" d="M253.8632813,53.2332344l2.0322266-0.3276367l-0.8486328,2.8432617
			c0.6875-1.1660156,1.3125-1.980957,1.8740234-2.4453125c0.3183594-0.2651367,0.578125-0.3979492,0.7783203-0.3979492
			c0.1298828,0,0.2314453,0.0380859,0.3066406,0.1142578c0.0742188,0.0761719,0.1113281,0.1860352,0.1113281,0.3305664
			c0,0.2573242-0.0664063,0.5029297-0.2001953,0.7373047c-0.0947266,0.1757813-0.2294922,0.2626953-0.40625,0.2626953
			c-0.0908203,0-0.1679688-0.0283203-0.2333984-0.0869141c-0.0644531-0.0585938-0.1044922-0.1484375-0.1201172-0.2695313
			c-0.0078125-0.0742188-0.0263672-0.1230469-0.0537109-0.1464844c-0.03125-0.0307617-0.0683594-0.0463867-0.1113281-0.0463867
			c-0.0673828,0-0.1298828,0.015625-0.1884766,0.0463867c-0.1025391,0.0546875-0.2578125,0.2070313-0.4658203,0.4570313
			c-0.3261719,0.3818359-0.6796875,0.8769531-1.0605469,1.4853516c-0.1650391,0.2578125-0.3066406,0.5488281-0.4248047,0.8720703
			c-0.1650391,0.4453125-0.2587891,0.7119141-0.2822266,0.8017578l-0.1884766,0.7373047h-0.9023438l1.0908203-3.6337891
			c0.125-0.4208984,0.1884766-0.7216797,0.1884766-0.9008789c0-0.0703125-0.0292969-0.1289063-0.0888672-0.1757813
			c-0.078125-0.0620117-0.1826172-0.0932617-0.3125-0.0932617c-0.0820313,0-0.2333984,0.0175781-0.453125,0.0527344
			L253.8632813,53.2332344z"/>
	</g>
</g>
<g>
	<g>
		<path class="st14" d="M219.2480469,96.4065781c-0.2612305,0.2714844-0.5166016,0.4658203-0.7661133,0.5839844
			s-0.5185547,0.1777344-0.8071289,0.1777344c-0.5849609,0-1.0957031-0.2431641-1.5327148-0.7294922
			c-0.4365234-0.4863281-0.6547852-1.1103516-0.6547852-1.8730469c0-0.7636719,0.2416992-1.4619141,0.7250977-2.0947266
			s1.1054688-0.9501953,1.8657227-0.9501953c0.472168,0,0.8618164,0.1494141,1.1699219,0.4472656v-0.9814453
			c0-0.6074219-0.0146484-0.9814453-0.0439453-1.1210938s-0.074707-0.234375-0.137207-0.2841797
			c-0.0625-0.0507813-0.140625-0.0761719-0.2338867-0.0761719c-0.1015625,0-0.2363281,0.03125-0.4038086,0.0927734
			l-0.0761719-0.203125l1.597168-0.6503906h0.2631836v6.1513672c0,0.6240234,0.0146484,1.0048828,0.0439453,1.1425781
			c0.0292969,0.1367188,0.0756836,0.2333984,0.1401367,0.2871094c0.0644531,0.0546875,0.1396484,0.0810547,0.2250977,0.0810547
			c0.1054688,0,0.2456055-0.0322266,0.4213867-0.0986328l0.0644531,0.203125l-1.5913086,0.6572266h-0.269043V96.4065781z
			 M219.2480469,96.0003281v-2.7421875c-0.0234375-0.2636719-0.0932617-0.5029297-0.2104492-0.7207031
			c-0.1171875-0.2167969-0.2719727-0.3798828-0.4648438-0.4902344c-0.1933594-0.1103516-0.3813477-0.1660156-0.5644531-0.1660156
			c-0.3432617,0-0.6494141,0.1533203-0.918457,0.4589844c-0.3549805,0.4033203-0.5322266,0.9912109-0.5322266,1.7666016
			c0,0.7822266,0.1713867,1.3818359,0.5146484,1.7978516s0.7250977,0.6240234,1.1464844,0.6240234
			C218.5732422,96.5286484,218.9165039,96.3528671,219.2480469,96.0003281z"/>
	</g>
	<g>
		<path class="st14" d="M226.3344727,91.5608749c0.7470703,0.0859375,1.2363281,0.3896484,1.4697266,0.9121094
			c0.2314453,0.5234375,0.2255859,1.1484375-0.0195313,1.8769531c-0.1113281,0.3330078-0.2685547,0.6552734-0.4707031,0.9677734
			c-0.2021484,0.3105469-0.421875,0.5839844-0.6572266,0.8183594c-0.2373047,0.234375-0.4794922,0.4287109-0.7246094,0.5810547
			c-0.2470703,0.1533203-0.5009766,0.2705078-0.7617188,0.3515625c-0.1826172,0.0546875-0.4257813,0.0986328-0.7294922,0.1337891
			l-0.8066406,2.4042969h-0.6552734l0.8066406-2.4042969c-0.5693359-0.0585938-0.9833984-0.2421875-1.2412109-0.5517578
			c-0.4550781-0.5390625-0.5214844-1.2880859-0.1992188-2.2490234c0.1269531-0.3798828,0.2900391-0.7207031,0.4892578-1.0224609
			s0.4199219-0.5673828,0.6621094-0.7958984c0.2421875-0.2275391,0.4863281-0.4150391,0.7314453-0.5595703
			c0.2460938-0.1455078,0.4931641-0.2548828,0.7392578-0.3291016c0.1787109-0.0537109,0.4160156-0.0976563,0.7119141-0.1337891
			l0.9335938-2.78125h0.6552734L226.3344727,91.5608749z M225.5600586,91.9163437
			c-0.2773438,0.0615234-0.5039063,0.1464844-0.6767578,0.2548828c-0.2802734,0.1738281-0.5419922,0.4228516-0.7851563,0.7460938
			c-0.2431641,0.3242188-0.4580078,0.7626953-0.6435547,1.3164063c-0.2060547,0.6113281-0.2949219,1.1123047-0.2675781,1.5009766
			c0.0273438,0.390625,0.125,0.6835938,0.2929688,0.8808594c0.0761719,0.0976563,0.2167969,0.1777344,0.4208984,0.2431641
			L225.5600586,91.9163437z M224.5561523,96.8587265c0.2558594-0.0537109,0.4667969-0.1308594,0.6337891-0.2314453
			c0.3037109-0.1855469,0.5771484-0.4433594,0.8212891-0.7724609c0.2431641-0.3300781,0.4628906-0.7880859,0.6611328-1.3769531
			c0.1806641-0.5380859,0.2724609-0.9941406,0.2773438-1.3681641c0.0039063-0.3730469-0.0673828-0.6611328-0.2138672-0.8632813
			c-0.0957031-0.1318359-0.2695313-0.2412109-0.5205078-0.3300781L224.5561523,96.8587265z"/>
	</g>
</g>
<path class="st15" d="M219.8061066,56.4818802c1.173111,1.2270317,1.6116638,1.9636841,1.8741302,2.719429"/>
<g>
	<g>
		<path class="st14" d="M197.3291016,57.8289375c-0.2612305,0.2734375-0.5166016,0.46875-0.7661133,0.5878906
			s-0.5185547,0.1787109-0.8071289,0.1787109c-0.5849609,0-1.0957031-0.2451172-1.5327148-0.734375
			c-0.4365234-0.4892578-0.6547852-1.1191406-0.6547852-1.8867188c0-0.7685547,0.2416992-1.4716797,0.7250977-2.1098633
			c0.4833984-0.6376953,1.1054688-0.956543,1.8657227-0.956543c0.472168,0,0.8618164,0.1499023,1.1699219,0.4501953v-0.9887695
			c0-0.6123047-0.0146484-0.9887695-0.0439453-1.1289063c-0.0292969-0.140625-0.074707-0.2363281-0.137207-0.2871094
			c-0.0625-0.050293-0.140625-0.0756836-0.2338867-0.0756836c-0.1015625,0-0.2363281,0.03125-0.4038086,0.0932617
			l-0.0761719-0.2045898l1.597168-0.6552734h0.2631836v6.1962891c0,0.6279297,0.0146484,1.0117188,0.0439453,1.1494141
			c0.0292969,0.1386719,0.0756836,0.2353516,0.1401367,0.2900391s0.1396484,0.0820313,0.2250977,0.0820313
			c0.1054688,0,0.2456055-0.0332031,0.4213867-0.0996094l0.0644531,0.2050781l-1.5913086,0.6611328h-0.269043V57.8289375z
			 M197.3291016,57.4187813v-2.7617188c-0.0234375-0.2646484-0.0932617-0.5068359-0.2104492-0.7250977
			s-0.2719727-0.3833008-0.4648438-0.4946289c-0.1933594-0.1108398-0.3813477-0.1665039-0.5644531-0.1665039
			c-0.3432617,0-0.6494141,0.1538086-0.918457,0.4619141c-0.3549805,0.4057617-0.5322266,0.9985352-0.5322266,1.7788086
			c0,0.7880859,0.1713867,1.3916016,0.5146484,1.8115234c0.3432617,0.4189453,0.7250977,0.6289063,1.1464844,0.6289063
			C196.6547852,57.9519844,196.9975586,57.77425,197.3291016,57.4187813z"/>
	</g>
	<g>
		<path class="st14" d="M200.9755859,54.6053047c0.5117188-1.5366211,1.2167969-2.7207031,2.1181641-3.5517578
			c0.6806641-0.6245117,1.3505859-0.9365234,2.0087891-0.9365234c0.6396484,0,1.0849609,0.3012695,1.3369141,0.9013672
			c0.3525391,0.8383789,0.2890625,1.9799805-0.1923828,3.4228516c-0.4570313,1.3740234-1.1289063,2.4580078-2.0146484,3.2539063
			c-0.6884766,0.6152344-1.3603516,0.9238281-2.015625,0.9238281c-0.3544922,0-0.6494141-0.0859375-0.8857422-0.2568359
			c-0.234375-0.171875-0.4111328-0.4199219-0.5292969-0.7431641c-0.1181641-0.3242188-0.1777344-0.6669922-0.1767578-1.0302734
			C200.6259766,55.9646797,200.7421875,55.3035469,200.9755859,54.6053047z M202.1015625,54.5760078
			c-0.2158203,0.6943359-0.3701172,1.3183594-0.4658203,1.8730469c-0.0732422,0.4199219-0.0810547,0.7871094-0.0214844,1.0996094
			c0.0351563,0.1865234,0.125,0.3457031,0.2675781,0.4765625c0.1445313,0.1308594,0.3242188,0.1953125,0.5371094,0.1953125
			c0.25,0,0.5253906-0.1162109,0.828125-0.3505859c0.3027344-0.2333984,0.5976563-0.609375,0.8857422-1.1298828
			c0.2880859-0.5175781,0.5976563-1.2392578,0.9287109-2.1640625H202.1015625z M205.2021484,54.1897774
			c0.3359375-1.0180664,0.5097656-1.8354492,0.5234375-2.4516602c0.0107422-0.472168-0.0742188-0.8095703-0.2529297-1.012207
			c-0.1289063-0.1484375-0.3115234-0.2226563-0.5458984-0.2226563c-0.2646484,0-0.5429688,0.1040039-0.8339844,0.3105469
			s-0.5751953,0.5522461-0.8505859,1.0356445c-0.2763672,0.4838867-0.6142578,1.2636719-1.0117188,2.340332H205.2021484z"/>
	</g>
</g>
<path class="st16" d="M236.3910522,50.5233612c1.4357452,2.5682602,3.9483185,4.2732124,7.8966217,4.9013519"/>
<line class="st16" x1="221.6802368" y1="76.4225464" x2="220.7431793" y2="86.8317337"/>
<line class="st16" x1="210.1886292" y1="53.687439" x2="218.0852509" y2="56.469677"/>
<path id="XMLID_63_" class="st17" d="M71.541069,67.0287018l9.9520798-3.5243073l7.1820602,2.1442413l-12.3153076,3.8739624
	L71.541069,67.0287018z"/>
<path id="XMLID_55_" class="st18" d="M81.4931488,48.9502258l6.5515747,2.3015938l0.2814255,14.3968163l-6.8330002-2.1442413
	V48.9502258z"/>
<path id="XMLID_54_" class="st19" d="M71.1917267,67.0287018V52.4745407
	c3.9448853-0.9418869,7.4306946-2.1365509,10.3014221-3.5243149v14.5541687
	C78.6224213,64.8918991,75.1366119,66.0860291,71.1917267,67.0287018L71.1917267,67.0287018z"/>
<path id="XMLID_50_" class="st20" d="M76.2925262,69.5225983l-0.0060577-14.3002853
	c3.9446335-0.9416046,9.1692047-2.3901787,12.0396805-3.7776833v14.5536308L76.2925262,69.5225983z"/>
<path id="XMLID_48_" class="st21" d="M71.541069,67.0287018V52.4745407l4.4642487,2.7485924l0.0055237,14.2994652
	L71.541069,67.0287018z"/>
<path id="XMLID_46_" class="st22" d="M71.541069,52.4745407l9.9520798-3.5243149l6.5515747,2.3015938l-12.0394058,3.9704933
	L71.541069,52.4745407z"/>
<path id="XMLID_44_" class="st23" d="M71.1917267,66.7332077l4.8191147,2.7893906"/>
<path id="XMLID_43_" class="st23" d="M50.9920769,40.5602951l37.3340721,10.606514"/>
<path id="XMLID_41_" class="st24" d="M3.8591561,96.0520782c0-9.5521545,21.1020164-17.2964478,47.1329193-17.2964478
	c26.0307579,0,47.132946,7.7442932,47.132946,17.2964478"/>
<path id="XMLID_38_" class="st24" d="M50.9920769,40.5602951v55.4917831"/>
<path id="XMLID_37_" class="st23" d="M76.0108414,55.0413017v55.7487068"/>
<path id="XMLID_36_" class="st23" d="M76.0108414,110.7900085L50.991539,96.0520782"/>
<path id="XMLID_35_" class="st23" d="M88.326149,51.1668091v56.2171707"/>
<path id="XMLID_34_" class="st25" d="M3.8591561,96.0520782V40.5602951"/>
<path id="XMLID_33_" class="st23" d="M50.9920769,40.5602951l25.0187645,14.4810066"/>
<path id="XMLID_32_" class="st25" d="M98.1244583,96.0520782V40.5602951"/>
<path id="XMLID_29_" class="st25" d="M3.8591561,96.0520782c0,9.5529404,21.1020164,17.2966995,47.1329193,17.2966995
	c26.0307579,0,47.132946-7.7437592,47.132946-17.2966995"/>
<path id="XMLID_22_" class="st25" d="M50.9920769,57.856739c-26.0309048,0-47.1329193-7.7440376-47.1329193-17.2964439
	c0-9.5526867,21.1020164-17.2964458,47.1329193-17.2964458c26.0307579,0,47.132946,7.7437592,47.132946,17.2964458
	c0,4.0357018-3.7666702,7.7487144-10.0802994,10.6915245"/>
<path id="XMLID_17_" class="st26" d="M88.0447235,51.2518196c-3.3548584,1.5632744-7.4293518,2.9095116-12.0394058,3.9713135"/>
<g id="XMLID_15_">
	<g>
		<g>
			<polygon class="st14" points="51.4914169,17.8799667 53.4066467,17.8799667 50.9941559,8.8705063 48.577507,17.8799667 
				50.492897,17.8799667 50.492897,40.5602951 51.4914169,40.5602951 			"/>
		</g>
	</g>
</g>
<path id="XMLID_9_" class="st23" d="M88.326149,107.3839798l-37.33461-11.3319016"/>
<path id="XMLID_8_" class="st23" d="M76.0108414,69.5225983l12.3153076-3.8739624"/>
<path id="XMLID_7_" class="st23" d="M71.1917267,52.4745407v14.5541611"/>
<path id="XMLID_6_" class="st23" d="M81.4931488,48.9502258l-9.9520798,3.5243149"/>
<path id="XMLID_2_" class="st27" d="M76.0053177,55.2223129C68.7556,56.8915024,60.1808281,57.856739,50.9920769,57.856739"/>
<path id="XMLID_3_" class="st23" d="M64.6442184,44.4388313c-1.6178474,1.1337547-1.70224,1.1072464-3.7891693,1.8302078"/>
<g id="XMLID_4_">
	<g id="XMLID_10_">
		<path class="st14" d="M67.6601563,39.0335274c-0.2612305,0.2734375-0.5166016,0.46875-0.7661133,0.5878906
			s-0.5185547,0.1787109-0.8071289,0.1787109c-0.5849609,0-1.0957031-0.2451172-1.5327148-0.734375
			c-0.4365234-0.4892578-0.6547852-1.1191406-0.6547852-1.8867188c0-0.7685547,0.2416992-1.4716797,0.7250977-2.1098633
			c0.4833984-0.6376953,1.1054688-0.956543,1.8657227-0.956543c0.472168,0,0.8618164,0.1499023,1.1699219,0.4501953v-0.9887695
			c0-0.6123047-0.0146484-0.9887695-0.0439453-1.1289063c-0.0292969-0.140625-0.074707-0.2363281-0.137207-0.2871094
			c-0.0625-0.050293-0.140625-0.0756836-0.2338867-0.0756836c-0.1015625,0-0.2363281,0.03125-0.4038086,0.0932617
			l-0.0761719-0.2045879l1.597168-0.6552734h0.2631836v6.1962872c0,0.6279297,0.0146484,1.0117188,0.0439453,1.1494141
			c0.0292969,0.1386719,0.0756836,0.2353516,0.1401367,0.2900391s0.1396484,0.0820313,0.2250977,0.0820313
			c0.1054688,0,0.2456055-0.0332031,0.4213867-0.0996094l0.0644531,0.2050781l-1.5913086,0.6611328h-0.269043V39.0335274z
			 M67.6601563,38.6233711v-2.7617188c-0.0234375-0.2646484-0.0932617-0.5068359-0.2104492-0.7250977
			s-0.2719727-0.3833008-0.4648438-0.4946289c-0.1933594-0.1108398-0.3813477-0.1665039-0.5644531-0.1665039
			c-0.3432617,0-0.6494141,0.1538086-0.918457,0.4619141c-0.3549805,0.4057617-0.5322266,0.9985352-0.5322266,1.7788086
			c0,0.7880859,0.1713867,1.3916016,0.5146484,1.8115234c0.3432617,0.4189453,0.7250977,0.6289063,1.1464844,0.6289063
			C66.9858398,39.1565742,67.3286133,38.9788399,67.6601563,38.6233711z"/>
	</g>
	<g id="XMLID_5_">
		<path class="st14" d="M71.3066406,35.8103828c0.5117188-1.5366211,1.2167969-2.7207031,2.1181641-3.5517578
			c0.6806641-0.6245098,1.3505859-0.9365215,2.0087891-0.9365215c0.6396484,0,1.0849609,0.3012695,1.3369141,0.9013653
			c0.3525391,0.8383789,0.2890625,1.9799805-0.1923828,3.4228516c-0.4570313,1.3740234-1.1289063,2.4580078-2.0146484,3.2539063
			c-0.6884766,0.6152344-1.3603516,0.9238281-2.015625,0.9238281c-0.3544922,0-0.6494141-0.0859375-0.8857422-0.2568359
			c-0.234375-0.171875-0.4111328-0.4199219-0.5292969-0.7431641c-0.1181641-0.3242188-0.1777344-0.6669922-0.1767578-1.0302734
			C70.9570313,37.1697578,71.0732422,36.508625,71.3066406,35.8103828z M72.4326172,35.781086
			c-0.2158203,0.6943359-0.3701172,1.3183594-0.4658203,1.8730469c-0.0732422,0.4199219-0.0810547,0.7871094-0.0214844,1.0996094
			c0.0351563,0.1865234,0.125,0.3457031,0.2675781,0.4765625c0.1445313,0.1308594,0.3242188,0.1953125,0.5371094,0.1953125
			c0.25,0,0.5253906-0.1162109,0.828125-0.3505859c0.3027344-0.2333984,0.5976563-0.609375,0.8857422-1.1298828
			c0.2880859-0.5175781,0.5976563-1.2392578,0.9287109-2.1640625H72.4326172z M75.5332031,35.3948555
			c0.3359375-1.0180664,0.5097656-1.8354492,0.5234375-2.4516602c0.0107422-0.472168-0.0742188-0.8095703-0.2529297-1.0122051
			c-0.1289063-0.1484375-0.3115234-0.2226563-0.5458984-0.2226563c-0.2646484,0-0.5429688,0.1040039-0.8339844,0.310545
			c-0.2910156,0.206543-0.5751953,0.5522461-0.8505859,1.0356445c-0.2763672,0.4838867-0.6142578,1.2636719-1.0117188,2.340332
			H75.5332031z"/>
	</g>
</g>
<line id="XMLID_1_" class="st16" x1="90.9641113" y1="59.7516251" x2="105.5638351" y2="55.2231293"/>
<g id="XMLID_16_">
	<g id="XMLID_56_">
		<path class="st14" d="M112.8168945,55.8118477c-0.2631836,0.2734375-0.5205078,0.46875-0.7719727,0.5878906
			s-0.5224609,0.1787109-0.8129883,0.1787109c-0.5893555,0-1.1040039-0.2451172-1.5439453-0.734375
			s-0.659668-1.1191406-0.659668-1.8867188c0-0.7685547,0.2431641-1.4716797,0.7304688-2.1098633
			c0.4873047-0.6376953,1.1137695-0.956543,1.8798828-0.956543c0.4750977,0,0.8681641,0.1499023,1.1782227,0.4501953V50.352375
			c0-0.6123047-0.0146484-0.9887695-0.0439453-1.1289063c-0.0292969-0.140625-0.0756836-0.2363281-0.1386719-0.2871094
			c-0.0629883-0.050293-0.1411133-0.0756836-0.2353516-0.0756836c-0.1025391,0-0.237793,0.03125-0.4067383,0.0932617
			l-0.0766602-0.2045898l1.6088867-0.6552734h0.2651367v6.1962891c0,0.6279297,0.0146484,1.0117188,0.0439453,1.1494141
			c0.0292969,0.1386719,0.0766602,0.2353516,0.1416016,0.2900391c0.0644531,0.0546875,0.1401367,0.0820313,0.2265625,0.0820313
			c0.1064453,0,0.2475586-0.0332031,0.4238281-0.0996094l0.0654297,0.2050781l-1.6030273,0.6611328h-0.2709961V55.8118477z
			 M112.8168945,55.4016914v-2.7617188c-0.0234375-0.2646484-0.0942383-0.5068359-0.2119141-0.7250977
			s-0.2739258-0.3833008-0.4682617-0.4946289c-0.1948242-0.1108398-0.3842773-0.1665039-0.5688477-0.1665039
			c-0.3457031,0-0.6542969,0.1538086-0.925293,0.4619141c-0.3574219,0.4057617-0.5361328,0.9985352-0.5361328,1.7788086
			c0,0.7880859,0.1728516,1.3916016,0.5185547,1.8115234c0.3457031,0.4189453,0.7304688,0.6289063,1.1547852,0.6289063
			C112.137207,55.9348946,112.4829102,55.7571602,112.8168945,55.4016914z"/>
	</g>
	<g id="XMLID_51_">
		<path class="st14" d="M115.6801758,51.2596016h3.7412109v0.1459961l-4.0771484,4.2128906h1.7265625
			c0.4082031,0,0.6679688-0.015625,0.7773438-0.046875c0.1103516-0.03125,0.2119141-0.0976563,0.3037109-0.1992188
			c0.0927734-0.1005859,0.1953125-0.2841797,0.3095703-0.5498047h0.2177734l-0.5126953,1.5917969h-3.8359375v-0.1699219
			l4.078125-4.2124023h-1.6972656c-0.3574219,0-0.5742188,0.0097656-0.6484375,0.0288086
			c-0.1103516,0.0234375-0.21875,0.0849609-0.3271484,0.1845703s-0.21875,0.2646484-0.3330078,0.4941406h-0.2236328
			L115.6801758,51.2596016z"/>
	</g>
</g>
<line id="XMLID_11_" class="st16" x1="71.5410614" y1="70.3335342" x2="64.6442184" y2="81.1235123"/>
<g id="XMLID_60_">
	<g id="XMLID_62_">
		<path class="st14" d="M60.9003906,89.0638046c-0.2631836,0.2734375-0.5205078,0.46875-0.7719727,0.5878906
			s-0.5224609,0.1787109-0.8129883,0.1787109c-0.5893555,0-1.1040039-0.2451172-1.5439453-0.734375
			s-0.659668-1.1191406-0.659668-1.8867188c0-0.7685547,0.2431641-1.4711914,0.7304688-2.109375
			c0.4873047-0.6376953,1.1137695-0.956543,1.8798828-0.956543c0.4750977,0,0.8681641,0.1499023,1.1782227,0.4501953v-0.9887695
			c0-0.6123047-0.0146484-0.9887695-0.0439453-1.1289063c-0.0292969-0.140625-0.0756836-0.2363281-0.1386719-0.2871094
			c-0.0629883-0.050293-0.1411133-0.0756836-0.2353516-0.0756836c-0.1025391,0-0.237793,0.03125-0.4067383,0.0932617
			l-0.0766602-0.2045898l1.6088867-0.6552734h0.2651367v6.1958008c0,0.6279297,0.0146484,1.0117188,0.0439453,1.1494141
			c0.0292969,0.1386719,0.0766602,0.2353516,0.1416016,0.2900391c0.0644531,0.0546875,0.1401367,0.0820313,0.2265625,0.0820313
			c0.1064453,0,0.2475586-0.0332031,0.4238281-0.0996094l0.0654297,0.2050781l-1.6030273,0.6611328h-0.2709961V89.0638046z
			 M60.9003906,88.6536484v-2.7612305c-0.0234375-0.2646484-0.0942383-0.5068359-0.2119141-0.7250977
			s-0.2739258-0.3833008-0.4682617-0.4946289c-0.1948242-0.1108398-0.3842773-0.1665039-0.5688477-0.1665039
			c-0.3457031,0-0.6542969,0.1538086-0.925293,0.4619141c-0.3574219,0.4057617-0.5361328,0.9985352-0.5361328,1.7783203
			c0,0.7880859,0.1728516,1.3916016,0.5185547,1.8115234c0.3457031,0.4189453,0.7304688,0.6289063,1.1547852,0.6289063
			C60.2207031,89.1868515,60.5664063,89.0091171,60.9003906,88.6536484z"/>
	</g>
	<g id="XMLID_61_">
		<path class="st14" d="M63.3808594,84.6990585l2.0322266-0.3276367l-0.8486328,2.8427734
			c0.6875-1.1655273,1.3125-1.9804688,1.8740234-2.4448242c0.3183594-0.2651367,0.578125-0.3979492,0.7783203-0.3979492
			c0.1298828,0,0.2314453,0.0380859,0.3066406,0.1142578c0.0742188,0.0761719,0.1113281,0.1860352,0.1113281,0.3305664
			c0,0.2573242-0.0664063,0.5029297-0.2001953,0.7373047c-0.0947266,0.1757813-0.2294922,0.2626953-0.40625,0.2626953
			c-0.0908203,0-0.1679688-0.0283203-0.2333984-0.0869141c-0.0644531-0.0585938-0.1044922-0.1484375-0.1201172-0.2695313
			c-0.0078125-0.0742188-0.0263672-0.1230469-0.0537109-0.1464844c-0.03125-0.0307617-0.0683594-0.0463867-0.1113281-0.0463867
			c-0.0673828,0-0.1298828,0.015625-0.1884766,0.0463867c-0.1025391,0.0546875-0.2578125,0.2070313-0.4658203,0.4570313
			c-0.3261719,0.3818359-0.6796875,0.8764648-1.0605469,1.4848633c-0.1650391,0.2578125-0.3066406,0.5488281-0.4248047,0.8720703
			c-0.1650391,0.4453125-0.2587891,0.7119141-0.2822266,0.8017578l-0.1884766,0.7373047h-0.9023438l1.0908203-3.6333008
			c0.125-0.4208984,0.1884766-0.7216797,0.1884766-0.9008789c0-0.0703125-0.0292969-0.1289063-0.0888672-0.1757813
			c-0.078125-0.0620117-0.1826172-0.0932617-0.3125-0.0932617c-0.0820313,0-0.2333984,0.0175781-0.453125,0.0527344
			L63.3808594,84.6990585z"/>
	</g>
</g>
<g id="XMLID_28_">
	<g id="XMLID_59_">
		<path class="st14" d="M58.6601563,10.9905596h3.7084961v0.1455078l-4.0415039,4.1962891h1.7114258
			c0.4042969,0,0.6621094-0.015625,0.7705078-0.0458984c0.109375-0.03125,0.2099609-0.0976563,0.3007813-0.1982422
			c0.0917969-0.1015625,0.1943359-0.2841797,0.3066406-0.5478516h0.2158203l-0.5078125,1.5849619h-3.8017578v-0.1689463
			l4.0410156-4.1962891h-1.6816406c-0.3540039,0-0.5683594,0.0097656-0.6420898,0.0292969
			c-0.109375,0.0224609-0.2172852,0.0839844-0.3242188,0.1835938c-0.1074219,0.0986328-0.2172852,0.2626953-0.3300781,0.4921875
			h-0.2216797L58.6601563,10.9905596z"/>
	</g>
</g>
<g>
	<g>
		<path class="st14" d="M220.8105469,5.6565757h3.7084961v0.1459961l-4.0415039,4.1962886h1.7114258
			c0.4042969,0,0.6621094-0.015625,0.7705078-0.0458984c0.109375-0.03125,0.2099609-0.0976563,0.3007813-0.1982422
			c0.0917969-0.1015625,0.1943359-0.2841797,0.3066406-0.5478516h0.2158203l-0.5078125,1.5849609h-3.8017578v-0.1689453
			l4.0410156-4.1967769h-1.6816406c-0.3540039,0-0.5683594,0.0097656-0.6420898,0.0292969
			c-0.109375,0.0229492-0.2172852,0.0844727-0.3242188,0.1835938c-0.1074219,0.0991211-0.2172852,0.2631836-0.3300781,0.4921875
			h-0.2216797L220.8105469,5.6565757z"/>
	</g>
</g>
<g>
</g>
<g>
</g>
<g>
</g>
<g>
</g>
<g>
</g>
<g>
</g>
</svg>
