<?xml version="1.0" encoding="utf-8"?>
<!-- Generator: Adobe Illustrator 19.0.0, SVG Export Plug-In . SVG Version: 6.00 Build 0)  -->
<svg version="1.1" id="Layer_1" xmlns="http://www.w3.org/2000/svg" xmlns:xlink="http://www.w3.org/1999/xlink" x="0px" y="0px"
	 viewBox="0 0 289 191" enable-background="new 0 0 289 191" xml:space="preserve">
<line fill="none" stroke="#A5A5A5" stroke-miterlimit="10" x1="256.4023438" y1="130.1435547" x2="256.4023438" y2="50.125"/>
<line fill="none" stroke="#A5A5A5" stroke-miterlimit="10" x1="119.3095932" y1="105.625" x2="256.4628906" y2="129.5263977"/>
<g>
	<polyline fill-rule="evenodd" clip-rule="evenodd" fill="#D32027" points="252.566391,131.6436005 252.5233917,130.3164063 
		12.2686005,160.157196 12.1640997,159.2528992 252.4160004,129.4082031 251.8261871,127.6688995 257.648407,129.3047028 	"/>
</g>
<line fill="none" stroke="#A5A5A5" stroke-miterlimit="10" x1="12.1640997" y1="159.722702" x2="151" y2="183.0312958"/>
<line fill="none" stroke="#A5A5A5" stroke-miterlimit="10" x1="12.1640997" y1="159.722702" x2="119.3095932" y2="105.625"/>
<line fill="none" stroke="#A5A5A5" stroke-miterlimit="10" x1="119.3095932" y1="105.625" x2="119.3095932" y2="74.7627029"/>
<line fill="none" stroke="#A5A5A5" stroke-miterlimit="10" x1="150.8524933" y1="183.0312958" x2="256.4628906" y2="129.5263977"/>
<line fill="none" stroke="#A5A5A5" stroke-miterlimit="10" x1="150.8524933" y1="183.2958984" x2="150.8524933" y2="134.2588043"/>
<g>
	<polyline fill-rule="evenodd" clip-rule="evenodd" points="116.2300034,79.3887024 115.5,78.2792969 12.2388,159.8173981 
		11.6743002,159.1006012 114.9345932,77.5615005 114.1981964,76.1933975 119.3095932,74.7627029 	"/>
</g>
<g>
	<polyline fill-rule="evenodd" clip-rule="evenodd" points="145.4960938,137.3271027 145.2929993,135.7626953 
		12.2363005,160.2411957 12.0171003,159.1777039 145.0762024,134.6963043 144.9013977,132.8437958 151.3798981,134.5702972 	"/>
</g>
<line fill="none" stroke="#A5A5A5" stroke-miterlimit="10" x1="150.8524933" y1="134.2588043" x2="255.9123993" y2="50.6152382"/>
<line fill="none" stroke="#A5A5A5" stroke-miterlimit="10" x1="255.9123993" y1="50.6152382" x2="119.3095932" y2="74.7627029"/>
<g>
	<polyline fill-rule="evenodd" clip-rule="evenodd" fill="#D32027" points="251.8761749,54.3710632 251.4190979,53.0491333 
		12.3993998,160.0585938 12.0170546,159.1787262 251.0324097,52.1668282 249.9296722,50.5814095 255.9123993,50.6152382 	"/>
</g>
<g>
	<polyline fill-rule="evenodd" clip-rule="evenodd" points="13.9008999,27.2206993 12.5775995,27.1074009 12.6801996,159.722702 
		11.7665997,159.719696 11.6631002,27.1060009 9.8642998,27.4848995 12.1729002,21.8969994 	"/>
</g>
<g>
	<g>
		<path fill="#010101" d="M17.1289063,15.3496094h-2.7910156l-0.3320313,0.7675781
			c-0.1088867,0.2558594-0.1635742,0.4677734-0.1635742,0.6337891c0,0.2216797,0.0893555,0.3837891,0.2680664,0.4892578
			c0.1049805,0.0615234,0.3632813,0.1083984,0.7753906,0.1396484v0.2148438h-2.628418v-0.2148438
			c0.2836914-0.0429688,0.5166016-0.1601563,0.6992188-0.3525391c0.1826172-0.1914063,0.4082031-0.5878906,0.6762695-1.1894531
			l2.8261719-6.293457h0.1108398l2.8500977,6.4682617c0.2714844,0.6123047,0.4951172,0.9980469,0.6699219,1.1572266
			c0.1318359,0.1201172,0.3183594,0.1904297,0.5595703,0.2099609v0.2148438h-3.8232422v-0.2148438h0.1582031
			c0.3066406,0,0.5214844-0.0429688,0.6464844-0.1279297c0.0849609-0.0625,0.1279297-0.1513672,0.1279297-0.2675781
			c0-0.0703125-0.0117188-0.1416016-0.0351563-0.2158203c-0.0078125-0.0351563-0.0664063-0.1796875-0.1748047-0.4355469
			L17.1289063,15.3496094z M16.9316406,14.9189453l-1.1777344-2.7163086l-1.2119141,2.7163086H16.9316406z"/>
	</g>
</g>
<g>
	<g>
		<path fill="#010101" d="M259.4121094,33.8466797h0.5742188v2.796875h2.7802734v0.5673828h-2.7802734v2.7792969h-0.5742188
			v-2.7792969h-2.7929688v-0.5673828h2.7929688V33.8466797z"/>
	</g>
	<g>
		<path fill="#010101" d="M251.6191406,35.7832031c0.7539063,0.1757813,1.2822266,0.3886719,1.5869141,0.6376953
			c0.4365234,0.3544922,0.6552734,0.8154297,0.6552734,1.3808594c0,0.5966797-0.2402344,1.0908203-0.7197266,1.4804688
			c-0.5888672,0.4716797-1.4462891,0.7080078-2.5703125,0.7080078h-4.0341797v-0.2167969
			c0.3671875,0,0.6152344-0.0341797,0.7460938-0.1025391c0.1308594-0.0673828,0.2226563-0.15625,0.2753906-0.265625
			s0.0791016-0.3789063,0.0791016-0.8076172v-5.1489258c0-0.4291992-0.0263672-0.6992188-0.0791016-0.8105469
			s-0.1455078-0.199707-0.2773438-0.2661133c-0.1328125-0.0664063-0.3808594-0.0996094-0.7441406-0.0996094v-0.2163086h3.8056641
			c0.9091797,0,1.5537109,0.0810547,1.9326172,0.2426758c0.3789063,0.1621094,0.6767578,0.4038086,0.8955078,0.7255859
			s0.3271484,0.6640625,0.3271484,1.0268555c0,0.3823242-0.1376953,0.7226563-0.4150391,1.0209961
			S252.3183594,35.6079102,251.6191406,35.7832031z M249.4882813,36.0820313v2.5449219l-0.0058594,0.2929688
			c0,0.2099609,0.0527344,0.3691406,0.1601563,0.4765625s0.2675781,0.1611328,0.4775391,0.1611328
			c0.3125,0,0.6005859-0.0693359,0.8642578-0.2080078s0.4648438-0.3398438,0.6054688-0.6025391
			c0.140625-0.2636719,0.2109375-0.5566406,0.2109375-0.8808594c0-0.3701172-0.0859375-0.703125-0.2578125-0.9970703
			c-0.171875-0.2949219-0.4082031-0.5009766-0.7089844-0.6171875
			C250.5341797,36.1347656,250.0849609,36.078125,249.4882813,36.0820313z M249.4882813,35.625
			c0.5537109,0,0.9628906-0.0620117,1.2265625-0.1870117s0.4648438-0.300293,0.6054688-0.5268555
			c0.140625-0.2260742,0.2109375-0.5146484,0.2109375-0.8657227s-0.0693359-0.6386719-0.2070313-0.8632813
			c-0.1386719-0.2241211-0.3378906-0.3945313-0.5947266-0.5117188c-0.2578125-0.1171875-0.671875-0.1733398-1.2412109-0.1699219
			V35.625z"/>
		<path fill="#010101" d="M272.828125,31.8745117v2.75h-0.2285156c-0.171875-0.7177734-0.4912109-1.2675781-0.9599609-1.6499023
			s-0.9990234-0.5732422-1.5927734-0.5732422c-0.4951172,0-0.9501953,0.1420898-1.3642578,0.4267578
			c-0.4140625,0.2851563-0.7158203,0.6577148-0.9072266,1.1176758c-0.2460938,0.5893555-0.3691406,1.2446289-0.3691406,1.9663086
			c0,0.7099609,0.0898438,1.3564453,0.2695313,1.9394531s0.4609375,1.0244141,0.8427734,1.3222656
			c0.3828125,0.2988281,0.8789063,0.4482422,1.4873047,0.4482422c0.5,0,0.9580078-0.109375,1.3730469-0.328125
			c0.4160156-0.21875,0.8544922-0.5947266,1.3144531-1.1289063v0.6845703
			c-0.4443359,0.4638672-0.9082031,0.8007813-1.390625,1.0087891c-0.4814453,0.2089844-1.0449219,0.3134766-1.6884766,0.3134766
			c-0.8476563,0-1.5996094-0.1699219-2.2578125-0.5097656c-0.6572266-0.3388672-1.1650391-0.8261719-1.5224609-1.4619141
			c-0.3564453-0.6357422-0.5351563-1.3134766-0.5351563-2.0302734c0-0.7573242,0.1972656-1.4750977,0.59375-2.1538086
			s0.9316406-1.2055664,1.6044922-1.5795898c0.6738281-0.3745117,1.3886719-0.5620117,2.1455078-0.5620117
			c0.5585938,0,1.1484375,0.1210938,1.7685547,0.362793c0.359375,0.140625,0.5878906,0.2109375,0.6855469,0.2109375
			c0.125,0,0.2324219-0.0458984,0.3242188-0.1376953s0.1513672-0.2368164,0.1787109-0.4360352H272.828125z"/>
	</g>
</g>
<g>
	<g>
		<path fill="#010101" d="M258.8691406,146.0957031l0.1816406-1.7314453
			c0.0507813-0.4912109,0.1015625-0.8232422,0.1533203-0.9951172c0.0742188-0.2451172,0.1787109-0.421875,0.3134766-0.5292969
			c0.1357422-0.1074219,0.2871094-0.1601563,0.4560547-0.1601563c0.1416016,0,0.2529297,0.0390625,0.3349609,0.1171875
			s0.1230469,0.1767578,0.1230469,0.2978516c0,0.09375-0.0195313,0.1923828-0.0585938,0.2978516
			c-0.0507813,0.1484375-0.1953125,0.4746094-0.4345703,0.9775391l-0.8115234,1.7255859H258.8691406z"/>
		<path fill="#010101" d="M280.4794922,146.0957031l0.1816406-1.7314453
			c0.0517578-0.4912109,0.1025391-0.8232422,0.1533203-0.9951172c0.0742188-0.2451172,0.1787109-0.421875,0.3144531-0.5292969
			c0.1347656-0.1074219,0.2861328-0.1601563,0.4550781-0.1601563c0.140625,0,0.2529297,0.0390625,0.3349609,0.1171875
			s0.1230469,0.1767578,0.1230469,0.2978516c0,0.09375-0.0195313,0.1923828-0.0585938,0.2978516
			c-0.0507813,0.1484375-0.1962891,0.4746094-0.4345703,0.9775391l-0.8105469,1.7255859H280.4794922z"/>
	</g>
	<g>
		<path fill="#010101" d="M265.8730469,145.3466797h0.5761719v2.796875h2.7900391v0.5673828h-2.7900391v2.7792969h-0.5761719
			v-2.7792969h-2.8027344v-0.5673828h2.8027344V145.3466797z"/>
	</g>
	<g>
		<path fill="#010101" d="M255.4238281,147.2832031c0.7558594,0.1757813,1.2871094,0.3886719,1.5927734,0.6376953
			c0.4384766,0.3544922,0.6582031,0.8154297,0.6582031,1.3808594c0,0.5966797-0.2412109,1.0908203-0.7226563,1.4804688
			c-0.5917969,0.4716797-1.4511719,0.7080078-2.5791016,0.7080078h-4.0488281v-0.2167969
			c0.3691406,0,0.6191406-0.0341797,0.75-0.1025391c0.1308594-0.0673828,0.2226563-0.15625,0.2753906-0.265625
			s0.0800781-0.3789063,0.0800781-0.8076172v-5.1484375c0-0.4296875-0.0273438-0.6992188-0.0800781-0.8105469
			s-0.1455078-0.2001953-0.2792969-0.2666016c-0.1328125-0.0664063-0.3808594-0.0996094-0.7460938-0.0996094v-0.2158203h3.8193359
			c0.9130859,0,1.5595703,0.0800781,1.9384766,0.2421875c0.3808594,0.1621094,0.6796875,0.4042969,0.8994141,0.7255859
			s0.3291016,0.6640625,0.3291016,1.0263672c0,0.3828125-0.1386719,0.7226563-0.4179688,1.0214844
			C256.6152344,146.8710938,256.125,147.1074219,255.4238281,147.2832031z M253.2861328,147.5820313v2.5449219l-0.0058594,0.2929688
			c0,0.2099609,0.0537109,0.3691406,0.1611328,0.4765625s0.2675781,0.1611328,0.4785156,0.1611328
			c0.3144531,0,0.6025391-0.0693359,0.8671875-0.2080078c0.2636719-0.1386719,0.4667969-0.3398438,0.6074219-0.6025391
			c0.1416016-0.2636719,0.2119141-0.5566406,0.2119141-0.8808594c0-0.3701172-0.0859375-0.703125-0.2587891-0.9970703
			c-0.171875-0.2949219-0.4082031-0.5009766-0.7109375-0.6171875
			C254.3359375,147.6347656,253.8847656,147.578125,253.2861328,147.5820313z M253.2861328,147.125
			c0.5556641,0,0.9658203-0.0625,1.2304688-0.1875s0.4677734-0.2998047,0.6083984-0.5263672
			c0.140625-0.2255859,0.2109375-0.5146484,0.2109375-0.8662109c0-0.3505859-0.0693359-0.6386719-0.2080078-0.8632813
			c-0.1396484-0.2236328-0.3378906-0.3945313-0.5966797-0.5117188c-0.2578125-0.1171875-0.6738281-0.1728516-1.2451172-0.1699219
			V147.125z"/>
		<path fill="#010101" d="M279.3398438,143.375v2.75h-0.2294922c-0.171875-0.71875-0.4931641-1.2675781-0.9628906-1.6503906
			c-0.4707031-0.3828125-1.0029297-0.5732422-1.5986328-0.5732422c-0.4970703,0-0.953125,0.1416016-1.3681641,0.4267578
			c-0.4160156,0.2851563-0.71875,0.6582031-0.9111328,1.1171875c-0.2470703,0.5898438-0.3701172,1.2451172-0.3701172,1.9667969
			c0,0.7099609,0.0898438,1.3564453,0.2705078,1.9394531c0.1796875,0.5830078,0.4619141,1.0244141,0.8457031,1.3222656
			c0.3837891,0.2988281,0.8818359,0.4482422,1.4921875,0.4482422c0.5019531,0,0.9609375-0.109375,1.3779297-0.328125
			s0.8564453-0.5947266,1.3193359-1.1289063v0.6845703c-0.4472656,0.4638672-0.9121094,0.8007813-1.3955078,1.0087891
			c-0.484375,0.2089844-1.0488281,0.3134766-1.6953125,0.3134766c-0.8496094,0-1.6044922-0.1699219-2.2646484-0.5097656
			c-0.6601563-0.3388672-1.1689453-0.8261719-1.5273438-1.4619141s-0.5380859-1.3134766-0.5380859-2.0302734
			c0-0.7578125,0.1992188-1.4746094,0.5966797-2.1542969c0.3974609-0.6777344,0.9335938-1.2050781,1.609375-1.5791016
			s1.3935547-0.5615234,2.1533203-0.5615234c0.5605469,0,1.1513672,0.1210938,1.7744141,0.3623047
			c0.3603516,0.140625,0.5898438,0.2109375,0.6875,0.2109375c0.125,0,0.234375-0.0458984,0.3261719-0.1376953
			s0.1513672-0.2363281,0.1787109-0.4355469H279.3398438z"/>
	</g>
</g>
<g>
	<g>
		<path fill="#010101" d="M145.8378906,170.0957031l0.1826172-1.7314453
			c0.0507813-0.4912109,0.1025391-0.8232422,0.1533203-0.9951172c0.0742188-0.2451172,0.1796875-0.421875,0.3154297-0.5292969
			s0.2880859-0.1601563,0.4570313-0.1601563c0.140625,0,0.2529297,0.0390625,0.3349609,0.1171875
			c0.0830078,0.078125,0.1240234,0.1767578,0.1240234,0.2978516c0,0.09375-0.0195313,0.1923828-0.0585938,0.2978516
			c-0.0517578,0.1484375-0.1962891,0.4746094-0.4365234,0.9775391l-0.8125,1.7255859H145.8378906z"/>
	</g>
	<g>
		<path fill="#010101" d="M144.6953125,167.375v2.75h-0.2294922c-0.1728516-0.71875-0.4951172-1.2675781-0.9658203-1.6503906
			c-0.4716797-0.3828125-1.0058594-0.5732422-1.6030273-0.5732422c-0.4990234,0-0.956543,0.1416016-1.3730469,0.4267578
			s-0.7211914,0.6582031-0.9135742,1.1171875c-0.2475586,0.5898438-0.3710938,1.2451172-0.3710938,1.9667969
			c0,0.7099609,0.090332,1.3564453,0.2709961,1.9394531s0.4633789,1.0244141,0.8486328,1.3222656
			c0.3847656,0.2988281,0.8837891,0.4482422,1.496582,0.4482422c0.5029297,0,0.9628906-0.109375,1.3818359-0.328125
			c0.4179688-0.21875,0.859375-0.5947266,1.3232422-1.1289063v0.6845703
			c-0.4482422,0.4638672-0.9150391,0.8007813-1.4003906,1.0087891c-0.484375,0.2089844-1.0512695,0.3134766-1.6992188,0.3134766
			c-0.8525391,0-1.6098633-0.1699219-2.2719727-0.5097656c-0.6616211-0.3388672-1.1723633-0.8261719-1.5317383-1.4619141
			s-0.5390625-1.3134766-0.5390625-2.0302734c0-0.7578125,0.1992188-1.4746094,0.5976563-2.1542969
			c0.3989258-0.6777344,0.9370117-1.2050781,1.6147461-1.5791016s1.3974609-0.5615234,2.159668-0.5615234
			c0.5615234,0,1.1547852,0.1210938,1.7792969,0.3623047c0.3613281,0.140625,0.5917969,0.2109375,0.6894531,0.2109375
			c0.1259766,0,0.2353516-0.0458984,0.3271484-0.1376953c0.0927734-0.0917969,0.1523438-0.2363281,0.1796875-0.4355469H144.6953125z
			"/>
	</g>
</g>
<g>
	<g>
		<path fill="#010101" d="M152.5908203,116.875v2.75h-0.2304688c-0.1738281-0.7177734-0.4970703-1.2675781-0.9707031-1.6503906
			c-0.4736328-0.3818359-1.0107422-0.5732422-1.6103516-0.5732422c-0.5009766,0-0.9609375,0.1425781-1.3789063,0.4267578
			c-0.4179688,0.2851563-0.7246094,0.6582031-0.9179688,1.1181641c-0.2480469,0.5888672-0.3720703,1.2441406-0.3720703,1.9658203
			c0,0.7099609,0.0908203,1.3564453,0.2714844,1.9394531c0.1816406,0.5830078,0.4658203,1.0244141,0.8525391,1.3222656
			c0.3867188,0.2988281,0.8886719,0.4482422,1.5039063,0.4482422c0.5048828,0,0.9677734-0.109375,1.3876953-0.328125
			c0.4208984-0.21875,0.8632813-0.5947266,1.3291016-1.1289063v0.6845703
			c-0.4501953,0.4638672-0.9189453,0.8007813-1.40625,1.0087891c-0.4873047,0.2089844-1.0556641,0.3134766-1.7070313,0.3134766
			c-0.8564453,0-1.6171875-0.1699219-2.2822266-0.5097656c-0.6650391-0.3388672-1.1777344-0.8261719-1.5390625-1.4619141
			c-0.3603516-0.6357422-0.5410156-1.3134766-0.5410156-2.0302734c0-0.7568359,0.2001953-1.4746094,0.6005859-2.1533203
			s0.9414063-1.2060547,1.6220703-1.5800781s1.4033203-0.5615234,2.1689453-0.5615234
			c0.5644531,0,1.1601563,0.1210938,1.7880859,0.3623047c0.3623047,0.140625,0.59375,0.2109375,0.6923828,0.2109375
			c0.1259766,0,0.2353516-0.0458984,0.328125-0.1376953s0.1533203-0.2363281,0.1806641-0.4355469H152.5908203z"/>
	</g>
</g>
<g>
	<g>
		<path fill="#010101" d="M116.0380859,63.2382813c0.7617188,0.1738281,1.296875,0.3857422,1.6044922,0.6337891
			c0.4414063,0.3525391,0.6630859,0.8105469,0.6630859,1.3720703c0,0.59375-0.2431641,1.0839844-0.7285156,1.4716797
			c-0.5957031,0.4697266-1.4619141,0.7041016-2.5981445,0.7041016h-4.078125v-0.2148438
			c0.3710938,0,0.6225586-0.0341797,0.7548828-0.1025391c0.1318359-0.0673828,0.2246094-0.1552734,0.277832-0.2646484
			c0.0537109-0.1083984,0.0800781-0.3759766,0.0800781-0.8027344v-5.1181641c0-0.4267578-0.0263672-0.6953125-0.0800781-0.8056641
			c-0.0532227-0.1103516-0.1469727-0.1987305-0.2807617-0.2646484c-0.1342773-0.065918-0.3847656-0.0986328-0.7519531-0.0986328
			v-0.215332h3.847168c0.9199219,0,1.5703125,0.0805664,1.953125,0.2412109
			c0.3828125,0.1611328,0.6845703,0.4013672,0.90625,0.7211914c0.2207031,0.3198242,0.3310547,0.6601563,0.3310547,1.0209961
			c0,0.3798828-0.1396484,0.7182617-0.4199219,1.0151367C117.2382813,62.8276367,116.7451172,63.0634766,116.0380859,63.2382813z
			 M113.8842773,63.5341797v2.5302734l-0.0058594,0.2910156c0,0.2089844,0.0541992,0.3671875,0.1625977,0.4736328
			c0.1083984,0.1074219,0.269043,0.1601563,0.4824219,0.1601563c0.3154297,0,0.6064453-0.0683594,0.8730469-0.2060547
			s0.4707031-0.3378906,0.6123047-0.5996094c0.1425781-0.2617188,0.2128906-0.5527344,0.2128906-0.875
			c0-0.3681641-0.0869141-0.6992188-0.2597656-0.9921875c-0.1738281-0.2919922-0.4130859-0.4970703-0.7158203-0.6132813
			C114.9414063,63.5869141,114.487793,63.5302734,113.8842773,63.5341797z M113.8842773,63.0800781
			c0.5600586,0,0.9736328-0.0615234,1.2397461-0.1855469c0.2666016-0.1240234,0.4707031-0.2983398,0.6123047-0.5234375
			c0.1425781-0.2246094,0.2138672-0.5117188,0.2138672-0.8608398s-0.0703125-0.6347656-0.2109375-0.8579102
			c-0.1396484-0.2231445-0.3398438-0.3925781-0.6005859-0.5087891c-0.2602539-0.1166992-0.6787109-0.1728516-1.2543945-0.1689453
			V63.0800781z"/>
	</g>
</g>
<g>
	<g>
		<path fill="#010101" d="M115.3945313,99.2851563l0.1816406-1.7216797
			c0.0507813-0.4882813,0.1025391-0.8173828,0.1533203-0.9882813c0.0742188-0.2441406,0.1787109-0.4199219,0.3134766-0.5263672
			s0.2861328-0.1601563,0.4541016-0.1601563c0.140625,0,0.2519531,0.0390625,0.3339844,0.1162109
			c0.0820313,0.078125,0.1230469,0.1767578,0.1230469,0.296875c0,0.0927734-0.0195313,0.1914063-0.0585938,0.296875
			c-0.0507813,0.1474609-0.1953125,0.4707031-0.4335938,0.9707031l-0.8085938,1.7158203H115.3945313z"/>
	</g>
	<g>
		<path fill="#010101" d="M111.9482422,100.4541016c0.7539063,0.1738281,1.2841797,0.3857422,1.5888672,0.6337891
			c0.4375,0.3525391,0.65625,0.8105469,0.65625,1.3720703c0,0.59375-0.2402344,1.0839844-0.7207031,1.4716797
			c-0.5908203,0.4697266-1.4482422,0.7041016-2.5737305,0.7041016h-4.0395508v-0.2148438
			c0.3676758,0,0.6166992-0.0341797,0.7475586-0.1025391c0.1308594-0.0673828,0.2226563-0.1552734,0.2753906-0.2646484
			c0.0527344-0.1083984,0.0791016-0.3759766,0.0791016-0.8027344v-5.1181641c0-0.4267578-0.0263672-0.6953125-0.0791016-0.8056641
			s-0.1455078-0.1982422-0.2783203-0.2646484c-0.1328125-0.0654297-0.3808594-0.0986328-0.7446289-0.0986328v-0.2148438h3.8105469
			c0.9106445,0,1.5556641,0.0800781,1.9355469,0.2412109c0.3779297,0.1611328,0.6777344,0.4013672,0.8964844,0.7207031
			c0.21875,0.3203125,0.328125,0.6601563,0.328125,1.0214844c0,0.3798828-0.1386719,0.7177734-0.4160156,1.0146484
			C113.1357422,100.0439453,112.6474609,100.2792969,111.9482422,100.4541016z M109.8139648,100.75v2.5302734l-0.0058594,0.2910156
			c0,0.2089844,0.0537109,0.3671875,0.1616211,0.4736328c0.1074219,0.1074219,0.2666016,0.1601563,0.4775391,0.1601563
			c0.3125,0,0.6010742-0.0683594,0.8647461-0.2060547s0.4663086-0.3378906,0.6069336-0.5996094s0.2109375-0.5527344,0.2109375-0.875
			c0-0.3681641-0.0859375-0.6992188-0.2578125-0.9921875c-0.1723633-0.2919922-0.4086914-0.4970703-0.7094727-0.6132813
			S110.4121094,100.7460938,109.8139648,100.75z M109.8139648,100.2958984c0.5551758,0,0.9648438-0.0615234,1.2285156-0.1855469
			s0.4658203-0.2978516,0.6064453-0.5234375c0.1411133-0.2246094,0.2114258-0.5117188,0.2114258-0.8603516
			c0-0.3496094-0.0693359-0.6347656-0.2084961-0.8583984c-0.1386719-0.2226563-0.3369141-0.3925781-0.5947266-0.5087891
			s-0.6723633-0.1728516-1.2431641-0.1689453V100.2958984z"/>
	</g>
</g>
<g>
</g>
<g>
</g>
<g>
</g>
<g>
</g>
<g>
</g>
<g>
</g>
</svg>
