<?xml version="1.0" encoding="utf-8"?>
<!-- Generator: Adobe Illustrator 19.0.0, SVG Export Plug-In . SVG Version: 6.00 Build 0)  -->
<svg version="1.1" id="图层_1" xmlns="http://www.w3.org/2000/svg" xmlns:xlink="http://www.w3.org/1999/xlink" x="0px" y="0px"
	 viewBox="0 0 124 122.6666641" style="enable-background:new 0 0 124 122.6666641;" xml:space="preserve">
<style type="text/css">
	.st0{fill-opacity:0;stroke:#BFBFBF;stroke-width:0.503;stroke-linecap:round;stroke-linejoin:round;}
	.st1{fill:url(#SVGID_1_);}
	.st2{fill-opacity:0;stroke:#000000;stroke-width:0.503;stroke-linecap:round;stroke-linejoin:round;}
	.st3{fill:#4F7FCB;}
	.st4{fill-opacity:0;stroke:#000000;stroke-width:0.503;}
	.st5{stroke:#000000;stroke-width:0.503;}
</style>
<path class="st0" d="M8.8684759,55.2155876c1.5939608-8.612915,25.0833206-7.0161057,33.7087936-7.0161057
	c16.4033318,0,28.2869034-10.4173508,48.1414032-6.3824005c6.3812943,1.2978401,12.5105438,3.1650352,17.3981781,6.2931709l0,0
	c3.6295242,2.3223152,5.9106369,6.3199883,7.2514267,10.6500778"/>
<g>
	
		<radialGradient id="SVGID_1_" cx="3.4413891" cy="303.9104614" r="57.3267174" gradientTransform="matrix(1 0 0 -1 59.0098 371.7337341)" gradientUnits="userSpaceOnUse">
		<stop  offset="0" style="stop-color:#FFFFFF;stop-opacity:0"/>
		<stop  offset="1" style="stop-color:#000000;stop-opacity:0.717"/>
	</radialGradient>
	<path class="st1" d="M7.666142,61.9458084c2.7704587-14.5772247,7.3917546-30.524929,21.2484856-38.396431
		c33.9251633-19.2743397,81.4532776,5.8179836,88.8662033,42.670639c1.7277603,8.5888214,3.9017868,19.3147202-1.0441895,27.3055954
		c-6.4248428,10.3798218-15.5889206,15.9502792-26.9417725,19.8294296
		c-3.8269501,1.3075714-7.3415451,3.2017136-11.3836288,3.9441376c-21.8165016,4.0177078-45.7655487,0.10952-61.4014816-16.2981033
		c-4.171567-4.3793411-10.1790752-11.5628433-11.2777853-17.7553406c-0.7730489-4.3544388-0.8153701-5.9475632-0.092659-10.2951202
		c0.3949552-2.3692322,0.3134651-1.8407288,1.1634402-6.6257172L7.666142,61.9458084z"/>
	<path class="st2" d="M7.666142,61.9458084c2.7704587-14.5772247,7.3917546-30.524929,21.2484856-38.396431
		c33.9251633-19.2743397,81.4532776,5.8179836,88.8662033,42.670639c1.7277603,8.5888214,3.9017868,19.3147202-1.0441895,27.3055954
		c-6.4248428,10.3798218-15.5889206,15.9502792-26.9417725,19.8294296
		c-3.8269501,1.3075714-7.3415451,3.2017136-11.3836288,3.9441376c-21.8165016,4.0177078-45.7655487,0.10952-61.4014816-16.2981033
		c-4.171567-4.3793411-10.1790752-11.5628433-11.2777853-17.7553406c-0.7730489-4.3544388-0.8153701-5.9475632-0.092659-10.2951202
		c0.3949552-2.3692322,0.3134651-1.8407288,1.1634402-6.6257172L7.666142,61.9458084z"/>
</g>
<path class="st2" d="M8.8684759,55.2155876c-0.0569916,0.3879471-0.0868855,0.7917519-0.0868855,1.2132988
	c0,4.0958748,4.550643,8.9077072,5.7642937,9.6975861c12.3209944,7.8725128,27.6009903-3.6142578,40.8241386-1.3609772
	c14.2306404,2.4251099,23.3144569,13.719635,31.648716,15.4107132c2.5767517,0.521843,5.7678757,0.1004181,8.3778458,0
	c2.8443146-0.1092911,5.9889297-0.1430206,8.6446838-1.1335449c4.6980972-1.7508926,9.7260437-5.3339005,11.3024063-9.6302643
	c1.0874939-2.9671402,0.9715729-6.8063927,0.0246048-10.6520691"/>
<g>
	<path class="st3" d="M66.8812714,23.5940647c0,0,4.5116196,1.3747692,6.1135941,2.1676292
		c1.5995102,0.7926083,5.5323257,3.5053444,5.5323257,3.5053444s-1.345253,1.4516983-1.8225327,2.4009876
		c-0.4785385,0.9490356-1.2605591,2.6082573-1.2605591,2.6082573s-2.7884293-2.0222893-4.9913712-3.0357037
		c-1.8216782-0.9545822-6.275322-2.0989418-6.275322-2.0989418s0.5187683-1.5901566,1.0619049-2.7189121
		C65.6207047,25.6269169,66.8812714,23.5940647,66.8812714,23.5940647z"/>
	<path class="st4" d="M66.8812714,23.5940647c0,0,4.5116196,1.3747692,6.1135941,2.1676292
		c1.5995102,0.7926083,5.5323257,3.5053444,5.5323257,3.5053444s-1.345253,1.4516983-1.8225327,2.4009876
		c-0.4785385,0.9490356-1.2605591,2.6082573-1.2605591,2.6082573s-2.7884293-2.0222893-4.9913712-3.0357037
		c-1.8216782-0.9545822-6.275322-2.0989418-6.275322-2.0989418s0.5187683-1.5901566,1.0619049-2.7189121
		C65.6207047,25.6269169,66.8812714,23.5940647,66.8812714,23.5940647z"/>
</g>
<g>
	<path class="st4" d="M72.1781387,28.7144184l5.678772-11.0806007"/>
	<path class="st5" d="M77.8569107,17.6338177l1.0079956,1.8079872l0.5622177-4.8737097l-3.6270828,3.3033667L77.8569107,17.6338177z
		"/>
</g>
<g>
	<g>
		<path d="M87.6772461,9.0528975c-0.2602539,0.2734375-0.5141602,0.46875-0.7626953,0.5878906
			c-0.2480469,0.1191406-0.515625,0.1787109-0.8027344,0.1787109c-0.5820313,0-1.0908203-0.2451172-1.5249023-0.734375
			c-0.4350586-0.4892578-0.6518555-1.1191411-0.6518555-1.8867192c0-0.7685547,0.2402344-1.4716797,0.7216797-2.1098633
			c0.480957-0.6376953,1.0996094-0.956543,1.8564453-0.956543c0.4692383,0,0.8574219,0.1499023,1.1640625,0.4501953V3.5934246
			c0-0.6123047-0.0146484-0.9887695-0.043457-1.1289063c-0.0292969-0.140625-0.0751953-0.2363281-0.137207-0.2871094
			c-0.0620117-0.050293-0.1396484-0.0756836-0.2324219-0.0756836c-0.1010742,0-0.2348633,0.03125-0.4018555,0.0932617
			l-0.0756836-0.20459l1.5888672-0.6552734h0.262207v6.1962891c0,0.6279302,0.0146484,1.0117192,0.043457,1.1494145
			c0.0292969,0.1386719,0.0756836,0.2353516,0.1396484,0.2900391s0.1386719,0.0820313,0.2241211,0.0820313
			c0.1049805,0,0.2446289-0.0332031,0.4189453-0.0996094l0.0639648,0.2050781L87.9448242,9.819499h-0.2675781V9.0528975z
			 M87.6772461,8.6427412V5.881022c-0.0234375-0.2646484-0.0932617-0.5068359-0.2094727-0.7250977
			c-0.1166992-0.2182617-0.2705078-0.3833008-0.4628906-0.4946289c-0.1918945-0.1108398-0.3793945-0.1665039-0.5615234-0.1665039
			c-0.3413086,0-0.6459961,0.1538086-0.9135742,0.4619141C85.1762695,5.3624673,85,5.9552407,85,6.7355142
			c0,0.7880859,0.1704102,1.391602,0.512207,1.8115239c0.3413086,0.4189453,0.7216797,0.6289063,1.140625,0.6289063
			C87.0058594,9.1759443,87.347168,8.99821,87.6772461,8.6427412z"/>
	</g>
	<g>
		<path d="M95.0986328,1.5397135l0.0644531,2.6450195h-0.2382813c-0.1132813-0.6630857-0.3896484-1.1967771-0.8300781-1.6005857
			s-0.9160156-0.6054689-1.4287109-0.6054689c-0.3955078,0-0.7089844,0.1064454-0.9394531,0.3188478
			c-0.2314453,0.2128906-0.3466797,0.4575195-0.3466797,0.734375c0,0.175293,0.0410156,0.331543,0.1220703,0.4682617
			c0.1123047,0.1831055,0.2929688,0.3647461,0.5410156,0.5439451c0.1826172,0.1289063,0.6035156,0.3569336,1.2636719,0.6845703
			c0.9228516,0.456543,1.5458984,0.8876953,1.8681641,1.2929688c0.3183594,0.40625,0.4775391,0.8701172,0.4775391,1.3925781
			c0,0.6630864-0.2578125,1.2333989-0.7714844,1.7119145c-0.5146484,0.4775391-1.1669922,0.7167969-1.9589844,0.7167969
			c-0.2480469,0-0.4824219-0.0253906-0.7041016-0.0761719c-0.2207031-0.0507813-0.4980469-0.1464844-0.8320313-0.2871094
			c-0.1865234-0.078125-0.3398438-0.1171875-0.4599609-0.1171875c-0.1005859,0-0.2070313,0.0390625-0.3203125,0.1171875
			c-0.1123047,0.078125-0.203125,0.1972656-0.2734375,0.3574219h-0.2148438V6.8409829h0.2148438
			c0.1708984,0.8427734,0.5,1.485352,0.9863281,1.9277349c0.4873047,0.4433594,1.0117188,0.6640625,1.5751953,0.6640625
			c0.4345703,0,0.7802734-0.1181641,1.0380859-0.3564453c0.2587891-0.2382813,0.3876953-0.5146484,0.3876953-0.8310547
			c0-0.1875-0.0498047-0.3681645-0.1484375-0.5439458c-0.0996094-0.1757813-0.25-0.3427734-0.4511719-0.5
			c-0.2021484-0.1582031-0.5585938-0.3642578-1.0712891-0.6181641c-0.7177734-0.3544922-1.2333984-0.6572266-1.5478516-0.90625
			c-0.3144531-0.25-0.5556641-0.5288086-0.7246094-0.8369141s-0.2529297-0.6474609-0.2529297-1.0180662
			c0-0.6323242,0.2304688-1.1704102,0.6923828-1.6152344c0.4619141-0.4443361,1.0439453-0.6669923,1.7460938-0.6669923
			c0.2558594,0,0.5039063,0.03125,0.7451172,0.09375c0.1816406,0.046875,0.4042969,0.1337891,0.6660156,0.2602539
			c0.2617188,0.1269532,0.4453125,0.1904298,0.5498047,0.1904298c0.1015625,0,0.1806641-0.03125,0.2392578-0.0937501
			c0.0576172-0.0625,0.1123047-0.2124023,0.1630859-0.4506836H95.0986328z"/>
	</g>
</g>
<g>
</g>
<g>
</g>
<g>
</g>
<g>
</g>
<g>
</g>
</svg>
