<?xml version="1.0" encoding="utf-8"?>
<!-- Generator: Adobe Illustrator 19.0.0, SVG Export Plug-In . SVG Version: 6.00 Build 0)  -->
<svg version="1.1" id="Layer_1" xmlns="http://www.w3.org/2000/svg" xmlns:xlink="http://www.w3.org/1999/xlink" x="0px" y="0px"
	 viewBox="0.3333015 236 207.3333588 152" style="enable-background:new 0.3333015 236 207.3333588 152;" xml:space="preserve">
<style type="text/css">
	.st0{fill:#FFFFFF;}
	.st1{fill:none;stroke:#262626;stroke-linecap:square;stroke-linejoin:round;stroke-miterlimit:10;}
	.st2{enable-background:new    ;}
	.st3{fill:#262626;}
	.st4{fill:none;stroke:#0072BD;stroke-miterlimit:10;}
	.st5{fill:none;stroke:#D95319;stroke-linejoin:round;stroke-miterlimit:10;}
	.st6{fill:#EDB120;}
	.st7{fill:none;stroke:#262626;stroke-miterlimit:10;}
</style>
<path class="st0" d="M18.3375549,368.4684753H202.410675V241H18.3375549V368.4684753z"/>
<g>
	<line class="st1" x1="18.3375549" y1="368.4684753" x2="202.410675" y2="368.4684753"/>
	<line class="st1" x1="18.3375549" y1="368.4684753" x2="18.3375549" y2="366.6277466"/>
	<line class="st1" x1="76.9298477" y1="368.4684753" x2="76.9298477" y2="366.6277466"/>
	<line class="st1" x1="135.5221405" y1="368.4684753" x2="135.5221405" y2="366.6277466"/>
	<line class="st1" x1="194.1144104" y1="368.4684753" x2="194.1144104" y2="366.6277466"/>
</g>
<g transform="translate(72,333.6667)">
	<g class="st2">
		<path class="st3" d="M-51.5517578,47.6340942c0,2.5795898-0.9570313,4.0039063-2.6381836,4.0039063
			c-1.4824219,0-2.4863281-1.3891602-2.5092773-3.8989258c0-2.5444336,1.097168-3.9453125,2.6376953-3.9453125
			C-52.4619141,43.7937622-51.5517578,45.2180786-51.5517578,47.6340942z M-55.6723633,47.7507935
			c0,1.9726563,0.6069336,3.0932617,1.5410156,3.0932617c1.0507813,0,1.5527344-1.2255859,1.5527344-3.1630859
			c0-1.8676758-0.4790039-3.0932617-1.5410156-3.0932617C-55.0185547,44.5877075-55.6723633,45.6848755-55.6723633,47.7507935z"/>
	</g>
</g>
<g transform="translate(207.6,333.6667)">
	<g class="st2">
		<path class="st3" d="M-133.6014709,51.5095825v-0.6303711l0.8051758-0.7822266
			c1.9379883-1.8442383,2.8134766-2.824707,2.8251953-3.96875c0-0.7705078-0.3735352-1.4824219-1.5058594-1.4824219
			c-0.6889648,0-1.2607422,0.3500977-1.6108398,0.6420898l-0.3271484-0.7236328
			c0.5253906-0.4438477,1.2724609-0.7705078,2.1479492-0.7705078c1.6342773,0,2.3227539,1.1206055,2.3227539,2.2060547
			c0,1.4008789-1.0151367,2.5332031-2.6147461,4.0742188l-0.6069336,0.5600586v0.0234375h3.4086914v0.8520508H-133.6014709z"/>
	</g>
</g>
<g transform="translate(343.2,333.6667)">
	<g class="st2">
		<path class="st3" d="M-207.4343872,51.5095825v-2.065918h-3.5249023v-0.6772461l3.3847656-4.8442383h1.1088867v4.7158203h1.0625
			v0.8056641h-1.0625v2.065918H-207.4343872z M-207.4343872,48.6380005v-2.5332031
			c0-0.3964844,0.0117188-0.793457,0.0351563-1.1904297h-0.0351563c-0.2333984,0.4433594-0.4199219,0.7705078-0.6303711,1.1206055
			l-1.855957,2.5795898v0.0234375H-207.4343872z"/>
	</g>
</g>
<g transform="translate(478.8,333.6667)">
	<g class="st2">
		<path class="st3" d="M-283.2863159,44.645813c-0.2099609-0.0117188-0.4785156,0-0.7705078,0.046875
			c-1.6108398,0.2685547-2.4628906,1.4472656-2.6381836,2.6962891h0.0351563
			c0.3618164-0.4785156,0.9921875-0.8754883,1.8325195-0.8754883c1.3427734,0,2.2880859,0.96875,2.2880859,2.4511719
			c0,1.3891602-0.9453125,2.6733398-2.5214844,2.6733398c-1.6225586,0-2.6845703-1.2607422-2.6845703-3.2333984
			c0-1.4941406,0.5371094-2.6733398,1.2841797-3.4204102c0.6298828-0.6186523,1.4707031-1.0039063,2.4277344-1.1206055
			c0.3037109-0.0463867,0.5605469-0.0581055,0.7470703-0.0581055V44.645813z M-283.5783081,49.0232544
			c0-1.0854492-0.6186523-1.7392578-1.5639648-1.7392578c-0.6186523,0-1.190918,0.3852539-1.4707031,0.9335938
			c-0.0703125,0.1166992-0.1166992,0.2685547-0.1166992,0.4555664c0.0229492,1.2490234,0.5952148,2.1708984,1.6689453,2.1708984
			C-284.1735229,50.8440552-283.5783081,50.1087036-283.5783081,49.0232544z"/>
	</g>
</g>
<g>
	<line class="st1" x1="18.3375549" y1="368.4684753" x2="18.3375549" y2="241"/>
	<line class="st1" x1="18.3375549" y1="368.4684753" x2="20.1782875" y2="368.4684753"/>
	<line class="st1" x1="18.3375549" y1="319.4421387" x2="20.1782875" y2="319.4421387"/>
	<line class="st1" x1="18.3375549" y1="270.415802" x2="20.1782875" y2="270.415802"/>
</g>
<g transform="translate(61.3333,323)">
	<g class="st2">
		<path class="st3" d="M-48.950489,46.3461914c0,2.5795898-0.9570313,4.0039063-2.6381836,4.0039063
			c-1.4824219,0-2.4863281-1.3891602-2.5092773-3.8989258c0-2.5444336,1.097168-3.9453125,2.6376953-3.9453125
			C-49.8606453,42.5058594-48.950489,43.9301758-48.950489,46.3461914z M-53.0710945,46.4628906
			c0,1.9726563,0.6069336,3.0932617,1.5410156,3.0932617c1.0507813,0,1.5527344-1.2255859,1.5527344-3.1630859
			c0-1.8676758-0.4790039-3.0932617-1.5410156-3.0932617C-52.4172859,43.2998047-53.0710945,44.3969727-53.0710945,46.4628906z"/>
	</g>
</g>
<g transform="translate(61.3333,209.5385)">
	<g class="st2">
		<path class="st3" d="M-49.4641609,107.9326935h-2.8945313l-0.2919922,1.9492188
			c0.175293-0.0229492,0.3383789-0.0463867,0.6186523-0.0463867c0.5834961,0,1.1674805,0.128418,1.6342773,0.4082031
			c0.5952148,0.3388672,1.0854492,0.9921875,1.0854492,1.949707c0,1.4824219-1.1787109,2.5913086-2.824707,2.5913086
			c-0.8286133,0-1.5292969-0.2333984-1.8911133-0.4667969l0.2568359-0.7822266
			c0.3149414,0.1865234,0.934082,0.4204102,1.6225586,0.4204102c0.96875,0,1.7978516-0.6303711,1.7978516-1.6459961
			c-0.0117188-0.9804688-0.6655273-1.6811523-2.1831055-1.6811523c-0.4316406,0-0.7705078,0.046875-1.050293,0.0820313
			l0.4902344-3.6420898h3.6298828V107.9326935z"/>
	</g>
</g>
<g transform="translate(61.3333,96.0769)">
	<g class="st2">
		<path class="st3" d="M-58.2444344,172.4616699h-0.0234375l-1.3188477,0.7124023l-0.1987305-0.7822266l1.6577148-0.887207
			h0.8754883v7.5874023h-0.9921875V172.4616699z"/>
		<path class="st3" d="M-49.4465828,175.2165527c0,2.5795898-0.9570313,4.0039063-2.6381836,4.0039063
			c-1.4824219,0-2.4863281-1.3891602-2.5092773-3.8989258c0-2.5444336,1.097168-3.9453125,2.6376953-3.9453125
			C-50.356739,171.3762207-49.4465828,172.8005371-49.4465828,175.2165527z M-53.5671883,175.333252
			c0,1.9726563,0.6069336,3.0932617,1.5410156,3.0932617c1.0507813,0,1.5527344-1.2255859,1.5527344-3.1630859
			c0-1.8676758-0.4790039-3.0932617-1.5410156-3.0932617C-52.9133797,172.170166-53.5671883,173.267334-53.5671883,175.333252z"/>
	</g>
</g>
<g transform="translate(72,156.6869)">
	<path class="st4" d="M-53.6624451,136.4614868v6.9135437 M-57.1192169,139.9182587h6.9135437"/>
	<path class="st4" d="M-43.9743652,148.4959412v6.9135437 M-47.4311371,151.952713h6.9135437"/>
	<path class="st4" d="M-34.2863312,174.3676758v6.9135437 M-37.743103,177.8244476h6.9135456"/>
	<path class="st4" d="M-24.5982513,174.4243164v6.9135437 M-28.0550232,177.8810883h6.9135437"/>
	<path class="st4" d="M-14.9102154,189.9950104v6.9135437 M-18.3669872,193.4517822h6.9135437"/>
	<path class="st4" d="M-5.2221346,175.6312103v6.9135437 M-8.6789064,179.0879822h6.9135437"/>
	<path class="st4" d="M4.4659033,181.6599121v6.9135437 M1.0091313,185.116684h6.9135442"/>
	<path class="st4" d="M14.1539812,163.8273315v6.9135437 M10.6972094,167.2841034h6.9135447"/>
	<path class="st4" d="M23.8420124,164.195694v6.9135437 M20.3852406,167.6524658h6.9135437"/>
	<path class="st4" d="M33.530098,143.9287262v6.9135437 M30.0733242,147.385498h6.9135456"/>
	<path class="st4" d="M43.2181282,122.4593964v6.9135437 M39.7613564,125.9161682h6.9135437"/>
	<path class="st4" d="M52.9062119,126.2007065v6.9135361 M49.44944,129.6574707h6.9135437"/>
	<path class="st4" d="M62.5942497,114.6294632v6.9135437 M59.1374779,118.086235h6.9135475"/>
	<path class="st4" d="M72.2823257,107.3347244v6.9135437 M68.8255539,110.7914963h6.9135437"/>
	<path class="st4" d="M81.9703674,90.7882385v6.9135437 M78.5135956,94.2450104h6.9135437"/>
	<path class="st4" d="M91.6584396,93.5772018v6.9135437 M88.2016678,97.0339737h6.9135437"/>
	<path class="st4" d="M101.3464661,108.8694916v6.9135437 M97.8896942,112.3262634h6.9135513"/>
	<path class="st4" d="M111.0345535,105.2773361v6.9135437 M107.5777817,108.734108h6.9135437"/>
	<path class="st4" d="M120.7225876,121.4991074v6.9135513 M117.2658157,124.9558792h6.9135437"/>
	<path class="st4" d="M130.410675,146.5201263v6.9135437 M126.9538956,149.9768982h6.9135513"/>
	<path class="st5" d="M-53.6624451,142.895401l3.7566032,5.5192566l3.7566071,5.4298096l3.7565575,5.2512207l3.7566032,4.9864044
		l3.7566071,4.639679l3.7566032,4.2167816l3.7565613,3.7246704l3.7566013,3.1714172l3.7566071,2.5660553l3.7566013,1.9185028
		l3.7566071,1.2396088l3.7565613,0.5401917l3.7566013-0.1680298l3.7566009-0.8734589l3.7566075-1.564621l3.7566011-2.2299957
		l3.7565613-2.8587952l3.756608-3.4407043l3.7566004-3.9660339l3.7565613-4.4263153l3.7566013-4.8138885l3.7566013-5.1223755
		l3.7566071-5.346817l3.7565689-5.4834747l3.7566338-5.5299683l3.7565689-5.4858093l3.7566071-5.3515167l3.7565956-5.1293335
		l3.7565651-4.8229294l3.7566109-4.4373703l3.7565918-3.97892l3.7566071-3.4551315l3.7566071-2.874649l3.7565536-2.2469025
		l3.7566071-1.5822983l3.7566147-0.891716l3.7565918-0.1864929l3.7566071,0.521843l3.7565536,1.2215347l3.7566071,1.9011841
		l3.7566071,2.5496674l3.7566071,3.1562119l3.7565994,3.7110138l3.7565689,4.2048187l3.7565918,4.6296158l3.7566071,4.9783554
		l3.7565689,5.2453995l3.7565918,5.4262543l3.7566147,5.5180511"/>
	<circle class="st6" cx="-53.6624451" cy="142.895401" r="1.1522717"/>
</g>
<g transform="translate(80.6939,176.3501)">
	<circle class="st6" cx="-58.5997429" cy="128.7514648" r="1.1522717"/>
</g>
<g transform="translate(89.3878,188.9163)">
	<circle class="st6" cx="-63.5370369" cy="121.6150665" r="1.1522717"/>
</g>
<g transform="translate(98.0816,201.0692)">
	<circle class="st6" cx="-68.4742737" cy="114.7134018" r="1.1522717"/>
</g>
<g transform="translate(106.7755,212.6092)">
	<circle class="st6" cx="-73.4115677" cy="108.15979" r="1.1522717"/>
</g>
<g transform="translate(115.4694,223.3468)">
	<circle class="st6" cx="-78.3488693" cy="102.0618668" r="1.1522717"/>
</g>
<g transform="translate(124.1633,233.1057)">
	<circle class="st6" cx="-83.2861633" cy="96.5197601" r="1.1522717"/>
</g>
<g transform="translate(132.8571,241.7257)">
	<circle class="st6" cx="-88.2234039" cy="91.6244354" r="1.1522717"/>
</g>
<g transform="translate(141.551,249.0653)">
	<circle class="st6" cx="-93.1606979" cy="87.4562378" r="1.1522717"/>
</g>
<g transform="translate(150.2449,255.0039)">
	<circle class="st6" cx="-98.0979996" cy="84.0836868" r="1.1522717"/>
</g>
<g transform="translate(158.9388,259.4439)">
	<circle class="st6" cx="-103.0352936" cy="81.5621948" r="1.1522717"/>
</g>
<g transform="translate(167.6327,262.3127)">
	<circle class="st6" cx="-107.9725952" cy="79.932991" r="1.1522717"/>
</g>
<g transform="translate(176.3265,263.5628)">
	<circle class="st6" cx="-112.9098358" cy="79.2230606" r="1.1522717"/>
</g>
<g transform="translate(185.0204,263.174)">
	<circle class="st6" cx="-117.8471222" cy="79.4438629" r="1.1522717"/>
</g>
<g transform="translate(193.7143,261.1526)">
	<circle class="st6" cx="-122.7844162" cy="80.591835" r="1.1522717"/>
</g>
<g transform="translate(202.4082,257.5316)">
	<circle class="st6" cx="-127.7217178" cy="82.6482086" r="1.1522717"/>
</g>
<g transform="translate(211.1021,252.3707)">
	<circle class="st6" cx="-132.6590118" cy="85.5791016" r="1.1522717"/>
</g>
<g transform="translate(219.7959,245.7546)">
	<circle class="st6" cx="-137.5962524" cy="89.3364105" r="1.1522717"/>
</g>
<g transform="translate(228.4898,237.7918)">
	<circle class="st6" cx="-142.5335541" cy="93.8585052" r="1.1522717"/>
</g>
<g transform="translate(237.1837,228.6132)">
	<circle class="st6" cx="-147.4708405" cy="99.0710602" r="1.1522717"/>
</g>
<g transform="translate(245.8775,218.3694)">
	<circle class="st6" cx="-152.4080811" cy="104.8885574" r="1.1522717"/>
</g>
<g transform="translate(254.5714,207.2286)">
	<circle class="st6" cx="-157.3453827" cy="111.2154465" r="1.1522717"/>
</g>
<g transform="translate(263.2653,195.3739)">
	<circle class="st6" cx="-162.2826691" cy="117.9477768" r="1.1522717"/>
</g>
<g transform="translate(271.9592,182.9998)">
	<circle class="st6" cx="-167.2199707" cy="124.9750748" r="1.1522717"/>
</g>
<g transform="translate(280.653,170.3094)">
	<circle class="st6" cx="-172.1572266" cy="132.1819916" r="1.1522717"/>
</g>
<g transform="translate(289.347,157.5114)">
	<circle class="st6" cx="-177.0945587" cy="139.4500275" r="1.1522717"/>
</g>
<g transform="translate(298.0408,144.8156)">
	<circle class="st6" cx="-182.0317993" cy="146.6600189" r="1.1522717"/>
</g>
<g transform="translate(306.7347,132.4306)">
	<circle class="st6" cx="-186.969101" cy="153.6934967" r="1.1522717"/>
</g>
<g transform="translate(315.4286,120.5598)">
	<circle class="st6" cx="-191.9063873" cy="160.434967" r="1.1522717"/>
</g>
<g transform="translate(324.1224,109.3981)">
	<circle class="st6" cx="-196.8436432" cy="166.7737274" r="1.1522717"/>
</g>
<g transform="translate(332.8163,99.1287)">
	<circle class="st6" cx="-201.7809448" cy="172.6057587" r="1.1522717"/>
</g>
<g transform="translate(341.5102,89.9203)">
	<circle class="st6" cx="-206.7182159" cy="177.8352509" r="1.1522717"/>
</g>
<g transform="translate(350.2041,81.9241)">
	<circle class="st6" cx="-211.6555176" cy="182.3763123" r="1.1522717"/>
</g>
<g transform="translate(358.898,75.2713)">
	<circle class="st6" cx="-216.5928192" cy="186.1544647" r="1.1522717"/>
</g>
<g transform="translate(367.5918,70.0713)">
	<circle class="st6" cx="-221.5300598" cy="189.1075592" r="1.1522717"/>
</g>
<g transform="translate(376.2857,66.4094)">
	<circle class="st6" cx="-226.4673615" cy="191.1871643" r="1.1522717"/>
</g>
<g transform="translate(384.9796,64.3457)">
	<circle class="st6" cx="-231.4046631" cy="192.3591461" r="1.1522717"/>
</g>
<g transform="translate(393.6735,63.9141)">
	<circle class="st6" cx="-236.3419495" cy="192.6042633" r="1.1522717"/>
</g>
<g transform="translate(402.3674,65.1218)">
	<circle class="st6" cx="-241.2792358" cy="191.918396" r="1.1522717"/>
</g>
<g transform="translate(411.0612,67.9488)">
	<circle class="st6" cx="-246.2164764" cy="190.3129425" r="1.1522717"/>
</g>
<g transform="translate(419.7551,72.3487)">
	<circle class="st6" cx="-251.1537781" cy="187.8142242" r="1.1522717"/>
</g>
<g transform="translate(428.449,78.2494)">
	<circle class="st6" cx="-256.0910645" cy="184.4631958" r="1.1522717"/>
</g>
<g transform="translate(437.1429,85.5538)">
	<circle class="st6" cx="-261.0283813" cy="180.3150024" r="1.1522717"/>
</g>
<g transform="translate(445.8368,94.1422)">
	<circle class="st6" cx="-265.9656677" cy="175.4376221" r="1.1522717"/>
</g>
<g transform="translate(454.5306,103.8734)">
	<circle class="st6" cx="-270.9029236" cy="169.9112396" r="1.1522717"/>
</g>
<g transform="translate(463.2245,114.5877)">
	<circle class="st6" cx="-275.8401794" cy="163.8265381" r="1.1522717"/>
</g>
<g transform="translate(471.9184,126.1091)">
	<circle class="st6" cx="-280.7774963" cy="157.283493" r="1.1522717"/>
</g>
<g transform="translate(480.6122,138.2485)">
	<circle class="st6" cx="-285.7147522" cy="150.3894958" r="1.1522717"/>
</g>
<g transform="translate(489.3061,150.8065)">
	<circle class="st6" cx="-290.6520386" cy="143.2577515" r="1.1522717"/>
</g>
<g transform="translate(498,163.5769)">
	<circle class="st6" cx="-295.589325" cy="136.0054016" r="1.1522717"/>
</g>
<line class="st7" x1="18.3375549" y1="241" x2="202.410675" y2="241"/>
<line class="st7" x1="202.410675" y1="241" x2="202.410675" y2="368.4684753"/>
</svg>
