<?xml version="1.0" encoding="utf-8"?>
<!-- Generator: Adobe Illustrator 19.0.0, SVG Export Plug-In . SVG Version: 6.00 Build 0)  -->
<svg version="1.1" id="Layer_1" xmlns="http://www.w3.org/2000/svg" xmlns:xlink="http://www.w3.org/1999/xlink" x="0px" y="0px"
	 width="357.1199951px" height="210.9600067px" viewBox="0 0 357.1199951 210.9600067"
	 style="enable-background:new 0 0 357.1199951 210.9600067;" xml:space="preserve">
<style type="text/css">
	.st0{clip-path:url(#SVGID_2_);}
	.st1{clip-path:url(#SVGID_4_);}
	.st2{clip-path:url(#SVGID_6_);}
	.st3{opacity:0.39216;clip-path:url(#SVGID_8_);fill-rule:evenodd;clip-rule:evenodd;fill:#F019FE;}
	
		.st4{clip-path:url(#SVGID_8_);fill:none;stroke:#000000;stroke-width:4.1860423;stroke-linecap:round;stroke-linejoin:round;stroke-miterlimit:10;}
	.st5{clip-path:url(#SVGID_8_);}
	.st6{clip-path:url(#SVGID_10_);fill-rule:evenodd;clip-rule:evenodd;}
</style>
<g>
	<defs>
		<rect id="SVGID_1_" width="357.1199951" height="210.9600067"/>
	</defs>
	<clipPath id="SVGID_2_">
		<use xlink:href="#SVGID_1_"  style="overflow:visible;"/>
	</clipPath>
	<g class="st0">
		<defs>
			<rect id="SVGID_3_" x="0.0000053" width="357.1199951" height="210.9600067"/>
		</defs>
		<clipPath id="SVGID_4_">
			<use xlink:href="#SVGID_3_"  style="overflow:visible;"/>
		</clipPath>
		<g class="st1">
		</g>
	</g>
	<g class="st0">
		<defs>
			<rect id="SVGID_5_" y="-0.0000458" width="357.1199951" height="210.9600067"/>
		</defs>
		<clipPath id="SVGID_6_">
			<use xlink:href="#SVGID_5_"  style="overflow:visible;"/>
		</clipPath>
		<g class="st2">
			<defs>
				<rect id="SVGID_7_" y="-0.000824" width="356.579071" height="210.7508087"/>
			</defs>
			<clipPath id="SVGID_8_">
				<use xlink:href="#SVGID_7_"  style="overflow:visible;"/>
			</clipPath>
			<ellipse class="st3" cx="178.288147" cy="167.2720642" rx="167.8005981" ry="29.2396202"/>
			<ellipse class="st4" cx="178.288147" cy="167.2720642" rx="167.8005981" ry="29.2396202"/>
			<path class="st5" d="M178.288147,8.5426941l-12.5850525,41.7708893l10.4875336-8.354187h4.1950226l10.4875336,8.354187
				L178.288147,8.5426941z M176.1906281,167.2720642V41.9259949h4.1950226v125.3460693
				c0,1.1528778-0.939682,2.0885468-2.0975037,2.0885468C177.1303101,169.360611,176.1906281,168.424942,176.1906281,167.2720642z"
				/>
			<g class="st5">
				<defs>
					<rect id="SVGID_9_" x="204.8118134" y="0.166832" width="47.6354828" height="87.7628326"/>
				</defs>
				<clipPath id="SVGID_10_">
					<use xlink:href="#SVGID_9_"  style="overflow:visible;"/>
				</clipPath>
				<path class="st6" d="M241.9608307,49.1091766c0,1.6056671-0.2298889,3.2046509-0.6930237,4.7986145
					c-0.461441,1.5950775-1.2864685,3.0197296-2.4739532,4.2750702c-1.0739288,1.2046661-2.3688049,2.0924377-3.8873901,2.6649628
					c-1.5163727,0.5736542-3.0758057,0.8610382-4.6777496,0.8610382c-4.1279144,0-7.3972473-0.9022522-9.8113556-2.7061768
					l-2.4029236,2.3235626c-0.243866,0.2183075-0.5459137,0.346405-0.9044495,0.3826141h-0.509552
					c-0.3188171,0-0.6158295-0.1230927-0.8899078-0.3692474c-0.2729492-0.24617-0.4099884-0.5497131-0.4099884-0.9156189V48.6719818
					c0-0.3074341,0.1320038-0.5992737,0.3960114-0.8727417c0.2640076-0.2734528,0.56604-0.4098969,0.9038849-0.4115753
					l1.1600647,0.0000153c0.3204956,0.0016632,0.6225433,0.1381073,0.9055786,0.4115753
					c0.28302,0.2734528,0.4239655,0.5652924,0.4239655,0.8727264c0,3.0269775,1.0084991,5.3499756,3.024353,6.9712219
					c2.0175323,1.6223755,4.7208099,2.4321747,8.1143188,2.4304962c1.5454559,0.0016785,2.7620087-0.517395,3.6468811-1.5577545
					c0.509552-0.5809021,0.8764801-1.2592468,1.1030121-2.0345154c0.226532-0.7735901,0.3378448-1.6073303,0.3378448-2.5023346
					c0-1.4385834-0.3618927-2.7128601-1.0873566-3.8245087c-0.7254639-1.1105499-1.7104645-1.8312378-2.9555511-2.1609344
					l-6.9548035-1.6669312c-1.3552704-0.2907257-2.5852661-0.8131256-3.6882782-1.5700226
					c-1.1013336-0.7552032-2.0449371-1.634613-2.8274536-2.6371155c-0.7819519-1.0013733-1.3944244-2.1269531-1.8368683-3.3756256
					c-0.4429932-1.246994-0.6656189-2.5363007-0.6656189-3.8690643c0-1.5471802,0.2416382-3.0620728,0.7221069-4.5491028
					c0.4804688-1.4814606,1.3054962-2.8181152,2.4717255-4.0043945c1.1326599-1.1473083,2.4465332-1.9715881,3.9455566-2.4728394
					c1.499588-0.501236,3.0299377-0.7518616,4.5927429-0.7518616c3.5254974,0,6.2958984,0.8688354,8.3134308,2.5953522
					l2.317337-2.2389069c0.2640076-0.2394714,0.5850677-0.3564453,0.9609528-0.3564453h0.4524994
					c0.3210602,0,0.6231079,0.1225281,0.9044495,0.3564453c0.28302,0.2394867,0.4234161,0.5402374,0.4234161,0.9022522
					l0.0000153,11.7497864c0,0.3107758-0.1403961,0.6026001-0.4234314,0.8760681
					c-0.2813416,0.2734528-0.5833893,0.4099121-0.9044495,0.4082336h-1.1595001
					c-0.7718964,0.0016785-1.214325-0.3892975-1.3278656-1.1751404c-0.2830353-3.0592804-1.2299957-5.4429932-2.8425598-7.158371
					c-1.6109009-1.7098083-3.8493652-2.5674896-6.7142944-2.5730743c-0.7154083,0.0055847-1.3983459,0.1169586-2.0483093,0.3453064
					c-0.6505127,0.2283478-1.1925049,0.5792236-1.6265564,1.0526276c-0.4888611,0.5123749-0.8423615,1.1138763-1.0599365,1.8044891
					c-0.2164612,0.6906128-0.3260956,1.4369049-0.3260956,2.2388916c0,1.2754059,0.3635712,2.4059906,1.0895844,3.3901062
					c0.7254639,0.9835663,1.6824951,1.620697,2.8699646,1.9114227l6.8977661,1.6669312
					c1.4324646,0.3297119,2.7088776,0.8950043,3.8309021,1.6964417c1.1220398,0.8025513,2.0723572,1.7487946,2.8543091,2.8420715
					c0.7825165,1.093277,1.3865967,2.2957153,1.8100128,3.6078644
					C241.7499542,46.350647,241.9608307,47.7084808,241.9608307,49.1091766z"/>
			</g>
			<path class="st5" d="M276.8486328,143.3150635l38.5969543,20.6069794l-6.1303406-11.8991394l0.8362122-4.0935364
				l10.3141479-8.5658264L276.8486328,143.3150635z M318.9386292,153.9722137l-9.6541443-1.9548798l0.8362122-4.0935364
				l9.6541443,1.9548645c1.1354065,0.2311401,1.8681335,1.3338928,1.6388245,2.4644928
				C321.1815186,153.4737549,320.0740662,154.2033539,318.9386292,153.9722137z"/>
		</g>
	</g>
</g>
</svg>
