<?xml version="1.0" encoding="utf-8"?>
<!-- Generator: Adobe Illustrator 19.0.0, SVG Export Plug-In . SVG Version: 6.00 Build 0)  -->
<svg version="1.1" id="Layer_1" xmlns="http://www.w3.org/2000/svg" xmlns:xlink="http://www.w3.org/1999/xlink" x="0px" y="0px"
	 viewBox="0 0 136 107" style="enable-background:new 0 0 136 107;" xml:space="preserve">
<style type="text/css">
	.st0{fill:#FFFFFF;stroke:#000000;stroke-miterlimit:10;}
	.st1{fill:#010101;}
	.st2{fill:none;stroke:#A7A9AC;stroke-miterlimit:10;}
	.st3{fill:none;stroke:#A7A9AC;stroke-miterlimit:10;stroke-dasharray:2.9999967,2.9999967;}
	.st4{fill:none;}
	.st5{fill:none;stroke:#A7A9AC;stroke-miterlimit:10;stroke-dasharray:2.7479687,2.7479687;}
	.st6{fill:none;stroke:#010101;stroke-miterlimit:10;}
</style>
<rect id="XMLID_1_" x="58.5" y="27.5" class="st0" width="42.6666679" height="42.6666679"/>
<g id="XMLID_2_">
	<g id="XMLID_13_">
		<g id="XMLID_14_">
			<polygon id="XMLID_15_" points="78.8889008,70.6660156 78.8889008,72.5812378 87.8983765,70.1687317 78.8889008,67.7521057 
				78.8889008,69.6674805 71.7682953,69.6674805 71.7682953,70.6660156 			"/>
		</g>
	</g>
</g>
<g id="XMLID_3_">
	<g id="XMLID_17_">
		<g id="XMLID_18_">
			<polygon id="XMLID_19_" points="101.6660156,49.777771 103.5812378,49.777771 101.1687317,40.76828 98.7520905,49.777771 
				100.6674805,49.777771 100.6674805,56.8983765 101.6660156,56.8983765 			"/>
		</g>
	</g>
</g>
<g id="XMLID_4_">
	<g id="XMLID_21_">
		<g id="XMLID_22_">
			<polygon id="XMLID_23_" points="80.777771,27.0006714 80.777771,25.0854187 71.7682953,27.4979248 80.777771,29.9145813 
				80.777771,27.999176 87.8983765,27.999176 87.8983765,27.0006714 			"/>
		</g>
	</g>
</g>
<g id="XMLID_5_">
	<g id="XMLID_25_">
		<g id="XMLID_26_">
			<polygon id="XMLID_27_" points="58.0006561,47.888916 56.085434,47.888916 58.4979248,56.8983765 60.914566,47.888916 
				58.999176,47.888916 58.999176,40.76828 58.0006561,40.76828 			"/>
		</g>
	</g>
</g>
<g id="XMLID_6_">
	<g id="XMLID_35_">
		<g id="XMLID_36_">
			<polygon id="XMLID_37_" points="115.6074524,94.6660156 115.6074524,96.5812378 124.6169128,94.1687317 115.6074524,91.7521057 
				115.6074524,93.6674805 30.7683258,93.6674805 30.7683258,94.6660156 			"/>
		</g>
	</g>
</g>
<g id="XMLID_7_">
	<g id="XMLID_39_">
		<g id="XMLID_40_">
			<polygon id="XMLID_41_" points="31.2676239,14.5094604 33.1828461,14.5094604 30.7703552,5.5 28.353714,14.5094604 
				30.269104,14.5094604 30.269104,94.1666565 31.2676239,94.1666565 			"/>
		</g>
	</g>
</g>
<g id="XMLID_9_">
	<g id="XMLID_10_">
		<path id="XMLID_92_" class="st1" d="M130.4550781,91.0449219c0.1904297,0.2036133,0.3349609,0.4072266,0.4321289,0.6108398
			c0.0698242,0.140625,0.1850586,0.5107422,0.3442383,1.1098633l0.5146484-0.7753906
			c0.1357422-0.1879883,0.3007813-0.3666992,0.4960938-0.5371094c0.1943359-0.1704102,0.3662109-0.2866211,0.5136719-0.3496094
			c0.09375-0.0390625,0.1962891-0.0585938,0.3095703-0.0585938c0.1669922,0,0.3007813,0.0449219,0.4003906,0.1352539
			c0.0986328,0.0898438,0.1484375,0.199707,0.1484375,0.3286133c0,0.1489258-0.0292969,0.2504883-0.0878906,0.3051758
			c-0.1083984,0.0981445-0.2333984,0.1469727-0.3730469,0.1469727c-0.0820313,0-0.1699219-0.0175781-0.2626953-0.0527344
			c-0.1835938-0.0625-0.3056641-0.0942383-0.3681641-0.0942383c-0.09375,0-0.2041016,0.0551758-0.3330078,0.1645508
			c-0.2412109,0.2036133-0.5292969,0.597168-0.8642578,1.1801758l0.4785156,2.0195313
			c0.0742188,0.3095703,0.1367188,0.4951172,0.1875,0.5556641c0.0498047,0.0605469,0.1005859,0.0908203,0.1513672,0.0908203
			c0.0820313,0,0.1777344-0.0449219,0.2861328-0.1347656c0.2138672-0.1806641,0.3974609-0.4150391,0.5488281-0.7050781
			l0.2050781,0.1054688c-0.2451172,0.4619141-0.5566406,0.8457031-0.9345703,1.1513672
			c-0.2138672,0.171875-0.3955078,0.2578125-0.5429688,0.2578125c-0.21875,0-0.3916016-0.1230469-0.5205078-0.3691406
			c-0.0820313-0.1533203-0.2504883-0.8105469-0.5078125-1.9726563c-0.6069336,1.0605469-1.09375,1.7431641-1.4599609,2.0488281
			c-0.2373047,0.1953125-0.4672852,0.2929688-0.6889648,0.2929688c-0.1557617,0-0.2978516-0.0566406-0.4262695-0.1699219
			c-0.0932617-0.0859375-0.1401367-0.2011719-0.1401367-0.3466797c0-0.1289063,0.0429688-0.2363281,0.128418-0.3222656
			c0.0854492-0.0869141,0.190918-0.1298828,0.3154297-0.1298828s0.2568359,0.0625,0.3969727,0.1884766
			c0.1010742,0.0898438,0.1791992,0.1347656,0.2338867,0.1347656c0.0463867,0,0.1069336-0.03125,0.1806641-0.09375
			c0.1831055-0.1494141,0.4321289-0.4697266,0.7475586-0.9628906s0.5219727-0.8496094,0.6191406-1.0688477
			c-0.2412109-0.9511719-0.3720703-1.4541016-0.3911133-1.5092773c-0.0898438-0.2543945-0.206543-0.4345703-0.3505859-0.5400391
			c-0.144043-0.105957-0.3564453-0.1586914-0.6367188-0.1586914c-0.0893555,0-0.1923828,0.0039063-0.309082,0.0117188v-0.2114258
			L130.4550781,91.0449219z"/>
	</g>
</g>
<g id="XMLID_11_">
	<g id="XMLID_28_">
		<path id="XMLID_90_" class="st1" d="M19.034668,4.3417969c0.1333008,0.2250977,0.2255859,0.4355469,0.2763672,0.6313477
			s0.1020508,0.5805664,0.152832,1.1542969l0.2592773,2.8623047c0.2353516-0.2792969,0.5761719-0.7216797,1.0234375-1.3266602
			c0.2158203-0.2944336,0.4824219-0.6958008,0.7998047-1.2041016c0.1923828-0.3100586,0.3095703-0.5273438,0.3535156-0.6513672
			c0.0234375-0.0620117,0.0351563-0.1259766,0.0351563-0.1918945c0-0.0424805-0.0136719-0.0776367-0.0410156-0.1044922
			c-0.0273438-0.0273438-0.0996094-0.059082-0.2148438-0.0961914c-0.1162109-0.0366211-0.2119141-0.1044922-0.2880859-0.2036133
			c-0.0771484-0.0986328-0.1152344-0.2124023-0.1152344-0.340332c0-0.1586914,0.046875-0.2866211,0.1416016-0.3837891
			c0.09375-0.0966797,0.2119141-0.1455078,0.3525391-0.1455078c0.1728516,0,0.3193359,0.0708008,0.4414063,0.2124023
			c0.1210938,0.1416016,0.1826172,0.3364258,0.1826172,0.5844727c0,0.3066406-0.1064453,0.6567383-0.3183594,1.0498047
			c-0.2109375,0.394043-0.6191406,0.9975586-1.2236328,1.8120117c-0.6035156,0.8144531-1.3349609,1.7021484-2.1938477,2.6640625
			c-0.5922852,0.6630859-1.0317383,1.0810547-1.3178711,1.2539063c-0.2861328,0.171875-0.53125,0.2587891-0.7353516,0.2587891
			c-0.121582,0-0.2285156-0.0458984-0.3208008-0.1367188c-0.0917969-0.0917969-0.1381836-0.1972656-0.1381836-0.3173828
			c0-0.1513672,0.0639648-0.2890625,0.1914063-0.4130859s0.265625-0.1855469,0.4145508-0.1855469
			c0.0786133,0,0.1430664,0.0166016,0.1943359,0.0517578c0.03125,0.0195313,0.0654297,0.0751953,0.1025391,0.1660156
			c0.0375977,0.0908203,0.0717773,0.1523438,0.1030273,0.1835938c0.0195313,0.0185547,0.043457,0.0283203,0.0708008,0.0283203
			c0.0234375,0,0.0644531-0.0195313,0.1235352-0.0576172c0.2158203-0.1318359,0.4667969-0.3417969,0.7529297-0.6289063
			c0.3764648-0.3798828,0.6547852-0.6894531,0.8354492-0.9296875L18.6049805,6.25
			c-0.0546875-0.6088867-0.137207-0.9794922-0.2470703-1.1113281S18.0639648,4.940918,17.8051758,4.940918
			c-0.0825195,0-0.2294922,0.0117188-0.4414063,0.0351563l-0.0527344-0.215332L19.034668,4.3417969z"/>
	</g>
</g>
<g id="XMLID_8_">
	<g id="XMLID_61_">
		<line id="XMLID_64_" class="st2" x1="58.5" y1="70.1666565" x2="58.5" y2="71.6666565"/>
		<line id="XMLID_63_" class="st3" x1="58.5" y1="74.6666565" x2="58.5" y2="91.1666565"/>
		<line id="XMLID_62_" class="st2" x1="58.5" y1="92.6666565" x2="58.5" y2="94.1666565"/>
	</g>
</g>
<line id="XMLID_29_" class="st4" x1="101.1666641" y1="70.1666641" x2="101.1666641" y2="94.1666641"/>
<g id="XMLID_30_">
	<g id="XMLID_76_">
		<line id="XMLID_79_" class="st2" x1="101.1666565" y1="70.166687" x2="101.1666565" y2="71.666687"/>
		<line id="XMLID_78_" class="st3" x1="101.1666565" y1="74.666687" x2="101.1666565" y2="91.1666565"/>
		<line id="XMLID_77_" class="st2" x1="101.1666565" y1="92.6666565" x2="101.1666565" y2="94.1666565"/>
	</g>
</g>
<g id="XMLID_45_">
	<g id="XMLID_46_">
		<path id="XMLID_88_" class="st1" d="M58.4550781,99.3779297c0.1904297,0.2036133,0.3349609,0.4072266,0.4321289,0.6108398
			c0.0698242,0.140625,0.1850586,0.5107422,0.3442383,1.1098633l0.5146484-0.7753906
			c0.1357422-0.1879883,0.3007813-0.3666992,0.4960938-0.5371094c0.1943359-0.1704102,0.3662109-0.2866211,0.5136719-0.3496094
			c0.09375-0.0390625,0.1962891-0.0585938,0.3095703-0.0585938c0.1669922,0,0.3007813,0.0449219,0.4003906,0.1352539
			c0.0986328,0.0898438,0.1484375,0.199707,0.1484375,0.3286133c0,0.1489258-0.0292969,0.2504883-0.0878906,0.3051758
			c-0.1083984,0.0981445-0.2333984,0.1469727-0.3730469,0.1469727c-0.0820313,0-0.1699219-0.0175781-0.2626953-0.0527344
			c-0.1835938-0.0625-0.3056641-0.0942383-0.3681641-0.0942383c-0.09375,0-0.2041016,0.0551758-0.3330078,0.1645508
			c-0.2412109,0.2036133-0.5292969,0.597168-0.8642578,1.1801758l0.4785156,2.0195313
			c0.0742188,0.3095703,0.1367188,0.4951172,0.1875,0.5556641c0.0498047,0.0605469,0.1005859,0.0908203,0.1513672,0.0908203
			c0.0820313,0,0.1777344-0.0449219,0.2861328-0.1347656c0.2138672-0.1806641,0.3974609-0.4150391,0.5488281-0.7050781
			l0.2050781,0.1054688c-0.2451172,0.4619141-0.5566406,0.8457031-0.9345703,1.1513672
			c-0.2138672,0.171875-0.3955078,0.2578125-0.5429688,0.2578125c-0.21875,0-0.3916016-0.1230469-0.5205078-0.3691406
			c-0.0820313-0.1533203-0.2504883-0.8105469-0.5078125-1.9726563c-0.6069336,1.0605469-1.09375,1.7431641-1.4599609,2.0488281
			c-0.2373047,0.1953125-0.4672852,0.2929688-0.6889648,0.2929688c-0.1557617,0-0.2978516-0.0566406-0.4262695-0.1699219
			c-0.0932617-0.0859375-0.1401367-0.2011719-0.1401367-0.3466797c0-0.1289063,0.0429688-0.2363281,0.128418-0.3222656
			c0.0854492-0.0869141,0.190918-0.1298828,0.3154297-0.1298828s0.2568359,0.0625,0.3969727,0.1884766
			c0.1010742,0.0898438,0.1791992,0.1347656,0.2338867,0.1347656c0.0463867,0,0.1069336-0.03125,0.1806641-0.09375
			c0.1831055-0.1494141,0.4321289-0.4697266,0.7475586-0.9628906s0.5219727-0.8496094,0.6191406-1.0688477
			c-0.2412109-0.9511719-0.3720703-1.4541016-0.3911133-1.5092773c-0.0898438-0.2543945-0.206543-0.4345703-0.3505859-0.5400391
			c-0.144043-0.105957-0.3564453-0.1586914-0.6367188-0.1586914c-0.0893555,0-0.1923828,0.0039063-0.309082,0.0117188v-0.2114258
			L58.4550781,99.3779297z"/>
	</g>
</g>
<g id="XMLID_52_">
	<g id="XMLID_54_">
		<path id="XMLID_84_" class="st1" d="M91.9570313,99.3964844c0.190918,0.203125,0.3349609,0.4057617,0.4326172,0.6083984
			c0.0703125,0.140625,0.1850586,0.5092773,0.3447266,1.105957l0.5146484-0.7724609
			c0.1362305-0.1870117,0.3017578-0.3657227,0.4970703-0.5351563c0.1948242-0.1699219,0.3662109-0.2856445,0.5141602-0.3481445
			c0.09375-0.0390625,0.1967773-0.0585938,0.3100586-0.0585938c0.1674805,0,0.3007813,0.0449219,0.4003906,0.1347656
			c0.0991211,0.0898438,0.1489258,0.1987305,0.1489258,0.3276367c0,0.1479492-0.0292969,0.2495117-0.0878906,0.3041992
			c-0.1088867,0.0976563-0.2333984,0.1464844-0.3740234,0.1464844c-0.081543,0-0.1694336-0.0175781-0.2626953-0.0527344
			c-0.1835938-0.0625-0.3061523-0.09375-0.3686523-0.09375c-0.0932617,0-0.2045898,0.0546875-0.3330078,0.1635742
			c-0.2416992,0.203125-0.5302734,0.5947266-0.8652344,1.1767578l0.4794922,2.0126953
			c0.0737305,0.3076172,0.1362305,0.4921875,0.1870117,0.5527344c0.050293,0.0605469,0.1010742,0.0908203,0.1518555,0.0908203
			c0.0820313,0,0.1772461-0.0449219,0.2866211-0.1347656c0.2143555-0.1796875,0.3974609-0.4130859,0.5493164-0.7021484
			l0.2045898,0.1054688c-0.2456055,0.4599609-0.5571289,0.8427734-0.9350586,1.1464844
			c-0.2143555,0.171875-0.3959961,0.2578125-0.5439453,0.2578125c-0.2182617,0-0.3916016-0.1230469-0.5200195-0.3691406
			c-0.0820313-0.1513672-0.2514648-0.8076172-0.5087891-1.9658203c-0.6079102,1.0576172-1.0952148,1.7382813-1.4614258,2.0419922
			c-0.237793,0.1953125-0.4677734,0.2929688-0.6899414,0.2929688c-0.1557617,0-0.2978516-0.0566406-0.4267578-0.1699219
			c-0.0932617-0.0859375-0.1401367-0.2011719-0.1401367-0.3447266c0-0.1289063,0.0429688-0.2363281,0.128418-0.3222656
			c0.0859375-0.0859375,0.1914063-0.1289063,0.315918-0.1289063s0.2573242,0.0625,0.3974609,0.1875
			c0.1010742,0.0898438,0.1791992,0.1347656,0.2338867,0.1347656c0.046875,0,0.1069336-0.03125,0.1811523-0.09375
			c0.1831055-0.1484375,0.4326172-0.4677734,0.7480469-0.9599609c0.315918-0.4912109,0.5224609-0.8466797,0.6201172-1.0644531
			c-0.2416992-0.9482422-0.3725586-1.4492188-0.3920898-1.5039063c-0.0893555-0.253418-0.206543-0.4331055-0.3505859-0.5385742
			c-0.144043-0.1049805-0.3564453-0.1577148-0.637207-0.1577148c-0.0898438,0-0.1928711,0.0039063-0.3095703,0.0117188v-0.2109375
			L91.9570313,99.3964844z"/>
		<path id="XMLID_86_" class="st1" d="M109.6640625,96.371582l-1.6425781,5.6816406
			c0.7089844-1.0693359,1.2626953-1.7788086,1.6601563-2.1298828s0.7773438-0.5268555,1.1396484-0.5268555
			c0.1865234,0,0.3427734,0.0644531,0.4677734,0.1933594c0.1240234,0.128418,0.1865234,0.300293,0.1865234,0.5146484
			c0,0.2573242-0.0546875,0.5698242-0.1630859,0.9360352l-0.7138672,2.4521484
			c-0.0888672,0.2958984-0.1337891,0.4599609-0.1337891,0.4912109c0,0.0546875,0.0166016,0.0996094,0.0498047,0.1347656
			c0.0322266,0.0351563,0.0703125,0.0527344,0.1132813,0.0527344c0.0507813,0,0.109375-0.0253906,0.1757813-0.0761719
			c0.2216797-0.171875,0.4423828-0.4101563,0.6601563-0.7138672l0.1816406,0.1113281
			c-0.1328125,0.2060547-0.3164063,0.4335938-0.5527344,0.6816406c-0.2353516,0.2470703-0.4384766,0.4189453-0.6074219,0.5146484
			c-0.1699219,0.0957031-0.3212891,0.1435547-0.453125,0.1435547c-0.1445313,0-0.2626953-0.0458984-0.3535156-0.1376953
			c-0.0917969-0.0917969-0.1376953-0.2099609-0.1376953-0.3535156c0-0.171875,0.0683594-0.4921875,0.2041016-0.9599609
			l0.6728516-2.3408203c0.0859375-0.2919922,0.1289063-0.5224609,0.1289063-0.6904297
			c0-0.0776367-0.0244141-0.1401367-0.0732422-0.1870117s-0.1123047-0.0703125-0.1904297-0.0703125
			c-0.1132813,0-0.2412109,0.0429688-0.3857422,0.1289063c-0.2646484,0.1635742-0.5712891,0.4677734-0.9179688,0.9125977
			c-0.09375,0.1210938-0.4052734,0.6083984-0.9355469,1.4628906c-0.1630859,0.2734375-0.2978516,0.5712891-0.4033203,0.8955078
			l-0.3740234,1.1992188h-0.8769531l1.9238281-6.6938477l0.2041016-0.7255859c0-0.1010742-0.0419922-0.190918-0.125-0.269043
			c-0.0839844-0.078125-0.1865234-0.1171875-0.3076172-0.1171875c-0.0693359,0-0.1767578,0.0117188-0.3212891,0.0351563
			l-0.1230469,0.0175781v-0.2280273L109.6640625,96.371582z"/>
	</g>
	<g id="XMLID_53_">
		<path id="XMLID_82_" class="st1" d="M100.3632813,98.5483398h0.5727539v2.796875h2.7768555v0.5673828h-2.7768555v2.7792969
			h-0.5727539v-2.7792969H97.574707v-0.5673828h2.7885742V98.5483398z"/>
	</g>
</g>
<g id="XMLID_44_">
	<g id="XMLID_66_">
		<line id="XMLID_69_" class="st2" x1="58.5" y1="70.1666565" x2="57" y2="70.1666565"/>
		<line id="XMLID_68_" class="st5" x1="54.2520294" y1="70.1666565" x2="33.6422729" y2="70.1666565"/>
		<line id="XMLID_67_" class="st2" x1="32.26828" y1="70.1666565" x2="30.76828" y2="70.1666565"/>
	</g>
</g>
<g id="XMLID_55_">
	<g id="XMLID_71_">
		<line id="XMLID_74_" class="st2" x1="58.5" y1="27.5" x2="57" y2="27.5"/>
		<line id="XMLID_73_" class="st5" x1="54.2520294" y1="27.5" x2="33.6422729" y2="27.5"/>
		<line id="XMLID_72_" class="st2" x1="32.26828" y1="27.5" x2="30.76828" y2="27.5"/>
	</g>
</g>
<g id="XMLID_32_">
	<g id="XMLID_33_">
		<path id="XMLID_80_" class="st1" d="M19.034668,67.0087891c0.1333008,0.2250977,0.2255859,0.4355469,0.2763672,0.6313477
			s0.1020508,0.5805664,0.152832,1.1542969l0.2592773,2.8623047c0.2353516-0.2792969,0.5761719-0.7216797,1.0234375-1.3266602
			c0.2158203-0.2944336,0.4824219-0.6958008,0.7998047-1.2041016c0.1923828-0.3100586,0.3095703-0.5273438,0.3535156-0.6513672
			c0.0234375-0.0620117,0.0351563-0.1259766,0.0351563-0.1918945c0-0.0424805-0.0136719-0.0776367-0.0410156-0.1044922
			c-0.0273438-0.0273438-0.0996094-0.059082-0.2148438-0.0961914c-0.1162109-0.0366211-0.2119141-0.1044922-0.2880859-0.2036133
			c-0.0771484-0.0986328-0.1152344-0.2124023-0.1152344-0.340332c0-0.1586914,0.046875-0.2866211,0.1416016-0.3837891
			c0.09375-0.0966797,0.2119141-0.1455078,0.3525391-0.1455078c0.1728516,0,0.3193359,0.0708008,0.4414063,0.2124023
			c0.1210938,0.1416016,0.1826172,0.3364258,0.1826172,0.5844727c0,0.3066406-0.1064453,0.6567383-0.3183594,1.0498047
			c-0.2109375,0.394043-0.6191406,0.9975586-1.2236328,1.8120117c-0.6035156,0.8144531-1.3349609,1.7021484-2.1938477,2.6640625
			c-0.5922852,0.6630859-1.0317383,1.0810547-1.3178711,1.2539063c-0.2861328,0.171875-0.53125,0.2587891-0.7353516,0.2587891
			c-0.121582,0-0.2285156-0.0458984-0.3208008-0.1367188c-0.0917969-0.0917969-0.1381836-0.1972656-0.1381836-0.3173828
			c0-0.1513672,0.0639648-0.2890625,0.1914063-0.4130859s0.265625-0.1855469,0.4145508-0.1855469
			c0.0786133,0,0.1430664,0.0166016,0.1943359,0.0517578c0.03125,0.0195313,0.0654297,0.0751953,0.1025391,0.1660156
			c0.0375977,0.0908203,0.0717773,0.1523438,0.1030273,0.1835938c0.0195313,0.0185547,0.043457,0.0283203,0.0708008,0.0283203
			c0.0234375,0,0.0644531-0.0195313,0.1235352-0.0576172c0.2158203-0.1318359,0.4667969-0.3417969,0.7529297-0.6289063
			c0.3764648-0.3798828,0.6547852-0.6894531,0.8354492-0.9296875l-0.3295898-3.6879883
			c-0.0546875-0.6088867-0.137207-0.9794922-0.2470703-1.1113281s-0.2939453-0.1977539-0.5527344-0.1977539
			c-0.0825195,0-0.2294922,0.0117188-0.4414063,0.0351563l-0.0527344-0.215332L19.034668,67.0087891z"/>
	</g>
</g>
<g id="XMLID_42_">
	<g id="XMLID_47_">
		<path id="XMLID_56_" class="st1" d="M5.5356445,25.8173828c0.1328125,0.2246094,0.2246094,0.4350586,0.2753906,0.6303711
			c0.0507813,0.1958008,0.1015625,0.5800781,0.152832,1.1533203l0.2578125,2.8574219
			c0.234375-0.2783203,0.5742188-0.7197266,1.0200195-1.3242188c0.2148438-0.2939453,0.4804688-0.6943359,0.7973633-1.2021484
			c0.1914063-0.3100586,0.3085938-0.5268555,0.3515625-0.6508789c0.0234375-0.0615234,0.0351563-0.1254883,0.0351563-0.1914063
			c0-0.0424805-0.0136719-0.0776367-0.0410156-0.1044922c-0.0273438-0.0273438-0.0986328-0.059082-0.2138672-0.0961914
			c-0.1152344-0.0366211-0.2109375-0.1044922-0.2871094-0.203125S7.769043,26.4741211,7.769043,26.3461914
			c0-0.1586914,0.0473633-0.2866211,0.1411133-0.3833008s0.2109375-0.1455078,0.3515625-0.1455078
			c0.171875,0,0.3183594,0.0708008,0.4394531,0.2124023c0.1210938,0.1411133,0.1821289,0.3359375,0.1821289,0.5834961
			c0,0.3061523-0.1054688,0.6557617-0.3168945,1.0488281c-0.2109375,0.3930664-0.6171875,0.996582-1.2192383,1.809082
			c-0.6020508,0.8134766-1.3305664,1.7001953-2.1865234,2.6611328c-0.590332,0.6621094-1.0283203,1.0791016-1.3134766,1.2519531
			c-0.2851563,0.171875-0.5292969,0.2578125-0.7329102,0.2578125c-0.1210938,0-0.2275391-0.0449219-0.3193359-0.1367188
			c-0.0917969-0.0908203-0.1376953-0.1962891-0.1376953-0.3164063c0-0.1503906,0.0634766-0.2880859,0.1904297-0.4121094
			s0.2651367-0.1855469,0.4135742-0.1855469c0.078125,0,0.1425781,0.0166016,0.1933594,0.0517578
			c0.03125,0.0195313,0.0654297,0.0742188,0.1025391,0.1660156c0.0371094,0.0908203,0.0712891,0.1513672,0.1025391,0.1826172
			c0.0195313,0.0195313,0.0429688,0.0292969,0.0703125,0.0292969c0.0234375,0,0.0644531-0.0195313,0.1230469-0.0585938
			c0.2148438-0.1318359,0.465332-0.3408203,0.7504883-0.6269531c0.375-0.3798828,0.652832-0.6894531,0.8325195-0.9296875
			l-0.328125-3.6826172c-0.0551758-0.6083984-0.137207-0.9780273-0.246582-1.1098633
			c-0.109375-0.1313477-0.2929688-0.1972656-0.5507813-0.1972656c-0.0820313,0-0.2285156,0.0112305-0.4399414,0.034668
			l-0.0527344-0.2148438L5.5356445,25.8173828z"/>
		<path id="XMLID_58_" class="st1" d="M23.6489258,22.8144531l-1.6474609,5.6411133
			c0.7109375-1.0620117,1.2666016-1.7666016,1.6650391-2.1152344s0.7792969-0.5229492,1.1435547-0.5229492
			c0.1875,0,0.34375,0.0639648,0.46875,0.1918945s0.1875,0.2983398,0.1875,0.5112305
			c0,0.2553711-0.0546875,0.5654297-0.1640625,0.9291992l-0.7158203,2.4345703
			c-0.0898438,0.2939453-0.1347656,0.4570313-0.1347656,0.4873047c0,0.0546875,0.0166016,0.0986328,0.0498047,0.1337891
			s0.0712891,0.0527344,0.1142578,0.0527344c0.0507813,0,0.109375-0.0253906,0.1767578-0.0761719
			c0.2226563-0.1699219,0.4433594-0.40625,0.6621094-0.7080078l0.1816406,0.1103516
			c-0.1328125,0.2050781-0.3173828,0.4306641-0.5537109,0.6767578c-0.2373047,0.2451172-0.4404297,0.4160156-0.6103516,0.5107422
			s-0.3212891,0.1425781-0.4541016,0.1425781c-0.1445313,0-0.2626953-0.0458984-0.3544922-0.1367188
			s-0.1376953-0.2080078-0.1376953-0.3515625c0-0.1699219,0.0683594-0.4882813,0.2050781-0.9521484l0.6738281-2.3242188
			c0.0859375-0.2900391,0.1289063-0.5185547,0.1289063-0.6850586c0-0.0776367-0.0244141-0.1396484-0.0732422-0.1860352
			s-0.1123047-0.0698242-0.1904297-0.0698242c-0.1132813,0-0.2421875,0.0424805-0.3867188,0.1279297
			c-0.265625,0.1625977-0.5722656,0.4648438-0.9199219,0.90625c-0.0947266,0.1201172-0.4072266,0.6040039-0.9384766,1.4516602
			c-0.1640625,0.2714844-0.2988281,0.5673828-0.4042969,0.8896484l-0.375,1.1904297h-0.8798828l1.9287109-6.6455078
			l0.2050781-0.7202148c0-0.1005859-0.0419922-0.1899414-0.1259766-0.2675781
			c-0.0839844-0.0771484-0.1865234-0.1157227-0.3076172-0.1157227c-0.0703125,0-0.1777344,0.0112305-0.3222656,0.034668
			l-0.1230469,0.0175781v-0.2265625L23.6489258,22.8144531z"/>
	</g>
	<g id="XMLID_43_">
		<path id="XMLID_50_" class="st1" d="M14.3271484,24.9750977h0.574707v2.7768555h2.7841797v0.5629883h-2.7841797v2.7597656
			h-0.574707v-2.7597656h-2.7963867v-0.5629883h2.7963867V24.9750977z"/>
	</g>
</g>
<circle id="XMLID_31_" class="st6" cx="79.8333359" cy="49.8333206" r="4.083334"/>
<circle id="XMLID_48_" class="st1" cx="79.8333282" cy="49.8333206" r="1.4972224"/>
<g id="XMLID_49_">
</g>
<g id="XMLID_94_">
</g>
<g id="XMLID_95_">
</g>
<g id="XMLID_96_">
</g>
<g id="XMLID_97_">
</g>
<g id="XMLID_98_">
</g>
</svg>
