<?xml version="1.0" encoding="utf-8"?>
<!-- Generator: Adobe Illustrator 19.0.0, SVG Export Plug-In . SVG Version: 6.00 Build 0)  -->
<svg version="1.1" id="图层_1" xmlns="http://www.w3.org/2000/svg" xmlns:xlink="http://www.w3.org/1999/xlink" x="0px" y="0px"
	 viewBox="239.9997559 58.5002441 116.25 130.75" enable-background="new 239.9997559 58.5002441 116.25 130.75"
	 xml:space="preserve">
<path fill-opacity="0" stroke="#BEBEBE" d="M242.7360077,146.8636017c0-8.7005615,19.2199249-15.7535095,42.9290619-15.7535095
	c23.7088318,0,42.9290771,7.052948,42.9290771,15.7535095"/>
<path fill-opacity="0" stroke="#BEBEBE" d="M285.6650696,96.3209763v50.5426254"/>
<path fill-opacity="0" stroke="#FF0000" stroke-opacity="0.508" d="M316.1141357,85.0882416v50.5427399l-30.4490662,11.2326202"/>
<path fill-opacity="0" stroke="#000000" d="M242.7360077,146.8636017V96.3209763"/>
<path fill-opacity="0" stroke="#000000" d="M328.5941467,146.8636017V96.3209763"/>
<path fill-opacity="0" stroke="#BEBEBE" d="M285.6650696,146.8636017l-10.0204468,15.4208374"/>
<g>
	<path fill-opacity="0" stroke="#000000" d="M275.6446228,162.2844391l-13.6137085,20.9504852"/>
	<path stroke="#000000" d="M260.6439819,182.3343353l-1.01651,4.599884l3.7907715-2.7973785L260.6439819,182.3343353z"/>
</g>
<g>
	<path fill-opacity="0" stroke="#000000" d="M317.5159607,157.3846436l23.8219299,7.8682098"/>
	<path stroke="#000000" d="M340.8193665,166.8232727l4.7069702-0.1867523l-3.66922-2.9545288L340.8193665,166.8232727z"/>
</g>
<path fill-opacity="0" stroke="#BEBEBE" d="M285.6650696,146.8636017l31.8508911,10.5210419"/>
<path fill-opacity="0" stroke="#000000" d="M242.7360077,146.8636017c0,8.7005615,19.2199249,15.753952,42.9290619,15.753952
	c23.7088318,0,42.9290771-7.0533905,42.9290771-15.753952"/>
<g>
	<path fill-opacity="0" stroke="#5F47FF" d="M316.1141357,85.0882416l-9.0956421-3.7191849"/>
	<path fill="#5F47FF" stroke="#5F47FF" d="M307.5545349,80.0568161l-4.0357971-0.1185455l2.9627991,2.7430573
		L307.5545349,80.0568161z"/>
</g>
<path fill-opacity="0" stroke="#000000" d="M285.6650696,112.0746918c-23.709137,0-42.9290619-7.0531387-42.9290619-15.7537155
	c0-8.7004547,19.2199249-15.75383,42.9290619-15.75383c23.7088318,0,42.9290771,7.0533752,42.9290771,15.75383
	C328.5941467,105.021553,309.3739014,112.0746918,285.6650696,112.0746918z"/>
<path fill-opacity="0" stroke="#FF0000" d="M285.6650696,96.3209763l30.4490662-11.2327347"/>
<g>
	<path fill-opacity="0" stroke="#000000" d="M285.6650696,96.3209763V72.2321167"/>
	<path stroke="#000000" d="M287.3187866,72.2321167l-1.653717-4.4106445l-1.6543579,4.4106445H287.3187866z"/>
</g>
<path fill-opacity="0" stroke="#A496FF" d="M282.6477356,151.503006c4.2202759,2.180954,22.3249207,0.3335571,15.3590698-9.1751099"
	/>
<g>
	<path fill-opacity="0" stroke="#FFA300" d="M337.5889893,99.5504684v16.1669769"/>
	<path fill-opacity="0" stroke="#FFA300" d="M339.0067444,100.33815l-1.4177551-3.1507111L336.17099,100.33815
		 M337.5889893,99.5504684V97.187439 M339.9520264,96.7147064h-4.7260742"/>
</g>
<g>
	<path fill-opacity="0" stroke="#FFA300" d="M337.5889893,123.9583893v19.6759338"/>
	<path fill-opacity="0" stroke="#FFA300" d="M336.17099,142.8464355l1.4179993,3.1506958l1.4177551-3.1506958
		 M337.5889893,143.6343231v2.3628082 M335.2259521,146.4698792h4.7260742"/>
</g>
<g>
	<path fill-opacity="0" stroke="#000000" d="M316.1141357,84.7806015v-9.7054062"/>
	<path stroke="#000000" d="M317.5319214,75.0751953l-1.4177856-3.7811356l-1.4177856,3.7811356H317.5319214z"/>
</g>
<g>
	<path fill-opacity="0" stroke="#FF0000" d="M316.1141357,85.0882416l9.486908-3.3895416"/>
	<path fill="#FF0000" stroke="#FF0000" d="M326.0780334,83.0339813l3.0838013-2.6067963l-4.0378113-0.0635376
		L326.0780334,83.0339813z"/>
</g>
<g>
	<g>
		<path fill="#5F47FF" d="M298.3840332,67.6413574h0.9882813l1.0200195,1.7763672h-0.1665039l-1.4658203-1.1430664
			l-1.2294922,1.1430664h-0.1611328L298.3840332,67.6413574z"/>
	</g>
	<g>
		<path fill="#5F47FF" d="M298.7941895,78.314209c-0.4077148,0-0.8037109-0.1396484-1.1865234-0.4189453
			c-0.3833008-0.2788086-0.6845703-0.6967773-0.9047852-1.253418c-0.2202148-0.5561523-0.3300781-1.2407227-0.3300781-2.0527344
			c0-1.2919922,0.2314453-2.2597656,0.6953125-2.9042969c0.4633789-0.644043,1.0390625-0.9658203,1.7260742-0.9658203
			c0.690918,0,1.2670898,0.3237305,1.7290039,0.9711914c0.4619141,0.6479492,0.6928711,1.6142578,0.6928711,2.8989258
			c0,0.8193359-0.1103516,1.5043945-0.3305664,2.0556641c-0.2197266,0.5512695-0.5205078,0.9672852-0.9018555,1.2480469
			S299.2058105,78.314209,298.7941895,78.314209z M297.951416,74.2937012h1.6860352v-0.3540039
			c0-1.2133789-0.0791016-1.9951172-0.2363281-2.3457031c-0.1577148-0.3510742-0.3618164-0.5263672-0.6123047-0.5263672
			c-0.2539063,0-0.4570313,0.1806641-0.609375,0.5424805c-0.1523438,0.3613281-0.2280273,1.1376953-0.2280273,2.3295898V74.2937012z
			 M297.951416,74.6804199v0.3647461c0,1.3276367,0.0810547,2.1455078,0.2441406,2.453125s0.3662109,0.4614258,0.609375,0.4614258
			c0.1538086,0,0.2983398-0.0742188,0.4321289-0.2226563c0.1342773-0.1484375,0.2348633-0.3935547,0.3007813-0.7353516
			c0.0664063-0.3417969,0.0996094-0.9936523,0.0996094-1.956543v-0.3647461H297.951416z"/>
	</g>
</g>
<g>
	<g>
		<path d="M316.3781738,60.1589355h0.9882813l1.0200195,1.7705078h-0.1665039l-1.4658203-1.1391602l-1.2294922,1.1391602h-0.1611328
			L316.3781738,60.1589355z"/>
	</g>
	<g>
		<path d="M318.8352051,68.076416h-4.3706055v-0.1176758l2.7597656-4.5566406h-0.8051758
			c-0.347168,0-0.5961914,0.03125-0.746582,0.09375s-0.2719727,0.1621094-0.3652344,0.2993164
			c-0.0927734,0.1376953-0.1894531,0.3823242-0.2895508,0.7353516h-0.1879883v-1.4545898h4.2255859v0.1445313l-2.7382813,4.5136719
			h0.34375c0.6870117,0,1.1826172-0.0981445,1.4873047-0.2939453c0.3041992-0.1962891,0.5332031-0.5546875,0.6870117-1.0751953
			h0.1503906L318.8352051,68.076416z"/>
	</g>
</g>
<g>
	<g>
		<path fill="#FF0000" d="M334.5822754,72.767334h0.9790039l1.0107422,1.7807617h-0.1650391l-1.4526367-1.1459961
			l-1.2182617,1.1459961h-0.159668L334.5822754,72.767334z"/>
	</g>
	<g>
		<path fill="#FF0000" d="M334.8410645,75.885498v1.140625c0.3300781-0.5200195,0.6191406-0.8652344,0.8676758-1.0356445
			c0.2480469-0.1704102,0.4873047-0.2553711,0.7182617-0.2553711c0.1982422,0,0.3574219,0.0615234,0.4760742,0.1855469
			c0.1186523,0.1235352,0.1782227,0.2983398,0.1782227,0.5244141c0,0.2402344-0.0576172,0.4267578-0.1728516,0.5595703
			s-0.2543945,0.1992188-0.4179688,0.1992188c-0.1879883,0-0.3510742-0.0610352-0.4892578-0.1831055
			s-0.2202148-0.1899414-0.2446289-0.2045898c-0.0356445-0.0214844-0.0766602-0.0322266-0.1225586-0.0322266
			c-0.1030273,0-0.2006836,0.0395508-0.2924805,0.1186523c-0.1455078,0.121582-0.2553711,0.2958984-0.3300781,0.5214844
			c-0.1137695,0.3481445-0.1704102,0.7319336-0.1704102,1.1513672v1.1567383l0.0053711,0.3012695
			c0,0.2045898,0.012207,0.3354492,0.0371094,0.3925781c0.0429688,0.097168,0.1054688,0.1679688,0.1889648,0.2128906
			s0.2246094,0.0722656,0.4233398,0.0830078v0.1938477h-2.6875v-0.1938477
			c0.2163086-0.0175781,0.362793-0.0776367,0.4389648-0.1801758c0.0766602-0.1020508,0.1147461-0.3720703,0.1147461-0.8095703
			v-2.78125c0-0.2871094-0.0141602-0.4697266-0.0429688-0.5488281c-0.0351563-0.1005859-0.0869141-0.1738281-0.1542969-0.2207031
			c-0.0673828-0.0463867-0.1860352-0.0786133-0.3564453-0.0966797V75.885498H334.8410645z"/>
	</g>
</g>
<g>
	<g>
		<g>
			<path fill="#A496FF" d="M305.1682129,146.5700684c0.4702148-1.4130859,1.1196289-2.5019531,1.9458008-3.265625
				c0.6240234-0.5732422,1.2382813-0.8608398,1.84375-0.8608398c0.5869141,0,0.9960938,0.2763672,1.2275391,0.8286133
				c0.3232422,0.7709961,0.2646484,1.8208008-0.1772461,3.1474609c-0.4194336,1.262207-1.0366211,2.2592773-1.8486328,2.9912109
				c-0.6323242,0.5664063-1.2495117,0.8500977-1.8510742,0.8500977c-0.3251953,0-0.5966797-0.0791016-0.8129883-0.2363281
				c-0.2158203-0.1586914-0.3774414-0.3867188-0.4863281-0.684082s-0.1630859-0.6132813-0.1625977-0.9467773
				C304.8469238,147.8200684,304.954834,147.2121582,305.1682129,146.5700684z M306.2033691,146.5432129
				c-0.1987305,0.6381836-0.340332,1.2119141-0.4282227,1.7216797c-0.0683594,0.387207-0.0751953,0.7246094-0.0205078,1.0117188
				c0.0332031,0.1713867,0.1152344,0.3178711,0.2470703,0.4384766c0.1318359,0.1196289,0.2958984,0.1796875,0.4931641,0.1796875
				c0.2294922,0,0.4819336-0.1074219,0.7597656-0.3222656c0.2773438-0.215332,0.5478516-0.5615234,0.8129883-1.0390625
				c0.2641602-0.4760742,0.5483398-1.140625,0.8525391-1.9902344H306.2033691z M309.0490723,146.1882324
				c0.3071289-0.9360352,0.4677734-1.6875,0.4814453-2.2543945c0.0073242-0.4335938-0.0698242-0.7441406-0.2333984-0.9301758
				c-0.1186523-0.1362305-0.2856445-0.2050781-0.5004883-0.2050781c-0.2441406,0-0.4990234,0.0957031-0.7666016,0.2856445
				s-0.5273438,0.5078125-0.7807617,0.9526367c-0.253418,0.4443359-0.5629883,1.1616211-0.9277344,2.1513672H309.0490723z"/>
		</g>
	</g>
</g>
<g>
	<g>
		<g>
			<path fill="#FF0000" d="M300.154541,94.2126465l1.8359375-0.300293l-0.7666016,2.6044922
				c0.6210938-1.0678711,1.1850586-1.8149414,1.6923828-2.2402344c0.2871094-0.2426758,0.5214844-0.3642578,0.7021484-0.3642578
				c0.1171875,0,0.2094727,0.034668,0.2768555,0.1044922s0.1010742,0.1708984,0.1010742,0.3027344
				c0,0.2358398-0.0600586,0.4609375-0.1806641,0.675293c-0.0854492,0.1606445-0.2075195,0.2412109-0.3671875,0.2412109
				c-0.0820313,0-0.1518555-0.0268555-0.2104492-0.0805664c-0.0585938-0.0532227-0.0947266-0.1357422-0.1088867-0.2460938
				c-0.0073242-0.0678711-0.0234375-0.112793-0.0478516-0.1342773c-0.0283203-0.0283203-0.0620117-0.0429688-0.1010742-0.0429688
				c-0.0605469,0-0.1171875,0.0146484-0.1704102,0.0429688c-0.0922852,0.050293-0.2324219,0.1894531-0.4204102,0.4179688
				c-0.2944336,0.3500977-0.6137695,0.8041992-0.9580078,1.3613281c-0.1489258,0.2358398-0.2763672,0.5019531-0.3828125,0.7983398
				c-0.1489258,0.4077148-0.234375,0.6523438-0.2553711,0.734375l-0.1704102,0.675293h-0.8139648l0.984375-3.328125
				c0.1132813-0.3857422,0.1699219-0.6606445,0.1699219-0.8251953c0-0.0644531-0.0263672-0.1181641-0.0795898-0.1606445
				c-0.0708008-0.0571289-0.1650391-0.0859375-0.2822266-0.0859375c-0.0742188,0-0.2109375,0.0161133-0.409668,0.0483398
				L300.154541,94.2126465z"/>
		</g>
	</g>
</g>
<g>
	<g>
		<g>
			<path fill="#FFA300" d="M336.1496582,117.7902832h3.409668v0.1337891l-3.715332,3.8583984h1.5732422
				c0.3720703,0,0.6083984-0.0141602,0.7084961-0.0424805c0.1000977-0.0288086,0.1923828-0.0893555,0.2768555-0.1826172
				c0.0839844-0.0927734,0.1777344-0.2607422,0.2817383-0.503418h0.1987305l-0.4672852,1.4575195h-3.4956055v-0.1552734
				l3.7158203-3.8588867h-1.5463867c-0.3256836,0-0.5229492,0.0092773-0.5908203,0.0268555
				c-0.1000977,0.0214844-0.199707,0.0776367-0.2978516,0.1689453c-0.0986328,0.0908203-0.199707,0.2421875-0.3032227,0.4526367
				h-0.2041016L336.1496582,117.7902832z"/>
		</g>
	</g>
</g>
<g>
	<g>
		<path d="M255.157959,174.845459c0.1904297,0.2036133,0.3349609,0.4072266,0.4321289,0.6108398
			c0.0698242,0.140625,0.1850586,0.5107422,0.3442383,1.1098633l0.5146484-0.7753906
			c0.1357422-0.1879883,0.3007813-0.3666992,0.4960938-0.5371094c0.1943359-0.1704102,0.3662109-0.2866211,0.5136719-0.3496094
			c0.09375-0.0390625,0.1962891-0.0585938,0.3095703-0.0585938c0.1669922,0,0.3007813,0.0449219,0.4003906,0.1352539
			c0.0986328,0.0898438,0.1484375,0.199707,0.1484375,0.3286133c0,0.1489258-0.0292969,0.2504883-0.0878906,0.3051758
			c-0.1083984,0.0981445-0.2333984,0.1469727-0.3730469,0.1469727c-0.0820313,0-0.1699219-0.0175781-0.2626953-0.0527344
			c-0.1835938-0.0625-0.3056641-0.0942383-0.3681641-0.0942383c-0.09375,0-0.2041016,0.0551758-0.3330078,0.1645508
			c-0.2412109,0.2036133-0.5292969,0.597168-0.8642578,1.1801758l0.4785156,2.0195313
			c0.0742188,0.3095703,0.1367188,0.4951172,0.1875,0.5556641c0.0498047,0.0605469,0.1005859,0.0908203,0.1513672,0.0908203
			c0.0820313,0,0.1777344-0.0449219,0.2861328-0.1347656c0.2138672-0.1806641,0.3974609-0.4150391,0.5488281-0.7050781
			l0.2050781,0.1054688c-0.2460938,0.4619141-0.5576172,0.8457031-0.9345703,1.1513672
			c-0.2138672,0.171875-0.3955078,0.2578125-0.5429688,0.2578125c-0.21875,0-0.3916016-0.1230469-0.5205078-0.3691406
			c-0.0820313-0.1533203-0.2504883-0.8105469-0.5078125-1.9726563c-0.6069336,1.0605469-1.09375,1.7431641-1.4599609,2.0488281
			c-0.2373047,0.1953125-0.4672852,0.2929688-0.6889648,0.2929688c-0.1557617,0-0.2978516-0.0566406-0.4262695-0.1699219
			c-0.0932617-0.0859375-0.1401367-0.2011719-0.1401367-0.3466797c0-0.1289063,0.0429688-0.2363281,0.128418-0.3222656
			c0.0854492-0.0869141,0.190918-0.1298828,0.3154297-0.1298828s0.2568359,0.0625,0.3969727,0.1884766
			c0.1010742,0.0898438,0.1791992,0.1347656,0.2338867,0.1347656c0.0463867,0,0.1069336-0.03125,0.1806641-0.09375
			c0.1831055-0.1494141,0.4321289-0.4697266,0.7475586-0.9628906s0.5219727-0.8496094,0.6191406-1.0688477
			c-0.2412109-0.9511719-0.3720703-1.4541016-0.3911133-1.5092773c-0.0898438-0.2543945-0.206543-0.4345703-0.3505859-0.5400391
			c-0.144043-0.105957-0.3564453-0.1586914-0.6367188-0.1586914c-0.0893555,0-0.1923828,0.0039063-0.3095703,0.0117188v-0.2114258
			L255.157959,174.845459z"/>
	</g>
</g>
<g>
	<g>
		<path d="M352.0710449,156.0544434c0.1333008,0.2250977,0.2255859,0.4355469,0.2763672,0.6313477
			s0.1020508,0.5805664,0.152832,1.1542969l0.2583008,2.8623047c0.2363281-0.2792969,0.5771484-0.7216797,1.0244141-1.3266602
			c0.2158203-0.2944336,0.4824219-0.6958008,0.7998047-1.2041016c0.1923828-0.3100586,0.3095703-0.5273438,0.3535156-0.6513672
			c0.0234375-0.0620117,0.0351563-0.1259766,0.0351563-0.1918945c0-0.0424805-0.0136719-0.0776367-0.0410156-0.1044922
			c-0.0273438-0.0273438-0.0996094-0.059082-0.2148438-0.0961914c-0.1162109-0.0366211-0.2119141-0.1044922-0.2880859-0.2036133
			c-0.0771484-0.0986328-0.1152344-0.2124023-0.1152344-0.340332c0-0.1586914,0.046875-0.2866211,0.1416016-0.3837891
			c0.09375-0.0966797,0.2119141-0.1455078,0.3525391-0.1455078c0.1728516,0,0.3193359,0.0708008,0.4414063,0.2124023
			c0.1210938,0.1416016,0.1826172,0.3364258,0.1826172,0.5844727c0,0.3066406-0.1064453,0.6567383-0.3183594,1.0498047
			c-0.2109375,0.394043-0.6191406,0.9975586-1.2236328,1.8120117c-0.6035156,0.8144531-1.3349609,1.7021484-2.1938477,2.6640625
			c-0.5922852,0.6630859-1.0317383,1.0810547-1.3178711,1.2539063c-0.2861328,0.171875-0.53125,0.2587891-0.7353516,0.2587891
			c-0.121582,0-0.2285156-0.0458984-0.3208008-0.1367188c-0.0917969-0.0917969-0.1381836-0.1972656-0.1381836-0.3173828
			c0-0.1513672,0.0639648-0.2890625,0.1914063-0.4130859s0.265625-0.1855469,0.4145508-0.1855469
			c0.0786133,0,0.1430664,0.0166016,0.1943359,0.0517578c0.03125,0.0195313,0.0654297,0.0751953,0.1025391,0.1660156
			c0.0375977,0.0908203,0.0717773,0.1523438,0.1030273,0.1835938c0.0195313,0.0185547,0.043457,0.0283203,0.0708008,0.0283203
			c0.0234375,0,0.0644531-0.0195313,0.1235352-0.0576172c0.2158203-0.1318359,0.4667969-0.3417969,0.7529297-0.6289063
			c0.3764648-0.3798828,0.6547852-0.6894531,0.8354492-0.9296875l-0.3295898-3.6879883
			c-0.0546875-0.6088867-0.137207-0.9794922-0.2470703-1.1113281s-0.2939453-0.1977539-0.5527344-0.1977539
			c-0.0825195,0-0.2294922,0.0117188-0.4414063,0.0351563l-0.0527344-0.215332L352.0710449,156.0544434z"/>
	</g>
</g>
<g>
	<g>
		<path d="M276.6491699,62.6862793h3.7084961v0.1459961l-4.0415039,4.1962891h1.7114258
			c0.4042969,0,0.6621094-0.015625,0.7705078-0.0458984c0.109375-0.03125,0.2099609-0.0976563,0.3007813-0.1982422
			c0.0917969-0.1015625,0.1943359-0.2841797,0.3066406-0.5478516h0.2158203l-0.5078125,1.5849609h-3.8017578v-0.1689453
			l4.0410156-4.1967773h-1.6816406c-0.3540039,0-0.5683594,0.0097656-0.6420898,0.0292969
			c-0.109375,0.0229492-0.2172852,0.0844727-0.3242188,0.1835938c-0.1074219,0.0991211-0.2172852,0.2631836-0.3300781,0.4921875
			h-0.2216797L276.6491699,62.6862793z"/>
	</g>
</g>
</svg>
