<?xml version="1.0" encoding="utf-8"?>
<!-- Generator: Adobe Illustrator 19.0.0, SVG Export Plug-In . SVG Version: 6.00 Build 0)  -->
<svg version="1.1" id="Layer_1" xmlns="http://www.w3.org/2000/svg" xmlns:xlink="http://www.w3.org/1999/xlink" x="0px" y="0px"
	 viewBox="0 0 349 213" enable-background="new 0 0 349 213" xml:space="preserve">
<polygon fill-rule="evenodd" clip-rule="evenodd" points="150.7631989,158.9120941 144.3403015,156.9512024 
	144.3403015,158.1992035 22.3096008,158.1992035 22.3096008,159.5370941 144.3403015,159.5370941 144.3403015,160.785202 
	150.7631989,158.9120941 "/>
<polygon fill-rule="evenodd" clip-rule="evenodd" points="22.8892002,30.9277 20.9272003,37.3506012 22.2651005,37.3506012 
	22.2651005,159.4687958 23.5142002,159.4687958 23.5142002,37.3506012 24.7626991,37.3506012 22.8892002,30.9277 "/>
<g>
	<g>
		<path fill="#010101" d="M26.3989258,26.8134766v0.3291016c-1.0092773-0.6630859-1.7954102-1.6367188-2.3583984-2.9199219
			c-0.5625-1.2832031-0.84375-2.6875-0.84375-4.2128906c0-1.5874023,0.2958984-3.0332031,0.8876953-4.3369141
			c0.5913086-1.3037109,1.362793-2.2363281,2.3144531-2.7978516v0.3217773
			c-0.4760742,0.347168-0.8666992,0.8217773-1.171875,1.4238281c-0.3056641,0.6020508-0.5336914,1.3662109-0.6845703,2.2924805
			c-0.1508789,0.9257813-0.2260742,1.8916016-0.2260742,2.8969727c0,1.1381836,0.0693359,2.1665039,0.2084961,3.0844727
			c0.1396484,0.9189453,0.3520508,1.6806641,0.6381836,2.2851563S25.8613281,26.3291016,26.3989258,26.8134766z"/>
	</g>
	<g>
		<path fill="#010101" d="M34.7988281,13.1967773V12.875c1.0092773,0.6586914,1.7949219,1.6293945,2.3579102,2.9125977
			c0.5625,1.2836914,0.84375,2.6879883,0.84375,4.2143555c0,1.5869141-0.2958984,3.0332031-0.887207,4.3398438
			c-0.5917969,1.3056641-1.3632813,2.2402344-2.3144531,2.8007813v-0.3291016
			c0.4794922-0.3466797,0.871582-0.8212891,1.1772461-1.4228516c0.3056641-0.6025391,0.5327148-1.3652344,0.6816406-2.2890625
			s0.2231445-1.890625,0.2231445-2.9003906c0-1.1337891-0.0683594-2.1606445-0.2055664-3.081543
			s-0.3500977-1.684082-0.6381836-2.2885742C35.7490234,14.2260742,35.3359375,13.6816406,34.7988281,13.1967773z"/>
	</g>
	<g>
		<path fill="#010101" d="M67.5893555,15.7382813l1.9394531-0.940918h0.1943359v6.690918
			c0,0.4443359,0.0185547,0.7207031,0.0556641,0.8300781c0.0371094,0.1083984,0.1142578,0.1923828,0.2324219,0.2509766
			c0.1171875,0.0585938,0.3564453,0.0917969,0.7167969,0.0996094v0.2158203h-2.9980469v-0.2158203
			c0.3759766-0.0078125,0.6191406-0.0400391,0.7294922-0.0966797c0.109375-0.0566406,0.1855469-0.1328125,0.2285156-0.2275391
			c0.0439453-0.0957031,0.0654297-0.3808594,0.0654297-0.8564453v-4.2773438c0-0.5766602-0.0205078-0.9467773-0.0595703-1.1103516
			c-0.0273438-0.125-0.0771484-0.2163086-0.1494141-0.2749023c-0.0722656-0.0581055-0.1601563-0.0874023-0.2617188-0.0874023
			c-0.1445313,0-0.3466797,0.0605469-0.6054688,0.1811523L67.5893555,15.7382813z"/>
	</g>
	<g>
		<path fill="#010101" d="M30.3666992,17.5961914c0.1918945,0.2026367,0.3369141,0.4052734,0.4350586,0.6079102
			c0.0703125,0.1401367,0.1860352,0.5083008,0.3466797,1.1044922l0.5175781-0.7714844
			c0.137207-0.1870117,0.3037109-0.3652344,0.4995117-0.534668s0.3681641-0.2851563,0.5170898-0.3476563
			c0.0942383-0.0390625,0.1982422-0.0585938,0.3120117-0.0585938c0.168457,0,0.3027344,0.0449219,0.4023438,0.1347656
			c0.1000977,0.0893555,0.1499023,0.1987305,0.1499023,0.3271484c0,0.1479492-0.0292969,0.2495117-0.0878906,0.3037109
			c-0.1098633,0.0976563-0.2353516,0.1459961-0.3764648,0.1459961c-0.0820313,0-0.1704102-0.0175781-0.2646484-0.0522461
			c-0.184082-0.0625-0.3076172-0.09375-0.3701172-0.09375c-0.0942383,0-0.2055664,0.0546875-0.3349609,0.1635742
			c-0.2431641,0.2026367-0.5332031,0.5942383-0.8701172,1.1748047l0.4819336,2.0097656
			c0.0742188,0.3076172,0.137207,0.4921875,0.1879883,0.5527344c0.0512695,0.0605469,0.1020508,0.0898438,0.152832,0.0898438
			c0.0825195,0,0.1782227-0.0439453,0.2880859-0.1337891c0.2158203-0.1796875,0.3999023-0.4130859,0.5527344-0.7011719
			l0.2055664,0.1054688c-0.246582,0.4589844-0.5605469,0.8408203-0.9404297,1.1445313
			c-0.215332,0.171875-0.3979492,0.2578125-0.546875,0.2578125c-0.2192383,0-0.3935547-0.1230469-0.5229492-0.3681641
			c-0.0825195-0.1523438-0.2529297-0.8066406-0.5117188-1.9638672c-0.6113281,1.0556641-1.1010742,1.7353516-1.4692383,2.0390625
			c-0.2392578,0.1953125-0.4707031,0.2929688-0.6938477,0.2929688c-0.1567383,0-0.2998047-0.0566406-0.4291992-0.1699219
			c-0.0942383-0.0859375-0.1411133-0.2001953-0.1411133-0.3447266c0-0.1289063,0.043457-0.2353516,0.1293945-0.3212891
			c0.0864258-0.0859375,0.1918945-0.1289063,0.3173828-0.1289063s0.2587891,0.0625,0.3999023,0.1875
			c0.1015625,0.0898438,0.1801758,0.1337891,0.2348633,0.1337891c0.0473633,0,0.1079102-0.0302734,0.1826172-0.0927734
			c0.184082-0.1484375,0.4350586-0.4677734,0.7524414-0.9589844c0.3173828-0.4902344,0.5249023-0.8457031,0.6230469-1.0625
			c-0.2431641-0.9472656-0.3745117-1.4477539-0.394043-1.5024414c-0.090332-0.253418-0.2075195-0.4326172-0.3525391-0.5375977
			c-0.1450195-0.1054688-0.3588867-0.1577148-0.640625-0.1577148c-0.090332,0-0.1943359,0.0039063-0.3120117,0.0117188v-0.2104492
			L30.3666992,17.5961914z"/>
		<path fill="#010101" d="M53.215332,17.5961914c0.1923828,0.2026367,0.3369141,0.4052734,0.4345703,0.6079102
			c0.0712891,0.1401367,0.1865234,0.5083008,0.3476563,1.1044922l0.5166016-0.7714844
			c0.1376953-0.1870117,0.3037109-0.3652344,0.5-0.534668s0.3681641-0.2851563,0.5175781-0.3476563
			c0.09375-0.0390625,0.1972656-0.0585938,0.3115234-0.0585938c0.1679688,0,0.3027344,0.0449219,0.4023438,0.1347656
			c0.0996094,0.0893555,0.1503906,0.1987305,0.1503906,0.3271484c0,0.1479492-0.0292969,0.2495117-0.0888672,0.3037109
			c-0.109375,0.0976563-0.234375,0.1459961-0.3759766,0.1459961c-0.0820313,0-0.1708984-0.0175781-0.2646484-0.0522461
			c-0.1835938-0.0625-0.3076172-0.09375-0.3701172-0.09375c-0.09375,0-0.2060547,0.0546875-0.3349609,0.1635742
			c-0.2431641,0.2026367-0.5332031,0.5942383-0.8701172,1.1748047l0.4824219,2.0097656
			c0.0742188,0.3076172,0.1367188,0.4921875,0.1875,0.5527344s0.1015625,0.0898438,0.1533203,0.0898438
			c0.0820313,0,0.1777344-0.0439453,0.2880859-0.1337891c0.2148438-0.1796875,0.3994141-0.4130859,0.5517578-0.7011719
			l0.2060547,0.1054688c-0.2470703,0.4589844-0.5605469,0.8408203-0.9404297,1.1445313
			c-0.2158203,0.171875-0.3974609,0.2578125-0.546875,0.2578125c-0.2197266,0-0.3935547-0.1230469-0.5234375-0.3681641
			c-0.0820313-0.1523438-0.2519531-0.8066406-0.5107422-1.9638672c-0.6113281,1.0556641-1.1015625,1.7353516-1.4697266,2.0390625
			c-0.2392578,0.1953125-0.4707031,0.2929688-0.6943359,0.2929688c-0.15625,0-0.2998047-0.0566406-0.4287109-0.1699219
			c-0.09375-0.0859375-0.140625-0.2001953-0.140625-0.3447266c0-0.1289063,0.0429688-0.2353516,0.1289063-0.3212891
			s0.1923828-0.1289063,0.3173828-0.1289063s0.2587891,0.0625,0.3994141,0.1875
			c0.1025391,0.0898438,0.1806641,0.1337891,0.2353516,0.1337891c0.046875,0,0.1083984-0.0302734,0.1826172-0.0927734
			c0.1835938-0.1484375,0.4345703-0.4677734,0.7519531-0.9589844c0.3173828-0.4902344,0.5253906-0.8457031,0.6230469-1.0625
			c-0.2421875-0.9472656-0.3740234-1.4477539-0.3935547-1.5024414c-0.0898438-0.253418-0.2080078-0.4326172-0.3525391-0.5375977
			c-0.1455078-0.1054688-0.3583984-0.1577148-0.640625-0.1577148c-0.0908203,0-0.1943359,0.0039063-0.3115234,0.0117188v-0.2104492
			L53.215332,17.5961914z"/>
	</g>
	<g>
		<path fill="#010101" d="M15.824707,22.5244141l-0.2294922,0.6835938c-0.3222656,0.9619141-0.6313477,1.703125-0.9272461,2.2207031
			h-1.0048828c0.1660156-0.25,0.2875977-0.4521484,0.3632813-0.6074219c0.1279297-0.265625,0.2592773-0.5986328,0.3935547-0.9990234
			l1.2563477-3.7470703c0.2700195-0.8051758,0.746582-1.4663086,1.4277344-1.9799805
			c0.6806641-0.5102539,1.4091797-0.765625,2.1855469-0.765625c0.8857422,0,1.4536133,0.3154297,1.7045898,0.9472656
			c0.1918945,0.4907227,0.184082,1.0449219-0.0239258,1.6645508c-0.234375,0.6982422-0.6665039,1.3408203-1.2988281,1.9287109
			c-0.8349609,0.7714844-1.6933594,1.1572266-2.5751953,1.1572266c-0.3173828,0-0.5893555-0.046875-0.8168945-0.140625
			C16.128418,22.8212891,15.9780273,22.6992188,15.824707,22.5244141z M16.4165039,20.7597656
			c-0.1787109,0.5332031-0.2558594,0.9052734-0.2294922,1.1162109c0.0244141,0.2109375,0.1396484,0.3886719,0.3457031,0.5351563
			c0.2060547,0.1455078,0.4716797,0.2177734,0.796875,0.2177734c0.4902344,0,0.9692383-0.1904297,1.4379883-0.5722656
			c0.46875-0.3808594,0.8139648-0.9013672,1.034668-1.5595703c0.1660156-0.4941406,0.2158203-0.9536133,0.1474609-1.3759766
			c-0.0683594-0.4233398-0.230957-0.7363281-0.4882813-0.9379883c-0.2578125-0.2026367-0.5664063-0.3046875-0.9267578-0.3046875
			c-0.4511719,0-0.8325195,0.1743164-1.144043,0.5205078c-0.190918,0.206543-0.4057617,0.6645508-0.6430664,1.3730469
			L16.4165039,20.7597656z"/>
	</g>
	<g>
		<path fill="#010101" d="M41.3798828,18.449707h6.1723633v0.5668945h-6.1723633V18.449707z M41.3798828,20.6289063h6.1723633
			v0.5791016h-6.1723633V20.6289063z"/>
		<path fill="#010101" d="M61.675293,16.7490234h0.5761719v2.793457h2.7919922v0.5668945h-2.7919922v2.7753906H61.675293V20.109375
			H58.871582v-0.5668945h2.8037109V16.7490234z"/>
	</g>
</g>
<line fill="none" stroke="#000000" stroke-miterlimit="10" x1="22.8451996" y1="124.6464996" x2="127.2294998" y2="30.9277"/>
<g>
	<g>
		<path fill="#010101" d="M15.3198242,120.5986328l1.9892578-0.9306641h0.1982422v6.6171875
			c0,0.4384766,0.0195313,0.7128906,0.0576172,0.8203125s0.1171875,0.1904297,0.2382813,0.2480469
			c0.1201172,0.0585938,0.3652344,0.0908203,0.7353516,0.0986328v0.2138672h-3.0737305v-0.2138672
			c0.3852539-0.0078125,0.6347656-0.0390625,0.7470703-0.0957031c0.1123047-0.0556641,0.190918-0.1308594,0.2348633-0.2246094
			c0.0444336-0.0947266,0.0664063-0.3769531,0.0664063-0.8466797v-4.2304688c0-0.5703125-0.0200195-0.9365234-0.0600586-1.0986328
			c-0.0283203-0.1230469-0.0795898-0.2138672-0.1538086-0.2714844s-0.1635742-0.0859375-0.2680664-0.0859375
			c-0.1489258,0-0.3554688,0.0595703-0.6210938,0.1787109L15.3198242,120.5986328z"/>
	</g>
</g>
<line fill="none" stroke="#000000" stroke-width="0.5" stroke-miterlimit="10" x1="32.2226982" y1="119.4413986" x2="32.2226982" y2="158.8690948"/>
<line fill="none" stroke="#000000" stroke-width="0.5" stroke-miterlimit="10" x1="32.2226982" y1="119.4413986" x2="22.7094994" y2="119.4413986"/>
<line fill="none" stroke="#000000" stroke-width="0.5" stroke-miterlimit="10" x1="32.2226982" y1="119.4413986" x2="32.2226982" y2="108.1079025"/>
<line fill="none" stroke="#000000" stroke-width="0.5" stroke-miterlimit="10" x1="32.2226982" y1="108.1079025" x2="43.8891983" y2="108.1079025"/>
<line fill="none" stroke="#000000" stroke-width="0.5" stroke-miterlimit="10" x1="43.8891983" y1="108.1079025" x2="43.8891983" y2="158.1992035"/>
<line fill="none" stroke="#000000" stroke-width="0.5" stroke-miterlimit="10" x1="43.8891983" y1="108.1079025" x2="43.8891983" y2="100.4409027"/>
<line fill="none" stroke="#000000" stroke-width="0.5" stroke-miterlimit="10" x1="43.8891983" y1="100.4409027" x2="57.2226982" y2="100.4409027"/>
<line fill="none" stroke="#000000" stroke-width="0.5" stroke-miterlimit="10" x1="57.2226982" y1="100.4409027" x2="57.2226982" y2="158.8690948"/>
<line fill="none" stroke="#000000" stroke-width="0.5" stroke-miterlimit="10" x1="57.2226982" y1="100.4409027" x2="57.2226982" y2="91.7743988"/>
<line fill="none" stroke="#000000" stroke-width="0.5" stroke-miterlimit="10" x1="57.2226982" y1="91.7743988" x2="70.8891983" y2="91.7743988"/>
<line fill="none" stroke="#000000" stroke-width="0.5" stroke-miterlimit="10" x1="70.8891983" y1="91.7743988" x2="70.8891983" y2="158.8690948"/>
<line fill="none" stroke="#000000" stroke-width="0.5" stroke-miterlimit="10" x1="70.8891983" y1="91.7743988" x2="70.8891983" y2="72.4409027"/>
<line fill="none" stroke="#000000" stroke-width="0.5" stroke-miterlimit="10" x1="70.8891983" y1="72.4409027" x2="84.8891983" y2="72.4409027"/>
<line fill="none" stroke="#000000" stroke-width="0.5" stroke-miterlimit="10" x1="84.8891983" y1="72.4409027" x2="84.8891983" y2="158.8690948"/>
<line fill="none" stroke="#000000" stroke-width="0.5" stroke-miterlimit="10" x1="84.8891983" y1="72.4409027" x2="84.8891983" y2="64.7743988"/>
<line fill="none" stroke="#000000" stroke-width="0.5" stroke-miterlimit="10" x1="84.8891983" y1="64.7743988" x2="96.5556946" y2="64.7743988"/>
<line fill="none" stroke="#000000" stroke-width="0.5" stroke-miterlimit="10" x1="96.5556946" y1="64.7743988" x2="96.5556946" y2="158.8690948"/>
<line fill="none" stroke="#000000" stroke-width="0.5" stroke-miterlimit="10" x1="96.5556946" y1="64.7743988" x2="96.5556946" y2="55.7743988"/>
<line fill="none" stroke="#000000" stroke-width="0.5" stroke-miterlimit="10" x1="96.5556946" y1="55.7743988" x2="102.8891983" y2="55.7743988"/>
<line fill="none" stroke="#000000" stroke-width="0.5" stroke-miterlimit="10" x1="102.8891983" y1="55.7743988" x2="102.8891983" y2="158.1992035"/>
<line fill="none" stroke="#000000" stroke-width="0.5" stroke-miterlimit="10" x1="102.8891983" y1="55.7743988" x2="102.8891983" y2="49.4408989"/>
<line fill="none" stroke="#000000" stroke-width="0.5" stroke-miterlimit="10" x1="102.8891983" y1="49.4408989" x2="106.6093979" y2="49.4408989"/>
<line fill="none" stroke="#000000" stroke-width="0.5" stroke-miterlimit="10" x1="106.6093979" y1="49.4408989" x2="106.6093979" y2="158.1992035"/>
<line fill="none" stroke="#000000" stroke-width="0.5" stroke-miterlimit="10" x1="106.6093979" y1="49.4408989" x2="106.6093979" y2="41.7743988"/>
<line fill="none" stroke="#000000" stroke-width="0.5" stroke-miterlimit="10" x1="106.6093979" y1="41.7743988" x2="119.5556946" y2="41.7743988"/>
<line fill="none" stroke="#000000" stroke-width="0.5" stroke-miterlimit="10" x1="119.5556946" y1="41.7743988" x2="119.5556946" y2="159.4687958"/>
<line fill="none" stroke="#000000" stroke-width="0.5" stroke-miterlimit="10" x1="119.5556946" y1="41.7743988" x2="119.5556946" y2="33.7743988"/>
<line fill="none" stroke="#000000" stroke-width="0.5" stroke-miterlimit="10" x1="119.5556946" y1="33.7743988" x2="127.2294998" y2="33.7743988"/>
<line fill="none" stroke="#000000" stroke-width="0.5" stroke-miterlimit="10" x1="127.2294998" y1="33.7743988" x2="127.2294998" y2="159.4687958"/>
<g>
	<g>
		<path fill="#010101" d="M130.2260742,169.1259766h-5.7822266l0.0805664-0.2138672
			c0.3071289-0.0078125,0.512207-0.0322266,0.6157227-0.0751953c0.1611328-0.0693359,0.2797852-0.1601563,0.3564453-0.2714844
			c0.1191406-0.1767578,0.2456055-0.4970703,0.3798828-0.9589844l1.375-4.7685547
			c0.1152344-0.3925781,0.1723633-0.6816406,0.1723633-0.8662109c0-0.1464844-0.0527344-0.2607422-0.1582031-0.3408203
			c-0.1054688-0.0810547-0.3037109-0.1220703-0.5952148-0.1220703c-0.0654297,0-0.1171875-0.0019531-0.1552734-0.0058594
			l0.0688477-0.2138672h3.1811523l-0.0458984,0.2138672c-0.3564453,0-0.609375,0.0351563-0.7587891,0.1044922
			c-0.1503906,0.0693359-0.2753906,0.1826172-0.375,0.3408203c-0.0683594,0.1044922-0.1816406,0.4277344-0.3388672,0.9707031
			l-1.3520508,4.6875c-0.1035156,0.3544922-0.1552734,0.6005859-0.1552734,0.7392578
			c0,0.0927734,0.0517578,0.1816406,0.1552734,0.265625c0.0654297,0.0576172,0.2128906,0.0869141,0.4433594,0.0869141h0.753418
			c0.5488281,0,0.9833984-0.0693359,1.3056641-0.2080078c0.2382813-0.1044922,0.4570313-0.2597656,0.65625-0.4677734
			c0.1074219-0.1162109,0.296875-0.4033203,0.5693359-0.8613281l0.1494141-0.2597656h0.2128906L130.2260742,169.1259766z"/>
	</g>
</g>
<g>
	<g>
		<path fill="#010101" d="M156.0200195,157.2304688c0.1928711,0.1972656,0.3388672,0.3945313,0.4370117,0.5917969
			c0.0708008,0.1367188,0.1870117,0.4951172,0.3491211,1.0761719l0.5195313-0.7519531
			c0.1376953-0.1816406,0.3046875-0.3554688,0.5019531-0.5205078c0.1962891-0.1650391,0.3701172-0.2783203,0.5195313-0.3388672
			c0.0947266-0.0371094,0.1992188-0.0566406,0.3125-0.0566406c0.1699219,0,0.3046875,0.0429688,0.4052734,0.1308594
			s0.1503906,0.1933594,0.1503906,0.3183594c0,0.1445313-0.0292969,0.2431641-0.0888672,0.296875
			c-0.1103516,0.09375-0.2363281,0.1416016-0.3779297,0.1416016c-0.0820313,0-0.1708984-0.0166016-0.265625-0.0517578
			c-0.1855469-0.0605469-0.3095703-0.0898438-0.3720703-0.0898438c-0.0947266,0-0.2070313,0.0527344-0.3369141,0.1582031
			c-0.2441406,0.1972656-0.5351563,0.5791016-0.8740234,1.1445313l0.484375,1.9589844
			c0.0751953,0.2988281,0.1376953,0.4785156,0.1894531,0.5371094c0.0507813,0.0585938,0.1015625,0.0878906,0.1533203,0.0878906
			c0.0830078,0,0.1787109-0.0429688,0.2890625-0.1308594c0.2167969-0.1738281,0.4023438-0.4023438,0.5556641-0.6835938
			l0.2060547,0.1035156c-0.2480469,0.4472656-0.5625,0.8183594-0.9443359,1.1152344
			c-0.2167969,0.1660156-0.4003906,0.25-0.5498047,0.25c-0.2207031,0-0.3955078-0.1191406-0.5253906-0.3574219
			c-0.0830078-0.1484375-0.2539063-0.7871094-0.5136719-1.9140625c-0.6142578,1.0292969-1.1064453,1.6914063-1.4765625,1.9863281
			c-0.2402344,0.1914063-0.4726563,0.2851563-0.6972656,0.2851563c-0.1572266,0-0.3007813-0.0546875-0.4311523-0.1640625
			c-0.0942383-0.0839844-0.1416016-0.1953125-0.1416016-0.3359375c0-0.125,0.043457-0.2304688,0.1298828-0.3144531
			c0.0869141-0.0820313,0.1928711-0.125,0.3188477-0.125s0.2602539,0.0605469,0.4018555,0.1835938
			c0.1025391,0.0859375,0.1811523,0.1308594,0.2363281,0.1308594c0.0473633,0,0.1079102-0.03125,0.1831055-0.0917969
			c0.1850586-0.1445313,0.4370117-0.4550781,0.7558594-0.9335938s0.527832-0.8232422,0.6259766-1.0351563
			c-0.2441406-0.9228516-0.3759766-1.4101563-0.3955078-1.4628906c-0.0908203-0.2470703-0.2089844-0.421875-0.3544922-0.5234375
			c-0.1455078-0.1035156-0.3603516-0.1542969-0.6435547-0.1542969c-0.0908203,0-0.1953125,0.0039063-0.3134766,0.0117188v-0.2050781
			L156.0200195,157.2304688z"/>
	</g>
</g>
<g>
	<g>
		<path fill="#010101" d="M76.8764648,186.8544922v0.3320313c-1.0117188-0.6689453-1.7998047-1.6513672-2.3637695-2.9453125
			s-0.8461914-2.7099609-0.8461914-4.2490234c0-1.6005859,0.296875-3.0576172,0.8896484-4.3730469
			c0.5932617-1.3144531,1.3666992-2.2548828,2.3203125-2.8212891v0.3242188
			c-0.4770508,0.3505859-0.8686523,0.8291016-1.1748047,1.4355469c-0.3061523,0.6074219-0.534668,1.3779297-0.6860352,2.3125
			c-0.1508789,0.9335938-0.2265625,1.9072266-0.2265625,2.921875c0,1.1474609,0.0698242,2.1835938,0.2089844,3.1103516
			c0.1396484,0.9257813,0.3530273,1.6943359,0.6396484,2.3037109
			C75.9248047,185.8164063,76.3374023,186.3652344,76.8764648,186.8544922z"/>
	</g>
	<g>
		<path fill="#010101" d="M88.0649414,173.1220703v-0.3242188c1.0117188,0.6640625,1.7998047,1.6435547,2.3632813,2.9375
			c0.5644531,1.2939453,0.8466797,2.7099609,0.8466797,4.2490234c0,1.6005859-0.296875,3.0595703-0.8896484,4.3769531
			c-0.59375,1.3173828-1.3671875,2.2587891-2.3203125,2.8251953v-0.3320313
			c0.4804688-0.3505859,0.8740234-0.8291016,1.1806641-1.4355469c0.3056641-0.6074219,0.5332031-1.3769531,0.6826172-2.3085938
			c0.1494141-0.9306641,0.2246094-1.90625,0.2246094-2.9248047c0-1.1425781-0.0693359-2.1787109-0.2070313-3.1074219
			s-0.3505859-1.6982422-0.6396484-2.3076172C89.0170898,174.1601563,88.6040039,173.6113281,88.0649414,173.1220703z"/>
	</g>
	<g>
		<path fill="#010101" d="M58.1289063,190.1787109l1.1240234-0.5488281h0.1123047v3.9003906
			c0,0.2587891,0.0107422,0.4208984,0.0322266,0.484375c0.0219727,0.0634766,0.0668945,0.1123047,0.1347656,0.1464844
			c0.0683594,0.0341797,0.206543,0.0527344,0.4155273,0.0576172v0.1259766h-1.7373047V194.21875
			c0.2182617-0.0048828,0.3588867-0.0234375,0.4223633-0.0566406c0.0634766-0.0322266,0.1079102-0.0771484,0.1328125-0.1328125
			s0.0375977-0.2216797,0.0375977-0.4990234v-2.4931641c0-0.3359375-0.0112305-0.5517578-0.0341797-0.6474609
			c-0.015625-0.0722656-0.0449219-0.1259766-0.0869141-0.1601563s-0.0922852-0.0507813-0.1513672-0.0507813
			c-0.0839844,0-0.2011719,0.0351563-0.3510742,0.1054688L58.1289063,190.1787109z"/>
	</g>
	<g>
		<path fill="#010101" d="M55.6479492,167.5585938l-0.453125,1.5498047c0.4243164-0.6337891,0.75-1.0507813,0.9760742-1.25
			c0.2255859-0.2001953,0.4433594-0.2998047,0.6523438-0.2998047c0.1132813,0,0.2070313,0.0371094,0.2807617,0.1123047
			s0.1108398,0.1728516,0.1108398,0.2929688c0,0.1357422-0.0327148,0.3173828-0.0986328,0.5449219l-0.4155273,1.4345703
			c-0.0478516,0.1650391-0.0717773,0.2666016-0.0717773,0.3027344c0,0.0322266,0.0092773,0.0585938,0.0273438,0.0800781
			s0.0375977,0.0322266,0.0581055,0.0322266c0.0268555,0,0.0600586-0.0146484,0.0986328-0.0439453
			c0.1201172-0.0957031,0.2519531-0.2412109,0.3950195-0.4365234l0.1054688,0.0654297
			c-0.2109375,0.3017578-0.4106445,0.5175781-0.5991211,0.6464844c-0.1318359,0.0888672-0.25,0.1328125-0.3544922,0.1328125
			c-0.0839844,0-0.1513672-0.0253906-0.2011719-0.0761719s-0.074707-0.1201172-0.074707-0.2060547
			c0-0.109375,0.0385742-0.296875,0.1157227-0.5625l0.3950195-1.3691406
			c0.050293-0.1699219,0.0751953-0.3027344,0.0751953-0.3984375c0-0.0458984-0.0146484-0.0820313-0.0444336-0.1113281
			c-0.0292969-0.0283203-0.065918-0.0419922-0.1088867-0.0419922c-0.0634766,0-0.1396484,0.0273438-0.2285156,0.0820313
			c-0.1679688,0.1015625-0.3427734,0.2705078-0.5244141,0.5058594c-0.1816406,0.234375-0.3735352,0.5351563-0.5756836,0.9003906
			c-0.1069336,0.1933594-0.1953125,0.4042969-0.265625,0.6337891l-0.1704102,0.5625h-0.5112305l0.6201172-2.1328125
			c0.0727539-0.2568359,0.1088867-0.4111328,0.1088867-0.4628906c0-0.0507813-0.0200195-0.09375-0.0595703-0.1318359
			c-0.0395508-0.0371094-0.0888672-0.0556641-0.1479492-0.0556641c-0.0273438,0-0.0751953,0.0039063-0.1430664,0.0136719
			l-0.1298828,0.0205078l-0.0200195-0.1230469L55.6479492,167.5585938z"/>
	</g>
	<g>
		<path fill="#010101" d="M85.2514648,182.9335938l-0.6748047,2.3876953
			c-0.0449219,0.1621094-0.0673828,0.2578125-0.0673828,0.2900391c0,0.0361328,0.0107422,0.0654297,0.0322266,0.0888672
			c0.0214844,0.0224609,0.046875,0.0332031,0.0761719,0.0332031c0.0341797,0,0.0751953-0.0175781,0.1230469-0.0537109
			c0.1289063-0.1025391,0.2597656-0.2480469,0.3916016-0.4365234l0.1191406,0.078125
			c-0.1542969,0.2363281-0.3359375,0.4355469-0.5449219,0.5966797c-0.1542969,0.1201172-0.3017578,0.1806641-0.4433594,0.1806641
			c-0.0927734,0-0.1689453-0.0283203-0.2275391-0.0839844c-0.0595703-0.0556641-0.0888672-0.125-0.0888672-0.2089844
			s0.0283203-0.2236328,0.0849609-0.4189453l0.4433594-1.5263672c0.0722656-0.25,0.1083984-0.40625,0.1083984-0.4707031
			c0-0.0498047-0.0175781-0.0908203-0.0527344-0.1220703c-0.0351563-0.0322266-0.0830078-0.0478516-0.1445313-0.0478516
			c-0.0498047,0-0.1533203,0.0126953-0.3095703,0.0371094v-0.1328125L85.2514648,182.9335938z M85.2075195,181.5810547
			c0.0947266,0,0.1757813,0.0332031,0.2412109,0.0986328c0.0664063,0.0664063,0.0996094,0.1464844,0.0996094,0.2421875
			c0,0.0927734-0.0341797,0.1728516-0.1005859,0.2402344c-0.0673828,0.0664063-0.1474609,0.1005859-0.2402344,0.1005859
			c-0.09375,0-0.1738281-0.0341797-0.2402344-0.1005859c-0.0673828-0.0673828-0.1005859-0.1474609-0.1005859-0.2402344
			c0-0.0957031,0.0332031-0.1757813,0.0986328-0.2421875C85.0317383,181.6142578,85.1118164,181.5810547,85.2075195,181.5810547z"/>
		<path fill="#010101" d="M107.2768555,182.9335938l-0.6748047,2.3876953
			c-0.0449219,0.1621094-0.0673828,0.2578125-0.0673828,0.2900391c0,0.0361328,0.0107422,0.0654297,0.0322266,0.0888672
			c0.0214844,0.0224609,0.046875,0.0332031,0.0761719,0.0332031c0.0341797,0,0.0751953-0.0175781,0.1230469-0.0537109
			c0.1289063-0.1025391,0.2597656-0.2480469,0.3916016-0.4365234l0.1191406,0.078125
			c-0.1542969,0.2363281-0.3359375,0.4355469-0.5449219,0.5966797c-0.1542969,0.1201172-0.3017578,0.1806641-0.4433594,0.1806641
			c-0.0927734,0-0.1689453-0.0283203-0.2275391-0.0839844c-0.0595703-0.0556641-0.0888672-0.125-0.0888672-0.2089844
			s0.0283203-0.2236328,0.0849609-0.4189453l0.4433594-1.5263672c0.0722656-0.25,0.1083984-0.40625,0.1083984-0.4707031
			c0-0.0498047-0.0175781-0.0908203-0.0527344-0.1220703c-0.0351563-0.0322266-0.0830078-0.0478516-0.1445313-0.0478516
			c-0.0498047,0-0.1533203,0.0126953-0.3095703,0.0371094v-0.1328125L107.2768555,182.9335938z M107.2329102,181.5810547
			c0.0947266,0,0.1757813,0.0332031,0.2412109,0.0986328c0.0664063,0.0664063,0.0996094,0.1464844,0.0996094,0.2421875
			c0,0.0927734-0.0341797,0.1728516-0.1005859,0.2402344c-0.0673828,0.0664063-0.1474609,0.1005859-0.2402344,0.1005859
			c-0.09375,0-0.1738281-0.0341797-0.2402344-0.1005859c-0.0673828-0.0673828-0.1005859-0.1474609-0.1005859-0.2402344
			c0-0.0957031,0.0332031-0.1757813,0.0986328-0.2421875C107.0571289,181.6142578,107.137207,181.5810547,107.2329102,181.5810547z"
			/>
	</g>
	<g>
		<path fill="#010101" d="M52.9467773,191.2617188l-0.6743164,2.3876953
			c-0.0454102,0.1621094-0.0683594,0.2578125-0.0683594,0.2900391c0,0.0361328,0.0107422,0.0654297,0.0322266,0.0888672
			c0.0219727,0.0224609,0.0473633,0.0332031,0.0766602,0.0332031c0.0341797,0,0.0751953-0.0175781,0.1230469-0.0537109
			c0.1293945-0.1025391,0.2597656-0.2480469,0.3916016-0.4365234l0.1191406,0.078125
			c-0.1542969,0.2363281-0.3359375,0.4355469-0.5449219,0.5966797c-0.1542969,0.1201172-0.3022461,0.1806641-0.4428711,0.1806641
			c-0.0932617,0-0.1694336-0.0283203-0.2285156-0.0839844s-0.0883789-0.125-0.0883789-0.2089844
			s0.0283203-0.2236328,0.0849609-0.4189453l0.4428711-1.5263672c0.0727539-0.25,0.109375-0.40625,0.109375-0.4707031
			c0-0.0498047-0.0175781-0.0908203-0.0527344-0.1220703c-0.0356445-0.0322266-0.0834961-0.0478516-0.1450195-0.0478516
			c-0.0498047,0-0.1533203,0.0126953-0.3100586,0.0371094v-0.1328125L52.9467773,191.2617188z M52.902832,189.9091797
			c0.0952148,0,0.1757813,0.0332031,0.2416992,0.0986328c0.065918,0.0664063,0.0986328,0.1464844,0.0986328,0.2421875
			c0,0.0927734-0.0332031,0.1728516-0.1005859,0.2402344c-0.0668945,0.0664063-0.1469727,0.1005859-0.2397461,0.1005859
			c-0.0932617,0-0.1733398-0.0341797-0.2402344-0.1005859c-0.0673828-0.0673828-0.1005859-0.1474609-0.1005859-0.2402344
			c0-0.0957031,0.0327148-0.1757813,0.0986328-0.2421875C52.7265625,189.9423828,52.8071289,189.9091797,52.902832,189.9091797z"/>
	</g>
	<g>
		<path fill="#010101" d="M102.7543945,177.5585938c0.1923828,0.2041016,0.3378906,0.4082031,0.4365234,0.6123047
			c0.0703125,0.1416016,0.1865234,0.5126953,0.3476563,1.1142578l0.5185547-0.7783203
			c0.1376953-0.1884766,0.3037109-0.3681641,0.5009766-0.5390625c0.1962891-0.1708984,0.3691406-0.2871094,0.5185547-0.3505859
			c0.09375-0.0390625,0.1982422-0.0585938,0.3115234-0.0585938c0.1689453,0,0.3037109,0.0449219,0.4042969,0.1357422
			c0.0996094,0.0898438,0.1503906,0.2001953,0.1503906,0.3300781c0,0.1494141-0.0292969,0.2509766-0.0888672,0.3056641
			c-0.109375,0.0986328-0.2353516,0.1474609-0.3769531,0.1474609c-0.0820313,0-0.1708984-0.0175781-0.265625-0.0527344
			c-0.1845703-0.0625-0.3076172-0.0947266-0.3710938-0.0947266c-0.09375,0-0.2060547,0.0556641-0.3359375,0.1650391
			c-0.2431641,0.2050781-0.5341797,0.5996094-0.8720703,1.1845703l0.4833984,2.0273438
			c0.0742188,0.3105469,0.1376953,0.4960938,0.1884766,0.5566406c0.0507813,0.0615234,0.1025391,0.0917969,0.1533203,0.0917969
			c0.0830078,0,0.1787109-0.0449219,0.2890625-0.1357422c0.2158203-0.1806641,0.4003906-0.4160156,0.5537109-0.7070313
			l0.2060547,0.1064453c-0.2470703,0.4628906-0.5615234,0.8486328-0.9423828,1.1542969
			c-0.2167969,0.1728516-0.3994141,0.2597656-0.5478516,0.2597656c-0.2207031,0-0.3955078-0.1240234-0.5253906-0.3710938
			c-0.0820313-0.1533203-0.2529297-0.8134766-0.5126953-1.9804688c-0.6123047,1.0644531-1.1035156,1.75-1.4726563,2.0566406
			c-0.2402344,0.1962891-0.4716797,0.2949219-0.6953125,0.2949219c-0.1572266,0-0.3007813-0.0576172-0.4306641-0.1708984
			c-0.09375-0.0869141-0.140625-0.2021484-0.140625-0.3476563c0-0.1298828,0.0429688-0.2382813,0.1289063-0.3242188
			c0.0869141-0.0859375,0.1923828-0.1298828,0.3183594-0.1298828s0.2597656,0.0634766,0.4003906,0.1884766
			c0.1025391,0.0908203,0.1806641,0.1357422,0.2363281,0.1357422c0.046875,0,0.1074219-0.03125,0.1826172-0.09375
			c0.1845703-0.1494141,0.4355469-0.4716797,0.7539063-0.9667969s0.5263672-0.8525391,0.625-1.0722656
			c-0.2441406-0.9550781-0.375-1.4599609-0.3945313-1.5146484c-0.0908203-0.2558594-0.2089844-0.4365234-0.3535156-0.5419922
			c-0.1455078-0.1064453-0.3603516-0.1591797-0.6425781-0.1591797c-0.0908203,0-0.1943359,0.0039063-0.3125,0.0117188v-0.2119141
			L102.7543945,177.5585938z"/>
	</g>
	<g>
		<path fill="#010101" d="M66.2426758,182.5703125l-0.2299805,0.6894531
			c-0.3237305,0.9707031-0.6337891,1.7167969-0.9301758,2.2392578h-1.0068359
			c0.1660156-0.2509766,0.2871094-0.4560547,0.3632813-0.6123047c0.1289063-0.2675781,0.2597656-0.6035156,0.3945313-1.0078125
			l1.2597656-3.7773438c0.2705078-0.8134766,0.7475586-1.4794922,1.4311523-1.9980469
			c0.6821289-0.5146484,1.4125977-0.7714844,2.190918-0.7714844c0.8876953,0,1.4575195,0.3173828,1.7080078,0.9541016
			c0.1923828,0.4951172,0.1855469,1.0556641-0.0224609,1.6796875c-0.234375,0.703125-0.6694336,1.3515625-1.3027344,1.9453125
			c-0.8369141,0.7763672-1.6972656,1.1660156-2.5810547,1.1660156c-0.3183594,0-0.5917969-0.046875-0.8193359-0.140625
			C66.5473633,182.8681641,66.3955078,182.7470703,66.2426758,182.5703125z M66.8359375,180.7910156
			c-0.1791992,0.5380859-0.2568359,0.9130859-0.2319336,1.125c0.0263672,0.2119141,0.1420898,0.3925781,0.3476563,0.5390625
			c0.2070313,0.1474609,0.4731445,0.2216797,0.7993164,0.2216797c0.4902344,0,0.9711914-0.1923828,1.4418945-0.578125
			c0.4697266-0.3847656,0.8154297-0.9091797,1.0371094-1.5732422c0.1660156-0.4980469,0.2148438-0.9619141,0.1469727-1.3876953
			s-0.2314453-0.7412109-0.4892578-0.9462891c-0.2583008-0.203125-0.5678711-0.3056641-0.9291992-0.3056641
			c-0.4511719,0-0.8339844,0.1748047-1.1464844,0.5244141c-0.1914063,0.2080078-0.40625,0.6699219-0.6445313,1.3847656
			L66.8359375,180.7910156z"/>
		<path fill="#010101" d="M82.2563477,174.5146484l-0.0693359,0.2070313
			c-0.2412109,0.0380859-0.4199219,0.1054688-0.5371094,0.1972656s-0.1982422,0.2050781-0.2431641,0.3388672
			c-0.0546875,0.1650391-0.0429688,0.2998047,0.0322266,0.40625c0.0771484,0.1054688,0.2353516,0.1650391,0.4746094,0.1767578
			c0.5712891-0.3925781,1.0224609-0.6640625,1.3564453-0.8125c0.3310547-0.1494141,0.6064453-0.2246094,0.8222656-0.2246094
			c0.1025391,0,0.1767578,0.03125,0.2255859,0.0947266c0.046875,0.0625,0.0566406,0.1367188,0.0273438,0.2236328
			c-0.0654297,0.1962891-0.2285156,0.3710938-0.4931641,0.5244141c-0.4238281,0.2480469-1.015625,0.4072266-1.7734375,0.4775391
			c-0.5292969,0.3525391-0.8574219,0.7148438-0.9804688,1.0839844c-0.1210938,0.3652344,0.0400391,0.6542969,0.484375,0.8662109
			c0.4443359-0.1572266,0.8291016-0.2744141,1.1533203-0.3505859c0.3251953-0.0771484,0.5898438-0.1142578,0.7978516-0.1142578
			c0.1845703,0,0.3076172,0.0341797,0.3671875,0.1025391s0.0703125,0.1582031,0.0341797,0.2675781
			c-0.0458984,0.1376953-0.1513672,0.25-0.3183594,0.3359375c-0.2998047,0.1582031-0.6943359,0.2353516-1.1855469,0.2353516
			c-0.1416016,0-0.2890625-0.0068359-0.4404297-0.0224609c-0.1523438-0.015625-0.3085938-0.0371094-0.4677734-0.0654297
			c-0.5517578,0.2041016-1.0419922,0.5078125-1.4736328,0.9111328c-0.4296875,0.4023438-0.7177734,0.8203125-0.8613281,1.2519531
			c-0.1118164,0.3339844-0.1230469,0.6054688-0.0341797,0.8164063c0.0888672,0.2099609,0.2392578,0.3583984,0.4501953,0.4443359
			c0.1259766,0.0556641,0.34375,0.0820313,0.6503906,0.0820313c0.3134766,0,0.6298828-0.0107422,0.9482422-0.0351563
			c0.4335938-0.0263672,0.7167969-0.0400391,0.8505859-0.0400391c0.3808594,0,0.6533203,0.1367188,0.8173828,0.4121094
			c0.1621094,0.2783203,0.1621094,0.6630859-0.0019531,1.1552734c-0.2080078,0.6240234-0.546875,1.1201172-1.0175781,1.4873047
			c-0.4697266,0.3671875-0.9609375,0.5507813-1.4716797,0.5507813c-0.2705078,0-0.4580078-0.0546875-0.5605469-0.1650391
			s-0.1337891-0.2275391-0.0917969-0.3535156c0.0341797-0.1025391,0.1035156-0.1904297,0.2070313-0.265625
			c0.1035156-0.0742188,0.2099609-0.1113281,0.3203125-0.1113281c0.0820313,0,0.2207031,0.0273438,0.4140625,0.0830078
			c0.1943359,0.0546875,0.3359375,0.0820313,0.4257813,0.0820313c0.2597656,0,0.5097656-0.0908203,0.7480469-0.2714844
			c0.2392578-0.1806641,0.40625-0.4160156,0.5039063-0.7070313c0.0800781-0.2431641,0.0742188-0.4384766-0.0195313-0.5859375
			c-0.0947266-0.1474609-0.2441406-0.2216797-0.4482422-0.2216797c-0.1142578,0-0.3095703,0.0166016-0.5849609,0.0498047
			c-0.2763672,0.0341797-0.5439453,0.0517578-0.8037109,0.0517578c-0.6201172,0-1.0722656-0.0751953-1.3544922-0.2246094
			s-0.4736328-0.4033203-0.5742188-0.7607422c-0.1010742-0.3564453-0.0761719-0.7617188,0.0742188-1.2138672
			c0.1625977-0.4873047,0.4467773-0.9609375,0.8515625-1.4228516c0.4052734-0.4619141,0.9414063-0.8515625,1.609375-1.1699219
			c-0.4082031-0.3183594-0.5439453-0.6816406-0.4082031-1.0898438c0.1142578-0.3417969,0.3974609-0.6972656,0.8505859-1.0664063
			c-0.2646484-0.0673828-0.4433594-0.1806641-0.5371094-0.3417969s-0.109375-0.3339844-0.0478516-0.5185547
			c0.0664063-0.2001953,0.2011719-0.3720703,0.4033203-0.5126953
			C81.559082,174.6210938,81.8598633,174.5390625,82.2563477,174.5146484z"/>
	</g>
	<g>
		<path fill="#010101" d="M53.9526367,191.7587891h3.5771484v0.3310547h-3.5771484V191.7587891z M53.9526367,193.0292969h3.5771484
			v0.3378906h-3.5771484V193.0292969z"/>
	</g>
	<g>
		<path fill="#010101" d="M100.5356445,182.8916016h-7.0712891l3.7001953-8.1728516L100.5356445,182.8916016z
			 M99.1450195,182.4082031l-2.3515625-5.6982422l-2.5927734,5.6982422H99.1450195z"/>
	</g>
	<g>
		<path fill="#010101" d="M61.3984375,187.4677734h-11.605957v-0.3173828l5.9135742-7.3457031l-5.9135742-7.2216797v-0.3271484
			h11.296875l0.2387695,2.9785156h-0.3535156c-0.0947266-0.8125-0.3227539-1.3925781-0.6850586-1.7412109
			c-0.362793-0.3476563-0.8681641-0.5214844-1.5161133-0.5214844h-6.5410156l4.9677734,6.0732422l-5.5600586,6.8671875h7.2304688
			c0.4125977,0,0.8632813-0.0791016,1.3525391-0.2382813c0.3359375-0.1123047,0.6142578-0.3105469,0.8354492-0.5966797
			c0.2207031-0.2851563,0.4047852-0.7324219,0.5522461-1.3388672l0.3535156,0.0615234L61.3984375,187.4677734z"/>
	</g>
</g>
<polygon fill-rule="evenodd" clip-rule="evenodd" points="328.2812805,159.1289063 321.8594055,157.1660004 
	321.8594055,158.4160004 199.8280945,158.4160004 199.8280945,159.7539063 321.8594055,159.7539063 321.8594055,161.0019989 
	328.2812805,159.1289063 "/>
<polygon fill-rule="evenodd" clip-rule="evenodd" points="200.4081879,31.1436005 198.4452972,37.5663986 199.7831879,37.5663986 
	199.7831879,159.6855011 201.0331879,159.6855011 201.0331879,37.5663986 202.2812958,37.5663986 200.4081879,31.1436005 "/>
<g>
	<g>
		<path fill="#010101" d="M203.9179688,27.0292969v0.3291016c-1.0087891-0.6630859-1.7949219-1.6367188-2.3583984-2.9199219
			c-0.5625-1.2832031-0.84375-2.6875-0.84375-4.2128906c0-1.5874023,0.2958984-3.0332031,0.8876953-4.3369141
			s1.3632813-2.2363281,2.3144531-2.7978516v0.3217773c-0.4755859,0.347168-0.8662109,0.8217773-1.171875,1.4238281
			s-0.5332031,1.3662109-0.6845703,2.2924805c-0.1503906,0.9257813-0.2255859,1.8916016-0.2255859,2.8969727
			c0,1.1381836,0.0693359,2.1665039,0.2080078,3.0844727c0.1396484,0.9189453,0.3525391,1.6806641,0.6386719,2.2851563
			S203.3808594,26.5449219,203.9179688,27.0292969z"/>
	</g>
	<g>
		<path fill="#010101" d="M212.3183594,13.4125977v-0.3217773c1.0087891,0.6586914,1.7949219,1.6293945,2.3574219,2.9125977
			c0.5625,1.2836914,0.84375,2.6879883,0.84375,4.2143555c0,1.5869141-0.2958984,3.0332031-0.8867188,4.3398438
			c-0.5917969,1.3056641-1.3632813,2.2402344-2.3144531,2.8007813v-0.3291016
			c0.4794922-0.3466797,0.8710938-0.8212891,1.1767578-1.4228516c0.3056641-0.6025391,0.5332031-1.3652344,0.6816406-2.2890625
			c0.1494141-0.9238281,0.2236328-1.890625,0.2236328-2.9003906c0-1.1337891-0.0683594-2.1606445-0.2060547-3.081543
			c-0.1367188-0.9208984-0.3496094-1.684082-0.6376953-2.2885742
			C213.2685547,14.4418945,212.8554688,13.8974609,212.3183594,13.4125977z"/>
	</g>
	<g>
		<path fill="#010101" d="M245.1083984,15.9541016l1.9394531-0.940918h0.1943359v6.690918
			c0,0.4443359,0.0185547,0.7207031,0.0556641,0.8300781c0.0371094,0.1083984,0.1142578,0.1923828,0.2324219,0.2509766
			c0.1171875,0.0585938,0.3564453,0.0917969,0.7167969,0.0996094v0.2158203h-2.9980469v-0.2158203
			c0.3759766-0.0078125,0.6191406-0.0400391,0.7294922-0.0966797c0.109375-0.0566406,0.1855469-0.1328125,0.2285156-0.2275391
			c0.0439453-0.0957031,0.0654297-0.3808594,0.0654297-0.8564453v-4.2773438c0-0.5766602-0.0205078-0.9467773-0.0595703-1.1103516
			c-0.0273438-0.125-0.0771484-0.2163086-0.1494141-0.2749023c-0.0722656-0.0581055-0.1601563-0.0874023-0.2617188-0.0874023
			c-0.1445313,0-0.3466797,0.0605469-0.6054688,0.1811523L245.1083984,15.9541016z"/>
	</g>
	<g>
		<path fill="#010101" d="M207.8857422,17.8120117c0.1923828,0.2026367,0.3369141,0.4052734,0.4355469,0.6079102
			c0.0703125,0.1401367,0.1855469,0.5083008,0.3466797,1.1044922l0.5175781-0.7714844
			c0.1367188-0.1870117,0.3037109-0.3652344,0.4990234-0.534668c0.1962891-0.1694336,0.3681641-0.2851563,0.5175781-0.3476563
			c0.09375-0.0390625,0.1982422-0.0585938,0.3115234-0.0585938c0.1689453,0,0.3027344,0.0449219,0.4023438,0.1347656
			c0.1005859,0.0893555,0.1503906,0.1987305,0.1503906,0.3271484c0,0.1479492-0.0292969,0.2495117-0.0878906,0.3037109
			c-0.1103516,0.0976563-0.2353516,0.1459961-0.3769531,0.1459961c-0.0820313,0-0.1699219-0.0175781-0.2646484-0.0522461
			c-0.1835938-0.0625-0.3076172-0.09375-0.3701172-0.09375c-0.09375,0-0.2050781,0.0546875-0.3349609,0.1635742
			c-0.2431641,0.2026367-0.5332031,0.5942383-0.8701172,1.1748047l0.4824219,2.0097656
			c0.0742188,0.3076172,0.1367188,0.4921875,0.1875,0.5527344c0.0517578,0.0605469,0.1025391,0.0898438,0.1533203,0.0898438
			c0.0820313,0,0.1777344-0.0439453,0.2880859-0.1337891c0.2158203-0.1796875,0.3994141-0.4130859,0.5527344-0.7011719
			l0.2050781,0.1054688c-0.2460938,0.4589844-0.5605469,0.8408203-0.9404297,1.1445313
			c-0.2148438,0.171875-0.3974609,0.2578125-0.546875,0.2578125c-0.21875,0-0.3935547-0.1230469-0.5224609-0.3681641
			c-0.0830078-0.1523438-0.2529297-0.8066406-0.5117188-1.9638672c-0.6113281,1.0556641-1.1015625,1.7353516-1.4697266,2.0390625
			c-0.2392578,0.1953125-0.4707031,0.2929688-0.6933594,0.2929688c-0.1572266,0-0.2998047-0.0566406-0.4296875-0.1699219
			c-0.09375-0.0859375-0.140625-0.2001953-0.140625-0.3447266c0-0.1289063,0.0429688-0.2353516,0.1289063-0.3212891
			c0.0869141-0.0859375,0.1923828-0.1289063,0.3173828-0.1289063c0.1259766,0,0.2587891,0.0625,0.4003906,0.1875
			c0.1015625,0.0898438,0.1796875,0.1337891,0.234375,0.1337891c0.0478516,0,0.1083984-0.0302734,0.1826172-0.0927734
			c0.1845703-0.1484375,0.4355469-0.4677734,0.7529297-0.9589844c0.3173828-0.4902344,0.5244141-0.8457031,0.6230469-1.0625
			c-0.2431641-0.9472656-0.375-1.4477539-0.3945313-1.5024414c-0.0898438-0.253418-0.2070313-0.4326172-0.3525391-0.5375977
			c-0.1445313-0.1054688-0.3583984-0.1577148-0.640625-0.1577148c-0.0898438,0-0.1943359,0.0039063-0.3115234,0.0117188v-0.2104492
			L207.8857422,17.8120117z"/>
		<path fill="#010101" d="M230.734375,17.8120117c0.1923828,0.2026367,0.3369141,0.4052734,0.4345703,0.6079102
			c0.0712891,0.1401367,0.1865234,0.5083008,0.3476563,1.1044922l0.5166016-0.7714844
			c0.1376953-0.1870117,0.3037109-0.3652344,0.5-0.534668s0.3681641-0.2851563,0.5175781-0.3476563
			c0.09375-0.0390625,0.1972656-0.0585938,0.3115234-0.0585938c0.1679688,0,0.3027344,0.0449219,0.4023438,0.1347656
			c0.0996094,0.0893555,0.1503906,0.1987305,0.1503906,0.3271484c0,0.1479492-0.0292969,0.2495117-0.0888672,0.3037109
			c-0.109375,0.0976563-0.234375,0.1459961-0.3759766,0.1459961c-0.0820313,0-0.1708984-0.0175781-0.2646484-0.0522461
			c-0.1835938-0.0625-0.3076172-0.09375-0.3701172-0.09375c-0.09375,0-0.2060547,0.0546875-0.3349609,0.1635742
			c-0.2431641,0.2026367-0.5332031,0.5942383-0.8701172,1.1748047l0.4824219,2.0097656
			c0.0742188,0.3076172,0.1367188,0.4921875,0.1875,0.5527344s0.1015625,0.0898438,0.1533203,0.0898438
			c0.0820313,0,0.1777344-0.0439453,0.2880859-0.1337891c0.2148438-0.1796875,0.3994141-0.4130859,0.5517578-0.7011719
			l0.2060547,0.1054688c-0.2470703,0.4589844-0.5605469,0.8408203-0.9404297,1.1445313
			c-0.2158203,0.171875-0.3974609,0.2578125-0.546875,0.2578125c-0.2197266,0-0.3935547-0.1230469-0.5234375-0.3681641
			c-0.0820313-0.1523438-0.2519531-0.8066406-0.5107422-1.9638672c-0.6113281,1.0556641-1.1015625,1.7353516-1.4697266,2.0390625
			c-0.2392578,0.1953125-0.4707031,0.2929688-0.6943359,0.2929688c-0.15625,0-0.2998047-0.0566406-0.4287109-0.1699219
			c-0.09375-0.0859375-0.140625-0.2001953-0.140625-0.3447266c0-0.1289063,0.0429688-0.2353516,0.1289063-0.3212891
			s0.1923828-0.1289063,0.3173828-0.1289063s0.2587891,0.0625,0.3994141,0.1875
			c0.1025391,0.0898438,0.1806641,0.1337891,0.2353516,0.1337891c0.046875,0,0.1083984-0.0302734,0.1826172-0.0927734
			c0.1835938-0.1484375,0.4345703-0.4677734,0.7519531-0.9589844c0.3173828-0.4902344,0.5253906-0.8457031,0.6230469-1.0625
			c-0.2421875-0.9472656-0.3740234-1.4477539-0.3935547-1.5024414c-0.0898438-0.253418-0.2080078-0.4326172-0.3525391-0.5375977
			c-0.1455078-0.1054688-0.3583984-0.1577148-0.640625-0.1577148c-0.0908203,0-0.1943359,0.0039063-0.3115234,0.0117188v-0.2104492
			L230.734375,17.8120117z"/>
	</g>
	<g>
		<path fill="#010101" d="M193.34375,22.7402344l-0.2294922,0.6835938c-0.3222656,0.9619141-0.6308594,1.703125-0.9267578,2.2207031
			h-1.0048828c0.1660156-0.25,0.2871094-0.4521484,0.3632813-0.6074219c0.1279297-0.265625,0.2587891-0.5986328,0.3935547-0.9990234
			l1.2558594-3.7470703c0.2705078-0.8051758,0.7470703-1.4663086,1.4277344-1.9799805
			c0.6806641-0.5102539,1.4091797-0.765625,2.1855469-0.765625c0.8857422,0,1.4541016,0.3154297,1.7050781,0.9472656
			c0.1914063,0.4907227,0.1835938,1.0449219-0.0244141,1.6645508c-0.234375,0.6982422-0.6660156,1.3408203-1.2988281,1.9287109
			c-0.8349609,0.7714844-1.6933594,1.1572266-2.5751953,1.1572266c-0.3173828,0-0.5888672-0.046875-0.8164063-0.140625
			C193.6474609,23.0371094,193.4970703,22.9150391,193.34375,22.7402344z M193.9355469,20.9755859
			c-0.1787109,0.5332031-0.2558594,0.9052734-0.2294922,1.1162109c0.0244141,0.2109375,0.1396484,0.3886719,0.3457031,0.5351563
			c0.2060547,0.1455078,0.4716797,0.2177734,0.796875,0.2177734c0.4902344,0,0.9697266-0.1904297,1.4384766-0.5722656
			c0.46875-0.3808594,0.8134766-0.9013672,1.0341797-1.5595703c0.1660156-0.4941406,0.2158203-0.9536133,0.1474609-1.3759766
			c-0.0683594-0.4233398-0.2304688-0.7363281-0.4882813-0.9379883c-0.2578125-0.2026367-0.5664063-0.3046875-0.9267578-0.3046875
			c-0.4511719,0-0.8320313,0.1743164-1.1435547,0.5205078c-0.1914063,0.206543-0.40625,0.6645508-0.6435547,1.3730469
			L193.9355469,20.9755859z"/>
	</g>
	<g>
		<path fill="#010101" d="M218.8994141,18.6655273h6.171875v0.5668945h-6.171875V18.6655273z M218.8994141,20.8447266h6.171875
			v0.5791016h-6.171875V20.8447266z"/>
		<path fill="#010101" d="M239.1943359,16.9648438h0.5761719v2.793457H242.5625v0.5668945h-2.7919922v2.7753906h-0.5761719
			v-2.7753906h-2.8037109v-0.5668945h2.8037109V16.9648438z"/>
	</g>
</g>
<line fill="none" stroke="#000000" stroke-miterlimit="10" x1="200.3632965" y1="124.8632965" x2="304.7479858" y2="31.1436005"/>
<g>
	<g>
		<path fill="#010101" d="M192.8388672,120.8144531l1.9892578-0.9306641h0.1982422v6.6171875
			c0,0.4384766,0.0195313,0.7128906,0.0576172,0.8203125s0.1171875,0.1904297,0.2382813,0.2480469
			c0.1201172,0.0585938,0.3652344,0.0908203,0.7353516,0.0986328v0.2138672h-3.0732422v-0.2138672
			c0.3847656-0.0078125,0.6347656-0.0390625,0.7470703-0.0957031c0.1123047-0.0556641,0.1904297-0.1308594,0.234375-0.2246094
			c0.0449219-0.0947266,0.0664063-0.3769531,0.0664063-0.8466797v-4.2304688c0-0.5703125-0.0195313-0.9365234-0.0595703-1.0986328
			c-0.0283203-0.1230469-0.0800781-0.2138672-0.1542969-0.2714844s-0.1630859-0.0859375-0.2675781-0.0859375
			c-0.1494141,0-0.3554688,0.0595703-0.6210938,0.1787109L192.8388672,120.8144531z"/>
	</g>
</g>
<g>
	<g>
		<path fill="#010101" d="M307.7451172,169.3417969h-5.7822266l0.0800781-0.2138672
			c0.3076172-0.0078125,0.5126953-0.0322266,0.6162109-0.0751953c0.1611328-0.0693359,0.2802734-0.1601563,0.3564453-0.2714844
			c0.1191406-0.1767578,0.2460938-0.4970703,0.3798828-0.9589844l1.375-4.7685547
			c0.1152344-0.3925781,0.1728516-0.6816406,0.1728516-0.8662109c0-0.1464844-0.0527344-0.2607422-0.1582031-0.3408203
			c-0.1054688-0.0810547-0.3046875-0.1220703-0.5957031-0.1220703c-0.0654297,0-0.1171875-0.0019531-0.1552734-0.0058594
			l0.0693359-0.2138672h3.1806641l-0.0458984,0.2138672c-0.3564453,0-0.609375,0.0351563-0.7587891,0.1044922
			c-0.1503906,0.0693359-0.2753906,0.1826172-0.375,0.3408203c-0.0683594,0.1044922-0.1816406,0.4277344-0.3388672,0.9707031
			l-1.3515625,4.6875c-0.1035156,0.3544922-0.15625,0.6005859-0.15625,0.7392578c0,0.0927734,0.0527344,0.1816406,0.15625,0.265625
			c0.0644531,0.0576172,0.2128906,0.0869141,0.4433594,0.0869141h0.7529297c0.5488281,0,0.9833984-0.0693359,1.3056641-0.2080078
			c0.2382813-0.1044922,0.4570313-0.2597656,0.65625-0.4677734c0.1074219-0.1162109,0.296875-0.4033203,0.5693359-0.8613281
			l0.1494141-0.2597656h0.2128906L307.7451172,169.3417969z"/>
	</g>
</g>
<g>
	<g>
		<path fill="#010101" d="M333.5390625,157.4462891c0.1933594,0.1972656,0.3388672,0.3945313,0.4375,0.5917969
			c0.0703125,0.1367188,0.1865234,0.4951172,0.3486328,1.0751953l0.5195313-0.7509766
			c0.1376953-0.1826172,0.3046875-0.3554688,0.5019531-0.5205078c0.1962891-0.1650391,0.3701172-0.2773438,0.5195313-0.3388672
			c0.0947266-0.0380859,0.1992188-0.0566406,0.3125-0.0566406c0.1699219,0,0.3046875,0.0439453,0.4052734,0.1308594
			s0.1503906,0.1933594,0.1503906,0.3193359c0,0.1435547-0.0292969,0.2421875-0.0888672,0.2949219
			c-0.1103516,0.0957031-0.2363281,0.1425781-0.3779297,0.1425781c-0.0820313,0-0.1708984-0.0175781-0.265625-0.0507813
			c-0.1855469-0.0605469-0.3095703-0.0917969-0.3720703-0.0917969c-0.0947266,0-0.2070313,0.0537109-0.3369141,0.1601563
			c-0.2441406,0.1972656-0.5351563,0.578125-0.8740234,1.1435547l0.484375,1.9580078
			c0.0751953,0.2988281,0.1376953,0.4785156,0.1894531,0.5371094c0.0507813,0.0605469,0.1015625,0.0898438,0.1533203,0.0898438
			c0.0830078,0,0.1787109-0.0449219,0.2890625-0.1308594c0.2167969-0.1757813,0.4023438-0.4023438,0.5556641-0.6835938
			l0.2060547,0.1015625c-0.2480469,0.4492188-0.5625,0.8203125-0.9443359,1.1152344
			c-0.2167969,0.1679688-0.4003906,0.2519531-0.5498047,0.2519531c-0.2207031,0-0.3955078-0.1210938-0.5253906-0.359375
			c-0.0830078-0.1484375-0.2539063-0.7851563-0.5136719-1.9121094c-0.6142578,1.0273438-1.1064453,1.6894531-1.4765625,1.9863281
			c-0.2402344,0.1894531-0.4726563,0.2851563-0.6972656,0.2851563c-0.1572266,0-0.3007813-0.0546875-0.4316406-0.1660156
			c-0.09375-0.0839844-0.140625-0.1953125-0.140625-0.3359375c0-0.125,0.0429688-0.2285156,0.1289063-0.3125
			c0.0878906-0.0839844,0.1933594-0.125,0.3193359-0.125s0.2607422,0.0605469,0.4013672,0.1816406
			c0.1035156,0.0878906,0.1816406,0.1308594,0.2363281,0.1308594c0.0478516,0,0.1083984-0.0292969,0.1835938-0.0898438
			c0.1855469-0.1445313,0.4375-0.4570313,0.7558594-0.9335938c0.3183594-0.4785156,0.5273438-0.8242188,0.6259766-1.0371094
			c-0.2441406-0.921875-0.3759766-1.4091797-0.3955078-1.4628906c-0.0908203-0.2460938-0.2089844-0.4208984-0.3544922-0.5234375
			c-0.1455078-0.1015625-0.3603516-0.1533203-0.6435547-0.1533203c-0.0908203,0-0.1953125,0.0039063-0.3134766,0.0107422v-0.2041016
			L333.5390625,157.4462891z"/>
	</g>
</g>
<g>
	<g>
		<path fill="#010101" d="M211.4824219,190.0253906v0.3320313c-1.0126953-0.6679688-1.8017578-1.6503906-2.3662109-2.9453125
			c-0.5644531-1.2929688-0.8466797-2.7089844-0.8466797-4.2480469c0-1.6005859,0.296875-3.0585938,0.890625-4.3730469
			s1.3681641-2.2548828,2.3222656-2.8212891v0.3242188c-0.4765625,0.3505859-0.8691406,0.8291016-1.1757813,1.4355469
			c-0.3066406,0.6074219-0.5351563,1.3779297-0.6865234,2.3115234c-0.1513672,0.9345703-0.2275391,1.9082031-0.2275391,2.921875
			c0,1.1484375,0.0703125,2.1835938,0.2099609,3.1113281c0.1396484,0.9257813,0.3525391,1.6933594,0.640625,2.3027344
			C210.5302734,188.9882813,210.9433594,189.5371094,211.4824219,190.0253906z"/>
	</g>
	<g>
		<path fill="#010101" d="M219.9091797,176.2939453v-0.3242188c1.0126953,0.6640625,1.8017578,1.6435547,2.3662109,2.9365234
			c0.5654297,1.2949219,0.8476563,2.7109375,0.8476563,4.25c0,1.5996094-0.296875,3.0585938-0.890625,4.3769531
			c-0.59375,1.3164063-1.3681641,2.2578125-2.3232422,2.8242188v-0.3320313c0.4814453-0.3496094,0.875-0.828125,1.1816406-1.4355469
			s0.5351563-1.3769531,0.6845703-2.3085938c0.1494141-0.9296875,0.2236328-1.90625,0.2236328-2.9238281
			c0-1.1425781-0.0683594-2.1787109-0.2060547-3.1074219c-0.1376953-0.9296875-0.3515625-1.6982422-0.640625-2.3085938
			C220.8632813,177.3320313,220.4482422,176.7832031,219.9091797,176.2939453z"/>
	</g>
	<g>
		<path fill="#010101" d="M294.2490234,190.0253906v0.3320313c-1.0136719-0.6679688-1.8017578-1.6503906-2.3671875-2.9453125
			c-0.5644531-1.2929688-0.8466797-2.7089844-0.8466797-4.2480469c0-1.6005859,0.296875-3.0585938,0.890625-4.3730469
			s1.3681641-2.2548828,2.3232422-2.8212891v0.3242188c-0.4775391,0.3505859-0.8701172,0.8291016-1.1767578,1.4355469
			c-0.3066406,0.6074219-0.5351563,1.3779297-0.6865234,2.3115234c-0.1513672,0.9345703-0.2275391,1.9082031-0.2275391,2.921875
			c0,1.1484375,0.0703125,2.1835938,0.2099609,3.1113281c0.1396484,0.9257813,0.3535156,1.6933594,0.640625,2.3027344
			C293.2958984,188.9882813,293.7089844,189.5371094,294.2490234,190.0253906z"/>
	</g>
	<g>
		<path fill="#010101" d="M305.4404297,176.2939453v-0.3242188c1.0136719,0.6640625,1.8017578,1.6435547,2.3671875,2.9365234
			c0.5644531,1.2949219,0.8466797,2.7109375,0.8466797,4.25c0,1.5996094-0.296875,3.0585938-0.890625,4.3769531
			c-0.59375,1.3164063-1.3681641,2.2578125-2.3232422,2.8242188v-0.3320313c0.4814453-0.3496094,0.875-0.828125,1.1826172-1.4355469
			c0.3056641-0.6074219,0.5341797-1.3769531,0.6835938-2.3085938c0.1494141-0.9296875,0.2246094-1.90625,0.2246094-2.9238281
			c0-1.1425781-0.0693359-2.1787109-0.2070313-3.1074219c-0.1376953-0.9296875-0.3515625-1.6982422-0.640625-2.3085938
			C306.3945313,177.3320313,305.9804688,176.7832031,305.4404297,176.2939453z"/>
	</g>
	<g>
		<path fill="#010101" d="M275.4736328,193.3496094l1.1259766-0.5488281h0.1123047v3.9003906
			c0,0.2597656,0.0107422,0.421875,0.0322266,0.484375c0.0224609,0.0644531,0.0673828,0.1132813,0.1347656,0.1464844
			c0.0683594,0.0351563,0.2070313,0.0527344,0.4169922,0.0585938v0.125h-1.7402344v-0.125
			c0.21875-0.0058594,0.359375-0.0234375,0.4228516-0.0566406s0.1083984-0.078125,0.1328125-0.1328125
			c0.0253906-0.0566406,0.0380859-0.2226563,0.0380859-0.5v-2.4921875c0-0.3359375-0.0117188-0.5527344-0.0341797-0.6484375
			c-0.015625-0.0722656-0.0449219-0.125-0.0869141-0.1601563c-0.0419922-0.0332031-0.0927734-0.0507813-0.1523438-0.0507813
			c-0.0839844,0-0.2011719,0.0351563-0.3505859,0.1054688L275.4736328,193.3496094z"/>
	</g>
	<g>
		<path fill="#010101" d="M251.1494141,177.6835938v7.1601563c0,0.3378906,0.0244141,0.5605469,0.0732422,0.671875
			c0.0488281,0.109375,0.125,0.1933594,0.2275391,0.25c0.1015625,0.0566406,0.2929688,0.0859375,0.5722656,0.0859375V186.0625
			h-2.6494141v-0.2109375c0.2480469,0,0.4169922-0.0253906,0.5078125-0.078125
			c0.0898438-0.0507813,0.1611328-0.1347656,0.2119141-0.2519531c0.0507813-0.1191406,0.0771484-0.34375,0.0771484-0.6777344
			v-4.9033203c0-0.6083984-0.0146484-0.9833984-0.0419922-1.1220703c-0.0273438-0.1396484-0.0712891-0.234375-0.1328125-0.2861328
			c-0.0605469-0.0507813-0.1386719-0.0771484-0.2324219-0.0771484c-0.1025391,0-0.2324219,0.0322266-0.3896484,0.0947266
			l-0.1005859-0.2060547l1.6113281-0.6601563H251.1494141z"/>
		<path fill="#010101" d="M254.3671875,180.5058594v4.3378906c0,0.3378906,0.0244141,0.5625,0.0742188,0.6738281
			c0.0488281,0.1113281,0.1210938,0.1953125,0.2177734,0.25c0.0966797,0.0566406,0.2724609,0.0839844,0.5283203,0.0839844V186.0625
			h-2.6259766v-0.2109375c0.2636719,0,0.4404297-0.0253906,0.53125-0.078125
			c0.0908203-0.0507813,0.1621094-0.1347656,0.2158203-0.2519531c0.0527344-0.1191406,0.0791016-0.34375,0.0791016-0.6777344
			v-2.0800781c0-0.5859375-0.0175781-0.9648438-0.0527344-1.1376953c-0.0273438-0.1259766-0.0712891-0.2138672-0.1298828-0.2626953
			c-0.0595703-0.0488281-0.1396484-0.0732422-0.2421875-0.0732422c-0.1103516,0-0.2441406,0.0292969-0.4013672,0.0888672
			l-0.0820313-0.2128906l1.6279297-0.6601563H254.3671875z M253.8779297,177.6835938
			c0.1650391,0,0.3056641,0.0585938,0.421875,0.1738281c0.1152344,0.1162109,0.1738281,0.2558594,0.1738281,0.421875
			c0,0.1640625-0.0585938,0.3066406-0.1738281,0.4238281c-0.1162109,0.1171875-0.2568359,0.1767578-0.421875,0.1767578
			c-0.1660156,0-0.3076172-0.0595703-0.4248047-0.1767578c-0.1181641-0.1171875-0.1777344-0.2597656-0.1777344-0.4238281
			c0-0.1660156,0.0585938-0.3056641,0.1748047-0.421875C253.5654297,177.7421875,253.7080078,177.6835938,253.8779297,177.6835938z"
			/>
		<path fill="#010101" d="M257.5009766,181.6552734c0.3935547-0.3925781,0.6259766-0.6181641,0.6962891-0.6777344
			c0.1767578-0.1494141,0.3681641-0.2646484,0.5722656-0.3476563c0.2050781-0.0830078,0.4072266-0.1240234,0.6083984-0.1240234
			c0.3378906,0,0.6289063,0.0986328,0.8730469,0.2949219c0.2441406,0.1972656,0.40625,0.4814453,0.4902344,0.8544922
			c0.4042969-0.4716797,0.7460938-0.7802734,1.0253906-0.9287109c0.2792969-0.1464844,0.5664063-0.2207031,0.8613281-0.2207031
			c0.2871094,0,0.5429688,0.0742188,0.765625,0.2207031c0.2207031,0.1484375,0.3984375,0.3886719,0.5273438,0.7226563
			c0.0859375,0.2275391,0.1289063,0.5859375,0.1289063,1.0722656v2.3222656c0,0.3378906,0.0273438,0.5683594,0.078125,0.6953125
			c0.0390625,0.0859375,0.1113281,0.1601563,0.2167969,0.2207031c0.1074219,0.0605469,0.2792969,0.0917969,0.5195313,0.0917969
			V186.0625h-2.6660156v-0.2109375h0.1113281c0.2324219,0,0.4140625-0.0449219,0.5429688-0.1367188
			c0.0917969-0.0625,0.15625-0.1621094,0.1953125-0.3007813c0.015625-0.0664063,0.0234375-0.2558594,0.0234375-0.5703125v-2.3222656
			c0-0.4394531-0.0527344-0.75-0.1601563-0.9316406c-0.1523438-0.25-0.3984375-0.3769531-0.7363281-0.3769531
			c-0.2089844,0-0.4179688,0.0527344-0.6289063,0.15625c-0.2109375,0.1044922-0.4648438,0.2978516-0.7636719,0.5800781
			l-0.0117188,0.0654297l0.0117188,0.2529297v2.5761719c0,0.3691406,0.0195313,0.5976563,0.0625,0.6894531
			c0.0410156,0.0898438,0.1171875,0.1660156,0.2324219,0.2265625c0.1132813,0.0605469,0.3085938,0.0917969,0.5839844,0.0917969
			V186.0625h-2.7324219v-0.2109375c0.2988281,0,0.5048828-0.0351563,0.6171875-0.1074219
			c0.1113281-0.0703125,0.1894531-0.1757813,0.2324219-0.3183594c0.0195313-0.0664063,0.0292969-0.2597656,0.0292969-0.5820313
			v-2.3222656c0-0.4394531-0.0644531-0.7558594-0.1933594-0.9492188c-0.1738281-0.2509766-0.4160156-0.3769531-0.7265625-0.3769531
			c-0.2119141,0-0.4228516,0.0566406-0.6308594,0.171875c-0.3271484,0.171875-0.578125,0.3671875-0.7558594,0.5820313v2.8945313
			c0,0.3535156,0.0244141,0.5820313,0.0742188,0.6894531c0.0488281,0.1054688,0.1220703,0.1855469,0.2177734,0.2382813
			c0.0966797,0.0527344,0.2919922,0.0800781,0.5878906,0.0800781V186.0625h-2.6728516v-0.2109375
			c0.2470703,0,0.4208984-0.0273438,0.5185547-0.0800781c0.0986328-0.0527344,0.1728516-0.1367188,0.2246094-0.2539063
			c0.0507813-0.1152344,0.0761719-0.3398438,0.0761719-0.6738281v-2.0625c0-0.59375-0.0175781-0.9765625-0.0527344-1.1494141
			c-0.0273438-0.1298828-0.0703125-0.2197266-0.1298828-0.2685547c-0.0585938-0.0488281-0.1396484-0.0732422-0.2421875-0.0732422
			c-0.109375,0-0.2412109,0.0292969-0.3945313,0.0888672l-0.0888672-0.2128906l1.6279297-0.6601563h0.2539063V181.6552734z"/>
	</g>
	<g>
		<path fill="#010101" d="M272.9863281,170.7304688l-0.4541016,1.5488281c0.4257813-0.6328125,0.7509766-1.0498047,0.9775391-1.25
			c0.2265625-0.1992188,0.4443359-0.2988281,0.6533203-0.2988281c0.1132813,0,0.2070313,0.0371094,0.28125,0.1113281
			c0.0742188,0.0761719,0.1113281,0.1738281,0.1113281,0.2929688c0,0.1367188-0.0332031,0.3183594-0.0996094,0.5449219
			l-0.4160156,1.4355469c-0.0478516,0.1650391-0.0712891,0.265625-0.0712891,0.3027344
			c0,0.03125,0.0087891,0.0585938,0.0273438,0.0800781c0.0175781,0.0214844,0.0371094,0.0322266,0.0576172,0.0322266
			c0.0273438,0,0.0605469-0.0146484,0.0986328-0.0439453c0.1210938-0.0957031,0.2529297-0.2412109,0.3964844-0.4365234
			l0.1054688,0.0654297c-0.2119141,0.3007813-0.4121094,0.5175781-0.6005859,0.6464844
			c-0.1318359,0.0888672-0.25,0.1328125-0.3544922,0.1328125c-0.0839844,0-0.1513672-0.0253906-0.2011719-0.0761719
			c-0.0507813-0.0507813-0.0751953-0.1201172-0.0751953-0.2070313c0-0.1083984,0.0380859-0.2958984,0.1162109-0.5615234
			l0.3955078-1.3701172c0.0498047-0.1699219,0.0751953-0.3027344,0.0751953-0.3984375
			c0-0.0449219-0.015625-0.0820313-0.0449219-0.1103516s-0.0654297-0.0419922-0.109375-0.0419922
			c-0.0634766,0-0.1396484,0.0273438-0.2285156,0.0820313c-0.1679688,0.1015625-0.3427734,0.2695313-0.5244141,0.5058594
			c-0.1826172,0.234375-0.375,0.5351563-0.5771484,0.9003906c-0.1064453,0.1933594-0.1953125,0.4042969-0.265625,0.6337891
			l-0.1708984,0.5615234h-0.5117188l0.6210938-2.1328125c0.0722656-0.2558594,0.109375-0.4101563,0.109375-0.4628906
			c0-0.0498047-0.0205078-0.09375-0.0595703-0.1308594c-0.0400391-0.0371094-0.0898438-0.0566406-0.1484375-0.0566406
			c-0.0273438,0-0.0751953,0.0048828-0.1435547,0.0136719l-0.1298828,0.0214844l-0.0205078-0.1230469L272.9863281,170.7304688z"/>
	</g>
	<g>
		<path fill="#010101" d="M302.6289063,186.0898438l-0.6748047,2.3867188
			c-0.0458984,0.1621094-0.0683594,0.2578125-0.0683594,0.2910156c0,0.0351563,0.0107422,0.0644531,0.0322266,0.0878906
			s0.046875,0.0332031,0.0761719,0.0332031c0.0341797,0,0.0751953-0.0175781,0.1230469-0.0527344
			c0.1298828-0.1035156,0.2607422-0.2480469,0.3925781-0.4375l0.1191406,0.078125
			c-0.1542969,0.2363281-0.3359375,0.4355469-0.5458984,0.5976563c-0.1542969,0.1191406-0.3017578,0.1796875-0.4433594,0.1796875
			c-0.0927734,0-0.1689453-0.0273438-0.2285156-0.0839844c-0.0585938-0.0546875-0.0888672-0.125-0.0888672-0.2089844
			s0.0283203-0.2226563,0.0859375-0.4179688l0.4433594-1.5273438c0.0722656-0.25,0.109375-0.40625,0.109375-0.4707031
			c0-0.0488281-0.0185547-0.0898438-0.0537109-0.1210938c-0.0351563-0.0332031-0.0830078-0.0488281-0.1445313-0.0488281
			c-0.0498047,0-0.1533203,0.0136719-0.3105469,0.0371094v-0.1328125L302.6289063,186.0898438z M302.5849609,184.7363281
			c0.0957031,0,0.1757813,0.0332031,0.2421875,0.0996094c0.0654297,0.0664063,0.0986328,0.1464844,0.0986328,0.2421875
			c0,0.0917969-0.0332031,0.171875-0.1005859,0.2402344c-0.0673828,0.0664063-0.1474609,0.0996094-0.2402344,0.0996094
			c-0.09375,0-0.1738281-0.0332031-0.2412109-0.0996094c-0.0664063-0.0683594-0.1005859-0.1484375-0.1005859-0.2402344
			c0-0.0957031,0.0332031-0.1757813,0.0996094-0.2421875C302.4082031,184.7695313,302.4892578,184.7363281,302.5849609,184.7363281z
			"/>
		<path fill="#010101" d="M324.6816406,186.0898438l-0.6748047,2.3867188
			c-0.0458984,0.1621094-0.0683594,0.2578125-0.0683594,0.2910156c0,0.0351563,0.0107422,0.0644531,0.0322266,0.0878906
			s0.046875,0.0332031,0.0761719,0.0332031c0.0341797,0,0.0751953-0.0175781,0.1230469-0.0527344
			c0.1298828-0.1035156,0.2607422-0.2480469,0.3925781-0.4375l0.1191406,0.078125
			c-0.1542969,0.2363281-0.3359375,0.4355469-0.5458984,0.5976563c-0.1542969,0.1191406-0.3017578,0.1796875-0.4433594,0.1796875
			c-0.0927734,0-0.1689453-0.0273438-0.2285156-0.0839844c-0.0585938-0.0546875-0.0888672-0.125-0.0888672-0.2089844
			s0.0283203-0.2226563,0.0859375-0.4179688l0.4433594-1.5273438c0.0722656-0.25,0.109375-0.40625,0.109375-0.4707031
			c0-0.0488281-0.0185547-0.0898438-0.0537109-0.1210938c-0.0351563-0.0332031-0.0830078-0.0488281-0.1445313-0.0488281
			c-0.0498047,0-0.1533203,0.0136719-0.3105469,0.0371094v-0.1328125L324.6816406,186.0898438z M324.6376953,184.7363281
			c0.0957031,0,0.1757813,0.0332031,0.2421875,0.0996094c0.0654297,0.0664063,0.0986328,0.1464844,0.0986328,0.2421875
			c0,0.0917969-0.0332031,0.171875-0.1005859,0.2402344c-0.0673828,0.0664063-0.1474609,0.0996094-0.2402344,0.0996094
			c-0.09375,0-0.1738281-0.0332031-0.2412109-0.0996094c-0.0664063-0.0683594-0.1005859-0.1484375-0.1005859-0.2402344
			c0-0.0957031,0.0332031-0.1757813,0.0996094-0.2421875C324.4609375,184.7695313,324.5419922,184.7363281,324.6376953,184.7363281z
			"/>
	</g>
	<g>
		<path fill="#010101" d="M250.5800781,189.9726563l-0.4541016,1.5488281c0.4248047-0.6328125,0.7509766-1.0488281,0.9775391-1.25
			c0.2255859-0.1992188,0.4433594-0.2988281,0.6533203-0.2988281c0.1132813,0,0.2070313,0.0371094,0.28125,0.1113281
			c0.0732422,0.0761719,0.1103516,0.1738281,0.1103516,0.2929688c0,0.1367188-0.0332031,0.3183594-0.0986328,0.5449219
			l-0.4160156,1.4355469c-0.0478516,0.1660156-0.0722656,0.265625-0.0722656,0.3027344
			c0,0.03125,0.0097656,0.0585938,0.0273438,0.0800781c0.0185547,0.0214844,0.0380859,0.03125,0.0585938,0.03125
			c0.0273438,0,0.0595703-0.0136719,0.0986328-0.0429688c0.1210938-0.0957031,0.2529297-0.2402344,0.3955078-0.4355469
			l0.1064453,0.0644531c-0.2119141,0.3007813-0.4121094,0.5175781-0.6005859,0.6464844
			c-0.1318359,0.0878906-0.25,0.1328125-0.3544922,0.1328125c-0.0849609,0-0.1513672-0.0253906-0.2021484-0.0761719
			c-0.0498047-0.0507813-0.0742188-0.1191406-0.0742188-0.2070313c0-0.1074219,0.0380859-0.2949219,0.1152344-0.5605469
			l0.3964844-1.3710938c0.0498047-0.1699219,0.0742188-0.3027344,0.0742188-0.3984375
			c0-0.0449219-0.0146484-0.0820313-0.0439453-0.109375c-0.0292969-0.0292969-0.0664063-0.0429688-0.109375-0.0429688
			c-0.0634766,0-0.1396484,0.0273438-0.2285156,0.0820313c-0.1679688,0.1015625-0.3427734,0.2695313-0.5253906,0.5058594
			c-0.1816406,0.234375-0.3740234,0.5351563-0.5761719,0.9003906c-0.1064453,0.1933594-0.1953125,0.4042969-0.265625,0.6328125
			l-0.1708984,0.5625h-0.5117188l0.6210938-2.1328125c0.0722656-0.2558594,0.1083984-0.4101563,0.1083984-0.4628906
			c0-0.0488281-0.0195313-0.09375-0.0595703-0.1308594c-0.0390625-0.0371094-0.0888672-0.0566406-0.1484375-0.0566406
			c-0.0273438,0-0.0742188,0.0058594-0.1425781,0.0136719l-0.1298828,0.0214844l-0.0205078-0.1230469L250.5800781,189.9726563z"/>
	</g>
	<g>
		<path fill="#010101" d="M270.2851563,194.4335938l-0.6748047,2.3867188
			c-0.0458984,0.1621094-0.0683594,0.2578125-0.0683594,0.2910156c0,0.0351563,0.0107422,0.0644531,0.0322266,0.0878906
			s0.046875,0.0332031,0.0761719,0.0332031c0.0341797,0,0.0751953-0.0175781,0.1230469-0.0527344
			c0.1298828-0.1035156,0.2607422-0.2480469,0.3925781-0.4375l0.1191406,0.078125
			c-0.1542969,0.2363281-0.3359375,0.4355469-0.5458984,0.5976563c-0.1542969,0.1191406-0.3017578,0.1796875-0.4433594,0.1796875
			c-0.0927734,0-0.1689453-0.0273438-0.2285156-0.0839844c-0.0585938-0.0546875-0.0888672-0.125-0.0888672-0.2089844
			s0.0283203-0.2226563,0.0859375-0.4179688l0.4433594-1.5273438c0.0722656-0.25,0.109375-0.40625,0.109375-0.4707031
			c0-0.0488281-0.0185547-0.0898438-0.0537109-0.1210938c-0.0351563-0.0332031-0.0830078-0.0488281-0.1445313-0.0488281
			c-0.0498047,0-0.1533203,0.0136719-0.3105469,0.0371094v-0.1328125L270.2851563,194.4335938z M270.2412109,193.0800781
			c0.0957031,0,0.1757813,0.0332031,0.2421875,0.0996094c0.0654297,0.0664063,0.0986328,0.1464844,0.0986328,0.2421875
			c0,0.0917969-0.0332031,0.171875-0.1005859,0.2402344c-0.0673828,0.0664063-0.1474609,0.0996094-0.2402344,0.0996094
			c-0.09375,0-0.1738281-0.0332031-0.2412109-0.0996094c-0.0664063-0.0683594-0.1005859-0.1484375-0.1005859-0.2402344
			c0-0.0957031,0.0332031-0.1757813,0.0996094-0.2421875C270.0644531,193.1132813,270.1455078,193.0800781,270.2412109,193.0800781z
			"/>
	</g>
	<g>
		<path fill="#010101" d="M215.453125,180.7304688c0.1923828,0.2041016,0.3378906,0.4082031,0.4365234,0.6123047
			c0.0703125,0.1416016,0.1865234,0.5126953,0.3476563,1.1142578l0.5195313-0.7783203
			c0.1376953-0.1884766,0.3046875-0.3681641,0.5009766-0.5390625c0.1972656-0.1708984,0.3701172-0.2880859,0.5195313-0.3505859
			c0.0947266-0.0390625,0.1982422-0.0585938,0.3125-0.0585938c0.1689453,0,0.3037109,0.0449219,0.4042969,0.1347656
			c0.1005859,0.0908203,0.1503906,0.2011719,0.1503906,0.3300781c0,0.1503906-0.0292969,0.2519531-0.0878906,0.3066406
			c-0.1103516,0.0976563-0.2363281,0.1474609-0.3779297,0.1474609c-0.0830078,0-0.1708984-0.0175781-0.265625-0.0537109
			c-0.1845703-0.0625-0.3085938-0.09375-0.3720703-0.09375c-0.09375,0-0.2060547,0.0546875-0.3359375,0.1650391
			c-0.2441406,0.2041016-0.5351563,0.5986328-0.8730469,1.1845703l0.4833984,2.0273438
			c0.0751953,0.3105469,0.1376953,0.4960938,0.1894531,0.5566406c0.0507813,0.0605469,0.1015625,0.0917969,0.1533203,0.0917969
			c0.0820313,0,0.1787109-0.0449219,0.2890625-0.1367188c0.2158203-0.1796875,0.4013672-0.4160156,0.5546875-0.7070313
			l0.2060547,0.1074219c-0.2480469,0.4628906-0.5625,0.8476563-0.9443359,1.1542969
			c-0.2158203,0.171875-0.3984375,0.2597656-0.5478516,0.2597656c-0.2207031,0-0.3955078-0.125-0.5253906-0.3710938
			c-0.0830078-0.1542969-0.2539063-0.8144531-0.5136719-1.9804688c-0.6132813,1.0644531-1.1054688,1.75-1.4746094,2.0566406
			c-0.2402344,0.1953125-0.4726563,0.2949219-0.6962891,0.2949219c-0.1572266,0-0.3007813-0.0585938-0.4306641-0.171875
			c-0.0947266-0.0859375-0.1416016-0.2011719-0.1416016-0.3476563c0-0.1289063,0.0429688-0.2382813,0.1298828-0.3242188
			c0.0859375-0.0859375,0.1923828-0.1289063,0.3183594-0.1289063s0.2597656,0.0625,0.4013672,0.1875
			c0.1015625,0.0917969,0.1806641,0.1367188,0.2353516,0.1367188c0.0478516,0,0.1083984-0.03125,0.1835938-0.09375
			c0.1845703-0.1503906,0.4365234-0.4726563,0.7548828-0.9667969c0.3183594-0.4960938,0.5273438-0.8535156,0.625-1.0722656
			c-0.2431641-0.9550781-0.375-1.4599609-0.3945313-1.515625c-0.0908203-0.2548828-0.2089844-0.4355469-0.3544922-0.5410156
			c-0.1455078-0.1064453-0.359375-0.1601563-0.6425781-0.1601563c-0.0908203,0-0.1953125,0.0039063-0.3134766,0.0117188v-0.2109375
			L215.453125,180.7304688z"/>
		<path fill="#010101" d="M231.6875,177.6835938l-2.0302734,6.953125c-0.1103516,0.3769531-0.1650391,0.625-0.1650391,0.7421875
			c0,0.0390625,0.0166016,0.0761719,0.0498047,0.1132813c0.0341797,0.0351563,0.0683594,0.0527344,0.1035156,0.0527344
			c0.0507813,0,0.1123047-0.0253906,0.1826172-0.0761719c0.1337891-0.0957031,0.3583984-0.3300781,0.6728516-0.7089844
			l0.2011719,0.125c-0.2832031,0.3925781-0.5693359,0.7109375-0.859375,0.9550781
			c-0.2890625,0.2421875-0.5595703,0.3652344-0.8105469,0.3652344c-0.1337891,0-0.2441406-0.046875-0.3310547-0.1425781
			c-0.0859375-0.09375-0.1298828-0.2265625-0.1298828-0.4003906c0-0.2246094,0.0595703-0.5234375,0.1777344-0.9023438
			l0.2294922-0.7304688c-0.5703125,0.8808594-1.0888672,1.4902344-1.5576172,1.828125
			c-0.3222656,0.2304688-0.6308594,0.3476563-0.9257813,0.3476563c-0.2988281,0-0.5595703-0.1328125-0.7822266-0.3984375
			c-0.2216797-0.265625-0.3330078-0.625-0.3330078-1.0820313c0-0.5839844,0.1865234-1.2089844,0.5605469-1.8730469
			c0.3730469-0.6640625,0.8671875-1.2041016,1.4804688-1.6210938c0.484375-0.3339844,0.9287109-0.5,1.3339844-0.5
			c0.2119141,0,0.3955078,0.0429688,0.5488281,0.1289063c0.1533203,0.0869141,0.3046875,0.2304688,0.4541016,0.4306641
			l0.578125-2.0507813c0.0429688-0.1455078,0.078125-0.2607422,0.1064453-0.3476563
			c0.046875-0.1572266,0.0703125-0.2861328,0.0703125-0.3886719c0-0.0830078-0.0292969-0.1513672-0.0878906-0.2060547
			c-0.0830078-0.0664063-0.1894531-0.1005859-0.3193359-0.1005859c-0.0898438,0-0.2392578,0.0136719-0.4482422,0.0419922v-0.21875
			L231.6875,177.6835938z M229.4980469,181.8671875c0-0.2509766-0.0732422-0.453125-0.21875-0.6064453
			s-0.3300781-0.2294922-0.5537109-0.2294922c-0.4960938,0-1.0126953,0.4082031-1.5488281,1.2246094
			c-0.5371094,0.8183594-0.8056641,1.5996094-0.8056641,2.3457031c0,0.2949219,0.0644531,0.5195313,0.1943359,0.6738281
			c0.1298828,0.15625,0.2851563,0.234375,0.4667969,0.234375c0.4082031,0,0.921875-0.4433594,1.5390625-1.3261719
			C229.1894531,183.2988281,229.4980469,182.5273438,229.4980469,181.8671875z"/>
		<path fill="#010101" d="M233.2861328,180.7304688c0.1923828,0.2041016,0.3378906,0.4082031,0.4365234,0.6123047
			c0.0712891,0.1416016,0.1865234,0.5126953,0.3486328,1.1142578l0.5185547-0.7783203
			c0.1376953-0.1884766,0.3046875-0.3681641,0.5019531-0.5390625c0.1962891-0.1708984,0.3691406-0.2880859,0.5195313-0.3505859
			c0.09375-0.0390625,0.1982422-0.0585938,0.3125-0.0585938c0.1689453,0,0.3037109,0.0449219,0.4042969,0.1347656
			c0.0996094,0.0908203,0.1503906,0.2011719,0.1503906,0.3300781c0,0.1503906-0.0302734,0.2519531-0.0888672,0.3066406
			c-0.1103516,0.0976563-0.2363281,0.1474609-0.3779297,0.1474609c-0.0820313,0-0.1708984-0.0175781-0.265625-0.0537109
			c-0.1845703-0.0625-0.3085938-0.09375-0.3710938-0.09375c-0.0947266,0-0.2070313,0.0546875-0.3369141,0.1650391
			c-0.2431641,0.2041016-0.5341797,0.5986328-0.8730469,1.1845703l0.484375,2.0273438
			c0.0742188,0.3105469,0.1376953,0.4960938,0.1884766,0.5566406s0.1025391,0.0917969,0.1533203,0.0917969
			c0.0830078,0,0.1787109-0.0449219,0.2890625-0.1367188c0.2167969-0.1796875,0.4013672-0.4160156,0.5546875-0.7070313
			l0.2070313,0.1074219c-0.2480469,0.4628906-0.5625,0.8476563-0.9443359,1.1542969
			c-0.2167969,0.171875-0.3994141,0.2597656-0.5488281,0.2597656c-0.2207031,0-0.3955078-0.125-0.5253906-0.3710938
			c-0.0820313-0.1542969-0.2529297-0.8144531-0.5126953-1.9804688c-0.6142578,1.0644531-1.1054688,1.75-1.4755859,2.0566406
			c-0.2402344,0.1953125-0.4716797,0.2949219-0.6962891,0.2949219c-0.1572266,0-0.3007813-0.0585938-0.4306641-0.171875
			c-0.09375-0.0859375-0.1416016-0.2011719-0.1416016-0.3476563c0-0.1289063,0.0439453-0.2382813,0.1298828-0.3242188
			c0.0869141-0.0859375,0.1933594-0.1289063,0.3183594-0.1289063c0.1259766,0,0.2597656,0.0625,0.4013672,0.1875
			c0.1025391,0.0917969,0.1806641,0.1367188,0.2363281,0.1367188c0.046875,0,0.1083984-0.03125,0.1826172-0.09375
			c0.1855469-0.1503906,0.4365234-0.4726563,0.7558594-0.9667969c0.3183594-0.4960938,0.5263672-0.8535156,0.625-1.0722656
			c-0.2441406-0.9550781-0.3759766-1.4599609-0.3955078-1.515625c-0.0908203-0.2548828-0.2080078-0.4355469-0.3535156-0.5410156
			c-0.1455078-0.1064453-0.3603516-0.1601563-0.6435547-0.1601563c-0.0908203,0-0.1943359,0.0039063-0.3125,0.0117188v-0.2109375
			L233.2861328,180.7304688z"/>
		<path fill="#010101" d="M320.1298828,180.7304688c0.1923828,0.2041016,0.3378906,0.4082031,0.4365234,0.6123047
			c0.0703125,0.1416016,0.1865234,0.5126953,0.3476563,1.1142578l0.5195313-0.7783203
			c0.1376953-0.1884766,0.3046875-0.3681641,0.5019531-0.5390625c0.1962891-0.1708984,0.3691406-0.2880859,0.5185547-0.3505859
			c0.0947266-0.0390625,0.1992188-0.0585938,0.3125-0.0585938c0.1699219,0,0.3046875,0.0449219,0.4042969,0.1347656
			c0.1005859,0.0908203,0.1503906,0.2011719,0.1503906,0.3300781c0,0.1503906-0.0292969,0.2519531-0.0878906,0.3066406
			c-0.1103516,0.0976563-0.2363281,0.1474609-0.3779297,0.1474609c-0.0820313,0-0.1708984-0.0175781-0.265625-0.0537109
			c-0.1845703-0.0625-0.3085938-0.09375-0.3710938-0.09375c-0.0947266,0-0.2070313,0.0546875-0.3369141,0.1650391
			c-0.2441406,0.2041016-0.5351563,0.5986328-0.8730469,1.1845703l0.4833984,2.0273438
			c0.0751953,0.3105469,0.1376953,0.4960938,0.1894531,0.5566406c0.0507813,0.0605469,0.1025391,0.0917969,0.1533203,0.0917969
			c0.0820313,0,0.1787109-0.0449219,0.2890625-0.1367188c0.2158203-0.1796875,0.4013672-0.4160156,0.5546875-0.7070313
			l0.2060547,0.1074219c-0.2470703,0.4628906-0.5625,0.8476563-0.9433594,1.1542969
			c-0.2167969,0.171875-0.3994141,0.2597656-0.5488281,0.2597656c-0.2207031,0-0.3955078-0.125-0.5253906-0.3710938
			c-0.0830078-0.1542969-0.2539063-0.8144531-0.5136719-1.9804688c-0.6132813,1.0644531-1.1044922,1.75-1.4746094,2.0566406
			c-0.2402344,0.1953125-0.4716797,0.2949219-0.6962891,0.2949219c-0.1572266,0-0.3007813-0.0585938-0.4306641-0.171875
			c-0.0947266-0.0859375-0.1416016-0.2011719-0.1416016-0.3476563c0-0.1289063,0.0429688-0.2382813,0.1298828-0.3242188
			s0.1923828-0.1289063,0.3183594-0.1289063s0.2597656,0.0625,0.4013672,0.1875
			c0.1025391,0.0917969,0.1806641,0.1367188,0.2363281,0.1367188c0.046875,0,0.1074219-0.03125,0.1826172-0.09375
			c0.1845703-0.1503906,0.4365234-0.4726563,0.7548828-0.9667969c0.3193359-0.4960938,0.5273438-0.8535156,0.6259766-1.0722656
			c-0.2441406-0.9550781-0.3759766-1.4599609-0.3955078-1.515625c-0.0908203-0.2548828-0.2089844-0.4355469-0.3544922-0.5410156
			c-0.1455078-0.1064453-0.359375-0.1601563-0.6425781-0.1601563c-0.0908203,0-0.1943359,0.0039063-0.3125,0.0117188v-0.2109375
			L320.1298828,180.7304688z"/>
	</g>
	<g>
		<path fill="#010101" d="M200.8330078,185.7285156l-0.2294922,0.6894531
			c-0.3242188,0.9707031-0.6347656,1.7167969-0.9306641,2.2402344h-1.0097656
			c0.1669922-0.2519531,0.2880859-0.4570313,0.3652344-0.6132813c0.1279297-0.2675781,0.2597656-0.6035156,0.3945313-1.0078125
			l1.2607422-3.7773438c0.2714844-0.8134766,0.75-1.4794922,1.4335938-1.9980469
			c0.6835938-0.5136719,1.4150391-0.7714844,2.1933594-0.7714844c0.8886719,0,1.4589844,0.3173828,1.7099609,0.9550781
			c0.1933594,0.4941406,0.1855469,1.0546875-0.0224609,1.6777344c-0.2353516,0.7050781-0.6689453,1.3515625-1.3037109,1.9453125
			c-0.8388672,0.7773438-1.7001953,1.1660156-2.5849609,1.1660156c-0.3183594,0-0.5917969-0.046875-0.8203125-0.140625
			C201.1386719,186.0273438,200.9863281,185.90625,200.8330078,185.7285156z M201.4277344,183.9492188
			c-0.1796875,0.5371094-0.2578125,0.9140625-0.2314453,1.125c0.0244141,0.2128906,0.1416016,0.3925781,0.3486328,0.5390625
			c0.2050781,0.1484375,0.4716797,0.2226563,0.7988281,0.2226563c0.4912109,0,0.9726563-0.1933594,1.4443359-0.578125
			c0.4697266-0.3847656,0.8154297-0.9101563,1.0371094-1.5742188c0.1669922-0.4980469,0.2158203-0.9609375,0.1474609-1.3867188
			c-0.0683594-0.4267578-0.2304688-0.7421875-0.4892578-0.9462891c-0.2578125-0.2041016-0.5683594-0.3066406-0.9306641-0.3066406
			c-0.4521484,0-0.8349609,0.1748047-1.1484375,0.5244141c-0.1914063,0.2089844-0.40625,0.6699219-0.6445313,1.3847656
			L201.4277344,183.9492188z"/>
		<path fill="#010101" d="M283.5908203,185.7285156l-0.2294922,0.6894531
			c-0.3242188,0.9707031-0.6347656,1.7167969-0.9306641,2.2402344h-1.0097656
			c0.1679688-0.2519531,0.2880859-0.4570313,0.3652344-0.6132813c0.1279297-0.2675781,0.2597656-0.6035156,0.3945313-1.0078125
			l1.2607422-3.7773438c0.2714844-0.8134766,0.75-1.4794922,1.4335938-1.9980469
			c0.6835938-0.5136719,1.4150391-0.7714844,2.1933594-0.7714844c0.8886719,0,1.4589844,0.3173828,1.7099609,0.9550781
			c0.1933594,0.4941406,0.1855469,1.0546875-0.0224609,1.6777344c-0.2353516,0.7050781-0.6689453,1.3515625-1.3037109,1.9453125
			c-0.8388672,0.7773438-1.7001953,1.1660156-2.5849609,1.1660156c-0.3183594,0-0.5908203-0.046875-0.8193359-0.140625
			C283.8974609,186.0273438,283.7441406,185.90625,283.5908203,185.7285156z M284.1855469,183.9492188
			c-0.1796875,0.5371094-0.2568359,0.9140625-0.2314453,1.125c0.0253906,0.2128906,0.1416016,0.3925781,0.3486328,0.5390625
			c0.2060547,0.1484375,0.4716797,0.2226563,0.7988281,0.2226563c0.4912109,0,0.9726563-0.1933594,1.4443359-0.578125
			c0.4697266-0.3847656,0.8154297-0.9101563,1.0371094-1.5742188c0.1669922-0.4980469,0.2158203-0.9609375,0.1484375-1.3867188
			c-0.0693359-0.4267578-0.2314453-0.7421875-0.4902344-0.9462891c-0.2578125-0.2041016-0.5683594-0.3066406-0.9296875-0.3066406
			c-0.453125,0-0.8359375,0.1748047-1.1494141,0.5244141c-0.1914063,0.2089844-0.4052734,0.6699219-0.6445313,1.3847656
			L284.1855469,183.9492188z"/>
		<path fill="#010101" d="M299.6240234,177.6738281l-0.0693359,0.2060547
			c-0.2402344,0.0380859-0.4199219,0.1044922-0.5380859,0.1972656c-0.1171875,0.0927734-0.1982422,0.2060547-0.2421875,0.3388672
			c-0.0556641,0.1650391-0.0439453,0.3007813,0.0322266,0.40625c0.0771484,0.1054688,0.234375,0.1660156,0.4746094,0.1777344
			c0.5712891-0.3925781,1.0244141-0.6640625,1.3574219-0.8134766s0.6083984-0.2246094,0.8242188-0.2246094
			c0.1025391,0,0.1767578,0.0322266,0.2255859,0.0947266c0.046875,0.0625,0.0576172,0.1367188,0.0283203,0.2246094
			c-0.0654297,0.1953125-0.2304688,0.3701172-0.4941406,0.5234375c-0.4248047,0.2480469-1.0166016,0.4072266-1.7753906,0.4775391
			c-0.53125,0.3544922-0.8583984,0.7148438-0.9814453,1.0830078c-0.1220703,0.3671875,0.0390625,0.6542969,0.4833984,0.8671875
			c0.4462891-0.15625,0.8310547-0.2734375,1.1552734-0.3505859s0.5908203-0.1142578,0.7998047-0.1142578
			c0.1845703,0,0.3076172,0.0332031,0.3671875,0.1015625c0.0585938,0.0703125,0.0703125,0.1591797,0.0332031,0.2695313
			c-0.0458984,0.1367188-0.1513672,0.2490234-0.3173828,0.3349609c-0.3007813,0.1572266-0.6962891,0.2363281-1.1884766,0.2363281
			c-0.1416016,0-0.2880859-0.0087891-0.4404297-0.0244141s-0.3076172-0.0371094-0.4677734-0.0644531
			c-0.5527344,0.2050781-1.0439453,0.5087891-1.4755859,0.9101563c-0.4316406,0.4033203-0.71875,0.8203125-0.8632813,1.2519531
			c-0.1113281,0.3339844-0.1220703,0.6074219-0.0332031,0.8164063c0.0888672,0.2109375,0.2382813,0.359375,0.4501953,0.4453125
			c0.1269531,0.0546875,0.3447266,0.0820313,0.6513672,0.0820313c0.3144531,0,0.6308594-0.0117188,0.9492188-0.0351563
			c0.4335938-0.0273438,0.7177734-0.0410156,0.8515625-0.0410156c0.3818359,0,0.6542969,0.1367188,0.8183594,0.4121094
			c0.1630859,0.2792969,0.1621094,0.6640625-0.0019531,1.15625c-0.2080078,0.6230469-0.546875,1.1191406-1.0185547,1.4863281
			c-0.4697266,0.3671875-0.9619141,0.5527344-1.4736328,0.5527344c-0.2714844,0-0.4570313-0.0566406-0.5605469-0.1660156
			s-0.1337891-0.2265625-0.0917969-0.3535156c0.0332031-0.1015625,0.1025391-0.1914063,0.2060547-0.265625
			c0.1044922-0.0742188,0.2099609-0.1113281,0.3212891-0.1113281c0.0820313,0,0.2207031,0.0273438,0.4140625,0.0820313
			c0.1953125,0.0546875,0.3369141,0.0820313,0.4267578,0.0820313c0.2597656,0,0.5097656-0.0898438,0.7490234-0.2714844
			c0.2392578-0.1796875,0.4072266-0.4140625,0.5039063-0.7050781c0.0820313-0.2441406,0.0742188-0.4394531-0.0195313-0.5878906
			c-0.0947266-0.1464844-0.2441406-0.2207031-0.4472656-0.2207031c-0.1152344,0-0.3095703,0.0175781-0.5859375,0.0507813
			c-0.2773438,0.0332031-0.5458984,0.0507813-0.8056641,0.0507813c-0.6210938,0-1.0732422-0.0761719-1.3554688-0.2246094
			s-0.4736328-0.4023438-0.5751953-0.7597656c-0.1005859-0.359375-0.0761719-0.7617188,0.0742188-1.2148438
			c0.1630859-0.4863281,0.4472656-0.9609375,0.8525391-1.421875c0.40625-0.4628906,0.9433594-0.8525391,1.6123047-1.1699219
			c-0.4101563-0.3193359-0.5449219-0.6816406-0.4091797-1.0908203c0.1142578-0.3417969,0.3974609-0.6972656,0.8505859-1.0664063
			c-0.2646484-0.0664063-0.4433594-0.1806641-0.5371094-0.3417969s-0.109375-0.3339844-0.0478516-0.5185547
			c0.0664063-0.2001953,0.2001953-0.3710938,0.4042969-0.5136719
			C298.9267578,177.7792969,299.2265625,177.6972656,299.6240234,177.6738281z"/>
	</g>
	<g>
		<path fill="#010101" d="M258.3701172,191.5292969h-5.2324219v-0.3300781h5.2324219
			c-0.3232422-0.3730469-0.5498047-0.6601563-0.6787109-0.8652344c-0.1298828-0.203125-0.2558594-0.4550781-0.3789063-0.7578125
			h0.2724609c0.2666016,0.328125,0.5976563,0.6601563,0.9931641,0.9960938s0.7099609,0.5703125,0.9414063,0.7011719v0.1914063
			c-0.3027344,0.1679688-0.6328125,0.4082031-0.9912109,0.7207031c-0.3583984,0.3144531-0.671875,0.6347656-0.9433594,0.9648438
			H257.3125c0.1298828-0.3066406,0.2626953-0.5664063,0.3994141-0.7792969
			C257.8476563,192.15625,258.0673828,191.8769531,258.3701172,191.5292969z"/>
		<path fill="#010101" d="M262.2226563,190.7832031c0.1552734-0.3554688,0.3242188-0.5996094,0.5087891-0.7382813
			c0.1835938-0.1367188,0.4355469-0.2050781,0.7539063-0.2050781c0.3662109,0,0.6748047,0.1308594,0.9277344,0.3945313
			c0.2519531,0.2636719,0.3789063,0.6054688,0.3789063,1.0253906c0,0.4160156-0.1230469,0.7578125-0.3691406,1.0273438
			c-0.2451172,0.2695313-0.5195313,0.4042969-0.8222656,0.4042969c-0.2246094,0-0.4335938-0.0839844-0.6269531-0.25
			c-0.1279297-0.109375-0.3017578-0.3496094-0.5224609-0.7246094c-0.1455078,0.28125-0.3046875,0.484375-0.4775391,0.6074219
			c-0.1728516,0.125-0.3818359,0.1855469-0.6269531,0.1855469c-0.328125,0-0.6044922-0.1171875-0.8310547-0.3496094
			c-0.2265625-0.234375-0.3388672-0.5371094-0.3388672-0.90625c0-0.375,0.1044922-0.6777344,0.3134766-0.90625
			c0.2089844-0.2304688,0.4541016-0.3457031,0.7333984-0.3457031c0.1953125,0,0.3681641,0.0507813,0.5185547,0.1523438
			S262.0527344,190.4648438,262.2226563,190.7832031z M262.1240234,191.0449219
			c-0.1113281-0.25-0.2382813-0.4335938-0.3818359-0.5507813c-0.1435547-0.1191406-0.3193359-0.1777344-0.5292969-0.1777344
			c-0.2402344,0-0.4423828,0.0839844-0.6054688,0.2539063c-0.1621094,0.1679688-0.2431641,0.3945313-0.2431641,0.6796875
			c0,0.3007813,0.0800781,0.5429688,0.2402344,0.7226563c0.1601563,0.1816406,0.3417969,0.2714844,0.5439453,0.2714844
			c0.2158203,0,0.4072266-0.0957031,0.5732422-0.2890625C261.828125,191.828125,261.9628906,191.5253906,262.1240234,191.0449219z
			 M262.5507813,191.4746094c0.1699219,0.3535156,0.3388672,0.5917969,0.5048828,0.7128906
			c0.1660156,0.1230469,0.3525391,0.1835938,0.5585938,0.1835938c0.2802734,0,0.5136719-0.1015625,0.7011719-0.3027344
			s0.28125-0.4707031,0.28125-0.8085938c0-0.3339844-0.0986328-0.609375-0.2958984-0.828125
			c-0.1982422-0.2167969-0.4199219-0.3261719-0.6660156-0.3261719c-0.15625,0-0.2939453,0.0390625-0.4101563,0.1191406
			c-0.1171875,0.0800781-0.2236328,0.2070313-0.3193359,0.3808594
			C262.8505859,190.7070313,262.7324219,190.9980469,262.5507813,191.4746094z"/>
	</g>
	<g>
		<path fill="#010101" d="M271.2890625,194.9296875h3.5820313v0.3320313h-3.5820313V194.9296875z M271.2890625,196.2011719
			h3.5820313v0.3378906h-3.5820313V196.2011719z"/>
	</g>
	<g>
		<path fill="#010101" d="M239.7167969,181.5898438h6.1953125v0.5722656h-6.1953125V181.5898438z M239.7167969,183.7890625
			h6.1953125v0.5820313h-6.1953125V183.7890625z"/>
		<path fill="#010101" d="M317.9023438,186.0625h-7.0800781l3.7050781-8.171875L317.9023438,186.0625z M316.5097656,185.5800781
			l-2.3535156-5.6982422l-2.5966797,5.6982422H316.5097656z"/>
	</g>
	<g>
		<path fill="#010101" d="M278.7578125,190.6386719h-11.6201172v-0.3164063l5.9208984-7.3457031l-5.9208984-7.2216797v-0.3271484
			h11.3105469l0.2382813,2.9785156h-0.3535156c-0.0947266-0.8125-0.3232422-1.3925781-0.6855469-1.7412109
			c-0.3632813-0.3476563-0.8691406-0.5214844-1.5185547-0.5214844h-6.5488281l4.9736328,6.0732422l-5.5664063,6.8671875h7.2392578
			c0.4130859,0,0.8642578-0.0800781,1.3544922-0.2382813c0.3359375-0.1132813,0.6142578-0.3105469,0.8359375-0.5976563
			c0.2216797-0.2851563,0.4052734-0.7324219,0.5527344-1.3378906l0.3544922,0.0605469L278.7578125,190.6386719z"/>
	</g>
	<g>
		<path fill="#010101" d="M193.4179688,182.0273438c0.1064453-3.2460938,0.1738281-5.0087891,0.2041016-5.2851563
			c0.1357422-1.0966797,0.3730469-1.8378906,0.7119141-2.2236328c0.3398438-0.3857422,0.7246094-0.5791016,1.1552734-0.5791016
			c0.2949219,0,0.5527344,0.0996094,0.7744141,0.296875s0.3320313,0.4140625,0.3320313,0.6494141
			c0,0.2763672-0.078125,0.4990234-0.234375,0.6669922s-0.3496094,0.2519531-0.5800781,0.2519531
			c-0.2060547,0-0.4306641-0.1054688-0.6728516-0.3183594c-0.1357422-0.1171875-0.2539063-0.1757813-0.3535156-0.1757813
			c-0.1005859,0-0.1845703,0.0419922-0.2519531,0.1269531c-0.0683594,0.0859375-0.1025391,0.2324219-0.1025391,0.4375
			c0,0.2480469,0.0263672,0.6757813,0.0800781,1.2822266c0.2177734,2.4160156,0.3271484,4.375,0.3271484,5.8779297
			c0,0.3945313-0.046875,2.1269531-0.1416016,5.1972656c-0.046875,1.7382813-0.3125,2.9140625-0.7958984,3.5273438
			c-0.3193359,0.3945313-0.7148438,0.5917969-1.1865234,0.5917969c-0.3066406,0-0.5576172-0.0996094-0.7519531-0.3007813
			c-0.1953125-0.2011719-0.2919922-0.4570313-0.2919922-0.7695313c0-0.2636719,0.0751953-0.4765625,0.2255859-0.6367188
			c0.1503906-0.1582031,0.3408203-0.2382813,0.5703125-0.2382813c0.2363281,0,0.4394531,0.09375,0.6113281,0.2832031
			c0.1708984,0.1894531,0.3154297,0.2832031,0.4335938,0.2832031c0.0996094,0,0.1826172-0.0410156,0.2480469-0.1230469
			c0.0644531-0.0839844,0.0966797-0.2226563,0.0966797-0.4160156c0-0.2480469-0.0263672-0.6015625-0.0791016-1.0605469
			C193.5273438,187.515625,193.4179688,185.0683594,193.4179688,182.0273438z"/>
	</g>
</g>
<polyline points="305.1777039,159.7539063 201.0331879,159.6855011 200.3632965,124.8632965 304.7479858,31.1436005 
	305.1777039,159.7539063 "/>
<g>
</g>
<g>
</g>
<g>
</g>
<g>
</g>
<g>
</g>
<g>
</g>
</svg>
