<?xml version="1.0" encoding="utf-8"?>
<!-- Generator: Adobe Illustrator 19.0.0, SVG Export Plug-In . SVG Version: 6.00 Build 0)  -->
<svg version="1.1" id="Layer_1" xmlns="http://www.w3.org/2000/svg" xmlns:xlink="http://www.w3.org/1999/xlink" x="0px" y="0px"
	 viewBox="0 0 87.5 113.5" enable-background="new 0 0 87.5 113.5" xml:space="preserve">
<line id="XMLID_11_" fill="none" stroke="#808285" stroke-miterlimit="10" x1="43.8732147" y1="61.3245354" x2="43.8732147" y2="47.7986946"/>
<line id="XMLID_5_" fill="none" stroke="#000000" stroke-miterlimit="10" x1="43.891304" y1="61.3245354" x2="70.1037064" y2="29.0112038"/>
<line id="XMLID_9_" fill="none" stroke="#000000" stroke-miterlimit="10" x1="17.6780148" y1="29.0112038" x2="43.8871498" y2="61.3286896"/>
<polygon id="XMLID_10_" opacity="0.57" fill="#00AEEF" points="17.5817184,28.9534245 16.870903,29.768261 16.1340828,30.4877453 
	15.46661,31.0685329 14.6084309,31.9440498 16.324789,31.8486958 56.9975052,31.8400269 73.1379929,31.822691 
	71.7770462,30.5137501 69.9913406,29.0112038 67.3301163,29.0574455 62.3023987,29.0574455 "/>
<g id="XMLID_2_">
	<g id="XMLID_26_">
		<g id="XMLID_27_">
			<polygon id="XMLID_28_" points="44.4144287,10.6884918 46.4208679,10.6884918 43.8934937,1.25 41.3617554,10.6884918 
				43.3683472,10.6884918 43.3683472,19.7158356 44.4144287,19.7158356 			"/>
		</g>
	</g>
</g>
<line id="XMLID_3_" fill="none" stroke="#000000" stroke-miterlimit="10" x1="43.891304" y1="102.9332352" x2="43.891304" y2="112"/>
<line id="XMLID_4_" fill="none" stroke="#000000" stroke-miterlimit="10" x1="43.891304" y1="61.3245354" x2="73.3089294" y2="31.906908"/>
<line id="XMLID_8_" fill="none" stroke="#000000" stroke-miterlimit="10" x1="14.4653702" y1="31.906908" x2="43.8871498" y2="61.3286896"/>
<circle id="XMLID_1_" fill="none" stroke="#000000" stroke-miterlimit="10" cx="43.891304" cy="61.3245354" r="41.608696"/>
<line id="XMLID_7_" fill="none" stroke="#000000" stroke-miterlimit="10" x1="73.3089294" y1="31.906908" x2="14.4653702" y2="31.906908"/>
<line id="XMLID_6_" fill="none" stroke="#000000" stroke-miterlimit="10" x1="70.1037064" y1="29.0112038" x2="17.6780148" y2="29.0112038"/>
<path id="XMLID_12_" fill="none" stroke="#808285" stroke-miterlimit="10" d="M43.891304,51.5914688
	c2.3241882,0,4.458107,0.8146477,6.1317902,2.1739731"/>
<g id="XMLID_15_">
	<g id="XMLID_17_">
		<path id="XMLID_32_" fill="#F26522" d="M64.675293,53.5053711c-0.2612305,0.2734375-0.5166016,0.46875-0.7661133,0.5878906
			s-0.5185547,0.1787109-0.8071289,0.1787109c-0.5849609,0-1.0957031-0.2451172-1.5327148-0.734375
			c-0.4365234-0.4892578-0.6547852-1.1191406-0.6547852-1.8867188c0-0.7685547,0.2416992-1.4716797,0.7250977-2.1098633
			c0.4833984-0.6376953,1.1054688-0.956543,1.8657227-0.956543c0.472168,0,0.8618164,0.1499023,1.1699219,0.4501953v-0.9887695
			c0-0.6123047-0.0146484-0.9887695-0.0439453-1.1289063c-0.0292969-0.140625-0.074707-0.2363281-0.137207-0.2871094
			c-0.0625-0.050293-0.140625-0.0756836-0.2338867-0.0756836c-0.1015625,0-0.2363281,0.03125-0.4038086,0.0932617
			l-0.0761719-0.2045898l1.597168-0.6552734h0.2631836v6.1962891c0,0.6279297,0.0146484,1.0117188,0.0439453,1.1494141
			c0.0292969,0.1386719,0.0761719,0.2353516,0.140625,0.2900391s0.1396484,0.0820313,0.2246094,0.0820313
			c0.1054688,0,0.2460938-0.0332031,0.421875-0.0996094l0.0644531,0.2050781l-1.5917969,0.6611328h-0.269043V53.5053711z
			 M64.675293,53.0952148v-2.7617188c-0.0234375-0.2646484-0.0932617-0.5068359-0.2104492-0.7250977
			S64.1928711,49.2250977,64,49.1137695c-0.1933594-0.1108398-0.3813477-0.1665039-0.5644531-0.1665039
			c-0.3432617,0-0.6494141,0.1538086-0.918457,0.4619141c-0.3549805,0.4057617-0.5322266,0.9985352-0.5322266,1.7788086
			c0,0.7880859,0.1713867,1.3916016,0.5146484,1.8115234c0.3432617,0.4189453,0.7250977,0.6289063,1.1464844,0.6289063
			C64.0009766,53.628418,64.34375,53.4506836,64.675293,53.0952148z"/>
	</g>
	<g id="XMLID_16_">
		<path id="XMLID_24_" fill="#F26522" d="M68.3222656,50.2822266c0.5117188-1.5366211,1.2167969-2.7207031,2.1181641-3.5517578
			c0.6806641-0.6245117,1.3505859-0.9365234,2.0087891-0.9365234c0.6396484,0,1.0849609,0.3012695,1.3369141,0.9013672
			c0.3525391,0.8383789,0.2890625,1.9799805-0.1923828,3.4228516c-0.4570313,1.3740234-1.1289063,2.4580078-2.0146484,3.2539063
			c-0.6884766,0.6152344-1.3603516,0.9238281-2.015625,0.9238281c-0.3544922,0-0.6494141-0.0859375-0.8857422-0.2568359
			c-0.234375-0.171875-0.4111328-0.4199219-0.5292969-0.7431641c-0.1181641-0.3242188-0.1777344-0.6669922-0.1767578-1.0302734
			C67.9726563,51.6416016,68.0888672,50.9804688,68.3222656,50.2822266z M69.4482422,50.2529297
			c-0.2158203,0.6943359-0.3701172,1.3183594-0.4658203,1.8730469c-0.0732422,0.4199219-0.0810547,0.7871094-0.0214844,1.0996094
			c0.0351563,0.1865234,0.125,0.3457031,0.2675781,0.4765625c0.1445313,0.1308594,0.3242188,0.1953125,0.5371094,0.1953125
			c0.25,0,0.5253906-0.1162109,0.828125-0.3505859c0.3027344-0.2333984,0.5976563-0.609375,0.8857422-1.1298828
			c0.2880859-0.5175781,0.5976563-1.2392578,0.9287109-2.1640625H69.4482422z M72.5488281,49.8666992
			c0.3359375-1.0180664,0.5097656-1.8354492,0.5234375-2.4516602c0.0107422-0.472168-0.0742188-0.8095703-0.2529297-1.012207
			c-0.1289063-0.1484375-0.3115234-0.2226563-0.5458984-0.2226563c-0.2646484,0-0.5429688,0.1040039-0.8339844,0.3105469
			s-0.5751953,0.5522461-0.8505859,1.0356445c-0.2763672,0.4838867-0.6142578,1.2636719-1.0117188,2.340332H72.5488281z"/>
	</g>
</g>
<g id="XMLID_18_">
	<g id="XMLID_19_">
		<path id="XMLID_20_" fill="#808285" d="M47.7475586,43.324707c0.5117188-1.5366211,1.2167969-2.7202148,2.1162109-3.5512695
			c0.6777344-0.6235352,1.3466797-0.9360352,2.0048828-0.9360352c0.6386719,0,1.0839844,0.300293,1.3359375,0.9008789
			c0.3525391,0.8383789,0.2861328,1.9799805-0.1933594,3.4233398c-0.4570313,1.3730469-1.1259766,2.4570313-2.0097656,3.2529297
			c-0.6884766,0.6162109-1.3598633,0.9248047-2.0141602,0.9248047c-0.3535156,0-0.6479492-0.0859375-0.8833008-0.2578125
			c-0.234375-0.1708984-0.4111328-0.4199219-0.5297852-0.7431641c-0.1176758-0.3232422-0.1762695-0.6669922-0.1772461-1.0292969
			C47.3989258,44.684082,47.5151367,44.0239258,47.7475586,43.324707z M48.8725586,43.2954102
			c-0.215332,0.6953125-0.3701172,1.3183594-0.4648438,1.8730469c-0.0737305,0.421875-0.0810547,0.7871094-0.0209961,1.0996094
			c0.034668,0.1875,0.1240234,0.3466797,0.2670898,0.4775391c0.144043,0.1308594,0.3222656,0.1953125,0.5361328,0.1953125
			c0.2490234,0,0.5253906-0.1171875,0.8271484-0.3515625c0.3017578-0.2333984,0.5957031-0.609375,0.8837891-1.1279297
			c0.2871094-0.5195313,0.5957031-1.2412109,0.9267578-2.1660156H48.8725586z M51.9672852,42.9101563
			c0.3359375-1.0185547,0.5107422-1.8359375,0.5244141-2.4521484c0.0087891-0.4716797-0.0742188-0.8095703-0.2529297-1.0126953
			c-0.1298828-0.1474609-0.3105469-0.222168-0.5449219-0.222168c-0.2646484,0-0.5429688,0.1035156-0.8330078,0.3100586
			c-0.2900391,0.2070313-0.5742188,0.5522461-0.8496094,1.0361328c-0.2763672,0.4838867-0.6132813,1.2641602-1.0102539,2.3408203
			H51.9672852z"/>
	</g>
</g>
<path id="XMLID_14_" fill="none" stroke="#F26522" stroke-miterlimit="10" d="M61.6109085,39.4807014
	c0.8474236,0.7067986,1.5007668,1.1934738,2.1845131,1.9397202"/>
<g id="XMLID_13_">
</g>
<g id="XMLID_35_">
</g>
<g id="XMLID_36_">
</g>
<g id="XMLID_37_">
</g>
<g id="XMLID_38_">
</g>
<g id="XMLID_39_">
</g>
</svg>
