<?xml version="1.0" encoding="utf-8"?>
<!-- Generator: Adobe Illustrator 19.0.0, SVG Export Plug-In . SVG Version: 6.00 Build 0)  -->
<svg version="1.1" id="Layer_1" xmlns="http://www.w3.org/2000/svg" xmlns:xlink="http://www.w3.org/1999/xlink" x="0px" y="0px"
	 viewBox="0 0 231 93.9993362" enable-background="new 0 0 231 93.9993362" xml:space="preserve">
<ellipse fill="#FFFFFF" stroke="#000000" stroke-miterlimit="10" cx="25.2967834" cy="53.4054146" rx="8.1818962" ry="19.1903534"/>
<path fill="#FFFFFF" stroke="#000000" stroke-miterlimit="10" d="M188.8938446,34.2150612
	c4.5186615,0,8.181778,8.5919228,8.181778,19.1903534s-3.6631165,19.1903496-8.181778,19.1903496"/>
<line fill="none" stroke="#000000" stroke-miterlimit="10" x1="25.296896" y1="34.2150612" x2="188.8938446" y2="34.2150612"/>
<line fill="none" stroke="#000000" stroke-miterlimit="10" x1="25.296896" y1="72.5957642" x2="188.8938446" y2="72.5957642"/>
<line fill="none" stroke="#000000" stroke-miterlimit="10" x1="25.296896" y1="79.4391327" x2="25.296896" y2="92.2328491"/>
<line fill="none" stroke="#000000" stroke-miterlimit="10" x1="188.8938446" y1="79.4391327" x2="188.8938446" y2="92.2328491"/>
<line fill="none" stroke="#000000" stroke-miterlimit="10" x1="117.0834579" y1="85.8362198" x2="188.8938446" y2="85.8362198"/>
<line fill="none" stroke="#000000" stroke-miterlimit="10" x1="25.296896" y1="85.8362198" x2="98.6370697" y2="85.8362198"/>
<polygon points="34.7600136,88.5165253 25.1700592,85.8362198 34.7600136,83.1554108 "/>
<polygon points="179.3039398,83.1558609 188.8938446,85.8362198 179.3039398,88.5169754 "/>
<line fill="none" stroke="#000000" stroke-miterlimit="10" x1="25.296896" y1="53.4054146" x2="2.2392402" y2="53.4054146"/>
<line fill="none" stroke="#000000" stroke-miterlimit="10" x1="197.0756226" y1="53.4054146" x2="219.7299805" y2="53.4054146"/>
<polygon points="219.7303772,50.7248764 229.3203278,53.4051895 219.7303772,56.0859489 "/>
<path fill="none" stroke="#000000" stroke-miterlimit="10" d="M98.6370697,34.2150612
	c4.5186539,0,8.1817856,8.5919228,8.1817856,19.1903534s-3.6631317,19.1903496-8.1817856,19.1903496"/>
<path fill="#FFFFFF" stroke="#808285" stroke-miterlimit="10" d="M90.4552841,72.5957642
	c-4.5186615,0-8.1817856-8.5919189-8.1817856-19.1903496c0-10.5982552,3.6631241-19.1901321,8.1817856-19.1901321"/>
<path fill="none" stroke="#808285" stroke-miterlimit="10" d="M98.6370697,72.5957642
	c-4.5186615,0-8.1817856-8.5919189-8.1817856-19.1903496c0-10.5982552,3.6631241-19.1901321,8.1817856-19.1901321"/>
<path fill="none" stroke="#000000" stroke-miterlimit="10" d="M90.4552841,34.2152824
	c4.5186615,0,8.1817856,8.591877,8.1817856,19.1903534c0,10.5984306-3.6631241,19.1901283-8.1817856,19.1901283"/>
<line fill="none" stroke="#000000" stroke-miterlimit="10" x1="90.4552841" y1="30.0503082" x2="90.4552841" y2="16.9591389"/>
<line fill="none" stroke="#000000" stroke-miterlimit="10" x1="99.8275375" y1="30.0503082" x2="99.8275375" y2="16.9591389"/>
<polygon points="80.8653259,20.8240318 90.4552841,23.5043888 80.8653259,26.1851463 "/>
<polygon points="109.8678894,26.1851463 100.2779312,23.5048351 109.8678894,20.8240318 "/>
<line fill="none" stroke="#000000" stroke-miterlimit="10" x1="76.02565" y1="23.504612" x2="80.8648834" y2="23.504612"/>
<line fill="none" stroke="#000000" stroke-miterlimit="10" x1="109.8678894" y1="23.504612" x2="114.7073364" y2="23.504612"/>
<rect x="-1.3304334" fill="none" width="234.7471008" height="96.1008224"/>
<g>
	<g>
		<path fill="#010101" d="M224.455246,41.069809c0.1904297,0.2036133,0.3349609,0.4072266,0.4321289,0.6108398
			c0.0698242,0.140625,0.1850586,0.5107422,0.3442383,1.1098633l0.5146484-0.7753906
			c0.1357422-0.1879883,0.3007813-0.3666992,0.4960938-0.5371094c0.1943359-0.1704102,0.3662109-0.2866211,0.5136719-0.3496094
			c0.09375-0.0390625,0.1962891-0.0585938,0.3095703-0.0585938c0.1669922,0,0.3007813,0.0449219,0.4003906,0.1352539
			c0.0986328,0.0898438,0.1484375,0.199707,0.1484375,0.3286133c0,0.1489258-0.0292969,0.2504883-0.0878906,0.3051758
			c-0.1083984,0.0981445-0.2333984,0.1469727-0.3730469,0.1469727c-0.0820313,0-0.1699219-0.0175781-0.2626953-0.0527344
			c-0.1835938-0.0625-0.3056641-0.0942383-0.3681641-0.0942383c-0.09375,0-0.2041016,0.0551758-0.3330078,0.1645508
			c-0.2412109,0.2036133-0.5292969,0.597168-0.8642578,1.1801758l0.4785156,2.0195313
			c0.0742188,0.3095703,0.1367188,0.4951172,0.1875,0.5556641c0.0498047,0.0605469,0.1005859,0.0908203,0.1513672,0.0908203
			c0.0820313,0,0.1777344-0.0449219,0.2861328-0.1347656c0.2138672-0.1806641,0.3974609-0.4150391,0.5488281-0.7050781
			l0.2050781,0.1054688c-0.2460938,0.4619141-0.5576172,0.8457031-0.9345703,1.1513672
			c-0.2138672,0.171875-0.3955078,0.2578125-0.5429688,0.2578125c-0.21875,0-0.3916016-0.1230469-0.5205078-0.3691406
			c-0.0820313-0.1533203-0.2504883-0.8105469-0.5078125-1.9726563c-0.6069336,1.0605469-1.09375,1.7431641-1.4599609,2.0488281
			c-0.2373047,0.1953125-0.4672852,0.2929688-0.6889648,0.2929688c-0.1557617,0-0.2978516-0.0566406-0.4262695-0.1699219
			c-0.0932617-0.0859375-0.1401367-0.2011719-0.1401367-0.3466797c0-0.1289063,0.0429688-0.2363281,0.128418-0.3222656
			c0.0854492-0.0869141,0.190918-0.1298828,0.3154297-0.1298828s0.2568359,0.0625,0.3969727,0.1884766
			c0.1010742,0.0898438,0.1791992,0.1347656,0.2338867,0.1347656c0.0463867,0,0.1069336-0.03125,0.1806641-0.09375
			c0.1831055-0.1494141,0.4321289-0.4697266,0.7475586-0.9628906s0.5219727-0.8496094,0.6191406-1.0688477
			c-0.2412109-0.9511719-0.3720703-1.4541016-0.3911133-1.5092773c-0.0898438-0.2543945-0.206543-0.4345703-0.3505859-0.5400391
			c-0.144043-0.105957-0.3564453-0.1586914-0.6367188-0.1586914c-0.0893555,0-0.1923828,0.0039063-0.3095703,0.0117188v-0.2114258
			L224.455246,41.069809z"/>
	</g>
</g>
<g>
	<g>
		<path fill="#010101" d="M110.5973282,88.5165863h-5.9125977l0.0820313-0.2148438
			c0.3139648-0.0078125,0.5239258-0.0332031,0.6298828-0.0761719c0.1645508-0.0693359,0.2861328-0.1611328,0.3647461-0.2734375
			c0.121582-0.1777344,0.2509766-0.5,0.3881836-0.9648438l1.4057617-4.7993164
			c0.1176758-0.3955078,0.1767578-0.6860352,0.1767578-0.8725586c0-0.1469727-0.0541992-0.2617188-0.1616211-0.3427734
			c-0.1079102-0.081543-0.3110352-0.1225586-0.6088867-0.1225586c-0.0668945,0-0.1201172-0.0014648-0.1591797-0.0053711
			l0.0708008-0.215332h3.253418l-0.046875,0.215332c-0.3652344,0-0.6240234,0.034668-0.7773438,0.1044922
			c-0.1523438,0.0698242-0.2802734,0.184082-0.3818359,0.3432617c-0.0703125,0.1044922-0.1865234,0.4301758-0.3476563,0.9770508
			l-1.3823242,4.7177734c-0.1054688,0.3564453-0.1586914,0.6044922-0.1586914,0.7441406
			c0,0.0927734,0.0532227,0.1826172,0.1586914,0.2675781c0.0668945,0.0576172,0.2177734,0.0869141,0.453125,0.0869141h0.7709961
			c0.5605469,0,1.0058594-0.0693359,1.3349609-0.2089844c0.2431641-0.1044922,0.4667969-0.2617188,0.6708984-0.4716797
			c0.109375-0.1162109,0.3037109-0.4052734,0.5820313-0.8662109l0.1533203-0.2617188h0.2177734L110.5973282,88.5165863z"/>
	</g>
</g>
<g>
	<g>
		<path fill="#010101" d="M27.0904942,56.2197113c0.5332031,0,1.0048828,0.1142578,1.4150391,0.3422852
			c0.4101563,0.2285156,0.7324219,0.565918,0.9648438,1.012207c0.2324219,0.4467773,0.3496094,0.9101563,0.3496094,1.3896484
			c0,0.8505859-0.25,1.7426758-0.7490234,2.6772461s-1.1513672,1.6464844-1.9560547,2.1386719
			c-0.8056641,0.4912109-1.6376953,0.7373047-2.4980469,0.7373047c-0.6196289,0-1.137207-0.1357422-1.5537109-0.4072266
			c-0.4165039-0.2705078-0.7241211-0.6289063-0.9233398-1.0732422c-0.1992188-0.4453125-0.2988281-0.8759766-0.2988281-1.2929688
			c0-0.7412109,0.1806641-1.4736328,0.5415039-2.1972656s0.7919922-1.3286133,1.293457-1.8139648
			c0.5009766-0.4858398,1.0356445-0.859375,1.6040039-1.1206055C25.8473301,56.3505707,26.4518223,56.2197113,27.0904942,56.2197113
			z M26.8893223,56.594223c-0.3945313,0-0.7802734,0.0966797-1.1572266,0.2895508
			c-0.3764648,0.1933594-0.7504883,0.5092773-1.1210938,0.9482422c-0.3710938,0.4384766-0.7045898,1.0131836-1.0004883,1.7231445
			c-0.362793,0.8740234-0.5444336,1.6982422-0.5444336,2.4746094c0,0.5546875,0.144043,1.0449219,0.4321289,1.4716797
			c0.2880859,0.4277344,0.7299805,0.640625,1.3256836,0.640625c0.359375,0,0.7114258-0.0878906,1.0566406-0.2626953
			c0.3457031-0.1757813,0.7050781-0.4765625,1.0800781-0.9013672c0.4697266-0.5341797,0.8642578-1.2158203,1.1835938-2.0449219
			c0.3203125-0.8291016,0.4794922-1.6025391,0.4794922-2.3203125c0-0.5302734-0.1435547-0.9995117-0.4316406-1.4072266
			C27.9039707,56.7983246,27.4694004,56.594223,26.8893223,56.594223z"/>
	</g>
</g>
<g>
	<g>
		<path fill="#010101" d="M102.317543,10.3764496l-0.6728516,2.3769531
			c-0.0449219,0.1601563-0.0673828,0.2568359-0.0673828,0.2880859c0,0.0361328,0.0107422,0.0654297,0.0322266,0.0878906
			s0.046875,0.0341797,0.0761719,0.0341797c0.0341797,0,0.0751953-0.0185547,0.1220703-0.0546875
			c0.1298828-0.1015625,0.2597656-0.2460938,0.390625-0.4335938l0.1191406,0.078125
			c-0.1542969,0.2353516-0.3349609,0.4326172-0.5429688,0.5927734c-0.1542969,0.1201172-0.3017578,0.1796875-0.4414063,0.1796875
			c-0.09375,0-0.1689453-0.0273438-0.2285156-0.0830078c-0.0585938-0.0546875-0.0878906-0.125-0.0878906-0.2080078
			c0-0.0839844,0.0283203-0.2226563,0.0849609-0.4169922l0.4414063-1.5185547
			c0.0722656-0.2490234,0.1083984-0.4052734,0.1083984-0.4677734c0-0.0498047-0.0175781-0.0908203-0.0517578-0.1220703
			c-0.0351563-0.0322266-0.0839844-0.0478516-0.1445313-0.0478516c-0.0498047,0-0.1533203,0.0126953-0.3095703,0.0371094v-0.1318359
			L102.317543,10.3764496z M102.2735977,9.0307465c0.0947266,0,0.1757813,0.0332031,0.2412109,0.0986328
			s0.0986328,0.1455078,0.0986328,0.2402344c0,0.0927734-0.0341797,0.1728516-0.1005859,0.2392578
			s-0.1464844,0.1005859-0.2392578,0.1005859s-0.1728516-0.0341797-0.2392578-0.1005859
			c-0.0673828-0.0664063-0.1005859-0.1464844-0.1005859-0.2392578c0-0.0947266,0.0332031-0.1748047,0.0986328-0.2402344
			S102.1788712,9.0307465,102.2735977,9.0307465z"/>
	</g>
	<g>
		<path fill="#010101" d="M97.7960587,5.0444179c0.1914063,0.203125,0.3369141,0.4067383,0.4345703,0.6098633
			c0.0703125,0.140625,0.1855469,0.5102539,0.3466797,1.1083984l0.5166016-0.7744141
			c0.1376953-0.1875,0.3037109-0.3662109,0.5-0.5361328c0.1953125-0.1704102,0.3681641-0.2866211,0.5166016-0.3491211
			c0.09375-0.0390625,0.1972656-0.0585938,0.3115234-0.0585938c0.1679688,0,0.3027344,0.0449219,0.4023438,0.1347656
			s0.1494141,0.1992188,0.1494141,0.3286133c0,0.1484375-0.0292969,0.25-0.0878906,0.3046875
			c-0.109375,0.0976563-0.2353516,0.1464844-0.3759766,0.1464844c-0.0820313,0-0.1699219-0.0175781-0.2646484-0.0527344
			c-0.1835938-0.0625-0.3076172-0.09375-0.3701172-0.09375c-0.09375,0-0.2050781,0.0546875-0.3349609,0.1640625
			c-0.2421875,0.2036133-0.5322266,0.5961914-0.8691406,1.1787109L99.152504,9.172348
			c0.0751953,0.3085938,0.1376953,0.4941406,0.1884766,0.5546875s0.1015625,0.0908203,0.1523438,0.0908203
			c0.0830078,0,0.1787109-0.0449219,0.2880859-0.1357422c0.2158203-0.1796875,0.3994141-0.4140625,0.5527344-0.703125
			l0.2050781,0.1054688c-0.2470703,0.4609375-0.5595703,0.8447266-0.9394531,1.1494141
			c-0.2158203,0.171875-0.3984375,0.2578125-0.546875,0.2578125c-0.2197266,0-0.3935547-0.1230469-0.5224609-0.3691406
			c-0.0830078-0.1523438-0.2529297-0.8095703-0.5117188-1.9707031c-0.6103516,1.0595703-1.1005859,1.7421875-1.46875,2.046875
			c-0.2382813,0.1953125-0.4697266,0.2929688-0.6933594,0.2929688c-0.15625,0-0.2988281-0.0566406-0.4287109-0.1699219
			c-0.09375-0.0859375-0.140625-0.2011719-0.140625-0.3457031c0-0.1289063,0.0429688-0.2363281,0.1289063-0.3232422
			c0.0864258-0.0859375,0.1923828-0.1289063,0.3173828-0.1289063s0.2587891,0.0625,0.3994141,0.1884766
			c0.1015625,0.0898438,0.1806641,0.1347656,0.2353516,0.1347656c0.046875,0,0.1074219-0.03125,0.1816406-0.09375
			c0.1845703-0.1494141,0.4345703-0.4697266,0.7519531-0.9619141c0.3173828-0.4931641,0.5253906-0.8486333,0.6230469-1.0673833
			c-0.2431641-0.949707-0.3740234-1.4521484-0.3935547-1.5068359c-0.0898438-0.2543945-0.2080078-0.434082-0.3525391-0.5395508
			s-0.3583984-0.1582031-0.640625-0.1582031c-0.0898438,0-0.1933594,0.0039063-0.3115234,0.0117188V5.3198085L97.7960587,5.0444179z
			"/>
	</g>
	<g>
		<path fill="#010101" d="M95.5773087,10.351059h-7.050293l3.6894531-8.1328125L95.5773087,10.351059z M94.1905899,9.8705902
			l-2.3442383-5.6704106l-2.5849609,5.6704106H94.1905899z"/>
	</g>
</g>
<g>
</g>
<g>
</g>
<g>
</g>
<g>
</g>
<g>
</g>
<g>
</g>
</svg>
