<?xml version="1.0" encoding="utf-8"?>
<!-- Generator: Adobe Illustrator 19.0.0, SVG Export Plug-In . SVG Version: 6.00 Build 0)  -->
<svg version="1.1" id="Layer_1" xmlns="http://www.w3.org/2000/svg" xmlns:xlink="http://www.w3.org/1999/xlink" x="0px" y="0px"
	 viewBox="0 0 149.3288116 93" style="enable-background:new 0 0 149.3288116 93;" xml:space="preserve">
<style type="text/css">
	.st0{fill:none;stroke:#000000;stroke-miterlimit:10;}
	.st1{fill:none;}
	.st2{fill:#010101;}
</style>
<line class="st0" x1="2.0322034" y1="79.0796585" x2="140.2644043" y2="79.0796585"/>
<line class="st0" x1="12.3915253" y1="91.0576248" x2="12.3915253" y2="13.0389833"/>
<polygon points="140.2644043,76.6150513 146.6998138,79.0796585 140.2644043,81.5449219 "/>
<polygon points="9.92659,13.0389833 12.391202,6.6035781 14.8564615,13.0389833 "/>
<path class="st0" d="M19.9493046,62.1281166l30.4745655-28.5719719c4.597168,2.220314,4.6687889,40.8750076,36.3621178,9.609436
	c5.7144012,6.4989738,28.3970871,40.5685349,33.245369,21.7922592"/>
<rect x="-2.5" y="-2.5" class="st1" width="151.8288116" height="95.5"/>
<g>
	<g>
		<path class="st2" d="M137.496582,68.2905273c0.1918945,0.2177734,0.3369141,0.4350586,0.4350586,0.6523438
			c0.0708008,0.1508789,0.1860352,0.5454102,0.347168,1.1860352l0.5170898-0.828125
			c0.137207-0.2011719,0.3041992-0.3920898,0.5-0.5742188c0.1962891-0.1816406,0.3686523-0.3061523,0.5175781-0.3730469
			c0.0942383-0.0419922,0.1977539-0.0629883,0.3115234-0.0629883c0.1689453,0,0.3032227,0.0483398,0.4033203,0.1445313
			c0.0996094,0.0961914,0.1499023,0.2133789,0.1499023,0.3510742c0,0.1591797-0.0297852,0.2675781-0.0883789,0.3261719
			c-0.1098633,0.1044922-0.2353516,0.1572266-0.3764648,0.1572266c-0.0820313,0-0.1704102-0.0195313-0.2646484-0.0566406
			c-0.184082-0.0664063-0.3076172-0.1005859-0.3706055-0.1005859c-0.09375,0-0.2055664,0.0585938-0.3349609,0.1757813
			c-0.2431641,0.2177734-0.5332031,0.6376953-0.8706055,1.2607422l0.4824219,2.1582031
			c0.0742188,0.3300781,0.137207,0.5283203,0.1879883,0.5927734c0.0512695,0.0644531,0.1020508,0.0966797,0.152832,0.0966797
			c0.0825195,0,0.1787109-0.0478516,0.2885742-0.1435547c0.215332-0.1923828,0.3999023-0.4433594,0.5527344-0.7529297
			l0.2055664,0.1132813c-0.246582,0.4931641-0.5605469,0.9033203-0.940918,1.2294922
			c-0.215332,0.1835938-0.3979492,0.2753906-0.546875,0.2753906c-0.2197266,0-0.394043-0.1318359-0.5234375-0.3955078
			c-0.0820313-0.1630859-0.2529297-0.8652344-0.5117188-2.1074219c-0.6113281,1.1337891-1.1015625,1.8632813-1.4702148,2.1894531
			c-0.2392578,0.2089844-0.4702148,0.3134766-0.6938477,0.3134766c-0.1567383,0-0.2998047-0.0605469-0.4291992-0.1816406
			c-0.0942383-0.0917969-0.1411133-0.2158203-0.1411133-0.3701172c0-0.1376953,0.0429688-0.2529297,0.1293945-0.3447266
			c0.0859375-0.0927734,0.1918945-0.1386719,0.3173828-0.1386719s0.2587891,0.0673828,0.3999023,0.2011719
			c0.1020508,0.0957031,0.1801758,0.1445313,0.2353516,0.1445313c0.046875,0,0.1079102-0.0341797,0.1821289-0.1005859
			c0.1845703-0.1591797,0.4355469-0.5019531,0.7529297-1.0292969c0.3173828-0.5263672,0.5253906-0.9072266,0.6235352-1.1416016
			c-0.2431641-1.015625-0.3745117-1.5537109-0.394043-1.6123047c-0.090332-0.2714844-0.2080078-0.4638672-0.3530273-0.5766602
			s-0.3588867-0.1694336-0.6411133-0.1694336c-0.090332,0-0.1938477,0.0043945-0.3115234,0.0126953v-0.2260742
			L137.496582,68.2905273z"/>
	</g>
</g>
<g>
	<g>
		<path class="st2" d="M33.1938477,16.7211914v0.3466797c-1.0444336-0.6992188-1.8579102-1.7255859-2.4399414-3.0786133
			c-0.5825195-1.3530273-0.8735352-2.8339844-0.8735352-4.4428711c0-1.6728516,0.3061523-3.1967773,0.918457-4.5717773
			c0.6123047-1.3745117,1.4106445-2.3579102,2.3950195-2.949707v0.3388672
			c-0.4921875,0.3662109-0.8964844,0.8666992-1.2124023,1.5014648C31.6650391,4.5,31.4291992,5.3056641,31.2729492,6.2822266
			s-0.2338867,1.9946289-0.2338867,3.0546875c0,1.199707,0.0717773,2.2836914,0.2158203,3.2519531
			c0.144043,0.96875,0.3642578,1.7714844,0.6606445,2.4091797C32.2114258,15.6357422,32.6376953,16.2099609,33.1938477,16.7211914z"
			/>
	</g>
	<g>
		<path class="st2" d="M41.8745117,2.3637695V2.0249023c1.0449219,0.6943359,1.8579102,1.7177734,2.4404297,3.0708008
			s0.8735352,2.8339844,0.8735352,4.4428711c0,1.6733398-0.3061523,3.1987305-0.918457,4.5756836
			c-0.6123047,1.3774414-1.4106445,2.3618164-2.3955078,2.9536133v-0.3466797
			c0.4960938-0.3662109,0.9023438-0.8666992,1.21875-1.5014648c0.315918-0.6347656,0.5512695-1.4389648,0.7055664-2.4125977
			c0.1538086-0.9741211,0.230957-1.9936523,0.230957-3.059082c0-1.1943359-0.0712891-2.2768555-0.2128906-3.2480469
			c-0.1420898-0.9711914-0.3623047-1.7753906-0.6606445-2.4130859S42.4306641,2.875,41.8745117,2.3637695z"/>
	</g>
	<g>
		<path class="st2" d="M25.4682617,7.1499023l-0.109375,0.4067383h-0.8881836l-0.6694336,2.6918945
			c-0.2958984,1.1875-0.5942383,2.1054688-0.8945313,2.7543945c-0.4257813,0.9155273-0.8837891,1.5483398-1.3745117,1.8974609
			c-0.3735352,0.2670898-0.746582,0.4003906-1.1196289,0.4003906c-0.2431641,0-0.4501953-0.0737305-0.6206055-0.2216797
			c-0.1254883-0.1030273-0.1884766-0.2363281-0.1884766-0.4003906c0-0.1318359,0.0517578-0.2456055,0.1552734-0.3422852
			c0.1030273-0.0961914,0.2299805-0.1445313,0.3798828-0.1445313c0.1098633,0,0.2021484,0.034668,0.2768555,0.1044922
			c0.0751953,0.0698242,0.112793,0.1499023,0.112793,0.2402344s-0.0424805,0.1748047-0.1279297,0.2529297
			c-0.0649414,0.0571289-0.097168,0.1005859-0.097168,0.1293945c0,0.0366211,0.0141602,0.0654297,0.0424805,0.0859375
			c0.0366211,0.0288086,0.0932617,0.043457,0.1704102,0.043457c0.1743164,0,0.3579102-0.0556641,0.550293-0.1665039
			c0.1928711-0.1108398,0.3642578-0.2763672,0.5141602-0.4960938c0.1503906-0.2197266,0.2919922-0.5371094,0.4257813-0.9516602
			c0.0571289-0.1723633,0.2089844-0.7416992,0.456543-1.706543l1.0585938-4.1708984h-1.0585938l0.0849609-0.4067383
			c0.3369141,0,0.5722656-0.0239258,0.7060547-0.0708008c0.1337891-0.0473633,0.2563477-0.1376953,0.3676758-0.2714844
			c0.1118164-0.1333008,0.2568359-0.3828125,0.4350586-0.7485352c0.2392578-0.4926758,0.46875-0.8745117,0.6875-1.1459961
			c0.300293-0.3652344,0.6157227-0.6396484,0.9462891-0.8222656s0.6416016-0.2739258,0.9335938-0.2739258
			c0.3081055,0,0.5556641,0.0791016,0.7421875,0.2368164c0.1865234,0.1582031,0.2797852,0.3295898,0.2797852,0.5146484
			c0,0.1435547-0.0463867,0.2646484-0.1396484,0.3632813s-0.2128906,0.1479492-0.3588867,0.1479492
			c-0.1259766,0-0.2280273-0.0371094-0.3071289-0.1108398s-0.1186523-0.1621094-0.1186523-0.2651367
			c0-0.0654297,0.0263672-0.1464844,0.0791016-0.2431641c0.0522461-0.0961914,0.0791016-0.1611328,0.0791016-0.1938477
			c0-0.0576172-0.0185547-0.1005859-0.0551758-0.1293945c-0.0527344-0.0410156-0.1298828-0.0620117-0.230957-0.0620117
			c-0.2553711,0-0.4848633,0.0825195-0.6875,0.246582c-0.2719727,0.2177734-0.5151367,0.5585938-0.7299805,1.0229492
			c-0.109375,0.2421875-0.3105469,0.84375-0.6025391,1.8051758H25.4682617z"/>
		<path class="st2" d="M37.2646484,7.0019531c0.1987305,0.2133789,0.3486328,0.4272461,0.4501953,0.640625
			c0.0732422,0.1479492,0.1928711,0.5361328,0.3588867,1.1645508l0.5356445-0.8134766
			c0.1416016-0.1967773,0.3139648-0.3847656,0.5170898-0.5634766c0.2026367-0.1787109,0.3808594-0.3007813,0.5351563-0.3666992
			c0.0976563-0.0410156,0.2050781-0.0615234,0.3227539-0.0615234c0.1743164,0,0.3129883,0.0473633,0.4165039,0.1416016
			c0.1035156,0.0947266,0.1552734,0.2094727,0.1552734,0.3452148c0,0.1557617-0.0307617,0.2626953-0.0913086,0.3203125
			c-0.1137695,0.1025391-0.2436523,0.1538086-0.3896484,0.1538086c-0.0849609,0-0.1762695-0.0185547-0.2734375-0.0551758
			c-0.190918-0.065918-0.3183594-0.0986328-0.3833008-0.0986328c-0.0976563,0-0.2128906,0.0576172-0.3466797,0.1723633
			c-0.2514648,0.2138672-0.5517578,0.6264648-0.9003906,1.2382813l0.4985352,2.1196289
			c0.0771484,0.3242188,0.1420898,0.5185547,0.1948242,0.5820313c0.0527344,0.0639648,0.1054688,0.0957031,0.1582031,0.0957031
			c0.0849609,0,0.1845703-0.0473633,0.2978516-0.1416016c0.2231445-0.1889648,0.4140625-0.4355469,0.5722656-0.7397461
			l0.2128906,0.1113281c-0.2558594,0.484375-0.5800781,0.887207-0.9736328,1.2075195
			c-0.2231445,0.1806641-0.4116211,0.2709961-0.565918,0.2709961c-0.2270508,0-0.4072266-0.1293945-0.5410156-0.3881836
			c-0.0854492-0.1601563-0.2617188-0.8500977-0.5292969-2.0703125c-0.6328125,1.1132813-1.1401367,1.8300781-1.5209961,2.1503906
			c-0.2475586,0.2050781-0.4868164,0.3081055-0.7182617,0.3081055c-0.1621094,0-0.3100586-0.0595703-0.4438477-0.1787109
			c-0.097168-0.090332-0.1459961-0.2114258-0.1459961-0.3637695c0-0.1352539,0.0444336-0.2480469,0.1337891-0.3388672
			c0.0893555-0.0898438,0.1987305-0.1352539,0.3286133-0.1352539s0.2675781,0.065918,0.4135742,0.1972656
			c0.1054688,0.0942383,0.1865234,0.1416016,0.2431641,0.1416016c0.0488281,0,0.1118164-0.0327148,0.1889648-0.0986328
			c0.1904297-0.15625,0.4501953-0.4926758,0.7788086-1.0102539c0.328125-0.5175781,0.543457-0.8916016,0.6445313-1.121582
			c-0.2514648-0.9980469-0.387207-1.5258789-0.4077148-1.5834961c-0.0932617-0.2666016-0.2148438-0.4555664-0.3647461-0.5664063
			c-0.1503906-0.1108398-0.3710938-0.1665039-0.6630859-0.1665039c-0.0932617,0-0.2006836,0.0039063-0.3227539,0.012207V7.2915039
			L37.2646484,7.0019531z"/>
	</g>
</g>
<polygon points="89.4563599,33.7971268 86.9917526,40.2325249 84.5264893,33.7971268 "/>
<line class="st0" x1="86.9914246" y1="36.9756508" x2="86.9914246" y2="30.3584747"/>
<polygon points="53.2628517,23.9230728 50.7982407,30.3584747 48.3329773,23.9230747 "/>
<line class="st0" x1="50.7979126" y1="27.1015987" x2="50.7979126" y2="20.4844227"/>
<g>
</g>
<g>
</g>
<g>
</g>
<g>
</g>
<g>
</g>
<g>
</g>
</svg>
