<?xml version="1.0" encoding="utf-8"?>
<!-- Generator: Adobe Illustrator 19.0.0, SVG Export Plug-In . SVG Version: 6.00 Build 0)  -->
<svg version="1.1" id="Layer_1" xmlns="http://www.w3.org/2000/svg" xmlns:xlink="http://www.w3.org/1999/xlink" x="0px" y="0px"
	 viewBox="-56.5 287 160.75 94.75" style="enable-background:new -56.5 287 160.75 94.75;" xml:space="preserve">
<style type="text/css">
	.st0{enable-background:new    ;}
	.st1{fill:#262626;}
	.st2{fill:none;stroke:#0072BD;stroke-linejoin:round;stroke-miterlimit:10;}
	.st3{fill:#414141;}
	.st4{fill:none;stroke:#000000;stroke-width:0;stroke-linecap:square;stroke-miterlimit:10;}
	.st5{fill-rule:evenodd;clip-rule:evenodd;}
	.st6{fill:none;stroke:#262626;stroke-miterlimit:10;stroke-dasharray:3,2.5;}
</style>
<g transform="translate(223.1677,210.6667)">
	<g class="st0">
		<path class="st1" d="M-203.6491394,136.9255829c0,2.7446289-1.0185547,4.2602539-2.8071289,4.2602539
			c-1.5776367,0-2.6455078-1.4780273-2.6704102-4.1484375c0-2.7080078,1.1674805-4.1982422,2.8071289-4.1982422
			C-204.6178894,132.8391571-203.6491394,134.3542938-203.6491394,136.9255829z M-208.033905,137.0496063
			c0,2.0991211,0.6459961,3.2915039,1.6396484,3.2915039c1.1176758,0,1.6518555-1.3041992,1.6518555-3.3657227
			c0-1.9873047-0.5092773-3.2915039-1.6396484-3.2915039C-207.3381042,133.6838837-208.033905,134.8513641-208.033905,137.0496063z"
			/>
	</g>
</g>
<path class="st2" d="M-50.5176163,366.6575012l1.5125313-0.3977051l1.5125809-0.3944702l1.5125313-0.3909607l1.5125313-0.3872375
	l1.5125351-0.3833008l1.5125771-0.3790588l1.5125313-0.3745422l1.5125313-0.3696594l1.5125351-0.3644714l1.5125771-0.3588257
	l1.5125313-0.3527832l1.5125351-0.3462524l1.5125332-0.3392029l1.5125771-0.331543l1.5125332-0.3231812l1.5125313-0.3140564
	l1.5125332-0.3041687l1.512579-0.2932739l1.5125313-0.2813721l1.5125332-0.268219l1.5125313-0.2536926l1.5125828-0.2375793
	l1.5125265-0.2196045l1.5125341-0.1995544l1.5125828-0.177063l1.5125265-0.1516724l1.5125341-0.1228943l1.5125341-0.0901489
	l1.5125761-0.0525208l1.5125337-0.0091553l1.5125341,0.0411987l1.5125339,0.1002808l1.5125759,0.1700134l1.5125339,0.2533264
	l1.5125339,0.3537903l1.512527,0.4766541l1.5125833,0.6289673l1.5125337,0.8209839l1.5125265,1.0679321l1.5125341,1.3928223
	l1.5125828,1.8323975l1.5125275,2.4477539l1.5125341,3.347168l1.5125332,4.7372131l0.1803303,0.8409729"/>
<path class="st2" d="M30.7820148,292.978302l0.3777695,2.8362122l1.5125256,7.053894l1.5125847,4.7371826l1.5125275,3.347229
	l1.5125351,2.4477539l1.5125313,1.8323975l1.5125847,1.3928223l1.5125275,1.0679016l1.5125389,0.8210144l1.5125275,0.6289673
	l1.5125847,0.4766235l1.5125237,0.3538208l1.5125275,0.2532959l1.5125427,0.1700439l1.5125694,0.1002502l1.5125389,0.0411987
	l1.5125275-0.0091248l1.5125427-0.0525208l1.5125694-0.0901489l1.5125389-0.1228943l1.5125275-0.1516724l1.5125389-0.177063
	l1.5125694-0.1995544l1.5125427-0.2196045l1.5125275-0.2375793l1.5125275-0.2536926l1.5125809-0.268219l1.5125275-0.2813721
	l1.5125427-0.2932739l1.5125809-0.3041687l1.5125275-0.3141174l1.5125275-0.3231812l1.5125427-0.3315125l1.5125656-0.3391724
	l1.5125427-0.3462524l1.5125275-0.3527832l1.5125427-0.3588257l1.5125656-0.3644714l1.5125427-0.3696899l1.5125275-0.3745422
	l1.5125275-0.3790283l1.5125809-0.3833008l1.5125427-0.3872681l1.5125275-0.3909302l1.5125809-0.3944702l1.5125275-0.3977051"/>
<g>
	<g>
		<g>
			<polygon class="st3" points="92.5615082,339.8872681 92.5615082,341.8936768 102,339.3663025 92.5615082,336.8345947 
				92.5615082,338.8411865 -52.5277672,338.8411865 -52.5277672,339.8872681 			"/>
		</g>
	</g>
</g>
<g>
	<g>
		<g>
			<polygon class="st3" points="24.8764496,298.9484863 26.8828888,298.9484863 24.3555145,289.5099792 21.8237839,298.9484863 
				23.8303833,298.9484863 23.8303833,379 24.8764496,379 			"/>
		</g>
	</g>
</g>
<g>
	<line class="st4" x1="44.3235855" y1="354.0925598" x2="45.5503883" y2="353.404541"/>
	<line class="st4" x1="45.5503883" y1="353.404541" x2="48.4758492" y2="358.1893311"/>
	<line class="st4" x1="48.4758492" y1="358.1893311" x2="51.6844139" y2="345.5236816"/>
	<line class="st4" x1="51.6844139" y1="345.5236816" x2="59.0137863" y2="345.5236816"/>
	<polygon class="st5" points="44.2292137,353.9361877 45.8964119,353.0292664 48.5073051,356.9384155 51.4642181,345.2422485 
		59.0137863,345.2422485 59.0137863,345.8364258 51.9046097,345.8364258 48.7904129,358.1893311 48.1927376,358.1893311 
		45.2358246,353.7798157 44.4179535,354.2801819 	"/>
	<g>
		<path d="M57.8789063,351.7485352l-1.1503906,3.9755859l-0.1298828,0.5332031
			c-0.0117188,0.0507813-0.0175781,0.09375-0.0175781,0.1289063c0,0.0634766,0.0195313,0.1181641,0.0595703,0.1650391
			c0.03125,0.0351563,0.0703125,0.0527344,0.1181641,0.0527344c0.0507813,0,0.1171875-0.03125,0.2001953-0.09375
			c0.1533203-0.1132813,0.3574219-0.3486328,0.6132813-0.7041016l0.2001953,0.140625
			c-0.2705078,0.4072266-0.5498047,0.7167969-0.8369141,0.9296875s-0.5527344,0.3193359-0.796875,0.3193359
			c-0.1689453,0-0.2958984-0.0419922-0.3798828-0.1259766c-0.0849609-0.0839844-0.1269531-0.2060547-0.1269531-0.3662109
			c0-0.1914063,0.0429688-0.4443359,0.1298828-0.7568359l0.1240234-0.4394531
			c-0.515625,0.6679688-0.9892578,1.1357422-1.421875,1.4013672c-0.3105469,0.1914063-0.6152344,0.2871094-0.9140625,0.2871094
			c-0.2871094,0-0.5351563-0.1181641-0.7431641-0.3544922s-0.3125-0.5625-0.3125-0.9765625
			c0-0.6210938,0.1875-1.2773438,0.5634766-1.9667969c0.375-0.6904297,0.8515625-1.2421875,1.4296875-1.6572266
			c0.4521484-0.328125,0.8789063-0.4921875,1.2802734-0.4921875c0.2392578,0,0.4394531,0.0625,0.5986328,0.1875
			s0.2802734,0.3320313,0.3623047,0.6220703l0.2128906-0.6689453L57.8789063,351.7485352z M55.7792969,352.0532227
			c-0.2519531,0-0.5195313,0.1171875-0.8017578,0.3515625c-0.4013672,0.3330078-0.7587891,0.8251953-1.0712891,1.4785156
			c-0.3125,0.6523438-0.46875,1.2431641-0.46875,1.7705078c0,0.265625,0.0673828,0.4755859,0.2011719,0.6298828
			c0.1328125,0.1552734,0.2861328,0.2324219,0.4599609,0.2324219c0.4287109,0,0.8945313-0.3154297,1.3974609-0.9443359
			c0.6728516-0.8369141,1.0087891-1.6943359,1.0087891-2.5742188c0-0.3320313-0.0654297-0.5722656-0.1943359-0.7216797
			C56.1806641,352.1274414,56.0029297,352.0532227,55.7792969,352.0532227z"/>
	</g>
</g>
<line class="st6" x1="54.3019409" y1="339.3641357" x2="54.3019409" y2="320.5389099"/>
<g>
	<g>
		<path d="M-42.5175781,300.0673828v0.2148438c-0.5893555-0.2939453-1.081543-0.6386719-1.4755859-1.0332031
			c-0.5625-0.5615234-0.9956055-1.2246094-1.300293-1.9873047s-0.456543-1.5546875-0.456543-2.375
			c0-1.2011719,0.2983398-2.2958984,0.8959961-3.2856445c0.597168-0.9892578,1.3759766-1.6972656,2.3364258-2.1230469v0.2436523
			c-0.4799805,0.2636719-0.8745117,0.6235352-1.1831055,1.0805664c-0.3081055,0.4570313-0.5385742,1.0361328-0.690918,1.7368164
			c-0.1523438,0.7011719-0.2285156,1.4331055-0.2285156,2.1958008c0,0.8295898,0.0644531,1.5825195,0.1933594,2.2602539
			c0.1015625,0.5341797,0.2246094,0.9628906,0.3691406,1.2861328s0.3383789,0.6337891,0.5825195,0.9326172
			C-43.230957,299.5117188-42.9116211,299.796875-42.5175781,300.0673828z"/>
		<path d="M-35.4897461,289.7216797v-0.2436523c0.5932617,0.2900391,1.0874023,0.6328125,1.4814453,1.027832
			c0.5585938,0.5654297,0.9897461,1.2290039,1.2944336,1.9897461c0.3046875,0.7612305,0.4570313,1.5537109,0.4570313,2.3793945
			c0,1.2001953-0.2978516,2.2949219-0.8935547,3.2841797c-0.5952148,0.9892578-1.375,1.6972656-2.3393555,2.1230469v-0.2148438
			c0.4799805-0.2666016,0.8754883-0.6279297,1.1860352-1.0830078c0.3100586-0.4550781,0.5405273-1.0341797,0.690918-1.7373047
			c0.1503906-0.7021484,0.2255859-1.4355469,0.2255859-2.1982422c0-0.8251953-0.0644531-1.578125-0.1933594-2.2597656
			c-0.0976563-0.534668-0.2197266-0.9624023-0.3662109-1.2836914c-0.1464844-0.3217773-0.3408203-0.6313477-0.5825195-0.9296875
			C-34.7714844,290.277832-35.0917969,289.9931641-35.4897461,289.7216797z"/>
		<path d="M9.0185547,289.4780273l-2.875,8.4233398h-0.46875l2.8759766-8.4233398H9.0185547z"/>
	</g>
	<g>
		<path d="M-48.875,292.6206055l-0.1049805,0.3833008h-0.8554688l-0.644043,2.5390625
			c-0.2851563,1.1191406-0.5717773,1.984375-0.8608398,2.5957031c-0.4101563,0.8642578-0.8510742,1.4599609-1.3237305,1.7900391
			c-0.3588867,0.2509766-0.7182617,0.3769531-1.0776367,0.3769531c-0.2338867,0-0.4331055-0.0693359-0.597168-0.2089844
			C-54.4599609,300-54.5205078,299.8740234-54.5205078,299.71875c0-0.1240234,0.0498047-0.2314453,0.1494141-0.3222656
			s0.2216797-0.1367188,0.3662109-0.1367188c0.1049805,0,0.1938477,0.0332031,0.2661133,0.0996094
			c0.0722656,0.0654297,0.1083984,0.140625,0.1083984,0.2265625c0,0.0849609-0.0410156,0.1640625-0.1230469,0.2373047
			c-0.0625,0.0546875-0.09375,0.0957031-0.09375,0.1220703c0,0.0351563,0.0141602,0.0625,0.0410156,0.0820313
			c0.0351563,0.0263672,0.0898438,0.0400391,0.1640625,0.0400391c0.1679688,0,0.3447266-0.0517578,0.5302734-0.15625
			s0.3500977-0.2607422,0.4946289-0.4677734s0.28125-0.5068359,0.4101563-0.8974609
			c0.0546875-0.1630859,0.2011719-0.6992188,0.4389648-1.609375l1.019043-3.9326172h-1.019043l0.0820313-0.3833008
			c0.3242188,0,0.5507813-0.0224609,0.6796875-0.0668945c0.128418-0.0444336,0.246582-0.1298828,0.3540039-0.2553711
			c0.1074219-0.1259766,0.2470703-0.3613281,0.4189453-0.7060547c0.2304688-0.4648438,0.4506836-0.824707,0.6616211-1.0805664
			c0.2890625-0.3447266,0.5922852-0.6030273,0.9106445-0.7753906s0.6181641-0.2583008,0.8989258-0.2583008
			c0.296875,0,0.5351563,0.0742188,0.7148438,0.2236328c0.1791992,0.1489258,0.269043,0.3105469,0.269043,0.4848633
			c0,0.1357422-0.0449219,0.25-0.1342773,0.3427734c-0.090332,0.0927734-0.2050781,0.1391602-0.3457031,0.1391602
			c-0.1210938,0-0.2197266-0.034668-0.2958984-0.1044922c-0.0761719-0.0693359-0.1142578-0.152832-0.1142578-0.2495117
			c0-0.0620117,0.0253906-0.1386719,0.0761719-0.2294922s0.0761719-0.1518555,0.0761719-0.1831055
			c0-0.0541992-0.0175781-0.0947266-0.0527344-0.1220703c-0.0507813-0.0385742-0.125-0.0581055-0.2226563-0.0581055
			c-0.2456055,0-0.4663086,0.0776367-0.6616211,0.2324219c-0.2617188,0.2055664-0.4960938,0.5268555-0.7026367,0.9643555
			c-0.1054688,0.2285156-0.2988281,0.7958984-0.5800781,1.7021484H-48.875z"/>
		<path d="M-39.2939453,292.480957c0.1914063,0.2016602,0.3359375,0.402832,0.4335938,0.6044922
			c0.0698242,0.1391602,0.1850586,0.5053711,0.3452148,1.0976563l0.515625-0.7666016
			c0.1362305-0.1860352,0.3022461-0.3632813,0.4975586-0.5317383s0.3671875-0.2836914,0.515625-0.3457031
			c0.09375-0.0385742,0.1967773-0.0581055,0.3100586-0.0581055c0.1679688,0,0.3017578,0.0449219,0.4013672,0.1337891
			s0.1494141,0.1972656,0.1494141,0.3251953c0,0.1474609-0.0292969,0.2480469-0.0878906,0.3022461
			c-0.109375,0.0966797-0.234375,0.1450195-0.375,0.1450195c-0.0820313,0-0.1699219-0.0170898-0.2631836-0.0522461
			c-0.1835938-0.0620117-0.3066406-0.0927734-0.3691406-0.0927734c-0.09375,0-0.2050781,0.0541992-0.3339844,0.1625977
			c-0.2421875,0.2011719-0.5307617,0.5908203-0.8666992,1.1674805l0.4804688,1.9980469
			c0.0737305,0.3066406,0.1362305,0.4892578,0.1870117,0.5488281c0.0507813,0.0605469,0.1015625,0.0908203,0.1523438,0.0908203
			c0.0820313,0,0.1777344-0.0449219,0.2871094-0.1337891c0.2148438-0.1777344,0.3984375-0.4101563,0.550293-0.6972656
			l0.2050781,0.1044922c-0.2460938,0.4570313-0.5581055,0.8369141-0.9370117,1.1386719
			c-0.2148438,0.1699219-0.3964844,0.2558594-0.5444336,0.2558594c-0.21875,0-0.3925781-0.1220703-0.5214844-0.3662109
			c-0.0820313-0.1513672-0.2519531-0.8017578-0.5092773-1.9511719c-0.609375,1.0488281-1.097168,1.7246094-1.4643555,2.0263672
			c-0.2382813,0.1943359-0.4682617,0.2910156-0.690918,0.2910156c-0.15625,0-0.2988281-0.0566406-0.4277344-0.1689453
			c-0.09375-0.0849609-0.140625-0.1992188-0.140625-0.3427734c0-0.1279297,0.043457-0.234375,0.1289063-0.3193359
			c0.0859375-0.0849609,0.1914063-0.1279297,0.3164063-0.1279297s0.2578125,0.0625,0.3984375,0.1865234
			c0.1010742,0.0888672,0.1791992,0.1328125,0.2338867,0.1328125c0.046875,0,0.1074219-0.0302734,0.1816406-0.0927734
			c0.1835938-0.1464844,0.4335938-0.4648438,0.7495117-0.9521484c0.3164063-0.4882813,0.5234375-0.8408203,0.6210938-1.0576172
			c-0.2421875-0.940918-0.3730469-1.4384766-0.3925781-1.4926758c-0.0898438-0.2519531-0.2070313-0.4301758-0.3510742-0.534668
			c-0.1445313-0.1044922-0.3574219-0.1567383-0.6386719-0.1567383c-0.0898438,0-0.1933594,0.0039063-0.3105469,0.0117188v-0.2094727
			L-39.2939453,292.480957z"/>
		<path d="M-16.9980469,292.480957c0.1914063,0.2016602,0.3359375,0.402832,0.4335938,0.6044922
			c0.0703125,0.1391602,0.1855469,0.5053711,0.3457031,1.0976563l0.5146484-0.7666016
			c0.1367188-0.1860352,0.3027344-0.3632813,0.4980469-0.5317383s0.3671875-0.2836914,0.515625-0.3457031
			c0.09375-0.0385742,0.1972656-0.0581055,0.3105469-0.0581055c0.1679688,0,0.3017578,0.0449219,0.4003906,0.1337891
			c0.0996094,0.0888672,0.1494141,0.1972656,0.1494141,0.3251953c0,0.1474609-0.0292969,0.2480469-0.0878906,0.3022461
			c-0.109375,0.0966797-0.2333984,0.1450195-0.3740234,0.1450195c-0.0820313,0-0.1699219-0.0170898-0.2636719-0.0522461
			c-0.1835938-0.0620117-0.3066406-0.0927734-0.3691406-0.0927734c-0.09375,0-0.2050781,0.0541992-0.3339844,0.1625977
			c-0.2421875,0.2011719-0.53125,0.5908203-0.8662109,1.1674805l0.4794922,1.9980469
			c0.0742188,0.3066406,0.1367188,0.4892578,0.1875,0.5488281c0.0507813,0.0605469,0.1015625,0.0908203,0.1523438,0.0908203
			c0.0820313,0,0.1777344-0.0449219,0.2871094-0.1337891c0.2148438-0.1777344,0.3984375-0.4101563,0.5507813-0.6972656
			l0.2050781,0.1044922c-0.2460938,0.4570313-0.5585938,0.8369141-0.9375,1.1386719
			c-0.2148438,0.1699219-0.3964844,0.2558594-0.5449219,0.2558594c-0.21875,0-0.3916016-0.1220703-0.5205078-0.3662109
			c-0.0820313-0.1513672-0.2519531-0.8017578-0.5097656-1.9511719c-0.609375,1.0488281-1.0976563,1.7246094-1.4648438,2.0263672
			c-0.2382813,0.1943359-0.4677734,0.2910156-0.6904297,0.2910156c-0.15625,0-0.2988281-0.0566406-0.4277344-0.1689453
			c-0.09375-0.0849609-0.140625-0.1992188-0.140625-0.3427734c0-0.1279297,0.043457-0.234375,0.1289063-0.3193359
			c0.0859375-0.0849609,0.1914063-0.1279297,0.3164063-0.1279297s0.2578125,0.0625,0.3984375,0.1865234
			c0.1010742,0.0888672,0.1787109,0.1328125,0.2333984,0.1328125c0.046875,0,0.1074219-0.0302734,0.1816406-0.0927734
			c0.1835938-0.1464844,0.4335938-0.4648438,0.75-0.9521484c0.3164063-0.4882813,0.5234375-0.8408203,0.6210938-1.0576172
			c-0.2421875-0.940918-0.3730469-1.4384766-0.3925781-1.4926758c-0.0898438-0.2519531-0.2070313-0.4301758-0.3515625-0.534668
			s-0.3574219-0.1567383-0.6386719-0.1567383c-0.0898438,0-0.1933594,0.0039063-0.3100586,0.0117188v-0.2094727
			L-16.9980469,292.480957z"/>
		<path d="M2.8486328,292.480957l-1.1416016,3.9389648l-0.1289063,0.5283203
			c-0.0117188,0.0507813-0.0175781,0.0927734-0.0175781,0.1279297c0,0.0615234,0.0195313,0.1162109,0.0585938,0.1621094
			c0.03125,0.0351563,0.0703125,0.0527344,0.1171875,0.0527344c0.0507813,0,0.1171875-0.03125,0.1992188-0.0927734
			c0.1523438-0.1123047,0.3544922-0.3447266,0.6083984-0.6972656l0.1992188,0.1396484
			c-0.2695313,0.4023438-0.546875,0.7089844-0.8310547,0.9208984c-0.2851563,0.2109375-0.5488281,0.3164063-0.7910156,0.3164063
			c-0.1679688,0-0.2939453-0.0419922-0.3779297-0.125s-0.1259766-0.2041016-0.1259766-0.3632813
			c0-0.1894531,0.0429688-0.4394531,0.1289063-0.7490234l0.1230469-0.4355469
			c-0.5117188,0.6621094-0.9814453,1.125-1.4111328,1.3876953c-0.3085938,0.1904297-0.6113281,0.2851563-0.9082031,0.2851563
			c-0.2851563,0-0.5302734-0.1171875-0.7373047-0.3515625s-0.3105469-0.5566406-0.3105469-0.9677734
			c0-0.6152344,0.1865234-1.265625,0.5595703-1.9482422c0.3720703-0.6835938,0.8457031-1.230957,1.4199219-1.6411133
			c0.4492188-0.3256836,0.8720703-0.4882813,1.2705078-0.4882813c0.2382813,0,0.4365234,0.0620117,0.5947266,0.1860352
			s0.2783203,0.3291016,0.3603516,0.6157227l0.2109375-0.6621094L2.8486328,292.480957z M0.7636719,292.7832031
			c-0.25,0-0.515625,0.1162109-0.7958984,0.3486328c-0.3984375,0.3291016-0.7529297,0.8168945-1.0634766,1.4638672
			c-0.3105469,0.6464844-0.4658203,1.2314453-0.4658203,1.7539063c0,0.2636719,0.0664063,0.4716797,0.1992188,0.625
			c0.1328125,0.1523438,0.2851563,0.2294922,0.4570313,0.2294922c0.4257813,0,0.8886719-0.3115234,1.3876953-0.9355469
			c0.6679688-0.8291016,1.0019531-1.6787109,1.0019531-2.550293c0-0.3291016-0.0644531-0.5668945-0.1933594-0.7143555
			C1.1621094,292.8569336,0.9863281,292.7832031,0.7636719,292.7832031z"/>
		<path d="M14.1015625,292.480957c0.1914063,0.2016602,0.3359375,0.402832,0.4335938,0.6044922
			c0.0703125,0.1391602,0.1855469,0.5053711,0.3457031,1.0976563l0.5146484-0.7666016
			c0.1367188-0.1860352,0.3027344-0.3632813,0.4980469-0.5317383s0.3671875-0.2836914,0.515625-0.3457031
			c0.09375-0.0385742,0.1972656-0.0581055,0.3105469-0.0581055c0.1679688,0,0.3017578,0.0449219,0.4003906,0.1337891
			c0.0996094,0.0888672,0.1494141,0.1972656,0.1494141,0.3251953c0,0.1474609-0.0292969,0.2480469-0.0878906,0.3022461
			c-0.109375,0.0966797-0.2333984,0.1450195-0.3740234,0.1450195c-0.0820313,0-0.1699219-0.0170898-0.2636719-0.0522461
			c-0.1835938-0.0620117-0.3066406-0.0927734-0.3691406-0.0927734c-0.09375,0-0.2050781,0.0541992-0.3339844,0.1625977
			c-0.2421875,0.2011719-0.53125,0.5908203-0.8662109,1.1674805l0.4794922,1.9980469
			c0.0742188,0.3066406,0.1367188,0.4892578,0.1875,0.5488281c0.0507813,0.0605469,0.1015625,0.0908203,0.1523438,0.0908203
			c0.0820313,0,0.1777344-0.0449219,0.2871094-0.1337891c0.2148438-0.1777344,0.3984375-0.4101563,0.5507813-0.6972656
			l0.2050781,0.1044922c-0.2460938,0.4570313-0.5585938,0.8369141-0.9375,1.1386719
			c-0.2148438,0.1699219-0.3964844,0.2558594-0.5449219,0.2558594c-0.21875,0-0.3916016-0.1220703-0.5205078-0.3662109
			c-0.0820313-0.1513672-0.2519531-0.8017578-0.5097656-1.9511719c-0.609375,1.0488281-1.0976563,1.7246094-1.4638672,2.0263672
			c-0.2382813,0.1943359-0.46875,0.2910156-0.6914063,0.2910156c-0.15625,0-0.2988281-0.0566406-0.4277344-0.1689453
			c-0.09375-0.0849609-0.140625-0.1992188-0.140625-0.3427734c0-0.1279297,0.0429688-0.234375,0.1289063-0.3193359
			s0.1914063-0.1279297,0.3164063-0.1279297s0.2578125,0.0625,0.3984375,0.1865234
			c0.1015625,0.0888672,0.1796875,0.1328125,0.234375,0.1328125c0.046875,0,0.1074219-0.0302734,0.1816406-0.0927734
			c0.1826172-0.1464844,0.4326172-0.4648438,0.7490234-0.9521484c0.3164063-0.4882813,0.5234375-0.8408203,0.6210938-1.0576172
			c-0.2421875-0.940918-0.3730469-1.4384766-0.3925781-1.4926758c-0.0898438-0.2519531-0.2070313-0.4301758-0.3515625-0.534668
			s-0.3574219-0.1567383-0.6376953-0.1567383c-0.0898438,0-0.1933594,0.0039063-0.3105469,0.0117188v-0.2094727
			L14.1015625,292.480957z"/>
	</g>
	<g>
		<path d="M-28.7832031,293.3291016h6.1494141v0.5634766h-6.1494141V293.3291016z M-28.7832031,295.4960938h6.1494141v0.5751953
			h-6.1494141V295.4960938z"/>
		<path d="M-8.5634766,291.6386719h0.5732422v2.7768555h2.7822266v0.5629883h-2.7822266v2.7597656h-0.5732422v-2.7597656h-2.7939453
			v-0.5629883h2.7939453V291.6386719z"/>
	</g>
</g>
<g>
	<g>
		<path d="M95.7050781,346.4018555c0.1904297,0.2036133,0.3349609,0.4072266,0.4321289,0.6108398
			c0.0698242,0.140625,0.1850586,0.5107422,0.3442383,1.1098633l0.5146484-0.7753906
			c0.1357422-0.1879883,0.3007813-0.3666992,0.4960938-0.5371094c0.1943359-0.1704102,0.3662109-0.2866211,0.5136719-0.3496094
			c0.09375-0.0390625,0.1962891-0.0585938,0.3095703-0.0585938c0.1669922,0,0.3007813,0.0449219,0.4003906,0.1352539
			c0.0986328,0.0898438,0.1484375,0.199707,0.1484375,0.3286133c0,0.1489258-0.0292969,0.2504883-0.0878906,0.3051758
			c-0.1083984,0.0981445-0.2333984,0.1469727-0.3730469,0.1469727c-0.0820313,0-0.1699219-0.0175781-0.2626953-0.0527344
			c-0.1835938-0.0625-0.3056641-0.0942383-0.3681641-0.0942383c-0.09375,0-0.2041016,0.0551758-0.3330078,0.1645508
			c-0.2412109,0.2036133-0.5292969,0.597168-0.8642578,1.1801758l0.4785156,2.0195313
			c0.0742188,0.3095703,0.1367188,0.4951172,0.1875,0.5556641c0.0498047,0.0605469,0.1005859,0.0908203,0.1513672,0.0908203
			c0.0820313,0,0.1777344-0.0449219,0.2861328-0.1347656c0.2138672-0.1806641,0.3974609-0.4150391,0.5488281-0.7050781
			l0.2050781,0.1054688c-0.2451172,0.4619141-0.5566406,0.8457031-0.9345703,1.1513672
			c-0.2138672,0.171875-0.3955078,0.2578125-0.5429688,0.2578125c-0.21875,0-0.3916016-0.1230469-0.5205078-0.3691406
			c-0.0820313-0.1533203-0.2504883-0.8105469-0.5078125-1.9726563c-0.6069336,1.0605469-1.09375,1.7431641-1.4599609,2.0488281
			c-0.2373047,0.1953125-0.4672852,0.2929688-0.6889648,0.2929688c-0.1557617,0-0.2978516-0.0566406-0.4262695-0.1699219
			c-0.0932617-0.0859375-0.1401367-0.2011719-0.1401367-0.3466797c0-0.1289063,0.0429688-0.2363281,0.128418-0.3222656
			c0.0854492-0.0869141,0.190918-0.1298828,0.3154297-0.1298828s0.2568359,0.0625,0.3969727,0.1884766
			c0.1010742,0.0898438,0.1791992,0.1347656,0.2338867,0.1347656c0.0463867,0,0.1069336-0.03125,0.1806641-0.09375
			c0.1831055-0.1494141,0.4321289-0.4697266,0.7475586-0.9628906s0.5219727-0.8496094,0.6191406-1.0688477
			c-0.2412109-0.9511719-0.3720703-1.4541016-0.3911133-1.5092773c-0.0898438-0.2543945-0.206543-0.4345703-0.3505859-0.5400391
			c-0.144043-0.105957-0.3564453-0.1586914-0.6367188-0.1586914c-0.0893555,0-0.1923828,0.0039063-0.309082,0.0117188v-0.2114258
			L95.7050781,346.4018555z"/>
	</g>
</g>
</svg>
