<?xml version="1.0" encoding="utf-8"?>
<!-- Generator: Adobe Illustrator 19.0.0, SVG Export Plug-In . SVG Version: 6.00 Build 0)  -->
<svg version="1.1" id="Layer_1" xmlns="http://www.w3.org/2000/svg" xmlns:xlink="http://www.w3.org/1999/xlink" x="0px" y="0px"
	 viewBox="0 0 218 122.6666641" enable-background="new 0 0 218 122.6666641" xml:space="preserve">
<g id="XMLID_72_">
	<line id="XMLID_20_" opacity="0" fill="#010101" x1="3.989671" y1="110.4610214" x2="214.8569336" y2="110.4610214"/>
	<g id="XMLID_13_">
		<g id="XMLID_14_">
			<polygon id="XMLID_16_" fill="#010101" points="205.4184113,110.9841385 205.4184113,112.9905777 214.8569183,110.4632034 
				205.4184113,107.9314651 205.4184113,109.9380569 3.9896762,109.9380569 3.9896762,110.9841385 			"/>
		</g>
	</g>
</g>
<path id="XMLID_68_" fill="none" stroke="#010101" d="M23.2893143,89.583313
	c10.8141937-28.116394,12.5126114-68.1431885,31.5151711-68.1283112
	c19.1395149,0.0148392,8.5236664,30.2681389,25.0272102,30.278801c18.7004623,0.0130959,11.5995941,32.8926773,29.506958,26.4174118
	c18.3115921-6.6205826,16.0665894-28.8958244,27.3442993-28.8890533
	c28.1060486,0.0177917,16.6842957-33.2141953,33.2145538-32.7511368
	c16.5298615,0.4636688,30.2794189,65.6566238,36.3041077,75.5441742"/>
<path id="XMLID_64_" fill="#010101" fill-opacity="0" stroke="#939598" d="M43.8871002,21.4474621h23.8592072"/>
<path id="XMLID_60_" fill="#010101" fill-opacity="0" stroke="#939598" d="M67.7463074,51.8878326h23.8587875"/>
<path id="XMLID_56_" fill="#010101" fill-opacity="0" stroke="#939598" d="M128.5268555,48.9633865h23.8596191"/>
<path id="XMLID_52_" fill="#010101" fill-opacity="0" stroke="#939598" d="M156.1871185,16.5062828h23.8588104"/>
<path id="XMLID_48_" fill="#010101" fill-opacity="0" stroke="#939598" d="M93.8714676,78.9993286h23.858429"/>
<path id="XMLID_44_" fill="none" stroke="#939598" stroke-dasharray="3,2.5" d="M55.1127052,21.4550018l-0.0847397,89.0060196"/>
<path id="XMLID_40_" fill="none" stroke="#939598" stroke-dasharray="3,2.5" d="M80.2703857,51.7338028l0.085144,58.7272186"/>
<path id="XMLID_36_" fill="none" stroke="#939598" stroke-dasharray="3,2.5" d="M105.7351608,78.9684982l0.0657196,31.4925232"/>
<path id="XMLID_32_" fill="none" stroke="#939598" stroke-dasharray="3,2.5" d="M139.0431366,48.9633865v61.4976349"/>
<path id="XMLID_28_" fill="none" stroke="#939598" stroke-dasharray="3,2.5" d="M169.0988617,16.5064468v93.9545746"/>
<g id="XMLID_22_">
	<line id="XMLID_15_" opacity="0" fill="#010101" x1="16.9639626" y1="118.7959747" x2="16.9639626" y2="2.7126424"/>
	<g id="XMLID_9_">
		<g id="XMLID_10_">
			<polygon id="XMLID_11_" fill="#010101" points="17.4870815,12.1511278 19.4935055,12.1511278 16.9661465,2.7126515 
				14.4344091,12.1511278 16.4410152,12.1511278 16.4410152,118.7959671 17.4870815,118.7959671 			"/>
		</g>
	</g>
</g>
<g id="XMLID_19_">
	<g id="XMLID_21_">
		<path id="XMLID_136_" fill="#010101" d="M208.2750702,116.5906601c0.1904297,0.2036133,0.3349609,0.4072266,0.4316406,0.6108398
			c0.0703125,0.140625,0.1855469,0.5107422,0.3447266,1.1098633l0.5146484-0.7753906
			c0.1357422-0.1879883,0.3007813-0.3666992,0.4960938-0.5371094c0.1943359-0.1704102,0.3662109-0.2866211,0.5136719-0.3496094
			c0.09375-0.0390625,0.1962891-0.0585938,0.3095703-0.0585938c0.1669922,0,0.3007813,0.0449219,0.4003906,0.1352539
			c0.0986328,0.0898438,0.1484375,0.199707,0.1484375,0.3286133c0,0.1489258-0.0292969,0.2504883-0.0878906,0.3051758
			c-0.1083984,0.0981445-0.2333984,0.1469727-0.3730469,0.1469727c-0.0820313,0-0.1699219-0.0175781-0.2626953-0.0527344
			c-0.1835938-0.0625-0.3056641-0.0942383-0.3681641-0.0942383c-0.09375,0-0.2041016,0.0551758-0.3330078,0.1645508
			c-0.2412109,0.2036133-0.5292969,0.597168-0.8642578,1.1801758l0.4785156,2.0195313
			c0.0742188,0.3095703,0.1367188,0.4951172,0.1875,0.5556641c0.0498047,0.0605469,0.1005859,0.0908203,0.1513672,0.0908203
			c0.0820313,0,0.1777344-0.0449219,0.2861328-0.1347656c0.2138672-0.1806641,0.3974609-0.4150391,0.5488281-0.7050781
			l0.2050781,0.1054688c-0.2451172,0.4619141-0.5566406,0.8457031-0.9345703,1.1513672
			c-0.2138672,0.171875-0.3955078,0.2578125-0.5429688,0.2578125c-0.21875,0-0.3916016-0.1230469-0.5205078-0.3691406
			c-0.0820313-0.1533203-0.2509766-0.8105469-0.5078125-1.9726563c-0.6074219,1.0605469-1.09375,1.7431641-1.4599609,2.0488281
			c-0.2373047,0.1953125-0.4677734,0.2929688-0.6894531,0.2929688c-0.1552734,0-0.2978516-0.0566406-0.4257813-0.1699219
			c-0.09375-0.0859375-0.140625-0.2011719-0.140625-0.3466797c0-0.1289063,0.0429688-0.2363281,0.1289063-0.3222656
			c0.0849609-0.0869141,0.1904297-0.1298828,0.3154297-0.1298828c0.1240234,0,0.2568359,0.0625,0.3964844,0.1884766
			c0.1015625,0.0898438,0.1796875,0.1347656,0.234375,0.1347656c0.0458984,0,0.1064453-0.03125,0.1806641-0.09375
			c0.1826172-0.1494141,0.4316406-0.4697266,0.7470703-0.9628906s0.5224609-0.8496094,0.6191406-1.0688477
			c-0.2412109-0.9511719-0.3720703-1.4541016-0.390625-1.5092773c-0.0898438-0.2543945-0.2070313-0.4345703-0.3505859-0.5400391
			c-0.1445313-0.105957-0.3564453-0.1586914-0.6367188-0.1586914c-0.0898438,0-0.1923828,0.0039063-0.3095703,0.0117188v-0.2114258
			L208.2750702,116.5906601z"/>
	</g>
</g>
<g id="XMLID_17_">
	<g id="XMLID_18_">
		<path id="XMLID_134_" fill="#010101" d="M5.9137368,4.9739585C6.0465493,5.1990561,6.1393228,5.4095054,6.190104,5.6053061
			S6.2916665,6.1858726,6.3424478,6.759603l0.2597656,2.8623042c0.2353516-0.2792969,0.5761719-0.7216797,1.0234375-1.3266602
			C7.8414712,8.0008135,8.1080732,7.5994468,8.425456,7.091146c0.1923828-0.3100586,0.3095703-0.5273438,0.3535156-0.6513672
			c0.0234375-0.0620117,0.0351563-0.1259766,0.0351563-0.1918945c0-0.0424805-0.0136719-0.0776367-0.0410156-0.1044922
			c-0.0273438-0.0273438-0.0996094-0.059082-0.2148438-0.0961914C8.4420576,6.0105796,8.3463545,5.9427085,8.2701826,5.8435874
			c-0.0771484-0.0986328-0.1152344-0.2124023-0.1152344-0.340332c0-0.1586914,0.046875-0.2866211,0.1416016-0.3837891
			c0.09375-0.0966797,0.2119141-0.1455078,0.3525391-0.1455078c0.1728516,0,0.3193359,0.0708008,0.4414063,0.2124023
			c0.1210938,0.1416016,0.1826172,0.3364258,0.1826172,0.5844727c0,0.3066406-0.1064453,0.6567383-0.3183594,1.0498047
			c-0.2109375,0.394043-0.6191406,0.9975586-1.2236333,1.8120112c-0.6035156,0.8144531-1.3349609,1.7021484-2.1943359,2.6640625
			c-0.5917969,0.6630859-1.03125,1.0810547-1.3173828,1.2539063c-0.2861326,0.171875-0.5312498,0.2587891-0.7353513,0.2587891
			c-0.1220703,0-0.2285156-0.0458984-0.3212891-0.1367188c-0.0917969-0.0917969-0.1376953-0.1972656-0.1376953-0.3173828
			c0-0.1513672,0.0634766-0.2890625,0.1914063-0.4130859c0.1269531-0.1240234,0.265625-0.1855469,0.4140625-0.1855469
			c0.0791016,0,0.1435547,0.0166016,0.1943359,0.0517578c0.03125,0.0195313,0.0654297,0.0751953,0.1025391,0.1660156
			C3.9654949,12.0652666,3.9996746,12.12679,4.0309243,12.15804c0.0195313,0.0185547,0.0429688,0.0283203,0.0703125,0.0283203
			c0.0234375,0,0.0644531-0.0195313,0.1240234-0.0576172c0.2158203-0.1318359,0.4667969-0.3417969,0.7529297-0.6289063
			c0.3759766-0.3798828,0.6542969-0.6894531,0.8349609-0.9296875L5.4840493,6.8821616
			C5.4293618,6.2732749,5.346354,5.9026694,5.236979,5.7708335C5.1266274,5.6389976,4.9430337,5.5730796,4.6842446,5.5730796
			c-0.0830078,0-0.2294922,0.0117188-0.4414063,0.0351563L4.190104,5.3929038L5.9137368,4.9739585z"/>
	</g>
</g>
<g id="XMLID_7_">
	<path id="XMLID_121_" fill="#010101" d="M43.6344414,9.3347979c0.0595703,0.0595703,0.0839844,0.0957031,0.0839844,0.1196289
		c0,0.0361328-0.0478516,0.0483398-0.1083984,0.0483398h-1.9912109v1.4511719
		c0.7919922,0.2875977,1.3798828,0.5874023,1.5478516,0.9833984c0.0234375,0.0717773,0.0361328,0.1435547,0.0361328,0.2275391
		c0,0.2280273-0.0966797,0.4677734-0.2519531,0.4677734c-0.1201172,0-0.1679688-0.0478516-0.2646484-0.2397461
		c-0.1914063-0.3837891-0.6230469-0.9233398-1.0673828-1.2231445v3.3579102c0,1.0195313,0,1.8950205,0.0244141,2.3510752v0.0957031
		c0,0.15625-0.0361328,0.2041016-0.2880859,0.3115234c-0.1074219,0.0478516-0.1914063,0.0722656-0.2519531,0.0722656
		c-0.0712891,0-0.0957031-0.0595703-0.0957031-0.2158203v-0.1679688c0.0361328-0.6958008,0.0595703-1.7871103,0.0595703-2.4707041
		V10.762044c-0.4667969,1.2949219-1.1386719,2.4702148-2.0625,3.777832l-0.1435547-0.0722656
		c0.9951172-1.7626953,1.7392578-3.4658203,2.1103516-4.9648438h-0.7910156c-0.2519531,0-0.5996094,0.0478516-0.8037109,0.1318359
		l-0.3359375-0.4438477c0.2998047,0.0239258,0.5996094,0.0478516,0.8759766,0.0478516h1.1503906v-1.175293
		c0-0.4916987-0.0234375-1.3071284-0.0478516-1.7509761l0.8994141,0.4077148
		c0.0488281,0.0239258,0.0722656,0.0478516,0.0722656,0.0839844c0,0.0239258-0.0234375,0.0600586-0.0722656,0.0957031
		l-0.2998047,0.2280273v2.1108394h0.8398438L42.9508476,8.62679L43.6344414,9.3347979z M50.2301445,16.6863613
		c-0.6357422,0.0117188-0.9228516,0.1445313-1.0546875,0.3476563c-0.0126953,0.0244141-0.0361328,0.0361328-0.0605469,0.0361328
		c-0.0712891,0-1.5224609-1.0073242-2.1943359-1.8227549c-0.9355469,1.0073252-2.21875,1.786622-3.8261719,2.3862314
		l-0.0722656-0.1796875c2.0029297-1.0073242,2.7226563-1.5947275,3.5859375-2.60254
		c-0.875-1.2109375-1.4384766-2.4824219-1.7509766-4.953125c-0.0839844,3.3100586-0.4677734,5.6367188-2.9863281,7.5673838
		l-0.1074219-0.1435547c1.5107422-1.3071289,2.3867188-3.3818369,2.5419922-6.0927744
		c0.0488281-0.7792969,0.0722656-2.2666016,0.0488281-3.429687c-0.3837891,0-0.6240234,0.0356445-0.8759766,0.1318359
		l-0.3359375-0.4438477c0.3720703,0.0361328,0.5996094,0.0478516,0.8759766,0.0478516h3.7539063l0.4199219-0.527832
		l0.6835938,0.659668c0.0234375,0.0244141,0.0351563,0.0483398,0.0351563,0.0722656
		c0,0.0356445-0.0234375,0.0600586-0.0712891,0.0839844c-0.4316406,0.1918941-0.4677734,0.1918941-0.5400391,0.3598628
		l-1.0791016,2.5541992h1.03125l0.3359375-0.5273438l0.6953125,0.659668
		c0.0361328,0.0356445,0.0605469,0.0717773,0.0605469,0.0957031s-0.0244141,0.0361328-0.0722656,0.0600586
		c-0.3242188,0.1201172-0.3720703,0.1679688-0.4794922,0.5395508c-0.4316406,1.4155273-0.9121094,2.4829102-1.5351563,3.2744141
		c0.7431641,0.7675781,2.0146484,1.4511728,2.9736328,1.703126V16.6863613z M44.8932304,8.5550127
		c0.2998047,3.2382813,1.1513672,4.7856445,2.0273438,5.8886719c0.5634766-0.7792969,1.03125-1.8950195,1.4267578-3.4658203
		h-1.1035156l-0.2392578,0.371582c-0.0244141,0.0239258-0.0361328,0.0478516-0.0722656,0.0478516
		c-0.0117188,0-0.0361328-0.0117188-0.0722656-0.0356445l-0.6474609-0.4560547l0.515625-0.3115234l1.1279297-2.7944331h-2.9628906
		V8.5550127z"/>
	<path id="XMLID_125_" fill="#010101" d="M62.1822929,16.6150723c-0.5878906,0-0.9951172,0.0830078-1.2587891,0.4072266
		c-0.0361328,0.0478516-0.0722656,0.0722656-0.1083984,0.0722656c-0.0234375,0-0.0595703-0.0244141-0.1074219-0.0478516
		c-2.6503906-1.6914072-3.9462891-3.8623056-4.0058594-6.9086924h-0.1083984
		c-0.515625,4.9291992-2.0742188,6.00879-5.4804688,7.4243174l-0.0839844-0.15625
		c3.4541016-1.7270517,4.6533203-3.2739267,4.9765625-7.2680674h-3.8857422c-0.2519531,0-0.5996094,0.0483398-0.8037109,0.1323242
		l-0.3349609-0.4438477c0.2998047,0.0239258,0.5996094,0.0478516,0.875,0.0478516h4.1738281
		c0.1074219-1.3911133,0.1679688-2.3867183,0.1914063-3.5502925l1.0195313,0.4799805
		c0.0605469,0.0239258,0.0839844,0.0600586,0.0839844,0.0957031c0,0.0244141-0.0234375,0.0600586-0.0712891,0.0839844
		l-0.3837891,0.2402344c-0.0361328,0.6113281-0.1445313,1.7387691-0.2519531,2.6503901h3.765625l0.5878906-0.7675781
		l0.7431641,0.8154297c0.0605469,0.0722656,0.0966797,0.1201172,0.0966797,0.1557617
		c0,0.0361328-0.0488281,0.0600586-0.1445313,0.0600586h-4.7617188c0.3603516,3.4541016,2.4589844,5.769043,5.2773438,6.3085947
		V16.6150723z"/>
	<path id="XMLID_127_" fill="#010101" d="M66.5787735,6.8401694c0.0595703,0.0356445,0.0839844,0.0717773,0.0839844,0.0957031
		c0,0.0361328-0.0361328,0.0600586-0.1083984,0.0839844c-0.2275391,0.0839844-0.2998047,0.1801758-0.4433594,0.5039063
		c-0.2402344,0.5156245-0.5761719,1.1870112-0.9951172,1.882812l0.4677734,0.2519531
		c0.0478516,0.0239258,0.0595703,0.0478516,0.0595703,0.0717773c0,0.0361328-0.0361328,0.0478516-0.3359375,0.2519531v4.9414063
		c0,0.8994141,0.0244141,1.5229502,0.0478516,1.8945322v0.0966797c0,0.1552734-0.0361328,0.203125-0.2753906,0.3115234
		c-0.0957031,0.0478516-0.1679688,0.0722656-0.2158203,0.0722656c-0.0722656,0-0.0966797-0.0722656-0.0966797-0.2646484v-0.1191406
		c0.0244141-0.7080078,0.0361328-1.3916025,0.0361328-2.0151377v-4.965332
		c-0.5273438,0.8515625-1.1386681,1.7270508-1.7382774,2.4106445l-0.1445313-0.0961914
		c1.223629-1.8110352,2.4951134-4.3413081,2.9501915-5.936523L66.5787735,6.8401694z M74.1949844,16.5906582
		c0.0478516,0.0478516,0.0712891,0.0839844,0.0712891,0.1074219c0,0.0361328-0.0361328,0.0488281-0.1201172,0.0488281h-7.3515625
		c-0.2519531,0-0.5996094,0.0478516-0.8037109,0.1318359l-0.3359375-0.4438477
		c0.2998047,0.0239258,0.5996094,0.0478516,0.8759766,0.0478516h1.1035156v-6.1044931
		c0-0.4321289-0.0126953-0.9477539-0.0244141-1.2353516l0.7197266,0.5395508h1.3310547l0.0478516-1.3793945h-2.2548828
		c-0.2509766,0-0.5996094,0.0483398-0.8027344,0.1318359l-0.3359375-0.4433589
		c0.2998047,0.0239253,0.5996094,0.0478511,0.875,0.0478511h2.53125l0.0234375-0.5996089
		c0.0117188-0.4321289,0.0117188-0.8515625,0.0117188-1.175293l0.9482422,0.4194336
		c0.0595703,0.0239258,0.0957031,0.0483398,0.0957031,0.0839844c0,0.0239258-0.0361328,0.0600586-0.0839844,0.0961914
		l-0.359375,0.2275391l-0.0605469,0.9477534h2.4824219l0.4082031-0.6596675l0.7558594,0.7436519
		c0.0595703,0.0600586,0.0957031,0.1079102,0.0957031,0.1318359c0,0.0361328-0.0478516,0.0478516-0.1318359,0.0478516h-3.6220703
		l-0.0957031,1.3793945h1.5830078l0.3955078-0.527832l0.7197266,0.6118164
		c0.0478516,0.0361328,0.0722656,0.0717773,0.0722656,0.1079102c0,0.0239258-0.0244141,0.0600586-0.0722656,0.0957031
		l-0.3720703,0.2758789v6.2368174h0.4794922l0.4677734-0.6357431L74.1949844,16.5906582z M71.9518204,11.3494463V9.946126h-3.765625
		v1.4033203H71.9518204z M71.9518204,13.0164385v-1.4033203h-3.765625v1.4033203H71.9518204z M71.9518204,14.6355791v-1.3549805
		h-3.765625v1.3549805H71.9518204z M71.9518204,16.482748v-1.5830088h-3.765625v1.5830088H71.9518204z"/>
</g>
<g id="XMLID_6_">
	<path id="XMLID_108_" fill="#010101" d="M155.6344452,5.6682944c0.0595703,0.0595703,0.0839844,0.0957031,0.0839844,0.1196289
		c0,0.0361328-0.0478516,0.0483398-0.1083984,0.0483398h-1.9912109v1.4511719
		c0.7919922,0.2875977,1.3798828,0.5874023,1.5478516,0.983398c0.0234375,0.0717773,0.0361328,0.1435547,0.0361328,0.2275391
		c0,0.2280273-0.0966797,0.4677734-0.2519531,0.4677734c-0.1201172,0-0.1679688-0.0478516-0.2646484-0.2397461
		c-0.1914063-0.3837891-0.6230469-0.9233394-1.0673828-1.2231441v3.3579097c0,1.0195313,0,1.8950195,0.0244141,2.3510742v0.0957031
		c0,0.15625-0.0361328,0.2041016-0.2880859,0.3115234c-0.1074219,0.0478516-0.1914063,0.0722656-0.2519531,0.0722656
		c-0.0712891,0-0.0957031-0.0595703-0.0957031-0.2158203v-0.1679688c0.0361328-0.6958008,0.0595703-1.7871094,0.0595703-2.4707031
		V7.0955405c-0.4667969,1.2949214-1.1386719,2.4702144-2.0625,3.7778316l-0.1435547-0.0722656
		c0.9951172-1.7626953,1.7392578-3.4658198,2.1103516-4.9648433h-0.7910156c-0.2519531,0-0.5996094,0.0478516-0.8037109,0.1318359
		l-0.3359375-0.4438477c0.2998047,0.0239258,0.5996094,0.0478516,0.8759766,0.0478516h1.1503906v-1.175293
		c0-0.4916995-0.0234375-1.3071291-0.0478516-1.7509768l0.8994141,0.4077148
		c0.0488281,0.0239258,0.0722656,0.0478516,0.0722656,0.0839844c0,0.0239258-0.0234375,0.0600586-0.0722656,0.0957031
		l-0.2998047,0.2280273V5.572103h0.8398438l0.4921875-0.6118164L155.6344452,5.6682944z M162.2301483,13.0198565
		c-0.6357422,0.0117188-0.9228516,0.1445313-1.0546875,0.3476563c-0.0126953,0.0244141-0.0361328,0.0361328-0.0605469,0.0361328
		c-0.0712891,0-1.5224609-1.0073242-2.1943359-1.8227539c-0.9355469,1.0073242-2.21875,1.7866211-3.8261719,2.3862305
		l-0.0722656-0.1796875c2.0029297-1.0073242,2.7226563-1.5947266,3.5859375-2.6025391
		c-0.875-1.2109375-1.4384766-2.4824219-1.7509766-4.9531245c-0.0839844,3.3100581-0.4677734,5.6367183-2.9863281,7.5673823
		l-0.1074219-0.1435547c1.5107422-1.3071289,2.3867188-3.3818359,2.5419922-6.092773
		c0.0488281-0.7792969,0.0722656-2.2666016,0.0488281-3.4296875c-0.3837891,0-0.6240234,0.0356445-0.8759766,0.1318359
		l-0.3359375-0.4438479c0.3720703,0.0361328,0.5996094,0.0478516,0.8759766,0.0478516h3.7539063l0.4199219-0.527832
		l0.6835938,0.6596682c0.0234375,0.0244141,0.0351563,0.0483398,0.0351563,0.0722656
		c0,0.0356445-0.0234375,0.0600586-0.0712891,0.0839844c-0.4316406,0.1918945-0.4677734,0.1918945-0.5400391,0.3598633
		l-1.0791016,2.5541992h1.03125l0.3359375-0.5273438l0.6953125,0.659668
		c0.0361328,0.0356445,0.0605469,0.0717773,0.0605469,0.0957031s-0.0244141,0.0361328-0.0722656,0.0600586
		c-0.3242188,0.1201172-0.3720703,0.1679688-0.4794922,0.5395508c-0.4316406,1.4155269-0.9121094,2.4829097-1.5351563,3.2744136
		c0.7431641,0.7675781,2.0146484,1.4511719,2.9736328,1.703125V13.0198565z M156.8932343,4.8885093
		c0.2998047,3.2382808,1.1513672,4.7856441,2.0273438,5.8886714c0.5634766-0.7792969,1.03125-1.8950195,1.4267578-3.4658198
		h-1.1035156l-0.2392578,0.371582c-0.0244141,0.0239258-0.0361328,0.0478516-0.0722656,0.0478516
		c-0.0117188,0-0.0361328-0.0117188-0.0722656-0.0356445l-0.6474609-0.4560547l0.515625-0.3115234l1.1279297-2.7944336h-2.9628906
		V4.8885093z"/>
	<path id="XMLID_112_" fill="#010101" d="M174.1822968,12.9485674c-0.5878906,0-0.9951172,0.0830078-1.2587891,0.4072266
		c-0.0361328,0.0478516-0.0722656,0.0722656-0.1083984,0.0722656c-0.0234375,0-0.0595703-0.0244141-0.1074219-0.0478516
		c-2.6503906-1.6914063-3.9462891-3.8623047-4.0058594-6.9086909h-0.1083984
		c-0.515625,4.9291987-2.0742188,6.0087886-5.4804688,7.4243159l-0.0839844-0.15625
		c3.4541016-1.7270508,4.6533203-3.2739258,4.9765625-7.2680659h-3.8857422c-0.2519531,0-0.5996094,0.0483398-0.8037109,0.1323242
		l-0.3349609-0.4438477c0.2998047,0.0239258,0.5996094,0.0478516,0.875,0.0478516h4.1738281
		c0.1074219-1.3911133,0.1679688-2.386719,0.1914063-3.5502932l1.0195313,0.4799805
		c0.0605469,0.0239258,0.0839844,0.0600586,0.0839844,0.0957031c0,0.0244141-0.0234375,0.0600586-0.0712891,0.0839844
		l-0.3837891,0.2402344c-0.0361328,0.6113284-0.1445313,1.7387698-0.2519531,2.6503909h3.765625l0.5878906-0.7675781
		l0.7431641,0.8154297c0.0605469,0.0722656,0.0966797,0.1201172,0.0966797,0.1557617
		c0,0.0361328-0.0488281,0.0600586-0.1445313,0.0600586h-4.7617188c0.3603516,3.4541011,2.4589844,5.7690425,5.2773438,6.3085933
		V12.9485674z"/>
	<path id="XMLID_114_" fill="#010101" d="M178.5787811,3.1736653c0.0595703,0.0356445,0.0839844,0.0717773,0.0839844,0.0957031
		c0,0.0361328-0.0361328,0.0600586-0.1083984,0.0839844c-0.2275391,0.0839844-0.2998047,0.1801758-0.4433594,0.5039063
		c-0.2402344,0.5156252-0.5761719,1.187012-0.9951172,1.8828127l0.4677734,0.2519531
		c0.0478516,0.0239258,0.0595703,0.0478516,0.0595703,0.0717773c0,0.0361328-0.0361328,0.0478516-0.3359375,0.2519531v4.9414058
		c0,0.8994141,0.0244141,1.5229492,0.0478516,1.8945313v0.0966797c0,0.1552734-0.0361328,0.203125-0.2753906,0.3115234
		c-0.0957031,0.0478516-0.1679688,0.0722656-0.2158203,0.0722656c-0.0722656,0-0.0966797-0.0722656-0.0966797-0.2646484v-0.1191406
		c0.0244141-0.7080078,0.0361328-1.3916016,0.0361328-2.0151367V6.2679038
		c-0.5273438,0.8515625-1.1386719,1.7270508-1.7382813,2.4106441l-0.1445313-0.0961914
		c1.2236328-1.8110347,2.4951172-4.3413081,2.9501953-5.9365234L178.5787811,3.1736653z M186.1949921,12.9241533
		c0.0478516,0.0478516,0.0712891,0.0839844,0.0712891,0.1074219c0,0.0361328-0.0361328,0.0488281-0.1201172,0.0488281h-7.3515625
		c-0.2519531,0-0.5996094,0.0478516-0.8037109,0.1318359l-0.3359375-0.4438477
		c0.2998047,0.0239258,0.5996094,0.0478516,0.8759766,0.0478516h1.1035156V6.7117515
		c0-0.4321289-0.0126953-0.9477539-0.0244141-1.2353516l0.7197266,0.5395508h1.3310547l0.0478516-1.3793945h-2.2548828
		c-0.2509766,0-0.5996094,0.0483398-0.8027344,0.1318359l-0.3359375-0.4433594
		c0.2998047,0.0239258,0.5996094,0.0478516,0.875,0.0478516h2.53125l0.0234375-0.5996096
		c0.0117188-0.4321289,0.0117188-0.8515625,0.0117188-1.175293l0.9482422,0.4194336
		c0.0595703,0.0239258,0.0957031,0.0483398,0.0957031,0.0839844c0,0.0239258-0.0361328,0.0600586-0.0839844,0.0961914
		l-0.359375,0.2275391l-0.0605469,0.9477541h2.4824219l0.4082031-0.6596682l0.7558594,0.7436526
		c0.0595703,0.0600586,0.0957031,0.1079102,0.0957031,0.1318359c0,0.0361328-0.0478516,0.0478516-0.1318359,0.0478516h-3.6220703
		l-0.0957031,1.3793945h1.5830078l0.3955078-0.527832l0.7197266,0.6118164
		c0.0478516,0.0361328,0.0722656,0.0717773,0.0722656,0.1079102c0,0.0239258-0.0244141,0.0600586-0.0722656,0.0957031
		l-0.3720703,0.2758789v6.2368159h0.4794922l0.4677734-0.6357422L186.1949921,12.9241533z M183.951828,7.6829429V6.2796226
		h-3.765625v1.4033203H183.951828z M183.951828,9.3499346V7.9466147h-3.765625v1.4033198H183.951828z M183.951828,10.9690752
		V9.6140947h-3.765625v1.3549805H183.951828z M183.951828,12.8162432v-1.5830078h-3.765625v1.5830078H183.951828z"/>
</g>
<g id="XMLID_3_">
	<path id="XMLID_93_" fill="#010101" d="M98.9327774,84.8836288c0.0595703,0.0595703,0.0839844,0.0957031,0.0839844,0.1196289
		c0,0.0361328-0.0478516,0.0483398-0.1083984,0.0483398h-1.9912109v1.4511719
		c0.7919922,0.2875977,1.3798828,0.5874023,1.5478516,0.9833984c0.0234375,0.0717773,0.0361328,0.1435547,0.0361328,0.2275391
		c0,0.2280273-0.0966797,0.4677734-0.2519531,0.4677734c-0.1201172,0-0.1679688-0.0478516-0.2646484-0.2397461
		c-0.1914063-0.3837891-0.6230469-0.9233398-1.0673828-1.2231445v3.3579102c0,1.0195313,0,1.8950195,0.0244141,2.3510742v0.0957031
		c0,0.15625-0.0361328,0.2041016-0.2880859,0.3115234c-0.1074219,0.0478516-0.1914063,0.0722656-0.2519531,0.0722656
		c-0.0712891,0-0.0957031-0.0595703-0.0957031-0.2158203v-0.1679688c0.0361328-0.6958008,0.0595703-1.7871094,0.0595703-2.4707031
		v-3.7416992c-0.4667969,1.2949219-1.1386719,2.4702148-2.0625,3.777832l-0.1435547-0.0722656
		c0.9951172-1.7626953,1.7392578-3.4658203,2.1103516-4.9648438h-0.7910156c-0.2519531,0-0.5996094,0.0478516-0.8037109,0.1318359
		l-0.3359375-0.4438477c0.2998047,0.0239258,0.5996094,0.0478516,0.8759766,0.0478516h1.1503906v-1.175293
		c0-0.4916992-0.0234375-1.3071289-0.0478516-1.7509766l0.8994141,0.4077148
		c0.0488281,0.0239258,0.0722656,0.0478516,0.0722656,0.0839844c0,0.0239258-0.0234375,0.0600586-0.0722656,0.0957031
		l-0.2998047,0.2280273v2.1108398h0.8398438l0.4921875-0.6118164L98.9327774,84.8836288z M105.5284805,92.2351913
		c-0.6357422,0.0117188-0.9228516,0.1445313-1.0546875,0.3476563c-0.0126953,0.0244141-0.0361328,0.0361328-0.0605469,0.0361328
		c-0.0712891,0-1.5224609-1.0073242-2.1943359-1.8227539c-0.9355469,1.0073242-2.21875,1.7866211-3.8261719,2.3862305
		l-0.0722656-0.1796875c2.0029297-1.0073242,2.7226563-1.5947266,3.5859375-2.6025391
		c-0.875-1.2109375-1.4384766-2.4824219-1.7509766-4.953125c-0.0839844,3.3100586-0.4677734,5.6367188-2.9863281,7.5673828
		l-0.1074219-0.1435547c1.5107422-1.3071289,2.3867188-3.3818359,2.5419922-6.0927734
		c0.0488281-0.7792969,0.0722656-2.2666016,0.0488281-3.4296875c-0.3837891,0-0.6240234,0.0356445-0.8759766,0.1318359
		l-0.3359375-0.4438477c0.3720703,0.0361328,0.5996094,0.0478516,0.8759766,0.0478516h3.7539063l0.4199219-0.527832
		l0.6835938,0.659668c0.0234375,0.0244141,0.0351563,0.0483398,0.0351563,0.0722656
		c0,0.0356445-0.0234375,0.0600586-0.0712891,0.0839844c-0.4316406,0.1918945-0.4677734,0.1918945-0.5400391,0.3598633
		l-1.0791016,2.5541992h1.03125l0.3359375-0.5273438l0.6953125,0.659668
		c0.0361328,0.0356445,0.0605469,0.0717773,0.0605469,0.0957031s-0.0244141,0.0361328-0.0722656,0.0600586
		c-0.3242188,0.1201172-0.3720703,0.1679688-0.4794922,0.5395508c-0.4316406,1.4155273-0.9121094,2.4829102-1.5351563,3.2744141
		c0.7431641,0.7675781,2.0146484,1.4511719,2.9736328,1.703125V92.2351913z M100.1915665,84.1038437
		c0.2998047,3.2382813,1.1513672,4.7856445,2.0273438,5.8886719c0.5634766-0.7792969,1.03125-1.8950195,1.4267578-3.4658203
		h-1.1035156l-0.2392578,0.371582c-0.0244141,0.0239258-0.0361328,0.0478516-0.0722656,0.0478516
		c-0.0117188,0-0.0361328-0.0117188-0.0722656-0.0356445l-0.6474609-0.4560547l0.515625-0.3115234l1.1279297-2.7944336h-2.9628906
		V84.1038437z"/>
	<path id="XMLID_97_" fill="#010101" d="M110.0568008,85.1951523c0.0957031,0.0722656,0.1445313,0.1201172,0.1445313,0.1679688
		c0,0.0361328-0.0488281,0.0839844-0.1445313,0.1201172c-0.1796875,0.0717773-0.2636719,0.1435547-0.3720703,0.371582
		c-1.3066406,2.9023438-2.2060547,4.3295898-3.2138672,5.3374023l-0.1074219-0.0961914
		c1.0429688-1.5473633,1.9189453-3.1181641,2.9736328-6.3803711L110.0568008,85.1951523z M112.683754,82.4246445
		c0.0957031,0.0483398,0.1435547,0.0961914,0.1435547,0.144043c0,0.0600586-0.0361328,0.0839844-0.3476563,0.2758789v8.7070313
		c0,0.9238281-0.0957031,1.1396484-0.7919922,1.4394531c-0.0595703,0.0234375-0.0957031,0.0361328-0.1318359,0.0361328
		c-0.0595703,0-0.0839844-0.0361328-0.0957031-0.1318359c-0.0839844-0.4082031-0.4677734-0.6123047-1.5947266-0.9355469
		l0.0478516-0.1801758c0.8037109,0.1557617,1.2832031,0.2397461,1.5712891,0.2397461
		c0.3710938,0,0.4072266-0.1435547,0.4072266-0.4316406v-7.5556641c0-0.5996094-0.0234375-1.4873047-0.0478516-2.0629883
		L112.683754,82.4246445z M113.9552383,85.1473007c1.3544922,1.1391602,3.2617188,3.1782227,3.2617188,4.2456055
		c0,0.4316406-0.2402344,0.671875-0.4082031,0.671875c-0.1669922,0-0.2275391-0.1079102-0.3115234-0.4677734
		c-0.2158203-0.9477539-1.4267578-3.0585938-2.6748047-4.3417969L113.9552383,85.1473007z"/>
	<path id="XMLID_101_" fill="#010101" d="M121.8771133,82.3889999c0.0595703,0.0356445,0.0839844,0.0717773,0.0839844,0.0957031
		c0,0.0361328-0.0361328,0.0600586-0.1083984,0.0839844c-0.2275391,0.0839844-0.2998047,0.1801758-0.4433594,0.5039063
		c-0.2402344,0.515625-0.5761719,1.1870117-0.9951172,1.8828125l0.4677734,0.2519531
		c0.0478516,0.0239258,0.0595703,0.0478516,0.0595703,0.0717773c0,0.0361328-0.0361328,0.0478516-0.3359375,0.2519531v4.9414063
		c0,0.8994141,0.0244141,1.5229492,0.0478516,1.8945313v0.0966797c0,0.1552734-0.0361328,0.203125-0.2753906,0.3115234
		c-0.0957031,0.0478516-0.1679688,0.0722656-0.2158203,0.0722656c-0.0722656,0-0.0966797-0.0722656-0.0966797-0.2646484V92.463707
		c0.0244141-0.7080078,0.0361328-1.3916016,0.0361328-2.0151367v-4.965332
		c-0.5273438,0.8515625-1.1386719,1.7270508-1.7382813,2.4106445l-0.1445313-0.0961914
		c1.2236328-1.8110352,2.4951172-4.3413086,2.9501953-5.9365234L121.8771133,82.3889999z M129.4933319,92.1394882
		c0.0478516,0.0478516,0.0712891,0.0839844,0.0712891,0.1074219c0,0.0361328-0.0361328,0.0488281-0.1201172,0.0488281h-7.3515701
		c-0.2519531,0-0.5996094,0.0478516-0.8037109,0.1318359l-0.3359375-0.4438477
		c0.2998047,0.0239258,0.5996094,0.0478516,0.8759766,0.0478516h1.1035156v-6.1044922
		c0-0.4321289-0.0126953-0.9477539-0.0244141-1.2353516l0.7197266,0.5395508h1.3310547l0.0478516-1.3793945h-2.2548828
		c-0.2509766,0-0.5996094,0.0483398-0.8027344,0.1318359l-0.3359375-0.4433594
		c0.2998047,0.0239258,0.5996094,0.0478516,0.875,0.0478516h2.53125l0.0234375-0.5996094
		c0.0117188-0.4321289,0.0117188-0.8515625,0.0117188-1.175293l0.9482422,0.4194336
		c0.0595703,0.0239258,0.0957031,0.0483398,0.0957031,0.0839844c0,0.0239258-0.0361328,0.0600586-0.0839844,0.0961914
		l-0.359375,0.2275391l-0.0605469,0.9477539h2.4824295l0.4082031-0.659668l0.7558594,0.7436523
		c0.0595703,0.0600586,0.0957031,0.1079102,0.0957031,0.1318359c0,0.0361328-0.0478516,0.0478516-0.1318359,0.0478516h-3.6220779
		l-0.0957031,1.3793945h1.5830078l0.3955078-0.527832l0.7197342,0.6118164
		c0.0478516,0.0361328,0.0722656,0.0717773,0.0722656,0.1079102c0,0.0239258-0.0244141,0.0600586-0.0722656,0.0957031
		l-0.3720779,0.2758789v6.2368164h0.4794998l0.4677734-0.6357422L129.4933319,92.1394882z M127.2501602,86.8982773V85.494957
		h-3.765625v1.4033203H127.2501602z M127.2501602,88.5652695v-1.4033203h-3.765625v1.4033203H127.2501602z M127.2501602,90.1844101
		v-1.3549805h-3.765625v1.3549805H127.2501602z M127.2501602,92.0315781v-1.5830078h-3.765625v1.5830078H127.2501602z"/>
</g>
<g id="XMLID_2_">
	<path id="XMLID_77_" d="M79.3058243,38.6643867c0.0595703,0.0600586,0.0957031,0.1079102,0.0957031,0.144043
		s-0.0478516,0.0600586-0.1318359,0.0600586h-1.3193359v0.6352539c0,0.144043,0.0126953,0.815918,0.0126953,0.9716797
		c0,0.2158203-0.3486328,0.3237305-0.4326172,0.3237305c-0.0957031,0-0.0957031-0.0117188-0.0957031-0.515625H76.895668v1.3911133
		h1.0068359l0.2763672-0.4077148l0.5996094,0.4438477c0.0595703,0.0361328,0.0839844,0.0839844,0.0839844,0.1201172
		c0,0.0595703-0.0361328,0.0839844-0.3476563,0.2397461v0.9956055c0,0.1079102,0.0234375,0.6352539,0.0234375,0.7553711
		c0,0.2036133-0.4316406,0.2875977-0.4433594,0.2875977c-0.0839844,0-0.0839844-0.0356445-0.0839844-0.4077148H76.895668v1.5351563
		h1.0673828l0.4316406-0.6352539l0.6591797,0.6591797c0.0605469,0.0600586,0.0839844,0.1083984,0.0839844,0.144043
		c0,0.0478516-0.0361328,0.0722656-0.1201172,0.0722656H76.895668v0.5874023c0,0.5878906,0.0117188,1.0078125,0.0234375,1.4990234
		c0,0.1923828-0.0234375,0.2158203-0.2519531,0.3476563c-0.1201172,0.0722656-0.2041016,0.1083984-0.2636719,0.1083984
		s-0.0839844-0.0605469-0.0839844-0.1923828v-0.0595703c0.0361328-0.6357422,0.0478516-1.2231445,0.0478516-1.7270508v-0.5634766
		h-1.5351563c-0.2519531,0-0.5996094,0.0478516-0.8037109,0.1318359l-0.3359375-0.4199219
		c0.2998047,0.0239258,0.5996094,0.0478516,0.8759766,0.0478516h1.7988281v-1.5351563h-1.2236328v0.4438477
		c0,0.1201172-0.0351563,0.1679688-0.2753906,0.2636719c-0.0722656,0.0361328-0.1318359,0.0483398-0.1679688,0.0483398
		c-0.0722656,0-0.0839844-0.0483398-0.0839844-0.1918945c0-0.1201172,0.0244141-0.7075195,0.0244141-0.8398438v-1.3549805
		c0-0.2519531,0-0.5395508-0.0244141-0.8637695l0.6357422,0.4677734h1.1152344v-1.3911133h-0.5878906v0.2397461
		c0,0.2158203-0.4072266,0.3237305-0.4550781,0.3237305s-0.0605469-0.0356445-0.0605469-0.1196289
		c0-0.144043,0.0126953-0.8154297,0.0126953-0.9716797v-0.887207c-0.4443359,0-0.828125,0-1.1513672,0.1318359l-0.3359375-0.4199219
		c0.2998047,0.0239258,0.5996094,0.0478516,0.875,0.0478516h0.6123047v-0.7553711
		c0-0.2519531-0.0126953-0.7436523-0.0244141-1.0913086l0.8398438,0.3837891
		c0.0595703,0.0239258,0.0839844,0.0600586,0.0839844,0.0839844s-0.0244141,0.0478516-0.0839844,0.0717773l-0.3125,0.1796875
		v1.1274414h1.6552734V37.993c0-0.3481445,0-0.6958008-0.0234375-1.1274414l0.8027344,0.3598633
		c0.0488281,0.0239258,0.0839844,0.0478516,0.0839844,0.0839844c0,0.0356445-0.2753906,0.2275391-0.3476563,0.2753906v1.043457
		h0.4443359l0.3710938-0.4916992L79.3058243,38.6643867z M76.3673477,43.46175v-1.546875h-1.2236328v1.546875H76.3673477z
		 M77.4347305,40.0437813v-1.175293h-1.6552734v1.175293H77.4347305z M78.0109024,43.46175v-1.546875H76.895668v1.546875H78.0109024
		z M84.8107071,42.2503242c0.0722656,0.0600586,0.1083984,0.1201172,0.1083984,0.1679688s-0.0478516,0.0717773-0.15625,0.0717773
		h-1.4628906c-0.2998047,1.1157227-0.6123047,2.0151367-1.1513672,2.8544922
		c0.2275391,0.1079102,2.3623047,1.1757813,2.3623047,1.9667969c0,0.1806641-0.1201172,0.3720703-0.2636719,0.3720703
		c-0.1201172,0-0.2763672-0.0839844-0.4199219-0.2880859c-0.3720703-0.5512695-1.1152344-1.2109375-1.9189453-1.7265625
		c-0.7558594,1.0073242-2.3144531,1.9072266-3.9941406,2.3388672l-0.0595703-0.1201172
		c1.7509766-0.7441406,2.9384766-1.5234375,3.6464844-2.4589844c-0.6484375-0.371582-1.2236328-0.6474609-1.9316406-0.9472656
		c0.2636719-0.6474609,0.5039063-1.3193359,0.7314453-1.9912109h-0.4072266c-0.2519531,0-0.5996094,0.0483398-0.8037109,0.1323242
		l-0.3359375-0.4199219c0.2998047,0.0239258,0.5996094,0.0478516,0.8759766,0.0478516h0.7548828
		c0.2763672-0.8276367,0.4921875-1.6430664,0.671875-2.3505859l0.671875,0.3598633
		c0.0722656,0.0361328,0.1074219,0.0600586,0.1074219,0.0957031c0,0.0483398-0.0478516,0.0722656-0.3837891,0.2519531
		l-0.5869141,1.6430664h2.8300781l0.4677734-0.5996094L84.8107071,42.2503242z M84.6066055,39.156086
		c0.0488281,0.0361328,0.0722656,0.0839844,0.0722656,0.1201172c0,0.0600586-0.0478516,0.0957031-0.1318359,0.1079102
		c-0.3837891,0.0356445-0.7197266,0.2397461-1.4033203,1.2231445l-0.1201172-0.0717773l0.6601563-1.3554688h-3.6826172
		c-0.0117188,0.7436523-0.3232422,1.3554688-0.7910156,1.3554688c-0.1796875,0-0.2880859-0.0961914-0.2880859-0.2397461
		c0-0.1083984,0.0722656-0.2163086,0.2519531-0.3720703c0.2636719-0.2397461,0.5273438-0.6474609,0.5996094-1.4990234h0.1796875
		c0.0244141,0.1796875,0.0478516,0.3476563,0.0478516,0.515625h3.6220703l0.3359375-0.4077148L84.6066055,39.156086z
		 M80.0851212,44.4451485c0.5761719,0.2280273,1.1152344,0.4438477,1.6191406,0.6835938
		c0.4804688-0.7075195,0.7675781-1.5112305,1.0078125-2.6386719h-1.9306641L80.0851212,44.4451485z M80.8409805,36.8772774
		c0.5761719,0.2641602,1.4277344,0.7075195,1.4277344,1.2954102c0,0.2758789-0.2041016,0.4794922-0.3486328,0.4794922
		c-0.1318359,0-0.2158203-0.0717773-0.2871094-0.3354492c-0.1201172-0.4199219-0.2763672-0.815918-0.8642578-1.3432617
		L80.8409805,36.8772774z"/>
	<path id="XMLID_86_" d="M87.7198868,45.3206367c0,1.3554688-0.2880859,2.0629883-0.7080078,2.4106445
		c-0.203125,0.1679688-0.3955078,0.2275391-0.5517578,0.2275391c-0.2275391,0-0.3837891-0.1435547-0.3837891-0.3710938
		c0-0.1318359,0.0839844-0.2402344,0.2880859-0.3720703c0.6357422-0.371582,0.9599609-0.7197266,1.1875-1.8950195H87.7198868z
		 M96.2228165,38.9163399c0.0722656,0.0717773,0.1083984,0.1196289,0.1083984,0.1557617s-0.0478516,0.0478516-0.1435547,0.0478516
		h-4.75v1.9550781h2.3632813l0.3710938-0.527832l0.7558594,0.6118164c0.0361328,0.0361328,0.0595703,0.0600586,0.0595703,0.0961914
		c0,0.0239258-0.0234375,0.0478516-0.0712891,0.0834961l-0.3603516,0.2402344v2.0625
		c0,0.1323242,0.0361328,0.7919922,0.0361328,0.8637695c0,0.1918945-0.4560547,0.3120117-0.5400391,0.3120117
		s-0.0957031-0.0483398-0.0957031-0.1323242v-0.4433594h-5.3251953v0.4194336c0,0.144043-0.0234375,0.1801758-0.2158203,0.2519531
		c-0.1201172,0.0478516-0.203125,0.0722656-0.2519531,0.0722656c-0.0712891,0-0.0957031-0.0600586-0.0957031-0.1801758v-0.0717773
		c0.0244141-0.3959961,0.0361328-0.7558594,0.0361328-1.1513672v-2.1108398c0-0.2758789-0.0244141-0.7558594-0.0361328-1.0078125
		l0.7441406,0.6118164h2.0507813v-2.590332c0-0.4916992-0.0244141-1.2954102-0.0478516-1.7392578l0.9589844,0.515625
		c0.0722656,0.0361328,0.1083984,0.0600586,0.1083984,0.0961914c0,0.0239258-0.0361328,0.0600586-0.1083984,0.0957031
		l-0.3359375,0.1679688v1.2353516h3.5498047l0.4677734-0.6474609L96.2228165,38.9163399z M93.9562149,43.977375v-2.6386719
		h-5.3251953v2.6386719H93.9562149z M89.3751602,45.4168282c0.4677734,0.4077148,1.1630859,1.2353516,1.1630859,1.6787109
		c0,0.3125-0.2158203,0.5996094-0.4082031,0.5996094c-0.1796875,0-0.2636719-0.0595703-0.2636719-0.3955078
		c0-0.515625-0.1435547-1.0195313-0.5996094-1.7988281L89.3751602,45.4168282z M91.8214493,45.2366524
		c0.6240234,0.4677734,1.4277344,1.3793945,1.4277344,1.8354492c0,0.3232422-0.2402344,0.5390625-0.4199219,0.5390625
		c-0.1318359,0-0.1796875-0.1074219-0.2519531-0.4550781c-0.1201172-0.5878906-0.3476563-1.1635742-0.8759766-1.7993164
		L91.8214493,45.2366524z M94.3165665,45.296711c1.4267578,0.8037109,2.0146484,1.4150391,2.0146484,2.0029297
		c0,0.3476563-0.2041016,0.5517578-0.3720703,0.5517578c-0.1796875,0-0.2753906-0.1083984-0.3476563-0.3955078
		c-0.1201172-0.4682617-0.4912109-1.2114258-1.3671875-2.0390625L94.3165665,45.296711z"/>
</g>
<g id="XMLID_4_">
	<path id="XMLID_5_" d="M128.9723358,36.3313789c0.0595703,0.0600586,0.0957031,0.1079102,0.0957031,0.144043
		s-0.0478516,0.0600586-0.1318359,0.0600586h-1.3193436v0.6352539c0,0.144043,0.0126953,0.815918,0.0126953,0.9716797
		c0,0.2158203-0.3486328,0.3237305-0.4326172,0.3237305c-0.0957031,0-0.0957031-0.0117188-0.0957031-0.515625h-0.5390625v1.3911133
		h1.0068359l0.2763672-0.4077148l0.599617,0.4438477c0.0595703,0.0361328,0.0839844,0.0839844,0.0839844,0.1201172
		c0,0.0595703-0.0361328,0.0839844-0.3476563,0.2397461v0.9956055c0,0.1079102,0.0234375,0.6352539,0.0234375,0.7553711
		c0,0.2036133-0.4316483,0.2875977-0.443367,0.2875977c-0.0839844,0-0.0839844-0.0356445-0.0839844-0.4077148h-1.1152344v1.5351563
		h1.0673828l0.4316483-0.6352539l0.6591797,0.6591797c0.0605469,0.0600586,0.0839844,0.1083984,0.0839844,0.144043
		c0,0.0478516-0.0361328,0.0722656-0.1201172,0.0722656h-2.1220779v0.5874023c0,0.5878906,0.0117188,1.0078125,0.0234375,1.4990234
		c0,0.1923828-0.0234375,0.2158203-0.2519531,0.3476563c-0.1201172,0.0722656-0.2041016,0.1083984-0.2636719,0.1083984
		s-0.0839844-0.0605469-0.0839844-0.1923828v-0.0595703c0.0361328-0.6357422,0.0478516-1.2231445,0.0478516-1.7270508v-0.5634766
		h-1.5351563c-0.2519531,0-0.5996094,0.0478516-0.8037109,0.1318359l-0.3359375-0.4199219
		c0.2998047,0.0239258,0.5996094,0.0478516,0.8759766,0.0478516h1.7988281v-1.5351563h-1.2236328v0.4438477
		c0,0.1201172-0.0351563,0.1679688-0.2753906,0.2636719c-0.0722656,0.0361328-0.1318359,0.0483398-0.1679688,0.0483398
		c-0.0722656,0-0.0839844-0.0483398-0.0839844-0.1918945c0-0.1201172,0.0244141-0.7075195,0.0244141-0.8398438v-1.3549805
		c0-0.2519531,0-0.5395508-0.0244141-0.8637695l0.6357422,0.4677734h1.1152344v-1.3911133h-0.5878906v0.2397461
		c0,0.2158203-0.4072266,0.3237305-0.4550781,0.3237305s-0.0605469-0.0356445-0.0605469-0.1196289
		c0-0.144043,0.0126953-0.8154297,0.0126953-0.9716797v-0.887207c-0.4443359,0-0.828125,0-1.1513672,0.1318359l-0.3359375-0.4199219
		c0.2998047,0.0239258,0.5996094,0.0478516,0.875,0.0478516h0.6123047V35.539875
		c0-0.2519531-0.0126953-0.7436523-0.0244141-1.0913086l0.8398438,0.3837891
		c0.0595703,0.0239258,0.0839844,0.0600586,0.0839844,0.0839844s-0.0244141,0.0478516-0.0839844,0.0717773l-0.3125,0.1796875
		v1.1274414h1.6552734v-0.6352539c0-0.3481445,0-0.6958008-0.0234375-1.1274414l0.8027344,0.3598633
		c0.0488281,0.0239258,0.0839844,0.0478516,0.0839844,0.0839844c0,0.0356445-0.2753906,0.2275391-0.3476563,0.2753906v1.043457
		h0.4443436l0.3710938-0.4916992L128.9723358,36.3313789z M126.0338516,41.1287422v-1.546875h-1.2236328v1.546875H126.0338516z
		 M127.1012344,37.7107735v-1.175293h-1.6552734v1.175293H127.1012344z M127.6774063,41.1287422v-1.546875h-1.1152344v1.546875
		H127.6774063z M134.4772186,39.9173164c0.0722656,0.0600586,0.1083984,0.1201172,0.1083984,0.1679688
		s-0.0478516,0.0717773-0.15625,0.0717773h-1.4628906c-0.2998047,1.1157227-0.6123047,2.0151367-1.1513672,2.8544922
		c0.2275391,0.1079102,2.3623047,1.1757813,2.3623047,1.9667969c0,0.1806641-0.1201172,0.3720703-0.2636719,0.3720703
		c-0.1201172,0-0.2763672-0.0839844-0.4199219-0.2880859c-0.3720703-0.5512695-1.1152344-1.2109375-1.9189453-1.7265625
		c-0.7558594,1.0073242-2.3144531,1.9072266-3.9941483,2.3388672l-0.0595703-0.1201172
		c1.7509842-0.7441406,2.9384842-1.5234375,3.646492-2.4589844c-0.6484375-0.371582-1.2236328-0.6474609-1.9316406-0.9472656
		c0.2636719-0.6474609,0.5039063-1.3193359,0.7314453-1.9912109h-0.4072266c-0.2519531,0-0.5996094,0.0483398-0.8037109,0.1323242
		l-0.3359375-0.4199219c0.2998047,0.0239258,0.5996094,0.0478516,0.8759766,0.0478516h0.7548828
		c0.2763672-0.8276367,0.4921875-1.6430664,0.671875-2.3505859l0.671875,0.3598633
		c0.0722656,0.0361328,0.1074219,0.0600586,0.1074219,0.0957031c0,0.0483398-0.0478516,0.0722656-0.3837891,0.2519531
		l-0.5869141,1.6430664h2.8300781l0.4677734-0.5996094L134.4772186,39.9173164z M134.2731171,36.8230782
		c0.0488281,0.0361328,0.0722656,0.0839844,0.0722656,0.1201172c0,0.0600586-0.0478516,0.0957031-0.1318359,0.1079102
		c-0.3837891,0.0356445-0.7197266,0.2397461-1.4033203,1.2231445l-0.1201172-0.0717773l0.6601563-1.3554688h-3.6826172
		c-0.0117188,0.7436523-0.3232422,1.3554688-0.7910156,1.3554688c-0.1796875,0-0.2880859-0.0961914-0.2880859-0.2397461
		c0-0.1083984,0.0722656-0.2163086,0.2519531-0.3720703c0.2636719-0.2397461,0.5273438-0.6474609,0.5996094-1.4990234h0.1796875
		c0.0244141,0.1796875,0.0478516,0.3476563,0.0478516,0.515625h3.6220703l0.3359375-0.4077148L134.2731171,36.8230782z
		 M129.7516327,42.1121407c0.5761719,0.2280273,1.1152344,0.4438477,1.6191406,0.6835938
		c0.4804688-0.7075195,0.7675781-1.5112305,1.0078125-2.6386719h-1.9306641L129.7516327,42.1121407z M130.5074921,34.5442696
		c0.5761719,0.2641602,1.4277344,0.7075195,1.4277344,1.2954102c0,0.2758789-0.2041016,0.4794922-0.3486328,0.4794922
		c-0.1318359,0-0.2158203-0.0717773-0.2871094-0.3354492c-0.1201172-0.4199219-0.2763672-0.815918-0.8642578-1.3432617
		L130.5074921,34.5442696z"/>
	<path id="XMLID_58_" d="M137.3863983,42.9876289c0,1.3554688-0.2880859,2.0629883-0.7080078,2.4106445
		c-0.203125,0.1679688-0.3955078,0.2275391-0.5517578,0.2275391c-0.2275391,0-0.3837891-0.1435547-0.3837891-0.3710938
		c0-0.1318359,0.0839844-0.2402344,0.2880859-0.3720703c0.6357422-0.371582,0.9599609-0.7197266,1.1875-1.8950195H137.3863983z
		 M145.889328,36.5833321c0.0722656,0.0717773,0.1083984,0.1196289,0.1083984,0.1557617s-0.0478516,0.0478516-0.1435547,0.0478516
		h-4.75v1.9550781h2.3632813l0.3710938-0.527832l0.7558594,0.6118164c0.0361328,0.0361328,0.0595703,0.0600586,0.0595703,0.0961914
		c0,0.0239258-0.0234375,0.0478516-0.0712891,0.0834961l-0.3603516,0.2402344v2.0625
		c0,0.1323242,0.0361328,0.7919922,0.0361328,0.8637695c0,0.1918945-0.4560547,0.3120117-0.5400391,0.3120117
		s-0.0957031-0.0483398-0.0957031-0.1323242v-0.4433594h-5.3251953v0.4194336c0,0.144043-0.0234375,0.1801758-0.2158203,0.2519531
		c-0.1201172,0.0478516-0.203125,0.0722656-0.2519531,0.0722656c-0.0712891,0-0.0957031-0.0600586-0.0957031-0.1801758v-0.0717773
		c0.0244141-0.3959961,0.0361328-0.7558594,0.0361328-1.1513672v-2.1108398c0-0.2758789-0.0244141-0.7558594-0.0361328-1.0078125
		l0.7441406,0.6118164h2.0507813v-2.590332c0-0.4916992-0.0244141-1.2954102-0.0478516-1.7392578l0.9589844,0.515625
		c0.0722656,0.0361328,0.1083984,0.0600586,0.1083984,0.0961914c0,0.0239258-0.0361328,0.0600586-0.1083984,0.0957031
		l-0.3359375,0.1679688v1.2353516h3.5498047l0.4677734-0.6474609L145.889328,36.5833321z M143.6227264,41.6443672v-2.6386719
		h-5.3251953v2.6386719H143.6227264z M139.0416718,43.0838203c0.4677734,0.4077148,1.1630859,1.2353516,1.1630859,1.6787109
		c0,0.3125-0.2158203,0.5996094-0.4082031,0.5996094c-0.1796875,0-0.2636719-0.0595703-0.2636719-0.3955078
		c0-0.515625-0.1435547-1.0195313-0.5996094-1.7988281L139.0416718,43.0838203z M141.4879608,42.9036446
		c0.6240234,0.4677734,1.4277344,1.3793945,1.4277344,1.8354492c0,0.3232422-0.2402344,0.5390625-0.4199219,0.5390625
		c-0.1318359,0-0.1796875-0.1074219-0.2519531-0.4550781c-0.1201172-0.5878906-0.3476563-1.1635742-0.8759766-1.7993164
		L141.4879608,42.9036446z M143.983078,42.9637032c1.4267578,0.8037109,2.0146484,1.4150391,2.0146484,2.0029297
		c0,0.3476563-0.2041016,0.5517578-0.3720703,0.5517578c-0.1796875,0-0.2753906-0.1083984-0.3476563-0.3955078
		c-0.1201172-0.4682617-0.4912109-1.2114258-1.3671875-2.0390625L143.983078,42.9637032z"/>
</g>
<g id="XMLID_1_">
</g>
<g id="XMLID_138_">
</g>
<g id="XMLID_139_">
</g>
<g id="XMLID_140_">
</g>
<g id="XMLID_141_">
</g>
<g id="XMLID_142_">
</g>
</svg>
