<?xml version="1.0" encoding="UTF-8" standalone="no"?>
<svg
   xmlns:dc="http://purl.org/dc/elements/1.1/"
   xmlns:cc="http://creativecommons.org/ns#"
   xmlns:rdf="http://www.w3.org/1999/02/22-rdf-syntax-ns#"
   xmlns:svg="http://www.w3.org/2000/svg"
   xmlns="http://www.w3.org/2000/svg"
   viewBox="0 0 1238.64 625.35999"
   height="625.35999"
   width="1238.64"
   xml:space="preserve"
   id="svg2"
   version="1.1"><metadata
     id="metadata8"><rdf:RDF><cc:Work
         rdf:about=""><dc:format>image/svg+xml</dc:format><dc:type
           rdf:resource="http://purl.org/dc/dcmitype/StillImage" /></cc:Work></rdf:RDF></metadata><defs
     id="defs6"><clipPath
       id="clipPath18"
       clipPathUnits="userSpaceOnUse"><path
         style="clip-rule:evenodd"
         id="path16"
         d="M 1.3843e-5,0 H 928.98001 V 469.02 H 1.3843e-5 Z" /></clipPath><clipPath
       id="clipPath26"
       clipPathUnits="userSpaceOnUse"><path
         style="clip-rule:evenodd"
         id="path24"
         d="M 1.3843e-5,1.5259e-4 H 928.01001 V 461.47015 H 1.3843e-5 Z" /></clipPath><clipPath
       id="clipPath36"
       clipPathUnits="userSpaceOnUse"><path
         id="path34"
         d="M 0,0 H 5361.06 V 2710.17 H 0 Z" /></clipPath><clipPath
       id="clipPath64"
       clipPathUnits="userSpaceOnUse"><path
         id="path62"
         d="M 0,0 H 12.042 V 15.875 H 0 Z" /></clipPath><clipPath
       id="clipPath78"
       clipPathUnits="userSpaceOnUse"><path
         id="path76"
         d="M 0,0 H 12.508 V 15.875 H 0 Z" /></clipPath><clipPath
       id="clipPath92"
       clipPathUnits="userSpaceOnUse"><path
         id="path90"
         d="M 0,0 H 12.613 V 15.875 H 0 Z" /></clipPath><clipPath
       id="clipPath106"
       clipPathUnits="userSpaceOnUse"><path
         id="path104"
         d="M 0,0 H 132.68 V 54.423 H 0 Z" /></clipPath><clipPath
       id="clipPath192"
       clipPathUnits="userSpaceOnUse"><path
         id="path190"
         d="M 0,0 H 12.042 V 15.875 H 0 Z" /></clipPath><clipPath
       id="clipPath206"
       clipPathUnits="userSpaceOnUse"><path
         id="path204"
         d="M 0,0 H 12.508 V 15.875 H 0 Z" /></clipPath><clipPath
       id="clipPath220"
       clipPathUnits="userSpaceOnUse"><path
         id="path218"
         d="M 0,0 H 12.613 V 15.875 H 0 Z" /></clipPath></defs><g
     transform="matrix(1.3333333,0,0,-1.3333333,0,625.36)"
     id="g10"><g
       id="g12"><g
         clip-path="url(#clipPath18)"
         id="g14" /></g><g
       id="g20"><g
         clip-path="url(#clipPath26)"
         id="g22"><g
           transform="matrix(12.889,0,0,6.5069,0,-7.0278)"
           id="g28"><g
             transform="scale(0.01343,0.026567)"
             id="g30"><g
               clip-path="url(#clipPath36)"
               id="g32"><path
                 id="path38"
                 style="fill:none;stroke:#000000;stroke-width:15;stroke-linecap:round;stroke-linejoin:round;stroke-miterlimit:10;stroke-dasharray:none;stroke-opacity:1"
                 d="m 416.11,1603.92 1218.75,993.75" /><path
                 id="path40"
                 style="fill:none;stroke:#000000;stroke-width:15;stroke-linecap:round;stroke-linejoin:round;stroke-miterlimit:10;stroke-dasharray:none;stroke-opacity:1"
                 d="M 1633.61,2597.67 V 1530.8" /><path
                 id="path42"
                 style="fill:none;stroke:#000000;stroke-width:15;stroke-linecap:round;stroke-linejoin:round;stroke-miterlimit:10;stroke-dasharray:none;stroke-opacity:1"
                 d="m 1634.86,1530.8 764.97,-290.51" /><path
                 id="path44"
                 style="fill:none;stroke:#000000;stroke-width:15;stroke-linecap:round;stroke-linejoin:round;stroke-miterlimit:10;stroke-dasharray:none;stroke-opacity:1"
                 d="m 1633.61,2597.67 774.74,-287.7" /><path
                 id="path46"
                 style="fill:none;stroke:#000000;stroke-width:15;stroke-linecap:round;stroke-linejoin:round;stroke-miterlimit:10;stroke-dasharray:none;stroke-opacity:1"
                 d="M 2412.76,2307.79 V 1240.29" /><path
                 id="path48"
                 style="fill:none;stroke:#000000;stroke-width:15;stroke-linecap:round;stroke-linejoin:round;stroke-miterlimit:10;stroke-dasharray:none;stroke-opacity:1"
                 d="M 1197.34,239.84 2416.1,1233.59" /><path
                 id="path50"
                 style="fill:#ff8000;fill-opacity:1;fill-rule:nonzero;stroke:none"
                 d="m 430.67,540.74 686.4,-258.97 -6.62,-17.54 -686.4,258.97 c -4.84,1.83 -7.29,7.23 -5.46,12.08 1.83,4.84 7.24,7.29 12.08,5.46 z m 767.21,-299.48 -92.02,74.8 11.12,-34.26 -6.62,-17.54 -30.98,-18.37 z" /><path
                 id="path52"
                 style="fill:#ff8000;fill-opacity:1;fill-rule:nonzero;stroke:none"
                 d="m 410.19,545.25 1149.04,936.03 11.84,-14.53 L 422.03,530.72 c -4.01,-3.27 -9.92,-2.67 -13.19,1.34 -3.27,4.02 -2.67,9.92 1.35,13.19 z m 1224.67,985.55 -110.91,-41.98 35.21,-7.6 11.84,-14.53 0.32,-36.02 z" /><path
                 id="path54"
                 style="fill:#ff8000;fill-opacity:1;fill-rule:nonzero;stroke:none"
                 d="m 406.73,537.98 v 976.03 h 18.75 V 537.98 c 0,-5.17 -4.19,-9.37 -9.37,-9.37 -5.18,0 -9.38,4.2 -9.38,9.37 z m 9.38,1065.94 -37.5,-112.5 28.12,22.5 h 18.75 l 28.13,-22.5 z" /><g
                 transform="matrix(3.345,-1.507e-6,0,4.4098,75,919.7)"
                 id="g56"><g
                   transform="scale(5.979,4.5353)"
                   id="g58"><g
                     clip-path="url(#clipPath64)"
                     id="g60"><path
                       id="path66"
                       style="fill:#ff8000;fill-opacity:1;fill-rule:evenodd;stroke:none"
                       d="M 7.0455,8.928 C 6.9038,8.9277 6.7928,8.9258 6.7118,8.9227 6.6309,8.9194 6.5517,8.9114 6.4741,8.8985 6.4441,8.8918 6.4162,8.8859 6.391,8.881 6.3659,8.8761 6.3515,8.8703 6.3478,8.8642 L 4.8772,5.1396 C 4.8134,4.9792 4.6953,4.8991 4.5232,4.8991 H 4.3969 c -0.1718,0 -0.2896,0.0801 -0.354,0.2405 L 2.5468,8.928 H 1.8748 V 9.5806 C 2.1208,9.5705 2.3374,9.5638 2.5244,9.5607 2.7115,9.5573 2.9008,9.5558 3.0928,9.5561 H 3.5375 C 3.6758,9.5558 3.8166,9.5573 3.9598,9.5607 4.103,9.5638 4.2791,9.5705 4.4879,9.5806 V 8.928 H 3.942 L 4.8011,6.7492 5.6706,8.9427 C 5.6675,8.939 5.6657,8.931 5.6657,8.9181 5.6657,8.8918 5.6724,8.877 5.6856,8.874 5.6522,8.877 5.6169,8.882 5.5795,8.8887 5.4685,8.9145 5.3136,8.9277 5.1145,8.928 V 9.5806 C 5.317,9.5705 5.4878,9.5638 5.6276,9.5607 5.7675,9.5573 5.9101,9.5558 6.0549,9.5561 h 0.3334 c 0.0978,-3e-4 0.1923,0.0012 0.2831,0.0046 0.091,0.0031 0.2159,0.0098 0.3741,0.0199 z" /><path
                       id="path68"
                       style="fill:#ff8000;fill-opacity:1;fill-rule:evenodd;stroke:none"
                       d="M 10.294,3.5522 C 9.9052,3.5632 9.5268,3.5687 9.159,3.5687 8.7914,3.5687 8.413,3.5632 8.0241,3.5522 V 3.7885 H 8.243 c 0.0696,-2e-4 0.1352,7e-4 0.1964,0.0026 0.0613,0.0017 0.1194,0.0064 0.1744,0.0137 0.0551,0.0073 0.1026,0.0146 0.1426,0.0222 0.0338,0.0053 0.0619,0.0221 0.084,0.0507 0.0224,0.0283 0.0333,0.0599 0.0333,0.0949 V 7.0697 C 8.7681,7.0237 8.6381,6.9888 8.4838,6.9651 8.3295,6.9412 8.1604,6.9294 7.9765,6.9295 V 7.1631 C 8.2303,7.163 8.4644,7.1899 8.6789,7.244 8.8933,7.2979 9.0788,7.3993 9.2352,7.5478 H 9.3335 C 9.4031,7.5477 9.4379,7.5174 9.4379,7.4572 V 3.9726 C 9.4379,3.9359 9.4485,3.9038 9.4697,3.8763 9.4908,3.8488 9.5216,3.8323 9.5616,3.827 9.5955,3.8194 9.6389,3.8121 9.6917,3.8048 9.7446,3.7975 9.8042,3.7928 9.8707,3.7911 9.9373,3.7892 10.002,3.7883 10.066,3.7885 h 0.228 z" /></g></g></g><g
                 transform="matrix(3.4744,0,-7.54e-7,4.4098,623.79,90.008)"
                 id="g70"><g
                   transform="scale(5.7563,4.5353)"
                   id="g72"><g
                     clip-path="url(#clipPath78)"
                     id="g74"><path
                       id="path80"
                       style="fill:#ff8000;fill-opacity:1;fill-rule:evenodd;stroke:none"
                       d="M 7.0455,8.928 C 6.9038,8.9277 6.7928,8.9258 6.7118,8.9227 6.6309,8.9194 6.5517,8.9114 6.4741,8.8985 6.4441,8.8918 6.4162,8.8859 6.391,8.881 6.3659,8.8761 6.3515,8.8703 6.3478,8.8642 L 4.8772,5.1396 C 4.8134,4.9792 4.6953,4.8991 4.5232,4.8991 H 4.3969 c -0.1718,0 -0.2896,0.0801 -0.354,0.2405 L 2.5468,8.928 H 1.8748 V 9.5806 C 2.1208,9.5705 2.3374,9.5638 2.5244,9.5607 2.7115,9.5573 2.9008,9.5558 3.0928,9.5561 H 3.5375 C 3.6758,9.5558 3.8166,9.5573 3.9598,9.5607 4.103,9.5638 4.2791,9.5705 4.4879,9.5806 V 8.928 H 3.942 L 4.8011,6.7492 5.6706,8.9427 C 5.6675,8.939 5.6657,8.931 5.6657,8.9181 5.6657,8.8918 5.6724,8.877 5.6856,8.874 5.6522,8.877 5.6169,8.882 5.5795,8.8887 5.4685,8.9145 5.3136,8.9277 5.1145,8.928 V 9.5806 C 5.317,9.5705 5.4878,9.5638 5.6276,9.5607 5.7675,9.5573 5.9101,9.5558 6.0549,9.5561 h 0.3334 c 0.0978,-3e-4 0.1923,0.0012 0.2831,0.0046 0.091,0.0031 0.2159,0.0098 0.3741,0.0199 z" /><path
                       id="path82"
                       style="fill:#ff8000;fill-opacity:1;fill-rule:evenodd;stroke:none"
                       d="M 10.529,3.5522 H 7.9484 v 0.1511 c 0,0.0109 0.0064,0.0273 0.0191,0.0495 L 9.0041,4.7586 C 9.1266,4.8793 9.2507,5.003 9.3765,5.1294 9.5023,5.2558 9.6151,5.385 9.7143,5.5169 9.8136,5.6488 9.8928,5.7848 9.9521,5.925 10.011,6.0651 10.041,6.2121 10.041,6.3662 10.041,6.496 10.022,6.6175 9.9836,6.7301 9.9455,6.8428 9.8907,6.9417 9.8188,7.0269 9.747,7.1121 9.6572,7.1808 9.5495,7.233 9.4417,7.2852 9.3169,7.3113 9.1753,7.3115 8.9641,7.3113 8.7775,7.255 8.6157,7.1423 8.4541,7.0297 8.3468,6.9055 8.2939,6.7702 8.2835,6.7664 8.3004,6.7645 8.3447,6.7647 H 8.3986 C 8.462,6.7516 8.5169,6.7319 8.5634,6.7054 8.61,6.6788 8.649,6.6422 8.6808,6.5955 8.7125,6.5488 8.7283,6.4924 8.7283,6.4266 8.7283,6.3166 8.6883,6.2322 8.6078,6.1737 8.5274,6.1149 8.4376,6.0857 8.3383,6.0859 8.2433,6.0857 8.1544,6.1149 8.0721,6.1737 7.9898,6.2322 7.9484,6.3166 7.9484,6.4266 7.9484,6.5804 7.9823,6.726 8.05,6.8634 8.1177,7.0008 8.2095,7.1198 8.3256,7.2207 8.4418,7.3213 8.5792,7.401 8.7377,7.4597 8.8962,7.5183 9.0643,7.5477 9.2419,7.5478 9.4617,7.5477 9.6631,7.5188 9.8459,7.4611 10.029,7.4034 10.184,7.3204 10.313,7.2124 10.442,7.1042 10.543,6.9792 10.616,6.8373 10.689,6.6953 10.725,6.5383 10.725,6.3662 10.725,6.1755 10.677,6 10.58,5.8398 10.482,5.6793 10.362,5.5323 10.218,5.3987 10.075,5.2649 9.9219,5.139 9.7601,5.0208 9.5985,4.9027 9.4521,4.7878 9.3211,4.6761 L 8.5919,4.0633 h 0.9543 c 0.1331,-10e-5 0.2574,7e-4 0.3724,0.0026 0.1154,0.0017 0.2134,0.0055 0.2934,0.011 0.08,0.0055 0.122,0.0091 0.123,0.0112 0.017,0.0127 0.033,0.0383 0.048,0.0767 0.015,0.0385 0.029,0.0838 0.041,0.1361 0.013,0.0522 0.026,0.1052 0.038,0.1593 0.013,0.054 0.025,0.1132 0.035,0.1775 h 0.235 z" /></g></g></g><g
                 transform="matrix(3.5035,-1.507e-6,-7.54e-7,4.4098,823.11,1082.34)"
                 id="g84"><g
                   transform="scale(5.7086,4.5353)"
                   id="g86"><g
                     clip-path="url(#clipPath92)"
                     id="g88"><path
                       id="path94"
                       style="fill:#ff8000;fill-opacity:1;fill-rule:evenodd;stroke:none"
                       d="M 7.0455,8.928 C 6.9038,8.9277 6.7928,8.9258 6.7118,8.9227 6.6309,8.9194 6.5517,8.9114 6.4741,8.8985 6.4441,8.8918 6.4162,8.8859 6.391,8.881 6.3659,8.8761 6.3515,8.8703 6.3478,8.8642 L 4.8772,5.1396 C 4.8134,4.9792 4.6953,4.8991 4.5232,4.8991 H 4.3969 c -0.1718,0 -0.2896,0.0801 -0.354,0.2405 L 2.5468,8.928 H 1.8748 V 9.5806 C 2.1208,9.5705 2.3374,9.5638 2.5244,9.5607 2.7115,9.5573 2.9008,9.5558 3.0928,9.5561 H 3.5375 C 3.6758,9.5558 3.8166,9.5573 3.9598,9.5607 4.103,9.5638 4.2791,9.5705 4.4879,9.5806 V 8.928 H 3.942 L 4.8011,6.7492 5.6706,8.9427 C 5.6675,8.939 5.6657,8.931 5.6657,8.9181 5.6657,8.8918 5.6724,8.877 5.6856,8.874 5.6522,8.877 5.6169,8.882 5.5795,8.8887 5.4685,8.9145 5.3136,8.9277 5.1145,8.928 V 9.5806 C 5.317,9.5705 5.4878,9.5638 5.6276,9.5607 5.7675,9.5573 5.9101,9.5558 6.0549,9.5561 h 0.3334 c 0.0978,-3e-4 0.1923,0.0012 0.2831,0.0046 0.091,0.0031 0.2159,0.0098 0.3741,0.0199 z" /><path
                       id="path96"
                       style="fill:#ff8000;fill-opacity:1;fill-rule:evenodd;stroke:none"
                       d="m 10.831,4.5882 c 0,-0.1577 -0.039,-0.309 -0.118,-0.4536 C 10.635,3.9898 10.531,3.8662 10.399,3.7638 10.252,3.6482 10.088,3.5627 9.9097,3.5068 9.7312,3.4509 9.5446,3.423 9.3501,3.423 9.1747,3.423 9.0037,3.445 8.8367,3.489 8.6697,3.533 8.5193,3.596 8.385,3.6784 8.2508,3.7609 8.1436,3.862 8.0632,3.9821 7.9828,4.102 7.9426,4.2399 7.9426,4.3958 7.9426,4.513 7.9865,4.6004 8.0742,4.6581 8.1619,4.7158 8.2544,4.7447 8.3516,4.7448 8.4531,4.7447 8.5476,4.7158 8.6353,4.6581 8.723,4.6004 8.7669,4.513 8.7669,4.3958 8.7669,4.3261 8.7517,4.2679 8.7209,4.2212 8.6903,4.1744 8.6513,4.1355 8.6036,4.1044 8.5561,4.0731 8.5016,4.0541 8.4403,4.0468 8.4087,4.0393 8.3791,4.0357 8.3516,4.0358 8.3243,4.0357 8.32,4.0338 8.3389,4.0303 8.4045,3.9276 8.5334,3.8368 8.7257,3.7581 8.9181,3.6793 9.1262,3.64 9.3501,3.6401 9.4559,3.64 9.5546,3.6633 9.6466,3.71 9.7385,3.7567 9.8153,3.8194 9.8764,3.8984 9.9526,4.0008 10.004,4.1107 10.032,4.228 c 0.027,0.1172 0.041,0.2372 0.041,0.3602 0,0.1262 -0.014,0.2475 -0.041,0.3639 C 10.004,5.0684 9.9526,5.1761 9.8764,5.2752 9.813,5.3556 9.7358,5.4207 9.645,5.4702 9.5542,5.5196 9.4559,5.5444 9.3501,5.5445 H 8.8906 C 8.8294,5.5444 8.7965,5.5699 8.7923,5.6215 v 0.0302 c 0,0.0218 0.0075,0.0392 0.0221,0.0522 0.019,0.0163 0.0433,0.0246 0.0729,0.0247 0.0614,0.0073 0.1249,0.0109 0.1903,0.011 0.0634,-1e-4 0.1258,0.0035 0.1869,0.011 0.1143,0.0072 0.2136,0.0387 0.2982,0.0947 0.0846,0.0558 0.1554,0.1272 0.2124,0.2143 0.0569,0.0869 0.1002,0.1872 0.1298,0.3009 0.0296,0.1135 0.0444,0.23 0.0444,0.3492 0,0.0878 -0.0105,0.1711 -0.0317,0.2499 C 9.8964,7.0383 9.8574,7.1071 9.8003,7.1659 9.682,7.2866 9.5319,7.3462 9.3501,7.3445 9.1558,7.3443 8.9777,7.3117 8.8161,7.2468 8.6545,7.1817 8.5461,7.1116 8.491,7.0367 8.4764,7.0347 8.4837,7.0338 8.5134,7.034 8.5895,7.0338 8.6613,7.0137 8.7288,6.9735 8.8304,6.9203 8.881,6.8304 8.881,6.7042 8.881,6.5977 8.8425,6.5175 8.7653,6.4636 8.6882,6.4095 8.602,6.3825 8.507,6.3827 8.4139,6.3825 8.3268,6.409 8.2454,6.4622 8.164,6.5153 8.1232,6.596 8.1232,6.7042 c 0,0.1336 0.036,0.2516 0.108,0.3543 C 8.3031,7.1611 8.3954,7.249 8.5085,7.3223 8.6217,7.3955 8.7521,7.4515 8.9,7.49 9.0481,7.5284 9.1982,7.5477 9.3501,7.5478 9.5129,7.5477 9.6704,7.5284 9.8226,7.49 9.9747,7.4515 10.118,7.3919 10.254,7.3115 10.364,7.2418 10.456,7.1561 10.531,7.0544 10.606,6.9527 10.644,6.8378 10.644,6.7097 10.644,6.5812 10.618,6.4603 10.566,6.3468 10.514,6.2331 10.446,6.1305 10.36,6.039 10.274,5.9473 10.172,5.8667 10.054,5.7972 9.9357,5.7274 9.8468,5.6836 9.7876,5.6654 9.8384,5.6598 9.9251,5.6326 10.048,5.5842 10.17,5.5356 10.288,5.471 10.399,5.3906 10.531,5.2896 10.635,5.1692 10.713,5.0291 10.792,4.8889 10.831,4.7419 10.831,4.5882 Z" /></g></g></g><g
                 transform="matrix(36.856,-2.261e-6,-3.014e-6,15.117,2617.39,703.56)"
                 id="g98"><g
                   transform="scale(0.54265,1.323)"
                   id="g100"><g
                     clip-path="url(#clipPath106)"
                     id="g102"><path
                       id="path108"
                       style="fill:#000000;fill-opacity:1;fill-rule:evenodd;stroke:none"
                       d="m 10.511,31.639 c -0.024,-0.118 -0.097,-0.177 -0.218,-0.177 -0.13,0 -0.253,-0.015 -0.3702,-0.045 C 9.8057,31.388 9.6913,31.338 9.5801,31.267 9.469,31.197 9.367,31.111 9.2739,31.011 9.1812,30.911 9.0961,30.798 9.0192,30.673 L 4.5987,23.483 C 4.5383,23.373 4.4452,23.32 4.3197,23.324 H 4.2045 c -0.1494,0 -0.2223,0.062 -0.2183,0.188 l -0.7581,7.52 C 3.2119,31.134 3.1957,31.213 3.1795,31.27 3.1633,31.327 3.1394,31.367 3.107,31.391 3.0503,31.422 2.9605,31.442 2.8372,31.45 c -0.1233,0.008 -0.2639,0.012 -0.4218,0.012 -0.0603,0 -0.1049,0.019 -0.1332,0.059 -0.0243,0.023 -0.0364,0.053 -0.0364,0.088 0,0.023 0.0062,0.045 0.018,0.065 l 0.0184,0.088 c 0.0122,0.051 0.0394,0.094 0.0817,0.129 0.0427,0.036 0.0942,0.053 0.1546,0.054 0.3883,-0.024 0.7806,-0.036 1.1766,-0.035 0.0607,-0.001 0.1255,0.003 0.194,0.011 0.4689,0 0.9381,0.008 1.407,0.024 0.0567,-0.001 0.1071,-0.02 0.1516,-0.059 0.0162,-0.032 0.024,-0.061 0.024,-0.088 0,-0.024 -0.0059,-0.046 -0.0181,-0.065 L 5.4356,31.645 C 5.4234,31.589 5.394,31.545 5.3476,31.512 5.3013,31.478 5.2516,31.462 5.1989,31.462 5.0576,31.462 4.9281,31.456 4.811,31.444 4.694,31.432 4.5784,31.401 4.4651,31.35 4.3966,31.314 4.3642,31.256 4.3683,31.173 V 31.132 C 4.5096,30.088 4.623,29.038 4.7076,27.984 4.7926,26.93 4.8835,25.932 4.9807,24.99 l 3.5777,5.824 c 0.0527,0.082 0.085,0.169 0.0972,0.259 v 0.03 c 0,0.058 -0.014,0.111 -0.0427,0.159 -0.0887,0.133 -0.2543,0.2 -0.4972,0.2 -0.1049,0 -0.1576,0.053 -0.1576,0.159 v 0.041 l 0.0243,0.106 c 0.0446,0.118 0.1233,0.176 0.2363,0.177 0.3559,-0.016 0.7137,-0.024 1.0736,-0.024 0.0486,-0.008 0.095,-0.012 0.1395,-0.011 0.3073,-0.001 0.6232,0.011 0.9462,0.035 0.109,-0.001 0.167,-0.054 0.176,-0.159 v -0.047 z" /><path
                       id="path110"
                       style="fill:none;stroke:#000000;stroke-width:0.4824;stroke-linecap:round;stroke-linejoin:round;stroke-miterlimit:10;stroke-dasharray:none;stroke-opacity:1"
                       d="m 14.055,28.478 h 8.442" /><path
                       id="path112"
                       style="fill:none;stroke:#000000;stroke-width:0.4824;stroke-linecap:round;stroke-linejoin:round;stroke-miterlimit:10;stroke-dasharray:none;stroke-opacity:1"
                       d="m 14.055,25.945 h 8.442" /><path
                       id="path114"
                       style="fill:#000000;fill-opacity:1;fill-rule:evenodd;stroke:none"
                       d="m 45.549,42.412 c -0.049,-0.193 -0.103,-0.399 -0.164,-0.619 -0.06,-0.22 -0.141,-0.424 -0.243,-0.612 -0.101,-0.189 -0.228,-0.352 -0.382,-0.489 -0.153,-0.137 -0.345,-0.206 -0.576,-0.206 -0.307,0 -0.553,0.085 -0.737,0.256 -0.184,0.171 -0.29,0.345 -0.318,0.522 -0.138,-0.158 -0.343,-0.327 -0.616,-0.507 -0.273,-0.18 -0.561,-0.271 -0.864,-0.271 -0.32,0 -0.588,0.081 -0.804,0.241 -0.216,0.161 -0.385,0.364 -0.506,0.607 -0.146,0.29 -0.223,0.603 -0.231,0.937 v 0.088 c 0,0.31 0.043,0.62 0.128,0.93 0.097,0.342 0.232,0.679 0.406,1.013 0.174,0.333 0.404,0.644 0.691,0.931 0.235,0.235 0.503,0.433 0.804,0.594 0.301,0.161 0.608,0.242 0.919,0.242 0.271,0 0.491,-0.072 0.661,-0.215 0.17,-0.144 0.277,-0.262 0.322,-0.356 l -0.025,-0.1 c 0.029,0.145 0.096,0.254 0.203,0.329 0.108,0.074 0.216,0.112 0.325,0.112 0.125,0 0.23,-0.037 0.315,-0.112 0.053,-0.059 0.081,-0.137 0.085,-0.235 0,-0.036 -0.004,-0.075 -0.012,-0.118 L 44.057,41.97 c -0.041,-0.161 -0.069,-0.312 -0.085,-0.453 -0.008,-0.071 -0.012,-0.136 -0.012,-0.194 0,-0.052 0.004,-0.107 0.012,-0.165 0.012,-0.095 0.04,-0.166 0.085,-0.213 0.044,-0.047 0.107,-0.07 0.188,-0.07 0.085,0 0.165,0.035 0.239,0.106 0.075,0.07 0.144,0.175 0.207,0.315 0.062,0.139 0.122,0.306 0.179,0.5 0.056,0.195 0.115,0.406 0.175,0.634 0.024,0.101 0.093,0.152 0.207,0.153 h 0.139 c 0.105,-10e-4 0.158,-0.044 0.158,-0.13 z m -1.735,2.167 c -0.016,0.07 -0.03,0.144 -0.042,0.221 -0.012,0.076 -0.031,0.152 -0.055,0.227 -0.065,0.184 -0.157,0.338 -0.276,0.461 -0.119,0.124 -0.27,0.186 -0.452,0.186 -0.169,0 -0.337,-0.061 -0.503,-0.183 -0.166,-0.121 -0.317,-0.278 -0.455,-0.47 -0.194,-0.272 -0.339,-0.553 -0.437,-0.846 -0.097,-0.292 -0.186,-0.597 -0.267,-0.915 -0.08,-0.314 -0.147,-0.619 -0.2,-0.913 -0.032,-0.149 -0.048,-0.291 -0.048,-0.424 0,-0.141 0.016,-0.279 0.048,-0.412 0.037,-0.185 0.102,-0.337 0.197,-0.457 0.095,-0.12 0.228,-0.179 0.397,-0.179 0.187,0 0.374,0.064 0.562,0.194 0.188,0.13 0.363,0.289 0.524,0.477 0.065,0.078 0.127,0.154 0.185,0.227 0.059,0.072 0.111,0.15 0.155,0.233 z" /><path
                       id="path116"
                       style="fill:#000000;fill-opacity:1;fill-rule:evenodd;stroke:none"
                       d="m 48.845,38.911 c -0.466,0.014 -0.92,0.02 -1.362,0.02 -0.441,0 -0.895,-0.006 -1.362,-0.02 v 0.284 h 0.263 c 0.084,0 0.162,10e-4 0.236,0.003 0.073,0.002 0.143,0.008 0.209,0.017 0.066,0.008 0.123,0.017 0.171,0.026 0.041,0.006 0.075,0.027 0.101,0.061 0.027,0.034 0.04,0.072 0.04,0.114 v 3.716 c -0.127,-0.055 -0.283,-0.097 -0.468,-0.125 -0.185,-0.029 -0.388,-0.043 -0.609,-0.043 v 0.28 c 0.305,0 0.586,0.033 0.843,0.098 0.258,0.064 0.48,0.186 0.668,0.364 h 0.118 c 0.083,0 0.125,-0.036 0.125,-0.109 v -4.181 c 0,-0.044 0.013,-0.083 0.038,-0.116 0.026,-0.033 0.063,-0.053 0.111,-0.059 0.04,-0.009 0.092,-0.018 0.156,-0.026 0.063,-0.009 0.135,-0.015 0.214,-0.017 0.08,-0.002 0.158,-0.003 0.234,-0.003 h 0.274 z" /><path
                       id="path118"
                       style="fill:#000000;fill-opacity:1;fill-rule:evenodd;stroke:none"
                       d="m 52.454,38.911 c -0.466,0.014 -0.92,0.02 -1.361,0.02 -0.442,0 -0.896,-0.006 -1.362,-0.02 v 0.284 h 0.262 c 0.084,0 0.163,10e-4 0.236,0.003 0.074,0.002 0.143,0.008 0.209,0.017 0.066,0.008 0.123,0.017 0.171,0.026 0.041,0.006 0.075,0.027 0.101,0.061 0.027,0.034 0.04,0.072 0.04,0.114 v 3.716 c -0.127,-0.055 -0.283,-0.097 -0.468,-0.125 -0.185,-0.029 -0.388,-0.043 -0.608,-0.043 v 0.28 c 0.304,0 0.585,0.033 0.842,0.098 0.258,0.064 0.48,0.186 0.668,0.364 h 0.118 c 0.083,0 0.125,-0.036 0.125,-0.109 v -4.181 c 0,-0.044 0.013,-0.083 0.038,-0.116 0.026,-0.033 0.063,-0.053 0.111,-0.059 0.04,-0.009 0.092,-0.018 0.156,-0.026 0.063,-0.009 0.135,-0.015 0.215,-0.017 0.079,-0.002 0.157,-0.003 0.233,-0.003 h 0.274 z" /><path
                       id="path120"
                       style="fill:#000000;fill-opacity:1;fill-rule:evenodd;stroke:none"
                       d="M 45.224,25.449 C 45.176,25.257 45.121,25.051 45.06,24.831 45,24.611 44.919,24.407 44.817,24.218 44.717,24.03 44.589,23.867 44.435,23.73 44.282,23.592 44.09,23.524 43.859,23.524 c -0.307,0 -0.553,0.085 -0.737,0.256 -0.184,0.17 -0.29,0.344 -0.318,0.521 -0.138,-0.157 -0.343,-0.326 -0.616,-0.507 -0.273,-0.18 -0.561,-0.27 -0.864,-0.27 -0.32,0 -0.587,0.08 -0.804,0.241 -0.216,0.161 -0.385,0.363 -0.506,0.607 -0.146,0.29 -0.223,0.602 -0.231,0.936 v 0.088 c 0,0.31 0.043,0.62 0.128,0.931 0.097,0.341 0.232,0.679 0.406,1.012 0.174,0.334 0.404,0.644 0.692,0.931 0.234,0.235 0.502,0.433 0.803,0.595 0.301,0.16 0.608,0.241 0.919,0.241 0.271,0 0.491,-0.072 0.661,-0.215 0.17,-0.144 0.277,-0.262 0.322,-0.356 l -0.025,-0.1 c 0.029,0.145 0.096,0.255 0.204,0.329 0.107,0.075 0.215,0.112 0.324,0.113 0.125,-10e-4 0.231,-0.038 0.316,-0.112 0.052,-0.059 0.081,-0.138 0.084,-0.236 0,-0.035 -0.004,-0.075 -0.012,-0.118 l -0.873,-3.403 c -0.041,-0.161 -0.069,-0.313 -0.085,-0.454 -0.008,-0.071 -0.012,-0.135 -0.012,-0.194 0,-0.051 0.004,-0.106 0.012,-0.165 0.012,-0.094 0.041,-0.165 0.085,-0.212 0.044,-0.047 0.107,-0.071 0.188,-0.07 0.085,-0.001 0.165,0.034 0.239,0.105 0.075,0.071 0.144,0.176 0.207,0.315 0.062,0.139 0.122,0.306 0.179,0.501 0.056,0.194 0.115,0.405 0.175,0.633 0.025,0.102 0.093,0.153 0.207,0.153 h 0.139 c 0.105,0 0.158,-0.043 0.158,-0.129 z m -1.735,2.168 c -0.016,0.07 -0.03,0.143 -0.042,0.22 -0.012,0.077 -0.031,0.152 -0.055,0.227 -0.064,0.184 -0.156,0.338 -0.276,0.462 -0.119,0.124 -0.27,0.185 -0.452,0.186 -0.169,-0.001 -0.337,-0.062 -0.503,-0.183 -0.166,-0.122 -0.317,-0.279 -0.455,-0.471 -0.194,-0.271 -0.339,-0.553 -0.437,-0.845 -0.097,-0.293 -0.186,-0.598 -0.267,-0.916 -0.08,-0.314 -0.147,-0.618 -0.2,-0.912 -0.032,-0.15 -0.048,-0.291 -0.048,-0.424 0,-0.142 0.016,-0.279 0.048,-0.412 0.037,-0.185 0.102,-0.338 0.197,-0.457 0.095,-0.12 0.228,-0.18 0.397,-0.179 0.187,-0.001 0.374,0.064 0.562,0.193 0.188,0.13 0.363,0.289 0.524,0.478 0.065,0.078 0.127,0.153 0.185,0.226 0.059,0.073 0.111,0.15 0.155,0.233 z" /><path
                       id="path122"
                       style="fill:#000000;fill-opacity:1;fill-rule:evenodd;stroke:none"
                       d="m 48.801,21.949 h -3.096 v 0.181 c 0,0.013 0.007,0.033 0.023,0.059 l 1.244,1.207 c 0.147,0.145 0.295,0.294 0.446,0.445 0.151,0.152 0.287,0.307 0.406,0.465 0.119,0.159 0.214,0.322 0.285,0.49 0.071,0.168 0.107,0.345 0.107,0.53 0,0.155 -0.023,0.301 -0.069,0.436 -0.046,0.136 -0.112,0.254 -0.198,0.356 -0.086,0.103 -0.194,0.185 -0.323,0.248 -0.129,0.062 -0.279,0.094 -0.449,0.094 -0.253,0 -0.477,-0.068 -0.672,-0.203 -0.193,-0.135 -0.322,-0.284 -0.386,-0.447 -0.012,-0.004 0.008,-0.006 0.061,-0.006 h 0.065 c 0.076,-0.016 0.142,-0.04 0.198,-0.071 0.056,-0.032 0.102,-0.076 0.141,-0.132 0.038,-0.056 0.057,-0.124 0.057,-0.203 0,-0.132 -0.048,-0.233 -0.145,-0.303 -0.096,-0.071 -0.204,-0.106 -0.323,-0.106 -0.114,0 -0.221,0.035 -0.32,0.106 -0.099,0.07 -0.148,0.171 -0.148,0.303 0,0.185 0.04,0.359 0.122,0.524 0.081,0.165 0.191,0.308 0.33,0.429 0.14,0.121 0.305,0.216 0.495,0.287 0.19,0.07 0.392,0.105 0.605,0.106 0.264,-0.001 0.505,-0.035 0.725,-0.105 0.219,-0.069 0.406,-0.168 0.561,-0.298 0.154,-0.13 0.275,-0.28 0.363,-0.45 0.087,-0.171 0.131,-0.359 0.131,-0.565 0,-0.229 -0.058,-0.44 -0.175,-0.632 -0.116,-0.193 -0.261,-0.369 -0.433,-0.529 -0.173,-0.161 -0.356,-0.312 -0.55,-0.454 -0.194,-0.142 -0.37,-0.28 -0.527,-0.413 l -0.875,-0.736 h 1.145 c 0.16,0 0.309,10e-4 0.447,0.003 0.138,0.002 0.255,0.007 0.352,0.013 0.096,0.007 0.146,0.011 0.148,0.014 0.02,0.015 0.04,0.046 0.057,0.092 0.018,0.046 0.035,0.101 0.05,0.163 0.015,0.063 0.03,0.127 0.046,0.191 0.015,0.065 0.029,0.136 0.041,0.213 h 0.282 z" /><path
                       id="path124"
                       style="fill:#000000;fill-opacity:1;fill-rule:evenodd;stroke:none"
                       d="m 52.779,21.949 c -0.466,0.013 -0.92,0.02 -1.362,0.02 -0.441,0 -0.895,-0.007 -1.362,-0.02 v 0.283 h 0.263 c 0.084,0 0.162,0.001 0.236,0.003 0.074,0.003 0.143,0.008 0.209,0.017 0.066,0.009 0.123,0.017 0.171,0.027 0.041,0.006 0.075,0.026 0.101,0.06 0.027,0.034 0.04,0.072 0.04,0.114 v 3.717 c -0.127,-0.055 -0.283,-0.097 -0.468,-0.126 -0.185,-0.028 -0.388,-0.043 -0.609,-0.042 v 0.28 c 0.305,0 0.586,0.032 0.843,0.097 0.258,0.065 0.48,0.186 0.668,0.365 h 0.118 c 0.083,-0.001 0.125,-0.037 0.125,-0.109 v -4.182 c 0,-0.044 0.013,-0.082 0.038,-0.115 0.026,-0.033 0.063,-0.053 0.111,-0.059 0.04,-0.01 0.092,-0.018 0.156,-0.027 0.063,-0.009 0.135,-0.014 0.215,-0.017 0.079,-0.002 0.157,-0.003 0.233,-0.003 h 0.274 z" /><path
                       id="path126"
                       style="fill:#000000;fill-opacity:1;fill-rule:evenodd;stroke:none"
                       d="M 45.197,8.4869 C 45.148,8.2941 45.094,8.088 45.033,7.8682 44.972,7.6482 44.891,7.4443 44.79,7.2558 44.689,7.0674 44.562,6.9043 44.408,6.7671 44.255,6.6298 44.063,6.5613 43.832,6.5613 c -0.307,0 -0.553,0.085 -0.737,0.2558 -0.184,0.1708 -0.29,0.3445 -0.318,0.5215 C 42.639,7.1811 42.434,7.0122 42.161,6.8318 41.888,6.6515 41.6,6.5613 41.297,6.5613 c -0.32,0 -0.588,0.0803 -0.804,0.2411 -0.216,0.1608 -0.385,0.3632 -0.506,0.6069 -0.146,0.29 -0.223,0.6021 -0.231,0.9363 v 0.0883 c 0,0.3099 0.043,0.6198 0.127,0.9304 0.098,0.3412 0.233,0.6787 0.407,1.0127 0.174,0.333 0.404,0.644 0.691,0.931 0.235,0.235 0.503,0.433 0.804,0.594 0.301,0.161 0.607,0.241 0.919,0.242 0.271,-10e-4 0.491,-0.072 0.661,-0.216 0.17,-0.143 0.277,-0.262 0.321,-0.355 l -0.024,-0.101 c 0.028,0.145 0.096,0.255 0.203,0.33 0.108,0.074 0.216,0.112 0.325,0.112 0.125,0 0.23,-0.037 0.315,-0.112 0.053,-0.059 0.081,-0.137 0.085,-0.235 0,-0.036 -0.004,-0.075 -0.012,-0.118 L 43.704,8.0453 C 43.664,7.8841 43.636,7.7328 43.619,7.5918 43.612,7.5208 43.608,7.456 43.608,7.3975 43.608,7.346 43.612,7.2912 43.619,7.2326 43.632,7.138 43.66,7.0674 43.704,7.0203 43.749,6.9732 43.812,6.9496 43.893,6.95 c 0.085,-4e-4 0.164,0.0349 0.239,0.1056 0.075,0.0707 0.144,0.1756 0.207,0.3151 0.062,0.1391 0.122,0.3062 0.178,0.5005 0.057,0.1943 0.116,0.4052 0.176,0.6334 0.024,0.1016 0.093,0.1527 0.207,0.1531 h 0.139 c 0.105,-4e-4 0.158,-0.0434 0.158,-0.1296 z m -1.735,2.1671 c -0.016,0.07 -0.03,0.144 -0.042,0.22 -0.013,0.077 -0.031,0.152 -0.055,0.227 -0.065,0.185 -0.157,0.339 -0.276,0.462 -0.119,0.124 -0.27,0.186 -0.452,0.186 -0.17,0 -0.337,-0.061 -0.503,-0.183 -0.166,-0.121 -0.318,-0.278 -0.455,-0.47 C 41.485,10.824 41.339,10.542 41.242,10.25 41.145,9.9576 41.056,9.6525 40.975,9.3349 40.894,9.0206 40.828,8.7162 40.775,8.4221 40.743,8.2727 40.727,8.1314 40.727,7.9982 c 0,-0.1417 0.016,-0.279 0.048,-0.4122 0.037,-0.1848 0.102,-0.3372 0.197,-0.4568 0.095,-0.12 0.228,-0.1796 0.397,-0.1792 0.186,-4e-4 0.373,0.0644 0.562,0.1939 0.188,0.1296 0.362,0.2886 0.524,0.4774 0.065,0.078 0.127,0.1535 0.185,0.2263 0.059,0.0725 0.111,0.1502 0.155,0.233 z" /><path
                       id="path128"
                       style="fill:#000000;fill-opacity:1;fill-rule:evenodd;stroke:none"
                       d="m 49.137,6.2294 c 0,-0.1892 -0.046,-0.3707 -0.14,-0.5443 C 48.903,5.5114 48.778,5.363 48.62,5.2401 48.443,5.1014 48.247,4.9988 48.032,4.9318 47.818,4.8646 47.594,4.8312 47.361,4.8312 c -0.211,0 -0.416,0.0264 -0.616,0.0792 -0.201,0.0527 -0.381,0.1284 -0.542,0.2273 -0.161,0.0989 -0.29,0.2203 -0.386,0.3644 -0.097,0.1439 -0.145,0.3094 -0.145,0.4965 0,0.1406 0.053,0.2455 0.158,0.3147 0.105,0.0693 0.216,0.1039 0.333,0.1041 0.122,-2e-4 0.235,-0.0348 0.34,-0.1041 0.105,-0.0692 0.158,-0.1741 0.158,-0.3147 0,-0.0837 -0.018,-0.1535 -0.055,-0.2096 C 46.569,5.7329 46.522,5.6861 46.465,5.6488 46.408,5.6113 46.343,5.5885 46.269,5.5798 46.231,5.5707 46.196,5.5664 46.163,5.5666 46.13,5.5664 46.125,5.5641 46.147,5.56 c 0.079,-0.1232 0.234,-0.2323 0.465,-0.3267 0.23,-0.0946 0.48,-0.1418 0.749,-0.1416 0.127,-2e-4 0.245,0.0279 0.356,0.0839 0.11,0.0561 0.202,0.1313 0.275,0.2261 0.092,0.1229 0.154,0.2548 0.187,0.3955 0.033,0.1406 0.049,0.2847 0.049,0.4322 0,0.1515 -0.016,0.297 -0.049,0.4368 -0.033,0.1395 -0.095,0.2687 -0.187,0.3876 -0.076,0.0965 -0.168,0.1746 -0.277,0.234 -0.109,0.0593 -0.227,0.089 -0.354,0.0892 h -0.552 c -0.073,-2e-4 -0.112,0.0305 -0.117,0.0924 v 0.0362 c 0,0.0262 0.009,0.047 0.026,0.0627 0.023,0.0196 0.052,0.0295 0.088,0.0297 0.073,0.0086 0.149,0.0129 0.228,0.0132 0.076,-3e-4 0.151,0.0041 0.224,0.0131 0.137,0.0087 0.256,0.0464 0.358,0.1136 0.102,0.067 0.187,0.1527 0.255,0.2572 0.068,0.1043 0.12,0.2247 0.156,0.3611 0.035,0.1363 0.053,0.276 0.053,0.419 0,0.1053 -0.013,0.2053 -0.038,0.2999 C 48.017,9.1695 47.97,9.2521 47.901,9.3226 47.759,9.4675 47.579,9.539 47.361,9.537 47.128,9.5368 46.914,9.4976 46.72,9.4197 46.526,9.3416 46.396,9.2575 46.33,9.1676 46.312,9.1652 46.321,9.1641 46.357,9.1643 c 0.091,-2e-4 0.177,-0.0243 0.258,-0.0725 0.122,-0.0639 0.183,-0.1717 0.183,-0.3232 0,-0.1278 -0.046,-0.224 -0.139,-0.2887 -0.092,-0.0649 -0.196,-0.0973 -0.31,-0.0971 -0.112,-2e-4 -0.216,0.0315 -0.314,0.0954 -0.097,0.0637 -0.146,0.1606 -0.146,0.2904 0,0.1604 0.043,0.302 0.129,0.4252 0.086,0.1231 0.197,0.2286 0.333,0.3166 0.136,0.0878 0.292,0.155 0.47,0.2012 0.178,0.0461 0.358,0.0692 0.54,0.0694 0.195,-2e-4 0.384,-0.0233 0.567,-0.0694 C 48.11,9.6654 48.283,9.5939 48.445,9.4974 48.577,9.4137 48.688,9.3109 48.778,9.1889 48.868,9.0669 48.913,8.929 48.913,8.7752 48.913,8.6211 48.882,8.476 48.82,8.3397 48.758,8.2033 48.676,8.0802 48.573,7.9704 48.47,7.8603 48.348,7.7637 48.206,7.6802 48.064,7.5965 47.957,7.544 47.886,7.5221 47.947,7.5153 48.051,7.4828 48.198,7.4246 48.345,7.3663 48.486,7.2888 48.62,7.1923 c 0.158,-0.1211 0.283,-0.2656 0.377,-0.4338 0.094,-0.1682 0.14,-0.3446 0.14,-0.5291 z" /><path
                       id="path130"
                       style="fill:#000000;fill-opacity:1;fill-rule:evenodd;stroke:none"
                       d="M 52.807,4.9862 C 52.34,4.9994 51.886,5.006 51.445,5.006 c -0.441,0 -0.896,-0.0066 -1.362,-0.0198 v 0.2836 h 0.262 c 0.084,-2e-4 0.163,8e-4 0.236,0.0031 0.074,0.0021 0.143,0.0076 0.209,0.0165 0.066,0.0087 0.123,0.0175 0.171,0.0266 0.041,0.0064 0.075,0.0266 0.101,0.0608 0.027,0.034 0.04,0.0719 0.04,0.114 V 9.2072 C 50.976,9.152 50.82,9.1101 50.634,9.0817 50.449,9.0531 50.246,9.0388 50.026,9.039 v 0.2803 c 0.304,-2e-4 0.585,0.0322 0.842,0.0971 0.258,0.0647 0.48,0.1863 0.668,0.3646 h 0.118 c 0.084,-2e-4 0.125,-0.0365 0.125,-0.1088 V 5.4908 c 0,-0.0441 0.013,-0.0827 0.038,-0.1157 0.026,-0.0329 0.063,-0.0527 0.111,-0.0591 0.04,-0.0091 0.093,-0.0179 0.156,-0.0266 0.063,-0.0089 0.135,-0.0144 0.215,-0.0165 0.08,-0.0023 0.158,-0.0033 0.234,-0.0031 h 0.274 z" /><path
                       id="path132"
                       style="fill:#000000;fill-opacity:1;fill-rule:evenodd;stroke:none"
                       d="m 37.259,4.4208 c -7.067,7.5372 -7.067,38.0442 0,45.5812 h 0.618 c -6.682,-7.537 -6.682,-38.044 0,-45.5812" /><path
                       id="path134"
                       style="fill:#000000;fill-opacity:1;fill-rule:evenodd;stroke:none"
                       d="m 55.512,50.002 c 7.068,-7.537 7.068,-38.044 0,-45.5812 h -0.617 c 6.681,7.5372 6.681,38.0442 0,45.5812" /><path
                       id="path136"
                       style="fill:#000000;fill-opacity:1;fill-rule:evenodd;stroke:none"
                       d="m 78.394,42.412 c -0.049,-0.193 -0.103,-0.399 -0.164,-0.619 -0.061,-0.22 -0.141,-0.424 -0.243,-0.612 -0.101,-0.189 -0.228,-0.352 -0.382,-0.489 -0.153,-0.137 -0.345,-0.206 -0.576,-0.206 -0.307,0 -0.553,0.085 -0.737,0.256 -0.184,0.171 -0.29,0.345 -0.318,0.522 -0.138,-0.158 -0.343,-0.327 -0.616,-0.507 -0.273,-0.18 -0.561,-0.271 -0.864,-0.271 -0.32,0 -0.588,0.081 -0.804,0.241 -0.216,0.161 -0.385,0.364 -0.506,0.607 -0.146,0.29 -0.223,0.603 -0.231,0.937 v 0.088 c 0,0.31 0.043,0.62 0.128,0.93 0.097,0.342 0.232,0.679 0.406,1.013 0.174,0.333 0.404,0.644 0.691,0.931 0.235,0.235 0.503,0.433 0.804,0.594 0.301,0.161 0.608,0.242 0.919,0.242 0.271,0 0.491,-0.072 0.661,-0.215 0.17,-0.144 0.277,-0.262 0.322,-0.356 l -0.025,-0.1 c 0.029,0.145 0.096,0.254 0.203,0.329 0.108,0.074 0.216,0.112 0.325,0.112 0.125,0 0.23,-0.037 0.315,-0.112 0.053,-0.059 0.081,-0.137 0.085,-0.235 0,-0.036 -0.004,-0.075 -0.012,-0.118 L 76.902,41.97 c -0.041,-0.161 -0.069,-0.312 -0.085,-0.453 -0.008,-0.071 -0.012,-0.136 -0.012,-0.194 0,-0.052 0.004,-0.107 0.012,-0.165 0.012,-0.095 0.04,-0.166 0.085,-0.213 0.044,-0.047 0.107,-0.07 0.188,-0.07 0.085,0 0.165,0.035 0.239,0.106 0.075,0.07 0.144,0.175 0.207,0.315 0.062,0.139 0.122,0.306 0.179,0.5 0.056,0.195 0.115,0.406 0.175,0.634 0.024,0.101 0.093,0.152 0.207,0.153 h 0.139 c 0.105,-10e-4 0.158,-0.044 0.158,-0.13 z m -1.735,2.167 c -0.016,0.07 -0.03,0.144 -0.042,0.221 -0.012,0.076 -0.031,0.152 -0.055,0.227 -0.065,0.184 -0.157,0.338 -0.276,0.461 -0.119,0.124 -0.27,0.186 -0.452,0.186 -0.169,0 -0.337,-0.061 -0.503,-0.183 -0.166,-0.121 -0.317,-0.278 -0.455,-0.47 -0.194,-0.272 -0.339,-0.553 -0.437,-0.846 -0.097,-0.292 -0.186,-0.597 -0.267,-0.915 -0.08,-0.314 -0.147,-0.619 -0.2,-0.913 -0.032,-0.149 -0.048,-0.291 -0.048,-0.424 0,-0.141 0.016,-0.279 0.048,-0.412 0.037,-0.185 0.102,-0.337 0.197,-0.457 0.095,-0.12 0.228,-0.179 0.397,-0.179 0.187,0 0.374,0.064 0.562,0.194 0.188,0.13 0.363,0.289 0.524,0.477 0.065,0.078 0.127,0.154 0.185,0.227 0.059,0.072 0.111,0.15 0.155,0.233 z" /><path
                       id="path138"
                       style="fill:#000000;fill-opacity:1;fill-rule:evenodd;stroke:none"
                       d="m 81.69,38.911 c -0.466,0.014 -0.92,0.02 -1.362,0.02 -0.441,0 -0.895,-0.006 -1.362,-0.02 v 0.284 h 0.263 c 0.084,0 0.162,10e-4 0.236,0.003 0.073,0.002 0.143,0.008 0.209,0.017 0.066,0.008 0.123,0.017 0.171,0.026 0.041,0.006 0.074,0.027 0.101,0.061 0.027,0.034 0.04,0.072 0.04,0.114 v 3.716 C 79.859,43.077 79.703,43.035 79.518,43.007 79.333,42.978 79.13,42.964 78.909,42.964 v 0.28 c 0.305,0 0.586,0.033 0.843,0.098 0.257,0.064 0.48,0.186 0.668,0.364 h 0.118 c 0.083,0 0.125,-0.036 0.125,-0.109 v -4.181 c 0,-0.044 0.013,-0.083 0.038,-0.116 0.025,-0.033 0.062,-0.053 0.11,-0.059 0.041,-0.009 0.093,-0.018 0.156,-0.026 0.064,-0.009 0.135,-0.015 0.215,-0.017 0.08,-0.002 0.158,-0.003 0.234,-0.003 h 0.274 z" /><path
                       id="path140"
                       style="fill:#000000;fill-opacity:1;fill-rule:evenodd;stroke:none"
                       d="m 85.689,38.911 h -3.096 v 0.182 c 0,0.013 0.007,0.032 0.022,0.059 l 1.244,1.207 c 0.147,0.145 0.296,0.293 0.447,0.445 0.151,0.152 0.286,0.307 0.406,0.465 0.119,0.158 0.214,0.321 0.285,0.49 0.071,0.168 0.106,0.344 0.106,0.529 0,0.156 -0.023,0.302 -0.068,0.437 -0.046,0.135 -0.112,0.254 -0.198,0.356 -0.086,0.102 -0.194,0.185 -0.323,0.247 -0.13,0.063 -0.279,0.094 -0.449,0.095 -0.254,-0.001 -0.478,-0.068 -0.672,-0.203 -0.194,-0.136 -0.322,-0.285 -0.386,-0.447 -0.012,-0.005 0.008,-0.007 0.061,-0.007 h 0.065 c 0.076,-0.015 0.142,-0.039 0.197,-0.071 0.056,-0.032 0.103,-0.076 0.141,-0.132 0.038,-0.056 0.057,-0.123 0.057,-0.202 0,-0.132 -0.048,-0.234 -0.144,-0.304 -0.097,-0.07 -0.204,-0.105 -0.324,-0.105 -0.114,0 -0.22,0.035 -0.319,0.105 -0.099,0.07 -0.148,0.172 -0.148,0.304 0,0.184 0.04,0.359 0.121,0.524 0.082,0.165 0.192,0.308 0.331,0.428 0.14,0.121 0.304,0.217 0.495,0.287 0.19,0.071 0.392,0.106 0.605,0.106 0.263,0 0.505,-0.035 0.724,-0.104 0.22,-0.069 0.407,-0.169 0.561,-0.298 0.155,-0.13 0.276,-0.28 0.364,-0.451 0.087,-0.17 0.131,-0.358 0.131,-0.565 0,-0.229 -0.058,-0.439 -0.175,-0.632 -0.117,-0.192 -0.261,-0.369 -0.434,-0.529 -0.172,-0.16 -0.355,-0.311 -0.549,-0.453 -0.194,-0.142 -0.37,-0.28 -0.527,-0.414 l -0.875,-0.735 h 1.145 c 0.16,-10e-4 0.309,0.001 0.447,0.003 0.138,0.002 0.255,0.006 0.352,0.013 0.096,0.007 0.146,0.011 0.148,0.013 0.02,0.016 0.039,0.046 0.057,0.092 0.018,0.047 0.034,0.101 0.05,0.164 0.015,0.062 0.03,0.126 0.045,0.191 0.016,0.065 0.029,0.136 0.042,0.213 h 0.281 z" /><path
                       id="path142"
                       style="fill:#000000;fill-opacity:1;fill-rule:evenodd;stroke:none"
                       d="m 78.258,25.449 c -0.048,-0.192 -0.103,-0.398 -0.164,-0.618 -0.06,-0.22 -0.141,-0.424 -0.243,-0.613 -0.1,-0.188 -0.228,-0.351 -0.382,-0.488 -0.153,-0.138 -0.345,-0.206 -0.576,-0.206 -0.307,0 -0.553,0.085 -0.737,0.256 -0.184,0.17 -0.29,0.344 -0.318,0.521 -0.138,-0.157 -0.343,-0.326 -0.616,-0.507 -0.273,-0.18 -0.561,-0.27 -0.864,-0.27 -0.319,0 -0.587,0.08 -0.804,0.241 -0.216,0.161 -0.385,0.363 -0.506,0.607 -0.146,0.29 -0.222,0.602 -0.231,0.936 v 0.088 c 0,0.31 0.043,0.62 0.128,0.931 0.097,0.341 0.232,0.679 0.406,1.012 0.174,0.334 0.405,0.644 0.692,0.931 0.234,0.235 0.502,0.433 0.803,0.595 0.301,0.16 0.608,0.241 0.919,0.241 0.271,0 0.491,-0.072 0.661,-0.215 0.17,-0.144 0.277,-0.262 0.322,-0.356 l -0.025,-0.1 c 0.029,0.145 0.096,0.255 0.204,0.329 0.107,0.075 0.215,0.112 0.324,0.113 0.125,-10e-4 0.231,-0.038 0.316,-0.112 0.052,-0.059 0.081,-0.138 0.084,-0.236 0,-0.035 -0.004,-0.075 -0.012,-0.118 l -0.873,-3.403 c -0.041,-0.161 -0.069,-0.313 -0.085,-0.454 -0.008,-0.071 -0.012,-0.135 -0.012,-0.194 0,-0.051 0.004,-0.106 0.012,-0.165 0.012,-0.094 0.041,-0.165 0.085,-0.212 0.044,-0.047 0.107,-0.071 0.188,-0.07 0.085,-0.001 0.165,0.034 0.239,0.105 0.076,0.071 0.144,0.176 0.207,0.315 0.062,0.139 0.122,0.306 0.179,0.501 0.056,0.194 0.115,0.405 0.175,0.633 0.025,0.102 0.093,0.153 0.207,0.153 H 78.1 c 0.106,0 0.158,-0.043 0.158,-0.129 z m -1.735,2.168 c -0.016,0.07 -0.03,0.143 -0.042,0.22 -0.012,0.077 -0.031,0.152 -0.055,0.227 -0.064,0.184 -0.156,0.338 -0.276,0.462 -0.119,0.124 -0.27,0.185 -0.452,0.186 -0.169,-0.001 -0.337,-0.062 -0.503,-0.183 -0.166,-0.122 -0.317,-0.279 -0.455,-0.471 -0.194,-0.271 -0.339,-0.553 -0.436,-0.845 -0.098,-0.293 -0.187,-0.598 -0.268,-0.916 -0.08,-0.314 -0.147,-0.618 -0.2,-0.912 -0.032,-0.15 -0.048,-0.291 -0.048,-0.424 0,-0.142 0.016,-0.279 0.048,-0.412 0.037,-0.185 0.102,-0.338 0.197,-0.457 0.095,-0.12 0.228,-0.18 0.398,-0.179 0.186,-0.001 0.373,0.064 0.561,0.193 0.188,0.13 0.363,0.289 0.524,0.478 0.065,0.078 0.127,0.153 0.185,0.226 0.059,0.073 0.111,0.15 0.155,0.233 z" /><path
                       id="path144"
                       style="fill:#000000;fill-opacity:1;fill-rule:evenodd;stroke:none"
                       d="m 81.835,21.949 h -3.096 v 0.181 c 0,0.013 0.007,0.033 0.023,0.059 l 1.244,1.207 c 0.147,0.145 0.296,0.294 0.447,0.445 0.15,0.152 0.286,0.307 0.405,0.465 0.119,0.159 0.214,0.322 0.285,0.49 0.071,0.168 0.107,0.345 0.107,0.53 0,0.155 -0.023,0.301 -0.069,0.436 -0.046,0.136 -0.111,0.254 -0.198,0.356 -0.086,0.103 -0.194,0.185 -0.323,0.248 -0.129,0.062 -0.279,0.094 -0.449,0.094 -0.253,0 -0.477,-0.068 -0.671,-0.203 -0.194,-0.135 -0.323,-0.284 -0.387,-0.447 -0.012,-0.004 0.008,-0.006 0.061,-0.006 h 0.065 c 0.076,-0.016 0.142,-0.04 0.198,-0.071 0.056,-0.032 0.103,-0.076 0.141,-0.132 0.038,-0.056 0.057,-0.124 0.057,-0.203 0,-0.132 -0.048,-0.233 -0.145,-0.303 -0.096,-0.071 -0.204,-0.106 -0.323,-0.106 -0.114,0 -0.221,0.035 -0.32,0.106 -0.099,0.07 -0.148,0.171 -0.148,0.303 0,0.185 0.04,0.359 0.122,0.524 0.081,0.165 0.191,0.308 0.33,0.429 0.14,0.121 0.305,0.216 0.495,0.287 0.19,0.07 0.392,0.105 0.605,0.106 0.264,-0.001 0.505,-0.035 0.725,-0.105 0.219,-0.069 0.406,-0.168 0.561,-0.298 0.154,-0.13 0.276,-0.28 0.363,-0.45 0.088,-0.171 0.131,-0.359 0.131,-0.565 0,-0.229 -0.058,-0.44 -0.175,-0.632 -0.116,-0.193 -0.261,-0.369 -0.433,-0.529 -0.173,-0.161 -0.356,-0.312 -0.55,-0.454 -0.194,-0.142 -0.37,-0.28 -0.527,-0.413 l -0.875,-0.736 h 1.145 c 0.16,0 0.309,10e-4 0.447,0.003 0.138,0.002 0.256,0.007 0.352,0.013 0.097,0.007 0.146,0.011 0.148,0.014 0.021,0.015 0.04,0.046 0.057,0.092 0.018,0.046 0.035,0.101 0.05,0.163 0.015,0.063 0.03,0.127 0.046,0.191 0.015,0.065 0.029,0.136 0.041,0.213 h 0.282 z" /><path
                       id="path146"
                       style="fill:#000000;fill-opacity:1;fill-rule:evenodd;stroke:none"
                       d="m 85.825,21.949 h -3.097 v 0.181 c 0,0.013 0.008,0.033 0.023,0.059 l 1.244,1.207 c 0.147,0.145 0.296,0.294 0.447,0.445 0.151,0.152 0.286,0.307 0.405,0.465 0.12,0.159 0.215,0.322 0.286,0.49 0.071,0.168 0.106,0.345 0.106,0.53 0,0.155 -0.023,0.301 -0.068,0.436 -0.046,0.136 -0.112,0.254 -0.198,0.356 -0.086,0.103 -0.194,0.185 -0.323,0.248 -0.13,0.062 -0.28,0.094 -0.449,0.094 -0.254,0 -0.478,-0.068 -0.672,-0.203 -0.194,-0.135 -0.323,-0.284 -0.386,-0.447 -0.013,-0.004 0.008,-0.006 0.061,-0.006 h 0.064 c 0.077,-0.016 0.142,-0.04 0.198,-0.071 0.056,-0.032 0.103,-0.076 0.141,-0.132 0.038,-0.056 0.057,-0.124 0.057,-0.203 0,-0.132 -0.048,-0.233 -0.144,-0.303 -0.097,-0.071 -0.205,-0.106 -0.324,-0.106 -0.114,0 -0.22,0.035 -0.319,0.106 -0.099,0.07 -0.149,0.171 -0.149,0.303 0,0.185 0.041,0.359 0.122,0.524 0.081,0.165 0.192,0.308 0.331,0.429 0.139,0.121 0.304,0.216 0.494,0.287 0.191,0.07 0.392,0.105 0.605,0.106 0.264,-0.001 0.506,-0.035 0.725,-0.105 0.22,-0.069 0.407,-0.168 0.561,-0.298 0.155,-0.13 0.276,-0.28 0.364,-0.45 0.087,-0.171 0.131,-0.359 0.131,-0.565 0,-0.229 -0.059,-0.44 -0.175,-0.632 -0.117,-0.193 -0.261,-0.369 -0.434,-0.529 -0.172,-0.161 -0.356,-0.312 -0.55,-0.454 -0.194,-0.142 -0.369,-0.28 -0.526,-0.413 L 83.5,22.562 h 1.146 c 0.159,0 0.309,10e-4 0.447,0.003 0.138,0.002 0.255,0.007 0.352,0.013 0.096,0.007 0.145,0.011 0.148,0.014 0.02,0.015 0.039,0.046 0.057,0.092 0.018,0.046 0.034,0.101 0.049,0.163 0.016,0.063 0.031,0.127 0.046,0.191 0.015,0.065 0.029,0.136 0.042,0.213 h 0.281 z" /><path
                       id="path148"
                       style="fill:#000000;fill-opacity:1;fill-rule:evenodd;stroke:none"
                       d="M 78.231,8.4869 C 78.182,8.2941 78.128,8.088 78.067,7.8682 78.006,7.6482 77.925,7.4443 77.824,7.2558 77.723,7.0674 77.596,6.9043 77.442,6.7671 77.289,6.6298 77.097,6.5613 76.866,6.5613 c -0.307,0 -0.553,0.085 -0.737,0.2558 -0.184,0.1708 -0.29,0.3445 -0.318,0.5215 C 75.673,7.1811 75.468,7.0122 75.195,6.8318 74.922,6.6515 74.634,6.5613 74.331,6.5613 c -0.32,0 -0.588,0.0803 -0.804,0.2411 -0.216,0.1608 -0.385,0.3632 -0.506,0.6069 -0.146,0.29 -0.223,0.6021 -0.231,0.9363 v 0.0883 c 0,0.3099 0.043,0.6198 0.128,0.9304 0.097,0.3412 0.232,0.6787 0.406,1.0127 0.174,0.333 0.404,0.644 0.691,0.931 0.235,0.235 0.503,0.433 0.804,0.594 0.301,0.161 0.607,0.241 0.919,0.242 0.271,-10e-4 0.491,-0.072 0.661,-0.216 0.17,-0.143 0.277,-0.262 0.322,-0.355 l -0.025,-0.101 c 0.029,0.145 0.096,0.255 0.203,0.33 0.108,0.074 0.216,0.112 0.325,0.112 0.125,0 0.23,-0.037 0.315,-0.112 0.053,-0.059 0.081,-0.137 0.085,-0.235 0,-0.036 -0.004,-0.075 -0.012,-0.118 L 76.739,8.0453 C 76.698,7.8841 76.67,7.7328 76.654,7.5918 76.646,7.5208 76.642,7.456 76.642,7.3975 c 0,-0.0515 0.004,-0.1063 0.012,-0.1649 0.012,-0.0946 0.04,-0.1652 0.085,-0.2123 0.044,-0.0471 0.107,-0.0707 0.188,-0.0703 0.085,-4e-4 0.165,0.0349 0.239,0.1056 0.075,0.0707 0.144,0.1756 0.207,0.3151 0.062,0.1391 0.122,0.3062 0.179,0.5005 0.056,0.1943 0.115,0.4052 0.175,0.6334 0.024,0.1016 0.093,0.1527 0.207,0.1531 h 0.139 c 0.105,-4e-4 0.158,-0.0434 0.158,-0.1296 z m -1.735,2.1671 c -0.016,0.07 -0.03,0.144 -0.042,0.22 -0.012,0.077 -0.031,0.152 -0.055,0.227 -0.065,0.185 -0.157,0.339 -0.276,0.462 -0.119,0.124 -0.27,0.186 -0.452,0.186 -0.169,0 -0.337,-0.061 -0.503,-0.183 -0.166,-0.121 -0.317,-0.278 -0.455,-0.47 C 74.519,10.824 74.374,10.542 74.276,10.25 74.179,9.9576 74.09,9.6525 74.009,9.3349 73.929,9.0206 73.862,8.7162 73.809,8.4221 73.777,8.2727 73.761,8.1314 73.761,7.9982 c 0,-0.1417 0.016,-0.279 0.048,-0.4122 0.037,-0.1848 0.102,-0.3372 0.197,-0.4568 0.095,-0.12 0.228,-0.1796 0.397,-0.1792 0.187,-4e-4 0.374,0.0644 0.562,0.1939 0.188,0.1296 0.362,0.2886 0.524,0.4774 0.065,0.078 0.127,0.1535 0.185,0.2263 0.059,0.0725 0.111,0.1502 0.155,0.233 z" /><path
                       id="path150"
                       style="fill:#000000;fill-opacity:1;fill-rule:evenodd;stroke:none"
                       d="M 82.172,6.2294 C 82.172,6.0402 82.125,5.8587 82.031,5.6851 81.937,5.5114 81.812,5.363 81.654,5.2401 81.477,5.1014 81.281,4.9988 81.067,4.9318 80.852,4.8646 80.628,4.8312 80.395,4.8312 c -0.211,0 -0.416,0.0264 -0.616,0.0792 -0.2,0.0527 -0.381,0.1284 -0.542,0.2273 -0.161,0.0989 -0.29,0.2203 -0.386,0.3644 -0.097,0.1439 -0.145,0.3094 -0.145,0.4965 0,0.1406 0.053,0.2455 0.158,0.3147 0.105,0.0693 0.216,0.1039 0.333,0.1041 0.122,-2e-4 0.235,-0.0348 0.34,-0.1041 C 79.642,6.2441 79.695,6.1392 79.695,5.9986 79.695,5.9149 79.677,5.8451 79.64,5.789 79.603,5.7329 79.556,5.6861 79.499,5.6488 79.442,5.6113 79.377,5.5885 79.303,5.5798 79.265,5.5707 79.23,5.5664 79.197,5.5666 79.164,5.5664 79.159,5.5641 79.182,5.56 79.26,5.4368 79.415,5.3277 79.646,5.2333 c 0.231,-0.0946 0.48,-0.1418 0.749,-0.1416 0.127,-2e-4 0.245,0.0279 0.356,0.0839 0.11,0.0561 0.202,0.1313 0.276,0.2261 0.091,0.1229 0.153,0.2548 0.186,0.3955 0.033,0.1406 0.049,0.2847 0.049,0.4322 0,0.1515 -0.016,0.297 -0.049,0.4368 -0.033,0.1395 -0.095,0.2687 -0.186,0.3876 -0.077,0.0965 -0.169,0.1746 -0.278,0.234 -0.109,0.0593 -0.227,0.089 -0.354,0.0892 h -0.551 c -0.074,-2e-4 -0.113,0.0305 -0.118,0.0924 v 0.0362 c 0,0.0262 0.009,0.047 0.026,0.0627 0.023,0.0196 0.052,0.0295 0.088,0.0297 0.073,0.0086 0.149,0.0129 0.228,0.0132 0.076,-3e-4 0.151,0.0041 0.224,0.0131 0.137,0.0087 0.257,0.0464 0.358,0.1136 0.102,0.067 0.187,0.1527 0.255,0.2572 0.068,0.1043 0.12,0.2247 0.156,0.3611 0.035,0.1363 0.053,0.276 0.053,0.419 0,0.1053 -0.013,0.2053 -0.038,0.2999 -0.025,0.0944 -0.072,0.177 -0.141,0.2475 C 80.793,9.4675 80.613,9.539 80.395,9.537 80.162,9.5368 79.948,9.4976 79.754,9.4197 79.56,9.3416 79.43,9.2575 79.364,9.1676 79.347,9.1652 79.355,9.1641 79.391,9.1643 c 0.091,-2e-4 0.177,-0.0243 0.258,-0.0725 0.122,-0.0639 0.183,-0.1717 0.183,-0.3232 0,-0.1278 -0.046,-0.224 -0.139,-0.2887 -0.092,-0.0649 -0.196,-0.0973 -0.31,-0.0971 -0.111,-2e-4 -0.216,0.0315 -0.314,0.0954 -0.097,0.0637 -0.146,0.1606 -0.146,0.2904 0,0.1604 0.043,0.302 0.129,0.4252 0.087,0.1231 0.197,0.2286 0.333,0.3166 0.136,0.0878 0.292,0.155 0.47,0.2012 0.178,0.0461 0.358,0.0692 0.54,0.0694 0.195,-2e-4 0.384,-0.0233 0.567,-0.0694 0.183,-0.0462 0.355,-0.1177 0.517,-0.2142 0.132,-0.0837 0.243,-0.1865 0.333,-0.3085 0.09,-0.122 0.135,-0.2599 0.135,-0.4137 0,-0.1541 -0.031,-0.2992 -0.093,-0.4355 C 81.792,8.2033 81.71,8.0802 81.607,7.9704 81.504,7.8603 81.382,7.7637 81.24,7.6802 81.098,7.5965 80.991,7.544 80.92,7.5221 80.981,7.5153 81.085,7.4828 81.232,7.4246 81.379,7.3663 81.52,7.2888 81.654,7.1923 81.812,7.0712 81.937,6.9267 82.031,6.7585 82.125,6.5903 82.172,6.4139 82.172,6.2294 Z" /><path
                       id="path152"
                       style="fill:#000000;fill-opacity:1;fill-rule:evenodd;stroke:none"
                       d="m 85.852,4.9862 h -3.096 v 0.1814 c 0,0.013 0.007,0.0328 0.022,0.0593 l 1.244,1.207 c 0.147,0.1449 0.296,0.2933 0.447,0.445 0.151,0.1517 0.286,0.3066 0.406,0.4649 0.119,0.1583 0.214,0.3216 0.285,0.4897 0.071,0.1682 0.106,0.3446 0.106,0.5295 0,0.1558 -0.023,0.3015 -0.068,0.4368 C 85.152,8.935 85.086,9.0537 85,9.1559 84.914,9.2581 84.806,9.3406 84.677,9.4032 84.548,9.4659 84.398,9.4972 84.228,9.4974 83.974,9.4972 83.75,9.4296 83.556,9.2944 83.362,9.1592 83.234,9.0102 83.17,8.8478 83.158,8.8432 83.178,8.841 83.231,8.8412 h 0.065 c 0.076,-0.0157 0.142,-0.0394 0.198,-0.0711 0.055,-0.032 0.102,-0.0759 0.14,-0.1319 0.038,-0.0561 0.057,-0.1237 0.057,-0.2026 0,-0.1321 -0.048,-0.2333 -0.144,-0.3036 -0.097,-0.0705 -0.204,-0.1055 -0.324,-0.1053 -0.114,-2e-4 -0.22,0.0348 -0.319,0.1053 -0.099,0.0703 -0.148,0.1715 -0.148,0.3036 0,0.1844 0.04,0.3592 0.121,0.5241 0.082,0.1649 0.192,0.3077 0.331,0.4287 0.14,0.1208 0.304,0.2164 0.495,0.2869 0.19,0.0703 0.392,0.1055 0.605,0.1057 0.264,-2e-4 0.505,-0.0348 0.724,-0.1041 0.22,-0.0692 0.407,-0.1688 0.561,-0.2984 C 85.748,9.2486 85.869,9.0986 85.957,8.9284 86.044,8.7579 86.088,8.5695 86.088,8.363 86.088,8.1342 86.03,7.9236 85.913,7.7313 85.796,7.5388 85.652,7.3624 85.479,7.202 85.307,7.0415 85.124,6.8904 84.93,6.7486 84.736,6.6068 84.56,6.4689 84.403,6.335 L 83.528,5.5996 h 1.145 c 0.16,-2e-4 0.309,8e-4 0.447,0.0031 0.138,0.002 0.255,0.0066 0.352,0.0132 0.096,0.0066 0.146,0.0109 0.148,0.0134 0.02,0.0152 0.039,0.0459 0.057,0.0921 0.018,0.0462 0.034,0.1006 0.05,0.1632 0.015,0.0627 0.03,0.1264 0.045,0.1913 0.016,0.0647 0.029,0.1358 0.042,0.2129 h 0.281 z" /><path
                       id="path154"
                       style="fill:#000000;fill-opacity:1;fill-rule:evenodd;stroke:none"
                       d="m 70.293,4.4208 c -7.067,7.5372 -7.067,38.0442 0,45.5812 h 0.618 c -6.682,-7.537 -6.682,-38.044 0,-45.5812" /><path
                       id="path156"
                       style="fill:#000000;fill-opacity:1;fill-rule:evenodd;stroke:none"
                       d="m 88.547,50.002 c 7.067,-7.537 7.067,-38.044 0,-45.5812 h -0.618 c 6.681,7.5372 6.681,38.0442 0,45.5812" /><path
                       id="path158"
                       style="fill:#000000;fill-opacity:1;fill-rule:evenodd;stroke:none"
                       d="m 111.43,42.412 c -0.05,-0.193 -0.1,-0.399 -0.17,-0.619 -0.06,-0.22 -0.14,-0.424 -0.24,-0.612 -0.1,-0.189 -0.23,-0.352 -0.38,-0.489 -0.15,-0.137 -0.35,-0.206 -0.58,-0.206 -0.3,0 -0.55,0.085 -0.73,0.256 -0.19,0.171 -0.29,0.345 -0.32,0.522 -0.14,-0.158 -0.34,-0.327 -0.62,-0.507 -0.27,-0.18 -0.56,-0.271 -0.86,-0.271 -0.32,0 -0.59,0.081 -0.81,0.241 -0.21,0.161 -0.38,0.364 -0.5,0.607 -0.15,0.29 -0.22,0.603 -0.23,0.937 v 0.088 c 0,0.31 0.04,0.62 0.12,0.93 0.1,0.342 0.24,0.679 0.41,1.013 0.18,0.333 0.41,0.644 0.69,0.931 0.24,0.235 0.51,0.433 0.81,0.594 0.3,0.161 0.6,0.242 0.91,0.242 0.28,0 0.5,-0.072 0.67,-0.215 0.17,-0.144 0.27,-0.262 0.32,-0.356 l -0.03,-0.1 c 0.03,0.145 0.1,0.254 0.21,0.329 0.1,0.074 0.21,0.112 0.32,0.112 0.13,0 0.23,-0.037 0.32,-0.112 0.05,-0.059 0.08,-0.137 0.08,-0.235 0,-0.036 0,-0.075 -0.01,-0.118 l -0.87,-3.404 c -0.04,-0.161 -0.07,-0.312 -0.09,-0.453 -0.01,-0.071 -0.01,-0.136 -0.01,-0.194 0,-0.052 0,-0.107 0.01,-0.165 0.01,-0.095 0.04,-0.166 0.09,-0.213 0.04,-0.047 0.1,-0.07 0.18,-0.07 0.09,0 0.17,0.035 0.24,0.106 0.08,0.07 0.15,0.175 0.21,0.315 0.06,0.139 0.12,0.306 0.18,0.5 0.06,0.195 0.11,0.406 0.17,0.634 0.03,0.101 0.1,0.152 0.21,0.153 h 0.14 c 0.11,-10e-4 0.16,-0.044 0.16,-0.13 z m -1.74,2.167 c -0.01,0.07 -0.03,0.144 -0.04,0.221 -0.01,0.076 -0.03,0.152 -0.05,0.227 -0.07,0.184 -0.16,0.338 -0.28,0.461 -0.12,0.124 -0.27,0.186 -0.45,0.186 -0.17,0 -0.34,-0.061 -0.51,-0.183 -0.16,-0.121 -0.31,-0.278 -0.45,-0.47 -0.19,-0.272 -0.34,-0.553 -0.44,-0.846 -0.09,-0.292 -0.18,-0.597 -0.26,-0.915 -0.08,-0.314 -0.15,-0.619 -0.2,-0.913 -0.04,-0.149 -0.05,-0.291 -0.05,-0.424 0,-0.141 0.01,-0.279 0.05,-0.412 0.03,-0.185 0.1,-0.337 0.19,-0.457 0.1,-0.12 0.23,-0.179 0.4,-0.179 0.19,0 0.37,0.064 0.56,0.194 0.19,0.13 0.36,0.289 0.53,0.477 0.06,0.078 0.12,0.154 0.18,0.227 0.06,0.072 0.11,0.15 0.16,0.233 z" /><path
                       id="path160"
                       style="fill:#000000;fill-opacity:1;fill-rule:evenodd;stroke:none"
                       d="m 114.72,38.911 c -0.46,0.014 -0.92,0.02 -1.36,0.02 -0.44,0 -0.89,-0.006 -1.36,-0.02 v 0.284 h 0.26 c 0.09,0 0.17,10e-4 0.24,0.003 0.07,0.002 0.14,0.008 0.21,0.017 0.06,0.008 0.12,0.017 0.17,0.026 0.04,0.006 0.07,0.027 0.1,0.061 0.03,0.034 0.04,0.072 0.04,0.114 v 3.716 c -0.13,-0.055 -0.28,-0.097 -0.47,-0.125 -0.18,-0.029 -0.39,-0.043 -0.61,-0.043 v 0.28 c 0.31,0 0.59,0.033 0.85,0.098 0.25,0.064 0.48,0.186 0.66,0.364 h 0.12 c 0.09,0 0.13,-0.036 0.13,-0.109 v -4.181 c 0,-0.044 0.01,-0.083 0.04,-0.116 0.02,-0.033 0.06,-0.053 0.11,-0.059 0.04,-0.009 0.09,-0.018 0.15,-0.026 0.06,-0.009 0.14,-0.015 0.22,-0.017 0.08,-0.002 0.15,-0.003 0.23,-0.003 h 0.27 z" /><path
                       id="path162"
                       style="fill:#000000;fill-opacity:1;fill-rule:evenodd;stroke:none"
                       d="m 119.03,40.155 c 0,-0.19 -0.05,-0.371 -0.14,-0.545 -0.09,-0.174 -0.22,-0.322 -0.38,-0.445 -0.17,-0.138 -0.37,-0.241 -0.58,-0.308 -0.22,-0.067 -0.44,-0.101 -0.68,-0.101 -0.21,0 -0.41,0.027 -0.61,0.079 -0.2,0.053 -0.38,0.129 -0.54,0.228 -0.16,0.099 -0.29,0.22 -0.39,0.364 -0.1,0.144 -0.14,0.31 -0.14,0.497 0,0.14 0.05,0.245 0.15,0.314 0.11,0.07 0.22,0.104 0.34,0.105 0.12,-0.001 0.23,-0.035 0.34,-0.105 0.1,-0.069 0.15,-0.174 0.15,-0.314 0,-0.084 -0.01,-0.154 -0.05,-0.21 -0.04,-0.056 -0.08,-0.103 -0.14,-0.14 -0.06,-0.038 -0.12,-0.06 -0.2,-0.069 -0.04,-0.009 -0.07,-0.013 -0.1,-0.013 -0.04,0 -0.04,-0.003 -0.02,-0.007 0.08,-0.123 0.23,-0.232 0.47,-0.327 0.23,-0.094 0.48,-0.141 0.74,-0.141 0.13,0 0.25,0.028 0.36,0.084 0.11,0.056 0.2,0.131 0.28,0.226 0.09,0.123 0.15,0.255 0.18,0.395 0.04,0.141 0.05,0.285 0.05,0.433 0,0.151 -0.01,0.297 -0.05,0.436 -0.03,0.14 -0.09,0.269 -0.18,0.388 -0.08,0.096 -0.17,0.175 -0.28,0.234 -0.11,0.059 -0.23,0.089 -0.36,0.089 h -0.55 c -0.07,0 -0.11,0.031 -0.11,0.092 v 0.037 c 0,0.026 0,0.047 0.02,0.062 0.02,0.02 0.05,0.03 0.09,0.03 0.07,0.009 0.15,0.013 0.23,0.013 0.07,0 0.15,0.004 0.22,0.013 0.14,0.009 0.26,0.047 0.36,0.114 0.1,0.067 0.19,0.153 0.25,0.257 0.07,0.105 0.12,0.225 0.16,0.361 0.04,0.137 0.05,0.276 0.05,0.419 0,0.106 -0.01,0.206 -0.03,0.3 -0.03,0.095 -0.08,0.177 -0.15,0.248 -0.14,0.145 -0.32,0.216 -0.54,0.214 -0.23,0 -0.44,-0.039 -0.64,-0.117 -0.19,-0.078 -0.32,-0.162 -0.39,-0.252 -0.01,-0.003 -0.01,-0.004 0.03,-0.004 0.09,0 0.18,-0.024 0.26,-0.072 0.12,-0.064 0.18,-0.172 0.18,-0.323 0,-0.128 -0.04,-0.224 -0.14,-0.289 -0.09,-0.065 -0.19,-0.097 -0.31,-0.097 -0.11,0 -0.21,0.031 -0.31,0.095 -0.1,0.064 -0.15,0.161 -0.15,0.291 0,0.16 0.05,0.302 0.13,0.425 0.09,0.123 0.2,0.228 0.33,0.317 0.14,0.087 0.3,0.154 0.47,0.201 0.18,0.046 0.36,0.069 0.54,0.069 0.2,0 0.39,-0.023 0.57,-0.069 0.18,-0.047 0.36,-0.118 0.52,-0.214 0.13,-0.084 0.24,-0.187 0.33,-0.309 0.09,-0.122 0.14,-0.26 0.14,-0.414 0,-0.154 -0.03,-0.299 -0.1,-0.435 -0.06,-0.137 -0.14,-0.26 -0.24,-0.37 -0.11,-0.11 -0.23,-0.206 -0.37,-0.29 -0.14,-0.083 -0.25,-0.136 -0.32,-0.158 0.06,-0.007 0.16,-0.039 0.31,-0.097 0.15,-0.059 0.29,-0.136 0.42,-0.233 0.16,-0.121 0.29,-0.265 0.38,-0.433 0.09,-0.169 0.14,-0.345 0.14,-0.529 z" /><path
                       id="path164"
                       style="fill:#000000;fill-opacity:1;fill-rule:evenodd;stroke:none"
                       d="m 111.29,25.449 c -0.05,-0.192 -0.1,-0.398 -0.16,-0.618 -0.06,-0.22 -0.14,-0.424 -0.24,-0.613 -0.11,-0.188 -0.23,-0.351 -0.39,-0.488 -0.15,-0.138 -0.34,-0.206 -0.57,-0.206 -0.31,0 -0.56,0.085 -0.74,0.256 -0.18,0.17 -0.29,0.344 -0.32,0.521 -0.14,-0.157 -0.34,-0.326 -0.61,-0.507 -0.28,-0.18 -0.56,-0.27 -0.87,-0.27 -0.32,0 -0.59,0.08 -0.8,0.241 -0.22,0.161 -0.39,0.363 -0.51,0.607 -0.14,0.29 -0.22,0.602 -0.23,0.936 v 0.088 c 0,0.31 0.04,0.62 0.13,0.931 0.1,0.341 0.23,0.679 0.41,1.012 0.17,0.334 0.4,0.644 0.69,0.931 0.23,0.235 0.5,0.433 0.8,0.595 0.3,0.16 0.61,0.241 0.92,0.241 0.27,0 0.49,-0.072 0.66,-0.215 0.17,-0.144 0.28,-0.262 0.32,-0.356 l -0.02,-0.1 c 0.03,0.145 0.09,0.255 0.2,0.329 0.11,0.075 0.22,0.112 0.33,0.113 0.12,-10e-4 0.23,-0.038 0.31,-0.112 0.05,-0.059 0.08,-0.138 0.09,-0.236 0,-0.035 -0.01,-0.075 -0.02,-0.118 l -0.87,-3.403 c -0.04,-0.161 -0.07,-0.313 -0.09,-0.454 0,-0.071 -0.01,-0.135 -0.01,-0.194 0,-0.051 0.01,-0.106 0.01,-0.165 0.02,-0.094 0.05,-0.165 0.09,-0.212 0.04,-0.047 0.11,-0.071 0.19,-0.07 0.08,-0.001 0.16,0.034 0.24,0.105 0.07,0.071 0.14,0.176 0.2,0.315 0.07,0.139 0.13,0.306 0.18,0.501 0.06,0.194 0.12,0.405 0.18,0.633 0.02,0.102 0.09,0.153 0.2,0.153 h 0.14 c 0.11,0 0.16,-0.043 0.16,-0.129 z m -1.73,2.168 c -0.02,0.07 -0.03,0.143 -0.05,0.22 -0.01,0.077 -0.03,0.152 -0.05,0.227 -0.06,0.184 -0.16,0.338 -0.28,0.462 -0.11,0.124 -0.27,0.185 -0.45,0.186 -0.17,-0.001 -0.33,-0.062 -0.5,-0.183 -0.17,-0.122 -0.32,-0.279 -0.46,-0.471 -0.19,-0.271 -0.34,-0.553 -0.43,-0.845 -0.1,-0.293 -0.19,-0.598 -0.27,-0.916 -0.08,-0.314 -0.15,-0.618 -0.2,-0.912 -0.03,-0.15 -0.05,-0.291 -0.05,-0.424 0,-0.142 0.02,-0.279 0.05,-0.412 0.04,-0.185 0.1,-0.338 0.2,-0.457 0.09,-0.12 0.22,-0.18 0.39,-0.179 0.19,-0.001 0.38,0.064 0.57,0.193 0.18,0.13 0.36,0.289 0.52,0.478 0.07,0.078 0.13,0.153 0.19,0.226 0.05,0.073 0.11,0.15 0.15,0.233 z" /><path
                       id="path166"
                       style="fill:#000000;fill-opacity:1;fill-rule:evenodd;stroke:none"
                       d="m 114.87,21.949 h -3.1 v 0.181 c 0,0.013 0.01,0.033 0.03,0.059 l 1.24,1.207 c 0.15,0.145 0.3,0.294 0.45,0.445 0.15,0.152 0.28,0.307 0.4,0.465 0.12,0.159 0.22,0.322 0.29,0.49 0.07,0.168 0.1,0.345 0.1,0.53 0,0.155 -0.02,0.301 -0.06,0.436 -0.05,0.136 -0.12,0.254 -0.2,0.356 -0.09,0.103 -0.2,0.185 -0.33,0.248 -0.13,0.062 -0.27,0.094 -0.44,0.094 -0.26,0 -0.48,-0.068 -0.68,-0.203 -0.19,-0.135 -0.32,-0.284 -0.38,-0.447 -0.02,-0.004 0.01,-0.006 0.06,-0.006 h 0.06 c 0.08,-0.016 0.14,-0.04 0.2,-0.071 0.06,-0.032 0.1,-0.076 0.14,-0.132 0.04,-0.056 0.06,-0.124 0.06,-0.203 0,-0.132 -0.05,-0.233 -0.15,-0.303 -0.09,-0.071 -0.2,-0.106 -0.32,-0.106 -0.11,0 -0.22,0.035 -0.32,0.106 -0.1,0.07 -0.15,0.171 -0.15,0.303 0,0.185 0.04,0.359 0.12,0.524 0.09,0.165 0.2,0.308 0.34,0.429 0.13,0.121 0.3,0.216 0.49,0.287 0.19,0.07 0.39,0.105 0.61,0.106 0.26,-0.001 0.5,-0.035 0.72,-0.105 0.22,-0.069 0.41,-0.168 0.56,-0.298 0.16,-0.13 0.28,-0.28 0.36,-0.45 0.09,-0.171 0.14,-0.359 0.14,-0.565 0,-0.229 -0.06,-0.44 -0.18,-0.632 -0.12,-0.193 -0.26,-0.369 -0.43,-0.529 -0.18,-0.161 -0.36,-0.312 -0.55,-0.454 -0.2,-0.142 -0.37,-0.28 -0.53,-0.413 l -0.87,-0.736 h 1.14 c 0.16,0 0.31,10e-4 0.45,0.003 0.14,0.002 0.25,0.007 0.35,0.013 0.1,0.007 0.14,0.011 0.15,0.014 0.02,0.015 0.04,0.046 0.05,0.092 0.02,0.046 0.04,0.101 0.05,0.163 0.02,0.063 0.03,0.127 0.05,0.191 0.01,0.065 0.03,0.136 0.04,0.213 h 0.28 z" /><path
                       id="path168"
                       style="fill:#000000;fill-opacity:1;fill-rule:evenodd;stroke:none"
                       d="m 119.17,23.192 c 0,-0.189 -0.05,-0.371 -0.14,-0.544 -0.1,-0.174 -0.22,-0.322 -0.38,-0.445 -0.18,-0.139 -0.37,-0.242 -0.59,-0.309 -0.21,-0.067 -0.44,-0.1 -0.67,-0.1 -0.21,0 -0.42,0.026 -0.62,0.079 -0.2,0.053 -0.38,0.128 -0.54,0.227 -0.16,0.099 -0.29,0.221 -0.38,0.365 -0.1,0.144 -0.15,0.309 -0.15,0.496 0,0.141 0.05,0.246 0.16,0.315 0.1,0.069 0.22,0.104 0.33,0.104 0.12,0 0.24,-0.035 0.34,-0.104 0.11,-0.069 0.16,-0.174 0.16,-0.315 0,-0.084 -0.02,-0.153 -0.05,-0.209 -0.04,-0.057 -0.09,-0.103 -0.15,-0.141 -0.05,-0.037 -0.12,-0.06 -0.19,-0.069 -0.04,-0.009 -0.07,-0.013 -0.11,-0.013 -0.03,0 -0.04,-0.002 -0.01,-0.006 0.08,-0.124 0.23,-0.233 0.46,-0.327 0.23,-0.095 0.48,-0.142 0.75,-0.142 0.13,0 0.25,0.028 0.36,0.084 0.11,0.056 0.2,0.131 0.27,0.226 0.09,0.123 0.16,0.255 0.19,0.396 0.03,0.14 0.05,0.284 0.05,0.432 0,0.151 -0.02,0.297 -0.05,0.437 -0.03,0.139 -0.1,0.268 -0.19,0.387 -0.07,0.097 -0.17,0.175 -0.28,0.234 -0.1,0.06 -0.22,0.089 -0.35,0.09 h -0.55 c -0.07,-0.001 -0.11,0.03 -0.12,0.092 v 0.036 c 0,0.026 0.01,0.047 0.03,0.063 0.02,0.019 0.05,0.029 0.09,0.03 0.07,0.008 0.14,0.012 0.22,0.013 0.08,-0.001 0.15,0.004 0.23,0.013 0.13,0.009 0.25,0.046 0.36,0.113 0.1,0.067 0.18,0.153 0.25,0.258 0.07,0.104 0.12,0.224 0.16,0.361 0.03,0.136 0.05,0.276 0.05,0.419 0,0.105 -0.01,0.205 -0.04,0.3 -0.02,0.094 -0.07,0.177 -0.14,0.247 -0.14,0.145 -0.32,0.217 -0.54,0.215 -0.23,-0.001 -0.45,-0.04 -0.64,-0.118 -0.19,-0.078 -0.32,-0.162 -0.39,-0.252 -0.02,-0.002 -0.01,-0.003 0.03,-0.003 0.09,0 0.17,-0.024 0.25,-0.073 0.13,-0.064 0.19,-0.171 0.19,-0.323 0,-0.128 -0.05,-0.224 -0.14,-0.289 -0.09,-0.064 -0.2,-0.097 -0.31,-0.097 -0.11,0 -0.22,0.032 -0.32,0.096 -0.09,0.063 -0.14,0.16 -0.14,0.29 0,0.161 0.04,0.302 0.13,0.425 0.08,0.123 0.19,0.229 0.33,0.317 0.14,0.088 0.29,0.155 0.47,0.201 0.18,0.046 0.36,0.069 0.54,0.07 0.2,-0.001 0.38,-0.024 0.57,-0.07 0.18,-0.046 0.35,-0.118 0.51,-0.214 0.14,-0.084 0.25,-0.187 0.34,-0.309 0.09,-0.122 0.13,-0.259 0.13,-0.413 0,-0.154 -0.03,-0.299 -0.09,-0.436 -0.06,-0.136 -0.14,-0.259 -0.25,-0.369 -0.1,-0.11 -0.22,-0.207 -0.36,-0.29 -0.15,-0.084 -0.25,-0.136 -0.32,-0.158 0.06,-0.007 0.16,-0.04 0.31,-0.098 0.14,-0.058 0.29,-0.136 0.42,-0.232 0.16,-0.121 0.28,-0.266 0.38,-0.434 0.09,-0.168 0.14,-0.345 0.14,-0.529 z" /><path
                       id="path170"
                       style="fill:#000000;fill-opacity:1;fill-rule:evenodd;stroke:none"
                       d="m 111.26,8.4869 c -0.04,-0.1928 -0.1,-0.3989 -0.16,-0.6187 -0.06,-0.22 -0.14,-0.4239 -0.24,-0.6124 -0.1,-0.1884 -0.23,-0.3515 -0.38,-0.4887 -0.16,-0.1373 -0.35,-0.2058 -0.58,-0.2058 -0.31,0 -0.55,0.085 -0.74,0.2558 -0.18,0.1708 -0.29,0.3445 -0.32,0.5215 -0.13,-0.1575 -0.34,-0.3264 -0.61,-0.5068 -0.27,-0.1803 -0.56,-0.2705 -0.87,-0.2705 -0.31,0 -0.58,0.0803 -0.8,0.2411 -0.22,0.1608 -0.38,0.3632 -0.51,0.6069 -0.14,0.29 -0.22,0.6021 -0.23,0.9363 v 0.0883 c 0,0.3099 0.05,0.6198 0.13,0.9304 0.1,0.3412 0.23,0.6787 0.41,1.0127 0.17,0.333 0.4,0.644 0.69,0.931 0.23,0.235 0.5,0.433 0.8,0.594 0.3,0.161 0.61,0.241 0.92,0.242 0.27,-10e-4 0.49,-0.072 0.66,-0.216 0.17,-0.143 0.28,-0.262 0.32,-0.355 l -0.02,-0.101 c 0.03,0.145 0.1,0.255 0.2,0.33 0.11,0.074 0.22,0.112 0.33,0.112 0.12,0 0.23,-0.037 0.31,-0.112 0.06,-0.059 0.08,-0.137 0.09,-0.235 0,-0.036 -0.01,-0.075 -0.01,-0.118 l -0.88,-3.4037 c -0.04,-0.1612 -0.07,-0.3125 -0.08,-0.4535 -0.01,-0.071 -0.01,-0.1358 -0.01,-0.1943 0,-0.0515 0,-0.1063 0.01,-0.1649 0.01,-0.0946 0.04,-0.1652 0.08,-0.2123 0.05,-0.0471 0.11,-0.0707 0.19,-0.0703 0.09,-4e-4 0.17,0.0349 0.24,0.1056 0.08,0.0707 0.14,0.1756 0.21,0.3151 0.06,0.1391 0.12,0.3062 0.18,0.5005 0.05,0.1943 0.11,0.4052 0.17,0.6334 0.03,0.1016 0.09,0.1527 0.21,0.1531 h 0.14 c 0.1,-4e-4 0.15,-0.0434 0.15,-0.1296 z m -1.73,2.1671 c -0.02,0.07 -0.03,0.144 -0.04,0.22 -0.01,0.077 -0.03,0.152 -0.06,0.227 -0.06,0.185 -0.15,0.339 -0.27,0.462 -0.12,0.124 -0.27,0.186 -0.45,0.186 -0.17,0 -0.34,-0.061 -0.51,-0.183 -0.16,-0.121 -0.32,-0.278 -0.45,-0.47 -0.2,-0.272 -0.34,-0.554 -0.44,-0.846 -0.1,-0.2924 -0.19,-0.5975 -0.27,-0.9151 -0.08,-0.3143 -0.14,-0.6187 -0.2,-0.9128 -0.03,-0.1494 -0.05,-0.2907 -0.05,-0.4239 0,-0.1417 0.02,-0.279 0.05,-0.4122 0.04,-0.1848 0.11,-0.3372 0.2,-0.4568 0.1,-0.12 0.23,-0.1796 0.4,-0.1792 0.18,-4e-4 0.37,0.0644 0.56,0.1939 0.19,0.1296 0.36,0.2886 0.52,0.4774 0.07,0.078 0.13,0.1535 0.19,0.2263 0.06,0.0725 0.11,0.1502 0.15,0.233 z" /><path
                       id="path172"
                       style="fill:#000000;fill-opacity:1;fill-rule:evenodd;stroke:none"
                       d="m 115.21,6.2294 c 0,-0.1892 -0.05,-0.3707 -0.14,-0.5443 -0.1,-0.1737 -0.22,-0.3221 -0.38,-0.445 -0.18,-0.1387 -0.38,-0.2413 -0.59,-0.3083 -0.21,-0.0672 -0.44,-0.1006 -0.67,-0.1006 -0.21,0 -0.42,0.0264 -0.62,0.0792 -0.2,0.0527 -0.38,0.1284 -0.54,0.2273 -0.16,0.0989 -0.29,0.2203 -0.39,0.3644 -0.09,0.1439 -0.14,0.3094 -0.14,0.4965 0,0.1406 0.05,0.2455 0.16,0.3147 0.1,0.0693 0.21,0.1039 0.33,0.1041 0.12,-2e-4 0.24,-0.0348 0.34,-0.1041 0.11,-0.0692 0.16,-0.1741 0.16,-0.3147 0,-0.0837 -0.02,-0.1535 -0.06,-0.2096 -0.03,-0.0561 -0.08,-0.1029 -0.14,-0.1402 -0.05,-0.0375 -0.12,-0.0603 -0.19,-0.069 -0.04,-0.0091 -0.08,-0.0134 -0.11,-0.0132 -0.03,-2e-4 -0.04,-0.0025 -0.01,-0.0066 0.07,-0.1232 0.23,-0.2323 0.46,-0.3267 0.23,-0.0946 0.48,-0.1418 0.75,-0.1416 0.13,-2e-4 0.24,0.0279 0.35,0.0839 0.12,0.0561 0.21,0.1313 0.28,0.2261 0.09,0.1229 0.15,0.2548 0.19,0.3955 0.03,0.1406 0.05,0.2847 0.05,0.4322 0,0.1515 -0.02,0.297 -0.05,0.4368 -0.04,0.1395 -0.1,0.2687 -0.19,0.3876 -0.08,0.0965 -0.17,0.1746 -0.28,0.234 -0.11,0.0593 -0.22,0.089 -0.35,0.0892 h -0.55 c -0.08,-2e-4 -0.12,0.0305 -0.12,0.0924 v 0.0362 c 0,0.0262 0.01,0.047 0.03,0.0627 0.02,0.0196 0.05,0.0295 0.08,0.0297 0.08,0.0086 0.15,0.0129 0.23,0.0132 0.08,-3e-4 0.15,0.0041 0.23,0.0131 0.13,0.0087 0.25,0.0464 0.35,0.1136 0.11,0.067 0.19,0.1527 0.26,0.2572 0.07,0.1043 0.12,0.2247 0.15,0.3611 0.04,0.1363 0.06,0.276 0.06,0.419 0,0.1053 -0.01,0.2053 -0.04,0.2999 -0.03,0.0944 -0.07,0.177 -0.14,0.2475 -0.14,0.1449 -0.32,0.2164 -0.54,0.2144 -0.23,-2e-4 -0.45,-0.0394 -0.64,-0.1173 -0.2,-0.0781 -0.33,-0.1622 -0.39,-0.2521 -0.02,-0.0024 -0.01,-0.0035 0.02,-0.0033 0.1,-2e-4 0.18,-0.0243 0.26,-0.0725 0.13,-0.0639 0.19,-0.1717 0.19,-0.3232 0,-0.1278 -0.05,-0.224 -0.14,-0.2887 -0.1,-0.0649 -0.2,-0.0973 -0.31,-0.0971 -0.11,-2e-4 -0.22,0.0315 -0.32,0.0954 -0.09,0.0637 -0.14,0.1606 -0.14,0.2904 0,0.1604 0.04,0.302 0.13,0.4252 0.08,0.1231 0.19,0.2286 0.33,0.3166 0.13,0.0878 0.29,0.155 0.47,0.2012 0.18,0.0461 0.36,0.0692 0.54,0.0694 0.19,-2e-4 0.38,-0.0233 0.57,-0.0694 0.18,-0.0462 0.35,-0.1177 0.51,-0.2142 0.14,-0.0837 0.25,-0.1865 0.34,-0.3085 0.09,-0.122 0.13,-0.2599 0.13,-0.4137 0,-0.1541 -0.03,-0.2992 -0.09,-0.4355 -0.06,-0.1364 -0.15,-0.2595 -0.25,-0.3693 -0.1,-0.1101 -0.22,-0.2067 -0.37,-0.2902 -0.14,-0.0837 -0.24,-0.1362 -0.32,-0.1581 0.06,-0.0068 0.17,-0.0393 0.32,-0.0975 0.14,-0.0583 0.28,-0.1358 0.42,-0.2323 0.16,-0.1211 0.28,-0.2656 0.38,-0.4338 0.09,-0.1682 0.14,-0.3446 0.14,-0.5291 z" /><path
                       id="path174"
                       style="fill:#000000;fill-opacity:1;fill-rule:evenodd;stroke:none"
                       d="m 119.19,6.2294 c 0,-0.1892 -0.04,-0.3707 -0.14,-0.5443 -0.09,-0.1737 -0.22,-0.3221 -0.37,-0.445 -0.18,-0.1387 -0.38,-0.2413 -0.59,-0.3083 -0.22,-0.0672 -0.44,-0.1006 -0.67,-0.1006 -0.21,0 -0.42,0.0264 -0.62,0.0792 -0.2,0.0527 -0.38,0.1284 -0.54,0.2273 -0.16,0.0989 -0.29,0.2203 -0.39,0.3644 -0.09,0.1439 -0.14,0.3094 -0.14,0.4965 0,0.1406 0.05,0.2455 0.16,0.3147 0.1,0.0693 0.21,0.1039 0.33,0.1041 0.12,-2e-4 0.23,-0.0348 0.34,-0.1041 0.11,-0.0692 0.16,-0.1741 0.16,-0.3147 0,-0.0837 -0.02,-0.1535 -0.06,-0.2096 -0.03,-0.0561 -0.08,-0.1029 -0.14,-0.1402 -0.06,-0.0375 -0.12,-0.0603 -0.19,-0.069 -0.04,-0.0091 -0.08,-0.0134 -0.11,-0.0132 -0.03,-2e-4 -0.04,-0.0025 -0.02,-0.0066 0.08,-0.1232 0.24,-0.2323 0.47,-0.3267 0.23,-0.0946 0.48,-0.1418 0.75,-0.1416 0.12,-2e-4 0.24,0.0279 0.35,0.0839 0.11,0.0561 0.21,0.1313 0.28,0.2261 0.09,0.1229 0.15,0.2548 0.19,0.3955 0.03,0.1406 0.05,0.2847 0.05,0.4322 0,0.1515 -0.02,0.297 -0.05,0.4368 -0.04,0.1395 -0.1,0.2687 -0.19,0.3876 -0.08,0.0965 -0.17,0.1746 -0.28,0.234 -0.11,0.0593 -0.23,0.089 -0.35,0.0892 h -0.55 c -0.08,-2e-4 -0.12,0.0305 -0.12,0.0924 v 0.0362 c 0,0.0262 0.01,0.047 0.02,0.0627 0.03,0.0196 0.06,0.0295 0.09,0.0297 0.08,0.0086 0.15,0.0129 0.23,0.0132 0.08,-3e-4 0.15,0.0041 0.22,0.0131 0.14,0.0087 0.26,0.0464 0.36,0.1136 0.1,0.067 0.19,0.1527 0.26,0.2572 0.07,0.1043 0.12,0.2247 0.15,0.3611 0.04,0.1363 0.06,0.276 0.06,0.419 0,0.1053 -0.02,0.2053 -0.04,0.2999 -0.03,0.0944 -0.07,0.177 -0.14,0.2475 -0.14,0.1449 -0.32,0.2164 -0.54,0.2144 -0.24,-2e-4 -0.45,-0.0394 -0.64,-0.1173 -0.2,-0.0781 -0.33,-0.1622 -0.39,-0.2521 -0.02,-0.0024 -0.01,-0.0035 0.02,-0.0033 0.09,-2e-4 0.18,-0.0243 0.26,-0.0725 0.12,-0.0639 0.18,-0.1717 0.18,-0.3232 0,-0.1278 -0.04,-0.224 -0.13,-0.2887 -0.1,-0.0649 -0.2,-0.0973 -0.31,-0.0971 -0.12,-2e-4 -0.22,0.0315 -0.32,0.0954 -0.1,0.0637 -0.14,0.1606 -0.14,0.2904 0,0.1604 0.04,0.302 0.12,0.4252 0.09,0.1231 0.2,0.2286 0.34,0.3166 0.13,0.0878 0.29,0.155 0.47,0.2012 0.18,0.0461 0.36,0.0692 0.54,0.0694 0.19,-2e-4 0.38,-0.0233 0.56,-0.0694 0.19,-0.0462 0.36,-0.1177 0.52,-0.2142 0.13,-0.0837 0.24,-0.1865 0.33,-0.3085 0.09,-0.122 0.14,-0.2599 0.14,-0.4137 0,-0.1541 -0.03,-0.2992 -0.09,-0.4355 -0.07,-0.1364 -0.15,-0.2595 -0.25,-0.3693 -0.1,-0.1101 -0.23,-0.2067 -0.37,-0.2902 -0.14,-0.0837 -0.25,-0.1362 -0.32,-0.1581 0.06,-0.0068 0.17,-0.0393 0.31,-0.0975 0.15,-0.0583 0.29,-0.1358 0.43,-0.2323 0.15,-0.1211 0.28,-0.2656 0.37,-0.4338 0.1,-0.1682 0.14,-0.3446 0.14,-0.5291 z" /><path
                       id="path176"
                       style="fill:#000000;fill-opacity:1;fill-rule:evenodd;stroke:none"
                       d="m 103.33,4.4208 c -7.07,7.5372 -7.07,38.0442 0,45.5812 h 0.61 c -6.676,-7.537 -6.676,-38.044 0,-45.5812" /><path
                       id="path178"
                       style="fill:#000000;fill-opacity:1;fill-rule:evenodd;stroke:none"
                       d="m 121.58,50.002 c 7.07,-7.537 7.07,-38.044 0,-45.5812 h -0.62 c 6.68,7.5372 6.68,38.0442 0,45.5812" /><path
                       id="path180"
                       style="fill:none;stroke:#000000;stroke-width:0.57888001;stroke-linecap:round;stroke-linejoin:round;stroke-miterlimit:10;stroke-dasharray:none;stroke-opacity:1"
                       d="M 28.793,49.978 V 4.4449" /><path
                       id="path182"
                       style="fill:none;stroke:#000000;stroke-width:0.57888001;stroke-linecap:round;stroke-linejoin:round;stroke-miterlimit:10;stroke-dasharray:none;stroke-opacity:1"
                       d="M 130.05,4.4449 V 49.978" /></g></g></g><g
                 transform="matrix(3.345,-1.507e-6,-3.014e-6,4.4098,3395.67,1696.99)"
                 id="g184"><g
                   transform="scale(5.979,4.5353)"
                   id="g186"><g
                     clip-path="url(#clipPath192)"
                     id="g188"><path
                       id="path194"
                       style="fill:#ff8000;fill-opacity:1;fill-rule:evenodd;stroke:none"
                       d="M 7.0455,8.928 C 6.9038,8.9277 6.7928,8.9258 6.7118,8.9227 6.6309,8.9194 6.5517,8.9114 6.4741,8.8985 6.4441,8.8918 6.4162,8.8859 6.391,8.881 6.3659,8.8761 6.3515,8.8703 6.3478,8.8642 L 4.8772,5.1396 C 4.8134,4.9792 4.6953,4.8991 4.5232,4.8991 H 4.3969 c -0.1718,0 -0.2896,0.0801 -0.354,0.2405 L 2.5468,8.928 H 1.8748 V 9.5806 C 2.1208,9.5705 2.3374,9.5638 2.5244,9.5607 2.7115,9.5573 2.9008,9.5558 3.0928,9.5561 H 3.5375 C 3.6758,9.5558 3.8166,9.5573 3.9598,9.5607 4.103,9.5638 4.2791,9.5705 4.4879,9.5806 V 8.928 H 3.942 L 4.8011,6.7492 5.6706,8.9427 C 5.6675,8.939 5.6657,8.931 5.6657,8.9181 5.6657,8.8918 5.6724,8.877 5.6856,8.874 5.6522,8.877 5.6169,8.882 5.5795,8.8887 5.4685,8.9145 5.3136,8.9277 5.1145,8.928 V 9.5806 C 5.317,9.5705 5.4878,9.5638 5.6276,9.5607 5.7675,9.5573 5.9101,9.5558 6.0549,9.5561 h 0.3334 c 0.0978,-3e-4 0.1923,0.0012 0.2831,0.0046 0.091,0.0031 0.2159,0.0098 0.3741,0.0199 z" /><path
                       id="path196"
                       style="fill:#ff8000;fill-opacity:1;fill-rule:evenodd;stroke:none"
                       d="M 10.294,3.5522 C 9.9052,3.5632 9.5268,3.5687 9.159,3.5687 8.7914,3.5687 8.413,3.5632 8.0241,3.5522 V 3.7885 H 8.243 c 0.0696,-2e-4 0.1352,7e-4 0.1964,0.0026 0.0613,0.0017 0.1194,0.0064 0.1744,0.0137 0.0551,0.0073 0.1026,0.0146 0.1426,0.0222 0.0338,0.0053 0.0619,0.0221 0.084,0.0507 0.0224,0.0283 0.0333,0.0599 0.0333,0.0949 V 7.0697 C 8.7681,7.0237 8.6381,6.9888 8.4838,6.9651 8.3295,6.9412 8.1604,6.9294 7.9765,6.9295 V 7.1631 C 8.2303,7.163 8.4644,7.1899 8.6789,7.244 8.8933,7.2979 9.0788,7.3993 9.2352,7.5478 H 9.3335 C 9.4031,7.5477 9.4379,7.5174 9.4379,7.4572 V 3.9726 C 9.4379,3.9359 9.4485,3.9038 9.4697,3.8763 9.4908,3.8488 9.5216,3.8323 9.5616,3.827 9.5955,3.8194 9.6389,3.8121 9.6917,3.8048 9.7446,3.7975 9.8042,3.7928 9.8707,3.7911 9.9373,3.7892 10.002,3.7883 10.066,3.7885 h 0.228 z" /></g></g></g><g
                 transform="matrix(3.4744,-1.507e-6,-6.028e-6,4.4098,4059.77,1696.99)"
                 id="g198"><g
                   transform="scale(5.7563,4.5353)"
                   id="g200"><g
                     clip-path="url(#clipPath206)"
                     id="g202"><path
                       id="path208"
                       style="fill:#ff8000;fill-opacity:1;fill-rule:evenodd;stroke:none"
                       d="M 7.0455,8.928 C 6.9038,8.9277 6.7928,8.9258 6.7118,8.9227 6.6309,8.9194 6.5517,8.9114 6.4741,8.8985 6.4441,8.8918 6.4162,8.8859 6.391,8.881 6.3659,8.8761 6.3515,8.8703 6.3478,8.8642 L 4.8772,5.1396 C 4.8134,4.9792 4.6953,4.8991 4.5232,4.8991 H 4.3969 c -0.1718,0 -0.2896,0.0801 -0.354,0.2405 L 2.5468,8.928 H 1.8748 V 9.5806 C 2.1208,9.5705 2.3374,9.5638 2.5244,9.5607 2.7115,9.5573 2.9008,9.5558 3.0928,9.5561 H 3.5375 C 3.6758,9.5558 3.8166,9.5573 3.9598,9.5607 4.103,9.5638 4.2791,9.5705 4.4879,9.5806 V 8.928 H 3.942 L 4.8011,6.7492 5.6706,8.9427 C 5.6675,8.939 5.6657,8.931 5.6657,8.9181 5.6657,8.8918 5.6724,8.877 5.6856,8.874 5.6522,8.877 5.6169,8.882 5.5795,8.8887 5.4685,8.9145 5.3136,8.9277 5.1145,8.928 V 9.5806 C 5.317,9.5705 5.4878,9.5638 5.6276,9.5607 5.7675,9.5573 5.9101,9.5558 6.0549,9.5561 h 0.3334 c 0.0978,-3e-4 0.1923,0.0012 0.2831,0.0046 0.091,0.0031 0.2159,0.0098 0.3741,0.0199 z" /><path
                       id="path210"
                       style="fill:#ff8000;fill-opacity:1;fill-rule:evenodd;stroke:none"
                       d="M 10.529,3.5522 H 7.9484 v 0.1511 c 0,0.0109 0.0064,0.0273 0.0191,0.0495 L 9.0041,4.7586 C 9.1266,4.8793 9.2507,5.003 9.3765,5.1294 9.5023,5.2558 9.6151,5.385 9.7143,5.5169 9.8136,5.6488 9.8928,5.7848 9.9521,5.925 10.011,6.0651 10.041,6.2121 10.041,6.3662 10.041,6.496 10.022,6.6175 9.9836,6.7301 9.9455,6.8428 9.8907,6.9417 9.8188,7.0269 9.747,7.1121 9.6572,7.1808 9.5495,7.233 9.4417,7.2852 9.3169,7.3113 9.1753,7.3115 8.9641,7.3113 8.7775,7.255 8.6157,7.1423 8.4541,7.0297 8.3468,6.9055 8.2939,6.7702 8.2835,6.7664 8.3004,6.7645 8.3447,6.7647 H 8.3986 C 8.462,6.7516 8.5169,6.7319 8.5634,6.7054 8.61,6.6788 8.649,6.6422 8.6808,6.5955 8.7125,6.5488 8.7283,6.4924 8.7283,6.4266 8.7283,6.3166 8.6883,6.2322 8.6078,6.1737 8.5274,6.1149 8.4376,6.0857 8.3383,6.0859 8.2433,6.0857 8.1544,6.1149 8.0721,6.1737 7.9898,6.2322 7.9484,6.3166 7.9484,6.4266 7.9484,6.5804 7.9823,6.726 8.05,6.8634 8.1177,7.0008 8.2095,7.1198 8.3256,7.2207 8.4418,7.3213 8.5792,7.401 8.7377,7.4597 8.8962,7.5183 9.0643,7.5477 9.2419,7.5478 9.4617,7.5477 9.6631,7.5188 9.8459,7.4611 10.029,7.4034 10.184,7.3204 10.313,7.2124 10.442,7.1042 10.543,6.9792 10.616,6.8373 10.689,6.6953 10.725,6.5383 10.725,6.3662 10.725,6.1755 10.677,6 10.58,5.8398 10.482,5.6793 10.362,5.5323 10.218,5.3987 10.075,5.2649 9.9219,5.139 9.7601,5.0208 9.5985,4.9027 9.4521,4.7878 9.3211,4.6761 L 8.5919,4.0633 h 0.9543 c 0.1331,-10e-5 0.2574,7e-4 0.3724,0.0026 0.1154,0.0017 0.2134,0.0055 0.2934,0.011 0.08,0.0055 0.122,0.0091 0.123,0.0112 0.017,0.0127 0.033,0.0383 0.048,0.0767 0.015,0.0385 0.029,0.0838 0.041,0.1361 0.013,0.0522 0.026,0.1052 0.038,0.1593 0.013,0.054 0.025,0.1132 0.035,0.1775 h 0.235 z" /></g></g></g><g
                 transform="matrix(3.5035,-1.507e-6,-6.028e-6,4.4098,4714.97,1696.99)"
                 id="g212"><g
                   transform="scale(5.7086,4.5353)"
                   id="g214"><g
                     clip-path="url(#clipPath220)"
                     id="g216"><path
                       id="path222"
                       style="fill:#ff8000;fill-opacity:1;fill-rule:evenodd;stroke:none"
                       d="M 7.0455,8.928 C 6.9038,8.9277 6.7928,8.9258 6.7118,8.9227 6.6309,8.9194 6.5517,8.9114 6.4741,8.8985 6.4441,8.8918 6.4162,8.8859 6.391,8.881 6.3659,8.8761 6.3515,8.8703 6.3478,8.8642 L 4.8772,5.1396 C 4.8134,4.9792 4.6953,4.8991 4.5232,4.8991 H 4.3969 c -0.1718,0 -0.2896,0.0801 -0.354,0.2405 L 2.5468,8.928 H 1.8748 V 9.5806 C 2.1208,9.5705 2.3374,9.5638 2.5244,9.5607 2.7115,9.5573 2.9008,9.5558 3.0928,9.5561 H 3.5375 C 3.6758,9.5558 3.8166,9.5573 3.9598,9.5607 4.103,9.5638 4.2791,9.5705 4.4879,9.5806 V 8.928 H 3.942 L 4.8011,6.7492 5.6706,8.9427 C 5.6675,8.939 5.6657,8.931 5.6657,8.9181 5.6657,8.8918 5.6724,8.877 5.6856,8.874 5.6522,8.877 5.6169,8.882 5.5795,8.8887 5.4685,8.9145 5.3136,8.9277 5.1145,8.928 V 9.5806 C 5.317,9.5705 5.4878,9.5638 5.6276,9.5607 5.7675,9.5573 5.9101,9.5558 6.0549,9.5561 h 0.3334 c 0.0978,-3e-4 0.1923,0.0012 0.2831,0.0046 0.091,0.0031 0.2159,0.0098 0.3741,0.0199 z" /><path
                       id="path224"
                       style="fill:#ff8000;fill-opacity:1;fill-rule:evenodd;stroke:none"
                       d="m 10.831,4.5882 c 0,-0.1577 -0.039,-0.309 -0.118,-0.4536 C 10.635,3.9898 10.531,3.8662 10.399,3.7638 10.252,3.6482 10.088,3.5627 9.9097,3.5068 9.7312,3.4509 9.5446,3.423 9.3501,3.423 9.1747,3.423 9.0037,3.445 8.8367,3.489 8.6697,3.533 8.5193,3.596 8.385,3.6784 8.2508,3.7609 8.1436,3.862 8.0632,3.9821 7.9828,4.102 7.9426,4.2399 7.9426,4.3958 7.9426,4.513 7.9865,4.6004 8.0742,4.6581 8.1619,4.7158 8.2544,4.7447 8.3516,4.7448 8.4531,4.7447 8.5476,4.7158 8.6353,4.6581 8.723,4.6004 8.7669,4.513 8.7669,4.3958 8.7669,4.3261 8.7517,4.2679 8.7209,4.2212 8.6903,4.1744 8.6513,4.1355 8.6036,4.1044 8.5561,4.0731 8.5016,4.0541 8.4403,4.0468 8.4087,4.0393 8.3791,4.0357 8.3516,4.0358 8.3243,4.0357 8.32,4.0338 8.3389,4.0303 8.4045,3.9276 8.5334,3.8368 8.7257,3.7581 8.9181,3.6793 9.1262,3.64 9.3501,3.6401 9.4559,3.64 9.5546,3.6633 9.6466,3.71 9.7385,3.7567 9.8153,3.8194 9.8764,3.8984 9.9526,4.0008 10.004,4.1107 10.032,4.228 c 0.027,0.1172 0.041,0.2372 0.041,0.3602 0,0.1262 -0.014,0.2475 -0.041,0.3639 C 10.004,5.0684 9.9526,5.1761 9.8764,5.2752 9.813,5.3556 9.7358,5.4207 9.645,5.4702 9.5542,5.5196 9.4559,5.5444 9.3501,5.5445 H 8.8906 C 8.8294,5.5444 8.7965,5.5699 8.7923,5.6215 v 0.0302 c 0,0.0218 0.0075,0.0392 0.0221,0.0522 0.019,0.0163 0.0433,0.0246 0.0729,0.0247 0.0614,0.0073 0.1249,0.0109 0.1903,0.011 0.0634,-1e-4 0.1258,0.0035 0.1869,0.011 0.1143,0.0072 0.2136,0.0387 0.2982,0.0947 0.0846,0.0558 0.1554,0.1272 0.2124,0.2143 0.0569,0.0869 0.1002,0.1872 0.1298,0.3009 0.0296,0.1135 0.0444,0.23 0.0444,0.3492 0,0.0878 -0.0105,0.1711 -0.0317,0.2499 C 9.8964,7.0383 9.8574,7.1071 9.8003,7.1659 9.682,7.2866 9.5319,7.3462 9.3501,7.3445 9.1558,7.3443 8.9777,7.3117 8.8161,7.2468 8.6545,7.1817 8.5461,7.1116 8.491,7.0367 8.4764,7.0347 8.4837,7.0338 8.5134,7.034 8.5895,7.0338 8.6613,7.0137 8.7288,6.9735 8.8304,6.9203 8.881,6.8304 8.881,6.7042 8.881,6.5977 8.8425,6.5175 8.7653,6.4636 8.6882,6.4095 8.602,6.3825 8.507,6.3827 8.4139,6.3825 8.3268,6.409 8.2454,6.4622 8.164,6.5153 8.1232,6.596 8.1232,6.7042 c 0,0.1336 0.036,0.2516 0.108,0.3543 C 8.3031,7.1611 8.3954,7.249 8.5085,7.3223 8.6217,7.3955 8.7521,7.4515 8.9,7.49 9.0481,7.5284 9.1982,7.5477 9.3501,7.5478 9.5129,7.5477 9.6704,7.5284 9.8226,7.49 9.9747,7.4515 10.118,7.3919 10.254,7.3115 10.364,7.2418 10.456,7.1561 10.531,7.0544 10.606,6.9527 10.644,6.8378 10.644,6.7097 10.644,6.5812 10.618,6.4603 10.566,6.3468 10.514,6.2331 10.446,6.1305 10.36,6.039 10.274,5.9473 10.172,5.8667 10.054,5.7972 9.9357,5.7274 9.8468,5.6836 9.7876,5.6654 9.8384,5.6598 9.9251,5.6326 10.048,5.5842 10.17,5.5356 10.288,5.471 10.399,5.3906 10.531,5.2896 10.635,5.1692 10.713,5.0291 10.792,4.8889 10.831,4.7419 10.831,4.5882 Z" /></g></g></g></g></g></g></g></g></g></svg>