<?xml version="1.0" encoding="utf-8"?>
<!-- Generator: Adobe Illustrator 19.0.0, SVG Export Plug-In . SVG Version: 6.00 Build 0)  -->
<svg version="1.1" id="Layer_1" xmlns="http://www.w3.org/2000/svg" xmlns:xlink="http://www.w3.org/1999/xlink" x="0px" y="0px"
	 viewBox="0 0 564 189.1199951" style="enable-background:new 0 0 564 189.1199951;" xml:space="preserve">
<style type="text/css">
	.st0{clip-path:url(#SVGID_2_);}
	.st1{clip-path:url(#SVGID_4_);}
	.st2{clip-path:url(#SVGID_6_);fill:#FF8000;}
	
		.st3{clip-path:url(#SVGID_6_);fill:none;stroke:#000000;stroke-width:1.9978405;stroke-linecap:round;stroke-linejoin:round;stroke-miterlimit:10;}
	.st4{clip-path:url(#SVGID_6_);}
	.st5{clip-path:url(#SVGID_8_);fill-rule:evenodd;clip-rule:evenodd;fill:#FF8000;}
	.st6{clip-path:url(#SVGID_10_);fill-rule:evenodd;clip-rule:evenodd;fill:#FF8000;}
	.st7{clip-path:url(#SVGID_12_);fill-rule:evenodd;clip-rule:evenodd;}
	
		.st8{clip-path:url(#SVGID_12_);fill:none;stroke:#000000;stroke-width:1.2850209;stroke-linecap:round;stroke-linejoin:round;stroke-miterlimit:10;}
	
		.st9{clip-path:url(#SVGID_12_);fill:none;stroke:#000000;stroke-width:1.5420251;stroke-linecap:round;stroke-linejoin:round;stroke-miterlimit:10;}
	.st10{clip-path:url(#SVGID_14_);fill-rule:evenodd;clip-rule:evenodd;fill:#FF8000;}
	.st11{clip-path:url(#SVGID_16_);fill-rule:evenodd;clip-rule:evenodd;fill:#FF8000;}
</style>
<g>
	<defs>
		<rect id="SVGID_1_" x="0.0000084" width="564" height="189.1199951"/>
	</defs>
	<clipPath id="SVGID_2_">
		<use xlink:href="#SVGID_1_"  style="overflow:visible;"/>
	</clipPath>
	<g class="st0">
	</g>
</g>
<g>
	<defs>
		<rect id="SVGID_3_" y="-0.0000305" width="564" height="189.1199951"/>
	</defs>
	<clipPath id="SVGID_4_">
		<use xlink:href="#SVGID_3_"  style="overflow:visible;"/>
	</clipPath>
	<g class="st1">
		<defs>
			<rect id="SVGID_5_" y="0.0016479" width="563.3908081" height="188.7973175"/>
		</defs>
		<clipPath id="SVGID_6_">
			<use xlink:href="#SVGID_5_"  style="overflow:visible;"/>
		</clipPath>
		<path class="st2" d="M212.1372833,145.6642456l-19.9783936-5.9935303l3.9956818,4.9946136v1.9978333l-3.9956818,4.9946136
			L212.1372833,145.6642456z M12.3533096,144.665329h183.8172302v1.9978333H12.3533096
			c-0.5516701,0-0.9989204-0.4475098-0.9989204-0.9989166S11.8016396,144.665329,12.3533096,144.665329z"/>
		<path class="st2" d="M90.7685242,35.7829742L74.2850113,48.5638275l6.3864288-0.3516235l1.6262436,1.1600952l1.7447739,6.1546783
			L90.7685242,35.7829742z M11.5401878,145.0835419l69.1405792-96.8846436l1.626236,1.1614075l-69.1405716,96.8846436
			c-0.3204536,0.4488525-0.9443121,0.5527344-1.3932943,0.2317505
			C11.3240232,146.1570435,11.2197351,145.5323792,11.5401878,145.0835419z"/>
		<line class="st3" x1="92.3734512" y1="35.7829742" x2="292.1574402" y2="35.7829742"/>
		<line class="st3" x1="214.3602142" y1="145.6642456" x2="292.7754211" y2="35.7829742"/>
		<g class="st4">
			<defs>
				<rect id="SVGID_7_" x="6.7709436" y="46.5624504" width="38.4912376" height="50.7473831"/>
			</defs>
			<clipPath id="SVGID_8_">
				<use xlink:href="#SVGID_7_"  style="overflow:visible;"/>
			</clipPath>
			<path class="st5" d="M29.2919197,68.7702484c-0.4528389,0.0026627-0.8076515,0.007988-1.0665665,0.0186462
				c-0.2589188,0.0106506-0.5117073,0.0346298-0.7597046,0.0772476c-0.0961609,0.0213089-0.1853943,0.0399551-0.2658424,0.0559464
				c-0.0801773,0.015976-0.1262589,0.0346222-0.1382484,0.0532684l-4.7007256,11.9057007
				c-0.2040443,0.5127716-0.5814972,0.7684937-1.1312981,0.7684937h-0.4040909c-0.5489998,0-0.9253864-0.255722-1.1312943-0.7684937
				l-4.782238-12.1108093h-2.1480522v-2.0857315c0.7863407,0.0319672,1.478384,0.0532761,2.0763969,0.0639343
				c0.598012,0.0106506,1.2029514,0.0159836,1.8166809,0.0159836h1.4216442c0.4421825,0,0.8920918-0.0053329,1.3499908-0.0159836
				c0.457634-0.0106583,1.020483-0.0319672,1.6880207-0.0639343v2.0857315h-1.7450256l2.7460651,6.965744l2.7793598-7.0110321
				c-0.0098534,0.0106583-0.0157166,0.0372925-0.0157166,0.0772552c0,0.0852356,0.0215759,0.1331863,0.0636635,0.1411743
				c-0.1068153-0.007988-0.2194901-0.0239716-0.3390923-0.0452805c-0.3548126-0.0825729-0.8500061-0.1251984-1.4863777-0.127861
				v-2.0857239c0.6472931,0.0319595,1.1933632,0.0532684,1.6403389,0.0639267
				c0.4469795,0.0106583,0.9027481,0.0159836,1.3657074,0.0159836h1.0655022c0.3127251,0,0.6147957-0.0053253,0.9048767-0.0159836
				c0.2911491-0.0106583,0.6901779-0.0319672,1.1960258-0.0639267V68.7702484z"/>
			<path class="st5" d="M39.6763,85.9552689c-1.2439766-0.0351639-2.4533195-0.052742-3.6280327-0.052742
				c-1.1747169,0-2.3840637,0.0175781-3.6283035,0.052742v-0.7554474h0.6997681
				c0.2224236,0.0005341,0.4325943-0.0021286,0.6270485-0.008255c0.1971207-0.0055923,0.3835831-0.0202484,0.559391-0.0439529
				c0.175808-0.0231781,0.3276405-0.0466156,0.4555016-0.0708542c0.1065521-0.0170517,0.1971169-0.0708542,0.2690392-0.1619568
				c0.0692558-0.0905685,0.1038857-0.1915283,0.1038857-0.3036728v-9.8996124
				c-0.3356323,0.1470337-0.7511787,0.2586441-1.2439728,0.3342972c-0.4943924,0.0761795-1.0348701,0.1142807-1.622757,0.1137466
				v-0.7466583c0.8111115,0.0005341,1.5588264-0.0857697,2.2460747-0.2586517
				c0.6845856-0.1723404,1.2786026-0.4962616,1.7767258-0.9712067h0.3143196
				c0.2237587,0.0005341,0.3356361,0.097229,0.3356361,0.2898178v11.1382675c0,0.1174774,0.0319633,0.2202911,0.101223,0.308197
				c0.0665932,0.0876389,0.1651497,0.1403809,0.2930107,0.1574326c0.1092148,0.0242386,0.2477303,0.0476761,0.4155464,0.0708542
				c0.1678162,0.0237122,0.3596077,0.0383606,0.5727081,0.0439529c0.2131004,0.0061264,0.4208717,0.0087891,0.6233215,0.008255
				H39.6763V85.9552689z"/>
		</g>
		<g class="st4">
			<defs>
				<rect id="SVGID_9_" x="87.0725098" y="138.3678436" width="39.9828568" height="50.7473984"/>
			</defs>
			<clipPath id="SVGID_10_">
				<use xlink:href="#SVGID_9_"  style="overflow:visible;"/>
			</clipPath>
			<path class="st6" d="M109.5934448,160.5756531c-0.4528427,0.002655-0.8076553,0.0079956-1.0665741,0.0186462
				c-0.2589111,0.0106506-0.5117035,0.0346222-0.759697,0.07724c-0.0961609,0.0213165-0.1853943,0.0399628-0.2658463,0.055954
				c-0.0801697,0.015976-0.1262589,0.0346222-0.1382446,0.0532684l-4.7007141,11.9057007
				c-0.2040405,0.5127716-0.5814972,0.7684937-1.1312943,0.7684937h-0.4040909c-0.548996,0-0.9253845-0.255722-1.1312943-0.7684937
				l-4.7822266-12.1108093h-2.1480484v-2.0857239c0.7863388,0.0319519,1.4783783,0.0532684,2.0763931,0.0639191
				c0.5980072,0.0106659,1.2029495,0.0159912,1.8166733,0.0159912h1.4216461c0.4421768,0,0.8920898-0.0053253,1.3499832-0.0159912
				c0.457634-0.0106506,1.0204849-0.0319672,1.6880188-0.0639191v2.0857239h-1.745018l2.7460556,6.965744l2.7793503-7.0110321
				c-0.0098495,0.0106506-0.0157089,0.0372925-0.0157089,0.0772552c0,0.0852356,0.0215759,0.1331787,0.0636597,0.1411743
				c-0.1068192-0.0079956-0.2194901-0.0239716-0.3390961-0.0452881c-0.354805-0.0825653-0.8499985-0.1251984-1.4863663-0.1278534
				v-2.0857239c0.6472855,0.0319519,1.1933594,0.0532684,1.6403351,0.0639191
				c0.4469757,0.0106659,0.9027405,0.0159912,1.3656998,0.0159912h1.0654984c0.3127289,0,0.6147919-0.0053253,0.9048767-0.0159912
				c0.291153-0.0106506,0.6901779-0.0319672,1.1960297-0.0639191V160.5756531z"/>
			<path class="st6" d="M120.7289734,177.7606659h-8.2493591v-0.4832001c0-0.0346375,0.0202408-0.0873718,0.060997-0.1582336
				l3.3137054-3.2149048c0.391571-0.3859711,0.7884674-0.7812805,1.1906967-1.1853638
				c0.4022217-0.4040985,0.7618256-0.8169861,1.0788116-1.2383881c0.3169861-0.4216766,0.5700455-0.8566742,0.7591705-1.3044434
				c0.1917877-0.4480438,0.2850189-0.9179382,0.2850189-1.4104614c0-0.4150238-0.061264-0.8033905-0.1837997-1.1635437
				c-0.1198654-0.3601379-0.2956696-0.6763306-0.5247574-0.9485626c-0.2317429-0.2722321-0.5167694-0.4920044-0.8630524-0.6587524
				c-0.3436279-0.1670227-0.743187-0.2503967-1.196022-0.2509155c-0.6739273,0.0005188-1.270607,0.180603-1.7873764,0.540741
				s-0.8603897,0.7570343-1.029007,1.1896362c-0.0332947,0.0122528,0.0207825,0.0181122,0.1632843,0.0175781h0.1704865
				c0.202446,0.0418243,0.3782501,0.10495,0.52742,0.1893921c0.1491699,0.0852356,0.2743683,0.202179,0.3755875,0.3513489
				c0.1012192,0.1494446,0.1518326,0.3295135,0.1518326,0.5396881c0,0.3518829-0.1278534,0.6214447-0.3862381,0.8087158
				c-0.255722,0.1877899-0.5434036,0.2810211-0.8603897,0.2804871c-0.3036652,0.0005341-0.5878906-0.0926971-0.8510742-0.2804871
				c-0.263176-0.1872711-0.3952942-0.4568329-0.3952942-0.8087158c0-0.4911957,0.1081467-0.9568329,0.324707-1.3960876
				c0.2162933-0.4392548,0.5098419-0.8196411,0.8811646-1.1419525c0.3707962-0.3217773,0.810318-0.5764465,1.3164291-0.7642365
				c0.5061111-0.1872711,1.0441895-0.2810211,1.6115646-0.2815552c0.7032318,0.0005341,1.3478546,0.0926971,1.931221,0.277298
				c0.5833588,0.1843262,1.0814743,0.449646,1.4943619,0.7948608c0.4128799,0.3457642,0.735199,0.7455902,0.9669418,1.1989594
				c0.2344055,0.4541779,0.3489456,0.9560242,0.3489456,1.5061035c0,0.6091919-0.1544952,1.1704559-0.466156,1.6826935
				c-0.3089905,0.5127716-0.6952362,0.982666-1.1533966,1.4099274c-0.458168,0.427536-0.9482956,0.8300323-1.465065,1.2077484
				c-0.5167618,0.3777313-0.9829178,0.7450562-1.4037933,1.1017456l-2.33078,1.9589233h3.0499954
				c0.4261932,0.0005341,0.8230972-0.002121,1.1906967-0.008255c0.3702621-0.0053253,0.6819229-0.0175781,0.9376373-0.0351563
				c0.2583847-0.0175781,0.3889084-0.0290375,0.396904-0.0356903c0.0532684-0.0404968,0.1038818-0.1222687,0.151825-0.2453308
				c0.0479431-0.1230774,0.0905685-0.2679901,0.1305237-0.4347382c0.0399551-0.1670074,0.0825806-0.3367004,0.1225281-0.5095825
				c0.0399628-0.1723328,0.0772552-0.3617401,0.1118774-0.5671082h0.7485199L120.7289734,177.7606659z"/>
		</g>
		<g class="st4">
			<defs>
				<rect id="SVGID_11_" x="310.1939087" y="32.8072128" width="246.4265442" height="99.7871628"/>
			</defs>
			<clipPath id="SVGID_12_">
				<use xlink:href="#SVGID_11_"  style="overflow:visible;"/>
			</clipPath>
			<path class="st7" d="M333.1133728,77.1973114c-0.0647278,0.2930145-0.2256165,0.4395294-0.4845276,0.4395294
				c-0.0213318,0.0213165-0.0753784,0.0319672-0.1617126,0.0319672c-0.0538025,0-0.0969543-0.0106506-0.1294556-0.0319672
				h-0.1448975c-0.2804871,0-0.4206238-0.1038895-0.4206238-0.3143311v-0.1092224
				c0.1294556-0.7725067,0.1941833-1.4890747,0.1941833-2.149704v-0.5966949
				c-0.0647278-0.8018188-0.2453308-1.4970856-0.5412598-2.0777969c-0.2962341-0.5780563-0.7293396-1.0282364-1.2999268-1.3479004
				c-0.5705872-0.3196564-1.2932739-0.4794922-2.1656494-0.4794922c-0.5058594,0-1.0207825,0.1118851-1.5431519,0.3303146
				c-0.5215759,0.2210999-1.0087585,0.5167847-1.4618835,0.892395c-0.4949341,0.4102249-0.8990173,0.8737335-1.211731,1.3905182
				c-0.311676,0.5167847-0.5380859,1.0468826-0.6792908,1.5903015c-0.1070862,0.3889236-0.1656799,0.7591934-0.1776733,1.1134796
				c0,0.4928131,0.1078796,0.9643097,0.3236694,1.4118347c0.3127136,0.7538605,0.8726501,1.2360153,1.6802979,1.4438019
				l3.7157288,1.0362244c0.6784668,0.199791,1.257843,0.5167847,1.7373047,0.9483185
				c0.4792175,0.4342117,0.8401489,0.9483337,1.0823059,1.5370407c0.2431946,0.5913696,0.3851929,1.2386856,0.4283447,1.9366074
				v0.2823639c0,0.6100159-0.0863342,1.2306976-0.258667,1.8673401c-0.2256165,0.8790665-0.5863037,1.7261658-1.08255,2.5413055
				c-0.4949341,0.8177948-1.1086731,1.5503464-1.8420105,2.1949921c-0.7000427,0.5993652-1.4666748,1.0761871-2.3020325,1.4358063
				c-0.8351135,0.3622818-1.6723328,0.5407562-2.5127563,0.5407562c-1.2381287,0-2.2940674-0.1971207-3.1664429-0.5940323
				c-0.8726501-0.3969116-1.5186157-0.8977127-1.9392395-1.5077286l-1.5990601,1.8993149
				c-0.1393127,0.1358566-0.2852783,0.202446-0.4363403,0.202446h-0.0969543c-0.2687683,0-0.4147339-0.1038818-0.4363098-0.3116608
				c0-0.0639343,0.0167542-0.119873,0.0479431-0.1731567l1.8744812-7.3415222
				c0.0647278-0.2930145,0.2541199-0.4421921,0.5657959-0.4555054h0.3548279
				c0.1294556,0.002655,0.2479858,0.0532684,0.3558655,0.1571655c0.0431519,0.0852356,0.0647278,0.1571655,0.0647278,0.2210922
				c0,0.0426254-0.0106506,0.0932388-0.0322266,0.1545029c-0.1941833,0.7538605-0.2911377,1.4571152-0.2911377,2.1044312
				c0,1.0362244,0.2538452,1.9126282,0.7597046,2.6345291c0.8079224,1.1614304,2.2194519,1.7421417,4.2332764,1.7394791
				c0.5058594,0.0026627,1.0205078-0.1145477,1.5431213-0.3516235c0.522644-0.2344208,1.0098572-0.5514145,1.4618835-0.9483261
				c0.4960022-0.4608383,0.9126282-0.9696426,1.2517395-1.5290451c0.3393555-0.5593948,0.590271-1.1374512,0.7511597-1.7341537
				c0.1076355-0.4794846,0.1617126-0.9296722,0.1617126-1.350563c0-0.5194397-0.069519-1.0229034-0.2098999-1.5050583
				c-0.3226013-0.8044815-0.9206238-1.3212662-1.7929993-1.5530167l-3.6677856-1.036232
				c-0.6568604-0.1758118-1.2223816-0.4661713-1.6968079-0.8684082c-0.4736328-0.4022446-0.8422852-0.8790665-1.1060181-1.4358063
				c-0.2637024-0.5540771-0.4176636-1.164093-0.4608154-1.8353806v-0.3462982c0-0.5194397,0.0647278-1.0708618,0.1941833-1.6462479
				c0.2264099-0.8364487,0.5873413-1.6355972,1.0822754-2.400116c0.4960022-0.7618484,1.1097412-1.4384689,1.841217-2.0245132
				c0.6901855-0.5620651,1.4469604-1.0149155,2.2705994-1.3558884c0.8244629-0.3383102,1.6401062-0.5087891,2.4480286-0.5087891
				c1.1097412,0,2.0244751,0.2077713,2.7460938,0.6206741c0.721344,0.4128876,1.243988,0.9003754,1.567627,1.4651031
				l1.5508728-1.8673477c0.0863037-0.1438446,0.2264099-0.2184296,0.4195251-0.2184296h0.1462402
				c0.258667,0,0.3870544,0.1251907,0.3870544,0.3755951v0.125206L333.1133728,77.1973114z"/>
			<line class="st8" x1="344.3249817" y1="79.3283691" x2="366.8126221" y2="79.3283768"/>
			<line class="st8" x1="344.3249817" y1="86.0731964" x2="366.8126221" y2="86.0731964"/>
			<path class="st7" d="M419.0281067,59.0273132c-0.0452881-0.1864624-0.0799255-0.3809204-0.1145325-0.5860443
				c-0.0319824-0.2051086-0.0799255-0.404892-0.1438599-0.6046906c-0.1731567-0.4901428-0.4182129-0.9003754-0.735199-1.2306824
				c-0.3169861-0.3303223-0.7192078-0.4928131-1.2040405-0.4954834c-0.4528503,0.0026703-0.9003601,0.1651611-1.3425598,0.4874878
				c-0.4395142,0.3249817-0.8444214,0.7432098-1.2093506,1.2546692c-0.5167542,0.7218933-0.9056702,1.4730988-1.1640625,2.250946
				c-0.2583923,0.7804871-0.4954529,1.5929642-0.7112427,2.4400558c-0.2157593,0.8364487-0.391571,1.6462479-0.5327454,2.4294205
				c-0.0852356,0.3995743-0.1305237,0.7751694-0.1305237,1.1294632c0,0.3782654,0.0452881,0.7432098,0.1305237,1.097496
				c0.0959167,0.4928131,0.271698,0.9003754,0.5247803,1.2173767c0.2530518,0.3196564,0.6046753,0.4794769,1.0575256,0.4768219
				c0.4954529,0.002655,0.9935913-0.1704865,1.4943848-0.514122c0.5007935-0.3462982,0.9669495-0.7698441,1.398468-1.2733078
				c0.1731567-0.2077789,0.3356323-0.4075623,0.4927979-0.6020279c0.1571655-0.194458,0.2930298-0.3995743,0.4102173-0.6206665
				L419.0281067,59.0273132z M423.6470947,64.8025055c-0.1278687,0.5114517-0.271698,1.0602036-0.4342041,1.6462479
				c-0.1624756,0.5860443-0.3782349,1.1294632-0.6472778,1.6329269c-0.269043,0.5008011-0.6073303,0.9349976-1.0175781,1.2999496
				c-0.4102173,0.3676071-0.9216614,0.5487442-1.5343323,0.5487442c-0.8177795,0-1.473053-0.2264252-1.9631958-0.6819382
				c-0.4901428-0.452858-0.7724915-0.9163589-0.849762-1.3878555c-0.3649292,0.4182281-0.9110107,0.8684082-1.6382141,1.3505554
				c-0.7272034,0.4794922-1.4943848,0.7192383-2.3041687,0.7192383c-0.8497314,0-1.5636597-0.2131042-2.1390381-0.641983
				c-0.5780334-0.4288788-1.0255432-0.9669647-1.3505249-1.6169357c-0.3862305-0.7725143-0.5913696-1.6036301-0.6126709-2.4933548
				v-0.2344131c0-0.8257828,0.1145325-1.6515808,0.3382874-2.4800262c0.2583923-0.9083633,0.6206665-1.808754,1.0841675-2.6958084
				c0.463501-0.8897095,1.0761719-1.7154999,1.8406677-2.480011c0.6259766-0.6260071,1.3399048-1.1534424,2.1416931-1.5849915
				c0.8017883-0.4262085,1.6169128-0.641983,2.447998-0.641983c0.7192383,0,1.3079224,0.1917877,1.7607727,0.5727234
				s0.737854,0.6979218,0.855072,0.9483185l-0.0639343,0.2663879c0.074585-0.386261,0.2557373-0.6792755,0.540741-0.8764038
				c0.2876892-0.1997833,0.5754089-0.2983398,0.8657532-0.3010101c0.3329468,0.0026703,0.6126709,0.1012268,0.8390808,0.2983551
				c0.1411743,0.1571655,0.2157593,0.3676147,0.2264099,0.6286621c0,0.0932312-0.0106506,0.1997833-0.0319519,0.3143311
				l-2.3281555,9.0650253c-0.1065674,0.4288712-0.1837769,0.8337784-0.2264099,1.2093735
				c-0.0213013,0.1891403-0.0319519,0.3596191-0.0319519,0.5167847c0,0.1358566,0.0106506,0.2823715,0.0319519,0.439537
				c0.0346375,0.2503967,0.1092224,0.4395294,0.2264099,0.5647278c0.119873,0.1251984,0.2850342,0.1891251,0.5007935,0.18647
				c0.2264404,0.002655,0.4395447-0.0905762,0.6393127-0.2797089c0.1997986-0.1891251,0.383606-0.4688263,0.5487366-0.8391037
				c0.1678467-0.3702698,0.3276367-0.8151321,0.4768066-1.3345718c0.1518555-0.5167847,0.3063354-1.0788574,0.4688416-1.6862106
				c0.0639343-0.2717133,0.2477112-0.4075699,0.5487366-0.4075699h0.3729248c0.2797241,0,0.4182129,0.1145477,0.4182129,0.3436432
				V64.8025055z"/>
			<path class="st7" d="M432.4295959,74.1259155c-1.243988-0.0346298-2.4533386-0.0532761-3.6280823-0.0532761
				c-1.1747131,0-2.3840637,0.0186462-3.6280518,0.0532761v-0.7538681h0.7005615
				c0.2210999,0,0.4315491-0.0026627,0.6259766-0.007988c0.1971436-0.0079956,0.383606-0.0213165,0.5594177-0.0452881
				s0.3276367-0.0452805,0.4555054-0.0719223c0.1065369-0.0159836,0.197113-0.0692596,0.269043-0.1598282
				s0.1065369-0.1917953,0.1065369-0.3036804v-9.9014587c-0.3382874,0.1465073-0.7538452,0.2583923-1.2466431,0.33564
				c-0.4927979,0.074585-1.0335693,0.1145477-1.6222534,0.1118774v-0.7458649c0.812439,0,1.5583191-0.0852432,2.245575-0.2583923
				c0.6846008-0.1731491,1.2786255-0.4954758,1.7767639-0.9722977h0.3143005
				c0.2237549,0.0026627,0.3356323,0.0985565,0.3356323,0.2903519l0.0000305,11.1401443
				c0,0.1172104,0.0319519,0.2184372,0.1011963,0.3063431c0.0666199,0.0879059,0.1651611,0.1411819,0.2930298,0.1571655
				c0.1092224,0.0266418,0.2477417,0.0479507,0.4155579,0.0719223c0.1704712,0.0239716,0.3595886,0.0372925,0.5727234,0.0452881
				c0.2130737,0.0053253,0.4208679,0.007988,0.623291,0.007988h0.7298889V74.1259155z"/>
			<path class="st7" d="M442.0432129,74.1259155c-1.241333-0.0346222-2.4533691-0.0532761-3.6281128-0.0532761
				c-1.1747131,0-2.3840637,0.0186462-3.6280518,0.0532761v-0.7538681h0.7005615
				c0.2210999,0,0.4315491-0.0026627,0.6286621-0.007988c0.194458-0.0079956,0.3809204-0.0213165,0.5567322-0.0452881
				s0.3276672-0.0452805,0.4555054-0.0719223c0.1092224-0.0159836,0.197113-0.0692596,0.269043-0.1598282
				s0.1065369-0.1917953,0.1065369-0.3036804v-9.9014587c-0.3382874,0.1465073-0.7538452,0.2583923-1.2466431,0.33564
				c-0.4927979,0.074585-1.0335388,0.1145477-1.6222534,0.1118774v-0.7458649c0.8124695,0,1.5609741-0.0852432,2.245575-0.2583923
				s1.2786255-0.4954758,1.7794189-0.9722977h0.311676c0.2237549,0.0026627,0.3356323,0.0985565,0.3356323,0.2903519v11.1401443
				c0,0.1172104,0.0346069,0.2184372,0.1011963,0.3063431c0.0666199,0.0879059,0.1651611,0.1411819,0.2930298,0.1571655
				c0.1092224,0.0266418,0.2477417,0.0479507,0.4155579,0.0719223c0.1705017,0.0239716,0.3596191,0.0372925,0.5727234,0.0452881
				c0.2130737,0.0053253,0.4208679,0.0079956,0.6233215,0.0079956h0.7298889V74.1259155z"/>
			<path class="st7" d="M418.162384,104.2138977c-0.0426331-0.1864624-0.0799255-0.3835907-0.1145325-0.5860367
				c-0.0319824-0.2051163-0.0799255-0.4049072-0.1438599-0.6073532c-0.1731567-0.4901505-0.4182129-0.9003754-0.735199-1.2280273
				c-0.3169861-0.3303223-0.7192078-0.4954758-1.20401-0.4954758c-0.4528809,0-0.9003906,0.1624985-1.3425598,0.4874802
				c-0.4395447,0.3223267-0.8444214,0.7405472-1.2093506,1.2519989c-0.5167847,0.7245636-0.9057007,1.475769-1.164093,2.2536011
				c-0.2583618,0.7789078-0.4954529,1.5916443-0.7112427,2.4376755c-0.2157593,0.8372421-0.3915405,1.6481171-0.5327148,2.431282
				c-0.0852661,0.3982391-0.1305542,0.7746429-0.1305542,1.1294632c0,0.3774643,0.0452881,0.7432098,0.1305542,1.0980301
				c0.0958862,0.4922791,0.2716675,0.8982468,0.5247498,1.2168427c0.2530518,0.3196564,0.6046753,0.4784241,1.0575256,0.477356
				c0.4954529,0.0010681,0.9935913-0.1715469,1.4943848-0.51651c0.5007935-0.3452377,0.9669495-0.7687836,1.3984985-1.2717209
				c0.1731262-0.2077713,0.3356323-0.4088974,0.4927673-0.6028214c0.1571655-0.1931305,0.2930298-0.4001083,0.4129028-0.6206741
				L418.162384,104.2138977z M422.7813721,109.9866943c-0.1278687,0.513588-0.271698,1.0625992-0.4341736,1.6478424
				c-0.1625061,0.5863113-0.3782654,1.1294708-0.6473083,1.6315994c-0.269043,0.5018692-0.6073303,0.9360733-1.0175781,1.3018188
				c-0.4075317,0.3657455-0.9216614,0.5482178-1.5343323,0.5482178c-0.8177795-0.0000076-1.473053-0.2266922-1.9631958-0.6814117
				c-0.4901428-0.4549789-0.7724915-0.9176941-0.849762-1.3891907c-0.3649292,0.4195557-0.9110107,0.8694763-1.6382141,1.350029
				c-0.7272034,0.4802933-1.4943848,0.7205658-2.3015137,0.7205658c-0.852417,0-1.5663147-0.2139053-2.1416931-0.6422501
				c-0.5780334-0.4283371-1.0255432-0.9677658-1.3505249-1.6166763c-0.3862305-0.7725067-0.5913696-1.6038971-0.6126709-2.4941483
				v-0.2352142c0-0.8255234,0.1145325-1.6510468,0.3383179-2.4784317c0.2583618-0.9088974,0.6206665-1.8079453,1.084137-2.6976624
				c0.463501-0.8870544,1.0761719-1.7155075,1.8406677-2.4800262c0.6260071-0.6260071,1.3399048-1.1534424,2.1416931-1.5823212
				c0.8017883-0.4288712,1.6169128-0.641983,2.4480286-0.6446457c0.7192078,0.0026627,1.3079224,0.1917953,1.7607422,0.575386
				c0.4528503,0.3809357,0.7378845,0.6979294,0.8551025,0.9456635l-0.0639648,0.2690506
				c0.074585-0.3862534,0.2557373-0.6792831,0.5407715-0.8790665c0.2876587-0.1971283,0.5753784-0.2983475,0.8657227-0.2983475
				c0.3329773,0,0.6126709,0.0985641,0.8390808,0.2983475c0.1411743,0.1571655,0.2157593,0.3649445,0.2264404,0.6259995
				c0,0.0959015-0.0106812,0.199791-0.0319824,0.3143311l-2.3281555,9.0668869
				c-0.1065369,0.4294128-0.1837769,0.8324509-0.2264099,1.2077789c-0.0186462,0.1893997-0.0292969,0.3620148-0.0292969,0.5178528
				c0,0.1371841,0.0106506,0.283165,0.0292969,0.4392624c0.0346375,0.2517319,0.1092224,0.4400711,0.2264099,0.5655365
				c0.119873,0.1254654,0.2850342,0.1883316,0.5007935,0.1872635c0.2264404,0.0010681,0.4395447-0.0932312,0.6393127-0.2812958
				c0.1997986-0.1883316,0.383606-0.4677734,0.5487366-0.8393707c0.1678467-0.3705444,0.3276367-0.8156662,0.4768372-1.333252
				c0.151825-0.5175858,0.3089905-1.0793839,0.468811-1.6872711c0.0639343-0.2706451,0.2477417-0.4067688,0.5487366-0.4078293
				h0.3729248c0.2797241,0.0010605,0.4182129,0.1156082,0.4182129,0.3449631V109.9866943z"/>
			<path class="st7" d="M432.3124084,119.3119736h-8.2497253v-0.483223c0-0.0346298,0.0213013-0.0873718,0.0612488-0.1582336
				l3.3137512-3.2149734c0.391571-0.385994,0.7884827-0.7813034,1.1907043-1.1854095
				c0.4022522-0.4040985,0.7618408-0.8169937,1.0788269-1.2384109c0.3196716-0.4216843,0.5727234-0.8566895,0.7618408-1.3044815
				c0.1891479-0.4480591,0.2823792-0.9179535,0.2823792-1.4104996c0-0.4150238-0.0612793-0.8034134-0.1811523-1.163559
				c-0.1225281-0.3601532-0.2983398-0.6763458-0.5274353-0.9485931c-0.2290649-0.2722397-0.5167542-0.492012-0.8603821-0.6587677
				c-0.346283-0.1670227-0.7431946-0.2503967-1.1960449-0.2509308c-0.6766052,0.0005341-1.2732849,0.1806107-1.7900696,0.5407562
				c-0.5167847,0.3601532-0.8604126,0.7570648-1.0281982,1.1896667c-0.034668,0.0122528,0.0213013,0.0181198,0.1624756,0.0175858
				h0.1704712c0.2051086,0.0418243,0.3782654,0.1049576,0.5274353,0.1893997
				c0.1491699,0.0852356,0.2743835,0.202179,0.3755798,0.3513565c0.1012573,0.149437,0.1518555,0.3295212,0.1518555,0.5396957
				c0,0.3518906-0.1278687,0.6214676-0.3835754,0.8087387c-0.2583923,0.1877975-0.5460815,0.2810287-0.8630676,0.2804947
				c-0.3036804,0.0005341-0.5860596-0.0926971-0.849762-0.2804947c-0.2637024-0.1872711-0.3968811-0.4568481-0.3968811-0.8087387
				c0-0.4912109,0.1091919-0.9568481,0.3249512-1.3961182c0.2157898-0.43927,0.5114746-0.8196564,0.8817139-1.141983
				c0.3702698-0.3217926,0.8098145-0.5764542,1.315918-0.7642517c0.5087891-0.1872711,1.0441895-0.2810364,1.6115723-0.2815704
				c0.7032471,0.0005341,1.3479004,0.0927048,1.9312744,0.2773056c0.5860291,0.1843338,1.084137,0.4496536,1.4943848,0.7948837
				c0.4128723,0.3460388,0.735199,0.7456055,0.9696045,1.1989899c0.2317505,0.4541855,0.3489685,0.9560547,0.3489685,1.506134
				c0,0.6094818-0.1545105,1.1704865-0.4661865,1.6827469c-0.311676,0.5127869-0.6952209,0.9826889-1.1560669,1.4099655
				c-0.4581604,0.4275436-0.9483032,0.8300476-1.4650879,1.2077789c-0.5167542,0.3777313-0.9829407,0.7450714-1.4011536,1.1017609
				l-2.3334656,1.9589844h3.0527039c0.4235229,0.0005341,0.8230896-0.0021286,1.1907043-0.0082626
				c0.3675842-0.0053253,0.6792603-0.0175781,0.9376526-0.0351563c0.2557373-0.0175858,0.3862305-0.0290375,0.3942261-0.0356979
				c0.0532837-0.0404892,0.1038818-0.1222687,0.1518555-0.2453384c0.0479431-0.1230698,0.0905457-0.2679825,0.1304932-0.4347382
				c0.0426331-0.1670227,0.0825806-0.3367081,0.1225586-0.5095901c0.0399475-0.172348,0.07724-0.3617477,0.1118774-0.567131
				h0.7485352L432.3124084,119.3119736z"/>
			<path class="st7" d="M442.9089355,119.3119736c-1.243988-0.0351639-2.4533386-0.052742-3.6280518-0.052742
				c-1.1747437,0-2.3841248,0.0175781-3.6281128,0.052742v-0.7554626h0.700592
				c0.2210999,0.0005341,0.4315186-0.0021286,0.6260071-0.0082626c0.1970825-0.0055923,0.3835754-0.0202408,0.5593872-0.0439529
				c0.1758118-0.0231705,0.3276367-0.0466156,0.4555054-0.0708542c0.1091919-0.0170517,0.197113-0.0708618,0.269043-0.1619644
				c0.0718994-0.0905685,0.1065674-0.1915283,0.1065674-0.3036728v-9.8998718
				c-0.3383179,0.147049-0.7538757,0.258667-1.2466736,0.3343124c-0.4927979,0.0761871-1.0335388,0.1142807-1.6222534,0.1137466
				v-0.7466736c0.8124695,0.0005341,1.5583191-0.0857697,2.245575-0.2586517
				c0.6846008-0.1723557,1.2786255-0.4962769,1.7767334-0.9712372h0.3143311
				c0.2237549,0.0005341,0.3356323,0.097229,0.3356323,0.2898254v11.1385498c0,0.1174774,0.0319824,0.2202988,0.1012573,0.3082047
				c0.0665894,0.0876389,0.1651611,0.1403809,0.2929993,0.1574326c0.1092224,0.0242386,0.2477112,0.0476837,0.4155579,0.0708542
				c0.1704712,0.0237122,0.3596191,0.0383606,0.5726929,0.0439529c0.2131348,0.006134,0.4208984,0.0087967,0.6233521,0.0082626
				h0.7298584V119.3119736z"/>
			<path class="st7" d="M402.2809143,120.8181c-14.6481628-16.063446-14.6481628-60.1738434-0.0000305-76.2367401h1.6462402
				c-13.6225891,16.0628967-13.6225891,60.1732941,0,76.2367401"/>
			<path class="st7" d="M449.4751282,44.5813599c14.6481628,16.0628967,14.6481628,60.1733017,0.0000305,76.2367401h-1.6462097
				c13.6225891-16.0634384,13.6225891-60.1738434-0.0000305-76.2367401"/>
			<path class="st7" d="M499.9485168,59.0273132c-0.0426331-0.1864624-0.0799255-0.3809204-0.1118774-0.5860443
				c-0.0319519-0.2051086-0.0825806-0.404892-0.1465149-0.6046906c-0.1704712-0.4901428-0.4155273-0.9003754-0.735199-1.2306824
				c-0.3169861-0.3303223-0.7192078-0.4928131-1.20401-0.4954834c-0.4501953,0.0026703-0.8977051,0.1651611-1.3399048,0.4874878
				c-0.4421997,0.3249817-0.8444214,0.7432098-1.2120361,1.2546692c-0.5167542,0.7218933-0.9030151,1.4730988-1.1614075,2.250946
				c-0.2610474,0.7804871-0.4981079,1.5929642-0.7138977,2.4400558c-0.2130737,0.8364487-0.391571,1.6462479-0.5327454,2.4294205
				c-0.0852356,0.3995743-0.1278381,0.7751694-0.1278381,1.1294632c0,0.3782654,0.0426025,0.7432098,0.1278381,1.097496
				c0.0985413,0.4928131,0.271698,0.9003754,0.5247803,1.2173767c0.2530212,0.3196564,0.6073303,0.4794846,1.0601501,0.4768219
				c0.4954834,0.0026627,0.9935913-0.1704865,1.4944153-0.514122c0.5007629-0.3462982,0.9669495-0.7698441,1.3957825-1.2733078
				c0.1731567-0.2077789,0.3383179-0.4075623,0.4928284-0.6020279c0.1571655-0.194458,0.2956848-0.3995743,0.4128723-0.6206665
				L499.9485168,59.0273132z M504.5701904,64.8025055c-0.1278687,0.5114517-0.2744141,1.0602036-0.4368896,1.6462479
				c-0.15979,0.5860443-0.3755798,1.1294632-0.6445923,1.6329269c-0.2690735,0.5008011-0.6100464,0.9350052-1.0202637,1.2999573
				c-0.4075317,0.3676071-0.9190063,0.5487442-1.5343323,0.5487442c-0.8177795,0-1.473053-0.2264252-1.9632263-0.6819382
				c-0.4901123-0.452858-0.7724609-0.9163666-0.8470459-1.3878632c-0.3676147,0.4182281-0.9136963,0.8684082-1.6409302,1.350563
				c-0.7245178,0.4794922-1.4943542,0.7192383-2.3014832,0.7192383c-0.849762,0-1.5636292-0.2131119-2.1416931-0.641983
				c-0.5753784-0.4288788-1.0255737-0.9669724-1.3478699-1.6169434c-0.388916-0.7725143-0.5913391-1.6036301-0.6153259-2.4933548
				v-0.2344131c0-0.8257828,0.1145325-1.6515808,0.3409424-2.4800262c0.2583923-0.9083633,0.6180115-1.808754,1.081543-2.6958084
				c0.4634705-0.8897095,1.0787964-1.7154999,1.8432922-2.480011c0.6233215-0.6260071,1.3372498-1.1534424,2.1390076-1.5849915
				c0.8045044-0.4262085,1.6195984-0.641983,2.4480286-0.641983c0.7218933,0,1.3079529,0.1917877,1.7607727,0.5727234
				s0.737854,0.6979218,0.8577271,0.9483185l-0.0665894,0.2663879c0.07724-0.386261,0.2583923-0.6792755,0.543396-0.8764038
				c0.2850342-0.1997833,0.5727234-0.2983398,0.8630981-0.3010101c0.3329468,0.0026703,0.6153259,0.1012268,0.8417358,0.2983551
				c0.1385498,0.1571655,0.2157593,0.3676147,0.2237549,0.6286621c0,0.0932312-0.0106201,0.1997833-0.0319519,0.3143311
				l-2.3255005,9.0650253c-0.1092224,0.4288712-0.1838074,0.8337784-0.2264099,1.2093735
				c-0.0213013,0.1891403-0.0319824,0.3596191-0.0319824,0.5167847c0,0.1358566,0.0106812,0.2823715,0.0319824,0.439537
				c0.0319824,0.2503967,0.1091919,0.4395294,0.2264099,0.5647354c0.117218,0.1251984,0.2850342,0.1891251,0.500824,0.1864624
				c0.2264099,0.0026627,0.4395142-0.0905762,0.6366272-0.2797012c0.2024536-0.1891327,0.3835754-0.4688339,0.5514221-0.8391113
				c0.1651611-0.3702698,0.3249512-0.8151321,0.4768066-1.3345718c0.1491699-0.5167847,0.3063354-1.0788574,0.466156-1.6862106
				c0.0665894-0.2717133,0.2477112-0.4075699,0.5513916-0.4075699h0.3702698c0.2823486,0,0.4208984,0.1145477,0.4208984,0.3436432
				V64.8025055z"/>
			<path class="st7" d="M513.3499756,74.1259155c-1.241272-0.0346222-2.4506531-0.0532684-3.6280518-0.0532684
				c-1.1747437,0-2.3840637,0.0186462-3.6253967,0.0532684v-0.7538605h0.6979065
				c0.2237549,0,0.4315186-0.0026703,0.6286621-0.0079956c0.1970825-0.0079956,0.3809204-0.0213089,0.5567017-0.0452881
				c0.1758423-0.0239716,0.3276672-0.0452728,0.4555054-0.0719147c0.1092529-0.0159912,0.1998291-0.0692596,0.2690735-0.1598358
				c0.0719299-0.0905609,0.1065369-0.1917877,0.1065369-0.3036728v-9.9014664
				c-0.3383179,0.1465073-0.7538452,0.2583923-1.2466431,0.33564c-0.4927979,0.074585-1.0335693,0.1145477-1.6195679,0.1118774
				v-0.7458649c0.8097839,0,1.5582886-0.0852432,2.2429199-0.2583923c0.6872253-0.1731491,1.2785645-0.4954758,1.7793884-0.9722977
				h0.3143005c0.2210999,0.0026627,0.3329773,0.0985565,0.3329773,0.2903519v11.140152
				c0,0.1172104,0.0346375,0.2184372,0.1012268,0.3063431c0.0692749,0.0879059,0.1678162,0.1411743,0.2956848,0.1571655
				c0.1065369,0.0266418,0.2450867,0.0479431,0.4155579,0.0719147c0.1678162,0.0239792,0.3596191,0.0372925,0.5726929,0.0452881
				c0.2104492,0.0053253,0.4182129,0.0079956,0.6206665,0.0079956h0.7298584V74.1259155z"/>
			<path class="st7" d="M524.0024414,74.1259155h-8.2470703v-0.4821472c0-0.0346375,0.0186768-0.0879059,0.0612793-0.1598358
				l3.3137207-3.2125854c0.3916016-0.3862534,0.7858887-0.7831573,1.1881104-1.1853943
				c0.4022217-0.4049072,0.7644653-0.8178024,1.0814819-1.2386856c0.3169556-0.4235535,0.5700073-0.8577576,0.7591553-1.3052826
				s0.2850342-0.9190216,0.2850342-1.4118271c0-0.4128952-0.0612793-0.8018188-0.1837769-1.1614304
				c-0.1225586-0.3622818-0.2983398-0.6766205-0.5274658-0.9483261c-0.2290649-0.2743759-0.5167236-0.4928055-0.8604126-0.6606293
				c-0.3435669-0.1651611-0.7431641-0.2503967-1.1959839-0.2503967c-0.6739502,0-1.2706299,0.1811371-1.7901001,0.5407562
				c-0.5140991,0.3596115-0.8577271,0.7565231-1.0281982,1.1907272c-0.0319824,0.0106583,0.0213013,0.0159836,0.1624756,0.0159836
				h0.1731567c0.2024536,0.0426254,0.3782349,0.1065521,0.5274048,0.1891327
				c0.1491699,0.0852432,0.2717285,0.2024536,0.3756104,0.3516312c0.1012573,0.1491699,0.1518555,0.3303146,0.1518555,0.5407486
				c0,0.3516312-0.1278687,0.6206741-0.3862915,0.8071518c-0.2557373,0.1891251-0.543396,0.2823563-0.8603516,0.2823563
				c-0.3037109,0-0.5887451-0.0932312-0.852417-0.2823563c-0.2637329-0.1864777-0.3942871-0.4555206-0.3942871-0.8071518
				c0-0.4928055,0.1065674-0.9563141,0.3250122-1.3958435c0.2157593-0.4395294,0.5087891-0.8204575,0.8790894-1.1427841
				c0.3729248-0.3223267,0.812439-0.575386,1.3185425-0.7645187c0.5061035-0.18647,1.0441895-0.2797012,1.6115723-0.2823639
				c0.7032471,0.0026627,1.3452148,0.0932312,1.9312134,0.2797012c0.583374,0.1837997,1.081543,0.4475174,1.4944458,0.7938232
				c0.4102173,0.3462906,0.7324829,0.7458649,0.9669189,1.1987228c0.2317505,0.455513,0.348938,0.9563141,0.348938,1.5050659
				c0,0.6100159-0.15448,1.1720886-0.4661865,1.6835403c-0.30896,0.514122-0.6951904,0.9829483-1.1533813,1.4091644
				c-0.4608154,0.4288788-0.9483032,0.8311157-1.4650879,1.2093811s-0.9855957,0.7458725-1.4038086,1.1001663l-2.3308105,1.9605789
				h3.0500488c0.4262085,0,0.8230591-0.0026627,1.1907349-0.007988c0.3675537-0.0053253,0.6792603-0.0186462,0.9376221-0.0346298
				c0.2557373-0.0186462,0.388916-0.0293045,0.3942261-0.0373001c0.0532837-0.0399551,0.1065674-0.1225357,0.1518555-0.2450714
				c0.0479126-0.1225281,0.0932007-0.269043,0.1331787-0.4342041c0.039978-0.1678162,0.079895-0.3383026,0.1224976-0.5087891
				c0.039978-0.1731567,0.0772705-0.3622818,0.1092529-0.5673981h0.7512207L524.0024414,74.1259155z"/>
			<path class="st7" d="M499.5862427,104.2139053c-0.0426331-0.18647-0.0799255-0.3835907-0.1118774-0.5860443
				c-0.0319824-0.2051163-0.0799255-0.4048996-0.1465149-0.6073532c-0.1704712-0.4901428-0.4155579-0.9003754-0.7325439-1.2280273
				c-0.3196411-0.3303146-0.7218933-0.4954681-1.20401-0.4954681c-0.4528503,0-0.9003906,0.1624908-1.3425598,0.4874802
				c-0.4395142,0.322319-0.8444214,0.7405396-1.2120056,1.2519989c-0.5167847,0.7245636-0.9030457,1.4757614-1.161438,2.2536011
				c-0.2583923,0.7789078-0.4954224,1.5916367-0.7112122,2.4376755c-0.2157593,0.8372421-0.3942566,1.6481094-0.5354004,2.4312744
				c-0.0852661,0.3982468-0.1278992,0.7746429-0.1278992,1.1294708c0,0.3774643,0.0426331,0.7432098,0.1278992,1.0980301
				c0.0985413,0.4922791,0.274353,0.8982468,0.5274353,1.216835c0.2530518,0.319664,0.6046753,0.4784241,1.0574951,0.4773636
				c0.4954834,0.0010605,0.9935913-0.1715546,1.4943848-0.5165176c0.5007935-0.3452301,0.9669495-0.7687836,1.395813-1.2717133
				c0.1731567-0.2077789,0.3383179-0.4088974,0.4954834-0.602829c0.15448-0.1931305,0.2930298-0.4001007,0.4102173-0.6206665
				L499.5862427,104.2139053z M504.2079163,109.9866943c-0.1278381,0.513588-0.2743835,1.0626068-0.4342041,1.64785
				c-0.1624756,0.5863113-0.3782654,1.1294632-0.6473083,1.6315994c-0.2690125,0.5018616-0.6073303,0.9360657-1.0175781,1.3018112
				c-0.4102173,0.3657455-0.9216309,0.5482178-1.5369873,0.5482178c-0.817749,0-1.4703979-0.2266922-1.9631958-0.6814117
				c-0.4901428-0.4549789-0.7724915-0.9176865-0.8470764-1.389183c-0.3675842,0.419548-0.9136658,0.8694763-1.6408997,1.350029
				c-0.7245483,0.4802856-1.4916992,0.7205658-2.3015137,0.7205658c-0.8497314,0-1.5636292-0.2139053-2.1416626-0.6422501
				c-0.5753784-0.4283447-1.0255737-0.9677734-1.3479004-1.616684c-0.3862305-0.7725067-0.5913391-1.6038895-0.6126709-2.4941406
				v-0.2352142c0-0.825531,0.1118774-1.6510468,0.3383179-2.4784317c0.2583618-0.9088974,0.620636-1.8079453,1.0814819-2.69767
				c0.463501-0.8870544,1.0788269-1.7154999,1.8433228-2.4800262c0.6259766-0.6259995,1.3399048-1.1534348,2.1416626-1.5823135
				c0.8018188-0.4288712,1.6169434-0.641983,2.4453735-0.6446457c0.7218933,0.0026627,1.3106079,0.1917953,1.7607727,0.575386
				c0.4528503,0.380928,0.7378845,0.6979218,0.8577271,0.9456558l-0.0639343,0.2690506
				c0.074585-0.3862534,0.2557373-0.6792755,0.5407715-0.8790665c0.2850342-0.1971207,0.5726929-0.2983475,0.8630676-0.2983475
				c0.3356323,0,0.6153259,0.0985641,0.8417358,0.2983475c0.1385193,0.1571655,0.2157898,0.3649445,0.2237549,0.6259995
				c0,0.0959015-0.0106506,0.199791-0.0319519,0.3143387l-2.3254395,9.0668869
				c-0.1092529,0.4294052-0.1838379,0.8324432-0.2264404,1.2077789c-0.0213013,0.1893997-0.0319824,0.3620148-0.0319824,0.5178452
				c0,0.1371918,0.0106812,0.2831726,0.0319824,0.43927c0.0319519,0.2517319,0.1091919,0.4400635,0.2264404,0.5655289
				c0.1198425,0.1254654,0.2849731,0.1883316,0.5007629,0.1872711c0.2264099,0.0010605,0.4395142-0.0932388,0.6393127-0.2813034
				c0.1997681-0.1883316,0.3835754-0.4677658,0.5487061-0.8393707c0.1678467-0.3705444,0.3250122-0.8156662,0.4768372-1.333252
				c0.151825-0.5175781,0.3063354-1.0793839,0.4688416-1.6872711c0.0639343-0.2706451,0.2477417-0.4067688,0.5487366-0.4078293
				h0.3702698c0.2823486,0.0010605,0.4208679,0.1156082,0.4208679,0.3449631V109.9866943z"/>
			<path class="st7" d="M513.7362671,119.3119736h-8.2470703v-0.4832153c0-0.0346298,0.0213013-0.0873795,0.0612793-0.1582336
				l3.3137207-3.2149734c0.391571-0.385994,0.7884827-0.781311,1.1907349-1.1854095
				c0.4022217-0.4041061,0.7618408-0.8170013,1.0787964-1.2384186c0.3170166-0.4216843,0.5700684-0.8566895,0.7592163-1.3044739
				c0.1890869-0.4480591,0.2850342-0.9179611,0.2850342-1.4104996c0-0.4150314-0.0612793-0.8034134-0.1838074-1.1635666
				c-0.1199036-0.3601532-0.2956848-0.6763458-0.5274353-0.9485931c-0.2290955-0.2722397-0.5141296-0.4920044-0.8604126-0.6587601
				c-0.3436279-0.1670227-0.7431946-0.2504044-1.1960449-0.2509384c-0.6739502,0.0005341-1.2706299,0.1806107-1.7874146,0.5407639
				c-0.5167542,0.3601456-0.8603821,0.7570572-1.0281982,1.1896667c-0.0346069,0.0122528,0.0186462,0.0181122,0.1624756,0.0175781
				h0.1705017c0.2024231,0.0418243,0.3782654,0.1049576,0.5274353,0.1893997
				c0.1491699,0.0852432,0.274353,0.2021866,0.3755798,0.3513641c0.1012268,0.149437,0.151825,0.3295135,0.151825,0.5396881
				c0,0.3518906-0.1278381,0.6214752-0.3862305,0.8087387c-0.2557373,0.1878052-0.543396,0.2810364-0.8604126,0.2805023
				c-0.3036499,0.0005341-0.5886841-0.0926971-0.852417-0.2805023c-0.2610474-0.1872635-0.3942261-0.4568481-0.3942261-0.8087387
				c0-0.4912109,0.1092224-0.9568481,0.3249512-1.3961105c0.2157898-0.43927,0.5087891-0.819664,0.8817139-1.1419907
				c0.3703003-0.3217926,0.8098145-0.5764542,1.315918-0.7642517c0.5061646-0.1872635,1.04422-0.2810364,1.6116028-0.2815704
				c0.7032166,0.0005341,1.3478699,0.0927048,1.9312439,0.2773132c0.583374,0.1843338,1.0814819,0.4496536,1.4943848,0.7948837
				c0.4129028,0.3460312,0.7352295,0.7456055,0.96698,1.1989899c0.234375,0.4541855,0.348938,0.9560471,0.348938,1.506134
				c0,0.6094818-0.15448,1.1704865-0.4661865,1.6827393c-0.30896,0.5127869-0.6952515,0.9826889-1.1533813,1.4099655
				c-0.4608765,0.4275513-0.9483337,0.8300552-1.4650879,1.2077789c-0.5167847,0.3777313-0.9855957,0.745079-1.4038391,1.1017685
				l-2.3308105,1.9589767h3.0500488c0.426178,0.0005341,0.8230896-0.0021286,1.1907043-0.008255
				c0.3702393-0.0053253,0.6819458-0.0175858,0.9376221-0.0351639c0.2584229-0.0175781,0.388916-0.0290375,0.3942871-0.0356979
				c0.0559082-0.0404892,0.1065674-0.1222687,0.15448-0.2453384c0.0452881-0.1230698,0.0905762-0.2679825,0.1305542-0.4347382
				c0.039917-0.1670151,0.0825195-0.3367081,0.1224976-0.5095901c0.039978-0.172348,0.0772705-0.3617477,0.1118774-0.5671234
				h0.7485352L513.7362671,119.3119736z"/>
			<path class="st7" d="M524.3647461,119.3119736h-8.2470703v-0.4832153c0-0.0346298,0.0186768-0.0873795,0.0585938-0.1582336
				l3.3137817-3.2149734c0.3915405-0.385994,0.7884521-0.781311,1.1906738-1.1854095
				c0.4022827-0.4041061,0.7619019-0.8170013,1.081543-1.2384186c0.3169556-0.4216843,0.5700073-0.8566895,0.7591553-1.3044739
				c0.1891479-0.4480591,0.2823486-0.9179611,0.2823486-1.4104996c0-0.4150314-0.0612183-0.8034134-0.1810913-1.1635666
				c-0.1225586-0.3601532-0.2983398-0.6763458-0.5274658-0.9485931c-0.229126-0.2722397-0.5167236-0.4920044-0.8604126-0.6587601
				c-0.3436279-0.1670227-0.7431641-0.2504044-1.1960449-0.2509384c-0.6765747,0.0005341-1.2732544,0.1806107-1.7900391,0.5407639
				c-0.5167847,0.3601456-0.8577271,0.7570572-1.0281982,1.1896667c-0.0319824,0.0122528,0.0213013,0.0181122,0.1624756,0.0175781
				h0.1731567c0.2023926,0.0418243,0.3782349,0.1049576,0.5274048,0.1893997
				c0.1465454,0.0852432,0.2716675,0.2021866,0.3729248,0.3513641c0.1012573,0.149437,0.1518555,0.3295135,0.1518555,0.5396881
				c0,0.3518906-0.1278687,0.6214752-0.383606,0.8087387c-0.2583618,0.1878052-0.543396,0.2810364-0.8630371,0.2805023
				c-0.3037109,0.0005341-0.5860596-0.0926971-0.8497314-0.2805023c-0.2637939-0.1872635-0.3942871-0.4568481-0.3942871-0.8087387
				c0-0.4912109,0.1065674-0.9568481,0.3223267-1.3961105c0.2184448-0.43927,0.5114136-0.819664,0.8817139-1.1419907
				c0.3729248-0.3217926,0.8097534-0.5764542,1.3185425-0.7642517c0.5061646-0.1872635,1.0442505-0.2810364,1.6116333-0.2815704
				c0.7032471,0.0005341,1.3452148,0.0927048,1.9285889,0.2773132c0.5859985,0.1843338,1.0841675,0.4496536,1.4943237,0.7948837
				c0.4129028,0.3460312,0.7352295,0.7456055,0.9696655,1.1989899c0.2317505,0.4541855,0.348938,0.9560471,0.348938,1.506134
				c0,0.6094818-0.15448,1.1704865-0.4661865,1.6827393c-0.3116455,0.5127869-0.6951904,0.9826889-1.1560669,1.4099655
				c-0.4581299,0.4275513-0.9456177,0.8300552-1.4624023,1.2077789c-0.5167847,0.3777313-0.9855957,0.745079-1.4038086,1.1017685
				l-2.3308105,1.9589767h3.0500488c0.4262085,0.0005341,0.8230591-0.0021286,1.1906738-0.008255
				c0.3676147-0.0053253,0.6792603-0.0175781,0.9376831-0.0351639c0.2557373-0.0175781,0.388916-0.0290375,0.3942261-0.0356979
				c0.0532837-0.0404816,0.1038818-0.1222687,0.1517944-0.2453308c0.0479736-0.1230774,0.0906372-0.2679901,0.1332397-0.4347382
				c0.039978-0.1670227,0.079895-0.3367157,0.119873-0.5095978c0.0426025-0.172348,0.0772095-0.3617477,0.1118774-0.5671234
				h0.7485352L524.3647461,119.3119736z"/>
			<path class="st7" d="M483.7074585,120.8181076c-14.6508179-16.063446-14.6508179-60.173851-0.000061-76.2367477h1.6435547
				c-13.6199036,16.0628967-13.6199036,60.1733017,0.0000305,76.2367477"/>
			<path class="st7" d="M530.8989868,44.5813599c14.6508179,16.0628967,14.6508179,60.1733017,0.000061,76.2367477h-1.6435547
				c13.619873-16.063446,13.619873-60.173851-0.000061-76.2367477"/>
			<line class="st9" x1="383.5838013" y1="44.6479492" x2="383.5838318" y2="120.7539063"/>
			<line class="st9" x1="549.5987549" y1="120.7539063" x2="549.5987549" y2="44.6479492"/>
		</g>
		<g class="st4">
			<defs>
				<rect id="SVGID_13_" x="406.8147583" y="-7.3086777" width="38.4912109" height="50.7473907"/>
			</defs>
			<clipPath id="SVGID_14_">
				<use xlink:href="#SVGID_13_"  style="overflow:visible;"/>
			</clipPath>
			<path class="st10" d="M429.3357544,14.8991241c-0.4528503,0.0026703-0.8076477,0.0079956-1.0665894,0.0186462
				c-0.2589111,0.0106659-0.5116882,0.0346375-0.7596741,0.0772552c-0.0961609,0.0213013-0.1853943,0.0399475-0.2658691,0.0559387
				c-0.0801697,0.015976-0.1262512,0.0346222-0.1382446,0.0532684l-4.7007141,11.9057007
				c-0.2040405,0.5127716-0.5814819,0.7684937-1.1312866,0.7684937h-0.4040833c-0.5490112,0-0.925415-0.255722-1.1313171-0.7684937
				l-4.7822266-12.1108093h-2.1480713v-2.0857239c0.7863464,0.0319672,1.4783936,0.0532684,2.076416,0.0639191
				c0.5979919,0.0106659,1.2029419,0.0159912,1.8166809,0.0159912h1.4216309c0.4421692,0,0.8920898-0.0053253,1.3500061-0.0159912
				c0.4576111-0.0106506,1.0204773-0.0319519,1.6880188-0.0639191v2.0857239h-1.7450256l2.7460632,6.965744l2.7793579-7.0110168
				c-0.0098572,0.0106506-0.0157166,0.0372925-0.0157166,0.07724c0,0.0852356,0.0215759,0.133194,0.0636597,0.1411743
				c-0.1068115-0.0079803-0.2194824-0.0239716-0.3391113-0.0452728c-0.3547974-0.0825806-0.8500061-0.1251984-1.4863586-0.1278687
				v-2.0857239c0.6472778,0.0319672,1.1933594,0.0532684,1.6403503,0.0639343
				c0.4469604,0.0106506,0.9027405,0.015976,1.3656921,0.015976h1.0654907c0.3127441,0,0.6148071-0.0053253,0.9048767-0.015976
				c0.2911682-0.0106659,0.6901855-0.0319672,1.1960449-0.0639343V14.8991241z"/>
			<path class="st10" d="M439.7201233,32.0841522c-1.2439575-0.0351715-2.4533081-0.0527496-3.6280212-0.0527496
				s-2.3840637,0.0175781-3.6282959,0.0527496v-0.7554474h0.6997681c0.2224121,0.0005341,0.4325867-0.0021362,0.6270447-0.008255
				c0.197113-0.0056,0.3835754-0.0202484,0.5593872-0.0439606c0.1758118-0.0231628,0.3276367-0.0466156,0.4555054-0.0708466
				c0.1065369-0.0170593,0.197113-0.0708618,0.269043-0.1619568c0.0692444-0.0905762,0.1038818-0.1915283,0.1038818-0.3036804
				v-9.8996124c-0.3356323,0.1470337-0.7511902,0.2586517-1.243988,0.3343048
				c-0.4943848,0.0761871-1.0348511,0.1142731-1.6227417,0.113739v-0.7466583
				c0.8110962,0.0005341,1.5588074-0.0857697,2.2460632-0.2586365c0.6846008-0.172348,1.278595-0.4962616,1.7767334-0.9712219
				h0.3143005c0.2237854,0.0005341,0.3356628,0.097229,0.3356628,0.2898254v11.1382751
				c0,0.1174622,0.0319519,0.2202911,0.1012268,0.308197c0.0665894,0.0876312,0.1651306,0.1403809,0.2929993,0.1574249
				c0.1092224,0.024231,0.2477417,0.0476837,0.4155579,0.0708466c0.1678162,0.0237122,0.3595886,0.0383606,0.5726929,0.0439606
				c0.2131042,0.0061188,0.4208679,0.0087891,0.6233215,0.008255h0.7298584V32.0841522z"/>
		</g>
		<g class="st4">
			<defs>
				<rect id="SVGID_15_" x="487.7472229" y="-7.3086777" width="39.9828796" height="50.7473907"/>
			</defs>
			<clipPath id="SVGID_16_">
				<use xlink:href="#SVGID_15_"  style="overflow:visible;"/>
			</clipPath>
			<path class="st11" d="M510.2681885,14.8991241c-0.4528503,0.0026703-0.8076477,0.0079956-1.0665894,0.0186462
				c-0.2589111,0.0106659-0.5116882,0.0346375-0.7596741,0.0772552c-0.0961609,0.0213013-0.1853943,0.0399475-0.2658691,0.0559387
				c-0.0801697,0.015976-0.1262512,0.0346222-0.1382446,0.0532684l-4.7006836,11.9057007
				c-0.2040405,0.5127716-0.5815125,0.7684937-1.1313171,0.7684937h-0.4040833c-0.5489807,0-0.9253845-0.255722-1.1312866-0.7684937
				l-4.7822571-12.1108093h-2.1480408v-2.0857239c0.7863464,0.0319672,1.4783936,0.0532684,2.0763855,0.0639191
				c0.5980225,0.0106659,1.2029724,0.0159912,1.8166809,0.0159912h1.4216614c0.4421692,0,0.8920898-0.0053253,1.3499756-0.0159912
				c0.4576416-0.0106506,1.0204773-0.0319519,1.6880188-0.0639191v2.0857239h-1.7450256l2.7460632,6.965744l2.7793579-7.0110321
				c-0.0098572,0.0106659-0.0157166,0.0372925-0.0157166,0.0772552c0,0.0852356,0.0215759,0.1331787,0.0636597,0.1411743
				c-0.1068115-0.0079956-0.2194824-0.0239716-0.3390808-0.0452881c-0.3548279-0.0825653-0.8500061-0.1251831-1.4863892-0.1278534
				v-2.0857239c0.6473083,0.0319672,1.1933594,0.0532684,1.6403503,0.0639343
				c0.4469604,0.0106506,0.9027405,0.015976,1.3656921,0.015976h1.0654907c0.3127441,0,0.6148071-0.0053253,0.9048767-0.015976
				c0.2911682-0.0106659,0.6901855-0.0319672,1.1960449-0.0639343V14.8991241z"/>
			<path class="st11" d="M521.4037476,32.0841522h-8.2493896v-0.4832153c0-0.0346222,0.0202637-0.0873718,0.0610352-0.1582184
				l3.3136597-3.2149048c0.3916016-0.3859711,0.7884521-0.7812805,1.1907349-1.185379
				c0.4022217-0.4040833,0.7617798-0.8169708,1.0787964-1.2383881c0.3169556-0.4216614,0.5700073-0.8566589,0.7591553-1.3044434
				c0.1917725-0.4480438,0.2850342-0.917923,0.2850342-1.4104614c0-0.4150085-0.0612793-0.8033905-0.1838379-1.1635284
				c-0.119812-0.3601379-0.2956543-0.6763306-0.5247192-0.9485626c-0.2317505-0.2722473-0.5167847-0.4920044-0.8630981-0.6587524
				c-0.3435669-0.1670227-0.7431641-0.2503967-1.1959839-0.2509308c-0.6739502,0.0005341-1.2706299,0.180603-1.7874146,0.540741
				c-0.5167236,0.3601379-0.8603516,0.7570496-1.0289917,1.1896362c-0.0332642,0.0122528,0.020813,0.0181122,0.1633301,0.0175934
				h0.1704712c0.2024536,0.0418091,0.3782349,0.10495,0.5274048,0.1893921
				c0.1491699,0.0852356,0.274353,0.202179,0.3756104,0.3513489c0.1011963,0.1494293,0.1517944,0.3294983,0.1517944,0.5396729
				c0,0.3518829-0.1278687,0.62146-0.3862305,0.8087158c-0.2557373,0.1878052-0.543396,0.2810364-0.8604126,0.2805023
				c-0.3036499,0.0005341-0.5878296-0.0926971-0.8510132-0.2805023c-0.2631836-0.1872559-0.3953247-0.4568329-0.3953247-0.8087158
				c0-0.4911957,0.1081543-0.9568176,0.324707-1.3960724c0.2163086-0.4392548,0.5098267-0.8196411,0.8811646-1.1419525
				c0.3707886-0.3217926,0.8103027-0.5764465,1.3164063-0.7642517c0.5061035-0.1872559,1.0441895-0.2810211,1.6115723-0.2815552
				c0.7032471,0.0005341,1.3479004,0.0927124,1.9312134,0.277298c0.583374,0.1843414,1.0814819,0.449646,1.4943848,0.7948761
				c0.4129028,0.3457489,0.7351685,0.7455902,0.9669189,1.1989594c0.234436,0.4541779,0.348999,0.9560242,0.348999,1.5060883
				c0,0.6092072-0.154541,1.1704712-0.4661865,1.6827087c-0.30896,0.5127716-0.6952515,0.982666-1.1533813,1.4099274
				c-0.4581909,0.427536-0.9483032,0.8300323-1.4650879,1.2077484c-0.5167236,0.3777161-0.9829102,0.7450562-1.4037476,1.1017303
				l-2.3308105,1.9589386h3.0499878c0.4262085,0.0005341,0.8231201-0.0021362,1.1906738-0.008255
				c0.3703003-0.0053253,0.6819458-0.0175781,0.9376831-0.0351715c0.2583618-0.0175781,0.388916-0.0290222,0.3969116-0.0356903
				c0.0532227-0.0404816,0.1038818-0.1222687,0.1517944-0.2453308c0.0479736-0.1230621,0.0905762-0.2679749,0.1305542-0.4347229
				c0.039917-0.1670227,0.0825806-0.3367004,0.1224976-0.5095825c0.039978-0.172348,0.0772705-0.3617401,0.1118774-0.5671082
				h0.7485352L521.4037476,32.0841522z"/>
		</g>
	</g>
</g>
</svg>
