<?xml version="1.0" encoding="UTF-8"?>
<svg xmlns="http://www.w3.org/2000/svg" xmlns:xlink="http://www.w3.org/1999/xlink" width="928.98pt" height="216pt" viewBox="0 0 928.98 216" version="1.1">
<defs>
<clipPath id="clip1">
  <path d="M 100 1.324219 L 116 1.324219 L 116 5 L 100 5 Z M 100 1.324219 "/>
</clipPath>
<clipPath id="clip2">
  <path d="M 98 1.324219 L 119 1.324219 L 119 7 L 98 7 Z M 98 1.324219 "/>
</clipPath>
<clipPath id="clip3">
  <path d="M 81 1.324219 L 202 1.324219 L 202 43 L 81 43 Z M 81 1.324219 "/>
</clipPath>
<clipPath id="clip4">
  <path d="M 81 1.324219 L 203 1.324219 L 203 44 L 81 44 Z M 81 1.324219 "/>
</clipPath>
<clipPath id="clip5">
  <path d="M 756 1.324219 L 779 1.324219 L 779 2 L 756 2 Z M 756 1.324219 "/>
</clipPath>
<clipPath id="clip6">
  <path d="M 779 1.324219 L 787 1.324219 L 787 10 L 779 10 Z M 779 1.324219 "/>
</clipPath>
<clipPath id="clip7">
  <path d="M 712 1.324219 L 833 1.324219 L 833 14 L 712 14 Z M 712 1.324219 "/>
</clipPath>
<clipPath id="clip8">
  <path d="M 712 1.324219 L 834 1.324219 L 834 15 L 712 15 Z M 712 1.324219 "/>
</clipPath>
</defs>
<g id="surface1">
<path style=" stroke:none;fill-rule:nonzero;fill:rgb(0%,0%,0%);fill-opacity:1;" d="M 217.449219 171.210938 C 201.890625 165.628906 184.863281 145.585938 184.519531 132.222656 C 184.351562 127.742188 184.777344 126.644531 187.316406 124.445312 C 194.335938 118.441406 207.554688 123.261719 220.832031 136.621094 C 230.21875 146.09375 234.789062 154.464844 234.871094 162.414062 C 234.957031 166.898438 234.535156 167.996094 232.082031 170.195312 C 228.78125 173.015625 223.625 173.4375 217.449219 171.210938 Z M 230.136719 168.925781 C 231.996094 167.574219 232.503906 166.21875 232.503906 162.246094 C 232.503906 154.886719 228.191406 147.109375 219.226562 138.058594 C 203.410156 122.160156 186.214844 119.199219 186.722656 132.5625 C 186.976562 139.496094 191.710938 147.953125 200.28125 156.496094 C 211.785156 168.082031 224.046875 173.183594 230.136719 168.925781 Z M 119.628906 162.160156 C 115.230469 161.0625 111.339844 158.523438 109.113281 155.226562 C 103.953125 147.277344 117.261719 134.761719 136.289062 129.855469 C 145.757812 127.320312 161.433594 127.996094 165.578125 131.039062 C 172.425781 136.113281 172.597656 141.273438 166.253906 148.375 C 157.289062 158.269531 133.160156 165.375 119.628906 162.160156 Z M 146.519531 157.257812 C 158.558594 153.28125 167.015625 146.9375 168.539062 140.679688 C 169.550781 136.453125 164.648438 131.886719 157.964844 130.871094 C 136.203125 127.574219 106.832031 141.78125 111.003906 153.621094 C 112.015625 156.496094 116.753906 159.371094 122.503906 160.386719 C 127.492188 161.230469 138.910156 159.792969 146.519531 157.257812 Z M 68.519531 155.734375 C 47.941406 153.195312 38.046875 142.203125 47.941406 132.902344 C 59.273438 122.160156 92.539062 122.246094 104.207031 132.984375 C 117.429688 144.992188 95.328125 159.117188 68.519531 155.734375 Z M 94.230469 151.421875 C 96.429688 150.660156 99.894531 148.628906 102.011719 146.769531 C 108.691406 141.019531 106.40625 135.015625 95.667969 130.195312 C 90.929688 128.082031 87.800781 127.234375 76.976562 127.234375 C 65.644531 127.234375 57.414062 128.839844 51.492188 132.816406 C 42.023438 139.160156 46.417969 148.121094 61.050781 152.265625 C 67 153.957031 82.050781 155.480469 94.230469 151.421875 Z M 140.601562 109.730469 C 133.667969 106.515625 122.503906 95.945312 117.769531 88.164062 C 100.996094 60.511719 119.96875 47.800781 143.222656 71.082031 C 150.15625 78.015625 153.710938 83.175781 156.953125 90.871094 C 160.503906 99.667969 160.335938 105.417969 156.445312 109.308594 C 152.523438 113.195312 148.296875 113.367188 140.601562 109.730469 Z M 154.921875 107.53125 C 157.375 105.164062 157.542969 104.234375 157.035156 99.75 C 154.921875 81.738281 130.113281 57.382812 118.445312 61.78125 C 114.722656 63.21875 114.046875 64.488281 114.046875 69.816406 C 113.960938 82.246094 126.816406 100.171875 140.769531 107.109375 C 148.550781 111 151.339844 111.082031 154.921875 107.53125 Z M 53.523438 109.8125 C 44.222656 104.488281 49.71875 87.402344 65.476562 72.773438 C 73.507812 65.332031 80.613281 61.527344 87.800781 60.851562 C 94.144531 60.257812 97.613281 61.867188 99.132812 66.261719 C 101.757812 73.789062 96.511719 85.460938 85.433594 96.539062 C 73.59375 108.375 60.628906 113.789062 53.523438 109.8125 Z M 70.550781 105.332031 C 74.015625 103.640625 79.515625 99.414062 83.910156 95.015625 C 94.144531 84.699219 99.304688 73.703125 96.851562 66.855469 C 92.539062 54.339844 62.65625 71.421875 53.777344 91.464844 C 46.925781 106.855469 54.539062 113.195312 70.550781 105.332031 Z M 57.921875 101.019531 C 57.921875 99.496094 68.4375 89.773438 69.199219 90.53125 C 69.621094 90.957031 67.675781 93.664062 64.773438 96.539062 C 59.867188 101.613281 57.921875 102.796875 57.921875 101.019531 Z M 179.699219 108.628906 C 175.722656 105.332031 174.289062 100.511719 174.289062 90.195312 C 174.289062 76.15625 179.53125 61.695312 187.570312 53.664062 C 204.847656 36.296875 215.929688 64.402344 203.242188 93.324219 C 198.730469 103.554688 192.136719 110.40625 185.03125 110.492188 C 184.179688 110.492188 181.476562 110.152344 179.699219 108.628906 Z M 194.503906 103.132812 C 201.804688 94.847656 207.894531 74.632812 206.371094 64.316406 C 203.328125 43.484375 188.753906 47.292969 179.867188 71.167969 C 177.921875 78.015625 177.332031 80.640625 176.910156 90.28125 C 177.078125 98.144531 177.246094 100.765625 179.023438 104.234375 C 181.898438 108.96875 188.667969 109.730469 194.503906 103.132812 Z M 166.929688 28.941406 C 164.140625 26.148438 163.210938 20.0625 164.730469 14.988281 C 167.101562 7.039062 174.117188 7.121094 176.484375 15.070312 C 178.601562 22.175781 175.386719 30.96875 170.566406 30.96875 C 169.722656 30.96875 168.113281 30.039062 166.929688 28.941406 Z M 173.1875 27.839844 C 174.625 25.21875 174.625 14.566406 173.1875 11.859375 C 171.835938 9.238281 169.382812 9.238281 168.03125 11.859375 C 166.59375 14.566406 166.59375 25.21875 168.03125 27.839844 C 169.382812 30.464844 171.835938 30.464844 173.1875 27.839844 Z M 173.1875 27.839844 "/>
<path style=" stroke:none;fill-rule:nonzero;fill:rgb(0%,0%,0%);fill-opacity:1;" d="M 87.039062 71.503906 L 88.140625 72.605469 L 77.738281 83.007812 L 76.722656 81.992188 Z M 87.039062 71.503906 "/>
<path style=" stroke:none;fill-rule:nonzero;fill:rgb(0%,0%,0%);fill-opacity:1;" d="M 77.316406 73.449219 L 78.414062 72.351562 L 88.054688 82.078125 L 87.039062 83.175781 Z M 77.316406 73.449219 "/>
<path style=" stroke:none;fill-rule:nonzero;fill:rgb(0%,0%,0%);fill-opacity:1;" d="M 68.265625 90.53125 L 69.28125 91.632812 L 58.765625 101.78125 L 57.667969 100.679688 Z M 68.265625 90.53125 "/>
<path style=" stroke:none;fill-rule:nonzero;fill:rgb(0%,0%,0%);fill-opacity:1;" d="M 120.222656 68.800781 L 121.40625 67.785156 L 130.875 78.949219 L 129.777344 79.960938 Z M 120.222656 68.800781 "/>
<path style=" stroke:none;fill-rule:nonzero;fill:rgb(0%,0%,0%);fill-opacity:1;" d="M 137.472656 89.09375 L 138.65625 88.082031 L 148.128906 99.328125 L 146.945312 100.257812 Z M 137.472656 89.09375 "/>
<path style=" stroke:none;fill-rule:nonzero;fill:rgb(0%,0%,0%);fill-opacity:1;" d="M 147.789062 89.433594 L 148.71875 90.617188 L 137.980469 99.414062 L 137.050781 98.230469 Z M 147.789062 89.433594 "/>
<path style=" stroke:none;fill-rule:nonzero;fill:rgb(0%,0%,0%);fill-opacity:1;" d="M 98.121094 139.582031 L 98.121094 141.105469 L 83.488281 141.019531 L 83.488281 139.414062 Z M 98.121094 139.582031 "/>
<path style=" stroke:none;fill-rule:nonzero;fill:rgb(0%,0%,0%);fill-opacity:1;" d="M 71.734375 139.582031 L 71.734375 141.105469 L 56.992188 141.019531 L 56.992188 139.496094 Z M 71.734375 139.582031 "/>
<path style=" stroke:none;fill-rule:nonzero;fill:rgb(0%,0%,0%);fill-opacity:1;" d="M 63.503906 147.53125 L 65.054688 147.53125 L 65.054688 132.902344 L 63.503906 132.902344 Z M 63.503906 147.53125 "/>
<path style=" stroke:none;fill-rule:nonzero;fill:rgb(0%,0%,0%);fill-opacity:1;" d="M 125.886719 141.273438 L 127.324219 140.933594 L 130.707031 155.226562 L 129.183594 155.566406 Z M 125.886719 141.273438 "/>
<path style=" stroke:none;fill-rule:nonzero;fill:rgb(0%,0%,0%);fill-opacity:1;" d="M 134.597656 146.007812 L 135.019531 147.445312 L 121.742188 150.828125 L 121.320312 149.390625 Z M 134.597656 146.007812 "/>
<path style=" stroke:none;fill-rule:nonzero;fill:rgb(0%,0%,0%);fill-opacity:1;" d="M 161.011719 138.566406 L 161.433594 140.089844 L 147.28125 144.0625 L 146.859375 142.625 Z M 161.011719 138.566406 "/>
<path style=" stroke:none;fill-rule:nonzero;fill:rgb(0%,0%,0%);fill-opacity:1;" d="M 188.835938 86.472656 L 190.273438 86.8125 L 186.46875 101.019531 L 184.945312 100.597656 Z M 188.835938 86.472656 "/>
<path style=" stroke:none;fill-rule:nonzero;fill:rgb(0%,0%,0%);fill-opacity:1;" d="M 195.519531 60.933594 L 196.957031 61.359375 L 192.8125 75.394531 L 191.375 74.972656 Z M 195.519531 60.933594 "/>
<path style=" stroke:none;fill-rule:nonzero;fill:rgb(0%,0%,0%);fill-opacity:1;" d="M 201.804688 69.476562 L 201.464844 70.914062 L 187.144531 67.363281 L 187.570312 65.925781 Z M 201.804688 69.476562 "/>
<path style=" stroke:none;fill-rule:nonzero;fill:rgb(0%,0%,0%);fill-opacity:1;" d="M 206.203125 133.492188 L 207.300781 134.59375 L 196.617188 144.738281 L 195.519531 143.640625 Z M 206.203125 133.492188 "/>
<path style=" stroke:none;fill-rule:nonzero;fill:rgb(0%,0%,0%);fill-opacity:1;" d="M 195.6875 134.507812 L 196.785156 133.410156 L 207.21875 143.808594 L 206.117188 144.910156 Z M 195.6875 134.507812 "/>
<path style=" stroke:none;fill-rule:nonzero;fill:rgb(0%,0%,0%);fill-opacity:1;" d="M 214.742188 153.027344 L 215.84375 152.011719 L 225.992188 162.5 L 224.890625 163.597656 Z M 214.742188 153.027344 "/>
<path style=" stroke:none;fill-rule:nonzero;fill:rgb(0%,0%,0%);fill-opacity:1;" d="M 137.300781 25.558594 L 155.089844 25.558594 L 155.089844 23.445312 L 137.300781 23.445312 Z M 137.300781 25.558594 "/>
<path style=" stroke:none;fill-rule:nonzero;fill:rgb(0%,0%,0%);fill-opacity:1;" d="M 137.300781 20.316406 L 155.007812 20.316406 L 155.007812 18.199219 L 137.300781 18.199219 Z M 137.300781 20.316406 "/>
<path style=" stroke:none;fill-rule:nonzero;fill:rgb(0%,0%,0%);fill-opacity:1;" d="M 105.730469 10.757812 L 103.195312 19.46875 L 105.222656 19.46875 C 106.660156 19.46875 107.675781 19.300781 108.351562 18.878906 C 109.113281 18.453125 109.707031 17.609375 110.242188 16.339844 L 110.832031 16.339844 L 108.523438 24.375 L 107.84375 24.375 C 108.097656 23.699219 108.183594 23.105469 108.183594 22.597656 C 108.183594 21.753906 107.84375 21.160156 107.085938 20.824219 C 106.746094 20.738281 106.070312 20.652344 104.96875 20.652344 L 102.855469 20.652344 L 100.742188 28.011719 C 100.570312 28.6875 100.402344 29.277344 100.402344 29.617188 C 100.402344 29.871094 100.570312 30.125 100.824219 30.378906 C 101.078125 30.546875 101.503906 30.632812 102.261719 30.632812 L 104.207031 30.632812 C 106.324219 30.632812 108.015625 30.210938 109.28125 29.449219 C 110.664062 28.6875 111.761719 27.417969 112.777344 25.558594 L 113.371094 25.558594 L 111.339844 31.730469 L 94.144531 31.730469 L 94.3125 31.140625 C 95.160156 31.054688 95.75 30.96875 96.089844 30.886719 C 96.511719 30.714844 96.765625 30.464844 97.019531 30.125 C 97.273438 29.703125 97.613281 28.773438 98.035156 27.335938 L 101.925781 13.886719 C 102.261719 12.875 102.433594 12.027344 102.433594 11.4375 C 102.433594 10.589844 101.671875 10.167969 100.320312 10.167969 L 99.894531 10.167969 L 100.148438 9.492188 L 116.078125 9.492188 L 114.722656 14.902344 L 114.132812 14.902344 C 114.214844 14.394531 114.214844 13.972656 114.214844 13.632812 C 114.214844 12.367188 113.539062 11.519531 112.1875 11.011719 C 111.679688 10.84375 110.410156 10.757812 108.523438 10.757812 Z M 105.730469 10.757812 "/>
<path style=" stroke:none;fill-rule:nonzero;fill:rgb(0%,0%,0%);fill-opacity:1;" d="M 123.941406 33.253906 C 123.941406 35.285156 123.515625 36.722656 122.757812 37.652344 C 121.996094 38.582031 121.152344 39.089844 120.304688 39.089844 C 119.289062 39.089844 118.445312 38.496094 117.769531 37.398438 C 117.089844 36.296875 116.753906 34.945312 116.753906 33.421875 C 116.753906 31.476562 117.175781 30.039062 117.9375 29.023438 C 118.699219 28.011719 119.460938 27.585938 120.390625 27.585938 C 121.066406 27.585938 121.660156 27.839844 122.25 28.347656 C 122.757812 28.855469 123.179688 29.53125 123.515625 30.378906 C 123.769531 31.140625 123.941406 32.15625 123.941406 33.253906 Z M 122.332031 32.832031 C 122.332031 31.394531 122.164062 30.292969 121.828125 29.363281 C 121.488281 28.519531 120.980469 28.09375 120.390625 28.09375 C 119.035156 28.09375 118.359375 29.957031 118.359375 33.59375 C 118.359375 35.113281 118.53125 36.382812 118.867188 37.226562 C 119.207031 38.074219 119.714844 38.582031 120.304688 38.582031 C 121.660156 38.582031 122.332031 36.636719 122.332031 32.832031 Z M 122.332031 32.832031 "/>
<g clip-path="url(#clip1)" clip-rule="nonzero">
<path style=" stroke:none;fill-rule:evenodd;fill:rgb(0%,0%,0%);fill-opacity:1;" d="M 111.171875 3.824219 C 111.257812 3.570312 111.339844 3.316406 111.425781 3.0625 C 111.511719 2.894531 111.511719 2.472656 111.511719 2.386719 L 111.511719 2.300781 L 100.824219 2.300781 L 100.824219 1.625 L 111.511719 1.625 L 111.511719 1.542969 C 111.511719 1.457031 111.511719 1.035156 111.425781 0.863281 C 111.339844 0.609375 111.257812 0.355469 111.171875 0.0195312 C 111.085938 -0.0664062 111.003906 -0.234375 111.003906 -0.234375 C 111.085938 -0.234375 115.992188 1.964844 115.992188 1.964844 C 115.992188 1.964844 111.085938 4.078125 111.003906 4.078125 C 111.003906 4.078125 111.085938 3.992188 111.171875 3.824219 Z M 111.171875 3.824219 "/>
</g>
<g clip-path="url(#clip2)" clip-rule="nonzero">
<path style="fill:none;stroke-width:0.14;stroke-linecap:butt;stroke-linejoin:miter;stroke:rgb(0%,0%,0%);stroke-opacity:1;stroke-miterlimit:10;" d="M 47.859165 123.270276 C 47.920135 123.450423 47.978333 123.63057 48.039303 123.810717 C 48.100273 123.929892 48.100273 124.229213 48.100273 124.290186 L 48.100273 124.351159 L 40.517866 124.351159 L 40.517866 124.830628 L 48.100273 124.830628 L 48.100273 124.888829 C 48.100273 124.949802 48.100273 125.249124 48.039303 125.37107 C 47.978333 125.551217 47.920135 125.731364 47.859166 125.969713 C 47.798196 126.030686 47.739998 126.14986 47.739998 126.14986 C 47.798196 126.14986 51.279008 124.589508 51.279008 124.589508 C 51.279008 124.589508 47.798196 123.090129 47.739998 123.090129 C 47.739998 123.090129 47.798196 123.151101 47.859165 123.270276 Z M 47.859165 123.270276 " transform="matrix(1.409513,0.0000000312248,-0.0000000339995,-1.409437,43.713769,177.565952)"/>
</g>
<path style="fill:none;stroke-width:22.5;stroke-linecap:round;stroke-linejoin:round;stroke:rgb(0%,0%,0%);stroke-opacity:1;stroke-miterlimit:10;" d="M 392.882583 494.952046 L 2952.265504 494.952046 L 2952.265504 2107.457701 L 392.882583 2107.457701 Z M 392.882583 494.952046 " transform="matrix(0.0799082,0,0,-0.0799077,0,217.0739)"/>
<g clip-path="url(#clip3)" clip-rule="nonzero">
<path style=" stroke:none;fill-rule:evenodd;fill:rgb(100%,100%,100%);fill-opacity:1;" d="M 81.714844 42.929688 L 201.574219 42.929688 L 201.574219 -28.988281 L 81.714844 -28.988281 Z M 81.714844 42.929688 "/>
</g>
<g clip-path="url(#clip4)" clip-rule="nonzero">
<path style="fill:none;stroke-width:15;stroke-linecap:round;stroke-linejoin:round;stroke:rgb(100%,100%,100%);stroke-opacity:1;stroke-miterlimit:10;" d="M 1022.609277 2179.317984 L 2522.573093 2179.317984 L 2522.573093 3079.331372 L 1022.609277 3079.331372 Z M 1022.609277 2179.317984 " transform="matrix(0.0799082,0,0,-0.0799077,0,217.0739)"/>
</g>
<path style=" stroke:none;fill-rule:evenodd;fill:rgb(0%,0%,0%);fill-opacity:1;" d="M 136.675781 199.839844 C 136.609375 200.097656 136.539062 200.371094 136.457031 200.664062 C 136.375 200.957031 136.269531 201.230469 136.132812 201.480469 C 136 201.730469 135.828125 201.949219 135.625 202.132812 C 135.421875 202.316406 135.164062 202.40625 134.855469 202.40625 C 134.449219 202.40625 134.121094 202.292969 133.875 202.066406 C 133.632812 201.839844 133.488281 201.605469 133.453125 201.371094 C 133.269531 201.582031 132.996094 201.804688 132.632812 202.046875 C 132.269531 202.285156 131.886719 202.40625 131.480469 202.40625 C 131.054688 202.40625 130.699219 202.300781 130.410156 202.085938 C 130.121094 201.871094 129.898438 201.601562 129.734375 201.277344 C 129.542969 200.890625 129.441406 200.476562 129.429688 200.03125 L 129.429688 199.914062 C 129.429688 199.5 129.484375 199.085938 129.597656 198.671875 C 129.726562 198.21875 129.910156 197.769531 130.140625 197.324219 C 130.371094 196.878906 130.679688 196.46875 131.0625 196.085938 C 131.375 195.773438 131.730469 195.507812 132.132812 195.292969 C 132.53125 195.078125 132.941406 194.972656 133.355469 194.972656 C 133.714844 194.972656 134.007812 195.066406 134.234375 195.257812 C 134.460938 195.449219 134.605469 195.605469 134.664062 195.730469 L 134.632812 195.867188 C 134.667969 195.671875 134.757812 195.527344 134.902344 195.425781 C 135.046875 195.328125 135.1875 195.277344 135.335938 195.277344 C 135.5 195.277344 135.640625 195.328125 135.753906 195.425781 C 135.824219 195.503906 135.863281 195.609375 135.867188 195.738281 C 135.867188 195.789062 135.863281 195.839844 135.851562 195.898438 L 134.6875 200.429688 C 134.632812 200.644531 134.597656 200.847656 134.574219 201.035156 C 134.5625 201.128906 134.558594 201.214844 134.558594 201.292969 C 134.558594 201.359375 134.5625 201.433594 134.574219 201.511719 C 134.589844 201.636719 134.628906 201.730469 134.6875 201.792969 C 134.746094 201.859375 134.832031 201.890625 134.9375 201.886719 C 135.050781 201.890625 135.15625 201.84375 135.257812 201.746094 C 135.355469 201.652344 135.449219 201.515625 135.53125 201.328125 C 135.617188 201.144531 135.695312 200.921875 135.769531 200.660156 C 135.847656 200.402344 135.921875 200.121094 136.003906 199.816406 C 136.035156 199.683594 136.128906 199.613281 136.277344 199.613281 L 136.464844 199.613281 C 136.605469 199.613281 136.675781 199.671875 136.675781 199.785156 Z M 134.363281 196.957031 C 134.34375 196.863281 134.324219 196.765625 134.308594 196.664062 C 134.292969 196.558594 134.269531 196.460938 134.234375 196.359375 C 134.148438 196.113281 134.027344 195.910156 133.867188 195.746094 C 133.710938 195.578125 133.507812 195.496094 133.265625 195.496094 C 133.039062 195.496094 132.816406 195.578125 132.59375 195.742188 C 132.375 195.902344 132.171875 196.113281 131.988281 196.367188 C 131.730469 196.730469 131.539062 197.105469 131.410156 197.492188 C 131.277344 197.882812 131.160156 198.289062 131.050781 198.710938 C 130.945312 199.132812 130.855469 199.535156 130.785156 199.929688 C 130.742188 200.125 130.722656 200.316406 130.722656 200.492188 C 130.722656 200.679688 130.742188 200.863281 130.785156 201.042969 C 130.835938 201.289062 130.921875 201.492188 131.046875 201.648438 C 131.175781 201.808594 131.351562 201.890625 131.578125 201.886719 C 131.824219 201.890625 132.074219 201.804688 132.324219 201.628906 C 132.574219 201.457031 132.808594 201.246094 133.023438 200.996094 C 133.109375 200.890625 133.191406 200.789062 133.269531 200.691406 C 133.347656 200.597656 133.417969 200.492188 133.476562 200.382812 Z M 134.363281 196.957031 "/>
<path style=" stroke:none;fill-rule:evenodd;fill:rgb(0%,0%,0%);fill-opacity:1;" d="M 127.683594 205.070312 C 122.03125 201.617188 122.03125 193.183594 127.683594 189.734375 L 128.507812 189.734375 C 123.367188 193.183594 123.367188 201.617188 128.507812 205.070312 "/>
<path style=" stroke:none;fill-rule:evenodd;fill:rgb(0%,0%,0%);fill-opacity:1;" d="M 138.425781 189.734375 C 144.078125 193.183594 144.078125 201.617188 138.425781 205.070312 L 137.601562 205.070312 C 142.742188 201.617188 142.742188 193.183594 137.601562 189.734375 "/>
<path style=" stroke:none;fill-rule:nonzero;fill:rgb(0%,0%,0%);fill-opacity:1;" d="M 309.25 28.097656 L 532.972656 28.097656 L 532.972656 29.296875 L 309.25 29.296875 C 308.917969 29.296875 308.648438 29.027344 308.648438 28.695312 C 308.648438 28.367188 308.917969 28.097656 309.25 28.097656 Z M 542.550781 28.695312 L 530.566406 25.101562 L 532.964844 28.097656 L 532.964844 29.296875 L 530.566406 32.292969 Z M 542.550781 28.695312 "/>
<path style=" stroke:none;fill-rule:nonzero;fill:rgb(0%,0%,0%);fill-opacity:1;" d="M 309.25 75.183594 L 532.972656 75.183594 L 532.972656 76.382812 L 309.25 76.382812 C 308.917969 76.382812 308.648438 76.113281 308.648438 75.785156 C 308.648438 75.453125 308.917969 75.183594 309.25 75.183594 Z M 542.550781 75.785156 L 530.566406 72.1875 L 532.964844 75.183594 L 532.964844 76.382812 L 530.566406 79.378906 Z M 542.550781 75.785156 "/>
<path style=" stroke:none;fill-rule:nonzero;fill:rgb(0%,0%,0%);fill-opacity:1;" d="M 309.25 122.273438 L 532.972656 122.273438 L 532.972656 123.472656 L 309.25 123.472656 C 308.917969 123.472656 308.648438 123.203125 308.648438 122.875 C 308.648438 122.542969 308.917969 122.273438 309.25 122.273438 Z M 542.550781 122.875 L 530.566406 119.277344 L 532.964844 122.273438 L 532.964844 123.472656 L 530.566406 126.46875 Z M 542.550781 122.875 "/>
<path style=" stroke:none;fill-rule:nonzero;fill:rgb(0%,0%,0%);fill-opacity:1;" d="M 309.25 169.363281 L 532.972656 169.363281 L 532.972656 170.558594 L 309.25 170.558594 C 308.917969 170.558594 308.648438 170.292969 308.648438 169.960938 C 308.648438 169.628906 308.917969 169.363281 309.25 169.363281 Z M 542.550781 169.960938 L 530.566406 166.367188 L 532.964844 169.363281 L 532.964844 170.558594 L 530.566406 173.558594 Z M 542.550781 169.960938 "/>
<path style="fill:none;stroke-width:22.5;stroke-linecap:round;stroke-linejoin:round;stroke:rgb(0%,0%,0%);stroke-opacity:1;stroke-miterlimit:10;" d="M 5868.258908 1859.221973 C 6026.888245 1618.56335 5840.052705 1215.608032 5450.983092 959.208585 C 5061.913479 702.809138 4617.946871 690.001387 4459.366418 930.66001 C 4300.737081 1171.318633 4487.572621 1574.273951 4876.642234 1830.673398 C 5265.711847 2087.072845 5709.678455 2099.880596 5868.258908 1859.221973 Z M 5868.258908 1859.221973 " transform="matrix(0.0799082,0,0,-0.0799077,0,217.0739)"/>
<path style=" stroke:none;fill-rule:nonzero;fill:rgb(0%,0%,0%);fill-opacity:1;" d="M 468.921875 67.609375 L 501.644531 67.609375 L 501.644531 69.40625 L 468.921875 69.40625 C 468.425781 69.40625 468.023438 69.003906 468.023438 68.507812 C 468.023438 68.011719 468.425781 67.609375 468.921875 67.609375 Z M 516.011719 68.507812 L 498.03125 63.113281 L 501.628906 67.609375 L 501.628906 69.40625 L 498.03125 73.902344 Z M 516.011719 68.507812 "/>
<path style="fill:none;stroke-width:0.402;stroke-linecap:round;stroke-linejoin:round;stroke:rgb(0%,0%,0%);stroke-opacity:1;stroke-miterlimit:10;" d="M 1.873957 7.880063 L 8.910961 7.880063 " transform="matrix(1.598136,0,-0.00000220087,-1.598142,431.02471,80.499714)"/>
<path style="fill:none;stroke-width:0.402;stroke-linecap:round;stroke-linejoin:round;stroke:rgb(0%,0%,0%);stroke-opacity:1;stroke-miterlimit:10;" d="M 5.393686 11.394886 L 5.393676 4.360352 " transform="matrix(1.598136,0,-0.00000220087,-1.598142,431.02471,80.499714)"/>
<path style="fill:none;stroke-width:0.402;stroke-linecap:round;stroke-linejoin:round;stroke:rgb(0%,0%,0%);stroke-opacity:1;stroke-miterlimit:10;" d="M 1.876153 7.878529 L 8.910713 7.878531 " transform="matrix(1.598136,0.000000402226,-0.00000220087,-1.598142,373.661826,152.844918)"/>
<path style=" stroke:none;fill-rule:nonzero;fill:rgb(0%,0%,0%);fill-opacity:1;" d="M 393.574219 128.339844 L 417.046875 97.148438 L 419.203125 98.769531 L 395.726562 129.960938 C 395.28125 130.558594 394.4375 130.675781 393.839844 130.230469 C 393.246094 129.78125 393.125 128.9375 393.574219 128.339844 Z M 425.902344 87.628906 L 411.859375 97.3125 L 417.039062 97.160156 L 419.195312 98.78125 L 420.480469 103.800781 Z M 425.902344 87.628906 "/>
<path style=" stroke:none;fill-rule:evenodd;fill:rgb(0%,0%,0%);fill-opacity:1;" d="M 399.238281 109.203125 C 399.238281 109.804688 399.140625 110.398438 398.949219 110.976562 C 398.761719 111.558594 398.445312 112.070312 398 112.511719 C 397.558594 112.953125 397.050781 113.273438 396.480469 113.472656 C 395.90625 113.667969 395.3125 113.769531 394.691406 113.769531 C 394.277344 113.769531 393.894531 113.699219 393.539062 113.566406 C 393.183594 113.429688 392.953125 113.324219 392.847656 113.242188 L 392.847656 116.148438 L 394.214844 116.148438 L 394.214844 117.398438 C 393.671875 117.382812 393.195312 117.371094 392.785156 117.363281 C 392.375 117.355469 391.960938 117.351562 391.539062 117.351562 C 391.113281 117.351562 390.695312 117.355469 390.285156 117.363281 C 389.875 117.371094 389.402344 117.382812 388.863281 117.398438 L 388.863281 116.148438 L 390.230469 116.148438 L 390.230469 106.257812 C 390.230469 106.175781 390.207031 106.125 390.15625 106.105469 C 390.050781 106.089844 389.882812 106.078125 389.65625 106.070312 C 389.425781 106.0625 389.164062 106.058594 388.863281 106.058594 L 388.863281 104.808594 L 392.742188 104.628906 L 392.742188 105.277344 C 392.898438 105.160156 393.191406 105.023438 393.628906 104.871094 C 394.066406 104.714844 394.527344 104.640625 395.011719 104.640625 C 395.585938 104.640625 396.144531 104.746094 396.6875 104.953125 C 397.230469 105.164062 397.703125 105.484375 398.101562 105.910156 C 398.511719 106.378906 398.800781 106.898438 398.976562 107.460938 C 399.148438 108.027344 399.238281 108.609375 399.238281 109.203125 Z M 396.367188 109.203125 C 396.367188 108.726562 396.335938 108.269531 396.269531 107.835938 C 396.207031 107.398438 396.066406 106.984375 395.855469 106.585938 C 395.71875 106.335938 395.558594 106.132812 395.378906 105.980469 C 395.199219 105.828125 395 105.75 394.777344 105.75 C 394.382812 105.75 394.015625 105.84375 393.671875 106.03125 C 393.332031 106.21875 393.054688 106.457031 392.847656 106.738281 L 392.847656 111.707031 C 393.042969 112 393.285156 112.246094 393.578125 112.4375 C 393.867188 112.628906 394.195312 112.722656 394.554688 112.722656 C 394.808594 112.722656 395.042969 112.644531 395.261719 112.488281 C 395.484375 112.332031 395.65625 112.128906 395.785156 111.875 C 396.019531 111.480469 396.175781 111.058594 396.25 110.605469 C 396.328125 110.15625 396.367188 109.6875 396.367188 109.203125 Z M 396.367188 109.203125 "/>
<path style=" stroke:none;fill-rule:evenodd;fill:rgb(0%,0%,0%);fill-opacity:1;" d="M 517.117188 52.355469 C 517.066406 51.996094 517.019531 51.671875 516.976562 51.394531 C 516.933594 51.113281 516.878906 50.847656 516.8125 50.589844 C 516.742188 50.332031 516.652344 50.09375 516.539062 49.878906 C 516.425781 49.660156 516.289062 49.476562 516.128906 49.316406 C 515.8125 49.023438 515.4375 48.832031 515.003906 48.75 C 514.570312 48.664062 514.121094 48.621094 513.65625 48.621094 L 512.125 48.621094 L 512.125 53.46875 L 512.347656 53.46875 C 512.597656 53.46875 512.84375 53.441406 513.078125 53.386719 C 513.316406 53.335938 513.511719 53.230469 513.664062 53.074219 C 513.828125 52.902344 513.921875 52.65625 513.953125 52.335938 C 513.980469 52.011719 513.996094 51.636719 513.996094 51.210938 L 515.285156 51.210938 L 515.285156 56.960938 L 513.996094 56.960938 C 513.996094 56.535156 513.980469 56.160156 513.953125 55.84375 C 513.921875 55.527344 513.828125 55.285156 513.671875 55.117188 C 513.511719 54.945312 513.316406 54.835938 513.078125 54.785156 C 512.84375 54.734375 512.597656 54.710938 512.347656 54.710938 L 512.125 54.710938 L 512.125 59.574219 L 514.46875 59.574219 L 514.46875 60.828125 C 513.09375 60.785156 511.785156 60.761719 510.542969 60.761719 C 509.445312 60.761719 508.296875 60.785156 507.09375 60.828125 L 507.09375 59.574219 L 508.953125 59.574219 L 508.953125 48.621094 L 507.09375 48.621094 L 507.09375 47.351562 L 517.765625 47.351562 L 518.394531 52.355469 Z M 517.117188 52.355469 "/>
<path style=" stroke:none;fill-rule:evenodd;fill:rgb(0%,0%,0%);fill-opacity:1;" d="M 523.53125 63.476562 L 518.585938 63.476562 L 518.585938 63.1875 C 518.585938 63.164062 518.597656 63.132812 518.621094 63.089844 L 520.609375 61.164062 C 520.84375 60.929688 521.082031 60.695312 521.324219 60.453125 C 521.5625 60.207031 521.78125 59.960938 521.96875 59.707031 C 522.160156 59.457031 522.3125 59.195312 522.425781 58.925781 C 522.539062 58.65625 522.597656 58.375 522.597656 58.078125 C 522.597656 57.832031 522.558594 57.597656 522.488281 57.382812 C 522.414062 57.164062 522.308594 56.976562 522.171875 56.8125 C 522.035156 56.648438 521.859375 56.515625 521.65625 56.417969 C 521.449219 56.316406 521.210938 56.265625 520.9375 56.265625 C 520.53125 56.265625 520.171875 56.375 519.863281 56.589844 C 519.554688 56.808594 519.347656 57.046875 519.246094 57.304688 C 519.226562 57.3125 519.257812 57.316406 519.34375 57.316406 L 519.449219 57.316406 C 519.570312 57.339844 519.675781 57.378906 519.761719 57.429688 C 519.851562 57.480469 519.925781 57.550781 519.988281 57.640625 C 520.050781 57.730469 520.078125 57.835938 520.078125 57.964844 C 520.078125 58.175781 520.003906 58.335938 519.847656 58.449219 C 519.695312 58.5625 519.523438 58.617188 519.332031 58.617188 C 519.148438 58.617188 518.980469 58.5625 518.820312 58.449219 C 518.664062 58.335938 518.585938 58.175781 518.585938 57.964844 C 518.585938 57.667969 518.648438 57.390625 518.777344 57.125 C 518.910156 56.863281 519.085938 56.632812 519.308594 56.441406 C 519.53125 56.246094 519.792969 56.09375 520.097656 55.980469 C 520.402344 55.871094 520.722656 55.8125 521.066406 55.8125 C 521.484375 55.8125 521.871094 55.867188 522.222656 55.980469 C 522.574219 56.089844 522.871094 56.25 523.117188 56.457031 C 523.367188 56.664062 523.558594 56.902344 523.699219 57.175781 C 523.839844 57.449219 523.910156 57.75 523.910156 58.078125 C 523.910156 58.445312 523.816406 58.78125 523.628906 59.089844 C 523.445312 59.398438 523.214844 59.679688 522.9375 59.933594 C 522.660156 60.191406 522.371094 60.433594 522.058594 60.660156 C 521.75 60.886719 521.46875 61.105469 521.21875 61.320312 L 519.820312 62.496094 L 521.648438 62.496094 C 521.902344 62.496094 522.144531 62.496094 522.363281 62.492188 C 522.582031 62.488281 522.769531 62.480469 522.925781 62.46875 C 523.078125 62.460938 523.160156 62.453125 523.164062 62.449219 C 523.195312 62.425781 523.222656 62.375 523.253906 62.300781 C 523.28125 62.226562 523.308594 62.140625 523.332031 62.039062 C 523.355469 61.941406 523.382812 61.839844 523.40625 61.734375 C 523.429688 61.632812 523.453125 61.515625 523.472656 61.394531 L 523.921875 61.394531 Z M 523.53125 63.476562 "/>
<path style=" stroke:none;fill-rule:nonzero;fill:rgb(0%,0%,0%);fill-opacity:1;" d="M 361.140625 150.3125 L 328.421875 150.3125 L 328.421875 148.515625 L 361.140625 148.515625 C 361.640625 148.515625 362.039062 148.917969 362.039062 149.414062 C 362.039062 149.910156 361.640625 150.3125 361.140625 150.3125 Z M 314.054688 149.414062 L 332.03125 154.808594 L 328.4375 150.3125 L 328.4375 148.515625 L 332.03125 144.019531 Z M 314.054688 149.414062 "/>
<path style=" stroke:none;fill-rule:evenodd;fill:rgb(0%,0%,0%);fill-opacity:1;" d="M 310.800781 133.265625 C 310.75 132.902344 310.703125 132.578125 310.660156 132.300781 C 310.617188 132.019531 310.5625 131.753906 310.496094 131.496094 C 310.429688 131.238281 310.335938 131 310.226562 130.785156 C 310.113281 130.566406 309.972656 130.382812 309.8125 130.222656 C 309.496094 129.929688 309.121094 129.738281 308.6875 129.65625 C 308.253906 129.570312 307.804688 129.527344 307.339844 129.527344 L 305.808594 129.527344 L 305.808594 134.375 L 306.03125 134.375 C 306.285156 134.375 306.527344 134.347656 306.765625 134.292969 C 307 134.242188 307.195312 134.136719 307.351562 133.980469 C 307.511719 133.808594 307.605469 133.5625 307.636719 133.242188 C 307.664062 132.917969 307.679688 132.542969 307.679688 132.117188 L 308.96875 132.117188 L 308.96875 137.867188 L 307.679688 137.867188 C 307.679688 137.441406 307.664062 137.066406 307.636719 136.75 C 307.605469 136.433594 307.515625 136.191406 307.355469 136.023438 C 307.199219 135.851562 307 135.742188 306.765625 135.691406 C 306.527344 135.640625 306.285156 135.617188 306.03125 135.617188 L 305.808594 135.617188 L 305.808594 140.480469 L 308.15625 140.480469 L 308.15625 141.734375 C 306.777344 141.691406 305.46875 141.667969 304.230469 141.667969 C 303.128906 141.667969 301.980469 141.691406 300.777344 141.734375 L 300.777344 140.480469 L 302.640625 140.480469 L 302.640625 129.527344 L 300.777344 129.527344 L 300.777344 128.257812 L 311.449219 128.257812 L 312.082031 133.265625 Z M 310.800781 133.265625 "/>
<path style=" stroke:none;fill-rule:evenodd;fill:rgb(0%,0%,0%);fill-opacity:1;" d="M 316.761719 144.382812 C 316.015625 144.363281 315.289062 144.351562 314.585938 144.351562 C 313.882812 144.351562 313.15625 144.363281 312.410156 144.382812 L 312.410156 143.929688 L 312.828125 143.929688 C 312.964844 143.929688 313.089844 143.929688 313.207031 143.925781 C 313.324219 143.921875 313.433594 143.914062 313.539062 143.898438 C 313.644531 143.882812 313.738281 143.871094 313.8125 143.855469 C 313.878906 143.84375 313.933594 143.8125 313.976562 143.757812 C 314.019531 143.703125 314.039062 143.644531 314.039062 143.578125 L 314.039062 137.636719 C 313.835938 137.726562 313.585938 137.792969 313.292969 137.835938 C 312.996094 137.882812 312.671875 137.90625 312.320312 137.90625 L 312.320312 137.457031 C 312.804688 137.457031 313.253906 137.40625 313.664062 137.300781 C 314.078125 137.199219 314.433594 137.003906 314.734375 136.71875 L 314.917969 136.71875 C 315.054688 136.71875 315.121094 136.777344 315.121094 136.894531 L 315.121094 143.578125 C 315.121094 143.648438 315.140625 143.707031 315.183594 143.761719 C 315.222656 143.8125 315.28125 143.84375 315.359375 143.855469 C 315.421875 143.871094 315.507812 143.882812 315.605469 143.898438 C 315.710938 143.914062 315.824219 143.921875 315.949219 143.925781 C 316.078125 143.929688 316.203125 143.929688 316.324219 143.929688 L 316.761719 143.929688 Z M 316.761719 144.382812 "/>
<path style=" stroke:none;fill-rule:evenodd;fill:rgb(0%,0%,0%);fill-opacity:1;" d="M 530.273438 113.542969 L 519.097656 113.542969 L 519.097656 112.300781 L 520.957031 112.300781 L 520.957031 101.34375 L 519.097656 101.34375 L 519.097656 100.074219 L 530.039062 100.074219 L 530.679688 105.082031 L 529.390625 105.082031 C 529.339844 104.710938 529.292969 104.390625 529.253906 104.113281 C 529.214844 103.835938 529.160156 103.570312 529.089844 103.3125 C 529.019531 103.054688 528.929688 102.820312 528.820312 102.601562 C 528.710938 102.386719 528.570312 102.199219 528.402344 102.042969 C 528.066406 101.734375 527.667969 101.542969 527.203125 101.464844 C 526.742188 101.386719 526.273438 101.347656 525.792969 101.34375 L 524.128906 101.34375 L 524.128906 105.9375 L 524.410156 105.9375 C 524.671875 105.9375 524.925781 105.917969 525.167969 105.867188 C 525.410156 105.820312 525.613281 105.714844 525.769531 105.546875 C 525.929688 105.382812 526.023438 105.140625 526.054688 104.824219 C 526.089844 104.507812 526.105469 104.132812 526.105469 103.699219 L 527.382812 103.699219 L 527.382812 109.4375 L 526.105469 109.4375 C 526.105469 109.011719 526.089844 108.640625 526.054688 108.320312 C 526.023438 108 525.929688 107.757812 525.769531 107.589844 C 525.613281 107.425781 525.410156 107.316406 525.167969 107.261719 C 524.925781 107.207031 524.671875 107.179688 524.410156 107.179688 L 524.128906 107.179688 L 524.128906 112.300781 L 525.957031 112.300781 C 526.464844 112.300781 526.953125 112.242188 527.433594 112.125 C 527.910156 112.011719 528.332031 111.789062 528.703125 111.460938 C 528.882812 111.292969 529.039062 111.082031 529.167969 110.824219 C 529.296875 110.566406 529.410156 110.285156 529.511719 109.976562 C 529.613281 109.667969 529.695312 109.351562 529.757812 109.019531 C 529.824219 108.691406 529.890625 108.328125 529.960938 107.925781 L 531.242188 107.925781 Z M 530.273438 113.542969 "/>
<path style=" stroke:none;fill-rule:evenodd;fill:rgb(0%,0%,0%);fill-opacity:1;" d="M 538.574219 112.53125 C 538.574219 113.039062 538.535156 113.542969 538.457031 114.042969 C 538.378906 114.542969 538.183594 115.011719 537.871094 115.453125 C 537.648438 115.773438 537.347656 116.019531 536.976562 116.191406 C 536.605469 116.363281 536.199219 116.449219 535.761719 116.449219 C 535.339844 116.449219 534.941406 116.363281 534.566406 116.191406 C 534.191406 116.019531 533.890625 115.773438 533.671875 115.453125 C 533.359375 115.011719 533.160156 114.542969 533.082031 114.042969 C 533.003906 113.542969 532.964844 113.039062 532.964844 112.53125 C 532.964844 112.019531 533.003906 111.507812 533.082031 110.996094 C 533.160156 110.484375 533.359375 110.007812 533.671875 109.558594 C 533.890625 109.238281 534.191406 108.984375 534.5625 108.808594 C 534.9375 108.628906 535.335938 108.539062 535.761719 108.539062 C 536.195312 108.539062 536.597656 108.628906 536.972656 108.808594 C 537.347656 108.984375 537.648438 109.238281 537.871094 109.558594 C 538.183594 110.007812 538.378906 110.484375 538.457031 110.996094 C 538.535156 111.507812 538.574219 112.019531 538.574219 112.53125 Z M 537.371094 112.347656 C 537.371094 112.128906 537.371094 111.894531 537.363281 111.648438 C 537.363281 111.402344 537.351562 111.160156 537.335938 110.925781 C 537.320312 110.691406 537.289062 110.46875 537.246094 110.257812 C 537.207031 110.050781 537.152344 109.871094 537.09375 109.722656 C 536.96875 109.484375 536.792969 109.289062 536.554688 109.136719 C 536.320312 108.984375 536.054688 108.90625 535.761719 108.90625 C 535.472656 108.90625 535.210938 108.984375 534.980469 109.140625 C 534.746094 109.292969 534.570312 109.488281 534.445312 109.722656 C 534.386719 109.871094 534.335938 110.050781 534.292969 110.257812 C 534.25 110.46875 534.21875 110.691406 534.203125 110.925781 C 534.1875 111.160156 534.179688 111.402344 534.171875 111.648438 C 534.171875 111.894531 534.167969 112.128906 534.167969 112.347656 C 534.167969 112.59375 534.171875 112.855469 534.171875 113.125 C 534.179688 113.398438 534.1875 113.660156 534.203125 113.917969 C 534.21875 114.171875 534.25 114.414062 534.292969 114.640625 C 534.335938 114.871094 534.386719 115.0625 534.445312 115.214844 C 534.5625 115.472656 534.734375 115.683594 534.972656 115.847656 C 535.210938 116.011719 535.472656 116.09375 535.761719 116.09375 C 536.0625 116.09375 536.328125 116.011719 536.566406 115.847656 C 536.800781 115.683594 536.976562 115.472656 537.09375 115.214844 C 537.152344 115.0625 537.207031 114.871094 537.246094 114.640625 C 537.289062 114.414062 537.320312 114.171875 537.335938 113.917969 C 537.351562 113.660156 537.363281 113.398438 537.363281 113.125 C 537.371094 112.855469 537.371094 112.59375 537.371094 112.347656 Z M 537.371094 112.347656 "/>
<path style=" stroke:none;fill-rule:evenodd;fill:rgb(0%,0%,0%);fill-opacity:1;" d="M 428.0625 198.71875 C 427.933594 199.175781 427.75 199.625 427.515625 200.070312 C 427.28125 200.515625 426.976562 200.925781 426.597656 201.300781 C 426.285156 201.613281 425.933594 201.878906 425.535156 202.089844 C 425.140625 202.300781 424.730469 202.40625 424.304688 202.40625 C 423.894531 202.40625 423.554688 202.296875 423.28125 202.078125 C 423.003906 201.859375 422.796875 201.585938 422.648438 201.261719 C 422.476562 200.875 422.386719 200.460938 422.375 200.015625 L 422.375 199.914062 C 422.375 199.5 422.429688 199.089844 422.535156 198.679688 L 424.160156 192.367188 C 424.203125 192.195312 424.230469 192.0625 424.242188 191.976562 L 424.242188 191.953125 C 424.242188 191.90625 424.230469 191.871094 424.207031 191.851562 C 424.144531 191.808594 424.023438 191.78125 423.84375 191.765625 C 423.667969 191.75 423.464844 191.742188 423.230469 191.738281 C 423.152344 191.742188 423.089844 191.714844 423.054688 191.660156 C 423.019531 191.632812 423.003906 191.589844 423.003906 191.542969 C 423.003906 191.511719 423.011719 191.484375 423.027344 191.457031 L 423.054688 191.332031 C 423.097656 191.207031 423.191406 191.128906 423.34375 191.097656 L 425.484375 190.925781 L 425.515625 190.925781 C 425.582031 190.925781 425.636719 190.945312 425.679688 190.988281 C 425.699219 191.03125 425.710938 191.070312 425.710938 191.113281 C 425.710938 191.144531 425.703125 191.175781 425.6875 191.199219 L 424.523438 195.714844 C 424.640625 195.597656 424.859375 195.441406 425.175781 195.253906 C 425.496094 195.066406 425.828125 194.972656 426.179688 194.972656 C 426.605469 194.972656 426.964844 195.082031 427.257812 195.300781 C 427.550781 195.519531 427.773438 195.789062 427.929688 196.109375 C 428.113281 196.496094 428.210938 196.914062 428.222656 197.363281 L 428.222656 197.472656 C 428.222656 197.875 428.167969 198.292969 428.0625 198.71875 Z M 426.890625 196.335938 C 426.839844 196.085938 426.75 195.882812 426.613281 195.730469 C 426.480469 195.574219 426.304688 195.496094 426.089844 195.496094 C 425.832031 195.496094 425.578125 195.582031 425.332031 195.75 C 425.082031 195.917969 424.851562 196.128906 424.636719 196.382812 C 424.46875 196.597656 424.324219 196.800781 424.199219 196.988281 L 423.757812 198.710938 C 423.648438 199.132812 423.566406 199.535156 423.515625 199.921875 C 423.492188 200.082031 423.480469 200.238281 423.480469 200.382812 C 423.480469 200.613281 423.507812 200.832031 423.5625 201.042969 C 423.621094 201.28125 423.71875 201.484375 423.855469 201.644531 C 423.996094 201.808594 424.175781 201.890625 424.402344 201.886719 C 424.628906 201.890625 424.851562 201.804688 425.078125 201.636719 C 425.300781 201.472656 425.5 201.261719 425.679688 201.011719 C 425.9375 200.660156 426.132812 200.289062 426.265625 199.894531 C 426.394531 199.5 426.515625 199.09375 426.621094 198.679688 C 426.730469 198.253906 426.824219 197.839844 426.90625 197.441406 C 426.9375 197.253906 426.953125 197.070312 426.953125 196.894531 C 426.953125 196.707031 426.933594 196.519531 426.890625 196.335938 Z M 426.890625 196.335938 "/>
<path style=" stroke:none;fill-rule:evenodd;fill:rgb(0%,0%,0%);fill-opacity:1;" d="M 420.632812 205.070312 C 414.976562 201.617188 414.976562 193.183594 420.632812 189.734375 L 421.453125 189.734375 C 416.3125 193.183594 416.3125 201.617188 421.453125 205.070312 "/>
<path style=" stroke:none;fill-rule:evenodd;fill:rgb(0%,0%,0%);fill-opacity:1;" d="M 429.972656 189.734375 C 435.625 193.183594 435.625 201.617188 429.972656 205.070312 L 429.148438 205.070312 C 434.289062 201.617188 434.289062 193.183594 429.148438 189.734375 "/>
<path style=" stroke:none;fill-rule:nonzero;fill:rgb(0%,0%,0%);fill-opacity:1;" d="M 736.015625 132.453125 C 717.976562 126.703125 715.945312 114.019531 732.042969 107.085938 C 750.480469 99.136719 781.628906 104.546875 784.84375 116.472656 C 786.023438 121.714844 783.914062 125.011719 780.105469 127.972656 C 772.074219 134.316406 749.042969 136.597656 736.015625 132.453125 Z M 766.066406 131.1875 C 776.722656 128.902344 782.726562 124.421875 782.726562 118.585938 C 782.726562 115.203125 779.515625 112.074219 772.664062 108.945312 C 768.011719 106.746094 761.640625 105.648438 753.101562 105.648438 C 743.96875 105.648438 738.214844 106.746094 733.566406 108.945312 C 724.007812 113.34375 721.472656 118.164062 725.363281 123.742188 C 730.859375 130.761719 750.480469 134.484375 766.066406 131.1875 Z M 665.683594 129.324219 C 659.34375 126.449219 657.3125 122.898438 658.835938 117.65625 C 662.21875 106.324219 686.347656 95.246094 704.191406 96.851562 C 711.464844 97.527344 718.570312 100.574219 720.34375 103.957031 C 724.855469 112.328125 711.550781 124.925781 693.113281 129.664062 C 684.148438 132.03125 671.265625 131.777344 665.683594 129.324219 Z M 692.265625 127.632812 C 700.976562 125.519531 711.632812 119.007812 715.269531 114.863281 C 724.09375 105.730469 714.933594 99.390625 700.21875 99.050781 C 683.726562 99.050781 665.347656 107.929688 661.371094 117.402344 C 660.019531 120.785156 660.863281 122.304688 661.878906 123.828125 C 663.0625 125.351562 666.191406 127.125 668.136719 127.804688 C 673.210938 129.578125 684.316406 129.496094 692.265625 127.632812 Z M 819.210938 123.488281 C 805.140625 120.785156 791.269531 112.75 786.449219 104.460938 C 783.152344 98.796875 783.152344 96.34375 786.449219 92.371094 C 796.433594 80.613281 835.871094 91.609375 843.988281 108.4375 C 849.738281 120.359375 838.492188 127.125 819.210938 123.488281 Z M 839.589844 119.9375 C 846.355469 115.792969 843.144531 107 831.894531 99.472656 C 822.929688 93.976562 812.953125 90.59375 804.382812 90 C 795.328125 89.496094 790.085938 90.761719 787.464844 94.820312 C 786.617188 96.261719 785.519531 98.457031 787.800781 102.179688 C 791.183594 108.4375 796.601562 111.988281 804.890625 116.21875 C 815.910156 121.796875 833.164062 123.828125 839.589844 119.9375 Z M 740.921875 93.214844 C 724.433594 91.269531 714.085938 83.066406 717.636719 74.695312 C 719.414062 70.636719 721.894531 68.523438 728.238281 65.816406 C 743.628906 59.21875 769.28125 62.011719 778.078125 71.144531 C 789.660156 83.320312 767.675781 96.429688 740.921875 93.214844 Z M 768.605469 88.308594 C 782.136719 82.390625 782.136719 73.851562 768.605469 67.761719 C 763.757812 65.5625 755.214844 64.546875 748.871094 64.546875 C 742.527344 64.546875 734.070312 65.5625 729 67.761719 C 717.046875 73.171875 716.03125 81.546875 726.714844 86.957031 C 733.394531 90.339844 739.992188 92.03125 750.984375 91.609375 C 758.851562 91.355469 763.503906 90.339844 768.605469 88.308594 Z M 683.726562 74.609375 C 671.519531 71.3125 665.769531 67.339844 660.949219 62.09375 C 648.941406 49.070312 663.316406 38.417969 686.855469 42.984375 C 708.503906 47.210938 724.433594 62.011719 718.144531 70.214844 C 716.878906 71.90625 714.933594 73.171875 712.5625 74.355469 C 706.898438 77.0625 693.703125 77.738281 683.726562 74.609375 Z M 710.789062 72.496094 C 718.398438 69.535156 719.160156 64.714844 712.988281 58.035156 C 705.039062 50.003906 691.335938 44.082031 676.707031 44.082031 C 664.585938 44.082031 660.78125 47.886719 659.511719 50.425781 C 656.972656 56.007812 665.9375 64.460938 672.113281 67.675781 C 684.402344 73.933594 701.824219 76.132812 710.789062 72.496094 Z M 784.335938 69.535156 C 778.921875 68.097656 773.257812 64.460938 773.257812 59.894531 C 773.257812 53.722656 780.023438 46.875 791.269531 41.546875 C 800.238281 37.316406 807.59375 35.964844 818.785156 36.386719 C 828.765625 36.726562 832.488281 38.417969 835.53125 43.742188 C 840.4375 52.453125 824.453125 65.730469 804.636719 69.535156 C 794.652344 71.398438 791.691406 71.058594 784.335938 69.535156 Z M 803.113281 67.421875 C 817.265625 64.886719 830.457031 57.273438 833.585938 49.917969 C 834.261719 48.394531 834.6875 46.703125 832.824219 43.828125 C 829.613281 39.515625 823.945312 38.078125 812.867188 38.585938 C 797.445312 39.429688 786.363281 45.859375 779.851562 51.945312 C 772.328125 59.472656 775.792969 63.277344 782.304688 66.40625 C 788.476562 69.03125 793.890625 69.03125 803.113281 67.421875 Z M 803.113281 67.421875 "/>
<path style=" stroke:none;fill-rule:nonzero;fill:rgb(0%,0%,0%);fill-opacity:1;" d="M 681.359375 56.597656 L 680.765625 58.628906 L 666.109375 54.652344 L 666.699219 52.625 Z M 681.359375 56.597656 "/>
<path style=" stroke:none;fill-rule:nonzero;fill:rgb(0%,0%,0%);fill-opacity:1;" d="M 741.34375 76.554688 L 741.429688 78.671875 L 726.714844 79.175781 L 726.632812 77.148438 Z M 741.34375 76.554688 "/>
<path style=" stroke:none;fill-rule:nonzero;fill:rgb(0%,0%,0%);fill-opacity:1;" d="M 700.046875 55.074219 L 701.992188 55.667969 L 698.273438 69.875 L 696.242188 69.28125 Z M 700.046875 55.074219 "/>
<path style=" stroke:none;fill-rule:nonzero;fill:rgb(0%,0%,0%);fill-opacity:1;" d="M 691.761719 61.503906 L 692.351562 59.472656 L 706.558594 63.109375 L 706.050781 65.140625 Z M 691.761719 61.503906 "/>
<path style=" stroke:none;fill-rule:nonzero;fill:rgb(0%,0%,0%);fill-opacity:1;" d="M 759.441406 70.296875 L 761.558594 70.296875 L 761.386719 85.011719 L 759.359375 85.011719 Z M 759.441406 70.296875 "/>
<path style=" stroke:none;fill-rule:nonzero;fill:rgb(0%,0%,0%);fill-opacity:1;" d="M 767.757812 76.472656 L 767.84375 78.5 L 753.101562 78.753906 L 753.101562 76.640625 Z M 767.757812 76.472656 "/>
<path style=" stroke:none;fill-rule:nonzero;fill:rgb(0%,0%,0%);fill-opacity:1;" d="M 731.367188 119.601562 L 745.40625 119.601562 L 745.40625 117.65625 L 731.367188 117.65625 Z M 731.367188 119.601562 "/>
<path style=" stroke:none;fill-rule:nonzero;fill:rgb(0%,0%,0%);fill-opacity:1;" d="M 757.582031 119.515625 L 771.820312 119.515625 L 771.820312 117.570312 L 757.582031 117.570312 Z M 757.582031 119.515625 "/>
<path style=" stroke:none;fill-rule:nonzero;fill:rgb(0%,0%,0%);fill-opacity:1;" d="M 763.671875 125.773438 L 765.785156 125.773438 L 765.785156 111.566406 L 763.671875 111.566406 Z M 763.671875 125.773438 "/>
<path style=" stroke:none;fill-rule:nonzero;fill:rgb(0%,0%,0%);fill-opacity:1;" d="M 682.035156 114.695312 L 682.625 116.640625 L 668.558594 121.039062 L 667.96875 119.09375 Z M 682.035156 114.695312 "/>
<path style=" stroke:none;fill-rule:nonzero;fill:rgb(0%,0%,0%);fill-opacity:1;" d="M 698.273438 104.378906 L 700.21875 103.871094 L 703.601562 118.164062 L 701.65625 118.667969 Z M 698.273438 104.378906 "/>
<path style=" stroke:none;fill-rule:nonzero;fill:rgb(0%,0%,0%);fill-opacity:1;" d="M 707.828125 108.097656 L 708.335938 110.128906 L 694.128906 113.847656 L 693.621094 111.820312 Z M 707.828125 108.097656 "/>
<path style=" stroke:none;fill-rule:nonzero;fill:rgb(0%,0%,0%);fill-opacity:1;" d="M 797.109375 54.0625 L 797.617188 56.089844 L 783.488281 59.980469 L 782.898438 58.035156 Z M 797.109375 54.0625 "/>
<path style=" stroke:none;fill-rule:nonzero;fill:rgb(0%,0%,0%);fill-opacity:1;" d="M 812.953125 43.152344 L 814.894531 42.644531 L 818.957031 56.683594 L 817.011719 57.273438 Z M 812.953125 43.152344 "/>
<path style=" stroke:none;fill-rule:nonzero;fill:rgb(0%,0%,0%);fill-opacity:1;" d="M 822.929688 47.296875 L 823.4375 49.324219 L 809.285156 53.300781 L 808.777344 51.269531 Z M 822.929688 47.296875 "/>
<path style=" stroke:none;fill-rule:nonzero;fill:rgb(0%,0%,0%);fill-opacity:1;" d="M 793.722656 99.640625 L 794.398438 97.699219 L 808.355469 102.347656 L 807.679688 104.292969 Z M 793.722656 99.640625 "/>
<path style=" stroke:none;fill-rule:nonzero;fill:rgb(0%,0%,0%);fill-opacity:1;" d="M 827.496094 102.855469 L 829.441406 103.53125 L 824.285156 117.316406 L 822.339844 116.640625 Z M 827.496094 102.855469 "/>
<path style=" stroke:none;fill-rule:nonzero;fill:rgb(0%,0%,0%);fill-opacity:1;" d="M 818.617188 108.183594 L 819.378906 106.238281 L 833.078125 111.652344 L 832.316406 113.597656 Z M 818.617188 108.183594 "/>
<g clip-path="url(#clip5)" clip-rule="nonzero">
<path style=" stroke:none;fill-rule:nonzero;fill:rgb(0%,0%,0%);fill-opacity:1;" d="M 767.84375 -19.625 L 765.277344 -10.914062 L 767.421875 -10.914062 C 768.773438 -10.914062 769.875 -11.082031 770.464844 -11.503906 C 771.226562 -11.929688 771.820312 -12.773438 772.328125 -14.042969 L 772.917969 -14.042969 L 770.636719 -6.007812 L 769.957031 -6.007812 C 770.210938 -6.683594 770.296875 -7.277344 770.296875 -7.785156 C 770.296875 -8.628906 769.957031 -9.222656 769.195312 -9.5625 C 768.859375 -9.644531 768.183594 -9.730469 767.082031 -9.730469 L 765.023438 -9.730469 L 762.824219 -2.371094 C 762.65625 -1.695312 762.574219 -1.105469 762.574219 -0.765625 C 762.574219 -0.511719 762.65625 -0.257812 762.910156 -0.00390625 C 763.164062 0.164062 763.585938 0.25 764.347656 0.25 L 766.320312 0.25 C 768.4375 0.25 770.128906 -0.175781 771.394531 -0.933594 C 772.75 -1.695312 773.847656 -2.964844 774.863281 -4.824219 L 775.457031 -4.824219 L 773.425781 1.347656 L 756.230469 1.347656 L 756.398438 0.757812 C 757.246094 0.671875 757.835938 0.585938 758.175781 0.503906 C 758.597656 0.332031 758.9375 0.078125 759.105469 -0.257812 C 759.359375 -0.679688 759.695312 -1.613281 760.121094 -3.050781 L 764.011719 -16.496094 C 764.347656 -17.511719 764.515625 -18.355469 764.515625 -18.949219 C 764.515625 -19.792969 763.757812 -20.214844 762.402344 -20.214844 L 762.066406 -20.214844 L 762.234375 -20.894531 L 778.160156 -20.894531 L 776.808594 -15.480469 L 776.214844 -15.480469 C 776.300781 -15.988281 776.300781 -16.410156 776.300781 -16.75 C 776.300781 -18.015625 775.625 -18.863281 774.269531 -19.371094 C 773.765625 -19.539062 772.496094 -19.625 770.636719 -19.625 Z M 767.84375 -19.625 "/>
</g>
<g clip-path="url(#clip6)" clip-rule="nonzero">
<path style=" stroke:none;fill-rule:nonzero;fill:rgb(0%,0%,0%);fill-opacity:1;" d="M 786.277344 3.292969 C 786.277344 5.324219 785.855469 6.84375 785.097656 7.691406 C 784.335938 8.621094 783.488281 9.128906 782.644531 9.128906 C 781.628906 9.128906 780.785156 8.535156 780.105469 7.4375 C 779.429688 6.335938 779.09375 4.984375 779.09375 3.460938 C 779.09375 1.515625 779.515625 0.078125 780.277344 -0.933594 C 781.035156 -1.949219 781.796875 -2.371094 782.726562 -2.371094 C 783.40625 -2.371094 783.996094 -2.117188 784.589844 -1.613281 C 785.097656 -1.105469 785.519531 -0.425781 785.855469 0.417969 C 786.109375 1.265625 786.277344 2.195312 786.277344 3.292969 Z M 784.671875 2.871094 C 784.671875 1.515625 784.503906 0.332031 784.167969 -0.511719 C 783.828125 -1.441406 783.320312 -1.867188 782.726562 -1.867188 C 781.375 -1.867188 780.699219 -0.00390625 780.699219 3.632812 C 780.699219 5.152344 780.867188 6.421875 781.207031 7.269531 C 781.542969 8.199219 782.050781 8.621094 782.644531 8.621094 C 783.996094 8.621094 784.671875 6.675781 784.671875 2.871094 Z M 784.671875 2.871094 "/>
</g>
<path style="fill:none;stroke-width:22.5;stroke-linecap:round;stroke-linejoin:round;stroke:rgb(0%,0%,0%);stroke-opacity:1;stroke-miterlimit:10;" d="M 8141.033569 744.947617 L 10700.367605 744.947617 L 10700.367605 2357.453272 L 8141.033569 2357.453272 Z M 8141.033569 744.947617 " transform="matrix(0.0799082,0,0,-0.0799077,0,217.0739)"/>
<g clip-path="url(#clip7)" clip-rule="nonzero">
<path style=" stroke:none;fill-rule:evenodd;fill:rgb(100%,100%,100%);fill-opacity:1;" d="M 712.890625 13.710938 L 832.75 13.710938 L 832.75 -58.203125 L 712.890625 -58.203125 Z M 712.890625 13.710938 "/>
</g>
<g clip-path="url(#clip8)" clip-rule="nonzero">
<path style="fill:none;stroke-width:15;stroke-linecap:round;stroke-linejoin:round;stroke:rgb(100%,100%,100%);stroke-opacity:1;stroke-miterlimit:10;" d="M 8921.372586 2544.974393 L 10421.336401 2544.974393 L 10421.336401 3444.938896 L 8921.372586 3444.938896 Z M 8921.372586 2544.974393 " transform="matrix(0.0799082,0,0,-0.0799077,0,217.0739)"/>
</g>
<path style=" stroke:none;fill-rule:nonzero;fill:rgb(0%,0%,0%);fill-opacity:1;" d="M 616.683594 42.332031 L 640.953125 42.332031 L 640.953125 43.527344 L 616.683594 43.527344 C 616.351562 43.527344 616.082031 43.261719 616.082031 42.929688 C 616.082031 42.597656 616.351562 42.332031 616.683594 42.332031 Z M 650.535156 42.929688 L 638.546875 39.332031 L 640.945312 42.332031 L 640.945312 43.527344 L 638.546875 46.523438 Z M 650.535156 42.929688 "/>
<path style=" stroke:none;fill-rule:nonzero;fill:rgb(0%,0%,0%);fill-opacity:1;" d="M 616.683594 73.1875 L 640.953125 73.1875 L 640.953125 74.386719 L 616.683594 74.386719 C 616.351562 74.386719 616.082031 74.117188 616.082031 73.785156 C 616.082031 73.453125 616.351562 73.1875 616.683594 73.1875 Z M 650.535156 73.785156 L 638.546875 70.191406 L 640.945312 73.1875 L 640.945312 74.386719 L 638.546875 77.382812 Z M 650.535156 73.785156 "/>
<path style=" stroke:none;fill-rule:nonzero;fill:rgb(0%,0%,0%);fill-opacity:1;" d="M 616.683594 105.007812 L 640.953125 105.007812 L 640.953125 106.207031 L 616.683594 106.207031 C 616.351562 106.207031 616.082031 105.9375 616.082031 105.609375 C 616.082031 105.277344 616.351562 105.007812 616.683594 105.007812 Z M 650.535156 105.609375 L 638.546875 102.011719 L 640.945312 105.007812 L 640.945312 106.207031 L 638.546875 109.203125 Z M 650.535156 105.609375 "/>
<path style=" stroke:none;fill-rule:nonzero;fill:rgb(0%,0%,0%);fill-opacity:1;" d="M 616.683594 135.972656 L 640.953125 135.972656 L 640.953125 137.171875 L 616.683594 137.171875 C 616.351562 137.171875 616.082031 136.902344 616.082031 136.570312 C 616.082031 136.242188 616.351562 135.972656 616.683594 135.972656 Z M 650.535156 136.570312 L 638.546875 132.976562 L 640.945312 135.972656 L 640.945312 137.171875 L 638.546875 140.167969 Z M 650.535156 136.570312 "/>
<path style=" stroke:none;fill-rule:nonzero;fill:rgb(0%,0%,0%);fill-opacity:1;" d="M 616.683594 169.363281 L 882.554688 169.363281 L 882.554688 170.558594 L 616.683594 170.558594 C 616.351562 170.558594 616.082031 170.292969 616.082031 169.960938 C 616.082031 169.628906 616.351562 169.363281 616.683594 169.363281 Z M 892.136719 169.960938 L 880.148438 166.367188 L 882.546875 169.363281 L 882.546875 170.558594 L 880.148438 173.558594 Z M 892.136719 169.960938 "/>
<path style=" stroke:none;fill-rule:nonzero;fill:rgb(0%,0%,0%);fill-opacity:1;" d="M 855.296875 42.332031 L 882.558594 42.332031 L 882.558594 43.527344 L 855.296875 43.527344 C 854.964844 43.527344 854.695312 43.261719 854.695312 42.929688 C 854.695312 42.597656 854.964844 42.332031 855.296875 42.332031 Z M 892.136719 42.929688 L 880.148438 39.332031 L 882.546875 42.332031 L 882.546875 43.527344 L 880.148438 46.523438 Z M 892.136719 42.929688 "/>
<path style=" stroke:none;fill-rule:nonzero;fill:rgb(0%,0%,0%);fill-opacity:1;" d="M 855.296875 73.1875 L 882.558594 73.1875 L 882.558594 74.386719 L 855.296875 74.386719 C 854.964844 74.386719 854.695312 74.117188 854.695312 73.785156 C 854.695312 73.453125 854.964844 73.1875 855.296875 73.1875 Z M 892.136719 73.785156 L 880.148438 70.191406 L 882.546875 73.1875 L 882.546875 74.386719 L 880.148438 77.382812 Z M 892.136719 73.785156 "/>
<path style=" stroke:none;fill-rule:nonzero;fill:rgb(0%,0%,0%);fill-opacity:1;" d="M 855.296875 105.007812 L 882.558594 105.007812 L 882.558594 106.207031 L 855.296875 106.207031 C 854.964844 106.207031 854.695312 105.9375 854.695312 105.609375 C 854.695312 105.277344 854.964844 105.007812 855.296875 105.007812 Z M 892.136719 105.609375 L 880.148438 102.011719 L 882.546875 105.007812 L 882.546875 106.207031 L 880.148438 109.203125 Z M 892.136719 105.609375 "/>
<path style=" stroke:none;fill-rule:nonzero;fill:rgb(0%,0%,0%);fill-opacity:1;" d="M 855.296875 135.972656 L 882.558594 135.972656 L 882.558594 137.171875 L 855.296875 137.171875 C 854.964844 137.171875 854.695312 136.902344 854.695312 136.570312 C 854.695312 136.242188 854.964844 135.972656 855.296875 135.972656 Z M 892.136719 136.570312 L 880.148438 132.976562 L 882.546875 135.972656 L 882.546875 137.171875 L 880.148438 140.167969 Z M 892.136719 136.570312 "/>
<path style=" stroke:none;fill-rule:evenodd;fill:rgb(0%,0%,0%);fill-opacity:1;" d="M 910.011719 110.761719 L 898.835938 110.761719 L 898.835938 109.519531 L 900.695312 109.519531 L 900.695312 98.5625 L 898.835938 98.5625 L 898.835938 97.292969 L 909.78125 97.292969 L 910.417969 102.300781 L 909.128906 102.300781 C 909.078125 101.929688 909.035156 101.609375 908.996094 101.332031 C 908.957031 101.054688 908.902344 100.789062 908.828125 100.53125 C 908.757812 100.273438 908.667969 100.035156 908.558594 99.820312 C 908.449219 99.601562 908.308594 99.417969 908.140625 99.261719 C 907.804688 98.953125 907.40625 98.761719 906.945312 98.679688 C 906.484375 98.601562 906.011719 98.566406 905.535156 98.5625 L 903.867188 98.5625 L 903.867188 103.15625 L 904.148438 103.15625 C 904.414062 103.15625 904.667969 103.132812 904.910156 103.085938 C 905.152344 103.039062 905.351562 102.933594 905.507812 102.765625 C 905.667969 102.601562 905.765625 102.359375 905.796875 102.039062 C 905.828125 101.722656 905.84375 101.351562 905.84375 100.914062 L 907.125 100.914062 L 907.125 106.65625 L 905.84375 106.65625 C 905.84375 106.230469 905.828125 105.855469 905.796875 105.539062 C 905.765625 105.21875 905.667969 104.972656 905.507812 104.808594 C 905.351562 104.640625 905.152344 104.53125 904.910156 104.480469 C 904.667969 104.425781 904.414062 104.398438 904.148438 104.398438 L 903.867188 104.398438 L 903.867188 109.519531 L 905.699219 109.519531 C 906.203125 109.519531 906.695312 109.460938 907.171875 109.34375 C 907.652344 109.226562 908.074219 109.007812 908.441406 108.679688 C 908.621094 108.511719 908.777344 108.296875 908.90625 108.039062 C 909.035156 107.785156 909.152344 107.5 909.25 107.195312 C 909.351562 106.886719 909.433594 106.566406 909.5 106.238281 C 909.5625 105.910156 909.632812 105.542969 909.703125 105.140625 L 910.980469 105.140625 Z M 910.011719 110.761719 "/>
<path style=" stroke:none;fill-rule:evenodd;fill:rgb(0%,0%,0%);fill-opacity:1;" d="M 918.316406 109.75 C 918.316406 110.257812 918.273438 110.761719 918.195312 111.261719 C 918.117188 111.761719 917.921875 112.230469 917.609375 112.671875 C 917.386719 112.988281 917.089844 113.234375 916.714844 113.40625 C 916.34375 113.582031 915.9375 113.667969 915.5 113.667969 C 915.078125 113.667969 914.679688 113.582031 914.304688 113.40625 C 913.929688 113.234375 913.632812 112.988281 913.410156 112.671875 C 913.097656 112.230469 912.902344 111.761719 912.824219 111.261719 C 912.742188 110.761719 912.703125 110.257812 912.703125 109.75 C 912.703125 109.238281 912.742188 108.726562 912.824219 108.214844 C 912.902344 107.703125 913.097656 107.226562 913.410156 106.777344 C 913.632812 106.457031 913.929688 106.203125 914.304688 106.023438 C 914.675781 105.84375 915.074219 105.757812 915.5 105.753906 C 915.933594 105.757812 916.335938 105.84375 916.714844 106.023438 C 917.085938 106.203125 917.386719 106.457031 917.609375 106.777344 C 917.921875 107.226562 918.117188 107.703125 918.195312 108.214844 C 918.273438 108.726562 918.316406 109.238281 918.316406 109.75 Z M 917.109375 109.566406 C 917.109375 109.34375 917.109375 109.113281 917.105469 108.867188 C 917.101562 108.621094 917.089844 108.378906 917.074219 108.144531 C 917.058594 107.90625 917.03125 107.6875 916.988281 107.476562 C 916.945312 107.269531 916.890625 107.089844 916.832031 106.941406 C 916.710938 106.703125 916.53125 106.507812 916.296875 106.355469 C 916.0625 106.203125 915.796875 106.125 915.5 106.125 C 915.210938 106.125 914.953125 106.203125 914.71875 106.355469 C 914.488281 106.511719 914.308594 106.707031 914.1875 106.941406 C 914.128906 107.089844 914.074219 107.269531 914.03125 107.476562 C 913.988281 107.6875 913.960938 107.90625 913.945312 108.144531 C 913.925781 108.378906 913.917969 108.621094 913.914062 108.867188 C 913.910156 109.113281 913.90625 109.34375 913.90625 109.566406 C 913.90625 109.8125 913.910156 110.070312 913.914062 110.34375 C 913.917969 110.617188 913.925781 110.878906 913.945312 111.132812 C 913.960938 111.390625 913.988281 111.628906 914.03125 111.859375 C 914.074219 112.085938 914.128906 112.277344 914.1875 112.433594 C 914.300781 112.691406 914.476562 112.902344 914.714844 113.066406 C 914.949219 113.230469 915.210938 113.3125 915.5 113.3125 C 915.800781 113.3125 916.070312 113.230469 916.304688 113.066406 C 916.542969 112.902344 916.71875 112.691406 916.832031 112.433594 C 916.890625 112.277344 916.945312 112.085938 916.988281 111.859375 C 917.03125 111.628906 917.058594 111.390625 917.074219 111.132812 C 917.089844 110.878906 917.101562 110.617188 917.105469 110.34375 C 917.109375 110.070312 917.109375 109.8125 917.109375 109.566406 Z M 917.109375 109.566406 "/>
<path style=" stroke:none;fill-rule:nonzero;fill:rgb(0%,0%,0%);fill-opacity:1;" d="M 616.683594 169.363281 L 640.953125 169.363281 L 640.953125 170.558594 L 616.683594 170.558594 C 616.351562 170.558594 616.082031 170.292969 616.082031 169.960938 C 616.082031 169.628906 616.351562 169.363281 616.683594 169.363281 Z M 650.535156 169.960938 L 638.546875 166.367188 L 640.945312 169.363281 L 640.945312 170.558594 L 638.546875 173.558594 Z M 650.535156 169.960938 "/>
<path style=" stroke:none;fill-rule:evenodd;fill:rgb(0%,0%,0%);fill-opacity:1;" d="M 756.808594 200.3125 C 756.847656 200.347656 756.863281 200.390625 756.863281 200.429688 C 756.863281 200.476562 756.84375 200.53125 756.800781 200.585938 C 756.375 201.179688 755.832031 201.628906 755.171875 201.941406 C 754.511719 202.25 753.851562 202.40625 753.191406 202.40625 C 752.722656 202.40625 752.316406 202.304688 751.96875 202.097656 C 751.625 201.890625 751.355469 201.621094 751.15625 201.285156 C 750.929688 200.910156 750.800781 200.5 750.765625 200.054688 C 750.757812 199.945312 750.75 199.835938 750.75 199.722656 C 750.75 199.390625 750.792969 199.042969 750.878906 198.679688 C 751.007812 198.199219 751.207031 197.738281 751.472656 197.292969 C 751.742188 196.847656 752.074219 196.441406 752.480469 196.070312 C 752.851562 195.746094 753.261719 195.480469 753.710938 195.277344 C 754.160156 195.074219 754.613281 194.972656 755.0625 194.972656 C 755.339844 194.972656 755.597656 195.015625 755.835938 195.097656 C 756.074219 195.179688 756.277344 195.304688 756.449219 195.460938 C 756.617188 195.621094 756.742188 195.808594 756.816406 196.023438 C 756.835938 196.136719 756.847656 196.253906 756.847656 196.367188 C 756.847656 196.492188 756.832031 196.625 756.800781 196.765625 C 756.742188 197.003906 756.621094 197.183594 756.4375 197.304688 C 756.253906 197.429688 756.070312 197.488281 755.886719 197.488281 C 755.695312 197.488281 755.539062 197.421875 755.417969 197.285156 C 755.328125 197.195312 755.28125 197.082031 755.28125 196.941406 C 755.28125 196.882812 755.292969 196.8125 755.3125 196.726562 C 755.375 196.5 755.492188 196.328125 755.664062 196.214844 C 755.839844 196.101562 755.976562 196.042969 756.074219 196.039062 C 756.019531 195.90625 755.890625 195.785156 755.6875 195.671875 C 755.488281 195.554688 755.246094 195.496094 754.96875 195.496094 C 754.699219 195.496094 754.421875 195.578125 754.140625 195.746094 C 753.855469 195.910156 753.609375 196.121094 753.390625 196.382812 C 753.101562 196.722656 752.878906 197.089844 752.726562 197.484375 C 752.574219 197.878906 752.441406 198.289062 752.332031 198.710938 C 752.226562 199.132812 752.144531 199.535156 752.082031 199.929688 C 752.0625 200.054688 752.050781 200.171875 752.050781 200.28125 C 752.050781 200.539062 752.09375 200.785156 752.179688 201.019531 C 752.261719 201.28125 752.398438 201.492188 752.589844 201.648438 C 752.78125 201.808594 753.007812 201.890625 753.277344 201.886719 C 753.847656 201.890625 754.40625 201.742188 754.949219 201.449219 C 755.496094 201.15625 755.945312 200.761719 756.300781 200.257812 C 756.332031 200.199219 756.394531 200.15625 756.484375 200.125 L 756.550781 200.125 C 756.605469 200.125 756.648438 200.144531 756.6875 200.179688 Z M 756.808594 200.3125 "/>
<path style=" stroke:none;fill-rule:evenodd;fill:rgb(0%,0%,0%);fill-opacity:1;" d="M 749.007812 205.070312 C 743.351562 201.617188 743.351562 193.183594 749.007812 189.734375 L 749.828125 189.734375 C 744.6875 193.183594 744.6875 201.617188 749.828125 205.070312 "/>
<path style=" stroke:none;fill-rule:evenodd;fill:rgb(0%,0%,0%);fill-opacity:1;" d="M 758.613281 189.734375 C 764.269531 193.183594 764.269531 201.617188 758.613281 205.070312 L 757.792969 205.070312 C 762.933594 201.617188 762.933594 193.183594 757.792969 189.734375 "/>
</g>
</svg>
