<?xml version="1.0" encoding="UTF-8"?>
<svg xmlns="http://www.w3.org/2000/svg" xmlns:xlink="http://www.w3.org/1999/xlink" width="631.98pt" height="241.98pt" viewBox="0 0 631.98 241.98" version="1.1">
<g id="surface1">
<path style="fill:none;stroke-width:15;stroke-linecap:round;stroke-linejoin:round;stroke:rgb(0%,0%,0%);stroke-opacity:1;stroke-miterlimit:10;" d="M 1328.571292 1258.774584 C 1328.571292 927.41045 1059.955012 658.786337 728.570302 658.786337 C 397.185591 658.786337 128.569312 927.41045 128.569312 1258.774584 C 128.569312 1590.171429 397.185591 1858.795543 728.570302 1858.795543 C 1059.955012 1858.795543 1328.571292 1590.171429 1328.571292 1258.774584 Z M 1328.571292 1258.774584 " transform="matrix(0.119798,0,0,-0.119416,0,245.6738)"/>
<path style="fill:none;stroke-width:15;stroke-linecap:round;stroke-linejoin:round;stroke:rgb(0%,0%,0%);stroke-opacity:1;stroke-miterlimit:10;" d="M 845.727171 1258.774584 C 845.727171 1194.071893 793.295152 1141.635891 728.570302 1141.635891 C 663.845452 1141.635891 611.413432 1194.071893 611.413432 1258.774584 C 611.413432 1323.509986 663.845452 1375.945989 728.570302 1375.945989 C 793.295152 1375.945989 845.727171 1323.509986 845.727171 1258.774584 Z M 845.727171 1258.774584 " transform="matrix(0.119798,0,0,-0.119416,0,245.6738)"/>
<path style="fill:none;stroke-width:15;stroke-linecap:round;stroke-linejoin:round;stroke:rgb(0%,0%,0%);stroke-opacity:1;stroke-miterlimit:10;" d="M 774.87221 1258.774584 C 774.87221 1233.227162 754.134172 1212.488281 728.570302 1212.488281 C 702.973825 1212.488281 682.268394 1233.227162 682.268394 1258.774584 C 682.268394 1284.354718 702.973825 1305.126309 728.570302 1305.126309 C 754.134172 1305.126309 774.87221 1284.354718 774.87221 1258.774584 Z M 774.87221 1258.774584 " transform="matrix(0.119798,0,0,-0.119416,0,245.6738)"/>
<path style="fill:none;stroke-width:0.2814;stroke-linecap:round;stroke-linejoin:round;stroke:rgb(0%,0%,0%);stroke-opacity:1;stroke-miterlimit:10;" d="M 1.312622 5.514582 L 6.236213 5.514586 " transform="matrix(2.39599,0.0000017163,-0.000000589596,-2.388286,97.3706,97.193835)"/>
<path style="fill:none;stroke-width:0.2814;stroke-linecap:round;stroke-linejoin:round;stroke:rgb(0%,0%,0%);stroke-opacity:1;stroke-miterlimit:10;" d="M 3.774418 7.977779 L 3.774417 3.053025 " transform="matrix(2.39599,0.0000017163,-0.000000589596,-2.388286,97.3706,97.193835)"/>
<path style="fill:none;stroke-width:0.2814;stroke-linecap:round;stroke-linejoin:round;stroke:rgb(0%,0%,0%);stroke-opacity:1;stroke-miterlimit:10;" d="M 1.312622 5.514997 L 6.236213 5.515 " transform="matrix(2.39599,0.0000017163,-0.000000589596,-2.388364,97.3706,120.144473)"/>
<path style=" stroke:none;fill-rule:nonzero;fill:rgb(0%,0%,0%);fill-opacity:1;" d="M 289.316406 16.46875 L 603.464844 16.46875 L 603.464844 18.257812 L 289.316406 18.257812 C 288.820312 18.257812 288.417969 17.855469 288.417969 17.363281 C 288.417969 16.867188 288.820312 16.46875 289.316406 16.46875 Z M 617.824219 17.363281 L 599.855469 11.988281 L 603.449219 16.46875 L 603.449219 18.257812 L 599.855469 22.738281 Z M 617.824219 17.363281 "/>
<path style=" stroke:none;fill-rule:nonzero;fill:rgb(0%,0%,0%);fill-opacity:1;" d="M 289.316406 65.726562 L 603.464844 65.726562 L 603.464844 67.519531 L 289.316406 67.519531 C 288.820312 67.519531 288.417969 67.117188 288.417969 66.621094 C 288.417969 66.128906 288.820312 65.726562 289.316406 65.726562 Z M 617.824219 66.621094 L 599.855469 61.25 L 603.449219 65.726562 L 603.449219 67.519531 L 599.855469 71.996094 Z M 617.824219 66.621094 "/>
<path style=" stroke:none;fill-rule:nonzero;fill:rgb(0%,0%,0%);fill-opacity:1;" d="M 289.316406 114.984375 L 603.464844 114.984375 L 603.464844 116.777344 L 289.316406 116.777344 C 288.820312 116.777344 288.417969 116.375 288.417969 115.882812 C 288.417969 115.386719 288.820312 114.984375 289.316406 114.984375 Z M 617.824219 115.882812 L 599.855469 110.507812 L 603.449219 114.984375 L 603.449219 116.777344 L 599.855469 121.253906 Z M 617.824219 115.882812 "/>
<path style=" stroke:none;fill-rule:nonzero;fill:rgb(0%,0%,0%);fill-opacity:1;" d="M 289.316406 164.246094 L 603.464844 164.246094 L 603.464844 166.035156 L 289.316406 166.035156 C 288.820312 166.035156 288.417969 165.636719 288.417969 165.140625 C 288.417969 164.644531 288.820312 164.246094 289.316406 164.246094 Z M 617.824219 165.140625 L 599.855469 159.765625 L 603.449219 164.246094 L 603.449219 166.035156 L 599.855469 170.515625 Z M 617.824219 165.140625 "/>
<path style=" stroke:none;fill-rule:evenodd;fill:rgb(0%,0%,0%);fill-opacity:1;" d="M 605.914062 101.621094 L 591.953125 101.621094 L 591.953125 100.074219 L 594.277344 100.074219 L 594.277344 86.433594 L 591.953125 86.433594 L 591.953125 84.847656 L 605.625 84.847656 L 606.421875 91.085938 L 604.8125 91.085938 C 604.75 90.625 604.691406 90.222656 604.644531 89.878906 C 604.59375 89.535156 604.527344 89.203125 604.4375 88.882812 C 604.347656 88.5625 604.234375 88.265625 604.097656 87.996094 C 603.960938 87.726562 603.789062 87.496094 603.578125 87.300781 C 603.15625 86.917969 602.660156 86.679688 602.082031 86.578125 C 601.503906 86.484375 600.917969 86.433594 600.320312 86.433594 L 598.238281 86.433594 L 598.238281 92.152344 L 598.589844 92.152344 C 598.917969 92.152344 599.234375 92.121094 599.539062 92.0625 C 599.84375 92.003906 600.09375 91.871094 600.289062 91.664062 C 600.488281 91.460938 600.605469 91.15625 600.648438 90.761719 C 600.6875 90.371094 600.707031 89.902344 600.707031 89.363281 L 602.304688 89.363281 L 602.304688 96.511719 L 600.707031 96.511719 C 600.707031 95.980469 600.6875 95.515625 600.648438 95.117188 C 600.605469 94.71875 600.488281 94.417969 600.289062 94.207031 C 600.09375 94.003906 599.84375 93.867188 599.539062 93.796875 C 599.234375 93.734375 598.917969 93.699219 598.589844 93.699219 L 598.238281 93.699219 L 598.238281 100.074219 L 600.527344 100.074219 C 601.15625 100.074219 601.769531 100.003906 602.367188 99.859375 C 602.964844 99.714844 603.492188 99.4375 603.953125 99.03125 C 604.179688 98.820312 604.375 98.554688 604.535156 98.234375 C 604.695312 97.914062 604.839844 97.5625 604.964844 97.179688 C 605.089844 96.796875 605.191406 96.402344 605.273438 95.992188 C 605.355469 95.578125 605.4375 95.125 605.527344 94.625 L 607.125 94.625 Z M 605.914062 101.621094 "/>
<path style=" stroke:none;fill-rule:evenodd;fill:rgb(0%,0%,0%);fill-opacity:1;" d="M 616.289062 100.363281 C 616.289062 100.996094 616.238281 101.621094 616.140625 102.246094 C 616.039062 102.867188 615.796875 103.453125 615.40625 104 C 615.128906 104.398438 614.753906 104.703125 614.289062 104.917969 C 613.824219 105.132812 613.316406 105.238281 612.769531 105.238281 C 612.242188 105.238281 611.746094 105.132812 611.277344 104.917969 C 610.808594 104.703125 610.4375 104.398438 610.15625 104 C 609.765625 103.453125 609.523438 102.867188 609.425781 102.246094 C 609.324219 101.621094 609.277344 100.996094 609.277344 100.363281 C 609.277344 99.726562 609.324219 99.085938 609.425781 98.449219 C 609.523438 97.8125 609.765625 97.21875 610.15625 96.664062 C 610.4375 96.261719 610.808594 95.945312 611.273438 95.722656 C 611.738281 95.5 612.238281 95.390625 612.769531 95.390625 C 613.3125 95.390625 613.816406 95.5 614.285156 95.722656 C 614.753906 95.945312 615.128906 96.261719 615.40625 96.664062 C 615.796875 97.21875 616.039062 97.8125 616.140625 98.449219 C 616.238281 99.085938 616.289062 99.726562 616.289062 100.363281 Z M 614.78125 100.132812 C 614.78125 99.859375 614.78125 99.566406 614.777344 99.261719 C 614.769531 98.957031 614.757812 98.65625 614.738281 98.363281 C 614.714844 98.070312 614.679688 97.792969 614.628906 97.53125 C 614.574219 97.273438 614.507812 97.050781 614.433594 96.867188 C 614.28125 96.570312 614.058594 96.324219 613.765625 96.132812 C 613.472656 95.945312 613.140625 95.847656 612.769531 95.847656 C 612.410156 95.847656 612.085938 95.945312 611.796875 96.136719 C 611.503906 96.332031 611.28125 96.574219 611.128906 96.867188 C 611.054688 97.050781 610.988281 97.273438 610.9375 97.53125 C 610.882812 97.792969 610.847656 98.070312 610.824219 98.363281 C 610.804688 98.65625 610.792969 98.957031 610.789062 99.261719 C 610.78125 99.566406 610.78125 99.859375 610.78125 100.132812 C 610.78125 100.441406 610.78125 100.761719 610.789062 101.101562 C 610.792969 101.441406 610.804688 101.769531 610.824219 102.085938 C 610.847656 102.40625 610.882812 102.703125 610.9375 102.988281 C 610.988281 103.273438 611.054688 103.511719 611.128906 103.703125 C 611.269531 104.023438 611.492188 104.285156 611.785156 104.492188 C 612.082031 104.699219 612.410156 104.800781 612.769531 104.800781 C 613.144531 104.800781 613.480469 104.699219 613.777344 104.492188 C 614.074219 104.285156 614.292969 104.023438 614.433594 103.703125 C 614.507812 103.511719 614.574219 103.273438 614.628906 102.988281 C 614.679688 102.703125 614.714844 102.40625 614.738281 102.085938 C 614.757812 101.769531 614.769531 101.441406 614.777344 101.101562 C 614.78125 100.761719 614.78125 100.441406 614.78125 100.132812 Z M 614.78125 100.132812 "/>
<path style="fill:none;stroke-width:15;stroke-linecap:round;stroke-linejoin:round;stroke:rgb(0%,0%,0%);stroke-opacity:1;stroke-miterlimit:10;" d="M 4426.005891 1258.774584 C 4420.919202 1010.365973 4073.817928 815.9635 3650.677183 824.566537 C 3227.536438 833.202286 2888.619516 1041.572427 2893.673597 1289.981039 C 2898.727679 1538.422361 3245.828953 1732.824834 3668.969698 1724.189085 C 4092.110443 1715.586048 4431.027365 1507.215907 4426.005891 1258.774584 Z M 4426.005891 1258.774584 " transform="matrix(0.119798,0,0,-0.119416,0,245.6738)"/>
<path style=" stroke:none;fill-rule:evenodd;fill:rgb(0%,0%,0%);fill-opacity:1;" d="M 457.882812 95.355469 C 457.882812 97.726562 455.953125 99.652344 453.570312 99.652344 C 451.191406 99.652344 449.257812 97.726562 449.257812 95.355469 C 449.257812 92.976562 451.191406 91.054688 453.570312 91.054688 C 455.953125 91.054688 457.882812 92.976562 457.882812 95.355469 Z M 457.882812 95.355469 "/>
<path style=" stroke:none;fill-rule:evenodd;fill:rgb(100%,100%,100%);fill-opacity:1;" d="M 456.445312 95.355469 C 456.445312 96.9375 455.160156 98.21875 453.570312 98.21875 C 451.984375 98.21875 450.695312 96.9375 450.695312 95.355469 C 450.695312 93.769531 451.984375 92.488281 453.570312 92.488281 C 455.160156 92.488281 456.445312 93.769531 456.445312 95.355469 Z M 456.445312 95.355469 "/>
<path style=" stroke:none;fill-rule:evenodd;fill:rgb(0%,0%,0%);fill-opacity:1;" d="M 505.070312 95.355469 C 505.070312 97.726562 503.140625 99.652344 500.757812 99.652344 C 498.375 99.652344 496.445312 97.726562 496.445312 95.355469 C 496.445312 92.976562 498.375 91.054688 500.757812 91.054688 C 503.140625 91.054688 505.070312 92.976562 505.070312 95.355469 Z M 505.070312 95.355469 "/>
<path style=" stroke:none;fill-rule:nonzero;fill:rgb(0%,0%,0%);fill-opacity:1;" d="M 458.828125 94.011719 L 487.832031 94.011719 L 487.832031 96.695312 L 458.828125 96.695312 C 458.082031 96.695312 457.480469 96.09375 457.480469 95.355469 C 457.480469 94.609375 458.082031 94.011719 458.828125 94.011719 Z M 500.757812 95.355469 L 484.585938 89.980469 L 487.820312 94.011719 L 487.820312 96.695312 L 484.585938 100.726562 Z M 500.757812 95.355469 "/>
<path style=" stroke:none;fill-rule:evenodd;fill:rgb(0%,0%,0%);fill-opacity:1;" d="M 477.585938 75.617188 C 477.585938 76.371094 477.464844 77.105469 477.226562 77.828125 C 476.988281 78.550781 476.59375 79.1875 476.039062 79.738281 C 475.488281 80.289062 474.855469 80.6875 474.140625 80.933594 C 473.425781 81.179688 472.679688 81.304688 471.90625 81.304688 C 471.390625 81.304688 470.910156 81.21875 470.464844 81.050781 C 470.019531 80.882812 469.734375 80.75 469.605469 80.648438 L 469.605469 84.269531 L 471.3125 84.269531 L 471.3125 85.828125 C 470.632812 85.804688 470.039062 85.789062 469.523438 85.78125 C 469.011719 85.773438 468.496094 85.769531 467.96875 85.769531 C 467.4375 85.769531 466.914062 85.773438 466.402344 85.78125 C 465.886719 85.789062 465.296875 85.804688 464.625 85.828125 L 464.625 84.269531 L 466.335938 84.269531 L 466.335938 71.949219 C 466.335938 71.847656 466.300781 71.789062 466.238281 71.761719 C 466.109375 71.742188 465.902344 71.726562 465.613281 71.71875 C 465.328125 71.710938 465 71.707031 464.625 71.703125 L 464.625 70.144531 L 469.472656 69.921875 L 469.472656 70.730469 C 469.664062 70.582031 470.035156 70.414062 470.578125 70.222656 C 471.125 70.03125 471.699219 69.933594 472.304688 69.933594 C 473.023438 69.933594 473.722656 70.066406 474.398438 70.328125 C 475.078125 70.589844 475.667969 70.988281 476.167969 71.515625 C 476.675781 72.105469 477.039062 72.75 477.257812 73.453125 C 477.476562 74.15625 477.585938 74.878906 477.585938 75.617188 Z M 474 75.617188 C 474 75.027344 473.960938 74.457031 473.878906 73.914062 C 473.796875 73.371094 473.625 72.855469 473.359375 72.359375 C 473.1875 72.046875 472.992188 71.796875 472.765625 71.605469 C 472.539062 71.414062 472.289062 71.320312 472.015625 71.316406 C 471.523438 71.320312 471.0625 71.4375 470.632812 71.667969 C 470.207031 71.90625 469.863281 72.199219 469.605469 72.546875 L 469.605469 78.738281 C 469.847656 79.105469 470.148438 79.40625 470.511719 79.644531 C 470.875 79.882812 471.285156 80.003906 471.734375 80.003906 C 472.050781 80.003906 472.34375 79.90625 472.621094 79.710938 C 472.894531 79.515625 473.113281 79.261719 473.273438 78.949219 C 473.566406 78.457031 473.757812 77.929688 473.855469 77.367188 C 473.953125 76.804688 474 76.222656 474 75.617188 Z M 474 75.617188 "/>
<path style="fill:none;stroke-width:0.2814;stroke-linecap:round;stroke-linejoin:round;stroke:rgb(0%,0%,0%);stroke-opacity:1;stroke-miterlimit:10;" d="M 1.311797 5.514997 L 6.237019 5.515 " transform="matrix(2.39599,0.0000017163,-0.00000471364,-2.388364,439.728067,120.144473)"/>
<path style="fill:none;stroke-width:0.2814;stroke-linecap:round;stroke-linejoin:round;stroke:rgb(0%,0%,0%);stroke-opacity:1;stroke-miterlimit:10;" d="M 1.312395 5.514997 L 6.237617 5.515 " transform="matrix(2.39599,0.0000017163,-0.00000471364,-2.388364,499.500071,120.144473)"/>
<path style="fill:none;stroke-width:0.2814;stroke-linecap:round;stroke-linejoin:round;stroke:rgb(0%,0%,0%);stroke-opacity:1;stroke-miterlimit:10;" d="M 3.774196 7.978113 L 3.774186 3.05352 " transform="matrix(2.39599,0.0000017163,-0.00000471364,-2.388364,499.500071,120.144473)"/>
<path style=" stroke:none;fill-rule:evenodd;fill:rgb(0%,0%,0%);fill-opacity:1;" d="M 91.808594 219.035156 C 91.714844 219.417969 91.605469 219.828125 91.484375 220.265625 C 91.363281 220.707031 91.199219 221.109375 91 221.484375 C 90.796875 221.859375 90.542969 222.1875 90.234375 222.457031 C 89.929688 222.730469 89.546875 222.867188 89.085938 222.867188 C 88.472656 222.867188 87.980469 222.699219 87.613281 222.359375 C 87.246094 222.019531 87.035156 221.671875 86.980469 221.320312 C 86.703125 221.632812 86.292969 221.972656 85.75 222.328125 C 85.203125 222.6875 84.628906 222.867188 84.023438 222.867188 C 83.386719 222.867188 82.851562 222.707031 82.417969 222.386719 C 81.988281 222.070312 81.652344 221.664062 81.40625 221.179688 C 81.117188 220.601562 80.964844 219.980469 80.949219 219.316406 L 80.949219 219.140625 C 80.949219 218.523438 81.035156 217.90625 81.203125 217.289062 C 81.394531 216.609375 81.667969 215.9375 82.011719 215.273438 C 82.359375 214.609375 82.820312 213.992188 83.394531 213.421875 C 83.863281 212.953125 84.398438 212.558594 85 212.238281 C 85.601562 211.917969 86.210938 211.757812 86.832031 211.757812 C 87.375 211.757812 87.8125 211.902344 88.152344 212.1875 C 88.492188 212.472656 88.707031 212.707031 88.796875 212.894531 L 88.746094 213.09375 C 88.804688 212.804688 88.9375 212.585938 89.152344 212.4375 C 89.367188 212.289062 89.582031 212.214844 89.800781 212.214844 C 90.050781 212.214844 90.261719 212.289062 90.429688 212.4375 C 90.535156 212.554688 90.59375 212.710938 90.597656 212.90625 C 90.597656 212.976562 90.589844 213.054688 90.574219 213.140625 L 88.832031 219.914062 C 88.75 220.234375 88.695312 220.535156 88.660156 220.816406 C 88.644531 220.957031 88.636719 221.085938 88.636719 221.203125 C 88.636719 221.304688 88.644531 221.414062 88.660156 221.53125 C 88.6875 221.71875 88.742188 221.859375 88.832031 221.953125 C 88.921875 222.046875 89.046875 222.09375 89.207031 222.09375 C 89.375 222.09375 89.535156 222.023438 89.683594 221.882812 C 89.835938 221.742188 89.972656 221.535156 90.097656 221.257812 C 90.222656 220.980469 90.339844 220.648438 90.453125 220.261719 C 90.566406 219.875 90.683594 219.453125 90.804688 219 C 90.855469 218.796875 90.992188 218.695312 91.21875 218.695312 L 91.496094 218.695312 C 91.707031 218.695312 91.808594 218.78125 91.808594 218.953125 Z M 88.347656 214.722656 C 88.316406 214.582031 88.285156 214.4375 88.261719 214.285156 C 88.238281 214.132812 88.203125 213.980469 88.152344 213.832031 C 88.023438 213.464844 87.839844 213.160156 87.601562 212.914062 C 87.363281 212.667969 87.0625 212.542969 86.699219 212.542969 C 86.363281 212.542969 86.027344 212.664062 85.695312 212.90625 C 85.363281 213.148438 85.0625 213.460938 84.785156 213.84375 C 84.398438 214.382812 84.109375 214.945312 83.914062 215.527344 C 83.722656 216.109375 83.542969 216.714844 83.382812 217.347656 C 83.222656 217.972656 83.085938 218.578125 82.980469 219.164062 C 82.917969 219.460938 82.886719 219.742188 82.886719 220.007812 C 82.886719 220.289062 82.917969 220.5625 82.980469 220.828125 C 83.054688 221.195312 83.1875 221.5 83.375 221.738281 C 83.566406 221.976562 83.828125 222.09375 84.167969 222.09375 C 84.539062 222.09375 84.914062 221.964844 85.289062 221.707031 C 85.664062 221.449219 86.015625 221.132812 86.335938 220.757812 C 86.464844 220.601562 86.589844 220.453125 86.707031 220.308594 C 86.824219 220.164062 86.925781 220.007812 87.015625 219.84375 Z M 88.347656 214.722656 "/>
<path style=" stroke:none;fill-rule:evenodd;fill:rgb(0%,0%,0%);fill-opacity:1;" d="M 78.332031 226.847656 C 69.855469 221.691406 69.855469 209.085938 78.332031 203.929688 L 79.566406 203.929688 C 71.859375 209.085938 71.859375 221.691406 79.566406 226.847656 "/>
<path style=" stroke:none;fill-rule:evenodd;fill:rgb(0%,0%,0%);fill-opacity:1;" d="M 94.433594 203.929688 C 102.910156 209.085938 102.910156 221.691406 94.433594 226.847656 L 93.199219 226.847656 C 100.90625 221.691406 100.90625 209.085938 93.199219 203.929688 "/>
<path style=" stroke:none;fill-rule:evenodd;fill:rgb(0%,0%,0%);fill-opacity:1;" d="M 441.675781 217.359375 C 441.484375 218.039062 441.210938 218.710938 440.859375 219.375 C 440.507812 220.039062 440.050781 220.652344 439.484375 221.214844 C 439.015625 221.683594 438.488281 222.078125 437.894531 222.394531 C 437.300781 222.710938 436.683594 222.867188 436.046875 222.867188 C 435.433594 222.867188 434.921875 222.703125 434.507812 222.375 C 434.097656 222.046875 433.78125 221.640625 433.566406 221.15625 C 433.308594 220.578125 433.167969 219.957031 433.152344 219.292969 L 433.152344 219.140625 C 433.152344 218.523438 433.234375 217.910156 433.394531 217.300781 L 435.828125 207.867188 C 435.894531 207.609375 435.933594 207.414062 435.949219 207.28125 L 435.949219 207.246094 C 435.949219 207.175781 435.933594 207.125 435.902344 207.09375 C 435.804688 207.03125 435.625 206.988281 435.355469 206.964844 C 435.089844 206.941406 434.785156 206.929688 434.4375 206.929688 C 434.316406 206.929688 434.226562 206.890625 434.171875 206.8125 C 434.121094 206.765625 434.097656 206.707031 434.097656 206.636719 C 434.097656 206.589844 434.109375 206.546875 434.132812 206.507812 L 434.171875 206.320312 C 434.234375 206.132812 434.378906 206.015625 434.605469 205.96875 L 437.816406 205.710938 L 437.863281 205.710938 C 437.960938 205.710938 438.039062 205.742188 438.105469 205.804688 C 438.136719 205.867188 438.152344 205.929688 438.152344 205.992188 C 438.152344 206.039062 438.140625 206.082031 438.117188 206.121094 L 436.375 212.871094 C 436.550781 212.691406 436.878906 212.460938 437.355469 212.179688 C 437.832031 211.898438 438.332031 211.757812 438.855469 211.757812 C 439.492188 211.757812 440.03125 211.921875 440.472656 212.25 C 440.914062 212.578125 441.25 212.980469 441.484375 213.457031 C 441.757812 214.035156 441.902344 214.660156 441.917969 215.332031 L 441.917969 215.496094 C 441.917969 216.097656 441.839844 216.71875 441.675781 217.359375 Z M 439.921875 213.796875 C 439.847656 213.421875 439.710938 213.121094 439.507812 212.890625 C 439.308594 212.660156 439.046875 212.542969 438.722656 212.542969 C 438.335938 212.542969 437.957031 212.667969 437.585938 212.917969 C 437.214844 213.167969 436.867188 213.484375 436.542969 213.867188 C 436.292969 214.1875 436.074219 214.488281 435.890625 214.769531 L 435.222656 217.347656 C 435.0625 217.972656 434.941406 218.574219 434.859375 219.152344 C 434.828125 219.394531 434.8125 219.625 434.8125 219.84375 C 434.8125 220.1875 434.851562 220.515625 434.933594 220.828125 C 435.023438 221.1875 435.167969 221.492188 435.375 221.730469 C 435.582031 221.972656 435.851562 222.09375 436.191406 222.09375 C 436.53125 222.09375 436.867188 221.972656 437.203125 221.71875 C 437.539062 221.46875 437.839844 221.15625 438.105469 220.78125 C 438.492188 220.257812 438.785156 219.703125 438.984375 219.113281 C 439.179688 218.523438 439.359375 217.917969 439.519531 217.300781 C 439.683594 216.660156 439.824219 216.042969 439.945312 215.449219 C 439.992188 215.167969 440.019531 214.894531 440.019531 214.628906 C 440.019531 214.347656 439.984375 214.070312 439.921875 213.796875 Z M 439.921875 213.796875 "/>
<path style=" stroke:none;fill-rule:evenodd;fill:rgb(0%,0%,0%);fill-opacity:1;" d="M 430.539062 226.847656 C 422.0625 221.691406 422.0625 209.085938 430.539062 203.929688 L 431.769531 203.929688 C 424.066406 209.085938 424.066406 221.691406 431.769531 226.847656 "/>
<path style=" stroke:none;fill-rule:evenodd;fill:rgb(0%,0%,0%);fill-opacity:1;" d="M 444.542969 203.929688 C 453.019531 209.085938 453.019531 221.691406 444.542969 226.847656 L 443.308594 226.847656 C 451.015625 221.691406 451.015625 209.085938 443.308594 203.929688 "/>
</g>
</svg>
