<?xml version="1.0" encoding="utf-8"?>
<!-- Generator: Adobe Illustrator 19.0.0, SVG Export Plug-In . SVG Version: 6.00 Build 0)  -->
<svg version="1.1" id="Layer_1" xmlns="http://www.w3.org/2000/svg" xmlns:xlink="http://www.w3.org/1999/xlink" x="0px" y="0px"
	 viewBox="0 0 159.6666718 132" style="enable-background:new 0 0 159.6666718 132;" xml:space="preserve">
<style type="text/css">
	.st0{fill:#FFFFFF;stroke:#000000;stroke-miterlimit:10;}
	.st1{fill:none;stroke:#ED1C24;stroke-miterlimit:10;}
	.st2{fill:#ED1C24;}
</style>
<path id="XMLID_2_" class="st0" d="M32.20858,6.3383675c19.8786697-9.782609,38.3957901,1.0869565,62.0868073,13.043478
	s60.4529343,33.1521759,62.0867996,51.0869598s-3.8123474,32.0652161-15.2493896,40.217392
	s-93.6748276,24.9999924-106.7457275,16.3043442S7.1560106,108.5122833,3.343663,91.1209793
	C0.1760367,76.670784,14.8639078,14.8739557,32.20858,6.3383675z"/>
<line id="XMLID_1_" class="st1" x1="23.5825787" y1="14.9420319" x2="85.6665421" y2="14.9420319"/>
<line id="XMLID_3_" class="st1" x1="15.9252729" y1="29.8291798" x2="112.6994781" y2="29.8291798"/>
<line id="XMLID_4_" class="st1" x1="10.3767405" y1="45.5493202" x2="136.83461" y2="45.5493202"/>
<line id="XMLID_5_" class="st1" x1="6.2498164" y1="61.3881302" x2="152.9186859" y2="61.3881302"/>
<line id="XMLID_6_" class="st1" x1="3.5348639" y1="76.9837646" x2="156.6666718" y2="76.9837646"/>
<line id="XMLID_7_" class="st1" x1="4.303092" y1="94.6766434" x2="153.6706696" y2="94.6766434"/>
<line id="XMLID_8_" class="st1" x1="15.9252729" y1="112.8409424" x2="136.83461" y2="112.8409424"/>
<line id="XMLID_9_" class="st1" x1="30.2110119" y1="124.1796265" x2="94.2837372" y2="124.1796265"/>
<line id="XMLID_10_" class="st1" x1="10.3767405" y1="45.5493202" x2="10.3767405" y2="106.4807587"/>
<line id="XMLID_11_" class="st1" x1="23.5825787" y1="14.9420319" x2="23.5825787" y2="119.420639"/>
<line id="XMLID_12_" class="st1" x1="39.2503853" y1="3.6996036" x2="39.2503853" y2="129.4175568"/>
<line id="XMLID_13_" class="st1" x1="57.9718361" y1="3.6996036" x2="57.9718361" y2="129.0975647"/>
<line id="XMLID_14_" class="st1" x1="76.3799438" y1="10.4476862" x2="76.3799438" y2="127.0662918"/>
<line id="XMLID_15_" class="st1" x1="96.2993164" y1="20.4001102" x2="96.2993164" y2="123.677948"/>
<line id="XMLID_16_" class="st1" x1="112.6994781" y1="29.8291798" x2="112.6994781" y2="120.1306229"/>
<line id="XMLID_17_" class="st1" x1="133.2005005" y1="42.3883324" x2="133.2005005" y2="114.4313812"/>
<line id="XMLID_18_" class="st1" x1="148.5925751" y1="55.7717133" x2="148.5925751" y2="103.8742676"/>
<g id="XMLID_19_">
	<g id="XMLID_27_">
		<g id="XMLID_28_">
			<polygon id="XMLID_29_" class="st2" points="78.4838409,104.5083542 78.4838409,106.9403915 82,103.876915 
				78.4838409,100.8081589 78.4838409,103.2403793 76.3799438,103.2403793 76.3799438,104.5083542 			"/>
		</g>
	</g>
</g>
<g id="XMLID_20_">
	<g id="XMLID_32_">
		<g id="XMLID_33_">
			<polygon id="XMLID_34_" class="st2" points="94.1954193,103.2401962 94.1954193,100.8081589 90.6792603,103.8716354 
				94.1954193,106.9403915 94.1954193,104.5081406 96.2993164,104.5081406 96.2993164,103.2401962 			"/>
		</g>
	</g>
</g>
<g id="XMLID_21_">
	<g id="XMLID_37_">
		<g id="XMLID_38_">
			<polygon id="XMLID_39_" class="st2" points="86.365921,97.1681442 83.9338837,97.1681442 86.9973602,100.684288 
				90.0661163,97.1681442 87.6338806,97.1681442 87.6338806,95.0642319 86.365921,95.0642319 			"/>
		</g>
	</g>
</g>
<g id="XMLID_22_">
	<g id="XMLID_42_">
		<g id="XMLID_43_">
			<polygon id="XMLID_44_" class="st2" points="86.634079,110.9969177 89.0661163,110.9969177 86.0026398,107.4807434 
				82.9338837,110.9969177 85.3661194,110.9969177 85.3661194,113.1007996 86.634079,113.1007996 			"/>
		</g>
	</g>
</g>
<g id="XMLID_23_">
	<g id="XMLID_47_">
		<g id="XMLID_48_">
			<polygon id="XMLID_49_" class="st2" points="87.634079,92.3768463 90.0661163,92.3768463 87.0026398,88.8607025 
				83.9338837,92.3768463 86.3661194,92.3768463 86.3661194,94.4807587 87.634079,94.4807587 			"/>
		</g>
	</g>
</g>
<g id="XMLID_24_">
	<g id="XMLID_52_">
		<g id="XMLID_53_">
			<polygon id="XMLID_54_" class="st2" points="98.4032135,104.5083542 98.4032135,106.9403915 101.9193726,103.876915 
				98.4032135,100.8081589 98.4032135,103.2403793 96.2993164,103.2403793 96.2993164,104.5083542 			"/>
		</g>
	</g>
</g>
<g id="XMLID_25_">
	<g id="XMLID_57_">
		<g id="XMLID_58_">
			<polygon id="XMLID_59_" class="st2" points="85.365921,114.7252502 82.9338837,114.7252502 85.9973602,118.241394 
				89.0661163,114.7252502 86.6338806,114.7252502 86.6338806,112.6213379 85.365921,112.6213379 			"/>
		</g>
	</g>
</g>
<g id="XMLID_30_">
	<g id="XMLID_62_">
		<g id="XMLID_63_">
			<polygon id="XMLID_64_" class="st2" points="73.7787476,103.2401962 73.7787476,100.8081589 70.2625961,103.8716354 
				73.7787476,106.9403915 73.7787476,104.5081406 75.8826523,104.5081406 75.8826523,103.2401962 			"/>
		</g>
	</g>
</g>
<g id="XMLID_35_">
	<g id="XMLID_67_">
		<g id="XMLID_68_">
			<polygon id="XMLID_69_" points="104.6959839,123.9721603 102.3283844,124.5283127 106.2945709,128.0164032 
				108.2981415,123.1260605 105.9303436,123.6822128 105.3416443,121.1759262 104.1072693,121.4658737 			"/>
		</g>
	</g>
</g>
<g id="XMLID_40_">
	<g id="XMLID_72_">
		<g id="XMLID_73_">
			<polygon id="XMLID_74_" points="123.8859024,119.6246948 121.5183029,120.1808472 125.4844894,123.6689453 127.48806,118.778595 
				125.1202621,119.3347473 124.5315628,116.8284607 123.2971878,117.1184082 			"/>
		</g>
	</g>
</g>
<g id="XMLID_45_">
</g>
<g id="XMLID_50_">
</g>
<g id="XMLID_55_">
</g>
<g id="XMLID_60_">
</g>
<g id="XMLID_65_">
</g>
<g id="XMLID_70_">
</g>
</svg>
