<?xml version="1.0" encoding="utf-8"?>
<!-- Generator: Adobe Illustrator 19.0.0, SVG Export Plug-In . SVG Version: 6.00 Build 0)  -->
<svg version="1.1" id="Layer_1" xmlns="http://www.w3.org/2000/svg" xmlns:xlink="http://www.w3.org/1999/xlink" x="0px" y="0px"
	 viewBox="153.5 63.5 250.75 172.5" style="enable-background:new 153.5 63.5 250.75 172.5;" xml:space="preserve">
<style type="text/css">
	.st0{fill-opacity:0;stroke:#808080;}
	.st1{fill:#EE3724;fill-opacity:0;stroke:#EE3724;}
	.st2{fill:#EE3724;stroke:#EE3724;}
	.st3{fill-opacity:0;stroke:#F6962F;}
	.st4{fill:#F6962F;stroke:#F6962F;}
	.st5{fill-opacity:0;stroke:#8080FF;}
	.st6{fill:#8080FF;stroke:#8080FF;}
	.st7{fill-opacity:0;stroke:#000000;}
	.st8{stroke:#000000;}
	.st9{fill-opacity:0;stroke:#000000;stroke-dasharray:3,2.5;}
	.st10{fill:none;stroke:#808080;}
	.st11{fill:#F6962F;}
	.st12{fill:#8080FF;}
	.st13{fill:#EE3724;}
</style>
<path class="st0" d="M288.7890015,148.0189972l58.8059998-78.5070038"/>
<g>
	<path class="st1" d="M175.2619934,189.973999h215.2960205"/>
	<path class="st2" d="M390.5580139,192.973999l8-3l-8-3V192.973999z"/>
</g>
<g>
	<path class="st3" d="M175.2619934,189.973999l53.4100037-71.3040009"/>
	<path class="st4" d="M231.072998,120.4680023l2.3950043-8.201004l-7.1970062,4.6040039L231.072998,120.4680023z"/>
</g>
<g>
	<path class="st5" d="M175.2619934,189.973999l105.0849915-38.8349915"/>
	<path class="st6" d="M281.3869934,153.9530029l6.4640198-5.5870056l-8.5440063-0.0410004L281.3869934,153.9530029z"/>
</g>
<g>
	<path class="st5" d="M234.0679932,111.4669952l105.085022-38.8349915"/>
	<path class="st6" d="M340.1929932,75.4459991l6.4640198-5.5879974l-8.5440063-0.0400085L340.1929932,75.4459991z"/>
</g>
<g>
	<path class="st7" d="M175.2619934,189.973999L340.2179871,74.6679993"/>
	<path class="st8" d="M341.9370117,77.1269989l4.8379822-7.0419922l-8.276001,2.1239929L341.9370117,77.1269989z"/>
</g>
<path class="st9" d="M234.0679932,111.4669952v78.5070038"/>
<path class="st9" d="M288.7890015,148.0189972v41.9550018"/>
<path class="st9" d="M347.5950012,69.5119934V189.973999"/>
<g>
	<g>
		<g>
			<line class="st10" x1="178.2619934" y1="195.8309937" x2="231.0679932" y2="195.8670044"/>
		</g>
		<g>
			<path class="st10" d="M180.2630005,194.3320007l-4.5010071,1.4970093l4.4990082,1.5029907 M178.2619934,195.8309937
				l-2.5-0.0019836 M175.2640076,193.3280029l-0.0040131,5"/>
		</g>
		<g>
			<path class="st10" d="M229.0670013,197.3659973l4.5009918-1.4970093l-4.4989929-1.5029907 M231.0679932,195.8670044
				l2.5,0.0019836 M234.0659943,198.368988l0.003006-5"/>
		</g>
	</g>
</g>
<g>
	<g>
		<g>
			<line class="st10" x1="178.2619934" y1="208.3569946" x2="285.7890015" y2="208.3869934"/>
		</g>
		<g>
			<path class="st10" d="M180.2619934,206.8580017l-4.5,1.4989929l4.4990082,1.5010071 M178.2619934,208.3569946h-2.5
				 M175.2630005,205.8569946l-0.0019989,5"/>
		</g>
		<g>
			<path class="st10" d="M283.7879944,209.8869934l4.5010071-1.4989929l-4.5-1.5010071 M285.7890015,208.3869934l2.5,0.0010071
				 M288.7879944,210.8880005l0.0019836-5"/>
		</g>
	</g>
</g>
<g>
	<g>
		<g>
			<line class="st10" x1="178.2619934" y1="227.8819885" x2="344.5950012" y2="227.8819885"/>
		</g>
		<g>
			<path class="st10" d="M180.2619934,226.3819885l-4.5,1.5l4.5,1.5 M178.2619934,227.8819885h-2.5 M175.2619934,225.3819885v5"/>
		</g>
		<g>
			<path class="st10" d="M342.5950012,229.3819885l4.5-1.5l-4.5-1.5 M344.5950012,227.8819885h2.5 M347.5950012,230.3819885v-5"/>
		</g>
	</g>
</g>
<g>
	<g>
		<g>
			<line class="st10" x1="237.0679932" y1="218.7690125" x2="344.5950012" y2="218.7990112"/>
		</g>
		<g>
			<path class="st10" d="M239.0679932,217.269989l-4.5,1.4980164l4.4990082,1.5019836 M237.0679932,218.7690125l-2.5-0.0010071
				 M234.0679932,216.2680054l-0.0009918,5"/>
		</g>
		<g>
			<path class="st10" d="M342.5939941,220.2980042l4.5010071-1.4980164l-4.5-1.5019836 M344.5950012,218.7990112l2.5,0.0009766
				 M347.5939941,221.2999878l0.0010071-5"/>
		</g>
	</g>
</g>
<g>
	<g>
		<g>
			<path class="st11" d="M198.4580078,138.0229492v2.7333984h-0.2275391
				c-0.1708984-0.7133789-0.4892578-1.2602539-0.9560547-1.6401367c-0.4658203-0.3798828-0.9941406-0.5698242-1.5849609-0.5698242
				c-0.4931641,0-0.9458008,0.1416016-1.3579102,0.4243164c-0.4116211,0.2832031-0.7128906,0.6538086-0.9033203,1.1108398
				c-0.2446289,0.5859375-0.3666992,1.2373047-0.3666992,1.9541016c0,0.7060547,0.0888672,1.3486328,0.2680664,1.9287109
				c0.1782227,0.5800781,0.4580078,1.0175781,0.8388672,1.3144531s0.8745117,0.4453125,1.4799805,0.4453125
				c0.4980469,0,0.953125-0.1083984,1.3671875-0.3261719c0.4140625-0.2167969,0.8496094-0.5908203,1.3085938-1.1220703v0.6806641
				c-0.4433594,0.4609375-0.9042969,0.7958984-1.3847656,1.0029297c-0.4794922,0.2070313-1.0400391,0.3115234-1.6806641,0.3115234
				c-0.84375,0-1.5922852-0.1689453-2.2470703-0.5068359c-0.6547852-0.3369141-1.159668-0.8212891-1.5151367-1.4541016
				c-0.3554688-0.6318359-0.5332031-1.3046875-0.5332031-2.0175781c0-0.7524414,0.1972656-1.4663086,0.5913086-2.1411133
				c0.3945313-0.6743164,0.9267578-1.1982422,1.597168-1.5703125c0.6699219-0.3720703,1.3818359-0.5581055,2.1362305-0.5581055
				c0.5546875,0,1.1416016,0.1201172,1.7597656,0.3603516c0.3574219,0.1396484,0.5839844,0.2094727,0.6816406,0.2094727
				c0.1240234,0,0.2324219-0.0454102,0.3232422-0.1367188c0.0917969-0.0913086,0.1503906-0.2353516,0.1777344-0.4331055H198.4580078
				z"/>
		</g>
	</g>
</g>
<g>
	<g>
		<g>
			<path class="st12" d="M251.3725586,170.9086914c0.7617188,0.1738281,1.296875,0.3857422,1.6044922,0.6337891
				c0.4414063,0.3525391,0.6630859,0.8105469,0.6630859,1.3720703c0,0.59375-0.2431641,1.0839844-0.7285156,1.4716797
				c-0.5957031,0.4697266-1.4619141,0.7041016-2.5981445,0.7041016h-4.078125v-0.2148438
				c0.3710938,0,0.6225586-0.0341797,0.7548828-0.1025391c0.1318359-0.0673828,0.2246094-0.1552734,0.277832-0.2646484
				c0.0537109-0.1083984,0.0800781-0.3759766,0.0800781-0.8027344v-5.1181641c0-0.4267578-0.0263672-0.6953125-0.0800781-0.8056641
				c-0.0532227-0.1103516-0.1469727-0.1987305-0.2807617-0.2646484c-0.1342773-0.065918-0.3847656-0.0986328-0.7519531-0.0986328
				v-0.215332h3.847168c0.9199219,0,1.5703125,0.0805664,1.953125,0.2412109
				c0.3828125,0.1611328,0.6845703,0.4013672,0.90625,0.7211914c0.2207031,0.3198242,0.3310547,0.6601563,0.3310547,1.0209961
				c0,0.3798828-0.1396484,0.7182617-0.4199219,1.0151367C252.5727539,170.4980469,252.0795898,170.7338867,251.3725586,170.9086914
				z M249.21875,171.2045898v2.5302734l-0.0058594,0.2910156c0,0.2089844,0.0541992,0.3671875,0.1625977,0.4736328
				c0.1083984,0.1074219,0.269043,0.1601563,0.4824219,0.1601563c0.3154297,0,0.6064453-0.0683594,0.8730469-0.2060547
				s0.4707031-0.3378906,0.6123047-0.5996094c0.1425781-0.2617188,0.2128906-0.5527344,0.2128906-0.875
				c0-0.3681641-0.0869141-0.6992188-0.2597656-0.9921875c-0.1738281-0.2919922-0.4130859-0.4970703-0.7158203-0.6132813
				C250.2758789,171.2573242,249.8222656,171.2006836,249.21875,171.2045898z M249.21875,170.7504883
				c0.5600586,0,0.9736328-0.0615234,1.2397461-0.1855469c0.2666016-0.1240234,0.4707031-0.2983398,0.6123047-0.5234375
				c0.1425781-0.2246094,0.2138672-0.5117188,0.2138672-0.8608398s-0.0703125-0.6347656-0.2109375-0.8579102
				c-0.1396484-0.2231445-0.3398438-0.3925781-0.6005859-0.5087891c-0.2602539-0.1166992-0.6787109-0.1728516-1.2543945-0.1689453
				V170.7504883z"/>
		</g>
	</g>
</g>
<g>
	<g>
		<g>
			<path class="st12" d="M273.3725586,87.8681641c0.7617188,0.1738281,1.296875,0.3857422,1.6044922,0.6337891
				c0.4414063,0.3525391,0.6630859,0.8105469,0.6630859,1.3720703c0,0.59375-0.2431641,1.0839844-0.7285156,1.4716797
				c-0.5957031,0.4697266-1.4619141,0.7041016-2.5981445,0.7041016h-4.078125v-0.2148438
				c0.3710938,0,0.6225586-0.0341797,0.7548828-0.1025391c0.1318359-0.0673828,0.2246094-0.1552734,0.277832-0.2646484
				c0.0537109-0.1083984,0.0800781-0.3759766,0.0800781-0.8027344V85.546875c0-0.4267578-0.0263672-0.6953125-0.0800781-0.8056641
				c-0.0532227-0.1103516-0.1469727-0.1987305-0.2807617-0.2646484c-0.1342773-0.065918-0.3847656-0.0986328-0.7519531-0.0986328
				v-0.215332h3.847168c0.9199219,0,1.5703125,0.0805664,1.953125,0.2412109
				c0.3828125,0.1611328,0.6845703,0.4013672,0.90625,0.7211914c0.2207031,0.3198242,0.3310547,0.6601563,0.3310547,1.0209961
				c0,0.3798828-0.1396484,0.7182617-0.4199219,1.0151367C274.5727539,87.4575195,274.0795898,87.6933594,273.3725586,87.8681641z
				 M271.21875,88.1640625v2.5302734l-0.0058594,0.2910156c0,0.2089844,0.0541992,0.3671875,0.1625977,0.4736328
				c0.1083984,0.1074219,0.269043,0.1601563,0.4824219,0.1601563c0.3154297,0,0.6064453-0.0683594,0.8730469-0.2060547
				s0.4707031-0.3378906,0.6123047-0.5996094c0.1425781-0.2617188,0.2128906-0.5527344,0.2128906-0.875
				c0-0.3681641-0.0869141-0.6992188-0.2597656-0.9921875c-0.1738281-0.2919922-0.4130859-0.4970703-0.7158203-0.6132813
				C272.2758789,88.2167969,271.8222656,88.1601563,271.21875,88.1640625z M271.21875,87.7099609
				c0.5600586,0,0.9736328-0.0615234,1.2397461-0.1855469c0.2666016-0.1240234,0.4707031-0.2983398,0.6123047-0.5234375
				c0.1425781-0.2246094,0.2138672-0.5117188,0.2138672-0.8608398s-0.0703125-0.6347656-0.2109375-0.8579102
				c-0.1396484-0.2231445-0.3398438-0.3925781-0.6005859-0.5087891c-0.2602539-0.1166992-0.6787109-0.1728516-1.2543945-0.1689453
				V87.7099609z"/>
		</g>
	</g>
</g>
<g>
	<g>
		<path class="st13" d="M377.7895508,181.8452148h-2.7910156l-0.3320313,0.7675781
			c-0.1088867,0.2558594-0.1635742,0.4677734-0.1635742,0.6337891c0,0.2216797,0.0893555,0.3837891,0.2680664,0.4892578
			c0.1049805,0.0615234,0.3632813,0.1083984,0.7753906,0.1396484v0.2148438h-2.628418v-0.2148438
			c0.2836914-0.0429688,0.5166016-0.1601563,0.6992188-0.3525391c0.1826172-0.1914063,0.4082031-0.5878906,0.6762695-1.1894531
			l2.8261719-6.293457h0.1108398l2.8500977,6.4682617c0.2714844,0.6123047,0.4951172,0.9980469,0.6699219,1.1572266
			c0.1318359,0.1201172,0.3183594,0.1904297,0.5595703,0.2099609v0.2148438h-3.8232422v-0.2148438h0.1582031
			c0.3066406,0,0.5214844-0.0429688,0.6464844-0.1279297c0.0849609-0.0625,0.1279297-0.1513672,0.1279297-0.2675781
			c0-0.0703125-0.0117188-0.1416016-0.0351563-0.2158203c-0.0078125-0.0351563-0.0664063-0.1796875-0.1748047-0.4355469
			L377.7895508,181.8452148z M377.5922852,181.4145508l-1.1777344-2.7163086l-1.2119141,2.7163086H377.5922852z"/>
	</g>
</g>
<g>
	<g>
		<path d="M246.140625,129.7431641v-0.2148438h0.2666016c0.2324219,0,0.4111328-0.0361328,0.5356445-0.1083984
			c0.1240234-0.0712891,0.2158203-0.1689453,0.2749023-0.2929688c0.0356445-0.0820313,0.0537109-0.3261719,0.0537109-0.7333984
			v-5.1884766c0-0.402832-0.0219727-0.6552734-0.0654297-0.7558594c-0.043457-0.1010742-0.1313477-0.1889648-0.2631836-0.2646484
			c-0.1323242-0.0756836-0.3110352-0.1132813-0.5356445-0.1132813h-0.2666016v-0.215332h3.5927734
			c0.9584961,0,1.7299805,0.1279297,2.3139648,0.3837891c0.7148438,0.3139648,1.2558594,0.7890625,1.625,1.425293
			c0.3691406,0.6357422,0.5537109,1.3549805,0.5537109,2.1582031c0,0.5537109-0.0908203,1.0654297-0.2724609,1.5322266
			c-0.1816406,0.4677734-0.4160156,0.8535156-0.7041016,1.1572266c-0.2880859,0.3046875-0.6210938,0.5488281-0.9970703,0.7333984
			c-0.3769531,0.1835938-0.8378906,0.3261719-1.3828125,0.4277344c-0.2402344,0.0458984-0.6191406,0.0693359-1.1362305,0.0693359
			H246.140625z M249.2006836,122.3037109v6.1542969c0,0.3251953,0.015625,0.5253906,0.0473633,0.5986328
			c0.0317383,0.0742188,0.0849609,0.1298828,0.1601563,0.1689453c0.1064453,0.0576172,0.2602539,0.0869141,0.4614258,0.0869141
			c0.6591797,0,1.1621094-0.2207031,1.5097656-0.6630859c0.4726563-0.5966797,0.7099609-1.5234375,0.7099609-2.7802734
			c0-1.0117188-0.1621094-1.8203125-0.4853516-2.425293c-0.2568359-0.4731445-0.5859375-0.7949219-0.9882813-0.9658203
			C250.331543,122.3579102,249.8598633,122.2998047,249.2006836,122.3037109z"/>
	</g>
</g>
<g>
	<g>
		<path d="M168.6450195,197.3417969l-0.296875,1.2871094h-0.1064453l-0.0117188-0.3222656
			c-0.0097656-0.1171875-0.0322266-0.2216797-0.0673828-0.3144531c-0.0361328-0.0917969-0.0888672-0.1708984-0.1591797-0.2382813
			c-0.0712891-0.0673828-0.1601563-0.1201172-0.2685547-0.1582031c-0.1074219-0.0380859-0.2275391-0.0576172-0.359375-0.0576172
			c-0.3515625,0-0.6591797,0.0957031-0.921875,0.2871094c-0.3359375,0.2441406-0.5996094,0.5898438-0.7900391,1.0351563
			c-0.1572266,0.3671875-0.2353516,0.7402344-0.2353516,1.1171875c0,0.3847656,0.1132813,0.6923828,0.3388672,0.921875
			s0.5195313,0.3447266,0.8808594,0.3447266c0.2734375,0,0.515625-0.0605469,0.7294922-0.1816406
			c0.2128906-0.1210938,0.4111328-0.3076172,0.59375-0.5605469h0.1376953c-0.2158203,0.3427734-0.4550781,0.59375-0.71875,0.7548828
			c-0.2626953,0.1621094-0.578125,0.2421875-0.9453125,0.2421875c-0.3261719,0-0.6152344-0.0673828-0.8662109-0.2041016
			c-0.2519531-0.1357422-0.4433594-0.3261719-0.5751953-0.5732422c-0.1308594-0.2460938-0.1972656-0.5107422-0.1972656-0.7939453
			c0-0.4335938,0.1171875-0.8564453,0.3505859-1.2666016c0.234375-0.4101563,0.5546875-0.7333984,0.9619141-0.9677734
			c0.4082031-0.234375,0.8193359-0.3515625,1.2333984-0.3515625c0.1943359,0,0.4121094,0.0458984,0.6542969,0.1376953
			c0.1054688,0.0390625,0.1826172,0.0585938,0.2294922,0.0585938s0.0888672-0.0097656,0.1240234-0.0292969
			s0.09375-0.0751953,0.1767578-0.1669922H168.6450195z"/>
	</g>
	<g>
		<path d="M163.909668,198.3300781h-5.921875l0.0820313-0.2167969c0.3144531-0.0078125,0.5249023-0.0332031,0.6308594-0.0761719
			c0.1650391-0.0703125,0.2866211-0.1621094,0.3652344-0.2753906c0.121582-0.1806641,0.2514648-0.5048828,0.3886719-0.9736328
			l1.4086914-4.8378906c0.1176758-0.3984375,0.1767578-0.6918945,0.1767578-0.8793945
			c0-0.1484375-0.0541992-0.2636719-0.1621094-0.3461914c-0.1083984-0.0820313-0.3115234-0.1230469-0.6098633-0.1230469
			c-0.0668945,0-0.1201172-0.0019531-0.1591797-0.0058594l0.0708008-0.2167969h3.2583008l-0.046875,0.2167969
			c-0.3652344,0-0.6245117,0.0351563-0.777832,0.1054688c-0.1533203,0.0708008-0.2807617,0.1860352-0.3833008,0.3461914
			c-0.0703125,0.1054688-0.1865234,0.434082-0.3476563,0.9848633l-1.3847656,4.7558594
			c-0.105957,0.359375-0.1586914,0.609375-0.1586914,0.75c0,0.09375,0.0527344,0.1845703,0.1586914,0.2705078
			c0.0668945,0.0585938,0.2182617,0.0878906,0.4541016,0.0878906h0.7719727c0.5615234,0,1.0073242-0.0703125,1.3374023-0.2109375
			c0.2436523-0.1064453,0.4672852-0.2646484,0.671875-0.4755859c0.1103516-0.1171875,0.3037109-0.4082031,0.5830078-0.8740234
			l0.1533203-0.2636719h0.2177734L163.909668,198.3300781z"/>
	</g>
</g>
<g>
	<g>
		<path d="M165.2924805,210.4008789l0.0410156-0.1083984h1.4267578c0.2392578,0,0.453125,0.0371094,0.640625,0.1113281
			s0.328125,0.1777344,0.4208984,0.3105469c0.09375,0.1328125,0.140625,0.2744141,0.140625,0.4228516
			c0,0.2285156-0.0830078,0.4345703-0.2490234,0.6201172c-0.1660156,0.1845703-0.4365234,0.3203125-0.8125,0.4082031
			c0.2421875,0.0898438,0.4199219,0.2099609,0.5341797,0.3583984c0.1132813,0.1484375,0.1699219,0.3115234,0.1699219,0.4892578
			c0,0.1972656-0.0507813,0.3857422-0.1523438,0.5654297c-0.1025391,0.1806641-0.2333984,0.3203125-0.3935547,0.4199219
			s-0.3535156,0.1728516-0.5791016,0.2197266c-0.1611328,0.0332031-0.4121094,0.0498047-0.7539063,0.0498047h-1.4648438
			l0.0380859-0.1083984c0.1533203-0.0039063,0.2578125-0.0185547,0.3125-0.0439453
			c0.0791016-0.0332031,0.1347656-0.0771484,0.1679688-0.1318359c0.046875-0.0742188,0.1103516-0.2441406,0.1884766-0.5107422
			l0.7158203-2.40625c0.0615234-0.2041016,0.0917969-0.3466797,0.0917969-0.4287109
			c0-0.0722656-0.0273438-0.1289063-0.0810547-0.1708984s-0.15625-0.0634766-0.3076172-0.0634766
			C165.3530273,210.4038086,165.3217773,210.402832,165.2924805,210.4008789z M165.3100586,214.0102539
			c0.2119141,0.0273438,0.3779297,0.0410156,0.4980469,0.0410156c0.3066406,0,0.578125-0.0917969,0.8144531-0.2753906
			c0.2373047-0.1835938,0.3554688-0.4335938,0.3554688-0.7480469c0-0.2402344-0.0732422-0.4277344-0.2197266-0.5625
			s-0.3828125-0.203125-0.7080078-0.203125c-0.0634766,0-0.1396484,0.0029297-0.2304688,0.0087891L165.3100586,214.0102539z
			 M165.8911133,212.0512695c0.1269531,0.0039063,0.2197266,0.0058594,0.2763672,0.0058594
			c0.4091797,0,0.7128906-0.0878906,0.9121094-0.2646484s0.2988281-0.3984375,0.2988281-0.6640625
			c0-0.2021484-0.0605469-0.3583984-0.1826172-0.4707031s-0.3164063-0.1689453-0.5830078-0.1689453
			c-0.0712891,0-0.1611328,0.0117188-0.2714844,0.0351563L165.8911133,212.0512695z"/>
	</g>
	<g>
		<path d="M163.5268555,211.1899414h-5.921875l0.0820313-0.2167969c0.3144531-0.0078125,0.5249023-0.0332031,0.6308594-0.0761719
			c0.1650391-0.0703125,0.2866211-0.1621094,0.3652344-0.2753906c0.121582-0.1806641,0.2514648-0.5048828,0.3886719-0.9736328
			l1.4086914-4.8378906c0.1176758-0.3984375,0.1767578-0.6918945,0.1767578-0.8793945
			c0-0.1484375-0.0541992-0.2636719-0.1621094-0.3461914c-0.1083984-0.0820313-0.3115234-0.1230469-0.6098633-0.1230469
			c-0.0668945,0-0.1201172-0.0019531-0.1591797-0.0058594l0.0708008-0.2167969h3.2583008l-0.046875,0.2167969
			c-0.3652344,0-0.6245117,0.0351563-0.777832,0.1054688c-0.1533203,0.0708008-0.2807617,0.1860352-0.3833008,0.3461914
			c-0.0703125,0.1054688-0.1865234,0.434082-0.3476563,0.9848633l-1.3847656,4.7558594
			c-0.105957,0.359375-0.1586914,0.609375-0.1586914,0.75c0,0.09375,0.0527344,0.1845703,0.1586914,0.2705078
			c0.0668945,0.0585938,0.2182617,0.0878906,0.4541016,0.0878906h0.7719727c0.5615234,0,1.0073242-0.0703125,1.3374023-0.2109375
			c0.2436523-0.1064453,0.4672852-0.2646484,0.671875-0.4755859c0.1103516-0.1171875,0.3037109-0.4082031,0.5830078-0.8740234
			l0.1533203-0.2636719h0.2177734L163.5268555,211.1899414z"/>
	</g>
</g>
<g>
	<g>
		<path d="M225.6972656,220.4790039l0.0410156-0.1083984h1.4267578c0.2392578,0,0.453125,0.0371094,0.640625,0.1113281
			s0.328125,0.1777344,0.4208984,0.3105469c0.09375,0.1328125,0.140625,0.2744141,0.140625,0.4228516
			c0,0.2285156-0.0830078,0.4345703-0.2490234,0.6201172c-0.1660156,0.1845703-0.4365234,0.3203125-0.8125,0.4082031
			c0.2421875,0.0898438,0.4199219,0.2099609,0.5341797,0.3583984c0.1132813,0.1484375,0.1699219,0.3115234,0.1699219,0.4892578
			c0,0.1972656-0.0507813,0.3857422-0.1523438,0.5654297c-0.1025391,0.1806641-0.2333984,0.3203125-0.3935547,0.4199219
			s-0.3535156,0.1728516-0.5791016,0.2197266c-0.1611328,0.0332031-0.4121094,0.0498047-0.7539063,0.0498047h-1.4648438
			l0.0380859-0.1083984c0.1533203-0.0039063,0.2578125-0.0185547,0.3125-0.0439453
			c0.0791016-0.0332031,0.1347656-0.0771484,0.1679688-0.1318359c0.046875-0.0742188,0.1103516-0.2441406,0.1884766-0.5107422
			l0.7158203-2.40625c0.0615234-0.2041016,0.0917969-0.3466797,0.0917969-0.4287109
			c0-0.0722656-0.0273438-0.1289063-0.0810547-0.1708984s-0.15625-0.0634766-0.3076172-0.0634766
			C225.7578125,220.4819336,225.7265625,220.480957,225.6972656,220.4790039z M225.7148438,224.0883789
			c0.2119141,0.0273438,0.3779297,0.0410156,0.4980469,0.0410156c0.3066406,0,0.578125-0.0917969,0.8144531-0.2753906
			c0.2373047-0.1835938,0.3554688-0.4335938,0.3554688-0.7480469c0-0.2402344-0.0732422-0.4277344-0.2197266-0.5625
			s-0.3828125-0.203125-0.7080078-0.203125c-0.0634766,0-0.1396484,0.0029297-0.2304688,0.0087891L225.7148438,224.0883789z
			 M226.2958984,222.1293945c0.1269531,0.0039063,0.2197266,0.0058594,0.2763672,0.0058594
			c0.4091797,0,0.7128906-0.0878906,0.9121094-0.2646484s0.2988281-0.3984375,0.2988281-0.6640625
			c0-0.2021484-0.0605469-0.3583984-0.1826172-0.4707031s-0.3164063-0.1689453-0.5830078-0.1689453
			c-0.0712891,0-0.1611328,0.0117188-0.2714844,0.0351563L226.2958984,222.1293945z"/>
	</g>
	<g>
		<path d="M223.9316406,221.2680664h-5.921875l0.0820313-0.2167969c0.3144531-0.0078125,0.5249023-0.0332031,0.6308594-0.0761719
			c0.1650391-0.0703125,0.2866211-0.1621094,0.3652344-0.2753906c0.121582-0.1806641,0.2514648-0.5048828,0.3886719-0.9736328
			l1.4086914-4.8378906c0.1176758-0.3984375,0.1767578-0.6918945,0.1767578-0.8793945
			c0-0.1484375-0.0541992-0.2636719-0.1621094-0.3461914c-0.1083984-0.0820313-0.3115234-0.1230469-0.6098633-0.1230469
			c-0.0668945,0-0.1201172-0.0019531-0.1591797-0.0058594l0.0708008-0.2167969h3.2583008l-0.046875,0.2167969
			c-0.3652344,0-0.6245117,0.0351563-0.777832,0.1054688c-0.1533203,0.0708008-0.2807617,0.1860352-0.3833008,0.3461914
			c-0.0703125,0.1054688-0.1865234,0.434082-0.3476563,0.9848633l-1.3847656,4.7558594
			c-0.105957,0.359375-0.1586914,0.609375-0.1586914,0.75c0,0.09375,0.0527344,0.1845703,0.1586914,0.2705078
			c0.0668945,0.0585938,0.2182617,0.0878906,0.4541016,0.0878906h0.7719727c0.5615234,0,1.0073242-0.0703125,1.3374023-0.2109375
			c0.2436523-0.1064453,0.4672852-0.2646484,0.671875-0.4755859c0.1103516-0.1171875,0.3037109-0.4082031,0.5830078-0.8740234
			l0.1533203-0.2636719h0.2177734L223.9316406,221.2680664z"/>
	</g>
</g>
<g>
	<g>
		<path d="M165.2836914,229.2285156l0.0351563-0.1083984h1.2763672c0.5400391,0,0.9404297,0.0615234,1.2001953,0.1845703
			c0.2607422,0.1230469,0.4677734,0.3173828,0.6230469,0.5820313s0.2333984,0.5488281,0.2333984,0.8515625
			c0,0.2597656-0.0449219,0.5126953-0.1347656,0.7578125c-0.0888672,0.2451172-0.1904297,0.4423828-0.3027344,0.5898438
			c-0.1132813,0.1474609-0.2871094,0.3105469-0.5205078,0.4882813s-0.4873047,0.3085938-0.7597656,0.3935547
			c-0.2734375,0.0849609-0.6142578,0.1279297-1.0224609,0.1279297h-1.6914063l0.0380859-0.1083984
			c0.1552734-0.0039063,0.2597656-0.0175781,0.3125-0.0410156c0.078125-0.0332031,0.1367188-0.078125,0.1738281-0.1347656
			c0.0566406-0.0820313,0.1210938-0.2470703,0.1914063-0.4960938l0.7070313-2.4033203
			c0.0546875-0.1904297,0.0830078-0.3388672,0.0830078-0.4462891c0-0.0761719-0.0263672-0.1347656-0.0771484-0.1757813
			s-0.1513672-0.0615234-0.3007813-0.0615234H165.2836914z M166.3295898,229.3398438l-0.8662109,2.9755859
			c-0.0644531,0.2236328-0.0966797,0.3613281-0.0966797,0.4140625c0,0.03125,0.0097656,0.0615234,0.0302734,0.0908203
			s0.0488281,0.0488281,0.0839844,0.0585938c0.0517578,0.0175781,0.1337891,0.0263672,0.2480469,0.0263672
			c0.3076172,0,0.5947266-0.0322266,0.8583984-0.0957031c0.2646484-0.0634766,0.4804688-0.1572266,0.6494141-0.2822266
			c0.2402344-0.1826172,0.4316406-0.4326172,0.5751953-0.7509766c0.1425781-0.3183594,0.2148438-0.6816406,0.2148438-1.0878906
			c0-0.4589844-0.1103516-0.8007813-0.3300781-1.0244141s-0.5410156-0.3359375-0.9638672-0.3359375
			C166.6293945,229.328125,166.4946289,229.3320313,166.3295898,229.3398438z"/>
	</g>
	<g>
		<path d="M163.5268555,230.0175781h-5.921875l0.0820313-0.2167969c0.3144531-0.0078125,0.5249023-0.0332031,0.6308594-0.0761719
			c0.1650391-0.0703125,0.2866211-0.1621094,0.3652344-0.2753906c0.121582-0.1806641,0.2514648-0.5048828,0.3886719-0.9736328
			l1.4086914-4.8378906c0.1176758-0.3984375,0.1767578-0.6918945,0.1767578-0.8793945
			c0-0.1484375-0.0541992-0.2636719-0.1621094-0.3461914c-0.1083984-0.0820313-0.3115234-0.1230469-0.6098633-0.1230469
			c-0.0668945,0-0.1201172-0.0019531-0.1591797-0.0058594l0.0708008-0.2167969h3.2583008l-0.046875,0.2167969
			c-0.3652344,0-0.6245117,0.0351563-0.777832,0.1054688c-0.1533203,0.0708008-0.2807617,0.1860352-0.3833008,0.3461914
			c-0.0703125,0.1054688-0.1865234,0.434082-0.3476563,0.9848633l-1.3847656,4.7558594
			c-0.105957,0.359375-0.1586914,0.609375-0.1586914,0.75c0,0.09375,0.0527344,0.1845703,0.1586914,0.2705078
			c0.0668945,0.0585938,0.2182617,0.0878906,0.4541016,0.0878906h0.7719727c0.5615234,0,1.0073242-0.0703125,1.3374023-0.2109375
			c0.2436523-0.1064453,0.4672852-0.2646484,0.671875-0.4755859c0.1103516-0.1171875,0.3037109-0.4082031,0.5830078-0.8740234
			l0.1533203-0.2636719h0.2177734L163.5268555,230.0175781z"/>
	</g>
</g>
</svg>
