<?xml version="1.0" encoding="utf-8"?>
<!-- Generator: Adobe Illustrator 19.0.0, SVG Export Plug-In . SVG Version: 6.00 Build 0)  -->
<svg version="1.1" id="Layer_1" xmlns="http://www.w3.org/2000/svg" xmlns:xlink="http://www.w3.org/1999/xlink" x="0px" y="0px"
	 viewBox="151.5 92 143.25 125.5" style="enable-background:new 151.5 92 143.25 125.5;" xml:space="preserve">
<style type="text/css">
	.st0{fill-opacity:0;stroke:#F6962F;}
	.st1{fill:#F6962F;stroke:#F6962F;}
	.st2{fill-opacity:0;stroke:#8080FF;}
	.st3{fill:#8080FF;stroke:#8080FF;}
	.st4{fill-opacity:0;stroke:#000000;stroke-width:0.5;stroke-dasharray:3,2.5;}
	.st5{fill:#8080FF;}
	.st6{fill:#F6962F;}
	.st7{fill-opacity:0;stroke:#000000;stroke-width:0.5;}
	.st8{fill:none;stroke:#000000;}
	.st9{fill:none;stroke:#000000;stroke-width:0.5906434;stroke-linecap:square;stroke-miterlimit:10;}
</style>
<g id="Layer_1_1_">
	<g>
		<path class="st0" d="M175.2619934,189.973999l50.5570068-87.5670013"/>
		<path class="st1" d="M228.4170074,103.9069977l1.4019928-8.4279938l-6.5980072,5.4279938L228.4170074,103.9069977z"/>
	</g>
	<g>
		<path class="st2" d="M175.2619934,189.973999h106.5910034"/>
		<path class="st3" d="M281.8529968,192.973999l8-3l-8-3V192.973999z"/>
	</g>
	<path class="st4" d="M230.3190002,94.6130066v95.3609924"/>
	<path class="st4" d="M204.8529968,140.3220062l86,49.6519928"/>
</g>
<g>
	<g>
		<path class="st5" d="M266.2060547,202.4287109h-2.7910156l-0.3320313,0.7675781
			c-0.1088867,0.2558594-0.1635742,0.4677734-0.1635742,0.6337891c0,0.2216797,0.0893555,0.3837891,0.2680664,0.4892578
			c0.1049805,0.0615234,0.3632813,0.1083984,0.7753906,0.1396484v0.2148438h-2.628418v-0.2148438
			c0.2836914-0.0429688,0.5166016-0.1601563,0.6992188-0.3525391c0.1826172-0.1914063,0.4082031-0.5878906,0.6762695-1.1894531
			l2.8261719-6.293457h0.1108398l2.8500977,6.4682617c0.2714844,0.6123047,0.4951172,0.9980469,0.6699219,1.1572266
			c0.1318359,0.1201172,0.3183594,0.1904297,0.5595703,0.2099609v0.2148438h-3.8232422v-0.2148438h0.1582031
			c0.3066406,0,0.5214844-0.0429688,0.6464844-0.1279297c0.0849609-0.0625,0.1279297-0.1513672,0.1279297-0.2675781
			c0-0.0703125-0.0117188-0.1416016-0.0351563-0.2158203c-0.0078125-0.0351563-0.0664063-0.1796875-0.1748047-0.4355469
			L266.2060547,202.4287109z M266.0087891,201.9980469l-1.1777344-2.7163086l-1.2119141,2.7163086H266.0087891z"/>
	</g>
</g>
<g>
	<g>
		<path class="st6" d="M210.2446289,108.7421875c0.7617188,0.1738281,1.296875,0.3857422,1.6044922,0.6337891
			c0.4414063,0.3525391,0.6630859,0.8105469,0.6630859,1.3720703c0,0.59375-0.2431641,1.0839844-0.7285156,1.4716797
			c-0.5957031,0.4697266-1.4619141,0.7041016-2.5981445,0.7041016h-4.078125v-0.2148438
			c0.3710938,0,0.6225586-0.0341797,0.7548828-0.1025391c0.1318359-0.0673828,0.2246094-0.1552734,0.277832-0.2646484
			c0.0537109-0.1083984,0.0800781-0.3759766,0.0800781-0.8027344v-5.1181641c0-0.4267578-0.0263672-0.6953125-0.0800781-0.8056641
			c-0.0532227-0.1103516-0.1469727-0.1987305-0.2807617-0.2646484c-0.1342773-0.065918-0.3847656-0.0986328-0.7519531-0.0986328
			v-0.215332h3.847168c0.9199219,0,1.5703125,0.0805664,1.953125,0.2412109
			c0.3828125,0.1611328,0.6845703,0.4013672,0.90625,0.7211914c0.2207031,0.3198242,0.3310547,0.6601563,0.3310547,1.0209961
			c0,0.3798828-0.1396484,0.7182617-0.4199219,1.0151367C211.4448242,108.331543,210.9516602,108.5673828,210.2446289,108.7421875z
			 M208.0908203,109.0380859v2.5302734l-0.0058594,0.2910156c0,0.2089844,0.0541992,0.3671875,0.1625977,0.4736328
			c0.1083984,0.1074219,0.269043,0.1601563,0.4824219,0.1601563c0.3154297,0,0.6064453-0.0683594,0.8730469-0.2060547
			s0.4707031-0.3378906,0.6123047-0.5996094c0.1425781-0.2617188,0.2128906-0.5527344,0.2128906-0.875
			c0-0.3681641-0.0869141-0.6992188-0.2597656-0.9921875c-0.1738281-0.2919922-0.4130859-0.4970703-0.7158203-0.6132813
			C209.1479492,109.0908203,208.6943359,109.0341797,208.0908203,109.0380859z M208.0908203,108.5839844
			c0.5600586,0,0.9736328-0.0615234,1.2397461-0.1855469c0.2666016-0.1240234,0.4707031-0.2983398,0.6123047-0.5234375
			c0.1425781-0.2246094,0.2138672-0.5117188,0.2138672-0.8608398s-0.0703125-0.6347656-0.2109375-0.8579102
			c-0.1396484-0.2231445-0.3398438-0.3925781-0.6005859-0.5087891c-0.2602539-0.1166992-0.6787109-0.1728516-1.2543945-0.1689453
			V108.5839844z"/>
	</g>
</g>
<g>
	<path class="st7" d="M178.2754974,197.2435608l49.7189484,0.0360107"/>
	<path class="st7" d="M180.1595154,195.7445679l-4.2378693,1.4970093l4.2359924,1.5029907 M178.2754974,197.2435608
		l-2.3538513-0.0019836 M175.4527588,194.7405701l-0.0037689,5"/>
	<path class="st7" d="M226.1104279,198.7785645l4.237854-1.4970093l-4.2359772-1.5029907 M227.9944458,197.2795715
		l2.3538361,0.0019836 M230.8171844,199.7815552l0.0028229-5"/>
</g>
<g>
	<path class="st7" d="M168.9967957,182.7242584l25.7749786-44.5690002"/>
	<path class="st7" d="M168.6279755,180.2585602l-0.8516998,4.575592l3.5411072-3.0206146 M168.9967957,182.7242584
		l-1.22052,2.1098938 M165.2906189,183.9597168l4.4820099,2.5921936"/>
	<path class="st7" d="M195.1405945,140.6209564l0.8516998-4.575592l-3.5411072,3.0205994 M194.7717743,138.1552582
		l1.22052-2.1098938 M198.4770508,136.919281l-4.4824982-2.5913696"/>
</g>
<path class="st8" d="M181.8842926,178.5039063C186.5,181.375,188.25,186.322998,188.25,189.973999"/>
<g>
	<g>
		<path d="M191.7446289,180.4414063c0.5117188-1.5366211,1.2167969-2.7202148,2.1162109-3.5512695
			c0.6777344-0.6235352,1.3466797-0.9360352,2.0048828-0.9360352c0.6386719,0,1.0839844,0.300293,1.3359375,0.9008789
			c0.3525391,0.8383789,0.2861328,1.9799805-0.1933594,3.4233398c-0.4570313,1.3730469-1.1259766,2.4570313-2.0097656,3.2529297
			c-0.6884766,0.6162109-1.3598633,0.9248047-2.0141602,0.9248047c-0.3535156,0-0.6479492-0.0859375-0.8833008-0.2578125
			c-0.234375-0.1708984-0.4111328-0.4199219-0.5297852-0.7431641c-0.1176758-0.3232422-0.1762695-0.6669922-0.1772461-1.0292969
			C191.3959961,181.8007813,191.512207,181.140625,191.7446289,180.4414063z M192.8696289,180.4121094
			c-0.215332,0.6953125-0.3701172,1.3183594-0.4648438,1.8730469c-0.0737305,0.421875-0.0810547,0.7871094-0.0209961,1.0996094
			c0.034668,0.1875,0.1240234,0.3466797,0.2670898,0.4775391c0.144043,0.1308594,0.3222656,0.1953125,0.5361328,0.1953125
			c0.2490234,0,0.5253906-0.1171875,0.8271484-0.3515625c0.3017578-0.2333984,0.5957031-0.609375,0.8837891-1.1279297
			c0.2871094-0.5195313,0.5957031-1.2412109,0.9267578-2.1660156H192.8696289z M195.9643555,180.0268555
			c0.3359375-1.0185547,0.5107422-1.8359375,0.5244141-2.4521484c0.0087891-0.4716797-0.0742188-0.8095703-0.2529297-1.0126953
			c-0.1298828-0.1474609-0.3105469-0.222168-0.5449219-0.222168c-0.2646484,0-0.5429688,0.1035156-0.8330078,0.3100586
			c-0.2900391,0.2070313-0.5742188,0.5522461-0.8496094,1.0361328c-0.2763672,0.4838867-0.6132813,1.2641602-1.0102539,2.3408203
			H195.9643555z"/>
	</g>
</g>
<g>
	<line class="st9" x1="185.0671387" y1="199.7815552" x2="185.0671387" y2="213.9570007"/>
	<line class="st9" x1="195.4906158" y1="199.7815552" x2="195.4906158" y2="213.9570007"/>
	<g>
		<path d="M202.7558594,207.8325195c-0.1435547,0.703125-0.4267578,1.2441406-0.8476563,1.6230469
			c-0.421875,0.3789063-0.8876953,0.5683594-1.3984375,0.5683594c-0.609375,0-1.1396484-0.2539063-1.5917969-0.7636719
			c-0.453125-0.5087891-0.6787109-1.1962891-0.6787109-2.0634766c0-0.8388672,0.25-1.5209961,0.7519531-2.0454102
			c0.5009766-0.5249023,1.1025391-0.7871094,1.8046875-0.7871094c0.5263672,0,0.9599609,0.1391602,1.2988281,0.4169922
			c0.3398438,0.277832,0.5097656,0.5664063,0.5097656,0.8652344c0,0.1479492-0.0478516,0.2675781-0.1435547,0.3588867
			s-0.2294922,0.1367188-0.4013672,0.1367188c-0.2294922,0-0.4033203-0.0737305-0.5205078-0.2216797
			c-0.0664063-0.081543-0.1103516-0.2368164-0.1318359-0.4663086c-0.0214844-0.2290039-0.1005859-0.4038086-0.2363281-0.5244141
			c-0.1367188-0.1166992-0.3261719-0.1748047-0.5683594-0.1748047c-0.3896484,0-0.7041016,0.144043-0.9414063,0.4311523
			c-0.3164063,0.3808594-0.4746094,0.8842773-0.4746094,1.5097656c0,0.6376953,0.1572266,1.2001953,0.4716797,1.6875
			c0.3134766,0.4873047,0.7382813,0.7314453,1.2724609,0.7314453c0.3818359,0,0.7255859-0.1298828,1.0302734-0.390625
			c0.2138672-0.1787109,0.4228516-0.5029297,0.6259766-0.9726563L202.7558594,207.8325195z"/>
		<path d="M206.0722656,204.3642578c0.8115234,0,1.4628906,0.3071289,1.9541016,0.9208984
			c0.4179688,0.5249023,0.6259766,1.1269531,0.6259766,1.8071289c0,0.4775391-0.1152344,0.9619141-0.3447266,1.4511719
			c-0.2304688,0.4892578-0.546875,0.859375-0.9511719,1.1074219c-0.4033203,0.2490234-0.8535156,0.3730469-1.3486328,0.3730469
			c-0.8076172,0-1.4492188-0.3203125-1.9248047-0.9619141c-0.4023438-0.5400391-0.6035156-1.1455078-0.6035156-1.8183594
			c0-0.4897461,0.1220703-0.9760742,0.3662109-1.4599609s0.5644531-0.8413086,0.9628906-1.0727539
			C205.2060547,204.4799805,205.6269531,204.3642578,206.0722656,204.3642578z M205.890625,204.7431641
			c-0.2070313,0-0.4140625,0.0610352-0.6230469,0.1835938s-0.3769531,0.3374023-0.5058594,0.644043
			c-0.1289063,0.3071289-0.1933594,0.7016602-0.1933594,1.1831055c0,0.7768555,0.1552734,1.4477539,0.4648438,2.0112305
			c0.3105469,0.5634766,0.71875,0.8447266,1.2265625,0.8447266c0.3779297,0,0.6904297-0.1552734,0.9355469-0.4658203
			c0.2460938-0.3105469,0.3691406-0.8457031,0.3691406-1.6035156c0-0.9477539-0.2050781-1.6938477-0.6142578-2.237793
			C206.6728516,204.9296875,206.3203125,204.7431641,205.890625,204.7431641z"/>
		<path d="M212.90625,204.3642578v1.8188477h-0.1933594c-0.1484375-0.5712891-0.3388672-0.9599609-0.5703125-1.1660156
			c-0.2324219-0.2060547-0.5283203-0.3085938-0.8867188-0.3085938c-0.2734375,0-0.4931641,0.0717773-0.6611328,0.215332
			c-0.1679688,0.144043-0.2519531,0.3032227-0.2519531,0.4780273c0,0.2177734,0.0625,0.4042969,0.1875,0.5595703
			c0.1210938,0.1591797,0.3662109,0.3286133,0.7373047,0.5073242l0.8544922,0.4135742
			c0.7919922,0.3847656,1.1875,0.8916016,1.1875,1.5214844c0,0.4853516-0.1845703,0.8769531-0.5527344,1.1748047
			c-0.3691406,0.296875-0.78125,0.4453125-1.2373047,0.4453125c-0.328125,0-0.7021484-0.0585938-1.1240234-0.1748047
			c-0.1289063-0.0390625-0.234375-0.0585938-0.3154297-0.0585938c-0.0898438,0-0.1601563,0.0507813-0.2109375,0.1523438h-0.1933594
			v-1.90625h0.1933594c0.109375,0.5439453,0.3173828,0.9541016,0.6259766,1.2294922
			c0.3085938,0.2763672,0.6533203,0.4140625,1.0361328,0.4140625c0.2685547,0,0.4882813-0.0791016,0.6582031-0.2363281
			c0.1689453-0.1572266,0.2539063-0.3466797,0.2539063-0.5683594c0-0.2675781-0.0947266-0.4931641-0.2832031-0.6757813
			c-0.1894531-0.1826172-0.5673828-0.4140625-1.1328125-0.6943359c-0.5654297-0.2792969-0.9355469-0.53125-1.1113281-0.7568359
			c-0.1757813-0.2216797-0.2636719-0.5014648-0.2636719-0.8393555c0-0.4394531,0.1513672-0.8066406,0.4541016-1.1020508
			c0.3017578-0.2949219,0.6933594-0.4428711,1.1728516-0.4428711c0.2109375,0,0.4658203,0.0449219,0.7666016,0.1342773
			c0.1992188,0.0581055,0.3310547,0.0874023,0.3974609,0.0874023c0.0625,0,0.1113281-0.0136719,0.1464844-0.0410156
			c0.0351563-0.0268555,0.0761719-0.0874023,0.1230469-0.1806641H212.90625z"/>
	</g>
	<g>
		<path d="M216.1010742,206.0268555c0.5117188-1.5307617,1.21875-2.7094727,2.1201172-3.5375977
			c0.6796875-0.6210938,1.3496094-0.9326172,2.0097656-0.9326172c0.6386719,0,1.0849609,0.2993164,1.3369141,0.8974609
			c0.3535156,0.8354492,0.2880859,1.9726563-0.1923828,3.409668c-0.4580078,1.3676758-1.1289063,2.4487305-2.015625,3.2416992
			c-0.6894531,0.6142578-1.3613281,0.9199219-2.015625,0.9199219c-0.3554688,0-0.6503906-0.0849609-0.8867188-0.2558594
			c-0.2353516-0.1708984-0.4121094-0.4179688-0.5302734-0.7402344s-0.1767578-0.6650391-0.1767578-1.0263672
			C215.7504883,207.3818359,215.8676758,206.7236328,216.1010742,206.0268555z M217.2290039,205.9980469
			c-0.2167969,0.6918945-0.3710938,1.3134766-0.4667969,1.8652344c-0.0742188,0.4199219-0.0820313,0.7851563-0.0214844,1.0957031
			c0.0351563,0.1875,0.125,0.3457031,0.2675781,0.4746094c0.1445313,0.1308594,0.3232422,0.1962891,0.5380859,0.1962891
			c0.2490234,0,0.5253906-0.1171875,0.828125-0.3505859c0.3017578-0.2324219,0.5966797-0.6074219,0.8857422-1.1240234
			c0.2871094-0.5166016,0.5976563-1.2363281,0.9296875-2.1572266H217.2290039z M220.3295898,205.6137695
			c0.3359375-1.0146484,0.5107422-1.8286133,0.5244141-2.4428711c0.0087891-0.4692383-0.0742188-0.8056641-0.2529297-1.0073242
			c-0.1298828-0.1484375-0.3125-0.2226563-0.5458984-0.2226563c-0.265625,0-0.5449219,0.1040039-0.8349609,0.3095703
			c-0.2919922,0.2055664-0.5751953,0.5498047-0.8525391,1.0317383c-0.2753906,0.4814453-0.6123047,1.2592773-1.0107422,2.331543
			H220.3295898z"/>
	</g>
	<g>
		<path d="M191.6757813,205.6699219c0.7529297,0.1748047,1.28125,0.3867188,1.5859375,0.6352539
			c0.4365234,0.3540039,0.6552734,0.8125,0.6552734,1.3759766c0,0.5947266-0.2402344,1.0859375-0.7197266,1.4746094
			c-0.5888672,0.4697266-1.4453125,0.7050781-2.5693359,0.7050781h-4.03125v-0.2158203
			c0.3662109,0,0.6152344-0.0341797,0.7460938-0.1015625c0.1308594-0.0683594,0.2226563-0.15625,0.2744141-0.265625
			c0.0527344-0.1083984,0.0791016-0.3769531,0.0791016-0.8046875v-5.1289063c0-0.4272461-0.0263672-0.6962891-0.0791016-0.8071289
			c-0.0517578-0.1108398-0.1445313-0.1992188-0.2773438-0.2651367s-0.3808594-0.0991211-0.7431641-0.0991211v-0.2158203h3.8037109
			c0.9082031,0,1.5517578,0.0805664,1.9306641,0.2421875c0.3779297,0.1611328,0.6767578,0.4018555,0.8955078,0.7226563
			c0.2177734,0.3203125,0.3271484,0.6616211,0.3271484,1.0229492c0,0.3808594-0.1386719,0.7197266-0.4150391,1.0170898
			C192.8613281,205.2592773,192.3740234,205.4951172,191.6757813,205.6699219z M189.5458984,205.9672852v2.5351563
			l-0.0058594,0.2919922c0,0.2099609,0.0537109,0.3681641,0.1611328,0.4746094
			c0.1064453,0.1074219,0.265625,0.1601563,0.4765625,0.1601563c0.3125,0,0.5996094-0.0683594,0.8632813-0.2070313
			c0.2626953-0.1376953,0.4648438-0.3378906,0.6054688-0.5996094c0.140625-0.2626953,0.2109375-0.5546875,0.2109375-0.8769531
			c0-0.3691406-0.0859375-0.7011719-0.2578125-0.9946289c-0.171875-0.2929688-0.4072266-0.4980469-0.7080078-0.6147461
			S190.1425781,205.9633789,189.5458984,205.9672852z M189.5458984,205.5126953
			c0.5537109,0,0.9628906-0.0620117,1.2255859-0.1865234c0.2636719-0.1245117,0.4658203-0.2993164,0.6054688-0.5244141
			c0.140625-0.2255859,0.2109375-0.5131836,0.2109375-0.862793s-0.0693359-0.6362305-0.2080078-0.8598633
			c-0.1386719-0.2231445-0.3359375-0.3935547-0.59375-0.5097656c-0.2578125-0.1166992-0.6708984-0.1728516-1.2402344-0.1694336
			V205.5126953z"/>
	</g>
</g>
<g>
	<line class="st9" x1="155.4308624" y1="170.585495" x2="167.7071686" y2="177.6732178"/>
	<line class="st9" x1="161.2151947" y1="160.5667419" x2="173.4915009" y2="167.6544647"/>
	<g>
		<path d="M171.8671875,158.2456055c0.5371094,0.4770508,0.8642578,0.9921875,0.9804688,1.5473633
			c0.1171875,0.5546875,0.0478516,1.0541992-0.2080078,1.4975586c-0.3046875,0.527832-0.7900391,0.8613281-1.4580078,0.9990234
			c-0.6679688,0.1381836-1.3769531-0.0087891-2.1269531-0.4423828c-0.7265625-0.4194336-1.1923828-0.9780273-1.3955078-1.675293
			c-0.203125-0.6977539-0.1289063-1.3505859,0.2226563-1.9599609c0.2646484-0.4570313,0.6015625-0.7631836,1.0126953-0.9189453
			c0.4101563-0.1552734,0.7451172-0.1582031,1.0039063-0.0087891c0.1279297,0.0742188,0.2080078,0.1748047,0.2392578,0.3037109
			s0.0029297,0.2670898-0.0830078,0.4160156c-0.1152344,0.2001953-0.265625,0.3134766-0.453125,0.3413086
			c-0.1035156,0.0170898-0.2597656-0.0229492-0.46875-0.1186523c-0.2089844-0.0961914-0.4003906-0.1152344-0.5732422-0.0566406
			c-0.1699219,0.0600586-0.3144531,0.1953125-0.4355469,0.4042969c-0.1953125,0.3388672-0.2285156,0.6835938-0.0986328,1.0332031
			c0.171875,0.4648438,0.5283203,0.8535156,1.0693359,1.1665039c0.5527344,0.3188477,1.1181641,0.4633789,1.6982422,0.4350586
			c0.5791016-0.0288086,1.0029297-0.2749023,1.2705078-0.7387695c0.1923828-0.331543,0.2509766-0.6943359,0.1777344-1.0888672
			c-0.046875-0.2753906-0.2236328-0.6186523-0.5283203-1.0292969L171.8671875,158.2456055z"/>
		<path d="M170.5253906,153.6337891c0.40625-0.7041016,0.9980469-1.1152344,1.7763672-1.2353516
			c0.6630859-0.0996094,1.2900391,0.0205078,1.8789063,0.3603516c0.4130859,0.2387695,0.7753906,0.5810547,1.0830078,1.0249023
			c0.3085938,0.4443359,0.4707031,0.9042969,0.4824219,1.3793945c0.0136719,0.4746094-0.1035156,0.9262695-0.3515625,1.355957
			c-0.4042969,0.7011719-1.0039063,1.0976563-1.796875,1.1894531c-0.6699219,0.0791016-1.2949219-0.0493164-1.8769531-0.3857422
			c-0.4248047-0.2446289-0.7851563-0.5932617-1.0820313-1.046875s-0.4453125-0.9116211-0.4462891-1.3725586
			C170.1914063,154.4433594,170.3027344,154.0205078,170.5253906,153.6337891z M170.7626953,153.9804688
			c-0.1044922,0.1796875-0.1552734,0.390625-0.1533203,0.6328125s0.1035156,0.4960938,0.3046875,0.7612305
			s0.5097656,0.5180664,0.9277344,0.7592773c0.671875,0.3881836,1.3310547,0.5888672,1.9746094,0.6015625
			c0.6425781,0.0131836,1.0917969-0.2006836,1.3457031-0.6416016c0.1894531-0.328125,0.2109375-0.6762695,0.0654297-1.0444336
			c-0.1455078-0.3686523-0.5478516-0.7426758-1.2041016-1.121582c-0.8203125-0.4736328-1.5703125-0.6689453-2.2460938-0.5859375
			C171.3164063,153.3955078,170.9775391,153.6083984,170.7626953,153.9804688z"/>
		<path d="M173.9492188,147.7041016l1.5742188,0.909668l-0.0957031,0.1669922
			c-0.5693359-0.1567383-1.0019531-0.1865234-1.2958984-0.0878906c-0.2949219,0.0981445-0.5322266,0.3037109-0.7119141,0.6152344
			c-0.1367188,0.2368164-0.1845703,0.4633789-0.1445313,0.6811523c0.0410156,0.2172852,0.1367188,0.3696289,0.2880859,0.4570313
			c0.1884766,0.1088867,0.3818359,0.1479492,0.5791016,0.1176758c0.1972656-0.0253906,0.4677734-0.1538086,0.8085938-0.3862305
			l0.7851563-0.534668c0.7304688-0.4941406,1.3671875-0.5844727,1.9130859-0.2695313
			c0.4199219,0.2426758,0.6669922,0.5986328,0.7402344,1.0673828c0.0732422,0.4677734-0.0048828,0.8999023-0.234375,1.2963867
			c-0.1640625,0.2841797-0.4023438,0.5795898-0.7138672,0.887207c-0.0976563,0.0917969-0.1679688,0.1733398-0.2089844,0.2446289
			c-0.0449219,0.0786133-0.0371094,0.1650391,0.0253906,0.2597656l-0.0957031,0.1674805l-1.6513672-0.953125l0.0966797-0.1674805
			c0.5253906,0.1772461,0.9863281,0.2001953,1.3789063,0.0708008c0.3935547-0.1289063,0.6855469-0.3598633,0.8769531-0.6914063
			c0.1347656-0.2338867,0.1767578-0.4638672,0.125-0.6894531c-0.0507813-0.2260742-0.171875-0.394043-0.3642578-0.5048828
			c-0.2314453-0.1337891-0.4736328-0.1645508-0.7275391-0.0917969c-0.2519531,0.0727539-0.6425781,0.2851563-1.1679688,0.6352539
			c-0.5253906,0.3510742-0.9296875,0.5463867-1.2128906,0.5864258c-0.2792969,0.0415039-0.5664063-0.0219727-0.859375-0.190918
			c-0.3798828-0.2197266-0.6230469-0.5341797-0.7265625-0.9453125c-0.1035156-0.409668-0.0361328-0.8222656,0.2041016-1.2392578
			c0.1054688-0.1826172,0.2724609-0.3818359,0.5009766-0.5981445c0.1494141-0.1430664,0.2412109-0.2436523,0.2744141-0.3012695
			c0.03125-0.0537109,0.0439453-0.1035156,0.0380859-0.1474609s-0.0380859-0.109375-0.0957031-0.1972656L173.9492188,147.7041016z"
			/>
	</g>
	<g>
		<path d="M176.9707031,145.7133789c-1.0703125-1.2104492-1.7373047-2.4140625-2.0019531-3.609375
			c-0.1982422-0.9008789-0.1328125-1.637207,0.1982422-2.2094727c0.3203125-0.5556641,0.8037109-0.7919922,1.4482422-0.7119141
			c0.8994141,0.1123047,1.8515625,0.7363281,2.8554688,1.8720703c0.9550781,1.081543,1.5546875,2.203125,1.7978516,3.3686523
			c0.1865234,0.9057617,0.1152344,1.6416016-0.2128906,2.2099609c-0.1787109,0.3085938-0.3994141,0.5224609-0.6660156,0.640625
			c-0.265625,0.1196289-0.5673828,0.1489258-0.90625,0.090332c-0.3388672-0.059082-0.6650391-0.1777344-0.9775391-0.3588867
			C177.9667969,146.6933594,177.4560547,146.2631836,176.9707031,145.7133789z M178.7304688,141.8364258
			c-0.7109375-0.7988281-1.328125-1.3564453-1.8525391-1.675293c-0.4033203-0.2441406-0.7363281-0.3388672-1.0009766-0.2851563
			c-0.1914063,0.0395508-0.3476563,0.159668-0.4648438,0.362793c-0.1328125,0.2314453-0.1835938,0.5239258-0.1503906,0.8793945
			c0.0322266,0.355957,0.1875,0.7739258,0.4667969,1.2548828c0.2792969,0.4799805,0.7832031,1.1611328,1.5126953,2.0424805
			L178.7304688,141.8364258z M177.5097656,144.7192383c0.4902344,0.5332031,0.9511719,0.9799805,1.3818359,1.3378906
			c0.3261719,0.2739258,0.6386719,0.4624023,0.9384766,0.565918c0.1796875,0.0639648,0.3613281,0.0649414,0.5449219,0.0053711
			c0.1855469-0.0600586,0.3320313-0.1826172,0.4394531-0.3691406c0.125-0.2167969,0.1621094-0.5141602,0.1113281-0.8925781
			c-0.0507813-0.3793945-0.2275391-0.8222656-0.53125-1.3305664c-0.3027344-0.5092773-0.7695313-1.1376953-1.4013672-1.8862305
			L177.5097656,144.7192383z"/>
	</g>
	<g>
		<path d="M165.5761719,168.6992188l-1.4042969,2.4321289l0.5,0.6738281c0.1679688,0.2231445,0.3232422,0.3764648,0.46875,0.4599609
			c0.1904297,0.1103516,0.3769531,0.1142578,0.5576172,0.0112305c0.1064453-0.0600586,0.2763672-0.262207,0.5107422-0.6054688
			l0.1875,0.1079102l-1.3222656,2.2900391l-0.1875-0.1079102c0.1054688-0.2685547,0.1220703-0.5307617,0.046875-0.7856445
			c-0.0742188-0.2553711-0.3056641-0.6503906-0.6923828-1.1855469l-4.0400391-5.6157227l0.0556641-0.0957031l7.0478516,0.7578125
			c0.6669922,0.0698242,1.1142578,0.0683594,1.3408203-0.0043945c0.1708984-0.0541992,0.3242188-0.1821289,0.4628906-0.3818359
			l0.1865234,0.1079102l-1.9228516,3.3305664l-0.1865234-0.1079102l0.0791016-0.137207
			c0.1542969-0.2675781,0.2255859-0.4770508,0.2138672-0.6274414c-0.0107422-0.105957-0.0664063-0.1875-0.1679688-0.2460938
			c-0.0595703-0.034668-0.1279297-0.0605469-0.2041016-0.0776367c-0.0341797-0.0102539-0.1894531-0.0327148-0.4658203-0.065918
			L165.5761719,168.6992188z M165.1025391,168.65625l-2.9492188-0.3354492l1.7480469,2.4165039L165.1025391,168.65625z"/>
	</g>
</g>
</svg>
