<?xml version="1.0" encoding="utf-8"?>
<!-- Generator: Adobe Illustrator 19.0.0, SVG Export Plug-In . SVG Version: 6.00 Build 0)  -->
<svg version="1.1" id="Layer_1" xmlns="http://www.w3.org/2000/svg" xmlns:xlink="http://www.w3.org/1999/xlink" x="0px" y="0px"
	 width="298.6666565px" height="206px" viewBox="-120 295 298.6666565 206"
	 style="enable-background:new -120 295 298.6666565 206;" xml:space="preserve">
<style type="text/css">
	.st0{fill:none;stroke:#262626;stroke-width:0.6667;stroke-linejoin:round;stroke-miterlimit:10;stroke-opacity:0.149;}
	.st1{fill:none;stroke:#262626;stroke-width:0.6667;stroke-linecap:square;stroke-linejoin:round;stroke-miterlimit:10;}
	.st2{enable-background:new    ;}
	.st3{fill:#262626;}
	.st4{fill:none;stroke:#0072BD;stroke-width:0.6667;stroke-linejoin:round;stroke-miterlimit:10;}
	.st5{fill:#D95319;}
</style>
<g>
	<line class="st0" x1="-95" y1="464" x2="-95" y2="315"/>
	<line class="st0" x1="-51.8332977" y1="464" x2="-51.8332977" y2="315"/>
	<line class="st0" x1="-8.6667023" y1="464" x2="-8.6667023" y2="315"/>
	<line class="st0" x1="34.5" y1="464" x2="34.5" y2="315"/>
	<line class="st0" x1="77.6667023" y1="464" x2="77.6667023" y2="315"/>
	<line class="st0" x1="120.833313" y1="464" x2="120.833313" y2="315"/>
	<line class="st0" x1="164" y1="464" x2="164" y2="315"/>
	<line class="st0" x1="164" y1="436.0625" x2="-95" y2="436.0625"/>
	<line class="st0" x1="164" y1="389.5" x2="-95" y2="389.5"/>
	<line class="st0" x1="164" y1="342.9375" x2="-95" y2="342.9375"/>
	<line class="st1" x1="-95" y1="464" x2="164" y2="464"/>
	<line class="st1" x1="-95" y1="315" x2="164" y2="315"/>
	<line class="st1" x1="-95" y1="464" x2="-95" y2="461.4100037"/>
	<line class="st1" x1="-51.8332977" y1="464" x2="-51.8332977" y2="461.4100037"/>
	<line class="st1" x1="-8.6667023" y1="464" x2="-8.6667023" y2="461.4100037"/>
	<line class="st1" x1="34.5" y1="464" x2="34.5" y2="461.4100037"/>
	<line class="st1" x1="77.6667023" y1="464" x2="77.6667023" y2="461.4100037"/>
	<line class="st1" x1="120.833313" y1="464" x2="120.833313" y2="461.4100037"/>
	<line class="st1" x1="164" y1="464" x2="164" y2="461.4100037"/>
	<line class="st1" x1="-95" y1="315" x2="-95" y2="317.5899963"/>
	<line class="st1" x1="-51.8332977" y1="315" x2="-51.8332977" y2="317.5899963"/>
	<line class="st1" x1="-8.6667023" y1="315" x2="-8.6667023" y2="317.5899963"/>
	<line class="st1" x1="34.5" y1="315" x2="34.5" y2="317.5899963"/>
	<line class="st1" x1="77.6667023" y1="315" x2="77.6667023" y2="317.5899963"/>
	<line class="st1" x1="120.833313" y1="315" x2="120.833313" y2="317.5899963"/>
	<line class="st1" x1="164" y1="315" x2="164" y2="317.5899963"/>
</g>
<g transform="translate(43,175.7333)">
	<g class="st2">
		<path class="st3" d="M-140.1777344,301.3663025v0.7792969h-2.9624023v-0.7792969H-140.1777344z"/>
		<path class="st3" d="M-139.0244141,303.7891541c0.2998047,0.1914063,0.9956055,0.4912109,1.7270508,0.4912109
			c1.3554688,0,1.7749023-0.8632813,1.7631836-1.5107422c-0.012207-1.0917969-0.9956055-1.5595703-2.0151367-1.5595703h-0.5874023
			v-0.7910156h0.5874023c0.7675781,0,1.7392578-0.3964844,1.7392578-1.3193359c0-0.6240234-0.3959961-1.1757813-1.3671875-1.1757813
			c-0.6235352,0-1.2236328,0.2763672-1.559082,0.515625l-0.2758789-0.7675781
			c0.4077148-0.2998047,1.1992188-0.5996094,2.0385742-0.5996094c1.5351563,0,2.230957,0.9111328,2.230957,1.859375
			c0,0.8037109-0.4799805,1.4873047-1.4394531,1.8349609v0.0234375c0.9594727,0.1923828,1.7392578,0.9121094,1.7392578,2.0029297
			c0,1.2480469-0.9716797,2.3388672-2.8422852,2.3388672c-0.8754883,0-1.6430664-0.2753906-2.0268555-0.5273438
			L-139.0244141,303.7891541z"/>
	</g>
</g>
<g transform="translate(86.1667,175.7333)">
	<g class="st2">
		<path class="st3" d="M-140.1779327,301.3663025v0.7792969h-2.9624023v-0.7792969H-140.1779327z"/>
		<path class="st3" d="M-139.2765656,305.0000916v-0.6474609l0.8276367-0.8037109
			c1.9907227-1.8945313,2.890625-2.9023438,2.9023438-4.078125c0-0.7910156-0.3837891-1.5224609-1.546875-1.5224609
			c-0.7075195,0-1.2954102,0.359375-1.6552734,0.6591797l-0.3359375-0.7431641
			c0.5400391-0.4560547,1.3076172-0.7919922,2.2070313-0.7919922c1.6791992,0,2.3867188,1.1513672,2.3867188,2.2666016
			c0,1.4394531-1.043457,2.6025391-2.6865234,4.1855469l-0.6235352,0.5761719v0.0234375h3.5019531v0.8759766H-139.2765656z"/>
	</g>
</g>
<g transform="translate(129.3333,175.7333)">
	<g class="st2">
		<path class="st3" d="M-140.177536,301.3663025v0.7792969h-2.9624023v-0.7792969H-140.177536z"/>
		<path class="st3" d="M-136.9851532,298.1875916h-0.0239258l-1.3554688,0.7314453l-0.2036133-0.8027344l1.7026367-0.9121094
			h0.8999023v7.7958984h-1.0195313V298.1875916z"/>
	</g>
</g>
<g transform="translate(172.5,175.7333)">
	<g class="st2">
		<path class="st3" d="M-135.7792969,301.0186462c0,2.6503906-0.9833984,4.1132813-2.7109375,4.1132813
			c-1.5224609,0-2.5546875-1.4267578-2.578125-4.0058594c0-2.6142578,1.1269531-4.0537109,2.7109375-4.0537109
			C-136.7148438,297.0723572-135.7792969,298.5352478-135.7792969,301.0186462z M-140.0126953,301.1377869
			c0,2.0273438,0.6240234,3.1787109,1.5830078,3.1787109c1.0800781,0,1.5957031-1.2597656,1.5957031-3.25
			c0-1.9189453-0.4921875-3.1787109-1.5839844-3.1787109C-139.3417969,297.8877869-140.0126953,299.0157166-140.0126953,301.1377869
			z"/>
	</g>
</g>
<g transform="translate(215.6667,175.7333)">
	<g class="st2">
		<path class="st3" d="M-138.669632,298.1875916h-0.0234375l-1.3554688,0.7314453l-0.2041016-0.8027344l1.703125-0.9121094
			h0.8994141v7.7958984h-1.0195313V298.1875916z"/>
	</g>
</g>
<g transform="translate(258.8333,175.7333)">
	<g class="st2">
		<path class="st3" d="M-140.9602661,305.0000916v-0.6474609l0.8271484-0.8037109
			c1.9912109-1.8945313,2.890625-2.9023438,2.9023438-4.078125c0-0.7910156-0.3837891-1.5224609-1.546875-1.5224609
			c-0.7080078,0-1.2949219,0.359375-1.6552734,0.6591797l-0.3359375-0.7431641
			c0.5400391-0.4560547,1.3076172-0.7919922,2.2070313-0.7919922c1.6796875,0,2.3867188,1.1513672,2.3867188,2.2666016
			c0,1.4394531-1.0429688,2.6025391-2.6865234,4.1855469l-0.6240234,0.5761719v0.0234375h3.5029297v0.8759766H-140.9602661z"/>
	</g>
</g>
<g transform="translate(302,175.7333)">
	<g class="st2">
		<path class="st3" d="M-140.7089844,303.7891541c0.3007813,0.1914063,0.9960938,0.4912109,1.7275391,0.4912109
			c1.3554688,0,1.7744141-0.8632813,1.7626953-1.5107422c-0.0117188-1.0917969-0.9951172-1.5595703-2.0146484-1.5595703h-0.5869141
			v-0.7910156h0.5869141c0.7675781,0,1.7392578-0.3964844,1.7392578-1.3193359c0-0.6240234-0.3964844-1.1757813-1.3671875-1.1757813
			c-0.6240234,0-1.2236328,0.2763672-1.5585938,0.515625l-0.2763672-0.7675781
			c0.4072266-0.2998047,1.1992188-0.5996094,2.0380859-0.5996094c1.5351563,0,2.2314453,0.9111328,2.2314453,1.859375
			c0,0.8037109-0.4794922,1.4873047-1.4394531,1.8349609v0.0234375c0.9599609,0.1923828,1.7392578,0.9121094,1.7392578,2.0029297
			c0,1.2480469-0.9716797,2.3388672-2.8417969,2.3388672c-0.8759766,0-1.6435547-0.2753906-2.0273438-0.5273438
			L-140.7089844,303.7891541z"/>
	</g>
</g>
<g transform="translate(172.5001,192.4)">
	<g class="st2">
		<path class="st3" d="M-139.995224,299.6117249l0.9111328,1.3730469c0.2373047,0.3564453,0.4355469,0.6865234,0.6464844,1.0429688
			h0.0390625c0.2119141-0.3828125,0.4228516-0.7128906,0.6337891-1.0556641l0.8974609-1.3603516h1.2539063l-2.1777344,3.0888672
			l2.2441406,3.2998047h-1.3203125l-0.9365234-1.4384766c-0.2509766-0.3701172-0.4619141-0.7265625-0.6865234-1.109375h-0.0263672
			c-0.2109375,0.3828125-0.4355469,0.7265625-0.6738281,1.109375l-0.9238281,1.4384766h-1.2802734l2.2705078-3.2597656
			l-2.1650391-3.1289063H-139.995224z"/>
	</g>
</g>
<g>
	<line class="st1" x1="-95" y1="464" x2="-95" y2="315"/>
	<line class="st1" x1="164" y1="464" x2="164" y2="315"/>
	<line class="st1" x1="-95" y1="436.0625" x2="-92.4100037" y2="436.0625"/>
	<line class="st1" x1="-95" y1="389.5" x2="-92.4100037" y2="389.5"/>
	<line class="st1" x1="-95" y1="342.9375" x2="-92.4100037" y2="342.9375"/>
	<line class="st1" x1="164" y1="436.0625" x2="161.4100037" y2="436.0625"/>
	<line class="st1" x1="164" y1="389.5" x2="161.4100037" y2="389.5"/>
	<line class="st1" x1="164" y1="342.9375" x2="161.4100037" y2="342.9375"/>
</g>
<g transform="translate(39.2667,144.0625)">
	<g class="st2">
		<path class="st3" d="M-145.6778412,293.3662109v0.7792969h-2.9624023v-0.7792969H-145.6778412z"/>
		<path class="st3" d="M-140.1226654,290.0917969h-2.9746094l-0.2998047,2.0029297
			c0.1796875-0.0244141,0.3476563-0.0478516,0.6357422-0.0478516c0.5996094,0,1.1992188,0.1318359,1.6791992,0.4199219
			c0.6113281,0.3476563,1.1152344,1.0195313,1.1152344,2.0029297c0,1.5224609-1.2114258,2.6621094-2.9023438,2.6621094
			c-0.8515625,0-1.5712891-0.2402344-1.9428711-0.4794922l0.2636719-0.8037109
			c0.3237305,0.1923828,0.9594727,0.4316406,1.6669922,0.4316406c0.9956055,0,1.847168-0.6474609,1.847168-1.6914063
			c-0.012207-1.0068359-0.6835938-1.7265625-2.2426758-1.7265625c-0.4438477,0-0.7915039,0.0478516-1.0795898,0.0839844
			l0.5039063-3.7421875h3.7299805V290.0917969z"/>
	</g>
</g>
<g transform="translate(39.2667,97.5)">
	<g class="st2">
		<path class="st3" d="M-139.2794037,293.0185547c0,2.6503906-0.9833984,4.1132813-2.7104492,4.1132813
			c-1.5229492,0-2.5546875-1.4267578-2.5786133-4.0058594c0-2.6142578,1.1274414-4.0537109,2.7104492-4.0537109
			C-140.2149506,289.0722656-139.2794037,290.5351563-139.2794037,293.0185547z M-143.5128021,293.1376953
			c0,2.0273438,0.6235352,3.1787109,1.5830078,3.1787109c1.0795898,0,1.5952148-1.2597656,1.5952148-3.25
			c0-1.9189453-0.4916992-3.1787109-1.5830078-3.1787109C-142.8414154,289.8876953-143.5128021,291.015625-143.5128021,293.1376953z
			"/>
	</g>
</g>
<g transform="translate(39.2667,50.9375)">
	<g class="st2">
		<path class="st3" d="M-139.8067474,290.0917969h-2.9746094l-0.2998047,2.0029297
			c0.1796875-0.0244141,0.3476563-0.0478516,0.6357422-0.0478516c0.5996094,0,1.1992188,0.1318359,1.6791992,0.4199219
			c0.6113281,0.3476563,1.1152344,1.0195313,1.1152344,2.0029297c0,1.5224609-1.2114258,2.6621094-2.9023438,2.6621094
			c-0.8515625,0-1.5712891-0.2402344-1.9428711-0.4794922l0.2636719-0.8037109
			c0.3237305,0.1923828,0.9594727,0.4316406,1.6669922,0.4316406c0.9956055,0,1.847168-0.6474609,1.847168-1.6914063
			c-0.012207-1.0068359-0.6835938-1.7265625-2.2426758-1.7265625c-0.4438477,0-0.7919922,0.0478516-1.0795898,0.0839844
			l0.5039063-3.7421875h3.7299805V290.0917969z"/>
	</g>
</g>
<g transform="translate(149,18)">
	<g class="st2">
		<path d="M-134.515625,282.8398438c-0.9633789,1.2939453-1.6630859,3.0097656-1.6630859,5.3984375
			c0,2.3496094,0.7260742,4.0390625,1.6630859,5.3583984h-0.9106445c-0.831543-1.0947266-1.7290039-2.7841797-1.7290039-5.3583984
			c0.0131836-2.6005859,0.8974609-4.2900391,1.7290039-5.3984375H-134.515625z"/>
		<path d="M-131.1367188,284.5029297h-0.0263672l-1.4912109,0.8056641l-0.2246094-0.8847656l1.8745117-1.0029297h0.9897461V292
			h-1.1220703V284.5029297z"/>
		<path d="M-123.1245117,284.9785156v3.1015625h2.9829102v0.7919922h-2.9829102V292h-0.8447266v-3.1279297h-2.9829102v-0.7919922
			h2.9829102v-3.1015625H-123.1245117z"/>
		<path d="M-118.1074219,285.6113281l0.9101563,1.3730469c0.2373047,0.3564453,0.4355469,0.6865234,0.6464844,1.0429688h0.0390625
			c0.2119141-0.3828125,0.4228516-0.7128906,0.6347656-1.0556641l0.8964844-1.3603516h1.2539063l-2.1777344,3.0888672
			L-113.6601563,292h-1.3203125l-0.9365234-1.4384766c-0.2509766-0.3701172-0.4619141-0.7265625-0.6865234-1.109375h-0.0263672
			c-0.2109375,0.3828125-0.4355469,0.7265625-0.6728516,1.109375L-118.2265625,292h-1.2807617l2.2709961-3.2597656
			l-2.1650391-3.1289063H-118.1074219z"/>
		<path d="M-113.2363281,293.5966797c0.9365234-1.3066406,1.6621094-3.0224609,1.6621094-5.3974609
			c0-2.3632813-0.7128906-4.0527344-1.6621094-5.359375h0.8964844c0.8457031,1.0820313,1.7294922,2.7714844,1.7294922,5.3720703
			c0,2.5869141-0.8837891,4.2636719-1.7294922,5.3847656H-113.2363281z"/>
	</g>
</g>
<g transform="translate(181,12)">
	<g class="st2">
		<path d="M-135.5078125,286.0019531h-0.0214844l-1.1933594,0.6445313l-0.1796875-0.7070313l1.5-0.8027344h0.7919922V292h-0.8974609
			V286.0019531z"/>
		<path d="M-132.59375,292.421875l2.9462891-7.6552734h0.7177734l-2.9570313,7.6552734H-132.59375z"/>
		<path d="M-127.7578125,286.8896484l0.7285156,1.0976563c0.1914063,0.2851563,0.3496094,0.5498047,0.5175781,0.8339844h0.0322266
			c0.1689453-0.3056641,0.3378906-0.5693359,0.5068359-0.8447266l0.7177734-1.0869141h1.0029297l-1.7421875,2.4707031
			L-124.1992188,292h-1.0556641l-0.7490234-1.1513672c-0.2011719-0.2949219-0.3701172-0.5800781-0.5498047-0.8867188h-0.0205078
			c-0.1699219,0.3066406-0.3486328,0.5810547-0.5390625,0.8867188L-127.8515625,292h-1.0253906l1.8164063-2.6083984
			l-1.7314453-2.5019531H-127.7578125z"/>
	</g>
</g>
<g>
	<path class="st4" d="M-95,385.8042908l0.8661957,0.0386047l0.8662033,0.0393066l0.8663025,0.0400085l0.8662033,0.0408936
		l0.8661957,0.0415955l0.8661957,0.042511l0.8662033,0.043396l0.8662949,0.0441895l0.8662109,0.0451965l0.8661957,0.0461121
		l0.8661957,0.0470886l0.8663025,0.0480957l0.8661957,0.0491943l0.8662109,0.0503235l0.8661957,0.0513916l0.8661957,0.0526123
		l0.8663025,0.0538025l0.8661957,0.0550842l0.8662033,0.0563049l0.8662033,0.0577087l0.8661957,0.0591736l0.8663025,0.0606079
		l0.8661957,0.0621033l0.8662033,0.0636902l0.8662033,0.0653076l0.8661957,0.0671082l0.8663025,0.0688171l0.8662033,0.0707703
		l0.8661957,0.0726013l0.8662033,0.074707l0.8661957,0.0768127l0.8663025,0.0789795l0.8661957,0.0812988l0.8662033,0.0838013
		l0.8662033,0.0863037l0.8661957,0.0888977l0.8663025,0.0917053l0.8661957,0.094696l0.8662033,0.0977173l0.8662033,0.1008911
		l0.8662949,0.1044006l0.8662033,0.1078796l0.8661957,0.1117249l0.8662033,0.1156921l0.8661957,0.119812l0.8663025,0.1242981
		l0.8662033,0.1289978l0.8661957,0.1340027l0.8662033,0.1391907l0.8661957,0.1448059l0.8663025,0.1507874l0.8662033,0.157196
		l0.8661957,0.1639099l0.8662033,0.17099l0.8661957,0.1789246l0.8663025,0.1869812l0.8662033,0.1958923l0.8661957,0.2054138
		l0.8662033,0.2156067l0.8661957,0.226593l0.8663025,0.2384033l0.8662033,0.2514038l0.8661957,0.2652893l0.8662033,0.2803955
		l0.8662949,0.2969055l0.8662033,0.3149109l0.8661957,0.3346863l0.8662033,0.3562012l0.8662033,0.3800964l0.8662949,0.406311
		l0.8662033,0.4354858l0.8661957,0.4678955l0.8662033,0.5040283l0.8662033,0.5444946l0.8662949,0.5900879l0.8662033,0.6416931
		l0.8661957,0.7003174l0.8662033,0.7673035l0.8661957,0.8443909l0.8663025,0.9335022l0.8662033,1.0375977l0.8661957,1.1599121
		l0.8662033,1.3049927l0.8661957,1.4787903l0.8663025,1.6893005l0.8662033,1.9476013l0.8661957,2.2693176l0.8662033,2.6762695
		l0.8661957,3.2015991l0.8663025,3.8951111l0.8662033,4.8363953l0.8661957,6.1570129l0.8662033,8.089386l0.8661957,11.0731201
		l0.6633987,12.270813"/>
	<line class="st4" x1="-9.0034943" y1="464.0178223" x2="-8.9420013" y2="314.9822083"/>
	<path class="st4" d="M-0.7617035,314.9822083l0.1798096,1.3701782l0.8661957,5.3688049l0.8661957,4.4562988l0.8661957,3.762207
		l0.8662109,3.2211914l0.8663025,2.7914124l0.8661957,2.4439087l0.8661957,2.158783l0.8661957,1.9219055l0.8663025,1.7229919
		l0.8662109,1.5540161l0.8661957,1.4093933l0.8661957,1.2846985l0.8661957,1.1760864l0.8663025,1.0811157l0.8662109,0.9975891
		l0.8661957,0.9236145l0.8661957,0.8577881l0.8661957,0.7989197l0.8663025,0.7461853l0.8661957,0.6987l0.8662109,0.6556091
		l0.8661957,0.6164856l0.8661957,0.5811157l0.8663025,0.548584l0.8661957,0.5187988l0.8662109,0.4916077l0.8661957,0.4664001
		l0.8661957,0.4432983l0.8663025,0.4219055l0.8661957,0.4019165l0.8662109,0.3835754l0.8661957,0.3664246l0.8661957,0.3503723
		l0.8663025,0.3354187l0.8661957,0.3215942l0.8662109,0.3084106l0.8661957,0.2962036l0.8661957,0.284668l0.8663025,0.2738037
		l0.8661957,0.2636108l0.8662109,0.2539978l0.8661957,0.2449951l0.8663025,0.2362976l0.8661957,0.2282104l0.8661957,0.2204895
		l0.8662109,0.2132263l0.8661957,0.2062988l0.8663025,0.1996765l0.8661957,0.193512l0.8661957,0.1875l0.8662109,0.1817932
		l0.8661957,0.1763916l0.8663025,0.1712036l0.8661957,0.1662903l0.8661957,0.1616211l0.8662109,0.1571045l0.8661957,0.1528015
		l0.8663025,0.1486816l0.8661957,0.1446228l0.8661957,0.1408691l0.8662109,0.1373291l0.8661957,0.1336975l0.8663025,0.1304016
		l0.8661957,0.1271973l0.8661957,0.1240845l0.8661957,0.1210022l0.8662109,0.1181946l0.8663025,0.115509l0.8661957,0.1127014
		l0.8661957,0.110199l0.8661957,0.1076965l0.8662109,0.1052856l0.8663025,0.1030273l0.8661957,0.1007996l0.8661957,0.0986023
		l0.8661957,0.0964966l0.8663025,0.0943909l0.8662109,0.0925903l0.8661957,0.0906067l0.8661957,0.0888062l0.8661957,0.0870056
		l0.8663025,0.0853882l0.8662109,0.0835876l0.8661957,0.0820313l0.8661957,0.0804749l0.8661957,0.0789185l0.8663025,0.0774841
		l0.8661957,0.0760193l0.8662109,0.0746765l0.8661957,0.0733032l0.8661957,0.0718994l0.8663025,0.0707092l0.8661957,0.0694885
		l0.8662109,0.0682068l0.8661957,0.0671082l0.8663025,0.0658875l0.8661957,0.0648193l0.8661957,0.0637817l0.8662109,0.0625916
		l0.8661957,0.0617065l0.8663025,0.0606079l0.8661957,0.0596924l0.8661957,0.0587158l0.8662109,0.0576782l0.8661957,0.0569153
		l0.8663025,0.0559998l0.8661957,0.0551147l0.8661957,0.0542908l0.8662109,0.0534973l0.8661957,0.0526123l0.8663025,0.0518799
		l0.8661957,0.0511169l0.8661957,0.0503845l0.8662109,0.0496216l0.8661957,0.0488892l0.8663025,0.0481873l0.8661957,0.0476074
		l0.8661957,0.0467834l0.8662109,0.0462036l0.8661957,0.0455933l0.8663025,0.0450134l0.8661957,0.0443115l0.8661957,0.0437012
		l0.8662109,0.0431824l0.8661957,0.0426025l0.8663025,0.0419922l0.8661957,0.0415039l0.8661957,0.0408936l0.8662109,0.0404053
		l0.8662872,0.039917l0.8662109,0.0393066l0.8661957,0.0388794l0.8661957,0.0383911l0.8661957,0.0379028l0.8663025,0.0374146
		l0.8662109,0.0369873l0.8661957,0.0366211l0.8662109,0.0361023l0.8663025,0.0355835l0.8661804,0.0352173l0.8662109,0.0348816
		l0.8661804,0.0344238l0.8662109,0.0339966l0.8662109,0.0335693l0.8663025,0.0332031l0.8661804,0.0328064l0.8662109,0.0325012
		l0.8662109,0.0321045l0.866272,0.0317078l0.8662109,0.0314026l0.8662109,0.0310059l0.8661804,0.0307007l0.8662109,0.0303955
		l0.8662109,0.0299988l0.8663025,0.0296936l0.8661804,0.0293884l0.8662109,0.0291138l0.8662109,0.0286865l0.866272,0.0285034
		l0.8662109,0.0281067l0.8662109,0.0278931l0.8661804,0.0275879l0.8662109,0.0272217l0.8662109,0.0270996l0.8663025,0.0267029
		l0.8661804,0.0263977l0.8662109,0.0261841l0.8662109,0.026001l0.866272,0.0256958l0.8662109,0.0254211l0.8662109,0.0250854
		l0.8661804,0.0249939l0.8662109,0.0247192l0.8663025,0.0244141l0.8662109,0.0241699l0.8661804,0.0240173l0.8662109,0.0237122
		l0.8661804,0.0234985l0.8663025,0.0232849l0.8662109,0.0231018l0.8662109,0.0228882l0.8661804,0.0227051l0.8663025,0.0223999
		l0.8662109,0.0222168l0.8662109,0.0220947l0.8661804,0.0217896l0.8662109,0.021698l0.8661804,0.0213928l0.8663025,0.0213013
		L164,374.7172852"/>
	<path class="st5" d="M34.5,360.5192871c2.0250015,0,3.6666985,1.6417236,3.6666985,3.6667175l0,0
		c0,2.0249939-1.6416969,3.666687-3.6666985,3.666687s-3.6667004-1.6416931-3.6667004-3.666687
		S32.4749985,360.5192871,34.5,360.5192871z M34.5,359.8526917c-2.3931999,0-4.3332996,1.940094-4.3332996,4.333313
		c0,2.3931885,1.9400997,4.3332825,4.3332996,4.3332825s4.3333015-1.940094,4.3333015-4.3332825l0,0
		C38.8333015,361.7927856,36.8931999,359.8526917,34.5,359.8526917z"/>
</g>
<g transform="translate(178.0007,45)">
	<g class="st2">
		<path d="M-137.400116,306v-0.7197266l0.9208984-0.8935547c2.2138672-2.1074219,3.2138672-3.2275391,3.2265625-4.5351563
			c0-0.8798828-0.4267578-1.6933594-1.7197266-1.6933594c-0.7871094,0-1.4404297,0.4003906-1.8408203,0.7333984
			l-0.3730469-0.8261719c0.5996094-0.5068359,1.453125-0.8808594,2.4541016-0.8808594
			c1.8662109,0,2.6533203,1.2802734,2.6533203,2.5205078c0,1.6005859-1.1601563,2.8945313-2.9873047,4.6542969L-135.759491,305
			v0.0263672h3.8945313V306H-137.400116z"/>
		<path d="M-130.4665222,305.3066406c0-0.4931641,0.3330078-0.8398438,0.7998047-0.8398438s0.7871094,0.3466797,0.7871094,0.8398438
			c0,0.4804688-0.3066406,0.8398438-0.7998047,0.8398438C-130.1462097,306.1464844-130.4665222,305.7871094-130.4665222,305.3066406
			z"/>
		<path d="M-122.1725769,297.3310547v0.7744141L-125.9460144,306h-1.2138672l3.7607422-7.6679688v-0.0273438h-4.2412109v-0.9736328
			H-122.1725769z"/>
		<path d="M-118.4128113,298.4248047h-0.0273438l-1.5068359,0.8134766l-0.2265625-0.8935547l1.8935547-1.0136719h1V306h-1.1328125
			V298.4248047z"/>
		<path d="M-114.2272644,303.7998047c0-1.09375,0.6533203-1.8671875,1.7207031-2.3203125l-0.0136719-0.0400391
			c-0.9599609-0.4541016-1.3740234-1.2011719-1.3740234-1.9472656c0-1.3740234,1.1611328-2.3076172,2.6806641-2.3076172
			c1.6806641,0,2.5205078,1.0537109,2.5205078,2.1337891c0,0.7333984-0.359375,1.5205078-1.4267578,2.0273438v0.0400391
			c1.0800781,0.4267578,1.7470703,1.1865234,1.7470703,2.2402344c0,1.5068359-1.2939453,2.5205078-2.9472656,2.5205078
			C-113.1335144,306.1464844-114.2272644,305.0664063-114.2272644,303.7998047z M-109.5592957,303.7460938
			c0-1.0537109-0.7333984-1.5605469-1.9072266-1.8935547c-1.0136719,0.2929688-1.5605469,0.9599609-1.5605469,1.7871094
			c-0.0400391,0.8798828,0.6269531,1.6533203,1.7333984,1.6533203
			C-110.2399597,305.2929688-109.5592957,304.6396484-109.5592957,303.7460938z M-112.7868347,299.4121094
			c0,0.8662109,0.6533203,1.3330078,1.6533203,1.6005859c0.7470703-0.2539063,1.3203125-0.7871094,1.3203125-1.5742188
			c0-0.6933594-0.4130859-1.4130859-1.4667969-1.4130859C-112.2536316,298.0253906-112.7868347,298.6650391-112.7868347,299.4121094
			z"/>
		<path d="M-107.2809753,306v-0.7197266l0.9208984-0.8935547c2.2138672-2.1074219,3.2138672-3.2275391,3.2265625-4.5351563
			c0-0.8798828-0.4267578-1.6933594-1.7197266-1.6933594c-0.7871094,0-1.4404297,0.4003906-1.8408203,0.7333984
			l-0.3730469-0.8261719c0.5996094-0.5068359,1.453125-0.8808594,2.4541016-0.8808594
			c1.8662109,0,2.6533203,1.2802734,2.6533203,2.5205078c0,1.6005859-1.1601563,2.8945313-2.9873047,4.6542969L-105.6403503,305
			v0.0263672h3.8945313V306H-107.2809753z"/>
		<path d="M-100.3483582,305.3066406c0-0.4931641,0.3339844-0.8398438,0.8007813-0.8398438s0.7861328,0.3466797,0.7861328,0.8398438
			c0,0.4804688-0.3066406,0.8398438-0.7998047,0.8398438C-100.0280457,306.1464844-100.3483582,305.7871094-100.3483582,305.3066406
			z"/>
		<path d="M-97.587616,305.3066406c0-0.4931641,0.3330078-0.8398438,0.7998047-0.8398438s0.7871094,0.3466797,0.7871094,0.8398438
			c0,0.4804688-0.3066406,0.8398438-0.7998047,0.8398438C-97.2673035,306.1464844-97.587616,305.7871094-97.587616,305.3066406z"/>
		<path d="M-94.8278503,305.3066406c0-0.4931641,0.3330078-0.8398438,0.7998047-0.8398438s0.7871094,0.3466797,0.7871094,0.8398438
			c0,0.4804688-0.3066406,0.8398438-0.7998047,0.8398438C-94.5075378,306.1464844-94.8278503,305.7871094-94.8278503,305.3066406z"
			/>
	</g>
</g>
</svg>
