<?xml version="1.0" encoding="utf-8"?>
<!-- Generator: Adobe Illustrator 19.0.0, SVG Export Plug-In . SVG Version: 6.00 Build 0)  -->
<svg version="1.1" id="图层_1" xmlns="http://www.w3.org/2000/svg" xmlns:xlink="http://www.w3.org/1999/xlink" x="0px" y="0px"
	 viewBox="0 0 146.5 135.5" style="enable-background:new 0 0 146.5 135.5;" xml:space="preserve">
<style type="text/css">
	.st0{fill-opacity:0;stroke:#000000;}
	.st1{stroke:#000000;}
	.st2{fill:url(#SVGID_1_);}
	.st3{fill-opacity:0;stroke:#000000;stroke-linecap:round;stroke-linejoin:round;}
	.st4{fill:url(#SVGID_2_);}
</style>
<g>
	<path class="st0" d="M4.8168316,91.7108002V8.5289183"/>
	<path class="st1" d="M6.8829064,8.5289183L4.8168316,3.0184073L2.75,8.5289183H6.8829064z"/>
</g>
<g>
	<g>
		<path class="st0" d="M4.8168316,91.6255569l117.7423248,39.4150162"/>
		<path class="st1" d="M121.9033661,133l5.8807297-0.2098846l-4.5691147-3.7092743L121.9033661,133z"/>
	</g>
	<g>
		<path class="st0" d="M4.8168316,91.6255569l132.9542694-30.4922104"/>
		<path class="st1" d="M138.2324219,63.1478691l4.9094849-3.2458076l-5.8324127-0.781971L138.2324219,63.1478691z"/>
	</g>
</g>
<g>
	<path class="st0" d="M27.2009811,57.3605423V26.2100544"/>
	<path class="st1" d="M27.2009811,26.2100544l2.1649952,1.4431839l-2.1649952-5.7717876l-2.1643963,5.7717876L27.2009811,26.2100544
		z"/>
</g>
<g>
	
		<radialGradient id="SVGID_1_" cx="-241.3039246" cy="-230.2256012" r="40.5388565" gradientTransform="matrix(0.828 -0.56 -0.56 -0.828 160.2595062 -246.4904938)" gradientUnits="userSpaceOnUse">
		<stop  offset="0" style="stop-color:#FFFFFF"/>
		<stop  offset="1" style="stop-color:#987FFF"/>
	</radialGradient>
	<path class="st2" d="M63.5852928,101.4365311c3.3948936-2.6860046,6.5497856-6.4814682,10.1885643-5.4963608
		c2.486908,0.6724319,4.415863,1.8080139,6.2842331,3.12117c2.2295914,1.5679779,5.6760712,1.9126358,9.5878525,0.3431473
		c15.6332474-6.2709579,9.0902328-16.6377335,17.3963165-26.0514145
		c5.7145615-6.4750061,21.833107-12.8090553,14.3600769-18.9518471
		c-6.6125641-5.435257-50.3923492,15.6041908-59.1020279,22.5257072c-4.8618088,3.8628387-6.7435341,9.3973618-7.9772797,13.6230392
		c-1.3508492,4.6300659-0.2185135,17.3006134,9.5216827,10.7105255"/>
	<path class="st3" d="M63.5852928,101.4365311c3.3948936-2.6860046,6.5497856-6.4814682,10.1885643-5.4963608
		c2.486908,0.6724319,4.415863,1.8080139,6.2842331,3.12117c2.2295914,1.5679779,5.6760712,1.9126358,9.5878525,0.3431473
		c15.6332474-6.2709579,9.0902328-16.6377335,17.3963165-26.0514145
		c5.7145615-6.4750061,21.833107-12.8090553,14.3600769-18.9518471
		c-6.6125641-5.435257-50.3923492,15.6041908-59.1020279,22.5257072c-4.8618088,3.8628387-6.7435341,9.3973618-7.9772797,13.6230392
		c-1.3508492,4.6300659-0.2185135,17.3006134,9.5216827,10.7105255"/>
</g>
<g>
	<path class="st0" d="M88.2656937,99.8876495l2.8192749-1.4762726"/>
	<path class="st1" d="M91.0849686,98.411377l-0.2748337,2.5866165l4.1108856-4.5937271l-6.1186218,0.7582703L91.0849686,98.411377z"
		/>
</g>
<g>
	
		<linearGradient id="SVGID_2_" gradientUnits="userSpaceOnUse" x1="-256.8771973" y1="-216.098053" x2="-245.9746857" y2="-216.098053" gradientTransform="matrix(0.838 -0.546 -0.546 -0.838 160.079895 -237.6405029)">
		<stop  offset="0" style="stop-color:#8E43BC"/>
		<stop  offset="0.637" style="stop-color:#B381D2"/>
	</linearGradient>
	<path class="st4" d="M61.5883255,81.8351898c0,0,3.1359558-2.8152695,4.1250305-3.4830704
		c0.9872513-0.669342,4.9627457-2.5441589,4.9627457-2.5441589l2.3190308,4.7150192c0,0-3.1519623,1.4288406-4.1664352,2.0538788
		c-1.500885,0.925705-3.9584198,3.2421188-3.9584198,3.2421188L61.5883255,81.8351898z"/>
	<path class="st0" d="M61.5883255,81.8351898c0,0,3.1359558-2.8152695,4.1250305-3.4830704
		c0.9872513-0.669342,4.9627457-2.5441589,4.9627457-2.5441589l2.3190308,4.7150192c0,0-3.1519623,1.4288406-4.1664352,2.0538788
		c-1.500885,0.925705-3.9584198,3.2421188-3.9584198,3.2421188L61.5883255,81.8351898z"/>
</g>
<g>
	<path class="st0" d="M66.9663544,79.7905121L60.736618,68.7077942"/>
	<path class="st1" d="M60.736618,68.7077942l2.1613083,0.1638641l-3.9294586-3.3092117l0.7849045,5.0770798L60.736618,68.7077942z"
		/>
</g>
<g>
	<g>
		<path d="M38.7890625,39.8808594c0.7617188,0.1738281,1.296875,0.3857422,1.6044922,0.6337891
			c0.4414063,0.3525391,0.6630859,0.8105469,0.6630859,1.3720703c0,0.59375-0.2431641,1.0839844-0.7285156,1.4716797
			C39.7324219,43.828125,38.8662109,44.0625,37.7299805,44.0625h-4.078125v-0.2148438
			c0.3710938,0,0.6225586-0.0341797,0.7548828-0.1025391c0.1318359-0.0673828,0.2246094-0.1552734,0.2783203-0.2646484
			c0.0532227-0.1083984,0.0795898-0.3759766,0.0795898-0.8027344v-5.1181641c0-0.4267578-0.0263672-0.6953125-0.0795898-0.8056641
			c-0.0537109-0.1103516-0.1474609-0.1992188-0.28125-0.2646484c-0.1342773-0.0664063-0.3847656-0.0986328-0.7519531-0.0986328
			v-0.2158203h3.847168c0.9199219,0,1.5703125,0.0810547,1.953125,0.2412109
			c0.3828125,0.1611328,0.6845703,0.4013672,0.90625,0.7216797c0.2207031,0.3193359,0.3310547,0.6601563,0.3310547,1.0205078
			c0,0.3798828-0.1396484,0.71875-0.4199219,1.015625C39.9892578,39.4697266,39.4960938,39.7060547,38.7890625,39.8808594z
			 M36.6352539,40.1767578v2.5302734l-0.0058594,0.2910156c0,0.2089844,0.0541992,0.3671875,0.1625977,0.4736328
			c0.1083984,0.1074219,0.269043,0.1601563,0.4824219,0.1601563c0.3154297,0,0.6064453-0.0683594,0.8730469-0.2060547
			s0.4707031-0.3378906,0.6123047-0.5996094c0.1425781-0.2617188,0.2128906-0.5527344,0.2128906-0.875
			c0-0.3681641-0.0869141-0.6992188-0.2597656-0.9921875c-0.1738281-0.2919922-0.4130859-0.4970703-0.7158203-0.6132813
			C37.6923828,40.2294922,37.2387695,40.1728516,36.6352539,40.1767578z M36.6352539,39.7226563
			c0.5600586,0,0.9736328-0.0615234,1.2397461-0.1855469c0.2666016-0.1240234,0.4707031-0.2988281,0.6123047-0.5234375
			c0.1425781-0.2246094,0.2138672-0.5117188,0.2138672-0.8613281c0-0.3486328-0.0703125-0.6347656-0.2109375-0.8574219
			c-0.1396484-0.2236328-0.3398438-0.3925781-0.6005859-0.5087891c-0.2602539-0.1171875-0.6787109-0.1728516-1.2543945-0.1689453
			V39.7226563z"/>
	</g>
</g>
<g>
	<g>
		<path d="M55.0214844,60.53125C54.7592773,60.8046875,54.503418,61,54.253418,61.1191406
			c-0.2504883,0.1191406-0.5200195,0.1787109-0.809082,0.1787109c-0.5864258,0-1.0981445-0.2451172-1.5361328-0.734375
			c-0.4375-0.4892578-0.6567383-1.1191406-0.6567383-1.8867188c0-0.7685547,0.2426758-1.4716797,0.7270508-2.1103516
			c0.4848633-0.6376953,1.1079102-0.9560547,1.8701172-0.9560547c0.4731445,0,0.8637695,0.1494141,1.1728516,0.4501953v-0.9892578
			c0-0.6123047-0.0146484-0.9882813-0.0444336-1.1289063c-0.0292969-0.140625-0.0751953-0.2363281-0.1376953-0.2871094
			c-0.0625-0.0498047-0.140625-0.0751953-0.234375-0.0751953c-0.1015625,0-0.2363281,0.03125-0.4042969,0.0927734
			L54.1245117,53.46875l1.6000977-0.6552734h0.2641602v6.1962891c0,0.6279297,0.0146484,1.0117188,0.0439453,1.1494141
			c0.0292969,0.1386719,0.0761719,0.2353516,0.140625,0.2900391s0.1396484,0.0820313,0.2255859,0.0820313
			c0.1054688,0,0.2460938-0.0332031,0.4228516-0.0996094l0.0634766,0.2050781l-1.5942383,0.6611328h-0.2695313V60.53125z
			 M55.0214844,60.1210938V57.359375c-0.0234375-0.2646484-0.0942383-0.5068359-0.2114258-0.7255859
			c-0.1171875-0.2177734-0.2724609-0.3828125-0.4658203-0.4941406s-0.3823242-0.1669922-0.565918-0.1669922
			c-0.34375,0-0.6508789,0.1542969-0.9204102,0.4619141c-0.3554688,0.40625-0.5332031,0.9990234-0.5332031,1.7792969
			c0,0.7880859,0.171875,1.3916016,0.515625,1.8115234c0.34375,0.4189453,0.7270508,0.6289063,1.1489258,0.6289063
			C54.3452148,60.6542969,54.6889648,60.4765625,55.0214844,60.1210938z"/>
	</g>
	<g>
		<path d="M60.7299805,55.5107422l0.0878906,1.8662109h-0.1992188c-0.2382813-0.5537109-0.4853516-0.9326172-0.7412109-1.1347656
			c-0.2568359-0.203125-0.5117188-0.3046875-0.765625-0.3046875c-0.1601563,0-0.296875,0.0537109-0.4101563,0.1611328
			s-0.1699219,0.2314453-0.1699219,0.3710938c0,0.1054688,0.0390625,0.2070313,0.1171875,0.3046875
			c0.125,0.1601563,0.4746094,0.4345703,1.0498047,0.8222656c0.5742188,0.3886719,0.9521484,0.7177734,1.1337891,0.9892578
			c0.1816406,0.2705078,0.2724609,0.5742188,0.2724609,0.9091797c0,0.3046875-0.0761719,0.6025391-0.2285156,0.8955078
			s-0.3671875,0.5166016-0.6445313,0.6728516s-0.5849609,0.234375-0.9208984,0.234375
			c-0.2617188,0-0.6113281-0.0820313-1.0488281-0.2460938c-0.1171875-0.0429688-0.1972656-0.0644531-0.2402344-0.0644531
			c-0.1289063,0-0.2373047,0.0976563-0.3232422,0.2929688h-0.1933594l-0.09375-1.9658203h0.1992188
			c0.1767578,0.5146484,0.4179688,0.9003906,0.7246094,1.1582031s0.5966797,0.3857422,0.8701172,0.3857422
			c0.1875,0,0.3408203-0.0566406,0.4609375-0.171875c0.1191406-0.1152344,0.1787109-0.2548828,0.1787109-0.4189453
			c0-0.1865234-0.0585938-0.3486328-0.1757813-0.4853516c-0.1181641-0.1367188-0.3798828-0.34375-0.7861328-0.6201172
			c-0.5976563-0.4140625-0.984375-0.7294922-1.1611328-0.9482422c-0.2578125-0.3193359-0.3867188-0.6728516-0.3867188-1.0585938
			c0-0.421875,0.1455078-0.8027344,0.4365234-1.1445313c0.2919922-0.3408203,0.7128906-0.5117188,1.2636719-0.5117188
			c0.296875,0,0.5839844,0.0722656,0.8623047,0.2158203c0.1054688,0.0585938,0.1914063,0.0878906,0.2578125,0.0878906
			c0.0703125,0,0.1269531-0.0146484,0.1699219-0.0439453s0.1113281-0.1113281,0.2050781-0.2480469H60.7299805z"/>
	</g>
</g>
<g>
	<g>
		<path d="M106.6435547,100.7832031l-0.0644531,0.2148438h-3.2587891l0.0820313-0.2148438
			c0.3271484-0.0078125,0.5429688-0.0351563,0.6484375-0.0820313c0.1708984-0.0654297,0.2978516-0.1572266,0.3789063-0.2734375
			c0.1289063-0.1816406,0.2617188-0.5078125,0.3974609-0.9765625l1.3779297-4.7578125
			c0.1171875-0.3955078,0.1757813-0.6943359,0.1757813-0.8964844c0-0.1005859-0.0253906-0.1855469-0.0761719-0.2558594
			c-0.0507813-0.0693359-0.1269531-0.1230469-0.2304688-0.1591797c-0.1035156-0.0371094-0.3046875-0.0556641-0.6044922-0.0556641
			l0.0693359-0.2148438h3.0605469l-0.0634766,0.2148438c-0.25-0.0039063-0.4345703,0.0234375-0.5556641,0.0810547
			c-0.1748047,0.078125-0.3085938,0.1884766-0.3994141,0.3320313c-0.0917969,0.1435547-0.2099609,0.4619141-0.3535156,0.9541016
			l-1.3720703,4.7578125c-0.125,0.4375-0.1875,0.7167969-0.1875,0.8369141c0,0.0976563,0.0244141,0.1796875,0.0732422,0.2470703
			c0.0488281,0.0683594,0.1259766,0.1210938,0.2333984,0.1572266
			C106.0820313,100.7294922,106.3046875,100.7597656,106.6435547,100.7832031z"/>
	</g>
</g>
<g>
</g>
<g>
</g>
<g>
</g>
<g>
</g>
<g>
</g>
</svg>
