<?xml version="1.0" encoding="UTF-8"?>
<svg xmlns="http://www.w3.org/2000/svg" xmlns:xlink="http://www.w3.org/1999/xlink" width="373.02pt" height="459pt" viewBox="0 0 373.02 459" version="1.1">
<g id="surface1">
<path style="fill:none;stroke-width:0.402;stroke-linecap:round;stroke-linejoin:miter;stroke:rgb(0%,0%,0%);stroke-opacity:1;stroke-miterlimit:10;" d="M 1.875675 7.996072 L 8.909558 7.996075 " transform="matrix(2.657338,0.00000138755,-0.000000056643,-2.65967,9.964917,56.950499)"/>
<path style="fill:none;stroke-width:0.402;stroke-linecap:round;stroke-linejoin:miter;stroke:rgb(0%,0%,0%);stroke-opacity:1;stroke-miterlimit:10;" d="M 5.391882 11.513604 L 5.391881 4.478543 " transform="matrix(2.657338,0.00000138755,-0.000000056643,-2.65967,9.964917,56.950499)"/>
<path style=" stroke:none;fill-rule:evenodd;fill:rgb(0%,0%,0%);fill-opacity:1;" d="M 52.222656 31.925781 C 52.554688 31.9375 52.777344 32.039062 52.894531 32.238281 C 52.957031 32.363281 52.992188 32.488281 53 32.617188 C 53 32.707031 52.988281 32.792969 52.960938 32.878906 C 52.898438 33.097656 52.769531 33.296875 52.574219 33.472656 C 52.375 33.652344 52.132812 33.742188 51.847656 33.738281 L 48.769531 33.738281 C 49.128906 34.246094 49.351562 34.902344 49.441406 35.710938 C 49.460938 35.972656 49.46875 36.21875 49.46875 36.441406 C 49.46875 37.027344 49.398438 37.621094 49.253906 38.230469 C 49.039062 38.996094 48.714844 39.726562 48.28125 40.421875 C 47.84375 41.121094 47.304688 41.753906 46.660156 42.328125 C 46.015625 42.851562 45.324219 43.261719 44.585938 43.5625 C 43.847656 43.863281 43.101562 44.011719 42.351562 44.011719 C 41.617188 44.011719 40.949219 43.859375 40.347656 43.554688 C 39.75 43.25 39.269531 42.828125 38.910156 42.289062 C 38.527344 41.722656 38.296875 41.078125 38.226562 40.355469 C 38.191406 40.160156 38.171875 39.957031 38.171875 39.757812 C 38.171875 39.253906 38.246094 38.726562 38.386719 38.179688 C 38.601562 37.378906 38.933594 36.605469 39.375 35.855469 C 39.816406 35.109375 40.386719 34.417969 41.074219 33.792969 C 41.691406 33.253906 42.375 32.808594 43.128906 32.457031 C 43.878906 32.101562 44.636719 31.925781 45.398438 31.925781 Z M 47.171875 38.179688 C 47.332031 37.5625 47.429688 36.964844 47.46875 36.390625 L 47.46875 36.207031 C 47.46875 35.710938 47.363281 35.269531 47.160156 34.875 C 46.972656 34.503906 46.6875 34.21875 46.308594 34.027344 C 45.925781 33.835938 45.488281 33.742188 44.996094 33.738281 C 44.503906 33.742188 44.011719 33.839844 43.523438 34.035156 C 43.039062 34.230469 42.597656 34.519531 42.199219 34.902344 C 41.734375 35.355469 41.371094 35.871094 41.109375 36.449219 C 40.84375 37.027344 40.636719 37.621094 40.484375 38.230469 C 40.324219 38.890625 40.21875 39.53125 40.171875 40.148438 C 40.15625 40.253906 40.148438 40.34375 40.148438 40.421875 C 40.148438 40.917969 40.246094 41.375 40.441406 41.792969 C 40.640625 42.195312 40.914062 42.519531 41.261719 42.773438 C 41.609375 43.027344 42.027344 43.152344 42.511719 43.148438 C 43.015625 43.152344 43.511719 43.023438 44.003906 42.765625 C 44.496094 42.511719 44.953125 42.171875 45.371094 41.753906 C 45.855469 41.25 46.238281 40.691406 46.515625 40.078125 C 46.789062 39.464844 47.011719 38.832031 47.171875 38.179688 Z M 47.171875 38.179688 "/>
<path style=" stroke:none;fill-rule:evenodd;fill:rgb(0%,0%,0%);fill-opacity:1;" d="M 60.496094 42.414062 C 60.496094 43.117188 60.441406 43.816406 60.328125 44.511719 C 60.21875 45.203125 59.949219 45.855469 59.519531 46.464844 C 59.207031 46.910156 58.796875 47.25 58.277344 47.488281 C 57.761719 47.726562 57.203125 47.847656 56.59375 47.847656 C 56.011719 47.847656 55.457031 47.726562 54.941406 47.488281 C 54.417969 47.25 54.003906 46.910156 53.695312 46.464844 C 53.261719 45.855469 52.992188 45.203125 52.882812 44.511719 C 52.773438 43.816406 52.71875 43.117188 52.71875 42.414062 C 52.71875 41.703125 52.773438 40.996094 52.882812 40.285156 C 52.992188 39.578125 53.261719 38.914062 53.695312 38.292969 C 54.003906 37.847656 54.417969 37.496094 54.933594 37.25 C 55.453125 37 56.007812 36.875 56.59375 36.875 C 57.195312 36.875 57.757812 37 58.273438 37.25 C 58.792969 37.496094 59.207031 37.847656 59.519531 38.292969 C 59.949219 38.914062 60.21875 39.578125 60.328125 40.285156 C 60.441406 40.996094 60.496094 41.703125 60.496094 42.414062 Z M 58.828125 42.160156 C 58.828125 41.851562 58.824219 41.53125 58.816406 41.1875 C 58.8125 40.847656 58.796875 40.515625 58.773438 40.1875 C 58.753906 39.859375 58.714844 39.550781 58.65625 39.261719 C 58.59375 38.972656 58.523438 38.726562 58.441406 38.519531 C 58.269531 38.191406 58.027344 37.917969 57.699219 37.707031 C 57.371094 37.492188 57.003906 37.386719 56.59375 37.386719 C 56.195312 37.386719 55.835938 37.496094 55.511719 37.710938 C 55.191406 37.925781 54.941406 38.195312 54.777344 38.519531 C 54.691406 38.726562 54.617188 38.972656 54.558594 39.261719 C 54.5 39.550781 54.460938 39.859375 54.4375 40.1875 C 54.414062 40.515625 54.402344 40.847656 54.394531 41.1875 C 54.390625 41.53125 54.386719 41.851562 54.386719 42.160156 C 54.386719 42.5 54.390625 42.859375 54.394531 43.238281 C 54.402344 43.617188 54.414062 43.980469 54.4375 44.335938 C 54.460938 44.6875 54.5 45.023438 54.558594 45.339844 C 54.617188 45.65625 54.691406 45.921875 54.777344 46.136719 C 54.933594 46.492188 55.175781 46.785156 55.503906 47.015625 C 55.832031 47.242188 56.195312 47.355469 56.59375 47.355469 C 57.011719 47.355469 57.382812 47.242188 57.710938 47.015625 C 58.039062 46.785156 58.285156 46.492188 58.441406 46.136719 C 58.523438 45.921875 58.59375 45.65625 58.65625 45.339844 C 58.714844 45.023438 58.753906 44.6875 58.773438 44.335938 C 58.796875 43.980469 58.8125 43.617188 58.816406 43.238281 C 58.824219 42.859375 58.828125 42.5 58.828125 42.160156 Z M 58.828125 42.160156 "/>
<path style="fill:none;stroke-width:0.402;stroke-linecap:round;stroke-linejoin:miter;stroke:rgb(0%,0%,0%);stroke-opacity:1;stroke-miterlimit:10;" d="M 1.87463 7.996551 L 6.23618 7.996553 " transform="matrix(2.657276,0.00000159216,-0.00000181619,-2.65967,312.463918,59.25646)"/>
<path style=" stroke:none;fill-rule:evenodd;fill:rgb(0%,0%,0%);fill-opacity:1;" d="M 347.617188 34.230469 C 347.949219 34.242188 348.171875 34.347656 348.285156 34.546875 C 348.351562 34.667969 348.386719 34.792969 348.394531 34.921875 C 348.394531 35.011719 348.382812 35.097656 348.355469 35.183594 C 348.292969 35.402344 348.164062 35.601562 347.964844 35.78125 C 347.769531 35.957031 347.527344 36.046875 347.238281 36.046875 L 344.164062 36.046875 C 344.523438 36.550781 344.746094 37.207031 344.835938 38.015625 C 344.851562 38.277344 344.863281 38.523438 344.863281 38.746094 C 344.863281 39.332031 344.792969 39.925781 344.648438 40.535156 C 344.433594 41.300781 344.109375 42.035156 343.671875 42.730469 C 343.242188 43.425781 342.699219 44.0625 342.054688 44.632812 C 341.414062 45.15625 340.71875 45.566406 339.984375 45.867188 C 339.242188 46.167969 338.496094 46.316406 337.746094 46.316406 C 337.011719 46.316406 336.34375 46.167969 335.742188 45.863281 C 335.144531 45.558594 334.664062 45.136719 334.304688 44.59375 C 333.921875 44.03125 333.691406 43.386719 333.621094 42.664062 C 333.585938 42.464844 333.566406 42.261719 333.566406 42.0625 C 333.566406 41.558594 333.640625 41.03125 333.78125 40.484375 C 333.996094 39.683594 334.328125 38.910156 334.769531 38.160156 C 335.214844 37.414062 335.78125 36.726562 336.46875 36.097656 C 337.085938 35.558594 337.773438 35.113281 338.523438 34.761719 C 339.277344 34.410156 340.03125 34.234375 340.792969 34.230469 Z M 342.566406 40.484375 C 342.726562 39.867188 342.824219 39.269531 342.859375 38.695312 L 342.859375 38.511719 C 342.859375 38.019531 342.757812 37.574219 342.550781 37.183594 C 342.367188 36.808594 342.082031 36.527344 341.699219 36.335938 C 341.320312 36.144531 340.882812 36.046875 340.390625 36.046875 C 339.898438 36.046875 339.410156 36.144531 338.917969 36.339844 C 338.433594 36.535156 337.992188 36.824219 337.597656 37.207031 C 337.132812 37.660156 336.765625 38.175781 336.503906 38.753906 C 336.238281 39.335938 336.03125 39.925781 335.878906 40.535156 C 335.714844 41.199219 335.613281 41.835938 335.570312 42.453125 C 335.550781 42.558594 335.542969 42.652344 335.542969 42.726562 C 335.542969 43.226562 335.640625 43.683594 335.835938 44.097656 C 336.035156 44.5 336.308594 44.828125 336.65625 45.078125 C 337.007812 45.332031 337.421875 45.457031 337.90625 45.457031 C 338.40625 45.457031 338.90625 45.328125 339.398438 45.070312 C 339.890625 44.816406 340.347656 44.476562 340.765625 44.058594 C 341.25 43.554688 341.628906 42.996094 341.910156 42.382812 C 342.183594 41.769531 342.40625 41.136719 342.566406 40.484375 Z M 342.566406 40.484375 "/>
<path style=" stroke:none;fill-rule:evenodd;fill:rgb(0%,0%,0%);fill-opacity:1;" d="M 355.890625 44.722656 C 355.890625 45.425781 355.832031 46.121094 355.722656 46.816406 C 355.617188 47.511719 355.34375 48.164062 354.910156 48.769531 C 354.601562 49.214844 354.191406 49.554688 353.671875 49.792969 C 353.15625 50.03125 352.597656 50.152344 351.988281 50.152344 C 351.402344 50.152344 350.855469 50.03125 350.332031 49.792969 C 349.816406 49.554688 349.398438 49.214844 349.09375 48.769531 C 348.660156 48.164062 348.386719 47.511719 348.277344 46.816406 C 348.167969 46.121094 348.113281 45.425781 348.113281 44.722656 C 348.113281 44.011719 348.167969 43.300781 348.277344 42.589844 C 348.386719 41.882812 348.660156 41.21875 349.09375 40.601562 C 349.398438 40.152344 349.8125 39.804688 350.332031 39.554688 C 350.84375 39.304688 351.398438 39.183594 351.988281 39.183594 C 352.589844 39.183594 353.148438 39.304688 353.671875 39.554688 C 354.1875 39.804688 354.601562 40.152344 354.910156 40.601562 C 355.34375 41.21875 355.617188 41.882812 355.722656 42.589844 C 355.832031 43.300781 355.890625 44.011719 355.890625 44.722656 Z M 354.21875 44.464844 C 354.21875 44.160156 354.21875 43.835938 354.210938 43.496094 C 354.207031 43.152344 354.195312 42.820312 354.167969 42.492188 C 354.148438 42.167969 354.109375 41.859375 354.046875 41.570312 C 353.988281 41.277344 353.917969 41.03125 353.832031 40.828125 C 353.664062 40.496094 353.417969 40.222656 353.089844 40.011719 C 352.765625 39.800781 352.398438 39.695312 351.988281 39.691406 C 351.589844 39.695312 351.230469 39.800781 350.90625 40.015625 C 350.582031 40.230469 350.339844 40.5 350.167969 40.828125 C 350.085938 41.03125 350.015625 41.277344 349.957031 41.570312 C 349.894531 41.859375 349.855469 42.167969 349.832031 42.492188 C 349.808594 42.820312 349.796875 43.152344 349.789062 43.496094 C 349.785156 43.835938 349.78125 44.160156 349.78125 44.464844 C 349.78125 44.808594 349.785156 45.167969 349.789062 45.542969 C 349.796875 45.921875 349.808594 46.289062 349.832031 46.640625 C 349.855469 46.996094 349.894531 47.328125 349.957031 47.644531 C 350.015625 47.964844 350.085938 48.226562 350.167969 48.441406 C 350.328125 48.796875 350.570312 49.089844 350.898438 49.320312 C 351.226562 49.550781 351.589844 49.664062 351.988281 49.664062 C 352.40625 49.664062 352.777344 49.550781 353.105469 49.320312 C 353.433594 49.089844 353.675781 48.796875 353.832031 48.441406 C 353.917969 48.226562 353.988281 47.964844 354.046875 47.644531 C 354.109375 47.328125 354.148438 46.996094 354.167969 46.640625 C 354.195312 46.289062 354.207031 45.921875 354.210938 45.542969 C 354.21875 45.167969 354.21875 44.808594 354.21875 44.464844 Z M 354.21875 44.464844 "/>
<path style="fill:none;stroke-width:15;stroke-linecap:round;stroke-linejoin:round;stroke:rgb(0%,0%,0%);stroke-opacity:1;stroke-miterlimit:10;" d="M 526.730752 444.552238 L 2304.226539 444.552238 L 2304.226539 3006.723806 L 526.730752 3006.723806 Z M 526.730752 444.552238 " transform="matrix(0.132866,0,0,-0.132985,0,463.2477)"/>
<path style="fill:none;stroke-width:0.402;stroke-linecap:round;stroke-linejoin:round;stroke:rgb(0%,0%,0%);stroke-opacity:1;stroke-miterlimit:10;" d="M 1.875176 7.878576 L 6.236703 7.878579 " transform="matrix(2.65729,0.00000163638,-0.000000454349,-2.65967,72.017118,56.950499)"/>
<path style=" stroke:none;fill-rule:evenodd;fill:rgb(0%,0%,0%);fill-opacity:1;" d="M 107.171875 32.238281 C 107.503906 32.25 107.726562 32.351562 107.839844 32.550781 C 107.902344 32.675781 107.941406 32.800781 107.949219 32.929688 C 107.949219 33.019531 107.9375 33.105469 107.910156 33.191406 C 107.84375 33.410156 107.71875 33.609375 107.519531 33.785156 C 107.320312 33.964844 107.078125 34.054688 106.792969 34.050781 L 103.71875 34.050781 C 104.078125 34.558594 104.300781 35.214844 104.390625 36.023438 C 104.40625 36.285156 104.417969 36.53125 104.417969 36.753906 C 104.417969 37.339844 104.347656 37.933594 104.203125 38.542969 C 103.988281 39.308594 103.664062 40.039062 103.226562 40.734375 C 102.792969 41.433594 102.253906 42.066406 101.609375 42.640625 C 100.964844 43.164062 100.273438 43.574219 99.535156 43.875 C 98.796875 44.175781 98.050781 44.324219 97.296875 44.324219 C 96.5625 44.324219 95.898438 44.171875 95.296875 43.867188 C 94.695312 43.5625 94.21875 43.140625 93.859375 42.601562 C 93.472656 42.035156 93.246094 41.390625 93.175781 40.667969 C 93.140625 40.46875 93.121094 40.269531 93.121094 40.070312 C 93.121094 39.566406 93.191406 39.039062 93.335938 38.492188 C 93.550781 37.691406 93.878906 36.917969 94.324219 36.167969 C 94.765625 35.417969 95.332031 34.730469 96.023438 34.105469 C 96.640625 33.566406 97.324219 33.121094 98.078125 32.769531 C 98.828125 32.414062 99.585938 32.238281 100.347656 32.238281 Z M 102.117188 38.492188 C 102.28125 37.875 102.378906 37.277344 102.414062 36.703125 L 102.414062 36.519531 C 102.414062 36.023438 102.3125 35.582031 102.105469 35.1875 C 101.917969 34.816406 101.636719 34.53125 101.253906 34.339844 C 100.871094 34.148438 100.4375 34.054688 99.945312 34.050781 C 99.449219 34.054688 98.960938 34.152344 98.472656 34.347656 C 97.984375 34.542969 97.542969 34.832031 97.148438 35.214844 C 96.683594 35.667969 96.320312 36.183594 96.054688 36.761719 C 95.792969 37.339844 95.582031 37.933594 95.429688 38.542969 C 95.269531 39.203125 95.167969 39.84375 95.121094 40.460938 C 95.105469 40.566406 95.09375 40.65625 95.09375 40.734375 C 95.09375 41.230469 95.195312 41.6875 95.390625 42.105469 C 95.585938 42.507812 95.863281 42.832031 96.210938 43.085938 C 96.558594 43.339844 96.976562 43.464844 97.460938 43.460938 C 97.960938 43.464844 98.457031 43.335938 98.953125 43.078125 C 99.441406 42.824219 99.898438 42.484375 100.320312 42.066406 C 100.804688 41.5625 101.183594 41.003906 101.460938 40.390625 C 101.738281 39.777344 101.960938 39.144531 102.117188 38.492188 Z M 102.117188 38.492188 "/>
<path style=" stroke:none;fill-rule:evenodd;fill:rgb(0%,0%,0%);fill-opacity:1;" d="M 112.753906 31.25 C 112.691406 31.410156 112.582031 31.488281 112.429688 31.488281 L 112.332031 31.488281 L 112.257812 31.457031 C 112.109375 31.421875 112.023438 31.328125 112.007812 31.175781 L 112.007812 31.101562 L 113.222656 24.367188 C 113.28125 24.046875 113.449219 23.804688 113.734375 23.644531 C 114.019531 23.480469 114.304688 23.394531 114.59375 23.394531 C 114.910156 23.394531 115.160156 23.484375 115.351562 23.65625 C 115.472656 23.761719 115.53125 23.902344 115.53125 24.074219 C 115.53125 24.203125 115.5 24.347656 115.425781 24.511719 Z M 112.753906 31.25 "/>
<path style="fill:none;stroke-width:0.402;stroke-linecap:round;stroke-linejoin:round;stroke:rgb(0%,0%,0%);stroke-opacity:1;stroke-miterlimit:10;" d="M 1.875221 7.879055 L 8.910684 7.879058 " transform="matrix(2.657297,0.00000142098,-0.00000181619,-2.65967,255.806058,59.25646)"/>
<path style="fill:none;stroke-width:0.402;stroke-linecap:round;stroke-linejoin:round;stroke:rgb(0%,0%,0%);stroke-opacity:1;stroke-miterlimit:10;" d="M 5.392955 11.396587 L 5.39295 4.361526 " transform="matrix(2.657297,0.00000142098,-0.00000181619,-2.65967,255.806058,59.25646)"/>
<path style=" stroke:none;fill-rule:evenodd;fill:rgb(0%,0%,0%);fill-opacity:1;" d="M 298.0625 34.542969 C 298.394531 34.554688 298.617188 34.660156 298.734375 34.859375 C 298.796875 34.980469 298.832031 35.105469 298.839844 35.234375 C 298.839844 35.324219 298.828125 35.410156 298.800781 35.496094 C 298.738281 35.714844 298.609375 35.914062 298.414062 36.09375 C 298.214844 36.269531 297.976562 36.359375 297.6875 36.359375 L 294.609375 36.359375 C 294.96875 36.863281 295.191406 37.519531 295.28125 38.328125 C 295.300781 38.589844 295.308594 38.835938 295.308594 39.058594 C 295.308594 39.644531 295.238281 40.238281 295.09375 40.847656 C 294.878906 41.613281 294.554688 42.347656 294.121094 43.042969 C 293.6875 43.738281 293.144531 44.375 292.5 44.945312 C 291.859375 45.46875 291.167969 45.878906 290.429688 46.179688 C 289.6875 46.480469 288.941406 46.628906 288.191406 46.628906 C 287.457031 46.628906 286.789062 46.480469 286.191406 46.175781 C 285.589844 45.871094 285.109375 45.449219 284.753906 44.90625 C 284.367188 44.34375 284.136719 43.699219 284.066406 42.976562 C 284.03125 42.777344 284.011719 42.574219 284.011719 42.375 C 284.011719 41.871094 284.085938 41.34375 284.226562 40.796875 C 284.445312 39.996094 284.773438 39.222656 285.21875 38.472656 C 285.65625 37.726562 286.226562 37.039062 286.914062 36.410156 C 287.53125 35.871094 288.21875 35.425781 288.96875 35.074219 C 289.722656 34.722656 290.476562 34.546875 291.238281 34.542969 Z M 293.011719 40.796875 C 293.171875 40.179688 293.269531 39.582031 293.308594 39.007812 L 293.308594 38.824219 C 293.308594 38.332031 293.203125 37.886719 293 37.492188 C 292.8125 37.121094 292.527344 36.839844 292.148438 36.648438 C 291.765625 36.457031 291.328125 36.359375 290.835938 36.359375 C 290.34375 36.359375 289.855469 36.457031 289.363281 36.652344 C 288.878906 36.847656 288.4375 37.136719 288.042969 37.519531 C 287.578125 37.972656 287.210938 38.488281 286.949219 39.066406 C 286.683594 39.648438 286.476562 40.238281 286.324219 40.847656 C 286.164062 41.511719 286.058594 42.148438 286.015625 42.765625 C 286 42.871094 285.988281 42.964844 285.988281 43.039062 C 285.988281 43.539062 286.085938 43.996094 286.28125 44.410156 C 286.480469 44.8125 286.753906 45.140625 287.105469 45.390625 C 287.453125 45.644531 287.867188 45.769531 288.351562 45.769531 C 288.855469 45.769531 289.351562 45.640625 289.84375 45.382812 C 290.335938 45.128906 290.792969 44.789062 291.210938 44.371094 C 291.695312 43.867188 292.078125 43.308594 292.355469 42.695312 C 292.632812 42.082031 292.851562 41.449219 293.011719 40.796875 Z M 293.011719 40.796875 "/>
<path style=" stroke:none;fill-rule:evenodd;fill:rgb(0%,0%,0%);fill-opacity:1;" d="M 303.644531 33.554688 C 303.582031 33.714844 303.472656 33.796875 303.320312 33.792969 L 303.226562 33.792969 L 303.152344 33.761719 C 303 33.730469 302.914062 33.636719 302.898438 33.480469 L 302.898438 33.40625 L 304.117188 26.671875 C 304.171875 26.355469 304.339844 26.113281 304.625 25.949219 C 304.910156 25.785156 305.195312 25.703125 305.488281 25.703125 C 305.800781 25.703125 306.054688 25.789062 306.246094 25.960938 C 306.367188 26.070312 306.425781 26.207031 306.425781 26.378906 C 306.425781 26.507812 306.390625 26.652344 306.316406 26.820312 Z M 303.644531 33.554688 "/>
<path style=" stroke:none;fill-rule:nonzero;fill:rgb(0%,0%,94.099426%);fill-opacity:1;" d="M 52.925781 96.148438 L 309.4375 96.148438 L 309.4375 98.140625 L 52.925781 98.140625 C 52.375 98.140625 51.929688 97.695312 51.929688 97.144531 C 51.929688 96.59375 52.375 96.148438 52.925781 96.148438 Z M 325.363281 97.144531 L 305.433594 91.160156 L 309.421875 96.148438 L 309.421875 98.140625 L 305.433594 103.128906 Z M 325.363281 97.144531 "/>
<path style=" stroke:none;fill-rule:nonzero;fill:rgb(0%,0%,94.099426%);fill-opacity:1;" d="M 51.847656 200.417969 L 308.359375 200.417969 L 308.359375 202.414062 L 51.847656 202.414062 C 51.300781 202.414062 50.851562 201.964844 50.851562 201.417969 C 50.851562 200.867188 51.300781 200.417969 51.847656 200.417969 Z M 324.289062 201.417969 L 304.359375 195.433594 L 308.34375 200.417969 L 308.34375 202.414062 L 304.359375 207.402344 Z M 324.289062 201.417969 "/>
<path style=" stroke:none;fill-rule:nonzero;fill:rgb(0%,0%,94.099426%);fill-opacity:1;" d="M 52.925781 305.699219 L 309.4375 305.699219 L 309.4375 307.695312 L 52.925781 307.695312 C 52.375 307.695312 51.929688 307.246094 51.929688 306.695312 C 51.929688 306.144531 52.375 305.699219 52.925781 305.699219 Z M 325.363281 306.695312 L 305.433594 300.710938 L 309.421875 305.699219 L 309.421875 307.695312 L 305.433594 312.679688 Z M 325.363281 306.695312 "/>
<path style="fill:none;stroke-width:0.402;stroke-linecap:round;stroke-linejoin:round;stroke:rgb(0%,0%,0%);stroke-opacity:1;stroke-miterlimit:10;" d="M 1.875378 7.878641 L 8.909452 7.878648 " transform="matrix(2.657266,0.00000267581,-0.00000182973,-2.659683,276.817417,169.587492)"/>
<path style="fill:none;stroke-width:0.402;stroke-linecap:round;stroke-linejoin:round;stroke:rgb(0%,0%,0%);stroke-opacity:1;stroke-miterlimit:10;" d="M 5.393152 11.396158 L 5.393148 4.361131 " transform="matrix(2.657266,0.00000267581,-0.00000182973,-2.659683,276.817417,169.587492)"/>
<path style="fill:none;stroke-width:0.402;stroke-linecap:round;stroke-linejoin:round;stroke:rgb(0%,0%,0%);stroke-opacity:1;stroke-miterlimit:10;" d="M 1.875378 7.879181 L 8.909452 7.879184 " transform="matrix(2.657266,0.00000133791,-0.00000182973,-2.659683,276.817417,275.233461)"/>
<path style="fill:none;stroke-width:0.402;stroke-linecap:round;stroke-linejoin:round;stroke:rgb(0%,0%,0%);stroke-opacity:1;stroke-miterlimit:10;" d="M 5.393152 11.396696 L 5.393148 4.361669 " transform="matrix(2.657266,0.00000133791,-0.00000182973,-2.659683,276.817417,275.233461)"/>
<path style="fill:none;stroke-width:0.402;stroke-linecap:round;stroke-linejoin:round;stroke:rgb(0%,0%,0%);stroke-opacity:1;stroke-miterlimit:10;" d="M 1.875378 7.878476 L 8.909452 7.878476 " transform="matrix(2.657266,0,-0.00000182973,-2.659683,276.817417,386.458153)"/>
<path style="fill:none;stroke-width:0.402;stroke-linecap:round;stroke-linejoin:round;stroke:rgb(0%,0%,0%);stroke-opacity:1;stroke-miterlimit:10;" d="M 5.393152 11.395989 L 5.393148 4.360963 " transform="matrix(2.657266,0,-0.00000182973,-2.659683,276.817417,386.458153)"/>
<path style="fill:none;stroke-width:0.402;stroke-linecap:round;stroke-linejoin:round;stroke:rgb(0%,0%,0%);stroke-opacity:1;stroke-miterlimit:10;" d="M 1.874412 7.878446 L 8.909956 7.878453 " transform="matrix(2.657266,0.00000267581,-0.000000457735,-2.659683,70.362942,169.188537)"/>
<path style="fill:none;stroke-width:0.402;stroke-linecap:round;stroke-linejoin:round;stroke:rgb(0%,0%,0%);stroke-opacity:1;stroke-miterlimit:10;" d="M 1.874412 7.879181 L 8.909956 7.879184 " transform="matrix(2.657266,0.00000133791,-0.000000457735,-2.659683,70.362942,275.233461)"/>
<path style="fill:none;stroke-width:0.402;stroke-linecap:round;stroke-linejoin:round;stroke:rgb(0%,0%,0%);stroke-opacity:1;stroke-miterlimit:10;" d="M 1.874412 7.878476 L 8.909956 7.878476 " transform="matrix(2.657266,0,-0.000000457735,-2.659683,70.362942,386.458153)"/>
<path style="fill-rule:evenodd;fill:rgb(50.19989%,25.099182%,25.099182%);fill-opacity:0.39216;stroke-width:15;stroke-linecap:round;stroke-linejoin:round;stroke:rgb(0%,0%,0%);stroke-opacity:1;stroke-miterlimit:10;" d="M 2448.815836 444.552238 L 2632.154358 444.552238 L 2632.154358 3006.723806 L 2448.815836 3006.723806 Z M 2448.815836 444.552238 " transform="matrix(0.132866,0,0,-0.132985,0,463.2477)"/>
<path style="fill:none;stroke-width:0.402;stroke-linecap:round;stroke-linejoin:round;stroke:rgb(0%,0%,0%);stroke-opacity:1;stroke-miterlimit:10;" d="M 1.875229 7.87833 L 8.909303 7.878337 " transform="matrix(2.657266,0.00000267581,-0.00000182973,-2.659683,322.216249,117.102289)"/>
<path style="fill:none;stroke-width:0.402;stroke-linecap:round;stroke-linejoin:round;stroke:rgb(0%,0%,0%);stroke-opacity:1;stroke-miterlimit:10;" d="M 1.875229 7.878446 L 8.909303 7.878453 " transform="matrix(2.657266,0.00000267581,-0.00000182973,-2.659683,322.216249,169.188537)"/>
<path style="fill:none;stroke-width:0.402;stroke-linecap:round;stroke-linejoin:round;stroke:rgb(0%,0%,0%);stroke-opacity:1;stroke-miterlimit:10;" d="M 1.875229 7.879345 L 8.909303 7.879349 " transform="matrix(2.657266,0.00000133791,-0.00000182973,-2.659683,322.216249,221.374523)"/>
<path style="fill:none;stroke-width:0.402;stroke-linecap:round;stroke-linejoin:round;stroke:rgb(0%,0%,0%);stroke-opacity:1;stroke-miterlimit:10;" d="M 1.875229 7.879181 L 8.909303 7.879184 " transform="matrix(2.657266,0.00000133791,-0.00000182973,-2.659683,322.216249,275.233461)"/>
<path style="fill:none;stroke-width:0.402;stroke-linecap:round;stroke-linejoin:round;stroke:rgb(0%,0%,0%);stroke-opacity:1;stroke-miterlimit:10;" d="M 1.875229 7.878973 L 8.909303 7.878977 " transform="matrix(2.657266,0.00000133791,-0.00000182973,-2.659683,322.216249,326.654784)"/>
<path style="fill:none;stroke-width:0.402;stroke-linecap:round;stroke-linejoin:round;stroke:rgb(0%,0%,0%);stroke-opacity:1;stroke-miterlimit:10;" d="M 1.875229 7.878476 L 8.909303 7.878476 " transform="matrix(2.657266,0,-0.00000182973,-2.659683,322.216249,386.458153)"/>
<path style="fill-rule:evenodd;fill:rgb(50.19989%,25.099182%,25.099182%);fill-opacity:0.39216;stroke-width:15;stroke-linecap:round;stroke-linejoin:round;stroke:rgb(0%,0%,0%);stroke-opacity:1;stroke-miterlimit:10;" d="M 198.832333 444.552238 L 382.141455 444.552238 L 382.141455 3006.723806 L 198.832333 3006.723806 Z M 198.832333 444.552238 " transform="matrix(0.132866,0,0,-0.132985,0,463.2477)"/>
<path style="fill:none;stroke-width:0.402;stroke-linecap:round;stroke-linejoin:round;stroke:rgb(0%,0%,0%);stroke-opacity:1;stroke-miterlimit:10;" d="M 1.875549 7.87833 L 8.909623 7.878337 " transform="matrix(2.657266,0.00000267581,-0.00000011413,-2.659683,23.270074,117.102289)"/>
<path style="fill:none;stroke-width:0.402;stroke-linecap:round;stroke-linejoin:round;stroke:rgb(0%,0%,0%);stroke-opacity:1;stroke-miterlimit:10;" d="M 5.391851 11.395846 L 5.391851 4.36082 " transform="matrix(2.657266,0.00000267581,-0.00000011413,-2.659683,23.270074,117.102289)"/>
<path style="fill:none;stroke-width:0.402;stroke-linecap:round;stroke-linejoin:round;stroke:rgb(0%,0%,0%);stroke-opacity:1;stroke-miterlimit:10;" d="M 1.875549 7.878446 L 8.909623 7.878453 " transform="matrix(2.657266,0.00000267581,-0.00000011413,-2.659683,23.270074,169.188537)"/>
<path style="fill:none;stroke-width:0.402;stroke-linecap:round;stroke-linejoin:round;stroke:rgb(0%,0%,0%);stroke-opacity:1;stroke-miterlimit:10;" d="M 5.391851 11.395963 L 5.391851 4.360937 " transform="matrix(2.657266,0.00000267581,-0.00000011413,-2.659683,23.270074,169.188537)"/>
<path style="fill:none;stroke-width:0.402;stroke-linecap:round;stroke-linejoin:round;stroke:rgb(0%,0%,0%);stroke-opacity:1;stroke-miterlimit:10;" d="M 1.875549 7.879345 L 8.909623 7.879349 " transform="matrix(2.657266,0.00000133791,-0.00000011413,-2.659683,23.270074,221.374523)"/>
<path style="fill:none;stroke-width:0.402;stroke-linecap:round;stroke-linejoin:round;stroke:rgb(0%,0%,0%);stroke-opacity:1;stroke-miterlimit:10;" d="M 5.391851 11.395391 L 5.391851 4.361834 " transform="matrix(2.657266,0.00000133791,-0.00000011413,-2.659683,23.270074,221.374523)"/>
<path style="fill:none;stroke-width:0.402;stroke-linecap:round;stroke-linejoin:round;stroke:rgb(0%,0%,0%);stroke-opacity:1;stroke-miterlimit:10;" d="M 1.875549 7.879181 L 8.909623 7.879184 " transform="matrix(2.657266,0.00000133791,-0.00000011413,-2.659683,23.270074,275.233461)"/>
<path style="fill:none;stroke-width:0.402;stroke-linecap:round;stroke-linejoin:round;stroke:rgb(0%,0%,0%);stroke-opacity:1;stroke-miterlimit:10;" d="M 5.391851 11.396696 L 5.391851 4.361669 " transform="matrix(2.657266,0.00000133791,-0.00000011413,-2.659683,23.270074,275.233461)"/>
<path style="fill:none;stroke-width:0.402;stroke-linecap:round;stroke-linejoin:round;stroke:rgb(0%,0%,0%);stroke-opacity:1;stroke-miterlimit:10;" d="M 1.875549 7.878973 L 8.909623 7.878977 " transform="matrix(2.657266,0.00000133791,-0.00000011413,-2.659683,23.270074,326.654784)"/>
<path style="fill:none;stroke-width:0.402;stroke-linecap:round;stroke-linejoin:round;stroke:rgb(0%,0%,0%);stroke-opacity:1;stroke-miterlimit:10;" d="M 5.391851 11.396488 L 5.391851 4.361462 " transform="matrix(2.657266,0.00000133791,-0.00000011413,-2.659683,23.270074,326.654784)"/>
<path style="fill:none;stroke-width:0.402;stroke-linecap:round;stroke-linejoin:round;stroke:rgb(0%,0%,0%);stroke-opacity:1;stroke-miterlimit:10;" d="M 1.875549 7.878476 L 8.909623 7.878476 " transform="matrix(2.657266,0,-0.00000011413,-2.659683,23.270074,386.458153)"/>
<path style="fill:none;stroke-width:0.402;stroke-linecap:round;stroke-linejoin:round;stroke:rgb(0%,0%,0%);stroke-opacity:1;stroke-miterlimit:10;" d="M 5.391851 11.395989 L 5.391851 4.360963 " transform="matrix(2.657266,0,-0.00000011413,-2.659683,23.270074,386.458153)"/>
<path style=" stroke:none;fill-rule:nonzero;fill:rgb(0%,0%,0%);fill-opacity:1;" d="M 275.613281 150.625 L 259.667969 150.625 L 259.667969 148.632812 L 275.613281 148.632812 C 276.164062 148.632812 276.609375 149.078125 276.609375 149.628906 C 276.609375 150.179688 276.164062 150.625 275.613281 150.625 Z M 251.695312 150.625 L 235.753906 150.625 L 235.753906 148.632812 L 251.695312 148.632812 Z M 227.78125 150.625 L 211.835938 150.625 L 211.835938 148.632812 L 227.78125 148.632812 Z M 203.863281 150.625 L 187.921875 150.625 L 187.921875 148.632812 L 203.863281 148.632812 Z M 179.949219 150.625 L 164.003906 150.625 L 164.003906 148.632812 L 179.949219 148.632812 Z M 156.035156 150.625 L 140.089844 150.625 L 140.089844 148.632812 L 156.035156 148.632812 Z M 132.117188 150.625 L 116.453125 150.625 L 116.453125 148.632812 L 132.117188 148.632812 Z M 100.527344 149.628906 L 120.457031 155.613281 L 116.46875 150.625 L 116.46875 148.632812 L 120.457031 143.644531 Z M 100.527344 149.628906 "/>
<path style=" stroke:none;fill-rule:nonzero;fill:rgb(0%,0%,0%);fill-opacity:1;" d="M 276.6875 256.074219 L 260.742188 256.074219 L 260.742188 254.078125 L 276.6875 254.078125 C 277.238281 254.078125 277.683594 254.523438 277.683594 255.074219 C 277.683594 255.625 277.238281 256.074219 276.6875 256.074219 Z M 252.769531 256.074219 L 236.828125 256.074219 L 236.828125 254.078125 L 252.769531 254.078125 Z M 228.855469 256.074219 L 212.910156 256.074219 L 212.910156 254.078125 L 228.855469 254.078125 Z M 204.941406 256.074219 L 188.996094 256.074219 L 188.996094 254.078125 L 204.941406 254.078125 Z M 181.023438 256.074219 L 165.082031 256.074219 L 165.082031 254.078125 L 181.023438 254.078125 Z M 157.109375 256.074219 L 141.164062 256.074219 L 141.164062 254.078125 L 157.109375 254.078125 Z M 133.191406 256.074219 L 117.527344 256.074219 L 117.527344 254.078125 L 133.191406 254.078125 Z M 101.601562 255.074219 L 121.53125 261.058594 L 117.542969 256.074219 L 117.542969 254.078125 L 121.53125 249.089844 Z M 101.601562 255.074219 "/>
<path style=" stroke:none;fill-rule:nonzero;fill:rgb(0%,0%,0%);fill-opacity:1;" d="M 276.6875 367.300781 L 260.742188 367.300781 L 260.742188 365.304688 L 276.6875 365.304688 C 277.238281 365.304688 277.683594 365.75 277.683594 366.300781 C 277.683594 366.851562 277.238281 367.300781 276.6875 367.300781 Z M 252.769531 367.300781 L 236.828125 367.300781 L 236.828125 365.304688 L 252.769531 365.304688 Z M 228.855469 367.300781 L 212.910156 367.300781 L 212.910156 365.304688 L 228.855469 365.304688 Z M 204.941406 367.300781 L 188.996094 367.300781 L 188.996094 365.304688 L 204.941406 365.304688 Z M 181.023438 367.300781 L 165.082031 367.300781 L 165.082031 365.304688 L 181.023438 365.304688 Z M 157.109375 367.300781 L 141.164062 367.300781 L 141.164062 365.304688 L 157.109375 365.304688 Z M 133.191406 367.300781 L 117.25 367.300781 L 117.25 365.304688 L 133.191406 365.304688 Z M 100.527344 366.300781 L 120.457031 372.285156 L 116.46875 367.300781 L 116.46875 365.304688 L 120.457031 360.316406 Z M 100.527344 366.300781 "/>
<path style=" stroke:none;fill-rule:evenodd;fill:rgb(0%,0%,0%);fill-opacity:1;" d="M 46.382812 437.835938 C 46.285156 438.097656 46.117188 438.226562 45.875 438.226562 C 44.980469 438.175781 44.085938 438.148438 43.203125 438.148438 L 42.757812 438.148438 C 41.710938 438.164062 40.660156 438.191406 39.601562 438.226562 C 39.359375 438.226562 39.230469 438.113281 39.210938 437.886719 L 39.210938 437.78125 L 39.265625 437.5625 C 39.339844 437.273438 39.511719 437.136719 39.789062 437.144531 C 40.121094 437.144531 40.417969 437.132812 40.675781 437.109375 C 40.9375 437.089844 41.1875 437.011719 41.429688 436.882812 C 41.519531 436.839844 41.59375 436.777344 41.65625 436.699219 C 41.691406 436.628906 41.714844 436.5625 41.722656 436.492188 L 41.722656 436.410156 L 41.402344 432.078125 L 35.332031 432.078125 L 33.195312 435.734375 C 33.078125 435.941406 33.019531 436.136719 33.019531 436.308594 C 33.019531 436.457031 33.066406 436.589844 33.15625 436.710938 C 33.351562 437 33.71875 437.144531 34.253906 437.144531 C 34.496094 437.144531 34.628906 437.25 34.644531 437.457031 C 34.644531 437.507812 34.636719 437.566406 34.617188 437.625 L 34.566406 437.835938 C 34.464844 438.097656 34.292969 438.226562 34.042969 438.226562 C 33.21875 438.191406 32.402344 438.164062 31.597656 438.148438 L 31.234375 438.148438 C 30.535156 438.148438 29.828125 438.175781 29.113281 438.226562 C 28.976562 438.226562 28.878906 438.183594 28.816406 438.097656 C 28.761719 438.042969 28.734375 437.984375 28.734375 437.914062 C 28.734375 437.863281 28.746094 437.808594 28.761719 437.757812 L 28.816406 437.5625 C 28.886719 437.273438 29.0625 437.136719 29.339844 437.144531 C 29.628906 437.144531 29.910156 437.113281 30.1875 437.050781 C 30.464844 436.992188 30.722656 436.882812 30.964844 436.726562 C 31.207031 436.570312 31.433594 436.378906 31.636719 436.160156 C 31.84375 435.9375 32.027344 435.6875 32.1875 435.40625 L 41.671875 419.15625 C 41.832031 418.914062 42.039062 418.796875 42.289062 418.804688 L 42.542969 418.804688 C 42.832031 418.804688 42.992188 418.941406 43.027344 419.210938 L 44.207031 436.214844 C 44.226562 436.441406 44.253906 436.617188 44.289062 436.734375 C 44.324219 436.851562 44.386719 436.933594 44.476562 436.984375 C 44.601562 437.066406 44.8125 437.109375 45.101562 437.125 C 45.394531 437.136719 45.722656 437.144531 46.089844 437.144531 C 46.339844 437.144531 46.464844 437.25 46.464844 437.457031 C 46.464844 437.507812 46.457031 437.566406 46.4375 437.625 Z M 40.757812 422.824219 L 35.976562 431.023438 L 41.320312 431.023438 Z M 40.757812 422.824219 "/>
<path style=" stroke:none;fill-rule:evenodd;fill:rgb(0%,0%,0%);fill-opacity:1;" d="M 345.753906 424.378906 C 345.601562 425.003906 345.296875 425.59375 344.84375 426.140625 C 344.394531 426.691406 343.871094 427.15625 343.28125 427.535156 C 342.816406 427.851562 342.339844 428.097656 341.851562 428.28125 C 341.363281 428.464844 341.191406 428.542969 341.332031 428.515625 C 341.308594 428.507812 341.542969 428.621094 342.039062 428.847656 C 342.535156 429.082031 342.972656 429.394531 343.347656 429.796875 C 343.769531 430.222656 344.054688 430.734375 344.207031 431.335938 C 344.28125 431.632812 344.320312 431.921875 344.328125 432.210938 C 344.328125 432.539062 344.28125 432.886719 344.179688 433.242188 C 344.011719 433.910156 343.699219 434.550781 343.242188 435.160156 C 342.785156 435.769531 342.238281 436.300781 341.601562 436.75 C 340.929688 437.238281 340.214844 437.605469 339.460938 437.855469 C 338.703125 438.101562 337.949219 438.226562 337.195312 438.226562 L 327.578125 438.226562 C 327.445312 438.226562 327.347656 438.1875 327.285156 438.109375 C 327.222656 438.046875 327.191406 437.984375 327.191406 437.914062 C 327.191406 437.863281 327.199219 437.808594 327.21875 437.757812 L 327.269531 437.5625 C 327.324219 437.273438 327.5 437.136719 327.792969 437.144531 C 328.214844 437.144531 328.609375 437.136719 328.976562 437.125 C 329.34375 437.109375 329.621094 437.066406 329.808594 436.984375 C 329.96875 436.898438 330.097656 436.664062 330.1875 436.28125 L 333.960938 421.570312 C 334.011719 421.378906 334.039062 421.234375 334.039062 421.128906 C 334.039062 421.023438 334.019531 420.960938 333.972656 420.945312 C 333.847656 420.871094 333.605469 420.820312 333.242188 420.804688 C 332.878906 420.789062 332.480469 420.777344 332.050781 420.777344 C 331.917969 420.777344 331.820312 420.734375 331.757812 420.644531 C 331.703125 420.59375 331.675781 420.527344 331.675781 420.449219 C 331.675781 420.398438 331.691406 420.351562 331.714844 420.304688 L 331.757812 420.113281 C 331.785156 419.988281 331.847656 419.890625 331.953125 419.816406 C 332.054688 419.746094 332.164062 419.707031 332.28125 419.703125 L 341.183594 419.703125 C 341.921875 419.707031 342.613281 419.816406 343.265625 420.03125 C 343.921875 420.25 344.460938 420.59375 344.890625 421.0625 C 345.3125 421.492188 345.609375 421.988281 345.777344 422.550781 C 345.851562 422.839844 345.886719 423.128906 345.886719 423.425781 C 345.886719 423.738281 345.839844 424.054688 345.753906 424.378906 Z M 343.039062 424.328125 C 343.128906 423.980469 343.171875 423.628906 343.171875 423.28125 L 343.171875 422.96875 C 343.136719 422.554688 343.011719 422.164062 342.796875 421.808594 C 342.609375 421.488281 342.359375 421.234375 342.050781 421.050781 C 341.742188 420.871094 341.382812 420.777344 340.96875 420.777344 L 337.425781 420.777344 C 336.949219 420.777344 336.675781 420.808594 336.605469 420.867188 C 336.496094 420.953125 336.394531 421.207031 336.296875 421.625 L 334.632812 428.175781 L 338.296875 428.175781 C 338.808594 428.175781 339.3125 428.078125 339.816406 427.878906 C 340.316406 427.675781 340.796875 427.394531 341.253906 427.027344 C 342.203125 426.261719 342.796875 425.363281 343.039062 424.328125 Z M 341.386719 433.164062 C 341.511719 432.71875 341.574219 432.28125 341.574219 431.84375 L 341.574219 431.570312 C 341.539062 431.082031 341.410156 430.636719 341.183594 430.226562 C 340.988281 429.871094 340.722656 429.582031 340.386719 429.359375 C 340.050781 429.136719 339.660156 429.027344 339.210938 429.023438 L 334.390625 429.023438 L 332.523438 436.332031 C 332.449219 436.628906 332.414062 436.84375 332.414062 436.972656 C 332.414062 437.042969 332.417969 437.082031 332.429688 437.089844 C 332.445312 437.117188 332.679688 437.136719 333.128906 437.144531 L 336.710938 437.144531 C 337.207031 437.144531 337.703125 437.039062 338.203125 436.824219 C 338.707031 436.609375 339.167969 436.332031 339.585938 435.980469 C 340.054688 435.589844 340.4375 435.152344 340.734375 434.664062 C 341.035156 434.175781 341.253906 433.675781 341.386719 433.164062 Z M 341.386719 433.164062 "/>
<path style=" stroke:none;fill-rule:evenodd;fill:rgb(0%,0%,0%);fill-opacity:1;" d="M 189.460938 424.195312 C 189.300781 424.753906 189.222656 425.242188 189.222656 425.660156 C 189.222656 425.773438 189.230469 425.882812 189.25 425.984375 C 189.292969 426.402344 189.503906 426.613281 189.878906 426.609375 C 190.066406 426.613281 190.242188 426.535156 190.410156 426.378906 C 190.574219 426.21875 190.726562 425.988281 190.867188 425.679688 C 191.003906 425.371094 191.136719 425 191.261719 424.570312 C 191.386719 424.140625 191.519531 423.671875 191.652344 423.164062 C 191.707031 422.941406 191.859375 422.828125 192.109375 422.828125 L 192.417969 422.828125 C 192.652344 422.828125 192.765625 422.921875 192.765625 423.113281 L 192.765625 423.203125 C 192.660156 423.632812 192.539062 424.089844 192.40625 424.574219 C 192.269531 425.0625 192.089844 425.515625 191.867188 425.933594 C 191.644531 426.351562 191.363281 426.710938 191.019531 427.015625 C 190.679688 427.320312 190.253906 427.472656 189.746094 427.472656 C 189.066406 427.472656 188.519531 427.285156 188.113281 426.90625 C 187.707031 426.527344 187.46875 426.140625 187.40625 425.75 C 187.101562 426.097656 186.648438 426.472656 186.042969 426.875 C 185.441406 427.273438 184.800781 427.472656 184.128906 427.472656 C 183.421875 427.472656 182.828125 427.292969 182.351562 426.9375 C 181.871094 426.582031 181.5 426.132812 181.230469 425.59375 C 180.90625 424.949219 180.738281 424.257812 180.71875 423.519531 L 180.71875 423.320312 C 180.71875 422.636719 180.8125 421.949219 181 421.261719 C 181.214844 420.503906 181.515625 419.757812 181.902344 419.015625 C 182.285156 418.277344 182.796875 417.589844 183.433594 416.953125 C 183.953125 416.433594 184.546875 415.992188 185.210938 415.636719 C 185.878906 415.277344 186.558594 415.101562 187.246094 415.101562 C 187.847656 415.101562 188.335938 415.257812 188.710938 415.578125 C 189.085938 415.894531 189.324219 416.160156 189.421875 416.378906 L 190.875 410.765625 C 190.945312 410.480469 190.988281 410.261719 191.007812 410.113281 L 191.007812 410.101562 C 191.007812 410.015625 190.976562 409.949219 190.914062 409.90625 C 190.832031 409.835938 190.644531 409.789062 190.347656 409.761719 C 190.054688 409.734375 189.714844 409.722656 189.328125 409.722656 C 189.078125 409.722656 188.953125 409.605469 188.953125 409.367188 L 188.953125 409.265625 L 189.03125 409.042969 C 189.085938 408.84375 189.246094 408.714844 189.515625 408.652344 L 192.066406 408.445312 L 193.046875 408.367188 L 193.101562 408.367188 C 193.210938 408.367188 193.304688 408.40625 193.382812 408.484375 C 193.414062 408.558594 193.425781 408.636719 193.425781 408.703125 L 193.425781 408.792969 Z M 188.925781 418.402344 C 188.890625 418.246094 188.859375 418.082031 188.832031 417.914062 C 188.804688 417.742188 188.765625 417.578125 188.710938 417.410156 C 188.566406 417.003906 188.363281 416.660156 188.101562 416.386719 C 187.835938 416.113281 187.5 415.976562 187.097656 415.972656 C 186.722656 415.976562 186.351562 416.109375 185.984375 416.378906 C 185.617188 416.648438 185.28125 416.996094 184.976562 417.421875 C 184.546875 418.023438 184.226562 418.648438 184.011719 419.296875 C 183.792969 419.945312 183.597656 420.621094 183.417969 421.324219 C 183.238281 422.023438 183.09375 422.695312 182.976562 423.347656 C 182.902344 423.679688 182.867188 423.992188 182.867188 424.289062 C 182.867188 424.601562 182.902344 424.90625 182.976562 425.203125 C 183.054688 425.609375 183.203125 425.949219 183.410156 426.214844 C 183.621094 426.480469 183.914062 426.613281 184.292969 426.609375 C 184.703125 426.613281 185.117188 426.46875 185.535156 426.179688 C 185.949219 425.894531 186.335938 425.542969 186.695312 425.125 C 186.839844 424.949219 186.976562 424.785156 187.105469 424.621094 C 187.234375 424.460938 187.351562 424.289062 187.449219 424.105469 Z M 188.925781 418.402344 "/>
<path style=" stroke:none;fill-rule:nonzero;fill:rgb(0%,0%,0%);fill-opacity:1;" d="M 72.753906 435.792969 L 304.457031 435.792969 L 304.457031 437.289062 L 72.753906 437.289062 Z M 51.847656 436.542969 L 72.777344 441.03125 L 72.777344 432.054688 Z M 325.363281 436.542969 L 304.4375 432.054688 L 304.4375 441.03125 Z M 325.363281 436.542969 "/>
<path style="fill:none;stroke-width:7.5;stroke-linecap:round;stroke-linejoin:round;stroke:rgb(0%,0%,0%);stroke-opacity:1;stroke-miterlimit:10;" d="M 390.226461 296.65613 L 390.226461 104.993348 " transform="matrix(0.132866,0,0,-0.132985,0,463.2477)"/>
<path style="fill:none;stroke-width:7.5;stroke-linecap:round;stroke-linejoin:round;stroke:rgb(0%,0%,0%);stroke-opacity:1;stroke-miterlimit:10;" d="M 2448.815836 296.65613 L 2448.815836 104.993348 " transform="matrix(0.132866,0,0,-0.132985,0,463.2477)"/>
<path style=" stroke:none;fill-rule:evenodd;fill:rgb(0%,0%,94.099426%);fill-opacity:1;" d="M 189.183594 191.957031 L 173.695312 191.957031 L 173.695312 190.234375 L 176.277344 190.234375 L 176.277344 175.042969 L 173.695312 175.042969 L 173.695312 173.28125 L 188.859375 173.28125 L 189.746094 180.226562 L 187.960938 180.226562 C 187.890625 179.714844 187.828125 179.265625 187.773438 178.882812 C 187.71875 178.5 187.644531 178.128906 187.546875 177.773438 C 187.445312 177.417969 187.320312 177.085938 187.167969 176.785156 C 187.015625 176.484375 186.824219 176.226562 186.589844 176.007812 C 186.125 175.585938 185.574219 175.316406 184.933594 175.207031 C 184.292969 175.101562 183.640625 175.042969 182.976562 175.042969 L 180.667969 175.042969 L 180.667969 181.414062 L 181.058594 181.414062 C 181.425781 181.414062 181.777344 181.382812 182.113281 181.316406 C 182.445312 181.25 182.726562 181.101562 182.945312 180.871094 C 183.164062 180.640625 183.296875 180.308594 183.339844 179.867188 C 183.386719 179.429688 183.40625 178.90625 183.40625 178.308594 L 185.179688 178.308594 L 185.179688 186.269531 L 183.40625 186.269531 C 183.40625 185.675781 183.386719 185.160156 183.339844 184.714844 C 183.296875 184.273438 183.164062 183.933594 182.945312 183.703125 C 182.726562 183.472656 182.445312 183.320312 182.113281 183.246094 C 181.777344 183.175781 181.425781 183.136719 181.058594 183.136719 L 180.667969 183.136719 L 180.667969 190.234375 L 183.207031 190.234375 C 183.90625 190.238281 184.585938 190.15625 185.25 189.996094 C 185.910156 189.835938 186.496094 189.527344 187.007812 189.074219 C 187.257812 188.839844 187.472656 188.546875 187.652344 188.1875 C 187.832031 187.832031 187.992188 187.441406 188.128906 187.011719 C 188.269531 186.585938 188.382812 186.144531 188.472656 185.6875 C 188.5625 185.230469 188.65625 184.726562 188.753906 184.167969 L 190.527344 184.167969 Z M 189.183594 191.957031 "/>
<path style=" stroke:none;fill-rule:evenodd;fill:rgb(0%,0%,94.099426%);fill-opacity:1;" d="M 200.6875 190.558594 C 200.6875 191.261719 200.632812 191.957031 200.523438 192.652344 C 200.414062 193.347656 200.140625 194 199.707031 194.609375 C 199.402344 195.050781 198.984375 195.390625 198.46875 195.632812 C 197.953125 195.871094 197.390625 195.988281 196.785156 195.988281 C 196.203125 195.988281 195.648438 195.871094 195.128906 195.632812 C 194.609375 195.390625 194.195312 195.050781 193.886719 194.609375 C 193.457031 194 193.183594 193.347656 193.074219 192.652344 C 192.964844 191.957031 192.910156 191.261719 192.910156 190.558594 C 192.910156 189.847656 192.964844 189.136719 193.074219 188.429688 C 193.183594 187.71875 193.457031 187.054688 193.886719 186.4375 C 194.195312 185.988281 194.609375 185.640625 195.125 185.390625 C 195.644531 185.144531 196.195312 185.019531 196.785156 185.019531 C 197.386719 185.019531 197.945312 185.144531 198.464844 185.390625 C 198.984375 185.640625 199.402344 185.988281 199.707031 186.4375 C 200.140625 187.054688 200.414062 187.71875 200.523438 188.429688 C 200.632812 189.136719 200.6875 189.847656 200.6875 190.558594 Z M 199.019531 190.304688 C 199.019531 189.996094 199.015625 189.671875 199.011719 189.332031 C 199.003906 188.988281 198.988281 188.65625 198.96875 188.328125 C 198.945312 188.003906 198.902344 187.695312 198.84375 187.40625 C 198.785156 187.117188 198.714844 186.867188 198.628906 186.664062 C 198.460938 186.332031 198.214844 186.058594 197.886719 185.847656 C 197.5625 185.636719 197.195312 185.53125 196.785156 185.53125 C 196.386719 185.53125 196.027344 185.636719 195.703125 185.851562 C 195.378906 186.066406 195.132812 186.335938 194.964844 186.664062 C 194.882812 186.867188 194.808594 187.117188 194.75 187.40625 C 194.691406 187.695312 194.652344 188.003906 194.628906 188.328125 C 194.605469 188.65625 194.59375 188.988281 194.585938 189.332031 C 194.582031 189.671875 194.578125 189.996094 194.578125 190.304688 C 194.578125 190.644531 194.582031 191.003906 194.585938 191.382812 C 194.59375 191.757812 194.605469 192.125 194.628906 192.476562 C 194.652344 192.832031 194.691406 193.164062 194.75 193.484375 C 194.808594 193.800781 194.882812 194.066406 194.964844 194.277344 C 195.125 194.636719 195.367188 194.925781 195.695312 195.15625 C 196.023438 195.386719 196.386719 195.5 196.785156 195.5 C 197.203125 195.5 197.574219 195.386719 197.902344 195.15625 C 198.230469 194.925781 198.472656 194.636719 198.628906 194.277344 C 198.714844 194.066406 198.785156 193.800781 198.84375 193.484375 C 198.902344 193.164062 198.945312 192.832031 198.96875 192.476562 C 198.988281 192.125 199.003906 191.757812 199.011719 191.382812 C 199.015625 191.003906 199.019531 190.644531 199.019531 190.304688 Z M 199.019531 190.304688 "/>
<path style=" stroke:none;fill-rule:evenodd;fill:rgb(0%,0%,0%);fill-opacity:1;" d="M 191.835938 249.921875 L 176.351562 249.921875 L 176.351562 248.199219 L 178.929688 248.199219 L 178.929688 233.007812 L 176.351562 233.007812 L 176.351562 231.246094 L 191.515625 231.246094 L 192.402344 238.1875 L 190.613281 238.1875 C 190.542969 237.675781 190.480469 237.230469 190.425781 236.847656 C 190.375 236.464844 190.296875 236.09375 190.199219 235.734375 C 190.101562 235.378906 189.976562 235.050781 189.824219 234.75 C 189.671875 234.453125 189.476562 234.191406 189.246094 233.972656 C 188.78125 233.546875 188.226562 233.28125 187.585938 233.171875 C 186.945312 233.0625 186.296875 233.007812 185.632812 233.007812 L 183.324219 233.007812 L 183.324219 239.378906 L 183.710938 239.378906 C 184.078125 239.378906 184.429688 239.34375 184.765625 239.28125 C 185.101562 239.214844 185.378906 239.066406 185.597656 238.835938 C 185.820312 238.605469 185.949219 238.269531 185.996094 237.832031 C 186.039062 237.394531 186.0625 236.871094 186.0625 236.269531 L 187.835938 236.269531 L 187.835938 244.230469 L 186.0625 244.230469 C 186.0625 243.640625 186.039062 243.125 185.996094 242.679688 C 185.949219 242.234375 185.820312 241.898438 185.597656 241.667969 C 185.378906 241.4375 185.101562 241.285156 184.765625 241.210938 C 184.429688 241.136719 184.078125 241.101562 183.710938 241.101562 L 183.324219 241.101562 L 183.324219 248.199219 L 185.859375 248.199219 C 186.558594 248.199219 187.242188 248.121094 187.902344 247.960938 C 188.566406 247.796875 189.152344 247.492188 189.660156 247.039062 C 189.914062 246.804688 190.128906 246.507812 190.308594 246.152344 C 190.484375 245.796875 190.644531 245.402344 190.785156 244.976562 C 190.921875 244.550781 191.035156 244.109375 191.125 243.652344 C 191.214844 243.195312 191.308594 242.6875 191.40625 242.132812 L 193.179688 242.132812 Z M 191.835938 249.921875 "/>
<path style=" stroke:none;fill-rule:evenodd;fill:rgb(0%,0%,0%);fill-opacity:1;" d="M 196.644531 237.042969 C 196.582031 237.203125 196.472656 237.285156 196.320312 237.28125 L 196.222656 237.28125 L 196.152344 237.25 C 196 237.21875 195.914062 237.125 195.898438 236.96875 L 195.898438 236.894531 L 197.113281 230.160156 C 197.171875 229.84375 197.339844 229.601562 197.625 229.4375 C 197.910156 229.273438 198.195312 229.191406 198.484375 229.191406 C 198.800781 229.191406 199.050781 229.277344 199.242188 229.449219 C 199.367188 229.558594 199.425781 229.695312 199.425781 229.867188 C 199.425781 229.996094 199.390625 230.144531 199.316406 230.308594 Z M 196.644531 237.042969 "/>
<path style=" stroke:none;fill-rule:nonzero;fill:rgb(100%,50.19989%,25.099182%);fill-opacity:1;" d="M 157.808594 345.050781 L 227.679688 345.050781 L 227.679688 348.042969 L 157.808594 348.042969 C 156.984375 348.042969 156.316406 347.371094 156.316406 346.546875 C 156.316406 345.71875 156.984375 345.050781 157.808594 345.050781 Z M 251.570312 346.546875 L 221.675781 340.5625 L 227.65625 345.050781 L 227.65625 348.042969 L 221.675781 352.53125 Z M 251.570312 346.546875 "/>
<path style=" stroke:none;fill-rule:evenodd;fill:rgb(100%,50.19989%,25.099182%);fill-opacity:1;" d="M 210.761719 336.453125 L 195.273438 336.453125 L 195.273438 334.730469 L 197.851562 334.730469 L 197.851562 319.539062 L 195.273438 319.539062 L 195.273438 317.777344 L 210.4375 317.777344 L 211.324219 324.722656 L 209.539062 324.722656 C 209.46875 324.210938 209.40625 323.761719 209.351562 323.378906 C 209.296875 322.996094 209.222656 322.625 209.121094 322.269531 C 209.023438 321.910156 208.898438 321.585938 208.746094 321.285156 C 208.59375 320.984375 208.402344 320.726562 208.167969 320.503906 C 207.703125 320.078125 207.152344 319.8125 206.511719 319.703125 C 205.871094 319.59375 205.21875 319.542969 204.554688 319.539062 L 202.246094 319.539062 L 202.246094 325.910156 L 202.636719 325.910156 C 203.003906 325.910156 203.351562 325.878906 203.6875 325.8125 C 204.023438 325.746094 204.300781 325.597656 204.523438 325.367188 C 204.742188 325.136719 204.875 324.804688 204.917969 324.363281 C 204.964844 323.925781 204.984375 323.402344 204.984375 322.800781 L 206.757812 322.800781 L 206.757812 330.765625 L 204.984375 330.765625 C 204.984375 330.171875 204.964844 329.65625 204.917969 329.210938 C 204.875 328.769531 204.742188 328.429688 204.523438 328.199219 C 204.300781 327.96875 204.023438 327.816406 203.6875 327.742188 C 203.351562 327.671875 203.003906 327.632812 202.636719 327.632812 L 202.246094 327.632812 L 202.246094 334.730469 L 204.785156 334.730469 C 205.484375 334.734375 206.164062 334.652344 206.824219 334.492188 C 207.488281 334.332031 208.074219 334.023438 208.585938 333.570312 C 208.835938 333.335938 209.050781 333.039062 209.230469 332.683594 C 209.410156 332.328125 209.570312 331.9375 209.707031 331.507812 C 209.84375 331.082031 209.960938 330.640625 210.050781 330.183594 C 210.140625 329.726562 210.234375 329.222656 210.332031 328.664062 L 212.105469 328.664062 Z M 210.761719 336.453125 "/>
</g>
</svg>
