<?xml version="1.0" encoding="utf-8"?>
<!-- Generator: Adobe Illustrator 19.0.0, SVG Export Plug-In . SVG Version: 6.00 Build 0)  -->
<svg version="1.1" id="Layer_1" xmlns="http://www.w3.org/2000/svg" xmlns:xlink="http://www.w3.org/1999/xlink" x="0px" y="0px"
	 viewBox="0 0 589.9799805 438" style="enable-background:new 0 0 589.9799805 438;" xml:space="preserve">
<style type="text/css">
	.st0{clip-path:url(#SVGID_2_);}
	.st1{clip-path:url(#SVGID_4_);}
	
		.st2{clip-path:url(#SVGID_6_);fill:none;stroke:#000000;stroke-width:1.597527;stroke-linecap:round;stroke-linejoin:round;stroke-miterlimit:10;}
	.st3{clip-path:url(#SVGID_6_);}
	.st4{clip-path:url(#SVGID_8_);fill-rule:evenodd;clip-rule:evenodd;}
	.st5{clip-path:url(#SVGID_10_);fill-rule:evenodd;clip-rule:evenodd;}
	
		.st6{clip-path:url(#SVGID_6_);fill:none;stroke:#000000;stroke-width:0.7987635;stroke-linecap:round;stroke-linejoin:round;stroke-miterlimit:10;}
	.st7{clip-path:url(#SVGID_12_);fill-rule:evenodd;clip-rule:evenodd;}
	.st8{clip-path:url(#SVGID_14_);fill-rule:evenodd;clip-rule:evenodd;}
	.st9{clip-path:url(#SVGID_6_);fill-rule:evenodd;clip-rule:evenodd;}
	.st10{clip-path:url(#SVGID_16_);fill-rule:evenodd;clip-rule:evenodd;}
	.st11{clip-path:url(#SVGID_6_);fill-rule:evenodd;clip-rule:evenodd;fill:#EAC122;}
	.st12{clip-path:url(#SVGID_18_);fill-rule:evenodd;clip-rule:evenodd;}
	
		.st13{clip-path:url(#SVGID_6_);fill:none;stroke:#000000;stroke-width:1.597527;stroke-linecap:round;stroke-linejoin:round;stroke-miterlimit:10;stroke-dasharray:12.7802162,6.3901081;}
	.st14{clip-path:url(#SVGID_20_);fill-rule:evenodd;clip-rule:evenodd;}
	.st15{clip-path:url(#SVGID_22_);fill-rule:evenodd;clip-rule:evenodd;}
	.st16{clip-path:url(#SVGID_24_);fill-rule:evenodd;clip-rule:evenodd;}
	.st17{clip-path:url(#SVGID_26_);fill-rule:evenodd;clip-rule:evenodd;}
	.st18{clip-path:url(#SVGID_6_);fill:#0000F0;}
	.st19{clip-path:url(#SVGID_28_);fill-rule:evenodd;clip-rule:evenodd;}
	.st20{clip-path:url(#SVGID_30_);fill-rule:evenodd;clip-rule:evenodd;}
	.st21{clip-path:url(#SVGID_32_);fill-rule:evenodd;clip-rule:evenodd;}
	.st22{clip-path:url(#SVGID_34_);fill-rule:evenodd;clip-rule:evenodd;}
	.st23{clip-path:url(#SVGID_36_);fill-rule:evenodd;clip-rule:evenodd;}
</style>
<g>
	<defs>
		<rect id="SVGID_1_" x="0.0000088" width="589.9799805" height="438"/>
	</defs>
	<clipPath id="SVGID_2_">
		<use xlink:href="#SVGID_1_"  style="overflow:visible;"/>
	</clipPath>
	<g class="st0">
	</g>
</g>
<g>
	<defs>
		<rect id="SVGID_3_" x="0.0000088" y="7.4197693" width="589.3900146" height="430.5799866"/>
	</defs>
	<clipPath id="SVGID_4_">
		<use xlink:href="#SVGID_3_"  style="overflow:visible;"/>
	</clipPath>
	<g class="st1">
		<defs>
			<rect id="SVGID_5_" y="7.4180603" width="589.3953247" height="437.5546265"/>
		</defs>
		<clipPath id="SVGID_6_">
			<use xlink:href="#SVGID_5_"  style="overflow:visible;"/>
		</clipPath>
		<rect x="61.3545456" y="362.302002" class="st2" width="411.1444092" height="9.5802841"/>
		<path class="st3" d="M577.4066162,367.0921936l-22.3770142-4.7901001l4.4754028,3.9917603v1.5956116l-4.4754028,3.9917603
			L577.4066162,367.0921936z M11.9876804,366.2938538H559.524231v1.5956116H11.9876804
			c-0.4411469,0-0.7991781-0.3565674-0.7991781-0.7972717C11.1885023,366.6504517,11.5465336,366.2938538,11.9876804,366.2938538z"
			/>
		<g class="st3">
			<defs>
				<rect id="SVGID_7_" x="550.6213379" y="360.9628906" width="24.0006714" height="43.6112366"/>
			</defs>
			<clipPath id="SVGID_8_">
				<use xlink:href="#SVGID_7_"  style="overflow:visible;"/>
			</clipPath>
			<path class="st4" d="M569.361145,380.8280029c-0.1020508,0.4087524-0.3103027,0.715332-0.6229248,0.917572
				c-0.3126221,0.2043762-0.6269531,0.3065491-0.9449463,0.3044128c-0.3262939,0.0021362-0.5971069-0.1021729-0.8121338-0.310791
				c-0.1581421-0.1532898-0.2423096-0.3534241-0.2523804-0.5982361c0-0.0979309,0.0185547-0.2256775,0.0560913-0.381073
				c0.1027222-0.3427734,0.2616577-0.6025085,0.4758911-0.7792053c0.2147827-0.1766968,0.3643799-0.2789001,0.4485474-0.3065796
				c-0.1768799-0.1341248-0.5412598-0.20224-1.0928345-0.2043762c-0.4850464,0.0021362-0.9193726,0.2533569-1.3016968,0.7557678
				c-0.3823242,0.5024414-0.6678467,1.1070557-0.8547974,1.8117371l-1.2880249,4.9706421
				c-0.1308594,0.4992371-0.2286377,0.9746094-0.2940674,1.426178c-0.0372925,0.1543274-0.0560913,0.2901611-0.0560913,0.4072571
				c0,0.2818604,0.0466919,0.5484009,0.1402588,0.8013306c0.0933228,0.2724915,0.2335815,0.4898682,0.4204712,0.6527405
				c0.1868896,0.1630554,0.4249268,0.2445984,0.7139282,0.2437439c0.3737793,0.0008545,0.7330933-0.0960083,1.078125-0.2912292
				c0.3458862-0.1943665,0.6636353-0.456665,0.9526367-0.7876892c0.2887573-0.3302002,0.5453491-0.7146912,0.7697144-1.1543274
				c0.2244263-0.4389954,0.401123-0.889679,0.5319824-1.3522949c0.0560303-0.2341919,0.2150269-0.3523254,0.4758301-0.3531799
				h0.3220215c0.242981,0.0008545,0.3644409,0.0917358,0.3644409,0.271637c0,0.0553589-0.0134277,0.1053772-0.0415649,0.1494446
				c-0.1308594,0.5441589-0.3433228,1.080658-0.637207,1.6103516c-0.2940674,0.5296631-0.6365356,0.99823-1.0291138,1.4055176
				c-0.3925781,0.4074707-0.8377686,0.7427673-1.3372803,1.0042114c-0.4997559,0.2631226-1.0342407,0.3938599-1.6034546,0.3938599
				c-0.5786133,0-1.0783691-0.1239014-1.4979858-0.3734131c-0.4197998-0.2478333-0.7614136-0.5722656-1.0231323-0.9710083
				c-0.083313-0.0985718-0.1487427-0.2003479-0.1954346-0.3048706c-0.0466919-0.1034546-0.0611572-0.1196594-0.0424194-0.0483398
				c-0.2235718,0.3717041-0.5779419,0.7478943-1.0638428,1.1281128c-0.4852295,0.380249-1.045105,0.569519-1.6808472,0.569519
				c-0.354187,0-0.7042847-0.0449219-1.0501709-0.1358337c-0.3450317-0.0898438-0.6466064-0.2299194-0.9031982-0.4200439
				c-0.2565918-0.1903381-0.4503174-0.4211121-0.5811768-0.6936035c-0.0645752-0.1620178-0.0969238-0.3387146-0.0977783-0.5296936
				c0.0008545-0.1349487,0.0195923-0.2935791,0.0560303-0.4753723c0.1029053-0.4066467,0.3128662-0.7121277,0.6306152-0.915863
				s0.6346436-0.3055115,0.9515381-0.306366c0.3271484,0.0008545,0.607605,0.1051636,0.8405151,0.3123169
				c0.1587524,0.1545715,0.237854,0.3540344,0.237854,0.5975952c0,0.1272888-0.0187988,0.2546082-0.0560913,0.3802185
				c-0.083313,0.3174438-0.2354736,0.5739746-0.4545288,0.7683411c-0.2192993,0.1952209-0.3765869,0.301239-0.4699097,0.3182678
				c0.1774902,0.1460571,0.5370483,0.2139587,1.0783081,0.2037354c0.4859009,0.0008545,0.9243164-0.2520447,1.3162231-0.7597961
				c0.3925171-0.5066833,0.677063-1.1136475,0.8547974-1.8206787l1.3016357-4.997467
				c0.1308594-0.4704895,0.2335815-0.9324646,0.3084106-1.3859253c0.0187378-0.1447754,0.0281372-0.2810364,0.0281372-0.4066162
				c0-0.2810364-0.0418091-0.5429077-0.1265869-0.7877197c-0.0927124-0.272522-0.2372437-0.4896545-0.4334717-0.6578369
				c-0.1962891-0.1681824-0.43927-0.2512207-0.7282104-0.2533569c-0.3738403,0.0021362-0.7359009,0.1000671-1.0858154,0.2937927
				c-0.3501587,0.1958618-0.6696167,0.4555969-0.9586182,0.7813416c-0.2887573,0.3257141-0.5453491,0.7046509-0.7697144,1.1325684
				c-0.2244263,0.4300537-0.3874512,0.8856506-0.491272,1.3646545c-0.1018677,0.2454529-0.274231,0.3719177-0.517395,0.3804626
				h-0.3084106c-0.2235107,0.000824-0.3356323-0.1122131-0.3356323-0.3400269v-0.0936584
				c0.1402588-0.5620422,0.3552856-1.1070557,0.644043-1.637146c0.2889404-0.5301208,0.6348267-0.9984741,1.0359497-1.4050903
				c0.4016724-0.4066467,0.8505249-0.7408752,1.3449097-0.9984741c0.4946289-0.2575989,1.0316772-0.3874817,1.609436-0.3874817
				c0.56073,0,1.0553589,0.1234741,1.484314,0.3661804c0.4300537,0.2448425,0.7800293,0.5705566,1.0502319,0.9772034
				c0.0560303,0.1000366,0.1080322,0.2086182,0.1547241,0.3214417c0.0466919,0.112854,0.0603027,0.1426392,0.0415649,0.0873108
				c0.2337646-0.3981323,0.5930786-0.789856,1.0783691-1.1751709c0.486084-0.3832397,1.0408325-0.5769653,1.6663208-0.5769653
				c0.3550415,0,0.7068481,0.0447083,1.0570068,0.1298828c0.3499146,0.0872803,0.6542969,0.2235413,0.9108276,0.4130249
				c0.2565918,0.1915894,0.4460449,0.4257813,0.5667114,0.7067871c0.0654297,0.1639404,0.0977783,0.3491516,0.0977783,0.5556641
				C569.4171753,380.5022583,569.3984375,380.6576843,569.361145,380.8280029z"/>
		</g>
		<path class="st3" d="M195.629364,21.3178101l-4.7854919,22.355896l3.9937592-4.4728699h1.5983582l3.9980316,4.4685974
			L195.629364,21.3178101z M194.9996033,414.3842468l-0.161972-375.2004395h1.5983582l0.161972,375.1993713
			c0,0.4406738-0.3569641,0.7983398-0.7991791,0.7983398C195.3576355,415.1815186,194.9996033,414.8249207,194.9996033,414.3842468z
			"/>
		<g class="st3">
			<defs>
				<rect id="SVGID_9_" x="164.5231934" y="367.3677673" width="28.9856415" height="43.6112366"/>
			</defs>
			<clipPath id="SVGID_10_">
				<use xlink:href="#SVGID_9_"  style="overflow:visible;"/>
			</clipPath>
			<path class="st5" d="M185.0903931,381.1483765c-0.3075256-0.7600098-0.7697601-1.3774109-1.386734-1.8521729
				c-0.6161041-0.4747314-1.3722382-0.7131958-2.2688141-0.7131958c-0.8861237,0-1.7682037,0.2427063-2.6457977,0.7259827
				c-0.8769684,0.4853821-1.6612244,1.1112976-2.3529968,1.8798523c-0.8684387,0.9346008-1.5540314,1.9458313-2.0580444,3.0379639
				c-0.5037994,1.0900269-0.8963623,2.1970825-1.1768188,3.3190308c-0.3262787,1.2220154-0.5268097,2.4140015-0.6016083,3.5717163
				c-0.0185547,0.2182007-0.0279236,0.4355774-0.0279236,0.6518555c0,0.9065247,0.1496124,1.7936401,0.4477539,2.6620483
				c0.2898407,0.7706604,0.7333221,1.415741,1.3306885,1.9360352c0.5973511,0.5213928,1.344101,0.7811279,2.2398224,0.7802734
				c0.9244843,0.0008545,1.8285217-0.2640076,2.7106018-0.7936707c0.8818665-0.5296936,1.6729431-1.1841125,2.37323-1.9635315
				c0.9057465-1.0491333,1.6100769-2.1585083,2.11409-3.3264465c0.5046539-1.1679382,0.9151154-2.3580017,1.2320251-3.5736389
				c0.2898254-1.1304626,0.4716187-2.2438965,0.5464172-3.3403015v-0.474762
				C185.5662842,382.7706299,185.4081573,381.9275818,185.0903931,381.1483765z M187.9188538,387.9929199
				c-0.336731,1.3156738-0.8801575,2.5821838-1.6303253,3.8045959c-0.7520752,1.222229-1.6976624,2.3401489-2.8363342,3.3537292
				c-1.0265656,0.9150085-2.1498871,1.6424561-3.3682709,2.1806641c-1.2185822,0.538208-2.4386597,0.8072815-3.6615143,0.8072815
				c-1.2320099,0-2.3271942-0.2707825-3.2840881-0.8140869c-0.956665-0.5433044-1.7198181-1.2767334-2.2890472-2.2011108
				c-0.6255035-1.0218811-0.9848022-2.1542664-1.0783691-3.3952332c-0.0372925-0.2980347-0.0560455-0.5967407-0.0560455-0.8964844
				c0-0.9318542,0.1214752-1.8962402,0.3637848-2.8925781c0.3550415-1.3305969,0.903183-2.6228638,1.645874-3.8768005
				c0.7424927-1.2539368,1.6917114-2.3886719,2.8489075-3.4020386c1.0274353-0.9132996,2.1499023-1.6499329,3.3682709-2.2077026
				c1.2185822-0.5556641,2.4480438-0.8345642,3.6894379-0.8345642c1.2322235,0,2.3222961,0.2810364,3.2698059,0.8430786
				c0.9485779,0.559906,1.7072601,1.3029175,2.2762756,2.2247314c0.6244202,1.0240173,0.993103,2.1651306,1.1060638,3.4233398
				c0.0191803,0.3086853,0.0276947,0.6109924,0.0276947,0.9090576
				C188.3109741,385.989563,188.1809845,386.9795227,187.9188538,387.9929199z"/>
		</g>
		<path class="st3" d="M315.6755981,389.9718018l-16.7827759-3.5925598v2.9932556v1.1975403v2.9943237L315.6755981,389.9718018z
			 M195.7987823,389.9718018l16.7827606,3.5925598v-2.9943237v-1.1975403v-2.9932556L195.7987823,389.9718018z
			 M212.5644836,389.3724976h86.3453979v1.1975403h-86.3453979V389.3724976z"/>
		<line class="st6" x1="195.7987823" y1="376.6723633" x2="195.7987823" y2="403.2712402"/>
		<line class="st6" x1="315.6755981" y1="376.6723633" x2="315.6755981" y2="403.2712402"/>
		<g class="st3">
			<defs>
				<rect id="SVGID_11_" x="242.9385834" y="384.1150208" width="24.0007324" height="43.6112289"/>
			</defs>
			<clipPath id="SVGID_12_">
				<use xlink:href="#SVGID_11_"  style="overflow:visible;"/>
			</clipPath>
			<path class="st7" d="M261.6784363,403.9801025c-0.1020813,0.4087524-0.3103027,0.715332-0.6229553,0.917572
				c-0.3126221,0.2043762-0.6269531,0.3065491-0.9449158,0.3044434c-0.3262939,0.0021057-0.5971375-0.1022034-0.8121643-0.3108215
				c-0.1581421-0.1532898-0.2423096-0.3534241-0.2523499-0.5982361c0-0.0979309,0.0185547-0.2256775,0.0560608-0.381073
				c0.1027222-0.3427734,0.2616882-0.6025085,0.4758606-0.7792053c0.2148438-0.1766968,0.3644409-0.2789001,0.4486084-0.3065491
				c-0.1768799-0.1341553-0.5412903-0.2022705-1.0928345-0.2044067c-0.4850464,0.0021362-0.9193726,0.2533569-1.3016968,0.7557983
				c-0.3823242,0.5024109-0.6678772,1.1070251-0.8547974,1.8117065l-1.2880402,4.9706421
				c-0.1308441,0.4992371-0.2286682,0.9746399-0.2940979,1.426178c-0.0372925,0.1543274-0.0560455,0.2901611-0.0560455,0.4072571
				c0,0.2818604,0.0466766,0.5484009,0.1402283,0.8013306c0.0933533,0.272522,0.2335815,0.4898682,0.4204712,0.6527405
				c0.1869049,0.1630554,0.4249573,0.2445984,0.7139282,0.2437439c0.3738098,0.0008545,0.7330933-0.0960083,1.078125-0.2912292
				c0.3458862-0.1943665,0.6636353-0.456665,0.9526367-0.7876892c0.2887573-0.3302002,0.5453491-0.7146912,0.7697449-1.1543274
				c0.2244263-0.4389954,0.4010925-0.889679,0.5319214-1.3522949c0.0560608-0.2341919,0.2150574-0.3523254,0.4758911-0.3531799
				h0.3220215c0.2429504,0.0008545,0.3644104,0.0917358,0.3644104,0.271637c0,0.0553589-0.0134277,0.1053772-0.0415649,0.1494446
				c-0.1308289,0.5441589-0.3433228,1.080658-0.637207,1.6103516c-0.2940674,0.5296631-0.6365662,0.9982605-1.0291138,1.4055176
				c-0.3925476,0.4074707-0.837738,0.7427673-1.3372803,1.0042114c-0.4997559,0.2631226-1.0342407,0.3938599-1.6034546,0.3938599
				c-0.578598,0-1.0783386-0.1239014-1.4979706-0.3734131c-0.4198303-0.2478027-0.7614441-0.5722656-1.0231476-0.9710083
				c-0.0833282-0.0985718-0.1487579-0.2003479-0.1954193-0.3048706c-0.0466766-0.1034546-0.0611725-0.1196289-0.0424194-0.0483398
				c-0.2235565,0.3717346-0.5779572,0.7479248-1.063858,1.1281433c-0.4852448,0.3802185-1.045105,0.5694885-1.6808167,0.5694885
				c-0.354187,0-0.7043304-0.0449219-1.0502167-0.1358337c-0.3450317-0.0898438-0.6465759-0.2299194-0.9031677-0.4200439
				c-0.2565918-0.1903076-0.4503021-0.4211121-0.5811615-0.6936035c-0.0645752-0.1620178-0.0969696-0.3387146-0.0978241-0.5296631
				c0.0008545-0.1349792,0.0196075-0.2935791,0.0560608-0.4754028c0.1029205-0.4066162,0.312851-0.7121277,0.6306-0.915863
				s0.6346436-0.3055115,0.9515381-0.306366c0.3271332,0.0008545,0.6075897,0.1051636,0.8405151,0.3123169
				c0.1587677,0.1545715,0.2378387,0.3540344,0.2378387,0.5975952c0,0.1273193-0.0187531,0.2546082-0.0560455,0.3802185
				c-0.0833282,0.3174438-0.2354889,0.5739746-0.4545746,0.7683411c-0.2192841,0.1952209-0.3765717,0.301239-0.4699097,0.3182678
				c0.1775208,0.1460571,0.5370483,0.2139587,1.0783539,0.2037354c0.4858856,0.0008545,0.9242706-0.2520447,1.3161774-0.7597961
				c0.3925476-0.5066833,0.677063-1.1136475,0.8547974-1.8206787l1.3016815-4.997467
				c0.1308594-0.4704895,0.2335815-0.9324646,0.3083801-1.3859253c0.0187531-0.1447754,0.0281219-0.2810059,0.0281219-0.4066162
				c0-0.2810364-0.0417633-0.5428772-0.1265869-0.7877197c-0.0926971-0.2724915-0.2371979-0.4896545-0.4334717-0.6578369
				s-0.4392242-0.2512207-0.7281952-0.2533569c-0.3738098,0.0021362-0.7358856,0.1000671-1.0858154,0.2938232
				c-0.3501434,0.1958618-0.6696014,0.4555664-0.9585876,0.781311c-0.2887573,0.3257141-0.5453491,0.7046509-0.7697601,1.1325684
				c-0.2243958,0.4300537-0.3874359,0.8856506-0.4912109,1.3646545c-0.1018677,0.2454834-0.2742767,0.3719482-0.5174408,0.3804626
				h-0.3083801c-0.2235565,0.0008545-0.3356476-0.1122131-0.3356476-0.3399963v-0.093689
				c0.1402283-0.5620422,0.3552551-1.1070251,0.6440277-1.637146c0.2889709-0.5300903,0.6348572-0.9984741,1.0359344-1.4050903
				c0.4017181-0.4066467,0.8505402-0.7408752,1.3449554-0.9984741c0.4946289-0.2575989,1.0316772-0.3874817,1.6094208-0.3874817
				c0.5606995,0,1.0553436,0.1235046,1.4843292,0.3662109c0.430069,0.244812,0.7799988,0.5705261,1.0502319,0.9771729
				c0.0560303,0.1000366,0.1080322,0.2086182,0.1547241,0.3214722c0.0466614,0.1128235,0.0603027,0.1426392,0.0415344,0.0872803
				c0.2337952-0.3981323,0.5931091-0.789856,1.0783691-1.1751709c0.486084-0.3832092,1.0408325-0.5769653,1.6663208-0.5769653
				c0.3550415,0,0.7068787,0.0447388,1.0570374,0.1298828c0.3499146,0.0872803,0.6542664,0.2235413,0.9108276,0.4130249
				c0.2565918,0.1915894,0.4460449,0.4257813,0.5666809,0.7067871c0.0654297,0.1639404,0.0978088,0.3491516,0.0978088,0.5556641
				C261.7344666,403.6543579,261.7157288,403.8097839,261.6784363,403.9801025z"/>
		</g>
		<path class="st3" d="M344.4460144,389.9718018l16.7827454,3.5925598v-2.9943237v-1.1975403v-2.9932556L344.4460144,389.9718018z
			 M361.211731,389.3724976h103.111084c0.3313904,0,0.598877,0.2682495,0.598877,0.5993042
			c0,0.3299866-0.2674866,0.5982361-0.598877,0.5982361H361.211731V389.3724976z"/>
		<line class="st6" x1="344.4460144" y1="376.6723633" x2="344.4460144" y2="403.2712402"/>
		<line class="st6" x1="464.3228149" y1="376.6723633" x2="464.3228149" y2="403.2712402"/>
		<g class="st3">
			<defs>
				<rect id="SVGID_13_" x="310.9199219" y="391.7799072" width="38.1562195" height="43.6112328"/>
			</defs>
			<clipPath id="SVGID_14_">
				<use xlink:href="#SVGID_13_"  style="overflow:visible;"/>
			</clipPath>
			<path class="st8" d="M326.0230103,412.3518066c-0.3075256-0.6067505-0.7469482-1.1070557-1.3161926-1.5009155
				c-0.5692444-0.3938293-1.2226563-0.5897217-1.9602356-0.5897217c-0.5879822,0-1.1386719,0.1383972-1.6518555,0.4130249
				c-0.5131836,0.2767639-0.9569092,0.6599731-1.3306885,1.1474915c-0.4104614,0.5535278-0.6738892,1.170929-0.7911072,1.8543091
				c-0.1163635,0.6848755-0.1749573,1.3927612-0.1749573,2.1253052c0,0.7342834,0.0517883,1.4361877,0.153656,2.105957
				c0.1029358,0.6706238,0.3458862,1.2994995,0.7282104,1.8868713c0.3177795,0.462616,0.721405,0.8345337,1.211792,1.1147156
				c0.4901733,0.2807922,1.0061035,0.4208984,1.5463562,0.4200439c0.8124084,0.0008545,1.53125-0.223114,2.1567383-0.6714783
				c0.6252747-0.4481201,1.1020203-1.0210266,1.4282837-1.7189026V412.3518066z M326.0230408,422.2388v-1.6160889
				c-0.2981567,0.3717041-0.7766113,0.7325745-1.4351501,1.0804443c-0.6576538,0.3480835-1.3935547,0.5222168-2.2059326,0.5222168
				c-0.8582153,0-1.6704102-0.1673279-2.4361267-0.5018005c-0.764679-0.3344421-1.4274597-0.7970581-1.9883728-1.3861389
				c-0.6065369-0.6331482-1.0662231-1.3344116-1.3790894-2.104248c-0.3126221-0.7689514-0.4699097-1.5796509-0.4699097-2.4318848
				c0-0.8504944,0.164093-1.6697083,0.490387-2.457428c0.3271179-0.7876892,0.803009-1.4838562,1.4282837-2.0906067
				c0.6254883-0.6067505,1.3400879-1.0751038,2.1430969-1.4072266c0.803009-0.3299866,1.6433411-0.4960327,2.5202942-0.4960327
				c0.756134,0,1.4453735,0.1618042,2.0655212,0.4832764c0.6212463,0.3214417,1.0621643,0.6493225,1.3230286,0.983551v-5.650177
				c0-0.2341919-0.0110779-0.4620056-0.034729-0.6855164c-0.0230408-0.2214355-0.1138306-0.3896179-0.2727966-0.5088196
				c-0.1589966-0.1085815-0.4113159-0.1703186-0.7563477-0.1894836c-0.3448181-0.0170288-0.723114-0.0276794-1.1342163-0.0276794
				v-1.100647l4.4108582-0.3257446l0.0000305,17.0581055c0,0.2358704,0.0119324,0.462616,0.034729,0.6797791
				c0.0238647,0.2173462,0.117218,0.3804321,0.2804565,0.4890137c0.1630249,0.108551,0.4181213,0.1747742,0.7629395,0.1968994
				c0.3458862,0.0230103,0.728241,0.0338745,1.1480713,0.03302v1.1136475L326.0230408,422.2388z"/>
			<path class="st8" d="M344.4579468,411.644989c-0.1022949,0.4087524-0.3111572,0.715332-0.6222839,0.917572
				c-0.3132935,0.2043762-0.6286926,0.3065796-0.946228,0.3044434c-0.3260803,0.0021362-0.5967407-0.1022034-0.8119812-0.3108215
				c-0.1577148-0.1532898-0.2429504-0.3534241-0.2514648-0.5982361c0-0.0979309,0.0170288-0.2256775,0.0553894-0.381073
				c0.1022949-0.3427734,0.262146-0.6025085,0.4752502-0.7792053c0.2152405-0.1766968,0.3644409-0.2788696,0.4496765-0.3065491
				c-0.1768799-0.1341248-0.5413208-0.2022705-1.0932922-0.2043762c-0.4859009,0.0021057-0.9185181,0.2533264-1.302124,0.7557678
				c-0.3814697,0.5024109-0.6670532,1.1070251-0.8545837,1.8117065l-1.2872314,4.9706421
				c-0.1321411,0.4992371-0.2301636,0.9746399-0.2940979,1.426178c-0.0383606,0.1543579-0.0575256,0.2901611-0.0575256,0.4072571
				c0,0.2818909,0.046875,0.5484314,0.1406555,0.8013306c0.09375,0.272522,0.2344055,0.4898682,0.4198303,0.6527405
				c0.1875305,0.1630859,0.426239,0.2446289,0.7139282,0.2437744c0.3750916,0.0008545,0.7331238-0.0960083,1.0783691-0.2912598
				c0.3473816-0.1943665,0.664917-0.4566345,0.9526367-0.7876892c0.2898254-0.3302002,0.5455627-0.7146912,0.7714539-1.1543274
				c0.2237854-0.4389648,0.4006653-0.889679,0.5306702-1.3522949c0.0554199-0.2341614,0.2152405-0.3523254,0.4752502-0.3531799
				h0.3239441c0.2429504,0.0008545,0.3644104,0.0917664,0.3644104,0.271637c0,0.0553589-0.0148926,0.1054077-0.0426025,0.1494751
				c-0.1300049,0.5441589-0.3431396,1.0806274-0.6372375,1.610321c-0.2940979,0.5296631-0.637207,0.9982605-1.0293274,1.4055176
				c-0.3921509,0.4074707-0.8375549,0.7427979-1.3362427,1.0042114c-0.500824,0.2631531-1.0357361,0.3938599-1.6047668,0.3938599
				c-0.5775452,0-1.0783691-0.1239014-1.4981995-0.3734131c-0.4198303-0.2478027-0.7608337-0.5722656-1.0229492-0.9710083
				c-0.0831299-0.0985718-0.1492004-0.2003479-0.1939392-0.3048706c-0.046875-0.1034546-0.0617981-0.1196289-0.0426331-0.0483093
				c-0.2237549,0.3717041-0.5796509,0.7478943-1.0655823,1.1281128c-0.4837646,0.3802185-1.0442505,0.5694885-1.6793518,0.5694885
				c-0.355896,0-0.7054138-0.0449219-1.0506592-0.1358337c-0.3450317-0.0898438-0.6467896-0.2299194-0.9033813-0.4200439
				c-0.2565918-0.1903076-0.4503174-0.4210815-0.5811768-0.6936035c-0.0645752-0.1619873-0.0969543-0.3387146-0.0978088-0.5296631
				c0.0008545-0.1349792,0.0195923-0.2935791,0.0560303-0.4754028c0.1029358-0.4066162,0.3128662-0.7121277,0.6306152-0.915863
				s0.6346741-0.3055115,0.9511414-0.306366c0.328186,0.0008545,0.6073914,0.1051941,0.8417969,0.3123169
				c0.1577148,0.1545715,0.2365723,0.3540649,0.2365723,0.5975952c0,0.1273193-0.0191956,0.2546387-0.0554199,0.380249
				c-0.0830994,0.3174133-0.2365417,0.5739441-0.4539185,0.7683105c-0.2195129,0.1952209-0.3772278,0.3012695-0.4710083,0.3182983
				c0.1769104,0.1460266,0.5370483,0.2139282,1.0783691,0.2037354c0.4859009,0.0008545,0.9249268-0.2520752,1.3170776-0.7598267
				c0.3921204-0.5066833,0.6755676-1.1136475,0.8545837-1.8206787l1.302124-4.9974365
				c0.1300049-0.47052,0.2322998-0.9324951,0.3068848-1.3859558c0.0191956-0.1447449,0.02771-0.2810059,0.02771-0.4066162
				c0-0.2810364-0.0404968-0.5428772-0.1257324-0.7877197c-0.0916443-0.2724915-0.2365723-0.4896545-0.4326172-0.6578369
				c-0.1960754-0.1681824-0.4390259-0.2512207-0.7288818-0.2533264c-0.3729553,0.0021057-0.7352295,0.1000366-1.0868835,0.2937927
				c-0.3494873,0.1958618-0.6691895,0.4555969-0.9568787,0.781311c-0.289856,0.3257141-0.5455627,0.7046814-0.7693481,1.1325989
				c-0.2258911,0.4300537-0.3878784,0.8856201-0.4923096,1.364624c-0.1022949,0.2454834-0.2749023,0.3719482-0.5178528,0.3804626
				h-0.3079529c-0.2235718,0.0008545-0.3356628-0.1122131-0.3356628-0.3399963v-0.093689
				c0.1402283-0.5620117,0.3552551-1.1070251,0.6436157-1.637146c0.2898254-0.5300903,0.6350708-0.9984741,1.0357361-1.4050903
				c0.402771-0.4066162,0.8503113-0.7408752,1.3447571-0.9984741c0.4944153-0.2575989,1.0314941-0.3874512,1.611145-0.3874512
				c0.5605164,0,1.0549316,0.1234741,1.4833069,0.3661804c0.430481,0.244812,0.7799988,0.5705261,1.0506592,0.9771729
				c0.0553894,0.1000671,0.1086731,0.2086487,0.1555481,0.3214722c0.0447693,0.1128235,0.0596924,0.1426392,0.0404968,0.0872803
				c0.234436-0.3981018,0.5924683-0.7898254,1.0783691-1.1751709c0.4859009-0.3832092,1.0400085-0.5769348,1.6665649-0.5769348
				c0.355896,0,0.70755,0.0447083,1.0570679,0.1298523c0.3494873,0.0872803,0.6542664,0.2235413,0.9100037,0.4130249
				c0.2578735,0.1915894,0.4475403,0.4257813,0.5668945,0.7067871c0.06604,0.1639404,0.0980225,0.3491516,0.0980225,0.5556641
				C344.5133667,411.3192749,344.4941711,411.4746704,344.4579468,411.644989z"/>
		</g>
		<circle class="st9" cx="195.7987823" cy="176.3571167" r="3.8360596"/>
		<g class="st3">
			<defs>
				<rect id="SVGID_15_" x="195.3586884" y="256.9391479" width="22.9500732" height="43.6112213"/>
			</defs>
			<clipPath id="SVGID_16_">
				<use xlink:href="#SVGID_15_"  style="overflow:visible;"/>
			</clipPath>
			<path class="st10" d="M209.10466,277.9730225c-0.0372925-0.1618042-0.0696869-0.3321228-0.0976105-0.5088196
				c-0.0281219-0.1766968-0.0705261-0.3512878-0.1265869-0.5237122c-0.1487427-0.423645-0.3612213-0.7792053-0.6365662-1.0644836
				c-0.2751312-0.2852783-0.6235657-0.4279175-1.043396-0.4300232c-0.3916931,0.0021057-0.7791443,0.1426392-1.162323,0.4215088
				c-0.3823242,0.2810059-0.7324524,0.6429443-1.0502167,1.0857544c-0.4477386,0.6259155-0.7834015,1.2773743-1.0077972,1.9501038
				c-0.224411,0.6753235-0.4298553,1.3789368-0.6169586,2.1114807c-0.1860504,0.7249146-0.3397064,1.4270325-0.4622498,2.1051025
				c-0.0737305,0.3446655-0.1112366,0.6705933-0.1112366,0.9778137c0,0.3268127,0.0375061,0.6435852,0.1112366,0.9507751
				c0.0850372,0.4262085,0.2363434,0.7774963,0.4556427,1.0534058c0.2190857,0.2767639,0.5251007,0.4143066,0.9168091,0.4134521
				c0.4298401,0.0008545,0.861618-0.1486206,1.2957153-0.4472961c0.4341125-0.2989197,0.8377533-0.6654968,1.210907-1.1011047
				c0.1493988-0.1798706,0.2921753-0.3538208,0.4272919-0.5220032c0.1359711-0.1671143,0.2548828-0.3463745,0.3569641-0.537323
				L209.10466,277.9730225z M213.1094818,282.9707031c-0.1114655,0.4447021-0.2371979,0.920105-0.3774261,1.4268188
				c-0.1400146,0.5075073-0.3271332,0.9777832-0.5606995,1.412323c-0.2329407,0.4347229-0.5268097,0.8106995-0.8820801,1.1272583
				c-0.354187,0.316803-0.7978821,0.4745483-1.3306732,0.4745483c-0.7085876,0-1.2761078-0.1960754-1.7010651-0.5899353
				c-0.4247284-0.3938599-0.6695862-0.7944946-0.7350159-1.2028503c-0.317749,0.3634338-0.7910767,0.7530212-1.421463,1.1690063
				c-0.6297455,0.4157715-1.2948761,0.6237793-1.995163,0.6237793c-0.7375793,0-1.3560333-0.1850281-1.8557739-0.5558777
				c-0.4995422-0.3710632-0.8886871-0.8379517-1.1691437-1.3997803c-0.3356476-0.6688843-0.5131683-1.3886719-0.5319214-2.1593628
				v-0.2037354c-0.0000153-0.7149048,0.0986633-1.4295654,0.2940826-2.1459656
				c0.2241974-0.7868652,0.5370483-1.5652161,0.937912-2.3352356c0.4019318-0.7685547,0.9338531-1.4838867,1.5966339-2.1459656
				c0.54216-0.5428772,1.1608276-1.0005798,1.8557892-1.3710327c0.6951752-0.3704529,1.4020691-0.5577698,2.1208954-0.5577698
				c0.6252747,0,1.1343994,0.1660461,1.5260925,0.4960327c0.3925629,0.3320923,0.6397705,0.6046143,0.7427063,0.8217773
				l-0.0562744,0.2299194c0.0654297-0.3342285,0.2218628-0.5875854,0.4690704-0.7600403
				c0.2482758-0.1703186,0.4980469-0.2575989,0.7495117-0.2575989c0.2889862,0,0.5319366,0.085144,0.7282104,0.2575989
				c0.1214752,0.136261,0.1869049,0.3172302,0.1954193,0.5428772c0,0.0830383-0.0093689,0.1724548-0.0281219,0.272522
				l-2.0162506,7.8491516c-0.0935669,0.3717346-0.1589966,0.7206726-0.1962891,1.0457458
				c-0.0178986,0.1639404-0.0272675,0.3131714-0.0272675,0.4481201c0,0.1190186,0.0093689,0.2454834,0.0272675,0.3804321
				c0.0287781,0.2180176,0.0942078,0.3811035,0.1962891,0.4896851c0.1027069,0.1087646,0.2472076,0.1630859,0.4340973,0.1622314
				c0.1962738,0.0008545,0.3808441-0.0806885,0.5532379-0.2437744c0.1732635-0.1628723,0.3322449-0.4047241,0.4767456-0.7266235
				c0.1444855-0.3208008,0.2819366-0.7061462,0.412796-1.1542969c0.1308441-0.4481201,0.2659607-0.9346008,0.4053345-1.4608765
				c0.0560455-0.2341919,0.2150269-0.3523254,0.4767303-0.3531799h0.3220215
				c0.2431641,0.0008545,0.3637848,0.1002502,0.3637848,0.2988892V282.9707031z"/>
		</g>
		<rect x="315.6766663" y="362.3011475" class="st11" width="28.7704163" height="9.5800858"/>
		<rect x="315.6766663" y="362.3011475" class="st2" width="28.7704163" height="9.5800858"/>
		<line class="st2" x1="330.7971191" y1="367.0921936" x2="195.7987823" y2="176.3571167"/>
		<path class="st2" d="M319.3528748,350.7313843c9.0445557-6.3133545,21.5000305-4.1077881,27.8210144,4.9273987
			c2.3453369,3.3530579,3.6026917,7.34375,3.6026917,11.4334106"/>
		<g class="st3">
			<defs>
				<rect id="SVGID_17_" x="338.6908569" y="310.8776855" width="22.5706177" height="43.6112366"/>
			</defs>
			<clipPath id="SVGID_18_">
				<use xlink:href="#SVGID_17_"  style="overflow:visible;"/>
			</clipPath>
			<path class="st12" d="M346.9719238,331.803009c-0.2514648,1.0240173-0.4716187,2.055481-0.6585083,3.0960999
				c-0.1487427,0.7521667-0.2233582,1.5040894-0.2233582,2.2545471c0,0.2818909,0.0091858,0.5533142,0.0279236,0.8147278
				c0.0187683,0.3540649,0.0611572,0.6851196,0.1257324,0.9923096c0.0654297,0.3082886,0.1521606,0.5731201,0.2591553,0.7945251
				c0.1072083,0.2224731,0.2499695,0.3938599,0.4274902,0.5160522c0.1775208,0.122406,0.3925781,0.1835022,0.644043,0.1826477
				c0.5319214,0.0008545,1.0291138-0.2479858,1.491333-0.7461853c0.4622498-0.4973145,0.8980713-1.0957336,1.3093567-1.7936096
				c0.6159058-1.0133667,1.0917664-2.0405884,1.4282837-3.0820618c0.3364868-1.0406189,0.6254883-2.0497437,0.8675842-3.0290527
				H346.9719238z M353.833252,324.5369568c-0.0372925-0.3534241-0.0839539-0.6833801-0.1402283-0.9899597
				c-0.0560608-0.3086853-0.1376648-0.5748291-0.2446594-0.8026123c-0.1069641-0.225647-0.2446594-0.400238-0.4129944-0.5215759
				c-0.1681519-0.1235046-0.3823242-0.1852112-0.644043-0.1852112c-0.5412903,0-1.0408325,0.2512207-1.4979553,0.7536316
				c-0.4571228,0.5045471-0.9008179,1.1027832-1.330658,1.7989502c-0.6161194,0.9963379-1.0917664,2.0203552-1.4282837,3.0699158
				c-0.3364868,1.0516968-0.6254578,2.0650635-0.8684082,3.0422363h5.6987915
				c0.252533-1.0218811,0.4861145-2.0629272,0.7002869-3.1231384c0.1495972-0.7153015,0.2242126-1.4221191,0.2242126-2.1182861
				C353.8893127,325.1522217,353.8707581,324.8456421,353.833252,324.5369568z M355.7239685,324.223999
				c0.2242126,0.8601074,0.3356628,1.7393494,0.3356628,2.6356201c0,0.2810059-0.0093689,0.5535278-0.0281372,0.8132629
				c-0.0927124,1.1964417-0.2932434,2.3971863-0.6016235,3.6000061c-0.3356323,1.213501-0.760376,2.4165649-1.2737427,3.6066284
				c-0.5131836,1.1909485-1.1955566,2.3335571-2.0452271,3.4284668c-0.2887878,0.3719177-0.6090698,0.7393799-0.9592285,1.1010742
				c-0.3501282,0.3623352-0.725647,0.68573-1.126709,0.9710083c-0.4010925,0.2852783-0.8192139,0.5186157-1.2532959,0.6984863
				c-0.4341125,0.1816101-0.88974,0.2716675-1.3654175,0.2716675c-0.48526,0-0.9033813-0.0924072-1.2532959-0.2784729
				c-0.3501587-0.1849976-0.6508484-0.4242859-0.9033813-0.7189331c-0.2514954-0.2935791-0.4596863-0.6220703-0.6227112-0.9846497
				c-0.163269-0.3614807-0.2966614-0.7333984-0.3993835-1.114502c-0.2329407-0.8411255-0.3501282-1.7103882-0.3501282-2.6074829
				c0-0.2886963,0.0187378-0.5739746,0.0560303-0.8556519c0.0747986-1.1764526,0.2753296-2.3658752,0.6016235-3.5729675
				c0.3085632-1.2113647,0.723938-2.4099731,1.2464905-3.5979004c0.5233765-1.1858215,1.2185669-2.3312073,2.0869751-3.4361267
				c0.2896118-0.3704224,0.6073608-0.7387085,0.9523926-1.1070251c0.3450317-0.3661804,0.7137146-0.691925,1.1054077-0.9772034
				c0.3927612-0.2852783,0.8055725-0.5173035,1.2398987-0.6982727c0.4341125-0.1809387,0.8937683-0.2724915,1.3790283-0.2724915
				c0.4859009,0,0.9014587,0.0936584,1.2464905,0.2788696c0.3450317,0.1852417,0.6508484,0.4236755,0.9168091,0.7131958
				c0.2668152,0.2895508,0.4767456,0.6195068,0.6303711,0.9899597
				C355.4935913,323.4831238,355.6218872,323.8535767,355.7239685,324.223999z"/>
		</g>
		<line class="st13" x1="195.7987823" y1="176.3571167" x2="472.4979248" y2="367.0921936"/>
		<line class="st13" x1="195.7987823" y1="176.3571167" x2="61.3534851" y2="367.0921936"/>
		<g class="st3">
			<defs>
				<rect id="SVGID_19_" x="243.7782593" y="263.5643921" width="22.3197479" height="43.6112213"/>
			</defs>
			<clipPath id="SVGID_20_">
				<use xlink:href="#SVGID_19_"  style="overflow:visible;"/>
			</clipPath>
			<path class="st14" d="M260.8295593,283.4443665c-0.1018677,0.3981018-0.3100891,0.7004089-0.6227112,0.9026794
				c-0.3128662,0.2043762-0.6280823,0.3065491-0.9458313,0.3044434c-0.3262939,0.0021057-0.5973816-0.1022034-0.8124084-0.3108521
				c-0.1766663-0.1447754-0.2659607-0.3427429-0.2659607-0.5982056c0-0.1256104,0.0187378-0.2533569,0.0562439-0.3811035
				c0.0839844-0.3150635,0.2310181-0.5641479,0.4409485-0.7451172c0.2107849-0.1809692,0.3527222-0.2810059,0.4273071-0.3001709
				c-0.2139587-0.1618042-0.6576843-0.2427063-1.3305054-0.244812c-0.7088318,0.0021057-1.3409119,0.2894897-1.8967285,0.8643188
				c-0.555603,0.5748291-1.0570679,1.3518677-1.5056763,2.3269348l-2.0307922,7.7693176
				c-0.0833282,0.3361816-0.2540283,0.5865479-0.5106201,0.7538452c-0.2565918,0.1679993-0.5159607,0.2512207-0.7776642,0.2512207
				c-0.2794037,0-0.4944305-0.0900269-0.644043-0.271637c-0.1206207-0.1170959-0.1817932-0.2801819-0.1817932-0.4888
				c0-0.0806885,0.0093842-0.1801147,0.0281372-0.2988892l2.1556702-8.4069824
				c0.1496124-0.5875854,0.2241974-1.0942383,0.2241974-1.52005v-0.3278503
				c-0.0458221-0.4321899-0.2651215-0.6493225-0.6576843-0.6514587c-0.4111023,0.0021362-0.754425,0.3321228-1.0297699,0.9920959
				c-0.2753448,0.6621094-0.5430298,1.5221863-0.8047333,2.5802612c-0.1027222,0.2454834-0.2753448,0.3719177-0.5182953,0.3804321
				h-0.3220215c-0.224411,0.0008545-0.3365173-0.1121826-0.3365173-0.3399658v-0.093689
				c0.1121063-0.4257813,0.2386932-0.8898926,0.3789215-1.392334c0.1402283-0.5024109,0.3271332-0.9771729,0.5600739-1.4263916
				c0.2335663-0.4470825,0.5276794-0.828125,0.8818817-1.1411133c0.3552551-0.310791,0.7979126-0.4683533,1.3298492-0.4683533
				c0.7105255,0,1.2823181,0.20224,1.7155914,0.6046448c0.4343262,0.40448,0.6789856,0.7983398,0.7350464,1.1879272
				c0.3271332-0.4342957,0.7825623-0.8409424,1.3654327-1.2220154c0.5839386-0.3789368,1.2533417-0.5705261,2.0096893-0.5705261
				c0.3738098,0,0.7538147,0.0404358,1.1412659,0.1149292c0.3874207,0.0787964,0.7282104,0.2044067,1.0220947,0.3811035
				c0.2940979,0.1766968,0.5114746,0.4108887,0.6517029,0.6983032c0.084198,0.183075,0.1308594,0.3853149,0.1394043,0.6109619
				C260.8992615,283.1037598,260.8764343,283.2634277,260.8295593,283.4443665z"/>
		</g>
		<path class="st2" d="M72.8563232,350.7728882c5.3150711,3.7384033,8.4766312,9.8260803,8.4766312,16.3193054"/>
		<g class="st3">
			<defs>
				<rect id="SVGID_21_" x="85.3490829" y="324.3666687" width="29.8273087" height="43.936882"/>
			</defs>
			<clipPath id="SVGID_22_">
				<use xlink:href="#SVGID_21_"  style="overflow:visible;"/>
			</clipPath>
			<path class="st15" d="M93.6302261,345.2919312c-0.2514725,1.0240173-0.4716187,2.0561218-0.6585159,3.0967407
				c-0.1487503,0.7519531-0.2233429,1.5040894-0.2233429,2.2545471c0,0.2816467,0.0091629,0.5533142,0.027916,0.8147278
				c0.0187531,0.3540649,0.0611649,0.6851196,0.1257401,0.9923096c0.0654221,0.3080444,0.1521606,0.5729065,0.2591476,0.7945251
				c0.107193,0.2224731,0.2499771,0.3938293,0.4274979,0.5160522c0.1775284,0.1221924,0.3925552,0.1832886,0.6440277,0.1824341
				c0.5319366,0.0008545,1.029129-0.2478027,1.4913712-0.7459717c0.4622421-0.4975281,0.898056-1.0959778,1.3093643-1.7936096
				c0.6158981-1.0136108,1.0917816-2.0405884,1.4282837-3.0820618c0.3365021-1.0406189,0.6254883-2.0503845,0.8675842-3.0296936
				H93.6302261z M100.4916153,338.0258789c-0.0372925-0.3512573-0.0839615-0.6812439-0.1402283-0.9899292
				c-0.0560455-0.3087158-0.1376724-0.5748291-0.2446518-0.8026123c-0.1069794-0.2256775-0.2446518-0.400238-0.4130096-0.5216064
				c-0.1681519-0.1234741-0.3823318-0.183075-0.6440353-0.1852112c-0.5413055,0.0021362-1.0408401,0.2533569-1.4979706,0.7557678
				c-0.4571228,0.5024414-0.9008255,1.1027832-1.3306732,1.7989502c-0.6161118,0.9963379-1.0917816,2.0203552-1.4282837,3.0699463
				c-0.3365097,1.0495605-0.6254883,2.0629272-0.8684387,3.0401001h5.6988602
				c0.252533-1.0219116,0.4861069-2.0629272,0.7002869-3.1231384c0.1496048-0.715332,0.2241974-1.4200134,0.2241974-2.1182861
				C100.5476685,338.64328,100.529129,338.3345947,100.4916153,338.0258789z M102.3823547,337.7129517
				c0.2241974,0.8622131,0.3356552,1.7393188,0.3356552,2.6356201c0,0.2810059-0.0093765,0.5535278-0.0281296,0.8153687
				c-0.0927048,1.1964722-0.2932434,2.39505-0.6016235,3.5979004c-0.3356476,1.213501-0.7603836,2.4171753-1.2737732,3.6072388
				c-0.513176,1.1909485-1.1955643,2.3335571-2.0452423,3.4284668c-0.2887726,0.3717041-0.6090775,0.7393494-0.9592285,1.1008606
				c-0.3501434,0.3625488-0.725647,0.6859436-1.1267242,0.9712219c-0.4010773,0.2850342-0.8192062,0.5185852-1.2533188,0.6984863
				c-0.4341125,0.1816101-0.8897476,0.2716675-1.3654175,0.2716675c-0.4852524,0-0.9033813-0.0926208-1.2533188-0.2784729
				c-0.3501434-0.1850281-0.6508484-0.4242859-0.9033813-0.7189636c-0.2514801-0.2937622-0.4596863-0.6222534-0.6227188-0.9846191
				c-0.1632462-0.3616943-0.2966537-0.7333984-0.3993759-1.114502c-0.232933-0.8411255-0.3501434-1.7103882-0.3501434-2.6077271
				c0-0.2884521,0.0187531-0.5737305,0.0560455-0.8555908c0.0748062-1.1764526,0.2753448-2.366333,0.6016235-3.5712891
				c0.3085861-1.213501,0.7239456-2.4120789,1.2464981-3.5979004c0.5233994-1.1858215,1.2185745-2.333313,2.0870132-3.4382324
				c0.2896194-0.3704224,0.6073761-0.738739,0.9524002-1.1049194c0.3450317-0.3682861,0.7137222-0.6940308,1.1054153-0.9793091
				c0.3927689-0.2852783,0.8055725-0.517334,1.2398987-0.6982727c0.4341125-0.1809692,0.8937912-0.2724915,1.3790512-0.2724915
				c0.4859009,0,0.9014664,0.0936584,1.2464981,0.2788696s0.6508484,0.423645,0.9168167,0.7131958
				c0.2668152,0.2895508,0.4767303,0.6195068,0.6303864,0.9920654
				C102.1519775,336.9720764,102.2802734,337.344635,102.3823547,337.7129517z"/>
			<path class="st15" d="M110.3323288,358.4725952c-1.0762177-0.0304565-2.124733-0.0457764-3.1434174-0.0457764
				s-2.0669861,0.0153198-3.1444855,0.0457764v-0.6542358h0.6065216c0.1928635,0.0004272,0.374649-0.0019226,0.544075-0.007019
				c0.1698532-0.0048828,0.3309631-0.0176697,0.483345-0.0381165c0.1523743-0.0200195,0.2840805-0.0404358,0.3948975-0.0613098
				c0.0937729-0.014679,0.1715546-0.0613098,0.232933-0.1402893c0.0617981-0.0783386,0.0920639-0.165863,0.0920639-0.2627258
				v-8.5715027c-0.2926025,0.1273193-0.6527634,0.2239685-1.0802689,0.2895508
				c-0.4272919,0.065979-0.8957214,0.0987854-1.4052734,0.0983582v-0.6465759
				c0.7028503,0.0006409,1.3515625-0.0740662,1.9457245-0.2237244c0.594162-0.1492615,1.1088257-0.4298401,1.5414505-0.8409424
				h0.2727814c0.191803,0.0004272,0.2898331,0.0841064,0.2898331,0.2510071v9.6438293
				c0,0.1015625,0.02771,0.1905518,0.0873795,0.2665405c0.0575409,0.0762329,0.1427841,0.1217957,0.2536011,0.1364746
				c0.0937729,0.020874,0.2152481,0.0413208,0.3601608,0.0613098c0.147049,0.0204468,0.3132782,0.0332336,0.4965591,0.0381165
				c0.1854019,0.0050964,0.364418,0.0074463,0.5391769,0.007019h0.6329422V358.4725952z"/>
		</g>
		<path class="st2" d="M456.0539856,355.7567139c6.2666321-9.0734863,18.7093201-11.3525391,27.7911682-5.0924072
			c5.4056396,3.725647,8.6322327,9.8675842,8.6322327,16.4268188"/>
		<g class="st3">
			<defs>
				<rect id="SVGID_23_" x="470.5873413" y="310.7138367" width="31.1191406" height="43.936882"/>
			</defs>
			<clipPath id="SVGID_24_">
				<use xlink:href="#SVGID_23_"  style="overflow:visible;"/>
			</clipPath>
			<path class="st16" d="M478.8685608,331.6390991c-0.2514648,1.0240479-0.4716187,2.0561523-0.6585083,3.0967407
				c-0.1487732,0.7519531-0.2233582,1.5040894-0.2233582,2.2545471c0,0.2816467,0.0091858,0.5533142,0.0279236,0.8147583
				c0.0187683,0.3540344,0.0611572,0.6850891,0.1257324,0.9922791c0.0654297,0.3080444,0.1521912,0.5729065,0.2591553,0.7945251
				c0.1072083,0.2224731,0.25,0.3938599,0.4275208,0.5160522s0.3925476,0.1833191,0.644043,0.1824646
				c0.5319214,0.0008545,1.0291138-0.2478027,1.4913635-0.7459717c0.4622498-0.4975586,0.8980713-1.0960083,1.3093872-1.7936401
				c0.6159058-1.0135803,1.0917969-2.0405884,1.4283142-3.0820618c0.3364868-1.0406189,0.6254883-2.0503845,0.8675842-3.0296936
				H478.8685608z M485.7300415,324.3730774c-0.0372925-0.3512878-0.0839844-0.6812744-0.1402283-0.9899597
				c-0.0560608-0.3087158-0.1376648-0.5748291-0.2446594-0.8026123c-0.1069946-0.225647-0.2446594-0.400238-0.4130249-0.5215759
				c-0.1681519-0.1235046-0.3823242-0.1831055-0.644043-0.1852112c-0.5413208,0.0021057-1.040863,0.2533264-1.4979858,0.7557373
				c-0.4571228,0.5024414-0.9008484,1.1028137-1.3306885,1.7989502c-0.6161194,0.9963379-1.0917969,2.0203857-1.4282837,3.0699463
				c-0.3365173,1.0495605-0.6255188,2.0629272-0.8684692,3.0401001h5.6989441
				c0.252533-1.0218811,0.4861145-2.0629272,0.7002869-3.1231384c0.1495972-0.715332,0.2242126-1.4200134,0.2242126-2.1182861
				C485.7861023,324.990448,485.7675476,324.6817627,485.7300415,324.3730774z M487.6207886,324.0601196
				c0.2242126,0.8622131,0.3356628,1.7393188,0.3356628,2.6356201c0,0.2810059-0.0093689,0.5535278-0.0281067,0.8153687
				c-0.0927124,1.1964722-0.2932739,2.39505-0.6016235,3.5979004c-0.3356628,1.213501-0.7604065,2.4171753-1.2738037,3.6072693
				c-0.5131836,1.190918-1.1955872,2.3335266-2.0452576,3.4284363c-0.2887878,0.3717041-0.6091003,0.7393799-0.9592285,1.1008606
				c-0.3501587,0.3625488-0.7256775,0.6859436-1.12677,0.9712219c-0.401062,0.2850647-0.8192139,0.5186157-1.2533264,0.6984863
				c-0.4341125,0.1816101-0.88974,0.2716675-1.3654175,0.2716675c-0.48526,0-0.9034119-0.0926208-1.2533264-0.2784729
				c-0.3501587-0.1849976-0.6508789-0.4242859-0.9034119-0.7189331c-0.2514648-0.2937927-0.4596863-0.6222839-0.6227417-0.9846497
				c-0.1632385-0.3616943-0.2966309-0.7333984-0.399353-1.1144714c-0.2329407-0.841156-0.3501587-1.7103882-0.3501587-2.6077576
				c0-0.2884521,0.0187378-0.5737305,0.0560303-0.8555908c0.0748291-1.1764526,0.2753601-2.366333,0.6016235-3.5712891
				c0.3085938-1.213501,0.7239685-2.4120789,1.246521-3.5979004c0.523407-1.185791,1.2185974-2.333313,2.0870361-3.4382324
				c0.2896423-0.3704224,0.6073914-0.7387085,0.9524231-1.1049194c0.3450317-0.3682861,0.7137146-0.6940308,1.1054382-0.9793091
				c0.3927612-0.2852783,0.8055725-0.5173035,1.2398987-0.6982727c0.4341125-0.1809387,0.8937988-0.2724915,1.3790588-0.2724915
				c0.4859009,0,0.9014893,0.0936584,1.246521,0.2788696c0.3450317,0.1852417,0.6508484,0.4236755,0.9168396,0.7131958
				c0.2668152,0.2895508,0.4767151,0.6195068,0.6303711,0.9920959
				C487.3904114,323.3192444,487.5187073,323.691803,487.6207886,324.0601196z"/>
			<path class="st16" d="M496.2230225,344.8197632h-7.1498108v-0.418335c0-0.0300293,0.0176697-0.075592,0.0528564-0.1369019
				l2.8730164-2.783783c0.3388367-0.3340149,0.6819458-0.6763611,1.0314636-1.0261536
				c0.3473816-0.3497925,0.660675-0.7074585,0.9355774-1.0723267c0.2749329-0.3651123,0.4944153-0.7415161,0.6585388-1.1293945
				c0.164093-0.3879089,0.2450867-0.7949524,0.2450867-1.2211609c0-0.359375-0.0532837-0.6955261-0.1577148-1.0074158
				c-0.1065674-0.311676-0.2578735-0.5856628-0.4560852-0.8213501c-0.2003174-0.2356567-0.4475403-0.4259949-0.7480164-0.570343
				c-0.2983704-0.1445618-0.6436157-0.2167053-1.0357666-0.2173767c-0.5849915,0.0006714-1.1018066,0.1564941-1.5502014,0.4683838
				c-0.4475403,0.311676-0.7450562,0.6555176-0.891449,1.0299683c-0.0287781,0.010437,0.0181274,0.0157471,0.1406555,0.0151367
				h0.1491699c0.1758423,0.0361938,0.3277893,0.0908813,0.4567261,0.1641235
				c0.1289368,0.0736694,0.2371826,0.1748047,0.3251953,0.3042297c0.0877991,0.1292419,0.1315002,0.2850647,0.1315002,0.4673157
				c0,0.3046265-0.1108093,0.5379639-0.3335266,0.7001953c-0.2226868,0.1624146-0.4716187,0.2433472-0.7467651,0.2426758
				c-0.2631836,0.0006714-0.5093384-0.0802612-0.7375793-0.2426758c-0.2280273-0.1622314-0.3426819-0.3955688-0.3426819-0.7001953
				c0-0.4255981,0.0939636-0.8286133,0.2815247-1.2088318c0.1875305-0.3804321,0.4417725-0.7097778,0.7635803-0.9888611
				c0.3220215-0.2785034,0.7024231-0.4990234,1.1416626-0.6616821c0.4392395-0.1620178,0.905304-0.2433472,1.3976135-0.2437744
				c0.6073608,0.0004272,1.165741,0.0802612,1.6729431,0.2401428c0.5050964,0.159668,0.9377136,0.3891907,1.2957458,0.6882935
				c0.3559265,0.2993164,0.6351013,0.6454773,0.8375549,1.0380554c0.2024536,0.393219,0.3026428,0.8275146,0.3026428,1.3039856
				c0,0.5275574-0.1342773,1.0133667-0.4028015,1.4568176c-0.2706604,0.4438782-0.6031189,0.8509521-1.0016479,1.2207336
				c-0.3985291,0.3702087-0.8204956,0.7187195-1.2701721,1.0457458c-0.4475403,0.3269958-0.8524475,0.64505-1.2147522,0.953949
				l-2.0211792,1.6961365h2.6434937c0.3686829,0.0004272,0.7139282-0.0019226,1.0314636-0.0072632
				c0.3196716-0.0046692,0.590332-0.0151062,0.8141174-0.030426c0.2216187-0.0151062,0.3367004-0.025116,0.3409729-0.0308533
				c0.046875-0.0351563,0.0916443-0.1060181,0.1321411-0.2124939c0.0426025-0.1064453,0.0788574-0.231842,0.1150818-0.3763733
				c0.0340881-0.1445618,0.0703125-0.2914734,0.1044312-0.4411316c0.0362244-0.149231,0.0681763-0.313385,0.0980225-0.4911499
				h0.6478577L496.2230225,344.8197632z"/>
		</g>
		<line class="st13" x1="195.7987823" y1="176.3571167" x2="322.1638489" y2="176.3571167"/>
		<g class="st3">
			<defs>
				<rect id="SVGID_25_" x="154.2158966" y="169.2900543" width="29.7978668" height="43.6112366"/>
			</defs>
			<clipPath id="SVGID_26_">
				<use xlink:href="#SVGID_25_"  style="overflow:visible;"/>
			</clipPath>
			<path class="st17" d="M175.6915894,185.4486694c0.1598358-0.5705414,0.2663879-1.1219482,0.3218079-1.658432v-0.242691
				c0-0.4172821-0.1150818-0.7962341-0.3495178-1.1411133c-0.3079529-0.4066162-0.7190552-0.6940308-1.2324524-0.8622131
				c-0.5131836-0.1681824-1.0687714-0.2512207-1.6661377-0.2512207h-2.633255c-0.4758911,0-0.7606049,0.0361938-0.8541718,0.1085815
				c-0.093338,0.0723572-0.1911621,0.3299866-0.2938843,0.7727966l-1.9468079,7.4980927l3.5008545,0.0000153
				c0.6067352,0,1.214325-0.0851593,1.8210754-0.2575989c0.6067352-0.1724548,1.1759644-0.4662476,1.707901-0.8835144
				c0.4767456-0.4066162,0.8292389-0.8835144,1.0579071-1.4263916
				C175.353363,186.5621033,175.5424042,186.0107117,175.6915894,185.4486694z M178.6752014,185.5167999
				c-0.2067108,0.7323608-0.5562286,1.4114838-1.0506592,2.0310059c-0.4944153,0.6195221-1.0826263,1.1560211-1.7645874,1.6073456
				c-0.7375946,0.5088196-1.5235748,0.8898926-2.3598328,1.1496277c-0.8352051,0.2575989-1.6635895,0.3853302-2.4853516,0.3853302
				h-4.1593933l-1.7503204,6.7908783c-0.0560455,0.2003326-0.0841827,0.358078-0.0841827,0.4753876
				c0,0.1094208,0.02388,0.1773376,0.0705414,0.2035217c0.1308594,0.0823975,0.3874512,0.1298676,0.7697754,0.1434937
				c0.383194,0.0136261,0.7936554,0.0204315,1.2322388,0.0195923c0.2617035,0.0008545,0.3925629,0.1273041,0.3925629,0.3802185
				v0.0951691l-0.0562592,0.2444c-0.1027222,0.2716522-0.2845154,0.407486-0.5462189,0.407486
				c-1.1668091-0.0542908-2.3385162-0.081543-3.5144958-0.081543c-1.1853485,0-2.370697,0.0272369-3.5569,0.0815277
				c-0.2514801,0-0.3865967-0.1170959-0.4062042-0.3531952v-0.1085663l0.0560608-0.2309875
				c0.0747986-0.2978363,0.2565765-0.4430389,0.5455627-0.4345245c0.4392395,0.0008545,0.8548126-0.0059509,1.246521-0.019577
				c0.3925629-0.0136261,0.6815491-0.0610962,0.868454-0.1434937c0.1775208-0.0983582,0.3126373-0.3427582,0.406189-0.7332001
				l3.934967-15.3055573c0.0560455-0.200119,0.0833282-0.3534088,0.0833282-0.4619598
				c0-0.1085815-0.0230103-0.1724548-0.0696869-0.1916199c-0.1308594-0.0787659-0.3848877-0.1298523-0.7631683-0.1468811
				c-0.378067-0.019165-0.7910919-0.0276794-1.2397003-0.0276794c-0.260849,0-0.3917084-0.1213684-0.3917084-0.3683167v-0.1085815
				l0.0841827-0.2299194c0.0560608-0.2703857,0.2293243-0.4066162,0.5182953-0.4087524h8.9755859
				c0.8226318,0.0021362,1.5855865,0.1298828,2.2907867,0.3895874c0.7054138,0.2576294,1.3085327,0.6450806,1.8114929,1.1602783
				c0.4581909,0.4790192,0.7799988,1.0495758,0.9675446,1.7095337c0.0554047,0.3108368,0.0831146,0.6216583,0.0831146,0.9388733
				C178.813736,184.7376099,178.7668457,185.1186981,178.6752014,185.5167999z"/>
		</g>
		<path class="st18" d="M125.6884384,176.3571167l23.9753647,4.7901001l-4.7950745-3.5925598v-2.39505l4.7950745-3.5925903
			L125.6884384,176.3571167z M195.629364,177.554657h-50.7798309v-2.39505h50.7798309
			c0.6627808,0,1.198761,0.536499,1.198761,1.1975098C196.828125,177.018158,196.2921448,177.554657,195.629364,177.554657z"/>
		<path class="st18" d="M128.5761414,83.5432434l10.1687317,22.2121887l0.1033783-5.9865417l1.9425354-1.4040222
			l5.7242432,1.7755127L128.5761414,83.5432434z M194.8280487,177.0586243l-55.9915161-77.304657l1.9425354-1.4040222
			l55.9915161,77.3056946c0.3878632,0.5354309,0.2674561,1.2837524-0.2685242,1.6712036
			C195.9650116,177.7153931,195.2159119,177.5950928,194.8280487,177.0586243z"/>
		<path class="st18" d="M195.7987823,83.5432434l-4.7950745,23.95047l3.5963135-4.7901001h2.397522l3.5963135,4.7901001
			L195.7987823,83.5432434z M194.6000214,176.3571167v-73.6726685h2.397522v73.6726685
			c0,0.6610413-0.5370483,1.1975403-1.198761,1.1975403S194.6000214,177.018158,194.6000214,176.3571167z"/>
		<line class="st13" x1="128.5761414" y1="83.5432434" x2="195.629364" y2="83.5432434"/>
		<line class="st13" x1="125.6884384" y1="83.5432434" x2="125.6884384" y2="176.3571167"/>
		<g class="st3">
			<defs>
				<rect id="SVGID_27_" x="76.983284" y="60.9402924" width="46.5568466" height="43.6112366"/>
			</defs>
			<clipPath id="SVGID_28_">
				<use xlink:href="#SVGID_27_"  style="overflow:visible;"/>
			</clipPath>
			<path class="st19" d="M92.0862427,81.5121765c-0.3075256-0.60672-0.7469635-1.1070251-1.3161926-1.500885
				s-1.2226334-0.5897217-1.9602203-0.5897217c-0.5879822,0-1.1386719,0.1383667-1.6518478,0.4130249
				c-0.513176,0.2767639-0.9568787,0.6599731-1.3306808,1.1474915c-0.4104614,0.5535278-0.6738663,1.1708984-0.7910767,1.8543091
				c-0.1163635,0.6848755-0.1749725,1.3927307-0.1749649,2.1253052c0,0.7342529,0.0517807,1.4361877,0.1536484,2.1059265
				c0.1029358,0.6706238,0.3458862,1.2994995,0.7282104,1.8869019c0.3177567,0.462616,0.7213974,0.8345337,1.2117691,1.1146851
				c0.4901581,0.2808228,1.0061111,0.4208984,1.5463562,0.4200439c0.8123856,0.0008545,1.5312195-0.223114,2.1567078-0.6714478
				c0.6252823-0.4481506,1.1020126-1.0210571,1.4282913-1.7189026V81.5121765z M92.0862427,91.3991699v-1.6160583
				c-0.2981491,0.3717041-0.7765884,0.7325439-1.4351044,1.0804138c-0.6576767,0.3480835-1.3935547,0.5222473-2.2059479,0.5222473
				c-0.8582077,0-1.6703873-0.1673584-2.4361038-0.5018005c-0.7646484-0.3344727-1.4274368-0.7970886-1.9883499-1.3861389
				c-0.6065216-0.6331482-1.0662079-1.3344421-1.3790588-2.104248c-0.3126373-0.7689819-0.4699173-1.5796814-0.4699173-2.4318848
				c0-0.8505249,0.164093-1.6697388,0.4903717-2.457428c0.3271332-0.7877197,0.8030167-1.4838867,1.4282913-2.0906067
				c0.6254883-0.6067505,1.3400574-1.0751343,2.143074-1.4072266c0.803009-0.3299866,1.6433182-0.4960632,2.5202789-0.4960632
				c0.756134,0,1.445343,0.1618042,2.0654984,0.4832764c0.6212311,0.3214722,1.0621643,0.6493225,1.3230133,0.9835815v-5.6502075
				c0-0.2341919-0.0110779-0.4619751-0.0347366-0.6855164c-0.0230179-0.221405-0.1138-0.3895874-0.272789-0.5088196
				c-0.1589813-0.1085815-0.4113083-0.1703186-0.75634-0.1894531c-0.3448181-0.0170288-0.7230911-0.0276794-1.1341934-0.0276794
				v-1.1006775l4.41082-0.3257141v17.058075c0,0.2359009,0.01194,0.4626465,0.0347366,0.6797791
				c0.0238724,0.2173767,0.117218,0.3804321,0.2804642,0.4890137c0.1630325,0.1085815,0.418129,0.1748047,0.7629471,0.1969299
				c0.3458862,0.0230103,0.7282104,0.033844,1.1480408,0.0329895v1.1136475L92.0862427,91.3991699z"/>
			<path class="st19" d="M117.9565582,78.3486023c-0.1129456,0.4342957-0.3686829,0.6514587-0.7693405,0.6514587h-0.5754089
				c-0.2131119,0-0.3963852-0.0723877-0.5455704-0.2171631s-0.2237701-0.3214722-0.2237701-0.5300903v-0.0681458
				c0.0937653-0.8685913,0.1406555-1.6328735,0.1406555-2.2949829c0-0.6152649-0.1641006-1.1091614-0.4901581-1.4796143
				c-0.317543-0.3448792-0.7778702-0.5641479-1.3788452-0.6578369c-0.6031189-0.0957947-1.3106537-0.1426392-2.1226196-0.1447754
				h-3.305397c0.0298386,0.0021362,0.0745926-0.0297852,0.1406555-0.0957947v-0.0404358l-1.7645798,6.7636108h0.7416382
				c0.466713,0.0021362,0.8822861-0.019165,1.2467117-0.0596008c0.3644257-0.0404663,0.6926193-0.178833,0.9803238-0.4151611
				c0.2898331-0.2341614,0.5008163-0.5364685,0.637207-0.9090271c0.1363983-0.3704529,0.2685242-0.8047485,0.3985291-1.3050537
				c0.0554047-0.1618042,0.1534424-0.2916565,0.2877045-0.3917236c0.1363831-0.1000671,0.2919617-0.1511536,0.4688416-0.1511536
				h0.7288513c0.1960678,0.0638733,0.3409882,0.1660461,0.4326248,0.3065796
				c0.0937729,0.1405029,0.1406555,0.287384,0.1406555,0.4406738v0.136261l-0.8396683,3.2593994l-0.909996,3.5712891
				c-0.1022949,0.381073-0.3559036,0.5711975-0.7565536,0.570343h-0.5455704
				c-0.2152481,0.0008545-0.3964005-0.0713196-0.5455704-0.2165222c-0.1491852-0.1441345-0.2259064-0.3216858-0.2259064-0.5305176
				v-0.1358337c0.1513138-0.5601196,0.2429504-1.0133667,0.281311-1.3576355v-0.1766968
				c0-0.2171326-0.0426178-0.3832092-0.1257324-0.5024109c-0.0937729-0.1256104-0.2791824-0.2150269-0.5541-0.2640076
				c-0.2749176-0.0489502-0.6606522-0.0744934-1.1550751-0.0766296h-1.1486816l-1.9031067,7.4161377
				c-0.0937729-0.0170288-0.0703278-0.0263977,0.0681992-0.0272522h3.0112915
				c0.8034439,0.0008545,1.5898285-0.071106,2.3612976-0.2163086c0.7693481-0.1443176,1.4726257-0.4483337,2.1055756-0.9107361
				c0.7011414-0.4881592,1.2829437-1.1647339,1.7496567-2.0297241c0.4688492-0.8641357,0.9057388-1.76297,1.3170395-2.6967163
				c0.0852509-0.3240356,0.3175507-0.4794617,0.701149-0.4624329h0.5732803
				c0.1299973,0.0021362,0.2344208,0.019165,0.3090134,0.0553589c0.3068848,0.1268921,0.4624557,0.3578796,0.4624557,0.6923523
				c0,0.1000366-0.0341034,0.2003174-0.1001587,0.2986755l-2.868515,6.6005554
				c-0.1406555,0.3082581-0.3750763,0.4617615-0.7011414,0.4617615h-16.006134
				c-0.2233429,0-0.4076843-0.0764465-0.5521774-0.2308044c-0.1444931-0.152832-0.2167358-0.3250732-0.2175903-0.5160522V90.326416
				l0.0978241-0.3804626c0.0560455-0.1713562,0.1570663-0.3020935,0.3015518-0.3929749
				c0.1444931-0.0898438,0.2966537-0.1358337,0.4545746-0.1366882c0.4579773,0.0008545,0.9272614-0.003418,1.4088974-0.0125732
				c0.4794998-0.0085144,0.8460617-0.0314941,1.0975342-0.0687561c0.6265564-2.3531189,1.2957306-4.9267883,2.0096588-7.7205811
				c0.7139359-2.7931519,1.4022903-5.4564514,2.0650711-7.9920044c-0.0554047-0.0085449-0.3153992-0.0127869-0.784256-0.0149231
				h-1.3426132c-0.2258987,0.0021362-0.4091797-0.0744934-0.5541-0.2299194
				c-0.1449127-0.1532898-0.2173767-0.3257141-0.2173767-0.517334c0-0.0894165,0.0149231-0.1618042,0.0426254-0.2171631
				l0.0703278-0.2852478c0.0831146-0.3874817,0.3303299-0.5833435,0.7416382-0.5833435h15.5423965
				c0.2258911,0,0.4091721,0.0787659,0.5540924,0.2320557c0.1449127,0.1532898,0.2173767,0.3257446,0.2173767,0.5151978v0.093689
				L117.9565582,78.3486023z"/>
		</g>
		<g class="st3">
			<defs>
				<rect id="SVGID_29_" x="72.6485367" y="153.5903168" width="55.2282181" height="43.9368896"/>
			</defs>
			<clipPath id="SVGID_30_">
				<use xlink:href="#SVGID_29_"  style="overflow:visible;"/>
			</clipPath>
			<path class="st20" d="M87.7514343,174.1621704c-0.3075256-0.6046143-0.7469635-1.1048889-1.3161926-1.4987488
				c-0.5692215-0.3938599-1.2226257-0.5918579-1.9602127-0.5918579c-0.5879745,0-1.1386642,0.1383972-1.6518326,0.4151611
				c-0.513176,0.2767639-0.9568787,0.6578369-1.3306808,1.1453552c-0.4104538,0.5535278-0.6738663,1.1730347-0.7910767,1.8564148
				c-0.1163559,0.6834106-0.1749649,1.3912659-0.1749649,2.1238403c0,0.7342529,0.0517883,1.4361877,0.153656,2.1059265
				c0.1029358,0.6706238,0.3458862,1.2994995,0.7282104,1.8868713c0.317749,0.4626312,0.7213821,0.834549,1.2117538,1.114502
				c0.4901657,0.2810211,1.0061111,0.4211121,1.5463486,0.4202576c0.8123856,0.0008545,1.5312195-0.2233276,2.1567078-0.671463
				c0.6252747-0.4481354,1.102005-1.0210419,1.4282837-1.7189178V174.1621704z M87.7514343,184.0498047v-1.6160736
				c-0.2981491,0.3717041-0.7765884,0.7325592-1.4351044,1.0804291c-0.6576691,0.3480835-1.3935471,0.5220032-2.2059326,0.5220032
				c-0.8582077,0-1.6703796-0.1671143-2.4360962-0.5015717c-0.7646484-0.3344574-1.4274292-0.7970734-1.9883423-1.3861542
				c-0.6065216-0.6331482-1.0662079-1.3344116-1.3790512-2.1042175c-0.3126373-0.7689819-0.4699173-1.5796814-0.4699173-2.4318848
				c0-0.8505249,0.164093-1.6703796,0.4903717-2.4580688c0.3271255-0.7877197,0.803009-1.4838562,1.4282837-2.0906067
				c0.6254883-0.6067505,1.3400497-1.0751038,2.1430588-1.4050903c0.8030167-0.3299866,1.6433182-0.4960632,2.5202789-0.4981689
				c0.7561264,0.0021362,1.4453278,0.1639099,2.0654907,0.4832458c0.6212234,0.3214722,1.0621567,0.6493225,1.3230057,0.9835815
				v-5.6480713c0-0.2362976-0.0110855-0.4640808-0.0347366-0.6855164c-0.0230179-0.221405-0.1138077-0.3917236-0.272789-0.5109253
				c-0.1589813-0.1085815-0.4113083-0.1703186-0.7563324-0.1894836c-0.3448181-0.0170288-0.7230988-0.0276794-1.1341934-0.0276794
				v-1.100647l4.4108047-0.3257141v17.0584717c0,0.2361145,0.0119324,0.462616,0.0347366,0.6799927
				c0.0238647,0.2173615,0.1172104,0.3802185,0.2804565,0.4890137c0.1630325,0.1085663,0.418129,0.1747742,0.7629471,0.1969299
				c0.3458786,0.0227661,0.7282028,0.033844,1.1480408,0.0329895v1.1136475L87.7514343,184.0498047z"/>
			<path class="st20" d="M112.585907,170.6324158c-0.02771,0.1170959-0.0873718,0.2192993-0.1811447,0.3065796
				c-0.0937729,0.085144-0.1960678,0.1277466-0.3090134,0.1277466c-0.036232,0.0170288-0.0831146,0.0276794-0.1385269,0.0255432
				c-0.1129456,0.0021362-0.1683578-0.0085144-0.1683578-0.0255432c-0.2344208,0-0.3601608-0.1000671-0.3793411-0.3002014
				v-0.0936584c0.0575409-0.4257813,0.1044235-0.855835,0.1406555-1.2901306
				c0.0383606-0.334259,0.0554123-0.6429443,0.0554123-0.9239502v-0.2320557
				c-0.0170517-0.3598022-0.0618057-0.6834106-0.1321335-0.968689c-0.0681992-0.2852783-0.1939316-0.5279541-0.3708115-0.7280884
				c-0.355896-0.4151306-0.8822937-0.6620789-1.5834351-0.738739c-0.6990051-0.0766296-1.4470367-0.1170959-2.2398148-0.1170959
				h-3.0112839c-0.4944305,0-0.7821274,0.0383301-0.8673706,0.1085815c-0.0468903,0.0383301-0.1406555,0.3044434-0.281311,0.8026123
				l-1.7347412,6.6273499h1.9329376c0.5221252,0,0.9973679-0.0212708,1.4278564-0.0681152
				c0.430481-0.0447083,0.7991714-0.1809692,1.1060562-0.4087524c0.2813034-0.2256775,0.4922867-0.540741,0.637207-0.9494934
				c0.1449203-0.4066467,0.2876968-0.8728638,0.4262314-1.3987122c0.1022949-0.2703857,0.2813034-0.4023743,0.5327759-0.3938599
				h0.236557c0.2621307,0,0.3942566,0.1192322,0.3942566,0.3533936v0.093689l-1.7517853,6.7233582
				c-0.0554123,0.2816772-0.236557,0.417511-0.5455704,0.4072876h-0.2237701
				c-0.2621231,0.0008545-0.392128-0.1077271-0.392128-0.3259583c0-0.0534363,0.0149231-0.1034546,0.0404968-0.149231
				c0.1235962-0.5060425,0.2109833-0.9733582,0.2685165-1.3991394c0.0170517-0.1085815,0.0277023-0.20224,0.0277023-0.2852783
				c0-0.2533264-0.0575409-0.4555664-0.1683578-0.6109924c-0.1577072-0.2171631-0.4411392-0.3448792-0.8481827-0.3853455
				c-0.4049225-0.042572-0.8609772-0.0617371-1.3660583-0.0617371h-2.0160522l-1.9180145,7.4414673
				c-0.0937653,0.3174286-0.1406555,0.5535278-0.1406555,0.7063904v0.0542908
				c0.0383606,0.0372467,0.3004913,0.0593872,0.784256,0.0679016h3.2073517
				c0.8311462,0.0008545,1.6367035-0.05513,2.4167023-0.1690369c0.7799911-0.1128235,1.5045776-0.4006653,2.1758804-0.8632813
				c0.2983627-0.2162781,0.583931-0.5058289,0.8545837-0.8681641c0.2706528-0.3617249,0.5285187-0.7623901,0.7714691-1.2019958
				c0.2429504-0.4389954,0.4731064-0.9048157,0.6926193-1.3989258c0.2195053-0.4930725,0.436882-0.9803772,0.6499939-1.4608765
				c0.074585-0.2165222,0.2386856-0.3250732,0.4901581-0.3259277h0.2386856
				c0.2621307,0.0008545,0.392128,0.1187744,0.392128,0.3531799v0.1085815l-2.7875137,6.6277771
				c-0.1022949,0.2171631-0.2706528,0.325943-0.5029449,0.325943H93.8645782c-0.1402283,0-0.2429504-0.0408783-0.3083801-0.1224213
				c-0.0645676-0.0628052-0.096962-0.1307068-0.0978165-0.2035217c0.0008545-0.0536499,0.010231-0.1079407,0.0281296-0.1630707
				l0.0560532-0.2037506c0.0281296-0.1170807,0.0935516-0.2182159,0.1962738-0.3046417
				c0.1027222-0.0858002,0.2192917-0.1290131,0.3488693-0.1298676c0.4390106,0.0008545,0.8503189-0.0059662,1.2339172-0.0195923
				c0.3814774-0.0136108,0.6713104-0.0610962,0.8673706-0.1434784c0.1683655-0.0898438,0.2983627-0.3344574,0.392128-0.7334137
				l3.9340668-15.210144c0.0575409-0.2001343,0.0852432-0.357666,0.0852432-0.4768982
				c0-0.1064453-0.0234375-0.1703186-0.0703278-0.1894836c-0.1321259-0.0808716-0.3878632-0.1298523-0.7693329-0.1490173
				c-0.383606-0.0170288-0.7949142-0.0276794-1.2339249-0.0276794c-0.2600021,0-0.392128-0.1213379-0.392128-0.3661804v-0.0957947
				l0.0575409-0.2299194c0.074585-0.2980347,0.2557373-0.4470825,0.5455627-0.4492188h14.1847992
				c0.2344208,0.0021362,0.3601685,0.1149902,0.3772125,0.3406372v0.093689L112.585907,170.6324158z"/>
			<path class="st20" d="M122.8835297,181.9464417c-0.0639343,0.2286377-0.1939392,0.3997955-0.3899994,0.5137024
				c-0.1960602,0.1141052-0.3942566,0.1711578-0.592453,0.1707306c-0.2045898,0.0004272-0.3750839-0.0579071-0.5093384-0.1749878
				c-0.1001663-0.0855865-0.1513138-0.1971436-0.1577072-0.334671c0-0.0551453,0.0106583-0.1264648,0.0340958-0.2128906
				c0.0639343-0.1920471,0.1641006-0.3378601,0.2983551-0.4368591c0.1342621-0.0987854,0.2280426-0.1558533,0.281311-0.1716003
				c-0.110817-0.0755615-0.3388519-0.1134644-0.6840897-0.1141052c-0.3047562,0.0006409-0.5775375,0.1411438-0.8183517,0.4225769
				c-0.2386932,0.2814636-0.4177094,0.6199646-0.5349121,1.0148773l-0.8076935,2.7835693
				c-0.0831146,0.279541-0.1427917,0.5458679-0.1854095,0.7987823c-0.0234451,0.086441-0.0341034,0.1624451-0.0341034,0.2280121
				c0,0.157959,0.0298386,0.3072052,0.0873718,0.4487762c0.0596771,0.1526489,0.147049,0.2742004,0.264267,0.3655396
				c0.1172104,0.0913239,0.2663879,0.1368866,0.4475403,0.1364594c0.2344208,0.0004272,0.4603195-0.0536499,0.6755676-0.1630707
				c0.2173767-0.1087952,0.4176941-0.2556915,0.5988464-0.4411163c0.1811371-0.1850128,0.3409805-0.400238,0.4816284-0.6465607
				c0.1406555-0.2456818,0.2514801-0.4981689,0.3345947-0.7570496c0.0340958-0.1313477,0.1342621-0.1973419,0.2983551-0.1977692
				h0.2003326c0.1534348,0.0004272,0.2301559,0.0513,0.2301559,0.1520081c0,0.0308685-0.008522,0.05896-0.0255737,0.0836639
				c-0.0831146,0.3046417-0.2173691,0.6052551-0.4006577,0.9018097c-0.1854019,0.2965698-0.3985138,0.5590668-0.6457214,0.7870636
				c-0.2450867,0.2282257-0.5242615,0.4160004-0.8375397,0.5624695c-0.3154068,0.1473236-0.6499939,0.2205505-1.0058899,0.2205505
				c-0.3644257,0-0.6777039-0.069397-0.9398346-0.2092743c-0.2642517-0.1387939-0.4773712-0.3204041-0.6414642-0.5437164
				c-0.0532837-0.0551453-0.0937729-0.1121979-0.1236115-0.1707458c-0.0298309-0.0579071-0.0383606-0.0668488-0.0255737-0.0270386
				c-0.1406479,0.2082062-0.3622894,0.4187622-0.667038,0.6316528c-0.3047562,0.2131042-0.6563873,0.3191223-1.0549164,0.3191223
				c-0.2216339,0-0.4411392-0.0253296-0.6585083-0.0762177c-0.2173767-0.0502319-0.4049225-0.1287994-0.5668793-0.2352448
				c-0.161972-0.1064453-0.2834473-0.235672-0.3644257-0.3883209c-0.0404968-0.090683-0.0618057-0.189682-0.0618057-0.2965546
				c0-0.0755768,0.0127869-0.164566,0.036232-0.2663269c0.0639343-0.2275848,0.1960602-0.3987427,0.3942566-0.5128632
				c0.200325-0.1141052,0.3985214-0.1711578,0.5967178-0.1715851c0.2067184,0.0004272,0.3814697,0.05896,0.5285187,0.1749878
				c0.0980301,0.086441,0.1491776,0.1982117,0.1491776,0.334671c0,0.0713196-0.0127869,0.1426392-0.036232,0.2128906
				c-0.0511475,0.1777802-0.1470413,0.3212585-0.2855682,0.4302673c-0.1363907,0.1092072-0.2344284,0.1686096-0.2940979,0.1781921
				c0.110817,0.0817413,0.3367233,0.1198578,0.6755676,0.1141052c0.3047562,0.0004272,0.5818024-0.1411438,0.8268814-0.4255676
				c0.245079-0.2835846,0.4240875-0.6235657,0.5349121-1.0195465l0.8162231-2.7986908
				c0.0831146-0.2633514,0.147049-0.5220184,0.193924-0.7757874c0.0127945-0.0809021,0.0170517-0.1569061,0.0170517-0.2282257
				c0-0.1568909-0.0255661-0.3038025-0.0788498-0.4411011c-0.0575409-0.1515808-0.1491852-0.274231-0.2706528-0.3685303
				c-0.1236038-0.0934448-0.2770462-0.1405029-0.4581985-0.1411438c-0.2344208,0.0006409-0.4603195,0.0551453-0.6798248,0.1641541
				c-0.2195053,0.1091919-0.4198303,0.2546082-0.6009827,0.4372559c-0.1811447,0.1824646-0.3431091,0.3945007-0.4837646,0.6350708
				c-0.1406555,0.2409973-0.2429504,0.4958344-0.3068771,0.763855c-0.0639343,0.1373291-0.1726151,0.2082214-0.3260574,0.2128906
				h-0.191803c-0.1406555,0.0004272-0.2109833-0.0627899-0.2109833-0.1901093v-0.0532227
				c0.0873718-0.313797,0.2216339-0.6193085,0.4027786-0.9160767c0.1811447-0.2965546,0.3985214-0.5588531,0.6499939-0.7870636
				s0.5327835-0.4144897,0.8439255-0.5590515s0.6478653-0.2167358,1.0101547-0.2171631
				c0.3516388,0.0004272,0.6606522,0.0687561,0.9313049,0.2058716c0.2685242,0.1369019,0.4880295,0.3193359,0.6585159,0.546936
				c0.0341034,0.0561829,0.0660706,0.1160278,0.0959015,0.1792297c0.0298386,0.0636597,0.0383606,0.0798645,0.0255737,0.0489807
				c0.147049-0.2224731,0.3729553-0.4415283,0.6777039-0.6574097c0.3047485-0.2152405,0.6521225-0.3231812,1.0442505-0.3236084
				c0.2237701,0.0004272,0.4432755,0.0246887,0.6627808,0.0726013c0.2195129,0.0485535,0.4113159,0.1256104,0.5711441,0.2320557
				c0.1619644,0.1064453,0.2813034,0.2382202,0.3559036,0.394928c0.0404892,0.0917358,0.0617981,0.1958618,0.0617981,0.3118896
				C122.919754,181.7644043,122.9069672,181.8504028,122.8835297,181.9464417z"/>
		</g>
		<g class="st3">
			<defs>
				<rect id="SVGID_31_" x="199.5613098" y="60.7775116" width="54.6396027" height="43.9368896"/>
			</defs>
			<clipPath id="SVGID_32_">
				<use xlink:href="#SVGID_31_"  style="overflow:visible;"/>
			</clipPath>
			<path class="st21" d="M214.664093,81.3493652c-0.3075256-0.6046143-0.7469635-1.1049194-1.3161774-1.4987793
				c-0.5692291-0.3938293-1.2226257-0.5918274-1.9602051-0.5918274c-0.5879669,0-1.1386566,0.1383667-1.651825,0.4151306
				s-0.9568634,0.6578369-1.3306732,1.1453857c-0.4104462,0.5534973-0.6738586,1.1730347-0.7910614,1.8564148
				c-0.1163635,0.6833801-0.1749573,1.3912659-0.1749573,2.1238098c0,0.7342834,0.0517883,1.4361877,0.1536407,2.105957
				c0.1029358,0.6705933,0.3458862,1.2994995,0.7282104,1.8868713c0.317749,0.462616,0.7213898,0.8345337,1.2117462,1.114502
				c0.4901581,0.2810059,1.0061035,0.4210815,1.5463409,0.4202271c0.8123779,0.0008545,1.5312042-0.2232971,2.1566925-0.6714478
				c0.6252594-0.4481506,1.1019897-1.0210266,1.4282684-1.7189026V81.3493652z M214.664093,91.236969v-1.6160583
				c-0.2981415,0.3717041-0.7765808,0.7325439-1.4350891,1.0804138c-0.6576691,0.3480835-1.3935394,0.5220337-2.2059174,0.5220337
				c-0.8582001,0-1.6703644-0.1671448-2.4360809-0.5015869c-0.7646484-0.3344421-1.4274139-0.7970581-1.988327-1.3861389
				c-0.6065216-0.6331482-1.0661926-1.3344116-1.3790436-2.104248c-0.3126373-0.7689819-0.4699097-1.5796509-0.4699097-2.4318848
				c0-0.8504944,0.164093-1.6703491,0.4903717-2.4580688c0.3271179-0.7876892,0.8029938-1.4838562,1.4282684-2.0906067
				c0.625473-0.60672,1.3400421-1.0751038,2.1430359-1.4050903c0.803009-0.3299866,1.6433105-0.4960327,2.5202637-0.4981689
				c0.7561188,0.0021362,1.4453125,0.1639404,2.0654755,0.4832764c0.6212158,0.3214722,1.062149,0.6493225,1.322998,0.983551
				l-0.0000153-5.6480408c0-0.2362976-0.0110779-0.4641113-0.034729-0.6855164
				c-0.0230103-0.221405-0.1138-0.3917236-0.2727814-0.5109558c-0.1589813-0.108551-0.4113007-0.1703186-0.7563324-0.1894531
				c-0.3448181-0.0170288-0.7230835-0.0276794-1.1341858-0.0276794v-1.1006775l4.4107666-0.3257141l0.0000153,17.0585022
				c0,0.236084,0.0119324,0.462616,0.034729,0.6799622c0.02388,0.2173767,0.117218,0.380249,0.2804565,0.4890137
				c0.1630402,0.1085815,0.4181213,0.1748047,0.7629395,0.1969299c0.3458862,0.0227966,0.7281952,0.033844,1.1480255,0.03302
				v1.1136169L214.664093,91.236969z"/>
			<path class="st21" d="M239.4983673,77.8196106c-0.0276947,0.1170959-0.0873718,0.2192688-0.1811371,0.3065491
				c-0.0937653,0.0851746-0.1960602,0.1277466-0.309021,0.1277466c-0.0362244,0.0170288-0.0830994,0.0276794-0.1385193,0.0255432
				c-0.1129456,0.0021362-0.1683502-0.0085144-0.1683502-0.0255432c-0.2344208,0-0.3601532-0.1000671-0.3793488-0.3001709v-0.093689
				c0.0575562-0.4257813,0.1044312-0.8558044,0.1406555-1.2901306c0.0383606-0.3342285,0.0554199-0.6429138,0.0554199-0.9239502
				v-0.2320557c-0.0170593-0.3597717-0.0618134-0.6833801-0.1321411-0.9686584
				c-0.0681915-0.2852783-0.193924-0.5279846-0.3708038-0.7280884c-0.355896-0.4151611-0.8822784-0.6621094-1.5834198-0.738739
				c-0.6990051-0.0766602-1.4470215-0.1170959-2.2398071-0.1170959h-3.011261c-0.4944153,0-0.7821198,0.0383301-0.8673553,0.1085815
				c-0.0468903,0.0382996-0.1406555,0.3044128-0.281311,0.8025818l-1.734726,6.6273804h1.9329224
				c0.5221252,0,0.9973602-0.0213013,1.4278564-0.0681152c0.430481-0.0447083,0.7991638-0.1809692,1.1060333-0.408783
				c0.281311-0.225647,0.4922943-0.540741,0.637207-0.9494934c0.1449127-0.4066162,0.2877045-0.8728638,0.4262238-1.3987122
				c0.1022949-0.2703552,0.281311-0.4023438,0.5327759-0.3938293h0.236557c0.2621307,0,0.3942566,0.1192017,0.3942566,0.3533936
				v0.0936584l-1.75177,6.7233887c-0.0554199,0.2816467-0.236557,0.4174805-0.545578,0.4072571h-0.2237549
				c-0.2621307,0.0008545-0.3921204-0.1077271-0.3921204-0.3259277c0-0.0534363,0.0149078-0.1034851,0.0404816-0.149231
				c0.1236115-0.506073,0.2109833-0.9733582,0.2685242-1.3991394c0.0170441-0.1085815,0.0276947-0.20224,0.0276947-0.2852783
				c0-0.2533569-0.0575256-0.4555969-0.1683502-0.6110229c-0.1576996-0.2171326-0.4411469-0.3448792-0.8481903-0.3853149
				c-0.4049072-0.042572-0.8609619-0.0617371-1.3660431-0.0617371h-2.0160217l-1.9180145,7.4414673
				c-0.0937653,0.3174133-0.1406403,0.5535278-0.1406403,0.7063599v0.0542908
				c0.0383606,0.037262,0.3004913,0.0594177,0.7842407,0.0679321h3.2073364
				c0.831131,0.0008545,1.6366882-0.0551453,2.4166718-0.1690369c0.7799988-0.112854,1.5045776-0.4006653,2.1758728-0.8632813
				c0.2983551-0.2163086,0.5839233-0.5058289,0.8545837-0.8681946c0.2706451-0.3616943,0.5285034-0.7623596,0.7714539-1.2019958
				c0.2429504-0.4389648,0.4730988-0.9047852,0.6926117-1.3989258c0.2194977-0.493042,0.4368744-0.9803467,0.6499786-1.4608459
				c0.0746002-0.2165222,0.2386932-0.3251038,0.4901733-0.3259583h0.238678
				c0.2621155,0.0008545,0.3921204,0.1188049,0.3921204,0.3531799v0.1085815l-2.7874908,6.6278076
				c-0.1022949,0.2171326-0.2706451,0.3259277-0.5029449,0.3259277h-14.563385c-0.1402283,0-0.2429504-0.0408936-0.3083801-0.122406
				c-0.0645599-0.0628052-0.0969543-0.1307373-0.0978088-0.2035217c0.0008545-0.0536499,0.0102234-0.1079407,0.0281219-0.1630859
				l0.0560608-0.2037354c0.0281219-0.1170959,0.0935516-0.2182312,0.1962738-0.304657
				c0.1027222-0.0857849,0.2192841-0.1290283,0.3488617-0.1298523c0.4390106,0.000824,0.8503113-0.0059814,1.2339172-0.0195923
				c0.3814545-0.0136414,0.6712952-0.0610962,0.8673553-0.1434937c0.1683655-0.0898438,0.2983551-0.3344727,0.3921204-0.733429
				l3.9340363-15.210144c0.0575409-0.2001038,0.0852356-0.357666,0.0852356-0.4768677
				c0-0.1064453-0.0234375-0.1703186-0.0703278-0.1894836c-0.1321259-0.0809021-0.3878632-0.1298828-0.7693176-0.1490173
				c-0.383606-0.0170288-0.7949219-0.0276794-1.2339172-0.0276794c-0.2600098,0-0.3921356-0.1213684-0.3921356-0.3661804V72.399353
				l0.0575409-0.2299194c0.074585-0.2980652,0.2557373-0.4470825,0.5455627-0.4492188h14.1846924
				c0.2344208,0.0021362,0.3601532,0.1149597,0.3772125,0.3406372v0.0936584L239.4983673,77.8196106z"/>
			<path class="st21" d="M247.4367828,94.8376465c-0.1214752,0.4259949-0.3154144,0.8328552-0.5796661,1.2207336
				c-0.2621307,0.3879089-0.5732727,0.7330017-0.9291687,1.0344543c-0.358017,0.3016663-0.758667,0.5464783-1.204071,0.7338257
				c-0.4454041,0.1877747-0.9078522,0.2814636-1.3873596,0.2814636c-0.2876892,0-0.5498199-0.0466309-0.7906494-0.1407166
				c-0.2408142-0.093689-0.4368744-0.2205811-0.5881805-0.380249c-0.1534424-0.1598816-0.255722-0.3485107-0.3090057-0.5667114
				c-0.0234375-0.0960083-0.0341034-0.1947937-0.0341034-0.2965698c0-0.1317749,0.0170441-0.2661133,0.0532837-0.4029846
				c0.0639343-0.228241,0.1960602-0.3994141,0.3942566-0.5135193c0.2003174-0.1141052,0.3963776-0.1711731,0.5881805-0.1711731
				c0.2067261,0,0.3793335,0.0585632,0.5178528,0.1750183c0.100174,0.0864258,0.1491852,0.1977844,0.1491852,0.3346558
				c0,0.0559998-0.0106506,0.1245422-0.0341034,0.2052307c-0.0639343,0.228241-0.1960602,0.3993835-0.3942566,0.5134888
				c-0.2003174,0.1141357-0.358017,0.1711731-0.475235,0.1711731c0.0362396,0.1369019,0.1449127,0.2650452,0.3303375,0.3840637
				c0.1832733,0.1192322,0.4198151,0.1786194,0.7053833,0.1786194c0.3175354,0,0.6137695-0.0759888,0.8886719-0.2282104
				c0.2749176-0.1520081,0.5263977-0.355957,0.754425-0.6120911c0.2280273-0.2558899,0.4283447-0.5524597,0.6009674-0.8898926
				c0.1726227-0.3370056,0.3132782-0.6906128,0.4177094-1.0610352l0.0532684-0.1824646
				c-0.0873718,0.0713196-0.2727814,0.1639404-0.5540924,0.2776184c-0.281311,0.1141052-0.5881805,0.1711731-0.92276,0.1711731
				c-0.3963928,0-0.7522888-0.0655823-1.065567-0.1977844c-0.3132782-0.131134-0.5604706-0.334259-0.7437592-0.6084595
				c-0.1747437-0.2937927-0.2599945-0.6180115-0.2536011-0.9735413v-0.0609131
				c0.0106506-0.3697815,0.0639343-0.7372437,0.1576996-1.1027832c0.0937653-0.3493347,0.2301636-0.7342529,0.4091797-1.1555786
				c0.1790009-0.4206848,0.3495026-0.82901,0.5135956-1.2249756c0.1747437-0.4200439,0.2642517-0.7651367,0.2642517-1.0342407
				c0-0.2277832-0.1086731-0.3417053-0.3260498-0.3423462c-0.1981964,0.0006409-0.3793488,0.0513306-0.5391846,0.1526489
				c-0.1619568,0.1017761-0.3090057,0.2424927-0.4389954,0.4221802c-0.1321411,0.1801147-0.2514801,0.3930054-0.355896,0.6388855
				c-0.1065674,0.2460938-0.1939392,0.5079651-0.264267,0.7866516c-0.0639343,0.1372986-0.1726227,0.2081909-0.3260651,0.2128906
				h-0.2003174c-0.1406555,0.0004272-0.2109833-0.0628052-0.2109833-0.1901245v-0.0532227
				c0.0809784-0.2784729,0.1896667-0.563324,0.3239288-0.8551941c0.1363983-0.2914429,0.3047485-0.5560608,0.5093384-0.7947388
				c0.2067261-0.2382202,0.4411469-0.4360046,0.7032623-0.5933228c0.264267-0.1566772,0.564743-0.2356567,0.9057312-0.236084
				c0.2919617,0.0004272,0.5413055,0.0563965,0.7501526,0.1677551c0.2067108,0.1117554,0.3665466,0.2599487,0.4730988,0.4449463
				c0.1086884,0.1854248,0.1683655,0.3940735,0.1811523,0.6269531v0.0532227c0,0.2186584-0.0490112,0.4439087-0.1491852,0.6767883
				c-0.1704865,0.3959961-0.3388367,0.8004761-0.5050659,1.2137146c-0.1662292,0.4134521-0.2962189,0.784729-0.3899994,1.1140747
				c-0.0937653,0.3299866-0.1598358,0.6565552-0.193924,0.9808044c-0.0234528,0.0864258-0.0383606,0.1805115-0.044754,0.2812195
				c0,0.1982117,0.0383606,0.3936462,0.1150818,0.5856628c0.0532837,0.1730957,0.1491699,0.309967,0.2898254,0.4113159
				c0.1406555,0.1015625,0.3068848,0.1520081,0.5008087,0.1515808c0.3750763,0.0004272,0.7032776-0.0983582,0.9824524-0.2961426
				c0.2812958-0.1977539,0.5285187-0.4564209,0.7373505-0.7761841l1.4150696-4.9057007
				c0.0532837-0.1871338,0.1598358-0.3251038,0.3196716-0.4138794c0.1619568-0.088562,0.3239136-0.1332703,0.4880219-0.1336975
				c0.1704865,0.0004272,0.311142,0.0462036,0.4219513,0.1369019c0.0767212,0.0666199,0.1150818,0.1549683,0.1150818,0.2663269
				c0,0.0559998-0.0063934,0.1145325-0.0191803,0.1747742L247.4367828,94.8376465z"/>
		</g>
		<path class="st2" d="M184.1851196,159.9973755c9.0445709-6.3144226,21.5010986-4.1077881,27.8209991,4.9273987
			c2.3453369,3.3519897,3.6027069,7.3426819,3.6027069,11.4323425"/>
		<g class="st3">
			<defs>
				<rect id="SVGID_33_" x="203.5241547" y="122.6611786" width="22.5706177" height="43.6112061"/>
			</defs>
			<clipPath id="SVGID_34_">
				<use xlink:href="#SVGID_33_"  style="overflow:visible;"/>
			</clipPath>
			<path class="st22" d="M211.8052368,143.5864563c-0.2514648,1.0240173-0.4716187,2.055481-0.6585083,3.0960999
				c-0.1487579,0.7521667-0.2233429,1.5040894-0.2233429,2.2545471c0,0.2818604,0.0091705,0.5533142,0.0279236,0.8147278
				c0.0187531,0.3540649,0.0611572,0.6850891,0.1257324,0.9923096c0.0654297,0.3082581,0.1521606,0.5731201,0.25914,0.7945251
				c0.107193,0.2224731,0.2499847,0.3938599,0.4275055,0.5160522c0.1775208,0.122406,0.3925476,0.1835022,0.6440125,0.1826477
				c0.5319366,0.0008545,1.029129-0.2480164,1.4913635-0.7461853c0.4622345-0.4973145,0.8980408-1.0957642,1.3093567-1.7936096
				c0.6158905-1.0133972,1.0917664-2.0405884,1.4282684-3.0820618c0.3365021-1.0406189,0.625473-2.0497437,0.867569-3.0290527
				H211.8052368z M218.6665649,136.3204041c-0.0372925-0.3533936-0.0839691-0.6833801-0.1402283-0.9899597
				c-0.0560455-0.3086853-0.1376648-0.5747986-0.2446594-0.8026123c-0.1069794-0.225647-0.2446442-0.400238-0.4130096-0.5215759
				c-0.1681366-0.1234741-0.382309-0.1852112-0.6440125-0.1852112c-0.5413055,0-1.0408325,0.2511902-1.4979706,0.7536316
				c-0.4571228,0.5045471-0.9008179,1.1027832-1.330658,1.7989502c-0.6161041,0.9963379-1.0917664,2.0203552-1.4282684,3.0699158
				c-0.3365021,1.0516968-0.6254883,2.0650635-0.8684235,3.0422363h5.6988068
				c0.252533-1.0218811,0.4860992-2.0629272,0.7002716-3.1231384c0.1496124-0.7153015,0.2241974-1.4221191,0.2241974-2.1182861
				C218.7226105,136.9356689,218.704071,136.6290894,218.6665649,136.3204041z M220.5572815,136.0074463
				c0.2241974,0.8601074,0.3356628,1.7393494,0.3356628,2.6356201c0,0.2810364-0.0093842,0.5535278-0.0281372,0.8132629
				c-0.0926971,1.1964417-0.2932434,2.3971863-0.6016083,3.6000366c-0.3356476,1.2134705-0.760376,2.4165344-1.2737732,3.6065979
				c-0.5131683,1.1909485-1.1955414,2.3335266-2.0452271,3.4284363c-0.2887573,0.3719482-0.6090698,0.7393799-0.9592133,1.1011047
				c-0.3501282,0.3623352-0.7256317,0.68573-1.126709,0.9710083s-0.8191986,0.5185852-1.2533112,0.6984863
				c-0.4341125,0.1816101-0.88974,0.2716675-1.3654022,0.2716675c-0.48526,0-0.9033813-0.0924072-1.2533112-0.2784729
				c-0.3501434-0.1849976-0.6508331-0.4242859-0.9033813-0.7189331c-0.2514648-0.2935791-0.459671-0.6221008-0.6227112-0.9846497
				c-0.1632385-0.3614807-0.2966461-0.733429-0.3993683-1.114502c-0.2329254-0.8411255-0.3501434-1.7103882-0.3501434-2.6075134
				c0-0.2886658,0.0187531-0.5739441,0.0560455-0.8556213c0.0747986-1.1764526,0.2753448-2.3658752,0.6016083-3.572998
				c0.3085938-1.2113647,0.723938-2.4099426,1.2464905-3.5979004c0.523407-1.185791,1.2185669-2.3311768,2.0870056-3.4360962
				c0.2896118-0.3704224,0.6073608-0.738739,0.9523926-1.1070251c0.3450165-0.3661804,0.7136993-0.691925,1.1054077-0.9772034
				c0.3927612-0.2852783,0.8055573-0.5173035,1.2398834-0.6982727c0.4340973-0.1809692,0.8937836-0.2724915,1.3790283-0.2724915
				c0.4859009,0,0.901474,0.0936584,1.2464905,0.2788696c0.3450317,0.1852417,0.6508484,0.4236755,0.9168091,0.7131958
				c0.2668152,0.2895508,0.4767303,0.6195374,0.6303864,0.9899597
				C220.3269043,135.266571,220.4552002,135.6370239,220.5572815,136.0074463z"/>
		</g>
		<g class="st3">
			<defs>
				<rect id="SVGID_35_" x="201.4494934" y="15.4024811" width="23.0634308" height="43.6112366"/>
			</defs>
			<clipPath id="SVGID_36_">
				<use xlink:href="#SVGID_35_"  style="overflow:visible;"/>
			</clipPath>
			<path class="st23" d="M216.4215546,45.4541016c-0.1954193,0.7604675-0.5040131,1.4870605-0.923645,2.1795959
				c-0.4198303,0.6927795-0.9151154,1.309082-1.4845581,1.8470764c-0.5692291,0.539032-1.2081604,0.9763184-1.9178314,1.310791
				c-0.7094727,0.335083-1.4470673,0.5024109-2.2134247,0.5024109c-0.4571381,0-0.8769836-0.083252-1.2601624-0.2512207
				c-0.3823242-0.1673279-0.6949768-0.3938293-0.9381409-0.6791077c-0.2429504-0.2852783-0.4062042-0.6223145-0.4901581-1.0119019
				c-0.0375214-0.1713867-0.0560608-0.3478699-0.0560608-0.5296631c0-0.2350464,0.0279236-0.4751892,0.0839691-0.7198181
				c0.1029358-0.4072571,0.312851-0.7129517,0.6306152-0.9167175c0.317749-0.2037354,0.6304016-0.305481,0.9379272-0.305481
				c0.3273468,0,0.602478,0.1043091,0.8260345,0.3123169c0.1589813,0.154541,0.2378387,0.3531799,0.2378387,0.5975952
				c0,0.1002502-0.0185394,0.2224731-0.0560455,0.3667908c-0.1018677,0.4072876-0.3117981,0.7129822-0.6295471,0.9167175
				c-0.3177643,0.2035522-0.5694427,0.3055115-0.7563477,0.3055115c0.0560455,0.2444153,0.2312317,0.4736938,0.525116,0.6859436
				c0.2940979,0.2128906,0.6696167,0.3191223,1.1267395,0.3191223c0.5048828,0,0.9762878-0.1358032,1.4148865-0.4074707
				c0.4392242-0.271637,0.8411713-0.6356812,1.2047424-1.0934143c0.3637848-0.456665,0.6832581-0.9863281,0.9585876-1.5888367
				c0.2753601-0.6018372,0.496994-1.23349,0.6653595-1.8947449l0.0841827-0.3259277
				c-0.139389,0.1272888-0.4334869,0.2929382-0.8820953,0.4958191c-0.4477539,0.2037354-0.9381409,0.3055115-1.470932,0.3055115
				c-0.6338043,0-1.2015381-0.1170959-1.7010956-0.3532104c-0.4995422-0.2341614-0.8937988-0.5965271-1.1836395-1.0863953
				c-0.2796173-0.5245667-0.4147339-1.1034241-0.4062042-1.7384949v-0.108551
				c0.0187531-0.6604004,0.1029358-1.3165588,0.2523346-1.9692688c0.1495972-0.6239929,0.3671875-1.3114319,0.6517029-2.0635681
				c0.284729-0.7510986,0.5575104-1.4804688,0.8183594-2.1872864c0.2804718-0.7514954,0.4207001-1.3667603,0.4207001-1.8479004
				c0-0.4066467-0.1726227-0.6088867-0.5182953-0.6110229c-0.3171234,0.0021362-0.604187,0.0915527-0.8607788,0.272522
				c-0.2568054,0.183075-0.490387,0.4342957-0.7003021,0.7536316c-0.2099152,0.3214722-0.3993835,0.7025452-0.5675354,1.1411133
				c-0.1683502,0.4406738-0.3077393,0.9069214-0.4198303,1.4050903c-0.1027222,0.2454529-0.2753448,0.3719177-0.5182953,0.3804321
				h-0.3220215c-0.224411,0.0008545-0.3365173-0.1121826-0.3365173-0.3399963v-0.0936584
				c0.1308594-0.4981689,0.3041229-1.0069885,0.5182953-1.5285645c0.2150421-0.5194702,0.4861298-0.9920959,0.8124084-1.4178772
				c0.3271332-0.4257813,0.700943-0.7792053,1.1207733-1.0602112c0.419632-0.2810059,0.9006348-0.4215393,1.4419403-0.4215393
				c0.4673767,0,0.8658905,0.1000671,1.1972961,0.3002014c0.3313904,0.197998,0.583725,0.4641113,0.756134,0.7940979
				c0.1734772,0.3299866,0.2685242,0.7025452,0.2872772,1.119812v0.0936584c0,0.3917236-0.0790558,0.7940979-0.238678,1.209259
				c-0.2702332,0.7067871-0.5379181,1.4295654-0.8047333,2.1672363c-0.265976,0.7385254-0.4733276,1.4014893-0.6229401,1.9897156
				c-0.1493988,0.5890808-0.2523193,1.1721802-0.3083801,1.7510376c-0.0375061,0.1545715-0.0603027,0.3227539-0.0696869,0.502655
				c0,0.3538208,0.0611725,0.7027588,0.1817932,1.0457153c0.0841827,0.3088989,0.2380524,0.5535278,0.4622498,0.7342834
				c0.224411,0.1815796,0.4903717,0.271637,0.7978973,0.2707825c0.5982208,0.0008545,1.1207886-0.1758423,1.5685425-0.5288086
				c0.448822-0.3532104,0.8405304-0.8149719,1.1761932-1.3861694l2.2541199-8.7605591
				c0.0850372-0.3342285,0.2548828-0.579071,0.5116882-0.738739c0.2565918-0.1575317,0.5157471-0.2384338,0.7765961-0.2384338
				c0.2710876,0,0.495285,0.0830383,0.6730347,0.2448425c0.12146,0.1192017,0.181778,0.2767639,0.181778,0.4747314
				c0,0.1000671-0.0093689,0.2043762-0.0281219,0.3129578L216.4215546,45.4541016z"/>
		</g>
	</g>
</g>
</svg>
