<?xml version="1.0" encoding="UTF-8"?>
<svg xmlns="http://www.w3.org/2000/svg" xmlns:xlink="http://www.w3.org/1999/xlink" width="589.98pt" height="438pt" viewBox="0 0 589.98 438" version="1.1">
<defs>
<clipPath id="clip1">
  <path d="M 316 402 L 331 402 L 331 423 L 316 423 Z M 316 402 "/>
</clipPath>
<clipPath id="clip2">
  <path d="M 310.921875 435.390625 L 349.078125 435.390625 L 349.074219 391.78125 L 310.921875 391.78125 Z M 310.921875 435.390625 "/>
</clipPath>
<clipPath id="clip3">
  <path d="M 330 409 L 345 409 L 345 423 L 330 423 Z M 330 409 "/>
</clipPath>
<clipPath id="clip4">
  <path d="M 310.921875 435.390625 L 349.078125 435.390625 L 349.074219 391.78125 L 310.921875 391.78125 Z M 310.921875 435.390625 "/>
</clipPath>
</defs>
<g id="surface1">
<path style="fill:none;stroke-width:15;stroke-linecap:round;stroke-linejoin:round;stroke:rgb(0%,0%,0%);stroke-opacity:1;stroke-miterlimit:10;" d="M 575.798638 686.635059 L 4434.239718 686.635059 L 4434.239718 776.652417 L 575.798638 776.652417 Z M 575.798638 686.635059 " transform="matrix(0.106557,0,0,-0.106446,0,444.9727)"/>
<path style=" stroke:none;fill-rule:nonzero;fill:rgb(0%,0%,0%);fill-opacity:1;" d="M 11.988281 366.292969 L 559.523438 366.292969 L 559.523438 367.890625 L 11.988281 367.890625 C 11.546875 367.890625 11.1875 367.53125 11.1875 367.09375 C 11.1875 366.652344 11.546875 366.292969 11.988281 366.292969 Z M 577.40625 367.09375 L 555.03125 362.300781 L 559.503906 366.292969 L 559.503906 367.890625 L 555.03125 371.882812 Z M 577.40625 367.09375 "/>
<path style=" stroke:none;fill-rule:evenodd;fill:rgb(0%,0%,0%);fill-opacity:1;" d="M 569.359375 380.828125 C 569.257812 381.238281 569.050781 381.542969 568.738281 381.746094 C 568.425781 381.949219 568.109375 382.050781 567.792969 382.050781 C 567.46875 382.050781 567.195312 381.949219 566.980469 381.738281 C 566.824219 381.585938 566.738281 381.386719 566.730469 381.140625 C 566.730469 381.042969 566.746094 380.914062 566.785156 380.761719 C 566.886719 380.417969 567.046875 380.15625 567.261719 379.980469 C 567.476562 379.804688 567.625 379.703125 567.710938 379.675781 C 567.53125 379.539062 567.167969 379.472656 566.617188 379.46875 C 566.132812 379.472656 565.695312 379.722656 565.316406 380.226562 C 564.933594 380.726562 564.648438 381.332031 564.460938 382.039062 L 563.171875 387.007812 C 563.042969 387.507812 562.941406 387.984375 562.878906 388.433594 C 562.839844 388.589844 562.820312 388.722656 562.820312 388.839844 C 562.820312 389.125 562.867188 389.390625 562.960938 389.644531 C 563.054688 389.914062 563.195312 390.132812 563.382812 390.296875 C 563.570312 390.457031 563.808594 390.539062 564.097656 390.539062 C 564.46875 390.539062 564.828125 390.441406 565.175781 390.246094 C 565.519531 390.054688 565.839844 389.792969 566.128906 389.460938 C 566.414062 389.128906 566.671875 388.746094 566.898438 388.304688 C 567.121094 387.867188 567.296875 387.417969 567.429688 386.953125 C 567.484375 386.71875 567.644531 386.601562 567.90625 386.601562 L 568.226562 386.601562 C 568.46875 386.601562 568.589844 386.691406 568.589844 386.871094 C 568.589844 386.925781 568.578125 386.976562 568.550781 387.023438 C 568.417969 387.566406 568.207031 388.101562 567.914062 388.632812 C 567.617188 389.160156 567.277344 389.628906 566.882812 390.039062 C 566.492188 390.445312 566.046875 390.78125 565.546875 391.042969 C 565.046875 391.304688 564.511719 391.433594 563.941406 391.433594 C 563.363281 391.433594 562.863281 391.3125 562.445312 391.0625 C 562.023438 390.8125 561.683594 390.488281 561.421875 390.089844 C 561.339844 389.992188 561.273438 389.890625 561.226562 389.785156 C 561.179688 389.683594 561.164062 389.667969 561.183594 389.738281 C 560.960938 390.109375 560.605469 390.484375 560.121094 390.867188 C 559.632812 391.246094 559.074219 391.433594 558.4375 391.433594 C 558.085938 391.433594 557.734375 391.390625 557.390625 391.300781 C 557.042969 391.210938 556.742188 391.070312 556.484375 390.878906 C 556.230469 390.6875 556.035156 390.457031 555.90625 390.1875 C 555.839844 390.023438 555.808594 389.847656 555.804688 389.65625 C 555.808594 389.519531 555.828125 389.363281 555.863281 389.179688 C 555.964844 388.773438 556.175781 388.46875 556.492188 388.265625 C 556.8125 388.0625 557.128906 387.960938 557.445312 387.957031 C 557.773438 387.960938 558.050781 388.0625 558.285156 388.269531 C 558.445312 388.425781 558.523438 388.625 558.523438 388.867188 C 558.523438 388.996094 558.503906 389.125 558.46875 389.25 C 558.382812 389.566406 558.230469 389.824219 558.011719 390.015625 C 557.792969 390.210938 557.636719 390.316406 557.542969 390.335938 C 557.71875 390.480469 558.078125 390.550781 558.621094 390.539062 C 559.105469 390.539062 559.546875 390.285156 559.9375 389.78125 C 560.328125 389.273438 560.613281 388.664062 560.792969 387.957031 L 562.09375 382.960938 C 562.222656 382.492188 562.328125 382.027344 562.402344 381.574219 C 562.421875 381.429688 562.429688 381.292969 562.429688 381.167969 C 562.429688 380.886719 562.386719 380.625 562.304688 380.382812 C 562.210938 380.109375 562.066406 379.890625 561.871094 379.722656 C 561.671875 379.554688 561.429688 379.472656 561.140625 379.46875 C 560.769531 379.472656 560.40625 379.570312 560.054688 379.761719 C 559.707031 379.960938 559.386719 380.21875 559.097656 380.542969 C 558.808594 380.871094 558.550781 381.25 558.328125 381.675781 C 558.101562 382.109375 557.941406 382.5625 557.835938 383.042969 C 557.734375 383.289062 557.5625 383.414062 557.320312 383.421875 L 557.011719 383.421875 C 556.785156 383.421875 556.675781 383.308594 556.675781 383.082031 L 556.675781 382.988281 C 556.816406 382.425781 557.03125 381.882812 557.320312 381.351562 C 557.609375 380.820312 557.953125 380.351562 558.355469 379.945312 C 558.757812 379.539062 559.207031 379.207031 559.699219 378.949219 C 560.195312 378.691406 560.730469 378.5625 561.308594 378.5625 C 561.871094 378.5625 562.363281 378.683594 562.792969 378.925781 C 563.222656 379.171875 563.574219 379.496094 563.84375 379.902344 C 563.898438 380.003906 563.953125 380.113281 564 380.226562 C 564.046875 380.339844 564.058594 380.367188 564.039062 380.3125 C 564.273438 379.914062 564.632812 379.523438 565.117188 379.136719 C 565.605469 378.753906 566.160156 378.5625 566.785156 378.5625 C 567.140625 378.5625 567.492188 378.605469 567.84375 378.691406 C 568.191406 378.777344 568.496094 378.914062 568.753906 379.105469 C 569.007812 379.296875 569.199219 379.53125 569.320312 379.808594 C 569.386719 379.972656 569.417969 380.160156 569.417969 380.367188 C 569.417969 380.503906 569.398438 380.65625 569.359375 380.828125 Z M 569.359375 380.828125 "/>
<path style=" stroke:none;fill-rule:nonzero;fill:rgb(0%,0%,0%);fill-opacity:1;" d="M 195 414.382812 L 194.835938 39.183594 L 196.4375 39.183594 L 196.597656 414.382812 C 196.597656 414.824219 196.242188 415.179688 195.796875 415.179688 C 195.359375 415.179688 195 414.824219 195 414.382812 Z M 195.628906 21.316406 L 190.84375 43.671875 L 194.835938 39.199219 L 196.4375 39.199219 L 200.433594 43.667969 Z M 195.628906 21.316406 "/>
<path style=" stroke:none;fill-rule:evenodd;fill:rgb(0%,0%,0%);fill-opacity:1;" d="M 187.917969 387.992188 C 187.582031 389.308594 187.039062 390.574219 186.289062 391.796875 C 185.535156 393.019531 184.589844 394.136719 183.453125 395.152344 C 182.425781 396.066406 181.300781 396.792969 180.082031 397.332031 C 178.867188 397.871094 177.644531 398.140625 176.421875 398.140625 C 175.191406 398.140625 174.09375 397.867188 173.136719 397.324219 C 172.183594 396.78125 171.417969 396.046875 170.847656 395.125 C 170.222656 394.101562 169.863281 392.96875 169.769531 391.730469 C 169.734375 391.429688 169.714844 391.132812 169.714844 390.832031 C 169.714844 389.902344 169.835938 388.9375 170.078125 387.941406 C 170.433594 386.609375 170.980469 385.316406 171.722656 384.0625 C 172.46875 382.808594 173.417969 381.675781 174.574219 380.660156 C 175.601562 379.746094 176.722656 379.011719 177.941406 378.453125 C 179.160156 377.898438 180.390625 377.617188 181.632812 377.617188 C 182.863281 377.617188 183.953125 377.898438 184.902344 378.460938 C 185.847656 379.023438 186.609375 379.765625 187.175781 380.6875 C 187.800781 381.710938 188.171875 382.851562 188.285156 384.109375 C 188.300781 384.417969 188.3125 384.722656 188.3125 385.019531 C 188.3125 385.988281 188.179688 386.980469 187.917969 387.992188 Z M 185.089844 381.148438 C 184.78125 380.386719 184.320312 379.769531 183.703125 379.296875 C 183.085938 378.820312 182.332031 378.582031 181.433594 378.582031 C 180.546875 378.582031 179.667969 378.824219 178.789062 379.308594 C 177.910156 379.792969 177.128906 380.421875 176.4375 381.1875 C 175.566406 382.125 174.882812 383.132812 174.378906 384.226562 C 173.875 385.316406 173.480469 386.425781 173.203125 387.546875 C 172.875 388.769531 172.675781 389.960938 172.597656 391.117188 C 172.582031 391.335938 172.570312 391.554688 172.570312 391.769531 C 172.570312 392.675781 172.722656 393.5625 173.019531 394.429688 C 173.308594 395.203125 173.753906 395.847656 174.351562 396.367188 C 174.949219 396.890625 175.695312 397.148438 176.589844 397.148438 C 177.515625 397.148438 178.417969 396.882812 179.300781 396.355469 C 180.183594 395.824219 180.972656 395.171875 181.671875 394.390625 C 182.578125 393.339844 183.285156 392.230469 183.789062 391.0625 C 184.292969 389.894531 184.703125 388.707031 185.019531 387.492188 C 185.308594 386.359375 185.492188 385.246094 185.566406 384.148438 L 185.566406 383.675781 C 185.566406 382.769531 185.40625 381.925781 185.089844 381.148438 Z M 185.089844 381.148438 "/>
<path style=" stroke:none;fill-rule:nonzero;fill:rgb(0%,0%,0%);fill-opacity:1;" d="M 212.566406 389.371094 L 298.910156 389.371094 L 298.910156 390.570312 L 212.566406 390.570312 Z M 195.796875 389.972656 L 212.582031 393.5625 L 212.582031 386.378906 Z M 315.675781 389.972656 L 298.894531 386.378906 L 298.894531 393.5625 Z M 315.675781 389.972656 "/>
<path style="fill:none;stroke-width:7.5;stroke-linecap:round;stroke-linejoin:round;stroke:rgb(0%,0%,0%);stroke-opacity:1;stroke-miterlimit:10;" d="M 1837.482074 641.644728 L 1837.482074 391.775917 " transform="matrix(0.106557,0,0,-0.106446,0,444.9727)"/>
<path style="fill:none;stroke-width:7.5;stroke-linecap:round;stroke-linejoin:round;stroke:rgb(0%,0%,0%);stroke-opacity:1;stroke-miterlimit:10;" d="M 2962.501772 641.644728 L 2962.501772 391.775917 " transform="matrix(0.106557,0,0,-0.106446,0,444.9727)"/>
<path style=" stroke:none;fill-rule:evenodd;fill:rgb(0%,0%,0%);fill-opacity:1;" d="M 261.679688 403.980469 C 261.578125 404.390625 261.367188 404.695312 261.054688 404.898438 C 260.742188 405.101562 260.429688 405.203125 260.109375 405.203125 C 259.785156 405.203125 259.511719 405.101562 259.296875 404.890625 C 259.140625 404.738281 259.054688 404.539062 259.046875 404.292969 C 259.046875 404.195312 259.066406 404.066406 259.101562 403.910156 C 259.203125 403.570312 259.363281 403.308594 259.578125 403.132812 C 259.792969 402.957031 259.941406 402.855469 260.027344 402.828125 C 259.851562 402.691406 259.484375 402.625 258.933594 402.621094 C 258.449219 402.625 258.015625 402.875 257.632812 403.378906 C 257.25 403.878906 256.964844 404.484375 256.777344 405.1875 L 255.488281 410.160156 C 255.359375 410.660156 255.261719 411.132812 255.195312 411.585938 C 255.15625 411.742188 255.140625 411.875 255.140625 411.992188 C 255.140625 412.273438 255.1875 412.542969 255.28125 412.792969 C 255.371094 413.066406 255.511719 413.285156 255.699219 413.449219 C 255.886719 413.609375 256.125 413.691406 256.414062 413.691406 C 256.789062 413.691406 257.148438 413.59375 257.492188 413.398438 C 257.835938 413.207031 258.15625 412.941406 258.445312 412.613281 C 258.734375 412.28125 258.988281 411.898438 259.214844 411.457031 C 259.4375 411.019531 259.617188 410.566406 259.746094 410.105469 C 259.800781 409.871094 259.960938 409.753906 260.222656 409.753906 L 260.542969 409.753906 C 260.785156 409.753906 260.910156 409.84375 260.910156 410.023438 C 260.910156 410.078125 260.894531 410.128906 260.867188 410.171875 C 260.734375 410.71875 260.523438 411.253906 260.230469 411.785156 C 259.9375 412.3125 259.59375 412.78125 259.199219 413.1875 C 258.808594 413.597656 258.363281 413.933594 257.863281 414.195312 C 257.363281 414.457031 256.828125 414.585938 256.261719 414.585938 C 255.679688 414.585938 255.179688 414.464844 254.761719 414.214844 C 254.34375 413.964844 254 413.640625 253.738281 413.242188 C 253.65625 413.144531 253.589844 413.042969 253.542969 412.9375 C 253.496094 412.835938 253.480469 412.820312 253.5 412.890625 C 253.277344 413.261719 252.921875 413.636719 252.4375 414.019531 C 251.953125 414.398438 251.390625 414.585938 250.757812 414.585938 C 250.402344 414.585938 250.050781 414.542969 249.707031 414.453125 C 249.359375 414.363281 249.058594 414.222656 248.804688 414.03125 C 248.546875 413.839844 248.351562 413.609375 248.222656 413.339844 C 248.15625 413.175781 248.125 413 248.125 412.808594 C 248.125 412.671875 248.144531 412.515625 248.179688 412.332031 C 248.28125 411.925781 248.492188 411.621094 248.808594 411.417969 C 249.128906 411.214844 249.445312 411.113281 249.761719 411.109375 C 250.089844 411.113281 250.371094 411.214844 250.601562 411.421875 C 250.761719 411.578125 250.839844 411.777344 250.839844 412.019531 C 250.839844 412.148438 250.820312 412.273438 250.785156 412.402344 C 250.699219 412.71875 250.550781 412.976562 250.328125 413.167969 C 250.109375 413.363281 249.953125 413.46875 249.859375 413.488281 C 250.039062 413.632812 250.398438 413.703125 250.9375 413.691406 C 251.425781 413.691406 251.863281 413.4375 252.253906 412.929688 C 252.648438 412.425781 252.929688 411.816406 253.109375 411.109375 L 254.410156 406.113281 C 254.542969 405.644531 254.644531 405.179688 254.71875 404.726562 C 254.738281 404.582031 254.746094 404.445312 254.746094 404.320312 C 254.746094 404.039062 254.707031 403.777344 254.621094 403.53125 C 254.527344 403.261719 254.382812 403.042969 254.1875 402.875 C 253.992188 402.707031 253.75 402.625 253.460938 402.621094 C 253.085938 402.625 252.722656 402.722656 252.375 402.914062 C 252.023438 403.113281 251.703125 403.371094 251.414062 403.695312 C 251.125 404.023438 250.871094 404.402344 250.644531 404.828125 C 250.421875 405.257812 250.257812 405.714844 250.152344 406.195312 C 250.050781 406.441406 249.878906 406.566406 249.636719 406.574219 L 249.328125 406.574219 C 249.105469 406.574219 248.992188 406.460938 248.992188 406.234375 L 248.992188 406.140625 C 249.132812 405.578125 249.347656 405.035156 249.636719 404.503906 C 249.925781 403.972656 250.269531 403.503906 250.671875 403.097656 C 251.074219 402.691406 251.523438 402.359375 252.015625 402.101562 C 252.511719 401.84375 253.050781 401.710938 253.625 401.710938 C 254.1875 401.710938 254.683594 401.835938 255.109375 402.078125 C 255.539062 402.324219 255.890625 402.648438 256.160156 403.054688 C 256.21875 403.15625 256.269531 403.265625 256.316406 403.378906 C 256.363281 403.492188 256.375 403.519531 256.359375 403.464844 C 256.589844 403.066406 256.949219 402.675781 257.4375 402.289062 C 257.921875 401.90625 258.476562 401.710938 259.101562 401.710938 C 259.457031 401.710938 259.808594 401.757812 260.160156 401.84375 C 260.507812 401.929688 260.8125 402.066406 261.070312 402.253906 C 261.328125 402.449219 261.515625 402.679688 261.636719 402.960938 C 261.703125 403.125 261.734375 403.3125 261.734375 403.519531 C 261.734375 403.65625 261.714844 403.808594 261.679688 403.980469 Z M 261.679688 403.980469 "/>
<path style=" stroke:none;fill-rule:nonzero;fill:rgb(0%,0%,0%);fill-opacity:1;" d="M 361.210938 389.371094 L 464.324219 389.371094 C 464.652344 389.371094 464.921875 389.640625 464.921875 389.972656 C 464.921875 390.300781 464.652344 390.570312 464.324219 390.570312 L 361.210938 390.570312 Z M 344.445312 389.972656 L 361.230469 393.5625 L 361.230469 386.378906 Z M 344.445312 389.972656 "/>
<path style="fill:none;stroke-width:7.5;stroke-linecap:round;stroke-linejoin:round;stroke:rgb(0%,0%,0%);stroke-opacity:1;stroke-miterlimit:10;" d="M 3232.493303 641.644728 L 3232.493303 391.775917 " transform="matrix(0.106557,0,0,-0.106446,0,444.9727)"/>
<path style="fill:none;stroke-width:7.5;stroke-linecap:round;stroke-linejoin:round;stroke:rgb(0%,0%,0%);stroke-opacity:1;stroke-miterlimit:10;" d="M 4357.513001 641.644728 L 4357.513001 391.775917 " transform="matrix(0.106557,0,0,-0.106446,0,444.9727)"/>
<g clip-path="url(#clip1)" clip-rule="nonzero">
<g clip-path="url(#clip2)" clip-rule="nonzero">
<path style=" stroke:none;fill-rule:evenodd;fill:rgb(0%,0%,0%);fill-opacity:1;" d="M 326.023438 422.238281 L 326.023438 420.621094 C 325.726562 420.996094 325.246094 421.355469 324.589844 421.703125 C 323.929688 422.050781 323.195312 422.226562 322.382812 422.226562 C 321.523438 422.226562 320.710938 422.058594 319.945312 421.722656 C 319.179688 421.390625 318.519531 420.925781 317.957031 420.335938 C 317.351562 419.703125 316.890625 419.003906 316.578125 418.234375 C 316.265625 417.464844 316.109375 416.652344 316.109375 415.800781 C 316.109375 414.949219 316.273438 414.132812 316.597656 413.34375 C 316.925781 412.554688 317.402344 411.859375 318.027344 411.253906 C 318.652344 410.648438 319.367188 410.179688 320.171875 409.847656 C 320.972656 409.515625 321.8125 409.351562 322.691406 409.351562 C 323.445312 409.351562 324.136719 409.511719 324.757812 409.832031 C 325.378906 410.15625 325.816406 410.484375 326.078125 410.816406 L 326.078125 405.167969 C 326.078125 404.933594 326.066406 404.703125 326.042969 404.480469 C 326.019531 404.257812 325.929688 404.089844 325.773438 403.972656 C 325.613281 403.863281 325.359375 403.800781 325.015625 403.78125 C 324.671875 403.765625 324.292969 403.753906 323.882812 403.753906 L 323.882812 402.65625 L 328.292969 402.328125 L 328.292969 419.386719 C 328.292969 419.621094 328.304688 419.847656 328.328125 420.066406 C 328.351562 420.285156 328.445312 420.445312 328.605469 420.554688 C 328.769531 420.664062 329.023438 420.730469 329.371094 420.753906 C 329.714844 420.777344 330.097656 420.785156 330.519531 420.785156 L 330.519531 421.898438 Z M 326.023438 412.351562 C 325.714844 411.746094 325.277344 411.246094 324.707031 410.851562 C 324.136719 410.457031 323.484375 410.261719 322.746094 410.261719 C 322.160156 410.261719 321.609375 410.398438 321.09375 410.675781 C 320.582031 410.949219 320.136719 411.335938 319.765625 411.820312 C 319.355469 412.375 319.089844 412.992188 318.972656 413.675781 C 318.855469 414.359375 318.796875 415.070312 318.796875 415.800781 C 318.796875 416.535156 318.851562 417.238281 318.953125 417.90625 C 319.054688 418.578125 319.296875 419.207031 319.679688 419.792969 C 319.996094 420.257812 320.402344 420.628906 320.890625 420.910156 C 321.382812 421.191406 321.898438 421.328125 322.4375 421.328125 C 323.25 421.328125 323.96875 421.105469 324.59375 420.65625 C 325.21875 420.210938 325.695312 419.636719 326.023438 418.9375 Z M 326.023438 412.351562 "/>
</g>
</g>
<g clip-path="url(#clip3)" clip-rule="nonzero">
<g clip-path="url(#clip4)" clip-rule="nonzero">
<path style=" stroke:none;fill-rule:evenodd;fill:rgb(0%,0%,0%);fill-opacity:1;" d="M 344.457031 411.644531 C 344.355469 412.054688 344.148438 412.359375 343.835938 412.5625 C 343.523438 412.765625 343.207031 412.867188 342.890625 412.867188 C 342.5625 412.867188 342.292969 412.765625 342.078125 412.554688 C 341.917969 412.402344 341.835938 412.203125 341.824219 411.957031 C 341.824219 411.859375 341.84375 411.730469 341.882812 411.578125 C 341.984375 411.234375 342.144531 410.972656 342.355469 410.796875 C 342.570312 410.621094 342.722656 410.519531 342.804688 410.492188 C 342.628906 410.355469 342.265625 410.289062 341.714844 410.285156 C 341.226562 410.289062 340.792969 410.539062 340.410156 411.042969 C 340.03125 411.546875 339.742188 412.148438 339.554688 412.855469 L 338.269531 417.824219 C 338.136719 418.324219 338.039062 418.800781 337.976562 419.25 C 337.9375 419.40625 337.917969 419.542969 337.917969 419.660156 C 337.917969 419.941406 337.964844 420.207031 338.058594 420.460938 C 338.152344 420.730469 338.292969 420.949219 338.476562 421.113281 C 338.664062 421.277344 338.902344 421.355469 339.191406 421.355469 C 339.566406 421.355469 339.925781 421.261719 340.269531 421.066406 C 340.617188 420.871094 340.933594 420.609375 341.222656 420.277344 C 341.511719 419.945312 341.769531 419.5625 341.996094 419.121094 C 342.21875 418.683594 342.394531 418.234375 342.523438 417.769531 C 342.582031 417.535156 342.742188 417.417969 343 417.417969 L 343.324219 417.417969 C 343.566406 417.417969 343.6875 417.507812 343.6875 417.6875 C 343.6875 417.746094 343.671875 417.792969 343.644531 417.839844 C 343.515625 418.382812 343.304688 418.917969 343.007812 419.449219 C 342.714844 419.976562 342.371094 420.445312 341.980469 420.855469 C 341.585938 421.261719 341.140625 421.597656 340.644531 421.859375 C 340.140625 422.121094 339.609375 422.253906 339.039062 422.253906 C 338.460938 422.253906 337.960938 422.128906 337.539062 421.878906 C 337.121094 421.632812 336.78125 421.308594 336.515625 420.90625 C 336.433594 420.808594 336.367188 420.707031 336.324219 420.601562 C 336.277344 420.5 336.261719 420.484375 336.28125 420.554688 C 336.058594 420.925781 335.699219 421.300781 335.214844 421.683594 C 334.730469 422.0625 334.171875 422.253906 333.535156 422.253906 C 333.179688 422.253906 332.832031 422.207031 332.484375 422.117188 C 332.140625 422.027344 331.839844 421.886719 331.582031 421.695312 C 331.324219 421.507812 331.132812 421.277344 331 421.003906 C 330.9375 420.839844 330.902344 420.664062 330.902344 420.472656 C 330.902344 420.339844 330.921875 420.179688 330.957031 419.996094 C 331.0625 419.589844 331.273438 419.285156 331.589844 419.082031 C 331.90625 418.878906 332.222656 418.777344 332.539062 418.777344 C 332.867188 418.777344 333.148438 418.878906 333.382812 419.089844 C 333.539062 419.242188 333.617188 419.441406 333.617188 419.6875 C 333.617188 419.8125 333.601562 419.941406 333.5625 420.066406 C 333.480469 420.382812 333.328125 420.640625 333.109375 420.835938 C 332.890625 421.03125 332.730469 421.136719 332.636719 421.152344 C 332.816406 421.296875 333.175781 421.367188 333.71875 421.355469 C 334.203125 421.355469 334.640625 421.105469 335.035156 420.597656 C 335.425781 420.089844 335.710938 419.484375 335.886719 418.777344 L 337.191406 413.777344 C 337.320312 413.308594 337.421875 412.847656 337.496094 412.390625 C 337.515625 412.246094 337.523438 412.109375 337.523438 411.984375 C 337.523438 411.703125 337.484375 411.441406 337.398438 411.199219 C 337.308594 410.925781 337.164062 410.707031 336.96875 410.539062 C 336.769531 410.371094 336.527344 410.289062 336.238281 410.285156 C 335.863281 410.289062 335.503906 410.386719 335.152344 410.582031 C 334.800781 410.777344 334.480469 411.035156 334.195312 411.363281 C 333.90625 411.6875 333.648438 412.066406 333.425781 412.496094 C 333.199219 412.925781 333.035156 413.378906 332.933594 413.859375 C 332.832031 414.105469 332.65625 414.230469 332.414062 414.238281 L 332.105469 414.238281 C 331.882812 414.242188 331.769531 414.128906 331.769531 413.898438 L 331.769531 413.804688 C 331.910156 413.242188 332.125 412.699219 332.414062 412.167969 C 332.703125 411.636719 333.050781 411.171875 333.449219 410.761719 C 333.851562 410.355469 334.300781 410.023438 334.796875 409.765625 C 335.289062 409.507812 335.828125 409.378906 336.40625 409.378906 C 336.96875 409.378906 337.460938 409.5 337.890625 409.742188 C 338.320312 409.988281 338.667969 410.3125 338.941406 410.722656 C 338.996094 410.820312 339.050781 410.929688 339.097656 411.042969 C 339.140625 411.15625 339.15625 411.183594 339.136719 411.128906 C 339.371094 410.730469 339.730469 410.339844 340.214844 409.953125 C 340.699219 409.570312 341.253906 409.378906 341.882812 409.378906 C 342.238281 409.378906 342.589844 409.421875 342.9375 409.507812 C 343.289062 409.59375 343.59375 409.730469 343.847656 409.921875 C 344.105469 410.113281 344.296875 410.347656 344.414062 410.628906 C 344.480469 410.792969 344.511719 410.976562 344.511719 411.183594 C 344.511719 411.320312 344.496094 411.476562 344.457031 411.644531 Z M 344.457031 411.644531 "/>
</g>
</g>
<path style=" stroke:none;fill-rule:evenodd;fill:rgb(0%,0%,0%);fill-opacity:1;" d="M 199.636719 176.355469 C 199.636719 178.472656 197.917969 180.1875 195.796875 180.1875 C 193.679688 180.1875 191.960938 178.472656 191.960938 176.355469 C 191.960938 174.242188 193.679688 172.523438 195.796875 172.523438 C 197.917969 172.523438 199.636719 174.242188 199.636719 176.355469 Z M 199.636719 176.355469 "/>
<path style=" stroke:none;fill-rule:evenodd;fill:rgb(0%,0%,0%);fill-opacity:1;" d="M 213.109375 282.96875 C 212.996094 283.414062 212.871094 283.890625 212.730469 284.398438 C 212.59375 284.90625 212.40625 285.375 212.171875 285.808594 C 211.9375 286.246094 211.644531 286.621094 211.289062 286.9375 C 210.933594 287.253906 210.492188 287.410156 209.957031 287.410156 C 209.25 287.410156 208.683594 287.214844 208.257812 286.820312 C 207.832031 286.429688 207.589844 286.027344 207.523438 285.617188 C 207.203125 285.980469 206.730469 286.371094 206.101562 286.789062 C 205.472656 287.203125 204.804688 287.410156 204.105469 287.410156 C 203.367188 287.410156 202.75 287.226562 202.25 286.855469 C 201.75 286.484375 201.363281 286.019531 201.082031 285.457031 C 200.746094 284.785156 200.566406 284.066406 200.550781 283.296875 L 200.550781 283.09375 C 200.550781 282.378906 200.648438 281.664062 200.84375 280.945312 C 201.066406 280.160156 201.378906 279.382812 201.78125 278.613281 C 202.183594 277.84375 202.714844 277.128906 203.378906 276.464844 C 203.917969 275.921875 204.539062 275.464844 205.234375 275.09375 C 205.929688 274.722656 206.636719 274.535156 207.355469 274.535156 C 207.980469 274.535156 208.488281 274.703125 208.878906 275.03125 C 209.273438 275.363281 209.519531 275.636719 209.625 275.855469 L 209.566406 276.085938 C 209.632812 275.75 209.789062 275.496094 210.035156 275.324219 C 210.285156 275.15625 210.535156 275.066406 210.785156 275.066406 C 211.074219 275.066406 211.316406 275.152344 211.515625 275.324219 C 211.636719 275.460938 211.699219 275.640625 211.710938 275.867188 C 211.710938 275.949219 211.699219 276.039062 211.679688 276.140625 L 209.664062 283.988281 C 209.570312 284.359375 209.503906 284.710938 209.46875 285.035156 C 209.449219 285.199219 209.441406 285.347656 209.441406 285.484375 C 209.441406 285.601562 209.449219 285.726562 209.46875 285.863281 C 209.496094 286.082031 209.5625 286.246094 209.664062 286.351562 C 209.765625 286.460938 209.910156 286.515625 210.097656 286.515625 C 210.296875 286.515625 210.480469 286.433594 210.652344 286.273438 C 210.824219 286.109375 210.984375 285.867188 211.128906 285.546875 C 211.273438 285.222656 211.410156 284.839844 211.542969 284.390625 C 211.671875 283.941406 211.808594 283.457031 211.945312 282.929688 C 212.003906 282.695312 212.160156 282.578125 212.421875 282.578125 L 212.746094 282.578125 C 212.988281 282.578125 213.109375 282.675781 213.109375 282.875 Z M 209.105469 277.972656 C 209.066406 277.8125 209.035156 277.640625 209.007812 277.464844 C 208.980469 277.289062 208.9375 277.113281 208.878906 276.941406 C 208.730469 276.515625 208.519531 276.160156 208.242188 275.875 C 207.96875 275.589844 207.621094 275.449219 207.199219 275.445312 C 206.808594 275.449219 206.421875 275.589844 206.039062 275.867188 C 205.65625 276.148438 205.304688 276.511719 204.988281 276.953125 C 204.539062 277.578125 204.203125 278.230469 203.980469 278.902344 C 203.753906 279.578125 203.550781 280.28125 203.363281 281.015625 C 203.175781 281.738281 203.023438 282.441406 202.902344 283.121094 C 202.828125 283.464844 202.789062 283.789062 202.789062 284.097656 C 202.789062 284.425781 202.828125 284.742188 202.902344 285.046875 C 202.984375 285.476562 203.136719 285.824219 203.355469 286.101562 C 203.574219 286.378906 203.882812 286.515625 204.273438 286.515625 C 204.703125 286.515625 205.136719 286.367188 205.570312 286.066406 C 206.003906 285.769531 206.40625 285.402344 206.78125 284.96875 C 206.929688 284.785156 207.070312 284.613281 207.207031 284.445312 C 207.34375 284.277344 207.460938 284.097656 207.5625 283.90625 Z M 209.105469 277.972656 "/>
<path style="fill-rule:evenodd;fill:rgb(91.799927%,75.698853%,13.299561%);fill-opacity:1;stroke-width:15;stroke-linecap:round;stroke-linejoin:round;stroke:rgb(0%,0%,0%);stroke-opacity:1;stroke-miterlimit:10;" d="M 2962.501772 686.635059 L 3232.493303 686.635059 L 3232.493303 776.652417 L 2962.501772 776.652417 Z M 2962.501772 686.635059 " transform="matrix(0.106557,0,0,-0.106446,0,444.9727)"/>
<path style="fill:none;stroke-width:15;stroke-linecap:round;stroke-linejoin:round;stroke:rgb(0%,0%,0%);stroke-opacity:1;stroke-miterlimit:10;" d="M 3104.407707 731.625389 L 1837.482074 2523.495584 " transform="matrix(0.106557,0,0,-0.106446,0,444.9727)"/>
<path style="fill:none;stroke-width:15;stroke-linecap:round;stroke-linejoin:round;stroke:rgb(0%,0%,0%);stroke-opacity:1;stroke-miterlimit:10;" d="M 2996.997635 885.348469 C 3081.899249 944.650569 3198.767273 923.916852 3258.117753 839.037052 C 3280.11299 807.551159 3291.9171 770.046985 3291.9171 731.625389 " transform="matrix(0.106557,0,0,-0.106446,0,444.9727)"/>
<path style=" stroke:none;fill-rule:evenodd;fill:rgb(0%,0%,0%);fill-opacity:1;" d="M 355.722656 324.222656 C 355.949219 325.085938 356.058594 325.964844 356.058594 326.859375 C 356.058594 327.140625 356.050781 327.414062 356.03125 327.671875 C 355.9375 328.871094 355.738281 330.070312 355.429688 331.273438 C 355.09375 332.488281 354.667969 333.6875 354.15625 334.878906 C 353.644531 336.070312 352.960938 337.214844 352.109375 338.308594 C 351.820312 338.679688 351.5 339.046875 351.152344 339.410156 C 350.800781 339.769531 350.425781 340.09375 350.023438 340.378906 C 349.625 340.664062 349.207031 340.898438 348.773438 341.078125 C 348.335938 341.261719 347.882812 341.351562 347.40625 341.351562 C 346.921875 341.351562 346.503906 341.257812 346.152344 341.070312 C 345.804688 340.886719 345.503906 340.648438 345.25 340.351562 C 345 340.058594 344.789062 339.730469 344.625 339.367188 C 344.464844 339.007812 344.332031 338.632812 344.226562 338.253906 C 343.996094 337.414062 343.878906 336.542969 343.878906 335.644531 C 343.878906 335.359375 343.894531 335.070312 343.933594 334.789062 C 344.007812 333.613281 344.207031 332.425781 344.535156 331.21875 C 344.84375 330.007812 345.257812 328.808594 345.78125 327.621094 C 346.304688 326.433594 347 325.289062 347.867188 324.183594 C 348.15625 323.8125 348.476562 323.445312 348.820312 323.078125 C 349.164062 322.710938 349.535156 322.382812 349.925781 322.097656 C 350.320312 321.8125 350.730469 321.582031 351.167969 321.402344 C 351.601562 321.21875 352.058594 321.128906 352.546875 321.128906 C 353.03125 321.128906 353.445312 321.222656 353.792969 321.40625 C 354.136719 321.59375 354.441406 321.832031 354.707031 322.121094 C 354.976562 322.410156 355.183594 322.738281 355.339844 323.109375 C 355.492188 323.484375 355.621094 323.855469 355.722656 324.222656 Z M 353.832031 324.535156 C 353.796875 324.183594 353.75 323.855469 353.691406 323.546875 C 353.636719 323.238281 353.554688 322.972656 353.449219 322.746094 C 353.339844 322.519531 353.203125 322.34375 353.035156 322.222656 C 352.867188 322.097656 352.652344 322.039062 352.390625 322.039062 C 351.851562 322.039062 351.351562 322.289062 350.894531 322.792969 C 350.4375 323.296875 349.992188 323.894531 349.5625 324.589844 C 348.945312 325.585938 348.472656 326.609375 348.132812 327.660156 C 347.796875 328.710938 347.507812 329.726562 347.265625 330.703125 L 352.964844 330.703125 C 353.21875 329.679688 353.449219 328.640625 353.664062 327.578125 C 353.816406 326.863281 353.890625 326.15625 353.890625 325.460938 C 353.890625 325.152344 353.871094 324.84375 353.832031 324.535156 Z M 346.972656 331.804688 C 346.71875 332.828125 346.5 333.859375 346.3125 334.898438 C 346.164062 335.652344 346.089844 336.402344 346.089844 337.152344 C 346.089844 337.433594 346.097656 337.707031 346.117188 337.96875 C 346.136719 338.324219 346.179688 338.652344 346.242188 338.960938 C 346.308594 339.269531 346.394531 339.535156 346.503906 339.753906 C 346.609375 339.976562 346.753906 340.148438 346.929688 340.269531 C 347.109375 340.394531 347.324219 340.453125 347.574219 340.453125 C 348.105469 340.453125 348.605469 340.207031 349.066406 339.707031 C 349.527344 339.210938 349.964844 338.613281 350.375 337.914062 C 350.992188 336.902344 351.46875 335.875 351.804688 334.832031 C 352.140625 333.792969 352.429688 332.78125 352.671875 331.804688 Z M 346.972656 331.804688 "/>
<path style="fill:none;stroke-width:15;stroke-linecap:round;stroke-linejoin:round;stroke:rgb(0%,0%,0%);stroke-opacity:1;stroke-dasharray:120,60;stroke-miterlimit:10;" d="M 1837.482074 2523.495584 L 4434.203059 731.625389 " transform="matrix(0.106557,0,0,-0.106446,0,444.9727)"/>
<path style="fill:none;stroke-width:15;stroke-linecap:round;stroke-linejoin:round;stroke:rgb(0%,0%,0%);stroke-opacity:1;stroke-dasharray:120,60;stroke-miterlimit:10;" d="M 1837.482074 2523.495584 L 575.761979 731.625389 " transform="matrix(0.106557,0,0,-0.106446,0,444.9727)"/>
<path style=" stroke:none;fill-rule:evenodd;fill:rgb(0%,0%,0%);fill-opacity:1;" d="M 260.828125 283.445312 C 260.726562 283.84375 260.519531 284.144531 260.207031 284.347656 C 259.894531 284.550781 259.578125 284.652344 259.261719 284.652344 C 258.933594 284.652344 258.664062 284.550781 258.449219 284.339844 C 258.273438 284.195312 258.183594 283.996094 258.183594 283.742188 C 258.183594 283.617188 258.203125 283.488281 258.238281 283.363281 C 258.324219 283.046875 258.46875 282.796875 258.679688 282.617188 C 258.890625 282.433594 259.03125 282.335938 259.105469 282.316406 C 258.894531 282.152344 258.449219 282.074219 257.777344 282.070312 C 257.066406 282.074219 256.4375 282.359375 255.878906 282.9375 C 255.324219 283.511719 254.824219 284.289062 254.375 285.261719 L 252.34375 293.03125 C 252.261719 293.367188 252.089844 293.617188 251.832031 293.785156 C 251.578125 293.953125 251.316406 294.035156 251.054688 294.035156 C 250.777344 294.035156 250.5625 293.945312 250.410156 293.765625 C 250.289062 293.648438 250.230469 293.484375 250.230469 293.277344 C 250.230469 293.195312 250.238281 293.097656 250.257812 292.976562 L 252.414062 284.570312 C 252.5625 283.984375 252.636719 283.476562 252.636719 283.050781 L 252.636719 282.722656 C 252.589844 282.289062 252.371094 282.074219 251.980469 282.070312 C 251.570312 282.074219 251.226562 282.402344 250.949219 283.0625 C 250.675781 283.726562 250.40625 284.585938 250.144531 285.644531 C 250.042969 285.890625 249.871094 286.015625 249.625 286.023438 L 249.304688 286.023438 C 249.082031 286.023438 248.96875 285.910156 248.96875 285.683594 L 248.96875 285.589844 C 249.082031 285.164062 249.207031 284.699219 249.347656 284.199219 C 249.488281 283.695312 249.675781 283.222656 249.90625 282.773438 C 250.140625 282.324219 250.433594 281.945312 250.789062 281.628906 C 251.144531 281.320312 251.585938 281.164062 252.117188 281.164062 C 252.828125 281.164062 253.402344 281.363281 253.835938 281.765625 C 254.269531 282.171875 254.511719 282.566406 254.570312 282.953125 C 254.898438 282.519531 255.351562 282.113281 255.933594 281.734375 C 256.519531 281.355469 257.1875 281.164062 257.945312 281.164062 C 258.320312 281.164062 258.699219 281.203125 259.085938 281.277344 C 259.472656 281.355469 259.8125 281.480469 260.109375 281.65625 C 260.402344 281.835938 260.621094 282.070312 260.761719 282.355469 C 260.84375 282.539062 260.890625 282.742188 260.898438 282.96875 C 260.898438 283.105469 260.875 283.261719 260.828125 283.445312 Z M 260.828125 283.445312 "/>
<path style="fill:none;stroke-width:15;stroke-linecap:round;stroke-linejoin:round;stroke:rgb(0%,0%,0%);stroke-opacity:1;stroke-miterlimit:10;" d="M 683.721933 884.944803 C 733.614461 849.825924 763.271372 792.652241 763.271372 731.625389 " transform="matrix(0.106557,0,0,-0.106446,0,444.9727)"/>
<path style=" stroke:none;fill-rule:evenodd;fill:rgb(0%,0%,0%);fill-opacity:1;" d="M 102.382812 337.714844 C 102.605469 338.574219 102.71875 339.453125 102.71875 340.347656 C 102.71875 340.628906 102.707031 340.902344 102.691406 341.164062 C 102.597656 342.359375 102.398438 343.558594 102.089844 344.761719 C 101.753906 345.976562 101.328125 347.179688 100.816406 348.367188 C 100.300781 349.558594 99.617188 350.703125 98.769531 351.796875 C 98.480469 352.167969 98.160156 352.535156 97.808594 352.898438 C 97.460938 353.261719 97.085938 353.585938 96.683594 353.871094 C 96.28125 354.15625 95.863281 354.386719 95.429688 354.566406 C 94.996094 354.75 94.539062 354.839844 94.066406 354.839844 C 93.578125 354.839844 93.160156 354.746094 92.8125 354.5625 C 92.460938 354.375 92.160156 354.136719 91.90625 353.84375 C 91.65625 353.546875 91.449219 353.21875 91.285156 352.859375 C 91.121094 352.496094 90.988281 352.125 90.886719 351.742188 C 90.652344 350.902344 90.535156 350.03125 90.535156 349.136719 C 90.535156 348.847656 90.554688 348.5625 90.589844 348.28125 C 90.667969 347.101562 90.867188 345.914062 91.191406 344.707031 C 91.5 343.496094 91.917969 342.296875 92.441406 341.109375 C 92.964844 339.925781 93.660156 338.777344 94.527344 337.671875 C 94.816406 337.300781 95.132812 336.933594 95.480469 336.566406 C 95.824219 336.199219 96.191406 335.875 96.585938 335.589844 C 96.976562 335.304688 97.390625 335.070312 97.824219 334.890625 C 98.257812 334.710938 98.71875 334.617188 99.203125 334.617188 C 99.691406 334.617188 100.105469 334.710938 100.449219 334.894531 C 100.796875 335.082031 101.101562 335.320312 101.367188 335.609375 C 101.632812 335.898438 101.84375 336.230469 101.996094 336.601562 C 102.152344 336.972656 102.28125 337.34375 102.382812 337.714844 Z M 100.492188 338.027344 C 100.453125 337.675781 100.40625 337.34375 100.351562 337.035156 C 100.296875 336.726562 100.214844 336.460938 100.105469 336.234375 C 100 336.007812 99.863281 335.832031 99.695312 335.710938 C 99.527344 335.589844 99.3125 335.527344 99.050781 335.527344 C 98.507812 335.527344 98.007812 335.78125 97.550781 336.28125 C 97.09375 336.785156 96.652344 337.386719 96.222656 338.082031 C 95.605469 339.078125 95.128906 340.101562 94.792969 341.152344 C 94.457031 342.199219 94.167969 343.214844 93.925781 344.191406 L 99.625 344.191406 C 99.875 343.167969 100.109375 342.128906 100.324219 341.066406 C 100.472656 340.351562 100.546875 339.648438 100.546875 338.949219 C 100.546875 338.644531 100.527344 338.335938 100.492188 338.027344 Z M 93.628906 345.292969 C 93.378906 346.316406 93.160156 347.347656 92.972656 348.390625 C 92.824219 349.140625 92.75 349.894531 92.75 350.644531 C 92.75 350.925781 92.757812 351.195312 92.777344 351.457031 C 92.796875 351.8125 92.835938 352.144531 92.902344 352.449219 C 92.96875 352.757812 93.054688 353.023438 93.160156 353.246094 C 93.269531 353.46875 93.410156 353.636719 93.589844 353.761719 C 93.765625 353.882812 93.980469 353.945312 94.234375 353.941406 C 94.765625 353.945312 95.261719 353.695312 95.722656 353.199219 C 96.1875 352.699219 96.621094 352.101562 97.035156 351.402344 C 97.648438 350.390625 98.125 349.363281 98.460938 348.320312 C 98.796875 347.28125 99.085938 346.269531 99.328125 345.292969 Z M 93.628906 345.292969 "/>
<path style=" stroke:none;fill-rule:evenodd;fill:rgb(0%,0%,0%);fill-opacity:1;" d="M 110.332031 358.472656 C 109.257812 358.441406 108.207031 358.425781 107.1875 358.425781 C 106.171875 358.425781 105.121094 358.441406 104.042969 358.472656 L 104.042969 357.816406 L 104.652344 357.816406 C 104.84375 357.820312 105.027344 357.816406 105.195312 357.8125 C 105.363281 357.804688 105.527344 357.792969 105.679688 357.773438 C 105.832031 357.753906 105.960938 357.734375 106.074219 357.710938 C 106.167969 357.695312 106.246094 357.652344 106.304688 357.570312 C 106.367188 357.492188 106.398438 357.40625 106.398438 357.308594 L 106.398438 348.738281 C 106.105469 348.863281 105.746094 348.960938 105.316406 349.027344 C 104.890625 349.09375 104.421875 349.125 103.914062 349.125 L 103.914062 348.480469 C 104.617188 348.480469 105.265625 348.40625 105.859375 348.253906 C 106.453125 348.105469 106.96875 347.824219 107.398438 347.414062 L 107.671875 347.414062 C 107.863281 347.414062 107.960938 347.5 107.960938 347.664062 L 107.960938 357.308594 C 107.960938 357.410156 107.988281 357.5 108.050781 357.574219 C 108.109375 357.652344 108.191406 357.695312 108.304688 357.710938 C 108.398438 357.734375 108.519531 357.753906 108.664062 357.773438 C 108.8125 357.792969 108.976562 357.804688 109.160156 357.8125 C 109.34375 357.816406 109.523438 357.820312 109.699219 357.816406 L 110.332031 357.816406 Z M 110.332031 358.472656 "/>
<path style="fill:none;stroke-width:15;stroke-linecap:round;stroke-linejoin:round;stroke:rgb(0%,0%,0%);stroke-opacity:1;stroke-miterlimit:10;" d="M 4279.906474 838.11963 C 4338.707073 923.366399 4455.465122 944.797356 4540.696664 885.972315 C 4591.432343 850.963526 4621.712452 793.276087 4621.712452 731.662086 " transform="matrix(0.106557,0,0,-0.106446,0,444.9727)"/>
<path style=" stroke:none;fill-rule:evenodd;fill:rgb(0%,0%,0%);fill-opacity:1;" d="M 487.621094 324.058594 C 487.84375 324.921875 487.957031 325.800781 487.957031 326.695312 C 487.957031 326.976562 487.945312 327.25 487.929688 327.511719 C 487.835938 328.707031 487.636719 329.90625 487.328125 331.109375 C 486.992188 332.324219 486.566406 333.527344 486.054688 334.714844 C 485.539062 335.90625 484.855469 337.050781 484.007812 338.144531 C 483.71875 338.515625 483.398438 338.882812 483.046875 339.246094 C 482.699219 339.609375 482.324219 339.929688 481.921875 340.214844 C 481.519531 340.5 481.101562 340.734375 480.667969 340.914062 C 480.234375 341.097656 479.777344 341.1875 479.304688 341.1875 C 478.816406 341.1875 478.398438 341.09375 478.050781 340.910156 C 477.699219 340.722656 477.398438 340.484375 477.144531 340.191406 C 476.894531 339.894531 476.6875 339.566406 476.523438 339.203125 C 476.359375 338.84375 476.226562 338.472656 476.125 338.089844 C 475.890625 337.25 475.773438 336.378906 475.773438 335.484375 C 475.773438 335.195312 475.792969 334.910156 475.828125 334.628906 C 475.90625 333.449219 476.105469 332.261719 476.429688 331.054688 C 476.738281 329.84375 477.15625 328.644531 477.679688 327.457031 C 478.203125 326.273438 478.898438 325.125 479.765625 324.019531 C 480.054688 323.648438 480.371094 323.28125 480.71875 322.914062 C 481.0625 322.546875 481.429688 322.222656 481.824219 321.933594 C 482.214844 321.648438 482.628906 321.417969 483.0625 321.238281 C 483.496094 321.054688 483.957031 320.964844 484.441406 320.964844 C 484.929688 320.964844 485.34375 321.058594 485.6875 321.242188 C 486.035156 321.429688 486.339844 321.667969 486.605469 321.957031 C 486.871094 322.246094 487.082031 322.578125 487.234375 322.949219 C 487.390625 323.320312 487.519531 323.691406 487.621094 324.058594 Z M 485.730469 324.375 C 485.691406 324.023438 485.644531 323.691406 485.589844 323.382812 C 485.535156 323.074219 485.453125 322.808594 485.34375 322.582031 C 485.238281 322.355469 485.101562 322.179688 484.933594 322.058594 C 484.765625 321.933594 484.550781 321.875 484.289062 321.875 C 483.746094 321.875 483.246094 322.128906 482.789062 322.628906 C 482.332031 323.132812 481.890625 323.730469 481.460938 324.429688 C 480.84375 325.425781 480.367188 326.449219 480.03125 327.5 C 479.695312 328.546875 479.40625 329.5625 479.164062 330.539062 L 484.863281 330.539062 C 485.113281 329.515625 485.347656 328.476562 485.5625 327.414062 C 485.710938 326.699219 485.785156 325.996094 485.785156 325.296875 C 485.785156 324.992188 485.765625 324.683594 485.730469 324.375 Z M 478.867188 331.640625 C 478.617188 332.664062 478.398438 333.695312 478.210938 334.734375 C 478.0625 335.488281 477.988281 336.238281 477.988281 336.992188 C 477.988281 337.273438 477.996094 337.542969 478.015625 337.804688 C 478.035156 338.160156 478.074219 338.488281 478.140625 338.796875 C 478.207031 339.105469 478.292969 339.371094 478.398438 339.59375 C 478.507812 339.8125 478.648438 339.984375 478.828125 340.109375 C 479.003906 340.230469 479.21875 340.292969 479.472656 340.289062 C 480.003906 340.292969 480.5 340.042969 480.960938 339.542969 C 481.425781 339.046875 481.859375 338.449219 482.273438 337.75 C 482.886719 336.738281 483.363281 335.710938 483.699219 334.667969 C 484.035156 333.628906 484.324219 332.617188 484.566406 331.640625 Z M 478.867188 331.640625 "/>
<path style=" stroke:none;fill-rule:evenodd;fill:rgb(0%,0%,0%);fill-opacity:1;" d="M 496.222656 344.820312 L 489.074219 344.820312 L 489.074219 344.402344 C 489.074219 344.371094 489.089844 344.324219 489.125 344.265625 L 492 341.480469 C 492.339844 341.148438 492.679688 340.804688 493.03125 340.453125 C 493.378906 340.105469 493.691406 339.746094 493.964844 339.382812 C 494.242188 339.015625 494.460938 338.640625 494.625 338.253906 C 494.789062 337.863281 494.871094 337.457031 494.871094 337.03125 C 494.871094 336.671875 494.816406 336.335938 494.710938 336.023438 C 494.605469 335.710938 494.453125 335.4375 494.257812 335.203125 C 494.054688 334.96875 493.808594 334.777344 493.507812 334.632812 C 493.210938 334.488281 492.863281 334.414062 492.472656 334.414062 C 491.886719 334.414062 491.371094 334.570312 490.921875 334.882812 C 490.472656 335.195312 490.175781 335.539062 490.03125 335.914062 C 490 335.925781 490.046875 335.929688 490.171875 335.929688 L 490.320312 335.929688 C 490.496094 335.964844 490.648438 336.019531 490.777344 336.09375 C 490.90625 336.167969 491.015625 336.269531 491.101562 336.398438 C 491.191406 336.527344 491.234375 336.683594 491.234375 336.863281 C 491.234375 337.167969 491.121094 337.402344 490.898438 337.566406 C 490.675781 337.726562 490.429688 337.808594 490.152344 337.808594 C 489.890625 337.808594 489.644531 337.726562 489.414062 337.566406 C 489.1875 337.402344 489.074219 337.167969 489.074219 336.863281 C 489.074219 336.4375 489.167969 336.035156 489.355469 335.65625 C 489.542969 335.273438 489.796875 334.945312 490.117188 334.667969 C 490.441406 334.386719 490.820312 334.167969 491.261719 334.003906 C 491.699219 333.84375 492.164062 333.761719 492.65625 333.761719 C 493.265625 333.761719 493.824219 333.839844 494.332031 334 C 494.835938 334.160156 495.269531 334.390625 495.625 334.691406 C 495.980469 334.988281 496.261719 335.335938 496.464844 335.726562 C 496.667969 336.121094 496.765625 336.554688 496.765625 337.03125 C 496.765625 337.558594 496.632812 338.046875 496.363281 338.488281 C 496.09375 338.933594 495.761719 339.339844 495.363281 339.710938 C 494.964844 340.078125 494.542969 340.429688 494.09375 340.753906 C 493.644531 341.082031 493.238281 341.398438 492.878906 341.707031 L 490.855469 343.40625 L 493.5 343.40625 C 493.867188 343.40625 494.214844 343.402344 494.53125 343.398438 C 494.851562 343.394531 495.121094 343.382812 495.34375 343.367188 C 495.566406 343.351562 495.683594 343.34375 495.6875 343.335938 C 495.734375 343.300781 495.777344 343.230469 495.816406 343.125 C 495.859375 343.019531 495.898438 342.890625 495.933594 342.746094 C 495.96875 342.601562 496.003906 342.457031 496.039062 342.304688 C 496.074219 342.15625 496.105469 341.992188 496.136719 341.816406 L 496.785156 341.816406 Z M 496.222656 344.820312 "/>
<path style="fill:none;stroke-width:15;stroke-linecap:round;stroke-linejoin:round;stroke:rgb(0%,0%,0%);stroke-opacity:1;stroke-dasharray:120,60;stroke-miterlimit:10;" d="M 1837.482074 2523.495584 L 3023.391919 2523.495584 " transform="matrix(0.106557,0,0,-0.106446,0,444.9727)"/>
<path style=" stroke:none;fill-rule:evenodd;fill:rgb(0%,0%,0%);fill-opacity:1;" d="M 178.675781 185.515625 C 178.46875 186.25 178.117188 186.929688 177.625 187.546875 C 177.128906 188.167969 176.542969 188.703125 175.859375 189.15625 C 175.121094 189.664062 174.335938 190.046875 173.5 190.304688 C 172.664062 190.5625 171.835938 190.691406 171.015625 190.691406 L 166.855469 190.691406 L 165.105469 197.480469 C 165.050781 197.679688 165.019531 197.839844 165.019531 197.957031 C 165.019531 198.066406 165.042969 198.132812 165.089844 198.160156 C 165.222656 198.242188 165.480469 198.289062 165.859375 198.304688 C 166.246094 198.316406 166.65625 198.324219 167.09375 198.324219 C 167.355469 198.324219 167.484375 198.449219 167.484375 198.703125 L 167.484375 198.796875 L 167.429688 199.042969 C 167.328125 199.3125 167.144531 199.449219 166.882812 199.449219 C 165.714844 199.394531 164.546875 199.367188 163.367188 199.367188 C 162.183594 199.367188 161 199.394531 159.8125 199.449219 C 159.5625 199.449219 159.425781 199.332031 159.40625 199.097656 L 159.40625 198.988281 L 159.460938 198.757812 C 159.535156 198.460938 159.71875 198.3125 160.007812 198.324219 C 160.445312 198.324219 160.863281 198.316406 161.253906 198.304688 C 161.648438 198.289062 161.9375 198.242188 162.121094 198.160156 C 162.300781 198.0625 162.433594 197.816406 162.527344 197.425781 L 166.464844 182.121094 C 166.519531 181.921875 166.546875 181.769531 166.546875 181.660156 C 166.546875 181.550781 166.523438 181.488281 166.476562 181.46875 C 166.347656 181.390625 166.09375 181.335938 165.714844 181.320312 C 165.335938 181.300781 164.921875 181.292969 164.472656 181.292969 C 164.214844 181.292969 164.082031 181.171875 164.082031 180.925781 L 164.082031 180.816406 L 164.167969 180.585938 C 164.222656 180.316406 164.394531 180.179688 164.683594 180.175781 L 173.660156 180.175781 C 174.484375 180.179688 175.246094 180.308594 175.953125 180.566406 C 176.65625 180.824219 177.261719 181.210938 177.761719 181.726562 C 178.222656 182.207031 178.542969 182.777344 178.730469 183.4375 C 178.785156 183.746094 178.8125 184.058594 178.8125 184.375 C 178.8125 184.738281 178.765625 185.117188 178.675781 185.515625 Z M 175.691406 185.449219 C 175.851562 184.878906 175.957031 184.328125 176.011719 183.789062 L 176.011719 183.546875 C 176.011719 183.128906 175.898438 182.75 175.664062 182.40625 C 175.355469 182 174.945312 181.710938 174.429688 181.542969 C 173.917969 181.375 173.363281 181.292969 172.765625 181.292969 L 170.132812 181.292969 C 169.65625 181.292969 169.371094 181.328125 169.277344 181.402344 C 169.183594 181.472656 169.085938 181.730469 168.984375 182.175781 L 167.039062 189.671875 L 170.539062 189.671875 C 171.144531 189.671875 171.753906 189.585938 172.359375 189.414062 C 172.964844 189.242188 173.535156 188.949219 174.066406 188.53125 C 174.542969 188.125 174.894531 187.648438 175.125 187.105469 C 175.351562 186.5625 175.542969 186.011719 175.691406 185.449219 Z M 175.691406 185.449219 "/>
<path style=" stroke:none;fill-rule:nonzero;fill:rgb(0%,0%,94.099426%);fill-opacity:1;" d="M 195.628906 177.554688 L 144.847656 177.554688 L 144.847656 175.160156 L 195.628906 175.160156 C 196.292969 175.160156 196.828125 175.695312 196.828125 176.355469 C 196.828125 177.019531 196.292969 177.554688 195.628906 177.554688 Z M 125.6875 176.355469 L 149.664062 181.148438 L 144.867188 177.554688 L 144.867188 175.160156 L 149.664062 171.566406 Z M 125.6875 176.355469 "/>
<path style=" stroke:none;fill-rule:nonzero;fill:rgb(0%,0%,94.099426%);fill-opacity:1;" d="M 194.828125 177.058594 L 138.835938 99.753906 L 140.777344 98.351562 L 196.769531 175.65625 C 197.160156 176.191406 197.039062 176.9375 196.503906 177.328125 C 195.964844 177.714844 195.214844 177.59375 194.828125 177.058594 Z M 128.574219 83.542969 L 138.746094 105.753906 L 138.847656 99.769531 L 140.789062 98.363281 L 146.515625 100.140625 Z M 128.574219 83.542969 "/>
<path style=" stroke:none;fill-rule:nonzero;fill:rgb(0%,0%,94.099426%);fill-opacity:1;" d="M 194.601562 176.355469 L 194.601562 102.683594 L 196.996094 102.683594 L 196.996094 176.355469 C 196.996094 177.019531 196.460938 177.554688 195.796875 177.554688 C 195.136719 177.554688 194.601562 177.019531 194.601562 176.355469 Z M 195.796875 83.542969 L 191.003906 107.492188 L 194.601562 102.703125 L 196.996094 102.703125 L 200.59375 107.492188 Z M 195.796875 83.542969 "/>
<path style="fill:none;stroke-width:15;stroke-linecap:round;stroke-linejoin:round;stroke:rgb(0%,0%,0%);stroke-opacity:1;stroke-dasharray:120,60;stroke-miterlimit:10;" d="M 1206.622026 3395.412596 L 1835.905748 3395.412596 " transform="matrix(0.106557,0,0,-0.106446,0,444.9727)"/>
<path style="fill:none;stroke-width:15;stroke-linecap:round;stroke-linejoin:round;stroke:rgb(0%,0%,0%);stroke-opacity:1;stroke-dasharray:120,60;stroke-miterlimit:10;" d="M 1179.531227 3395.412596 L 1179.531227 2523.495584 " transform="matrix(0.106557,0,0,-0.106446,0,444.9727)"/>
<path style=" stroke:none;fill-rule:evenodd;fill:rgb(0%,0%,0%);fill-opacity:1;" d="M 92.085938 91.398438 L 92.085938 89.78125 C 91.789062 90.15625 91.308594 90.515625 90.652344 90.863281 C 89.992188 91.210938 89.257812 91.386719 88.445312 91.386719 C 87.585938 91.386719 86.773438 91.21875 86.007812 90.882812 C 85.246094 90.550781 84.582031 90.085938 84.019531 89.496094 C 83.414062 88.863281 82.953125 88.164062 82.640625 87.394531 C 82.328125 86.625 82.171875 85.8125 82.171875 84.960938 C 82.171875 84.109375 82.335938 83.292969 82.664062 82.503906 C 82.988281 81.714844 83.464844 81.019531 84.089844 80.414062 C 84.714844 79.808594 85.429688 79.339844 86.234375 79.007812 C 87.035156 78.675781 87.875 78.511719 88.753906 78.511719 C 89.511719 78.511719 90.199219 78.671875 90.820312 78.992188 C 91.441406 79.316406 91.882812 79.644531 92.140625 79.976562 L 92.140625 74.328125 C 92.140625 74.09375 92.132812 73.863281 92.109375 73.640625 C 92.085938 73.421875 91.992188 73.25 91.835938 73.132812 C 91.675781 73.023438 91.421875 72.960938 91.078125 72.941406 C 90.734375 72.925781 90.355469 72.914062 89.945312 72.914062 L 89.945312 71.816406 L 94.355469 71.488281 L 94.355469 88.546875 C 94.355469 88.78125 94.367188 89.011719 94.390625 89.226562 C 94.414062 89.445312 94.507812 89.609375 94.671875 89.714844 C 94.832031 89.824219 95.089844 89.890625 95.433594 89.914062 C 95.777344 89.9375 96.160156 89.945312 96.582031 89.945312 L 96.582031 91.058594 Z M 92.085938 81.511719 C 91.777344 80.90625 91.339844 80.40625 90.769531 80.011719 C 90.199219 79.617188 89.546875 79.421875 88.808594 79.421875 C 88.222656 79.421875 87.671875 79.558594 87.15625 79.835938 C 86.644531 80.113281 86.199219 80.496094 85.828125 80.980469 C 85.417969 81.535156 85.152344 82.152344 85.035156 82.835938 C 84.917969 83.519531 84.859375 84.230469 84.859375 84.960938 C 84.859375 85.695312 84.914062 86.398438 85.015625 87.066406 C 85.117188 87.738281 85.359375 88.367188 85.742188 88.953125 C 86.0625 89.417969 86.464844 89.789062 86.953125 90.070312 C 87.445312 90.351562 87.960938 90.488281 88.5 90.488281 C 89.3125 90.488281 90.03125 90.265625 90.65625 89.816406 C 91.285156 89.371094 91.761719 88.796875 92.085938 88.097656 Z M 92.085938 81.511719 "/>
<path style=" stroke:none;fill-rule:evenodd;fill:rgb(0%,0%,0%);fill-opacity:1;" d="M 117.957031 78.347656 C 117.84375 78.78125 117.585938 79 117.1875 79 L 116.613281 79 C 116.398438 79 116.214844 78.925781 116.066406 78.78125 C 115.917969 78.636719 115.84375 78.460938 115.84375 78.253906 L 115.84375 78.183594 C 115.9375 77.316406 115.984375 76.550781 115.984375 75.890625 C 115.984375 75.273438 115.820312 74.78125 115.492188 74.410156 C 115.175781 74.066406 114.714844 73.847656 114.113281 73.753906 C 113.511719 73.65625 112.804688 73.609375 111.992188 73.609375 L 108.6875 73.609375 C 108.714844 73.609375 108.761719 73.578125 108.828125 73.511719 L 108.828125 73.472656 L 107.0625 80.234375 L 107.804688 80.234375 C 108.269531 80.238281 108.6875 80.214844 109.050781 80.175781 C 109.414062 80.136719 109.742188 79.996094 110.03125 79.761719 C 110.320312 79.527344 110.53125 79.222656 110.667969 78.851562 C 110.804688 78.480469 110.9375 78.046875 111.066406 77.546875 C 111.121094 77.382812 111.21875 77.253906 111.355469 77.152344 C 111.492188 77.054688 111.644531 77.003906 111.824219 77.003906 L 112.550781 77.003906 C 112.75 77.066406 112.894531 77.167969 112.984375 77.308594 C 113.078125 77.449219 113.125 77.597656 113.125 77.75 L 113.125 77.886719 L 112.285156 81.144531 L 111.375 84.71875 C 111.273438 85.097656 111.019531 85.289062 110.617188 85.289062 L 110.074219 85.289062 C 109.859375 85.289062 109.675781 85.214844 109.527344 85.070312 C 109.378906 84.925781 109.300781 84.75 109.300781 84.539062 L 109.300781 84.40625 C 109.453125 83.84375 109.546875 83.390625 109.582031 83.046875 L 109.582031 82.871094 C 109.582031 82.652344 109.539062 82.488281 109.457031 82.367188 C 109.363281 82.242188 109.179688 82.152344 108.902344 82.105469 C 108.628906 82.054688 108.242188 82.03125 107.75 82.027344 L 106.601562 82.027344 L 104.695312 89.445312 C 104.601562 89.425781 104.625 89.417969 104.765625 89.417969 L 107.777344 89.417969 C 108.578125 89.417969 109.367188 89.34375 110.136719 89.199219 C 110.90625 89.054688 111.609375 88.75 112.242188 88.289062 C 112.945312 87.800781 113.527344 87.125 113.992188 86.257812 C 114.460938 85.394531 114.898438 84.496094 115.308594 83.5625 C 115.394531 83.238281 115.628906 83.082031 116.011719 83.101562 L 116.585938 83.101562 C 116.714844 83.101562 116.820312 83.121094 116.894531 83.15625 C 117.199219 83.28125 117.355469 83.511719 117.355469 83.847656 C 117.355469 83.949219 117.320312 84.046875 117.253906 84.148438 L 114.386719 90.746094 C 114.246094 91.054688 114.011719 91.210938 113.6875 91.210938 L 97.679688 91.210938 C 97.457031 91.210938 97.273438 91.132812 97.128906 90.976562 C 96.984375 90.824219 96.910156 90.652344 96.910156 90.460938 L 96.910156 90.328125 L 97.007812 89.945312 C 97.0625 89.773438 97.164062 89.644531 97.308594 89.554688 C 97.453125 89.464844 97.605469 89.417969 97.765625 89.417969 C 98.222656 89.417969 98.691406 89.414062 99.171875 89.402344 C 99.652344 89.394531 100.019531 89.371094 100.269531 89.335938 C 100.898438 86.980469 101.566406 84.40625 102.28125 81.613281 C 102.992188 78.820312 103.683594 76.15625 104.34375 73.621094 C 104.289062 73.613281 104.03125 73.609375 103.5625 73.609375 L 102.21875 73.609375 C 101.992188 73.609375 101.808594 73.53125 101.664062 73.378906 C 101.519531 73.222656 101.445312 73.050781 101.445312 72.859375 C 101.445312 72.769531 101.460938 72.699219 101.488281 72.644531 L 101.558594 72.359375 C 101.644531 71.96875 101.890625 71.773438 102.300781 71.773438 L 117.84375 71.773438 C 118.070312 71.773438 118.253906 71.851562 118.398438 72.007812 C 118.542969 72.160156 118.613281 72.332031 118.613281 72.523438 L 118.613281 72.617188 Z M 117.957031 78.347656 "/>
<path style=" stroke:none;fill-rule:evenodd;fill:rgb(0%,0%,0%);fill-opacity:1;" d="M 87.75 184.050781 L 87.75 182.433594 C 87.453125 182.804688 86.976562 183.167969 86.316406 183.515625 C 85.660156 183.863281 84.921875 184.035156 84.109375 184.035156 C 83.253906 184.035156 82.441406 183.867188 81.675781 183.535156 C 80.910156 183.199219 80.246094 182.738281 79.6875 182.148438 C 79.078125 181.515625 78.621094 180.8125 78.308594 180.042969 C 77.996094 179.273438 77.835938 178.464844 77.835938 177.613281 C 77.835938 176.761719 78 175.941406 78.328125 175.152344 C 78.65625 174.367188 79.128906 173.671875 79.753906 173.0625 C 80.382812 172.457031 81.09375 171.988281 81.898438 171.660156 C 82.703125 171.328125 83.542969 171.164062 84.417969 171.160156 C 85.175781 171.164062 85.863281 171.324219 86.484375 171.644531 C 87.105469 171.964844 87.546875 172.292969 87.808594 172.628906 L 87.808594 166.980469 C 87.808594 166.742188 87.796875 166.515625 87.773438 166.292969 C 87.75 166.070312 87.660156 165.902344 87.5 165.78125 C 87.339844 165.675781 87.089844 165.613281 86.742188 165.59375 C 86.398438 165.578125 86.019531 165.566406 85.609375 165.566406 L 85.609375 164.464844 L 90.019531 164.140625 L 90.019531 181.199219 C 90.019531 181.433594 90.03125 181.660156 90.054688 181.878906 C 90.078125 182.09375 90.171875 182.257812 90.335938 182.367188 C 90.5 182.476562 90.753906 182.542969 91.097656 182.5625 C 91.445312 182.585938 91.828125 182.597656 92.246094 182.597656 L 92.246094 183.710938 Z M 87.75 174.164062 C 87.445312 173.558594 87.003906 173.058594 86.433594 172.664062 C 85.867188 172.269531 85.210938 172.070312 84.476562 172.070312 C 83.886719 172.070312 83.335938 172.210938 82.824219 172.488281 C 82.308594 172.761719 81.867188 173.144531 81.492188 173.632812 C 81.082031 174.1875 80.820312 174.804688 80.703125 175.488281 C 80.585938 176.171875 80.527344 176.878906 80.527344 177.613281 C 80.527344 178.347656 80.578125 179.046875 80.679688 179.71875 C 80.78125 180.390625 81.027344 181.019531 81.410156 181.605469 C 81.726562 182.066406 82.128906 182.441406 82.621094 182.71875 C 83.109375 183 83.625 183.140625 84.167969 183.140625 C 84.980469 183.140625 85.699219 182.917969 86.324219 182.46875 C 86.949219 182.019531 87.425781 181.449219 87.75 180.75 Z M 87.75 174.164062 "/>
<path style=" stroke:none;fill-rule:evenodd;fill:rgb(0%,0%,0%);fill-opacity:1;" d="M 112.585938 170.632812 C 112.558594 170.75 112.5 170.851562 112.40625 170.9375 C 112.3125 171.023438 112.207031 171.066406 112.097656 171.066406 C 112.058594 171.082031 112.011719 171.09375 111.957031 171.09375 C 111.84375 171.09375 111.789062 171.082031 111.789062 171.066406 C 111.554688 171.066406 111.429688 170.964844 111.410156 170.765625 L 111.410156 170.671875 C 111.46875 170.246094 111.515625 169.816406 111.550781 169.382812 C 111.589844 169.046875 111.605469 168.738281 111.605469 168.457031 L 111.605469 168.226562 C 111.589844 167.867188 111.542969 167.542969 111.472656 167.257812 C 111.40625 166.972656 111.28125 166.730469 111.101562 166.53125 C 110.746094 166.113281 110.21875 165.867188 109.519531 165.792969 C 108.820312 165.714844 108.070312 165.675781 107.28125 165.675781 L 104.269531 165.675781 C 103.773438 165.675781 103.484375 165.710938 103.402344 165.78125 C 103.355469 165.820312 103.261719 166.085938 103.121094 166.585938 L 101.382812 173.210938 L 103.316406 173.210938 C 103.839844 173.210938 104.316406 173.191406 104.746094 173.144531 C 105.175781 173.101562 105.542969 172.964844 105.851562 172.734375 C 106.132812 172.511719 106.34375 172.195312 106.488281 171.785156 C 106.632812 171.378906 106.777344 170.914062 106.914062 170.386719 C 107.015625 170.117188 107.195312 169.984375 107.449219 169.992188 L 107.683594 169.992188 C 107.945312 169.992188 108.078125 170.113281 108.078125 170.347656 L 108.078125 170.441406 L 106.328125 177.164062 C 106.269531 177.445312 106.089844 177.582031 105.78125 177.570312 L 105.558594 177.570312 C 105.296875 177.574219 105.164062 177.464844 105.164062 177.246094 C 105.164062 177.191406 105.179688 177.140625 105.207031 177.097656 C 105.328125 176.589844 105.417969 176.121094 105.472656 175.695312 C 105.492188 175.589844 105.503906 175.496094 105.503906 175.410156 C 105.503906 175.160156 105.445312 174.957031 105.332031 174.800781 C 105.175781 174.582031 104.890625 174.457031 104.484375 174.414062 C 104.082031 174.371094 103.625 174.355469 103.121094 174.355469 L 101.101562 174.355469 L 99.183594 181.796875 C 99.089844 182.113281 99.042969 182.347656 99.042969 182.5 L 99.042969 182.554688 C 99.082031 182.59375 99.34375 182.617188 99.828125 182.625 L 103.035156 182.625 C 103.867188 182.625 104.671875 182.570312 105.453125 182.453125 C 106.234375 182.34375 106.957031 182.054688 107.628906 181.589844 C 107.925781 181.375 108.210938 181.085938 108.484375 180.722656 C 108.753906 180.363281 109.011719 179.960938 109.253906 179.519531 C 109.496094 179.082031 109.726562 178.617188 109.949219 178.121094 C 110.167969 177.628906 110.382812 177.140625 110.597656 176.660156 C 110.671875 176.445312 110.835938 176.335938 111.085938 176.335938 L 111.328125 176.335938 C 111.589844 176.335938 111.71875 176.453125 111.71875 176.6875 L 111.71875 176.796875 L 108.929688 183.425781 C 108.828125 183.640625 108.660156 183.75 108.429688 183.75 L 93.863281 183.75 C 93.722656 183.75 93.621094 183.710938 93.554688 183.628906 C 93.492188 183.566406 93.460938 183.496094 93.457031 183.425781 C 93.460938 183.371094 93.46875 183.316406 93.488281 183.261719 L 93.542969 183.058594 C 93.570312 182.941406 93.636719 182.839844 93.738281 182.753906 C 93.839844 182.667969 93.957031 182.625 94.085938 182.625 C 94.527344 182.625 94.9375 182.617188 95.320312 182.605469 C 95.703125 182.589844 95.992188 182.542969 96.1875 182.460938 C 96.355469 182.371094 96.488281 182.125 96.582031 181.726562 L 100.515625 166.515625 C 100.574219 166.316406 100.601562 166.160156 100.601562 166.039062 C 100.601562 165.933594 100.578125 165.871094 100.53125 165.851562 C 100.398438 165.769531 100.140625 165.722656 99.761719 165.703125 C 99.378906 165.683594 98.964844 165.675781 98.527344 165.675781 C 98.265625 165.675781 98.132812 165.554688 98.132812 165.308594 L 98.132812 165.210938 L 98.191406 164.980469 C 98.265625 164.683594 98.449219 164.535156 98.738281 164.53125 L 112.921875 164.53125 C 113.15625 164.535156 113.28125 164.648438 113.300781 164.875 L 113.300781 164.96875 Z M 112.585938 170.632812 "/>
<path style=" stroke:none;fill-rule:evenodd;fill:rgb(0%,0%,0%);fill-opacity:1;" d="M 122.882812 181.945312 C 122.820312 182.175781 122.691406 182.347656 122.492188 182.460938 C 122.296875 182.574219 122.097656 182.632812 121.902344 182.632812 C 121.695312 182.632812 121.527344 182.574219 121.390625 182.457031 C 121.292969 182.371094 121.242188 182.257812 121.234375 182.121094 C 121.234375 182.066406 121.246094 181.996094 121.269531 181.910156 C 121.332031 181.714844 121.433594 181.570312 121.566406 181.472656 C 121.699219 181.371094 121.792969 181.316406 121.847656 181.300781 C 121.738281 181.222656 121.507812 181.1875 121.164062 181.1875 C 120.859375 181.1875 120.585938 181.328125 120.34375 181.609375 C 120.105469 181.890625 119.925781 182.226562 119.808594 182.625 L 119.003906 185.40625 C 118.917969 185.6875 118.859375 185.953125 118.816406 186.207031 C 118.792969 186.292969 118.785156 186.367188 118.785156 186.433594 C 118.785156 186.589844 118.8125 186.742188 118.871094 186.882812 C 118.929688 187.035156 119.019531 187.15625 119.136719 187.246094 C 119.253906 187.339844 119.402344 187.386719 119.582031 187.382812 C 119.816406 187.386719 120.042969 187.332031 120.257812 187.222656 C 120.476562 187.113281 120.675781 186.964844 120.855469 186.78125 C 121.039062 186.59375 121.199219 186.378906 121.339844 186.132812 C 121.480469 185.886719 121.589844 185.636719 121.671875 185.375 C 121.707031 185.246094 121.808594 185.179688 121.972656 185.179688 L 122.171875 185.179688 C 122.324219 185.179688 122.402344 185.230469 122.402344 185.332031 C 122.402344 185.363281 122.394531 185.390625 122.375 185.414062 C 122.292969 185.71875 122.160156 186.019531 121.976562 186.316406 C 121.789062 186.613281 121.578125 186.875 121.328125 187.101562 C 121.085938 187.332031 120.804688 187.519531 120.492188 187.664062 C 120.175781 187.8125 119.84375 187.886719 119.488281 187.886719 C 119.121094 187.886719 118.808594 187.816406 118.546875 187.675781 C 118.28125 187.539062 118.070312 187.355469 117.90625 187.132812 C 117.851562 187.078125 117.8125 187.019531 117.78125 186.960938 C 117.75 186.90625 117.742188 186.894531 117.757812 186.9375 C 117.617188 187.144531 117.394531 187.355469 117.089844 187.566406 C 116.785156 187.78125 116.433594 187.886719 116.035156 187.886719 C 115.8125 187.886719 115.59375 187.859375 115.375 187.808594 C 115.15625 187.761719 114.96875 187.679688 114.808594 187.574219 C 114.648438 187.46875 114.523438 187.339844 114.445312 187.1875 C 114.402344 187.097656 114.382812 186.996094 114.382812 186.890625 C 114.382812 186.8125 114.394531 186.726562 114.417969 186.625 C 114.484375 186.394531 114.613281 186.226562 114.8125 186.109375 C 115.011719 185.996094 115.210938 185.941406 115.410156 185.9375 C 115.617188 185.941406 115.792969 186 115.9375 186.113281 C 116.035156 186.199219 116.085938 186.3125 116.085938 186.449219 C 116.085938 186.519531 116.074219 186.589844 116.050781 186.660156 C 116 186.839844 115.902344 186.984375 115.765625 187.09375 C 115.628906 187.203125 115.53125 187.261719 115.472656 187.269531 C 115.582031 187.351562 115.808594 187.390625 116.148438 187.382812 C 116.453125 187.386719 116.730469 187.242188 116.972656 186.957031 C 117.21875 186.675781 117.398438 186.335938 117.507812 185.9375 L 118.324219 183.140625 C 118.40625 182.878906 118.472656 182.617188 118.519531 182.363281 C 118.53125 182.285156 118.535156 182.207031 118.535156 182.136719 C 118.535156 181.980469 118.511719 181.832031 118.457031 181.695312 C 118.398438 181.542969 118.308594 181.421875 118.1875 181.328125 C 118.0625 181.234375 117.910156 181.1875 117.726562 181.1875 C 117.492188 181.1875 117.269531 181.242188 117.046875 181.351562 C 116.828125 181.460938 116.628906 181.605469 116.449219 181.789062 C 116.265625 181.96875 116.105469 182.183594 115.964844 182.421875 C 115.824219 182.664062 115.722656 182.917969 115.65625 183.1875 C 115.59375 183.324219 115.484375 183.394531 115.332031 183.398438 L 115.140625 183.398438 C 115 183.398438 114.929688 183.335938 114.929688 183.207031 L 114.929688 183.15625 C 115.015625 182.84375 115.148438 182.535156 115.332031 182.238281 C 115.511719 181.941406 115.730469 181.679688 115.980469 181.453125 C 116.230469 181.222656 116.511719 181.039062 116.824219 180.894531 C 117.136719 180.75 117.472656 180.675781 117.835938 180.675781 C 118.1875 180.675781 118.496094 180.746094 118.765625 180.882812 C 119.035156 181.019531 119.253906 181.203125 119.425781 181.429688 C 119.457031 181.484375 119.492188 181.546875 119.519531 181.609375 C 119.550781 181.671875 119.558594 181.6875 119.546875 181.65625 C 119.691406 181.433594 119.917969 181.214844 120.222656 181 C 120.527344 180.785156 120.875 180.675781 121.269531 180.675781 C 121.492188 180.675781 121.710938 180.699219 121.929688 180.75 C 122.152344 180.796875 122.34375 180.875 122.503906 180.980469 C 122.664062 181.085938 122.785156 181.21875 122.859375 181.375 C 122.898438 181.46875 122.917969 181.570312 122.917969 181.6875 C 122.917969 181.765625 122.90625 181.851562 122.882812 181.945312 Z M 122.882812 181.945312 "/>
<path style=" stroke:none;fill-rule:evenodd;fill:rgb(0%,0%,0%);fill-opacity:1;" d="M 214.664062 91.238281 L 214.664062 89.621094 C 214.367188 89.992188 213.886719 90.351562 213.230469 90.703125 C 212.570312 91.050781 211.835938 91.222656 211.023438 91.222656 C 210.164062 91.222656 209.351562 91.054688 208.585938 90.722656 C 207.824219 90.386719 207.160156 89.925781 206.597656 89.335938 C 205.992188 88.703125 205.53125 88 205.21875 87.230469 C 204.90625 86.460938 204.75 85.652344 204.75 84.800781 C 204.75 83.949219 204.914062 83.128906 205.238281 82.339844 C 205.566406 81.554688 206.042969 80.859375 206.667969 80.25 C 207.292969 79.644531 208.007812 79.175781 208.8125 78.847656 C 209.613281 78.515625 210.453125 78.351562 211.332031 78.347656 C 212.085938 78.351562 212.777344 78.511719 213.398438 78.832031 C 214.019531 79.152344 214.460938 79.480469 214.71875 79.8125 L 214.71875 74.167969 C 214.71875 73.929688 214.710938 73.703125 214.683594 73.480469 C 214.664062 73.257812 214.570312 73.089844 214.414062 72.96875 C 214.253906 72.859375 214 72.800781 213.65625 72.78125 C 213.3125 72.761719 212.933594 72.753906 212.523438 72.753906 L 212.523438 71.652344 L 216.933594 71.328125 L 216.933594 88.386719 C 216.933594 88.621094 216.945312 88.847656 216.96875 89.066406 C 216.992188 89.28125 217.085938 89.445312 217.25 89.554688 C 217.410156 89.664062 217.667969 89.730469 218.011719 89.75 C 218.355469 89.773438 218.738281 89.785156 219.160156 89.785156 L 219.160156 90.898438 Z M 214.664062 81.347656 C 214.355469 80.746094 213.917969 80.246094 213.347656 79.851562 C 212.777344 79.457031 212.125 79.257812 211.386719 79.257812 C 210.800781 79.257812 210.25 79.398438 209.734375 79.675781 C 209.222656 79.949219 208.777344 80.332031 208.40625 80.820312 C 207.996094 81.371094 207.730469 81.992188 207.613281 82.675781 C 207.496094 83.359375 207.4375 84.066406 207.4375 84.800781 C 207.4375 85.535156 207.492188 86.234375 207.59375 86.90625 C 207.695312 87.574219 207.9375 88.203125 208.320312 88.792969 C 208.640625 89.253906 209.042969 89.625 209.53125 89.90625 C 210.023438 90.1875 210.539062 90.328125 211.078125 90.328125 C 211.890625 90.328125 212.609375 90.105469 213.234375 89.65625 C 213.859375 89.207031 214.335938 88.632812 214.664062 87.9375 Z M 214.664062 81.347656 "/>
<path style=" stroke:none;fill-rule:evenodd;fill:rgb(0%,0%,0%);fill-opacity:1;" d="M 239.5 77.820312 C 239.46875 77.9375 239.410156 78.039062 239.316406 78.125 C 239.222656 78.210938 239.121094 78.253906 239.007812 78.253906 C 238.972656 78.269531 238.925781 78.28125 238.871094 78.28125 C 238.757812 78.28125 238.703125 78.269531 238.703125 78.253906 C 238.46875 78.253906 238.339844 78.152344 238.320312 77.953125 L 238.320312 77.859375 C 238.378906 77.433594 238.425781 77.003906 238.460938 76.570312 C 238.5 76.234375 238.519531 75.925781 238.519531 75.644531 L 238.519531 75.414062 C 238.5 75.054688 238.457031 74.730469 238.386719 74.445312 C 238.316406 74.160156 238.191406 73.917969 238.015625 73.71875 C 237.660156 73.300781 237.132812 73.054688 236.433594 72.976562 C 235.734375 72.902344 234.984375 72.859375 234.191406 72.859375 L 231.179688 72.859375 C 230.6875 72.859375 230.398438 72.898438 230.3125 72.96875 C 230.265625 73.007812 230.171875 73.273438 230.03125 73.773438 L 228.296875 80.398438 L 230.230469 80.398438 C 230.753906 80.398438 231.226562 80.378906 231.65625 80.332031 C 232.089844 80.285156 232.457031 80.152344 232.765625 79.921875 C 233.046875 79.699219 233.257812 79.382812 233.402344 78.972656 C 233.546875 78.566406 233.6875 78.101562 233.828125 77.574219 C 233.929688 77.304688 234.109375 77.171875 234.359375 77.179688 L 234.597656 77.179688 C 234.859375 77.179688 234.992188 77.300781 234.992188 77.535156 L 234.992188 77.628906 L 233.238281 84.351562 C 233.183594 84.632812 233.003906 84.769531 232.695312 84.757812 L 232.46875 84.757812 C 232.207031 84.757812 232.078125 84.652344 232.078125 84.433594 C 232.078125 84.378906 232.09375 84.328125 232.117188 84.285156 C 232.242188 83.777344 232.328125 83.308594 232.386719 82.882812 C 232.402344 82.777344 232.414062 82.683594 232.414062 82.597656 C 232.414062 82.347656 232.355469 82.144531 232.246094 81.988281 C 232.089844 81.769531 231.804688 81.644531 231.398438 81.601562 C 230.992188 81.558594 230.535156 81.539062 230.03125 81.539062 L 228.015625 81.539062 L 226.097656 88.984375 C 226.003906 89.300781 225.957031 89.535156 225.957031 89.6875 L 225.957031 89.742188 C 225.996094 89.78125 226.257812 89.800781 226.742188 89.8125 L 229.949219 89.8125 C 230.78125 89.8125 231.585938 89.757812 232.367188 89.640625 C 233.144531 89.527344 233.871094 89.242188 234.542969 88.777344 C 234.839844 88.5625 235.125 88.273438 235.394531 87.910156 C 235.667969 87.546875 235.925781 87.148438 236.167969 86.707031 C 236.410156 86.269531 236.640625 85.804688 236.859375 85.308594 C 237.078125 84.816406 237.296875 84.328125 237.511719 83.847656 C 237.585938 83.632812 237.75 83.523438 238 83.523438 L 238.238281 83.523438 C 238.5 83.523438 238.632812 83.640625 238.632812 83.875 L 238.632812 83.984375 L 235.84375 90.613281 C 235.742188 90.828125 235.574219 90.9375 235.339844 90.9375 L 220.777344 90.9375 C 220.636719 90.9375 220.535156 90.898438 220.46875 90.816406 C 220.402344 90.753906 220.371094 90.683594 220.371094 90.613281 C 220.371094 90.558594 220.382812 90.503906 220.398438 90.449219 L 220.457031 90.246094 C 220.484375 90.128906 220.546875 90.027344 220.652344 89.941406 C 220.753906 89.855469 220.871094 89.8125 221 89.8125 C 221.4375 89.8125 221.851562 89.804688 222.234375 89.792969 C 222.617188 89.777344 222.90625 89.730469 223.101562 89.648438 C 223.269531 89.558594 223.398438 89.3125 223.492188 88.914062 L 227.429688 73.703125 C 227.484375 73.503906 227.511719 73.347656 227.511719 73.226562 C 227.511719 73.121094 227.488281 73.058594 227.441406 73.039062 C 227.308594 72.957031 227.054688 72.90625 226.671875 72.890625 C 226.289062 72.871094 225.878906 72.859375 225.4375 72.859375 C 225.179688 72.859375 225.046875 72.738281 225.046875 72.496094 L 225.046875 72.398438 L 225.105469 72.167969 C 225.179688 71.871094 225.359375 71.722656 225.652344 71.71875 L 239.835938 71.71875 C 240.070312 71.722656 240.195312 71.835938 240.210938 72.0625 L 240.210938 72.15625 Z M 239.5 77.820312 "/>
<path style=" stroke:none;fill-rule:evenodd;fill:rgb(0%,0%,0%);fill-opacity:1;" d="M 247.4375 94.835938 C 247.316406 95.261719 247.121094 95.671875 246.855469 96.058594 C 246.59375 96.445312 246.285156 96.792969 245.929688 97.09375 C 245.570312 97.394531 245.167969 97.640625 244.722656 97.828125 C 244.277344 98.015625 243.816406 98.109375 243.335938 98.109375 C 243.046875 98.109375 242.785156 98.0625 242.546875 97.96875 C 242.304688 97.875 242.109375 97.746094 241.957031 97.585938 C 241.804688 97.425781 241.703125 97.238281 241.648438 97.019531 C 241.625 96.925781 241.613281 96.824219 241.613281 96.722656 C 241.613281 96.59375 241.632812 96.457031 241.667969 96.320312 C 241.730469 96.09375 241.863281 95.921875 242.0625 95.808594 C 242.261719 95.691406 242.457031 95.636719 242.648438 95.636719 C 242.855469 95.636719 243.03125 95.695312 243.167969 95.8125 C 243.269531 95.898438 243.316406 96.007812 243.316406 96.144531 C 243.316406 96.203125 243.308594 96.269531 243.285156 96.351562 C 243.21875 96.578125 243.085938 96.75 242.890625 96.863281 C 242.6875 96.980469 242.53125 97.035156 242.414062 97.035156 C 242.449219 97.171875 242.558594 97.300781 242.742188 97.417969 C 242.925781 97.539062 243.164062 97.597656 243.449219 97.597656 C 243.765625 97.597656 244.0625 97.523438 244.339844 97.371094 C 244.613281 97.21875 244.863281 97.015625 245.09375 96.757812 C 245.320312 96.503906 245.519531 96.207031 245.695312 95.867188 C 245.867188 95.53125 246.007812 95.175781 246.109375 94.808594 L 246.164062 94.625 C 246.078125 94.695312 245.890625 94.789062 245.609375 94.902344 C 245.328125 95.015625 245.023438 95.074219 244.6875 95.074219 C 244.292969 95.074219 243.933594 95.007812 243.621094 94.875 C 243.308594 94.746094 243.0625 94.542969 242.878906 94.265625 C 242.703125 93.972656 242.617188 93.648438 242.625 93.292969 L 242.625 93.234375 C 242.636719 92.863281 242.6875 92.496094 242.78125 92.128906 C 242.875 91.78125 243.011719 91.394531 243.191406 90.972656 C 243.371094 90.554688 243.542969 90.144531 243.707031 89.75 C 243.878906 89.328125 243.96875 88.984375 243.96875 88.714844 C 243.96875 88.488281 243.859375 88.375 243.644531 88.371094 C 243.445312 88.375 243.265625 88.425781 243.105469 88.527344 C 242.941406 88.628906 242.796875 88.769531 242.664062 88.949219 C 242.53125 89.128906 242.414062 89.339844 242.308594 89.585938 C 242.203125 89.832031 242.117188 90.09375 242.046875 90.375 C 241.980469 90.511719 241.871094 90.582031 241.71875 90.585938 L 241.519531 90.585938 C 241.378906 90.585938 241.308594 90.523438 241.308594 90.394531 L 241.308594 90.34375 C 241.390625 90.0625 241.496094 89.78125 241.632812 89.488281 C 241.769531 89.195312 241.9375 88.929688 242.140625 88.691406 C 242.347656 88.453125 242.582031 88.257812 242.84375 88.097656 C 243.109375 87.941406 243.410156 87.863281 243.75 87.863281 C 244.042969 87.863281 244.292969 87.917969 244.5 88.03125 C 244.707031 88.144531 244.867188 88.292969 244.972656 88.476562 C 245.082031 88.660156 245.140625 88.871094 245.15625 89.101562 L 245.15625 89.15625 C 245.15625 89.375 245.105469 89.601562 245.003906 89.832031 C 244.835938 90.230469 244.667969 90.632812 244.5 91.046875 C 244.332031 91.460938 244.203125 91.832031 244.109375 92.160156 C 244.015625 92.492188 243.949219 92.816406 243.917969 93.140625 C 243.894531 93.226562 243.878906 93.324219 243.871094 93.421875 C 243.871094 93.621094 243.910156 93.816406 243.988281 94.007812 C 244.039062 94.183594 244.136719 94.320312 244.277344 94.421875 C 244.417969 94.523438 244.582031 94.570312 244.777344 94.570312 C 245.152344 94.570312 245.480469 94.472656 245.757812 94.277344 C 246.039062 94.078125 246.289062 93.820312 246.496094 93.5 L 247.910156 88.59375 C 247.964844 88.40625 248.070312 88.269531 248.230469 88.179688 C 248.394531 88.089844 248.554688 88.046875 248.71875 88.046875 C 248.890625 88.046875 249.03125 88.09375 249.140625 88.183594 C 249.21875 88.25 249.257812 88.335938 249.257812 88.449219 C 249.257812 88.503906 249.25 88.5625 249.238281 88.625 Z M 247.4375 94.835938 "/>
<path style="fill:none;stroke-width:15;stroke-linecap:round;stroke-linejoin:round;stroke:rgb(0%,0%,0%);stroke-opacity:1;stroke-miterlimit:10;" d="M 1728.495676 2677.181966 C 1813.39729 2736.484066 1930.301973 2715.750349 1989.615794 2630.870549 C 2011.611031 2599.384657 2023.415141 2561.917179 2023.415141 2523.495584 " transform="matrix(0.106557,0,0,-0.106446,0,444.9727)"/>
<path style=" stroke:none;fill-rule:evenodd;fill:rgb(0%,0%,0%);fill-opacity:1;" d="M 220.558594 136.007812 C 220.78125 136.867188 220.894531 137.746094 220.894531 138.644531 C 220.894531 138.925781 220.882812 139.195312 220.863281 139.457031 C 220.773438 140.652344 220.570312 141.855469 220.261719 143.054688 C 219.925781 144.269531 219.503906 145.472656 218.988281 146.664062 C 218.476562 147.855469 217.792969 148.996094 216.945312 150.089844 C 216.65625 150.464844 216.335938 150.832031 215.984375 151.191406 C 215.636719 151.554688 215.257812 151.878906 214.859375 152.164062 C 214.457031 152.449219 214.039062 152.683594 213.605469 152.863281 C 213.171875 153.042969 212.714844 153.132812 212.238281 153.132812 C 211.753906 153.132812 211.335938 153.042969 210.984375 152.855469 C 210.636719 152.671875 210.335938 152.429688 210.082031 152.136719 C 209.832031 151.84375 209.625 151.515625 209.460938 151.152344 C 209.296875 150.789062 209.164062 150.417969 209.0625 150.039062 C 208.828125 149.195312 208.710938 148.328125 208.710938 147.429688 C 208.710938 147.140625 208.730469 146.855469 208.765625 146.574219 C 208.839844 145.398438 209.042969 144.207031 209.367188 143 C 209.675781 141.789062 210.09375 140.589844 210.613281 139.402344 C 211.136719 138.21875 211.832031 137.070312 212.703125 135.96875 C 212.992188 135.597656 213.308594 135.226562 213.652344 134.859375 C 214 134.492188 214.367188 134.167969 214.757812 133.882812 C 215.152344 133.597656 215.566406 133.367188 216 133.183594 C 216.433594 133.003906 216.894531 132.910156 217.378906 132.910156 C 217.863281 132.910156 218.28125 133.003906 218.625 133.191406 C 218.96875 133.375 219.277344 133.613281 219.542969 133.902344 C 219.808594 134.195312 220.019531 134.523438 220.171875 134.894531 C 220.328125 135.265625 220.457031 135.636719 220.558594 136.007812 Z M 218.667969 136.320312 C 218.628906 135.96875 218.582031 135.636719 218.527344 135.332031 C 218.46875 135.023438 218.390625 134.753906 218.28125 134.527344 C 218.175781 134.300781 218.035156 134.128906 217.867188 134.007812 C 217.699219 133.882812 217.488281 133.820312 217.226562 133.820312 C 216.683594 133.820312 216.183594 134.070312 215.726562 134.574219 C 215.269531 135.078125 214.824219 135.675781 214.394531 136.375 C 213.78125 137.371094 213.304688 138.394531 212.96875 139.445312 C 212.632812 140.496094 212.34375 141.507812 212.097656 142.484375 L 217.796875 142.484375 C 218.050781 141.464844 218.285156 140.421875 218.5 139.363281 C 218.648438 138.648438 218.722656 137.941406 218.722656 137.246094 C 218.722656 136.9375 218.703125 136.628906 218.667969 136.320312 Z M 211.804688 143.585938 C 211.554688 144.609375 211.332031 145.640625 211.148438 146.683594 C 210.996094 147.433594 210.921875 148.1875 210.921875 148.9375 C 210.921875 149.21875 210.933594 149.492188 210.953125 149.75 C 210.96875 150.105469 211.011719 150.4375 211.078125 150.746094 C 211.140625 151.050781 211.230469 151.316406 211.335938 151.539062 C 211.445312 151.761719 211.585938 151.933594 211.765625 152.054688 C 211.941406 152.175781 212.15625 152.238281 212.40625 152.238281 C 212.941406 152.238281 213.4375 151.988281 213.898438 151.492188 C 214.359375 150.992188 214.796875 150.394531 215.207031 149.699219 C 215.824219 148.683594 216.300781 147.65625 216.636719 146.617188 C 216.972656 145.574219 217.261719 144.566406 217.503906 143.585938 Z M 211.804688 143.585938 "/>
<path style=" stroke:none;fill-rule:evenodd;fill:rgb(0%,0%,0%);fill-opacity:1;" d="M 216.421875 45.453125 C 216.226562 46.214844 215.917969 46.941406 215.496094 47.632812 C 215.078125 48.328125 214.582031 48.941406 214.011719 49.480469 C 213.445312 50.019531 212.804688 50.457031 212.09375 50.792969 C 211.386719 51.125 210.648438 51.292969 209.882812 51.292969 C 209.425781 51.292969 209.003906 51.210938 208.621094 51.042969 C 208.238281 50.875 207.925781 50.648438 207.683594 50.363281 C 207.441406 50.078125 207.277344 49.742188 207.195312 49.351562 C 207.15625 49.179688 207.136719 49.003906 207.136719 48.820312 C 207.136719 48.585938 207.164062 48.347656 207.222656 48.101562 C 207.324219 47.695312 207.535156 47.390625 207.851562 47.1875 C 208.167969 46.980469 208.484375 46.878906 208.789062 46.878906 C 209.117188 46.878906 209.390625 46.984375 209.617188 47.191406 C 209.773438 47.347656 209.855469 47.546875 209.855469 47.789062 C 209.855469 47.890625 209.835938 48.011719 209.796875 48.15625 C 209.695312 48.5625 209.484375 48.871094 209.167969 49.074219 C 208.851562 49.277344 208.597656 49.378906 208.410156 49.378906 C 208.46875 49.625 208.644531 49.851562 208.9375 50.066406 C 209.230469 50.277344 209.605469 50.382812 210.0625 50.382812 C 210.570312 50.382812 211.039062 50.25 211.480469 49.976562 C 211.917969 49.703125 212.320312 49.339844 212.683594 48.882812 C 213.046875 48.425781 213.367188 47.898438 213.640625 47.292969 C 213.917969 46.691406 214.140625 46.0625 214.308594 45.398438 L 214.390625 45.074219 C 214.253906 45.199219 213.957031 45.367188 213.507812 45.570312 C 213.0625 45.773438 212.570312 45.875 212.039062 45.875 C 211.40625 45.875 210.835938 45.757812 210.335938 45.523438 C 209.839844 45.289062 209.445312 44.925781 209.152344 44.433594 C 208.875 43.910156 208.738281 43.332031 208.746094 42.695312 L 208.746094 42.589844 C 208.765625 41.929688 208.851562 41.273438 209 40.617188 C 209.148438 39.996094 209.367188 39.308594 209.652344 38.554688 C 209.9375 37.804688 210.210938 37.074219 210.46875 36.367188 C 210.75 35.617188 210.890625 35 210.890625 34.519531 C 210.890625 34.113281 210.71875 33.910156 210.371094 33.910156 C 210.054688 33.910156 209.769531 34 209.511719 34.183594 C 209.253906 34.363281 209.019531 34.617188 208.8125 34.933594 C 208.601562 35.257812 208.410156 35.636719 208.242188 36.078125 C 208.074219 36.515625 207.9375 36.984375 207.824219 37.480469 C 207.722656 37.726562 207.546875 37.855469 207.304688 37.863281 L 206.984375 37.863281 C 206.757812 37.863281 206.648438 37.75 206.648438 37.523438 L 206.648438 37.429688 C 206.777344 36.929688 206.953125 36.421875 207.164062 35.898438 C 207.378906 35.378906 207.652344 34.90625 207.976562 34.480469 C 208.304688 34.054688 208.679688 33.703125 209.097656 33.421875 C 209.519531 33.140625 210 33 210.539062 33 C 211.007812 33 211.40625 33.101562 211.738281 33.300781 C 212.070312 33.5 212.320312 33.765625 212.492188 34.09375 C 212.667969 34.425781 212.761719 34.796875 212.78125 35.214844 L 212.78125 35.308594 C 212.78125 35.699219 212.703125 36.101562 212.542969 36.515625 C 212.273438 37.222656 212.003906 37.945312 211.738281 38.683594 C 211.472656 39.421875 211.265625 40.085938 211.113281 40.675781 C 210.964844 41.261719 210.863281 41.847656 210.804688 42.425781 C 210.769531 42.578125 210.746094 42.746094 210.738281 42.929688 C 210.738281 43.28125 210.796875 43.628906 210.917969 43.972656 C 211.003906 44.28125 211.15625 44.527344 211.382812 44.707031 C 211.605469 44.890625 211.871094 44.980469 212.179688 44.980469 C 212.777344 44.980469 213.300781 44.804688 213.746094 44.449219 C 214.195312 44.097656 214.589844 43.636719 214.921875 43.0625 L 217.175781 34.304688 C 217.261719 33.96875 217.433594 33.722656 217.6875 33.5625 C 217.945312 33.40625 218.207031 33.324219 218.464844 33.324219 C 218.738281 33.324219 218.960938 33.410156 219.140625 33.570312 C 219.261719 33.691406 219.320312 33.847656 219.320312 34.046875 C 219.320312 34.144531 219.3125 34.25 219.292969 34.359375 Z M 216.421875 45.453125 "/>
</g>
</svg>
