<?xml version="1.0" encoding="utf-8"?>
<!-- Generator: Adobe Illustrator 19.0.0, SVG Export Plug-In . SVG Version: 6.00 Build 0)  -->
<svg version="1.1" id="Layer_1" xmlns="http://www.w3.org/2000/svg" xmlns:xlink="http://www.w3.org/1999/xlink" x="0px" y="0px"
	 viewBox="0 0 444 222.9600067" style="enable-background:new 0 0 444 222.9600067;" xml:space="preserve">
<style type="text/css">
	.st0{clip-path:url(#SVGID_2_);}
	.st1{clip-path:url(#SVGID_4_);}
	.st2{clip-path:url(#SVGID_6_);}
	
		.st3{clip-path:url(#SVGID_8_);fill:none;stroke:#999999;stroke-width:1.7979439;stroke-linecap:round;stroke-linejoin:round;stroke-miterlimit:10;stroke-dasharray:7.1917758,3.5958879;}
	
		.st4{clip-path:url(#SVGID_8_);fill:none;stroke:#C0C0C0;stroke-width:1.7979439;stroke-linecap:round;stroke-linejoin:round;stroke-miterlimit:10;stroke-dasharray:14.3835516,7.1917758;}
	.st5{clip-path:url(#SVGID_8_);fill-rule:evenodd;clip-rule:evenodd;fill:#FFFFFF;}
	
		.st6{clip-path:url(#SVGID_8_);fill:none;stroke:#000000;stroke-width:1.7979439;stroke-linecap:round;stroke-linejoin:round;stroke-miterlimit:10;}
	.st7{clip-path:url(#SVGID_8_);}
	.st8{clip-path:url(#SVGID_8_);fill-rule:evenodd;clip-rule:evenodd;}
	.st9{clip-path:url(#SVGID_10_);fill-rule:evenodd;clip-rule:evenodd;}
	.st10{clip-path:url(#SVGID_12_);fill-rule:evenodd;clip-rule:evenodd;}
	.st11{clip-path:url(#SVGID_14_);fill-rule:evenodd;clip-rule:evenodd;}
	.st12{clip-path:url(#SVGID_8_);fill-rule:evenodd;clip-rule:evenodd;fill:#804040;}
	.st13{clip-path:url(#SVGID_16_);fill-rule:evenodd;clip-rule:evenodd;}
	.st14{clip-path:url(#SVGID_18_);fill-rule:evenodd;clip-rule:evenodd;}
	.st15{clip-path:url(#SVGID_20_);fill-rule:evenodd;clip-rule:evenodd;}
	
		.st16{clip-path:url(#SVGID_8_);fill:none;stroke:#B0B0B0;stroke-width:1.7979439;stroke-linecap:round;stroke-linejoin:round;stroke-miterlimit:10;}
	.st17{clip-path:url(#SVGID_22_);fill-rule:evenodd;clip-rule:evenodd;fill:#BDBDBD;}
	.st18{clip-path:url(#SVGID_24_);fill-rule:evenodd;clip-rule:evenodd;}
	.st19{clip-path:url(#SVGID_8_);fill:#CC4125;}
	.st20{clip-path:url(#SVGID_26_);fill-rule:evenodd;clip-rule:evenodd;fill:#CC4125;}
	
		.st21{clip-path:url(#SVGID_26_);fill:none;stroke:#CC4125;stroke-width:0.5396689;stroke-linecap:round;stroke-linejoin:round;stroke-miterlimit:10;}
	.st22{clip-path:url(#SVGID_8_);fill:#FF9900;}
	
		.st23{clip-path:url(#SVGID_8_);fill:none;stroke:#999999;stroke-width:1.7979439;stroke-linecap:round;stroke-linejoin:round;stroke-miterlimit:10;}
	.st24{clip-path:url(#SVGID_28_);fill-rule:evenodd;clip-rule:evenodd;fill:#B0B0B0;}
	.st25{clip-path:url(#SVGID_30_);fill-rule:evenodd;clip-rule:evenodd;fill:#CC4125;}
	
		.st26{clip-path:url(#SVGID_30_);fill:none;stroke:#CC4125;stroke-width:0.5396659;stroke-linecap:round;stroke-linejoin:round;stroke-miterlimit:10;}
	.st27{clip-path:url(#SVGID_32_);fill-rule:evenodd;clip-rule:evenodd;}
	.st28{opacity:0.39216;clip-path:url(#SVGID_8_);fill-rule:evenodd;clip-rule:evenodd;fill:#81CDE5;}
	.st29{clip-path:url(#SVGID_8_);fill-rule:evenodd;clip-rule:evenodd;fill:#CEEBF5;}
</style>
<g>
	<defs>
		<rect id="SVGID_1_" width="444" height="222.9600067"/>
	</defs>
	<clipPath id="SVGID_2_">
		<use xlink:href="#SVGID_1_"  style="overflow:visible;"/>
	</clipPath>
	<g class="st0">
		<defs>
			<rect id="SVGID_3_" x="0.0000066" width="444" height="222.9600067"/>
		</defs>
		<clipPath id="SVGID_4_">
			<use xlink:href="#SVGID_3_"  style="overflow:visible;"/>
		</clipPath>
		<g class="st1">
		</g>
	</g>
	<g class="st0">
		<defs>
			<rect id="SVGID_5_" y="-0.0000458" width="444" height="222.9600067"/>
		</defs>
		<clipPath id="SVGID_6_">
			<use xlink:href="#SVGID_5_"  style="overflow:visible;"/>
		</clipPath>
		<g class="st2">
			<defs>
				<rect id="SVGID_7_" y="0.0062714" width="443.4951172" height="222.7436981"/>
			</defs>
			<clipPath id="SVGID_8_">
				<use xlink:href="#SVGID_7_"  style="overflow:visible;"/>
			</clipPath>
			<line class="st3" x1="365.4400024" y1="155.2615051" x2="365.4400024" y2="189.3539276"/>
			<line class="st4" x1="266.522583" y1="176.739624" x2="362.3271484" y2="189.2088928"/>
			<ellipse class="st5" cx="73.7508392" cy="114.0516434" rx="53.9385948" ry="71.9173813"/>
			<ellipse class="st6" cx="73.7508392" cy="114.0516434" rx="53.9385948" ry="71.9173813"/>
			<ellipse class="st6" cx="73.6765213" cy="114.0516434" rx="62.2849312" ry="84.9524002"/>
			<path class="st7" d="M436.7503967,164.2140198l-17.0613708-7.8258209l2.9402466,4.9479218l-0.2481079,1.7811584
				l-4.1820374,3.9554443L436.7503967,164.2140198z M70.0782242,112.1614151l352.5654602,49.1771011l-0.2481384,1.7811584
				L69.8301086,113.9425659c-0.4926453-0.0683212-0.8354568-0.5225983-0.7659302-1.0140305
				C69.1324997,112.4358978,69.5867844,112.0930862,70.0782242,112.1614151z"/>
			<line class="st6" x1="73.7508392" y1="113.5386276" x2="73.7508392" y2="43.4383698"/>
			<circle class="st8" cx="73.6765289" cy="113.5386276" r="4.3150902"/>
			<g class="st7">
				<defs>
					<rect id="SVGID_9_" x="47.1615067" y="109.7620316" width="25.080471" height="37.7755432"/>
				</defs>
				<clipPath id="SVGID_10_">
					<use xlink:href="#SVGID_9_"  style="overflow:visible;"/>
				</clipPath>
				<path class="st9" d="M64.9582825,121.7002335c-0.266098-0.6592407-0.6661987-1.1938248-1.1998405-1.6061478
					c-0.5331612-0.412323-1.1876183-0.6160889-1.9631462-0.6184845c-0.7668915,0.0023956-1.5301895,0.2109528-2.28965,0.6304703
					c-0.7587433,0.4195175-1.4374161,0.9636917-2.0360184,1.6277237c-0.7513123,0.810257-1.3446426,1.6852493-1.7807121,2.6309586
					c-0.4360657,0.9454651-0.7757607,1.9036331-1.0183678,2.875473c-0.2821617,1.0595779-0.4557266,2.0911026-0.5204544,3.0938644
					c-0.0163002,0.1889038-0.0242119,0.3773346-0.0242119,0.5647888c0,0.7850952,0.1292152,1.5534058,0.3874016,2.3056488
					c0.2507591,0.6676331,0.6345673,1.2264404,1.1514206,1.6771088c0.5168571,0.4514008,1.163166,0.6762543,1.9382133,0.6755371
					c0.799736,0.0007172,1.5822105-0.2286835,2.3452682-0.6872711c0.7633018-0.4588318,1.4477272-1.0257874,2.053524-1.7006073
					c0.7839127-0.9087982,1.3933029-1.8698425,1.8293686-2.8814697c0.4367905-1.0116272,0.791832-2.0431671,1.0660782-3.0945816
					c0.2507553-0.9792709,0.4082565-1.9439163,0.4727478-2.8939362v-0.4116058
					C65.3699036,123.105011,65.2332535,122.3738556,64.9582825,121.7002335z M67.4059219,127.6285782
					c-0.2910309,1.1379623-0.7616196,2.2356491-1.4117661,3.2945175c-0.6499023,1.0586243-1.4681015,2.0270996-2.4533882,2.9049683
					c-0.888195,0.792511-1.8602982,1.4225159-2.9146271,1.8887634c-1.0543289,0.4660339-2.110096,0.6992798-3.1682625,0.6992798
					c-1.0660744,0-2.0137253-0.2346802-2.8417473-0.7052612c-0.8277855-0.4705811-1.4880028-1.1056061-1.9806442-1.9062805
					c-0.5413094-0.8852997-0.8522377-1.8662415-0.9330254-2.9411621c-0.0323639-0.2579346-0.0486679-0.5168457-0.0486679-0.7762146
					c0-0.8074036,0.1052437-1.6425934,0.3147659-2.5058365c0.3073311-1.1521072,0.781517-2.2711334,1.4242325-3.3577957
					c0.6424713-1.0849915,1.4637833-2.0678558,2.465374-2.9476318c0.888916-0.7910919,1.8600578-1.4287491,2.9143867-1.9105988
					c1.0543289-0.481842,2.118248-0.7239609,3.1924744-0.7239609c1.0660744,0,2.0094109,0.2445145,2.8292847,0.7287598
					c0.8205948,0.4866409,1.4764938,1.129097,1.968895,1.9297714c0.5413132,0.8869705,0.8603897,1.8746338,0.9574814,2.9641724
					c0.0160599,0.2675323,0.0242081,0.5300293,0.0242081,0.788208
					C67.7448959,125.8917847,67.6324615,126.7507172,67.4059219,127.6285782z"/>
			</g>
			<g class="st7">
				<defs>
					<rect id="SVGID_11_" x="405.4815674" y="158.2751007" width="20.7668152" height="37.7755394"/>
				</defs>
				<clipPath id="SVGID_12_">
					<use xlink:href="#SVGID_11_"  style="overflow:visible;"/>
				</clipPath>
				<path class="st10" d="M421.6969299,175.4828796c-0.0882263,0.3536072-0.2682495,0.6182556-0.5389099,0.794693
					c-0.2704163,0.1764374-0.5424805,0.2646484-0.8174438,0.2639313c-0.2824097,0.0007172-0.5168762-0.0896606-0.7028809-0.2706451
					c-0.1369019-0.1323395-0.2095337-0.3049316-0.2184143-0.5175629c0-0.0853424,0.0160828-0.1956177,0.0484314-0.3293762
					c0.0889282-0.2970276,0.226532-0.5225983,0.4118652-0.6755371c0.1860046-0.1529541,0.3152161-0.2411652,0.388092-0.265625
					c-0.1529236-0.116745-0.4684143-0.1757202-0.9454651-0.1764221c-0.4197693,0.0007019-0.7956543,0.2183838-1.1264648,0.653717
					c-0.3308411,0.4353333-0.5777588,0.9586487-0.739563,1.5697021l-1.1147461,4.3054199
					c-0.1131287,0.4324646-0.1977539,0.8440704-0.2543335,1.2352905c-0.0323792,0.1337738-0.0484314,0.2514801-0.0484314,0.3528748
					c0,0.2440491,0.0402832,0.4751282,0.1213074,0.6940002c0.08078,0.2361298,0.2020874,0.4243164,0.3638916,0.565506
					c0.1618347,0.1412048,0.3675232,0.2116852,0.6175537,0.2109528c0.3236389,0.0007324,0.634552-0.0829315,0.9330139-0.252182
					c0.2991638-0.1682892,0.5741272-0.3955383,0.8241882-0.682251c0.2500305-0.2859955,0.4720154-0.6189728,0.6661987-0.9998779
					c0.1941528-0.3802032,0.3471069-0.7704773,0.4602661-1.1712952c0.0484314-0.2028046,0.1860352-0.3051605,0.4116211-0.3058777
					h0.2787781c0.2102661,0.0007172,0.3154907,0.0795746,0.3154907,0.2353973c0,0.0477142-0.0117493,0.091095-0.0361938,0.1294556
					c-0.1131592,0.4710541-0.2970276,0.9358826-0.5513611,1.3947144c-0.254364,0.4585876-0.5506592,0.8644409-0.8903503,1.2175446
					c-0.3396912,0.3528748-0.7249451,0.6431732-1.1574097,0.8697205c-0.4322205,0.2279816-0.8946533,0.3411255-1.3872986,0.3411255
					c-0.5007935,0-0.9330139-0.1074066-1.2962036-0.3233795c-0.3631897-0.214798-0.6587524-0.4957581-0.8853149-0.8412018
					c-0.0718994-0.0853424-0.1287231-0.1735535-0.1690063-0.2639313c-0.0404968-0.0896606-0.0529785-0.1037903-0.0368958-0.0419464
					c-0.1932373,0.3219452-0.4998474,0.6477203-0.9205627,0.9770966c-0.4197693,0.3293915-0.9042358,0.4933624-1.4541931,0.4933624
					c-0.3066101,0-0.6096191-0.0390778-0.908783-0.1177063c-0.2984619-0.0779114-0.5595398-0.1992035-0.7815247-0.3639069
					c-0.2219849-0.1646729-0.389801-0.3646088-0.5029297-0.6007385c-0.0558777-0.1402283-0.0839233-0.2931824-0.0846252-0.4585876
					c0.0007019-0.1169891,0.0169983-0.2545929,0.048645-0.41185c0.0889587-0.3521576,0.2704163-0.616806,0.5453796-0.7932434
					s0.5492249-0.2646484,0.8234558-0.2653656c0.2831421,0.0007172,0.5257263,0.091095,0.727356,0.270401
					c0.1373596,0.1337738,0.2059021,0.3066101,0.2059021,0.5175629c0,0.1102753-0.0162964,0.2205505-0.048645,0.3293762
					c-0.0719299,0.2749634-0.2035217,0.4971924-0.3934021,0.6654663c-0.1896362,0.1690063-0.3255615,0.2610779-0.4065857,0.2756958
					c0.1536865,0.1265717,0.4648438,0.1853027,0.9330139,0.1764221c0.4207458,0.0007324,0.7999878-0.2183838,1.1389465-0.6580353
					c0.3396912-0.4389191,0.585907-0.9646454,0.739563-1.576889l1.1264648-4.3291626
					c0.1131592-0.4072876,0.2023315-0.8073883,0.2668152-1.1998138c0.0162964-0.1251373,0.0244751-0.2428436,0.0244751-0.3531036
					c0-0.2426147-0.0362244-0.4696198-0.1095581-0.682251c-0.0803223-0.2344513-0.2052307-0.4240723-0.374939-0.5698242
					c-0.1699829-0.1448059-0.3802185-0.2176819-0.630249-0.2183838c-0.3233948,0.0007019-0.6367188,0.0853271-0.9397278,0.2536163
					c-0.3027649,0.1692352-0.5791931,0.394104-0.8292236,0.6764984s-0.4720154,0.6103363-0.6661987,0.9823914
					c-0.1941833,0.3727722-0.3351135,0.7668762-0.4250183,1.1813507c-0.0882263,0.2126312-0.2373352,0.3221893-0.4475708,0.3293762
					h-0.2670593c-0.1932068,0.0007172-0.2903137-0.0968475-0.2903137-0.2938995v-0.0824585
					c0.1213074-0.485199,0.3073425-0.9579468,0.557373-1.4167786c0.2497864-0.4588165,0.5491943-0.8646698,0.8960876-1.2175446
					c0.3478394-0.3528748,0.7359619-0.6410217,1.1638794-0.8646698c0.4279175-0.2234344,0.8927307-0.335144,1.3925781-0.3358612
					c0.4854431,0.0007172,0.9133606,0.1064301,1.2844543,0.3183441c0.3720398,0.2116852,0.6750488,0.4940796,0.908783,0.8462219
					c0.0486755,0.086792,0.0935059,0.1793213,0.1337891,0.2771301c0.0404968,0.098526,0.0522461,0.1234589,0.0361938,0.0757446
					c0.2020874-0.3442383,0.5130005-0.6829681,0.9330139-1.0169067c0.4204712-0.3329773,0.9006348-0.4998169,1.4417114-0.5005341
					c0.3073425,0.0007172,0.6117859,0.0381165,0.9145508,0.1124268c0.303009,0.0750275,0.5662537,0.1939392,0.7882385,0.3586273
					c0.222229,0.1646881,0.3862,0.368454,0.4904785,0.6110535c0.0565796,0.141922,0.0846252,0.303009,0.0846252,0.4823303
					C421.7456055,175.2012024,421.7293091,175.334259,421.6969299,175.4828796z"/>
			</g>
			<g class="st7">
				<defs>
					<rect id="SVGID_13_" x="46.8834267" y="62.9953728" width="25.6383514" height="37.7755356"/>
				</defs>
				<clipPath id="SVGID_14_">
					<use xlink:href="#SVGID_13_"  style="overflow:visible;"/>
				</clipPath>
				<path class="st11" d="M65.1812286,76.8503876c0.1292114-0.4688873,0.2020874-0.9411469,0.2183914-1.4110107v-0.0719147
					c0-0.397934-0.1251373-0.7431335-0.375885-1.0355988c-0.2984543-0.342804-0.6880035-0.587326-1.1688919-0.7263641
					c-0.4808807-0.1414337-1.0080338-0.2133484-1.5814514-0.2133484h-1.6116562
					c-0.4118423,0-0.6580353,0.0311584-0.7390633,0.0934906c-0.0807877,0.0647278-0.1654091,0.2876587-0.2543449,0.6712189
					l-1.5991898,6.2227325h2.338253c0.5734177,0.0007172,1.1394043-0.0699921,1.6967583-0.2111969
					c0.5573578-0.1409454,1.0866623-0.3917084,1.5867271-0.7534485c0.4286232-0.3051605,0.7520103-0.6889648,0.969677-1.1520996
					C64.8789444,77.800415,65.0524979,77.329834,65.1812286,76.8503876z M68.028656,86.7437592
					c-0.0882111,0.3535919-0.2212601,0.7007141-0.3991394,1.0418396c-0.1778717,0.3411255-0.3955383,0.6491699-0.6544418,0.9234161
					c-0.2586594,0.2749634-0.54776,0.4990997-0.8668365,0.6755371c-0.3190689,0.1766815-0.6637878,0.2648926-1.0358429,0.2648926
					c-1.1712837,0-2.0520248-0.3097229-2.6417427-0.9294128c-0.4036903-0.4228668-0.6057777-0.9557648-0.6057777-1.5998993
					c0-0.3286743,0.0529785-0.6851349,0.1579742-1.0706024l0.5448914-2.1054993
					c0.064724-0.2663269,0.0970879-0.5170746,0.0970879-0.7529602c0-0.1169891-0.008152-0.2382965-0.0244522-0.364624
					c-0.0484238-0.3286591-0.1608543-0.6184845-0.3387299-0.8699493c-0.178112-0.2505188-0.4058495-0.448288-0.6846466-0.5940399
					c-0.2785606-0.1447906-0.6079369-0.2176666-0.9881401-0.2183838h-2.7378731l-1.6116524,6.2701874
					c-0.0323639,0.1500702-0.0486679,0.2713623-0.0486679,0.364624c0,0.1184235,0.0242157,0.197052,0.072876,0.2354126
					c0.1049995,0.0630341,0.3233871,0.1006775,0.6542053,0.1124268c0.3317757,0.0117493,0.6868057,0.0175018,1.066288,0.0167847
					c0.2262993,0.0007172,0.3396873,0.0949249,0.3396873,0.2823792c0,0.0477142-0.008152,0.098526-0.0244522,0.1529541
					l-0.0484238,0.1881714c-0.0882187,0.2354126-0.2461967,0.3528748-0.4727325,0.3528748
					c-0.993412-0.0469818-1.9947357-0.0704803-3.0049286-0.0704803c-1.0094719,0-2.0232582,0.0234985-3.0408821,0.0704803
					c-0.2176704,0-0.3346519-0.1014099-0.3514328-0.3058777v-0.0939789l0.0484238-0.1999359
					c0.064724-0.2581787,0.221981-0.3837891,0.4720116-0.3766022c0.3802032,0.0007172,0.7397842-0.0050354,1.0787544-0.0167694
					c0.339447-0.0117493,0.5894775-0.0529785,0.7512932-0.1244202c0.1536598-0.0850983,0.2706451-0.2970123,0.3514328-0.635025
					l3.4047813-13.2583618c0.0486641-0.1725922,0.072155-0.3044434,0.072155-0.4003296
					c0-0.0934906-0.0198975-0.1486359-0.0604095-0.1630249c-0.1131477-0.0695038-0.3329735-0.1126556-0.6601944-0.1294403
					c-0.3272247-0.014389-0.6844101-0.0239716-1.0725212-0.0239716c-0.2258186,0-0.3389702-0.105484-0.3389702-0.3188324v-0.0935059
					l0.0726395-0.1989594c0.0486603-0.2349243,0.1984863-0.3524017,0.4485168-0.3547974l6.8215561,0.0000153
					c0.7675934,0.0023956,1.4982681,0.1030731,2.193222,0.306839c0.6947174,0.2061615,1.300499,0.5417786,1.817337,1.0116272
					c0.4279099,0.3763733,0.7390671,0.839035,0.9332428,1.3880005c0.1212997,0.2996521,0.185791,0.608902,0.1932144,0.93013
					c0,0.2900696-0.0441055,0.5777283-0.1330414,0.8582153c-0.1529465,0.628067-0.4720154,1.1971741-0.9572144,1.7065735
					c-0.4844818,0.5101318-1.0300903,0.9447479-1.6358719,1.3050537c-0.4199905,0.2440338-0.8454971,0.4463654-1.2779579,0.6065063
					c-0.4322243,0.161087-0.7409859,0.2610474-0.9270096,0.2991638c0.4602699,0.1809998,0.896801,0.5338745,1.308651,1.0588684
					c0.3478317,0.4559479,0.5211487,1.0005951,0.5211487,1.6351471c0,0.1337585-0.0079041,0.2675323-0.0242081,0.3998566
					L64.5510025,86.04953c-0.0640106,0.5501556-0.0963669,1.0279236-0.0963669,1.4352112
					c0,0.2677765,0.0162964,0.5029449,0.0486603,0.7059937c0.0565796,0.4631348,0.2984543,0.6947174,0.7263641,0.6940002
					c0.3881073,0.0007172,0.7433777-0.2088013,1.0667572-0.6285553c0.3236313-0.419281,0.5619202-0.9389954,0.7146149-1.5596466
					c0.08918-0.2344513,0.2464371-0.3483124,0.4729767-0.3411255h0.1932144
					c0.2183914,0.0007172,0.3353729,0.1030884,0.3514328,0.3058929V86.7437592z"/>
			</g>
			<line class="st6" x1="66.243782" y1="29.9706421" x2="68.3869476" y2="41.5001831"/>
			<line class="st6" x1="82.384613" y1="29.9706421" x2="80.5854645" y2="41.5001831"/>
			<polygon class="st12" points="69.8217163,30.1779938 67.5742722,30.6274872 69.3722305,41.4150848 79.2609711,40.9656067 
				80.1599503,35.5717926 77.4630203,35.1223145 81.0589218,31.9759369 81.0589218,30.6274872 			"/>
			<polygon class="st12" points="69.8145218,30.1791992 81.0517349,31.0781708 77.9053116,35.1235199 80.1527557,36.9214478 
				79.70327,40.9667969 81.0517349,30.6286774 			"/>
			<path class="st8" d="M68.293457,29.9706421l-2.049675,0.5177917l2.5614929,12.4309235l11.2731628-1.0355988l0.5118179,1.5546112
				c0.2565079-1.7272186,1.2813416-8.2021942,1.5378494-10.3597107c0.2565079-2.1587219,0-2.1587219,0-2.5902252
				L68.293457,29.9706421z"/>
			<g class="st7">
				<defs>
					<rect id="SVGID_15_" x="59.7735481" y="-3.2873001" width="29.5224609" height="37.7755432"/>
				</defs>
				<clipPath id="SVGID_16_">
					<use xlink:href="#SVGID_15_"  style="overflow:visible;"/>
				</clipPath>
				<path class="st13" d="M72.8420639,14.5320282c-0.266098-0.5249939-0.6463089-0.9579468-1.1389465-1.2990723
					s-1.0579147-0.5118103-1.6960754-0.5125275c-0.5089417,0.0007172-0.9852829,0.1205902-1.4294968,0.3595886
					c-0.4439697,0.2397156-0.827774,0.5705414-1.151413,0.9934082c-0.3550339,0.4792023-0.5830154,1.0145111-0.6844177,1.6063843
					c-0.1006851,0.5926056-0.1515121,1.2058105-0.1515121,1.8403625c0,0.6359711,0.0448303,1.2439117,0.133049,1.8240509
					c0.0889435,0.5808411,0.2991867,1.1257324,0.630249,1.6344299c0.2749634,0.4005737,0.6242523,0.7227631,1.0483246,0.9653625
					c0.424324,0.2433167,0.870697,0.364624,1.3381653,0.3639069c0.7028809,0.0007172,1.3249741-0.1934662,1.8660431-0.5815735
					c0.5413055-0.3881073,0.9536285-0.8845825,1.2360306-1.4889221V14.5320282z M72.8420639,23.0961304v-1.3999939
					c-0.2581863,0.3221893-0.6719589,0.634552-1.2417908,0.9361267c-0.5691147,0.3013306-1.2058258,0.4521179-1.9087067,0.4521179
					c-0.7426758,0-1.4455643-0.1447906-2.1079254-0.4346161c-0.6618881-0.2895966-1.235321-0.6904144-1.7205276-1.2005463
					c-0.5250015-0.5484772-0.9227142-1.1559448-1.193367-1.8226013c-0.2706528-0.6661987-0.4065781-1.3683472-0.4065781-2.1064606
					c0-0.7366638,0.141922-1.4462433,0.4243164-2.1284943c0.2828827-0.6824951,0.6947327-1.2861176,1.2357941-1.8115845
					c0.5413055-0.5249939,1.1595688-0.9308472,1.8542938-1.2175446c0.6949768-0.2859955,1.4220657-0.4295959,2.180809-0.4303131
					c0.6544571,0.0007172,1.2506561,0.1404877,1.7874069,0.4185638c0.537468,0.2785645,0.9191132,0.5623932,1.1446991,0.8519745
					V8.3080902c0-0.2013702-0.0095901-0.4003296-0.0299683-0.5921173c-0.0198975-0.1917725-0.098526-0.3379974-0.2361298-0.4410858
					c-0.1373672-0.0934906-0.3557587-0.1486206-0.6544571-0.1654053c-0.2984619-0.014389-0.6256866-0.0239716-0.9814453-0.0239716
					V6.1338043l3.8167038-0.2828674v14.7748413c0,0.2042389,0.0103149,0.4005737,0.0302124,0.5887604
					c0.0203705,0.1884308,0.1014023,0.3293762,0.2425995,0.4235992c0.1412048,0.0942078,0.3617554,0.1515045,0.6602097,0.1706696
					c0.2991867,0.0196686,0.6300049,0.0292511,0.9931946,0.0285339v0.9646454L72.8420639,23.0961304z"/>
				<path class="st13" d="M80.5538635,20.1434631c-0.0807877,0.3219452-0.1373596,0.6242371-0.1697235,0.9056702
					c-0.016304,0.141922-0.0244522,0.2713623-0.0244522,0.3883514c0,0.1028442,0.0081482,0.2124023,0.0244522,0.3293762
					c0.0249329,0.1889038,0.0815048,0.3301086,0.1697235,0.4240723c0.0889435,0.0942078,0.2219849,0.1412048,0.4001083,0.1404724
					c0.1697311,0.0007324,0.3212357-0.0697479,0.4542847-0.2109528c0.1337662-0.1411896,0.2646561-0.350708,0.3941116-0.6292725
					c0.1294556-0.2780762,0.2485962-0.6117706,0.3574295-0.9998779c0.1086044-0.3883514,0.224144-0.8023529,0.3447342-1.2420044
					c0.0484238-0.2191162,0.1860275-0.3286591,0.4125671-0.3293762h0.2785645
					c0.1941833,0.0007172,0.2903137,0.0867767,0.2903137,0.2588959v0.0822296
					c-0.0807877,0.3617401-0.1850739,0.7639923-0.3145294,1.2065277c-0.1294479,0.4434814-0.2905426,0.8574829-0.4844818,1.2410431
					c-0.1941833,0.3847504-0.4442215,0.7141266-0.7515488,0.9883728c-0.3073349,0.2742462-0.682991,0.4108887-1.1272049,0.4108887
					c-0.419754,0-0.7829437-0.0800781-1.0902786-0.2411652c-0.3066101-0.1603699-0.5528107-0.3830719-0.7388382-0.6697845
					c-0.1853104-0.2859955-0.2948685-0.6139374-0.3272324-0.9831085c-0.0162964-0.0932465-0.0242081-0.1953735-0.0242081-0.3058777
					c0-0.266098,0.0323639-0.5365143,0.0968475-0.8114624l3.1013565-12.047287
					c0.0647278-0.2565002,0.1095581-0.4530792,0.1337662-0.587326V7.4259186c0-0.069519-0.0196533-0.1198578-0.0608902-0.1510315
					c-0.0970917-0.0623169-0.278801-0.1054688-0.544899-0.1294403s-0.5734253-0.035965-0.9212799-0.035965
					c-0.120575,0-0.2095184-0.0383606-0.266098-0.1174622c-0.0486603-0.0479431-0.072876-0.105484-0.072876-0.1773987
					c0-0.0455475,0.0124664-0.0886993,0.0362015-0.1294556l0.0366745-0.1749878
					c0.0242157-0.1102753,0.0807877-0.1917877,0.1697311-0.2469177c0.0889359-0.05513,0.1860275-0.0934906,0.2905502-0.1198578
					l3.1627274-0.2565002h0.0719223c0.1941757,0,0.2924652,0.0862885,0.2924652,0.2565002
					c0,0.0479431-0.0095901,0.1006775-0.0239716,0.1534271L80.5538635,20.1434631z"/>
			</g>
			<circle class="st8" cx="266.522583" cy="140.2487488" r="4.3150787"/>
			<line class="st6" x1="73.6765213" y1="40.9667969" x2="266.522583" y2="140.2487488"/>
			<g class="st7">
				<defs>
					<rect id="SVGID_17_" x="159.5443726" y="56.4976273" width="19.3134766" height="37.7755432"/>
				</defs>
				<clipPath id="SVGID_18_">
					<use xlink:href="#SVGID_17_"  style="overflow:visible;"/>
				</clipPath>
				<path class="st14" d="M174.2987061,73.7171631c-0.0882111,0.3454437-0.2684937,0.6065063-0.5389099,0.7829437
					c-0.2706451,0.1764374-0.543457,0.2646484-0.8184357,0.2639313c-0.2823944,0.0007172-0.5168457-0.0896606-0.7028809-0.2706451
					c-0.1529388-0.1249084-0.2301331-0.2970276-0.2301331-0.5175629c0-0.1088409,0.0160522-0.2191162,0.0484161-0.3293915
					c0.072876-0.2735138,0.2001801-0.4887848,0.3816528-0.646286c0.1824341-0.1565399,0.3051758-0.2433167,0.3699036-0.2593842
					c-0.185318-0.1404724-0.5691223-0.2111969-1.151413-0.2119141c-0.6132355,0.0007172-1.1602936,0.2500305-1.6411896,0.7479401
					c-0.480896,0.4983826-0.914566,1.1703186-1.3026733,2.0165405l-1.7574615,6.7290344
					c-0.0719147,0.2910156-0.2198181,0.5079651-0.4418182,0.6527557c-0.2219849,0.1455231-0.4463654,0.2176666-0.6726685,0.2176666
					c-0.2418823,0-0.4279175-0.0779114-0.557373-0.2351685c-0.1045227-0.1016388-0.1572571-0.2428284-0.1572571-0.423584
					c0-0.0697632,0.0079041-0.1558228,0.0242004-0.2588959l1.8653259-7.2815857
					c0.1294556-0.5089417,0.1941833-0.9485931,0.1941833-1.3175201v-0.2823944
					c-0.0397949-0.3756409-0.2294159-0.5640717-0.5691071-0.5647888c-0.3560028,0.0007172-0.6530304,0.2876587-0.8913116,0.8596497
					c-0.2380524,0.5726929-0.469635,1.3175049-0.696167,2.2342072c-0.0889435,0.2126465-0.2382965,0.3221893-0.4485474,0.3293915
					h-0.2785645c-0.1941681,0.0007172-0.2912598-0.0968475-0.2912598-0.2938995v-0.0824738
					c0.0970917-0.3674927,0.2066498-0.7697449,0.3279419-1.2050781c0.1213074-0.4351044,0.2831268-0.8469543,0.4844971-1.2350616
					c0.2023315-0.3883514,0.4566803-0.7177277,0.7632904-0.9881439c0.3073273-0.2706451,0.6904144-0.405838,1.1506958-0.4065552
					c0.6146698,0.0007172,1.1094666,0.175705,1.4844055,0.5240326c0.3756561,0.3492737,0.5875702,0.6918335,0.6360016,1.0286407
					c0.2831116-0.3756409,0.6772308-0.7285156,1.1816101-1.0578918c0.5051117-0.3293762,1.0842896-0.4940643,1.7387543-0.4947815
					c0.3236389,0.0007172,0.652298,0.0345154,0.987442,0.1006775c0.3353882,0.0668945,0.630249,0.1764374,0.8845978,0.3293762
					c0.2543488,0.1529541,0.4425354,0.3550415,0.5638428,0.605072c0.072876,0.1572571,0.1131439,0.3336945,0.1205902,0.5292969
					C174.3588867,73.4237518,174.3389893,73.5611115,174.2987061,73.7171631z"/>
			</g>
			<g class="st7">
				<defs>
					<rect id="SVGID_19_" x="146.6410675" y="94.2650452" width="20.7667999" height="37.7755356"/>
				</defs>
				<clipPath id="SVGID_20_">
					<use xlink:href="#SVGID_19_"  style="overflow:visible;"/>
				</clipPath>
				<path class="st15" d="M162.8564148,111.4728241c-0.0882111,0.3535919-0.2682495,0.618248-0.5389099,0.7946854
					c-0.270401,0.1764374-0.5424957,0.2646484-0.8174591,0.2639313c-0.2823944,0.0007172-0.516861-0.089653-0.7028809-0.2706451
					c-0.1368866-0.1323318-0.2095184-0.3049316-0.2183838-0.5175629c0-0.0853424,0.0160522-0.1956177,0.0484161-0.3293839
					c0.0889435-0.2970123,0.2265472-0.5225906,0.41185-0.6755371c0.1860352-0.1529388,0.3152466-0.2411652,0.3881226-0.2656097
					c-0.1529541-0.116745-0.4684296-0.1757202-0.9454803-0.1764374c-0.4197693,0.0007172-0.7956543,0.2183838-1.1264801,0.6537247
					s-0.5777435,0.9586487-0.739563,1.5697098l-1.1147156,4.3054199c-0.1131592,0.4324646-0.1977844,0.8440628-0.254364,1.2352905
					c-0.0323486,0.1337662-0.0484161,0.2514725-0.0484161,0.3528748c0,0.2440338,0.0402679,0.4751282,0.1213074,0.6940002
					c0.08078,0.2361221,0.2020874,0.4243088,0.3638916,0.565506c0.1618195,0.1411972,0.3675079,0.2116699,0.6175385,0.2109528
					c0.3236389,0.0007172,0.6345673-0.0829468,0.9330139-0.2521896c0.2991791-0.1682816,0.5741577-0.3955383,0.8241882-0.682251
					c0.2500305-0.2859879,0.4720154-0.6189651,0.6661987-0.9998856c0.1941833-0.3801956,0.3471222-0.770462,0.4602814-1.1712799
					c0.0484161-0.2028122,0.1860199-0.3051682,0.4116058-0.3058929h0.2787933
					c0.2102509,0.0007248,0.3154907,0.0795898,0.3154907,0.2354126c0,0.047699-0.0117493,0.091095-0.0362091,0.1294479
					c-0.1131439,0.4710541-0.2970123,0.9358826-0.5513611,1.3947067c-0.2543488,0.4585953-0.5506592,0.8644409-0.8903503,1.2175598
					c-0.3396912,0.3528671-0.7249298,0.6431732-1.1573944,0.8697128c-0.4322357,0.2279739-0.8946686,0.3411255-1.3872986,0.3411255
					c-0.5007935,0-0.9330139-0.107399-1.2962036-0.3233871c-0.3631897-0.214798-0.6587677-0.4957504-0.8853149-0.8411865
					c-0.0719147-0.0853424-0.1287231-0.1735611-0.1690063-0.2639389c-0.0405121-0.089653-0.0529785-0.1037979-0.036911-0.041954
					c-0.193222,0.3219528-0.4998322,0.6477356-0.9205475,0.9771118c-0.4197693,0.3293839-0.9042511,0.4933472-1.4541931,0.4933472
					c-0.3066101,0-0.6096191-0.0390701-0.9087982-0.1176987c-0.2984619-0.0779114-0.5595245-0.1992111-0.7815094-0.3638992
					s-0.389801-0.364624-0.5029449-0.6007462c-0.0558624-0.1402435-0.0839081-0.2931824-0.0846252-0.4585953
					c0.0007172-0.1169815,0.0170135-0.2545853,0.0486603-0.4118423c0.0889435-0.35215,0.2704163-0.616806,0.5453796-0.7932434
					s0.5492096-0.2646561,0.8234558-0.2653732c0.2831268,0.0007172,0.5257263,0.091095,0.7273407,0.2704086
					c0.1373596,0.1337662,0.2059174,0.3066025,0.2059174,0.5175629c0,0.1102753-0.0162964,0.2205429-0.0486603,0.3293762
					c-0.0719147,0.2749634-0.2035217,0.4971848-0.3933868,0.6654739c-0.189621,0.1690063-0.3255463,0.2610626-0.4065857,0.2756805
					c0.1536713,0.1265717,0.4648285,0.1853027,0.9330139,0.1764374c0.4207306,0.0007172,0.7999725-0.2183838,1.1389465-0.6580353
					c0.3396912-0.4389343,0.5858917-0.9646454,0.739563-1.5769043l1.1264648-4.329155
					c0.1131592-0.4072876,0.2023315-0.8073883,0.2668152-1.1998138c0.0163116-0.1251297,0.0244598-0.242836,0.0244598-0.3531113
					c0-0.2425995-0.0361938-0.4696198-0.1095581-0.682251c-0.080307-0.2344513-0.2052002-0.4240723-0.3749237-0.5698242
					c-0.1699677-0.1447906-0.3802185-0.2176666-0.630249-0.2183838c-0.3233948,0.0007172-0.6367188,0.0853424-0.9397278,0.253624
					c-0.3027802,0.1692429-0.5791779,0.394104-0.8292084,0.6764984c-0.2500458,0.2823944-0.4720306,0.6103287-0.6661987,0.9823837
					c-0.1941833,0.3727722-0.335144,0.7668762-0.4250488,1.1813507c-0.0882111,0.2126389-0.2373199,0.3221893-0.4475708,0.3293839
					h-0.2670441c-0.193222,0.0007172-0.2903137-0.0968475-0.2903137-0.2938995v-0.0824661
					c0.1213074-0.485199,0.3073273-0.9579315,0.5573578-1.4167633c0.2498016-0.4588318,0.5492249-0.8646774,0.8961029-1.2175522
					c0.3478394-0.3528748,0.7359619-0.6410217,1.1638794-0.8646774c0.4279022-0.2234268,0.8927307-0.3351364,1.3925629-0.3358536
					c0.4854584,0.0007172,0.9133606,0.1064377,1.2844543,0.3183517c0.3720551,0.2116776,0.6750793,0.494072,0.9088135,0.8462219
					c0.0486603,0.0867767,0.0934906,0.1793137,0.1337585,0.2771225c0.0405121,0.098526,0.0522614,0.1234589,0.0362091,0.0757523
					c0.2020874-0.3442383,0.5130157-0.6829681,0.9330139-1.0169067c0.4204712-0.3329773,0.90065-0.4998245,1.4417114-0.5005417
					c0.3073273,0.0007172,0.6117859,0.0381165,0.914566,0.1124344c0.303009,0.0750275,0.5662231,0.1939392,0.788208,0.3586273
					c0.222229,0.1646881,0.3862,0.368454,0.4904938,0.6110535c0.0565643,0.1419144,0.08461,0.303009,0.08461,0.4823151
					C162.9050751,111.1911469,162.8887787,111.3241959,162.8564148,111.4728241z"/>
			</g>
			<path class="st16" d="M230.3801422,135.2193298c0.562149-4.0405579,1.7979431-7.9576645,3.6546326-11.588295"/>
			<g class="st7">
				<defs>
					<rect id="SVGID_21_" x="223.4891663" y="88.1928024" width="19.5309601" height="37.7755508"/>
				</defs>
				<clipPath id="SVGID_22_">
					<use xlink:href="#SVGID_21_"  style="overflow:visible;"/>
				</clipPath>
				<path class="st17" d="M230.6548157,106.3180237c-0.2176666,0.886734-0.4080048,1.780899-0.5698242,2.6822586
					c-0.1287231,0.651329-0.1934509,1.3026581-0.1934509,1.9527817c0,0.2440414,0.0081482,0.4792099,0.0244446,0.7057495
					c0.0160675,0.3066025,0.0527496,0.5933075,0.1088409,0.8594055c0.0565796,0.2670517,0.1316071,0.49646,0.2241516,0.6882477
					c0.0925293,0.1927338,0.2162323,0.3411179,0.3698883,0.4470749c0.1536713,0.1057205,0.3396912,0.158699,0.5571289,0.1579819
					c0.4602661,0.0007172,0.8905792-0.2145538,1.2904358-0.6462936c0.400116-0.4307785,0.7771912-0.9490585,1.1329498-1.5534058
					c0.5331573-0.877861,0.9447632-1.7674789,1.2360229-2.6697922c0.291275-0.9013596,0.5410614-1.7763519,0.7505798-2.6240082
					H230.6548157z M236.5918732,100.0255356c-0.0323639-0.3068466-0.072876-0.5921173-0.1212921-0.8582077
					c-0.0484314-0.266098-0.1191559-0.4986267-0.2116852-0.6951981c-0.0927734-0.1941757-0.2119141-0.3475952-0.3574371-0.4530792
					c-0.1455078-0.1054764-0.3308105-0.1582108-0.5573578-0.1582108c-0.4681854,0-0.90065,0.2181473-1.2962036,0.6520386
					c-0.3955383,0.4363022-0.7793427,0.9564972-1.1513977,1.5582047c-0.5329132,0.862999-0.9447632,1.7499771-1.2357941,2.6597214
					c-0.2912598,0.9102325-0.5412903,1.7880936-0.7515411,2.6343231h4.9314117
					c0.2183838-0.8850632,0.4204865-1.7873764,0.6057892-2.7055206c0.1294556-0.6192017,0.1941681-1.2316895,0.1941681-1.8357925
					C236.6405334,100.5577164,236.6242371,100.291626,236.5918732,100.0255356z M238.2277679,99.7546463
					c0.1941833,0.7455444,0.2905426,1.5054626,0.2905426,2.2814484c0,0.2440338-0.0081482,0.4794464-0.0244446,0.7057419
					c-0.0800629,1.036087-0.2536316,2.0748062-0.5204468,3.1173553c-0.2903137,1.0514221-0.6580505,2.0932617-1.1020203,3.1240692
					c-0.4442139,1.0315323-1.0346527,2.0211105-1.7698975,2.9696884c-0.2500305,0.3219528-0.5271606,0.6403046-0.8299255,0.9536209
					c-0.303009,0.313797-0.6280823,0.5940323-0.9749603,0.84095c-0.3471222,0.2471542-0.7088776,0.4492416-1.0845337,0.6053009
					c-0.3756409,0.1572571-0.7697601,0.2351608-1.1816101,0.2351608c-0.419754,0-0.7814941-0.0800629-1.0845184-0.2411575
					c-0.3027649-0.1603775-0.5631104-0.3675003-0.7815094-0.6228027c-0.2176666-0.2543411-0.3977051-0.5388947-0.5388947-0.8526917
					c-0.1412048-0.3133163-0.2565155-0.6352692-0.3456879-0.9653625c-0.2013702-0.7287598-0.3027802-1.4817276-0.3027802-2.2586746
					c0-0.2500305,0.0160675-0.4971848,0.0484314-0.7412186c0.0647278-1.0190659,0.2382813-2.0498734,0.5206757-3.0938644
					c0.2668152-1.0499878,0.6264038-2.088707,1.0785217-3.1166458c0.4528503-1.0279312,1.0543213-2.0203781,1.8058624-2.9768753
					c0.2507477-0.321228,0.5257263-0.6400604,0.824173-0.9588928c0.2984619-0.3164368,0.6175385-0.5993042,0.9565125-0.8462219
					c0.3396912-0.2469101,0.6968842-0.4482803,1.0727692-0.6064987c0.3756561-0.1558151,0.7733612-0.2349319,1.1933594-0.2349319
					c0.4204712,0,0.7800751,0.0815125,1.0785217,0.2421265c0.2984619,0.160614,0.5631256,0.3667755,0.7932587,0.6160889
					c0.2308655,0.251709,0.4125671,0.5393753,0.5456238,0.8606033
					C238.0285492,99.1121902,238.1395416,99.4334183,238.2277679,99.7546463z"/>
			</g>
			<g class="st7">
				<defs>
					<rect id="SVGID_23_" x="259.4470215" y="97.496521" width="25.7824707" height="37.7755432"/>
				</defs>
				<clipPath id="SVGID_24_">
					<use xlink:href="#SVGID_23_"  style="overflow:visible;"/>
				</clipPath>
				<path class="st18" d="M278.0296021,111.4927444c0.1373901-0.49263,0.2301636-0.9720764,0.2785645-1.4347382v-0.213356
					c0-0.3595886-0.1006775-0.6880035-0.303009-0.9876556c-0.2660828-0.3523941-0.6218567-0.5993118-1.06604-0.7455444
					c-0.4440002-0.1438293-0.9248657-0.2181396-1.4417114-0.2181396h-2.278595
					c-0.4116211,0-0.6580505,0.0311584-0.7388306,0.0934906c-0.0810547,0.0647202-0.1654358,0.2876587-0.254364,0.6712189
					l-1.6845398,6.4931335h3.0291748c0.5249939,0.0007248,1.0507202-0.073349,1.5757141-0.222702
					c0.5249939-0.1486206,1.0176392-0.4036865,1.4776611-0.7654343c0.4125671-0.35215,0.7177429-0.7637558,0.9155273-1.2343292
					C277.736908,112.4581146,277.900177,111.9793854,278.0296021,111.4927444z M280.61026,111.5514832
					c-0.1771545,0.6359863-0.4801636,1.2228241-0.9080811,1.7595673c-0.4279175,0.5374527-0.9373169,1.002037-1.5270386,1.3932648
					c-0.6381531,0.4396515-1.3182678,0.7711868-2.041748,0.9946136c-0.7227783,0.2236557-1.4395447,0.3353729-2.1505737,0.3346481
					h-3.598999l-1.5145874,5.8818436c-0.0486755,0.1735611-0.072876,0.3102036-0.072876,0.4116058
					c0,0.0949249,0.0205994,0.1536636,0.0611267,0.1764374c0.1131592,0.071434,0.335144,0.1126709,0.6659546,0.1244125
					c0.3317871,0.0117493,0.6868286,0.0175018,1.0660706,0.0167847c0.226532,0.0007172,0.3396912,0.1102676,0.3396912,0.3293762
					v0.0824661l-0.0484314,0.2116776c-0.0889282,0.235405-0.2461853,0.3528671-0.4727478,0.3528671
					c-1.009491-0.0469818-2.0235291-0.0704803-3.0409241-0.0704803c-1.0257874,0-2.0513306,0.0234985-3.0778198,0.0704803
					c-0.2176819,0-0.3344421-0.1014023-0.3514404-0.3058853v-0.0939713l0.048645-0.1999283
					c0.0644836-0.2581863,0.2219849-0.3837967,0.4720154-0.3766098c0.3799744,0.0007248,0.739563-0.0050278,1.0785522-0.016777
					c0.3396912-0.0117416,0.5897217-0.0529785,0.7512817-0.1244125c0.1536865-0.0851059,0.2706604-0.29702,0.3514404-0.635025
					l3.4050598-13.2583618c0.0484314-0.1726074,0.0719299-0.304451,0.0719299-0.4003372
					c0-0.0934982-0.0196838-0.1486282-0.0601807-0.1630173c-0.1131592-0.069519-0.3329773-0.1126709-0.6602173-0.1294479
					c-0.3272095-0.0143814-0.6846313-0.0239716-1.0727539-0.0239716c-0.2258301,0-0.3389893-0.1054764-0.3389893-0.3188324
					v-0.0934906l0.072876-0.198967c0.0484314-0.2349319,0.1984863-0.3523941,0.4485474-0.3547974l7.7661438,0.0000076
					c0.7117615,0.0023956,1.3719482,0.1126633,1.9815674,0.3380051c0.6103516,0.2229462,1.1329651,0.5585632,1.5690002,1.0044403
					c0.3955688,0.4147263,0.6741333,0.9109497,0.8359375,1.4814911c0.0486755,0.2684937,0.072876,0.5393829,0.072876,0.8126602
					C280.7315674,110.877861,280.69104,111.2062836,280.61026,111.5514832z"/>
			</g>
			<path class="st19" d="M368.5516357,155.1164551l-15.2334595-7.6723785l2.6178284,4.470871l-0.3883667,2.6681213
				l-3.786499,3.5359497L368.5516357,155.1164551z M266.8042603,138.9146729l89.144928,13.0014648l-0.3895569,2.669342
				l-89.1437378-13.0014648c-0.7371521-0.1078796-1.2477722-0.7922974-1.1398926-1.5294495
				C265.3826904,139.3174133,266.0682983,138.8079987,266.8042603,138.9146729z"/>
			<g class="st7">
				<defs>
					<rect id="SVGID_25_" x="342.43573" y="113.3676834" width="45.4788208" height="38.0558243"/>
				</defs>
				<clipPath id="SVGID_26_">
					<use xlink:href="#SVGID_25_"  style="overflow:visible;"/>
				</clipPath>
				<path class="st20" d="M355.504303,131.1859589c-0.2661133-0.5249939-0.6463318-0.9581757-1.1389771-1.2993011
					c-0.4926147-0.3411255-1.0578918-0.5115662-1.6960754-0.5125122c-0.5089417,0.000946-0.98526,0.120575-1.4294739,0.3595734
					c-0.4440002,0.2397308-0.8277893,0.5705414-1.1514282,0.9934082c-0.3550415,0.4792023-0.5830078,1.0145111-0.6844177,1.606369
					c-0.1006775,0.5925903-0.1515198,1.2058105-0.1515198,1.8403473c0,0.6359863,0.0448303,1.2439117,0.1330566,1.8240509
					c0.0889282,0.5808411,0.2991943,1.1257324,0.630249,1.6344299c0.2749634,0.4008026,0.6242676,0.7227478,1.0483398,0.9653473
					c0.4243164,0.2433167,0.870697,0.3646088,1.3381653,0.3639069c0.7028809,0.0007019,1.3249817-0.193222,1.8660278-0.5815735
					c0.5413208-0.3881073,0.9536438-0.8843384,1.2360535-1.488678V131.1859589z M355.504303,139.7497864v-1.3997498
					c-0.2582092,0.3219604-0.6719666,0.6343079-1.2417908,0.9358826c-0.5691223,0.3013306-1.2058411,0.4521179-1.9087219,0.4521179
					c-0.7426758,0-1.4455566-0.1448059-2.1079407-0.4346313c-0.6618958-0.2895813-1.235321-0.690155-1.72052-1.2005157
					c-0.5249939-0.5484772-0.9227295-1.1557007-1.1933594-1.8226166c-0.2706604-0.6661682-0.4065857-1.3683167-0.4065857-2.1064301
					c0-0.7366638,0.1419067-1.4462433,0.4243164-2.1284943c0.2828674-0.682251,0.6947327-1.2858582,1.2357788-1.8115692
					c0.5413208-0.5249939,1.1595764-0.9308319,1.8543091-1.2175446c0.6949768-0.2859802,1.4220581-0.4293518,2.1808167-0.4300537
					c0.6544495,0.0007019,1.2506409,0.1402283,1.7874146,0.4183044c0.5374756,0.2785645,0.9190979,0.5623779,1.1446838,0.8519745
					v-4.8934479c0-0.2037582-0.0095825-0.4003296-0.0299683-0.5945053
					c-0.0198975-0.1917801-0.0985107-0.3380051-0.2361145-0.4410934c-0.1373596-0.093483-0.3557739-0.1486206-0.65448-0.1630096
					c-0.2984619-0.016777-0.6256714-0.0239716-0.9814453-0.0239716v-0.9540863l3.8167114-0.2828751l0.0000305,14.7759781
					c0,0.2044678,0.0102844,0.4008179,0.0301819,0.5889893c0.0203857,0.1881866,0.1014099,0.3293762,0.2426147,0.4233398
					c0.1412048,0.094223,0.3617554,0.1515198,0.6602173,0.1706848c0.2991943,0.0198975,0.6300049,0.0292511,0.9931946,0.0285339
					v0.9646454L355.504303,139.7497864z"/>
				<path class="st20" d="M374.3699341,139.585083h-13.9699097v-1.5526733h2.3263245v-13.6926651l-2.3263245-0.0000076v-1.5893555
					h13.6798401l0.8006897,6.25914h-1.6133728c-0.0623169-0.4617004-0.1198425-0.865387-0.1677856-1.2108307
					c-0.050354-0.3449631-0.1174927-0.6781769-0.2061768-0.9994049c-0.0887146-0.321228-0.2037659-0.6184769-0.3404236-0.8893661
					c-0.1366577-0.2708817-0.3116455-0.5034103-0.5202026-0.6999893c-0.4195251-0.3835526-0.9181519-0.6232758-1.4959106-0.7239609
					c-0.5777588-0.0958862-1.1650696-0.146225-1.7644043-0.146225h-2.0832214v5.7403793h0.3500061
					c0.3308105,0.0007172,0.6496582-0.0287628,0.9517212-0.0875092c0.302063-0.05896,0.553772-0.1920166,0.7503357-0.4000854
					c0.1989746-0.2073669,0.3188477-0.5094147,0.3595886-0.9056702c0.0407715-0.3955383,0.0599365-0.8646774,0.0599365-1.4057312
					h1.598999v7.1751099h-1.598999c0-0.5324097-0.019165-0.9991455-0.0599365-1.3992615
					c-0.040741-0.3998413-0.160614-0.7035828-0.3595886-0.9116516c-0.1965637-0.2073669-0.4482727-0.3447266-0.7503357-0.4118347
					c-0.302063-0.0661621-0.6209106-0.0999756-0.9517212-0.1006927h-0.3500061v6.3996124h2.2893982
					c0.6304932,0.0007172,1.2442017-0.0714417,1.8435059-0.2169495c0.5969238-0.1447906,1.1243286-0.4214172,1.5846252-0.8301544
					c0.2277222-0.2109528,0.4219055-0.4770355,0.5825195-0.7992401c0.1630249-0.321228,0.3068542-0.6740875,0.4315186-1.0585938
					c0.1246643-0.3838043,0.2277527-0.7822266,0.3092346-1.1940613c0.0791321-0.4118347,0.1654358-0.8682709,0.2541199-1.3712158
					h1.598999L374.3699341,139.585083z"/>
				<line class="st21" x1="380.7754822" y1="133.1253052" x2="378.1312866" y2="145.8181"/>
				<line class="st21" x1="383.4196777" y1="133.1253052" x2="380.7754822" y2="145.8181"/>
			</g>
			<path class="st19" d="M266.522583,176.739624l5.432251-16.1682281l-4.0526123,3.2266998l-2.6969299-0.0059967
				l-4.0381775-3.2458801L266.522583,176.739624z M267.9585571,140.2523499l-0.0563354,23.5589294l-2.6969299-0.0059967
				l0.0563354-23.5589447c0.0011902-0.7455292,0.6065063-1.3472443,1.3520813-1.3460388
				C267.3580322,138.9026794,267.9597473,139.5079956,267.9585571,140.2523499z"/>
			<path class="st22" d="M365.4387817,189.2088928l-12.1086121-12.0125885l1.1051331,5.0617828l-1.196228,2.4164124
				l-4.6950378,2.1898804L365.4387817,189.2088928z M267.1207275,139.0405273l87.3265686,43.2235413l-1.196228,2.4164276
				l-87.3265991-43.2223358c-0.6676331-0.3308105-0.940918-1.1398926-0.6101074-1.8075256
				C265.6439819,138.9841919,266.453064,138.710907,267.1207275,139.0405273z"/>
			<path class="st23" d="M302.5823364,145.8451233c-0.6052856,3.8967285-1.8363037,7.6687927-3.6486511,11.1711731"/>
			<g class="st7">
				<defs>
					<rect id="SVGID_27_" x="303.7605591" y="109.7620316" width="19.5309448" height="37.7755432"/>
				</defs>
				<clipPath id="SVGID_28_">
					<use xlink:href="#SVGID_27_"  style="overflow:visible;"/>
				</clipPath>
				<path class="st24" d="M310.926239,127.8872375c-0.2176819,0.8867493-0.40802,1.7809143-0.5698242,2.6822662
					c-0.1287537,0.6513214-0.1934814,1.3026581-0.1934814,1.952774c0,0.2440491,0.0081482,0.4792175,0.0244751,0.7057495
					c0.0160522,0.3066101,0.0527344,0.5933228,0.1088257,0.8594055c0.0565796,0.2670593,0.1316223,0.49646,0.2241516,0.6882477
					c0.0925293,0.1927338,0.216217,0.3411255,0.3699036,0.4470825c0.153656,0.1057281,0.3396912,0.1587067,0.5570984,0.1579742
					c0.4602966,0.0007324,0.8905945-0.2145386,1.2904663-0.646286c0.4000854-0.4307861,0.7771912-0.9490662,1.1329346-1.5534058
					c0.5331421-0.8778687,0.9447632-1.7674713,1.2360229-2.6697998c0.2912598-0.9013519,0.5410767-1.7763519,0.7505798-2.6240082
					H310.926239z M316.8632813,121.5947571c-0.0323486-0.3068466-0.072876-0.5921173-0.1213074-0.8582153
					c-0.0484314-0.2660904-0.1191406-0.4986191-0.2116699-0.6951904c-0.0927734-0.1941757-0.2119141-0.3476028-0.3574219-0.4530792
					c-0.1455383-0.1054764-0.3308411-0.1582184-0.557373-0.1582184c-0.4682007,0-0.9006653,0.2181473-1.2962036,0.6520462
					c-0.3955383,0.4362946-0.7793579,0.9564972-1.1513977,1.558197c-0.5328979,0.8630066-0.9447632,1.7499771-1.2357788,2.659729
					c-0.2912903,0.9102249-0.5413208,1.7880936-0.7515564,2.6343155h4.931427
					c0.2183838-0.8850555,0.4204712-1.7873764,0.6057739-2.705513c0.1294556-0.6192017,0.1941833-1.2316971,0.1941833-1.8358002
					C316.9119568,122.1269379,316.8956604,121.8608398,316.8632813,121.5947571z M318.499176,121.3238678
					c0.1941833,0.7455368,0.2905579,1.5054626,0.2905579,2.2814407c0,0.2440414-0.0081482,0.4794464-0.0244751,0.7057419
					c-0.0800476,1.036087-0.2536011,2.0748062-0.5204163,3.117363c-0.2903137,1.0514145-0.6580505,2.0932541-1.1020203,3.1240768
					c-0.4442139,1.0315247-1.034668,2.0210876-1.7698975,2.9696808c-0.250061,0.3219452-0.5271606,0.6403046-0.8299561,0.9536133
					c-0.303009,0.313797-0.6280823,0.5940399-0.9749451,0.8409576c-0.3471375,0.2471466-0.7088623,0.449234-1.0845337,0.6052856
					c-0.3756409,0.1572571-0.7697449,0.2351685-1.1816101,0.2351685c-0.4197388,0-0.7814941-0.0800629-1.0845032-0.2411499
					c-0.3027954-0.1603699-0.5631409-0.3674927-0.7815247-0.6228027c-0.2176514-0.2543488-0.3977051-0.5388947-0.5389099-0.8526917
					c-0.1411743-0.313324-0.2565002-0.6352692-0.3456726-0.9653625c-0.2013855-0.7287598-0.3027649-1.4817352-0.3027649-2.258667
					c0-0.2500305,0.0160522-0.4971924,0.0484009-0.7412262c0.0647278-1.0190582,0.2383118-2.049881,0.5206909-3.0938721
					c0.2668152-1.0499878,0.6264038-2.0886993,1.0785217-3.1166382c0.4528503-1.0279312,1.0543213-2.0203857,1.8058472-2.9768753
					c0.2507629-0.3212357,0.5257263-0.6400681,0.8241882-0.9589005c0.2984619-0.3164291,0.6175232-0.5993042,0.9565125-0.8462143
					c0.3396912-0.2469177,0.6968689-0.448288,1.0727844-0.6064987c0.3756409-0.1558228,0.7733459-0.2349319,1.1933289-0.2349319
					c0.4205017,0,0.7800903,0.0815048,1.0785522,0.2421188s0.5631104,0.3667755,0.7932434,0.6160889
					c0.2308655,0.251709,0.4125671,0.5393829,0.5456238,0.860611
					C318.2999573,120.6814117,318.4109497,121.0026398,318.499176,121.3238678z"/>
			</g>
			<g class="st7">
				<defs>
					<rect id="SVGID_29_" x="222.9893341" y="166.0423584" width="48.8776245" height="38.0558319"/>
				</defs>
				<clipPath id="SVGID_30_">
					<use xlink:href="#SVGID_29_"  style="overflow:visible;"/>
				</clipPath>
				<path class="st25" d="M236.0577393,183.8606415c-0.266098-0.5249939-0.6463013-0.9581757-1.1389465-1.2993011
					c-0.49263-0.3411255-1.0579071-0.5115662-1.6960602-0.5125122c-0.5089264,0.000946-0.98526,0.120575-1.4294739,0.3595734
					c-0.4439697,0.2397308-0.827774,0.5705414-1.1513977,0.9934082c-0.3550415,0.4792023-0.5830231,1.0145111-0.6844177,1.606369
					c-0.1006927,0.5926056-0.1515045,1.2058105-0.1515045,1.8403625c0,0.6359711,0.0448303,1.2439117,0.1330414,1.8240356
					c0.0889435,0.5808411,0.2991791,1.1257324,0.630249,1.6344299c0.2749634,0.4008026,0.6242371,0.7227478,1.0483093,0.9653473
					c0.4243164,0.2433167,0.8706818,0.364624,1.33815,0.3639069c0.7028809,0.0007172,1.3249664-0.193222,1.8660278-0.5815735
					c0.5412903-0.3881073,0.9536285-0.8843384,1.2360229-1.488678V183.8606415z M236.0577393,192.424469v-1.3997498
					c-0.2581787,0.3219604-0.6719513,0.6343079-1.2417755,0.9358826c-0.5691071,0.3013306-1.2058258,0.4521179-1.9086914,0.4521179
					c-0.7426758,0-1.4455566-0.1447906-2.1079102-0.4346161c-0.6618805-0.2895966-1.2353058-0.6901703-1.72052-1.200531
					c-0.5249939-0.5484772-0.922699-1.1557007-1.1933441-1.8226013c-0.2706604-0.6661835-0.4065857-1.3683319-0.4065857-2.1064301
					c0-0.7366638,0.141922-1.4462585,0.4243164-2.1284943c0.2828827-0.682251,0.6947327-1.2858734,1.2357788-1.8115845
					c0.5413055-0.5249786,1.1595612-0.9308319,1.8542786-1.2175446c0.6949768-0.2859802,1.4220581-0.4293518,2.1807861-0.4300537
					c0.6544495,0.0007019,1.2506561,0.1402283,1.7873993,0.4183044c0.5374603,0.2785645,0.9190979,0.5623932,1.1446838,0.8519745
					v-4.8934479c0-0.2037659-0.0095978-0.4003296-0.0299683-0.5945129c-0.0198975-0.1917725-0.098526-0.3379974-0.2361298-0.4410706
					c-0.1373596-0.0935059-0.3557587-0.1486359-0.6544495-0.1630249c-0.2984619-0.0167847-0.6256866-0.0239716-0.9814453-0.0239716
					v-0.9540863l3.8166809-0.2828674v14.7759705c0,0.204483,0.0103149,0.4008179,0.0302124,0.5889893
					c0.0203705,0.1881866,0.1014099,0.3293762,0.2425995,0.4233551c0.1412048,0.0942078,0.3617554,0.1515045,0.660202,0.1706848
					c0.2991791,0.0198975,0.6300049,0.0292358,0.9931946,0.0285187v0.9646454L236.0577393,192.424469z"/>
				<path class="st25" d="M254.9231873,192.2597656h-13.9697723v-1.5526733h2.3262939l-0.0000153-13.6926575h-2.3262939v-1.5893707
					h13.6797028l0.8006897,6.25914h-1.6133575c-0.0623322-0.4617004-0.1198578-0.865387-0.1678009-1.2108307
					c-0.050354-0.3449554-0.1174774-0.6781769-0.2061768-0.9994049s-0.2037659-0.6184692-0.3404083-0.8893738
					c-0.1366425-0.270874-0.3116455-0.5034027-0.5202026-0.6999817c-0.4195251-0.3835449-0.9181519-0.6232758-1.4958801-0.7239685
					c-0.5777435-0.0958862-1.1650696-0.1462097-1.764389-0.1462097h-2.0832062v5.7403717h0.3499908
					c0.3308258,0.0007172,0.6496582-0.0287628,0.9517212-0.0875092c0.3020477-0.05896,0.5537567-0.1920166,0.7503357-0.4000854
					c0.1989746-0.2073669,0.3188324-0.5094147,0.3595886-0.9056702c0.0407562-0.3955383,0.0599365-0.8646851,0.0599213-1.4057312
					h1.5989685l0.0000153,7.1751099h-1.5989685c0-0.5324097-0.0191803-0.9991455-0.0599365-1.3992615
					c-0.0407562-0.3998413-0.160614-0.7035828-0.3595886-0.9116516c-0.196579-0.2073669-0.448288-0.3447266-0.7503357-0.4118347
					c-0.302063-0.0661621-0.6208954-0.0999756-0.9517212-0.1006927h-0.3499908v6.3996124h2.2893829
					c0.6304779,0.0007172,1.2441711-0.0714417,1.8434906-0.2169495c0.5969086-0.1447906,1.1243134-0.4214172,1.5845795-0.8301544
					c0.2277374-0.2109528,0.4219208-0.4770355,0.5825348-0.7992401c0.1630096-0.321228,0.3068542-0.6740875,0.4315033-1.0585938
					c0.1246643-0.3838043,0.2277374-0.7822266,0.3092499-1.1940613c0.0791016-0.4118347,0.1654053-0.8682709,0.2541046-1.3712158
					H256.1362L254.9231873,192.2597656z"/>
				<line class="st26" x1="263.0282898" y1="186.6311035" x2="263.0282898" y2="195.3195801"/>
				<line class="st26" x1="258.6844788" y1="195.3195801" x2="267.3721313" y2="195.3195801"/>
			</g>
			<g class="st7">
				<defs>
					<rect id="SVGID_31_" x="354.9303589" y="184.6110382" width="37.7809143" height="37.775547"/>
				</defs>
				<clipPath id="SVGID_32_">
					<use xlink:href="#SVGID_31_"  style="overflow:visible;"/>
				</clipPath>
				<path class="st27" d="M367.9988098,202.4303741c-0.2661133-0.5249939-0.6463013-0.9579315-1.1389465-1.299057
					s-1.0579224-0.5118103-1.6960754-0.5125275c-0.5089417,0.0007172-0.98526,0.120575-1.4294739,0.3595734
					c-0.4439697,0.2397308-0.8277893,0.5705566-1.1514282,0.9934235c-0.355011,0.4792023-0.5830078,1.0145111-0.6844177,1.6063843
					c-0.1006775,0.5925903-0.1514893,1.2057953-0.1514893,1.8403473c0,0.6359863,0.0448303,1.243927,0.1330566,1.8240509
					c0.0889282,0.5808563,0.2991638,1.1257477,0.6302185,1.6344299c0.2749634,0.400589,0.6242676,0.7227631,1.0483398,0.9653625
					c0.4243164,0.2433319,0.870697,0.364624,1.3381653,0.3639069c0.7028503,0.0007172,1.3249512-0.1934509,1.8660278-0.5815735
					c0.5412903-0.3881073,0.9536133-0.8845673,1.2360229-1.4889221V202.4303741z M367.9988098,210.9944763v-1.3999786
					c-0.2581787,0.3221893-0.6719666,0.6345367-1.2417908,0.9361115c-0.5690918,0.3013306-1.2058105,0.4521179-1.9086914,0.4521179
					c-0.7426758,0-1.4455566-0.1447906-2.1079102-0.4346161c-0.6618958-0.2895813-1.235321-0.6903992-1.72052-1.200531
					c-0.5250244-0.5484924-0.9227295-1.1559448-1.1933594-1.8226166c-0.2706604-0.6661835-0.4065857-1.3683319-0.4065857-2.1064453
					c0-0.7366638,0.1419067-1.4462433,0.4243164-2.1284943c0.2828674-0.6824951,0.6947327-1.2861176,1.2357788-1.8115845
					c0.5413208-0.5249939,1.1595459-0.9308472,1.8542786-1.2175598c0.6949768-0.2859955,1.4220581-0.4295807,2.1808167-0.4302979
					c0.6544495,0.0007172,1.2506409,0.1404724,1.787384,0.4185486c0.5374756,0.2785645,0.9191284,0.5623932,1.1447144,0.8519745
					l-0.0000305-4.8946533c0-0.2013702-0.0095825-0.4003448-0.0299683-0.5921173
					c-0.0198975-0.1917877-0.0985107-0.3380127-0.2361145-0.4411011c-0.1373596-0.0934906-0.3557434-0.1486206-0.6544495-0.1654053
					c-0.2984619-0.014389-0.6257019-0.0239716-0.9814453-0.0239716v-0.9516907l3.8166809-0.2828827v14.7748413
					c0,0.2042542,0.0103149,0.400589,0.0302124,0.5887604c0.0203857,0.1884308,0.1014099,0.3293915,0.2426147,0.4235992
					s0.3617554,0.1515045,0.6602173,0.1706848c0.2991638,0.0196533,0.6299744,0.0292358,0.9931641,0.0285187v0.9646454
					L367.9988098,210.9944763z"/>
				<path class="st27" d="M386.8691406,210.8297882h-13.9693604v-1.5529327h2.3262939v-13.6936951h-2.3262939v-1.5869598h13.6792603
					l0.8006897,6.2579651h-1.6133423c-0.0623474-0.4617004-0.119873-0.8654022-0.1678162-1.2108459
					c-0.0479431-0.3449554-0.1174622-0.6769714-0.2061768-1.0005951c-0.0886841-0.321228-0.201355-0.6160889-0.3403931-0.8869781
					c-0.1366577-0.2708893-0.3092651-0.503418-0.5202026-0.7023926c-0.4195251-0.3835449-0.9181824-0.6232758-1.4959106-0.7215576
					s-1.1650696-0.1462402-1.7644043-0.1486359h-2.0832214l0.0000305,5.7416077h0.3523865
					c0.3308105,0.0007172,0.6472473-0.0287628,0.9493103-0.0874939c0.3044434-0.0589752,0.553772-0.1920166,0.7527466-0.4001007
					c0.1965637-0.2073517,0.3164368-0.5094147,0.3571777-0.9056702c0.0407715-0.3955383,0.0599365-0.8646851,0.0599365-1.4066925
					h1.598999v7.1758575h-1.598999c0-0.5321808-0.019165-0.9991608-0.059906-1.3990173
					c-0.0407715-0.4001007-0.1606445-0.7035828-0.3572083-0.9116669c-0.1989746-0.2073669-0.4483032-0.3449554-0.7527466-0.41185
					c-0.302063-0.0661621-0.6184998-0.0999603-0.9493103-0.1006775h-0.3523865v6.3993988h2.2893677
					c0.6304932,0.0007324,1.2442017-0.0711975,1.8435059-0.2167053c0.5969238-0.1450348,1.126709-0.4214325,1.5870056-0.8301544
					c0.2253418-0.210968,0.4195251-0.4772949,0.5801392-0.7992401c0.1629944-0.321228,0.3068237-0.6741028,0.431488-1.0586243
					c0.1246643-0.3837891,0.2277527-0.7824554,0.3092651-1.1940613c0.0791016-0.4118347,0.1654053-0.8682709,0.2540894-1.3712158
					h1.598999L386.8691406,210.8297882z"/>
			</g>
			<path class="st28" d="M64.354744,30.9654846c-0.0755157,0.0743103,0.149826,0.2996521-0.4494896,0.4494781
				c-0.5993195,0.1498413-2.3972702,0.2996674-3.1464233,0.4494934c-0.7491455,0.149826-0.8989754,0.2996521-1.348465,0.4494781
				s-0.7491455,0.2241364-1.348465,0.4494781c-0.5993156,0.2241516-0.8246613,0.2241516-2.2474403,0.8989716
				c-1.4239807,0.6736298-4.5703964,2.1719055-6.2928352,3.1463928c-1.7236404,0.9732819-3.0721054,2.0220795-4.0453949,2.6968994
				c-0.9744911,0.6736298-1.124321,0.8234558-1.7979546,1.3484497c-0.6748314,0.5238037-0.7491455,0.3739624-2.2474403,1.7979279
				c-1.4982948,1.4227753-5.24403,5.1684723-6.7423248,6.7422638c-1.4982948,1.5725861-1.5738106,1.8722382-2.2474442,2.6968994
				c-0.6748314,0.8234558-0.8989754,0.9732819-1.7979507,2.2474213c-0.8989773,1.272934-2.6969299,3.9698334-3.5959072,5.3937988
				c-0.8989773,1.42276-1.2741489,2.1719055-1.7979527,3.1463928c-0.5250015,0.9732819-0.7491474,1.4982758-1.348465,2.6968994
				s-1.6481247,3.2206879-2.2474422,4.4948273c-0.5993176,1.2729492-0.9744892,2.2474213-1.348465,3.1463928
				c-0.3751717,0.8989716-0.4494877,1.0487976-0.8989773,2.2474213c-0.4494877,1.1986237-1.3484631,3.595871-1.7979527,4.9443207
				c-0.4494877,1.3484497-0.5250015,1.7224121-0.8989754,3.1463776c-0.3751717,1.42276-0.8989773,3.3705292-1.3484659,5.3937988
				c-0.4494877,2.0220795-1.0488052,5.094162-1.348464,6.7422638s-0.2996588,1.9477615-0.4494877,3.1463852
				c-0.1498299,1.1986313-0.2996597,2.2474213-0.4494886,4.0453568c-0.1498299,1.7979355-0.3751736,4.1951828-0.4494886,6.7422562
				c-0.0755148,2.5470734-0.0755148,6.0674286,0,8.5401917c0.0743151,2.4715576,0.2996588,4.5691452,0.4494886,6.2927704
				c0.1498289,1.7224197,0.2996588,2.8467255,0.4494886,4.0453568c0.1498289,1.1986084,0.224144,1.7979279,0.4494877,3.1463776
				c0.224144,1.3484497,0.6736326,3.745697,0.8989763,4.9443207c0.2241449,1.1986237,0.0743151,0.7491455,0.4494877,2.2474213
				c0.3739758,1.4982758,1.4227819,5.3937988,1.7979536,6.7422485c0.3739758,1.348465,0.2996578,0.8989716,0.4494877,1.348465
				c0.1498299,0.4494629,0.0743179,0.2996521,0.4494896,1.3484497c0.3739738,1.0487823,1.3484631,3.745697,1.7979527,4.9443054
				c0.4494877,1.1986389,0.4494877,1.1986389,0.8989754,2.2474213c0.4494896,1.0487976,1.272953,2.9210358,1.7979546,4.0453491
				c0.5238037,1.1231079,0.6736336,1.4227753,1.348465,2.6968994c0.6736336,1.272934,2.0976124,3.8955231,2.6969299,4.9443207
				s0.5993176,0.8989716,0.8989754,1.3484497c0.2996597,0.4494934,0.3739758,0.5993042,0.8989773,1.3484497
				c0.5238056,0.7491455,1.6481228,2.3217316,2.2474422,3.1463928c0.5993176,0.8234558,0.8234615,1.1231079,1.348465,1.7979279
				c0.5238037,0.6736298,0.0743141,0.4494781,1.7979507,2.2474213c1.7224388,1.7979279,6.7423248,6.8165588,8.5402794,8.5401917
				c1.7979546,1.7224121,0.9732895,0.8989563,2.2474403,1.7979279c1.272953,0.8989716,3.5959091,2.5470734,5.3938599,3.595871
				c1.7979546,1.0487976,4.119709,2.0975952,5.3938599,2.6968994c1.2729492,0.5993195,1.1986351,0.5238037,2.2474403,0.8989716
				c1.0488091,0.3739777,3.0709038,1.0487976,4.0453987,1.3484497c0.9732933,0.2996674,1.1231232,0.2996674,1.7979546,0.4494934
				c0.6736298,0.149826,1.4227829,0.2996521,2.2474442,0.4494781c0.8234558,0.149826,0.4494858,0.3739624,2.6969299,0.4494781
				c2.2474365,0.0743256,8.5402756,0.0743256,10.7877197,0c2.2474365-0.0755157,1.5726089-0.2253418,2.6969299-0.4494781
				c1.1231155-0.2253418,3.1464157-0.6748199,4.0453949-0.8989716c0.8989716-0.2253418,0.8989716-0.2996521,1.348465-0.4494781
				c0.4494858-0.149826,0.7491455-0.2253418,1.348465-0.4494934c0.5993118-0.2253418,1.348465-0.5249939,2.2474365-0.8989563
				c0.8989792-0.3751678,2.4715881-1.0487976,3.1464233-1.3484497c0.6736298-0.2996521,0.224144-0.0755157,0.8989716-0.4494934
				c0.6736374-0.3751678,2.2474442-1.2741394,3.1464157-1.7979279c0.8989792-0.5250092,1.348465-0.7491455,2.2474442-1.348465
				c0.8989792-0.5993042,2.2474442-1.5737915,3.1464157-2.247406c0.8989792-0.6748352,0.6736374-0.2996521,2.2474442-1.7979431
				c1.5726089-1.4982758,5.6935196-5.6191406,7.1918106-7.1917267c1.4982986-1.5738068,1.1986389-1.4982758,1.7979584-2.2474213
				s1.1986313-1.4239655,1.7979507-2.2474213c0.5993195-0.8246613,1.0488052-1.5737915,1.7979507-2.6968994
				c0.7491531-1.1243134,1.8722687-2.6968994,2.6969299-4.0453491c0.8234634-1.348465,1.5726089-2.7724152,2.2474442-4.0453644
				c0.6736298-1.2741394,1.1986389-2.3229218,1.7979507-3.5958557c0.5993195-1.2741394,1.348465-2.9965515,1.7979584-4.0453491
				c0.4494858-1.0487976,0.4494858-1.0487976,0.8989716-2.2474213c0.4494934-1.1986237,1.4227753-3.8955231,1.7979584-4.9443207
				c0.3739777-1.0487976,0.149826-0.2996521,0.4494781-1.3484497c0.2996674-1.0487976,1.0488129-3.8212128,1.348465-4.9443207
				c0.2996674-1.1243134,0.2996674-1.1986237,0.4494934-1.7979279c0.149826-0.5993195,0.149826-0.2996521,0.4494934-1.7979431
				c0.2996521-1.4982758,1.0487976-5.3194885,1.348465-7.1917419c0.2996521-1.8734436,0.3739777-2.7724075,0.4494781-4.0453491
				c0.0743256-1.2741318,0-2.9965591,0-3.595871c-0.149826,0-0.6748199,0.0743179-0.8989716,0
				c-0.2253418-0.0755081,0.149826-0.2996521-0.4494934-0.4494781c-0.5993042-0.149826-2.4727783-0.3751678-3.1464081-0.4494858
				c-0.6748352-0.0755157-0.7491455,0-0.8989868,0c0,0.2996597,0.0743256,1.4227676,0,1.7979355
				c-0.0755005,0.37397-0.3751678-0.2253418-0.4494781,0.4494858c-0.0755157,0.6736221,0.149826,2.1718979,0,3.5958633
				c-0.149826,1.42276-0.6748352,3.745697-0.8989792,4.9443207c-0.2253418,1.1986237-0.2996597,1.5725861-0.4494858,2.2474213
				c-0.1498337,0.6736145-0.2253494,0.9732819-0.4494934,1.7979431c-0.2253418,0.8234406-0.5993118,2.1719055-0.8989716,3.1463776
				c-0.2996597,0.9732819-0.5250092,1.5725861-0.8989792,2.6968994c-0.3751755,1.1231079-0.9744949,2.9965668-1.348465,4.0453644
				c-0.3751755,1.0487823-0.4494858,1.1986084-0.8989792,2.247406c-0.4494858,1.0487976-1.4239731,3.2207031-1.7979507,4.0453491
				c-0.3751755,0.8234558-0.2996597,0.5993195-0.4494858,0.8989716c-0.1498337,0.2996674,0,0.0743256-0.4494934,0.8989716
				c-0.4494858,0.8234558-1.274147,2.4715576-2.2474365,4.0453491c-0.9744949,1.5725861-2.7724457,4.1951752-3.5959091,5.3937988
				c-0.8246613,1.1986237-0.7491455,1.0487976-1.348465,1.7979279c-0.5993195,0.7491455-0.7491455,1.1231079-2.2474442,2.6969147
				c-1.498291,1.5725861-5.2440262,5.3182831-6.7423248,6.7422485c-1.498291,1.42276-1.5738068,1.272934-2.2474365,1.7979279
				c-0.6748352,0.5238037-0.8989792,0.7491455-1.7979584,1.3484497c-0.8989716,0.5993195-2.0976105,1.4227753-3.5959015,2.2474213
				c-1.4982986,0.8234558-4.1209106,2.0975952-5.3938599,2.6968994c-1.2741547,0.5993195-1.6481247,0.6736298-2.2474442,0.8989716
				c-0.5993195,0.2241364-0.5993195,0.2241364-1.348465,0.4494781c-0.7491455,0.2241516-2.2474365,0.6736298-3.1464157,0.8989716
				c-0.8989792,0.2241364-1.348465,0.2996521-2.2474442,0.4494781c-0.8989716,0.1498413-1.124321,0.3739777-3.1464157,0.4494934
				c-2.0233002,0.0743103-6.9676666,0.0743103-8.989769,0c-2.0232925-0.0755157-2.2474365-0.2996521-3.1464157-0.4494934
				c-0.8989792-0.149826-1.5738068-0.2996521-2.2474403-0.4494781c-0.6748352-0.149826-1.2741508-0.2996521-1.7979546-0.4494781
				c-0.5250015-0.1498413-0.8989792-0.2996521-1.3484688-0.4494934c-0.4494896-0.149826-0.7491455-0.2253418-1.348465-0.4494781
				c-0.5993156-0.2253418-0.9744911-0.2996521-2.2474403-0.8989716c-1.2741508-0.5993042-4.1209106-2.0232697-5.3938599-2.6968994
				c-1.2741508-0.6748199-1.6481247-0.9744873-2.2474403-1.3484497c-0.5993195-0.3751678-0.8246651-0.5249939-1.348465-0.8989716
				c-0.5250053-0.3751678-1.124321-0.824646-1.7979546-1.3484497c-0.6748314-0.5249939-0.6748314-0.2996521-2.2474403-1.7979279
				c-1.5738106-1.4982758-5.6192055-5.5436401-7.1918144-7.1917419c-1.5738106-1.6481018-1.348465-1.4982758-2.2474403-2.6968994
				c-0.8989792-1.1986237-2.3972702-3.3717346-3.1464195-4.4948425c-0.7491474-1.1242981-0.8246613-1.3484497-1.348465-2.247406
				c-0.5250015-0.8989563-1.1986351-2.0232849-1.7979527-3.1463928c-0.5993176-1.1242981-1.1986351-2.3229218-1.7979527-3.5958557
				c-0.5993176-1.2741394-1.198637-2.5470886-1.7979546-4.0453491c-0.5993176-1.498291-1.4239769-3.8955383-1.7979527-4.9443359
				c-0.3751717-1.0487976-0.2253418-0.5993042-0.4494877-1.3484497c-0.2253418-0.7491455-0.6748314-2.322937-0.8989773-3.1463776
				c-0.2253418-0.8246613-0.2996578-1.1986237-0.4494877-1.7979279c-0.1498299-0.5993195-0.1498299-0.3751831-0.4494896-1.7979431
				c-0.2996578-1.4239655-1.0488052-4.9443207-1.348465-6.7422485c-0.2996578-1.7979431-0.2996578-2.4727631-0.4494877-4.0453568
				c-0.1498299-1.5737915-0.3751717-2.6225891-0.4494877-5.3938065c-0.0755138-2.7724152-0.0755138-8.5401917,0-11.2370911
				c0.074316-2.6968994,0.2996578-3.521553,0.4494877-4.9443207c0.1498299-1.4239655,0.2241459-2.1731033,0.4494877-3.5958786
				c0.2241478-1.4239578,0.6736355-3.745697,0.8989773-4.944313c0.2241459-1.1986237,0.1498299-1.0487976,0.4494877-2.2474213
				c0.2996597-1.1986237,0.8234653-3.2218933,1.348465-4.9443207c0.5238056-1.7236176,1.348465-4.1208649,1.7979546-5.3937988
				c0.4494877-1.2741394,0.5993176-1.498291,0.8989754-2.2474213c0.2996597-0.7491455,0.4494896-1.1986237,0.8989773-2.2474213
				s1.1986351-2.8467255,1.7979527-4.0453491s1.1986351-2.0975952,1.7979546-3.1463928
				c0.5993176-1.0487976,1.348465-2.3972473,1.7979527-3.1463776c0.4494877-0.7491455,0.3739738-0.5993195,0.8989773-1.3484497
				c0.5238037-0.7491455,1.6481247-2.322937,2.2474403-3.1463928c0.5993195-0.824646,0.7491493-1.0487976,1.348465-1.7979279
				c0.5993195-0.7491455,0.9732933-1.3484497,2.2474403-2.6968994c1.272953-1.3484497,4.1197128-4.1951904,5.3938599-5.3938141
				c1.272953-1.1986237,1.5726089-1.2741394,2.2474442-1.7979279c0.6736298-0.5249939,0.8234596-0.6748199,1.7979507-1.3484497
				c0.9732933-0.6748352,2.3217583-1.7236176,4.0453949-2.6968994c1.7224388-0.9744873,4.8688583-2.4727631,6.2928352-3.1463928
				c1.4227829-0.6748199,1.348465-0.5993042,2.2474442-0.8989716c0.8989754-0.2996521,2.3217583-0.6748199,3.1464195-0.8989563
				c0.8234634-0.2253418,1.1231194-0.3751678,1.7979546-0.4494934c0.6736298-0.0755157,1.8722687,0,2.2474442,0
				c0-0.149826,0.0743103-0.3751678,0-0.8989563c-0.0755157-0.5250092-0.2996597-1.4239655-0.4494934-2.2474213
				c-0.149826-0.8246613-0.2253418-1.7979431-0.4494858-2.6968994c-0.2253418-0.8989716-0.7491455-1.9477692-0.8989792-2.6969147
				c-0.149826-0.7491302,0-1.4982758,0-1.7979279H64.354744z"/>
			<path class="st29" d="M113.3106079,62.6295166c0.1498337,0.2253418,0.2996597,0.4494781,0.8989792,1.3484497
				s2.0232925,2.9965515,2.6969299,4.0453491c0.6748276,1.0487976,0.8989716,1.4239655,1.348465,2.2474213
				c0.4494858,0.824646,0.7491455,1.4982758,1.348465,2.6968994s1.7236404,3.3717346,2.2474365,4.4948425
				c0.5250092,1.1242981,0.5993195,1.4982758,0.8989716,2.2474213c0.2996597,0.7491302,0.4494934,0.974472,0.8989792,2.247406
				c0.4494858,1.2741394,1.274147,3.595871,1.7979507,5.3938141c0.5250015,1.7979279,0.8989792,3.3717194,1.348465,5.3937988
				c0.4494858,2.0232697,1.0488052,4.9443207,1.3484726,6.7422562c0.2996521,1.7979355,0.2996521,2.3972473,0.4494781,4.0453491
				c0.149826,1.6481094,0.4494934,3.2962189,0.4494934,5.8432922s-0.3739777,7.7167358-0.4494934,9.4391556
				c-0.0743103,1.7236176-0.149826,0.6748199,0,0.8989639c0.149826,0.2253418,0.149826,0.2996597,0.8989868,0.4494858
				c0.7491455,0.149826,2.7724304,0.3751678,3.5959015,0.4494858c0.8246613,0.0755081,1.1243134,0,1.348465,0
				c0-2.6213913,0.0755157-12.4357147,0-15.7319336c-0.0743103-3.2962112-0.2996674-2.7712097-0.4494934-4.0453491
				c-0.149826-1.272934-0.2996521-2.5470734-0.4494781-3.595871c-0.1498413-1.04879-0.2996674-1.8722458-0.4494934-2.696907
				c-0.149826-0.8234406-0.2996674-1.4982758-0.4494934-2.247406c-0.149826-0.7491455-0.0743103-0.6736298-0.4494781-2.2474213
				c-0.3739777-1.5726013-1.1986389-5.0941467-1.7979584-7.1917419s-1.2729492-3.8955231-1.7979584-5.3937988
				c-0.5238037-1.4982758-0.8989716-2.4715576-1.348465-3.595871c-0.4494858-1.1231079-1.0488052-2.4715576-1.348465-3.1463928
				c-0.2996521-0.6736145-0.2996521-0.5993042-0.4494858-0.8989563c-0.149826-0.2996674-0.2996597-0.6736298-0.4494858-0.8989716
				c-0.1498337-0.2241364-0.224144-0.2996521-0.4494934-0.4494781c-0.224144-0.1498413-0.4494858-0.2241516-0.8989716-0.4494934
				c-0.4494858-0.2241364-0.6736374-0.3739624-1.7979507-0.8989563c-1.1231155-0.5238037-3.9698792-1.7224274-4.9443665-2.2474213
				c-0.9732895-0.5238037-0.2996597-0.5238037-0.8989792-0.8989716
				C115.4082184,63.6040039,113.7601013,62.8548584,113.3106079,62.6295166z"/>
			<path class="st29" d="M83.2104721,32.1305542c-0.0755081,0.4494934-0.2996521,1.7224274-0.4494858,2.6968994
				c-0.149826,0.9732819-0.2996597,2.1719055-0.4494858,3.1463928c-0.1498337,0.9732819-0.3751755,2.0975952-0.4494934,2.6968994
				c-0.0755081,0.5993195,0,0.7491455,0,0.8989716c0.1498337,0,0.6736374-0.0755157,0.8989792,0
				c0.224144,0.0743103-0.7491455,0.0743103,0.4494858,0.4494781c1.1986389,0.3739777,4.5691986,0.9732819,6.7423248,1.7979431
				c2.1719284,0.8234406,4.5691986,2.1719055,6.2928391,3.1463776c1.7224426,0.9732819,3.0709076,2.0220795,4.0453949,2.6968994
				c0.9732895,0.6736298,1.0488052,0.7491455,1.7979507,1.3484497c0.7491531,0.5993195,1.4227829,1.0487976,2.6969299,2.2474213
				c1.2729568,1.1986237,3.8200531,3.9698486,4.9443741,4.9443207c1.1231232,0.9732819-0.2253418-0.0755157,1.7979507,0.8989716
				c2.0221024,0.9732819,8.4647675,4.0453491,10.3382339,4.9443207c1.872261,0.8989716,0.7491455,0.3739624,0.8989716,0.4494781
				c-0.0755081-0.149826-0.2253418-0.4494781-0.4494858-0.8989716c-0.2253418-0.4494781-0.4494858-1.0487823-0.8989716-1.7979279
				c-0.4494934-0.7491455-1.0488052-1.5737915-1.7979584-2.6968994c-0.7491455-1.1243134-2.0232925-3.0720673-2.6969299-4.0453491
				c-0.6748276-0.9744873-0.8246613-1.1243134-1.348465-1.7979431c-0.5250015-0.6748199-0.8989716-1.1986237-1.7979507-2.2474213
				c-0.8989792-1.0487823-2.5471039-2.9222412-3.5959091-4.0453491c-1.0488052-1.1243134-1.7236328-1.7979279-2.6969299-2.6968994
				c-0.9744873-0.8989716-2.3229523-2.0232697-3.1464157-2.6968994c-0.8246613-0.6748352-0.8246613-0.6748352-1.7979507-1.3484497
				c-0.9744949-0.6748352-2.9965897-2.0232849-4.0453949-2.6968994c-1.0488052-0.6748352-1.2741547-0.8246613-2.2474442-1.348465
				c-0.9744873-0.5249939-2.622612-1.3484497-3.5959091-1.7979279c-0.9744873-0.4494781-0.9744873-0.4494781-2.2474365-0.8989716
				c-1.2741547-0.4494781-4.1952286-1.5737915-5.3938599-1.7979279
				C83.8097916,31.4557343,83.5101318,32.0550385,83.2104721,32.1305542z"/>
		</g>
	</g>
</g>
</svg>
