<?xml version="1.0" encoding="UTF-8"?>
<svg xmlns="http://www.w3.org/2000/svg" xmlns:xlink="http://www.w3.org/1999/xlink" width="382.02pt" height="253.98pt" viewBox="0 0 382.02 253.98" version="1.1">
<g id="surface1">
<path style="fill:none;stroke-width:15;stroke-linecap:round;stroke-linejoin:round;stroke:rgb(0%,0%,0%);stroke-opacity:1;stroke-miterlimit:10;" d="M 938.473084 1824.841383 C 1187.038224 1824.841383 1388.469667 1561.258453 1388.469667 1236.091512 C 1388.469667 910.92457 1187.038224 647.34164 938.473084 647.34164 C 689.949952 647.34164 488.4765 910.92457 488.4765 1236.091512 C 488.4765 1561.258453 689.949952 1824.841383 938.473084 1824.841383 Z M 938.473084 1824.841383 " transform="matrix(0.0929868,0,0,-0.092861,0,259.4487)"/>
<path style="fill:none;stroke-width:15;stroke-linecap:round;stroke-linejoin:round;stroke:rgb(0%,0%,0%);stroke-opacity:1;stroke-miterlimit:10;" d="M 938.473084 1902.915102 C 1227.702591 1902.915102 1462.110818 1604.375673 1462.110818 1236.091512 C 1462.110818 867.849416 1227.702591 569.309987 938.473084 569.309987 C 649.285586 569.309987 414.835349 867.849416 414.835349 1236.091512 C 414.835349 1604.375673 649.285586 1902.915102 938.473084 1902.915102 Z M 938.473084 1902.915102 " transform="matrix(0.0929868,0,0,-0.092861,0,259.4487)"/>
<path style="fill:none;stroke-width:15;stroke-linecap:round;stroke-linejoin:round;stroke:rgb(0%,0%,0%);stroke-opacity:1;stroke-miterlimit:10;" d="M 938.473084 2224.464403 C 1389.477875 2224.464403 1755.079094 1781.976556 1755.079094 1236.091512 C 1755.079094 690.206467 1389.477875 247.71862 938.473084 247.71862 C 487.468293 247.71862 121.867073 690.206467 121.867073 1236.091512 C 121.867073 1781.976556 487.468293 2224.464403 938.473084 2224.464403 Z M 938.473084 2224.464403 " transform="matrix(0.0929868,0,0,-0.092861,0,259.4487)"/>
<path style=" stroke:none;fill-rule:nonzero;fill:rgb(0%,0%,0%);fill-opacity:1;" d="M 87.378906 143.976562 L 360.203125 188.320312 L 359.980469 189.695312 L 87.15625 145.351562 C 86.773438 145.289062 86.515625 144.933594 86.578125 144.550781 C 86.640625 144.171875 87 143.914062 87.378906 143.976562 Z M 371.09375 190.796875 L 358 184.4375 L 360.191406 188.320312 L 359.96875 189.695312 L 356.65625 192.683594 Z M 371.09375 190.796875 "/>
<path style=" stroke:none;fill-rule:evenodd;fill:rgb(0%,0%,0%);fill-opacity:1;" d="M 170.890625 163.730469 C 170.835938 163.949219 170.722656 164.113281 170.554688 164.222656 C 170.386719 164.332031 170.21875 164.386719 170.046875 164.386719 C 169.871094 164.386719 169.726562 164.332031 169.613281 164.21875 C 169.527344 164.136719 169.480469 164.03125 169.476562 163.898438 C 169.476562 163.84375 169.484375 163.777344 169.507812 163.695312 C 169.5625 163.511719 169.648438 163.371094 169.761719 163.273438 C 169.878906 163.179688 169.957031 163.125 170.003906 163.109375 C 169.90625 163.039062 169.710938 163 169.414062 163 C 169.15625 163 168.921875 163.136719 168.71875 163.40625 C 168.511719 163.675781 168.359375 164 168.257812 164.378906 L 167.566406 167.046875 C 167.496094 167.316406 167.441406 167.570312 167.410156 167.8125 C 167.386719 167.894531 167.378906 167.96875 167.378906 168.03125 C 167.378906 168.183594 167.402344 168.328125 167.453125 168.460938 C 167.503906 168.609375 167.578125 168.726562 167.679688 168.8125 C 167.78125 168.902344 167.90625 168.945312 168.0625 168.945312 C 168.261719 168.945312 168.457031 168.890625 168.640625 168.789062 C 168.828125 168.683594 168.996094 168.542969 169.152344 168.363281 C 169.308594 168.1875 169.445312 167.980469 169.566406 167.746094 C 169.6875 167.507812 169.78125 167.265625 169.851562 167.019531 C 169.882812 166.894531 169.96875 166.828125 170.109375 166.828125 L 170.28125 166.828125 C 170.410156 166.828125 170.476562 166.878906 170.476562 166.976562 C 170.476562 167.003906 170.46875 167.03125 170.453125 167.054688 C 170.382812 167.347656 170.269531 167.636719 170.113281 167.917969 C 169.953125 168.203125 169.769531 168.457031 169.558594 168.675781 C 169.347656 168.894531 169.109375 169.074219 168.839844 169.214844 C 168.574219 169.355469 168.285156 169.425781 167.980469 169.425781 C 167.667969 169.425781 167.402344 169.359375 167.175781 169.222656 C 166.949219 169.089844 166.765625 168.917969 166.625 168.703125 C 166.582031 168.648438 166.546875 168.59375 166.519531 168.539062 C 166.496094 168.484375 166.488281 168.476562 166.5 168.511719 C 166.378906 168.714844 166.1875 168.914062 165.925781 169.117188 C 165.667969 169.324219 165.367188 169.425781 165.023438 169.425781 C 164.835938 169.425781 164.644531 169.402344 164.460938 169.351562 C 164.273438 169.304688 164.113281 169.226562 163.976562 169.125 C 163.835938 169.023438 163.734375 168.902344 163.664062 168.753906 C 163.628906 168.667969 163.609375 168.574219 163.609375 168.46875 C 163.609375 168.398438 163.621094 168.3125 163.640625 168.214844 C 163.695312 167.996094 163.808594 167.832031 163.980469 167.722656 C 164.148438 167.613281 164.320312 167.558594 164.492188 167.558594 C 164.667969 167.558594 164.816406 167.613281 164.941406 167.726562 C 165.027344 167.808594 165.070312 167.917969 165.070312 168.046875 C 165.070312 168.117188 165.058594 168.183594 165.039062 168.25 C 164.996094 168.421875 164.914062 168.558594 164.796875 168.664062 C 164.679688 168.769531 164.59375 168.824219 164.542969 168.835938 C 164.636719 168.914062 164.832031 168.949219 165.121094 168.945312 C 165.382812 168.945312 165.617188 168.808594 165.828125 168.535156 C 166.039062 168.265625 166.191406 167.9375 166.289062 167.558594 L 166.988281 164.875 C 167.058594 164.621094 167.113281 164.375 167.152344 164.132812 C 167.164062 164.054688 167.167969 163.980469 167.167969 163.914062 C 167.167969 163.761719 167.144531 163.621094 167.101562 163.488281 C 167.050781 163.34375 166.972656 163.226562 166.867188 163.136719 C 166.761719 163.046875 166.632812 163 166.476562 163 C 166.273438 163 166.082031 163.054688 165.894531 163.160156 C 165.703125 163.261719 165.535156 163.402344 165.378906 163.578125 C 165.222656 163.753906 165.085938 163.957031 164.964844 164.1875 C 164.84375 164.417969 164.757812 164.660156 164.699219 164.917969 C 164.644531 165.050781 164.554688 165.117188 164.421875 165.121094 L 164.257812 165.121094 C 164.136719 165.125 164.078125 165.0625 164.078125 164.941406 L 164.078125 164.890625 C 164.152344 164.589844 164.269531 164.296875 164.421875 164.011719 C 164.578125 163.726562 164.765625 163.476562 164.980469 163.257812 C 165.195312 163.039062 165.4375 162.859375 165.703125 162.722656 C 165.96875 162.582031 166.253906 162.511719 166.566406 162.511719 C 166.867188 162.511719 167.132812 162.578125 167.363281 162.710938 C 167.59375 162.839844 167.78125 163.015625 167.925781 163.234375 C 167.957031 163.289062 167.984375 163.347656 168.011719 163.40625 C 168.035156 163.46875 168.042969 163.484375 168.03125 163.453125 C 168.15625 163.238281 168.351562 163.03125 168.613281 162.824219 C 168.871094 162.617188 169.171875 162.511719 169.507812 162.511719 C 169.695312 162.511719 169.886719 162.535156 170.074219 162.582031 C 170.261719 162.628906 170.425781 162.703125 170.5625 162.804688 C 170.699219 162.90625 170.800781 163.035156 170.867188 163.183594 C 170.902344 163.273438 170.921875 163.371094 170.921875 163.484375 C 170.921875 163.554688 170.910156 163.636719 170.890625 163.730469 Z M 170.890625 163.730469 "/>
<path style=" stroke:none;fill-rule:evenodd;fill:rgb(0%,0%,94.099426%);fill-opacity:0.39608;" d="M 82.480469 83.761719 C 82.132812 83.820312 81.027344 83.992188 80.390625 84.109375 C 79.75 84.226562 79.167969 84.339844 78.644531 84.457031 C 78.121094 84.574219 78.179688 84.515625 77.25 84.804688 C 76.320312 85.097656 74.171875 85.792969 73.066406 86.199219 C 71.960938 86.605469 71.382812 86.894531 70.625 87.242188 C 69.871094 87.59375 69.171875 87.941406 68.535156 88.289062 C 67.894531 88.636719 67.253906 89.042969 66.789062 89.332031 C 66.324219 89.621094 66.09375 89.796875 65.746094 90.03125 C 65.394531 90.261719 65.570312 90.085938 64.699219 90.726562 C 63.824219 91.363281 61.964844 92.582031 60.515625 93.859375 C 59.0625 95.136719 57.144531 97.167969 55.980469 98.386719 C 54.820312 99.605469 54.238281 100.300781 53.539062 101.171875 C 52.84375 102.042969 52.4375 102.683594 51.796875 103.609375 C 51.15625 104.539062 50.402344 105.640625 49.703125 106.746094 C 49.007812 107.847656 48.367188 108.773438 47.613281 110.226562 C 46.855469 111.675781 45.695312 114.289062 45.171875 115.449219 C 44.648438 116.609375 44.765625 116.4375 44.472656 117.191406 C 44.183594 117.945312 43.660156 119.339844 43.425781 119.976562 C 43.195312 120.613281 43.253906 120.441406 43.078125 121.023438 C 42.90625 121.601562 42.613281 122.648438 42.382812 123.460938 C 42.148438 124.273438 41.859375 125.257812 41.683594 125.898438 C 41.511719 126.535156 41.566406 126.1875 41.335938 127.289062 C 41.101562 128.390625 40.523438 131.121094 40.289062 132.511719 C 40.058594 133.90625 40.058594 134.660156 39.941406 135.648438 C 39.824219 136.632812 39.652344 135.9375 39.59375 138.433594 C 39.535156 140.929688 39.535156 148.066406 39.59375 150.621094 C 39.652344 153.175781 39.824219 152.769531 39.941406 153.753906 C 40.058594 154.742188 40.058594 155.207031 40.289062 156.542969 C 40.523438 157.875 41.101562 160.605469 41.335938 161.765625 C 41.566406 162.925781 41.511719 162.808594 41.683594 163.503906 C 41.859375 164.203125 42.03125 164.839844 42.382812 165.941406 C 42.730469 167.046875 43.371094 168.960938 43.777344 170.121094 C 44.183594 171.28125 44.472656 172.035156 44.824219 172.90625 C 45.171875 173.777344 45.347656 174.242188 45.867188 175.34375 C 46.390625 176.449219 47.4375 178.535156 47.960938 179.523438 C 48.484375 180.511719 48.601562 180.570312 49.007812 181.265625 C 49.414062 181.960938 49.878906 182.890625 50.402344 183.703125 C 50.925781 184.515625 51.679688 185.5 52.144531 186.140625 C 52.609375 186.777344 52.785156 187.011719 53.191406 187.535156 C 53.597656 188.054688 53.945312 188.519531 54.585938 189.273438 C 55.226562 190.027344 55.921875 190.957031 57.027344 192.058594 C 58.132812 193.164062 60.222656 195.019531 61.210938 195.890625 C 62.199219 196.761719 62.429688 196.878906 62.953125 197.285156 C 63.476562 197.691406 63.941406 198.039062 64.351562 198.328125 C 64.757812 198.617188 65.046875 198.792969 65.394531 199.023438 C 65.746094 199.257812 65.859375 199.375 66.441406 199.722656 C 67.023438 200.070312 68.125 200.707031 68.882812 201.113281 C 69.636719 201.519531 70.335938 201.867188 70.976562 202.160156 C 71.613281 202.449219 72.136719 202.625 72.71875 202.855469 C 73.300781 203.085938 73.996094 203.378906 74.460938 203.550781 C 74.925781 203.726562 74.925781 203.726562 75.507812 203.898438 C 76.089844 204.074219 77.308594 204.421875 77.949219 204.597656 C 78.585938 204.769531 78.761719 204.828125 79.34375 204.945312 C 79.925781 205.0625 80.621094 205.175781 81.4375 205.292969 C 82.25 205.410156 82.714844 205.582031 84.226562 205.640625 C 85.738281 205.699219 88.992188 205.699219 90.503906 205.640625 C 92.011719 205.582031 92.535156 205.410156 93.292969 205.292969 C 94.046875 205.175781 94.453125 205.0625 95.035156 204.945312 C 95.617188 204.828125 96.140625 204.769531 96.777344 204.597656 C 97.417969 204.421875 98 204.191406 98.871094 203.898438 C 99.742188 203.609375 100.671875 203.4375 102.007812 202.855469 C 103.34375 202.273438 105.785156 201 106.890625 200.417969 C 107.996094 199.835938 108.167969 199.664062 108.632812 199.375 C 109.097656 199.082031 109.273438 198.964844 109.679688 198.675781 C 110.085938 198.386719 110.609375 197.980469 111.074219 197.632812 C 111.539062 197.285156 111.945312 196.992188 112.46875 196.585938 C 112.992188 196.179688 113.167969 196.179688 114.214844 195.195312 C 115.257812 194.207031 117.582031 191.886719 118.746094 190.667969 C 119.910156 189.449219 120.488281 188.75 121.1875 187.882812 C 121.882812 187.011719 122.523438 186.023438 122.929688 185.445312 C 123.335938 184.863281 123.394531 184.746094 123.628906 184.398438 C 123.859375 184.050781 124.035156 183.820312 124.324219 183.355469 C 124.617188 182.890625 125.199219 181.902344 125.371094 181.613281 C 125.546875 181.324219 126.070312 180.511719 126.417969 179.871094 C 126.765625 179.234375 127 178.710938 127.464844 177.78125 C 127.929688 176.855469 128.800781 175.171875 129.207031 174.300781 C 129.613281 173.429688 129.613281 173.3125 129.90625 172.558594 C 130.195312 171.804688 130.71875 170.410156 130.949219 169.773438 C 131.183594 169.136719 131.183594 169.078125 131.300781 168.730469 C 131.414062 168.382812 131.414062 168.4375 131.648438 167.683594 C 131.878906 166.929688 132.460938 165.015625 132.695312 164.203125 C 132.925781 163.390625 132.808594 163.910156 133.042969 162.808594 C 133.273438 161.707031 133.855469 158.804688 134.089844 157.585938 C 134.320312 156.367188 134.378906 156.25 134.4375 155.496094 C 134.496094 154.742188 134.4375 153.464844 134.4375 153.058594 L 132.695312 153.058594 L 130.253906 152.363281 L 129.554688 152.363281 L 129.554688 153.753906 L 129.207031 154.105469 C 129.207031 154.453125 129.265625 155.496094 129.207031 156.191406 C 129.148438 156.890625 128.972656 157.644531 128.859375 158.28125 C 128.742188 158.921875 128.625 159.5 128.507812 160.023438 C 128.394531 160.546875 128.277344 160.953125 128.160156 161.417969 C 128.042969 161.878906 127.988281 162.171875 127.8125 162.808594 C 127.636719 163.445312 127.289062 164.667969 127.113281 165.246094 C 126.941406 165.828125 126.882812 165.941406 126.765625 166.292969 C 126.648438 166.640625 126.648438 166.699219 126.417969 167.335938 C 126.183594 167.972656 125.71875 169.25 125.371094 170.121094 C 125.023438 170.992188 124.847656 171.457031 124.324219 172.558594 C 123.800781 173.660156 122.8125 175.636719 122.234375 176.738281 C 121.652344 177.839844 121.535156 178.074219 120.839844 179.175781 C 120.140625 180.277344 118.804688 182.308594 118.046875 183.355469 C 117.292969 184.398438 117.640625 184.050781 116.304688 185.445312 C 114.96875 186.835938 111.367188 190.433594 110.027344 191.710938 C 108.691406 192.988281 109.273438 192.410156 108.285156 193.105469 C 107.296875 193.800781 104.914062 195.367188 104.101562 195.890625 C 103.289062 196.414062 104.160156 195.890625 103.402344 196.238281 C 102.648438 196.585938 100.730469 197.515625 99.570312 197.980469 C 98.40625 198.445312 97.183594 198.792969 96.429688 199.023438 C 95.675781 199.257812 95.5 199.257812 95.035156 199.375 C 94.570312 199.488281 94.222656 199.605469 93.640625 199.722656 C 93.058594 199.835938 93.347656 200.011719 91.546875 200.070312 C 89.746094 200.128906 84.632812 200.128906 82.832031 200.070312 C 81.027344 200.011719 81.320312 199.835938 80.738281 199.722656 C 80.15625 199.605469 79.925781 199.546875 79.34375 199.375 C 78.761719 199.199219 78.121094 198.964844 77.25 198.675781 C 76.378906 198.386719 74.867188 197.921875 74.113281 197.632812 C 73.355469 197.339844 73.300781 197.226562 72.71875 196.9375 C 72.136719 196.644531 71.265625 196.238281 70.625 195.890625 C 69.988281 195.542969 69.347656 195.136719 68.882812 194.847656 C 68.417969 194.554688 68.183594 194.382812 67.835938 194.148438 C 67.488281 193.917969 67.195312 193.742188 66.789062 193.453125 C 66.382812 193.164062 65.917969 192.816406 65.394531 192.410156 C 64.871094 192 64.699219 192 63.652344 191.015625 C 62.605469 190.027344 60.164062 187.589844 59.121094 186.488281 C 58.074219 185.386719 57.839844 184.980469 57.375 184.398438 C 56.910156 183.820312 56.792969 183.644531 56.328125 183.007812 C 55.863281 182.367188 54.992188 181.148438 54.585938 180.570312 C 54.179688 179.988281 54.238281 180.105469 53.886719 179.523438 C 53.539062 178.945312 52.902344 177.839844 52.492188 177.085938 C 52.085938 176.332031 51.914062 175.925781 51.449219 174.996094 C 50.984375 174.070312 50.167969 172.558594 49.703125 171.515625 C 49.238281 170.46875 49.066406 169.890625 48.65625 168.730469 C 48.25 167.566406 47.613281 165.652344 47.261719 164.550781 C 46.914062 163.445312 46.742188 162.75 46.566406 162.113281 C 46.390625 161.472656 46.332031 161.242188 46.21875 160.71875 C 46.101562 160.195312 45.984375 159.558594 45.867188 158.980469 C 45.753906 158.398438 45.636719 157.875 45.519531 157.238281 C 45.402344 156.597656 45.289062 156.019531 45.171875 155.148438 C 45.054688 154.277344 44.9375 153.347656 44.824219 152.015625 C 44.707031 150.679688 44.53125 148.820312 44.472656 147.140625 C 44.417969 145.457031 44.417969 143.597656 44.472656 141.914062 C 44.53125 140.230469 44.707031 138.316406 44.824219 137.039062 C 44.9375 135.761719 45.054688 135.066406 45.171875 134.253906 C 45.289062 133.441406 45.402344 132.804688 45.519531 132.164062 C 45.636719 131.527344 45.753906 131.003906 45.867188 130.425781 C 45.984375 129.84375 46.101562 129.203125 46.21875 128.683594 C 46.332031 128.160156 46.449219 127.753906 46.566406 127.289062 C 46.683594 126.824219 46.742188 126.535156 46.914062 125.898438 C 47.089844 125.257812 47.4375 124.039062 47.613281 123.460938 C 47.785156 122.878906 47.671875 123.226562 47.960938 122.414062 C 48.25 121.601562 48.832031 119.859375 49.355469 118.585938 C 49.878906 117.308594 50.75 115.507812 51.097656 114.753906 C 51.449219 114 51.332031 114.289062 51.449219 114.058594 C 51.5625 113.824219 51.507812 113.882812 51.796875 113.359375 C 52.085938 112.839844 52.785156 111.621094 53.191406 110.921875 C 53.597656 110.226562 53.65625 110.050781 54.238281 109.183594 C 54.820312 108.3125 56.039062 106.570312 56.679688 105.699219 C 57.316406 104.828125 56.792969 105.292969 58.074219 103.957031 C 59.351562 102.625 63.011719 98.96875 64.351562 97.691406 C 65.6875 96.414062 65.570312 96.703125 66.09375 96.296875 C 66.617188 95.890625 66.789062 95.71875 67.488281 95.253906 C 68.183594 94.789062 69.347656 94.035156 70.277344 93.511719 C 71.207031 92.988281 72.3125 92.46875 73.066406 92.117188 C 73.820312 91.769531 74.230469 91.65625 74.8125 91.421875 C 75.390625 91.191406 76.089844 90.898438 76.554688 90.726562 C 77.019531 90.550781 77.25 90.492188 77.601562 90.378906 C 77.949219 90.261719 78.238281 90.144531 78.644531 90.03125 C 79.054688 89.914062 79.460938 89.796875 80.042969 89.679688 C 80.621094 89.566406 81.320312 89.449219 82.132812 89.332031 C 82.945312 89.21875 83.644531 89.042969 84.921875 88.984375 C 86.203125 88.925781 88.527344 88.925781 89.804688 88.984375 C 91.082031 89.042969 91.839844 89.21875 92.59375 89.332031 C 93.347656 89.449219 93.8125 89.566406 94.339844 89.679688 C 94.859375 89.796875 94.804688 89.738281 95.734375 90.03125 C 96.664062 90.320312 98.40625 90.785156 99.917969 91.421875 C 101.429688 92.058594 103.695312 93.28125 104.800781 93.859375 C 105.902344 94.441406 106.078125 94.613281 106.542969 94.90625 C 107.007812 95.195312 107.121094 95.253906 107.585938 95.601562 C 108.050781 95.949219 108.75 96.53125 109.332031 96.992188 C 109.914062 97.457031 110.085938 97.457031 111.074219 98.386719 C 112.0625 99.316406 114.214844 101.460938 115.257812 102.566406 C 116.304688 103.667969 116.828125 104.363281 117.351562 105.003906 C 117.875 105.640625 117.875 105.640625 118.398438 106.394531 C 118.921875 107.148438 119.96875 108.71875 120.488281 109.53125 C 121.011719 110.34375 121.128906 110.574219 121.535156 111.269531 C 121.941406 111.96875 122.640625 113.1875 122.929688 113.710938 C 123.222656 114.230469 122.929688 113.652344 123.277344 114.40625 C 123.628906 115.160156 124.558594 117.132812 125.023438 118.234375 C 125.488281 119.339844 125.71875 120.035156 126.070312 121.023438 C 126.417969 122.007812 126.824219 123.226562 127.113281 124.15625 C 127.40625 125.085938 127.636719 125.953125 127.8125 126.59375 C 127.988281 127.230469 128.042969 127.523438 128.160156 127.988281 C 128.277344 128.449219 128.394531 128.855469 128.507812 129.378906 C 128.625 129.902344 128.742188 130.539062 128.859375 131.121094 C 128.972656 131.699219 129.089844 132.164062 129.207031 132.863281 C 129.324219 133.558594 129.441406 134.371094 129.554688 135.300781 C 129.671875 136.226562 129.847656 135.878906 129.90625 138.433594 C 129.964844 140.988281 129.90625 148.589844 129.90625 150.621094 L 130.949219 150.621094 L 131.300781 150.96875 L 133.042969 150.96875 L 133.390625 151.316406 L 134.785156 151.316406 L 134.785156 147.140625 L 135.136719 146.789062 C 135.136719 146.035156 135.195312 143.945312 135.136719 142.265625 C 135.078125 140.582031 134.902344 138.085938 134.785156 136.691406 C 134.671875 135.300781 134.554688 134.777344 134.4375 133.90625 C 134.320312 133.035156 134.261719 132.453125 134.089844 131.46875 C 133.914062 130.480469 133.566406 128.855469 133.390625 127.988281 C 133.21875 127.117188 133.273438 127.117188 133.042969 126.246094 C 132.808594 125.375 132.402344 124.039062 131.996094 122.761719 C 131.589844 121.484375 131.007812 119.746094 130.601562 118.585938 C 130.195312 117.421875 129.964844 116.726562 129.554688 115.796875 C 129.148438 114.871094 128.566406 113.882812 128.160156 113.011719 C 127.753906 112.140625 127.523438 111.386719 127.113281 110.574219 C 126.707031 109.761719 126.128906 108.832031 125.71875 108.136719 C 125.3125 107.441406 124.964844 106.859375 124.675781 106.394531 C 124.382812 105.933594 124.210938 105.699219 123.976562 105.351562 C 123.742188 105.003906 123.6875 104.886719 123.277344 104.308594 C 122.871094 103.726562 122.058594 102.566406 121.535156 101.871094 C 121.011719 101.171875 120.78125 100.882812 120.140625 100.128906 C 119.503906 99.375 118.222656 97.921875 117.699219 97.34375 C 117.175781 96.761719 117.699219 97.285156 117.003906 96.644531 C 116.304688 96.007812 114.386719 94.265625 113.515625 93.511719 C 112.644531 92.757812 112.351562 92.582031 111.773438 92.117188 C 111.191406 91.65625 110.785156 91.246094 110.027344 90.726562 C 109.273438 90.203125 108.515625 89.679688 107.238281 88.984375 C 105.960938 88.289062 103.636719 87.128906 102.359375 86.546875 C 101.078125 85.964844 100.441406 85.792969 99.570312 85.503906 C 98.695312 85.210938 97.765625 84.980469 97.128906 84.804688 C 96.488281 84.632812 96.253906 84.574219 95.734375 84.457031 C 95.210938 84.339844 94.628906 84.226562 93.988281 84.109375 C 93.347656 83.992188 93.8125 83.820312 91.898438 83.761719 C 89.980469 83.703125 84.050781 83.761719 82.480469 83.761719 Z M 82.480469 83.761719 "/>
<path style=" stroke:none;fill-rule:evenodd;fill:rgb(0%,100%,100%);fill-opacity:0.39216;" d="M 82.128906 53.75 C 81.605469 53.808594 79.921875 53.984375 78.992188 54.097656 C 78.0625 54.214844 77.246094 54.332031 76.550781 54.445312 C 75.851562 54.5625 75.386719 54.679688 74.804688 54.796875 C 74.226562 54.910156 73.585938 55.027344 73.0625 55.144531 C 72.539062 55.261719 72.304688 55.316406 71.667969 55.492188 C 71.027344 55.667969 70.332031 55.839844 69.226562 56.1875 C 68.121094 56.539062 66.03125 57.234375 65.042969 57.582031 C 64.054688 57.929688 63.878906 58.046875 63.300781 58.277344 C 62.71875 58.511719 62.660156 58.453125 61.554688 58.976562 C 60.449219 59.496094 57.894531 60.773438 56.671875 61.414062 C 55.453125 62.050781 54.929688 62.398438 54.234375 62.804688 C 53.535156 63.210938 53.304688 63.328125 52.488281 63.851562 C 51.675781 64.371094 50.105469 65.417969 49.351562 65.941406 C 48.59375 66.460938 48.421875 66.636719 47.957031 66.984375 C 47.492188 67.332031 47.082031 67.621094 46.5625 68.027344 C 46.039062 68.433594 45.515625 68.839844 44.816406 69.421875 C 44.121094 70.003906 43.714844 70.234375 42.375 71.511719 C 41.039062 72.789062 38.078125 75.746094 36.796875 77.082031 C 35.519531 78.417969 35.285156 78.824219 34.707031 79.519531 C 34.125 80.21875 33.777344 80.679688 33.3125 81.261719 C 32.847656 81.84375 32.320312 82.480469 31.914062 83.003906 C 31.507812 83.523438 31.277344 83.816406 30.871094 84.394531 C 30.460938 84.976562 30.054688 85.613281 29.476562 86.484375 C 28.894531 87.355469 27.90625 88.804688 27.382812 89.617188 C 26.859375 90.429688 26.511719 91.070312 26.335938 91.359375 C 26.160156 91.648438 25.8125 92.171875 25.289062 93.101562 C 24.765625 94.03125 23.605469 96.175781 23.199219 96.933594 C 22.792969 97.6875 23.199219 96.875 22.851562 97.628906 C 22.5 98.382812 21.570312 100.414062 21.105469 101.457031 C 20.640625 102.503906 20.351562 103.199219 20.058594 103.894531 C 19.769531 104.59375 19.59375 105.058594 19.363281 105.636719 C 19.128906 106.21875 19.128906 106.042969 18.664062 107.378906 C 18.199219 108.714844 17.039062 112.195312 16.574219 113.648438 C 16.109375 115.097656 16.164062 114.980469 15.875 116.085938 C 15.585938 117.1875 15.179688 118.695312 14.828125 120.261719 C 14.480469 121.828125 14.015625 124.265625 13.785156 125.488281 C 13.550781 126.703125 13.550781 126.820312 13.433594 127.574219 C 13.320312 128.328125 13.203125 129.140625 13.085938 130.011719 C 12.96875 130.882812 12.855469 131.695312 12.738281 132.800781 C 12.621094 133.902344 12.445312 133.320312 12.386719 136.628906 C 12.328125 139.9375 12.328125 149.398438 12.386719 152.648438 C 12.445312 155.898438 12.621094 155.027344 12.738281 156.128906 C 12.855469 157.234375 12.855469 157.695312 13.085938 159.265625 C 13.320312 160.832031 13.898438 164.199219 14.132812 165.53125 C 14.363281 166.867188 14.25 166.230469 14.480469 167.273438 C 14.714844 168.320312 15.234375 170.640625 15.527344 171.800781 C 15.816406 172.960938 15.992188 173.425781 16.222656 174.238281 C 16.457031 175.050781 16.628906 175.746094 16.921875 176.675781 C 17.210938 177.605469 17.621094 178.824219 17.96875 179.808594 C 18.316406 180.796875 18.722656 181.839844 19.015625 182.597656 C 19.304688 183.351562 19.480469 183.757812 19.710938 184.335938 C 19.945312 184.917969 20.117188 185.382812 20.410156 186.078125 C 20.699219 186.773438 20.699219 186.949219 21.453125 188.515625 C 22.210938 190.082031 24.1875 194.027344 24.941406 195.480469 C 25.695312 196.929688 25.8125 196.929688 25.988281 197.222656 C 26.160156 197.511719 26.625 198.324219 27.035156 198.960938 C 27.441406 199.601562 27.847656 200.179688 28.429688 201.050781 C 29.011719 201.921875 29.648438 202.96875 30.519531 204.1875 C 31.390625 205.40625 32.789062 207.261719 33.660156 208.363281 C 34.53125 209.46875 34.125 209.117188 35.75 210.800781 C 37.378906 212.484375 41.796875 216.894531 43.421875 218.464844 C 45.050781 220.03125 44.875 219.683594 45.515625 220.203125 C 46.152344 220.726562 46.734375 221.191406 47.257812 221.597656 C 47.78125 222.003906 48.015625 222.179688 48.652344 222.640625 C 49.292969 223.105469 50.398438 223.917969 51.09375 224.382812 C 51.792969 224.847656 52.546875 225.253906 52.839844 225.429688 C 53.417969 225.777344 54.929688 226.761719 56.324219 227.515625 C 57.71875 228.273438 60.101562 229.433594 61.207031 229.957031 C 62.308594 230.476562 62.367188 230.417969 62.949219 230.652344 C 63.53125 230.882812 63.9375 231.058594 64.695312 231.347656 C 65.449219 231.636719 66.84375 232.160156 67.484375 232.394531 C 68.121094 232.625 67.714844 232.507812 68.53125 232.742188 C 69.34375 232.972656 71.203125 233.496094 72.363281 233.785156 C 73.527344 234.074219 74.574219 234.308594 75.503906 234.480469 C 76.433594 234.65625 77.128906 234.714844 77.945312 234.832031 C 78.757812 234.945312 79.222656 235.0625 80.386719 235.179688 C 81.546875 235.292969 83.40625 235.46875 84.917969 235.527344 C 86.429688 235.585938 87.882812 235.585938 89.453125 235.527344 C 91.019531 235.46875 93.113281 235.292969 94.332031 235.179688 C 95.554688 235.0625 96.019531 234.945312 96.773438 234.832031 C 97.527344 234.714844 98.226562 234.597656 98.867188 234.480469 C 99.503906 234.367188 99.621094 234.367188 100.609375 234.132812 C 101.597656 233.902344 103.75 233.378906 104.792969 233.089844 C 105.839844 232.796875 106.015625 232.683594 106.886719 232.394531 C 107.757812 232.101562 109.210938 231.636719 110.023438 231.347656 C 110.839844 231.058594 111.011719 231 111.769531 230.652344 C 112.523438 230.304688 113.28125 229.898438 114.558594 229.257812 C 115.835938 228.621094 118.042969 227.574219 119.441406 226.820312 C 120.835938 226.066406 121.765625 225.484375 122.925781 224.730469 C 124.089844 223.976562 125.308594 223.105469 126.414062 222.292969 C 127.515625 221.480469 128.5625 220.667969 129.550781 219.855469 C 130.539062 219.042969 131.003906 218.695312 132.339844 217.417969 C 133.679688 216.140625 136.292969 213.53125 137.570312 212.195312 C 138.851562 210.859375 139.375 210.164062 140.011719 209.410156 C 140.652344 208.65625 140.941406 208.25 141.40625 207.667969 C 141.871094 207.089844 142.277344 206.625 142.800781 205.925781 C 143.324219 205.230469 143.789062 204.59375 144.546875 203.488281 C 145.300781 202.386719 146.695312 200.296875 147.335938 199.3125 C 147.972656 198.324219 147.972656 198.265625 148.382812 197.570312 C 148.789062 196.875 148.964844 196.699219 149.777344 195.132812 C 150.589844 193.566406 152.507812 189.734375 153.261719 188.167969 C 154.019531 186.601562 154.019531 186.425781 154.308594 185.730469 C 154.601562 185.035156 154.773438 184.570312 155.007812 183.988281 C 155.238281 183.410156 155.179688 183.757812 155.703125 182.246094 C 156.226562 180.738281 157.621094 176.558594 158.144531 174.933594 C 158.667969 173.308594 158.667969 173.136719 158.84375 172.496094 C 159.015625 171.859375 158.960938 172.089844 159.191406 171.105469 C 159.425781 170.117188 159.945312 167.96875 160.238281 166.578125 C 160.527344 165.183594 160.761719 163.792969 160.933594 162.746094 C 161.109375 161.703125 161.167969 161.0625 161.285156 160.308594 C 161.398438 159.554688 161.574219 158.683594 161.632812 158.21875 C 161.691406 157.753906 161.632812 157.640625 161.632812 157.523438 L 160.585938 157.523438 L 160.238281 157.175781 C 159.890625 157.117188 159.191406 157 158.144531 156.828125 C 157.097656 156.652344 155.007812 156.246094 153.960938 156.128906 C 152.914062 156.015625 154.367188 156.535156 151.867188 156.128906 C 149.371094 155.722656 141.582031 154.15625 138.96875 153.691406 C 136.351562 153.230469 136.640625 153.402344 136.175781 153.34375 C 136.117188 153.808594 135.886719 155.316406 135.828125 156.128906 C 135.769531 156.941406 135.886719 157.582031 135.828125 158.21875 C 135.769531 158.859375 135.597656 159.378906 135.480469 159.960938 C 135.363281 160.542969 135.246094 161.179688 135.132812 161.703125 C 135.015625 162.222656 134.898438 162.632812 134.78125 163.09375 C 134.667969 163.558594 134.609375 163.847656 134.433594 164.488281 C 134.257812 165.125 134.027344 165.996094 133.738281 166.925781 C 133.445312 167.855469 133.039062 169.074219 132.691406 170.058594 C 132.339844 171.046875 131.933594 172.089844 131.644531 172.84375 C 131.351562 173.601562 131.644531 173.136719 130.945312 174.585938 C 130.25 176.039062 128.214844 180.101562 127.460938 181.550781 C 126.703125 183 126.9375 182.480469 126.414062 183.292969 C 125.890625 184.105469 124.960938 185.496094 124.320312 186.425781 C 123.683594 187.355469 123.277344 187.992188 122.578125 188.863281 C 121.878906 189.734375 121.355469 190.375 120.136719 191.648438 C 118.917969 192.925781 116.359375 195.480469 115.253906 196.523438 C 114.152344 197.570312 114.035156 197.511719 113.511719 197.917969 C 112.988281 198.324219 112.582031 198.613281 112.117188 198.960938 C 111.652344 199.3125 111.128906 199.71875 110.722656 200.007812 C 110.316406 200.296875 110.023438 200.472656 109.675781 200.703125 C 109.328125 200.9375 109.152344 201.109375 108.628906 201.398438 C 108.105469 201.691406 107.582031 201.921875 106.539062 202.445312 C 105.492188 202.96875 103.339844 204.070312 102.351562 204.535156 C 101.363281 205 101.074219 205.054688 100.609375 205.230469 C 100.144531 205.40625 100.144531 205.40625 99.5625 205.578125 C 98.984375 205.753906 97.761719 206.101562 97.121094 206.277344 C 96.484375 206.449219 96.25 206.507812 95.726562 206.625 C 95.203125 206.738281 94.738281 206.855469 93.984375 206.972656 C 93.230469 207.089844 92.996094 207.261719 91.195312 207.320312 C 89.394531 207.378906 84.917969 207.378906 83.175781 207.320312 C 81.429688 207.261719 81.429688 207.089844 80.734375 206.972656 C 80.035156 206.855469 79.511719 206.738281 78.992188 206.625 C 78.46875 206.507812 78.0625 206.390625 77.59375 206.277344 C 77.128906 206.160156 76.957031 206.160156 76.199219 205.925781 C 75.445312 205.695312 73.875 205.171875 73.0625 204.882812 C 72.25 204.59375 72.304688 204.652344 71.320312 204.1875 C 70.332031 203.722656 68.121094 202.617188 67.132812 202.097656 C 66.144531 201.574219 65.855469 201.34375 65.390625 201.050781 C 64.925781 200.761719 64.695312 200.585938 64.34375 200.355469 C 63.996094 200.125 63.996094 200.179688 63.300781 199.660156 C 62.601562 199.136719 61.789062 198.730469 60.160156 197.222656 C 58.535156 195.710938 54.929688 192.054688 53.535156 190.605469 C 52.140625 189.152344 52.257812 189.097656 51.792969 188.515625 C 51.328125 187.9375 51.210938 187.761719 50.746094 187.121094 C 50.28125 186.484375 49.46875 185.382812 49.003906 184.683594 C 48.539062 183.988281 48.128906 183.234375 47.957031 182.945312 C 47.78125 182.652344 47.664062 182.652344 46.910156 181.203125 C 46.152344 179.75 44.179688 175.863281 43.421875 174.238281 C 42.667969 172.613281 42.667969 172.265625 42.375 171.453125 C 42.085938 170.640625 41.96875 170.234375 41.679688 169.363281 C 41.386719 168.492188 40.921875 167.15625 40.632812 166.230469 C 40.34375 165.300781 40.109375 164.429688 39.9375 163.792969 C 39.761719 163.152344 39.820312 163.5 39.585938 162.398438 C 39.355469 161.296875 38.773438 158.511719 38.542969 157.175781 C 38.308594 155.839844 38.308594 155.375 38.191406 154.390625 C 38.078125 153.402344 37.902344 154.042969 37.84375 151.253906 C 37.785156 148.46875 37.785156 140.402344 37.84375 137.675781 C 37.902344 134.945312 38.078125 135.816406 38.191406 134.890625 C 38.308594 133.960938 38.308594 133.4375 38.542969 132.101562 C 38.773438 130.765625 39.355469 127.980469 39.585938 126.878906 C 39.820312 125.777344 39.820312 125.949219 39.9375 125.488281 C 40.050781 125.023438 40.109375 124.730469 40.285156 124.09375 C 40.457031 123.453125 40.808594 122.238281 40.980469 121.65625 C 41.15625 121.074219 41.214844 120.960938 41.332031 120.613281 C 41.445312 120.261719 41.445312 120.203125 41.679688 119.566406 C 41.910156 118.929688 42.433594 117.535156 42.726562 116.78125 C 43.015625 116.027344 43.074219 115.851562 43.421875 115.039062 C 43.773438 114.226562 44.351562 112.890625 44.816406 111.90625 C 45.28125 110.917969 45.804688 109.875 46.210938 109.121094 C 46.617188 108.363281 46.851562 108.074219 47.257812 107.378906 C 47.664062 106.683594 48.128906 105.753906 48.652344 104.941406 C 49.175781 104.128906 49.933594 103.140625 50.398438 102.503906 C 50.863281 101.863281 51.09375 101.574219 51.441406 101.109375 C 51.792969 100.644531 51.964844 100.355469 52.488281 99.71875 C 53.011719 99.078125 53.59375 98.324219 54.582031 97.28125 C 55.570312 96.234375 57.371094 94.4375 58.417969 93.449219 C 59.464844 92.460938 60.21875 91.882812 60.859375 91.359375 C 61.496094 90.835938 61.789062 90.664062 62.253906 90.316406 C 62.71875 89.96875 63.242188 89.558594 63.648438 89.269531 C 64.054688 88.980469 64.34375 88.804688 64.695312 88.574219 C 65.042969 88.34375 65.273438 88.167969 65.738281 87.878906 C 66.203125 87.585938 66.960938 87.121094 67.484375 86.832031 C 68.007812 86.542969 68.296875 86.425781 68.878906 86.136719 C 69.460938 85.847656 70.332031 85.382812 70.96875 85.09375 C 71.609375 84.800781 71.726562 84.742188 72.714844 84.394531 C 73.703125 84.046875 75.96875 83.292969 76.898438 83.003906 C 77.828125 82.710938 77.828125 82.769531 78.292969 82.65625 C 78.757812 82.539062 79.046875 82.421875 79.6875 82.304688 C 80.328125 82.191406 81.140625 82.015625 82.128906 81.957031 C 83.117188 81.898438 85.035156 81.957031 85.617188 81.957031 L 85.964844 81.609375 C 86.488281 81.609375 88 81.550781 89.101562 81.609375 C 90.207031 81.667969 91.660156 81.84375 92.589844 81.957031 C 93.519531 82.074219 94.042969 82.191406 94.683594 82.304688 C 95.320312 82.421875 95.726562 82.480469 96.425781 82.65625 C 97.121094 82.828125 97.9375 83.058594 98.867188 83.351562 C 99.796875 83.640625 101.132812 84.046875 102.003906 84.394531 C 102.875 84.742188 103.050781 84.917969 104.097656 85.441406 C 105.144531 85.960938 107.058594 86.832031 108.28125 87.53125 C 109.5 88.226562 110.664062 89.097656 111.417969 89.617188 C 112.175781 90.140625 112.289062 90.257812 112.8125 90.664062 C 113.335938 91.070312 113.164062 90.722656 114.558594 92.054688 C 115.953125 93.390625 119.789062 97.222656 121.183594 98.671875 C 122.578125 100.125 122.34375 100.007812 122.925781 100.761719 C 123.507812 101.515625 124.261719 102.621094 124.671875 103.199219 C 125.078125 103.78125 125.136719 103.894531 125.367188 104.246094 C 125.601562 104.59375 125.773438 104.824219 126.066406 105.289062 C 126.355469 105.753906 126.9375 106.738281 127.109375 107.03125 C 127.285156 107.320312 127.867188 108.25 128.15625 108.773438 C 128.449219 109.292969 128.5625 109.585938 128.855469 110.164062 C 129.144531 110.746094 129.492188 111.382812 129.902344 112.253906 C 130.308594 113.125 130.945312 114.574219 131.296875 115.386719 C 131.644531 116.199219 131.703125 116.375 131.992188 117.128906 C 132.28125 117.882812 132.691406 118.871094 133.039062 119.914062 C 133.386719 120.960938 133.792969 122.410156 134.085938 123.398438 C 134.375 124.382812 134.609375 125.136719 134.78125 125.835938 C 134.957031 126.53125 134.957031 126.703125 135.132812 127.574219 C 135.304688 128.445312 135.652344 130.128906 135.828125 131.058594 C 136.003906 131.988281 136.0625 132.277344 136.175781 133.148438 C 136.292969 134.019531 136.410156 135.003906 136.527344 136.28125 C 136.640625 137.558594 136.875 138.777344 136.875 140.808594 C 136.875 142.839844 136.582031 146.671875 136.527344 148.46875 C 136.46875 150.269531 136.527344 151.082031 136.527344 151.605469 L 137.222656 151.605469 L 137.570312 151.953125 L 139.316406 151.953125 L 139.664062 152.300781 C 140.011719 152.359375 141.058594 152.589844 141.757812 152.648438 C 142.453125 152.707031 141.347656 152.242188 143.847656 152.648438 C 146.347656 153.054688 154.195312 154.621094 156.75 155.085938 C 159.308594 155.550781 158.378906 155.316406 159.191406 155.433594 C 160.003906 155.550781 161.226562 155.722656 161.632812 155.78125 L 161.632812 155.085938 L 161.980469 154.738281 C 162.039062 153.925781 162.269531 152.472656 162.328125 149.863281 C 162.386719 147.25 162.386719 141.679688 162.328125 139.066406 C 162.269531 136.457031 162.097656 135.527344 161.980469 134.191406 C 161.863281 132.855469 161.75 131.988281 161.632812 131.058594 C 161.515625 130.128906 161.398438 129.375 161.285156 128.621094 C 161.167969 127.867188 161.050781 127.226562 160.933594 126.53125 C 160.820312 125.835938 160.703125 125.078125 160.585938 124.441406 C 160.46875 123.804688 160.355469 123.28125 160.238281 122.699219 C 160.121094 122.121094 160.179688 122.179688 159.890625 120.960938 C 159.597656 119.742188 158.84375 116.722656 158.496094 115.386719 C 158.144531 114.050781 158.144531 114.050781 157.796875 112.949219 C 157.449219 111.847656 156.808594 109.933594 156.402344 108.773438 C 155.996094 107.609375 155.644531 106.738281 155.355469 105.984375 C 155.066406 105.230469 154.949219 104.941406 154.660156 104.246094 C 154.367188 103.546875 154.078125 102.851562 153.613281 101.808594 C 153.148438 100.761719 152.21875 98.730469 151.867188 97.976562 C 151.519531 97.222656 151.636719 97.511719 151.519531 97.28125 C 151.402344 97.046875 151.578125 97.335938 151.171875 96.582031 C 150.765625 95.828125 149.660156 93.796875 149.078125 92.753906 C 148.5 91.707031 148.148438 91.070312 147.683594 90.316406 C 147.21875 89.558594 146.871094 89.097656 146.289062 88.226562 C 145.707031 87.355469 144.71875 85.847656 144.199219 85.09375 C 143.675781 84.335938 143.5 84.164062 143.152344 83.699219 C 142.800781 83.234375 142.511719 82.828125 142.105469 82.304688 C 141.699219 81.785156 141.234375 81.203125 140.710938 80.566406 C 140.1875 79.925781 140.59375 80.160156 138.96875 78.476562 C 137.339844 76.792969 132.632812 72.089844 130.945312 70.464844 C 129.261719 68.839844 129.492188 69.246094 128.855469 68.726562 C 128.214844 68.203125 127.632812 67.738281 127.109375 67.332031 C 126.585938 66.925781 126.644531 66.925781 125.714844 66.289062 C 124.785156 65.648438 122.519531 64.140625 121.53125 63.5 C 120.542969 62.863281 120.601562 62.921875 119.789062 62.457031 C 118.976562 61.992188 117.289062 61.0625 116.648438 60.714844 C 116.011719 60.367188 116.707031 60.714844 115.953125 60.367188 C 115.195312 60.019531 113.046875 59.03125 112.117188 58.625 C 111.1875 58.21875 111.128906 58.21875 110.375 57.929688 C 109.617188 57.640625 108.222656 57.117188 107.582031 56.886719 C 106.945312 56.652344 107.117188 56.710938 106.539062 56.539062 C 105.957031 56.363281 104.734375 56.015625 104.097656 55.839844 C 103.457031 55.667969 103.167969 55.609375 102.703125 55.492188 C 102.238281 55.375 101.828125 55.261719 101.308594 55.144531 C 100.785156 55.027344 100.144531 54.910156 99.5625 54.796875 C 98.984375 54.679688 98.460938 54.5625 97.820312 54.445312 C 97.179688 54.332031 96.597656 54.214844 95.726562 54.097656 C 94.855469 53.984375 94.855469 53.808594 92.589844 53.75 C 90.324219 53.691406 83.871094 53.75 82.128906 53.75 Z M 82.128906 53.75 "/>
<path style=" stroke:none;fill-rule:evenodd;fill:rgb(0%,100%,100%);fill-opacity:0.39216;" d="M 85.824219 90.792969 C 85.300781 90.851562 83.558594 91.023438 82.6875 91.140625 C 81.8125 91.257812 81.175781 91.375 80.59375 91.488281 C 80.011719 91.605469 80.128906 91.546875 79.199219 91.835938 C 78.269531 92.128906 76.410156 92.648438 75.015625 93.230469 C 73.621094 93.8125 71.820312 94.796875 70.828125 95.320312 C 69.84375 95.84375 69.550781 96.074219 69.085938 96.363281 C 68.621094 96.65625 68.449219 96.769531 68.039062 97.0625 C 67.632812 97.351562 67.167969 97.699219 66.644531 98.105469 C 66.121094 98.511719 66.007812 98.453125 64.902344 99.5 C 63.796875 100.542969 61.125 103.214844 60.019531 104.375 C 58.917969 105.535156 58.972656 105.535156 58.277344 106.464844 C 57.578125 107.390625 56.417969 109.074219 55.835938 109.945312 C 55.253906 110.816406 55.195312 110.988281 54.789062 111.6875 C 54.382812 112.382812 53.6875 113.601562 53.394531 114.125 C 53.105469 114.648438 53.164062 114.589844 53.046875 114.820312 C 52.929688 115.050781 53.046875 114.761719 52.699219 115.515625 C 52.347656 116.273438 51.476562 118.070312 50.953125 119.347656 C 50.429688 120.625 49.851562 122.367188 49.558594 123.179688 C 49.269531 123.992188 49.441406 123.410156 49.210938 124.222656 C 48.976562 125.035156 48.398438 127.183594 48.164062 128.054688 C 47.933594 128.925781 47.992188 128.574219 47.816406 129.445312 C 47.640625 130.316406 47.292969 132.230469 47.117188 133.277344 C 46.945312 134.320312 46.886719 134.84375 46.769531 135.714844 C 46.652344 136.585938 46.480469 136.003906 46.421875 138.5 C 46.363281 140.996094 46.363281 148.132812 46.421875 150.6875 C 46.480469 153.242188 46.652344 152.894531 46.769531 153.820312 C 46.886719 154.75 46.945312 155.273438 47.117188 156.257812 C 47.292969 157.246094 47.640625 158.871094 47.816406 159.742188 C 47.992188 160.613281 47.992188 160.785156 48.164062 161.484375 C 48.339844 162.179688 48.511719 162.820312 48.863281 163.921875 C 49.210938 165.023438 49.90625 167.113281 50.257812 168.097656 C 50.605469 169.085938 50.722656 169.261719 50.953125 169.839844 C 51.1875 170.421875 51.128906 170.480469 51.652344 171.582031 C 52.175781 172.683594 53.453125 175.238281 54.09375 176.457031 C 54.730469 177.675781 55.136719 178.3125 55.488281 178.894531 C 55.835938 179.476562 55.777344 179.359375 56.183594 179.9375 C 56.589844 180.519531 57.464844 181.738281 57.929688 182.375 C 58.394531 183.015625 58.507812 183.1875 58.972656 183.769531 C 59.4375 184.351562 59.847656 184.929688 60.71875 185.859375 C 61.589844 186.789062 63.332031 188.527344 64.203125 189.339844 C 65.078125 190.152344 65.367188 190.269531 65.949219 190.734375 C 66.527344 191.199219 66.9375 191.605469 67.691406 192.128906 C 68.449219 192.648438 69.203125 193.171875 70.480469 193.867188 C 71.761719 194.566406 74.027344 195.726562 75.363281 196.304688 C 76.699219 196.886719 77.746094 197.117188 78.5 197.351562 C 79.257812 197.582031 79.429688 197.582031 79.894531 197.699219 C 80.359375 197.816406 80.652344 197.929688 81.289062 198.046875 C 81.929688 198.164062 82.164062 198.335938 83.730469 198.394531 C 85.300781 198.453125 89.136719 198.453125 90.707031 198.394531 C 92.277344 198.335938 92.507812 198.164062 93.148438 198.046875 C 93.785156 197.929688 94.078125 197.816406 94.542969 197.699219 C 95.007812 197.582031 95.179688 197.582031 95.9375 197.351562 C 96.691406 197.117188 97.738281 196.886719 99.074219 196.304688 C 100.410156 195.726562 102.851562 194.449219 103.957031 193.867188 C 105.0625 193.289062 105.234375 193.113281 105.699219 192.824219 C 106.164062 192.53125 106.28125 192.476562 106.746094 192.128906 C 107.210938 191.777344 107.910156 191.199219 108.488281 190.734375 C 109.070312 190.269531 109.363281 190.152344 110.234375 189.339844 C 111.105469 188.527344 112.847656 186.789062 113.71875 185.859375 C 114.59375 184.929688 115 184.351562 115.464844 183.769531 C 115.929688 183.1875 116.160156 182.839844 116.507812 182.375 C 116.859375 181.914062 117.265625 181.390625 117.554688 180.984375 C 117.847656 180.578125 118.019531 180.289062 118.253906 179.9375 C 118.484375 179.589844 118.601562 179.476562 118.949219 178.894531 C 119.300781 178.3125 119.707031 177.675781 120.34375 176.457031 C 120.984375 175.238281 122.265625 172.683594 122.785156 171.582031 C 123.308594 170.480469 123.25 170.421875 123.484375 169.839844 C 123.714844 169.261719 123.832031 169.085938 124.179688 168.097656 C 124.53125 167.113281 125.226562 165.023438 125.574219 163.921875 C 125.925781 162.820312 126.097656 162.179688 126.273438 161.484375 C 126.449219 160.785156 126.449219 160.613281 126.621094 159.742188 C 126.796875 158.871094 127.203125 157.1875 127.320312 156.257812 C 127.4375 155.332031 127.320312 154.519531 127.320312 154.171875 L 127.667969 153.820312 L 127.667969 152.082031 L 126.273438 152.082031 L 125.925781 151.734375 C 125.574219 151.675781 124.878906 151.558594 123.832031 151.382812 C 122.785156 151.210938 120.695312 150.804688 119.648438 150.6875 C 118.601562 150.570312 122.554688 151.5 117.554688 150.6875 C 112.558594 149.875 94.65625 146.625 89.660156 145.8125 C 84.660156 145 87.917969 145.8125 87.566406 145.8125 L 86.871094 145.464844 L 86.871094 143.722656 L 87.917969 143.722656 C 88.324219 143.839844 88.90625 144.1875 90.355469 144.421875 C 91.808594 144.652344 90.9375 144.1875 96.632812 145.117188 C 102.328125 146.046875 119.472656 149.121094 124.53125 149.992188 C 129.585938 150.863281 126.390625 150.28125 126.972656 150.339844 C 127.550781 150.398438 127.84375 150.339844 128.015625 150.339844 C 128.015625 148.367188 128.074219 140.996094 128.015625 138.5 C 127.960938 136.003906 127.785156 136.292969 127.667969 135.367188 C 127.550781 134.4375 127.4375 133.625 127.320312 132.929688 C 127.203125 132.230469 127.085938 131.769531 126.972656 131.1875 C 126.855469 130.605469 126.738281 129.96875 126.621094 129.445312 C 126.503906 128.925781 126.390625 128.515625 126.273438 128.054688 C 126.15625 127.589844 126.097656 127.300781 125.925781 126.660156 C 125.75 126.023438 125.402344 124.804688 125.226562 124.222656 C 125.054688 123.640625 125.167969 123.992188 124.878906 123.179688 C 124.589844 122.367188 123.949219 120.507812 123.484375 119.347656 C 123.019531 118.1875 122.496094 117.085938 122.089844 116.214844 C 121.683594 115.34375 121.449219 114.878906 121.042969 114.125 C 120.636719 113.371094 120.054688 112.382812 119.648438 111.6875 C 119.242188 110.988281 118.894531 110.410156 118.601562 109.945312 C 118.3125 109.480469 118.3125 109.480469 117.90625 108.902344 C 117.5 108.320312 116.683594 107.160156 116.160156 106.464844 C 115.636719 105.765625 115.929688 105.941406 114.765625 104.722656 C 113.605469 103.503906 110.347656 100.253906 109.1875 99.148438 C 108.023438 98.046875 108.257812 98.453125 107.792969 98.105469 C 107.328125 97.757812 106.804688 97.351562 106.398438 97.0625 C 105.992188 96.769531 105.699219 96.597656 105.351562 96.363281 C 105.003906 96.132812 105.292969 96.191406 104.304688 95.667969 C 103.316406 95.144531 100.933594 93.871094 99.421875 93.230469 C 97.914062 92.59375 96.167969 92.128906 95.238281 91.835938 C 94.308594 91.546875 94.425781 91.605469 93.84375 91.488281 C 93.261719 91.375 92.625 91.257812 91.75 91.140625 C 90.878906 91.023438 89.601562 90.851562 88.613281 90.792969 C 87.625 90.734375 86.289062 90.792969 85.824219 90.792969 Z M 85.824219 90.792969 "/>
<path style="fill:none;stroke-width:15;stroke-linecap:round;stroke-linejoin:round;stroke:rgb(0%,0%,0%);stroke-opacity:1;stroke-miterlimit:10;" d="M 590.977589 1590.914687 L 938.473084 1235.670856 " transform="matrix(0.0929868,0,0,-0.092861,0,259.4487)"/>
<path style=" stroke:none;fill-rule:evenodd;fill:rgb(0%,0%,0%);fill-opacity:1;" d="M 80.457031 120.558594 C 80.402344 120.773438 80.289062 120.933594 80.121094 121.042969 C 79.953125 121.152344 79.785156 121.207031 79.613281 121.207031 C 79.4375 121.207031 79.292969 121.152344 79.175781 121.039062 C 79.082031 120.960938 79.035156 120.855469 79.035156 120.71875 C 79.035156 120.652344 79.042969 120.582031 79.066406 120.515625 C 79.109375 120.34375 79.1875 120.210938 79.300781 120.113281 C 79.414062 120.015625 79.492188 119.960938 79.53125 119.953125 C 79.417969 119.863281 79.179688 119.820312 78.816406 119.820312 C 78.4375 119.820312 78.097656 119.976562 77.796875 120.285156 C 77.5 120.59375 77.230469 121.011719 76.988281 121.535156 L 75.898438 125.707031 C 75.855469 125.886719 75.761719 126.019531 75.625 126.109375 C 75.488281 126.199219 75.347656 126.246094 75.207031 126.246094 C 75.058594 126.246094 74.941406 126.195312 74.863281 126.097656 C 74.796875 126.035156 74.765625 125.949219 74.765625 125.835938 C 74.765625 125.792969 74.769531 125.738281 74.777344 125.675781 L 75.9375 121.164062 C 76.015625 120.847656 76.058594 120.574219 76.058594 120.347656 L 76.058594 120.171875 C 76.03125 119.9375 75.914062 119.820312 75.703125 119.820312 C 75.484375 119.820312 75.296875 120 75.152344 120.355469 C 75.003906 120.707031 74.859375 121.171875 74.71875 121.738281 C 74.664062 121.871094 74.570312 121.9375 74.441406 121.941406 L 74.265625 121.941406 C 74.148438 121.941406 74.085938 121.882812 74.085938 121.761719 L 74.085938 121.710938 C 74.148438 121.480469 74.214844 121.230469 74.289062 120.960938 C 74.367188 120.691406 74.464844 120.4375 74.589844 120.195312 C 74.714844 119.957031 74.875 119.753906 75.0625 119.585938 C 75.253906 119.417969 75.492188 119.332031 75.777344 119.332031 C 76.160156 119.332031 76.46875 119.441406 76.699219 119.65625 C 76.933594 119.875 77.0625 120.085938 77.09375 120.296875 C 77.269531 120.0625 77.515625 119.84375 77.828125 119.640625 C 78.140625 119.433594 78.5 119.332031 78.90625 119.332031 C 79.109375 119.332031 79.3125 119.355469 79.519531 119.394531 C 79.726562 119.4375 79.910156 119.503906 80.070312 119.597656 C 80.226562 119.695312 80.34375 119.820312 80.417969 119.972656 C 80.464844 120.070312 80.488281 120.179688 80.492188 120.300781 C 80.492188 120.375 80.480469 120.460938 80.457031 120.558594 Z M 80.457031 120.558594 "/>
<path style="fill:none;stroke-width:15;stroke-linecap:round;stroke-linejoin:round;stroke:rgb(0%,0%,0%);stroke-opacity:1;stroke-miterlimit:10;" d="M 464.447557 1507.666903 L 522.671536 1477.04316 " transform="matrix(0.0929868,0,0,-0.092861,0,259.4487)"/>
<path style=" stroke:none;fill-rule:evenodd;fill:rgb(0%,0%,0%);fill-opacity:1;" d="M 43.851562 115.664062 L 43.851562 114.796875 C 43.691406 114.996094 43.4375 115.191406 43.082031 115.375 C 42.730469 115.5625 42.332031 115.65625 41.898438 115.65625 C 41.4375 115.65625 41 115.566406 40.589844 115.386719 C 40.179688 115.207031 39.824219 114.960938 39.519531 114.644531 C 39.195312 114.304688 38.949219 113.925781 38.78125 113.515625 C 38.613281 113.101562 38.527344 112.664062 38.527344 112.207031 C 38.527344 111.75 38.617188 111.3125 38.792969 110.890625 C 38.96875 110.464844 39.222656 110.09375 39.558594 109.765625 C 39.894531 109.441406 40.277344 109.1875 40.710938 109.011719 C 41.140625 108.835938 41.59375 108.746094 42.0625 108.746094 C 42.46875 108.746094 42.839844 108.832031 43.171875 109.003906 C 43.503906 109.175781 43.742188 109.351562 43.882812 109.53125 L 43.882812 106.5 C 43.882812 106.375 43.875 106.25 43.863281 106.132812 C 43.851562 106.011719 43.804688 105.921875 43.71875 105.859375 C 43.632812 105.800781 43.496094 105.765625 43.3125 105.757812 C 43.125 105.746094 42.921875 105.742188 42.703125 105.742188 L 42.703125 105.152344 L 45.070312 104.976562 L 45.070312 114.132812 C 45.070312 114.257812 45.078125 114.382812 45.089844 114.5 C 45.101562 114.613281 45.152344 114.703125 45.242188 114.761719 C 45.328125 114.820312 45.464844 114.855469 45.648438 114.867188 C 45.835938 114.878906 46.042969 114.882812 46.265625 114.882812 L 46.265625 115.480469 Z M 43.851562 110.355469 C 43.6875 110.03125 43.453125 109.761719 43.144531 109.550781 C 42.839844 109.339844 42.488281 109.234375 42.09375 109.234375 C 41.777344 109.234375 41.480469 109.308594 41.207031 109.457031 C 40.929688 109.605469 40.691406 109.808594 40.492188 110.070312 C 40.269531 110.367188 40.128906 110.699219 40.066406 111.066406 C 40.003906 111.433594 39.972656 111.816406 39.972656 112.207031 C 39.972656 112.601562 40 112.980469 40.054688 113.339844 C 40.109375 113.699219 40.242188 114.035156 40.445312 114.351562 C 40.617188 114.601562 40.832031 114.800781 41.097656 114.949219 C 41.359375 115.101562 41.636719 115.175781 41.925781 115.175781 C 42.363281 115.175781 42.75 115.054688 43.085938 114.816406 C 43.421875 114.574219 43.675781 114.265625 43.851562 113.890625 Z M 43.851562 110.355469 "/>
<path style=" stroke:none;fill-rule:evenodd;fill:rgb(0%,0%,0%);fill-opacity:1;" d="M 53.164062 109.984375 C 53.109375 110.199219 53 110.359375 52.832031 110.46875 C 52.664062 110.578125 52.492188 110.632812 52.324219 110.632812 C 52.148438 110.632812 52.003906 110.578125 51.886719 110.464844 C 51.792969 110.386719 51.746094 110.28125 51.746094 110.144531 C 51.746094 110.078125 51.753906 110.007812 51.773438 109.941406 C 51.820312 109.769531 51.898438 109.636719 52.011719 109.539062 C 52.125 109.441406 52.199219 109.390625 52.242188 109.378906 C 52.125 109.292969 51.886719 109.25 51.527344 109.246094 C 51.144531 109.25 50.804688 109.402344 50.507812 109.710938 C 50.210938 110.019531 49.941406 110.4375 49.699219 110.960938 L 48.609375 115.132812 C 48.5625 115.3125 48.472656 115.445312 48.335938 115.535156 C 48.195312 115.625 48.058594 115.671875 47.917969 115.671875 C 47.765625 115.671875 47.652344 115.625 47.570312 115.527344 C 47.507812 115.460938 47.472656 115.375 47.472656 115.261719 C 47.472656 115.21875 47.476562 115.167969 47.488281 115.101562 L 48.644531 110.589844 C 48.726562 110.273438 48.765625 110 48.765625 109.773438 L 48.765625 109.597656 C 48.742188 109.363281 48.625 109.25 48.414062 109.246094 C 48.191406 109.25 48.007812 109.425781 47.859375 109.78125 C 47.710938 110.136719 47.570312 110.597656 47.429688 111.164062 C 47.371094 111.296875 47.28125 111.363281 47.148438 111.371094 L 46.976562 111.371094 C 46.855469 111.371094 46.796875 111.308594 46.796875 111.1875 L 46.796875 111.136719 C 46.855469 110.910156 46.925781 110.660156 47 110.390625 C 47.074219 110.121094 47.175781 109.863281 47.300781 109.625 C 47.425781 109.382812 47.582031 109.179688 47.773438 109.011719 C 47.964844 108.84375 48.203125 108.761719 48.488281 108.757812 C 48.871094 108.761719 49.175781 108.867188 49.410156 109.085938 C 49.644531 109.300781 49.773438 109.511719 49.804688 109.722656 C 49.980469 109.488281 50.222656 109.269531 50.539062 109.066406 C 50.851562 108.863281 51.210938 108.761719 51.617188 108.757812 C 51.816406 108.761719 52.019531 108.78125 52.230469 108.820312 C 52.4375 108.863281 52.621094 108.929688 52.777344 109.027344 C 52.9375 109.121094 53.054688 109.246094 53.128906 109.402344 C 53.171875 109.5 53.199219 109.609375 53.203125 109.730469 C 53.203125 109.800781 53.191406 109.886719 53.164062 109.984375 Z M 53.164062 109.984375 "/>
<path style="fill:none;stroke-width:15;stroke-linecap:round;stroke-linejoin:round;stroke:rgb(0%,0%,0%);stroke-opacity:1;stroke-miterlimit:10;" d="M 590.977589 1590.914687 L 3064.65653 885.474894 " transform="matrix(0.0929868,0,0,-0.092861,0,259.4487)"/>
<path style=" stroke:none;fill-rule:evenodd;fill:rgb(0%,0%,0%);fill-opacity:1;" d="M 288.320312 177.222656 C 288.320312 179.066406 286.820312 180.566406 284.972656 180.566406 C 283.125 180.566406 281.625 179.066406 281.625 177.222656 C 281.625 175.375 283.125 173.878906 284.972656 173.878906 C 286.820312 173.878906 288.320312 175.375 288.320312 177.222656 Z M 288.320312 177.222656 "/>
<path style=" stroke:none;fill-rule:evenodd;fill:rgb(0%,0%,0%);fill-opacity:1;" d="M 279.84375 187.105469 C 279.734375 187.5 279.546875 187.863281 279.28125 188.195312 C 279.015625 188.53125 278.699219 188.816406 278.332031 189.058594 C 277.9375 189.332031 277.515625 189.539062 277.066406 189.675781 C 276.617188 189.816406 276.171875 189.882812 275.730469 189.882812 L 273.496094 189.882812 L 272.558594 193.53125 C 272.527344 193.636719 272.511719 193.722656 272.511719 193.785156 C 272.511719 193.84375 272.527344 193.878906 272.550781 193.894531 C 272.621094 193.9375 272.757812 193.964844 272.964844 193.972656 C 273.167969 193.976562 273.390625 193.980469 273.625 193.980469 C 273.765625 193.980469 273.835938 194.050781 273.835938 194.1875 L 273.835938 194.238281 L 273.804688 194.367188 C 273.75 194.515625 273.652344 194.585938 273.511719 194.585938 C 272.886719 194.558594 272.257812 194.542969 271.625 194.542969 C 270.988281 194.542969 270.351562 194.558594 269.714844 194.585938 C 269.582031 194.585938 269.507812 194.523438 269.496094 194.398438 L 269.496094 194.339844 L 269.527344 194.214844 C 269.566406 194.054688 269.664062 193.976562 269.820312 193.980469 C 270.054688 193.980469 270.28125 193.976562 270.488281 193.972656 C 270.699219 193.964844 270.855469 193.9375 270.957031 193.894531 C 271.050781 193.839844 271.125 193.710938 271.175781 193.5 L 273.289062 185.285156 C 273.316406 185.175781 273.332031 185.09375 273.332031 185.035156 C 273.332031 184.976562 273.320312 184.945312 273.292969 184.933594 C 273.226562 184.890625 273.089844 184.863281 272.886719 184.855469 C 272.683594 184.84375 272.460938 184.839844 272.21875 184.839844 C 272.078125 184.839844 272.007812 184.773438 272.007812 184.640625 L 272.007812 184.582031 L 272.054688 184.460938 C 272.085938 184.3125 272.175781 184.242188 272.332031 184.242188 L 277.152344 184.242188 C 277.59375 184.242188 278.003906 184.308594 278.382812 184.449219 C 278.761719 184.585938 279.085938 184.796875 279.355469 185.070312 C 279.601562 185.328125 279.773438 185.636719 279.875 185.992188 C 279.90625 186.15625 279.921875 186.324219 279.921875 186.492188 C 279.921875 186.6875 279.894531 186.894531 279.84375 187.105469 Z M 278.242188 187.070312 C 278.328125 186.765625 278.386719 186.46875 278.414062 186.179688 L 278.414062 186.050781 C 278.414062 185.824219 278.351562 185.621094 278.226562 185.4375 C 278.0625 185.21875 277.84375 185.0625 277.566406 184.972656 C 277.289062 184.882812 276.992188 184.839844 276.671875 184.839844 L 275.257812 184.839844 C 275 184.839844 274.847656 184.859375 274.800781 184.898438 C 274.75 184.9375 274.695312 185.074219 274.640625 185.3125 L 273.59375 189.335938 L 275.476562 189.335938 C 275.800781 189.335938 276.128906 189.292969 276.453125 189.199219 C 276.777344 189.105469 277.085938 188.949219 277.371094 188.726562 C 277.625 188.507812 277.816406 188.25 277.9375 187.960938 C 278.0625 187.667969 278.164062 187.371094 278.242188 187.070312 Z M 278.242188 187.070312 "/>
<path style=" stroke:none;fill-rule:evenodd;fill:rgb(0%,0%,0%);fill-opacity:1;" d="M 350.953125 196.714844 C 350.898438 196.933594 350.785156 197.097656 350.621094 197.207031 C 350.453125 197.316406 350.28125 197.371094 350.113281 197.371094 C 349.9375 197.371094 349.789062 197.316406 349.675781 197.203125 C 349.589844 197.121094 349.546875 197.015625 349.539062 196.882812 C 349.539062 196.832031 349.550781 196.761719 349.570312 196.679688 C 349.625 196.496094 349.710938 196.355469 349.824219 196.261719 C 349.941406 196.164062 350.019531 196.109375 350.066406 196.097656 C 349.972656 196.023438 349.777344 195.988281 349.480469 195.988281 C 349.21875 195.988281 348.984375 196.121094 348.78125 196.390625 C 348.574219 196.660156 348.421875 196.984375 348.320312 197.363281 L 347.628906 200.035156 C 347.558594 200.300781 347.507812 200.554688 347.472656 200.796875 C 347.453125 200.882812 347.441406 200.953125 347.441406 201.015625 C 347.441406 201.167969 347.46875 201.3125 347.515625 201.449219 C 347.566406 201.59375 347.644531 201.710938 347.742188 201.796875 C 347.84375 201.886719 347.972656 201.929688 348.125 201.929688 C 348.328125 201.929688 348.519531 201.878906 348.707031 201.773438 C 348.890625 201.667969 349.0625 201.527344 349.21875 201.351562 C 349.371094 201.171875 349.511719 200.964844 349.628906 200.730469 C 349.75 200.496094 349.847656 200.253906 349.917969 200.003906 C 349.945312 199.878906 350.03125 199.816406 350.171875 199.8125 L 350.34375 199.8125 C 350.476562 199.816406 350.539062 199.863281 350.539062 199.960938 C 350.539062 199.988281 350.53125 200.015625 350.519531 200.039062 C 350.449219 200.332031 350.332031 200.621094 350.175781 200.90625 C 350.019531 201.1875 349.832031 201.441406 349.621094 201.660156 C 349.414062 201.878906 349.171875 202.058594 348.90625 202.199219 C 348.636719 202.339844 348.347656 202.410156 348.042969 202.410156 C 347.734375 202.410156 347.464844 202.34375 347.238281 202.210938 C 347.015625 202.078125 346.832031 201.902344 346.691406 201.6875 C 346.644531 201.636719 346.609375 201.582031 346.585938 201.523438 C 346.558594 201.46875 346.550781 201.460938 346.5625 201.5 C 346.441406 201.699219 346.253906 201.898438 345.992188 202.105469 C 345.730469 202.308594 345.429688 202.410156 345.089844 202.410156 C 344.898438 202.410156 344.710938 202.386719 344.523438 202.335938 C 344.339844 202.289062 344.175781 202.214844 344.039062 202.113281 C 343.902344 202.007812 343.796875 201.886719 343.726562 201.738281 C 343.691406 201.652344 343.675781 201.558594 343.675781 201.453125 C 343.675781 201.382812 343.683594 201.296875 343.707031 201.199219 C 343.761719 200.980469 343.875 200.816406 344.042969 200.707031 C 344.214844 200.597656 344.382812 200.542969 344.554688 200.542969 C 344.730469 200.542969 344.882812 200.601562 345.007812 200.710938 C 345.089844 200.792969 345.132812 200.902344 345.132812 201.03125 C 345.132812 201.101562 345.125 201.167969 345.105469 201.234375 C 345.058594 201.40625 344.976562 201.542969 344.859375 201.648438 C 344.742188 201.753906 344.65625 201.808594 344.605469 201.820312 C 344.703125 201.898438 344.894531 201.933594 345.1875 201.929688 C 345.445312 201.929688 345.683594 201.792969 345.894531 201.519531 C 346.105469 201.25 346.257812 200.921875 346.351562 200.542969 L 347.050781 197.859375 C 347.121094 197.609375 347.175781 197.359375 347.214844 197.117188 C 347.226562 197.039062 347.230469 196.964844 347.230469 196.898438 C 347.230469 196.746094 347.210938 196.605469 347.164062 196.476562 C 347.113281 196.328125 347.035156 196.210938 346.929688 196.121094 C 346.824219 196.03125 346.695312 195.988281 346.539062 195.988281 C 346.339844 195.988281 346.144531 196.039062 345.957031 196.144531 C 345.769531 196.25 345.597656 196.386719 345.441406 196.5625 C 345.289062 196.738281 345.148438 196.941406 345.027344 197.171875 C 344.910156 197.402344 344.820312 197.648438 344.765625 197.902344 C 344.710938 198.035156 344.617188 198.105469 344.488281 198.109375 L 344.320312 198.109375 C 344.203125 198.109375 344.140625 198.046875 344.140625 197.925781 L 344.140625 197.875 C 344.214844 197.574219 344.332031 197.28125 344.488281 196.996094 C 344.640625 196.710938 344.828125 196.460938 345.042969 196.242188 C 345.257812 196.023438 345.5 195.84375 345.765625 195.707031 C 346.03125 195.566406 346.320312 195.5 346.628906 195.496094 C 346.929688 195.5 347.195312 195.5625 347.425781 195.695312 C 347.65625 195.828125 347.847656 196 347.992188 196.21875 C 348.019531 196.273438 348.050781 196.332031 348.074219 196.390625 C 348.097656 196.453125 348.105469 196.46875 348.097656 196.4375 C 348.222656 196.226562 348.414062 196.015625 348.675781 195.808594 C 348.9375 195.601562 349.234375 195.5 349.570312 195.496094 C 349.761719 195.5 349.949219 195.523438 350.136719 195.566406 C 350.324219 195.613281 350.488281 195.6875 350.625 195.789062 C 350.765625 195.890625 350.867188 196.019531 350.929688 196.167969 C 350.964844 196.257812 350.984375 196.355469 350.984375 196.46875 C 350.984375 196.542969 350.972656 196.625 350.953125 196.714844 Z M 350.953125 196.714844 "/>
<path style=" stroke:none;fill-rule:evenodd;fill:rgb(0%,0%,0%);fill-opacity:1;" d="M 179.710938 138.046875 C 179.652344 138.285156 179.582031 138.542969 179.507812 138.8125 C 179.433594 139.085938 179.332031 139.339844 179.207031 139.570312 C 179.082031 139.804688 178.925781 140.007812 178.734375 140.175781 C 178.542969 140.347656 178.304688 140.433594 178.019531 140.433594 C 177.636719 140.433594 177.332031 140.328125 177.105469 140.113281 C 176.875 139.902344 176.746094 139.6875 176.710938 139.46875 C 176.539062 139.664062 176.285156 139.875 175.945312 140.097656 C 175.609375 140.320312 175.25 140.433594 174.875 140.433594 C 174.480469 140.433594 174.148438 140.332031 173.878906 140.132812 C 173.609375 139.933594 173.402344 139.683594 173.25 139.382812 C 173.070312 139.023438 172.976562 138.636719 172.964844 138.222656 L 172.964844 138.113281 C 172.964844 137.730469 173.019531 137.347656 173.125 136.960938 C 173.242188 136.539062 173.410156 136.121094 173.625 135.707031 C 173.84375 135.292969 174.128906 134.910156 174.484375 134.554688 C 174.777344 134.265625 175.109375 134.019531 175.480469 133.820312 C 175.855469 133.621094 176.234375 133.519531 176.621094 133.519531 C 176.957031 133.519531 177.230469 133.609375 177.4375 133.785156 C 177.648438 133.964844 177.78125 134.109375 177.839844 134.226562 L 177.808594 134.351562 C 177.84375 134.171875 177.925781 134.035156 178.058594 133.941406 C 178.191406 133.851562 178.328125 133.804688 178.460938 133.804688 C 178.617188 133.804688 178.75 133.851562 178.855469 133.941406 C 178.917969 134.015625 178.953125 134.113281 178.957031 134.234375 C 178.957031 134.277344 178.953125 134.328125 178.945312 134.378906 L 177.859375 138.59375 C 177.808594 138.792969 177.773438 138.980469 177.753906 139.15625 C 177.746094 139.242188 177.742188 139.324219 177.742188 139.398438 C 177.742188 139.460938 177.746094 139.527344 177.753906 139.601562 C 177.769531 139.71875 177.804688 139.804688 177.859375 139.863281 C 177.914062 139.921875 177.992188 139.949219 178.09375 139.949219 C 178.199219 139.949219 178.296875 139.90625 178.390625 139.820312 C 178.484375 139.730469 178.570312 139.601562 178.648438 139.429688 C 178.722656 139.257812 178.796875 139.050781 178.867188 138.808594 C 178.9375 138.570312 179.011719 138.308594 179.085938 138.027344 C 179.117188 137.898438 179.203125 137.835938 179.34375 137.835938 L 179.515625 137.835938 C 179.644531 137.835938 179.710938 137.890625 179.710938 137.996094 Z M 177.558594 135.363281 C 177.539062 135.277344 177.523438 135.1875 177.507812 135.089844 C 177.492188 134.996094 177.46875 134.902344 177.4375 134.808594 C 177.359375 134.582031 177.246094 134.390625 177.097656 134.238281 C 176.949219 134.085938 176.761719 134.007812 176.539062 134.007812 C 176.328125 134.007812 176.117188 134.085938 175.914062 134.234375 C 175.707031 134.386719 175.519531 134.578125 175.347656 134.816406 C 175.109375 135.152344 174.929688 135.503906 174.808594 135.863281 C 174.6875 136.226562 174.578125 136.605469 174.476562 136.996094 C 174.375 137.386719 174.292969 137.765625 174.226562 138.128906 C 174.1875 138.3125 174.167969 138.488281 174.167969 138.652344 C 174.167969 138.828125 174.1875 139 174.226562 139.164062 C 174.273438 139.390625 174.355469 139.582031 174.472656 139.730469 C 174.589844 139.878906 174.753906 139.949219 174.964844 139.949219 C 175.195312 139.949219 175.429688 139.871094 175.660156 139.710938 C 175.894531 139.550781 176.109375 139.351562 176.3125 139.121094 C 176.390625 139.023438 176.46875 138.929688 176.539062 138.839844 C 176.613281 138.75 176.679688 138.652344 176.734375 138.550781 Z M 177.558594 135.363281 "/>
<path style=" stroke:none;fill-rule:evenodd;fill:rgb(0%,0%,0%);fill-opacity:1;" d="M 90.613281 144.46875 C 90.613281 146.3125 89.117188 147.8125 87.265625 147.8125 C 85.417969 147.8125 83.917969 146.3125 83.917969 144.46875 C 83.917969 142.621094 85.417969 141.125 87.265625 141.125 C 89.117188 141.125 90.613281 142.621094 90.613281 144.46875 Z M 90.613281 144.46875 "/>
<path style=" stroke:none;fill-rule:evenodd;fill:rgb(0%,0%,0%);fill-opacity:1;" d="M 82.074219 154.503906 C 81.894531 155.210938 81.601562 155.890625 81.199219 156.546875 C 80.792969 157.203125 80.285156 157.804688 79.675781 158.347656 C 79.125 158.839844 78.519531 159.230469 77.867188 159.519531 C 77.210938 159.808594 76.558594 159.953125 75.902344 159.953125 C 75.238281 159.953125 74.652344 159.804688 74.136719 159.515625 C 73.621094 159.222656 73.214844 158.828125 72.90625 158.332031 C 72.570312 157.785156 72.378906 157.175781 72.328125 156.511719 C 72.308594 156.351562 72.296875 156.191406 72.296875 156.03125 C 72.296875 155.527344 72.363281 155.011719 72.492188 154.476562 C 72.683594 153.761719 72.980469 153.070312 73.378906 152.394531 C 73.777344 151.722656 74.285156 151.113281 74.90625 150.566406 C 75.460938 150.078125 76.0625 149.683594 76.714844 149.382812 C 77.371094 149.085938 78.03125 148.933594 78.699219 148.933594 C 79.359375 148.933594 79.945312 149.085938 80.453125 149.386719 C 80.960938 149.6875 81.371094 150.085938 81.675781 150.582031 C 82.011719 151.132812 82.210938 151.746094 82.269531 152.421875 C 82.28125 152.585938 82.285156 152.75 82.285156 152.910156 C 82.285156 153.429688 82.214844 153.960938 82.074219 154.503906 Z M 80.554688 150.832031 C 80.390625 150.421875 80.140625 150.089844 79.808594 149.835938 C 79.480469 149.582031 79.074219 149.453125 78.59375 149.453125 C 78.117188 149.453125 77.640625 149.582031 77.171875 149.84375 C 76.699219 150.101562 76.277344 150.441406 75.90625 150.851562 C 75.441406 151.355469 75.074219 151.898438 74.800781 152.484375 C 74.53125 153.070312 74.320312 153.664062 74.171875 154.265625 C 73.996094 154.921875 73.886719 155.5625 73.847656 156.183594 C 73.835938 156.300781 73.832031 156.417969 73.832031 156.53125 C 73.832031 157.019531 73.914062 157.496094 74.074219 157.960938 C 74.230469 158.375 74.464844 158.722656 74.789062 159 C 75.109375 159.28125 75.507812 159.421875 75.992188 159.417969 C 76.488281 159.421875 76.972656 159.277344 77.445312 158.992188 C 77.917969 158.710938 78.34375 158.359375 78.71875 157.941406 C 79.207031 157.375 79.585938 156.78125 79.855469 156.152344 C 80.125 155.527344 80.347656 154.886719 80.515625 154.234375 C 80.671875 153.628906 80.769531 153.03125 80.8125 152.441406 L 80.8125 152.1875 C 80.8125 151.699219 80.726562 151.25 80.554688 150.832031 Z M 80.554688 150.832031 "/>
<path style=" stroke:none;fill-rule:nonzero;fill:rgb(0%,0%,0%);fill-opacity:1;" d="M 86.667969 144.46875 L 86.578125 31.160156 L 87.972656 31.15625 L 88.0625 144.46875 C 88.0625 144.851562 87.75 145.164062 87.363281 145.164062 C 86.980469 145.164062 86.667969 144.855469 86.667969 144.46875 Z M 87.265625 20.023438 L 83.09375 33.957031 L 86.578125 31.167969 L 87.972656 31.167969 L 91.460938 33.953125 Z M 87.265625 20.023438 "/>
<path style=" stroke:none;fill-rule:evenodd;fill:rgb(0%,0%,0%);fill-opacity:1;" d="M 99.328125 28.847656 C 99.222656 29.253906 99.058594 29.644531 98.832031 30.015625 C 98.609375 30.386719 98.34375 30.71875 98.035156 31.007812 C 97.730469 31.296875 97.386719 31.53125 97.007812 31.710938 C 96.625 31.890625 96.230469 31.980469 95.816406 31.980469 C 95.570312 31.980469 95.347656 31.9375 95.140625 31.847656 C 94.933594 31.757812 94.765625 31.636719 94.636719 31.480469 C 94.507812 31.328125 94.417969 31.148438 94.375 30.9375 C 94.355469 30.847656 94.34375 30.75 94.34375 30.65625 C 94.34375 30.527344 94.359375 30.398438 94.386719 30.269531 C 94.445312 30.050781 94.554688 29.886719 94.726562 29.777344 C 94.898438 29.667969 95.066406 29.613281 95.230469 29.613281 C 95.40625 29.613281 95.554688 29.667969 95.675781 29.78125 C 95.761719 29.863281 95.800781 29.96875 95.800781 30.101562 C 95.800781 30.152344 95.792969 30.21875 95.773438 30.296875 C 95.71875 30.515625 95.605469 30.679688 95.433594 30.789062 C 95.261719 30.898438 95.128906 30.953125 95.027344 30.953125 C 95.058594 31.085938 95.152344 31.207031 95.308594 31.320312 C 95.46875 31.4375 95.667969 31.492188 95.914062 31.492188 C 96.1875 31.492188 96.441406 31.417969 96.675781 31.273438 C 96.910156 31.128906 97.125 30.933594 97.320312 30.6875 C 97.515625 30.441406 97.6875 30.15625 97.835938 29.832031 C 97.984375 29.511719 98.105469 29.171875 98.195312 28.816406 L 98.238281 28.640625 C 98.164062 28.710938 98.007812 28.800781 97.765625 28.90625 C 97.523438 29.015625 97.261719 29.070312 96.976562 29.070312 C 96.636719 29.070312 96.332031 29.007812 96.0625 28.882812 C 95.792969 28.757812 95.582031 28.5625 95.425781 28.300781 C 95.277344 28.019531 95.203125 27.707031 95.207031 27.367188 L 95.207031 27.308594 C 95.21875 26.953125 95.261719 26.601562 95.34375 26.25 C 95.425781 25.914062 95.542969 25.546875 95.695312 25.144531 C 95.847656 24.738281 95.992188 24.347656 96.132812 23.96875 C 96.285156 23.566406 96.359375 23.234375 96.359375 22.976562 C 96.359375 22.757812 96.265625 22.648438 96.082031 22.648438 C 95.910156 22.648438 95.757812 22.699219 95.617188 22.792969 C 95.480469 22.890625 95.355469 23.027344 95.242188 23.199219 C 95.128906 23.371094 95.027344 23.578125 94.9375 23.8125 C 94.847656 24.046875 94.773438 24.300781 94.710938 24.566406 C 94.65625 24.699219 94.5625 24.765625 94.433594 24.769531 L 94.261719 24.769531 C 94.140625 24.769531 94.082031 24.710938 94.082031 24.589844 L 94.082031 24.535156 C 94.152344 24.269531 94.242188 23.996094 94.359375 23.71875 C 94.472656 23.4375 94.621094 23.183594 94.792969 22.957031 C 94.96875 22.726562 95.171875 22.539062 95.398438 22.386719 C 95.621094 22.234375 95.878906 22.160156 96.171875 22.160156 C 96.421875 22.160156 96.636719 22.214844 96.8125 22.320312 C 96.992188 22.429688 97.128906 22.570312 97.21875 22.746094 C 97.3125 22.925781 97.363281 23.125 97.375 23.347656 L 97.375 23.398438 C 97.375 23.609375 97.332031 23.824219 97.246094 24.046875 C 97.101562 24.429688 96.957031 24.816406 96.8125 25.210938 C 96.671875 25.609375 96.558594 25.964844 96.480469 26.28125 C 96.398438 26.597656 96.34375 26.910156 96.3125 27.21875 C 96.292969 27.304688 96.28125 27.394531 96.277344 27.488281 C 96.277344 27.679688 96.308594 27.867188 96.375 28.050781 C 96.417969 28.21875 96.503906 28.347656 96.621094 28.445312 C 96.742188 28.542969 96.886719 28.589844 97.050781 28.589844 C 97.371094 28.589844 97.652344 28.496094 97.894531 28.308594 C 98.132812 28.117188 98.34375 27.871094 98.523438 27.5625 L 99.734375 22.859375 C 99.78125 22.679688 99.871094 22.546875 100.011719 22.464844 C 100.148438 22.378906 100.289062 22.335938 100.425781 22.335938 C 100.574219 22.335938 100.691406 22.378906 100.789062 22.464844 C 100.855469 22.53125 100.886719 22.613281 100.886719 22.722656 C 100.886719 22.773438 100.882812 22.832031 100.871094 22.890625 Z M 99.328125 28.847656 "/>
<path style="fill:none;stroke-width:15;stroke-linecap:round;stroke-linejoin:round;stroke:rgb(0%,0%,0%);stroke-opacity:1;stroke-miterlimit:10;" d="M 938.473084 1238.194791 L 522.671536 387.839071 " transform="matrix(0.0929868,0,0,-0.092861,0,259.4487)"/>
<path style=" stroke:none;fill-rule:evenodd;fill:rgb(0%,0%,0%);fill-opacity:1;" d="M 47.65625 242.398438 C 47.601562 242.617188 47.519531 242.832031 47.40625 243.042969 C 47.296875 243.253906 47.164062 243.445312 47.003906 243.613281 C 46.839844 243.785156 46.664062 243.925781 46.464844 244.035156 C 46.265625 244.144531 46.050781 244.199219 45.820312 244.199219 C 45.09375 244.199219 44.546875 244.003906 44.179688 243.621094 C 43.929688 243.359375 43.804688 243.027344 43.804688 242.628906 C 43.804688 242.425781 43.839844 242.207031 43.902344 241.964844 L 44.242188 240.660156 C 44.28125 240.496094 44.300781 240.339844 44.300781 240.195312 C 44.300781 240.121094 44.296875 240.046875 44.285156 239.96875 C 44.257812 239.765625 44.1875 239.585938 44.078125 239.429688 C 43.964844 239.273438 43.824219 239.152344 43.652344 239.0625 C 43.480469 238.972656 43.273438 238.925781 43.039062 238.925781 L 41.339844 238.925781 L 40.339844 242.8125 C 40.320312 242.90625 40.308594 242.980469 40.308594 243.039062 C 40.308594 243.113281 40.324219 243.160156 40.355469 243.183594 C 40.417969 243.222656 40.554688 243.246094 40.761719 243.253906 C 40.964844 243.261719 41.1875 243.265625 41.421875 243.265625 C 41.5625 243.265625 41.632812 243.324219 41.632812 243.4375 C 41.632812 243.46875 41.628906 243.5 41.617188 243.535156 L 41.585938 243.652344 C 41.53125 243.796875 41.433594 243.871094 41.292969 243.871094 C 40.675781 243.839844 40.054688 243.824219 39.429688 243.824219 C 38.800781 243.824219 38.171875 243.839844 37.542969 243.871094 C 37.40625 243.871094 37.335938 243.808594 37.324219 243.679688 L 37.324219 243.621094 L 37.355469 243.496094 C 37.394531 243.335938 37.492188 243.261719 37.648438 243.265625 C 37.882812 243.265625 38.105469 243.261719 38.316406 243.253906 C 38.527344 243.246094 38.683594 243.222656 38.78125 243.175781 C 38.878906 243.125 38.949219 242.992188 39 242.78125 L 41.113281 234.566406 C 41.144531 234.460938 41.160156 234.375 41.160156 234.316406 C 41.160156 234.261719 41.144531 234.226562 41.121094 234.214844 C 41.050781 234.171875 40.914062 234.144531 40.710938 234.136719 C 40.507812 234.125 40.285156 234.121094 40.046875 234.121094 C 39.90625 234.121094 39.835938 234.054688 39.835938 233.925781 L 39.835938 233.867188 L 39.878906 233.742188 C 39.910156 233.597656 40.003906 233.523438 40.160156 233.523438 L 44.390625 233.523438 C 44.867188 233.523438 45.324219 233.585938 45.753906 233.714844 C 46.183594 233.839844 46.5625 234.050781 46.882812 234.339844 C 47.148438 234.574219 47.339844 234.859375 47.460938 235.199219 C 47.535156 235.386719 47.574219 235.578125 47.582031 235.777344 C 47.582031 235.957031 47.554688 236.132812 47.5 236.308594 C 47.402344 236.699219 47.207031 237.050781 46.902344 237.367188 C 46.601562 237.683594 46.265625 237.953125 45.886719 238.175781 C 45.628906 238.328125 45.363281 238.453125 45.09375 238.550781 C 44.828125 238.652344 44.636719 238.714844 44.519531 238.738281 C 44.804688 238.847656 45.078125 239.066406 45.332031 239.394531 C 45.546875 239.675781 45.65625 240.011719 45.65625 240.40625 C 45.65625 240.488281 45.652344 240.570312 45.640625 240.652344 L 45.496094 241.964844 C 45.457031 242.308594 45.4375 242.605469 45.4375 242.855469 C 45.4375 243.023438 45.449219 243.167969 45.46875 243.292969 C 45.503906 243.582031 45.652344 243.722656 45.917969 243.722656 C 46.160156 243.722656 46.378906 243.59375 46.582031 243.335938 C 46.78125 243.074219 46.929688 242.753906 47.023438 242.367188 C 47.078125 242.222656 47.175781 242.152344 47.316406 242.15625 L 47.4375 242.15625 C 47.574219 242.15625 47.644531 242.21875 47.65625 242.347656 Z M 45.886719 236.265625 C 45.96875 235.972656 46.015625 235.683594 46.023438 235.390625 L 46.023438 235.347656 C 46.023438 235.097656 45.945312 234.886719 45.789062 234.703125 C 45.605469 234.492188 45.363281 234.339844 45.066406 234.253906 C 44.765625 234.164062 44.441406 234.121094 44.082031 234.121094 L 43.082031 234.121094 C 42.828125 234.121094 42.675781 234.140625 42.625 234.179688 C 42.574219 234.21875 42.523438 234.359375 42.46875 234.59375 L 41.476562 238.453125 L 42.925781 238.453125 C 43.28125 238.453125 43.632812 238.410156 43.980469 238.320312 C 44.324219 238.234375 44.652344 238.078125 44.964844 237.855469 C 45.230469 237.664062 45.429688 237.425781 45.566406 237.140625 C 45.699219 236.855469 45.808594 236.5625 45.886719 236.265625 Z M 45.886719 236.265625 "/>
<path style=" stroke:none;fill-rule:evenodd;fill:rgb(0%,0%,0%);fill-opacity:1;" d="M 121.417969 207.933594 C 121.601562 207.941406 121.726562 208 121.792969 208.109375 C 121.828125 208.179688 121.847656 208.25 121.851562 208.320312 C 121.851562 208.371094 121.84375 208.417969 121.828125 208.46875 C 121.796875 208.589844 121.722656 208.699219 121.613281 208.800781 C 121.5 208.898438 121.367188 208.949219 121.207031 208.949219 L 119.484375 208.949219 C 119.683594 209.230469 119.808594 209.597656 119.859375 210.050781 C 119.871094 210.195312 119.875 210.332031 119.875 210.457031 C 119.875 210.785156 119.835938 211.117188 119.753906 211.457031 C 119.632812 211.882812 119.453125 212.292969 119.210938 212.679688 C 118.964844 213.070312 118.664062 213.425781 118.304688 213.746094 C 117.941406 214.039062 117.554688 214.265625 117.140625 214.433594 C 116.726562 214.601562 116.3125 214.6875 115.890625 214.6875 C 115.480469 214.6875 115.105469 214.601562 114.769531 214.429688 C 114.433594 214.261719 114.164062 214.027344 113.964844 213.722656 C 113.75 213.410156 113.621094 213.046875 113.582031 212.644531 C 113.5625 212.535156 113.550781 212.421875 113.550781 212.308594 C 113.550781 212.027344 113.589844 211.734375 113.671875 211.425781 C 113.792969 210.980469 113.976562 210.546875 114.222656 210.128906 C 114.472656 209.710938 114.789062 209.328125 115.175781 208.976562 C 115.519531 208.675781 115.90625 208.425781 116.324219 208.230469 C 116.746094 208.035156 117.171875 207.933594 117.597656 207.933594 Z M 118.589844 211.425781 C 118.679688 211.082031 118.734375 210.75 118.753906 210.429688 L 118.753906 210.324219 C 118.753906 210.050781 118.695312 209.800781 118.582031 209.582031 C 118.476562 209.375 118.316406 209.214844 118.105469 209.109375 C 117.890625 209.003906 117.648438 208.949219 117.371094 208.949219 C 117.09375 208.949219 116.820312 209.003906 116.546875 209.113281 C 116.273438 209.222656 116.027344 209.382812 115.804688 209.597656 C 115.546875 209.851562 115.339844 210.136719 115.195312 210.460938 C 115.046875 210.785156 114.929688 211.117188 114.84375 211.457031 C 114.753906 211.828125 114.695312 212.183594 114.671875 212.527344 C 114.660156 212.585938 114.65625 212.636719 114.65625 212.679688 C 114.65625 212.957031 114.710938 213.214844 114.820312 213.445312 C 114.933594 213.671875 115.085938 213.851562 115.28125 213.992188 C 115.476562 214.136719 115.710938 214.207031 115.980469 214.207031 C 116.261719 214.207031 116.539062 214.132812 116.816406 213.992188 C 117.089844 213.847656 117.347656 213.660156 117.582031 213.425781 C 117.851562 213.144531 118.066406 212.832031 118.21875 212.488281 C 118.375 212.144531 118.5 211.792969 118.589844 211.425781 Z M 118.589844 211.425781 "/>
<path style=" stroke:none;fill-rule:nonzero;fill:rgb(0%,0%,94.099426%);fill-opacity:1;" d="M 285.136719 176.191406 L 324.46875 182.390625 L 324.144531 184.453125 L 284.808594 178.253906 C 284.238281 178.164062 283.851562 177.628906 283.941406 177.058594 C 284.03125 176.488281 284.566406 176.101562 285.136719 176.191406 Z M 334.21875 184.984375 L 322.46875 178.902344 L 324.460938 182.390625 L 324.132812 184.453125 L 321.164062 187.15625 Z M 334.21875 184.984375 "/>
<path style=" stroke:none;fill-rule:evenodd;fill:rgb(0%,0%,0%);fill-opacity:1;" d="M 321.351562 176.875 L 321.351562 176.007812 C 321.191406 176.207031 320.933594 176.402344 320.582031 176.585938 C 320.226562 176.773438 319.832031 176.867188 319.398438 176.867188 C 318.9375 176.867188 318.5 176.777344 318.089844 176.597656 C 317.679688 176.417969 317.320312 176.171875 317.019531 175.855469 C 316.695312 175.515625 316.449219 175.136719 316.28125 174.726562 C 316.113281 174.3125 316.027344 173.875 316.027344 173.417969 C 316.027344 172.960938 316.117188 172.523438 316.292969 172.101562 C 316.46875 171.675781 316.722656 171.304688 317.058594 170.976562 C 317.394531 170.652344 317.777344 170.398438 318.207031 170.222656 C 318.640625 170.046875 319.089844 169.957031 319.5625 169.957031 C 319.96875 169.957031 320.339844 170.042969 320.671875 170.214844 C 321.003906 170.386719 321.242188 170.5625 321.382812 170.742188 L 321.382812 167.710938 C 321.382812 167.585938 321.375 167.460938 321.363281 167.34375 C 321.351562 167.222656 321.300781 167.132812 321.214844 167.070312 C 321.132812 167.011719 320.996094 166.976562 320.808594 166.96875 C 320.625 166.957031 320.421875 166.953125 320.203125 166.953125 L 320.203125 166.363281 L 322.570312 166.1875 L 322.570312 175.34375 C 322.570312 175.472656 322.574219 175.59375 322.589844 175.710938 C 322.601562 175.824219 322.652344 175.914062 322.738281 175.972656 C 322.828125 176.03125 322.964844 176.066406 323.148438 176.078125 C 323.332031 176.089844 323.539062 176.09375 323.765625 176.09375 L 323.765625 176.691406 Z M 321.351562 171.566406 C 321.1875 171.242188 320.949219 170.972656 320.644531 170.761719 C 320.339844 170.550781 319.988281 170.445312 319.59375 170.445312 C 319.277344 170.445312 318.980469 170.519531 318.703125 170.667969 C 318.429688 170.816406 318.191406 171.019531 317.992188 171.28125 C 317.769531 171.578125 317.628906 171.910156 317.566406 172.277344 C 317.503906 172.644531 317.472656 173.027344 317.472656 173.417969 C 317.472656 173.8125 317.5 174.191406 317.554688 174.550781 C 317.609375 174.910156 317.742188 175.246094 317.945312 175.5625 C 318.117188 175.8125 318.332031 176.011719 318.597656 176.160156 C 318.859375 176.3125 319.136719 176.386719 319.425781 176.386719 C 319.863281 176.386719 320.25 176.265625 320.585938 176.027344 C 320.921875 175.785156 321.175781 175.476562 321.351562 175.105469 Z M 321.351562 171.566406 "/>
<path style=" stroke:none;fill-rule:evenodd;fill:rgb(0%,0%,0%);fill-opacity:1;" d="M 333.066406 176.773438 L 324.394531 176.773438 L 324.394531 175.8125 L 325.839844 175.8125 L 325.839844 167.324219 L 324.394531 167.324219 L 324.394531 166.339844 L 332.886719 166.339844 L 333.382812 170.21875 L 332.378906 170.21875 C 332.339844 169.933594 332.304688 169.683594 332.273438 169.46875 C 332.246094 169.253906 332.203125 169.046875 332.148438 168.847656 C 332.09375 168.648438 332.023438 168.464844 331.9375 168.296875 C 331.851562 168.128906 331.742188 167.984375 331.613281 167.863281 C 331.351562 167.625 331.042969 167.476562 330.683594 167.414062 C 330.328125 167.355469 329.960938 167.324219 329.589844 167.324219 L 328.296875 167.324219 L 328.296875 170.882812 L 328.515625 170.882812 C 328.71875 170.882812 328.917969 170.863281 329.105469 170.828125 C 329.292969 170.792969 329.449219 170.707031 329.570312 170.578125 C 329.695312 170.453125 329.769531 170.265625 329.792969 170.019531 C 329.820312 169.773438 329.832031 169.484375 329.832031 169.148438 L 330.824219 169.148438 L 330.824219 173.59375 L 329.832031 173.59375 C 329.832031 173.265625 329.820312 172.976562 329.792969 172.726562 C 329.769531 172.480469 329.695312 172.289062 329.570312 172.160156 C 329.449219 172.035156 329.292969 171.949219 329.105469 171.90625 C 328.917969 171.867188 328.71875 171.84375 328.515625 171.84375 L 328.296875 171.84375 L 328.296875 175.8125 L 329.71875 175.8125 C 330.109375 175.8125 330.492188 175.765625 330.863281 175.675781 C 331.234375 175.585938 331.5625 175.414062 331.847656 175.160156 C 331.988281 175.03125 332.105469 174.867188 332.207031 174.667969 C 332.308594 174.46875 332.398438 174.25 332.472656 174.011719 C 332.550781 173.773438 332.617188 173.527344 332.667969 173.269531 C 332.71875 173.015625 332.769531 172.730469 332.824219 172.421875 L 333.816406 172.421875 Z M 333.066406 176.773438 "/>
</g>
</svg>
