<?xml version="1.0" encoding="UTF-8"?>
<svg xmlns="http://www.w3.org/2000/svg" xmlns:xlink="http://www.w3.org/1999/xlink" width="958.02pt" height="463.98pt" viewBox="0 0 958.02 463.98" version="1.1">
<g id="surface1">
<path style="fill-rule:evenodd;fill:rgb(100%,100%,100%);fill-opacity:1;stroke-width:15;stroke-linecap:round;stroke-linejoin:round;stroke:rgb(0%,0%,0%);stroke-opacity:1;stroke-miterlimit:10;" d="M 1089.474615 393.837796 C 840.935844 393.837796 639.469726 662.477965 639.469726 993.834206 C 639.469726 1325.207705 840.935844 1593.847874 1089.474615 1593.847874 C 1337.996118 1593.847874 1539.479504 1325.207705 1539.479504 993.834206 C 1539.479504 662.477965 1337.996118 393.837796 1089.474615 393.837796 Z M 1089.474615 393.837796 " transform="matrix(0.226213,0,0,-0.226343,0,465.7477)"/>
<path style="fill:none;stroke-width:15;stroke-linecap:round;stroke-linejoin:round;stroke:rgb(0%,0%,0%);stroke-opacity:1;stroke-miterlimit:10;" d="M 1089.474615 285.094271 C 770.534082 285.094271 511.962585 602.402388 511.962585 993.834206 C 511.962585 1385.266024 770.516814 1702.591399 1089.474615 1702.591399 C 1408.415149 1702.591399 1666.986646 1385.266024 1666.986646 993.834206 C 1666.986646 602.402388 1408.415149 285.094271 1089.474615 285.094271 Z M 1089.474615 285.094271 " transform="matrix(0.226213,0,0,-0.226343,0,465.7477)"/>
<path style="fill:none;stroke-width:0.201;stroke-linecap:round;stroke-linejoin:round;stroke:rgb(0%,0%,0%);stroke-opacity:1;stroke-miterlimit:10;" d="M 0.937151 3.939194 L 4.454656 3.939194 " transform="matrix(4.524248,0,-0.00000311524,-4.526819,334.353859,322.171862)"/>
<path style="fill:none;stroke-width:0.201;stroke-linecap:round;stroke-linejoin:round;stroke:rgb(0%,0%,0%);stroke-opacity:1;stroke-miterlimit:10;" d="M 2.695905 5.69781 L 2.695902 2.180578 " transform="matrix(4.524248,0,-0.00000311524,-4.526819,334.353859,322.171862)"/>
<path style="fill:none;stroke-width:0.201;stroke-linecap:round;stroke-linejoin:round;stroke:rgb(0%,0%,0%);stroke-opacity:1;stroke-miterlimit:10;" d="M 0.937727 3.939204 L 4.455232 3.939205 " transform="matrix(4.524248,0.00000227868,-0.00000311524,-4.526819,342.155939,286.199248)"/>
<path style="fill:none;stroke-width:0.201;stroke-linecap:round;stroke-linejoin:round;stroke:rgb(0%,0%,0%);stroke-opacity:1;stroke-miterlimit:10;" d="M 2.696481 5.697821 L 2.696479 2.180588 " transform="matrix(4.524248,0.00000227868,-0.00000311524,-4.526819,342.155939,286.199248)"/>
<path style="fill:none;stroke-width:0.201;stroke-linecap:round;stroke-linejoin:round;stroke:rgb(0%,0%,0%);stroke-opacity:1;stroke-miterlimit:10;" d="M 0.937727 3.939603 L 4.455232 3.939607 " transform="matrix(4.524248,0.00000455434,-0.00000311524,-4.526819,342.155939,255.966681)"/>
<path style="fill:none;stroke-width:0.201;stroke-linecap:round;stroke-linejoin:round;stroke:rgb(0%,0%,0%);stroke-opacity:1;stroke-miterlimit:10;" d="M 2.696481 5.698221 L 2.696479 2.180989 " transform="matrix(4.524248,0.00000455434,-0.00000311524,-4.526819,342.155939,255.966681)"/>
<path style="fill:none;stroke-width:0.201;stroke-linecap:round;stroke-linejoin:round;stroke:rgb(0%,0%,0%);stroke-opacity:1;stroke-miterlimit:10;" d="M 0.937727 3.939674 L 4.455232 3.939678 " transform="matrix(4.524248,0.00000455434,-0.00000311524,-4.526819,342.155939,223.486532)"/>
<path style="fill:none;stroke-width:0.201;stroke-linecap:round;stroke-linejoin:round;stroke:rgb(0%,0%,0%);stroke-opacity:1;stroke-miterlimit:10;" d="M 2.696481 5.698292 L 2.696479 2.18106 " transform="matrix(4.524248,0.00000455434,-0.00000311524,-4.526819,342.155939,223.486532)"/>
<path style="fill:none;stroke-width:0.201;stroke-linecap:round;stroke-linejoin:round;stroke:rgb(0%,0%,0%);stroke-opacity:1;stroke-miterlimit:10;" d="M 0.937151 3.939776 L 4.454656 3.939779 " transform="matrix(4.524248,0.00000455434,-0.00000311524,-4.526819,334.353859,192.147149)"/>
<path style="fill:none;stroke-width:0.201;stroke-linecap:round;stroke-linejoin:round;stroke:rgb(0%,0%,0%);stroke-opacity:1;stroke-miterlimit:10;" d="M 2.695905 5.698394 L 2.695902 2.180299 " transform="matrix(4.524248,0.00000455434,-0.00000311524,-4.526819,334.353859,192.147149)"/>
<path style="fill:none;stroke-width:0.201;stroke-linecap:round;stroke-linejoin:round;stroke:rgb(0%,0%,0%);stroke-opacity:1;stroke-miterlimit:10;" d="M 0.937517 3.93912 L 4.455022 3.939124 " transform="matrix(4.524248,0.00000455434,-0.00000311524,-4.526819,315.410797,160.1559)"/>
<path style="fill:none;stroke-width:0.201;stroke-linecap:round;stroke-linejoin:round;stroke:rgb(0%,0%,0%);stroke-opacity:1;stroke-miterlimit:10;" d="M 2.696271 5.698601 L 2.696268 2.180506 " transform="matrix(4.524248,0.00000455434,-0.00000311524,-4.526819,315.410797,160.1559)"/>
<path style="fill:none;stroke-width:0.201;stroke-linecap:round;stroke-linejoin:round;stroke:rgb(0%,0%,0%);stroke-opacity:1;stroke-miterlimit:10;" d="M 0.937764 3.939597 L 4.455269 3.939597 " transform="matrix(4.524248,0,-0.00000311524,-4.526819,298.444836,140.568221)"/>
<path style="fill:none;stroke-width:0.201;stroke-linecap:round;stroke-linejoin:round;stroke:rgb(0%,0%,0%);stroke-opacity:1;stroke-miterlimit:10;" d="M 2.696518 5.698213 L 2.696515 2.180981 " transform="matrix(4.524248,0,-0.00000311524,-4.526819,298.444836,140.568221)"/>
<path style="fill:none;stroke-width:0.201;stroke-linecap:round;stroke-linejoin:round;stroke:rgb(0%,0%,0%);stroke-opacity:1;stroke-miterlimit:10;" d="M 0.937767 3.939792 L 4.455272 3.939795 " transform="matrix(4.524248,0.00000455434,-0.00000311524,-4.526819,274.952634,123.592533)"/>
<path style="fill:none;stroke-width:0.201;stroke-linecap:round;stroke-linejoin:round;stroke:rgb(0%,0%,0%);stroke-opacity:1;stroke-miterlimit:10;" d="M 2.696521 5.69841 L 2.696518 2.180314 " transform="matrix(4.524248,0.00000455434,-0.00000311524,-4.526819,274.952634,123.592533)"/>
<path style="fill:none;stroke-width:0.201;stroke-linecap:round;stroke-linejoin:round;stroke:rgb(0%,0%,0%);stroke-opacity:1;stroke-miterlimit:10;" d="M 0.937155 3.939411 L 4.454659 3.939415 " transform="matrix(4.524248,0.00000455434,-0.00000311524,-4.526819,248.849937,107.922842)"/>
<path style="fill:none;stroke-width:0.201;stroke-linecap:round;stroke-linejoin:round;stroke:rgb(0%,0%,0%);stroke-opacity:1;stroke-miterlimit:10;" d="M 2.695908 5.698029 L 2.695906 2.180797 " transform="matrix(4.524248,0.00000455434,-0.00000311524,-4.526819,248.849937,107.922842)"/>
<path style="fill:none;stroke-width:0.201;stroke-linecap:round;stroke-linejoin:round;stroke:rgb(0%,0%,0%);stroke-opacity:1;stroke-miterlimit:10;" d="M 0.937217 3.939125 L 4.454721 3.939125 " transform="matrix(4.524248,0,-0.00000311524,-4.526819,207.740281,110.534834)"/>
<path style="fill:none;stroke-width:0.201;stroke-linecap:round;stroke-linejoin:round;stroke:rgb(0%,0%,0%);stroke-opacity:1;stroke-miterlimit:10;" d="M 2.69597 5.698604 L 2.695968 2.180509 " transform="matrix(4.524248,0,-0.00000311524,-4.526819,207.740281,110.534834)"/>
<path style="fill:none;stroke-width:0.201;stroke-linecap:round;stroke-linejoin:round;stroke:rgb(0%,0%,0%);stroke-opacity:1;stroke-miterlimit:10;" d="M 0.93765 3.939792 L 4.455154 3.939795 " transform="matrix(4.524248,0.00000455434,-0.00000155865,-4.526819,177.070347,123.592533)"/>
<path style="fill:none;stroke-width:0.201;stroke-linecap:round;stroke-linejoin:round;stroke:rgb(0%,0%,0%);stroke-opacity:1;stroke-miterlimit:10;" d="M 2.696403 5.69841 L 2.696401 2.180314 " transform="matrix(4.524248,0.00000455434,-0.00000155865,-4.526819,177.070347,123.592533)"/>
<path style="fill:none;stroke-width:0.201;stroke-linecap:round;stroke-linejoin:round;stroke:rgb(0%,0%,0%);stroke-opacity:1;stroke-miterlimit:10;" d="M 0.937768 3.939597 L 4.455273 3.939597 " transform="matrix(4.524248,0,-0.00000155865,-4.526819,156.190904,140.568221)"/>
<path style="fill:none;stroke-width:0.201;stroke-linecap:round;stroke-linejoin:round;stroke:rgb(0%,0%,0%);stroke-opacity:1;stroke-miterlimit:10;" d="M 2.696521 5.698213 L 2.69652 2.180981 " transform="matrix(4.524248,0,-0.00000155865,-4.526819,156.190904,140.568221)"/>
<path style="fill:none;stroke-width:0.201;stroke-linecap:round;stroke-linejoin:round;stroke:rgb(0%,0%,0%);stroke-opacity:1;stroke-miterlimit:10;" d="M 0.93734 3.93912 L 4.454845 3.939124 " transform="matrix(4.524248,0.00000455434,-0.00000155865,-4.526819,139.876435,160.1559)"/>
<path style="fill:none;stroke-width:0.201;stroke-linecap:round;stroke-linejoin:round;stroke:rgb(0%,0%,0%);stroke-opacity:1;stroke-miterlimit:10;" d="M 2.696093 5.698601 L 2.696092 2.180506 " transform="matrix(4.524248,0.00000455434,-0.00000155865,-4.526819,139.876435,160.1559)"/>
<path style="fill:none;stroke-width:0.201;stroke-linecap:round;stroke-linejoin:round;stroke:rgb(0%,0%,0%);stroke-opacity:1;stroke-miterlimit:10;" d="M 0.93783 3.939693 L 4.455335 3.939697 " transform="matrix(4.524248,0.00000455434,0,-4.526819,129.436713,185.619432)"/>
<path style="fill:none;stroke-width:0.201;stroke-linecap:round;stroke-linejoin:round;stroke:rgb(0%,0%,0%);stroke-opacity:1;stroke-miterlimit:10;" d="M 2.696582 5.698311 L 2.696582 2.181079 " transform="matrix(4.524248,0.00000455434,0,-4.526819,129.436713,185.619432)"/>
<path style="fill:none;stroke-width:0.201;stroke-linecap:round;stroke-linejoin:round;stroke:rgb(0%,0%,0%);stroke-opacity:1;stroke-miterlimit:10;" d="M 0.937645 3.939583 L 4.45515 3.939586 " transform="matrix(4.524248,0.00000455434,0,-4.526819,119.648485,209.122837)"/>
<path style="fill:none;stroke-width:0.201;stroke-linecap:round;stroke-linejoin:round;stroke:rgb(0%,0%,0%);stroke-opacity:1;stroke-miterlimit:10;" d="M 2.696398 5.698201 L 2.696398 2.180968 " transform="matrix(4.524248,0.00000455434,0,-4.526819,119.648485,209.122837)"/>
<path style="fill:none;stroke-width:0.201;stroke-linecap:round;stroke-linejoin:round;stroke:rgb(0%,0%,0%);stroke-opacity:1;stroke-miterlimit:10;" d="M 0.937403 3.939485 L 4.454908 3.939489 " transform="matrix(4.524248,0.00000455434,-0.00000155865,-4.526819,113.122245,244.380208)"/>
<path style="fill:none;stroke-width:0.201;stroke-linecap:round;stroke-linejoin:round;stroke:rgb(0%,0%,0%);stroke-opacity:1;stroke-miterlimit:10;" d="M 2.696156 5.698103 L 2.696155 2.180871 " transform="matrix(4.524248,0.00000455434,-0.00000155865,-4.526819,113.122245,244.380208)"/>
<path style="fill:none;stroke-width:0.201;stroke-linecap:round;stroke-linejoin:round;stroke:rgb(0%,0%,0%);stroke-opacity:1;stroke-miterlimit:10;" d="M 0.937645 3.939199 L 4.45515 3.939201 " transform="matrix(4.524248,0.00000227868,0,-4.526819,119.648485,273.761728)"/>
<path style="fill:none;stroke-width:0.201;stroke-linecap:round;stroke-linejoin:round;stroke:rgb(0%,0%,0%);stroke-opacity:1;stroke-miterlimit:10;" d="M 2.696398 5.697816 L 2.696398 2.180584 " transform="matrix(4.524248,0.00000227868,0,-4.526819,119.648485,273.761728)"/>
<path style="fill:none;stroke-width:0.201;stroke-linecap:round;stroke-linejoin:round;stroke:rgb(0%,0%,0%);stroke-opacity:1;stroke-miterlimit:10;" d="M 0.937645 3.939386 L 4.45515 3.939388 " transform="matrix(4.524248,0.00000227868,0,-4.526819,119.648485,306.407107)"/>
<path style="fill:none;stroke-width:0.201;stroke-linecap:round;stroke-linejoin:round;stroke:rgb(0%,0%,0%);stroke-opacity:1;stroke-miterlimit:10;" d="M 2.696398 5.698003 L 2.696398 2.180771 " transform="matrix(4.524248,0.00000227868,0,-4.526819,119.648485,306.407107)"/>
<path style="fill:none;stroke-width:0.201;stroke-linecap:round;stroke-linejoin:round;stroke:rgb(0%,0%,0%);stroke-opacity:1;stroke-miterlimit:10;" d="M 0.93783 3.939675 L 4.455335 3.939676 " transform="matrix(4.524248,0.00000227868,0,-4.526819,129.436713,334.482631)"/>
<path style="fill:none;stroke-width:0.201;stroke-linecap:round;stroke-linejoin:round;stroke:rgb(0%,0%,0%);stroke-opacity:1;stroke-miterlimit:10;" d="M 2.696582 5.698292 L 2.696582 2.181059 " transform="matrix(4.524248,0.00000227868,0,-4.526819,129.436713,334.482631)"/>
<path style="fill:none;stroke-width:0.201;stroke-linecap:round;stroke-linejoin:round;stroke:rgb(0%,0%,0%);stroke-opacity:1;stroke-miterlimit:10;" d="M 0.93734 3.939091 L 4.454845 3.939093 " transform="matrix(4.524248,0.00000227868,-0.00000155865,-4.526819,139.876435,354.722177)"/>
<path style="fill:none;stroke-width:0.201;stroke-linecap:round;stroke-linejoin:round;stroke:rgb(0%,0%,0%);stroke-opacity:1;stroke-miterlimit:10;" d="M 2.696093 5.698571 L 2.696092 2.180476 " transform="matrix(4.524248,0.00000227868,-0.00000155865,-4.526819,139.876435,354.722177)"/>
<path style="fill:none;stroke-width:0.201;stroke-linecap:round;stroke-linejoin:round;stroke:rgb(0%,0%,0%);stroke-opacity:1;stroke-miterlimit:10;" d="M 0.937768 3.939918 L 4.455273 3.939919 " transform="matrix(4.524248,0.00000113934,-0.00000155865,-4.526819,156.190904,366.944672)"/>
<path style="fill:none;stroke-width:0.201;stroke-linecap:round;stroke-linejoin:round;stroke:rgb(0%,0%,0%);stroke-opacity:1;stroke-miterlimit:10;" d="M 2.696521 5.698535 L 2.69652 2.18044 " transform="matrix(4.524248,0.00000113934,-0.00000155865,-4.526819,156.190904,366.944672)"/>
<path style="fill:none;stroke-width:0.201;stroke-linecap:round;stroke-linejoin:round;stroke:rgb(0%,0%,0%);stroke-opacity:1;stroke-miterlimit:10;" d="M 0.93765 3.939216 L 4.455154 3.939217 " transform="matrix(4.524248,0.00000113934,-0.00000155865,-4.526819,177.070347,384.60165)"/>
<path style="fill:none;stroke-width:0.201;stroke-linecap:round;stroke-linejoin:round;stroke:rgb(0%,0%,0%);stroke-opacity:1;stroke-miterlimit:10;" d="M 2.696403 5.697833 L 2.696401 2.180601 " transform="matrix(4.524248,0.00000113934,-0.00000155865,-4.526819,177.070347,384.60165)"/>
<path style="fill:none;stroke-width:0.201;stroke-linecap:round;stroke-linejoin:round;stroke:rgb(0%,0%,0%);stroke-opacity:1;stroke-miterlimit:10;" d="M 0.937431 3.939106 L 4.454935 3.939106 " transform="matrix(4.524248,0,-0.00000155865,-4.526819,197.352588,398.858964)"/>
<path style="fill:none;stroke-width:0.201;stroke-linecap:round;stroke-linejoin:round;stroke:rgb(0%,0%,0%);stroke-opacity:1;stroke-miterlimit:10;" d="M 2.696184 5.698585 L 2.696182 2.18049 " transform="matrix(4.524248,0,-0.00000155865,-4.526819,197.352588,398.858964)"/>
<path style="fill:none;stroke-width:0.201;stroke-linecap:round;stroke-linejoin:round;stroke:rgb(0%,0%,0%);stroke-opacity:1;stroke-miterlimit:10;" d="M 0.937713 3.93952 L 4.455217 3.939521 " transform="matrix(4.524248,0.00000113934,-0.00000311524,-4.526819,218.390381,404.970212)"/>
<path style="fill:none;stroke-width:0.201;stroke-linecap:round;stroke-linejoin:round;stroke:rgb(0%,0%,0%);stroke-opacity:1;stroke-miterlimit:10;" d="M 2.696466 5.698136 L 2.696464 2.180904 " transform="matrix(4.524248,0.00000113934,-0.00000311524,-4.526819,218.390381,404.970212)"/>
<path style="fill:none;stroke-width:0.201;stroke-linecap:round;stroke-linejoin:round;stroke:rgb(0%,0%,0%);stroke-opacity:1;stroke-miterlimit:10;" d="M 0.937722 3.93952 L 4.455227 3.939521 " transform="matrix(4.524248,0.00000113934,-0.00000311524,-4.526819,245.456745,404.970212)"/>
<path style="fill:none;stroke-width:0.201;stroke-linecap:round;stroke-linejoin:round;stroke:rgb(0%,0%,0%);stroke-opacity:1;stroke-miterlimit:10;" d="M 2.696476 5.698136 L 2.696473 2.180904 " transform="matrix(4.524248,0.00000113934,-0.00000311524,-4.526819,245.456745,404.970212)"/>
<path style="fill:none;stroke-width:0.201;stroke-linecap:round;stroke-linejoin:round;stroke:rgb(0%,0%,0%);stroke-opacity:1;stroke-miterlimit:10;" d="M 0.937471 3.939916 L 4.454976 3.939916 " transform="matrix(4.524248,0,-0.00000311524,-4.526819,271.559442,395.167318)"/>
<path style="fill:none;stroke-width:0.201;stroke-linecap:round;stroke-linejoin:round;stroke:rgb(0%,0%,0%);stroke-opacity:1;stroke-miterlimit:10;" d="M 2.696225 5.698532 L 2.696222 2.180437 " transform="matrix(4.524248,0,-0.00000311524,-4.526819,271.559442,395.167318)"/>
<path style="fill:none;stroke-width:0.201;stroke-linecap:round;stroke-linejoin:round;stroke:rgb(0%,0%,0%);stroke-opacity:1;stroke-miterlimit:10;" d="M 0.937764 3.939311 L 4.455269 3.939311 " transform="matrix(4.524248,0,-0.00000311524,-4.526819,298.444836,377.809112)"/>
<path style="fill:none;stroke-width:0.201;stroke-linecap:round;stroke-linejoin:round;stroke:rgb(0%,0%,0%);stroke-opacity:1;stroke-miterlimit:10;" d="M 2.696518 5.697927 L 2.696515 2.180695 " transform="matrix(4.524248,0,-0.00000311524,-4.526819,298.444836,377.809112)"/>
<path style="fill:none;stroke-width:0.201;stroke-linecap:round;stroke-linejoin:round;stroke:rgb(0%,0%,0%);stroke-opacity:1;stroke-miterlimit:10;" d="M 0.937157 3.939918 L 4.454662 3.939919 " transform="matrix(4.524248,0.00000113934,-0.00000311524,-4.526819,309.303051,366.944672)"/>
<path style="fill:none;stroke-width:0.201;stroke-linecap:round;stroke-linejoin:round;stroke:rgb(0%,0%,0%);stroke-opacity:1;stroke-miterlimit:10;" d="M 2.695911 5.698535 L 2.695908 2.18044 " transform="matrix(4.524248,0.00000113934,-0.00000311524,-4.526819,309.303051,366.944672)"/>
<path style="fill:none;stroke-width:0.201;stroke-linecap:round;stroke-linejoin:round;stroke:rgb(0%,0%,0%);stroke-opacity:1;stroke-miterlimit:10;" d="M 0.93739 3.939686 L 4.454894 3.939688 " transform="matrix(4.524248,0.00000227868,-0.00000311524,-4.526819,323.579342,347.931902)"/>
<path style="fill:none;stroke-width:0.201;stroke-linecap:round;stroke-linejoin:round;stroke:rgb(0%,0%,0%);stroke-opacity:1;stroke-miterlimit:10;" d="M 2.696143 5.698303 L 2.696141 2.181071 " transform="matrix(4.524248,0.00000227868,-0.00000311524,-4.526819,323.579342,347.931902)"/>
<path style=" stroke:none;fill-rule:evenodd;fill:rgb(0%,0%,94.099426%);fill-opacity:0.44706;" d="M 238.253906 102.539062 C 241.789062 102.398438 249.988281 102.398438 253.523438 102.539062 C 257.058594 102.679688 257.765625 103.105469 259.460938 103.386719 C 261.15625 103.667969 262.433594 103.953125 263.703125 104.234375 C 264.976562 104.519531 264.835938 104.378906 267.097656 105.085938 C 269.359375 105.792969 275.015625 107.632812 277.277344 108.480469 C 279.539062 109.328125 279.253906 109.472656 280.667969 110.175781 C 282.082031 110.886719 284.203125 111.875 285.757812 112.722656 C 287.316406 113.574219 288.871094 114.5625 290 115.269531 C 291.132812 115.976562 291.695312 116.402344 292.546875 116.96875 C 293.394531 117.535156 294.101562 117.957031 295.089844 118.664062 C 296.082031 119.375 297.210938 120.222656 298.484375 121.210938 C 299.757812 122.203125 300.039062 122.058594 302.726562 124.605469 C 305.414062 127.152344 311.914062 133.660156 314.601562 136.488281 C 317.289062 139.320312 317.710938 140.167969 318.84375 141.582031 C 319.972656 142.996094 320.117188 143.140625 321.386719 144.976562 C 322.660156 146.816406 325.207031 150.636719 326.476562 152.617188 C 327.75 154.597656 327.183594 153.324219 329.023438 156.859375 C 330.859375 160.398438 335.808594 170.300781 337.503906 173.835938 C 339.203125 177.375 338.636719 176.523438 339.203125 178.078125 C 339.765625 179.636719 340.191406 181.050781 340.898438 183.171875 C 341.605469 185.296875 342.59375 187.984375 343.441406 190.8125 C 344.292969 193.640625 345.140625 196.328125 345.988281 200.148438 C 346.835938 203.96875 347.96875 210.195312 348.53125 213.730469 C 349.097656 217.265625 349.097656 218.117188 349.382812 221.367188 C 349.664062 224.621094 350.089844 228.867188 350.230469 233.25 C 350.371094 237.636719 350.371094 243.296875 350.230469 247.679688 C 350.089844 252.066406 349.664062 256.3125 349.382812 259.5625 C 349.097656 262.816406 348.957031 264.371094 348.53125 267.203125 C 348.109375 270.03125 347.261719 274.277344 346.835938 276.539062 C 346.414062 278.800781 346.269531 279.511719 345.988281 280.78125 C 345.707031 282.058594 345.566406 282.621094 345.140625 284.179688 C 344.714844 285.734375 344.007812 288.28125 343.441406 290.121094 C 342.878906 291.960938 342.453125 293.089844 341.746094 295.210938 C 341.039062 297.335938 339.910156 300.871094 339.203125 302.851562 C 338.496094 304.832031 338.351562 305.113281 337.503906 307.09375 C 336.65625 309.074219 334.820312 313.179688 334.113281 314.734375 C 333.40625 316.292969 333.546875 315.867188 333.261719 316.433594 C 332.980469 316.996094 333.261719 316.574219 332.414062 318.128906 C 331.566406 319.6875 330.011719 322.800781 328.171875 325.769531 C 326.335938 328.742188 322.945312 333.691406 321.386719 335.953125 C 319.832031 338.21875 319.832031 338.078125 318.84375 339.347656 C 317.855469 340.625 318.277344 340.625 315.449219 343.59375 C 312.621094 346.566406 304.847656 354.34375 301.875 357.171875 C 298.910156 360.003906 298.910156 359.578125 297.636719 360.570312 C 296.363281 361.558594 295.9375 361.984375 294.242188 363.113281 C 292.546875 364.246094 290.28125 365.804688 287.457031 367.359375 C 284.628906 368.917969 279.679688 371.320312 277.277344 372.453125 C 274.875 373.582031 274.164062 373.726562 273.035156 374.148438 C 271.902344 374.574219 271.335938 374.714844 270.488281 374.996094 C 269.640625 375.28125 268.933594 375.5625 267.945312 375.847656 C 266.957031 376.128906 265.824219 376.414062 264.550781 376.695312 C 263.28125 376.976562 261.867188 377.261719 260.308594 377.542969 C 258.753906 377.828125 259.039062 378.253906 255.21875 378.394531 C 251.402344 378.535156 241.363281 378.535156 237.40625 378.394531 C 233.445312 378.253906 233.023438 377.828125 231.46875 377.542969 C 229.914062 377.261719 229.207031 376.976562 228.074219 376.695312 C 226.945312 376.414062 226.519531 376.414062 224.679688 375.847656 C 222.84375 375.28125 219.589844 374.292969 217.046875 373.300781 C 214.5 372.3125 210.96875 370.613281 209.410156 369.90625 C 207.859375 369.199219 208.28125 369.339844 207.714844 369.054688 C 207.148438 368.773438 207.859375 369.339844 206.019531 368.207031 C 204.183594 367.074219 198.949219 363.824219 196.6875 362.265625 C 194.425781 360.710938 195.980469 362.265625 192.445312 358.871094 C 188.914062 355.476562 178.875 345.433594 175.480469 341.894531 C 172.085938 338.359375 173.785156 340.058594 172.085938 337.652344 C 170.390625 335.246094 166.855469 329.871094 165.300781 327.464844 C 163.746094 325.0625 163.746094 324.917969 162.753906 323.222656 C 161.765625 321.523438 160.777344 320.109375 159.363281 317.28125 C 157.949219 314.453125 155.6875 309.640625 154.273438 306.246094 C 152.859375 302.851562 151.585938 298.890625 150.878906 296.910156 C 150.171875 294.929688 150.457031 295.777344 150.03125 294.363281 C 149.609375 292.949219 149.042969 291.109375 148.335938 288.421875 C 147.628906 285.734375 146.355469 280.640625 145.789062 278.238281 C 145.222656 275.832031 145.222656 275.40625 144.941406 273.992188 C 144.660156 272.578125 144.375 271.589844 144.09375 269.75 C 143.808594 267.910156 143.527344 265.363281 143.246094 262.957031 C 142.960938 260.554688 142.539062 261.542969 142.394531 255.320312 C 142.257812 249.09375 142.257812 231.835938 142.394531 225.613281 C 142.539062 219.386719 142.960938 220.234375 143.246094 217.972656 C 143.527344 215.710938 143.808594 213.871094 144.09375 212.03125 C 144.375 210.195312 144.660156 208.496094 144.941406 206.9375 C 145.222656 205.382812 145.222656 205.101562 145.789062 202.695312 C 146.355469 200.289062 147.628906 195.199219 148.335938 192.507812 C 149.042969 189.824219 149.183594 189.113281 150.03125 186.566406 C 150.878906 184.019531 152.574219 179.496094 153.425781 177.230469 C 154.273438 174.96875 154.132812 175.25 155.121094 172.988281 C 156.113281 170.722656 158.089844 166.195312 159.363281 163.652344 C 160.636719 161.105469 161.765625 159.40625 162.753906 157.710938 C 163.746094 156.011719 163.746094 155.871094 165.300781 153.464844 C 166.855469 151.0625 170.25 145.824219 172.085938 143.28125 C 173.925781 140.734375 173.078125 141.582031 176.328125 138.1875 C 179.582031 134.792969 188.347656 126.019531 191.597656 122.910156 C 194.851562 119.796875 194.707031 120.363281 195.839844 119.515625 C 196.96875 118.664062 197.535156 118.382812 198.382812 117.816406 C 199.230469 117.25 199.796875 116.828125 200.929688 116.117188 C 202.058594 115.414062 202.769531 114.847656 205.171875 113.574219 C 207.574219 112.300781 212.949219 109.613281 215.351562 108.480469 C 217.753906 107.347656 218.460938 107.207031 219.589844 106.78125 C 220.722656 106.359375 221.289062 106.214844 222.136719 105.933594 C 222.984375 105.648438 223.691406 105.367188 224.679688 105.085938 C 225.671875 104.800781 226.804688 104.519531 228.074219 104.234375 C 229.347656 103.953125 230.621094 103.667969 232.316406 103.386719 C 234.011719 103.105469 234.71875 102.679688 238.253906 102.539062 Z M 239.101562 82.167969 C 235.570312 82.308594 233.589844 82.734375 231.46875 83.015625 C 229.347656 83.300781 227.933594 83.582031 226.378906 83.863281 C 224.824219 84.148438 223.410156 84.429688 222.136719 84.714844 C 220.863281 84.996094 220.15625 85.140625 218.742188 85.5625 C 217.328125 85.988281 215.773438 86.554688 213.652344 87.261719 C 211.535156 87.96875 208.140625 88.957031 206.019531 89.804688 C 203.898438 90.65625 203.472656 91.082031 200.929688 92.351562 C 198.382812 93.628906 193.152344 96.171875 190.75 97.445312 C 188.347656 98.71875 187.640625 99.285156 186.507812 99.992188 C 185.375 100.699219 184.8125 101.125 183.964844 101.6875 C 183.113281 102.253906 182.410156 102.679688 181.417969 103.386719 C 180.429688 104.09375 179.296875 104.945312 178.023438 105.933594 C 176.753906 106.925781 177.175781 106.074219 173.785156 109.328125 C 170.390625 112.582031 160.917969 122.058594 157.664062 125.457031 C 154.414062 128.851562 155.6875 127.863281 154.273438 129.699219 C 152.859375 131.539062 150.457031 134.792969 149.183594 136.488281 C 147.910156 138.1875 148.195312 137.480469 146.636719 139.882812 C 145.082031 142.289062 141.40625 148.230469 139.851562 150.917969 C 138.296875 153.609375 138.4375 153.75 137.308594 156.011719 C 136.175781 158.273438 134.054688 162.378906 133.066406 164.5 C 132.078125 166.621094 132.078125 166.90625 131.367188 168.742188 C 130.664062 170.582031 129.816406 172.703125 128.824219 175.535156 C 127.835938 178.363281 126.277344 183.03125 125.429688 185.71875 C 124.582031 188.40625 124.160156 190.105469 123.734375 191.660156 C 123.3125 193.21875 123.167969 193.925781 122.886719 195.054688 C 122.601562 196.1875 122.320312 197.179688 122.039062 198.449219 C 121.753906 199.726562 121.472656 201.28125 121.1875 202.695312 C 120.90625 204.109375 120.625 205.382812 120.339844 206.9375 C 120.058594 208.496094 119.773438 210.195312 119.492188 212.03125 C 119.210938 213.871094 118.925781 215.570312 118.644531 217.972656 C 118.363281 220.378906 117.9375 220.234375 117.796875 226.460938 C 117.65625 232.683594 117.65625 249.09375 117.796875 255.320312 C 117.9375 261.542969 118.363281 261.542969 118.644531 263.808594 C 118.925781 266.070312 119.210938 267.203125 119.492188 268.898438 C 119.773438 270.597656 119.917969 271.730469 120.339844 273.992188 C 120.765625 276.257812 121.613281 280.359375 122.039062 282.480469 C 122.460938 284.605469 122.460938 285.027344 122.886719 286.722656 C 123.3125 288.421875 124.015625 290.683594 124.582031 292.664062 C 125.148438 294.644531 125.855469 297.191406 126.277344 298.605469 C 126.703125 300.023438 126.84375 300.304688 127.128906 301.152344 C 127.410156 302.003906 126.988281 301.152344 127.976562 303.699219 C 128.964844 306.246094 131.792969 313.460938 133.066406 316.433594 C 134.339844 319.402344 134.480469 319.261719 135.609375 321.523438 C 136.742188 323.789062 138.71875 327.890625 139.851562 330.011719 C 140.984375 332.136719 141.546875 332.839844 142.394531 334.257812 C 143.246094 335.671875 144.234375 337.367188 144.941406 338.5 C 145.648438 339.632812 146.074219 340.199219 146.636719 341.046875 C 147.203125 341.894531 146.78125 341.472656 148.335938 343.59375 C 149.890625 345.714844 153.425781 350.667969 155.96875 353.777344 C 158.515625 356.890625 162.050781 360.570312 163.605469 362.265625 C 165.160156 363.964844 163.464844 362.265625 165.300781 363.964844 C 167.140625 365.660156 172.371094 370.472656 174.632812 372.453125 C 176.894531 374.433594 177.175781 374.574219 178.875 375.847656 C 180.570312 377.121094 183.113281 378.957031 184.8125 380.089844 C 186.507812 381.222656 187.640625 381.789062 189.054688 382.636719 C 190.464844 383.484375 192.023438 384.476562 193.292969 385.183594 C 194.566406 385.890625 195.273438 386.175781 196.6875 386.882812 C 198.101562 387.589844 199.941406 388.578125 201.777344 389.425781 C 203.617188 390.277344 205.453125 391.125 207.714844 391.972656 C 209.976562 392.824219 212.382812 393.671875 215.351562 394.519531 C 218.320312 395.367188 222.984375 396.5 225.53125 397.066406 C 228.074219 397.632812 228.5 397.632812 230.621094 397.914062 C 232.742188 398.199219 234.296875 398.625 238.253906 398.765625 C 242.210938 398.90625 250.554688 398.90625 254.371094 398.765625 C 258.191406 398.625 259.179688 398.199219 261.15625 397.914062 C 263.136719 397.632812 264.695312 397.347656 266.246094 397.066406 C 267.804688 396.785156 269.21875 396.5 270.488281 396.21875 C 271.761719 395.933594 272.46875 395.792969 273.882812 395.367188 C 275.296875 394.945312 276.851562 394.378906 278.972656 393.671875 C 281.09375 392.964844 284.488281 391.972656 286.605469 391.125 C 288.730469 390.277344 289.152344 389.851562 291.695312 388.578125 C 294.242188 387.304688 298.484375 385.464844 301.875 383.484375 C 305.269531 381.503906 309.792969 378.253906 312.054688 376.695312 C 314.316406 375.140625 314.035156 375.28125 315.449219 374.148438 C 316.863281 373.015625 317.710938 372.59375 320.539062 369.90625 C 323.367188 367.21875 329.585938 360.992188 332.414062 358.023438 C 335.242188 355.050781 335.808594 354.203125 337.503906 352.082031 C 339.203125 349.960938 341.324219 346.988281 342.59375 345.289062 C 343.867188 343.59375 344.007812 343.59375 345.140625 341.894531 C 346.269531 340.199219 348.25 336.945312 349.382812 335.105469 C 350.511719 333.265625 350.230469 334.117188 351.925781 330.859375 C 353.621094 327.609375 358.007812 318.835938 359.5625 315.582031 C 361.117188 312.332031 360.691406 312.753906 361.257812 311.339844 C 361.824219 309.925781 362.386719 308.652344 362.953125 307.09375 C 363.519531 305.539062 363.945312 304.125 364.652344 302.003906 C 365.359375 299.882812 366.488281 296.625 367.195312 294.363281 C 367.902344 292.101562 368.328125 290.683594 368.890625 288.421875 C 369.457031 286.160156 370.164062 282.761719 370.589844 280.78125 C 371.015625 278.800781 371.152344 277.953125 371.4375 276.539062 C 371.71875 275.125 372.003906 273.851562 372.285156 272.296875 C 372.566406 270.738281 372.851562 269.324219 373.132812 267.203125 C 373.417969 265.082031 373.699219 262.816406 373.980469 259.5625 C 374.265625 256.3125 374.691406 252.207031 374.832031 247.679688 C 374.972656 243.152344 374.972656 236.789062 374.832031 232.402344 C 374.691406 228.019531 374.265625 224.339844 373.980469 221.367188 C 373.699219 218.398438 373.417969 216.699219 373.132812 214.578125 C 372.851562 212.457031 372.566406 210.332031 372.285156 208.636719 C 372.003906 206.9375 371.71875 205.808594 371.4375 204.390625 C 371.152344 202.976562 371.015625 202.128906 370.589844 200.148438 C 370.164062 198.167969 369.601562 195.199219 368.890625 192.507812 C 368.1875 189.824219 367.195312 186.710938 366.347656 184.019531 C 365.5 181.335938 364.933594 179.496094 363.800781 176.382812 C 362.671875 173.269531 360.691406 168.039062 359.5625 165.347656 C 358.429688 162.660156 358.148438 162.519531 357.015625 160.253906 C 355.886719 157.992188 353.90625 153.890625 352.773438 151.769531 C 351.644531 149.648438 351.078125 148.9375 350.230469 147.523438 C 349.382812 146.109375 348.957031 145.261719 347.683594 143.28125 C 346.414062 141.300781 343.867188 137.480469 342.59375 135.640625 C 341.324219 133.804688 340.898438 133.378906 340.050781 132.246094 C 339.203125 131.113281 338.917969 130.546875 337.503906 128.851562 C 336.089844 127.152344 334.113281 124.75 331.566406 122.058594 C 329.023438 119.375 324.78125 115.128906 322.234375 112.722656 C 319.691406 110.320312 317.855469 108.90625 316.296875 107.632812 C 314.742188 106.359375 314.035156 105.933594 312.90625 105.085938 C 311.773438 104.234375 310.503906 103.246094 309.511719 102.539062 C 308.523438 101.832031 307.816406 101.40625 306.964844 100.839844 C 306.117188 100.273438 305.550781 99.851562 304.421875 99.144531 C 303.289062 98.4375 302.585938 97.871094 300.179688 96.597656 C 297.777344 95.324219 292.6875 92.777344 290 91.503906 C 287.316406 90.230469 286.324219 89.804688 284.0625 88.957031 C 281.800781 88.109375 279.398438 87.261719 276.425781 86.410156 C 273.460938 85.5625 268.933594 84.429688 266.246094 83.863281 C 263.5625 83.300781 262.570312 83.300781 260.308594 83.015625 C 258.046875 82.734375 256.210938 82.308594 252.675781 82.167969 C 249.140625 82.027344 242.636719 82.027344 239.101562 82.167969 Z M 239.101562 82.167969 "/>
<path style=" stroke:none;fill-rule:nonzero;fill:rgb(0%,0%,0%);fill-opacity:1;" d="M 25.683594 207.390625 L 904.90625 330.097656 L 904.433594 333.457031 L 25.214844 210.75 C 24.285156 210.621094 23.640625 209.761719 23.769531 208.835938 C 23.898438 207.90625 24.753906 207.257812 25.683594 207.390625 Z M 931.527344 335.527344 L 899.328125 320.746094 L 904.875 330.089844 L 904.40625 333.453125 L 896.511719 340.921875 Z M 931.527344 335.527344 "/>
<path style="fill:none;stroke-width:15;stroke-linecap:round;stroke-linejoin:round;stroke:rgb(0%,0%,0%);stroke-opacity:1;stroke-miterlimit:10;" d="M 1089.474615 998.114224 L 1089.474615 1582.95799 " transform="matrix(0.226213,0,0,-0.226343,0,465.7477)"/>
<path style=" stroke:none;fill-rule:evenodd;fill:rgb(0%,0%,0%);fill-opacity:1;" d="M 254.457031 239.832031 C 254.457031 244.332031 250.8125 247.980469 246.3125 247.980469 C 241.816406 247.980469 238.171875 244.332031 238.171875 239.832031 C 238.171875 235.332031 241.816406 231.683594 246.3125 231.683594 C 250.8125 231.683594 254.457031 235.332031 254.457031 239.832031 Z M 254.457031 239.832031 "/>
<path style=" stroke:none;fill-rule:evenodd;fill:rgb(0%,0%,0%);fill-opacity:1;" d="M 234.476562 266.4375 C 233.929688 268.585938 233.039062 270.660156 231.8125 272.660156 C 230.585938 274.65625 229.042969 276.488281 227.183594 278.144531 C 225.507812 279.640625 223.671875 280.832031 221.683594 281.710938 C 219.691406 282.589844 217.699219 283.03125 215.703125 283.03125 C 213.691406 283.03125 211.902344 282.589844 210.339844 281.699219 C 208.777344 280.8125 207.53125 279.613281 206.601562 278.101562 C 205.582031 276.429688 204.992188 274.574219 204.839844 272.546875 C 204.78125 272.058594 204.75 271.570312 204.75 271.082031 C 204.75 269.554688 204.949219 267.976562 205.34375 266.347656 C 205.921875 264.171875 206.816406 262.058594 208.03125 260.007812 C 209.242188 257.957031 210.792969 256.101562 212.683594 254.441406 C 214.363281 252.949219 216.195312 251.742188 218.183594 250.832031 C 220.175781 249.921875 222.183594 249.464844 224.210938 249.464844 C 226.222656 249.464844 228 249.929688 229.550781 250.84375 C 231.097656 251.761719 232.335938 252.976562 233.265625 254.488281 C 234.285156 256.160156 234.886719 258.027344 235.070312 260.085938 C 235.101562 260.589844 235.117188 261.085938 235.117188 261.574219 C 235.117188 263.15625 234.90625 264.78125 234.476562 266.4375 Z M 229.859375 255.242188 C 229.355469 253.996094 228.601562 252.988281 227.59375 252.210938 C 226.585938 251.429688 225.351562 251.046875 223.890625 251.042969 C 222.441406 251.046875 221 251.441406 219.566406 252.230469 C 218.136719 253.023438 216.855469 254.050781 215.726562 255.304688 C 214.308594 256.835938 213.1875 258.488281 212.363281 260.273438 C 211.542969 262.058594 210.902344 263.867188 210.441406 265.703125 C 209.910156 267.703125 209.582031 269.652344 209.460938 271.546875 C 209.429688 271.902344 209.414062 272.257812 209.414062 272.613281 C 209.414062 274.09375 209.660156 275.546875 210.144531 276.96875 C 210.621094 278.226562 211.34375 279.28125 212.320312 280.132812 C 213.292969 280.984375 214.515625 281.410156 215.976562 281.410156 C 217.484375 281.410156 218.964844 280.976562 220.402344 280.113281 C 221.84375 279.246094 223.136719 278.175781 224.277344 276.898438 C 225.757812 275.183594 226.90625 273.371094 227.730469 271.460938 C 228.554688 269.550781 229.226562 267.601562 229.742188 265.617188 C 230.214844 263.765625 230.511719 261.945312 230.636719 260.152344 L 230.636719 259.375 C 230.636719 257.894531 230.378906 256.515625 229.859375 255.242188 Z M 229.859375 255.242188 "/>
<path style=" stroke:none;fill-rule:evenodd;fill:rgb(0%,0%,0%);fill-opacity:1;" d="M 903.117188 356.804688 C 902.949219 357.472656 902.609375 357.972656 902.097656 358.304688 C 901.589844 358.636719 901.074219 358.804688 900.558594 358.800781 C 900.023438 358.804688 899.582031 358.632812 899.230469 358.292969 C 898.972656 358.042969 898.835938 357.714844 898.816406 357.3125 C 898.816406 357.152344 898.847656 356.945312 898.910156 356.691406 C 899.078125 356.132812 899.335938 355.707031 899.6875 355.417969 C 900.039062 355.128906 900.28125 354.960938 900.417969 354.914062 C 900.128906 354.695312 899.535156 354.582031 898.636719 354.582031 C 897.84375 354.582031 897.132812 354.992188 896.507812 355.816406 C 895.882812 356.636719 895.417969 357.625 895.113281 358.78125 L 893.007812 366.910156 C 892.796875 367.726562 892.636719 368.503906 892.53125 369.242188 C 892.46875 369.496094 892.4375 369.71875 892.4375 369.910156 C 892.4375 370.371094 892.515625 370.808594 892.667969 371.21875 C 892.820312 371.664062 893.046875 372.019531 893.355469 372.289062 C 893.660156 372.554688 894.046875 372.6875 894.519531 372.6875 C 895.128906 372.6875 895.714844 372.53125 896.28125 372.210938 C 896.84375 371.890625 897.363281 371.464844 897.835938 370.921875 C 898.308594 370.382812 898.726562 369.753906 899.09375 369.035156 C 899.460938 368.316406 899.746094 367.578125 899.960938 366.820312 C 900.054688 366.4375 900.3125 366.246094 900.738281 366.242188 L 901.265625 366.242188 C 901.660156 366.246094 901.859375 366.394531 901.859375 366.6875 C 901.859375 366.777344 901.835938 366.859375 901.792969 366.933594 C 901.578125 367.824219 901.230469 368.699219 900.75 369.566406 C 900.269531 370.433594 899.710938 371.199219 899.070312 371.867188 C 898.429688 372.53125 897.703125 373.082031 896.886719 373.507812 C 896.070312 373.9375 895.199219 374.152344 894.269531 374.152344 C 893.324219 374.152344 892.507812 373.949219 891.820312 373.542969 C 891.136719 373.136719 890.578125 372.605469 890.152344 371.953125 C 890.015625 371.792969 889.90625 371.625 889.832031 371.453125 C 889.753906 371.285156 889.730469 371.257812 889.761719 371.375 C 889.398438 371.984375 888.820312 372.597656 888.023438 373.222656 C 887.234375 373.84375 886.320312 374.152344 885.28125 374.152344 C 884.703125 374.152344 884.128906 374.078125 883.566406 373.929688 C 883.003906 373.78125 882.507812 373.554688 882.089844 373.242188 C 881.671875 372.933594 881.355469 372.554688 881.140625 372.109375 C 881.035156 371.84375 880.984375 371.554688 880.980469 371.242188 C 880.984375 371.023438 881.015625 370.761719 881.074219 370.464844 C 881.242188 369.800781 881.582031 369.300781 882.101562 368.96875 C 882.621094 368.632812 883.140625 368.46875 883.65625 368.464844 C 884.191406 368.46875 884.648438 368.636719 885.03125 368.976562 C 885.289062 369.230469 885.417969 369.554688 885.417969 369.953125 C 885.417969 370.160156 885.386719 370.371094 885.328125 370.574219 C 885.191406 371.09375 884.941406 371.515625 884.582031 371.832031 C 884.226562 372.152344 883.96875 372.324219 883.816406 372.351562 C 884.105469 372.59375 884.695312 372.703125 885.578125 372.6875 C 886.371094 372.6875 887.085938 372.273438 887.726562 371.445312 C 888.367188 370.613281 888.832031 369.621094 889.121094 368.464844 L 891.25 360.289062 C 891.460938 359.523438 891.628906 358.765625 891.753906 358.023438 C 891.78125 357.789062 891.796875 357.566406 891.796875 357.359375 C 891.796875 356.898438 891.730469 356.472656 891.589844 356.070312 C 891.441406 355.628906 891.203125 355.269531 890.882812 354.992188 C 890.5625 354.71875 890.167969 354.582031 889.695312 354.582031 C 889.085938 354.582031 888.492188 354.742188 887.921875 355.0625 C 887.347656 355.378906 886.828125 355.804688 886.355469 356.339844 C 885.882812 356.871094 885.464844 357.492188 885.097656 358.191406 C 884.730469 358.898438 884.464844 359.640625 884.296875 360.425781 C 884.128906 360.824219 883.847656 361.03125 883.453125 361.046875 L 882.949219 361.046875 C 882.582031 361.046875 882.398438 360.863281 882.398438 360.492188 L 882.398438 360.335938 C 882.628906 359.417969 882.980469 358.527344 883.453125 357.660156 C 883.921875 356.792969 884.488281 356.027344 885.144531 355.359375 C 885.800781 354.695312 886.53125 354.148438 887.339844 353.726562 C 888.148438 353.304688 889.023438 353.09375 889.96875 353.09375 C 890.882812 353.09375 891.691406 353.292969 892.390625 353.695312 C 893.09375 354.09375 893.664062 354.628906 894.105469 355.292969 C 894.199219 355.457031 894.285156 355.632812 894.359375 355.816406 C 894.4375 356.003906 894.457031 356.050781 894.429688 355.960938 C 894.808594 355.308594 895.394531 354.667969 896.1875 354.039062 C 896.980469 353.410156 897.886719 353.09375 898.910156 353.09375 C 899.488281 353.09375 900.0625 353.164062 900.636719 353.304688 C 901.207031 353.449219 901.703125 353.671875 902.121094 353.984375 C 902.542969 354.292969 902.851562 354.679688 903.046875 355.136719 C 903.15625 355.40625 903.207031 355.710938 903.207031 356.046875 C 903.207031 356.273438 903.175781 356.523438 903.117188 356.804688 Z M 903.117188 356.804688 "/>
<path style=" stroke:none;fill-rule:evenodd;fill:rgb(0%,0%,0%);fill-opacity:1;" d="M 235.652344 189.234375 C 235.488281 189.902344 235.234375 190.558594 234.898438 191.203125 C 234.5625 191.847656 234.152344 192.429688 233.664062 192.945312 C 233.175781 193.464844 232.628906 193.886719 232.027344 194.222656 C 231.425781 194.554688 230.777344 194.722656 230.074219 194.722656 C 227.863281 194.722656 226.199219 194.136719 225.089844 192.964844 C 224.324219 192.167969 223.945312 191.160156 223.945312 189.945312 C 223.945312 189.324219 224.042969 188.652344 224.242188 187.921875 L 225.269531 183.949219 C 225.394531 183.445312 225.453125 182.972656 225.453125 182.527344 C 225.453125 182.304688 225.4375 182.074219 225.410156 181.835938 C 225.316406 181.21875 225.105469 180.667969 224.769531 180.195312 C 224.433594 179.722656 224.003906 179.347656 223.476562 179.074219 C 222.953125 178.800781 222.328125 178.660156 221.613281 178.660156 L 216.445312 178.660156 L 213.402344 190.5 C 213.34375 190.785156 213.3125 191.011719 213.3125 191.1875 C 213.3125 191.414062 213.355469 191.5625 213.449219 191.632812 C 213.648438 191.753906 214.058594 191.824219 214.683594 191.847656 C 215.308594 191.867188 215.980469 191.878906 216.695312 191.878906 C 217.125 191.878906 217.335938 192.058594 217.335938 192.410156 C 217.335938 192.5 217.320312 192.597656 217.292969 192.699219 L 217.199219 193.054688 C 217.03125 193.5 216.734375 193.722656 216.308594 193.722656 C 214.433594 193.632812 212.542969 193.589844 210.636719 193.589844 C 208.730469 193.589844 206.816406 193.632812 204.898438 193.722656 C 204.488281 193.722656 204.265625 193.53125 204.234375 193.144531 L 204.234375 192.964844 L 204.324219 192.589844 C 204.449219 192.101562 204.746094 191.863281 205.214844 191.878906 C 205.933594 191.878906 206.613281 191.867188 207.253906 191.847656 C 207.894531 191.824219 208.363281 191.746094 208.671875 191.613281 C 208.960938 191.449219 209.179688 191.050781 209.332031 190.414062 L 215.757812 165.375 C 215.851562 165.050781 215.894531 164.800781 215.894531 164.621094 C 215.894531 164.441406 215.859375 164.339844 215.78125 164.3125 C 215.566406 164.179688 215.152344 164.097656 214.535156 164.066406 C 213.917969 164.039062 213.242188 164.023438 212.511719 164.023438 C 212.085938 164.023438 211.871094 163.824219 211.871094 163.421875 L 211.871094 163.242188 L 212.007812 162.867188 C 212.101562 162.425781 212.382812 162.203125 212.855469 162.199219 L 225.730469 162.199219 C 227.175781 162.203125 228.558594 162.390625 229.867188 162.777344 C 231.179688 163.167969 232.324219 163.800781 233.296875 164.6875 C 234.105469 165.398438 234.691406 166.273438 235.058594 167.308594 C 235.289062 167.875 235.410156 168.457031 235.425781 169.066406 C 235.425781 169.613281 235.339844 170.15625 235.171875 170.6875 C 234.882812 171.871094 234.28125 172.945312 233.367188 173.910156 C 232.453125 174.871094 231.421875 175.691406 230.277344 176.371094 C 229.488281 176.832031 228.683594 177.214844 227.867188 177.519531 C 227.050781 177.820312 226.46875 178.011719 226.117188 178.082031 C 226.988281 178.425781 227.808594 179.089844 228.585938 180.082031 C 229.242188 180.945312 229.570312 181.972656 229.570312 183.171875 C 229.570312 183.421875 229.554688 183.675781 229.523438 183.925781 L 229.089844 187.921875 C 228.96875 188.960938 228.90625 189.863281 228.90625 190.632812 C 228.90625 191.140625 228.9375 191.582031 229 191.96875 C 229.105469 192.839844 229.5625 193.277344 230.371094 193.277344 C 231.101562 193.277344 231.773438 192.882812 232.382812 192.089844 C 232.996094 191.300781 233.445312 190.316406 233.730469 189.144531 C 233.902344 188.703125 234.199219 188.488281 234.625 188.5 L 234.988281 188.5 C 235.402344 188.503906 235.621094 188.695312 235.652344 189.078125 Z M 230.277344 170.550781 C 230.523438 169.667969 230.660156 168.773438 230.691406 167.886719 L 230.691406 167.753906 C 230.691406 167 230.453125 166.347656 229.980469 165.796875 C 229.417969 165.148438 228.683594 164.6875 227.777344 164.425781 C 226.867188 164.15625 225.875 164.023438 224.792969 164.023438 L 221.75 164.023438 C 220.972656 164.023438 220.507812 164.082031 220.355469 164.199219 C 220.203125 164.320312 220.042969 164.742188 219.875 165.464844 L 216.855469 177.21875 L 221.269531 177.21875 C 222.351562 177.21875 223.421875 177.085938 224.472656 176.816406 C 225.523438 176.550781 226.523438 176.078125 227.464844 175.394531 C 228.273438 174.820312 228.886719 174.09375 229.296875 173.21875 C 229.707031 172.347656 230.035156 171.457031 230.277344 170.550781 Z M 230.277344 170.550781 "/>
<path style="fill:none;stroke-width:15;stroke-linecap:round;stroke-linejoin:round;stroke:rgb(0%,0%,0%);stroke-opacity:1;stroke-miterlimit:10;" d="M 1026.843466 1695.308465 L 1044.715879 1599.111606 " transform="matrix(0.226213,0,0,-0.226343,0,465.7477)"/>
<path style="fill:none;stroke-width:15;stroke-linecap:round;stroke-linejoin:round;stroke:rgb(0%,0%,0%);stroke-opacity:1;stroke-miterlimit:10;" d="M 1161.499573 1695.308465 L 1146.493654 1599.111606 " transform="matrix(0.226213,0,0,-0.226343,0,465.7477)"/>
<path style=" stroke:none;fill-rule:evenodd;fill:rgb(50.19989%,25.099182%,25.099182%);fill-opacity:1;" d="M 239.035156 82.417969 L 234.796875 83.265625 L 238.1875 103.636719 L 256.851562 102.789062 L 258.546875 92.601562 L 253.457031 91.753906 L 260.246094 85.8125 L 260.246094 83.265625 Z M 239.035156 82.417969 "/>
<path style=" stroke:none;fill-rule:evenodd;fill:rgb(50.19989%,25.099182%,25.099182%);fill-opacity:1;" d="M 239.023438 82.421875 L 260.230469 84.117188 L 254.292969 91.757812 L 258.535156 95.152344 L 257.6875 102.792969 L 260.230469 83.269531 Z M 239.023438 82.421875 "/>
<path style=" stroke:none;fill-rule:evenodd;fill:rgb(0%,0%,0%);fill-opacity:1;" d="M 237.332031 82.425781 L 233.941406 83.277344 L 238.183594 103.648438 L 256.84375 101.953125 L 257.691406 104.5 C 258.117188 101.667969 259.816406 91.058594 260.238281 87.519531 C 260.664062 83.984375 260.238281 83.984375 260.238281 83.277344 Z M 237.332031 82.425781 "/>
<path style=" stroke:none;fill-rule:evenodd;fill:rgb(0%,0%,0%);fill-opacity:1;" d="M 244.738281 69.046875 L 244.738281 66.402344 C 244.25 67.011719 243.46875 67.601562 242.394531 68.167969 C 241.320312 68.738281 240.117188 69.023438 238.792969 69.023438 C 237.390625 69.023438 236.0625 68.75 234.8125 68.203125 C 233.5625 67.65625 232.480469 66.898438 231.566406 65.9375 C 230.574219 64.898438 229.824219 63.753906 229.3125 62.492188 C 228.804688 61.234375 228.546875 59.910156 228.546875 58.515625 C 228.546875 57.125 228.8125 55.785156 229.347656 54.496094 C 229.882812 53.207031 230.660156 52.066406 231.679688 51.074219 C 232.699219 50.085938 233.867188 49.316406 235.179688 48.777344 C 236.492188 48.238281 237.863281 47.964844 239.292969 47.964844 C 240.53125 47.964844 241.65625 48.230469 242.667969 48.753906 C 243.683594 49.28125 244.402344 49.816406 244.828125 50.363281 L 244.828125 41.121094 C 244.828125 40.738281 244.808594 40.363281 244.773438 40.003906 C 244.734375 39.640625 244.585938 39.363281 244.328125 39.167969 C 244.066406 38.992188 243.65625 38.890625 243.089844 38.855469 C 242.527344 38.828125 241.910156 38.8125 241.238281 38.8125 L 241.238281 37.015625 L 248.441406 36.480469 L 248.441406 64.378906 C 248.441406 64.765625 248.460938 65.136719 248.5 65.492188 C 248.539062 65.847656 248.691406 66.113281 248.957031 66.292969 C 249.222656 66.46875 249.640625 66.578125 250.203125 66.613281 C 250.765625 66.652344 251.390625 66.667969 252.078125 66.667969 L 252.078125 68.488281 Z M 244.738281 52.875 C 244.234375 51.882812 243.515625 51.066406 242.585938 50.421875 C 241.65625 49.777344 240.589844 49.453125 239.386719 49.453125 C 238.425781 49.453125 237.527344 49.679688 236.6875 50.132812 C 235.851562 50.585938 235.125 51.207031 234.515625 52.007812 C 233.847656 52.914062 233.414062 53.921875 233.222656 55.039062 C 233.035156 56.160156 232.9375 57.316406 232.9375 58.515625 C 232.9375 59.71875 233.023438 60.863281 233.1875 61.960938 C 233.355469 63.058594 233.753906 64.085938 234.378906 65.046875 C 234.898438 65.804688 235.558594 66.410156 236.355469 66.871094 C 237.15625 67.328125 238 67.558594 238.882812 67.558594 C 240.210938 67.558594 241.382812 67.191406 242.402344 66.457031 C 243.425781 65.726562 244.203125 64.789062 244.738281 63.648438 Z M 244.738281 52.875 "/>
<path style=" stroke:none;fill-rule:evenodd;fill:rgb(0%,0%,0%);fill-opacity:1;" d="M 259.292969 63.46875 C 259.136719 64.078125 259.03125 64.648438 258.972656 65.179688 C 258.941406 65.449219 258.925781 65.691406 258.925781 65.914062 C 258.925781 66.109375 258.941406 66.316406 258.972656 66.535156 C 259.019531 66.890625 259.125 67.160156 259.292969 67.335938 C 259.457031 67.515625 259.710938 67.601562 260.046875 67.601562 C 260.367188 67.601562 260.652344 67.46875 260.902344 67.203125 C 261.15625 66.9375 261.402344 66.539062 261.648438 66.015625 C 261.890625 65.488281 262.117188 64.859375 262.320312 64.125 C 262.527344 63.394531 262.746094 62.613281 262.972656 61.78125 C 263.0625 61.367188 263.324219 61.160156 263.75 61.160156 L 264.277344 61.160156 C 264.644531 61.160156 264.824219 61.324219 264.824219 61.648438 L 264.824219 61.804688 C 264.671875 62.488281 264.476562 63.246094 264.230469 64.082031 C 263.988281 64.917969 263.683594 65.699219 263.316406 66.425781 C 262.949219 67.152344 262.476562 67.773438 261.898438 68.292969 C 261.320312 68.808594 260.609375 69.066406 259.769531 69.066406 C 258.980469 69.066406 258.292969 68.917969 257.714844 68.613281 C 257.136719 68.308594 256.671875 67.890625 256.320312 67.347656 C 255.96875 66.808594 255.761719 66.1875 255.703125 65.492188 C 255.671875 65.316406 255.65625 65.121094 255.65625 64.914062 C 255.65625 64.410156 255.71875 63.898438 255.839844 63.382812 L 261.691406 40.632812 C 261.8125 40.148438 261.898438 39.777344 261.945312 39.523438 L 261.945312 39.453125 C 261.945312 39.324219 261.90625 39.226562 261.828125 39.167969 C 261.644531 39.050781 261.304688 38.96875 260.800781 38.925781 C 260.296875 38.878906 259.71875 38.855469 259.0625 38.855469 C 258.835938 38.855469 258.667969 38.785156 258.558594 38.636719 C 258.46875 38.542969 258.421875 38.4375 258.421875 38.300781 C 258.421875 38.214844 258.445312 38.132812 258.492188 38.054688 L 258.558594 37.726562 C 258.605469 37.515625 258.710938 37.363281 258.878906 37.257812 C 259.046875 37.15625 259.230469 37.082031 259.429688 37.03125 L 265.398438 36.546875 L 265.535156 36.546875 C 265.898438 36.546875 266.085938 36.710938 266.085938 37.03125 C 266.085938 37.125 266.066406 37.222656 266.039062 37.324219 Z M 259.292969 63.46875 "/>
<path style=" stroke:none;fill-rule:evenodd;fill:rgb(0%,0%,0%);fill-opacity:1;" d="M 618.40625 290.269531 C 618.40625 294.769531 614.761719 298.417969 610.261719 298.417969 C 605.765625 298.417969 602.121094 294.769531 602.121094 290.269531 C 602.121094 285.769531 605.765625 282.121094 610.261719 282.121094 C 614.761719 282.121094 618.40625 285.769531 618.40625 290.269531 Z M 618.40625 290.269531 "/>
<path style="fill:none;stroke-width:15;stroke-linecap:round;stroke-linejoin:round;stroke:rgb(0%,0%,0%);stroke-opacity:1;stroke-miterlimit:10;" d="M 1088.852966 1603.564206 L 2697.732687 775.277152 " transform="matrix(0.226213,0,0,-0.226343,0,465.7477)"/>
<path style=" stroke:none;fill-rule:evenodd;fill:rgb(0%,0%,0%);fill-opacity:1;" d="M 436.210938 164.636719 C 436.042969 165.289062 435.703125 165.78125 435.195312 166.113281 C 434.683594 166.449219 434.167969 166.613281 433.648438 166.613281 C 433.117188 166.613281 432.675781 166.445312 432.324219 166.101562 C 432.035156 165.867188 431.890625 165.539062 431.890625 165.125 C 431.890625 164.917969 431.917969 164.710938 431.980469 164.503906 C 432.117188 163.984375 432.359375 163.578125 432.699219 163.28125 C 433.042969 162.988281 433.277344 162.824219 433.398438 162.792969 C 433.050781 162.527344 432.324219 162.394531 431.226562 162.390625 C 430.066406 162.394531 429.035156 162.863281 428.128906 163.804688 C 427.21875 164.746094 426.402344 166.015625 425.667969 167.613281 L 422.351562 180.320312 C 422.21875 180.867188 421.9375 181.277344 421.519531 181.550781 C 421.101562 181.828125 420.675781 181.960938 420.25 181.960938 C 419.792969 181.960938 419.441406 181.816406 419.199219 181.519531 C 419 181.328125 418.902344 181.058594 418.902344 180.71875 C 418.902344 180.585938 418.914062 180.425781 418.945312 180.230469 L 422.46875 166.480469 C 422.710938 165.519531 422.832031 164.6875 422.832031 163.992188 L 422.832031 163.457031 C 422.757812 162.75 422.402344 162.394531 421.757812 162.390625 C 421.085938 162.394531 420.527344 162.933594 420.078125 164.015625 C 419.628906 165.097656 419.191406 166.503906 418.761719 168.234375 C 418.59375 168.636719 418.3125 168.84375 417.917969 168.855469 L 417.390625 168.855469 C 417.023438 168.859375 416.839844 168.671875 416.839844 168.300781 L 416.839844 168.144531 C 417.023438 167.453125 417.230469 166.691406 417.460938 165.871094 C 417.6875 165.046875 417.996094 164.269531 418.375 163.539062 C 418.757812 162.804688 419.238281 162.183594 419.816406 161.671875 C 420.394531 161.160156 421.117188 160.90625 421.988281 160.902344 C 423.148438 160.90625 424.082031 161.234375 424.789062 161.894531 C 425.496094 162.554688 425.898438 163.199219 425.988281 163.835938 C 426.523438 163.125 427.265625 162.460938 428.21875 161.839844 C 429.171875 161.214844 430.265625 160.90625 431.5 160.902344 C 432.109375 160.90625 432.730469 160.96875 433.363281 161.09375 C 433.996094 161.21875 434.554688 161.425781 435.03125 161.714844 C 435.511719 162.003906 435.867188 162.386719 436.097656 162.859375 C 436.234375 163.15625 436.3125 163.488281 436.324219 163.859375 C 436.324219 164.082031 436.289062 164.339844 436.210938 164.636719 Z M 436.210938 164.636719 "/>
<path style=" stroke:none;fill-rule:evenodd;fill:rgb(0%,0%,0%);fill-opacity:1;" d="M 414.617188 235.929688 C 414.453125 236.597656 414.113281 237.097656 413.601562 237.429688 C 413.089844 237.761719 412.578125 237.929688 412.058594 237.929688 C 411.527344 237.929688 411.082031 237.757812 410.734375 237.417969 C 410.472656 237.167969 410.335938 236.84375 410.320312 236.441406 C 410.320312 236.277344 410.351562 236.070312 410.410156 235.820312 C 410.578125 235.257812 410.839844 234.832031 411.1875 234.542969 C 411.539062 234.253906 411.785156 234.085938 411.921875 234.042969 C 411.632812 233.820312 411.039062 233.710938 410.136719 233.707031 C 409.34375 233.710938 408.636719 234.121094 408.011719 234.941406 C 407.386719 235.765625 406.921875 236.753906 406.617188 237.90625 L 404.511719 246.035156 C 404.296875 246.851562 404.136719 247.628906 404.03125 248.371094 C 403.972656 248.621094 403.941406 248.84375 403.941406 249.035156 C 403.941406 249.496094 404.015625 249.933594 404.167969 250.347656 C 404.320312 250.792969 404.550781 251.148438 404.855469 251.414062 C 405.160156 251.679688 405.550781 251.8125 406.023438 251.8125 C 406.632812 251.8125 407.21875 251.65625 407.78125 251.335938 C 408.347656 251.019531 408.867188 250.589844 409.339844 250.046875 C 409.808594 249.507812 410.230469 248.878906 410.59375 248.160156 C 410.960938 247.441406 411.25 246.703125 411.464844 245.949219 C 411.554688 245.566406 411.816406 245.371094 412.242188 245.371094 L 412.765625 245.371094 C 413.164062 245.371094 413.363281 245.519531 413.363281 245.816406 C 413.363281 245.90625 413.339844 245.988281 413.292969 246.058594 C 413.082031 246.949219 412.734375 247.828125 412.253906 248.691406 C 411.773438 249.558594 411.214844 250.324219 410.574219 250.992188 C 409.933594 251.660156 409.203125 252.207031 408.390625 252.632812 C 407.574219 253.066406 406.699219 253.277344 405.769531 253.277344 C 404.824219 253.277344 404.007812 253.074219 403.324219 252.667969 C 402.640625 252.261719 402.082031 251.730469 401.652344 251.078125 C 401.519531 250.917969 401.410156 250.75 401.335938 250.582031 C 401.257812 250.410156 401.234375 250.386719 401.265625 250.503906 C 400.898438 251.109375 400.320312 251.726562 399.527344 252.347656 C 398.734375 252.96875 397.820312 253.277344 396.78125 253.277344 C 396.203125 253.277344 395.632812 253.203125 395.066406 253.054688 C 394.503906 252.910156 394.011719 252.679688 393.59375 252.371094 C 393.175781 252.058594 392.859375 251.679688 392.644531 251.234375 C 392.539062 250.96875 392.484375 250.679688 392.484375 250.367188 C 392.484375 250.148438 392.515625 249.886719 392.574219 249.589844 C 392.742188 248.925781 393.085938 248.425781 393.605469 248.09375 C 394.125 247.761719 394.640625 247.59375 395.160156 247.59375 C 395.695312 247.59375 396.152344 247.765625 396.53125 248.101562 C 396.792969 248.355469 396.921875 248.683594 396.921875 249.082031 C 396.921875 249.289062 396.890625 249.496094 396.828125 249.703125 C 396.691406 250.222656 396.445312 250.640625 396.085938 250.957031 C 395.730469 251.277344 395.472656 251.453125 395.320312 251.480469 C 395.609375 251.71875 396.195312 251.828125 397.078125 251.8125 C 397.875 251.8125 398.589844 251.398438 399.230469 250.570312 C 399.871094 249.742188 400.335938 248.75 400.625 247.59375 L 402.75 239.417969 C 402.964844 238.648438 403.132812 237.894531 403.253906 237.152344 C 403.285156 236.914062 403.300781 236.691406 403.300781 236.484375 C 403.300781 236.027344 403.234375 235.597656 403.09375 235.195312 C 402.941406 234.753906 402.707031 234.394531 402.386719 234.121094 C 402.066406 233.847656 401.667969 233.710938 401.195312 233.707031 C 400.585938 233.710938 399.996094 233.871094 399.421875 234.1875 C 398.851562 234.507812 398.332031 234.929688 397.859375 235.464844 C 397.386719 235.996094 396.96875 236.617188 396.601562 237.320312 C 396.234375 238.023438 395.96875 238.769531 395.800781 239.550781 C 395.632812 239.953125 395.351562 240.160156 394.953125 240.171875 L 394.449219 240.171875 C 394.085938 240.171875 393.902344 239.988281 393.902344 239.617188 L 393.902344 239.460938 C 394.132812 238.546875 394.484375 237.652344 394.953125 236.785156 C 395.425781 235.917969 395.992188 235.152344 396.644531 234.488281 C 397.300781 233.820312 398.035156 233.277344 398.84375 232.855469 C 399.648438 232.433594 400.527344 232.222656 401.46875 232.21875 C 402.386719 232.222656 403.195312 232.421875 403.894531 232.820312 C 404.597656 233.222656 405.167969 233.753906 405.609375 234.417969 C 405.703125 234.582031 405.785156 234.757812 405.863281 234.941406 C 405.9375 235.128906 405.960938 235.175781 405.929688 235.085938 C 406.3125 234.433594 406.898438 233.796875 407.691406 233.164062 C 408.484375 232.535156 409.390625 232.222656 410.410156 232.21875 C 410.992188 232.222656 411.566406 232.292969 412.136719 232.433594 C 412.710938 232.574219 413.207031 232.796875 413.625 233.109375 C 414.046875 233.421875 414.355469 233.804688 414.550781 234.261719 C 414.65625 234.53125 414.710938 234.835938 414.710938 235.175781 C 414.710938 235.398438 414.679688 235.648438 414.617188 235.929688 Z M 414.617188 235.929688 "/>
<path style="fill:none;stroke-width:15;stroke-linecap:round;stroke-linejoin:round;stroke:rgb(0%,0%,0%);stroke-opacity:1;stroke-miterlimit:10;" d="M 2396.198329 817.231684 C 2400.895233 850.936827 2411.204248 883.623739 2426.693672 913.911771 " transform="matrix(0.226213,0,0,-0.226343,0,465.7477)"/>
<path style=" stroke:none;fill-rule:evenodd;fill:rgb(0%,0%,0%);fill-opacity:1;" d="M 500.308594 242.09375 C 500.675781 243.503906 500.855469 244.9375 500.855469 246.402344 C 500.855469 246.863281 500.839844 247.308594 500.8125 247.734375 C 500.660156 249.691406 500.332031 251.652344 499.828125 253.621094 C 499.28125 255.609375 498.585938 257.574219 497.75 259.519531 C 496.910156 261.46875 495.796875 263.339844 494.410156 265.128906 C 493.9375 265.738281 493.414062 266.339844 492.84375 266.929688 C 492.269531 267.523438 491.65625 268.050781 491.003906 268.519531 C 490.347656 268.984375 489.664062 269.367188 488.957031 269.660156 C 488.246094 269.957031 487.503906 270.105469 486.726562 270.105469 C 485.933594 270.105469 485.25 269.953125 484.679688 269.648438 C 484.105469 269.347656 483.617188 268.957031 483.203125 268.472656 C 482.792969 267.992188 482.453125 267.457031 482.1875 266.863281 C 481.921875 266.273438 481.703125 265.664062 481.535156 265.039062 C 481.152344 263.664062 480.960938 262.242188 480.960938 260.773438 C 480.960938 260.304688 480.992188 259.835938 481.054688 259.375 C 481.175781 257.453125 481.503906 255.503906 482.035156 253.535156 C 482.539062 251.550781 483.21875 249.589844 484.074219 247.648438 C 484.925781 245.707031 486.0625 243.832031 487.480469 242.027344 C 487.953125 241.421875 488.472656 240.816406 489.035156 240.214844 C 489.597656 239.617188 490.203125 239.085938 490.839844 238.617188 C 491.480469 238.152344 492.15625 237.769531 492.867188 237.472656 C 493.574219 237.179688 494.324219 237.027344 495.117188 237.027344 C 495.910156 237.027344 496.589844 237.183594 497.152344 237.484375 C 497.714844 237.789062 498.214844 238.179688 498.648438 238.648438 C 499.085938 239.125 499.429688 239.667969 499.679688 240.273438 C 499.933594 240.882812 500.140625 241.488281 500.308594 242.09375 Z M 497.222656 242.605469 C 497.160156 242.027344 497.082031 241.488281 496.992188 240.984375 C 496.902344 240.484375 496.765625 240.042969 496.59375 239.671875 C 496.417969 239.304688 496.191406 239.015625 495.917969 238.816406 C 495.644531 238.617188 495.292969 238.519531 494.867188 238.519531 C 493.984375 238.519531 493.167969 238.929688 492.421875 239.75 C 491.671875 240.574219 490.949219 241.554688 490.246094 242.691406 C 489.242188 244.320312 488.464844 245.996094 487.914062 247.714844 C 487.363281 249.433594 486.894531 251.089844 486.496094 252.6875 L 495.804688 252.6875 C 496.214844 251.019531 496.597656 249.3125 496.945312 247.582031 C 497.191406 246.410156 497.3125 245.253906 497.3125 244.113281 C 497.3125 243.609375 497.28125 243.109375 497.222656 242.605469 Z M 486.015625 254.488281 C 485.605469 256.164062 485.246094 257.851562 484.941406 259.554688 C 484.699219 260.785156 484.574219 262.011719 484.574219 263.242188 C 484.574219 263.703125 484.589844 264.144531 484.621094 264.574219 C 484.652344 265.152344 484.722656 265.695312 484.828125 266.195312 C 484.933594 266.699219 485.074219 267.132812 485.25 267.496094 C 485.425781 267.859375 485.660156 268.140625 485.949219 268.339844 C 486.238281 268.539062 486.589844 268.640625 487 268.640625 C 487.867188 268.640625 488.679688 268.234375 489.433594 267.417969 C 490.191406 266.605469 490.902344 265.625 491.574219 264.484375 C 492.578125 262.828125 493.355469 261.148438 493.90625 259.445312 C 494.457031 257.742188 494.925781 256.089844 495.324219 254.488281 Z M 486.015625 254.488281 "/>
<path style=" stroke:none;fill-rule:evenodd;fill:rgb(0%,0%,0%);fill-opacity:1;" d="M 643.917969 229.007812 C 643.582031 230.207031 643.011719 231.316406 642.203125 232.328125 C 641.394531 233.34375 640.433594 234.222656 639.320312 234.960938 C 638.117188 235.792969 636.832031 236.417969 635.46875 236.839844 C 634.105469 237.261719 632.75 237.472656 631.410156 237.472656 L 624.617188 237.472656 L 621.757812 248.578125 C 621.667969 248.90625 621.621094 249.164062 621.621094 249.355469 C 621.621094 249.535156 621.660156 249.644531 621.738281 249.6875 C 621.949219 249.824219 622.371094 249.902344 622.992188 249.921875 C 623.621094 249.945312 624.289062 249.957031 625.003906 249.957031 C 625.433594 249.957031 625.648438 250.164062 625.648438 250.578125 L 625.648438 250.734375 L 625.554688 251.132812 C 625.386719 251.578125 625.089844 251.800781 624.664062 251.800781 C 622.757812 251.710938 620.84375 251.664062 618.925781 251.664062 C 616.988281 251.664062 615.050781 251.710938 613.117188 251.800781 C 612.703125 251.800781 612.484375 251.609375 612.453125 251.222656 L 612.453125 251.042969 L 612.542969 250.667969 C 612.664062 250.179688 612.964844 249.941406 613.433594 249.957031 C 614.152344 249.957031 614.832031 249.945312 615.46875 249.921875 C 616.113281 249.902344 616.582031 249.824219 616.886719 249.6875 C 617.179688 249.527344 617.398438 249.128906 617.550781 248.488281 L 623.976562 223.453125 C 624.070312 223.128906 624.113281 222.878906 624.113281 222.695312 C 624.113281 222.519531 624.078125 222.417969 624 222.390625 C 623.785156 222.257812 623.371094 222.175781 622.753906 222.144531 C 622.136719 222.117188 621.460938 222.097656 620.730469 222.097656 C 620.304688 222.097656 620.089844 221.898438 620.089844 221.496094 L 620.089844 221.320312 L 620.226562 220.945312 C 620.320312 220.5 620.601562 220.28125 621.074219 220.273438 L 635.730469 220.273438 C 637.074219 220.28125 638.320312 220.488281 639.46875 220.914062 C 640.621094 221.335938 641.609375 221.96875 642.429688 222.808594 C 643.175781 223.59375 643.703125 224.53125 644.007812 225.609375 C 644.101562 226.113281 644.144531 226.625 644.144531 227.140625 C 644.144531 227.734375 644.070312 228.355469 643.917969 229.007812 Z M 639.046875 228.894531 C 639.304688 227.964844 639.480469 227.0625 639.574219 226.1875 L 639.574219 225.785156 C 639.574219 225.105469 639.382812 224.484375 639 223.917969 C 638.5 223.253906 637.828125 222.789062 636.988281 222.511719 C 636.152344 222.238281 635.242188 222.097656 634.269531 222.097656 L 629.96875 222.097656 C 629.191406 222.097656 628.726562 222.160156 628.574219 222.277344 C 628.421875 222.398438 628.261719 222.820312 628.09375 223.542969 L 624.914062 235.804688 L 630.632812 235.804688 C 631.621094 235.804688 632.613281 235.667969 633.605469 235.382812 C 634.59375 235.105469 635.523438 234.621094 636.394531 233.9375 C 637.171875 233.273438 637.746094 232.496094 638.121094 231.609375 C 638.496094 230.71875 638.800781 229.816406 639.046875 228.894531 Z M 639.046875 228.894531 "/>
<path style=" stroke:none;fill-rule:nonzero;fill:rgb(0%,0%,94.099426%);fill-opacity:1;" d="M 610.796875 287.753906 L 779.035156 312.304688 L 778.296875 317.339844 L 610.058594 292.789062 C 608.667969 292.589844 607.703125 291.292969 607.910156 289.90625 C 608.113281 288.511719 609.402344 287.546875 610.796875 287.753906 Z M 802.816406 318.347656 L 774.066406 303.859375 L 779.007812 312.296875 L 778.273438 317.339844 L 771.128906 324.015625 Z M 802.816406 318.347656 "/>
<path style=" stroke:none;fill-rule:evenodd;fill:rgb(0%,0%,0%);fill-opacity:1;" d="M 771.019531 282.253906 L 771.019531 279.613281 C 770.535156 280.21875 769.753906 280.808594 768.675781 281.378906 C 767.601562 281.949219 766.402344 282.234375 765.074219 282.234375 C 763.671875 282.234375 762.347656 281.960938 761.097656 281.414062 C 759.847656 280.867188 758.765625 280.109375 757.851562 279.144531 C 756.859375 278.109375 756.109375 276.964844 755.597656 275.703125 C 755.085938 274.445312 754.832031 273.121094 754.832031 271.726562 C 754.832031 270.335938 755.097656 268.996094 755.632812 267.707031 C 756.164062 266.417969 756.941406 265.277344 757.964844 264.285156 C 758.984375 263.292969 760.152344 262.527344 761.464844 261.988281 C 762.773438 261.445312 764.148438 261.175781 765.578125 261.175781 C 766.8125 261.175781 767.9375 261.441406 768.953125 261.964844 C 769.964844 262.492188 770.6875 263.027344 771.113281 263.574219 L 771.113281 254.332031 C 771.113281 253.949219 771.09375 253.578125 771.054688 253.210938 C 771.019531 252.847656 770.871094 252.570312 770.609375 252.378906 C 770.351562 252.199219 769.9375 252.097656 769.375 252.070312 C 768.8125 252.039062 768.195312 252.023438 767.523438 252.023438 L 767.523438 250.222656 L 774.726562 249.6875 L 774.726562 277.589844 C 774.726562 277.976562 774.746094 278.347656 774.78125 278.703125 C 774.820312 279.058594 774.972656 279.324219 775.242188 279.503906 C 775.507812 279.679688 775.921875 279.789062 776.488281 279.824219 C 777.050781 279.863281 777.675781 279.878906 778.359375 279.878906 L 778.359375 281.699219 Z M 771.019531 266.085938 C 770.519531 265.09375 769.800781 264.273438 768.871094 263.628906 C 767.941406 262.988281 766.875 262.664062 765.671875 262.664062 C 764.710938 262.664062 763.8125 262.890625 762.972656 263.34375 C 762.136719 263.792969 761.410156 264.417969 760.800781 265.21875 C 760.128906 266.121094 759.699219 267.132812 759.507812 268.25 C 759.316406 269.371094 759.222656 270.527344 759.222656 271.726562 C 759.222656 272.925781 759.308594 274.074219 759.472656 275.171875 C 759.640625 276.269531 760.039062 277.296875 760.664062 278.257812 C 761.183594 279.015625 761.839844 279.621094 762.640625 280.082031 C 763.441406 280.539062 764.285156 280.769531 765.167969 280.765625 C 766.492188 280.769531 767.667969 280.402344 768.6875 279.667969 C 769.710938 278.9375 770.488281 278 771.019531 276.859375 Z M 771.019531 266.085938 "/>
<path style=" stroke:none;fill-rule:evenodd;fill:rgb(0%,0%,0%);fill-opacity:1;" d="M 807.996094 281.945312 L 781.628906 281.945312 L 781.628906 279.011719 L 786.019531 279.011719 L 786.019531 253.15625 L 781.628906 253.15625 L 781.628906 250.15625 L 807.449219 250.15625 L 808.957031 261.972656 L 805.914062 261.972656 C 805.792969 261.101562 805.6875 260.339844 805.59375 259.6875 C 805.503906 259.035156 805.375 258.40625 805.203125 257.800781 C 805.039062 257.195312 804.824219 256.632812 804.566406 256.121094 C 804.308594 255.609375 803.976562 255.171875 803.582031 254.800781 C 802.789062 254.074219 801.847656 253.621094 800.757812 253.433594 C 799.667969 253.25 798.558594 253.15625 797.433594 253.15625 L 793.496094 253.15625 L 793.496094 263.996094 L 794.160156 263.996094 C 794.785156 263.996094 795.382812 263.941406 795.957031 263.832031 C 796.527344 263.71875 797.003906 263.46875 797.371094 263.074219 C 797.75 262.683594 797.976562 262.113281 798.046875 261.363281 C 798.125 260.617188 798.164062 259.730469 798.164062 258.710938 L 801.183594 258.710938 L 801.183594 272.257812 L 798.164062 272.257812 C 798.164062 271.253906 798.125 270.371094 798.046875 269.617188 C 797.976562 268.863281 797.75 268.289062 797.371094 267.894531 C 797.003906 267.503906 796.527344 267.246094 795.957031 267.117188 C 795.382812 266.992188 794.785156 266.929688 794.160156 266.929688 L 793.496094 266.929688 L 793.496094 279.011719 L 797.820312 279.011719 C 799.011719 279.015625 800.167969 278.878906 801.296875 278.601562 C 802.421875 278.328125 803.421875 277.808594 804.289062 277.035156 C 804.714844 276.636719 805.082031 276.132812 805.390625 275.527344 C 805.691406 274.917969 805.964844 274.253906 806.199219 273.527344 C 806.433594 272.800781 806.628906 272.050781 806.785156 271.273438 C 806.9375 270.496094 807.09375 269.632812 807.261719 268.683594 L 810.28125 268.683594 Z M 807.996094 281.945312 "/>
<path style="fill:none;stroke-width:0.22512;stroke-linecap:round;stroke-linejoin:round;stroke:rgb(0%,0%,0%);stroke-opacity:1;stroke-miterlimit:10;" d="M 16.038097 7.633162 L 14.934669 2.338303 " transform="matrix(4.524255,0.000000646178,0,-4.526797,746.35753,304.299858)"/>
<path style="fill:none;stroke-width:0.22512;stroke-linecap:round;stroke-linejoin:round;stroke:rgb(0%,0%,0%);stroke-opacity:1;stroke-miterlimit:10;" d="M 17.140661 7.633162 L 16.038097 2.338303 " transform="matrix(4.524255,0.000000646178,0,-4.526797,746.35753,304.299858)"/>
<path style=" stroke:none;fill-rule:nonzero;fill:rgb(0%,0%,94.099426%);fill-opacity:1;" d="M 612.972656 290.277344 L 612.863281 334.765625 L 607.773438 334.753906 L 607.882812 290.265625 C 607.886719 288.859375 609.027344 287.722656 610.433594 287.726562 C 611.835938 287.726562 612.976562 288.871094 612.972656 290.277344 Z M 610.261719 359.179688 L 620.515625 328.648438 L 612.863281 334.742188 L 607.773438 334.726562 L 600.15625 328.597656 Z M 610.261719 359.179688 "/>
<path style=" stroke:none;fill-rule:nonzero;fill:rgb(0%,0%,94.099426%);fill-opacity:1;" d="M 611.390625 287.988281 L 776.199219 369.609375 L 773.941406 374.175781 L 609.132812 292.550781 C 607.875 291.929688 607.359375 290.402344 607.980469 289.140625 C 608.605469 287.882812 610.132812 287.363281 611.390625 287.988281 Z M 796.941406 382.722656 L 774.089844 360.042969 L 776.175781 369.597656 L 773.917969 374.164062 L 765.058594 378.296875 Z M 796.941406 382.722656 "/>
<path style="fill:none;stroke-width:15;stroke-linecap:round;stroke-linejoin:round;stroke:rgb(0%,0%,0%);stroke-opacity:1;stroke-miterlimit:10;" d="M 2998.576324 728.576632 C 2993.534059 696.079559 2983.242312 664.600716 2968.132785 635.382689 " transform="matrix(0.226213,0,0,-0.226343,0,465.7477)"/>
<path style=" stroke:none;fill-rule:evenodd;fill:rgb(0%,0%,0%);fill-opacity:1;" d="M 738.984375 316.265625 C 739.351562 317.671875 739.53125 319.109375 739.53125 320.574219 C 739.53125 321.035156 739.515625 321.476562 739.484375 321.90625 C 739.335938 323.863281 739.007812 325.824219 738.503906 327.792969 C 737.957031 329.777344 737.261719 331.746094 736.421875 333.691406 C 735.585938 335.640625 734.472656 337.507812 733.082031 339.300781 C 732.613281 339.90625 732.089844 340.507812 731.515625 341.101562 C 730.945312 341.691406 730.332031 342.222656 729.675781 342.6875 C 729.023438 343.15625 728.339844 343.535156 727.628906 343.832031 C 726.921875 344.128906 726.175781 344.273438 725.398438 344.273438 C 724.609375 344.273438 723.925781 344.125 723.351562 343.820312 C 722.78125 343.515625 722.289062 343.125 721.878906 342.644531 C 721.46875 342.164062 721.128906 341.625 720.863281 341.035156 C 720.59375 340.441406 720.378906 339.835938 720.210938 339.210938 C 719.828125 337.835938 719.636719 336.414062 719.636719 334.945312 C 719.636719 334.472656 719.667969 334.007812 719.730469 333.546875 C 719.851562 331.621094 720.179688 329.675781 720.710938 327.703125 C 721.214844 325.722656 721.894531 323.757812 722.746094 321.816406 C 723.601562 319.878906 724.738281 318.003906 726.15625 316.195312 C 726.628906 315.589844 727.148438 314.988281 727.710938 314.386719 C 728.273438 313.789062 728.875 313.253906 729.515625 312.789062 C 730.15625 312.320312 730.832031 311.941406 731.539062 311.644531 C 732.25 311.347656 733 311.199219 733.792969 311.199219 C 734.585938 311.199219 735.265625 311.351562 735.828125 311.65625 C 736.390625 311.960938 736.890625 312.347656 737.324219 312.820312 C 737.761719 313.296875 738.105469 313.839844 738.355469 314.445312 C 738.605469 315.050781 738.816406 315.65625 738.984375 316.265625 Z M 735.894531 316.777344 C 735.835938 316.195312 735.757812 315.65625 735.667969 315.15625 C 735.574219 314.652344 735.441406 314.214844 735.265625 313.84375 C 735.09375 313.476562 734.867188 313.1875 734.59375 312.988281 C 734.316406 312.789062 733.96875 312.6875 733.542969 312.6875 C 732.65625 312.6875 731.839844 313.101562 731.09375 313.917969 C 730.347656 314.742188 729.625 315.726562 728.921875 316.863281 C 727.917969 318.492188 727.140625 320.167969 726.589844 321.882812 C 726.039062 323.605469 725.566406 325.261719 725.171875 326.859375 L 734.476562 326.859375 C 734.890625 325.1875 735.273438 323.484375 735.621094 321.75 C 735.867188 320.582031 735.988281 319.425781 735.988281 318.285156 C 735.988281 317.78125 735.957031 317.277344 735.894531 316.777344 Z M 724.691406 328.660156 C 724.28125 330.332031 723.921875 332.023438 723.617188 333.722656 C 723.371094 334.953125 723.25 336.183594 723.25 337.410156 C 723.25 337.871094 723.265625 338.316406 723.296875 338.742188 C 723.328125 339.324219 723.394531 339.863281 723.503906 340.367188 C 723.609375 340.871094 723.75 341.304688 723.925781 341.667969 C 724.101562 342.03125 724.332031 342.3125 724.625 342.511719 C 724.914062 342.710938 725.265625 342.808594 725.675781 342.808594 C 726.542969 342.808594 727.355469 342.402344 728.109375 341.589844 C 728.867188 340.773438 729.578125 339.796875 730.25 338.65625 C 731.253906 336.996094 732.03125 335.316406 732.582031 333.613281 C 733.128906 331.910156 733.601562 330.257812 733.996094 328.660156 Z M 724.691406 328.660156 "/>
<path style=" stroke:none;fill-rule:evenodd;fill:rgb(0%,0%,0%);fill-opacity:1;" d="M 552.664062 388.796875 L 552.664062 386.152344 C 552.175781 386.761719 551.398438 387.351562 550.320312 387.917969 C 549.246094 388.488281 548.046875 388.773438 546.71875 388.773438 C 545.316406 388.773438 543.992188 388.5 542.742188 387.953125 C 541.492188 387.40625 540.410156 386.648438 539.492188 385.683594 C 538.503906 384.648438 537.753906 383.503906 537.242188 382.242188 C 536.730469 380.984375 536.472656 379.660156 536.472656 378.265625 C 536.472656 376.875 536.742188 375.535156 537.273438 374.246094 C 537.808594 372.957031 538.585938 371.816406 539.605469 370.824219 C 540.628906 369.835938 541.796875 369.066406 543.105469 368.527344 C 544.417969 367.988281 545.789062 367.714844 547.222656 367.714844 C 548.457031 367.714844 549.582031 367.980469 550.597656 368.503906 C 551.609375 369.03125 552.332031 369.566406 552.757812 370.113281 L 552.757812 360.871094 C 552.757812 360.488281 552.738281 360.117188 552.699219 359.75 C 552.660156 359.386719 552.511719 359.113281 552.253906 358.917969 C 551.996094 358.742188 551.582031 358.636719 551.019531 358.609375 C 550.457031 358.578125 549.839844 358.5625 549.167969 358.5625 L 549.167969 356.761719 L 556.371094 356.226562 L 556.371094 384.128906 C 556.371094 384.515625 556.390625 384.886719 556.425781 385.242188 C 556.464844 385.597656 556.617188 385.863281 556.882812 386.042969 C 557.152344 386.21875 557.566406 386.328125 558.128906 386.363281 C 558.695312 386.402344 559.320312 386.417969 560.003906 386.417969 L 560.003906 388.238281 Z M 552.664062 372.625 C 552.164062 371.632812 551.445312 370.8125 550.515625 370.171875 C 549.585938 369.527344 548.519531 369.203125 547.3125 369.203125 C 546.355469 369.203125 545.453125 369.429688 544.617188 369.882812 C 543.777344 370.332031 543.054688 370.957031 542.445312 371.757812 C 541.773438 372.660156 541.34375 373.671875 541.152344 374.789062 C 540.960938 375.910156 540.867188 377.066406 540.867188 378.265625 C 540.867188 379.464844 540.949219 380.613281 541.117188 381.710938 C 541.285156 382.808594 541.679688 383.835938 542.304688 384.796875 C 542.824219 385.554688 543.484375 386.160156 544.285156 386.621094 C 545.085938 387.078125 545.929688 387.308594 546.808594 387.308594 C 548.136719 387.308594 549.3125 386.941406 550.332031 386.207031 C 551.355469 385.476562 552.132812 384.539062 552.664062 383.398438 Z M 552.664062 372.625 "/>
<path style=" stroke:none;fill-rule:evenodd;fill:rgb(0%,0%,0%);fill-opacity:1;" d="M 589.640625 388.484375 L 563.273438 388.484375 L 563.273438 385.550781 L 567.664062 385.550781 L 567.664062 359.695312 L 563.273438 359.695312 L 563.273438 356.695312 L 589.09375 356.695312 L 590.597656 368.515625 L 587.558594 368.515625 C 587.4375 367.640625 587.332031 366.878906 587.238281 366.226562 C 587.148438 365.574219 587.019531 364.945312 586.847656 364.339844 C 586.679688 363.734375 586.46875 363.171875 586.210938 362.660156 C 585.953125 362.148438 585.621094 361.710938 585.222656 361.339844 C 584.433594 360.613281 583.492188 360.160156 582.402344 359.972656 C 581.3125 359.789062 580.203125 359.695312 579.074219 359.695312 L 575.140625 359.695312 L 575.140625 370.535156 L 575.804688 370.535156 C 576.429688 370.535156 577.027344 370.480469 577.601562 370.371094 C 578.171875 370.257812 578.644531 370.007812 579.015625 369.613281 C 579.390625 369.222656 579.617188 368.652344 579.691406 367.90625 C 579.769531 367.15625 579.808594 366.273438 579.808594 365.25 L 582.828125 365.25 L 582.828125 378.800781 L 579.808594 378.800781 C 579.808594 377.792969 579.769531 376.914062 579.691406 376.15625 C 579.617188 375.402344 579.390625 374.828125 579.015625 374.433594 C 578.644531 374.042969 578.171875 373.785156 577.601562 373.65625 C 577.027344 373.53125 576.429688 373.46875 575.804688 373.46875 L 575.140625 373.46875 L 575.140625 385.550781 L 579.464844 385.550781 C 580.65625 385.554688 581.8125 385.417969 582.9375 385.140625 C 584.066406 384.867188 585.066406 384.347656 585.933594 383.574219 C 586.359375 383.175781 586.726562 382.675781 587.035156 382.066406 C 587.335938 381.460938 587.609375 380.792969 587.84375 380.066406 C 588.078125 379.34375 588.273438 378.589844 588.425781 377.8125 C 588.582031 377.035156 588.738281 376.171875 588.90625 375.222656 L 591.925781 375.222656 Z M 589.640625 388.484375 "/>
<path style="fill:none;stroke-width:0.22512;stroke-linecap:round;stroke-linejoin:round;stroke:rgb(0%,0%,0%);stroke-opacity:1;stroke-miterlimit:10;" d="M 16.74709 7.286346 L 16.747088 3.662095 " transform="matrix(4.524277,0.000000300664,-0.00000309219,-4.526797,528.001081,410.839273)"/>
<path style="fill:none;stroke-width:0.22512;stroke-linecap:round;stroke-linejoin:round;stroke:rgb(0%,0%,0%);stroke-opacity:1;stroke-miterlimit:10;" d="M 14.934816 3.662095 L 18.559359 3.662095 " transform="matrix(4.524277,0.000000300664,-0.00000309219,-4.526797,528.001081,410.839273)"/>
<path style=" stroke:none;fill-rule:evenodd;fill:rgb(0%,0%,0%);fill-opacity:1;" d="M 801.773438 423.863281 L 801.773438 421.21875 C 801.289062 421.828125 800.507812 422.417969 799.429688 422.988281 C 798.355469 423.554688 797.15625 423.839844 795.828125 423.839844 C 794.425781 423.839844 793.101562 423.566406 791.851562 423.019531 C 790.601562 422.472656 789.519531 421.714844 788.605469 420.753906 C 787.613281 419.71875 786.863281 418.570312 786.351562 417.3125 C 785.839844 416.054688 785.585938 414.726562 785.585938 413.332031 C 785.585938 411.941406 785.851562 410.601562 786.386719 409.3125 C 786.917969 408.027344 787.695312 406.886719 788.71875 405.894531 C 789.738281 404.902344 790.90625 404.136719 792.214844 403.59375 C 793.527344 403.054688 794.902344 402.78125 796.332031 402.78125 C 797.566406 402.78125 798.691406 403.046875 799.707031 403.570312 C 800.71875 404.097656 801.441406 404.632812 801.867188 405.179688 L 801.867188 395.9375 C 801.867188 395.558594 801.847656 395.183594 801.808594 394.820312 C 801.773438 394.457031 801.625 394.179688 801.363281 393.988281 C 801.105469 393.808594 800.691406 393.707031 800.128906 393.675781 C 799.566406 393.648438 798.949219 393.628906 798.277344 393.628906 L 798.277344 391.832031 L 805.480469 391.296875 L 805.480469 419.199219 C 805.480469 419.582031 805.5 419.953125 805.535156 420.308594 C 805.574219 420.664062 805.726562 420.933594 805.996094 421.109375 C 806.261719 421.289062 806.675781 421.394531 807.242188 421.433594 C 807.804688 421.46875 808.429688 421.488281 809.113281 421.484375 L 809.113281 423.308594 Z M 801.773438 407.691406 C 801.273438 406.699219 800.554688 405.882812 799.625 405.238281 C 798.695312 404.59375 797.628906 404.269531 796.425781 404.269531 C 795.464844 404.269531 794.566406 404.496094 793.726562 404.949219 C 792.886719 405.402344 792.164062 406.027344 791.554688 406.824219 C 790.882812 407.730469 790.453125 408.742188 790.261719 409.859375 C 790.070312 410.976562 789.976562 412.136719 789.976562 413.332031 C 789.976562 414.535156 790.058594 415.683594 790.226562 416.777344 C 790.394531 417.875 790.792969 418.902344 791.417969 419.863281 C 791.933594 420.621094 792.59375 421.230469 793.394531 421.6875 C 794.195312 422.148438 795.039062 422.375 795.921875 422.375 C 797.246094 422.375 798.421875 422.007812 799.441406 421.277344 C 800.464844 420.542969 801.242188 419.605469 801.773438 418.464844 Z M 801.773438 407.691406 "/>
<path style=" stroke:none;fill-rule:evenodd;fill:rgb(0%,0%,0%);fill-opacity:1;" d="M 837.386719 423.550781 L 811.023438 423.550781 L 811.023438 420.621094 L 815.414062 420.621094 L 815.414062 394.761719 L 811.023438 394.761719 L 811.023438 391.765625 L 836.839844 391.765625 L 838.351562 403.582031 L 835.304688 403.582031 C 835.1875 402.710938 835.082031 401.945312 834.988281 401.296875 C 834.898438 400.644531 834.769531 400.015625 834.601562 399.40625 C 834.433594 398.800781 834.222656 398.242188 833.957031 397.730469 C 833.699219 397.21875 833.375 396.78125 832.976562 396.402344 C 832.183594 395.679688 831.242188 395.226562 830.152344 395.042969 C 829.0625 394.855469 827.953125 394.765625 826.824219 394.761719 L 822.890625 394.761719 L 822.890625 405.601562 L 823.558594 405.601562 C 824.179688 405.605469 824.777344 405.546875 825.347656 405.4375 C 825.921875 405.328125 826.394531 405.074219 826.769531 404.683594 C 827.140625 404.289062 827.367188 403.71875 827.445312 402.972656 C 827.519531 402.226562 827.554688 401.339844 827.554688 400.316406 L 830.574219 400.316406 L 830.574219 413.867188 L 827.554688 413.867188 C 827.554688 412.863281 827.519531 411.980469 827.445312 411.222656 C 827.367188 410.46875 827.140625 409.894531 826.769531 409.503906 C 826.394531 409.113281 825.921875 408.851562 825.347656 408.726562 C 824.777344 408.601562 824.179688 408.535156 823.558594 408.535156 L 822.890625 408.535156 L 822.890625 420.621094 L 827.210938 420.621094 C 828.402344 420.621094 829.5625 420.484375 830.691406 420.210938 C 831.816406 419.9375 832.816406 419.414062 833.6875 418.644531 C 834.113281 418.246094 834.480469 417.742188 834.78125 417.132812 C 835.089844 416.527344 835.359375 415.859375 835.597656 415.132812 C 835.832031 414.410156 836.027344 413.65625 836.179688 412.878906 C 836.328125 412.101562 836.492188 411.238281 836.660156 410.289062 L 839.675781 410.289062 Z M 837.386719 423.550781 "/>
<path style="fill:none;stroke-width:15;stroke-linecap:round;stroke-linejoin:round;stroke:rgb(0%,0%,0%);stroke-opacity:1;stroke-dasharray:120,60;stroke-miterlimit:10;" d="M 3522.971891 650.017589 L 3522.971891 365.603483 " transform="matrix(0.226213,0,0,-0.226343,0,465.7477)"/>
<path style="fill:none;stroke-width:15;stroke-linecap:round;stroke-linejoin:round;stroke:rgb(0%,0%,0%);stroke-opacity:1;stroke-dasharray:120,60;stroke-miterlimit:10;" d="M 2697.732687 470.826347 L 3497.01804 366.811552 " transform="matrix(0.226213,0,0,-0.226343,0,465.7477)"/>
</g>
</svg>
