<?xml version="1.0" encoding="utf-8"?>
<!-- Generator: Adobe Illustrator 19.0.0, SVG Export Plug-In . SVG Version: 6.00 Build 0)  -->
<svg version="1.1" id="Layer_1" xmlns="http://www.w3.org/2000/svg" xmlns:xlink="http://www.w3.org/1999/xlink" x="0px" y="0px"
	 viewBox="0 0 159 52.5" style="enable-background:new 0 0 159 52.5;" xml:space="preserve">
<style type="text/css">
	.st0{fill:none;stroke:#000000;stroke-miterlimit:10;}
	.st1{fill:none;stroke:#2B3990;stroke-miterlimit:10;}
	.st2{fill:#FFFFFF;stroke:#EF4136;stroke-miterlimit:10;}
	.st3{stroke:#000000;stroke-miterlimit:10;}
	.st4{fill:#EF4136;}
	.st5{fill:#010101;}
</style>
<rect x="81.3568878" y="18.2071381" class="st0" width="3.5917501" height="4.1312227"/>
<rect x="135.850708" y="18.8885784" class="st0" width="3.5917501" height="4.1312227"/>
<circle class="st1" cx="8.6601152" cy="19.1157246" r="6.360095"/>
<g>
	<line class="st1" x1="4.344337" y1="18.8885784" x2="12.975894" y2="18.8885784"/>
	<line class="st1" x1="8.6601152" y1="14.7999449" x2="8.6601152" y2="23.4315033"/>
</g>
<line class="st0" x1="14.6315632" y1="16.9220142" x2="139.4424591" y2="2.4999981"/>
<path class="st1" d="M8.6601152,18.8885784"/>
<line class="st0" x1="15.0202103" y1="21.5057564" x2="139.4424591" y2="23.0198002"/>
<path class="st1" d="M8.6601152,18.8885784"/>
<path class="st1" d="M8.6601152,18.8885784"/>
<path class="st1" d="M8.6601152,18.8885784"/>
<line class="st2" x1="139.4424591" y1="23.0198002" x2="139.4424591" y2="2.4999981"/>
<line class="st2" x1="84.9273529" y1="22.3564415" x2="84.9273529" y2="8.7993317"/>
<polygon points="14.4208403,33.4796333 9.2181005,31.5682907 14.4208403,29.6568546 "/>
<line class="st3" x1="12.7853413" y1="31.5682907" x2="31.2760239" y2="31.5682907"/>
<polygon points="79.7812881,33.4796333 84.9839172,31.5682907 79.7812881,29.6568546 "/>
<line class="st3" x1="81.4167862" y1="31.5682907" x2="53.4624901" y2="31.5682907"/>
<polygon points="14.4207268,46.3802719 9.2181005,44.4690399 14.4207268,42.5576019 "/>
<line class="st3" x1="12.7852278" y1="44.4690399" x2="31.2759094" y2="44.4690399"/>
<polygon points="134.2398376,46.3802719 139.4424591,44.4690399 134.2398376,42.5576019 "/>
<line class="st3" x1="135.8753357" y1="44.4690399" x2="53.4624901" y2="44.4690399"/>
<g>
	<g>
		<path class="st4" d="M99.6757813,17.5170898l1.1162109-0.5458984h0.1113281v3.8808594
			c0,0.2578125,0.0107422,0.4189453,0.0322266,0.4814453c0.0214844,0.0634766,0.0654297,0.1123047,0.1337891,0.1464844
			c0.0673828,0.0332031,0.2050781,0.0527344,0.4121094,0.0576172v0.125h-1.7246094v-0.125
			c0.2167969-0.0048828,0.3564453-0.0234375,0.4199219-0.0566406c0.0625-0.0322266,0.1064453-0.0761719,0.1318359-0.1318359
			c0.0244141-0.0556641,0.0371094-0.2207031,0.0371094-0.4970703v-2.4814453c0-0.3339844-0.0117188-0.5488281-0.0341797-0.6435547
			c-0.015625-0.0722656-0.0449219-0.1259766-0.0859375-0.1591797c-0.0419922-0.0341797-0.0917969-0.0507813-0.1503906-0.0507813
			c-0.0839844,0-0.2001953,0.0341797-0.3486328,0.1044922L99.6757813,17.5170898z"/>
	</g>
	<g>
		<path class="st4" d="M92.6318359,17.965332c-0.2607422,0.2734375-0.5166016,0.4697266-0.765625,0.5888672
			c-0.25,0.1191406-0.5185547,0.1787109-0.8076172,0.1787109c-0.5849609,0-1.0957031-0.2451172-1.5322266-0.7353516
			c-0.4365234-0.4912109-0.6552734-1.1210938-0.6552734-1.8916016c0-0.7700195,0.2421875-1.4746094,0.7255859-2.1137695
			s1.1054688-0.9584961,1.8652344-0.9584961c0.4726563,0,0.8623047,0.1503906,1.1699219,0.4511719v-0.9907227
			c0-0.6137695-0.0146484-0.9912109-0.0439453-1.1318359c-0.0283203-0.140625-0.0742188-0.2363281-0.1367188-0.2871094
			s-0.140625-0.0766602-0.234375-0.0766602c-0.1015625,0-0.2363281,0.0317383-0.4033203,0.0942383l-0.0761719-0.2055664
			l1.5966797-0.6567383h0.2636719v6.2094727c0,0.6298828,0.0146484,1.0136719,0.0439453,1.1523438
			s0.0751953,0.2353516,0.1396484,0.2900391c0.0644531,0.0556641,0.1396484,0.0830078,0.2255859,0.0830078
			c0.1054688,0,0.2451172-0.0332031,0.4208984-0.1005859l0.0644531,0.2060547l-1.5908203,0.6621094h-0.2695313V17.965332z
			 M92.6318359,17.5541992v-2.7675781c-0.0234375-0.265625-0.0927734-0.5078125-0.2099609-0.7270508
			c-0.1171875-0.21875-0.2724609-0.3837891-0.4648438-0.4956055c-0.1933594-0.1113281-0.3818359-0.1669922-0.5644531-0.1669922
			c-0.34375,0-0.6494141,0.1547852-0.9189453,0.4633789c-0.3544922,0.4067383-0.5322266,1.0004883-0.5322266,1.7827148
			c0,0.7890625,0.171875,1.3945313,0.5146484,1.8144531c0.34375,0.4208984,0.7255859,0.6308594,1.1464844,0.6308594
			C91.9580078,18.0883789,92.3007813,17.9106445,92.6318359,17.5541992z"/>
	</g>
	<g>
		<path class="st4" d="M98.3183594,12.9335938l0.0878906,1.8706055h-0.1992188
			c-0.2373047-0.5546875-0.484375-0.934082-0.7392578-1.137207c-0.2558594-0.2036133-0.5097656-0.3051758-0.7636719-0.3051758
			c-0.1601563,0-0.2958984,0.0537109-0.4091797,0.1611328C96.1816406,13.6308594,96.125,13.7548828,96.125,13.8955078
			c0,0.1054688,0.0390625,0.2070313,0.1171875,0.3046875c0.125,0.1606445,0.4736328,0.4350586,1.046875,0.8242188
			c0.5732422,0.3886719,0.9501953,0.7192383,1.1318359,0.9907227s0.2714844,0.5761719,0.2714844,0.9121094
			c0,0.3046875-0.0751953,0.6035156-0.2275391,0.8964844c-0.1523438,0.2939453-0.3662109,0.5185547-0.6435547,0.6748047
			s-0.5830078,0.234375-0.9179688,0.234375c-0.2617188,0-0.6103516-0.0820313-1.046875-0.2460938
			c-0.1171875-0.0429688-0.1972656-0.0644531-0.2402344-0.0644531c-0.1289063,0-0.2363281,0.0976563-0.3222656,0.2929688h-0.1923828
			l-0.09375-1.9697266h0.1982422c0.1757813,0.515625,0.4169922,0.9023438,0.7226563,1.1601563
			c0.3066406,0.2587891,0.5957031,0.3876953,0.8691406,0.3876953c0.1875,0,0.3398438-0.0576172,0.4589844-0.1728516
			s0.1787109-0.2558594,0.1787109-0.4199219c0-0.1875-0.0585938-0.3496094-0.1757813-0.4863281
			s-0.3779297-0.34375-0.7841797-0.6220703c-0.5966797-0.4140625-0.9824219-0.7304688-1.1582031-0.9492188
			c-0.2568359-0.3208008-0.3857422-0.6743164-0.3857422-1.0615234c0-0.4223633,0.1455078-0.8041992,0.4365234-1.1464844
			c0.2900391-0.3417969,0.7099609-0.5131836,1.2597656-0.5131836c0.296875,0,0.5830078,0.0727539,0.8603516,0.2172852
			c0.1044922,0.0585938,0.1904297,0.0878906,0.2568359,0.0878906c0.0703125,0,0.1269531-0.0146484,0.1699219-0.0439453
			s0.1113281-0.1123047,0.2050781-0.2495117H98.3183594z"/>
	</g>
</g>
<g>
	<g>
		<path class="st4" d="M157.8339844,18.230957l-0.3232422,0.8847656h-2.7167969v-0.125
			c0.7998047-0.7285156,1.3623047-1.3222656,1.6884766-1.7832031s0.4882813-0.8828125,0.4882813-1.2646484
			c0-0.2919922-0.0888672-0.53125-0.2675781-0.71875c-0.1796875-0.1875-0.3935547-0.28125-0.6425781-0.28125
			c-0.2265625,0-0.4296875,0.0654297-0.609375,0.1982422c-0.1796875,0.1318359-0.3134766,0.3261719-0.3994141,0.5810547h-0.125
			c0.0566406-0.4179688,0.2021484-0.7392578,0.4365234-0.9628906s0.5263672-0.3349609,0.8779297-0.3349609
			c0.3730469,0,0.6855469,0.1191406,0.9355469,0.359375c0.25,0.2392578,0.375,0.5214844,0.375,0.8466797
			c0,0.2333984-0.0537109,0.4658203-0.1630859,0.6992188c-0.1669922,0.3652344-0.4394531,0.7529297-0.8144531,1.1621094
			c-0.5644531,0.6152344-0.9160156,0.9853516-1.0566406,1.1123047h1.2021484c0.2441406,0,0.4160156-0.0087891,0.5146484-0.0273438
			c0.0986328-0.0175781,0.1875-0.0546875,0.2666016-0.1103516c0.0791016-0.0546875,0.1484375-0.1337891,0.2070313-0.2353516
			H157.8339844z"/>
	</g>
	<g>
		<path class="st4" d="M147.6425781,15.418457c-0.2626953,0.2734375-0.5195313,0.4697266-0.7695313,0.5888672
			c-0.2509766,0.1191406-0.5214844,0.1787109-0.8115234,0.1787109c-0.5869141,0-1.1005859-0.2451172-1.5390625-0.7353516
			c-0.4384766-0.4912109-0.6582031-1.1210938-0.6582031-1.8916016c0-0.7700195,0.2431641-1.4746094,0.7285156-2.1137695
			c0.4863281-0.6391602,1.1103516-0.9584961,1.8740234-0.9584961c0.4746094,0,0.8662109,0.1503906,1.1757813,0.4511719V9.9472656
			c0-0.6137695-0.0146484-0.9912109-0.0439453-1.1318359c-0.0302734-0.140625-0.0761719-0.2363281-0.1386719-0.2871094
			s-0.140625-0.0766602-0.234375-0.0766602c-0.1025391,0-0.2373047,0.0317383-0.40625,0.0942383l-0.0761719-0.2055664
			l1.6044922-0.6567383h0.2636719v6.2094727c0,0.6298828,0.0146484,1.0136719,0.0439453,1.1523438
			c0.0302734,0.1386719,0.0771484,0.2353516,0.1416016,0.2900391c0.0644531,0.0556641,0.1396484,0.0830078,0.2255859,0.0830078
			c0.1064453,0,0.2470703-0.0332031,0.4238281-0.1005859l0.0644531,0.2060547l-1.5986328,0.6621094h-0.2695313V15.418457z
			 M147.6425781,15.0073242v-2.7675781c-0.0234375-0.265625-0.0947266-0.5078125-0.2119141-0.7270508
			c-0.1171875-0.21875-0.2734375-0.3837891-0.4667969-0.4956055c-0.1943359-0.1113281-0.3828125-0.1669922-0.5673828-0.1669922
			c-0.3447266,0-0.6523438,0.1547852-0.921875,0.4633789c-0.3564453,0.4067383-0.5351563,1.0004883-0.5351563,1.7827148
			c0,0.7890625,0.1728516,1.3945313,0.5175781,1.8144531c0.3447266,0.4208984,0.7285156,0.6308594,1.1513672,0.6308594
			C146.9648438,15.5415039,147.3095703,15.3637695,147.6425781,15.0073242z"/>
	</g>
	<g>
		<path class="st4" d="M153.3583984,10.3867188l0.0878906,1.8706055h-0.2001953
			c-0.2382813-0.5546875-0.4863281-0.934082-0.7431641-1.137207c-0.2558594-0.2036133-0.5117188-0.3051758-0.7666016-0.3051758
			c-0.1601563,0-0.296875,0.0537109-0.4111328,0.1611328c-0.1142578,0.1079102-0.1708984,0.2319336-0.1708984,0.3725586
			c0,0.1054688,0.0390625,0.2070313,0.1181641,0.3046875c0.125,0.1606445,0.4755859,0.4350586,1.0517578,0.8242188
			c0.5751953,0.3886719,0.9541016,0.7192383,1.1367188,0.9907227c0.1816406,0.2714844,0.2734375,0.5761719,0.2734375,0.9121094
			c0,0.3046875-0.0771484,0.6035156-0.2294922,0.8964844c-0.1523438,0.2939453-0.3681641,0.5185547-0.6464844,0.6748047
			s-0.5849609,0.234375-0.921875,0.234375c-0.2626953,0-0.6132813-0.0820313-1.0517578-0.2460938
			c-0.1171875-0.0429688-0.1972656-0.0644531-0.2412109-0.0644531c-0.1289063,0-0.2363281,0.0976563-0.3222656,0.2929688h-0.1943359
			l-0.09375-1.9697266h0.1992188c0.1767578,0.515625,0.4179688,0.9023438,0.7255859,1.1601563
			c0.3076172,0.2587891,0.5986328,0.3876953,0.8720703,0.3876953c0.1884766,0,0.3417969-0.0576172,0.4619141-0.1728516
			c0.1191406-0.1152344,0.1787109-0.2558594,0.1787109-0.4199219c0-0.1875-0.0585938-0.3496094-0.1757813-0.4863281
			c-0.1181641-0.1367188-0.3798828-0.34375-0.7871094-0.6220703c-0.5996094-0.4140625-0.9873047-0.7304688-1.1630859-0.9492188
			c-0.2587891-0.3208008-0.3876953-0.6743164-0.3876953-1.0615234c0-0.4223633,0.1455078-0.8041992,0.4375-1.1464844
			c0.2910156-0.3417969,0.7128906-0.5131836,1.265625-0.5131836c0.2978516,0,0.5849609,0.0727539,0.8632813,0.2172852
			c0.1064453,0.0585938,0.1923828,0.0878906,0.2587891,0.0878906c0.0703125,0,0.1269531-0.0146484,0.1699219-0.0439453
			c0.0439453-0.0292969,0.1123047-0.1123047,0.2060547-0.2495117H153.3583984z"/>
	</g>
</g>
<g>
	<g>
		<path class="st5" d="M46.2871094,48.5893555l-0.3232422,0.8847656h-2.7207031v-0.125
			c0.8007813-0.7285156,1.3642578-1.3222656,1.6904297-1.7832031c0.3271484-0.4609375,0.4902344-0.8828125,0.4902344-1.2646484
			c0-0.2919922-0.0898438-0.53125-0.2685547-0.71875c-0.1796875-0.1875-0.3935547-0.28125-0.6435547-0.28125
			c-0.2265625,0-0.4296875,0.0654297-0.6103516,0.1982422c-0.1806641,0.1318359-0.3134766,0.3261719-0.3994141,0.5810547h-0.1259766
			c0.0566406-0.4179688,0.2021484-0.7392578,0.4365234-0.9628906c0.2353516-0.2236328,0.5283203-0.3349609,0.8798828-0.3349609
			c0.3740234,0,0.6865234,0.1191406,0.9365234,0.359375c0.2509766,0.2392578,0.3759766,0.5214844,0.3759766,0.8466797
			c0,0.2333984-0.0537109,0.4658203-0.1630859,0.6992188c-0.1679688,0.3652344-0.4394531,0.7529297-0.8164063,1.1621094
			c-0.5644531,0.6152344-0.9169922,0.9853516-1.0576172,1.1123047h1.2041016c0.2451172,0,0.4169922-0.0087891,0.515625-0.0273438
			c0.0986328-0.0175781,0.1875-0.0546875,0.2666016-0.1103516c0.0791016-0.0546875,0.1484375-0.1337891,0.2070313-0.2353516
			H46.2871094z"/>
	</g>
	<g>
		<path class="st5" d="M40.1689453,41.4018555l2.0292969-0.328125l-0.8466797,2.8496094
			c0.6855469-1.168457,1.3095703-1.9858398,1.8701172-2.4506836c0.3173828-0.2661133,0.5771484-0.3989258,0.7763672-0.3989258
			c0.1298828,0,0.2314453,0.0380859,0.3066406,0.1142578c0.0742188,0.0761719,0.1113281,0.1870117,0.1113281,0.331543
			c0,0.2578125-0.0664063,0.5039063-0.2001953,0.7387695c-0.09375,0.1757813-0.2294922,0.2636719-0.4052734,0.2636719
			c-0.0908203,0-0.1679688-0.0292969-0.2324219-0.0878906s-0.1054688-0.1484375-0.1210938-0.2695313
			c-0.0078125-0.0742188-0.0253906-0.1235352-0.0527344-0.1469727c-0.03125-0.03125-0.0683594-0.046875-0.1113281-0.046875
			c-0.0673828,0-0.1298828,0.015625-0.1884766,0.046875c-0.1025391,0.0551758-0.2568359,0.2075195-0.4648438,0.4575195
			c-0.3251953,0.3833008-0.6787109,0.8793945-1.0585938,1.4892578c-0.1650391,0.2578125-0.3066406,0.5498047-0.4238281,0.8740234
			c-0.1650391,0.4453125-0.2587891,0.7128906-0.2822266,0.8027344l-0.1884766,0.7392578h-0.9003906L40.875,42.7387695
			c0.125-0.421875,0.1884766-0.7231445,0.1884766-0.902832c0-0.0703125-0.0302734-0.1289063-0.0888672-0.1757813
			c-0.078125-0.0625-0.1826172-0.09375-0.3115234-0.09375c-0.0820313,0-0.2333984,0.0175781-0.453125,0.0527344
			L40.1689453,41.4018555z"/>
	</g>
</g>
<g>
	<g>
		<path class="st5" d="M42.7363281,32.4277344l1.1142578-0.5458984h0.1113281v3.8808594
			c0,0.2578125,0.0107422,0.4189453,0.0322266,0.4814453c0.0205078,0.0634766,0.0654297,0.1123047,0.1328125,0.1464844
			c0.0673828,0.0332031,0.2050781,0.0527344,0.4121094,0.0576172v0.125h-1.7226563v-0.125
			c0.2167969-0.0048828,0.3564453-0.0234375,0.4189453-0.0566406c0.0634766-0.0322266,0.1074219-0.0761719,0.1318359-0.1318359
			c0.0253906-0.0556641,0.0371094-0.2207031,0.0371094-0.4970703V33.28125c0-0.3339844-0.0107422-0.5488281-0.0332031-0.6435547
			c-0.015625-0.0722656-0.0449219-0.1259766-0.0859375-0.1591797c-0.0419922-0.0341797-0.0917969-0.0507813-0.1503906-0.0507813
			c-0.0839844,0-0.1992188,0.0341797-0.3476563,0.1044922L42.7363281,32.4277344z"/>
	</g>
	<g>
		<path class="st5" d="M39.7773438,28.5009766l2.0146484-0.328125l-0.8408203,2.8496094
			c0.6816406-1.168457,1.3007813-1.9858398,1.8574219-2.4506836c0.3144531-0.2661133,0.5722656-0.3989258,0.7705078-0.3989258
			c0.1289063,0,0.2294922,0.0380859,0.3037109,0.1142578s0.1113281,0.1870117,0.1113281,0.331543
			c0,0.2578125-0.0664063,0.5039063-0.1992188,0.7387695c-0.0927734,0.1757813-0.2275391,0.2636719-0.4023438,0.2636719
			c-0.0898438,0-0.1669922-0.0292969-0.2314453-0.0878906c-0.0634766-0.0585938-0.1044922-0.1484375-0.1191406-0.2695313
			c-0.0087891-0.0742188-0.0253906-0.1235352-0.0527344-0.1469727c-0.03125-0.03125-0.0683594-0.046875-0.1103516-0.046875
			c-0.0664063,0-0.1289063,0.015625-0.1875,0.046875c-0.1015625,0.0551758-0.2548828,0.2075195-0.4609375,0.4575195
			c-0.3232422,0.3833008-0.6738281,0.8793945-1.0517578,1.4892578C41.015625,31.3212891,40.875,31.6132813,40.7587891,31.9375
			c-0.1640625,0.4453125-0.2568359,0.7128906-0.2802734,0.8027344l-0.1875,0.7392578h-0.8935547l1.0810547-3.6416016
			c0.1240234-0.421875,0.1865234-0.7231445,0.1865234-0.902832c0-0.0703125-0.0292969-0.1289063-0.0878906-0.1757813
			c-0.0771484-0.0625-0.1806641-0.09375-0.3095703-0.09375c-0.0810547,0-0.2314453,0.0175781-0.4492188,0.0527344
			L39.7773438,28.5009766z"/>
	</g>
</g>
<g>
</g>
<g>
</g>
<g>
</g>
<g>
</g>
<g>
</g>
<g>
</g>
</svg>
