<?xml version="1.0" encoding="utf-8"?>
<!-- Generator: Adobe Illustrator 19.0.0, SVG Export Plug-In . SVG Version: 6.00 Build 0)  -->
<svg version="1.1" id="Layer_1" xmlns="http://www.w3.org/2000/svg" xmlns:xlink="http://www.w3.org/1999/xlink" x="0px" y="0px"
	 viewBox="0 0 208.1666718 146.6666718" style="enable-background:new 0 0 208.1666718 146.6666718;" xml:space="preserve">
<style type="text/css">
	.st0{fill:#FFFFFF;stroke:#000000;stroke-miterlimit:10;}
	.st1{fill:none;stroke:#000000;stroke-miterlimit:10;}
	.st2{fill:none;stroke:#2B3990;stroke-miterlimit:10;}
	.st3{fill:#FFFFFF;stroke:#EF4136;stroke-miterlimit:10;}
	.st4{stroke:#000000;stroke-miterlimit:10;}
	.st5{fill:#FFFFFF;stroke:#EE2924;stroke-miterlimit:10;}
	.st6{fill:#EF4136;}
	.st7{fill:#010101;}
</style>
<path class="st0" d="M65.5816193,88.0326538c-12.9831123,23.4523773-7.0391312,53.1795654-27.5884819,55.550705
	c-14.8484173,1.7131348-21.4192486-23.2466049-19.6540585-51.6057053"/>
<path class="st1" d="M91.5891495,83.3885651c-2.893425-13.4227982-7.1429062-19.4676704-20.7195129-3.1332779
	c-0.8626938,1.0379181-1.6694641,2.0993652-2.4254532,3.1805038"/>
<path class="st1" d="M19.0553799,83.653595c3.0088425-26.4222794,13.0688419-53.355629,30.1716061-61.6539841
	c34.4959526-16.7378387,25.6023827,7.8436279,68.7756042-9.7780962s57.705986-12.6614838,81.9410172,30.8380165
	C228.625,94.5398178,134.3493652,140.9166718,122.25,141.7916718
	c-31.1649857,2.2537842-26.3896561-36.4057388-30.1346893-55.8158646"/>
<path class="st0" d="M-729.5,263.6666565"/>
<circle class="st2" cx="124.7574387" cy="83.5404358" r="6.167603"/>
<g>
	<line class="st2" x1="120.5722809" y1="83.3201675" x2="128.9425964" y2="83.3201675"/>
	<line class="st2" x1="124.7574387" y1="79.355278" x2="124.7574387" y2="87.7256012"/>
</g>
<line class="st1" x1="130.0635376" y1="79.751503" x2="187.2349701" y2="41.3005714"/>
<path class="st2" d="M124.7574387,83.3201675"/>
<line class="st1" x1="130.7221985" y1="80.7913361" x2="191.891861" y2="54.8569641"/>
<path class="st2" d="M124.7574387,83.3201675"/>
<ellipse transform="matrix(0.9457408 -0.3249221 0.3249221 0.9457408 -5.1128941 64.6144104)" class="st3" cx="190.9097748" cy="47.6160545" rx="4.1055918" ry="7.1671696"/>
<ellipse transform="matrix(0.9457487 -0.324899 0.324899 0.9457487 -10.1458015 58.0701065)" class="st3" cx="168.8116302" cy="59.4155388" rx="2.9055388" ry="5.0721407"/>
<line class="st4" x1="176.6225739" y1="82.2595825" x2="200.3742523" y2="73.5601349"/>
<line class="st4" x1="130.548172" y1="99.1352005" x2="155.6410522" y2="89.9444351"/>
<polygon class="st4" points="197.8054352,75.9597931 196.8643188,73.7366333 200.6654968,73.4382782 "/>
<polygon class="st4" points="133.4082489,96.6136856 134.3493652,98.8368454 130.548172,99.1352005 "/>
<line class="st4" x1="157.4058228" y1="83.5404358" x2="175.3443756" y2="76.9701538"/>
<line class="st4" x1="128.9425964" y1="93.3301468" x2="146.7114563" y2="86.8219376"/>
<polygon class="st4" points="172.7755585,79.3697968 171.8344727,77.146637 175.6356506,76.8483047 "/>
<polygon class="st4" points="131.8026886,90.8086472 132.7437744,93.0318069 128.9425964,93.3301468 "/>
<line class="st1" x1="118.1497345" y1="83.3338242" x2="19.0553799" y2="83.5384979"/>
<path class="st2" d="M124.7574387,83.3201675"/>
<line class="st1" x1="118.1512299" y1="83.8575211" x2="18.3390789" y2="91.9776535"/>
<path class="st2" d="M124.7574387,83.3201675"/>
<path class="st3" d="M18.2706623,91.8568802c0.1594105-2.5613174,0.4214001-5.7349243,0.7163219-8.3240814"/>
<path class="st3" d="M68.4441833,83.5384979c-1.0472641,1.4978027-1.9969635,3.0333633-2.8625641,4.5968933"/>
<path class="st5" d="M92.1153107,86.1276627c-0.1714401-0.8885117-0.3461151-1.7521744-0.5261612-2.5872269"/>
<g>
	<g>
		<path class="st6" d="M104.6245117,74.2496719l1.1162109-0.5458984h0.1113281v3.8808594
			c0,0.2578125,0.0107422,0.4189453,0.0322266,0.4814453c0.0214844,0.0634766,0.0654297,0.1123047,0.1337891,0.1464844
			c0.0673828,0.0332031,0.2050781,0.0527344,0.4121094,0.0576172v0.125h-1.7246094v-0.125
			c0.2167969-0.0048828,0.3564453-0.0234375,0.4199219-0.0566406c0.0625-0.0322266,0.1064453-0.0761719,0.1318359-0.1318359
			c0.0244141-0.0556641,0.0371094-0.2207031,0.0371094-0.4970703v-2.4814453c0-0.3339844-0.0117188-0.5488281-0.0341797-0.6435547
			c-0.015625-0.0722656-0.0449219-0.1259766-0.0859375-0.1591797c-0.0419922-0.0341797-0.0917969-0.0507813-0.1503906-0.0507813
			c-0.0839844,0-0.2001953,0.0341797-0.3486328,0.1044922L104.6245117,74.2496719z"/>
	</g>
	<g>
		<path class="st6" d="M97.5810547,74.6979141c-0.2612305,0.2734375-0.5166016,0.4697266-0.7661133,0.5888672
			s-0.5185547,0.1787109-0.8071289,0.1787109c-0.5849609,0-1.0957031-0.2451172-1.5327148-0.7353516
			c-0.4365234-0.4912109-0.6547852-1.1210938-0.6547852-1.8916016c0-0.7700195,0.2416992-1.4746094,0.7250977-2.1137695
			s1.1054688-0.9584961,1.8657227-0.9584961c0.472168,0,0.8618164,0.1503906,1.1699219,0.4511719v-0.9907227
			c0-0.6137695-0.0146484-0.9912109-0.0439453-1.1318359c-0.0288086-0.140625-0.074707-0.2363281-0.137207-0.2871094
			s-0.140625-0.0766602-0.2338867-0.0766602c-0.1015625,0-0.2363281,0.0317383-0.4038086,0.0942383l-0.0761719-0.2055664
			l1.597168-0.6567383h0.2631836v6.2094727c0,0.6298828,0.0146484,1.0136719,0.0439453,1.1523438
			s0.0756836,0.2353516,0.1401367,0.2900391c0.0644531,0.0556641,0.1396484,0.0830078,0.2250977,0.0830078
			c0.1054688,0,0.2456055-0.0332031,0.4213867-0.1005859l0.0644531,0.2060547l-1.5913086,0.6621094h-0.269043V74.6979141z
			 M97.5810547,74.2867813v-2.7675781c-0.0234375-0.265625-0.0932617-0.5078125-0.2104492-0.7270508
			c-0.1171875-0.21875-0.2719727-0.3837891-0.4648438-0.4956055c-0.1933594-0.1113281-0.3813477-0.1669922-0.5644531-0.1669922
			c-0.3432617,0-0.6494141,0.1547852-0.918457,0.4633789c-0.3549805,0.4067383-0.5322266,1.0004883-0.5322266,1.7827148
			c0,0.7890625,0.1713867,1.3945313,0.5146484,1.8144531c0.3432617,0.4208984,0.7250977,0.6308594,1.1464844,0.6308594
			C96.9067383,74.820961,97.2495117,74.6432266,97.5810547,74.2867813z"/>
	</g>
	<g>
		<path class="st6" d="M103.2670898,69.6661758l0.0878906,1.8706055h-0.1992188
			c-0.2373047-0.5546875-0.484375-0.934082-0.7392578-1.137207c-0.2558594-0.2036133-0.5097656-0.3051758-0.7636719-0.3051758
			c-0.1601563,0-0.2958984,0.0537109-0.4091797,0.1611328c-0.1132813,0.1079102-0.1699219,0.2319336-0.1699219,0.3725586
			c0,0.1054688,0.0390625,0.2070313,0.1171875,0.3046875c0.125,0.1606445,0.4736328,0.4350586,1.046875,0.8242188
			c0.5732422,0.3886719,0.9501953,0.7192383,1.1318359,0.9907227s0.2714844,0.5761719,0.2714844,0.9121094
			c0,0.3046875-0.0751953,0.6035156-0.2275391,0.8964844c-0.1523438,0.2939453-0.3662109,0.5185547-0.6435547,0.6748047
			s-0.5830078,0.234375-0.9179688,0.234375c-0.2617188,0-0.6103516-0.0820313-1.046875-0.2460938
			c-0.1171875-0.0429688-0.1972656-0.0644531-0.2402344-0.0644531c-0.1289063,0-0.2363281,0.0976563-0.3217773,0.2929688h-0.1928711
			l-0.09375-1.9697266h0.1987305c0.175293,0.515625,0.4165039,0.9023438,0.722168,1.1601563
			c0.3066406,0.2587891,0.5957031,0.3876953,0.8691406,0.3876953c0.1875,0,0.3398438-0.0576172,0.4589844-0.1728516
			s0.1787109-0.2558594,0.1787109-0.4199219c0-0.1875-0.0585938-0.3496094-0.1757813-0.4863281
			s-0.3779297-0.34375-0.7841797-0.6220703c-0.5966797-0.4140625-0.9824219-0.7304688-1.1577148-0.9492188
			c-0.2573242-0.3208008-0.3862305-0.6743164-0.3862305-1.0615234c0-0.4223633,0.1455078-0.8041992,0.4365234-1.1464844
			c0.2900391-0.3417969,0.7099609-0.5131836,1.2597656-0.5131836c0.296875,0,0.5830078,0.0727539,0.8603516,0.2172852
			c0.1044922,0.0585938,0.1904297,0.0878906,0.2568359,0.0878906c0.0703125,0,0.1269531-0.0146484,0.1699219-0.0439453
			s0.1113281-0.1123047,0.2050781-0.2495117H103.2670898z"/>
	</g>
</g>
<g>
	<g>
		<path class="st6" d="M79.9506836,102.0113907l-0.3232422,0.8847656h-2.7167969v-0.125
			c0.7998047-0.7285156,1.3623047-1.3222656,1.6884766-1.7832031s0.4882813-0.8828125,0.4882813-1.2646484
			c0-0.2919922-0.0888672-0.53125-0.2675781-0.71875c-0.1796875-0.1875-0.3935547-0.28125-0.6425781-0.28125
			c-0.2265625,0-0.4296875,0.0654297-0.609375,0.1982422c-0.1796875,0.1318359-0.3134766,0.3261719-0.3994141,0.5810547h-0.125
			c0.0566406-0.4179688,0.2021484-0.7392578,0.4365234-0.9628906s0.5263672-0.3349609,0.8779297-0.3349609
			c0.3730469,0,0.6855469,0.1191406,0.9355469,0.359375c0.25,0.2392578,0.375,0.5214844,0.375,0.8466797
			c0,0.2333984-0.0537109,0.4658203-0.1630859,0.6992188c-0.1669922,0.3652344-0.4394531,0.7529297-0.8144531,1.1621094
			c-0.5644531,0.6152344-0.9160156,0.9853516-1.0566406,1.1123047h1.2021484c0.2441406,0,0.4160156-0.0087891,0.5146484-0.0273438
			c0.0986328-0.0175781,0.1875-0.0546875,0.2666016-0.1103516c0.0791016-0.0546875,0.1484375-0.1337891,0.2070313-0.2353516
			H79.9506836z"/>
	</g>
	<g>
		<path class="st6" d="M69.7587891,99.1988907c-0.2626953,0.2734375-0.519043,0.4697266-0.7695313,0.5888672
			c-0.2509766,0.1191406-0.5209961,0.1787109-0.8110352,0.1787109c-0.5874023,0-1.1005859-0.2451172-1.5390625-0.7353516
			c-0.4389648-0.4912109-0.6582031-1.1210938-0.6582031-1.8916016c0-0.7700195,0.2426758-1.4746094,0.7285156-2.1137695
			s1.1103516-0.9584961,1.8740234-0.9584961c0.4741211,0,0.8657227,0.1503906,1.175293,0.4511719v-0.9907227
			c0-0.6137695-0.0146484-0.9912109-0.0439453-1.1318359c-0.0297852-0.140625-0.0756836-0.2363281-0.1381836-0.2871094
			c-0.0629883-0.0507813-0.1411133-0.0766602-0.2348633-0.0766602c-0.1020508,0-0.2373047,0.0317383-0.4057617,0.0942383
			l-0.0761719-0.2055664l1.6040039-0.6567383h0.2641602v6.2094727c0,0.6298828,0.0146484,1.0136719,0.0439453,1.1523438
			c0.0297852,0.1386719,0.0766602,0.2353516,0.1411133,0.2900391c0.0644531,0.0556641,0.1401367,0.0830078,0.2260742,0.0830078
			c0.105957,0,0.2470703-0.0332031,0.4233398-0.1005859l0.0644531,0.2060547l-1.5981445,0.6621094h-0.2700195V99.1988907z
			 M69.7587891,98.7877579v-2.7675781c-0.0234375-0.265625-0.0942383-0.5078125-0.2114258-0.7270508
			c-0.1176758-0.21875-0.2734375-0.3837891-0.4672852-0.4956055c-0.1938477-0.1113281-0.3828125-0.1669922-0.5668945-0.1669922
			c-0.3447266,0-0.6523438,0.1547852-0.9223633,0.4633789c-0.3564453,0.4067383-0.534668,1.0004883-0.534668,1.7827148
			c0,0.7890625,0.1723633,1.3945313,0.5170898,1.8144531c0.3447266,0.4208984,0.7285156,0.6308594,1.1513672,0.6308594
			C69.0810547,99.3219376,69.4257813,99.1442032,69.7587891,98.7877579z"/>
	</g>
	<g>
		<path class="st6" d="M75.4750977,94.1671524l0.0878906,1.8706055H75.362793
			c-0.2382813-0.5546875-0.4863281-0.934082-0.7431641-1.137207c-0.2558594-0.2036133-0.5117188-0.3051758-0.7666016-0.3051758
			c-0.1601563,0-0.296875,0.0537109-0.4111328,0.1611328c-0.1142578,0.1079102-0.1708984,0.2319336-0.1708984,0.3725586
			c0,0.1054688,0.0390625,0.2070313,0.1181641,0.3046875c0.125,0.1606445,0.4755859,0.4350586,1.0517578,0.8242188
			c0.5751953,0.3886719,0.9541016,0.7192383,1.1367188,0.9907227c0.1816406,0.2714844,0.2734375,0.5761719,0.2734375,0.9121094
			c0,0.3046875-0.0771484,0.6035156-0.2294922,0.8964844c-0.1523438,0.2939453-0.3681641,0.5185547-0.6464844,0.6748047
			s-0.5849609,0.234375-0.921875,0.234375c-0.2626953,0-0.6132813-0.0820313-1.0517578-0.2460938
			c-0.1176758-0.0429688-0.1977539-0.0644531-0.2412109-0.0644531c-0.1289063,0-0.2368164,0.0976563-0.3227539,0.2929688h-0.1938477
			l-0.0942383-1.9697266h0.199707c0.1762695,0.515625,0.4179688,0.9023438,0.7255859,1.1601563
			c0.3076172,0.2587891,0.5986328,0.3876953,0.8720703,0.3876953c0.1884766,0,0.3417969-0.0576172,0.4619141-0.1728516
			c0.1191406-0.1152344,0.1787109-0.2558594,0.1787109-0.4199219c0-0.1875-0.0585938-0.3496094-0.1757813-0.4863281
			c-0.1181641-0.1367188-0.3798828-0.34375-0.7871094-0.6220703c-0.5996094-0.4140625-0.9873047-0.7304688-1.1635742-0.9492188
			c-0.2587891-0.3208008-0.3876953-0.6743164-0.3876953-1.0615234c0-0.4223633,0.1455078-0.8041992,0.4375-1.1464844
			c0.2915039-0.3417969,0.7133789-0.5131836,1.2661133-0.5131836c0.2978516,0,0.5849609,0.0727539,0.8632813,0.2172852
			c0.1064453,0.0585938,0.1923828,0.0878906,0.2587891,0.0878906c0.0703125,0,0.1269531-0.0146484,0.1699219-0.0439453
			c0.0439453-0.0292969,0.1123047-0.1123047,0.2060547-0.2495117H75.4750977z"/>
	</g>
</g>
<g>
	<g>
		<path class="st6" d="M13.3115234,92.3639297c0.1308594-0.3095703,0.296875-0.5478516,0.4970703-0.7167969
			c0.2001953-0.1679688,0.4501953-0.2519531,0.7490234-0.2519531c0.3691406,0,0.6523438,0.1191406,0.8496094,0.359375
			c0.1494141,0.1777344,0.2236328,0.3691406,0.2236328,0.5722656c0,0.3349609-0.2099609,0.6806641-0.6318359,1.0380859
			c0.2832031,0.1103516,0.4970703,0.2685547,0.6425781,0.4746094c0.1445313,0.2050781,0.2167969,0.4472656,0.2167969,0.7246094
			c0,0.3984375-0.1269531,0.7431641-0.3798828,1.0341797c-0.3310547,0.3798828-0.8095703,0.5693359-1.4375,0.5693359
			c-0.3095703,0-0.5205078-0.0380859-0.6328125-0.1152344c-0.1123047-0.0761719-0.1679688-0.1591797-0.1679688-0.2470703
			c0-0.0654297,0.0263672-0.1230469,0.0791016-0.1728516c0.0537109-0.0498047,0.1171875-0.0751953,0.1923828-0.0751953
			c0.0566406,0,0.1142578,0.0097656,0.1728516,0.0273438c0.0390625,0.0117188,0.1259766,0.0527344,0.2617188,0.1240234
			s0.2294922,0.1132813,0.2822266,0.1269531c0.0839844,0.0253906,0.1728516,0.0371094,0.2685547,0.0371094
			c0.2304688,0,0.4316406-0.0888672,0.6025391-0.2675781s0.2558594-0.3896484,0.2558594-0.6337891
			c0-0.1787109-0.0390625-0.3525391-0.1181641-0.5224609c-0.0595703-0.1259766-0.1240234-0.2226563-0.1933594-0.2880859
			c-0.0976563-0.0898438-0.2314453-0.171875-0.4013672-0.2451172c-0.1699219-0.0742188-0.3427734-0.1103516-0.5195313-0.1103516
			h-0.1083984v-0.1015625c0.1787109-0.0224609,0.3583984-0.0869141,0.5380859-0.1933594s0.3105469-0.234375,0.3925781-0.3828125
			c0.0810547-0.1494141,0.1220703-0.3134766,0.1220703-0.4921875c0-0.2324219-0.0732422-0.4208984-0.21875-0.5644531
			c-0.1464844-0.1435547-0.328125-0.2148438-0.5458984-0.2148438c-0.3505859,0-0.6435547,0.1875-0.8798828,0.5625
			L13.3115234,92.3639297z"/>
	</g>
	<g>
		<path class="st6" d="M6.1665039,92.3893204c-0.2626953,0.2734375-0.519043,0.4697266-0.7695313,0.5888672
			c-0.2509766,0.1191406-0.5209961,0.1787109-0.8110352,0.1787109c-0.5874023,0-1.1005859-0.2451172-1.5390625-0.7353516
			c-0.4389648-0.4912109-0.6582031-1.1210938-0.6582031-1.8916016c0-0.7700195,0.2426758-1.4746094,0.7285156-2.1137695
			s1.1103516-0.9584961,1.8740234-0.9584961c0.4741211,0,0.8657227,0.1503906,1.175293,0.4511719V86.918129
			c0-0.6137695-0.0146484-0.9912109-0.0439453-1.1318359c-0.0297852-0.140625-0.0756836-0.2363281-0.1381836-0.2871094
			c-0.0629883-0.0507813-0.1411133-0.0766602-0.2348633-0.0766602c-0.1020508,0-0.2373047,0.0317383-0.4057617,0.0942383
			l-0.0761719-0.2055664l1.6040039-0.6567383h0.2641602v6.2094727c0,0.6298828,0.0146484,1.0136719,0.0439453,1.1523438
			c0.0297852,0.1386719,0.0766602,0.2353516,0.1411133,0.2900391c0.0644531,0.0556641,0.1401367,0.0830078,0.2260742,0.0830078
			c0.105957,0,0.2470703-0.0332031,0.4233398-0.1005859l0.0644531,0.2060547l-1.5981445,0.6621094H6.1665039V92.3893204z
			 M6.1665039,91.9781876v-2.7675781c-0.0234375-0.265625-0.0942383-0.5078125-0.2114258-0.7270508
			c-0.1176758-0.21875-0.2734375-0.3837891-0.4672852-0.4956055c-0.1938477-0.1113281-0.3828125-0.1669922-0.5668945-0.1669922
			c-0.3447266,0-0.6523438,0.1547852-0.9223633,0.4633789c-0.3564453,0.4067383-0.534668,1.0004883-0.534668,1.7827148
			c0,0.7890625,0.1723633,1.3945313,0.5170898,1.8144531c0.3447266,0.4208984,0.7285156,0.6308594,1.1513672,0.6308594
			C5.4887695,92.5123672,5.8334961,92.3346329,6.1665039,91.9781876z"/>
	</g>
	<g>
		<path class="st6" d="M11.8828125,87.3575821l0.0878906,1.8706055h-0.2001953
			c-0.2382813-0.5546875-0.4863281-0.934082-0.7431641-1.137207c-0.2558594-0.2036133-0.5117188-0.3051758-0.7666016-0.3051758
			c-0.1601563,0-0.296875,0.0537109-0.4111328,0.1611328c-0.1142578,0.1079102-0.1708984,0.2319336-0.1708984,0.3725586
			c0,0.1054688,0.0390625,0.2070313,0.1181641,0.3046875c0.125,0.1606445,0.4755859,0.4350586,1.0517578,0.8242188
			c0.5751953,0.3886719,0.9541016,0.7192383,1.1367188,0.9907227c0.1816406,0.2714844,0.2734375,0.5761719,0.2734375,0.9121094
			c0,0.3046875-0.0771484,0.6035156-0.2294922,0.8964844c-0.1523438,0.2939453-0.3681641,0.5185547-0.6464844,0.6748047
			s-0.5849609,0.234375-0.921875,0.234375c-0.2626953,0-0.6132813-0.0820313-1.0517578-0.2460938
			c-0.1176758-0.0429688-0.1977539-0.0644531-0.2412109-0.0644531c-0.1289063,0-0.2368164,0.0976563-0.3227539,0.2929688H8.6513672
			l-0.0942383-1.9697266h0.199707c0.1762695,0.515625,0.4179688,0.9023438,0.7255859,1.1601563
			c0.3076172,0.2587891,0.5986328,0.3876953,0.8720703,0.3876953c0.1884766,0,0.3417969-0.0576172,0.4619141-0.1728516
			c0.1191406-0.1152344,0.1787109-0.2558594,0.1787109-0.4199219c0-0.1875-0.0585938-0.3496094-0.1757813-0.4863281
			c-0.1181641-0.1367188-0.3798828-0.34375-0.7871094-0.6220703c-0.5996094-0.4140625-0.9873047-0.7304688-1.1635742-0.9492188
			C8.6098633,89.746254,8.480957,89.3927383,8.480957,89.0055313c0-0.4223633,0.1455078-0.8041992,0.4375-1.1464844
			c0.2915039-0.3417969,0.7133789-0.5131836,1.2661133-0.5131836c0.2978516,0,0.5849609,0.0727539,0.8632813,0.2172852
			c0.1064453,0.0585938,0.1923828,0.0878906,0.2587891,0.0878906c0.0703125,0,0.1269531-0.0146484,0.1699219-0.0439453
			c0.0439453-0.0292969,0.1123047-0.1123047,0.2060547-0.2495117H11.8828125z"/>
	</g>
</g>
<g>
	<g>
		<path class="st6" d="M182.9150391,35.566082c-0.2617188,0.2734375-0.5175781,0.46875-0.7675781,0.5878906
			c-0.2509766,0.1191406-0.5205078,0.1787109-0.8095703,0.1787109c-0.5859375,0-1.0976563-0.2451172-1.5361328-0.734375
			c-0.4375-0.4892578-0.65625-1.1191406-0.65625-1.8867188c0-0.7685547,0.2421875-1.4716797,0.7265625-2.1098652
			c0.4853516-0.6376953,1.1083984-0.956543,1.8701172-0.956543c0.4736328,0,0.8642578,0.1499023,1.1728516,0.4501953v-0.9887695
			c0-0.6123047-0.0146484-0.9887695-0.0439453-1.1289063c-0.0292969-0.140625-0.0751953-0.2363281-0.1376953-0.2871094
			c-0.0625-0.050293-0.140625-0.0756836-0.234375-0.0756836c-0.1015625,0-0.2363281,0.03125-0.4042969,0.0932617
			l-0.0761719-0.2045898l1.5996094-0.6552734h0.2646484v6.196291c0,0.6279297,0.0146484,1.0117188,0.0439453,1.1494141
			c0.0292969,0.1386719,0.0761719,0.2353516,0.140625,0.2900391s0.1396484,0.0820313,0.2255859,0.0820313
			c0.1054688,0,0.2460938-0.0332031,0.4228516-0.0996094l0.0634766,0.2050781l-1.5947266,0.6611328h-0.2695313V35.566082z
			 M182.9150391,35.1559258V32.394207c-0.0234375-0.2646484-0.09375-0.5068378-0.2109375-0.7250996
			s-0.2724609-0.3833008-0.4658203-0.4946289c-0.1933594-0.1108398-0.3828125-0.1665039-0.5664063-0.1665039
			c-0.34375,0-0.6503906,0.1538086-0.9199219,0.4619141c-0.3554688,0.4057617-0.5332031,0.9985371-0.5332031,1.7788105
			c0,0.7880859,0.171875,1.3916016,0.515625,1.8115234c0.34375,0.4189453,0.7265625,0.6289063,1.1484375,0.6289063
			C182.2392578,35.6891289,182.5830078,35.5113945,182.9150391,35.1559258z"/>
	</g>
	<g>
		<path class="st6" d="M188.6240234,30.5455723l0.0878906,1.8662128h-0.1992188
			c-0.2382813-0.5537128-0.4853516-0.9321308-0.7412109-1.1347675c-0.2568359-0.2026367-0.5117188-0.3041992-0.765625-0.3041992
			c-0.1601563,0-0.296875,0.0537109-0.4101563,0.1606445c-0.1132813,0.1074219-0.1699219,0.2314453-0.1699219,0.371582
			c0,0.1054688,0.0390625,0.2070313,0.1171875,0.3041992c0.125,0.1601563,0.4746094,0.4345722,1.0498047,0.8222675
			c0.5742188,0.3886719,0.9521484,0.7177734,1.1337891,0.9892578c0.1816406,0.2705078,0.2724609,0.5742188,0.2724609,0.9091797
			c0,0.3046875-0.0761719,0.6025391-0.2285156,0.8955078s-0.3671875,0.5166016-0.6445313,0.6728516
			s-0.5849609,0.234375-0.9208984,0.234375c-0.2617188,0-0.6113281-0.0820313-1.0488281-0.2460938
			c-0.1171875-0.0429688-0.1972656-0.0644531-0.2402344-0.0644531c-0.1289063,0-0.2373047,0.0976563-0.3232422,0.2929688h-0.1933594
			l-0.09375-1.9658203h0.1992188c0.1767578,0.5146484,0.4179688,0.9003906,0.7246094,1.1582031
			s0.5966797,0.3857422,0.8701172,0.3857422c0.1875,0,0.3408203-0.0566406,0.4609375-0.171875
			c0.1191406-0.1152344,0.1787109-0.2548828,0.1787109-0.4189453c0-0.1865234-0.0585938-0.3486328-0.1757813-0.4853516
			c-0.1181641-0.1367188-0.3798828-0.34375-0.7861328-0.6201172c-0.5976563-0.4140625-0.984375-0.7294922-1.1611328-0.9482422
			c-0.2578125-0.3193359-0.3867188-0.6728516-0.3867188-1.0585938c0-0.4213886,0.1455078-0.8027363,0.4365234-1.1440449
			c0.2919922-0.3413086,0.7128906-0.512207,1.2636719-0.512207c0.296875,0,0.5839844,0.0722656,0.8623047,0.2163086
			c0.1054688,0.0585938,0.1914063,0.0878906,0.2578125,0.0878906c0.0703125,0,0.1269531-0.0146484,0.1699219-0.0439453
			s0.1113281-0.1118164,0.2050781-0.2485352H188.6240234z"/>
	</g>
</g>
<g>
	<g>
		<path class="st6" d="M157.4755859,51.566082c-0.2607422,0.2734375-0.5166016,0.46875-0.765625,0.5878906
			c-0.25,0.1191406-0.5185547,0.1787109-0.8076172,0.1787109c-0.5849609,0-1.0957031-0.2451172-1.5322266-0.734375
			s-0.6552734-1.1191406-0.6552734-1.8867188c0-0.7685547,0.2421875-1.4716797,0.7255859-2.1098633
			c0.4833984-0.6376953,1.1054688-0.956543,1.8652344-0.956543c0.4726563,0,0.8623047,0.1499023,1.1699219,0.4501953v-0.9887695
			c0-0.6123047-0.0146484-0.9887695-0.0439453-1.1289063c-0.0292969-0.140625-0.0742188-0.2363281-0.1367188-0.2871094
			c-0.0625-0.050293-0.140625-0.0756836-0.234375-0.0756836c-0.1015625,0-0.2363281,0.03125-0.4033203,0.0932617
			l-0.0761719-0.2045898l1.5966797-0.6552734h0.2636719v6.1962891c0,0.6279297,0.0146484,1.0117188,0.0439453,1.1494141
			c0.0292969,0.1386719,0.0751953,0.2353516,0.1396484,0.2900391s0.1396484,0.0820313,0.2255859,0.0820313
			c0.1054688,0,0.2451172-0.0332031,0.4208984-0.0996094l0.0644531,0.2050781l-1.5908203,0.6611328h-0.2695313V51.566082z
			 M157.4755859,51.1559258V48.394207c-0.0234375-0.2646484-0.0927734-0.5068359-0.2099609-0.7250977
			s-0.2724609-0.3833008-0.4648438-0.4946289c-0.1933594-0.1108398-0.3818359-0.1665039-0.5644531-0.1665039
			c-0.34375,0-0.6494141,0.1538086-0.9189453,0.4619141c-0.3544922,0.4057617-0.5322266,0.9985352-0.5322266,1.7788086
			c0,0.7880859,0.171875,1.3916016,0.5146484,1.8115234c0.34375,0.4189453,0.7255859,0.6289063,1.1464844,0.6289063
			C156.8017578,51.6891289,157.1445313,51.5113945,157.4755859,51.1559258z"/>
	</g>
	<g>
		<path class="st6" d="M164.6894531,46.7823906l0.1806641-1.7319336c0.0507813-0.4912109,0.1015625-0.8227539,0.1523438-0.9946289
			c0.0742188-0.2456055,0.1787109-0.421875,0.3134766-0.5292969c0.1337891-0.1074219,0.2851563-0.1611328,0.453125-0.1611328
			c0.140625,0,0.2509766,0.0390625,0.3330078,0.1171875s0.1230469,0.1772461,0.1230469,0.2983398
			c0,0.09375-0.0195313,0.1928711-0.0585938,0.2983398c-0.0507813,0.1484375-0.1953125,0.4741211-0.4326172,0.9770508
			l-0.8076172,1.7260742H164.6894531z"/>
	</g>
	<g>
		<path class="st6" d="M163.1621094,46.5455742L163.25,48.4117851h-0.1992188
			c-0.2373047-0.5537109-0.484375-0.9321289-0.7392578-1.1347656c-0.2558594-0.2026367-0.5097656-0.3041992-0.7636719-0.3041992
			c-0.1601563,0-0.2958984,0.0537109-0.4091797,0.1606445c-0.1132813,0.1074219-0.1699219,0.2314453-0.1699219,0.371582
			c0,0.1054688,0.0390625,0.2070313,0.1171875,0.3041992c0.125,0.1601563,0.4736328,0.4345703,1.046875,0.8222656
			c0.5732422,0.3886719,0.9501953,0.7177734,1.1318359,0.9892578c0.1816406,0.2705078,0.2714844,0.5742188,0.2714844,0.9091797
			c0,0.3046875-0.0751953,0.6025391-0.2275391,0.8955078s-0.3662109,0.5166016-0.6435547,0.6728516
			s-0.5830078,0.234375-0.9179688,0.234375c-0.2617188,0-0.6103516-0.0820313-1.046875-0.2460938
			c-0.1171875-0.0429688-0.1972656-0.0644531-0.2402344-0.0644531c-0.1289063,0-0.2363281,0.0976563-0.3222656,0.2929688h-0.1923828
			l-0.09375-1.9658203h0.1982422c0.1757813,0.5146484,0.4169922,0.9003906,0.7226563,1.1582031
			c0.3066406,0.2578125,0.5957031,0.3857422,0.8691406,0.3857422c0.1875,0,0.3398438-0.0566406,0.4589844-0.171875
			s0.1787109-0.2548828,0.1787109-0.4189453c0-0.1865234-0.0585938-0.3486328-0.1757813-0.4853516
			s-0.3779297-0.34375-0.7841797-0.6201172c-0.5966797-0.4140625-0.9824219-0.7294922-1.1582031-0.9482422
			c-0.2568359-0.3193359-0.3857422-0.6728516-0.3857422-1.0585938c0-0.4213867,0.1455078-0.8027344,0.4365234-1.144043
			c0.2900391-0.3413086,0.7099609-0.512207,1.2597656-0.512207c0.296875,0,0.5830078,0.0722656,0.8603516,0.2163086
			c0.1044922,0.0585938,0.1904297,0.0878906,0.2568359,0.0878906c0.0703125,0,0.1269531-0.0146484,0.1699219-0.0439453
			s0.1113281-0.1118164,0.2041016-0.2485352H163.1621094z"/>
	</g>
</g>
<g>
	<g>
		<path class="st7" d="M166.2255859,84.7594376l1.9970703-0.3261719l-0.8330078,2.8325195
			c0.6748047-1.1616211,1.2880859-1.9736328,1.8398438-2.4360352c0.3125-0.2646484,0.5673828-0.3964844,0.7636719-0.3964844
			c0.1269531,0,0.2275391,0.0375977,0.3007813,0.1137695c0.0732422,0.0756836,0.1103516,0.1855469,0.1103516,0.3291016
			c0,0.2563477-0.0654297,0.5014648-0.1972656,0.734375c-0.0917969,0.1748047-0.2255859,0.262207-0.3994141,0.262207
			c-0.0878906,0-0.1640625-0.0288086-0.2285156-0.0874023c-0.0634766-0.0581055-0.1025391-0.1474609-0.1181641-0.2680664
			c-0.0078125-0.0737305-0.0253906-0.1225586-0.0517578-0.1455078c-0.03125-0.03125-0.0683594-0.046875-0.1103516-0.046875
			c-0.0654297,0-0.1269531,0.015625-0.1855469,0.046875c-0.0996094,0.0541992-0.2529297,0.2060547-0.4570313,0.4545898
			c-0.3203125,0.3808594-0.6669922,0.8740234-1.0410156,1.4804688c-0.1621094,0.2568359-0.3017578,0.5458984-0.4169922,0.8681641
			c-0.1621094,0.4433594-0.2548828,0.7089844-0.2773438,0.7988281l-0.1855469,0.734375h-0.8857422l1.0712891-3.6196289
			c0.1230469-0.4194336,0.1845703-0.71875,0.1845703-0.8974609c0-0.0703125-0.0283203-0.128418-0.0869141-0.1748047
			c-0.0771484-0.0625-0.1787109-0.0932617-0.3066406-0.0932617c-0.0810547,0-0.2294922,0.0170898-0.4453125,0.0522461
			L166.2255859,84.7594376z"/>
	</g>
</g>
<g>
	<g>
		<path class="st7" d="M150.2978516,82.227211l2.0419922-0.3256836l-0.8515625,2.8266602
			c0.6904297-1.1591797,1.3173828-1.9697266,1.8818359-2.4311523c0.3193359-0.2636719,0.5800781-0.3955078,0.78125-0.3955078
			c0.1308594,0,0.2324219,0.0380859,0.3085938,0.1137695c0.0742188,0.0751953,0.1113281,0.1850586,0.1113281,0.3286133
			c0,0.2558594-0.0664063,0.4995117-0.2011719,0.7329102c-0.09375,0.1738281-0.2304688,0.2617188-0.4082031,0.2617188
			c-0.0908203,0-0.1689453-0.0292969-0.2333984-0.0878906c-0.0654297-0.0576172-0.1064453-0.1474609-0.1220703-0.2666016
			c-0.0078125-0.0742188-0.0253906-0.1230469-0.0527344-0.1464844c-0.0322266-0.0302734-0.0693359-0.0458984-0.1123047-0.0458984
			c-0.0673828,0-0.1308594,0.015625-0.1894531,0.0458984c-0.1025391,0.0546875-0.2587891,0.2060547-0.4677734,0.4541016
			c-0.328125,0.3798828-0.6826172,0.8730469-1.0654297,1.4775391c-0.1660156,0.2558594-0.3076172,0.5449219-0.4257813,0.8671875
			c-0.1660156,0.4414063-0.2607422,0.7070313-0.2841797,0.796875l-0.1894531,0.7324219h-0.90625l1.0957031-3.6123047
			c0.1259766-0.4189453,0.1894531-0.7177734,0.1894531-0.8955078c0-0.0698242-0.0302734-0.1279297-0.0888672-0.1743164
			c-0.0791016-0.0620117-0.1835938-0.0932617-0.3144531-0.0932617c-0.0820313,0-0.234375,0.0175781-0.4550781,0.0522461
			L150.2978516,82.227211z"/>
	</g>
	<g>
		<path class="st7" d="M155.6855469,81.8072891l0.1835938-1.7216797c0.0517578-0.4882813,0.1025391-0.8178711,0.1542969-0.9887695
			c0.0751953-0.2441406,0.1806641-0.4194336,0.3164063-0.5263672c0.1367188-0.1064453,0.2890625-0.159668,0.4589844-0.159668
			c0.1416016,0,0.2539063,0.0385742,0.3369141,0.1162109s0.125,0.1762695,0.125,0.2963867
			c0,0.0932617-0.0205078,0.1918945-0.0595703,0.296875c-0.0517578,0.1474609-0.1972656,0.4711914-0.4384766,0.9711914
			l-0.8164063,1.7158203H155.6855469z"/>
	</g>
</g>
<g>
</g>
<g>
</g>
<g>
</g>
<g>
</g>
<g>
</g>
<g>
</g>
</svg>
