<?xml version="1.0" encoding="utf-8"?>
<!-- Generator: Adobe Illustrator 19.0.0, SVG Export Plug-In . SVG Version: 6.00 Build 0)  -->
<svg version="1.1" id="Layer_1" xmlns="http://www.w3.org/2000/svg" xmlns:xlink="http://www.w3.org/1999/xlink" x="0px" y="0px"
	 viewBox="0 0 156.3333282 151.3333282" style="enable-background:new 0 0 156.3333282 151.3333282;" xml:space="preserve">
<style type="text/css">
	.st0{fill:#FFFFFF;stroke:#EF4136;stroke-miterlimit:10;}
	.st1{fill:none;stroke:#2B3990;stroke-miterlimit:10;}
	.st2{fill:none;stroke:#000000;stroke-miterlimit:10;}
	.st3{fill:none;stroke:#EF4136;stroke-miterlimit:10;}
	.st4{fill:#010101;}
</style>
<path class="st0" d="M74.687645,24.9205132c40.8282547-16.6645927,66.6583786-16.6645927,77.4903641,29.1630402
	s-47.3598404,101.811676-76.9350204,93.814209C55.7867851,142.6365814,5.8986959,92.6651764,2.1493499,70.6013794
	C-1.5999757,48.5375557,33.8593864,41.5851097,74.687645,24.9205132z"/>
<circle class="st1" cx="81.0755997" cy="92.3657303" r="5.8326082"/>
<g>
	<line class="st1" x1="77.1177597" y1="92.1574249" x2="85.0334396" y2="92.1574249"/>
	<line class="st1" x1="81.0755997" y1="88.4078903" x2="81.0755997" y2="96.3235703"/>
</g>
<path class="st2" d="M81.0755997,92.1574249"/>
<line class="st2" x1="86.7163773" y1="89.7659531" x2="153.0980988" y2="72.4637299"/>
<path class="st2" d="M81.0755997,92.1574249"/>
<path class="st2" d="M81.0755997,92.1574249"/>
<path class="st2" d="M81.0755997,92.1574249"/>
<line class="st2" x1="140.1596527" y1="26.4579887" x2="84.5828476" y2="87.7056656"/>
<line class="st2" x1="115.9166641" y1="14.7410002" x2="83.0545197" y2="86.883461"/>
<line class="st2" x1="85.0334396" y1="20.9582977" x2="81.0755997" y2="86.5331268"/>
<line class="st2" x1="57.5424614" y1="31.5679398" x2="78.4394073" y2="87.1633377"/>
<line class="st2" x1="32.8811111" y1="40.849617" x2="76.7926941" y2="88.4078903"/>
<line class="st2" x1="7.2216082" y1="55.3448753" x2="75.8600616" y2="89.7659531"/>
<line class="st2" x1="4.9991412" y1="78.8803711" x2="75.3705368" y2="91.1508865"/>
<line class="st2" x1="19.459219" y1="100.5415878" x2="75.3705368" y2="93.1295929"/>
<line class="st2" x1="38.2922325" y1="121.0572281" x2="76.7926941" y2="96.3235703"/>
<line class="st2" x1="52.539814" y1="133.8390503" x2="78.4394073" y2="97.5681305"/>
<line class="st2" x1="71.9900208" y1="146.7311249" x2="80.3774338" y2="98.15522"/>
<line class="st2" x1="83.711792" y1="97.5681305" x2="99.4855957" y2="143.9367981"/>
<line class="st2" x1="86.0934982" y1="95.3385925" x2="119.3246384" y2="130.5744781"/>
<line class="st2" x1="86.7163773" y1="93.1295929" x2="132.0503082" y2="117.4879456"/>
<line class="st2" x1="86.9082108" y1="92.3657303" x2="140.1596527" y2="106.3825531"/>
<line class="st2" x1="86.7806625" y1="91.1508865" x2="148.1156006" y2="91.1508865"/>
<line class="st2" x1="150.4458618" y1="47.5703316" x2="85.6890717" y2="88.8064423"/>
<circle class="st3" cx="81.0756378" cy="92.2963638" r="25.8974056"/>
<circle class="st4" cx="118.0674667" cy="5.1798077" r="0.8008796"/>
<circle class="st4" cx="124.1157761" cy="5.1798077" r="0.80089"/>
<circle class="st4" cx="130.2494202" cy="6.7814627" r="0.8008796"/>
<circle class="st4" cx="105.9730453" cy="58.5646553" r="0.8008796"/>
<circle class="st4" cx="100.8996735" cy="56.2808456" r="0.8008796"/>
<g>
	<g>
		<path class="st4" d="M45.2945976,27.4220371l1.1162109-0.5458984h0.1113281v3.8808594
			c0,0.2578125,0.0107422,0.4189453,0.0322266,0.4814453c0.0214844,0.0634766,0.0654297,0.1123047,0.1337891,0.1464844
			c0.0673828,0.0332031,0.2050781,0.0527344,0.4121094,0.0576172v0.125h-1.7246094v-0.125
			c0.2167969-0.0048828,0.3564453-0.0234375,0.4199219-0.0566406c0.0625-0.0322266,0.1064453-0.0761719,0.1318359-0.1318359
			c0.0244141-0.0556641,0.0371094-0.2207031,0.0371094-0.4970703v-2.4814453c0-0.3339844-0.0117188-0.5488281-0.0341797-0.6435547
			c-0.015625-0.0722656-0.0449219-0.1259766-0.0859375-0.1591797c-0.0419922-0.0341797-0.0917969-0.0507813-0.1503906-0.0507813
			c-0.0839844,0-0.2001953,0.0341797-0.3486328,0.1044922L45.2945976,27.4220371z"/>
	</g>
	<g>
		<path class="st4" d="M38.2506523,27.8702793c-0.2607422,0.2734375-0.5166016,0.4697266-0.765625,0.5888672
			c-0.25,0.1191406-0.5185547,0.1787109-0.8076172,0.1787109c-0.5849609,0-1.0957031-0.2451172-1.5322266-0.7353516
			c-0.4365234-0.4912109-0.6552734-1.1210938-0.6552734-1.8916016c0-0.7700195,0.2421875-1.4746094,0.7255859-2.1137695
			s1.1054688-0.9584961,1.8652344-0.9584961c0.4726563,0,0.8623047,0.1503906,1.1699219,0.4511719v-0.9907227
			c0-0.6137695-0.0146484-0.9912109-0.0439453-1.1318359c-0.0283203-0.140625-0.0742188-0.2363281-0.1367188-0.2871094
			s-0.140625-0.0766602-0.234375-0.0766602c-0.1015625,0-0.2363281,0.0317383-0.4033203,0.0942383l-0.0761719-0.2055664
			l1.5966797-0.6567383h0.2636719v6.2094727c0,0.6298828,0.0146484,1.0136719,0.0439453,1.1523438
			s0.0751953,0.2353516,0.1396484,0.2900391c0.0644531,0.0556641,0.1396484,0.0830078,0.2255859,0.0830078
			c0.1054688,0,0.2451172-0.0332031,0.4208984-0.1005859l0.0644531,0.2060547l-1.5908203,0.6621094h-0.2695313V27.8702793z
			 M38.2506523,27.4591465v-2.7675781c-0.0234375-0.265625-0.0927734-0.5078125-0.2099609-0.7270508
			c-0.1171875-0.21875-0.2724609-0.3837891-0.4648438-0.4956055c-0.1933594-0.1113281-0.3818359-0.1669922-0.5644531-0.1669922
			c-0.34375,0-0.6494141,0.1547852-0.9189453,0.4633789c-0.3544922,0.4067383-0.5322266,1.0004883-0.5322266,1.7827148
			c0,0.7890625,0.171875,1.3945313,0.5146484,1.8144531c0.34375,0.4208984,0.7255859,0.6308594,1.1464844,0.6308594
			C37.5768242,27.9933262,37.9195976,27.8155918,38.2506523,27.4591465z"/>
	</g>
	<g>
		<path class="st4" d="M43.9371758,22.838541l0.0878906,1.8706055h-0.1992188
			c-0.2373047-0.5546875-0.484375-0.934082-0.7392578-1.137207c-0.2558594-0.2036133-0.5097656-0.3051758-0.7636719-0.3051758
			c-0.1601563,0-0.2958984,0.0537109-0.4091797,0.1611328c-0.1132813,0.1079102-0.1699219,0.2319336-0.1699219,0.3725586
			c0,0.1054688,0.0390625,0.2070313,0.1171875,0.3046875c0.125,0.1606445,0.4736328,0.4350586,1.046875,0.8242188
			c0.5732422,0.3886719,0.9501953,0.7192383,1.1318359,0.9907227s0.2714844,0.5761719,0.2714844,0.9121094
			c0,0.3046875-0.0751953,0.6035156-0.2275391,0.8964844c-0.1523438,0.2939453-0.3662109,0.5185547-0.6435547,0.6748047
			s-0.5830078,0.234375-0.9179688,0.234375c-0.2617188,0-0.6103516-0.0820313-1.046875-0.2460938
			c-0.1171875-0.0429688-0.1972656-0.0644531-0.2402344-0.0644531c-0.1289063,0-0.2363281,0.0976563-0.3222656,0.2929688h-0.1923828
			l-0.09375-1.9697266h0.1982422c0.1757813,0.515625,0.4169922,0.9023438,0.7226563,1.1601563
			c0.3066406,0.2587891,0.5957031,0.3876953,0.8691406,0.3876953c0.1875,0,0.3398438-0.0576172,0.4589844-0.1728516
			s0.1787109-0.2558594,0.1787109-0.4199219c0-0.1875-0.0585938-0.3496094-0.1757813-0.4863281
			s-0.3779297-0.34375-0.7841797-0.6220703c-0.5966797-0.4140625-0.9824219-0.7304688-1.1582031-0.9492188
			c-0.2568359-0.3208008-0.3857422-0.6743164-0.3857422-1.0615234c0-0.4223633,0.1455078-0.8041992,0.4365234-1.1464844
			c0.2900391-0.3417969,0.7099609-0.5131836,1.2597656-0.5131836c0.296875,0,0.5830078,0.0727539,0.8603516,0.2172852
			c0.1044922,0.0585938,0.1904297,0.0878906,0.2568359,0.0878906c0.0703125,0,0.1269531-0.0146484,0.1699219-0.0439453
			s0.1113281-0.1123047,0.2050781-0.2495117H43.9371758z"/>
	</g>
</g>
<g>
	<g>
		<path class="st4" d="M63.6520195,62.8463554l0.7812462-0.3818359h0.078125v2.7167931
			c0,0.1806641,0.0068359,0.2929688,0.0224609,0.3369141c0.0146484,0.0449219,0.0458984,0.078125,0.0927734,0.1025391
			c0.0478516,0.0234375,0.1435547,0.0371094,0.2890625,0.0400391v0.0878906h-1.2070274v-0.0878906
			c0.1513672-0.0029297,0.2490234-0.015625,0.2929649-0.0390625c0.0449219-0.0224609,0.0751953-0.0537109,0.0927734-0.0927734
			c0.0175781-0.0380859,0.0263672-0.1542969,0.0263672-0.3476563V63.4445c0-0.2338867-0.0078125-0.3842773-0.0244141-0.4506836
			c-0.0107422-0.0507813-0.0302734-0.0878906-0.0595703-0.1118164c-0.0292969-0.0234375-0.0644493-0.0356445-0.1054649-0.0356445
			c-0.0585938,0-0.1396484,0.0249023-0.2441406,0.0737305L63.6520195,62.8463554z"/>
	</g>
	<g>
		<path class="st4" d="M58.7213554,63.1603203c-0.1826172,0.1914063-0.3613281,0.3291016-0.5361328,0.4125977
			s-0.3632813,0.125-0.5654297,0.125c-0.4091797,0-0.7666016-0.1713867-1.0722656-0.5151367
			c-0.3056641-0.3432617-0.4589844-0.784668-0.4589844-1.3237305s0.1689453-1.0322266,0.5078125-1.4794922
			s0.7734375-0.6708984,1.3056641-0.6708984c0.3310547,0,0.6035156,0.1049805,0.8193359,0.315918v-0.6938477
			c0-0.4296875-0.0097656-0.6938477-0.0302734-0.7919922c-0.0205078-0.0986328-0.0527344-0.1655273-0.0966797-0.2011719
			s-0.0986328-0.0532227-0.1640625-0.0532227c-0.0703125,0-0.1650391,0.0214844-0.2822266,0.0654297l-0.0527344-0.1435547
			l1.1171875-0.4599609h0.1845703v4.347168c0,0.4404297,0.0097656,0.7094727,0.0302734,0.8061523
			c0.0205078,0.097168,0.0537109,0.1650391,0.0986328,0.203125c0.0449219,0.0385742,0.0976563,0.0576172,0.1572266,0.0576172
			c0.0742188,0,0.171875-0.0229492,0.2949219-0.0698242l0.0449219,0.1435547l-1.1132813,0.4638672h-0.1884766V63.1603203z
			 M58.7213554,62.8732109v-1.9375c-0.0166016-0.1860352-0.0654297-0.3554688-0.1474609-0.5087891
			s-0.1904297-0.269043-0.3251953-0.347168c-0.1357422-0.0776367-0.2666016-0.1166992-0.3955078-0.1166992
			c-0.2402344,0-0.4541016,0.1079102-0.6425781,0.3242188c-0.2480469,0.284668-0.3730469,0.7001953-0.3730469,1.2475586
			c0,0.5527344,0.1201172,0.9765625,0.3603516,1.2705078c0.2402344,0.2944336,0.5078125,0.4414063,0.8027344,0.4414063
			C58.2486992,63.2467461,58.4889336,63.1222343,58.7213554,62.8732109z"/>
	</g>
	<g>
		<path class="st4" d="M63.7701836,59.800457l0.1269531-1.2148438c0.0361328-0.3452148,0.0712891-0.5776367,0.1064415-0.6982422
			c0.0517578-0.1723633,0.125-0.2958984,0.2197266-0.3710938c0.09375-0.0751953,0.1992188-0.112793,0.3173828-0.112793
			c0.0976563,0,0.1757813,0.0273438,0.2333984,0.0820313c0.0566406,0.0546875,0.0859375,0.1245117,0.0859375,0.2089844
			c0,0.065918-0.0136719,0.1357422-0.0410156,0.2094727c-0.0361328,0.1040039-0.1367188,0.3325195-0.3037109,0.6855469
			l-0.5644493,1.2109375H63.7701836z"/>
	</g>
	<g>
		<path class="st4" d="M62.7008476,59.6388359l0.0615234,1.309082h-0.1386719
			c-0.1669922-0.3886719-0.3398438-0.6538086-0.5185547-0.7963867c-0.1787109-0.1420898-0.3564453-0.2133789-0.5341797-0.2133789
			c-0.1123047,0-0.2070313,0.0375977-0.2861328,0.112793c-0.0800781,0.0756836-0.1191406,0.1621094-0.1191406,0.2607422
			c0,0.0742188,0.0273438,0.1450195,0.0820313,0.2133789c0.0869141,0.1123047,0.3310547,0.3046875,0.7324219,0.5766602
			c0.4013672,0.2724609,0.6660156,0.5039063,0.7929688,0.6938477c0.1269531,0.1904297,0.1904297,0.402832,0.1904297,0.6381836
			c0,0.2133789-0.0537109,0.4228516-0.1601563,0.6279297c-0.1064453,0.2055664-0.2568359,0.362793-0.4501953,0.472168
			c-0.1943359,0.109375-0.4082031,0.1640625-0.6425781,0.1640625c-0.1835938,0-0.4277344-0.0571289-0.7333984-0.1723633
			c-0.0820313-0.0297852-0.1376953-0.0449219-0.1679688-0.0449219c-0.0898438,0-0.1650391,0.0683594-0.2246094,0.2055664h-0.1357422
			l-0.0654297-1.3793945h0.1396484c0.1220703,0.3608398,0.2910156,0.6318359,0.5048828,0.8125
			c0.2148438,0.1806641,0.4169922,0.2709961,0.6083984,0.2709961c0.1308594,0,0.2382813-0.0405273,0.3212891-0.1210938
			s0.125-0.1787109,0.125-0.293457c0-0.1313477-0.0410156-0.2451172-0.1230469-0.3408203s-0.2646484-0.2407227-0.5488281-0.4350586
			c-0.4169922-0.2900391-0.6875-0.5117188-0.8105469-0.6650391c-0.1796875-0.2241211-0.2695313-0.4716797-0.2695313-0.7426758
			c0-0.2954102,0.1015625-0.5629883,0.3046875-0.8027344c0.203125-0.2392578,0.4970703-0.3588867,0.8828125-0.3588867
			c0.2070313,0,0.4072266,0.0507813,0.6015625,0.1518555c0.0732422,0.0410156,0.1337891,0.0615234,0.1796875,0.0615234
			c0.0498047,0,0.0888672-0.0102539,0.1191406-0.0307617s0.078125-0.0786133,0.1435547-0.1743164H62.7008476z"/>
	</g>
</g>
<g>
	<g>
		<path class="st4" d="M74.2692032,21.6202793l-0.3232422,0.8847656h-2.7167969v-0.125
			c0.7998047-0.7285156,1.3623047-1.3222656,1.6884766-1.7832031s0.4882813-0.8828125,0.4882813-1.2646484
			c0-0.2919922-0.0888672-0.53125-0.2675781-0.71875c-0.1796875-0.1875-0.3935547-0.28125-0.6425781-0.28125
			c-0.2265625,0-0.4296875,0.0654297-0.609375,0.1982422c-0.1796875,0.1318359-0.3134766,0.3261719-0.3994141,0.5810547h-0.125
			c0.0566406-0.4179688,0.2021484-0.7392578,0.4365234-0.9628906s0.5263672-0.3349609,0.8779297-0.3349609
			c0.3730469,0,0.6855469,0.1191406,0.9355469,0.359375c0.25,0.2392578,0.375,0.5214844,0.375,0.8466797
			c0,0.2333984-0.0537109,0.4658203-0.1630859,0.6992188c-0.1669922,0.3652344-0.4394531,0.7529297-0.8144531,1.1621094
			c-0.5644531,0.6152344-0.9160156,0.9853516-1.0566406,1.1123047h1.2021484c0.2441406,0,0.4160156-0.0087891,0.5146484-0.0273438
			c0.0986328-0.0175781,0.1875-0.0546875,0.2666016-0.1103516c0.0791016-0.0546875,0.1484375-0.1337891,0.2070313-0.2353516
			H74.2692032z"/>
	</g>
	<g>
		<path class="st4" d="M64.0768204,18.8077793c-0.2626915,0.2734375-0.5185509,0.4697266-0.7695274,0.5888672
			s-0.5205078,0.1787109-0.8105469,0.1787109c-0.5878906,0-1.1005859-0.2451172-1.5390625-0.7353516
			c-0.4394531-0.4912109-0.6582031-1.1210938-0.6582031-1.8916016c0-0.7700195,0.2421875-1.4746084,0.7285156-2.1137686
			c0.4853516-0.6391602,1.1103516-0.9584961,1.8740234-0.9584961c0.4736328,0,0.8652344,0.1503906,1.1748009,0.4511719v-0.9907227
			c0-0.6137695-0.0146484-0.9912109-0.0439453-1.1318359s-0.0751915-0.2363281-0.1376915-0.2871094
			c-0.0634766-0.0507813-0.1416016-0.0766602-0.2353516-0.0766602c-0.1015625,0-0.2373047,0.0317383-0.4052734,0.0942383
			l-0.0761719-0.2055664l1.6035118-0.6567383h0.2646484v6.2094717c0,0.6298828,0.0146484,1.0136719,0.0439453,1.1523438
			s0.0761719,0.2353516,0.140625,0.2900391c0.0644531,0.0556641,0.140625,0.0830078,0.2265625,0.0830078
			c0.1054688,0,0.2470703-0.0332031,0.4228516-0.1005859l0.0644531,0.2060547l-1.5976563,0.6621094h-0.2705078V18.8077793z
			 M64.0768204,18.3966465v-2.7675772c-0.0234375-0.265625-0.0937462-0.5078125-0.2109337-0.7270508
			c-0.1181641-0.21875-0.2734375-0.3837891-0.4677734-0.4956055c-0.1933594-0.1113281-0.3828125-0.1669922-0.5664063-0.1669922
			c-0.3447266,0-0.6523438,0.1547852-0.9228516,0.4633789c-0.3564453,0.4067383-0.5341797,1.0004883-0.5341797,1.7827139
			c0,0.7890625,0.171875,1.3945313,0.5166016,1.8144531c0.3447266,0.4208984,0.7285156,0.6308594,1.1513672,0.6308594
			C63.3990898,18.9308262,63.7438164,18.7530918,64.0768204,18.3966465z"/>
	</g>
	<g>
		<path class="st4" d="M69.7936172,13.776042l0.0878906,1.8706055h-0.2001953
			c-0.2382813-0.5546875-0.4863281-0.934082-0.7431641-1.137207c-0.2558594-0.2036133-0.5117188-0.3051758-0.7666016-0.3051758
			c-0.1601563,0-0.296875,0.0537109-0.4111328,0.1611328c-0.1142578,0.1079102-0.1708984,0.2319336-0.1708984,0.3725586
			c0,0.1054688,0.0390625,0.2070313,0.1181641,0.3046875c0.125,0.1606445,0.4755859,0.4350586,1.0517578,0.8242188
			c0.5751953,0.3886709,0.9541016,0.7192373,1.1367188,0.9907217c0.1816406,0.2714844,0.2734375,0.5761719,0.2734375,0.9121094
			c0,0.3046875-0.0771484,0.6035156-0.2294922,0.8964844c-0.1523438,0.2939453-0.3681641,0.5185547-0.6464844,0.6748047
			s-0.5849609,0.234375-0.921875,0.234375c-0.2626953,0-0.6132813-0.0820313-1.0517578-0.2460938
			c-0.1181641-0.0429688-0.1982422-0.0644531-0.2412109-0.0644531c-0.1289063,0-0.2373047,0.0976563-0.3232422,0.2929688h-0.1933594
			l-0.0947266-1.9697266h0.2001953c0.1757813,0.515625,0.4179688,0.9023438,0.7255859,1.1601563
			c0.3076172,0.2587891,0.5986328,0.3876953,0.8720703,0.3876953c0.1884766,0,0.3417969-0.0576172,0.4619141-0.1728516
			c0.1191406-0.1152344,0.1787109-0.2558594,0.1787109-0.4199219c0-0.1875-0.0585938-0.3496094-0.1757813-0.4863281
			c-0.1181641-0.1367188-0.3798828-0.34375-0.7871094-0.6220703c-0.5996094-0.4140625-0.9873047-0.7304688-1.1640625-0.9492188
			c-0.2587891-0.3208008-0.3876953-0.6743155-0.3876953-1.0615225c0-0.4223633,0.1455078-0.8041992,0.4375-1.1464844
			c0.2919922-0.3417969,0.7138672-0.5131836,1.2666016-0.5131836c0.2978516,0,0.5849609,0.0727539,0.8632813,0.2172852
			c0.1064453,0.0585938,0.1923828,0.0878906,0.2587891,0.0878906c0.0703125,0,0.1269531-0.0146484,0.1699219-0.0439453
			c0.0439453-0.0292969,0.1123047-0.1123047,0.2060547-0.2495117H69.7936172z"/>
	</g>
</g>
<g>
	<g>
		<path class="st4" d="M81.0543594,59.53825l-0.2255859,0.6191406h-1.9023438V60.0695
			c0.5595703-0.5097656,0.953125-0.9257813,1.1816406-1.2480469c0.2285156-0.3232422,0.3427734-0.6181641,0.3427734-0.8847656
			c0-0.2041016-0.0625-0.3720703-0.1884766-0.5039063c-0.125-0.1308594-0.2744141-0.1962891-0.4492188-0.1962891
			c-0.1582031,0-0.3007813,0.0458984-0.4267578,0.1386719s-0.21875,0.2285156-0.2792969,0.4072266h-0.0878906
			c0.0400391-0.2929688,0.1416016-0.5175781,0.3056641-0.6738281c0.1640625-0.1572266,0.3691406-0.2353516,0.6142578-0.2353516
			c0.2617188,0,0.4804688,0.0839844,0.6552734,0.2509766c0.1748047,0.1679688,0.2626953,0.3662109,0.2626953,0.59375
			c0,0.1630859-0.0380859,0.3261719-0.1142578,0.4892578c-0.1171875,0.2558594-0.3076172,0.5273438-0.5703125,0.8134766
			c-0.3945313,0.4306641-0.6416016,0.6894531-0.7392578,0.7783203h0.8417969c0.1708984,0,0.2910156-0.0058594,0.359375-0.0185547
			c0.0693359-0.0126953,0.1318359-0.0390625,0.1875-0.0771484c0.0546875-0.0390625,0.1035156-0.09375,0.1445313-0.1650391
			H81.0543594z"/>
	</g>
	<g>
		<path class="st4" d="M73.9195938,57.5685234c-0.1835938,0.1914063-0.3632813,0.3291016-0.5380859,0.4121094
			c-0.1757813,0.0839844-0.3652344,0.1259766-0.5683594,0.1259766c-0.4111328,0-0.7705078-0.171875-1.0771484-0.515625
			c-0.3066406-0.3427734-0.4609375-0.7851563-0.4609375-1.3237305c0-0.5390625,0.1699219-1.0322266,0.5107422-1.4794922
			c0.3398438-0.4472656,0.7763672-0.6708984,1.3115234-0.6708984c0.3320313,0,0.6054688,0.1049805,0.8222656,0.315918v-0.6938477
			c0-0.4296875-0.0097656-0.6938477-0.0302734-0.7919922c-0.0205078-0.0986328-0.0527344-0.1655273-0.0966797-0.2011719
			s-0.0986328-0.0532227-0.1650391-0.0532227c-0.0712891,0-0.1660156,0.0214844-0.2832031,0.0654297l-0.0537109-0.1435547
			l1.1230469-0.4599609h0.1845703v4.347168c0,0.440918,0.0107422,0.7094727,0.03125,0.8061523
			c0.0205078,0.0976563,0.0527344,0.1650391,0.0986328,0.203125c0.0449219,0.0390625,0.0976563,0.0576172,0.1582031,0.0576172
			c0.0742188,0,0.1728516-0.0234375,0.2958984-0.0693359l0.0449219,0.1435547l-1.1181641,0.4638672h-0.1894531V57.5685234z
			 M73.9195938,57.281414v-1.9375c-0.0166016-0.1860352-0.0654297-0.3554688-0.1474609-0.5087891
			c-0.0830078-0.1533203-0.1914063-0.269043-0.3271484-0.347168c-0.1357422-0.0776367-0.2685547-0.1166992-0.3974609-0.1166992
			c-0.2412109,0-0.4560547,0.1079102-0.6455078,0.3242188c-0.2490234,0.284668-0.3740234,0.7001953-0.3740234,1.2475586
			c0,0.5527344,0.1210938,0.9760742,0.3623047,1.2709961c0.2412109,0.2939453,0.5097656,0.4404297,0.8056641,0.4404297
			C73.4449844,57.6544609,73.6871719,57.5304375,73.9195938,57.281414z"/>
	</g>
	<g>
		<path class="st4" d="M78.9918594,54.2091484l0.1269531-1.2148438c0.0361328-0.3452148,0.0712891-0.5776367,0.1074219-0.6982422
			c0.0517578-0.1723633,0.125-0.2958984,0.2197266-0.3710938s0.2011719-0.112793,0.3183594-0.112793
			c0.0986328,0,0.1767578,0.0273438,0.234375,0.0820313s0.0869141,0.1245117,0.0869141,0.2089844
			c0,0.065918-0.0136719,0.1357422-0.0410156,0.2094727c-0.0361328,0.1040039-0.1376953,0.3325195-0.3046875,0.6855469
			l-0.5673828,1.2109375H78.9918594z"/>
	</g>
	<g>
		<path class="st4" d="M77.9205704,54.047039l0.0625,1.309082h-0.140625
			c-0.1669922-0.3886719-0.3398438-0.6538086-0.5195313-0.7963867c-0.1796875-0.1420898-0.3583984-0.2133789-0.5371094-0.2133789
			c-0.1123047,0-0.2080078,0.0375977-0.2880859,0.112793c-0.0791016,0.0756836-0.1191406,0.1621094-0.1191406,0.2607422
			c0,0.0742188,0.0273438,0.1450195,0.0820313,0.2133789c0.0878906,0.1123047,0.3339844,0.3046875,0.7363281,0.5766602
			c0.4033203,0.2724609,0.6689453,0.5039063,0.7958984,0.6938477c0.1279297,0.1904297,0.1914063,0.402832,0.1914063,0.6381836
			c0,0.2138672-0.0537109,0.4228516-0.1601563,0.6279297c-0.1074219,0.2050781-0.2578125,0.3632813-0.453125,0.4726563
			c-0.1943359,0.109375-0.4091797,0.1640625-0.6455078,0.1640625c-0.1835938,0-0.4287109-0.0576172-0.7363281-0.1728516
			c-0.0820313-0.0302734-0.1376953-0.0449219-0.1679688-0.0449219c-0.0908203,0-0.1660156,0.0683594-0.2265625,0.2050781h-0.1357422
			l-0.0654297-1.3789063h0.1396484c0.1230469,0.3613281,0.2929688,0.6318359,0.5078125,0.8125
			s0.4189453,0.2705078,0.6103516,0.2705078c0.1318359,0,0.2392578-0.0400391,0.3232422-0.1210938
			c0.0839844-0.0800781,0.1259766-0.1777344,0.1259766-0.2929688c0-0.1318359-0.0419922-0.2451172-0.1240234-0.3408203
			s-0.265625-0.2412109-0.5507813-0.4345703c-0.4199219-0.2905273-0.6914063-0.512207-0.8144531-0.6655273
			c-0.1806641-0.2241211-0.2714844-0.4716797-0.2714844-0.7426758c0-0.2954102,0.1025391-0.5629883,0.3066406-0.8027344
			c0.2041016-0.2392578,0.5-0.3588867,0.8857422-0.3588867c0.2089844,0,0.4101563,0.0507813,0.6044922,0.1518555
			c0.0742188,0.0410156,0.1347656,0.0615234,0.1816406,0.0615234c0.0488281,0,0.0888672-0.0102539,0.1191406-0.0307617
			s0.078125-0.0786133,0.1435547-0.1743164H77.9205704z"/>
	</g>
</g>
<g>
	<g>
		<path class="st4" d="M102.9947891,9.0182295c0.1308594-0.3095703,0.296875-0.5478516,0.4970703-0.7167969
			c0.2001953-0.1679688,0.4501953-0.2519531,0.7490234-0.2519531c0.3691406,0,0.6523438,0.1191406,0.8496094,0.359375
			c0.1494141,0.1777344,0.2236328,0.3691406,0.2236328,0.5722656c0,0.3349609-0.2099609,0.6806641-0.6318359,1.0380859
			c0.2832031,0.1103516,0.4970703,0.2685547,0.6425781,0.4746094c0.1445313,0.2050781,0.2167969,0.4472656,0.2167969,0.7246094
			c0,0.3984375-0.1269531,0.7431641-0.3798828,1.0341797c-0.3310547,0.3798828-0.8095703,0.5693359-1.4375,0.5693359
			c-0.3095703,0-0.5205078-0.0380859-0.6328125-0.1152344c-0.1123047-0.0761719-0.1679688-0.1591797-0.1679688-0.2470703
			c0-0.0654297,0.0263672-0.1230469,0.0791016-0.1728516c0.0537109-0.0498047,0.1171875-0.0751953,0.1923828-0.0751953
			c0.0566406,0,0.1142578,0.0097656,0.1728516,0.0273438c0.0390625,0.0117188,0.1259766,0.0527344,0.2617188,0.1240234
			s0.2294922,0.1132813,0.2822266,0.1269531c0.0839844,0.0253906,0.1728516,0.0371094,0.2685547,0.0371094
			c0.2304688,0,0.4316406-0.0888672,0.6025391-0.2675781s0.2558594-0.3896484,0.2558594-0.6337891
			c0-0.1787109-0.0390625-0.3525391-0.1181641-0.5224609c-0.0595703-0.1259766-0.1240234-0.2226563-0.1933594-0.2880859
			c-0.0976563-0.0898438-0.2314453-0.171875-0.4013672-0.2451172c-0.1699219-0.0742188-0.3427734-0.1103516-0.5195313-0.1103516
			h-0.1083984v-0.1015625c0.1787109-0.0224609,0.3583984-0.0869141,0.5380859-0.1933594s0.3105469-0.234375,0.3925781-0.3828125
			c0.0810547-0.1494141,0.1220703-0.3134766,0.1220703-0.4921875c0-0.2324219-0.0732422-0.4208984-0.21875-0.5644531
			c-0.1464844-0.1435547-0.328125-0.2148438-0.5458984-0.2148438c-0.3505859,0-0.6435547,0.1875-0.8798828,0.5625
			L102.9947891,9.0182295z"/>
	</g>
	<g>
		<path class="st4" d="M95.8492813,9.0436201c-0.2626953,0.2734375-0.5185547,0.4697266-0.7695313,0.5888672
			s-0.5205078,0.1787109-0.8105469,0.1787109c-0.5878906,0-1.1005859-0.2451172-1.5390625-0.7353516
			c-0.4394531-0.4912109-0.6582031-1.1210942-0.6582031-1.891602c0-0.7700195,0.2421875-1.4746094,0.7285156-2.1137695
			c0.4853516-0.6391602,1.1103516-0.9584961,1.8740234-0.9584961c0.4736328,0,0.8652344,0.1503906,1.1748047,0.4511719V3.5724285
			c0-0.6137695-0.0146484-0.9912109-0.0439453-1.1318359s-0.0751953-0.2363281-0.1376953-0.2871094
			c-0.0634766-0.0507813-0.1416016-0.0766602-0.2353516-0.0766602c-0.1015625,0-0.2373047,0.0317383-0.4052734,0.0942383
			l-0.0761719-0.2055665l1.6035156-0.6567383h0.2646484V7.518229c0,0.6298833,0.0146484,1.0136724,0.0439453,1.1523442
			s0.0761719,0.2353516,0.140625,0.2900391c0.0644531,0.0556641,0.140625,0.0830078,0.2265625,0.0830078
			c0.1054688,0,0.2470703-0.0332031,0.4228516-0.1005859l0.0644531,0.2060547l-1.5976563,0.6621094h-0.2705078V9.0436201z
			 M95.8492813,8.6324873V5.8649087c-0.0234375-0.265625-0.09375-0.5078125-0.2109375-0.7270508
			c-0.1181641-0.21875-0.2734375-0.3837891-0.4677734-0.4956055c-0.1933594-0.1113281-0.3828125-0.1669922-0.5664063-0.1669922
			c-0.3447266,0-0.6523438,0.1547852-0.9228516,0.4633789c-0.3564453,0.4067383-0.5341797,1.0004883-0.5341797,1.7827148
			c0,0.7890625,0.171875,1.3945317,0.5166016,1.8144536C94.008461,8.956706,94.3922501,9.166667,94.8151016,9.166667
			C95.1715469,9.166667,95.5162735,8.9889326,95.8492813,8.6324873z"/>
	</g>
	<g>
		<path class="st4" d="M101.5660782,4.0118814l0.0878906,1.8706055h-0.2001953
			c-0.2382813-0.5546875-0.4863281-0.934082-0.7431641-1.137207c-0.2558594-0.2036133-0.5117188-0.3051758-0.7666016-0.3051758
			c-0.1601563,0-0.296875,0.0537109-0.4111328,0.1611328c-0.1142578,0.1079102-0.1708984,0.2319336-0.1708984,0.3725586
			c0,0.1054688,0.0390625,0.2070313,0.1181641,0.3046875c0.125,0.1606445,0.4755859,0.4350586,1.0517578,0.8242188
			c0.5751953,0.3886719,0.9541016,0.7192383,1.1367188,0.9907227c0.1816406,0.2714844,0.2734375,0.5761719,0.2734375,0.9121099
			c0,0.3046875-0.0771484,0.6035156-0.2294922,0.8964844c-0.1523438,0.2939453-0.3681641,0.5185547-0.6464844,0.6748047
			s-0.5849609,0.234375-0.921875,0.234375c-0.2626953,0-0.6132813-0.0820313-1.0517578-0.2460938
			c-0.1181641-0.0429688-0.1982422-0.0644531-0.2412109-0.0644531c-0.1289063,0-0.2373047,0.0976563-0.3232422,0.2929688h-0.1933594
			l-0.0947266-1.969727h0.2001953c0.1757813,0.5156255,0.4179688,0.9023442,0.7255859,1.1601567
			c0.3076172,0.2587891,0.5986328,0.3876953,0.8720703,0.3876953c0.1884766,0,0.3417969-0.0576172,0.4619141-0.1728516
			c0.1191406-0.1152344,0.1787109-0.2558594,0.1787109-0.4199219c0-0.1875-0.0585938-0.3496094-0.1757813-0.4863281
			c-0.1181641-0.1367188-0.3798828-0.3437505-0.7871094-0.6220708c-0.5996094-0.4140625-0.9873047-0.7304688-1.1640625-0.9492188
			c-0.2587891-0.3208008-0.3876953-0.6743164-0.3876953-1.0615234c0-0.4223633,0.1455078-0.8041992,0.4375-1.1464844
			c0.2919922-0.3417969,0.7138672-0.5131836,1.2666016-0.5131836c0.2978516,0,0.5849609,0.0727539,0.8632813,0.2172852
			c0.1064453,0.0585938,0.1923828,0.0878906,0.2587891,0.0878906c0.0703125,0,0.1269531-0.0146484,0.1699219-0.0439453
			c0.0439453-0.0292969,0.1123047-0.1123047,0.2060547-0.2495117H101.5660782z"/>
	</g>
</g>
<g>
	<g>
		<path class="st4" d="M92.6354141,55.2858086c0.0917969-0.2167969,0.2080078-0.3837891,0.3486328-0.5019531
			s0.3144531-0.1767578,0.5244141-0.1767578c0.2578125,0,0.4560547,0.0839844,0.59375,0.2519531
			c0.1044922,0.125,0.1572266,0.2578125,0.1572266,0.4003906c0,0.234375-0.1474609,0.4765625-0.4423828,0.7265625
			c0.1982422,0.0771484,0.3476563,0.1884766,0.4492188,0.3320313s0.1523438,0.3134766,0.1523438,0.5078125
			c0,0.2783203-0.0888672,0.5195313-0.2666016,0.7236328c-0.2314453,0.265625-0.5664063,0.3984375-1.0048828,0.3984375
			c-0.2177734,0-0.3652344-0.0263672-0.4433594-0.0800781c-0.0791016-0.0537109-0.1181641-0.1123047-0.1181641-0.1738281
			c0-0.0458984,0.0185547-0.0859375,0.0556641-0.1210938c0.0371094-0.0341797,0.0820313-0.0517578,0.1347656-0.0517578
			c0.0390625,0,0.0800781,0.0058594,0.1210938,0.0185547c0.0273438,0.0078125,0.0878906,0.0371094,0.1826172,0.0869141
			c0.0957031,0.0498047,0.1611328,0.0791016,0.1982422,0.0888672c0.0585938,0.0175781,0.1210938,0.0263672,0.1875,0.0263672
			c0.1611328,0,0.3017578-0.0625,0.421875-0.1875s0.1796875-0.2724609,0.1796875-0.4433594
			c0-0.125-0.0283203-0.2470703-0.0830078-0.3662109c-0.0419922-0.0878906-0.0869141-0.1552734-0.1357422-0.2011719
			c-0.0683594-0.0634766-0.1621094-0.1210938-0.2802734-0.171875c-0.1191406-0.0517578-0.2402344-0.0771484-0.3642578-0.0771484
			h-0.0761719v-0.0712891c0.125-0.015625,0.2509766-0.0615234,0.3769531-0.1357422s0.2177734-0.1630859,0.2744141-0.2675781
			c0.0576172-0.1044922,0.0859375-0.2197266,0.0859375-0.3447266c0-0.1621094-0.0507813-0.2939453-0.1533203-0.3945313
			s-0.2294922-0.1513672-0.3818359-0.1513672c-0.2451172,0-0.4511719,0.1318359-0.6152344,0.3945313L92.6354141,55.2858086z"/>
	</g>
	<g>
		<path class="st4" d="M87.6344376,55.3024101c-0.1835938,0.1914063-0.3632813,0.3291016-0.5380859,0.4121094
			c-0.1757813,0.0839844-0.3652344,0.1259766-0.5683594,0.1259766c-0.4111328,0-0.7705078-0.171875-1.0771484-0.515625
			c-0.3066406-0.3427734-0.4609375-0.7841797-0.4609375-1.3232422s0.1699219-1.0322266,0.5107422-1.4804688
			c0.3398438-0.4472656,0.7763672-0.6708984,1.3115234-0.6708984c0.3320313,0,0.6054688,0.1054688,0.8222656,0.3164063v-0.6933594
			c0-0.4296875-0.0097656-0.6943359-0.0302734-0.7929688s-0.0527344-0.1650391-0.0966797-0.2011719
			c-0.0439453-0.0351563-0.0986328-0.0527344-0.1650391-0.0527344c-0.0712891,0-0.1660156,0.0214844-0.2832031,0.0654297
			l-0.0537109-0.1435547l1.1230469-0.4599609h0.1845703v4.3466797c0,0.4404297,0.0107422,0.7099609,0.03125,0.8066406
			c0.0205078,0.0976563,0.0527344,0.1650391,0.0986328,0.203125c0.0449219,0.0390625,0.0976563,0.0576172,0.1582031,0.0576172
			c0.0742188,0,0.1728516-0.0234375,0.2958984-0.0693359l0.0449219,0.1435547l-1.1181641,0.4638672h-0.1894531V55.3024101z
			 M87.6344376,55.0153008v-1.9375c-0.0166016-0.1865234-0.0654297-0.3554688-0.1474609-0.5087891
			c-0.0830078-0.1533203-0.1914063-0.2695313-0.3271484-0.3466797c-0.1357422-0.078125-0.2685547-0.1171875-0.3974609-0.1171875
			c-0.2412109,0-0.4560547,0.1083984-0.6455078,0.3242188c-0.2490234,0.2841797-0.3740234,0.7001953-0.3740234,1.2480469
			c0,0.5527344,0.1210938,0.9755859,0.3623047,1.2705078c0.2412109,0.2939453,0.5097656,0.4404297,0.8056641,0.4404297
			C87.1598282,55.3883476,87.4020157,55.2643242,87.6344376,55.0153008z"/>
	</g>
	<g>
		<path class="st4" d="M92.7067032,51.9430351l0.1269531-1.2148438c0.0361328-0.3447266,0.0712891-0.5771484,0.1074219-0.6982422
			c0.0517578-0.171875,0.125-0.2958984,0.2197266-0.3710938s0.2011719-0.1132813,0.3183594-0.1132813
			c0.0986328,0,0.1767578,0.0273438,0.234375,0.0820313s0.0869141,0.125,0.0869141,0.2099609
			c0,0.0654297-0.0136719,0.1347656-0.0410156,0.2089844c-0.0361328,0.1044922-0.1376953,0.3330078-0.3046875,0.6855469
			l-0.5673828,1.2109375H92.7067032z"/>
	</g>
	<g>
		<path class="st4" d="M91.6354141,51.7809258l0.0625,1.3095703h-0.140625
			c-0.1669922-0.3886719-0.3398438-0.6542969-0.5195313-0.796875c-0.1796875-0.1416016-0.3583984-0.2128906-0.5371094-0.2128906
			c-0.1123047,0-0.2080078,0.0371094-0.2880859,0.1123047c-0.0791016,0.0751953-0.1191406,0.1621094-0.1191406,0.2607422
			c0,0.0742188,0.0273438,0.1455078,0.0820313,0.2138672c0.0878906,0.1123047,0.3339844,0.3037109,0.7363281,0.5761719
			c0.4033203,0.2724609,0.6689453,0.5039063,0.7958984,0.6943359c0.1279297,0.1894531,0.1914063,0.4023438,0.1914063,0.6376953
			c0,0.2138672-0.0537109,0.4228516-0.1601563,0.6279297c-0.1074219,0.2050781-0.2578125,0.3632813-0.453125,0.4726563
			c-0.1943359,0.109375-0.4091797,0.1640625-0.6455078,0.1640625c-0.1835938,0-0.4287109-0.0576172-0.7363281-0.1728516
			c-0.0820313-0.0302734-0.1376953-0.0449219-0.1679688-0.0449219c-0.0908203,0-0.1660156,0.0683594-0.2265625,0.2050781h-0.1357422
			l-0.0654297-1.3789063h0.1396484c0.1230469,0.3613281,0.2929688,0.6318359,0.5078125,0.8125
			s0.4189453,0.2705078,0.6103516,0.2705078c0.1318359,0,0.2392578-0.0400391,0.3232422-0.1210938
			c0.0839844-0.0800781,0.1259766-0.1777344,0.1259766-0.2929688c0-0.1318359-0.0419922-0.2451172-0.1240234-0.3408203
			s-0.265625-0.2402344-0.5507813-0.4345703c-0.4199219-0.2900391-0.6914063-0.5117188-0.8144531-0.6650391
			c-0.1806641-0.2246094-0.2714844-0.4726563-0.2714844-0.7431641c0-0.2958984,0.1025391-0.5634766,0.3066406-0.8027344
			s0.5-0.359375,0.8857422-0.359375c0.2089844,0,0.4101563,0.0507813,0.6044922,0.1523438
			c0.0742188,0.0410156,0.1347656,0.0615234,0.1816406,0.0615234c0.0488281,0,0.0888672-0.0107422,0.1191406-0.03125
			s0.078125-0.078125,0.1435547-0.1738281H91.6354141z"/>
	</g>
</g>
<circle class="st4" cx="111.371254" cy="62.0962524" r="0.8008796"/>
<g>
</g>
<g>
</g>
<g>
</g>
<g>
</g>
<g>
</g>
<g>
</g>
</svg>
