<?xml version="1.0" encoding="utf-8"?>
<!-- Generator: Adobe Illustrator 19.0.0, SVG Export Plug-In . SVG Version: 6.00 Build 0)  -->
<svg version="1.1" id="Layer_1" xmlns="http://www.w3.org/2000/svg" xmlns:xlink="http://www.w3.org/1999/xlink" x="0px" y="0px"
	 viewBox="0 0 173.8333282 44" style="enable-background:new 0 0 173.8333282 44;" xml:space="preserve">
<style type="text/css">
	.st0{fill:none;stroke:#000000;stroke-miterlimit:10;}
	.st1{fill:none;stroke:#2B3990;stroke-miterlimit:10;}
	.st2{fill:#FFFFFF;stroke:#EF4136;stroke-miterlimit:10;}
	.st3{fill:#2B3990;}
	.st4{fill:#EF4136;}
</style>
<rect x="143.5533295" y="34.0287666" class="st0" width="3.8003192" height="4.3711181"/>
<circle class="st1" cx="8.9769087" cy="34.2691002" r="6.7294192"/>
<g>
	<line class="st1" x1="4.4105172" y1="34.0287666" x2="13.5433006" y2="34.0287666"/>
	<line class="st1" x1="8.9769087" y1="29.7027092" x2="8.9769087" y2="38.835495"/>
</g>
<line class="st0" x1="15.2951126" y1="31.9480038" x2="155.4157104" y2="15.7568779"/>
<path class="st1" d="M8.9769087,34.0287666"/>
<line class="st0" x1="15.7063284" y1="36.7979202" x2="147.3536377" y2="38.3998833"/>
<path class="st1" d="M8.9769087,34.0287666"/>
<path class="st1" d="M8.9769087,34.0287666"/>
<path class="st1" d="M8.9769087,34.0287666"/>
<line class="st2" x1="155.4157104" y1="15.7568779" x2="147.3536377" y2="38.3998833"/>
<line class="st2" x1="147.3536377" y1="38.3998833" x2="147.3536377" y2="16.6885185"/>
<line class="st1" x1="147.3536377" y1="29.7027092" x2="150.4503021" y2="29.7027092"/>
<g>
	<g>
		<path class="st3" d="M153.1201172,30.3771152c0.4951172-1.4672852,1.1787109-2.5981445,2.0498047-3.3920898
			c0.6572266-0.5961914,1.3046875-0.894043,1.9414063-0.894043c0.6171875,0,1.0488281,0.2871094,1.2929688,0.8608398
			c0.3398438,0.8012695,0.2792969,1.8901367-0.1865234,3.269043c-0.4423828,1.3110352-1.0917969,2.3476582-1.9472656,3.1074238
			c-0.6660156,0.5883789-1.3154297,0.8828125-1.9492188,0.8828125c-0.3427734,0-0.6289063-0.081543-0.8554688-0.2460938
			c-0.2275391-0.1640625-0.3984375-0.3999023-0.5126953-0.7099609c-0.1142578-0.309082-0.171875-0.6367188-0.171875-0.9829102
			C152.7832031,31.6754551,152.8955078,31.0445957,153.1201172,30.3771152z M154.2099609,30.3492832
			c-0.2080078,0.6635742-0.3583984,1.2597656-0.4501953,1.7890644c-0.0722656,0.4013672-0.0791016,0.7519531-0.0214844,1.050293
			c0.0351563,0.1782227,0.1210938,0.3300781,0.2597656,0.4550781s0.3115234,0.1879883,0.5195313,0.1879883
			c0.2412109,0,0.5078125-0.1123047,0.7998047-0.3359375c0.2919922-0.2231445,0.5771484-0.5830078,0.8564453-1.078125
			c0.2783203-0.4960957,0.5771484-1.1855488,0.8984375-2.0683613H154.2099609z M157.2070313,29.9801426
			c0.3242188-0.9716797,0.4941406-1.7524414,0.5078125-2.3408203c0.0078125-0.4506836-0.0732422-0.7739258-0.2451172-0.9672852
			c-0.1259766-0.1416016-0.3017578-0.2119141-0.5283203-0.2119141c-0.2568359,0-0.5253906,0.0981445-0.8066406,0.2963867
			c-0.28125,0.1967773-0.5556641,0.5263672-0.8232422,0.9892578c-0.2666016,0.4614258-0.5927734,1.206543-0.9775391,2.234375
			H157.2070313z"/>
	</g>
</g>
<g>
	<g>
		<path class="st4" d="M162.0722656,12.4293623c-0.2636719,0.2734375-0.5214844,0.4697266-0.7724609,0.5888672
			s-0.5224609,0.1787109-0.8134766,0.1787109c-0.5898438,0-1.1054688-0.2451172-1.5458984-0.7353516
			c-0.4404297-0.4912109-0.6611328-1.1210938-0.6611328-1.8916016c0-0.7700195,0.2441406-1.4746094,0.7324219-2.1137695
			c0.4873047-0.6391606,1.1142578-0.9584966,1.8808594-0.9584966c0.4765625,0,0.8691406,0.1503906,1.1796875,0.4511719V6.9581704
			c0-0.6137695-0.0146484-0.9912109-0.0439453-1.1318359c-0.0302734-0.140625-0.0751953-0.2363281-0.1386719-0.2871094
			s-0.1416016-0.0766602-0.2353516-0.0766602c-0.1035156,0-0.2382813,0.0317383-0.4082031,0.0942383l-0.0761719-0.2055664
			l1.6103516-0.6567383h0.2646484v6.2094731c0,0.6298828,0.015625,1.0136719,0.0449219,1.1523438
			s0.0761719,0.2353516,0.1416016,0.2900391c0.0654297,0.0556641,0.140625,0.0830078,0.2275391,0.0830078
			c0.1054688,0,0.2470703-0.0332031,0.4238281-0.1005859l0.0654297,0.2060547l-1.6044922,0.6621094h-0.2714844V12.4293623z
			 M162.0722656,12.0182295V9.2506514c-0.0234375-0.265625-0.09375-0.5078125-0.2119141-0.7270508
			c-0.1181641-0.21875-0.2744141-0.3837891-0.4697266-0.4956055c-0.1933594-0.1113286-0.3837891-0.1669927-0.5683594-0.1669927
			c-0.3457031,0-0.6542969,0.1547856-0.9257813,0.4633794c-0.3583984,0.4067383-0.5371094,1.0004883-0.5371094,1.7827148
			c0,0.7890625,0.1728516,1.3945313,0.5195313,1.8144531c0.3457031,0.4208984,0.7304688,0.6308594,1.1552734,0.6308594
			C161.3925781,12.5524092,161.7382813,12.3746748,162.0722656,12.0182295z"/>
	</g>
	<g>
		<path class="st4" d="M172.3974609,13.0582685l-0.6640625,2.2988281l-0.0751953,0.3085938
			c-0.0068359,0.0292969-0.0107422,0.0537109-0.0107422,0.0742188c0,0.0361328,0.0117188,0.0683594,0.0341797,0.0947266
			c0.0185547,0.0205078,0.0410156,0.03125,0.0683594,0.03125c0.0292969,0,0.0683594-0.0185547,0.1162109-0.0546875
			c0.0888672-0.0654297,0.2070313-0.2011719,0.3544922-0.40625l0.1162109,0.0810547
			c-0.1572266,0.2353516-0.3183594,0.4140625-0.484375,0.5371084c-0.1660156,0.1230469-0.3193359,0.1845703-0.4609375,0.1845703
			c-0.0976563,0-0.1708984-0.0244141-0.2197266-0.0722656c-0.0488281-0.0488281-0.0732422-0.1191406-0.0732422-0.2119131
			c0-0.1113281,0.0253906-0.2568359,0.0751953-0.4375l0.0712891-0.2539063
			c-0.2978516,0.3857422-0.5712891,0.65625-0.8212891,0.8095694c-0.1796875,0.1113281-0.3564453,0.1660156-0.5283203,0.1660156
			c-0.1660156,0-0.3095703-0.0683594-0.4296875-0.2050781c-0.1210938-0.1367178-0.1806641-0.3242178-0.1806641-0.5644522
			c0-0.359375,0.1083984-0.7382813,0.3251953-1.1367188c0.2167969-0.3994141,0.4931641-0.71875,0.8271484-0.9580078
			c0.2607422-0.1894531,0.5078125-0.2851563,0.7392578-0.2851563c0.1386719,0,0.2548828,0.0361328,0.3466797,0.109375
			c0.0917969,0.0722656,0.1621094,0.1914063,0.2099609,0.3583984l0.1220703-0.3857422L172.3974609,13.0582685z
			 M171.1835938,13.2350264c-0.1455078,0-0.2998047,0.0673828-0.4628906,0.203125
			c-0.2324219,0.1923828-0.4384766,0.4775391-0.6191406,0.8544922c-0.1806641,0.3779297-0.2714844,0.71875-0.2714844,1.0234375
			c0,0.1542969,0.0390625,0.2753906,0.1162109,0.3652344c0.0771484,0.0888672,0.1660156,0.1337891,0.265625,0.1337891
			c0.2480469,0,0.5175781-0.1826172,0.8085938-0.5458984c0.3886719-0.4833984,0.5830078-0.9794922,0.5830078-1.4882813
			c0-0.1923828-0.0371094-0.3310547-0.1123047-0.4169922S171.3134766,13.2350264,171.1835938,13.2350264z"/>
	</g>
	<g>
		<path class="st4" d="M167.8105469,7.3976235l0.0888672,1.8706059h-0.2011719
			c-0.2392578-0.5546875-0.4882813-0.934082-0.7460938-1.137207c-0.2568359-0.2036138-0.5136719-0.3051763-0.7695313-0.3051763
			c-0.1611328,0-0.2988281,0.0537109-0.4130859,0.1611328c-0.1132813,0.1079106-0.1699219,0.2319341-0.1699219,0.3725591
			c0,0.1054688,0.0390625,0.2070313,0.1171875,0.3046875c0.1259766,0.1606445,0.4775391,0.4350586,1.0556641,0.8242188
			c0.578125,0.3886719,0.9589844,0.7192383,1.1416016,0.9907227s0.2744141,0.5761719,0.2744141,0.9121094
			c0,0.3046875-0.0771484,0.6035156-0.2304688,0.8964844c-0.1533203,0.2939453-0.3691406,0.5185547-0.6484375,0.6748047
			s-0.5878906,0.234375-0.9257813,0.234375c-0.2636719,0-0.6162109-0.0820313-1.0556641-0.2460938
			c-0.1191406-0.0429688-0.1992188-0.0644531-0.2421875-0.0644531c-0.1298828,0-0.2382813,0.0976563-0.3242188,0.2929688h-0.1953125
			l-0.09375-1.9697266h0.2001953c0.1767578,0.515625,0.4199219,0.9023438,0.7285156,1.1601563
			c0.3085938,0.2587891,0.6005859,0.3876953,0.8759766,0.3876953c0.1884766,0,0.3427734-0.0576172,0.4628906-0.1728516
			s0.1796875-0.2558594,0.1796875-0.4199219c0-0.1875-0.0585938-0.3496094-0.1767578-0.4863281
			s-0.3818359-0.34375-0.7900391-0.6220703c-0.6015625-0.4140625-0.9912109-0.7304688-1.1679688-0.9492188
			c-0.2597656-0.3208008-0.3896484-0.6743164-0.3896484-1.0615234c0-0.4223633,0.1464844-0.8041992,0.4394531-1.1464849
			c0.2929688-0.3417969,0.7167969-0.5131836,1.2714844-0.5131836c0.2988281,0,0.5878906,0.0727539,0.8671875,0.2172852
			c0.1054688,0.0585938,0.1923828,0.0878906,0.2587891,0.0878906c0.0712891,0,0.1279297-0.0146484,0.1708984-0.0439453
			c0.0439453-0.0292969,0.1123047-0.1123047,0.2070313-0.2495117H167.8105469z"/>
	</g>
</g>
<g>
	<g>
		<path class="st4" d="M142.2460938,9.3361006c-0.2626953,0.2734375-0.5185547,0.4697266-0.7695313,0.5888672
			s-0.5205078,0.1787109-0.8105469,0.1787109c-0.5878906,0-1.1005859-0.2451172-1.5390625-0.7353516
			C138.6875,8.8771162,138.46875,8.2472334,138.46875,7.4767251c0-0.7700195,0.2421875-1.4746094,0.7285156-2.1137695
			c0.4853516-0.6391602,1.1103516-0.9584961,1.8740234-0.9584961c0.4736328,0,0.8652344,0.1503906,1.1748047,0.4511719V3.8649089
			c0-0.6137695-0.0146484-0.9912109-0.0439453-1.1318359s-0.0751953-0.2363281-0.1376953-0.2871094
			c-0.0634766-0.0507813-0.1416016-0.0766602-0.2353516-0.0766602c-0.1015625,0-0.2373047,0.0317383-0.4052734,0.0942383
			l-0.0761719-0.2055664l1.6035156-0.6567384h0.2646484v6.2094727c0,0.6298833,0.0146484,1.0136724,0.0439453,1.1523442
			s0.0761719,0.2353516,0.140625,0.2900391c0.0644531,0.0556641,0.140625,0.0830078,0.2265625,0.0830078
			c0.1054688,0,0.2470703-0.0332031,0.4228516-0.1005859l0.0644531,0.2060547l-1.5976563,0.6621094h-0.2705078V9.3361006z
			 M142.2460938,8.9249678V6.1573892c-0.0234375-0.265625-0.09375-0.5078125-0.2109375-0.7270508
			c-0.1181641-0.21875-0.2734375-0.3837891-0.4677734-0.4956055c-0.1933594-0.1113281-0.3828125-0.1669922-0.5664063-0.1669922
			c-0.3447266,0-0.6523438,0.1547852-0.9228516,0.4633789c-0.3564453,0.4067383-0.5341797,1.0004883-0.5341797,1.7827148
			c0,0.7890625,0.171875,1.3945317,0.5166016,1.8144536c0.3447266,0.4208984,0.7285156,0.6308594,1.1513672,0.6308594
			C141.5683594,9.4591475,141.9130859,9.2814131,142.2460938,8.9249678z"/>
	</g>
	<g>
		<path class="st4" d="M151.0458984,8.2130537l-0.6699219,2.3417969c0.2177734-0.2255859,0.4072266-0.3798828,0.5693359-0.4638672
			s0.3310547-0.1259766,0.5078125-0.1259766c0.2490234,0,0.453125,0.0830078,0.6113281,0.2480469
			s0.2373047,0.3886719,0.2373047,0.6708984c0,0.3642578-0.1035156,0.7265625-0.3125,1.0869141
			c-0.2080078,0.3603516-0.4697266,0.640625-0.7841797,0.8417969s-0.625,0.3017578-0.9306641,0.3017578
			c-0.3417969,0-0.6933594-0.1269531-1.0527344-0.3828125l1.0322266-3.5488281
			c0.0791016-0.2734375,0.1191406-0.4345703,0.1191406-0.4814453c0-0.0595703-0.0185547-0.1035156-0.0546875-0.1328125
			c-0.0517578-0.0400391-0.1289063-0.0605469-0.2304688-0.0605469c-0.0478516,0-0.1201172,0.0078125-0.2177734,0.0234375V8.4025068
			L151.0458984,8.2130537z M149.7314453,12.7687178c0.2255859,0.125,0.4248047,0.1865234,0.5976563,0.1865234
			c0.1992188,0,0.4052734-0.0722656,0.6191406-0.21875c0.2148438-0.1455078,0.4003906-0.3916016,0.5576172-0.7373047
			s0.2363281-0.6943359,0.2363281-1.046875c0-0.2080078-0.0517578-0.3710938-0.1552734-0.4882813
			c-0.1025391-0.1181641-0.2246094-0.1767578-0.3652344-0.1767578c-0.2099609,0-0.4160156,0.0839844-0.6181641,0.2529297
			c-0.2011719,0.1679688-0.3447266,0.4023438-0.4306641,0.703125L149.7314453,12.7687178z"/>
	</g>
	<g>
		<path class="st4" d="M147.9628906,4.3043618l0.0878906,1.8706055h-0.2001953
			c-0.2382813-0.5546875-0.4863281-0.934082-0.7431641-1.137207c-0.2558594-0.2036133-0.5117188-0.3051758-0.7666016-0.3051758
			c-0.1601563,0-0.296875,0.0537109-0.4111328,0.1611328c-0.1142578,0.1079102-0.1708984,0.2319336-0.1708984,0.3725586
			c0,0.1054688,0.0390625,0.2070313,0.1181641,0.3046875c0.125,0.1606445,0.4755859,0.4350586,1.0517578,0.8242188
			c0.5751953,0.3886719,0.9541016,0.7192383,1.1367188,0.9907227c0.1816406,0.2714844,0.2734375,0.5761719,0.2734375,0.9121099
			c0,0.3046875-0.0771484,0.6035156-0.2294922,0.8964844c-0.1523438,0.2939453-0.3681641,0.5185547-0.6464844,0.6748047
			s-0.5849609,0.234375-0.921875,0.234375c-0.2626953,0-0.6132813-0.0820313-1.0517578-0.2460938
			c-0.1181641-0.0429688-0.1982422-0.0644531-0.2412109-0.0644531c-0.1289063,0-0.2373047,0.0976563-0.3232422,0.2929688h-0.1933594
			l-0.0947266-1.9697266h0.2001953c0.1757813,0.515625,0.4179688,0.9023438,0.7255859,1.1601563
			c0.3076172,0.2587891,0.5986328,0.3876953,0.8720703,0.3876953c0.1884766,0,0.3417969-0.0576172,0.4619141-0.1728516
			c0.1191406-0.1152344,0.1787109-0.2558594,0.1787109-0.4199219c0-0.1875-0.0585938-0.3496094-0.1757813-0.4863281
			c-0.1181641-0.1367188-0.3798828-0.34375-0.7871094-0.6220708c-0.5996094-0.4140625-0.9873047-0.7304688-1.1640625-0.9492188
			c-0.2587891-0.3208008-0.3876953-0.6743164-0.3876953-1.0615234c0-0.4223633,0.1455078-0.8041992,0.4375-1.1464844
			c0.2919922-0.3417969,0.7138672-0.5131836,1.2666016-0.5131836c0.2978516,0,0.5849609,0.0727539,0.8632813,0.2172852
			c0.1064453,0.0585938,0.1923828,0.0878906,0.2587891,0.0878906c0.0703125,0,0.1269531-0.0146484,0.1699219-0.0439453
			c0.0439453-0.0292969,0.1123047-0.1123047,0.2060547-0.2495117H147.9628906z"/>
	</g>
</g>
<g>
</g>
<g>
</g>
<g>
</g>
<g>
</g>
<g>
</g>
<g>
</g>
</svg>
