<?xml version="1.0" encoding="UTF-8"?>
<svg xmlns="http://www.w3.org/2000/svg" xmlns:xlink="http://www.w3.org/1999/xlink" width="240pt" height="261pt" viewBox="0 0 240 261" version="1.1">
<g id="surface1">
<path style=" stroke:none;fill-rule:evenodd;fill:rgb(50.19989%,25.099182%,25.099182%);fill-opacity:0.39216;" d="M 48.839844 222.464844 L 48.839844 65.164062 L 121.457031 11.214844 L 121.457031 168.515625 Z M 48.839844 222.464844 "/>
<path style=" stroke:none;fill-rule:evenodd;fill:rgb(50.19989%,25.099182%,25.099182%);fill-opacity:0.39216;" d="M 48.839844 222.464844 L 121.457031 168.515625 L 194.074219 168.515625 L 121.457031 222.464844 Z M 48.839844 222.464844 "/>
<path style=" stroke:none;fill-rule:evenodd;fill:rgb(50.19989%,25.099182%,25.099182%);fill-opacity:0.39216;" d="M 121.457031 168.515625 L 194.074219 168.515625 L 194.074219 11.214844 L 121.457031 11.214844 Z M 121.457031 168.515625 "/>
<path style=" stroke:none;fill-rule:evenodd;fill:rgb(50.19989%,25.099182%,25.099182%);fill-opacity:0.39216;" d="M 194.074219 11.214844 L 194.074219 168.515625 L 121.457031 222.464844 L 121.457031 65.164062 Z M 194.074219 11.214844 "/>
<path style=" stroke:none;fill-rule:evenodd;fill:rgb(50.19989%,25.099182%,25.099182%);fill-opacity:0.39216;" d="M 48.839844 65.164062 L 121.457031 65.164062 L 194.074219 11.214844 L 121.457031 11.214844 Z M 48.839844 65.164062 "/>
<path style=" stroke:none;fill-rule:evenodd;fill:rgb(50.19989%,25.099182%,25.099182%);fill-opacity:0.39216;" d="M 48.839844 222.464844 L 121.457031 222.464844 L 121.457031 65.164062 L 48.839844 65.164062 Z M 48.839844 222.464844 "/>
<path style="fill:none;stroke-width:15;stroke-linecap:round;stroke-linejoin:round;stroke:rgb(0%,0%,0%);stroke-opacity:1;stroke-miterlimit:10;" d="M 611.889303 508.084831 L 611.889303 2482.257951 L 1521.672727 3159.337217 L 2431.456151 3159.337217 L 2431.456151 1185.164097 L 1521.672727 508.084831 Z M 611.889303 508.084831 " transform="matrix(0.0798181,0,0,-0.0796793,0,262.9487)"/>
<path style="fill:none;stroke-width:15;stroke-linecap:round;stroke-linejoin:round;stroke:rgb(0%,0%,0%);stroke-opacity:1;stroke-miterlimit:10;" d="M 611.889303 2482.257951 L 1521.672727 2482.257951 " transform="matrix(0.0798181,0,0,-0.0796793,0,262.9487)"/>
<path style="fill:none;stroke-width:15;stroke-linecap:round;stroke-linejoin:round;stroke:rgb(0%,0%,0%);stroke-opacity:1;stroke-miterlimit:10;" d="M 2431.456151 3159.337217 L 1521.672727 2482.257951 " transform="matrix(0.0798181,0,0,-0.0796793,0,262.9487)"/>
<path style="fill:none;stroke-width:15;stroke-linecap:round;stroke-linejoin:round;stroke:rgb(0%,0%,0%);stroke-opacity:1;stroke-miterlimit:10;" d="M 1521.672727 508.084831 L 1521.672727 2482.257951 " transform="matrix(0.0798181,0,0,-0.0796793,0,262.9487)"/>
<path style=" stroke:none;fill-rule:nonzero;fill:rgb(0%,0%,0%);fill-opacity:1;" d="M 157.441406 141.839844 L 215.519531 141.839844 L 215.519531 143.035156 L 157.441406 143.035156 C 157.109375 143.035156 156.84375 142.765625 156.84375 142.4375 C 156.84375 142.105469 157.109375 141.839844 157.441406 141.839844 Z M 225.085938 142.4375 L 213.113281 138.851562 L 215.507812 141.839844 L 215.507812 143.035156 L 213.113281 146.023438 Z M 225.085938 142.4375 "/>
<path style="fill:none;stroke-width:15;stroke-linecap:round;stroke-linejoin:round;stroke:rgb(0%,0%,0%);stroke-opacity:1;stroke-miterlimit:10;" d="M 112.511678 1512.452575 L 611.889303 1512.452575 " transform="matrix(0.0798181,0,0,-0.0796793,0,262.9487)"/>
<path style=" stroke:none;fill-rule:evenodd;fill:rgb(0%,0%,0%);fill-opacity:1;" d="M 228.734375 130.898438 L 219.429688 130.898438 L 219.429688 129.867188 L 220.980469 129.867188 L 220.980469 120.761719 L 219.429688 120.761719 L 219.429688 119.707031 L 228.539062 119.707031 L 229.074219 123.867188 L 228 123.867188 C 227.957031 123.5625 227.917969 123.292969 227.886719 123.0625 C 227.855469 122.835938 227.808594 122.613281 227.75 122.398438 C 227.691406 122.183594 227.617188 121.988281 227.523438 121.808594 C 227.433594 121.628906 227.316406 121.472656 227.175781 121.34375 C 226.898438 121.085938 226.566406 120.925781 226.179688 120.863281 C 225.796875 120.796875 225.40625 120.765625 225.007812 120.761719 L 223.617188 120.761719 L 223.617188 124.582031 L 223.851562 124.582031 C 224.074219 124.582031 224.285156 124.5625 224.484375 124.523438 C 224.6875 124.484375 224.855469 124.394531 224.984375 124.257812 C 225.117188 124.117188 225.199219 123.917969 225.222656 123.652344 C 225.25 123.390625 225.265625 123.078125 225.265625 122.71875 L 226.328125 122.71875 L 226.328125 127.488281 L 225.265625 127.488281 C 225.265625 127.136719 225.25 126.824219 225.222656 126.558594 C 225.199219 126.292969 225.117188 126.089844 224.984375 125.953125 C 224.855469 125.816406 224.6875 125.722656 224.484375 125.679688 C 224.285156 125.636719 224.074219 125.613281 223.851562 125.613281 L 223.617188 125.613281 L 223.617188 129.867188 L 225.144531 129.867188 C 225.5625 129.867188 225.972656 129.820312 226.371094 129.722656 C 226.769531 129.625 227.121094 129.441406 227.425781 129.171875 C 227.578125 129.03125 227.707031 128.851562 227.816406 128.640625 C 227.921875 128.425781 228.019531 128.191406 228.101562 127.933594 C 228.183594 127.679688 228.253906 127.414062 228.308594 127.140625 C 228.359375 126.867188 228.417969 126.566406 228.476562 126.230469 L 229.539062 126.230469 Z M 228.734375 130.898438 "/>
<path style=" stroke:none;fill-rule:nonzero;fill:rgb(0%,0%,0%);fill-opacity:1;" d="M 81.019531 42.960938 L 127.125 42.960938 L 127.125 44.15625 L 81.019531 44.15625 C 80.691406 44.15625 80.421875 43.886719 80.421875 43.558594 C 80.421875 43.226562 80.691406 42.960938 81.019531 42.960938 Z M 136.695312 43.558594 L 124.722656 39.972656 L 127.117188 42.960938 L 127.117188 44.15625 L 124.722656 47.144531 Z M 136.695312 43.558594 "/>
<path style=" stroke:none;fill-rule:evenodd;fill:rgb(0%,0%,0%);fill-opacity:1;" d="M 125.898438 28.472656 C 125.898438 28.917969 125.804688 29.347656 125.613281 29.757812 C 125.421875 30.167969 125.144531 30.511719 124.785156 30.792969 C 124.371094 31.113281 123.910156 31.335938 123.40625 31.464844 C 122.902344 31.597656 122.390625 31.660156 121.871094 31.660156 L 120 31.660156 L 120 35.445312 L 121.550781 35.445312 L 121.550781 36.488281 C 120.539062 36.449219 119.585938 36.433594 118.683594 36.433594 C 117.769531 36.433594 116.8125 36.449219 115.8125 36.488281 L 115.8125 35.445312 L 117.363281 35.445312 L 117.363281 26.242188 L 115.8125 26.242188 L 115.8125 25.210938 L 121.871094 25.210938 C 122.390625 25.210938 122.902344 25.277344 123.40625 25.410156 C 123.910156 25.542969 124.371094 25.769531 124.785156 26.09375 C 125.164062 26.386719 125.441406 26.738281 125.625 27.148438 C 125.808594 27.5625 125.898438 28.003906 125.898438 28.472656 Z M 123.082031 28.472656 C 123.082031 28.316406 123.082031 28.152344 123.074219 27.984375 C 123.070312 27.8125 123.058594 27.648438 123.042969 27.492188 C 123.027344 27.332031 123 27.191406 122.964844 27.0625 C 122.929688 26.941406 122.882812 26.84375 122.816406 26.773438 C 122.640625 26.5625 122.40625 26.417969 122.117188 26.347656 C 121.832031 26.277344 121.535156 26.242188 121.226562 26.242188 L 119.921875 26.242188 L 119.921875 30.707031 L 121.226562 30.707031 C 121.535156 30.707031 121.832031 30.671875 122.117188 30.601562 C 122.40625 30.53125 122.640625 30.386719 122.816406 30.160156 C 122.882812 30.09375 122.929688 29.996094 122.964844 29.871094 C 123 29.746094 123.027344 29.605469 123.042969 29.453125 C 123.058594 29.300781 123.070312 29.136719 123.074219 28.96875 C 123.082031 28.800781 123.082031 28.632812 123.082031 28.472656 Z M 123.082031 28.472656 "/>
<path style="fill:none;stroke-width:0.402;stroke-linecap:round;stroke-linejoin:round;stroke:rgb(0%,0%,0%);stroke-opacity:1;stroke-miterlimit:10;" d="M 1.875564 7.878656 L 8.910721 7.878663 " transform="matrix(1.596335,0.00000160324,-0.000000549598,-1.593576,99.650508,113.859919)"/>
<path style="fill:none;stroke-width:0.402;stroke-linecap:round;stroke-linejoin:round;stroke:rgb(0%,0%,0%);stroke-opacity:1;stroke-miterlimit:10;" d="M 5.39192 11.396201 L 5.391918 4.361118 " transform="matrix(1.596335,0.00000160324,-0.000000549598,-1.593576,99.650508,113.859919)"/>
<path style="fill:none;stroke-width:0.402;stroke-linecap:round;stroke-linejoin:round;stroke:rgb(0%,0%,0%);stroke-opacity:1;stroke-miterlimit:10;" d="M 1.875564 7.878722 L 8.910721 7.878725 " transform="matrix(1.596335,0.00000080162,-0.000000549598,-1.593576,99.650508,154.395181)"/>
<path style="fill:none;stroke-width:0.402;stroke-linecap:round;stroke-linejoin:round;stroke:rgb(0%,0%,0%);stroke-opacity:1;stroke-miterlimit:10;" d="M 5.39192 11.396265 L 5.391918 4.361182 " transform="matrix(1.596335,0.00000080162,-0.000000549598,-1.593576,99.650508,154.395181)"/>
<path style="fill:none;stroke-width:0.402;stroke-linecap:round;stroke-linejoin:round;stroke:rgb(0%,0%,0%);stroke-opacity:1;stroke-miterlimit:10;" d="M 1.875564 7.878824 L 8.910721 7.878824 " transform="matrix(1.596335,0,-0.000000549598,-1.593576,99.650508,198.938314)"/>
<path style="fill:none;stroke-width:0.402;stroke-linecap:round;stroke-linejoin:round;stroke:rgb(0%,0%,0%);stroke-opacity:1;stroke-miterlimit:10;" d="M 5.39192 11.396365 L 5.391918 4.361282 " transform="matrix(1.596335,0,-0.000000549598,-1.593576,99.650508,198.938314)"/>
<path style="fill:none;stroke-width:0.402;stroke-linecap:round;stroke-linejoin:round;stroke:rgb(0%,0%,0%);stroke-opacity:1;stroke-miterlimit:10;" d="M 1.873885 7.878656 L 8.909043 7.878663 " transform="matrix(1.596335,0.00000160324,-0.000000274981,-1.593576,48.766467,113.859919)"/>
<path style="fill:none;stroke-width:0.402;stroke-linecap:round;stroke-linejoin:round;stroke:rgb(0%,0%,0%);stroke-opacity:1;stroke-miterlimit:10;" d="M 1.873885 7.878722 L 8.909043 7.878725 " transform="matrix(1.596335,0.00000080162,-0.000000274981,-1.593576,48.766467,154.395181)"/>
<path style="fill:none;stroke-width:0.402;stroke-linecap:round;stroke-linejoin:round;stroke:rgb(0%,0%,0%);stroke-opacity:1;stroke-miterlimit:10;" d="M 1.873885 7.878824 L 8.909043 7.878824 " transform="matrix(1.596335,0,-0.000000274981,-1.593576,48.766467,198.938314)"/>
<path style=" stroke:none;fill-rule:evenodd;fill:rgb(0%,0%,0%);fill-opacity:1;" d="M 166.1875 98.5625 C 166.15625 98.707031 166.074219 98.78125 165.945312 98.78125 C 165.9375 98.789062 165.910156 98.796875 165.867188 98.796875 C 165.839844 98.796875 165.816406 98.789062 165.800781 98.78125 L 165.730469 98.78125 C 165.589844 98.78125 165.519531 98.726562 165.519531 98.625 L 165.519531 98.570312 C 165.582031 98.183594 165.617188 97.824219 165.617188 97.496094 L 165.617188 97.199219 C 165.582031 96.800781 165.492188 96.453125 165.34375 96.164062 C 165.199219 95.875 164.980469 95.652344 164.695312 95.492188 C 164.410156 95.332031 164.050781 95.253906 163.613281 95.253906 C 163.363281 95.253906 163.105469 95.308594 162.84375 95.417969 C 162.582031 95.527344 162.339844 95.675781 162.113281 95.863281 C 161.867188 96.066406 161.664062 96.296875 161.507812 96.554688 C 161.351562 96.8125 161.238281 97.078125 161.167969 97.347656 C 161.117188 97.542969 161.085938 97.726562 161.082031 97.902344 C 161.082031 98.148438 161.132812 98.382812 161.242188 98.609375 C 161.398438 98.984375 161.679688 99.222656 162.082031 99.328125 L 163.9375 99.84375 C 164.277344 99.941406 164.566406 100.101562 164.804688 100.316406 C 165.042969 100.535156 165.222656 100.789062 165.34375 101.082031 C 165.464844 101.378906 165.539062 101.699219 165.558594 102.046875 L 165.558594 102.1875 C 165.558594 102.492188 165.515625 102.800781 165.429688 103.121094 C 165.316406 103.558594 165.136719 103.980469 164.890625 104.386719 C 164.640625 104.792969 164.335938 105.160156 163.96875 105.480469 C 163.621094 105.777344 163.238281 106.019531 162.820312 106.195312 C 162.402344 106.375 161.984375 106.46875 161.566406 106.46875 C 160.945312 106.46875 160.417969 106.367188 159.984375 106.167969 C 159.546875 105.972656 159.226562 105.722656 159.015625 105.417969 L 158.214844 106.363281 C 158.148438 106.433594 158.074219 106.46875 158 106.46875 L 157.949219 106.46875 C 157.816406 106.46875 157.742188 106.414062 157.734375 106.308594 C 157.734375 106.277344 157.742188 106.25 157.757812 106.222656 L 158.691406 102.566406 C 158.726562 102.417969 158.820312 102.34375 158.976562 102.335938 L 159.152344 102.335938 C 159.21875 102.339844 159.277344 102.363281 159.332031 102.414062 C 159.351562 102.457031 159.363281 102.496094 159.363281 102.527344 C 159.363281 102.546875 159.355469 102.574219 159.347656 102.605469 C 159.25 102.980469 159.199219 103.328125 159.199219 103.652344 C 159.199219 104.167969 159.328125 104.605469 159.582031 104.964844 C 159.984375 105.542969 160.6875 105.832031 161.695312 105.832031 C 161.945312 105.832031 162.203125 105.773438 162.464844 105.65625 C 162.726562 105.539062 162.96875 105.382812 163.195312 105.183594 C 163.441406 104.957031 163.652344 104.703125 163.820312 104.421875 C 163.988281 104.144531 164.113281 103.855469 164.195312 103.558594 C 164.25 103.316406 164.277344 103.09375 164.277344 102.886719 C 164.277344 102.625 164.242188 102.375 164.171875 102.132812 C 164.011719 101.734375 163.710938 101.476562 163.277344 101.359375 L 161.445312 100.84375 C 161.117188 100.757812 160.832031 100.613281 160.597656 100.410156 C 160.359375 100.210938 160.175781 99.972656 160.042969 99.695312 C 159.914062 99.417969 159.835938 99.113281 159.8125 98.78125 L 159.8125 98.609375 C 159.8125 98.347656 159.847656 98.074219 159.910156 97.789062 C 160.023438 97.371094 160.203125 96.972656 160.453125 96.589844 C 160.699219 96.210938 161.007812 95.875 161.371094 95.582031 C 161.714844 95.300781 162.09375 95.074219 162.503906 94.90625 C 162.917969 94.738281 163.324219 94.652344 163.726562 94.652344 C 164.28125 94.652344 164.738281 94.753906 165.097656 94.960938 C 165.460938 95.164062 165.71875 95.410156 165.882812 95.691406 L 166.65625 94.761719 C 166.699219 94.6875 166.769531 94.652344 166.867188 94.652344 L 166.9375 94.652344 C 167.066406 94.652344 167.132812 94.714844 167.132812 94.839844 L 167.132812 94.902344 Z M 166.1875 98.5625 "/>
<path style=" stroke:none;fill-rule:nonzero;fill:rgb(0%,0%,0%);fill-opacity:1;" d="M 61.554688 229.339844 L 108.898438 229.339844 L 108.898438 230.234375 L 61.554688 230.234375 Z M 48.992188 229.785156 L 61.566406 232.476562 L 61.566406 227.097656 Z M 121.457031 229.785156 L 108.886719 227.097656 L 108.886719 232.476562 Z M 121.457031 229.785156 "/>
<path style="fill:none;stroke-width:7.5;stroke-linecap:round;stroke-linejoin:round;stroke:rgb(0%,0%,0%);stroke-opacity:1;stroke-miterlimit:10;" d="M 613.79794 492.593045 L 613.79794 339.832275 " transform="matrix(0.0798181,0,0,-0.0796793,0,262.9487)"/>
<path style="fill:none;stroke-width:7.5;stroke-linecap:round;stroke-linejoin:round;stroke:rgb(0%,0%,0%);stroke-opacity:1;stroke-miterlimit:10;" d="M 1521.672727 492.593045 L 1521.672727 339.832275 " transform="matrix(0.0798181,0,0,-0.0796793,0,262.9487)"/>
<path style=" stroke:none;fill-rule:evenodd;fill:rgb(0%,0%,0%);fill-opacity:1;" d="M 84.070312 246.242188 C 84.015625 246.453125 83.976562 246.65625 83.957031 246.84375 C 83.945312 246.9375 83.941406 247.023438 83.941406 247.101562 C 83.941406 247.167969 83.945312 247.242188 83.957031 247.320312 C 83.972656 247.445312 84.011719 247.539062 84.070312 247.601562 C 84.128906 247.664062 84.21875 247.695312 84.335938 247.695312 C 84.449219 247.695312 84.550781 247.648438 84.636719 247.554688 C 84.726562 247.460938 84.816406 247.320312 84.902344 247.136719 C 84.988281 246.953125 85.066406 246.730469 85.140625 246.472656 C 85.210938 246.214844 85.289062 245.9375 85.367188 245.644531 C 85.402344 245.5 85.492188 245.429688 85.644531 245.425781 L 85.828125 245.425781 C 85.957031 245.429688 86.023438 245.484375 86.023438 245.597656 L 86.023438 245.652344 C 85.96875 245.894531 85.898438 246.160156 85.8125 246.457031 C 85.726562 246.75 85.621094 247.027344 85.488281 247.28125 C 85.359375 247.535156 85.195312 247.753906 84.988281 247.9375 C 84.785156 248.121094 84.535156 248.210938 84.238281 248.210938 C 83.960938 248.210938 83.71875 248.15625 83.511719 248.050781 C 83.308594 247.945312 83.144531 247.796875 83.019531 247.605469 C 82.898438 247.414062 82.824219 247.199219 82.804688 246.953125 C 82.792969 246.890625 82.785156 246.824219 82.785156 246.75 C 82.785156 246.570312 82.808594 246.390625 82.851562 246.210938 L 84.917969 238.199219 C 84.960938 238.03125 84.988281 237.898438 85.003906 237.808594 L 85.003906 237.785156 C 85.003906 237.742188 84.992188 237.707031 84.964844 237.6875 C 84.902344 237.644531 84.78125 237.617188 84.601562 237.601562 C 84.425781 237.585938 84.21875 237.578125 83.988281 237.578125 C 83.910156 237.578125 83.847656 237.550781 83.8125 237.5 C 83.78125 237.464844 83.761719 237.429688 83.761719 237.378906 C 83.761719 237.351562 83.773438 237.320312 83.789062 237.292969 L 83.8125 237.179688 C 83.828125 237.105469 83.867188 237.050781 83.925781 237.015625 C 83.984375 236.976562 84.046875 236.953125 84.117188 236.933594 L 86.222656 236.761719 L 86.273438 236.761719 C 86.402344 236.761719 86.464844 236.820312 86.464844 236.933594 C 86.464844 236.964844 86.460938 237 86.449219 237.035156 Z M 84.070312 246.242188 "/>
</g>
</svg>
