<?xml version="1.0" encoding="utf-8"?>
<!-- Generator: Adobe Illustrator 19.0.0, SVG Export Plug-In . SVG Version: 6.00 Build 0)  -->
<svg version="1.1" id="Layer_1" xmlns="http://www.w3.org/2000/svg" xmlns:xlink="http://www.w3.org/1999/xlink" x="0px" y="0px"
	 viewBox="0 0 454 189" style="enable-background:new 0 0 454 189;" xml:space="preserve">
<style type="text/css">
	.st0{fill:#D1D3D4;}
	.st1{fill:#FFFFFF;stroke:#000000;stroke-miterlimit:10;}
	.st2{fill:none;stroke:#000000;stroke-miterlimit:10;}
	.st3{fill:none;stroke:#F7941E;stroke-miterlimit:10;}
	.st4{fill:#010101;}
</style>
<g id="XMLID_84_">
	<g id="XMLID_131_">
		<g id="XMLID_132_">
			<polygon id="XMLID_133_" class="st0" points="84.6897659,36.8090782 86.6962051,36.8090782 84.1688309,27.3705864 
				81.6370926,36.8090782 83.6437149,36.8090782 83.6437149,88.3705826 84.6897659,88.3705826 			"/>
		</g>
	</g>
</g>
<g id="XMLID_83_">
	<g id="XMLID_127_">
		<g id="XMLID_128_">
			<polygon id="XMLID_129_" class="st0" points="141.7281494,94.8936996 141.7281494,96.9001236 151.1666565,94.3727646 
				141.7281494,91.8410263 141.7281494,93.8476334 90.1666641,93.8476334 90.1666641,94.8936996 			"/>
		</g>
	</g>
</g>
<g id="XMLID_82_">
	<g id="XMLID_123_">
		<g id="XMLID_124_">
			<polygon id="XMLID_125_" class="st0" points="125.2386856,54.0383568 126.6574478,55.457119 131.544342,46.9959679 
				123.0801163,51.8797874 124.4990005,53.2986717 88.0394974,89.7581558 88.7791824,90.4978409 			"/>
		</g>
	</g>
</g>
<g id="XMLID_81_">
	<g id="XMLID_119_">
		<g id="XMLID_120_">
			<polygon id="XMLID_121_" class="st0" points="83.6435318,151.9320984 81.6370926,151.9320984 84.1644669,161.3705902 
				86.6962051,151.9320984 84.6896133,151.9320984 84.6896133,100.3705826 83.6435318,100.3705826 			"/>
		</g>
	</g>
</g>
<g id="XMLID_80_">
	<g id="XMLID_115_">
		<g id="XMLID_116_">
			<polygon id="XMLID_117_" class="st0" points="124.4988785,135.442627 123.0801163,136.8613892 131.5412598,141.748291 
				126.6574478,133.2840576 125.2385635,134.7029419 88.7790604,98.2434464 88.0394058,98.9831161 			"/>
		</g>
	</g>
</g>
<g id="XMLID_79_">
	<g id="XMLID_111_">
		<g id="XMLID_112_">
			<polygon id="XMLID_113_" class="st0" points="26.6051407,93.8474655 26.6051407,91.8410416 17.1666489,94.3684006 
				26.6051407,96.9001389 26.6051407,94.8935318 78.1666641,94.8935318 78.1666641,93.8474655 			"/>
		</g>
	</g>
</g>
<g id="XMLID_78_">
	<g id="XMLID_107_">
		<g id="XMLID_108_">
			<polygon id="XMLID_109_" class="st0" points="43.8344193,53.2985497 45.2531815,51.8797874 36.7920456,46.9928856 
				41.6758652,55.457119 43.0947342,54.0382347 79.5542374,90.4977188 80.2939224,89.758049 			"/>
		</g>
	</g>
</g>
<g id="XMLID_77_">
	<g id="XMLID_103_">
		<g id="XMLID_104_">
			<polygon id="XMLID_105_" class="st0" points="43.0946274,134.7028198 41.6758652,133.2840576 36.7889633,141.7452087 
				45.2531815,136.8613892 43.8343124,135.4425049 80.2938004,98.9830093 79.5541153,98.2433243 			"/>
		</g>
	</g>
</g>
<circle id="XMLID_76_" class="st1" cx="84.1666565" cy="94.3705826" r="6"/>
<line id="XMLID_75_" class="st2" x1="80.6666565" y1="94.3705826" x2="87.6666565" y2="94.3705826"/>
<line id="XMLID_74_" class="st2" x1="84.1666565" y1="97.8705826" x2="84.1666565" y2="90.8705826"/>
<g id="XMLID_42_">
	<circle id="XMLID_73_" class="st1" cx="152.0268402" cy="141.7467499" r="6"/>
	<line id="XMLID_72_" class="st2" x1="148.5268402" y1="141.7467499" x2="155.5268402" y2="141.7467499"/>
	<line id="XMLID_48_" class="st2" x1="152.0268402" y1="145.2467346" x2="152.0268402" y2="138.2467346"/>
</g>
<g id="XMLID_35_">
	<g id="XMLID_99_">
		<g id="XMLID_100_">
			<polygon id="XMLID_101_" points="174.4308472,158.0259552 173.2822876,159.6711273 182.4681091,163.0017853 
				176.1783142,155.522934 175.0296631,157.1682281 157.2446899,144.7517853 156.6459045,145.6094971 			"/>
		</g>
	</g>
</g>
<g id="XMLID_28_">
	<g id="XMLID_29_">
		<path id="XMLID_36_" class="st0" d="M161.3212891,50.265625v3.284668h0.159668
			c0.5073242,0,0.8754883-0.1601563,1.1044922-0.4819336c0.2275391-0.3212891,0.3730469-0.7954102,0.4355469-1.421875h0.2246094
			v4.2250977h-0.2246094c-0.046875-0.4609375-0.1464844-0.8369141-0.296875-1.1308594
			c-0.1523438-0.2939453-0.328125-0.4912109-0.5288086-0.5917969c-0.2011719-0.1015625-0.4921875-0.1523438-0.8740234-0.1523438
			v2.2734375c0,0.4443359,0.0185547,0.7158203,0.0561523,0.8154297c0.0371094,0.0986328,0.1069336,0.1806641,0.2094727,0.2441406
			s0.2675781,0.0947266,0.4960938,0.0947266h0.4780273c0.7480469,0,1.3476563-0.1748047,1.7978516-0.5234375
			c0.4511719-0.3496094,0.7744141-0.8808594,0.9716797-1.5947266h0.2177734l-0.3603516,2.5644531h-6.9189453v-0.2197266h0.265625
			c0.2319336,0,0.4189453-0.0419922,0.5610352-0.125c0.1020508-0.0556641,0.1806641-0.1513672,0.2358398-0.2861328
			c0.043457-0.0947266,0.0649414-0.3447266,0.0649414-0.75v-5.3076172c0-0.3647461-0.0097656-0.5888672-0.0292969-0.6723633
			c-0.0395508-0.1386719-0.1123047-0.2460938-0.21875-0.3212891c-0.1494141-0.1113281-0.3540039-0.1665039-0.6137695-0.1665039
			h-0.265625v-0.2202148h6.7011719v2.3862305h-0.2246094c-0.1142578-0.5834961-0.2744141-1.0019531-0.4814453-1.2558594
			c-0.2060547-0.2539063-0.4990234-0.4404297-0.8759766-0.559082c-0.2207031-0.0717773-0.6347656-0.1074219-1.2402344-0.1074219
			H161.3212891z"/>
	</g>
</g>
<circle id="XMLID_85_" class="st3" cx="84.1666565" cy="94.3705902" r="13"/>
<circle id="XMLID_86_" class="st3" cx="84.1666565" cy="94.3705826" r="16.8999996"/>
<circle id="XMLID_87_" class="st3" cx="84.1666565" cy="94.3705826" r="20.8715"/>
<g id="XMLID_2_">
	<g id="XMLID_3_">
		<path id="XMLID_33_" class="st4" d="M180.7382813,140.1416016v3.3139648h0.2275391
			c0.3496094,0,0.6352539-0.0527344,0.855957-0.1601563c0.2216797-0.1074219,0.4091797-0.2875977,0.5625-0.5415039
			s0.2539063-0.5966797,0.3007813-1.0292969h0.203125v4.0522461h-0.203125
			c-0.0742188-0.765625-0.2753906-1.2705078-0.6035156-1.5146484s-0.7001953-0.3652344-1.1157227-0.3652344h-0.2275391v2.46875
			c0,0.4130859,0.0224609,0.6708984,0.0668945,0.7734375c0.0449219,0.1035156,0.1323242,0.1943359,0.262207,0.2714844
			c0.1303711,0.0771484,0.3061523,0.1162109,0.527832,0.1162109h0.2617188v0.2197266h-4.1313477v-0.2197266h0.262207
			c0.2290039,0,0.4135742-0.0419922,0.5537109-0.125c0.1010742-0.0556641,0.1787109-0.1513672,0.2329102-0.2861328
			c0.0429688-0.0947266,0.0639648-0.3447266,0.0639648-0.75v-5.3076172c0-0.4125977-0.0209961-0.6704102-0.0639648-0.7734375
			c-0.0424805-0.1030273-0.1289063-0.1933594-0.2592773-0.2709961c-0.1303711-0.0771484-0.3056641-0.1157227-0.5273438-0.1157227
			h-0.262207v-0.2202148h6.6665039v2.3144531h-0.2392578c-0.0537109-0.543457-0.1933594-0.9458008-0.4160156-1.2080078
			c-0.2236328-0.2617188-0.546875-0.4462891-0.9707031-0.5532227c-0.2333984-0.0595703-0.6640625-0.0893555-1.2939453-0.0893555
			H180.7382813z"/>
	</g>
</g>
<g id="XMLID_25_">
	<g id="XMLID_93_">
		<g id="XMLID_94_">
			<polygon id="XMLID_122_" class="st0" points="334.4145508,35.9943771 336.42099,35.9943771 333.8936157,26.5558777 
				331.361908,35.9943771 333.3684998,35.9943771 333.3684998,87.5558853 334.4145508,87.5558853 			"/>
		</g>
	</g>
</g>
<g id="XMLID_24_">
	<g id="XMLID_89_">
		<g id="XMLID_90_">
			<polygon id="XMLID_91_" class="st0" points="391.4529419,94.0790024 391.4529419,96.0854263 400.891449,93.5580521 
				391.4529419,91.026329 391.4529419,93.0329361 339.891449,93.0329361 339.891449,94.0790024 			"/>
		</g>
	</g>
</g>
<g id="XMLID_23_">
	<g id="XMLID_69_">
		<g id="XMLID_70_">
			<polygon id="XMLID_71_" class="st0" points="374.9634705,53.2236481 376.3822327,54.6424103 381.2691345,46.1812668 
				372.8049011,51.0650864 374.2237854,52.4839706 337.7643127,88.9434586 338.5039978,89.6831436 			"/>
		</g>
	</g>
</g>
<g id="XMLID_22_">
	<g id="XMLID_65_">
		<g id="XMLID_66_">
			<polygon id="XMLID_67_" class="st0" points="333.3683167,151.1174011 331.361908,151.1174011 333.8892822,160.5558777 
				336.42099,151.1174011 334.4143982,151.1174011 334.4143982,99.5558853 333.3683167,99.5558853 			"/>
		</g>
	</g>
</g>
<g id="XMLID_21_">
	<g id="XMLID_61_">
		<g id="XMLID_62_">
			<polygon id="XMLID_63_" class="st0" points="374.2236633,134.6278992 372.8049011,136.0466614 381.2660522,140.9335632 
				376.3822327,132.4693604 374.9633484,133.8882446 338.5038757,97.4287338 337.7641907,98.1684189 			"/>
		</g>
	</g>
</g>
<g id="XMLID_20_">
	<g id="XMLID_57_">
		<g id="XMLID_58_">
			<polygon id="XMLID_59_" class="st0" points="276.3299561,93.0327682 276.3299561,91.026329 266.891449,93.5537033 
				276.3299561,96.0854263 276.3299561,94.0788345 327.891449,94.0788345 327.891449,93.0327682 			"/>
		</g>
	</g>
</g>
<g id="XMLID_19_">
	<g id="XMLID_53_">
		<g id="XMLID_54_">
			<polygon id="XMLID_55_" class="st0" points="293.5592346,52.4838486 294.9779968,51.0650864 286.5168457,46.1781845 
				291.4006653,54.6424103 292.8195496,53.2235336 329.2790222,89.6830215 330.0187073,88.9433365 			"/>
		</g>
	</g>
</g>
<g id="XMLID_18_">
	<g id="XMLID_49_">
		<g id="XMLID_50_">
			<polygon id="XMLID_51_" class="st0" points="292.8194275,133.8881226 291.4006653,132.4693604 286.5137634,140.9305115 
				294.9779968,136.0466614 293.5591125,134.6278076 330.0185852,98.1683121 329.2789001,97.428627 			"/>
		</g>
	</g>
</g>
<circle id="XMLID_17_" class="st1" cx="333.891449" cy="93.5558777" r="6"/>
<line id="XMLID_16_" class="st2" x1="330.391449" y1="93.5558777" x2="337.391449" y2="93.5558777"/>
<line id="XMLID_15_" class="st2" x1="333.891449" y1="97.0558777" x2="333.891449" y2="90.0558777"/>
<g id="XMLID_11_">
	<circle id="XMLID_14_" class="st1" cx="401.7516479" cy="140.9320374" r="6"/>
	<line id="XMLID_13_" class="st2" x1="398.2516479" y1="140.9320374" x2="405.2516479" y2="140.9320374"/>
	<line id="XMLID_12_" class="st2" x1="401.7516479" y1="144.4320374" x2="401.7516479" y2="137.4320374"/>
</g>
<g id="XMLID_10_">
	<g id="XMLID_44_">
		<g id="XMLID_45_">
			<polygon id="XMLID_46_" points="424.1556396,157.2112427 423.0070801,158.8564148 432.1929016,162.1870728 
				425.9031067,154.7082214 424.7544556,156.3535156 406.9695129,143.9370728 406.370697,144.7947998 			"/>
		</g>
	</g>
</g>
<g id="XMLID_8_">
	<g id="XMLID_9_">
		<path id="XMLID_31_" class="st0" d="M411.0458984,49.4511719v3.284668h0.1601563c0.5068359,0,0.875-0.1601563,1.1044922-0.4819336
			c0.2275391-0.3212891,0.3730469-0.7954102,0.4355469-1.421875h0.2246094v4.2250977h-0.2246094
			c-0.046875-0.4609375-0.1464844-0.8369141-0.296875-1.1308594c-0.1523438-0.2939453-0.328125-0.4912109-0.5292969-0.5917969
			c-0.2011719-0.1015625-0.4921875-0.1523438-0.8740234-0.1523438v2.2734375c0,0.4443359,0.0185547,0.7158203,0.0566406,0.8154297
			c0.0371094,0.0986328,0.1064453,0.1806641,0.2089844,0.2441406s0.2675781,0.0947266,0.4960938,0.0947266h0.4785156
			c0.7480469,0,1.3476563-0.1748047,1.7978516-0.5234375c0.4511719-0.3496094,0.7744141-0.8808594,0.9716797-1.5947266h0.2177734
			l-0.3603516,2.5644531h-6.9189453v-0.2197266h0.265625c0.2314453,0,0.4189453-0.0419922,0.5605469-0.125
			c0.1025391-0.0556641,0.1806641-0.1513672,0.2363281-0.2861328c0.0429688-0.0947266,0.0644531-0.3447266,0.0644531-0.75
			v-5.3076172c0-0.3647461-0.0097656-0.5888672-0.0292969-0.6723633c-0.0390625-0.1386719-0.1123047-0.2460938-0.21875-0.3212891
			c-0.1494141-0.1113281-0.3535156-0.1665039-0.6132813-0.1665039h-0.265625v-0.2202148h6.7011719v2.3862305h-0.2246094
			c-0.1142578-0.5834961-0.2744141-1.0019531-0.4814453-1.2558594c-0.2060547-0.2539063-0.4990234-0.4404297-0.8759766-0.559082
			c-0.2207031-0.0717773-0.6347656-0.1074219-1.2402344-0.1074219H411.0458984z"/>
	</g>
</g>
<circle id="XMLID_7_" class="st3" cx="333.891449" cy="93.5558929" r="64.4704514"/>
<circle id="XMLID_6_" class="st3" cx="333.891449" cy="93.5558777" r="74.5289993"/>
<circle id="XMLID_5_" class="st3" cx="333.891449" cy="93.5558777" r="83.4860001"/>
<g id="XMLID_1_">
	<g id="XMLID_4_">
		<path id="XMLID_27_" class="st4" d="M430.4628906,139.3271484v3.3139648h0.2275391
			c0.3496094,0,0.6357422-0.0527344,0.8564453-0.1601563c0.2216797-0.1074219,0.4091797-0.2875977,0.5625-0.5415039
			s0.2539063-0.5966797,0.3007813-1.0292969h0.203125v4.0522461h-0.203125
			c-0.0742188-0.765625-0.2753906-1.2705078-0.6035156-1.5146484s-0.7001953-0.3652344-1.1162109-0.3652344h-0.2275391v2.46875
			c0,0.4130859,0.0224609,0.6708984,0.0673828,0.7734375c0.0449219,0.1035156,0.1318359,0.1943359,0.2617188,0.2714844
			c0.1308594,0.0771484,0.3066406,0.1162109,0.5283203,0.1162109h0.2617188v0.2197266h-4.1318359v-0.2197266h0.2626953
			c0.2285156,0,0.4130859-0.0419922,0.5537109-0.125c0.1005859-0.0556641,0.1787109-0.1513672,0.2324219-0.2861328
			c0.0429688-0.0947266,0.0644531-0.3447266,0.0644531-0.75v-5.3076172c0-0.4125977-0.0214844-0.6704102-0.0644531-0.7734375
			c-0.0419922-0.1030273-0.1289063-0.1933594-0.2587891-0.2709961c-0.1308594-0.0771484-0.3056641-0.1157227-0.5273438-0.1157227
			h-0.2626953v-0.2202148h6.6669922v2.3144531h-0.2392578c-0.0537109-0.543457-0.1933594-0.9458008-0.4160156-1.2080078
			c-0.2236328-0.2617188-0.546875-0.4462891-0.9707031-0.5532227c-0.2333984-0.0595703-0.6640625-0.0893555-1.2939453-0.0893555
			H430.4628906z"/>
	</g>
</g>
<g id="XMLID_26_">
</g>
<g id="XMLID_38_">
</g>
<g id="XMLID_68_">
</g>
<g id="XMLID_88_">
</g>
<g id="XMLID_92_">
</g>
<g id="XMLID_126_">
</g>
</svg>
