<?xml version="1.0" encoding="UTF-8"?>
<svg xmlns="http://www.w3.org/2000/svg" xmlns:xlink="http://www.w3.org/1999/xlink" width="563.04pt" height="428.04pt" viewBox="0 0 563.04 428.04" version="1.1">
<defs>
<clipPath id="clip1">
  <path d="M 272 236 L 298 236 L 298 260 L 272 260 Z M 272 236 "/>
</clipPath>
<clipPath id="clip2">
  <path d="M 266.378906 275.324219 L 339.058594 275.324219 L 339.058594 224.578125 L 266.375 224.578125 Z M 266.378906 275.324219 "/>
</clipPath>
<clipPath id="clip3">
  <path d="M 299 237 L 331 237 L 331 261 L 299 261 Z M 299 237 "/>
</clipPath>
<clipPath id="clip4">
  <path d="M 266.378906 275.324219 L 339.058594 275.324219 L 339.058594 224.578125 L 266.375 224.578125 Z M 266.378906 275.324219 "/>
</clipPath>
<clipPath id="clip5">
  <path d="M 328 251 L 334 251 L 334 265 L 328 265 Z M 328 251 "/>
</clipPath>
<clipPath id="clip6">
  <path d="M 266.378906 275.324219 L 339.058594 275.324219 L 339.058594 224.578125 L 266.375 224.578125 Z M 266.378906 275.324219 "/>
</clipPath>
</defs>
<g id="surface1">
<path style=" stroke:none;fill-rule:nonzero;fill:rgb(0%,0%,0%);fill-opacity:1;" d="M 46.347656 391.207031 L 532.503906 391.207031 L 532.503906 392.40625 L 46.347656 392.40625 C 46.019531 392.40625 45.75 392.136719 45.75 391.804688 C 45.75 391.472656 46.019531 391.207031 46.347656 391.207031 Z M 549.269531 391.804688 L 532.488281 387.007812 L 532.488281 396.597656 Z M 549.269531 391.804688 "/>
<path style=" stroke:none;fill-rule:nonzero;fill:rgb(0%,0%,0%);fill-opacity:1;" d="M 45.75 391.804688 L 45.75 33.234375 L 46.949219 33.234375 L 46.949219 391.804688 C 46.949219 392.136719 46.679688 392.40625 46.347656 392.40625 C 46.019531 392.40625 45.75 392.136719 45.75 391.804688 Z M 46.347656 16.46875 L 41.554688 33.253906 L 51.144531 33.253906 Z M 46.347656 16.46875 "/>
<path style=" stroke:none;fill-rule:evenodd;fill:rgb(0%,0%,0%);fill-opacity:1;" d="M 36.601562 38.664062 C 36.363281 39.507812 35.960938 40.292969 35.390625 41.007812 C 34.820312 41.726562 34.140625 42.34375 33.351562 42.867188 C 32.503906 43.453125 31.597656 43.894531 30.632812 44.195312 C 29.667969 44.492188 28.710938 44.640625 27.765625 44.640625 L 22.964844 44.640625 L 20.945312 52.480469 C 20.878906 52.714844 20.847656 52.894531 20.847656 53.03125 C 20.847656 53.15625 20.875 53.234375 20.929688 53.265625 C 21.082031 53.363281 21.375 53.417969 21.816406 53.433594 C 22.261719 53.449219 22.734375 53.457031 23.238281 53.453125 C 23.542969 53.457031 23.691406 53.601562 23.691406 53.894531 L 23.691406 54.003906 L 23.628906 54.285156 C 23.507812 54.601562 23.300781 54.757812 22.996094 54.757812 C 21.652344 54.695312 20.300781 54.664062 18.941406 54.664062 C 17.574219 54.664062 16.207031 54.695312 14.839844 54.757812 C 14.546875 54.757812 14.390625 54.621094 14.371094 54.347656 L 14.371094 54.222656 L 14.433594 53.957031 C 14.519531 53.613281 14.730469 53.445312 15.0625 53.453125 C 15.570312 53.457031 16.050781 53.449219 16.503906 53.433594 C 16.957031 53.417969 17.289062 53.363281 17.503906 53.265625 C 17.710938 53.152344 17.863281 52.871094 17.972656 52.417969 L 22.511719 34.738281 C 22.578125 34.511719 22.609375 34.332031 22.609375 34.207031 C 22.609375 34.082031 22.582031 34.007812 22.527344 33.988281 C 22.378906 33.894531 22.085938 33.839844 21.648438 33.816406 C 21.210938 33.796875 20.734375 33.785156 20.21875 33.78125 C 19.917969 33.785156 19.765625 33.644531 19.765625 33.359375 L 19.765625 33.234375 L 19.863281 32.96875 C 19.925781 32.65625 20.128906 32.5 20.460938 32.5 L 30.816406 32.5 C 31.765625 32.5 32.644531 32.648438 33.460938 32.945312 C 34.273438 33.242188 34.96875 33.691406 35.550781 34.285156 C 36.078125 34.839844 36.449219 35.5 36.664062 36.261719 C 36.730469 36.621094 36.761719 36.980469 36.761719 37.34375 C 36.761719 37.765625 36.710938 38.203125 36.601562 38.664062 Z M 33.160156 38.585938 C 33.34375 37.925781 33.464844 37.289062 33.53125 36.671875 L 33.53125 36.386719 C 33.53125 35.90625 33.398438 35.46875 33.128906 35.070312 C 32.773438 34.601562 32.296875 34.269531 31.707031 34.074219 C 31.113281 33.882812 30.472656 33.785156 29.785156 33.78125 L 26.746094 33.78125 C 26.195312 33.785156 25.867188 33.828125 25.761719 33.910156 C 25.652344 33.996094 25.539062 34.292969 25.421875 34.804688 L 23.175781 43.460938 L 27.214844 43.460938 C 27.914062 43.460938 28.613281 43.363281 29.316406 43.167969 C 30.015625 42.96875 30.671875 42.628906 31.285156 42.144531 C 31.835938 41.675781 32.242188 41.125 32.503906 40.5 C 32.769531 39.871094 32.988281 39.230469 33.160156 38.585938 Z M 33.160156 38.585938 "/>
<path style=" stroke:none;fill-rule:evenodd;fill:rgb(0%,0%,0%);fill-opacity:1;" d="M 547.292969 402.917969 C 547.226562 403.234375 547.035156 403.390625 546.710938 403.390625 C 546.363281 403.390625 546.035156 403.429688 545.722656 403.507812 C 545.414062 403.589844 545.105469 403.71875 544.8125 403.910156 C 544.515625 404.097656 544.246094 404.324219 543.996094 404.59375 C 543.746094 404.859375 543.523438 405.160156 543.316406 405.492188 L 531.542969 424.644531 C 531.382812 424.9375 531.132812 425.082031 530.800781 425.070312 L 530.492188 425.070312 C 530.09375 425.070312 529.898438 424.902344 529.910156 424.566406 L 527.890625 404.535156 C 527.847656 404.265625 527.804688 404.054688 527.761719 403.902344 C 527.71875 403.75 527.65625 403.644531 527.570312 403.578125 C 527.417969 403.496094 527.179688 403.445312 526.851562 403.421875 C 526.523438 403.402344 526.148438 403.390625 525.726562 403.390625 C 525.566406 403.390625 525.445312 403.339844 525.371094 403.234375 C 525.308594 403.171875 525.273438 403.09375 525.273438 402.996094 C 525.273438 402.9375 525.292969 402.878906 525.324219 402.824219 L 525.371094 402.589844 C 525.402344 402.453125 525.476562 402.339844 525.589844 402.246094 C 525.703125 402.152344 525.839844 402.105469 526 402.105469 C 527.035156 402.167969 528.082031 402.199219 529.136719 402.199219 C 529.296875 402.199219 529.46875 402.1875 529.652344 402.167969 C 530.902344 402.167969 532.152344 402.148438 533.398438 402.105469 C 533.550781 402.105469 533.683594 402.160156 533.804688 402.261719 C 533.847656 402.347656 533.867188 402.425781 533.867188 402.496094 C 533.867188 402.5625 533.851562 402.617188 533.820312 402.667969 L 533.769531 402.902344 C 533.738281 403.050781 533.660156 403.171875 533.535156 403.257812 C 533.414062 403.347656 533.28125 403.390625 533.140625 403.390625 C 532.765625 403.390625 532.417969 403.40625 532.109375 403.4375 C 531.796875 403.472656 531.488281 403.554688 531.1875 403.6875 C 531.003906 403.785156 530.917969 403.941406 530.929688 404.160156 L 530.929688 404.269531 C 531.304688 407.050781 531.605469 409.847656 531.832031 412.652344 C 532.058594 415.460938 532.300781 418.121094 532.558594 420.628906 L 542.089844 405.117188 C 542.230469 404.898438 542.316406 404.667969 542.347656 404.425781 L 542.347656 404.347656 C 542.347656 404.191406 542.3125 404.050781 542.234375 403.925781 C 542 403.570312 541.558594 403.390625 540.910156 403.390625 C 540.628906 403.390625 540.492188 403.25 540.492188 402.96875 L 540.492188 402.855469 L 540.554688 402.574219 C 540.675781 402.261719 540.882812 402.105469 541.183594 402.105469 C 542.132812 402.148438 543.085938 402.167969 544.042969 402.167969 C 544.175781 402.1875 544.296875 402.199219 544.417969 402.199219 C 545.234375 402.199219 546.074219 402.167969 546.9375 402.105469 C 547.226562 402.105469 547.382812 402.246094 547.40625 402.527344 L 547.40625 402.652344 Z M 547.292969 402.917969 "/>
<path style="fill:none;stroke-width:15;stroke-linecap:round;stroke-linejoin:round;stroke:rgb(0%,0%,0%);stroke-opacity:1;stroke-miterlimit:10;" d="M 1803.966699 3051.976359 C 1830.802385 3090.54275 1857.821376 3103.190474 1884.767044 3122.40035 C 1911.676052 3141.610225 1938.805025 3141.646885 1973.082848 3167.712194 C 2007.360672 3193.814162 2059.602275 3218.413068 2099.929126 3237.622943 C 2140.255977 3256.832819 2168.33813 3257.016119 2215.70385 3276.739236 C 2263.06957 3296.462353 2303.103135 3321.68448 2364.143323 3340.454434 C 2425.256833 3359.261049 2464.813808 3360.690792 2490.916279 3373.228535 C 2517.01875 3385.766279 2543.487829 3397.680801 2570.433498 3410.475164 C 2597.342506 3423.269528 2624.288174 3423.269528 2665.018294 3429.68504 C 2705.748414 3436.100552 2749.484717 3438.446796 2794.870755 3445.045609 C 2840.256793 3451.681081 2880.583644 3461.68928 2929.489117 3468.104791 C 2978.394589 3474.483643 3046.510307 3478.442931 3104.727616 3485.518324 C 3162.944925 3492.557057 3216.542976 3500.109031 3249.574333 3506.524543 C 3282.60569 3512.903395 3309.551359 3512.903395 3339.539872 3519.318907 C 3369.565046 3525.697758 3403.732887 3525.697758 3447.615833 3525.697758 C 3491.49878 3525.697758 3524.713441 3525.697758 3558.33137 3525.697758 C 3591.9493 3525.697758 3630.223148 3525.697758 3681.804857 3525.697758 C 3733.386566 3525.697758 3787.241242 3525.697758 3817.266416 3525.697758 C 3847.29159 3525.697758 3887.031869 3525.697758 3909.798209 3515.322959 C 3932.56455 3504.94816 3955.037604 3491.897176 3980.260217 3472.90726 C 4005.482829 3453.880685 4035.068074 3425.212512 4060.657294 3418.137119 C 4086.246514 3411.061726 4103.183791 3397.937421 4124.190415 3385.472998 C 4145.197038 3373.008575 4147.873275 3340.124494 4166.460287 3312.959383 C 4185.047299 3285.757613 4196.742086 3261.928569 4219.17848 3222.555656 C 4241.614873 3183.182742 4251.036692 3156.897474 4266.10427 3137.834238 C 4281.171848 3118.807663 4308.594107 3092.998975 4327.914335 3066.493746 C 4347.197902 3040.025177 4348.774315 3015.756211 4355.483237 2990.020844 C 4362.155498 2964.285476 4388.954524 2926.378966 4388.954524 2893.898145 C 4388.954524 2861.453985 4388.954524 2835.681957 4388.954524 2803.567737 C 4388.954524 2771.416858 4388.954524 2733.473687 4388.954524 2694.797315 C 4388.954524 2656.157604 4388.954524 2617.554552 4369.011063 2585.220372 C 4349.067602 2552.922852 4335.393133 2527.187484 4321.97529 2495.036605 C 4308.594107 2462.885725 4308.594107 2437.113697 4301.885186 2411.378329 C 4295.212925 2385.642961 4295.212925 2359.907594 4281.758421 2320.754641 C 4268.303917 2281.565028 4253.859572 2230.350913 4233.696146 2191.784521 C 4213.532721 2153.21813 4201.434665 2102.993837 4187.026981 2070.146416 C 4172.619297 2037.298995 4145.27036 1999.832405 4110.552607 1961.229353 C 4075.834854 1922.589642 4038.257561 1897.294195 4010.102087 1879.257441 C 3981.946612 1861.257348 3941.839726 1861.257348 3909.35828 1854.841836 C 3876.840174 1848.426324 3849.894505 1848.426324 3813.490356 1848.426324 C 3777.049547 1848.426324 3725.467838 1848.426324 3680.155122 1848.426324 C 3634.879066 1848.426324 3607.933397 1848.426324 3574.242146 1857.591341 C 3540.587556 1866.719698 3510.122453 1874.051711 3471.481997 1881.347065 C 3432.878202 1888.679079 3387.74879 1912.434803 3333.894113 1923.249523 C 3280.002775 1934.027583 3221.125573 1956.646845 3172.623369 1966.545063 C 3124.121165 1976.406621 3071.732919 1997.00958 2997.38487 2021.791786 C 2923.03682 2046.573992 2876.550959 2059.038415 2832.52137 2075.388805 C 2788.45512 2091.702536 2761.546112 2091.702536 2707.838078 2098.118047 C 2654.093383 2104.496899 2627.184375 2104.496899 2593.639767 2104.496899 C 2560.095159 2104.496899 2519.804969 2104.496899 2479.368135 2104.496899 C 2438.931302 2104.496899 2412.022294 2104.496899 2378.551007 2110.839091 C 2345.079721 2117.181283 2318.170713 2129.975647 2271.281583 2136.464479 C 2224.392453 2142.916651 2133.913663 2181.996283 2001.641591 2273.206533 C 1869.332859 2364.416782 1823.763517 2408.372204 1809.429154 2422.889591 C 1795.094791 2437.406978 1763.74983 2446.132074 1745.126157 2460.576141 C 1726.502484 2475.020207 1712.388086 2498.15271 1697.90708 2524.034718 C 1683.426074 2549.880066 1683.426074 2575.615434 1690.098335 2614.181826 C 1696.807257 2652.711557 1696.807257 2678.483585 1696.807257 2704.218953 C 1696.807257 2729.954321 1696.807257 2755.689689 1696.807257 2781.461716 C 1696.807257 2807.197084 1696.807257 2832.932452 1696.807257 2858.66782 C 1696.807257 2884.439848 1696.807257 2922.602979 1703.516178 2954.827178 C 1710.188439 2987.051378 1723.239675 3000.432303 1743.36644 3019.788819 C 1763.493204 3039.181995 1790.402212 3039.181995 1803.966699 3051.976359 " transform="matrix(0.106551,0,0,-0.106553,0,432.1668)"/>
<path style="fill-rule:evenodd;fill:rgb(0%,0%,0%);fill-opacity:1;stroke-width:15;stroke-linecap:round;stroke-linejoin:round;stroke:rgb(0%,0%,0%);stroke-opacity:1;stroke-miterlimit:10;" d="M 1423.061258 982.295555 L 4811.689907 982.295555 L 4811.689907 1032.299888 L 1423.061258 1032.299888 Z M 1423.061258 982.295555 " transform="matrix(0.106551,0,0,-0.106553,0,432.1668)"/>
<path style=" stroke:none;fill-rule:evenodd;fill:rgb(0%,0%,0%);fill-opacity:1;" d="M 518.136719 288.023438 C 518.109375 288.160156 518.039062 288.277344 517.9375 288.375 C 517.835938 288.476562 517.707031 288.527344 517.558594 288.527344 L 517.25 288.527344 C 516.949219 288.527344 516.800781 288.398438 516.800781 288.148438 L 516.800781 288.039062 C 516.882812 287.570312 516.960938 287.082031 517.023438 286.574219 C 517.089844 286.066406 517.140625 285.59375 517.183594 285.152344 L 517.183594 284.652344 C 517.183594 284.410156 517.175781 284.191406 517.152344 283.992188 C 517.109375 283.667969 517.035156 283.425781 516.925781 283.253906 C 516.636719 282.878906 516.230469 282.628906 515.707031 282.496094 C 515.1875 282.363281 514.601562 282.300781 513.953125 282.296875 L 512.160156 282.296875 C 511.621094 282.300781 511.289062 282.332031 511.160156 282.394531 C 511.0625 282.488281 510.957031 282.800781 510.835938 283.332031 L 506.328125 300.808594 C 506.285156 300.964844 506.265625 301.089844 506.265625 301.183594 C 506.265625 301.394531 506.328125 301.519531 506.457031 301.558594 C 506.757812 301.65625 507.246094 301.714844 507.910156 301.742188 C 508.578125 301.769531 509.246094 301.78125 509.914062 301.78125 C 510.21875 301.78125 510.367188 301.90625 510.367188 302.15625 C 510.367188 302.21875 510.355469 302.289062 510.335938 302.359375 L 510.269531 302.59375 C 510.207031 302.921875 509.996094 303.082031 509.640625 303.082031 C 507.875 303.019531 506.089844 302.988281 504.292969 302.988281 C 502.503906 302.988281 500.707031 303.019531 498.894531 303.082031 C 498.734375 303.082031 498.617188 303.035156 498.539062 302.941406 C 498.464844 302.867188 498.425781 302.789062 498.425781 302.707031 C 498.425781 302.644531 498.4375 302.582031 498.460938 302.515625 L 498.523438 302.28125 C 498.558594 302.148438 498.632812 302.03125 498.75 301.929688 C 498.871094 301.832031 499.003906 301.78125 499.15625 301.78125 C 499.8125 301.78125 500.484375 301.769531 501.175781 301.742188 C 501.863281 301.714844 502.367188 301.65625 502.6875 301.5625 C 503.003906 301.46875 503.214844 301.195312 503.324219 300.746094 L 507.832031 283.253906 C 507.9375 282.890625 507.992188 282.613281 507.992188 282.421875 L 507.992188 282.359375 C 507.949219 282.320312 507.652344 282.300781 507.105469 282.296875 L 505.308594 282.296875 C 504.664062 282.300781 504.035156 282.367188 503.421875 282.503906 C 502.808594 282.640625 502.257812 282.898438 501.773438 283.285156 C 501.546875 283.464844 501.332031 283.71875 501.125 284.054688 C 500.921875 284.390625 500.71875 284.773438 500.519531 285.207031 C 500.320312 285.640625 500.128906 286.105469 499.945312 286.597656 C 499.765625 287.089844 499.582031 287.578125 499.398438 288.070312 C 499.289062 288.386719 499.089844 288.535156 498.800781 288.527344 L 498.523438 288.527344 C 498.363281 288.527344 498.246094 288.476562 498.167969 288.367188 C 498.105469 288.304688 498.070312 288.234375 498.070312 288.148438 C 498.070312 288.085938 498.089844 288.023438 498.121094 287.960938 C 498.402344 286.90625 498.75 285.828125 499.171875 284.730469 C 499.589844 283.632812 499.992188 282.539062 500.367188 281.449219 C 500.472656 281.136719 500.679688 280.980469 500.980469 280.980469 L 518.785156 280.980469 C 519.089844 280.980469 519.238281 281.113281 519.238281 281.371094 L 519.238281 281.484375 Z M 518.136719 288.023438 "/>
<path style=" stroke:none;fill-rule:evenodd;fill:rgb(0%,0%,0%);fill-opacity:1;" d="M 526 301.523438 C 526 302.367188 525.933594 303.207031 525.804688 304.042969 C 525.671875 304.875 525.34375 305.660156 524.824219 306.390625 C 524.453125 306.925781 523.957031 307.335938 523.335938 307.621094 C 522.714844 307.90625 522.039062 308.050781 521.308594 308.050781 C 520.609375 308.050781 519.945312 307.90625 519.316406 307.621094 C 518.695312 307.335938 518.195312 306.925781 517.824219 306.390625 C 517.304688 305.660156 516.976562 304.875 516.847656 304.042969 C 516.714844 303.207031 516.648438 302.367188 516.648438 301.523438 C 516.648438 300.671875 516.714844 299.816406 516.847656 298.964844 C 516.976562 298.113281 517.304688 297.3125 517.824219 296.570312 C 518.195312 296.03125 518.691406 295.613281 519.3125 295.316406 C 519.9375 295.015625 520.601562 294.867188 521.308594 294.867188 C 522.03125 294.867188 522.707031 295.015625 523.332031 295.316406 C 523.957031 295.613281 524.453125 296.03125 524.824219 296.570312 C 525.34375 297.3125 525.671875 298.113281 525.804688 298.964844 C 525.933594 299.816406 526 300.671875 526 301.523438 Z M 523.992188 301.21875 C 523.992188 300.847656 523.992188 300.460938 523.984375 300.050781 C 523.980469 299.640625 523.960938 299.238281 523.933594 298.847656 C 523.90625 298.453125 523.855469 298.082031 523.785156 297.734375 C 523.714844 297.386719 523.628906 297.089844 523.527344 296.84375 C 523.328125 296.445312 523.027344 296.117188 522.636719 295.863281 C 522.246094 295.609375 521.804688 295.480469 521.308594 295.480469 C 520.828125 295.480469 520.398438 295.613281 520.007812 295.867188 C 519.621094 296.125 519.324219 296.449219 519.121094 296.84375 C 519.019531 297.089844 518.933594 297.386719 518.863281 297.734375 C 518.792969 298.082031 518.742188 298.453125 518.714844 298.847656 C 518.691406 299.238281 518.671875 299.640625 518.667969 300.050781 C 518.660156 300.460938 518.65625 300.847656 518.65625 301.21875 C 518.65625 301.628906 518.660156 302.058594 518.667969 302.511719 C 518.671875 302.96875 518.691406 303.40625 518.714844 303.832031 C 518.742188 304.257812 518.792969 304.660156 518.863281 305.039062 C 518.933594 305.417969 519.019531 305.738281 519.121094 305.996094 C 519.308594 306.425781 519.605469 306.777344 519.996094 307.050781 C 520.390625 307.324219 520.828125 307.464844 521.308594 307.464844 C 521.808594 307.464844 522.257812 307.324219 522.652344 307.050781 C 523.046875 306.777344 523.339844 306.425781 523.527344 305.996094 C 523.628906 305.738281 523.714844 305.417969 523.785156 305.039062 C 523.855469 304.660156 523.90625 304.257812 523.933594 303.832031 C 523.960938 303.40625 523.980469 302.96875 523.984375 302.511719 C 523.992188 302.058594 523.992188 301.628906 523.992188 301.21875 Z M 523.992188 301.21875 "/>
<path style=" stroke:none;fill-rule:nonzero;fill:rgb(0%,0%,0%);fill-opacity:1;" d="M 234.289062 324.835938 L 234.289062 298.441406 L 236.6875 298.441406 L 236.6875 324.835938 C 236.6875 325.496094 236.152344 326.035156 235.488281 326.035156 C 234.824219 326.035156 234.289062 325.496094 234.289062 324.835938 Z M 235.488281 284.070312 L 230.695312 298.457031 L 240.285156 298.457031 Z M 235.488281 284.070312 "/>
<path style=" stroke:none;fill-rule:evenodd;fill:rgb(92.199707%,29.399109%,87.799072%);fill-opacity:0.098039;" d="M 358.953125 57.585938 L 356.15625 57.984375 L 353.757812 58.785156 L 347.765625 59.183594 L 340.175781 60.78125 L 337.378906 61.179688 C 336.84375 61.246094 335.246094 61.449219 334.179688 61.582031 C 333.117188 61.714844 331.515625 61.914062 330.984375 61.980469 L 327.386719 62.378906 L 319.398438 62.78125 L 315 63.179688 L 311.804688 63.578125 L 309.007812 63.976562 L 302.214844 65.578125 L 299.816406 65.976562 L 297.421875 66.375 L 294.222656 66.777344 L 290.628906 66.777344 L 287.03125 67.175781 C 286.097656 67.308594 282.835938 67.773438 281.4375 67.972656 C 280.039062 68.171875 279.105469 68.304688 278.640625 68.375 L 276.644531 68.773438 C 276.441406 68.839844 275.84375 69.039062 275.445312 69.171875 C 275.042969 69.304688 274.445312 69.503906 274.246094 69.574219 L 271.449219 70.769531 L 265.457031 73.96875 C 265.253906 74.035156 264.65625 74.234375 264.257812 74.367188 C 263.855469 74.5 263.257812 74.699219 263.058594 74.765625 L 261.460938 75.167969 L 257.863281 75.566406 L 253.070312 76.765625 L 248.273438 78.363281 L 245.476562 79.5625 L 240.28125 82.359375 L 236.6875 83.957031 L 234.6875 84.757812 C 234.488281 84.824219 233.890625 85.023438 233.488281 85.15625 C 233.089844 85.289062 232.492188 85.488281 232.292969 85.554688 L 228.296875 86.355469 C 228.09375 86.421875 227.496094 86.621094 227.097656 86.753906 C 226.699219 86.886719 226.097656 87.085938 225.898438 87.152344 L 223.101562 88.351562 C 222.703125 88.550781 221.769531 89.019531 220.703125 89.550781 C 219.636719 90.082031 217.375 91.214844 216.707031 91.550781 L 213.910156 93.148438 L 208.316406 97.144531 L 207.519531 97.542969 L 203.921875 98.742188 L 201.523438 99.941406 C 201.324219 100.074219 200.726562 100.472656 200.324219 100.738281 C 199.925781 101.003906 199.328125 101.40625 199.128906 101.539062 C 198.859375 101.738281 198.0625 102.335938 197.527344 102.738281 C 196.996094 103.136719 196.195312 103.734375 195.929688 103.9375 L 193.933594 105.933594 L 193.933594 106.332031 L 191.933594 108.332031 L 189.539062 109.53125 L 188.738281 109.53125 C 188.605469 109.597656 188.207031 109.796875 187.9375 109.929688 C 187.671875 110.0625 187.273438 110.261719 187.140625 110.328125 L 183.945312 113.527344 L 182.746094 115.523438 L 182.34375 116.722656 L 181.945312 119.121094 L 181.546875 122.714844 L 181.546875 150.6875 L 180.347656 156.679688 L 180.347656 159.078125 L 180.746094 161.074219 C 180.878906 161.339844 181.210938 162.007812 181.546875 162.671875 C 181.878906 163.339844 182.542969 164.671875 182.746094 165.070312 L 183.542969 166.269531 L 184.742188 167.867188 L 185.941406 169.066406 L 187.140625 169.867188 L 191.535156 171.863281 L 192.734375 172.664062 L 196.730469 176.660156 L 199.128906 178.65625 L 202.722656 181.453125 C 202.988281 181.652344 203.789062 182.253906 204.320312 182.652344 C 204.855469 183.050781 205.652344 183.652344 205.917969 183.851562 L 208.714844 185.847656 L 211.515625 187.847656 L 219.90625 193.441406 L 223.101562 195.4375 L 225.898438 197.035156 L 229.09375 198.636719 L 234.6875 201.433594 L 236.6875 202.230469 C 236.886719 202.296875 237.484375 202.496094 237.886719 202.628906 C 238.285156 202.765625 238.882812 202.964844 239.082031 203.03125 L 240.683594 203.429688 L 242.679688 203.828125 L 244.679688 203.828125 C 244.945312 203.894531 245.742188 204.097656 246.277344 204.230469 C 246.808594 204.363281 247.609375 204.5625 247.875 204.628906 L 249.472656 205.429688 C 249.738281 205.492188 250.539062 205.695312 251.070312 205.828125 C 251.605469 205.960938 252.402344 206.160156 252.667969 206.226562 L 254.667969 206.625 L 258.664062 207.027344 L 284.632812 207.027344 L 291.828125 207.824219 L 295.421875 208.226562 L 297.421875 208.625 L 299.019531 209.023438 L 302.613281 210.222656 L 311.40625 213.019531 L 332.183594 220.210938 L 334.980469 221.011719 L 342.570312 222.609375 L 345.367188 223.40625 L 348.164062 224.605469 L 350.960938 225.40625 L 357.355469 226.605469 L 360.152344 227.402344 L 361.351562 227.804688 L 367.34375 230.199219 C 367.609375 230.265625 368.410156 230.464844 368.941406 230.601562 C 369.476562 230.734375 370.273438 230.933594 370.542969 231 L 374.136719 231.398438 L 382.527344 233.796875 L 385.726562 234.195312 L 412.496094 234.195312 L 415.691406 233.796875 L 420.886719 232.996094 L 422.882812 232.597656 L 424.484375 232.199219 L 426.878906 231 L 428.878906 229.800781 C 429.144531 229.601562 429.945312 229 430.476562 228.601562 C 431.007812 228.203125 431.808594 227.605469 432.074219 227.402344 L 439.265625 220.210938 L 440.464844 218.613281 L 442.0625 216.613281 L 444.0625 213.417969 L 445.261719 211.023438 L 446.460938 207.824219 L 448.058594 202.230469 L 449.257812 199.433594 L 451.253906 195.839844 L 452.054688 193.839844 L 453.25 190.242188 L 455.648438 183.050781 C 455.714844 182.785156 455.914062 181.984375 456.046875 181.453125 C 456.183594 180.921875 456.382812 180.121094 456.449219 179.855469 L 458.046875 169.867188 L 458.445312 168.265625 C 458.511719 168.066406 458.710938 167.46875 458.847656 167.070312 C 458.980469 166.667969 459.179688 166.070312 459.246094 165.871094 C 459.445312 165.46875 459.84375 164.671875 460.445312 163.472656 C 461.042969 162.273438 462.441406 159.476562 462.839844 158.675781 L 465.238281 155.082031 L 465.636719 153.882812 L 466.039062 152.285156 L 466.4375 149.886719 L 466.4375 122.714844 L 466.039062 121.117188 L 465.238281 119.121094 L 463.640625 116.324219 L 462.839844 114.324219 L 462.441406 112.726562 L 462.042969 109.929688 L 461.644531 108.730469 L 460.445312 106.332031 L 459.246094 104.734375 L 457.246094 102.335938 L 453.652344 98.742188 C 453.519531 98.542969 453.117188 97.941406 452.851562 97.542969 C 452.585938 97.144531 452.1875 96.542969 452.054688 96.34375 L 449.65625 91.148438 L 445.660156 83.957031 L 442.863281 79.960938 L 441.664062 77.5625 L 439.667969 73.167969 L 438.46875 71.96875 L 436.46875 70.769531 L 433.273438 69.171875 L 431.277344 68.773438 C 431.140625 68.707031 430.742188 68.507812 430.476562 68.375 C 430.210938 68.242188 429.8125 68.039062 429.675781 67.972656 L 426.878906 65.976562 L 423.285156 62.78125 L 419.6875 60.382812 C 419.421875 60.25 418.757812 59.914062 418.089844 59.582031 C 417.425781 59.25 416.09375 58.582031 415.691406 58.382812 L 414.492188 57.984375 L 412.097656 57.585938 Z M 358.953125 57.585938 "/>
<path style="fill-rule:evenodd;fill:rgb(11.799622%,85.099792%,54.499817%);fill-opacity:0.39216;stroke-width:15;stroke-linecap:round;stroke-linejoin:round;stroke:rgb(0%,0%,0%);stroke-opacity:1;stroke-miterlimit:10;" d="M 1925.827111 1556.722162 C 1925.827111 1587.443299 1950.719776 1612.335485 1981.441505 1612.335485 L 2438.747998 1612.335485 C 2469.469726 1612.335485 2494.362392 1587.443299 2494.362392 1556.722162 L 2494.362392 1445.495516 C 2494.362392 1414.774379 2469.469726 1389.882192 2438.747998 1389.882192 L 1981.441505 1389.882192 C 1950.719776 1389.882192 1925.827111 1414.774379 1925.827111 1445.495516 Z M 1925.827111 1556.722162 " transform="matrix(0.106551,0,0,-0.106553,0,432.1668)"/>
<path style=" stroke:none;fill-rule:nonzero;fill:rgb(0%,0%,0%);fill-opacity:1;" d="M 234.289062 260.367188 L 234.289062 97.003906 L 236.6875 97.003906 L 236.6875 260.367188 C 236.6875 261.03125 236.152344 261.566406 235.488281 261.566406 C 234.824219 261.566406 234.289062 261.03125 234.289062 260.367188 Z M 235.488281 82.632812 L 230.695312 97.015625 L 240.285156 97.015625 Z M 235.488281 82.632812 "/>
<path style=" stroke:none;fill-rule:evenodd;fill:rgb(0%,0%,0%);fill-opacity:1;" d="M 238.722656 53.101562 C 238.625 53.5 238.402344 53.832031 238.050781 54.101562 C 237.703125 54.367188 237.324219 54.5 236.914062 54.5 C 236.484375 54.5 236.152344 54.351562 235.925781 54.058594 C 235.777344 53.894531 235.695312 53.6875 235.683594 53.449219 C 235.683594 53.300781 235.707031 53.15625 235.75 53.007812 C 235.847656 52.613281 236.074219 52.28125 236.429688 52.011719 C 236.785156 51.746094 237.164062 51.613281 237.574219 51.613281 C 238.007812 51.613281 238.335938 51.753906 238.5625 52.035156 C 238.710938 52.234375 238.789062 52.449219 238.789062 52.679688 C 238.789062 52.824219 238.765625 52.96875 238.722656 53.101562 Z M 238.898438 68.320312 C 238.78125 68.863281 238.597656 69.4375 238.351562 70.039062 C 238.105469 70.640625 237.800781 71.183594 237.4375 71.675781 C 237.078125 72.167969 236.652344 72.578125 236.167969 72.90625 C 235.683594 73.234375 235.125 73.402344 234.488281 73.402344 C 233.953125 73.402344 233.488281 73.285156 233.101562 73.054688 C 232.710938 72.828125 232.414062 72.523438 232.203125 72.148438 C 231.992188 71.769531 231.886719 71.351562 231.886719 70.890625 C 231.867188 70.871094 231.855469 70.828125 231.855469 70.765625 C 231.855469 70.296875 231.957031 69.816406 232.164062 69.324219 L 234.78125 62.417969 C 235.105469 61.554688 235.265625 60.84375 235.265625 60.285156 C 235.265625 59.816406 235.066406 59.582031 234.667969 59.582031 C 234.300781 59.582031 233.972656 59.6875 233.679688 59.894531 C 233.390625 60.105469 233.125 60.394531 232.882812 60.765625 C 232.640625 61.136719 232.421875 61.578125 232.226562 62.085938 C 232.035156 62.59375 231.871094 63.132812 231.742188 63.707031 C 231.625 63.988281 231.425781 64.136719 231.144531 64.144531 L 230.789062 64.144531 C 230.53125 64.148438 230.402344 64.015625 230.402344 63.753906 L 230.402344 63.644531 C 230.53125 63.070312 230.722656 62.480469 230.984375 61.878906 C 231.242188 61.277344 231.554688 60.734375 231.921875 60.242188 C 232.289062 59.75 232.710938 59.34375 233.195312 59.019531 C 233.679688 58.695312 234.234375 58.53125 234.859375 58.53125 C 235.398438 58.53125 235.859375 58.648438 236.234375 58.875 C 236.613281 59.105469 236.898438 59.414062 237.097656 59.792969 C 237.296875 60.175781 237.40625 60.605469 237.429688 61.085938 L 237.429688 61.195312 C 237.429688 61.648438 237.339844 62.113281 237.15625 62.59375 L 234.539062 69.527344 C 234.234375 70.375 234.085938 71.097656 234.085938 71.691406 C 234.0625 71.710938 234.054688 71.710938 234.054688 71.691406 C 234.054688 72.140625 234.257812 72.367188 234.667969 72.367188 C 235.035156 72.367188 235.363281 72.257812 235.660156 72.039062 C 235.957031 71.816406 236.226562 71.527344 236.46875 71.160156 C 236.710938 70.792969 236.921875 70.355469 237.105469 69.839844 C 237.289062 69.328125 237.457031 68.789062 237.609375 68.222656 C 237.671875 67.953125 237.859375 67.816406 238.171875 67.816406 L 238.527344 67.816406 C 238.648438 67.816406 238.765625 67.855469 238.882812 67.925781 C 238.917969 68.011719 238.941406 68.085938 238.964844 68.144531 C 238.964844 68.210938 238.941406 68.265625 238.898438 68.320312 Z M 238.898438 68.320312 "/>
<path style=" stroke:none;fill-rule:evenodd;fill:rgb(0%,0%,0%);fill-opacity:1;" d="M 170.3125 302.46875 C 170.34375 302.542969 170.359375 302.613281 170.359375 302.675781 C 170.359375 302.757812 170.339844 302.820312 170.296875 302.863281 C 170.230469 302.988281 170.105469 303.050781 169.921875 303.050781 L 146.015625 303.050781 C 145.84375 303.050781 145.722656 302.988281 145.644531 302.863281 C 145.601562 302.820312 145.582031 302.757812 145.582031 302.675781 C 145.582031 302.613281 145.597656 302.542969 145.628906 302.46875 L 157.082031 280.148438 C 157.222656 279.847656 157.46875 279.699219 157.824219 279.710938 L 158.113281 279.710938 C 158.449219 279.710938 158.699219 279.851562 158.859375 280.132812 Z M 157 283.222656 L 148.148438 300.460938 L 165.835938 300.460938 Z M 157 283.222656 "/>
<path style=" stroke:none;fill-rule:evenodd;fill:rgb(0%,0%,0%);fill-opacity:1;" d="M 195.804688 292.070312 C 195.417969 293.585938 194.789062 295.050781 193.925781 296.464844 C 193.058594 297.875 191.964844 299.167969 190.652344 300.335938 C 189.402344 301.4375 188.109375 302.277344 186.773438 302.863281 C 186.796875 303.238281 186.832031 303.625 186.886719 304.023438 C 186.941406 304.421875 187.035156 304.761719 187.167969 305.050781 C 187.304688 305.339844 187.492188 305.566406 187.726562 305.734375 C 187.964844 305.902344 188.289062 305.984375 188.695312 305.984375 C 189.074219 305.984375 189.4375 305.902344 189.789062 305.742188 C 190.136719 305.578125 190.46875 305.359375 190.78125 305.082031 C 191.09375 304.804688 191.367188 304.472656 191.605469 304.085938 C 191.84375 303.699219 192.007812 303.300781 192.105469 302.894531 C 192.136719 302.757812 192.210938 302.644531 192.324219 302.550781 C 192.4375 302.457031 192.570312 302.410156 192.71875 302.40625 C 192.871094 302.410156 193.003906 302.464844 193.121094 302.578125 C 193.164062 302.664062 193.1875 302.738281 193.1875 302.800781 C 193.1875 302.863281 193.171875 302.921875 193.140625 302.972656 C 192.976562 303.683594 192.742188 304.40625 192.4375 305.144531 C 192.128906 305.882812 191.753906 306.5625 191.3125 307.183594 C 190.871094 307.804688 190.351562 308.316406 189.746094 308.714844 C 189.144531 309.113281 188.460938 309.308594 187.695312 309.308594 C 186.832031 309.308594 186.207031 309.117188 185.820312 308.730469 C 185.433594 308.34375 185.191406 307.835938 185.09375 307.207031 C 185.050781 306.925781 185.03125 306.621094 185.03125 306.296875 C 185.03125 305.964844 185.050781 305.617188 185.09375 305.261719 C 185.179688 304.550781 185.253906 303.925781 185.320312 303.378906 C 184.480469 303.652344 183.554688 303.789062 182.539062 303.789062 C 181.121094 303.789062 179.855469 303.476562 178.75 302.847656 C 177.648438 302.21875 176.769531 301.375 176.113281 300.304688 C 175.390625 299.125 174.976562 297.816406 174.867188 296.382812 C 174.824219 296.039062 174.804688 295.695312 174.804688 295.347656 C 174.804688 294.273438 174.941406 293.160156 175.222656 292.007812 C 175.632812 290.472656 176.265625 288.980469 177.121094 287.53125 C 177.976562 286.082031 179.074219 284.773438 180.40625 283.597656 C 181.59375 282.542969 182.886719 281.695312 184.292969 281.050781 C 185.699219 280.410156 187.117188 280.085938 188.550781 280.085938 C 189.972656 280.085938 191.230469 280.410156 192.324219 281.058594 C 193.417969 281.707031 194.292969 282.566406 194.949219 283.628906 C 195.667969 284.8125 196.097656 286.128906 196.226562 287.582031 C 196.246094 287.941406 196.257812 288.292969 196.257812 288.632812 C 196.257812 289.753906 196.109375 290.898438 195.804688 292.070312 Z M 192.574219 284.289062 C 192.21875 283.414062 191.6875 282.679688 190.976562 282.085938 C 190.261719 281.496094 189.382812 281.203125 188.324219 281.199219 C 187.28125 281.203125 186.242188 281.5 185.207031 282.101562 C 184.171875 282.703125 183.253906 283.449219 182.445312 284.335938 C 181.410156 285.476562 180.597656 286.710938 180.011719 288.039062 C 179.425781 289.367188 178.953125 290.710938 178.597656 292.070312 C 178.242188 293.410156 178.035156 294.734375 177.96875 296.039062 C 177.949219 296.226562 177.933594 296.417969 177.933594 296.605469 C 177.933594 297.691406 178.132812 298.707031 178.515625 299.648438 C 178.765625 300.234375 179.078125 300.757812 179.453125 301.214844 C 179.832031 301.675781 180.179688 301.972656 180.503906 302.109375 C 180.496094 302.089844 180.488281 301.933594 180.488281 301.640625 C 180.488281 301.390625 180.523438 301.132812 180.585938 300.871094 C 180.683594 300.503906 180.839844 300.152344 181.054688 299.8125 C 181.269531 299.472656 181.519531 299.167969 181.804688 298.902344 C 182.089844 298.636719 182.417969 298.421875 182.785156 298.257812 C 183.148438 298.097656 183.53125 298.015625 183.929688 298.015625 C 184.492188 298.015625 184.945312 298.121094 185.296875 298.332031 C 185.644531 298.539062 185.925781 298.804688 186.128906 299.128906 C 186.332031 299.453125 186.472656 299.828125 186.550781 300.25 C 186.625 300.675781 186.667969 301.023438 186.675781 301.292969 C 186.914062 301.136719 187.210938 300.910156 187.574219 300.605469 C 187.933594 300.300781 188.28125 299.964844 188.617188 299.597656 C 189.648438 298.480469 190.457031 297.273438 191.039062 295.96875 C 191.621094 294.667969 192.085938 293.347656 192.429688 292.007812 C 192.785156 290.640625 193.003906 289.285156 193.089844 287.945312 C 193.113281 287.746094 193.121094 287.535156 193.121094 287.316406 C 193.121094 286.25 192.941406 285.242188 192.574219 284.289062 Z M 185.480469 302 C 185.503906 301.761719 185.511719 301.5 185.511719 301.214844 L 185.511719 300.839844 C 185.492188 300.472656 185.421875 300.160156 185.304688 299.898438 C 185.183594 299.636719 185.003906 299.429688 184.761719 299.269531 C 184.519531 299.113281 184.183594 299.035156 183.753906 299.035156 C 183.289062 299.035156 182.855469 299.222656 182.449219 299.59375 C 182.046875 299.964844 181.777344 300.410156 181.636719 300.933594 C 181.59375 301.109375 181.570312 301.285156 181.570312 301.449219 C 181.570312 301.671875 181.609375 301.875 181.683594 302.0625 C 181.8125 302.386719 182.023438 302.589844 182.316406 302.675781 L 182.734375 302.675781 C 183.695312 302.675781 184.609375 302.449219 185.480469 302 Z M 185.480469 302 "/>
<path style=" stroke:none;fill-rule:evenodd;fill:rgb(0%,0%,0%);fill-opacity:1;" d="M 206.863281 301.523438 C 206.863281 302.367188 206.796875 303.207031 206.664062 304.042969 C 206.535156 304.875 206.207031 305.660156 205.6875 306.390625 C 205.3125 306.925781 204.816406 307.335938 204.199219 307.621094 C 203.574219 307.90625 202.898438 308.050781 202.171875 308.050781 C 201.46875 308.050781 200.804688 307.90625 200.179688 307.621094 C 199.554688 307.335938 199.058594 306.925781 198.683594 306.390625 C 198.167969 305.660156 197.839844 304.875 197.707031 304.042969 C 197.578125 303.207031 197.511719 302.367188 197.511719 301.523438 C 197.511719 300.671875 197.578125 299.816406 197.707031 298.964844 C 197.839844 298.113281 198.167969 297.3125 198.683594 296.570312 C 199.058594 296.03125 199.554688 295.613281 200.175781 295.316406 C 200.796875 295.015625 201.460938 294.867188 202.171875 294.867188 C 202.894531 294.867188 203.566406 295.015625 204.191406 295.316406 C 204.816406 295.613281 205.3125 296.03125 205.6875 296.570312 C 206.207031 297.3125 206.535156 298.113281 206.664062 298.964844 C 206.796875 299.816406 206.863281 300.671875 206.863281 301.523438 Z M 204.855469 301.21875 C 204.855469 300.847656 204.851562 300.460938 204.84375 300.050781 C 204.839844 299.640625 204.820312 299.238281 204.792969 298.847656 C 204.769531 298.453125 204.71875 298.082031 204.648438 297.734375 C 204.578125 297.386719 204.492188 297.089844 204.390625 296.84375 C 204.1875 296.445312 203.890625 296.117188 203.5 295.863281 C 203.105469 295.609375 202.664062 295.480469 202.171875 295.480469 C 201.691406 295.480469 201.257812 295.613281 200.867188 295.867188 C 200.480469 296.125 200.183594 296.449219 199.984375 296.84375 C 199.882812 297.089844 199.796875 297.386719 199.726562 297.734375 C 199.65625 298.082031 199.601562 298.453125 199.578125 298.847656 C 199.550781 299.238281 199.53125 299.640625 199.527344 300.050781 C 199.519531 300.460938 199.515625 300.847656 199.515625 301.21875 C 199.515625 301.628906 199.519531 302.058594 199.527344 302.511719 C 199.53125 302.96875 199.550781 303.40625 199.578125 303.832031 C 199.601562 304.257812 199.65625 304.660156 199.726562 305.039062 C 199.796875 305.417969 199.882812 305.738281 199.984375 305.996094 C 200.171875 306.425781 200.464844 306.777344 200.859375 307.050781 C 201.253906 307.324219 201.691406 307.464844 202.171875 307.464844 C 202.667969 307.464844 203.121094 307.324219 203.511719 307.050781 C 203.90625 306.777344 204.199219 306.425781 204.390625 305.996094 C 204.492188 305.738281 204.578125 305.417969 204.648438 305.039062 C 204.71875 304.660156 204.769531 304.257812 204.792969 303.832031 C 204.820312 303.40625 204.839844 302.96875 204.84375 302.511719 C 204.851562 302.058594 204.855469 301.628906 204.855469 301.21875 Z M 204.855469 301.21875 "/>
<path style=" stroke:none;fill-rule:evenodd;fill:rgb(0%,0%,0%);fill-opacity:1;" d="M 213.730469 296.492188 C 213.671875 296.714844 213.53125 296.902344 213.3125 297.050781 C 213.09375 297.199219 212.855469 297.273438 212.597656 297.273438 C 212.328125 297.273438 212.121094 297.191406 211.980469 297.027344 C 211.882812 296.933594 211.835938 296.820312 211.828125 296.683594 C 211.828125 296.601562 211.839844 296.519531 211.867188 296.4375 C 211.929688 296.214844 212.070312 296.03125 212.292969 295.882812 C 212.515625 295.734375 212.753906 295.65625 213.011719 295.65625 C 213.285156 295.65625 213.488281 295.738281 213.632812 295.894531 C 213.726562 296.003906 213.773438 296.125 213.773438 296.253906 C 213.773438 296.335938 213.757812 296.414062 213.730469 296.492188 Z M 213.84375 305.011719 C 213.769531 305.316406 213.65625 305.636719 213.5 305.972656 C 213.34375 306.3125 213.152344 306.617188 212.925781 306.890625 C 212.699219 307.167969 212.4375 307.398438 212.132812 307.582031 C 211.828125 307.765625 211.476562 307.859375 211.078125 307.859375 C 210.738281 307.859375 210.449219 307.792969 210.207031 307.664062 C 209.964844 307.535156 209.777344 307.367188 209.644531 307.15625 C 209.511719 306.945312 209.445312 306.710938 209.445312 306.453125 C 209.433594 306.441406 209.425781 306.417969 209.425781 306.382812 C 209.425781 306.121094 209.492188 305.851562 209.617188 305.574219 L 211.261719 301.710938 C 211.460938 301.222656 211.566406 300.824219 211.566406 300.515625 C 211.566406 300.25 211.4375 300.121094 211.191406 300.117188 C 210.960938 300.121094 210.753906 300.179688 210.570312 300.296875 C 210.386719 300.414062 210.222656 300.574219 210.070312 300.78125 C 209.917969 300.992188 209.78125 301.238281 209.660156 301.519531 C 209.539062 301.804688 209.4375 302.109375 209.355469 302.429688 C 209.28125 302.589844 209.15625 302.671875 208.980469 302.675781 L 208.757812 302.675781 C 208.597656 302.675781 208.515625 302.601562 208.515625 302.457031 L 208.515625 302.394531 C 208.597656 302.074219 208.71875 301.742188 208.878906 301.40625 C 209.042969 301.070312 209.238281 300.765625 209.46875 300.488281 C 209.699219 300.214844 209.964844 299.984375 210.265625 299.804688 C 210.570312 299.621094 210.917969 299.53125 211.3125 299.53125 C 211.648438 299.53125 211.933594 299.597656 212.171875 299.722656 C 212.410156 299.851562 212.589844 300.023438 212.714844 300.238281 C 212.839844 300.453125 212.910156 300.695312 212.921875 300.960938 L 212.921875 301.023438 C 212.921875 301.277344 212.863281 301.535156 212.75 301.804688 L 211.109375 305.6875 C 210.917969 306.164062 210.824219 306.566406 210.824219 306.902344 C 210.808594 306.914062 210.804688 306.914062 210.804688 306.902344 C 210.804688 307.152344 210.933594 307.277344 211.191406 307.277344 C 211.417969 307.277344 211.625 307.21875 211.8125 307.09375 C 211.996094 306.972656 212.167969 306.808594 212.320312 306.601562 C 212.46875 306.398438 212.605469 306.152344 212.71875 305.863281 C 212.835938 305.578125 212.9375 305.277344 213.03125 304.960938 C 213.074219 304.808594 213.191406 304.730469 213.386719 304.730469 L 213.609375 304.730469 C 213.683594 304.730469 213.757812 304.75 213.835938 304.792969 C 213.851562 304.839844 213.871094 304.878906 213.886719 304.914062 C 213.886719 304.949219 213.871094 304.984375 213.84375 305.011719 Z M 213.84375 305.011719 "/>
<path style=" stroke:none;fill-rule:evenodd;fill:rgb(0%,0%,0%);fill-opacity:1;" d="M 200.628906 242.25 C 200.664062 242.324219 200.675781 242.390625 200.675781 242.453125 C 200.675781 242.535156 200.65625 242.597656 200.613281 242.640625 C 200.550781 242.765625 200.425781 242.828125 200.242188 242.828125 L 176.332031 242.828125 C 176.15625 242.828125 176.035156 242.765625 175.957031 242.640625 C 175.914062 242.597656 175.894531 242.535156 175.894531 242.453125 C 175.894531 242.390625 175.910156 242.324219 175.941406 242.25 L 187.398438 219.925781 C 187.539062 219.625 187.785156 219.476562 188.140625 219.488281 L 188.429688 219.488281 C 188.765625 219.488281 189.011719 219.628906 189.175781 219.910156 Z M 187.316406 223 L 178.460938 240.242188 L 196.15625 240.242188 Z M 187.316406 223 "/>
<path style=" stroke:none;fill-rule:evenodd;fill:rgb(0%,0%,0%);fill-opacity:1;" d="M 226.117188 231.847656 C 225.730469 233.367188 225.101562 234.828125 224.238281 236.242188 C 223.371094 237.652344 222.277344 238.945312 220.964844 240.113281 C 219.714844 241.214844 218.421875 242.054688 217.085938 242.640625 C 217.109375 243.015625 217.144531 243.40625 217.199219 243.800781 C 217.253906 244.199219 217.347656 244.542969 217.480469 244.828125 C 217.617188 245.117188 217.804688 245.34375 218.039062 245.511719 C 218.277344 245.679688 218.601562 245.761719 219.011719 245.761719 C 219.386719 245.761719 219.75 245.683594 220.101562 245.519531 C 220.449219 245.355469 220.78125 245.136719 221.09375 244.859375 C 221.40625 244.582031 221.679688 244.25 221.917969 243.863281 C 222.15625 243.476562 222.320312 243.078125 222.417969 242.671875 C 222.453125 242.535156 222.523438 242.421875 222.636719 242.328125 C 222.75 242.234375 222.882812 242.1875 223.035156 242.1875 C 223.183594 242.1875 223.320312 242.246094 223.4375 242.359375 C 223.480469 242.441406 223.503906 242.515625 223.503906 242.578125 C 223.503906 242.640625 223.484375 242.699219 223.453125 242.75 C 223.292969 243.460938 223.058594 244.1875 222.75 244.921875 C 222.441406 245.660156 222.066406 246.339844 221.625 246.960938 C 221.1875 247.585938 220.664062 248.09375 220.0625 248.492188 C 219.457031 248.890625 218.773438 249.085938 218.007812 249.085938 C 217.144531 249.085938 216.519531 248.894531 216.132812 248.507812 C 215.746094 248.121094 215.503906 247.613281 215.40625 246.984375 C 215.363281 246.703125 215.34375 246.402344 215.34375 246.074219 C 215.34375 245.742188 215.363281 245.398438 215.40625 245.039062 C 215.492188 244.328125 215.570312 243.703125 215.632812 243.160156 C 214.792969 243.429688 213.867188 243.566406 212.855469 243.566406 C 211.433594 243.566406 210.167969 243.253906 209.066406 242.625 C 207.960938 242 207.082031 241.152344 206.425781 240.082031 C 205.703125 238.902344 205.289062 237.59375 205.179688 236.160156 C 205.136719 235.816406 205.117188 235.472656 205.117188 235.128906 C 205.117188 234.050781 205.253906 232.9375 205.535156 231.785156 C 205.945312 230.25 206.578125 228.757812 207.433594 227.308594 C 208.292969 225.859375 209.386719 224.550781 210.71875 223.378906 C 211.90625 222.320312 213.199219 221.472656 214.605469 220.832031 C 216.015625 220.1875 217.429688 219.863281 218.863281 219.863281 C 220.285156 219.863281 221.542969 220.1875 222.636719 220.835938 C 223.730469 221.488281 224.605469 222.34375 225.261719 223.410156 C 225.984375 224.589844 226.410156 225.910156 226.539062 227.363281 C 226.558594 227.71875 226.570312 228.070312 226.570312 228.414062 C 226.570312 229.535156 226.421875 230.679688 226.117188 231.847656 Z M 222.886719 224.066406 C 222.53125 223.191406 222 222.457031 221.289062 221.867188 C 220.578125 221.277344 219.695312 220.980469 218.636719 220.976562 C 217.59375 220.980469 216.554688 221.28125 215.519531 221.882812 C 214.484375 222.480469 213.566406 223.226562 212.757812 224.113281 C 211.722656 225.257812 210.914062 226.492188 210.328125 227.816406 C 209.738281 229.144531 209.265625 230.492188 208.910156 231.847656 C 208.554688 233.1875 208.347656 234.511719 208.28125 235.816406 C 208.261719 236.003906 208.25 236.195312 208.25 236.382812 C 208.25 237.46875 208.445312 238.484375 208.832031 239.425781 C 209.078125 240.011719 209.390625 240.535156 209.769531 240.996094 C 210.144531 241.457031 210.496094 241.753906 210.820312 241.886719 C 210.808594 241.867188 210.800781 241.710938 210.800781 241.417969 C 210.800781 241.167969 210.835938 240.910156 210.898438 240.648438 C 210.996094 240.285156 211.152344 239.929688 211.367188 239.589844 C 211.582031 239.25 211.832031 238.949219 212.117188 238.679688 C 212.402344 238.414062 212.730469 238.199219 213.097656 238.039062 C 213.464844 237.875 213.84375 237.792969 214.242188 237.792969 C 214.804688 237.792969 215.257812 237.898438 215.609375 238.109375 C 215.957031 238.316406 216.238281 238.585938 216.441406 238.910156 C 216.644531 239.234375 216.785156 239.605469 216.863281 240.03125 C 216.9375 240.453125 216.980469 240.800781 216.988281 241.070312 C 217.226562 240.917969 217.523438 240.6875 217.886719 240.382812 C 218.246094 240.078125 218.59375 239.746094 218.929688 239.378906 C 219.960938 238.261719 220.769531 237.050781 221.351562 235.746094 C 221.933594 234.445312 222.398438 233.125 222.742188 231.785156 C 223.097656 230.417969 223.316406 229.0625 223.402344 227.722656 C 223.425781 227.523438 223.4375 227.316406 223.4375 227.09375 C 223.4375 226.03125 223.253906 225.019531 222.886719 224.066406 Z M 215.792969 241.777344 C 215.816406 241.539062 215.828125 241.277344 215.828125 240.992188 L 215.828125 240.617188 C 215.804688 240.253906 215.734375 239.9375 215.617188 239.675781 C 215.5 239.417969 215.316406 239.207031 215.078125 239.050781 C 214.832031 238.890625 214.496094 238.8125 214.066406 238.8125 C 213.605469 238.8125 213.167969 239 212.765625 239.371094 C 212.363281 239.742188 212.089844 240.191406 211.949219 240.710938 C 211.90625 240.890625 211.882812 241.0625 211.882812 241.230469 C 211.882812 241.449219 211.921875 241.652344 211.996094 241.839844 C 212.125 242.167969 212.339844 242.371094 212.628906 242.453125 L 213.046875 242.453125 C 214.007812 242.453125 214.921875 242.230469 215.792969 241.777344 Z M 215.792969 241.777344 "/>
<path style=" stroke:none;fill-rule:evenodd;fill:rgb(0%,0%,0%);fill-opacity:1;" d="M 233.25 236.269531 C 233.191406 236.492188 233.050781 236.679688 232.828125 236.828125 C 232.609375 236.976562 232.371094 237.050781 232.113281 237.050781 C 231.84375 237.050781 231.636719 236.972656 231.496094 236.804688 C 231.402344 236.710938 231.351562 236.597656 231.34375 236.460938 C 231.34375 236.378906 231.359375 236.300781 231.382812 236.214844 C 231.445312 235.996094 231.585938 235.808594 231.8125 235.660156 C 232.035156 235.511719 232.273438 235.433594 232.53125 235.433594 C 232.800781 235.433594 233.007812 235.515625 233.148438 235.671875 C 233.242188 235.785156 233.289062 235.902344 233.289062 236.035156 C 233.289062 236.113281 233.277344 236.191406 233.25 236.269531 Z M 233.359375 244.789062 C 233.289062 245.09375 233.171875 245.417969 233.015625 245.753906 C 232.863281 246.089844 232.667969 246.394531 232.445312 246.671875 C 232.21875 246.945312 231.953125 247.175781 231.648438 247.359375 C 231.347656 247.542969 230.992188 247.636719 230.59375 247.636719 C 230.257812 247.636719 229.96875 247.570312 229.726562 247.441406 C 229.480469 247.316406 229.292969 247.144531 229.160156 246.933594 C 229.03125 246.722656 228.964844 246.488281 228.964844 246.230469 C 228.949219 246.21875 228.941406 246.195312 228.941406 246.160156 C 228.941406 245.898438 229.007812 245.628906 229.136719 245.351562 L 230.777344 241.488281 C 230.980469 241.003906 231.082031 240.601562 231.082031 240.292969 C 231.082031 240.03125 230.957031 239.898438 230.707031 239.898438 C 230.476562 239.898438 230.269531 239.957031 230.089844 240.074219 C 229.90625 240.191406 229.738281 240.355469 229.589844 240.5625 C 229.433594 240.769531 229.296875 241.015625 229.175781 241.300781 C 229.054688 241.582031 228.953125 241.886719 228.871094 242.207031 C 228.800781 242.367188 228.675781 242.449219 228.496094 242.453125 L 228.277344 242.453125 C 228.113281 242.453125 228.03125 242.382812 228.03125 242.234375 L 228.03125 242.171875 C 228.113281 241.851562 228.234375 241.523438 228.398438 241.183594 C 228.558594 240.847656 228.753906 240.542969 228.984375 240.265625 C 229.214844 239.992188 229.480469 239.761719 229.785156 239.582031 C 230.089844 239.402344 230.4375 239.308594 230.828125 239.308594 C 231.167969 239.308594 231.453125 239.375 231.691406 239.503906 C 231.925781 239.632812 232.105469 239.804688 232.230469 240.015625 C 232.355469 240.230469 232.425781 240.472656 232.441406 240.742188 L 232.441406 240.800781 C 232.441406 241.054688 232.382812 241.316406 232.265625 241.585938 L 230.625 245.464844 C 230.4375 245.941406 230.34375 246.34375 230.34375 246.679688 C 230.328125 246.691406 230.320312 246.691406 230.320312 246.679688 C 230.320312 246.929688 230.449219 247.058594 230.707031 247.054688 C 230.9375 247.058594 231.144531 246.996094 231.328125 246.871094 C 231.515625 246.75 231.683594 246.585938 231.835938 246.378906 C 231.988281 246.175781 232.121094 245.929688 232.238281 245.644531 C 232.351562 245.355469 232.457031 245.054688 232.550781 244.738281 C 232.589844 244.585938 232.710938 244.511719 232.902344 244.507812 L 233.128906 244.507812 C 233.203125 244.511719 233.277344 244.53125 233.347656 244.570312 C 233.371094 244.617188 233.386719 244.660156 233.402344 244.695312 C 233.402344 244.730469 233.386719 244.761719 233.359375 244.789062 Z M 233.359375 244.789062 "/>
<path style=" stroke:none;fill-rule:nonzero;fill:rgb(0%,0%,0%);fill-opacity:1;" d="M 324.820312 273.417969 L 278.574219 273.417969 L 278.574219 271.019531 L 324.820312 271.019531 C 325.480469 271.019531 326.019531 271.558594 326.019531 272.21875 C 326.019531 272.882812 325.480469 273.417969 324.820312 273.417969 Z M 264.203125 272.21875 L 278.585938 277.011719 L 278.585938 267.421875 Z M 264.203125 272.21875 "/>
<g clip-path="url(#clip1)" clip-rule="nonzero">
<g clip-path="url(#clip2)" clip-rule="nonzero">
<path style=" stroke:none;fill-rule:evenodd;fill:rgb(0%,0%,0%);fill-opacity:1;" d="M 297.105469 258.800781 C 297.136719 258.878906 297.152344 258.945312 297.152344 259.007812 C 297.152344 259.089844 297.132812 259.152344 297.089844 259.195312 C 297.023438 259.320312 296.902344 259.382812 296.71875 259.382812 L 272.804688 259.382812 C 272.632812 259.382812 272.511719 259.320312 272.433594 259.195312 C 272.390625 259.152344 272.371094 259.089844 272.371094 259.007812 C 272.371094 258.945312 272.386719 258.878906 272.417969 258.800781 L 283.875 236.480469 C 284.011719 236.179688 284.261719 236.03125 284.617188 236.042969 L 284.90625 236.042969 C 285.242188 236.042969 285.488281 236.183594 285.648438 236.464844 Z M 283.792969 239.554688 L 274.9375 256.792969 L 292.632812 256.792969 Z M 283.792969 239.554688 "/>
</g>
</g>
<g clip-path="url(#clip3)" clip-rule="nonzero">
<g clip-path="url(#clip4)" clip-rule="nonzero">
<path style=" stroke:none;fill-rule:evenodd;fill:rgb(0%,0%,0%);fill-opacity:1;" d="M 330.523438 237.96875 C 330.402344 238.285156 330.199219 238.445312 329.910156 238.441406 C 329.261719 238.445312 328.695312 238.597656 328.210938 238.914062 C 327.910156 239.113281 327.648438 239.347656 327.417969 239.621094 C 327.195312 239.894531 327 240.1875 326.835938 240.511719 L 316.082031 259.679688 C 315.941406 259.984375 315.691406 260.132812 315.339844 260.121094 L 315.078125 260.121094 C 314.703125 260.121094 314.515625 259.953125 314.515625 259.617188 L 313.789062 243.695312 L 304.835938 259.695312 C 304.675781 259.988281 304.429688 260.132812 304.097656 260.121094 L 303.804688 260.121094 C 303.503906 260.121094 303.3125 259.957031 303.238281 259.632812 L 302.320312 239.554688 C 302.296875 239.273438 302.273438 239.066406 302.246094 238.929688 C 302.21875 238.792969 302.160156 238.691406 302.074219 238.628906 C 301.949219 238.546875 301.742188 238.496094 301.453125 238.472656 C 301.167969 238.453125 300.828125 238.445312 300.429688 238.441406 C 300.160156 238.445312 300.011719 238.300781 299.992188 238.015625 L 299.992188 237.910156 L 300.058594 237.625 C 300.175781 237.3125 300.386719 237.15625 300.6875 237.15625 C 301.699219 237.21875 302.726562 237.25 303.773438 237.25 C 303.933594 237.25 304.101562 237.238281 304.273438 237.21875 C 305.480469 237.21875 306.703125 237.199219 307.941406 237.15625 C 308.21875 237.15625 308.359375 237.296875 308.359375 237.578125 L 308.359375 237.6875 L 308.296875 237.96875 C 308.175781 238.285156 307.964844 238.445312 307.664062 238.441406 C 307.265625 238.445312 306.910156 238.457031 306.601562 238.492188 C 306.285156 238.519531 305.984375 238.601562 305.695312 238.738281 C 305.4375 238.875 305.3125 239.074219 305.324219 239.335938 L 306.050781 254.992188 L 313.65625 241.359375 L 313.59375 239.554688 C 313.574219 239.273438 313.546875 239.066406 313.519531 238.929688 C 313.492188 238.792969 313.433594 238.691406 313.335938 238.628906 C 313.207031 238.546875 312.996094 238.496094 312.703125 238.472656 C 312.414062 238.453125 312.082031 238.445312 311.703125 238.441406 C 311.542969 238.445312 311.425781 238.390625 311.347656 238.285156 C 311.285156 238.222656 311.25 238.144531 311.25 238.050781 C 311.25 237.988281 311.265625 237.929688 311.300781 237.875 L 311.347656 237.640625 C 311.414062 237.320312 311.621094 237.15625 311.976562 237.15625 C 312.992188 237.21875 314.011719 237.25 315.046875 237.25 C 315.1875 237.25 315.347656 237.238281 315.53125 237.21875 C 316.738281 237.21875 317.953125 237.199219 319.179688 237.15625 C 319.332031 237.15625 319.460938 237.207031 319.570312 237.3125 C 319.613281 237.398438 319.636719 237.472656 319.636719 237.546875 C 319.636719 237.609375 319.617188 237.671875 319.585938 237.71875 L 319.535156 237.957031 C 319.503906 238.09375 319.433594 238.207031 319.320312 238.300781 C 319.207031 238.394531 319.074219 238.445312 318.921875 238.441406 C 318.546875 238.445312 318.195312 238.457031 317.867188 238.492188 C 317.539062 238.519531 317.234375 238.601562 316.953125 238.738281 C 316.714844 238.875 316.597656 239.085938 316.597656 239.367188 L 317.289062 254.992188 L 325.628906 240.167969 C 325.746094 239.957031 325.804688 239.769531 325.804688 239.601562 C 325.804688 239.40625 325.726562 239.210938 325.5625 239.019531 C 325.414062 238.804688 325.199219 238.652344 324.925781 238.566406 C 324.652344 238.484375 324.332031 238.445312 323.980469 238.441406 C 323.816406 238.445312 323.699219 238.390625 323.625 238.285156 C 323.558594 238.222656 323.527344 238.144531 323.527344 238.050781 C 323.527344 237.988281 323.542969 237.929688 323.574219 237.875 L 323.625 237.640625 C 323.660156 237.507812 323.730469 237.390625 323.84375 237.296875 C 323.957031 237.203125 324.089844 237.15625 324.238281 237.15625 C 324.789062 237.179688 325.34375 237.1875 325.902344 237.1875 C 326.453125 237.1875 327 237.199219 327.550781 237.21875 L 328.839844 237.21875 C 329.285156 237.21875 329.726562 237.199219 330.167969 237.15625 C 330.445312 237.15625 330.585938 237.296875 330.585938 237.578125 L 330.585938 237.6875 Z M 330.523438 237.96875 "/>
</g>
</g>
<g clip-path="url(#clip5)" clip-rule="nonzero">
<g clip-path="url(#clip6)" clip-rule="nonzero">
<path style=" stroke:none;fill-rule:evenodd;fill:rgb(0%,0%,0%);fill-opacity:1;" d="M 333.410156 252.824219 C 333.347656 253.046875 333.210938 253.234375 332.988281 253.382812 C 332.769531 253.53125 332.53125 253.605469 332.273438 253.605469 C 332.003906 253.605469 331.800781 253.523438 331.65625 253.359375 C 331.5625 253.265625 331.511719 253.152344 331.503906 253.015625 C 331.503906 252.933594 331.515625 252.855469 331.546875 252.769531 C 331.605469 252.550781 331.746094 252.363281 331.972656 252.214844 C 332.191406 252.066406 332.433594 251.988281 332.691406 251.988281 C 332.960938 251.988281 333.167969 252.070312 333.308594 252.226562 C 333.402344 252.339844 333.449219 252.457031 333.449219 252.585938 C 333.449219 252.667969 333.4375 252.746094 333.410156 252.824219 Z M 333.519531 261.34375 C 333.449219 261.648438 333.332031 261.96875 333.175781 262.308594 C 333.023438 262.644531 332.832031 262.949219 332.605469 263.226562 C 332.378906 263.5 332.113281 263.730469 331.808594 263.914062 C 331.503906 264.097656 331.152344 264.191406 330.753906 264.191406 C 330.417969 264.191406 330.128906 264.125 329.882812 263.996094 C 329.640625 263.867188 329.453125 263.699219 329.324219 263.488281 C 329.191406 263.277344 329.125 263.042969 329.125 262.785156 C 329.109375 262.773438 329.101562 262.75 329.101562 262.714844 C 329.101562 262.453125 329.167969 262.183594 329.296875 261.90625 L 330.9375 258.042969 C 331.140625 257.554688 331.242188 257.15625 331.242188 256.847656 C 331.242188 256.582031 331.117188 256.453125 330.867188 256.453125 C 330.636719 256.453125 330.429688 256.511719 330.25 256.628906 C 330.066406 256.746094 329.898438 256.90625 329.746094 257.117188 C 329.59375 257.324219 329.460938 257.570312 329.335938 257.851562 C 329.214844 258.136719 329.113281 258.441406 329.03125 258.761719 C 328.957031 258.921875 328.835938 259.003906 328.65625 259.007812 L 328.4375 259.007812 C 328.273438 259.007812 328.191406 258.933594 328.191406 258.789062 L 328.191406 258.726562 C 328.273438 258.40625 328.394531 258.074219 328.558594 257.738281 C 328.71875 257.402344 328.914062 257.097656 329.144531 256.820312 C 329.375 256.546875 329.640625 256.316406 329.945312 256.136719 C 330.25 255.953125 330.597656 255.863281 330.988281 255.863281 C 331.324219 255.863281 331.613281 255.929688 331.851562 256.058594 C 332.085938 256.1875 332.269531 256.355469 332.390625 256.570312 C 332.515625 256.785156 332.585938 257.027344 332.601562 257.292969 L 332.601562 257.355469 C 332.601562 257.609375 332.542969 257.867188 332.425781 258.136719 L 330.785156 262.019531 C 330.597656 262.496094 330.5 262.898438 330.5 263.234375 C 330.488281 263.246094 330.480469 263.246094 330.480469 263.234375 C 330.480469 263.484375 330.609375 263.613281 330.867188 263.609375 C 331.09375 263.613281 331.304688 263.550781 331.488281 263.425781 C 331.675781 263.304688 331.84375 263.140625 331.996094 262.933594 C 332.148438 262.730469 332.28125 262.484375 332.394531 262.195312 C 332.511719 261.910156 332.613281 261.609375 332.710938 261.292969 C 332.75 261.140625 332.867188 261.0625 333.066406 261.0625 L 333.289062 261.0625 C 333.363281 261.0625 333.4375 261.085938 333.511719 261.125 C 333.53125 261.171875 333.546875 261.214844 333.5625 261.246094 C 333.5625 261.285156 333.546875 261.316406 333.519531 261.34375 Z M 333.519531 261.34375 "/>
</g>
</g>
<path style=" stroke:none;fill-rule:nonzero;fill:rgb(0%,0%,0%);fill-opacity:1;" d="M 394.097656 235.210938 L 394.097656 251.921875 L 391.699219 251.921875 L 391.699219 235.210938 C 391.699219 234.546875 392.238281 234.011719 392.898438 234.011719 C 393.5625 234.011719 394.097656 234.546875 394.097656 235.210938 Z M 392.898438 266.292969 L 397.691406 251.910156 L 388.101562 251.910156 Z M 392.898438 266.292969 "/>
<path style="fill-rule:evenodd;fill:rgb(11.799622%,85.099792%,54.499817%);fill-opacity:0.39216;stroke-width:15;stroke-linecap:round;stroke-linejoin:round;stroke:rgb(0%,0%,0%);stroke-opacity:1;stroke-miterlimit:10;" d="M 3403.146315 1510.347176 C 3403.146315 1541.068313 3428.03898 1565.960499 3458.760709 1565.960499 L 3916.067202 1565.960499 C 3946.78893 1565.960499 3971.681596 1541.068313 3971.681596 1510.347176 L 3971.681596 1399.120529 C 3971.681596 1368.436052 3946.78893 1343.507206 3916.067202 1343.507206 L 3458.760709 1343.507206 C 3428.03898 1343.507206 3403.146315 1368.436052 3403.146315 1399.120529 Z M 3403.146315 1510.347176 " transform="matrix(0.106551,0,0,-0.106553,0,432.1668)"/>
<path style=" stroke:none;fill-rule:nonzero;fill:rgb(0%,0%,0%);fill-opacity:1;" d="M 394.097656 289.011719 L 394.097656 310.464844 L 391.699219 310.464844 L 391.699219 289.011719 C 391.699219 288.347656 392.238281 287.8125 392.898438 287.8125 C 393.5625 287.8125 394.097656 288.347656 394.097656 289.011719 Z M 392.898438 324.835938 L 397.691406 310.449219 L 388.101562 310.449219 Z M 392.898438 324.835938 "/>
<path style=" stroke:none;fill-rule:nonzero;fill:rgb(0%,0%,0%);fill-opacity:1;" d="M 424.582031 275.960938 L 459.214844 275.960938 L 459.214844 278.359375 L 424.582031 278.359375 C 423.917969 278.359375 423.382812 277.820312 423.382812 277.160156 C 423.382812 276.496094 423.917969 275.960938 424.582031 275.960938 Z M 473.582031 277.160156 L 459.199219 272.363281 L 459.199219 281.953125 Z M 473.582031 277.160156 "/>
<path style=" stroke:none;fill-rule:evenodd;fill:rgb(0%,0%,0%);fill-opacity:1;" d="M 398.714844 196.667969 C 398.585938 197.078125 398.355469 197.414062 398.019531 197.679688 C 397.6875 197.949219 397.308594 198.082031 396.890625 198.078125 C 396.460938 198.082031 396.128906 197.933594 395.902344 197.640625 C 395.753906 197.472656 395.675781 197.25 395.675781 196.96875 C 395.675781 196.851562 395.6875 196.734375 395.710938 196.605469 C 395.828125 196.199219 396.0625 195.863281 396.414062 195.59375 C 396.761719 195.328125 397.140625 195.195312 397.550781 195.195312 C 397.984375 195.195312 398.3125 195.335938 398.539062 195.617188 C 398.667969 195.816406 398.738281 196.054688 398.746094 196.324219 C 398.746094 196.4375 398.738281 196.554688 398.714844 196.667969 Z M 394.273438 218.269531 C 394.089844 218.925781 393.800781 219.5625 393.40625 220.167969 C 393.015625 220.773438 392.546875 221.308594 392.003906 221.765625 C 391.457031 222.226562 390.855469 222.589844 390.199219 222.847656 C 389.542969 223.109375 388.875 223.242188 388.199219 223.242188 C 387.808594 223.242188 387.433594 223.1875 387.066406 223.085938 C 386.703125 222.980469 386.386719 222.824219 386.121094 222.621094 C 385.859375 222.417969 385.671875 222.152344 385.5625 221.828125 C 385.488281 221.664062 385.453125 221.46875 385.449219 221.25 C 385.453125 221.113281 385.472656 220.949219 385.515625 220.761719 C 385.636719 220.292969 385.882812 219.941406 386.257812 219.710938 C 386.636719 219.484375 387.003906 219.367188 387.355469 219.367188 C 387.734375 219.367188 388.050781 219.488281 388.308594 219.726562 C 388.492188 219.90625 388.585938 220.136719 388.585938 220.417969 C 388.585938 220.535156 388.5625 220.675781 388.519531 220.839844 C 388.425781 221.1875 388.25 221.472656 387.996094 221.695312 C 387.742188 221.921875 387.589844 222.042969 387.535156 222.066406 C 387.65625 222.136719 387.929688 222.179688 388.359375 222.191406 C 388.746094 222.191406 389.117188 222.082031 389.464844 221.867188 C 389.816406 221.65625 390.148438 221.367188 390.46875 221.007812 C 390.785156 220.644531 391.058594 220.226562 391.292969 219.742188 C 391.523438 219.261719 391.703125 218.75 391.832031 218.207031 L 394.949219 206.050781 C 395.121094 205.371094 395.210938 204.785156 395.210938 204.292969 L 395.210938 203.914062 C 395.15625 203.414062 394.902344 203.164062 394.449219 203.164062 C 394.039062 203.164062 393.652344 203.277344 393.285156 203.5 C 392.917969 203.726562 392.574219 204.03125 392.253906 204.410156 C 391.929688 204.792969 391.636719 205.238281 391.371094 205.742188 C 391.109375 206.253906 390.867188 206.78125 390.652344 207.335938 C 390.546875 207.585938 390.363281 207.71875 390.101562 207.726562 L 389.730469 207.726562 C 389.496094 207.699219 389.367188 207.566406 389.34375 207.335938 L 389.34375 207.210938 C 389.570312 206.613281 389.851562 206.011719 390.191406 205.398438 C 390.53125 204.785156 390.921875 204.242188 391.363281 203.757812 C 391.804688 203.28125 392.296875 202.882812 392.832031 202.578125 C 393.371094 202.265625 393.964844 202.113281 394.609375 202.113281 C 395.171875 202.113281 395.65625 202.21875 396.066406 202.433594 C 396.476562 202.648438 396.804688 202.941406 397.050781 203.3125 C 397.300781 203.683594 397.453125 204.109375 397.519531 204.589844 L 397.519531 205.027344 C 397.519531 205.386719 397.476562 205.746094 397.390625 206.113281 Z M 394.273438 218.269531 "/>
<path style=" stroke:none;fill-rule:nonzero;fill:rgb(0%,0%,0%);fill-opacity:1;" d="M 372.84375 56.492188 L 356.859375 51.695312 L 360.058594 55.691406 L 360.058594 57.289062 L 356.859375 61.285156 Z M 372.84375 56.492188 "/>
</g>
</svg>
