<?xml version="1.0" encoding="UTF-8"?>
<svg xmlns="http://www.w3.org/2000/svg" xmlns:xlink="http://www.w3.org/1999/xlink" width="467.04pt" height="330.96pt" viewBox="0 0 467.04 330.96" version="1.1">
<g id="surface1">
<path style=" stroke:none;fill-rule:nonzero;fill:rgb(0%,0%,0%);fill-opacity:1;" d="M 54.253906 287.203125 L 436.039062 287.203125 L 436.039062 288.554688 L 54.253906 288.554688 C 53.882812 288.554688 53.578125 288.25 53.578125 287.878906 C 53.578125 287.507812 53.882812 287.203125 54.253906 287.203125 Z M 454.898438 287.878906 L 436.019531 282.484375 L 436.019531 293.273438 Z M 454.898438 287.878906 "/>
<path style=" stroke:none;fill-rule:nonzero;fill:rgb(0%,0%,0%);fill-opacity:1;" d="M 53.578125 287.878906 L 53.578125 38.433594 L 54.925781 38.433594 L 54.925781 287.878906 C 54.925781 288.25 54.625 288.554688 54.253906 288.554688 C 53.882812 288.554688 53.578125 288.25 53.578125 287.878906 Z M 54.253906 19.570312 L 48.859375 38.449219 L 59.648438 38.449219 Z M 54.253906 19.570312 "/>
<path style=" stroke:none;fill-rule:evenodd;fill:rgb(0%,0%,0%);fill-opacity:1;" d="M 40.75 43.589844 C 40.484375 44.542969 40.03125 45.425781 39.390625 46.230469 C 38.746094 47.035156 37.980469 47.730469 37.097656 48.320312 C 36.140625 48.976562 35.121094 49.476562 34.035156 49.8125 C 32.953125 50.148438 31.875 50.3125 30.808594 50.3125 L 25.410156 50.3125 L 23.136719 59.136719 C 23.066406 59.398438 23.03125 59.601562 23.03125 59.753906 C 23.03125 59.898438 23.058594 59.984375 23.121094 60.019531 C 23.289062 60.128906 23.625 60.1875 24.121094 60.207031 C 24.617188 60.222656 25.152344 60.234375 25.71875 60.230469 C 26.058594 60.234375 26.230469 60.398438 26.230469 60.726562 L 26.230469 60.847656 L 26.15625 61.167969 C 26.023438 61.519531 25.785156 61.695312 25.445312 61.695312 C 23.933594 61.625 22.410156 61.589844 20.886719 61.589844 C 19.347656 61.589844 17.808594 61.625 16.269531 61.695312 C 15.941406 61.695312 15.765625 61.542969 15.742188 61.238281 L 15.742188 61.097656 L 15.8125 60.796875 C 15.910156 60.410156 16.148438 60.21875 16.523438 60.230469 C 17.09375 60.234375 17.632812 60.222656 18.140625 60.207031 C 18.648438 60.1875 19.023438 60.128906 19.265625 60.019531 C 19.496094 59.890625 19.671875 59.574219 19.792969 59.066406 L 24.902344 39.175781 C 24.976562 38.921875 25.011719 38.71875 25.011719 38.578125 C 25.011719 38.4375 24.980469 38.355469 24.917969 38.332031 C 24.75 38.226562 24.421875 38.164062 23.929688 38.136719 C 23.4375 38.117188 22.902344 38.105469 22.320312 38.101562 C 21.980469 38.105469 21.8125 37.945312 21.8125 37.625 L 21.8125 37.484375 L 21.921875 37.183594 C 21.992188 36.832031 22.21875 36.65625 22.59375 36.65625 L 34.246094 36.65625 C 35.3125 36.65625 36.300781 36.824219 37.21875 37.160156 C 38.132812 37.496094 38.917969 38 39.570312 38.667969 C 40.164062 39.289062 40.582031 40.03125 40.824219 40.890625 C 40.898438 41.292969 40.933594 41.699219 40.933594 42.105469 C 40.933594 42.578125 40.875 43.074219 40.75 43.589844 Z M 36.878906 43.503906 C 37.085938 42.761719 37.226562 42.046875 37.300781 41.351562 L 37.300781 41.03125 C 37.300781 40.492188 37.148438 39.996094 36.84375 39.550781 C 36.445312 39.023438 35.910156 38.648438 35.246094 38.429688 C 34.578125 38.210938 33.855469 38.105469 33.082031 38.101562 L 29.664062 38.101562 C 29.046875 38.105469 28.675781 38.152344 28.554688 38.246094 C 28.433594 38.339844 28.308594 38.675781 28.171875 39.25 L 25.648438 48.992188 L 30.191406 48.992188 C 30.976562 48.992188 31.765625 48.878906 32.554688 48.65625 C 33.339844 48.433594 34.082031 48.050781 34.773438 47.507812 C 35.390625 46.980469 35.847656 46.363281 36.144531 45.65625 C 36.441406 44.949219 36.683594 44.230469 36.878906 43.503906 Z M 36.878906 43.503906 "/>
<path style=" stroke:none;fill-rule:evenodd;fill:rgb(0%,0%,0%);fill-opacity:1;" d="M 446.566406 302.789062 C 446.496094 303.144531 446.277344 303.324219 445.914062 303.320312 C 445.523438 303.324219 445.15625 303.367188 444.804688 303.453125 C 444.453125 303.542969 444.109375 303.691406 443.777344 303.90625 C 443.445312 304.117188 443.140625 304.371094 442.859375 304.671875 C 442.582031 304.972656 442.328125 305.308594 442.097656 305.6875 L 428.847656 327.234375 C 428.667969 327.5625 428.390625 327.722656 428.011719 327.710938 L 427.667969 327.710938 C 427.21875 327.710938 427 327.523438 427.015625 327.144531 L 424.742188 304.609375 C 424.691406 304.304688 424.644531 304.066406 424.597656 303.894531 C 424.546875 303.726562 424.476562 303.605469 424.378906 303.535156 C 424.210938 303.441406 423.941406 303.382812 423.570312 303.355469 C 423.199219 303.335938 422.78125 303.324219 422.304688 303.320312 C 422.125 303.324219 421.992188 303.261719 421.90625 303.144531 C 421.835938 303.074219 421.796875 302.988281 421.796875 302.878906 C 421.796875 302.808594 421.816406 302.746094 421.851562 302.683594 L 421.90625 302.421875 C 421.945312 302.269531 422.023438 302.140625 422.152344 302.03125 C 422.28125 301.925781 422.433594 301.875 422.613281 301.875 C 423.777344 301.945312 424.953125 301.980469 426.140625 301.980469 C 426.324219 301.980469 426.515625 301.96875 426.722656 301.945312 C 428.128906 301.945312 429.535156 301.921875 430.9375 301.875 C 431.109375 301.875 431.261719 301.933594 431.394531 302.050781 C 431.441406 302.144531 431.464844 302.234375 431.464844 302.316406 C 431.464844 302.386719 431.449219 302.453125 431.410156 302.511719 L 431.355469 302.773438 C 431.320312 302.9375 431.234375 303.074219 431.09375 303.171875 C 430.953125 303.273438 430.804688 303.324219 430.648438 303.320312 C 430.222656 303.324219 429.835938 303.339844 429.484375 303.375 C 429.136719 303.410156 428.789062 303.503906 428.449219 303.65625 C 428.242188 303.761719 428.148438 303.9375 428.160156 304.1875 L 428.160156 304.308594 C 428.582031 307.4375 428.921875 310.585938 429.175781 313.742188 C 429.429688 316.902344 429.703125 319.894531 429.996094 322.714844 L 440.714844 305.261719 C 440.875 305.015625 440.96875 304.757812 441.007812 304.484375 L 441.007812 304.398438 C 441.007812 304.222656 440.964844 304.0625 440.878906 303.921875 C 440.613281 303.523438 440.117188 303.324219 439.390625 303.320312 C 439.074219 303.324219 438.917969 303.164062 438.917969 302.84375 L 438.917969 302.722656 L 438.988281 302.40625 C 439.125 302.050781 439.359375 301.875 439.695312 301.875 C 440.765625 301.921875 441.835938 301.945312 442.914062 301.945312 C 443.0625 301.96875 443.199219 301.980469 443.332031 301.980469 C 444.253906 301.980469 445.199219 301.945312 446.167969 301.875 C 446.496094 301.875 446.671875 302.03125 446.695312 302.347656 L 446.695312 302.492188 Z M 446.566406 302.789062 "/>
<path style=" stroke:none;fill-rule:evenodd;fill:rgb(0%,0%,0%);fill-opacity:1;" d="M 145.039062 241.285156 C 145.039062 243.667969 143.105469 245.597656 140.722656 245.597656 C 138.339844 245.597656 136.40625 243.667969 136.40625 241.285156 C 136.40625 238.898438 138.339844 236.96875 140.722656 236.96875 C 143.105469 236.96875 145.039062 238.898438 145.039062 241.285156 Z M 145.039062 241.285156 "/>
<path style=" stroke:none;fill-rule:evenodd;fill:rgb(0%,0%,0%);fill-opacity:1;" d="M 145.039062 118.269531 C 145.039062 120.652344 143.105469 122.585938 140.722656 122.585938 C 138.339844 122.585938 136.40625 120.652344 136.40625 118.269531 C 136.40625 115.886719 138.339844 113.953125 140.722656 113.953125 C 143.105469 113.953125 145.039062 115.886719 145.039062 118.269531 Z M 145.039062 118.269531 "/>
<path style=" stroke:none;fill-rule:evenodd;fill:rgb(0%,0%,0%);fill-opacity:1;" d="M 353.164062 241.285156 C 353.164062 243.667969 351.234375 245.597656 348.847656 245.597656 C 346.464844 245.597656 344.535156 243.667969 344.535156 241.285156 C 344.535156 238.898438 346.464844 236.96875 348.847656 236.96875 C 351.234375 236.96875 353.164062 238.898438 353.164062 241.285156 Z M 353.164062 241.285156 "/>
<path style="fill:none;stroke-width:15;stroke-linecap:round;stroke-linejoin:round;stroke:rgb(0%,0%,0%);stroke-opacity:1;stroke-miterlimit:10;" d="M 776.448777 2379.028456 C 1324.723872 1372.623183 2375.424251 742.495649 3521.441399 732.784835 " transform="matrix(0.119872,0,0,-0.119873,0,336.9191)"/>
<path style="fill:none;stroke-width:15;stroke-linecap:round;stroke-linejoin:round;stroke:rgb(0%,0%,0%);stroke-opacity:1;stroke-miterlimit:10;" d="M 1173.944148 1809.218762 L 1173.944148 797.795148 " transform="matrix(0.119872,0,0,-0.119873,0,336.9191)"/>
<path style="fill:none;stroke-width:15;stroke-linecap:round;stroke-linejoin:round;stroke:rgb(0%,0%,0%);stroke-opacity:1;stroke-miterlimit:10;" d="M 1173.944148 797.795148 L 2910.208356 797.795148 " transform="matrix(0.119872,0,0,-0.119873,0,336.9191)"/>
<path style=" stroke:none;fill-rule:nonzero;fill:rgb(0%,0%,0%);fill-opacity:1;" d="M 230.554688 130.433594 L 230.554688 206.816406 L 227.410156 206.816406 L 227.410156 130.433594 C 227.410156 129.5625 228.113281 128.859375 228.984375 128.859375 C 229.851562 128.859375 230.554688 129.5625 230.554688 130.433594 Z M 228.984375 221.902344 L 235.277344 203.023438 L 230.554688 206.800781 L 227.410156 206.800781 L 222.6875 203.023438 Z M 228.984375 221.902344 "/>
<path style=" stroke:none;fill-rule:evenodd;fill:rgb(0%,0%,0%);fill-opacity:1;" d="M 239.628906 102.542969 C 239.195312 104.253906 238.488281 105.898438 237.515625 107.488281 C 236.539062 109.078125 235.308594 110.527344 233.832031 111.847656 C 232.429688 113.082031 230.972656 114.03125 229.46875 114.6875 C 229.496094 115.109375 229.539062 115.546875 229.597656 115.992188 C 229.660156 116.441406 229.765625 116.824219 229.914062 117.148438 C 230.066406 117.472656 230.277344 117.730469 230.542969 117.917969 C 230.808594 118.105469 231.171875 118.199219 231.632812 118.199219 C 232.058594 118.199219 232.46875 118.109375 232.859375 117.925781 C 233.253906 117.742188 233.628906 117.496094 233.976562 117.183594 C 234.328125 116.875 234.640625 116.5 234.90625 116.0625 C 235.171875 115.628906 235.359375 115.179688 235.46875 114.722656 C 235.503906 114.570312 235.585938 114.441406 235.714844 114.335938 C 235.84375 114.230469 235.988281 114.175781 236.160156 114.175781 C 236.328125 114.175781 236.480469 114.242188 236.613281 114.371094 C 236.664062 114.464844 236.6875 114.546875 236.6875 114.617188 C 236.6875 114.6875 236.667969 114.753906 236.632812 114.8125 C 236.453125 115.613281 236.1875 116.425781 235.84375 117.253906 C 235.496094 118.085938 235.074219 118.851562 234.578125 119.550781 C 234.082031 120.25 233.496094 120.824219 232.816406 121.269531 C 232.136719 121.71875 231.367188 121.941406 230.507812 121.941406 C 229.539062 121.941406 228.835938 121.722656 228.398438 121.289062 C 227.960938 120.851562 227.691406 120.28125 227.578125 119.574219 C 227.53125 119.257812 227.507812 118.917969 227.507812 118.550781 C 227.507812 118.175781 227.53125 117.789062 227.578125 117.386719 C 227.675781 116.585938 227.761719 115.882812 227.835938 115.269531 C 226.890625 115.578125 225.847656 115.730469 224.707031 115.730469 C 223.109375 115.730469 221.6875 115.375 220.445312 114.671875 C 219.203125 113.964844 218.214844 113.011719 217.472656 111.8125 C 216.664062 110.484375 216.195312 109.011719 216.074219 107.398438 C 216.027344 107.011719 216.003906 106.621094 216.003906 106.234375 C 216.003906 105.023438 216.160156 103.769531 216.472656 102.476562 C 216.933594 100.746094 217.644531 99.070312 218.609375 97.4375 C 219.574219 95.808594 220.804688 94.335938 222.308594 93.015625 C 223.640625 91.832031 225.097656 90.875 226.679688 90.148438 C 228.261719 89.425781 229.859375 89.0625 231.46875 89.0625 C 233.070312 89.0625 234.484375 89.429688 235.714844 90.160156 C 236.945312 90.886719 237.929688 91.851562 238.667969 93.050781 C 239.480469 94.382812 239.960938 95.863281 240.101562 97.5 C 240.128906 97.902344 240.140625 98.292969 240.140625 98.679688 C 240.140625 99.941406 239.972656 101.230469 239.628906 102.542969 Z M 235.996094 93.792969 C 235.597656 92.804688 234.996094 91.980469 234.195312 91.316406 C 233.398438 90.652344 232.402344 90.316406 231.214844 90.316406 C 230.039062 90.316406 228.871094 90.65625 227.707031 91.332031 C 226.546875 92.011719 225.507812 92.847656 224.597656 93.847656 C 223.4375 95.128906 222.523438 96.519531 221.863281 98.011719 C 221.203125 99.507812 220.671875 101.019531 220.273438 102.542969 C 219.875 104.054688 219.636719 105.542969 219.566406 107.011719 C 219.539062 107.226562 219.527344 107.4375 219.527344 107.648438 C 219.527344 108.871094 219.746094 110.011719 220.183594 111.070312 C 220.460938 111.730469 220.8125 112.316406 221.238281 112.835938 C 221.660156 113.355469 222.054688 113.6875 222.417969 113.839844 C 222.40625 113.816406 222.398438 113.640625 222.398438 113.3125 C 222.398438 113.03125 222.4375 112.742188 222.507812 112.445312 C 222.617188 112.035156 222.792969 111.640625 223.035156 111.257812 C 223.277344 110.875 223.558594 110.53125 223.882812 110.234375 C 224.203125 109.933594 224.570312 109.691406 224.980469 109.507812 C 225.394531 109.328125 225.824219 109.234375 226.273438 109.234375 C 226.902344 109.234375 227.414062 109.351562 227.808594 109.589844 C 228.203125 109.824219 228.515625 110.125 228.742188 110.488281 C 228.972656 110.855469 229.132812 111.273438 229.214844 111.75 C 229.300781 112.226562 229.351562 112.617188 229.359375 112.921875 C 229.628906 112.746094 229.964844 112.488281 230.371094 112.148438 C 230.777344 111.804688 231.167969 111.429688 231.542969 111.015625 C 232.707031 109.757812 233.617188 108.398438 234.269531 106.933594 C 234.925781 105.46875 235.445312 103.980469 235.832031 102.476562 C 236.230469 100.9375 236.480469 99.410156 236.578125 97.90625 C 236.601562 97.683594 236.613281 97.449219 236.613281 97.199219 C 236.613281 96 236.410156 94.867188 235.996094 93.792969 Z M 228.015625 113.71875 C 228.039062 113.449219 228.054688 113.152344 228.054688 112.835938 L 228.054688 112.410156 C 228.027344 112 227.949219 111.648438 227.816406 111.351562 C 227.683594 111.058594 227.480469 110.824219 227.207031 110.648438 C 226.9375 110.46875 226.558594 110.382812 226.070312 110.382812 C 225.550781 110.382812 225.0625 110.59375 224.609375 111.007812 C 224.152344 111.425781 223.847656 111.929688 223.691406 112.515625 C 223.640625 112.71875 223.617188 112.910156 223.617188 113.097656 C 223.617188 113.347656 223.660156 113.578125 223.746094 113.789062 C 223.890625 114.152344 224.128906 114.382812 224.453125 114.476562 L 224.925781 114.476562 C 226.003906 114.476562 227.035156 114.222656 228.015625 113.71875 Z M 228.015625 113.71875 "/>
<path style=" stroke:none;fill-rule:evenodd;fill:rgb(0%,0%,0%);fill-opacity:1;" d="M 129.410156 260.085938 C 129.410156 261.746094 129.292969 263.398438 129.0625 265.039062 C 128.832031 266.683594 128.257812 268.226562 127.34375 269.664062 C 126.691406 270.714844 125.816406 271.523438 124.726562 272.085938 C 123.632812 272.652344 122.445312 272.933594 121.164062 272.933594 C 119.925781 272.933594 118.761719 272.652344 117.664062 272.085938 C 116.5625 271.523438 115.6875 270.714844 115.035156 269.664062 C 114.121094 268.226562 113.546875 266.683594 113.316406 265.039062 C 113.085938 263.398438 112.96875 261.746094 112.96875 260.085938 C 112.96875 258.402344 113.085938 256.722656 113.316406 255.042969 C 113.546875 253.367188 114.121094 251.796875 115.035156 250.332031 C 115.6875 249.273438 116.5625 248.445312 117.652344 247.859375 C 118.746094 247.269531 119.914062 246.976562 121.164062 246.976562 C 122.433594 246.976562 123.617188 247.269531 124.714844 247.859375 C 125.8125 248.445312 126.691406 249.273438 127.34375 250.332031 C 128.257812 251.796875 128.832031 253.367188 129.0625 255.042969 C 129.292969 256.722656 129.410156 258.402344 129.410156 260.085938 Z M 125.882812 259.480469 C 125.882812 258.753906 125.875 257.988281 125.863281 257.179688 C 125.851562 256.371094 125.824219 255.585938 125.773438 254.8125 C 125.726562 254.039062 125.640625 253.308594 125.515625 252.625 C 125.390625 251.9375 125.242188 251.351562 125.0625 250.867188 C 124.707031 250.085938 124.183594 249.441406 123.496094 248.941406 C 122.808594 248.4375 122.027344 248.1875 121.164062 248.183594 C 120.320312 248.1875 119.558594 248.441406 118.875 248.949219 C 118.191406 249.457031 117.671875 250.097656 117.3125 250.867188 C 117.136719 251.351562 116.984375 251.9375 116.859375 252.625 C 116.734375 253.308594 116.648438 254.039062 116.601562 254.8125 C 116.554688 255.585938 116.523438 256.371094 116.511719 257.179688 C 116.5 257.988281 116.496094 258.753906 116.496094 259.480469 C 116.496094 260.289062 116.5 261.140625 116.511719 262.03125 C 116.523438 262.925781 116.554688 263.789062 116.601562 264.625 C 116.648438 265.460938 116.734375 266.253906 116.859375 267.003906 C 116.984375 267.753906 117.136719 268.382812 117.3125 268.886719 C 117.648438 269.730469 118.160156 270.421875 118.855469 270.964844 C 119.550781 271.507812 120.320312 271.777344 121.164062 271.777344 C 122.042969 271.777344 122.828125 271.507812 123.523438 270.964844 C 124.21875 270.421875 124.730469 269.730469 125.0625 268.886719 C 125.242188 268.382812 125.390625 267.753906 125.515625 267.003906 C 125.640625 266.253906 125.726562 265.460938 125.773438 264.625 C 125.824219 263.789062 125.851562 262.925781 125.863281 262.03125 C 125.875 261.140625 125.882812 260.289062 125.882812 259.480469 Z M 125.882812 259.480469 "/>
<path style=" stroke:none;fill-rule:evenodd;fill:rgb(0%,0%,0%);fill-opacity:1;" d="M 146.328125 104.199219 C 144.144531 104.132812 142.019531 104.097656 139.953125 104.097656 C 137.886719 104.097656 135.761719 104.132812 133.578125 104.199219 L 133.578125 102.714844 L 134.804688 102.714844 C 135.195312 102.714844 135.566406 102.707031 135.910156 102.695312 C 136.253906 102.6875 136.582031 102.65625 136.890625 102.609375 C 137.199219 102.566406 137.464844 102.519531 137.691406 102.472656 C 137.878906 102.4375 138.039062 102.332031 138.160156 102.152344 C 138.289062 101.972656 138.347656 101.773438 138.347656 101.554688 L 138.347656 82.066406 C 137.757812 82.351562 137.027344 82.574219 136.160156 82.722656 C 135.292969 82.871094 134.34375 82.945312 133.308594 82.945312 L 133.308594 81.476562 C 134.734375 81.476562 136.050781 81.308594 137.253906 80.964844 C 138.460938 80.625 139.503906 79.988281 140.378906 79.054688 L 140.933594 79.054688 C 141.324219 79.054688 141.519531 79.246094 141.519531 79.625 L 141.519531 101.554688 C 141.519531 101.785156 141.578125 101.988281 141.695312 102.160156 C 141.816406 102.332031 141.988281 102.4375 142.214844 102.472656 C 142.402344 102.519531 142.648438 102.566406 142.945312 102.609375 C 143.242188 102.65625 143.574219 102.6875 143.949219 102.695312 C 144.324219 102.707031 144.6875 102.714844 145.046875 102.714844 L 146.328125 102.714844 Z M 146.328125 104.199219 "/>
<path style=" stroke:none;fill-rule:evenodd;fill:rgb(0%,0%,0%);fill-opacity:1;" d="M 354.628906 231.019531 L 340.132812 231.019531 L 340.132812 230.070312 C 340.132812 230 340.167969 229.898438 340.238281 229.757812 L 346.0625 223.429688 C 346.753906 222.667969 347.449219 221.890625 348.15625 221.09375 C 348.863281 220.300781 349.496094 219.488281 350.054688 218.65625 C 350.609375 217.824219 351.058594 216.96875 351.390625 216.085938 C 351.722656 215.207031 351.886719 214.28125 351.886719 213.3125 C 351.886719 212.492188 351.78125 211.730469 351.566406 211.019531 C 351.355469 210.3125 351.046875 209.6875 350.640625 209.152344 C 350.238281 208.617188 349.734375 208.183594 349.128906 207.855469 C 348.523438 207.527344 347.820312 207.363281 347.027344 207.363281 C 345.839844 207.363281 344.789062 207.71875 343.882812 208.425781 C 342.976562 209.136719 342.371094 209.917969 342.074219 210.769531 C 342.015625 210.792969 342.109375 210.804688 342.359375 210.804688 L 342.664062 210.804688 C 343.019531 210.882812 343.328125 211.007812 343.589844 211.175781 C 343.851562 211.34375 344.070312 211.574219 344.25 211.867188 C 344.425781 212.164062 344.515625 212.515625 344.515625 212.933594 C 344.515625 213.625 344.289062 214.15625 343.839844 214.523438 C 343.386719 214.894531 342.882812 215.074219 342.324219 215.074219 C 341.789062 215.074219 341.292969 214.894531 340.828125 214.523438 C 340.367188 214.15625 340.132812 213.625 340.132812 212.933594 C 340.132812 211.964844 340.324219 211.046875 340.703125 210.183594 C 341.085938 209.316406 341.601562 208.570312 342.253906 207.933594 C 342.90625 207.300781 343.675781 206.800781 344.566406 206.429688 C 345.457031 206.0625 346.402344 205.875 347.398438 205.875 C 348.632812 205.875 349.765625 206.058594 350.792969 206.421875 C 351.820312 206.785156 352.695312 207.304688 353.417969 207.984375 C 354.144531 208.667969 354.710938 209.453125 355.121094 210.347656 C 355.53125 211.238281 355.734375 212.226562 355.734375 213.3125 C 355.734375 214.511719 355.460938 215.613281 354.914062 216.625 C 354.371094 217.632812 353.691406 218.558594 352.886719 219.402344 C 352.078125 220.242188 351.21875 221.035156 350.3125 221.777344 C 349.402344 222.523438 348.582031 223.246094 347.84375 223.949219 L 343.75 227.804688 L 349.109375 227.804688 C 349.859375 227.804688 350.554688 227.800781 351.203125 227.789062 C 351.851562 227.777344 352.398438 227.753906 352.851562 227.71875 C 353.300781 227.683594 353.53125 227.660156 353.542969 227.648438 C 353.640625 227.570312 353.730469 227.40625 353.8125 227.164062 C 353.894531 226.921875 353.972656 226.636719 354.042969 226.308594 C 354.113281 225.980469 354.1875 225.648438 354.257812 225.304688 C 354.328125 224.964844 354.394531 224.59375 354.453125 224.191406 L 355.769531 224.191406 Z M 354.628906 231.019531 "/>
<path style=" stroke:none;fill-rule:nonzero;fill:rgb(0%,0%,0%);fill-opacity:1;" d="M 202.195312 176.292969 L 191.078125 161.167969 L 191.246094 166.921875 L 190.164062 168.359375 L 184.585938 169.785156 Z M 202.195312 176.292969 "/>
<path style=" stroke:none;fill-rule:nonzero;fill:rgb(0%,0%,0%);fill-opacity:1;" d="M 141.621094 169.523438 L 141.621094 187.105469 L 139.824219 187.105469 L 139.824219 169.523438 C 139.824219 169.023438 140.226562 168.621094 140.722656 168.621094 C 141.21875 168.621094 141.621094 169.023438 141.621094 169.523438 Z M 140.722656 201.476562 L 146.117188 183.492188 L 141.621094 187.089844 L 139.824219 187.089844 L 135.328125 183.492188 Z M 140.722656 201.476562 "/>
<path style=" stroke:none;fill-rule:nonzero;fill:rgb(0%,0%,0%);fill-opacity:1;" d="M 193.203125 240.382812 L 230.417969 240.382812 L 230.417969 242.183594 L 193.203125 242.183594 C 192.707031 242.183594 192.304688 241.78125 192.304688 241.285156 C 192.304688 240.785156 192.707031 240.382812 193.203125 240.382812 Z M 244.785156 241.285156 L 226.804688 235.890625 L 230.402344 240.382812 L 230.402344 242.183594 L 226.804688 246.675781 Z M 244.785156 241.285156 "/>
</g>
</svg>
