<?xml version="1.0" encoding="UTF-8"?>
<svg xmlns="http://www.w3.org/2000/svg" xmlns:xlink="http://www.w3.org/1999/xlink" width="921pt" height="465pt" viewBox="0 0 921 465" version="1.1">
<g id="surface1">
<path style="fill-rule:evenodd;fill:rgb(0%,50.19989%,50.19989%);fill-opacity:0.69804;stroke-width:15;stroke-linecap:round;stroke-linejoin:round;stroke:rgb(0%,0%,0%);stroke-opacity:1;stroke-miterlimit:10;" d="M 2534.328057 806.511289 L 2534.328057 2306.522931 L 2714.324841 2306.522931 L 2714.324841 806.511289 Z M 2534.328057 806.511289 " transform="matrix(0.146487,0,0,-0.146447,0,466.2477)"/>
<path style="fill-rule:evenodd;fill:rgb(0%,50.19989%,50.19989%);fill-opacity:0.69804;stroke-width:15;stroke-linecap:round;stroke-linejoin:round;stroke:rgb(0%,0%,0%);stroke-opacity:1;stroke-miterlimit:10;" d="M 2718.164772 1466.520679 L 5280.732324 1466.520679 L 5280.732324 1646.513541 L 2718.164772 1646.513541 Z M 2718.164772 1466.520679 " transform="matrix(0.146487,0,0,-0.146447,0,466.2477)"/>
<path style="fill-rule:evenodd;fill:rgb(100%,100%,100%);fill-opacity:1;stroke-width:15;stroke-linecap:round;stroke-linejoin:round;stroke:rgb(0%,0%,0%);stroke-opacity:1;stroke-miterlimit:10;" d="M 1018.221809 806.511289 L 1018.221809 2306.522931 L 1198.218593 2306.522931 L 1198.218593 806.511289 Z M 1018.221809 806.511289 " transform="matrix(0.146487,0,0,-0.146447,0,466.2477)"/>
<path style="fill-rule:evenodd;fill:rgb(0%,50.19989%,50.19989%);fill-opacity:0.69804;stroke-width:15;stroke-linecap:round;stroke-linejoin:round;stroke:rgb(0%,0%,0%);stroke-opacity:1;stroke-miterlimit:10;" d="M 1018.301808 2311.750939 L 5043.243234 2311.750939 L 5043.243234 2491.743801 L 1018.301808 2491.743801 Z M 1018.301808 2311.750939 " transform="matrix(0.146487,0,0,-0.146447,0,466.2477)"/>
<path style="fill-rule:evenodd;fill:rgb(0%,50.19989%,50.19989%);fill-opacity:0.69804;stroke-width:15;stroke-linecap:round;stroke-linejoin:round;stroke:rgb(0%,0%,0%);stroke-opacity:1;stroke-miterlimit:10;" d="M 1018.301808 622.490727 L 5043.243234 622.490727 L 5043.243234 802.510262 L 1018.301808 802.510262 Z M 1018.301808 622.490727 " transform="matrix(0.146487,0,0,-0.146447,0,466.2477)"/>
<path style=" stroke:none;fill-rule:evenodd;fill:rgb(100%,100%,100%);fill-opacity:1;" d="M 727.78125 193.953125 L 903.566406 193.953125 L 903.566406 18.21875 L 727.78125 18.21875 Z M 727.78125 193.953125 "/>
<path style=" stroke:none;fill-rule:evenodd;fill:rgb(100%,100%,100%);fill-opacity:1;" d="M 727.78125 449.773438 L 903.566406 449.773438 L 903.566406 274.035156 L 727.78125 274.035156 Z M 727.78125 449.773438 "/>
<path style=" stroke:none;fill-rule:nonzero;fill:rgb(0%,0%,94.099426%);fill-opacity:1;" d="M 83.300781 287.996094 L 250.332031 239.289062 L 251.5625 243.507812 L 84.53125 292.214844 C 83.367188 292.554688 82.144531 291.886719 81.804688 290.71875 C 81.464844 289.554688 82.136719 288.335938 83.300781 287.996094 Z M 284.664062 231.566406 L 240.015625 235.433594 L 250.300781 239.300781 L 251.53125 243.515625 L 244.9375 252.304688 Z M 284.664062 231.566406 "/>
<path style=" stroke:none;fill-rule:evenodd;fill:rgb(0%,0%,0%);fill-opacity:1;" d="M 48.085938 286.875 C 47.554688 288.960938 46.691406 290.972656 45.5 292.914062 C 44.308594 294.855469 42.808594 296.628906 41 298.238281 C 39.285156 299.75 37.507812 300.90625 35.667969 301.710938 C 35.699219 302.226562 35.75 302.757812 35.824219 303.304688 C 35.898438 303.851562 36.027344 304.320312 36.214844 304.714844 C 36.398438 305.113281 36.65625 305.425781 36.980469 305.65625 C 37.308594 305.886719 37.75 306 38.3125 306 C 38.832031 306 39.332031 305.890625 39.8125 305.664062 C 40.292969 305.441406 40.75 305.140625 41.175781 304.757812 C 41.609375 304.378906 41.984375 303.921875 42.3125 303.390625 C 42.636719 302.859375 42.867188 302.3125 43 301.753906 C 43.042969 301.566406 43.144531 301.410156 43.300781 301.277344 C 43.457031 301.148438 43.636719 301.085938 43.84375 301.082031 C 44.050781 301.085938 44.238281 301.164062 44.402344 301.320312 C 44.460938 301.4375 44.488281 301.539062 44.488281 301.621094 C 44.488281 301.710938 44.46875 301.789062 44.421875 301.859375 C 44.203125 302.839844 43.878906 303.832031 43.457031 304.847656 C 43.035156 305.859375 42.519531 306.792969 41.914062 307.648438 C 41.304688 308.503906 40.589844 309.203125 39.757812 309.75 C 38.929688 310.296875 37.988281 310.570312 36.9375 310.570312 C 35.75 310.570312 34.894531 310.304688 34.359375 309.773438 C 33.828125 309.242188 33.492188 308.542969 33.359375 307.679688 C 33.300781 307.292969 33.269531 306.875 33.269531 306.429688 C 33.269531 305.972656 33.300781 305.496094 33.359375 305.007812 C 33.476562 304.03125 33.582031 303.167969 33.671875 302.421875 C 32.515625 302.796875 31.242188 302.980469 29.851562 302.980469 C 27.898438 302.980469 26.160156 302.550781 24.640625 301.6875 C 23.125 300.828125 21.914062 299.664062 21.011719 298.195312 C 20.019531 296.574219 19.449219 294.773438 19.300781 292.804688 C 19.242188 292.332031 19.210938 291.859375 19.210938 291.382812 C 19.210938 289.902344 19.402344 288.371094 19.789062 286.789062 C 20.351562 284.679688 21.21875 282.628906 22.398438 280.636719 C 23.578125 278.644531 25.082031 276.847656 26.917969 275.234375 C 28.546875 273.785156 30.328125 272.613281 32.261719 271.734375 C 34.195312 270.847656 36.144531 270.40625 38.113281 270.40625 C 40.066406 270.40625 41.796875 270.851562 43.300781 271.742188 C 44.804688 272.636719 46.007812 273.8125 46.910156 275.277344 C 47.902344 276.902344 48.488281 278.710938 48.664062 280.710938 C 48.691406 281.199219 48.707031 281.683594 48.707031 282.152344 C 48.707031 283.695312 48.503906 285.269531 48.085938 286.875 Z M 43.644531 276.183594 C 43.160156 274.976562 42.421875 273.96875 41.445312 273.15625 C 40.46875 272.34375 39.253906 271.9375 37.800781 271.933594 C 36.367188 271.9375 34.9375 272.351562 33.515625 273.175781 C 32.09375 274.003906 30.828125 275.027344 29.71875 276.246094 C 28.296875 277.816406 27.183594 279.511719 26.375 281.335938 C 25.566406 283.160156 24.917969 285.011719 24.429688 286.875 C 23.941406 288.71875 23.652344 290.535156 23.566406 292.332031 C 23.535156 292.589844 23.519531 292.851562 23.519531 293.109375 C 23.519531 294.601562 23.785156 295.996094 24.320312 297.289062 C 24.660156 298.09375 25.089844 298.816406 25.609375 299.445312 C 26.125 300.078125 26.609375 300.488281 27.050781 300.675781 C 27.039062 300.648438 27.03125 300.433594 27.03125 300.027344 C 27.03125 299.683594 27.074219 299.332031 27.160156 298.972656 C 27.296875 298.46875 27.511719 297.984375 27.808594 297.515625 C 28.105469 297.050781 28.449219 296.632812 28.839844 296.265625 C 29.230469 295.898438 29.679688 295.605469 30.183594 295.382812 C 30.6875 295.160156 31.214844 295.046875 31.761719 295.046875 C 32.53125 295.046875 33.15625 295.191406 33.636719 295.480469 C 34.121094 295.769531 34.5 296.132812 34.78125 296.578125 C 35.0625 297.023438 35.253906 297.539062 35.359375 298.121094 C 35.464844 298.703125 35.523438 299.179688 35.535156 299.554688 C 35.863281 299.339844 36.273438 299.023438 36.769531 298.605469 C 37.265625 298.1875 37.742188 297.730469 38.203125 297.222656 C 39.625 295.6875 40.734375 294.023438 41.535156 292.234375 C 42.335938 290.445312 42.972656 288.628906 43.441406 286.789062 C 43.933594 284.910156 44.238281 283.046875 44.355469 281.207031 C 44.386719 280.933594 44.402344 280.644531 44.402344 280.34375 C 44.402344 278.878906 44.148438 277.492188 43.644531 276.183594 Z M 33.894531 300.523438 C 33.921875 300.195312 33.9375 299.835938 33.9375 299.445312 L 33.9375 298.929688 C 33.90625 298.425781 33.8125 297.996094 33.648438 297.636719 C 33.484375 297.277344 33.238281 296.988281 32.90625 296.773438 C 32.570312 296.558594 32.109375 296.449219 31.515625 296.449219 C 30.878906 296.449219 30.285156 296.707031 29.726562 297.214844 C 29.171875 297.726562 28.800781 298.339844 28.605469 299.058594 C 28.546875 299.300781 28.519531 299.539062 28.519531 299.769531 C 28.519531 300.070312 28.570312 300.351562 28.671875 300.609375 C 28.851562 301.058594 29.140625 301.335938 29.539062 301.449219 L 30.117188 301.449219 C 31.433594 301.453125 32.695312 301.144531 33.894531 300.523438 Z M 33.894531 300.523438 "/>
<path style=" stroke:none;fill-rule:evenodd;fill:rgb(0%,0%,0%);fill-opacity:1;" d="M 64.367188 302.902344 C 64.152344 303.601562 63.839844 304.292969 63.425781 304.976562 C 63.011719 305.664062 62.476562 306.292969 61.816406 306.871094 C 61.277344 307.355469 60.667969 307.761719 59.988281 308.085938 C 59.304688 308.414062 58.59375 308.574219 57.863281 308.574219 C 57.257812 308.574219 56.761719 308.425781 56.371094 308.128906 C 55.980469 307.832031 55.734375 307.589844 55.632812 307.402344 L 54.480469 311.363281 C 54.421875 311.566406 54.390625 311.714844 54.378906 311.8125 C 54.378906 311.890625 54.398438 311.945312 54.433594 311.96875 C 54.546875 312.03125 54.761719 312.074219 55.085938 312.089844 C 55.40625 312.105469 55.765625 312.113281 56.164062 312.113281 C 56.402344 312.113281 56.523438 312.21875 56.523438 312.425781 L 56.523438 312.511719 L 56.472656 312.742188 C 56.367188 312.980469 56.1875 313.097656 55.925781 313.089844 C 55.035156 313.058594 54.152344 313.035156 53.28125 313.019531 L 52.875 313.019531 C 52.113281 313.019531 51.34375 313.042969 50.566406 313.089844 C 50.324219 313.089844 50.203125 312.988281 50.203125 312.777344 L 50.203125 312.691406 L 50.257812 312.460938 C 50.359375 312.222656 50.542969 312.105469 50.800781 312.113281 C 51.128906 312.113281 51.398438 312.105469 51.609375 312.089844 C 51.820312 312.074219 51.972656 312.035156 52.066406 311.980469 C 52.160156 311.941406 52.257812 311.71875 52.359375 311.316406 L 55.59375 300.160156 C 55.742188 299.636719 55.816406 299.1875 55.816406 298.808594 L 55.816406 298.519531 C 55.769531 298.132812 55.550781 297.941406 55.160156 297.9375 C 54.75 297.941406 54.410156 298.234375 54.136719 298.820312 C 53.863281 299.410156 53.597656 300.171875 53.335938 301.113281 C 53.234375 301.332031 53.0625 301.445312 52.820312 301.453125 L 52.5 301.453125 C 52.277344 301.453125 52.164062 301.351562 52.164062 301.148438 L 52.164062 301.066406 C 52.277344 300.6875 52.402344 300.277344 52.542969 299.828125 C 52.679688 299.382812 52.867188 298.960938 53.097656 298.5625 C 53.332031 298.164062 53.625 297.824219 53.976562 297.546875 C 54.328125 297.269531 54.769531 297.128906 55.300781 297.128906 C 56.003906 297.128906 56.570312 297.308594 56.992188 297.667969 C 57.414062 298.027344 57.664062 298.386719 57.738281 298.746094 C 58.101562 298.378906 58.582031 298.015625 59.191406 297.660156 C 59.800781 297.308594 60.445312 297.128906 61.121094 297.128906 C 61.839844 297.128906 62.449219 297.296875 62.953125 297.632812 C 63.457031 297.964844 63.851562 298.382812 64.128906 298.878906 C 64.464844 299.476562 64.640625 300.121094 64.660156 300.8125 L 64.660156 300.980469 C 64.660156 301.601562 64.5625 302.242188 64.367188 302.902344 Z M 62.320312 299.230469 C 62.238281 298.84375 62.082031 298.535156 61.851562 298.296875 C 61.625 298.058594 61.324219 297.941406 60.953125 297.9375 C 60.527344 297.941406 60.09375 298.070312 59.652344 298.324219 C 59.210938 298.582031 58.804688 298.910156 58.433594 299.304688 C 58.148438 299.632812 57.894531 299.945312 57.679688 300.234375 L 56.148438 305.507812 C 56.1875 305.679688 56.222656 305.839844 56.253906 305.992188 C 56.285156 306.144531 56.332031 306.292969 56.386719 306.4375 C 56.527344 306.832031 56.730469 307.15625 56.992188 307.40625 C 57.257812 307.65625 57.609375 307.777344 58.042969 307.777344 C 58.433594 307.777344 58.816406 307.652344 59.199219 307.394531 C 59.578125 307.136719 59.929688 306.8125 60.246094 306.425781 C 60.691406 305.886719 61.023438 305.316406 61.246094 304.707031 C 61.46875 304.097656 61.675781 303.476562 61.859375 302.839844 C 62.046875 302.179688 62.207031 301.546875 62.347656 300.933594 C 62.402344 300.644531 62.429688 300.363281 62.429688 300.089844 C 62.429688 299.800781 62.394531 299.511719 62.320312 299.230469 Z M 62.320312 299.230469 "/>
<path style=" stroke:none;fill-rule:evenodd;fill:rgb(0%,0%,0%);fill-opacity:1;" d="M 206.152344 314.097656 C 205.8125 315.351562 205.3125 316.589844 204.65625 317.808594 C 203.996094 319.03125 203.140625 320.160156 202.089844 321.191406 C 201.230469 322.054688 200.257812 322.777344 199.167969 323.359375 C 198.082031 323.941406 196.953125 324.234375 195.78125 324.234375 C 194.820312 324.234375 194.027344 323.96875 193.40625 323.4375 C 192.785156 322.90625 192.390625 322.472656 192.230469 322.140625 L 190.386719 329.210938 C 190.296875 329.574219 190.246094 329.839844 190.230469 330.011719 C 190.230469 330.15625 190.261719 330.246094 190.320312 330.289062 C 190.496094 330.40625 190.84375 330.476562 191.351562 330.507812 C 191.863281 330.535156 192.4375 330.550781 193.074219 330.550781 C 193.457031 330.550781 193.648438 330.738281 193.648438 331.109375 L 193.648438 331.261719 L 193.5625 331.671875 C 193.398438 332.101562 193.109375 332.3125 192.695312 332.296875 C 191.273438 332.238281 189.867188 332.195312 188.476562 332.167969 L 187.832031 332.167969 C 186.617188 332.167969 185.390625 332.210938 184.144531 332.296875 C 183.761719 332.296875 183.570312 332.109375 183.566406 331.734375 L 183.566406 331.585938 L 183.65625 331.175781 C 183.820312 330.742188 184.109375 330.535156 184.523438 330.550781 C 185.042969 330.550781 185.472656 330.535156 185.8125 330.507812 C 186.152344 330.476562 186.394531 330.414062 186.542969 330.3125 C 186.691406 330.242188 186.847656 329.847656 187.011719 329.125 L 192.160156 309.207031 C 192.398438 308.273438 192.515625 307.46875 192.515625 306.789062 L 192.515625 306.273438 C 192.445312 305.582031 192.097656 305.242188 191.472656 305.238281 C 190.824219 305.242188 190.277344 305.765625 189.839844 306.8125 C 189.40625 307.863281 188.980469 309.226562 188.5625 310.910156 C 188.402344 311.296875 188.128906 311.5 187.742188 311.511719 L 187.234375 311.511719 C 186.875 311.515625 186.699219 311.332031 186.699219 310.972656 L 186.699219 310.824219 C 186.875 310.148438 187.078125 309.410156 187.296875 308.613281 C 187.519531 307.816406 187.816406 307.0625 188.1875 306.351562 C 188.558594 305.640625 189.023438 305.035156 189.585938 304.539062 C 190.148438 304.042969 190.851562 303.792969 191.695312 303.792969 C 192.820312 303.792969 193.722656 304.117188 194.394531 304.753906 C 195.070312 305.394531 195.464844 306.039062 195.582031 306.683594 C 196.160156 306.023438 196.933594 305.378906 197.902344 304.742188 C 198.875 304.113281 199.898438 303.792969 200.980469 303.792969 C 202.121094 303.792969 203.09375 304.097656 203.898438 304.691406 C 204.703125 305.289062 205.332031 306.03125 205.773438 306.917969 C 206.308594 307.984375 206.589844 309.136719 206.617188 310.371094 L 206.617188 310.671875 C 206.617188 311.777344 206.464844 312.921875 206.152344 314.097656 Z M 202.886719 307.546875 C 202.753906 306.859375 202.507812 306.300781 202.144531 305.875 C 201.78125 305.453125 201.304688 305.242188 200.710938 305.238281 C 200.03125 305.242188 199.339844 305.46875 198.636719 305.929688 C 197.933594 306.390625 197.285156 306.972656 196.691406 307.675781 C 196.234375 308.265625 195.835938 308.820312 195.492188 309.335938 L 193.050781 318.757812 C 193.109375 319.058594 193.164062 319.347656 193.214844 319.621094 C 193.269531 319.894531 193.339844 320.160156 193.429688 320.417969 C 193.652344 321.121094 193.972656 321.699219 194.394531 322.140625 C 194.816406 322.589844 195.375 322.8125 196.070312 322.808594 C 196.691406 322.8125 197.308594 322.582031 197.914062 322.121094 C 198.519531 321.660156 199.074219 321.085938 199.578125 320.394531 C 200.292969 319.433594 200.824219 318.410156 201.179688 317.324219 C 201.535156 316.238281 201.859375 315.128906 202.15625 313.992188 C 202.453125 312.816406 202.710938 311.679688 202.933594 310.585938 C 203.023438 310.066406 203.066406 309.566406 203.066406 309.074219 C 203.066406 308.558594 203.007812 308.050781 202.886719 307.546875 Z M 202.886719 307.546875 "/>
<path style="fill:none;stroke-width:0.603;stroke-linecap:round;stroke-linejoin:round;stroke:rgb(0%,0%,0%);stroke-opacity:1;stroke-miterlimit:10;" d="M 15.052626 13.400548 L 25.604527 13.400548 " transform="matrix(2.929715,0,-0.000000672445,-2.928948,175.325886,345.08935)"/>
<path style="fill:none;stroke-width:0.603;stroke-linecap:round;stroke-linejoin:round;stroke:rgb(0%,0%,0%);stroke-opacity:1;stroke-miterlimit:10;" d="M 15.052626 10.235749 L 25.604527 10.235749 " transform="matrix(2.929715,0,-0.000000672445,-2.928948,175.325886,345.08935)"/>
<path style=" stroke:none;fill-rule:evenodd;fill:rgb(0%,0%,0%);fill-opacity:1;" d="M 278.054688 291.089844 L 300.542969 291.089844 L 303.082031 288.621094 L 306.796875 292.226562 L 284.511719 292.226562 C 282.566406 292.238281 280.996094 292.425781 279.824219 292.792969 Z M 301.316406 300.382812 L 301.316406 312.714844 C 301.316406 315.003906 301.386719 317.28125 301.515625 319.546875 L 298.585938 320.875 L 298.585938 318.027344 L 284.511719 318.027344 L 284.511719 320.304688 L 281.582031 321.820312 C 281.710938 317.789062 281.769531 313.652344 281.769531 309.40625 C 281.769531 305.171875 281.710938 300.964844 281.582031 296.777344 L 284.511719 298.488281 L 298.199219 298.488281 L 299.953125 296.589844 L 303.082031 299.246094 Z M 284.511719 299.625 L 284.511719 307.210938 L 298.585938 307.210938 L 298.585938 299.625 Z M 284.511719 308.351562 L 284.511719 316.890625 L 298.585938 316.890625 L 298.585938 308.351562 Z M 274.9375 325.425781 L 300.925781 325.425781 L 303.867188 322.582031 L 307.96875 326.566406 L 281.1875 326.566406 C 279.363281 326.566406 277.867188 326.753906 276.695312 327.132812 Z M 266.71875 297.914062 C 266.859375 299.824219 266.921875 301.402344 266.921875 302.660156 C 266.921875 303.941406 266.824219 305.019531 266.636719 305.898438 C 266.445312 306.789062 265.984375 307.355469 265.257812 307.605469 C 264.546875 307.867188 263.992188 307.984375 263.597656 307.972656 C 263.078125 307.984375 262.625 307.773438 262.234375 307.320312 C 261.84375 306.882812 262.234375 306.027344 263.394531 304.746094 C 264.582031 303.621094 265.425781 301.34375 265.949219 297.914062 Z M 272.195312 295.640625 L 272.195312 320.113281 C 272.195312 323.292969 272.269531 326.257812 272.386719 329.03125 L 269.457031 330.167969 C 269.601562 325.878906 269.660156 322.152344 269.660156 318.976562 L 269.660156 294.691406 C 269.660156 291.160156 269.601562 288.121094 269.457031 285.585938 L 274.152344 287.671875 L 272.195312 289.191406 L 272.195312 294.882812 C 275.066406 296.160156 276.824219 297.167969 277.476562 297.925781 C 278.128906 298.6875 278.449219 299.386719 278.449219 300.003906 C 278.449219 300.644531 278.292969 301.285156 277.960938 301.914062 C 277.644531 302.550781 277.34375 302.863281 277.082031 302.851562 C 276.695312 302.863281 276.300781 302.351562 275.910156 301.332031 C 275.269531 299.695312 274.023438 297.796875 272.195312 295.640625 Z M 272.195312 295.640625 "/>
<path style=" stroke:none;fill-rule:evenodd;fill:rgb(0%,0%,0%);fill-opacity:1;" d="M 318.722656 307.210938 L 318.722656 311.199219 L 329.089844 311.199219 L 329.089844 307.210938 Z M 331.625 307.210938 L 331.625 311.199219 L 341.589844 311.199219 L 341.589844 307.210938 Z M 318.722656 312.335938 L 318.722656 316.128906 L 329.089844 316.128906 L 329.089844 312.335938 Z M 331.625 312.335938 L 331.625 316.128906 L 341.589844 316.128906 L 341.589844 312.335938 Z M 344.140625 307.785156 C 344.140625 312.726562 344.210938 316.011719 344.328125 317.648438 L 341.589844 318.785156 L 341.589844 317.269531 L 331.625 317.269531 L 331.625 321.441406 L 342.183594 321.441406 L 344.921875 319.167969 L 348.042969 322.582031 L 331.625 322.582031 L 331.625 327.132812 L 346.679688 327.132812 L 349.609375 324.476562 L 352.929688 328.273438 L 314.621094 328.273438 C 312.933594 328.273438 311.367188 328.460938 309.929688 328.84375 L 308.164062 327.132812 L 329.089844 327.132812 L 329.089844 322.582031 L 318.921875 322.582031 C 317.238281 322.59375 315.675781 322.78125 314.226562 323.148438 L 312.472656 321.441406 L 329.089844 321.441406 L 329.089844 317.269531 L 318.722656 317.269531 L 318.722656 318.40625 L 315.992188 319.355469 C 316.125 316.84375 316.183594 314.339844 316.183594 311.871094 C 316.183594 309.40625 316.125 306.976562 315.992188 304.558594 L 318.722656 306.074219 L 341.398438 306.074219 L 342.574219 304.558594 L 345.503906 306.644531 Z M 319.316406 289 L 319.316406 292.226562 L 341.007812 292.226562 L 341.007812 289 Z M 319.316406 293.363281 L 319.316406 296.777344 L 341.007812 296.777344 L 341.007812 293.363281 Z M 343.546875 289.378906 C 343.546875 294.074219 343.617188 297.167969 343.75 298.675781 L 341.007812 299.8125 L 341.007812 297.914062 L 319.316406 297.914062 L 319.316406 299.625 L 316.578125 300.761719 C 316.707031 298.746094 316.765625 296.195312 316.765625 293.089844 C 316.765625 289.996094 316.707031 287.8125 316.578125 286.535156 L 319.507812 287.859375 L 340.617188 287.859375 L 341.792969 286.152344 L 344.921875 288.242188 Z M 307.382812 301.710938 L 347.460938 301.710938 L 350.199219 299.246094 L 353.523438 302.851562 L 312.863281 302.851562 C 311.820312 302.863281 310.585938 303.050781 309.148438 303.417969 Z M 307.382812 301.710938 "/>
<path style="fill:none;stroke-width:15;stroke-linecap:round;stroke-linejoin:round;stroke:rgb(0%,0%,0%);stroke-opacity:1;stroke-dasharray:120,60;stroke-miterlimit:10;" d="M 3694.200668 2306.522931 L 3694.200668 806.511289 " transform="matrix(0.146487,0,0,-0.146447,0,466.2477)"/>
<path style="fill:none;stroke-width:15;stroke-linecap:round;stroke-linejoin:round;stroke:rgb(0%,0%,0%);stroke-opacity:1;stroke-dasharray:120,60;stroke-miterlimit:10;" d="M 3860.784359 2306.522931 L 3860.784359 806.511289 " transform="matrix(0.146487,0,0,-0.146447,0,466.2477)"/>
</g>
</svg>
