<?xml version="1.0" encoding="UTF-8"?>
<svg xmlns="http://www.w3.org/2000/svg" xmlns:xlink="http://www.w3.org/1999/xlink" width="361.98pt" height="370.02pt" viewBox="0 0 361.98 370.02" version="1.1">
<g id="surface1">
<path style=" stroke:none;fill-rule:evenodd;fill:rgb(25.099182%,50.19989%,50.19989%);fill-opacity:0.8;" d="M 121.460938 317.636719 L 274.191406 317.636719 L 274.191406 111.507812 L 121.460938 111.507812 Z M 121.460938 317.636719 "/>
<path style=" stroke:none;fill-rule:nonzero;fill:rgb(0%,0%,0%);fill-opacity:1;" d="M 48.039062 315.292969 L 326.664062 315.292969 L 326.664062 316.789062 L 48.039062 316.789062 C 47.625 316.789062 47.289062 316.453125 47.289062 316.042969 C 47.289062 315.628906 47.625 315.292969 48.039062 315.292969 Z M 347.613281 316.042969 L 326.640625 311.546875 L 326.640625 320.535156 Z M 347.613281 316.042969 "/>
<path style=" stroke:none;fill-rule:nonzero;fill:rgb(0%,0%,0%);fill-opacity:1;" d="M 47.289062 316.042969 L 47.289062 37.339844 L 48.789062 37.339844 L 48.789062 316.042969 C 48.789062 316.453125 48.453125 316.789062 48.039062 316.789062 C 47.625 316.789062 47.289062 316.453125 47.289062 316.042969 Z M 48.039062 16.382812 L 43.542969 37.359375 L 52.53125 37.359375 Z M 48.039062 16.382812 "/>
<path style=" stroke:none;fill-rule:evenodd;fill:rgb(0%,0%,0%);fill-opacity:1;" d="M 34.628906 334.882812 C 34.304688 336.148438 33.78125 337.367188 33.058594 338.542969 C 32.339844 339.722656 31.429688 340.796875 30.335938 341.773438 C 29.347656 342.652344 28.269531 343.351562 27.097656 343.871094 C 25.925781 344.390625 24.753906 344.648438 23.578125 344.648438 C 22.394531 344.648438 21.339844 344.386719 20.421875 343.863281 C 19.503906 343.339844 18.769531 342.636719 18.222656 341.746094 C 17.621094 340.761719 17.273438 339.671875 17.183594 338.476562 C 17.148438 338.191406 17.132812 337.902344 17.132812 337.617188 C 17.132812 336.71875 17.246094 335.789062 17.480469 334.832031 C 17.820312 333.550781 18.347656 332.308594 19.0625 331.101562 C 19.777344 329.894531 20.6875 328.804688 21.800781 327.824219 C 22.789062 326.945312 23.867188 326.238281 25.039062 325.703125 C 26.210938 325.167969 27.390625 324.898438 28.585938 324.898438 C 29.769531 324.898438 30.816406 325.167969 31.726562 325.707031 C 32.640625 326.25 33.367188 326.960938 33.914062 327.851562 C 34.515625 328.835938 34.871094 329.933594 34.976562 331.144531 C 34.996094 331.441406 35.003906 331.734375 35.003906 332.019531 C 35.003906 332.953125 34.878906 333.910156 34.628906 334.882812 Z M 31.910156 328.296875 C 31.613281 327.5625 31.167969 326.96875 30.578125 326.511719 C 29.984375 326.054688 29.257812 325.828125 28.394531 325.824219 C 27.542969 325.828125 26.695312 326.058594 25.851562 326.527344 C 25.011719 326.992188 24.257812 327.597656 23.589844 328.335938 C 22.757812 329.234375 22.097656 330.207031 21.613281 331.257812 C 21.128906 332.308594 20.75 333.371094 20.480469 334.453125 C 20.167969 335.628906 19.976562 336.777344 19.902344 337.890625 C 19.886719 338.101562 19.878906 338.308594 19.878906 338.519531 C 19.878906 339.390625 20.019531 340.242188 20.308594 341.078125 C 20.585938 341.820312 21.011719 342.441406 21.585938 342.941406 C 22.160156 343.445312 22.878906 343.695312 23.738281 343.695312 C 24.628906 343.695312 25.496094 343.4375 26.34375 342.929688 C 27.191406 342.421875 27.953125 341.789062 28.625 341.039062 C 29.496094 340.03125 30.171875 338.960938 30.65625 337.839844 C 31.144531 336.714844 31.535156 335.570312 31.839844 334.398438 C 32.121094 333.3125 32.296875 332.242188 32.367188 331.183594 L 32.367188 330.726562 C 32.367188 329.859375 32.214844 329.046875 31.910156 328.296875 Z M 31.910156 328.296875 "/>
<path style=" stroke:none;fill-rule:evenodd;fill:rgb(0%,0%,0%);fill-opacity:1;" d="M 336.265625 329.1875 C 336.210938 329.449219 336.050781 329.582031 335.78125 329.582031 C 335.492188 329.582031 335.21875 329.613281 334.957031 329.679688 C 334.699219 329.746094 334.445312 329.855469 334.199219 330.011719 C 333.953125 330.167969 333.726562 330.359375 333.519531 330.582031 C 333.3125 330.804688 333.125 331.054688 332.953125 331.332031 L 323.140625 347.292969 C 323.007812 347.535156 322.800781 347.652344 322.523438 347.644531 L 322.265625 347.644531 C 321.933594 347.644531 321.773438 347.503906 321.78125 347.226562 L 320.101562 330.535156 C 320.0625 330.308594 320.027344 330.132812 319.992188 330.007812 C 319.957031 329.878906 319.902344 329.789062 319.832031 329.738281 C 319.703125 329.667969 319.507812 329.625 319.230469 329.605469 C 318.957031 329.589844 318.644531 329.582031 318.296875 329.582031 C 318.160156 329.582031 318.0625 329.539062 318 329.449219 C 317.945312 329.398438 317.917969 329.332031 317.917969 329.253906 C 317.917969 329.203125 317.933594 329.15625 317.960938 329.109375 L 318 328.914062 C 318.027344 328.800781 318.089844 328.703125 318.183594 328.628906 C 318.277344 328.550781 318.390625 328.511719 318.523438 328.507812 C 319.386719 328.558594 320.257812 328.585938 321.136719 328.585938 C 321.269531 328.585938 321.414062 328.578125 321.566406 328.558594 C 322.609375 328.558594 323.648438 328.542969 324.6875 328.507812 C 324.816406 328.511719 324.925781 328.550781 325.027344 328.640625 C 325.0625 328.710938 325.078125 328.773438 325.078125 328.835938 C 325.078125 328.886719 325.066406 328.9375 325.039062 328.980469 L 325 329.175781 C 324.972656 329.296875 324.90625 329.398438 324.804688 329.46875 C 324.699219 329.542969 324.589844 329.582031 324.472656 329.582031 C 324.160156 329.582031 323.871094 329.59375 323.613281 329.621094 C 323.351562 329.648438 323.097656 329.714844 322.84375 329.828125 C 322.695312 329.910156 322.621094 330.039062 322.628906 330.21875 L 322.628906 330.3125 C 322.945312 332.628906 323.195312 334.960938 323.382812 337.300781 C 323.574219 339.640625 323.773438 341.855469 323.988281 343.945312 L 331.929688 331.019531 C 332.046875 330.835938 332.117188 330.644531 332.144531 330.445312 L 332.144531 330.378906 C 332.144531 330.246094 332.113281 330.128906 332.050781 330.027344 C 331.855469 329.730469 331.488281 329.582031 330.949219 329.582031 C 330.714844 329.582031 330.597656 329.464844 330.597656 329.226562 L 330.597656 329.136719 L 330.652344 328.902344 C 330.75 328.640625 330.925781 328.511719 331.175781 328.507812 C 331.964844 328.542969 332.761719 328.558594 333.558594 328.558594 C 333.667969 328.578125 333.769531 328.585938 333.867188 328.585938 C 334.550781 328.585938 335.25 328.558594 335.96875 328.507812 C 336.210938 328.511719 336.339844 328.628906 336.359375 328.863281 L 336.359375 328.964844 Z M 336.265625 329.1875 "/>
<path style=" stroke:none;fill-rule:evenodd;fill:rgb(0%,0%,0%);fill-opacity:1;" d="M 32.773438 36.5625 C 32.566406 37.320312 32.261719 38.070312 31.863281 38.8125 C 31.464844 39.550781 30.945312 40.234375 30.308594 40.863281 C 29.789062 41.386719 29.199219 41.824219 28.539062 42.175781 C 27.878906 42.53125 27.195312 42.707031 26.484375 42.707031 C 25.902344 42.707031 25.421875 42.542969 25.046875 42.222656 C 24.667969 41.902344 24.429688 41.636719 24.332031 41.4375 L 23.214844 45.726562 C 23.160156 45.941406 23.128906 46.105469 23.121094 46.207031 C 23.121094 46.296875 23.140625 46.351562 23.175781 46.378906 C 23.28125 46.449219 23.492188 46.492188 23.800781 46.507812 C 24.109375 46.527344 24.457031 46.535156 24.84375 46.535156 C 25.078125 46.535156 25.195312 46.648438 25.195312 46.875 L 25.195312 46.964844 L 25.140625 47.214844 C 25.042969 47.476562 24.867188 47.601562 24.617188 47.59375 C 23.753906 47.558594 22.902344 47.535156 22.058594 47.515625 L 21.667969 47.515625 C 20.933594 47.515625 20.1875 47.542969 19.433594 47.59375 C 19.199219 47.59375 19.085938 47.480469 19.082031 47.253906 L 19.082031 47.164062 L 19.136719 46.914062 C 19.238281 46.652344 19.410156 46.527344 19.660156 46.535156 C 19.976562 46.535156 20.238281 46.527344 20.445312 46.507812 C 20.648438 46.492188 20.796875 46.453125 20.886719 46.390625 C 20.976562 46.347656 21.070312 46.109375 21.167969 45.671875 L 24.292969 33.59375 C 24.4375 33.03125 24.507812 32.542969 24.507812 32.132812 L 24.507812 31.816406 C 24.464844 31.398438 24.253906 31.191406 23.875 31.191406 C 23.480469 31.191406 23.148438 31.507812 22.886719 32.144531 C 22.621094 32.78125 22.363281 33.609375 22.113281 34.628906 C 22.011719 34.863281 21.847656 34.984375 21.613281 34.992188 L 21.304688 34.992188 C 21.089844 34.996094 20.980469 34.886719 20.980469 34.667969 L 20.980469 34.574219 C 21.089844 34.167969 21.210938 33.71875 21.34375 33.238281 C 21.480469 32.753906 21.660156 32.296875 21.882812 31.863281 C 22.109375 31.433594 22.390625 31.066406 22.730469 30.765625 C 23.074219 30.464844 23.496094 30.316406 24.007812 30.316406 C 24.691406 30.316406 25.238281 30.507812 25.644531 30.898438 C 26.054688 31.285156 26.292969 31.675781 26.363281 32.066406 C 26.714844 31.664062 27.183594 31.273438 27.773438 30.890625 C 28.359375 30.507812 28.980469 30.316406 29.636719 30.316406 C 30.328125 30.316406 30.917969 30.496094 31.40625 30.859375 C 31.894531 31.21875 32.273438 31.671875 32.542969 32.210938 C 32.867188 32.855469 33.035156 33.550781 33.054688 34.300781 L 33.054688 34.484375 C 33.054688 35.15625 32.960938 35.847656 32.773438 36.5625 Z M 30.792969 32.589844 C 30.710938 32.171875 30.5625 31.832031 30.34375 31.578125 C 30.121094 31.320312 29.832031 31.191406 29.472656 31.191406 C 29.0625 31.191406 28.640625 31.332031 28.214844 31.609375 C 27.789062 31.890625 27.398438 32.242188 27.039062 32.667969 C 26.761719 33.023438 26.515625 33.359375 26.3125 33.671875 L 24.832031 39.386719 C 24.867188 39.570312 24.902344 39.746094 24.933594 39.910156 C 24.964844 40.074219 25.003906 40.234375 25.058594 40.390625 C 25.195312 40.820312 25.390625 41.167969 25.644531 41.4375 C 25.902344 41.707031 26.238281 41.84375 26.660156 41.84375 C 27.039062 41.84375 27.410156 41.703125 27.777344 41.425781 C 28.144531 41.148438 28.480469 40.796875 28.789062 40.378906 C 29.21875 39.796875 29.542969 39.175781 29.757812 38.515625 C 29.972656 37.859375 30.167969 37.1875 30.347656 36.496094 C 30.527344 35.78125 30.6875 35.09375 30.820312 34.429688 C 30.875 34.117188 30.902344 33.8125 30.902344 33.515625 C 30.902344 33.203125 30.863281 32.894531 30.792969 32.589844 Z M 30.792969 32.589844 "/>
<path style="fill:none;stroke-width:15;stroke-linecap:round;stroke-linejoin:round;stroke:rgb(0%,0%,0%);stroke-opacity:1;stroke-dasharray:120,60;stroke-miterlimit:10;" d="M 360.806547 1957.431403 L 908.030789 1957.431403 " transform="matrix(0.133144,0,0,-0.133181,0,371.9893)"/>
<path style=" stroke:none;fill-rule:nonzero;fill:rgb(0%,0%,94.099426%);fill-opacity:1;" d="M 124.992188 110.296875 L 198.855469 110.296875 L 198.855469 112.292969 L 124.992188 112.292969 C 124.441406 112.292969 123.992188 111.847656 123.992188 111.296875 C 123.992188 110.746094 124.441406 110.296875 124.992188 110.296875 Z M 214.816406 111.296875 L 194.84375 105.300781 L 198.839844 110.296875 L 198.839844 112.292969 L 194.84375 117.289062 Z M 214.816406 111.296875 "/>
<path style="fill:none;stroke-width:15;stroke-linecap:round;stroke-linejoin:round;stroke:rgb(0%,0%,94.099426%);stroke-opacity:1;stroke-miterlimit:10;" d="M 1571.553384 1957.431403 L 2059.366888 1957.431403 " transform="matrix(0.133144,0,0,-0.133181,0,371.9893)"/>
<path style=" stroke:none;fill-rule:evenodd;fill:rgb(0%,0%,0%);fill-opacity:1;" d="M 209.515625 203.746094 C 209.417969 204.007812 209.246094 204.140625 209.003906 204.140625 C 208.46875 204.140625 207.996094 204.269531 207.589844 204.53125 C 207.339844 204.699219 207.121094 204.894531 206.929688 205.121094 C 206.746094 205.34375 206.582031 205.59375 206.445312 205.863281 L 197.484375 221.835938 C 197.367188 222.089844 197.160156 222.210938 196.863281 222.203125 L 196.648438 222.203125 C 196.335938 222.203125 196.179688 222.0625 196.179688 221.785156 L 195.570312 208.515625 L 188.117188 221.851562 C 187.980469 222.09375 187.773438 222.210938 187.496094 222.203125 L 187.253906 222.203125 C 187.003906 222.203125 186.847656 222.066406 186.785156 221.796875 L 186.015625 205.066406 C 185.996094 204.832031 185.976562 204.660156 185.953125 204.542969 C 185.933594 204.433594 185.886719 204.347656 185.8125 204.296875 C 185.707031 204.226562 185.535156 204.183594 185.296875 204.164062 C 185.058594 204.148438 184.773438 204.140625 184.441406 204.140625 C 184.21875 204.140625 184.09375 204.023438 184.078125 203.785156 L 184.078125 203.695312 L 184.132812 203.460938 C 184.230469 203.199219 184.40625 203.066406 184.65625 203.066406 C 185.5 203.117188 186.355469 203.144531 187.226562 203.144531 C 187.363281 203.144531 187.5 203.136719 187.644531 203.117188 C 188.648438 203.117188 189.667969 203.101562 190.699219 203.066406 C 190.933594 203.066406 191.050781 203.183594 191.050781 203.417969 L 191.050781 203.511719 L 190.996094 203.746094 C 190.898438 204.007812 190.722656 204.140625 190.472656 204.140625 C 190.140625 204.140625 189.84375 204.152344 189.582031 204.179688 C 189.324219 204.207031 189.070312 204.273438 188.828125 204.386719 C 188.613281 204.5 188.511719 204.667969 188.519531 204.886719 L 189.125 217.929688 L 195.464844 206.570312 L 195.410156 205.066406 C 195.390625 204.832031 195.371094 204.660156 195.351562 204.542969 C 195.328125 204.433594 195.277344 204.347656 195.195312 204.296875 C 195.085938 204.226562 194.914062 204.183594 194.671875 204.164062 C 194.429688 204.148438 194.148438 204.140625 193.835938 204.140625 C 193.703125 204.140625 193.601562 204.097656 193.539062 204.007812 C 193.484375 203.957031 193.460938 203.890625 193.460938 203.8125 C 193.460938 203.761719 193.472656 203.710938 193.5 203.667969 L 193.539062 203.472656 C 193.59375 203.203125 193.769531 203.066406 194.066406 203.066406 C 194.90625 203.117188 195.761719 203.144531 196.621094 203.144531 C 196.738281 203.144531 196.875 203.136719 197.027344 203.117188 C 198.03125 203.117188 199.042969 203.101562 200.066406 203.066406 C 200.191406 203.066406 200.300781 203.109375 200.390625 203.199219 C 200.425781 203.269531 200.445312 203.332031 200.445312 203.394531 C 200.445312 203.445312 200.429688 203.496094 200.402344 203.535156 L 200.363281 203.734375 C 200.335938 203.847656 200.277344 203.945312 200.183594 204.023438 C 200.085938 204.097656 199.976562 204.140625 199.851562 204.140625 C 199.539062 204.140625 199.246094 204.152344 198.972656 204.179688 C 198.699219 204.207031 198.445312 204.273438 198.210938 204.386719 C 198.011719 204.5 197.914062 204.675781 197.914062 204.910156 L 198.492188 217.929688 L 205.4375 205.578125 C 205.535156 205.402344 205.585938 205.246094 205.585938 205.105469 C 205.585938 204.941406 205.519531 204.78125 205.382812 204.621094 C 205.257812 204.441406 205.082031 204.316406 204.851562 204.242188 C 204.625 204.171875 204.363281 204.140625 204.066406 204.140625 C 203.929688 204.140625 203.832031 204.097656 203.769531 204.007812 C 203.714844 203.957031 203.6875 203.890625 203.6875 203.8125 C 203.6875 203.761719 203.703125 203.710938 203.730469 203.667969 L 203.769531 203.472656 C 203.796875 203.359375 203.855469 203.261719 203.949219 203.183594 C 204.046875 203.109375 204.15625 203.066406 204.28125 203.066406 C 204.738281 203.085938 205.199219 203.09375 205.667969 203.09375 C 206.125 203.09375 206.582031 203.101562 207.039062 203.117188 L 208.117188 203.117188 C 208.484375 203.117188 208.855469 203.101562 209.222656 203.066406 C 209.453125 203.066406 209.570312 203.183594 209.570312 203.417969 L 209.570312 203.511719 Z M 209.515625 203.746094 "/>
<path style=" stroke:none;fill-rule:evenodd;fill:rgb(0%,0%,0%);fill-opacity:1;" d="M 124.242188 93.859375 C 122.761719 93.804688 121.3125 93.78125 119.894531 93.78125 C 118.492188 93.78125 117.046875 93.804688 115.558594 93.859375 L 115.558594 92.773438 C 116.070312 92.773438 116.566406 92.769531 117.046875 92.753906 C 117.527344 92.742188 117.890625 92.695312 118.144531 92.617188 C 118.269531 92.574219 118.367188 92.488281 118.433594 92.363281 C 118.5 92.238281 118.53125 92.09375 118.53125 91.9375 L 118.53125 77.207031 C 118.53125 77.050781 118.5 76.910156 118.433594 76.78125 C 118.367188 76.65625 118.269531 76.570312 118.144531 76.527344 C 117.890625 76.449219 117.527344 76.40625 117.046875 76.394531 C 116.566406 76.386719 116.070312 76.382812 115.558594 76.382812 L 115.558594 75.3125 C 117.046875 75.347656 118.492188 75.363281 119.894531 75.363281 C 121.3125 75.363281 122.761719 75.347656 124.242188 75.3125 L 124.242188 76.382812 C 123.730469 76.382812 123.234375 76.386719 122.753906 76.394531 C 122.273438 76.40625 121.910156 76.449219 121.667969 76.527344 C 121.542969 76.570312 121.445312 76.65625 121.375 76.789062 C 121.300781 76.921875 121.265625 77.058594 121.265625 77.207031 L 121.265625 91.9375 C 121.265625 92.09375 121.300781 92.238281 121.367188 92.363281 C 121.433594 92.488281 121.535156 92.574219 121.667969 92.617188 C 121.921875 92.695312 122.285156 92.742188 122.761719 92.753906 C 123.234375 92.769531 123.730469 92.773438 124.242188 92.773438 Z M 124.242188 93.859375 "/>
<path style=" stroke:none;fill-rule:evenodd;fill:rgb(0%,0%,0%);fill-opacity:1;" d="M 272.527344 93.859375 C 271.046875 93.804688 269.597656 93.78125 268.179688 93.78125 C 266.777344 93.78125 265.332031 93.804688 263.84375 93.859375 L 263.84375 92.773438 C 264.355469 92.773438 264.851562 92.769531 265.332031 92.753906 C 265.8125 92.742188 266.175781 92.695312 266.429688 92.617188 C 266.554688 92.574219 266.652344 92.488281 266.71875 92.363281 C 266.785156 92.238281 266.820312 92.09375 266.820312 91.9375 L 266.820312 77.207031 C 266.820312 77.050781 266.785156 76.910156 266.71875 76.78125 C 266.652344 76.65625 266.554688 76.570312 266.429688 76.527344 C 266.175781 76.449219 265.8125 76.40625 265.332031 76.394531 C 264.851562 76.386719 264.355469 76.382812 263.84375 76.382812 L 263.84375 75.3125 C 265.332031 75.347656 266.777344 75.363281 268.179688 75.363281 C 269.597656 75.363281 271.046875 75.347656 272.527344 75.3125 L 272.527344 76.382812 C 272.015625 76.382812 271.519531 76.386719 271.039062 76.394531 C 270.558594 76.40625 270.195312 76.449219 269.953125 76.527344 C 269.828125 76.570312 269.730469 76.65625 269.660156 76.789062 C 269.585938 76.921875 269.550781 77.058594 269.550781 77.207031 L 269.550781 91.9375 C 269.550781 92.09375 269.585938 92.238281 269.652344 92.363281 C 269.71875 92.488281 269.820312 92.574219 269.953125 92.617188 C 270.207031 92.695312 270.570312 92.742188 271.046875 92.753906 C 271.519531 92.769531 272.015625 92.773438 272.527344 92.773438 Z M 272.527344 93.859375 "/>
<path style=" stroke:none;fill-rule:evenodd;fill:rgb(0%,0%,0%);fill-opacity:1;" d="M 282.261719 93.859375 C 280.78125 93.804688 279.332031 93.78125 277.914062 93.78125 C 276.515625 93.78125 275.070312 93.804688 273.582031 93.859375 L 273.582031 92.773438 C 274.09375 92.773438 274.589844 92.769531 275.070312 92.753906 C 275.550781 92.742188 275.914062 92.695312 276.164062 92.617188 C 276.289062 92.574219 276.386719 92.488281 276.453125 92.363281 C 276.523438 92.238281 276.554688 92.09375 276.554688 91.9375 L 276.554688 77.207031 C 276.554688 77.050781 276.523438 76.910156 276.453125 76.78125 C 276.386719 76.65625 276.289062 76.570312 276.164062 76.527344 C 275.914062 76.449219 275.550781 76.40625 275.070312 76.394531 C 274.589844 76.386719 274.09375 76.382812 273.582031 76.382812 L 273.582031 75.3125 C 275.070312 75.347656 276.515625 75.363281 277.914062 75.363281 C 279.332031 75.363281 280.78125 75.347656 282.261719 75.3125 L 282.261719 76.382812 C 281.75 76.382812 281.253906 76.386719 280.773438 76.394531 C 280.292969 76.40625 279.933594 76.449219 279.691406 76.527344 C 279.566406 76.570312 279.46875 76.65625 279.394531 76.789062 C 279.324219 76.921875 279.289062 77.058594 279.289062 77.207031 L 279.289062 91.9375 C 279.289062 92.09375 279.320312 92.238281 279.390625 92.363281 C 279.457031 92.488281 279.558594 92.574219 279.691406 92.617188 C 279.941406 92.695312 280.304688 92.742188 280.78125 92.753906 C 281.257812 92.769531 281.75 92.773438 282.261719 92.773438 Z M 282.261719 93.859375 "/>
<path style=" stroke:none;fill-rule:evenodd;fill:rgb(0%,0%,0%);fill-opacity:1;" d="M 127.140625 329.03125 C 127.089844 329.296875 126.925781 329.425781 126.65625 329.421875 C 126.371094 329.425781 126.097656 329.457031 125.835938 329.523438 C 125.578125 329.589844 125.324219 329.699219 125.078125 329.855469 C 124.828125 330.015625 124.605469 330.203125 124.398438 330.425781 C 124.191406 330.648438 124 330.898438 123.832031 331.175781 L 114.019531 347.136719 C 113.886719 347.378906 113.679688 347.496094 113.398438 347.488281 L 113.144531 347.488281 C 112.8125 347.488281 112.652344 347.347656 112.660156 347.070312 L 110.976562 330.378906 C 110.941406 330.152344 110.90625 329.976562 110.871094 329.847656 C 110.835938 329.722656 110.78125 329.632812 110.707031 329.578125 C 110.582031 329.511719 110.382812 329.46875 110.109375 329.453125 C 109.835938 329.433594 109.523438 329.425781 109.175781 329.421875 C 109.039062 329.425781 108.941406 329.378906 108.878906 329.292969 C 108.824219 329.242188 108.796875 329.175781 108.796875 329.097656 C 108.796875 329.042969 108.8125 328.996094 108.839844 328.953125 L 108.878906 328.757812 C 108.90625 328.644531 108.964844 328.550781 109.058594 328.46875 C 109.15625 328.390625 109.269531 328.351562 109.402344 328.351562 C 110.265625 328.40625 111.136719 328.433594 112.015625 328.429688 C 112.148438 328.433594 112.292969 328.421875 112.445312 328.40625 C 113.484375 328.40625 114.527344 328.386719 115.566406 328.351562 C 115.695312 328.351562 115.804688 328.398438 115.902344 328.484375 C 115.941406 328.550781 115.957031 328.617188 115.957031 328.679688 C 115.957031 328.734375 115.945312 328.78125 115.917969 328.824219 L 115.878906 329.019531 C 115.851562 329.140625 115.785156 329.238281 115.683594 329.3125 C 115.578125 329.386719 115.46875 329.425781 115.351562 329.421875 C 115.039062 329.425781 114.75 329.4375 114.492188 329.460938 C 114.230469 329.488281 113.976562 329.558594 113.722656 329.671875 C 113.570312 329.75 113.5 329.882812 113.507812 330.066406 L 113.507812 330.15625 C 113.820312 332.476562 114.074219 334.804688 114.261719 337.144531 C 114.449219 339.484375 114.652344 341.699219 114.867188 343.789062 L 122.808594 330.859375 C 122.925781 330.679688 122.996094 330.488281 123.023438 330.285156 L 123.023438 330.222656 C 123.023438 330.089844 122.992188 329.972656 122.929688 329.867188 C 122.734375 329.570312 122.363281 329.425781 121.824219 329.421875 C 121.59375 329.425781 121.476562 329.308594 121.476562 329.070312 L 121.476562 328.980469 L 121.53125 328.742188 C 121.628906 328.484375 121.804688 328.351562 122.054688 328.351562 C 122.84375 328.386719 123.636719 328.40625 124.4375 328.40625 C 124.542969 328.421875 124.648438 328.433594 124.746094 328.429688 C 125.429688 328.433594 126.128906 328.40625 126.847656 328.351562 C 127.089844 328.351562 127.21875 328.46875 127.238281 328.703125 L 127.238281 328.808594 Z M 127.140625 329.03125 "/>
<path style=" stroke:none;fill-rule:evenodd;fill:rgb(0%,0%,0%);fill-opacity:1;" d="M 131.332031 350.695312 C 130.296875 350.667969 129.289062 350.652344 128.308594 350.652344 C 127.332031 350.652344 126.324219 350.667969 125.289062 350.695312 L 125.289062 350.066406 L 125.871094 350.066406 C 126.058594 350.066406 126.230469 350.066406 126.394531 350.058594 C 126.558594 350.054688 126.710938 350.042969 126.859375 350.023438 C 127.003906 350.003906 127.132812 349.984375 127.238281 349.964844 C 127.328125 349.949219 127.402344 349.90625 127.460938 349.828125 C 127.523438 349.753906 127.550781 349.667969 127.550781 349.578125 L 127.550781 341.328125 C 127.269531 341.449219 126.921875 341.542969 126.511719 341.605469 C 126.101562 341.667969 125.652344 341.699219 125.164062 341.699219 L 125.164062 341.078125 C 125.839844 341.078125 126.460938 341.007812 127.03125 340.863281 C 127.605469 340.71875 128.097656 340.449219 128.511719 340.054688 L 128.773438 340.054688 C 128.960938 340.054688 129.054688 340.136719 129.054688 340.296875 L 129.054688 349.578125 C 129.054688 349.675781 129.082031 349.761719 129.136719 349.832031 C 129.195312 349.90625 129.277344 349.949219 129.382812 349.964844 C 129.472656 349.984375 129.589844 350.003906 129.730469 350.023438 C 129.871094 350.042969 130.027344 350.054688 130.207031 350.058594 C 130.382812 350.066406 130.554688 350.066406 130.726562 350.066406 L 131.332031 350.066406 Z M 131.332031 350.695312 "/>
<path style=" stroke:none;fill-rule:evenodd;fill:rgb(0%,0%,0%);fill-opacity:1;" d="M 32.773438 112.496094 C 32.566406 113.253906 32.261719 114.003906 31.863281 114.746094 C 31.464844 115.484375 30.945312 116.167969 30.308594 116.796875 C 29.789062 117.320312 29.199219 117.757812 28.539062 118.109375 C 27.878906 118.464844 27.195312 118.636719 26.484375 118.636719 C 25.902344 118.636719 25.421875 118.476562 25.046875 118.15625 C 24.667969 117.832031 24.429688 117.570312 24.332031 117.371094 L 23.214844 121.65625 C 23.160156 121.875 23.128906 122.035156 23.121094 122.140625 C 23.121094 122.230469 23.140625 122.285156 23.175781 122.3125 C 23.28125 122.382812 23.492188 122.425781 23.800781 122.441406 C 24.109375 122.460938 24.457031 122.46875 24.84375 122.46875 C 25.078125 122.46875 25.195312 122.582031 25.195312 122.808594 L 25.195312 122.898438 L 25.140625 123.148438 C 25.042969 123.410156 24.867188 123.535156 24.617188 123.527344 C 23.753906 123.492188 22.902344 123.464844 22.058594 123.449219 L 21.667969 123.449219 C 20.933594 123.449219 20.1875 123.476562 19.433594 123.527344 C 19.199219 123.527344 19.085938 123.414062 19.082031 123.1875 L 19.082031 123.097656 L 19.136719 122.847656 C 19.238281 122.585938 19.410156 122.460938 19.660156 122.46875 C 19.976562 122.46875 20.238281 122.460938 20.445312 122.441406 C 20.648438 122.425781 20.796875 122.386719 20.886719 122.324219 C 20.976562 122.28125 21.070312 122.042969 21.167969 121.605469 L 24.292969 109.527344 C 24.4375 108.960938 24.507812 108.472656 24.507812 108.0625 L 24.507812 107.75 C 24.464844 107.332031 24.253906 107.125 23.875 107.125 C 23.480469 107.125 23.148438 107.441406 22.886719 108.078125 C 22.621094 108.714844 22.363281 109.542969 22.113281 110.5625 C 22.011719 110.796875 21.847656 110.917969 21.613281 110.925781 L 21.304688 110.925781 C 21.089844 110.925781 20.980469 110.820312 20.980469 110.601562 L 20.980469 110.507812 C 21.089844 110.101562 21.210938 109.652344 21.34375 109.167969 C 21.480469 108.6875 21.660156 108.226562 21.882812 107.796875 C 22.109375 107.367188 22.390625 107 22.730469 106.699219 C 23.074219 106.398438 23.496094 106.25 24.007812 106.246094 C 24.691406 106.25 25.238281 106.441406 25.644531 106.828125 C 26.054688 107.21875 26.292969 107.609375 26.363281 108 C 26.714844 107.597656 27.183594 107.207031 27.773438 106.824219 C 28.359375 106.441406 28.980469 106.25 29.636719 106.246094 C 30.328125 106.25 30.917969 106.429688 31.40625 106.789062 C 31.894531 107.152344 32.273438 107.605469 32.542969 108.144531 C 32.867188 108.789062 33.035156 109.484375 33.054688 110.234375 L 33.054688 110.417969 C 33.054688 111.089844 32.960938 111.78125 32.773438 112.496094 Z M 30.792969 108.523438 C 30.710938 108.105469 30.5625 107.765625 30.34375 107.507812 C 30.121094 107.253906 29.832031 107.125 29.472656 107.125 C 29.0625 107.125 28.640625 107.265625 28.214844 107.542969 C 27.789062 107.820312 27.398438 108.175781 27.039062 108.601562 C 26.761719 108.957031 26.515625 109.292969 26.3125 109.605469 L 24.832031 115.320312 C 24.867188 115.503906 24.902344 115.675781 24.933594 115.84375 C 24.964844 116.007812 25.003906 116.167969 25.058594 116.324219 C 25.195312 116.753906 25.390625 117.101562 25.644531 117.371094 C 25.902344 117.640625 26.238281 117.777344 26.660156 117.777344 C 27.039062 117.777344 27.410156 117.636719 27.777344 117.359375 C 28.144531 117.078125 28.480469 116.730469 28.789062 116.3125 C 29.21875 115.730469 29.542969 115.109375 29.757812 114.449219 C 29.972656 113.792969 30.167969 113.121094 30.347656 112.429688 C 30.527344 111.714844 30.6875 111.027344 30.820312 110.363281 C 30.875 110.050781 30.902344 109.746094 30.902344 109.449219 C 30.902344 109.136719 30.863281 108.828125 30.792969 108.523438 Z M 30.792969 108.523438 "/>
<path style=" stroke:none;fill-rule:evenodd;fill:rgb(0%,0%,0%);fill-opacity:1;" d="M 125.691406 111.296875 C 125.691406 113.945312 123.546875 116.089844 120.898438 116.089844 C 118.25 116.089844 116.105469 113.945312 116.105469 111.296875 C 116.105469 108.648438 118.25 106.5 120.898438 106.5 C 123.546875 106.5 125.691406 108.648438 125.691406 111.296875 Z M 125.691406 111.296875 "/>
<path style="fill:none;stroke-width:15;stroke-linecap:round;stroke-linejoin:round;stroke:rgb(0%,0%,0%);stroke-opacity:1;stroke-dasharray:120,60;stroke-miterlimit:10;" d="M 908.030789 420.07782 L 908.030789 1943.851422 " transform="matrix(0.133144,0,0,-0.133181,0,371.9893)"/>
<path style=" stroke:none;fill-rule:evenodd;fill:rgb(0%,0%,0%);fill-opacity:1;" d="M 278.984375 111.296875 C 278.984375 113.945312 276.835938 116.089844 274.191406 116.089844 C 271.542969 116.089844 269.398438 113.945312 269.398438 111.296875 C 269.398438 108.648438 271.542969 106.5 274.191406 106.5 C 276.835938 106.5 278.984375 108.648438 278.984375 111.296875 Z M 278.984375 111.296875 "/>
<path style="fill:none;stroke-width:15;stroke-linecap:round;stroke-linejoin:round;stroke:rgb(0%,0%,0%);stroke-opacity:1;stroke-dasharray:120,60;stroke-miterlimit:10;" d="M 2059.366888 420.07782 L 2059.366888 1943.851422 " transform="matrix(0.133144,0,0,-0.133181,0,371.9893)"/>
<path style=" stroke:none;fill-rule:evenodd;fill:rgb(0%,0%,0%);fill-opacity:1;" d="M 279.8125 329.03125 C 279.761719 329.296875 279.597656 329.425781 279.328125 329.421875 C 279.042969 329.425781 278.769531 329.457031 278.507812 329.523438 C 278.25 329.589844 277.996094 329.699219 277.75 329.855469 C 277.5 330.015625 277.277344 330.203125 277.070312 330.425781 C 276.863281 330.648438 276.671875 330.898438 276.503906 331.175781 L 266.691406 347.136719 C 266.558594 347.378906 266.351562 347.496094 266.070312 347.488281 L 265.816406 347.488281 C 265.484375 347.488281 265.324219 347.347656 265.332031 347.070312 L 263.648438 330.378906 C 263.613281 330.152344 263.578125 329.976562 263.542969 329.847656 C 263.503906 329.722656 263.453125 329.632812 263.378906 329.578125 C 263.253906 329.511719 263.054688 329.46875 262.78125 329.453125 C 262.507812 329.433594 262.195312 329.425781 261.847656 329.421875 C 261.710938 329.425781 261.613281 329.378906 261.550781 329.292969 C 261.496094 329.242188 261.46875 329.175781 261.46875 329.097656 C 261.46875 329.042969 261.484375 328.996094 261.507812 328.953125 L 261.550781 328.757812 C 261.578125 328.644531 261.636719 328.550781 261.730469 328.46875 C 261.828125 328.390625 261.941406 328.351562 262.074219 328.351562 C 262.9375 328.40625 263.808594 328.433594 264.6875 328.429688 C 264.820312 328.433594 264.964844 328.421875 265.117188 328.40625 C 266.15625 328.40625 267.199219 328.386719 268.238281 328.351562 C 268.363281 328.351562 268.476562 328.398438 268.574219 328.484375 C 268.613281 328.550781 268.628906 328.617188 268.628906 328.679688 C 268.628906 328.734375 268.617188 328.78125 268.589844 328.824219 L 268.550781 329.019531 C 268.523438 329.140625 268.457031 329.238281 268.355469 329.3125 C 268.25 329.386719 268.140625 329.425781 268.023438 329.421875 C 267.710938 329.425781 267.421875 329.4375 267.160156 329.460938 C 266.902344 329.488281 266.648438 329.558594 266.394531 329.671875 C 266.242188 329.75 266.171875 329.882812 266.179688 330.066406 L 266.179688 330.15625 C 266.492188 332.476562 266.746094 334.804688 266.933594 337.144531 C 267.121094 339.484375 267.324219 341.699219 267.539062 343.789062 L 275.480469 330.859375 C 275.597656 330.679688 275.667969 330.488281 275.695312 330.285156 L 275.695312 330.222656 C 275.695312 330.089844 275.664062 329.972656 275.601562 329.867188 C 275.402344 329.570312 275.035156 329.425781 274.496094 329.421875 C 274.265625 329.425781 274.148438 329.308594 274.148438 329.070312 L 274.148438 328.980469 L 274.203125 328.742188 C 274.300781 328.484375 274.476562 328.351562 274.726562 328.351562 C 275.515625 328.386719 276.308594 328.40625 277.109375 328.40625 C 277.214844 328.421875 277.320312 328.433594 277.417969 328.429688 C 278.101562 328.433594 278.800781 328.40625 279.519531 328.351562 C 279.761719 328.351562 279.890625 328.46875 279.910156 328.703125 L 279.910156 328.808594 Z M 279.8125 329.03125 "/>
<path style=" stroke:none;fill-rule:evenodd;fill:rgb(0%,0%,0%);fill-opacity:1;" d="M 284.636719 350.695312 L 277.765625 350.695312 L 277.765625 350.292969 C 277.765625 350.265625 277.785156 350.222656 277.816406 350.164062 L 280.578125 347.484375 C 280.90625 347.160156 281.234375 346.832031 281.570312 346.496094 C 281.90625 346.160156 282.203125 345.816406 282.46875 345.464844 C 282.734375 345.113281 282.945312 344.75 283.101562 344.375 C 283.257812 344.003906 283.339844 343.613281 283.339844 343.199219 C 283.339844 342.855469 283.289062 342.53125 283.1875 342.230469 C 283.085938 341.933594 282.9375 341.667969 282.746094 341.441406 C 282.554688 341.214844 282.316406 341.03125 282.027344 340.890625 C 281.742188 340.753906 281.410156 340.683594 281.035156 340.683594 C 280.472656 340.683594 279.972656 340.832031 279.542969 341.132812 C 279.113281 341.433594 278.828125 341.765625 278.6875 342.125 C 278.660156 342.136719 278.703125 342.140625 278.820312 342.140625 L 278.964844 342.140625 C 279.132812 342.175781 279.28125 342.226562 279.40625 342.296875 C 279.527344 342.367188 279.632812 342.464844 279.71875 342.589844 C 279.800781 342.714844 279.84375 342.863281 279.84375 343.039062 C 279.84375 343.332031 279.738281 343.558594 279.523438 343.714844 C 279.308594 343.871094 279.070312 343.949219 278.804688 343.949219 C 278.550781 343.949219 278.316406 343.871094 278.097656 343.714844 C 277.878906 343.558594 277.765625 343.332031 277.765625 343.039062 C 277.765625 342.628906 277.855469 342.242188 278.039062 341.875 C 278.21875 341.511719 278.460938 341.195312 278.769531 340.925781 C 279.082031 340.65625 279.445312 340.445312 279.867188 340.289062 C 280.289062 340.132812 280.738281 340.054688 281.210938 340.054688 C 281.796875 340.054688 282.332031 340.132812 282.820312 340.285156 C 283.304688 340.4375 283.71875 340.660156 284.0625 340.945312 C 284.40625 341.234375 284.675781 341.566406 284.871094 341.945312 C 285.0625 342.324219 285.160156 342.742188 285.160156 343.199219 C 285.160156 343.710938 285.03125 344.175781 284.769531 344.601562 C 284.511719 345.03125 284.195312 345.421875 283.808594 345.777344 C 283.425781 346.132812 283.019531 346.46875 282.589844 346.785156 C 282.160156 347.097656 281.769531 347.40625 281.421875 347.703125 L 279.480469 349.335938 L 282.019531 349.335938 C 282.375 349.335938 282.707031 349.332031 283.011719 349.328125 C 283.320312 349.324219 283.582031 349.3125 283.792969 349.300781 C 284.007812 349.285156 284.117188 349.273438 284.121094 349.269531 C 284.167969 349.234375 284.210938 349.167969 284.25 349.066406 C 284.289062 348.960938 284.324219 348.839844 284.359375 348.703125 C 284.394531 348.5625 284.425781 348.421875 284.460938 348.277344 C 284.496094 348.132812 284.523438 347.976562 284.554688 347.804688 L 285.175781 347.804688 Z M 284.636719 350.695312 "/>
</g>
</svg>
