<?xml version="1.0" encoding="UTF-8"?>
<svg xmlns="http://www.w3.org/2000/svg" xmlns:xlink="http://www.w3.org/1999/xlink" width="805.98pt" height="466.98pt" viewBox="0 0 805.98 466.98" version="1.1">
<defs>
<clipPath id="clip1">
  <path d="M 736 18 L 805.121094 18 L 805.121094 195 L 736 195 Z M 736 18 "/>
</clipPath>
<clipPath id="clip2">
  <path d="M 736 274 L 805.121094 274 L 805.121094 451 L 736 451 Z M 736 274 "/>
</clipPath>
</defs>
<g id="surface1">
<path style="fill-rule:evenodd;fill:rgb(0%,50.19989%,50.19989%);fill-opacity:0.69804;stroke-width:15;stroke-linecap:round;stroke-linejoin:round;stroke:rgb(0%,0%,0%);stroke-opacity:1;stroke-miterlimit:10;" d="M 2594.54032 809.233146 L 2594.54032 2309.22159 L 2774.539721 2309.22159 L 2774.539721 809.233146 Z M 2594.54032 809.233146 " transform="matrix(0.146507,0,0,-0.146514,0,467.2477)"/>
<path style="fill-rule:evenodd;fill:rgb(0%,50.19989%,50.19989%);fill-opacity:0.69804;stroke-width:15;stroke-linecap:round;stroke-linejoin:round;stroke:rgb(0%,0%,0%);stroke-opacity:1;stroke-miterlimit:10;" d="M 2778.37914 1469.232327 L 5340.950969 1469.232327 L 5340.950969 1649.222409 L 2778.37914 1649.222409 Z M 2778.37914 1469.232327 " transform="matrix(0.146507,0,0,-0.146514,0,467.2477)"/>
<path style="fill-rule:evenodd;fill:rgb(0%,50.19989%,50.19989%);fill-opacity:0.69804;stroke-width:15;stroke-linecap:round;stroke-linejoin:round;stroke:rgb(0%,0%,0%);stroke-opacity:1;stroke-miterlimit:10;" d="M 1078.503298 2314.447195 L 5103.44028 2314.447195 L 5103.44028 2494.437276 L 1078.503298 2494.437276 Z M 1078.503298 2314.447195 " transform="matrix(0.146507,0,0,-0.146514,0,467.2477)"/>
<path style="fill-rule:evenodd;fill:rgb(0%,50.19989%,50.19989%);fill-opacity:0.69804;stroke-width:15;stroke-linecap:round;stroke-linejoin:round;stroke:rgb(0%,0%,0%);stroke-opacity:1;stroke-miterlimit:10;" d="M 1078.503298 625.217216 L 5103.44028 625.217216 L 5103.44028 805.207298 L 1078.503298 805.207298 Z M 1078.503298 625.217216 " transform="matrix(0.146507,0,0,-0.146514,0,467.2477)"/>
<g clip-path="url(#clip1)" clip-rule="nonzero">
<path style=" stroke:none;fill-rule:evenodd;fill:rgb(100%,100%,100%);fill-opacity:1;" d="M 736.699219 194.433594 L 912.507812 194.433594 L 912.507812 18.617188 L 736.699219 18.617188 Z M 736.699219 194.433594 "/>
</g>
<g clip-path="url(#clip2)" clip-rule="nonzero">
<path style=" stroke:none;fill-rule:evenodd;fill:rgb(100%,100%,100%);fill-opacity:1;" d="M 736.699219 450.367188 L 912.507812 450.367188 L 912.507812 274.550781 L 736.699219 274.550781 Z M 736.699219 450.367188 "/>
</g>
<path style=" stroke:none;fill-rule:nonzero;fill:rgb(0%,0%,94.099426%);fill-opacity:1;" d="M 130.882812 303.632812 L 228.710938 303.632812 L 228.710938 308.027344 L 130.882812 308.027344 C 129.667969 308.027344 128.683594 307.042969 128.683594 305.828125 C 128.683594 304.617188 129.667969 303.632812 130.882812 303.632812 Z M 263.835938 305.828125 L 219.882812 297.039062 L 228.675781 303.632812 L 228.675781 308.027344 L 219.882812 314.621094 Z M 263.835938 305.828125 "/>
<path style="fill:none;stroke-width:15;stroke-linecap:round;stroke-linejoin:round;stroke:rgb(0%,0%,0%);stroke-opacity:1;stroke-dasharray:120,60;stroke-miterlimit:10;" d="M 3754.391296 2309.22159 L 3754.391296 809.233146 " transform="matrix(0.146507,0,0,-0.146514,0,467.2477)"/>
<path style="fill:none;stroke-width:15;stroke-linecap:round;stroke-linejoin:round;stroke:rgb(0%,0%,0%);stroke-opacity:1;stroke-dasharray:120,60;stroke-miterlimit:10;" d="M 3920.979396 2309.22159 L 3920.979396 809.233146 " transform="matrix(0.146507,0,0,-0.146514,0,467.2477)"/>
<path style="fill:none;stroke-width:15;stroke-linecap:round;stroke-linejoin:round;stroke:rgb(0%,0%,0%);stroke-opacity:1;stroke-miterlimit:10;" d="M 116.728985 160.45835 L 1074.370591 160.45835 L 1074.370591 2957.996386 L 116.728985 2957.996386 Z M 116.728985 160.45835 " transform="matrix(0.146507,0,0,-0.146514,0,467.2477)"/>
<path style=" stroke:none;fill-rule:evenodd;fill:rgb(0%,0%,0%);fill-opacity:1;" d="M 78.90625 68.558594 L 101.398438 68.558594 L 103.933594 66.09375 L 107.648438 69.699219 L 85.359375 69.699219 C 83.414062 69.730469 81.847656 69.90625 80.671875 70.285156 Z M 102.167969 77.875 L 102.167969 90.210938 C 102.167969 92.496094 102.238281 94.78125 102.371094 97.039062 L 99.441406 98.359375 L 99.441406 95.515625 L 85.359375 95.515625 L 85.359375 97.800781 L 82.429688 99.324219 C 82.558594 95.28125 82.617188 91.148438 82.617188 86.898438 C 82.617188 82.652344 82.558594 78.460938 82.429688 74.269531 L 85.359375 75.96875 L 99.046875 75.96875 L 100.800781 74.066406 L 103.933594 76.730469 Z M 85.359375 77.113281 L 85.359375 84.703125 L 99.441406 84.703125 L 99.441406 77.113281 Z M 85.359375 85.84375 L 85.359375 94.371094 L 99.441406 94.371094 L 99.441406 85.84375 Z M 75.785156 102.929688 L 101.773438 102.929688 L 104.71875 100.085938 L 108.820312 104.070312 L 82.035156 104.070312 C 80.210938 104.070312 78.714844 104.246094 77.539062 104.628906 Z M 67.5625 75.414062 C 67.707031 77.316406 67.765625 78.902344 67.765625 80.160156 C 67.765625 81.421875 67.671875 82.503906 67.480469 83.382812 C 67.292969 84.261719 66.828125 84.847656 66.105469 85.082031 C 65.394531 85.347656 64.835938 85.464844 64.445312 85.464844 C 63.921875 85.464844 63.472656 85.257812 63.082031 84.820312 C 62.6875 84.378906 63.082031 83.53125 64.242188 82.242188 C 65.429688 81.097656 66.269531 78.84375 66.792969 75.414062 Z M 73.046875 73.128906 L 73.046875 97.625 C 73.046875 100.789062 73.117188 103.75 73.234375 106.53125 L 70.304688 107.675781 C 70.445312 103.367188 70.507812 99.648438 70.507812 96.480469 L 70.507812 72.191406 C 70.507812 68.644531 70.445312 65.597656 70.304688 63.078125 L 75.003906 65.15625 L 73.046875 66.679688 L 73.046875 72.367188 C 75.914062 73.65625 77.671875 74.652344 78.324219 75.414062 C 78.976562 76.175781 79.296875 76.878906 79.296875 77.492188 C 79.296875 78.140625 79.140625 78.785156 78.808594 79.398438 C 78.488281 80.042969 78.191406 80.335938 77.933594 80.335938 C 77.539062 80.335938 77.148438 79.839844 76.757812 78.8125 C 76.117188 77.171875 74.871094 75.296875 73.046875 73.128906 Z M 73.046875 73.128906 "/>
<path style=" stroke:none;fill-rule:evenodd;fill:rgb(0%,0%,0%);fill-opacity:1;" d="M 82.84375 143.058594 L 82.84375 148.941406 L 98.3125 148.941406 L 98.3125 143.058594 Z M 82.84375 150.078125 L 82.84375 156.914062 L 98.3125 156.914062 L 98.3125 150.078125 Z M 79.523438 164.886719 L 79.523438 179.121094 L 85.195312 179.121094 L 85.195312 164.886719 Z M 87.539062 164.886719 L 87.539062 179.121094 L 93.023438 179.121094 L 93.023438 164.886719 Z M 95.371094 164.886719 L 95.371094 179.121094 L 101.050781 179.121094 L 101.050781 164.886719 Z M 80.101562 160.710938 C 80.246094 158.3125 80.304688 154.648438 80.304688 149.714844 C 80.304688 144.777344 80.246094 141.550781 80.101562 140.019531 L 82.84375 141.917969 L 97.921875 141.917969 L 99.285156 140.019531 L 102.226562 142.109375 L 100.851562 143.246094 C 100.851562 150.851562 100.921875 156.167969 101.050781 159.191406 L 98.3125 160.140625 L 98.3125 158.054688 L 82.84375 158.054688 L 82.84375 159.570312 Z M 76.78125 162.039062 L 79.523438 163.746094 L 100.851562 163.746094 L 102.023438 162.039062 L 104.964844 164.128906 L 103.59375 165.457031 L 103.59375 179.121094 L 104.183594 179.121094 L 106.535156 176.84375 L 109.464844 180.261719 L 78.144531 180.261719 C 76.460938 180.261719 74.894531 180.449219 73.449219 180.832031 L 71.691406 179.121094 L 76.972656 179.121094 L 76.972656 166.59375 C 76.972656 165.339844 76.914062 163.816406 76.78125 162.039062 Z M 77.753906 146.09375 C 73.980469 160.023438 71.929688 167.78125 71.597656 169.359375 C 71.265625 170.945312 71.074219 172.867188 71.003906 175.148438 C 70.945312 177.425781 70.980469 179 71.101562 179.882812 C 71.101562 180.390625 70.839844 180.640625 70.316406 180.640625 C 69.792969 180.640625 69.117188 180.484375 68.265625 180.164062 C 67.421875 179.859375 66.996094 179.25 66.996094 178.363281 C 66.996094 177.617188 67.195312 176.667969 67.578125 175.515625 C 67.980469 174.257812 68.167969 173.25 68.167969 172.480469 C 68.167969 171.730469 67.882812 171.101562 67.292969 170.59375 C 66.699219 170.09375 65.429688 169.582031 63.472656 169.0625 L 63.472656 168.304688 C 65.820312 168.5625 67.257812 168.667969 67.777344 168.597656 C 68.300781 168.539062 68.929688 167.96875 69.640625 166.890625 C 70.351562 165.824219 72.796875 158.824219 76.972656 145.90625 Z M 64.054688 150.460938 C 67.589844 151.992188 69.472656 153.257812 69.734375 154.265625 C 69.996094 155.289062 69.867188 156.144531 69.34375 156.832031 C 68.820312 157.53125 68.429688 157.875 68.167969 157.863281 C 67.910156 157.875 67.648438 157.433594 67.386719 156.535156 C 66.863281 155.277344 65.628906 153.378906 63.660156 150.839844 Z M 67.777344 139.828125 C 70.257812 140.730469 71.882812 141.492188 72.664062 142.121094 C 73.449219 142.761719 73.839844 143.390625 73.839844 144.003906 C 73.839844 144.53125 73.683594 145.132812 73.351562 145.824219 C 73.035156 146.523438 72.738281 146.867188 72.476562 146.855469 C 72.214844 146.867188 71.894531 146.425781 71.492188 145.527344 C 70.707031 144.148438 69.34375 142.371094 67.386719 140.210938 Z M 67.777344 139.828125 "/>
<path style=" stroke:none;fill-rule:evenodd;fill:rgb(0%,0%,0%);fill-opacity:1;" d="M 84.21875 223.050781 L 89.699219 222.859375 C 89.699219 218.445312 89.640625 215.277344 89.496094 213.367188 L 94.007812 215.265625 L 92.441406 216.597656 C 92.3125 220.027344 92.238281 222.054688 92.238281 222.667969 L 98.109375 222.480469 L 99.285156 220.582031 L 102.226562 222.859375 L 100.660156 224 C 100.269531 226.667969 100.066406 228.8125 100.066406 230.453125 C 100.066406 232.613281 100.4375 234.710938 101.148438 236.726562 C 101.871094 238.757812 103.007812 240.144531 104.578125 240.890625 C 105.226562 237.738281 105.808594 235.269531 106.332031 233.492188 L 107.113281 233.492188 C 106.851562 235.90625 106.757812 237.902344 106.828125 239.480469 C 106.898438 241.070312 107.183594 242.421875 107.707031 243.550781 C 108.097656 244.320312 107.894531 244.699219 107.113281 244.6875 C 106.851562 244.699219 105.914062 244.449219 104.28125 243.941406 C 102.652344 243.441406 101.21875 242.113281 99.972656 239.953125 C 98.738281 237.808594 98.050781 235.871094 97.921875 234.164062 C 97.789062 232.457031 97.71875 231.164062 97.71875 230.261719 C 97.71875 228.246094 97.847656 226.039062 98.109375 223.617188 L 92.238281 223.808594 C 92.121094 227.746094 91.726562 230.84375 91.066406 233.109375 C 93.671875 235.019531 95.109375 236.382812 95.371094 237.203125 C 95.628906 238.03125 95.761719 238.566406 95.761719 238.804688 C 95.761719 239.195312 95.628906 239.707031 95.371094 240.335938 C 95.109375 240.972656 94.847656 241.28125 94.585938 241.269531 C 94.328125 241.28125 93.933594 240.773438 93.414062 239.753906 C 92.628906 238.246094 91.527344 236.667969 90.09375 235.007812 C 87.351562 239.574219 84.019531 242.863281 80.101562 244.878906 L 79.710938 244.308594 C 83.625 241.28125 86.4375 237.679688 88.136719 233.492188 C 86.960938 232.363281 85.714844 231.285156 84.410156 230.261719 L 84.800781 229.691406 C 86.625 230.59375 87.933594 231.355469 88.714844 231.96875 C 89.238281 229.457031 89.566406 226.796875 89.699219 224 L 86.566406 224.191406 L 85.785156 224.757812 Z M 98.503906 246.015625 L 99.09375 245.636719 C 102.226562 247.796875 104.089844 249.324219 104.671875 250.203125 C 105.265625 251.09375 105.550781 251.855469 105.550781 252.46875 C 105.550781 253.359375 105.289062 254.15625 104.765625 254.84375 C 104.242188 255.542969 103.851562 255.886719 103.59375 255.886719 C 103.210938 255.886719 102.878906 255.199219 102.617188 253.800781 C 102.226562 251.78125 100.851562 249.195312 98.503906 246.015625 Z M 74.621094 222.859375 C 74.621094 217.9375 74.5625 214.652344 74.433594 212.988281 L 78.738281 214.699219 L 77.171875 216.027344 L 77.171875 222.859375 L 79.523438 222.859375 L 81.667969 220.773438 L 84.609375 224 L 77.171875 224 L 77.171875 230.640625 C 78.738281 230.144531 80.957031 229.457031 83.828125 228.554688 L 84.019531 229.316406 C 81.027344 230.59375 78.738281 231.601562 77.171875 232.351562 L 77.171875 240.320312 C 77.304688 242.742188 76 244.449219 73.257812 245.445312 C 73.128906 243.8125 71.5625 242.554688 68.5625 241.652344 L 68.5625 240.890625 C 70.910156 241.152344 72.511719 241.28125 73.351562 241.28125 C 74.207031 241.28125 74.621094 240.84375 74.621094 239.941406 L 74.621094 233.300781 C 69.925781 235.078125 67.183594 236.480469 66.402344 237.476562 L 64.054688 234.058594 C 66.023438 233.820312 69.546875 232.929688 74.621094 231.402344 L 74.621094 224 L 72.085938 224 C 70.386719 224.011719 68.820312 224.203125 67.386719 224.566406 L 65.617188 222.859375 Z M 70.707031 246.015625 L 71.492188 246.015625 C 71.492188 250.203125 71.101562 252.921875 70.316406 254.179688 C 69.535156 255.445312 68.597656 255.957031 67.480469 255.695312 C 66.378906 255.445312 65.820312 255.070312 65.820312 254.558594 C 65.820312 254.179688 66.152344 253.738281 66.792969 253.230469 C 68.097656 251.972656 69.402344 249.574219 70.707031 246.015625 Z M 78.929688 246.394531 C 81.417969 248.6875 82.855469 250.464844 83.246094 251.722656 C 83.636719 252.980469 83.4375 253.964844 82.652344 254.652344 C 81.871094 255.351562 81.347656 255.695312 81.085938 255.695312 C 80.566406 255.695312 80.246094 254.9375 80.101562 253.417969 C 79.984375 251.28125 79.332031 249.007812 78.144531 246.585938 Z M 88.714844 246.015625 C 91.46875 248.175781 93.035156 249.671875 93.425781 250.488281 C 93.816406 251.316406 94.007812 251.914062 94.007812 252.28125 C 94.007812 253.039062 93.71875 253.738281 93.128906 254.367188 C 92.535156 255.007812 92.179688 255.316406 92.050781 255.316406 C 91.527344 255.316406 91.136719 254.558594 90.875 253.039062 C 90.484375 250.773438 89.566406 248.554688 88.136719 246.394531 Z M 88.714844 246.015625 "/>
<path style=" stroke:none;fill-rule:evenodd;fill:rgb(0%,0%,0%);fill-opacity:1;" d="M 89.109375 300.765625 L 89.109375 306.269531 L 102.023438 306.269531 L 102.023438 300.765625 Z M 89.109375 307.40625 L 89.109375 313.101562 L 102.023438 313.101562 L 102.023438 307.40625 Z M 87.539062 317.464844 L 91.066406 320.125 C 89.640625 320.765625 88.136719 321.976562 86.566406 323.730469 C 84.871094 325.511719 82.320312 327.597656 78.929688 329.992188 L 78.539062 329.425781 C 83.234375 325.011719 86.238281 321.027344 87.539062 317.464844 Z M 98.703125 318.796875 L 99.09375 318.226562 C 103.402344 320.894531 105.914062 322.675781 106.628906 323.550781 C 107.351562 324.445312 107.707031 325.261719 107.707031 326.007812 C 107.707031 326.648438 107.519531 327.386719 107.125 328.191406 C 106.734375 329.019531 106.402344 329.425781 106.140625 329.425781 C 105.75 329.425781 105.226562 328.664062 104.578125 327.148438 C 103.664062 325.011719 101.703125 322.226562 98.703125 318.796875 Z M 86.367188 316.328125 C 86.507812 313.054688 86.566406 309.960938 86.566406 307.039062 C 86.566406 304.132812 86.507812 301.15625 86.367188 298.105469 L 89.109375 299.625 L 91.847656 299.625 C 93.152344 296.730469 93.933594 294.511719 94.195312 292.980469 L 82.261719 292.980469 C 82.261719 298.175781 82.238281 303.183594 82.167969 307.988281 C 82.097656 312.804688 81.148438 317.101562 79.320312 320.894531 C 77.492188 324.691406 74.753906 328.285156 71.101562 331.703125 L 70.707031 331.132812 C 73.980469 327.21875 76.257812 323.210938 77.566406 319.09375 C 78.871094 314.988281 79.523438 309.921875 79.523438 303.90625 C 79.523438 297.902344 79.460938 293.242188 79.320312 289.945312 L 82.261719 291.84375 L 102.617188 291.84375 L 105.359375 289.1875 L 109.070312 292.980469 L 95.179688 292.980469 L 98.3125 294.6875 C 97.269531 295.082031 96.460938 295.558594 95.867188 296.125 C 95.277344 296.695312 94.328125 297.867188 93.023438 299.625 L 101.835938 299.625 L 103.199219 297.726562 L 106.140625 300.195312 L 104.578125 301.523438 C 104.578125 309.375 104.648438 313.8125 104.765625 314.808594 L 102.023438 316.140625 L 102.023438 314.238281 L 96.9375 314.238281 L 96.9375 326.765625 C 97.078125 329.308594 95.699219 330.941406 92.832031 331.703125 C 92.699219 329.933594 91.136719 328.734375 88.136719 328.097656 L 88.136719 327.339844 C 89.828125 327.480469 91.265625 327.5625 92.441406 327.621094 C 93.613281 327.691406 94.195312 327.21875 94.195312 326.199219 L 94.195312 314.238281 L 89.109375 314.238281 L 89.109375 315.191406 Z M 77.957031 295.261719 C 73.910156 309.066406 71.726562 316.792969 71.394531 318.425781 C 71.074219 320.078125 70.886719 322.035156 70.816406 324.3125 C 70.742188 326.589844 70.78125 328.167969 70.910156 329.046875 C 70.910156 329.558594 70.648438 329.804688 70.125 329.804688 C 69.734375 329.804688 69.117188 329.652344 68.265625 329.332031 C 67.421875 329.019531 66.996094 328.359375 66.996094 327.339844 C 66.996094 326.460938 67.125 325.582031 67.386719 324.679688 C 67.777344 323.421875 67.96875 322.414062 67.96875 321.640625 C 67.96875 320.894531 67.683594 320.269531 67.089844 319.757812 C 66.507812 319.257812 65.238281 318.75 63.269531 318.226562 L 63.269531 317.464844 C 65.617188 317.726562 67.089844 317.835938 67.683594 317.761719 C 68.277344 317.703125 68.929688 317.136719 69.640625 316.058594 C 70.351562 314.988281 72.867188 307.988281 77.171875 295.070312 Z M 63.269531 300.382812 C 67.847656 302.425781 70.125 304.074219 70.125 305.332031 C 70.125 306.601562 69.867188 307.515625 69.34375 308.082031 C 68.820312 308.652344 68.429688 308.9375 68.167969 308.925781 C 67.777344 308.9375 67.386719 308.308594 66.996094 307.027344 C 66.34375 305.390625 64.964844 303.375 62.878906 300.953125 Z M 67.578125 289.375 C 71.371094 290.90625 73.460938 292.210938 73.851562 293.277344 C 74.242188 294.359375 74.148438 295.308594 73.554688 296.125 C 72.960938 296.953125 72.535156 297.359375 72.273438 297.347656 C 71.75 297.359375 71.359375 296.847656 71.101562 295.828125 C 70.457031 294.191406 69.152344 292.234375 67.183594 289.945312 Z M 67.578125 289.375 "/>
<path style=" stroke:none;fill-rule:evenodd;fill:rgb(0%,0%,0%);fill-opacity:1;" d="M 99.183594 379.996094 C 99.140625 380.1875 99.046875 380.347656 98.910156 380.480469 C 98.769531 380.621094 98.59375 380.6875 98.386719 380.6875 L 97.964844 380.6875 C 97.550781 380.6875 97.34375 380.515625 97.34375 380.167969 L 97.34375 380.019531 C 97.460938 379.371094 97.5625 378.699219 97.652344 378.003906 C 97.742188 377.304688 97.816406 376.65625 97.875 376.046875 L 97.875 375.359375 C 97.875 375.03125 97.859375 374.726562 97.832031 374.453125 C 97.769531 374.007812 97.667969 373.671875 97.519531 373.441406 C 97.121094 372.921875 96.5625 372.574219 95.839844 372.394531 C 95.125 372.214844 94.320312 372.125 93.429688 372.125 L 90.964844 372.125 C 90.226562 372.125 89.765625 372.167969 89.589844 372.253906 C 89.457031 372.382812 89.308594 372.816406 89.144531 373.546875 L 82.945312 397.574219 C 82.886719 397.792969 82.859375 397.964844 82.859375 398.09375 C 82.859375 398.382812 82.945312 398.554688 83.125 398.609375 C 83.539062 398.742188 84.207031 398.824219 85.125 398.859375 C 86.039062 398.898438 86.960938 398.914062 87.878906 398.914062 C 88.292969 398.914062 88.5 399.085938 88.5 399.429688 C 88.5 399.519531 88.484375 399.609375 88.453125 399.710938 L 88.367188 400.035156 C 88.277344 400.480469 87.988281 400.703125 87.5 400.703125 C 85.070312 400.617188 82.621094 400.574219 80.148438 400.574219 C 77.6875 400.574219 75.214844 400.617188 72.726562 400.703125 C 72.507812 400.703125 72.34375 400.636719 72.238281 400.507812 C 72.136719 400.410156 72.082031 400.300781 72.082031 400.1875 C 72.082031 400.101562 72.097656 400.015625 72.128906 399.925781 L 72.214844 399.601562 C 72.261719 399.417969 72.363281 399.257812 72.527344 399.121094 C 72.691406 398.984375 72.875 398.914062 73.082031 398.914062 C 73.988281 398.914062 74.914062 398.898438 75.859375 398.859375 C 76.808594 398.824219 77.5 398.742188 77.9375 398.613281 C 78.375 398.484375 78.667969 398.109375 78.8125 397.488281 L 85.011719 373.441406 C 85.160156 372.9375 85.234375 372.554688 85.234375 372.296875 L 85.234375 372.210938 C 85.175781 372.152344 84.769531 372.125 84.011719 372.125 L 81.546875 372.125 C 80.660156 372.125 79.792969 372.21875 78.949219 372.40625 C 78.105469 372.59375 77.347656 372.953125 76.679688 373.480469 C 76.371094 373.726562 76.074219 374.082031 75.792969 374.542969 C 75.511719 375.003906 75.234375 375.53125 74.960938 376.128906 C 74.6875 376.722656 74.421875 377.359375 74.171875 378.035156 C 73.921875 378.710938 73.667969 379.386719 73.417969 380.058594 C 73.269531 380.492188 72.996094 380.703125 72.59375 380.6875 L 72.214844 380.6875 C 71.996094 380.6875 71.832031 380.617188 71.726562 380.46875 C 71.636719 380.386719 71.59375 380.285156 71.59375 380.167969 C 71.59375 380.082031 71.617188 380 71.660156 379.910156 C 72.046875 378.460938 72.527344 376.976562 73.105469 375.46875 C 73.683594 373.960938 74.230469 372.457031 74.75 370.957031 C 74.898438 370.527344 75.179688 370.3125 75.59375 370.3125 L 100.074219 370.3125 C 100.488281 370.3125 100.695312 370.492188 100.695312 370.851562 L 100.695312 371.003906 Z M 99.183594 379.996094 "/>
<path style=" stroke:none;fill-rule:evenodd;fill:rgb(0%,0%,0%);fill-opacity:1;" d="M 296.730469 313.378906 C 296.195312 315.464844 295.335938 317.476562 294.140625 319.417969 C 292.949219 321.359375 291.449219 323.136719 289.644531 324.746094 C 287.925781 326.257812 286.148438 327.414062 284.3125 328.21875 C 284.339844 328.734375 284.394531 329.269531 284.46875 329.8125 C 284.542969 330.359375 284.671875 330.832031 284.855469 331.226562 C 285.042969 331.621094 285.296875 331.9375 285.625 332.164062 C 285.949219 332.394531 286.394531 332.511719 286.957031 332.511719 C 287.472656 332.511719 287.972656 332.398438 288.457031 332.175781 C 288.9375 331.953125 289.394531 331.652344 289.820312 331.269531 C 290.25 330.890625 290.628906 330.433594 290.953125 329.898438 C 291.28125 329.367188 291.511719 328.820312 291.644531 328.261719 C 291.6875 328.074219 291.785156 327.917969 291.941406 327.789062 C 292.101562 327.660156 292.277344 327.59375 292.488281 327.59375 C 292.695312 327.59375 292.878906 327.671875 293.042969 327.828125 C 293.101562 327.945312 293.132812 328.046875 293.132812 328.132812 C 293.132812 328.21875 293.109375 328.296875 293.0625 328.367188 C 292.84375 329.347656 292.523438 330.34375 292.101562 331.355469 C 291.679688 332.371094 291.164062 333.304688 290.554688 334.160156 C 289.949219 335.015625 289.230469 335.71875 288.398438 336.261719 C 287.570312 336.808594 286.628906 337.082031 285.578125 337.082031 C 284.394531 337.082031 283.535156 336.816406 283 336.285156 C 282.46875 335.753906 282.136719 335.054688 282 334.191406 C 281.941406 333.804688 281.914062 333.386719 281.914062 332.941406 C 281.914062 332.480469 281.941406 332.007812 282 331.519531 C 282.121094 330.539062 282.222656 329.675781 282.3125 328.929688 C 281.160156 329.304688 279.886719 329.492188 278.492188 329.492188 C 276.539062 329.492188 274.800781 329.058594 273.28125 328.199219 C 271.765625 327.335938 270.554688 326.171875 269.652344 324.703125 C 268.660156 323.078125 268.089844 321.28125 267.941406 319.308594 C 267.878906 318.835938 267.851562 318.363281 267.851562 317.886719 C 267.851562 316.40625 268.042969 314.875 268.429688 313.292969 C 268.992188 311.179688 269.859375 309.128906 271.039062 307.136719 C 272.21875 305.144531 273.722656 303.34375 275.558594 301.730469 C 277.1875 300.277344 278.96875 299.109375 280.902344 298.226562 C 282.835938 297.34375 284.785156 296.902344 286.753906 296.902344 C 288.710938 296.902344 290.4375 297.347656 291.941406 298.238281 C 293.449219 299.128906 294.648438 300.308594 295.550781 301.773438 C 296.546875 303.398438 297.132812 305.210938 297.308594 307.210938 C 297.335938 307.699219 297.351562 308.183594 297.351562 308.652344 C 297.351562 310.195312 297.144531 311.769531 296.730469 313.378906 Z M 292.289062 302.679688 C 291.800781 301.476562 291.066406 300.464844 290.085938 299.652344 C 289.113281 298.839844 287.894531 298.433594 286.445312 298.429688 C 285.007812 298.433594 283.578125 298.847656 282.15625 299.671875 C 280.738281 300.5 279.46875 301.523438 278.359375 302.742188 C 276.9375 304.3125 275.824219 306.011719 275.015625 307.835938 C 274.207031 309.660156 273.558594 311.511719 273.070312 313.378906 C 272.582031 315.21875 272.292969 317.039062 272.207031 318.835938 C 272.175781 319.09375 272.160156 319.355469 272.160156 319.613281 C 272.160156 321.109375 272.425781 322.503906 272.960938 323.796875 C 273.300781 324.601562 273.730469 325.320312 274.25 325.953125 C 274.769531 326.585938 275.25 326.996094 275.691406 327.183594 C 275.679688 327.15625 275.671875 326.941406 275.671875 326.535156 C 275.671875 326.191406 275.714844 325.839844 275.804688 325.476562 C 275.9375 324.976562 276.152344 324.492188 276.449219 324.023438 C 276.746094 323.558594 277.089844 323.140625 277.480469 322.773438 C 277.875 322.40625 278.320312 322.113281 278.824219 321.886719 C 279.328125 321.664062 279.855469 321.554688 280.402344 321.554688 C 281.171875 321.554688 281.800781 321.699219 282.28125 321.984375 C 282.761719 322.273438 283.144531 322.640625 283.421875 323.085938 C 283.707031 323.53125 283.898438 324.046875 284 324.628906 C 284.105469 325.210938 284.164062 325.6875 284.179688 326.0625 C 284.503906 325.847656 284.914062 325.53125 285.410156 325.113281 C 285.90625 324.695312 286.386719 324.234375 286.84375 323.730469 C 288.265625 322.195312 289.378906 320.53125 290.179688 318.738281 C 290.976562 316.949219 291.613281 315.132812 292.085938 313.292969 C 292.574219 311.410156 292.878906 309.546875 292.996094 307.703125 C 293.027344 307.433594 293.042969 307.144531 293.042969 306.84375 C 293.042969 305.378906 292.792969 303.988281 292.289062 302.679688 Z M 282.535156 327.03125 C 282.566406 326.703125 282.578125 326.34375 282.578125 325.953125 L 282.578125 325.433594 C 282.550781 324.933594 282.453125 324.503906 282.292969 324.140625 C 282.128906 323.785156 281.878906 323.496094 281.546875 323.28125 C 281.214844 323.0625 280.75 322.957031 280.160156 322.953125 C 279.523438 322.957031 278.925781 323.210938 278.371094 323.722656 C 277.8125 324.234375 277.441406 324.847656 277.246094 325.566406 C 277.1875 325.808594 277.160156 326.046875 277.160156 326.277344 C 277.160156 326.578125 277.210938 326.859375 277.3125 327.117188 C 277.492188 327.566406 277.78125 327.84375 278.179688 327.957031 L 278.757812 327.957031 C 280.074219 327.960938 281.335938 327.652344 282.535156 327.03125 Z M 282.535156 327.03125 "/>
<path style=" stroke:none;fill-rule:evenodd;fill:rgb(0%,0%,0%);fill-opacity:1;" d="M 316.199219 323.214844 C 316.171875 323.320312 316.113281 323.410156 316.023438 323.484375 C 315.9375 323.5625 315.828125 323.601562 315.699219 323.601562 L 315.433594 323.601562 C 315.171875 323.601562 315.042969 323.503906 315.042969 323.308594 L 315.042969 323.226562 C 315.117188 322.863281 315.183594 322.488281 315.238281 322.097656 C 315.292969 321.707031 315.339844 321.34375 315.375 321 L 315.375 320.617188 C 315.375 320.433594 315.367188 320.261719 315.351562 320.109375 C 315.3125 319.859375 315.246094 319.671875 315.152344 319.542969 C 314.90625 319.253906 314.554688 319.058594 314.101562 318.957031 C 313.652344 318.855469 313.148438 318.804688 312.589844 318.804688 L 311.046875 318.804688 C 310.582031 318.804688 310.292969 318.832031 310.183594 318.878906 C 310.097656 318.949219 310.007812 319.191406 309.902344 319.601562 L 306.015625 333.058594 C 305.980469 333.179688 305.960938 333.277344 305.960938 333.347656 C 305.960938 333.507812 306.015625 333.605469 306.125 333.636719 C 306.386719 333.710938 306.804688 333.757812 307.378906 333.777344 C 307.957031 333.796875 308.53125 333.808594 309.109375 333.804688 C 309.367188 333.808594 309.5 333.902344 309.5 334.097656 C 309.5 334.144531 309.492188 334.199219 309.46875 334.253906 L 309.414062 334.433594 C 309.359375 334.683594 309.179688 334.808594 308.871094 334.808594 C 307.347656 334.761719 305.8125 334.738281 304.261719 334.738281 C 302.71875 334.738281 301.167969 334.761719 299.605469 334.808594 C 299.46875 334.808594 299.367188 334.773438 299.300781 334.699219 C 299.238281 334.644531 299.207031 334.585938 299.207031 334.519531 C 299.207031 334.472656 299.214844 334.421875 299.230469 334.375 L 299.289062 334.191406 C 299.316406 334.089844 299.382812 334 299.484375 333.921875 C 299.582031 333.847656 299.699219 333.808594 299.828125 333.804688 C 300.398438 333.808594 300.976562 333.796875 301.574219 333.777344 C 302.167969 333.757812 302.601562 333.710938 302.875 333.636719 C 303.148438 333.566406 303.332031 333.355469 303.425781 333.007812 L 307.308594 319.542969 C 307.402344 319.261719 307.449219 319.046875 307.449219 318.902344 L 307.449219 318.855469 C 307.414062 318.820312 307.15625 318.804688 306.6875 318.804688 L 305.140625 318.804688 C 304.582031 318.804688 304.039062 318.859375 303.511719 318.960938 C 302.980469 319.066406 302.503906 319.265625 302.089844 319.566406 C 301.890625 319.703125 301.707031 319.898438 301.527344 320.15625 C 301.351562 320.414062 301.179688 320.710938 301.007812 321.046875 C 300.835938 321.378906 300.671875 321.738281 300.515625 322.113281 C 300.355469 322.496094 300.199219 322.871094 300.039062 323.25 C 299.945312 323.492188 299.773438 323.609375 299.523438 323.601562 L 299.289062 323.601562 C 299.148438 323.601562 299.046875 323.5625 298.980469 323.480469 C 298.925781 323.433594 298.898438 323.375 298.898438 323.308594 C 298.898438 323.261719 298.914062 323.214844 298.9375 323.164062 C 299.183594 322.351562 299.484375 321.523438 299.84375 320.675781 C 300.207031 319.832031 300.550781 318.992188 300.875 318.152344 C 300.96875 317.910156 301.144531 317.789062 301.40625 317.789062 L 316.757812 317.789062 C 317.019531 317.789062 317.148438 317.890625 317.148438 318.09375 L 317.148438 318.175781 Z M 316.199219 323.214844 "/>
<path style=" stroke:none;fill-rule:evenodd;fill:rgb(0%,0%,0%);fill-opacity:1;" d="M 202.761719 203.886719 C 202.71875 204.078125 202.625 204.238281 202.484375 204.375 C 202.34375 204.511719 202.167969 204.578125 201.960938 204.578125 L 201.539062 204.578125 C 201.125 204.578125 200.917969 204.40625 200.917969 204.0625 L 200.917969 203.910156 C 201.035156 203.265625 201.140625 202.59375 201.226562 201.894531 C 201.316406 201.199219 201.390625 200.546875 201.449219 199.941406 L 201.449219 199.253906 C 201.449219 198.925781 201.433594 198.621094 201.40625 198.347656 C 201.347656 197.902344 201.242188 197.566406 201.09375 197.332031 C 200.695312 196.816406 200.136719 196.46875 199.417969 196.289062 C 198.703125 196.109375 197.898438 196.015625 197.007812 196.015625 L 194.542969 196.015625 C 193.800781 196.015625 193.34375 196.0625 193.164062 196.148438 C 193.03125 196.277344 192.882812 196.710938 192.722656 197.4375 L 186.523438 221.46875 C 186.464844 221.683594 186.433594 221.859375 186.433594 221.984375 C 186.433594 222.273438 186.523438 222.445312 186.699219 222.503906 C 187.113281 222.632812 187.78125 222.71875 188.699219 222.753906 C 189.617188 222.789062 190.535156 222.808594 191.453125 222.804688 C 191.867188 222.808594 192.078125 222.980469 192.078125 223.324219 C 192.078125 223.410156 192.0625 223.503906 192.03125 223.605469 L 191.941406 223.925781 C 191.855469 224.375 191.566406 224.597656 191.078125 224.597656 C 188.648438 224.507812 186.195312 224.464844 183.722656 224.464844 C 181.265625 224.464844 178.792969 224.507812 176.304688 224.597656 C 176.082031 224.597656 175.917969 224.53125 175.8125 224.402344 C 175.710938 224.300781 175.660156 224.195312 175.660156 224.078125 C 175.660156 223.992188 175.671875 223.90625 175.703125 223.820312 L 175.792969 223.496094 C 175.835938 223.308594 175.941406 223.148438 176.105469 223.011719 C 176.265625 222.875 176.453125 222.808594 176.660156 222.804688 C 177.5625 222.808594 178.488281 222.789062 179.4375 222.753906 C 180.382812 222.71875 181.078125 222.632812 181.511719 222.503906 C 181.949219 222.375 182.242188 222.003906 182.390625 221.382812 L 188.585938 197.332031 C 188.734375 196.832031 188.808594 196.449219 188.808594 196.191406 L 188.808594 196.101562 C 188.75 196.046875 188.34375 196.015625 187.589844 196.015625 L 185.121094 196.015625 C 184.234375 196.015625 183.367188 196.113281 182.523438 196.300781 C 181.679688 196.488281 180.925781 196.84375 180.257812 197.375 C 179.945312 197.621094 179.648438 197.976562 179.367188 198.433594 C 179.089844 198.894531 178.8125 199.421875 178.535156 200.019531 C 178.261719 200.613281 178 201.25 177.746094 201.929688 C 177.496094 202.605469 177.242188 203.277344 176.992188 203.953125 C 176.84375 204.386719 176.570312 204.59375 176.167969 204.578125 L 175.792969 204.578125 C 175.570312 204.578125 175.40625 204.507812 175.304688 204.363281 C 175.214844 204.277344 175.167969 204.179688 175.167969 204.0625 C 175.167969 203.976562 175.191406 203.890625 175.238281 203.804688 C 175.621094 202.351562 176.105469 200.871094 176.679688 199.359375 C 177.257812 197.851562 177.808594 196.347656 178.324219 194.851562 C 178.472656 194.421875 178.753906 194.207031 179.167969 194.203125 L 203.652344 194.203125 C 204.066406 194.207031 204.273438 194.386719 204.273438 194.742188 L 204.273438 194.894531 Z M 202.761719 203.886719 "/>
<path style="fill:none;stroke-width:0.603;stroke-linecap:round;stroke-linejoin:round;stroke:rgb(0%,0%,0%);stroke-opacity:1;stroke-miterlimit:10;" d="M 17.115455 13.40042 L 27.669655 13.400421 " transform="matrix(2.930187,0.000000243119,-0.000000672534,-2.930295,166.938369,245.958589)"/>
<path style="fill:none;stroke-width:0.603;stroke-linecap:round;stroke-linejoin:round;stroke:rgb(0%,0%,0%);stroke-opacity:1;stroke-miterlimit:10;" d="M 17.115454 10.235743 L 27.669655 10.235744 " transform="matrix(2.930187,0.000000243119,-0.000000672534,-2.930295,166.938369,245.958589)"/>
<path style=" stroke:none;fill-rule:evenodd;fill:rgb(0%,0%,0%);fill-opacity:1;" d="M 275.734375 191.933594 L 298.226562 191.933594 L 300.761719 189.460938 L 304.476562 193.070312 L 282.183594 193.070312 C 280.238281 193.082031 278.675781 193.273438 277.5 193.636719 Z M 298.996094 201.230469 L 298.996094 213.570312 C 298.996094 215.859375 299.066406 218.136719 299.199219 220.402344 L 296.269531 221.730469 L 296.269531 218.882812 L 282.1875 218.882812 L 282.1875 221.164062 L 279.253906 222.679688 C 279.386719 218.648438 279.445312 214.507812 279.445312 210.257812 C 279.445312 206.023438 279.386719 201.8125 279.253906 197.625 L 282.183594 199.335938 L 295.875 199.335938 L 297.632812 197.4375 L 300.761719 200.09375 Z M 282.183594 200.472656 L 282.183594 208.0625 L 296.269531 208.0625 L 296.269531 200.472656 Z M 282.183594 209.203125 L 282.1875 217.746094 L 296.269531 217.746094 L 296.269531 209.203125 Z M 272.613281 226.285156 L 298.601562 226.285156 L 301.546875 223.441406 L 305.652344 227.425781 L 278.867188 227.425781 C 277.039062 227.425781 275.542969 227.617188 274.367188 227.996094 Z M 264.394531 198.761719 C 264.535156 200.671875 264.59375 202.253906 264.59375 203.511719 C 264.59375 204.789062 264.5 205.871094 264.308594 206.75 C 264.121094 207.640625 263.65625 208.207031 262.933594 208.457031 C 262.222656 208.71875 261.664062 208.835938 261.273438 208.824219 C 260.75 208.835938 260.300781 208.625 259.90625 208.171875 C 259.519531 207.734375 259.90625 206.878906 261.070312 205.597656 C 262.257812 204.472656 263.097656 202.191406 263.621094 198.761719 Z M 269.871094 196.488281 L 269.871094 220.972656 C 269.871094 224.152344 269.941406 227.117188 270.0625 229.894531 L 267.132812 231.03125 C 267.273438 226.738281 267.335938 223.011719 267.335938 219.832031 L 267.335938 195.535156 C 267.335938 192.003906 267.273438 188.964844 267.132812 186.425781 L 271.832031 188.515625 L 269.871094 190.035156 L 269.871094 195.726562 C 272.746094 197.007812 274.5 198.015625 275.152344 198.773438 C 275.804688 199.535156 276.125 200.234375 276.125 200.851562 C 276.125 201.496094 275.96875 202.132812 275.640625 202.761719 C 275.316406 203.402344 275.019531 203.710938 274.761719 203.699219 C 274.367188 203.710938 273.976562 203.203125 273.585938 202.179688 C 272.945312 200.542969 271.703125 198.644531 269.871094 196.488281 Z M 269.871094 196.488281 "/>
<path style=" stroke:none;fill-rule:evenodd;fill:rgb(0%,0%,0%);fill-opacity:1;" d="M 316.402344 208.0625 L 316.402344 212.050781 L 326.773438 212.050781 L 326.773438 208.0625 Z M 329.3125 208.0625 L 329.3125 212.050781 L 339.277344 212.050781 L 339.277344 208.0625 Z M 316.402344 213.1875 L 316.402344 216.988281 L 326.773438 216.988281 L 326.773438 213.1875 Z M 329.3125 213.1875 L 329.3125 216.988281 L 339.277344 216.988281 L 339.277344 213.1875 Z M 341.828125 208.636719 C 341.828125 213.582031 341.898438 216.867188 342.015625 218.503906 L 339.277344 219.644531 L 339.277344 218.125 L 329.3125 218.125 L 329.3125 222.300781 L 339.871094 222.300781 L 342.609375 220.023438 L 345.730469 223.441406 L 329.3125 223.441406 L 329.3125 227.996094 L 344.363281 227.996094 L 347.292969 225.339844 L 350.617188 229.132812 L 312.300781 229.132812 C 310.617188 229.132812 309.050781 229.324219 307.613281 229.703125 L 305.847656 227.996094 L 326.773438 227.996094 L 326.773438 223.441406 L 316.605469 223.441406 C 314.921875 223.453125 313.355469 223.640625 311.910156 224.007812 L 310.152344 222.300781 L 326.773438 222.300781 L 326.773438 218.125 L 316.402344 218.125 L 316.402344 219.265625 L 313.675781 220.214844 C 313.808594 217.699219 313.867188 215.195312 313.867188 212.726562 C 313.867188 210.257812 313.808594 207.828125 313.675781 205.410156 L 316.402344 206.925781 L 339.085938 206.925781 L 340.261719 205.410156 L 343.191406 207.496094 Z M 317 189.84375 L 317 193.070312 L 338.695312 193.070312 L 338.695312 189.84375 Z M 317 194.210938 L 317 197.625 L 338.695312 197.625 L 338.695312 194.210938 Z M 341.234375 190.222656 C 341.234375 194.921875 341.304688 198.015625 341.433594 199.523438 L 338.695312 200.660156 L 338.695312 198.761719 L 317 198.761719 L 317 200.472656 L 314.257812 201.613281 C 314.386719 199.59375 314.445312 197.042969 314.445312 193.9375 C 314.445312 190.839844 314.386719 188.65625 314.257812 187.375 L 317.1875 188.703125 L 338.304688 188.703125 L 339.476562 186.996094 L 342.609375 189.085938 Z M 305.0625 202.5625 L 345.148438 202.5625 L 347.890625 200.09375 L 351.210938 203.699219 L 310.542969 203.699219 C 309.5 203.710938 308.265625 203.898438 306.832031 204.269531 Z M 305.0625 202.5625 "/>
</g>
</svg>
