<?xml version="1.0" encoding="UTF-8"?>
<svg xmlns="http://www.w3.org/2000/svg" xmlns:xlink="http://www.w3.org/1999/xlink" width="615pt" height="628.98pt" viewBox="0 0 615 628.98" version="1.1">
<g id="surface1">
<path style=" stroke:none;fill-rule:nonzero;fill:rgb(0%,0%,0%);fill-opacity:1;" d="M 81.617188 537.566406 L 554.992188 537.566406 L 554.992188 540.113281 L 81.617188 540.113281 C 80.914062 540.113281 80.34375 539.542969 80.34375 538.839844 C 80.34375 538.136719 80.914062 537.566406 81.617188 537.566406 Z M 590.582031 538.839844 L 554.957031 531.199219 L 554.957031 546.480469 Z M 590.582031 538.839844 "/>
<path style=" stroke:none;fill-rule:nonzero;fill:rgb(0%,0%,0%);fill-opacity:1;" d="M 80.34375 538.839844 L 80.34375 65.023438 L 82.890625 65.023438 L 82.890625 538.839844 C 82.890625 539.542969 82.320312 540.113281 81.617188 540.113281 C 80.914062 540.113281 80.34375 539.542969 80.34375 538.839844 Z M 81.617188 29.398438 L 73.980469 65.058594 L 89.25 65.058594 Z M 81.617188 29.398438 "/>
<path style=" stroke:none;fill-rule:evenodd;fill:rgb(0%,0%,0%);fill-opacity:1;" d="M 58.832031 570.875 C 58.285156 573.023438 57.394531 575.097656 56.167969 577.097656 C 54.941406 579.097656 53.398438 580.925781 51.539062 582.585938 C 49.863281 584.082031 48.027344 585.273438 46.039062 586.152344 C 44.046875 587.035156 42.054688 587.472656 40.058594 587.472656 C 38.046875 587.472656 36.257812 587.03125 34.695312 586.140625 C 33.132812 585.253906 31.886719 584.054688 30.957031 582.542969 C 29.9375 580.867188 29.347656 579.015625 29.195312 576.984375 C 29.136719 576.496094 29.105469 576.007812 29.105469 575.519531 C 29.105469 573.992188 29.304688 572.417969 29.699219 570.785156 C 30.277344 568.609375 31.171875 566.496094 32.386719 564.441406 C 33.597656 562.394531 35.148438 560.535156 37.039062 558.875 C 38.71875 557.378906 40.550781 556.175781 42.539062 555.265625 C 44.527344 554.355469 46.535156 553.898438 48.5625 553.898438 C 50.578125 553.898438 52.355469 554.359375 53.902344 555.273438 C 55.453125 556.195312 56.691406 557.40625 57.621094 558.917969 C 58.640625 560.59375 59.242188 562.460938 59.425781 564.519531 C 59.457031 565.023438 59.472656 565.519531 59.472656 566.007812 C 59.472656 567.59375 59.261719 569.214844 58.832031 570.875 Z M 54.214844 559.675781 C 53.710938 558.429688 52.957031 557.421875 51.949219 556.640625 C 50.941406 555.863281 49.707031 555.476562 48.242188 555.472656 C 46.796875 555.476562 45.355469 555.871094 43.921875 556.664062 C 42.492188 557.457031 41.210938 558.484375 40.082031 559.738281 C 38.664062 561.269531 37.542969 562.921875 36.71875 564.710938 C 35.898438 566.496094 35.257812 568.304688 34.796875 570.140625 C 34.265625 572.144531 33.9375 574.089844 33.816406 575.984375 C 33.785156 576.34375 33.769531 576.699219 33.769531 577.050781 C 33.769531 578.535156 34.015625 579.988281 34.5 581.40625 C 34.972656 582.667969 35.699219 583.722656 36.675781 584.574219 C 37.648438 585.429688 38.871094 585.851562 40.332031 585.851562 C 41.839844 585.851562 43.316406 585.417969 44.757812 584.554688 C 46.199219 583.6875 47.492188 582.617188 48.632812 581.339844 C 50.113281 579.625 51.261719 577.808594 52.085938 575.898438 C 52.910156 573.988281 53.582031 572.039062 54.097656 570.050781 C 54.570312 568.203125 54.867188 566.378906 54.988281 564.585938 L 54.988281 563.808594 C 54.988281 562.328125 54.730469 560.949219 54.214844 559.675781 Z M 54.214844 559.675781 "/>
<path style=" stroke:none;fill-rule:evenodd;fill:rgb(0%,0%,0%);fill-opacity:1;" d="M 554.339844 561.191406 C 554.25 561.636719 553.972656 561.859375 553.515625 561.859375 C 553.027344 561.859375 552.5625 561.914062 552.121094 562.027344 C 551.679688 562.140625 551.25 562.324219 550.828125 562.59375 C 550.410156 562.859375 550.027344 563.179688 549.675781 563.5625 C 549.324219 563.9375 549.003906 564.363281 548.714844 564.832031 L 532.042969 591.96875 C 531.816406 592.382812 531.464844 592.582031 530.992188 592.570312 L 530.558594 592.570312 C 529.992188 592.570312 529.71875 592.332031 529.734375 591.855469 L 526.875 563.480469 C 526.816406 563.09375 526.753906 562.796875 526.691406 562.582031 C 526.632812 562.367188 526.539062 562.214844 526.417969 562.125 C 526.207031 562.007812 525.867188 561.933594 525.402344 561.902344 C 524.9375 561.875 524.40625 561.859375 523.8125 561.859375 C 523.582031 561.859375 523.414062 561.785156 523.308594 561.636719 C 523.21875 561.546875 523.171875 561.4375 523.171875 561.300781 C 523.171875 561.214844 523.195312 561.132812 523.242188 561.058594 L 523.308594 560.726562 C 523.355469 560.53125 523.457031 560.367188 523.617188 560.238281 C 523.777344 560.105469 523.972656 560.039062 524.199219 560.035156 C 525.664062 560.125 527.144531 560.167969 528.636719 560.167969 C 528.867188 560.167969 529.109375 560.15625 529.367188 560.125 C 531.136719 560.125 532.90625 560.097656 534.675781 560.035156 C 534.886719 560.039062 535.078125 560.109375 535.246094 560.261719 C 535.308594 560.378906 535.335938 560.488281 535.335938 560.589844 C 535.335938 560.679688 535.316406 560.761719 535.269531 560.835938 L 535.199219 561.171875 C 535.15625 561.378906 535.042969 561.546875 534.867188 561.667969 C 534.695312 561.796875 534.507812 561.859375 534.308594 561.859375 C 533.773438 561.859375 533.285156 561.882812 532.84375 561.925781 C 532.402344 561.972656 531.96875 562.089844 531.542969 562.28125 C 531.285156 562.414062 531.160156 562.636719 531.175781 562.945312 L 531.175781 563.105469 C 531.707031 567.042969 532.136719 571.003906 532.457031 574.980469 C 532.777344 578.957031 533.117188 582.726562 533.484375 586.28125 L 546.976562 564.304688 C 547.175781 563.992188 547.296875 563.664062 547.34375 563.324219 L 547.34375 563.210938 C 547.34375 562.992188 547.289062 562.792969 547.179688 562.613281 C 546.847656 562.113281 546.222656 561.859375 545.308594 561.859375 C 544.910156 561.859375 544.710938 561.660156 544.710938 561.257812 L 544.710938 561.101562 L 544.804688 560.703125 C 544.972656 560.261719 545.269531 560.039062 545.695312 560.035156 C 547.039062 560.097656 548.386719 560.125 549.742188 560.125 C 549.925781 560.15625 550.101562 560.167969 550.269531 560.167969 C 551.429688 560.167969 552.617188 560.125 553.835938 560.035156 C 554.25 560.039062 554.46875 560.238281 554.5 560.636719 L 554.5 560.8125 Z M 554.339844 561.191406 "/>
<path style=" stroke:none;fill-rule:evenodd;fill:rgb(0%,0%,0%);fill-opacity:1;" d="M 55.675781 63.699219 C 55.328125 64.992188 54.8125 66.265625 54.132812 67.523438 C 53.453125 68.785156 52.574219 69.945312 51.492188 71.011719 C 50.605469 71.902344 49.605469 72.648438 48.484375 73.246094 C 47.363281 73.847656 46.203125 74.144531 44.996094 74.144531 C 44.007812 74.144531 43.191406 73.871094 42.550781 73.324219 C 41.910156 72.777344 41.507812 72.332031 41.339844 71.988281 L 39.441406 79.277344 C 39.347656 79.648438 39.296875 79.921875 39.28125 80.101562 C 39.28125 80.25 39.3125 80.34375 39.371094 80.390625 C 39.554688 80.507812 39.910156 80.582031 40.433594 80.613281 C 40.960938 80.640625 41.550781 80.65625 42.207031 80.65625 C 42.605469 80.65625 42.800781 80.847656 42.800781 81.234375 L 42.800781 81.390625 L 42.710938 81.8125 C 42.542969 82.257812 42.246094 82.472656 41.820312 82.457031 C 40.355469 82.398438 38.90625 82.351562 37.472656 82.324219 L 36.8125 82.324219 C 35.5625 82.324219 34.296875 82.367188 33.015625 82.457031 C 32.621094 82.457031 32.421875 82.265625 32.421875 81.878906 L 32.421875 81.722656 L 32.511719 81.300781 C 32.679688 80.855469 32.976562 80.640625 33.402344 80.65625 C 33.9375 80.65625 34.382812 80.640625 34.730469 80.613281 C 35.082031 80.582031 35.332031 80.515625 35.484375 80.410156 C 35.636719 80.339844 35.796875 79.929688 35.964844 79.1875 L 41.269531 58.65625 C 41.511719 57.695312 41.636719 56.863281 41.636719 56.167969 L 41.636719 55.632812 C 41.558594 54.925781 41.203125 54.570312 40.5625 54.566406 C 39.890625 54.570312 39.328125 55.109375 38.878906 56.191406 C 38.429688 57.273438 37.992188 58.679688 37.566406 60.410156 C 37.398438 60.8125 37.117188 61.019531 36.71875 61.035156 L 36.191406 61.035156 C 35.828125 61.035156 35.644531 60.851562 35.644531 60.480469 L 35.644531 60.324219 C 35.828125 59.628906 36.035156 58.871094 36.261719 58.046875 C 36.492188 57.226562 36.796875 56.445312 37.175781 55.714844 C 37.558594 54.980469 38.039062 54.359375 38.617188 53.847656 C 39.199219 53.335938 39.921875 53.082031 40.789062 53.078125 C 41.949219 53.082031 42.875 53.410156 43.566406 54.070312 C 44.261719 54.730469 44.667969 55.390625 44.789062 56.058594 C 45.386719 55.375 46.183594 54.710938 47.179688 54.058594 C 48.179688 53.40625 49.234375 53.082031 50.347656 53.078125 C 51.523438 53.082031 52.523438 53.386719 53.355469 54.003906 C 54.1875 54.617188 54.828125 55.382812 55.289062 56.300781 C 55.835938 57.398438 56.125 58.585938 56.15625 59.855469 L 56.15625 60.167969 C 56.15625 61.308594 55.996094 62.488281 55.675781 63.699219 Z M 52.3125 56.945312 C 52.179688 56.234375 51.921875 55.664062 51.546875 55.226562 C 51.175781 54.789062 50.683594 54.570312 50.074219 54.566406 C 49.371094 54.570312 48.660156 54.808594 47.9375 55.28125 C 47.210938 55.753906 46.542969 56.355469 45.933594 57.078125 C 45.460938 57.6875 45.050781 58.257812 44.699219 58.789062 L 42.183594 68.5 C 42.246094 68.8125 42.304688 69.109375 42.355469 69.390625 C 42.410156 69.671875 42.480469 69.945312 42.574219 70.210938 C 42.800781 70.941406 43.132812 71.53125 43.566406 71.992188 C 44.003906 72.449219 44.578125 72.679688 45.292969 72.679688 C 45.9375 72.679688 46.566406 72.445312 47.191406 71.96875 C 47.816406 71.496094 48.386719 70.902344 48.90625 70.191406 C 49.640625 69.199219 50.1875 68.144531 50.554688 67.023438 C 50.921875 65.90625 51.253906 64.761719 51.558594 63.589844 C 51.863281 62.375 52.132812 61.207031 52.359375 60.078125 C 52.453125 59.546875 52.496094 59.027344 52.496094 58.523438 C 52.496094 57.992188 52.4375 57.464844 52.3125 56.945312 Z M 52.3125 56.945312 "/>
<path style="fill:none;stroke-width:15;stroke-linecap:round;stroke-linejoin:round;stroke:rgb(0%,0%,0%);stroke-opacity:1;stroke-dasharray:60,30;stroke-miterlimit:10;" d="M 1485.791904 420.093188 L 1485.791904 803.611251 " transform="matrix(0.226208,0,0,-0.226419,0,633.9571)"/>
<path style="fill:none;stroke-width:15;stroke-linecap:round;stroke-linejoin:round;stroke:rgb(0%,0%,0%);stroke-opacity:1;stroke-dasharray:120,60;stroke-miterlimit:10;" d="M 360.806314 840.082559 L 1455.261342 840.082559 " transform="matrix(0.226208,0,0,-0.226419,0,633.9571)"/>
<path style="fill:none;stroke-width:15;stroke-linecap:round;stroke-linejoin:round;stroke:rgb(0%,0%,0%);stroke-opacity:1;stroke-dasharray:120,60;stroke-miterlimit:10;" d="M 360.806314 2205.08252 L 1455.261342 2205.08252 " transform="matrix(0.226208,0,0,-0.226419,0,633.9571)"/>
<path style=" stroke:none;fill-rule:nonzero;fill:rgb(0%,0%,94.099426%);fill-opacity:1;" d="M 334.402344 436.867188 L 334.402344 311.261719 L 337.796875 311.261719 L 337.796875 436.867188 C 337.796875 437.804688 337.039062 438.566406 336.097656 438.566406 C 335.164062 438.566406 334.402344 437.804688 334.402344 436.867188 Z M 336.097656 284.117188 L 325.921875 318.082031 L 334.402344 311.289062 L 337.796875 311.289062 L 346.277344 318.082031 Z M 336.097656 284.117188 "/>
<path style="fill:none;stroke-width:15;stroke-linecap:round;stroke-linejoin:round;stroke:rgb(0%,0%,94.099426%);stroke-opacity:1;stroke-miterlimit:10;" d="M 1485.791904 1518.183209 L 1485.791904 2165.919856 " transform="matrix(0.226208,0,0,-0.226419,0,633.9571)"/>
<path style=" stroke:none;fill-rule:evenodd;fill:rgb(0%,0%,0%);fill-opacity:1;" d="M 399.367188 282.820312 C 399.199219 283.265625 398.910156 283.488281 398.496094 283.488281 C 397.582031 283.488281 396.78125 283.710938 396.09375 284.152344 C 395.667969 284.4375 395.292969 284.769531 394.972656 285.152344 C 394.65625 285.539062 394.378906 285.960938 394.148438 286.421875 L 378.921875 313.574219 C 378.722656 314.003906 378.375 314.210938 377.871094 314.199219 L 377.503906 314.199219 C 376.96875 314.199219 376.703125 313.960938 376.703125 313.484375 L 375.675781 290.929688 L 363.007812 313.597656 C 362.777344 314.011719 362.425781 314.210938 361.953125 314.199219 L 361.542969 314.199219 C 361.117188 314.199219 360.847656 313.96875 360.742188 313.507812 L 359.4375 285.0625 C 359.40625 284.664062 359.375 284.371094 359.335938 284.175781 C 359.296875 283.984375 359.21875 283.84375 359.097656 283.753906 C 358.914062 283.636719 358.621094 283.5625 358.214844 283.53125 C 357.8125 283.503906 357.328125 283.488281 356.761719 283.488281 C 356.382812 283.488281 356.175781 283.289062 356.144531 282.886719 L 356.144531 282.730469 L 356.238281 282.332031 C 356.40625 281.890625 356.703125 281.667969 357.128906 281.664062 C 358.5625 281.753906 360.019531 281.796875 361.496094 281.796875 C 361.726562 281.796875 361.960938 281.785156 362.207031 281.753906 C 363.914062 281.753906 365.644531 281.726562 367.394531 281.664062 C 367.792969 281.667969 367.992188 281.867188 367.992188 282.265625 L 367.992188 282.417969 L 367.898438 282.820312 C 367.734375 283.265625 367.433594 283.488281 367.007812 283.488281 C 366.445312 283.488281 365.941406 283.511719 365.5 283.554688 C 365.058594 283.601562 364.628906 283.71875 364.21875 283.910156 C 363.851562 284.101562 363.675781 284.382812 363.691406 284.753906 L 364.71875 306.929688 L 375.492188 287.621094 L 375.398438 285.0625 C 375.371094 284.664062 375.335938 284.371094 375.296875 284.175781 C 375.257812 283.984375 375.171875 283.84375 375.035156 283.753906 C 374.851562 283.636719 374.554688 283.5625 374.144531 283.53125 C 373.730469 283.503906 373.257812 283.488281 372.722656 283.488281 C 372.496094 283.488281 372.328125 283.414062 372.222656 283.265625 C 372.128906 283.175781 372.085938 283.066406 372.085938 282.929688 C 372.085938 282.84375 372.109375 282.761719 372.152344 282.6875 L 372.222656 282.355469 C 372.3125 281.894531 372.609375 281.667969 373.113281 281.664062 C 374.546875 281.753906 375.996094 281.796875 377.457031 281.796875 C 377.65625 281.796875 377.886719 281.785156 378.144531 281.753906 C 379.851562 281.753906 381.574219 281.726562 383.3125 281.664062 C 383.523438 281.667969 383.707031 281.738281 383.859375 281.890625 C 383.921875 282.007812 383.953125 282.117188 383.953125 282.21875 C 383.953125 282.308594 383.929688 282.390625 383.882812 282.464844 L 383.816406 282.800781 C 383.769531 282.992188 383.667969 283.15625 383.507812 283.289062 C 383.347656 283.417969 383.160156 283.488281 382.945312 283.488281 C 382.414062 283.488281 381.914062 283.511719 381.449219 283.554688 C 380.984375 283.601562 380.554688 283.71875 380.15625 283.910156 C 379.820312 284.101562 379.652344 284.398438 379.652344 284.796875 L 380.636719 306.929688 L 392.4375 285.933594 C 392.605469 285.636719 392.6875 285.371094 392.6875 285.132812 C 392.6875 284.851562 392.574219 284.578125 392.34375 284.308594 C 392.128906 284 391.828125 283.785156 391.441406 283.664062 C 391.050781 283.546875 390.609375 283.488281 390.101562 283.488281 C 389.875 283.488281 389.707031 283.414062 389.601562 283.265625 C 389.507812 283.175781 389.460938 283.066406 389.460938 282.929688 C 389.460938 282.84375 389.488281 282.761719 389.53125 282.6875 L 389.601562 282.355469 C 389.648438 282.160156 389.75 281.996094 389.910156 281.867188 C 390.070312 281.734375 390.257812 281.667969 390.46875 281.664062 C 391.246094 281.695312 392.03125 281.710938 392.824219 281.707031 C 393.601562 281.710938 394.378906 281.726562 395.15625 281.753906 L 396.984375 281.753906 C 397.609375 281.753906 398.238281 281.726562 398.863281 281.664062 C 399.257812 281.667969 399.457031 281.867188 399.457031 282.265625 L 399.457031 282.417969 Z M 399.367188 282.820312 "/>
<path style="fill:none;stroke-width:0.402;stroke-linecap:round;stroke-linejoin:round;stroke:rgb(0%,0%,0%);stroke-opacity:1;stroke-miterlimit:10;" d="M 14.363027 8.933866 L 21.398165 8.933868 " transform="matrix(4.524165,0.000000796291,-0.00000155758,-4.528358,347.667753,335.205731)"/>
<path style="fill:none;stroke-width:0.402;stroke-linecap:round;stroke-linejoin:round;stroke:rgb(0%,0%,0%);stroke-opacity:1;stroke-miterlimit:10;" d="M 14.363026 6.823899 L 21.398164 6.8239 " transform="matrix(4.524165,0.000000796291,-0.00000155758,-4.528358,347.667753,335.205731)"/>
<path style=" stroke:none;fill-rule:evenodd;fill:rgb(0%,0%,0%);fill-opacity:1;" d="M 478.550781 297.855469 C 478.550781 299.949219 478.40625 302.027344 478.113281 304.097656 C 477.824219 306.164062 477.105469 308.109375 475.953125 309.921875 C 475.132812 311.246094 474.03125 312.257812 472.65625 312.96875 C 471.285156 313.683594 469.789062 314.035156 468.179688 314.035156 C 466.621094 314.035156 465.15625 313.683594 463.769531 312.96875 C 462.390625 312.257812 461.289062 311.246094 460.46875 309.921875 C 459.316406 308.109375 458.597656 306.164062 458.304688 304.097656 C 458.015625 302.027344 457.867188 299.949219 457.867188 297.855469 C 457.867188 295.738281 458.015625 293.621094 458.304688 291.511719 C 458.597656 289.398438 459.316406 287.417969 460.46875 285.574219 C 461.289062 284.238281 462.386719 283.203125 463.761719 282.460938 C 465.136719 281.722656 466.609375 281.351562 468.179688 281.351562 C 469.773438 281.351562 471.269531 281.722656 472.648438 282.460938 C 474.027344 283.203125 475.132812 284.238281 475.953125 285.574219 C 477.105469 287.417969 477.824219 289.398438 478.113281 291.511719 C 478.40625 293.621094 478.550781 295.738281 478.550781 297.855469 Z M 474.113281 297.09375 C 474.113281 296.179688 474.109375 295.214844 474.089844 294.199219 C 474.078125 293.183594 474.042969 292.1875 473.976562 291.214844 C 473.917969 290.246094 473.808594 289.324219 473.65625 288.460938 C 473.5 287.597656 473.308594 286.859375 473.082031 286.25 C 472.640625 285.261719 471.976562 284.453125 471.113281 283.824219 C 470.246094 283.191406 469.269531 282.875 468.179688 282.875 C 467.113281 282.875 466.15625 283.191406 465.296875 283.832031 C 464.4375 284.472656 463.785156 285.277344 463.335938 286.25 C 463.109375 286.859375 462.921875 287.597656 462.761719 288.460938 C 462.609375 289.324219 462.5 290.242188 462.441406 291.214844 C 462.378906 292.1875 462.339844 293.183594 462.328125 294.199219 C 462.316406 295.214844 462.304688 296.179688 462.304688 297.09375 C 462.304688 298.113281 462.316406 299.183594 462.328125 300.308594 C 462.339844 301.433594 462.378906 302.523438 462.441406 303.574219 C 462.5 304.628906 462.609375 305.625 462.761719 306.570312 C 462.921875 307.511719 463.109375 308.304688 463.335938 308.941406 C 463.753906 310.003906 464.398438 310.875 465.273438 311.554688 C 466.148438 312.238281 467.113281 312.578125 468.179688 312.578125 C 469.28125 312.578125 470.273438 312.238281 471.144531 311.554688 C 472.019531 310.875 472.664062 310.003906 473.082031 308.941406 C 473.308594 308.304688 473.5 307.511719 473.65625 306.570312 C 473.808594 305.625 473.917969 304.628906 473.976562 303.574219 C 474.042969 302.523438 474.078125 301.433594 474.089844 300.308594 C 474.109375 299.183594 474.113281 298.113281 474.113281 297.09375 Z M 474.113281 297.09375 "/>
<path style=" stroke:none;fill-rule:evenodd;fill:rgb(0%,0%,0%);fill-opacity:1;" d="M 367.335938 455.671875 C 364.824219 455.582031 362.359375 455.539062 359.949219 455.539062 C 357.574219 455.539062 355.117188 455.582031 352.585938 455.671875 L 352.585938 453.828125 C 353.457031 453.828125 354.300781 453.820312 355.113281 453.796875 C 355.929688 453.773438 356.550781 453.695312 356.976562 453.5625 C 357.191406 453.488281 357.355469 453.34375 357.46875 453.128906 C 357.582031 452.914062 357.640625 452.675781 357.640625 452.40625 L 357.640625 427.359375 C 357.640625 427.097656 357.582031 426.859375 357.46875 426.640625 C 357.355469 426.429688 357.191406 426.285156 356.976562 426.207031 C 356.550781 426.074219 355.929688 426.003906 355.113281 425.984375 C 354.300781 425.972656 353.457031 425.960938 352.585938 425.960938 L 352.585938 424.140625 C 355.117188 424.199219 357.574219 424.230469 359.949219 424.226562 C 362.359375 424.230469 364.824219 424.199219 367.335938 424.140625 L 367.335938 425.960938 C 366.46875 425.960938 365.625 425.972656 364.808594 425.984375 C 363.996094 426.003906 363.378906 426.074219 362.96875 426.207031 C 362.753906 426.285156 362.589844 426.429688 362.464844 426.648438 C 362.34375 426.875 362.285156 427.113281 362.285156 427.359375 L 362.285156 452.40625 C 362.285156 452.675781 362.339844 452.914062 362.457031 453.128906 C 362.570312 453.34375 362.742188 453.488281 362.96875 453.5625 C 363.394531 453.695312 364.015625 453.773438 364.820312 453.796875 C 365.628906 453.820312 366.46875 453.828125 367.335938 453.828125 Z M 367.335938 455.671875 "/>
<path style=" stroke:none;fill-rule:evenodd;fill:rgb(0%,0%,0%);fill-opacity:1;" d="M 358.832031 146.609375 C 356.316406 146.519531 353.855469 146.476562 351.445312 146.476562 C 349.066406 146.476562 346.613281 146.519531 344.082031 146.609375 L 344.082031 144.765625 C 344.953125 144.765625 345.792969 144.757812 346.609375 144.734375 C 347.425781 144.710938 348.046875 144.632812 348.472656 144.5 C 348.6875 144.425781 348.851562 144.28125 348.964844 144.066406 C 349.078125 143.851562 349.136719 143.613281 349.136719 143.34375 L 349.136719 118.296875 C 349.136719 118.035156 349.078125 117.796875 348.964844 117.578125 C 348.851562 117.367188 348.6875 117.222656 348.472656 117.144531 C 348.046875 117.011719 347.425781 116.941406 346.609375 116.921875 C 345.792969 116.910156 344.953125 116.898438 344.082031 116.898438 L 344.082031 115.078125 C 346.613281 115.136719 349.066406 115.167969 351.445312 115.164062 C 353.855469 115.167969 356.316406 115.136719 358.832031 115.078125 L 358.832031 116.898438 C 357.964844 116.898438 357.121094 116.910156 356.304688 116.921875 C 355.488281 116.941406 354.875 117.011719 354.464844 117.144531 C 354.25 117.222656 354.085938 117.367188 353.960938 117.585938 C 353.839844 117.8125 353.777344 118.050781 353.777344 118.296875 L 353.777344 143.34375 C 353.777344 143.613281 353.835938 143.851562 353.949219 144.066406 C 354.066406 144.28125 354.238281 144.425781 354.464844 144.5 C 354.890625 144.632812 355.507812 144.710938 356.316406 144.734375 C 357.125 144.757812 357.964844 144.765625 358.832031 144.765625 Z M 358.832031 146.609375 "/>
<path style=" stroke:none;fill-rule:evenodd;fill:rgb(0%,0%,0%);fill-opacity:1;" d="M 375.375 146.609375 C 372.859375 146.519531 370.398438 146.476562 367.988281 146.476562 C 365.609375 146.476562 363.15625 146.519531 360.625 146.609375 L 360.625 144.765625 C 361.496094 144.765625 362.335938 144.757812 363.152344 144.734375 C 363.96875 144.710938 364.589844 144.632812 365.015625 144.5 C 365.230469 144.425781 365.394531 144.28125 365.507812 144.066406 C 365.621094 143.851562 365.679688 143.613281 365.679688 143.34375 L 365.679688 118.296875 C 365.679688 118.035156 365.621094 117.796875 365.507812 117.578125 C 365.394531 117.367188 365.230469 117.222656 365.015625 117.144531 C 364.589844 117.011719 363.96875 116.941406 363.152344 116.921875 C 362.335938 116.910156 361.496094 116.898438 360.625 116.898438 L 360.625 115.078125 C 363.15625 115.136719 365.609375 115.167969 367.988281 115.164062 C 370.398438 115.167969 372.859375 115.136719 375.375 115.078125 L 375.375 116.898438 C 374.507812 116.898438 373.664062 116.910156 372.847656 116.921875 C 372.03125 116.941406 371.417969 117.011719 371.007812 117.144531 C 370.792969 117.222656 370.625 117.367188 370.503906 117.585938 C 370.382812 117.8125 370.320312 118.050781 370.320312 118.296875 L 370.320312 143.34375 C 370.320312 143.613281 370.378906 143.851562 370.492188 144.066406 C 370.605469 144.28125 370.78125 144.425781 371.007812 144.5 C 371.433594 144.632812 372.050781 144.710938 372.859375 144.734375 C 373.667969 144.757812 374.507812 144.765625 375.375 144.765625 Z M 375.375 146.609375 "/>
<path style=" stroke:none;fill-rule:evenodd;fill:rgb(0%,0%,0%);fill-opacity:1;" d="M 349.902344 556.097656 C 349.8125 556.542969 349.539062 556.765625 349.082031 556.765625 C 348.59375 556.765625 348.128906 556.820312 347.6875 556.933594 C 347.246094 557.046875 346.8125 557.230469 346.394531 557.496094 C 345.976562 557.765625 345.589844 558.085938 345.238281 558.46875 C 344.890625 558.84375 344.566406 559.269531 344.277344 559.738281 L 327.609375 586.875 C 327.378906 587.289062 327.03125 587.488281 326.558594 587.472656 L 326.121094 587.472656 C 325.558594 587.472656 325.285156 587.238281 325.300781 586.761719 L 322.441406 558.386719 C 322.378906 558 322.320312 557.703125 322.257812 557.488281 C 322.195312 557.269531 322.105469 557.121094 321.984375 557.03125 C 321.769531 556.914062 321.433594 556.839844 320.964844 556.808594 C 320.5 556.78125 319.972656 556.765625 319.378906 556.765625 C 319.148438 556.765625 318.980469 556.691406 318.875 556.542969 C 318.78125 556.453125 318.734375 556.34375 318.734375 556.207031 C 318.734375 556.121094 318.757812 556.039062 318.804688 555.960938 L 318.875 555.632812 C 318.921875 555.4375 319.023438 555.273438 319.183594 555.144531 C 319.34375 555.011719 319.539062 554.945312 319.765625 554.9375 C 321.230469 555.03125 322.707031 555.074219 324.203125 555.074219 C 324.429688 555.074219 324.675781 555.0625 324.933594 555.03125 C 326.703125 555.03125 328.472656 555.003906 330.238281 554.9375 C 330.453125 554.945312 330.644531 555.015625 330.8125 555.164062 C 330.871094 555.285156 330.902344 555.390625 330.902344 555.496094 C 330.902344 555.585938 330.878906 555.667969 330.832031 555.742188 L 330.765625 556.074219 C 330.71875 556.285156 330.609375 556.453125 330.433594 556.574219 C 330.257812 556.699219 330.070312 556.765625 329.871094 556.765625 C 329.339844 556.765625 328.851562 556.785156 328.410156 556.832031 C 327.96875 556.878906 327.535156 556.996094 327.105469 557.183594 C 326.847656 557.320312 326.726562 557.542969 326.738281 557.851562 L 326.738281 558.007812 C 327.273438 561.949219 327.703125 565.910156 328.019531 569.886719 C 328.339844 573.863281 328.683594 577.632812 329.050781 581.183594 L 342.542969 559.210938 C 342.738281 558.898438 342.863281 558.570312 342.90625 558.230469 L 342.90625 558.117188 C 342.90625 557.894531 342.855469 557.695312 342.746094 557.519531 C 342.410156 557.019531 341.789062 556.765625 340.871094 556.765625 C 340.476562 556.765625 340.277344 556.566406 340.277344 556.160156 L 340.277344 556.007812 L 340.367188 555.609375 C 340.539062 555.164062 340.835938 554.945312 341.261719 554.9375 C 342.601562 555.003906 343.949219 555.03125 345.308594 555.03125 C 345.492188 555.0625 345.667969 555.074219 345.835938 555.074219 C 346.992188 555.074219 348.179688 555.03125 349.402344 554.9375 C 349.8125 554.945312 350.035156 555.144531 350.066406 555.542969 L 350.066406 555.71875 Z M 349.902344 556.097656 "/>
<path style=" stroke:none;fill-rule:evenodd;fill:rgb(0%,0%,0%);fill-opacity:1;" d="M 49.753906 445.515625 C 49.402344 446.808594 48.886719 448.082031 48.210938 449.339844 C 47.53125 450.601562 46.648438 451.761719 45.566406 452.828125 C 44.683594 453.71875 43.683594 454.460938 42.5625 455.0625 C 41.441406 455.664062 40.277344 455.960938 39.074219 455.960938 C 38.082031 455.960938 37.265625 455.6875 36.625 455.140625 C 35.988281 454.59375 35.582031 454.148438 35.414062 453.804688 L 33.515625 461.09375 C 33.425781 461.464844 33.371094 461.738281 33.355469 461.917969 C 33.355469 462.066406 33.386719 462.160156 33.449219 462.207031 C 33.632812 462.324219 33.984375 462.398438 34.511719 462.425781 C 35.039062 462.457031 35.628906 462.472656 36.285156 462.472656 C 36.679688 462.472656 36.878906 462.664062 36.878906 463.050781 L 36.878906 463.207031 L 36.789062 463.628906 C 36.621094 464.070312 36.324219 464.289062 35.894531 464.273438 C 34.433594 464.214844 32.984375 464.167969 31.550781 464.136719 L 30.886719 464.136719 C 29.640625 464.136719 28.371094 464.183594 27.089844 464.273438 C 26.695312 464.273438 26.5 464.082031 26.496094 463.695312 L 26.496094 463.539062 L 26.589844 463.117188 C 26.757812 462.671875 27.054688 462.457031 27.480469 462.472656 C 28.015625 462.472656 28.457031 462.457031 28.808594 462.425781 C 29.15625 462.398438 29.40625 462.332031 29.5625 462.226562 C 29.714844 462.152344 29.875 461.746094 30.039062 461.003906 L 35.34375 440.472656 C 35.589844 439.511719 35.710938 438.679688 35.710938 437.984375 L 35.710938 437.449219 C 35.636719 436.742188 35.277344 436.386719 34.636719 436.382812 C 33.964844 436.386719 33.40625 436.925781 32.957031 438.007812 C 32.507812 439.089844 32.070312 440.496094 31.640625 442.226562 C 31.472656 442.628906 31.191406 442.835938 30.796875 442.851562 L 30.269531 442.851562 C 29.902344 442.851562 29.71875 442.667969 29.71875 442.292969 L 29.71875 442.140625 C 29.902344 441.445312 30.109375 440.683594 30.339844 439.863281 C 30.566406 439.039062 30.875 438.261719 31.253906 437.53125 C 31.636719 436.796875 32.117188 436.175781 32.695312 435.664062 C 33.273438 435.152344 33.996094 434.894531 34.867188 434.894531 C 36.027344 434.894531 36.949219 435.226562 37.644531 435.886719 C 38.339844 436.542969 38.746094 437.207031 38.867188 437.871094 C 39.460938 437.191406 40.257812 436.527344 41.257812 435.875 C 42.257812 435.222656 43.3125 434.894531 44.425781 434.894531 C 45.597656 434.894531 46.601562 435.203125 47.429688 435.820312 C 48.261719 436.433594 48.90625 437.199219 49.363281 438.117188 C 49.914062 439.214844 50.203125 440.398438 50.234375 441.671875 L 50.234375 441.984375 C 50.234375 443.125 50.074219 444.304688 49.753906 445.515625 Z M 46.390625 438.761719 C 46.253906 438.050781 46 437.476562 45.625 437.039062 C 45.25 436.605469 44.761719 436.386719 44.148438 436.382812 C 43.449219 436.386719 42.738281 436.621094 42.011719 437.097656 C 41.289062 437.570312 40.621094 438.171875 40.011719 438.894531 C 39.539062 439.503906 39.125 440.074219 38.777344 440.605469 L 36.261719 450.316406 C 36.324219 450.628906 36.378906 450.925781 36.433594 451.207031 C 36.484375 451.488281 36.558594 451.761719 36.648438 452.027344 C 36.878906 452.753906 37.210938 453.347656 37.644531 453.808594 C 38.078125 454.265625 38.65625 454.496094 39.371094 454.496094 C 40.011719 454.496094 40.644531 454.257812 41.269531 453.785156 C 41.894531 453.3125 42.464844 452.71875 42.984375 452.003906 C 43.714844 451.015625 44.265625 449.960938 44.632812 448.839844 C 44.996094 447.722656 45.332031 446.578125 45.636719 445.40625 C 45.941406 444.191406 46.207031 443.023438 46.4375 441.894531 C 46.527344 441.363281 46.574219 440.84375 46.574219 440.339844 C 46.574219 439.808594 46.511719 439.28125 46.390625 438.761719 Z M 46.390625 438.761719 "/>
<path style=" stroke:none;fill-rule:evenodd;fill:rgb(0%,0%,0%);fill-opacity:1;" d="M 62.660156 461.90625 C 60.898438 461.855469 59.1875 461.828125 57.523438 461.828125 C 55.859375 461.828125 54.148438 461.855469 52.390625 461.90625 L 52.390625 460.835938 L 53.378906 460.835938 C 53.695312 460.835938 53.992188 460.832031 54.269531 460.824219 C 54.546875 460.816406 54.808594 460.792969 55.058594 460.761719 C 55.308594 460.726562 55.523438 460.695312 55.703125 460.660156 C 55.855469 460.636719 55.984375 460.558594 56.082031 460.429688 C 56.183594 460.300781 56.234375 460.160156 56.234375 460 L 56.234375 445.976562 C 55.757812 446.183594 55.167969 446.34375 54.46875 446.449219 C 53.773438 446.558594 53.007812 446.613281 52.175781 446.609375 L 52.175781 445.554688 C 53.324219 445.554688 54.382812 445.433594 55.351562 445.1875 C 56.324219 444.941406 57.160156 444.484375 57.867188 443.8125 L 58.3125 443.8125 C 58.628906 443.8125 58.785156 443.949219 58.785156 444.222656 L 58.785156 460 C 58.785156 460.167969 58.835938 460.3125 58.929688 460.4375 C 59.027344 460.5625 59.164062 460.636719 59.347656 460.660156 C 59.5 460.695312 59.695312 460.726562 59.933594 460.761719 C 60.171875 460.792969 60.445312 460.816406 60.746094 460.824219 C 61.046875 460.832031 61.339844 460.835938 61.625 460.835938 L 62.660156 460.835938 Z M 62.660156 461.90625 "/>
<path style=" stroke:none;fill-rule:evenodd;fill:rgb(0%,0%,0%);fill-opacity:1;" d="M 48.699219 136.457031 C 48.347656 137.746094 47.835938 139.023438 47.15625 140.28125 C 46.476562 141.539062 45.597656 142.703125 44.515625 143.765625 C 43.628906 144.65625 42.628906 145.402344 41.507812 146.003906 C 40.386719 146.601562 39.222656 146.902344 38.019531 146.902344 C 37.027344 146.902344 36.214844 146.628906 35.574219 146.082031 C 34.933594 145.53125 34.527344 145.085938 34.359375 144.746094 L 32.464844 152.035156 C 32.371094 152.40625 32.320312 152.679688 32.304688 152.855469 C 32.304688 153.003906 32.335938 153.101562 32.394531 153.144531 C 32.578125 153.265625 32.933594 153.339844 33.457031 153.367188 C 33.984375 153.398438 34.574219 153.410156 35.230469 153.410156 C 35.625 153.410156 35.824219 153.605469 35.824219 153.988281 L 35.824219 154.144531 L 35.734375 154.566406 C 35.566406 155.011719 35.269531 155.226562 34.839844 155.210938 C 33.378906 155.152344 31.929688 155.109375 30.496094 155.078125 L 29.832031 155.078125 C 28.585938 155.078125 27.320312 155.121094 26.035156 155.210938 C 25.644531 155.210938 25.445312 155.019531 25.441406 154.632812 L 25.441406 154.476562 L 25.535156 154.054688 C 25.703125 153.613281 26 153.398438 26.425781 153.410156 C 26.960938 153.410156 27.402344 153.398438 27.753906 153.367188 C 28.101562 153.339844 28.355469 153.273438 28.507812 153.167969 C 28.660156 153.09375 28.820312 152.6875 28.988281 151.945312 L 34.292969 131.414062 C 34.535156 130.449219 34.65625 129.621094 34.65625 128.921875 L 34.65625 128.390625 C 34.582031 127.679688 34.226562 127.324219 33.585938 127.324219 C 32.914062 127.324219 32.351562 127.867188 31.902344 128.945312 C 31.453125 130.027344 31.015625 131.4375 30.589844 133.167969 C 30.421875 133.570312 30.140625 133.777344 29.742188 133.789062 L 29.214844 133.789062 C 28.847656 133.792969 28.667969 133.605469 28.667969 133.234375 L 28.667969 133.078125 C 28.847656 132.382812 29.054688 131.625 29.285156 130.800781 C 29.515625 129.980469 29.820312 129.203125 30.199219 128.46875 C 30.582031 127.734375 31.0625 127.113281 31.640625 126.601562 C 32.21875 126.089844 32.941406 125.835938 33.8125 125.835938 C 34.972656 125.835938 35.898438 126.167969 36.589844 126.824219 C 37.285156 127.484375 37.691406 128.148438 37.8125 128.8125 C 38.410156 128.132812 39.203125 127.464844 40.203125 126.8125 C 41.203125 126.164062 42.257812 125.835938 43.371094 125.835938 C 44.542969 125.835938 45.546875 126.144531 46.378906 126.757812 C 47.207031 127.375 47.851562 128.140625 48.308594 129.058594 C 48.859375 130.152344 49.148438 131.339844 49.179688 132.613281 L 49.179688 132.921875 C 49.179688 134.066406 49.019531 135.242188 48.699219 136.457031 Z M 45.335938 129.699219 C 45.199219 128.992188 44.945312 128.417969 44.570312 127.980469 C 44.199219 127.542969 43.707031 127.324219 43.097656 127.324219 C 42.394531 127.324219 41.683594 127.5625 40.957031 128.035156 C 40.234375 128.511719 39.566406 129.109375 38.957031 129.835938 C 38.484375 130.441406 38.074219 131.015625 37.722656 131.546875 L 35.207031 141.257812 C 35.269531 141.570312 35.328125 141.867188 35.378906 142.148438 C 35.433594 142.429688 35.503906 142.703125 35.597656 142.96875 C 35.824219 143.695312 36.15625 144.289062 36.589844 144.746094 C 37.023438 145.207031 37.601562 145.4375 38.316406 145.433594 C 38.957031 145.4375 39.589844 145.199219 40.214844 144.722656 C 40.839844 144.25 41.410156 143.65625 41.929688 142.945312 C 42.664062 141.953125 43.210938 140.898438 43.578125 139.78125 C 43.945312 138.664062 44.277344 137.515625 44.582031 136.34375 C 44.886719 135.132812 45.15625 133.960938 45.382812 132.835938 C 45.472656 132.300781 45.519531 131.785156 45.519531 131.277344 C 45.519531 130.746094 45.460938 130.21875 45.335938 129.699219 Z M 45.335938 129.699219 "/>
<path style=" stroke:none;fill-rule:evenodd;fill:rgb(0%,0%,0%);fill-opacity:1;" d="M 62.667969 152.84375 L 50.992188 152.84375 L 50.992188 152.160156 C 50.992188 152.109375 51.023438 152.035156 51.078125 151.9375 L 55.769531 147.382812 C 56.324219 146.835938 56.886719 146.273438 57.453125 145.703125 C 58.023438 145.128906 58.535156 144.546875 58.984375 143.949219 C 59.433594 143.351562 59.789062 142.734375 60.058594 142.101562 C 60.328125 141.464844 60.460938 140.800781 60.460938 140.101562 C 60.460938 139.515625 60.375 138.964844 60.203125 138.453125 C 60.03125 137.945312 59.78125 137.496094 59.457031 137.109375 C 59.132812 136.722656 58.722656 136.414062 58.238281 136.175781 C 57.75 135.941406 57.183594 135.820312 56.542969 135.820312 C 55.589844 135.820312 54.746094 136.078125 54.011719 136.585938 C 53.28125 137.097656 52.796875 137.660156 52.558594 138.273438 C 52.511719 138.289062 52.585938 138.296875 52.785156 138.296875 L 53.03125 138.296875 C 53.316406 138.355469 53.566406 138.445312 53.777344 138.566406 C 53.988281 138.6875 54.164062 138.851562 54.308594 139.0625 C 54.449219 139.273438 54.523438 139.53125 54.523438 139.828125 C 54.523438 140.328125 54.339844 140.707031 53.976562 140.972656 C 53.613281 141.238281 53.207031 141.371094 52.757812 141.371094 C 52.328125 141.371094 51.925781 141.238281 51.554688 140.972656 C 51.179688 140.707031 50.992188 140.328125 50.992188 139.828125 C 50.992188 139.132812 51.148438 138.472656 51.453125 137.851562 C 51.761719 137.226562 52.175781 136.6875 52.699219 136.230469 C 53.226562 135.777344 53.847656 135.414062 54.566406 135.148438 C 55.28125 134.882812 56.042969 134.75 56.84375 134.75 C 57.839844 134.75 58.75 134.882812 59.578125 135.144531 C 60.40625 135.40625 61.109375 135.78125 61.691406 136.269531 C 62.273438 136.761719 62.730469 137.324219 63.0625 137.96875 C 63.390625 138.613281 63.558594 139.324219 63.558594 140.101562 C 63.558594 140.964844 63.335938 141.761719 62.898438 142.484375 C 62.460938 143.210938 61.914062 143.878906 61.261719 144.484375 C 60.613281 145.089844 59.921875 145.660156 59.191406 146.195312 C 58.460938 146.730469 57.796875 147.25 57.203125 147.753906 L 53.90625 150.53125 L 58.222656 150.53125 C 58.824219 150.53125 59.386719 150.527344 59.90625 150.519531 C 60.429688 150.511719 60.871094 150.492188 61.234375 150.46875 C 61.597656 150.445312 61.785156 150.425781 61.792969 150.417969 C 61.871094 150.359375 61.941406 150.246094 62.007812 150.070312 C 62.074219 149.894531 62.136719 149.691406 62.195312 149.453125 C 62.25 149.21875 62.308594 148.976562 62.371094 148.734375 C 62.421875 148.488281 62.476562 148.21875 62.523438 147.929688 L 63.585938 147.929688 Z M 62.667969 152.84375 "/>
<path style=" stroke:none;fill-rule:evenodd;fill:rgb(0%,0%,0%);fill-opacity:1;" d="M 344.242188 443.746094 C 344.242188 448.246094 340.597656 451.894531 336.097656 451.894531 C 331.601562 451.894531 327.957031 448.246094 327.957031 443.746094 C 327.957031 439.242188 331.601562 435.59375 336.097656 435.59375 C 340.597656 435.59375 344.242188 439.242188 344.242188 443.746094 Z M 344.242188 443.746094 "/>
<path style=" stroke:none;fill-rule:evenodd;fill:rgb(0%,0%,0%);fill-opacity:1;" d="M 344.242188 134.683594 C 344.242188 139.183594 340.597656 142.832031 336.097656 142.832031 C 331.601562 142.832031 327.957031 139.183594 327.957031 134.683594 C 327.957031 130.179688 331.601562 126.53125 336.097656 126.53125 C 340.597656 126.53125 344.242188 130.179688 344.242188 134.683594 Z M 344.242188 134.683594 "/>
</g>
</svg>
