<?xml version="1.0" encoding="UTF-8"?>
<svg xmlns="http://www.w3.org/2000/svg" xmlns:xlink="http://www.w3.org/1999/xlink" width="930pt" height="319.98pt" viewBox="0 0 930 319.98" version="1.1">
<defs>
<clipPath id="clip1">
  <path d="M 730 3.96875 L 907 3.96875 L 907 132 L 730 132 Z M 730 3.96875 "/>
</clipPath>
<clipPath id="clip2">
  <path d="M 730 211 L 907 211 L 907 319.980469 L 730 319.980469 Z M 730 211 "/>
</clipPath>
</defs>
<g id="surface1">
<path style="fill-rule:evenodd;fill:rgb(0%,50.19989%,50.19989%);fill-opacity:0.69804;stroke-width:15;stroke-linecap:round;stroke-linejoin:round;stroke:rgb(0%,0%,0%);stroke-opacity:1;stroke-miterlimit:10;" d="M 2553.571149 256.964438 L 2553.571149 1756.974804 L 2733.561949 1756.974804 L 2733.561949 256.964438 Z M 2553.571149 256.964438 " transform="matrix(0.146514,0,0,-0.146507,0,323.6236)"/>
<path style="fill-rule:evenodd;fill:rgb(0%,50.19989%,50.19989%);fill-opacity:0.69804;stroke-width:15;stroke-linecap:round;stroke-linejoin:round;stroke:rgb(0%,0%,0%);stroke-opacity:1;stroke-miterlimit:10;" d="M 2737.401184 916.970066 L 5299.957209 916.970066 L 5299.957209 1096.969177 L 2737.401184 1096.969177 Z M 2737.401184 916.970066 " transform="matrix(0.146514,0,0,-0.146507,0,323.6236)"/>
<path style="fill-rule:evenodd;fill:rgb(100%,100%,100%);fill-opacity:1;stroke-width:15;stroke-linecap:round;stroke-linejoin:round;stroke:rgb(0%,0%,0%);stroke-opacity:1;stroke-miterlimit:10;" d="M 1037.446601 256.964438 L 1037.446601 1756.974804 L 1217.437401 1756.974804 L 1217.437401 256.964438 Z M 1037.446601 256.964438 " transform="matrix(0.146514,0,0,-0.146507,0,323.6236)"/>
<path style="fill-rule:evenodd;fill:rgb(0%,50.19989%,50.19989%);fill-opacity:0.69804;stroke-width:15;stroke-linecap:round;stroke-linejoin:round;stroke:rgb(0%,0%,0%);stroke-opacity:1;stroke-miterlimit:10;" d="M 1037.526585 1762.200671 L 5062.457869 1762.200671 L 5062.457869 1942.199782 L 1037.526585 1942.199782 Z M 1037.526585 1762.200671 " transform="matrix(0.146514,0,0,-0.146507,0,323.6236)"/>
<path style="fill-rule:evenodd;fill:rgb(0%,50.19989%,50.19989%);fill-opacity:0.69804;stroke-width:15;stroke-linecap:round;stroke-linejoin:round;stroke:rgb(0%,0%,0%);stroke-opacity:1;stroke-miterlimit:10;" d="M 1037.526585 72.939277 L 5062.457869 72.939277 L 5062.457869 252.96505 L 1037.526585 252.96505 Z M 1037.526585 72.939277 " transform="matrix(0.146514,0,0,-0.146507,0,323.6236)"/>
<g clip-path="url(#clip1)" clip-rule="nonzero">
<path style=" stroke:none;fill-rule:evenodd;fill:rgb(100%,100%,100%);fill-opacity:1;" d="M 730.730469 131.730469 L 906.546875 131.730469 L 906.546875 -44.078125 L 730.730469 -44.078125 Z M 730.730469 131.730469 "/>
</g>
<g clip-path="url(#clip2)" clip-rule="nonzero">
<path style=" stroke:none;fill-rule:evenodd;fill:rgb(100%,100%,100%);fill-opacity:1;" d="M 730.730469 387.65625 L 906.546875 387.65625 L 906.546875 211.847656 L 730.730469 211.847656 Z M 730.730469 387.65625 "/>
</g>
<path style=" stroke:none;fill-rule:nonzero;fill:rgb(0%,0%,94.099426%);fill-opacity:1;" d="M 86.132812 225.8125 L 253.199219 177.085938 L 254.429688 181.304688 L 87.363281 230.03125 C 86.199219 230.371094 84.980469 229.699219 84.640625 228.535156 C 84.300781 227.371094 84.96875 226.152344 86.132812 225.8125 Z M 287.535156 169.359375 L 242.878906 173.226562 L 253.164062 177.09375 L 254.394531 181.3125 L 247.800781 190.101562 Z M 287.535156 169.359375 "/>
<path style=" stroke:none;fill-rule:evenodd;fill:rgb(0%,0%,0%);fill-opacity:1;" d="M 48.597656 224.691406 C 48.066406 226.777344 47.203125 228.789062 46.011719 230.734375 C 44.820312 232.671875 43.320312 234.449219 41.511719 236.058594 C 39.796875 237.570312 38.019531 238.726562 36.179688 239.53125 C 36.210938 240.046875 36.261719 240.582031 36.335938 241.125 C 36.410156 241.671875 36.539062 242.144531 36.726562 242.539062 C 36.910156 242.933594 37.164062 243.25 37.492188 243.476562 C 37.816406 243.707031 38.261719 243.824219 38.824219 243.824219 C 39.34375 243.824219 39.84375 243.710938 40.324219 243.488281 C 40.804688 243.265625 41.261719 242.964844 41.691406 242.582031 C 42.121094 242.203125 42.5 241.746094 42.824219 241.210938 C 43.148438 240.679688 43.378906 240.132812 43.511719 239.574219 C 43.554688 239.386719 43.65625 239.230469 43.8125 239.101562 C 43.96875 238.972656 44.148438 238.90625 44.355469 238.90625 C 44.5625 238.90625 44.75 238.984375 44.914062 239.140625 C 44.972656 239.257812 45 239.359375 45 239.445312 C 45 239.53125 44.980469 239.609375 44.933594 239.679688 C 44.714844 240.660156 44.390625 241.65625 43.96875 242.667969 C 43.546875 243.683594 43.03125 244.617188 42.425781 245.472656 C 41.820312 246.328125 41.101562 247.03125 40.269531 247.574219 C 39.441406 248.121094 38.5 248.394531 37.449219 248.394531 C 36.261719 248.394531 35.402344 248.128906 34.871094 247.597656 C 34.335938 247.066406 34.003906 246.367188 33.871094 245.503906 C 33.808594 245.117188 33.78125 244.699219 33.78125 244.253906 C 33.78125 243.792969 33.808594 243.320312 33.871094 242.832031 C 33.988281 241.851562 34.09375 240.988281 34.179688 240.242188 C 33.027344 240.617188 31.753906 240.804688 30.359375 240.804688 C 28.40625 240.804688 26.667969 240.371094 25.148438 239.511719 C 23.632812 238.648438 22.421875 237.484375 21.519531 236.015625 C 20.527344 234.390625 19.957031 232.59375 19.808594 230.621094 C 19.75 230.148438 19.71875 229.675781 19.71875 229.199219 C 19.71875 227.71875 19.910156 226.1875 20.296875 224.605469 C 20.859375 222.492188 21.730469 220.441406 22.90625 218.449219 C 24.085938 216.457031 25.589844 214.65625 27.425781 213.042969 C 29.058594 211.59375 30.835938 210.425781 32.769531 209.542969 C 34.703125 208.65625 36.65625 208.214844 38.625 208.214844 C 40.578125 208.214844 42.308594 208.660156 43.8125 209.550781 C 45.316406 210.445312 46.519531 211.621094 47.421875 213.085938 C 48.414062 214.714844 49 216.523438 49.175781 218.523438 C 49.207031 219.011719 49.21875 219.496094 49.21875 219.96875 C 49.21875 221.507812 49.015625 223.082031 48.597656 224.691406 Z M 44.15625 213.992188 C 43.671875 212.789062 42.933594 211.777344 41.957031 210.964844 C 40.980469 210.15625 39.765625 209.746094 38.3125 209.746094 C 36.878906 209.746094 35.449219 210.160156 34.027344 210.988281 C 32.605469 211.8125 31.339844 212.839844 30.226562 214.058594 C 28.804688 215.628906 27.691406 217.324219 26.882812 219.148438 C 26.078125 220.976562 25.429688 222.824219 24.9375 224.691406 C 24.449219 226.535156 24.160156 228.351562 24.074219 230.148438 C 24.042969 230.40625 24.027344 230.667969 24.027344 230.925781 C 24.027344 232.421875 24.296875 233.816406 24.828125 235.109375 C 25.167969 235.914062 25.597656 236.636719 26.117188 237.265625 C 26.636719 237.902344 27.117188 238.308594 27.558594 238.496094 C 27.546875 238.46875 27.539062 238.253906 27.539062 237.847656 C 27.539062 237.503906 27.582031 237.152344 27.671875 236.792969 C 27.804688 236.289062 28.019531 235.804688 28.316406 235.335938 C 28.613281 234.871094 28.957031 234.453125 29.347656 234.085938 C 29.742188 233.71875 30.1875 233.425781 30.695312 233.203125 C 31.199219 232.980469 31.722656 232.867188 32.269531 232.867188 C 33.042969 232.867188 33.667969 233.011719 34.148438 233.296875 C 34.628906 233.585938 35.011719 233.953125 35.292969 234.398438 C 35.574219 234.84375 35.765625 235.359375 35.871094 235.941406 C 35.972656 236.523438 36.035156 237 36.046875 237.375 C 36.375 237.160156 36.785156 236.84375 37.28125 236.425781 C 37.777344 236.007812 38.253906 235.546875 38.714844 235.042969 C 40.136719 233.507812 41.246094 231.84375 42.046875 230.054688 C 42.847656 228.261719 43.484375 226.445312 43.953125 224.605469 C 44.445312 222.726562 44.75 220.859375 44.867188 219.019531 C 44.898438 218.746094 44.914062 218.457031 44.914062 218.15625 C 44.914062 216.691406 44.660156 215.300781 44.15625 213.992188 Z M 34.402344 238.34375 C 34.433594 238.015625 34.449219 237.65625 34.449219 237.265625 L 34.449219 236.746094 C 34.417969 236.246094 34.324219 235.816406 34.160156 235.457031 C 33.996094 235.097656 33.75 234.808594 33.414062 234.59375 C 33.082031 234.375 32.621094 234.269531 32.027344 234.265625 C 31.390625 234.269531 30.792969 234.523438 30.238281 235.035156 C 29.683594 235.546875 29.308594 236.160156 29.117188 236.878906 C 29.058594 237.121094 29.027344 237.359375 29.027344 237.589844 C 29.027344 237.890625 29.078125 238.171875 29.183594 238.429688 C 29.359375 238.878906 29.648438 239.160156 30.050781 239.273438 L 30.625 239.273438 C 31.945312 239.273438 33.203125 238.964844 34.402344 238.34375 Z M 34.402344 238.34375 "/>
<path style=" stroke:none;fill-rule:evenodd;fill:rgb(0%,0%,0%);fill-opacity:1;" d="M 69.800781 229.609375 C 69.746094 229.855469 69.578125 229.972656 69.300781 229.972656 C 69.003906 229.972656 68.722656 230.003906 68.453125 230.066406 C 68.183594 230.125 67.917969 230.230469 67.664062 230.371094 C 67.410156 230.519531 67.175781 230.691406 66.960938 230.898438 C 66.746094 231.101562 66.550781 231.335938 66.375 231.589844 L 56.21875 246.339844 C 56.078125 246.566406 55.863281 246.671875 55.574219 246.664062 L 55.3125 246.664062 C 54.964844 246.664062 54.800781 246.535156 54.808594 246.277344 L 53.066406 230.855469 C 53.03125 230.648438 52.996094 230.484375 52.957031 230.367188 C 52.917969 230.25 52.863281 230.167969 52.789062 230.117188 C 52.660156 230.054688 52.453125 230.015625 52.167969 229.996094 C 51.886719 229.984375 51.5625 229.972656 51.203125 229.972656 C 51.0625 229.972656 50.957031 229.933594 50.894531 229.855469 C 50.835938 229.804688 50.8125 229.746094 50.8125 229.671875 C 50.8125 229.621094 50.824219 229.578125 50.851562 229.539062 L 50.894531 229.359375 C 50.921875 229.253906 50.984375 229.164062 51.082031 229.09375 C 51.179688 229.019531 51.296875 228.984375 51.4375 228.984375 C 52.328125 229.03125 53.230469 229.058594 54.140625 229.054688 C 54.28125 229.058594 54.429688 229.046875 54.585938 229.03125 C 55.664062 229.03125 56.742188 229.015625 57.820312 228.984375 C 57.949219 228.984375 58.066406 229.023438 58.167969 229.105469 C 58.203125 229.167969 58.226562 229.230469 58.226562 229.285156 C 58.226562 229.335938 58.210938 229.378906 58.179688 229.417969 L 58.140625 229.597656 C 58.109375 229.714844 58.042969 229.804688 57.9375 229.871094 C 57.832031 229.9375 57.71875 229.972656 57.59375 229.972656 C 57.273438 229.972656 56.972656 229.984375 56.703125 230.007812 C 56.433594 230.035156 56.171875 230.101562 55.910156 230.203125 C 55.753906 230.277344 55.679688 230.394531 55.6875 230.566406 L 55.6875 230.652344 C 56.011719 232.792969 56.273438 234.945312 56.46875 237.105469 C 56.664062 239.269531 56.871094 241.316406 57.09375 243.246094 L 65.316406 231.300781 C 65.4375 231.132812 65.511719 230.957031 65.539062 230.769531 L 65.539062 230.710938 C 65.539062 230.589844 65.507812 230.480469 65.441406 230.382812 C 65.238281 230.113281 64.855469 229.972656 64.300781 229.972656 C 64.054688 229.972656 63.9375 229.867188 63.9375 229.644531 L 63.9375 229.5625 L 63.992188 229.34375 C 64.09375 229.105469 64.277344 228.984375 64.535156 228.984375 C 65.355469 229.015625 66.175781 229.03125 67 229.03125 C 67.113281 229.046875 67.222656 229.058594 67.324219 229.054688 C 68.03125 229.058594 68.753906 229.03125 69.496094 228.984375 C 69.746094 228.984375 69.882812 229.09375 69.898438 229.308594 L 69.898438 229.40625 Z M 69.800781 229.609375 "/>
<path style=" stroke:none;fill-rule:evenodd;fill:rgb(0%,0%,0%);fill-opacity:1;" d="M 213.003906 232.082031 C 212.917969 232.515625 212.648438 232.730469 212.203125 232.730469 C 211.734375 232.730469 211.277344 232.785156 210.851562 232.894531 C 210.421875 233 210 233.183594 209.59375 233.445312 C 209.1875 233.703125 208.8125 234.015625 208.472656 234.382812 C 208.132812 234.746094 207.820312 235.160156 207.539062 235.621094 L 191.34375 261.953125 C 191.121094 262.359375 190.78125 262.550781 190.320312 262.539062 L 189.898438 262.539062 C 189.351562 262.539062 189.085938 262.308594 189.101562 261.847656 L 186.324219 234.304688 C 186.261719 233.933594 186.203125 233.640625 186.144531 233.433594 C 186.085938 233.222656 185.996094 233.078125 185.878906 232.988281 C 185.671875 232.875 185.34375 232.804688 184.890625 232.773438 C 184.4375 232.746094 183.921875 232.730469 183.347656 232.730469 C 183.125 232.730469 182.960938 232.660156 182.855469 232.515625 C 182.769531 232.429688 182.722656 232.320312 182.722656 232.191406 C 182.722656 232.105469 182.746094 232.027344 182.789062 231.953125 L 182.855469 231.628906 C 182.902344 231.441406 183.003906 231.289062 183.15625 231.15625 C 183.3125 231.027344 183.503906 230.960938 183.722656 230.960938 C 185.144531 231.050781 186.582031 231.089844 188.035156 231.089844 C 188.257812 231.089844 188.492188 231.078125 188.742188 231.046875 C 190.460938 231.050781 192.179688 231.019531 193.898438 230.960938 C 194.105469 230.960938 194.292969 231.035156 194.453125 231.175781 C 194.511719 231.292969 194.542969 231.402344 194.542969 231.5 C 194.542969 231.589844 194.523438 231.667969 194.476562 231.738281 L 194.410156 232.0625 C 194.367188 232.261719 194.257812 232.425781 194.085938 232.546875 C 193.917969 232.671875 193.734375 232.730469 193.542969 232.730469 C 193.023438 232.730469 192.550781 232.753906 192.121094 232.796875 C 191.691406 232.839844 191.269531 232.953125 190.855469 233.140625 C 190.605469 233.269531 190.484375 233.484375 190.5 233.785156 L 190.5 233.9375 C 191.019531 237.761719 191.433594 241.609375 191.742188 245.464844 C 192.054688 249.328125 192.386719 252.984375 192.742188 256.433594 L 205.851562 235.101562 C 206.046875 234.800781 206.164062 234.484375 206.207031 234.152344 L 206.207031 234.042969 C 206.207031 233.832031 206.15625 233.636719 206.050781 233.464844 C 205.726562 232.976562 205.121094 232.730469 204.226562 232.730469 C 203.84375 232.730469 203.652344 232.539062 203.652344 232.148438 L 203.652344 231.996094 L 203.738281 231.609375 C 203.902344 231.179688 204.191406 230.960938 204.605469 230.960938 C 205.910156 231.019531 207.21875 231.050781 208.539062 231.046875 C 208.71875 231.078125 208.886719 231.089844 209.046875 231.089844 C 210.175781 231.089844 211.332031 231.050781 212.515625 230.960938 C 212.917969 230.960938 213.128906 231.15625 213.160156 231.542969 L 213.160156 231.714844 Z M 213.003906 232.082031 "/>
<path style="fill:none;stroke-width:0.603;stroke-linecap:round;stroke-linejoin:round;stroke:rgb(0%,0%,0%);stroke-opacity:1;stroke-miterlimit:10;" d="M 17.570535 13.401455 L 28.124371 13.401455 " transform="matrix(2.930288,0,-0.000000672567,-2.930148,174.485935,282.928406)"/>
<path style="fill:none;stroke-width:0.603;stroke-linecap:round;stroke-linejoin:round;stroke:rgb(0%,0%,0%);stroke-opacity:1;stroke-miterlimit:10;" d="M 17.570534 10.23662 L 28.12437 10.23662 " transform="matrix(2.930288,0,-0.000000672567,-2.930148,174.485935,282.928406)"/>
<path style=" stroke:none;fill-rule:evenodd;fill:rgb(0%,0%,0%);fill-opacity:1;" d="M 284.617188 228.90625 L 307.109375 228.90625 L 309.648438 226.433594 L 313.359375 230.042969 L 291.070312 230.042969 C 289.125 230.054688 287.558594 230.246094 286.386719 230.609375 Z M 307.882812 238.203125 L 307.882812 250.542969 C 307.882812 252.828125 307.953125 255.109375 308.082031 257.375 L 305.152344 258.703125 L 305.152344 255.855469 L 291.070312 255.855469 L 291.070312 258.132812 L 288.140625 259.652344 C 288.273438 255.617188 288.332031 251.480469 288.332031 247.230469 C 288.332031 242.996094 288.273438 238.785156 288.140625 234.597656 L 291.070312 236.308594 L 304.761719 236.308594 L 306.515625 234.40625 L 309.648438 237.066406 Z M 291.070312 237.445312 L 291.070312 245.035156 L 305.152344 245.035156 L 305.152344 237.445312 Z M 291.070312 246.175781 L 291.070312 254.71875 L 305.152344 254.71875 L 305.152344 246.175781 Z M 281.496094 263.257812 L 307.488281 263.257812 L 310.429688 260.410156 L 314.535156 264.398438 L 287.75 264.398438 C 285.921875 264.398438 284.425781 264.585938 283.253906 264.964844 Z M 273.277344 235.734375 C 273.417969 237.644531 273.480469 239.226562 273.480469 240.480469 C 273.480469 241.761719 273.382812 242.839844 273.191406 243.71875 C 273.003906 244.609375 272.542969 245.179688 271.820312 245.429688 C 271.105469 245.6875 270.550781 245.808594 270.15625 245.796875 C 269.636719 245.808594 269.183594 245.59375 268.792969 245.144531 C 268.402344 244.703125 268.792969 243.851562 269.953125 242.570312 C 271.140625 241.445312 271.984375 239.164062 272.507812 235.734375 Z M 278.757812 233.457031 L 278.757812 257.941406 C 278.757812 261.121094 278.828125 264.089844 278.949219 266.863281 L 276.015625 268.003906 C 276.15625 263.707031 276.21875 259.984375 276.21875 256.804688 L 276.21875 232.507812 C 276.21875 228.976562 276.15625 225.9375 276.015625 223.398438 L 280.714844 225.488281 L 278.757812 227.007812 L 278.757812 232.699219 C 281.628906 233.980469 283.382812 234.988281 284.039062 235.746094 C 284.6875 236.507812 285.011719 237.207031 285.011719 237.824219 C 285.011719 238.464844 284.855469 239.105469 284.523438 239.734375 C 284.203125 240.375 283.90625 240.683594 283.644531 240.671875 C 283.253906 240.683594 282.863281 240.175781 282.46875 239.152344 C 281.832031 237.515625 280.585938 235.617188 278.757812 233.457031 Z M 278.757812 233.457031 "/>
<path style=" stroke:none;fill-rule:evenodd;fill:rgb(0%,0%,0%);fill-opacity:1;" d="M 325.289062 245.035156 L 325.289062 249.023438 L 335.660156 249.023438 L 335.660156 245.035156 Z M 338.199219 245.035156 L 338.199219 249.023438 L 348.164062 249.023438 L 348.164062 245.035156 Z M 325.289062 250.160156 L 325.289062 253.957031 L 335.660156 253.957031 L 335.660156 250.160156 Z M 338.199219 250.160156 L 338.199219 253.957031 L 348.164062 253.957031 L 348.164062 250.160156 Z M 350.714844 245.605469 C 350.714844 250.554688 350.785156 253.839844 350.902344 255.476562 L 348.164062 256.613281 L 348.164062 255.097656 L 338.199219 255.097656 L 338.199219 259.273438 L 348.757812 259.273438 L 351.496094 256.996094 L 354.617188 260.410156 L 338.199219 260.410156 L 338.199219 264.964844 L 353.25 264.964844 L 356.179688 262.308594 L 359.503906 266.105469 L 321.183594 266.105469 C 319.503906 266.105469 317.933594 266.292969 316.5 266.675781 L 314.734375 264.964844 L 335.660156 264.964844 L 335.660156 260.410156 L 325.492188 260.410156 C 323.808594 260.421875 322.242188 260.613281 320.796875 260.980469 L 319.039062 259.273438 L 335.660156 259.273438 L 335.660156 255.097656 L 325.289062 255.097656 L 325.289062 256.234375 L 322.5625 257.183594 C 322.695312 254.667969 322.753906 252.167969 322.753906 249.699219 C 322.753906 247.230469 322.695312 244.796875 322.5625 242.382812 L 325.289062 243.898438 L 347.972656 243.898438 L 349.148438 242.382812 L 352.078125 244.46875 Z M 325.886719 226.816406 L 325.886719 230.042969 L 347.582031 230.042969 L 347.582031 226.816406 Z M 325.886719 231.183594 L 325.886719 234.597656 L 347.582031 234.597656 L 347.582031 231.183594 Z M 350.121094 227.195312 C 350.121094 231.894531 350.191406 234.988281 350.320312 236.496094 L 347.582031 237.632812 L 347.582031 235.734375 L 325.886719 235.734375 L 325.886719 237.445312 L 323.140625 238.582031 C 323.273438 236.566406 323.332031 234.015625 323.332031 230.910156 C 323.332031 227.8125 323.273438 225.628906 323.140625 224.347656 L 326.074219 225.675781 L 347.191406 225.675781 L 348.363281 223.96875 L 351.496094 226.058594 Z M 313.949219 239.53125 L 354.035156 239.53125 L 356.777344 237.066406 L 360.097656 240.671875 L 319.429688 240.671875 C 318.386719 240.683594 317.152344 240.871094 315.71875 241.242188 Z M 313.949219 239.53125 "/>
</g>
</svg>
