<?xml version="1.0" encoding="utf-8"?>
<!-- Generator: Adobe Illustrator 19.0.0, SVG Export Plug-In . SVG Version: 6.00 Build 0)  -->
<svg version="1.1" id="Layer_1" xmlns="http://www.w3.org/2000/svg" xmlns:xlink="http://www.w3.org/1999/xlink" x="0px" y="0px"
	 viewBox="0 0 506.6666565 218.6666718" style="enable-background:new 0 0 506.6666565 218.6666718;" xml:space="preserve">
<style type="text/css">
	.st0{fill:none;stroke:#F7941E;stroke-miterlimit:10;}
	.st1{opacity:0.1490196;fill:none;stroke:#262626;stroke-width:0.5000002;stroke-linejoin:round;stroke-miterlimit:10;}
	.st2{fill:none;stroke:#262626;stroke-width:0.5000002;stroke-linecap:square;stroke-linejoin:round;stroke-miterlimit:10;}
	.st3{fill:none;stroke:#000000;stroke-width:0.5000002;stroke-linecap:square;stroke-miterlimit:10;}
	.st4{opacity:0.8509804;fill:#FFFFFF;}
	.st5{fill:#A7A9AC;}
	.st6{fill:none;stroke:#000000;stroke-width:0.5000002;stroke-linecap:square;stroke-linejoin:round;stroke-miterlimit:10;}
	.st7{opacity:0.8509804;fill:#FFFFFF;stroke:#000000;stroke-miterlimit:10;}
</style>
<line id="XMLID_317_" class="st0" x1="108.3333359" y1="202.1718292" x2="18.333334" y2="202.1718292"/>
<line id="XMLID_318_" class="st0" x1="73.5518341" y1="181.2153625" x2="18.333334" y2="181.2153625"/>
<line id="XMLID_319_" class="st0" x1="53.8454552" y1="160.4948425" x2="18.333334" y2="160.4948425"/>
<line id="XMLID_320_" class="st0" x1="41.6662407" y1="126.9683838" x2="18.333334" y2="126.9683838"/>
<line id="XMLID_321_" class="st0" x1="41.6662407" y1="93.441864" x2="18.333334" y2="93.441864"/>
<line id="XMLID_322_" class="st0" x1="53.8454552" y1="59.9153748" x2="18.333334" y2="59.9153748"/>
<line id="XMLID_323_" class="st0" x1="73.5518341" y1="39.1948547" x2="18.333334" y2="39.1948547"/>
<line id="XMLID_324_" class="st0" x1="105.4374084" y1="18.4743652" x2="18.333334" y2="18.4743652"/>
<polygon id="XMLID_172_" points="66.0246735,59.9153748 66.0246735,93.441864 97.9102478,93.441864 117.6166382,59.9153748 
	97.9102478,39.1948547 "/>
<polygon id="XMLID_164_" points="157.0293884,59.9153748 176.7357788,93.441864 208.6213684,93.441864 208.6213684,59.9153748 
	176.7357788,39.1948547 "/>
<line id="XMLID_309_" class="st1" x1="393.3230286" y1="203.117218" x2="393.3230286" y2="16.9648438"/>
<line id="XMLID_308_" class="st1" x1="487.8622131" y1="110.0410156" x2="298.7838135" y2="110.0410156"/>
<line id="XMLID_307_" class="st2" x1="393.3230286" y1="203.117218" x2="393.3230286" y2="201.2264404"/>
<line id="XMLID_306_" class="st2" x1="298.7838135" y1="110.0410156" x2="300.6746216" y2="110.0410156"/>
<polygon id="XMLID_305_" points="361.8099365,99.8018188 373.8468628,136.8476563 412.7991638,136.8476563 424.8360901,99.8018188 
	393.3230286,76.9062195 "/>
<polyline id="XMLID_304_" class="st3" points="393.3230286,76.9062195 361.8099365,99.8018188 373.8468628,136.8476563 
	412.7991638,136.8476563 424.8360901,99.8018188 393.3230286,76.9062195 "/>
<polygon id="XMLID_303_" points="373.8468628,16.9648438 361.8099365,33.5322266 393.3230286,43.7714539 424.8360901,33.5322266 
	412.7991638,16.9648438 "/>
<polyline id="XMLID_302_" class="st3" points="393.3230286,43.7714539 361.8099365,33.5322266 373.8468628,16.9648438 
	412.7991638,16.9648438 424.8360901,33.5322266 393.3230286,43.7714539 "/>
<polygon id="XMLID_301_" points="310.8207397,62.7559814 298.7838135,99.8018188 310.8207397,116.3692017 330.296875,89.5625916 
	330.296875,56.4277954 "/>
<polyline id="XMLID_300_" class="st3" points="330.296875,89.5625916 310.8207397,116.3692017 298.7838135,99.8018188 
	310.8207397,62.7559814 330.296875,56.4277954 330.296875,89.5625916 "/>
<polygon id="XMLID_299_" points="354.3707275,163.6542664 322.857666,153.4150391 322.857666,173.8934631 354.3707275,196.7890625 
	373.8468628,190.4608459 "/>
<polyline id="XMLID_298_" class="st3" points="354.3707275,163.6542664 373.8468628,190.4608459 354.3707275,196.7890625 
	322.857666,173.8934631 322.857666,153.4150391 354.3707275,163.6542664 "/>
<polygon id="XMLID_297_" points="432.2752991,163.6542664 412.7991638,190.4608459 432.2752991,196.7890625 
	463.7883606,173.8934631 463.7883606,153.4150391 "/>
<polyline id="XMLID_296_" class="st3" points="432.2752991,163.6542664 463.7883606,153.4150391 463.7883606,173.8934631 
	432.2752991,196.7890625 412.7991638,190.4608459 432.2752991,163.6542664 "/>
<polygon id="XMLID_295_" points="475.8252869,62.7559814 456.3491516,56.4277954 456.3491516,89.5625916 475.8252869,116.3692017 
	487.8622131,99.8018188 "/>
<polyline id="XMLID_294_" class="st3" points="456.3491516,89.5625916 456.3491516,56.4277954 475.8252869,62.7559814 
	487.8622131,99.8018188 475.8252869,116.3692017 456.3491516,89.5625916 "/>
<polyline id="XMLID_293_" class="st3" points="354.3707275,56.4277954 322.857666,66.6670227 322.857666,46.1885986 
	354.3707275,23.2929993 373.8468628,29.6211853 354.3707275,56.4277954 "/>
<polyline id="XMLID_292_" class="st3" points="330.296875,130.5194397 330.296875,163.6542664 310.8207397,157.3260803 
	298.7838135,120.2802429 310.8207397,103.7128601 330.296875,130.5194397 "/>
<polyline id="XMLID_291_" class="st3" points="393.3230286,176.3106384 424.8360901,186.5498352 412.7991638,203.117218 
	373.8468628,203.117218 361.8099365,186.5498352 393.3230286,176.3106384 "/>
<polyline id="XMLID_290_" class="st3" points="456.3491516,130.5194397 475.8252869,103.7128601 487.8622131,120.2802429 
	475.8252869,157.3260803 456.3491516,163.6542664 456.3491516,130.5194397 "/>
<polyline id="XMLID_289_" class="st3" points="432.2752991,56.4277954 412.7991638,29.6211853 432.2752991,23.2929993 
	463.7883606,46.1885986 463.7883606,66.6670227 432.2752991,56.4277954 "/>
<polyline id="XMLID_288_" class="st3" points="373.8468628,83.2344055 361.8099365,120.2802429 393.3230286,143.1758423 
	424.8360901,120.2802429 412.7991638,83.2344055 373.8468628,83.2344055 "/>
<polygon id="XMLID_287_" class="st4" points="330.296875,56.4277954 330.296875,89.5625916 361.8099365,99.8018188 
	393.3230286,76.9062195 393.3230286,43.7714539 361.8099365,33.5322266 "/>
<polyline id="XMLID_286_" class="st3" points="361.8099365,99.8018188 393.3230286,76.9062195 393.3230286,43.7714539 
	361.8099365,33.5322266 330.296875,56.4277954 330.296875,89.5625916 361.8099365,99.8018188 "/>
<polygon id="XMLID_285_" class="st4" points="310.8207397,116.3692017 322.857666,153.4150391 354.3707275,163.6542664 
	373.8468628,136.8476563 361.8099365,99.8018188 330.296875,89.5625916 "/>
<polyline id="XMLID_284_" class="st3" points="373.8468628,136.8476563 361.8099365,99.8018188 330.296875,89.5625916 
	310.8207397,116.3692017 322.857666,153.4150391 354.3707275,163.6542664 373.8468628,136.8476563 "/>
<polygon id="XMLID_283_" class="st4" points="354.3707275,163.6542664 373.8468628,190.4608459 412.7991638,190.4608459 
	432.2752991,163.6542664 412.7991638,136.8476563 373.8468628,136.8476563 "/>
<polyline id="XMLID_282_" class="st3" points="412.7991638,136.8476563 373.8468628,136.8476563 354.3707275,163.6542664 
	373.8468628,190.4608459 412.7991638,190.4608459 432.2752991,163.6542664 412.7991638,136.8476563 "/>
<polygon id="XMLID_281_" class="st4" points="412.7991638,136.8476563 432.2752991,163.6542664 463.7883606,153.4150391 
	475.8252869,116.3692017 456.3491516,89.5625916 424.8360901,99.8018188 "/>
<polyline id="XMLID_280_" class="st3" points="424.8360901,99.8018188 412.7991638,136.8476563 432.2752991,163.6542664 
	463.7883606,153.4150391 475.8252869,116.3692017 456.3491516,89.5625916 424.8360901,99.8018188 "/>
<polygon id="XMLID_279_" class="st4" points="393.3230286,43.7714539 393.3230286,76.9062195 424.8360901,99.8018188 
	456.3491516,89.5625916 456.3491516,56.4277954 424.8360901,33.5322266 "/>
<polyline id="XMLID_278_" class="st3" points="393.3230286,76.9062195 424.8360901,99.8018188 456.3491516,89.5625916 
	456.3491516,56.4277954 424.8360901,33.5322266 393.3230286,43.7714539 393.3230286,76.9062195 "/>
<polygon id="XMLID_277_" class="st4" points="310.8207397,62.7559814 330.296875,56.4277954 361.8099365,33.5322266 
	373.8468628,16.9648438 354.3707275,23.2929993 322.857666,46.1885986 "/>
<polyline id="XMLID_276_" class="st3" points="330.296875,56.4277954 361.8099365,33.5322266 373.8468628,16.9648438 
	354.3707275,23.2929993 322.857666,46.1885986 310.8207397,62.7559814 330.296875,56.4277954 "/>
<polygon id="XMLID_275_" class="st4" points="298.7838135,99.8018188 298.7838135,120.2802429 310.8207397,157.3260803 
	322.857666,173.8934631 322.857666,153.4150391 310.8207397,116.3692017 "/>
<polyline id="XMLID_274_" class="st3" points="322.857666,153.4150391 310.8207397,116.3692017 298.7838135,99.8018188 
	298.7838135,120.2802429 310.8207397,157.3260803 322.857666,173.8934631 322.857666,153.4150391 "/>
<polygon id="XMLID_273_" class="st4" points="354.3707275,196.7890625 373.8468628,203.117218 412.7991638,203.117218 
	432.2752991,196.7890625 412.7991638,190.4608459 373.8468628,190.4608459 "/>
<polyline id="XMLID_272_" class="st3" points="412.7991638,190.4608459 373.8468628,190.4608459 354.3707275,196.7890625 
	373.8468628,203.117218 412.7991638,203.117218 432.2752991,196.7890625 412.7991638,190.4608459 "/>
<polygon id="XMLID_271_" class="st4" points="463.7883606,173.8934631 475.8252869,157.3260803 487.8622131,120.2802429 
	487.8622131,99.8018188 475.8252869,116.3692017 463.7883606,153.4150391 "/>
<polyline id="XMLID_270_" class="st3" points="475.8252869,116.3692017 463.7883606,153.4150391 463.7883606,173.8934631 
	475.8252869,157.3260803 487.8622131,120.2802429 487.8622131,99.8018188 475.8252869,116.3692017 "/>
<polygon id="XMLID_269_" class="st4" points="412.7991638,16.9648438 424.8360901,33.5322266 456.3491516,56.4277954 
	475.8252869,62.7559814 463.7883606,46.1885986 432.2752991,23.2929993 "/>
<polyline id="XMLID_268_" class="st3" points="424.8360901,33.5322266 456.3491516,56.4277954 475.8252869,62.7559814 
	463.7883606,46.1885986 432.2752991,23.2929993 412.7991638,16.9648438 424.8360901,33.5322266 "/>
<polygon id="XMLID_267_" class="st4" points="298.7838135,99.8018188 298.7838135,120.2802429 310.8207397,103.7128601 
	322.857666,66.6670227 322.857666,46.1885986 310.8207397,62.7559814 "/>
<polyline id="XMLID_266_" class="st3" points="298.7838135,99.8018188 310.8207397,62.7559814 322.857666,46.1885986 
	322.857666,66.6670227 310.8207397,103.7128601 298.7838135,120.2802429 298.7838135,99.8018188 "/>
<polygon id="XMLID_265_" class="st4" points="330.296875,163.6542664 310.8207397,157.3260803 322.857666,173.8934631 
	354.3707275,196.7890625 373.8468628,203.117218 361.8099365,186.5498352 "/>
<polyline id="XMLID_264_" class="st3" points="354.3707275,196.7890625 322.857666,173.8934631 310.8207397,157.3260803 
	330.296875,163.6542664 361.8099365,186.5498352 373.8468628,203.117218 354.3707275,196.7890625 "/>
<polygon id="XMLID_263_" class="st4" points="424.8360901,186.5498352 412.7991638,203.117218 432.2752991,196.7890625 
	463.7883606,173.8934631 475.8252869,157.3260803 456.3491516,163.6542664 "/>
<polyline id="XMLID_262_" class="st3" points="463.7883606,173.8934631 432.2752991,196.7890625 412.7991638,203.117218 
	424.8360901,186.5498352 456.3491516,163.6542664 475.8252869,157.3260803 463.7883606,173.8934631 "/>
<polygon id="XMLID_261_" class="st4" points="475.8252869,62.7559814 463.7883606,46.1885986 463.7883606,66.6670227 
	475.8252869,103.7128601 487.8622131,120.2802429 487.8622131,99.8018188 "/>
<polyline id="XMLID_260_" class="st3" points="475.8252869,62.7559814 487.8622131,99.8018188 487.8622131,120.2802429 
	475.8252869,103.7128601 463.7883606,66.6670227 463.7883606,46.1885986 475.8252869,62.7559814 "/>
<polygon id="XMLID_259_" class="st4" points="373.8468628,16.9648438 354.3707275,23.2929993 373.8468628,29.6211853 
	412.7991638,29.6211853 432.2752991,23.2929993 412.7991638,16.9648438 "/>
<polyline id="XMLID_258_" class="st3" points="373.8468628,16.9648438 412.7991638,16.9648438 432.2752991,23.2929993 
	412.7991638,29.6211853 373.8468628,29.6211853 354.3707275,23.2929993 373.8468628,16.9648438 "/>
<polygon id="XMLID_257_" class="st4" points="322.857666,66.6670227 310.8207397,103.7128601 330.296875,130.5194397 
	361.8099365,120.2802429 373.8468628,83.2344055 354.3707275,56.4277954 "/>
<polyline id="XMLID_256_" class="st3" points="310.8207397,103.7128601 322.857666,66.6670227 354.3707275,56.4277954 
	373.8468628,83.2344055 361.8099365,120.2802429 330.296875,130.5194397 310.8207397,103.7128601 "/>
<polygon id="XMLID_255_" class="st4" points="361.8099365,120.2802429 330.296875,130.5194397 330.296875,163.6542664 
	361.8099365,186.5498352 393.3230286,176.3106384 393.3230286,143.1758423 "/>
<polyline id="XMLID_254_" class="st3" points="361.8099365,186.5498352 330.296875,163.6542664 330.296875,130.5194397 
	361.8099365,120.2802429 393.3230286,143.1758423 393.3230286,176.3106384 361.8099365,186.5498352 "/>
<polygon id="XMLID_253_" class="st4" points="393.3230286,143.1758423 393.3230286,176.3106384 424.8360901,186.5498352 
	456.3491516,163.6542664 456.3491516,130.5194397 424.8360901,120.2802429 "/>
<polyline id="XMLID_252_" class="st3" points="456.3491516,163.6542664 424.8360901,186.5498352 393.3230286,176.3106384 
	393.3230286,143.1758423 424.8360901,120.2802429 456.3491516,130.5194397 456.3491516,163.6542664 "/>
<polygon id="XMLID_251_" class="st4" points="463.7883606,66.6670227 432.2752991,56.4277954 412.7991638,83.2344055 
	424.8360901,120.2802429 456.3491516,130.5194397 475.8252869,103.7128601 "/>
<polyline id="XMLID_250_" class="st3" points="463.7883606,66.6670227 475.8252869,103.7128601 456.3491516,130.5194397 
	424.8360901,120.2802429 412.7991638,83.2344055 432.2752991,56.4277954 463.7883606,66.6670227 "/>
<polygon id="XMLID_249_" class="st4" points="373.8468628,29.6211853 354.3707275,56.4277954 373.8468628,83.2344055 
	412.7991638,83.2344055 432.2752991,56.4277954 412.7991638,29.6211853 "/>
<polyline id="XMLID_248_" class="st3" points="373.8468628,29.6211853 412.7991638,29.6211853 432.2752991,56.4277954 
	412.7991638,83.2344055 373.8468628,83.2344055 354.3707275,56.4277954 373.8468628,29.6211853 "/>
<polygon id="XMLID_247_" points="322.857666,46.1885986 322.857666,66.6670227 354.3707275,56.4277954 373.8468628,29.6211853 
	354.3707275,23.2929993 "/>
<polygon id="XMLID_246_" points="432.2752991,23.2929993 412.7991638,29.6211853 432.2752991,56.4277954 463.7883606,66.6670227 
	463.7883606,46.1885986 "/>
<polygon id="XMLID_245_" points="456.3491516,130.5194397 456.3491516,163.6542664 475.8252869,157.3260803 
	487.8622131,120.2802429 475.8252869,103.7128601 "/>
<polygon id="XMLID_244_" points="393.3230286,176.3106384 361.8099365,186.5498352 373.8468628,203.117218 412.7991638,203.117218 
	424.8360901,186.5498352 "/>
<polygon id="XMLID_243_" points="330.296875,130.5194397 310.8207397,103.7128601 298.7838135,120.2802429 310.8207397,157.3260803 
	330.296875,163.6542664 "/>
<polygon id="XMLID_242_" points="373.8468628,83.2344055 361.8099365,120.2802429 393.3230286,143.1758423 424.8360901,120.2802429 
	412.7991638,83.2344055 "/>
<g id="XMLID_1_">
	<g id="XMLID_579_">
		<path id="XMLID_582_" class="st5" d="M398.8206482,73.0908203l-0.6298828,1.9086914h-0.8105469l2.0625-6.0678711h0.9453125
			l2.0703125,6.0678711h-0.8369141l-0.6484375-1.9086914H398.8206482z M400.8108826,72.4790039l-0.5947266-1.746582
			c-0.1347656-0.3964844-0.2246094-0.7563477-0.3144531-1.1074219h-0.0185547
			c-0.0898438,0.3598633-0.1884766,0.7290039-0.3056641,1.0981445l-0.5947266,1.7558594H400.8108826z"/>
		<path id="XMLID_580_" class="st5" d="M404.7884216,69.8862305h-0.0185547l-1.0175781,0.5488281l-0.1523438-0.6030273
			l1.2783203-0.684082h0.6748047v5.8515625h-0.7646484V69.8862305z"/>
	</g>
</g>
<g id="XMLID_2_">
	<g id="XMLID_586_">
		<path id="XMLID_589_" class="st5" d="M357.4886169,92.0908203l-0.6298828,1.9086914h-0.8105469l2.0615234-6.0678711h0.9453125
			l2.0712891,6.0678711h-0.8378906l-0.6484375-1.9086914H357.4886169z M359.4788513,91.4790039l-0.5947266-1.746582
			c-0.1347656-0.3964844-0.2246094-0.7563477-0.3154297-1.1074219h-0.0175781
			c-0.0898438,0.3598633-0.1894531,0.7290039-0.3056641,1.0981445l-0.5947266,1.7558594H359.4788513z"/>
		<path id="XMLID_587_" class="st5" d="M361.7366638,93.9995117v-0.4863281l0.6210938-0.6030273
			c1.4941406-1.4223633,2.1689453-2.1787109,2.1787109-3.0610352c0-0.5942383-0.2880859-1.1430664-1.1621094-1.1430664
			c-0.53125,0-0.9716797,0.2700195-1.2421875,0.4951172l-0.2519531-0.5581055
			c0.4052734-0.3422852,0.9814453-0.5942383,1.65625-0.5942383c1.2607422,0,1.7919922,0.8642578,1.7919922,1.7016602
			c0,1.0800781-0.7832031,1.953125-2.0166016,3.1416016l-0.46875,0.4321289v0.0180664h2.6289063v0.6572266H361.7366638z"/>
	</g>
</g>
<g id="XMLID_3_">
	<g id="XMLID_593_">
		<path id="XMLID_596_" class="st5" d="M361.4886169,136.7578125l-0.6308594,1.9082031h-0.8095703l2.0615234-6.0673828h0.9453125
			l2.0703125,6.0673828h-0.8369141l-0.6484375-1.9082031H361.4886169z M363.4778748,136.1455078l-0.59375-1.7470703
			c-0.1357422-0.3955078-0.2255859-0.7558594-0.3154297-1.1074219h-0.0175781
			c-0.0908203,0.3603516-0.1894531,0.7294922-0.3066406,1.0986328l-0.59375,1.7558594H363.4778748z"/>
		<path id="XMLID_594_" class="st5" d="M365.9251404,137.7568359c0.2246094,0.1435547,0.7470703,0.3691406,1.2958984,0.3691406
			c1.0175781,0,1.3330078-0.6484375,1.3232422-1.1347656c-0.0087891-0.8193359-0.7470703-1.1699219-1.5117188-1.1699219h-0.4414063
			v-0.5947266h0.4414063c0.5761719,0,1.3046875-0.296875,1.3046875-0.9902344c0-0.4677734-0.296875-0.8818359-1.0263672-0.8818359
			c-0.4677734,0-0.9179688,0.2070313-1.1699219,0.3867188l-0.2070313-0.5761719
			c0.3056641-0.2246094,0.9003906-0.4501953,1.5302734-0.4501953c1.1523438,0,1.6748047,0.6845703,1.6748047,1.3955078
			c0,0.6035156-0.3603516,1.1162109-1.0800781,1.3779297v0.0175781c0.7197266,0.1445313,1.3046875,0.6845703,1.3046875,1.5039063
			c0,0.9365234-0.7285156,1.7548828-2.1337891,1.7548828c-0.6572266,0-1.2333984-0.2070313-1.5214844-0.3955078
			L365.9251404,137.7568359z"/>
	</g>
</g>
<g id="XMLID_4_">
	<g id="XMLID_607_">
		<path id="XMLID_611_" class="st5" d="M405.4886169,145.0917969L404.8577576,147h-0.8095703l2.0615234-6.0673828h0.9453125
			L409.1253357,147h-0.8378906l-0.6474609-1.9082031H405.4886169z M407.4778748,144.4794922l-0.59375-1.7470703
			c-0.1357422-0.3955078-0.2255859-0.7558594-0.3154297-1.1074219h-0.0175781
			c-0.0908203,0.3603516-0.1894531,0.7294922-0.3066406,1.0986328l-0.59375,1.7558594H407.4778748z"/>
		<path id="XMLID_608_" class="st5" d="M412.1839294,147v-1.59375h-2.71875v-0.5214844l2.6113281-3.7363281h0.8554688v3.6367188
			h0.8183594v0.6210938h-0.8183594V147H412.1839294z M412.1839294,144.7851563v-1.953125
			c0-0.3066406,0.0097656-0.6123047,0.0273438-0.9189453h-0.0273438c-0.1796875,0.3427734-0.3242188,0.5947266-0.4853516,0.8642578
			l-1.4316406,1.9902344v0.0175781H412.1839294z"/>
	</g>
</g>
<g id="XMLID_5_">
	<g id="XMLID_601_">
		<path id="XMLID_604_" class="st5" d="M427.8206482,106.4248047l-0.6298828,1.9082031h-0.8105469l2.0625-6.0673828h0.9453125
			l2.0703125,6.0673828h-0.8369141l-0.6484375-1.9082031H427.8206482z M429.8108826,105.8125l-0.5947266-1.7470703
			c-0.1347656-0.3955078-0.2246094-0.7558594-0.3144531-1.1074219h-0.0185547
			c-0.0898438,0.3603516-0.1884766,0.7294922-0.3056641,1.0986328l-0.5947266,1.7558594H429.8108826z"/>
		<path id="XMLID_602_" class="st5" d="M435.5618591,103.1474609h-2.2333984l-0.2246094,1.5039063
			c0.1347656-0.0185547,0.2607422-0.0361328,0.4775391-0.0361328c0.4501953,0,0.8994141,0.0986328,1.2597656,0.3144531
			c0.4589844,0.2617188,0.8378906,0.765625,0.8378906,1.5039063c0,1.1435547-0.9101563,1.9980469-2.1787109,1.9980469
			c-0.6396484,0-1.1796875-0.1796875-1.4589844-0.359375l0.1982422-0.6035156
			c0.2431641,0.1445313,0.7197266,0.3242188,1.2509766,0.3242188c0.7480469,0,1.3867188-0.4863281,1.3867188-1.2695313
			c-0.0087891-0.7558594-0.5126953-1.2958984-1.6835938-1.2958984c-0.3330078,0-0.59375,0.0351563-0.8105469,0.0625
			l0.3789063-2.8085938h2.7998047V103.1474609z"/>
	</g>
</g>
<g id="XMLID_6_">
	<g id="XMLID_622_">
		<path id="XMLID_625_" class="st5" d="M397.8401794,46.0126953c0.3417969-0.0717773,0.8818359-0.1259766,1.4306641-0.1259766
			c0.7832031,0,1.2880859,0.1352539,1.6660156,0.440918c0.3154297,0.234375,0.5039063,0.5942383,0.5039063,1.0712891
			c0,0.5854492-0.3867188,1.0986328-1.0263672,1.3325195v0.0180664c0.5761719,0.144043,1.2519531,0.6210938,1.2519531,1.5214844
			c0,0.5219727-0.2070313,0.918457-0.5136719,1.215332c-0.4228516,0.387207-1.1074219,0.5673828-2.0976563,0.5673828
			c-0.5400391,0-0.9541016-0.0361328-1.2148438-0.0722656V46.0126953z M398.6233826,48.4975586h0.7109375
			c0.828125,0,1.3144531-0.4321289,1.3144531-1.0175781c0-0.7109375-0.5400391-0.9902344-1.3330078-0.9902344
			c-0.359375,0-0.5664063,0.0273438-0.6923828,0.0541992V48.4975586z M398.6233826,51.4052734
			c0.1523438,0.0268555,0.3779297,0.0361328,0.6572266,0.0361328c0.8095703,0,1.5566406-0.2973633,1.5566406-1.1791992
			c0-0.8286133-0.7109375-1.1704102-1.5664063-1.1704102h-0.6474609V51.4052734z"/>
		<path id="XMLID_623_" class="st5" d="M404.1585388,46.8862305h-0.0185547l-1.0175781,0.5488281l-0.1523438-0.6030273
			l1.2783203-0.684082h0.6748047v5.8515625h-0.7646484V46.8862305z"/>
	</g>
</g>
<g id="XMLID_7_">
	<g id="XMLID_630_">
		<path id="XMLID_633_" class="st5" d="M334.8401794,80.4116211c0.3427734-0.0717773,0.8828125-0.1259766,1.4316406-0.1259766
			c0.7832031,0,1.2871094,0.1347656,1.6660156,0.440918c0.3144531,0.234375,0.5039063,0.5942383,0.5039063,1.0712891
			c0,0.5854492-0.3876953,1.0986328-1.0263672,1.3325195v0.0180664c0.5761719,0.144043,1.2509766,0.6210938,1.2509766,1.5214844
			c0,0.5219727-0.2070313,0.918457-0.5126953,1.215332c-0.4228516,0.387207-1.1074219,0.5673828-2.0976563,0.5673828
			c-0.5400391,0-0.9541016-0.0361328-1.2158203-0.0722656V80.4116211z M335.6233826,82.8964844h0.7119141
			c0.828125,0,1.3144531-0.4321289,1.3144531-1.0175781c0-0.7109375-0.5410156-0.9902344-1.3330078-0.9902344
			c-0.3603516,0-0.5673828,0.0273438-0.6933594,0.0541992V82.8964844z M335.6233826,85.8041992
			c0.1533203,0.0268555,0.3789063,0.0361328,0.6572266,0.0361328c0.8105469,0,1.5576172-0.2973633,1.5576172-1.1791992
			c0-0.8286133-0.7109375-1.1704102-1.5664063-1.1704102h-0.6484375V85.8041992z"/>
		<path id="XMLID_631_" class="st5" d="M339.4397888,86.3984375v-0.4863281l0.6210938-0.6030273
			c1.4941406-1.4223633,2.1689453-2.1787109,2.1787109-3.0610352c0-0.5942383-0.2880859-1.1430664-1.1621094-1.1430664
			c-0.53125,0-0.9716797,0.2700195-1.2421875,0.4951172l-0.2519531-0.5581055
			c0.4052734-0.3422852,0.9814453-0.5942383,1.65625-0.5942383c1.2607422,0,1.7919922,0.8642578,1.7919922,1.7011719
			c0,1.0805664-0.7832031,1.9536133-2.0166016,3.1420898l-0.46875,0.4321289v0.0180664h2.6289063v0.6572266H339.4397888z"/>
	</g>
</g>
<g id="XMLID_8_">
	<g id="XMLID_638_">
		<path id="XMLID_641_" class="st5" d="M347.1741638,151.3388672c0.3417969-0.0712891,0.8818359-0.1259766,1.4306641-0.1259766
			c0.7832031,0,1.2880859,0.1347656,1.6660156,0.4414063c0.3154297,0.234375,0.5039063,0.59375,0.5039063,1.0712891
			c0,0.5849609-0.3867188,1.0986328-1.0263672,1.3320313v0.0185547c0.5761719,0.1435547,1.2519531,0.6210938,1.2519531,1.5214844
			c0,0.5214844-0.2070313,0.9179688-0.5136719,1.2148438c-0.4228516,0.3876953-1.1074219,0.5673828-2.0976563,0.5673828
			c-0.5400391,0-0.9541016-0.0361328-1.2148438-0.0722656V151.3388672z M347.9573669,153.8242188h0.7109375
			c0.828125,0,1.3144531-0.4326172,1.3144531-1.0175781c0-0.7109375-0.5400391-0.9902344-1.3330078-0.9902344
			c-0.359375,0-0.5664063,0.0273438-0.6923828,0.0537109V153.8242188z M347.9573669,156.7314453
			c0.1523438,0.0273438,0.3779297,0.0361328,0.6572266,0.0361328c0.8095703,0,1.5566406-0.296875,1.5566406-1.1787109
			c0-0.8291016-0.7109375-1.1708984-1.5664063-1.1708984h-0.6474609V156.7314453z"/>
		<path id="XMLID_639_" class="st5" d="M351.9612732,156.4169922c0.2255859,0.1435547,0.7480469,0.3691406,1.296875,0.3691406
			c1.0175781,0,1.3320313-0.6484375,1.3232422-1.1347656c-0.0087891-0.8193359-0.7470703-1.1699219-1.5126953-1.1699219h-0.4404297
			v-0.5947266h0.4404297c0.5761719,0,1.3056641-0.296875,1.3056641-0.9902344c0-0.4677734-0.296875-0.8818359-1.0263672-0.8818359
			c-0.4677734,0-0.9179688,0.2070313-1.1699219,0.3867188l-0.2070313-0.5761719
			c0.3056641-0.2246094,0.9003906-0.4501953,1.5302734-0.4501953c1.1523438,0,1.6748047,0.6845703,1.6748047,1.3955078
			c0,0.6035156-0.3603516,1.1162109-1.0810547,1.3779297v0.0175781c0.7207031,0.1435547,1.3056641,0.6845703,1.3056641,1.5029297
			c0,0.9365234-0.7294922,1.7558594-2.1337891,1.7558594c-0.6572266,0-1.2333984-0.2070313-1.5214844-0.3955078
			L351.9612732,156.4169922z"/>
	</g>
</g>
<g id="XMLID_9_">
	<g id="XMLID_653_">
		<path id="XMLID_657_" class="st5" d="M419.1741638,160.3466797c0.3417969-0.0722656,0.8818359-0.1269531,1.4306641-0.1269531
			c0.7832031,0,1.2880859,0.1357422,1.6660156,0.4414063c0.3154297,0.234375,0.5039063,0.5947266,0.5039063,1.0712891
			c0,0.5849609-0.3867188,1.0986328-1.0263672,1.3330078v0.0175781c0.5761719,0.1445313,1.2519531,0.6210938,1.2519531,1.5214844
			c0,0.5224609-0.2070313,0.9179688-0.5136719,1.2158203c-0.4228516,0.3867188-1.1074219,0.5664063-2.0976563,0.5664063
			c-0.5400391,0-0.9541016-0.0361328-1.2148438-0.0712891V160.3466797z M419.9573669,162.8310547h0.7109375
			c0.828125,0,1.3144531-0.4326172,1.3144531-1.0175781c0-0.7109375-0.5400391-0.9902344-1.3320313-0.9902344
			c-0.3603516,0-0.5673828,0.0273438-0.6933594,0.0537109V162.8310547z M419.9573669,165.7392578
			c0.1523438,0.0263672,0.3779297,0.0351563,0.6572266,0.0351563c0.8095703,0,1.5566406-0.296875,1.5566406-1.1787109
			c0-0.828125-0.7109375-1.1708984-1.5664063-1.1708984h-0.6474609V165.7392578z"/>
		<path id="XMLID_654_" class="st5" d="M426.2210388,166.3330078v-1.59375h-2.71875v-0.5214844l2.6113281-3.7363281h0.8554688
			v3.6367188h0.8183594v0.6210938h-0.8183594v1.59375H426.2210388z M426.2210388,164.1181641v-1.953125
			c0-0.3066406,0.0097656-0.6123047,0.0273438-0.9189453h-0.0273438c-0.1796875,0.3427734-0.3242188,0.5947266-0.4853516,0.8642578
			l-1.4316406,1.9902344v0.0175781H426.2210388z"/>
	</g>
</g>
<g id="XMLID_10_">
	<g id="XMLID_647_">
		<path id="XMLID_650_" class="st5" d="M449.1741638,95.6801758c0.3417969-0.0722656,0.8818359-0.1269531,1.4306641-0.1269531
			c0.7832031,0,1.2880859,0.1357422,1.6660156,0.4414063c0.3154297,0.234375,0.5039063,0.5947266,0.5039063,1.0712891
			c0,0.5849609-0.3867188,1.0986328-1.0263672,1.3330078v0.0175781c0.5761719,0.1445313,1.2519531,0.6210938,1.2519531,1.5214844
			c0,0.5224609-0.2070313,0.9179688-0.5136719,1.2158203c-0.4228516,0.3867188-1.1074219,0.5664063-2.0976563,0.5664063
			c-0.5400391,0-0.9541016-0.0361328-1.2148438-0.0712891V95.6801758z M449.9573669,98.1645508h0.7109375
			c0.828125,0,1.3144531-0.4326172,1.3144531-1.0175781c0-0.7109375-0.5400391-0.9902344-1.3320313-0.9902344
			c-0.3603516,0-0.5673828,0.0273438-0.6933594,0.0537109V98.1645508z M449.9573669,101.0727539
			c0.1523438,0.0263672,0.3779297,0.0351563,0.6572266,0.0351563c0.8095703,0,1.5566406-0.296875,1.5566406-1.1787109
			c0-0.828125-0.7109375-1.1708984-1.5664063-1.1708984h-0.6474609V101.0727539z"/>
		<path id="XMLID_648_" class="st5" d="M457.2659607,96.480957h-2.2333984l-0.2246094,1.5039063
			c0.1347656-0.0185547,0.2607422-0.0361328,0.4775391-0.0361328c0.4501953,0,0.8994141,0.0986328,1.2597656,0.3144531
			c0.4589844,0.2617188,0.8378906,0.765625,0.8378906,1.5039063c0,1.1435547-0.9101563,1.9980469-2.1787109,1.9980469
			c-0.6396484,0-1.1796875-0.1796875-1.4589844-0.359375l0.1982422-0.6035156
			c0.2431641,0.1445313,0.7207031,0.3242188,1.2509766,0.3242188c0.7480469,0,1.3867188-0.4863281,1.3867188-1.2695313
			c-0.0087891-0.7558594-0.5126953-1.2958984-1.6835938-1.2958984c-0.3330078,0-0.59375,0.0351563-0.8095703,0.0625
			l0.3779297-2.8085938h2.7998047V96.480957z"/>
	</g>
</g>
<g id="XMLID_11_">
	<g id="XMLID_576_">
		<path id="XMLID_585_" class="st5" d="M359.2952576,35.4677734c-0.2880859,0.144043-0.8642578,0.2880859-1.6025391,0.2880859
			c-1.7109375,0-2.9980469-1.0800781-2.9980469-3.0698242c0-1.8994141,1.2871094-3.1870117,3.1689453-3.1870117
			c0.7558594,0,1.2333984,0.1621094,1.4404297,0.2700195l-0.1894531,0.6391602
			c-0.296875-0.1435547-0.7197266-0.2519531-1.2236328-0.2519531c-1.4228516,0-2.3681641,0.9091797-2.3681641,2.5029297
			c0,1.4853516,0.8554688,2.4394531,2.3320313,2.4394531c0.4765625,0,0.9628906-0.0986328,1.2783203-0.2519531
			L359.2952576,35.4677734z"/>
		<path id="XMLID_577_" class="st5" d="M361.7151794,30.5527344h-0.0185547l-1.0175781,0.5488281l-0.1523438-0.6030273
			l1.2783203-0.684082h0.6748047v5.8515625h-0.7646484V30.5527344z"/>
	</g>
</g>
<g id="XMLID_12_">
	<g id="XMLID_618_">
		<path id="XMLID_621_" class="st5" d="M331.4143982,58.8012695c-0.2880859,0.144043-0.8642578,0.2880859-1.6025391,0.2880859
			c-1.7109375,0-2.9980469-1.0800781-2.9980469-3.0698242c0-1.8994141,1.2871094-3.1870117,3.1689453-3.1870117
			c0.7558594,0,1.2333984,0.1621094,1.4404297,0.2700195l-0.1894531,0.6391602
			c-0.296875-0.1435547-0.7197266-0.2519531-1.2236328-0.2519531c-1.4228516,0-2.3681641,0.9091797-2.3681641,2.5029297
			c0,1.4853516,0.8554688,2.4394531,2.3320313,2.4394531c0.4765625,0,0.9628906-0.0986328,1.2783203-0.2519531
			L331.4143982,58.8012695z"/>
		<path id="XMLID_619_" class="st5" d="M332.1145935,58.9995117v-0.4863281l0.6210938-0.6030273
			c1.4941406-1.4223633,2.1699219-2.1787109,2.1787109-3.0610352c0-0.5942383-0.2880859-1.1430664-1.1611328-1.1430664
			c-0.53125,0-0.9726563,0.2700195-1.2431641,0.4951172l-0.2519531-0.5581055
			c0.4052734-0.3422852,0.9814453-0.5942383,1.6572266-0.5942383c1.2597656,0,1.7910156,0.8642578,1.7910156,1.7016602
			c0,1.0800781-0.7832031,1.953125-2.0166016,3.1416016l-0.4677734,0.4321289v0.0180664h2.6289063v0.6572266H332.1145935z"/>
	</g>
</g>
<g id="XMLID_13_">
	<g id="XMLID_646_">
		<path id="XMLID_664_" class="st5" d="M310.7454529,119.8378906c-0.2880859,0.1435547-0.8642578,0.2880859-1.6025391,0.2880859
			c-1.7109375,0-2.9980469-1.0800781-2.9980469-3.0703125c0-1.8994141,1.2871094-3.1865234,3.1689453-3.1865234
			c0.7558594,0,1.2333984,0.1621094,1.4404297,0.2695313l-0.1894531,0.6396484
			c-0.296875-0.1435547-0.7197266-0.2519531-1.2236328-0.2519531c-1.4228516,0-2.3681641,0.9091797-2.3681641,2.5029297
			c0,1.4853516,0.8554688,2.4394531,2.3320313,2.4394531c0.4765625,0,0.9628906-0.0986328,1.2783203-0.2519531
			L310.7454529,119.8378906z"/>
		<path id="XMLID_662_" class="st5" d="M311.6341248,119.1269531c0.2255859,0.1435547,0.7480469,0.3691406,1.296875,0.3691406
			c1.0175781,0,1.3320313-0.6484375,1.3232422-1.1347656c-0.0087891-0.8193359-0.7470703-1.1699219-1.5126953-1.1699219h-0.4404297
			v-0.5947266h0.4404297c0.5761719,0,1.3056641-0.296875,1.3056641-0.9902344c0-0.4677734-0.296875-0.8818359-1.0263672-0.8818359
			c-0.4677734,0-0.9179688,0.2070313-1.1699219,0.3867188l-0.2070313-0.5761719
			c0.3056641-0.2246094,0.9003906-0.4501953,1.5302734-0.4501953c1.1523438,0,1.6748047,0.6845703,1.6748047,1.3955078
			c0,0.6035156-0.3603516,1.1162109-1.0810547,1.3779297v0.0175781c0.7207031,0.1435547,1.3056641,0.6845703,1.3056641,1.5039063
			c0,0.9355469-0.7294922,1.7548828-2.1337891,1.7548828c-0.6572266,0-1.2333984-0.2070313-1.5214844-0.3955078
			L311.6341248,119.1269531z"/>
	</g>
</g>
<g id="XMLID_14_">
	<g id="XMLID_674_">
		<path id="XMLID_678_" class="st5" d="M323.4143982,157.1279297c-0.2880859,0.1435547-0.8642578,0.2880859-1.6025391,0.2880859
			c-1.7109375,0-2.9980469-1.0800781-2.9980469-3.0703125c0-1.8994141,1.2871094-3.1865234,3.1689453-3.1865234
			c0.7558594,0,1.2333984,0.1621094,1.4404297,0.2695313l-0.1894531,0.6396484
			c-0.296875-0.1445313-0.7197266-0.2519531-1.2236328-0.2519531c-1.4228516,0-2.3681641,0.9091797-2.3681641,2.5029297
			c0,1.4853516,0.8554688,2.4394531,2.3320313,2.4394531c0.4765625,0,0.9628906-0.0986328,1.2783203-0.2519531
			L323.4143982,157.1279297z"/>
		<path id="XMLID_675_" class="st5" d="M326.5628357,157.3261719v-1.59375h-2.71875v-0.5224609l2.6113281-3.7353516h0.8554688
			v3.6367188h0.8183594v0.6210938h-0.8183594v1.59375H326.5628357z M326.5628357,155.1113281v-1.9541016
			c0-0.3056641,0.0097656-0.6113281,0.0273438-0.9179688h-0.0273438c-0.1796875,0.3417969-0.3242188,0.5947266-0.4853516,0.8642578
			l-1.4316406,1.9892578v0.0185547H326.5628357z"/>
	</g>
</g>
<g id="XMLID_15_">
	<g id="XMLID_668_">
		<path id="XMLID_671_" class="st5" d="M375.0813904,194.1337891c-0.2880859,0.1445313-0.8642578,0.2880859-1.6025391,0.2880859
			c-1.7109375,0-2.9980469-1.0800781-2.9980469-3.0693359c0-1.9003906,1.2871094-3.1875,3.1689453-3.1875
			c0.7558594,0,1.2333984,0.1621094,1.4404297,0.2705078l-0.1894531,0.6386719
			c-0.296875-0.1435547-0.7197266-0.2519531-1.2236328-0.2519531c-1.4228516,0-2.3681641,0.9091797-2.3681641,2.5029297
			c0,1.4853516,0.8554688,2.4394531,2.3320313,2.4394531c0.4765625,0,0.9628906-0.0986328,1.2783203-0.2519531
			L375.0813904,194.1337891z"/>
		<path id="XMLID_669_" class="st5" d="M379.2747498,189.1464844h-2.2333984l-0.2246094,1.5039063
			c0.1347656-0.0185547,0.2607422-0.0361328,0.4775391-0.0361328c0.4501953,0,0.8994141,0.0986328,1.2597656,0.3144531
			c0.4589844,0.2617188,0.8378906,0.765625,0.8378906,1.5039063c0,1.1435547-0.9101563,1.9980469-2.1787109,1.9980469
			c-0.6396484,0-1.1796875-0.1796875-1.4589844-0.359375l0.1982422-0.6035156
			c0.2431641,0.1445313,0.7197266,0.3242188,1.2509766,0.3242188c0.7480469,0,1.3867188-0.4863281,1.3867188-1.2695313
			c-0.0087891-0.7558594-0.5126953-1.2958984-1.6835938-1.2958984c-0.3330078,0-0.59375,0.0351563-0.8105469,0.0625
			l0.3789063-2.8085938h2.7998047V189.1464844z"/>
	</g>
</g>
<g id="XMLID_16_">
	<g id="XMLID_687_">
		<path id="XMLID_691_" class="st5" d="M412.0569763,192.2626953c-0.2880859,0.1445313-0.8642578,0.2880859-1.6025391,0.2880859
			c-1.7109375,0-2.9980469-1.0800781-2.9980469-3.0693359c0-1.9003906,1.2871094-3.1875,3.1689453-3.1875
			c0.7558594,0,1.2333984,0.1621094,1.4404297,0.2705078l-0.1894531,0.6386719
			c-0.296875-0.1435547-0.7197266-0.2519531-1.2236328-0.2519531c-1.4228516,0-2.3681641,0.9091797-2.3681641,2.5029297
			c0,1.4853516,0.8554688,2.4394531,2.3320313,2.4394531c0.4765625,0,0.9628906-0.0986328,1.2783203-0.2519531
			L412.0569763,192.2626953z"/>
		<path id="XMLID_688_" class="st5" d="M416.0970154,187.1669922c-0.1621094-0.0087891-0.3691406,0-0.59375,0.0361328
			c-1.2431641,0.2070313-1.9003906,1.1162109-2.0351563,2.0800781h0.0273438
			c0.2792969-0.3691406,0.7646484-0.6757813,1.4130859-0.6757813c1.0351563,0,1.7646484,0.7480469,1.7646484,1.890625
			c0,1.0712891-0.7294922,2.0615234-1.9443359,2.0615234c-1.2519531,0-2.0712891-0.9716797-2.0712891-2.4931641
			c0-1.1523438,0.4140625-2.0615234,0.9902344-2.6376953c0.4863281-0.4775391,1.1347656-0.7744141,1.8730469-0.8642578
			c0.234375-0.0361328,0.4316406-0.0449219,0.5761719-0.0449219V187.1669922z M415.872406,190.5429688
			c0-0.8369141-0.4775391-1.3408203-1.2070313-1.3408203c-0.4765625,0-0.9179688,0.296875-1.1337891,0.7197266
			c-0.0546875,0.0908203-0.0908203,0.2070313-0.0908203,0.3515625c0.0185547,0.9628906,0.4599609,1.6748047,1.2880859,1.6748047
			C415.4124451,191.9482422,415.872406,191.3808594,415.872406,190.5429688z"/>
	</g>
</g>
<g id="XMLID_17_">
	<g id="XMLID_681_">
		<path id="XMLID_684_" class="st5" d="M465.7483826,157.1279297c-0.2880859,0.1445313-0.8642578,0.2880859-1.6025391,0.2880859
			c-1.7109375,0-2.9980469-1.0800781-2.9980469-3.0693359c0-1.9003906,1.2871094-3.1875,3.1689453-3.1875
			c0.7558594,0,1.2333984,0.1621094,1.4404297,0.2705078l-0.1894531,0.6386719
			c-0.296875-0.1435547-0.7197266-0.2519531-1.2236328-0.2519531c-1.4228516,0-2.3681641,0.9091797-2.3681641,2.5029297
			c0,1.4853516,0.8554688,2.4394531,2.3320313,2.4394531c0.4765625,0,0.9628906-0.0986328,1.2783203-0.2519531
			L465.7483826,157.1279297z"/>
		<path id="XMLID_682_" class="st5" d="M470.247406,151.4746094v0.5224609l-2.5478516,5.3291016h-0.8193359l2.5390625-5.1767578
			v-0.0175781h-2.8632813v-0.6572266H470.247406z"/>
	</g>
</g>
<g id="XMLID_18_">
	<g id="XMLID_707_">
		<path id="XMLID_712_" class="st5" d="M477.0306091,121.8007813c-0.2880859,0.1445313-0.8642578,0.2880859-1.6025391,0.2880859
			c-1.7109375,0-2.9980469-1.0800781-2.9980469-3.0693359c0-1.9003906,1.2871094-3.1875,3.1689453-3.1875
			c0.7558594,0,1.2333984,0.1621094,1.4404297,0.2705078l-0.1894531,0.6386719
			c-0.296875-0.1435547-0.7197266-0.2519531-1.2236328-0.2519531c-1.4228516,0-2.3681641,0.9091797-2.3681641,2.5029297
			c0,1.4853516,0.8554688,2.4394531,2.3320313,2.4394531c0.4765625,0,0.9628906-0.0986328,1.2783203-0.2519531
			L477.0306091,121.8007813z"/>
		<path id="XMLID_708_" class="st5" d="M477.6585388,120.5136719c0-0.7382813,0.4414063-1.2607422,1.1611328-1.5664063
			l-0.0087891-0.0273438c-0.6484375-0.3056641-0.9267578-0.8105469-0.9267578-1.3144531
			c0-0.9267578,0.7832031-1.5576172,1.8095703-1.5576172c1.1337891,0,1.7011719,0.7119141,1.7011719,1.4404297
			c0,0.4951172-0.2431641,1.0263672-0.9638672,1.3691406v0.0263672c0.7294922,0.2880859,1.1796875,0.8017578,1.1796875,1.5126953
			c0,1.0175781-0.8730469,1.7011719-1.9892578,1.7011719C478.3968201,122.0976563,477.6585388,121.3691406,477.6585388,120.5136719z
			 M480.809906,120.4775391c0-0.7109375-0.4951172-1.0537109-1.2880859-1.2783203
			c-0.6835938,0.1982422-1.0527344,0.6484375-1.0527344,1.2060547c-0.0273438,0.5947266,0.4228516,1.1162109,1.1699219,1.1162109
			C480.3509216,121.5214844,480.809906,121.0810547,480.809906,120.4775391z M478.6311951,117.5517578
			c0,0.5849609,0.4404297,0.9003906,1.1162109,1.0800781c0.5039063-0.1708984,0.890625-0.53125,0.890625-1.0625
			c0-0.4677734-0.2783203-0.9541016-0.9902344-0.9541016C478.9905701,116.6152344,478.6311951,117.0478516,478.6311951,117.5517578z
			"/>
	</g>
</g>
<g id="XMLID_19_">
	<g id="XMLID_701_">
		<path id="XMLID_705_" class="st5" d="M456.0804138,58.8012695c-0.2880859,0.144043-0.8642578,0.2880859-1.6025391,0.2880859
			c-1.7109375,0-2.9980469-1.0800781-2.9980469-3.0698242c0-1.8994141,1.2871094-3.1870117,3.1689453-3.1870117
			c0.7558594,0,1.2333984,0.1621094,1.4404297,0.2700195l-0.1894531,0.6391602
			c-0.296875-0.1435547-0.7197266-0.2519531-1.2236328-0.2519531c-1.4228516,0-2.3681641,0.9091797-2.3681641,2.5029297
			c0,1.4853516,0.8554688,2.4394531,2.3320313,2.4394531c0.4765625,0,0.9628906-0.0986328,1.2783203-0.2519531
			L456.0804138,58.8012695z"/>
		<path id="XMLID_702_" class="st5" d="M457.2395935,58.4414063c0.1708984,0.0180664,0.3691406,0,0.6396484-0.0268555
			c0.4589844-0.0634766,0.890625-0.2524414,1.2236328-0.5673828c0.3876953-0.3510742,0.6660156-0.8642578,0.7744141-1.5576172
			h-0.0273438c-0.3232422,0.3964844-0.7919922,0.6303711-1.3769531,0.6303711c-1.0537109,0-1.7285156-0.7924805-1.7285156-1.7915039
			c0-1.1074219,0.8007813-2.0795898,1.9990234-2.0795898c1.1972656,0,1.9355469,0.972168,1.9355469,2.4667969
			c0,1.2871094-0.4326172,2.1875-1.0087891,2.7456055c-0.4501953,0.4414063-1.0712891,0.7114258-1.7011719,0.7832031
			c-0.2880859,0.0449219-0.5400391,0.0541992-0.7294922,0.0449219V58.4414063z M457.5276794,55.0742188
			c0,0.7294922,0.4414063,1.2426758,1.125,1.2426758c0.53125,0,0.9453125-0.2612305,1.1523438-0.6123047
			c0.0449219-0.0722656,0.0722656-0.1621094,0.0722656-0.2880859c0-0.9995117-0.3691406-1.7646484-1.1972656-1.7646484
			C458.0052185,53.6518555,457.5276794,54.2460938,457.5276794,55.0742188z"/>
	</g>
</g>
<g id="XMLID_20_">
	<g id="XMLID_729_">
		<path id="XMLID_735_" class="st5" d="M425.747406,35.4677734c-0.2880859,0.144043-0.8642578,0.2880859-1.6025391,0.2880859
			c-1.7109375,0-2.9980469-1.0800781-2.9980469-3.0698242c0-1.8994141,1.2871094-3.1870117,3.1689453-3.1870117
			c0.7558594,0,1.2333984,0.1621094,1.4404297,0.2700195l-0.1894531,0.6396484
			c-0.296875-0.1445313-0.7197266-0.2524414-1.2236328-0.2524414c-1.4228516,0-2.3681641,0.9091797-2.3681641,2.5029297
			c0,1.4853516,0.8554688,2.4394531,2.3320313,2.4394531c0.4765625,0,0.9628906-0.0986328,1.2783203-0.2519531
			L425.747406,35.4677734z"/>
		<path id="XMLID_733_" class="st5" d="M428.1673279,30.5522461h-0.0185547l-1.0175781,0.5493164l-0.1523438-0.6030273
			l1.2783203-0.684082h0.6748047v5.8515625h-0.7646484V30.5522461z"/>
		<path id="XMLID_730_" class="st5" d="M434.9534607,32.6772461c0,1.9892578-0.7382813,3.0878906-2.0341797,3.0878906
			c-1.1435547,0-1.9179688-1.0712891-1.9355469-3.0068359c0-1.9628906,0.8457031-3.0429688,2.0341797-3.0429688
			C434.2513123,29.715332,434.9534607,30.8134766,434.9534607,32.6772461z M431.7757263,32.7670898
			c0,1.5214844,0.46875,2.3857422,1.1884766,2.3857422c0.8105469,0,1.1972656-0.9453125,1.1972656-2.4394531
			c0-1.4404297-0.3691406-2.3857422-1.1884766-2.3857422C432.2796326,30.3276367,431.7757263,31.1738281,431.7757263,32.7670898z"/>
	</g>
</g>
<g id="XMLID_21_">
	<g id="XMLID_715_">
		<path id="XMLID_718_" class="st5" d="M370.841156,6.6791992c0.4765625-0.0717773,1.0439453-0.1259766,1.6650391-0.1259766
			c1.125,0,1.9267578,0.2612305,2.4580078,0.7563477c0.5400391,0.4951172,0.8554688,1.1972656,0.8554688,2.1787109
			c0,0.9902344-0.3066406,1.800293-0.8740234,2.3583984c-0.5664063,0.5673828-1.5029297,0.8735352-2.6826172,0.8735352
			c-0.5576172,0-1.0263672-0.0273438-1.421875-0.0722656V6.6791992z M371.6243591,12.0449219
			c0.1972656,0.0361328,0.4853516,0.0449219,0.7919922,0.0449219c1.6748047,0,2.5839844-0.9360352,2.5839844-2.574707
			c0.0087891-1.4316406-0.8017578-2.3408203-2.4580078-2.3408203c-0.4052734,0-0.7109375,0.0361328-0.9179688,0.0810547V12.0449219z
			"/>
		<path id="XMLID_716_" class="st5" d="M378.2757263,7.5522461h-0.0185547l-1.0175781,0.5493164l-0.1523438-0.6030273
			l1.2783203-0.684082h0.6748047v5.8515625h-0.7646484V7.5522461z"/>
	</g>
</g>
<g id="XMLID_22_">
	<g id="XMLID_723_">
		<path id="XMLID_726_" class="st5" d="M297.5071716,56.769043c0.4765625-0.0717773,1.0439453-0.1259766,1.6650391-0.1259766
			c1.125,0,1.9267578,0.2612305,2.4580078,0.7563477c0.5400391,0.4951172,0.8554688,1.1972656,0.8554688,2.1787109
			c0,0.9902344-0.3066406,1.800293-0.8740234,2.3583984c-0.5664063,0.5673828-1.5029297,0.8735352-2.6826172,0.8735352
			c-0.5576172,0-1.0263672-0.0273438-1.421875-0.0722656V56.769043z M298.2903748,62.1347656
			c0.1972656,0.0361328,0.4853516,0.0449219,0.7919922,0.0449219c1.6748047,0,2.5839844-0.9365234,2.5839844-2.574707
			c0.0087891-1.4316406-0.8017578-2.3408203-2.4580078-2.3408203c-0.4052734,0-0.7109375,0.0361328-0.9179688,0.0810547V62.1347656z
			"/>
		<path id="XMLID_724_" class="st5" d="M303.2220154,62.7558594v-0.4863281l0.6210938-0.6030273
			c1.4941406-1.4223633,2.1699219-2.1787109,2.1787109-3.0610352c0-0.5942383-0.2880859-1.1430664-1.1611328-1.1430664
			c-0.53125,0-0.9726563,0.2700195-1.2431641,0.4951172l-0.2519531-0.5581055
			c0.4052734-0.3422852,0.9814453-0.5942383,1.6572266-0.5942383c1.2597656,0,1.7910156,0.8642578,1.7910156,1.7016602
			c0,1.0800781-0.7832031,1.953125-2.0166016,3.1416016l-0.4677734,0.4321289v0.0180664h2.6289063v0.6572266H303.2220154z"/>
	</g>
</g>
<g id="XMLID_23_">
	<g id="XMLID_738_">
		<path id="XMLID_741_" class="st5" d="M285.5071716,95.6796875c0.4765625-0.0717773,1.0439453-0.1259766,1.6650391-0.1259766
			c1.125,0,1.9267578,0.2612305,2.4580078,0.7563477c0.5400391,0.4951172,0.8554688,1.1972656,0.8554688,2.1787109
			c0,0.9902344-0.3066406,1.800293-0.8740234,2.3583984c-0.5664063,0.5673828-1.5029297,0.8735352-2.6826172,0.8735352
			c-0.5576172,0-1.0263672-0.0273438-1.421875-0.0722656V95.6796875z M286.2903748,101.0454102
			c0.1972656,0.0361328,0.4853516,0.0449219,0.7919922,0.0449219c1.6748047,0,2.5839844-0.9360352,2.5839844-2.574707
			c0.0087891-1.4316406-0.8017578-2.3408203-2.4580078-2.3408203c-0.4052734,0-0.7109375,0.0361328-0.9179688,0.0810547V101.0454102
			z"/>
		<path id="XMLID_739_" class="st5" d="M291.4104919,100.7573242c0.2255859,0.144043,0.7480469,0.3691406,1.296875,0.3691406
			c1.0175781,0,1.3320313-0.6484375,1.3232422-1.1342773c-0.0087891-0.8193359-0.7470703-1.1704102-1.5126953-1.1704102h-0.4404297
			v-0.5942383h0.4404297c0.5761719,0,1.3056641-0.2973633,1.3056641-0.9902344c0-0.4682617-0.296875-0.8823242-1.0263672-0.8823242
			c-0.4677734,0-0.9179688,0.2070313-1.1699219,0.387207l-0.2070313-0.5761719
			c0.3056641-0.2250977,0.9003906-0.4501953,1.5302734-0.4501953c1.1523438,0,1.6748047,0.684082,1.6748047,1.3955078
			c0,0.6030273-0.3603516,1.1162109-1.0810547,1.3774414v0.0175781c0.7207031,0.144043,1.3056641,0.6845703,1.3056641,1.503418
			c0,0.9365234-0.7294922,1.7558594-2.1337891,1.7558594c-0.6572266,0-1.2333984-0.2070313-1.5214844-0.3959961
			L291.4104919,100.7573242z"/>
	</g>
</g>
<g id="XMLID_24_">
	<g id="XMLID_752_">
		<path id="XMLID_756_" class="st5" d="M311.5052185,174.234375c0.4765625-0.0712891,1.0439453-0.1259766,1.6650391-0.1259766
			c1.125,0,1.9267578,0.2617188,2.4580078,0.7568359c0.5400391,0.4951172,0.8554688,1.1972656,0.8554688,2.1787109
			c0,0.9902344-0.3066406,1.7998047-0.8740234,2.3583984c-0.5664063,0.5673828-1.5029297,0.8730469-2.6826172,0.8730469
			c-0.5576172,0-1.0263672-0.0273438-1.421875-0.0722656V174.234375z M312.2884216,179.6005859
			c0.1972656,0.0361328,0.4853516,0.0449219,0.7919922,0.0449219c1.6748047,0,2.5839844-0.9365234,2.5839844-2.5751953
			c0.0087891-1.4316406-0.8017578-2.3408203-2.4580078-2.3408203c-0.4052734,0-0.7109375,0.0361328-0.9179688,0.0810547V179.6005859
			z"/>
		<path id="XMLID_753_" class="st5" d="M319.6683044,180.2216797v-1.59375h-2.71875v-0.5224609l2.6113281-3.7353516h0.8554688
			v3.6367188h0.8183594v0.6210938h-0.8183594v1.59375H319.6683044z M319.6683044,178.0068359v-1.9541016
			c0-0.3056641,0.0097656-0.6113281,0.0273438-0.9179688h-0.0273438c-0.1796875,0.3417969-0.3242188,0.5947266-0.4853516,0.8642578
			l-1.4316406,1.9892578v0.0185547H319.6683044z"/>
	</g>
</g>
<g id="XMLID_25_">
	<g id="XMLID_746_">
		<path id="XMLID_749_" class="st5" d="M347.1741638,201.0126953c0.4765625-0.0712891,1.0439453-0.1259766,1.6650391-0.1259766
			c1.125,0,1.9267578,0.2617188,2.4580078,0.7568359c0.5400391,0.4951172,0.8554688,1.1972656,0.8554688,2.1787109
			c0,0.9902344-0.3066406,1.7998047-0.8740234,2.3583984c-0.5664063,0.5673828-1.5029297,0.8730469-2.6826172,0.8730469
			c-0.5576172,0-1.0263672-0.0273438-1.421875-0.0722656V201.0126953z M347.9573669,206.3789063
			c0.1972656,0.0361328,0.4853516,0.0449219,0.7919922,0.0449219c1.6748047,0,2.5839844-0.9365234,2.5839844-2.5751953
			c0.0087891-1.4316406-0.8017578-2.3408203-2.4580078-2.3408203c-0.4052734,0-0.7109375,0.0361328-0.9179688,0.0810547V206.3789063
			z"/>
		<path id="XMLID_747_" class="st5" d="M356.3821716,201.8144531h-2.2333984l-0.2246094,1.5029297
			c0.1347656-0.0175781,0.2607422-0.0361328,0.4775391-0.0361328c0.4501953,0,0.8994141,0.0996094,1.2597656,0.3154297
			c0.4589844,0.2607422,0.8378906,0.765625,0.8378906,1.5039063c0,1.1425781-0.9101563,1.9980469-2.1787109,1.9980469
			c-0.6396484,0-1.1796875-0.1796875-1.4589844-0.3603516l0.1982422-0.6025391
			c0.2431641,0.1435547,0.7197266,0.3242188,1.2509766,0.3242188c0.7480469,0,1.3867188-0.4863281,1.3867188-1.2695313
			c-0.0087891-0.7568359-0.5126953-1.296875-1.6835938-1.296875c-0.3330078,0-0.59375,0.0361328-0.8105469,0.0634766
			l0.3789063-2.8085938h2.7998047V201.8144531z"/>
	</g>
</g>
<g id="XMLID_26_">
	<g id="XMLID_767_">
		<path id="XMLID_771_" class="st5" d="M432.9602966,202.3466797c0.4765625-0.0722656,1.0439453-0.1259766,1.6650391-0.1259766
			c1.125,0,1.9267578,0.2607422,2.4580078,0.7558594c0.5400391,0.4951172,0.8554688,1.1972656,0.8554688,2.1787109
			c0,0.9902344-0.3066406,1.8007813-0.8740234,2.3583984c-0.5664063,0.5673828-1.5029297,0.8730469-2.6826172,0.8730469
			c-0.5576172,0-1.0263672-0.0263672-1.421875-0.0712891V202.3466797z M433.7434998,207.7119141
			c0.1972656,0.0361328,0.4853516,0.0449219,0.7919922,0.0449219c1.6748047,0,2.5839844-0.9365234,2.5839844-2.5742188
			c0.0087891-1.4316406-0.8017578-2.3408203-2.4580078-2.3408203c-0.4052734,0-0.7109375,0.0361328-0.9179688,0.0810547V207.7119141
			z"/>
		<path id="XMLID_768_" class="st5" d="M442.0149841,203.0400391c-0.1621094-0.0097656-0.3691406,0-0.59375,0.0351563
			c-1.2431641,0.2080078-1.9003906,1.1171875-2.0351563,2.0800781h0.0273438
			c0.2792969-0.3691406,0.7646484-0.6748047,1.4130859-0.6748047c1.0351563,0,1.7646484,0.7470703,1.7646484,1.8896484
			c0,1.0712891-0.7294922,2.0615234-1.9443359,2.0615234c-1.2519531,0-2.0712891-0.9716797-2.0712891-2.4931641
			c0-1.1523438,0.4140625-2.0615234,0.9902344-2.6376953c0.4863281-0.4775391,1.1347656-0.7744141,1.8730469-0.8642578
			c0.234375-0.0361328,0.4316406-0.0449219,0.5761719-0.0449219V203.0400391z M441.7903748,206.4150391
			c0-0.8369141-0.4775391-1.3408203-1.2070313-1.3408203c-0.4765625,0-0.9179688,0.296875-1.1337891,0.7197266
			c-0.0546875,0.0908203-0.0908203,0.2070313-0.0908203,0.3515625c0.0185547,0.9628906,0.4599609,1.6748047,1.2880859,1.6748047
			C441.3304138,207.8203125,441.7903748,207.2529297,441.7903748,206.4150391z"/>
	</g>
</g>
<g id="XMLID_27_">
	<g id="XMLID_761_">
		<path id="XMLID_764_" class="st5" d="M466.5071716,176.3466797c0.4765625-0.0722656,1.0439453-0.1269531,1.6650391-0.1269531
			c1.125,0,1.9267578,0.2617188,2.4580078,0.7568359c0.5400391,0.4951172,0.8554688,1.1972656,0.8554688,2.1787109
			c0,0.9902344-0.3066406,1.8007813-0.8740234,2.3583984c-0.5664063,0.5673828-1.5029297,0.8730469-2.6826172,0.8730469
			c-0.5576172,0-1.0263672-0.0263672-1.421875-0.0712891V176.3466797z M467.2903748,181.7119141
			c0.1972656,0.0361328,0.4853516,0.0449219,0.7919922,0.0449219c1.6748047,0,2.5839844-0.9365234,2.5839844-2.5751953
			c0.0087891-1.4306641-0.8017578-2.3398438-2.4580078-2.3398438c-0.4052734,0-0.7109375,0.0351563-0.9179688,0.0810547V181.7119141
			z"/>
		<path id="XMLID_762_" class="st5" d="M476.0208435,176.4814453v0.5214844l-2.5478516,5.3300781h-0.8193359l2.5390625-5.1767578
			v-0.0175781h-2.8632813v-0.6572266H476.0208435z"/>
	</g>
</g>
<g id="XMLID_28_">
	<g id="XMLID_789_">
		<path id="XMLID_794_" class="st5" d="M492.841156,95.6801758c0.4765625-0.0722656,1.0439453-0.1269531,1.6650391-0.1269531
			c1.125,0,1.9267578,0.2617188,2.4580078,0.7568359c0.5400391,0.4951172,0.8554688,1.1972656,0.8554688,2.1787109
			c0,0.9902344-0.3066406,1.8007813-0.8740234,2.3583984c-0.5664063,0.5673828-1.5029297,0.8730469-2.6826172,0.8730469
			c-0.5576172,0-1.0263672-0.0263672-1.421875-0.0712891V95.6801758z M493.6243591,101.0454102
			c0.1972656,0.0361328,0.4853516,0.0449219,0.7919922,0.0449219c1.6748047,0,2.5839844-0.9365234,2.5839844-2.5751953
			c0.0087891-1.4306641-0.8017578-2.3398438-2.4580078-2.3398438c-0.4052734,0-0.7109375,0.0351563-0.9179688,0.0810547V101.0454102
			z"/>
		<path id="XMLID_790_" class="st5" d="M498.4837341,100.1811523c0-0.7382813,0.4414063-1.2607422,1.1611328-1.5664063
			l-0.0087891-0.0273438c-0.6484375-0.3056641-0.9267578-0.8105469-0.9267578-1.3144531
			c0-0.9267578,0.7832031-1.5576172,1.8095703-1.5576172c1.1337891,0,1.7011719,0.7119141,1.7011719,1.4404297
			c0,0.4951172-0.2431641,1.0263672-0.9638672,1.3691406v0.0263672c0.7294922,0.2880859,1.1796875,0.8017578,1.1796875,1.5126953
			c0,1.0175781-0.8730469,1.7011719-1.9892578,1.7011719C499.2220154,101.7651367,498.4837341,101.0366211,498.4837341,100.1811523z
			 M501.6351013,100.1450195c0-0.7109375-0.4951172-1.0537109-1.2880859-1.2783203
			c-0.6835938,0.1982422-1.0527344,0.6484375-1.0527344,1.2060547c-0.0273438,0.5947266,0.4228516,1.1162109,1.1699219,1.1162109
			C501.1751404,101.1889648,501.6351013,100.7485352,501.6351013,100.1450195z M499.4563904,97.2192383
			c0,0.5849609,0.4404297,0.9003906,1.1162109,1.0800781c0.5039063-0.1708984,0.8916016-0.53125,0.8916016-1.0625
			c0-0.4677734-0.2792969-0.9541016-0.9912109-0.9541016C499.8157654,96.2827148,499.4563904,96.715332,499.4563904,97.2192383z"/>
	</g>
</g>
<g id="XMLID_29_">
	<g id="XMLID_783_">
		<path id="XMLID_787_" class="st5" d="M482.8401794,59.0131836c0.4765625-0.0722656,1.0439453-0.1269531,1.6650391-0.1269531
			c1.125,0,1.9267578,0.2617188,2.4580078,0.7568359c0.5400391,0.4951172,0.8554688,1.1972656,0.8554688,2.1787109
			c0,0.9902344-0.3066406,1.8007813-0.8740234,2.3583984c-0.5664063,0.5673828-1.5029297,0.8730469-2.6826172,0.8730469
			c-0.5576172,0-1.0263672-0.0263672-1.421875-0.0712891V59.0131836z M483.6233826,64.378418
			c0.1972656,0.0361328,0.4853516,0.0449219,0.7919922,0.0449219c1.6748047,0,2.5839844-0.9365234,2.5839844-2.5751953
			c0.0087891-1.4306641-0.8017578-2.3398438-2.4580078-2.3398438c-0.4052734,0-0.7109375,0.0351563-0.9179688,0.0810547V64.378418z"
			/>
		<path id="XMLID_784_" class="st5" d="M489.0140076,64.440918c0.1708984,0.0185547,0.3691406,0,0.6396484-0.0263672
			c0.4589844-0.0634766,0.890625-0.2519531,1.2236328-0.5673828c0.3876953-0.3515625,0.6660156-0.8642578,0.7744141-1.5576172
			h-0.0273438c-0.3232422,0.3964844-0.7919922,0.6298828-1.3769531,0.6298828c-1.0537109,0-1.7285156-0.7919922-1.7285156-1.7910156
			c0-1.1074219,0.8007813-2.0800781,1.9990234-2.0800781c1.1972656,0,1.9355469,0.9726563,1.9355469,2.4667969
			c0,1.2880859-0.4326172,2.1875-1.0087891,2.7460938c-0.4501953,0.4414063-1.0712891,0.7109375-1.7011719,0.7832031
			c-0.2880859,0.0449219-0.5400391,0.0537109-0.7294922,0.0449219V64.440918z M489.3020935,61.074707
			c0,0.7285156,0.4414063,1.2421875,1.125,1.2421875c0.53125,0,0.9453125-0.2617188,1.1523438-0.6123047
			c0.0449219-0.0722656,0.0722656-0.1621094,0.0722656-0.2880859c0-0.9990234-0.3691406-1.7646484-1.1972656-1.7646484
			C489.7796326,59.6518555,489.3020935,60.2456055,489.3020935,61.074707z"/>
	</g>
</g>
<g id="XMLID_30_">
	<g id="XMLID_813_">
		<path id="XMLID_819_" class="st5" d="M410.5071716,6.6791992c0.4765625-0.0717773,1.0439453-0.1259766,1.6650391-0.1259766
			c1.125,0,1.9267578,0.2612305,2.4580078,0.7563477c0.5400391,0.4951172,0.8554688,1.1972656,0.8554688,2.1787109
			c0,0.9902344-0.3066406,1.800293-0.8740234,2.3583984c-0.5664063,0.5673828-1.5029297,0.8735352-2.6826172,0.8735352
			c-0.5576172,0-1.0263672-0.0273438-1.421875-0.0722656V6.6791992z M411.2903748,12.0449219
			c0.1972656,0.0361328,0.4853516,0.0449219,0.7919922,0.0449219c1.6748047,0,2.5839844-0.9360352,2.5839844-2.574707
			c0.0087891-1.4316406-0.8017578-2.3408203-2.4580078-2.3408203c-0.4052734,0-0.7109375,0.0361328-0.9179688,0.0810547V12.0449219z
			"/>
		<path id="XMLID_817_" class="st5" d="M417.9417419,7.5522461h-0.0185547l-1.0175781,0.5493164l-0.1523438-0.6030273
			l1.2783203-0.684082h0.6748047v5.8515625h-0.7646484V7.5522461z"/>
		<path id="XMLID_814_" class="st5" d="M424.7278748,9.6772461c0,1.9892578-0.7382813,3.0878906-2.0341797,3.0878906
			c-1.1435547,0-1.9179688-1.0712891-1.9355469-3.0068359c0-1.9628906,0.8457031-3.0429688,2.0341797-3.0429688
			C424.0257263,6.715332,424.7278748,7.8134766,424.7278748,9.6772461z M421.5501404,9.7670898
			c0,1.5214844,0.46875,2.3857422,1.1884766,2.3857422c0.8105469,0,1.1972656-0.9453125,1.1972656-2.4394531
			c0-1.4404297-0.3691406-2.3857422-1.1884766-2.3857422C422.0540466,7.3276367,421.5501404,8.1738281,421.5501404,9.7670898z"/>
	</g>
</g>
<g id="XMLID_31_">
	<path id="XMLID_422_" d="M348.6497498,17.487793h-2.3583984v2.1875h2.6289063v0.6572266h-3.4121094v-6.0678711h3.2763672v0.6572266
		h-2.4931641v1.9174805h2.3583984V17.487793z"/>
	<path id="XMLID_424_" d="M351.3763123,15.2192383h-0.0185547l-1.0175781,0.5488281l-0.1523438-0.6030273l1.2783203-0.684082
		h0.6748047v5.8515625h-0.7646484V15.2192383z"/>
</g>
<g id="XMLID_39_">
	<path id="XMLID_418_" d="M314.6468201,40.9267578h-2.3583984v2.1875h2.6289063v0.6572266h-3.4121094v-6.0678711h3.2763672
		v0.6572266h-2.4931641v1.9174805h2.3583984V40.9267578z"/>
	<path id="XMLID_420_" d="M315.653656,43.7714844v-0.4863281l0.6210938-0.6030273
		c1.4941406-1.4223633,2.1699219-2.1787109,2.1787109-3.0610352c0-0.5942383-0.2880859-1.1430664-1.1611328-1.1430664
		c-0.53125,0-0.9726563,0.2700195-1.2431641,0.4951172l-0.2519531-0.5581055
		c0.4052734-0.3422852,0.9814453-0.5942383,1.6572266-0.5942383c1.2597656,0,1.7910156,0.8642578,1.7910156,1.7011719
		c0,1.0805664-0.7832031,1.9536133-2.0166016,3.1420898l-0.4677734,0.4321289v0.0180664h2.6289063v0.6572266H315.653656z"/>
</g>
<g id="XMLID_41_">
	<path id="XMLID_414_" d="M288.6487732,121.4882813h-2.3583984v2.1875h2.6289063v0.6572266h-3.4121094v-6.0683594h3.2763672
		v0.6572266h-2.4931641v1.9179688h2.3583984V121.4882813z"/>
	<path id="XMLID_416_" d="M289.8440857,123.4238281c0.2255859,0.1435547,0.7480469,0.3691406,1.296875,0.3691406
		c1.0175781,0,1.3320313-0.6484375,1.3232422-1.1347656c-0.0087891-0.8193359-0.7470703-1.1699219-1.5126953-1.1699219h-0.4404297
		v-0.5947266h0.4404297c0.5761719,0,1.3056641-0.296875,1.3056641-0.9902344c0-0.4677734-0.296875-0.8818359-1.0263672-0.8818359
		c-0.4677734,0-0.9179688,0.2070313-1.1699219,0.3867188l-0.2070313-0.5761719
		c0.3056641-0.2246094,0.9003906-0.4501953,1.5302734-0.4501953c1.1523438,0,1.6748047,0.6845703,1.6748047,1.3955078
		c0,0.6035156-0.3603516,1.1162109-1.0810547,1.3779297v0.0175781c0.7207031,0.1435547,1.3056641,0.6845703,1.3056641,1.5039063
		c0,0.9355469-0.7294922,1.7548828-2.1337891,1.7548828c-0.6572266,0-1.2333984-0.2070313-1.5214844-0.3955078
		L289.8440857,123.4238281z"/>
</g>
<g id="XMLID_74_">
	<path id="XMLID_409_" d="M302.6097107,160.8095703h-2.3583984v2.1875h2.6289063v0.6572266h-3.4121094v-6.0683594h3.2763672
		v0.6572266h-2.4931641v1.9179688h2.3583984V160.8095703z"/>
	<path id="XMLID_411_" d="M306.0647888,163.6542969v-1.59375h-2.71875v-0.5224609l2.6113281-3.7353516h0.8544922v3.6367188
		h0.8193359v0.6210938h-0.8193359v1.59375H306.0647888z M306.0647888,161.4394531v-1.9541016
		c0-0.3056641,0.0097656-0.6113281,0.0273438-0.9179688h-0.0273438c-0.1796875,0.3417969-0.3242188,0.5947266-0.4853516,0.8642578
		l-1.4316406,1.9892578v0.0185547H306.0647888z"/>
</g>
<g id="XMLID_75_">
	<path id="XMLID_405_" d="M371.981781,211.1552734h-2.3583984v2.1875h2.6289063V214h-3.4121094v-6.0673828h3.2763672v0.6572266
		h-2.4931641v1.9169922h2.3583984V211.1552734z"/>
	<path id="XMLID_407_" d="M376.481781,208.8144531h-2.2333984l-0.2246094,1.5039063
		c0.1347656-0.0185547,0.2607422-0.0361328,0.4775391-0.0361328c0.4501953,0,0.8994141,0.0986328,1.2597656,0.3144531
		c0.4589844,0.2617188,0.8378906,0.765625,0.8378906,1.5039063c0,1.1435547-0.9101563,1.9980469-2.1787109,1.9980469
		c-0.6396484,0-1.1796875-0.1796875-1.4589844-0.359375l0.1982422-0.6035156
		c0.2431641,0.1445313,0.7197266,0.3242188,1.2509766,0.3242188c0.7480469,0,1.3867188-0.4863281,1.3867188-1.2695313
		c-0.0087891-0.7558594-0.5126953-1.2958984-1.6835938-1.2958984c-0.3330078,0-0.59375,0.0351563-0.8105469,0.0625
		l0.3789063-2.8085938h2.7998047V208.8144531z"/>
</g>
<g id="XMLID_76_">
	<path id="XMLID_400_" d="M413.6487732,211.1552734h-2.3583984v2.1875h2.6289063V214h-3.4121094v-6.0673828h3.2763672v0.6572266
		h-2.4931641v1.9169922h2.3583984V211.1552734z"/>
	<path id="XMLID_402_" d="M417.9954529,208.7060547c-0.1621094-0.0087891-0.3691406,0-0.59375,0.0361328
		c-1.2431641,0.2070313-1.9003906,1.1162109-2.0351563,2.0800781h0.0273438
		c0.2792969-0.3691406,0.7646484-0.6757813,1.4130859-0.6757813c1.0351563,0,1.7646484,0.7480469,1.7646484,1.890625
		c0,1.0712891-0.7294922,2.0615234-1.9443359,2.0615234c-1.2519531,0-2.0712891-0.9716797-2.0712891-2.4931641
		c0-1.1523438,0.4140625-2.0615234,0.9902344-2.6376953c0.4863281-0.4775391,1.1347656-0.7744141,1.8730469-0.8642578
		c0.234375-0.0361328,0.4316406-0.0449219,0.5761719-0.0449219V208.7060547z M417.7708435,212.0820313
		c0-0.8369141-0.4775391-1.3408203-1.2070313-1.3408203c-0.4765625,0-0.9179688,0.296875-1.1337891,0.7197266
		c-0.0546875,0.0908203-0.0908203,0.2070313-0.0908203,0.3515625c0.0185547,0.9628906,0.4599609,1.6748047,1.2880859,1.6748047
		C417.3108826,213.4873047,417.7708435,212.9199219,417.7708435,212.0820313z"/>
</g>
<g id="XMLID_77_">
	<path id="XMLID_396_" d="M482.9827576,160.8095703h-2.3583984v2.1875h2.6289063v0.6572266h-3.4121094v-6.0683594h3.2763672
		v0.6572266h-2.4931641v1.9179688h2.3583984V160.8095703z"/>
	<path id="XMLID_398_" d="M487.7884216,157.8027344v0.5214844l-2.5478516,5.3300781h-0.8193359l2.5390625-5.1767578v-0.0175781
		h-2.8632813v-0.6572266H487.7884216z"/>
</g>
<g id="XMLID_78_">
	<path id="XMLID_390_" d="M495.9827576,121.4882813h-2.3583984v2.1875h2.6289063v0.6572266h-3.4121094v-6.0683594h3.2763672
		v0.6572266h-2.4931641v1.9179688h2.3583984V121.4882813z"/>
	<path id="XMLID_392_" d="M496.9173279,122.8476563c0-0.7382813,0.4414063-1.2607422,1.1611328-1.5664063l-0.0087891-0.0273438
		c-0.6484375-0.3056641-0.9267578-0.8105469-0.9267578-1.3144531c0-0.9277344,0.7832031-1.5576172,1.8095703-1.5576172
		c1.1337891,0,1.7011719,0.7109375,1.7011719,1.4404297c0,0.4951172-0.2431641,1.0263672-0.9638672,1.3681641v0.0273438
		c0.7294922,0.2880859,1.1796875,0.8017578,1.1796875,1.5126953c0,1.0175781-0.8730469,1.7011719-1.9892578,1.7011719
		C497.6556091,124.4316406,496.9173279,123.7021484,496.9173279,122.8476563z M500.0686951,122.8115234
		c0-0.7109375-0.4951172-1.0537109-1.2880859-1.2783203c-0.6835938,0.1982422-1.0527344,0.6474609-1.0527344,1.2060547
		c-0.0273438,0.59375,0.4228516,1.1162109,1.1699219,1.1162109
		C499.6087341,123.8554688,500.0686951,123.4140625,500.0686951,122.8115234z M497.8899841,119.8857422
		c0,0.5849609,0.4404297,0.9003906,1.1162109,1.0800781c0.5039063-0.1708984,0.8916016-0.53125,0.8916016-1.0625
		c0-0.4677734-0.2792969-0.9541016-0.9912109-0.9541016C498.2493591,118.9492188,497.8899841,119.3808594,497.8899841,119.8857422z"
		/>
</g>
<g id="XMLID_79_">
	<path id="XMLID_385_" d="M472.9827576,42.1352539h-2.3583984v2.1875h2.6289063v0.6572266h-3.4121094v-6.0678711h3.2763672
		v0.6572266h-2.4931641v1.9174805h2.3583984V42.1352539z"/>
	<path id="XMLID_387_" d="M474.4485779,44.421875c0.1708984,0.0180664,0.3691406,0,0.6396484-0.0268555
		c0.4589844-0.0629883,0.890625-0.2524414,1.2236328-0.5673828c0.3876953-0.3510742,0.6660156-0.8642578,0.7744141-1.5576172
		h-0.0273438c-0.3232422,0.3964844-0.7919922,0.6303711-1.3769531,0.6303711c-1.0537109,0-1.7285156-0.7924805-1.7285156-1.7915039
		c0-1.1074219,0.8007813-2.0795898,1.9990234-2.0795898c1.1972656,0,1.9355469,0.972168,1.9355469,2.4667969
		c0,1.2871094-0.4326172,2.1875-1.0087891,2.7456055c-0.4501953,0.4414063-1.0712891,0.7114258-1.7011719,0.7832031
		c-0.2880859,0.0449219-0.5400391,0.0541992-0.7294922,0.0449219V44.421875z M474.7366638,41.0546875
		c0,0.7294922,0.4414063,1.2426758,1.125,1.2426758c0.53125,0,0.9453125-0.2612305,1.1523438-0.6123047
		c0.0449219-0.0722656,0.0722656-0.1621094,0.0722656-0.2880859c0-0.9995117-0.3691406-1.7646484-1.1972656-1.7646484
		C475.2142029,39.6323242,474.7366638,40.2265625,474.7366638,41.0546875z"/>
</g>
<g id="XMLID_80_">
	<path id="XMLID_378_" d="M438.3157654,16.1542969h-2.3583984v2.1875h2.6289063v0.6572266h-3.4121094v-6.0678711h3.2763672
		v0.6572266h-2.4931641v1.9174805h2.3583984V16.1542969z"/>
	<path id="XMLID_380_" d="M441.0423279,13.8852539h-0.0185547l-1.0175781,0.5493164l-0.1523438-0.6030273l1.2783203-0.684082
		h0.6748047v5.8515625h-0.7646484V13.8852539z"/>
	<path id="XMLID_382_" d="M447.8284607,16.0102539c0,1.9892578-0.7382813,3.0878906-2.0341797,3.0878906
		c-1.1435547,0-1.9179688-1.0712891-1.9355469-3.0068359c0-1.9628906,0.8457031-3.0429688,2.0341797-3.0429688
		C447.1263123,13.0483398,447.8284607,14.1464844,447.8284607,16.0102539z M444.6507263,16.1000977
		c0,1.5214844,0.46875,2.3857422,1.1884766,2.3857422c0.8105469,0,1.1972656-0.9453125,1.1972656-2.4394531
		c0-1.4404297-0.3691406-2.3857422-1.1884766-2.3857422C445.1546326,13.6606445,444.6507263,14.5068359,444.6507263,16.1000977z"/>
</g>
<g id="XMLID_81_">
	<path id="XMLID_374_" d="M374.5315857,21.0214844h3.2675781v0.6572266h-2.484375v2.0166016h2.2949219V24.34375h-2.2949219
		v2.7456055h-0.7832031V21.0214844z"/>
	<path id="XMLID_376_" d="M380.3548279,21.9755859h-0.0185547l-1.0175781,0.5493164l-0.1523438-0.6030273l1.2783203-0.684082
		h0.6748047v5.8515625h-0.7646484V21.9755859z"/>
</g>
<g id="XMLID_85_">
	<path id="XMLID_370_" d="M313.1741638,63.5981445h3.2675781v0.6572266h-2.484375v2.0166016h2.2949219v0.6484375h-2.2949219
		v2.7456055h-0.7832031V63.5981445z"/>
	<path id="XMLID_372_" d="M317.2776794,69.6660156v-0.4863281l0.6210938-0.6030273
		c1.4941406-1.4223633,2.1699219-2.1787109,2.1787109-3.0610352c0-0.5942383-0.2880859-1.1430664-1.1611328-1.1430664
		c-0.53125,0-0.9726563,0.2700195-1.2431641,0.4951172l-0.2519531-0.5581055
		c0.4052734-0.3422852,0.9814453-0.5942383,1.6572266-0.5942383c1.2597656,0,1.7910156,0.8642578,1.7910156,1.7011719
		c0,1.0805664-0.7832031,1.9536133-2.0166016,3.1420898l-0.4677734,0.4321289v0.0180664h2.6289063v0.6572266H317.2776794z"/>
</g>
<g id="XMLID_87_">
	<path id="XMLID_366_" d="M302.8401794,95.5986328h3.2675781v0.6572266h-2.484375v2.0166016h2.2949219v0.6484375h-2.2949219
		v2.7456055h-0.7832031V95.5986328z"/>
	<path id="XMLID_368_" d="M307.1321716,100.7573242c0.2255859,0.144043,0.7480469,0.3691406,1.296875,0.3691406
		c1.0175781,0,1.3320313-0.6484375,1.3232422-1.1342773c-0.0087891-0.8193359-0.7470703-1.1704102-1.5126953-1.1704102h-0.4404297
		v-0.5942383h0.4404297c0.5761719,0,1.3056641-0.2973633,1.3056641-0.9902344c0-0.4682617-0.296875-0.8823242-1.0263672-0.8823242
		c-0.4677734,0-0.9179688,0.2070313-1.1699219,0.387207l-0.2070313-0.5761719
		c0.3056641-0.2250977,0.9003906-0.4501953,1.5302734-0.4501953c1.1523438,0,1.6748047,0.684082,1.6748047,1.3955078
		c0,0.6030273-0.3603516,1.1162109-1.0810547,1.3774414v0.0175781c0.7207031,0.144043,1.3056641,0.6845703,1.3056641,1.503418
		c0,0.9365234-0.7294922,1.7558594-2.1337891,1.7558594c-0.6572266,0-1.2333984-0.2070313-1.5214844-0.3959961
		L307.1321716,100.7573242z"/>
</g>
<g id="XMLID_104_">
	<path id="XMLID_361_" d="M325.1741638,166.2646484h3.2675781v0.6572266h-2.484375v2.0166016h2.2949219v0.6484375h-2.2949219
		v2.7460938h-0.7832031V166.2646484z"/>
	<path id="XMLID_363_" d="M331.7259216,172.3330078v-1.59375h-2.71875v-0.5224609l2.6113281-3.7353516h0.8544922v3.6367188
		h0.8193359v0.6210938h-0.8193359v1.59375H331.7259216z M331.7259216,170.1181641v-1.9541016
		c0-0.3056641,0.0097656-0.6113281,0.0273438-0.9179688h-0.0273438c-0.1796875,0.3417969-0.3242188,0.5947266-0.4853516,0.8642578
		l-1.4316406,1.9892578v0.0185547H331.7259216z"/>
</g>
<g id="XMLID_105_">
	<path id="XMLID_357_" d="M352.1741638,186.3925781h3.2675781v0.6572266h-2.484375v2.0166016h2.2949219v0.6484375h-2.2949219
		v2.7460938h-0.7832031V186.3925781z"/>
	<path id="XMLID_359_" d="M359.7708435,187.2753906h-2.2333984l-0.2246094,1.5029297
		c0.1347656-0.0175781,0.2607422-0.0361328,0.4775391-0.0361328c0.4501953,0,0.8994141,0.0996094,1.2597656,0.3154297
		c0.4589844,0.2607422,0.8378906,0.765625,0.8378906,1.5039063c0,1.1425781-0.9101563,1.9980469-2.1787109,1.9980469
		c-0.6396484,0-1.1796875-0.1796875-1.4589844-0.3603516l0.1982422-0.6025391
		c0.2431641,0.1435547,0.7197266,0.3242188,1.2509766,0.3242188c0.7480469,0,1.3867188-0.4863281,1.3867188-1.2695313
		c-0.0087891-0.7568359-0.5126953-1.296875-1.6835938-1.296875c-0.3330078,0-0.59375,0.0361328-0.8105469,0.0634766
		l0.3789063-2.8085938h2.7998047V187.2753906z"/>
</g>
<g id="XMLID_106_">
	<path id="XMLID_352_" d="M428.841156,186.3925781h3.2675781v0.6582031h-2.484375v2.0166016h2.2949219v0.6474609h-2.2949219
		v2.7460938h-0.7832031V186.3925781z"/>
	<path id="XMLID_354_" d="M436.2845154,187.1669922c-0.1621094-0.0087891-0.3691406,0-0.59375,0.0361328
		c-1.2431641,0.2070313-1.9003906,1.1162109-2.0351563,2.0800781h0.0273438
		c0.2792969-0.3691406,0.7646484-0.6757813,1.4130859-0.6757813c1.0351563,0,1.7646484,0.7480469,1.7646484,1.890625
		c0,1.0712891-0.7294922,2.0615234-1.9443359,2.0615234c-1.2519531,0-2.0712891-0.9716797-2.0712891-2.4931641
		c0-1.1523438,0.4150391-2.0615234,0.9912109-2.6376953c0.4853516-0.4775391,1.1337891-0.7744141,1.8720703-0.8652344
		c0.234375-0.0351563,0.4326172-0.0449219,0.5761719-0.0449219V187.1669922z M436.059906,190.5429688
		c0-0.8369141-0.4775391-1.3408203-1.2070313-1.3408203c-0.4765625,0-0.9179688,0.296875-1.1337891,0.7197266
		c-0.0546875,0.0908203-0.0908203,0.2070313-0.0908203,0.3515625c0.0185547,0.9628906,0.4599609,1.6748047,1.2880859,1.6748047
		C435.5999451,191.9482422,436.059906,191.3808594,436.059906,190.5429688z"/>
</g>
<g id="XMLID_107_">
	<path id="XMLID_348_" d="M454.5081482,167.8261719h3.2675781v0.6572266h-2.484375V170.5h2.2949219v0.6474609h-2.2949219v2.7460938
		h-0.7832031V167.8261719z"/>
	<path id="XMLID_350_" d="M462.4104919,168.0419922v0.5224609l-2.5478516,5.3291016h-0.8193359l2.5390625-5.1767578v-0.0175781
		h-2.8632813v-0.6572266H462.4104919z"/>
</g>
<g id="XMLID_108_">
	<path id="XMLID_342_" d="M476.5101013,95.5986328h3.2675781v0.6572266h-2.484375v2.0166016h2.2949219v0.6484375h-2.2949219
		v2.7456055h-0.7832031V95.5986328z"/>
	<path id="XMLID_344_" d="M480.5413513,100.1811523c0-0.7382813,0.4414063-1.2602539,1.1611328-1.5664063l-0.0087891-0.0273438
		c-0.6484375-0.3061523-0.9267578-0.8100586-0.9267578-1.3139648c0-0.9277344,0.7832031-1.5576172,1.8095703-1.5576172
		c1.1337891,0,1.7011719,0.7109375,1.7011719,1.4404297c0,0.4951172-0.2431641,1.0263672-0.9638672,1.3681641v0.0273438
		c0.7294922,0.2880859,1.1796875,0.8012695,1.1796875,1.512207c0,1.0175781-0.8730469,1.7016602-1.9892578,1.7016602
		C481.2796326,101.765625,480.5413513,101.0361328,480.5413513,100.1811523z M483.6927185,100.1450195
		c0-0.7114258-0.4951172-1.0532227-1.2880859-1.2783203c-0.6835938,0.1982422-1.0527344,0.6479492-1.0527344,1.206543
		c-0.0273438,0.59375,0.4228516,1.1162109,1.1699219,1.1162109
		C483.2327576,101.1894531,483.6927185,100.7480469,483.6927185,100.1450195z M481.5140076,97.2192383
		c0,0.5849609,0.4404297,0.9003906,1.1162109,1.0800781c0.5039063-0.1708984,0.8916016-0.5307617,0.8916016-1.0620117
		c0-0.4682617-0.2792969-0.9545898-0.9912109-0.9545898C481.8733826,96.2827148,481.5140076,96.7148438,481.5140076,97.2192383z"/>
</g>
<g id="XMLID_109_">
	<path id="XMLID_337_" d="M466.5071716,63.5986328h3.2675781v0.6572266h-2.484375v2.0166016h2.2949219v0.6474609h-2.2949219
		v2.7460938h-0.7832031V63.5986328z"/>
	<path id="XMLID_339_" d="M471.0696716,69.1074219c0.1708984,0.0185547,0.3691406,0,0.6396484-0.0263672
		c0.4589844-0.0634766,0.890625-0.2519531,1.2236328-0.5673828c0.3876953-0.3515625,0.6660156-0.8642578,0.7744141-1.5576172
		h-0.0273438c-0.3232422,0.3964844-0.7919922,0.6298828-1.3769531,0.6298828c-1.0537109,0-1.7285156-0.7919922-1.7285156-1.7910156
		c0-1.1074219,0.8007813-2.0800781,1.9990234-2.0800781c1.1972656,0,1.9355469,0.9726563,1.9355469,2.4667969
		c0,1.2880859-0.4326172,2.1884766-1.0087891,2.7460938c-0.4501953,0.4414063-1.0712891,0.7109375-1.7011719,0.7832031
		c-0.2880859,0.0449219-0.5400391,0.0537109-0.7294922,0.0449219V69.1074219z M471.3577576,65.7412109
		c0,0.7285156,0.4414063,1.2421875,1.125,1.2421875c0.53125,0,0.9453125-0.2617188,1.1523438-0.6123047
		c0.0449219-0.0722656,0.0722656-0.1621094,0.0722656-0.2880859c0-0.9990234-0.3691406-1.7646484-1.1972656-1.7646484
		C471.8352966,64.3183594,471.3577576,64.9130859,471.3577576,65.7412109z"/>
</g>
<g id="XMLID_110_">
	<path id="XMLID_314_" d="M402.1741638,21.0219727h3.2675781v0.6572266h-2.484375v2.0166016h2.2949219v0.6474609h-2.2949219
		v2.7460938h-0.7832031V21.0219727z"/>
	<path id="XMLID_332_" d="M407.997406,21.9760742h-0.0185547l-1.0175781,0.5488281l-0.1523438-0.6035156l1.2783203-0.6835938
		h0.6748047v5.8515625h-0.7646484V21.9760742z"/>
	<path id="XMLID_334_" d="M414.7835388,24.1000977c0,1.9902344-0.7382813,3.0878906-2.0341797,3.0878906
		c-1.1435547,0-1.9179688-1.0712891-1.9355469-3.0068359c0-1.9619141,0.8457031-3.0429688,2.0341797-3.0429688
		C414.0813904,21.1381836,414.7835388,22.2368164,414.7835388,24.1000977z M411.6058044,24.190918
		c0,1.5214844,0.46875,2.3857422,1.1884766,2.3857422c0.8105469,0,1.1972656-0.9453125,1.1972656-2.4404297
		c0-1.4404297-0.3691406-2.3857422-1.1884766-2.3857422C412.1097107,21.7504883,411.6058044,22.597168,411.6058044,24.190918z"/>
</g>
<g id="XMLID_111_">
	<path id="XMLID_310_" d="M365.1253357,60.0625c-0.3515625,0.1259766-1.0449219,0.3330078-1.8632813,0.3330078
		c-0.9189453,0-1.6748047-0.2338867-2.2695313-0.8012695c-0.5214844-0.5039063-0.8457031-1.3144531-0.8457031-2.2597656
		c0.0087891-1.8095703,1.2509766-3.1328125,3.2861328-3.1328125c0.7021484,0,1.2509766,0.1533203,1.5117188,0.2792969
		l-0.1884766,0.6391602c-0.3242188-0.144043-0.7294922-0.2612305-1.3417969-0.2612305
		c-1.4765625,0-2.4394531,0.918457-2.4394531,2.4399414c0,1.5390625,0.9277344,2.4487305,2.3408203,2.4487305
		c0.5126953,0,0.8642578-0.0722656,1.0439453-0.1621094v-1.8095703h-1.2333984v-0.6303711h1.9990234V60.0625z"/>
	<path id="XMLID_312_" d="M367.7610779,55.2192383h-0.0185547l-1.0175781,0.5488281l-0.1523438-0.6030273l1.2783203-0.684082
		h0.6748047v5.8515625h-0.7646484V55.2192383z"/>
</g>
<g id="XMLID_112_">
	<path id="XMLID_238_" d="M335.5999451,124.0625c-0.3515625,0.1259766-1.0449219,0.3330078-1.8632813,0.3330078
		c-0.9189453,0-1.6748047-0.2333984-2.2695313-0.8007813c-0.5214844-0.5039063-0.8457031-1.3144531-0.8457031-2.2597656
		c0.0087891-1.8095703,1.2509766-3.1328125,3.2861328-3.1328125c0.7021484,0,1.2509766,0.1533203,1.5117188,0.2792969
		l-0.1884766,0.6386719c-0.3242188-0.1435547-0.7294922-0.2607422-1.3417969-0.2607422
		c-1.4765625,0-2.4394531,0.9179688-2.4394531,2.4394531c0,1.5390625,0.9277344,2.4492188,2.3408203,2.4492188
		c0.5126953,0,0.8642578-0.0722656,1.0439453-0.1621094v-1.8095703h-1.2333984v-0.6308594h1.9990234V124.0625z"/>
	<path id="XMLID_240_" d="M336.5159607,124.3330078v-0.4863281l0.6210938-0.6035156
		c1.4941406-1.421875,2.1699219-2.1787109,2.1787109-3.0605469c0-0.5947266-0.2880859-1.1435547-1.1611328-1.1435547
		c-0.53125,0-0.9726563,0.2705078-1.2431641,0.4951172l-0.2519531-0.5576172
		c0.4052734-0.3427734,0.9814453-0.5947266,1.6572266-0.5947266c1.2597656,0,1.7910156,0.8642578,1.7910156,1.7021484
		c0,1.0800781-0.7832031,1.953125-2.0166016,3.1416016l-0.4677734,0.4316406v0.0185547h2.6289063v0.6572266H336.5159607z"/>
</g>
<g id="XMLID_113_">
	<path id="XMLID_234_" d="M384.7923279,174.8320313c-0.3515625,0.1259766-1.0449219,0.3330078-1.8632813,0.3330078
		c-0.9189453,0-1.6748047-0.2333984-2.2695313-0.8017578c-0.5214844-0.5039063-0.8457031-1.3144531-0.8457031-2.2597656
		c0.0087891-1.8085938,1.2509766-3.1328125,3.2861328-3.1328125c0.7021484,0,1.2509766,0.1533203,1.5117188,0.2792969
		l-0.1884766,0.6396484c-0.3242188-0.1435547-0.7294922-0.2607422-1.3417969-0.2607422
		c-1.4765625,0-2.4394531,0.9179688-2.4394531,2.4394531c0,1.5390625,0.9277344,2.4492188,2.3408203,2.4492188
		c0.5126953,0,0.8642578-0.0722656,1.0439453-0.1621094v-1.8105469h-1.2333984v-0.6298828h1.9990234V174.8320313z"/>
	<path id="XMLID_236_" d="M385.8977966,174.1933594c0.2255859,0.1435547,0.7480469,0.3691406,1.296875,0.3691406
		c1.0175781,0,1.3320313-0.6484375,1.3232422-1.1347656c-0.0087891-0.8193359-0.7470703-1.1699219-1.5126953-1.1699219h-0.4404297
		v-0.5947266h0.4404297c0.5761719,0,1.3056641-0.2978516,1.3056641-0.9902344c0-0.4677734-0.296875-0.8818359-1.0263672-0.8818359
		c-0.4677734,0-0.9179688,0.2070313-1.1699219,0.3867188l-0.2070313-0.5761719
		c0.3056641-0.2246094,0.9003906-0.4501953,1.5302734-0.4501953c1.1523438,0,1.6748047,0.6845703,1.6748047,1.3955078
		c0,0.6035156-0.3603516,1.1162109-1.0810547,1.3769531v0.0175781c0.7207031,0.1445313,1.3056641,0.6855469,1.3056641,1.5039063
		c0,0.9365234-0.7294922,1.7558594-2.1337891,1.7558594c-0.6572266,0-1.2333984-0.2070313-1.5214844-0.3964844
		L385.8977966,174.1933594z"/>
</g>
<g id="XMLID_114_">
	<path id="XMLID_229_" d="M447.7923279,138.3964844c-0.3515625,0.1259766-1.0449219,0.3330078-1.8632813,0.3330078
		c-0.9189453,0-1.6748047-0.234375-2.2695313-0.8017578c-0.5214844-0.5039063-0.8457031-1.3144531-0.8457031-2.2597656
		c0.0087891-1.8095703,1.2509766-3.1328125,3.2861328-3.1328125c0.7021484,0,1.2509766,0.1533203,1.5117188,0.2792969
		l-0.1884766,0.6396484c-0.3242188-0.1445313-0.7294922-0.2617188-1.3417969-0.2617188
		c-1.4765625,0-2.4394531,0.9189453-2.4394531,2.4404297c0,1.5390625,0.9277344,2.4482422,2.3408203,2.4482422
		c0.5126953,0,0.8642578-0.0722656,1.0439453-0.1621094v-1.8095703h-1.2333984v-0.6298828h1.9990234V138.3964844z"/>
	<path id="XMLID_231_" d="M451.1575623,138.6660156v-1.5927734h-2.71875v-0.5224609l2.6113281-3.7363281h0.8554688v3.6367188
		h0.8183594v0.6220703h-0.8183594v1.5927734H451.1575623z M451.1575623,136.4511719v-1.953125
		c0-0.3056641,0.0097656-0.6123047,0.0273438-0.9179688h-0.0273438c-0.1796875,0.3417969-0.3242188,0.59375-0.4853516,0.8642578
		l-1.4316406,1.9892578v0.0175781H451.1575623z"/>
</g>
<g id="XMLID_115_">
	<path id="XMLID_225_" d="M435.7923279,69.3959961c-0.3515625,0.1259766-1.0449219,0.3330078-1.8632813,0.3330078
		c-0.9189453,0-1.6748047-0.2338867-2.2695313-0.8012695c-0.5214844-0.5039063-0.8457031-1.3144531-0.8457031-2.2597656
		c0.0087891-1.8095703,1.2509766-3.1328125,3.2861328-3.1328125c0.7021484,0,1.2509766,0.152832,1.5117188,0.2792969
		l-0.1884766,0.6391602c-0.3242188-0.144043-0.7294922-0.2612305-1.3417969-0.2612305
		c-1.4765625,0-2.4394531,0.918457-2.4394531,2.4399414c0,1.5390625,0.9277344,2.4487305,2.3408203,2.4487305
		c0.5126953,0,0.8642578-0.0722656,1.0439453-0.1621094V67.109375h-1.2333984v-0.6303711h1.9990234V69.3959961z"/>
	<path id="XMLID_227_" d="M440.2024841,64.4804688h-2.2333984l-0.2246094,1.503418
		c0.1347656-0.0180664,0.2607422-0.0361328,0.4775391-0.0361328c0.4501953,0,0.8994141,0.0991211,1.2597656,0.3154297
		c0.4589844,0.2607422,0.8378906,0.7651367,0.8378906,1.503418c0,1.1430664-0.9101563,1.9985352-2.1787109,1.9985352
		c-0.6396484,0-1.1796875-0.1801758-1.4589844-0.3603516l0.1982422-0.6030273
		c0.2431641,0.144043,0.7207031,0.3242188,1.2509766,0.3242188c0.7480469,0,1.3867188-0.4863281,1.3867188-1.2695313
		c-0.0087891-0.7563477-0.5126953-1.2963867-1.6835938-1.2963867c-0.3330078,0-0.59375,0.0361328-0.8095703,0.0629883
		l0.3779297-2.8085938h2.7998047V64.4804688z"/>
</g>
<g id="XMLID_116_">
	<path id="XMLID_221_" d="M375.3147888,72.9316406v2.5390625h2.9345703v-2.5390625h0.7919922v6.0678711h-0.7919922v-2.8447266
		h-2.9345703v2.8447266h-0.7832031v-6.0678711H375.3147888z"/>
	<path id="XMLID_223_" d="M381.8401794,73.8857422h-0.0185547l-1.0175781,0.5493164l-0.1523438-0.6030273l1.2783203-0.684082
		h0.6748047v5.8515625h-0.7646484V73.8857422z"/>
</g>
<g id="XMLID_117_">
	<path id="XMLID_217_" d="M351.2913513,110.3017578v2.5390625h2.9345703v-2.5390625h0.7919922v6.0673828h-0.7919922v-2.8447266
		h-2.9345703v2.8447266h-0.7832031v-6.0673828H351.2913513z"/>
	<path id="XMLID_219_" d="M356.0970154,116.3691406v-0.4863281l0.6210938-0.6025391
		c1.4941406-1.4228516,2.1699219-2.1787109,2.1787109-3.0615234c0-0.59375-0.2880859-1.1425781-1.1611328-1.1425781
		c-0.53125,0-0.9726563,0.2695313-1.2431641,0.4951172l-0.2519531-0.5585938
		c0.4052734-0.3417969,0.9814453-0.59375,1.6572266-0.59375c1.2597656,0,1.7910156,0.8642578,1.7910156,1.7011719
		c0,1.0800781-0.7832031,1.953125-2.0166016,3.1416016l-0.4677734,0.4326172v0.0175781h2.6289063v0.6572266H356.0970154z"/>
</g>
<g id="XMLID_118_">
	<path id="XMLID_213_" d="M380.9573669,143.2646484v2.5390625h2.9345703v-2.5390625h0.7919922v6.0683594h-0.7919922v-2.8447266
		h-2.9345703v2.8447266h-0.7832031v-6.0683594H380.9573669z"/>
	<path id="XMLID_215_" d="M385.9515076,148.4238281c0.2255859,0.1435547,0.7480469,0.3691406,1.296875,0.3691406
		c1.0175781,0,1.3320313-0.6484375,1.3232422-1.1347656c-0.0087891-0.8193359-0.7470703-1.1699219-1.5126953-1.1699219h-0.4404297
		v-0.5947266h0.4404297c0.5761719,0,1.3056641-0.296875,1.3056641-0.9902344c0-0.4677734-0.296875-0.8818359-1.0263672-0.8818359
		c-0.4677734,0-0.9179688,0.2070313-1.1699219,0.3867188l-0.2070313-0.5761719
		c0.3056641-0.2246094,0.9003906-0.4501953,1.5302734-0.4501953c1.1523438,0,1.6748047,0.6845703,1.6748047,1.3955078
		c0,0.6035156-0.3603516,1.1162109-1.0810547,1.3779297v0.0175781c0.7207031,0.1435547,1.3056641,0.6845703,1.3056641,1.5029297
		c0,0.9365234-0.7294922,1.7558594-2.1337891,1.7558594c-0.6572266,0-1.2333984-0.2070313-1.5214844-0.3955078
		L385.9515076,148.4238281z"/>
</g>
<g id="XMLID_119_">
	<path id="XMLID_208_" d="M422.2903748,124.4511719v2.5390625h2.9345703v-2.5390625h0.7919922v6.0683594h-0.7919922v-2.8447266
		h-2.9345703v2.8447266h-0.7832031v-6.0683594H422.2903748z"/>
	<path id="XMLID_210_" d="M429.544281,130.5195313v-1.59375h-2.71875v-0.5224609l2.6113281-3.7353516h0.8554688v3.6367188h0.8183594
		v0.6210938h-0.8183594v1.59375H429.544281z M429.544281,128.3046875v-1.9541016
		c0-0.3056641,0.0097656-0.6113281,0.0273438-0.9179688h-0.0273438c-0.1796875,0.3417969-0.3242188,0.5947266-0.4853516,0.8642578
		l-1.4316406,1.9892578v0.0185547H429.544281z"/>
</g>
<g id="XMLID_120_">
	<path id="XMLID_204_" d="M418.6243591,80.3305664v2.5385742h2.9345703v-2.5385742h0.7919922v6.0678711h-0.7919922v-2.8447266
		h-2.9345703v2.8447266h-0.7832031v-6.0678711H418.6243591z"/>
	<path id="XMLID_206_" d="M426.9231873,81.2128906h-2.2333984l-0.2246094,1.503418
		c0.1347656-0.0180664,0.2607422-0.0361328,0.4775391-0.0361328c0.4501953,0,0.8994141,0.0991211,1.2597656,0.3154297
		c0.4589844,0.2607422,0.8378906,0.7651367,0.8378906,1.503418c0,1.1435547-0.9101563,1.9980469-2.1787109,1.9980469
		c-0.6396484,0-1.1796875-0.1796875-1.4589844-0.359375l0.1982422-0.6035156
		c0.2431641,0.1445313,0.7197266,0.3242188,1.2509766,0.3242188c0.7480469,0,1.3867188-0.4863281,1.3867188-1.2695313
		c-0.0087891-0.7558594-0.5126953-1.2963867-1.6835938-1.2963867c-0.3330078,0-0.59375,0.0361328-0.8105469,0.0629883
		l0.3789063-2.8085938h2.7998047V81.2128906z"/>
</g>
<polyline id="XMLID_183_" class="st6" points="137.3230286,201.9358826 105.4374084,201.9358826 117.6166382,201.9358826 
	157.0293884,201.9358826 169.2086182,201.9358826 137.3230286,201.9358826 "/>
<polygon id="XMLID_182_" points="117.6166382,126.9683838 105.4374084,160.4948425 137.3230286,181.2153625 
	169.2086182,160.4948425 157.0293884,126.9683838 "/>
<polyline id="XMLID_181_" class="st6" points="137.3230286,181.2153625 105.4374084,160.4948425 117.6166382,126.9683838 
	157.0293884,126.9683838 169.2086182,160.4948425 137.3230286,181.2153625 "/>
<polygon id="XMLID_180_" points="53.8454552,126.9683838 41.6662407,126.9683838 53.8454552,160.4948425 73.5518341,181.2153625 
	73.5518341,160.4948425 "/>
<polyline id="XMLID_179_" class="st6" points="73.5518341,181.2153625 53.8454552,160.4948425 41.6662407,126.9683838 
	53.8454552,126.9683838 73.5518341,160.4948425 73.5518341,181.2153625 "/>
<polyline id="XMLID_177_" class="st6" points="97.9102478,181.2153625 117.6166382,160.4948425 97.9102478,126.9683838 
	66.0246735,126.9683838 66.0246735,160.4948425 97.9102478,181.2153625 "/>
<polyline id="XMLID_175_" class="st6" points="176.7357788,181.2153625 208.6213684,160.4948425 208.6213684,126.9683838 
	176.7357788,126.9683838 157.0293884,160.4948425 176.7357788,181.2153625 "/>
<polygon id="XMLID_174_" points="201.0942078,160.4948425 201.0942078,181.2153625 220.8005676,160.4948425 
	232.9797974,126.9683838 220.8005676,126.9683838 "/>
<polyline id="XMLID_173_" class="st6" points="201.0942078,181.2153625 201.0942078,160.4948425 220.8005676,126.9683838 
	232.9797974,126.9683838 220.8005676,160.4948425 201.0942078,181.2153625 "/>
<polyline id="XMLID_171_" class="st6" points="97.9102478,39.1948547 66.0246735,59.9153748 66.0246735,93.441864 
	97.9102478,93.441864 117.6166382,59.9153748 97.9102478,39.1948547 "/>
<polyline id="XMLID_169_" class="st6" points="73.5518341,39.1948547 73.5518341,59.9153748 53.8454552,93.441864 
	41.6662407,93.441864 53.8454552,59.9153748 73.5518341,39.1948547 "/>
<polyline id="XMLID_167_" class="st6" points="137.3230286,39.1948547 169.2086182,59.9153748 157.0293884,93.441864 
	117.6166382,93.441864 105.4374084,59.9153748 137.3230286,39.1948547 "/>
<polyline id="XMLID_165_" class="st6" points="201.0942078,39.1948547 220.8005676,59.9153748 232.9797974,93.441864 
	220.8005676,93.441864 201.0942078,59.9153748 201.0942078,39.1948547 "/>
<polyline id="XMLID_163_" class="st6" points="176.7357788,39.1948547 157.0293884,59.9153748 176.7357788,93.441864 
	208.6213684,93.441864 208.6213684,59.9153748 176.7357788,39.1948547 "/>
<polyline id="XMLID_162_" class="st6" points="117.6166382,18.4743652 105.4374084,18.4743652 137.3230286,18.4743652 
	169.2086182,18.4743652 157.0293884,18.4743652 117.6166382,18.4743652 "/>
<polygon id="XMLID_161_" class="st4" points="73.5518341,160.4948425 73.5518341,181.2153625 105.4374084,201.9358826 
	137.3230286,201.9358826 137.3230286,181.2153625 105.4374084,160.4948425 "/>
<polyline id="XMLID_160_" class="st6" points="105.4374084,201.9358826 137.3230286,201.9358826 137.3230286,181.2153625 
	105.4374084,160.4948425 73.5518341,160.4948425 73.5518341,181.2153625 105.4374084,201.9358826 "/>
<polyline id="XMLID_158_" class="st6" points="117.6166382,201.9358826 105.4374084,201.9358826 73.5518341,181.2153625 
	53.8454552,160.4948425 66.0246735,160.4948425 97.9102478,181.2153625 117.6166382,201.9358826 "/>
<polyline id="XMLID_156_" class="st6" points="157.0293884,201.9358826 117.6166382,201.9358826 97.9102478,181.2153625 
	117.6166382,160.4948425 157.0293884,160.4948425 176.7357788,181.2153625 157.0293884,201.9358826 "/>
<polyline id="XMLID_154_" class="st6" points="169.2086182,201.9358826 157.0293884,201.9358826 176.7357788,181.2153625 
	208.6213684,160.4948425 220.8005676,160.4948425 201.0942078,181.2153625 169.2086182,201.9358826 "/>
<polygon id="XMLID_153_" class="st4" points="137.3230286,181.2153625 137.3230286,201.9358826 169.2086182,201.9358826 
	201.0942078,181.2153625 201.0942078,160.4948425 169.2086182,160.4948425 "/>
<polyline id="XMLID_152_" class="st6" points="137.3230286,201.9358826 169.2086182,201.9358826 201.0942078,181.2153625 
	201.0942078,160.4948425 169.2086182,160.4948425 137.3230286,181.2153625 137.3230286,201.9358826 "/>
<polygon id="XMLID_151_" class="st4" points="53.8454552,126.9683838 73.5518341,160.4948425 105.4374084,160.4948425 
	117.6166382,126.9683838 97.9102478,93.441864 66.0246735,93.441864 "/>
<polyline id="XMLID_150_" class="st6" points="73.5518341,160.4948425 105.4374084,160.4948425 117.6166382,126.9683838 
	97.9102478,93.441864 66.0246735,93.441864 53.8454552,126.9683838 73.5518341,160.4948425 "/>
<polyline id="XMLID_148_" class="st6" points="66.0246735,160.4948425 53.8454552,160.4948425 41.6662407,126.9683838 
	41.6662407,93.441864 53.8454552,93.441864 66.0246735,126.9683838 66.0246735,160.4948425 "/>
<polyline id="XMLID_146_" class="st6" points="157.0293884,160.4948425 117.6166382,160.4948425 97.9102478,126.9683838 
	117.6166382,93.441864 157.0293884,93.441864 176.7357788,126.9683838 157.0293884,160.4948425 "/>
<polyline id="XMLID_144_" class="st6" points="220.8005676,160.4948425 208.6213684,160.4948425 208.6213684,126.9683838 
	220.8005676,93.441864 232.9797974,93.441864 232.9797974,126.9683838 220.8005676,160.4948425 "/>
<polygon id="XMLID_143_" class="st4" points="157.0293884,126.9683838 169.2086182,160.4948425 201.0942078,160.4948425 
	220.8005676,126.9683838 208.6213684,93.441864 176.7357788,93.441864 "/>
<polyline id="XMLID_142_" class="st6" points="169.2086182,160.4948425 201.0942078,160.4948425 220.8005676,126.9683838 
	208.6213684,93.441864 176.7357788,93.441864 157.0293884,126.9683838 169.2086182,160.4948425 "/>
<polygon id="XMLID_141_" class="st4" points="41.6662407,93.441864 41.6662407,126.9683838 53.8454552,126.9683838 
	66.0246735,93.441864 66.0246735,59.9153748 53.8454552,59.9153748 "/>
<polyline id="XMLID_140_" class="st6" points="41.6662407,126.9683838 53.8454552,126.9683838 66.0246735,93.441864 
	66.0246735,59.9153748 53.8454552,59.9153748 41.6662407,93.441864 41.6662407,126.9683838 "/>
<polyline id="XMLID_138_" class="st6" points="97.9102478,126.9683838 66.0246735,126.9683838 53.8454552,93.441864 
	73.5518341,59.9153748 105.4374084,59.9153748 117.6166382,93.441864 97.9102478,126.9683838 "/>
<polyline id="XMLID_136_" class="st6" points="208.6213684,126.9683838 176.7357788,126.9683838 157.0293884,93.441864 
	169.2086182,59.9153748 201.0942078,59.9153748 220.8005676,93.441864 208.6213684,126.9683838 "/>
<polygon id="XMLID_135_" class="st4" points="208.6213684,93.441864 220.8005676,126.9683838 232.9797974,126.9683838 
	232.9797974,93.441864 220.8005676,59.9153748 208.6213684,59.9153748 "/>
<polyline id="XMLID_134_" class="st6" points="220.8005676,126.9683838 232.9797974,126.9683838 232.9797974,93.441864 
	220.8005676,59.9153748 208.6213684,59.9153748 208.6213684,93.441864 220.8005676,126.9683838 "/>
<polygon id="XMLID_58_" class="st4" points="97.9102478,93.441864 117.6166382,126.9683838 157.0293884,126.9683838 
	176.7357788,93.441864 157.0293884,59.9153748 117.6166382,59.9153748 "/>
<polyline id="XMLID_57_" class="st6" points="117.6166382,126.9683838 157.0293884,126.9683838 176.7357788,93.441864 
	157.0293884,59.9153748 117.6166382,59.9153748 97.9102478,93.441864 117.6166382,126.9683838 "/>
<polygon id="XMLID_44_" class="st4" points="53.8454552,59.9153748 66.0246735,59.9153748 97.9102478,39.1948547 
	117.6166382,18.4743652 105.4374084,18.4743652 73.5518341,39.1948547 "/>
<polyline id="XMLID_43_" class="st6" points="53.8454552,59.9153748 66.0246735,59.9153748 97.9102478,39.1948547 
	117.6166382,18.4743652 105.4374084,18.4743652 73.5518341,39.1948547 53.8454552,59.9153748 "/>
<polyline id="XMLID_40_" class="st6" points="105.4374084,59.9153748 73.5518341,59.9153748 73.5518341,39.1948547 
	105.4374084,18.4743652 137.3230286,18.4743652 137.3230286,39.1948547 105.4374084,59.9153748 "/>
<polyline id="XMLID_37_" class="st6" points="201.0942078,59.9153748 169.2086182,59.9153748 137.3230286,39.1948547 
	137.3230286,18.4743652 169.2086182,18.4743652 201.0942078,39.1948547 201.0942078,59.9153748 "/>
<polygon id="XMLID_36_" class="st4" points="201.0942078,39.1948547 169.2086182,18.4743652 157.0293884,18.4743652 
	176.7357788,39.1948547 208.6213684,59.9153748 220.8005676,59.9153748 "/>
<polyline id="XMLID_35_" class="st6" points="208.6213684,59.9153748 220.8005676,59.9153748 201.0942078,39.1948547 
	169.2086182,18.4743652 157.0293884,18.4743652 176.7357788,39.1948547 208.6213684,59.9153748 "/>
<polygon id="XMLID_34_" class="st4" points="97.9102478,39.1948547 117.6166382,59.9153748 157.0293884,59.9153748 
	176.7357788,39.1948547 157.0293884,18.4743652 117.6166382,18.4743652 "/>
<polyline id="XMLID_33_" class="st6" points="117.6166382,59.9153748 157.0293884,59.9153748 176.7357788,39.1948547 
	157.0293884,18.4743652 117.6166382,18.4743652 97.9102478,39.1948547 117.6166382,59.9153748 "/>
<polygon id="XMLID_170_" points="53.8454552,59.9153748 41.6662407,93.441864 53.8454552,93.441864 73.5518341,59.9153748 
	73.5518341,39.1948547 "/>
<polygon id="XMLID_168_" points="137.3230286,39.1948547 105.4374084,59.9153748 117.6166382,93.441864 157.0293884,93.441864 
	169.2086182,59.9153748 "/>
<polygon id="XMLID_166_" points="220.8005676,59.9153748 201.0942078,39.1948547 201.0942078,59.9153748 220.8005676,93.441864 
	232.9797974,93.441864 "/>
<polygon id="XMLID_178_" points="66.0246735,126.9683838 66.0246735,160.4948425 97.9102478,181.2153625 117.6166382,160.4948425 
	97.9102478,126.9683838 "/>
<polygon id="XMLID_176_" points="157.0293884,160.4948425 176.7357788,181.2153625 208.6213684,160.4948425 
	208.6213684,126.9683838 176.7357788,126.9683838 "/>
<polygon id="XMLID_147_" class="st7" points="117.6166382,93.441864 97.9102478,126.9683838 117.6166382,160.4948425 
	157.0293884,160.4948425 176.7357788,126.9683838 157.0293884,93.441864 "/>
<polygon id="XMLID_139_" class="st7" points="73.5518341,59.9153748 53.8454552,93.441864 66.0246735,126.9683838 
	97.9102478,126.9683838 117.6166382,93.441864 105.4374084,59.9153748 "/>
<polygon id="XMLID_137_" class="st7" points="201.0942078,59.9153748 169.2086182,59.9153748 157.0293884,93.441864 
	176.7357788,126.9683838 208.6213684,126.9683838 220.8005676,93.441864 "/>
<polygon id="XMLID_38_" class="st7" points="169.2086182,18.4743652 137.3230286,18.4743652 137.3230286,39.1948547 
	169.2086182,59.9153748 201.0942078,59.9153748 201.0942078,39.1948547 "/>
<polygon id="XMLID_42_" class="st7" points="105.4374084,18.4743652 73.5518341,39.1948547 73.5518341,59.9153748 
	105.4374084,59.9153748 137.3230286,39.1948547 137.3230286,18.4743652 "/>
<polygon id="XMLID_149_" class="st7" points="53.8454552,93.441864 41.6662407,93.441864 41.6662407,126.9683838 
	53.8454552,160.4948425 66.0246735,160.4948425 66.0246735,126.9683838 "/>
<polygon id="XMLID_159_" class="st7" points="66.0246735,160.4948425 53.8454552,160.4948425 73.5518341,181.2153625 
	105.4374084,201.9358826 117.6166382,201.9358826 97.9102478,181.2153625 "/>
<polygon id="XMLID_157_" class="st7" points="117.6166382,160.4948425 97.9102478,181.2153625 117.6166382,201.9358826 
	157.0293884,201.9358826 176.7357788,181.2153625 157.0293884,160.4948425 "/>
<polygon id="XMLID_155_" class="st7" points="169.2086182,201.9358826 201.0942078,181.2153625 220.8005676,160.4948425 
	208.6213684,160.4948425 176.7357788,181.2153625 157.0293884,201.9358826 "/>
<polygon id="XMLID_145_" class="st7" points="220.8005676,93.441864 208.6213684,126.9683838 208.6213684,160.4948425 
	220.8005676,160.4948425 232.9797974,126.9683838 232.9797974,93.441864 "/>
<g id="XMLID_316_">
	<path id="XMLID_201_" d="M7.4988608,204.5917969L6.8684897,206.5H6.0584311l2.061523-6.0673828h0.9453125L11.1360674,206.5
		H10.298665l-0.6479492-1.9082031H7.4988608z M9.4886065,203.9794922l-0.5942383-1.7470703
		c-0.1352539-0.3955078-0.2250977-0.7558594-0.3154297-1.1074219H8.5613604
		c-0.090332,0.3603516-0.1894531,0.7294922-0.3061523,1.0986328l-0.5942378,1.7558594H9.4886065z"/>
</g>
<g id="XMLID_325_">
	<path id="XMLID_197_" d="M6.5174155,178.3457031c0.3422852-0.0712891,0.8823242-0.1259766,1.4316406-0.1259766
		c0.7832026,0,1.2871089,0.1357422,1.6655269,0.4414063c0.3149414,0.234375,0.5039063,0.59375,0.5039063,1.0712891
		c0,0.5849609-0.387207,1.0986328-1.0263672,1.3320313v0.0185547c0.5761719,0.1435547,1.2514648,0.6210938,1.2514648,1.5214844
		c0,0.5214844-0.2070313,0.9179688-0.5131836,1.2148438c-0.4228516,0.3876953-1.1074219,0.5673828-2.0976558,0.5673828
		c-0.5400391,0-0.9541016-0.0361328-1.215332-0.0722656V178.3457031z M7.3006186,180.8310547H8.012044
		c0.828125,0,1.3144531-0.4326172,1.3144531-1.0175781c0-0.7109375-0.5400391-0.9902344-1.3325191-0.9902344
		c-0.3598633,0-0.5673828,0.0273438-0.6933594,0.0537109V180.8310547z M7.3006186,183.7382813
		c0.1533203,0.0273438,0.378418,0.0361328,0.6572266,0.0361328c0.8105464,0,1.5576167-0.296875,1.5576167-1.1787109
		c0-0.8291016-0.7114258-1.1708984-1.5664058-1.1708984H7.3006186V183.7382813z"/>
</g>
<g id="XMLID_326_">
	<path id="XMLID_61_" d="M10.7576494,164.4560547c-0.2880859,0.1445313-0.8642578,0.2880859-1.6025391,0.2880859
		c-1.7104487,0-2.9975581-1.0800781-2.9975581-3.0693359c0-1.9003906,1.2871094-3.1875,3.1689448-3.1875
		c0.7558594,0,1.2333984,0.1621094,1.4404297,0.2705078l-0.1889648,0.6386719
		c-0.2973633-0.1435547-0.7202148-0.2519531-1.2246094-0.2519531c-1.4223628,0-2.3676753,0.9091797-2.3676753,2.5029297
		c0,1.4853516,0.8554688,2.4394531,2.3315425,2.4394531c0.4770508,0,0.9633789-0.0986328,1.2783203-0.2519531
		L10.7576494,164.4560547z"/>
</g>
<g id="XMLID_327_">
	<path id="XMLID_53_" d="M6.5174155,124.9824219c0.4770508-0.0722656,1.0444336-0.1269531,1.6655269-0.1269531
		c1.1254883,0,1.9267578,0.2617188,2.4580078,0.7568359c0.5400391,0.4951172,0.8549805,1.1972656,0.8549805,2.1787109
		c0,0.9902344-0.3061523,1.8007813-0.8730469,2.3583984c-0.5673828,0.5673828-1.503418,0.8730469-2.683105,0.8730469
		c-0.5581055,0-1.0263672-0.0263672-1.4223633-0.0712891V124.9824219z M7.3006186,130.3476563
		c0.1982422,0.0361328,0.4863281,0.0449219,0.79248,0.0449219c1.6743164,0,2.5834961-0.9365234,2.5834961-2.5751953
		c0.0092773-1.4306641-0.8012695-2.3398438-2.4575195-2.3398438c-0.405273,0-0.7114253,0.0351563-0.9184566,0.0810547V130.3476563z"
		/>
</g>
<g id="XMLID_328_">
	<path id="XMLID_51_" d="M9.6595049,93.9570313H7.3006186v2.1875h2.6289058v0.6572266H6.5174155v-6.0678711h3.276855v0.6572266
		H7.3006186v1.9174805h2.3588862V93.9570313z"/>
</g>
<g id="XMLID_329_">
	<path id="XMLID_49_" d="M6.5174155,56.6879883h3.2680659v0.6572266H7.3006186v2.0166016h2.295898v0.6484375h-2.295898v2.7456055
		H6.5174155V56.6879883z"/>
</g>
<g id="XMLID_330_">
	<path id="XMLID_47_" d="M11.1360674,42.5014648c-0.3510742,0.1259766-1.0444336,0.3330078-1.8637695,0.3330078
		c-0.918457,0-1.6743159-0.2338867-2.2685542-0.8012695C6.481771,41.5292969,6.1575522,40.71875,6.1575522,39.7734375
		c0.0087891-1.8095703,1.2514648-3.1328125,3.2856441-3.1328125c0.7026367,0,1.2514648,0.1533203,1.5126953,0.2792969
		l-0.1889648,0.6391602c-0.3242188-0.144043-0.7294922-0.2612305-1.3413086-0.2612305
		c-1.476562,0-2.4399409,0.918457-2.4399409,2.4399414c0,1.5390625,0.9272461,2.4487305,2.3408198,2.4487305
		c0.5131836,0,0.8642578-0.0722656,1.0439453-0.1621094v-1.8095703H9.1375322v-0.6303711h1.9985352V42.5014648z"/>
</g>
<g id="XMLID_331_">
	<path id="XMLID_45_" d="M7.3006186,14.2646484v2.5385742h2.9350581v-2.5385742h0.7919922v6.0678711h-0.7919922V17.487793H7.3006186
		v2.8447266H6.5174155v-6.0678711H7.3006186z"/>
</g>
<g id="XMLID_32_">
</g>
<g id="XMLID_56_">
</g>
<g id="XMLID_63_">
</g>
<g id="XMLID_531_">
</g>
<g id="XMLID_532_">
</g>
<g id="XMLID_533_">
</g>
</svg>
