<?xml version="1.0" encoding="utf-8"?>
<!-- Generator: Adobe Illustrator 19.0.0, SVG Export Plug-In . SVG Version: 6.00 Build 0)  -->
<svg version="1.1" id="Layer_1" xmlns="http://www.w3.org/2000/svg" xmlns:xlink="http://www.w3.org/1999/xlink" x="0px" y="0px"
	 viewBox="0 0 234.6666718 104" style="enable-background:new 0 0 234.6666718 104;" xml:space="preserve">
<style type="text/css">
	.st0{fill:none;stroke:#BCBEC0;stroke-miterlimit:10;}
	.st1{fill:none;stroke:#000000;stroke-miterlimit:10;}
	.st2{fill:#BCBEC0;}
	.st3{fill:#010101;}
	.st4{fill:none;stroke:#010101;stroke-width:0.587808;stroke-linecap:square;stroke-miterlimit:10;}
</style>
<line id="XMLID_26_" class="st0" x1="23.0343151" y1="86.4588623" x2="85.1686859" y2="86.4588623"/>
<path id="XMLID_25_" class="st0" d="M80.1499023,86.4588623c0.0091476-2.8694-2.1690292-6.5778427-6.2545166-7.905304"/>
<line id="XMLID_5_" class="st0" x1="8.1111164" y1="40.5299797" x2="27.3116913" y2="99.6232758"/>
<polygon id="XMLID_2_" class="st1" points="23.0343151,86.4588623 8.1111164,40.5299797 47.1805573,12.1443672 86.25,40.5299797 
	71.3267975,86.4588623 "/>
<g id="XMLID_1_">
	<g id="XMLID_16_">
		<g id="XMLID_17_">
			<polygon id="XMLID_19_" points="19.5891113,77.5638351 17.6635284,78.1895065 23.0322266,86.4595566 22.5187531,76.6119308 
				20.5930176,77.2376328 8.6129913,40.3669014 7.6090775,40.6931038 			"/>
		</g>
	</g>
</g>
<g id="XMLID_3_">
	<g id="XMLID_21_">
		<g id="XMLID_22_">
			<polygon id="XMLID_28_" points="61.8025055,86.9867477 61.8025055,89.0114059 71.3267975,86.4610519 61.8025055,83.9063339 
				61.8025055,85.9311447 23.034317,85.9311447 23.034317,86.9867477 			"/>
		</g>
	</g>
</g>
<g id="XMLID_4_">
	<g id="XMLID_30_">
		<g id="XMLID_31_">
			<polygon id="XMLID_32_" points="83.8088684,49.7512398 85.7344513,50.3769112 86.2520905,40.5306587 80.8792114,48.7993507 
				82.8049469,49.4250526 70.8249207,86.2957993 71.8288422,86.6219711 			"/>
		</g>
	</g>
</g>
<path id="XMLID_7_" class="st0" d="M25.7608032,94.8501282c2.7317905-0.8779907,5.5856342-4.0955276,5.5856342-8.3912659"/>
<g id="XMLID_24_">
	<g id="XMLID_202_">
		<g id="XMLID_203_">
			<path id="XMLID_204_" class="st2" d="M84.4819336,79.6350937c-1.2939453-0.9360352-2.1943359-1.9516602-2.7001953-3.0478516
				c-0.3808594-0.8261719-0.46875-1.5512695-0.2666016-2.1743164c0.1962891-0.6064453,0.6181641-0.9399414,1.2626953-1.0029297
				c0.8984375-0.0878906,1.9570313,0.3085938,3.1699219,1.1865234c1.15625,0.8364258,1.9736328,1.7895508,2.4521484,2.8603516
				c0.3691406,0.8330078,0.4541016,1.5600586,0.2529297,2.1801758c-0.109375,0.3359375-0.28125,0.590332-0.515625,0.7631836
				c-0.234375,0.171875-0.5234375,0.2661133-0.8652344,0.2836914c-0.3417969,0.0161133-0.6835938-0.027832-1.0263672-0.1342773
				C85.6567383,80.3645859,85.0688477,80.0598984,84.4819336,79.6350937z M85.3901367,75.5120468
				c-0.8583984-0.6162109-1.5751953-1.0214844-2.1533203-1.2148438c-0.4423828-0.1479492-0.7871094-0.1669922-1.0332031-0.0581055
				c-0.1796875,0.0800781-0.3056641,0.230957-0.3779297,0.4516602c-0.0810547,0.2519531-0.0693359,0.5454102,0.0361328,0.8813477
				c0.1054688,0.3369141,0.3447266,0.7060547,0.7158203,1.1098633c0.3710938,0.402832,1.0039063,0.9511719,1.8984375,1.6435547
				L85.3901367,75.5120468z M84.800293,78.5603867c0.5888672,0.4082031,1.1308594,0.7373047,1.6240234,0.9907227
				c0.375,0.1928711,0.71875,0.3071289,1.03125,0.3417969c0.1875,0.0224609,0.3652344-0.0166016,0.5332031-0.1137695
				c0.1669922-0.097168,0.2841797-0.2475586,0.3496094-0.4506836c0.0771484-0.2363281,0.0517578-0.5317383-0.0761719-0.887207
				c-0.1279297-0.3535156-0.3925781-0.7431641-0.7929688-1.1679688c-0.4023438-0.4257813-0.9873047-0.9301758-1.7587891-1.5146484
				L84.800293,78.5603867z"/>
		</g>
	</g>
</g>
<g id="XMLID_6_">
	<g id="XMLID_35_">
		<g id="XMLID_36_">
			<polygon id="XMLID_37_" points="164.3751831,71.0458069 162.4496002,71.6714783 167.8182983,79.9415283 167.3048248,70.0939026 
				165.3790894,70.7196045 153.3990631,33.8488731 152.3951569,34.1750755 			"/>
		</g>
	</g>
</g>
<g id="XMLID_9_">
	<g id="XMLID_40_">
		<g id="XMLID_42_">
			<polygon id="XMLID_43_" points="180.3024445,43.2332115 182.2280273,43.8588829 182.7456665,34.0126305 177.3727875,42.2813072 
				179.2985229,42.9070396 167.3184967,79.777771 168.3224182,80.1039429 			"/>
		</g>
	</g>
</g>
<g id="XMLID_10_">
	<g id="XMLID_48_">
		<g id="XMLID_49_">
			<polygon id="XMLID_50_" points="173.2192841,34.539814 173.2192841,36.5644875 182.7435913,34.0141487 173.2192841,31.4594021 
				173.2192841,33.4842415 153.096817,33.4842415 153.096817,34.539814 			"/>
		</g>
	</g>
</g>
<path id="XMLID_14_" class="st0" d="M162.5704041,63.7819366c1.6532898-0.5367699,3.4177551-0.82687,5.2499695-0.82687
	c1.8322296,0,3.5966949,0.2901001,5.2499847,0.82687"/>
<g id="XMLID_51_">
	<g id="XMLID_53_">
		<path id="XMLID_149_" class="st3" d="M24.262207,60.3572578l1.0908203-0.5449219h0.109375v3.8759766
			c0,0.2578125,0.0107422,0.4179726,0.03125,0.4814491c0.0214844,0.0625,0.0644531,0.1113281,0.1308594,0.1455078
			c0.0664063,0.0332031,0.2001953,0.0527344,0.4033203,0.0576172v0.125h-1.6855469v-0.125
			c0.2109375-0.0048828,0.3476563-0.0234375,0.4091797-0.0556641c0.0615234-0.0332031,0.1044922-0.0771484,0.1289063-0.1328125
			c0.0244141-0.0546875,0.0361328-0.2207069,0.0361328-0.4960976v-2.4775391c0-0.3339844-0.0107422-0.5488281-0.0322266-0.6435547
			c-0.015625-0.0722656-0.0439453-0.125-0.0849609-0.1591797c-0.0400391-0.0341797-0.0898438-0.0507813-0.1464844-0.0507813
			c-0.0820313,0-0.1953125,0.0351563-0.3408203,0.1044922L24.262207,60.3572578z"/>
	</g>
	<g id="XMLID_52_">
		<path id="XMLID_147_" class="st3" d="M20.5185547,61.5760078l-1.8007813-4.2460938
			c-0.2172852-0.5112305-0.387207-0.8354492-0.5087891-0.972168c-0.0878906-0.1010742-0.2172852-0.1694336-0.3891602-0.2045898
			v-0.2167969h2.8417969v0.2167969c-0.1791992,0-0.3012695,0.0332031-0.3657227,0.0996094
			c-0.0917969,0.0859375-0.137207,0.1870117-0.137207,0.3041992c0,0.1445313,0.0834961,0.4160156,0.2514648,0.8139648
			l0.8803711,2.0556641l0.703125-1.7744141c0.2021484-0.5073242,0.3037109-0.8666992,0.3037109-1.0776367
			c0-0.1210938-0.0429688-0.2197266-0.1289063-0.2954102c-0.0859375-0.0761719-0.237793-0.1181641-0.4550781-0.1259766v-0.2167969
			h1.75v0.2167969c-0.1679688,0.0234375-0.3056641,0.0878906-0.4121094,0.1928711
			c-0.1064453,0.1054688-0.2666016,0.4160156-0.4804688,0.9311523l-1.7832031,4.2988281H20.5185547z"/>
	</g>
</g>
<g id="XMLID_54_">
	<g id="XMLID_56_">
		<path id="XMLID_145_" class="st3" d="M53.5722656,83.1653671l-0.3154297,0.8837891h-2.6601563v-0.125
			c0.7822266-0.7265625,1.3330078-1.3203125,1.6523438-1.78125c0.3193359-0.4599609,0.4785156-0.8808594,0.4785156-1.2626953
			c0-0.2910156-0.0869141-0.5302734-0.2626953-0.7177734c-0.1748047-0.1875-0.3837891-0.28125-0.6279297-0.28125
			c-0.2216797,0-0.4208984,0.0664063-0.5966797,0.1982422c-0.1767578,0.1318359-0.3066406,0.3251953-0.390625,0.5810547h-0.1230469
			c0.0546875-0.4179688,0.1972656-0.7382813,0.4267578-0.9619141s0.515625-0.3349609,0.859375-0.3349609
			c0.3662109,0,0.6708984,0.1191406,0.9160156,0.3583984s0.3681641,0.5214844,0.3681641,0.8466797
			c0,0.2324219-0.0537109,0.4648438-0.1601563,0.6972656c-0.1640625,0.3662109-0.4296875,0.7529297-0.7978516,1.1611328
			c-0.5517578,0.6142578-0.8964844,0.984375-1.0341797,1.1103516h1.1767578c0.2402344,0,0.4072266-0.0087891,0.5039063-0.0263672
			c0.0966797-0.0185547,0.1835938-0.0546875,0.2607422-0.1103516c0.078125-0.0556641,0.1455078-0.1337891,0.203125-0.2353516
			H53.5722656z"/>
	</g>
	<g id="XMLID_55_">
		<path id="XMLID_143_" class="st3" d="M46.7348633,81.1272812l-1.8115234-4.2460938
			c-0.2182617-0.5112305-0.3891602-0.8354492-0.5117188-0.972168c-0.0883789-0.1010742-0.21875-0.1694336-0.3911133-0.2045898
			v-0.2167969h2.8583984v0.2167969c-0.1801758,0-0.3027344,0.0332031-0.3681641,0.0996094
			c-0.0917969,0.0859375-0.1381836,0.1870117-0.1381836,0.3041992c0,0.1445313,0.0844727,0.4160156,0.253418,0.8139648
			l0.8857422,2.0556641l0.7070313-1.7744141c0.2036133-0.5073242,0.3051758-0.8666992,0.3051758-1.0776367
			c0-0.1210938-0.043457-0.2197266-0.1293945-0.2954102c-0.0864258-0.0761719-0.2387695-0.1181641-0.4575195-0.1259766v-0.2167969
			h1.7602539v0.2167969c-0.1689453,0.0234375-0.3066406,0.0878906-0.4140625,0.1928711
			c-0.1074219,0.1054688-0.2685547,0.4160156-0.4833984,0.9311523l-1.7944336,4.2988281H46.7348633z"/>
	</g>
</g>
<g id="XMLID_57_">
	<g id="XMLID_59_">
		<path id="XMLID_141_" class="st3" d="M71.6728516,62.3235664c0.1289063-0.3085938,0.2910156-0.5478516,0.4873047-0.7158203
			s0.4404297-0.2519531,0.7333984-0.2519531c0.3613281,0,0.6376953,0.1191406,0.8310547,0.3583984
			c0.1464844,0.1787109,0.2197266,0.3691406,0.2197266,0.5722656c0,0.3339844-0.2060547,0.6796875-0.6191406,1.0361328
			c0.2773438,0.1103516,0.4873047,0.2685547,0.6289063,0.4736328c0.1416016,0.2060585,0.2128906,0.4472694,0.2128906,0.7246132
			c0,0.3974609-0.1240234,0.7421875-0.3730469,1.0332031c-0.3232422,0.3789063-0.7919922,0.5683594-1.40625,0.5683594
			c-0.3037109,0-0.5097656-0.0380859-0.6201172-0.1152344c-0.109375-0.0761719-0.1640625-0.1591797-0.1640625-0.2470703
			c0-0.0654297,0.0253906-0.1230469,0.078125-0.1728516c0.0517578-0.0488281,0.1142578-0.0742188,0.1875-0.0742188
			c0.0556641,0,0.1123047,0.0087891,0.1699219,0.0273438c0.0371094,0.0107422,0.1230469,0.0527344,0.2558594,0.1230469
			c0.1328125,0.0712891,0.2246094,0.1142578,0.2753906,0.1269531c0.0820313,0.0253906,0.1699219,0.0380859,0.2626953,0.0380859
			c0.2265625,0,0.4228516-0.0898438,0.5908203-0.2675781c0.1669922-0.1787109,0.2509766-0.3896484,0.2509766-0.6337891
			c0-0.1777344-0.0390625-0.3515625-0.1162109-0.5214844c-0.0576172-0.1259766-0.1210938-0.2216797-0.1894531-0.2871094
			c-0.0957031-0.0908203-0.2265625-0.1718788-0.3925781-0.2460976c-0.1660156-0.0732422-0.3359375-0.109375-0.5087891-0.109375
			h-0.1064453v-0.1015625c0.1748047-0.0224609,0.3505859-0.0869141,0.5273438-0.1933594
			c0.1757813-0.1054688,0.3037109-0.2333984,0.3837891-0.3828125c0.0800781-0.1484375,0.1191406-0.3125,0.1191406-0.4902344
			c0-0.2324219-0.0712891-0.4208984-0.2138672-0.5644531c-0.1435547-0.1425781-0.3212891-0.2148438-0.5341797-0.2148438
			c-0.34375,0-0.6298828,0.1875-0.8613281,0.5625L71.6728516,62.3235664z"/>
	</g>
	<g id="XMLID_58_">
		<path id="XMLID_139_" class="st3" d="M67.8227539,63.1194649l-1.8115234-4.2460938
			c-0.2182617-0.5112305-0.3891602-0.8354492-0.5117188-0.972168c-0.0883789-0.1010742-0.21875-0.1694336-0.3911133-0.2045898
			v-0.2167969h2.8583984v0.2167969c-0.1801758,0-0.3027344,0.0332031-0.3681641,0.0996094
			c-0.0917969,0.0859375-0.1381836,0.1870117-0.1381836,0.3041992c0,0.1445313,0.0844727,0.4160156,0.253418,0.8139648
			l0.8857422,2.0556641l0.7070313-1.7744141c0.2036133-0.5073242,0.3051758-0.8666992,0.3051758-1.0776367
			c0-0.1210938-0.043457-0.2197266-0.1293945-0.2954102c-0.0864258-0.0761719-0.2387695-0.1181641-0.4575195-0.1259766v-0.2167969
			h1.7602539v0.2167969c-0.1689453,0.0234375-0.3066406,0.0878906-0.4140625,0.1928711
			c-0.1074219,0.1054688-0.2685547,0.4160156-0.4833984,0.9311523l-1.7944336,4.2988281H67.8227539z"/>
	</g>
</g>
<g id="XMLID_11_">
	<g id="XMLID_61_">
		<path id="XMLID_137_" class="st3" d="M151.762207,52.8357735l1.0908203-0.5449219h0.109375v3.8759766
			c0,0.2578125,0.0107422,0.4179688,0.03125,0.4814453c0.0214844,0.0625,0.0644531,0.1113281,0.1308594,0.1455078
			c0.0664063,0.0332031,0.2001953,0.0527344,0.4033203,0.0576172v0.125h-1.6855469v-0.125
			c0.2109375-0.0048828,0.3476563-0.0234375,0.4091797-0.0556641c0.0615234-0.0332031,0.1044922-0.0771484,0.1289063-0.1328125
			c0.0244141-0.0546875,0.0361328-0.2207031,0.0361328-0.4960938v-2.4775391c0-0.3339844-0.0107422-0.5488281-0.0322266-0.6435547
			c-0.015625-0.0722656-0.0439453-0.125-0.0849609-0.1591797c-0.0400391-0.0341797-0.0898438-0.0507813-0.1464844-0.0507813
			c-0.0820313,0-0.1953125,0.0351563-0.3408203,0.1044922L151.762207,52.8357735z"/>
	</g>
	<g id="XMLID_60_">
		<path id="XMLID_135_" class="st3" d="M148.0185547,54.0545235l-1.8007813-4.2460938
			c-0.2172852-0.5112305-0.387207-0.8354492-0.5087891-0.972168c-0.0878906-0.1010742-0.2172852-0.1694336-0.3891602-0.2045898
			V48.414875h2.8417969v0.2167969c-0.1791992,0-0.3012695,0.0332031-0.3657227,0.0996094
			c-0.0917969,0.0859375-0.137207,0.1870117-0.137207,0.3041992c0,0.1445313,0.0834961,0.4160156,0.2514648,0.8139648
			l0.8803711,2.0556641l0.703125-1.7744141c0.2021484-0.5073242,0.3037109-0.8666992,0.3037109-1.0776367
			c0-0.1210938-0.0429688-0.2197266-0.1289063-0.2954102c-0.0859375-0.0761719-0.237793-0.1181641-0.4550781-0.1259766V48.414875
			h1.75v0.2167969c-0.1679688,0.0234375-0.3056641,0.0878906-0.4121094,0.1928711
			c-0.1064453,0.1054688-0.2666016,0.4160156-0.4804688,0.9311523l-1.7832031,4.2988281H148.0185547z"/>
	</g>
</g>
<g id="XMLID_62_">
	<g id="XMLID_64_">
		<path id="XMLID_133_" class="st3" d="M189.0004883,53.258625c0.1289063-0.3085938,0.2910156-0.5478516,0.4873047-0.7158203
			s0.4404297-0.2519531,0.7333984-0.2519531c0.3613281,0,0.6376953,0.1191406,0.8310547,0.3583984
			c0.1464844,0.1787109,0.2197266,0.3691406,0.2197266,0.5722656c0,0.3339844-0.2060547,0.6796875-0.6191406,1.0361328
			c0.2773438,0.1103516,0.4873047,0.2685547,0.6289063,0.4736328c0.1416016,0.2060547,0.2128906,0.4472656,0.2128906,0.7246094
			c0,0.3974609-0.1240234,0.7421875-0.3730469,1.0332031c-0.3232422,0.3789063-0.7919922,0.5683594-1.40625,0.5683594
			c-0.3037109,0-0.5097656-0.0380859-0.6201172-0.1152344c-0.109375-0.0761719-0.1640625-0.1591797-0.1640625-0.2470703
			c0-0.0654297,0.0253906-0.1230469,0.078125-0.1728516c0.0517578-0.0488281,0.1142578-0.0742188,0.1875-0.0742188
			c0.0556641,0,0.1123047,0.0087891,0.1699219,0.0273438c0.0371094,0.0107422,0.1230469,0.0527344,0.2558594,0.1230469
			c0.1328125,0.0712891,0.2246094,0.1142578,0.2753906,0.1269531c0.0820313,0.0253906,0.1699219,0.0380859,0.2626953,0.0380859
			c0.2265625,0,0.4228516-0.0898438,0.5908203-0.2675781c0.1669922-0.1787109,0.2509766-0.3896484,0.2509766-0.6337891
			c0-0.1777344-0.0390625-0.3515625-0.1162109-0.5214844c-0.0576172-0.1259766-0.1210938-0.2216797-0.1894531-0.2871094
			c-0.0957031-0.0908203-0.2265625-0.171875-0.3925781-0.2460938c-0.1660156-0.0732422-0.3359375-0.109375-0.5087891-0.109375
			h-0.1064453v-0.1015625c0.1748047-0.0224609,0.3505859-0.0869141,0.5273438-0.1933594
			c0.1757813-0.1054688,0.3037109-0.2333984,0.3837891-0.3828125c0.0800781-0.1484375,0.1191406-0.3125,0.1191406-0.4902344
			c0-0.2324219-0.0712891-0.4208984-0.2138672-0.5644531c-0.1435547-0.1425781-0.3212891-0.2148438-0.5341797-0.2148438
			c-0.34375,0-0.6298828,0.1875-0.8613281,0.5625L189.0004883,53.258625z"/>
	</g>
	<g id="XMLID_63_">
		<path id="XMLID_131_" class="st3" d="M185.1503906,54.0545235l-1.8115234-4.2460938
			c-0.2182617-0.5112305-0.3891602-0.8354492-0.5117188-0.972168c-0.0883789-0.1010742-0.21875-0.1694336-0.3911133-0.2045898
			V48.414875h2.8583984v0.2167969c-0.1801758,0-0.3027344,0.0332031-0.3681641,0.0996094
			c-0.0917969,0.0859375-0.1381836,0.1870117-0.1381836,0.3041992c0,0.1445313,0.0844727,0.4160156,0.253418,0.8139648
			l0.8857422,2.0556641l0.7070313-1.7744141c0.2036133-0.5073242,0.3051758-0.8666992,0.3051758-1.0776367
			c0-0.1210938-0.043457-0.2197266-0.1293945-0.2954102c-0.0864258-0.0761719-0.2387695-0.1181641-0.4575195-0.1259766V48.414875
			h1.7602539v0.2167969c-0.1689453,0.0234375-0.3066406,0.0878906-0.4140625,0.1928711
			c-0.1074219,0.1054688-0.2685547,0.4160156-0.4833984,0.9311523l-1.7944336,4.2988281H185.1503906z"/>
	</g>
</g>
<g id="XMLID_66_">
	<line id="XMLID_73_" class="st4" x1="168.5829163" y1="15.3335772" x2="177.745163" y2="15.3335772"/>
	<g id="XMLID_72_">
		<path id="XMLID_129_" class="st3" d="M194.2817383,20.4949551l-0.3203125,0.875h-2.703125v-0.1240234
			c0.7949219-0.7197266,1.3544922-1.3076172,1.6787109-1.7636719c0.3251953-0.4560547,0.4873047-0.8730469,0.4873047-1.2509766
			c0-0.2890625-0.0898438-0.5253906-0.2675781-0.7109375s-0.390625-0.2783203-0.6386719-0.2783203
			c-0.2246094,0-0.4267578,0.0654297-0.6054688,0.1962891c-0.1796875,0.1308594-0.3115234,0.3222656-0.3974609,0.5751953h-0.125
			c0.0566406-0.4140625,0.2011719-0.7314453,0.4345703-0.953125c0.2324219-0.2207031,0.5234375-0.3320313,0.8730469-0.3320313
			c0.3710938,0,0.6816406,0.1191406,0.9306641,0.3554688c0.2490234,0.2373047,0.3730469,0.5166016,0.3730469,0.8388672
			c0,0.2304688-0.0537109,0.4599609-0.1621094,0.6904297c-0.1669922,0.3623047-0.4365234,0.7460938-0.8105469,1.1503906
			c-0.5605469,0.6083984-0.9111328,0.9746094-1.0507813,1.0996094h1.1962891c0.2431641,0,0.4130859-0.0087891,0.5117188-0.0263672
			c0.0976563-0.0175781,0.1855469-0.0537109,0.2646484-0.109375c0.0791016-0.0546875,0.1474609-0.1318359,0.2060547-0.2324219
			H194.2817383z"/>
	</g>
	<g id="XMLID_71_">
		<path id="XMLID_120_" class="st3" d="M150.6982422,16.8015957l-0.5551758,1.5136719H145.46875v-0.2148438
			c1.375-1.2451172,2.3427734-2.2617197,2.9038086-3.0507822s0.8413086-1.5102539,0.8413086-2.1640625
			c0-0.4985352-0.1538086-0.9086914-0.4614258-1.2294922s-0.6757813-0.4814453-1.1044922-0.4814453
			c-0.3896484,0-0.7392578,0.112793-1.0488281,0.3393555c-0.3095703,0.2260742-0.5385742,0.5576172-0.6865234,0.9946289h-0.2163086
			c0.0976563-0.715332,0.3476563-1.2646484,0.7509766-1.6474609s0.9067383-0.5742188,1.5102539-0.5742188
			c0.6430664,0,1.1796875,0.2050781,1.6098633,0.6147461c0.4306641,0.4101563,0.6459961,0.8935547,0.6459961,1.4501953
			c0,0.3984375-0.09375,0.796875-0.2807617,1.1953125c-0.2880859,0.6264648-0.7558594,1.2895508-1.4023438,1.9897461
			c-0.9697266,1.0517588-1.5756836,1.6855478-1.8168945,1.9023447h2.0683594c0.4204102,0,0.7158203-0.015625,0.8852539-0.0458984
			c0.1694336-0.03125,0.3222656-0.09375,0.4584961-0.1894531c0.1362305-0.09375,0.2553711-0.2285156,0.3564453-0.4023438
			H150.6982422z"/>
		<path id="XMLID_122_" class="st3" d="M156.140625,12.8450518v1.8100586h-0.1928711
			c-0.1479492-0.5683594-0.3378906-0.9550781-0.5693359-1.1601563c-0.2319336-0.2050781-0.5268555-0.3076172-0.8852539-0.3076172
			c-0.2729492,0-0.4931641,0.0717773-0.6606445,0.2148438s-0.2509766,0.3012695-0.2509766,0.4755859
			c0,0.2167969,0.0620117,0.4023438,0.1870117,0.5566406c0.1206055,0.1586914,0.3662109,0.3271484,0.7363281,0.5048828
			l0.8530273,0.4121094c0.7905273,0.3828125,1.1860352,0.8867197,1.1860352,1.5136728
			c0,0.4833984-0.184082,0.8730469-0.5522461,1.1689453s-0.7797852,0.4433594-1.2358398,0.4433594
			c-0.3271484,0-0.7011719-0.0576172-1.121582-0.1738281c-0.1289063-0.0380859-0.2338867-0.0576172-0.315918-0.0576172
			c-0.0893555,0-0.159668,0.0498047-0.2104492,0.1503906h-0.1923828v-1.8964844h0.1923828
			c0.109375,0.5410156,0.3178711,0.9492188,0.6254883,1.2236328s0.6523438,0.4121094,1.0341797,0.4121094
			c0.269043,0,0.487793-0.078125,0.6572266-0.2353516c0.1694336-0.15625,0.2543945-0.3447266,0.2543945-0.5654297
			c0-0.2666016-0.0947266-0.4912109-0.2832031-0.6728516c-0.1894531-0.1816406-0.565918-0.4121094-1.1308594-0.6904306
			c-0.5649414-0.2783203-0.9350586-0.5292969-1.1103516-0.7539063c-0.175293-0.2207031-0.2626953-0.4990234-0.2626953-0.8354492
			c0-0.4365234,0.1508789-0.8022461,0.4526367-1.0961914s0.6923828-0.440918,1.171875-0.440918
			c0.2099609,0,0.465332,0.0444336,0.7651367,0.1333008c0.1987305,0.0581055,0.3310547,0.0874023,0.3974609,0.0874023
			c0.0620117,0,0.1108398-0.0136719,0.1459961-0.0405273c0.0351563-0.0273438,0.0761719-0.0874023,0.1225586-0.1801758H156.140625z"
			/>
		<path id="XMLID_124_" class="st3" d="M159.1972656,12.8450518v4.2690439c0,0.3330078,0.0244141,0.5546875,0.0732422,0.6650391
			c0.0488281,0.109375,0.1206055,0.1923828,0.2163086,0.2460938c0.0952148,0.0546875,0.2695313,0.0810547,0.5229492,0.0810547
			v0.2089844h-2.6000977v-0.2089844c0.2607422,0,0.4360352-0.0253906,0.5258789-0.0751953
			c0.0893555-0.0498047,0.1606445-0.1337891,0.2128906-0.2490234c0.0527344-0.1162109,0.0791016-0.3388672,0.0791016-0.6679688
			v-2.046876c0-0.5766602-0.0175781-0.949707-0.0527344-1.1201172c-0.0273438-0.1235352-0.0698242-0.2094727-0.128418-0.2578125
			s-0.1381836-0.0727539-0.2397461-0.0727539c-0.1088867,0-0.2412109,0.0292969-0.3969727,0.0869141l-0.0820313-0.2084961
			l1.612793-0.6499023H159.1972656z M158.7124023,10.0667315c0.1635742,0,0.3027344,0.0571289,0.4179688,0.1708984
			c0.1147461,0.1142578,0.1723633,0.2524414,0.1723633,0.4150391c0,0.1621094-0.0576172,0.3012695-0.1723633,0.4174805
			c-0.1152344,0.1162109-0.2543945,0.1738281-0.4179688,0.1738281s-0.3037109-0.0576172-0.4204102-0.1738281
			c-0.1171875-0.1162109-0.175293-0.2553711-0.175293-0.4174805c0-0.1625977,0.0571289-0.3007813,0.1723633-0.4150391
			C158.4038086,10.1238604,158.5449219,10.0667315,158.7124023,10.0667315z"/>
		<path id="XMLID_127_" class="st3" d="M162.2714844,13.97054c0.6269531-0.75,1.2250977-1.1254883,1.7939453-1.1254883
			c0.2919922,0,0.543457,0.0727539,0.7539063,0.2177734c0.2099609,0.1450195,0.3774414,0.3837891,0.5024414,0.7163086
			c0.0854492,0.2319336,0.128418,0.5878906,0.128418,1.0673828v2.2675791c0,0.3369141,0.0273438,0.5654297,0.0820313,0.6845703
			c0.0424805,0.0966797,0.1118164,0.1728516,0.2070313,0.2265625c0.0957031,0.0546875,0.2719727,0.0810547,0.5288086,0.0810547
			v0.2089844h-2.6469727v-0.2089844h0.1113281c0.2490234,0,0.4233398-0.0371094,0.5229492-0.1132813
			c0.0991211-0.0751953,0.168457-0.1865234,0.2075195-0.3330078c0.0151367-0.0585938,0.0234375-0.2402344,0.0234375-0.5458984
			V14.93929c0-0.4833984-0.0634766-0.8344727-0.1899414-1.0527344c-0.1269531-0.21875-0.340332-0.328125-0.6401367-0.328125
			c-0.4633789,0-0.925293,0.2514648-1.3847656,0.7543945v2.8012705c0,0.3603516,0.0214844,0.5820313,0.0644531,0.6679688
			c0.0541992,0.1113281,0.1293945,0.1943359,0.2246094,0.2460938c0.0957031,0.0517578,0.2895508,0.078125,0.581543,0.078125
			v0.2089844h-2.6469727v-0.2089844h0.1166992c0.2729492,0,0.4570313-0.0683594,0.5522461-0.2060547
			c0.0957031-0.1367188,0.1435547-0.3994141,0.1435547-0.7861328V15.142415c0-0.6381836-0.0146484-1.0268555-0.0439453-1.1660156
			s-0.0742188-0.2338867-0.1342773-0.2841797c-0.0605469-0.050293-0.1416016-0.0756836-0.2426758-0.0756836
			c-0.109375,0-0.2397461,0.0292969-0.3916016,0.0869141l-0.0874023-0.2084961l1.6123047-0.6499023h0.2514648V13.97054z"/>
	</g>
	<g id="XMLID_70_">
		<path id="XMLID_118_" class="st3" d="M175.847168,26.0750332l-0.5556641,1.5136719h-4.6748047v-0.2148438
			c1.375-1.2451172,2.34375-2.2617188,2.9042969-3.0507813s0.8417969-1.5107422,0.8417969-2.1640625
			c0-0.4990234-0.1542969-0.9082031-0.4619141-1.2294922s-0.6757813-0.4814453-1.1044922-0.4814453
			c-0.3896484,0-0.7392578,0.1132813-1.0488281,0.3388672c-0.3095703,0.2265625-0.5380859,0.5585938-0.6865234,0.9951172h-0.2158203
			c0.0966797-0.7148438,0.3476563-1.2646484,0.7509766-1.6474609c0.4023438-0.3828125,0.90625-0.5742188,1.5097656-0.5742188
			c0.6425781,0,1.1796875,0.2050781,1.6103516,0.6152344c0.4296875,0.4101563,0.6455078,0.8925781,0.6455078,1.4501953
			c0,0.3984375-0.09375,0.796875-0.2802734,1.1943359c-0.2890625,0.6269531-0.7558594,1.2900391-1.4023438,1.9902344
			c-0.9707031,1.0517578-1.5761719,1.6855469-1.8173828,1.9023438h2.0683594c0.4208984,0,0.7158203-0.015625,0.8847656-0.0458984
			c0.1699219-0.03125,0.3222656-0.09375,0.4589844-0.1894531c0.1367188-0.09375,0.2548828-0.2285156,0.3564453-0.4023438H175.847168
			z"/>
	</g>
	<g id="XMLID_69_">
		<path id="XMLID_115_" class="st3" d="M175.6777344,5.547689h0.9697266l-1.6455078,2.639648
			C174.8945313,8.3538408,174.7275391,8.6150713,174.5,8.97054c-0.0527344,0.5961914-0.0615234,0.9516602-0.0253906,1.0673828
			c0.0673828,0.2128906,0.2099609,0.3193359,0.4238281,0.3193359c0.15625,0,0.3212891-0.0639648,0.4960938-0.1918945
			c0.1757813-0.1274414,0.3300781-0.3266602,0.4638672-0.597168h0.234375
			c-0.2412109,0.5566406-0.4892578,0.9418945-0.7412109,1.1547852c-0.2529297,0.2119141-0.4980469,0.3183594-0.7363281,0.3183594
			c-0.2207031,0-0.3916016-0.0927734-0.5107422-0.2788086c-0.1181641-0.1850586-0.1474609-0.5830078-0.0869141-1.1943359
			c-0.2841797,0.3364258-0.5371094,0.5917969-0.7587891,0.765625c-0.3115234,0.2402344-0.6201172,0.418457-0.9287109,0.5361328
			c-0.3085938,0.1186523-0.6337891,0.1777344-0.9765625,0.1777344c-0.8613281,0-1.3984375-0.2851563-1.6123047-0.8535156
			c-0.2148438-0.5683594-0.1992188-1.215332,0.0449219-1.9428711c0.2851563-0.8510737,0.7539063-1.5395503,1.4072266-2.0673823
			c0.6513672-0.5288086,1.2978516-0.7924805,1.9365234-0.7924805c0.4443359,0,0.7910156,0.1342773,1.0390625,0.4033203
			c0.2490234,0.2685547,0.3886719,0.7685547,0.4199219,1.4990234L175.6777344,5.547689z M174.1660156,7.9436851
			c0.0566406-0.7958984-0.0273438-1.3525391-0.2519531-1.6674805c-0.2255859-0.3154297-0.5097656-0.4726563-0.8515625-0.4726563
			c-0.3828125,0-0.7695313,0.2080078-1.1630859,0.6235352c-0.3925781,0.4160156-0.7412109,1.0776367-1.046875,1.9868159
			c-0.1806641,0.5371094-0.2675781,0.9599609-0.2617188,1.2675781c0.0058594,0.3071289,0.0908203,0.5454102,0.2548828,0.7138672
			c0.1630859,0.1674805,0.3671875,0.2514648,0.6132813,0.2514648c0.2998047,0,0.6201172-0.1367188,0.9619141-0.4116211
			C172.8837891,9.8636065,173.4658203,9.0999346,174.1660156,7.9436851z"/>
	</g>
	<g id="XMLID_68_">
		<path id="XMLID_113_" class="st3" d="M181.7485352,15.2762041c0,0.1777344-0.0634766,0.3291016-0.1904297,0.4550781
			c-0.1259766,0.125-0.2773438,0.1884766-0.4521484,0.1884766c-0.1796875,0-0.3320313-0.0634766-0.4589844-0.1884766
			c-0.1269531-0.1259766-0.1894531-0.2773438-0.1894531-0.4550781s0.0625-0.3300781,0.1894531-0.4560547
			c0.1269531-0.1254883,0.2792969-0.1884766,0.4589844-0.1884766c0.1748047,0,0.3261719,0.0629883,0.4521484,0.1884766
			C181.6850586,14.946126,181.7485352,15.0984697,181.7485352,15.2762041z"/>
	</g>
	<g id="XMLID_67_">
		<path id="XMLID_111_" class="st3" d="M187.3461914,18.4773769l-1.8408203-4.2050791
			c-0.2216797-0.5068359-0.3955078-0.8276367-0.5195313-0.9628906c-0.0898438-0.1005859-0.2226563-0.168457-0.3974609-0.203125
			v-0.2148438h2.9033203v0.2148438c-0.1826172,0-0.3076172,0.0327148-0.3730469,0.0986328
			c-0.09375,0.0849609-0.140625,0.1855469-0.140625,0.3017578c0,0.1430664,0.0859375,0.4116211,0.2568359,0.8061523
			l0.9003906,2.0356455l0.71875-1.7573252c0.2060547-0.5024414,0.3095703-0.8583984,0.3095703-1.0673828
			c0-0.1196289-0.0439453-0.2172852-0.1318359-0.2929688c-0.0878906-0.0751953-0.2421875-0.1166992-0.4648438-0.1245117v-0.2148438
			h1.7880859v0.2148438c-0.1708984,0.0229492-0.3115234,0.0869141-0.4199219,0.1914063
			c-0.109375,0.1044922-0.2734375,0.4116211-0.4912109,0.9223633l-1.8232422,4.2573252H187.3461914z"/>
	</g>
</g>
<g id="XMLID_33_">
	<g id="XMLID_302_">
		<g id="XMLID_319_">
			<path id="XMLID_320_" class="st2" d="M222.3779297,66.819664l-0.5527344,1.5859375h-4.6582031v-0.2548828
				c1.6035156-1.5107422,2.6748047-2.7402344,3.2138672-3.6884766c0.3457031-0.607914,0.5185547-1.1889687,0.5185547-1.7441444
				c0-0.5224609-0.1533203-0.9516602-0.4599609-1.2880859c-0.3066406-0.3359375-0.6738281-0.5043945-1.1005859-0.5043945
				c-0.3876953,0-0.7363281,0.1186523-1.0449219,0.3554688c-0.3085938,0.2373047-0.5371094,0.5844727-0.6845703,1.0424805
				h-0.2148438c0.0966797-0.7495117,0.3476563-1.324707,0.7509766-1.7255859
				c0.4033203-0.4013672,0.9042969-0.6015625,1.5019531-0.6015625c0.640625,0,1.1748047,0.2143555,1.6044922,0.644043
				c0.4287109,0.4291992,0.6425781,0.9394531,0.6425781,1.53125c0,0.4130859-0.0966797,0.8344727-0.2910156,1.2636719
				c-0.2871094,0.647953-0.7568359,1.3432655-1.4082031,2.0844765c-0.9511719,1.0849609-1.546875,1.7412109-1.7880859,1.9677734
				h2.0615234c0.5664063,0,0.9550781-0.0478516,1.1669922-0.1455078c0.2119141-0.0966797,0.3876953-0.2714844,0.5273438-0.5224609
				H222.3779297z"/>
		</g>
		<g id="XMLID_309_">
			<path id="XMLID_316_" class="st2" d="M184.9589844,63.164875h0.9667969l-1.6445313,2.6176796
				c-0.1064453,0.1650391-0.2734375,0.4238281-0.5014648,0.7773438c-0.0527344,0.5898438-0.0625,0.9433594-0.027832,1.0576172
				c0.0678711,0.2119141,0.2089844,0.3173828,0.4228516,0.3173828c0.1552734,0,0.3203125-0.0634766,0.4951172-0.1904297
				s0.3295898-0.3232422,0.4624023-0.5927734h0.2333984c-0.2421875,0.5527344-0.4882813,0.9355469-0.7407227,1.1464844
				c-0.2524414,0.2099609-0.4956055,0.3154297-0.7329102,0.3154297c-0.2207031,0-0.390625-0.0917969-0.5087891-0.2763672
				c-0.1186523-0.1835938-0.1464844-0.5791016-0.0849609-1.1855469c-0.2836914,0.3339844-0.5356445,0.5878906-0.7573242,0.7607422
				c-0.3100586,0.2373047-0.6186523,0.4150391-0.925293,0.53125c-0.3085938,0.1171875-0.6328125,0.1757813-0.9746094,0.1757813
				c-0.8574219,0-1.3925781-0.2822266-1.6049805-0.8457031c-0.2133789-0.5634766-0.1967773-1.2060547,0.0483398-1.9277344
				c0.2856445-0.84375,0.7539063-1.527832,1.4052734-2.0512733c0.6508789-0.5234375,1.2944336-0.7851563,1.9311523-0.7851563
				c0.4423828,0,0.7875977,0.1328125,1.0356445,0.3994141c0.2460938,0.2661133,0.3847656,0.7626991,0.4155273,1.4868202
				L184.9589844,63.164875z M183.449707,65.5403671c0.0576172-0.7890625-0.0253906-1.3408203-0.2490234-1.6533241
				c-0.2246094-0.3125-0.5058594-0.4697266-0.8476563-0.4697266c-0.3808594,0-0.7675781,0.2060547-1.1591797,0.6186562
				c-0.3916016,0.4125977-0.7407227,1.0698242-1.0458984,1.9711914c-0.1811523,0.5332031-0.2695313,0.9521484-0.2646484,1.2578125
				c0.0058594,0.3046875,0.0898438,0.5410156,0.2524414,0.7070313c0.1630859,0.1679688,0.3662109,0.2509766,0.6113281,0.2509766
				c0.2988281,0,0.6186523-0.1357422,0.9589844-0.4091797C182.168457,67.4456406,182.7495117,66.6888046,183.449707,65.5403671z"/>
			<path id="XMLID_314_" class="st2" d="M205.7255859,63.164875l-0.2822266,0.8339844h-1.4091797
				c-0.4335938,0.8784218-0.7861328,1.7202187-1.0595703,2.5258827c-0.1347656,0.3955078-0.1611328,0.6787109-0.0791016,0.8486328
				c0.0820313,0.171875,0.2275391,0.2568359,0.4375,0.2568359c0.1669922,0,0.3320313-0.0576172,0.4951172-0.1728516
				s0.2998047-0.2822266,0.4082031-0.5009766h0.2041016c-0.2714844,0.6064453-0.5634766,1.0341797-0.8740234,1.2832031
				c-0.3125,0.25-0.609375,0.3740234-0.8925781,0.3740234c-0.3027344,0-0.5087891-0.1357422-0.6181641-0.4082031
				c-0.1103516-0.2724609-0.0380859-0.7802734,0.2138672-1.5253906c0.1582031-0.4677734,0.5351563-1.3613281,1.1298828-2.6811562
				h-1.5136719c-0.8017578,2.0102577-1.3789063,3.2827187-1.7304688,3.8149452
				c-0.3515625,0.5341797-0.6757813,0.7998047-0.9746094,0.7998047c-0.1396484,0-0.2402344-0.0458984-0.3007813-0.1376953
				c-0.0585938-0.0917969-0.0664063-0.2070313-0.0185547-0.3457031c0.0332031-0.0996094,0.078125-0.1855469,0.1337891-0.2587891
				c0.0761719-0.0996094,0.2158203-0.2392578,0.4160156-0.4199219c0.3417969-0.3105469,0.6171875-0.6367188,0.8271484-0.9785156
				c0.3632813-0.5830078,0.7529297-1.4072266,1.1640625-2.4741249h-0.2675781c-0.2832031,0-0.5107422,0.0463905-0.6816406,0.1376991
				c-0.2714844,0.1391602-0.5556641,0.3681641-0.8515625,0.690918H199.375
				c0.4423828-0.6640625,0.8525391-1.1215858,1.2285156-1.3750038c0.2861328-0.1923828,0.6289063-0.2875977,1.0292969-0.2875977
				H205.7255859z"/>
			<path id="XMLID_310_" class="st2" d="M223.4736328,64.6663437c0.5126953-1.5117226,1.2177734-2.6762733,2.1162109-3.4926796
				c0.6767578-0.6142578,1.3447266-0.9213867,1.9990234-0.9213867c0.6367188,0,1.0810547,0.2958984,1.3300781,0.887207
				c0.3496094,0.8237305,0.2841797,1.9467773-0.1972656,3.3652382c-0.4580078,1.3510742-1.1279297,2.4174805-2.0107422,3.199707
				c-0.6865234,0.6064453-1.3554688,0.9091797-2.0078125,0.9091797c-0.3535156,0-0.6474609-0.0839844-0.8808594-0.2529297
				c-0.234375-0.1679688-0.4091797-0.4121094-0.5273438-0.7304688c-0.1162109-0.3183594-0.1748047-0.65625-0.1738281-1.0126953
				C223.1230469,66.0032578,223.2412109,65.3528671,223.4736328,64.6663437z M224.5947266,64.6370468
				c-0.2158203,0.6835938-0.3710938,1.2978516-0.4667969,1.8427734c-0.0742188,0.4140625-0.0820313,0.7734375-0.0234375,1.0810547
				c0.0351563,0.1835938,0.1240234,0.3398438,0.2666016,0.46875s0.3212891,0.1933594,0.5341797,0.1933594
				c0.2480469,0,0.5234375-0.1162109,0.8242188-0.3457031s0.5957031-0.6005859,0.8828125-1.1103516
				c0.2880859-0.5107422,0.5976563-1.2197266,0.9287109-2.1298828H224.5947266z M227.6816406,64.2581406
				c0.3359375-1.0019569,0.5117188-1.8056679,0.5263672-2.4111366c0.0097656-0.4643555-0.0742188-0.7963867-0.25-0.9960938
				c-0.1298828-0.1455078-0.3105469-0.2182617-0.5429688-0.2182617c-0.265625,0-0.5419922,0.1015625-0.8320313,0.3051758
				c-0.2900391,0.203125-0.5732422,0.5429688-0.8486328,1.0180664c-0.2753906,0.4755859-0.6123047,1.2431641-1.0107422,2.3022499
				H227.6816406z"/>
		</g>
		<g id="XMLID_303_">
			<path id="XMLID_306_" class="st2" d="M189.5791016,63.7937813h6.1132813v0.5893593h-6.1132813V63.7937813z
				 M189.5791016,66.0598984h6.1132813v0.6015625h-6.1132813V66.0598984z"/>
			<path id="XMLID_304_" class="st2" d="M208.3935547,64.9056015h6.1132813v0.6015625h-6.1132813V64.9056015z"/>
		</g>
	</g>
</g>
<g id="XMLID_12_">
	<g id="XMLID_41_">
		<path id="XMLID_83_" class="st2" d="M56.6835938,96.9441757l-0.5556641,1.5029297h-4.6796875v-0.2128906
			c1.3759766-1.2363281,2.3457031-2.2460938,2.9072266-3.0292969c0.5615234-0.7827148,0.8427734-1.4985352,0.8427734-2.1469727
			c0-0.4956055-0.1542969-0.9023438-0.4628906-1.2207031c-0.3076172-0.3188477-0.6767578-0.4780273-1.1054688-0.4780273
			c-0.3896484,0-0.7402344,0.1123047-1.0498047,0.3369141c-0.3105469,0.2246094-0.5390625,0.5537109-0.6875,0.9873047h-0.2167969
			c0.0976563-0.7099609,0.3486328-1.2553711,0.7519531-1.6352539s0.9082031-0.5698242,1.5126953-0.5698242
			c0.6435547,0,1.1806641,0.203125,1.6113281,0.6103516c0.4306641,0.4067383,0.6464844,0.8867188,0.6464844,1.4394531
			c0,0.3950195-0.09375,0.7905273-0.28125,1.1860352c-0.2880859,0.621582-0.7558594,1.2797852-1.4033203,1.9750977
			c-0.9716797,1.0439453-1.578125,1.6738281-1.8193359,1.8886719h2.0703125c0.421875,0,0.7167969-0.015625,0.8867188-0.0458984
			c0.1689453-0.03125,0.3222656-0.09375,0.4589844-0.1875s0.2548828-0.2275391,0.3564453-0.4003906H56.6835938z"/>
		<path id="XMLID_86_" class="st2" d="M70.4580078,90.2596054l-2.8720703,8.3486328h-0.4677734l2.8720703-8.3486328H70.4580078z"/>
	</g>
	<g id="XMLID_23_">
		<path id="XMLID_81_" class="st2" d="M76.8974609,90.6394882l2.4511719,6.1201172l1.328125-4.5712891
			c0.109375-0.3759766,0.1640625-0.6679688,0.1640625-0.875c0-0.1420898-0.0507813-0.253418-0.1523438-0.3339844
			s-0.2910156-0.1210938-0.5673828-0.1210938c-0.046875,0-0.0957031-0.0019531-0.1464844-0.0058594l0.0644531-0.2128906h2.5507813
			l-0.0703125,0.2128906c-0.265625-0.0039063-0.4619141,0.0229492-0.5908203,0.0805664
			c-0.1835938,0.0805664-0.3203125,0.1845703-0.4101563,0.3110352c-0.1240234,0.1806641-0.2509766,0.4951172-0.3798828,0.9443359
			l-1.8662109,6.4375H79.0625l-2.6386719-6.5874023l-1.4101563,4.8657227
			c-0.1044922,0.3681641-0.1572266,0.6503906-0.1572266,0.8466797c0,0.1455078,0.0478516,0.2558594,0.1425781,0.3310547
			c0.0957031,0.0742188,0.3232422,0.125,0.6816406,0.1523438l-0.0585938,0.2128906h-2.4912109l0.0810547-0.2128906
			c0.3125-0.0078125,0.5214844-0.0351563,0.6259766-0.0810547c0.1601563-0.0683594,0.2792969-0.1591797,0.3574219-0.2705078
			c0.1132813-0.1689453,0.2392578-0.4951172,0.3798828-0.9785156l1.5732422-5.4296875
			c-0.1513672-0.2304688-0.3144531-0.3886719-0.4882813-0.4750977c-0.1728516-0.0864258-0.4433594-0.1352539-0.8095703-0.1469727
			l0.0644531-0.2128906H76.8974609z"/>
	</g>
	<g id="XMLID_18_">
		<path id="XMLID_75_" class="st2" d="M33.1352539,94.6585312c0.5126953-1.5117188,1.2197266-2.6772461,2.1201172-3.4951172
			c0.6796875-0.6142578,1.3496094-0.9213867,2.0087891-0.9213867c0.6396484,0,1.0849609,0.2963867,1.3369141,0.887207
			c0.3525391,0.8251953,0.2880859,1.9482422-0.1933594,3.3676758c-0.4570313,1.3510742-1.128418,2.418457-2.0136719,3.2016602
			c-0.6884766,0.6064453-1.3608398,0.9101563-2.0161133,0.9101563c-0.3554688,0-0.6499023-0.0839844-0.8857422-0.2539063
			c-0.2348633-0.1679688-0.4121094-0.4121094-0.5297852-0.7304688c-0.1186523-0.3193359-0.1782227-0.65625-0.1772461-1.0136719
			C32.7861328,95.9964218,32.902832,95.3460312,33.1352539,94.6585312z M34.262207,94.6302109
			c-0.215332,0.6826172-0.3706055,1.296875-0.4658203,1.8427734c-0.0737305,0.4140625-0.0805664,0.7753906-0.0214844,1.0820313
			c0.0351563,0.1835938,0.125,0.3408203,0.2685547,0.46875c0.1435547,0.1289063,0.3222656,0.1933594,0.5371094,0.1933594
			c0.2490234,0,0.5253906-0.1152344,0.8271484-0.3457031c0.3027344-0.2304688,0.5981445-0.6005859,0.8862305-1.1113281
			c0.2871094-0.5097656,0.597168-1.2207031,0.9282227-2.1298828H34.262207z M37.362793,94.2503281
			c0.3354492-1.0019531,0.5102539-1.8066406,0.5253906-2.4135742c0.0087891-0.4643555-0.0761719-0.7963867-0.2539063-0.9960938
			c-0.1298828-0.1450195-0.3125-0.2182617-0.5458984-0.2182617c-0.265625,0-0.5429688,0.1015625-0.8349609,0.3051758
			c-0.2915039,0.2036133-0.5742188,0.5429688-0.8505859,1.0195313c-0.2763672,0.4750977-0.6137695,1.2431641-1.0117188,2.3032227
			H37.362793z"/>
		<path id="XMLID_79_" class="st2" d="M64.5268555,93.1560898l-0.2822266,0.8349609h-1.4160156
			c-0.4345703,0.878418-0.7880859,1.7211914-1.0615234,2.5268555c-0.1337891,0.3964844-0.1591797,0.6787109-0.0761719,0.8496094
			s0.2294922,0.2568359,0.4394531,0.2568359c0.1679688,0,0.3339844-0.0585938,0.4970703-0.1728516
			c0.1640625-0.1162109,0.3007813-0.2822266,0.4101563-0.5009766h0.2050781
			c-0.2724609,0.6064453-0.5644531,1.0341797-0.8779297,1.2832031c-0.3115234,0.25-0.6113281,0.375-0.8945313,0.375
			c-0.3046875,0-0.5117188-0.1357422-0.6230469-0.4091797c-0.1103516-0.2724609-0.0390625-0.7802734,0.2128906-1.5263672
			c0.1591797-0.4677734,0.5351563-1.3623047,1.1308594-2.6821289h-1.5205078
			c-0.8017578,2.0112305-1.3798828,3.2836914-1.7324219,3.8168945c-0.3515625,0.5341797-0.6787109,0.8007813-0.9775391,0.8007813
			c-0.140625,0-0.2421875-0.046875-0.3027344-0.1376953c-0.0600586-0.0927734-0.0668945-0.2080078-0.0205078-0.3466797
			c0.0341797-0.0996094,0.0791016-0.1855469,0.1347656-0.2587891c0.0771484-0.0996094,0.2158203-0.2392578,0.4179688-0.4199219
			c0.3427734-0.3115234,0.6191406-0.6367188,0.8291016-0.9794922c0.3652344-0.5830078,0.7539063-1.4082031,1.1660156-2.4750977
			h-0.2695313c-0.2851563,0-0.5126953,0.0454102-0.6845703,0.1376953c-0.2734375,0.1381836-0.5576172,0.3681641-0.8544922,0.690918
			h-0.2285156c0.4443359-0.6640625,0.8554688-1.1225586,1.2333984-1.3759766
			c0.2871094-0.1914063,0.6318359-0.2875977,1.0341797-0.2875977H64.5268555z"/>
	</g>
	<g id="XMLID_13_">
		<path id="XMLID_44_" class="st2" d="M42.0478516,94.0769882h6.1425781v0.5585938h-6.1425781V94.0769882z M42.0478516,96.2244492
			h6.1425781v0.5703125h-6.1425781V96.2244492z"/>
	</g>
</g>
<g id="XMLID_8_">
</g>
<g id="XMLID_155_">
</g>
<g id="XMLID_156_">
</g>
<g id="XMLID_157_">
</g>
<g id="XMLID_158_">
</g>
<g id="XMLID_159_">
</g>
</svg>
