<?xml version="1.0" encoding="utf-8"?>
<!-- Generator: Adobe Illustrator 19.0.0, SVG Export Plug-In . SVG Version: 6.00 Build 0)  -->
<svg version="1.1" id="Layer_1" xmlns="http://www.w3.org/2000/svg" xmlns:xlink="http://www.w3.org/1999/xlink" x="0px" y="0px"
	 viewBox="0 0 197 198.5" style="enable-background:new 0 0 197 198.5;" xml:space="preserve">
<style type="text/css">
	.st0{fill:none;stroke:#000000;stroke-width:0.5000002;stroke-linecap:square;stroke-miterlimit:10;}
	.st1{opacity:0.8509804;fill:#FFFFFF;stroke:#000000;stroke-miterlimit:10;}
	.st2{opacity:0.8509804;fill:#FFFFFF;}
</style>
<polyline id="XMLID_1_" class="st0" points="24.8231506,49.0115662 31.1929169,32.2400513 18.2682648,56.2310791 
	3.9106445,87.829895 7.9617767,83.3680115 24.8231506,49.0115662 "/>
<polyline id="XMLID_2_" class="st0" points="50.7722168,45.1278992 83.091095,24.4726563 112.1529541,42.1797485 
	97.7953186,73.7785645 59.8599548,75.6006165 50.7722168,45.1278992 "/>
<polygon id="XMLID_3_" points="89.4608459,7.7011108 63.5117493,11.5848083 82.9059753,14.9206238 120.8413391,13.0985718 
	124.8924561,8.6366577 "/>
<polyline id="XMLID_4_" class="st0" points="63.5117493,11.5848083 82.9059753,14.9206238 120.8413391,13.0985718 
	124.8924561,8.6366577 89.4608459,7.7011108 63.5117493,11.5848083 "/>
<polygon id="XMLID_5_" points="69.9813232,38.9116516 37.6624756,59.5668945 42.6990356,94.5015259 78.1306763,95.4370728 
	94.9920654,61.080658 "/>
<polyline id="XMLID_6_" class="st0" points="37.6624756,59.5668945 42.6990356,94.5015259 78.1306763,95.4370728 
	94.9920654,61.080658 69.9813232,38.9116516 37.6624756,59.5668945 "/>
<polygon id="XMLID_7_" points="28.3414154,126.1003418 8.9472198,122.7645264 18.0349274,153.2372742 43.0456238,175.40625 
	49.4154053,158.6347046 "/>
<polyline id="XMLID_8_" class="st0" points="8.9472198,122.7645264 18.0349274,153.2372742 43.0456238,175.40625 
	49.4154053,158.6347046 28.3414154,126.1003418 8.9472198,122.7645264 "/>
<polyline id="XMLID_9_" class="st0" points="17.0494995,113.8407593 42.9985657,109.9570313 64.0725708,142.4914246 
	51.1479187,166.4824829 22.0860596,148.7753906 17.0494995,113.8407593 "/>
<polyline id="XMLID_10_" class="st0" points="188.0527649,78.9854736 178.9650574,48.5127563 153.9543152,26.34375 
	147.5845642,43.1152954 168.6585693,75.6496887 188.0527649,78.9854736 "/>
<polygon id="XMLID_11_" points="174.9139404,52.9746704 145.8520508,35.2675476 132.9273987,59.258606 154.0014038,91.7929688 
	179.9505005,87.9092712 "/>
<polyline id="XMLID_12_" class="st0" points="179.9505005,87.9092712 154.0014038,91.7929688 132.9273987,59.258606 
	145.8520508,35.2675476 174.9139404,52.9746704 179.9505005,87.9092712 "/>
<polygon id="XMLID_13_" points="146.2277222,156.6221313 137.1400146,126.1494141 99.2046814,127.9714661 84.8470154,159.570282 
	113.9088745,177.2773743 "/>
<polyline id="XMLID_14_" class="st0" points="146.2277222,156.6221313 113.9088745,177.2773743 84.8470154,159.570282 
	99.2046814,127.9714661 137.1400146,126.1494141 146.2277222,156.6221313 "/>
<polyline id="XMLID_15_" class="st0" points="133.4882202,190.1652222 114.0939941,186.8294067 76.1586609,188.6514587 
	72.1074829,193.1133728 107.5391235,194.0489197 133.4882202,190.1652222 "/>
<polyline id="XMLID_16_" class="st0" points="159.3375244,142.183136 154.3009338,107.2485046 118.8692932,106.3129578 
	102.0079346,140.6693726 127.0186768,162.8383789 159.3375244,142.183136 "/>
<polygon id="XMLID_17_" points="193.0893555,113.9201355 189.038208,118.382019 172.1768188,152.7384338 165.8070679,169.5099792 
	178.73172,145.5189514 "/>
<polyline id="XMLID_18_" class="st0" points="193.0893555,113.9201355 189.038208,118.382019 172.1768188,152.7384338 
	165.8070679,169.5099792 178.73172,145.5189514 193.0893555,113.9201355 "/>
<polyline id="XMLID_19_" class="st0" points="31.1929169,32.2400513 24.8231506,49.0115662 50.7722168,45.1278992 
	83.091095,24.4726563 89.4608459,7.7011108 63.5117493,11.5848083 31.1929169,32.2400513 "/>
<polyline id="XMLID_20_" class="st0" points="18.2682648,56.2310791 31.1929169,32.2400513 63.5117493,11.5848083 
	82.9059753,14.9206238 69.9813232,38.9116516 37.6624756,59.5668945 18.2682648,56.2310791 "/>
<polyline id="XMLID_21_" class="st0" points="3.9106445,87.829895 18.2682648,56.2310791 37.6624756,59.5668945 
	42.6990356,94.5015259 28.3414154,126.1003418 8.9472198,122.7645264 3.9106445,87.829895 "/>
<polyline id="XMLID_22_" class="st0" points="7.9617767,83.3680115 3.9106445,87.829895 8.9472198,122.7645264 
	18.0349274,153.2372742 22.0860596,148.7753906 17.0494995,113.8407593 7.9617767,83.3680115 "/>
<polyline id="XMLID_23_" class="st0" points="24.8231506,49.0115662 7.9617767,83.3680115 17.0494995,113.8407593 
	42.9985657,109.9570313 59.8599548,75.6006165 50.7722168,45.1278992 24.8231506,49.0115662 "/>
<polyline id="XMLID_24_" class="st0" points="89.4608459,7.7011108 83.091095,24.4726563 112.1529541,42.1797485 
	147.5845642,43.1152954 153.9543152,26.34375 124.8924561,8.6366577 89.4608459,7.7011108 "/>
<polygon id="XMLID_25_" class="st1" points="132.9273987,59.258606 145.8520508,35.2675476 120.8413391,13.0985718 
	82.9059753,14.9206238 69.9813232,38.9116516 94.9920654,61.080658 "/>
<polyline id="XMLID_26_" class="st0" points="69.9813232,38.9116516 82.9059753,14.9206238 120.8413391,13.0985718 
	145.8520508,35.2675476 132.9273987,59.258606 94.9920654,61.080658 69.9813232,38.9116516 "/>
<polygon id="XMLID_27_" class="st1" points="78.1306763,95.4370728 42.6990356,94.5015259 28.3414154,126.1003418 
	49.4154053,158.6347046 84.8470154,159.570282 99.2046814,127.9714661 "/>
<polyline id="XMLID_28_" class="st0" points="28.3414154,126.1003418 42.6990356,94.5015259 78.1306763,95.4370728 
	99.2046814,127.9714661 84.8470154,159.570282 49.4154053,158.6347046 28.3414154,126.1003418 "/>
<polyline id="XMLID_29_" class="st0" points="22.0860596,148.7753906 18.0349274,153.2372742 43.0456238,175.40625 
	72.1074829,193.1133728 76.1586609,188.6514587 51.1479187,166.4824829 22.0860596,148.7753906 "/>
<polyline id="XMLID_30_" class="st0" points="59.8599548,75.6006165 42.9985657,109.9570313 64.0725708,142.4914246 
	102.0079346,140.6693726 118.8692932,106.3129578 97.7953186,73.7785645 59.8599548,75.6006165 "/>
<polygon id="XMLID_31_" class="st2" points="153.9543152,26.34375 124.8924561,8.6366577 120.8413391,13.0985718 
	145.8520508,35.2675476 174.9139404,52.9746704 178.9650574,48.5127563 "/>
<polyline id="XMLID_32_" class="st0" points="120.8413391,13.0985718 124.8924561,8.6366577 153.9543152,26.34375 
	178.9650574,48.5127563 174.9139404,52.9746704 145.8520508,35.2675476 120.8413391,13.0985718 "/>
<polygon id="XMLID_33_" class="st2" points="154.0014038,91.7929688 132.9273987,59.258606 94.9920654,61.080658 
	78.1306763,95.4370728 99.2046814,127.9714661 137.1400146,126.1494141 "/>
<polyline id="XMLID_34_" class="st0" points="78.1306763,95.4370728 94.9920654,61.080658 132.9273987,59.258606 
	154.0014038,91.7929688 137.1400146,126.1494141 99.2046814,127.9714661 78.1306763,95.4370728 "/>
<polygon id="XMLID_35_" class="st1" points="84.8470154,159.570282 49.4154053,158.6347046 43.0456238,175.40625 
	72.1074829,193.1133728 107.5391235,194.0489197 113.9088745,177.2773743 "/>
<polyline id="XMLID_36_" class="st0" points="43.0456238,175.40625 49.4154053,158.6347046 84.8470154,159.570282 
	113.9088745,177.2773743 107.5391235,194.0489197 72.1074829,193.1133728 43.0456238,175.40625 "/>
<polyline id="XMLID_37_" class="st0" points="64.0725708,142.4914246 51.1479187,166.4824829 76.1586609,188.6514587 
	114.0939941,186.8294067 127.0186768,162.8383789 102.0079346,140.6693726 64.0725708,142.4914246 "/>
<polyline id="XMLID_38_" class="st0" points="112.1529541,42.1797485 97.7953186,73.7785645 118.8692932,106.3129578 
	154.3009338,107.2485046 168.6585693,75.6496887 147.5845642,43.1152954 112.1529541,42.1797485 "/>
<polygon id="XMLID_39_" class="st1" points="188.0527649,78.9854736 178.9650574,48.5127563 174.9139404,52.9746704 
	179.9505005,87.9092712 189.038208,118.382019 193.0893555,113.9201355 "/>
<polyline id="XMLID_40_" class="st0" points="174.9139404,52.9746704 178.9650574,48.5127563 188.0527649,78.9854736 
	193.0893555,113.9201355 189.038208,118.382019 179.9505005,87.9092712 174.9139404,52.9746704 "/>
<polygon id="XMLID_41_" class="st1" points="189.038208,118.382019 179.9505005,87.9092712 154.0014038,91.7929688 
	137.1400146,126.1494141 146.2277222,156.6221313 172.1768188,152.7384338 "/>
<polyline id="XMLID_42_" class="st0" points="137.1400146,126.1494141 154.0014038,91.7929688 179.9505005,87.9092712 
	189.038208,118.382019 172.1768188,152.7384338 146.2277222,156.6221313 137.1400146,126.1494141 "/>
<polygon id="XMLID_43_" class="st1" points="165.8070679,169.5099792 172.1768188,152.7384338 146.2277222,156.6221313 
	113.9088745,177.2773743 107.5391235,194.0489197 133.4882202,190.1652222 "/>
<polyline id="XMLID_44_" class="st0" points="107.5391235,194.0489197 113.9088745,177.2773743 146.2277222,156.6221313 
	172.1768188,152.7384338 165.8070679,169.5099792 133.4882202,190.1652222 107.5391235,194.0489197 "/>
<polyline id="XMLID_45_" class="st0" points="127.0186768,162.8383789 114.0939941,186.8294067 133.4882202,190.1652222 
	165.8070679,169.5099792 178.73172,145.5189514 159.3375244,142.183136 127.0186768,162.8383789 "/>
<polygon id="XMLID_46_" class="st1" points="168.6585693,75.6496887 154.3009338,107.2485046 159.3375244,142.183136 
	178.73172,145.5189514 193.0893555,113.9201355 188.0527649,78.9854736 "/>
<polyline id="XMLID_47_" class="st0" points="168.6585693,75.6496887 154.3009338,107.2485046 159.3375244,142.183136 
	178.73172,145.5189514 193.0893555,113.9201355 188.0527649,78.9854736 168.6585693,75.6496887 "/>
<polygon id="XMLID_48_" points="154.3009338,107.2485046 118.8692932,106.3129578 102.0079346,140.6693726 127.0186768,162.8383789 
	159.3375244,142.183136 "/>
<polygon id="XMLID_49_" class="st1" points="112.1529541,42.1797485 97.7953186,73.7785645 118.8692932,106.3129578 
	154.3009338,107.2485046 168.6585693,75.6496887 147.5845642,43.1152954 "/>
<polygon id="XMLID_50_" class="st2" points="97.7953186,73.7785645 59.8599548,75.6006165 42.9985657,109.9570313 
	64.0725708,142.4914246 102.0079346,140.6693726 118.8692932,106.3129578 "/>
<polygon id="XMLID_51_" class="st1" points="159.3375244,142.183136 127.0186768,162.8383789 114.0939941,186.8294067 
	133.4882202,190.1652222 165.8070679,169.5099792 178.73172,145.5189514 "/>
<polygon id="XMLID_52_" class="st1" points="37.6624756,59.5668945 18.2682648,56.2310791 3.9106445,87.829895 
	8.9472198,122.7645264 28.3414154,126.1003418 42.6990356,94.5015259 "/>
<polygon id="XMLID_53_" points="42.9985657,109.9570313 17.0494995,113.8407593 22.0860596,148.7753906 51.1479187,166.4824829 
	64.0725708,142.4914246 "/>
<polygon id="XMLID_54_" class="st1" points="69.9813232,38.9116516 82.9059753,14.9206238 63.5117493,11.5848083 
	31.1929169,32.2400513 18.2682648,56.2310791 37.6624756,59.5668945 "/>
<polygon id="XMLID_55_" points="97.7953186,73.7785645 112.1529541,42.1797485 83.091095,24.4726563 50.7722168,45.1278992 
	59.8599548,75.6006165 "/>
<polygon id="XMLID_56_" class="st1" points="89.4608459,7.7011108 63.5117493,11.5848083 31.1929169,32.2400513 
	24.8231506,49.0115662 50.7722168,45.1278992 83.091095,24.4726563 "/>
<polygon id="XMLID_57_" class="st1" points="89.4608459,7.7011108 83.091095,24.4726563 112.1529541,42.1797485 
	147.5845642,43.1152954 153.9543152,26.34375 124.8924561,8.6366577 "/>
<polygon id="XMLID_58_" points="114.0939941,186.8294067 76.1586609,188.6514587 72.1074829,193.1133728 107.5391235,194.0489197 
	133.4882202,190.1652222 "/>
<polygon id="XMLID_59_" points="153.9543152,26.34375 147.5845642,43.1152954 168.6585693,75.6496887 188.0527649,78.9854736 
	178.9650574,48.5127563 "/>
<polygon id="XMLID_60_" class="st1" points="102.0079346,140.6693726 64.0725708,142.4914246 51.1479187,166.4824829 
	76.1586609,188.6514587 114.0939941,186.8294067 127.0186768,162.8383789 "/>
<polygon id="XMLID_61_" class="st1" points="22.0860596,148.7753906 18.0349274,153.2372742 43.0456238,175.40625 
	72.1074829,193.1133728 76.1586609,188.6514587 51.1479187,166.4824829 "/>
<polygon id="XMLID_62_" class="st1" points="7.9617767,83.3680115 3.9106445,87.829895 8.9472198,122.7645264 
	18.0349274,153.2372742 22.0860596,148.7753906 17.0494995,113.8407593 "/>
<polygon id="XMLID_63_" class="st1" points="50.7722168,45.1278992 24.8231506,49.0115662 7.9617767,83.3680115 
	17.0494995,113.8407593 42.9985657,109.9570313 59.8599548,75.6006165 "/>
<polygon id="XMLID_64_" points="3.9106445,87.829895 7.9617767,83.3680115 24.8231506,49.0115662 31.1929169,32.2400513 
	18.2682648,56.2310791 "/>
<g id="XMLID_65_">
</g>
<g id="XMLID_66_">
</g>
<g id="XMLID_67_">
</g>
<g id="XMLID_68_">
</g>
<g id="XMLID_69_">
</g>
<g id="XMLID_70_">
</g>
</svg>
