<?xml version="1.0" encoding="utf-8"?>
<!-- Generator: Adobe Illustrator 19.0.0, SVG Export Plug-In . SVG Version: 6.00 Build 0)  -->
<svg version="1.1" id="Layer_1" xmlns="http://www.w3.org/2000/svg" xmlns:xlink="http://www.w3.org/1999/xlink" x="0px" y="0px"
	 viewBox="69.3333359 148.6666718 700 190" style="enable-background:new 69.3333359 148.6666718 700 190;" xml:space="preserve">
<style type="text/css">
	.st0{fill:none;stroke:#262626;stroke-linejoin:round;stroke-miterlimit:10;stroke-opacity:0.149;}
	.st1{fill:none;stroke:#262626;stroke-linecap:square;stroke-linejoin:round;stroke-miterlimit:10;}
	.st2{enable-background:new    ;}
	.st3{fill:#262626;}
	.st4{fill:none;stroke:#0072BD;stroke-linejoin:round;stroke-miterlimit:10;}
</style>
<g>
	<line class="st0" x1="136.2574158" y1="320.3600769" x2="136.2574158" y2="168.7472229"/>
	<line class="st0" x1="202.9849396" y1="320.3600769" x2="202.9849396" y2="168.7472229"/>
	<line class="st0" x1="269.7124634" y1="320.3600769" x2="269.7124634" y2="168.7472229"/>
	<line class="st0" x1="309.7489624" y1="320.3600769" x2="96.2209091" y2="320.3600769"/>
	<line class="st0" x1="309.7489624" y1="295.0912781" x2="96.2209091" y2="295.0912781"/>
	<line class="st0" x1="309.7489624" y1="269.8224792" x2="96.2209091" y2="269.8224792"/>
	<line class="st0" x1="309.7489624" y1="244.5536499" x2="96.2209091" y2="244.5536499"/>
	<line class="st0" x1="309.7489624" y1="219.2848358" x2="96.2209091" y2="219.2848358"/>
	<line class="st0" x1="309.7489624" y1="194.0160522" x2="96.2209091" y2="194.0160522"/>
	<line class="st0" x1="309.7489624" y1="168.7472229" x2="96.2209091" y2="168.7472229"/>
	<line class="st1" x1="96.2209091" y1="320.3600769" x2="309.7489624" y2="320.3600769"/>
	<line class="st1" x1="96.2209091" y1="168.7472229" x2="309.7489624" y2="168.7472229"/>
	<line class="st1" x1="136.2574158" y1="320.3600769" x2="136.2574158" y2="318.2247925"/>
	<line class="st1" x1="202.9849396" y1="320.3600769" x2="202.9849396" y2="318.2247925"/>
	<line class="st1" x1="269.7124634" y1="320.3600769" x2="269.7124634" y2="318.2247925"/>
	<line class="st1" x1="136.2574158" y1="168.7472229" x2="136.2574158" y2="170.8825073"/>
	<line class="st1" x1="202.9849396" y1="168.7472229" x2="202.9849396" y2="170.8825073"/>
	<line class="st1" x1="269.7124634" y1="168.7472229" x2="269.7124634" y2="170.8825073"/>
</g>
<g transform="translate(190.875,427.6667)">
	<g class="st2">
		<path class="st3" d="M-59.2387657-94.2618942v-0.9472656h2.8935547v0.9472656H-59.2387657z"/>
		<path class="st3" d="M-55.5659142-93.9689255l0.9887695-0.0834961c0.0732422,0.480957,0.2436523,0.8432617,0.5102539,1.0854492
			c0.2670898,0.2426758,0.5888672,0.3637695,0.965332,0.3637695c0.4536133,0,0.8374023-0.1708984,1.1513672-0.5126953
			s0.4707031-0.7954102,0.4707031-1.3603516c0-0.5375977-0.1508789-0.9614258-0.4526367-1.2714844
			c-0.3017578-0.3105469-0.6967773-0.4658203-1.1850586-0.4658203c-0.3037109,0-0.5771484,0.0688477-0.8212891,0.206543
			c-0.2446289,0.1376953-0.4365234,0.3164063-0.5756836,0.5366211l-0.8842773-0.1152344l0.7426758-3.9399414h3.8144531v0.8999023
			h-3.0605469l-0.4135742,2.0615234c0.4604492-0.3208008,0.9433594-0.4814453,1.4492188-0.4814453
			c0.6699219,0,1.2348633,0.2319336,1.6953125,0.6958008s0.690918,1.0605469,0.690918,1.7895508
			c0,0.6943359-0.2026367,1.2944336-0.6069336,1.7998047c-0.4916992,0.6210938-1.1635742,0.9316406-2.0146484,0.9316406
			c-0.6977539,0-1.2670898-0.1953125-1.7084961-0.5859375C-55.2509727-92.8053513-55.5034142-93.3234177-55.5659142-93.9689255z"/>
	</g>
</g>
<g transform="translate(359,427.6667)">
	<g class="st2">
		<path class="st3" d="M-158.7456055-95.7428513c0-0.9067383,0.0932617-1.6367188,0.2797852-2.1894531
			c0.1865234-0.5532227,0.4638672-0.9794922,0.8320313-1.2797852c0.3681641-0.2998047,0.8310547-0.449707,1.3891602-0.449707
			c0.4116211,0,0.7724609,0.0830078,1.0830078,0.2485352s0.5668945,0.4047852,0.7695313,0.7167969
			c0.2021484,0.3120117,0.3608398,0.6923828,0.4760742,1.140625s0.1723633,1.0527344,0.1723633,1.8129883
			c0,0.8999023-0.0922852,1.6264648-0.2773438,2.1796875c-0.1845703,0.5527344-0.4609375,0.9799805-0.8291016,1.2817383
			s-0.8330078,0.4526367-1.3945313,0.4526367c-0.7392578,0-1.3203125-0.2651367-1.7421875-0.7954102
			C-158.4926758-93.2623825-158.7456055-94.3019333-158.7456055-95.7428513z M-157.777832-95.7428513
			c0,1.2592773,0.1474609,2.0976563,0.4423828,2.5141602c0.2944336,0.4169922,0.6582031,0.6254883,1.0908203,0.6254883
			s0.7963867-0.2094727,1.0908203-0.6279297c0.2949219-0.418457,0.4423828-1.2558594,0.4423828-2.5117188
			c0-1.2626953-0.1474609-2.1015625-0.4423828-2.5166016c-0.2944336-0.4150391-0.6616211-0.6225586-1.1010742-0.6225586
			c-0.4326172,0-0.777832,0.1831055-1.0361328,0.5493164C-157.6152344-97.8654099-157.777832-97.0021286-157.777832-95.7428513z"/>
	</g>
</g>
<g transform="translate(527.125,427.6667)">
	<g class="st2">
		<path class="st3" d="M-260.144043-93.9689255l0.9887695-0.0834961c0.0732422,0.480957,0.2436523,0.8432617,0.5102539,1.0854492
			c0.2670898,0.2426758,0.5888672,0.3637695,0.965332,0.3637695c0.4536133,0,0.8374023-0.1708984,1.1513672-0.5126953
			s0.4707031-0.7954102,0.4707031-1.3603516c0-0.5375977-0.1508789-0.9614258-0.4526367-1.2714844
			c-0.3017578-0.3105469-0.6967773-0.4658203-1.1850586-0.4658203c-0.3037109,0-0.5771484,0.0688477-0.8212891,0.206543
			c-0.2446289,0.1376953-0.4365234,0.3164063-0.5756836,0.5366211l-0.8842773-0.1152344l0.7426758-3.9399414h3.8144531v0.8999023
			h-3.0605469l-0.4135742,2.0615234c0.4604492-0.3208008,0.9433594-0.4814453,1.4492188-0.4814453
			c0.6699219,0,1.2348633,0.2319336,1.6953125,0.6958008s0.690918,1.0605469,0.690918,1.7895508
			c0,0.6943359-0.2026367,1.2944336-0.6069336,1.7998047c-0.4916992,0.6210938-1.1635742,0.9316406-2.0146484,0.9316406
			c-0.6977539,0-1.2670898-0.1953125-1.7084961-0.5859375C-259.8291016-92.8053513-260.081543-93.3234177-260.144043-93.9689255z"/>
	</g>
</g>
<g>
	<line class="st1" x1="96.2209091" y1="320.3600769" x2="96.2209091" y2="168.7472229"/>
	<line class="st1" x1="309.7489624" y1="320.3600769" x2="309.7489624" y2="168.7472229"/>
	<line class="st1" x1="96.2209091" y1="320.3600769" x2="98.3561859" y2="320.3600769"/>
	<line class="st1" x1="96.2209091" y1="295.0912781" x2="98.3561859" y2="295.0912781"/>
	<line class="st1" x1="96.2209091" y1="269.8224792" x2="98.3561859" y2="269.8224792"/>
	<line class="st1" x1="96.2209091" y1="244.5536499" x2="98.3561859" y2="244.5536499"/>
	<line class="st1" x1="96.2209091" y1="219.2848358" x2="98.3561859" y2="219.2848358"/>
	<line class="st1" x1="96.2209091" y1="194.0160522" x2="98.3561859" y2="194.0160522"/>
	<line class="st1" x1="96.2209091" y1="168.7472229" x2="98.3561859" y2="168.7472229"/>
	<line class="st1" x1="309.7489624" y1="320.3600769" x2="307.613678" y2="320.3600769"/>
	<line class="st1" x1="309.7489624" y1="295.0912781" x2="307.613678" y2="295.0912781"/>
	<line class="st1" x1="309.7489624" y1="269.8224792" x2="307.613678" y2="269.8224792"/>
	<line class="st1" x1="309.7489624" y1="244.5536499" x2="307.613678" y2="244.5536499"/>
	<line class="st1" x1="309.7489624" y1="219.2848358" x2="307.613678" y2="219.2848358"/>
	<line class="st1" x1="309.7489624" y1="194.0160522" x2="307.613678" y2="194.0160522"/>
	<line class="st1" x1="309.7489624" y1="168.7472229" x2="307.613678" y2="168.7472229"/>
</g>
<g transform="translate(79.3333,417)">
	<g class="st2">
		<path class="st3" d="M-5.6604438-94.5761642v-0.9472656h2.8935547v0.9472656H-5.6604438z"/>
		<path class="st3" d="M1.5597709-92.2739182H0.6178764v-6.0014648c-0.2265625,0.2163086-0.5239258,0.4326172-0.8920898,0.6484375
			c-0.3676758,0.2163086-0.6982422,0.3789063-0.9912109,0.4868164v-0.9106445
			c0.5263672-0.2475586,0.9868164-0.5473633,1.3813477-0.8999023c0.394043-0.3520508,0.6728516-0.6938477,0.8369141-1.0253906
			h0.6069336V-92.2739182z"/>
		<path class="st3" d="M4.500689-92.2739182v-1.0727539h1.0727539v1.0727539H4.500689z"/>
		<path class="st3" d="M6.9494195-94.2831955l0.9887695-0.0834961c0.0732417,0.480957,0.2436519,0.8432617,0.5102534,1.0854492
			c0.2670898,0.2426758,0.5888672,0.3637695,0.965332,0.3637695c0.4536133,0,0.8374023-0.1708984,1.1513672-0.5126953
			s0.4707031-0.7954102,0.4707031-1.3603516c0-0.5375977-0.1508789-0.9614258-0.4526367-1.2714844
			c-0.3017578-0.3105469-0.6967773-0.4658203-1.1850586-0.4658203c-0.3037109,0-0.5771484,0.0688477-0.8212891,0.206543
			c-0.2446289,0.1376953-0.4365234,0.3164063-0.5756836,0.5366211L7.1169-95.8998947l0.7426758-3.9399414h3.8144526v0.8999023
			H8.6134815l-0.4135742,2.0615234c0.4604492-0.3208008,0.9433594-0.4814453,1.4492188-0.4814453
			c0.6699219,0,1.2348633,0.2319336,1.6953125,0.6958008s0.690918,1.0605469,0.690918,1.7895508
			c0,0.6943359-0.2026367,1.2944336-0.6069336,1.7998047c-0.4916992,0.6210938-1.1635742,0.9316406-2.0146484,0.9316406
			c-0.6977539,0-1.2670898-0.1953125-1.7084956-0.5859375C7.2643609-93.1196213,7.0119195-93.6376877,6.9494195-94.2831955z"/>
	</g>
</g>
<g transform="translate(79.3333,353.3333)">
	<g class="st2">
		<path class="st3" d="M3.0714898-56.178524v-0.9472656h2.8935547v0.9472656H3.0714898z"/>
		<path class="st3" d="M10.2917042-53.8762779H9.3498096v-6.0014648c-0.2265625,0.2163086-0.5239258,0.4326172-0.8920898,0.6484375
			c-0.3676758,0.2163086-0.6982417,0.3789063-0.9912105,0.4868164v-0.9106445
			c0.5263672-0.2475586,0.9868159-0.5473633,1.3813472-0.8999023c0.394043-0.3520508,0.6728516-0.6938477,0.8369141-1.0253906
			h0.6069336V-53.8762779z"/>
	</g>
</g>
<g transform="translate(79.3333,289.6667)">
	<g class="st2">
		<path class="st3" d="M-5.6604438-17.7809391v-0.9472656h2.8935547v0.9472656H-5.6604438z"/>
		<path class="st3" d="M-1.9875923-19.2618961c0-0.9067383,0.0932617-1.6367188,0.2797852-2.1894531
			c0.1865234-0.5532227,0.4638672-0.9794922,0.8320313-1.2797852c0.3681641-0.2998047,0.8310547-0.449707,1.3891602-0.449707
			c0.4116211,0,0.7724609,0.0830078,1.0830078,0.2485352s0.5668947,0.4047852,0.7695314,0.7167969
			c0.2021484,0.3120117,0.3608398,0.6923828,0.4760742,1.140625s0.1723633,1.0527344,0.1723633,1.8129883
			c0,0.8999023-0.0922852,1.6264648-0.2773438,2.1796875c-0.1845703,0.5527344-0.4609375,0.9799805-0.8291017,1.2817373
			c-0.3681641,0.3017578-0.8330078,0.4526367-1.3945313,0.4526367c-0.7392578,0-1.3203125-0.2651367-1.7421875-0.7954092
			C-1.7346627-16.7814274-1.9875923-17.8209782-1.9875923-19.2618961z M-1.0198189-19.2618961
			c0,1.2592773,0.1474609,2.0976563,0.4423828,2.5141602c0.2944336,0.4169922,0.6582031,0.6254883,1.0908203,0.6254883
			s0.7963867-0.2094727,1.0908203-0.6279297c0.2949219-0.418457,0.4423829-1.2558594,0.4423829-2.5117188
			c0-1.2626953-0.1474611-2.1015625-0.4423829-2.5166016c-0.2944336-0.4150391-0.6616211-0.6225586-1.1010742-0.6225586
			c-0.4326172,0-0.777832,0.1831055-1.0361328,0.5493164C-0.8572212-21.3844547-1.0198189-20.5211735-1.0198189-19.2618961z"/>
		<path class="st3" d="M4.500689-15.478694v-1.072753h1.0727539v1.072753H4.500689z"/>
		<path class="st3" d="M6.9494195-17.4879704l0.9887695-0.0834961c0.0732417,0.480957,0.2436519,0.8432617,0.5102534,1.0854492
			c0.2670898,0.2426758,0.5888672,0.3637695,0.965332,0.3637695c0.4536133,0,0.8374023-0.1708984,1.1513672-0.5126953
			s0.4707031-0.7954102,0.4707031-1.3603516c0-0.5375977-0.1508789-0.9614258-0.4526367-1.2714844
			c-0.3017578-0.3105469-0.6967773-0.4658203-1.1850586-0.4658203c-0.3037109,0-0.5771484,0.0688477-0.8212891,0.206543
			C8.3322315-19.388361,8.140337-19.20965,8.0011768-18.9894352L7.1169-19.1046696l0.7426758-3.9399414h3.8144526v0.8999023
			H8.6134815l-0.4135742,2.0615234c0.4604492-0.3208008,0.9433594-0.4814453,1.4492188-0.4814453
			c0.6699219,0,1.2348633,0.2319336,1.6953125,0.6958008s0.690918,1.0605469,0.690918,1.7895508
			c0,0.6943359-0.2026367,1.2944336-0.6069336,1.7998047c-0.4916992,0.6210928-1.1635742,0.9316397-2.0146484,0.9316397
			c-0.6977539,0-1.2670898-0.1953125-1.7084956-0.5859375C7.2643609-16.3243961,7.0119195-16.8424625,6.9494195-17.4879704z"/>
	</g>
</g>
<g transform="translate(79.3333,226)">
	<g class="st2">
		<path class="st3" d="M6.7487359,19.1367245c0-0.9067383,0.0932617-1.6367188,0.2797852-2.1894531
			c0.1865234-0.5532227,0.4638672-0.9794931,0.8320313-1.2797861c0.3681636-0.2998047,0.8310542-0.449707,1.3891597-0.449707
			c0.4116211,0,0.7724609,0.0830078,1.0830078,0.2485352s0.5668945,0.4047852,0.7695313,0.7167978
			c0.2021484,0.3120117,0.3608398,0.6923828,0.4760742,1.140625s0.1723633,1.0527344,0.1723633,1.8129883
			c0,0.8999023-0.0922852,1.6264648-0.2773438,2.1796875c-0.1845703,0.5527344-0.4609375,0.9799805-0.8291016,1.2817383
			S9.8112354,23.050787,9.249712,23.050787c-0.7392578,0-1.320312-0.2651367-1.742187-0.7954102
			C7.0016656,21.6171932,6.7487359,20.5776424,6.7487359,19.1367245z M7.7165093,19.1367245
			c0,1.2592773,0.1474609,2.0976563,0.4423823,2.5141602c0.2944336,0.4169922,0.6582031,0.6254883,1.0908203,0.6254883
			s0.7963867-0.2094727,1.0908203-0.6279297c0.2949219-0.418457,0.4423828-1.2558594,0.4423828-2.5117188
			c0-1.2626953-0.1474609-2.1015625-0.4423828-2.5166016c-0.2944336-0.4150391-0.6616211-0.6225595-1.1010742-0.6225595
			c-0.4326172,0-0.777832,0.1831064-1.0361328,0.5493174C7.879107,17.0141659,7.7165093,17.8774471,7.7165093,19.1367245z"/>
	</g>
</g>
<g transform="translate(79.3333,162.3333)">
	<g class="st2">
		<path class="st3" d="M-1.9827095,57.5334053c0-0.9067383,0.0932617-1.6367188,0.2797852-2.1894531
			c0.1865234-0.5532227,0.4638672-0.9794922,0.8320313-1.2797852c0.3681641-0.2998047,0.8310547-0.449707,1.3891602-0.449707
			c0.4116211,0,0.7724609,0.0830078,1.0830078,0.2485352s0.5668947,0.4047852,0.7695314,0.7167969
			c0.2021484,0.3120117,0.3608398,0.6923828,0.4760742,1.140625s0.1723633,1.0527344,0.1723633,1.8129883
			c0,0.8999023-0.0922852,1.6264648-0.2773438,2.1796875c-0.1845703,0.5527344-0.4609375,0.9799805-0.8291017,1.2817383
			s-0.8330078,0.4526367-1.3945313,0.4526367c-0.7392578,0-1.3203125-0.2651367-1.7421875-0.7954102
			C-1.7297798,60.0138741-1.9827095,58.9743233-1.9827095,57.5334053z M-1.0149361,57.5334053
			c0,1.2592773,0.1474609,2.0976563,0.4423828,2.5141602c0.2944336,0.4169922,0.6582031,0.6254883,1.0908203,0.6254883
			s0.7963867-0.2094727,1.0908203-0.6279297c0.2949219-0.418457,0.4423829-1.2558594,0.4423829-2.5117188
			c0-1.2626953-0.1474611-2.1015625-0.4423829-2.5166016c-0.2944336-0.4150391-0.6616211-0.6225586-1.1010742-0.6225586
			c-0.4326172,0-0.777832,0.1831055-1.0361328,0.5493164C-0.8523384,55.4108467-1.0149361,56.274128-1.0149361,57.5334053z"/>
		<path class="st3" d="M4.5055718,61.3166084v-1.0727539h1.0727539v1.0727539H4.5055718z"/>
		<path class="st3" d="M6.9543023,59.3073311l0.9887695-0.0834961c0.0732417,0.480957,0.2436519,0.8432617,0.5102534,1.0854492
			c0.2670898,0.2426758,0.5888672,0.3637695,0.965332,0.3637695c0.4536133,0,0.8374023-0.1708984,1.1513672-0.5126953
			s0.4707031-0.7954102,0.4707031-1.3603516c0-0.5375977-0.1508789-0.9614258-0.4526367-1.2714844
			c-0.3017578-0.3105469-0.6967773-0.4658203-1.1850586-0.4658203c-0.3037109,0-0.5771484,0.0688477-0.8212891,0.206543
			c-0.2446289,0.1376953-0.4365234,0.3164063-0.5756836,0.5366211l-0.8842769-0.1152344l0.7426758-3.9399414h3.8144526v0.8999023
			H8.6183643l-0.4135742,2.0615234c0.4604492-0.3208008,0.9433594-0.4814453,1.4492188-0.4814453
			c0.6699219,0,1.2348633,0.2319336,1.6953125,0.6958008s0.690918,1.0605469,0.690918,1.7895508
			c0,0.6943359-0.2026367,1.2944336-0.6069336,1.7998047c-0.4916992,0.6210938-1.1635742,0.9316406-2.0146484,0.9316406
			c-0.6977539,0-1.2670898-0.1953125-1.7084956-0.5859375C7.2692437,60.4709053,7.0168023,59.9528389,6.9543023,59.3073311z"/>
	</g>
</g>
<g transform="translate(79.3333,98.6667)">
	<g class="st2">
		<path class="st3" d="M10.2960987,99.7156296H9.3542042v-6.0014648c-0.2265625,0.2163086-0.5239258,0.4326172-0.8920898,0.6484375
			c-0.3676758,0.2163086-0.6982417,0.3789063-0.9912105,0.4868164v-0.9106445
			c0.5263672-0.2475586,0.9868159-0.5473633,1.3813472-0.8999023c0.394043-0.3520508,0.6728516-0.6938477,0.8369141-1.0253906
			h0.6069336V99.7156296z"/>
	</g>
</g>
<g transform="translate(79.3333,35)">
	<g class="st2">
		<path class="st3" d="M1.5646538,138.1132813H0.6227592v-6.0014648c-0.2265625,0.2163086-0.5239258,0.4326172-0.8920898,0.6484375
			c-0.3676758,0.2163086-0.6982422,0.3789063-0.9912109,0.4868164v-0.9106445
			c0.5263672-0.2475586,0.9868164-0.5473633,1.3813477-0.8999023c0.394043-0.3520508,0.6728516-0.6938477,0.8369141-1.0253906
			h0.6069336V138.1132813z"/>
		<path class="st3" d="M4.5055718,138.1132813v-1.0727539h1.0727539v1.0727539H4.5055718z"/>
		<path class="st3" d="M6.9543023,136.1040039l0.9887695-0.0834961c0.0732417,0.480957,0.2436519,0.8432617,0.5102534,1.0854492
			c0.2670898,0.2426758,0.5888672,0.3637695,0.965332,0.3637695c0.4536133,0,0.8374023-0.1708984,1.1513672-0.5126953
			s0.4707031-0.7954102,0.4707031-1.3603516c0-0.5375977-0.1508789-0.9614258-0.4526367-1.2714844
			c-0.3017578-0.3105469-0.6967773-0.4658203-1.1850586-0.4658203c-0.3037109,0-0.5771484,0.0688477-0.8212891,0.206543
			c-0.2446289,0.1376953-0.4365234,0.3164063-0.5756836,0.5366211l-0.8842769-0.1152344l0.7426758-3.9399414h3.8144526v0.8999023
			H8.6183643l-0.4135742,2.0615234c0.4604492-0.3208008,0.9433594-0.4814453,1.4492188-0.4814453
			c0.6699219,0,1.2348633,0.2319336,1.6953125,0.6958008s0.690918,1.0605469,0.690918,1.7895508
			c0,0.6943359-0.2026367,1.2944336-0.6069336,1.7998047c-0.4916992,0.6210938-1.1635742,0.9316406-2.0146484,0.9316406
			c-0.6977539,0-1.2670898-0.1953125-1.7084956-0.5859375C7.2692437,137.2675781,7.0168023,136.7495117,6.9543023,136.1040039z"/>
	</g>
</g>
<g>
	<path class="st4" d="M119.1326675,244.5536499l0.3360901-3.239151l0.3360825-3.2289124l0.3360519-3.2084808l0.3360901-3.1778412
		l0.3360901-3.1373596l0.3360825-3.0870667l0.3360901-3.0273743l0.3360901-2.9584656l0.3360519-2.8807373l0.3360825-2.7946777
		l0.3360901-2.7005615l0.3360901-2.5990601l0.3360901-2.4905396l0.3360901-2.3756714l0.3360443-2.2549438l0.3360901-2.1290894
		l0.3360901-1.9986267l0.3360825-1.8643341l0.3360901-1.7267456l0.3360519-1.5867767l0.3360901-1.444931l0.3360825-1.3019714
		l0.3360901-1.1586456l0.3360901-1.015686l0.3360443-0.873642l0.3360901-0.7334137l0.3360977-0.5955811l0.3360901-0.4607544
		l0.3360748-0.3296051l0.3360596-0.2028656l0.3360901-0.0809174l0.3360901,0.035553l0.3360748,0.1460266l0.3360901,0.2500763
		l0.3360901,0.3471985l0.3360443,0.4371033l0.3360901,0.5193329l0.3360901,0.5935974l0.3360901,0.6597137l0.3360901,0.7173309
		l0.3360901,0.7664795l0.3360443,0.8068848l0.3360901,0.838562l0.3360901,0.8615723l0.3360901,0.8758545l0.3360901,0.8815765
		l0.3360443,0.8788757l0.3360901,0.8679657l0.3360901,0.8491211l0.3360901,0.8226013l0.3360901,0.7887726l0.3360748,0.7480316
		l0.3360596,0.7007904l0.3360901,0.6474915l0.3360901,0.5887451l0.3360748,0.5249786l0.3360901,0.4568176l0.3360596,0.3848724
		l0.3360748,0.3096466l0.3360901,0.2319031l0.3360901,0.1522522l0.3360901,0.0713196l0.3360901-0.0101929l0.3360901-0.0916443
		l0.3360443-0.1723022l0.3360901-0.2515411l0.3360901-0.3287506l0.3360901-0.4031219l0.3360901-0.4742432l0.3360443-0.5413666
		l0.3360901-0.6039429l0.3360901-0.6613464l0.3360901-0.7131805l0.3360901-0.7588501l0.3360443-0.7978821l0.3360901-0.8299408
		l0.3360901-0.854538l0.3360901-0.87146l0.3360748-0.8803558l0.3360901-0.8809357l0.3360596-0.8730927l0.3360901-0.8566437
		l0.3360748-0.8314514l0.3360901-0.7975922l0.3360901-0.7550049l0.3360443-0.7037354l0.3360901-0.6439514l0.3360901-0.5758209
		l0.3360901-0.4994812l0.3360901-0.4153442l0.3360443-0.3235931l0.3360901-0.2246857l0.3360901-0.118988l0.3360901-0.0069733
		l0.3360901,0.1109161l0.3360901,0.2341003l0.3360901,0.3620453l0.3360443,0.4941254l0.3360901,0.6297455l0.3360901,0.7682648
		l0.3360901,0.9090424l0.3360748,1.0513763l0.3360596,1.1944427l0.3360901,1.3377991l0.3360901,1.4804993l0.3360748,1.6219788
		l0.3360901,1.7614441l0.3360596,1.8982086l0.3360748,2.0316162l0.3360901,2.1609955l0.3360901,2.285675l0.3360901,2.4049225
		l0.3360901,2.51828l0.3360443,2.6251221l0.3360901,2.7248383l0.3360901,2.8169403l0.3360901,2.901001l0.3360901,2.9764862
		l0.3360443,3.0431824l0.3360901,3.1005554l0.3360901,3.1483917l0.3360901,3.1864471l0.3360901,3.2145081l0.3360901,3.2324524
		l0.3360443,3.2401581l0.3360901,3.2375641l0.3360901,3.2247467l0.3360901,3.2017365l0.3360748,3.1686707l0.3360596,3.1256409
		l0.3360901,3.0730591l0.3360901,3.0109863l0.3360901,2.9398193l0.3360748,2.8599854l0.3360901,2.7718811l0.3360443,2.6758728
		l0.3360901,2.5725403l0.3360901,2.4624329l0.3360901,2.3460083l0.3360901,2.223938l0.3360596,2.0968628l0.3360748,1.9653931
		l0.3360901,1.8302002l0.3360901,1.6920166l0.3360901,1.5514221l0.3360901,1.4092407l0.3360443,1.2661743l0.3360901,1.1228638
		l0.3360901,0.9800415l0.3360901,0.8384094l0.3360901,0.6987l0.3360901,0.5615234l0.3360901,0.4276123l0.3360443,0.2975159
		l0.3360901,0.171875l0.3360748,0.0512695l0.3360901-0.0637207l0.3360596-0.1726685l0.3360901-0.2749939l0.3360901-0.3704529
		l0.3360901-0.4583435l0.3360748-0.5386658l0.3360901-0.6109009l0.3360443-0.6749268l0.3360901-0.7303772l0.3360901-0.7774048
		l0.3360901-0.8156128l0.3360901-0.8451538l0.3360596-0.8659668l0.3360748-0.8780518l0.3360901-0.8816833l0.3360901-0.8769531
		l0.3360901-0.8639832l0.3360901-0.8432007l0.3360443-0.8148193l0.3360901-0.7792053l0.3360901-0.7368164l0.3360901-0.6879883
		l0.3360901-0.6333313l0.3360901-0.5732422l0.3360443-0.5083313l0.3360901-0.4391785l0.3360748-0.366333l0.3360901-0.2904358
		l0.3360901-0.2120972l0.3360596-0.1321106l0.3360901-0.0509644l0.3360901,0.0305786l0.3360901,0.111908l0.3360748,0.1922302
		l0.3360901,0.2710876l0.3360443,0.3475952l0.3360901,0.4212646l0.3360901,0.4914246l0.3360901,0.5574951l0.3360901,0.6187439
		l0.3360596,0.6748657l0.3360748,0.7252197l0.3360901,0.7692261l0.3360901,0.8065491l0.3360901,0.8368225l0.3360901,0.8595276
		l0.3360443,0.8744507l0.3360901,0.8812561l0.3360901,0.8797913l0.3360901,0.869751l0.3360443,0.8511658l0.3361359,0.823822
		l0.3360443,0.7877502l0.3360748,0.742981l0.3360901,0.6896057l0.3360901,0.6276855l0.3360901,0.5574951l0.3360596,0.4791565
		l0.3360901,0.3931274l0.3360901,0.29953l0.3360901,0.1988831l0.3360748,0.0915527l0.3360901-0.0219727l0.3360443-0.1412659
		l0.3360901-0.265625l0.3360901-0.3946838l0.3360901-0.5277405l0.3360901-0.6641541l0.3360596-0.8032837l0.3360748-0.944519
		l0.3360901-1.0870361l0.3360901-1.2303467l0.3360901-1.3735352l0.3360748-1.5159912l0.3360596-1.657074l0.3360901-1.7958984
		l0.3360901-1.9319153l0.3360901-2.0643921l0.3360443-2.192627l0.3361359-2.315979l0.3360291-2.4338684l0.3360901-2.5456238
		l0.3360901-2.6507263l0.3360901-2.7485962l0.3360901-2.8387451l0.3360596-2.9206848l0.3360901-2.9940186l0.3360901-3.0583801
		l0.3360901-3.1134338l0.3360748-3.1588135l0.3360901-3.1944275l0.3360443-3.2199554l0.3360901-3.2353058l0.3360901-3.2404785
		l0.3360901-3.2353058l0.3360596-3.2199402l0.3360748-3.1944275l0.3360901-3.1588287l0.3360901-3.1134186l0.3360748-3.0583801
		l0.3360901-2.9940338l0.3360596-2.9206848l0.3360901-2.8387299l0.3360901-2.7486115l0.3360901-2.6507111l0.3360901-2.5456238
		l0.3360291-2.4338684l0.3361511-2.3159943l0.3360291-2.192627l0.3360901-2.0643921l0.3360901-1.9319153l0.3360901-1.7958984
		l0.3360596-1.6570282l0.3360901-1.5160522l0.3360901-1.3735199l0.3360901-1.2303314l0.3360748-1.0870819l0.3360901-0.9444885
		l0.3360443-0.8032684l0.3360901-0.6641541l0.3360901-0.52771l0.3360901-0.3947144l0.3360901-0.2656708l0.3360443-0.1412201
		l0.3360901-0.0219879l0.3360901,0.091568l0.3360748,0.1988831l0.3360901,0.29953l0.3360901,0.3931122l0.3360596,0.4791718
		l0.3360901,0.5574799l0.3360901,0.6276855l0.3360901,0.6896057l0.3360901,0.742981l0.3360291,0.7877502l0.3361511,0.823822
		l0.3360291,0.8511353l0.3360901,0.8697968l0.3360901,0.8797913l0.3360901,0.8812561l0.3360596,0.8744354l0.3360901,0.8595428
		l0.3360901,0.8368073l0.3360748,0.8065643l0.3360901,0.7692261l0.3360901,0.7252045l0.3360443,0.6748657l0.3360901,0.6187592
		l0.3360901,0.5574799l0.3360901,0.4914246l0.3360901,0.4212646l0.3360443,0.3475952l0.3360901,0.2710724l0.3360748,0.1922607
		l0.3360901,0.1118927l0.3360901,0.0305939l0.3360901-0.0509644l0.3360596-0.1320801l0.3360901-0.2121735l0.3360901-0.2904205
		l0.3360901-0.3663177l0.3360901-0.4391632l0.3360291-0.5083466l0.3360901-0.5732269l0.3360901-0.6333313l0.3360901-0.6880035
		l0.3360901-0.7367859l0.3360901-0.7792206l0.3360596-0.8148193l0.3360901-0.8432007l0.3360748-0.8639984l0.3360901-0.8769379
		l0.3360901-0.8816986l0.3360748-0.8780365l0.3360596-0.8659363l0.3360901-0.8451538l0.3360901-0.8156433l0.3360901-0.777359
		l0.3360901-0.7304382l0.3360443-0.6749115l0.3360901-0.6109009l0.3360748-0.5386658l0.3360901-0.4584045l0.3360901-0.3703766
		l0.3360901-0.2750092l0.3360596-0.1726837l0.3360901-0.0637054l0.3360901,0.0512695l0.3360901,0.1718597l0.3360291,0.2975159
		l0.3360901,0.4276123l0.3360901,0.5615234l0.3360901,0.6987305l0.3360901,0.8383942l0.3360901,0.9800415l0.3360901,1.1228485
		l0.3360443,1.2661591l0.3360901,1.409256l0.3360901,1.5514526l0.3360901,1.6919861l0.3360901,1.8301849l0.3360748,1.9654236
		l0.3360596,2.0968475l0.3360901,2.2239532l0.3360901,2.345993l0.3360901,2.4624023l0.3360901,2.5725708l0.3360443,2.6758881
		l0.3360901,2.7718506l0.3360748,2.8600159l0.3360901,2.9398193l0.3360901,3.0109863l0.3360901,3.0730591l0.3360596,3.1256866
		l0.3360901,3.1686249l0.3360901,3.2017212l0.3360748,3.224762l0.3360443,3.2375641l0.3360901,3.2401581l0.3360901,3.2324371
		l0.3360901,3.2145081l0.3360901,3.1864624l0.3360901,3.1483765l0.3360443,3.1005554l0.3360901,3.0431519l0.3360901,2.976532
		l0.3360901,2.901001l0.3360901,2.8169556l0.3360901,2.724823l0.3360748,2.625061l0.3360596,2.5183411l0.3360901,2.4049072
		l0.3360901,2.285675l0.3360901,2.1610107l0.3360443,2.0315857l0.3360901,1.8982239l0.3360901,1.7614441l0.3360748,1.6219788
		l0.3360901,1.4804993l0.3360901,1.3377991l0.3360596,1.1944885l0.3360901,1.0513306l0.3360901,0.9090576l0.3360748,0.7682495
		l0.3360901,0.6297607l0.3360443,0.4941101l0.3360901,0.3620605l0.3360901,0.2341003l0.3360901,0.1109314l0.3360901-0.0069885
		l0.3360901-0.118988l0.3360596-0.2247009l0.3360901-0.3235779l0.3360901-0.4153442l0.3360901-0.4994812l0.3360901-0.5758362
		l0.3360901-0.6439514l0.3360291-0.7037354l0.3360901-0.7550049l0.3360901-0.7975769l0.3360901-0.8314514l0.3360901-0.8566589
		l0.3360596-0.8730774l0.3360901-0.8809509l0.3360901-0.8803101l0.3360596-0.8714905l0.3360901-0.8545532l0.3360901-0.8299255
		l0.3360596-0.7978821l0.3360901-0.7588501l0.3360901-0.7131958l0.3360901-0.6613159l0.3360901-0.6039734l0.3360291-0.5413208
		l0.3360901-0.4742737l0.3360901-0.4031372l0.3360901-0.3287354l0.3360901-0.2515564l0.3360901-0.1723022l0.3360901-0.0915833
		l0.3360596-0.0102234l0.3360901,0.0713196l0.3360901,0.1522217l0.3360901,0.2319031l0.3360901,0.3096619l0.3360596,0.3848572
		l0.3360596,0.4568176l0.3360901,0.5249939l0.3360901,0.5887451l0.3360291,0.647522l0.3360901,0.7007446l0.3360901,0.7480469
		l0.3360901,0.7887268l0.3360901,0.8226013l0.3360901,0.8491516l0.3360596,0.867981l0.3360901,0.8788452l0.3360596,0.8815918
		l0.3360901,0.8758545l0.3360901,0.8615723l0.3360901,0.838562l0.3360901,0.8068848l0.3360596,0.7664795l0.3360901,0.7173462
		l0.3360901,0.659668l0.3360901,0.5936279l0.3360901,0.5193481l0.3360596,0.4371033l0.3360901,0.3471985l0.3360901,0.2500916
		l0.3360901,0.1459961l0.3360596,0.035553l0.3360901-0.0809021l0.3360596-0.2028503l0.3360901-0.3296204l0.3360901-0.4607544
		l0.3360901-0.5955505l0.3360291-0.733429l0.3360901-0.8736572l0.3360901-1.015686l0.3360901-1.1586609l0.3360901-1.3019714
		l0.3360901-1.4449158l0.3360596-1.5867615l0.3360901-1.7267761l0.3360596-1.8643188l0.3360901-1.9986267l0.3360901-2.1290894
		l0.3360901-2.2549438l0.3360596-2.3756714l0.3360901-2.4905701l0.3360901-2.5990295l0.3360901-2.7005615l0.3360901-2.7946472
		l0.3360901-2.8807678l0.3360596-2.9584656l0.3360901-3.0273743l0.3360901-3.0870972l0.3360291-3.1373291l0.3361206-3.1778412
		l0.3360901-3.2084808l0.3360901-3.2289124l0.3360596-3.2391663"/>
</g>
<g>
	<line class="st0" x1="363.6022949" y1="320.3600769" x2="363.6022949" y2="168.7472229"/>
	<line class="st0" x1="430.20578" y1="320.3600769" x2="430.20578" y2="168.7472229"/>
	<line class="st0" x1="496.8092957" y1="320.3600769" x2="496.8092957" y2="168.7472229"/>
	<line class="st0" x1="536.7713623" y1="320.3600769" x2="323.6401978" y2="320.3600769"/>
	<line class="st0" x1="536.7713623" y1="295.0912781" x2="323.6401978" y2="295.0912781"/>
	<line class="st0" x1="536.7713623" y1="269.8224792" x2="323.6401978" y2="269.8224792"/>
	<line class="st0" x1="536.7713623" y1="244.5536499" x2="323.6401978" y2="244.5536499"/>
	<line class="st0" x1="536.7713623" y1="219.2848358" x2="323.6401978" y2="219.2848358"/>
	<line class="st0" x1="536.7713623" y1="194.0160522" x2="323.6401978" y2="194.0160522"/>
	<line class="st0" x1="536.7713623" y1="168.7472229" x2="323.6401978" y2="168.7472229"/>
	<line class="st1" x1="323.6401978" y1="320.3600769" x2="536.7713623" y2="320.3600769"/>
	<line class="st1" x1="323.6401978" y1="168.7472229" x2="536.7713623" y2="168.7472229"/>
	<line class="st1" x1="363.6022949" y1="320.3600769" x2="363.6022949" y2="318.2287903"/>
	<line class="st1" x1="430.20578" y1="320.3600769" x2="430.20578" y2="318.2287903"/>
	<line class="st1" x1="496.8092957" y1="320.3600769" x2="496.8092957" y2="318.2287903"/>
	<line class="st1" x1="363.6022949" y1="168.7472229" x2="363.6022949" y2="170.87854"/>
	<line class="st1" x1="430.20578" y1="168.7472229" x2="430.20578" y2="170.87854"/>
	<line class="st1" x1="496.8092957" y1="168.7472229" x2="496.8092957" y2="170.87854"/>
</g>
<g transform="translate(190.6875,427.6667)">
	<g class="st2">
		<path class="st3" d="M168.293457-94.2618942v-0.9472656h2.8935547v0.9472656H168.293457z"/>
		<path class="st3" d="M171.9663086-93.9689255l0.9887695-0.0834961c0.0732422,0.480957,0.2436523,0.8432617,0.5102539,1.0854492
			c0.2670898,0.2426758,0.5888672,0.3637695,0.965332,0.3637695c0.4536133,0,0.8374023-0.1708984,1.1513672-0.5126953
			s0.4707031-0.7954102,0.4707031-1.3603516c0-0.5375977-0.1508789-0.9614258-0.4526367-1.2714844
			c-0.3017578-0.3105469-0.6967773-0.4658203-1.1850586-0.4658203c-0.3037109,0-0.5771484,0.0688477-0.8212891,0.206543
			c-0.2446289,0.1376953-0.4365234,0.3164063-0.5756836,0.5366211l-0.8842773-0.1152344l0.7426758-3.9399414h3.8144531v0.8999023
			h-3.0605469l-0.4135742,2.0615234c0.4604492-0.3208008,0.9433594-0.4814453,1.4492188-0.4814453
			c0.6699219,0,1.2348633,0.2319336,1.6953125,0.6958008s0.690918,1.0605469,0.690918,1.7895508
			c0,0.6943359-0.2026367,1.2944336-0.6069336,1.7998047c-0.4916992,0.6210938-1.1635742,0.9316406-2.0146484,0.9316406
			c-0.6977539,0-1.2670898-0.1953125-1.7084961-0.5859375C172.28125-92.8053513,172.0288086-93.3234177,171.9663086-93.9689255z"/>
	</g>
</g>
<g transform="translate(358.5,427.6667)">
	<g class="st2">
		<path class="st3" d="M68.9746094-95.7428513c0-0.9067383,0.09375-1.6367188,0.2802734-2.1894531
			c0.1865234-0.5532227,0.4638672-0.9794922,0.8320313-1.2797852c0.3681641-0.2998047,0.8310547-0.449707,1.3896484-0.449707
			c0.4111328,0,0.7724609,0.0830078,1.0830078,0.2485352s0.5664063,0.4047852,0.7685547,0.7167969
			s0.3613281,0.6923828,0.4765625,1.140625s0.1728516,1.0527344,0.1728516,1.8129883
			c0,0.8999023-0.0927734,1.6264648-0.2773438,2.1796875c-0.1855469,0.5527344-0.4619141,0.9799805-0.8300781,1.2817383
			c-0.3671875,0.3017578-0.8320313,0.4526367-1.3935547,0.4526367c-0.7402344,0-1.3203125-0.2651367-1.7431641-0.7954102
			C69.2275391-93.2623825,68.9746094-94.3019333,68.9746094-95.7428513z M69.9433594-95.7428513
			c0,1.2592773,0.1474609,2.0976563,0.4414063,2.5141602c0.2949219,0.4169922,0.6591797,0.6254883,1.0917969,0.6254883
			c0.4316406,0,0.7958984-0.2094727,1.0908203-0.6279297s0.4414063-1.2558594,0.4414063-2.5117188
			c0-1.2626953-0.1464844-2.1015625-0.4414063-2.5166016s-0.6621094-0.6225586-1.1015625-0.6225586
			c-0.4326172,0-0.7783203,0.1831055-1.0361328,0.5493164C70.1054688-97.8654099,69.9433594-97.0021286,69.9433594-95.7428513z"/>
	</g>
</g>
<g transform="translate(526.3125,427.6667)">
	<g class="st2">
		<path class="st3" d="M-32.2343712-93.9689255l0.9892559-0.0834961c0.0732422,0.480957,0.2431641,0.8432617,0.5107422,1.0854492
			c0.2666016,0.2426758,0.5878906,0.3637695,0.9648438,0.3637695c0.453125,0,0.8369141-0.1708984,1.1513672-0.5126953
			c0.3134766-0.3417969,0.4707031-0.7954102,0.4707031-1.3603516c0-0.5375977-0.1503906-0.9614258-0.4521484-1.2714844
			c-0.3017578-0.3105469-0.6972656-0.4658203-1.1855469-0.4658203c-0.3037109,0-0.5771484,0.0688477-0.8212891,0.206543
			s-0.4365234,0.3164063-0.5761719,0.5366211l-0.8837872-0.1152344l0.7431622-3.9399414h3.8144531v0.8999023h-3.0615234
			l-0.4130859,2.0615234c0.4609375-0.3208008,0.9433594-0.4814453,1.4492188-0.4814453
			c0.6699219,0,1.2353516,0.2319336,1.6953125,0.6958008c0.4609375,0.4638672,0.6904297,1.0605469,0.6904297,1.7895508
			c0,0.6943359-0.2021484,1.2944336-0.6064453,1.7998047c-0.4921875,0.6210938-1.1630859,0.9316406-2.0146484,0.9316406
			c-0.6972656,0-1.2666016-0.1953125-1.7080078-0.5859375S-32.1708946-93.3234177-32.2343712-93.9689255z"/>
	</g>
</g>
<g>
	<line class="st1" x1="323.6401978" y1="320.3600769" x2="323.6401978" y2="168.7472229"/>
	<line class="st1" x1="536.7713623" y1="320.3600769" x2="536.7713623" y2="168.7472229"/>
	<line class="st1" x1="323.6401978" y1="320.3600769" x2="325.7715149" y2="320.3600769"/>
	<line class="st1" x1="323.6401978" y1="295.0912781" x2="325.7715149" y2="295.0912781"/>
	<line class="st1" x1="323.6401978" y1="269.8224792" x2="325.7715149" y2="269.8224792"/>
	<line class="st1" x1="323.6401978" y1="244.5536499" x2="325.7715149" y2="244.5536499"/>
	<line class="st1" x1="323.6401978" y1="219.2848358" x2="325.7715149" y2="219.2848358"/>
	<line class="st1" x1="323.6401978" y1="194.0160522" x2="325.7715149" y2="194.0160522"/>
	<line class="st1" x1="323.6401978" y1="168.7472229" x2="325.7715149" y2="168.7472229"/>
	<line class="st1" x1="536.7713623" y1="320.3600769" x2="534.6400757" y2="320.3600769"/>
	<line class="st1" x1="536.7713623" y1="295.0912781" x2="534.6400757" y2="295.0912781"/>
	<line class="st1" x1="536.7713623" y1="269.8224792" x2="534.6400757" y2="269.8224792"/>
	<line class="st1" x1="536.7713623" y1="244.5536499" x2="534.6400757" y2="244.5536499"/>
	<line class="st1" x1="536.7713623" y1="219.2848358" x2="534.6400757" y2="219.2848358"/>
	<line class="st1" x1="536.7713623" y1="194.0160522" x2="534.6400757" y2="194.0160522"/>
	<line class="st1" x1="536.7713623" y1="168.7472229" x2="534.6400757" y2="168.7472229"/>
</g>
<g>
	<path class="st4" d="M346.5093689,244.5536499l0.3354797-4.8553314l0.3354492-4.8195038l0.3354492-4.74823l0.3354492-4.6425323
		l0.3354492-4.5036163l0.3354492-4.3334198l0.3354492-4.1339569l0.3355103-3.9078369l0.3354492-3.6578369l0.3354492-3.387207
		l0.3354492-3.0991364l0.3354492-2.7973633l0.3354797-2.4854584l0.3354492-2.1672363l0.3354492-1.8464966l0.3354492-1.5270844
		l0.3354492-1.2125854l0.3354492-0.9067078l0.3354797-0.6127625l0.3354187-0.3339844l0.3355103-0.0731506l0.3354492,0.1669769
		l0.3354492,0.3842773l0.3354492,0.5767975l0.3354492,0.743103l0.3354492,0.8820953l0.3354797,0.9930573l0.3354492,1.0758667
		l0.3354492,1.1306152l0.3354492,1.1579742l0.3354492,1.158844l0.3355103,1.1346893l0.3354492,1.0871277l0.3354492,1.018219
		l0.3354492,0.9302368l0.3354492,0.8257751l0.3354492,0.7075348l0.3354492,0.5783234l0.3354492,0.4411469l0.3354797,0.299057
		l0.3354492,0.1549835l0.3354492,0.0119476l0.3354492-0.1272125l0.3355103-0.2598419l0.3354492-0.3833923l0.3354492-0.4955597
		l0.3354492-0.5943451l0.3354492-0.6780243l0.3354492-0.745163l0.3354492-0.794693l0.3354492-0.8260193l0.3354797-0.8385925
		l0.3354492-0.83255l0.3354492-0.8083496l0.3354492-0.7664795l0.3354492-0.7082214l0.3355103-0.6348267l0.3354492-0.5479126
		l0.3354492-0.4495239l0.3354492-0.3415527l0.3354492-0.2265472l0.3354492-0.1067657l0.3354492,0.015274l0.3354797,0.1370087
		l0.3354492,0.2558441l0.3354492,0.369339l0.3354492,0.4750824l0.3354492,0.570816l0.3355103,0.6545105l0.3354492,0.7242432
		l0.3354492,0.7785492l0.3354492,0.8160553l0.3354492,0.8358154l0.3354492,0.8372345l0.3354492,0.8199005l0.3354797,0.7840271
		l0.3354492,0.7299652l0.3354492,0.6585999l0.3354492,0.5710144l0.3354492,0.468689l0.3355103,0.3534698l0.3353882,0.2274628
		l0.3355103,0.0929413l0.3354492-0.0474548l0.3354492-0.1910248l0.3354492-0.3348999l0.3354492-0.4760437l0.3354492-0.6114502
		l0.3354797-0.7382202l0.3354492-0.8533173l0.3354492-0.9538879l0.3354492-1.037323l0.3354492-1.1010895l0.3354492-1.1429749
		l0.3355103-1.1610718l0.3354492-1.1536407l0.3354492-1.1195526l0.3354492-1.0578003l0.3354492-0.9679871l0.3354492-0.8498993
		l0.3354797-0.7040558l0.3354492-0.5310669l0.3354492-0.3322449l0.3354492-0.1089935l0.3354492,0.1365356l0.3354492,0.4020996
		l0.3355103,0.684906l0.3354492,0.982193l0.3354492,1.2905731l0.3354492,1.6066284l0.3354492,1.926712l0.3354492,2.2471619
		l0.3354797,2.5641632l0.3354492,2.8739014l0.3354492,3.1725922l0.3354492,3.4566193l0.3354492,3.7224121l0.3354492,3.9667358
		l0.3354492,4.1864319l0.3355103,4.3787842l0.3354492,4.5413666l0.3354492,4.6720886l0.3354492,4.7693481l0.3354492,4.8318024
		l0.3354797,4.8587189l0.3354492,4.8497009l0.3354492,4.8049774l0.3354492,4.7250061l0.3354492,4.6108398l0.3355103,4.4639282
		l0.3353882,4.2862244l0.3354492,4.0798035l0.3355103,3.8474731l0.3354492,3.59198l0.3354492,3.3166809l0.3354492,3.0248413
		l0.3354492,2.7201843l0.3354797,2.4063416l0.3354492,2.0871582l0.3354492,1.7663574l0.3354492,1.4478455l0.3354492,1.1351929
		l0.3355103,0.8319702l0.3353882,0.5415344l0.3355103,0.2669678l0.3354492,0.0111084l0.3354492-0.2235413l0.3354492-0.4348145
		l0.3354492-0.6208496l0.3354492-0.7804565l0.3354797-0.9124451l0.3354492-1.016449l0.3354492-1.0921631l0.3354492-1.1399841
		l0.3354492-1.1606445l0.3355103-1.1550598l0.3354492-1.1249084l0.3354492-1.0718079l0.3354492-0.9979248l0.3354492-0.9055786
		l0.3354492-0.7973938l0.3354797-0.6761475l0.3354187-0.5446167l0.3354797-0.4060364l0.3354492-0.263092l0.3354492-0.1190186
		l0.3354492,0.0232849l0.3354492,0.1611328l0.3354797,0.291687l0.3354797,0.4125671l0.3354492,0.5216064l0.3354492,0.6167297
		l0.3354492,0.6963806l0.3354492,0.7592163l0.3354797,0.8043213l0.3354492,0.8308716l0.3354492,0.8388367l0.3354492,0.828186
		l0.3354492,0.799469l0.3354492,0.753418l0.3354492,0.6912231l0.3355103,0.6142578l0.3354492,0.5244141l0.3354492,0.4232788
		l0.3354492,0.3134155l0.3354492,0.1969299l0.3354492,0.0763855l0.3354797-0.0458984l0.3354492-0.1670532l0.3354492-0.2848206
		l0.3354492-0.3966064l0.3354492-0.5000305l0.3354797-0.592926l0.3354492-0.6732788l0.3354797-0.7393799l0.3354492-0.7895508
		l0.3354492-0.8226624l0.3354492-0.8379211l0.3354492-0.8346252l0.3354492-0.8126831l0.3354492-0.7721863l0.3354797-0.7137451
		l0.3354492-0.6381531l0.3354492-0.5467224l0.3354492-0.4410095l0.3354797-0.3229065l0.3354492-0.1945496l0.3354797-0.0582886
		l0.3354492,0.0831909l0.3354492,0.2270508l0.3354492,0.3705444l0.3354492,0.5105591l0.3354797,0.6440735l0.3354492,0.7681885
		l0.3354492,0.8799438l0.3354492,0.9764404l0.3354492,1.0552368l0.3354492,1.113678l0.3355103,1.1497803l0.3354492,1.1616821
		l0.3354492,1.147644l0.3354492,1.10672l0.3354492,1.0379944l0.3354492,0.9411011l0.3354492,0.8160706l0.3354797,0.663269
		l0.3354492,0.4837341l0.3354492,0.2786255l0.3354492,0.0496521l0.3354492-0.2011414l0.3354492-0.4712524l0.3355103-0.7580872
		l0.3354492-1.0583496l0.3354492-1.368988l0.3354492-1.6864014l0.3354492-2.0069275l0.3354797-2.3269043l0.3354187-2.6424255
		l0.3354797-2.9497375l0.3354492-3.2451477l0.3354492-3.5249023l0.3354492-3.785614l0.3354492-4.0240479l0.3354492-4.2372437
		l0.3355103-4.4222717l0.3354492-4.5771484l0.3354492-4.699585l0.3354492-4.788269l0.3354492-4.8418427l0.3354797-4.8598785
		l0.3354492-4.8418427l0.3354492-4.788269l0.3354492-4.6996002l0.3354492-4.5771179l0.3355103-4.4223328l0.3354492-4.2371826
		l0.3354492-4.0240631l0.3354492-3.7856293l0.3354492-3.5248871l0.3354492-3.2451477l0.3354492-2.9497375l0.3354492-2.6424408
		l0.3354797-2.326889l0.3354492-2.0069275l0.3354492-1.6864014l0.3354492-1.3690033l0.3354492-1.0583496l0.3355103-0.7580566
		l0.3354492-0.471283l0.3354492-0.2011414l0.3354492,0.0496521l0.3354492,0.2786255l0.3354492,0.4837189l0.3354797,0.6632996
		l0.3354187,0.81604l0.3354797,0.9411163l0.3354492,1.0379944l0.3354492,1.1067352l0.3354492,1.1476593l0.3354492,1.1616516
		l0.3355103,1.1497955l0.3354492,1.1136932l0.3354492,1.0552063l0.3354492,0.9764404l0.3354492,0.8799438l0.3354492,0.7681885
		l0.3354797,0.6440735l0.3354492,0.5105591l0.3354492,0.3705444l0.3354492,0.227066l0.3354492,0.0831909l0.3354797-0.0583038
		l0.3354187-0.194519l0.3355103-0.3229218l0.3354492-0.4410248l0.3354492-0.5467072l0.3354492-0.6381683l0.3354492-0.7137299
		l0.3354492-0.7722015l0.3354797-0.8126678l0.3354492-0.8346252l0.3354492-0.8379211l0.3354492-0.8226776l0.3354492-0.7895355
		l0.3354797-0.7393799l0.3354492-0.6732788l0.3354797-0.5929565l0.3354492-0.5000153l0.3354492-0.3966064l0.3354492-0.2848053
		l0.3354492-0.1670532l0.3354492-0.0458527l0.3354492,0.0763245l0.3354797,0.1969452l0.3354492,0.3134155l0.3354492,0.4233246
		l0.3354492,0.5243073l0.3354797,0.6143036l0.3354797,0.6912231l0.3354492,0.753418l0.3354492,0.799469l0.3354492,0.8282013
		l0.3354492,0.8388672l0.3354492,0.8308563l0.3354797,0.8042908l0.3354492,0.7592163l0.3354492,0.6963959l0.3354492,0.6167297
		l0.3354492,0.5215912l0.3354492,0.4125671l0.3355103,0.291687l0.3354492,0.161087l0.3354492,0.0233459l0.3354492-0.1190338
		l0.3354492-0.263092l0.3354492-0.4059906l0.3354492-0.544693l0.3354797-0.6761017l0.3354492-0.7973938l0.3354492-0.9055939
		l0.3354492-0.9979095l0.3354492-1.0718079l0.3354492-1.1249084l0.3355103-1.1550751l0.3354492-1.1606293l0.3354492-1.1399994
		l0.3354492-1.0921631l0.3354492-1.016449l0.3354797-0.9124451l0.3354187-0.7804108l0.3354797-0.6209106l0.3354492-0.4347839
		l0.3354492-0.223526l0.3354492,0.0111084l0.3354797,0.2669525l0.3354187,0.5415192l0.3355103,0.831955l0.3354492,1.1351929
		l0.3354492,1.447876l0.3354492,1.7663574l0.3354492,2.0871429l0.3354797,2.4063568l0.3354492,2.7201843l0.3354492,3.024826
		l0.3354492,3.3166809l0.3354492,3.5920258l0.3355103,3.8474426l0.3354492,4.0798035l0.3353882,4.2862091l0.3355103,4.4639282
		l0.3354492,4.6108551l0.3354492,4.7250061l0.3354492,4.8049774l0.3354492,4.8497009l0.3354797,4.8587189l0.3354492,4.8318024
		l0.3354492,4.7693481l0.3354492,4.6720886l0.3354492,4.5413513l0.3355103,4.3787842l0.3354492,4.1864624l0.3354492,3.9667053
		l0.3354492,3.7224426l0.3354492,3.456604l0.3354492,3.1725769l0.3354797,2.8739014l0.3354187,2.5641785l0.3354797,2.2471619
		l0.3354492,1.9266968l0.3354492,1.6066284l0.3354797,1.2905579l0.3354187,0.9821777l0.3355103,0.684967l0.3354492,0.4020691
		l0.3354492,0.1365356l0.3354492-0.1089783l0.3354492-0.3322449l0.3354492-0.5310974l0.3354797-0.7040405l0.3354492-0.849884
		l0.3354492-0.9679871l0.3354492-1.0578003l0.3354492-1.1195679l0.3354492-1.1536865l0.3354492-1.1610107l0.3355103-1.1429749
		l0.3354492-1.1011047l0.3354492-1.037323l0.3354492-0.9538879l0.3354492-0.8533325l0.3354492-0.7381897l0.3354797-0.6114502
		l0.3354492-0.4760437l0.3354492-0.3348999l0.3354492-0.1910095l0.3354492-0.0474854l0.3354797,0.0929565l0.3354492,0.2274475
		l0.3354797,0.3534851l0.3354492,0.468689l0.3354492,0.5710144l0.3354492,0.6585999l0.3354492,0.72995l0.3354492,0.7840271
		l0.3354797,0.8199158l0.3354492,0.8371887l0.3354492,0.8358459l0.3354492,0.8160706l0.3354492,0.7785339l0.3354797,0.7243042
		l0.3354797,0.65448l0.3354492,0.5708008l0.3354492,0.4750671l0.3354492,0.3693237l0.3354492,0.2558594l0.3354492,0.1370239
		l0.3354797,0.0152588l0.3354492-0.1067505l0.3354187-0.226532l0.3354797-0.3415833l0.3355103-0.4495239l0.3354187-0.5479126
		l0.3354797-0.6348267l0.3353882-0.7081909l0.3355103-0.76651l0.3354492-0.8083496l0.3354492-0.83255l0.3354492-0.8385925
		l0.3354797-0.8260193l0.3354187-0.7947083l0.3354797-0.7451477l0.3354492-0.678009l0.3354492-0.5943298l0.3354492-0.495575
		l0.3354492-0.3833923l0.3355103-0.2598572l0.3354492-0.1271973l0.3354492,0.0119324l0.3354492,0.1549988l0.3354797,0.2990417
		l0.3354187,0.4411621l0.3354492,0.5783386l0.3354797,0.7075195l0.3354492,0.8257751l0.3354492,0.9302368l0.3354492,1.018219
		l0.3355103,1.0871277l0.3354187,1.1346741l0.3354797,1.158844l0.3353882,1.1579895l0.3355103,1.1306152l0.3354492,1.0758362
		l0.3354492,0.993103l0.3354797,0.8820801l0.3354492,0.743103l0.3354187,0.5767822l0.3355103,0.3842773l0.3354797,0.1669922
		l0.3354187-0.0731506l0.3354187-0.3339539l0.3354492-0.612793l0.3355103-0.9067078l0.3354492-1.2125854l0.3354492-1.5270996
		l0.3354492-1.8464966l0.3354797-2.1672058l0.3354187-2.4854736l0.3354797-2.7973938l0.3354492-3.0991211l0.3354492-3.3871765
		l0.3354492-3.6578674l0.3355103-3.9078369l0.3354492-4.1339417l0.3354187-4.3334351l0.3354492-4.5036011l0.3355103-4.6425476
		l0.3354492-4.7482147l0.3354492-4.8195038l0.3354492-4.8553467"/>
</g>
<g>
	<line class="st0" x1="590.1533813" y1="320.6246033" x2="590.1533813" y2="169.0117493"/>
	<line class="st0" x1="656.6328735" y1="320.6246033" x2="656.6328735" y2="169.0117493"/>
	<line class="st0" x1="723.1123047" y1="320.6246033" x2="723.1123047" y2="169.0117493"/>
	<line class="st0" x1="763" y1="320.6246033" x2="550.2657471" y2="320.6246033"/>
	<line class="st0" x1="763" y1="295.3558044" x2="550.2657471" y2="295.3558044"/>
	<line class="st0" x1="763" y1="270.0870056" x2="550.2657471" y2="270.0870056"/>
	<line class="st0" x1="763" y1="244.8181763" x2="550.2657471" y2="244.8181763"/>
	<line class="st0" x1="763" y1="219.5493622" x2="550.2657471" y2="219.5493622"/>
	<line class="st0" x1="763" y1="194.2805786" x2="550.2657471" y2="194.2805786"/>
	<line class="st0" x1="763" y1="169.0117493" x2="550.2657471" y2="169.0117493"/>
	<line class="st1" x1="550.2657471" y1="320.6246033" x2="763" y2="320.6246033"/>
	<line class="st1" x1="550.2657471" y1="169.0117493" x2="763" y2="169.0117493"/>
	<line class="st1" x1="590.1533813" y1="320.6246033" x2="590.1533813" y2="318.4972839"/>
	<line class="st1" x1="656.6328735" y1="320.6246033" x2="656.6328735" y2="318.4972839"/>
	<line class="st1" x1="723.1123047" y1="320.6246033" x2="723.1123047" y2="318.4972839"/>
	<line class="st1" x1="590.1533813" y1="169.0117493" x2="590.1533813" y2="171.1390839"/>
	<line class="st1" x1="656.6328735" y1="169.0117493" x2="656.6328735" y2="171.1390839"/>
	<line class="st1" x1="723.1123047" y1="169.0117493" x2="723.1123047" y2="171.1390839"/>
</g>
<g transform="translate(190.5,427.6667)">
	<g class="st2">
		<path class="st3" d="M395.0322266-93.9987106v-0.9472656h2.8935547v0.9472656H395.0322266z"/>
		<path class="st3" d="M398.7050781-93.7057419l0.9892578-0.0834961c0.0732422,0.480957,0.2431641,0.8432617,0.5107422,1.0854492
			c0.2666016,0.2426758,0.5878906,0.3637695,0.9648438,0.3637695c0.453125,0,0.8369141-0.1708984,1.1513672-0.5126953
			c0.3134766-0.3417969,0.4707031-0.7954102,0.4707031-1.3603516c0-0.5375977-0.1503906-0.9614258-0.4521484-1.2714844
			c-0.3017578-0.3105469-0.6972656-0.4658203-1.1855469-0.4658203c-0.3037109,0-0.5771484,0.0688477-0.8212891,0.206543
			s-0.4365234,0.3164063-0.5761719,0.5366211l-0.8837891-0.1152344l0.7431641-3.9399414h3.8144531v0.8999023h-3.0615234
			l-0.4130859,2.0615234c0.4609375-0.3208008,0.9433594-0.4814453,1.4492188-0.4814453
			c0.6699219,0,1.2353516,0.2319336,1.6953125,0.6958008c0.4609375,0.4638672,0.6904297,1.0605469,0.6904297,1.7895508
			c0,0.6943359-0.2021484,1.2944336-0.6064453,1.7998047c-0.4921875,0.6210938-1.1630859,0.9316406-2.0146484,0.9316406
			c-0.6972656,0-1.2666016-0.1953125-1.7080078-0.5859375S398.7685547-93.0602341,398.7050781-93.7057419z"/>
	</g>
</g>
<g transform="translate(358,427.6667)">
	<g class="st2">
		<path class="st3" d="M295.9013672-95.4796677c0-0.9067383,0.09375-1.6367188,0.2802734-2.1894531
			c0.1865234-0.5532227,0.4638672-0.9794922,0.8320313-1.2797852c0.3681641-0.2998047,0.8310547-0.449707,1.3896484-0.449707
			c0.4111328,0,0.7724609,0.0830078,1.0830078,0.2485352s0.5664063,0.4047852,0.7685547,0.7167969
			s0.3613281,0.6923828,0.4765625,1.140625s0.1728516,1.0527344,0.1728516,1.8129883
			c0,0.8999023-0.0927734,1.6264648-0.2773438,2.1796875c-0.1855469,0.5527344-0.4619141,0.9799805-0.8300781,1.2817383
			c-0.3671875,0.3017578-0.8320313,0.4526367-1.3935547,0.4526367c-0.7402344,0-1.3203125-0.2651367-1.7431641-0.7954102
			C296.1542969-92.9991989,295.9013672-94.0387497,295.9013672-95.4796677z M296.8701172-95.4796677
			c0,1.2592773,0.1474609,2.0976563,0.4414063,2.5141602c0.2949219,0.4169922,0.6591797,0.6254883,1.0917969,0.6254883
			c0.4316406,0,0.7958984-0.2094727,1.0908203-0.6279297s0.4414063-1.2558594,0.4414063-2.5117188
			c0-1.2626953-0.1464844-2.1015625-0.4414063-2.5166016s-0.6621094-0.6225586-1.1015625-0.6225586
			c-0.4326172,0-0.7783203,0.1831055-1.0361328,0.5493164C297.0322266-97.6022263,296.8701172-96.738945,296.8701172-95.4796677z"/>
	</g>
</g>
<g transform="translate(525.5,427.6667)">
	<g class="st2">
		<path class="st3" d="M194.8808594-93.7057419l0.9892578-0.0834961c0.0732422,0.480957,0.2431641,0.8432617,0.5107422,1.0854492
			c0.2666016,0.2426758,0.5878906,0.3637695,0.9648438,0.3637695c0.453125,0,0.8369141-0.1708984,1.1513672-0.5126953
			c0.3134766-0.3417969,0.4707031-0.7954102,0.4707031-1.3603516c0-0.5375977-0.1503906-0.9614258-0.4521484-1.2714844
			c-0.3017578-0.3105469-0.6972656-0.4658203-1.1855469-0.4658203c-0.3037109,0-0.5771484,0.0688477-0.8212891,0.206543
			s-0.4365234,0.3164063-0.5761719,0.5366211l-0.8837891-0.1152344l0.7431641-3.9399414h3.8144531v0.8999023h-3.0615234
			l-0.4130859,2.0615234c0.4609375-0.3208008,0.9433594-0.4814453,1.4492188-0.4814453
			c0.6699219,0,1.2353516,0.2319336,1.6953125,0.6958008c0.4609375,0.4638672,0.6904297,1.0605469,0.6904297,1.7895508
			c0,0.6943359-0.2021484,1.2944336-0.6064453,1.7998047c-0.4921875,0.6210938-1.1630859,0.9316406-2.0146484,0.9316406
			c-0.6972656,0-1.2666016-0.1953125-1.7080078-0.5859375S194.9443359-93.0602341,194.8808594-93.7057419z"/>
	</g>
</g>
<g>
	<line class="st1" x1="550.2657471" y1="320.6246033" x2="550.2657471" y2="169.0117493"/>
	<line class="st1" x1="763" y1="320.6246033" x2="763" y2="169.0117493"/>
	<line class="st1" x1="550.2657471" y1="320.6246033" x2="552.3930664" y2="320.6246033"/>
	<line class="st1" x1="550.2657471" y1="295.3558044" x2="552.3930664" y2="295.3558044"/>
	<line class="st1" x1="550.2657471" y1="270.0870056" x2="552.3930664" y2="270.0870056"/>
	<line class="st1" x1="550.2657471" y1="244.8181763" x2="552.3930664" y2="244.8181763"/>
	<line class="st1" x1="550.2657471" y1="219.5493622" x2="552.3930664" y2="219.5493622"/>
	<line class="st1" x1="550.2657471" y1="194.2805786" x2="552.3930664" y2="194.2805786"/>
	<line class="st1" x1="550.2657471" y1="169.0117493" x2="552.3930664" y2="169.0117493"/>
	<line class="st1" x1="763" y1="320.6246033" x2="760.8726807" y2="320.6246033"/>
	<line class="st1" x1="763" y1="295.3558044" x2="760.8726807" y2="295.3558044"/>
	<line class="st1" x1="763" y1="270.0870056" x2="760.8726807" y2="270.0870056"/>
	<line class="st1" x1="763" y1="244.8181763" x2="760.8726807" y2="244.8181763"/>
	<line class="st1" x1="763" y1="219.5493622" x2="760.8726807" y2="219.5493622"/>
	<line class="st1" x1="763" y1="194.2805786" x2="760.8726807" y2="194.2805786"/>
	<line class="st1" x1="763" y1="169.0117493" x2="760.8726807" y2="169.0117493"/>
</g>
<g>
	<path class="st4" d="M573.0922852,244.8181763l0.3348389-37.1092682l0.3348389-20.2559204l0.3348389-0.4546356l0.3348389,8.1828461
		l0.3348389,4.0235443l0.3348389-3.2097168l0.3347778-4.4313049l0.3348999,0.0188599l0.3347778,3.4061584l0.3348389,1.8480988
		l0.3348389-1.7437897l0.3348389-2.5083618l0.3348389,0.0566864l0.3348389,2.1798401l0.3348389,1.1967621l0.3347778-1.2226257
		l0.3348999-1.7641602l0.3347778,0.0680695l0.3348389,1.6247559l0.3348389,0.8865509l0.3348389-0.9596558l0.3347778-1.3743134
		l0.3348999,0.0739441l0.3347778,1.3131866l0.3348389,0.7073059l0.3348389-0.8043365l0.3348389-1.1382904l0.3348389,0.0782623
		l0.3348389,1.1177368l0.3348389,0.5922394l0.3347778-0.7046051l0.3348999-0.9831848l0.3347778,0.0822449l0.3348999,0.9871063
		l0.3347778,0.5134583l0.3348389-0.6376801l0.3348389-0.8763885l0.3348389,0.0864105l0.3348389,0.8969727l0.3348389,0.4572601
		l0.3348389-0.5921631l0.3347778-0.8009644l0.3348999,0.0910034l0.3347778,0.8342285l0.3348389,0.4163818l0.3348389-0.5618439
		l0.3348389-0.7477417l0.3348389,0.0963287l0.3348389,0.7915192l0.3348389,0.3864594l0.3347778-0.5431976l0.3348999-0.7111053
		l0.3347778,0.1025543l0.3348389,0.7645416l0.3348389,0.3648529l0.3348389-0.5342102l0.3348389-0.687851l0.3348389,0.1099243
		l0.3348389,0.7508087l0.3347778,0.3499451l0.3348999-0.5338287l0.3347778-0.6761017l0.3348389,0.1187897l0.3348389,0.749054
		l0.3348389,0.3408051l0.3347778-0.5418243l0.3348999-0.6751251l0.3347778,0.1295471l0.3348389,0.7592621l0.3348389,0.3369141
		l0.3348389-0.5586243l0.3348389-0.6848755l0.3348389,0.1427307l0.3348389,0.7820282l0.3348389,0.3383179l0.3348389-0.5854187
		l0.3347778-0.7063599l0.3348999,0.1591644l0.3347778,0.8193817l0.3348389,0.3453369l0.3348389-0.6243134l0.3348389-0.7416687
		l0.3348389,0.180069l0.3348389,0.8747101l0.3348389,0.359024l0.3347778-0.6789246l0.3348999-0.7945404l0.3347778,0.2072144
		l0.3348389,0.9539032l0.3348389,0.381134l0.3348389-0.755249l0.3348389-0.8712158l0.3348389,0.2436523l0.3348389,1.066925
		l0.3347778,0.4148712l0.3348999-0.8635559l0.3347778-0.9831848l0.3348389,0.2945709l0.3348389,1.2319183l0.3348389,0.4663086
		l0.3348389-1.0230713l0.3348389-1.1517029l0.3347778,0.3699799l0.3348389,1.484375l0.3348389,0.5473938l0.3348389-1.2731476
		l0.3348389-1.4218292l0.3348389,0.491745l0.3348389,1.9038239l0.3347778,0.6858215l0.3348999-1.7091675l0.3347778-1.9067078
		l0.3348389,0.7184143l0.3348389,2.7120361l0.3348389,0.9617462l0.3348389-2.6351624l0.3348389-2.9925995l0.3348389,1.2776642
		l0.3347778,4.8447113l0.3348999,1.7419586l0.3347778-5.8265381l0.3348389-7.4189911l0.3348389,4.7564392l0.3348389,25.4242859
		l0.3348389,38.990387l0.3348389,34.0962372l0.3348389,14.9032593l0.3348389-3.0776672l0.3348389-8.0830994l0.3347778-2.0342712
		l0.3348999,4.2463074l0.3347778,3.6274414l0.3348389-1.2305298l0.3348389-3.4704285l0.3348389-0.9234009l0.3348389,2.3224792
		l0.3348389,2.0715027l0.3348389-0.796814l0.3347778-2.2328186l0.3348999-0.5851746l0.3347778,1.6247864l0.3348389,1.4574585
		l0.3348389-0.6064758l0.3348389-1.664917l0.3348389-0.4228516l0.3348389,1.2695618l0.3347778,1.1329041l0.3348999-0.5019836
		l0.3348389-1.3438416l0.3347778-0.3282776l0.3348389,1.0583801l0.3348389,0.9351807l0.3348389-0.4378662l0.3348389-1.1412964
		l0.3348389-0.2668152l0.3347778,0.921814l0.3348389,0.8044434l0.3348389-0.3962402l0.3348389-1.0052795l0.3348389-0.2240295
		l0.3348389,0.8293152l0.3348389,0.7138672l0.3348389-0.368866l0.3348389-0.9108276l0.3347778-0.192688l0.3348389,0.765564
		l0.3348389,0.649353l0.3348389-0.3512268l0.3348389-0.8445129l0.3348389-0.1689758l0.3348389,0.7221069l0.3347778,0.6031799
		l0.3348999-0.341095l0.3347778-0.7987061l0.3348999-0.1504517l0.3347778,0.6940308l0.3348389,0.5706482l0.3348389-0.3369446
		l0.3348389-0.7689819l0.3348389-0.1357727l0.3348389,0.6785889l0.3347778,0.5490723l0.3348389-0.3381958l0.3348999-0.752655
		l0.3347778-0.1238708l0.3348389,0.6742859l0.3348389,0.5367432l0.3348389-0.344696l0.3348389-0.7484741l0.3348389-0.1141357
		l0.3347778,0.6806335l0.3348389,0.5329285l0.3348389-0.3566284l0.3348389-0.7561035l0.3348389-0.1060791l0.3348389,0.6979675
		l0.3348389,0.5375671l0.3348389-0.3747559l0.3348389-0.7762451l0.3347778-0.0992737l0.3348389,0.7275696l0.3348389,0.551239
		l0.3348389-0.4002686l0.3348389-0.81073l0.3348389-0.0935059l0.3348389,0.7719421l0.3347778,0.5754089l0.3348999-0.4352417
		l0.3347778-0.8627319l0.3348999-0.088623l0.3347778,0.8354492l0.3348389,0.6127319l0.3348389-0.4831238l0.3348389-0.9379883
		l0.3348389-0.0842285l0.3348389,0.9249878l0.3348389,0.6679382l0.3347778-0.5493469l0.3348999-1.0462341l0.3347778-0.0802612
		l0.3348389,1.0531921l0.3347778,0.7493896l0.3348999-0.644043l0.3348389-1.2050476l0.3348389-0.0762024l0.3347778,1.2430725
		l0.3348389,0.8728333l0.3348999-0.7861938l0.3347778-1.4493408l0.3348389-0.0713196l0.3348389,1.54245l0.3348389,1.0721436
		l0.3347778-1.0179749l0.3348999-1.8576965l0.3347778-0.0635376l0.3348389,2.0682068l0.3348389,1.4324951l0.3348389-1.4526978
		l0.3348389-2.6520386l0.3348389-0.0445251l0.3348389,3.198822l0.3347778,2.2496643l0.3348999-2.5358276l0.3347778-4.7946167
		l0.3348389,0.0539856l0.3348389,7.243042l0.3348389,5.7205811l0.3348389-9.6488037l0.3348389-30.1256104l0.3348389-39.6299286
		l0.3347778-30.1256104l0.3348999-9.6488037l0.3347778,5.7205658l0.3348389,7.2430573l0.3348389,0.0539703l0.3348389-4.7946167
		l0.3348389-2.5358276l0.3348389,2.2496643l0.3348389,3.1988373l0.3348389-0.0445251l0.3348389-2.6520386l0.3347778-1.452713
		l0.3348999,1.4325104l0.3347778,2.0682068l0.3348389-0.0635376l0.3348389-1.8576965l0.3348389-1.0179901l0.3348389,1.0721588
		l0.3348389,1.54245l0.3347778-0.0713196l0.3348389-1.4493408l0.3348999-0.7862091l0.3347778,0.8728485l0.3348389,1.2430725
		l0.3348389-0.0762024l0.3348389-1.2050934l0.3348389-0.6439514l0.3348389,0.7493286l0.3347778,1.0531921l0.3348389-0.080246
		l0.3348389-1.0462494l0.3348389-0.5493317l0.3348389,0.667923l0.3348389,0.9250031l0.3348389-0.0842285l0.3347778-0.9380035
		l0.3348999-0.4831085l0.3347778,0.6127625l0.3348389,0.8354187l0.3348389-0.088623l0.3348389-0.8627167l0.3348389-0.4352875
		l0.3348389,0.5754242l0.3348389,0.7719574l0.3347778-0.0935516l0.3348999-0.8106995l0.3347778-0.4002533l0.3348389,0.551239
		l0.3348389,0.7275848l0.3348389-0.0993042l0.3348389-0.7762451l0.3348389-0.3747406l0.3348389,0.5375824l0.3348389,0.697937
		l0.3347778-0.1060944l0.3348389-0.756073l0.3348999-0.3566437l0.3347778,0.5329437l0.3348389,0.6806335l0.3348389-0.114151
		l0.3348389-0.7484589l0.3348389-0.344696l0.3348389,0.5367584l0.3347778,0.6742706l0.3348389-0.1238708l0.3348999-0.752655
		l0.3347778-0.3382416l0.3348389,0.5491028l0.3348389,0.6786041l0.3348389-0.1358185l0.3347778-0.7689362l0.3348999-0.3369598
		l0.3347778,0.5706482l0.3348389,0.6940918l0.3348389-0.1504974l0.3348389-0.7987061l0.3348389-0.341095l0.3348389,0.6031647
		l0.3348389,0.7220917l0.3347778-0.1689453l0.3348999-0.8445129l0.3347778-0.3512421l0.3348999,0.649353l0.3347778,0.765564
		l0.3348389-0.192688l0.3348389-0.9108276l0.3348389-0.3688354l0.3348389,0.7138519l0.3347778,0.8292999l0.3348999-0.223999
		l0.3347778-1.0052948l0.3348389-0.3962555l0.3348389,0.8044586l0.3348389,0.9218292l0.3347778-0.2668304l0.3348999-1.1413116
		l0.3348389-0.437851l0.3348389,0.9351654l0.3347778,1.0583954l0.3348389-0.3282776l0.3348389-1.3438416l0.3348389-0.5019379
		l0.3348389,1.132843l0.3348389,1.269577l0.3348389-0.4228516l0.3347778-1.664917l0.3348999-0.6064911l0.3347778,1.4574585
		l0.3348389,1.6248016l0.3348389-0.5851746l0.3348389-2.2328339l0.3348389-0.7967987l0.3348389,2.0714874l0.3348389,2.3224945
		l0.3347778-0.9234009l0.3348999-3.4704285l0.3347778-1.2305298l0.3348389,3.6274414l0.3348389,4.2463074l0.3348389-2.0342712
		l0.3348389-8.0830994l0.3348389-3.0776672l0.3348389,14.9032745l0.3347778,34.0962219l0.3348999,38.990387l0.3347778,25.4242859
		l0.3348389,4.7564392l0.3348389-7.4190063l0.3348389-5.8265381l0.3348389,1.7419739l0.3348389,4.844696l0.3348389,1.2776794
		l0.3348389-2.9926147l0.3348389-2.6351624l0.3347778,0.9617615l0.3348389,2.7120361l0.3348389,0.7184448l0.3348389-1.9067383
		l0.3348389-1.7091675l0.3348389,0.6858215l0.3348389,1.9038086l0.3348389,0.4917603l0.3347778-1.4218445l0.3348389-1.2731323
		l0.3348389,0.5473938l0.3348389,1.484375l0.3348389,0.3699646l0.3348389-1.1517029l0.3348389-1.0230713l0.3347778,0.4663086
		l0.3348999,1.2319336l0.3347778,0.2945557l0.3348389-0.9831848l0.3348389-0.8635559l0.3348389,0.4148865l0.3348389,1.066925
		l0.3348389,0.2436523l0.3348389-0.8712158l0.3347778-0.755249l0.3348999,0.381134l0.3347778,0.9538574l0.3348389,0.2072144
		l0.3348389-0.7944946l0.3348389-0.6789246l0.3348389,0.3590393l0.3348389,0.8746948l0.3347778,0.1800537l0.3348389-0.7416687
		l0.3348999-0.6242981l0.3347778,0.3453369l0.3348389,0.8193665l0.3348389,0.1591492l0.3348389-0.7063293l0.3348389-0.5854187
		l0.3348389,0.3383179l0.3347778,0.7820435l0.3348999,0.1427002l0.3348389-0.6848755l0.3347778-0.5586243l0.3348389,0.3369446
		l0.3348389,0.7592468l0.3348389,0.1295471l0.3348389-0.6751099l0.3348389-0.5418396l0.3347778,0.3407898l0.3348999,0.749054
		l0.3347778,0.1188354l0.3348389-0.6761475l0.3348389-0.5338135l0.3348389,0.3499451l0.3348389,0.7507935l0.3348389,0.1099548
		l0.3348389-0.6878662l0.3348389-0.5342102l0.3348389,0.3648376l0.3347778,0.7645874l0.3348389,0.1025391l0.3348389-0.7111206
		l0.3348389-0.5432434l0.3348389,0.3865051l0.3347778,0.7915039l0.3348389,0.096344l0.3348999-0.7477417l0.3348389-0.5618896
		l0.3347778,0.4164124l0.3348389,0.8342285l0.3348389,0.0910034l0.3348389-0.8009644l0.3347778-0.5921631l0.3348999,0.4572754
		l0.3347778,0.8969727l0.3348999,0.0863647l0.3348389-0.8763428l0.3347778-0.6376953l0.3348999,0.5134583l0.3347778,0.9871216
		l0.3348389,0.0822449l0.3347778-0.9831848l0.3348999-0.7046204l0.3347778,0.5922546l0.3348389,1.1177368l0.3348999,0.0782166
		l0.3347778-1.1382446l0.3348389-0.8043518l0.3348389,0.7073059l0.3348389,1.3132019l0.3348389,0.0739441l0.3348389-1.3743286
		l0.3347778-0.9596252l0.3348389,0.8865662l0.3348389,1.6247559l0.3348999,0.0680237l0.3347778-1.7641602l0.3348389-1.2225952
		l0.3348389,1.1967468l0.3348389,2.1798401l0.3348389,0.0566711l0.3348389-2.5083618l0.3348389-1.7437744l0.3347778,1.8480835
		l0.3348389,3.4061584l0.3348389,0.0188599l0.3348389-4.4313049l0.3348389-3.2096863l0.3348389,4.0235291l0.3348389,8.1828003
		l0.3347778-0.4545898l0.3348999-20.2559204l0.3347778-37.1092834"/>
</g>
<g transform="translate(190.875,427.6667)">
	<g class="st2">
		<path class="st3" d="M-2.1166966-268.9743042v-5.5566406h0.842285v0.7792969
			c0.1743164-0.2719727,0.4062501-0.4907227,0.6958008-0.6567383c0.2895508-0.1655273,0.6191406-0.2485352,0.9892578-0.2485352
			c0.4111328,0,0.7490234,0.0854492,1.012207,0.2563477c0.2631836,0.1713867,0.4492188,0.4101563,0.5571289,0.7172852
			c0.4399415-0.6489258,1.0117189-0.9736328,1.7163087-0.9736328c0.5512693,0,0.9750974,0.152832,1.2714841,0.4580078
			S5.4126-273.4235229,5.4126-272.7887573v3.8144531H4.4760766v-3.5004883c0-0.3769531-0.0307617-0.6479492-0.0917969-0.8134766
			c-0.0610352-0.1660156-0.171875-0.2993164-0.3320313-0.4003906c-0.1606443-0.1010742-0.3491209-0.1518555-0.5649412-0.1518555
			c-0.3911133,0-0.715332,0.1298828-0.9736328,0.3896484c-0.2578125,0.2602539-0.387207,0.6762695-0.387207,1.2480469v3.2285156
			H1.1850611v-3.6103516c0-0.418457-0.0771484-0.7324219-0.2304687-0.9418945s-0.4047852-0.3139648-0.753418-0.3139648
			c-0.2651367,0-0.5102539,0.0698242-0.7353516,0.2094727c-0.2250977,0.1391602-0.3881836,0.3432617-0.4892579,0.6118164
			c-0.1010742,0.269043-0.1513672,0.65625-0.1513672,1.1616211v2.8833008H-2.1166966z"/>
		<path class="st3" d="M14.7421904-273.4845581H9.677249v-0.8793945h5.0649414V-273.4845581z M14.7421904-271.1564331H9.677249
			v-0.8789063h5.0649414V-271.1564331z"/>
		<path class="st3" d="M23.7104511-269.8795776v0.9052734h-5.0703125c-0.0068359-0.2265625,0.0297852-0.4448242,0.1098633-0.6542969
			c0.1293945-0.3452148,0.3359375-0.6850586,0.6201172-1.0200195s0.6953125-0.722168,1.2324219-1.1616211
			c0.8334961-0.6835938,1.3969727-1.2250977,1.6899414-1.6245117s0.4394531-0.7773438,0.4394531-1.1333008
			c0-0.3730469-0.1333008-0.6879883-0.3999023-0.9443359c-0.2670898-0.2563477-0.6152344-0.3842773-1.0439453-0.3842773
			c-0.4536133,0-0.8164063,0.1357422-1.0883789,0.4077148c-0.2719727,0.2724609-0.4101563,0.6489258-0.4135742,1.1303711
			l-0.9677734-0.0991211c0.065918-0.722168,0.3154297-1.2724609,0.7480469-1.6508789s1.0131836-0.5678711,1.7426758-0.5678711
			c0.7358398,0,1.3183594,0.2041016,1.7475586,0.6123047c0.4287109,0.4082031,0.6435547,0.9135742,0.6435547,1.5170898
			c0,0.3071289-0.0629883,0.6088867-0.1884766,0.9052734c-0.1254883,0.296875-0.3339844,0.6088867-0.625,0.9365234
			c-0.2915039,0.328125-0.7753906,0.7783203-1.4521484,1.3500977c-0.5654297,0.4746094-0.9282227,0.7963867-1.0883789,0.965332
			c-0.1606445,0.1694336-0.2929688,0.3393555-0.3979492,0.5102539H23.7104511z"/>
	</g>
	<g transform="translate(190.875,427.6667)">
		<g class="st2">
			<path class="st3" d="M35.2207069-696.6405029v-5.5566406h0.8427734v0.7792969
				c0.1748047-0.2719727,0.40625-0.4907227,0.6962891-0.6567383c0.2890625-0.1655273,0.6191406-0.2485352,0.9882813-0.2485352
				c0.4121094,0,0.7490234,0.0854492,1.0126953,0.2563477c0.2636719,0.1713867,0.4492188,0.4101563,0.5576172,0.7172852
				c0.4394531-0.6489258,1.0117188-0.9736328,1.7158203-0.9736328c0.5507813,0,0.9746094,0.152832,1.2714844,0.4580078
				s0.4453125,0.7753906,0.4453125,1.4101563v3.8144531h-0.9375v-3.5004883c0-0.3769531-0.0302734-0.6479492-0.0908203-0.8134766
				c-0.0615234-0.1660156-0.171875-0.2993164-0.3330078-0.4003906c-0.1601563-0.1010742-0.3486328-0.1518555-0.5644531-0.1518555
				c-0.390625,0-0.7148438,0.1298828-0.9736328,0.3896484c-0.2578125,0.2602539-0.3867188,0.6762695-0.3867188,1.2480469v3.2285156
				h-0.9423828v-3.6103516c0-0.418457-0.0761719-0.7324219-0.2294922-0.9418945
				c-0.1542969-0.2094727-0.4052734-0.3139648-0.7539063-0.3139648c-0.265625,0-0.5097656,0.0698242-0.7353516,0.2094727
				c-0.2246094,0.1391602-0.3876953,0.3432617-0.4892578,0.6118164c-0.1005859,0.269043-0.1513672,0.65625-0.1513672,1.1616211
				v2.8833008H35.2207069z"/>
			<path class="st3" d="M52.0800819-701.1507568h-5.0644531v-0.8793945h5.0644531V-701.1507568z M52.0800819-698.8226318h-5.0644531
				v-0.8789063h5.0644531V-698.8226318z"/>
			<path class="st3" d="M56.1035194-698.6654053l0.9414063-0.1254883c0.1083984,0.5336914,0.2919922,0.9179688,0.5527344,1.1538086
				c0.2597656,0.2353516,0.5761719,0.3530273,0.9492188,0.3530273c0.4433594,0,0.8173828-0.1533203,1.1220703-0.4604492
				c0.3056641-0.3071289,0.4580078-0.6870117,0.4580078-1.140625c0-0.4326172-0.1416016-0.7890625-0.4238281-1.0703125
				c-0.2822266-0.2807617-0.6416016-0.4208984-1.078125-0.4208984c-0.1777344,0-0.3994141,0.034668-0.6640625,0.1044922
				l0.1044922-0.8266602c0.0625,0.0068359,0.1132813,0.0102539,0.1513672,0.0102539
				c0.4013672,0,0.7626953-0.1044922,1.0839844-0.3139648c0.3203125-0.2089844,0.4804688-0.5317383,0.4804688-0.9677734
				c0-0.3452148-0.1162109-0.6313477-0.3496094-0.8583984c-0.234375-0.2265625-0.5361328-0.3398438-0.9052734-0.3398438
				c-0.3662109,0-0.671875,0.1152344-0.9160156,0.3452148c-0.2441406,0.2304688-0.4013672,0.5756836-0.4707031,1.0361328
				l-0.9423828-0.1674805c0.1152344-0.6313477,0.3769531-1.1206055,0.7851563-1.4677734s0.9160156-0.5205078,1.5224609-0.5205078
				c0.4189453,0,0.8037109,0.0898438,1.15625,0.2695313s0.6220703,0.4248047,0.8085938,0.7348633
				c0.1865234,0.3105469,0.2802734,0.6401367,0.2802734,0.9892578c0,0.331543-0.0888672,0.6328125-0.2675781,0.9052734
				c-0.1777344,0.2719727-0.4404297,0.4882813-0.7900391,0.6484375c0.4541016,0.1049805,0.8066406,0.3217773,1.0576172,0.6518555
				c0.2509766,0.3295898,0.3769531,0.7421875,0.3769531,1.2373047c0,0.6699219-0.2451172,1.2373047-0.7333984,1.703125
				s-1.1054688,0.6987305-1.8515625,0.6987305c-0.6738281,0-1.2324219-0.2006836-1.6777344-0.6020508
				C56.4199257-697.5072021,56.1660194-698.0272217,56.1035194-698.6654053z"/>
		</g>
		<g transform="translate(190.875,427.6667)">
			<g class="st2">
				<path class="st3" d="M70.5751953-1124.3071289v-5.5566406h0.8427734v0.7792969
					c0.1748047-0.2719727,0.40625-0.4907227,0.6962891-0.6567383c0.2890625-0.1655273,0.6191406-0.2485352,0.9882813-0.2485352
					c0.4121094,0,0.7490234,0.0854492,1.0126953,0.2563477c0.2636719,0.1713867,0.4492188,0.4101563,0.5576172,0.7172852
					c0.4394531-0.6489258,1.0117188-0.9736328,1.7158203-0.9736328c0.5507813,0,0.9746094,0.152832,1.2714844,0.4580078
					s0.4453125,0.7753906,0.4453125,1.4101563v3.8144531h-0.9375v-3.5004883c0-0.3769531-0.0302734-0.6479492-0.0908203-0.8134766
					c-0.0615234-0.1660156-0.171875-0.2993164-0.3330078-0.4003906c-0.1601563-0.1010742-0.3486328-0.1518555-0.5644531-0.1518555
					c-0.390625,0-0.7148438,0.1298828-0.9736328,0.3896484c-0.2578125,0.2602539-0.3867188,0.6762695-0.3867188,1.2480469v3.2285156
					h-0.9423828v-3.6103516c0-0.418457-0.0761719-0.7324219-0.2294922-0.9418945
					c-0.1542969-0.2094727-0.4052734-0.3139648-0.7539063-0.3139648c-0.265625,0-0.5097656,0.0698242-0.7353516,0.2094727
					c-0.2246094,0.1391602-0.3876953,0.3432617-0.4892578,0.6118164c-0.1005859,0.269043-0.1513672,0.65625-0.1513672,1.1616211
					v2.8833008H70.5751953z"/>
				<path class="st3" d="M87.4345703-1128.8173828h-5.0644531v-0.8793945h5.0644531V-1128.8173828z M87.4345703-1126.4892578
					h-5.0644531v-0.8789063h5.0644531V-1126.4892578z"/>
				<path class="st3" d="M96.4023438-1125.2124023v0.9052734h-5.0703125
					c-0.0068359-0.2265625,0.0302734-0.4448242,0.1103516-0.6542969c0.1289063-0.3452148,0.3349609-0.6850586,0.6201172-1.0200195
					c0.2841797-0.3349609,0.6943359-0.722168,1.2314453-1.1616211c0.8339844-0.6835938,1.3974609-1.2250977,1.6904297-1.6245117
					s0.4394531-0.7773438,0.4394531-1.1333008c0-0.3730469-0.1328125-0.6879883-0.4003906-0.9443359
					c-0.2666016-0.2563477-0.6142578-0.3842773-1.0439453-0.3842773c-0.453125,0-0.8154297,0.1357422-1.0878906,0.4077148
					c-0.2724609,0.2724609-0.4101563,0.6489258-0.4130859,1.1303711l-0.96875-0.0991211
					c0.0664063-0.722168,0.3164063-1.2724609,0.7490234-1.6508789c0.4316406-0.378418,1.0126953-0.5678711,1.7421875-0.5678711
					c0.7353516,0,1.3183594,0.2041016,1.7470703,0.6123047c0.4296875,0.4082031,0.6435547,0.9135742,0.6435547,1.5170898
					c0,0.3071289-0.0625,0.6088867-0.1875,0.9052734c-0.1259766,0.296875-0.3349609,0.6088867-0.6259766,0.9365234
					c-0.2910156,0.328125-0.7753906,0.7783203-1.4521484,1.3500977c-0.5644531,0.4746094-0.9277344,0.7963867-1.0878906,0.965332
					c-0.1601563,0.1694336-0.2929688,0.3393555-0.3974609,0.5102539H96.4023438z"/>
				<path class="st3" d="M97.4121094-1126.3164063l0.9892578-0.0834961c0.0732422,0.480957,0.2431641,0.8432617,0.5107422,1.0854492
					c0.2666016,0.2426758,0.5878906,0.3637695,0.9648438,0.3637695c0.453125,0,0.8369141-0.1708984,1.1513672-0.5126953
					c0.3134766-0.3417969,0.4707031-0.7954102,0.4707031-1.3603516c0-0.5375977-0.1503906-0.9614258-0.4521484-1.2714844
					c-0.3017578-0.3105469-0.6972656-0.4658203-1.1855469-0.4658203c-0.3037109,0-0.5771484,0.0688477-0.8212891,0.206543
					s-0.4365234,0.3164063-0.5761719,0.5366211l-0.8837891-0.1152344l0.7431641-3.9399414h3.8144531v0.8999023h-3.0615234
					l-0.4130859,2.0615234c0.4609375-0.3208008,0.9433594-0.4814453,1.4492188-0.4814453
					c0.6699219,0,1.2353516,0.2319336,1.6953125,0.6958008c0.4609375,0.4638672,0.6904297,1.0605469,0.6904297,1.7895508
					c0,0.6943359-0.2021484,1.2944336-0.6064453,1.7998047c-0.4921875,0.6210938-1.1630859,0.9316406-2.0146484,0.9316406
					c-0.6972656,0-1.2666016-0.1953125-1.7080078-0.5859375S97.4755859-1125.6708984,97.4121094-1126.3164063z"/>
			</g>
		</g>
	</g>
</g>
</svg>
