<?xml version="1.0" encoding="utf-8"?>
<!-- Generator: Adobe Illustrator 19.0.0, SVG Export Plug-In . SVG Version: 6.00 Build 0)  -->
<svg version="1.1" id="Layer_1" xmlns="http://www.w3.org/2000/svg" xmlns:xlink="http://www.w3.org/1999/xlink" x="0px" y="0px"
	 viewBox="246 154 679.333313 184" style="enable-background:new 246 154 679.333313 184;" xml:space="preserve">
<style type="text/css">
	.st0{fill:none;stroke:#262626;stroke-linejoin:round;stroke-miterlimit:10;stroke-opacity:0.149;}
	.st1{fill:none;stroke:#262626;stroke-linecap:square;stroke-linejoin:round;stroke-miterlimit:10;}
	.st2{enable-background:new    ;}
	.st3{fill:#262626;}
	.st4{fill:none;stroke:#0072BD;stroke-linejoin:round;stroke-miterlimit:10;}
</style>
<g>
	<line class="st0" x1="289.9243469" y1="319.6105347" x2="289.9243469" y2="173.2408142"/>
	<line class="st0" x1="371.855896" y1="319.6105347" x2="371.855896" y2="173.2408142"/>
	<line class="st0" x1="453.7874451" y1="319.6105347" x2="453.7874451" y2="173.2408142"/>
	<line class="st0" x1="474.8141174" y1="319.6105347" x2="268.8976746" y2="319.6105347"/>
	<line class="st0" x1="474.8141174" y1="292.9978638" x2="268.8976746" y2="292.9978638"/>
	<line class="st0" x1="474.8141174" y1="266.3851624" x2="268.8976746" y2="266.3851624"/>
	<line class="st0" x1="474.8141174" y1="239.7724915" x2="268.8976746" y2="239.7724915"/>
	<line class="st0" x1="474.8141174" y1="213.1598358" x2="268.8976746" y2="213.1598358"/>
	<line class="st0" x1="474.8141174" y1="186.5471649" x2="268.8976746" y2="186.5471649"/>
	<line class="st1" x1="268.8976746" y1="319.6105347" x2="474.8141174" y2="319.6105347"/>
	<line class="st1" x1="268.8976746" y1="173.2408142" x2="474.8141174" y2="173.2408142"/>
	<line class="st1" x1="289.9243469" y1="319.6105347" x2="289.9243469" y2="317.5513611"/>
	<line class="st1" x1="371.855896" y1="319.6105347" x2="371.855896" y2="317.5513611"/>
	<line class="st1" x1="453.7874451" y1="319.6105347" x2="453.7874451" y2="317.5513611"/>
	<line class="st1" x1="289.9243469" y1="173.2408142" x2="289.9243469" y2="175.2999725"/>
	<line class="st1" x1="371.855896" y1="173.2408142" x2="371.855896" y2="175.2999725"/>
	<line class="st1" x1="453.7874451" y1="173.2408142" x2="453.7874451" y2="175.2999725"/>
</g>
<g transform="translate(144.7324,426.6667)">
	<g class="st2">
		<path class="st3" d="M140.7187653-94.4303589v-0.9165039h2.8007813v0.9165039H140.7187653z"/>
		<path class="st3" d="M144.2744293-94.1466675l0.9570313-0.0810547c0.0708008,0.4658203,0.2353516,0.8164063,0.4936523,1.0507813
			c0.2583008,0.2348633,0.5698242,0.3520508,0.9345703,0.3520508c0.4389648,0,0.8105469-0.1655273,1.1142578-0.4960938
			c0.3041992-0.3310547,0.4560547-0.7700195,0.4560547-1.3168945c0-0.5200195-0.1459961-0.9301758-0.4384766-1.230957
			c-0.2919922-0.300293-0.6743164-0.4506836-1.1469727-0.4506836c-0.2939453,0-0.5585938,0.0668945-0.7949219,0.2001953
			c-0.2368164,0.1333008-0.4223633,0.3061523-0.5571289,0.519043l-0.855957-0.1113281l0.7192383-3.8139648h3.6918945v0.8710938
			h-2.9628906l-0.3999023,1.9956055c0.4458008-0.3105469,0.9130859-0.4658203,1.402832-0.4658203
			c0.6484375,0,1.1953125,0.2246094,1.6411133,0.6733398c0.4458008,0.4492188,0.668457,1.0268555,0.668457,1.7324219
			c0,0.671875-0.1958008,1.2524414-0.5874023,1.7421875c-0.4760742,0.6010742-1.1264648,0.9013672-1.9501953,0.9013672
			c-0.675293,0-1.2265625-0.1889648-1.6533203-0.5668945C144.5791168-93.0206909,144.3349762-93.5221558,144.2744293-94.1466675z"/>
	</g>
</g>
<g transform="translate(358,426.6667)">
	<g class="st2">
		<path class="st3" d="M11.2128906-95.8634644c0-0.8779297,0.090332-1.5844727,0.2709961-2.1196289
			c0.1801758-0.5351563,0.4487305-0.9482422,0.8051758-1.2387695c0.355957-0.2900391,0.8041992-0.4355469,1.3447266-0.4355469
			c0.3984375,0,0.7475586,0.0805664,1.0483398,0.2407227c0.300293,0.1606445,0.5488281,0.3916016,0.7446289,0.6938477
			s0.3491211,0.6704102,0.4609375,1.1040039c0.1113281,0.434082,0.1669922,1.019043,0.1669922,1.7553711
			c0,0.8710938-0.0893555,1.5742188-0.2685547,2.109375c-0.1787109,0.5351563-0.4462891,0.9487305-0.8027344,1.2407227
			s-0.8061523,0.4379883-1.3496094,0.4379883c-0.7158203,0-1.2783203-0.2563477-1.6865234-0.7695313
			C11.4575195-93.4630737,11.2128906-94.4689331,11.2128906-95.8634644z M12.1499023-95.8634644
			c0,1.21875,0.1425781,2.0297852,0.4277344,2.4335938c0.2851563,0.4033203,0.637207,0.6049805,1.0561523,0.6049805
			c0.418457,0,0.7705078-0.2026367,1.0561523-0.6079102c0.2851563-0.4047852,0.4277344-1.215332,0.4277344-2.4306641
			c0-1.2226563-0.1425781-2.034668-0.4277344-2.4365234c-0.2856445-0.4018555-0.6411133-0.6025391-1.0664063-0.6025391
			c-0.418457,0-0.7529297,0.1772461-1.0029297,0.5317383C12.3066406-97.9181519,12.1499023-97.0827026,12.1499023-95.8634644z"/>
	</g>
</g>
<g transform="translate(571.2676,426.6667)">
	<g class="st2">
		<path class="st3" d="M-120.1230469-94.1466675l0.9570313-0.0810547c0.0712891,0.4658203,0.2353516,0.8164063,0.4941406,1.0507813
			c0.2578125,0.2348633,0.5693359,0.3520508,0.9345703,0.3520508c0.4384766,0,0.8095703-0.1655273,1.1142578-0.4960938
			c0.3037109-0.3310547,0.4550781-0.7700195,0.4550781-1.3168945c0-0.5200195-0.1455078-0.9301758-0.4375-1.230957
			c-0.2919922-0.300293-0.6748047-0.4506836-1.1474609-0.4506836c-0.2939453,0-0.5585938,0.0668945-0.7949219,0.2001953
			s-0.421875,0.3061523-0.5576172,0.519043l-0.8554688-0.1113281l0.71875-3.8139648h3.6923828v0.8710938h-2.9628906
			l-0.4003906,1.9956055c0.4462891-0.3105469,0.9140625-0.4658203,1.4033203-0.4658203
			c0.6484375,0,1.1953125,0.2246094,1.640625,0.6733398c0.4462891,0.4492188,0.6689453,1.0268555,0.6689453,1.7324219
			c0,0.671875-0.1962891,1.2524414-0.5878906,1.7421875c-0.4755859,0.6010742-1.1259766,0.9013672-1.9492188,0.9013672
			c-0.6757813,0-1.2265625-0.1889648-1.6542969-0.5668945C-119.8183594-93.0206909-120.0625-93.5221558-120.1230469-94.1466675z"/>
	</g>
</g>
<g>
	<line class="st1" x1="268.8976746" y1="319.6105347" x2="268.8976746" y2="173.2408142"/>
	<line class="st1" x1="474.8141174" y1="319.6105347" x2="474.8141174" y2="173.2408142"/>
	<line class="st1" x1="268.8976746" y1="319.6105347" x2="270.9568176" y2="319.6105347"/>
	<line class="st1" x1="268.8976746" y1="292.9978638" x2="270.9568176" y2="292.9978638"/>
	<line class="st1" x1="268.8976746" y1="266.3851624" x2="270.9568176" y2="266.3851624"/>
	<line class="st1" x1="268.8976746" y1="239.7724915" x2="270.9568176" y2="239.7724915"/>
	<line class="st1" x1="268.8976746" y1="213.1598358" x2="270.9568176" y2="213.1598358"/>
	<line class="st1" x1="268.8976746" y1="186.5471649" x2="270.9568176" y2="186.5471649"/>
	<line class="st1" x1="474.8141174" y1="319.6105347" x2="472.7549744" y2="319.6105347"/>
	<line class="st1" x1="474.8141174" y1="292.9978638" x2="472.7549744" y2="292.9978638"/>
	<line class="st1" x1="474.8141174" y1="266.3851624" x2="472.7549744" y2="266.3851624"/>
	<line class="st1" x1="474.8141174" y1="239.7724915" x2="472.7549744" y2="239.7724915"/>
	<line class="st1" x1="474.8141174" y1="213.1598358" x2="472.7549744" y2="213.1598358"/>
	<line class="st1" x1="474.8141174" y1="186.5471649" x2="472.7549744" y2="186.5471649"/>
</g>
<g transform="translate(79.3333,416)">
	<g class="st2">
		<path class="st3" d="M179.7501984-95.8256836c0-0.8779297,0.090332-1.5844727,0.2709961-2.1196289
			c0.1801758-0.5351563,0.4487305-0.9482422,0.8051758-1.2387695c0.355957-0.2900391,0.8041992-0.4355469,1.3447266-0.4355469
			c0.3984375,0,0.7475586,0.0805664,1.0483398,0.2407227c0.300293,0.1606445,0.5488281,0.3916016,0.7446289,0.6938477
			s0.3491211,0.6704102,0.4609375,1.1040039c0.1113281,0.434082,0.1669922,1.019043,0.1669922,1.7553711
			c0,0.8710938-0.0893555,1.5742188-0.2685547,2.109375c-0.1787109,0.5351563-0.4462891,0.9487305-0.8027344,1.2407227
			s-0.8061523,0.4379883-1.3496094,0.4379883c-0.7158203,0-1.2783203-0.2563477-1.6865234-0.7695313
			C179.9948273-93.425293,179.7501984-94.4311523,179.7501984-95.8256836z M180.6872101-95.8256836
			c0,1.21875,0.1425781,2.0297852,0.4277344,2.4335938c0.2851563,0.4033203,0.637207,0.6049805,1.0561523,0.6049805
			c0.418457,0,0.7705078-0.2026367,1.0561523-0.6079102c0.2851563-0.4047852,0.4277344-1.215332,0.4277344-2.4306641
			c0-1.2226563-0.1425781-2.034668-0.4277344-2.4365234c-0.2856445-0.4018555-0.6411133-0.6025391-1.0664063-0.6025391
			c-0.418457,0-0.7529297,0.1772461-1.0029297,0.5317383C180.8439484-97.8803711,180.6872101-97.0449219,180.6872101-95.8256836z"/>
	</g>
</g>
<g transform="translate(79.3333,346.7273)">
	<g class="st2">
		<path class="st3" d="M171.2990265-53.1652832c0-0.8779297,0.090332-1.5844727,0.2709961-2.1196289
			c0.1801758-0.5351563,0.4487305-0.9482422,0.8051758-1.2387695c0.355957-0.2900391,0.8041992-0.4355469,1.3447266-0.4355469
			c0.3984375,0,0.7475586,0.0805664,1.0483398,0.2407227c0.300293,0.1606445,0.5488281,0.3916016,0.7446289,0.6938477
			s0.3491211,0.6704102,0.4609375,1.1040039c0.1113281,0.434082,0.1669922,1.019043,0.1669922,1.7553711
			c0,0.8710938-0.0893555,1.5742188-0.2685547,2.109375c-0.1787109,0.5351563-0.4462891,0.9487305-0.8027344,1.2407227
			s-0.8061523,0.4379883-1.3496094,0.4379883c-0.7158203,0-1.2783203-0.2563477-1.6865234-0.7695313
			C171.5436554-50.7648926,171.2990265-51.770752,171.2990265-53.1652832z M172.2360382-53.1652832
			c0,1.21875,0.1425781,2.0297852,0.4277344,2.4335938c0.2851563,0.4033203,0.637207,0.6049805,1.0561523,0.6049805
			c0.418457,0,0.7705078-0.2026367,1.0561523-0.6079102c0.2851563-0.4047852,0.4277344-1.215332,0.4277344-2.4306641
			c0-1.2226563-0.1425781-2.034668-0.4277344-2.4365234c-0.2856445-0.4018555-0.6411133-0.6025391-1.0664063-0.6025391
			c-0.418457,0-0.7529297,0.1772461-1.0029297,0.5317383C172.3927765-55.2199707,172.2360382-54.3845215,172.2360382-53.1652832z"/>
		<path class="st3" d="M177.5788116-49.5036621v-1.0380859h1.0385742v1.0380859H177.5788116z"/>
		<path class="st3" d="M184.7404327-50.3796387v0.8759766h-4.9077148c-0.0068359-0.2192383,0.0288086-0.4306641,0.1064453-0.6333008
			c0.125-0.3339844,0.324707-0.6630859,0.6000977-0.9873047s0.6728516-0.6992188,1.1928711-1.1245117
			c0.8071289-0.6616211,1.3520508-1.1860352,1.6357422-1.5727539c0.2836914-0.3862305,0.4257813-0.7519531,0.4257813-1.0961914
			c0-0.3613281-0.1293945-0.6660156-0.3876953-0.9145508c-0.2583008-0.2480469-0.5952148-0.3720703-1.0102539-0.3720703
			c-0.4389648,0-0.7900391,0.1318359-1.0537109,0.3950195c-0.2631836,0.2631836-0.3964844,0.6279297-0.3999023,1.0942383
			l-0.9370117-0.0966797c0.0639648-0.6987305,0.3056641-1.2314453,0.7241211-1.5976563s0.980957-0.5498047,1.6865234-0.5498047
			c0.7124023,0,1.2763672,0.1977539,1.6918945,0.5927734c0.4150391,0.3950195,0.6225586,0.8847656,0.6225586,1.46875
			c0,0.2973633-0.0605469,0.5893555-0.1821289,0.8764648c-0.121582,0.2866211-0.3232422,0.5888672-0.6049805,0.90625
			c-0.2822266,0.3173828-0.7504883,0.7529297-1.4057617,1.3066406c-0.546875,0.4594727-0.8979492,0.7709961-1.0532227,0.9345703
			c-0.1557617,0.1640625-0.2836914,0.3286133-0.3852539,0.4941406H184.7404327z"/>
	</g>
</g>
<g transform="translate(79.3333,277.4545)">
	<g class="st2">
		<path class="st3" d="M171.2990265-10.5052795c0-0.8779297,0.090332-1.5844727,0.2709961-2.1196289
			c0.1801758-0.5351563,0.4487305-0.9482422,0.8051758-1.2387695c0.355957-0.2900391,0.8041992-0.4355469,1.3447266-0.4355469
			c0.3984375,0,0.7475586,0.0805664,1.0483398,0.2407227c0.300293,0.1606445,0.5488281,0.3916016,0.7446289,0.6938477
			s0.3491211,0.6704102,0.4609375,1.1040039c0.1113281,0.434082,0.1669922,1.019043,0.1669922,1.7553711
			c0,0.8710938-0.0893555,1.5742188-0.2685547,2.109375c-0.1787109,0.5351567-0.4462891,0.9487309-0.8027344,1.2407231
			s-0.8061523,0.4379883-1.3496094,0.4379883c-0.7158203,0-1.2783203-0.2563477-1.6865234-0.7695313
			C171.5436554-8.1048889,171.2990265-9.1107483,171.2990265-10.5052795z M172.2360382-10.5052795
			c0,1.21875,0.1425781,2.0297852,0.4277344,2.4335938c0.2851563,0.4033208,0.637207,0.6049809,1.0561523,0.6049809
			c0.418457,0,0.7705078-0.2026367,1.0561523-0.6079106c0.2851563-0.4047852,0.4277344-1.215332,0.4277344-2.4306641
			c0-1.2226563-0.1425781-2.034668-0.4277344-2.4365234c-0.2856445-0.4018555-0.6411133-0.6025391-1.0664063-0.6025391
			c-0.418457,0-0.7529297,0.1772461-1.0029297,0.5317383C172.3927765-12.559967,172.2360382-11.7245178,172.2360382-10.5052795z"/>
		<path class="st3" d="M177.5788116-6.843658v-1.0380859h1.0385742v1.0380859H177.5788116z"/>
		<path class="st3" d="M182.8717804-6.843658v-1.7778325h-3.2211914v-0.8354492l3.3881836-4.8115234h0.7446289v4.8115234h1.0029297
			v0.8354492h-1.0029297v1.7778325H182.8717804z M182.8717804-9.4569397v-3.3481445l-2.324707,3.3481445H182.8717804z"/>
	</g>
</g>
<g transform="translate(79.3333,208.1818)">
	<g class="st2">
		<path class="st3" d="M171.2990265,32.1546326c0-0.8779297,0.090332-1.5844727,0.2709961-2.1196289
			c0.1801758-0.5351563,0.4487305-0.9482422,0.8051758-1.2387695c0.355957-0.2900391,0.8041992-0.4355469,1.3447266-0.4355469
			c0.3984375,0,0.7475586,0.0805664,1.0483398,0.2407227c0.300293,0.1606445,0.5488281,0.3916016,0.7446289,0.6938477
			s0.3491211,0.6704102,0.4609375,1.1040039c0.1113281,0.434082,0.1669922,1.019043,0.1669922,1.7553711
			c0,0.8710938-0.0893555,1.5742188-0.2685547,2.109375c-0.1787109,0.5351563-0.4462891,0.9487305-0.8027344,1.2407227
			s-0.8061523,0.4379883-1.3496094,0.4379883c-0.7158203,0-1.2783203-0.2563477-1.6865234-0.7695313
			C171.5436554,34.5550232,171.2990265,33.5491638,171.2990265,32.1546326z M172.2360382,32.1546326
			c0,1.21875,0.1425781,2.0297852,0.4277344,2.4335938c0.2851563,0.4033203,0.637207,0.6049805,1.0561523,0.6049805
			c0.418457,0,0.7705078-0.2026367,1.0561523-0.6079102c0.2851563-0.4047852,0.4277344-1.215332,0.4277344-2.4306641
			c0-1.2226563-0.1425781-2.034668-0.4277344-2.4365234c-0.2856445-0.4018555-0.6411133-0.6025391-1.0664063-0.6025391
			c-0.418457,0-0.7529297,0.1772461-1.0029297,0.5317383C172.3927765,30.0999451,172.2360382,30.9353943,172.2360382,32.1546326z"/>
		<path class="st3" d="M177.5788116,35.8162537v-1.0380859h1.0385742v1.0380859H177.5788116z"/>
		<path class="st3" d="M184.6798859,30.2093201l-0.9067383,0.0712891c-0.0810547-0.3579102-0.1958008-0.6181641-0.3442383-0.7802734
			c-0.246582-0.2597656-0.5507813-0.3896484-0.9116211-0.3896484c-0.2905273,0-0.5454102,0.0810547-0.7651367,0.2426758
			c-0.2866211,0.2094727-0.5131836,0.5151367-0.6787109,0.9169922c-0.1650391,0.4018555-0.2514648,0.9741211-0.2583008,1.7167969
			c0.2197266-0.3339844,0.4882813-0.5825195,0.8056641-0.7446289c0.3173828-0.1616211,0.6499023-0.2426758,0.9975586-0.2426758
			c0.6079102,0,1.125,0.2236328,1.5522461,0.6708984s0.640625,1.0253906,0.640625,1.7348633
			c0,0.4658203-0.1000977,0.8989258-0.3012695,1.2988281c-0.2006836,0.4003906-0.4770508,0.706543-0.828125,0.9194336
			c-0.3510742,0.2124023-0.7495117,0.3188477-1.1953125,0.3188477c-0.7597656,0-1.3793945-0.2792969-1.8583984-0.8378906
			c-0.4794922-0.559082-0.7192383-1.4799805-0.7192383-2.7631836c0-1.4350586,0.2646484-2.4780273,0.7949219-3.1298828
			c0.4628906-0.5673828,1.0854492-0.8510742,1.8691406-0.8510742c0.5839844,0,1.0625,0.1640625,1.4355469,0.4916992
			C184.381546,29.1795349,184.6056671,29.6321716,184.6798859,30.2093201z M180.9572296,33.4104919
			c0,0.3139648,0.0664063,0.6147461,0.2001953,0.9013672c0.1333008,0.2871094,0.3198242,0.5058594,0.5595703,0.65625
			c0.2397461,0.1499023,0.4912109,0.2250977,0.7543945,0.2250977c0.3852539,0,0.7158203-0.1552734,0.9926758-0.4658203
			s0.4155273-0.7329102,0.4155273-1.2661133c0-0.5131836-0.1367188-0.9174805-0.4101563-1.2133789
			c-0.2734375-0.2954102-0.6181641-0.4428711-1.0332031-0.4428711c-0.4121094,0-0.7617188,0.1474609-1.0483398,0.4428711
			C181.1007843,32.5437927,180.9572296,32.9309998,180.9572296,33.4104919z"/>
	</g>
</g>
<g transform="translate(79.3333,138.9091)">
	<g class="st2">
		<path class="st3" d="M171.2990265,74.8150177c0-0.8779297,0.090332-1.5844727,0.2709961-2.1196289
			c0.1801758-0.5351563,0.4487305-0.9482422,0.8051758-1.2387695c0.355957-0.2900391,0.8041992-0.4355469,1.3447266-0.4355469
			c0.3984375,0,0.7475586,0.0805664,1.0483398,0.2407227c0.300293,0.1606445,0.5488281,0.3916016,0.7446289,0.6938477
			s0.3491211,0.6704102,0.4609375,1.1040039c0.1113281,0.434082,0.1669922,1.019043,0.1669922,1.7553711
			c0,0.8710938-0.0893555,1.5742188-0.2685547,2.109375c-0.1787109,0.5351563-0.4462891,0.9487305-0.8027344,1.2407227
			s-0.8061523,0.4379883-1.3496094,0.4379883c-0.7158203,0-1.2783203-0.2563477-1.6865234-0.7695313
			C171.5436554,77.2154083,171.2990265,76.209549,171.2990265,74.8150177z M172.2360382,74.8150177
			c0,1.21875,0.1425781,2.0297852,0.4277344,2.4335938c0.2851563,0.4033203,0.637207,0.6049805,1.0561523,0.6049805
			c0.418457,0,0.7705078-0.2026367,1.0561523-0.6079102c0.2851563-0.4047852,0.4277344-1.215332,0.4277344-2.4306641
			c0-1.2226563-0.1425781-2.034668-0.4277344-2.4365234c-0.2856445-0.4018555-0.6411133-0.6025391-1.0664063-0.6025391
			c-0.418457,0-0.7529297,0.1772461-1.0029297,0.5317383C172.3927765,72.7603302,172.2360382,73.5957794,172.2360382,74.8150177z"/>
		<path class="st3" d="M177.5788116,78.4766388v-1.0380859h1.0385742v1.0380859H177.5788116z"/>
		<path class="st3" d="M181.3522491,74.4502716c-0.378418-0.1386719-0.6586914-0.3359375-0.8408203-0.5927734
			c-0.1821289-0.2563477-0.2734375-0.5639648-0.2734375-0.921875c0-0.5400391,0.1938477-0.9941406,0.5825195-1.3623047
			c0.3881836-0.3681641,0.9047852-0.5522461,1.5498047-0.5522461c0.6484375,0,1.1699219,0.1884766,1.5649414,0.5649414
			s0.5927734,0.8349609,0.5927734,1.375c0,0.3447266-0.0908203,0.644043-0.2709961,0.8989258
			c-0.1806641,0.2553711-0.4550781,0.4516602-0.8232422,0.590332c0.4560547,0.1484375,0.8027344,0.3881836,1.0410156,0.7192383
			c0.237793,0.3305664,0.3569336,0.7260742,0.3569336,1.1850586c0,0.6347656-0.2246094,1.168457-0.6738281,1.6005859
			c-0.4487305,0.4321289-1.0400391,0.6479492-1.7724609,0.6479492c-0.7329102,0-1.3237305-0.2167969-1.7729492-0.6508789
			c-0.4487305-0.4335938-0.6733398-0.9746094-0.6733398-1.6230469c0-0.4829102,0.1220703-0.887207,0.3671875-1.2128906
			C180.5509796,74.7901154,180.8996124,74.5684357,181.3522491,74.4502716z M180.8761749,76.3340607
			c0,0.2602539,0.0615234,0.5117188,0.1845703,0.7548828c0.1235352,0.2431641,0.3066406,0.4311523,0.5498047,0.5644531
			c0.2431641,0.1337891,0.5048828,0.2001953,0.7851563,0.2001953c0.4355469,0,0.7949219-0.1401367,1.0786133-0.4204102
			s0.425293-0.6362305,0.425293-1.0683594c0-0.4389648-0.1459961-0.8022461-0.4379883-1.0893555
			c-0.2919922-0.2866211-0.6577148-0.4301758-1.0966797-0.4301758c-0.4287109,0-0.7841797,0.1416016-1.065918,0.425293
			S180.8761749,75.9087677,180.8761749,76.3340607z M181.169632,72.9053497c0,0.3510742,0.1132813,0.6381836,0.3393555,0.8608398
			c0.2265625,0.2231445,0.5200195,0.3344727,0.8813477,0.3344727c0.3510742,0,0.6391602-0.1103516,0.8637695-0.331543
			s0.3369141-0.4921875,0.3369141-0.8129883c0-0.3344727-0.1157227-0.6152344-0.347168-0.8432617
			s-0.519043-0.3417969-0.8632813-0.3417969c-0.3481445,0-0.6367188,0.1113281-0.8662109,0.3339844
			C181.2843781,72.3282013,181.169632,72.5948029,181.169632,72.9053497z"/>
	</g>
</g>
<g transform="translate(79.3333,69.6364)">
	<g class="st2">
		<path class="st3" d="M183.1837921,121.1360626h-0.9116211v-5.809082c-0.2192383,0.2089844-0.5073242,0.418457-0.8632813,0.6279297
			c-0.3564453,0.2094727-0.6762695,0.3662109-0.9599609,0.4707031v-0.8808594
			c0.5097656-0.2397461,0.9555664-0.5302734,1.3369141-0.871582c0.3818359-0.3408203,0.6518555-0.671875,0.8105469-0.9926758
			h0.5874023V121.1360626z"/>
	</g>
</g>
<g>
	<path class="st4" d="M268.8976746,291.3736267l0.4126282-0.0716553l0.4126892-0.2146301l0.4126587-0.3571777l0.4126587-0.4987488
		l0.4126282-0.6391296l0.4126892-0.777771l0.4126282-0.9145813l0.4126892-1.0489807l0.4126282-1.1807251l0.4126892-1.3094788
		l0.4126282-1.434967l0.4126892-1.5567322l0.4126282-1.6746216l0.4126892-1.788208l0.4126282-1.8972778l0.4126892-2.0015259
		l0.4126282-2.1007385l0.4126892-2.1945801l0.4126282-2.2829285l0.4126892-2.3653259l0.4126282-2.441925l0.4126892-2.5121765
		l0.4126282-2.5761108l0.4126892-2.6335449l0.4126282-2.6842804l0.4126587-2.7281647l0.4126587-2.765152l0.4126892-2.7952118
		l0.4126282-2.8180542l0.4126587-2.8338165l0.4126587-2.8423309l0.4126587-2.8437195l0.4126587-2.8378754l0.4126587-2.8247986
		l0.4126587-2.8046112l0.4126587-2.7772217l0.4126587-2.7428741l0.4126587-2.7015381l0.4126587-2.6533661l0.4126587-2.5984192
		l0.4126587-2.5369263l0.4126587-2.4689941l0.4126587-2.3947906l0.4126587-2.3144836l0.4126587-2.2283936l0.4126587-2.1365356
		l0.4126587-2.0393372l0.4126587-1.9369965l0.4126587-1.8296204l0.4126587-1.7177582l0.4126587-1.6014252l0.4126587-1.4810486
		l0.4126587-1.3569336l0.4126587-1.2293549l0.4126587-1.0987396l0.4126587-0.9652252l0.4126587-0.829361l0.4126587-0.6913147
		l0.4126587-0.5515594l0.4126587-0.4104156l0.4126282-0.2681427l0.4126892-0.1253204l0.4126282,0.0178986l0.4126892,0.1610413
		l0.4126282,0.3038483l0.4126892,0.4458008l0.4126282,0.5866241l0.4126892,0.7260132l0.4126282,0.8635406l0.4126892,0.9988556
		l0.4126282,1.1316528l0.4126892,1.2615814l0.4126282,1.3882751l0.4126892,1.5115356l0.4126282,1.6308899l0.4126892,1.7461395
		l0.4126282,1.8569031l0.4126892,1.9630432l0.4126282,2.0641632l0.4126892,2.1600037l0.4126282,2.2504425l0.4126892,2.3351135
		l0.4126282,2.4139557l0.4126892,2.486557l0.4126282,2.5529022l0.4126892,2.612793l0.4126282,2.6660461l0.4126892,2.7124786
		l0.4126282,2.7521362l0.4126892,2.7847595l0.4126282,2.8102875l0.4126587,2.8287506l0.4126587,2.8399811l0.4126587,2.8440704
		l0.4126587,2.8409271l0.4126587,2.8305359l0.4126587,2.8129883l0.4126587,2.7883301l0.4126587,2.7565918l0.4126587,2.7178192
		l0.4126587,2.6722412l0.4126587,2.6197968l0.4126587,2.5607605l0.4126587,2.4952087l0.4126587,2.4233093l0.4126587,2.3453369
		l0.4126587,2.2613525l0.4126587,2.1716003l0.4126587,2.0764465l0.4126587,1.9759521l0.4126587,1.8704529l0.4126587,1.7602234
		l0.4126587,1.6455383l0.4126587,1.5266113l0.4126892,1.4039307l0.4126282,1.2776184l0.4126892,1.1480408l0.4126282,1.0155945
		l0.4126282,0.8805542l0.4126892,0.7433167l0.4126282,0.6041565l0.4126892,0.463501l0.4126282,0.3215942l0.4126892,0.1789246
		l0.4126282,0.0358276l0.4126892-0.1074219l0.4126282-0.2503357l0.4126892-0.3927002l0.4126282-0.5339661l0.4126892-0.6739502
		l0.4126282-0.8121643l0.4126892-0.9484253l0.4126282-1.0821838l0.4126892-1.2131958l0.4126282-1.3411865l0.4126892-1.4657288
		l0.4126282-1.5866089l0.4126892-1.7033691l0.4126282-1.8159485l0.4126892-1.9237976l0.4126282-2.026825l0.4126892-2.1247253
		l0.4126282-2.2171631l0.4126892-2.3040771l0.4126282-2.3850708l0.4126892-2.4600525l0.4126282-2.5287781l0.4126892-2.5911255
		l0.4126282-2.6468201l0.4126587-2.6958923l0.4126587-2.7380829l0.4126587-2.7733307l0.4126587-2.8015442l0.4126587-2.8226624
		l0.4126892-2.8366547l0.4126282-2.8433838l0.4126587-2.8429108l0.4126587-2.8352661l0.4126892-2.8204498l0.4126282-2.7983856
		l0.4126892-2.7693024l0.4126282-2.7332001l0.4126892-2.6901245l0.4126282-2.640274l0.4126892-2.5836639l0.4126282-2.5205231
		l0.4126892-2.4510193l0.4126282-2.3752594l0.4126892-2.2935181l0.4126282-2.2059479l0.4126892-2.1127625l0.4126282-2.0142212
		l0.4126892-1.9105988l0.4126282-1.8020782l0.4126892-1.6890564l0.4126282-1.5716858l0.4126282-1.4503632l0.4126892-1.3253937
		l0.4126892-1.1969757l0.4126282-1.0656128l0.4126587-0.9314575l0.4126587-0.7950134l0.4126892-0.6565552l0.4126282-0.5164032
		l0.4126587-0.3749084l0.4126587-0.2324982l0.4126282-0.0895233l0.4126892,0.0537109l0.4126587,0.1968079l0.4126587,0.339386
		l0.4126282,0.4811401l0.4126892,0.6216278l0.4126587,0.7605743l0.4126587,0.897583l0.4126282,1.0323181l0.4126892,1.1643829
		l0.4126587,1.2935944l0.4126587,1.4194641l0.4126282,1.5417328l0.4126892,1.66008l0.4126587,1.7742615l0.4126587,1.8839111
		l0.4126587,1.9887848l0.4126587,2.0885925l0.4126587,2.1831665l0.4126282,2.2721558l0.4126892,2.3554077l0.4126587,2.4326477
		l0.4126587,2.5037689l0.4126282,2.5684662l0.4126892,2.6267395l0.4126587,2.678299l0.4126587,2.723053l0.4126282,2.7609253
		l0.4126892,2.7918243l0.4126282,2.815567l0.4126892,2.8322296l0.4126282,2.8416901l0.4126892,2.8439484l0.4126282,2.8389893
		l0.4126892,2.826828l0.4126282,2.8074951l0.4126892,2.7810516l0.4126282,2.7475739l0.4126892,2.707077l0.4126282,2.659729
		l0.4126892,2.6056519l0.4126282,2.5449829l0.4126282,2.4778442l0.4126892,2.4043884l0.4126892,2.3248596l0.4126282,2.2394409
		l0.4126892,2.1483459l0.4126282,2.0517883l0.4126587,1.9500122l0.4126587,1.8433533l0.4126892,1.7319641l0.4126282,1.6161804
		l0.4126587,1.4963074l0.4126587,1.3726807l0.4126892,1.2454834l0.4126282,1.1152039l0.4126587,0.9820557l0.4126587,0.8464661
		l0.4126282,0.7086792l0.4126892,0.5691223l0.4126587,0.4281006l0.4126587,0.2859802l0.4126587,0.143219h0.4126587
		l0.4126587-0.143219l0.4126587-0.2859802l0.4126587-0.4281006l0.4126587-0.5691223l0.4126587-0.7086792l0.4126587-0.8464661
		l0.4126587-0.9820557l0.4126282-1.1152039l0.4126892-1.2454834l0.4126587-1.3726807l0.4126587-1.4963074l0.4126282-1.6161804
		l0.4126892-1.7319641l0.4126587-1.8433533l0.4126587-1.9500122l0.4126282-2.0517883l0.4126892-2.1483459l0.4126282-2.2394409
		l0.4126892-2.3248596l0.4126892-2.4043884l0.4126282-2.4778442l0.4126282-2.5449829l0.4126892-2.6056519l0.4126282-2.659729
		l0.4126892-2.707077l0.4126282-2.7475739l0.4126892-2.7810516l0.4126282-2.8074951l0.4126892-2.826828l0.4126282-2.8389893
		l0.4126892-2.8439484l0.4126282-2.8416901l0.4126892-2.8322296l0.4126282-2.815567l0.4126892-2.7918243l0.4126282-2.7609253
		l0.4126282-2.723053l0.4126892-2.678299l0.4126892-2.6267395l0.4126282-2.5684662l0.4126282-2.5037689l0.4126892-2.4326477
		l0.4126892-2.3554077l0.4126282-2.2721558l0.4126587-2.1831665l0.4126587-2.0885925l0.4126587-1.9887848l0.4126587-1.8839111
		l0.4126587-1.7742615l0.4126587-1.66008l0.4126587-1.5417328l0.4126587-1.4194641l0.4126587-1.2935944l0.4126587-1.1643829
		l0.4126587-1.0323181l0.4126587-0.897583l0.4126587-0.7605743l0.4126587-0.6216278l0.4126587-0.4811401l0.4126587-0.339386
		l0.4126587-0.1968079l0.4126892-0.0537109l0.4126282,0.0895233l0.4126587,0.2324982l0.4126587,0.3749084l0.4126282,0.5164032
		l0.4126892,0.6565552l0.4126587,0.7950134l0.4126587,0.9314575l0.4126282,1.0656128l0.4126892,1.1969757l0.4126587,1.3253937
		l0.4126587,1.4503632l0.4126282,1.5716858l0.4126892,1.6890564l0.4126282,1.8020782l0.4126892,1.9105988l0.4126282,2.0142212
		l0.4126892,2.1127625l0.4126282,2.2059479l0.4126892,2.2935181l0.4126282,2.3752594l0.4126892,2.4510193l0.4126282,2.5205231
		l0.4126892,2.5836639l0.4126282,2.640274l0.4126892,2.6901245l0.4126282,2.7332001l0.4126892,2.7693024l0.4126282,2.7983856
		l0.4126892,2.8204498l0.4126282,2.8352661l0.4126892,2.8429108l0.4126282,2.8433838l0.4126892,2.8366547l0.4126282,2.8226624
		l0.4126892,2.8015442l0.4126282,2.7733307l0.4126587,2.7380829l0.4126587,2.6958923l0.4126892,2.6468201l0.4126282,2.5911255
		l0.4126587,2.5287781l0.4126587,2.4600525l0.4126892,2.3850708l0.4126282,2.3040771l0.4126587,2.2171631l0.4126892,2.1247253
		l0.4126282,2.026825l0.4126587,1.9237976l0.4126587,1.8159485l0.4126892,1.7033691l0.4126282,1.5866089l0.4126587,1.4657288
		l0.4126587,1.3411865l0.4126892,1.2131958l0.4126282,1.0821838l0.4126587,0.9484253l0.4126587,0.8121643l0.4126892,0.6739502
		l0.4126282,0.5339661l0.4126587,0.3927002l0.4126587,0.2503357l0.4126892,0.1074219l0.4126282-0.0358276l0.4126587-0.1789246
		l0.4126587-0.3215942l0.4126587-0.463501l0.4126587-0.6041565l0.4126892-0.7433167l0.4126282-0.8805542l0.4126282-1.0155945
		l0.4126892-1.1480408l0.4126282-1.2776184l0.4126892-1.4039307l0.4126282-1.5266113l0.4126892-1.6455383l0.4126282-1.7602234
		l0.4126892-1.8704529l0.4126282-1.9759521l0.4126892-2.0764465l0.4126282-2.1716003l0.4126892-2.2613525l0.4126587-2.3453369
		l0.4126587-2.4233093l0.4126282-2.4952087l0.4126892-2.5607605l0.4126282-2.6197968l0.4126587-2.6722412l0.4126892-2.7178192
		l0.4126587-2.7565918l0.4126587-2.7883301l0.4126587-2.8129883l0.4126282-2.8305359l0.4126587-2.8409271l0.4126587-2.8440704
		l0.4126587-2.8399811l0.4126892-2.8287506l0.4126587-2.8102875l0.4126587-2.7847595l0.4126587-2.7521362l0.4126282-2.7124786
		l0.4126587-2.6660461l0.4126587-2.612793l0.4126587-2.5529022l0.4126892-2.486557l0.4126892-2.4139557l0.4126282-2.3351135
		l0.4126282-2.2504425l0.4126587-2.1600037l0.4126587-2.0641632l0.4126587-1.9630432l0.4126587-1.8569031l0.4126282-1.7461395
		l0.4126892-1.6308899l0.4126892-1.5115356l0.4126282-1.3882751l0.4126587-1.2615814l0.4126587-1.1316528l0.4126892-0.9988556
		l0.4126282-0.8635406l0.4126282-0.7260132l0.4126892-0.5866241l0.4126892-0.4458008l0.4126282-0.3038483l0.4126587-0.1610413
		l0.4126587-0.0178986l0.4126892,0.1253204l0.4126282,0.2681427l0.4126282,0.4104156l0.4126892,0.5515594l0.4126892,0.6913147
		l0.4126282,0.829361l0.4126587,0.9652252l0.4126587,1.0987396l0.4126587,1.2293549l0.4126587,1.3569336l0.4126282,1.4810486
		l0.4126892,1.6014252l0.4126587,1.7177582l0.4126587,1.8296204l0.4126587,1.9369965l0.4126587,2.0393372l0.4126587,2.1365356
		l0.4126587,2.2283936l0.4126282,2.3144836l0.4126892,2.3947906l0.4126587,2.4689941l0.4126587,2.5369263l0.4126587,2.5984192
		l0.4126587,2.6533661l0.4126282,2.7015381l0.4126892,2.7428741l0.4126282,2.7772217l0.4126587,2.8046112l0.4126892,2.8247986
		l0.4126892,2.8378754l0.4126282,2.8437195l0.4126587,2.8423309l0.4126282,2.8338165l0.4126587,2.8180542l0.4126892,2.7952118
		l0.4126282,2.765152l0.4126892,2.7281647l0.4126892,2.6842804l0.4126282,2.6335449l0.4126282,2.5761108l0.4126587,2.5121765
		l0.4126587,2.441925l0.4126892,2.3653259l0.4126282,2.2829285l0.4126892,2.1945801l0.4126892,2.1007385l0.4126282,2.0015259
		l0.4126282,1.8972778l0.4126587,1.788208l0.4126892,1.6746216l0.4126587,1.5567322l0.4126282,1.434967l0.4126282,1.3094788
		l0.4126892,1.1807251l0.4126892,1.0489807l0.4126282,0.9145813l0.4126892,0.777771l0.4126587,0.6391296l0.4126282,0.4987488
		l0.4126587,0.3571777l0.4126282,0.2146301l0.4126892,0.0716553"/>
</g>
<g>
	<line class="st0" x1="511.3832092" y1="319.9946899" x2="511.3832092" y2="173.2408142"/>
	<line class="st0" x1="593.1618652" y1="319.9946899" x2="593.1618652" y2="173.2408142"/>
	<line class="st0" x1="674.9406128" y1="319.9946899" x2="674.9406128" y2="173.2408142"/>
	<line class="st0" x1="695.9280396" y1="319.9946899" x2="490.395752" y2="319.9946899"/>
	<line class="st0" x1="695.9280396" y1="293.3121643" x2="490.395752" y2="293.3121643"/>
	<line class="st0" x1="695.9280396" y1="266.6296387" x2="490.395752" y2="266.6296387"/>
	<line class="st0" x1="695.9280396" y1="239.9471436" x2="490.395752" y2="239.9471436"/>
	<line class="st0" x1="695.9280396" y1="213.2645874" x2="490.395752" y2="213.2645874"/>
	<line class="st0" x1="695.9280396" y1="186.582077" x2="490.395752" y2="186.582077"/>
	<line class="st1" x1="490.395752" y1="319.9946899" x2="695.9280396" y2="319.9946899"/>
	<line class="st1" x1="490.395752" y1="173.2408142" x2="695.9280396" y2="173.2408142"/>
	<line class="st1" x1="511.3832092" y1="319.9946899" x2="511.3832092" y2="317.9393921"/>
	<line class="st1" x1="593.1618652" y1="319.9946899" x2="593.1618652" y2="317.9393921"/>
	<line class="st1" x1="674.9406128" y1="319.9946899" x2="674.9406128" y2="317.9393921"/>
	<line class="st1" x1="511.3832092" y1="173.2408142" x2="511.3832092" y2="175.2961273"/>
	<line class="st1" x1="593.1618652" y1="173.2408142" x2="593.1618652" y2="175.2961273"/>
	<line class="st1" x1="674.9406128" y1="173.2408142" x2="674.9406128" y2="175.2961273"/>
</g>
<g transform="translate(144.6303,427.6667)">
	<g class="st2">
		<path class="st3" d="M362.2798462-95.0460815v-0.9165039h2.8007813v0.9165039H362.2798462z"/>
		<path class="st3" d="M365.8355103-94.7623901l0.9570313-0.0810547c0.0712891,0.4658203,0.2353516,0.8164063,0.4941406,1.0507813
			c0.2578125,0.2348633,0.5693359,0.3520508,0.9345703,0.3520508c0.4384766,0,0.8095703-0.1655273,1.1142578-0.4960938
			c0.3037109-0.3310547,0.4550781-0.7700195,0.4550781-1.3168945c0-0.5200195-0.1455078-0.9301758-0.4375-1.230957
			c-0.2919922-0.300293-0.6748047-0.4506836-1.1474609-0.4506836c-0.2939453,0-0.5585938,0.0668945-0.7949219,0.2001953
			s-0.421875,0.3061523-0.5576172,0.519043l-0.8554688-0.1113281l0.71875-3.8139648h3.6923828v0.8710938h-2.9628906
			l-0.4003906,1.9956055c0.4462891-0.3105469,0.9140625-0.4658203,1.4033203-0.4658203
			c0.6484375,0,1.1953125,0.2246094,1.640625,0.6733398c0.4462891,0.4492188,0.6689453,1.0268555,0.6689453,1.7324219
			c0,0.671875-0.1962891,1.2524414-0.5878906,1.7421875c-0.4755859,0.6010742-1.1259766,0.9013672-1.9492188,0.9013672
			c-0.6757813,0-1.2265625-0.1889648-1.6542969-0.5668945C366.1401978-93.6364136,365.8960571-94.1378784,365.8355103-94.7623901z"
			/>
	</g>
</g>
<g transform="translate(357.5,427.6667)">
	<g class="st2">
		<path class="st3" d="M233.0185547-96.479187c0-0.8779297,0.0898438-1.5844727,0.2705078-2.1196289
			s0.4492188-0.9482422,0.8056641-1.2387695c0.3564453-0.2900391,0.8046875-0.4355469,1.3447266-0.4355469
			c0.3984375,0,0.7480469,0.0805664,1.0478516,0.2407227c0.3007813,0.1606445,0.5488281,0.3916016,0.7451172,0.6938477
			c0.1953125,0.3022461,0.3496094,0.6704102,0.4609375,1.1040039c0.1113281,0.434082,0.1669922,1.019043,0.1669922,1.7553711
			c0,0.8710938-0.0898438,1.5742188-0.2685547,2.109375s-0.4462891,0.9487305-0.8027344,1.2407227
			s-0.8056641,0.4379883-1.3496094,0.4379883c-0.7158203,0-1.2783203-0.2563477-1.6865234-0.7695313
			C233.2626953-94.0787964,233.0185547-95.0846558,233.0185547-96.479187z M233.9550781-96.479187
			c0,1.21875,0.1425781,2.0297852,0.4287109,2.4335938c0.2851563,0.4033203,0.6367188,0.6049805,1.0556641,0.6049805
			s0.7705078-0.2026367,1.0556641-0.6079102c0.2851563-0.4047852,0.4277344-1.215332,0.4277344-2.4306641
			c0-1.2226563-0.1425781-2.034668-0.4277344-2.4365234s-0.640625-0.6025391-1.0654297-0.6025391
			c-0.4189453,0-0.7539063,0.1772461-1.0029297,0.5317383C234.1123047-98.5338745,233.9550781-97.6984253,233.9550781-96.479187z"/>
	</g>
</g>
<g transform="translate(570.3698,427.6667)">
	<g class="st2">
		<path class="st3" d="M101.9280396-94.7623901l0.9570313-0.0810547c0.0712891,0.4658203,0.2353516,0.8164063,0.4941406,1.0507813
			c0.2578125,0.2348633,0.5693359,0.3520508,0.9345703,0.3520508c0.4384766,0,0.8095703-0.1655273,1.1142578-0.4960938
			c0.3037109-0.3310547,0.4550781-0.7700195,0.4550781-1.3168945c0-0.5200195-0.1455078-0.9301758-0.4375-1.230957
			c-0.2919922-0.300293-0.6748047-0.4506836-1.1474609-0.4506836c-0.2939453,0-0.5585938,0.0668945-0.7949219,0.2001953
			s-0.421875,0.3061523-0.5576172,0.519043l-0.8554688-0.1113281l0.71875-3.8139648h3.6923828v0.8710938h-2.9628906
			l-0.4003906,1.9956055c0.4462891-0.3105469,0.9140625-0.4658203,1.4033203-0.4658203
			c0.6484375,0,1.1953125,0.2246094,1.640625,0.6733398c0.4462891,0.4492188,0.6689453,1.0268555,0.6689453,1.7324219
			c0,0.671875-0.1962891,1.2524414-0.5878906,1.7421875c-0.4755859,0.6010742-1.1259766,0.9013672-1.9492188,0.9013672
			c-0.6757813,0-1.2265625-0.1889648-1.6542969-0.5668945C102.2327271-93.6364136,101.9885864-94.1378784,101.9280396-94.7623901z"
			/>
	</g>
</g>
<g>
	<line class="st1" x1="490.395752" y1="319.9946899" x2="490.395752" y2="173.2408142"/>
	<line class="st1" x1="695.9280396" y1="319.9946899" x2="695.9280396" y2="173.2408142"/>
	<line class="st1" x1="490.395752" y1="319.9946899" x2="492.4510498" y2="319.9946899"/>
	<line class="st1" x1="490.395752" y1="293.3121643" x2="492.4510498" y2="293.3121643"/>
	<line class="st1" x1="490.395752" y1="266.6296387" x2="492.4510498" y2="266.6296387"/>
	<line class="st1" x1="490.395752" y1="239.9471436" x2="492.4510498" y2="239.9471436"/>
	<line class="st1" x1="490.395752" y1="213.2645874" x2="492.4510498" y2="213.2645874"/>
	<line class="st1" x1="490.395752" y1="186.582077" x2="492.4510498" y2="186.582077"/>
	<line class="st1" x1="695.9280396" y1="319.9946899" x2="693.8727417" y2="319.9946899"/>
	<line class="st1" x1="695.9280396" y1="293.3121643" x2="693.8727417" y2="293.3121643"/>
	<line class="st1" x1="695.9280396" y1="266.6296387" x2="693.8727417" y2="266.6296387"/>
	<line class="st1" x1="695.9280396" y1="239.9471436" x2="693.8727417" y2="239.9471436"/>
	<line class="st1" x1="695.9280396" y1="213.2645874" x2="693.8727417" y2="213.2645874"/>
	<line class="st1" x1="695.9280396" y1="186.582077" x2="693.8727417" y2="186.582077"/>
</g>
<g>
	<path class="st4" d="M490.395752,307.8614197l0.4118652-0.1845093l0.4118958-0.5514832l0.4118652-0.9124756l0.4119263-1.2634277
		l0.4118652-1.6007996l0.4119263-1.9208984l0.4118652-2.2206421l0.4118958-2.4971619l0.4118652-2.7479248l0.4118958-2.9709473
		l0.4118958-3.1646729l0.4118652-3.3279724l0.4119263-3.4602356l0.4118652-3.5614014l0.4118958-3.6318054l0.4118958-3.6723328
		l0.4118958-3.6842651l0.4118652-3.6691895l0.4119263-3.6292419l0.4118652-3.5667725l0.4118652-3.4844055l0.4119263-3.3848267
		l0.4118652-3.2711487l0.4118958-3.1463013l0.4118652-3.0133057l0.4118958-2.8751068l0.4118958-2.7346039l0.4118652-2.5945587
		l0.4119263-2.4573517l0.4118652-2.3251648l0.4118958-2.2000885l0.4118958-2.0834808l0.4118958-1.9767151l0.4118652-1.8806458
		l0.4119263-1.7957001l0.4118652-1.7221222l0.4118652-1.6595917l0.4119263-1.6075287l0.4118652-1.5652313l0.4118958-1.5313568
		l0.4118652-1.5046844l0.4119263-1.4835663l0.4118652-1.4663849l0.4118652-1.4512482l0.4119263-1.4364471l0.4118652-1.420105
		l0.4118958-1.4004974l0.4118958-1.3759155l0.4118958-1.344986l0.4118652-1.3062592l0.4119263-1.2588654l0.4118652-1.2018433
		l0.4118958-1.134613l0.4118652-1.0570526l0.4118652-0.9691467l0.4119263-0.871109l0.4118652-0.7636719l0.4119263-0.6475983
		l0.4118652-0.5240021l0.4119263-0.3941956l0.4118652-0.2595978l0.4118652-0.1218109l0.4119263,0.017395l0.4118652,0.1565094
		l0.4119263,0.2935944l0.4118652,0.4271545l0.4118652,0.5555573l0.4119263,0.6773376l0.4118652,0.7913971l0.4118652,0.8965302
		l0.4118652,0.9920502l0.4119263,1.0774536l0.4118652,1.1524048l0.4119263,1.21698l0.4118652,1.2716064l0.4119263,1.3167572
		l0.4118652,1.353363l0.4119263,1.3826294l0.4118652,1.405777l0.4118652,1.4244232l0.4119263,1.4402313l0.4118652,1.4549713
		l0.4118652,1.4703827l0.4119263,1.4884033l0.4118652,1.5107574l0.4118652,1.5391083l0.4119263,1.5749512l0.4118652,1.6196289
		l0.4118652,1.6741943l0.4119263,1.7394562l0.4118652,1.8159027l0.4119263,1.9036102l0.4118652,2.0024719l0.4119263,2.1117096
		l0.4118652,2.2306213l0.4118652,2.3576355l0.4119263,2.4912415l0.4118652,2.6293945l0.4118652,2.7698059l0.4118652,2.9099884
		l0.4119263,3.0471344l0.4118652,3.1783752l0.4119263,3.3007355l0.4118652,3.4111786l0.4118652,3.5066986l0.4119263,3.5844116
		l0.4118652,3.6414185l0.4119263,3.675415l0.4118652,3.6838379l0.4119263,3.6649475l0.4118652,3.6170654l0.4118652,3.5390015
		l0.4119263,3.4300842l0.4118652,3.2900391l0.4118652,3.1190491l0.4118652,2.9178772l0.4119263,2.6878052l0.4118652,2.4303589
		l0.4119263,2.1477356l0.4118652,1.8426819l0.4119263,1.5179138l0.4118652,1.1768799l0.4118652,0.8229675l0.4119263,0.460144
		l0.4118652,0.0922852l0.4119263-0.2766113l0.4118652-0.6424561l0.4118652-1.0012512l0.4119263-1.3492126l0.4118652-1.6825562
		l0.4118652-1.9978638l0.4118652-2.2920837l0.4119263-2.5623169l0.4118652-2.806366l0.4119263-3.0221863l0.4118652-3.208374
		l0.4119263-3.3639221l0.4118652-3.4884338l0.4118652-3.5818787l0.4119263-3.6447449l0.4118652-3.677887l0.4119263-3.6829529
		l0.4118652-3.661438l0.4118652-3.6156921l0.4119263-3.5479279l0.4118652-3.460968l0.4118652-3.3576813l0.4119263-3.2408295
		l0.4118652-3.113678l0.4118652-2.9791107l0.4119263-2.8401031l0.4118652-2.6994629l0.4119263-2.559906l0.4118652-2.4237366
		l0.4119263-2.2931671l0.4118652-2.1700745l0.4118652-2.0558167l0.4119263-1.9516754l0.4118652-1.8583679l0.4118652-1.7762604
		l0.4119263-1.7054596l0.4118652-1.6456299l0.4118652-1.5960846l0.4119263-1.556015l0.4118652-1.5240479l0.4119263-1.4989624
		l0.4118652-1.4789886l0.4118652-1.4624786l0.4119263-1.4475861l0.4118652-1.4325867l0.4119263-1.4155579l0.4118652-1.3948975
		l0.4118652-1.3688049l0.4119263-1.3360748l0.4118652-1.2953186l0.4118652-1.2454834l0.4119263-1.1860199l0.4118652-1.1162109
		l0.4118652-1.0360413l0.4119263-0.9455566l0.4118652-0.845108l0.4118652-0.7354126l0.4119263-0.6173706l0.4118652-0.4920807
		l0.4119263-0.3609009l0.4119263-0.2253876l0.4118652-0.0870972l0.4118652,0.0522461l0.4119263,0.1910553l0.4118652,0.3273926
		l0.4118652,0.4597778l0.4119263,0.5866699l0.4118652,0.7066498l0.4118652,0.818512l0.4119263,0.9213562l0.4118652,1.0143738
		l0.4118652,1.0971527l0.4119263,1.1695099l0.4118652,1.2315674l0.4119263,1.2837219l0.4118652,1.3266907l0.4119263,1.3613281
		l0.4118652,1.3888855l0.4118652,1.4108429l0.4119263,1.4285889l0.4118652,1.4439087l0.4118652,1.4587097l0.4119263,1.4745636
		l0.4118652,1.4935455l0.4118652,1.5172119l0.4119263,1.547287l0.4118652,1.5852509l0.4118652,1.632309l0.4119263,1.6894836
		l0.4118652,1.7575073l0.4119263,1.8367767l0.4118652,1.9273071l0.4118652,2.0288086l0.4119263,2.140625l0.4118652,2.2616119
		l0.4119263,2.3905182l0.4118652,2.5254364l0.4118652,2.6643982l0.4119263,2.8049927l0.4118652,2.9446411l0.4118652,3.0805969
		l0.4118652,3.2099609l0.4119263,3.3295746l0.4118652,3.4365845l0.4119263,3.5278931l0.4118652,3.600708l0.4119263,3.6521606
		l0.4118652,3.6799927l0.4119263,3.6817627l0.4118652,3.6557312l0.4118652,3.6004028l0.4119263,3.5147095l0.4118652,3.3980103
		l0.4118652,3.2501526l0.4119263,3.0715332l0.4118652,2.8630371l0.4118652,2.625885l0.4119263,2.361969l0.4118652,2.0735168
		l0.4119263,1.7631836l0.4118652,1.434082l0.4118652,1.089386l0.4119263,0.7330017l0.4118652,0.3684998h0.4119263
		l0.4118652-0.3684998l0.4118652-0.7330017l0.4119263-1.089386l0.4118652-1.434082l0.4118652-1.7631836l0.4119263-2.0735168
		l0.4118652-2.361969l0.4118652-2.625885l0.4119263-2.8630371l0.4118652-3.0715332l0.4119263-3.2501526l0.4118652-3.3980103
		l0.4118652-3.5147095l0.4119263-3.6004028l0.4118652-3.6557312l0.4119263-3.6817627l0.4118652-3.6799927l0.4118652-3.6521606
		l0.4119263-3.600708l0.4118652-3.5278931l0.4118652-3.4365845l0.4119263-3.3295746l0.4118652-3.2099609l0.4118652-3.0805969
		l0.4119263-2.9446411l0.4118652-2.8049927l0.4119263-2.6643982l0.4118652-2.5254364l0.4119263-2.3905182l0.4118652-2.2616119
		l0.4119263-2.140625l0.4118652-2.0288086l0.4118652-1.9273071l0.4119263-1.8367767l0.4118652-1.7575073l0.4118652-1.6894836
		l0.4119263-1.632309l0.4118652-1.5852509l0.4118652-1.547287l0.4118652-1.5172119l0.4119263-1.4935455l0.4118652-1.4745636
		l0.4119263-1.4587097l0.4118652-1.4439087l0.4119263-1.4285889l0.4118652-1.4108429l0.4118652-1.3888855l0.4119263-1.3613281
		l0.4118652-1.3266907l0.4119263-1.2837219l0.4118652-1.2315674l0.4118652-1.1695099l0.4119263-1.0971527l0.4118652-1.0143738
		l0.4118652-0.9213562l0.4118652-0.818512l0.4119263-0.7066498l0.4118652-0.5866699l0.4119263-0.4597778l0.4118652-0.3273926
		l0.4119263-0.1910553l0.4118652-0.0522461l0.4118652,0.0870972l0.4119263,0.2253876l0.4118652,0.3609009l0.4119263,0.4920807
		l0.4118652,0.6173706l0.4118652,0.7354126l0.4118652,0.845108l0.4119263,0.9455566l0.4118652,1.0360413l0.4119263,1.1162109
		l0.4118652,1.1860199l0.4119263,1.2454834l0.4118652,1.2953186l0.4118652,1.3360748l0.4119263,1.3688049l0.4118652,1.3948975
		l0.4119263,1.4155579l0.4118652,1.4325867l0.4118652,1.4475861l0.4119263,1.4624786l0.4118652,1.4789886l0.4118652,1.4989624
		l0.4118652,1.5240479l0.4119263,1.556015l0.4118652,1.5960846l0.4119263,1.6456299l0.4118652,1.7054596l0.4119263,1.7762604
		l0.4118652,1.8583679l0.4118652,1.9516754l0.4119263,2.0558167l0.4118652,2.1700745l0.4119263,2.2931671l0.4118652,2.4237366
		l0.4118652,2.559906l0.4119263,2.6994629l0.4118652,2.8401031l0.4118652,2.9791107l0.4118652,3.113678l0.4119263,3.2408295
		l0.4118652,3.3576813l0.4119263,3.460968l0.4118652,3.5479279l0.4118652,3.6156921l0.4119263,3.661438l0.4118652,3.6829529
		l0.4119263,3.677887l0.4118652,3.6447449l0.4119263,3.5818787l0.4118652,3.4884338l0.4118652,3.3639221l0.4119263,3.208374
		l0.4118652,3.0221863l0.4118652,2.806366l0.4119263,2.5623169l0.4118652,2.2920837l0.4118652,1.9978638l0.4119263,1.6825562
		l0.4118652,1.3492126l0.4119263,1.0012512l0.4118652,0.6424561l0.4119263,0.2766113l0.4118652-0.0922852l0.4119263-0.460144
		l0.4118652-0.8229675l0.4118652-1.1768799l0.4119263-1.5179138l0.4118652-1.8426819l0.4118652-2.1477356l0.4118652-2.4303589
		l0.4119263-2.6878052l0.4118652-2.9178772l0.4118652-3.1190491l0.4119263-3.2900391l0.4118652-3.4300842l0.4119263-3.5390015
		l0.4118652-3.6170654l0.4119263-3.6649475l0.4118652-3.6838379l0.4118652-3.675415l0.4119263-3.6414185l0.4119263-3.5844116
		l0.4118652-3.5066986l0.4118652-3.4111786l0.4118652-3.3007355l0.4118652-3.1783752l0.4119263-3.0471344l0.4118652-2.9099884
		l0.4119263-2.7698059l0.4118652-2.6293945l0.4119263-2.4912415l0.4118652-2.3576355l0.4118652-2.2306213l0.4119263-2.1117096
		l0.4118652-2.0024719l0.4118652-1.9036102l0.4119263-1.8159027l0.4119263-1.7394562l0.4118042-1.6741943l0.4118652-1.6196289
		l0.4119263-1.5749512l0.4118652-1.5391083l0.4119263-1.5107574l0.4118652-1.4884033l0.4119263-1.4703827l0.4118652-1.4549713
		l0.4119263-1.4402313l0.4118652-1.4244232l0.4118652-1.405777l0.4119263-1.3826294l0.4118652-1.353363l0.4118652-1.3167572
		l0.4119263-1.2716064l0.4118652-1.21698l0.4118652-1.1524048l0.4118652-1.0774536l0.4119263-0.9920502l0.4118652-0.8965302
		l0.4119263-0.7913971l0.4118652-0.6773376l0.4119263-0.5555573l0.4118652-0.4271545l0.4119263-0.2935944l0.4118652-0.1565094
		l0.4118652-0.017395l0.4119263,0.1218109l0.4118652,0.2595978l0.4119263,0.3941956l0.4118652,0.5240021l0.4118652,0.6475983
		l0.4118652,0.7636719l0.4118652,0.871109l0.4119263,0.9691467l0.4118652,1.0570526l0.4119263,1.134613l0.4119263,1.2018433
		l0.4118652,1.2588654l0.4118652,1.3062592l0.4118652,1.344986l0.4119263,1.3759155l0.4119263,1.4004974l0.4118652,1.420105
		l0.4118652,1.4364471l0.4119263,1.4512482l0.4118652,1.4663849l0.4118652,1.4835663l0.4118652,1.5046844l0.4118652,1.5313568
		l0.4119263,1.5652313l0.4119263,1.6075287l0.4118652,1.6595917l0.4118652,1.7221222l0.4119263,1.7957001l0.4119263,1.8806458
		l0.4118652,1.9767151l0.4118652,2.0834808l0.4119263,2.2000885l0.4118652,2.3251648l0.4118652,2.4573517l0.4119263,2.5945587
		l0.4118652,2.7346039l0.4118652,2.8751068l0.4119263,3.0133057l0.4118652,3.1463013l0.4118652,3.2711487l0.4119263,3.3848267
		l0.4118652,3.4844055l0.4119263,3.5667725l0.4118652,3.6292419l0.4119263,3.6691895l0.4118652,3.6842651l0.4118652,3.6723328
		l0.4119263,3.6318054l0.4118652,3.5614014l0.4118652,3.4602356l0.4119263,3.3279724l0.4118652,3.1646729l0.4118652,2.9709473
		l0.4119263,2.7479248l0.4118652,2.4971619l0.4118652,2.2206421l0.4119263,1.9208984l0.4118652,1.6007996l0.4119263,1.2634277
		l0.4118652,0.9124756l0.4119263,0.5514832l0.4118652,0.1845093"/>
</g>
<g>
	<line class="st0" x1="733.2651367" y1="319.9946899" x2="733.2651367" y2="172.4724579"/>
	<line class="st0" x1="815.3495483" y1="319.9946899" x2="815.3495483" y2="172.4724579"/>
	<line class="st0" x1="897.43396" y1="319.9946899" x2="897.43396" y2="172.4724579"/>
	<line class="st0" x1="918.4998779" y1="319.9946899" x2="712.1992188" y2="319.9946899"/>
	<line class="st0" x1="918.4998779" y1="293.1724548" x2="712.1992188" y2="293.1724548"/>
	<line class="st0" x1="918.4998779" y1="266.3502197" x2="712.1992188" y2="266.3502197"/>
	<line class="st0" x1="918.4998779" y1="239.5279999" x2="712.1992188" y2="239.5279999"/>
	<line class="st0" x1="918.4998779" y1="212.7058105" x2="712.1992188" y2="212.7058105"/>
	<line class="st0" x1="918.4998779" y1="185.8835754" x2="712.1992188" y2="185.8835754"/>
	<line class="st1" x1="712.1992188" y1="319.9946899" x2="918.4998779" y2="319.9946899"/>
	<line class="st1" x1="712.1992188" y1="172.4724579" x2="918.4998779" y2="172.4724579"/>
	<line class="st1" x1="733.2651367" y1="319.9946899" x2="733.2651367" y2="317.9317017"/>
	<line class="st1" x1="815.3495483" y1="319.9946899" x2="815.3495483" y2="317.9317017"/>
	<line class="st1" x1="897.43396" y1="319.9946899" x2="897.43396" y2="317.9317017"/>
	<line class="st1" x1="733.2651367" y1="172.4724579" x2="733.2651367" y2="174.5354767"/>
	<line class="st1" x1="815.3495483" y1="172.4724579" x2="815.3495483" y2="174.5354767"/>
	<line class="st1" x1="897.43396" y1="172.4724579" x2="897.43396" y2="174.5354767"/>
</g>
<g transform="translate(144.8345,429.6667)">
	<g class="st2">
		<path class="st3" d="M583.9575195-97.0460815v-0.9165039h2.8007813v0.9165039H583.9575195z"/>
		<path class="st3" d="M587.5131836-96.7623901l0.9570313-0.0810547c0.0712891,0.4658203,0.2353516,0.8164063,0.4941406,1.0507813
			c0.2578125,0.2348633,0.5693359,0.3520508,0.9345703,0.3520508c0.4384766,0,0.8095703-0.1655273,1.1142578-0.4960938
			c0.3037109-0.3310547,0.4550781-0.7700195,0.4550781-1.3168945c0-0.5200195-0.1455078-0.9301758-0.4375-1.230957
			c-0.2919922-0.300293-0.6748047-0.4506836-1.1474609-0.4506836c-0.2939453,0-0.5585938,0.0668945-0.7949219,0.2001953
			s-0.421875,0.3061523-0.5576172,0.519043l-0.8554688-0.1113281l0.71875-3.8139648h3.6923828v0.8710938h-2.9628906
			l-0.4003906,1.9956055c0.4462891-0.3105469,0.9140625-0.4658203,1.4033203-0.4658203
			c0.6484375,0,1.1953125,0.2246094,1.640625,0.6733398c0.4462891,0.4492188,0.6689453,1.0268555,0.6689453,1.7324219
			c0,0.671875-0.1962891,1.2524414-0.5878906,1.7421875c-0.4755859,0.6010742-1.1259766,0.9013672-1.9492188,0.9013672
			c-0.6757813,0-1.2265625-0.1889648-1.6542969-0.5668945C587.8178711-95.6364136,587.5737305-96.1378784,587.5131836-96.7623901z"
			/>
	</g>
</g>
<g transform="translate(358.5,429.6667)">
	<g class="st2">
		<path class="st3" d="M454.2070313-98.479187c0-0.8779297,0.0898438-1.5844727,0.2705078-2.1196289
			s0.4492188-0.9482422,0.8056641-1.2387695c0.3564453-0.2900391,0.8046875-0.4355469,1.3447266-0.4355469
			c0.3984375,0,0.7480469,0.0805664,1.0478516,0.2407227c0.3007813,0.1606445,0.5488281,0.3916016,0.7451172,0.6938477
			c0.1953125,0.3022461,0.3496094,0.6704102,0.4609375,1.1040039c0.1113281,0.434082,0.1669922,1.019043,0.1669922,1.7553711
			c0,0.8710938-0.0898438,1.5742188-0.2685547,2.109375s-0.4462891,0.9487305-0.8027344,1.2407227
			s-0.8056641,0.4379883-1.3496094,0.4379883c-0.7158203,0-1.2783203-0.2563477-1.6865234-0.7695313
			C454.4511719-96.0787964,454.2070313-97.0846558,454.2070313-98.479187z M455.1435547-98.479187
			c0,1.21875,0.1425781,2.0297852,0.4287109,2.4335938c0.2851563,0.4033203,0.6367188,0.6049805,1.0556641,0.6049805
			s0.7705078-0.2026367,1.0556641-0.6079102c0.2851563-0.4047852,0.4277344-1.215332,0.4277344-2.4306641
			c0-1.2226563-0.1425781-2.034668-0.4277344-2.4365234s-0.640625-0.6025391-1.0654297-0.6025391
			c-0.4189453,0-0.7539063,0.1772461-1.0029297,0.5317383C455.3007813-100.5338745,455.1435547-99.6984253,455.1435547-98.479187z"
			/>
	</g>
</g>
<g transform="translate(572.1655,429.6667)">
	<g class="st2">
		<path class="st3" d="M322.6254883-96.7623901l0.9570313-0.0810547c0.0712891,0.4658203,0.2353516,0.8164063,0.4941406,1.0507813
			c0.2578125,0.2348633,0.5693359,0.3520508,0.9345703,0.3520508c0.4384766,0,0.8095703-0.1655273,1.1142578-0.4960938
			c0.3037109-0.3310547,0.4550781-0.7700195,0.4550781-1.3168945c0-0.5200195-0.1455078-0.9301758-0.4375-1.230957
			c-0.2919922-0.300293-0.6748047-0.4506836-1.1474609-0.4506836c-0.2939453,0-0.5585938,0.0668945-0.7949219,0.2001953
			s-0.421875,0.3061523-0.5576172,0.519043l-0.8554688-0.1113281l0.71875-3.8139648h3.6923828v0.8710938h-2.9628906
			l-0.4003906,1.9956055c0.4462891-0.3105469,0.9140625-0.4658203,1.4033203-0.4658203
			c0.6484375,0,1.1953125,0.2246094,1.640625,0.6733398c0.4462891,0.4492188,0.6689453,1.0268555,0.6689453,1.7324219
			c0,0.671875-0.1962891,1.2524414-0.5878906,1.7421875c-0.4755859,0.6010742-1.1259766,0.9013672-1.9492188,0.9013672
			c-0.6757813,0-1.2265625-0.1889648-1.6542969-0.5668945C322.9301758-95.6364136,322.6860352-96.1378784,322.6254883-96.7623901z"
			/>
	</g>
</g>
<g>
	<line class="st1" x1="712.1992188" y1="319.9946899" x2="712.1992188" y2="172.4724579"/>
	<line class="st1" x1="918.4998779" y1="319.9946899" x2="918.4998779" y2="172.4724579"/>
	<line class="st1" x1="712.1992188" y1="319.9946899" x2="714.262207" y2="319.9946899"/>
	<line class="st1" x1="712.1992188" y1="293.1724548" x2="714.262207" y2="293.1724548"/>
	<line class="st1" x1="712.1992188" y1="266.3502197" x2="714.262207" y2="266.3502197"/>
	<line class="st1" x1="712.1992188" y1="239.5279999" x2="714.262207" y2="239.5279999"/>
	<line class="st1" x1="712.1992188" y1="212.7058105" x2="714.262207" y2="212.7058105"/>
	<line class="st1" x1="712.1992188" y1="185.8835754" x2="714.262207" y2="185.8835754"/>
	<line class="st1" x1="918.4998779" y1="319.9946899" x2="916.4368286" y2="319.9946899"/>
	<line class="st1" x1="918.4998779" y1="293.1724548" x2="916.4368286" y2="293.1724548"/>
	<line class="st1" x1="918.4998779" y1="266.3502197" x2="916.4368286" y2="266.3502197"/>
	<line class="st1" x1="918.4998779" y1="239.5279999" x2="916.4368286" y2="239.5279999"/>
	<line class="st1" x1="918.4998779" y1="212.7058105" x2="916.4368286" y2="212.7058105"/>
	<line class="st1" x1="918.4998779" y1="185.8835754" x2="916.4368286" y2="185.8835754"/>
</g>
<g>
	<path class="st4" d="M712.1992188,318.3206177l0.4133911-1.3188782l0.4134521-3.3117371l0.4134521-3.9293823l0.4133911-3.5454102
		l0.4134521-3.09552l0.4134521-3.1203613l0.4134521-3.4165955l0.4133911-3.5227051l0.4134521-3.3327026l0.4133911-3.1333313
		l0.4134521-3.1599731l0.4133911-3.3092041l0.4134521-3.3327332l0.4133911-3.1842957l0.4134521-3.0492859l0.4134521-3.0678711
		l0.4133911-3.1539917l0.4134521-3.1378174l0.4134521-3.0039063l0.4133911-2.8956299l0.4134521-2.9051514l0.4133911-2.9525604
		l0.4134521-2.9102936l0.4134521-2.7818298l0.4133911-2.6867065l0.4134521-2.6872559l0.4133911-2.7068024l0.4134521-2.6448669
		l0.4134521-2.5181427l0.4133911-2.4300385l0.4134521-2.4222565l0.4134521-2.4198608l0.4133911-2.3421783l0.4134521-2.2156067
		l0.4133911-2.1317291l0.4134521-2.116333l0.4133911-2.095932l0.4134521-2.0052185l0.4133911-1.8783722l0.4134521-1.7975159
		l0.4134521-1.7753754l0.4134521-1.7398834l0.4133911-1.6383362l0.4134521-1.5114899l0.4134521-1.4332275l0.4133911-1.4055023
		l0.4134521-1.3571167l0.4133911-1.2467651l0.4134521-1.1205139l0.4133911-1.0451813l0.4134521-1.0128326l0.4134521-0.9537048
		l0.4133911-0.8361511l0.4134521-0.7115631l0.4134521-0.6397247l0.4133911-0.6040344l0.4134521-0.5357666l0.4133911-0.412796
		l0.4134521-0.2909698l0.4134521-0.223587l0.4133911-0.1857452l0.4133911-0.1098785l0.4134521,0.0169067l0.4134521,0.1347351
		l0.4134521,0.1963501l0.4133911,0.23526l0.4134521,0.3173218l0.4134521,0.4464569l0.4133911,0.5586548l0.4134521,0.6133728
		l0.4133911,0.6520996l0.4134521,0.7391357l0.4133911,0.869278l0.4134521,0.9742584l0.4133911,1.0205536l0.4134521,1.0580139
		l0.4134521,1.1491394l0.4133911,1.2788696l0.4134521,1.3749084l0.4134521,1.4111786l0.4134521,1.4463806l0.4133911,1.5409088
		l0.4133911,1.6691589l0.4134521,1.754364l0.4133911,1.778717l0.4134521,1.810791l0.4134521,1.9085693l0.4133911,2.0343475
		l0.4134521,2.1064911l0.4134521,2.116806l0.4134521,2.1452484l0.4133911,2.2466431l0.4134521,2.3692322l0.4133911,2.4257813
		l0.4134521,2.4194031l0.4133911,2.4439545l0.4134521,2.5503235l0.4133911,2.6695404l0.4134521,2.706955l0.4134521,2.6805267
		l0.4133911,2.701416l0.4134521,2.8159943l0.4134521,2.9320374l0.4133911,2.9454193l0.4134521,2.8935699l0.4133911,2.912384
		l0.4134521,3.0415649l0.4133911,3.1560974l0.4134521,3.1366577l0.4134521,3.0500488l0.4133911,3.0704956l0.4134521,3.229126
		l0.4134521,3.3464966l0.4133911,3.2752991l0.4134521,3.1323547l0.4134521,3.1658936l0.4133911,3.3953857l0.4134521,3.5288086
		l0.4133911,3.3450317l0.4134521,3.0705261l0.4133911,3.1711426l0.4134521,3.68396l0.4133911,3.9006042l0.4134521,2.9324951
		l0.4134521,0.6706848l0.4134521-1.9236755l0.4133911-3.5986328l0.4134521-3.8925781l0.4133911-3.4051514l0.4134521-3.053894
		l0.4134521-3.1884766l0.4133911-3.4740295l0.4134521-3.4958496l0.4133911-3.2698364l0.4134521-3.1169739l0.4134521-3.196106
		l0.4133911-3.3338928l0.4134521-3.3069153l0.4134521-3.1405334l0.4133911-3.039093l0.4134521-3.0904236l0.4133911-3.1639709
		l0.4134521-3.1112061l0.4133911-2.9682007l0.4134521-2.8873291l0.4133911-2.9192963l0.4134521-2.9532776l0.4134521-2.8824463
		l0.4133911-2.7501831l0.4134521-2.6787872l0.4134521-2.6953278l0.4133911-2.7008057l0.4134521-2.6156311l0.4133911-2.4887543
		l0.4134521-2.4218903l0.4134521-2.4254456l0.4133911-2.4086456l0.4134521-2.3115997l0.4133911-2.1876373l0.4134521-2.1231689
		l0.4134521-2.1154327l0.4134521-2.0803833l0.4133911-1.973526l0.4134521-1.8514862l0.4133911-1.7883606l0.4134521-1.7711487
		l0.4133911-1.7207031l0.4134521-1.6057281l0.4134521-1.4855194l0.4133911-1.4237061l0.4134521-1.3983459l0.4133911-1.3349304
		l0.4134521-1.2135162l0.4134521-1.0955048l0.4133911-1.0354309l0.4134521-1.0032196l0.4134521-0.9289703l0.4133911-0.8026123
		l0.4134521-0.6876678l0.4133911-0.6299744l0.4134521-0.5923462l0.4133911-0.5089874l0.4134521-0.3792572l0.4133911-0.2684631
		l0.4134521-0.2140656l0.4134521-0.1723328l0.4134521-0.0814819l0.4133911,0.0501251l0.4134521,0.1555176l0.4133911,0.2054138
		l0.4134521,0.2499847l0.4133911,0.3470154l0.4134521,0.4789124l0.4134521,0.5774536l0.4133911,0.6215973l0.4134521,0.667923
		l0.4134521,0.7698364l0.4133911,0.9005432l0.4134521,0.9906616l0.4134521,1.0275879l0.4133911,1.0746765l0.4134521,1.1805267
		l0.4133911,1.308609l0.4134521,1.3884735l0.4133911,1.4167938l0.4134521,1.4637299l0.4133911,1.5727692l0.4134521,1.6969299
		l0.4134521,1.7644958l0.4134521,1.7825623l0.4133911,1.8287811l0.4134521,1.9407959l0.4133911,2.0597076l0.4134521,2.1126404
		l0.4133911,2.1185913l0.4134521,2.1639252l0.4134521,2.2792206l0.4133911,2.3916779l0.4134521,2.4271545l0.4134521,2.4187927
		l0.4133911,2.463623l0.4134521,2.5835114l0.4134521,2.6883698l0.4133911,2.7025757l0.4134521,2.6771545l0.4133911,2.7228546
		l0.4134521,2.850296l0.4133911,2.9465179l0.4134521,2.9336243l0.4133911,2.8870087l0.4134521,2.9370117l0.4134521,3.0782471
		l0.4133911,3.1649475l0.4134521,3.1144409l0.4134521,3.0397034l0.4133911,3.1016235l0.4134521,3.2712708l0.4133911,3.3468323
		l0.4134521,3.236145l0.4134521,3.1170654l0.4133911,3.212616l0.4134521,3.4517212l0.4133911,3.5124207l0.4134521,3.2662354
		l0.4133911,3.0465698l0.4134521,3.2767944l0.4134521,3.8052368l0.4134521,3.7933655l0.4133911,2.4664612h0.4134521
		l0.4133911-2.4664612l0.4134521-3.7933655l0.4133911-3.8052368l0.4134521-3.2767944l0.4133911-3.0465698l0.4134521-3.2662354
		l0.4134521-3.5124207l0.4134521-3.4517212l0.4133911-3.212616l0.4134521-3.1170654l0.4134521-3.236145l0.4133911-3.3468323
		l0.4133911-3.2712708l0.4134521-3.1016235l0.4134521-3.0397034l0.4133911-3.1144409l0.4134521-3.1649475l0.4134521-3.0782471
		l0.4133911-2.9370117l0.4134521-2.8870087l0.4134521-2.9336243l0.4133911-2.9465179l0.4134521-2.850296l0.4133911-2.7228546
		l0.4134521-2.6771545l0.4133911-2.7025757l0.4134521-2.6883698l0.4133911-2.5835114l0.4134521-2.463623l0.4134521-2.4187927
		l0.4134521-2.4271545l0.4133911-2.3916779l0.4134521-2.2792206l0.4134521-2.1639252l0.4133911-2.1185913l0.4134521-2.1126404
		l0.4133911-2.0597076l0.4134521-1.9407959l0.4133911-1.8287811l0.4134521-1.7825623l0.4133911-1.7644958l0.4134521-1.6969299
		l0.4134521-1.5727692l0.4133911-1.4637299l0.4134521-1.4167938l0.4134521-1.3884735l0.4133911-1.308609l0.4134521-1.1805267
		l0.4133911-1.0746765l0.4134521-1.0275879l0.4133911-0.9906616l0.4134521-0.9005432l0.4134521-0.7698364l0.4133911-0.667923
		l0.4134521-0.6215973l0.4134521-0.5774536l0.4134521-0.4789124l0.4133911-0.3470154l0.4134521-0.2499847l0.4133911-0.2054138
		l0.4134521-0.1555176l0.4133911-0.0501251l0.4134521,0.0814819l0.4133911,0.1723328l0.4134521,0.2140656l0.4133911,0.2684631
		l0.4134521,0.3792572l0.4134521,0.5089874l0.4134521,0.5923462l0.4133911,0.6299744l0.4134521,0.6876678l0.4133911,0.8026123
		l0.4134521,0.9289703l0.4133911,1.0032196l0.4134521,1.0354309l0.4134521,1.0955048l0.4133911,1.2135162l0.4134521,1.3349304
		l0.4134521,1.3983459l0.4133911,1.4237061l0.4134521,1.4855194l0.4134521,1.6057281l0.4133911,1.7207031l0.4134521,1.7711487
		l0.4133911,1.7883606l0.4134521,1.8514862l0.4133911,1.973526l0.4134521,2.0803833l0.4134521,2.1154327l0.4133911,2.1231689
		l0.4134521,2.1876373l0.4134521,2.3115997l0.4133911,2.4086456l0.4134521,2.4254456l0.4134521,2.4218903l0.4133911,2.4887543
		l0.4134521,2.6156311l0.4133911,2.7008057l0.4133911,2.6953278l0.4134521,2.6787872l0.4134521,2.7501831l0.4133911,2.8824463
		l0.4134521,2.9532776l0.4134521,2.9192963l0.4133911,2.8873291l0.4134521,2.9682007l0.4134521,3.1112061l0.4133911,3.1639709
		l0.4134521,3.0904236l0.4133911,3.039093l0.4134521,3.1405334l0.4133911,3.3069153l0.4134521,3.3338928l0.4134521,3.196106
		l0.4133911,3.1169739l0.4134521,3.2698364l0.4134521,3.4958496l0.4133911,3.4740295l0.4134521,3.1884766l0.4134521,3.053894
		l0.4133911,3.4051514l0.4133911,3.8925781l0.4134521,3.5986328l0.4134521,1.9236755l0.4133911-0.6706848l0.4134521-2.9324951
		l0.4134521-3.9006042l0.4134521-3.68396l0.4133911-3.1711426l0.4134521-3.0705261l0.4133911-3.3450317l0.4134521-3.5288086
		l0.4133911-3.3953857l0.4134521-3.1658936l0.4133911-3.1323547l0.4134521-3.2752991l0.4133911-3.3464966l0.4134521-3.229126
		l0.4134521-3.0704956l0.4134521-3.0500488l0.4133911-3.1366577l0.4134521-3.1560974l0.4134521-3.0415649l0.4133911-2.912384
		l0.4133911-2.8935699l0.4134521-2.9454193l0.4134521-2.9320374l0.4133911-2.8159943l0.4134521-2.701416l0.4133911-2.6805267
		l0.4134521-2.706955l0.4134521-2.6695404l0.4134521-2.5503235l0.4133911-2.4439545l0.4134521-2.4194031l0.4133911-2.4257813
		l0.4134521-2.3692322l0.4133911-2.2466431l0.4134521-2.1452484l0.4134521-2.116806l0.4133911-2.1064911l0.4134521-2.0343475
		l0.4134521-1.9085693l0.4133911-1.810791l0.4134521-1.778717l0.4134521-1.754364l0.4133911-1.6691589l0.4134521-1.5409088
		l0.4133911-1.4463806l0.4133911-1.4111786l0.4134521-1.3749084l0.4134521-1.2788696l0.4134521-1.1491394l0.4133911-1.0580139
		l0.4134521-1.0205536l0.4134521-0.9742584l0.4133911-0.869278l0.4134521-0.7391357l0.4133911-0.6520996l0.4134521-0.6133728
		l0.4134521-0.5586548l0.4133911-0.4464569l0.4133911-0.3173218l0.4134521-0.23526l0.4134521-0.1963501l0.4133911-0.1347351
		l0.4135132-0.0169067l0.4133301,0.1098785l0.4134521,0.1857452l0.4134521,0.223587l0.4134521,0.2909698l0.4133911,0.412796
		l0.4134521,0.5357666l0.4133911,0.6040344l0.4134521,0.6397247l0.4134521,0.7115631l0.4133911,0.8361511l0.4134521,0.9537048
		l0.4133911,1.0128326l0.4134521,1.0451813l0.4134521,1.1205139l0.4133911,1.2467651l0.4134521,1.3571167l0.4133911,1.4055023
		l0.4134521,1.4332275l0.4134521,1.5114899l0.4133911,1.6383362l0.4133911,1.7398834l0.4134521,1.7753754l0.4134521,1.7975159
		l0.4134521,1.8783722l0.4133911,2.0052185l0.4134521,2.095932l0.4134521,2.116333l0.4133911,2.1317291l0.4134521,2.2156067
		l0.4133911,2.3421783l0.4134521,2.4198608l0.4134521,2.4222565l0.4133911,2.4300385l0.4133911,2.5181427l0.4134521,2.6448669
		l0.4134521,2.7068024l0.4134521,2.6872559l0.4134521,2.6867065l0.4133911,2.7818298l0.4133911,2.9102936l0.4134521,2.9525604
		l0.4134521,2.9051514l0.4133911,2.8956299l0.4134521,3.0039063l0.4133911,3.1378174l0.4134521,3.1539917l0.4134521,3.0678711
		l0.4133911,3.0492859l0.4134521,3.1842957l0.4133911,3.3327332l0.4135132,3.3092041l0.4133911,3.1599731l0.4133911,3.1333313
		l0.4133911,3.3327026l0.4134521,3.5227051l0.4134521,3.4165955l0.4134521,3.1203613l0.4133911,3.09552l0.4133911,3.5454102
		l0.4135132,3.9293823l0.4133911,3.3117371l0.4134521,1.3188782"/>
</g>
<g transform="translate(190.875,427.6667)">
	<g class="st2">
		<path class="st3" d="M168.362793-262.6217651v-5.3789063h0.8154297v0.7548828
			c0.1689453-0.2636719,0.3935547-0.4750977,0.6738281-0.6357422c0.2802734-0.1601563,0.5991211-0.2407227,0.9570313-0.2407227
			c0.3984375,0,0.7250977,0.0830078,0.9799805,0.2485352c0.2548828,0.1650391,0.4350586,0.3964844,0.5395508,0.6938477
			c0.425293-0.628418,0.9790039-0.9423828,1.6611328-0.9423828c0.5336914,0,0.9438477,0.1479492,1.230957,0.4433594
			s0.4306641,0.7504883,0.4306641,1.3647461v3.6923828h-0.9067383v-3.3881836c0-0.3647461-0.0297852-0.6274414-0.0888672-0.7875977
			c-0.059082-0.1606445-0.1660156-0.2895508-0.3212891-0.3876953c-0.1552734-0.0976563-0.3378906-0.1469727-0.5473633-0.1469727
			c-0.3779297,0-0.6918945,0.1259766-0.9418945,0.3774414s-0.3745117,0.6542969-0.3745117,1.2080078v3.125h-0.9121094v-3.4946289
			c0-0.4052734-0.0742188-0.7089844-0.2226563-0.9116211s-0.3916016-0.3041992-0.7294922-0.3041992
			c-0.2563477,0-0.4936523,0.0678711-0.7114258,0.2026367c-0.2177734,0.1352539-0.3754883,0.3330078-0.4736328,0.5927734
			c-0.0976563,0.2602539-0.1469727,0.6347656-0.1469727,1.1245117v2.7905273H168.362793z"/>
		<path class="st3" d="M184.6816406-266.9874878h-4.902832v-0.8510742h4.902832V-266.9874878z M184.6816406-264.7335815h-4.902832
			v-0.8510742h4.902832V-264.7335815z"/>
		<path class="st3" d="M193.3623047-263.4977417v0.8759766h-4.9077148
			c-0.0068359-0.2192383,0.0288086-0.4306641,0.1064453-0.6333008c0.125-0.3339844,0.324707-0.6630859,0.6000977-0.9873047
			s0.6728516-0.6992188,1.1928711-1.1245117c0.8071289-0.6616211,1.3520508-1.1860352,1.6357422-1.5727539
			c0.2836914-0.3862305,0.4257813-0.7519531,0.4257813-1.0961914c0-0.3613281-0.1293945-0.6660156-0.3876953-0.9145508
			c-0.2583008-0.2480469-0.5952148-0.3720703-1.0102539-0.3720703c-0.4389648,0-0.7900391,0.1318359-1.0537109,0.3950195
			c-0.2631836,0.2631836-0.3964844,0.6279297-0.3999023,1.0942383l-0.9370117-0.0966797
			c0.0639648-0.6987305,0.3056641-1.2314453,0.7241211-1.5976563s0.980957-0.5498047,1.6865234-0.5498047
			c0.7124023,0,1.2763672,0.1977539,1.6918945,0.5927734c0.4150391,0.3950195,0.6225586,0.8847656,0.6225586,1.46875
			c0,0.2973633-0.0605469,0.5893555-0.1821289,0.8764648c-0.121582,0.2866211-0.3232422,0.5888672-0.6049805,0.90625
			c-0.2822266,0.3173828-0.7504883,0.7529297-1.4057617,1.3066406c-0.546875,0.4594727-0.8979492,0.7709961-1.0532227,0.9345703
			c-0.1557617,0.1640625-0.2836914,0.3286133-0.3852539,0.4941406H193.3623047z"/>
	</g>
	<g transform="translate(190.875,427.6667)">
		<g class="st2">
			<path class="st3" d="M198.3867188-690.2879639v-5.3789063h0.8154297v0.7548828
				c0.1689453-0.2636719,0.3935547-0.4750977,0.6738281-0.6357422c0.2802734-0.1601563,0.5996094-0.2407227,0.9570313-0.2407227
				c0.3984375,0,0.7255859,0.0830078,0.9804688,0.2485352c0.2548828,0.1650391,0.4345703,0.3964844,0.5390625,0.6938477
				c0.4257813-0.628418,0.9794922-0.9423828,1.6611328-0.9423828c0.5332031,0,0.9443359,0.1479492,1.2304688,0.4433594
				c0.2871094,0.2954102,0.4306641,0.7504883,0.4306641,1.3647461v3.6923828h-0.90625v-3.3881836
				c0-0.3647461-0.0292969-0.6274414-0.0888672-0.7875977c-0.0585938-0.1606445-0.1660156-0.2895508-0.3212891-0.3876953
				c-0.1552734-0.0976563-0.3378906-0.1469727-0.546875-0.1469727c-0.3789063,0-0.6923828,0.1259766-0.9423828,0.3774414
				s-0.375,0.6542969-0.375,1.2080078v3.125h-0.9111328v-3.4946289c0-0.4052734-0.0742188-0.7089844-0.2226563-0.9116211
				c-0.1494141-0.2026367-0.3925781-0.3041992-0.7294922-0.3041992c-0.2568359,0-0.4941406,0.0678711-0.7119141,0.2026367
				c-0.2177734,0.1352539-0.3759766,0.3330078-0.4736328,0.5927734c-0.0976563,0.2602539-0.1464844,0.6347656-0.1464844,1.1245117
				v2.7905273H198.3867188z"/>
			<path class="st3" d="M214.7060547-694.6536865h-4.9033203v-0.8510742h4.9033203V-694.6536865z M214.7060547-692.3997803
				h-4.9033203v-0.8510742h4.9033203V-692.3997803z"/>
			<path class="st3" d="M218.6005859-692.2479248l0.9121094-0.121582c0.1044922,0.5166016,0.2822266,0.8886719,0.5341797,1.1166992
				c0.2509766,0.2280273,0.5576172,0.3417969,0.9189453,0.3417969c0.4287109,0,0.7910156-0.1484375,1.0869141-0.4458008
				c0.2949219-0.296875,0.4423828-0.6650391,0.4423828-1.1040039c0-0.418457-0.1367188-0.7636719-0.4101563-1.0356445
				s-0.6210938-0.4077148-1.0429688-0.4077148c-0.1728516,0-0.3867188,0.0336914-0.6435547,0.1010742L220.5-694.6033936
				c0.0605469,0.0068359,0.109375,0.0102539,0.1464844,0.0102539c0.3886719,0,0.7382813-0.1010742,1.0488281-0.3037109
				s0.4658203-0.5151367,0.4658203-0.9370117c0-0.3344727-0.1132813-0.6113281-0.3388672-0.8305664
				c-0.2265625-0.2197266-0.5185547-0.3291016-0.8769531-0.3291016c-0.3544922,0-0.6494141,0.1113281-0.8857422,0.3339844
				c-0.2363281,0.2231445-0.3886719,0.5571289-0.4560547,1.0029297l-0.9121094-0.1621094
				c0.1113281-0.6108398,0.3652344-1.0844727,0.7597656-1.4204102c0.3955078-0.3359375,0.8867188-0.5043945,1.4746094-0.5043945
				c0.4042969,0,0.7773438,0.0874023,1.1191406,0.2612305c0.3408203,0.1738281,0.6015625,0.4111328,0.7822266,0.7114258
				c0.1806641,0.3007813,0.2705078,0.6196289,0.2705078,0.9570313c0,0.3208008-0.0859375,0.6132813-0.2578125,0.8764648
				s-0.4267578,0.4726563-0.7646484,0.6279297c0.4384766,0.1015625,0.7802734,0.3115234,1.0224609,0.6308594
				c0.2431641,0.3188477,0.3652344,0.7182617,0.3652344,1.1977539c0,0.6479492-0.2363281,1.1977539-0.7089844,1.6484375
				s-1.0703125,0.6762695-1.7929688,0.6762695c-0.6513672,0-1.1933594-0.1943359-1.6230469-0.5825195
				C218.9072266-691.1268311,218.6611328-691.630249,218.6005859-692.2479248z"/>
		</g>
		<g transform="translate(190.875,427.6667)">
			<g class="st2">
				<path class="st3" d="M226.4902344-1117.9545898v-5.3789063h0.8154297v0.7548828
					c0.1689453-0.2636719,0.3935547-0.4750977,0.6738281-0.6357422c0.2802734-0.1601563,0.5996094-0.2407227,0.9570313-0.2407227
					c0.3984375,0,0.7255859,0.0830078,0.9804688,0.2485352c0.2548828,0.1650391,0.4345703,0.3964844,0.5390625,0.6938477
					c0.4257813-0.628418,0.9794922-0.9423828,1.6611328-0.9423828c0.5332031,0,0.9443359,0.1479492,1.2304688,0.4433594
					c0.2871094,0.2954102,0.4306641,0.7504883,0.4306641,1.3647461v3.6923828h-0.90625v-3.3881836
					c0-0.3647461-0.0292969-0.6274414-0.0888672-0.7875977c-0.0585938-0.1606445-0.1660156-0.2895508-0.3212891-0.3876953
					c-0.1552734-0.0976563-0.3378906-0.1469727-0.546875-0.1469727c-0.3789063,0-0.6923828,0.1259766-0.9423828,0.3774414
					s-0.375,0.6542969-0.375,1.2080078v3.125h-0.9111328v-3.4946289c0-0.4052734-0.0742188-0.7089844-0.2226563-0.9116211
					c-0.1494141-0.2026367-0.3925781-0.3041992-0.7294922-0.3041992c-0.2568359,0-0.4941406,0.0678711-0.7119141,0.2026367
					c-0.2177734,0.1352539-0.3759766,0.3330078-0.4736328,0.5927734c-0.0976563,0.2602539-0.1464844,0.6347656-0.1464844,1.1245117
					v2.7905273H226.4902344z"/>
				<path class="st3" d="M242.8095703-1122.3203125H237.90625v-0.8510742h4.9033203V-1122.3203125z M242.8095703-1120.0664063
					H237.90625v-0.8510742h4.9033203V-1120.0664063z"/>
				<path class="st3" d="M251.4902344-1118.8305664v0.8759766h-4.9072266
					c-0.0068359-0.2192383,0.0283203-0.4306641,0.1054688-0.6333008c0.125-0.3339844,0.3251953-0.6630859,0.6005859-0.9873047
					s0.6728516-0.6992188,1.1923828-1.1245117c0.8076172-0.6616211,1.3525391-1.1860352,1.6367188-1.5727539
					c0.2832031-0.3862305,0.4248047-0.7519531,0.4248047-1.0961914c0-0.3613281-0.1289063-0.6660156-0.3867188-0.9145508
					c-0.2587891-0.2480469-0.5957031-0.3720703-1.0107422-0.3720703c-0.4394531,0-0.7900391,0.1318359-1.0537109,0.3950195
					s-0.3964844,0.6279297-0.4003906,1.0942383l-0.9365234-0.0966797c0.0644531-0.6987305,0.3056641-1.2314453,0.7246094-1.5976563
					c0.4179688-0.3662109,0.9804688-0.5498047,1.6865234-0.5498047c0.7119141,0,1.2763672,0.1977539,1.6914063,0.5927734
					s0.6230469,0.8847656,0.6230469,1.46875c0,0.2973633-0.0615234,0.5893555-0.1826172,0.8764648
					c-0.1210938,0.2866211-0.3232422,0.5888672-0.6054688,0.90625c-0.28125,0.3173828-0.75,0.7529297-1.4052734,1.3066406
					c-0.546875,0.4594727-0.8984375,0.7709961-1.0537109,0.9345703c-0.1552734,0.1640625-0.2832031,0.3286133-0.3847656,0.4941406
					H251.4902344z"/>
				<path class="st3" d="M252.4677734-1119.8994141l0.9570313-0.0810547
					c0.0712891,0.4658203,0.2353516,0.8164063,0.4941406,1.0507813c0.2578125,0.2348633,0.5693359,0.3520508,0.9345703,0.3520508
					c0.4384766,0,0.8095703-0.1655273,1.1142578-0.4960938c0.3037109-0.3310547,0.4550781-0.7700195,0.4550781-1.3168945
					c0-0.5200195-0.1455078-0.9301758-0.4375-1.230957c-0.2919922-0.300293-0.6748047-0.4506836-1.1474609-0.4506836
					c-0.2939453,0-0.5585938,0.0668945-0.7949219,0.2001953s-0.421875,0.3061523-0.5576172,0.519043l-0.8554688-0.1113281
					l0.71875-3.8139648h3.6923828v0.8710938h-2.9628906l-0.4003906,1.9956055
					c0.4462891-0.3105469,0.9140625-0.4658203,1.4033203-0.4658203c0.6484375,0,1.1953125,0.2246094,1.640625,0.6733398
					c0.4462891,0.4492188,0.6689453,1.0268555,0.6689453,1.7324219c0,0.671875-0.1962891,1.2524414-0.5878906,1.7421875
					c-0.4755859,0.6010742-1.1259766,0.9013672-1.9492188,0.9013672c-0.6757813,0-1.2265625-0.1889648-1.6542969-0.5668945
					C252.7724609-1118.7734375,252.5283203-1119.2749023,252.4677734-1119.8994141z"/>
			</g>
		</g>
	</g>
</g>
</svg>
