<?xml version="1.0" encoding="utf-8"?>
<!-- Generator: Adobe Illustrator 19.0.0, SVG Export Plug-In . SVG Version: 6.00 Build 0)  -->
<svg version="1.1" id="Layer_1" xmlns="http://www.w3.org/2000/svg" xmlns:xlink="http://www.w3.org/1999/xlink" x="0px" y="0px"
	 viewBox="0 0 105 55.5" style="enable-background:new 0 0 105 55.5;" xml:space="preserve">
<style type="text/css">
	.st0{fill:none;stroke:#00AEEF;stroke-miterlimit:10;}
	.st1{fill:none;stroke:#000000;stroke-miterlimit:10;}
</style>
<g id="XMLID_1_">
	<g id="XMLID_124_">
		<g id="XMLID_125_">
			<polygon id="XMLID_126_" points="91.3114929,41.0231018 91.3114929,43.029541 100.75,40.5021667 91.3114929,37.970459 
				91.3114929,39.9770508 4.4165039,39.9770508 4.4165039,41.0231018 			"/>
		</g>
	</g>
</g>
<line id="XMLID_2_" class="st0" x1="17.083334" y1="40.5" x2="49.25" y2="19.5"/>
<line id="XMLID_3_" class="st0" x1="81.4166641" y1="40.5" x2="49.25" y2="19.5"/>
<line id="XMLID_5_" class="st1" x1="81.4166718" y1="36.9000015" x2="81.4166718" y2="42.7666664"/>
<g id="XMLID_6_">
	<g id="XMLID_19_">
		<g id="XMLID_20_">
			<polygon id="XMLID_21_" points="17.6064453,13.9384918 19.6128693,13.9384918 17.0855103,4.5 14.553772,13.9384918 
				16.560379,13.9384918 16.560379,52.1665039 17.6064453,52.1665039 			"/>
		</g>
	</g>
</g>
<g id="XMLID_4_">
	<path id="XMLID_137_" d="M82.8398438,52.1665039l-0.0839844-0.7314453h-0.0361328
		c-0.3237305,0.4555664-0.9472656,0.8632813-1.7749023,0.8632813c-1.175293,0-1.7749023-0.8276367-1.7749023-1.6669922
		c0-1.4033203,1.2470703-2.1708984,3.4897461-2.1586914v-0.1201172c0-0.4794922-0.1318359-1.3432617-1.3188477-1.3432617
		c-0.5400391,0-1.1035156,0.1679688-1.5112305,0.4316406l-0.2402344-0.6953125
		c0.4799805-0.3120117,1.175293-0.515625,1.9072266-0.515625c1.7749023,0,2.206543,1.2109375,2.206543,2.3745117v2.1708984
		c0,0.503418,0.0239258,0.9951172,0.0961914,1.3911133H82.8398438z M82.6835938,49.2041016
		c-1.1513672-0.0239258-2.4584961,0.1796875-2.4584961,1.3071289c0,0.6835938,0.4560547,1.0078125,0.9956055,1.0078125
		c0.7553711,0,1.2353516-0.4799805,1.4033203-0.9716797c0.0356445-0.1079102,0.0595703-0.2280273,0.0595703-0.3359375V49.2041016z"
		/>
</g>
<g id="XMLID_7_">
	<path id="XMLID_135_" d="M8.2470703,17.3540039H8.2231445l-1.3554688,0.7319336l-0.2036133-0.8037109l1.7026367-0.9116211
		h0.8999023v7.7958984H8.2470703V17.3540039z"/>
</g>
<line id="XMLID_8_" class="st1" x1="14.75" y1="19.5" x2="20.083334" y2="19.5"/>
<g id="XMLID_134_">
</g>
<g id="XMLID_140_">
</g>
<g id="XMLID_141_">
</g>
<g id="XMLID_142_">
</g>
<g id="XMLID_143_">
</g>
<g id="XMLID_144_">
</g>
</svg>
