<?xml version="1.0" encoding="utf-8"?>
<!-- Generator: Adobe Illustrator 19.0.0, SVG Export Plug-In . SVG Version: 6.00 Build 0)  -->
<svg version="1.1" id="Layer_1" xmlns="http://www.w3.org/2000/svg" xmlns:xlink="http://www.w3.org/1999/xlink" x="0px" y="0px"
	 viewBox="0 0 149 118.25" style="enable-background:new 0 0 149 118.25;" xml:space="preserve">
<style type="text/css">
	.st0{fill:none;stroke:#6D6E71;stroke-miterlimit:10;}
	.st1{fill:none;stroke:#000000;stroke-miterlimit:10;}
	.st2{fill:#BE1E2D;}
	.st3{fill:#F7941E;stroke:#F26522;stroke-miterlimit:10;}
	.st4{fill:#F26522;}
	.st5{fill:none;stroke:#2E50A3;stroke-miterlimit:10;}
	.st6{fill:#2E50A3;}
	.st7{fill:#6D6E71;}
</style>
<path class="st0" d="M54.0348549,51.9252586c2.5551872,0.6749496,3.7917938,2.1660194,3.7917938,4.3319855"/>
<path class="st1" d="M16.7120972,39.9783707c7.4104233-4.8880005,12.4536381,13.9920425,21.3795967,16.1632233
	c22.9081154,5.5723534,29.7517128-9.4065628,43.1123772,0.7882805
	c28.0538101,21.4062386,49.5064545-5.3075676,62.5335236-20.7470627"/>
<line class="st1" x1="9.4562063" y1="110.469368" x2="49.3419724" y2="61.586235"/>
<polygon points="47.8356094,60.3569603 52.833374,57.307518 50.8492508,62.81604 "/>
<circle class="st2" cx="26.8334064" cy="45.302803" r="1.2360812"/>
<circle class="st2" cx="117.7011108" cy="60.6961975" r="1.2363948"/>
<g>
	<g>
		<path class="st2" d="M34.628418,42.762207h-2.9301758l-0.5131836,1.1977539
			c-0.1269531,0.2949219-0.1899414,0.5151367-0.1899414,0.6606445c0,0.1157227,0.0546875,0.2172852,0.1645508,0.3046875
			c0.1098633,0.0878906,0.347168,0.1450195,0.7114258,0.1708984v0.2070313h-2.3828125v-0.2070313
			c0.315918-0.0561523,0.5209961-0.1289063,0.6137695-0.2182617c0.1899414-0.1791992,0.3999023-0.5429688,0.6308594-1.0913086
			l2.6621094-6.2460938h0.1953125l2.6342773,6.3129883c0.2119141,0.5078125,0.4042969,0.8369141,0.5776367,0.987793
			c0.1728516,0.1513672,0.4135742,0.2363281,0.7226563,0.2548828v0.2070313h-2.9858398v-0.2070313
			c0.3012695-0.0151367,0.5048828-0.0654297,0.6108398-0.1513672c0.1064453-0.0854492,0.1591797-0.1899414,0.1591797-0.3129883
			c0-0.1645508-0.0742188-0.4238281-0.2231445-0.7783203L34.628418,42.762207z M34.472168,42.3481445l-1.2836914-3.0673828
			l-1.3173828,3.0673828H34.472168z"/>
	</g>
</g>
<g>
	<g>
		<path class="st2" d="M112.5405273,54.1298828c0.5356445,0.1118164,0.9360352,0.2910156,1.2016602,0.5371094
			c0.3681641,0.34375,0.5522461,0.7631836,0.5522461,1.2592773c0,0.3769531-0.121582,0.7382813-0.3642578,1.0830078
			c-0.2431641,0.3452148-0.5761719,0.597168-0.9995117,0.7558594s-1.0693359,0.237793-1.9384766,0.237793h-3.6445313v-0.2070313
			h0.2905273c0.3227539,0,0.5541992-0.1005859,0.6948242-0.3022461c0.0874023-0.1303711,0.1308594-0.4086914,0.1308594-0.8339844
			v-4.902832c0-0.4702148-0.0551758-0.7666016-0.1650391-0.8901367c-0.1479492-0.1640625-0.3681641-0.2460938-0.6606445-0.2460938
			h-0.2905273v-0.2070313h3.3369141c0.6225586,0,1.121582,0.0449219,1.4975586,0.1342773
			c0.5693359,0.1342773,1.0039063,0.3720703,1.3037109,0.7138672c0.2998047,0.3413086,0.449707,0.7338867,0.449707,1.1777344
			c0,0.3808594-0.1176758,0.7211914-0.3530273,1.0214844S113,53.984375,112.5405273,54.1298828z M109.5571289,53.8276367
			c0.140625,0.0263672,0.3007813,0.0458984,0.480957,0.0585938c0.1806641,0.0131836,0.3789063,0.0200195,0.5952148,0.0200195
			c0.5541992,0,0.9707031-0.059082,1.25-0.1767578c0.2788086-0.1171875,0.4921875-0.2973633,0.6401367-0.5400391
			c0.1484375-0.2421875,0.222168-0.5073242,0.222168-0.7944336c0-0.4443359-0.184082-0.8227539-0.5522461-1.1362305
			s-0.9052734-0.4702148-1.6113281-0.4702148c-0.3793945,0-0.7211914,0.0410156-1.0249023,0.1230469V53.8276367z
			 M109.5571289,57.4545898c0.4404297,0.1005859,0.875,0.1508789,1.3037109,0.1508789
			c0.6870117,0,1.2109375-0.1518555,1.5717773-0.4560547c0.3603516-0.3041992,0.5410156-0.6801758,0.5410156-1.1279297
			c0-0.2944336-0.0820313-0.578125-0.2451172-0.8505859s-0.4287109-0.4868164-0.796875-0.6435547
			s-0.8237305-0.2353516-1.3666992-0.2353516c-0.2353516,0-0.4365234,0.0039063-0.6035156,0.0112305
			c-0.1669922,0.0078125-0.3017578,0.0205078-0.4042969,0.0395508V57.4545898z"/>
	</g>
</g>
<line class="st3" x1="52.833374" y1="56.9656754" x2="59.8350372" y2="55.5488625"/>
<polygon class="st4" points="59.4486656,53.6427116 65.2474518,54.453331 60.2200127,57.4547691 "/>
<line class="st5" x1="52.833374" y1="56.9656754" x2="59.3629265" y2="29.5750446"/>
<polygon class="st6" points="57.4711571,29.1243572 60.6435852,24.2031631 61.2546997,30.0264091 "/>
<g>
	<g>
		<path class="st7" d="M64.5844727,49.0874023l-0.652832,2.2983398c-0.0444336,0.1552734-0.0664063,0.2480469-0.0664063,0.2788086
			c0,0.0351563,0.0107422,0.0634766,0.0317383,0.0849609c0.0205078,0.0219727,0.0454102,0.0332031,0.0742188,0.0332031
			c0.0327148,0,0.0722656-0.0175781,0.1186523-0.0527344c0.1254883-0.0981445,0.2519531-0.2382813,0.3793945-0.4194336
			l0.1152344,0.0751953c-0.1494141,0.2275391-0.3251953,0.418457-0.527832,0.5737305
			c-0.1494141,0.1157227-0.2924805,0.1738281-0.4287109,0.1738281c-0.090332,0-0.1640625-0.0268555-0.2211914-0.0800781
			c-0.0571289-0.0537109-0.0854492-0.1210938-0.0854492-0.2016602c0-0.0810547,0.0273438-0.215332,0.0825195-0.4033203
			l0.4287109-1.4692383c0.0703125-0.2402344,0.1054688-0.3911133,0.1054688-0.4526367
			c0-0.0478516-0.0170898-0.0874023-0.0512695-0.1176758c-0.0341797-0.0307617-0.0805664-0.0458984-0.1401367-0.0458984
			c-0.0483398,0-0.1484375,0.0117188-0.300293,0.0361328v-0.1279297L64.5844727,49.0874023z M64.5419922,47.7856445
			c0.0922852,0,0.1704102,0.03125,0.2338867,0.0947266c0.0639648,0.0634766,0.0957031,0.1411133,0.0957031,0.2329102
			c0,0.0898438-0.0322266,0.1669922-0.097168,0.2314453s-0.1425781,0.0966797-0.2324219,0.0966797
			c-0.090332,0-0.1679688-0.0322266-0.2329102-0.0966797s-0.097168-0.1416016-0.097168-0.2314453
			c0-0.0917969,0.0317383-0.1694336,0.0957031-0.2329102C64.3710938,47.8168945,64.4492188,47.7856445,64.5419922,47.7856445z"/>
	</g>
	<g>
		<path class="st7" d="M58.3945313,45.3491211c0.4990234-1.4868164,1.1865234-2.6323242,2.0634766-3.4355469
			c0.6611328-0.6030273,1.3134766-0.9047852,1.9550781-0.9047852c0.6220703,0,1.0561523,0.2895508,1.3017578,0.8710938
			c0.3427734,0.8110352,0.2802734,1.9150391-0.1875,3.3100586c-0.4458008,1.3286133-1.0996094,2.3779297-1.9609375,3.1469727
			c-0.6708984,0.5966797-1.3251953,0.8935547-1.9628906,0.8935547c-0.3457031,0-0.6323242-0.0825195-0.8618164-0.2480469
			c-0.2280273-0.1665039-0.4008789-0.4057617-0.515625-0.7192383c-0.1157227-0.3129883-0.1733398-0.6445313-0.1733398-0.9956055
			C58.0546875,46.6640625,58.168457,46.0244141,58.3945313,45.3491211z M59.4921875,45.3208008
			c-0.2104492,0.6708984-0.3613281,1.2749023-0.4541016,1.8110352c-0.0722656,0.4072266-0.0786133,0.7617188-0.0205078,1.0634766
			c0.0336914,0.1816406,0.1210938,0.3354492,0.2612305,0.4614258c0.1391602,0.1264648,0.3129883,0.1894531,0.5219727,0.1894531
			c0.2431641,0,0.5117188-0.112793,0.8066406-0.3398438c0.293457-0.2255859,0.5810547-0.590332,0.8613281-1.0922852
			c0.2792969-0.5009766,0.5820313-1.1992188,0.9042969-2.0932617H59.4921875z M62.5097656,44.9472656
			c0.3266602-0.9848633,0.4960938-1.7753906,0.5102539-2.3710938c0.0083008-0.456543-0.0732422-0.7832031-0.246582-0.9794922
			c-0.1269531-0.1435547-0.3037109-0.2148438-0.53125-0.2148438c-0.2578125,0-0.5288086,0.1000977-0.8125,0.300293
			c-0.2832031,0.199707-0.5605469,0.5341797-0.828125,1.0014648c-0.2695313,0.4677734-0.5976563,1.222168-0.984375,2.2636719
			H62.5097656z"/>
	</g>
</g>
<g>
	<g>
		<path class="st6" d="M75.3735352,26.4521484v0.2070313c-0.5703125-0.2836914-1.0463867-0.6166992-1.4277344-0.9975586
			c-0.5439453-0.5419922-0.9633789-1.1811523-1.2578125-1.9169922c-0.2949219-0.7363281-0.4418945-1.5004883-0.4418945-2.2929688
			c0-1.1582031,0.2885742-2.2148438,0.8666992-3.1699219c0.578125-0.9545898,1.331543-1.6376953,2.2607422-2.0488281v0.2353516
			c-0.4648438,0.2543945-0.8461914,0.6020508-1.1445313,1.0429688s-0.5214844,0.9995117-0.668457,1.6757813
			c-0.1474609,0.6767578-0.2211914,1.3828125-0.2211914,2.1191406c0,0.7998047,0.0625,1.5263672,0.1870117,2.1806641
			c0.0981445,0.515625,0.2172852,0.9291992,0.3569336,1.2412109s0.3276367,0.6123047,0.5639648,0.8999023
			C74.6831055,25.9155273,74.9916992,26.1904297,75.3735352,26.4521484z"/>
		<path class="st6" d="M81.453125,16.4682617v-0.2353516c0.5742188,0.2802734,1.0517578,0.6113281,1.4331055,0.9921875
			c0.5405273,0.5458984,0.9580078,1.1855469,1.2524414,1.9199219s0.4418945,1.4995117,0.4418945,2.2954102
			c0,1.1586914-0.2880859,2.215332-0.8642578,3.1699219c-0.5756836,0.9550781-1.3305664,1.6376953-2.2631836,2.0488281v-0.2070313
			c0.4643555-0.2583008,0.847168-0.6064453,1.1474609-1.0458984c0.2998047-0.4389648,0.5229492-0.9975586,0.668457-1.6757813
			c0.1450195-0.6782227,0.2177734-1.3852539,0.2177734-2.121582c0-0.7958984-0.0620117-1.5229492-0.1865234-2.1806641
			c-0.0947266-0.515625-0.2128906-0.9287109-0.3544922-1.2387695s-0.3295898-0.609375-0.5634766-0.8969727
			C82.1479492,17.0048828,81.8383789,16.7299805,81.453125,16.4682617z"/>
	</g>
	<g>
		<path class="st6" d="M67.5263672,17.0400391v3.1225586h0.2207031c0.340332,0,0.6176758-0.050293,0.8330078-0.1513672
			s0.3974609-0.2709961,0.546875-0.5102539c0.1489258-0.2392578,0.246582-0.5625,0.2915039-0.9697266h0.1987305v3.8173828H69.418457
			c-0.0717773-0.7211914-0.2670898-1.1967773-0.5864258-1.4267578c-0.3188477-0.2294922-0.6806641-0.3447266-1.0849609-0.3447266
			h-0.2207031v2.3266602c0,0.3886719,0.0214844,0.6313477,0.0649414,0.7285156s0.128418,0.1821289,0.2548828,0.2548828
			c0.1269531,0.0732422,0.2978516,0.109375,0.5131836,0.109375h0.2548828v0.2075195H64.597168V23.996582h0.2548828
			c0.2226563,0,0.4023438-0.0390625,0.5380859-0.1176758c0.0981445-0.0522461,0.1738281-0.1420898,0.2265625-0.269043
			c0.0415039-0.0898438,0.0625-0.3251953,0.0625-0.7060547v-5.0004883c0-0.3886719-0.0209961-0.6313477-0.0625-0.7285156
			s-0.1254883-0.1821289-0.2519531-0.2548828c-0.1264648-0.0732422-0.2973633-0.109375-0.5126953-0.109375H64.597168v-0.2075195
			h6.4814453v2.1806641h-0.2319336c-0.0532227-0.512207-0.1879883-0.8916016-0.4052734-1.1381836
			s-0.5317383-0.4204102-0.9433594-0.5209961c-0.2265625-0.0561523-0.6459961-0.0844727-1.2578125-0.0844727H67.5263672z"/>
		<path class="st6" d="M78.15625,18.9628906v1.1884766c0.3510742-0.5419922,0.6591797-0.9013672,0.9233398-1.0791016
			c0.2646484-0.1772461,0.5195313-0.2661133,0.7651367-0.2661133c0.2114258,0,0.3803711,0.0644531,0.5068359,0.1933594
			s0.1899414,0.3110352,0.1899414,0.5463867c0,0.2504883-0.0615234,0.4448242-0.184082,0.5830078
			c-0.1230469,0.1381836-0.2709961,0.2075195-0.4448242,0.2075195c-0.2001953,0-0.3740234-0.0634766-0.5214844-0.190918
			c-0.1469727-0.1269531-0.2338867-0.1977539-0.2602539-0.2128906c-0.0380859-0.0224609-0.081543-0.0336914-0.1303711-0.0336914
			c-0.1098633,0-0.2133789,0.0415039-0.3115234,0.1235352c-0.1552734,0.1269531-0.2719727,0.3081055-0.3515625,0.543457
			c-0.1206055,0.362793-0.1811523,0.7626953-0.1811523,1.199707v1.2050781l0.0053711,0.3139648
			c0,0.2133789,0.0131836,0.3496094,0.0400391,0.4091797c0.0454102,0.1010742,0.1123047,0.1748047,0.2011719,0.2216797
			c0.0883789,0.046875,0.2387695,0.0756836,0.4501953,0.0869141v0.2016602h-2.8613281v-0.2016602
			c0.2304688-0.0185547,0.3862305-0.081543,0.4677734-0.1879883c0.0810547-0.1064453,0.121582-0.3876953,0.121582-0.84375
			v-2.8979492c0-0.2988281-0.0151367-0.4892578-0.0454102-0.5717773c-0.0375977-0.1044922-0.0922852-0.1811523-0.1640625-0.2299805
			c-0.0717773-0.0483398-0.1982422-0.0820313-0.3798828-0.1005859v-0.2075195H78.15625z"/>
	</g>
</g>
<g>
	<g>
		<path class="st4" d="M69.5429688,68.8310547l-0.6494141,2.2929688c-0.043457,0.1547852-0.0654297,0.2475586-0.0654297,0.2783203
			c0,0.034668,0.0102539,0.0629883,0.03125,0.0849609c0.0205078,0.0219727,0.0454102,0.0327148,0.0737305,0.0327148
			c0.0327148,0,0.0722656-0.0175781,0.1181641-0.0522461c0.1245117-0.0981445,0.25-0.237793,0.3769531-0.4189453
			l0.1147461,0.0751953c-0.1489258,0.2270508-0.3237305,0.4179688-0.5244141,0.5727539
			c-0.1489258,0.1152344-0.2910156,0.1733398-0.4262695,0.1733398c-0.0898438,0-0.1625977-0.0268555-0.2197266-0.0800781
			c-0.0566406-0.0537109-0.0849609-0.1206055-0.0849609-0.2011719c0-0.0810547,0.0273438-0.2148438,0.081543-0.4023438
			l0.4262695-1.4658203c0.0698242-0.2397461,0.1049805-0.3901367,0.1049805-0.4511719
			c0-0.0478516-0.0170898-0.0874023-0.0507813-0.1176758c-0.0341797-0.0307617-0.0805664-0.0458984-0.1391602-0.0458984
			c-0.0483398,0-0.1474609,0.0117188-0.2983398,0.0356445v-0.1274414L69.5429688,68.8310547z M69.5,67.5322266
			c0.0917969,0,0.1694336,0.0317383,0.2329102,0.0952148c0.0634766,0.0629883,0.0952148,0.140625,0.0952148,0.2319336
			c0,0.0893555-0.0327148,0.1665039-0.097168,0.230957c-0.0644531,0.0639648-0.1411133,0.0961914-0.230957,0.0961914
			c-0.0893555,0-0.1665039-0.0322266-0.230957-0.0961914c-0.0644531-0.0644531-0.0966797-0.1416016-0.0966797-0.230957
			c0-0.0913086,0.0317383-0.1689453,0.0952148-0.2319336C69.3305664,67.5639648,69.4082031,67.5322266,69.5,67.5322266z"/>
	</g>
	<g>
		<path class="st4" d="M63.6489258,68.8066406h-6.8032227l3.5600586-7.8481445L63.6489258,68.8066406z M62.3105469,68.3427734
			l-2.2617188-5.4716797l-2.4946289,5.4716797H62.3105469z"/>
	</g>
	<g>
		<path class="st4" d="M66.3603516,63.5161133v1.199707c0.3515625-0.546875,0.659668-0.9101563,0.9243164-1.0893555
			c0.2641602-0.1791992,0.5195313-0.2685547,0.7651367-0.2685547c0.2114258,0,0.3808594,0.0649414,0.5073242,0.1948242
			c0.1264648,0.1303711,0.1899414,0.3139648,0.1899414,0.5517578c0,0.2529297-0.0615234,0.4492188-0.184082,0.5883789
			c-0.1230469,0.1396484-0.2714844,0.2094727-0.4453125,0.2094727c-0.2001953,0-0.3740234-0.0639648-0.5214844-0.1923828
			c-0.1474609-0.1279297-0.234375-0.199707-0.2607422-0.2148438c-0.0375977-0.0229492-0.0810547-0.0341797-0.1303711-0.0341797
			c-0.1098633,0-0.2133789,0.0415039-0.3120117,0.1245117c-0.1547852,0.128418-0.2719727,0.3115234-0.3510742,0.5488281
			c-0.1210938,0.3662109-0.1816406,0.7695313-0.1816406,1.2109375v1.2167969l0.0058594,0.3168945
			c0,0.2148438,0.0131836,0.3525391,0.0395508,0.4125977c0.0454102,0.1020508,0.1123047,0.1767578,0.2011719,0.2236328
			c0.0888672,0.0473633,0.2392578,0.0766602,0.4506836,0.0878906v0.2036133h-2.862793v-0.2036133
			c0.2304688-0.019043,0.3862305-0.0820313,0.4677734-0.1894531c0.0810547-0.1079102,0.121582-0.3916016,0.121582-0.8515625
			v-2.9257813c0-0.3012695-0.0151367-0.4936523-0.0454102-0.5771484c-0.0375977-0.1054688-0.0922852-0.1826172-0.1640625-0.2319336
			c-0.0717773-0.0488281-0.1987305-0.0825195-0.3798828-0.1015625v-0.2094727H66.3603516z"/>
	</g>
</g>
<g>
	<g>
		<path d="M29.5576172,78.484375l-0.6494141,2.2929688c-0.043457,0.1547852-0.0654297,0.2475586-0.0654297,0.2783203
			c0,0.034668,0.0102539,0.0629883,0.03125,0.0849609c0.0205078,0.0219727,0.0454102,0.0327148,0.0737305,0.0327148
			c0.0327148,0,0.0722656-0.0175781,0.1181641-0.0522461c0.1245117-0.0981445,0.25-0.237793,0.3769531-0.4189453
			l0.1147461,0.0751953c-0.1489258,0.2270508-0.3237305,0.4179688-0.5244141,0.5727539
			c-0.1489258,0.1152344-0.2910156,0.1733398-0.4262695,0.1733398c-0.0898438,0-0.1625977-0.0268555-0.2197266-0.0800781
			c-0.0566406-0.0537109-0.0849609-0.1206055-0.0849609-0.2011719c0-0.0810547,0.0273438-0.2148438,0.081543-0.4023438
			l0.4262695-1.4658203c0.0698242-0.2397461,0.1049805-0.3901367,0.1049805-0.4511719
			c0-0.0478516-0.0170898-0.0874023-0.0507813-0.1176758c-0.0341797-0.0307617-0.0805664-0.0458984-0.1391602-0.0458984
			c-0.0483398,0-0.1474609,0.0117188-0.2983398,0.0356445v-0.1274414L29.5576172,78.484375z M29.5146484,77.1855469
			c0.0917969,0,0.1694336,0.0317383,0.2329102,0.0952148c0.0634766,0.0629883,0.0952148,0.140625,0.0952148,0.2319336
			c0,0.0893555-0.0327148,0.1665039-0.097168,0.230957c-0.0644531,0.0639648-0.1411133,0.0961914-0.230957,0.0961914
			c-0.0893555,0-0.1665039-0.0322266-0.230957-0.0961914c-0.0644531-0.0644531-0.0966797-0.1416016-0.0966797-0.230957
			c0-0.0913086,0.0317383-0.1689453,0.0952148-0.2319336C29.3452148,77.2172852,29.4228516,77.1855469,29.5146484,77.1855469z"/>
	</g>
	<g>
	</g>
	<g>
		<path d="M26.375,73.1689453v1.199707c0.3515625-0.546875,0.659668-0.9101563,0.9243164-1.0893555
			c0.2641602-0.1791992,0.5195313-0.2685547,0.7651367-0.2685547c0.2114258,0,0.3808594,0.0649414,0.5073242,0.1948242
			c0.1264648,0.1303711,0.1899414,0.3139648,0.1899414,0.5517578c0,0.2529297-0.0615234,0.4492188-0.184082,0.5883789
			c-0.1230469,0.1396484-0.2714844,0.2094727-0.4453125,0.2094727c-0.2001953,0-0.3740234-0.0639648-0.5214844-0.1923828
			c-0.1474609-0.1279297-0.234375-0.199707-0.2607422-0.2148438C27.3125,74.125,27.269043,74.1137695,27.2197266,74.1137695
			c-0.1098633,0-0.2133789,0.0415039-0.3120117,0.1245117c-0.1547852,0.128418-0.2719727,0.3115234-0.3510742,0.5488281
			C26.4355469,75.1533203,26.375,75.5566406,26.375,75.9980469v1.2167969l0.0058594,0.3168945
			c0,0.2148438,0.0131836,0.3525391,0.0395508,0.4125977c0.0454102,0.1020508,0.1123047,0.1767578,0.2011719,0.2236328
			c0.0888672,0.0473633,0.2392578,0.0766602,0.4506836,0.0878906v0.2036133h-2.862793v-0.2036133
			c0.2304688-0.019043,0.3862305-0.0820313,0.4677734-0.1894531c0.0810547-0.1079102,0.121582-0.3916016,0.121582-0.8515625
			v-2.9257813c0-0.3012695-0.0151367-0.4936523-0.0454102-0.5771484c-0.0375977-0.1054688-0.0922852-0.1826172-0.1640625-0.2319336
			c-0.0717773-0.0488281-0.1987305-0.0825195-0.3798828-0.1015625v-0.2094727H26.375z"/>
	</g>
</g>
<g>
	<g>
		<g>
			<polygon class="st7" points="127.8990784,110.5231018 127.8990784,112.529541 137.3375854,110.0021667 127.8990784,107.470459 
				127.8990784,109.4770508 2,109.4770508 2,110.5231018 			"/>
		</g>
	</g>
</g>
<g>
	<g>
		<g>
			<polygon class="st7" points="10.0231018,13.332489 12.0295258,13.332489 9.5021515,3.8940125 6.9704285,13.332489 
				8.9770355,13.332489 8.9770355,116.75 10.0231018,116.75 			"/>
		</g>
	</g>
</g>
<g>
	<g>
		<path class="st7" d="M143.5732422,105.1557617c0.1904297,0.2036133,0.3349609,0.4072266,0.4326172,0.6108398
			c0.0693359,0.140625,0.1845703,0.5107422,0.34375,1.1098633l0.5146484-0.7753906
			c0.1357422-0.1879883,0.3007813-0.3666992,0.4960938-0.5371094c0.1943359-0.1704102,0.3662109-0.2866211,0.5136719-0.3496094
			c0.09375-0.0390625,0.1962891-0.0585938,0.3095703-0.0585938c0.1669922,0,0.3007813,0.0449219,0.4003906,0.1352539
			c0.0986328,0.0898438,0.1484375,0.199707,0.1484375,0.3286133c0,0.1489258-0.0292969,0.2504883-0.0878906,0.3051758
			c-0.1083984,0.0981445-0.2333984,0.1469727-0.3730469,0.1469727c-0.0820313,0-0.1699219-0.0175781-0.2626953-0.0527344
			c-0.1835938-0.0625-0.3056641-0.0942383-0.3681641-0.0942383c-0.09375,0-0.2041016,0.0551758-0.3330078,0.1645508
			c-0.2412109,0.2036133-0.5292969,0.597168-0.8642578,1.1801758l0.4785156,2.0195313
			c0.0742188,0.3095703,0.1367188,0.4951172,0.1875,0.5556641c0.0498047,0.0605469,0.1005859,0.0908203,0.1513672,0.0908203
			c0.0820313,0,0.1777344-0.0449219,0.2861328-0.1347656c0.2138672-0.1806641,0.3974609-0.4150391,0.5488281-0.7050781
			l0.2050781,0.1054688c-0.2460938,0.4619141-0.5576172,0.8457031-0.9345703,1.1513672
			c-0.2138672,0.171875-0.3955078,0.2578125-0.5429688,0.2578125c-0.21875,0-0.3916016-0.1230469-0.5205078-0.3691406
			c-0.0820313-0.1533203-0.25-0.8105469-0.5078125-1.9726563c-0.6074219,1.0605469-1.09375,1.7431641-1.4599609,2.0488281
			c-0.2373047,0.1953125-0.4677734,0.2929688-0.6884766,0.2929688c-0.15625,0-0.2983398-0.0566406-0.4267578-0.1699219
			c-0.0932617-0.0859375-0.1401367-0.2011719-0.1401367-0.3466797c0-0.1289063,0.0429688-0.2363281,0.128418-0.3222656
			c0.0854492-0.0869141,0.190918-0.1298828,0.3154297-0.1298828c0.125,0,0.2568359,0.0625,0.3964844,0.1884766
			c0.1015625,0.0898438,0.1796875,0.1347656,0.234375,0.1347656c0.046875,0,0.1074219-0.03125,0.1806641-0.09375
			c0.1826172-0.1494141,0.4326172-0.4697266,0.7470703-0.9628906c0.3164063-0.4931641,0.5224609-0.8496094,0.6191406-1.0688477
			c-0.2402344-0.9511719-0.3710938-1.4541016-0.390625-1.5092773c-0.0898438-0.2543945-0.2070313-0.4345703-0.3505859-0.5400391
			c-0.1435547-0.105957-0.3564453-0.1586914-0.6367188-0.1586914c-0.0888672,0-0.1923828,0.0039063-0.3095703,0.0117188v-0.2114258
			L143.5732422,105.1557617z"/>
	</g>
</g>
<g>
	<g>
		<path class="st7" d="M18.6357422,1.5224609c0.1333008,0.2250977,0.2255859,0.4355469,0.2763672,0.6313477
			s0.1020508,0.5805664,0.152832,1.1542969l0.2583008,2.8623047c0.2363281-0.2792969,0.5771484-0.7216797,1.0244141-1.3266602
			c0.2158203-0.2944336,0.4824219-0.6958008,0.7998047-1.2041016c0.1923828-0.3100586,0.3095703-0.5273438,0.3535156-0.6513672
			c0.0234375-0.0620117,0.0351563-0.1259766,0.0351563-0.1918945c0-0.0424805-0.0136719-0.0776367-0.0410156-0.1044922
			c-0.0273438-0.0273438-0.0996094-0.059082-0.2148438-0.0961914c-0.1162109-0.0366211-0.2119141-0.1044922-0.2880859-0.2036133
			c-0.0771484-0.0986328-0.1152344-0.2124023-0.1152344-0.340332c0-0.1586914,0.046875-0.2866211,0.1416016-0.3837891
			c0.09375-0.0966797,0.2119141-0.1455078,0.3525391-0.1455078c0.1728516,0,0.3193359,0.0708008,0.4414063,0.2124023
			c0.1210938,0.1416016,0.1826172,0.3364258,0.1826172,0.5844727c0,0.3066406-0.1064453,0.6567383-0.3183594,1.0498047
			c-0.2109375,0.394043-0.6191406,0.9975586-1.2236328,1.8120117c-0.6035156,0.8144531-1.3349609,1.7021484-2.1938477,2.6640625
			c-0.5922852,0.6630859-1.0317383,1.0810547-1.3178711,1.2539063c-0.2861328,0.171875-0.53125,0.2587891-0.7353516,0.2587891
			c-0.121582,0-0.2285156-0.0458984-0.3208008-0.1367188c-0.0917969-0.0917969-0.1381836-0.1972656-0.1381836-0.3173828
			c0-0.1513672,0.0639648-0.2890625,0.1914063-0.4130859s0.265625-0.1855469,0.4145508-0.1855469
			c0.0786133,0,0.1430664,0.0166016,0.1943359,0.0517578c0.03125,0.0195313,0.0654297,0.0751953,0.1025391,0.1660156
			C16.6875,8.6137695,16.7216797,8.675293,16.7529297,8.706543c0.0195313,0.0185547,0.043457,0.0283203,0.0708008,0.0283203
			c0.0234375,0,0.0644531-0.0195313,0.1235352-0.0576172c0.2158203-0.1318359,0.4667969-0.3417969,0.7529297-0.6289063
			c0.3764648-0.3798828,0.6547852-0.6894531,0.8354492-0.9296875l-0.3295898-3.6879883
			c-0.0546875-0.6088867-0.137207-0.9794922-0.2470703-1.1113281S17.6650391,2.121582,17.40625,2.121582
			c-0.0825195,0-0.2294922,0.0117188-0.4414063,0.0351563l-0.0527344-0.215332L18.6357422,1.5224609z"/>
	</g>
</g>
<g>
</g>
<g>
</g>
<g>
</g>
<g>
</g>
<g>
</g>
<g>
</g>
</svg>
