<?xml version="1.0" encoding="utf-8"?>
<!-- Generator: Adobe Illustrator 19.0.0, SVG Export Plug-In . SVG Version: 6.00 Build 0)  -->
<svg version="1.1" id="Layer_1" xmlns="http://www.w3.org/2000/svg" xmlns:xlink="http://www.w3.org/1999/xlink" x="0px" y="0px"
	 viewBox="0 0 290.6666565 105" style="enable-background:new 0 0 290.6666565 105;" xml:space="preserve">
<style type="text/css">
	.st0{fill:none;stroke:#000000;stroke-miterlimit:10;}
	.st1{fill:#ED1C24;}
	.st2{fill:#010101;}
</style>
<g id="XMLID_1_">
	<g id="XMLID_68_">
		<g id="XMLID_69_">
			<polygon id="XMLID_70_" points="29.8121548,32.2797241 31.6484737,33.0882263 33.1387825,23.4315491 27.0183163,31.0495911 
				28.8547726,31.8581848 1.565267,93.837738 2.5226414,94.2592773 			"/>
		</g>
	</g>
</g>
<g id="XMLID_2_">
	<g id="XMLID_64_">
		<g id="XMLID_65_">
			<polygon id="XMLID_66_" points="40.5930519,76.8658447 41.43256,78.6882019 48.9476662,72.443512 39.3157692,74.0932312 
				40.1553535,75.915741 1.8250707,93.5735168 2.2627537,94.5236206 			"/>
		</g>
	</g>
</g>
<line id="XMLID_3_" class="st0" x1="33.136795" y1="23.430666" x2="80.0396729" y2="1.8237211"/>
<line id="XMLID_4_" class="st0" x1="48.9467545" y1="72.4415359" x2="80.0396729" y2="1.8237208"/>
<g id="XMLID_5_">
	<g id="XMLID_60_">
		<g id="XMLID_61_">
			<polygon id="XMLID_62_" class="st1" points="74.3442307,9.3682861 75.8762436,10.6639404 80.0413437,1.8251343 
				72.0133591,7.3970642 73.5454941,8.6928101 1.6445745,93.7107849 2.4433033,94.3862915 			"/>
		</g>
	</g>
</g>
<g id="XMLID_18_">
	<g id="XMLID_56_">
		<g id="XMLID_57_">
			<polygon id="XMLID_58_" points="183.640976,11.983429 185.4772797,12.7919617 186.9676056,3.1352539 180.8471222,10.7532959 
				182.683609,11.5618896 155.3940887,73.5414734 156.3514557,73.9629822 			"/>
		</g>
	</g>
</g>
<g id="XMLID_17_">
	<g id="XMLID_52_">
		<g id="XMLID_53_">
			<polygon id="XMLID_54_" points="147.5189972,78.1764832 148.3585052,79.9988403 155.8736115,73.7541809 146.2417145,75.4038696 
				147.0813141,77.2263794 108.7510147,94.8841553 109.1886978,95.834259 			"/>
		</g>
	</g>
</g>
<g id="XMLID_6_">
	<g id="XMLID_46_">
		<g id="XMLID_47_">
			<polygon id="XMLID_50_" class="st1" points="181.2701569,10.6789551 182.8021698,11.9746094 186.9672699,3.1357727 
				178.9392853,8.7077026 180.4714508,10.003479 108.5705185,95.0214539 109.3692551,95.6969299 			"/>
		</g>
	</g>
</g>
<g id="XMLID_24_">
	<g id="XMLID_25_">
		<path id="XMLID_275_" class="st2" d="M24.2893887,94.3701172h-2.7978516l-0.3330078,0.7695313
			c-0.1088867,0.2568359-0.1635742,0.46875-0.1635742,0.6357422c0,0.2211914,0.0898438,0.3847656,0.269043,0.4897461
			c0.1049805,0.0620117,0.3637695,0.1088867,0.7768555,0.1396484v0.2158203h-2.6347656v-0.2158203
			c0.2841797-0.0424805,0.5180664-0.1601563,0.7011719-0.3525391s0.4086914-0.5898438,0.6777344-1.1923828l2.8330078-6.3081055
			h0.1108398l2.8564453,6.4829102c0.2724609,0.6142578,0.496582,1.0009766,0.671875,1.1601563
			c0.1323242,0.1206055,0.3188477,0.1904297,0.5605469,0.2099609v0.2158203h-3.8320313v-0.2158203h0.1577148
			c0.3076172,0,0.5239258-0.0424805,0.6484375-0.1279297c0.0859375-0.0625,0.128418-0.1518555,0.128418-0.2685547
			c0-0.0698242-0.0117188-0.1416016-0.034668-0.215332c-0.0078125-0.0351563-0.0664063-0.1811523-0.175293-0.4375
			L24.2893887,94.3701172z M24.0911465,93.9389648l-1.1801758-2.7226563l-1.2148438,2.7226563H24.0911465z"/>
	</g>
</g>
<g id="XMLID_10_">
	<g id="XMLID_11_">
		<path id="XMLID_271_" class="st2" d="M10.5247393,54.5483398c0.7636719,0.1748047,1.2993164,0.3867188,1.6079102,0.6357422
			c0.4428711,0.3535156,0.6645508,0.8120117,0.6645508,1.3754883c0,0.5947266-0.2431641,1.0864258-0.7299805,1.4750977
			c-0.597168,0.4702148-1.465332,0.7055664-2.6040039,0.7055664H5.3753257v-0.2158203
			c0.3720703,0,0.6240234-0.0336914,0.7568359-0.1020508c0.1323242-0.0678711,0.2250977-0.15625,0.2788086-0.2651367
			c0.0532227-0.1088867,0.0800781-0.3769531,0.0800781-0.8046875V52.222168c0-0.4272461-0.0268555-0.6967773-0.0800781-0.8071289
			c-0.0537109-0.1108398-0.1474609-0.1992188-0.2822266-0.265625c-0.1342773-0.065918-0.3852539-0.0991211-0.753418-0.0991211
			v-0.215332h3.8564448c0.9213867,0,1.5737305,0.0805664,1.9575195,0.2416992s0.6860352,0.4023438,0.9077148,0.7231445
			c0.2216797,0.3203125,0.3325195,0.6616211,0.3325195,1.0229492c0,0.3808594-0.140625,0.7202148-0.4213867,1.0175781
			C11.727376,54.137207,11.2327471,54.3735352,10.5247393,54.5483398z M8.3655596,54.8457031v2.5361328l-0.0058594,0.2915039
			c0,0.2099609,0.0541992,0.3681641,0.1630859,0.4750977s0.2700195,0.1601563,0.4833984,0.1601563
			c0.3164063,0,0.6079102-0.0688477,0.875-0.206543c0.2670898-0.1381836,0.4716797-0.3383789,0.6142578-0.6005859
			c0.1420898-0.2626953,0.2133789-0.5546875,0.2133789-0.8774414c0-0.3691406-0.0869141-0.7006836-0.2612305-0.9941406
			c-0.1738281-0.293457-0.4130859-0.4985352-0.7177734-0.6152344C9.4256182,54.8984375,8.97054,54.8417969,8.3655596,54.8457031z
			 M8.3655596,54.3911133c0.5615234,0,0.9760742-0.0620117,1.2426758-0.1865234
			c0.2670898-0.1245117,0.4716797-0.2993164,0.6142578-0.5249023c0.1420898-0.2250977,0.2133789-0.5131836,0.2133789-0.862793
			s-0.0703125-0.6362305-0.2104492-0.8598633c-0.140625-0.2236328-0.3413086-0.3935547-0.6020508-0.5102539
			c-0.2612305-0.1166992-0.6806641-0.1728516-1.2578125-0.1689453V54.3911133z"/>
	</g>
</g>
<g id="XMLID_12_">
	<g id="XMLID_14_">
		<path id="XMLID_269_" class="st1" d="M91.6248398,9.4506836h0.5766602v2.7866211h2.7944336v0.565918h-2.7944336v2.769043
			h-0.5766602v-2.769043h-2.8061523v-0.565918h2.8061523V9.4506836z"/>
	</g>
	<g id="XMLID_13_">
		<path id="XMLID_262_" class="st1" d="M82.7049179,13.3217773h-2.8178711l-0.3354492,0.7695313
			c-0.1098633,0.2568359-0.1645508,0.46875-0.1645508,0.6357422c0,0.2211914,0.090332,0.3847656,0.2705078,0.4897461
			c0.105957,0.0620117,0.3666992,0.1088867,0.7827148,0.1396484v0.2158203h-2.6533203v-0.2158203
			c0.2861328-0.0424805,0.5214844-0.1601563,0.7060547-0.3525391c0.184082-0.1923828,0.4116211-0.5898438,0.6821289-1.1923828
			l2.8535156-6.3081055h0.1118164l2.8764648,6.4829102c0.2749023,0.6142578,0.5004883,1.0009766,0.6767578,1.1601563
			c0.1333008,0.1206055,0.3217773,0.1904297,0.5649414,0.2099609v0.2158203h-3.859375v-0.2158203h0.1586914
			c0.3100586,0,0.5273438-0.0424805,0.6533203-0.1279297c0.0859375-0.0625,0.1293945-0.1518555,0.1293945-0.2685547
			c0-0.0698242-0.012207-0.1416016-0.0356445-0.215332c-0.0078125-0.0351563-0.0664063-0.1811523-0.1762695-0.4375
			L82.7049179,13.3217773z M82.5052109,12.890625l-1.1884766-2.7226563l-1.2236328,2.7226563H82.5052109z"/>
		<path id="XMLID_265_" class="st1" d="M102.6209335,11.3803711c0.7568359,0.1748047,1.2885742,0.3867188,1.5942383,0.6357422
			c0.4394531,0.3535156,0.6591797,0.8120117,0.6591797,1.3754883c0,0.5947266-0.2412109,1.0864258-0.7236328,1.4750977
			c-0.5922852,0.4702148-1.453125,0.7055664-2.5825195,0.7055664h-4.0537109v-0.2158203
			c0.3686523,0,0.6186523-0.0336914,0.75-0.1020508c0.1313477-0.0678711,0.2236328-0.15625,0.2768555-0.2651367
			c0.0527344-0.1088867,0.0791016-0.3769531,0.0791016-0.8046875V9.0541992c0-0.4272461-0.0263672-0.6967773-0.0791016-0.8071289
			c-0.0532227-0.1108398-0.1464844-0.1992188-0.2797852-0.265625c-0.1333008-0.065918-0.3823242-0.0991211-0.7470703-0.0991211
			v-0.215332h3.8242188c0.9135742,0,1.5605469,0.0805664,1.9414063,0.2416992
			c0.3803711,0.1611328,0.6801758,0.4023438,0.8999023,0.7231445c0.2197266,0.3203125,0.3295898,0.6616211,0.3295898,1.0229492
			c0,0.3808594-0.1391602,0.7202148-0.4179688,1.0175781C103.8133163,10.9692383,103.323082,11.2055664,102.6209335,11.3803711z
			 M100.4798203,11.6777344v2.5361328l-0.0063477,0.2915039c0,0.2099609,0.0541992,0.3681641,0.1621094,0.4750977
			s0.2675781,0.1601563,0.4794922,0.1601563c0.3134766,0,0.6030273-0.0688477,0.8676758-0.206543
			c0.2646484-0.1381836,0.4677734-0.3383789,0.6088867-0.6005859c0.1411133-0.2626953,0.2119141-0.5546875,0.2119141-0.8774414
			c0-0.3691406-0.0864258-0.7006836-0.2587891-0.9941406c-0.1728516-0.293457-0.4101563-0.4985352-0.7119141-0.6152344
			C101.5306015,11.7304688,101.0794296,11.6738281,100.4798203,11.6777344z M100.4798203,11.2231445
			c0.5566406,0,0.9677734-0.0620117,1.2324219-0.1865234s0.4677734-0.2993164,0.6088867-0.5249023
			c0.1411133-0.2250977,0.2114258-0.5131836,0.2114258-0.862793s-0.0693359-0.6362305-0.2084961-0.8598633
			s-0.3383789-0.3935547-0.597168-0.5102539s-0.6748047-0.1728516-1.2470703-0.1689453V11.2231445z"/>
	</g>
</g>
<g id="XMLID_7_">
	<g id="XMLID_8_">
		<path id="XMLID_259_" class="st2" d="M135.5471954,94.371582h-2.7978516l-0.3330078,0.7695313
			c-0.1088867,0.2568359-0.1635742,0.46875-0.1635742,0.6357422c0,0.2211914,0.0898438,0.3847656,0.269043,0.4897461
			c0.1049805,0.0620117,0.3637695,0.1088867,0.7768555,0.1396484v0.2158203h-2.6347656V96.40625
			c0.2841797-0.0424805,0.5180664-0.1601563,0.7011719-0.3525391s0.4086914-0.5898438,0.6777344-1.1923828l2.8330078-6.3081055
			h0.1108398l2.8564453,6.4829102c0.2724609,0.6142578,0.496582,1.0009766,0.671875,1.1601563
			c0.1323242,0.1206055,0.3188477,0.1904297,0.5605469,0.2099609v0.2158203h-3.8320313V96.40625h0.1577148
			c0.3076172,0,0.5239258-0.0424805,0.6484375-0.1279297c0.0859375-0.0625,0.128418-0.1518555,0.128418-0.2685547
			c0-0.0698242-0.0117188-0.1416016-0.034668-0.215332c-0.0078125-0.0351563-0.0664063-0.1811523-0.175293-0.4375
			L135.5471954,94.371582z M135.3489532,93.9404297l-1.1801758-2.7226563l-1.2148438,2.7226563H135.3489532z"/>
	</g>
</g>
<g id="XMLID_9_">
	<g id="XMLID_21_">
		<path id="XMLID_255_" class="st2" d="M178.2151642,47.6020508c0.7636719,0.1748047,1.2993164,0.3867188,1.6079102,0.6357422
			c0.4428711,0.3535156,0.6645508,0.8120117,0.6645508,1.3754883c0,0.5947266-0.2431641,1.0864258-0.7299805,1.4750977
			c-0.597168,0.4702148-1.465332,0.7055664-2.6040039,0.7055664h-4.0878906V51.578125
			c0.3720703,0,0.6240234-0.0336914,0.7568359-0.1020508c0.1323242-0.0678711,0.2250977-0.15625,0.2788086-0.2651367
			c0.0532227-0.1088867,0.0800781-0.3769531,0.0800781-0.8046875v-5.1303711c0-0.4272461-0.0268555-0.6967773-0.0800781-0.8071289
			c-0.0537109-0.1108398-0.1474609-0.1992188-0.2822266-0.265625c-0.1342773-0.065918-0.3852539-0.0991211-0.753418-0.0991211
			v-0.215332h3.8564453c0.9213867,0,1.5737305,0.0805664,1.9575195,0.2416992s0.6860352,0.4023438,0.9077148,0.7231445
			c0.2216797,0.3203125,0.3325195,0.6616211,0.3325195,1.0229492c0,0.3808594-0.140625,0.7202148-0.4213867,1.0175781
			C179.4178009,47.190918,178.923172,47.4272461,178.2151642,47.6020508z M176.0559845,47.8994141v2.5361328l-0.0058594,0.2915039
			c0,0.2099609,0.0541992,0.3681641,0.1630859,0.4750977s0.2700195,0.1601563,0.4833984,0.1601563
			c0.3164063,0,0.6079102-0.0688477,0.875-0.206543c0.2670898-0.1381836,0.4716797-0.3383789,0.6142578-0.6005859
			c0.1420898-0.2626953,0.2133789-0.5546875,0.2133789-0.8774414c0-0.3691406-0.0869141-0.7006836-0.2612305-0.9941406
			c-0.1738281-0.293457-0.4130859-0.4985352-0.7177734-0.6152344
			C177.1160431,47.9521484,176.660965,47.8955078,176.0559845,47.8994141z M176.0559845,47.4448242
			c0.5615234,0,0.9760742-0.0620117,1.2426758-0.1865234c0.2670898-0.1245117,0.4716797-0.2993164,0.6142578-0.5249023
			c0.1420898-0.2250977,0.2133789-0.5131836,0.2133789-0.862793s-0.0703125-0.6362305-0.2104492-0.8598633
			c-0.140625-0.2236328-0.3413086-0.3935547-0.6020508-0.5102539c-0.2612305-0.1166992-0.6806641-0.1728516-1.2578125-0.1689453
			V47.4448242z"/>
	</g>
</g>
<g id="XMLID_22_">
	<g id="XMLID_26_">
		<path id="XMLID_253_" class="st1" d="M126.0008163,48.4360352h0.5766602v2.7866211h2.794426v0.565918h-2.794426v2.769043
			h-0.5766602v-2.769043h-2.8061523v-0.565918h2.8061523V48.4360352z"/>
	</g>
	<g id="XMLID_23_">
		<path id="XMLID_246_" class="st1" d="M117.081871,52.3071289h-2.8178711l-0.3354492,0.7695313
			c-0.1098633,0.2568359-0.1645508,0.46875-0.1645508,0.6357422c0,0.2211914,0.090332,0.3847656,0.2705078,0.4897461
			c0.105957,0.0620117,0.3666992,0.1088867,0.7827148,0.1396484v0.2158203h-2.6533203v-0.2158203
			c0.2861328-0.0424805,0.5214844-0.1601563,0.7060547-0.3525391c0.184082-0.1923828,0.4116211-0.5898438,0.6821289-1.1923828
			l2.8535156-6.3081055h0.1118164l2.8764648,6.4829102c0.2749023,0.6142578,0.5004883,1.0009766,0.6767578,1.1601563
			c0.1333008,0.1206055,0.3217773,0.1904297,0.5649414,0.2099609v0.2158203h-3.859375v-0.2158203h0.1586914
			c0.3100586,0,0.5273438-0.0424805,0.6533203-0.1279297c0.0859375-0.0625,0.1293945-0.1518555,0.1293945-0.2685547
			c0-0.0698242-0.012207-0.1416016-0.0356445-0.215332c-0.0078125-0.0351563-0.0664063-0.1811523-0.1762695-0.4375
			L117.081871,52.3071289z M116.882164,51.8759766l-1.1884766-2.7226563l-1.2236328,2.7226563H116.882164z"/>
		<path id="XMLID_249_" class="st1" d="M136.997879,50.3657227c0.7568359,0.1748047,1.2885742,0.3867188,1.5942383,0.6357422
			c0.4394531,0.3535156,0.6591797,0.8120117,0.6591797,1.3754883c0,0.5947266-0.2412109,1.0864258-0.7236328,1.4750977
			c-0.5922852,0.4702148-1.453125,0.7055664-2.5825195,0.7055664h-4.0537109v-0.2158203
			c0.3686523,0,0.6186523-0.0336914,0.75-0.1020508c0.1313477-0.0678711,0.2236328-0.15625,0.2768555-0.2651367
			c0.0527344-0.1088867,0.0791016-0.3769531,0.0791016-0.8046875v-5.1303711c0-0.4272461-0.0263672-0.6967773-0.0791016-0.8071289
			c-0.0532227-0.1108398-0.1464844-0.1992188-0.2797852-0.265625c-0.1333008-0.065918-0.3823242-0.0991211-0.7470703-0.0991211
			v-0.215332h3.8242188c0.9135742,0,1.5605469,0.0805664,1.9414063,0.2416992
			c0.3803711,0.1611328,0.6801758,0.4023438,0.8999023,0.7231445c0.2197266,0.3203125,0.3295898,0.6616211,0.3295898,1.0229492
			c0,0.3808594-0.1391602,0.7202148-0.4179688,1.0175781C138.1902618,49.9545898,137.7000275,50.190918,136.997879,50.3657227z
			 M134.8567657,50.6630859v2.5361328l-0.0063477,0.2915039c0,0.2099609,0.0541992,0.3681641,0.1621094,0.4750977
			s0.2675781,0.1601563,0.4794922,0.1601563c0.3134766,0,0.6030273-0.0688477,0.8676758-0.206543
			c0.2646484-0.1381836,0.4677734-0.3383789,0.6088867-0.6005859c0.1411133-0.2626953,0.2119141-0.5546875,0.2119141-0.8774414
			c0-0.3691406-0.0864258-0.7006836-0.2587891-0.9941406c-0.1728516-0.293457-0.4101563-0.4985352-0.7119141-0.6152344
			C135.907547,50.7158203,135.4563751,50.6591797,134.8567657,50.6630859z M134.8567657,50.2084961
			c0.5566406,0,0.9677734-0.0620117,1.2324219-0.1865234s0.4677734-0.2993164,0.6088867-0.5249023
			c0.1411133-0.2250977,0.2114258-0.5131836,0.2114258-0.862793s-0.0693359-0.6362305-0.2084961-0.8598633
			s-0.3383789-0.3935547-0.597168-0.5102539s-0.6748047-0.1728516-1.2470703-0.1689453V50.2084961z"/>
	</g>
</g>
<g id="XMLID_177_">
	<g id="XMLID_42_">
		<g id="XMLID_43_">
			<polygon id="XMLID_44_" points="230.3830109,89.5966797 231.054306,91.4874878 239.1032867,85.947937 229.3616791,86.7199402 
				230.0330353,88.6109009 216.1052399,93.5556641 216.4552155,94.5414429 			"/>
		</g>
	</g>
</g>
<g id="XMLID_179_">
	<g id="XMLID_38_">
		<g id="XMLID_39_">
			<polygon id="XMLID_40_" points="252.7749786,73.8702087 254.1457977,75.3353882 259.3113403,67.0413818 250.6894073,71.6410828 
				252.060318,73.1063538 238.745285,85.5639954 239.4599457,86.3278809 			"/>
		</g>
	</g>
</g>
<g id="XMLID_180_">
	<g id="XMLID_34_">
		<g id="XMLID_35_">
			<polygon id="XMLID_36_" points="270.0384216,50.1471252 271.7857971,51.1332703 274.2236938,41.6712646 267.3799133,48.646759 
				269.1274109,49.6329651 259.4487305,66.7827759 260.3597412,67.2969055 			"/>
		</g>
	</g>
</g>
<g id="XMLID_181_">
	<g id="XMLID_30_">
		<g id="XMLID_31_">
			<polygon id="XMLID_32_" points="277.4656372,12.5805969 279.4633789,12.7673035 277.8251953,3.1345825 274.426239,12.2965698 
				276.4241333,12.4832764 273.7011108,41.621521 274.7426453,41.7188721 			"/>
		</g>
	</g>
</g>
<g id="XMLID_182_">
	<g id="XMLID_184_">
		<path id="XMLID_244_" class="st2" d="M236.9651642,98.6992188l1.1142578-0.5473633h0.1113281v3.890625
			c0,0.2583008,0.0107422,0.4189453,0.0322266,0.4824219s0.0654297,0.1123047,0.1337891,0.1459961
			c0.0673828,0.0341797,0.2041016,0.0532227,0.4111328,0.0581055v0.1254883h-1.7216797v-0.1254883
			c0.2158203-0.0048828,0.3554688-0.0234375,0.4189453-0.0561523c0.0625-0.0327148,0.1064453-0.0771484,0.1318359-0.1328125
			c0.0244141-0.0551758,0.0371094-0.2211914,0.0371094-0.4975586v-2.4873047c0-0.3349609-0.0117188-0.550293-0.0341797-0.6455078
			c-0.015625-0.0722656-0.0449219-0.1254883-0.0859375-0.159668c-0.0419922-0.0341797-0.0917969-0.0507813-0.1503906-0.0507813
			c-0.0830078,0-0.1992188,0.0351563-0.3476563,0.1049805L236.9651642,98.6992188z"/>
	</g>
	<g id="XMLID_183_">
		<path id="XMLID_242_" class="st2" d="M233.126297,99.902832l-1.8398438-4.2612305
			c-0.2226563-0.5131836-0.3955078-0.8383789-0.5205078-0.9755859c-0.0888672-0.1015625-0.2216797-0.1704102-0.3964844-0.2055664
			v-0.2172852h2.9023438v0.2172852c-0.1826172,0-0.3076172,0.0332031-0.3730469,0.1000977
			c-0.09375,0.0859375-0.140625,0.1879883-0.140625,0.3056641c0,0.1450195,0.0859375,0.4169922,0.2568359,0.8168945
			l0.8994141,2.0629883l0.71875-1.7807617c0.2060547-0.5097656,0.3095703-0.8701172,0.3095703-1.081543
			c0-0.121582-0.0439453-0.2207031-0.1308594-0.296875c-0.0878906-0.0766602-0.2431641-0.1186523-0.4648438-0.1264648v-0.2172852
			h1.7871094v0.2172852c-0.1708984,0.0234375-0.3115234,0.0883789-0.4199219,0.1938477
			c-0.109375,0.105957-0.2734375,0.4174805-0.4912109,0.9345703l-1.8222656,4.3139648H233.126297z"/>
	</g>
</g>
<g id="XMLID_185_">
	<g id="XMLID_195_">
		<path id="XMLID_239_" class="st2" d="M262.4993591,90.6621094l-0.3222656,0.8867188h-2.7177734v-0.1254883
			c0.7998047-0.7294922,1.3623047-1.3251953,1.6884766-1.7875977c0.3261719-0.4619141,0.4892578-0.8842773,0.4892578-1.2670898
			c0-0.2924805-0.0898438-0.5322266-0.2685547-0.7207031c-0.1787109-0.1879883-0.3925781-0.2817383-0.6416016-0.2817383
			c-0.2265625,0-0.4296875,0.0664063-0.6103516,0.1987305c-0.1796875,0.1323242-0.3125,0.3266602-0.3994141,0.5825195h-0.125
			c0.0566406-0.4189453,0.2021484-0.7407227,0.4365234-0.9648438s0.5263672-0.3364258,0.8779297-0.3364258
			c0.3740234,0,0.6855469,0.1201172,0.9355469,0.3603516c0.2509766,0.2402344,0.3759766,0.5229492,0.3759766,0.8491211
			c0,0.2333984-0.0546875,0.4667969-0.1630859,0.7001953c-0.1679688,0.3671875-0.4394531,0.7553711-0.8154297,1.1655273
			c-0.5644531,0.6162109-0.9160156,0.9873047-1.0566406,1.1142578h1.2021484c0.2451172,0,0.4169922-0.0087891,0.5146484-0.0268555
			c0.0986328-0.0185547,0.1875-0.0551758,0.2675781-0.1108398c0.0791016-0.0551758,0.1474609-0.1337891,0.2070313-0.2358398
			H262.4993591z"/>
	</g>
	<g id="XMLID_186_">
		<path id="XMLID_233_" class="st2" d="M255.5227814,88.6118164l-1.8505859-4.2612305
			c-0.2236328-0.5131836-0.3974609-0.8383789-0.5234375-0.9755859c-0.0898438-0.1015625-0.2226563-0.1704102-0.3994141-0.2055664
			v-0.2172852h2.9208984v0.2172852c-0.1845703,0-0.3095703,0.0332031-0.3759766,0.1000977
			c-0.0947266,0.0859375-0.1416016,0.1879883-0.1416016,0.3056641c0,0.1450195,0.0859375,0.4169922,0.2587891,0.8168945
			l0.9052887,2.0629883l0.7226563-1.7807617c0.2070313-0.5097656,0.3115234-0.8701172,0.3115234-1.081543
			c0-0.121582-0.0439453-0.2207031-0.1328125-0.296875c-0.0878906-0.0766602-0.2431641-0.1186523-0.4667969-0.1264648v-0.2172852
			h1.7978516v0.2172852c-0.171875,0.0234375-0.3134766,0.0883789-0.4228516,0.1938477
			c-0.109375,0.105957-0.2744141,0.4174805-0.4941406,0.9345703l-1.8330231,4.3139648H255.5227814z"/>
	</g>
</g>
<g id="XMLID_204_">
	<g id="XMLID_206_">
		<path id="XMLID_231_" class="st2" d="M275.169281,65.2875977c0.1308594-0.3100586,0.296875-0.5498047,0.4970703-0.7182617
			c0.2011719-0.1689453,0.4501953-0.253418,0.7490234-0.253418c0.3691406,0,0.6523438,0.1201172,0.8496094,0.3603516
			c0.1494141,0.1787109,0.2246094,0.3701172,0.2246094,0.5742188c0,0.3349609-0.2109375,0.6816406-0.6318359,1.0395508
			c0.2832031,0.1113281,0.4970703,0.2695313,0.6416016,0.4755859c0.1445313,0.206543,0.2177734,0.4487305,0.2177734,0.7275391
			c0,0.3984375-0.1269531,0.7441406-0.3808594,1.0361328c-0.3300781,0.3803711-0.8095703,0.5708008-1.4365234,0.5708008
			c-0.3105469,0-0.5214844-0.0385742-0.6337891-0.1157227c-0.1123047-0.0766602-0.1679688-0.159668-0.1679688-0.2480469
			c0-0.0654297,0.0263672-0.1230469,0.0791016-0.1728516c0.0537109-0.0498047,0.1171875-0.0751953,0.1923828-0.0751953
			c0.0566406,0,0.1142578,0.0092773,0.1728516,0.0273438c0.0390625,0.0112305,0.1259766,0.0527344,0.2617188,0.1240234
			s0.2304688,0.1137695,0.2822266,0.1274414c0.0839844,0.0249023,0.1728516,0.0375977,0.2685547,0.0375977
			c0.2304688,0,0.4316406-0.0898438,0.6025391-0.2685547c0.1708984-0.1791992,0.2568359-0.390625,0.2568359-0.6352539
			c0-0.1791992-0.0400391-0.3535156-0.1191406-0.5234375c-0.0585938-0.1269531-0.1230469-0.2231445-0.1933594-0.2890625
			c-0.0976563-0.090332-0.2314453-0.1723633-0.4013672-0.2460938s-0.3427734-0.1103516-0.5195313-0.1103516h-0.1083984v-0.1020508
			c0.1787109-0.0224609,0.3583984-0.0869141,0.5380859-0.1938477c0.1806641-0.1064453,0.3105469-0.234375,0.3925781-0.3837891
			c0.0810547-0.1494141,0.1220703-0.3134766,0.1220703-0.4926758c0-0.2333984-0.0732422-0.421875-0.21875-0.565918
			c-0.1464844-0.1435547-0.328125-0.215332-0.5449219-0.215332c-0.3515625,0-0.6445313,0.1879883-0.8798828,0.5639648
			L275.169281,65.2875977z"/>
	</g>
	<g id="XMLID_205_">
		<path id="XMLID_229_" class="st2" d="M271.2415466,66.0825195l-1.8505859-4.2612305
			c-0.2236328-0.5131836-0.3974609-0.8383789-0.5234375-0.9755859c-0.0898438-0.1015625-0.2226563-0.1704102-0.3994141-0.2055664
			v-0.2172852h2.9208984v0.2172852c-0.1845703,0-0.3095703,0.0332031-0.3759766,0.1000977
			c-0.0947266,0.0859375-0.1416016,0.1879883-0.1416016,0.3056641c0,0.1450195,0.0859375,0.4169922,0.2587891,0.8168945
			l0.9052734,2.0629883l0.7226563-1.7807617c0.2070313-0.5097656,0.3115234-0.8701172,0.3115234-1.081543
			c0-0.121582-0.0439453-0.2207031-0.1328125-0.296875c-0.0878906-0.0766602-0.2431641-0.1186523-0.4667969-0.1264648v-0.2172852
			h1.7978516v0.2172852c-0.171875,0.0234375-0.3134766,0.0883789-0.4228516,0.1938477
			c-0.109375,0.105957-0.2744141,0.4174805-0.4941406,0.9345703l-1.8330078,4.3139648H271.2415466z"/>
	</g>
</g>
<g id="XMLID_207_">
	<g id="XMLID_209_">
		<path id="XMLID_226_" class="st2" d="M288.684906,33.8549805v0.4824219h-0.6181641v1.2163086h-0.5605469v-1.2163086h-1.9501953
			v-0.4350586l2.1367188-3.0512695h0.3740234v3.0039063H288.684906z M287.5061951,33.8549805v-2.2871094l-1.6171875,2.2871094
			H287.5061951z"/>
	</g>
	<g id="XMLID_208_">
		<path id="XMLID_224_" class="st2" d="M281.6595154,32.6166992l-1.8505859-4.2612305
			c-0.2236328-0.5131836-0.3974609-0.8383789-0.5234375-0.9755859c-0.0898438-0.1015625-0.2226563-0.1704102-0.3994141-0.2055664
			v-0.2172852h2.9208984v0.2172852c-0.1845703,0-0.3095703,0.0332031-0.3759766,0.1000977
			c-0.0947266,0.0859375-0.1416016,0.1879883-0.1416016,0.3056641c0,0.1450195,0.0859375,0.4169922,0.2587891,0.8168945
			l0.9052734,2.0629883l0.7226563-1.7807617c0.2070313-0.5097656,0.3115234-0.8701172,0.3115234-1.081543
			c0-0.121582-0.0439453-0.2207031-0.1328125-0.296875c-0.0878906-0.0766602-0.2431641-0.1186523-0.4667969-0.1264648v-0.2172852
			h1.7978516v0.2172852c-0.171875,0.0234375-0.3134766,0.0883789-0.4228516,0.1938477
			c-0.109375,0.105957-0.2744141,0.4174805-0.4941406,0.9345703l-1.8330078,4.3139648H281.6595154z"/>
	</g>
</g>
<g id="XMLID_235_">
	<g id="XMLID_79_">
		<g id="XMLID_80_">
			<polygon id="XMLID_81_" class="st1" points="272.965271,11.2436829 274.6268005,12.3684387 277.8248291,3.1355896 
				270.4373169,9.5324402 272.098999,10.6572876 215.8471527,93.7553406 216.7133942,94.3417358 			"/>
		</g>
	</g>
</g>
<g id="XMLID_240_">
	<g id="XMLID_238_">
		<path id="XMLID_215_" class="st1" d="M220.5139923,72.5908203l0.1962891-1.2314453l0.0644531-0.0917969l3.1845703,2.2329102
			c0.2119141,0.1489258,0.3496094,0.2324219,0.4140625,0.2514648c0.0634766,0.0180664,0.1298828,0.0097656,0.1962891-0.0263672
			s0.1630859-0.1376953,0.2851563-0.3061523l0.1025391,0.0722656l-0.9941406,1.4179688l-0.1025391-0.0722656
			c0.1220703-0.1801758,0.1865234-0.3061523,0.1962891-0.3769531c0.0087891-0.0708008-0.0019531-0.1323242-0.0322266-0.1845703
			c-0.0322266-0.0527344-0.1601563-0.1577148-0.3867188-0.3168945l-2.0351563-1.4267578
			c-0.2753906-0.1933594-0.4580078-0.3066406-0.5507813-0.34375c-0.0673828-0.0283203-0.1269531-0.0351563-0.1787109-0.0205078
			c-0.0527344,0.0151367-0.0957031,0.0463867-0.1289063,0.0947266c-0.0478516,0.0683594-0.0859375,0.1845703-0.1142578,0.3466797
			L220.5139923,72.5908203z"/>
		<path id="XMLID_217_" class="st1" d="M237.2122345,54.46875l0.5410156,0.7734375l-1.5595703,2.2241211l-0.1025391-0.0722656
			c-0.1396484-1.0732422-0.3037109-1.8759766-0.4951172-2.4082031c-0.1914063-0.5317383-0.4433594-0.9082031-0.7568359-1.1279297
			c-0.2392578-0.1674805-0.4882813-0.2324219-0.7441406-0.1933594c-0.2568359,0.0380859-0.4550781,0.159668-0.5986328,0.3632813
			c-0.1298828,0.1855469-0.1923828,0.3901367-0.1875,0.612793c0.0048828,0.2236328,0.0878906,0.4443359,0.2480469,0.6616211
			l-0.0712891,0.1030273c-0.3115234-0.2871094-0.4912109-0.5908203-0.5400391-0.9116211
			c-0.0498047-0.3208008,0.0273438-0.6240234,0.2285156-0.9116211c0.2138672-0.3056641,0.4921875-0.4921875,0.8310547-0.559082
			c0.3408203-0.0668945,0.6445313-0.0068359,0.9121094,0.1806641c0.1894531,0.1337891,0.3496094,0.3120117,0.4794922,0.5351563
			c0.2041016,0.3481445,0.3662109,0.793457,0.4853516,1.3364258c0.1806641,0.8144531,0.2832031,1.3168945,0.3076172,1.5043945
			l0.6894531-0.9838867c0.140625-0.2001953,0.2304688-0.3466797,0.2734375-0.4370117
			c0.0410156-0.0913086,0.0625-0.1850586,0.0615234-0.2817383c0-0.0966797-0.0244141-0.1982422-0.0742188-0.3051758
			L237.2122345,54.46875z"/>
		<path id="XMLID_219_" class="st1" d="M246.095047,36.8466797c-0.1796875-0.2856445-0.2792969-0.5595703-0.3027344-0.8203125
			c-0.0244141-0.2607422,0.0507813-0.5136719,0.2226563-0.7583008c0.2109375-0.3022461,0.4726563-0.4648438,0.78125-0.4882813
			c0.2324219-0.0195313,0.4316406,0.0292969,0.5986328,0.1459961c0.2744141,0.1928711,0.4384766,0.5639648,0.4892578,1.1142578
			c0.2529297-0.1679688,0.5058594-0.2519531,0.7568359-0.2524414c0.2529297-0.0004883,0.4921875,0.0795898,0.7207031,0.2397461
			c0.3271484,0.2285156,0.5371094,0.5307617,0.6298828,0.9057617c0.1230469,0.4897461,0.0039063,0.9907227-0.3564453,1.5043945
			c-0.1777344,0.2539063-0.3310547,0.4042969-0.4580078,0.4511719c-0.1279297,0.0478516-0.2275391,0.0463867-0.2998047-0.0043945
			c-0.0537109-0.0375977-0.0849609-0.0922852-0.0957031-0.1645508s0.0058594-0.1391602,0.0488281-0.2001953
			c0.0322266-0.0463867,0.0732422-0.0878906,0.1220703-0.1264648c0.03125-0.0244141,0.1152344-0.0722656,0.2509766-0.1425781
			c0.1367188-0.0703125,0.2255859-0.1225586,0.2666016-0.1567383c0.0673828-0.0551758,0.1298828-0.1210938,0.1845703-0.1987305
			c0.1318359-0.1889648,0.1748047-0.4047852,0.1259766-0.6479492c-0.0488281-0.2426758-0.1728516-0.434082-0.3730469-0.574707
			c-0.1464844-0.1025391-0.3134766-0.1704102-0.4970703-0.2026367c-0.1376953-0.0249023-0.2539063-0.0273438-0.3476563-0.0073242
			c-0.1298828,0.0273438-0.2734375,0.0898438-0.4326172,0.1860352c-0.15625,0.0966797-0.2861328,0.2177734-0.3876953,0.3623047
			l-0.0625,0.0888672l-0.0830078-0.0585938c0.0839844-0.1591797,0.1347656-0.3427734,0.1513672-0.5512695
			c0.0146484-0.2084961-0.0146484-0.3891602-0.0898438-0.5415039c-0.0761719-0.1533203-0.1875-0.2807617-0.3339844-0.3833008
			c-0.1904297-0.1342773-0.3867188-0.1821289-0.5888672-0.1455078s-0.3642578,0.1445313-0.4892578,0.3222656
			c-0.2011719,0.2875977-0.2167969,0.6352539-0.0429688,1.0439453L246.095047,36.8466797z"/>
		<path id="XMLID_221_" class="st1" d="M262.2513123,17.3408203l0.3945313,0.2768555l-0.3544922,0.5058594l0.9960938,0.6987305
			L262.966156,19.28125l-0.9960938-0.6987305l-1.1191406,1.5957031l-0.3554688-0.2495117l-1.2714844-3.5l0.2138672-0.3061523
			l2.4589844,1.7241211L262.2513123,17.3408203z M261.575531,18.3056641l-1.8720703-1.3125l0.9443359,2.6357422
			L261.575531,18.3056641z"/>
	</g>
	<g id="XMLID_237_">
		<path id="XMLID_203_" class="st1" d="M221.1370392,62.7900391l0.3300781-0.4711914l2.3007813,1.612793l1.6015625-2.2841797
			l0.4658203,0.3261719l-1.6015625,2.284668l2.2861328,1.6030273l-0.3300781,0.4711914l-2.2861328-1.6030273l-1.6083984,2.2939453
			l-0.4658203-0.3266602l1.6083984-2.2939453L221.1370392,62.7900391z"/>
		<path id="XMLID_211_" class="st1" d="M234.0970001,44.3056641l0.3300781-0.4716797l2.3007813,1.6132813l1.6015625-2.284668
			l0.4658203,0.3266602l-1.6015625,2.2841797l2.2861328,1.6035156l-0.3300781,0.4711914l-2.2861328-1.6030273l-1.6083984,2.2939453
			l-0.4658203-0.3271484l1.6083984-2.293457L234.0970001,44.3056641z"/>
		<path id="XMLID_213_" class="st1" d="M246.8079376,26.1757813l0.3300781-0.4716797l2.3007813,1.6132813l1.6015625-2.2841797
			l0.4658203,0.3261719l-1.6015625,2.2841797l2.2861328,1.6035156l-0.3300781,0.4711914l-2.2861328-1.6030273l-1.6083984,2.2939453
			l-0.4658203-0.3266602l1.6083984-2.2939453L246.8079376,26.1757813z"/>
	</g>
	<g id="XMLID_236_">
		<path id="XMLID_194_" class="st1" d="M219.3059845,76.4375l-4.5517578-0.9316406
			c-0.5478516-0.1118164-0.9130859-0.15625-1.0986328-0.1318359c-0.1347656,0.0146484-0.2666016,0.0849609-0.3974609,0.2084961
			l-0.1777344-0.125l1.6757813-2.3901367l0.1777344,0.125c-0.1054688,0.1508789-0.1503906,0.2724609-0.1337891,0.3657227
			c0.0166016,0.1259766,0.0722656,0.2226563,0.1689453,0.2905273c0.1181641,0.0830078,0.3916016,0.1689453,0.8164063,0.2573242
			l2.2099609,0.4438477l-1.0439453-1.6142578c-0.2978516-0.4619141-0.5332031-0.7539063-0.7060547-0.875
			c-0.0996094-0.0703125-0.2060547-0.0908203-0.3193359-0.0625s-0.2363281,0.1318359-0.3720703,0.3095703l-0.1777344-0.125
			l1.0322266-1.4716797l0.1777344,0.125c-0.0791016,0.1552734-0.1074219,0.3076172-0.0849609,0.4580078
			c0.0244141,0.1503906,0.1845703,0.4633789,0.4824219,0.9404297l2.4804688,3.9770508L219.3059845,76.4375z"/>
		<path id="XMLID_197_" class="st1" d="M231.5286407,59.0048828l-4.5517578-0.9311523
			c-0.5478516-0.1118164-0.9140625-0.15625-1.0986328-0.1323242c-0.1347656,0.0151367-0.2675781,0.0849609-0.3974609,0.2089844
			l-0.1777344-0.125l1.6757813-2.3901367l0.1777344,0.125c-0.1064453,0.1508789-0.1503906,0.2724609-0.1337891,0.3657227
			c0.015625,0.1259766,0.0722656,0.2226563,0.1689453,0.2905273c0.1181641,0.0830078,0.3916016,0.168457,0.8164063,0.2573242
			l2.2099609,0.4438477l-1.0449219-1.6142578c-0.2978516-0.4624023-0.5332031-0.7539063-0.7060547-0.8754883
			c-0.0996094-0.0698242-0.2060547-0.0908203-0.3193359-0.0620117c-0.1123047,0.027832-0.2363281,0.1313477-0.3710938,0.3095703
			l-0.1777344-0.125l1.03125-1.4716797l0.1777344,0.125c-0.0791016,0.1547852-0.1074219,0.3076172-0.0839844,0.4575195
			c0.0234375,0.1503906,0.1845703,0.4638672,0.4824219,0.940918l2.4804688,3.9770508L231.5286407,59.0048828z"/>
		<path id="XMLID_199_" class="st1" d="M244.4895782,40.5185547l-4.5517578-0.9311523
			c-0.5478516-0.1118164-0.9140625-0.1557617-1.0986328-0.1323242c-0.1347656,0.015625-0.2666016,0.0854492-0.3974609,0.2089844
			l-0.1777344-0.125l1.6757813-2.3896484l0.1777344,0.125c-0.1054688,0.1503906-0.1503906,0.2719727-0.1337891,0.3652344
			c0.0166016,0.1259766,0.0722656,0.2226563,0.1689453,0.2905273c0.1181641,0.0830078,0.3916016,0.1689453,0.8164063,0.2573242
			l2.2099609,0.4438477l-1.0449219-1.6137695c-0.2978516-0.4624023-0.5332031-0.7539063-0.7060547-0.8754883
			c-0.0996094-0.0698242-0.2060547-0.0913086-0.3183594-0.0625c-0.1132813,0.0283203-0.2373047,0.1318359-0.3720703,0.3095703
			l-0.1777344-0.125l1.0322266-1.4711914l0.1777344,0.125c-0.0800781,0.1542969-0.1083984,0.3071289-0.0849609,0.4570313
			c0.0244141,0.1508789,0.1845703,0.4638672,0.4824219,0.940918l2.4804688,3.9770508L244.4895782,40.5185547z"/>
		<path id="XMLID_201_" class="st1" d="M257.2015076,22.387207l-4.5507965-0.9311523
			c-0.5478516-0.1123047-0.9140625-0.15625-1.0996094-0.1323242c-0.1347656,0.0151367-0.2666016,0.0849609-0.3964844,0.2089844
			l-0.1777344-0.125l1.6748047-2.3901367l0.1777344,0.125c-0.1054688,0.1508789-0.1494141,0.2724609-0.1328125,0.3652344
			c0.015625,0.1264648,0.0722656,0.2231445,0.1689453,0.2910156c0.1181641,0.0830078,0.390625,0.168457,0.8164063,0.2568359
			L255.8909454,20.5l-1.0439453-1.6142578c-0.2978516-0.4624023-0.5332031-0.7539063-0.7060547-0.8754883
			c-0.0996094-0.0698242-0.2060547-0.0908203-0.3193359-0.0620117c-0.1132813,0.027832-0.2363281,0.1313477-0.3710938,0.3095703
			l-0.1777344-0.125l1.03125-1.4716797l0.1777344,0.125c-0.0791016,0.1547852-0.1074219,0.3076172-0.0839844,0.4575195
			c0.0234375,0.1503906,0.1835938,0.4638672,0.4824219,0.940918l2.480484,3.9765625L257.2015076,22.387207z"/>
	</g>
</g>
<g id="XMLID_193_">
</g>
<g id="XMLID_278_">
</g>
<g id="XMLID_279_">
</g>
<g id="XMLID_280_">
</g>
<g id="XMLID_281_">
</g>
<g id="XMLID_282_">
</g>
</svg>
