<?xml version="1.0" encoding="UTF-8" standalone="no"?>
<!DOCTYPE svg PUBLIC "-//W3C//DTD SVG 1.1//EN" "http://www.w3.org/Graphics/SVG/1.1/DTD/svg11.dtd">
<svg xmlns="http://www.w3.org/2000/svg" xmlns:xlink="http://www.w3.org/1999/xlink" version="1.1" width="209.04pt" height="195pt" viewBox="0 0 209.04 195">
<g enable-background="new">
<g>
<g id="Layer-1" data-name="P">
<clipPath id="cp0">
<path transform="matrix(1,0,0,-1,0,195)" d="M .000003115 0 L 209.04 0 L 209.04 195 L .000003115 195 Z " fill-rule="evenodd"/>
</clipPath>
<g clip-path="url(#cp0)">
<text xml:space="preserve" transform="matrix(1 0 -0 1 0 195)" font-size="11.04" font-family="Calibri"><tspan y="-.12" x="208.8"> </tspan></text>
</g>
</g>
<g id="Layer-1" data-name="P">
<clipPath id="cp1">
<path transform="matrix(1,0,0,-1,0,195)" d="M .000003115 .23328 L 208.75 .23328 L 208.75 195.00328 L .000003115 195.00328 Z " fill-rule="evenodd"/>
</clipPath>
<g clip-path="url(#cp1)">
<clipPath id="cp2">
<path transform="matrix(.10623326,0,0,-.10599664,0,194.76674)" d="M 0 0 L 1965 0 L 1965 1837.5 L 0 1837.5 Z " fill-rule="evenodd"/>
</clipPath>
<g clip-path="url(#cp2)">
<path transform="matrix(.10623326,0,0,-.10599664,0,194.76674)" d="M 661.88 813.75 L 661.88 1575.16 L 673.13 1575.16 L 673.13 813.75 C 673.13 810.64 670.61 808.12 667.5 808.12 C 664.39 808.12 661.88 810.64 661.88 813.75 Z M 667.5 1732.5 L 622.5 1575 L 661.88 1575 L 673.13 1575 L 712.5 1575 Z "/>
<path transform="matrix(.10623326,0,0,-.10599664,0,194.76674)" d="M 671.89 810.24 L 185.18 201.85 L 176.4 208.88 L 663.11 817.26 C 665.05 819.69 668.59 820.08 671.01 818.14 C 673.44 816.2 673.83 812.66 671.89 810.24 Z M 82.5 82.5 L 216.03 177.38 L 185.28 201.97 L 176.5 209 L 145.75 233.6 Z "/>
<path transform="matrix(.10623326,0,0,-.10599664,0,194.76674)" d="M 667.5 819.37 L 1725.16 819.37 L 1725.16 808.12 L 667.5 808.12 C 664.39 808.12 661.88 810.64 661.88 813.75 C 661.88 816.86 664.39 819.37 667.5 819.37 Z M 1882.5 813.75 L 1725 858.75 L 1725 819.37 L 1725 808.12 L 1725 768.75 Z "/>
<path transform="matrix(.10623326,0,0,-.10599664,0,194.76674)" d="M 1176 982.5 C 1176 962.62 1159.88 946.5 1140 946.5 C 1120.12 946.5 1104 962.62 1104 982.5 C 1104 1002.38 1120.12 1018.5 1140 1018.5 C 1159.88 1018.5 1176 1002.38 1176 982.5 Z " fill-rule="evenodd"/>
<path transform="matrix(.10623326,0,0,-.10599664,0,194.76674)" d="M 1164 982.5 C 1164 969.24 1153.26 958.5 1140 958.5 C 1126.75 958.5 1116 969.24 1116 982.5 C 1116 995.75 1126.75 1006.5 1140 1006.5 C 1153.26 1006.5 1164 995.75 1164 982.5 Z " fill="#c5704c" fill-rule="evenodd"/>
<path transform="matrix(.10623326,0,0,-.10599664,0,194.76674)" d="M 664.98 820.81 L 1024.58 949.24 L 1029.63 935.12 L 670.02 806.69 C 666.12 805.29 661.83 807.33 660.44 811.23 C 659.05 815.13 661.08 819.42 664.98 820.81 Z M 1140 982.5 L 983.6 974.43 L 1024.47 949.2 L 1029.51 935.08 L 1013.87 889.67 Z "/>
<path transform="matrix(.10623326,0,0,-.10599664,0,194.76674)" stroke-width="7.5" stroke-linecap="round" stroke-dasharray="30,15" stroke-linejoin="round" fill="none" stroke="#990000" d="M 1140 570 L 1342.5 813.75 "/>
<path transform="matrix(.10623326,0,0,-.10599664,0,194.76674)" stroke-width="7.5" stroke-linecap="round" stroke-dasharray="30,15" stroke-linejoin="round" fill="none" stroke="#783f04" d="M 1140 570 L 1140 982.5 "/>
<path transform="matrix(.10623326,0,0,-.10599664,0,194.76674)" stroke-width="7.5" stroke-linecap="round" stroke-dasharray="30,15" stroke-linejoin="round" fill="none" stroke="#274e13" d="M 465 570 L 1140 570 "/>
<clipPath id="cp3">
<path transform="matrix(2.124763,0,0,-2.1199117,25.2389,184.79003)" d="M 0 0 L 5.419 0 L 5.419 9.4548 L 0 9.4548 Z " fill-rule="evenodd"/>
</clipPath>
<g clip-path="url(#cp3)">
<path transform="matrix(2.124763,0,0,-2.1199117,25.2389,184.79003)" d="M 4.2941 2.8896 C 4.0374 2.9032 3.8039 2.9102 3.5936 2.9102 L 3.5877 2.9102 C 3.3389 2.9102 3.073 2.9032 2.7899 2.8896 L 2.7899 3.2812 L 3.0205 3.2812 L 2.5989 3.8789 L 2.1411 3.2724 C 2.1451 3.2781 2.1471 3.286 2.1471 3.2959 C 2.1471 3.3154 2.1431 3.3261 2.135 3.3283 C 2.1552 3.3184 2.1733 3.3095 2.1895 3.3018 C 2.2441 3.2878 2.3271 3.281 2.4383 3.2812 L 2.4383 2.8896 C 2.2016 2.9032 1.9823 2.9102 1.78 2.9102 L 1.7256 2.9102 C 1.5496 2.9102 1.3496 2.9032 1.1251 2.8896 L 1.1251 3.2812 C 1.2281 3.281 1.3111 3.2819 1.3737 3.284 C 1.4365 3.2858 1.4992 3.2908 1.5618 3.2989 C 1.5921 3.3066 1.6199 3.3128 1.6451 3.3178 C 1.6705 3.3226 1.6871 3.3301 1.6952 3.3401 L 2.3532 4.2175 L 1.6012 5.2863 L 1.1555 5.2863 L 1.1555 5.6779 C 1.301 5.6718 1.4263 5.6678 1.5314 5.6659 C 1.6367 5.6639 1.7429 5.663 1.85 5.6632 L 2.1107 5.6632 C 2.1935 5.663 2.2749 5.6639 2.3547 5.6659 C 2.4346 5.6678 2.5352 5.6718 2.6565 5.6779 L 2.6565 5.2863 L 2.4261 5.2863 L 2.7809 4.7858 L 3.169 5.301 C 3.165 5.2949 3.1629 5.2881 3.1629 5.2804 C 3.1629 5.2646 3.1681 5.2537 3.1782 5.248 C 3.16 5.2517 3.1398 5.2576 3.1175 5.2657 C 3.063 5.2793 2.982 5.2861 2.8749 5.2863 L 2.8749 5.6779 C 3.0124 5.6718 3.1307 5.6678 3.2297 5.6659 C 3.3287 5.6639 3.4279 5.663 3.5269 5.6632 L 3.5816 5.6632 C 3.6725 5.663 3.7625 5.6639 3.8514 5.6659 C 3.9404 5.6678 4.0516 5.6718 4.185 5.6779 L 4.185 5.2863 C 4.0819 5.2861 3.9986 5.285 3.9349 5.2832 C 3.8712 5.2811 3.8079 5.2764 3.7452 5.2686 C 3.7191 5.2646 3.6933 5.2605 3.6679 5.2567 C 3.6427 5.2526 3.627 5.2458 3.621 5.2362 L 3.0235 4.4472 L 3.8423 3.2812 L 4.2941 3.2812 L 4.2941 2.8896 Z " fill-rule="evenodd"/>
</g>
<clipPath id="cp4">
<path transform="matrix(2.1245666,0,0,-2.1199117,177.54659,130.6568)" d="M 0 0 L 5.3706 0 L 5.3706 9.4548 L 0 9.4548 Z " fill-rule="evenodd"/>
</clipPath>
<g clip-path="url(#cp4)">
<path transform="matrix(2.1245666,0,0,-2.1199117,177.54659,130.6568)" d="M 4.2447 5.2863 C 4.1597 5.2861 4.0931 5.285 4.0445 5.2832 C 3.9959 5.2811 3.9484 5.2764 3.9019 5.2686 C 3.8798 5.2646 3.8621 5.2611 3.8489 5.2581 C 3.8358 5.2552 3.8283 5.2517 3.8261 5.248 L 2.7131 2.4479 C 2.6708 2.3458 2.6187 2.2487 2.5571 2.1565 C 2.4954 2.0641 2.4231 1.9831 2.3401 1.9136 C 2.2573 1.8438 2.1662 1.7884 2.0672 1.7472 C 1.9682 1.706 1.862 1.6854 1.7488 1.6854 C 1.662 1.6854 1.5805 1.7019 1.5046 1.7354 C 1.4288 1.7687 1.3628 1.8129 1.3061 1.8679 C 1.2494 1.9228 1.205 1.9866 1.1727 2.0593 C 1.1403 2.1318 1.1241 2.2104 1.1241 2.2948 C 1.1241 2.4283 1.1677 2.5289 1.2546 2.5966 C 1.3414 2.6644 1.4364 2.6982 1.5394 2.6982 C 1.6427 2.6982 1.7372 2.6644 1.8232 2.5966 C 1.9091 2.5289 1.952 2.4283 1.952 2.2948 C 1.952 2.1947 1.9259 2.1127 1.8732 2.049 C 1.8206 1.9851 1.8651 1.9757 2.0065 2.021 L 1.7063 2.021 C 1.7751 2.021 1.8397 2.0328 1.9005 2.0564 C 1.9652 2.0779 2.0217 2.1097 2.0703 2.152 C 2.1189 2.1942 2.1618 2.2442 2.1991 2.3022 C 2.2367 2.36 2.2685 2.4224 2.2946 2.4892 L 2.4796 2.9455 L 1.5455 5.2863 L 1.1423 5.2863 L 1.1423 5.6779 C 1.2899 5.6718 1.4209 5.6678 1.535 5.6659 C 1.6493 5.6639 1.7619 5.663 1.873 5.6632 L 2.1399 5.6632 C 2.2269 5.663 2.3123 5.6639 2.3962 5.6659 C 2.4801 5.6678 2.5848 5.6718 2.7102 5.6779 L 2.7102 5.2863 L 2.3826 5.2863 L 2.898 3.9967 L 3.4137 5.2951 C 3.4118 5.2929 3.4107 5.2881 3.4107 5.2804 C 3.4107 5.2646 3.4148 5.2557 3.4229 5.2539 C 3.4047 5.2557 3.3853 5.2587 3.3651 5.2627 C 3.3268 5.2705 3.2889 5.2762 3.2515 5.2802 C 3.2142 5.2841 3.159 5.2861 3.0861 5.2863 L 3.0861 5.6779 C 3.2076 5.6718 3.3101 5.6678 3.394 5.6659 C 3.4779 5.6639 3.5635 5.663 3.6503 5.6632 L 3.8504 5.6632 C 3.9091 5.663 3.9657 5.6639 4.0202 5.6659 C 4.0749 5.6678 4.1498 5.6718 4.2447 5.6779 L 4.2447 5.2863 Z " fill-rule="evenodd"/>
</g>
<clipPath id="cp5">
<path transform="matrix(2.1245936,0,0,-2.1199117,79.4816,33.08264)" d="M 0 0 L 4.6822 0 L 4.6822 9.4548 L 0 9.4548 Z " fill-rule="evenodd"/>
</clipPath>
<g clip-path="url(#cp5)">
<path transform="matrix(2.1245936,0,0,-2.1199117,79.4816,33.08264)" d="M 3.4327 2.8925 L 1.2916 2.8925 C 1.2453 2.8925 1.2057 2.9073 1.1733 2.9367 C 1.1409 2.966 1.1247 3.0052 1.1247 3.0545 L 1.1247 3.1075 C 1.1247 3.1288 1.1308 3.1573 1.1429 3.1929 L 2.5713 5.354 L 2.3591 5.354 C 2.2541 5.3538 2.151 5.3459 2.0498 5.3303 C 1.9488 5.3144 1.8628 5.2723 1.792 5.2038 C 1.7173 5.135 1.6707 5.0406 1.6525 4.921 C 1.6345 4.8012 1.6203 4.6658 1.61 4.5149 L 1.2037 4.5149 L 1.2916 5.6749 L 3.3659 5.6749 C 3.4125 5.6748 3.4519 5.66 3.4842 5.6306 C 3.5166 5.6011 3.5326 5.562 3.5326 5.513 L 3.5326 5.4777 C 3.5326 5.446 3.5236 5.4186 3.5054 5.3952 L 2.0953 3.24 L 2.3288 3.24 C 2.444 3.2398 2.5553 3.2519 2.6624 3.2766 C 2.7695 3.3011 2.8606 3.3508 2.9353 3.4255 C 2.9717 3.4606 3.0036 3.5057 3.0308 3.5607 C 3.058 3.6156 3.0788 3.677 3.093 3.7447 C 3.1072 3.8125 3.1182 3.8831 3.1263 3.9567 C 3.1344 4.0303 3.1445 4.1172 3.1567 4.2175 L 3.5569 4.2175 Z " fill-rule="evenodd"/>
</g>
<clipPath id="cp6">
<path transform="matrix(2.1246739,0,0,-2.1199117,113.89162,90.05584)" d="M 0 0 L 6.0408 0 L 6.0408 9.4548 L 0 9.4548 Z " fill-rule="evenodd"/>
</clipPath>
<g clip-path="url(#cp6)">
<path transform="matrix(2.1246739,0,0,-2.1199117,113.89162,90.05584)" d="M 4.9151 5.9075 C 4.9151 5.7386 4.8792 5.577 4.8074 5.423 C 4.7357 5.2688 4.6321 5.1389 4.4964 5.0331 C 4.3408 4.9131 4.168 4.8286 3.9779 4.7797 C 3.788 4.7305 3.5959 4.7061 3.4017 4.7063 L 2.6982 4.7063 L 2.6982 3.2812 L 3.2804 3.2812 L 3.2804 2.8896 C 2.9004 2.9032 2.5416 2.9102 2.2037 2.9102 C 1.8602 2.9102 1.5004 2.9032 1.1243 2.8896 L 1.1243 3.2812 L 1.7065 3.2812 L 1.7065 6.7467 L 1.1243 6.7467 L 1.1243 7.1353 L 3.4017 7.1353 C 3.5959 7.1351 3.788 7.1101 3.9779 7.0601 C 4.168 7.01 4.3408 6.9241 4.4964 6.8026 C 4.6381 6.6926 4.7432 6.5599 4.812 6.405 C 4.8809 6.2498 4.9151 6.084 4.9151 5.9075 Z M 3.8566 5.9075 C 3.8566 5.9662 3.8557 6.0275 3.8537 6.0914 C 3.8516 6.1551 3.8476 6.2169 3.8415 6.2769 C 3.8354 6.3367 3.8259 6.3902 3.8126 6.4373 C 3.7996 6.4844 3.7808 6.5207 3.7565 6.5465 C 3.6899 6.6267 3.6025 6.6802 3.4943 6.7067 C 3.3861 6.7332 3.2744 6.7465 3.1592 6.7467 L 2.6678 6.7467 L 2.6678 5.0655 L 3.1592 5.0655 C 3.2744 5.0653 3.3861 5.0785 3.4943 5.105 C 3.6025 5.1315 3.6899 5.1869 3.7565 5.2716 C 3.7808 5.297 3.7996 5.3332 3.8126 5.3803 C 3.8259 5.4274 3.8354 5.4799 3.8415 5.5378 C 3.8476 5.5956 3.8516 5.6565 3.8537 5.7204 C 3.8557 5.7841 3.8566 5.8464 3.8566 5.9075 Z " fill-rule="evenodd"/>
</g>
<clipPath id="cp7">
<path transform="matrix(2.124694,0,0,-2.1199148,133.68288,130.73206)" d="M 0 0 L 7.6618 0 L 7.6618 9.5253 L 0 9.5253 Z " fill-rule="evenodd"/>
</clipPath>
<g clip-path="url(#cp7)">
<path transform="matrix(2.124694,0,0,-2.1199148,133.68288,130.73206)" d="M 4.0662 3.125 C 4.0662 3.0777 4.0506 3.0388 4.0193 3.0087 C 3.988 2.9781 3.9481 2.963 3.8995 2.963 L 3.5204 2.963 C 3.4619 2.963 3.3997 2.9693 3.3338 2.9822 C 3.2681 2.9949 3.2054 3.0177 3.1457 3.0512 C 3.0861 3.0845 3.0357 3.1281 2.9941 3.1822 C 2.9527 3.2361 2.9319 3.3053 2.9319 3.39 L 2.9319 3.2133 C 2.936 3.219 2.8688 3.1728 2.7304 3.0747 C 2.592 2.9766 2.4297 2.9277 2.2435 2.9277 C 2.1161 2.9277 1.9879 2.9409 1.8585 2.9674 C 1.7291 2.9939 1.6099 3.0368 1.5006 3.0968 C 1.3915 3.1566 1.3015 3.2337 1.2306 3.3279 C 1.16 3.4222 1.1244 3.537 1.1244 3.6726 C 1.1244 3.855 1.1822 4.0114 1.2974 4.1421 C 1.4126 4.2725 1.5492 4.3712 1.7069 4.4381 C 1.897 4.5204 2.0906 4.5763 2.2876 4.6058 C 2.4847 4.6352 2.6671 4.6529 2.8349 4.659 L 2.8349 4.8621 C 2.8349 4.9503 2.8248 5.0336 2.8046 5.1122 C 2.7843 5.1906 2.7501 5.2615 2.7015 5.3244 C 2.6592 5.3752 2.6101 5.4135 2.5545 5.439 C 2.4989 5.4644 2.4408 5.4773 2.38 5.4775 C 2.3114 5.4773 2.2448 5.4744 2.18 5.4685 C 2.1152 5.4626 2.09 5.4617 2.104 5.4657 C 2.0959 5.4734 2.1066 5.4488 2.1358 5.3919 C 2.1653 5.3349 2.1798 5.2683 2.1798 5.1919 C 2.1798 5.0504 2.1334 4.9438 2.0403 4.8722 C 1.9474 4.8005 1.8453 4.7648 1.7341 4.765 C 1.627 4.7648 1.5269 4.8005 1.4338 4.8722 C 1.3409 4.9438 1.2943 5.0504 1.2943 5.1919 C 1.2943 5.3213 1.3307 5.4262 1.4036 5.5068 C 1.4765 5.5872 1.5679 5.649 1.678 5.6922 C 1.7882 5.7353 1.9051 5.7644 2.0284 5.7791 C 2.1517 5.7938 2.2689 5.8012 2.38 5.8014 C 2.5377 5.8012 2.694 5.7844 2.8485 5.7511 C 3.0033 5.7176 3.1474 5.6519 3.2808 5.554 C 3.394 5.4694 3.484 5.3673 3.5506 5.2477 C 3.6174 5.1279 3.6507 4.9994 3.6507 4.8621 L 3.6507 3.4371 C 3.6507 3.4251 3.6689 3.4078 3.7053 3.3854 C 3.7418 3.3627 3.8064 3.3515 3.8995 3.3517 C 3.946 3.3515 3.9854 3.3368 4.0178 3.3073 C 4.0502 3.2779 4.0662 3.2387 4.0662 3.1897 L 4.0662 3.125 Z M 2.8349 4.3616 C 2.7582 4.3535 2.6647 4.3358 2.5545 4.3084 C 2.4442 4.2808 2.3406 4.2416 2.2435 4.1908 C 2.1546 4.1338 2.0843 4.06 2.0328 3.9698 C 1.9813 3.8795 1.9555 3.7805 1.9555 3.6726 C 1.9555 3.5547 1.9893 3.4555 2.0571 3.3751 C 2.1248 3.2945 2.2032 3.2543 2.2921 3.2545 C 2.367 3.2543 2.4373 3.268 2.503 3.2956 C 2.5686 3.323 2.6262 3.3618 2.6757 3.4119 C 2.7254 3.4619 2.7643 3.5197 2.7926 3.5856 C 2.8209 3.6513 2.8349 3.7225 2.8349 3.7992 Z " fill="#660000" fill-rule="evenodd"/>
<path transform="matrix(2.124694,0,0,-2.1199148,133.68288,130.73206)" d="M 6.5782 2.1132 C 6.4172 2.1208 6.2708 2.1247 6.1388 2.1247 L 6.1351 2.1247 C 5.9791 2.1247 5.8123 2.1208 5.6348 2.1132 L 5.6348 2.3325 L 5.7794 2.3325 L 5.515 2.6672 L 5.2278 2.3275 C 5.2304 2.3307 5.2317 2.3351 5.2317 2.3407 C 5.2317 2.3516 5.2291 2.3576 5.224 2.3589 C 5.2367 2.3533 5.248 2.3483 5.2582 2.344 C 5.2925 2.3362 5.3445 2.3324 5.4142 2.3325 L 5.4142 2.1132 C 5.2658 2.1208 5.1282 2.1247 5.0014 2.1247 L 4.9672 2.1247 C 4.8569 2.1247 4.7314 2.1208 4.5906 2.1132 L 4.5906 2.3325 C 4.6553 2.3324 4.7073 2.3329 4.7465 2.334 C 4.7859 2.335 4.8253 2.3378 4.8645 2.3424 C 4.8836 2.3467 4.901 2.3502 4.9168 2.353 C 4.9327 2.3557 4.9431 2.3599 4.9482 2.3654 L 5.3609 2.8568 L 4.8892 3.4553 L 4.6097 3.4553 L 4.6097 3.6746 C 4.701 3.6712 4.7796 3.6689 4.8455 3.6679 C 4.9115 3.6668 4.9781 3.6663 5.0453 3.6664 L 5.2088 3.6664 C 5.2607 3.6663 5.3118 3.6668 5.3618 3.6679 C 5.4119 3.6689 5.4751 3.6712 5.5511 3.6746 L 5.5511 3.4553 L 5.4066 3.4553 L 5.6292 3.175 L 5.8726 3.4636 C 5.87 3.4602 5.8688 3.4564 5.8688 3.452 C 5.8688 3.4432 5.872 3.4371 5.8783 3.4339 C 5.8669 3.4359 5.8542 3.4392 5.8403 3.4438 C 5.8061 3.4514 5.7553 3.4552 5.6881 3.4553 L 5.6881 3.6746 C 5.7743 3.6712 5.8486 3.6689 5.9107 3.6679 C 5.9728 3.6668 6.035 3.6663 6.0971 3.6664 L 6.1313 3.6664 C 6.1884 3.6663 6.2448 3.6668 6.3005 3.6679 C 6.3564 3.6689 6.4261 3.6712 6.5098 3.6746 L 6.5098 3.4553 C 6.4452 3.4552 6.3929 3.4546 6.3529 3.4536 C 6.313 3.4524 6.2733 3.4498 6.2339 3.4454 C 6.2176 3.4432 6.2014 3.4409 6.1855 3.4387 C 6.1697 3.4365 6.1598 3.4326 6.156 3.4273 L 5.7813 2.9854 L 6.2949 2.3325 L 6.5782 2.3325 L 6.5782 2.1132 Z " fill="#660000" fill-rule="evenodd"/>
</g>
<clipPath id="cp8">
<path transform="matrix(2.124631,0,0,-2.1199148,76.348789,150.42623)" d="M 0 0 L 7.6314 0 L 7.6314 9.5253 L 0 9.5253 Z " fill-rule="evenodd"/>
</clipPath>
<g clip-path="url(#cp8)">
<path transform="matrix(2.124631,0,0,-2.1199148,76.348789,150.42623)" d="M 4.0662 3.125 C 4.0662 3.0777 4.0506 3.0388 4.0193 3.0087 C 3.988 2.9781 3.9481 2.963 3.8995 2.963 L 3.5204 2.963 C 3.4619 2.963 3.3997 2.9693 3.3338 2.9822 C 3.2681 2.9949 3.2054 3.0177 3.1457 3.0512 C 3.0861 3.0845 3.0357 3.1281 2.9941 3.1822 C 2.9527 3.2361 2.9319 3.3053 2.9319 3.39 L 2.9319 3.2133 C 2.936 3.219 2.8688 3.1728 2.7304 3.0747 C 2.592 2.9766 2.4297 2.9277 2.2435 2.9277 C 2.1161 2.9277 1.9879 2.9409 1.8585 2.9674 C 1.7291 2.9939 1.6099 3.0368 1.5006 3.0968 C 1.3915 3.1566 1.3015 3.2337 1.2306 3.3279 C 1.16 3.4222 1.1244 3.537 1.1244 3.6726 C 1.1244 3.855 1.1822 4.0114 1.2974 4.1421 C 1.4126 4.2725 1.5492 4.3712 1.7069 4.4381 C 1.897 4.5204 2.0906 4.5763 2.2876 4.6058 C 2.4847 4.6352 2.6671 4.6529 2.8349 4.659 L 2.8349 4.8621 C 2.8349 4.9503 2.8248 5.0336 2.8046 5.1122 C 2.7843 5.1906 2.7501 5.2615 2.7015 5.3244 C 2.6592 5.3752 2.6101 5.4135 2.5545 5.439 C 2.4989 5.4644 2.4408 5.4773 2.38 5.4775 C 2.3114 5.4773 2.2448 5.4744 2.18 5.4685 C 2.1152 5.4626 2.09 5.4617 2.104 5.4657 C 2.0959 5.4734 2.1066 5.4488 2.1358 5.3919 C 2.1653 5.3349 2.1798 5.2683 2.1798 5.1919 C 2.1798 5.0504 2.1334 4.9438 2.0403 4.8722 C 1.9474 4.8005 1.8453 4.7648 1.7341 4.765 C 1.627 4.7648 1.5269 4.8005 1.4338 4.8722 C 1.3409 4.9438 1.2943 5.0504 1.2943 5.1919 C 1.2943 5.3213 1.3307 5.4262 1.4036 5.5068 C 1.4765 5.5872 1.5679 5.649 1.678 5.6922 C 1.7882 5.7353 1.9051 5.7644 2.0284 5.7791 C 2.1517 5.7938 2.2689 5.8012 2.38 5.8014 C 2.5377 5.8012 2.694 5.7844 2.8485 5.7511 C 3.0033 5.7176 3.1474 5.6519 3.2808 5.554 C 3.394 5.4694 3.484 5.3673 3.5506 5.2477 C 3.6174 5.1279 3.6507 4.9994 3.6507 4.8621 L 3.6507 3.4371 C 3.6507 3.4251 3.6689 3.4078 3.7053 3.3854 C 3.7418 3.3627 3.8064 3.3515 3.8995 3.3517 C 3.946 3.3515 3.9854 3.3368 4.0178 3.3073 C 4.0502 3.2779 4.0662 3.2387 4.0662 3.1897 L 4.0662 3.125 Z M 2.8349 4.3616 C 2.7582 4.3535 2.6647 4.3358 2.5545 4.3084 C 2.4442 4.2808 2.3406 4.2416 2.2435 4.1908 C 2.1546 4.1338 2.0843 4.06 2.0328 3.9698 C 1.9813 3.8795 1.9555 3.7805 1.9555 3.6726 C 1.9555 3.5547 1.9893 3.4555 2.0571 3.3751 C 2.1248 3.2945 2.2032 3.2543 2.2921 3.2545 C 2.367 3.2543 2.4373 3.268 2.503 3.2956 C 2.5686 3.323 2.6262 3.3618 2.6757 3.4119 C 2.7254 3.4619 2.7643 3.5197 2.7926 3.5856 C 2.8209 3.6513 2.8349 3.7225 2.8349 3.7992 Z " fill="#274e13" fill-rule="evenodd"/>
<path transform="matrix(2.124631,0,0,-2.1199148,76.348789,150.42623)" d="M 6.5498 3.4553 C 6.4965 3.4552 6.4547 3.4546 6.4243 3.4536 C 6.3938 3.4524 6.364 3.4498 6.3348 3.4454 C 6.321 3.4432 6.3099 3.4412 6.3016 3.4396 C 6.2934 3.4379 6.2886 3.4359 6.2873 3.4339 L 5.5892 1.8659 C 5.5627 1.8087 5.53 1.7542 5.4913 1.7026 C 5.4527 1.6509 5.4073 1.6055 5.3553 1.5666 C 5.3033 1.5275 5.2462 1.4965 5.1841 1.4734 C 5.122 1.4503 5.0554 1.4388 4.9844 1.4388 C 4.9299 1.4388 4.8788 1.4481 4.8313 1.4668 C 4.7837 1.4855 4.7423 1.5102 4.7067 1.541 C 4.6712 1.5717 4.6434 1.6075 4.623 1.6482 C 4.6027 1.6888 4.5926 1.7328 4.5926 1.7801 C 4.5926 1.8548 4.6199 1.9112 4.6744 1.9491 C 4.7289 1.987 4.7884 2.006 4.8531 2.006 C 4.9178 2.006 4.9771 1.987 5.031 1.9491 C 5.0849 1.9112 5.1118 1.8548 5.1118 1.7801 C 5.1118 1.7241 5.0954 1.6781 5.0624 1.6424 C 5.0294 1.6067 5.0574 1.6014 5.146 1.6268 L 4.9578 1.6268 C 5.0009 1.6268 5.0414 1.6334 5.0795 1.6466 C 5.1201 1.6586 5.1556 1.6764 5.1861 1.7001 C 5.2165 1.7237 5.2434 1.7518 5.2668 1.7842 C 5.2904 1.8166 5.3104 1.8515 5.3267 1.8889 L 5.4427 2.1445 L 4.8569 3.4553 L 4.604 3.4553 L 4.604 3.6746 C 4.6966 3.6712 4.7787 3.6689 4.8503 3.6679 C 4.922 3.6668 4.9926 3.6663 5.0623 3.6664 L 5.2297 3.6664 C 5.2843 3.6663 5.3378 3.6668 5.3905 3.6679 C 5.4431 3.6689 5.5088 3.6712 5.5874 3.6746 L 5.5874 3.4553 L 5.3819 3.4553 L 5.7052 2.7331 L 6.0286 3.4603 C 6.0274 3.459 6.0268 3.4564 6.0268 3.452 C 6.0268 3.4432 6.0293 3.4382 6.0344 3.4372 C 6.0229 3.4382 6.0108 3.4399 5.9981 3.4421 C 5.9741 3.4465 5.9503 3.4497 5.9269 3.4519 C 5.9035 3.4541 5.8689 3.4552 5.8232 3.4553 L 5.8232 3.6746 C 5.8993 3.6712 5.9636 3.6689 6.0163 3.6679 C 6.0689 3.6668 6.1226 3.6663 6.177 3.6664 L 6.3025 3.6664 C 6.3393 3.6663 6.3749 3.6668 6.409 3.6679 C 6.4433 3.6689 6.4903 3.6712 6.5498 3.6746 L 6.5498 3.4553 Z " fill="#274e13" fill-rule="evenodd"/>
</g>
<path transform="matrix(.10623326,0,0,-.10599664,0,194.76674)" stroke-width="7.5" stroke-linecap="round" stroke-dasharray="30,15" stroke-linejoin="round" fill="none" stroke="#274e13" d="M 465 982.5 L 1140 982.5 "/>
<clipPath id="cp9">
<path transform="matrix(2.1247044,0,0,-2.1199148,143.85897,90.130039)" d="M 0 0 L 7.7075 0 L 7.7075 9.5253 L 0 9.5253 Z " fill-rule="evenodd"/>
</clipPath>
<g clip-path="url(#cp9)">
<path transform="matrix(2.1247044,0,0,-2.1199148,143.85897,90.130039)" d="M 4.0662 3.125 C 4.0662 3.0777 4.0506 3.0388 4.0193 3.0087 C 3.988 2.9781 3.9481 2.963 3.8995 2.963 L 3.5204 2.963 C 3.4619 2.963 3.3997 2.9693 3.3338 2.9822 C 3.2681 2.9949 3.2054 3.0177 3.1457 3.0512 C 3.0861 3.0845 3.0357 3.1281 2.9941 3.1822 C 2.9527 3.2361 2.9319 3.3053 2.9319 3.39 L 2.9319 3.2133 C 2.936 3.219 2.8688 3.1728 2.7304 3.0747 C 2.592 2.9766 2.4297 2.9277 2.2435 2.9277 C 2.1161 2.9277 1.9879 2.9409 1.8585 2.9674 C 1.7291 2.9939 1.6099 3.0368 1.5006 3.0968 C 1.3915 3.1566 1.3015 3.2337 1.2306 3.3279 C 1.16 3.4222 1.1244 3.537 1.1244 3.6726 C 1.1244 3.855 1.1822 4.0114 1.2974 4.1421 C 1.4126 4.2725 1.5492 4.3712 1.7069 4.4381 C 1.897 4.5204 2.0906 4.5763 2.2876 4.6058 C 2.4847 4.6352 2.6671 4.6529 2.8349 4.659 L 2.8349 4.8621 C 2.8349 4.9503 2.8248 5.0336 2.8046 5.1122 C 2.7843 5.1906 2.7501 5.2615 2.7015 5.3244 C 2.6592 5.3752 2.6101 5.4135 2.5545 5.439 C 2.4989 5.4644 2.4408 5.4773 2.38 5.4775 C 2.3114 5.4773 2.2448 5.4744 2.18 5.4685 C 2.1152 5.4626 2.09 5.4617 2.104 5.4657 C 2.0959 5.4734 2.1066 5.4488 2.1358 5.3919 C 2.1653 5.3349 2.1798 5.2683 2.1798 5.1919 C 2.1798 5.0504 2.1334 4.9438 2.0403 4.8722 C 1.9474 4.8005 1.8453 4.7648 1.7341 4.765 C 1.627 4.7648 1.5269 4.8005 1.4338 4.8722 C 1.3409 4.9438 1.2943 5.0504 1.2943 5.1919 C 1.2943 5.3213 1.3307 5.4262 1.4036 5.5068 C 1.4765 5.5872 1.5679 5.649 1.678 5.6922 C 1.7882 5.7353 1.9051 5.7644 2.0284 5.7791 C 2.1517 5.7938 2.2689 5.8012 2.38 5.8014 C 2.5377 5.8012 2.694 5.7844 2.8485 5.7511 C 3.0033 5.7176 3.1474 5.6519 3.2808 5.554 C 3.394 5.4694 3.484 5.3673 3.5506 5.2477 C 3.6174 5.1279 3.6507 4.9994 3.6507 4.8621 L 3.6507 3.4371 C 3.6507 3.4251 3.6689 3.4078 3.7053 3.3854 C 3.7418 3.3627 3.8064 3.3515 3.8995 3.3517 C 3.946 3.3515 3.9854 3.3368 4.0178 3.3073 C 4.0502 3.2779 4.0662 3.2387 4.0662 3.1897 L 4.0662 3.125 Z M 2.8349 4.3616 C 2.7582 4.3535 2.6647 4.3358 2.5545 4.3084 C 2.4442 4.2808 2.3406 4.2416 2.2435 4.1908 C 2.1546 4.1338 2.0843 4.06 2.0328 3.9698 C 1.9813 3.8795 1.9555 3.7805 1.9555 3.6726 C 1.9555 3.5547 1.9893 3.4555 2.0571 3.3751 C 2.1248 3.2945 2.2032 3.2543 2.2921 3.2545 C 2.367 3.2543 2.4373 3.268 2.503 3.2956 C 2.5686 3.323 2.6262 3.3618 2.6757 3.4119 C 2.7254 3.4619 2.7643 3.5197 2.7926 3.5856 C 2.8209 3.6513 2.8349 3.7225 2.8349 3.7992 Z " fill="#783f04" fill-rule="evenodd"/>
<path transform="matrix(2.1247044,0,0,-2.1199148,143.85897,90.130039)" d="M 6.5484 2.1148 L 4.6938 2.1148 C 4.6647 2.1148 4.6399 2.1231 4.6196 2.1396 C 4.5993 2.1559 4.5891 2.1779 4.5891 2.2055 L 4.5891 2.2599 C 4.5891 2.2741 4.5942 2.289 4.6044 2.3044 L 5.8959 4.2731 L 5.5935 4.2731 C 5.4971 4.273 5.4039 4.2623 5.3139 4.2409 C 5.2238 4.2194 5.1472 4.1796 5.0837 4.1214 C 5.0127 4.0609 4.9648 3.9883 4.9401 3.9037 C 4.9154 3.819 4.8999 3.7223 4.8935 3.6136 L 4.6405 3.6136 L 4.6919 4.4908 L 6.497 4.4908 C 6.5262 4.4907 6.5509 4.4818 6.5712 4.4643 C 6.5915 4.4467 6.6016 4.4252 6.6016 4.4001 L 6.6016 4.3556 C 6.6016 4.3335 6.5947 4.317 6.5807 4.3061 L 5.2968 2.3457 L 5.6277 2.3457 C 5.7304 2.3456 5.8304 2.3576 5.9273 2.3818 C 6.0244 2.4059 6.1071 2.4494 6.1756 2.5122 C 6.2542 2.5846 6.3039 2.6742 6.3248 2.7808 C 6.3458 2.8874 6.3613 3.0062 6.3714 3.1371 L 6.6225 3.1371 Z " fill="#783f04" fill-rule="evenodd"/>
</g>
<path transform="matrix(.10623326,0,0,-.10599664,0,194.76674)" stroke-width="7.5" stroke-linecap="round" stroke-dasharray="30,15" stroke-linejoin="round" fill="none" stroke="#783f04" d="M 465 570 L 465 982.5 "/>
<path transform="matrix(.10623326,0,0,-.10599664,0,194.76674)" stroke-width="7.5" stroke-linecap="round" stroke-dasharray="30,15" stroke-linejoin="round" fill="none" stroke="#990000" d="M 1140 976.38 L 1342.5 1220.13 "/>
<path transform="matrix(.10623326,0,0,-.10599664,0,194.76674)" stroke-width="7.5" stroke-linecap="round" stroke-dasharray="30,15" stroke-linejoin="round" fill="none" stroke="#783f04" d="M 1342.5 811.67 L 1342.5 1224.17 "/>
<path transform="matrix(.10623326,0,0,-.10599664,0,194.76674)" stroke-width="7.5" stroke-linecap="round" stroke-dasharray="30,15" stroke-linejoin="round" fill="none" stroke="#274e13" d="M 673.85 1235.51 L 1342.5 1235.51 "/>
<path transform="matrix(.10623326,0,0,-.10599664,0,194.76674)" stroke-width="7.5" stroke-linecap="round" stroke-dasharray="30,15" stroke-linejoin="round" fill="none" stroke="#990000" d="M 470.77 991.76 L 673.27 1235.51 "/>
</g>
</g>
</g>
</g>
</g>
</svg>
