<?xml version="1.0" encoding="UTF-8" standalone="no"?>
<!DOCTYPE svg PUBLIC "-//W3C//DTD SVG 1.1//EN" "http://www.w3.org/Graphics/SVG/1.1/DTD/svg11.dtd">
<svg xmlns="http://www.w3.org/2000/svg" xmlns:xlink="http://www.w3.org/1999/xlink" version="1.1" width="413.04pt" height="87.96pt" viewBox="0 0 413.04 87.96">
<g enable-background="new">
<g>
<g id="Layer-1" data-name="P">
<clipPath id="cp0">
<path transform="matrix(1,0,0,-1,0,87.96)" d="M .000006155 0 L 413.04 0 L 413.04 87.96 L .000006155 87.96 Z " fill-rule="evenodd"/>
</clipPath>
<g clip-path="url(#cp0)">
<text xml:space="preserve" transform="matrix(1 0 -0 1 0 87.96)" font-size="11.064" font-family="Calibri"><tspan y="0" x="412.56"> </tspan></text>
</g>
</g>
<g id="Layer-1" data-name="P">
<clipPath id="cp1">
<path transform="matrix(1,0,0,-1,0,87.96)" d="M .000006155 .060028 L 412.53 .060028 L 412.53 87.96003 L .000006155 87.96003 Z " fill-rule="evenodd"/>
</clipPath>
<g clip-path="url(#cp1)">
<clipPath id="cp2">
<path transform="matrix(.10651326,0,0,-.106542889,0,87.89999)" d="M 0 0 L 3873 0 L 3873 825 L 0 825 Z " fill-rule="evenodd"/>
</clipPath>
<g clip-path="url(#cp2)">
<path transform="matrix(.10651326,0,0,-.106542889,0,87.89999)" stroke-width="15" stroke-linecap="round" stroke-linejoin="round" fill="none" stroke="#000000" d="M 436.5 412.5 L 3436.5 412.5 "/>
<path transform="matrix(.10651326,0,0,-.106542889,0,87.89999)" d="M 3436.5 420 L 3580.71 420 L 3580.71 405 L 3436.5 405 C 3432.36 405 3429 408.36 3429 412.5 C 3429 416.64 3432.36 420 3436.5 420 Z M 3790.5 412.5 L 3580.5 472.5 L 3580.5 420 L 3580.5 405 L 3580.5 352.5 Z "/>
<path transform="matrix(.10651326,0,0,-.106542889,0,87.89999)" stroke-width="15" stroke-linecap="round" stroke-linejoin="round" fill="none" stroke="#000000" d="M 82.5 412.5 L 436.5 412.5 "/>
<path transform="matrix(.10651326,0,0,-.106542889,0,87.89999)" stroke-width="15" stroke-linecap="round" stroke-linejoin="round" fill="none" stroke="#000000" d="M 436.5 412.5 L 436.5 340.14 "/>
<path transform="matrix(.10651326,0,0,-.106542889,0,87.89999)" stroke-width="15" stroke-linecap="round" stroke-linejoin="round" fill="none" stroke="#000000" d="M 1036.5 412.5 L 1036.5 340.14 "/>
<path transform="matrix(.10651326,0,0,-.106542889,0,87.89999)" stroke-width="15" stroke-linecap="round" stroke-linejoin="round" fill="none" stroke="#000000" d="M 1636.5 412.5 L 1636.5 340.14 "/>
<path transform="matrix(.10651326,0,0,-.106542889,0,87.89999)" stroke-width="15" stroke-linecap="round" stroke-linejoin="round" fill="none" stroke="#000000" d="M 2236.5 412.5 L 2236.5 340.14 "/>
<path transform="matrix(.10651326,0,0,-.106542889,0,87.89999)" stroke-width="15" stroke-linecap="round" stroke-linejoin="round" fill="none" stroke="#000000" d="M 2836.5 412.5 L 2836.5 340.14 "/>
<path transform="matrix(.10651326,0,0,-.106542889,0,87.89999)" stroke-width="15" stroke-linecap="round" stroke-linejoin="round" fill="none" stroke="#000000" d="M 3436.5 412.5 L 3436.5 340.14 "/>
<path transform="matrix(.10651326,0,0,-.106542889,0,87.89999)" stroke-width="15" stroke-linecap="round" stroke-linejoin="round" fill="none" stroke="#000000" d="M 436.5 412.5 L 436.5 376.32 "/>
<path transform="matrix(.10651326,0,0,-.106542889,0,87.89999)" stroke-width="15" stroke-linecap="round" stroke-linejoin="round" fill="none" stroke="#000000" d="M 736.5 412.5 L 736.5 376.32 "/>
<path transform="matrix(.10651326,0,0,-.106542889,0,87.89999)" stroke-width="15" stroke-linecap="round" stroke-linejoin="round" fill="none" stroke="#000000" d="M 1036.5 412.5 L 1036.5 376.32 "/>
<path transform="matrix(.10651326,0,0,-.106542889,0,87.89999)" stroke-width="15" stroke-linecap="round" stroke-linejoin="round" fill="none" stroke="#000000" d="M 1336.5 412.5 L 1336.5 376.32 "/>
<path transform="matrix(.10651326,0,0,-.106542889,0,87.89999)" stroke-width="15" stroke-linecap="round" stroke-linejoin="round" fill="none" stroke="#000000" d="M 1636.5 412.5 L 1636.5 376.32 "/>
<path transform="matrix(.10651326,0,0,-.106542889,0,87.89999)" stroke-width="15" stroke-linecap="round" stroke-linejoin="round" fill="none" stroke="#000000" d="M 1936.5 412.5 L 1936.5 376.32 "/>
<path transform="matrix(.10651326,0,0,-.106542889,0,87.89999)" stroke-width="15" stroke-linecap="round" stroke-linejoin="round" fill="none" stroke="#000000" d="M 2236.5 412.5 L 2236.5 376.32 "/>
<path transform="matrix(.10651326,0,0,-.106542889,0,87.89999)" stroke-width="15" stroke-linecap="round" stroke-linejoin="round" fill="none" stroke="#000000" d="M 2536.5 412.5 L 2536.5 376.32 "/>
<path transform="matrix(.10651326,0,0,-.106542889,0,87.89999)" stroke-width="15" stroke-linecap="round" stroke-linejoin="round" fill="none" stroke="#000000" d="M 2836.5 412.5 L 2836.5 376.32 "/>
<path transform="matrix(.10651326,0,0,-.106542889,0,87.89999)" stroke-width="15" stroke-linecap="round" stroke-linejoin="round" fill="none" stroke="#000000" d="M 3136.5 412.5 L 3136.5 376.32 "/>
<path transform="matrix(.10651326,0,0,-.106542889,0,87.89999)" stroke-width="15" stroke-linecap="round" stroke-linejoin="round" fill="none" stroke="#000000" d="M 3436.5 412.5 L 3436.5 376.32 "/>
<path transform="matrix(.10651326,0,0,-.106542889,0,87.89999)" d="M 396.49 230.87 C 396.49 244.53 398.55 256.3 402.67 266.16 C 406.79 276.02 412.27 283.37 419.1 288.2 C 424.4 292.03 429.87 293.94 435.53 293.94 C 444.71 293.94 452.96 289.26 460.26 279.9 C 469.39 268.3 473.95 252.57 473.95 232.73 C 473.95 218.83 471.95 207.02 467.94 197.31 C 463.94 187.59 458.83 180.54 452.62 176.15 C 446.41 171.77 440.42 169.57 434.64 169.57 C 423.22 169.57 413.71 176.31 406.11 189.8 C 399.7 201.16 396.49 214.86 396.49 230.87 Z M 413.8 228.66 C 413.8 212.18 415.83 198.72 419.89 188.3 C 423.25 179.52 428.26 175.14 434.91 175.14 C 438.09 175.14 441.39 176.56 444.8 179.42 C 448.22 182.28 450.81 187.06 452.58 193.77 C 455.28 203.9 456.64 218.18 456.64 236.61 C 456.64 250.28 455.23 261.67 452.4 270.8 C 450.28 277.57 447.54 282.37 444.18 285.2 C 441.77 287.14 438.85 288.11 435.44 288.11 C 431.44 288.11 427.87 286.31 424.75 282.72 C 420.51 277.84 417.63 270.15 416.1 259.67 C 414.56 249.19 413.8 238.85 413.8 228.66 Z " fill-rule="evenodd"/>
<path transform="matrix(.10651326,0,0,-.106542889,0,87.89999)" d="M 1072.89 194.75 L 1064.5 171.69 L 993.84 171.69 L 993.84 174.96 C 1014.62 193.92 1029.26 209.41 1037.74 221.42 C 1046.22 233.43 1050.46 244.42 1050.46 254.37 C 1050.46 261.97 1048.13 268.21 1043.48 273.09 C 1038.83 277.98 1033.26 280.43 1026.78 280.43 C 1020.89 280.43 1015.61 278.7 1010.93 275.26 C 1006.25 271.81 1002.79 266.76 1000.55 260.11 L 997.28 260.11 C 998.75 271 1002.54 279.37 1008.63 285.2 C 1014.73 291.03 1022.34 293.94 1031.46 293.94 C 1041.18 293.94 1049.29 290.82 1055.8 284.58 C 1062.31 278.34 1065.56 270.97 1065.56 262.5 C 1065.56 256.43 1064.15 250.36 1061.32 244.3 C 1056.96 234.76 1049.9 224.66 1040.12 214 C 1025.46 197.98 1016.3 188.33 1012.65 185.03 L 1043.92 185.03 C 1050.28 185.03 1054.74 185.27 1057.3 185.74 C 1059.86 186.21 1062.17 187.16 1064.24 188.61 C 1066.3 190.05 1068.09 192.1 1069.62 194.75 Z " fill-rule="evenodd"/>
<path transform="matrix(.10651326,0,0,-.106542889,0,87.89999)" d="M 1674.13 215.86 L 1674.13 203.31 L 1658.05 203.31 L 1658.05 171.69 L 1643.48 171.69 L 1643.48 203.31 L 1592.78 203.31 L 1592.78 214.62 L 1648.34 293.94 L 1658.05 293.94 L 1658.05 215.86 Z M 1643.48 215.86 L 1643.48 275.3 L 1601.43 215.86 Z " fill-rule="evenodd"/>
<path transform="matrix(.10651326,0,0,-.106542889,0,87.89999)" d="M 2271.04 293.94 L 2271.04 290.67 C 2263.26 289.91 2256.92 288.36 2252 286.04 C 2247.08 283.71 2242.23 280.16 2237.43 275.39 C 2232.63 270.62 2228.65 265.31 2225.5 259.45 C 2222.35 253.59 2219.72 246.63 2217.6 238.56 C 2226.08 244.39 2234.59 247.3 2243.12 247.3 C 2251.31 247.3 2258.41 244 2264.41 237.41 C 2270.42 230.81 2273.42 222.33 2273.42 211.97 C 2273.42 201.96 2270.39 192.83 2264.32 184.59 C 2257.02 174.58 2247.36 169.57 2235.35 169.57 C 2227.17 169.57 2220.22 172.28 2214.51 177.7 C 2203.32 188.24 2197.72 201.9 2197.72 218.68 C 2197.72 229.4 2199.87 239.59 2204.17 249.25 C 2208.47 258.9 2214.61 267.47 2222.59 274.95 C 2230.57 282.43 2238.21 287.46 2245.51 290.05 C 2252.81 292.65 2259.61 293.94 2265.91 293.94 Z M 2216.1 232.11 C 2215.04 224.16 2214.51 217.74 2214.51 212.85 C 2214.51 207.2 2215.55 201.06 2217.64 194.44 C 2219.73 187.81 2222.84 182.56 2226.96 178.67 C 2229.96 175.9 2233.61 174.52 2237.91 174.52 C 2243.04 174.52 2247.61 176.93 2251.65 181.76 C 2255.68 186.59 2257.7 193.48 2257.7 202.43 C 2257.7 212.5 2255.7 221.22 2251.69 228.58 C 2247.69 235.94 2242.01 239.62 2234.64 239.62 C 2232.41 239.62 2230.01 239.15 2227.45 238.2 C 2224.88 237.26 2221.1 235.23 2216.1 232.11 Z " fill-rule="evenodd"/>
<path transform="matrix(.10651326,0,0,-.106542889,0,87.89999)" d="M 2824.66 232.02 C 2815.18 239.79 2809.07 246.04 2806.33 250.75 C 2803.6 255.46 2802.23 260.35 2802.23 265.41 C 2802.23 273.18 2805.23 279.88 2811.24 285.51 C 2817.24 291.13 2825.22 293.94 2835.17 293.94 C 2844.83 293.94 2852.61 291.32 2858.49 286.08 C 2864.38 280.84 2867.33 274.86 2867.33 268.15 C 2867.33 263.67 2865.74 259.11 2862.56 254.46 C 2859.38 249.81 2852.75 244.33 2842.68 238.03 C 2853.05 230.02 2859.91 223.72 2863.26 219.13 C 2867.74 213.12 2869.98 206.79 2869.98 200.13 C 2869.98 191.71 2866.77 184.51 2860.35 178.54 C 2853.93 172.56 2845.51 169.57 2835.09 169.57 C 2823.72 169.57 2814.86 173.13 2808.5 180.26 C 2803.43 185.97 2800.9 192.21 2800.9 198.99 C 2800.9 204.29 2802.68 209.54 2806.25 214.75 C 2809.81 219.96 2815.95 225.72 2824.66 232.02 Z M 2838.53 241.47 C 2845.6 247.83 2850.07 252.85 2851.96 256.53 C 2853.84 260.21 2854.78 264.38 2854.78 269.03 C 2854.78 275.21 2853.05 280.06 2849.57 283.56 C 2846.1 287.07 2841.36 288.82 2835.35 288.82 C 2829.34 288.82 2824.46 287.08 2820.69 283.61 C 2816.92 280.13 2815.04 276.07 2815.04 271.42 C 2815.04 268.35 2815.82 265.29 2817.38 262.23 C 2818.94 259.17 2821.16 256.25 2824.05 253.49 Z M 2828.81 228.66 C 2823.93 224.54 2820.31 220.05 2817.95 215.19 C 2815.59 210.34 2814.42 205.08 2814.42 199.43 C 2814.42 191.83 2816.49 185.75 2820.64 181.19 C 2824.8 176.62 2830.08 174.34 2836.5 174.34 C 2842.86 174.34 2847.95 176.14 2851.78 179.73 C 2855.61 183.32 2857.52 187.68 2857.52 192.8 C 2857.52 197.04 2856.4 200.84 2854.17 204.2 C 2849.98 210.44 2841.53 218.6 2828.81 228.66 Z " fill-rule="evenodd"/>
<path transform="matrix(.10651326,0,0,-.106542889,0,87.89999)" d="M 3364.51 279.72 L 3393.66 293.94 L 3396.57 293.94 L 3396.57 192.8 C 3396.57 186.09 3396.85 181.91 3397.41 180.26 C 3397.97 178.61 3399.14 177.34 3400.9 176.46 C 3402.67 175.58 3406.26 175.08 3411.68 174.96 L 3411.68 171.69 L 3366.63 171.69 L 3366.63 174.96 C 3372.28 175.08 3375.93 175.56 3377.58 176.42 C 3379.23 177.27 3380.38 178.42 3381.03 179.86 C 3381.68 181.31 3382 185.62 3382 192.8 L 3382 257.46 C 3382 266.18 3381.71 271.77 3381.12 274.24 C 3380.7 276.13 3379.95 277.51 3378.86 278.39 C 3377.77 279.28 3376.46 279.72 3374.93 279.72 C 3372.75 279.72 3369.72 278.81 3365.84 276.98 Z M 3443.04 230.87 C 3443.04 244.53 3445.1 256.3 3449.22 266.16 C 3453.34 276.02 3458.82 283.37 3465.65 288.2 C 3470.95 292.03 3476.42 293.94 3482.08 293.94 C 3491.26 293.94 3499.51 289.26 3506.81 279.9 C 3515.94 268.3 3520.5 252.57 3520.5 232.73 C 3520.5 218.83 3518.5 207.02 3514.49 197.31 C 3510.49 187.59 3505.38 180.54 3499.17 176.15 C 3492.96 171.77 3486.97 169.57 3481.19 169.57 C 3469.77 169.57 3460.26 176.31 3452.66 189.8 C 3446.25 201.16 3443.04 214.86 3443.04 230.87 Z M 3460.35 228.66 C 3460.35 212.18 3462.38 198.72 3466.44 188.3 C 3469.8 179.52 3474.81 175.14 3481.46 175.14 C 3484.64 175.14 3487.94 176.56 3491.35 179.42 C 3494.77 182.28 3497.36 187.06 3499.13 193.77 C 3501.83 203.9 3503.19 218.18 3503.19 236.61 C 3503.19 250.28 3501.78 261.67 3498.95 270.8 C 3496.83 277.57 3494.09 282.37 3490.73 285.2 C 3488.32 287.14 3485.4 288.11 3481.99 288.11 C 3477.99 288.11 3474.42 286.31 3471.3 282.72 C 3467.06 277.84 3464.18 270.15 3462.65 259.67 C 3461.11 249.19 3460.35 238.85 3460.35 228.66 Z " fill-rule="evenodd"/>
<path transform="matrix(.10651326,0,0,-.106542889,0,87.89999)" d="M 1385.86 412.5 C 1385.86 392.62 1369.74 376.5 1349.86 376.5 C 1329.98 376.5 1313.86 392.62 1313.86 412.5 C 1313.86 432.38 1329.98 448.5 1349.86 448.5 C 1369.74 448.5 1385.86 432.38 1385.86 412.5 Z " fill-rule="evenodd"/>
<path transform="matrix(.10651326,0,0,-.106542889,0,87.89999)" d="M 1373.86 412.5 C 1373.86 399.24 1363.11 388.5 1349.86 388.5 C 1336.6 388.5 1325.86 399.24 1325.86 412.5 C 1325.86 425.75 1336.6 436.5 1349.86 436.5 C 1363.11 436.5 1373.86 425.75 1373.86 412.5 Z " fill="#5256fe" fill-rule="evenodd"/>
<path transform="matrix(.10651326,0,0,-.106542889,0,87.89999)" d="M 2272.48 412.5 C 2272.48 392.62 2256.37 376.5 2236.48 376.5 C 2216.6 376.5 2200.48 392.62 2200.48 412.5 C 2200.48 432.38 2216.6 448.5 2236.48 448.5 C 2256.37 448.5 2272.48 432.38 2272.48 412.5 Z " fill-rule="evenodd"/>
<path transform="matrix(.10651326,0,0,-.106542889,0,87.89999)" d="M 2260.48 412.5 C 2260.48 399.24 2249.74 388.5 2236.48 388.5 C 2223.23 388.5 2212.48 399.24 2212.48 412.5 C 2212.48 425.75 2223.23 436.5 2236.48 436.5 C 2249.74 436.5 2260.48 425.75 2260.48 412.5 Z " fill="#5256fe" fill-rule="evenodd"/>
<clipPath id="cp3">
<path transform="matrix(2.1302739,0,0,-2.1308366,136.54468,32.905748)" d="M 0 0 L 6.0408 0 L 6.0408 9.4548 L 0 9.4548 Z " fill-rule="evenodd"/>
</clipPath>
<g clip-path="url(#cp3)">
<path transform="matrix(2.1302739,0,0,-2.1308366,136.54468,32.905748)" d="M 4.9151 5.9075 C 4.9151 5.7386 4.8792 5.577 4.8074 5.423 C 4.7357 5.2688 4.6321 5.1389 4.4964 5.0331 C 4.3408 4.9131 4.168 4.8286 3.9779 4.7797 C 3.788 4.7305 3.5959 4.7061 3.4017 4.7063 L 2.6982 4.7063 L 2.6982 3.2812 L 3.2804 3.2812 L 3.2804 2.8896 C 2.9004 2.9032 2.5416 2.9102 2.2037 2.9102 C 1.8602 2.9102 1.5004 2.9032 1.1243 2.8896 L 1.1243 3.2812 L 1.7065 3.2812 L 1.7065 6.7467 L 1.1243 6.7467 L 1.1243 7.1353 L 3.4017 7.1353 C 3.5959 7.1351 3.788 7.1101 3.9779 7.0601 C 4.168 7.01 4.3408 6.9241 4.4964 6.8026 C 4.6381 6.6926 4.7432 6.5599 4.812 6.405 C 4.8809 6.2498 4.9151 6.084 4.9151 5.9075 Z M 3.8566 5.9075 C 3.8566 5.9662 3.8557 6.0275 3.8537 6.0914 C 3.8516 6.1551 3.8476 6.2169 3.8415 6.2769 C 3.8354 6.3367 3.8259 6.3902 3.8126 6.4373 C 3.7996 6.4844 3.7808 6.5207 3.7565 6.5465 C 3.6899 6.6267 3.6025 6.6802 3.4943 6.7067 C 3.3861 6.7332 3.2744 6.7465 3.1592 6.7467 L 2.6678 6.7467 L 2.6678 5.0655 L 3.1592 5.0655 C 3.2744 5.0653 3.3861 5.0785 3.4943 5.105 C 3.6025 5.1315 3.6899 5.1869 3.7565 5.2716 C 3.7808 5.297 3.7996 5.3332 3.8126 5.3803 C 3.8259 5.4274 3.8354 5.4799 3.8415 5.5378 C 3.8476 5.5956 3.8516 5.6565 3.8537 5.7204 C 3.8557 5.7841 3.8566 5.8464 3.8566 5.9075 Z " fill-rule="evenodd"/>
</g>
<clipPath id="cp4">
<path transform="matrix(2.1303163,0,0,-2.1308366,230.64914,32.905748)" d="M 0 0 L 6.3533 0 L 6.3533 9.4548 L 0 9.4548 Z " fill-rule="evenodd"/>
</clipPath>
<g clip-path="url(#cp4)">
<path transform="matrix(2.1303163,0,0,-2.1308366,230.64914,32.905748)" d="M 5.227 2.9455 C 5.227 2.814 5.2149 2.6776 5.1906 2.5363 C 5.1663 2.3949 5.124 2.2639 5.0632 2.1432 C 5.0025 2.0225 4.9202 1.9224 4.8161 1.8429 C 4.7119 1.7634 4.582 1.7236 4.4263 1.7236 C 4.2526 1.7236 4.1146 1.7619 4.0125 1.8385 C 3.9103 1.915 3.8334 2.0126 3.7819 2.1314 C 3.7304 2.2501 3.6936 2.3788 3.6713 2.5171 C 3.649 2.6555 3.6308 2.7727 3.6166 2.869 C 3.4893 2.8414 3.3367 2.8267 3.1586 2.8248 C 2.8796 2.8248 2.6113 2.8738 2.3535 2.9719 C 2.0959 3.0699 1.8708 3.2183 1.6787 3.4166 C 1.4787 3.6305 1.3363 3.8743 1.2512 4.1481 C 1.1662 4.4219 1.1237 4.7022 1.1237 4.9889 C 1.1237 5.2832 1.1653 5.5691 1.2481 5.847 C 1.3311 6.1247 1.4746 6.3735 1.6787 6.5936 C 1.8688 6.7995 2.0933 6.952 2.3521 7.0512 C 2.6108 7.1502 2.8796 7.1999 3.1586 7.2001 C 3.4378 7.1999 3.7066 7.1502 3.9654 7.0512 C 4.2241 6.952 4.4486 6.7995 4.6387 6.5936 C 4.843 6.3735 4.9865 6.1252 5.0693 5.8485 C 5.1521 5.5717 5.1935 5.2852 5.1935 4.9889 C 5.1935 4.7022 5.1512 4.4223 5.0662 4.1496 C 4.9813 3.8767 4.8389 3.6323 4.6387 3.4166 C 4.4648 3.2339 4.2848 3.1044 4.0988 3.028 C 4.1372 2.963 4.1882 2.8999 4.2519 2.8381 C 4.3156 2.7762 4.3939 2.7453 4.4871 2.7453 C 4.6144 2.7453 4.714 2.7654 4.7857 2.8057 C 4.8575 2.8458 4.8934 2.8925 4.8934 2.9455 C 4.8934 2.9904 4.9087 3.0287 4.9388 3.0602 C 4.9692 3.0915 5.0097 3.1073 5.0601 3.1075 C 5.1067 3.1073 5.146 3.0915 5.1784 3.0602 C 5.2108 3.0287 5.227 2.9904 5.227 2.9455 Z M 4.1656 4.9889 C 4.1656 5.2281 4.1534 5.4666 4.1291 5.7042 C 4.1049 5.9416 4.0362 6.1635 3.9229 6.3698 C 3.8441 6.5148 3.7375 6.632 3.603 6.7215 C 3.4687 6.8107 3.3206 6.8554 3.1586 6.8556 C 2.997 6.8554 2.8489 6.8107 2.7144 6.7215 C 2.5801 6.632 2.4733 6.5148 2.3944 6.3698 C 2.3379 6.2636 2.2935 6.1547 2.2611 6.0428 C 2.2288 5.9309 2.2045 5.8176 2.1883 5.7027 C 2.1721 5.5879 2.162 5.4705 2.1579 5.3509 C 2.1539 5.2311 2.1518 5.1104 2.1518 4.9889 C 2.1518 4.873 2.1539 4.7565 2.1579 4.6398 C 2.162 4.523 2.1721 4.4072 2.1883 4.2924 C 2.2045 4.1776 2.2288 4.0657 2.2611 3.9567 C 2.2935 3.8478 2.3379 3.7433 2.3944 3.6433 C 2.4249 3.5823 2.4623 3.5272 2.5068 3.4783 C 2.5513 3.4291 2.5633 3.4126 2.5431 3.4284 C 2.5572 3.3596 2.5642 3.3458 2.5642 3.3872 C 2.5642 3.548 2.6235 3.6789 2.7416 3.7801 C 2.86 3.8811 2.9989 3.9317 3.1586 3.9319 C 3.3386 3.9317 3.4827 3.882 3.5909 3.783 C 3.6991 3.6838 3.7793 3.5922 3.8319 3.5079 C 3.8542 3.5313 3.8846 3.5775 3.9229 3.6463 C 4.0342 3.8425 4.1025 4.0563 4.1277 4.288 C 4.1531 4.5195 4.1656 4.7532 4.1656 4.9889 Z M 3.5408 3.2724 C 3.5186 3.3605 3.4781 3.4389 3.4196 3.5077 C 3.361 3.5764 3.274 3.6108 3.1586 3.611 C 3.0819 3.6108 3.0193 3.5881 2.9707 3.5431 C 2.9221 3.4978 2.8979 3.4459 2.8979 3.3872 C 2.8979 3.3419 2.9117 3.3005 2.9389 3.2633 C 2.9661 3.226 3.0031 3.1986 3.0495 3.1811 C 3.0657 3.1789 3.0835 3.1769 3.1027 3.175 C 3.1218 3.173 3.1406 3.1721 3.1586 3.1723 C 3.2355 3.1721 3.3084 3.1827 3.377 3.2045 C 3.4459 3.226 3.5003 3.2486 3.5408 3.2724 Z " fill-rule="evenodd"/>
</g>
</g>
</g>
</g>
</g>
</g>
</svg>
