<?xml version="1.0" encoding="UTF-8" standalone="no"?>
<!DOCTYPE svg PUBLIC "-//W3C//DTD SVG 1.1//EN" "http://www.w3.org/Graphics/SVG/1.1/DTD/svg11.dtd">
<svg xmlns="http://www.w3.org/2000/svg" xmlns:xlink="http://www.w3.org/1999/xlink" version="1.1" width="165.96pt" height="174pt" viewBox="0 0 165.96 174">
<g enable-background="new">
<g>
<g id="Layer-1" data-name="P">
<clipPath id="cp0">
<path transform="matrix(1,0,0,-1,0,174)" d="M .000002473 0 L 165.96 0 L 165.96 174 L .000002473 174 Z " fill-rule="evenodd"/>
</clipPath>
<g clip-path="url(#cp0)">
<text xml:space="preserve" transform="matrix(1 0 -0 1 0 174)" font-size="11.04" font-family="Calibri"><tspan y="-.12" x="166.56"> </tspan></text>
</g>
</g>
<g id="Layer-1" data-name="P">
<clipPath id="cp1">
<path transform="matrix(1,0,0,-1,0,174)" d="M .000002473 .20967 L 165.8 .20967 L 165.8 173.99967 L .000002473 173.99967 Z " fill-rule="evenodd"/>
</clipPath>
<g clip-path="url(#cp1)">
<clipPath id="cp2">
<path transform="matrix(.10653903,0,0,-.1065403,0,173.79036)" d="M 0 0 L 1556.24 0 L 1556.24 1631.26 L 0 1631.26 Z " fill-rule="evenodd"/>
</clipPath>
<g clip-path="url(#cp2)">
<path transform="matrix(.10653903,0,0,-.1065403,0,173.79036)" d="M 26.725 431.73 L 1369.38 431.73 L 1369.38 420.48 L 26.725 420.48 C 23.618 420.48 21.1 423 21.1 426.1 C 21.1 429.21 23.618 431.73 26.725 431.73 Z M 1526.72 426.1 L 1369.22 471.1 L 1369.22 431.73 L 1369.22 420.48 L 1369.22 381.1 Z "/>
<path transform="matrix(.10653903,0,0,-.1065403,0,173.79036)" d="M 343.6 62.354 L 343.6 1405.01 L 354.85 1405.01 L 354.85 62.354 C 354.85 59.247 352.33 56.729 349.22 56.729 C 346.12 56.729 343.6 59.247 343.6 62.354 Z M 349.22 1562.35 L 304.22 1404.85 L 343.6 1404.85 L 354.85 1404.85 L 394.22 1404.85 Z "/>
<path transform="matrix(.10653903,0,0,-.1065403,0,173.79036)" stroke-width="15" stroke-linecap="round" stroke-linejoin="round" fill="none" stroke="#000000" d="M 349.22 1000.8 C 666.62 1000.8 923.92 743.5 923.92 426.11 "/>
<path transform="matrix(.10653903,0,0,-.1065403,0,173.79036)" d="M 812.72 812.35 C 812.72 792.47 796.61 776.35 776.72 776.35 C 756.84 776.35 740.72 792.47 740.72 812.35 C 740.72 832.24 756.84 848.35 776.72 848.35 C 796.61 848.35 812.72 832.24 812.72 812.35 Z " fill-rule="evenodd"/>
<path transform="matrix(.10653903,0,0,-.1065403,0,173.79036)" d="M 800.72 812.35 C 800.72 799.1 789.98 788.35 776.72 788.35 C 763.47 788.35 752.72 799.1 752.72 812.35 C 752.72 825.61 763.47 836.35 776.72 836.35 C 789.98 836.35 800.72 825.61 800.72 812.35 Z " fill="#be967d" fill-rule="evenodd"/>
<path transform="matrix(.10653903,0,0,-.1065403,0,173.79036)" d="M 959.92 426.1 C 959.92 406.22 943.8 390.1 923.92 390.1 C 904.04 390.1 887.92 406.22 887.92 426.1 C 887.92 445.99 904.04 462.1 923.92 462.1 C 943.8 462.1 959.92 445.99 959.92 426.1 Z " fill-rule="evenodd"/>
<path transform="matrix(.10653903,0,0,-.1065403,0,173.79036)" d="M 947.92 426.1 C 947.92 412.85 937.17 402.1 923.92 402.1 C 910.66 402.1 899.92 412.85 899.92 426.1 C 899.92 439.36 910.66 450.1 923.92 450.1 C 937.17 450.1 947.92 439.36 947.92 426.1 Z " fill="#be967d" fill-rule="evenodd"/>
<clipPath id="cp3">
<path transform="matrix(2.1308006,0,0,-2.1307848,136.22934,152.04975)" d="M 0 0 L 8.2968 0 L 8.2968 9.4548 L 0 9.4548 Z " fill-rule="evenodd"/>
</clipPath>
<g clip-path="url(#cp3)">
<path transform="matrix(2.1308006,0,0,-2.1307848,136.22934,152.04975)" d="M 3.0794 2.7371 C 3.4891 2.6674 3.7692 2.6334 3.9199 2.6334 C 4.0721 2.6334 4.1466 2.6917 4.1466 2.8148 L 4.1466 4.9913 L 2.545 4.9913 L 2.3053 4.7581 L 1.9312 5.0949 C 2.0932 5.1791 2.2762 5.3475 2.4802 5.5985 C 2.6843 5.8479 2.9563 6.2771 3.2932 6.8827 L 2.226 6.8827 C 1.9944 6.8811 1.7806 6.8552 1.5847 6.805 L 1.345 7.0382 L 3.3466 7.0382 C 3.6138 7.5888 3.7563 7.9515 3.7725 8.1264 L 4.3069 7.8155 C 4.1644 7.7102 3.9862 7.4511 3.7725 7.0382 L 6.0153 7.0382 L 6.3878 7.4009 L 6.9222 6.8827 L 3.719 6.8827 C 3.3288 6.1734 2.9466 5.5937 2.5725 5.1467 L 4.1466 5.1467 C 4.1466 5.6633 4.1385 6.0439 4.1207 6.2868 L 4.7344 6.0018 L 4.5206 5.8204 L 4.5206 5.1467 L 5.7206 5.1467 L 6.0688 5.4836 L 6.5756 4.9913 L 4.5206 4.9913 L 4.5206 2.6853 C 4.5385 2.3905 4.3425 2.1671 3.9328 2.0116 C 3.9166 2.2351 3.6219 2.4424 3.0519 2.6334 Z M 3.1328 4.7063 L 3.6656 4.2917 C 3.5069 4.2561 3.2316 4.0569 2.8397 3.6958 C 2.4316 3.3136 1.9151 2.9346 1.2916 2.5557 L 1.2382 2.6594 C 2.0738 3.2618 2.7053 3.9451 3.1328 4.7063 Z M 5.081 4.5508 C 6.0947 3.9613 6.6599 3.5905 6.7748 3.435 C 6.8914 3.2796 6.9481 3.1322 6.9481 2.9962 C 6.9481 2.9087 6.927 2.8261 6.8817 2.7484 C 6.838 2.6707 6.7975 2.6334 6.7619 2.6334 C 6.6906 2.6334 6.5837 2.7614 6.4412 3.0221 C 6.2469 3.3654 5.766 3.8496 5 4.4731 Z " fill-rule="evenodd"/>
</g>
<clipPath id="cp4">
<path transform="matrix(2.1308006,0,0,-2.1307848,10.513485,30.23796)" d="M 0 0 L 8.2968 0 L 8.2968 9.4548 L 0 9.4548 Z " fill-rule="evenodd"/>
</clipPath>
<g clip-path="url(#cp4)">
<path transform="matrix(2.1308006,0,0,-2.1307848,10.513485,30.23796)" d="M 1.1572 3.4626 C 1.8875 3.7022 2.5466 3.9711 3.1328 4.2658 L 3.1328 5.7686 L 1.3709 5.7686 L 1.3709 6.3386 L 3.1328 6.3386 L 3.1328 7.9191 L 3.6397 7.9191 C 3.8178 7.8835 3.8275 7.8139 3.6656 7.7118 L 3.6656 2.3225 L 3.1328 2.3225 L 3.1328 3.6698 C 2.6697 3.4091 2.1628 3.1581 1.6106 2.9185 C 1.5944 2.7614 1.5491 2.7274 1.4778 2.8148 Z M 5.0275 5.9499 C 5.5085 6.2252 5.9619 6.5621 6.3878 6.9604 L 6.7894 6.4422 C 6.8607 6.3192 6.8072 6.2771 6.6291 6.3127 C 6.1303 5.9661 5.5975 5.6633 5.0275 5.4058 L 5.0275 3.1776 C 5.0275 3.0383 5.0907 2.9687 5.2137 2.9703 L 6.1222 2.9703 C 6.2825 2.9687 6.3716 3.0205 6.3878 3.1257 L 6.5222 3.7994 L 7.1359 3.6698 L 6.9756 2.8925 C 6.9044 2.5638 6.7181 2.4003 6.4153 2.4003 L 4.9741 2.4003 C 4.6534 2.4003 4.4931 2.5638 4.4931 2.8925 L 4.4931 7.9191 L 5 7.9191 C 5.1781 7.8835 5.1878 7.8139 5.0275 7.7118 Z " fill-rule="evenodd"/>
</g>
<clipPath id="cp5">
<path transform="matrix(2.1307893,0,0,-2.1307848,86.54911,91.79588)" d="M 0 0 L 6.0408 0 L 6.0408 9.4548 L 0 9.4548 Z " fill-rule="evenodd"/>
</clipPath>
<g clip-path="url(#cp5)">
<path transform="matrix(2.1307893,0,0,-2.1307848,86.54911,91.79588)" d="M 4.9151 5.9075 C 4.9151 5.7386 4.8792 5.577 4.8074 5.423 C 4.7357 5.2688 4.6321 5.1389 4.4964 5.0331 C 4.3408 4.9131 4.168 4.8286 3.9779 4.7797 C 3.788 4.7305 3.5959 4.7061 3.4017 4.7063 L 2.6982 4.7063 L 2.6982 3.2812 L 3.2804 3.2812 L 3.2804 2.8896 C 2.9004 2.9032 2.5416 2.9102 2.2037 2.9102 C 1.8602 2.9102 1.5004 2.9032 1.1243 2.8896 L 1.1243 3.2812 L 1.7065 3.2812 L 1.7065 6.7467 L 1.1243 6.7467 L 1.1243 7.1353 L 3.4017 7.1353 C 3.5959 7.1351 3.788 7.1101 3.9779 7.0601 C 4.168 7.01 4.3408 6.9241 4.4964 6.8026 C 4.6381 6.6926 4.7432 6.5599 4.812 6.405 C 4.8809 6.2498 4.9151 6.084 4.9151 5.9075 Z M 3.8566 5.9075 C 3.8566 5.9662 3.8557 6.0275 3.8537 6.0914 C 3.8516 6.1551 3.8476 6.2169 3.8415 6.2769 C 3.8354 6.3367 3.8259 6.3902 3.8126 6.4373 C 3.7996 6.4844 3.7808 6.5207 3.7565 6.5465 C 3.6899 6.6267 3.6025 6.6802 3.4943 6.7067 C 3.3861 6.7332 3.2744 6.7465 3.1592 6.7467 L 2.6678 6.7467 L 2.6678 5.0655 L 3.1592 5.0655 C 3.2744 5.0653 3.3861 5.0785 3.4943 5.105 C 3.6025 5.1315 3.6899 5.1869 3.7565 5.2716 C 3.7808 5.297 3.7996 5.3332 3.8126 5.3803 C 3.8259 5.4274 3.8354 5.4799 3.8415 5.5378 C 3.8476 5.5956 3.8516 5.6565 3.8537 5.7204 C 3.8557 5.7841 3.8566 5.8464 3.8566 5.9075 Z " fill-rule="evenodd"/>
</g>
<clipPath id="cp6">
<path transform="matrix(2.1308318,0,0,-2.1307848,95.14681,147.72954)" d="M 0 0 L 6.3533 0 L 6.3533 9.4548 L 0 9.4548 Z " fill-rule="evenodd"/>
</clipPath>
<g clip-path="url(#cp6)">
<path transform="matrix(2.1308318,0,0,-2.1307848,95.14681,147.72954)" d="M 5.227 2.9455 C 5.227 2.814 5.2149 2.6776 5.1906 2.5363 C 5.1663 2.3949 5.124 2.2639 5.0632 2.1432 C 5.0025 2.0225 4.9202 1.9224 4.8161 1.8429 C 4.7119 1.7634 4.582 1.7236 4.4263 1.7236 C 4.2526 1.7236 4.1146 1.7619 4.0125 1.8385 C 3.9103 1.915 3.8334 2.0126 3.7819 2.1314 C 3.7304 2.2501 3.6936 2.3788 3.6713 2.5171 C 3.649 2.6555 3.6308 2.7727 3.6166 2.869 C 3.4893 2.8414 3.3367 2.8267 3.1586 2.8248 C 2.8796 2.8248 2.6113 2.8738 2.3535 2.9719 C 2.0959 3.0699 1.8708 3.2183 1.6787 3.4166 C 1.4787 3.6305 1.3363 3.8743 1.2512 4.1481 C 1.1662 4.4219 1.1237 4.7022 1.1237 4.9889 C 1.1237 5.2832 1.1653 5.5691 1.2481 5.847 C 1.3311 6.1247 1.4746 6.3735 1.6787 6.5936 C 1.8688 6.7995 2.0933 6.952 2.3521 7.0512 C 2.6108 7.1502 2.8796 7.1999 3.1586 7.2001 C 3.4378 7.1999 3.7066 7.1502 3.9654 7.0512 C 4.2241 6.952 4.4486 6.7995 4.6387 6.5936 C 4.843 6.3735 4.9865 6.1252 5.0693 5.8485 C 5.1521 5.5717 5.1935 5.2852 5.1935 4.9889 C 5.1935 4.7022 5.1512 4.4223 5.0662 4.1496 C 4.9813 3.8767 4.8389 3.6323 4.6387 3.4166 C 4.4648 3.2339 4.2848 3.1044 4.0988 3.028 C 4.1372 2.963 4.1882 2.8999 4.2519 2.8381 C 4.3156 2.7762 4.3939 2.7453 4.4871 2.7453 C 4.6144 2.7453 4.714 2.7654 4.7857 2.8057 C 4.8575 2.8458 4.8934 2.8925 4.8934 2.9455 C 4.8934 2.9904 4.9087 3.0287 4.9388 3.0602 C 4.9692 3.0915 5.0097 3.1073 5.0601 3.1075 C 5.1067 3.1073 5.146 3.0915 5.1784 3.0602 C 5.2108 3.0287 5.227 2.9904 5.227 2.9455 Z M 4.1656 4.9889 C 4.1656 5.2281 4.1534 5.4666 4.1291 5.7042 C 4.1049 5.9416 4.0362 6.1635 3.9229 6.3698 C 3.8441 6.5148 3.7375 6.632 3.603 6.7215 C 3.4687 6.8107 3.3206 6.8554 3.1586 6.8556 C 2.997 6.8554 2.8489 6.8107 2.7144 6.7215 C 2.5801 6.632 2.4733 6.5148 2.3944 6.3698 C 2.3379 6.2636 2.2935 6.1547 2.2611 6.0428 C 2.2288 5.9309 2.2045 5.8176 2.1883 5.7027 C 2.1721 5.5879 2.162 5.4705 2.1579 5.3509 C 2.1539 5.2311 2.1518 5.1104 2.1518 4.9889 C 2.1518 4.873 2.1539 4.7565 2.1579 4.6398 C 2.162 4.523 2.1721 4.4072 2.1883 4.2924 C 2.2045 4.1776 2.2288 4.0657 2.2611 3.9567 C 2.2935 3.8478 2.3379 3.7433 2.3944 3.6433 C 2.4249 3.5823 2.4623 3.5272 2.5068 3.4783 C 2.5513 3.4291 2.5633 3.4126 2.5431 3.4284 C 2.5572 3.3596 2.5642 3.3458 2.5642 3.3872 C 2.5642 3.548 2.6235 3.6789 2.7416 3.7801 C 2.86 3.8811 2.9989 3.9317 3.1586 3.9319 C 3.3386 3.9317 3.4827 3.882 3.5909 3.783 C 3.6991 3.6838 3.7793 3.5922 3.8319 3.5079 C 3.8542 3.5313 3.8846 3.5775 3.9229 3.6463 C 4.0342 3.8425 4.1025 4.0563 4.1277 4.288 C 4.1531 4.5195 4.1656 4.7532 4.1656 4.9889 Z M 3.5408 3.2724 C 3.5186 3.3605 3.4781 3.4389 3.4196 3.5077 C 3.361 3.5764 3.274 3.6108 3.1586 3.611 C 3.0819 3.6108 3.0193 3.5881 2.9707 3.5431 C 2.9221 3.4978 2.8979 3.4459 2.8979 3.3872 C 2.8979 3.3419 2.9117 3.3005 2.9389 3.2633 C 2.9661 3.226 3.0031 3.1986 3.0495 3.1811 C 3.0657 3.1789 3.0835 3.1769 3.1027 3.175 C 3.1218 3.173 3.1406 3.1721 3.1586 3.1723 C 3.2355 3.1721 3.3084 3.1827 3.377 3.2045 C 3.4459 3.226 3.5003 3.2486 3.5408 3.2724 Z " fill-rule="evenodd"/>
</g>
</g>
</g>
</g>
</g>
</g>
</svg>
