<?xml version="1.0" encoding="UTF-8"?>
<svg xmlns="http://www.w3.org/2000/svg" xmlns:xlink="http://www.w3.org/1999/xlink" width="769.02pt" height="483pt" viewBox="0 0 769.02 483" version="1.1">
<g id="surface1">
<path style="fill-rule:evenodd;fill:rgb(100%,100%,100%);fill-opacity:1;stroke-width:15;stroke-linecap:round;stroke-linejoin:round;stroke:rgb(0%,0%,0%);stroke-opacity:1;stroke-miterlimit:10;" d="M 2973.84502 1338.813407 L 1766.821244 1338.813407 L 1766.821244 1067.414025 L 1473.848827 1519.746328 L 1766.821244 1972.101236 L 1766.821244 1700.679249 L 2973.84502 1700.679249 Z M 2973.84502 1338.813407 " transform="matrix(0.172998,0,0,-0.172802,0,483.045349)"/>
<path style=" stroke:none;fill-rule:nonzero;fill:rgb(0%,0%,0%);fill-opacity:1;" d="M 72.074219 218.367188 L 727.972656 218.367188 L 727.972656 220.957031 L 72.074219 220.957031 C 71.355469 220.957031 70.777344 220.378906 70.777344 219.660156 C 70.777344 218.945312 71.355469 218.367188 72.074219 218.367188 Z M 748.710938 219.660156 L 722.761719 211.886719 L 727.953125 218.367188 L 727.953125 220.957031 L 722.761719 227.4375 Z M 748.710938 219.660156 "/>
<path style=" stroke:none;fill-rule:evenodd;fill:rgb(0%,0%,0%);fill-opacity:1;" d="M 42.195312 216.894531 C 41.773438 218.535156 41.09375 220.117188 40.15625 221.644531 C 39.21875 223.167969 38.035156 224.566406 36.613281 225.832031 C 35.332031 226.972656 33.929688 227.882812 32.40625 228.554688 C 30.886719 229.226562 29.363281 229.5625 27.835938 229.5625 C 26.296875 229.5625 24.929688 229.222656 23.734375 228.546875 C 22.539062 227.867188 21.585938 226.953125 20.875 225.796875 C 20.09375 224.519531 19.644531 223.105469 19.527344 221.558594 C 19.480469 221.183594 19.457031 220.8125 19.457031 220.4375 C 19.457031 219.273438 19.609375 218.070312 19.914062 216.824219 C 20.355469 215.164062 21.039062 213.550781 21.96875 211.984375 C 22.894531 210.421875 24.082031 209.003906 25.527344 207.734375 C 26.808594 206.59375 28.210938 205.675781 29.734375 204.980469 C 31.253906 204.285156 32.789062 203.9375 34.339844 203.9375 C 35.878906 203.9375 37.242188 204.289062 38.425781 204.988281 C 39.609375 205.6875 40.554688 206.617188 41.265625 207.769531 C 42.046875 209.046875 42.507812 210.472656 42.648438 212.042969 C 42.671875 212.429688 42.683594 212.808594 42.683594 213.179688 C 42.683594 214.390625 42.519531 215.628906 42.195312 216.894531 Z M 38.660156 208.347656 C 38.277344 207.398438 37.699219 206.625 36.929688 206.03125 C 36.160156 205.4375 35.214844 205.144531 34.09375 205.140625 C 32.988281 205.144531 31.886719 205.445312 30.789062 206.046875 C 29.695312 206.652344 28.714844 207.4375 27.851562 208.394531 C 26.769531 209.5625 25.910156 210.824219 25.28125 212.1875 C 24.652344 213.550781 24.164062 214.933594 23.8125 216.332031 C 23.40625 217.863281 23.15625 219.347656 23.0625 220.792969 C 23.039062 221.066406 23.027344 221.339844 23.027344 221.609375 C 23.027344 222.742188 23.214844 223.847656 23.585938 224.933594 C 23.949219 225.894531 24.5 226.699219 25.246094 227.351562 C 25.992188 228 26.925781 228.324219 28.042969 228.324219 C 29.199219 228.324219 30.328125 227.996094 31.429688 227.332031 C 32.53125 226.671875 33.519531 225.855469 34.394531 224.882812 C 35.523438 223.570312 36.40625 222.1875 37.035156 220.726562 C 37.664062 219.269531 38.175781 217.78125 38.574219 216.265625 C 38.933594 214.855469 39.160156 213.464844 39.253906 212.09375 L 39.253906 211.5 C 39.253906 210.371094 39.058594 209.316406 38.660156 208.347656 Z M 38.660156 208.347656 "/>
<path style=" stroke:none;fill-rule:evenodd;fill:rgb(0%,0%,0%);fill-opacity:1;" d="M 731.507812 255.589844 C 731.378906 256.101562 731.121094 256.484375 730.730469 256.738281 C 730.339844 256.992188 729.945312 257.117188 729.550781 257.117188 C 729.144531 257.117188 728.804688 256.988281 728.535156 256.726562 C 728.339844 256.535156 728.234375 256.289062 728.21875 255.980469 C 728.21875 255.859375 728.242188 255.699219 728.289062 255.507812 C 728.421875 255.078125 728.617188 254.753906 728.886719 254.53125 C 729.152344 254.3125 729.339844 254.183594 729.445312 254.148438 C 729.222656 253.980469 728.769531 253.898438 728.082031 253.894531 C 727.476562 253.898438 726.933594 254.210938 726.457031 254.839844 C 725.976562 255.464844 725.621094 256.21875 725.386719 257.101562 L 723.78125 263.308594 C 723.617188 263.929688 723.496094 264.523438 723.414062 265.089844 C 723.367188 265.28125 723.34375 265.453125 723.34375 265.597656 C 723.34375 265.949219 723.402344 266.28125 723.515625 266.597656 C 723.632812 266.9375 723.808594 267.210938 724.042969 267.414062 C 724.277344 267.617188 724.574219 267.71875 724.933594 267.71875 C 725.402344 267.71875 725.851562 267.597656 726.28125 267.355469 C 726.710938 267.113281 727.109375 266.785156 727.46875 266.371094 C 727.832031 265.957031 728.152344 265.476562 728.433594 264.929688 C 728.710938 264.378906 728.933594 263.816406 729.09375 263.242188 C 729.164062 262.949219 729.363281 262.800781 729.691406 262.800781 L 730.089844 262.800781 C 730.394531 262.800781 730.546875 262.914062 730.546875 263.140625 C 730.546875 263.207031 730.53125 263.269531 730.492188 263.324219 C 730.332031 264.003906 730.066406 264.675781 729.699219 265.335938 C 729.332031 265.996094 728.902344 266.582031 728.414062 267.089844 C 727.925781 267.601562 727.367188 268.019531 726.746094 268.34375 C 726.121094 268.675781 725.453125 268.835938 724.742188 268.835938 C 724.019531 268.835938 723.394531 268.683594 722.871094 268.371094 C 722.347656 268.0625 721.921875 267.65625 721.59375 267.15625 C 721.492188 267.035156 721.410156 266.90625 721.351562 266.777344 C 721.292969 266.648438 721.273438 266.628906 721.296875 266.71875 C 721.015625 267.179688 720.574219 267.652344 719.96875 268.125 C 719.363281 268.601562 718.664062 268.835938 717.871094 268.835938 C 717.425781 268.835938 716.988281 268.78125 716.558594 268.667969 C 716.128906 268.554688 715.75 268.378906 715.429688 268.144531 C 715.109375 267.90625 714.867188 267.617188 714.707031 267.277344 C 714.625 267.074219 714.585938 266.855469 714.582031 266.617188 C 714.585938 266.445312 714.609375 266.25 714.652344 266.023438 C 714.78125 265.515625 715.042969 265.132812 715.441406 264.878906 C 715.835938 264.625 716.230469 264.496094 716.628906 264.496094 C 717.035156 264.496094 717.386719 264.625 717.675781 264.886719 C 717.875 265.078125 717.976562 265.328125 717.976562 265.632812 C 717.976562 265.789062 717.953125 265.949219 717.90625 266.105469 C 717.800781 266.503906 717.609375 266.824219 717.335938 267.066406 C 717.0625 267.308594 716.867188 267.441406 716.75 267.464844 C 716.972656 267.644531 717.421875 267.730469 718.097656 267.71875 C 718.703125 267.71875 719.25 267.402344 719.742188 266.769531 C 720.230469 266.136719 720.585938 265.378906 720.808594 264.496094 L 722.433594 258.253906 C 722.597656 257.667969 722.722656 257.089844 722.816406 256.523438 C 722.839844 256.34375 722.851562 256.175781 722.851562 256.015625 C 722.851562 255.664062 722.800781 255.339844 722.695312 255.03125 C 722.578125 254.695312 722.398438 254.421875 722.152344 254.210938 C 721.910156 254 721.605469 253.898438 721.246094 253.894531 C 720.777344 253.898438 720.328125 254.019531 719.890625 254.261719 C 719.453125 254.503906 719.054688 254.828125 718.691406 255.238281 C 718.332031 255.644531 718.011719 256.117188 717.730469 256.652344 C 717.449219 257.191406 717.246094 257.757812 717.117188 258.355469 C 716.992188 258.664062 716.773438 258.820312 716.472656 258.832031 L 716.085938 258.832031 C 715.804688 258.832031 715.667969 258.691406 715.667969 258.40625 L 715.667969 258.289062 C 715.84375 257.589844 716.109375 256.90625 716.472656 256.246094 C 716.832031 255.585938 717.265625 255 717.765625 254.492188 C 718.265625 253.980469 718.828125 253.566406 719.445312 253.242188 C 720.0625 252.921875 720.734375 252.761719 721.453125 252.757812 C 722.15625 252.761719 722.773438 252.914062 723.308594 253.21875 C 723.84375 253.523438 724.28125 253.929688 724.617188 254.4375 C 724.6875 254.5625 724.753906 254.695312 724.8125 254.839844 C 724.871094 254.980469 724.886719 255.015625 724.863281 254.945312 C 725.15625 254.449219 725.605469 253.960938 726.210938 253.480469 C 726.816406 253 727.507812 252.761719 728.289062 252.757812 C 728.734375 252.761719 729.175781 252.816406 729.613281 252.921875 C 730.050781 253.03125 730.425781 253.203125 730.746094 253.4375 C 731.066406 253.675781 731.304688 253.96875 731.457031 254.320312 C 731.539062 254.523438 731.578125 254.757812 731.578125 255.015625 C 731.578125 255.1875 731.554688 255.378906 731.507812 255.589844 Z M 731.507812 255.589844 "/>
<path style=" stroke:none;fill-rule:nonzero;fill:rgb(0%,0%,0%);fill-opacity:1;" d="M 155.28125 409.808594 L 614.15625 409.808594 L 614.15625 411.753906 L 155.28125 411.753906 Z M 128.058594 410.78125 L 155.308594 416.613281 L 155.308594 404.949219 Z M 641.378906 410.78125 L 614.132812 404.949219 L 614.132812 416.613281 Z M 641.378906 410.78125 "/>
<path style="fill:none;stroke-width:7.5;stroke-linecap:round;stroke-linejoin:round;stroke:rgb(0%,0%,0%);stroke-opacity:1;stroke-miterlimit:10;" d="M 740.232349 1519.746328 L 740.232349 240.059588 " transform="matrix(0.172998,0,0,-0.172802,0,483.045349)"/>
<path style="fill:none;stroke-width:7.5;stroke-linecap:round;stroke-linejoin:round;stroke:rgb(0%,0%,0%);stroke-opacity:1;stroke-miterlimit:10;" d="M 3707.438918 1519.746328 L 3707.438918 240.059588 " transform="matrix(0.172998,0,0,-0.172802,0,483.045349)"/>
<path style=" stroke:none;fill-rule:evenodd;fill:rgb(0%,0%,0%);fill-opacity:1;" d="M 134.574219 179.0625 C 134.542969 179.210938 134.46875 179.335938 134.359375 179.445312 C 134.246094 179.550781 134.109375 179.605469 133.945312 179.605469 L 133.613281 179.605469 C 133.289062 179.605469 133.125 179.46875 133.125 179.199219 L 133.125 179.078125 C 133.21875 178.570312 133.300781 178.042969 133.371094 177.496094 C 133.4375 176.945312 133.496094 176.433594 133.542969 175.957031 L 133.542969 175.414062 C 133.542969 175.160156 133.53125 174.921875 133.507812 174.703125 C 133.460938 174.351562 133.378906 174.085938 133.265625 173.90625 C 132.949219 173.5 132.511719 173.226562 131.945312 173.085938 C 131.378906 172.945312 130.746094 172.875 130.046875 172.871094 L 128.105469 172.871094 C 127.523438 172.875 127.160156 172.90625 127.019531 172.972656 C 126.917969 173.074219 126.800781 173.417969 126.671875 173.992188 L 121.792969 192.882812 C 121.746094 193.054688 121.722656 193.191406 121.722656 193.292969 C 121.722656 193.519531 121.792969 193.652344 121.933594 193.699219 C 122.257812 193.800781 122.785156 193.867188 123.507812 193.894531 C 124.230469 193.921875 124.953125 193.9375 125.675781 193.9375 C 126 193.9375 126.164062 194.070312 126.164062 194.34375 C 126.164062 194.410156 126.152344 194.484375 126.128906 194.5625 L 126.058594 194.816406 C 125.988281 195.167969 125.761719 195.34375 125.378906 195.34375 C 123.464844 195.273438 121.535156 195.242188 119.589844 195.242188 C 117.652344 195.242188 115.707031 195.273438 113.75 195.34375 C 113.574219 195.34375 113.445312 195.292969 113.363281 195.191406 C 113.28125 195.113281 113.242188 195.027344 113.242188 194.9375 C 113.242188 194.871094 113.253906 194.800781 113.277344 194.734375 L 113.347656 194.476562 C 113.382812 194.332031 113.460938 194.207031 113.589844 194.097656 C 113.71875 193.992188 113.863281 193.9375 114.027344 193.9375 C 114.738281 193.9375 115.46875 193.921875 116.214844 193.894531 C 116.960938 193.867188 117.507812 193.800781 117.847656 193.699219 C 118.195312 193.597656 118.421875 193.304688 118.539062 192.816406 L 123.417969 173.90625 C 123.535156 173.515625 123.59375 173.214844 123.59375 173.007812 L 123.59375 172.941406 C 123.546875 172.894531 123.226562 172.875 122.632812 172.871094 L 120.691406 172.871094 C 119.992188 172.875 119.308594 172.945312 118.644531 173.09375 C 117.980469 173.242188 117.386719 173.523438 116.859375 173.9375 C 116.617188 174.132812 116.382812 174.414062 116.160156 174.773438 C 115.941406 175.132812 115.722656 175.550781 115.503906 176.019531 C 115.289062 176.488281 115.082031 176.992188 114.882812 177.519531 C 114.6875 178.050781 114.488281 178.582031 114.289062 179.113281 C 114.171875 179.453125 113.957031 179.617188 113.644531 179.605469 L 113.347656 179.605469 C 113.171875 179.605469 113.042969 179.550781 112.960938 179.433594 C 112.890625 179.367188 112.855469 179.289062 112.855469 179.199219 C 112.855469 179.132812 112.875 179.0625 112.910156 178.996094 C 113.210938 177.855469 113.589844 176.691406 114.046875 175.5 C 114.5 174.316406 114.933594 173.132812 115.339844 171.953125 C 115.457031 171.617188 115.675781 171.445312 116.003906 171.445312 L 135.277344 171.445312 C 135.601562 171.445312 135.765625 171.589844 135.765625 171.871094 L 135.765625 171.988281 Z M 134.574219 179.0625 "/>
<path style=" stroke:none;fill-rule:evenodd;fill:rgb(0%,0%,0%);fill-opacity:1;" d="M 141.101562 200.269531 C 139.753906 200.230469 138.445312 200.210938 137.175781 200.210938 C 135.902344 200.210938 134.59375 200.230469 133.246094 200.269531 L 133.246094 199.453125 L 134.003906 199.453125 C 134.246094 199.453125 134.472656 199.449219 134.683594 199.445312 C 134.894531 199.4375 135.097656 199.421875 135.289062 199.394531 C 135.476562 199.371094 135.640625 199.347656 135.78125 199.320312 C 135.898438 199.300781 135.996094 199.242188 136.070312 199.144531 C 136.148438 199.046875 136.1875 198.9375 136.1875 198.816406 L 136.1875 188.113281 C 135.820312 188.273438 135.371094 188.390625 134.835938 188.472656 C 134.304688 188.558594 133.71875 188.597656 133.082031 188.597656 L 133.082031 187.789062 C 133.960938 187.789062 134.769531 187.699219 135.511719 187.511719 C 136.253906 187.324219 136.894531 186.972656 137.4375 186.460938 L 137.777344 186.460938 C 138.019531 186.460938 138.140625 186.566406 138.140625 186.773438 L 138.140625 198.816406 C 138.140625 198.941406 138.175781 199.054688 138.25 199.148438 C 138.320312 199.246094 138.429688 199.300781 138.566406 199.320312 C 138.683594 199.347656 138.835938 199.371094 139.015625 199.394531 C 139.199219 199.421875 139.40625 199.4375 139.636719 199.445312 C 139.867188 199.449219 140.089844 199.453125 140.3125 199.453125 L 141.101562 199.453125 Z M 141.101562 200.269531 "/>
<path style=" stroke:none;fill-rule:evenodd;fill:rgb(0%,0%,0%);fill-opacity:1;" d="M 647.089844 179.0625 C 647.054688 179.210938 646.980469 179.335938 646.871094 179.445312 C 646.761719 179.550781 646.621094 179.605469 646.460938 179.605469 L 646.128906 179.605469 C 645.800781 179.605469 645.636719 179.46875 645.636719 179.199219 L 645.636719 179.078125 C 645.730469 178.570312 645.8125 178.042969 645.882812 177.496094 C 645.953125 176.945312 646.011719 176.433594 646.058594 175.957031 L 646.058594 175.414062 C 646.058594 175.160156 646.046875 174.921875 646.023438 174.703125 C 645.976562 174.351562 645.894531 174.085938 645.777344 173.90625 C 645.460938 173.5 645.023438 173.226562 644.457031 173.085938 C 643.890625 172.945312 643.261719 172.875 642.558594 172.871094 L 640.617188 172.871094 C 640.035156 172.875 639.675781 172.90625 639.535156 172.972656 C 639.429688 173.074219 639.3125 173.417969 639.183594 173.992188 L 634.304688 192.882812 C 634.257812 193.054688 634.234375 193.191406 634.234375 193.292969 C 634.234375 193.519531 634.304688 193.652344 634.445312 193.699219 C 634.773438 193.800781 635.296875 193.867188 636.019531 193.894531 C 636.742188 193.921875 637.464844 193.9375 638.1875 193.9375 C 638.515625 193.9375 638.679688 194.070312 638.679688 194.34375 C 638.679688 194.410156 638.667969 194.484375 638.644531 194.5625 L 638.574219 194.816406 C 638.503906 195.167969 638.277344 195.34375 637.890625 195.34375 C 635.976562 195.273438 634.050781 195.242188 632.101562 195.242188 C 630.167969 195.242188 628.21875 195.273438 626.261719 195.34375 C 626.085938 195.34375 625.957031 195.292969 625.875 195.191406 C 625.796875 195.113281 625.753906 195.027344 625.753906 194.9375 C 625.753906 194.871094 625.765625 194.800781 625.789062 194.734375 L 625.859375 194.476562 C 625.894531 194.332031 625.976562 194.207031 626.105469 194.097656 C 626.234375 193.992188 626.378906 193.9375 626.542969 193.9375 C 627.253906 193.9375 627.980469 193.921875 628.726562 193.894531 C 629.472656 193.867188 630.019531 193.800781 630.363281 193.699219 C 630.707031 193.597656 630.9375 193.304688 631.050781 192.816406 L 635.929688 173.90625 C 636.046875 173.515625 636.105469 173.214844 636.105469 173.007812 L 636.105469 172.941406 C 636.058594 172.894531 635.738281 172.875 635.144531 172.871094 L 633.203125 172.871094 C 632.503906 172.875 631.824219 172.945312 631.160156 173.09375 C 630.496094 173.242188 629.898438 173.523438 629.375 173.9375 C 629.128906 174.132812 628.894531 174.414062 628.675781 174.773438 C 628.453125 175.132812 628.234375 175.550781 628.019531 176.019531 C 627.804688 176.488281 627.597656 176.992188 627.398438 177.519531 C 627.199219 178.050781 627 178.582031 626.804688 179.113281 C 626.6875 179.453125 626.472656 179.617188 626.15625 179.605469 L 625.859375 179.605469 C 625.683594 179.605469 625.554688 179.550781 625.472656 179.433594 C 625.402344 179.367188 625.367188 179.289062 625.367188 179.199219 C 625.367188 179.132812 625.386719 179.0625 625.421875 178.996094 C 625.726562 177.855469 626.105469 176.691406 626.558594 175.5 C 627.011719 174.316406 627.445312 173.132812 627.851562 171.953125 C 627.96875 171.617188 628.191406 171.445312 628.515625 171.445312 L 647.789062 171.445312 C 648.117188 171.445312 648.277344 171.589844 648.277344 171.871094 L 648.277344 171.988281 Z M 647.089844 179.0625 "/>
<path style=" stroke:none;fill-rule:evenodd;fill:rgb(0%,0%,0%);fill-opacity:1;" d="M 654.425781 200.269531 L 645.5 200.269531 L 645.5 199.746094 C 645.5 199.710938 645.523438 199.652344 645.566406 199.574219 L 649.152344 196.101562 C 649.578125 195.683594 650.007812 195.253906 650.441406 194.820312 C 650.875 194.382812 651.265625 193.933594 651.609375 193.480469 C 651.953125 193.023438 652.226562 192.554688 652.429688 192.070312 C 652.636719 191.585938 652.738281 191.078125 652.738281 190.542969 C 652.738281 190.09375 652.671875 189.675781 652.542969 189.285156 C 652.410156 188.898438 652.21875 188.554688 651.972656 188.261719 C 651.722656 187.964844 651.410156 187.730469 651.039062 187.546875 C 650.664062 187.367188 650.234375 187.277344 649.746094 187.277344 C 649.015625 187.277344 648.367188 187.472656 647.808594 187.863281 C 647.25 188.25 646.878906 188.679688 646.695312 189.148438 C 646.660156 189.160156 646.71875 189.167969 646.871094 189.167969 L 647.058594 189.167969 C 647.277344 189.210938 647.46875 189.28125 647.628906 189.371094 C 647.789062 189.464844 647.925781 189.589844 648.035156 189.75 C 648.144531 189.914062 648.199219 190.109375 648.199219 190.335938 C 648.199219 190.714844 648.058594 191.007812 647.78125 191.210938 C 647.503906 191.414062 647.191406 191.511719 646.847656 191.511719 C 646.519531 191.511719 646.214844 191.414062 645.929688 191.210938 C 645.644531 191.007812 645.5 190.714844 645.5 190.335938 C 645.5 189.804688 645.617188 189.300781 645.851562 188.824219 C 646.085938 188.351562 646.402344 187.941406 646.804688 187.589844 C 647.207031 187.242188 647.683594 186.96875 648.230469 186.765625 C 648.78125 186.5625 649.359375 186.460938 649.976562 186.460938 C 650.734375 186.460938 651.433594 186.5625 652.0625 186.761719 C 652.695312 186.960938 653.234375 187.246094 653.683594 187.621094 C 654.128906 187.992188 654.476562 188.425781 654.730469 188.917969 C 654.980469 189.40625 655.109375 189.949219 655.109375 190.542969 C 655.109375 191.203125 654.9375 191.808594 654.601562 192.363281 C 654.265625 192.917969 653.847656 193.425781 653.351562 193.886719 C 652.855469 194.351562 652.328125 194.785156 651.769531 195.195312 C 651.207031 195.601562 650.703125 196 650.25 196.386719 L 647.726562 198.503906 L 651.027344 198.503906 C 651.488281 198.503906 651.917969 198.5 652.316406 198.492188 C 652.714844 198.488281 653.054688 198.476562 653.332031 198.457031 C 653.609375 198.4375 653.75 198.425781 653.757812 198.417969 C 653.816406 198.375 653.871094 198.285156 653.925781 198.152344 C 653.972656 198.019531 654.019531 197.863281 654.066406 197.683594 C 654.109375 197.5 654.152344 197.316406 654.199219 197.132812 C 654.242188 196.945312 654.28125 196.738281 654.320312 196.519531 L 655.128906 196.519531 Z M 654.425781 200.269531 "/>
<path style="fill-rule:evenodd;fill:rgb(100%,100%,100%);fill-opacity:1;stroke-width:15;stroke-linecap:round;stroke-linejoin:round;stroke:rgb(0%,0%,0%);stroke-opacity:1;stroke-miterlimit:10;" d="M 2765.614451 2551.249342 L 1879.31362 1888.574607 L 1879.31362 497.127201 L 2765.614451 1159.779332 Z M 2765.614451 2551.249342 " transform="matrix(0.172998,0,0,-0.172802,0,483.045349)"/>
<path style=" stroke:none;fill-rule:evenodd;fill:rgb(0%,0%,0%);fill-opacity:1;" d="M 388.140625 450.039062 C 388.175781 450.117188 388.191406 450.191406 388.191406 450.257812 C 388.191406 450.347656 388.167969 450.417969 388.121094 450.460938 C 388.050781 450.597656 387.917969 450.664062 387.71875 450.664062 L 361.84375 450.664062 C 361.65625 450.664062 361.523438 450.597656 361.441406 450.460938 C 361.394531 450.417969 361.371094 450.347656 361.371094 450.257812 C 361.371094 450.191406 361.390625 450.117188 361.421875 450.039062 L 373.820312 425.902344 C 373.972656 425.578125 374.238281 425.417969 374.625 425.429688 L 374.9375 425.429688 C 375.300781 425.429688 375.570312 425.585938 375.742188 425.886719 Z M 373.730469 429.226562 L 364.148438 447.867188 L 383.296875 447.867188 Z M 373.730469 429.226562 "/>
<path style=" stroke:none;fill-rule:evenodd;fill:rgb(0%,0%,0%);fill-opacity:1;" d="M 406.191406 437.84375 C 406.0625 438.351562 405.804688 438.734375 405.414062 438.988281 C 405.023438 439.242188 404.632812 439.371094 404.234375 439.371094 C 403.824219 439.371094 403.488281 439.242188 403.21875 438.980469 C 403.023438 438.789062 402.917969 438.539062 402.90625 438.234375 C 402.90625 438.109375 402.929688 437.953125 402.972656 437.757812 C 403.101562 437.332031 403.304688 437.003906 403.570312 436.785156 C 403.835938 436.5625 404.023438 436.4375 404.128906 436.402344 C 403.910156 436.234375 403.453125 436.148438 402.761719 436.148438 C 402.15625 436.148438 401.617188 436.460938 401.140625 437.089844 C 400.664062 437.71875 400.304688 438.472656 400.070312 439.351562 L 398.460938 445.558594 C 398.300781 446.183594 398.179688 446.777344 398.09375 447.339844 C 398.046875 447.535156 398.027344 447.703125 398.027344 447.847656 C 398.027344 448.199219 398.085938 448.535156 398.199219 448.851562 C 398.316406 449.191406 398.492188 449.460938 398.726562 449.664062 C 398.960938 449.867188 399.253906 449.96875 399.617188 449.96875 C 400.085938 449.96875 400.53125 449.851562 400.964844 449.605469 C 401.394531 449.363281 401.789062 449.035156 402.152344 448.621094 C 402.515625 448.210938 402.835938 447.730469 403.117188 447.179688 C 403.394531 446.632812 403.613281 446.070312 403.78125 445.492188 C 403.847656 445.199219 404.046875 445.050781 404.371094 445.050781 L 404.777344 445.050781 C 405.078125 445.050781 405.230469 445.164062 405.230469 445.390625 C 405.230469 445.460938 405.210938 445.523438 405.179688 445.578125 C 405.015625 446.257812 404.75 446.925781 404.382812 447.585938 C 404.015625 448.25 403.585938 448.832031 403.097656 449.34375 C 402.605469 449.851562 402.050781 450.269531 401.425781 450.597656 C 400.804688 450.925781 400.136719 451.089844 399.425781 451.089844 C 398.699219 451.089844 398.078125 450.933594 397.550781 450.621094 C 397.03125 450.3125 396.605469 449.90625 396.277344 449.410156 C 396.171875 449.285156 396.09375 449.160156 396.035156 449.027344 C 395.972656 448.898438 395.957031 448.878906 395.976562 448.96875 C 395.703125 449.433594 395.257812 449.902344 394.648438 450.378906 C 394.042969 450.851562 393.34375 451.089844 392.550781 451.089844 C 392.109375 451.089844 391.671875 451.03125 391.242188 450.917969 C 390.808594 450.804688 390.433594 450.632812 390.113281 450.394531 C 389.792969 450.15625 389.550781 449.867188 389.386719 449.527344 C 389.304688 449.324219 389.265625 449.105469 389.265625 448.867188 C 389.265625 448.699219 389.289062 448.5 389.335938 448.273438 C 389.460938 447.765625 389.726562 447.382812 390.121094 447.128906 C 390.519531 446.875 390.914062 446.75 391.3125 446.746094 C 391.71875 446.75 392.066406 446.878906 392.359375 447.136719 C 392.558594 447.328125 392.65625 447.578125 392.65625 447.882812 C 392.65625 448.042969 392.632812 448.199219 392.585938 448.359375 C 392.484375 448.753906 392.292969 449.074219 392.019531 449.316406 C 391.746094 449.5625 391.550781 449.695312 391.433594 449.714844 C 391.652344 449.898438 392.101562 449.980469 392.777344 449.96875 C 393.386719 449.96875 393.933594 449.65625 394.421875 449.019531 C 394.914062 448.386719 395.269531 447.628906 395.488281 446.746094 L 397.117188 440.507812 C 397.277344 439.917969 397.40625 439.34375 397.5 438.777344 C 397.523438 438.597656 397.535156 438.425781 397.535156 438.265625 C 397.535156 437.917969 397.484375 437.589844 397.378906 437.285156 C 397.261719 436.945312 397.082031 436.671875 396.835938 436.460938 C 396.589844 436.253906 396.289062 436.148438 395.925781 436.148438 C 395.460938 436.148438 395.007812 436.269531 394.570312 436.511719 C 394.132812 436.757812 393.734375 437.082031 393.371094 437.488281 C 393.011719 437.894531 392.691406 438.367188 392.414062 438.90625 C 392.132812 439.441406 391.929688 440.011719 391.796875 440.609375 C 391.671875 440.914062 391.457031 441.070312 391.152344 441.082031 L 390.765625 441.082031 C 390.488281 441.082031 390.347656 440.941406 390.347656 440.660156 L 390.347656 440.539062 C 390.523438 439.839844 390.792969 439.160156 391.152344 438.496094 C 391.515625 437.835938 391.945312 437.25 392.445312 436.742188 C 392.945312 436.234375 393.507812 435.816406 394.128906 435.496094 C 394.742188 435.171875 395.414062 435.011719 396.136719 435.011719 C 396.835938 435.011719 397.457031 435.164062 397.992188 435.46875 C 398.527344 435.773438 398.964844 436.183594 399.304688 436.691406 C 399.371094 436.816406 399.4375 436.949219 399.492188 437.089844 C 399.550781 437.230469 399.570312 437.269531 399.546875 437.199219 C 399.839844 436.703125 400.289062 436.214844 400.894531 435.734375 C 401.5 435.253906 402.191406 435.011719 402.972656 435.011719 C 403.417969 435.011719 403.855469 435.066406 404.296875 435.171875 C 404.730469 435.28125 405.113281 435.453125 405.429688 435.691406 C 405.753906 435.925781 405.988281 436.222656 406.140625 436.570312 C 406.222656 436.777344 406.261719 437.007812 406.261719 437.265625 C 406.261719 437.4375 406.238281 437.628906 406.191406 437.84375 Z M 406.191406 437.84375 "/>
<path style=" stroke:none;fill-rule:evenodd;fill:rgb(0%,0%,0%);fill-opacity:1;" d="M 552.835938 34.878906 C 552.804688 35.027344 552.730469 35.15625 552.621094 35.261719 C 552.507812 35.371094 552.371094 35.421875 552.207031 35.421875 L 551.875 35.421875 C 551.550781 35.421875 551.386719 35.289062 551.386719 35.015625 L 551.386719 34.894531 C 551.480469 34.386719 551.5625 33.859375 551.632812 33.3125 C 551.699219 32.761719 551.757812 32.25 551.804688 31.773438 L 551.804688 31.230469 C 551.804688 30.976562 551.792969 30.738281 551.769531 30.519531 C 551.722656 30.171875 551.644531 29.90625 551.527344 29.726562 C 551.210938 29.316406 550.773438 29.042969 550.207031 28.902344 C 549.640625 28.761719 549.007812 28.691406 548.308594 28.6875 L 546.367188 28.6875 C 545.785156 28.691406 545.421875 28.722656 545.285156 28.792969 C 545.179688 28.890625 545.0625 29.234375 544.933594 29.808594 L 540.054688 48.699219 C 540.007812 48.871094 539.984375 49.007812 539.984375 49.109375 C 539.984375 49.335938 540.054688 49.472656 540.195312 49.515625 C 540.519531 49.617188 541.046875 49.683594 541.769531 49.710938 C 542.492188 49.738281 543.214844 49.753906 543.9375 49.753906 C 544.261719 49.753906 544.425781 49.890625 544.425781 50.160156 C 544.425781 50.230469 544.414062 50.300781 544.390625 50.378906 L 544.320312 50.632812 C 544.25 50.988281 544.023438 51.160156 543.640625 51.160156 C 541.726562 51.09375 539.796875 51.058594 537.851562 51.058594 C 535.914062 51.058594 533.96875 51.09375 532.011719 51.160156 C 531.835938 51.160156 531.707031 51.109375 531.625 51.007812 C 531.542969 50.929688 531.503906 50.84375 531.503906 50.753906 C 531.503906 50.6875 531.515625 50.617188 531.539062 50.550781 L 531.609375 50.296875 C 531.644531 50.148438 531.726562 50.023438 531.851562 49.914062 C 531.980469 49.808594 532.128906 49.753906 532.289062 49.753906 C 533 49.753906 533.730469 49.738281 534.476562 49.710938 C 535.222656 49.683594 535.769531 49.617188 536.113281 49.515625 C 536.457031 49.414062 536.6875 49.121094 536.800781 48.632812 L 541.679688 29.726562 C 541.796875 29.332031 541.855469 29.03125 541.855469 28.828125 L 541.855469 28.757812 C 541.808594 28.710938 541.488281 28.691406 540.894531 28.6875 L 538.953125 28.6875 C 538.253906 28.691406 537.570312 28.765625 536.90625 28.910156 C 536.242188 29.058594 535.648438 29.339844 535.121094 29.757812 C 534.878906 29.949219 534.644531 30.230469 534.421875 30.589844 C 534.203125 30.953125 533.984375 31.367188 533.765625 31.835938 C 533.550781 32.304688 533.34375 32.808594 533.148438 33.335938 C 532.949219 33.867188 532.75 34.398438 532.550781 34.929688 C 532.4375 35.269531 532.21875 35.433594 531.90625 35.421875 L 531.609375 35.421875 C 531.433594 35.421875 531.304688 35.367188 531.222656 35.253906 C 531.152344 35.1875 531.117188 35.105469 531.117188 35.015625 C 531.117188 34.949219 531.136719 34.878906 531.171875 34.8125 C 531.472656 33.671875 531.851562 32.507812 532.308594 31.316406 C 532.761719 30.132812 533.195312 28.949219 533.601562 27.773438 C 533.71875 27.433594 533.9375 27.265625 534.265625 27.265625 L 553.539062 27.265625 C 553.863281 27.265625 554.027344 27.40625 554.027344 27.6875 L 554.027344 27.808594 Z M 552.835938 34.878906 "/>
<path style=" stroke:none;fill-rule:evenodd;fill:rgb(0%,0%,0%);fill-opacity:1;" d="M 560.175781 56.085938 L 551.25 56.085938 L 551.25 55.5625 C 551.25 55.527344 551.269531 55.46875 551.316406 55.394531 L 554.902344 51.917969 C 555.324219 51.5 555.753906 51.074219 556.191406 50.636719 C 556.625 50.199219 557.015625 49.753906 557.359375 49.296875 C 557.703125 48.839844 557.976562 48.371094 558.179688 47.886719 C 558.386719 47.402344 558.488281 46.894531 558.488281 46.363281 C 558.488281 45.914062 558.421875 45.492188 558.289062 45.105469 C 558.160156 44.714844 557.96875 44.371094 557.71875 44.078125 C 557.472656 43.785156 557.160156 43.546875 556.789062 43.367188 C 556.414062 43.183594 555.984375 43.09375 555.492188 43.09375 C 554.761719 43.09375 554.117188 43.289062 553.558594 43.679688 C 553 44.066406 552.628906 44.496094 552.445312 44.964844 C 552.410156 44.976562 552.46875 44.984375 552.621094 44.984375 L 552.808594 44.984375 C 553.027344 45.03125 553.214844 45.097656 553.378906 45.1875 C 553.539062 45.28125 553.671875 45.40625 553.785156 45.570312 C 553.894531 45.730469 553.949219 45.925781 553.949219 46.152344 C 553.949219 46.53125 553.808594 46.824219 553.53125 47.027344 C 553.253906 47.230469 552.941406 47.332031 552.597656 47.332031 C 552.269531 47.332031 551.964844 47.230469 551.675781 47.027344 C 551.390625 46.824219 551.25 46.53125 551.25 46.152344 C 551.25 45.621094 551.367188 45.117188 551.601562 44.644531 C 551.835938 44.167969 552.152344 43.757812 552.554688 43.410156 C 552.957031 43.0625 553.433594 42.785156 553.980469 42.582031 C 554.527344 42.378906 555.109375 42.277344 555.722656 42.277344 C 556.484375 42.277344 557.179688 42.378906 557.8125 42.578125 C 558.445312 42.777344 558.984375 43.0625 559.429688 43.4375 C 559.878906 43.8125 560.226562 44.242188 560.480469 44.734375 C 560.730469 45.222656 560.855469 45.765625 560.855469 46.363281 C 560.855469 47.019531 560.6875 47.628906 560.351562 48.179688 C 560.015625 48.734375 559.597656 49.242188 559.101562 49.707031 C 558.605469 50.167969 558.074219 50.601562 557.515625 51.011719 C 556.957031 51.417969 556.453125 51.816406 556 52.203125 L 553.476562 54.320312 L 556.777344 54.320312 C 557.238281 54.320312 557.667969 54.316406 558.066406 54.3125 C 558.464844 54.304688 558.800781 54.292969 559.078125 54.273438 C 559.359375 54.253906 559.5 54.242188 559.507812 54.234375 C 559.566406 54.191406 559.621094 54.101562 559.671875 53.96875 C 559.722656 53.835938 559.769531 53.679688 559.816406 53.5 C 559.855469 53.320312 559.902344 53.136719 559.945312 52.949219 C 559.992188 52.761719 560.03125 52.558594 560.066406 52.335938 L 560.878906 52.335938 Z M 560.175781 56.085938 "/>
<path style="fill:none;stroke-width:0.402;stroke-linecap:round;stroke-linejoin:round;stroke:rgb(0%,0%,0%);stroke-opacity:1;stroke-miterlimit:10;" d="M 13.871573 10.809918 L 20.344144 7.996656 " transform="matrix(3.459911,0.00000112108,-0.00000236478,-3.456006,524.638424,68.363029)"/>
<path style="fill:none;stroke-width:0.402;stroke-linecap:round;stroke-linejoin:round;stroke:rgb(0%,0%,0%);stroke-opacity:1;stroke-miterlimit:10;" d="M 20.344144 7.996656 L 13.871569 5.18226 " transform="matrix(3.459911,0.00000112108,-0.00000236478,-3.456006,524.638424,68.363029)"/>
<path style=" stroke:none;fill-rule:evenodd;fill:rgb(0%,0%,0%);fill-opacity:1;" d="M 572.632812 31.699219 C 572.25 31.699219 571.9375 31.386719 571.9375 31.003906 C 571.9375 30.621094 572.25 30.308594 572.632812 30.308594 C 573.019531 30.308594 573.328125 30.621094 573.328125 31.003906 C 573.328125 31.386719 573.019531 31.699219 572.632812 31.699219 Z M 572.632812 31.699219 "/>
<path style=" stroke:none;fill-rule:evenodd;fill:rgb(0%,0%,0%);fill-opacity:1;" d="M 595.027344 41.421875 C 594.644531 41.421875 594.332031 41.109375 594.332031 40.726562 C 594.332031 40.34375 594.644531 40.03125 595.027344 40.03125 C 595.410156 40.03125 595.722656 40.34375 595.722656 40.726562 C 595.722656 41.109375 595.410156 41.421875 595.027344 41.421875 Z M 595.027344 41.421875 "/>
<path style=" stroke:none;fill-rule:evenodd;fill:rgb(0%,0%,0%);fill-opacity:1;" d="M 572.632812 51.148438 C 572.25 51.148438 571.9375 50.835938 571.9375 50.453125 C 571.9375 50.070312 572.25 49.757812 572.632812 49.757812 C 573.019531 49.757812 573.328125 50.070312 573.328125 50.453125 C 573.328125 50.835938 573.019531 51.148438 572.632812 51.148438 Z M 572.632812 51.148438 "/>
<path style=" stroke:none;fill-rule:evenodd;fill:rgb(0%,0%,0%);fill-opacity:1;" d="M 627.800781 34.878906 C 627.765625 35.027344 627.691406 35.15625 627.582031 35.261719 C 627.46875 35.371094 627.332031 35.421875 627.167969 35.421875 L 626.835938 35.421875 C 626.511719 35.421875 626.347656 35.289062 626.347656 35.015625 L 626.347656 34.894531 C 626.4375 34.386719 626.523438 33.859375 626.589844 33.3125 C 626.660156 32.761719 626.71875 32.25 626.765625 31.773438 L 626.765625 31.230469 C 626.765625 30.976562 626.753906 30.738281 626.730469 30.519531 C 626.683594 30.171875 626.601562 29.90625 626.484375 29.726562 C 626.171875 29.316406 625.734375 29.042969 625.167969 28.902344 C 624.601562 28.761719 623.96875 28.691406 623.269531 28.6875 L 621.328125 28.6875 C 620.746094 28.691406 620.382812 28.722656 620.242188 28.792969 C 620.140625 28.890625 620.019531 29.234375 619.894531 29.808594 L 615.015625 48.699219 C 614.96875 48.871094 614.945312 49.007812 614.945312 49.109375 C 614.945312 49.335938 615.015625 49.472656 615.152344 49.515625 C 615.480469 49.617188 616.003906 49.683594 616.726562 49.710938 C 617.449219 49.738281 618.171875 49.753906 618.898438 49.753906 C 619.222656 49.753906 619.386719 49.890625 619.386719 50.160156 C 619.386719 50.230469 619.375 50.300781 619.351562 50.378906 L 619.28125 50.632812 C 619.210938 50.988281 618.984375 51.160156 618.597656 51.160156 C 616.6875 51.09375 614.757812 51.058594 612.8125 51.058594 C 610.875 51.058594 608.929688 51.09375 606.96875 51.160156 C 606.796875 51.160156 606.667969 51.109375 606.585938 51.007812 C 606.503906 50.929688 606.460938 50.84375 606.460938 50.753906 C 606.460938 50.6875 606.476562 50.617188 606.496094 50.550781 L 606.570312 50.296875 C 606.605469 50.148438 606.683594 50.023438 606.816406 49.914062 C 606.941406 49.808594 607.089844 49.753906 607.25 49.753906 C 607.960938 49.753906 608.691406 49.738281 609.4375 49.710938 C 610.179688 49.683594 610.726562 49.617188 611.070312 49.515625 C 611.417969 49.414062 611.644531 49.121094 611.761719 48.632812 L 616.640625 29.726562 C 616.757812 29.332031 616.816406 29.03125 616.816406 28.828125 L 616.816406 28.757812 C 616.769531 28.710938 616.445312 28.691406 615.855469 28.6875 L 613.910156 28.6875 C 613.214844 28.691406 612.53125 28.765625 611.867188 28.910156 C 611.203125 29.058594 610.605469 29.339844 610.082031 29.757812 C 609.839844 29.949219 609.601562 30.230469 609.382812 30.589844 C 609.164062 30.953125 608.941406 31.367188 608.726562 31.835938 C 608.511719 32.304688 608.304688 32.808594 608.105469 33.335938 C 607.90625 33.867188 607.710938 34.398438 607.511719 34.929688 C 607.394531 35.269531 607.179688 35.433594 606.867188 35.421875 L 606.570312 35.421875 C 606.394531 35.421875 606.265625 35.367188 606.179688 35.253906 C 606.113281 35.1875 606.078125 35.105469 606.078125 35.015625 C 606.078125 34.949219 606.09375 34.878906 606.128906 34.8125 C 606.433594 33.671875 606.816406 32.507812 607.269531 31.316406 C 607.722656 30.132812 608.152344 28.949219 608.5625 27.773438 C 608.679688 27.433594 608.902344 27.265625 609.226562 27.265625 L 628.496094 27.265625 C 628.824219 27.265625 628.984375 27.40625 628.984375 27.6875 L 628.984375 27.808594 Z M 627.800781 34.878906 "/>
<path style=" stroke:none;fill-rule:evenodd;fill:rgb(0%,0%,0%);fill-opacity:1;" d="M 634.3125 56.085938 C 632.96875 56.046875 631.660156 56.03125 630.386719 56.03125 C 629.113281 56.03125 627.804688 56.046875 626.460938 56.085938 L 626.460938 55.269531 L 627.21875 55.269531 C 627.460938 55.269531 627.683594 55.265625 627.898438 55.261719 C 628.109375 55.253906 628.3125 55.238281 628.5 55.214844 C 628.691406 55.1875 628.859375 55.164062 628.996094 55.136719 C 629.109375 55.117188 629.207031 55.0625 629.285156 54.960938 C 629.363281 54.863281 629.402344 54.753906 629.402344 54.632812 L 629.402344 43.929688 C 629.035156 44.089844 628.585938 44.210938 628.050781 44.292969 C 627.519531 44.375 626.933594 44.414062 626.296875 44.414062 L 626.296875 43.605469 C 627.171875 43.609375 627.984375 43.515625 628.726562 43.328125 C 629.46875 43.140625 630.109375 42.792969 630.648438 42.277344 L 630.988281 42.277344 C 631.230469 42.277344 631.351562 42.382812 631.351562 42.589844 L 631.351562 54.632812 C 631.351562 54.761719 631.390625 54.871094 631.464844 54.964844 C 631.535156 55.0625 631.644531 55.117188 631.78125 55.136719 C 631.894531 55.164062 632.046875 55.1875 632.230469 55.214844 C 632.410156 55.238281 632.617188 55.253906 632.851562 55.261719 C 633.078125 55.265625 633.304688 55.269531 633.523438 55.269531 L 634.3125 55.269531 Z M 634.3125 56.085938 "/>
<path style="fill:none;stroke-width:15;stroke-linecap:round;stroke-linejoin:round;stroke:rgb(0%,0%,0%);stroke-opacity:1;stroke-miterlimit:10;" d="M 2372.252411 1698.983851 L 2973.84502 1698.983851 " transform="matrix(0.172998,0,0,-0.172802,0,483.045349)"/>
<path style="fill:none;stroke-width:15;stroke-linecap:round;stroke-linejoin:round;stroke:rgb(0%,0%,0%);stroke-opacity:1;stroke-miterlimit:10;" d="M 2372.252411 1338.813407 L 2973.84502 1338.813407 " transform="matrix(0.172998,0,0,-0.172802,0,483.045349)"/>
<path style="fill:none;stroke-width:15;stroke-linecap:round;stroke-linejoin:round;stroke:rgb(0%,0%,0%);stroke-opacity:1;stroke-miterlimit:10;" d="M 2372.252411 1698.983851 L 2372.252411 1338.813407 " transform="matrix(0.172998,0,0,-0.172802,0,483.045349)"/>
<path style="fill:none;stroke-width:7.5;stroke-linecap:round;stroke-linejoin:round;stroke:rgb(0%,0%,0%);stroke-opacity:1;stroke-dasharray:60,30;stroke-miterlimit:10;" d="M 1882.519946 1665.460172 L 2372.252411 1665.460172 " transform="matrix(0.172998,0,0,-0.172802,0,483.045349)"/>
<path style="fill:none;stroke-width:7.5;stroke-linecap:round;stroke-linejoin:round;stroke:rgb(0%,0%,0%);stroke-opacity:1;stroke-dasharray:60,30;stroke-miterlimit:10;" d="M 1882.519946 1586.04771 L 2372.252411 1586.04771 " transform="matrix(0.172998,0,0,-0.172802,0,483.045349)"/>
<path style="fill:none;stroke-width:7.5;stroke-linecap:round;stroke-linejoin:round;stroke:rgb(0%,0%,0%);stroke-opacity:1;stroke-dasharray:60,30;stroke-miterlimit:10;" d="M 1882.519946 1524.199575 L 2372.252411 1524.199575 " transform="matrix(0.172998,0,0,-0.172802,0,483.045349)"/>
<path style="fill:none;stroke-width:7.5;stroke-linecap:round;stroke-linejoin:round;stroke:rgb(0%,0%,0%);stroke-opacity:1;stroke-dasharray:60,30;stroke-miterlimit:10;" d="M 1882.519946 1454.710844 L 2372.252411 1454.710844 " transform="matrix(0.172998,0,0,-0.172802,0,483.045349)"/>
<path style="fill:none;stroke-width:7.5;stroke-linecap:round;stroke-linejoin:round;stroke:rgb(0%,0%,0%);stroke-opacity:1;stroke-dasharray:60,30;stroke-miterlimit:10;" d="M 1882.519946 1381.356605 L 2372.252411 1381.356605 " transform="matrix(0.172998,0,0,-0.172802,0,483.045349)"/>
<path style=" stroke:none;fill-rule:evenodd;fill:rgb(0%,0%,0%);fill-opacity:1;" d="M 419.320312 150.738281 C 419.355469 150.820312 419.371094 150.890625 419.371094 150.957031 C 419.371094 151.050781 419.347656 151.117188 419.300781 151.160156 C 419.230469 151.296875 419.097656 151.367188 418.898438 151.367188 L 393.023438 151.367188 C 392.835938 151.367188 392.703125 151.296875 392.621094 151.160156 C 392.574219 151.117188 392.550781 151.050781 392.550781 150.957031 C 392.550781 150.890625 392.570312 150.820312 392.601562 150.738281 L 405 126.601562 C 405.152344 126.277344 405.417969 126.117188 405.804688 126.128906 L 406.117188 126.128906 C 406.480469 126.128906 406.75 126.285156 406.921875 126.589844 Z M 404.910156 129.925781 L 395.328125 148.566406 L 414.476562 148.566406 Z M 404.910156 129.925781 "/>
<path style=" stroke:none;fill-rule:evenodd;fill:rgb(0%,0%,0%);fill-opacity:1;" d="M 440.308594 135.015625 C 440.238281 135.335938 440.066406 135.492188 439.785156 135.492188 C 439.761719 135.515625 439.703125 135.527344 439.609375 135.523438 C 439.550781 135.527344 439.507812 135.515625 439.472656 135.492188 L 439.3125 135.492188 C 439.011719 135.492188 438.859375 135.378906 438.859375 135.152344 L 438.859375 135.035156 C 438.996094 134.199219 439.066406 133.421875 439.066406 132.710938 L 439.066406 132.066406 C 438.996094 131.195312 438.804688 130.445312 438.484375 129.820312 C 438.164062 129.191406 437.695312 128.707031 437.074219 128.363281 C 436.457031 128.015625 435.675781 127.84375 434.730469 127.84375 C 434.183594 127.84375 433.628906 127.960938 433.0625 128.199219 C 432.496094 128.4375 431.972656 128.757812 431.480469 129.164062 C 430.941406 129.605469 430.507812 130.105469 430.167969 130.667969 C 429.828125 131.226562 429.582031 131.800781 429.429688 132.386719 C 429.316406 132.804688 429.25 133.207031 429.242188 133.589844 C 429.242188 134.125 429.359375 134.632812 429.589844 135.117188 C 429.929688 135.933594 430.535156 136.453125 431.410156 136.679688 L 435.429688 137.796875 C 436.164062 138.015625 436.792969 138.355469 437.3125 138.824219 C 437.832031 139.292969 438.21875 139.847656 438.484375 140.488281 C 438.746094 141.125 438.902344 141.824219 438.945312 142.582031 L 438.945312 142.886719 C 438.945312 143.542969 438.851562 144.214844 438.664062 144.902344 C 438.421875 145.855469 438.03125 146.769531 437.496094 147.652344 C 436.960938 148.535156 436.296875 149.324219 435.5 150.027344 C 434.742188 150.671875 433.910156 151.1875 433.007812 151.578125 C 432.105469 151.96875 431.199219 152.164062 430.289062 152.164062 C 428.949219 152.164062 427.804688 151.949219 426.859375 151.519531 C 425.914062 151.089844 425.21875 150.546875 424.761719 149.890625 L 423.035156 151.941406 C 422.882812 152.089844 422.722656 152.164062 422.558594 152.164062 L 422.457031 152.164062 C 422.164062 152.164062 422.007812 152.050781 421.980469 151.824219 C 421.980469 151.753906 422 151.695312 422.035156 151.636719 L 424.066406 143.699219 C 424.132812 143.382812 424.339844 143.21875 424.675781 143.207031 L 425.0625 143.207031 C 425.199219 143.210938 425.328125 143.265625 425.445312 143.378906 C 425.492188 143.46875 425.515625 143.546875 425.515625 143.613281 C 425.515625 143.660156 425.503906 143.71875 425.480469 143.785156 C 425.269531 144.597656 425.164062 145.355469 425.164062 146.058594 C 425.164062 147.175781 425.4375 148.128906 425.988281 148.90625 C 426.859375 150.164062 428.390625 150.789062 430.570312 150.789062 C 431.117188 150.789062 431.671875 150.664062 432.242188 150.410156 C 432.804688 150.152344 433.335938 149.8125 433.820312 149.382812 C 434.359375 148.886719 434.8125 148.335938 435.179688 147.730469 C 435.546875 147.125 435.816406 146.5 435.992188 145.855469 C 436.105469 145.335938 436.164062 144.847656 436.164062 144.394531 C 436.164062 143.832031 436.089844 143.289062 435.9375 142.765625 C 435.589844 141.898438 434.941406 141.339844 434 141.085938 L 430.027344 139.96875 C 429.316406 139.777344 428.703125 139.464844 428.1875 139.027344 C 427.675781 138.59375 427.277344 138.078125 426.992188 137.476562 C 426.707031 136.878906 426.542969 136.214844 426.492188 135.492188 L 426.492188 135.117188 C 426.492188 134.554688 426.566406 133.960938 426.703125 133.339844 C 426.949219 132.433594 427.339844 131.570312 427.878906 130.742188 C 428.414062 129.921875 429.078125 129.1875 429.871094 128.554688 C 430.617188 127.945312 431.433594 127.457031 432.328125 127.089844 C 433.21875 126.722656 434.101562 126.539062 434.976562 126.539062 C 436.179688 126.539062 437.167969 126.761719 437.949219 127.207031 C 438.730469 127.652344 439.296875 128.183594 439.644531 128.792969 L 441.324219 126.777344 C 441.417969 126.617188 441.570312 126.539062 441.78125 126.539062 L 441.933594 126.539062 C 442.214844 126.539062 442.359375 126.671875 442.359375 126.945312 L 442.359375 127.078125 Z M 440.308594 135.015625 "/>
</g>
</svg>
