<?xml version="1.0" encoding="UTF-8" standalone="no"?>
<!DOCTYPE svg PUBLIC "-//W3C//DTD SVG 1.1//EN" "http://www.w3.org/Graphics/SVG/1.1/DTD/svg11.dtd">
<svg xmlns="http://www.w3.org/2000/svg" xmlns:xlink="http://www.w3.org/1999/xlink" version="1.1" width="329.04pt" height="195pt" viewBox="0 0 329.04 195">
<g enable-background="new">
<g>
<g id="Layer-1" data-name="P">
<clipPath id="cp0">
<path transform="matrix(1,0,0,-1,0,195)" d="M .000004903 0 L 329.04 0 L 329.04 195 L .000004903 195 Z " fill-rule="evenodd"/>
</clipPath>
<g clip-path="url(#cp0)">
<text xml:space="preserve" transform="matrix(1 0 -0 1 0 195)" font-size="11.04" font-family="Calibri"><tspan y="-.12" x="328.68"> </tspan></text>
</g>
</g>
<g id="Layer-1" data-name="P">
<clipPath id="cp1">
<path transform="matrix(1,0,0,-1,0,195)" d="M .000004903 .20755 L 328.65 .20755 L 328.65 194.99755 L .000004903 194.99755 Z " fill-rule="evenodd"/>
</clipPath>
<g clip-path="url(#cp1)">
<clipPath id="cp2">
<path transform="matrix(.11987096,0,0,-.11987529,0,194.7925)" d="M 0 0 L 2741.67 0 L 2741.67 1625 L 0 1625 Z " fill-rule="evenodd"/>
</clipPath>
<g clip-path="url(#cp2)">
<path transform="matrix(.11987096,0,0,-.11987529,0,194.7925)" d="M 516.46 410.59 C 293.82 410.59 113.33 591.08 113.33 813.71 C 113.33 1036.35 293.82 1216.84 516.46 1216.84 L 595.21 1216.84 C 817.85 1216.84 998.33 1036.36 998.33 813.72 C 998.33 591.08 817.85 410.59 595.21 410.59 Z " fill="#308ee9" fill-opacity=".39216" fill-rule="evenodd"/>
<path transform="matrix(.11987096,0,0,-.11987529,0,194.7925)" stroke-width="15" stroke-linecap="round" stroke-linejoin="round" fill="none" stroke="#000000" d="M 516.46 410.59 C 293.82 410.59 113.33 591.08 113.33 813.71 C 113.33 1036.35 293.82 1216.84 516.46 1216.84 L 595.21 1216.84 C 817.85 1216.84 998.33 1036.36 998.33 813.72 C 998.33 591.08 817.85 410.59 595.21 410.59 Z "/>
<clipPath id="cp3">
<path transform="matrix(2.397436,0,0,-2.3975273,49.69131,187.57073)" d="M 0 0 L 13.38 0 L 13.38 18.91 L 0 18.91 Z " fill-rule="evenodd"/>
</clipPath>
<g clip-path="url(#cp3)">
<path transform="matrix(2.397436,0,0,-2.3975273,49.69131,187.57073)" d="M 11.13 5.7792 C 10.459 5.8064 9.8263 5.8204 9.2319 5.8204 L 9.2198 5.8204 C 8.5323 5.8204 7.8047 5.8064 7.0362 5.7792 L 7.0362 6.5624 L 7.8551 6.5624 L 6.3023 9.0533 L 4.6587 6.5859 L 4.6587 6.6036 C 4.6587 6.6426 4.6587 6.6603 4.6587 6.6566 C 4.7315 6.6404 4.804 6.625 4.8769 6.6095 C 4.9984 6.5933 5.118 6.5815 5.235 6.5738 C 5.352 6.5657 5.5077 6.562 5.7017 6.5624 L 5.7017 5.7792 C 5.0915 5.8064 4.5214 5.8204 3.9914 5.8204 L 3.8276 5.8204 C 3.3304 5.8204 2.8048 5.8064 2.2506 5.7792 L 2.2506 6.5624 C 2.4894 6.562 2.6926 6.5639 2.8604 6.5679 C 3.0282 6.5716 3.1909 6.5815 3.3484 6.5977 C 3.4213 6.6132 3.4923 6.6257 3.5608 6.6356 C 3.6296 6.6452 3.6679 6.6581 3.676 6.6743 L 5.7988 9.86 L 3.5185 13.493 L 2.4143 13.493 L 2.4143 14.277 C 3.0816 14.249 3.7143 14.235 4.3127 14.235 L 4.3248 14.235 C 5.0123 14.235 5.7363 14.249 6.4963 14.277 L 6.4963 13.493 L 5.6715 13.493 L 6.8967 11.532 L 8.1885 13.47 L 8.1885 13.452 C 8.1885 13.42 8.1907 13.405 8.1948 13.405 C 8.1219 13.412 8.0472 13.424 7.9703 13.44 C 7.8492 13.456 7.73 13.468 7.6126 13.478 C 7.4955 13.488 7.3398 13.493 7.1455 13.493 L 7.1455 14.277 C 7.7966 14.249 8.4171 14.235 9.0074 14.235 L 9.0196 14.235 C 9.5091 14.235 10.035 14.249 10.597 14.277 L 10.597 13.493 C 10.358 13.493 10.155 13.491 9.9872 13.487 C 9.8193 13.483 9.6567 13.473 9.4988 13.458 C 9.4259 13.442 9.3552 13.429 9.2864 13.419 C 9.218 13.409 9.1793 13.397 9.1712 13.381 L 7.4061 10.726 L 10.014 6.5624 L 11.13 6.5624 L 11.13 5.7792 Z " fill-rule="evenodd"/>
</g>
<path transform="matrix(.11987096,0,0,-.11987529,0,194.7925)" d="M 2603.33 897.15 C 2603.33 561.12 2331.35 288.71 1995.83 288.71 C 1660.32 288.71 1388.33 561.12 1388.33 897.15 C 1388.33 1233.18 1660.32 1505.59 1995.83 1505.59 C 2331.35 1505.59 2603.33 1233.18 2603.33 897.15 Z " fill="#ee620e" fill-opacity=".39216" fill-rule="evenodd"/>
<path transform="matrix(.11987096,0,0,-.11987529,0,194.7925)" stroke-width="15" stroke-linecap="round" stroke-linejoin="round" fill="none" stroke="#000000" d="M 2603.33 897.15 C 2603.33 561.12 2331.35 288.71 1995.83 288.71 C 1660.32 288.71 1388.33 561.12 1388.33 897.15 C 1388.33 1233.18 1660.32 1505.59 1995.83 1505.59 C 2331.35 1505.59 2603.33 1233.18 2603.33 897.15 Z "/>
<clipPath id="cp4">
<path transform="matrix(2.3973826,0,0,-2.3975273,221.94348,200.15764)" d="M 0 0 L 13.681 0 L 13.681 18.91 L 0 18.91 Z " fill-rule="evenodd"/>
</clipPath>
<g clip-path="url(#cp4)">
<path transform="matrix(2.3973826,0,0,-2.3975273,221.94348,200.15764)" d="M 11.427 13.493 C 11.218 13.493 11.047 13.491 10.915 13.487 C 10.784 13.483 10.656 13.473 10.53 13.458 C 10.47 13.442 10.413 13.429 10.36 13.419 C 10.308 13.409 10.279 13.399 10.275 13.387 L 7.7888 9.1652 L 7.7888 6.5624 L 8.9592 6.5624 L 8.9592 5.7792 C 8.2158 5.8064 7.5084 5.8204 6.8371 5.8204 C 6.1658 5.8204 5.4584 5.8064 4.7146 5.7792 L 4.7146 6.5624 L 5.885 6.5624 L 5.885 9.1652 L 3.3381 13.493 L 2.2465 13.493 L 2.2465 14.277 C 2.9259 14.249 3.5667 14.235 4.1688 14.235 L 4.1809 14.235 C 4.8846 14.235 5.6203 14.249 6.3881 14.277 L 6.3881 13.493 L 5.5331 13.493 L 7.4311 10.278 L 9.3354 13.505 C 9.3273 13.497 9.3232 13.483 9.3232 13.464 C 9.3232 13.432 9.3295 13.415 9.3413 13.411 C 9.2971 13.415 9.2445 13.424 9.1837 13.44 C 9.0829 13.456 8.9817 13.468 8.8805 13.478 C 8.7796 13.488 8.646 13.493 8.4804 13.493 L 8.4804 14.277 C 9.0505 14.249 9.5842 14.235 10.081 14.235 L 10.093 14.235 C 10.494 14.235 10.939 14.249 11.427 14.277 L 11.427 13.493 Z " fill-rule="evenodd"/>
</g>
<path transform="matrix(.11987096,0,0,-.11987529,0,194.7925)" d="M 749.33 1002.15 C 749.33 982.27 733.22 966.15 713.33 966.15 C 693.45 966.15 677.33 982.27 677.33 1002.15 C 677.33 1022.03 693.45 1038.15 713.33 1038.15 C 733.22 1038.15 749.33 1022.03 749.33 1002.15 Z " fill="#38761d" fill-rule="evenodd"/>
<clipPath id="cp5">
<path transform="matrix(2.3974357,0,0,-2.3974856,55.463098,109.183559)" d="M 0 0 L 15.314 0 L 15.314 19.051 L 0 19.051 Z " fill-rule="evenodd"/>
</clipPath>
<g clip-path="url(#cp5)">
<path transform="matrix(2.3974357,0,0,-2.3974856,55.463098,109.183559)" d="M 8.5882 5.9202 C 8.0748 5.9474 7.6078 5.9614 7.1871 5.9614 L 7.1753 5.9614 C 6.6777 5.9614 6.1459 5.9474 5.5799 5.9202 L 5.5799 6.7034 L 6.041 6.7034 L 5.1978 7.8988 L 4.2821 6.6857 C 4.2902 6.6971 4.2943 6.7129 4.2943 6.7328 C 4.2943 6.7718 4.2862 6.7932 4.27 6.7976 C 4.3105 6.7777 4.3466 6.76 4.3789 6.7446 C 4.4882 6.7166 4.6542 6.703 4.8765 6.7034 L 4.8765 5.9202 C 4.4032 5.9474 3.9645 5.9614 3.56 5.9614 L 3.4511 5.9614 C 3.0993 5.9614 2.6992 5.9474 2.2502 5.9202 L 2.2502 6.7034 C 2.4563 6.703 2.6223 6.7048 2.7474 6.7089 C 2.8729 6.7126 2.9984 6.7225 3.1235 6.7387 C 3.1843 6.7542 3.2398 6.7667 3.2903 6.7766 C 3.3411 6.7862 3.3742 6.8013 3.3904 6.8211 L 4.7065 8.576 L 3.2023 10.714 L 2.3109 10.714 L 2.3109 11.497 C 2.602 11.485 2.8527 11.477 3.0628 11.473 C 3.2733 11.469 3.4857 11.467 3.6999 11.467 L 4.2214 11.467 C 4.387 11.467 4.5497 11.469 4.7094 11.473 C 4.8692 11.477 5.0705 11.485 5.313 11.497 L 5.313 10.714 L 4.8522 10.714 L 5.5618 9.7125 L 6.338 10.743 C 6.3299 10.731 6.3259 10.717 6.3259 10.702 C 6.3259 10.67 6.3362 10.648 6.3564 10.637 C 6.32 10.644 6.2795 10.656 6.235 10.672 C 6.126 10.7 5.9641 10.713 5.7499 10.714 L 5.7499 11.497 C 6.0248 11.485 6.2615 11.477 6.4595 11.473 C 6.6575 11.469 6.8559 11.467 7.0539 11.467 L 7.1632 11.467 C 7.345 11.467 7.525 11.469 7.7027 11.473 C 7.8809 11.477 8.1032 11.485 8.37 11.497 L 8.37 10.714 C 8.1639 10.713 7.9972 10.711 7.8698 10.707 C 7.7425 10.703 7.6159 10.694 7.4904 10.678 C 7.4381 10.67 7.3866 10.662 7.3358 10.654 C 7.2854 10.646 7.2541 10.633 7.2419 10.613 L 6.0469 9.0353 L 7.6847 6.7034 L 8.5882 6.7034 L 8.5882 5.9202 Z " fill="#274e13" fill-rule="evenodd"/>
<path transform="matrix(2.3974357,0,0,-2.3974856,55.463098,109.183559)" d="M 13.174 6.5578 C 13.174 6.241 13.149 5.9261 13.1 5.6128 C 13.05 5.2995 12.928 5.0054 12.733 4.7309 C 12.593 4.5306 12.407 4.3768 12.173 4.2692 C 11.94 4.1614 11.687 4.1076 11.413 4.1076 C 11.149 4.1076 10.9 4.1614 10.665 4.2692 C 10.431 4.3768 10.243 4.5306 10.104 4.7309 C 9.9088 5.0054 9.7864 5.2995 9.737 5.6128 C 9.6876 5.9261 9.6627 6.241 9.6627 6.5578 C 9.6627 6.8785 9.6876 7.199 9.737 7.5189 C 9.7864 7.8387 9.9088 8.1382 10.104 8.4177 C 10.243 8.6197 10.43 8.7769 10.663 8.889 C 10.897 9.0012 11.147 9.0572 11.413 9.0574 C 11.684 9.0572 11.937 9.0012 12.172 8.889 C 12.406 8.7769 12.593 8.6197 12.733 8.4177 C 12.928 8.1382 13.05 7.8387 13.1 7.5189 C 13.149 7.199 13.174 6.8785 13.174 6.5578 Z M 12.421 6.6732 C 12.421 6.8115 12.42 6.9576 12.417 7.1116 C 12.414 7.2653 12.408 7.416 12.398 7.5634 C 12.388 7.7105 12.369 7.8497 12.343 7.9805 C 12.316 8.1112 12.284 8.2229 12.246 8.3154 C 12.17 8.4647 12.058 8.5873 11.911 8.6829 C 11.764 8.7786 11.598 8.8264 11.413 8.8266 C 11.233 8.8264 11.07 8.7779 10.924 8.6813 C 10.778 8.5844 10.667 8.4626 10.591 8.3154 C 10.553 8.2229 10.521 8.1112 10.494 7.9805 C 10.467 7.8497 10.449 7.7105 10.439 7.5634 C 10.429 7.416 10.422 7.2653 10.42 7.1116 C 10.417 6.9576 10.416 6.8115 10.416 6.6732 C 10.416 6.519 10.417 6.3568 10.42 6.1866 C 10.422 6.0162 10.429 5.8513 10.439 5.692 C 10.449 5.5324 10.467 5.3814 10.494 5.2385 C 10.521 5.0955 10.553 4.9757 10.591 4.8793 C 10.662 4.7185 10.772 4.5866 10.92 4.4834 C 11.068 4.3799 11.233 4.3284 11.413 4.3286 C 11.601 4.3284 11.769 4.3799 11.917 4.4834 C 12.065 4.5866 12.175 4.7185 12.246 4.8793 C 12.284 4.9757 12.316 5.0955 12.343 5.2385 C 12.369 5.3814 12.388 5.5324 12.398 5.692 C 12.408 5.8513 12.414 6.0162 12.417 6.1866 C 12.42 6.3568 12.421 6.519 12.421 6.6732 Z " fill="#274e13" fill-rule="evenodd"/>
</g>
<path transform="matrix(.11987096,0,0,-.11987529,0,194.7925)" d="M 1806.83 1209.34 C 1806.83 1189.46 1790.72 1173.34 1770.83 1173.34 C 1750.95 1173.34 1734.83 1189.46 1734.83 1209.34 C 1734.83 1229.22 1750.95 1245.34 1770.83 1245.34 C 1790.72 1245.34 1806.83 1229.22 1806.83 1209.34 Z " fill="#990000" fill-rule="evenodd"/>
<clipPath id="cp6">
<path transform="matrix(2.3974074,0,0,-2.3975087,209.61116,50.00473)" d="M 0 0 L 23.97 0 L 23.97 13.277 L 0 13.277 Z " fill-rule="evenodd"/>
</clipPath>
<g clip-path="url(#cp6)">
<path transform="matrix(2.3974074,0,0,-2.3975087,209.61116,50.00473)" d="M 4.7174 9.1894 C 4.7174 9.0007 4.6568 8.8587 4.5356 8.7632 C 4.4144 8.6675 4.2795 8.6199 4.1313 8.6202 C 3.9885 8.6199 3.8562 8.6675 3.735 8.7632 C 3.6138 8.8587 3.5529 9.0007 3.5529 9.1894 C 3.5529 9.294 3.5753 9.384 3.6197 9.4601 C 3.6643 9.5359 3.6837 9.5727 3.6783 9.5702 C 3.7566 9.5437 3.7782 9.5307 3.7431 9.531 C 3.5463 9.5307 3.3861 9.4588 3.2619 9.3151 C 3.1893 9.2311 3.1393 9.1374 3.1123 9.0341 C 3.0853 8.9306 3.0718 8.8162 3.0718 8.6909 L 3.0718 7.9018 L 3.8805 7.9018 L 3.8805 7.3836 L 3.1123 7.3836 L 3.1123 4.7101 L 3.8238 4.7101 L 3.8238 4.188 C 3.3954 4.2061 2.9842 4.2155 2.5906 4.2155 C 2.2484 4.2155 1.8845 4.2061 1.4988 4.188 L 1.4988 4.7101 L 2.0732 4.7101 L 2.0732 7.3836 L 1.5918 7.3836 L 1.5918 7.9018 L 2.0732 7.9018 L 2.0732 8.6909 C 2.0732 8.879 2.1171 9.055 2.2047 9.2186 C 2.2923 9.382 2.4142 9.5216 2.5705 9.637 C 2.7592 9.765 2.9587 9.8512 3.1689 9.8958 C 3.3792 9.9402 3.5895 9.9626 3.7998 9.9628 C 3.9131 9.9626 4.025 9.9449 4.1354 9.9096 C 4.2458 9.8742 4.3442 9.8232 4.4306 9.7565 C 4.517 9.6897 4.5862 9.6078 4.6387 9.5111 C 4.6912 9.4142 4.7174 9.307 4.7174 9.1894 Z " fill="#990000" fill-rule="evenodd"/>
<path transform="matrix(2.3974074,0,0,-2.3975087,209.61116,50.00473)" d="M 7.4543 4.6131 C 7.4543 4.4019 7.4378 4.1919 7.4049 3.9831 C 7.372 3.7742 7.2904 3.5781 7.1602 3.3951 C 7.0673 3.2616 6.9429 3.1591 6.7873 3.0873 C 6.6319 3.0155 6.4628 2.9796 6.2801 2.9796 C 6.1044 2.9796 5.9382 3.0155 5.7818 3.0873 C 5.6255 3.1591 5.5007 3.2616 5.4077 3.3951 C 5.2775 3.5781 5.196 3.7742 5.163 3.9831 C 5.1301 4.1919 5.1135 4.4019 5.1135 4.6131 C 5.1135 4.8269 5.1301 5.0405 5.163 5.2538 C 5.196 5.467 5.2775 5.6667 5.4077 5.853 C 5.5007 5.9876 5.625 6.0925 5.7806 6.1672 C 5.9362 6.242 6.1027 6.2793 6.2801 6.2795 C 6.4611 6.2793 6.6298 6.242 6.7861 6.1672 C 6.9425 6.0925 7.0673 5.9876 7.1602 5.853 C 7.2904 5.6667 7.372 5.467 7.4049 5.2538 C 7.4378 5.0405 7.4543 4.8269 7.4543 4.6131 Z M 6.9522 4.69 C 6.9522 4.7822 6.9514 4.8796 6.9497 4.9823 C 6.948 5.0848 6.9437 5.1852 6.9369 5.2834 C 6.9302 5.3816 6.918 5.4743 6.9001 5.5616 C 6.8825 5.6487 6.8609 5.7231 6.8355 5.7848 C 6.7849 5.8843 6.7106 5.9661 6.6124 6.0298 C 6.5143 6.0936 6.4035 6.1255 6.2801 6.1256 C 6.1601 6.1255 6.0516 6.0932 5.9543 6.0287 C 5.8571 5.9641 5.7831 5.8829 5.7323 5.7848 C 5.707 5.7231 5.6855 5.6487 5.6676 5.5616 C 5.6499 5.4743 5.6376 5.3816 5.6309 5.2834 C 5.6241 5.1852 5.6199 5.0848 5.6182 4.9823 C 5.6165 4.8796 5.6156 4.7822 5.6156 4.69 C 5.6156 4.5872 5.6165 4.4791 5.6182 4.3656 C 5.6199 4.252 5.6241 4.142 5.6309 4.0358 C 5.6376 3.9295 5.6499 3.8288 5.6676 3.7336 C 5.6855 3.6382 5.707 3.5584 5.7323 3.4941 C 5.7797 3.3869 5.8529 3.2989 5.9517 3.2301 C 6.0507 3.1611 6.1601 3.1268 6.2801 3.1269 C 6.4054 3.1268 6.5174 3.1611 6.6162 3.2301 C 6.7152 3.2989 6.7883 3.3869 6.8355 3.4941 C 6.8609 3.5584 6.8825 3.6382 6.9001 3.7336 C 6.918 3.8288 6.9302 3.9295 6.9369 4.0358 C 6.9437 4.142 6.948 4.252 6.9497 4.3656 C 6.9514 4.4791 6.9522 4.5872 6.9522 4.69 Z " fill="#990000" fill-rule="evenodd"/>
<path transform="matrix(2.3974074,0,0,-2.3975087,209.61116,50.00473)" d="M 16.632 4.188 C 16.289 4.2061 15.978 4.2155 15.697 4.2155 L 15.69 4.2155 C 15.358 4.2155 15.003 4.2061 14.626 4.188 L 14.626 4.7101 L 14.933 4.7101 L 14.371 5.507 L 13.761 4.6983 C 13.766 4.7059 13.769 4.7165 13.769 4.7297 C 13.769 4.7557 13.764 4.77 13.753 4.7729 C 13.78 4.7597 13.804 4.7479 13.825 4.7376 C 13.898 4.7189 14.009 4.7099 14.157 4.7101 L 14.157 4.188 C 13.842 4.2061 13.549 4.2155 13.279 4.2155 L 13.207 4.2155 C 12.972 4.2155 12.706 4.2061 12.406 4.188 L 12.406 4.7101 C 12.544 4.7099 12.654 4.7111 12.738 4.7138 C 12.821 4.7162 12.905 4.7229 12.988 4.7337 C 13.029 4.744 13.066 4.7523 13.1 4.7589 C 13.133 4.7653 13.156 4.7754 13.166 4.7886 L 14.044 5.9585 L 13.041 7.3836 L 12.447 7.3836 L 12.447 7.9057 C 12.641 7.8976 12.808 7.8922 12.948 7.8897 C 13.088 7.8871 13.23 7.8858 13.373 7.8861 L 13.72 7.8861 C 13.831 7.8858 13.939 7.8871 14.046 7.8897 C 14.152 7.8922 14.286 7.8976 14.448 7.9057 L 14.448 7.3836 L 14.141 7.3836 L 14.614 6.7162 L 15.131 7.4032 C 15.126 7.3951 15.123 7.386 15.123 7.3757 C 15.123 7.3546 15.13 7.3401 15.144 7.3325 C 15.119 7.3374 15.092 7.3453 15.063 7.3561 C 14.99 7.3742 14.882 7.3833 14.739 7.3836 L 14.739 7.9057 C 14.923 7.8976 15.08 7.8922 15.212 7.8897 C 15.344 7.8871 15.477 7.8858 15.609 7.8861 L 15.682 7.8861 C 15.803 7.8858 15.923 7.8871 16.041 7.8897 C 16.16 7.8922 16.308 7.8976 16.486 7.9057 L 16.486 7.3836 C 16.349 7.3833 16.238 7.3819 16.153 7.3794 C 16.068 7.3767 15.983 7.3703 15.9 7.36 C 15.865 7.3546 15.83 7.3492 15.797 7.3441 C 15.763 7.3387 15.742 7.3296 15.734 7.3168 L 14.937 6.2647 L 16.029 4.7101 L 16.632 4.7101 L 16.632 4.188 Z " fill="#990000" fill-rule="evenodd"/>
<path transform="matrix(2.3974074,0,0,-2.3975087,209.61116,50.00473)" d="M 19.689 4.6131 C 19.689 4.4019 19.672 4.1919 19.639 3.9831 C 19.606 3.7742 19.525 3.5781 19.395 3.3951 C 19.302 3.2616 19.177 3.1591 19.022 3.0873 C 18.866 3.0155 18.697 2.9796 18.515 2.9796 C 18.339 2.9796 18.173 3.0155 18.016 3.0873 C 17.86 3.1591 17.735 3.2616 17.642 3.3951 C 17.512 3.5781 17.43 3.7742 17.397 3.9831 C 17.364 4.1919 17.348 4.4019 17.348 4.6131 C 17.348 4.8269 17.364 5.0405 17.397 5.2538 C 17.43 5.467 17.512 5.6667 17.642 5.853 C 17.735 5.9876 17.859 6.0925 18.015 6.1672 C 18.171 6.242 18.337 6.2793 18.515 6.2795 C 18.695 6.2793 18.864 6.242 19.021 6.1672 C 19.177 6.0925 19.302 5.9876 19.395 5.853 C 19.525 5.6667 19.606 5.467 19.639 5.2538 C 19.672 5.0405 19.689 4.8269 19.689 4.6131 Z M 19.187 4.69 C 19.187 4.7822 19.186 4.8796 19.184 4.9823 C 19.182 5.0848 19.178 5.1852 19.171 5.2834 C 19.165 5.3816 19.152 5.4743 19.135 5.5616 C 19.117 5.6487 19.095 5.7231 19.07 5.7848 C 19.019 5.8843 18.945 5.9661 18.847 6.0298 C 18.749 6.0936 18.638 6.1255 18.515 6.1256 C 18.394 6.1255 18.286 6.0932 18.189 6.0287 C 18.091 5.9641 18.017 5.8829 17.967 5.7848 C 17.941 5.7231 17.92 5.6487 17.902 5.5616 C 17.884 5.4743 17.872 5.3816 17.865 5.2834 C 17.858 5.1852 17.854 5.0848 17.853 4.9823 C 17.851 4.8796 17.85 4.7822 17.85 4.69 C 17.85 4.5872 17.851 4.4791 17.853 4.3656 C 17.854 4.252 17.858 4.142 17.865 4.0358 C 17.872 3.9295 17.884 3.8288 17.902 3.7336 C 17.92 3.6382 17.941 3.5584 17.967 3.4941 C 18.014 3.3869 18.087 3.2989 18.186 3.2301 C 18.285 3.1611 18.394 3.1268 18.515 3.1269 C 18.64 3.1268 18.752 3.1611 18.851 3.2301 C 18.95 3.2989 19.023 3.3869 19.07 3.4941 C 19.095 3.5584 19.117 3.6382 19.135 3.7336 C 19.152 3.8288 19.165 3.9295 19.171 4.0358 C 19.178 4.142 19.182 4.252 19.184 4.3656 C 19.186 4.4791 19.187 4.5872 19.187 4.69 Z " fill="#990000" fill-rule="evenodd"/>
<path transform="matrix(2.3974074,0,0,-2.3975087,209.61116,50.00473)" d="M 11.538 2.706 C 8.708 4.4756 8.708 8.8012 11.538 10.571 L 11.95 10.571 C 9.3769 8.8012 9.3769 4.4756 11.95 2.706 " fill="#990000" fill-rule="evenodd"/>
<path transform="matrix(2.3974074,0,0,-2.3975087,209.61116,50.00473)" d="M 20.483 10.571 C 23.314 8.8012 23.314 4.4756 20.483 2.706 L 20.072 2.706 C 22.645 4.4756 22.645 8.8012 20.072 10.571 " fill="#990000" fill-rule="evenodd"/>
</g>
<clipPath id="cp7">
<path transform="matrix(2.3974395,0,0,-2.3975087,244.35695,130.47101)" d="M 0 0 L 23.483 0 L 23.483 13.277 L 0 13.277 Z " fill-rule="evenodd"/>
</clipPath>
<g clip-path="url(#cp7)">
<path transform="matrix(2.3974395,0,0,-2.3975087,244.35695,130.47101)" d="M 4.7174 9.1894 C 4.7174 9.0007 4.6568 8.8587 4.5356 8.7632 C 4.4144 8.6675 4.2795 8.6199 4.1313 8.6202 C 3.9885 8.6199 3.8562 8.6675 3.735 8.7632 C 3.6138 8.8587 3.5529 9.0007 3.5529 9.1894 C 3.5529 9.294 3.5753 9.384 3.6197 9.4601 C 3.6643 9.5359 3.6837 9.5727 3.6783 9.5702 C 3.7566 9.5437 3.7782 9.5307 3.7431 9.531 C 3.5463 9.5307 3.3861 9.4588 3.2619 9.3151 C 3.1893 9.2311 3.1393 9.1374 3.1123 9.0341 C 3.0853 8.9306 3.0718 8.8162 3.0718 8.6909 L 3.0718 7.9018 L 3.8805 7.9018 L 3.8805 7.3836 L 3.1123 7.3836 L 3.1123 4.7101 L 3.8238 4.7101 L 3.8238 4.188 C 3.3954 4.2061 2.9842 4.2155 2.5906 4.2155 C 2.2484 4.2155 1.8845 4.2061 1.4988 4.188 L 1.4988 4.7101 L 2.0732 4.7101 L 2.0732 7.3836 L 1.5918 7.3836 L 1.5918 7.9018 L 2.0732 7.9018 L 2.0732 8.6909 C 2.0732 8.879 2.1171 9.055 2.2047 9.2186 C 2.2923 9.382 2.4142 9.5216 2.5705 9.637 C 2.7592 9.765 2.9587 9.8512 3.1689 9.8958 C 3.3792 9.9402 3.5895 9.9626 3.7998 9.9628 C 3.9131 9.9626 4.025 9.9449 4.1354 9.9096 C 4.2458 9.8742 4.3442 9.8232 4.4306 9.7565 C 4.517 9.6897 4.5862 9.6078 4.6387 9.5111 C 4.6912 9.4142 4.7174 9.307 4.7174 9.1894 Z " fill="#0000ff" fill-rule="evenodd"/>
<path transform="matrix(2.3974395,0,0,-2.3975087,244.35695,130.47101)" d="M 6.9957 3.0829 C 6.6846 3.0917 6.3819 3.0961 6.0877 3.0961 C 5.7936 3.0961 5.4909 3.0917 5.1797 3.0829 L 5.1797 3.272 L 5.3549 3.272 C 5.4106 3.2719 5.4631 3.2726 5.512 3.2741 C 5.5611 3.2755 5.6076 3.2792 5.6516 3.2851 C 5.6956 3.2908 5.7336 3.2967 5.7656 3.3028 C 5.7927 3.3071 5.8152 3.3205 5.8329 3.3433 C 5.8507 3.366 5.8595 3.3913 5.8595 3.4193 L 5.8595 5.897 C 5.775 5.8601 5.671 5.8322 5.5475 5.8133 C 5.4241 5.7942 5.2889 5.7847 5.1417 5.7848 L 5.1417 5.9717 C 5.3447 5.9716 5.532 5.9931 5.7036 6.0364 C 5.8752 6.0796 6.0235 6.1606 6.1486 6.2795 L 6.2273 6.2795 C 6.283 6.2793 6.3108 6.2552 6.3108 6.2069 L 6.3108 3.4193 C 6.3108 3.3899 6.3193 3.3642 6.3362 3.3422 C 6.3532 3.3202 6.3778 3.3071 6.4098 3.3028 C 6.4369 3.2967 6.4717 3.2908 6.5138 3.2851 C 6.5561 3.2792 6.6039 3.2755 6.6571 3.2741 C 6.7103 3.2726 6.7624 3.2719 6.813 3.272 L 6.9957 3.272 L 6.9957 3.0829 Z " fill="#0000ff" fill-rule="evenodd"/>
<path transform="matrix(2.3974395,0,0,-2.3975087,244.35695,130.47101)" d="M 16.145 4.188 C 15.802 4.2061 15.491 4.2155 15.211 4.2155 L 15.203 4.2155 C 14.871 4.2155 14.516 4.2061 14.139 4.188 L 14.139 4.7101 L 14.447 4.7101 L 13.884 5.507 L 13.274 4.6983 C 13.279 4.7059 13.282 4.7165 13.282 4.7297 C 13.282 4.7557 13.277 4.77 13.266 4.7729 C 13.293 4.7597 13.317 4.7479 13.338 4.7376 C 13.411 4.7189 13.522 4.7099 13.67 4.7101 L 13.67 4.188 C 13.355 4.2061 13.062 4.2155 12.793 4.2155 L 12.72 4.2155 C 12.485 4.2155 12.219 4.2061 11.919 4.188 L 11.919 4.7101 C 12.057 4.7099 12.167 4.7111 12.251 4.7138 C 12.334 4.7162 12.418 4.7229 12.502 4.7337 C 12.542 4.744 12.579 4.7523 12.613 4.7589 C 12.647 4.7653 12.669 4.7754 12.679 4.7886 L 13.557 5.9585 L 12.554 7.3836 L 11.96 7.3836 L 11.96 7.9057 C 12.154 7.8976 12.321 7.8922 12.461 7.8897 C 12.601 7.8871 12.743 7.8858 12.886 7.8861 L 13.233 7.8861 C 13.344 7.8858 13.452 7.8871 13.559 7.8897 C 13.665 7.8922 13.799 7.8976 13.961 7.9057 L 13.961 7.3836 L 13.654 7.3836 L 14.127 6.7162 L 14.645 7.4032 C 14.639 7.3951 14.636 7.386 14.636 7.3757 C 14.636 7.3546 14.643 7.3401 14.657 7.3325 C 14.632 7.3374 14.606 7.3453 14.576 7.3561 C 14.503 7.3742 14.395 7.3833 14.252 7.3836 L 14.252 7.9057 C 14.436 7.8976 14.593 7.8922 14.725 7.8897 C 14.857 7.8871 14.99 7.8858 15.122 7.8861 L 15.195 7.8861 C 15.316 7.8858 15.436 7.8871 15.554 7.8897 C 15.673 7.8922 15.821 7.8976 15.999 7.9057 L 15.999 7.3836 C 15.862 7.3833 15.751 7.3819 15.666 7.3794 C 15.581 7.3767 15.496 7.3703 15.413 7.36 C 15.378 7.3546 15.344 7.3492 15.31 7.3441 C 15.276 7.3387 15.255 7.3296 15.247 7.3168 L 14.45 6.2647 L 15.542 4.7101 L 16.145 4.7101 L 16.145 4.188 Z " fill="#0000ff" fill-rule="evenodd"/>
<path transform="matrix(2.3974395,0,0,-2.3975087,244.35695,130.47101)" d="M 19.202 4.6131 C 19.202 4.4019 19.185 4.1919 19.152 3.9831 C 19.119 3.7742 19.038 3.5781 18.908 3.3951 C 18.815 3.2616 18.69 3.1591 18.535 3.0873 C 18.379 3.0155 18.21 2.9796 18.028 2.9796 C 17.852 2.9796 17.686 3.0155 17.529 3.0873 C 17.373 3.1591 17.248 3.2616 17.155 3.3951 C 17.025 3.5781 16.943 3.7742 16.911 3.9831 C 16.878 4.1919 16.861 4.4019 16.861 4.6131 C 16.861 4.8269 16.878 5.0405 16.911 5.2538 C 16.943 5.467 17.025 5.6667 17.155 5.853 C 17.248 5.9876 17.372 6.0925 17.528 6.1672 C 17.684 6.242 17.85 6.2793 18.028 6.2795 C 18.209 6.2793 18.377 6.242 18.534 6.1672 C 18.69 6.0925 18.815 5.9876 18.908 5.853 C 19.038 5.6667 19.119 5.467 19.152 5.2538 C 19.185 5.0405 19.202 4.8269 19.202 4.6131 Z M 18.7 4.69 C 18.7 4.7822 18.699 4.8796 18.697 4.9823 C 18.695 5.0848 18.691 5.1852 18.684 5.2834 C 18.678 5.3816 18.665 5.4743 18.648 5.5616 C 18.63 5.6487 18.608 5.7231 18.583 5.7848 C 18.532 5.8843 18.458 5.9661 18.36 6.0298 C 18.262 6.0936 18.151 6.1255 18.028 6.1256 C 17.908 6.1255 17.799 6.0932 17.702 6.0287 C 17.605 5.9641 17.531 5.8829 17.48 5.7848 C 17.455 5.7231 17.433 5.6487 17.415 5.5616 C 17.397 5.4743 17.385 5.3816 17.378 5.2834 C 17.372 5.1852 17.367 5.0848 17.366 4.9823 C 17.364 4.8796 17.363 4.7822 17.363 4.69 C 17.363 4.5872 17.364 4.4791 17.366 4.3656 C 17.367 4.252 17.372 4.142 17.378 4.0358 C 17.385 3.9295 17.397 3.8288 17.415 3.7336 C 17.433 3.6382 17.455 3.5584 17.48 3.4941 C 17.527 3.3869 17.6 3.2989 17.699 3.2301 C 17.798 3.1611 17.908 3.1268 18.028 3.1269 C 18.153 3.1268 18.265 3.1611 18.364 3.2301 C 18.463 3.2989 18.536 3.3869 18.583 3.4941 C 18.608 3.5584 18.63 3.6382 18.648 3.7336 C 18.665 3.8288 18.678 3.9295 18.684 4.0358 C 18.691 4.142 18.695 4.252 18.697 4.3656 C 18.699 4.4791 18.7 4.5872 18.7 4.69 Z " fill="#0000ff" fill-rule="evenodd"/>
<path transform="matrix(2.3974395,0,0,-2.3975087,244.35695,130.47101)" d="M 11.051 2.706 C 8.2211 4.4756 8.2211 8.8012 11.051 10.571 L 11.463 10.571 C 8.89 8.8012 8.89 4.4756 11.463 2.706 " fill="#0000ff" fill-rule="evenodd"/>
<path transform="matrix(2.3974395,0,0,-2.3975087,244.35695,130.47101)" d="M 19.997 10.571 C 22.827 8.8012 22.827 4.4756 19.997 2.706 L 19.585 2.706 C 22.158 4.4756 22.158 8.8012 19.585 10.571 " fill="#0000ff" fill-rule="evenodd"/>
</g>
<path transform="matrix(.11987096,0,0,-.11987529,0,194.7925)" d="M 2204.33 792.15 C 2204.33 772.27 2188.21 756.15 2168.33 756.15 C 2148.45 756.15 2132.33 772.27 2132.33 792.15 C 2132.33 812.03 2148.45 828.15 2168.33 828.15 C 2188.21 828.15 2204.33 812.03 2204.33 792.15 Z " fill="#0000ff" fill-rule="evenodd"/>
<path transform="matrix(.11987096,0,0,-.11987529,0,194.7925)" stroke-width="15" stroke-linecap="round" stroke-linejoin="round" fill="none" stroke="#000000" d="M 1770.83 1209.34 L 1770.2 1209.34 L 1707.08 1209.34 C 1671.87 1209.34 1643.33 1180.8 1643.33 1145.59 L 1643.33 1000.75 C 1643.33 885.54 1736.72 792.15 1851.93 792.15 L 2165.71 792.15 L 2168.33 792.15 "/>
<path transform="matrix(.11987096,0,0,-.11987529,0,194.7925)" d="M 1683.08 1005.9 C 1683.08 986.02 1666.97 969.9 1647.08 969.9 C 1627.2 969.9 1611.08 986.02 1611.08 1005.9 C 1611.08 1025.78 1627.2 1041.9 1647.08 1041.9 C 1666.97 1041.9 1683.08 1025.78 1683.08 1005.9 Z " fill-rule="evenodd"/>
<clipPath id="cp8">
<path transform="matrix(2.397412,0,0,-2.3975087,207.19936,89.22672)" d="M 0 0 L 23.356 0 L 23.356 13.277 L 0 13.277 Z " fill-rule="evenodd"/>
</clipPath>
<g clip-path="url(#cp8)">
<path transform="matrix(2.397412,0,0,-2.3975087,207.19936,89.22672)" d="M 4.7174 9.1894 C 4.7174 9.0007 4.6568 8.8587 4.5356 8.7632 C 4.4144 8.6675 4.2795 8.6199 4.1313 8.6202 C 3.9885 8.6199 3.8562 8.6675 3.735 8.7632 C 3.6138 8.8587 3.5529 9.0007 3.5529 9.1894 C 3.5529 9.294 3.5753 9.384 3.6197 9.4601 C 3.6643 9.5359 3.6837 9.5727 3.6783 9.5702 C 3.7566 9.5437 3.7782 9.5307 3.7431 9.531 C 3.5463 9.5307 3.3861 9.4588 3.2619 9.3151 C 3.1893 9.2311 3.1393 9.1374 3.1123 9.0341 C 3.0853 8.9306 3.0718 8.8162 3.0718 8.6909 L 3.0718 7.9018 L 3.8805 7.9018 L 3.8805 7.3836 L 3.1123 7.3836 L 3.1123 4.7101 L 3.8238 4.7101 L 3.8238 4.188 C 3.3954 4.2061 2.9842 4.2155 2.5906 4.2155 C 2.2484 4.2155 1.8845 4.2061 1.4988 4.188 L 1.4988 4.7101 L 2.0732 4.7101 L 2.0732 7.3836 L 1.5918 7.3836 L 1.5918 7.9018 L 2.0732 7.9018 L 2.0732 8.6909 C 2.0732 8.879 2.1171 9.055 2.2047 9.2186 C 2.2923 9.382 2.4142 9.5216 2.5705 9.637 C 2.7592 9.765 2.9587 9.8512 3.1689 9.8958 C 3.3792 9.9402 3.5895 9.9626 3.7998 9.9628 C 3.9131 9.9626 4.025 9.9449 4.1354 9.9096 C 4.2458 9.8742 4.3442 9.8232 4.4306 9.7565 C 4.517 9.6897 4.5862 9.6078 4.6387 9.5111 C 4.6912 9.4142 4.7174 9.307 4.7174 9.1894 Z " fill-rule="evenodd"/>
<path transform="matrix(2.397412,0,0,-2.3975087,207.19936,89.22672)" d="M 6.8613 3.6326 C 6.8613 3.5592 6.8482 3.4873 6.822 3.417 C 6.7959 3.3466 6.7594 3.2831 6.7129 3.2268 C 6.6665 3.1703 6.608 3.1242 6.5378 3.0884 C 6.4676 3.0524 6.387 3.0346 6.2957 3.0346 C 6.196 3.0346 6.0924 3.043 5.985 3.0599 C 5.8776 3.0766 5.7783 3.1173 5.6869 3.1819 C 5.6041 3.2374 5.546 3.3055 5.5121 3.3862 C 5.4783 3.4667 5.4613 3.5489 5.4613 3.6326 L 5.4613 4.8483 L 5.1342 4.8483 L 5.1342 5.0901 C 5.2694 5.09 5.3759 5.1138 5.4536 5.1614 C 5.5315 5.209 5.5966 5.2736 5.6489 5.3549 C 5.7014 5.4362 5.7411 5.5297 5.7682 5.6352 C 5.7953 5.7407 5.8087 5.8616 5.8087 5.9981 L 6.1435 5.9981 L 6.1435 5.1385 L 6.7725 5.1385 L 6.7725 4.8483 L 6.1435 4.8483 L 6.1435 3.6326 C 6.1435 3.5768 6.1478 3.5258 6.1563 3.4796 C 6.1648 3.4335 6.1817 3.3935 6.2069 3.36 C 6.2323 3.3187 6.2746 3.2983 6.3337 3.2984 C 6.3913 3.2983 6.4378 3.3282 6.4732 3.3884 C 6.5087 3.4484 6.5264 3.5298 6.5264 3.6326 L 6.5264 3.9359 L 6.8613 3.9359 L 6.8613 3.6326 Z " fill-rule="evenodd"/>
<path transform="matrix(2.397412,0,0,-2.3975087,207.19936,89.22672)" d="M 16.018 4.188 C 15.676 4.2061 15.364 4.2155 15.084 4.2155 L 15.076 4.2155 C 14.744 4.2155 14.39 4.2061 14.012 4.188 L 14.012 4.7101 L 14.32 4.7101 L 13.758 5.507 L 13.147 4.6983 C 13.153 4.7059 13.155 4.7165 13.155 4.7297 C 13.155 4.7557 13.15 4.77 13.139 4.7729 C 13.166 4.7597 13.19 4.7479 13.212 4.7376 C 13.285 4.7189 13.395 4.7099 13.543 4.7101 L 13.543 4.188 C 13.228 4.2061 12.935 4.2155 12.666 4.2155 L 12.593 4.2155 C 12.359 4.2155 12.092 4.2061 11.792 4.188 L 11.792 4.7101 C 11.93 4.7099 12.041 4.7111 12.124 4.7138 C 12.208 4.7162 12.291 4.7229 12.375 4.7337 C 12.415 4.744 12.452 4.7523 12.486 4.7589 C 12.52 4.7653 12.542 4.7754 12.553 4.7886 L 13.43 5.9585 L 12.427 7.3836 L 11.833 7.3836 L 11.833 7.9057 C 12.027 7.8976 12.194 7.8922 12.334 7.8897 C 12.475 7.8871 12.616 7.8858 12.759 7.8861 L 13.107 7.8861 C 13.217 7.8858 13.326 7.8871 13.432 7.8897 C 13.538 7.8922 13.673 7.8976 13.834 7.9057 L 13.834 7.3836 L 13.527 7.3836 L 14 6.7162 L 14.518 7.4032 C 14.512 7.3951 14.51 7.386 14.51 7.3757 C 14.51 7.3546 14.516 7.3401 14.53 7.3325 C 14.506 7.3374 14.479 7.3453 14.449 7.3561 C 14.376 7.3742 14.268 7.3833 14.126 7.3836 L 14.126 7.9057 C 14.309 7.8976 14.467 7.8922 14.599 7.8897 C 14.731 7.8871 14.863 7.8858 14.995 7.8861 L 15.068 7.8861 C 15.189 7.8858 15.309 7.8871 15.428 7.8897 C 15.546 7.8922 15.694 7.8976 15.872 7.9057 L 15.872 7.3836 C 15.735 7.3833 15.624 7.3819 15.539 7.3794 C 15.454 7.3767 15.37 7.3703 15.286 7.36 C 15.251 7.3546 15.217 7.3492 15.183 7.3441 C 15.149 7.3387 15.128 7.3296 15.12 7.3168 L 14.324 6.2647 L 15.415 4.7101 L 16.018 4.7101 L 16.018 4.188 Z " fill-rule="evenodd"/>
<path transform="matrix(2.397412,0,0,-2.3975087,207.19936,89.22672)" d="M 19.075 4.6131 C 19.075 4.4019 19.059 4.1919 19.026 3.9831 C 18.993 3.7742 18.911 3.5781 18.781 3.3951 C 18.688 3.2616 18.564 3.1591 18.408 3.0873 C 18.253 3.0155 18.083 2.9796 17.901 2.9796 C 17.725 2.9796 17.559 3.0155 17.403 3.0873 C 17.246 3.1591 17.121 3.2616 17.028 3.3951 C 16.898 3.5781 16.817 3.7742 16.784 3.9831 C 16.751 4.1919 16.734 4.4019 16.734 4.6131 C 16.734 4.8269 16.751 5.0405 16.784 5.2538 C 16.817 5.467 16.898 5.6667 17.028 5.853 C 17.121 5.9876 17.246 6.0925 17.401 6.1672 C 17.557 6.242 17.723 6.2793 17.901 6.2795 C 18.082 6.2793 18.25 6.242 18.407 6.1672 C 18.563 6.0925 18.688 5.9876 18.781 5.853 C 18.911 5.6667 18.993 5.467 19.026 5.2538 C 19.059 5.0405 19.075 4.8269 19.075 4.6131 Z M 18.573 4.69 C 18.573 4.7822 18.572 4.8796 18.57 4.9823 C 18.569 5.0848 18.564 5.1852 18.558 5.2834 C 18.551 5.3816 18.539 5.4743 18.521 5.5616 C 18.503 5.6487 18.482 5.7231 18.456 5.7848 C 18.406 5.8843 18.331 5.9661 18.233 6.0298 C 18.135 6.0936 18.024 6.1255 17.901 6.1256 C 17.781 6.1255 17.672 6.0932 17.575 6.0287 C 17.478 5.9641 17.404 5.8829 17.353 5.7848 C 17.328 5.7231 17.306 5.6487 17.288 5.5616 C 17.271 5.4743 17.258 5.3816 17.252 5.2834 C 17.245 5.1852 17.241 5.0848 17.239 4.9823 C 17.237 4.8796 17.236 4.7822 17.236 4.69 C 17.236 4.5872 17.237 4.4791 17.239 4.3656 C 17.241 4.252 17.245 4.142 17.252 4.0358 C 17.258 3.9295 17.271 3.8288 17.288 3.7336 C 17.306 3.6382 17.328 3.5584 17.353 3.4941 C 17.4 3.3869 17.474 3.2989 17.572 3.2301 C 17.671 3.1611 17.781 3.1268 17.901 3.1269 C 18.026 3.1268 18.138 3.1611 18.237 3.2301 C 18.336 3.2989 18.409 3.3869 18.456 3.4941 C 18.482 3.5584 18.503 3.6382 18.521 3.7336 C 18.539 3.8288 18.551 3.9295 18.558 4.0358 C 18.564 4.142 18.569 4.252 18.57 4.3656 C 18.572 4.4791 18.573 4.5872 18.573 4.69 Z " fill-rule="evenodd"/>
<path transform="matrix(2.397412,0,0,-2.3975087,207.19936,89.22672)" d="M 10.924 2.706 C 8.0943 4.4756 8.0943 8.8012 10.924 10.571 L 11.336 10.571 C 8.7632 8.8012 8.7632 4.4756 11.336 2.706 " fill-rule="evenodd"/>
<path transform="matrix(2.397412,0,0,-2.3975087,207.19936,89.22672)" d="M 19.87 10.571 C 22.7 8.8012 22.7 4.4756 19.87 2.706 L 19.458 2.706 C 22.031 4.4756 22.031 8.8012 19.458 10.571 " fill-rule="evenodd"/>
</g>
<path transform="matrix(.11987096,0,0,-.11987529,0,194.7925)" d="M 711.88 1008.1 L 1651.77 1193.5 L 1654.67 1178.78 L 714.78 993.39 C 710.72 992.59 706.78 995.23 705.97 999.29 C 705.17 1003.36 707.82 1007.3 711.88 1008.1 Z M 1770.83 1209.34 L 1614.96 1224.46 L 1651.65 1193.48 L 1654.55 1178.76 L 1632.38 1136.16 Z " fill="#4a86e8" fill-opacity=".50588"/>
<path transform="matrix(.11987096,0,0,-.11987529,0,194.7925)" d="M 713.32 1008.25 L 1527.19 1009.47 L 1527.21 994.47 L 713.34 993.25 C 709.2 993.24 705.84 996.59 705.83 1000.74 C 705.83 1004.88 709.18 1008.24 713.32 1008.25 Z M 1647.08 1002.15 L 1497.02 1046.93 L 1527.07 1009.47 L 1527.09 994.47 L 1497.15 956.93 Z " fill="#4a86e8" fill-opacity=".50588"/>
<path transform="matrix(.11987096,0,0,-.11987529,0,194.7925)" d="M 714.4 1008.17 L 2050.73 816.59 L 2048.6 801.74 L 712.27 993.32 C 708.17 993.91 705.32 997.71 705.91 1001.81 C 706.5 1005.91 710.3 1008.76 714.4 1008.17 Z M 2168.33 792.15 L 2026.24 857.98 L 2050.61 816.61 L 2048.48 801.76 L 2013.46 768.89 Z " fill="#4a86e8" fill-opacity=".50588"/>
</g>
</g>
</g>
</g>
</g>
</svg>
