<?xml version="1.0" encoding="UTF-8" standalone="no"?>
<!DOCTYPE svg PUBLIC "-//W3C//DTD SVG 1.1//EN" "http://www.w3.org/Graphics/SVG/1.1/DTD/svg11.dtd">
<svg xmlns="http://www.w3.org/2000/svg" xmlns:xlink="http://www.w3.org/1999/xlink" version="1.1" width="444.96pt" height="156pt" viewBox="0 0 444.96 156">
<g enable-background="new">
<g>
<g id="Layer-1" data-name="P">
<clipPath id="cp0">
<path transform="matrix(1,0,0,-1,0,156)" d="M .00000663 0 L 444.96 0 L 444.96 156 L .00000663 156 Z " fill-rule="evenodd"/>
</clipPath>
<g clip-path="url(#cp0)">
<text xml:space="preserve" transform="matrix(1 0 -0 1 0 156)" font-size="11.04" font-family="Calibri"><tspan y="-.12" x="444.58"> </tspan></text>
</g>
</g>
<g id="Layer-1" data-name="P">
<clipPath id="cp1">
<path transform="matrix(1,0,0,-1,0,156)" d="M .00000663 .20004 L 444.43 .20004 L 444.43 156.00005 L .00000663 156.00005 Z " fill-rule="evenodd"/>
</clipPath>
<g clip-path="url(#cp1)">
<clipPath id="cp2">
<path transform="matrix(.11968054,0,0,-.11938669,0,155.79999)" d="M 0 0 L 3713.36 0 L 3713.36 1305.01 L 0 1305.01 Z " fill-rule="evenodd"/>
</clipPath>
<g clip-path="url(#cp2)">
<clipPath id="cp3">
<path transform="matrix(2.3935955,0,0,-2.3877555,76.477069,92.05466)" d="M 0 0 L 16.349 0 L 16.349 12.606 L 0 12.606 Z " fill-rule="evenodd"/>
</clipPath>
<g clip-path="url(#cp3)">
<path transform="matrix(2.3935955,0,0,-2.3877555,76.477069,92.05466)" d="M 11.478 8.5351 C 11.478 8.5934 11.522 8.623 11.61 8.6235 C 11.71 8.623 11.782 8.5883 11.825 8.519 C 12.268 7.6663 12.944 7.0552 13.854 6.6859 C 14.031 6.6105 14.197 6.5542 14.351 6.517 C 14.445 6.4899 14.492 6.4547 14.492 6.4125 C 14.492 6.3693 14.445 6.3341 14.351 6.308 C 13.22 6.0236 12.378 5.3563 11.825 4.306 C 11.793 4.2417 11.732 4.2096 11.643 4.2096 C 11.533 4.2096 11.478 4.2307 11.478 4.2739 C 11.478 4.295 11.492 4.3382 11.519 4.4025 C 11.712 4.7719 11.95 5.1015 12.231 5.3914 L 12.314 5.4718 L 1.9709 5.4718 C 1.894 5.509 1.8553 5.5623 1.8553 5.6326 C 1.8553 5.7125 1.8995 5.7663 1.9875 5.7934 L 12.679 5.7934 L 12.762 5.8578 C 12.983 6.0181 13.305 6.203 13.73 6.4125 C 13.708 6.4281 13.681 6.4417 13.647 6.4527 C 13.344 6.5809 13.049 6.7522 12.762 6.9673 L 12.679 7.0316 L 7.2707 7.0316 L 7.2627 7.0396 L 1.9875 7.0316 C 1.8995 7.0577 1.8553 7.1115 1.8553 7.1924 C 1.8553 7.2617 1.894 7.315 1.9709 7.3532 L 12.314 7.3532 L 12.231 7.4336 C 11.95 7.7225 11.712 8.0522 11.519 8.4225 C 11.492 8.4758 11.478 8.513 11.478 8.5351 Z " fill-rule="evenodd"/>
</g>
<path transform="matrix(.11968054,0,0,-.11938669,0,155.79999)" d="M 112.5 742.51 L 562.5 742.51 L 562.5 1192.51 L 112.5 1192.51 Z " fill="#93c47d" fill-rule="evenodd"/>
<path transform="matrix(.11968054,0,0,-.11938669,0,155.79999)" stroke-width="15" stroke-linecap="round" stroke-linejoin="round" fill="none" stroke="#0000ff" d="M 112.5 742.51 L 562.5 742.51 L 562.5 1192.51 L 112.5 1192.51 Z "/>
<path transform="matrix(.11968054,0,0,-.11938669,0,155.79999)" d="M 112.5 112.51 L 562.5 112.51 L 562.5 562.51 L 112.5 562.51 Z " fill="#f1c232" fill-rule="evenodd"/>
<path transform="matrix(.11968054,0,0,-.11938669,0,155.79999)" stroke-width="15" stroke-linecap="round" stroke-linejoin="round" fill="none" stroke="#ff0000" d="M 112.5 112.51 L 562.5 112.51 L 562.5 562.51 L 112.5 562.51 Z "/>
<path transform="matrix(.11968054,0,0,-.11938669,0,155.79999)" d="M 1430 885.01 L 1722.62 885.01 L 1722.62 870.01 L 1430 870.01 C 1425.86 870.01 1422.5 873.37 1422.5 877.51 C 1422.5 881.65 1425.86 885.01 1430 885.01 Z M 1842.5 877.51 L 1692.5 922.51 L 1722.5 885.01 L 1722.5 870.01 L 1692.5 832.51 Z " fill="#00ff00" fill-opacity=".24706"/>
<path transform="matrix(.11968054,0,0,-.11938669,0,155.79999)" d="M 1430 792.15 L 1722.62 792.15 L 1722.62 777.15 L 1430 777.15 C 1425.86 777.15 1422.5 780.51 1422.5 784.65 C 1422.5 788.79 1425.86 792.15 1430 792.15 Z M 1842.5 784.65 L 1692.5 829.65 L 1722.5 792.15 L 1722.5 777.15 L 1692.5 739.65 Z " fill="#00ff00" fill-opacity=".24706"/>
<path transform="matrix(.11968054,0,0,-.11938669,0,155.79999)" d="M 1430 660.01 L 1722.62 660.01 L 1722.62 645.01 L 1430 645.01 C 1425.86 645.01 1422.5 648.37 1422.5 652.51 C 1422.5 656.65 1425.86 660.01 1430 660.01 Z M 1842.5 652.51 L 1692.5 697.51 L 1722.5 660.01 L 1722.5 645.01 L 1692.5 607.51 Z " fill="#00ff00" fill-opacity=".24706"/>
<path transform="matrix(.11968054,0,0,-.11938669,0,155.79999)" d="M 1430 527.87 L 1722.62 527.87 L 1722.62 512.87 L 1430 512.87 C 1425.86 512.87 1422.5 516.22 1422.5 520.37 C 1422.5 524.51 1425.86 527.87 1430 527.87 Z M 1842.5 520.37 L 1692.5 565.37 L 1722.5 527.87 L 1722.5 512.87 L 1692.5 475.37 Z " fill="#00ff00" fill-opacity=".24706"/>
<path transform="matrix(.11968054,0,0,-.11938669,0,155.79999)" d="M 1430 435.01 L 1722.62 435.01 L 1722.62 420.01 L 1430 420.01 C 1425.86 420.01 1422.5 423.37 1422.5 427.51 C 1422.5 431.65 1425.86 435.01 1430 435.01 Z M 1842.5 427.51 L 1692.5 472.51 L 1722.5 435.01 L 1722.5 420.01 L 1692.5 382.51 Z " fill="#00ff00" fill-opacity=".24706"/>
<path transform="matrix(.11968054,0,0,-.11938669,0,155.79999)" d="M 993.75 427.51 L 1443.75 427.51 L 1443.75 877.51 L 993.75 877.51 Z " fill="#93c47d" fill-rule="evenodd"/>
<path transform="matrix(.11968054,0,0,-.11938669,0,155.79999)" stroke-width="15" stroke-linecap="round" stroke-linejoin="round" fill="none" stroke="#0000ff" d="M 993.75 427.51 L 1443.75 427.51 L 1443.75 877.51 L 993.75 877.51 Z "/>
<path transform="matrix(.11968054,0,0,-.11938669,0,155.79999)" d="M 1806.25 427.51 L 2256.25 427.51 L 2256.25 877.51 L 1806.25 877.51 Z " fill="#f1c232" fill-rule="evenodd"/>
<path transform="matrix(.11968054,0,0,-.11938669,0,155.79999)" stroke-width="15" stroke-linecap="round" stroke-linejoin="round" fill="none" stroke="#ff0000" d="M 1806.25 427.51 L 2256.25 427.51 L 2256.25 877.51 L 1806.25 877.51 Z "/>
<path transform="matrix(.11968054,0,0,-.11938669,0,155.79999)" stroke-width="15" stroke-linecap="round" stroke-linejoin="round" fill="none" stroke="#00ff00" d="M 1443.75 427.51 L 1443.75 877.51 "/>
<path transform="matrix(.11968054,0,0,-.11938669,0,155.79999)" stroke-width="15" stroke-linecap="round" stroke-linejoin="round" fill="none" stroke="#00ff00" d="M 1806.25 427.51 L 1806.25 877.51 "/>
<path transform="matrix(.11968054,0,0,-.11938669,0,155.79999)" d="M 2700 427.51 L 3150 427.51 L 3150 877.51 L 2700 877.51 Z " fill="#93c47d" fill-rule="evenodd"/>
<path transform="matrix(.11968054,0,0,-.11938669,0,155.79999)" stroke-width="15" stroke-linecap="round" stroke-linejoin="round" fill="none" stroke="#0000ff" d="M 2700 427.51 L 3150 427.51 L 3150 877.51 L 2700 877.51 Z "/>
<clipPath id="cp4">
<path transform="matrix(2.3935955,0,0,-2.3877555,276.19276,92.05466)" d="M 0 0 L 16.349 0 L 16.349 12.606 L 0 12.606 Z " fill-rule="evenodd"/>
</clipPath>
<g clip-path="url(#cp4)">
<path transform="matrix(2.3935955,0,0,-2.3877555,276.19276,92.05466)" d="M 11.478 8.5351 C 11.478 8.5934 11.522 8.623 11.61 8.6235 C 11.71 8.623 11.782 8.5883 11.825 8.519 C 12.268 7.6663 12.944 7.0552 13.854 6.6859 C 14.031 6.6105 14.197 6.5542 14.351 6.517 C 14.445 6.4899 14.492 6.4547 14.492 6.4125 C 14.492 6.3693 14.445 6.3341 14.351 6.308 C 13.22 6.0236 12.378 5.3563 11.825 4.306 C 11.793 4.2417 11.732 4.2096 11.643 4.2096 C 11.533 4.2096 11.478 4.2307 11.478 4.2739 C 11.478 4.295 11.492 4.3382 11.519 4.4025 C 11.712 4.7719 11.95 5.1015 12.231 5.3914 L 12.314 5.4718 L 1.9709 5.4718 C 1.894 5.509 1.8553 5.5623 1.8553 5.6326 C 1.8553 5.7125 1.8995 5.7663 1.9875 5.7934 L 12.679 5.7934 L 12.762 5.8578 C 12.983 6.0181 13.305 6.203 13.73 6.4125 C 13.708 6.4281 13.681 6.4417 13.647 6.4527 C 13.344 6.5809 13.049 6.7522 12.762 6.9673 L 12.679 7.0316 L 7.2707 7.0316 L 7.2627 7.0396 L 1.9875 7.0316 C 1.8995 7.0577 1.8553 7.1115 1.8553 7.1924 C 1.8553 7.2617 1.894 7.315 1.9709 7.3532 L 12.314 7.3532 L 12.231 7.4336 C 11.95 7.7225 11.712 8.0522 11.519 8.4225 C 11.492 8.4758 11.478 8.513 11.478 8.5351 Z " fill-rule="evenodd"/>
</g>
<path transform="matrix(.11968054,0,0,-.11938669,0,155.79999)" d="M 3150.86 427.51 L 3600.86 427.51 L 3600.86 877.51 L 3150.86 877.51 Z " fill="#f1c232" fill-rule="evenodd"/>
<path transform="matrix(.11968054,0,0,-.11938669,0,155.79999)" stroke-width="15" stroke-linecap="round" stroke-linejoin="round" fill="none" stroke="#ff0000" d="M 3150.86 427.51 L 3600.86 427.51 L 3600.86 877.51 L 3150.86 877.51 Z "/>
<path transform="matrix(.11968054,0,0,-.11938669,0,155.79999)" stroke-width="15" stroke-linecap="round" stroke-linejoin="round" fill="none" stroke="#00ff00" d="M 3150 427.51 L 3150 877.51 "/>
<path transform="matrix(.11968054,0,0,-.11938669,0,155.79999)" stroke-width="15" stroke-linecap="round" stroke-linejoin="round" fill="none" stroke="#9900ff" d="M 2700 427.51 L 2700 877.51 "/>
<path transform="matrix(.11968054,0,0,-.11938669,0,155.79999)" stroke-width="15" stroke-linecap="round" stroke-linejoin="round" fill="none" stroke="#9900ff" d="M 3600.86 427.51 L 3600.86 877.51 "/>
<path transform="matrix(.11968054,0,0,-.11938669,0,155.79999)" stroke-width="15" stroke-linecap="round" stroke-linejoin="round" fill="none" stroke="#9900ff" d="M 2700 877.51 L 3600.86 877.51 "/>
<path transform="matrix(.11968054,0,0,-.11938669,0,155.79999)" stroke-width="15" stroke-linecap="round" stroke-linejoin="round" fill="none" stroke="#9900ff" d="M 3600.86 427.51 L 2700 427.51 "/>
</g>
</g>
</g>
</g>
</g>
</svg>
