<?xml version="1.0" encoding="UTF-8" standalone="no"?>
<!DOCTYPE svg PUBLIC "-//W3C//DTD SVG 1.1//EN" "http://www.w3.org/Graphics/SVG/1.1/DTD/svg11.dtd">
<svg xmlns="http://www.w3.org/2000/svg" xmlns:xlink="http://www.w3.org/1999/xlink" version="1.1" width="429pt" height="144pt" viewBox="0 0 429 144">
<g enable-background="new">
<g>
<g id="Layer-1" data-name="P">
<clipPath id="cp0">
<path transform="matrix(1,0,0,-1,0,144)" d="M .000006393 0 L 429 0 L 429 144 L .000006393 144 Z " fill-rule="evenodd"/>
</clipPath>
<g clip-path="url(#cp0)">
<text xml:space="preserve" transform="matrix(1 0 -0 1 0 144)" font-size="11.04" font-family="Calibri"><tspan y="0" x="428.64"> </tspan></text>
</g>
</g>
<g id="Layer-1" data-name="P">
<clipPath id="cp1">
<path transform="matrix(1,0,0,-1,0,144)" d="M .000006393 .15105 L 428.55 .15105 L 428.55 144.00106 L .000006393 144.00106 Z " fill-rule="evenodd"/>
</clipPath>
<g clip-path="url(#cp1)">
<clipPath id="cp2">
<path transform="matrix(.06649091,0,0,-.06636624,0,143.84896)" d="M 0 0 L 6445.12 0 L 6445.12 2167.51 L 0 2167.51 Z " fill-rule="evenodd"/>
</clipPath>
<g clip-path="url(#cp2)">
<path transform="matrix(.06649091,0,0,-.06636624,0,143.84896)" stroke-width="15" stroke-linecap="round" stroke-linejoin="round" fill="none" stroke="#ff0000" d="M 1020.9 1605.01 C 1020.9 1356.48 819.43 1155.01 570.9 1155.01 C 322.37 1155.01 120.9 1356.48 120.9 1605.01 C 120.9 1853.54 322.37 2055.01 570.9 2055.01 C 819.43 2055.01 1020.9 1853.54 1020.9 1605.01 Z "/>
<path transform="matrix(.06649091,0,0,-.06636624,0,143.84896)" stroke-width="15" stroke-linecap="round" stroke-linejoin="round" fill="none" stroke="#0000ff" d="M 1020.9 562.51 C 1020.9 313.98 819.43 112.51 570.9 112.51 C 322.37 112.51 120.9 313.98 120.9 562.51 C 120.9 811.04 322.37 1012.51 570.9 1012.51 C 819.43 1012.51 1020.9 811.04 1020.9 562.51 Z "/>
<path transform="matrix(.06649091,0,0,-.06636624,0,143.84896)" d="M 156.9 1605.01 C 156.9 1585.13 140.78 1569.01 120.9 1569.01 C 101.02 1569.01 84.9 1585.13 84.9 1605.01 C 84.9 1624.89 101.02 1641.01 120.9 1641.01 C 140.78 1641.01 156.9 1624.89 156.9 1605.01 Z " fill-rule="evenodd"/>
<path transform="matrix(.06649091,0,0,-.06636624,0,143.84896)" d="M 144.9 1605.01 C 144.9 1591.76 134.15 1581.01 120.9 1581.01 C 107.64 1581.01 96.899 1591.76 96.899 1605.01 C 96.899 1618.27 107.64 1629.01 120.9 1629.01 C 134.15 1629.01 144.9 1618.27 144.9 1605.01 Z " fill="#ffffff" fill-rule="evenodd"/>
<path transform="matrix(.06649091,0,0,-.06636624,0,143.84896)" d="M 156.9 562.51 C 156.9 542.63 140.78 526.51 120.9 526.51 C 101.02 526.51 84.9 542.63 84.9 562.51 C 84.9 582.39 101.02 598.51 120.9 598.51 C 140.78 598.51 156.9 582.39 156.9 562.51 Z " fill-rule="evenodd"/>
<path transform="matrix(.06649091,0,0,-.06636624,0,143.84896)" d="M 144.9 562.51 C 144.9 549.26 134.15 538.51 120.9 538.51 C 107.64 538.51 96.899 549.26 96.899 562.51 C 96.899 575.77 107.64 586.51 120.9 586.51 C 134.15 586.51 144.9 575.77 144.9 562.51 Z " fill="#ffffff" fill-rule="evenodd"/>
<clipPath id="cp3">
<path transform="matrix(1.3298134,0,0,-1.3273304,80.51385,87.85974)" d="M 0 0 L 20.75 0 L 20.75 23.637 L 0 23.637 Z " fill-rule="evenodd"/>
</clipPath>
<g clip-path="url(#cp3)">
<path transform="matrix(1.3298134,0,0,-1.3273304,80.51385,87.85974)" d="M 11.614 15.853 C 11.614 15.962 11.697 16.017 11.863 16.018 C 12.05 16.017 12.184 15.952 12.266 15.822 C 13.096 14.223 14.364 13.078 16.071 12.385 C 16.403 12.244 16.713 12.138 17.003 12.069 C 17.179 12.018 17.267 11.952 17.267 11.873 C 17.267 11.792 17.179 11.726 17.003 11.677 C 14.881 11.143 13.302 9.8922 12.266 7.9231 C 12.204 7.8025 12.091 7.7422 11.925 7.7422 C 11.718 7.7422 11.614 7.7817 11.614 7.8628 C 11.614 7.9023 11.641 7.9834 11.692 8.104 C 12.054 8.7965 12.5 9.4146 13.028 9.9582 L 13.183 10.109 L 3.6954 10.109 C 3.5512 10.179 3.4787 10.279 3.4787 10.41 C 3.4787 10.56 3.5616 10.661 3.7265 10.712 L 13.866 10.712 L 14.021 10.833 C 14.435 11.133 15.041 11.48 15.838 11.873 C 15.797 11.902 15.745 11.927 15.683 11.948 C 15.114 12.188 14.56 12.51 14.021 12.913 L 13.866 13.033 L 3.7265 13.033 C 3.5616 13.082 3.4787 13.183 3.4787 13.335 C 3.4787 13.465 3.5512 13.565 3.6954 13.636 L 13.183 13.636 L 13.028 13.787 C 12.5 14.329 12.054 14.947 11.692 15.641 C 11.641 15.741 11.614 15.811 11.614 15.853 Z " fill-rule="evenodd"/>
</g>
<path transform="matrix(.06649091,0,0,-.06636624,0,143.84896)" d="M 1860.9 1421.26 L 2558.4 1421.26 L 2558.4 1406.26 L 1860.9 1406.26 Z M 1823.4 1368.63 L 1805.51 1371.99 L 1791.8 1381.13 L 1781.64 1395.81 L 1778.27 1413.76 L 1781.66 1431.86 L 1791.79 1445.37 L 1805.3 1455.5 L 1823.4 1458.89 L 1841.35 1455.53 L 1856.03 1445.36 L 1865.18 1431.65 L 1868.53 1413.76 L 1865.2 1396.02 L 1856.04 1381.12 L 1841.15 1371.96 Z M 1837.02 1386.45 L 1834.47 1385.46 L 1846.66 1392.96 L 1844.2 1390.51 L 1851.7 1402.69 L 1850.72 1400.15 L 1853.53 1415.15 L 1853.53 1412.38 L 1850.72 1427.38 L 1851.85 1424.6 L 1844.35 1435.85 L 1846.32 1433.85 L 1834.13 1442.28 L 1837.02 1441.08 L 1822.02 1443.89 L 1824.78 1443.89 L 1809.78 1441.08 L 1812.9 1442.45 L 1801.65 1434.01 L 1803.15 1435.51 L 1794.71 1424.26 L 1796.08 1427.38 L 1793.27 1412.38 L 1793.27 1415.15 L 1796.08 1400.15 L 1794.88 1403.03 L 1803.32 1390.84 L 1801.31 1392.82 L 1812.56 1385.32 L 1809.78 1386.45 L 1824.78 1383.63 L 1822.02 1383.63 Z M 2595.9 1458.89 L 2613.85 1455.53 L 2628.53 1445.36 L 2637.68 1431.65 L 2641.03 1413.76 L 2637.7 1396.02 L 2628.54 1381.12 L 2613.65 1371.96 L 2595.9 1368.63 L 2578.01 1371.99 L 2564.3 1381.13 L 2554.14 1395.81 L 2550.77 1413.76 L 2554.16 1431.86 L 2564.29 1445.37 L 2577.8 1455.5 Z M 2582.28 1441.08 L 2585.4 1442.45 L 2574.15 1434.01 L 2575.65 1435.51 L 2567.21 1424.26 L 2568.58 1427.38 L 2565.77 1412.38 L 2565.77 1415.15 L 2568.58 1400.15 L 2567.38 1403.03 L 2575.82 1390.84 L 2573.81 1392.82 L 2585.06 1385.32 L 2582.28 1386.45 L 2597.28 1383.63 L 2594.52 1383.63 L 2609.52 1386.45 L 2606.97 1385.46 L 2619.16 1392.96 L 2616.7 1390.51 L 2624.2 1402.69 L 2623.22 1400.15 L 2626.03 1415.15 L 2626.03 1412.38 L 2623.22 1427.38 L 2624.35 1424.6 L 2616.85 1435.85 L 2618.82 1433.85 L 2606.63 1442.28 L 2609.52 1441.08 L 2594.52 1443.89 L 2597.28 1443.89 Z " fill="#ff0000"/>
<path transform="matrix(.06649091,0,0,-.06636624,0,143.84896)" d="M 1860.9 723.76 L 2558.4 723.76 L 2558.4 708.76 L 1860.9 708.76 Z M 1823.4 671.13 L 1805.51 674.49 L 1791.8 683.63 L 1781.64 698.31 L 1778.27 716.26 L 1781.66 734.36 L 1791.79 747.87 L 1805.3 758 L 1823.4 761.39 L 1841.35 758.03 L 1856.03 747.86 L 1865.18 734.15 L 1868.53 716.26 L 1865.2 698.51 L 1856.04 683.62 L 1841.15 674.46 Z M 1837.02 688.95 L 1834.47 687.96 L 1846.66 695.46 L 1844.2 693.01 L 1851.7 705.19 L 1850.72 702.64 L 1853.53 717.64 L 1853.53 714.88 L 1850.72 729.88 L 1851.85 727.1 L 1844.35 738.35 L 1846.32 736.35 L 1834.13 744.78 L 1837.02 743.58 L 1822.02 746.39 L 1824.78 746.39 L 1809.78 743.58 L 1812.9 744.95 L 1801.65 736.51 L 1803.15 738.01 L 1794.71 726.76 L 1796.08 729.88 L 1793.27 714.88 L 1793.27 717.64 L 1796.08 702.64 L 1794.88 705.53 L 1803.32 693.34 L 1801.31 695.31 L 1812.56 687.81 L 1809.78 688.95 L 1824.78 686.13 L 1822.02 686.13 Z M 2595.9 761.39 L 2613.85 758.03 L 2628.53 747.86 L 2637.68 734.15 L 2641.03 716.26 L 2637.7 698.51 L 2628.54 683.62 L 2613.65 674.46 L 2595.9 671.13 L 2578.01 674.49 L 2564.3 683.63 L 2554.14 698.31 L 2550.77 716.26 L 2554.16 734.36 L 2564.29 747.87 L 2577.8 758 Z M 2582.28 743.58 L 2585.4 744.95 L 2574.15 736.51 L 2575.65 738.01 L 2567.21 726.76 L 2568.58 729.88 L 2565.77 714.88 L 2565.77 717.64 L 2568.58 702.64 L 2567.38 705.53 L 2575.82 693.34 L 2573.81 695.31 L 2585.06 687.81 L 2582.28 688.95 L 2597.28 686.13 L 2594.52 686.13 L 2609.52 688.95 L 2606.97 687.96 L 2619.16 695.46 L 2616.7 693.01 L 2624.2 705.19 L 2623.22 702.64 L 2626.03 717.64 L 2626.03 714.88 L 2623.22 729.88 L 2624.35 727.1 L 2616.85 738.35 L 2618.82 736.35 L 2606.63 744.78 L 2609.52 743.58 L 2594.52 746.39 L 2597.28 746.39 Z " fill="#0000ff"/>
<path transform="matrix(.06649091,0,0,-.06636624,0,143.84896)" stroke-width="7.5" stroke-linecap="round" stroke-dasharray="30,15" stroke-linejoin="round" fill="none" stroke="#000000" d="M 2595.9 716.26 L 2595.9 1413.76 "/>
<clipPath id="cp4">
<path transform="matrix(1.3297768,0,0,-1.3273369,110.001239,134.79328)" d="M 0 0 L 60.402 0 L 60.402 12.606 L 0 12.606 Z " fill-rule="evenodd"/>
</clipPath>
<g clip-path="url(#cp4)">
<path transform="matrix(1.3297768,0,0,-1.3273369,110.001239,134.79328)" d="M 4.9609 7.4841 L 3.3955 7.4151 L 3.3955 7.9678 L 4.9609 8.0023 L 4.9609 8.5551 L 2.9702 8.5551 L 2.9702 5.6532 C 2.9702 4.7765 2.6614 3.8891 2.0439 2.9931 L 1.3681 3.5113 C 1.9618 4.2454 2.2576 5.0875 2.2576 6.0332 L 2.2576 9.1078 L 4.9609 9.1078 L 4.9609 10.801 L 5.6389 10.801 C 5.8289 10.775 5.8397 10.706 5.6735 10.593 L 5.6735 10.11 L 8.1284 10.11 L 8.1284 9.557 L 5.6735 9.557 L 5.6735 9.1078 L 9.303 9.1078 C 9.2555 8.622 9.1605 8.1729 9.018 7.7605 L 8.3077 7.8987 C 8.4027 8.1967 8.461 8.4148 8.4847 8.5551 L 5.6735 8.5551 L 5.6735 8.0714 L 7.8434 8.1405 L 7.8434 7.5878 L 5.6735 7.5532 L 5.6735 7.3114 C 5.6735 7.1473 5.7577 7.0674 5.9218 7.0696 L 7.7009 7.0696 C 7.8909 7.0674 7.9989 7.1128 8.0226 7.2078 L 8.1284 7.5187 L 8.8043 7.3805 L 8.6618 6.9314 C 8.5668 6.6529 8.3552 6.5147 8.0226 6.5168 L 5.6022 6.5168 C 5.1747 6.5147 4.9609 6.7112 4.9609 7.1041 Z M 8.733 5.7914 C 8.8064 5.7201 8.7827 5.651 8.6618 5.5841 C 8.5452 5.0983 8.3552 4.5693 8.0939 3.9949 L 7.3814 4.2713 C 7.6189 4.8672 7.7981 5.4545 7.9147 6.0332 Z M 6.1355 3.7185 L 6.1355 6.1714 L 6.8113 6.1714 C 7.0014 6.1455 7.0143 6.0764 6.8481 5.9641 L 6.8481 3.7185 L 9.3743 3.7185 L 9.3743 3.0621 L 2.791 3.0621 L 2.791 3.7185 L 4.8897 3.7185 L 4.8897 6.1714 L 5.5677 6.1714 C 5.7577 6.1455 5.7685 6.0764 5.6022 5.9641 L 5.6022 3.7185 Z M 3.7885 4.1331 C 3.6222 4.7074 3.443 5.2127 3.253 5.6532 L 3.9655 5.9641 C 4.2506 5.4329 4.4535 4.9255 4.5701 4.444 Z " fill-rule="evenodd"/>
<path transform="matrix(1.3297768,0,0,-1.3273369,110.001239,134.79328)" d="M 14.752 8.2787 C 14.752 7.9548 14.775 7.5273 14.821 7.0005 L 16.494 7.1732 L 16.956 7.6914 L 17.669 7.1041 L 14.858 6.8278 C 14.929 6.1109 15.048 5.5474 15.214 5.135 C 15.736 5.5927 16.151 6.0764 16.46 6.5859 L 17.099 5.9641 L 16.779 5.9295 C 16.33 5.5128 15.879 5.0983 15.428 4.6859 C 15.855 4.1072 16.352 3.7056 16.922 3.4767 L 17.42 5.135 L 17.561 5.1004 C 17.513 4.5693 17.485 4.1309 17.472 3.7855 C 17.462 3.44 17.515 3.1658 17.632 2.9585 C 17.658 2.911 17.669 2.8765 17.669 2.8549 C 17.669 2.762 17.546 2.734 17.295 2.7685 C 17.047 2.803 16.714 2.9412 16.3 3.1831 C 15.885 3.4249 15.462 3.8092 15.035 4.3404 C 14.609 4.0618 14.177 3.8308 13.737 3.6473 C 13.299 3.4638 12.748 3.2802 12.083 3.0967 L 12.046 3.2349 C 13.068 3.6019 13.981 4.1072 14.786 4.7549 C 14.575 5.3746 14.432 6.0418 14.359 6.7587 L 12.901 6.5859 L 12.616 6.4477 L 12.223 6.7241 L 14.324 6.9314 C 14.3 7.251 14.277 7.6893 14.253 8.2442 L 13.221 8.1751 L 13.007 8.0369 L 12.688 8.3133 L 14.253 8.4169 C 14.229 9.2201 14.205 10.028 14.182 10.835 L 15 10.455 L 14.715 10.213 C 14.715 9.7275 14.728 9.1402 14.752 8.4515 L 16.28 8.5896 L 16.743 9.1078 L 17.455 8.486 Z M 15.285 10.248 L 15.32 10.352 C 16.056 10.166 16.46 10.008 16.531 9.883 C 16.602 9.7556 16.637 9.6476 16.637 9.557 C 16.637 9.4404 16.613 9.3238 16.565 9.2093 C 16.518 9.0927 16.47 9.0366 16.423 9.0388 C 16.375 9.0366 16.304 9.1294 16.209 9.3151 C 16.045 9.5656 15.736 9.8765 15.285 10.248 Z M 11.37 10.697 L 12.083 10.248 C 11.893 10.177 11.692 9.9456 11.476 9.557 C 11.265 9.1402 10.874 8.5529 10.304 7.7951 L 11.761 7.9333 C 12.046 8.391 12.273 8.8531 12.437 9.3151 L 13.078 8.866 C 12.914 8.771 12.629 8.4385 12.223 7.8642 C 11.822 7.2855 11.299 6.5946 10.658 5.7914 C 10.99 5.8345 11.727 5.9619 12.865 6.1714 L 12.865 6.0332 C 12.226 5.8691 11.727 5.7244 11.37 5.5992 C 11.016 5.4718 10.66 5.2947 10.304 5.0659 L 9.8763 5.7914 C 10.138 5.8583 10.44 6.1044 10.783 6.5319 C 11.129 6.9573 11.431 7.3783 11.69 7.7951 C 11.431 7.7476 11.157 7.6828 10.872 7.6029 C 10.587 7.5209 10.328 7.3783 10.09 7.1732 L 9.6971 7.8296 C 9.9605 7.8728 10.263 8.201 10.606 8.812 C 10.952 9.4209 11.206 10.049 11.37 10.697 Z M 9.6626 4.0986 C 10.328 4.1892 10.861 4.2691 11.265 4.3382 C 11.668 4.4073 12.321 4.5347 13.221 4.7204 L 13.255 4.5822 C 12.189 4.2799 11.414 4.0446 10.926 3.8718 C 10.44 3.6991 10.138 3.5566 10.019 3.4422 Z " fill-rule="evenodd"/>
<path transform="matrix(1.3297768,0,0,-1.3273369,110.001239,134.79328)" d="M 21.159 6.8623 C 21.634 6.5838 22.003 6.3074 22.262 6.0332 C 22.524 6.6075 22.677 7.1711 22.725 7.726 L 21.302 7.726 C 21.278 7.4474 21.23 7.1603 21.159 6.8623 Z M 19.345 7.726 L 19.345 5.3077 C 20.01 5.8129 20.425 6.6183 20.589 7.726 Z M 21.336 8.3824 L 22.761 8.3824 L 22.761 9.5915 L 21.336 9.5915 Z M 24.683 7.726 L 23.437 7.726 L 23.366 7.1041 C 23.841 6.5039 24.242 5.9382 24.575 5.4113 L 24.076 4.6859 C 23.817 5.2818 23.495 5.8 23.115 6.2405 C 22.832 5.6402 22.442 5.0292 21.943 4.4095 L 21.407 5.0659 C 21.55 5.2256 21.682 5.3638 21.8 5.4804 C 21.539 5.7546 21.254 5.9965 20.945 6.2059 C 20.565 5.4675 20.127 4.8802 19.628 4.444 L 19.345 4.8931 L 19.345 3.0276 L 18.633 3.0276 L 18.633 8.3824 L 20.626 8.3824 L 20.626 9.5915 L 18.063 9.5915 L 18.063 10.248 L 25.963 10.248 L 25.963 9.5915 L 23.472 9.5915 L 23.472 8.3824 L 25.393 8.3824 L 25.393 3.6494 C 25.393 3.2565 25.203 3.0621 24.823 3.0621 L 23.793 3.0621 L 23.685 3.7876 L 24.432 3.7876 C 24.601 3.7855 24.683 3.8654 24.683 4.0295 Z " fill-rule="evenodd"/>
<path transform="matrix(1.3297768,0,0,-1.3273369,110.001239,134.79328)" d="M 29.277 4.5477 C 28.352 4.2691 27.426 4.0273 26.5 3.8222 C 26.478 3.6581 26.418 3.6235 26.323 3.7185 L 26.18 4.5477 L 27.746 4.824 L 28.208 8.2096 L 28.955 8.1405 C 29.076 8.0693 29.052 8.0002 28.884 7.9333 L 28.422 4.9622 L 29.277 5.1695 Z M 26.785 5.3768 C 26.69 6.2491 26.537 7.0329 26.323 7.726 L 26.927 7.8987 C 27.189 7.2294 27.355 6.4564 27.426 5.5841 Z M 33.118 2.8203 L 32.941 3.4767 L 33.226 3.4767 C 33.321 3.4767 33.368 3.5221 33.368 3.6149 L 33.368 6.0332 L 32.692 6.0332 L 32.692 3.0621 L 32.088 3.0621 L 32.088 6.0332 L 31.481 6.0332 L 31.481 3.0621 L 30.877 3.0621 L 30.877 6.0332 L 30.272 6.0332 L 30.272 2.8549 L 29.667 2.8549 L 29.667 6.5859 L 31.127 6.5859 L 31.41 7.346 L 29.348 7.346 L 29.348 7.8987 L 34.292 7.8987 L 34.292 7.346 L 32.122 7.346 L 31.837 6.5859 L 33.973 6.5859 L 33.973 3.304 C 33.973 2.9801 33.807 2.8203 33.474 2.8203 Z M 29.134 8.4169 L 26.252 8.4169 L 26.252 9.0733 L 27.389 9.0733 L 27.389 10.524 L 28.065 10.524 C 28.255 10.498 28.268 10.429 28.102 10.317 L 28.102 9.0733 L 29.134 9.0733 Z M 32.051 10.732 C 32.241 10.706 32.254 10.637 32.088 10.524 L 32.088 9.0733 L 33.189 9.0733 L 33.189 10.352 L 33.759 10.352 C 33.949 10.326 33.962 10.257 33.796 10.144 L 33.796 8.5206 L 29.81 8.5206 L 29.81 10.352 L 30.378 10.352 C 30.568 10.326 30.581 10.257 30.414 10.144 L 30.414 9.0733 L 31.481 9.0733 L 31.481 10.732 L 32.051 10.732 Z " fill-rule="evenodd"/>
<path transform="matrix(1.3297768,0,0,-1.3273369,110.001239,134.79328)" d="M 37.642 4.7204 L 36.716 5.6186 L 36.716 2.8203 L 36.004 2.8203 L 36.004 5.6186 C 35.744 4.9709 35.293 4.3965 34.652 3.8913 L 34.261 4.6168 C 34.902 5.0292 35.472 5.8129 35.969 6.9659 L 34.546 6.9659 L 34.546 7.6223 L 36.004 7.6223 L 36.004 10.697 L 36.682 10.697 C 36.872 10.671 36.882 10.602 36.716 10.49 L 36.716 7.6223 L 38.104 7.6223 L 38.104 6.9659 L 36.716 6.9659 L 36.716 6.3096 C 37.144 6.1001 37.584 5.8237 38.033 5.4804 Z M 36.964 8.2096 C 37.202 8.8056 37.405 9.4404 37.571 10.11 L 38.318 9.8679 C 38.413 9.7966 38.389 9.7383 38.247 9.6951 C 38.033 9.0474 37.809 8.4601 37.571 7.9333 Z M 40.203 8.2787 L 40.203 6.6205 L 42.125 6.6205 L 42.125 2.924 L 41.412 2.924 L 41.412 3.2003 L 38.923 3.2003 L 38.923 2.8203 L 38.21 2.8203 L 38.21 6.6205 L 39.491 6.6205 L 39.491 10.628 L 40.169 10.628 C 40.359 10.602 40.369 10.533 40.203 10.421 L 40.203 8.9351 L 42.373 8.9351 L 42.373 8.2787 Z M 38.923 3.8567 L 41.412 3.8567 L 41.412 5.9641 L 38.923 5.9641 Z M 35.185 10.006 C 35.401 9.544 35.567 8.9675 35.684 8.2787 L 34.974 8.0714 C 34.879 8.7149 34.736 9.2892 34.546 9.7988 Z " fill-rule="evenodd"/>
<path transform="matrix(1.3297768,0,0,-1.3273369,110.001239,134.79328)" d="M 50.525 3.0621 L 46.684 3.0621 C 45.427 3.0621 44.419 3.5674 43.659 4.5822 C 43.54 3.8654 43.339 3.2802 43.054 2.8203 L 42.376 3.2694 C 42.899 4.1201 43.136 5.2472 43.089 6.655 L 43.873 6.5514 C 43.944 6.4801 43.92 6.411 43.801 6.3441 C 43.801 6.0656 43.791 5.7784 43.765 5.4804 C 43.86 5.2256 44.086 4.9255 44.441 4.5822 L 44.441 7.1732 L 42.627 7.1732 L 42.627 7.8296 L 44.441 7.8296 L 44.441 8.9697 L 42.983 8.9697 L 42.983 9.6261 L 44.441 9.6261 L 44.441 10.732 L 45.116 10.732 C 45.306 10.706 45.319 10.637 45.153 10.524 L 45.153 9.6261 L 46.541 9.6261 L 46.541 8.9697 L 45.153 8.9697 L 45.153 7.8296 L 46.79 7.8296 L 46.79 7.1732 L 45.153 7.1732 L 45.153 6.0332 L 46.433 6.0332 L 46.433 5.3768 L 45.153 5.3768 L 45.153 4.0986 C 45.628 3.8438 46.198 3.7164 46.861 3.7185 L 50.776 3.7185 Z M 50.206 10.179 L 50.206 6.9314 L 49.493 6.9314 L 49.493 7.2769 L 47.785 7.2769 L 47.785 5.2386 C 47.785 5.0529 47.869 4.9601 48.036 4.9622 L 49.53 4.9622 C 49.696 4.9601 49.791 5.0292 49.815 5.1695 L 49.921 5.8259 L 50.668 5.6877 L 50.562 5.0313 C 50.491 4.5455 50.206 4.3037 49.707 4.3058 L 47.714 4.3058 C 47.289 4.3037 47.075 4.5002 47.075 4.8931 L 47.075 7.9333 L 49.493 7.9333 L 49.493 9.5224 L 46.896 9.5224 L 46.896 10.179 Z " fill-rule="evenodd"/>
<path transform="matrix(1.3297768,0,0,-1.3273369,110.001239,134.79328)" d="M 52.841 8.7969 C 53.221 8.4255 53.493 8.0455 53.659 7.6569 L 53.018 7.2423 C 52.828 7.6547 52.569 8.0239 52.236 8.3478 Z M 50.954 3.9604 C 52.45 4.511 53.588 5.3401 54.37 6.4477 L 51.062 6.4477 L 51.062 7.1041 L 54.549 7.1041 L 54.549 8.9351 L 51.524 8.9351 L 51.524 9.5915 L 54.549 9.5915 L 54.549 10.766 L 55.225 10.766 C 55.415 10.74 55.428 10.671 55.259 10.559 L 55.259 9.5915 L 58.25 9.5915 L 58.25 8.9351 L 55.259 8.9351 L 55.259 7.1041 L 55.829 7.1041 L 56.542 8.7624 L 57.289 8.4169 C 57.384 8.3219 57.349 8.2658 57.181 8.2442 L 56.542 7.1041 L 58.712 7.1041 L 58.712 6.4477 L 55.438 6.4477 C 56.198 5.3854 57.323 4.6146 58.817 4.1331 L 58.392 3.4076 C 57.112 3.8891 56.067 4.6254 55.259 5.6186 L 55.259 2.8894 L 54.549 2.8894 L 54.549 5.5841 C 53.815 4.5908 52.746 3.8092 51.347 3.2349 L 50.954 3.9604 Z " fill-rule="evenodd"/>
</g>
<clipPath id="cp5">
<path transform="matrix(1.3298134,0,0,-1.3273304,184.23966,88.35748)" d="M 0 0 L 20.75 0 L 20.75 23.637 L 0 23.637 Z " fill-rule="evenodd"/>
</clipPath>
<g clip-path="url(#cp5)">
<path transform="matrix(1.3298134,0,0,-1.3273304,184.23966,88.35748)" d="M 11.614 15.853 C 11.614 15.962 11.697 16.017 11.863 16.018 C 12.05 16.017 12.184 15.952 12.266 15.822 C 13.096 14.223 14.364 13.078 16.071 12.385 C 16.403 12.244 16.713 12.138 17.003 12.069 C 17.179 12.018 17.267 11.952 17.267 11.873 C 17.267 11.792 17.179 11.726 17.003 11.677 C 14.881 11.143 13.302 9.8922 12.266 7.9231 C 12.204 7.8025 12.091 7.7422 11.925 7.7422 C 11.718 7.7422 11.614 7.7817 11.614 7.8628 C 11.614 7.9023 11.641 7.9834 11.692 8.104 C 12.054 8.7965 12.5 9.4146 13.028 9.9582 L 13.183 10.109 L 3.6954 10.109 C 3.5512 10.179 3.4787 10.279 3.4787 10.41 C 3.4787 10.56 3.5616 10.661 3.7265 10.712 L 13.866 10.712 L 14.021 10.833 C 14.435 11.133 15.041 11.48 15.838 11.873 C 15.797 11.902 15.745 11.927 15.683 11.948 C 15.114 12.188 14.56 12.51 14.021 12.913 L 13.866 13.033 L 3.7265 13.033 C 3.5616 13.082 3.4787 13.183 3.4787 13.335 C 3.4787 13.465 3.5512 13.565 3.6954 13.636 L 13.183 13.636 L 13.028 13.787 C 12.5 14.329 12.054 14.947 11.692 15.641 C 11.641 15.741 11.614 15.811 11.614 15.853 Z " fill-rule="evenodd"/>
</g>
<clipPath id="cp6">
<path transform="matrix(1.3298237,0,0,-1.3273369,116.13835,50.045579)" d="M 0 0 L 6.9223 0 L 6.9223 12.606 L 0 12.606 Z " fill-rule="evenodd"/>
</clipPath>
<g clip-path="url(#cp6)">
<path transform="matrix(1.3298237,0,0,-1.3273369,116.13835,50.045579)" d="M 5.4216 4.0726 C 5.4216 4.0096 5.4008 3.9578 5.359 3.9176 C 5.3173 3.8768 5.2641 3.8567 5.1993 3.8567 L 4.6939 3.8567 C 4.6158 3.8567 4.5329 3.8651 4.4451 3.8822 C 4.3575 3.8992 4.2738 3.9296 4.1943 3.9743 C 4.1148 4.0187 4.0476 4.0768 3.9921 4.149 C 3.9369 4.2208 3.9092 4.3131 3.9092 4.426 L 3.9092 4.1904 C 3.9146 4.198 3.825 4.1364 3.6405 4.0057 C 3.456 3.8749 3.2396 3.8096 2.9913 3.8096 C 2.8215 3.8096 2.6505 3.8273 2.478 3.8626 C 2.3055 3.8979 2.1465 3.9551 2.0008 4.0351 C 1.8553 4.1148 1.7353 4.2177 1.6408 4.3433 C 1.5466 4.4689 1.4993 4.622 1.4993 4.8028 C 1.4993 5.046 1.5763 5.2545 1.7299 5.4288 C 1.8835 5.6027 2.0656 5.7342 2.2758 5.8235 C 2.5293 5.9332 2.7874 6.0078 3.0502 6.0471 C 3.313 6.0863 3.5561 6.1099 3.7799 6.118 L 3.7799 6.3889 C 3.7799 6.5064 3.7664 6.6175 3.7394 6.7223 C 3.7124 6.8268 3.6668 6.9213 3.602 7.0052 C 3.5456 7.0729 3.4801 7.124 3.406 7.1581 C 3.3319 7.1919 3.2543 7.2091 3.1734 7.2093 C 3.0818 7.2091 2.993 7.2052 2.9067 7.1973 C 2.8203 7.1895 2.7867 7.1882 2.8053 7.1936 C 2.7945 7.2039 2.8088 7.1711 2.8478 7.0953 C 2.887 7.0192 2.9064 6.9304 2.9064 6.8285 C 2.9064 6.6399 2.8446 6.4978 2.7204 6.4024 C 2.5965 6.3067 2.4603 6.2591 2.3121 6.2593 C 2.1693 6.2591 2.0359 6.3067 1.9117 6.4024 C 1.7878 6.4978 1.7257 6.6399 1.7257 6.8285 C 1.7257 7.001 1.7743 7.1409 1.8715 7.2484 C 1.9686 7.3556 2.0906 7.438 2.2373 7.4957 C 2.3843 7.5531 2.5401 7.5919 2.7045 7.6115 C 2.8689 7.6311 3.0252 7.6409 3.1734 7.6412 C 3.3836 7.6409 3.592 7.6186 3.7981 7.5742 C 4.0044 7.5295 4.1965 7.4419 4.3744 7.3114 C 4.5253 7.1985 4.6453 7.0624 4.7341 6.9029 C 4.8232 6.7432 4.8676 6.5719 4.8676 6.3889 L 4.8676 4.4888 C 4.8676 4.4728 4.8919 4.4498 4.9405 4.4198 C 4.989 4.3897 5.0752 4.3747 5.1993 4.3749 C 5.2614 4.3747 5.3139 4.3551 5.3571 4.3158 C 5.4003 4.2765 5.4216 4.2243 5.4216 4.159 L 5.4216 4.0726 Z M 3.7799 5.7215 C 3.6776 5.7107 3.5529 5.6871 3.406 5.6506 C 3.259 5.6138 3.1209 5.5615 2.9913 5.4938 C 2.8728 5.4177 2.7791 5.3193 2.7104 5.1991 C 2.6417 5.0786 2.6073 4.9466 2.6073 4.8028 C 2.6073 4.6456 2.6525 4.5133 2.7428 4.4061 C 2.833 4.2986 2.9376 4.2451 3.0561 4.2454 C 3.1559 4.2451 3.2497 4.2633 3.3373 4.3001 C 3.4249 4.3367 3.5017 4.3884 3.5677 4.4552 C 3.6339 4.5219 3.6857 4.5989 3.7235 4.6868 C 3.7613 4.7744 3.7799 4.8693 3.7799 4.9716 Z " fill-rule="evenodd"/>
</g>
<clipPath id="cp7">
<path transform="matrix(1.3298011,0,0,-1.3273369,167.23328,50.045579)" d="M 0 0 L 7.3265 0 L 7.3265 12.606 L 0 12.606 Z " fill-rule="evenodd"/>
</clipPath>
<g clip-path="url(#cp7)">
<path transform="matrix(1.3298011,0,0,-1.3273369,167.23328,50.045579)" d="M 5.8261 5.7136 C 5.8261 5.4621 5.7863 5.2153 5.7068 4.9734 C 5.6273 4.7312 5.4953 4.518 5.3106 4.3335 C 5.1261 4.149 4.9131 4.0155 4.6717 3.933 C 4.4305 3.8506 4.1831 3.8096 3.9297 3.8096 C 3.7143 3.8096 3.5194 3.8501 3.3455 3.9311 C 3.1718 4.012 3.0349 4.105 2.935 4.21 L 2.5591 3.8567 L 2.0699 3.8567 L 2.0699 8.8385 C 2.0699 8.8724 2.0659 8.8996 2.0578 8.9207 C 2.0497 8.9416 2.0389 8.9534 2.0252 8.9563 C 1.985 8.9745 1.9194 8.9855 1.8292 8.9894 C 1.7389 8.9934 1.6292 8.9953 1.4996 8.9956 L 1.4996 9.5099 L 3.1171 9.5805 L 3.1171 7.3624 C 3.1764 7.4093 3.2942 7.4635 3.4709 7.5251 C 3.6475 7.5865 3.834 7.6174 4.0308 7.6176 C 4.2707 7.6174 4.5075 7.5735 4.7406 7.4859 C 4.9737 7.398 5.1739 7.2653 5.341 7.0876 C 5.5191 6.8963 5.6445 6.6816 5.7171 6.4436 C 5.7898 6.2053 5.8261 5.9619 5.8261 5.7136 Z M 4.6292 5.7136 C 4.6292 5.9305 4.6226 6.1405 4.6091 6.3435 C 4.5958 6.5461 4.5581 6.7118 4.496 6.8403 C 4.4393 6.9473 4.3645 7.0317 4.2715 7.0933 C 4.1785 7.1546 4.0767 7.1855 3.9663 7.1858 C 3.8019 7.1855 3.648 7.1448 3.5052 7.0638 C 3.3624 6.9826 3.2478 6.8833 3.1615 6.7657 L 3.1615 4.6772 C 3.2424 4.5486 3.3438 4.4446 3.465 4.3649 C 3.5862 4.2849 3.7224 4.2451 3.8733 4.2454 C 3.9974 4.2451 4.1125 4.2758 4.219 4.3374 C 4.3255 4.3987 4.4099 4.4858 4.4717 4.5987 C 4.5446 4.7268 4.589 4.8902 4.6052 5.0892 C 4.6214 5.2879 4.6292 5.4962 4.6292 5.7136 Z " fill-rule="evenodd"/>
</g>
<clipPath id="cp8">
<path transform="matrix(1.3298329,0,0,-1.3273369,116.547267,114.38566)" d="M 0 0 L 6.3075 0 L 6.3075 12.606 L 0 12.606 Z " fill-rule="evenodd"/>
</clipPath>
<g clip-path="url(#cp8)">
<path transform="matrix(1.3298329,0,0,-1.3273369,116.547267,114.38566)" d="M 4.8045 4.8578 C 4.7805 4.6875 4.7253 4.5376 4.6389 4.4081 C 4.5525 4.2785 4.4441 4.1705 4.3133 4.0842 C 4.1828 3.9978 4.0351 3.9303 3.8707 3.8822 C 3.7063 3.8337 3.535 3.8096 3.3569 3.8096 C 3.1064 3.8096 2.8632 3.8526 2.6272 3.9389 C 2.3914 4.0253 2.1831 4.1588 2.0025 4.3396 C 1.8165 4.5305 1.686 4.7442 1.6104 4.9812 C 1.5348 5.218 1.4971 5.4621 1.4971 5.7136 C 1.4971 5.9619 1.5356 6.208 1.6124 6.4514 C 1.6892 6.6948 1.8192 6.912 2.0025 7.1033 C 2.1804 7.2888 2.388 7.425 2.6252 7.5114 C 2.8625 7.5978 3.1064 7.6409 3.3569 7.6412 C 3.4972 7.6409 3.6462 7.6292 3.8039 7.6056 C 3.9617 7.582 4.1067 7.5408 4.2387 7.4819 C 4.3707 7.4231 4.4826 7.3418 4.5741 7.2385 C 4.6659 7.135 4.7115 6.9983 4.7115 6.8285 C 4.7115 6.6399 4.6504 6.4978 4.5278 6.4024 C 4.4051 6.3067 4.2684 6.2591 4.1173 6.2593 C 3.9745 6.2591 3.841 6.3067 3.7168 6.4024 C 3.5929 6.4978 3.5309 6.6399 3.5309 6.8285 C 3.5309 6.9252 3.5485 7.0089 3.5836 7.0795 C 3.6187 7.1502 3.6295 7.1789 3.6158 7.1662 C 3.5755 7.1738 3.4891 7.1777 3.3569 7.1779 C 3.2519 7.1777 3.1564 7.1455 3.0701 7.0815 C 2.9837 7.0172 2.9135 6.9343 2.8595 6.8325 C 2.7815 6.6857 2.7356 6.5155 2.7221 6.3219 C 2.7089 6.128 2.702 5.9254 2.702 5.7136 C 2.702 5.5119 2.7123 5.3174 2.7325 5.1304 C 2.7526 4.9432 2.8085 4.7739 2.9 4.6223 C 2.9648 4.5148 3.0485 4.4309 3.1508 4.3708 C 3.2534 4.3104 3.3638 4.2805 3.4823 4.2807 C 3.6952 4.2805 3.8658 4.3379 3.9939 4.4532 C 4.1219 4.5683 4.2157 4.7214 4.2748 4.9128 C 4.3018 4.9989 4.3599 5.0421 4.4488 5.0423 L 4.659 5.0423 C 4.7508 5.0055 4.7991 4.9439 4.8045 4.8578 Z " fill-rule="evenodd"/>
</g>
<clipPath id="cp9">
<path transform="matrix(1.3298273,0,0,-1.3273369,167.22797,114.38566)" d="M 0 0 L 7.3346 0 L 7.3346 12.606 L 0 12.606 Z " fill-rule="evenodd"/>
</clipPath>
<g clip-path="url(#cp9)">
<path transform="matrix(1.3298273,0,0,-1.3273369,167.22797,114.38566)" d="M 4.1639 3.8057 L 4.1639 4.0609 C 4.1099 4.0162 4.0002 3.9632 3.8344 3.9019 C 3.6685 3.8403 3.4914 3.8096 3.3027 3.8096 C 3.0627 3.8096 2.8262 3.8526 2.5931 3.9389 C 2.36 4.0253 2.1583 4.1588 1.9885 4.3396 C 1.8106 4.5356 1.6845 4.7508 1.6104 4.9851 C 1.5363 5.2192 1.4993 5.4621 1.4993 5.7136 C 1.4993 5.9619 1.539 6.2073 1.6185 6.4495 C 1.698 6.6914 1.8303 6.9041 2.0148 7.0874 C 2.1995 7.2704 2.4113 7.4047 2.6498 7.4898 C 2.8883 7.5747 3.1356 7.6174 3.3915 7.6176 C 3.5696 7.6174 3.7375 7.5892 3.895 7.533 C 4.0527 7.4765 4.1585 7.4277 4.2125 7.386 L 4.2125 8.8385 C 4.2125 8.8724 4.2085 8.8991 4.2004 8.9188 C 4.1924 8.9384 4.1789 8.9509 4.1597 8.9563 C 4.1222 8.9745 4.0581 8.9855 3.9678 8.9894 C 3.8776 8.9934 3.7691 8.9953 3.6423 8.9956 L 3.6423 9.5099 L 5.2557 9.5805 L 5.2557 4.532 C 5.2557 4.4976 5.2599 4.4701 5.2678 4.4493 C 5.2759 4.4282 5.2894 4.4152 5.3083 4.4103 C 5.3433 4.3916 5.4066 4.3811 5.4984 4.3786 C 5.5902 4.3759 5.7018 4.3747 5.8338 4.3749 L 5.8338 3.8607 Z M 4.1639 6.7971 C 4.0832 6.912 3.9821 7.0054 3.8606 7.0776 C 3.7394 7.1495 3.6018 7.1855 3.4482 7.1858 C 3.3243 7.1855 3.2104 7.1541 3.1066 7.0913 C 3.0028 7.0285 2.9211 6.9434 2.8618 6.8364 C 2.7891 6.7078 2.7447 6.5429 2.7285 6.3415 C 2.7123 6.1398 2.7042 5.9305 2.7042 5.7136 C 2.7042 5.4935 2.7096 5.2835 2.7204 5.0833 C 2.7312 4.8831 2.7702 4.7175 2.8375 4.5869 C 2.8944 4.4846 2.9678 4.4022 3.058 4.3394 C 3.1483 4.2765 3.2487 4.2451 3.3591 4.2454 C 3.5345 4.2451 3.6923 4.2888 3.8324 4.3766 C 3.9728 4.4642 4.0832 4.5788 4.1639 4.7204 Z " fill-rule="evenodd"/>
</g>
<path transform="matrix(.06649091,0,0,-.06636624,0,143.84896)" d="M 3347.22 1095.76 L 4217.22 1095.76 L 4217.22 1080.76 L 3347.22 1080.76 Z M 3309.72 1043.13 L 3291.84 1046.49 L 3278.12 1055.63 L 3267.96 1070.31 L 3264.59 1088.26 L 3267.99 1106.36 L 3278.11 1119.87 L 3291.62 1130 L 3309.72 1133.39 L 3327.68 1130.03 L 3342.36 1119.86 L 3351.5 1106.15 L 3354.85 1088.26 L 3351.53 1070.51 L 3342.36 1055.62 L 3327.47 1046.46 Z M 3323.34 1060.95 L 3320.79 1059.96 L 3332.98 1067.46 L 3330.52 1065.01 L 3338.02 1077.19 L 3337.04 1074.64 L 3339.85 1089.64 L 3339.85 1086.88 L 3337.04 1101.88 L 3338.17 1099.1 L 3330.67 1110.35 L 3332.64 1108.35 L 3320.45 1116.78 L 3323.34 1115.58 L 3308.34 1118.39 L 3311.1 1118.39 L 3296.1 1115.58 L 3299.22 1116.95 L 3287.97 1108.51 L 3289.47 1110.01 L 3281.03 1098.76 L 3282.41 1101.88 L 3279.59 1086.88 L 3279.59 1089.64 L 3282.41 1074.64 L 3281.2 1077.53 L 3289.64 1065.34 L 3287.63 1067.32 L 3298.88 1059.82 L 3296.1 1060.95 L 3311.1 1058.13 L 3308.34 1058.13 Z M 4254.72 1133.39 L 4272.68 1130.03 L 4287.36 1119.86 L 4296.5 1106.15 L 4299.85 1088.26 L 4296.53 1070.51 L 4287.36 1055.62 L 4272.47 1046.46 L 4254.72 1043.13 L 4236.84 1046.49 L 4223.12 1055.63 L 4212.96 1070.31 L 4209.59 1088.26 L 4212.98 1106.36 L 4223.11 1119.87 L 4236.62 1130 Z M 4241.1 1115.58 L 4244.22 1116.95 L 4232.97 1108.51 L 4234.47 1110.01 L 4226.03 1098.76 L 4227.41 1101.88 L 4224.59 1086.88 L 4224.59 1089.64 L 4227.41 1074.64 L 4226.2 1077.53 L 4234.64 1065.34 L 4232.63 1067.32 L 4243.88 1059.82 L 4241.1 1060.95 L 4256.1 1058.13 L 4253.34 1058.13 L 4268.34 1060.95 L 4265.79 1059.96 L 4277.98 1067.46 L 4275.52 1065.01 L 4283.02 1077.19 L 4282.04 1074.64 L 4284.85 1089.64 L 4284.85 1086.88 L 4282.04 1101.88 L 4283.17 1099.1 L 4275.67 1110.35 L 4277.64 1108.35 L 4265.45 1116.78 L 4268.34 1115.58 L 4253.34 1118.39 L 4256.1 1118.39 Z " fill="#00ff00"/>
<clipPath id="cp10">
<path transform="matrix(1.3298237,0,0,-1.3273369,214.96512,68.95996)" d="M 0 0 L 6.9223 0 L 6.9223 12.606 L 0 12.606 Z " fill-rule="evenodd"/>
</clipPath>
<g clip-path="url(#cp10)">
<path transform="matrix(1.3298237,0,0,-1.3273369,214.96512,68.95996)" d="M 5.4216 4.0726 C 5.4216 4.0096 5.4008 3.9578 5.359 3.9176 C 5.3173 3.8768 5.2641 3.8567 5.1993 3.8567 L 4.6939 3.8567 C 4.6158 3.8567 4.5329 3.8651 4.4451 3.8822 C 4.3575 3.8992 4.2738 3.9296 4.1943 3.9743 C 4.1148 4.0187 4.0476 4.0768 3.9921 4.149 C 3.9369 4.2208 3.9092 4.3131 3.9092 4.426 L 3.9092 4.1904 C 3.9146 4.198 3.825 4.1364 3.6405 4.0057 C 3.456 3.8749 3.2396 3.8096 2.9913 3.8096 C 2.8215 3.8096 2.6505 3.8273 2.478 3.8626 C 2.3055 3.8979 2.1465 3.9551 2.0008 4.0351 C 1.8553 4.1148 1.7353 4.2177 1.6408 4.3433 C 1.5466 4.4689 1.4993 4.622 1.4993 4.8028 C 1.4993 5.046 1.5763 5.2545 1.7299 5.4288 C 1.8835 5.6027 2.0656 5.7342 2.2758 5.8235 C 2.5293 5.9332 2.7874 6.0078 3.0502 6.0471 C 3.313 6.0863 3.5561 6.1099 3.7799 6.118 L 3.7799 6.3889 C 3.7799 6.5064 3.7664 6.6175 3.7394 6.7223 C 3.7124 6.8268 3.6668 6.9213 3.602 7.0052 C 3.5456 7.0729 3.4801 7.124 3.406 7.1581 C 3.3319 7.1919 3.2543 7.2091 3.1734 7.2093 C 3.0818 7.2091 2.993 7.2052 2.9067 7.1973 C 2.8203 7.1895 2.7867 7.1882 2.8053 7.1936 C 2.7945 7.2039 2.8088 7.1711 2.8478 7.0953 C 2.887 7.0192 2.9064 6.9304 2.9064 6.8285 C 2.9064 6.6399 2.8446 6.4978 2.7204 6.4024 C 2.5965 6.3067 2.4603 6.2591 2.3121 6.2593 C 2.1693 6.2591 2.0359 6.3067 1.9117 6.4024 C 1.7878 6.4978 1.7257 6.6399 1.7257 6.8285 C 1.7257 7.001 1.7743 7.1409 1.8715 7.2484 C 1.9686 7.3556 2.0906 7.438 2.2373 7.4957 C 2.3843 7.5531 2.5401 7.5919 2.7045 7.6115 C 2.8689 7.6311 3.0252 7.6409 3.1734 7.6412 C 3.3836 7.6409 3.592 7.6186 3.7981 7.5742 C 4.0044 7.5295 4.1965 7.4419 4.3744 7.3114 C 4.5253 7.1985 4.6453 7.0624 4.7341 6.9029 C 4.8232 6.7432 4.8676 6.5719 4.8676 6.3889 L 4.8676 4.4888 C 4.8676 4.4728 4.8919 4.4498 4.9405 4.4198 C 4.989 4.3897 5.0752 4.3747 5.1993 4.3749 C 5.2614 4.3747 5.3139 4.3551 5.3571 4.3158 C 5.4003 4.2765 5.4216 4.2243 5.4216 4.159 L 5.4216 4.0726 Z M 3.7799 5.7215 C 3.6776 5.7107 3.5529 5.6871 3.406 5.6506 C 3.259 5.6138 3.1209 5.5615 2.9913 5.4938 C 2.8728 5.4177 2.7791 5.3193 2.7104 5.1991 C 2.6417 5.0786 2.6073 4.9466 2.6073 4.8028 C 2.6073 4.6456 2.6525 4.5133 2.7428 4.4061 C 2.833 4.2986 2.9376 4.2451 3.0561 4.2454 C 3.1559 4.2451 3.2497 4.2633 3.3373 4.3001 C 3.4249 4.3367 3.5017 4.3884 3.5677 4.4552 C 3.6339 4.5219 3.6857 4.5989 3.7235 4.6868 C 3.7613 4.7744 3.7799 4.8693 3.7799 4.9716 Z " fill-rule="evenodd"/>
</g>
<clipPath id="cp11">
<path transform="matrix(1.3298011,0,0,-1.3273369,246.11345,68.95996)" d="M 0 0 L 7.3265 0 L 7.3265 12.606 L 0 12.606 Z " fill-rule="evenodd"/>
</clipPath>
<g clip-path="url(#cp11)">
<path transform="matrix(1.3298011,0,0,-1.3273369,246.11345,68.95996)" d="M 5.8261 5.7136 C 5.8261 5.4621 5.7863 5.2153 5.7068 4.9734 C 5.6273 4.7312 5.4953 4.518 5.3106 4.3335 C 5.1261 4.149 4.9131 4.0155 4.6717 3.933 C 4.4305 3.8506 4.1831 3.8096 3.9297 3.8096 C 3.7143 3.8096 3.5194 3.8501 3.3455 3.9311 C 3.1718 4.012 3.0349 4.105 2.935 4.21 L 2.5591 3.8567 L 2.0699 3.8567 L 2.0699 8.8385 C 2.0699 8.8724 2.0659 8.8996 2.0578 8.9207 C 2.0497 8.9416 2.0389 8.9534 2.0252 8.9563 C 1.985 8.9745 1.9194 8.9855 1.8292 8.9894 C 1.7389 8.9934 1.6292 8.9953 1.4996 8.9956 L 1.4996 9.5099 L 3.1171 9.5805 L 3.1171 7.3624 C 3.1764 7.4093 3.2942 7.4635 3.4709 7.5251 C 3.6475 7.5865 3.834 7.6174 4.0308 7.6176 C 4.2707 7.6174 4.5075 7.5735 4.7406 7.4859 C 4.9737 7.398 5.1739 7.2653 5.341 7.0876 C 5.5191 6.8963 5.6445 6.6816 5.7171 6.4436 C 5.7898 6.2053 5.8261 5.9619 5.8261 5.7136 Z M 4.6292 5.7136 C 4.6292 5.9305 4.6226 6.1405 4.6091 6.3435 C 4.5958 6.5461 4.5581 6.7118 4.496 6.8403 C 4.4393 6.9473 4.3645 7.0317 4.2715 7.0933 C 4.1785 7.1546 4.0767 7.1855 3.9663 7.1858 C 3.8019 7.1855 3.648 7.1448 3.5052 7.0638 C 3.3624 6.9826 3.2478 6.8833 3.1615 6.7657 L 3.1615 4.6772 C 3.2424 4.5486 3.3438 4.4446 3.465 4.3649 C 3.5862 4.2849 3.7224 4.2451 3.8733 4.2454 C 3.9974 4.2451 4.1125 4.2758 4.219 4.3374 C 4.3255 4.3987 4.4099 4.4858 4.4717 4.5987 C 4.5446 4.7268 4.589 4.8902 4.6052 5.0892 C 4.6214 5.2879 4.6292 5.4962 4.6292 5.7136 Z " fill-rule="evenodd"/>
</g>
<clipPath id="cp12">
<path transform="matrix(1.3298329,0,0,-1.3273369,278.20796,90.49381)" d="M 0 0 L 6.3075 0 L 6.3075 12.606 L 0 12.606 Z " fill-rule="evenodd"/>
</clipPath>
<g clip-path="url(#cp12)">
<path transform="matrix(1.3298329,0,0,-1.3273369,278.20796,90.49381)" d="M 4.8045 4.8578 C 4.7805 4.6875 4.7253 4.5376 4.6389 4.4081 C 4.5525 4.2785 4.4441 4.1705 4.3133 4.0842 C 4.1828 3.9978 4.0351 3.9303 3.8707 3.8822 C 3.7063 3.8337 3.535 3.8096 3.3569 3.8096 C 3.1064 3.8096 2.8632 3.8526 2.6272 3.9389 C 2.3914 4.0253 2.1831 4.1588 2.0025 4.3396 C 1.8165 4.5305 1.686 4.7442 1.6104 4.9812 C 1.5348 5.218 1.4971 5.4621 1.4971 5.7136 C 1.4971 5.9619 1.5356 6.208 1.6124 6.4514 C 1.6892 6.6948 1.8192 6.912 2.0025 7.1033 C 2.1804 7.2888 2.388 7.425 2.6252 7.5114 C 2.8625 7.5978 3.1064 7.6409 3.3569 7.6412 C 3.4972 7.6409 3.6462 7.6292 3.8039 7.6056 C 3.9617 7.582 4.1067 7.5408 4.2387 7.4819 C 4.3707 7.4231 4.4826 7.3418 4.5741 7.2385 C 4.6659 7.135 4.7115 6.9983 4.7115 6.8285 C 4.7115 6.6399 4.6504 6.4978 4.5278 6.4024 C 4.4051 6.3067 4.2684 6.2591 4.1173 6.2593 C 3.9745 6.2591 3.841 6.3067 3.7168 6.4024 C 3.5929 6.4978 3.5309 6.6399 3.5309 6.8285 C 3.5309 6.9252 3.5485 7.0089 3.5836 7.0795 C 3.6187 7.1502 3.6295 7.1789 3.6158 7.1662 C 3.5755 7.1738 3.4891 7.1777 3.3569 7.1779 C 3.2519 7.1777 3.1564 7.1455 3.0701 7.0815 C 2.9837 7.0172 2.9135 6.9343 2.8595 6.8325 C 2.7815 6.6857 2.7356 6.5155 2.7221 6.3219 C 2.7089 6.128 2.702 5.9254 2.702 5.7136 C 2.702 5.5119 2.7123 5.3174 2.7325 5.1304 C 2.7526 4.9432 2.8085 4.7739 2.9 4.6223 C 2.9648 4.5148 3.0485 4.4309 3.1508 4.3708 C 3.2534 4.3104 3.3638 4.2805 3.4823 4.2807 C 3.6952 4.2805 3.8658 4.3379 3.9939 4.4532 C 4.1219 4.5683 4.2157 4.7214 4.2748 4.9128 C 4.3018 4.9989 4.3599 5.0421 4.4488 5.0423 L 4.659 5.0423 C 4.7508 5.0055 4.7991 4.9439 4.8045 4.8578 Z " fill-rule="evenodd"/>
</g>
<clipPath id="cp13">
<path transform="matrix(1.3298273,0,0,-1.3273369,246.10813,90.49381)" d="M 0 0 L 7.3346 0 L 7.3346 12.606 L 0 12.606 Z " fill-rule="evenodd"/>
</clipPath>
<g clip-path="url(#cp13)">
<path transform="matrix(1.3298273,0,0,-1.3273369,246.10813,90.49381)" d="M 4.1639 3.8057 L 4.1639 4.0609 C 4.1099 4.0162 4.0002 3.9632 3.8344 3.9019 C 3.6685 3.8403 3.4914 3.8096 3.3027 3.8096 C 3.0627 3.8096 2.8262 3.8526 2.5931 3.9389 C 2.36 4.0253 2.1583 4.1588 1.9885 4.3396 C 1.8106 4.5356 1.6845 4.7508 1.6104 4.9851 C 1.5363 5.2192 1.4993 5.4621 1.4993 5.7136 C 1.4993 5.9619 1.539 6.2073 1.6185 6.4495 C 1.698 6.6914 1.8303 6.9041 2.0148 7.0874 C 2.1995 7.2704 2.4113 7.4047 2.6498 7.4898 C 2.8883 7.5747 3.1356 7.6174 3.3915 7.6176 C 3.5696 7.6174 3.7375 7.5892 3.895 7.533 C 4.0527 7.4765 4.1585 7.4277 4.2125 7.386 L 4.2125 8.8385 C 4.2125 8.8724 4.2085 8.8991 4.2004 8.9188 C 4.1924 8.9384 4.1789 8.9509 4.1597 8.9563 C 4.1222 8.9745 4.0581 8.9855 3.9678 8.9894 C 3.8776 8.9934 3.7691 8.9953 3.6423 8.9956 L 3.6423 9.5099 L 5.2557 9.5805 L 5.2557 4.532 C 5.2557 4.4976 5.2599 4.4701 5.2678 4.4493 C 5.2759 4.4282 5.2894 4.4152 5.3083 4.4103 C 5.3433 4.3916 5.4066 4.3811 5.4984 4.3786 C 5.5902 4.3759 5.7018 4.3747 5.8338 4.3749 L 5.8338 3.8607 Z M 4.1639 6.7971 C 4.0832 6.912 3.9821 7.0054 3.8606 7.0776 C 3.7394 7.1495 3.6018 7.1855 3.4482 7.1858 C 3.3243 7.1855 3.2104 7.1541 3.1066 7.0913 C 3.0028 7.0285 2.9211 6.9434 2.8618 6.8364 C 2.7891 6.7078 2.7447 6.5429 2.7285 6.3415 C 2.7123 6.1398 2.7042 5.9305 2.7042 5.7136 C 2.7042 5.4935 2.7096 5.2835 2.7204 5.0833 C 2.7312 4.8831 2.7702 4.7175 2.8375 4.5869 C 2.8944 4.4846 2.9678 4.4022 3.058 4.3394 C 3.1483 4.2765 3.2487 4.2451 3.3591 4.2454 C 3.5345 4.2451 3.6923 4.2888 3.8324 4.3766 C 3.9728 4.4642 4.0832 4.5788 4.1639 4.7204 Z " fill-rule="evenodd"/>
</g>
<path transform="matrix(.06649091,0,0,-.06636624,0,143.84896)" d="M 3818.22 1088.26 C 3818.22 1068.38 3802.1 1052.26 3782.22 1052.26 C 3762.34 1052.26 3746.22 1068.38 3746.22 1088.26 C 3746.22 1108.14 3762.34 1124.26 3782.22 1124.26 C 3802.1 1124.26 3818.22 1108.14 3818.22 1088.26 Z " fill="#00ff00" fill-rule="evenodd"/>
<path transform="matrix(.06649091,0,0,-.06636624,0,143.84896)" d="M 3806.22 1088.26 C 3806.22 1075.01 3795.48 1064.26 3782.22 1064.26 C 3768.97 1064.26 3758.22 1075.01 3758.22 1088.26 C 3758.22 1101.52 3768.97 1112.26 3782.22 1112.26 C 3795.48 1112.26 3806.22 1101.52 3806.22 1088.26 Z " fill="#ffffff" fill-rule="evenodd"/>
<clipPath id="cp14">
<path transform="matrix(1.3298134,0,0,-1.3273304,307.66343,88.35748)" d="M 0 0 L 20.75 0 L 20.75 23.637 L 0 23.637 Z " fill-rule="evenodd"/>
</clipPath>
<g clip-path="url(#cp14)">
<path transform="matrix(1.3298134,0,0,-1.3273304,307.66343,88.35748)" d="M 11.614 15.853 C 11.614 15.962 11.697 16.017 11.863 16.018 C 12.05 16.017 12.184 15.952 12.266 15.822 C 13.096 14.223 14.364 13.078 16.071 12.385 C 16.403 12.244 16.713 12.138 17.003 12.069 C 17.179 12.018 17.267 11.952 17.267 11.873 C 17.267 11.792 17.179 11.726 17.003 11.677 C 14.881 11.143 13.302 9.8922 12.266 7.9231 C 12.204 7.8025 12.091 7.7422 11.925 7.7422 C 11.718 7.7422 11.614 7.7817 11.614 7.8628 C 11.614 7.9023 11.641 7.9834 11.692 8.104 C 12.054 8.7965 12.5 9.4146 13.028 9.9582 L 13.183 10.109 L 3.6954 10.109 C 3.5512 10.179 3.4787 10.279 3.4787 10.41 C 3.4787 10.56 3.5616 10.661 3.7265 10.712 L 13.866 10.712 L 14.021 10.833 C 14.435 11.133 15.041 11.48 15.838 11.873 C 15.797 11.902 15.745 11.927 15.683 11.948 C 15.114 12.188 14.56 12.51 14.021 12.913 L 13.866 13.033 L 3.7265 13.033 C 3.5616 13.082 3.4787 13.183 3.4787 13.335 C 3.4787 13.465 3.5512 13.565 3.6954 13.636 L 13.183 13.636 L 13.028 13.787 C 12.5 14.329 12.054 14.947 11.692 15.641 C 11.641 15.741 11.614 15.811 11.614 15.853 Z " fill-rule="evenodd"/>
</g>
<path transform="matrix(.06649091,0,0,-.06636624,0,143.84896)" stroke-width="15" stroke-linecap="round" stroke-linejoin="round" fill="none" stroke="#00ff00" d="M 6156.9 1012.51 C 6156.9 763.98 5955.43 562.51 5706.9 562.51 C 5458.37 562.51 5256.9 763.98 5256.9 1012.51 C 5256.9 1261.04 5458.37 1462.51 5706.9 1462.51 C 5955.43 1462.51 6156.9 1261.04 6156.9 1012.51 Z "/>
<path transform="matrix(.06649091,0,0,-.06636624,0,143.84896)" d="M 6192.9 1012.51 C 6192.9 992.63 6176.78 976.51 6156.9 976.51 C 6137.02 976.51 6120.9 992.63 6120.9 1012.51 C 6120.9 1032.39 6137.02 1048.51 6156.9 1048.51 C 6176.78 1048.51 6192.9 1032.39 6192.9 1012.51 Z " fill="#00ff00" fill-rule="evenodd"/>
<path transform="matrix(.06649091,0,0,-.06636624,0,143.84896)" d="M 6180.9 1012.51 C 6180.9 999.26 6170.15 988.51 6156.9 988.51 C 6143.64 988.51 6132.9 999.26 6132.9 1012.51 C 6132.9 1025.77 6143.64 1036.51 6156.9 1036.51 C 6170.15 1036.51 6180.9 1025.77 6180.9 1012.51 Z " fill="#ffffff" fill-rule="evenodd"/>
<path transform="matrix(.06649091,0,0,-.06636624,0,143.84896)" d="M 5292.9 1065.01 C 5292.9 1045.13 5276.78 1029.01 5256.9 1029.01 C 5237.02 1029.01 5220.9 1045.13 5220.9 1065.01 C 5220.9 1084.89 5237.02 1101.01 5256.9 1101.01 C 5276.78 1101.01 5292.9 1084.89 5292.9 1065.01 Z " fill="#00ff00" fill-rule="evenodd"/>
<path transform="matrix(.06649091,0,0,-.06636624,0,143.84896)" d="M 5280.9 1065.01 C 5280.9 1051.76 5270.15 1041.01 5256.9 1041.01 C 5243.64 1041.01 5232.9 1051.76 5232.9 1065.01 C 5232.9 1078.27 5243.64 1089.01 5256.9 1089.01 C 5270.15 1089.01 5280.9 1078.27 5280.9 1065.01 Z " fill="#ffffff" fill-rule="evenodd"/>
<clipPath id="cp15">
<path transform="matrix(1.3298237,0,0,-1.3273369,336.78578,75.06367)" d="M 0 0 L 6.9223 0 L 6.9223 12.606 L 0 12.606 Z " fill-rule="evenodd"/>
</clipPath>
<g clip-path="url(#cp15)">
<path transform="matrix(1.3298237,0,0,-1.3273369,336.78578,75.06367)" d="M 5.4216 4.0726 C 5.4216 4.0096 5.4008 3.9578 5.359 3.9176 C 5.3173 3.8768 5.2641 3.8567 5.1993 3.8567 L 4.6939 3.8567 C 4.6158 3.8567 4.5329 3.8651 4.4451 3.8822 C 4.3575 3.8992 4.2738 3.9296 4.1943 3.9743 C 4.1148 4.0187 4.0476 4.0768 3.9921 4.149 C 3.9369 4.2208 3.9092 4.3131 3.9092 4.426 L 3.9092 4.1904 C 3.9146 4.198 3.825 4.1364 3.6405 4.0057 C 3.456 3.8749 3.2396 3.8096 2.9913 3.8096 C 2.8215 3.8096 2.6505 3.8273 2.478 3.8626 C 2.3055 3.8979 2.1465 3.9551 2.0008 4.0351 C 1.8553 4.1148 1.7353 4.2177 1.6408 4.3433 C 1.5466 4.4689 1.4993 4.622 1.4993 4.8028 C 1.4993 5.046 1.5763 5.2545 1.7299 5.4288 C 1.8835 5.6027 2.0656 5.7342 2.2758 5.8235 C 2.5293 5.9332 2.7874 6.0078 3.0502 6.0471 C 3.313 6.0863 3.5561 6.1099 3.7799 6.118 L 3.7799 6.3889 C 3.7799 6.5064 3.7664 6.6175 3.7394 6.7223 C 3.7124 6.8268 3.6668 6.9213 3.602 7.0052 C 3.5456 7.0729 3.4801 7.124 3.406 7.1581 C 3.3319 7.1919 3.2543 7.2091 3.1734 7.2093 C 3.0818 7.2091 2.993 7.2052 2.9067 7.1973 C 2.8203 7.1895 2.7867 7.1882 2.8053 7.1936 C 2.7945 7.2039 2.8088 7.1711 2.8478 7.0953 C 2.887 7.0192 2.9064 6.9304 2.9064 6.8285 C 2.9064 6.6399 2.8446 6.4978 2.7204 6.4024 C 2.5965 6.3067 2.4603 6.2591 2.3121 6.2593 C 2.1693 6.2591 2.0359 6.3067 1.9117 6.4024 C 1.7878 6.4978 1.7257 6.6399 1.7257 6.8285 C 1.7257 7.001 1.7743 7.1409 1.8715 7.2484 C 1.9686 7.3556 2.0906 7.438 2.2373 7.4957 C 2.3843 7.5531 2.5401 7.5919 2.7045 7.6115 C 2.8689 7.6311 3.0252 7.6409 3.1734 7.6412 C 3.3836 7.6409 3.592 7.6186 3.7981 7.5742 C 4.0044 7.5295 4.1965 7.4419 4.3744 7.3114 C 4.5253 7.1985 4.6453 7.0624 4.7341 6.9029 C 4.8232 6.7432 4.8676 6.5719 4.8676 6.3889 L 4.8676 4.4888 C 4.8676 4.4728 4.8919 4.4498 4.9405 4.4198 C 4.989 4.3897 5.0752 4.3747 5.1993 4.3749 C 5.2614 4.3747 5.3139 4.3551 5.3571 4.3158 C 5.4003 4.2765 5.4216 4.2243 5.4216 4.159 L 5.4216 4.0726 Z M 3.7799 5.7215 C 3.6776 5.7107 3.5529 5.6871 3.406 5.6506 C 3.259 5.6138 3.1209 5.5615 2.9913 5.4938 C 2.8728 5.4177 2.7791 5.3193 2.7104 5.1991 C 2.6417 5.0786 2.6073 4.9466 2.6073 4.8028 C 2.6073 4.6456 2.6525 4.5133 2.7428 4.4061 C 2.833 4.2986 2.9376 4.2451 3.0561 4.2454 C 3.1559 4.2451 3.2497 4.2633 3.3373 4.3001 C 3.4249 4.3367 3.5017 4.3884 3.5677 4.4552 C 3.6339 4.5219 3.6857 4.5989 3.7235 4.6868 C 3.7613 4.7744 3.7799 4.8693 3.7799 4.9716 Z " fill-rule="evenodd"/>
</g>
<clipPath id="cp16">
<path transform="matrix(1.3298011,0,0,-1.3273369,412.8155,80.53888)" d="M 0 0 L 7.3265 0 L 7.3265 12.606 L 0 12.606 Z " fill-rule="evenodd"/>
</clipPath>
<g clip-path="url(#cp16)">
<path transform="matrix(1.3298011,0,0,-1.3273369,412.8155,80.53888)" d="M 5.8261 5.7136 C 5.8261 5.4621 5.7863 5.2153 5.7068 4.9734 C 5.6273 4.7312 5.4953 4.518 5.3106 4.3335 C 5.1261 4.149 4.9131 4.0155 4.6717 3.933 C 4.4305 3.8506 4.1831 3.8096 3.9297 3.8096 C 3.7143 3.8096 3.5194 3.8501 3.3455 3.9311 C 3.1718 4.012 3.0349 4.105 2.935 4.21 L 2.5591 3.8567 L 2.0699 3.8567 L 2.0699 8.8385 C 2.0699 8.8724 2.0659 8.8996 2.0578 8.9207 C 2.0497 8.9416 2.0389 8.9534 2.0252 8.9563 C 1.985 8.9745 1.9194 8.9855 1.8292 8.9894 C 1.7389 8.9934 1.6292 8.9953 1.4996 8.9956 L 1.4996 9.5099 L 3.1171 9.5805 L 3.1171 7.3624 C 3.1764 7.4093 3.2942 7.4635 3.4709 7.5251 C 3.6475 7.5865 3.834 7.6174 4.0308 7.6176 C 4.2707 7.6174 4.5075 7.5735 4.7406 7.4859 C 4.9737 7.398 5.1739 7.2653 5.341 7.0876 C 5.5191 6.8963 5.6445 6.6816 5.7171 6.4436 C 5.7898 6.2053 5.8261 5.9619 5.8261 5.7136 Z M 4.6292 5.7136 C 4.6292 5.9305 4.6226 6.1405 4.6091 6.3435 C 4.5958 6.5461 4.5581 6.7118 4.496 6.8403 C 4.4393 6.9473 4.3645 7.0317 4.2715 7.0933 C 4.1785 7.1546 4.0767 7.1855 3.9663 7.1858 C 3.8019 7.1855 3.648 7.1448 3.5052 7.0638 C 3.3624 6.9826 3.2478 6.8833 3.1615 6.7657 L 3.1615 4.6772 C 3.2424 4.5486 3.3438 4.4446 3.465 4.3649 C 3.5862 4.2849 3.7224 4.2451 3.8733 4.2454 C 3.9974 4.2451 4.1125 4.2758 4.219 4.3374 C 4.3255 4.3987 4.4099 4.4858 4.4717 4.5987 C 4.5446 4.7268 4.589 4.8902 4.6052 5.0892 C 4.6214 5.2879 4.6292 5.4962 4.6292 5.7136 Z " fill-rule="evenodd"/>
</g>
<clipPath id="cp17">
<path transform="matrix(1.3298329,0,0,-1.3273369,352.67979,81.03662)" d="M 0 0 L 6.3075 0 L 6.3075 12.606 L 0 12.606 Z " fill-rule="evenodd"/>
</clipPath>
<g clip-path="url(#cp17)">
<path transform="matrix(1.3298329,0,0,-1.3273369,352.67979,81.03662)" d="M 4.8045 4.8578 C 4.7805 4.6875 4.7253 4.5376 4.6389 4.4081 C 4.5525 4.2785 4.4441 4.1705 4.3133 4.0842 C 4.1828 3.9978 4.0351 3.9303 3.8707 3.8822 C 3.7063 3.8337 3.535 3.8096 3.3569 3.8096 C 3.1064 3.8096 2.8632 3.8526 2.6272 3.9389 C 2.3914 4.0253 2.1831 4.1588 2.0025 4.3396 C 1.8165 4.5305 1.686 4.7442 1.6104 4.9812 C 1.5348 5.218 1.4971 5.4621 1.4971 5.7136 C 1.4971 5.9619 1.5356 6.208 1.6124 6.4514 C 1.6892 6.6948 1.8192 6.912 2.0025 7.1033 C 2.1804 7.2888 2.388 7.425 2.6252 7.5114 C 2.8625 7.5978 3.1064 7.6409 3.3569 7.6412 C 3.4972 7.6409 3.6462 7.6292 3.8039 7.6056 C 3.9617 7.582 4.1067 7.5408 4.2387 7.4819 C 4.3707 7.4231 4.4826 7.3418 4.5741 7.2385 C 4.6659 7.135 4.7115 6.9983 4.7115 6.8285 C 4.7115 6.6399 4.6504 6.4978 4.5278 6.4024 C 4.4051 6.3067 4.2684 6.2591 4.1173 6.2593 C 3.9745 6.2591 3.841 6.3067 3.7168 6.4024 C 3.5929 6.4978 3.5309 6.6399 3.5309 6.8285 C 3.5309 6.9252 3.5485 7.0089 3.5836 7.0795 C 3.6187 7.1502 3.6295 7.1789 3.6158 7.1662 C 3.5755 7.1738 3.4891 7.1777 3.3569 7.1779 C 3.2519 7.1777 3.1564 7.1455 3.0701 7.0815 C 2.9837 7.0172 2.9135 6.9343 2.8595 6.8325 C 2.7815 6.6857 2.7356 6.5155 2.7221 6.3219 C 2.7089 6.128 2.702 5.9254 2.702 5.7136 C 2.702 5.5119 2.7123 5.3174 2.7325 5.1304 C 2.7526 4.9432 2.8085 4.7739 2.9 4.6223 C 2.9648 4.5148 3.0485 4.4309 3.1508 4.3708 C 3.2534 4.3104 3.3638 4.2805 3.4823 4.2807 C 3.6952 4.2805 3.8658 4.3379 3.9939 4.4532 C 4.1219 4.5683 4.2157 4.7214 4.2748 4.9128 C 4.3018 4.9989 4.3599 5.0421 4.4488 5.0423 L 4.659 5.0423 C 4.7508 5.0055 4.7991 4.9439 4.8045 4.8578 Z " fill-rule="evenodd"/>
</g>
<clipPath id="cp18">
<path transform="matrix(1.3298273,0,0,-1.3273369,395.45338,84.52085)" d="M 0 0 L 7.3346 0 L 7.3346 12.606 L 0 12.606 Z " fill-rule="evenodd"/>
</clipPath>
<g clip-path="url(#cp18)">
<path transform="matrix(1.3298273,0,0,-1.3273369,395.45338,84.52085)" d="M 4.1639 3.8057 L 4.1639 4.0609 C 4.1099 4.0162 4.0002 3.9632 3.8344 3.9019 C 3.6685 3.8403 3.4914 3.8096 3.3027 3.8096 C 3.0627 3.8096 2.8262 3.8526 2.5931 3.9389 C 2.36 4.0253 2.1583 4.1588 1.9885 4.3396 C 1.8106 4.5356 1.6845 4.7508 1.6104 4.9851 C 1.5363 5.2192 1.4993 5.4621 1.4993 5.7136 C 1.4993 5.9619 1.539 6.2073 1.6185 6.4495 C 1.698 6.6914 1.8303 6.9041 2.0148 7.0874 C 2.1995 7.2704 2.4113 7.4047 2.6498 7.4898 C 2.8883 7.5747 3.1356 7.6174 3.3915 7.6176 C 3.5696 7.6174 3.7375 7.5892 3.895 7.533 C 4.0527 7.4765 4.1585 7.4277 4.2125 7.386 L 4.2125 8.8385 C 4.2125 8.8724 4.2085 8.8991 4.2004 8.9188 C 4.1924 8.9384 4.1789 8.9509 4.1597 8.9563 C 4.1222 8.9745 4.0581 8.9855 3.9678 8.9894 C 3.8776 8.9934 3.7691 8.9953 3.6423 8.9956 L 3.6423 9.5099 L 5.2557 9.5805 L 5.2557 4.532 C 5.2557 4.4976 5.2599 4.4701 5.2678 4.4493 C 5.2759 4.4282 5.2894 4.4152 5.3083 4.4103 C 5.3433 4.3916 5.4066 4.3811 5.4984 4.3786 C 5.5902 4.3759 5.7018 4.3747 5.8338 4.3749 L 5.8338 3.8607 Z M 4.1639 6.7971 C 4.0832 6.912 3.9821 7.0054 3.8606 7.0776 C 3.7394 7.1495 3.6018 7.1855 3.4482 7.1858 C 3.3243 7.1855 3.2104 7.1541 3.1066 7.0913 C 3.0028 7.0285 2.9211 6.9434 2.8618 6.8364 C 2.7891 6.7078 2.7447 6.5429 2.7285 6.3415 C 2.7123 6.1398 2.7042 5.9305 2.7042 5.7136 C 2.7042 5.4935 2.7096 5.2835 2.7204 5.0833 C 2.7312 4.8831 2.7702 4.7175 2.8375 4.5869 C 2.8944 4.4846 2.9678 4.4022 3.058 4.3394 C 3.1483 4.2765 3.2487 4.2451 3.3591 4.2454 C 3.5345 4.2451 3.6923 4.2888 3.8324 4.3766 C 3.9728 4.4642 4.0832 4.5788 4.1639 4.7204 Z " fill-rule="evenodd"/>
</g>
</g>
</g>
</g>
</g>
</g>
</svg>
