<?xml version="1.0" encoding="UTF-8" standalone="no"?>
<!DOCTYPE svg PUBLIC "-//W3C//DTD SVG 1.1//EN" "http://www.w3.org/Graphics/SVG/1.1/DTD/svg11.dtd">
<svg xmlns="http://www.w3.org/2000/svg" xmlns:xlink="http://www.w3.org/1999/xlink" version="1.1" width="192.96pt" height="185.04pt" viewBox="0 0 192.96 185.04">
<g enable-background="new">
<g>
<g id="Layer-1" data-name="P">
<clipPath id="cp0">
<path transform="matrix(1,0,0,-1,0,185.04)" d="M .000002875 -.000015259 L 192.96 -.000015259 L 192.96 185.03998 L .000002875 185.03998 Z " fill-rule="evenodd"/>
</clipPath>
<g clip-path="url(#cp0)">
<text xml:space="preserve" transform="matrix(1 0 -0 1 0 185.04)" font-size="11.04" font-family="Calibri"><tspan y="-.12" x="192.84"> </tspan></text>
</g>
</g>
<g id="Layer-1" data-name="P">
<clipPath id="cp1">
<path transform="matrix(1,0,0,-1,0,185.04)" d="M .000002875 .24005 L 192.79 .24005 L 192.79 185.04006 L .000002875 185.04006 Z " fill-rule="evenodd"/>
</clipPath>
<g clip-path="url(#cp1)">
<clipPath id="cp2">
<path transform="matrix(.066597077,0,0,-.0665956,0,184.79998)" d="M 0 0 L 2894.99 0 L 2894.99 2775.01 L 0 2775.01 Z " fill-rule="evenodd"/>
</clipPath>
<g clip-path="url(#cp2)">
<path transform="matrix(.066597077,0,0,-.0665956,0,184.79998)" d="M 1964.83 2038.76 C 1964.83 1696 1655.9 1418.14 1274.82 1418.14 C 893.75 1418.14 584.82 1696 584.82 2038.76 C 584.82 2381.52 893.75 2659.39 1274.82 2659.39 C 1655.9 2659.39 1964.83 2381.52 1964.83 2038.76 Z " fill="#d3b081" fill-opacity=".39216" fill-rule="evenodd"/>
<path transform="matrix(.066597077,0,0,-.0665956,0,184.79998)" stroke-width="15" stroke-linecap="round" stroke-linejoin="round" fill="none" stroke="#000000" d="M 1964.83 2038.76 C 1964.83 1696 1655.9 1418.14 1274.82 1418.14 C 893.75 1418.14 584.82 1696 584.82 2038.76 C 584.82 2381.52 893.75 2659.39 1274.82 2659.39 C 1655.9 2659.39 1964.83 2381.52 1964.83 2038.76 Z "/>
<path transform="matrix(.066597077,0,0,-.0665956,0,184.79998)" d="M 895.23 1803.94 L 962 1803.94 L 964.59 1803.98 L 967.09 1804.07 L 969.54 1804.23 L 972.01 1804.45 L 974.43 1804.73 L 976.85 1805.07 L 979.23 1805.47 L 981.61 1805.93 L 983.95 1806.44 L 986.28 1807.01 L 988.6 1807.64 L 990.87 1808.32 L 993.13 1809.05 L 995.36 1809.84 L 997.58 1810.69 L 999.76 1811.58 L 1001.9 1812.52 L 1004.04 1813.52 L 1006.14 1814.57 L 1008.2 1815.66 L 1010.24 1816.8 L 1012.25 1818 L 1014.25 1819.24 L 1016.17 1820.51 L 1018.08 1821.84 L 1019.97 1823.22 L 1021.81 1824.63 L 1023.61 1826.09 L 1025.4 1827.6 L 1027.13 1829.14 L 1030.56 1832.41 L 1033.75 1835.78 L 1035.23 1837.45 L 1036.74 1839.23 L 1038.18 1841.03 L 1039.59 1842.88 L 1040.97 1844.78 L 1042.3 1846.7 L 1043.58 1848.64 L 1044.8 1850.6 L 1046 1852.63 L 1047.14 1854.68 L 1048.22 1856.74 L 1049.25 1858.83 L 1050.26 1860.98 L 1051.21 1863.15 L 1052.08 1865.31 L 1052.91 1867.51 L 1053.7 1869.76 L 1054.44 1872.04 L 1055.11 1874.3 L 1055.74 1876.62 L 1056.29 1878.94 L 1056.81 1881.31 L 1057.26 1883.67 L 1057.65 1886.06 L 1057.98 1888.47 L 1058.26 1890.91 L 1058.47 1893.36 L 1058.62 1895.82 L 1058.71 1898.3 L 1058.75 1900.83 L 1058.77 2137.05 L 1058.81 2139.84 L 1058.91 2142.69 L 1059.1 2145.56 L 1059.34 2148.37 L 1059.66 2151.18 L 1060.05 2153.96 L 1060.5 2156.73 L 1061.02 2159.47 L 1061.62 2162.2 L 1062.28 2164.89 L 1062.98 2167.54 L 1063.77 2170.2 L 1064.63 2172.82 L 1065.53 2175.39 L 1066.49 2177.94 L 1067.54 2180.49 L 1068.61 2182.96 L 1069.76 2185.43 L 1070.97 2187.86 L 1072.22 2190.25 L 1073.55 2192.62 L 1074.92 2194.94 L 1076.33 2197.22 L 1077.81 2199.47 L 1079.35 2201.69 L 1080.93 2203.86 L 1082.56 2205.99 L 1084.24 2208.09 L 1085.98 2210.14 L 1087.76 2212.15 L 1091.38 2215.96 L 1095.27 2219.67 L 1097.31 2221.5 L 1099.37 2223.25 L 1101.47 2224.94 L 1103.61 2226.58 L 1105.77 2228.15 L 1107.97 2229.68 L 1110.21 2231.16 L 1112.51 2232.6 L 1114.81 2233.97 L 1117.19 2235.3 L 1119.57 2236.56 L 1122 2237.77 L 1124.46 2238.92 L 1126.94 2240.01 L 1129.48 2241.05 L 1132.02 2242.02 L 1134.61 2242.93 L 1137.21 2243.79 L 1139.87 2244.58 L 1142.52 2245.3 L 1145.2 2245.96 L 1147.92 2246.55 L 1150.68 2247.08 L 1153.44 2247.54 L 1156.21 2247.94 L 1159.02 2248.26 L 1161.86 2248.51 L 1164.68 2248.7 L 1167.57 2248.81 L 1170.44 2248.85 L 1237.33 2248.84 L 1237.33 2233.84 L 1170.64 2233.85 L 1168.12 2233.82 L 1165.66 2233.73 L 1163.17 2233.57 L 1160.73 2233.36 L 1158.31 2233.08 L 1155.89 2232.74 L 1153.49 2232.35 L 1151.13 2231.9 L 1148.78 2231.39 L 1146.45 2230.82 L 1144.12 2230.19 L 1141.86 2229.53 L 1139.59 2228.79 L 1137.36 2228.01 L 1135.14 2227.16 L 1132.97 2226.28 L 1130.81 2225.33 L 1128.67 2224.34 L 1126.58 2223.3 L 1124.5 2222.2 L 1122.47 2221.07 L 1120.45 2219.88 L 1118.47 2218.64 L 1116.53 2217.36 L 1114.61 2216.03 L 1112.71 2214.65 L 1110.87 2213.24 L 1109.07 2211.8 L 1107.3 2210.3 L 1105.61 2208.81 L 1102.25 2205.62 L 1098.97 2202.19 L 1097.42 2200.44 L 1095.93 2198.68 L 1094.47 2196.87 L 1093.05 2195.02 L 1091.67 2193.14 L 1090.35 2191.23 L 1089.06 2189.29 L 1087.83 2187.3 L 1086.63 2185.29 L 1085.5 2183.26 L 1084.4 2181.19 L 1083.35 2179.08 L 1082.36 2176.97 L 1081.41 2174.79 L 1080.52 2172.63 L 1079.68 2170.42 L 1078.89 2168.16 L 1078.15 2165.92 L 1077.47 2163.65 L 1076.84 2161.33 L 1076.27 2158.99 L 1075.76 2156.66 L 1075.3 2154.28 L 1074.9 2151.89 L 1074.57 2149.48 L 1074.29 2147.06 L 1074.07 2144.59 L 1073.91 2142.14 L 1073.81 2139.64 L 1073.77 2137.05 L 1073.74 1900.62 L 1073.7 1897.76 L 1073.6 1894.89 L 1073.42 1892.04 L 1073.16 1889.2 L 1072.84 1886.41 L 1072.45 1883.61 L 1071.99 1880.85 L 1071.46 1878.1 L 1070.87 1875.41 L 1070.21 1872.7 L 1069.49 1870.04 L 1068.7 1867.38 L 1067.85 1864.78 L 1066.95 1862.22 L 1065.98 1859.65 L 1064.93 1857.1 L 1063.84 1854.63 L 1062.7 1852.19 L 1061.5 1849.75 L 1060.23 1847.35 L 1058.91 1845 L 1057.54 1842.69 L 1056.1 1840.38 L 1054.62 1838.14 L 1053.09 1835.93 L 1051.51 1833.78 L 1049.88 1831.64 L 1048.19 1829.54 L 1046.45 1827.49 L 1044.62 1825.43 L 1040.91 1821.55 L 1037.09 1817.92 L 1035.07 1816.13 L 1033.04 1814.42 L 1030.94 1812.73 L 1028.81 1811.1 L 1026.64 1809.52 L 1024.43 1807.99 L 1022.16 1806.5 L 1019.89 1805.09 L 1017.57 1803.71 L 1015.21 1802.4 L 1012.81 1801.13 L 1010.39 1799.93 L 1007.93 1798.78 L 1005.42 1797.69 L 1002.89 1796.66 L 1000.36 1795.7 L 997.76 1794.78 L 995.16 1793.94 L 992.49 1793.15 L 989.85 1792.44 L 987.16 1791.79 L 984.42 1791.19 L 981.69 1790.67 L 978.91 1790.21 L 976.14 1789.83 L 973.33 1789.51 L 970.51 1789.27 L 967.64 1789.08 L 964.8 1788.98 L 962 1788.94 L 895.23 1788.94 Z M 857.73 1751.31 L 839.84 1754.67 L 826.12 1763.81 L 815.96 1778.49 L 812.6 1796.44 L 815.99 1814.54 L 826.12 1828.05 L 839.62 1838.18 L 857.73 1841.57 L 875.68 1838.21 L 890.36 1828.04 L 899.5 1814.33 L 902.86 1796.44 L 899.53 1778.7 L 890.36 1763.8 L 875.47 1754.64 Z M 871.34 1769.13 L 868.8 1768.14 L 880.98 1775.64 L 878.53 1773.19 L 886.03 1785.37 L 885.04 1782.83 L 887.85 1797.83 L 887.85 1795.06 L 885.04 1810.06 L 886.17 1807.28 L 878.67 1818.53 L 880.64 1816.53 L 868.46 1824.96 L 871.34 1823.76 L 856.34 1826.57 L 859.11 1826.57 L 844.11 1823.76 L 847.23 1825.13 L 835.98 1816.69 L 837.48 1818.19 L 829.04 1806.94 L 830.41 1810.06 L 827.6 1795.06 L 827.6 1797.83 L 830.41 1782.83 L 829.2 1785.71 L 837.64 1773.52 L 835.64 1775.5 L 846.89 1768 L 844.11 1769.13 L 859.11 1766.31 L 856.34 1766.31 Z M 1274.91 2285.95 L 1293.01 2282.56 L 1306.52 2272.43 L 1316.65 2258.92 L 1320.04 2240.82 L 1316.65 2222.72 L 1306.52 2209.21 L 1293.01 2199.08 L 1274.91 2195.69 L 1256.81 2199.08 L 1243.31 2209.21 L 1233.18 2222.72 L 1229.78 2240.82 L 1233.18 2258.92 L 1243.31 2272.43 L 1256.81 2282.56 Z M 1261.3 2268.13 L 1264.41 2269.51 L 1253.16 2261.07 L 1254.66 2262.57 L 1246.23 2251.32 L 1247.6 2254.44 L 1244.78 2239.44 L 1244.78 2242.2 L 1247.6 2227.2 L 1246.23 2230.32 L 1254.66 2219.07 L 1253.16 2220.57 L 1264.41 2212.13 L 1261.3 2213.5 L 1276.3 2210.69 L 1273.53 2210.69 L 1288.53 2213.5 L 1285.41 2212.13 L 1296.66 2220.57 L 1295.16 2219.07 L 1303.6 2230.32 L 1302.23 2227.2 L 1305.04 2242.2 L 1305.04 2239.44 L 1302.23 2254.44 L 1303.6 2251.32 L 1295.16 2262.57 L 1296.66 2261.07 L 1285.41 2269.51 L 1288.53 2268.13 L 1273.53 2270.95 L 1276.3 2270.95 Z " fill="#ff0000"/>
<path transform="matrix(.066597077,0,0,-.0665956,0,184.79998)" d="M 1312.33 2248.83 L 1387.03 2248.83 L 1390.02 2248.79 L 1393.08 2248.68 L 1396.15 2248.48 L 1399.15 2248.22 L 1402.17 2247.88 L 1405.15 2247.47 L 1408.13 2246.97 L 1411.05 2246.42 L 1413.96 2245.78 L 1416.85 2245.08 L 1419.71 2244.31 L 1422.53 2243.47 L 1425.32 2242.57 L 1428.11 2241.59 L 1430.84 2240.55 L 1433.54 2239.45 L 1436.22 2238.28 L 1438.83 2237.07 L 1441.46 2235.76 L 1444.01 2234.41 L 1446.53 2233.02 L 1449.03 2231.54 L 1451.48 2230.01 L 1453.89 2228.43 L 1456.26 2226.79 L 1458.59 2225.09 L 1460.86 2223.35 L 1463.11 2221.55 L 1465.3 2219.7 L 1467.45 2217.79 L 1469.55 2215.83 L 1471.61 2213.83 L 1473.61 2211.78 L 1475.57 2209.68 L 1477.48 2207.52 L 1479.33 2205.34 L 1481.14 2203.11 L 1482.89 2200.82 L 1484.58 2198.51 L 1486.23 2196.14 L 1487.82 2193.73 L 1489.34 2191.28 L 1490.82 2188.8 L 1492.23 2186.26 L 1493.58 2183.71 L 1494.88 2181.12 L 1496.11 2178.47 L 1497.28 2175.82 L 1498.39 2173.11 L 1499.43 2170.39 L 1500.4 2167.6 L 1501.31 2164.83 L 1502.16 2161.99 L 1502.93 2159.13 L 1503.63 2156.26 L 1504.27 2153.34 L 1504.83 2150.41 L 1505.32 2147.45 L 1505.74 2144.47 L 1506.09 2141.46 L 1506.36 2138.45 L 1506.56 2135.39 L 1506.67 2132.31 L 1506.71 2129.24 L 1504.51 2134.45 L 1504.54 2134.42 C 1505.94 2133.02 1506.73 2131.11 1506.73 2129.12 L 1506.73 1908.64 L 1506.77 1905.85 L 1506.87 1903.14 L 1507.05 1900.5 L 1507.28 1897.82 L 1507.59 1895.21 L 1507.95 1892.59 L 1508.39 1890.02 L 1508.88 1887.44 L 1509.44 1884.9 L 1510.05 1882.38 L 1510.73 1879.9 L 1511.47 1877.41 L 1512.27 1874.97 L 1513.12 1872.56 L 1514.03 1870.18 L 1515 1867.81 L 1516.02 1865.48 L 1517.1 1863.15 L 1518.22 1860.92 L 1519.42 1858.65 L 1520.65 1856.46 L 1521.93 1854.28 L 1523.27 1852.14 L 1524.66 1850.03 L 1526.1 1847.96 L 1527.59 1845.93 L 1529.11 1843.94 L 1530.7 1841.97 L 1532.32 1840.06 L 1533.99 1838.19 L 1535.71 1836.35 L 1537.47 1834.54 L 1539.26 1832.79 L 1541.09 1831.09 L 1542.99 1829.41 L 1544.9 1827.8 L 1546.88 1826.21 L 1548.87 1824.68 L 1550.89 1823.22 L 1552.98 1821.76 L 1555.08 1820.39 L 1557.22 1819.05 L 1559.39 1817.78 L 1561.62 1816.53 L 1563.85 1815.35 L 1566.12 1814.23 L 1568.44 1813.15 L 1570.77 1812.13 L 1573.11 1811.19 L 1575.52 1810.27 L 1577.94 1809.42 L 1580.37 1808.63 L 1582.85 1807.9 L 1585.35 1807.22 L 1587.87 1806.61 L 1590.41 1806.06 L 1592.97 1805.57 L 1595.55 1805.15 L 1598.17 1804.79 L 1600.8 1804.49 L 1603.46 1804.25 L 1606.12 1804.09 L 1608.8 1803.99 L 1611.52 1803.96 L 1686.14 1803.95 L 1686.13 1788.95 L 1611.32 1788.96 L 1608.25 1789 L 1605.17 1789.12 L 1602.12 1789.31 L 1599.1 1789.58 L 1596.1 1789.93 L 1593.11 1790.35 L 1590.15 1790.84 L 1587.22 1791.4 L 1584.3 1792.04 L 1581.42 1792.75 L 1578.57 1793.52 L 1575.75 1794.36 L 1572.95 1795.27 L 1570.18 1796.25 L 1567.47 1797.28 L 1564.74 1798.39 L 1562.08 1799.57 L 1559.46 1800.79 L 1556.85 1802.09 L 1554.29 1803.44 L 1551.78 1804.85 L 1549.28 1806.33 L 1546.83 1807.85 L 1544.41 1809.45 L 1542.06 1811.09 L 1539.73 1812.79 L 1537.45 1814.54 L 1535.23 1816.34 L 1533.03 1818.2 L 1530.89 1820.1 L 1528.78 1822.06 L 1526.72 1824.08 L 1524.73 1826.12 L 1522.77 1828.23 L 1520.87 1830.37 L 1519.01 1832.58 L 1517.22 1834.8 L 1515.46 1837.09 L 1513.77 1839.42 L 1512.13 1841.79 L 1510.55 1844.2 L 1509.03 1846.65 L 1507.55 1849.14 L 1506.14 1851.67 L 1504.8 1854.21 L 1503.49 1856.84 L 1502.28 1859.46 L 1501.11 1862.14 L 1500.01 1864.83 L 1498.97 1867.57 L 1497.99 1870.35 L 1497.09 1873.14 L 1496.26 1875.96 L 1495.48 1878.82 L 1494.78 1881.71 L 1494.15 1884.63 L 1493.59 1887.54 L 1493.1 1890.52 L 1492.68 1893.5 L 1492.34 1896.52 L 1492.08 1899.52 L 1491.88 1902.59 L 1491.77 1905.65 L 1491.73 1908.64 L 1491.73 2129.12 L 1493.93 2123.82 L 1493.91 2123.84 C 1492.53 2125.22 1491.74 2127.09 1491.71 2129.05 L 1491.68 2131.76 L 1491.58 2134.45 L 1491.42 2137.1 L 1491.18 2139.76 L 1490.88 2142.39 L 1490.52 2145.01 L 1490.1 2147.59 L 1489.61 2150.16 L 1489.06 2152.7 L 1488.44 2155.23 L 1487.78 2157.72 L 1487.05 2160.17 L 1486.25 2162.64 L 1485.41 2165.04 L 1484.5 2167.44 L 1483.54 2169.8 L 1482.51 2172.14 L 1481.45 2174.43 L 1480.32 2176.71 L 1479.13 2178.96 L 1477.91 2181.16 L 1476.62 2183.34 L 1475.28 2185.49 L 1473.9 2187.6 L 1472.47 2189.66 L 1470.98 2191.7 L 1469.47 2193.69 L 1467.88 2195.65 L 1466.25 2197.58 L 1464.59 2199.46 L 1462.88 2201.3 L 1461.13 2203.1 L 1459.33 2204.86 L 1457.49 2206.58 L 1455.62 2208.24 L 1453.69 2209.87 L 1451.75 2211.44 L 1449.73 2212.98 L 1447.71 2214.46 L 1445.64 2215.9 L 1443.54 2217.29 L 1441.39 2218.63 L 1439.23 2219.91 L 1437.01 2221.15 L 1434.76 2222.34 L 1432.51 2223.46 L 1430.19 2224.54 L 1427.87 2225.56 L 1425.51 2226.53 L 1423.11 2227.45 L 1420.72 2228.3 L 1418.26 2229.09 L 1415.78 2229.83 L 1413.29 2230.51 L 1410.78 2231.13 L 1408.23 2231.68 L 1405.65 2232.18 L 1403.07 2232.61 L 1400.47 2232.98 L 1397.85 2233.28 L 1395.17 2233.51 L 1392.53 2233.69 L 1389.83 2233.79 L 1387.03 2233.83 L 1312.33 2233.83 Z M 1274.82 2196.2 L 1256.94 2199.55 L 1243.22 2208.7 L 1233.06 2223.38 L 1229.69 2241.33 L 1233.09 2259.43 L 1243.22 2272.94 L 1256.72 2283.07 L 1274.82 2286.46 L 1292.78 2283.09 L 1307.46 2272.93 L 1316.6 2259.22 L 1319.95 2241.33 L 1316.63 2223.58 L 1307.46 2208.69 L 1292.57 2199.53 Z M 1288.44 2214.01 L 1285.89 2213.03 L 1298.08 2220.53 L 1295.62 2218.07 L 1303.12 2230.26 L 1302.14 2227.71 L 1304.95 2242.71 L 1304.95 2239.95 L 1302.14 2254.95 L 1303.27 2252.17 L 1295.77 2263.42 L 1297.74 2261.41 L 1285.56 2269.85 L 1288.44 2268.65 L 1273.44 2271.46 L 1276.21 2271.46 L 1261.21 2268.65 L 1264.32 2270.02 L 1253.07 2261.58 L 1254.57 2263.08 L 1246.14 2251.83 L 1247.51 2254.95 L 1244.7 2239.95 L 1244.7 2242.71 L 1247.51 2227.71 L 1246.3 2230.6 L 1254.74 2218.41 L 1252.73 2220.38 L 1263.98 2212.88 L 1261.21 2214.01 L 1276.21 2211.2 L 1273.44 2211.2 Z M 1723.89 1841.15 L 1741.99 1837.75 L 1755.49 1827.62 L 1765.62 1814.12 L 1769.02 1796.02 L 1765.62 1777.92 L 1755.49 1764.41 L 1741.99 1754.28 L 1723.89 1750.89 L 1705.79 1754.28 L 1692.28 1764.41 L 1682.15 1777.92 L 1678.76 1796.02 L 1682.15 1814.12 L 1692.28 1827.62 L 1705.79 1837.75 Z M 1710.27 1823.33 L 1713.39 1824.7 L 1702.14 1816.27 L 1703.64 1817.77 L 1695.2 1806.52 L 1696.57 1809.63 L 1693.76 1794.63 L 1693.76 1797.4 L 1696.57 1782.4 L 1695.2 1785.52 L 1703.64 1774.27 L 1702.14 1775.77 L 1713.39 1767.33 L 1710.27 1768.7 L 1725.27 1765.89 L 1722.5 1765.89 L 1737.5 1768.7 L 1734.39 1767.33 L 1745.64 1775.77 L 1744.14 1774.27 L 1752.57 1785.52 L 1751.2 1782.4 L 1754.02 1797.4 L 1754.02 1794.63 L 1751.2 1809.63 L 1752.57 1806.52 L 1744.14 1817.77 L 1745.64 1816.27 L 1734.39 1824.7 L 1737.5 1823.33 L 1722.5 1826.15 L 1725.27 1826.15 Z " fill="#0000ff"/>
<path transform="matrix(.066597077,0,0,-.0665956,0,184.79998)" d="M 312.66 912.74 L 1115.29 912.74 L 1115.29 897.74 L 312.66 897.74 Z M 275.16 860.11 L 257.27 863.46 L 243.56 872.61 L 233.4 887.28 L 230.03 905.24 L 233.42 923.34 L 243.55 936.85 L 257.06 946.98 L 275.16 950.37 L 293.11 947 L 307.79 936.84 L 316.94 923.13 L 320.29 905.24 L 316.96 887.49 L 307.8 872.6 L 292.91 863.44 Z M 288.78 877.92 L 286.23 876.94 L 298.42 884.44 L 295.96 881.98 L 303.46 894.17 L 302.48 891.62 L 305.29 906.62 L 305.29 903.86 L 302.48 918.86 L 303.61 916.08 L 296.11 927.33 L 298.08 925.32 L 285.89 933.76 L 288.78 932.55 L 273.78 935.37 L 276.54 935.37 L 261.54 932.55 L 264.66 933.93 L 253.41 925.49 L 254.91 926.99 L 246.47 915.74 L 247.84 918.86 L 245.03 903.86 L 245.03 906.62 L 247.84 891.62 L 246.64 894.51 L 255.08 882.32 L 253.07 884.29 L 264.32 876.79 L 261.54 877.92 L 276.54 875.11 L 273.78 875.11 Z M 1153.6 950.37 L 1171.7 946.98 L 1185.2 936.85 L 1195.33 923.34 L 1198.73 905.24 L 1195.36 887.28 L 1185.2 872.61 L 1171.48 863.46 L 1153.6 860.11 L 1135.71 863.46 L 1122 872.61 L 1111.83 887.28 L 1108.47 905.24 L 1111.86 923.34 L 1121.99 936.85 L 1135.5 946.98 Z M 1139.98 932.55 L 1143.1 933.93 L 1131.85 925.49 L 1133.35 926.99 L 1124.91 915.74 L 1126.28 918.86 L 1123.47 903.86 L 1123.47 906.62 L 1126.28 891.62 L 1125.08 894.51 L 1133.51 882.32 L 1131.51 884.29 L 1142.76 876.79 L 1139.98 877.92 L 1154.98 875.11 L 1152.22 875.11 L 1167.22 877.92 L 1164.44 876.79 L 1175.69 884.29 L 1173.68 882.32 L 1182.12 894.51 L 1180.91 891.62 L 1183.73 906.62 L 1183.73 903.86 L 1180.91 918.86 L 1182.28 915.74 L 1173.85 926.99 L 1175.35 925.49 L 1164.1 933.93 L 1167.22 932.55 L 1152.22 935.37 L 1154.98 935.37 Z " fill="#ff0000"/>
<path transform="matrix(.066597077,0,0,-.0665956,0,184.79998)" d="M 1419.76 912.74 L 2222.39 912.74 L 2222.39 897.74 L 1419.76 897.74 Z M 1382.26 860.11 L 1364.37 863.46 L 1350.66 872.61 L 1340.5 887.28 L 1337.13 905.24 L 1340.52 923.34 L 1350.65 936.85 L 1364.16 946.98 L 1382.26 950.37 L 1400.22 947 L 1414.9 936.84 L 1424.04 923.13 L 1427.39 905.24 L 1424.06 887.49 L 1414.9 872.6 L 1400.01 863.44 Z M 1395.88 877.92 L 1393.33 876.94 L 1405.52 884.44 L 1403.06 881.98 L 1410.56 894.17 L 1409.58 891.62 L 1412.39 906.62 L 1412.39 903.86 L 1409.58 918.86 L 1410.71 916.08 L 1403.21 927.33 L 1405.18 925.32 L 1392.99 933.76 L 1395.88 932.55 L 1380.88 935.37 L 1383.64 935.37 L 1368.64 932.55 L 1371.76 933.93 L 1360.51 925.49 L 1362.01 926.99 L 1353.57 915.74 L 1354.95 918.86 L 1352.13 903.86 L 1352.13 906.62 L 1354.95 891.62 L 1353.74 894.51 L 1362.18 882.32 L 1360.17 884.29 L 1371.42 876.79 L 1368.64 877.92 L 1383.64 875.11 L 1380.88 875.11 Z M 2260.7 950.37 L 2278.8 946.98 L 2292.31 936.85 L 2302.44 923.34 L 2305.83 905.24 L 2302.46 887.28 L 2292.3 872.61 L 2278.59 863.46 L 2260.7 860.11 L 2242.81 863.46 L 2229.1 872.61 L 2218.93 887.28 L 2215.57 905.24 L 2218.96 923.34 L 2229.09 936.85 L 2242.6 946.98 Z M 2247.08 932.55 L 2250.2 933.93 L 2238.95 925.49 L 2240.45 926.99 L 2232.01 915.74 L 2233.38 918.86 L 2230.57 903.86 L 2230.57 906.62 L 2233.38 891.62 L 2232.18 894.51 L 2240.61 882.32 L 2238.61 884.29 L 2249.86 876.79 L 2247.08 877.92 L 2262.08 875.11 L 2259.32 875.11 L 2274.32 877.92 L 2271.54 876.79 L 2282.79 884.29 L 2280.78 882.32 L 2289.22 894.51 L 2288.01 891.62 L 2290.83 906.62 L 2290.83 903.86 L 2288.01 918.86 L 2289.39 915.74 L 2280.95 926.99 L 2282.45 925.49 L 2271.2 933.93 L 2274.32 932.55 L 2259.32 935.37 L 2262.08 935.37 Z " fill="#0000ff"/>
<path transform="matrix(.066597077,0,0,-.0665956,0,184.79998)" d="M 312.66 407.17 L 2222.4 407.17 L 2222.4 392.17 L 312.66 392.17 Z M 275.16 354.54 L 257.27 357.89 L 243.56 367.04 L 233.4 381.72 L 230.03 399.67 L 233.42 417.77 L 243.55 431.28 L 257.06 441.41 L 275.16 444.8 L 293.11 441.43 L 307.79 431.27 L 316.94 417.56 L 320.29 399.67 L 316.96 381.92 L 307.8 367.03 L 292.91 357.87 Z M 288.78 372.35 L 286.23 371.37 L 298.42 378.87 L 295.96 376.41 L 303.46 388.6 L 302.48 386.05 L 305.29 401.05 L 305.29 398.29 L 302.48 413.29 L 303.61 410.51 L 296.11 421.76 L 298.08 419.75 L 285.89 428.19 L 288.78 426.99 L 273.78 429.8 L 276.54 429.8 L 261.54 426.99 L 264.66 428.36 L 253.41 419.92 L 254.91 421.42 L 246.47 410.17 L 247.84 413.29 L 245.03 398.29 L 245.03 401.05 L 247.84 386.05 L 246.64 388.94 L 255.08 376.75 L 253.07 378.72 L 264.32 371.22 L 261.54 372.35 L 276.54 369.54 L 273.78 369.54 Z M 2260.78 444.8 L 2278.89 441.41 L 2292.39 431.28 L 2302.52 417.77 L 2305.92 399.67 L 2302.55 381.72 L 2292.39 367.04 L 2278.67 357.89 L 2260.78 354.54 L 2243.04 357.87 L 2228.15 367.03 L 2218.98 381.92 L 2215.65 399.67 L 2219.01 417.56 L 2228.15 431.27 L 2242.83 441.43 Z M 2247.17 426.99 L 2250.05 428.19 L 2237.87 419.75 L 2239.84 421.76 L 2232.34 410.51 L 2233.47 413.29 L 2230.66 398.29 L 2230.66 401.05 L 2233.47 386.05 L 2232.48 388.6 L 2239.98 376.41 L 2237.53 378.87 L 2249.72 371.37 L 2247.17 372.35 L 2262.17 369.54 L 2259.4 369.54 L 2274.4 372.35 L 2271.62 371.22 L 2282.87 378.72 L 2280.87 376.75 L 2289.31 388.94 L 2288.1 386.05 L 2290.91 401.05 L 2290.91 398.29 L 2288.1 413.29 L 2289.47 410.17 L 2281.03 421.42 L 2282.53 419.92 L 2271.28 428.36 L 2274.4 426.99 L 2259.4 429.8 L 2262.17 429.8 Z " fill="#00ff00"/>
<path transform="matrix(.066597077,0,0,-.0665956,0,184.79998)" d="M 268.88 909.34 L 785.86 1700.2 L 798.41 1692 L 281.44 901.14 C 279.17 897.67 274.52 896.69 271.06 898.96 C 267.59 901.23 266.62 905.88 268.88 909.34 Z M 857.73 1796.44 L 737.99 1695.51 L 785.79 1700.1 L 798.34 1691.9 L 813.32 1646.27 Z " fill="#ff0000" fill-opacity=".49412"/>
<clipPath id="cp3">
<path transform="matrix(1.3319894,0,0,-1.331924,5.3659927,141.82117)" d="M 0 0 L 6.7322 0 L 6.7322 12.606 L 0 12.606 Z " fill-rule="evenodd"/>
</clipPath>
<g clip-path="url(#cp3)">
<path transform="matrix(1.3319894,0,0,-1.331924,5.3659927,141.82117)" d="M 5.1943 6.5983 C 5.1943 6.2287 5.1686 5.8613 5.1171 5.4958 C 5.0657 5.1303 4.9382 4.7872 4.7348 4.4669 C 4.5896 4.2331 4.3953 4.0538 4.1522 3.9283 C 3.9093 3.8025 3.6451 3.7397 3.3597 3.7397 C 3.0851 3.7397 2.8254 3.8025 2.5811 3.9283 C 2.3368 4.0538 2.1418 4.2331 1.9965 4.4669 C 1.7931 4.7872 1.6657 5.1303 1.6142 5.4958 C 1.5627 5.8613 1.5368 6.2287 1.5368 6.5983 C 1.5368 6.9724 1.5627 7.3463 1.6142 7.7195 C 1.6657 8.0927 1.7931 8.4421 1.9965 8.7681 C 2.1418 9.0038 2.336 9.1872 2.5791 9.318 C 2.8222 9.4488 3.0824 9.5142 3.3597 9.5145 C 3.6424 9.5142 3.906 9.4488 4.1503 9.318 C 4.3946 9.1872 4.5896 9.0038 4.7348 8.7681 C 4.9382 8.4421 5.0657 8.0927 5.1171 7.7195 C 5.1686 7.3463 5.1943 6.9724 5.1943 6.5983 Z M 4.4097 6.7329 C 4.4097 6.8943 4.4085 7.0647 4.4059 7.2444 C 4.4032 7.4237 4.3965 7.5995 4.3859 7.7714 C 4.3753 7.9431 4.3563 8.1054 4.3284 8.2581 C 4.3008 8.4106 4.2671 8.5409 4.2275 8.6488 C 4.1483 8.8229 4.0322 8.966 3.8788 9.0776 C 3.7256 9.1891 3.5525 9.2449 3.3597 9.2452 C 3.1721 9.2449 3.0026 9.1884 2.8506 9.0757 C 2.6987 8.9626 2.583 8.8205 2.5036 8.6488 C 2.4642 8.5409 2.4305 8.4106 2.4027 8.2581 C 2.375 8.1054 2.3558 7.9431 2.3452 7.7714 C 2.3346 7.5995 2.3281 7.4237 2.3255 7.2444 C 2.3228 7.0647 2.3214 6.8943 2.3214 6.7329 C 2.3214 6.5531 2.3228 6.3638 2.3255 6.1652 C 2.3281 5.9663 2.3346 5.774 2.3452 5.5881 C 2.3558 5.402 2.375 5.2257 2.4027 5.0591 C 2.4305 4.8922 2.4642 4.7525 2.5036 4.64 C 2.5777 4.4524 2.6922 4.2986 2.8465 4.1781 C 3.0011 4.0574 3.1721 3.9973 3.3597 3.9975 C 3.5554 3.9973 3.7304 4.0574 3.8848 4.1781 C 4.0394 4.2986 4.1536 4.4524 4.2275 4.64 C 4.2671 4.7525 4.3008 4.8922 4.3284 5.0591 C 4.3563 5.2257 4.3753 5.402 4.3859 5.5881 C 4.3965 5.774 4.4032 5.9663 4.4059 6.1652 C 4.4085 6.3638 4.4097 6.5531 4.4097 6.7329 Z " fill-rule="evenodd"/>
</g>
<clipPath id="cp4">
<path transform="matrix(1.3319894,0,0,-1.331924,5.3659927,175.87616)" d="M 0 0 L 6.7322 0 L 6.7322 12.606 L 0 12.606 Z " fill-rule="evenodd"/>
</clipPath>
<g clip-path="url(#cp4)">
<path transform="matrix(1.3319894,0,0,-1.331924,5.3659927,175.87616)" d="M 5.1943 6.5983 C 5.1943 6.2287 5.1686 5.8613 5.1171 5.4958 C 5.0657 5.1303 4.9382 4.7872 4.7348 4.4669 C 4.5896 4.2331 4.3953 4.0538 4.1522 3.9283 C 3.9093 3.8025 3.6451 3.7397 3.3597 3.7397 C 3.0851 3.7397 2.8254 3.8025 2.5811 3.9283 C 2.3368 4.0538 2.1418 4.2331 1.9965 4.4669 C 1.7931 4.7872 1.6657 5.1303 1.6142 5.4958 C 1.5627 5.8613 1.5368 6.2287 1.5368 6.5983 C 1.5368 6.9724 1.5627 7.3463 1.6142 7.7195 C 1.6657 8.0927 1.7931 8.4421 1.9965 8.7681 C 2.1418 9.0038 2.336 9.1872 2.5791 9.318 C 2.8222 9.4488 3.0824 9.5142 3.3597 9.5145 C 3.6424 9.5142 3.906 9.4488 4.1503 9.318 C 4.3946 9.1872 4.5896 9.0038 4.7348 8.7681 C 4.9382 8.4421 5.0657 8.0927 5.1171 7.7195 C 5.1686 7.3463 5.1943 6.9724 5.1943 6.5983 Z M 4.4097 6.7329 C 4.4097 6.8943 4.4085 7.0647 4.4059 7.2444 C 4.4032 7.4237 4.3965 7.5995 4.3859 7.7714 C 4.3753 7.9431 4.3563 8.1054 4.3284 8.2581 C 4.3008 8.4106 4.2671 8.5409 4.2275 8.6488 C 4.1483 8.8229 4.0322 8.966 3.8788 9.0776 C 3.7256 9.1891 3.5525 9.2449 3.3597 9.2452 C 3.1721 9.2449 3.0026 9.1884 2.8506 9.0757 C 2.6987 8.9626 2.583 8.8205 2.5036 8.6488 C 2.4642 8.5409 2.4305 8.4106 2.4027 8.2581 C 2.375 8.1054 2.3558 7.9431 2.3452 7.7714 C 2.3346 7.5995 2.3281 7.4237 2.3255 7.2444 C 2.3228 7.0647 2.3214 6.8943 2.3214 6.7329 C 2.3214 6.5531 2.3228 6.3638 2.3255 6.1652 C 2.3281 5.9663 2.3346 5.774 2.3452 5.5881 C 2.3558 5.402 2.375 5.2257 2.4027 5.0591 C 2.4305 4.8922 2.4642 4.7525 2.5036 4.64 C 2.5777 4.4524 2.6922 4.2986 2.8465 4.1781 C 3.0011 4.0574 3.1721 3.9973 3.3597 3.9975 C 3.5554 3.9973 3.7304 4.0574 3.8848 4.1781 C 4.0394 4.2986 4.1536 4.4524 4.2275 4.64 C 4.2671 4.7525 4.3008 4.8922 4.3284 5.0591 C 4.3563 5.2257 4.3753 5.402 4.3859 5.5881 C 4.3965 5.774 4.4032 5.9663 4.4059 6.1652 C 4.4085 6.3638 4.4097 6.5531 4.4097 6.7329 Z " fill-rule="evenodd"/>
</g>
<clipPath id="cp5">
<path transform="matrix(1.3319894,0,0,-1.331924,87.07168,141.82117)" d="M 0 0 L 6.7322 0 L 6.7322 12.606 L 0 12.606 Z " fill-rule="evenodd"/>
</clipPath>
<g clip-path="url(#cp5)">
<path transform="matrix(1.3319894,0,0,-1.331924,87.07168,141.82117)" d="M 5.1943 6.5983 C 5.1943 6.2287 5.1686 5.8613 5.1171 5.4958 C 5.0657 5.1303 4.9382 4.7872 4.7348 4.4669 C 4.5896 4.2331 4.3953 4.0538 4.1522 3.9283 C 3.9093 3.8025 3.6451 3.7397 3.3597 3.7397 C 3.0851 3.7397 2.8254 3.8025 2.5811 3.9283 C 2.3368 4.0538 2.1418 4.2331 1.9965 4.4669 C 1.7931 4.7872 1.6657 5.1303 1.6142 5.4958 C 1.5627 5.8613 1.5368 6.2287 1.5368 6.5983 C 1.5368 6.9724 1.5627 7.3463 1.6142 7.7195 C 1.6657 8.0927 1.7931 8.4421 1.9965 8.7681 C 2.1418 9.0038 2.336 9.1872 2.5791 9.318 C 2.8222 9.4488 3.0824 9.5142 3.3597 9.5145 C 3.6424 9.5142 3.906 9.4488 4.1503 9.318 C 4.3946 9.1872 4.5896 9.0038 4.7348 8.7681 C 4.9382 8.4421 5.0657 8.0927 5.1171 7.7195 C 5.1686 7.3463 5.1943 6.9724 5.1943 6.5983 Z M 4.4097 6.7329 C 4.4097 6.8943 4.4085 7.0647 4.4059 7.2444 C 4.4032 7.4237 4.3965 7.5995 4.3859 7.7714 C 4.3753 7.9431 4.3563 8.1054 4.3284 8.2581 C 4.3008 8.4106 4.2671 8.5409 4.2275 8.6488 C 4.1483 8.8229 4.0322 8.966 3.8788 9.0776 C 3.7256 9.1891 3.5525 9.2449 3.3597 9.2452 C 3.1721 9.2449 3.0026 9.1884 2.8506 9.0757 C 2.6987 8.9626 2.583 8.8205 2.5036 8.6488 C 2.4642 8.5409 2.4305 8.4106 2.4027 8.2581 C 2.375 8.1054 2.3558 7.9431 2.3452 7.7714 C 2.3346 7.5995 2.3281 7.4237 2.3255 7.2444 C 2.3228 7.0647 2.3214 6.8943 2.3214 6.7329 C 2.3214 6.5531 2.3228 6.3638 2.3255 6.1652 C 2.3281 5.9663 2.3346 5.774 2.3452 5.5881 C 2.3558 5.402 2.375 5.2257 2.4027 5.0591 C 2.4305 4.8922 2.4642 4.7525 2.5036 4.64 C 2.5777 4.4524 2.6922 4.2986 2.8465 4.1781 C 3.0011 4.0574 3.1721 3.9973 3.3597 3.9975 C 3.5554 3.9973 3.7304 4.0574 3.8848 4.1781 C 4.0394 4.2986 4.1536 4.4524 4.2275 4.64 C 4.2671 4.7525 4.3008 4.8922 4.3284 5.0591 C 4.3563 5.2257 4.3753 5.402 4.3859 5.5881 C 4.3965 5.774 4.4032 5.9663 4.4059 6.1652 C 4.4085 6.3638 4.4097 6.5531 4.4097 6.7329 Z " fill-rule="evenodd"/>
</g>
<clipPath id="cp6">
<path transform="matrix(1.3319442,0,0,-1.331924,151.63954,141.82117)" d="M 0 0 L 5.9559 0 L 5.9559 12.606 L 0 12.606 Z " fill-rule="evenodd"/>
</clipPath>
<g clip-path="url(#cp6)">
<path transform="matrix(1.3319442,0,0,-1.331924,151.63954,141.82117)" d="M 4.424 3.9206 C 3.9381 3.9359 3.4651 3.9436 3.0054 3.9436 C 2.5459 3.9436 2.0729 3.9359 1.5867 3.9206 L 1.5867 4.2514 L 1.8603 4.2514 C 1.9474 4.2512 2.0294 4.2524 2.1058 4.255 C 2.1825 4.2574 2.2551 4.2639 2.3239 4.2743 C 2.3927 4.2844 2.4521 4.2947 2.5021 4.3053 C 2.5444 4.3127 2.5795 4.3363 2.6072 4.3762 C 2.6351 4.4159 2.6488 4.4601 2.6488 4.5092 L 2.6488 8.8451 C 2.5168 8.7806 2.3542 8.7318 2.1614 8.6986 C 1.9685 8.6652 1.7572 8.6486 1.5273 8.6488 L 1.5273 8.9759 C 1.8444 8.9756 2.1371 9.0134 2.4052 9.0891 C 2.6733 9.1646 2.9051 9.3065 3.1006 9.5145 L 3.2235 9.5145 C 3.3105 9.5142 3.354 9.4719 3.354 9.3875 L 3.354 4.5092 C 3.354 4.4577 3.3672 4.4128 3.3937 4.3743 C 3.4201 4.3358 3.4586 4.3127 3.5086 4.3053 C 3.551 4.2947 3.6053 4.2844 3.6712 4.2743 C 3.7373 4.2639 3.8118 4.2574 3.895 4.255 C 3.9782 4.2524 4.0595 4.2512 4.1386 4.2514 L 4.424 4.2514 L 4.424 3.9206 Z " fill-rule="evenodd"/>
</g>
<clipPath id="cp7">
<path transform="matrix(1.3319442,0,0,-1.331924,157.54271,175.87616)" d="M 0 0 L 5.9559 0 L 5.9559 12.606 L 0 12.606 Z " fill-rule="evenodd"/>
</clipPath>
<g clip-path="url(#cp7)">
<path transform="matrix(1.3319442,0,0,-1.331924,157.54271,175.87616)" d="M 4.424 3.9206 C 3.9381 3.9359 3.4651 3.9436 3.0054 3.9436 C 2.5459 3.9436 2.0729 3.9359 1.5867 3.9206 L 1.5867 4.2514 L 1.8603 4.2514 C 1.9474 4.2512 2.0294 4.2524 2.1058 4.255 C 2.1825 4.2574 2.2551 4.2639 2.3239 4.2743 C 2.3927 4.2844 2.4521 4.2947 2.5021 4.3053 C 2.5444 4.3127 2.5795 4.3363 2.6072 4.3762 C 2.6351 4.4159 2.6488 4.4601 2.6488 4.5092 L 2.6488 8.8451 C 2.5168 8.7806 2.3542 8.7318 2.1614 8.6986 C 1.9685 8.6652 1.7572 8.6486 1.5273 8.6488 L 1.5273 8.9759 C 1.8444 8.9756 2.1371 9.0134 2.4052 9.0891 C 2.6733 9.1646 2.9051 9.3065 3.1006 9.5145 L 3.2235 9.5145 C 3.3105 9.5142 3.354 9.4719 3.354 9.3875 L 3.354 4.5092 C 3.354 4.4577 3.3672 4.4128 3.3937 4.3743 C 3.4201 4.3358 3.4586 4.3127 3.5086 4.3053 C 3.551 4.2947 3.6053 4.2844 3.6712 4.2743 C 3.7373 4.2639 3.8118 4.2574 3.895 4.255 C 3.9782 4.2524 4.0595 4.2512 4.1386 4.2514 L 4.424 4.2514 L 4.424 3.9206 Z " fill-rule="evenodd"/>
</g>
<clipPath id="cp8">
<path transform="matrix(1.3319442,0,0,-1.331924,72.30644,141.82117)" d="M 0 0 L 5.9559 0 L 5.9559 12.606 L 0 12.606 Z " fill-rule="evenodd"/>
</clipPath>
<g clip-path="url(#cp8)">
<path transform="matrix(1.3319442,0,0,-1.331924,72.30644,141.82117)" d="M 4.424 3.9206 C 3.9381 3.9359 3.4651 3.9436 3.0054 3.9436 C 2.5459 3.9436 2.0729 3.9359 1.5867 3.9206 L 1.5867 4.2514 L 1.8603 4.2514 C 1.9474 4.2512 2.0294 4.2524 2.1058 4.255 C 2.1825 4.2574 2.2551 4.2639 2.3239 4.2743 C 2.3927 4.2844 2.4521 4.2947 2.5021 4.3053 C 2.5444 4.3127 2.5795 4.3363 2.6072 4.3762 C 2.6351 4.4159 2.6488 4.4601 2.6488 4.5092 L 2.6488 8.8451 C 2.5168 8.7806 2.3542 8.7318 2.1614 8.6986 C 1.9685 8.6652 1.7572 8.6486 1.5273 8.6488 L 1.5273 8.9759 C 1.8444 8.9756 2.1371 9.0134 2.4052 9.0891 C 2.6733 9.1646 2.9051 9.3065 3.1006 9.5145 L 3.2235 9.5145 C 3.3105 9.5142 3.354 9.4719 3.354 9.3875 L 3.354 4.5092 C 3.354 4.4577 3.3672 4.4128 3.3937 4.3743 C 3.4201 4.3358 3.4586 4.3127 3.5086 4.3053 C 3.551 4.2947 3.6053 4.2844 3.6712 4.2743 C 3.7373 4.2639 3.8118 4.2574 3.895 4.255 C 3.9782 4.2524 4.0595 4.2512 4.1386 4.2514 L 4.424 4.2514 L 4.424 3.9206 Z " fill-rule="evenodd"/>
</g>
<path transform="matrix(.066597077,0,0,-.0665956,0,184.79998)" d="M 1303.53 399.67 C 1303.53 379.79 1287.41 363.67 1267.53 363.67 C 1247.65 363.67 1231.53 379.79 1231.53 399.67 C 1231.53 419.55 1247.65 435.67 1267.53 435.67 C 1287.41 435.67 1303.53 419.55 1303.53 399.67 Z " fill-rule="evenodd"/>
<path transform="matrix(.066597077,0,0,-.0665956,0,184.79998)" d="M 1291.53 399.67 C 1291.53 386.42 1280.78 375.67 1267.53 375.67 C 1254.27 375.67 1243.53 386.42 1243.53 399.67 C 1243.53 412.93 1254.27 423.67 1267.53 423.67 C 1280.78 423.67 1291.53 412.93 1291.53 399.67 Z " fill="#23e353" fill-rule="evenodd"/>
<clipPath id="cp9">
<path transform="matrix(1.3319533,0,0,-1.3318942,76.731159,185.58986)" d="M 0 0 L 11.516 0 L 11.516 18.193 L 0 18.193 Z " fill-rule="evenodd"/>
</clipPath>
<g clip-path="url(#cp9)">
<path transform="matrix(1.3319533,0,0,-1.3318942,76.731159,185.58986)" d="M 4.424 9.5069 C 3.9381 9.5223 3.4651 9.53 3.0054 9.53 C 2.5459 9.53 2.0729 9.5223 1.5867 9.5069 L 1.5867 9.8378 L 1.8603 9.8378 C 1.9474 9.8376 2.0294 9.8388 2.1058 9.8414 C 2.1825 9.8438 2.2551 9.8503 2.3239 9.8607 C 2.3927 9.8708 2.4521 9.8811 2.5021 9.8917 C 2.5444 9.8991 2.5795 9.9227 2.6072 9.9626 C 2.6351 10.002 2.6488 10.047 2.6488 10.096 L 2.6488 14.431 C 2.5168 14.367 2.3542 14.318 2.1614 14.285 C 1.9685 14.252 1.7572 14.235 1.5273 14.235 L 1.5273 14.562 C 1.8444 14.562 2.1371 14.6 2.4052 14.676 C 2.6733 14.751 2.9051 14.893 3.1006 15.101 L 3.2235 15.101 C 3.3105 15.101 3.354 15.058 3.354 14.974 L 3.354 10.096 C 3.354 10.044 3.3672 9.9992 3.3937 9.9607 C 3.4201 9.9222 3.4586 9.8991 3.5086 9.8917 C 3.551 9.8811 3.6053 9.8708 3.6712 9.8607 C 3.7373 9.8503 3.8118 9.8438 3.895 9.8414 C 3.9782 9.8388 4.0595 9.8376 4.1386 9.8378 L 4.424 9.8378 L 4.424 9.5069 Z " fill-rule="evenodd"/>
<path transform="matrix(1.3319533,0,0,-1.3318942,76.731159,185.58986)" d="M 9.7265 3.9206 L 6.5015 3.9206 L 6.5015 4.1322 C 6.5015 4.1473 6.5095 4.1704 6.5253 4.2014 L 7.8209 5.6095 C 7.9743 5.7785 8.1294 5.9517 8.2867 6.1286 C 8.4439 6.3056 8.5843 6.4864 8.7084 6.6711 C 8.8325 6.8558 8.9316 7.0462 9.0056 7.2424 C 9.0797 7.4386 9.1165 7.6445 9.1165 7.8602 C 9.1165 8.0419 9.0929 8.2119 9.0453 8.3697 C 8.9977 8.5274 8.9292 8.6659 8.8392 8.7852 C 8.7493 8.9045 8.637 9.0006 8.5024 9.0737 C 8.3677 9.1468 8.2119 9.1834 8.0349 9.1836 C 7.7709 9.1834 7.5377 9.1045 7.3357 8.9468 C 7.1337 8.789 6.9995 8.6152 6.9334 8.4257 C 6.9204 8.4204 6.9416 8.4178 6.9969 8.418 L 7.0642 8.418 C 7.1435 8.3997 7.2121 8.3721 7.2703 8.3351 C 7.3285 8.2978 7.3773 8.2466 7.4169 8.1812 C 7.4566 8.1158 7.4763 8.0369 7.4763 7.9448 C 7.4763 7.7907 7.4263 7.6726 7.3258 7.5906 C 7.2253 7.5084 7.113 7.4675 6.9889 7.4677 C 6.8702 7.4675 6.7593 7.5084 6.6561 7.5906 C 6.5532 7.6726 6.5015 7.7907 6.5015 7.9448 C 6.5015 8.16 6.5439 8.3639 6.6285 8.5563 C 6.7131 8.7486 6.8278 8.9153 6.9731 9.0564 C 7.1183 9.1973 7.29 9.3089 7.4881 9.3911 C 7.6863 9.4731 7.8964 9.5142 8.1181 9.5145 C 8.3927 9.5142 8.6445 9.4738 8.8729 9.3931 C 9.1013 9.3123 9.2961 9.1961 9.4572 9.0449 C 9.6183 8.8934 9.7445 8.7183 9.8357 8.5197 C 9.9268 8.3209 9.9722 8.1011 9.9722 7.8602 C 9.9722 7.5933 9.9117 7.3475 9.79 7.1232 C 9.6686 6.8986 9.518 6.6928 9.3384 6.5057 C 9.1588 6.3184 8.9679 6.1421 8.7659 5.9767 C 8.5639 5.8112 8.3809 5.6504 8.2172 5.4941 L 7.3059 4.6362 L 8.4985 4.6362 C 8.6649 4.6359 8.8202 4.6371 8.964 4.6398 C 9.1081 4.6422 9.2302 4.6475 9.3305 4.6551 C 9.431 4.6628 9.4824 4.6679 9.4848 4.6708 C 9.506 4.6886 9.526 4.7244 9.5445 4.7783 C 9.563 4.8321 9.5801 4.8956 9.5959 4.9687 C 9.6118 5.0418 9.6277 5.1161 9.6435 5.1918 C 9.6594 5.2673 9.6738 5.3503 9.6871 5.4402 L 9.9802 5.4402 Z " fill-rule="evenodd"/>
<path transform="matrix(1.3319533,0,0,-1.3318942,76.731159,185.58986)" stroke-width=".3216" stroke-linecap="round" stroke-linejoin="round" fill="none" stroke="#000000" d="M 9.5122 15.567 L 1.4095 2.6256 "/>
</g>
<path transform="matrix(.066597077,0,0,-.0665956,0,184.79998)" d="M 577.85 907.99 L 1015.35 2018.36 L 1029.31 2012.86 L 591.8 902.49 C 590.28 898.64 585.93 896.74 582.07 898.26 C 578.22 899.78 576.33 904.13 577.85 907.99 Z M 1066.27 2127.14 L 969.42 2004.08 L 1015.31 2018.25 L 1029.26 2012.75 L 1053.15 1971.09 Z " fill="#ff0000" fill-opacity=".49412"/>
<path transform="matrix(.066597077,0,0,-.0665956,0,184.79998)" d="M 706.85 907.58 L 1108.26 2129.78 L 1122.51 2125.1 L 721.1 902.9 C 719.81 898.96 715.57 896.82 711.64 898.11 C 707.7 899.41 705.56 903.64 706.85 907.58 Z M 1152.79 2241.33 L 1063.23 2112.86 L 1108.22 2129.66 L 1122.47 2124.98 L 1148.74 2084.78 Z " fill="#ff0000" fill-opacity=".49412"/>
<path transform="matrix(.066597077,0,0,-.0665956,0,184.79998)" d="M 1145.32 905.88 L 1249.8 2122.53 L 1264.74 2121.25 L 1160.27 904.6 C 1159.91 900.47 1156.28 897.41 1152.15 897.77 C 1148.02 898.12 1144.97 901.75 1145.32 905.88 Z M 1267.52 2241.33 L 1209.86 2095.73 L 1249.79 2122.41 L 1264.73 2121.13 L 1299.53 2088.03 Z " fill="#ff0000" fill-opacity=".49412"/>
<path transform="matrix(.066597077,0,0,-.0665956,0,184.79998)" d="M 1374.79 904.6 L 1270.31 2121.25 L 1285.25 2122.53 L 1389.73 905.88 C 1390.09 901.75 1387.03 898.12 1382.9 897.77 C 1378.78 897.41 1375.14 900.47 1374.79 904.6 Z M 1267.52 2241.33 L 1235.52 2088.03 L 1270.32 2121.13 L 1285.26 2122.41 L 1325.19 2095.73 Z " fill="#0000ff" fill-opacity=".49412"/>
<path transform="matrix(.066597077,0,0,-.0665956,0,184.79998)" d="M 1813.86 903.19 L 1524.76 1921.39 L 1539.19 1925.49 L 1828.29 907.29 C 1829.42 903.3 1827.11 899.16 1823.12 898.02 C 1819.14 896.89 1814.99 899.21 1813.86 903.19 Z M 1499.23 2038.76 L 1496.91 1882.17 L 1524.79 1921.28 L 1539.22 1925.37 L 1583.49 1906.76 Z " fill="#0000ff" fill-opacity=".49412"/>
<path transform="matrix(.066597077,0,0,-.0665956,0,184.79998)" d="M 2253.47 901.37 L 1779.02 1689.86 L 1791.87 1697.59 L 2266.32 909.11 C 2268.46 905.56 2267.31 900.95 2263.76 898.81 C 2260.21 896.68 2255.6 897.82 2253.47 901.37 Z M 1723.63 1796.44 L 1762.41 1644.72 L 1779.08 1689.76 L 1791.93 1697.49 L 1839.53 1691.12 Z " fill="#0000ff" fill-opacity=".49412"/>
<path transform="matrix(.066597077,0,0,-.0665956,0,184.79998)" d="M 267.66 399.67 L 267.66 785.36 L 282.66 785.36 L 282.66 399.67 C 282.66 395.53 279.3 392.17 275.16 392.17 C 271.02 392.17 267.66 395.53 267.66 399.67 Z M 275.16 905.24 L 230.16 755.24 L 267.66 785.24 L 282.66 785.24 L 320.16 755.24 Z " fill="#00ff00" fill-opacity=".49412"/>
<path transform="matrix(.066597077,0,0,-.0665956,0,184.79998)" d="M 607.84 400.25 L 584.59 784.09 L 599.56 785 L 622.81 401.16 C 623.06 397.02 619.91 393.47 615.78 393.22 C 611.65 392.97 608.09 396.11 607.84 400.25 Z M 584.82 904.21 L 548.98 751.76 L 584.59 783.97 L 599.57 784.88 L 638.81 757.2 Z " fill="#00ff00" fill-opacity=".49412"/>
<path transform="matrix(.066597077,0,0,-.0665956,0,184.79998)" d="M 757.87 400.97 L 718.7 784.19 L 733.63 785.71 L 772.79 402.49 C 773.21 398.37 770.21 394.69 766.09 394.27 C 761.97 393.85 758.29 396.85 757.87 400.97 Z M 713.98 904.21 L 684.46 750.41 L 718.72 784.07 L 733.64 785.59 L 773.99 759.56 Z " fill="#00ff00" fill-opacity=".49412"/>
<path transform="matrix(.066597077,0,0,-.0665956,0,184.79998)" d="M 1260.21 400.06 L 1172.17 785.67 L 1186.79 789.01 L 1274.84 403.4 C 1275.76 399.36 1273.23 395.34 1269.19 394.42 C 1265.16 393.5 1261.14 396.02 1260.21 400.06 Z M 1152.79 904.21 L 1142.31 747.96 L 1172.19 785.55 L 1186.82 788.89 L 1230.05 767.99 Z " fill="#00ff00" fill-opacity=".49412"/>
<path transform="matrix(.066597077,0,0,-.0665956,0,184.79998)" d="M 1260.21 403.4 L 1348.24 788.5 L 1362.86 785.16 L 1274.84 400.06 C 1273.91 396.02 1269.89 393.5 1265.85 394.42 C 1261.82 395.34 1259.29 399.37 1260.21 403.4 Z M 1382.26 903.69 L 1304.97 767.49 L 1348.21 788.38 L 1362.83 785.04 L 1392.71 747.44 Z " fill="#00ff00" fill-opacity=".49412"/>
<path transform="matrix(.066597077,0,0,-.0665956,0,184.79998)" d="M 1726.67 402.48 L 1792.91 787.08 L 1807.69 784.54 L 1741.45 399.94 C 1740.75 395.85 1736.87 393.12 1732.79 393.82 C 1728.7 394.52 1725.96 398.4 1726.67 402.48 Z M 1820.64 903.95 L 1750.84 763.77 L 1792.89 786.97 L 1807.67 784.42 L 1839.53 748.49 Z " fill="#00ff00" fill-opacity=".49412"/>
<path transform="matrix(.066597077,0,0,-.0665956,0,184.79998)" d="M 2252.39 399.67 L 2252.39 785.36 L 2267.39 785.36 L 2267.39 399.67 C 2267.39 395.53 2264.04 392.17 2259.89 392.17 C 2255.75 392.17 2252.39 395.53 2252.39 399.67 Z M 2259.89 905.24 L 2214.89 755.24 L 2252.39 785.24 L 2267.39 785.24 L 2304.89 755.24 Z " fill="#00ff00" fill-opacity=".49412"/>
<clipPath id="cp10">
<path transform="matrix(1.3319199,0,0,-1.331924,133.58774,56.923105)" d="M 0 0 L 41.926 0 L 41.926 12.606 L 0 12.606 Z " fill-rule="evenodd"/>
</clipPath>
<g clip-path="url(#cp10)">
<path transform="matrix(1.3319199,0,0,-1.331924,133.58774,56.923105)" d="M 4.5701 8.2442 L 3.4668 8.2442 L 3.4668 6.8623 L 4.5701 7.1732 L 4.7126 6.5859 L 3.4668 6.1714 L 3.4668 3.4076 C 3.4668 3.0384 3.2789 2.8549 2.8989 2.8549 L 2.1497 2.8549 L 2.0093 3.5113 L 2.6139 3.5113 C 2.7089 3.5113 2.7564 3.5566 2.7564 3.6494 L 2.7564 5.9641 L 1.8668 5.6877 C 1.8431 5.5236 1.7826 5.4891 1.6876 5.5841 L 1.4739 6.4132 L 2.7564 6.6896 L 2.7564 8.2442 L 1.5818 8.2442 L 1.5818 9.0042 L 2.7564 9.0042 L 2.7564 10.766 L 3.4322 10.766 C 3.6222 10.74 3.6352 10.671 3.4668 10.559 L 3.4668 9.0042 L 4.5701 9.0042 Z M 9.1605 3.0621 L 8.448 3.0621 L 8.448 3.4076 L 6.1355 3.4076 L 6.1355 2.8894 L 5.4252 2.8894 L 5.4252 5.8259 C 4.9501 5.2256 4.5118 4.8111 4.1081 4.5822 L 3.7518 5.2731 C 5.0343 6.2621 5.8289 7.6202 6.1355 9.3497 L 4.6414 9.3497 L 4.6414 10.11 L 9.5513 10.11 L 9.5513 9.3497 L 6.8826 9.3497 C 6.766 8.5875 6.5393 7.8512 6.2068 7.1387 L 9.1605 7.1387 Z M 8.448 4.064 L 8.448 6.4823 L 6.1355 6.4823 L 6.1355 4.064 Z " fill-rule="evenodd"/>
<path transform="matrix(1.3319199,0,0,-1.331924,133.58774,56.923105)" d="M 15.428 7.6569 L 15.676 8.0023 C 16.388 7.7001 17.112 7.2747 17.846 6.7241 L 17.313 5.9641 C 16.531 6.5838 15.903 6.9983 15.428 7.2078 L 15.428 2.9931 L 14.715 2.9931 L 14.715 10.593 L 15.391 10.593 C 15.581 10.567 15.594 10.498 15.428 10.386 Z M 11.37 6.5859 L 11.37 8.3478 L 9.9109 8.3478 L 9.9109 9.0042 L 11.37 9.0042 L 11.37 10.697 L 12.046 10.697 C 12.236 10.671 12.249 10.602 12.083 10.49 L 12.083 9.0042 L 13.398 9.0042 L 13.398 8.3478 L 12.083 8.3478 L 12.083 6.7587 L 13.469 7.0696 L 13.648 6.4132 L 12.083 5.9986 L 12.083 3.4076 C 12.083 3.0384 11.893 2.8549 11.513 2.8549 L 10.729 2.8549 L 10.552 3.5113 L 11.228 3.5113 C 11.323 3.5113 11.37 3.5566 11.37 3.6494 L 11.37 5.7914 L 10.196 5.4804 C 10.174 5.271 10.114 5.2364 10.019 5.3768 L 9.7338 6.2405 Z " fill-rule="evenodd"/>
<path transform="matrix(1.3319199,0,0,-1.331924,133.58774,56.923105)" d="M 25.393 7.6569 C 25.229 7.0566 24.92 6.7565 24.469 6.7587 L 23.115 6.7587 C 22.666 6.7565 22.44 6.9746 22.44 7.4151 L 22.44 9.1078 L 21.302 9.1078 L 21.302 8.6933 C 21.302 7.6547 20.52 6.8709 18.952 6.3441 L 18.596 7.0005 C 19.926 7.3891 20.589 7.9548 20.589 8.6933 L 20.589 9.1078 L 18.952 9.1078 L 18.952 7.9333 L 18.134 7.9333 L 18.134 9.7642 L 21.55 9.7642 L 21.55 10.732 L 22.334 10.732 C 22.524 10.706 22.537 10.637 22.368 10.524 L 22.368 9.7642 L 25.784 9.7642 L 25.784 8.1405 L 24.966 8.1405 L 24.966 9.1078 L 23.152 9.1078 L 23.152 7.6569 C 23.152 7.4928 23.26 7.4129 23.472 7.4151 L 24.255 7.4151 C 24.493 7.4129 24.648 7.5856 24.717 7.9333 Z M 25.927 3.7876 L 25.927 3.0276 L 18.028 3.0276 L 18.028 3.7876 L 21.587 3.7876 L 21.587 5.2731 L 18.881 5.2731 L 18.881 6.0332 L 25.002 6.0332 L 25.002 5.2731 L 22.297 5.2731 L 22.297 3.7876 Z " fill-rule="evenodd"/>
<path transform="matrix(1.3319199,0,0,-1.331924,133.58774,56.923105)" d="M 28.707 4.3058 C 28.73 5.04 28.741 5.7719 28.741 6.4974 C 28.741 7.2229 28.73 7.9419 28.707 8.6587 L 29.24 8.3478 L 30.984 8.3478 L 31.339 8.6933 L 31.803 8.2442 L 31.518 8.0023 C 31.518 6.4801 31.531 5.3638 31.552 4.6513 L 31.056 4.3749 L 31.056 4.9277 L 29.205 4.9277 L 29.205 4.5477 Z M 29.205 8.1405 L 29.205 6.7932 L 31.056 6.7932 L 31.056 8.1405 Z M 29.205 6.5859 L 29.205 5.135 L 31.056 5.135 L 31.056 6.5859 Z M 27.461 10.766 C 28.007 10.418 28.327 10.177 28.422 10.038 C 28.517 9.9003 28.564 9.7858 28.564 9.6951 C 28.564 9.5548 28.517 9.4209 28.422 9.2957 C 28.327 9.1683 28.268 9.1057 28.244 9.1078 C 28.173 9.1057 28.102 9.2331 28.031 9.4879 C 27.912 9.8312 27.687 10.222 27.355 10.662 Z M 27.247 4.1676 C 27.247 3.7963 27.26 3.4292 27.284 3.0621 L 26.714 2.8549 C 26.74 3.2003 26.75 4.3382 26.75 6.2728 C 26.75 8.2075 26.74 9.3475 26.714 9.6951 L 27.569 9.2806 L 27.247 9.0733 Z M 31.66 3.7531 C 32.42 3.6365 32.846 3.5955 32.941 3.63 C 33.036 3.6646 33.083 3.7617 33.083 3.9258 L 33.083 9.7297 L 30.237 9.7297 C 29.929 9.7275 29.644 9.693 29.382 9.6261 L 29.063 9.937 L 33.012 9.937 L 33.368 10.282 L 33.867 9.7988 L 33.582 9.5915 L 33.582 3.8913 C 33.582 3.589 33.53 3.3731 33.422 3.2349 C 33.314 3.0967 33.096 2.9585 32.764 2.8203 C 32.574 3.2111 32.207 3.4767 31.66 3.6149 Z " fill-rule="evenodd"/>
<path transform="matrix(1.3319199,0,0,-1.331924,133.58774,56.923105)" d="M 40.37 3.8528 C 39.922 3.871 39.5 3.8803 39.104 3.8803 L 39.096 3.8803 C 38.638 3.8803 38.153 3.871 37.64 3.8528 L 37.64 4.3749 L 38.186 4.3749 L 37.151 6.0355 L 36.055 4.3906 L 36.055 4.4024 C 36.055 4.4284 36.055 4.4402 36.055 4.4377 C 36.104 4.4269 36.152 4.4166 36.201 4.4063 C 36.282 4.3955 36.361 4.3877 36.439 4.3825 C 36.517 4.3771 36.621 4.3747 36.751 4.3749 L 36.751 3.8528 C 36.344 3.871 35.964 3.8803 35.61 3.8803 L 35.501 3.8803 C 35.17 3.8803 34.819 3.871 34.45 3.8528 L 34.45 4.3749 C 34.609 4.3747 34.744 4.3759 34.856 4.3786 C 34.968 4.3811 35.077 4.3877 35.182 4.3985 C 35.23 4.4088 35.278 4.4171 35.323 4.4238 C 35.369 4.4301 35.395 4.4387 35.4 4.4495 L 36.815 6.5734 L 35.295 8.9956 L 34.559 8.9956 L 34.559 9.5177 C 35.004 9.4991 35.426 9.49 35.825 9.4902 L 35.833 9.4902 C 36.291 9.49 36.774 9.4991 37.28 9.5177 L 37.28 8.9956 L 36.73 8.9956 L 37.547 7.6883 L 38.408 8.9799 L 38.408 8.9681 C 38.408 8.947 38.41 8.9364 38.413 8.9367 C 38.364 8.9416 38.314 8.9494 38.263 8.9602 C 38.182 8.9705 38.103 8.9789 38.024 8.9855 C 37.946 8.9919 37.843 8.9953 37.713 8.9956 L 37.713 9.5177 C 38.147 9.4991 38.561 9.49 38.954 9.4902 L 38.962 9.4902 C 39.289 9.49 39.639 9.4991 40.014 9.5177 L 40.014 8.9956 C 39.855 8.9953 39.719 8.9939 39.608 8.9914 C 39.496 8.9887 39.387 8.9823 39.282 8.972 C 39.233 8.9612 39.186 8.9526 39.14 8.9463 C 39.095 8.9396 39.069 8.9313 39.064 8.921 L 37.887 7.1505 L 39.626 4.3749 L 40.37 4.3749 L 40.37 3.8528 Z " fill-rule="evenodd"/>
</g>
</g>
</g>
</g>
</g>
</g>
</svg>
