<?xml version="1.0" encoding="UTF-8" standalone="no"?>
<!DOCTYPE svg PUBLIC "-//W3C//DTD SVG 1.1//EN" "http://www.w3.org/Graphics/SVG/1.1/DTD/svg11.dtd">
<svg xmlns="http://www.w3.org/2000/svg" xmlns:xlink="http://www.w3.org/1999/xlink" version="1.1" width="294.96pt" height="179.04pt" viewBox="0 0 294.96 179.04">
<g enable-background="new">
<g>
<g id="Layer-1" data-name="P">
<clipPath id="cp0">
<path transform="matrix(1,0,0,-1,0,179.04)" d="M .000004395 -.000015259 L 294.96 -.000015259 L 294.96 179.03998 L .000004395 179.03998 Z " fill-rule="evenodd"/>
</clipPath>
<g clip-path="url(#cp0)">
<text xml:space="preserve" transform="matrix(1 0 -0 1 0 179.04)" font-size="11.04" font-family="Calibri"><tspan y="-.12" x="294.72"> </tspan></text>
</g>
</g>
<g id="Layer-1" data-name="P">
<clipPath id="cp1">
<path transform="matrix(1,0,0,-1,0,179.04)" d="M .000004395 .24005 L 294.67 .24005 L 294.67 179.04006 L .000004395 179.04006 Z " fill-rule="evenodd"/>
</clipPath>
<g clip-path="url(#cp1)">
<clipPath id="cp2">
<path transform="matrix(.053171059,0,0,-.052991138,0,178.79998)" d="M 0 0 L 5541.89 0 L 5541.89 3374.17 L 0 3374.17 Z " fill-rule="evenodd"/>
</clipPath>
<g clip-path="url(#cp2)">
<path transform="matrix(.053171059,0,0,-.052991138,0,178.79998)" d="M 397.29 932.8 L 1327.41 932.8 L 1327.41 917.8 L 397.29 917.8 C 393.14 917.8 389.79 921.16 389.79 925.3 C 389.79 929.45 393.14 932.8 397.29 932.8 Z M 1447.29 925.3 L 1297.29 970.3 L 1327.29 932.8 L 1327.29 917.8 L 1297.29 880.3 Z "/>
<path transform="matrix(.053171059,0,0,-.052991138,0,178.79998)" d="M 385.68 457.72 L 389.6 3039.22 L 404.6 3039.19 L 400.68 457.7 C 400.67 453.55 397.31 450.2 393.17 450.21 C 389.03 450.21 385.67 453.58 385.68 457.72 Z M 397.29 3159.08 L 352.06 3009.15 L 389.6 3039.09 L 404.6 3039.07 L 442.06 3009.01 Z "/>
<clipPath id="cp3">
<path transform="matrix(1.0634233,0,0,-1.0598323,67.40654,144.39601)" d="M 0 0 L 5.9559 0 L 5.9559 12.606 L 0 12.606 Z " fill-rule="evenodd"/>
</clipPath>
<g clip-path="url(#cp3)">
<path transform="matrix(1.0634233,0,0,-1.0598323,67.40654,144.39601)" d="M 4.4562 3.8528 C 3.9442 3.871 3.4534 3.8803 2.9843 3.8803 C 2.5154 3.8803 2.0208 3.871 1.5004 3.8528 L 1.5004 4.3749 L 2.3213 4.3749 L 2.3213 8.9956 L 1.5004 8.9956 L 1.5004 9.5177 C 2.0181 9.4991 2.5127 9.49 2.9843 9.4902 C 3.4534 9.49 3.9442 9.4991 4.4562 9.5177 L 4.4562 8.9956 L 3.6355 8.9956 L 3.6355 4.3749 L 4.4562 4.3749 L 4.4562 3.8528 Z " fill-rule="evenodd"/>
</g>
<clipPath id="cp4">
<path transform="matrix(1.0634308,0,0,-1.0598407,7.1621415,18.02539)" d="M 0 0 L 9.0086 0 L 9.0086 13.259 L 0 13.259 Z " fill-rule="evenodd"/>
</clipPath>
<g clip-path="url(#cp4)">
<path transform="matrix(1.0634308,0,0,-1.0598407,7.1621415,18.02539)" d="M 7.3421 4.4872 C 7.3421 4.4279 7.3205 4.3766 7.2763 4.3339 C 7.232 4.2907 7.1798 4.2701 7.1185 4.2701 L 5.7703 4.2701 C 5.6823 4.2701 5.619 4.3017 5.5803 4.3666 L 4.009 6.7062 C 3.9819 6.7057 3.9527 6.7042 3.9226 6.7017 C 3.8924 6.6987 3.8633 6.6976 3.8357 6.6982 L 3.8357 5.0741 C 3.8357 4.9876 3.8372 4.9178 3.8397 4.8645 C 3.8427 4.8108 3.8578 4.7706 3.8854 4.7439 C 3.913 4.7168 3.9643 4.7022 4.0387 4.6997 C 4.113 4.6967 4.211 4.6957 4.3321 4.6962 C 4.3934 4.6957 4.4457 4.6756 4.4899 4.6354 C 4.5341 4.5952 4.5557 4.5454 4.5557 4.4872 C 4.5557 4.4279 4.5341 4.3766 4.4899 4.3339 C 4.4457 4.2907 4.3934 4.2701 4.3321 4.2701 L 1.8674 4.2701 C 1.8071 4.2701 1.7543 4.2907 1.7101 4.3339 C 1.6659 4.3766 1.6437 4.4279 1.6437 4.4872 C 1.6437 4.5454 1.6659 4.5952 1.7101 4.6354 C 1.7543 4.6756 1.8071 4.6957 1.8674 4.6962 C 1.989 4.6957 2.0875 4.6967 2.1618 4.6997 C 2.2362 4.7022 2.2874 4.7168 2.3151 4.7439 C 2.3427 4.7706 2.3563 4.8108 2.3563 4.865 C 2.3563 4.9183 2.3563 4.9876 2.3563 5.0741 L 2.3563 8.9815 C 2.3563 9.0669 2.3563 9.1338 2.3563 9.1825 C 2.3563 9.2358 2.3427 9.2755 2.3151 9.3026 C 2.2874 9.3292 2.2362 9.3438 2.1618 9.3468 C 2.0875 9.3493 1.989 9.3508 1.8674 9.3513 C 1.8071 9.3508 1.7543 9.372 1.7101 9.4152 C 1.6659 9.4579 1.6437 9.5091 1.6437 9.5684 C 1.6437 9.6267 1.6659 9.6765 1.7101 9.7167 C 1.7543 9.7569 1.8071 9.777 1.8674 9.7775 L 4.4929 9.7775 C 4.7472 9.777 5.008 9.7498 5.2758 9.6966 C 5.5436 9.6428 5.7864 9.5559 6.0044 9.4353 C 6.2225 9.3147 6.4009 9.1564 6.5391 8.9609 C 6.6773 8.7649 6.7461 8.5252 6.7461 8.2418 C 6.7461 8.0217 6.7135 7.8313 6.6471 7.6705 C 6.5808 7.5097 6.4873 7.373 6.3657 7.2604 C 6.2446 7.1479 6.0999 7.0554 5.9316 6.9831 C 5.7637 6.9107 5.5773 6.8559 5.3733 6.8188 C 5.5612 6.5394 5.7446 6.2725 5.9235 6.0183 C 6.1024 5.7635 6.2708 5.5384 6.4275 5.3429 C 6.5848 5.1469 6.723 4.9902 6.8416 4.8726 C 6.9602 4.7545 7.0527 4.6957 7.1185 4.6962 C 7.1798 4.6957 7.232 4.6756 7.2763 4.6354 C 7.3205 4.5952 7.3421 4.5454 7.3421 4.4872 Z M 6.3039 8.2418 C 6.3039 8.4825 6.226 8.6835 6.0703 8.8443 C 5.9145 9.0051 5.7039 9.1282 5.4376 9.2147 C 5.504 9.0961 5.5547 8.9579 5.5909 8.8001 C 5.6271 8.6418 5.6447 8.4559 5.6447 8.2418 C 5.6447 8.0323 5.6311 7.8499 5.6034 7.6946 C 5.5758 7.5388 5.5316 7.4027 5.4708 7.2851 C 5.7537 7.3594 5.9632 7.4705 6.0994 7.6182 C 6.2361 7.7655 6.3039 7.9735 6.3039 8.2418 Z M 5.2025 8.2418 C 5.2025 8.4986 5.1748 8.7021 5.1195 8.8524 C 5.0643 9.0021 4.9914 9.1137 4.8999 9.186 C 4.809 9.2584 4.703 9.3036 4.5814 9.3227 C 4.4598 9.3413 4.3326 9.3508 4.2 9.3513 C 4.0784 9.3508 3.9874 9.3237 3.9266 9.2704 C 3.8663 9.2167 3.8357 9.1659 3.8357 9.1182 L 3.8357 7.1323 C 4.1341 7.1373 4.3728 7.1529 4.5522 7.18 C 4.7316 7.2067 4.8698 7.2589 4.9663 7.3368 C 5.0628 7.4142 5.1266 7.5243 5.1567 7.6665 C 5.1874 7.8082 5.2025 8.0001 5.2025 8.2418 Z M 6.4225 4.6962 C 6.1411 4.9851 5.8708 5.3148 5.6115 5.6846 C 5.3522 6.0544 5.1115 6.4082 4.8904 6.7464 C 4.8301 6.7353 4.7693 6.7298 4.7085 6.7303 C 4.6482 6.7298 4.5844 6.7273 4.518 6.7223 L 5.8843 4.6962 L 6.4225 4.6962 Z M 2.7653 9.3513 C 2.7819 9.2921 2.7915 9.2302 2.7945 9.1659 C 2.7975 9.1016 2.7985 9.0398 2.7985 8.9815 L 2.7985 5.0741 C 2.7985 5.0092 2.7975 4.9449 2.7945 4.8806 C 2.7915 4.8163 2.7819 4.7545 2.7653 4.6962 L 3.4266 4.6962 C 3.41 4.7545 3.4005 4.8163 3.3975 4.8806 C 3.395 4.9449 3.3935 5.0092 3.3935 5.0741 L 3.3935 9.1182 C 3.3935 9.1926 3.4075 9.2704 3.4347 9.3513 Z " fill-rule="evenodd"/>
</g>
<path transform="matrix(.053171059,0,0,-.052991138,0,178.79998)" d="M 1930.62 932.8 L 2860.74 932.8 L 2860.74 917.8 L 1930.62 917.8 C 1926.48 917.8 1923.12 921.16 1923.12 925.3 C 1923.12 929.45 1926.48 932.8 1930.62 932.8 Z M 2980.62 925.3 L 2830.62 970.3 L 2860.62 932.8 L 2860.62 917.8 L 2830.62 880.3 Z "/>
<path transform="matrix(.053171059,0,0,-.052991138,0,178.79998)" d="M 1923.12 457.71 L 1923.12 3039.2 L 1938.12 3039.2 L 1938.12 457.71 C 1938.12 453.56 1934.76 450.21 1930.62 450.21 C 1926.48 450.21 1923.12 453.56 1923.12 457.71 Z M 1930.62 3159.08 L 1885.62 3009.08 L 1923.12 3039.08 L 1938.12 3039.08 L 1975.62 3009.08 Z "/>
<clipPath id="cp5">
<path transform="matrix(1.0634233,0,0,-1.0598323,148.93532,144.39601)" d="M 0 0 L 5.9559 0 L 5.9559 12.606 L 0 12.606 Z " fill-rule="evenodd"/>
</clipPath>
<g clip-path="url(#cp5)">
<path transform="matrix(1.0634233,0,0,-1.0598323,148.93532,144.39601)" d="M 4.4562 3.8528 C 3.9442 3.871 3.4534 3.8803 2.9843 3.8803 C 2.5154 3.8803 2.0208 3.871 1.5004 3.8528 L 1.5004 4.3749 L 2.3213 4.3749 L 2.3213 8.9956 L 1.5004 8.9956 L 1.5004 9.5177 C 2.0181 9.4991 2.5127 9.49 2.9843 9.4902 C 3.4534 9.49 3.9442 9.4991 4.4562 9.5177 L 4.4562 8.9956 L 3.6355 8.9956 L 3.6355 4.3749 L 4.4562 4.3749 L 4.4562 3.8528 Z " fill-rule="evenodd"/>
</g>
<clipPath id="cp6">
<path transform="matrix(1.0634308,0,0,-1.0598407,88.69092,18.02539)" d="M 0 0 L 9.0086 0 L 9.0086 13.259 L 0 13.259 Z " fill-rule="evenodd"/>
</clipPath>
<g clip-path="url(#cp6)">
<path transform="matrix(1.0634308,0,0,-1.0598407,88.69092,18.02539)" d="M 7.3421 4.4872 C 7.3421 4.4279 7.3205 4.3766 7.2763 4.3339 C 7.232 4.2907 7.1798 4.2701 7.1185 4.2701 L 5.7703 4.2701 C 5.6823 4.2701 5.619 4.3017 5.5803 4.3666 L 4.009 6.7062 C 3.9819 6.7057 3.9527 6.7042 3.9226 6.7017 C 3.8924 6.6987 3.8633 6.6976 3.8357 6.6982 L 3.8357 5.0741 C 3.8357 4.9876 3.8372 4.9178 3.8397 4.8645 C 3.8427 4.8108 3.8578 4.7706 3.8854 4.7439 C 3.913 4.7168 3.9643 4.7022 4.0387 4.6997 C 4.113 4.6967 4.211 4.6957 4.3321 4.6962 C 4.3934 4.6957 4.4457 4.6756 4.4899 4.6354 C 4.5341 4.5952 4.5557 4.5454 4.5557 4.4872 C 4.5557 4.4279 4.5341 4.3766 4.4899 4.3339 C 4.4457 4.2907 4.3934 4.2701 4.3321 4.2701 L 1.8674 4.2701 C 1.8071 4.2701 1.7543 4.2907 1.7101 4.3339 C 1.6659 4.3766 1.6437 4.4279 1.6437 4.4872 C 1.6437 4.5454 1.6659 4.5952 1.7101 4.6354 C 1.7543 4.6756 1.8071 4.6957 1.8674 4.6962 C 1.989 4.6957 2.0875 4.6967 2.1618 4.6997 C 2.2362 4.7022 2.2874 4.7168 2.3151 4.7439 C 2.3427 4.7706 2.3563 4.8108 2.3563 4.865 C 2.3563 4.9183 2.3563 4.9876 2.3563 5.0741 L 2.3563 8.9815 C 2.3563 9.0669 2.3563 9.1338 2.3563 9.1825 C 2.3563 9.2358 2.3427 9.2755 2.3151 9.3026 C 2.2874 9.3292 2.2362 9.3438 2.1618 9.3468 C 2.0875 9.3493 1.989 9.3508 1.8674 9.3513 C 1.8071 9.3508 1.7543 9.372 1.7101 9.4152 C 1.6659 9.4579 1.6437 9.5091 1.6437 9.5684 C 1.6437 9.6267 1.6659 9.6765 1.7101 9.7167 C 1.7543 9.7569 1.8071 9.777 1.8674 9.7775 L 4.4929 9.7775 C 4.7472 9.777 5.008 9.7498 5.2758 9.6966 C 5.5436 9.6428 5.7864 9.5559 6.0044 9.4353 C 6.2225 9.3147 6.4009 9.1564 6.5391 8.9609 C 6.6773 8.7649 6.7461 8.5252 6.7461 8.2418 C 6.7461 8.0217 6.7135 7.8313 6.6471 7.6705 C 6.5808 7.5097 6.4873 7.373 6.3657 7.2604 C 6.2446 7.1479 6.0999 7.0554 5.9316 6.9831 C 5.7637 6.9107 5.5773 6.8559 5.3733 6.8188 C 5.5612 6.5394 5.7446 6.2725 5.9235 6.0183 C 6.1024 5.7635 6.2708 5.5384 6.4275 5.3429 C 6.5848 5.1469 6.723 4.9902 6.8416 4.8726 C 6.9602 4.7545 7.0527 4.6957 7.1185 4.6962 C 7.1798 4.6957 7.232 4.6756 7.2763 4.6354 C 7.3205 4.5952 7.3421 4.5454 7.3421 4.4872 Z M 6.3039 8.2418 C 6.3039 8.4825 6.226 8.6835 6.0703 8.8443 C 5.9145 9.0051 5.7039 9.1282 5.4376 9.2147 C 5.504 9.0961 5.5547 8.9579 5.5909 8.8001 C 5.6271 8.6418 5.6447 8.4559 5.6447 8.2418 C 5.6447 8.0323 5.6311 7.8499 5.6034 7.6946 C 5.5758 7.5388 5.5316 7.4027 5.4708 7.2851 C 5.7537 7.3594 5.9632 7.4705 6.0994 7.6182 C 6.2361 7.7655 6.3039 7.9735 6.3039 8.2418 Z M 5.2025 8.2418 C 5.2025 8.4986 5.1748 8.7021 5.1195 8.8524 C 5.0643 9.0021 4.9914 9.1137 4.8999 9.186 C 4.809 9.2584 4.703 9.3036 4.5814 9.3227 C 4.4598 9.3413 4.3326 9.3508 4.2 9.3513 C 4.0784 9.3508 3.9874 9.3237 3.9266 9.2704 C 3.8663 9.2167 3.8357 9.1659 3.8357 9.1182 L 3.8357 7.1323 C 4.1341 7.1373 4.3728 7.1529 4.5522 7.18 C 4.7316 7.2067 4.8698 7.2589 4.9663 7.3368 C 5.0628 7.4142 5.1266 7.5243 5.1567 7.6665 C 5.1874 7.8082 5.2025 8.0001 5.2025 8.2418 Z M 6.4225 4.6962 C 6.1411 4.9851 5.8708 5.3148 5.6115 5.6846 C 5.3522 6.0544 5.1115 6.4082 4.8904 6.7464 C 4.8301 6.7353 4.7693 6.7298 4.7085 6.7303 C 4.6482 6.7298 4.5844 6.7273 4.518 6.7223 L 5.8843 4.6962 L 6.4225 4.6962 Z M 2.7653 9.3513 C 2.7819 9.2921 2.7915 9.2302 2.7945 9.1659 C 2.7975 9.1016 2.7985 9.0398 2.7985 8.9815 L 2.7985 5.0741 C 2.7985 5.0092 2.7975 4.9449 2.7945 4.8806 C 2.7915 4.8163 2.7819 4.7545 2.7653 4.6962 L 3.4266 4.6962 C 3.41 4.7545 3.4005 4.8163 3.3975 4.8806 C 3.395 4.9449 3.3935 5.0092 3.3935 5.0741 L 3.3935 9.1182 C 3.3935 9.1926 3.4075 9.2704 3.4347 9.3513 Z " fill-rule="evenodd"/>
</g>
<path transform="matrix(.053171059,0,0,-.052991138,0,178.79998)" d="M 4063.95 932.8 L 4994.07 932.8 L 4994.07 917.8 L 4063.95 917.8 C 4059.81 917.8 4056.45 921.16 4056.45 925.3 C 4056.45 929.45 4059.81 932.8 4063.95 932.8 Z M 5113.95 925.3 L 4963.95 970.3 L 4993.95 932.8 L 4993.95 917.8 L 4963.95 880.3 Z "/>
<path transform="matrix(.053171059,0,0,-.052991138,0,178.79998)" d="M 4056.45 457.71 L 4056.45 3039.2 L 4071.45 3039.2 L 4071.45 457.71 C 4071.45 453.56 4068.09 450.21 4063.95 450.21 C 4059.81 450.21 4056.45 453.56 4056.45 457.71 Z M 4063.95 3159.08 L 4018.95 3009.08 L 4056.45 3039.08 L 4071.45 3039.08 L 4108.95 3009.08 Z "/>
<clipPath id="cp7">
<path transform="matrix(1.0634233,0,0,-1.0598323,262.36674,144.39601)" d="M 0 0 L 5.9559 0 L 5.9559 12.606 L 0 12.606 Z " fill-rule="evenodd"/>
</clipPath>
<g clip-path="url(#cp7)">
<path transform="matrix(1.0634233,0,0,-1.0598323,262.36674,144.39601)" d="M 4.4562 3.8528 C 3.9442 3.871 3.4534 3.8803 2.9843 3.8803 C 2.5154 3.8803 2.0208 3.871 1.5004 3.8528 L 1.5004 4.3749 L 2.3213 4.3749 L 2.3213 8.9956 L 1.5004 8.9956 L 1.5004 9.5177 C 2.0181 9.4991 2.5127 9.49 2.9843 9.4902 C 3.4534 9.49 3.9442 9.4991 4.4562 9.5177 L 4.4562 8.9956 L 3.6355 8.9956 L 3.6355 4.3749 L 4.4562 4.3749 L 4.4562 3.8528 Z " fill-rule="evenodd"/>
</g>
<clipPath id="cp8">
<path transform="matrix(1.0634308,0,0,-1.0598407,202.12233,18.02539)" d="M 0 0 L 9.0086 0 L 9.0086 13.259 L 0 13.259 Z " fill-rule="evenodd"/>
</clipPath>
<g clip-path="url(#cp8)">
<path transform="matrix(1.0634308,0,0,-1.0598407,202.12233,18.02539)" d="M 7.3421 4.4872 C 7.3421 4.4279 7.3205 4.3766 7.2763 4.3339 C 7.232 4.2907 7.1798 4.2701 7.1185 4.2701 L 5.7703 4.2701 C 5.6823 4.2701 5.619 4.3017 5.5803 4.3666 L 4.009 6.7062 C 3.9819 6.7057 3.9527 6.7042 3.9226 6.7017 C 3.8924 6.6987 3.8633 6.6976 3.8357 6.6982 L 3.8357 5.0741 C 3.8357 4.9876 3.8372 4.9178 3.8397 4.8645 C 3.8427 4.8108 3.8578 4.7706 3.8854 4.7439 C 3.913 4.7168 3.9643 4.7022 4.0387 4.6997 C 4.113 4.6967 4.211 4.6957 4.3321 4.6962 C 4.3934 4.6957 4.4457 4.6756 4.4899 4.6354 C 4.5341 4.5952 4.5557 4.5454 4.5557 4.4872 C 4.5557 4.4279 4.5341 4.3766 4.4899 4.3339 C 4.4457 4.2907 4.3934 4.2701 4.3321 4.2701 L 1.8674 4.2701 C 1.8071 4.2701 1.7543 4.2907 1.7101 4.3339 C 1.6659 4.3766 1.6437 4.4279 1.6437 4.4872 C 1.6437 4.5454 1.6659 4.5952 1.7101 4.6354 C 1.7543 4.6756 1.8071 4.6957 1.8674 4.6962 C 1.989 4.6957 2.0875 4.6967 2.1618 4.6997 C 2.2362 4.7022 2.2874 4.7168 2.3151 4.7439 C 2.3427 4.7706 2.3563 4.8108 2.3563 4.865 C 2.3563 4.9183 2.3563 4.9876 2.3563 5.0741 L 2.3563 8.9815 C 2.3563 9.0669 2.3563 9.1338 2.3563 9.1825 C 2.3563 9.2358 2.3427 9.2755 2.3151 9.3026 C 2.2874 9.3292 2.2362 9.3438 2.1618 9.3468 C 2.0875 9.3493 1.989 9.3508 1.8674 9.3513 C 1.8071 9.3508 1.7543 9.372 1.7101 9.4152 C 1.6659 9.4579 1.6437 9.5091 1.6437 9.5684 C 1.6437 9.6267 1.6659 9.6765 1.7101 9.7167 C 1.7543 9.7569 1.8071 9.777 1.8674 9.7775 L 4.4929 9.7775 C 4.7472 9.777 5.008 9.7498 5.2758 9.6966 C 5.5436 9.6428 5.7864 9.5559 6.0044 9.4353 C 6.2225 9.3147 6.4009 9.1564 6.5391 8.9609 C 6.6773 8.7649 6.7461 8.5252 6.7461 8.2418 C 6.7461 8.0217 6.7135 7.8313 6.6471 7.6705 C 6.5808 7.5097 6.4873 7.373 6.3657 7.2604 C 6.2446 7.1479 6.0999 7.0554 5.9316 6.9831 C 5.7637 6.9107 5.5773 6.8559 5.3733 6.8188 C 5.5612 6.5394 5.7446 6.2725 5.9235 6.0183 C 6.1024 5.7635 6.2708 5.5384 6.4275 5.3429 C 6.5848 5.1469 6.723 4.9902 6.8416 4.8726 C 6.9602 4.7545 7.0527 4.6957 7.1185 4.6962 C 7.1798 4.6957 7.232 4.6756 7.2763 4.6354 C 7.3205 4.5952 7.3421 4.5454 7.3421 4.4872 Z M 6.3039 8.2418 C 6.3039 8.4825 6.226 8.6835 6.0703 8.8443 C 5.9145 9.0051 5.7039 9.1282 5.4376 9.2147 C 5.504 9.0961 5.5547 8.9579 5.5909 8.8001 C 5.6271 8.6418 5.6447 8.4559 5.6447 8.2418 C 5.6447 8.0323 5.6311 7.8499 5.6034 7.6946 C 5.5758 7.5388 5.5316 7.4027 5.4708 7.2851 C 5.7537 7.3594 5.9632 7.4705 6.0994 7.6182 C 6.2361 7.7655 6.3039 7.9735 6.3039 8.2418 Z M 5.2025 8.2418 C 5.2025 8.4986 5.1748 8.7021 5.1195 8.8524 C 5.0643 9.0021 4.9914 9.1137 4.8999 9.186 C 4.809 9.2584 4.703 9.3036 4.5814 9.3227 C 4.4598 9.3413 4.3326 9.3508 4.2 9.3513 C 4.0784 9.3508 3.9874 9.3237 3.9266 9.2704 C 3.8663 9.2167 3.8357 9.1659 3.8357 9.1182 L 3.8357 7.1323 C 4.1341 7.1373 4.3728 7.1529 4.5522 7.18 C 4.7316 7.2067 4.8698 7.2589 4.9663 7.3368 C 5.0628 7.4142 5.1266 7.5243 5.1567 7.6665 C 5.1874 7.8082 5.2025 8.0001 5.2025 8.2418 Z M 6.4225 4.6962 C 6.1411 4.9851 5.8708 5.3148 5.6115 5.6846 C 5.3522 6.0544 5.1115 6.4082 4.8904 6.7464 C 4.8301 6.7353 4.7693 6.7298 4.7085 6.7303 C 4.6482 6.7298 4.5844 6.7273 4.518 6.7223 L 5.8843 4.6962 L 6.4225 4.6962 Z M 2.7653 9.3513 C 2.7819 9.2921 2.7915 9.2302 2.7945 9.1659 C 2.7975 9.1016 2.7985 9.0398 2.7985 8.9815 L 2.7985 5.0741 C 2.7985 5.0092 2.7975 4.9449 2.7945 4.8806 C 2.7915 4.8163 2.7819 4.7545 2.7653 4.6962 L 3.4266 4.6962 C 3.41 4.7545 3.4005 4.8163 3.3975 4.8806 C 3.395 4.9449 3.3935 5.0092 3.3935 5.0741 L 3.3935 9.1182 C 3.3935 9.1926 3.4075 9.2704 3.4347 9.3513 Z " fill-rule="evenodd"/>
</g>
<path transform="matrix(.053171059,0,0,-.052991138,0,178.79998)" stroke-width="7.5" stroke-linecap="round" stroke-dasharray="30,15" stroke-linejoin="round" fill="none" stroke="#0000ff" d="M 291.84 1874.37 L 5444.4 1872.51 "/>
<path transform="matrix(.053171059,0,0,-.052991138,0,178.79998)" stroke-width="7.5" stroke-linecap="round" stroke-dasharray="30,15" stroke-linejoin="round" fill="none" stroke="#0000ff" d="M 291.84 2342.9 L 5444.4 2341.04 "/>
<path transform="matrix(.053171059,0,0,-.052991138,0,178.79998)" stroke-width="7.5" stroke-linecap="round" stroke-dasharray="30,15" stroke-linejoin="round" fill="none" stroke="#0000ff" d="M 265.62 459.56 L 5418.18 457.71 "/>
<path transform="matrix(.053171059,0,0,-.052991138,0,178.79998)" stroke-width="7.5" stroke-linecap="round" stroke-dasharray="30,15" stroke-linejoin="round" fill="none" stroke="#000000" d="M 1447.29 346.58 L 1447.29 3159.08 "/>
<path transform="matrix(.053171059,0,0,-.052991138,0,178.79998)" stroke-width="7.5" stroke-linecap="round" stroke-dasharray="30,15" stroke-linejoin="round" fill="none" stroke="#000000" d="M 2954.4 346.58 L 2954.4 3159.08 "/>
<path transform="matrix(.053171059,0,0,-.052991138,0,178.79998)" stroke-width="7.5" stroke-linecap="round" stroke-dasharray="30,15" stroke-linejoin="round" fill="none" stroke="#000000" d="M 5113.95 346.58 L 5113.95 3159.08 "/>
<clipPath id="cp9">
<path transform="matrix(1.0634233,0,0,-1.0598323,6.5698158,110.97768)" d="M 0 0 L 5.9559 0 L 5.9559 12.606 L 0 12.606 Z " fill-rule="evenodd"/>
</clipPath>
<g clip-path="url(#cp9)">
<path transform="matrix(1.0634233,0,0,-1.0598323,6.5698158,110.97768)" d="M 4.424 3.9206 C 3.9381 3.9359 3.4651 3.9436 3.0054 3.9436 C 2.5459 3.9436 2.0729 3.9359 1.5867 3.9206 L 1.5867 4.2514 L 1.8603 4.2514 C 1.9474 4.2512 2.0294 4.2524 2.1058 4.255 C 2.1825 4.2574 2.2551 4.2639 2.3239 4.2743 C 2.3927 4.2844 2.4521 4.2947 2.5021 4.3053 C 2.5444 4.3127 2.5795 4.3363 2.6072 4.3762 C 2.6351 4.4159 2.6488 4.4601 2.6488 4.5092 L 2.6488 8.8451 C 2.5168 8.7806 2.3542 8.7318 2.1614 8.6986 C 1.9685 8.6652 1.7572 8.6486 1.5273 8.6488 L 1.5273 8.9759 C 1.8444 8.9756 2.1371 9.0134 2.4052 9.0891 C 2.6733 9.1646 2.9051 9.3065 3.1006 9.5145 L 3.2235 9.5145 C 3.3105 9.5142 3.354 9.4719 3.354 9.3875 L 3.354 4.5092 C 3.354 4.4577 3.3672 4.4128 3.3937 4.3743 C 3.4201 4.3358 3.4586 4.3127 3.5086 4.3053 C 3.551 4.2947 3.6053 4.2844 3.6712 4.2743 C 3.7373 4.2639 3.8118 4.2574 3.895 4.255 C 3.9782 4.2524 4.0595 4.2512 4.1386 4.2514 L 4.424 4.2514 L 4.424 3.9206 Z " fill-rule="evenodd"/>
</g>
<clipPath id="cp10">
<path transform="matrix(1.0634182,0,0,-1.0598323,6.2539799,85.85617)" d="M 0 0 L 6.5501 0 L 6.5501 12.606 L 0 12.606 Z " fill-rule="evenodd"/>
</clipPath>
<g clip-path="url(#cp10)">
<path transform="matrix(1.0634182,0,0,-1.0598323,6.2539799,85.85617)" d="M 4.7604 3.9206 L 1.5349 3.9206 L 1.5349 4.1322 C 1.5349 4.1473 1.5429 4.1704 1.5587 4.2014 L 2.8545 5.6095 C 3.0077 5.7785 3.1628 5.9517 3.3201 6.1286 C 3.4773 6.3056 3.6182 6.4864 3.7423 6.6711 C 3.8664 6.8558 3.9654 7.0462 4.0395 7.2424 C 4.1136 7.4386 4.1503 7.6445 4.1503 7.8602 C 4.1503 8.0419 4.1265 8.2119 4.0789 8.3697 C 4.0313 8.5274 3.9628 8.6659 3.8729 8.7852 C 3.7832 8.9045 3.6709 9.0006 3.5362 9.0737 C 3.4016 9.1468 3.2455 9.1834 3.0685 9.1836 C 2.8045 9.1834 2.5713 9.1045 2.3691 8.9468 C 2.1671 8.789 2.0329 8.6152 1.9668 8.4257 C 1.9538 8.4204 1.975 8.4178 2.0303 8.418 L 2.0976 8.418 C 2.1769 8.3997 2.2455 8.3721 2.3037 8.3351 C 2.3618 8.2978 2.4107 8.2466 2.4503 8.1812 C 2.49 8.1158 2.5097 8.0369 2.5097 7.9448 C 2.5097 7.7907 2.4597 7.6726 2.3592 7.5906 C 2.2587 7.5084 2.1464 7.4675 2.0223 7.4677 C 1.9035 7.4675 1.7925 7.5084 1.6895 7.5906 C 1.5866 7.6726 1.5349 7.7907 1.5349 7.9448 C 1.5349 8.16 1.5772 8.3639 1.6619 8.5563 C 1.7465 8.7486 1.8612 8.9153 2.0065 9.0564 C 2.1517 9.1973 2.3234 9.3089 2.5215 9.3911 C 2.7196 9.4731 2.9298 9.5142 3.1517 9.5145 C 3.4266 9.5142 3.6783 9.4738 3.9068 9.3931 C 4.1352 9.3123 4.33 9.1961 4.4911 9.0449 C 4.6522 8.8934 4.7784 8.7183 4.8695 8.5197 C 4.9607 8.3209 5.0061 8.1011 5.0061 7.8602 C 5.0061 7.5933 4.9455 7.3475 4.8239 7.1232 C 4.7024 6.8986 4.5519 6.6928 4.3723 6.5057 C 4.1927 6.3184 4.0017 6.1421 3.7995 5.9767 C 3.5975 5.8112 3.4146 5.6504 3.2508 5.4941 L 2.3392 4.6362 L 3.5321 4.6362 C 3.6985 4.6359 3.8539 4.6371 3.9977 4.6398 C 4.1417 4.6422 4.2638 4.6475 4.3643 4.6551 C 4.4649 4.6628 4.5163 4.6679 4.5187 4.6708 C 4.5399 4.6886 4.5598 4.7244 4.5784 4.7783 C 4.5969 4.8321 4.6139 4.8956 4.6298 4.9687 C 4.6457 5.0418 4.6616 5.1161 4.6774 5.1918 C 4.6933 5.2673 4.7077 5.3503 4.7209 5.4402 L 5.0141 5.4402 Z " fill-rule="evenodd"/>
</g>
<clipPath id="cp11">
<path transform="matrix(1.0634824,0,0,-1.0598323,6.1827309,61.07804)" d="M 0 0 L 6.6836 0 L 6.6836 12.606 L 0 12.606 Z " fill-rule="evenodd"/>
</clipPath>
<g clip-path="url(#cp11)">
<path transform="matrix(1.0634824,0,0,-1.0598323,6.1827309,61.07804)" d="M 5.146 5.371 C 5.146 5.1502 5.0972 4.9384 4.9996 4.7359 C 4.9019 4.5332 4.7711 4.3601 4.6071 4.2168 C 4.4222 4.055 4.2181 3.9352 3.9949 3.8571 C 3.7718 3.7787 3.5386 3.7397 3.2955 3.7397 C 3.0762 3.7397 2.8624 3.7705 2.6537 3.8321 C 2.445 3.8936 2.2569 3.9819 2.0891 4.0973 C 1.9213 4.2127 1.7873 4.3543 1.6868 4.5224 C 1.5863 4.6903 1.5361 4.8833 1.5361 5.1017 C 1.5361 5.2657 1.5909 5.3881 1.7005 5.4688 C 1.8102 5.5496 1.9258 5.59 2.0473 5.5903 C 2.1742 5.59 2.2923 5.5496 2.4019 5.4688 C 2.5116 5.3881 2.5664 5.2657 2.5664 5.1017 C 2.5664 5.004 2.5474 4.9225 2.5089 4.8571 C 2.4707 4.7917 2.4219 4.7371 2.3623 4.6936 C 2.3029 4.6499 2.2348 4.6232 2.1581 4.6131 C 2.1187 4.6025 2.0817 4.5974 2.0473 4.5977 C 2.0131 4.5974 2.0078 4.5948 2.0314 4.59 C 2.1134 4.4462 2.2745 4.319 2.515 4.2089 C 2.7554 4.0985 3.0156 4.0434 3.2955 4.0437 C 3.4277 4.0434 3.5511 4.0761 3.666 4.1415 C 3.7809 4.2069 3.8769 4.2947 3.9533 4.4053 C 4.0486 4.5486 4.1133 4.7025 4.1476 4.8667 C 4.182 5.0307 4.1991 5.1988 4.1991 5.371 C 4.1991 5.5477 4.182 5.7175 4.1476 5.8805 C 4.1133 6.0433 4.0486 6.1941 3.9533 6.3328 C 3.874 6.4453 3.7776 6.5365 3.6641 6.6057 C 3.5506 6.675 3.4277 6.7096 3.2955 6.7098 L 2.721 6.7098 C 2.6446 6.7096 2.6034 6.7454 2.5982 6.8176 L 2.5982 6.8599 C 2.5982 6.8904 2.6075 6.9147 2.6258 6.933 C 2.6496 6.9558 2.6799 6.9674 2.7169 6.9676 C 2.7936 6.9777 2.873 6.9827 2.9547 6.983 C 3.0341 6.9827 3.112 6.9878 3.1885 6.9984 C 3.3313 7.0085 3.4554 7.0525 3.5612 7.1309 C 3.667 7.209 3.7555 7.309 3.8266 7.4309 C 3.8978 7.5526 3.9519 7.693 3.9889 7.8522 C 4.026 8.0112 4.0445 8.1742 4.0445 8.3411 C 4.0445 8.4639 4.0313 8.5806 4.0048 8.6909 C 3.9784 8.8011 3.9295 8.8975 3.8581 8.9797 C 3.7103 9.1488 3.5227 9.2322 3.2955 9.2298 C 3.0526 9.2295 2.8299 9.1839 2.628 9.093 C 2.426 9.0018 2.2904 8.9037 2.2216 8.7989 C 2.2033 8.796 2.2125 8.7948 2.2495 8.795 C 2.3447 8.7948 2.4344 8.7667 2.5188 8.7104 C 2.6458 8.6359 2.709 8.5101 2.709 8.3334 C 2.709 8.1843 2.6609 8.072 2.5645 7.9965 C 2.4681 7.9208 2.3603 7.883 2.2416 7.8832 C 2.1252 7.883 2.0163 7.92 1.9145 7.9946 C 1.8128 8.0689 1.7619 8.1819 1.7619 8.3334 C 1.7619 8.5204 1.8068 8.6856 1.8967 8.8294 C 1.9867 8.973 2.1021 9.0961 2.2435 9.1988 C 2.3849 9.3012 2.5479 9.3796 2.7328 9.4335 C 2.918 9.4873 3.1055 9.5142 3.2955 9.5145 C 3.4989 9.5142 3.6958 9.4873 3.886 9.4335 C 4.0762 9.3796 4.2558 9.2962 4.4249 9.1836 C 4.5624 9.086 4.6778 8.966 4.7716 8.8237 C 4.8654 8.6813 4.9123 8.5204 4.9123 8.3411 C 4.9123 8.1612 4.8801 7.9919 4.8154 7.833 C 4.7507 7.6738 4.6649 7.5303 4.5579 7.4021 C 4.4508 7.2737 4.3234 7.1609 4.1753 7.0635 C 4.0274 6.9659 3.9163 6.9046 3.8423 6.8791 C 3.9057 6.8712 4.0142 6.8332 4.1674 6.7654 C 4.3208 6.6973 4.4672 6.6069 4.6071 6.4944 C 4.7711 6.353 4.9019 6.1844 4.9996 5.9882 C 5.0972 5.792 5.146 5.5862 5.146 5.371 Z " fill-rule="evenodd"/>
</g>
<clipPath id="cp12">
<path transform="matrix(1.0634202,0,0,-1.0598323,6.0540568,35.85797)" d="M 0 0 L 6.9263 0 L 6.9263 12.606 L 0 12.606 Z " fill-rule="evenodd"/>
</clipPath>
<g clip-path="url(#cp12)">
<path transform="matrix(1.0634202,0,0,-1.0598323,6.0540568,35.85797)" d="M 4.5357 5.2902 L 4.5357 4.5092 C 4.5357 4.4628 4.5444 4.4197 4.5615 4.3801 C 4.5788 4.3402 4.6071 4.3139 4.6466 4.3014 C 4.7076 4.2731 4.8067 4.2574 4.944 4.255 C 5.0813 4.2524 5.2201 4.2512 5.36 4.2514 L 5.36 3.9206 C 4.9558 3.9359 4.5595 3.9436 4.1712 3.9436 C 3.7882 3.9436 3.3852 3.9359 2.9624 3.9206 L 2.9624 4.2514 C 3.1079 4.2512 3.2481 4.2524 3.3827 4.255 C 3.5174 4.2574 3.6179 4.2731 3.6838 4.3014 C 3.7235 4.3139 3.7526 4.3402 3.7711 4.3801 C 3.7896 4.4197 3.7987 4.4628 3.7987 4.5092 L 3.7987 5.2902 L 1.5399 5.2902 L 1.5399 5.6018 L 4.1871 9.5376 C 4.2215 9.5835 4.265 9.6066 4.3179 9.6068 L 4.4049 9.6068 C 4.4922 9.6066 4.5357 9.5631 4.5357 9.476 L 4.5357 5.6287 L 5.3877 5.6287 L 5.3877 5.2902 Z M 3.8384 8.5257 L 1.8886 5.6287 L 3.8384 5.6287 Z " fill-rule="evenodd"/>
</g>
<clipPath id="cp13">
<path transform="matrix(1.0634594,0,0,-1.0598323,6.1572086,136.0499)" d="M 0 0 L 6.7322 0 L 6.7322 12.606 L 0 12.606 Z " fill-rule="evenodd"/>
</clipPath>
<g clip-path="url(#cp13)">
<path transform="matrix(1.0634594,0,0,-1.0598323,6.1572086,136.0499)" d="M 5.1943 6.5983 C 5.1943 6.2287 5.1686 5.8613 5.1171 5.4958 C 5.0657 5.1303 4.9382 4.7872 4.7348 4.4669 C 4.5896 4.2331 4.3953 4.0538 4.1522 3.9283 C 3.9093 3.8025 3.6451 3.7397 3.3597 3.7397 C 3.0851 3.7397 2.8254 3.8025 2.5811 3.9283 C 2.3368 4.0538 2.1418 4.2331 1.9965 4.4669 C 1.7931 4.7872 1.6657 5.1303 1.6142 5.4958 C 1.5627 5.8613 1.5368 6.2287 1.5368 6.5983 C 1.5368 6.9724 1.5627 7.3463 1.6142 7.7195 C 1.6657 8.0927 1.7931 8.4421 1.9965 8.7681 C 2.1418 9.0038 2.336 9.1872 2.5791 9.318 C 2.8222 9.4488 3.0824 9.5142 3.3597 9.5145 C 3.6424 9.5142 3.906 9.4488 4.1503 9.318 C 4.3946 9.1872 4.5896 9.0038 4.7348 8.7681 C 4.9382 8.4421 5.0657 8.0927 5.1171 7.7195 C 5.1686 7.3463 5.1943 6.9724 5.1943 6.5983 Z M 4.4097 6.7329 C 4.4097 6.8943 4.4085 7.0647 4.4059 7.2444 C 4.4032 7.4237 4.3965 7.5995 4.3859 7.7714 C 4.3753 7.9431 4.3563 8.1054 4.3284 8.2581 C 4.3008 8.4106 4.2671 8.5409 4.2275 8.6488 C 4.1483 8.8229 4.0322 8.966 3.8788 9.0776 C 3.7256 9.1891 3.5525 9.2449 3.3597 9.2452 C 3.1721 9.2449 3.0026 9.1884 2.8506 9.0757 C 2.6987 8.9626 2.583 8.8205 2.5036 8.6488 C 2.4642 8.5409 2.4305 8.4106 2.4027 8.2581 C 2.375 8.1054 2.3558 7.9431 2.3452 7.7714 C 2.3346 7.5995 2.3281 7.4237 2.3255 7.2444 C 2.3228 7.0647 2.3214 6.8943 2.3214 6.7329 C 2.3214 6.5531 2.3228 6.3638 2.3255 6.1652 C 2.3281 5.9663 2.3346 5.774 2.3452 5.5881 C 2.3558 5.402 2.375 5.2257 2.4027 5.0591 C 2.4305 4.8922 2.4642 4.7525 2.5036 4.64 C 2.5777 4.4524 2.6922 4.2986 2.8465 4.1781 C 3.0011 4.0574 3.1721 3.9973 3.3597 3.9975 C 3.5554 3.9973 3.7304 4.0574 3.8848 4.1781 C 4.0394 4.2986 4.1536 4.4524 4.2275 4.64 C 4.2671 4.7525 4.3008 4.8922 4.3284 5.0591 C 4.3563 5.2257 4.3753 5.402 4.3859 5.5881 C 4.3965 5.774 4.4032 5.9663 4.4059 6.1652 C 4.4085 6.3638 4.4097 6.5531 4.4097 6.7329 Z " fill-rule="evenodd"/>
</g>
<clipPath id="cp14">
<path transform="matrix(1.0634146,0,0,-1.0598323,3.9878293,160.82855)" d="M 0 0 L 10.812 0 L 10.812 12.606 L 0 12.606 Z " fill-rule="evenodd"/>
</clipPath>
<g clip-path="url(#cp14)">
<path transform="matrix(1.0634146,0,0,-1.0598323,3.9878293,160.82855)" stroke-width=".3216" stroke-linecap="round" stroke-miterlimit="10" stroke-linejoin="miter" fill="none" stroke="#000000" d="M 1.5 6.3032 L 4.9894 6.3032 "/>
<path transform="matrix(1.0634146,0,0,-1.0598323,3.9878293,160.82855)" d="M 9.2802 3.9206 C 8.7942 3.9359 8.3213 3.9436 7.8615 3.9436 C 7.402 3.9436 6.929 3.9359 6.4428 3.9206 L 6.4428 4.2514 L 6.7165 4.2514 C 6.8035 4.2512 6.8855 4.2524 6.962 4.255 C 7.0387 4.2574 7.1113 4.2639 7.1801 4.2743 C 7.2488 4.2844 7.3082 4.2947 7.3583 4.3053 C 7.4006 4.3127 7.4357 4.3363 7.4633 4.3762 C 7.4912 4.4159 7.5049 4.4601 7.5049 4.5092 L 7.5049 8.8451 C 7.3729 8.7806 7.2104 8.7318 7.0175 8.6986 C 6.8247 8.6652 6.6133 8.6486 6.3834 8.6488 L 6.3834 8.9759 C 6.7006 8.9756 6.9932 9.0134 7.2613 9.0891 C 7.5295 9.1646 7.7613 9.3065 7.9567 9.5145 L 8.0796 9.5145 C 8.1667 9.5142 8.2102 9.4719 8.2102 9.3875 L 8.2102 4.5092 C 8.2102 4.4577 8.2234 4.4128 8.2499 4.3743 C 8.2763 4.3358 8.3148 4.3127 8.3648 4.3053 C 8.4071 4.2947 8.4615 4.2844 8.5273 4.2743 C 8.5935 4.2639 8.668 4.2574 8.7512 4.255 C 8.8344 4.2524 8.9157 4.2512 8.9948 4.2514 L 9.2802 4.2514 L 9.2802 3.9206 Z " fill-rule="evenodd"/>
</g>
<path transform="matrix(.053171059,0,0,-.052991138,0,178.79998)" d="M 397.19 932.8 L 402.45 932.87 L 407.51 933.05 L 412.52 933.37 L 417.52 933.8 L 422.49 934.35 L 427.43 935.03 L 432.35 935.83 L 437.24 936.74 L 442.11 937.77 L 446.97 938.92 L 456.67 941.58 L 466.21 944.68 L 475.67 948.23 L 485.04 952.23 L 494.33 956.66 L 503.54 961.52 L 512.68 966.81 L 521.75 972.52 L 530.75 978.64 L 539.68 985.17 L 548.53 992.08 L 557.32 999.4 L 566.04 1007.09 L 574.69 1015.16 L 583.29 1023.6 L 591.82 1032.4 L 600.27 1041.56 L 608.67 1051.05 L 617.01 1060.89 L 625.29 1071.05 L 633.5 1081.54 L 641.65 1092.33 L 649.76 1103.43 L 657.8 1114.83 L 665.79 1126.52 L 673.73 1138.48 L 681.61 1150.72 L 689.44 1163.22 L 697.23 1175.97 L 704.96 1188.98 L 712.65 1202.22 L 720.29 1215.69 L 727.89 1229.38 L 735.44 1243.28 L 742.97 1257.4 L 750.44 1271.71 L 757.89 1286.21 L 765.29 1300.89 L 772.66 1315.75 L 780 1330.77 L 787.31 1345.94 L 794.58 1361.26 L 801.83 1376.72 L 809.05 1392.32 L 816.25 1408.04 L 830.58 1439.83 L 844.84 1472.01 L 859.02 1504.51 L 873.16 1537.29 L 887.25 1570.26 L 901.32 1603.37 L 915.38 1636.56 L 929.45 1669.75 L 943.53 1702.89 L 957.64 1735.9 L 971.8 1768.72 L 986.01 1801.29 L 1000.3 1833.55 L 1014.68 1865.43 L 1021.9 1881.22 L 1029.15 1896.88 L 1036.44 1912.41 L 1043.74 1927.8 L 1051.09 1943.05 L 1058.46 1958.14 L 1065.88 1973.09 L 1073.33 1987.86 L 1080.82 2002.45 L 1088.34 2016.86 L 1095.93 2031.09 L 1103.54 2045.11 L 1111.2 2058.92 L 1118.92 2072.52 L 1126.69 2085.89 L 1134.51 2099.03 L 1142.38 2111.94 L 1150.31 2124.59 L 1158.29 2136.99 L 1166.34 2149.13 L 1174.46 2160.99 L 1182.64 2172.57 L 1190.88 2183.87 L 1199.19 2194.87 L 1207.57 2205.57 L 1216.03 2215.96 L 1224.57 2226.03 L 1233.18 2235.76 L 1241.87 2245.17 L 1250.66 2254.23 L 1259.51 2262.94 L 1268.46 2271.28 L 1277.5 2279.26 L 1286.64 2286.85 L 1295.86 2294.07 L 1305.19 2300.88 L 1314.62 2307.29 L 1324.15 2313.29 L 1333.79 2318.87 L 1343.54 2324.01 L 1353.38 2328.71 L 1363.35 2332.96 L 1373.42 2336.74 L 1383.61 2340.05 L 1393.91 2342.88 L 1399.2 2344.13 L 1404.42 2345.24 L 1408.56 2346.01 L 1411.31 2331.27 L 1407.51 2330.56 L 1402.64 2329.53 L 1397.87 2328.41 L 1388.24 2325.78 L 1378.69 2322.69 L 1369.22 2319.15 L 1359.84 2315.17 L 1350.52 2310.73 L 1341.29 2305.88 L 1332.14 2300.6 L 1323.05 2294.88 L 1314.03 2288.77 L 1305.1 2282.25 L 1296.23 2275.32 L 1287.42 2268 L 1278.69 2260.31 L 1270.03 2252.24 L 1261.42 2243.79 L 1252.88 2234.98 L 1244.42 2225.83 L 1236.01 2216.32 L 1227.66 2206.49 L 1219.38 2196.32 L 1211.16 2185.83 L 1203 2175.03 L 1194.89 2163.92 L 1186.84 2152.52 L 1178.84 2140.84 L 1170.91 2128.87 L 1163.02 2116.62 L 1155.18 2104.12 L 1147.4 2091.36 L 1139.66 2078.36 L 1131.96 2065.11 L 1124.32 2051.64 L 1116.72 2037.95 L 1109.16 2024.04 L 1101.64 2009.92 L 1094.16 1995.6 L 1086.72 1981.11 L 1079.32 1966.42 L 1071.94 1951.56 L 1064.6 1936.54 L 1057.29 1921.36 L 1050.02 1906.04 L 1042.77 1890.57 L 1035.54 1874.97 L 1028.35 1859.26 L 1014.02 1827.48 L 999.76 1795.3 L 985.58 1762.78 L 971.43 1730 L 957.33 1697.02 L 943.26 1663.9 L 929.2 1630.71 L 915.13 1597.5 L 901.05 1564.36 L 886.93 1531.35 L 872.76 1498.51 L 858.55 1465.93 L 844.26 1433.67 L 829.88 1401.8 L 822.66 1386.02 L 815.41 1370.36 L 808.13 1354.83 L 800.82 1339.43 L 793.47 1324.18 L 786.1 1309.08 L 778.68 1294.14 L 771.23 1279.36 L 763.74 1264.77 L 756.21 1250.35 L 748.63 1236.12 L 741.01 1222.1 L 733.34 1208.28 L 725.62 1194.69 L 717.85 1181.31 L 710.03 1168.16 L 702.15 1155.25 L 694.22 1142.6 L 686.23 1130.19 L 678.18 1118.05 L 670.06 1106.18 L 661.87 1094.59 L 653.63 1083.29 L 645.31 1072.28 L 636.92 1061.58 L 628.45 1051.18 L 619.91 1041.11 L 611.29 1031.38 L 602.59 1021.96 L 593.79 1012.9 L 584.93 1004.19 L 575.97 995.84 L 566.91 987.86 L 557.76 980.26 L 548.52 973.05 L 539.18 966.24 L 529.73 959.82 L 520.19 953.83 L 510.54 948.26 L 500.77 943.12 L 490.91 938.43 L 480.93 934.19 L 470.84 930.42 L 460.64 927.11 L 450.41 924.32 L 445.21 923.09 L 439.99 921.99 L 434.74 921.02 L 429.46 920.17 L 424.14 919.45 L 418.82 918.86 L 413.45 918.39 L 408.05 918.06 L 402.64 917.87 L 397.39 917.8 C 393.24 917.75 389.84 921.06 389.79 925.21 C 389.74 929.35 393.05 932.75 397.19 932.8 Z M 1444.26 2386.47 L 1477.16 2376.46 L 1492.83 2345.12 L 1482.82 2312.22 L 1451.48 2296.55 L 1418.58 2306.57 L 1402.91 2337.91 L 1412.92 2370.8 Z M 1422.52 2358.83 L 1426.34 2363.35 L 1418.13 2336.4 L 1417.67 2341.94 L 1430.56 2316.16 L 1426.03 2319.98 L 1452.99 2311.77 L 1447.45 2311.31 L 1473.23 2324.2 L 1469.41 2319.67 L 1477.61 2346.63 L 1478.08 2341.09 L 1465.19 2366.87 L 1469.71 2363.05 L 1442.76 2371.25 L 1448.3 2371.72 Z " fill="#990000"/>
<path transform="matrix(.053171059,0,0,-.052991138,0,178.79998)" stroke-width="7.5" stroke-linecap="round" stroke-dasharray="30,15" stroke-linejoin="round" fill="none" stroke="#000000" d="M 4588.95 346.58 L 4588.95 3159.08 "/>
<path transform="matrix(.053171059,0,0,-.052991138,0,178.79998)" d="M 1930.69 932.8 L 1941.18 932.72 L 1951.69 932.46 L 1962.09 932.04 L 1972.38 931.45 L 1982.58 930.7 L 1992.67 929.79 L 2002.66 928.72 L 2012.55 927.5 L 2022.35 926.12 L 2032.05 924.6 L 2041.66 922.93 L 2051.18 921.11 L 2060.61 919.15 L 2069.94 917.07 L 2079.2 914.83 L 2088.36 912.47 L 2097.44 909.98 L 2106.44 907.36 L 2115.35 904.62 L 2124.19 901.75 L 2141.59 895.7 L 2158.74 889.16 L 2175.6 882.19 L 2192.2 874.82 L 2208.54 867.06 L 2224.63 858.93 L 2240.5 850.47 L 2256.15 841.69 L 2271.59 832.6 L 2286.85 823.24 L 2301.93 813.63 L 2316.85 803.78 L 2331.62 793.74 L 2346.26 783.5 L 2360.77 773.09 L 2375.19 762.54 L 2389.51 751.86 L 2403.75 741.09 L 2432.06 719.34 L 2460.23 697.42 L 2488.37 675.52 L 2516.6 653.84 L 2530.75 643.13 L 2544.98 632.53 L 2559.28 622.06 L 2573.67 611.75 L 2588.15 601.61 L 2602.76 591.68 L 2617.49 581.96 L 2632.36 572.47 L 2647.39 563.26 L 2662.58 554.32 L 2677.96 545.69 L 2693.53 537.38 L 2709.31 529.41 L 2725.32 521.81 L 2741.56 514.59 L 2758.05 507.79 L 2774.81 501.4 L 2791.84 495.47 L 2800.42 492.68 L 2809.12 490.01 L 2817.9 487.45 L 2826.75 485.03 L 2835.69 482.72 L 2844.71 480.55 L 2853.81 478.51 L 2863.01 476.6 L 2872.28 474.83 L 2881.65 473.2 L 2891.11 471.72 L 2900.66 470.38 L 2910.31 469.19 L 2920.06 468.14 L 2929.9 467.25 L 2939.85 466.52 L 2943.57 466.31 L 2942.71 451.33 L 2938.75 451.56 L 2928.56 452.32 L 2918.46 453.23 L 2908.47 454.3 L 2898.58 455.52 L 2888.78 456.9 L 2879.08 458.43 L 2869.47 460.1 L 2859.96 461.91 L 2850.54 463.87 L 2841.19 465.96 L 2831.94 468.2 L 2822.79 470.56 L 2813.7 473.05 L 2804.71 475.67 L 2795.79 478.41 L 2786.91 481.3 L 2769.46 487.38 L 2752.32 493.92 L 2735.46 500.89 L 2718.88 508.26 L 2702.55 516.02 L 2686.47 524.15 L 2670.62 532.61 L 2654.98 541.39 L 2639.54 550.47 L 2624.3 559.83 L 2609.23 569.44 L 2594.32 579.28 L 2579.56 589.32 L 2564.93 599.56 L 2550.42 609.96 L 2536.02 620.5 L 2521.7 631.17 L 2507.46 641.95 L 2479.16 663.69 L 2451.02 685.58 L 2422.92 707.44 L 2394.7 729.13 L 2380.55 739.84 L 2366.33 750.43 L 2352.03 760.9 L 2337.66 771.2 L 2323.18 781.33 L 2308.58 791.27 L 2293.86 800.98 L 2279 810.45 L 2263.99 819.67 L 2248.8 828.61 L 2233.43 837.24 L 2217.87 845.54 L 2202.1 853.51 L 2186.1 861.11 L 2169.88 868.33 L 2153.4 875.14 L 2136.65 881.53 L 2119.56 887.49 L 2110.94 890.29 L 2102.25 892.96 L 2093.47 895.52 L 2084.61 897.95 L 2075.68 900.25 L 2066.67 902.43 L 2057.55 904.47 L 2048.37 906.38 L 2039.09 908.15 L 2029.72 909.78 L 2020.27 911.27 L 2010.72 912.61 L 2001.06 913.8 L 1991.32 914.85 L 1981.47 915.74 L 1971.52 916.47 L 1961.48 917.05 L 1951.32 917.47 L 1941.06 917.72 L 1930.57 917.8 C 1926.43 917.84 1923.1 921.22 1923.13 925.36 C 1923.16 929.5 1926.54 932.84 1930.69 932.8 Z M 2982.04 502.12 L 3014.69 487.93 L 3026.19 456.31 L 3011.99 423.65 L 2980.37 412.15 L 2947.88 426.28 L 2934.92 457.96 L 2950.57 490.68 Z M 2958.57 477.63 L 2962.78 481.44 L 2949.89 454.49 L 2950.06 460.56 L 2960.61 434.78 L 2956.66 438.82 L 2983.61 427.1 L 2978.06 427.27 L 3003.84 436.65 L 2999.52 432.59 L 3011.24 459.54 L 3011.07 453.99 L 3001.7 479.77 L 3005.76 475.46 L 2978.8 487.18 L 2984.36 487 Z " fill="#274e13"/>
<path transform="matrix(.053171059,0,0,-.052991138,0,178.79998)" d="M 4099.81 936.22 L 4102.3 936.71 L 4106.76 937.74 L 4111.14 938.87 L 4119.78 941.51 L 4128.07 944.57 L 4136.08 948.07 L 4143.84 952 L 4151.36 956.35 L 4158.63 961.13 L 4165.69 966.32 L 4172.52 971.92 L 4179.13 977.93 L 4185.52 984.34 L 4191.71 991.15 L 4197.71 998.34 L 4203.48 1005.92 L 4209.08 1013.88 L 4214.47 1022.21 L 4219.67 1030.91 L 4224.7 1039.96 L 4229.53 1049.36 L 4234.17 1059.1 L 4238.66 1069.18 L 4242.95 1079.58 L 4247.08 1090.3 L 4251.05 1101.33 L 4254.85 1112.64 L 4258.49 1124.27 L 4261.97 1136.17 L 4265.31 1148.35 L 4268.51 1160.79 L 4271.55 1173.49 L 4274.46 1186.44 L 4277.24 1199.64 L 4279.88 1213.06 L 4282.4 1226.71 L 4284.8 1240.57 L 4287.08 1254.64 L 4289.25 1268.91 L 4291.32 1283.38 L 4293.28 1298.02 L 4295.14 1312.84 L 4296.91 1327.82 L 4298.6 1342.97 L 4300.19 1358.25 L 4301.71 1373.69 L 4303.15 1389.26 L 4304.52 1404.94 L 4307.07 1436.68 L 4309.4 1468.8 L 4311.54 1501.25 L 4313.53 1533.97 L 4315.41 1566.9 L 4317.21 1599.96 L 4318.97 1633.1 L 4320.73 1666.25 L 4322.53 1699.34 L 4324.41 1732.32 L 4326.4 1765.1 L 4328.55 1797.64 L 4330.88 1829.87 L 4333.44 1861.72 L 4334.83 1877.5 L 4336.28 1893.14 L 4337.8 1908.66 L 4339.4 1924.04 L 4341.1 1939.29 L 4342.88 1954.38 L 4344.76 1969.31 L 4346.74 1984.08 L 4348.81 1998.68 L 4351.01 2013.09 L 4353.32 2027.32 L 4355.74 2041.33 L 4358.3 2055.16 L 4360.98 2068.76 L 4363.8 2082.15 L 4366.75 2095.3 L 4369.85 2108.23 L 4373.09 2120.9 L 4376.5 2133.33 L 4380.06 2145.49 L 4383.79 2157.39 L 4387.7 2169.01 L 4391.77 2180.35 L 4396.03 2191.39 L 4400.47 2202.14 L 4405.11 2212.58 L 4409.95 2222.72 L 4414.99 2232.52 L 4420.25 2241.99 L 4425.71 2251.13 L 4431.41 2259.92 L 4437.33 2268.35 L 4443.49 2276.42 L 4449.9 2284.11 L 4456.54 2291.42 L 4463.44 2298.33 L 4470.61 2304.84 L 4478.04 2310.93 L 4485.74 2316.6 L 4493.7 2321.82 L 4501.95 2326.6 L 4510.47 2330.91 L 4519.27 2334.75 L 4528.36 2338.1 L 4537.71 2340.97 L 4542.6 2342.24 L 4547.47 2343.36 L 4550.15 2343.9 L 4553.1 2329.19 L 4550.81 2328.73 L 4546.36 2327.72 L 4542.09 2326.62 L 4533.53 2324.03 L 4525.25 2320.99 L 4517.22 2317.51 L 4509.45 2313.6 L 4501.92 2309.27 L 4494.61 2304.51 L 4487.54 2299.33 L 4480.68 2293.73 L 4474.05 2287.73 L 4467.63 2281.32 L 4461.42 2274.5 L 4455.41 2267.31 L 4449.6 2259.73 L 4444 2251.76 L 4438.58 2243.42 L 4433.36 2234.71 L 4428.33 2225.66 L 4423.49 2216.25 L 4418.82 2206.49 L 4414.33 2196.41 L 4410.02 2185.99 L 4405.88 2175.27 L 4401.91 2164.23 L 4398.11 2152.9 L 4394.46 2141.27 L 4390.97 2129.36 L 4387.62 2117.18 L 4384.43 2104.73 L 4381.38 2092.02 L 4378.47 2079.07 L 4375.7 2065.86 L 4373.05 2052.43 L 4370.52 2038.78 L 4368.13 2024.91 L 4365.84 2010.83 L 4363.66 1996.57 L 4361.6 1982.09 L 4359.64 1967.45 L 4357.78 1952.62 L 4356.01 1937.64 L 4354.32 1922.49 L 4352.73 1907.2 L 4351.21 1891.76 L 4349.77 1876.19 L 4348.39 1860.51 L 4345.84 1828.79 L 4343.52 1796.65 L 4341.38 1764.2 L 4339.39 1731.46 L 4337.51 1698.53 L 4335.71 1665.45 L 4333.95 1632.3 L 4332.18 1599.15 L 4330.38 1566.04 L 4328.5 1533.06 L 4326.51 1500.26 L 4324.36 1467.72 L 4322.02 1435.47 L 4319.46 1403.64 L 4318.09 1387.87 L 4316.63 1372.22 L 4315.11 1356.7 L 4313.5 1341.31 L 4311.81 1326.06 L 4310.03 1310.97 L 4308.14 1296.03 L 4306.17 1281.26 L 4304.08 1266.65 L 4301.89 1252.24 L 4299.58 1238.01 L 4297.15 1223.99 L 4294.6 1210.16 L 4291.92 1196.55 L 4289.1 1183.15 L 4286.14 1170 L 4283.04 1157.06 L 4279.78 1144.38 L 4276.37 1131.95 L 4272.8 1119.78 L 4269.07 1107.88 L 4265.17 1096.25 L 4261.08 1084.89 L 4256.81 1073.85 L 4252.36 1063.08 L 4247.71 1052.64 L 4242.86 1042.49 L 4237.81 1032.68 L 4232.54 1023.2 L 4227.05 1014.05 L 4221.34 1005.25 L 4215.4 996.82 L 4209.22 988.73 L 4202.8 981.05 L 4196.13 973.74 L 4189.2 966.82 L 4182.02 960.31 L 4174.56 954.23 L 4166.85 948.58 L 4158.85 943.36 L 4150.59 938.61 L 4142.06 934.32 L 4133.24 930.5 L 4124.16 927.17 L 4114.89 924.35 L 4110.1 923.11 L 4105.25 922.01 L 4102.76 921.51 Z M 4069.44 879.76 L 4035.35 889.7 L 4019.58 919.81 L 4029.52 953.9 L 4059.63 969.68 L 4093.72 959.73 L 4109.5 929.62 L 4099.55 895.53 Z M 4089.77 907.34 L 4086.05 902.79 L 4094.25 930.92 L 4094.81 925.34 L 4081.92 949.95 L 4086.46 946.23 L 4058.33 954.43 L 4063.91 954.99 L 4039.31 942.1 L 4043.03 946.64 L 4034.82 918.52 L 4034.27 924.1 L 4047.16 899.49 L 4042.61 903.21 L 4070.74 895 L 4065.16 894.45 Z M 4584.62 2385.43 L 4618.8 2374.04 L 4634.5 2344.07 L 4624.55 2309.98 L 4594.44 2294.21 L 4560.27 2304.18 L 4544.58 2335.56 L 4554.52 2368.23 Z M 4564.55 2356.68 L 4568 2361.01 L 4559.8 2334.06 L 4559.33 2339.59 L 4572.22 2313.81 L 4567.61 2317.66 L 4595.74 2309.46 L 4590.16 2308.9 L 4614.77 2321.79 L 4611.05 2317.25 L 4619.25 2345.37 L 4619.81 2339.79 L 4606.92 2364.4 L 4611.19 2360.77 L 4583.06 2370.14 L 4589.16 2370.74 Z " fill="#990000"/>
<path transform="matrix(.053171059,0,0,-.052991138,0,178.79998)" d="M 4626.9 2347.21 L 4629.23 2347.07 L 4638.62 2346.32 L 4647.73 2345.4 L 4656.56 2344.32 L 4665.14 2343.09 L 4673.45 2341.7 L 4681.51 2340.16 L 4689.32 2338.48 L 4696.9 2336.63 L 4704.23 2334.65 L 4711.32 2332.53 L 4718.18 2330.26 L 4724.82 2327.85 L 4731.23 2325.31 L 4737.43 2322.62 L 4743.4 2319.81 L 4749.18 2316.87 L 4754.74 2313.8 L 4760.09 2310.61 L 4765.25 2307.3 L 4770.22 2303.86 L 4774.99 2300.31 L 4779.57 2296.66 L 4783.97 2292.89 L 4788.19 2289.01 L 4792.23 2285.03 L 4796.1 2280.95 L 4799.8 2276.78 L 4803.33 2272.52 L 4806.7 2268.17 L 4809.92 2263.73 L 4812.98 2259.23 L 4815.91 2254.63 L 4818.69 2249.97 L 4821.32 2245.24 L 4823.84 2240.44 L 4826.22 2235.58 L 4830.59 2225.78 L 4834.57 2215.67 L 4838.14 2205.37 L 4841.34 2194.91 L 4844.23 2184.31 L 4846.84 2173.58 L 4849.21 2162.76 L 4851.38 2151.87 L 4853.39 2140.91 L 4855.29 2129.92 L 4858.86 2107.92 L 4862.42 2085.99 L 4864.29 2075.15 L 4866.27 2064.38 L 4868.39 2053.74 L 4870.69 2043.22 L 4873.21 2032.86 L 4875.98 2022.69 L 4879.04 2012.71 L 4882.42 2002.96 L 4886.15 1993.45 L 4890.28 1984.21 L 4892.46 1979.76 L 4894.79 1975.32 L 4897.22 1970.95 L 4899.78 1966.66 L 4902.46 1962.44 L 4905.27 1958.31 L 4908.22 1954.26 L 4911.29 1950.3 L 4914.51 1946.41 L 4917.88 1942.61 L 4921.4 1938.9 L 4925.07 1935.28 L 4928.91 1931.76 L 4932.91 1928.33 L 4937.09 1924.99 L 4941.45 1921.75 L 4945.99 1918.61 L 4950.72 1915.57 L 4955.65 1912.64 L 4960.78 1909.81 L 4966.11 1907.09 L 4971.67 1904.48 L 4977.44 1901.98 L 4983.42 1899.61 L 4989.65 1897.35 L 4996.1 1895.21 L 5002.8 1893.21 L 5009.75 1891.33 L 5016.95 1889.57 L 5024.39 1887.97 L 5032.11 1886.5 L 5040.08 1885.16 L 5048.33 1883.98 L 5056.85 1882.95 L 5065.66 1882.05 L 5074.74 1881.33 L 5076.94 1881.19 L 5076.02 1866.22 L 5073.54 1866.37 L 5064.14 1867.13 L 5055.04 1868.06 L 5046.19 1869.13 L 5037.6 1870.37 L 5029.29 1871.76 L 5021.23 1873.31 L 5013.4 1875 L 5005.83 1876.85 L 4998.49 1878.84 L 4991.39 1880.97 L 4984.52 1883.25 L 4977.9 1885.66 L 4971.46 1888.22 L 4965.28 1890.91 L 4959.3 1893.73 L 4953.52 1896.68 L 4947.97 1899.76 L 4942.6 1902.96 L 4937.45 1906.28 L 4932.48 1909.72 L 4927.72 1913.28 L 4923.14 1916.95 L 4918.75 1920.72 L 4914.54 1924.6 L 4910.5 1928.59 L 4906.65 1932.67 L 4902.95 1936.85 L 4899.44 1941.1 L 4896.07 1945.46 L 4892.86 1949.89 L 4889.8 1954.4 L 4886.89 1958.99 L 4884.12 1963.65 L 4881.49 1968.37 L 4878.99 1973.17 L 4876.58 1978.1 L 4872.19 1987.97 L 4868.24 1998.05 L 4864.69 2008.32 L 4861.51 2018.74 L 4858.63 2029.33 L 4856.04 2040.01 L 4853.68 2050.81 L 4851.51 2061.68 L 4849.51 2072.6 L 4847.62 2083.58 L 4844.05 2105.52 L 4840.5 2127.37 L 4838.64 2138.21 L 4836.67 2148.94 L 4834.55 2159.56 L 4832.26 2170.05 L 4829.76 2180.37 L 4827 2190.53 L 4823.96 2200.47 L 4820.6 2210.2 L 4816.89 2219.67 L 4812.75 2228.98 L 4810.54 2233.5 L 4808.22 2237.94 L 4805.79 2242.3 L 4803.25 2246.59 L 4800.57 2250.8 L 4797.77 2254.94 L 4794.84 2258.99 L 4791.78 2262.95 L 4788.56 2266.84 L 4785.2 2270.64 L 4781.7 2274.35 L 4778.03 2277.97 L 4774.2 2281.51 L 4770.21 2284.94 L 4766.03 2288.29 L 4761.68 2291.53 L 4757.14 2294.68 L 4752.41 2297.73 L 4747.48 2300.68 L 4742.36 2303.51 L 4737.02 2306.24 L 4731.46 2308.86 L 4725.7 2311.36 L 4719.69 2313.75 L 4713.47 2316.02 L 4707.01 2318.16 L 4700.31 2320.17 L 4693.35 2322.06 L 4686.16 2323.82 L 4678.7 2325.43 L 4670.98 2326.91 L 4663 2328.25 L 4654.75 2329.43 L 4646.21 2330.47 L 4637.41 2331.37 L 4628.31 2332.1 L 4625.98 2332.24 Z M 4587.41 2295.36 L 4556.13 2309.58 L 4543.25 2342.47 L 4558.9 2373.76 L 4590.36 2386.63 L 4623.08 2370.98 L 4634.52 2339.51 L 4620.3 2306.8 Z M 4612.27 2319.89 L 4607.86 2315.79 L 4619.58 2342.75 L 4619.41 2337.19 L 4610.03 2362.97 L 4613.84 2358.77 L 4586.89 2371.66 L 4592.97 2371.49 L 4567.18 2360.94 L 4571.05 2364.53 L 4558.16 2338.75 L 4558.44 2344.83 L 4568.99 2317.88 L 4565.1 2321.97 L 4590.89 2310.26 L 4585.32 2310.51 Z M 5115.36 1917.88 L 5148.08 1902.23 L 5159.52 1870.76 L 5145.3 1838.05 L 5112.41 1826.61 L 5081.13 1840.83 L 5068.25 1873.72 L 5083.9 1905.01 Z M 5092.18 1892.19 L 5096.05 1895.78 L 5083.16 1870 L 5083.44 1876.08 L 5093.99 1849.13 L 5090.1 1853.22 L 5115.89 1841.51 L 5110.32 1841.76 L 5137.27 1851.14 L 5132.86 1847.04 L 5144.58 1874 L 5144.41 1868.44 L 5135.03 1894.22 L 5138.84 1890.02 L 5111.89 1902.91 L 5117.97 1902.74 Z " fill="#274e13"/>
<path transform="matrix(.053171059,0,0,-.052991138,0,178.79998)" d="M 431.23 925.3 C 431.23 905.42 415.12 889.3 395.23 889.3 C 375.35 889.3 359.23 905.42 359.23 925.3 C 359.23 945.18 375.35 961.3 395.23 961.3 C 415.12 961.3 431.23 945.18 431.23 925.3 Z " fill-rule="evenodd"/>
<path transform="matrix(.053171059,0,0,-.052991138,0,178.79998)" d="M 433.29 1398.44 C 433.29 1378.56 417.17 1362.44 397.29 1362.44 C 377.4 1362.44 361.29 1378.56 361.29 1398.44 C 361.29 1418.32 377.4 1434.44 397.29 1434.44 C 417.17 1434.44 433.29 1418.32 433.29 1398.44 Z " fill-rule="evenodd"/>
<path transform="matrix(.053171059,0,0,-.052991138,0,178.79998)" d="M 429.18 1874.37 C 429.18 1854.49 413.06 1838.37 393.18 1838.37 C 373.3 1838.37 357.18 1854.49 357.18 1874.37 C 357.18 1894.25 373.3 1910.37 393.18 1910.37 C 413.06 1910.37 429.18 1894.25 429.18 1874.37 Z " fill-rule="evenodd"/>
<path transform="matrix(.053171059,0,0,-.052991138,0,178.79998)" d="M 433.29 2342.9 C 433.29 2323.02 417.17 2306.9 397.29 2306.9 C 377.4 2306.9 361.29 2323.02 361.29 2342.9 C 361.29 2362.78 377.4 2378.9 397.29 2378.9 C 417.17 2378.9 433.29 2362.78 433.29 2342.9 Z " fill-rule="evenodd"/>
<path transform="matrix(.053171059,0,0,-.052991138,0,178.79998)" d="M 433.29 459.56 C 433.29 439.68 417.17 423.56 397.29 423.56 C 377.4 423.56 361.29 439.68 361.29 459.56 C 361.29 479.45 377.4 495.56 397.29 495.56 C 417.17 495.56 433.29 479.45 433.29 459.56 Z " fill-rule="evenodd"/>
<path transform="matrix(.053171059,0,0,-.052991138,0,178.79998)" d="M 433.29 2816.04 C 433.29 2796.16 417.17 2780.04 397.29 2780.04 C 377.4 2780.04 361.29 2796.16 361.29 2816.04 C 361.29 2835.92 377.4 2852.04 397.29 2852.04 C 417.17 2852.04 433.29 2835.92 433.29 2816.04 Z " fill-rule="evenodd"/>
<path transform="matrix(.053171059,0,0,-.052991138,0,178.79998)" d="M 1964.57 925.3 C 1964.57 905.42 1948.45 889.3 1928.57 889.3 C 1908.69 889.3 1892.57 905.42 1892.57 925.3 C 1892.57 945.18 1908.69 961.3 1928.57 961.3 C 1948.45 961.3 1964.57 945.18 1964.57 925.3 Z " fill-rule="evenodd"/>
<path transform="matrix(.053171059,0,0,-.052991138,0,178.79998)" d="M 1966.62 1398.44 C 1966.62 1378.56 1950.5 1362.44 1930.62 1362.44 C 1910.74 1362.44 1894.62 1378.56 1894.62 1398.44 C 1894.62 1418.32 1910.74 1434.44 1930.62 1434.44 C 1950.5 1434.44 1966.62 1418.32 1966.62 1398.44 Z " fill-rule="evenodd"/>
<path transform="matrix(.053171059,0,0,-.052991138,0,178.79998)" d="M 1962.51 1874.37 C 1962.51 1854.49 1946.4 1838.37 1926.51 1838.37 C 1906.63 1838.37 1890.51 1854.49 1890.51 1874.37 C 1890.51 1894.25 1906.63 1910.37 1926.51 1910.37 C 1946.4 1910.37 1962.51 1894.25 1962.51 1874.37 Z " fill-rule="evenodd"/>
<path transform="matrix(.053171059,0,0,-.052991138,0,178.79998)" d="M 1966.62 2342.9 C 1966.62 2323.02 1950.5 2306.9 1930.62 2306.9 C 1910.74 2306.9 1894.62 2323.02 1894.62 2342.9 C 1894.62 2362.78 1910.74 2378.9 1930.62 2378.9 C 1950.5 2378.9 1966.62 2362.78 1966.62 2342.9 Z " fill-rule="evenodd"/>
<path transform="matrix(.053171059,0,0,-.052991138,0,178.79998)" d="M 1966.62 459.56 C 1966.62 439.68 1950.5 423.56 1930.62 423.56 C 1910.74 423.56 1894.62 439.68 1894.62 459.56 C 1894.62 479.45 1910.74 495.56 1930.62 495.56 C 1950.5 495.56 1966.62 479.45 1966.62 459.56 Z " fill-rule="evenodd"/>
<path transform="matrix(.053171059,0,0,-.052991138,0,178.79998)" d="M 1966.62 2816.04 C 1966.62 2796.16 1950.5 2780.04 1930.62 2780.04 C 1910.74 2780.04 1894.62 2796.16 1894.62 2816.04 C 1894.62 2835.92 1910.74 2852.04 1930.62 2852.04 C 1950.5 2852.04 1966.62 2835.92 1966.62 2816.04 Z " fill-rule="evenodd"/>
<path transform="matrix(.053171059,0,0,-.052991138,0,178.79998)" d="M 4097.9 925.3 C 4097.9 905.42 4081.78 889.3 4061.9 889.3 C 4042.02 889.3 4025.9 905.42 4025.9 925.3 C 4025.9 945.18 4042.02 961.3 4061.9 961.3 C 4081.78 961.3 4097.9 945.18 4097.9 925.3 Z " fill-rule="evenodd"/>
<path transform="matrix(.053171059,0,0,-.052991138,0,178.79998)" d="M 4099.95 1398.44 C 4099.95 1378.56 4083.83 1362.44 4063.95 1362.44 C 4044.07 1362.44 4027.95 1378.56 4027.95 1398.44 C 4027.95 1418.32 4044.07 1434.44 4063.95 1434.44 C 4083.83 1434.44 4099.95 1418.32 4099.95 1398.44 Z " fill-rule="evenodd"/>
<path transform="matrix(.053171059,0,0,-.052991138,0,178.79998)" d="M 4095.84 1874.37 C 4095.84 1854.49 4079.73 1838.37 4059.84 1838.37 C 4039.96 1838.37 4023.84 1854.49 4023.84 1874.37 C 4023.84 1894.25 4039.96 1910.37 4059.84 1910.37 C 4079.73 1910.37 4095.84 1894.25 4095.84 1874.37 Z " fill-rule="evenodd"/>
<path transform="matrix(.053171059,0,0,-.052991138,0,178.79998)" d="M 4099.95 2342.9 C 4099.95 2323.02 4083.83 2306.9 4063.95 2306.9 C 4044.07 2306.9 4027.95 2323.02 4027.95 2342.9 C 4027.95 2362.78 4044.07 2378.9 4063.95 2378.9 C 4083.83 2378.9 4099.95 2362.78 4099.95 2342.9 Z " fill-rule="evenodd"/>
<path transform="matrix(.053171059,0,0,-.052991138,0,178.79998)" d="M 4099.95 459.56 C 4099.95 439.68 4083.83 423.56 4063.95 423.56 C 4044.07 423.56 4027.95 439.68 4027.95 459.56 C 4027.95 479.45 4044.07 495.56 4063.95 495.56 C 4083.83 495.56 4099.95 479.45 4099.95 459.56 Z " fill-rule="evenodd"/>
<path transform="matrix(.053171059,0,0,-.052991138,0,178.79998)" d="M 4099.95 2816.04 C 4099.95 2796.16 4083.83 2780.04 4063.95 2780.04 C 4044.07 2780.04 4027.95 2796.16 4027.95 2816.04 C 4027.95 2835.92 4044.07 2852.04 4063.95 2852.04 C 4083.83 2852.04 4099.95 2835.92 4099.95 2816.04 Z " fill-rule="evenodd"/>
<clipPath id="cp15">
<path transform="matrix(1.0634171,0,0,-1.0598236,44.176645,174.03098)" d="M 0 0 L 8.3942 0 L 8.3942 12.7 L 0 12.7 Z " fill-rule="evenodd"/>
</clipPath>
<g clip-path="url(#cp15)">
<path transform="matrix(1.0634171,0,0,-1.0598236,44.176645,174.03098)" d="M 4.7174 8.9482 C 4.7174 8.7595 4.6568 8.6175 4.5356 8.522 C 4.4144 8.4263 4.2795 8.3787 4.1313 8.379 C 3.9885 8.3787 3.8562 8.4263 3.735 8.522 C 3.6138 8.6175 3.5529 8.7595 3.5529 8.9482 C 3.5529 9.0528 3.5753 9.1428 3.6197 9.2189 C 3.6643 9.2947 3.6837 9.3315 3.6783 9.329 C 3.7566 9.3025 3.7782 9.2895 3.7431 9.2898 C 3.5463 9.2895 3.3861 9.2176 3.2619 9.0739 C 3.1893 8.9899 3.1393 8.8962 3.1123 8.7929 C 3.0853 8.6894 3.0718 8.575 3.0718 8.4497 L 3.0718 7.6606 L 3.8805 7.6606 L 3.8805 7.1424 L 3.1123 7.1424 L 3.1123 4.4689 L 3.8238 4.4689 L 3.8238 3.9468 C 3.3954 3.9649 2.9842 3.9743 2.5906 3.9743 C 2.2484 3.9743 1.8845 3.9649 1.4988 3.9468 L 1.4988 4.4689 L 2.0732 4.4689 L 2.0732 7.1424 L 1.5918 7.1424 L 1.5918 7.6606 L 2.0732 7.6606 L 2.0732 8.4497 C 2.0732 8.6378 2.1171 8.8138 2.2047 8.9774 C 2.2923 9.1408 2.4142 9.2804 2.5705 9.3958 C 2.7592 9.5238 2.9587 9.61 3.1689 9.6546 C 3.3792 9.699 3.5895 9.7214 3.7998 9.7216 C 3.9131 9.7214 4.025 9.7037 4.1354 9.6684 C 4.2458 9.633 4.3442 9.582 4.4306 9.5153 C 4.517 9.4485 4.5862 9.3666 4.6387 9.2699 C 4.6912 9.173 4.7174 9.0658 4.7174 8.9482 Z " fill="#990000" fill-rule="evenodd"/>
<path transform="matrix(1.0634171,0,0,-1.0598236,44.176645,174.03098)" d="M 6.9957 2.8417 C 6.6846 2.8505 6.3819 2.8549 6.0877 2.8549 C 5.7936 2.8549 5.4909 2.8505 5.1797 2.8417 L 5.1797 3.0308 L 5.3549 3.0308 C 5.4106 3.0307 5.4631 3.0314 5.512 3.0329 C 5.5611 3.0343 5.6076 3.038 5.6516 3.0439 C 5.6956 3.0496 5.7336 3.0555 5.7656 3.0616 C 5.7927 3.0659 5.8152 3.0793 5.8329 3.1021 C 5.8507 3.1248 5.8595 3.1501 5.8595 3.1781 L 5.8595 5.6557 C 5.775 5.6189 5.671 5.591 5.5475 5.5721 C 5.4241 5.553 5.2889 5.5435 5.1417 5.5436 L 5.1417 5.7305 C 5.3447 5.7304 5.532 5.7519 5.7036 5.7952 C 5.8752 5.8384 6.0235 5.9194 6.1486 6.0383 L 6.2273 6.0383 C 6.283 6.0381 6.3108 6.014 6.3108 5.9657 L 6.3108 3.1781 C 6.3108 3.1487 6.3193 3.123 6.3362 3.101 C 6.3532 3.079 6.3778 3.0659 6.4098 3.0616 C 6.4369 3.0555 6.4717 3.0496 6.5138 3.0439 C 6.5561 3.038 6.6039 3.0343 6.6571 3.0329 C 6.7103 3.0314 6.7624 3.0307 6.813 3.0308 L 6.9957 3.0308 L 6.9957 2.8417 Z " fill="#990000" fill-rule="evenodd"/>
</g>
<clipPath id="cp16">
<path transform="matrix(1.063398,0,0,-1.0598236,125.50762,174.03098)" d="M 0 0 L 8.7669 0 L 8.7669 12.7 L 0 12.7 Z " fill-rule="evenodd"/>
</clipPath>
<g clip-path="url(#cp16)">
<path transform="matrix(1.063398,0,0,-1.0598236,125.50762,174.03098)" d="M 4.7174 8.9482 C 4.7174 8.7595 4.6568 8.6175 4.5356 8.522 C 4.4144 8.4263 4.2795 8.3787 4.1313 8.379 C 3.9885 8.3787 3.8562 8.4263 3.735 8.522 C 3.6138 8.6175 3.5529 8.7595 3.5529 8.9482 C 3.5529 9.0528 3.5753 9.1428 3.6197 9.2189 C 3.6643 9.2947 3.6837 9.3315 3.6783 9.329 C 3.7566 9.3025 3.7782 9.2895 3.7431 9.2898 C 3.5463 9.2895 3.3861 9.2176 3.2619 9.0739 C 3.1893 8.9899 3.1393 8.8962 3.1123 8.7929 C 3.0853 8.6894 3.0718 8.575 3.0718 8.4497 L 3.0718 7.6606 L 3.8805 7.6606 L 3.8805 7.1424 L 3.1123 7.1424 L 3.1123 4.4689 L 3.8238 4.4689 L 3.8238 3.9468 C 3.3954 3.9649 2.9842 3.9743 2.5906 3.9743 C 2.2484 3.9743 1.8845 3.9649 1.4988 3.9468 L 1.4988 4.4689 L 2.0732 4.4689 L 2.0732 7.1424 L 1.5918 7.1424 L 1.5918 7.6606 L 2.0732 7.6606 L 2.0732 8.4497 C 2.0732 8.6378 2.1171 8.8138 2.2047 8.9774 C 2.2923 9.1408 2.4142 9.2804 2.5705 9.3958 C 2.7592 9.5238 2.9587 9.61 3.1689 9.6546 C 3.3792 9.699 3.5895 9.7214 3.7998 9.7216 C 3.9131 9.7214 4.025 9.7037 4.1354 9.6684 C 4.2458 9.633 4.3442 9.582 4.4306 9.5153 C 4.517 9.4485 4.5862 9.3666 4.6387 9.2699 C 4.6912 9.173 4.7174 9.0658 4.7174 8.9482 Z " fill="#274e13" fill-rule="evenodd"/>
<path transform="matrix(1.063398,0,0,-1.0598236,125.50762,174.03098)" d="M 7.1835 2.8417 L 5.1192 2.8417 L 5.1192 2.9627 C 5.1192 2.9713 5.1243 2.9845 5.1345 3.0022 L 5.9638 3.8069 C 6.0618 3.9035 6.1611 4.0024 6.2617 4.1035 C 6.3624 4.2046 6.4525 4.308 6.532 4.4135 C 6.6114 4.519 6.6748 4.6278 6.7222 4.74 C 6.7696 4.8521 6.7931 4.9697 6.7931 5.0929 C 6.7931 5.1968 6.7779 5.294 6.7474 5.3841 C 6.7169 5.4742 6.6731 5.5534 6.6155 5.6215 C 6.5581 5.6897 6.4863 5.7446 6.4001 5.7864 C 6.3139 5.8282 6.214 5.8491 6.1008 5.8492 C 5.9318 5.8491 5.7825 5.804 5.6531 5.7139 C 5.5238 5.6237 5.4379 5.5244 5.3956 5.4161 C 5.3873 5.4131 5.4009 5.4116 5.4363 5.4117 L 5.4793 5.4117 C 5.5301 5.4013 5.574 5.3855 5.6112 5.3643 C 5.6485 5.343 5.6797 5.3138 5.7051 5.2764 C 5.7305 5.239 5.7431 5.1939 5.7431 5.1413 C 5.7431 5.0532 5.7111 4.9858 5.6468 4.9389 C 5.5825 4.8919 5.5106 4.8686 5.4312 4.8687 C 5.3552 4.8686 5.2841 4.8919 5.2182 4.9389 C 5.1523 4.9858 5.1192 5.0532 5.1192 5.1413 C 5.1192 5.2643 5.1463 5.3808 5.2005 5.4907 C 5.2547 5.6007 5.3281 5.6959 5.421 5.7765 C 5.514 5.857 5.6238 5.9208 5.7507 5.9678 C 5.8775 6.0146 6.012 6.0381 6.154 6.0383 C 6.3299 6.0381 6.491 6.0151 6.6372 5.9689 C 6.7834 5.9227 6.9081 5.8564 7.0112 5.7699 C 7.1143 5.6834 7.1951 5.5833 7.2534 5.4698 C 7.3117 5.3562 7.3408 5.2306 7.3408 5.0929 C 7.3408 4.9404 7.302 4.8 7.2242 4.6718 C 7.1464 4.5435 7.0501 4.4259 6.9352 4.319 C 6.8202 4.2119 6.698 4.1112 6.5686 4.0167 C 6.4393 3.9221 6.3222 3.8302 6.2174 3.7409 L 5.634 3.2507 L 6.3975 3.2507 C 6.5039 3.2505 6.6034 3.2512 6.6954 3.2527 C 6.7876 3.2541 6.8657 3.2571 6.9301 3.2615 C 6.9944 3.2659 7.0273 3.2688 7.0289 3.2704 C 7.0424 3.2806 7.0552 3.3011 7.067 3.3319 C 7.0789 3.3626 7.0898 3.3989 7.1 3.4407 C 7.1101 3.4825 7.1203 3.5249 7.1304 3.5682 C 7.1406 3.6113 7.1498 3.6587 7.1583 3.7101 L 7.3459 3.7101 Z " fill="#274e13" fill-rule="evenodd"/>
</g>
<clipPath id="cp17">
<path transform="matrix(1.063417,0,0,-1.0598236,233.79102,174.03098)" d="M 0 0 L 18.45 0 L 18.45 12.7 L 0 12.7 Z " fill-rule="evenodd"/>
</clipPath>
<g clip-path="url(#cp17)">
<path transform="matrix(1.063417,0,0,-1.0598236,233.79102,174.03098)" d="M 4.7174 8.9482 C 4.7174 8.7595 4.6568 8.6175 4.5356 8.522 C 4.4144 8.4263 4.2795 8.3787 4.1313 8.379 C 3.9885 8.3787 3.8562 8.4263 3.735 8.522 C 3.6138 8.6175 3.5529 8.7595 3.5529 8.9482 C 3.5529 9.0528 3.5753 9.1428 3.6197 9.2189 C 3.6643 9.2947 3.6837 9.3315 3.6783 9.329 C 3.7566 9.3025 3.7782 9.2895 3.7431 9.2898 C 3.5463 9.2895 3.3861 9.2176 3.2619 9.0739 C 3.1893 8.9899 3.1393 8.8962 3.1123 8.7929 C 3.0853 8.6894 3.0718 8.575 3.0718 8.4497 L 3.0718 7.6606 L 3.8805 7.6606 L 3.8805 7.1424 L 3.1123 7.1424 L 3.1123 4.4689 L 3.8238 4.4689 L 3.8238 3.9468 C 3.3954 3.9649 2.9842 3.9743 2.5906 3.9743 C 2.2484 3.9743 1.8845 3.9649 1.4988 3.9468 L 1.4988 4.4689 L 2.0732 4.4689 L 2.0732 7.1424 L 1.5918 7.1424 L 1.5918 7.6606 L 2.0732 7.6606 L 2.0732 8.4497 C 2.0732 8.6378 2.1171 8.8138 2.2047 8.9774 C 2.2923 9.1408 2.4142 9.2804 2.5705 9.3958 C 2.7592 9.5238 2.9587 9.61 3.1689 9.6546 C 3.3792 9.699 3.5895 9.7214 3.7998 9.7216 C 3.9131 9.7214 4.025 9.7037 4.1354 9.6684 C 4.2458 9.633 4.3442 9.582 4.4306 9.5153 C 4.517 9.4485 4.5862 9.3666 4.6387 9.2699 C 4.6912 9.173 4.7174 9.0658 4.7174 8.9482 Z " fill-rule="evenodd"/>
<path transform="matrix(1.063417,0,0,-1.0598236,233.79102,174.03098)" d="M 6.9957 2.8417 C 6.6846 2.8505 6.3819 2.8549 6.0877 2.8549 C 5.7936 2.8549 5.4909 2.8505 5.1797 2.8417 L 5.1797 3.0308 L 5.3549 3.0308 C 5.4106 3.0307 5.4631 3.0314 5.512 3.0329 C 5.5611 3.0343 5.6076 3.038 5.6516 3.0439 C 5.6956 3.0496 5.7336 3.0555 5.7656 3.0616 C 5.7927 3.0659 5.8152 3.0793 5.8329 3.1021 C 5.8507 3.1248 5.8595 3.1501 5.8595 3.1781 L 5.8595 5.6557 C 5.775 5.6189 5.671 5.591 5.5475 5.5721 C 5.4241 5.553 5.2889 5.5435 5.1417 5.5436 L 5.1417 5.7305 C 5.3447 5.7304 5.532 5.7519 5.7036 5.7952 C 5.8752 5.8384 6.0235 5.9194 6.1486 6.0383 L 6.2273 6.0383 C 6.283 6.0381 6.3108 6.014 6.3108 5.9657 L 6.3108 3.1781 C 6.3108 3.1487 6.3193 3.123 6.3362 3.101 C 6.3532 3.079 6.3778 3.0659 6.4098 3.0616 C 6.4369 3.0555 6.4717 3.0496 6.5138 3.0439 C 6.5561 3.038 6.6039 3.0343 6.6571 3.0329 C 6.7103 3.0314 6.7624 3.0307 6.813 3.0308 L 6.9957 3.0308 L 6.9957 2.8417 Z " fill-rule="evenodd"/>
<path transform="matrix(1.063417,0,0,-1.0598236,233.79102,174.03098)" d="M 11.355 7.4407 C 11.314 7.3777 11.259 7.3372 11.189 7.319 C 11.17 7.3136 11.15 7.3109 11.128 7.3112 C 11.077 7.3109 11.03 7.3266 10.987 7.3583 L 9.976 8.0806 L 10.089 6.8205 L 10.089 6.8048 C 10.089 6.7417 10.067 6.6867 10.02 6.6399 C 9.9721 6.5847 9.9075 6.556 9.8266 6.5535 C 9.7456 6.5533 9.6811 6.582 9.6325 6.6399 C 9.5869 6.684 9.5638 6.739 9.5638 6.8048 L 9.5638 6.8205 L 9.6808 8.0806 L 8.6663 7.3583 C 8.6285 7.3266 8.5828 7.3109 8.5289 7.3112 C 8.51 7.3109 8.4884 7.3136 8.4641 7.319 C 8.3942 7.3372 8.3389 7.3777 8.2982 7.4407 C 8.2742 7.4903 8.2619 7.5399 8.2619 7.5899 L 8.2619 7.6449 C 8.2754 7.7126 8.3198 7.7624 8.3954 7.794 L 9.5434 8.3319 L 8.3954 8.8579 C 8.3198 8.8891 8.2754 8.9428 8.2619 9.0189 L 8.2619 9.0621 C 8.2619 9.1168 8.2742 9.1666 8.2982 9.2113 C 8.336 9.2817 8.3915 9.3249 8.4641 9.3408 C 8.483 9.3457 8.5031 9.3496 8.5247 9.3526 C 8.5814 9.3523 8.6285 9.3354 8.6663 9.3015 L 9.6808 8.5753 L 9.5638 9.8433 L 9.5638 9.859 C 9.5638 9.9216 9.5869 9.9765 9.6325 10.024 C 9.6838 10.073 9.7486 10.098 9.8266 10.098 C 9.9046 10.098 9.9694 10.073 10.02 10.024 C 10.067 9.9792 10.089 9.9243 10.089 9.859 L 10.089 9.8433 L 9.976 8.5753 L 10.987 9.3015 C 11.024 9.3327 11.072 9.3496 11.128 9.3526 C 11.15 9.3523 11.171 9.3472 11.193 9.3369 C 11.263 9.3209 11.316 9.279 11.351 9.2113 C 11.383 9.1691 11.399 9.1195 11.399 9.0621 C 11.399 9.0461 11.396 9.0304 11.391 9.015 C 11.378 8.9414 11.333 8.8891 11.258 8.8579 L 10.109 8.3319 L 11.258 7.794 C 11.333 7.7624 11.378 7.7153 11.391 7.6527 C 11.396 7.6341 11.399 7.6132 11.399 7.5899 C 11.399 7.5399 11.384 7.4903 11.355 7.4407 Z " fill-rule="evenodd"/>
<path transform="matrix(1.063417,0,0,-1.0598236,233.79102,174.03098)" d="M 15.183 8.9482 C 15.183 8.7595 15.122 8.6175 15.001 8.522 C 14.88 8.4263 14.745 8.3787 14.597 8.379 C 14.454 8.3787 14.322 8.4263 14.201 8.522 C 14.079 8.6175 14.019 8.7595 14.019 8.9482 C 14.019 9.0528 14.041 9.1428 14.085 9.2189 C 14.13 9.2947 14.149 9.3315 14.144 9.329 C 14.222 9.3025 14.244 9.2895 14.209 9.2898 C 14.012 9.2895 13.852 9.2176 13.728 9.0739 C 13.655 8.9899 13.605 8.8962 13.578 8.7929 C 13.551 8.6894 13.537 8.575 13.537 8.4497 L 13.537 7.6606 L 14.346 7.6606 L 14.346 7.1424 L 13.578 7.1424 L 13.578 4.4689 L 14.289 4.4689 L 14.289 3.9468 C 13.861 3.9649 13.45 3.9743 13.056 3.9743 C 12.714 3.9743 12.35 3.9649 11.964 3.9468 L 11.964 4.4689 L 12.539 4.4689 L 12.539 7.1424 L 12.057 7.1424 L 12.057 7.6606 L 12.539 7.6606 L 12.539 8.4497 C 12.539 8.6378 12.583 8.8138 12.67 8.9774 C 12.758 9.1408 12.88 9.2804 13.036 9.3958 C 13.225 9.5238 13.424 9.61 13.635 9.6546 C 13.845 9.699 14.055 9.7214 14.265 9.7216 C 14.379 9.7214 14.491 9.7037 14.601 9.6684 C 14.711 9.633 14.81 9.582 14.896 9.5153 C 14.983 9.4485 15.052 9.3666 15.104 9.2699 C 15.157 9.173 15.183 9.0658 15.183 8.9482 Z " fill-rule="evenodd"/>
<path transform="matrix(1.063417,0,0,-1.0598236,233.79102,174.03098)" d="M 16.867 2.8417 L 14.803 2.8417 L 14.803 2.9627 C 14.803 2.9713 14.808 2.9845 14.818 3.0022 L 15.647 3.8069 C 15.745 3.9035 15.845 4.0024 15.945 4.1035 C 16.046 4.2046 16.136 4.308 16.215 4.4135 C 16.295 4.519 16.358 4.6278 16.405 4.74 C 16.453 4.8521 16.476 4.9697 16.476 5.0929 C 16.476 5.1968 16.461 5.294 16.431 5.3841 C 16.4 5.4742 16.356 5.5534 16.299 5.6215 C 16.241 5.6897 16.169 5.7446 16.083 5.7864 C 15.997 5.8282 15.897 5.8491 15.784 5.8492 C 15.615 5.8491 15.466 5.804 15.337 5.7139 C 15.207 5.6237 15.121 5.5244 15.079 5.4161 C 15.071 5.4131 15.084 5.4116 15.12 5.4117 L 15.163 5.4117 C 15.214 5.4013 15.257 5.3855 15.295 5.3643 C 15.332 5.343 15.363 5.3138 15.389 5.2764 C 15.414 5.239 15.427 5.1939 15.427 5.1413 C 15.427 5.0532 15.395 4.9858 15.33 4.9389 C 15.266 4.8919 15.194 4.8686 15.115 4.8687 C 15.039 4.8686 14.968 4.8919 14.902 4.9389 C 14.836 4.9858 14.803 5.0532 14.803 5.1413 C 14.803 5.2643 14.83 5.3808 14.884 5.4907 C 14.938 5.6007 15.012 5.6959 15.105 5.7765 C 15.197 5.857 15.307 5.9208 15.434 5.9678 C 15.561 6.0146 15.695 6.0381 15.837 6.0383 C 16.013 6.0381 16.174 6.0151 16.32 5.9689 C 16.467 5.9227 16.591 5.8564 16.694 5.7699 C 16.797 5.6834 16.878 5.5833 16.937 5.4698 C 16.995 5.3562 17.024 5.2306 17.024 5.0929 C 17.024 4.9404 16.985 4.8 16.907 4.6718 C 16.83 4.5435 16.733 4.4259 16.618 4.319 C 16.503 4.2119 16.381 4.1112 16.252 4.0167 C 16.123 3.9221 16.006 3.8302 15.901 3.7409 L 15.317 3.2507 L 16.081 3.2507 C 16.187 3.2505 16.287 3.2512 16.379 3.2527 C 16.471 3.2541 16.549 3.2571 16.613 3.2615 C 16.678 3.2659 16.711 3.2688 16.712 3.2704 C 16.726 3.2806 16.738 3.3011 16.75 3.3319 C 16.762 3.3626 16.773 3.3989 16.783 3.4407 C 16.793 3.4825 16.803 3.5249 16.814 3.5682 C 16.824 3.6113 16.833 3.6587 16.841 3.7101 L 17.029 3.7101 Z " fill-rule="evenodd"/>
</g>
</g>
</g>
</g>
</g>
</g>
</svg>
