<?xml version="1.0" encoding="UTF-8" standalone="no"?>
<svg
   xmlns:dc="http://purl.org/dc/elements/1.1/"
   xmlns:cc="http://creativecommons.org/ns#"
   xmlns:rdf="http://www.w3.org/1999/02/22-rdf-syntax-ns#"
   xmlns:svg="http://www.w3.org/2000/svg"
   xmlns="http://www.w3.org/2000/svg"
   viewBox="0 0 362.72 106.72"
   height="106.72"
   width="362.72"
   xml:space="preserve"
   id="svg2"
   version="1.1"><metadata
     id="metadata8"><rdf:RDF><cc:Work
         rdf:about=""><dc:format>image/svg+xml</dc:format><dc:type
           rdf:resource="http://purl.org/dc/dcmitype/StillImage" /></cc:Work></rdf:RDF></metadata><defs
     id="defs6"><clipPath
       id="clipPath18"
       clipPathUnits="userSpaceOnUse"><path
         style="clip-rule:evenodd"
         id="path16"
         d="M 4.054e-6,0 H 272.04 V 80.04 H 4.054e-6 Z" /></clipPath><clipPath
       id="clipPath26"
       clipPathUnits="userSpaceOnUse"><path
         style="clip-rule:evenodd"
         id="path24"
         d="M 4.054e-6,0.14002 H 271.66 v 79.9 H 4.054e-6 Z" /></clipPath><clipPath
       id="clipPath36"
       clipPathUnits="userSpaceOnUse"><path
         id="path34"
         d="M 0,0 H 10200 V 3000 H 0 Z" /></clipPath><clipPath
       id="clipPath46"
       clipPathUnits="userSpaceOnUse"><path
         id="path44"
         d="M 0,0 H 27.667 V 31.516 H 0 Z" /></clipPath><clipPath
       id="clipPath100"
       clipPathUnits="userSpaceOnUse"><path
         id="path98"
         d="M 0,0 H 27.667 V 31.516 H 0 Z" /></clipPath></defs><g
     transform="matrix(1.3333333,0,0,-1.3333333,0,106.72)"
     id="g10"><g
       id="g12"><g
         clip-path="url(#clipPath18)"
         id="g14" /></g><g
       id="g20"><g
         clip-path="url(#clipPath26)"
         id="g22"><g
           transform="matrix(3.7731,0,0,1.1097,0,0.14001)"
           id="g28"><g
             transform="scale(0.0070588,0.024)"
             id="g30"><g
               clip-path="url(#clipPath36)"
               id="g32"><g
                 transform="matrix(7.6853,0,0,8.7544,3803.21,1186.11)"
                 id="g38"><g
                   transform="scale(2.6024,2.2846)"
                   id="g40"><g
                     clip-path="url(#clipPath46)"
                     id="g42"><path
                       id="path48"
                       style="fill:#000000;fill-opacity:1;fill-rule:evenodd;stroke:none"
                       d="m 15.486,21.137 c 0,0.145 0.111,0.22 0.332,0.221 0.248,-0.001 0.427,-0.088 0.537,-0.262 1.106,-2.131 2.797,-3.659 5.073,-4.582 0.442,-0.189 0.856,-0.329 1.242,-0.422 0.235,-0.068 0.352,-0.156 0.352,-0.262 0,-0.108 -0.117,-0.196 -0.352,-0.261 -2.829,-0.711 -4.934,-2.379 -6.315,-5.005 -0.083,-0.161 -0.233,-0.241 -0.454,-0.241 -0.277,0 -0.415,0.053 -0.415,0.161 0,0.052 0.035,0.16 0.103,0.321 0.484,0.924 1.078,1.748 1.781,2.473 l 0.208,0.201 H 4.9272 c -0.1922,0.093 -0.289,0.226 -0.289,0.402 0,0.199 0.1106,0.334 0.3304,0.402 H 18.488 l 0.206,0.16 c 0.553,0.401 1.361,0.863 2.424,1.387 -0.056,0.039 -0.125,0.073 -0.208,0.101 -0.758,0.32 -1.497,0.749 -2.216,1.286 l -0.206,0.161 H 4.9686 c -0.2198,0.065 -0.3304,0.2 -0.3304,0.402 0,0.173 0.0968,0.307 0.289,0.402 H 17.578 l -0.208,0.201 c -0.703,0.722 -1.297,1.546 -1.781,2.472 -0.068,0.133 -0.103,0.226 -0.103,0.282 z" /></g></g></g><path
                 id="path50"
                 style="fill:none;stroke:#000000;stroke-width:0.14;stroke-linecap:round;stroke-linejoin:round;stroke-miterlimit:10;stroke-dasharray:none;stroke-opacity:1"
                 d="m 1635.55,1493.77 c 0,-414.21 -335.78,-750 -749.99,-750 -414.21,0 -749.99,335.79 -749.99,750 0,414.21 335.78,750 749.99,750 414.21,0 749.99,-335.79 749.99,-750 z" /><path
                 id="path52"
                 style="fill:none;stroke:#000000;stroke-width:7.5;stroke-linecap:round;stroke-linejoin:round;stroke-miterlimit:10;stroke-dasharray:none;stroke-opacity:1"
                 d="m 1635.55,1493.77 c 0,-180.78 -335.78,-327.33 -749.99,-327.33 -414.21,0 -749.99,146.55 -749.99,327.33 0,0 0,0 0,0" /><g
                 id="g54"><path
                   id="path56"
                   style="fill:none;stroke:#000000;stroke-width:7.5;stroke-linecap:round;stroke-linejoin:round;stroke-miterlimit:10;stroke-dasharray:15, 15;stroke-dashoffset:0;stroke-opacity:1"
                   d="m 135.57,1493.77 c -0.01,180.78 335.78,327.33 749.99,327.33 414.21,0 749.99,-146.55 749.99,-327.33 0,0 0,0 0,0" /></g><path
                 id="path58"
                 style="fill:none;stroke:#000000;stroke-width:7.5;stroke-linecap:round;stroke-linejoin:round;stroke-miterlimit:10;stroke-dasharray:none;stroke-opacity:1"
                 d="m 885.56,743.77 c -180.78,0 -327.33,335.79 -327.33,750 0,414.21 146.55,750 327.33,750" /><g
                 id="g60"><path
                   id="path62"
                   style="fill:none;stroke:#000000;stroke-width:7.5;stroke-linecap:round;stroke-linejoin:round;stroke-miterlimit:10;stroke-dasharray:15, 15;stroke-dashoffset:0;stroke-opacity:1"
                   d="m 885.56,2243.77 c 180.77,0 327.32,-335.78 327.32,-750 0,-414.21 -146.55,-750 -327.32,-750 0,0 0,0 0,0" /></g><path
                 id="path64"
                 style="fill:none;stroke:#cc0000;stroke-width:15;stroke-linecap:round;stroke-linejoin:round;stroke-miterlimit:10;stroke-dasharray:none;stroke-opacity:1"
                 d="m 1376.58,931.83 c -66.96,174.53 -90.71,567.6 -53.06,877.95 12.35,101.81 30.44,186.15 52.33,244.02" /><path
                 id="path66"
                 style="fill:none;stroke:#000000;stroke-width:0.14;stroke-linecap:round;stroke-linejoin:round;stroke-miterlimit:10;stroke-dasharray:none;stroke-opacity:1"
                 d="m 3448.05,1493.77 c 0,-414.21 -335.78,-750 -750,-750 -414.21,0 -750,335.79 -750,750 0,414.21 335.79,750 750,750 414.22,0 750,-335.79 750,-750 z" /><path
                 id="path68"
                 style="fill:none;stroke:#000000;stroke-width:7.5;stroke-linecap:round;stroke-linejoin:round;stroke-miterlimit:10;stroke-dasharray:none;stroke-opacity:1"
                 d="m 3448.05,1493.77 c 0,-180.78 -335.78,-327.33 -750,-327.33 -414.21,0 -750,146.55 -750,327.33 0,0 0,0 0,0" /><g
                 id="g70"><path
                   id="path72"
                   style="fill:none;stroke:#000000;stroke-width:7.5;stroke-linecap:round;stroke-linejoin:round;stroke-miterlimit:10;stroke-dasharray:15, 15;stroke-dashoffset:0;stroke-opacity:1"
                   d="m 1948.05,1493.77 c 0,180.78 335.79,327.33 750,327.33 414.22,0 750,-146.55 750,-327.33 0,0 0,0 0,0" /></g><path
                 id="path74"
                 style="fill:none;stroke:#000000;stroke-width:7.5;stroke-linecap:round;stroke-linejoin:round;stroke-miterlimit:10;stroke-dasharray:none;stroke-opacity:1"
                 d="m 2698.05,743.77 c -180.78,0 -327.32,335.79 -327.32,750 0,414.21 146.54,750 327.32,750" /><g
                 id="g76"><path
                   id="path78"
                   style="fill:none;stroke:#000000;stroke-width:7.5;stroke-linecap:round;stroke-linejoin:round;stroke-miterlimit:10;stroke-dasharray:15, 15;stroke-dashoffset:0;stroke-opacity:1"
                   d="m 2698.05,2243.77 c 180.78,0 327.33,-335.78 327.33,-750 0,-414.21 -146.55,-750 -327.33,-750 0,0 0,0 0,0" /></g><path
                 id="path80"
                 style="fill:none;stroke:#cc0000;stroke-width:15;stroke-linecap:round;stroke-linejoin:round;stroke-miterlimit:10;stroke-dasharray:none;stroke-opacity:1"
                 d="m 2192.75,2055.71 c 66.96,-174.53 90.71,-567.6 53.06,-877.95 -12.35,-101.81 -30.44,-186.15 -52.33,-244.01" /><path
                 id="path82"
                 style="fill:none;stroke:#ff0000;stroke-width:15;stroke-linecap:round;stroke-linejoin:round;stroke-miterlimit:10;stroke-dasharray:none;stroke-opacity:1"
                 d="m 2193.58,926.66 c -313.21,278.61 -341.25,758.37 -62.64,1071.58 19.64,22.08 40.56,43 62.64,62.64" /><path
                 id="path84"
                 style="fill:none;stroke:#ff0000;stroke-width:15;stroke-linecap:round;stroke-linejoin:round;stroke-miterlimit:10;stroke-dasharray:none;stroke-opacity:1"
                 d="m 1390.03,2060.88 c 313.2,-278.61 341.25,-758.37 62.64,-1071.58 -19.65,-22.08 -40.56,-43 -62.64,-62.64" /><path
                 id="path86"
                 style="fill:none;stroke:#000000;stroke-width:15;stroke-linecap:round;stroke-linejoin:round;stroke-miterlimit:10;stroke-dasharray:none;stroke-opacity:1"
                 d="m 5916.22,951.66 c -299.4,-293.4 -779.95,-288.53 -1073.35,10.87 -293.4,299.4 -288.53,779.96 10.87,1073.36 293.04,287.15 761.22,289.47 1057.09,5.23" /><path
                 id="path88"
                 style="fill:none;stroke:#000000;stroke-width:15;stroke-linecap:round;stroke-linejoin:round;stroke-miterlimit:10;stroke-dasharray:none;stroke-opacity:1"
                 d="m 5931.45,2041.55 c 302.53,290.17 783.01,280.15 1073.18,-22.38 290.17,-302.53 280.16,-783 -22.37,-1073.18 -294.96,-282.9 -760.96,-281.47 -1054.17,3.25" /><path
                 id="path90"
                 style="fill:none;stroke:#ff0000;stroke-width:24.375;stroke-linecap:round;stroke-linejoin:round;stroke-miterlimit:10;stroke-dasharray:none;stroke-opacity:1"
                 d="m 5913.67,957.5 c -144.91,344.69 -144.23,732.79 1.87,1076.98" /><g
                 transform="matrix(7.6853,0,0,8.7544,7553.21,1186.11)"
                 id="g92"><g
                   transform="scale(2.6024,2.2846)"
                   id="g94"><g
                     clip-path="url(#clipPath100)"
                     id="g96"><path
                       id="path102"
                       style="fill:#000000;fill-opacity:1;fill-rule:evenodd;stroke:none"
                       d="m 15.486,21.137 c 0,0.145 0.111,0.22 0.332,0.221 0.248,-0.001 0.427,-0.088 0.537,-0.262 1.106,-2.131 2.797,-3.659 5.073,-4.582 0.442,-0.189 0.856,-0.329 1.242,-0.422 0.235,-0.068 0.352,-0.156 0.352,-0.262 0,-0.108 -0.117,-0.196 -0.352,-0.261 -2.829,-0.711 -4.934,-2.379 -6.315,-5.005 -0.083,-0.161 -0.233,-0.241 -0.454,-0.241 -0.277,0 -0.415,0.053 -0.415,0.161 0,0.052 0.035,0.16 0.103,0.321 0.484,0.924 1.078,1.748 1.781,2.473 l 0.208,0.201 H 4.9272 c -0.1922,0.093 -0.289,0.226 -0.289,0.402 0,0.199 0.1106,0.334 0.3304,0.402 H 18.488 l 0.206,0.16 c 0.553,0.401 1.361,0.863 2.424,1.387 -0.056,0.039 -0.125,0.073 -0.208,0.101 -0.758,0.32 -1.497,0.749 -2.216,1.286 l -0.206,0.161 H 4.9686 c -0.2198,0.065 -0.3304,0.2 -0.3304,0.402 0,0.173 0.0968,0.307 0.289,0.402 H 17.578 l -0.208,0.201 c -0.703,0.722 -1.297,1.546 -1.781,2.472 -0.068,0.133 -0.103,0.226 -0.103,0.282 z" /></g></g></g><path
                 id="path104"
                 style="fill:none;stroke:#000000;stroke-width:16.875;stroke-linecap:round;stroke-linejoin:round;stroke-miterlimit:10;stroke-dasharray:none;stroke-opacity:1"
                 d="m 10048.05,1493.77 c 0,-414.21 -335.79,-750 -750,-750 -414.22,0 -750,335.79 -750,750 0,414.21 335.78,750 750,750 414.21,0 750,-335.79 750,-750 z" /><path
                 id="path106"
                 style="fill:none;stroke:#ff0000;stroke-width:15;stroke-linecap:round;stroke-linejoin:round;stroke-miterlimit:10;stroke-dasharray:none;stroke-opacity:1"
                 d="m 9256.97,754.97 c -93.98,98.51 -151.77,509.14 -129.08,917.17 15.78,283.87 67.63,503.37 133.39,564.71" /><path
                 id="path108"
                 style="fill:none;stroke:#ff0000;stroke-width:15;stroke-linecap:round;stroke-linejoin:round;stroke-miterlimit:10;stroke-dasharray:none;stroke-opacity:1"
                 d="m 9319.31,2175.92 c 10.38,-22.14 20.23,-48.69 29.4,-79.27" /><path
                 id="path110"
                 style="fill:none;stroke:#ff0000;stroke-width:15;stroke-linecap:round;stroke-linejoin:round;stroke-miterlimit:10;stroke-dasharray:none;stroke-opacity:1"
                 d="m 9380.17,1961.07 c 9.42,-52.45 17.21,-110.03 23.18,-171.28" /><path
                 id="path112"
                 style="fill:none;stroke:#ff0000;stroke-width:15;stroke-linecap:round;stroke-linejoin:round;stroke-miterlimit:10;stroke-dasharray:none;stroke-opacity:1"
                 d="m 9412.1,1675.33 c 3.45,-60.9 5.15,-123.42 5.07,-186.13" /><path
                 id="path114"
                 style="fill:none;stroke:#ff0000;stroke-width:15;stroke-linecap:round;stroke-linejoin:round;stroke-miterlimit:10;stroke-dasharray:none;stroke-opacity:1"
                 d="m 9412.58,1320.85 c -3.27,-60.71 -8.24,-119.44 -14.81,-174.87" /><path
                 id="path116"
                 style="fill:none;stroke:#ff0000;stroke-width:15;stroke-linecap:round;stroke-linejoin:round;stroke-miterlimit:10;stroke-dasharray:none;stroke-opacity:1"
                 d="m 9379.13,967.86 c -7.92,-43.27 -16.91,-82.65 -26.8,-117.45" /><path
                 id="path118"
                 style="fill:none;stroke:#000000;stroke-width:15;stroke-linecap:round;stroke-linejoin:round;stroke-miterlimit:10;stroke-dasharray:none;stroke-opacity:1"
                 d="m 10037.17,1498.22 c -60.04,-95.68 -445.49,-162.04 -860.92,-148.21 -314.56,10.47 -567.62,64.91 -634.37,136.49" /><path
                 id="path120"
                 style="fill:none;stroke:#000000;stroke-width:15;stroke-linecap:round;stroke-linejoin:round;stroke-miterlimit:10;stroke-dasharray:none;stroke-opacity:1"
                 d="m 8602.81,1544.52 c 22.14,10.38 48.69,20.23 79.27,29.4" /><path
                 id="path122"
                 style="fill:none;stroke:#000000;stroke-width:15;stroke-linecap:round;stroke-linejoin:round;stroke-miterlimit:10;stroke-dasharray:none;stroke-opacity:1"
                 d="m 8817.66,1605.39 c 52.45,9.41 110.04,17.2 171.29,23.17" /><path
                 id="path124"
                 style="fill:none;stroke:#000000;stroke-width:15;stroke-linecap:round;stroke-linejoin:round;stroke-miterlimit:10;stroke-dasharray:none;stroke-opacity:1"
                 d="m 9103.4,1637.32 c 60.9,3.45 123.42,5.15 186.13,5.06" /><path
                 id="path126"
                 style="fill:none;stroke:#000000;stroke-width:15;stroke-linecap:round;stroke-linejoin:round;stroke-miterlimit:10;stroke-dasharray:none;stroke-opacity:1"
                 d="m 9457.89,1637.79 c 60.7,-3.26 119.43,-8.24 174.86,-14.81" /><path
                 id="path128"
                 style="fill:none;stroke:#000000;stroke-width:15;stroke-linecap:round;stroke-linejoin:round;stroke-miterlimit:10;stroke-dasharray:none;stroke-opacity:1"
                 d="m 9810.88,1604.35 c 43.26,-7.93 82.65,-16.92 117.45,-26.81" /><path
                 id="path130"
                 style="fill:none;stroke:#000000;stroke-width:15;stroke-linecap:round;stroke-linejoin:round;stroke-miterlimit:10;stroke-dasharray:none;stroke-opacity:1"
                 d="M 1385.64,922.79 C 1070.3,646.6 590.77,678.34 314.58,993.68 38.387,1309.02 70.125,1788.56 385.47,2064.75 c 288.02,252.26 718.83,250.52 1004.79,-4.08" /><path
                 id="path132"
                 style="fill:none;stroke:#000000;stroke-width:15;stroke-linecap:round;stroke-linejoin:round;stroke-miterlimit:10;stroke-dasharray:none;stroke-opacity:1"
                 d="m 2190.12,2057.79 c 311.5,280.52 791.43,255.41 1071.95,-56.08 280.52,-311.5 255.41,-791.43 -56.09,-1071.95 C 2918.5,670.86 2482.3,669.62 2193.35,926.87" /></g></g></g></g></g></g></svg>