<?xml version="1.0" encoding="UTF-8"?>
<svg xmlns="http://www.w3.org/2000/svg" xmlns:xlink="http://www.w3.org/1999/xlink" width="445.98pt" height="471pt" viewBox="0 0 445.98 471" version="1.1">
<g id="surface1">
<path style="fill:none;stroke-width:15;stroke-linecap:round;stroke-linejoin:round;stroke:rgb(0%,0%,94.099426%);stroke-opacity:1;stroke-miterlimit:10;" d="M 551.578761 1567.976259 C 770.520981 1450.38914 852.717186 1177.576858 735.112483 958.611421 C 696.36061 886.463688 638.662941 826.242816 568.217432 784.47925 " transform="matrix(0.199789,0,0,-0.199785,0,477.0478)"/>
<path style="fill:none;stroke-width:15;stroke-linecap:round;stroke-linejoin:round;stroke:rgb(0%,0%,94.099426%);stroke-opacity:1;stroke-miterlimit:10;" d="M 658.038878 1766.196778 C 986.452208 1589.816101 1109.726963 1180.587902 933.349237 852.169074 C 875.221427 743.927923 788.645596 653.616167 682.987108 590.931713 " transform="matrix(0.199789,0,0,-0.199785,0,477.0478)"/>
<path style="fill:none;stroke-width:15;stroke-linecap:round;stroke-linejoin:round;stroke:rgb(0%,0%,94.099426%);stroke-opacity:1;stroke-miterlimit:10;" d="M 764.479443 1964.417298 C 1202.383435 1729.243061 1366.73674 1183.618498 1131.566439 745.707176 C 1054.062692 601.392157 938.647803 480.969965 797.756784 397.403729 " transform="matrix(0.199789,0,0,-0.199785,0,477.0478)"/>
<path style="fill:none;stroke-width:15;stroke-linecap:round;stroke-linejoin:round;stroke:rgb(0%,0%,94.099426%);stroke-opacity:1;stroke-miterlimit:10;" d="M 440.954089 1369.755739 C 550.425199 1310.942627 591.523301 1174.546262 532.730726 1065.07332 C 513.354789 1028.999453 484.496179 998.889017 449.2832 977.987682 " transform="matrix(0.199789,0,0,-0.199785,0,477.0478)"/>
<path style=" stroke:none;fill-rule:nonzero;fill:rgb(0%,0%,0%);fill-opacity:1;" d="M 21.878906 241.496094 L 217.695312 241.496094 L 217.695312 244.492188 L 21.878906 244.492188 C 21.050781 244.492188 20.378906 243.824219 20.378906 242.996094 C 20.378906 242.167969 21.050781 241.496094 21.878906 241.496094 Z M 241.644531 242.996094 L 211.675781 234.003906 L 217.667969 241.496094 L 217.667969 244.492188 L 211.675781 251.984375 Z M 241.644531 242.996094 "/>
<path style="fill:none;stroke-width:15;stroke-linecap:round;stroke-linejoin:round;stroke:rgb(0%,0%,0%);stroke-opacity:1;stroke-miterlimit:10;" d="M 1238.671769 2158.961999 L 1238.671769 1264.271451 " transform="matrix(0.199789,0,0,-0.199785,0,477.0478)"/>
<path style="fill:none;stroke-width:15;stroke-linecap:round;stroke-linejoin:round;stroke:rgb(0%,0%,0%);stroke-opacity:1;stroke-miterlimit:10;" d="M 1238.671769 1091.62525 L 1238.671769 196.758732 " transform="matrix(0.199789,0,0,-0.199785,0,477.0478)"/>
<path style="fill:none;stroke-width:15;stroke-linecap:round;stroke-linejoin:round;stroke:rgb(0%,0%,0%);stroke-opacity:1;stroke-miterlimit:10;" d="M 1296.330334 2150.143942 L 1296.330334 1338.628587 " transform="matrix(0.199789,0,0,-0.199785,0,477.0478)"/>
<path style="fill:none;stroke-width:15;stroke-linecap:round;stroke-linejoin:round;stroke:rgb(0%,0%,0%);stroke-opacity:1;stroke-miterlimit:10;" d="M 1296.330334 1014.061549 L 1296.330334 196.758732 " transform="matrix(0.199789,0,0,-0.199785,0,477.0478)"/>
<path style="fill:none;stroke-width:15;stroke-linecap:round;stroke-linejoin:round;stroke:rgb(0%,0%,0%);stroke-opacity:1;stroke-miterlimit:10;" d="M 1238.671769 1264.271451 L 1296.330334 1338.628587 " transform="matrix(0.199789,0,0,-0.199785,0,477.0478)"/>
<path style="fill:none;stroke-width:7.5;stroke-linecap:round;stroke-linejoin:round;stroke:rgb(0%,0%,0%);stroke-opacity:1;stroke-miterlimit:10;" d="M 1238.671769 1339.606198 L 1296.330334 1413.963333 " transform="matrix(0.199789,0,0,-0.199785,0,477.0478)"/>
<path style="fill:none;stroke-width:7.5;stroke-linecap:round;stroke-linejoin:round;stroke:rgb(0%,0%,0%);stroke-opacity:1;stroke-miterlimit:10;" d="M 1238.671769 1416.446467 L 1296.330334 1490.78405 " transform="matrix(0.199789,0,0,-0.199785,0,477.0478)"/>
<path style="fill:none;stroke-width:7.5;stroke-linecap:round;stroke-linejoin:round;stroke:rgb(0%,0%,0%);stroke-opacity:1;stroke-miterlimit:10;" d="M 1238.671769 1486.638977 L 1296.330334 1560.97656 " transform="matrix(0.199789,0,0,-0.199785,0,477.0478)"/>
<path style="fill:none;stroke-width:7.5;stroke-linecap:round;stroke-linejoin:round;stroke:rgb(0%,0%,0%);stroke-opacity:1;stroke-miterlimit:10;" d="M 1238.671769 1486.638977 L 1296.330334 1560.97656 " transform="matrix(0.199789,0,0,-0.199785,0,477.0478)"/>
<path style="fill:none;stroke-width:7.5;stroke-linecap:round;stroke-linejoin:round;stroke:rgb(0%,0%,0%);stroke-opacity:1;stroke-miterlimit:10;" d="M 1238.671769 1563.459693 L 1296.330334 1637.797276 " transform="matrix(0.199789,0,0,-0.199785,0,477.0478)"/>
<path style="fill:none;stroke-width:7.5;stroke-linecap:round;stroke-linejoin:round;stroke:rgb(0%,0%,0%);stroke-opacity:1;stroke-miterlimit:10;" d="M 1238.671769 1633.652203 L 1296.330334 1708.009338 " transform="matrix(0.199789,0,0,-0.199785,0,477.0478)"/>
<path style="fill:none;stroke-width:7.5;stroke-linecap:round;stroke-linejoin:round;stroke:rgb(0%,0%,0%);stroke-opacity:1;stroke-miterlimit:10;" d="M 1238.671769 1633.652203 L 1296.330334 1708.009338 " transform="matrix(0.199789,0,0,-0.199785,0,477.0478)"/>
<path style="fill:none;stroke-width:7.5;stroke-linecap:round;stroke-linejoin:round;stroke:rgb(0%,0%,0%);stroke-opacity:1;stroke-miterlimit:10;" d="M 1238.671769 1710.472919 L 1296.330334 1784.810502 " transform="matrix(0.199789,0,0,-0.199785,0,477.0478)"/>
<path style="fill:none;stroke-width:7.5;stroke-linecap:round;stroke-linejoin:round;stroke:rgb(0%,0%,0%);stroke-opacity:1;stroke-miterlimit:10;" d="M 1238.671769 1780.665429 L 1296.330334 1855.022565 " transform="matrix(0.199789,0,0,-0.199785,0,477.0478)"/>
<path style="fill:none;stroke-width:7.5;stroke-linecap:round;stroke-linejoin:round;stroke:rgb(0%,0%,0%);stroke-opacity:1;stroke-miterlimit:10;" d="M 1238.671769 1780.665429 L 1296.330334 1855.022565 " transform="matrix(0.199789,0,0,-0.199785,0,477.0478)"/>
<path style="fill:none;stroke-width:7.5;stroke-linecap:round;stroke-linejoin:round;stroke:rgb(0%,0%,0%);stroke-opacity:1;stroke-miterlimit:10;" d="M 1238.671769 1857.505698 L 1296.330334 1931.843281 " transform="matrix(0.199789,0,0,-0.199785,0,477.0478)"/>
<path style="fill:none;stroke-width:7.5;stroke-linecap:round;stroke-linejoin:round;stroke:rgb(0%,0%,0%);stroke-opacity:1;stroke-miterlimit:10;" d="M 1238.671769 1927.698208 L 1296.330334 2002.035791 " transform="matrix(0.199789,0,0,-0.199785,0,477.0478)"/>
<path style="fill:none;stroke-width:7.5;stroke-linecap:round;stroke-linejoin:round;stroke:rgb(0%,0%,0%);stroke-opacity:1;stroke-miterlimit:10;" d="M 1238.671769 1928.773581 L 1296.330334 2003.130716 " transform="matrix(0.199789,0,0,-0.199785,0,477.0478)"/>
<path style="fill:none;stroke-width:7.5;stroke-linecap:round;stroke-linejoin:round;stroke:rgb(0%,0%,0%);stroke-opacity:1;stroke-miterlimit:10;" d="M 1238.671769 2005.613849 L 1296.330334 2079.951432 " transform="matrix(0.199789,0,0,-0.199785,0,477.0478)"/>
<path style="fill:none;stroke-width:7.5;stroke-linecap:round;stroke-linejoin:round;stroke:rgb(0%,0%,0%);stroke-opacity:1;stroke-miterlimit:10;" d="M 1238.671769 2075.806359 L 1296.330334 2150.143942 " transform="matrix(0.199789,0,0,-0.199785,0,477.0478)"/>
<path style="fill:none;stroke-width:15;stroke-linecap:round;stroke-linejoin:round;stroke:rgb(0%,0%,0%);stroke-opacity:1;stroke-miterlimit:10;" d="M 1238.671769 1094.636293 L 1296.330334 1014.061549 " transform="matrix(0.199789,0,0,-0.199785,0,477.0478)"/>
<path style="fill:none;stroke-width:7.5;stroke-linecap:round;stroke-linejoin:round;stroke:rgb(0%,0%,0%);stroke-opacity:1;stroke-miterlimit:10;" d="M 1238.671769 1011.813042 L 1296.330334 931.238297 " transform="matrix(0.199789,0,0,-0.199785,0,477.0478)"/>
<path style="fill:none;stroke-width:7.5;stroke-linecap:round;stroke-linejoin:round;stroke:rgb(0%,0%,0%);stroke-opacity:1;stroke-miterlimit:10;" d="M 1238.671769 931.179641 L 1296.330334 850.604896 " transform="matrix(0.199789,0,0,-0.199785,0,477.0478)"/>
<path style="fill:none;stroke-width:7.5;stroke-linecap:round;stroke-linejoin:round;stroke:rgb(0%,0%,0%);stroke-opacity:1;stroke-miterlimit:10;" d="M 1238.671769 931.179641 L 1296.330334 850.604896 " transform="matrix(0.199789,0,0,-0.199785,0,477.0478)"/>
<path style="fill:none;stroke-width:7.5;stroke-linecap:round;stroke-linejoin:round;stroke:rgb(0%,0%,0%);stroke-opacity:1;stroke-miterlimit:10;" d="M 1238.671769 848.336837 L 1296.330334 767.762092 " transform="matrix(0.199789,0,0,-0.199785,0,477.0478)"/>
<path style="fill:none;stroke-width:7.5;stroke-linecap:round;stroke-linejoin:round;stroke:rgb(0%,0%,0%);stroke-opacity:1;stroke-miterlimit:10;" d="M 1238.671769 767.722988 L 1296.330334 687.148243 " transform="matrix(0.199789,0,0,-0.199785,0,477.0478)"/>
<path style="fill:none;stroke-width:7.5;stroke-linecap:round;stroke-linejoin:round;stroke:rgb(0%,0%,0%);stroke-opacity:1;stroke-miterlimit:10;" d="M 1238.671769 767.722988 L 1296.330334 687.148243 " transform="matrix(0.199789,0,0,-0.199785,0,477.0478)"/>
<path style="fill:none;stroke-width:7.5;stroke-linecap:round;stroke-linejoin:round;stroke:rgb(0%,0%,0%);stroke-opacity:1;stroke-miterlimit:10;" d="M 1238.671769 684.880184 L 1296.330334 604.30544 " transform="matrix(0.199789,0,0,-0.199785,0,477.0478)"/>
<path style="fill:none;stroke-width:7.5;stroke-linecap:round;stroke-linejoin:round;stroke:rgb(0%,0%,0%);stroke-opacity:1;stroke-miterlimit:10;" d="M 1238.671769 604.246783 L 1296.330334 523.672038 " transform="matrix(0.199789,0,0,-0.199785,0,477.0478)"/>
<path style="fill:none;stroke-width:7.5;stroke-linecap:round;stroke-linejoin:round;stroke:rgb(0%,0%,0%);stroke-opacity:1;stroke-miterlimit:10;" d="M 1238.671769 604.246783 L 1296.330334 523.672038 " transform="matrix(0.199789,0,0,-0.199785,0,477.0478)"/>
<path style="fill:none;stroke-width:7.5;stroke-linecap:round;stroke-linejoin:round;stroke:rgb(0%,0%,0%);stroke-opacity:1;stroke-miterlimit:10;" d="M 1238.671769 521.423532 L 1296.330334 440.848787 " transform="matrix(0.199789,0,0,-0.199785,0,477.0478)"/>
<path style="fill:none;stroke-width:7.5;stroke-linecap:round;stroke-linejoin:round;stroke:rgb(0%,0%,0%);stroke-opacity:1;stroke-miterlimit:10;" d="M 1238.671769 440.79013 L 1296.330334 360.215385 " transform="matrix(0.199789,0,0,-0.199785,0,477.0478)"/>
<path style="fill:none;stroke-width:7.5;stroke-linecap:round;stroke-linejoin:round;stroke:rgb(0%,0%,0%);stroke-opacity:1;stroke-miterlimit:10;" d="M 1238.671769 440.79013 L 1296.330334 360.215385 " transform="matrix(0.199789,0,0,-0.199785,0,477.0478)"/>
<path style="fill:none;stroke-width:7.5;stroke-linecap:round;stroke-linejoin:round;stroke:rgb(0%,0%,0%);stroke-opacity:1;stroke-miterlimit:10;" d="M 1238.671769 357.947326 L 1296.330334 277.372582 " transform="matrix(0.199789,0,0,-0.199785,0,477.0478)"/>
<path style="fill:none;stroke-width:7.5;stroke-linecap:round;stroke-linejoin:round;stroke:rgb(0%,0%,0%);stroke-opacity:1;stroke-miterlimit:10;" d="M 1238.671769 277.333477 L 1296.330334 196.758732 " transform="matrix(0.199789,0,0,-0.199785,0,477.0478)"/>
<path style=" stroke:none;fill-rule:nonzero;fill:rgb(0%,0%,0%);fill-opacity:1;" d="M 279.070312 194.558594 L 279.070312 211.570312 L 277.574219 211.570312 L 277.574219 194.558594 C 277.574219 194.144531 277.90625 193.808594 278.320312 193.808594 C 278.734375 193.808594 279.070312 194.144531 279.070312 194.558594 Z M 278.320312 223.546875 L 282.816406 208.5625 L 279.070312 211.558594 L 277.574219 211.558594 L 273.828125 208.5625 Z M 278.320312 223.546875 "/>
<path style="fill:none;stroke-width:7.5;stroke-linecap:round;stroke-linejoin:round;stroke:rgb(0%,0%,0%);stroke-opacity:1;stroke-miterlimit:10;" d="M 1317.250871 1264.271451 L 1468.895438 1264.271451 " transform="matrix(0.199789,0,0,-0.199785,0,477.0478)"/>
<path style="fill:none;stroke-width:7.5;stroke-linecap:round;stroke-linejoin:round;stroke:rgb(0%,0%,0%);stroke-opacity:1;stroke-miterlimit:10;" d="M 1317.250871 1094.636293 L 1468.895438 1094.636293 " transform="matrix(0.199789,0,0,-0.199785,0,477.0478)"/>
<path style=" stroke:none;fill-rule:nonzero;fill:rgb(0%,0%,0%);fill-opacity:1;" d="M 277.574219 287.945312 L 277.574219 271.121094 L 279.070312 271.121094 L 279.070312 287.945312 C 279.070312 288.359375 278.734375 288.695312 278.320312 288.695312 C 277.90625 288.695312 277.574219 288.359375 277.574219 287.945312 Z M 278.320312 259.148438 L 273.828125 274.132812 L 277.574219 271.136719 L 279.070312 271.136719 L 282.816406 274.132812 Z M 278.320312 259.148438 "/>
<path style=" stroke:none;fill-rule:evenodd;fill:rgb(0%,0%,0%);fill-opacity:1;" d="M 320.019531 241.355469 C 319.859375 241.996094 319.679688 242.683594 319.476562 243.414062 C 319.273438 244.148438 319.003906 244.828125 318.667969 245.453125 C 318.332031 246.082031 317.90625 246.625 317.394531 247.082031 C 316.882812 247.539062 316.246094 247.765625 315.476562 247.765625 C 314.453125 247.765625 313.636719 247.484375 313.023438 246.914062 C 312.410156 246.347656 312.058594 245.769531 311.960938 245.179688 C 311.503906 245.703125 310.820312 246.265625 309.914062 246.867188 C 309.003906 247.46875 308.042969 247.765625 307.035156 247.765625 C 305.972656 247.765625 305.078125 247.5 304.359375 246.964844 C 303.636719 246.429688 303.078125 245.753906 302.671875 244.945312 C 302.1875 243.976562 301.929688 242.9375 301.90625 241.824219 L 301.90625 241.53125 C 301.90625 240.5 302.046875 239.46875 302.328125 238.433594 C 302.652344 237.296875 303.101562 236.175781 303.679688 235.0625 C 304.261719 233.953125 305.027344 232.917969 305.984375 231.964844 C 306.765625 231.179688 307.65625 230.519531 308.660156 229.984375 C 309.664062 229.449219 310.683594 229.179688 311.71875 229.179688 C 312.621094 229.179688 313.355469 229.417969 313.921875 229.894531 C 314.488281 230.375 314.84375 230.769531 314.992188 231.082031 L 314.910156 231.414062 C 315.003906 230.929688 315.230469 230.566406 315.585938 230.316406 C 315.945312 230.070312 316.304688 229.945312 316.667969 229.945312 C 317.085938 229.945312 317.433594 230.070312 317.71875 230.316406 C 317.894531 230.511719 317.988281 230.773438 318 231.101562 C 318 231.21875 317.988281 231.351562 317.960938 231.492188 L 315.050781 242.824219 C 314.917969 243.363281 314.824219 243.867188 314.769531 244.335938 C 314.742188 244.570312 314.730469 244.789062 314.730469 244.984375 C 314.730469 245.152344 314.742188 245.335938 314.769531 245.53125 C 314.808594 245.847656 314.90625 246.082031 315.050781 246.238281 C 315.199219 246.394531 315.410156 246.472656 315.679688 246.472656 C 315.960938 246.472656 316.226562 246.355469 316.476562 246.121094 C 316.726562 245.886719 316.953125 245.535156 317.164062 245.074219 C 317.371094 244.609375 317.570312 244.050781 317.757812 243.40625 C 317.949219 242.757812 318.140625 242.054688 318.34375 241.296875 C 318.425781 240.957031 318.652344 240.789062 319.03125 240.785156 L 319.496094 240.785156 C 319.847656 240.789062 320.019531 240.929688 320.019531 241.21875 Z M 314.242188 234.140625 C 314.191406 233.90625 314.144531 233.660156 314.101562 233.40625 C 314.0625 233.152344 314 232.898438 313.921875 232.648438 C 313.707031 232.035156 313.398438 231.523438 313.003906 231.113281 C 312.605469 230.699219 312.101562 230.492188 311.496094 230.492188 C 310.933594 230.492188 310.375 230.699219 309.820312 231.101562 C 309.269531 231.507812 308.765625 232.027344 308.308594 232.667969 C 307.660156 233.574219 307.175781 234.511719 306.851562 235.484375 C 306.53125 236.457031 306.234375 237.472656 305.964844 238.53125 C 305.695312 239.578125 305.472656 240.59375 305.296875 241.570312 C 305.191406 242.070312 305.136719 242.539062 305.136719 242.984375 C 305.136719 243.453125 305.191406 243.910156 305.296875 244.355469 C 305.417969 244.96875 305.636719 245.476562 305.953125 245.875 C 306.269531 246.277344 306.710938 246.472656 307.277344 246.472656 C 307.894531 246.472656 308.519531 246.257812 309.144531 245.828125 C 309.769531 245.394531 310.351562 244.867188 310.890625 244.238281 C 311.105469 243.976562 311.3125 243.726562 311.507812 243.484375 C 311.703125 243.242188 311.875 242.984375 312.023438 242.707031 Z M 314.242188 234.140625 "/>
<path style="fill:none;stroke-width:15;stroke-linecap:round;stroke-linejoin:round;stroke:rgb(0%,0%,94.099426%);stroke-opacity:1;stroke-miterlimit:10;" d="M 1296.330334 1546.527461 C 1503.443652 1546.527461 1671.335851 1378.632452 1671.335851 1171.515667 C 1671.335851 964.418434 1503.443652 796.523424 1296.330334 796.523424 " transform="matrix(0.199789,0,0,-0.199785,0,477.0478)"/>
<path style="fill:none;stroke-width:15;stroke-linecap:round;stroke-linejoin:round;stroke:rgb(0%,0%,94.099426%);stroke-opacity:1;stroke-miterlimit:10;" d="M 1296.330334 1771.514985 C 1627.715553 1771.514985 1896.339161 1502.886881 1896.339161 1171.515667 C 1896.339161 840.144452 1627.715553 571.5359 1296.349885 571.516348 " transform="matrix(0.199789,0,0,-0.199785,0,477.0478)"/>
<path style="fill:none;stroke-width:15;stroke-linecap:round;stroke-linejoin:round;stroke:rgb(0%,0%,94.099426%);stroke-opacity:1;stroke-miterlimit:10;" d="M 1296.330334 1996.522062 C 1751.967902 1996.522062 2121.322919 1627.160862 2121.322919 1171.515667 C 2121.322919 715.890023 1751.967902 346.528823 1296.330334 346.528823 " transform="matrix(0.199789,0,0,-0.199785,0,477.0478)"/>
<path style=" stroke:none;fill-rule:evenodd;fill:rgb(0%,0%,0%);fill-opacity:1;" d="M 231.984375 64.882812 C 231.835938 65.277344 231.578125 65.472656 231.214844 65.472656 C 229.871094 65.394531 228.527344 65.355469 227.195312 65.355469 L 226.527344 65.355469 C 224.953125 65.378906 223.371094 65.421875 221.785156 65.472656 C 221.421875 65.472656 221.226562 65.300781 221.199219 64.960938 L 221.199219 64.804688 L 221.277344 64.472656 C 221.386719 64.042969 221.648438 63.832031 222.066406 63.84375 C 222.5625 63.84375 223.007812 63.828125 223.398438 63.796875 C 223.789062 63.765625 224.167969 63.648438 224.53125 63.453125 C 224.664062 63.386719 224.78125 63.296875 224.875 63.175781 C 224.925781 63.074219 224.960938 62.96875 224.972656 62.863281 L 224.972656 62.746094 L 224.488281 56.234375 L 215.359375 56.234375 L 212.148438 61.726562 C 211.976562 62.042969 211.886719 62.328125 211.886719 62.589844 C 211.886719 62.8125 211.953125 63.015625 212.089844 63.195312 C 212.386719 63.628906 212.9375 63.84375 213.746094 63.84375 C 214.109375 63.84375 214.304688 64.003906 214.332031 64.316406 C 214.332031 64.394531 214.316406 64.480469 214.289062 64.570312 L 214.210938 64.882812 C 214.0625 65.277344 213.800781 65.472656 213.421875 65.472656 C 212.183594 65.421875 210.957031 65.378906 209.746094 65.355469 L 209.203125 65.355469 C 208.152344 65.355469 207.085938 65.394531 206.011719 65.472656 C 205.808594 65.472656 205.660156 65.40625 205.566406 65.277344 C 205.484375 65.199219 205.445312 65.105469 205.445312 65 C 205.445312 64.921875 205.457031 64.84375 205.484375 64.765625 L 205.566406 64.472656 C 205.671875 64.042969 205.9375 63.832031 206.351562 63.84375 C 206.785156 63.84375 207.207031 63.800781 207.625 63.707031 C 208.042969 63.617188 208.433594 63.453125 208.796875 63.21875 C 209.160156 62.980469 209.5 62.699219 209.808594 62.363281 C 210.117188 62.03125 210.394531 61.65625 210.636719 61.234375 L 224.894531 36.824219 C 225.136719 36.460938 225.445312 36.285156 225.824219 36.296875 L 226.207031 36.296875 C 226.636719 36.296875 226.878906 36.5 226.933594 36.902344 L 228.710938 62.453125 C 228.738281 62.792969 228.777344 63.050781 228.832031 63.226562 C 228.886719 63.402344 228.980469 63.53125 229.113281 63.609375 C 229.304688 63.726562 229.617188 63.796875 230.054688 63.816406 C 230.492188 63.835938 230.984375 63.84375 231.539062 63.84375 C 231.914062 63.84375 232.105469 64.003906 232.105469 64.316406 C 232.105469 64.394531 232.089844 64.480469 232.0625 64.570312 Z M 223.519531 42.332031 L 216.332031 54.648438 L 224.367188 54.648438 Z M 223.519531 42.332031 "/>
<path style=" stroke:none;fill-rule:evenodd;fill:rgb(0%,0%,0%);fill-opacity:1;" d="M 232.617188 419.449219 C 232.386719 420.394531 231.933594 421.273438 231.253906 422.097656 C 230.574219 422.921875 229.789062 423.621094 228.898438 424.195312 C 228.199219 424.667969 227.484375 425.039062 226.75 425.3125 C 226.015625 425.589844 225.753906 425.707031 225.972656 425.667969 C 225.933594 425.652344 226.285156 425.820312 227.03125 426.167969 C 227.78125 426.515625 228.4375 426.988281 229 427.585938 C 229.632812 428.230469 230.066406 429 230.292969 429.902344 C 230.402344 430.347656 230.460938 430.785156 230.476562 431.214844 C 230.476562 431.710938 230.402344 432.230469 230.253906 432.765625 C 229.996094 433.769531 229.527344 434.734375 228.839844 435.648438 C 228.152344 436.5625 227.332031 437.359375 226.375 438.039062 C 225.367188 438.769531 224.292969 439.324219 223.15625 439.695312 C 222.019531 440.070312 220.882812 440.253906 219.75 440.253906 L 205.289062 440.253906 C 205.089844 440.253906 204.941406 440.195312 204.847656 440.078125 C 204.753906 439.988281 204.703125 439.890625 204.703125 439.785156 C 204.703125 439.707031 204.71875 439.628906 204.746094 439.546875 L 204.828125 439.253906 C 204.90625 438.824219 205.167969 438.613281 205.613281 438.625 C 206.246094 438.628906 206.839844 438.617188 207.390625 438.597656 C 207.941406 438.578125 208.359375 438.511719 208.644531 438.390625 C 208.886719 438.261719 209.074219 437.910156 209.210938 437.332031 L 214.882812 415.234375 C 214.964844 414.945312 215.003906 414.726562 215.003906 414.566406 C 215.003906 414.410156 214.972656 414.320312 214.902344 414.292969 C 214.714844 414.179688 214.347656 414.105469 213.804688 414.078125 C 213.257812 414.054688 212.664062 414.039062 212.015625 414.039062 C 211.8125 414.039062 211.664062 413.976562 211.570312 413.84375 C 211.492188 413.761719 211.449219 413.667969 211.449219 413.546875 C 211.449219 413.472656 211.472656 413.398438 211.511719 413.332031 L 211.570312 413.039062 C 211.613281 412.855469 211.710938 412.707031 211.863281 412.597656 C 212.019531 412.488281 212.183594 412.433594 212.359375 412.429688 L 225.75 412.429688 C 226.855469 412.433594 227.898438 412.597656 228.878906 412.921875 C 229.863281 413.25 230.675781 413.761719 231.324219 414.472656 C 231.957031 415.113281 232.402344 415.855469 232.65625 416.703125 C 232.765625 417.140625 232.816406 417.574219 232.816406 418.019531 C 232.816406 418.492188 232.75 418.964844 232.617188 419.449219 Z M 228.535156 419.375 C 228.671875 418.851562 228.738281 418.328125 228.738281 417.804688 L 228.738281 417.332031 C 228.683594 416.707031 228.496094 416.125 228.171875 415.589844 C 227.890625 415.105469 227.515625 414.726562 227.050781 414.449219 C 226.585938 414.179688 226.046875 414.039062 225.425781 414.039062 L 220.09375 414.039062 C 219.378906 414.039062 218.96875 414.085938 218.863281 414.175781 C 218.699219 414.308594 218.546875 414.6875 218.398438 415.3125 L 215.894531 425.15625 L 221.40625 425.15625 C 222.175781 425.15625 222.9375 425.007812 223.691406 424.707031 C 224.445312 424.40625 225.164062 423.980469 225.851562 423.429688 C 227.277344 422.28125 228.171875 420.929688 228.535156 419.375 Z M 226.050781 432.644531 C 226.242188 431.980469 226.335938 431.320312 226.335938 430.667969 L 226.335938 430.253906 C 226.28125 429.523438 226.085938 428.851562 225.75 428.234375 C 225.453125 427.699219 225.050781 427.265625 224.546875 426.933594 C 224.042969 426.597656 223.453125 426.433594 222.78125 426.429688 L 215.53125 426.429688 L 212.722656 437.410156 C 212.613281 437.855469 212.5625 438.175781 212.5625 438.371094 C 212.5625 438.476562 212.566406 438.535156 212.582031 438.546875 C 212.609375 438.589844 212.960938 438.613281 213.632812 438.625 L 219.023438 438.625 C 219.765625 438.628906 220.511719 438.46875 221.265625 438.148438 C 222.019531 437.828125 222.714844 437.40625 223.347656 436.882812 C 224.046875 436.292969 224.621094 435.636719 225.074219 434.902344 C 225.523438 434.171875 225.851562 433.417969 226.050781 432.644531 Z M 226.050781 432.644531 "/>
</g>
</svg>
