<?xml version="1.0" encoding="utf-8"?>
<!-- Generator: Adobe Illustrator 19.0.0, SVG Export Plug-In . SVG Version: 6.00 Build 0)  -->
<svg version="1.1" id="Layer_1" xmlns="http://www.w3.org/2000/svg" xmlns:xlink="http://www.w3.org/1999/xlink" x="0px" y="0px"
	 viewBox="0 0 177.6666718 61.30439" style="enable-background:new 0 0 177.6666718 61.30439;" xml:space="preserve">
<style type="text/css">
	.st0{fill-rule:evenodd;clip-rule:evenodd;fill:none;}
	.st1{clip-path:url(#SVGID_2_);}
	.st2{fill:none;stroke:#0000FF;stroke-width:0.2331269;stroke-linecap:square;stroke-miterlimit:10;}
	.st3{fill:none;stroke:#000000;stroke-width:0.4662471;stroke-linecap:square;stroke-miterlimit:10;}
	.st4{clip-path:url(#SVGID_4_);fill-rule:evenodd;clip-rule:evenodd;}
	.st5{clip-path:url(#SVGID_6_);fill-rule:evenodd;clip-rule:evenodd;}
	
		.st6{clip-path:url(#SVGID_2_);fill:none;stroke:#000000;stroke-width:0.1997737;stroke-linecap:round;stroke-linejoin:round;stroke-miterlimit:10;}
	.st7{clip-path:url(#SVGID_8_);fill-rule:evenodd;clip-rule:evenodd;}
	.st8{fill:#FFFFFF;}
</style>
<g>
</g>
<polyline class="st0" points="1.5866839,-0.0689545 1.5866839,96.8910446 220.7066803,96.8910446 186.7066803,21.9310455 "/>
<g>
	<defs>
		<polyline id="SVGID_1_" points="1.5868517,0 1.5868517,96.8910446 220.3366547,96.8910446 186.3366547,22 		"/>
	</defs>
	<clipPath id="SVGID_2_">
		<use xlink:href="#SVGID_1_"  style="overflow:visible;"/>
	</clipPath>
	<g class="st1">
		<path class="st2" d="M174.5516205,29.2917194"/>
		<path class="st2" d="M141.404129,39.0525589"/>
		<path class="st2" d="M163.4501495,50.6462784"/>
		<path class="st2" d="M174.5516205,29.2917194"/>
		<path class="st2" d="M149.7530518,18.1188736"/>
		<path class="st2" d="M128.8840332,39.0525589"/>
		<path class="st2" d="M150.9366913,50.6462784"/>
		<path class="st2" d="M149.7530518,18.1188736"/>
		<path class="st2" d="M137.22966,18.1188736"/>
		<path class="st2" d="M116.3606339,39.0525589"/>
		<path class="st2" d="M126.7466354,50.6462784"/>
		<path class="st2" d="M153.6179352,25.127203"/>
		<path class="st2" d="M137.22966,18.1188736"/>
		<path class="st2" d="M124.7095718,18.1188736"/>
		<path class="st2" d="M103.8538132,39.0525589"/>
		<path class="st2" d="M114.2265472,50.6462784"/>
		<path class="st2" d="M145.5785828,39.0525589"/>
		<path class="st2" d="M124.7095718,18.1188736"/>
		<path class="st2" d="M112.1861725,18.1188736"/>
		<path class="st2" d="M91.3337402,39.0525589"/>
		<path class="st2" d="M101.7031479,50.6462784"/>
		<path class="st2" d="M112.1861725,18.1188736c11.5320053,0,20.8723297,9.3759155,20.8723297,20.9336853"/>
		<path class="st2" d="M78.8103333,39.0525589c0-11.5577698,9.3469696-20.9336853,20.8723373-20.9336853"/>
		<path class="st2" d="M89.199646,50.6462784"/>
		<path class="st2" d="M99.6826706,18.1188736c11.5154266,0,20.8524399,9.3759155,20.8524399,20.9336853"/>
		<path class="st2" d="M66.2902679,39.0525589c0-11.5577698,9.3436279-20.9336853,20.8690033-20.9336853"/>
		<path class="st2" d="M76.6762466,50.6462784"/>
		<path class="st2" d="M87.1592712,18.1188736c11.5154266,0,20.8524323,9.3759155,20.8524323,20.9336853"/>
		<path class="st2" d="M53.7734833,39.0525589c0-11.5577698,9.3370056-20.9336853,20.8623962-20.9336853"/>
		<path class="st2" d="M64.1528549,50.6462784"/>
		<path class="st2" d="M74.6358795,18.1188736c11.5187378,0,20.8723221,9.3759155,20.8723221,20.9336853"/>
		<path class="st2" d="M41.2534027,39.0525589c0-11.5577698,9.3370056-20.9336853,20.8690186-20.9336853"/>
		<path class="st2" d="M51.6393929,50.6462784"/>
		<path class="st2" d="M62.1224213,18.1188736c11.5087891,0,20.8623962,9.3759155,20.8623962,20.9336853"/>
		<path class="st2" d="M28.7299938,39.0525589c0-11.5577698,9.337038-20.9336853,20.8723469-20.9336853"/>
		<path class="st2" d="M39.1193123,50.6462784"/>
		<path class="st2" d="M49.6023407,18.1188736c11.5220642,0,20.8590698,9.3759155,20.8590698,20.9336853"/>
		<path class="st2" d="M16.2099438,39.0525589c0-11.5577698,9.3369751-20.9336853,20.8689899-20.9336853"/>
		<path class="st2" d="M37.0789337,18.1188736c11.5253906,0,20.8690186,9.3759155,20.8690186,20.9336853"/>
		<line class="st3" x1="141.404129" y1="39.0525589" x2="7.8609757" y2="39.0525589"/>
		<line class="st3" x1="141.2066803" y1="18.1188736" x2="7.8609757" y2="18.1188736"/>
	</g>
	<g class="st1">
		<defs>
			<polyline id="SVGID_3_" points="68.8503036,52.6377258 8.1456747,40.1740112 11.0046225,39.1779785 10.333333,93.6377258 			"/>
		</defs>
		<clipPath id="SVGID_4_">
			<use xlink:href="#SVGID_3_"  style="overflow:visible;"/>
		</clipPath>
		<path class="st4" d="M18.6439762,45.7386322c-0.0213089,0.0980225-0.0751152,0.1464996-0.1614189,0.1464996
			c-0.0069237,0.0069275-0.0250359,0.0106506-0.0538063,0.0101166c-0.0181122,0.0005341-0.0324936-0.0031891-0.043148-0.0101166
			h-0.048481c-0.0932274,0-0.1401062-0.0346222-0.1401062-0.10495v-0.0362244
			c0.0431519-0.257843,0.0644608-0.4965057,0.0644608-0.7165375v-0.1987
			c-0.0213089-0.2679749-0.0815086-0.498642-0.1800652-0.6925659c-0.0985527-0.1933746-0.2434578-0.3430786-0.4336395-0.4496307
			c-0.1901855-0.1060028-0.4309807-0.1592865-0.7218513-0.1598206c-0.1683426,0.0005341-0.3398819,0.0372925-0.5140839,0.1102753
			c-0.1738853,0.0735168-0.3362617,0.1726074-0.4872351,0.2978058c-0.1650391,0.1363831-0.2996597,0.2903442-0.4039154,0.4629517
			c-0.1039352,0.1725922-0.1794243,0.349472-0.2264633,0.5305939c-0.0356407,0.1294556-0.0552444,0.2525177-0.0591354,0.3713226
			c0,0.1635437,0.0359612,0.3207092,0.1078262,0.4703979c0.1042557,0.2514496,0.2908173,0.4118042,0.560112,0.4810638
			l1.2386503,0.3452148c0.2258797,0.0665894,0.4192581,0.1720734,0.5790787,0.316452
			c0.1598206,0.1448975,0.2796822,0.3153839,0.3606567,0.5124817c0.0809784,0.197113,0.1283875,0.4118042,0.1427727,0.6451569
			v0.0942841c0,0.2024384-0.0287666,0.4096832-0.0862999,0.6222382c-0.075119,0.2929993-0.1955147,0.5753479-0.3606606,0.8470459
			c-0.1651459,0.2722321-0.3697128,0.5162201-0.6142387,0.7319794c-0.2333336,0.1987152-0.4885139,0.3585358-0.767128,0.4782867
			c-0.2784615,0.1202393-0.5575552,0.1803894-0.837615,0.1803894c-0.4127045,0-0.7646255-0.0660095-1.0554962-0.1987152
			c-0.2908173-0.1318054-0.5061455-0.2990723-0.6463623-0.5020447l-0.5329437,0.632782
			c-0.0463982,0.0453796-0.0950928,0.0679626-0.1454353,0.0679626h-0.0323372c-0.08955,0-0.1382408-0.034668-0.1454353-0.1045685
			c0-0.0209351,0.0055428-0.0399017,0.016037-0.0575409l0.6247864-2.4468994
			c0.0215759-0.0974884,0.0846481-0.1475677,0.1885338-0.151825h0.1183167
			c0.0431519,0.0005341,0.0826797,0.0175781,0.1186409,0.0522003c0.014328,0.028244,0.0215225,0.0527496,0.0215225,0.0735168
			c0,0.014389-0.0035706,0.0314331-0.0107613,0.0522156c-0.0647278,0.2514496-0.097065,0.484787-0.097065,0.7005463
			c0,0.3457489,0.0846519,0.6382141,0.2532616,0.878479c0.2692413,0.3872986,0.7398033,0.5806885,1.4110413,0.5801544
			c0.1686096,0.0005341,0.3401489-0.0388947,0.5143499-0.1172028c0.1740952-0.0783081,0.3365784-0.1837921,0.4873428-0.316452
			c0.1651459-0.1528931,0.3041878-0.3228302,0.4171295-0.5098267c0.1129379-0.1859131,0.1965752-0.3787689,0.2503815-0.5780182
			c0.0356903-0.1598206,0.0538063-0.3095093,0.0538063-0.4496155c0-0.1736755-0.0229073-0.3409576-0.0697899-0.5018463
			c-0.1076126-0.2679596-0.3068504-0.440567-0.5977211-0.5172882l-1.2225103-0.3452148
			c-0.2189522-0.0591278-0.407486-0.1555634-0.5656509-0.2898102c-0.157795-0.1342468-0.2806969-0.2935333-0.3685989-0.4783936
			c-0.0878983-0.1848602-0.1392021-0.3889008-0.1535835-0.6121063V45.77005c0-0.1736755,0.0215721-0.3569336,0.064724-0.5492554
			c0.075489-0.2780762,0.1957245-0.5449829,0.3607674-0.7996216c0.1653061-0.2541199,0.369873-0.4794617,0.6136513-0.6744537
			c0.2300835-0.1880493,0.4823341-0.3388062,0.7568464-0.4522858c0.2746239-0.1129456,0.5468483-0.1699371,0.8158798-0.1699371
			c0.3702469,0,0.6749687,0.0692596,0.9152298,0.2066956c0.2407913,0.1379852,0.4149971,0.3004608,0.5226059,0.4885254
			l0.5172806-0.6222382c0.0282364-0.0484772,0.075119-0.0729828,0.1395798-0.0729828h0.0484772
			c0.0863037,0,0.1294518,0.0420837,0.1294518,0.1251984v0.0420837L18.6439762,45.7386322z"/>
		<path class="st4" d="M22.2015514,52.3081207c-0.4139328-0.0117188-0.8172112-0.0175781-1.209301-0.0175781
			c-0.3915558-0.0000153-0.7948341,0.0058441-1.2092972,0.0175781v-0.2517853h0.2333374
			c0.0745811,0.0001678,0.1443672-0.0007324,0.209362-0.0027618c0.0655251-0.0018158,0.1273232-0.0067596,0.1859245-0.0146484
			c0.0585976-0.0076752,0.109211-0.015564,0.1518288-0.0236053c0.0362244-0.0056458,0.0660553-0.0235901,0.0894966-0.0539551
			c0.0239716-0.0302124,0.0356941-0.0638885,0.0356941-0.1012268v-3.2996063
			c-0.1124077,0.0490112-0.2509155,0.0857697-0.4155312,0.1113434c-0.1646118,0.0255737-0.344677,0.0378265-0.5407219,0.0378265
			V48.460907c0.2706299,0,0.5199432-0.0287628,0.7484856-0.0863037c0.2285423-0.0575256,0.4261856-0.1656799,0.5929298-0.3238983
			h0.1044159c0.0745811,0.0005341,0.1113396,0.0325012,0.1113396,0.0969543v3.7124786
			c0,0.0391541,0.0111885,0.07341,0.0340958,0.1026611c0.0223732,0.0292969,0.0554047,0.046875,0.0980225,0.0525208
			c0.0356941,0.0080566,0.0820389,0.0159302,0.1385078,0.0236053c0.0559387,0.0078888,0.1198654,0.0128326,0.1907196,0.0146484
			c0.0708542,0.0020294,0.1401062,0.0029297,0.2077637,0.0027771h0.2429276V52.3081207z"/>
	</g>
	<g class="st1">
		<defs>
			<polygon id="SVGID_5_" points="25.0605297,17.2662277 22.3833103,17.9478493 14,-64.0289383 8.1456442,17.2662354 			"/>
		</defs>
		<clipPath id="SVGID_6_">
			<use xlink:href="#SVGID_5_"  style="overflow:visible;"/>
		</clipPath>
		<path class="st5" d="M16.4667377,7.593586c-0.0213089,0.0980225-0.075119,0.1464996-0.1614227,0.1464996
			c-0.0069199,0.0069275-0.025032,0.0106506-0.0538025,0.0101166c-0.0181122,0.0005341-0.0325012-0.0031891-0.0431519-0.0101166
			h-0.0484772c-0.0932312,0-0.1401138-0.0346222-0.1401138-0.10495V7.5989113
			c0.0431519-0.257843,0.0644608-0.4965057,0.0644608-0.7165375v-0.1987
			c-0.0213089-0.2679749-0.0815048-0.498642-0.1800604-0.6925659c-0.0985565-0.1933746-0.2434616-0.3430786-0.4336472-0.4496307
			c-0.1901932-0.1060028-0.4309845-0.1592865-0.7218628-0.1598206c-0.1683426,0.0005341-0.3398819,0.0372925-0.5140915,0.1102753
			c-0.1738815,0.0735168-0.3362579,0.1726074-0.487236,0.2978058c-0.1650467,0.1363831-0.2996674,0.2903442-0.403923,0.4629517
			c-0.1039352,0.1725922-0.1794281,0.349472-0.2264709,0.5305939c-0.0356369,0.1294556-0.0552444,0.2525177-0.0591278,0.3713226
			c0,0.1635437,0.0359573,0.3207092,0.1078262,0.4703979c0.1042557,0.2514496,0.2908173,0.4118042,0.5601196,0.4810638
			l1.2386627,0.3452148c0.2258835,0.0665894,0.4192657,0.1720734,0.5790863,0.316452
			c0.1598206,0.1448975,0.279686,0.3153839,0.3606644,0.5124817c0.0809784,0.197113,0.1283865,0.4118042,0.1427679,0.6451569
			v0.0942841c0,0.2024384-0.0287628,0.4096832-0.0862951,0.6222382c-0.075119,0.2929993-0.1955185,0.5753479-0.3606644,0.8470459
			c-0.1651535,0.2722321-0.3697205,0.5162201-0.6142502,0.7319794c-0.2333374,0.1987152-0.4885178,0.3585358-0.7671356,0.4782867
			c-0.2784653,0.1202393-0.5575638,0.1803894-0.8376236,0.1803894c-0.4127121,0-0.7646408-0.0660095-1.0555115-0.1987152
			c-0.2908249-0.1318054-0.5061569-0.2990723-0.6463699-0.5020447l-0.5329514,0.632782
			c-0.046402,0.0453796-0.0950928,0.0679626-0.1454391,0.0679626h-0.0323334c-0.0895538,0-0.1382446-0.034668-0.1454391-0.1045685
			c0-0.0209351,0.0055389-0.0399017,0.016037-0.0575409l0.624794-2.4468994
			c0.0215759-0.0974884,0.0846481-0.1475677,0.1885376-0.151825h0.1183167
			c0.0431519,0.0005341,0.0826797,0.0175781,0.1186447,0.0522003c0.014328,0.028244,0.0215225,0.0527496,0.0215225,0.0735168
			c0,0.014389-0.0035706,0.0314331-0.0107651,0.0522156c-0.0647278,0.2514496-0.0970612,0.484787-0.0970612,0.7005463
			c0,0.3457489,0.0846481,0.6382141,0.2532578,0.878479c0.269249,0.3872986,0.7398148,0.5806885,1.4110641,0.5801544
			c0.1686096,0.0005341,0.3401489-0.0388947,0.5143585-0.1172028c0.1740952-0.0783081,0.3365784-0.1837921,0.4873428-0.316452
			c0.1651535-0.1528931,0.3041992-0.3228302,0.4171371-0.5098267c0.1129379-0.1859131,0.196579-0.3787689,0.2503815-0.5780182
			c0.0356979-0.1598206,0.0538101-0.3095093,0.0538101-0.4496307c0-0.1736603-0.0229111-0.3409424-0.0697937-0.5018311
			c-0.107605-0.2679596-0.3068542-0.440567-0.5977249-0.5172882l-1.2225266-0.3452148
			c-0.218956-0.0591278-0.4074936-0.1555634-0.5656586-0.2898102c-0.1577988-0.1342468-0.2807007-0.2935333-0.3685989-0.4783936
			c-0.0879059-0.1848602-0.1392059-0.3889008-0.153595-0.6121063V7.6250038c0-0.1736755,0.0215759-0.3569336,0.0647278-0.5492554
			c0.0754929-0.2780762,0.1957321-0.5449829,0.3607712-0.7996216c0.1653061-0.2541199,0.3698807-0.4794617,0.6136627-0.6744537
			c0.2300873-0.1880493,0.482338-0.3388062,0.7568588-0.4522858c0.2746201-0.1129456,0.5468521-0.1699371,0.8158875-0.1699371
			c0.3702469,0,0.6749725,0.0692596,0.9152374,0.2066956c0.240799,0.1379852,0.415,0.3004608,0.5226126,0.4885254
			l0.5172882-0.6222382c0.0282364-0.0484772,0.075119-0.0729828,0.1395798-0.0729828h0.0484772
			c0.0863037,0,0.1294556,0.0420837,0.1294556,0.1251984v0.0420837L16.4667377,7.593586z"/>
		<path class="st5" d="M20.274744,14.1630745l-2.7494583-0.0000153V14.002018c0-0.0115051,0.0069275-0.0290833,0.0202484-0.0526886
			l1.1048965-1.07164c0.1305161-0.1286011,0.2626343-0.2604065,0.3963547-0.3951874
			c0.1342468-0.1347809,0.2541122-0.2722321,0.3601303-0.4128723c0.1060104-0.1406403,0.1901855-0.2855377,0.2535782-0.4347076
			c0.0628662-0.1491699,0.0942917-0.3057861,0.0942917-0.4698792c0-0.138504-0.0202408-0.2679596-0.06073-0.3878326
			c-0.0410156-0.1203918-0.0990906-0.2253418-0.1758041-0.3164368c-0.0767136-0.0905609-0.1720734-0.1640778-0.2871399-0.2194977
			c-0.1145401-0.0553894-0.2477264-0.0836334-0.3984909-0.0836334c-0.2248154,0-0.424057,0.0601959-0.5961304,0.180069
			c-0.1720734,0.1203918-0.2866135,0.2525177-0.3430862,0.3968811c-0.0111847,0.0037231,0.0069275,0.0058594,0.0543442,0.0058594
			h0.0569992c0.0676575,0.013855,0.1262589,0.0346375,0.1758041,0.0628662s0.091095,0.0676575,0.1251907,0.1172028
			c0.0335617,0.0495453,0.0506134,0.1097412,0.0506134,0.180069c0,0.1172028-0.0426178,0.2072296-0.1283875,0.2695618
			s-0.1811295,0.0937653-0.2871475,0.0932312c-0.1012192,0.0005341-0.1960449-0.030899-0.2834167-0.0932312
			c-0.0878983-0.0623322-0.1321182-0.1523743-0.1321182-0.2695618c0-0.164093,0.0362244-0.3191223,0.1081467-0.4656219
			c0.0724487-0.1464996,0.1699448-0.2732849,0.2940674-0.3803711c0.1235962-0.107605,0.2701035-0.1923065,0.4389801-0.2546387
			c0.1688766-0.0628662,0.3478775-0.0937653,0.5369949-0.0942993c0.2344055,0.0005341,0.4490967,0.030899,0.6435471,0.0926971
			c0.1949844,0.061264,0.3606644,0.149704,0.4981079,0.2647705c0.1374512,0.1156006,0.2450562,0.2487946,0.3228378,0.3995514
			c0.0772476,0.1513062,0.1161423,0.318573,0.1161423,0.5023651c0,0.2029724-0.0516815,0.3899689-0.1550293,0.5604401
			c-0.1038818,0.1710052-0.2322769,0.3276367-0.38517,0.4704132c-0.1528931,0.1422424-0.3159103,0.2764893-0.4879837,0.4022064
			c-0.1726074,0.1260529-0.3281708,0.2484741-0.4677429,0.3674316l-0.7772675,0.6529236h1.0169983
			c0.1417084,0.0002136,0.2743607-0.0007019,0.3968887-0.0027161c0.1225281-0.0018158,0.2264099-0.0058594,0.3121796-0.0117188
			c0.0857773-0.0058594,0.1294556-0.0097046,0.1315918-0.0118866c0.0181122-0.0135345,0.0351563-0.040802,0.0511398-0.0818329
			c0.0154495-0.0409546,0.030365-0.0892792,0.0436859-0.1448975s0.0271683-0.1121979,0.0404892-0.1698303
			c0.0138474-0.0574799,0.0261002-0.1206207,0.0372849-0.1890259h0.249855L20.274744,14.1630745z"/>
	</g>
	<path class="st1" d="M34.489399,42.2844963l-1.7979431,5.9932785l1.4982758-1.1986542h0.5993195l1.498291,1.1986542
		L34.489399,42.2844963z M34.1897316,82.2394104V47.0743256h0.5993195v35.1650848
		c0,0.1656799-0.1339722,0.2996674-0.2996521,0.2996674C34.3239784,82.5390778,34.1897316,82.4050903,34.1897316,82.2394104z"/>
	<path class="st1" d="M80.4493637,42.2844963l-1.7979431,5.9932785l1.498291-1.1986542h0.5993195l1.4982758,1.1986542
		L80.4493637,42.2844963z M80.1497116,82.2394104V47.0743256h0.5993195v35.1650848
		c0,0.1656799-0.1342468,0.2996674-0.2996674,0.2996674C80.2839584,82.5390778,80.1497116,82.4050903,80.1497116,82.2394104z"/>
	<path class="st1" d="M127.6329956,42.2844963l-1.7979431,5.9932785l1.4982834-1.1986542h0.5993118l1.498291,1.1986542
		L127.6329956,42.2844963z M127.3333359,82.2394104V47.0743256h0.5993118v35.1650848
		c0,0.1656799-0.1342468,0.2996674-0.2996521,0.2996674C127.4673157,82.5390778,127.3333359,82.4050903,127.3333359,82.2394104z"/>
	<path class="st1" d="M150.7740326,18.0448227l-0.8989716,4.1952972h0.7492828h0.2996521h0.7490082L150.7740326,18.0448227z
		 M150.7740326,39.2514381l0.8989716-4.1952934h-0.7490082h-0.2996521h-0.7492828L150.7740326,39.2514381z M150.6243439,35.0604019
		V22.2358551h0.2996521v12.8245468H150.6243439z"/>
	<line class="st6" x1="147.134201" y1="39.2514381" x2="154.4138641" y2="39.2514381"/>
	<line class="st6" x1="147.134201" y1="18.0448227" x2="154.4138641" y2="18.0448227"/>
	<g class="st1">
		<defs>
			<polygon id="SVGID_7_" points="153.0905304,52.4093132 175.7384033,61.7426491 175.7383881,19.9530659 151.9068909,19.9530659 
							"/>
		</defs>
		<clipPath id="SVGID_8_">
			<use xlink:href="#SVGID_7_"  style="overflow:visible;"/>
		</clipPath>
		<path class="st7" d="M159.2755585,29.9908009c-0.0394135,0.1603527-0.0857697,0.3382854-0.1401062,0.5332661
			c-0.0532684,0.1955128-0.1251831,0.3766403-0.2152252,0.5439186c-0.0894928,0.1672783-0.2024231,0.3121815-0.3393402,0.4339104
			c-0.1363831,0.1218891-0.3068542,0.1826744-0.5114136,0.1826744c-0.2514496,0-0.454422-0.0643539-0.6083832-0.1931152
			c-0.15448-0.1288681-0.2498474-0.2615185-0.2857513-0.3978977c-0.1218872,0.1507626-0.2852783,0.2866096-0.4898376,0.4083385
			c-0.2045746,0.1218891-0.4417877,0.1826744-0.7110901,0.1826744c-0.2437744,0-0.4620209-0.0450687-0.6541901-0.1359539
			c-0.1921539-0.0901909-0.3437653-0.2297134-0.4552002-0.4183006c-0.1075134-0.2019062-0.1594543-0.4245872-0.1562042-0.6691113
			v-0.0420856c0.0071869-0.2541142,0.0395355-0.5066299,0.0970612-0.7580795
			c0.0574799-0.2402611,0.1411743-0.5044956,0.2506561-0.7943039c0.1094208-0.2892723,0.2143707-0.5700226,0.314682-0.8422489
			c0.1078186-0.2887402,0.1617279-0.5258045,0.1617279-0.7106628c0-0.1566238-0.06633-0.2354698-0.1993408-0.2354698
			c-0.1218872,0-0.2323303,0.035162-0.3310394,0.10495c-0.0986633,0.069788-0.1885376,0.1667442-0.2692413,0.2898064
			c-0.0807037,0.1241264-0.1535797,0.270628-0.2183075,0.4395027c-0.064682,0.1694088-0.1182709,0.349474-0.1614227,0.5407238
			c-0.0395203,0.0942936-0.1058502,0.1433048-0.199295,0.1465015h-0.1238556c-0.0863037,0-0.1293945-0.0431519-0.1293945-0.1305199
			V28.43256c0.050293-0.1917839,0.1169891-0.3872967,0.199295-0.5881348
			c0.0826721-0.2003098,0.1869354-0.3819695,0.312439-0.5460529c0.1257782-0.1640797,0.2695618-0.2999268,0.4309692-0.4080715
			c0.1614685-0.1076107,0.3463898-0.1619511,0.5545807-0.1624832c0.1797333,0.0005322,0.3329468,0.0388889,0.460434,0.1156025
			c0.1274261,0.0767136,0.2244873,0.1784649,0.2908173,0.305788c0.0666351,0.1273232,0.103241,0.270628,0.1104279,0.4309807
			v0.0367584c0,0.1502304-0.030365,0.3052559-0.0917816,0.4650745c-0.1039429,0.2722263-0.2068634,0.550312-0.3094635,0.834259
			c-0.1022949,0.2844791-0.1820374,0.5396576-0.2395782,0.7660694c-0.0574799,0.226944-0.0970001,0.4512234-0.118576,0.6744385
			c-0.014389,0.0591335-0.0232239,0.1241264-0.0267944,0.1933823c0,0.1358452,0.0234833,0.270628,0.0698853,0.4022121
			c0.0323944,0.1193314,0.0915222,0.2130928,0.1777802,0.2828808c0.0863037,0.069788,0.1885834,0.1044159,0.306839,0.1044159
			c0.2372894,0,0.4437714-0.0708542,0.6195679-0.214159c0.1757965-0.1427727,0.3300781-0.3329582,0.4627228-0.5705566
			c0.0072021-0.0271683,0.0127411-0.0596657,0.0163574-0.095892c0.0035706-0.0367584,0.0087891-0.0745811,0.015976-0.1129379
			l0.807724-3.1164837c0.0330353-0.1283875,0.0980225-0.2232132,0.196579-0.2844791
			c0.0990906-0.06073,0.1987-0.091629,0.2988586-0.091629c0.1044159,0,0.1907196,0.0314312,0.2589111,0.0942936
			c0.046875,0.0452824,0.0697784,0.1060143,0.0697784,0.1827278c0,0.0383549-0.0037231,0.0788441-0.0106506,0.1203976
			l-0.8076172,3.1159496c-0.0575256,0.2162876-0.0863037,0.4080715-0.0863037,0.5753498
			c0,0.0458145,0.0032043,0.0942936,0.0106659,0.1465015c0.0181122,0.1672783,0.1022797,0.2509174,0.2530365,0.2509174
			c0.1512909,0,0.2812805-0.1283894,0.3904877-0.3867645c0.1097412-0.257843,0.2162933-0.589201,0.3201752-0.9935455
			c0.0218353-0.0905647,0.0830994-0.1358471,0.1832581-0.1363792h0.1235809
			c0.0399628,0.0005322,0.0793762,0.012785,0.1188049,0.0367584c0.014389,0.0319653,0.0218353,0.0580692,0.0218353,0.0783119
			C159.2920685,29.9524441,159.2867432,29.9700241,159.2755585,29.9908009z"/>
		<path class="st7" d="M165.4232178,24.9452953l-2.9507751,5.746048h5.896759L165.4232178,24.9452953z M169.8608246,31.3604565
			c0.0112,0.0250378,0.0159912,0.0474129,0.0159912,0.0679226c0,0.0280743-0.0069275,0.0490112-0.0213165,0.0627556
			c-0.0218353,0.0418205-0.062851,0.0627022-0.124115,0.0627022h-7.9695892c-0.0575409,0-0.0990906-0.0208817-0.1241302-0.0627022
			c-0.0143738-0.0137444-0.0213013-0.0346813-0.0213013-0.0627556c0-0.0205097,0.0053253-0.0428848,0.015976-0.0679226
			l3.8180542-7.4401379c0.046875-0.1006851,0.1294403-0.1496983,0.2477112-0.1465015h0.0969543
			c0.1113434,0.0005322,0.1939087,0.0474148,0.2477264,0.1411743L169.8608246,31.3604565z"/>
		<path class="st7" d="M173.713501,27.1252365c-0.0388794,0.1049461-0.1092072,0.157156-0.2098846,0.157156h-1.0015259
			l-0.7969666,3.0898457c-0.0644531,0.2237473-0.0969543,0.418726-0.0969543,0.5854721
			c0,0.0458145,0.0037384,0.0894985,0.0106506,0.131052c0.0181274,0.1672783,0.1022949,0.2509174,0.2530518,0.2509174
			c0.1369171,0,0.2658386-0.0372925,0.3878326-0.1124077c0.1225281-0.0745811,0.2370605-0.1752682,0.3446655-0.3004608
			c0.108139-0.1257248,0.2045746-0.2732906,0.290863-0.4442978c0.0863037-0.1710072,0.1651459-0.3505383,0.2365417-0.5391254
			c0.0111847-0.0415535,0.0346222-0.0719185,0.0703125-0.0910969c0.0362244-0.0191784,0.0703278-0.0287685,0.1022797-0.0293007
			h0.1347809c0.0468903,0.0005322,0.0841827,0.0197124,0.1129456,0.0575352
			c0.0111847,0.0250397,0.015976,0.0474129,0.015976,0.0681896v0.0314312
			c-0.0751038,0.2056351-0.1694031,0.4091396-0.2823334,0.6094456c-0.1129456,0.20084-0.2434692,0.3809032-0.3905029,0.541256
			c-0.1470184,0.1603527-0.3095093,0.2926292-0.487442,0.3968849c-0.1779327,0.1045761-0.3739624,0.1568375-0.5897217,0.1568375
			c-0.1864624,0-0.3478699-0.0356407-0.484787-0.1071854c-0.1363678-0.071228-0.245575-0.1700497-0.3281555-0.297905
			c-0.0825653-0.1267891-0.1310425-0.2727585-0.1454315-0.4368401c-0.0074615-0.0415535-0.0106506-0.0868359-0.0106506-0.1358471
			c0-0.1182652,0.0143738-0.2386627,0.0431519-0.3606586l0.7910919-3.0637417h-1.0121765
			c-0.0895081,0-0.1385193-0.0468826-0.1454468-0.1411762v-0.0420837l0.0325012-0.0889664
			c0.0356903-0.1038837,0.1022797-0.1566238,0.199234-0.1566238h1.0281677l0.4421692-1.7148647
			c0.0319672-0.1289215,0.0974884-0.2248135,0.1960449-0.2871418c0.0985565-0.0628624,0.1987-0.0942936,0.2988586-0.0948277
			c0.1044159,0.0005341,0.1907043,0.0335617,0.2588959,0.0996208c0.0463562,0.0458145,0.0697937,0.1081448,0.0697937,0.188055
			c0,0.0383568-0.0037384,0.0772457-0.0106506,0.1150703l-0.4363098,1.694088h0.9908752
			c0.09375,0,0.1401062,0.0474129,0.1401062,0.1411743v0.0367584L173.713501,27.1252365z"/>
	</g>
</g>
<polyline class="st0" points="1.5866534,-0.0689545 1.5866534,96.8910446 220.7066498,96.8910446 186.7066498,21.9310455 "/>
<rect x="16.666666" y="59.30439" class="st8" width="125.6666641" height="25.333334"/>
</svg>
