<?xml version="1.0" encoding="UTF-8"?>
<svg xmlns="http://www.w3.org/2000/svg" xmlns:xlink="http://www.w3.org/1999/xlink" width="561pt" height="517.02pt" viewBox="0 0 561 517.02" version="1.1">
<defs>
<clipPath id="clip1">
  <path d="M 342 181 L 507.066406 181 L 507.066406 351 L 342 351 Z M 342 181 "/>
</clipPath>
<clipPath id="clip2">
  <path d="M 216 18.226562 L 386 18.226562 L 386 187 L 216 187 Z M 216 18.226562 "/>
</clipPath>
<clipPath id="clip3">
  <path d="M 172 18.226562 L 342 18.226562 L 342 181 L 172 181 Z M 172 18.226562 "/>
</clipPath>
<clipPath id="clip4">
  <path d="M 127 18.226562 L 298 18.226562 L 298 187 L 127 187 Z M 127 18.226562 "/>
</clipPath>
<clipPath id="clip5">
  <path d="M 7.601562 137 L 177 137 L 177 307 L 7.601562 307 Z M 7.601562 137 "/>
</clipPath>
<clipPath id="clip6">
  <path d="M 7.601562 181 L 171 181 L 171 351 L 7.601562 351 Z M 7.601562 181 "/>
</clipPath>
<clipPath id="clip7">
  <path d="M 7.601562 226 L 177 226 L 177 396 L 7.601562 396 Z M 7.601562 226 "/>
</clipPath>
<clipPath id="clip8">
  <path d="M 172 352 L 342 352 L 342 516.5 L 172 516.5 Z M 172 352 "/>
</clipPath>
<clipPath id="clip9">
  <path d="M 342 181 L 507.066406 181 L 507.066406 351 L 342 351 Z M 342 181 "/>
</clipPath>
<clipPath id="clip10">
  <path d="M 7.601562 18.226562 L 507.066406 18.226562 L 507.066406 516.5 L 7.601562 516.5 Z M 7.601562 18.226562 "/>
</clipPath>
</defs>
<g id="surface1">
<g clip-path="url(#clip1)" clip-rule="nonzero">
<path style="fill:none;stroke-width:0.70276;stroke-linecap:square;stroke-linejoin:miter;stroke:rgb(0%,0%,100%);stroke-opacity:1;stroke-miterlimit:10;" d="M 297.560219 152.489779 C 297.560219 129.539646 278.900027 110.939414 255.899038 110.939414 C 232.879011 110.939414 214.271175 129.539646 214.271175 152.489779 C 214.271175 175.45897 232.879011 194.090172 255.899039 194.090172 C 278.900028 194.090172 297.56022 175.45897 297.560219 152.489779 " transform="matrix(1.641404,0,-0.00000000296644,-1.639764,7.603116,516.500443)"/>
</g>
<path style="fill:none;stroke-width:0.70276;stroke-linecap:square;stroke-linejoin:miter;stroke:rgb(0%,0%,100%);stroke-opacity:1;stroke-miterlimit:10;" d="M 293.990485 179.43963 C 293.990485 156.470439 275.358851 137.839238 252.338823 137.839238 C 229.371152 137.839238 210.749037 156.470439 210.749037 179.43963 C 210.749037 202.380234 229.371152 220.989996 252.338823 220.989996 C 275.358851 220.989996 293.990485 202.380234 293.990485 179.43963 " transform="matrix(1.641404,0,-0.00000000296644,-1.639764,7.603116,516.500443)"/>
<path style="fill:none;stroke-width:0.70276;stroke-linecap:square;stroke-linejoin:miter;stroke:rgb(0%,0%,100%);stroke-opacity:1;stroke-miterlimit:10;" d="M 283.600178 204.490865 C 283.600178 181.550261 264.939986 162.900002 241.969935 162.900002 C 218.968946 162.900002 200.311133 181.550261 200.311134 204.490865 C 200.311134 227.460056 218.968946 246.038849 241.969935 246.038849 C 264.939986 246.038849 283.600178 227.460056 283.600178 204.490865 " transform="matrix(1.641404,0,-0.00000000296644,-1.639764,7.603116,516.500443)"/>
<path style="fill:none;stroke-width:0.70276;stroke-linecap:square;stroke-linejoin:miter;stroke:rgb(0%,0%,100%);stroke-opacity:1;stroke-miterlimit:10;" d="M 267.050889 226.009295 C 267.050889 203.040104 248.440673 184.458929 225.420646 184.458929 C 202.419657 184.458929 183.809441 203.040104 183.809441 226.009295 C 183.809441 248.9499 202.419657 267.609687 225.420646 267.609687 C 248.440673 267.609687 267.050889 248.9499 267.050889 226.009295 " transform="matrix(1.641404,0,-0.00000000296644,-1.639764,7.603116,516.500443)"/>
<path style="fill:none;stroke-width:0.70276;stroke-linecap:square;stroke-linejoin:miter;stroke:rgb(0%,0%,100%);stroke-opacity:1;stroke-miterlimit:10;" d="M 245.480174 242.529866 C 245.480174 219.579732 226.83902 200.9795 203.868969 200.9795 C 180.848941 200.9795 162.241105 219.579732 162.241105 242.529866 C 162.241105 265.499057 180.848941 284.120729 203.868969 284.120729 C 226.83902 284.120729 245.480174 265.499057 245.480174 242.529866 " transform="matrix(1.641404,0,-0.00000000296644,-1.639764,7.603116,516.500443)"/>
<g clip-path="url(#clip2)" clip-rule="nonzero">
<path style="fill:none;stroke-width:0.70276;stroke-linecap:square;stroke-linejoin:miter;stroke:rgb(0%,0%,100%);stroke-opacity:1;stroke-miterlimit:10;" d="M 220.370661 252.930559 C 220.370661 229.958986 201.760446 211.330167 178.740418 211.330167 C 155.770367 211.330167 137.129213 229.958986 137.129213 252.930559 C 137.129213 275.880693 155.770367 294.480925 178.740418 294.480925 C 201.760446 294.480925 220.370661 275.880693 220.370661 252.930559 " transform="matrix(1.641404,0,-0.00000000296644,-1.639764,7.603116,516.500443)"/>
</g>
<g clip-path="url(#clip3)" clip-rule="nonzero">
<path style="fill:none;stroke-width:0.70276;stroke-linecap:square;stroke-linejoin:miter;stroke:rgb(0%,0%,100%);stroke-opacity:1;stroke-miterlimit:10;" d="M 193.450104 256.449071 C 193.450104 233.498938 174.82085 214.901088 151.800822 214.901088 C 128.818872 214.901088 110.189617 233.498938 110.189617 256.449071 C 110.189617 279.420645 128.818872 298.049464 151.800822 298.049464 C 174.82085 298.049464 193.450104 279.420645 193.450104 256.449071 " transform="matrix(1.641404,0,-0.00000000296644,-1.639764,7.603116,516.500443)"/>
</g>
<g clip-path="url(#clip4)" clip-rule="nonzero">
<path style="fill:none;stroke-width:0.70276;stroke-linecap:square;stroke-linejoin:miter;stroke:rgb(0%,0%,100%);stroke-opacity:1;stroke-miterlimit:10;" d="M 166.500989 252.930559 C 166.500989 229.958986 147.869354 211.330167 124.899303 211.330167 C 101.879275 211.330167 83.240502 229.958986 83.240502 252.930559 C 83.240502 275.880693 101.879276 294.480925 124.899303 294.480925 C 147.869355 294.480925 166.500989 275.880693 166.500989 252.930559 " transform="matrix(1.641404,0,-0.00000000296644,-1.639764,7.603116,516.500443)"/>
</g>
<path style="fill:none;stroke-width:0.70276;stroke-linecap:square;stroke-linejoin:miter;stroke:rgb(0%,0%,100%);stroke-opacity:1;stroke-miterlimit:10;" d="M 141.400996 242.529866 C 141.400996 219.579732 122.79078 200.9795 99.765993 200.9795 C 76.769763 200.9795 58.159548 219.579732 58.159548 242.529866 C 58.159548 265.499057 76.769763 284.120729 99.765993 284.120729 C 122.79078 284.120729 141.400996 265.499057 141.400996 242.529866 " transform="matrix(1.641404,0,-0.00000000296644,-1.639764,7.603116,516.500443)"/>
<path style="fill:none;stroke-width:0.70276;stroke-linecap:square;stroke-linejoin:miter;stroke:rgb(0%,0%,100%);stroke-opacity:1;stroke-miterlimit:10;" d="M 119.83028 226.009295 C 119.83028 203.040104 101.220064 184.458929 78.223835 184.458929 C 55.203807 184.458929 36.591212 203.040104 36.591212 226.009295 C 36.591212 248.9499 55.203808 267.609687 78.223835 267.609687 C 101.220065 267.609687 119.83028 248.9499 119.83028 226.009295 " transform="matrix(1.641404,0,-0.00000000296644,-1.639764,7.603116,516.500443)"/>
<path style="fill:none;stroke-width:0.70276;stroke-linecap:square;stroke-linejoin:miter;stroke:rgb(0%,0%,100%);stroke-opacity:1;stroke-miterlimit:10;" d="M 103.330967 204.490865 C 103.330967 181.550261 84.670775 162.900002 61.672166 162.900002 C 38.699735 162.900002 20.041923 181.550261 20.041923 204.490865 C 20.041923 227.460056 38.699735 246.038849 61.672166 246.038849 C 84.670776 246.038849 103.330967 227.460056 103.330967 204.490865 " transform="matrix(1.641404,0,-0.00000000296644,-1.639764,7.603116,516.500443)"/>
<g clip-path="url(#clip5)" clip-rule="nonzero">
<path style="fill:none;stroke-width:0.70276;stroke-linecap:square;stroke-linejoin:miter;stroke:rgb(0%,0%,100%);stroke-opacity:1;stroke-miterlimit:10;" d="M 92.885924 179.43963 C 92.885924 156.470439 74.273329 137.839238 51.277099 137.839238 C 28.257072 137.839238 9.644476 156.470439 9.644476 179.43963 C 9.644476 202.380234 28.257072 220.989996 51.2771 220.989996 C 74.273329 220.989996 92.885924 202.380234 92.885924 179.43963 " transform="matrix(1.641404,0,-0.00000000296644,-1.639764,7.603116,516.500443)"/>
</g>
<g clip-path="url(#clip6)" clip-rule="nonzero">
<path style="fill:none;stroke-width:0.70276;stroke-linecap:square;stroke-linejoin:miter;stroke:rgb(0%,0%,100%);stroke-opacity:1;stroke-miterlimit:10;" d="M 89.370926 152.489779 C 89.370926 129.539646 70.713114 110.939414 47.714504 110.939414 C 24.742073 110.939414 6.081881 129.539646 6.081881 152.489779 C 6.081881 175.45897 24.742073 194.090172 47.714504 194.090172 C 70.713114 194.090172 89.370926 175.45897 89.370926 152.489779 " transform="matrix(1.641404,0,-0.00000000296644,-1.639764,7.603116,516.500443)"/>
</g>
<g clip-path="url(#clip7)" clip-rule="nonzero">
<path style="fill:none;stroke-width:0.70276;stroke-linecap:square;stroke-linejoin:miter;stroke:rgb(0%,0%,100%);stroke-opacity:1;stroke-miterlimit:10;" d="M 92.885924 125.609013 C 92.885924 102.670791 74.273329 84.015767 51.277099 84.015767 C 28.257072 84.015767 9.644476 102.670791 9.644476 125.609013 C 9.644476 148.580586 28.257072 167.159379 51.277099 167.159379 C 74.273329 167.159379 92.885924 148.580586 92.885924 125.609013 " transform="matrix(1.641404,0,-0.00000000296644,-1.639764,7.603116,516.500443)"/>
</g>
<path style="fill:none;stroke-width:0.70276;stroke-linecap:square;stroke-linejoin:miter;stroke:rgb(0%,0%,100%);stroke-opacity:1;stroke-miterlimit:10;" d="M 103.330967 100.56016 C 103.330967 77.588587 84.670775 58.959768 61.672166 58.959768 C 38.699735 58.959768 20.041923 77.588587 20.041923 100.56016 C 20.041923 123.500764 38.699735 142.110526 61.672166 142.110526 C 84.670775 142.110526 103.330967 123.500764 103.330967 100.56016 " transform="matrix(1.641404,0,-0.00000000296644,-1.639764,7.603116,516.500443)"/>
<path style="fill:none;stroke-width:0.70276;stroke-linecap:square;stroke-linejoin:miter;stroke:rgb(0%,0%,100%);stroke-opacity:1;stroke-miterlimit:10;" d="M 119.83028 78.994086 C 119.83028 56.048717 101.220064 37.446102 78.223835 37.446102 C 55.203807 37.446102 36.591212 56.048717 36.591212 78.994086 C 36.591212 101.970423 55.203807 120.589713 78.223835 120.589713 C 101.220064 120.589713 119.83028 101.970423 119.83028 78.994086 " transform="matrix(1.641404,0,-0.00000000296644,-1.639764,7.603116,516.500443)"/>
<path style="fill:none;stroke-width:0.70276;stroke-linecap:square;stroke-linejoin:miter;stroke:rgb(0%,0%,100%);stroke-opacity:1;stroke-miterlimit:10;" d="M 141.400995 62.475898 C 141.400995 39.506707 122.79078 20.927914 99.765992 20.927914 C 76.769763 20.927914 58.159547 39.506707 58.159547 62.475898 C 58.159547 85.471293 76.769763 104.081054 99.765992 104.081054 C 122.79078 104.081054 141.400995 85.471293 141.400995 62.475898 " transform="matrix(1.641404,0,-0.00000000296644,-1.639764,7.603116,516.500443)"/>
<path style="fill:none;stroke-width:0.70276;stroke-linecap:square;stroke-linejoin:miter;stroke:rgb(0%,0%,100%);stroke-opacity:1;stroke-miterlimit:10;" d="M 166.500988 52.120466 C 166.500988 29.148893 147.869354 10.522456 124.899303 10.522456 C 101.879275 10.522456 83.240502 29.148893 83.240502 52.120466 C 83.240502 75.065835 101.879275 93.670832 124.899303 93.670832 C 147.869354 93.670832 166.500988 75.065835 166.500988 52.120466 " transform="matrix(1.641404,0,-0.00000000296644,-1.639764,7.603116,516.500443)"/>
<g clip-path="url(#clip8)" clip-rule="nonzero">
<path style="fill:none;stroke-width:0.70276;stroke-linecap:square;stroke-linejoin:miter;stroke:rgb(0%,0%,100%);stroke-opacity:1;stroke-miterlimit:10;" d="M 193.450104 48.55431 C 193.450104 25.585119 174.820849 7.003944 151.800822 7.003944 C 128.818871 7.003944 110.189617 25.585119 110.189617 48.55431 C 110.189617 71.549705 128.818871 90.15232 151.800822 90.15232 C 174.820849 90.15232 193.450104 71.549705 193.450104 48.55431 " transform="matrix(1.641404,0,-0.00000000296644,-1.639764,7.603116,516.500443)"/>
</g>
<path style="fill:none;stroke-width:0.70276;stroke-linecap:square;stroke-linejoin:miter;stroke:rgb(0%,0%,100%);stroke-opacity:1;stroke-miterlimit:10;" d="M 220.370661 52.120466 C 220.370661 29.148893 201.760445 10.522456 178.740418 10.522456 C 155.770366 10.522456 137.129213 29.148893 137.129213 52.120466 C 137.129213 75.065835 155.770366 93.670832 178.740418 93.670832 C 201.760445 93.670832 220.370661 75.065835 220.370661 52.120466 " transform="matrix(1.641404,0,-0.00000000296644,-1.639764,7.603116,516.500443)"/>
<path style="fill:none;stroke-width:0.70276;stroke-linecap:square;stroke-linejoin:miter;stroke:rgb(0%,0%,100%);stroke-opacity:1;stroke-miterlimit:10;" d="M 245.480173 62.475898 C 245.480173 39.506707 226.83902 20.927914 203.868969 20.927914 C 180.848941 20.927914 162.241105 39.506707 162.241105 62.475898 C 162.241105 85.471293 180.848941 104.081054 203.868969 104.081054 C 226.83902 104.081054 245.480173 85.471293 245.480173 62.475898 " transform="matrix(1.641404,0,-0.00000000296644,-1.639764,7.603116,516.500443)"/>
<path style="fill:none;stroke-width:0.70276;stroke-linecap:square;stroke-linejoin:miter;stroke:rgb(0%,0%,100%);stroke-opacity:1;stroke-miterlimit:10;" d="M 267.050889 78.994086 C 267.050889 56.048717 248.440673 37.446102 225.420645 37.446102 C 202.419656 37.446102 183.809441 56.048717 183.809441 78.994086 C 183.809441 101.970423 202.419657 120.589713 225.420646 120.589713 C 248.440673 120.589713 267.050889 101.970423 267.050889 78.994086 " transform="matrix(1.641404,0,-0.00000000296644,-1.639764,7.603116,516.500443)"/>
<path style="fill:none;stroke-width:0.70276;stroke-linecap:square;stroke-linejoin:miter;stroke:rgb(0%,0%,100%);stroke-opacity:1;stroke-miterlimit:10;" d="M 283.600178 100.56016 C 283.600178 77.588587 264.939986 58.959768 241.969934 58.959768 C 218.968945 58.959768 200.311133 77.588587 200.311133 100.56016 C 200.311133 123.500764 218.968946 142.110526 241.969935 142.110526 C 264.939986 142.110526 283.600178 123.500764 283.600178 100.56016 " transform="matrix(1.641404,0,-0.00000000296644,-1.639764,7.603116,516.500443)"/>
<path style="fill:none;stroke-width:0.70276;stroke-linecap:square;stroke-linejoin:miter;stroke:rgb(0%,0%,100%);stroke-opacity:1;stroke-miterlimit:10;" d="M 293.990485 125.609013 C 293.990485 102.670791 275.358851 84.015767 252.338823 84.015767 C 229.371152 84.015767 210.749037 102.670791 210.749037 125.609013 C 210.749037 148.580586 229.371152 167.159379 252.338823 167.159379 C 275.358851 167.159379 293.990485 148.580586 293.990485 125.609013 " transform="matrix(1.641404,0,-0.00000000296644,-1.639764,7.603116,516.500443)"/>
<g clip-path="url(#clip9)" clip-rule="nonzero">
<path style="fill:none;stroke-width:0.70276;stroke-linecap:square;stroke-linejoin:miter;stroke:rgb(0%,0%,100%);stroke-opacity:1;stroke-miterlimit:10;" d="M 297.560219 152.489779 C 297.560219 129.539646 278.900027 110.939414 255.899038 110.939414 C 232.879011 110.939414 214.271175 129.539646 214.271175 152.489779 C 214.271175 175.45897 232.879011 194.090172 255.899039 194.090172 C 278.900028 194.090172 297.56022 175.45897 297.560219 152.489779 " transform="matrix(1.641404,0,-0.00000000296644,-1.639764,7.603116,516.500443)"/>
</g>
<path style=" stroke:none;fill-rule:evenodd;fill:rgb(100%,100%,100%);fill-opacity:1;" d="M 427.636719 266.453125 C 427.636719 360.597656 351.148438 436.882812 256.769531 436.882812 C 162.453125 436.882812 85.921875 360.597656 85.921875 266.453125 C 85.921875 172.265625 162.453125 95.984375 256.769531 95.984375 C 351.148438 95.984375 427.636719 172.265625 427.636719 266.453125 Z M 427.636719 266.453125 "/>
<path style="fill:none;stroke-width:1.4055;stroke-linecap:square;stroke-linejoin:miter;stroke:rgb(0%,0%,0%);stroke-opacity:1;stroke-miterlimit:10;" d="M 255.899038 152.489779 C 255.899038 95.076331 209.299725 48.55431 151.800822 48.55431 C 94.339996 48.55431 47.714504 95.076331 47.714504 152.489779 C 47.714505 209.929432 94.339996 256.449071 151.800822 256.449071 C 209.299725 256.449071 255.899039 209.929432 255.899038 152.489779 " transform="matrix(1.641404,0,-0.00000000296644,-1.639764,7.603116,516.500443)"/>
<g clip-path="url(#clip10)" clip-rule="nonzero">
<path style="fill:none;stroke-width:1.4055;stroke-linecap:square;stroke-linejoin:miter;stroke:rgb(0%,0%,0%);stroke-opacity:1;stroke-miterlimit:10;" d="M 297.560219 152.489779 C 297.560219 72.130962 232.319752 7.003944 151.800822 7.003944 C 71.317588 7.003944 6.081881 72.130962 6.081881 152.489779 C 6.081881 232.870037 71.317589 298.049464 151.800822 298.049464 C 232.319753 298.049464 297.56022 232.870037 297.560219 152.489779 " transform="matrix(1.641404,0,-0.00000000296644,-1.639764,7.603116,516.500443)"/>
</g>
<path style="fill:none;stroke-width:15;stroke-linecap:round;stroke-linejoin:round;stroke:rgb(0%,0%,0%);stroke-opacity:1;stroke-dasharray:120,60;stroke-miterlimit:10;" d="M 6443.890438 3845.13508 L 7432.320831 3845.13508 " transform="matrix(0.0665947,0,0,-0.0665954,0,523.4197)"/>
<path style=" stroke:none;fill-rule:evenodd;fill:rgb(0%,0%,0%);fill-opacity:1;" d="M 248.429688 278.488281 C 248.105469 279.753906 247.582031 280.972656 246.863281 282.148438 C 246.140625 283.324219 245.230469 284.402344 244.136719 285.378906 C 243.148438 286.257812 242.070312 286.957031 240.894531 287.476562 C 239.726562 287.996094 238.550781 288.253906 237.375 288.253906 C 236.191406 288.253906 235.136719 287.992188 234.21875 287.46875 C 233.296875 286.945312 232.566406 286.242188 232.019531 285.351562 C 231.417969 284.367188 231.070312 283.277344 230.980469 282.082031 C 230.945312 281.796875 230.925781 281.507812 230.925781 281.21875 C 230.925781 280.324219 231.042969 279.394531 231.277344 278.4375 C 231.617188 277.15625 232.144531 275.914062 232.859375 274.703125 C 233.574219 273.496094 234.484375 272.40625 235.597656 271.429688 C 236.585938 270.550781 237.664062 269.839844 238.835938 269.304688 C 240.007812 268.769531 241.191406 268.5 242.382812 268.5 C 243.570312 268.5 244.617188 268.773438 245.527344 269.3125 C 246.441406 269.851562 247.167969 270.566406 247.714844 271.457031 C 248.316406 272.441406 248.671875 273.539062 248.78125 274.75 C 248.796875 275.046875 248.804688 275.339844 248.804688 275.625 C 248.804688 276.558594 248.679688 277.511719 248.429688 278.488281 Z M 245.710938 271.898438 C 245.414062 271.167969 244.96875 270.574219 244.375 270.117188 C 243.785156 269.660156 243.058594 269.429688 242.195312 269.429688 C 241.34375 269.429688 240.496094 269.664062 239.652344 270.128906 C 238.808594 270.59375 238.054688 271.199219 237.390625 271.9375 C 236.554688 272.839844 235.894531 273.8125 235.410156 274.863281 C 234.925781 275.914062 234.546875 276.976562 234.277344 278.058594 C 233.964844 279.234375 233.773438 280.382812 233.699219 281.496094 C 233.683594 281.703125 233.671875 281.914062 233.671875 282.121094 C 233.671875 282.996094 233.816406 283.847656 234.105469 284.683594 C 234.382812 285.425781 234.808594 286.046875 235.382812 286.546875 C 235.957031 287.050781 236.675781 287.300781 237.539062 287.300781 C 238.425781 287.300781 239.296875 287.042969 240.144531 286.535156 C 240.992188 286.027344 241.75 285.394531 242.425781 284.644531 C 243.296875 283.636719 243.972656 282.566406 244.457031 281.445312 C 244.941406 280.320312 245.339844 279.171875 245.640625 278.003906 C 245.921875 276.917969 246.097656 275.84375 246.167969 274.789062 L 246.167969 274.332031 C 246.167969 273.460938 246.015625 272.652344 245.710938 271.898438 Z M 245.710938 271.898438 "/>
<path style=" stroke:none;fill-rule:nonzero;fill:rgb(0%,0%,0%);fill-opacity:1;" d="M 256.816406 266.808594 L 371.871094 157.125 L 372.90625 158.210938 L 257.851562 267.894531 C 257.550781 268.179688 257.078125 268.167969 256.792969 267.871094 C 256.503906 267.570312 256.515625 267.097656 256.816406 266.808594 Z M 381.054688 149.40625 L 367.109375 156.492188 L 371.863281 157.132812 L 372.894531 158.21875 L 373.3125 163 Z M 381.054688 149.40625 "/>
<path style=" stroke:none;fill-rule:evenodd;fill:rgb(0%,0%,0%);fill-opacity:1;" d="M 321.46875 129.179688 C 321.417969 129.425781 321.28125 129.546875 321.066406 129.546875 C 321.046875 129.5625 321.003906 129.570312 320.929688 129.570312 C 320.886719 129.570312 320.851562 129.5625 320.824219 129.546875 L 320.703125 129.546875 C 320.46875 129.546875 320.351562 129.460938 320.351562 129.28125 L 320.351562 129.191406 C 320.460938 128.546875 320.511719 127.953125 320.511719 127.402344 L 320.511719 126.90625 C 320.460938 126.234375 320.308594 125.65625 320.0625 125.171875 C 319.816406 124.6875 319.453125 124.316406 318.980469 124.046875 C 318.503906 123.785156 317.902344 123.652344 317.175781 123.648438 C 316.753906 123.652344 316.324219 123.742188 315.890625 123.925781 C 315.453125 124.109375 315.046875 124.355469 314.671875 124.667969 C 314.257812 125.011719 313.921875 125.394531 313.660156 125.828125 C 313.402344 126.257812 313.210938 126.699219 313.09375 127.152344 C 313.003906 127.476562 312.957031 127.785156 312.945312 128.082031 C 312.945312 128.492188 313.035156 128.882812 313.214844 129.257812 C 313.476562 129.886719 313.945312 130.289062 314.617188 130.460938 L 317.714844 131.324219 C 318.277344 131.488281 318.761719 131.753906 319.160156 132.113281 C 319.5625 132.476562 319.859375 132.902344 320.0625 133.394531 C 320.265625 133.890625 320.382812 134.425781 320.421875 135.007812 L 320.421875 135.246094 C 320.421875 135.75 320.347656 136.269531 320.203125 136.800781 C 320.015625 137.535156 319.714844 138.238281 319.300781 138.917969 C 318.890625 139.597656 318.378906 140.210938 317.765625 140.75 C 317.183594 141.246094 316.546875 141.644531 315.847656 141.945312 C 315.152344 142.246094 314.453125 142.394531 313.753906 142.394531 C 312.722656 142.394531 311.84375 142.230469 311.117188 141.898438 C 310.386719 141.570312 309.851562 141.152344 309.5 140.644531 L 308.167969 142.226562 C 308.050781 142.339844 307.929688 142.394531 307.804688 142.394531 L 307.722656 142.394531 C 307.5 142.394531 307.378906 142.308594 307.359375 142.132812 C 307.359375 142.082031 307.375 142.035156 307.398438 141.988281 L 308.960938 135.871094 C 309.015625 135.628906 309.171875 135.503906 309.433594 135.492188 L 309.730469 135.492188 C 309.835938 135.492188 309.933594 135.535156 310.023438 135.625 C 310.0625 135.695312 310.078125 135.753906 310.078125 135.808594 C 310.078125 135.84375 310.070312 135.886719 310.050781 135.9375 C 309.890625 136.566406 309.808594 137.148438 309.808594 137.6875 C 309.808594 138.554688 310.019531 139.285156 310.441406 139.886719 C 311.117188 140.855469 312.292969 141.335938 313.96875 141.335938 C 314.390625 141.335938 314.820312 141.238281 315.257812 141.042969 C 315.691406 140.847656 316.097656 140.582031 316.476562 140.25 C 316.886719 139.871094 317.234375 139.445312 317.519531 138.976562 C 317.800781 138.511719 318.007812 138.03125 318.144531 137.53125 C 318.234375 137.132812 318.277344 136.757812 318.277344 136.40625 C 318.277344 135.972656 318.222656 135.554688 318.105469 135.152344 C 317.835938 134.484375 317.335938 134.050781 316.609375 133.859375 L 313.554688 132.996094 C 313.003906 132.847656 312.535156 132.609375 312.136719 132.273438 C 311.742188 131.9375 311.4375 131.539062 311.21875 131.074219 C 310.996094 130.613281 310.867188 130.105469 310.832031 129.546875 L 310.832031 129.257812 C 310.832031 128.824219 310.886719 128.367188 310.996094 127.882812 C 311.183594 127.1875 311.484375 126.523438 311.898438 125.886719 C 312.308594 125.25 312.820312 124.6875 313.429688 124.199219 C 314.007812 123.730469 314.636719 123.351562 315.324219 123.070312 C 316.011719 122.785156 316.691406 122.644531 317.363281 122.644531 C 318.289062 122.644531 319.050781 122.816406 319.652344 123.160156 C 320.253906 123.503906 320.6875 123.910156 320.957031 124.382812 L 322.25 122.824219 C 322.320312 122.703125 322.4375 122.644531 322.601562 122.644531 L 322.722656 122.644531 C 322.9375 122.644531 323.046875 122.75 323.046875 122.957031 L 323.046875 123.0625 Z M 321.46875 129.179688 "/>
<path style=" stroke:none;fill-rule:evenodd;fill:rgb(0%,0%,0%);fill-opacity:1;" d="M 330.355469 145.605469 C 329.320312 145.574219 328.3125 145.558594 327.332031 145.558594 C 326.355469 145.558594 325.347656 145.574219 324.3125 145.605469 L 324.3125 144.976562 L 324.894531 144.976562 C 325.082031 144.976562 325.253906 144.972656 325.417969 144.96875 C 325.582031 144.964844 325.734375 144.949219 325.882812 144.929688 C 326.027344 144.910156 326.15625 144.890625 326.261719 144.871094 C 326.351562 144.859375 326.425781 144.8125 326.484375 144.738281 C 326.546875 144.660156 326.574219 144.578125 326.574219 144.484375 L 326.574219 136.234375 C 326.292969 136.355469 325.949219 136.449219 325.535156 136.511719 C 325.125 136.578125 324.675781 136.609375 324.183594 136.609375 L 324.183594 135.984375 C 324.859375 135.984375 325.484375 135.914062 326.054688 135.769531 C 326.625 135.625 327.121094 135.355469 327.539062 134.960938 L 327.796875 134.960938 C 327.984375 134.960938 328.078125 135.042969 328.078125 135.203125 L 328.078125 144.484375 C 328.078125 144.582031 328.105469 144.667969 328.164062 144.742188 C 328.21875 144.8125 328.300781 144.859375 328.40625 144.871094 C 328.496094 144.890625 328.613281 144.910156 328.753906 144.929688 C 328.894531 144.949219 329.050781 144.964844 329.230469 144.96875 C 329.40625 144.972656 329.582031 144.976562 329.75 144.976562 L 330.355469 144.976562 Z M 330.355469 145.605469 "/>
<path style=" stroke:none;fill-rule:evenodd;fill:rgb(0%,0%,0%);fill-opacity:1;" d="M 382.710938 28.976562 C 382.65625 29.222656 382.523438 29.34375 382.304688 29.34375 C 382.289062 29.359375 382.242188 29.371094 382.171875 29.367188 C 382.125 29.371094 382.089844 29.359375 382.0625 29.34375 L 381.941406 29.34375 C 381.710938 29.34375 381.59375 29.257812 381.59375 29.082031 L 381.59375 28.992188 C 381.699219 28.347656 381.753906 27.75 381.753906 27.199219 L 381.753906 26.703125 C 381.699219 26.03125 381.550781 25.457031 381.304688 24.972656 C 381.058594 24.488281 380.695312 24.113281 380.21875 23.847656 C 379.742188 23.582031 379.140625 23.449219 378.414062 23.445312 C 377.992188 23.449219 377.566406 23.539062 377.128906 23.722656 C 376.695312 23.90625 376.289062 24.15625 375.910156 24.46875 C 375.5 24.808594 375.160156 25.191406 374.902344 25.625 C 374.640625 26.054688 374.453125 26.5 374.335938 26.953125 C 374.246094 27.273438 374.195312 27.582031 374.1875 27.878906 C 374.1875 28.289062 374.277344 28.679688 374.457031 29.054688 C 374.71875 29.683594 375.183594 30.085938 375.855469 30.257812 L 378.953125 31.121094 C 379.519531 31.289062 380.003906 31.550781 380.402344 31.914062 C 380.800781 32.273438 381.101562 32.703125 381.304688 33.195312 C 381.503906 33.6875 381.625 34.222656 381.660156 34.808594 L 381.660156 35.042969 C 381.660156 35.550781 381.589844 36.066406 381.445312 36.597656 C 381.257812 37.332031 380.957031 38.035156 380.542969 38.714844 C 380.128906 39.398438 379.617188 40.007812 379.007812 40.546875 C 378.421875 41.042969 377.785156 41.441406 377.089844 41.742188 C 376.394531 42.042969 375.695312 42.191406 374.996094 42.191406 C 373.964844 42.191406 373.082031 42.027344 372.355469 41.695312 C 371.628906 41.367188 371.089844 40.949219 370.738281 40.441406 L 369.40625 42.023438 C 369.292969 42.136719 369.171875 42.191406 369.042969 42.191406 L 368.964844 42.191406 C 368.738281 42.191406 368.617188 42.105469 368.601562 41.933594 C 368.601562 41.878906 368.613281 41.832031 368.640625 41.789062 L 370.203125 35.671875 C 370.253906 35.425781 370.414062 35.300781 370.671875 35.289062 L 370.96875 35.289062 C 371.078125 35.292969 371.175781 35.335938 371.265625 35.421875 C 371.300781 35.492188 371.320312 35.554688 371.320312 35.605469 C 371.320312 35.640625 371.308594 35.683594 371.292969 35.734375 C 371.128906 36.363281 371.050781 36.949219 371.050781 37.488281 C 371.050781 38.351562 371.261719 39.082031 371.683594 39.683594 C 372.355469 40.652344 373.53125 41.136719 375.210938 41.132812 C 375.632812 41.136719 376.0625 41.035156 376.496094 40.839844 C 376.933594 40.644531 377.339844 40.382812 377.714844 40.050781 C 378.128906 39.667969 378.476562 39.242188 378.757812 38.773438 C 379.039062 38.308594 379.25 37.828125 379.382812 37.328125 C 379.472656 36.929688 379.519531 36.554688 379.519531 36.207031 C 379.519531 35.769531 379.460938 35.351562 379.34375 34.949219 C 379.074219 34.28125 378.578125 33.847656 377.851562 33.65625 L 374.792969 32.792969 C 374.246094 32.648438 373.773438 32.40625 373.378906 32.070312 C 372.984375 31.734375 372.675781 31.335938 372.457031 30.875 C 372.238281 30.410156 372.109375 29.902344 372.074219 29.34375 L 372.074219 29.054688 C 372.074219 28.621094 372.128906 28.164062 372.234375 27.683594 C 372.425781 26.988281 372.726562 26.320312 373.136719 25.683594 C 373.550781 25.046875 374.0625 24.484375 374.671875 23.996094 C 375.246094 23.527344 375.878906 23.148438 376.5625 22.867188 C 377.25 22.582031 377.929688 22.441406 378.605469 22.441406 C 379.527344 22.441406 380.292969 22.613281 380.890625 22.957031 C 381.492188 23.304688 381.929688 23.710938 382.199219 24.179688 L 383.492188 22.625 C 383.5625 22.503906 383.679688 22.441406 383.839844 22.441406 L 383.960938 22.441406 C 384.175781 22.441406 384.285156 22.546875 384.285156 22.753906 L 384.285156 22.859375 Z M 382.710938 28.976562 "/>
<path style=" stroke:none;fill-rule:evenodd;fill:rgb(0%,0%,0%);fill-opacity:1;" d="M 392.230469 45.402344 L 385.359375 45.402344 L 385.359375 45 C 385.359375 44.972656 385.375 44.925781 385.410156 44.867188 L 388.167969 42.1875 C 388.496094 41.867188 388.828125 41.539062 389.164062 41.199219 C 389.496094 40.863281 389.796875 40.519531 390.0625 40.167969 C 390.324219 39.816406 390.539062 39.453125 390.695312 39.082031 C 390.851562 38.707031 390.929688 38.316406 390.929688 37.90625 C 390.929688 37.558594 390.882812 37.238281 390.777344 36.9375 C 390.675781 36.636719 390.53125 36.375 390.339844 36.144531 C 390.148438 35.917969 389.910156 35.734375 389.621094 35.597656 C 389.335938 35.457031 389.003906 35.386719 388.625 35.386719 C 388.0625 35.386719 387.566406 35.539062 387.136719 35.839844 C 386.707031 36.140625 386.417969 36.46875 386.277344 36.832031 C 386.25 36.839844 386.296875 36.84375 386.414062 36.84375 L 386.558594 36.84375 C 386.726562 36.878906 386.871094 36.929688 386.996094 37.003906 C 387.121094 37.074219 387.226562 37.171875 387.308594 37.296875 C 387.394531 37.417969 387.433594 37.570312 387.433594 37.746094 C 387.433594 38.039062 387.328125 38.261719 387.113281 38.417969 C 386.898438 38.574219 386.660156 38.652344 386.398438 38.652344 C 386.144531 38.652344 385.90625 38.574219 385.6875 38.417969 C 385.46875 38.261719 385.359375 38.039062 385.359375 37.746094 C 385.359375 37.335938 385.449219 36.949219 385.628906 36.582031 C 385.808594 36.214844 386.054688 35.898438 386.363281 35.628906 C 386.671875 35.359375 387.039062 35.148438 387.460938 34.992188 C 387.882812 34.835938 388.332031 34.757812 388.804688 34.757812 C 389.386719 34.757812 389.925781 34.835938 390.414062 34.988281 C 390.898438 35.144531 391.3125 35.363281 391.65625 35.652344 C 392 35.941406 392.269531 36.273438 392.464844 36.652344 C 392.65625 37.027344 392.753906 37.445312 392.753906 37.90625 C 392.753906 38.414062 392.625 38.882812 392.367188 39.308594 C 392.109375 39.734375 391.785156 40.125 391.402344 40.484375 C 391.019531 40.839844 390.613281 41.175781 390.183594 41.488281 C 389.753906 41.804688 389.363281 42.109375 389.015625 42.40625 L 387.070312 44.039062 L 389.613281 44.039062 C 389.96875 44.042969 390.300781 44.039062 390.605469 44.035156 C 390.914062 44.027344 391.171875 44.019531 391.386719 44.003906 C 391.601562 43.988281 391.710938 43.980469 391.714844 43.976562 C 391.761719 43.941406 391.804688 43.871094 391.84375 43.769531 C 391.882812 43.667969 391.917969 43.546875 391.953125 43.40625 C 391.988281 43.269531 392.019531 43.128906 392.054688 42.984375 C 392.085938 42.839844 392.117188 42.683594 392.144531 42.511719 L 392.769531 42.511719 Z M 392.230469 45.402344 "/>
<path style="fill:none;stroke-width:22.5;stroke-linecap:round;stroke-linejoin:round;stroke:rgb(0%,0%,0%);stroke-opacity:1;stroke-miterlimit:10;" d="M 7912.25303 4730.672155 L 6938.076306 3845.13508 " transform="matrix(0.0665947,0,0,-0.0665954,0,523.4197)"/>
<path style=" stroke:none;fill-rule:evenodd;fill:rgb(0%,0%,0%);fill-opacity:1;" d="M 515.042969 194.742188 C 514.945312 195.144531 514.828125 195.589844 514.695312 196.074219 C 514.5625 196.566406 514.382812 197.019531 514.15625 197.4375 C 513.933594 197.855469 513.648438 198.214844 513.308594 198.519531 C 512.964844 198.824219 512.539062 198.976562 512.027344 198.976562 C 511.398438 198.976562 510.894531 198.816406 510.507812 198.496094 C 510.121094 198.171875 509.882812 197.839844 509.792969 197.5 C 509.488281 197.875 509.082031 198.214844 508.570312 198.519531 C 508.058594 198.824219 507.464844 198.976562 506.792969 198.976562 C 506.183594 198.976562 505.636719 198.863281 505.15625 198.636719 C 504.675781 198.410156 504.296875 198.0625 504.015625 197.589844 C 503.75 197.085938 503.617188 196.53125 503.628906 195.917969 L 503.628906 195.8125 C 503.644531 195.179688 503.726562 194.546875 503.871094 193.917969 C 504.011719 193.316406 504.222656 192.65625 504.496094 191.933594 C 504.769531 191.210938 505.03125 190.507812 505.28125 189.828125 C 505.550781 189.105469 505.6875 188.511719 505.6875 188.050781 C 505.6875 187.660156 505.523438 187.460938 505.1875 187.460938 C 504.882812 187.460938 504.609375 187.550781 504.363281 187.722656 C 504.113281 187.898438 503.890625 188.140625 503.6875 188.449219 C 503.488281 188.757812 503.304688 189.125 503.140625 189.546875 C 502.980469 189.96875 502.847656 190.421875 502.738281 190.898438 C 502.640625 191.132812 502.472656 191.257812 502.242188 191.265625 L 501.929688 191.265625 C 501.714844 191.265625 501.609375 191.15625 501.609375 190.9375 L 501.609375 190.847656 C 501.734375 190.367188 501.898438 189.878906 502.105469 189.375 C 502.3125 188.875 502.574219 188.421875 502.886719 188.011719 C 503.203125 187.601562 503.5625 187.261719 503.964844 186.992188 C 504.367188 186.722656 504.832031 186.585938 505.351562 186.585938 C 505.800781 186.585938 506.183594 186.683594 506.503906 186.875 C 506.820312 187.066406 507.0625 187.320312 507.230469 187.636719 C 507.394531 187.957031 507.488281 188.316406 507.503906 188.714844 L 507.503906 188.808594 C 507.503906 189.183594 507.429688 189.570312 507.277344 189.96875 C 507.015625 190.652344 506.757812 191.347656 506.503906 192.054688 C 506.246094 192.765625 506.046875 193.40625 505.902344 193.972656 C 505.757812 194.539062 505.660156 195.101562 505.605469 195.65625 C 505.570312 195.804688 505.546875 195.96875 505.539062 196.140625 C 505.539062 196.480469 505.597656 196.816406 505.714844 197.148438 C 505.796875 197.445312 505.941406 197.679688 506.160156 197.855469 C 506.375 198.027344 506.628906 198.113281 506.925781 198.113281 C 507.519531 198.113281 508.035156 197.9375 508.476562 197.578125 C 508.914062 197.222656 509.300781 196.746094 509.632812 196.152344 C 509.648438 196.085938 509.664062 196.003906 509.671875 195.914062 C 509.679688 195.820312 509.695312 195.726562 509.710938 195.632812 L 511.730469 187.839844 C 511.816406 187.519531 511.976562 187.28125 512.222656 187.128906 C 512.472656 186.976562 512.71875 186.898438 512.96875 186.898438 C 513.230469 186.898438 513.449219 186.976562 513.617188 187.136719 C 513.734375 187.246094 513.792969 187.398438 513.792969 187.589844 C 513.792969 187.6875 513.78125 187.789062 513.765625 187.894531 L 511.746094 195.683594 C 511.601562 196.222656 511.53125 196.703125 511.53125 197.121094 C 511.53125 197.234375 511.539062 197.355469 511.558594 197.488281 C 511.601562 197.90625 511.8125 198.113281 512.191406 198.113281 C 512.570312 198.113281 512.894531 197.792969 513.167969 197.148438 C 513.441406 196.503906 513.707031 195.675781 513.96875 194.664062 C 514.019531 194.4375 514.175781 194.324219 514.425781 194.324219 L 514.734375 194.324219 C 514.832031 194.324219 514.933594 194.355469 515.03125 194.414062 C 515.066406 194.496094 515.085938 194.558594 515.085938 194.609375 C 515.085938 194.648438 515.074219 194.691406 515.042969 194.742188 Z M 515.042969 194.742188 "/>
<path style=" stroke:none;fill-rule:evenodd;fill:rgb(0%,0%,0%);fill-opacity:1;" d="M 541.507812 198.167969 C 541.535156 198.230469 541.546875 198.285156 541.546875 198.335938 C 541.546875 198.40625 541.53125 198.460938 541.496094 198.492188 C 541.441406 198.597656 541.339844 198.652344 541.183594 198.652344 L 521.261719 198.652344 C 521.117188 198.652344 521.011719 198.597656 520.949219 198.492188 C 520.914062 198.460938 520.898438 198.40625 520.898438 198.335938 C 520.898438 198.285156 520.910156 198.230469 520.9375 198.167969 L 530.480469 179.566406 C 530.597656 179.3125 530.804688 179.191406 531.101562 179.199219 L 531.34375 179.199219 C 531.621094 179.199219 531.828125 179.316406 531.964844 179.550781 Z M 530.414062 182.128906 L 523.035156 196.496094 L 537.78125 196.496094 Z M 530.414062 182.128906 "/>
<path style=" stroke:none;fill-rule:evenodd;fill:rgb(0%,0%,0%);fill-opacity:1;" d="M 551.140625 187.578125 C 551.039062 187.839844 550.867188 187.972656 550.613281 187.972656 L 548.109375 187.972656 L 546.117188 195.695312 C 545.957031 196.253906 545.878906 196.742188 545.878906 197.160156 C 545.878906 197.273438 545.886719 197.382812 545.902344 197.488281 C 545.949219 197.90625 546.160156 198.113281 546.535156 198.113281 C 546.878906 198.113281 547.199219 198.023438 547.507812 197.835938 C 547.8125 197.648438 548.097656 197.394531 548.367188 197.082031 C 548.636719 196.769531 548.878906 196.398438 549.09375 195.972656 C 549.308594 195.542969 549.507812 195.097656 549.6875 194.625 C 549.714844 194.519531 549.773438 194.445312 549.859375 194.394531 C 549.953125 194.347656 550.035156 194.324219 550.117188 194.324219 L 550.453125 194.324219 C 550.570312 194.324219 550.664062 194.371094 550.734375 194.46875 C 550.761719 194.53125 550.777344 194.585938 550.777344 194.636719 L 550.777344 194.714844 C 550.589844 195.230469 550.351562 195.738281 550.070312 196.238281 C 549.785156 196.742188 549.460938 197.191406 549.09375 197.59375 C 548.726562 197.992188 548.320312 198.324219 547.875 198.585938 C 547.429688 198.847656 546.941406 198.976562 546.402344 198.976562 C 545.933594 198.976562 545.53125 198.886719 545.191406 198.710938 C 544.847656 198.53125 544.574219 198.285156 544.367188 197.964844 C 544.164062 197.648438 544.039062 197.28125 544.003906 196.871094 C 543.988281 196.769531 543.976562 196.65625 543.976562 196.53125 C 543.976562 196.238281 544.015625 195.9375 544.085938 195.632812 L 546.066406 187.972656 L 543.535156 187.972656 C 543.3125 187.972656 543.1875 187.855469 543.171875 187.617188 L 543.171875 187.511719 L 543.253906 187.289062 C 543.339844 187.03125 543.507812 186.898438 543.75 186.898438 L 546.320312 186.898438 L 547.421875 182.613281 C 547.507812 182.289062 547.667969 182.050781 547.917969 181.894531 C 548.164062 181.738281 548.410156 181.65625 548.660156 181.65625 C 548.921875 181.65625 549.140625 181.742188 549.308594 181.90625 C 549.425781 182.019531 549.484375 182.175781 549.484375 182.375 C 549.484375 182.472656 549.472656 182.570312 549.457031 182.664062 L 548.367188 186.898438 L 550.84375 186.898438 C 551.078125 186.898438 551.195312 187.019531 551.195312 187.253906 L 551.195312 187.34375 Z M 551.140625 187.578125 "/>
<path style=" stroke:none;fill-rule:nonzero;fill:rgb(0%,0%,0%);fill-opacity:1;" d="M 257.75 266.730469 L 446.382812 393.042969 L 445.546875 394.289062 L 256.917969 267.976562 C 256.574219 267.746094 256.480469 267.28125 256.710938 266.9375 C 256.941406 266.59375 257.40625 266.5 257.75 266.730469 Z M 455.914062 400.328125 L 445.964844 388.257812 L 446.371094 393.039062 L 445.539062 394.28125 L 440.960938 395.726562 Z M 455.914062 400.328125 "/>
<path style=" stroke:none;fill-rule:evenodd;fill:rgb(0%,0%,0%);fill-opacity:1;" d="M 237 213.125 C 236.902344 213.515625 236.757812 213.902344 236.558594 214.28125 C 236.359375 214.660156 236.117188 215.003906 235.832031 215.308594 C 235.542969 215.613281 235.222656 215.863281 234.867188 216.058594 C 234.511719 216.253906 234.128906 216.351562 233.714844 216.351562 C 232.414062 216.351562 231.4375 216.007812 230.78125 215.320312 C 230.332031 214.851562 230.109375 214.257812 230.109375 213.542969 C 230.109375 213.175781 230.167969 212.78125 230.28125 212.351562 L 230.890625 210.011719 C 230.960938 209.714844 230.996094 209.4375 230.996094 209.175781 C 230.996094 209.046875 230.988281 208.910156 230.96875 208.769531 C 230.914062 208.40625 230.789062 208.082031 230.59375 207.804688 C 230.394531 207.527344 230.140625 207.304688 229.832031 207.144531 C 229.523438 206.984375 229.15625 206.902344 228.734375 206.902344 L 225.691406 206.902344 L 223.902344 213.871094 C 223.863281 214.035156 223.847656 214.171875 223.847656 214.273438 C 223.847656 214.40625 223.875 214.492188 223.929688 214.535156 C 224.042969 214.605469 224.289062 214.648438 224.65625 214.660156 C 225.023438 214.675781 225.417969 214.679688 225.839844 214.679688 C 226.089844 214.679688 226.21875 214.785156 226.21875 214.992188 C 226.21875 215.046875 226.207031 215.101562 226.191406 215.164062 L 226.136719 215.371094 C 226.039062 215.632812 225.863281 215.765625 225.609375 215.765625 C 224.507812 215.710938 223.394531 215.6875 222.273438 215.6875 C 221.148438 215.6875 220.023438 215.710938 218.894531 215.765625 C 218.652344 215.765625 218.519531 215.652344 218.503906 215.425781 L 218.503906 215.320312 L 218.554688 215.097656 C 218.628906 214.8125 218.804688 214.671875 219.082031 214.679688 C 219.503906 214.679688 219.902344 214.675781 220.277344 214.660156 C 220.65625 214.648438 220.933594 214.601562 221.113281 214.523438 C 221.285156 214.425781 221.414062 214.191406 221.503906 213.816406 L 225.289062 199.082031 C 225.34375 198.894531 225.367188 198.746094 225.367188 198.640625 C 225.367188 198.535156 225.347656 198.476562 225.300781 198.457031 C 225.175781 198.378906 224.929688 198.332031 224.566406 198.3125 C 224.203125 198.296875 223.808594 198.289062 223.375 198.289062 C 223.125 198.289062 223 198.171875 223 197.933594 L 223 197.828125 L 223.078125 197.605469 C 223.132812 197.347656 223.300781 197.214844 223.578125 197.214844 L 231.15625 197.214844 C 232.011719 197.214844 232.824219 197.328125 233.59375 197.554688 C 234.367188 197.78125 235.039062 198.15625 235.613281 198.679688 C 236.089844 199.097656 236.4375 199.613281 236.652344 200.222656 C 236.785156 200.554688 236.859375 200.898438 236.867188 201.253906 C 236.867188 201.578125 236.816406 201.894531 236.71875 202.207031 C 236.550781 202.90625 236.195312 203.539062 235.65625 204.105469 C 235.117188 204.671875 234.511719 205.15625 233.839844 205.554688 C 233.371094 205.824219 232.898438 206.050781 232.417969 206.230469 C 231.9375 206.40625 231.59375 206.519531 231.386719 206.5625 C 231.898438 206.761719 232.382812 207.15625 232.839844 207.738281 C 233.226562 208.246094 233.421875 208.847656 233.421875 209.554688 C 233.421875 209.703125 233.410156 209.851562 233.394531 210 L 233.136719 212.351562 C 233.066406 212.964844 233.03125 213.496094 233.03125 213.949219 C 233.03125 214.246094 233.046875 214.507812 233.085938 214.730469 C 233.148438 215.246094 233.414062 215.503906 233.890625 215.503906 C 234.324219 215.503906 234.71875 215.269531 235.078125 214.804688 C 235.4375 214.339844 235.703125 213.761719 235.871094 213.070312 C 235.96875 212.8125 236.144531 212.683594 236.398438 212.691406 L 236.609375 212.691406 C 236.855469 212.695312 236.984375 212.804688 237 213.03125 Z M 233.839844 202.128906 C 233.980469 201.609375 234.0625 201.085938 234.082031 200.5625 L 234.082031 200.484375 C 234.082031 200.039062 233.941406 199.65625 233.664062 199.332031 C 233.332031 198.949219 232.898438 198.679688 232.363281 198.523438 C 231.828125 198.367188 231.242188 198.289062 230.605469 198.289062 L 228.816406 198.289062 C 228.359375 198.289062 228.085938 198.324219 227.996094 198.390625 C 227.902344 198.464844 227.8125 198.710938 227.710938 199.136719 L 225.933594 206.050781 L 228.53125 206.050781 C 229.167969 206.050781 229.800781 205.972656 230.417969 205.816406 C 231.039062 205.660156 231.625 205.382812 232.179688 204.980469 C 232.65625 204.640625 233.015625 204.214844 233.257812 203.699219 C 233.503906 203.1875 233.695312 202.664062 233.839844 202.128906 Z M 233.839844 202.128906 "/>
<path style=" stroke:none;fill-rule:evenodd;fill:rgb(0%,0%,0%);fill-opacity:1;" d="M 244.304688 219.5625 C 243.269531 219.53125 242.265625 219.519531 241.285156 219.519531 C 240.304688 219.519531 239.296875 219.53125 238.261719 219.5625 L 238.261719 218.933594 L 238.84375 218.933594 C 239.03125 218.933594 239.203125 218.929688 239.367188 218.925781 C 239.53125 218.921875 239.683594 218.910156 239.832031 218.886719 C 239.976562 218.871094 240.105469 218.851562 240.210938 218.828125 C 240.300781 218.816406 240.375 218.769531 240.433594 218.695312 C 240.492188 218.621094 240.523438 218.535156 240.523438 218.441406 L 240.523438 210.191406 C 240.242188 210.316406 239.894531 210.40625 239.484375 210.46875 C 239.074219 210.535156 238.625 210.566406 238.136719 210.566406 L 238.136719 209.941406 C 238.808594 209.941406 239.433594 209.871094 240.003906 209.726562 C 240.578125 209.582031 241.070312 209.3125 241.484375 208.917969 L 241.75 208.917969 C 241.933594 208.917969 242.027344 209 242.027344 209.160156 L 242.027344 218.441406 C 242.027344 218.539062 242.054688 218.625 242.109375 218.699219 C 242.167969 218.773438 242.25 218.816406 242.355469 218.828125 C 242.445312 218.851562 242.5625 218.871094 242.703125 218.886719 C 242.84375 218.910156 243 218.921875 243.179688 218.925781 C 243.355469 218.929688 243.527344 218.933594 243.699219 218.933594 L 244.304688 218.933594 Z M 244.304688 219.5625 "/>
<path style="fill:none;stroke-width:0.804;stroke-linecap:round;stroke-linejoin:round;stroke:rgb(0%,0%,0%);stroke-opacity:1;stroke-miterlimit:10;" d="M 29.309386 18.10164 L 43.37778 18.101644 " transform="matrix(1.331942,0.000000412316,-0.000000455165,-1.331936,213.504584,229.024276)"/>
<path style="fill:none;stroke-width:0.804;stroke-linecap:round;stroke-linejoin:round;stroke:rgb(0%,0%,0%);stroke-opacity:1;stroke-miterlimit:10;" d="M 29.309384 13.881397 L 43.377779 13.881401 " transform="matrix(1.331942,0.000000412316,-0.000000455165,-1.331936,213.504584,229.024276)"/>
<path style=" stroke:none;fill-rule:evenodd;fill:rgb(0%,0%,0%);fill-opacity:1;" d="M 292.480469 211.832031 C 292.382812 212.230469 292.269531 212.675781 292.132812 213.164062 C 291.996094 213.652344 291.816406 214.105469 291.59375 214.523438 C 291.371094 214.941406 291.085938 215.304688 290.746094 215.609375 C 290.402344 215.914062 289.976562 216.066406 289.464844 216.066406 C 288.839844 216.066406 288.332031 215.902344 287.945312 215.582031 C 287.558594 215.261719 287.320312 214.929688 287.230469 214.585938 C 286.925781 214.964844 286.519531 215.304688 286.007812 215.609375 C 285.496094 215.914062 284.902344 216.066406 284.230469 216.066406 C 283.621094 216.066406 283.074219 215.953125 282.59375 215.726562 C 282.113281 215.5 281.734375 215.152344 281.457031 214.679688 C 281.1875 214.175781 281.058594 213.617188 281.066406 213.007812 L 281.066406 212.902344 C 281.085938 212.265625 281.164062 211.632812 281.308594 211.007812 C 281.453125 210.40625 281.660156 209.746094 281.933594 209.019531 C 282.207031 208.296875 282.472656 207.59375 282.722656 206.914062 C 282.992188 206.191406 283.125 205.597656 283.125 205.136719 C 283.125 204.746094 282.960938 204.550781 282.628906 204.546875 C 282.324219 204.550781 282.046875 204.636719 281.800781 204.8125 C 281.554688 204.984375 281.328125 205.226562 281.128906 205.535156 C 280.925781 205.847656 280.742188 206.210938 280.582031 206.632812 C 280.421875 207.058594 280.285156 207.507812 280.175781 207.988281 C 280.078125 208.222656 279.914062 208.34375 279.679688 208.351562 L 279.371094 208.351562 C 279.15625 208.355469 279.046875 208.246094 279.046875 208.027344 L 279.046875 207.933594 C 279.171875 207.453125 279.339844 206.964844 279.542969 206.464844 C 279.75 205.964844 280.011719 205.507812 280.328125 205.097656 C 280.640625 204.6875 281 204.347656 281.402344 204.078125 C 281.804688 203.808594 282.269531 203.671875 282.789062 203.671875 C 283.238281 203.671875 283.621094 203.769531 283.941406 203.960938 C 284.261719 204.152344 284.5 204.40625 284.667969 204.726562 C 284.835938 205.042969 284.925781 205.402344 284.941406 205.804688 L 284.941406 205.894531 C 284.941406 206.269531 284.867188 206.660156 284.714844 207.058594 C 284.453125 207.738281 284.195312 208.433594 283.941406 209.144531 C 283.683594 209.855469 283.484375 210.492188 283.34375 211.058594 C 283.199219 211.625 283.101562 212.1875 283.046875 212.746094 C 283.007812 212.894531 282.988281 213.054688 282.976562 213.230469 C 282.976562 213.570312 283.035156 213.90625 283.152344 214.234375 C 283.234375 214.53125 283.382812 214.765625 283.597656 214.941406 C 283.8125 215.117188 284.070312 215.203125 284.363281 215.203125 C 284.957031 215.203125 285.472656 215.027344 285.914062 214.667969 C 286.351562 214.308594 286.738281 213.835938 287.070312 213.242188 C 287.085938 213.171875 287.101562 213.089844 287.109375 213 C 287.121094 212.910156 287.132812 212.816406 287.148438 212.71875 L 289.171875 204.929688 C 289.25 204.605469 289.414062 204.367188 289.660156 204.214844 C 289.910156 204.0625 290.15625 203.988281 290.410156 203.988281 C 290.667969 203.988281 290.886719 204.066406 291.054688 204.222656 C 291.171875 204.335938 291.230469 204.488281 291.230469 204.679688 C 291.230469 204.773438 291.222656 204.875 291.203125 204.980469 L 289.183594 212.769531 C 289.039062 213.3125 288.96875 213.789062 288.96875 214.210938 C 288.96875 214.324219 288.976562 214.445312 288.996094 214.574219 C 289.039062 214.992188 289.25 215.203125 289.628906 215.203125 C 290.007812 215.203125 290.332031 214.882812 290.605469 214.234375 C 290.878906 213.589844 291.144531 212.761719 291.40625 211.75 C 291.460938 211.523438 291.613281 211.414062 291.863281 211.414062 L 292.171875 211.414062 C 292.273438 211.414062 292.371094 211.441406 292.46875 211.503906 C 292.503906 211.582031 292.523438 211.648438 292.523438 211.699219 C 292.523438 211.734375 292.507812 211.777344 292.480469 211.832031 Z M 292.480469 211.832031 "/>
<path style=" stroke:none;fill-rule:evenodd;fill:rgb(0%,0%,0%);fill-opacity:1;" d="M 301.8125 204.664062 C 301.714844 204.929688 301.539062 205.058594 301.289062 205.058594 L 298.785156 205.058594 L 296.792969 212.785156 C 296.632812 213.34375 296.550781 213.832031 296.550781 214.246094 C 296.550781 214.363281 296.558594 214.472656 296.578125 214.574219 C 296.621094 214.992188 296.832031 215.203125 297.210938 215.203125 C 297.550781 215.203125 297.875 215.109375 298.179688 214.921875 C 298.484375 214.734375 298.773438 214.484375 299.039062 214.171875 C 299.3125 213.855469 299.550781 213.488281 299.769531 213.058594 C 299.984375 212.632812 300.179688 212.183594 300.359375 211.710938 C 300.386719 211.609375 300.445312 211.53125 300.535156 211.484375 C 300.625 211.4375 300.710938 211.414062 300.789062 211.414062 L 301.128906 211.414062 C 301.242188 211.414062 301.339844 211.460938 301.410156 211.554688 C 301.4375 211.617188 301.449219 211.671875 301.449219 211.726562 L 301.449219 211.804688 C 301.261719 212.316406 301.027344 212.828125 300.742188 213.328125 C 300.460938 213.828125 300.136719 214.28125 299.769531 214.679688 C 299.398438 215.082031 298.992188 215.410156 298.550781 215.671875 C 298.105469 215.933594 297.613281 216.066406 297.074219 216.066406 C 296.609375 216.066406 296.203125 215.976562 295.863281 215.796875 C 295.523438 215.621094 295.25 215.371094 295.042969 215.050781 C 294.835938 214.734375 294.714844 214.371094 294.679688 213.960938 C 294.660156 213.855469 294.652344 213.742188 294.652344 213.621094 C 294.652344 213.324219 294.6875 213.023438 294.757812 212.71875 L 296.738281 205.058594 L 294.207031 205.058594 C 293.984375 205.058594 293.863281 204.941406 293.84375 204.707031 L 293.84375 204.601562 L 293.925781 204.378906 C 294.015625 204.117188 294.179688 203.988281 294.421875 203.988281 L 296.996094 203.988281 L 298.097656 199.699219 C 298.179688 199.375 298.34375 199.136719 298.589844 198.980469 C 298.835938 198.824219 299.085938 198.746094 299.335938 198.742188 C 299.597656 198.746094 299.8125 198.828125 299.980469 198.992188 C 300.097656 199.109375 300.15625 199.261719 300.15625 199.464844 C 300.15625 199.558594 300.148438 199.65625 300.128906 199.75 L 299.039062 203.988281 L 301.519531 203.988281 C 301.75 203.988281 301.867188 204.105469 301.867188 204.339844 L 301.867188 204.429688 Z M 301.8125 204.664062 "/>
<path style=" stroke:none;fill-rule:evenodd;fill:rgb(0%,0%,0%);fill-opacity:1;" d="M 192.582031 351.730469 C 192.484375 352.121094 192.335938 352.507812 192.136719 352.886719 C 191.941406 353.265625 191.699219 353.609375 191.410156 353.914062 C 191.125 354.21875 190.800781 354.46875 190.445312 354.664062 C 190.09375 354.859375 189.707031 354.957031 189.296875 354.957031 C 187.996094 354.957031 187.015625 354.613281 186.359375 353.925781 C 185.910156 353.457031 185.6875 352.863281 185.6875 352.148438 C 185.6875 351.78125 185.746094 351.386719 185.863281 350.957031 L 186.46875 348.617188 C 186.539062 348.320312 186.578125 348.042969 186.578125 347.78125 C 186.578125 347.652344 186.566406 347.515625 186.550781 347.375 C 186.496094 347.011719 186.371094 346.6875 186.171875 346.410156 C 185.972656 346.132812 185.722656 345.910156 185.414062 345.75 C 185.101562 345.589844 184.738281 345.507812 184.3125 345.507812 L 181.273438 345.507812 L 179.480469 352.476562 C 179.445312 352.640625 179.425781 352.777344 179.425781 352.878906 C 179.425781 353.011719 179.453125 353.097656 179.507812 353.140625 C 179.625 353.210938 179.867188 353.253906 180.234375 353.265625 C 180.601562 353.28125 180.996094 353.285156 181.417969 353.285156 C 181.671875 353.285156 181.796875 353.390625 181.796875 353.597656 C 181.796875 353.652344 181.789062 353.707031 181.769531 353.769531 L 181.714844 353.976562 C 181.617188 354.238281 181.441406 354.371094 181.191406 354.371094 C 180.085938 354.316406 178.972656 354.292969 177.851562 354.292969 C 176.730469 354.292969 175.601562 354.316406 174.472656 354.371094 C 174.230469 354.371094 174.101562 354.257812 174.082031 354.03125 L 174.082031 353.925781 L 174.136719 353.703125 C 174.207031 353.417969 174.382812 353.277344 174.660156 353.285156 C 175.082031 353.285156 175.480469 353.28125 175.859375 353.265625 C 176.238281 353.253906 176.515625 353.207031 176.695312 353.128906 C 176.863281 353.035156 176.996094 352.796875 177.085938 352.421875 L 180.867188 337.6875 C 180.921875 337.5 180.949219 337.351562 180.949219 337.246094 C 180.949219 337.140625 180.925781 337.082031 180.882812 337.0625 C 180.753906 336.984375 180.511719 336.9375 180.148438 336.917969 C 179.785156 336.902344 179.386719 336.894531 178.957031 336.894531 C 178.703125 336.894531 178.578125 336.777344 178.578125 336.539062 L 178.578125 336.433594 L 178.660156 336.210938 C 178.714844 335.953125 178.878906 335.820312 179.15625 335.820312 L 186.738281 335.820312 C 187.589844 335.820312 188.402344 335.933594 189.175781 336.160156 C 189.949219 336.386719 190.621094 336.761719 191.195312 337.285156 C 191.667969 337.703125 192.015625 338.21875 192.230469 338.828125 C 192.367188 339.160156 192.4375 339.503906 192.445312 339.859375 C 192.445312 340.183594 192.398438 340.5 192.296875 340.8125 C 192.128906 341.511719 191.773438 342.144531 191.234375 342.710938 C 190.695312 343.277344 190.089844 343.761719 189.417969 344.160156 C 188.949219 344.433594 188.476562 344.65625 187.996094 344.835938 C 187.515625 345.015625 187.171875 345.125 186.964844 345.167969 C 187.476562 345.367188 187.960938 345.761719 188.421875 346.34375 C 188.808594 346.851562 189 347.457031 189 348.160156 C 189 348.308594 188.992188 348.457031 188.972656 348.605469 L 188.714844 350.957031 C 188.644531 351.570312 188.609375 352.101562 188.609375 352.550781 C 188.609375 352.851562 188.628906 353.113281 188.664062 353.335938 C 188.726562 353.851562 188.996094 354.109375 189.46875 354.109375 C 189.902344 354.109375 190.296875 353.875 190.65625 353.410156 C 191.015625 352.945312 191.28125 352.367188 191.449219 351.675781 C 191.550781 351.417969 191.722656 351.289062 191.976562 351.296875 L 192.191406 351.296875 C 192.433594 351.300781 192.5625 351.414062 192.582031 351.636719 Z M 189.417969 340.734375 C 189.5625 340.214844 189.640625 339.691406 189.660156 339.167969 L 189.660156 339.089844 C 189.660156 338.644531 189.519531 338.261719 189.242188 337.9375 C 188.910156 337.554688 188.476562 337.285156 187.941406 337.128906 C 187.410156 336.972656 186.824219 336.894531 186.1875 336.894531 L 184.394531 336.894531 C 183.9375 336.894531 183.664062 336.929688 183.574219 337 C 183.484375 337.070312 183.390625 337.316406 183.289062 337.742188 L 181.515625 344.65625 L 184.113281 344.65625 C 184.75 344.65625 185.378906 344.578125 186 344.421875 C 186.617188 344.265625 187.203125 343.988281 187.761719 343.585938 C 188.238281 343.246094 188.597656 342.820312 188.835938 342.304688 C 189.082031 341.792969 189.273438 341.269531 189.417969 340.734375 Z M 189.417969 340.734375 "/>
<path style=" stroke:none;fill-rule:evenodd;fill:rgb(0%,0%,0%);fill-opacity:1;" d="M 200.519531 358.167969 L 193.644531 358.167969 L 193.644531 357.765625 C 193.644531 357.734375 193.664062 357.691406 193.695312 357.632812 L 196.457031 354.953125 C 196.785156 354.632812 197.117188 354.300781 197.449219 353.964844 C 197.785156 353.628906 198.085938 353.285156 198.347656 352.933594 C 198.613281 352.582031 198.824219 352.21875 198.984375 351.847656 C 199.140625 351.472656 199.21875 351.082031 199.21875 350.671875 C 199.21875 350.324219 199.167969 350 199.066406 349.703125 C 198.964844 349.402344 198.820312 349.136719 198.628906 348.910156 C 198.433594 348.683594 198.195312 348.5 197.910156 348.363281 C 197.621094 348.222656 197.292969 348.152344 196.914062 348.152344 C 196.351562 348.152344 195.855469 348.304688 195.425781 348.601562 C 194.992188 348.902344 194.707031 349.234375 194.566406 349.59375 C 194.539062 349.605469 194.582031 349.609375 194.703125 349.609375 L 194.84375 349.609375 C 195.015625 349.644531 195.160156 349.695312 195.285156 349.765625 C 195.40625 349.839844 195.511719 349.9375 195.597656 350.058594 C 195.679688 350.183594 195.722656 350.335938 195.722656 350.511719 C 195.722656 350.804688 195.617188 351.027344 195.402344 351.183594 C 195.1875 351.339844 194.949219 351.417969 194.683594 351.417969 C 194.433594 351.417969 194.195312 351.339844 193.976562 351.183594 C 193.757812 351.027344 193.644531 350.804688 193.644531 350.511719 C 193.644531 350.101562 193.738281 349.710938 193.917969 349.347656 C 194.097656 348.980469 194.339844 348.664062 194.648438 348.394531 C 194.960938 348.125 195.328125 347.914062 195.75 347.757812 C 196.171875 347.601562 196.617188 347.523438 197.089844 347.523438 C 197.675781 347.523438 198.214844 347.601562 198.699219 347.753906 C 199.1875 347.90625 199.601562 348.128906 199.945312 348.417969 C 200.289062 348.707031 200.558594 349.039062 200.75 349.414062 C 200.945312 349.792969 201.042969 350.210938 201.042969 350.671875 C 201.042969 351.179688 200.914062 351.648438 200.65625 352.074219 C 200.394531 352.5 200.074219 352.890625 199.691406 353.25 C 199.308594 353.605469 198.902344 353.941406 198.472656 354.253906 C 198.042969 354.570312 197.652344 354.875 197.300781 355.171875 L 195.359375 356.804688 L 197.902344 356.804688 C 198.253906 356.804688 198.585938 356.804688 198.894531 356.800781 C 199.199219 356.792969 199.460938 356.785156 199.675781 356.769531 C 199.886719 356.753906 199.996094 356.746094 200.003906 356.738281 C 200.046875 356.707031 200.089844 356.636719 200.132812 356.535156 C 200.167969 356.433594 200.207031 356.3125 200.238281 356.171875 C 200.273438 356.035156 200.308594 355.890625 200.339844 355.75 C 200.375 355.605469 200.40625 355.445312 200.433594 355.277344 L 201.058594 355.277344 Z M 200.519531 358.167969 "/>
<path style="fill:none;stroke-width:0.804;stroke-linecap:round;stroke-linejoin:round;stroke:rgb(0%,0%,0%);stroke-opacity:1;stroke-miterlimit:10;" d="M 30.238851 18.469817 L 44.310735 18.469818 " transform="matrix(1.331889,0.000000105638,-0.000000441656,-1.331928,169.084592,368.119997)"/>
<path style="fill:none;stroke-width:0.804;stroke-linecap:round;stroke-linejoin:round;stroke:rgb(0%,0%,0%);stroke-opacity:1;stroke-miterlimit:10;" d="M 30.238849 14.249549 L 44.310734 14.24955 " transform="matrix(1.331889,0.000000105638,-0.000000441656,-1.331928,169.084592,368.119997)"/>
<path style=" stroke:none;fill-rule:evenodd;fill:rgb(0%,0%,0%);fill-opacity:1;" d="M 249.292969 350.4375 C 249.195312 350.835938 249.078125 351.28125 248.941406 351.769531 C 248.808594 352.257812 248.628906 352.710938 248.40625 353.128906 C 248.179688 353.546875 247.898438 353.910156 247.558594 354.214844 C 247.214844 354.519531 246.789062 354.671875 246.277344 354.671875 C 245.648438 354.671875 245.140625 354.511719 244.757812 354.1875 C 244.371094 353.867188 244.132812 353.535156 244.042969 353.191406 C 243.738281 353.570312 243.328125 353.910156 242.816406 354.214844 C 242.304688 354.519531 241.714844 354.671875 241.039062 354.671875 C 240.429688 354.671875 239.886719 354.558594 239.40625 354.332031 C 238.925781 354.105469 238.546875 353.757812 238.265625 353.285156 C 237.996094 352.78125 237.867188 352.222656 237.875 351.613281 L 237.875 351.507812 C 237.894531 350.871094 237.976562 350.238281 238.117188 349.613281 C 238.261719 349.011719 238.472656 348.351562 238.746094 347.625 C 239.019531 346.902344 239.28125 346.199219 239.53125 345.519531 C 239.800781 344.796875 239.9375 344.207031 239.9375 343.742188 C 239.9375 343.351562 239.769531 343.15625 239.4375 343.15625 C 239.132812 343.15625 238.855469 343.242188 238.609375 343.417969 C 238.363281 343.589844 238.140625 343.832031 237.9375 344.140625 C 237.734375 344.453125 237.554688 344.816406 237.390625 345.238281 C 237.230469 345.664062 237.097656 346.113281 236.988281 346.59375 C 236.890625 346.828125 236.722656 346.949219 236.488281 346.957031 L 236.179688 346.957031 C 235.964844 346.957031 235.855469 346.851562 235.855469 346.632812 L 235.855469 346.539062 C 235.984375 346.0625 236.148438 345.570312 236.355469 345.070312 C 236.5625 344.570312 236.820312 344.113281 237.136719 343.703125 C 237.449219 343.292969 237.808594 342.953125 238.214844 342.683594 C 238.617188 342.414062 239.078125 342.277344 239.601562 342.277344 C 240.050781 342.277344 240.433594 342.375 240.75 342.566406 C 241.070312 342.757812 241.3125 343.011719 241.476562 343.332031 C 241.644531 343.648438 241.738281 344.007812 241.753906 344.410156 L 241.753906 344.5 C 241.753906 344.875 241.679688 345.265625 241.523438 345.664062 C 241.265625 346.34375 241.007812 347.039062 240.75 347.75 C 240.496094 348.460938 240.296875 349.097656 240.152344 349.664062 C 240.007812 350.230469 239.910156 350.792969 239.855469 351.351562 C 239.820312 351.5 239.796875 351.660156 239.789062 351.835938 C 239.789062 352.175781 239.847656 352.511719 239.964844 352.839844 C 240.046875 353.136719 240.191406 353.371094 240.410156 353.546875 C 240.625 353.722656 240.878906 353.808594 241.175781 353.808594 C 241.769531 353.808594 242.285156 353.632812 242.726562 353.273438 C 243.164062 352.917969 243.550781 352.441406 243.878906 351.847656 C 243.898438 351.777344 243.914062 351.699219 243.921875 351.605469 C 243.929688 351.515625 243.945312 351.421875 243.960938 351.324219 L 245.980469 343.53125 C 246.0625 343.210938 246.226562 342.972656 246.472656 342.820312 C 246.71875 342.667969 246.96875 342.59375 247.21875 342.59375 C 247.480469 342.59375 247.695312 342.671875 247.867188 342.828125 C 247.984375 342.941406 248.042969 343.09375 248.042969 343.285156 C 248.042969 343.378906 248.03125 343.480469 248.015625 343.585938 L 245.996094 351.375 C 245.851562 351.917969 245.78125 352.398438 245.78125 352.816406 C 245.78125 352.929688 245.789062 353.050781 245.808594 353.179688 C 245.851562 353.597656 246.0625 353.808594 246.4375 353.808594 C 246.816406 353.808594 247.144531 353.488281 247.414062 352.839844 C 247.691406 352.195312 247.957031 351.367188 248.214844 350.355469 C 248.269531 350.132812 248.425781 350.019531 248.675781 350.015625 L 248.984375 350.015625 C 249.082031 350.019531 249.183594 350.046875 249.28125 350.109375 C 249.316406 350.1875 249.335938 350.253906 249.335938 350.304688 C 249.335938 350.339844 249.320312 350.382812 249.292969 350.4375 Z M 249.292969 350.4375 "/>
<path style=" stroke:none;fill-rule:evenodd;fill:rgb(0%,0%,0%);fill-opacity:1;" d="M 272.167969 343.273438 C 272.070312 343.535156 271.894531 343.664062 271.640625 343.664062 L 269.140625 343.664062 L 267.144531 351.390625 C 266.984375 351.949219 266.902344 352.4375 266.902344 352.851562 C 266.902344 352.96875 266.914062 353.078125 266.933594 353.179688 C 266.976562 353.597656 267.1875 353.808594 267.5625 353.808594 C 267.90625 353.808594 268.226562 353.714844 268.53125 353.527344 C 268.839844 353.339844 269.125 353.089844 269.394531 352.777344 C 269.664062 352.460938 269.90625 352.09375 270.121094 351.664062 C 270.335938 351.238281 270.535156 350.789062 270.714844 350.316406 C 270.742188 350.214844 270.796875 350.136719 270.890625 350.089844 C 270.976562 350.042969 271.066406 350.019531 271.144531 350.015625 L 271.480469 350.015625 C 271.597656 350.019531 271.691406 350.066406 271.765625 350.160156 C 271.789062 350.222656 271.804688 350.277344 271.804688 350.332031 L 271.804688 350.410156 C 271.617188 350.921875 271.378906 351.433594 271.097656 351.933594 C 270.8125 352.433594 270.488281 352.886719 270.121094 353.285156 C 269.753906 353.6875 269.347656 354.015625 268.902344 354.277344 C 268.460938 354.539062 267.96875 354.671875 267.429688 354.671875 C 266.960938 354.671875 266.558594 354.582031 266.214844 354.402344 C 265.878906 354.222656 265.601562 353.976562 265.394531 353.65625 C 265.191406 353.339844 265.070312 352.976562 265.03125 352.566406 C 265.015625 352.460938 265.007812 352.347656 265.007812 352.226562 C 265.007812 351.929688 265.042969 351.628906 265.113281 351.324219 L 267.089844 343.664062 L 264.5625 343.664062 C 264.339844 343.664062 264.214844 343.546875 264.199219 343.3125 L 264.199219 343.207031 L 264.277344 342.984375 C 264.371094 342.722656 264.535156 342.59375 264.777344 342.59375 L 267.347656 342.59375 L 268.453125 338.304688 C 268.53125 337.984375 268.695312 337.742188 268.941406 337.585938 C 269.191406 337.429688 269.441406 337.351562 269.691406 337.351562 C 269.953125 337.351562 270.167969 337.433594 270.335938 337.597656 C 270.453125 337.714844 270.511719 337.871094 270.511719 338.070312 C 270.511719 338.164062 270.503906 338.261719 270.484375 338.355469 L 269.394531 342.59375 L 271.871094 342.59375 C 272.105469 342.59375 272.222656 342.710938 272.222656 342.945312 L 272.222656 343.039062 Z M 272.167969 343.273438 "/>
<path style="fill:none;stroke-width:0.804;stroke-linecap:round;stroke-linejoin:round;stroke:rgb(0%,0%,0%);stroke-opacity:1;stroke-miterlimit:10;" d="M 83.267975 16.361154 L 97.336927 16.361155 " transform="matrix(1.331889,0.000000105638,-0.000000441656,-1.331928,169.084592,368.119997)"/>
<path style="fill:none;stroke-width:0.804;stroke-linecap:round;stroke-linejoin:round;stroke:rgb(0%,0%,0%);stroke-opacity:1;stroke-miterlimit:10;" d="M 90.300987 23.396889 L 90.300982 9.325419 " transform="matrix(1.331889,0.000000105638,-0.000000441656,-1.331928,169.084592,368.119997)"/>
<path style=" stroke:none;fill-rule:evenodd;fill:rgb(0%,0%,0%);fill-opacity:1;" d="M 327.101562 353.859375 C 327.125 353.921875 327.140625 353.980469 327.140625 354.03125 C 327.140625 354.101562 327.125 354.152344 327.085938 354.1875 C 327.035156 354.292969 326.925781 354.34375 326.78125 354.34375 L 306.855469 354.34375 C 306.707031 354.34375 306.601562 354.292969 306.535156 354.1875 C 306.507812 354.152344 306.496094 354.101562 306.496094 354.03125 C 306.496094 353.980469 306.507812 353.921875 306.535156 353.859375 L 316.070312 335.257812 C 316.191406 335.007812 316.390625 334.882812 316.699219 334.890625 L 316.9375 334.890625 C 317.21875 334.894531 317.417969 335.011719 317.550781 335.246094 Z M 316.003906 337.820312 L 308.625 352.1875 L 323.371094 352.1875 Z M 316.003906 337.820312 "/>
<path style=" stroke:none;fill-rule:evenodd;fill:rgb(0%,0%,0%);fill-opacity:1;" d="M 336.730469 343.273438 C 336.621094 343.535156 336.449219 343.664062 336.195312 343.664062 L 333.691406 343.664062 L 331.707031 351.390625 C 331.546875 351.949219 331.46875 352.4375 331.46875 352.851562 C 331.46875 352.96875 331.46875 353.078125 331.496094 353.179688 C 331.535156 353.597656 331.75 353.808594 332.121094 353.808594 C 332.46875 353.808594 332.785156 353.714844 333.09375 353.527344 C 333.398438 353.339844 333.679688 353.089844 333.960938 352.777344 C 334.226562 352.460938 334.464844 352.09375 334.679688 351.664062 C 334.890625 351.238281 335.089844 350.789062 335.277344 350.316406 C 335.304688 350.214844 335.359375 350.136719 335.449219 350.089844 C 335.542969 350.042969 335.625 350.019531 335.703125 350.015625 L 336.035156 350.015625 C 336.15625 350.019531 336.25 350.066406 336.316406 350.160156 C 336.355469 350.222656 336.371094 350.277344 336.371094 350.332031 L 336.371094 350.410156 C 336.171875 350.921875 335.945312 351.433594 335.652344 351.933594 C 335.371094 352.433594 335.050781 352.886719 334.679688 353.285156 C 334.320312 353.6875 333.90625 354.015625 333.464844 354.277344 C 333.011719 354.539062 332.535156 354.671875 331.988281 354.671875 C 331.523438 354.671875 331.121094 354.582031 330.777344 354.402344 C 330.429688 354.222656 330.164062 353.976562 329.949219 353.65625 C 329.75 353.339844 329.628906 352.976562 329.589844 352.566406 C 329.578125 352.460938 329.5625 352.347656 329.5625 352.226562 C 329.5625 351.929688 329.605469 351.628906 329.671875 351.324219 L 331.65625 343.664062 L 329.125 343.664062 C 328.898438 343.664062 328.777344 343.546875 328.75 343.3125 L 328.75 343.207031 L 328.84375 342.984375 C 328.925781 342.722656 329.097656 342.59375 329.335938 342.59375 L 331.90625 342.59375 L 333.011719 338.304688 C 333.09375 337.984375 333.253906 337.742188 333.507812 337.585938 C 333.746094 337.429688 334 337.351562 334.253906 337.351562 C 334.503906 337.351562 334.730469 337.433594 334.890625 337.597656 C 335.011719 337.714844 335.066406 337.871094 335.066406 338.070312 C 335.066406 338.164062 335.066406 338.261719 335.039062 338.355469 L 333.960938 342.59375 L 336.4375 342.59375 C 336.664062 342.59375 336.78125 342.710938 336.78125 342.945312 L 336.78125 343.039062 Z M 336.730469 343.273438 "/>
<path style=" stroke:none;fill-rule:evenodd;fill:rgb(0%,0%,0%);fill-opacity:1;" d="M 261.289062 359.109375 C 251.863281 353.359375 251.863281 339.296875 261.289062 333.546875 L 262.660156 333.546875 C 254.09375 339.296875 254.09375 353.359375 262.660156 359.109375 "/>
<path style=" stroke:none;fill-rule:evenodd;fill:rgb(0%,0%,0%);fill-opacity:1;" d="M 339.710938 333.546875 C 349.128906 339.296875 349.128906 353.359375 339.710938 359.109375 L 338.339844 359.109375 C 346.90625 353.359375 346.90625 339.296875 338.339844 333.546875 "/>
</g>
</svg>
