<?xml version="1.0" encoding="utf-8"?>
<!-- Generator: Adobe Illustrator 19.0.0, SVG Export Plug-In . SVG Version: 6.00 Build 0)  -->
<svg version="1.1" id="Layer_1" xmlns="http://www.w3.org/2000/svg" xmlns:xlink="http://www.w3.org/1999/xlink" x="0px" y="0px"
	 viewBox="0 0 243.3333282 150.5417023" style="enable-background:new 0 0 243.3333282 150.5417023;" xml:space="preserve">
<style type="text/css">
	.st0{fill:#FFFFFF;}
	.st1{fill:none;stroke:#262626;stroke-width:0.5000002;stroke-linecap:square;stroke-linejoin:round;stroke-miterlimit:10;}
	.st2{fill:#262626;}
	.st3{fill:none;stroke:#0072BD;stroke-width:0.5000002;stroke-linejoin:round;stroke-miterlimit:10;}
	.st4{fill:none;stroke:#D95319;stroke-width:0.5000002;stroke-linejoin:round;stroke-miterlimit:10;}
</style>
<rect x="17.541666" y="11.25" class="st0" width="216" height="120"/>
<line class="st1" x1="17.5416508" y1="131.25" x2="233.5416718" y2="131.25"/>
<line class="st1" x1="17.5416508" y1="11.25" x2="233.5416718" y2="11.25"/>
<line class="st1" x1="34.3218193" y1="131.25" x2="34.3218193" y2="129.0899963"/>
<line class="st1" x1="78.5929031" y1="131.25" x2="78.5929031" y2="129.0899963"/>
<line class="st1" x1="122.8639603" y1="131.25" x2="122.8639603" y2="129.0899963"/>
<line class="st1" x1="167.1350555" y1="131.25" x2="167.1350555" y2="129.0899963"/>
<line class="st1" x1="211.4061432" y1="131.25" x2="211.4061432" y2="129.0899963"/>
<line class="st1" x1="34.3218193" y1="11.25" x2="34.3218193" y2="13.4100037"/>
<line class="st1" x1="78.5929031" y1="11.25" x2="78.5929031" y2="13.4100037"/>
<line class="st1" x1="122.8639603" y1="11.25" x2="122.8639603" y2="13.4100037"/>
<line class="st1" x1="167.1350555" y1="11.25" x2="167.1350555" y2="13.4100037"/>
<line class="st1" x1="211.4061432" y1="11.25" x2="211.4061432" y2="13.4100037"/>
<g>
	<path class="st2" d="M30.482584,141.8662415v-0.7949219h2.4301777v0.7949219H30.482584z"/>
	<path class="st2" d="M36.1031914,143.7998352v-1.5429688h-2.7949219v-0.7246094l2.9399414-4.1748047h0.6459961v4.1748047h0.8701172
		v0.7246094H36.894207v1.5429688H36.1031914z M36.1031914,141.5322571v-2.9042969l-2.0170898,2.9042969H36.1031914z"/>
</g>
<g>
	<path class="st2" d="M74.7535782,141.8662415v-0.7949219h2.4301758v0.7949219H74.7535782z"/>
	<path class="st2" d="M81.9957657,143.0400696v0.7597656h-4.2583008c-0.0058594-0.1904297,0.0249023-0.3730469,0.0922852-0.5488281
		c0.1083984-0.2910156,0.2817383-0.5761719,0.5209961-0.8574219c0.2382813-0.28125,0.5834961-0.6064453,1.034668-0.9755859
		c0.7001953-0.5742188,1.1733398-1.0292969,1.4194336-1.3642578c0.2460938-0.3359375,0.3691406-0.6523438,0.3691406-0.9511719
		c0-0.3134766-0.1123047-0.578125-0.3359375-0.7939453c-0.2246094-0.2148438-0.5166016-0.3232422-0.8769531-0.3232422
		c-0.3808594,0-0.6855469,0.1152344-0.9140625,0.34375s-0.3442383,0.5449219-0.347168,0.9492188l-0.8129883-0.0839844
		c0.0556641-0.6064453,0.2651367-1.0683594,0.628418-1.3867188c0.3632813-0.3173828,0.8510742-0.4765625,1.4633789-0.4765625
		c0.6181641,0,1.1074219,0.171875,1.4677734,0.5136719c0.3603516,0.34375,0.5405273,0.7685547,0.5405273,1.2753906
		c0,0.2578125-0.0527344,0.5107422-0.1582031,0.7597656s-0.2807617,0.5117188-0.5249023,0.7871094
		c-0.2451172,0.2753906-0.6513672,0.6533203-1.2197266,1.1328125c-0.4746094,0.3994141-0.7792969,0.6689453-0.9140625,0.8115234
		c-0.1347656,0.1416016-0.2460938,0.2851563-0.3339844,0.4287109H81.9957657z"/>
</g>
<g>
	<path class="st2" d="M120.6124649,140.6221008c0-0.7607422,0.0776367-1.3740234,0.2348633-1.8388672
		c0.1572266-0.4638672,0.3896484-0.8222656,0.6992188-1.0742188c0.3085938-0.2519531,0.6972656-0.3779297,1.1669922-0.3779297
		c0.3447266,0,0.6484375,0.0693359,0.9091797,0.2089844c0.2607422,0.1386719,0.4755859,0.3398438,0.6455078,0.6015625
		c0.1699219,0.2626953,0.3037109,0.5820313,0.4003906,0.9580078c0.0966797,0.3769531,0.1445313,0.8847656,0.1445313,1.5224609
		c0,0.7558594-0.0771484,1.3662109-0.2324219,1.8310547c-0.1552734,0.4638672-0.3876953,0.8232422-0.6962891,1.0761719
		c-0.3095703,0.2539063-0.7001953,0.3798828-1.1708984,0.3798828c-0.6220703,0-1.109375-0.2216797-1.4638672-0.6679688
		C120.8248672,142.7060852,120.6124649,141.8330383,120.6124649,140.6221008z M121.4254532,140.6221008
		c0,1.0585938,0.1240234,1.7617188,0.3710938,2.1123047c0.2480469,0.3496094,0.5527344,0.5244141,0.9169922,0.5244141
		c0.3623047,0,0.6679688-0.1757813,0.9160156-0.5273438c0.2470703-0.3515625,0.3710938-1.0546875,0.3710938-2.109375
		c0-1.0595703-0.1240234-1.7646484-0.3710938-2.1132813c-0.2480469-0.3486328-0.5566406-0.5234375-0.9257813-0.5234375
		c-0.3632813,0-0.6533203,0.1542969-0.8691406,0.4619141C121.5611954,138.8398743,121.4254532,139.5654602,121.4254532,140.6221008z
		"/>
</g>
<g>
	<path class="st2" d="M169.0416718,143.0400696v0.7597656h-4.2587891c-0.0058594-0.1904297,0.0244141-0.3730469,0.0927734-0.5488281
		c0.1074219-0.2910156,0.28125-0.5761719,0.5205078-0.8574219c0.2382813-0.28125,0.5830078-0.6064453,1.0341797-0.9755859
		c0.7001953-0.5742188,1.1738281-1.0292969,1.4199219-1.3642578c0.2460938-0.3359375,0.3691406-0.6523438,0.3691406-0.9511719
		c0-0.3134766-0.1123047-0.578125-0.3359375-0.7939453c-0.2246094-0.2148438-0.5166016-0.3232422-0.8769531-0.3232422
		c-0.3808594,0-0.6855469,0.1152344-0.9140625,0.34375s-0.3447266,0.5449219-0.3476563,0.9492188l-0.8125-0.0839844
		c0.0556641-0.6064453,0.2646484-1.0683594,0.6289063-1.3867188c0.3623047-0.3173828,0.8505859-0.4765625,1.4628906-0.4765625
		c0.6181641,0,1.1074219,0.171875,1.4677734,0.5136719c0.3603516,0.34375,0.5400391,0.7685547,0.5400391,1.2753906
		c0,0.2578125-0.0527344,0.5107422-0.1582031,0.7597656s-0.2802734,0.5117188-0.5244141,0.7871094
		c-0.2451172,0.2753906-0.6513672,0.6533203-1.2197266,1.1328125c-0.4746094,0.3994141-0.7792969,0.6689453-0.9140625,0.8115234
		c-0.1347656,0.1416016-0.2460938,0.2851563-0.3339844,0.4287109H169.0416718z"/>
</g>
<g>
	<path class="st2" d="M211.6901093,143.7998352v-1.5429688h-2.7949219v-0.7246094l2.9404297-4.1748047h0.6455078v4.1748047
		h0.8701172v0.7246094h-0.8701172v1.5429688H211.6901093z M211.6901093,141.5322571v-2.9042969l-2.0166016,2.9042969H211.6901093z"
		/>
</g>
<line class="st1" x1="17.5416508" y1="131.25" x2="17.5416508" y2="11.25"/>
<line class="st1" x1="233.5416718" y1="131.25" x2="233.5416718" y2="11.25"/>
<line class="st1" x1="17.5416508" y1="126.1151428" x2="19.7016544" y2="126.1151428"/>
<line class="st1" x1="17.5416508" y1="87.8267517" x2="19.7016544" y2="87.8267517"/>
<line class="st1" x1="17.5416508" y1="49.5383911" x2="19.7016544" y2="49.5383911"/>
<line class="st1" x1="17.5416508" y1="11.25" x2="19.7016544" y2="11.25"/>
<line class="st1" x1="233.5416718" y1="126.1151428" x2="231.3816681" y2="126.1151428"/>
<line class="st1" x1="233.5416718" y1="87.8267517" x2="231.3816681" y2="87.8267517"/>
<line class="st1" x1="233.5416718" y1="49.5383911" x2="231.3816681" y2="49.5383911"/>
<line class="st1" x1="233.5416718" y1="11.25" x2="231.3816681" y2="11.25"/>
<g>
	<path class="st2" d="M6.7775064,127.9316711v-0.7949219h2.4301763v0.7949219H6.7775064z"/>
	<path class="st2" d="M13.96696,125.0000305l-0.7866211,0.0625c-0.0703125-0.3105469-0.1699219-0.5371094-0.2988281-0.6777344
		c-0.2138672-0.2246094-0.4775391-0.3378906-0.7910156-0.3378906c-0.2519531,0-0.4731445,0.0703125-0.6635742,0.2109375
		c-0.2490234,0.1816406-0.4453125,0.4472656-0.5888672,0.7949219c-0.1435547,0.3496094-0.2182617,0.8457031-0.2241211,1.4902344
		c0.1904297-0.2900391,0.4233398-0.5058594,0.6987305-0.6464844s0.5639648-0.2109375,0.8657227-0.2109375
		c0.5273438,0,0.9760742,0.1943359,1.3466797,0.5830078c0.3706055,0.3876953,0.5561523,0.8896484,0.5561523,1.5048828
		c0,0.4042969-0.0874023,0.7802734-0.2612305,1.1269531c-0.1748047,0.3476563-0.4140625,0.6132813-0.71875,0.7978516
		s-0.6503906,0.2763672-1.0371094,0.2763672c-0.6591797,0-1.1967773-0.2421875-1.612793-0.7265625
		c-0.4160156-0.4853516-0.6240234-1.2841797-0.6240234-2.3974609c0-1.2451172,0.2299805-2.1503906,0.6899414-2.7158203
		c0.4013672-0.4921875,0.9418945-0.7382813,1.621582-0.7382813c0.5068359,0,0.921875,0.1425781,1.2456055,0.4257813
		C13.7081709,124.1074524,13.9025068,124.5000305,13.96696,125.0000305z M10.7369795,127.7773743
		c0,0.2734375,0.0576172,0.5341797,0.1738281,0.7832031c0.1152344,0.2490234,0.2773438,0.4384766,0.4853516,0.5683594
		c0.2080078,0.1308594,0.4262695,0.1953125,0.6547852,0.1953125c0.3339844,0,0.6210938-0.1337891,0.8613281-0.4042969
		c0.2402344-0.2685547,0.3603516-0.6347656,0.3603516-1.0976563c0-0.4453125-0.1186523-0.796875-0.355957-1.0527344
		c-0.2373047-0.2568359-0.5361328-0.3847656-0.8964844-0.3847656c-0.3574219,0-0.6606445,0.1279297-0.909668,0.3847656
		C10.8614912,127.0254211,10.7369795,127.3623352,10.7369795,127.7773743z"/>
</g>
<g>
	<path class="st2" d="M6.7775064,89.6426086v-0.7949219h2.4301763v0.7949219H6.7775064z"/>
	<path class="st2" d="M12.3981123,91.5762024v-1.5429688H9.6031904v-0.7246094l2.9399414-4.1748047h0.6459961v4.1748047h0.8701172
		v0.7246094h-0.8701172v1.5429688H12.3981123z M12.3981123,89.3086243v-2.9042969l-2.0170898,2.9042969H12.3981123z"/>
</g>
<g>
	<path class="st2" d="M6.7775064,51.3545227v-0.7954102h2.4301763v0.7954102H6.7775064z"/>
	<path class="st2" d="M14.0196943,52.5278625v0.7602539H9.7613935C9.7555342,53.0976868,9.7862959,52.9145813,9.8536787,52.7388
		c0.1083984-0.2900391,0.2817383-0.5756836,0.5209961-0.8569336c0.2382813-0.28125,0.5834961-0.6064453,1.034668-0.9755859
		c0.7001953-0.5742188,1.1733398-1.0288086,1.4194336-1.3642578s0.3691406-0.652832,0.3691406-0.9516602
		c0-0.3134766-0.1123047-0.5776367-0.3359375-0.793457c-0.2246094-0.2148438-0.5166016-0.3227539-0.8769531-0.3227539
		c-0.3808594,0-0.6855469,0.1142578-0.9140625,0.3427734s-0.3442383,0.5449219-0.347168,0.9492188l-0.8129883-0.0834961
		c0.0556641-0.6064453,0.2651367-1.0683594,0.628418-1.3867188c0.3632813-0.3173828,0.8510742-0.4765625,1.4633789-0.4765625
		c0.6181641,0,1.1074219,0.1713867,1.4677734,0.5141602s0.5405273,0.7675781,0.5405273,1.2744141
		c0,0.2578125-0.0527344,0.5112305-0.1582031,0.7602539s-0.2807617,0.5112305-0.5249023,0.7866211
		c-0.2451172,0.2753906-0.6513672,0.6533203-1.2197266,1.1337891c-0.4746094,0.3984375-0.7792969,0.6689453-0.9140625,0.8110352
		s-0.2460938,0.284668-0.3339844,0.4282227H14.0196943z"/>
</g>
<g>
	<path class="st2" d="M9.8653975,11.8227844c0-0.7617188,0.078125-1.3745117,0.2348633-1.8393555
		c0.1567383-0.4638672,0.3896484-0.8222656,0.6992188-1.0742188c0.3085938-0.2519531,0.6977539-0.3779297,1.1665039-0.3779297
		c0.3457031,0,0.6489258,0.0698242,0.909668,0.2089844s0.4760742,0.3398438,0.6459961,0.6015625
		c0.1699219,0.2626953,0.3032227,0.5820313,0.3999023,0.9580078c0.0966797,0.3769531,0.1450195,0.8842773,0.1450195,1.5229492
		c0,0.7558594-0.0776367,1.3662109-0.2329102,1.8305664s-0.3876953,0.8232422-0.6962891,1.0761719
		c-0.3095703,0.2539063-0.699707,0.3803711-1.1713867,0.3803711c-0.6210938,0-1.1088867-0.2226563-1.4633789-0.6679688
		C10.0777998,13.9057922,9.8653975,13.0327454,9.8653975,11.8227844z M10.6783857,11.8227844
		c0,1.0576172,0.1235352,1.7617188,0.3710938,2.1118164s0.5532227,0.5249023,0.9165039,0.5249023
		s0.668457-0.1757813,0.9165039-0.5273438c0.2470703-0.3515625,0.3710938-1.0546875,0.3710938-2.109375
		c0-1.0605469-0.1240234-1.7651367-0.3710938-2.1137695c-0.2480469-0.3486328-0.5561523-0.5229492-0.925293-0.5229492
		c-0.3632813,0-0.6533203,0.1538086-0.8701172,0.4614258C10.8146162,10.0400696,10.6783857,10.7651672,10.6783857,11.8227844z"/>
</g>
<polyline class="st3" points="17.5158939,15.2725525 17.9530582,15.2893066 18.3966618,15.3064575 18.84025,15.323761 
	19.2838535,15.341217 19.727457,15.3587952 20.1710606,15.3765564 20.6146488,15.3944702 21.0582523,15.4125061 
	21.5018406,15.4307251 21.9454441,15.4491272 22.3890324,15.4676514 22.8326359,15.4863586 23.2762241,15.5052185 
	23.7198277,15.5242615 24.1634312,15.5434875 24.6070347,15.5628662 25.0506382,15.582428 25.4942265,15.6021423 
	25.93783,15.6220703 26.3814182,15.6421814 26.8250217,15.6624756 27.26861,15.6829529 27.7122135,15.7036133 
	28.1558018,15.7244568 28.5994053,15.7455139 29.0430088,15.7667847 29.4866123,15.7882385 29.9302158,15.809906 
	30.3738041,15.8317566 30.8174076,15.8538513 31.2609959,15.8761292 31.7045994,15.8986511 32.1481895,15.9213867 
	32.5917931,15.9443359 33.0353813,15.9675293 33.4790001,15.9909363 33.9225883,16.0145874 34.3661766,16.0384521 
	34.8097954,16.0625916 35.2533836,16.0869446 35.6969872,16.1115723 36.1405754,16.1364441 36.5841789,16.1615601 
	37.0277672,16.1869507 37.4713707,16.2125854 37.9149742,16.2384949 38.3585625,16.264679 38.802166,16.2911377 
	39.2457542,16.3179016 39.6893578,16.3449097 40.1329613,16.3722534 40.5765648,16.3998413 41.020153,16.4277649 
	41.4637566,16.4559937 41.9073448,16.4844971 42.3509483,16.5133362 42.7945518,16.542511 43.2381401,16.571991 
	43.6817436,16.6018066 44.1253471,16.631958 44.5689354,16.6624451 45.0125389,16.6932983 45.4561424,16.7244873 
	45.8997307,16.7560425 46.3433342,16.7879639 46.7869225,16.8202515 47.230526,16.8529053 47.6741295,16.8859863 
	48.1177177,16.9194336 48.5613213,16.9532776 49.0049248,16.9875183 49.448513,17.0221863 49.8921165,17.0572815 
	50.3357201,17.092804 50.7793083,17.1287537 51.2229118,17.1651611 51.6665001,17.2019958 52.1101036,17.2393188 
	52.5536919,17.2770996 52.9972954,17.3153687 53.4408989,17.354126 53.8845024,17.3934021 54.3280907,17.4331665 
	54.7716942,17.4734497 55.2152824,17.5142517 55.658886,17.555603 56.1024895,17.5975037 56.5460777,17.6399536 
	56.9896812,17.6829834 57.4332695,17.726593 57.876873,17.770813 58.3204765,17.8156128 58.76408,17.8610535 59.2076683,17.907135 
	59.6512718,17.9538269 60.0948601,18.0012207 60.5384636,18.0492554 60.9820671,18.0979919 61.4256554,18.1474609 
	61.8692589,18.1976013 62.3128471,18.2485046 62.7564507,18.3001709 63.2000542,18.3525696 63.6436577,18.4057922 
	64.0872421,18.4597778 64.5308456,18.5146179 64.9744339,18.570282 65.4180374,18.6268005 65.8616409,18.6842041 
	66.3052292,18.7425232 66.7488327,18.8017578 67.192421,18.8619385 67.6360245,18.9230652 68.079628,18.985199 
	68.5232315,19.0483398 68.9668198,19.1125183 69.4104233,19.1777649 69.8540115,19.2441101 70.2976151,19.3115845 
	70.7412186,19.380188 71.1847916,19.4499817 71.6283951,19.5209656 72.0719986,19.5932007 72.5156021,19.6667175 
	72.9592056,19.7415161 73.4027786,19.817688 73.8463821,19.8952332 74.2899857,19.9741821 74.7335892,20.0545654 
	75.1771927,20.1364746 75.6207962,20.2199097 76.0643692,20.3049316 76.5079727,20.3916016 76.9515762,20.4799194 
	77.3951797,20.5699768 77.8387833,20.6617737 78.2823563,20.7554321 78.7259598,20.8509827 79.1695633,20.9484558 
	79.6131668,21.0479126 80.0567703,21.1494446 80.5003738,21.2531128 80.9439468,21.3589478 81.3875504,21.4670715 
	81.8311539,21.5775146 82.2747574,21.6903992 82.7183609,21.8057556 83.1619339,21.9237061 83.6055374,22.0443115 
	84.0491409,22.1676636 84.4927444,22.2938843 84.936348,22.4230652 85.3799515,22.5552673 85.8235245,22.6906738 
	86.267128,22.8293457 86.7107315,22.9714355 87.154335,23.1170349 87.5979385,23.2662964 88.0415115,23.4193726 
	88.4851151,23.5763855 88.9287186,23.7375183 89.3723221,23.9029236 89.8159256,24.0727539 90.2595291,24.2472229 
	90.7031021,24.4264832 91.1467056,24.6107788 91.5903091,24.800293 92.0339127,24.9952698 92.4775162,25.1959229 
	92.9210892,25.4025269 93.3646927,25.6153564 93.8082962,25.8346558 94.2518997,26.060791 94.6955032,26.2940369 
	95.1391068,26.534729 95.5826797,26.7832642 96.0262833,27.0400085 96.4698868,27.3053894 96.9134903,27.579834 
	97.3570938,27.8638306 97.8006668,28.1578979 98.2442703,28.4625244 98.6878738,28.7783508 99.1314774,29.1059875 
	99.5750809,29.446106 100.0186844,29.7994385 100.4622574,30.166748 100.9058609,30.5488892 101.3494644,30.9468079 
	101.7930679,31.3614807 102.2366714,31.7939758 102.6802444,32.2455139 103.123848,32.7173157 103.5674515,33.2108154 
	104.011055,33.7275391 104.4546585,34.269165 104.898262,34.8375549 105.341835,35.4346924 105.7854385,36.0628662 
	106.2290421,36.7245483 106.6726456,37.4224854 107.1162491,38.159729 107.5598221,38.9397278 108.0034256,39.7662659 
	108.4470291,40.6437073 108.8906326,41.5768433 109.3342361,42.571167 109.7778397,43.6329041 110.2214127,44.7691345 
	110.6650162,45.9880066 111.1086197,47.2988892 111.5522232,48.7125549 111.9958267,50.2416382 112.4393997,51.9008484 
	112.8830032,53.7075806 113.3266068,55.6823425 113.7702103,57.849762 114.2138138,60.239502 114.6574173,62.8875732 
	115.1009903,65.8382874 115.5445938,69.1466675 115.9881973,72.8819275 116.4318008,77.1324158 116.8754044,82.0126038 
	117.3189774,87.6736145 117.7625809,94.3191223 118.2061844,102.2304688 118.6497879,111.807373 119.0933914,123.6376343 
	119.3191605,131.2643127 "/>
<polyline class="st3" points="126.4087906,131.2643127 126.6345596,123.6376343 127.0781326,111.807373 127.5217361,102.2304688 
	127.9653397,94.3191223 128.4089508,87.6736145 128.8525543,82.0126038 129.2961578,77.1324158 129.7397308,72.8819275 
	130.1833344,69.1466675 130.6269379,65.8382874 131.0705414,62.8875732 131.5141449,60.239502 131.9577179,57.849762 
	132.4013214,55.6823425 132.8449249,53.7075806 133.2885284,51.9008484 133.732132,50.2416382 134.1757355,48.7125549 
	134.6193085,47.2988892 135.062912,45.9880066 135.5065155,44.7691345 135.950119,43.6329041 136.3937225,42.571167 
	136.8372955,41.5768433 137.280899,40.6437073 137.7245026,39.7662659 138.1681061,38.9397278 138.6117096,38.159729 
	139.0553131,37.4224854 139.4988861,36.7245483 139.9424896,36.0628662 140.3860931,35.4346924 140.8296967,34.8375549 
	141.2733002,34.269165 141.7168732,33.7275391 142.1604767,33.2108154 142.6040802,32.7173157 143.0476837,32.2455139 
	143.4912872,31.7939758 143.9348907,31.3614807 144.3784637,30.9468079 144.8220673,30.5488892 145.2656708,30.166748 
	145.7092743,29.7994385 146.1528778,29.446106 146.5964508,29.1059875 147.0400543,28.7783508 147.4836578,28.4625244 
	147.9272614,28.1578979 148.3708649,27.8638306 148.8144684,27.579834 149.2580414,27.3053894 149.7016449,27.0400085 
	150.1452484,26.7832642 150.5888519,26.534729 151.0324554,26.2940369 151.4760284,26.060791 151.919632,25.8346558 
	152.3632355,25.6153564 152.806839,25.4025269 153.2504425,25.1959229 153.694046,24.9952698 154.137619,24.800293 
	154.5812225,24.6107788 155.024826,24.4264832 155.4684296,24.2472229 155.9120331,24.0727539 156.3556061,23.9029236 
	156.7992096,23.7375183 157.2428131,23.5763855 157.6864166,23.4193726 158.1300201,23.2662964 158.5736237,23.1170349 
	159.0171967,22.9714355 159.4608002,22.8293457 159.9044037,22.6906738 160.3480072,22.5552673 160.7916107,22.4230652 
	161.2351837,22.2938843 161.6787872,22.1676636 162.1223907,22.0443115 162.5659943,21.9237061 163.0095673,21.8057556 
	163.4532013,21.6903992 163.8967743,21.5775146 164.3403778,21.4670715 164.7839813,21.3589478 165.2275848,21.2531128 
	165.6711578,21.1494446 166.1147614,21.0479126 166.5583649,20.9484558 167.0019684,20.8509827 167.4455719,20.7554321 
	167.8891449,20.6617737 168.3327484,20.5699768 168.7763519,20.4799194 169.2199554,20.3916016 169.663559,20.3049316 
	170.1071625,20.2199097 170.5507355,20.1364746 170.994339,20.0545654 171.4379425,19.9741821 171.881546,19.8952332 
	172.3251495,19.817688 172.7687225,19.7415161 173.212326,19.6667175 173.6559296,19.5932007 174.0995331,19.5209656 
	174.5431366,19.4499817 174.9867401,19.380188 175.4303131,19.3115845 175.8739166,19.2441101 176.3175201,19.1777649 
	176.7611237,19.1125183 177.2047272,19.0483398 177.6483307,18.985199 178.0919342,18.9230652 178.5355072,18.8619385 
	178.9791107,18.8017578 179.4227142,18.7425232 179.8663177,18.6842041 180.3098907,18.6268005 180.7534943,18.570282 
	181.1970978,18.5146179 181.6407013,18.4597778 182.0843048,18.4057922 182.5279083,18.3525696 182.9715118,18.3001709 
	183.4150848,18.2485046 183.8586884,18.1976013 184.3022919,18.1474609 184.7458954,18.0979919 185.1894684,18.0492554 
	185.6330719,18.0012207 186.0766754,17.9538269 186.5202789,17.907135 186.9638824,17.8610535 187.407486,17.8156128 
	187.8510895,17.770813 188.2946625,17.726593 188.738266,17.6829834 189.1818695,17.6399536 189.625473,17.5975037 
	190.069046,17.555603 190.5126495,17.5142517 190.9562531,17.4734497 191.3998566,17.4331665 191.8434296,17.3934021 
	192.2870636,17.354126 192.7306671,17.3153687 193.1742401,17.2770996 193.6178436,17.2393188 194.0614471,17.2019958 
	194.5050507,17.1651611 194.9486237,17.1287537 195.3922272,17.092804 195.8358307,17.0572815 196.2794342,17.0221863 
	196.7230072,16.9875183 197.1666412,16.9532776 197.6102448,16.9194336 198.0538177,16.8859863 198.4974213,16.8529053 
	198.9410248,16.8202515 199.3846283,16.7879639 199.8282013,16.7560425 200.2718048,16.7244873 200.7154083,16.6932983 
	201.1590118,16.6624451 201.6025848,16.631958 202.0462189,16.6018066 202.4898224,16.571991 202.9333954,16.542511 
	203.3769989,16.5133362 203.8206024,16.4844971 204.2642059,16.4559937 204.7077789,16.4277649 205.1513824,16.3998413 
	205.594986,16.3722534 206.0385895,16.3449097 206.482193,16.3179016 206.9257965,16.2911377 207.3694,16.264679 
	207.812973,16.2384949 208.2565765,16.2125854 208.7001801,16.1869507 209.1437836,16.1615601 209.5873566,16.1364441 
	210.0309601,16.1115723 210.4745636,16.0869446 210.9181671,16.0625916 211.3617706,16.0384521 211.8053436,16.0145874 
	212.2489471,15.9909363 212.6925507,15.9675293 213.1361542,15.9443359 213.5797577,15.9213867 214.0233612,15.8986511 
	214.4669342,15.8761292 214.9105377,15.8538513 215.3541412,15.8317566 215.7977448,15.809906 216.2413177,15.7882385 
	216.6849213,15.7667847 217.1285553,15.7455139 217.5721283,15.7244568 218.0157318,15.7036133 218.4593353,15.6829529 
	218.9029388,15.6624756 219.3465118,15.6421814 219.7901154,15.6220703 220.2337189,15.6021423 220.6773224,15.582428 
	221.1208954,15.5628662 221.5644989,15.5434875 222.0081329,15.5242615 222.4517059,15.5052185 222.8953094,15.4863586 
	223.338913,15.4676514 223.7825165,15.4491272 224.2260895,15.4307251 224.669693,15.4125061 225.1132965,15.3944702 
	225.5569,15.3765564 226.000473,15.3587952 226.4440765,15.341217 226.8877106,15.323761 227.3312836,15.3064575 
	227.7748871,15.2893066 228.2184906,15.2723083 228.6620941,15.2554321 229.1056671,15.2387085 229.5492706,15.2221375 
	229.9928741,15.2056885 230.4364777,15.1893616 230.8800507,15.1731873 231.3236847,15.1571655 231.7672882,15.1412354 
	232.2108612,15.1254578 232.6544647,15.1098022 233.0980682,15.0942688 233.5416718,15.0788574 "/>
<polyline class="st4" points="17.5158939,15.2690125 17.9530582,15.2857361 18.3966618,15.3028259 18.84025,15.3200684 
	19.2838535,15.3374939 19.727457,15.3550415 20.1710606,15.3727417 20.6146488,15.3905945 21.0582523,15.4085999 
	21.5018406,15.4267578 21.9454441,15.4450684 22.3890324,15.463562 22.8326359,15.4822083 23.2762241,15.5010376 
	23.7198277,15.5200195 24.1634312,15.5391541 24.6070347,15.5585022 25.0506382,15.5779724 25.4942265,15.5976563 
	25.93783,15.6175232 26.3814182,15.6375732 26.8250217,15.6577759 27.26861,15.6781921 27.7122135,15.6987915 28.1558018,15.719574 
	28.5994053,15.7405701 29.0430088,15.7617493 29.4866123,15.7831421 29.9302158,15.804718 30.3738041,15.8265381 
	30.8174076,15.8485413 31.2609959,15.8707581 31.7045994,15.8931885 32.1481895,15.9158325 32.5917931,15.9386902 
	33.0353813,15.961792 33.4790001,15.9851379 33.9225883,16.0086975 34.3661766,16.0324707 34.8097954,16.0565186 
	35.2533836,16.08078 35.6969872,16.1053162 36.1405754,16.1300659 36.5841789,16.1550903 37.0277672,16.1803894 
	37.4713707,16.2059326 37.9149742,16.2317505 38.3585625,16.2578125 38.802166,16.2841797 39.2457542,16.310791 
	39.6893578,16.3377075 40.1329613,16.3649292 40.5765648,16.3924255 41.020153,16.4201965 41.4637566,16.4483032 
	41.9073448,16.4766846 42.3509483,16.5054016 42.7945518,16.5344238 43.2381401,16.5637817 43.6817436,16.5934753 
	44.1253471,16.6234741 44.5689354,16.6538086 45.0125389,16.6845093 45.4561424,16.7155457 45.8997307,16.7469482 
	46.3433342,16.778717 46.7869225,16.8108521 47.230526,16.8433533 47.6741295,16.8762207 48.1177177,16.9095154 
	48.5613213,16.9431763 49.0049248,16.9772339 49.448513,17.0117188 49.8921165,17.0466309 50.3357201,17.0819397 
	50.7793083,17.1177063 51.2229118,17.1539001 51.6665001,17.1905212 52.1101036,17.2276306 52.5536919,17.2651978 
	52.9972954,17.3032532 53.4408989,17.3417664 53.8845024,17.3807678 54.3280907,17.4202881 54.7716942,17.4603271 
	55.2152824,17.500885 55.658886,17.5419617 56.1024895,17.5835876 56.5460777,17.6257629 56.9896812,17.6684875 
	57.4332695,17.7118225 57.876873,17.7557068 58.3204765,17.8002319 58.76408,17.8453369 59.2076683,17.8910828 
	59.6512718,17.9374695 60.0948601,17.9844971 60.5384636,18.0321655 60.9820671,18.0805359 61.4256554,18.1296082 
	61.8692589,18.1793823 62.3128471,18.2298889 62.7564507,18.2811279 63.2000542,18.3330994 63.6436577,18.3858643 
	64.0872421,18.4394226 64.5308456,18.4937744 64.9744339,18.5489807 65.4180374,18.605011 65.8616409,18.6618958 
	66.3052292,18.7196655 66.7488327,18.7783508 67.192421,18.8379822 67.6360245,18.8985291 68.079628,18.9600525 
	68.5232315,19.022583 68.9668198,19.0861206 69.4104233,19.1507263 69.8540115,19.2163696 70.2976151,19.2831421 
	70.7412186,19.3510132 71.1847916,19.4200439 71.6283951,19.4902649 72.0719986,19.561676 72.5156021,19.6343689 
	72.9592056,19.708313 73.4027786,19.7835693 73.8463821,19.8601685 74.2899857,19.9381714 74.7335892,20.0175781 
	75.1771927,20.0984192 75.6207962,20.1807861 76.0643692,20.2647095 76.5079727,20.3501892 76.9515762,20.4373169 
	77.3951797,20.5260925 77.8387833,20.6166077 78.2823563,20.7089233 78.7259598,20.8030396 79.1695633,20.8990479 
	79.6131668,20.9969788 80.0567703,21.0969238 80.5003738,21.1989136 80.9439468,21.3030396 81.3875504,21.4093628 
	81.8311539,21.5179443 82.2747574,21.6288452 82.7183609,21.742157 83.1619339,21.8579407 83.6055374,21.9763184 
	84.0491409,22.0973511 84.4927444,22.2210999 84.936348,22.3477173 85.3799515,22.4772339 85.8235245,22.6098328 
	86.267128,22.7455444 86.7107315,22.8845215 87.154335,23.026886 87.5979385,23.1727295 88.0415115,23.3222046 
	88.4851151,23.4754639 88.9287186,23.6325989 89.3723221,23.7938232 89.8159256,23.9592285 90.2595291,24.1290283 
	90.7031021,24.3034058 91.1467056,24.4825134 91.5903091,24.6665344 92.0339127,24.8557129 92.4775162,25.0502319 
	92.9210892,25.2503357 93.3646927,25.4562683 93.8082962,25.6682739 94.2518997,25.8866272 94.6955032,26.1116028 
	95.1391068,26.3435059 95.5826797,26.5827026 96.0262833,26.8294678 96.4698868,27.084198 96.9134903,27.3472595 
	97.3570938,27.6191101 97.8006668,27.9001465 98.2442703,28.1908264 98.6878738,28.4916687 99.1314774,28.8031921 
	99.5750809,29.1259766 100.0186844,29.4606628 100.4622574,29.8078308 100.9058609,30.1682434 101.3494644,30.5426025 
	101.7930679,30.9317627 102.2366714,31.3365784 102.6802444,31.7579651 103.123848,32.196991 103.5674515,32.6547241 
	104.011055,33.1323242 104.4546585,33.6311035 104.898262,34.1524353 105.341835,34.6978455 105.7854385,35.2690125 
	106.2290421,35.8676758 106.6726456,36.4957886 107.1162491,37.1555176 107.5598221,37.8491516 108.0034256,38.5793152 
	108.4470291,39.3487549 108.8906326,40.1605225 109.3342361,41.0180664 109.7778397,41.9250488 110.2214127,42.8855896 
	110.6650162,43.9041748 111.1086197,44.9858093 111.5522232,46.1359253 111.9958267,47.3606262 112.4393997,48.6665344 
	112.8830032,50.0610046 113.3266068,51.552063 113.7702103,53.1484985 114.2138138,54.8598633 114.6574173,56.6964417 
	115.1009903,58.6692505 115.5445938,60.7897034 115.9881973,63.0695496 116.4318008,65.5202026 116.8754044,68.1520996 
	117.3189774,70.9733887 117.7625809,73.9884338 118.2061844,77.1951294 118.6497879,80.5816956 119.0933914,84.1222534 
	119.5369949,87.7715149 119.9805679,91.4588318 120.4241714,95.0831604 120.867775,98.5105286 121.3113785,101.57724 
	121.754982,104.1019897 122.198555,105.9077454 122.6421585,106.8510437 123.085762,106.8510437 123.5293655,105.9077454 
	123.9729691,104.1019897 124.4165726,101.57724 124.8601456,98.5105286 125.3037491,95.0831604 125.7473526,91.4588318 
	126.1909561,87.7715149 126.6345596,84.1222534 127.0781326,80.5816956 127.5217361,77.1951294 127.9653397,73.9884338 
	128.4089508,70.9733887 128.8525543,68.1520996 129.2961578,65.5202026 129.7397308,63.0695496 130.1833344,60.7897034 
	130.6269379,58.6692505 131.0705414,56.6964417 131.5141449,54.8598633 131.9577179,53.1484985 132.4013214,51.552063 
	132.8449249,50.0610046 133.2885284,48.6665344 133.732132,47.3606262 134.1757355,46.1359253 134.6193085,44.9858093 
	135.062912,43.9041748 135.5065155,42.8855896 135.950119,41.9250488 136.3937225,41.0180664 136.8372955,40.1605225 
	137.280899,39.3487549 137.7245026,38.5793152 138.1681061,37.8491516 138.6117096,37.1555176 139.0553131,36.4957886 
	139.4988861,35.8676758 139.9424896,35.2690125 140.3860931,34.6978455 140.8296967,34.1524353 141.2733002,33.6311035 
	141.7168732,33.1323242 142.1604767,32.6547241 142.6040802,32.196991 143.0476837,31.7579651 143.4912872,31.3365784 
	143.9348907,30.9317627 144.3784637,30.5426025 144.8220673,30.1682434 145.2656708,29.8078308 145.7092743,29.4606628 
	146.1528778,29.1259766 146.5964508,28.8031921 147.0400543,28.4916687 147.4836578,28.1908264 147.9272614,27.9001465 
	148.3708649,27.6191101 148.8144684,27.3472595 149.2580414,27.084198 149.7016449,26.8294678 150.1452484,26.5827026 
	150.5888519,26.3435059 151.0324554,26.1116028 151.4760284,25.8866272 151.919632,25.6682739 152.3632355,25.4562683 
	152.806839,25.2503357 153.2504425,25.0502319 153.694046,24.8557129 154.137619,24.6665344 154.5812225,24.4825134 
	155.024826,24.3034058 155.4684296,24.1290283 155.9120331,23.9592285 156.3556061,23.7938232 156.7992096,23.6325989 
	157.2428131,23.4754639 157.6864166,23.3222046 158.1300201,23.1727295 158.5736237,23.026886 159.0171967,22.8845215 
	159.4608002,22.7455444 159.9044037,22.6098328 160.3480072,22.4772339 160.7916107,22.3477173 161.2351837,22.2210999 
	161.6787872,22.0973511 162.1223907,21.9763184 162.5659943,21.8579407 163.0095673,21.742157 163.4532013,21.6288452 
	163.8967743,21.5179443 164.3403778,21.4093628 164.7839813,21.3030396 165.2275848,21.1989136 165.6711578,21.0969238 
	166.1147614,20.9969788 166.5583649,20.8990479 167.0019684,20.8030396 167.4455719,20.7089233 167.8891449,20.6166077 
	168.3327484,20.5260925 168.7763519,20.4373169 169.2199554,20.3501892 169.663559,20.2647095 170.1071625,20.1807861 
	170.5507355,20.0984192 170.994339,20.0175781 171.4379425,19.9381714 171.881546,19.8601685 172.3251495,19.7835693 
	172.7687225,19.708313 173.212326,19.6343689 173.6559296,19.561676 174.0995331,19.4902649 174.5431366,19.4200439 
	174.9867401,19.3510132 175.4303131,19.2831421 175.8739166,19.2163696 176.3175201,19.1507263 176.7611237,19.0861206 
	177.2047272,19.022583 177.6483307,18.9600525 178.0919342,18.8985291 178.5355072,18.8379822 178.9791107,18.7783508 
	179.4227142,18.7196655 179.8663177,18.6618958 180.3098907,18.605011 180.7534943,18.5489807 181.1970978,18.4937744 
	181.6407013,18.4394226 182.0843048,18.3858643 182.5279083,18.3330994 182.9715118,18.2811279 183.4150848,18.2298889 
	183.8586884,18.1793823 184.3022919,18.1296082 184.7458954,18.0805359 185.1894684,18.0321655 185.6330719,17.9844971 
	186.0766754,17.9374695 186.5202789,17.8910828 186.9638824,17.8453369 187.407486,17.8002319 187.8510895,17.7557068 
	188.2946625,17.7118225 188.738266,17.6684875 189.1818695,17.6257629 189.625473,17.5835876 190.069046,17.5419617 
	190.5126495,17.500885 190.9562531,17.4603271 191.3998566,17.4202881 191.8434296,17.3807678 192.2870636,17.3417664 
	192.7306671,17.3032532 193.1742401,17.2651978 193.6178436,17.2276306 194.0614471,17.1905212 194.5050507,17.1539001 
	194.9486237,17.1177063 195.3922272,17.0819397 195.8358307,17.0466309 196.2794342,17.0117188 196.7230072,16.9772339 
	197.1666412,16.9431763 197.6102448,16.9095154 198.0538177,16.8762207 198.4974213,16.8433533 198.9410248,16.8108521 
	199.3846283,16.778717 199.8282013,16.7469482 200.2718048,16.7155457 200.7154083,16.6845093 201.1590118,16.6538086 
	201.6025848,16.6234741 202.0462189,16.5934753 202.4898224,16.5637817 202.9333954,16.5344238 203.3769989,16.5054016 
	203.8206024,16.4766846 204.2642059,16.4483032 204.7077789,16.4201965 205.1513824,16.3924255 205.594986,16.3649292 
	206.0385895,16.3377075 206.482193,16.310791 206.9257965,16.2841797 207.3694,16.2578125 207.812973,16.2317505 
	208.2565765,16.2059326 208.7001801,16.1803894 209.1437836,16.1550903 209.5873566,16.1300659 210.0309601,16.1053162 
	210.4745636,16.08078 210.9181671,16.0565186 211.3617706,16.0324707 211.8053436,16.0086975 212.2489471,15.9851379 
	212.6925507,15.961792 213.1361542,15.9386902 213.5797577,15.9158325 214.0233612,15.8931885 214.4669342,15.8707581 
	214.9105377,15.8485413 215.3541412,15.8265381 215.7977448,15.804718 216.2413177,15.7831421 216.6849213,15.7617493 
	217.1285553,15.7405701 217.5721283,15.719574 218.0157318,15.6987915 218.4593353,15.6781921 218.9029388,15.6577759 
	219.3465118,15.6375732 219.7901154,15.6175232 220.2337189,15.5976563 220.6773224,15.5779724 221.1208954,15.5585022 
	221.5644989,15.5391541 222.0081329,15.5200195 222.4517059,15.5010376 222.8953094,15.4822083 223.338913,15.463562 
	223.7825165,15.4450684 224.2260895,15.4267578 224.669693,15.4085999 225.1132965,15.3905945 225.5569,15.3727417 
	226.000473,15.3550415 226.4440765,15.3374939 226.8877106,15.3200684 227.3312836,15.3028259 227.7748871,15.2857361 
	228.2184906,15.2687683 228.6620941,15.2519531 229.1056671,15.23526 229.5492706,15.2187195 229.9928741,15.202301 
	230.4364777,15.1860352 230.8800507,15.1699219 231.3236847,15.1539001 231.7672882,15.138031 232.2108612,15.1222839 
	232.6544647,15.1066589 233.0980682,15.091156 233.5416718,15.0758057 "/>
</svg>
