<?xml version="1.0" encoding="utf-8"?>
<!-- Generator: Adobe Illustrator 19.0.0, SVG Export Plug-In . SVG Version: 6.00 Build 0)  -->
<svg version="1.1" id="Layer_1" xmlns="http://www.w3.org/2000/svg" xmlns:xlink="http://www.w3.org/1999/xlink" x="0px" y="0px"
	 viewBox="0 0 112 87" style="enable-background:new 0 0 112 87;" xml:space="preserve">
<style type="text/css">
	.st0{fill:none;stroke:#000000;stroke-miterlimit:10;}
	.st1{fill:#CECBE6;}
	.st2{fill:none;stroke:#797CBB;stroke-miterlimit:10;}
	.st3{fill:#010101;}
</style>
<line id="XMLID_10_" class="st0" x1="5.102005" y1="14.7999878" x2="5.102005" y2="83.1666641"/>
<line id="XMLID_9_" class="st0" x1="5.102005" y1="83.1666641" x2="39.2853203" y2="83.1666641"/>
<line id="XMLID_8_" class="st0" x1="39.2853203" y1="83.1666641" x2="39.2853203" y2="14.7999878"/>
<line id="XMLID_7_" class="st0" x1="73.4686661" y1="14.7999878" x2="73.4686661" y2="83.1666641"/>
<line id="XMLID_6_" class="st0" x1="73.4686661" y1="83.1666641" x2="107.6520157" y2="83.1666641"/>
<line id="XMLID_5_" class="st0" x1="107.6520157" y1="83.1666641" x2="107.6520157" y2="14.7999878"/>
<circle id="XMLID_4_" class="st1" cx="22.1936626" cy="48.9833145" r="1.8990595"/>
<circle id="XMLID_1_" class="st2" cx="22.1936626" cy="48.9833145" r="2.2788713"/>
<g id="XMLID_2_">
	<g id="XMLID_3_">
		<path id="XMLID_12_" class="st3" d="M24.5483398,2.3349609L22.7963867,7.5
			c0.3237305-0.0585938,0.6054688-0.1660156,0.8447266-0.3251953c0.2397461-0.1591797,0.4921875-0.4296875,0.7597656-0.8095703
			c0.2666016-0.3789063,0.6113281-1.0644531,1.0332031-2.0532227c0.3525391-0.8173828,0.6728516-1.3789063,0.9619141-1.684082
			c0.2890625-0.3041992,0.6523438-0.4555664,1.0908203-0.4555664c0.1494141,0,0.3613281,0.0322266,0.6347656,0.0986328
			l-0.0644531,0.1914063c-0.1699219,0-0.3066406,0.0297852-0.4091797,0.0878906
			c-0.1425781,0.0854492-0.2851563,0.2324219-0.4277344,0.4423828c-0.1425781,0.2089844-0.3388672,0.5947266-0.5878906,1.1567383
			c-0.3984375,0.9072266-0.7509766,1.5649414-1.0595703,1.9716797c-0.2285156,0.2988281-0.5146484,0.5810547-0.8613281,0.8466797
			s-0.6796875,0.4658203-0.9990234,0.5986328c-0.3198242,0.1347656-0.6616211,0.2207031-1.0263672,0.2587891l-0.8164063,2.4082031
			h-0.6455078l0.8164063-2.4082031c-0.5136719-0.0654297-0.9213867-0.2480469-1.2216797-0.5488281
			c-0.3007813-0.3007813-0.4707031-0.6816406-0.5117188-1.1430664c-0.0322266-0.3496094,0.0634766-1.0146484,0.2861328-1.9951172
			c0.1328125-0.5898438,0.1992188-0.9848633,0.2011719-1.1875C20.7954102,2.75,20.753418,2.6123047,20.6679688,2.5385742
			c-0.0541992-0.0507813-0.1733398-0.0761719-0.3588867-0.0761719l0.0644531-0.1914063
			c0.3540039-0.0664063,0.5927734-0.0986328,0.7148438-0.0986328c0.2324219,0,0.4248047,0.0644531,0.5791016,0.1938477
			c0.1533203,0.1303711,0.2338867,0.3276367,0.2431641,0.5913086c0.0092773,0.2631836-0.0673828,0.7172852-0.2314453,1.3613281
			c-0.2451172,0.9570313-0.3662109,1.6303711-0.3613281,2.0180664s0.0722656,0.6621094,0.203125,0.8232422
			C21.6523438,7.3203125,21.8618164,7.4345703,22.1508789,7.5l1.7519531-5.1650391H24.5483398z"/>
	</g>
</g>
<g id="XMLID_11_">
</g>
<g id="XMLID_14_">
</g>
<g id="XMLID_15_">
</g>
<g id="XMLID_16_">
</g>
<g id="XMLID_17_">
</g>
<g id="XMLID_18_">
</g>
</svg>
