<?xml version="1.0" encoding="utf-8"?>
<!-- Generator: Adobe Illustrator 19.0.0, SVG Export Plug-In . SVG Version: 6.00 Build 0)  -->
<svg version="1.1" id="Layer_1" xmlns="http://www.w3.org/2000/svg" xmlns:xlink="http://www.w3.org/1999/xlink" x="0px" y="0px"
	 viewBox="0 0 146.8333282 114.3333359" style="enable-background:new 0 0 146.8333282 114.3333359;" xml:space="preserve">
<style type="text/css">
	.st0{fill-rule:evenodd;clip-rule:evenodd;}
	.st1{fill:none;stroke:#000000;stroke-miterlimit:10;}
	.st2{fill:none;stroke:#0071AA;stroke-miterlimit:10;}
	.st3{fill:#010101;}
</style>
<polygon class="st0" points="129.904953,98.2713394 123.5568924,96.3321304 123.5568924,97.5667572 2.9382195,97.5667572 
	2.9382195,98.8893051 123.5568924,98.8893051 123.5568924,100.1230621 129.904953,98.2713394 "/>
<polygon class="st0" points="14.2702351,1.9224285 12.3308077,8.2707548 13.6533585,8.2707548 13.6245604,112.4620667 
	14.8591862,112.4620667 14.8882036,8.2707548 16.1219559,8.2707548 14.2702351,1.9224285 "/>
<path class="st1" d="M28.4093094,96.3321304c0-7.7645264,2.3390675-15.2512054,6.6824608-22.2919235
	c5.2225113-8.4657059,16.8490257-8.3167725,27.2846603-15.1996002c6.7118721-4.4272079,14.0680122-12.4808578,19.3483467-20.0091858
	c6.5447998-9.3311443,15.0399551-14.2380543,22.7088699-14.8935604"/>
<line class="st2" x1="14.2264919" y1="44.0735588" x2="97.8930817" y2="44.0735588"/>
<line class="st2" x1="14.2264919" y1="51.7209244" x2="97.8930817" y2="51.7209244"/>
<line class="st2" x1="70.7987823" y1="97.5667572" x2="70.7987823" y2="33.0519905"/>
<line class="st2" x1="77.5723572" y1="97.5667572" x2="77.5723572" y2="33.0519905"/>
<g>
	<g>
		<path class="st3" d="M135.8946991,94.3981094c0.2143555,0.2192383,0.3764648,0.4384766,0.4858398,0.6577148
			c0.0786133,0.1518555,0.2075195,0.550293,0.387207,1.1958008l0.5776367-0.8349609
			c0.1533203-0.2026367,0.3393555-0.3955078,0.5581055-0.5791016s0.4111328-0.309082,0.5776367-0.3764648
			c0.1049805-0.0419922,0.2207031-0.0629883,0.3481445-0.0629883c0.1879883,0,0.3378906,0.0483398,0.4492188,0.1455078
			c0.1118164,0.0966797,0.1674805,0.2148438,0.1674805,0.3540039c0,0.1606445-0.0327148,0.2700195-0.0981445,0.3291016
			c-0.1225586,0.1054688-0.2626953,0.1582031-0.4204102,0.1582031c-0.0917969,0-0.1904297-0.019043-0.2954102-0.0571289
			c-0.2055664-0.0673828-0.34375-0.1010742-0.4135742-0.1010742c-0.1049805,0-0.2294922,0.059082-0.3740234,0.1772461
			c-0.2714844,0.2192383-0.5952148,0.6430664-0.9716797,1.2714844l0.5385742,2.1762695
			c0.0830078,0.3330078,0.152832,0.5322266,0.2099609,0.5976563c0.0566406,0.0654297,0.1137695,0.0981445,0.1704102,0.0981445
			c0.0922852,0,0.1992188-0.0483398,0.3217773-0.1455078c0.2407227-0.1938477,0.4462891-0.4467773,0.6171875-0.7592773
			l0.2294922,0.1137695c-0.2753906,0.4980469-0.6254883,0.9111328-1.050293,1.2402344
			c-0.2407227,0.1855469-0.4443359,0.2783203-0.6103516,0.2783203c-0.2451172,0-0.4399414-0.1328125-0.5844727-0.3984375
			c-0.0917969-0.1645508-0.2822266-0.8730469-0.5708008-2.1259766c-0.6831055,1.1430664-1.2299805,1.8789063-1.6411133,2.2080078
			c-0.2670898,0.2109375-0.5253906,0.3164063-0.7749023,0.3164063c-0.1748047,0-0.3349609-0.0610352-0.4790039-0.1835938
			c-0.1049805-0.0927734-0.1577148-0.2172852-0.1577148-0.3730469c0-0.1391602,0.0483398-0.2553711,0.1445313-0.3481445
			s0.2143555-0.1391602,0.3544922-0.1391602s0.2885742,0.0673828,0.4462891,0.2026367
			c0.1137695,0.097168,0.2011719,0.1455078,0.2626953,0.1455078c0.0522461,0,0.1201172-0.0336914,0.2036133-0.1015625
			c0.2055664-0.1601563,0.4853516-0.5058594,0.8398438-1.0371094c0.3544922-0.5317383,0.5864258-0.9155273,0.6962891-1.1513672
			c-0.2714844-1.0249023-0.4179688-1.5668945-0.4399414-1.6259766c-0.1005859-0.2744141-0.2319336-0.4682617-0.394043-0.5820313
			s-0.4003906-0.1708984-0.715332-0.1708984c-0.1010742,0-0.2167969,0.0043945-0.3481445,0.0126953v-0.2275391
			L135.8946991,94.3981094z"/>
	</g>
</g>
<g>
	<g>
		<path class="st3" d="M21.6647129,1.6090494c0.1450195,0.2485352,0.2451172,0.4809572,0.3007813,0.6972657
			c0.0551758,0.2163086,0.1108398,0.6411133,0.1660156,1.2749023l0.28125,3.1606443
			c0.2558594-0.3085938,0.6269531-0.796875,1.112793-1.4648438c0.234375-0.3251953,0.5244141-0.7685547,0.8696289-1.3295896
			c0.2084961-0.3427734,0.3364258-0.5825195,0.3837891-0.7197266c0.0253906-0.0683594,0.0380859-0.1386719,0.0380859-0.2119141
			c0-0.046875-0.0151367-0.0854492-0.0449219-0.1157227c-0.0297852-0.0297852-0.1074219-0.0649414-0.2333984-0.105957
			c-0.1254883-0.0405273-0.2299805-0.1152344-0.3129883-0.2246094s-0.125-0.234375-0.125-0.3759766
			c0-0.175293,0.0512695-0.3168947,0.1538086-0.4238282c0.1020508-0.1069336,0.2299805-0.1606445,0.3833008-0.1606445
			c0.1879883,0,0.3476563,0.078125,0.4799805,0.234375c0.1318359,0.1567384,0.1982422,0.3715822,0.1982422,0.6459962
			c0,0.3378906-0.1152344,0.7246094-0.3457031,1.1591797c-0.2299805,0.4345701-0.6733398,1.1015623-1.3295898,2.0009763
			c-0.6567383,0.8994141-1.4516602,1.8798828-2.3852539,2.941895c-0.6435547,0.7324219-1.1210938,1.1938477-1.4321289,1.3842773
			s-0.5776367,0.2861328-0.7993164,0.2861328c-0.1323242,0-0.2485352-0.050293-0.3486328-0.1508789
			c-0.1000977-0.1010742-0.1503906-0.2177734-0.1503906-0.3500977c0-0.1669922,0.0693359-0.3193359,0.2080078-0.4560547
			c0.1386719-0.137207,0.2890625-0.2055664,0.4506836-0.2055664c0.0854492,0,0.1557617,0.019043,0.2109375,0.0576172
			c0.0341797,0.0214844,0.0717773,0.0825195,0.1118164,0.1831055c0.0410156,0.1005859,0.078125,0.1679688,0.1123047,0.2021484
			c0.0209961,0.0214844,0.046875,0.0322266,0.0766602,0.0322266c0.0253906,0,0.0703125-0.0214844,0.1342773-0.0639648
			c0.234375-0.1459961,0.5073242-0.3769531,0.8183594-0.6938477c0.4091797-0.4199219,0.7119141-0.762207,0.9082031-1.0278325
			L21.197916,3.7159832c-0.0595703-0.6723633-0.1489258-1.0810547-0.2685547-1.2265625
			c-0.1191406-0.1459961-0.3198242-0.21875-0.6010742-0.21875c-0.0893555,0-0.2490234,0.0131836-0.4794922,0.0385742
			l-0.0576172-0.237793L21.6647129,1.6090494z"/>
	</g>
</g>
<g>
	<g>
		<path class="st3" d="M71.8248672,107.9977188c-0.2299805,0.2387695-0.4545898,0.4101563-0.6743164,0.5141602
			s-0.4570313,0.1557617-0.7109375,0.1557617c-0.5151367,0-0.9648438-0.2138672-1.3491211-0.6416016
			c-0.3847656-0.4277344-0.5771484-0.9775391-0.5771484-1.6494141c0-0.6713867,0.2128906-1.2861328,0.6386719-1.84375
			c0.4257813-0.5571289,0.9736328-0.8359375,1.6430664-0.8359375c0.4155273,0,0.7587891,0.1313477,1.0297852,0.3935547v-0.8642578
			c0-0.5351563-0.0126953-0.8642578-0.0385742-0.9868164s-0.065918-0.2060547-0.1210938-0.2504883
			c-0.0546875-0.0444336-0.1235352-0.0664063-0.2060547-0.0664063c-0.0888672,0-0.2075195,0.0273438-0.3549805,0.081543
			l-0.0668945-0.1787109l1.4057617-0.5727539h0.2319336v5.4155273c0,0.5488281,0.0126953,0.8837891,0.0385742,1.0048828
			s0.0668945,0.2055664,0.1235352,0.253418c0.0566406,0.0473633,0.1225586,0.0712891,0.1982422,0.0712891
			c0.0927734,0,0.2163086-0.0288086,0.3706055-0.0869141l0.0566406,0.1791992l-1.4003906,0.5776367h-0.2373047V107.9977188z
			 M71.8248672,107.6398087v-2.4135742c-0.0205078-0.2319336-0.0820313-0.4433594-0.1850586-0.6342773
			s-0.2397461-0.3349609-0.409668-0.4321289s-0.3354492-0.1459961-0.4970703-0.1459961
			c-0.3022461,0-0.5717773,0.1347656-0.8085938,0.4042969c-0.3125,0.3544922-0.46875,0.8725586-0.46875,1.5546875
			c0,0.6884766,0.1513672,1.2163086,0.4536133,1.5825195c0.3017578,0.3666992,0.6386719,0.5498047,1.0092773,0.5498047
			C71.2311172,108.1051407,71.5333633,107.9503555,71.8248672,107.6398087z"/>
	</g>
	<g>
		<path class="st3" d="M75.2623672,103.8961563c0.168457,0.1777344,0.2954102,0.3549805,0.3813477,0.5322266
			c0.0615234,0.1225586,0.1630859,0.4448242,0.3037109,0.9663086l0.453125-0.6748047
			c0.1201172-0.1635742,0.2661133-0.3198242,0.4379883-0.4682617c0.1713867-0.1479492,0.3227539-0.2495117,0.453125-0.3041992
			c0.0825195-0.0341797,0.1733398-0.0512695,0.2729492-0.0512695c0.1474609,0,0.2651367,0.0395508,0.3530273,0.1176758
			c0.0874023,0.0786133,0.1313477,0.1738281,0.1313477,0.2866211c0,0.1293945-0.0258789,0.2182617-0.0776367,0.265625
			c-0.0961914,0.0854492-0.2055664,0.1279297-0.3295898,0.1279297c-0.0717773,0-0.1494141-0.0151367-0.2314453-0.0458984
			c-0.1616211-0.0546875-0.2695313-0.0820313-0.324707-0.0820313c-0.0825195,0-0.1801758,0.0478516-0.293457,0.1435547
			c-0.2128906,0.1772461-0.4667969,0.5200195-0.762207,1.027832l0.4223633,1.7592773
			c0.0649414,0.269043,0.1201172,0.4301758,0.1645508,0.4833984c0.0449219,0.0527344,0.0893555,0.0791016,0.1342773,0.0791016
			c0.0717773,0,0.15625-0.0390625,0.2519531-0.1176758c0.1889648-0.1567383,0.3505859-0.3613281,0.484375-0.6137695
			l0.1801758,0.0922852c-0.2163086,0.4023438-0.4912109,0.7363281-0.8242188,1.0024414
			c-0.1884766,0.1499023-0.3481445,0.2246094-0.4785156,0.2246094c-0.1923828,0-0.3452148-0.1074219-0.4584961-0.3217773
			c-0.0722656-0.1333008-0.2216797-0.7060547-0.4482422-1.71875c-0.5356445,0.9243164-0.9648438,1.519043-1.2875977,1.7851563
			c-0.2094727,0.1704102-0.4121094,0.2553711-0.6074219,0.2553711c-0.137207,0-0.2626953-0.0493164-0.3759766-0.1479492
			c-0.0825195-0.0751953-0.1235352-0.1757813-0.1235352-0.3017578c0-0.112793,0.0375977-0.206543,0.1132813-0.28125
			c0.0751953-0.0751953,0.1679688-0.112793,0.277832-0.112793s0.2265625,0.0546875,0.3500977,0.1635742
			c0.0893555,0.0786133,0.1582031,0.1176758,0.2060547,0.1176758c0.0415039,0,0.0947266-0.0273438,0.159668-0.081543
			c0.1616211-0.1298828,0.3813477-0.4091797,0.6591797-0.8388672c0.2783203-0.4296875,0.4604492-0.7397461,0.5458984-0.9306641
			c-0.2128906-0.8286133-0.3276367-1.2666016-0.3447266-1.3144531c-0.0791016-0.2216797-0.1821289-0.378418-0.309082-0.4702148
			c-0.1269531-0.0922852-0.3144531-0.1381836-0.5615234-0.1381836c-0.0791016,0-0.1699219,0.003418-0.2729492,0.0102539v-0.184082
			L75.2623672,103.8961563z"/>
	</g>
</g>
<g>
	<g>
		<path class="st3" d="M5.1114907,48.8917656c-0.2299805,0.2368164-0.4550781,0.4072266-0.6743164,0.5102539
			c-0.2202148,0.1030273-0.457031,0.1547852-0.7109373,0.1547852c-0.5151367,0-0.9648438-0.2124023-1.3491211-0.637207
			c-0.3847657-0.4248047-0.5771486-0.9702148-0.5771486-1.637207s0.2128907-1.2768555,0.638672-1.8305664
			c0.4257813-0.5532227,0.9736328-0.8300781,1.6430662-0.8300781c0.4155273,0,0.7587891,0.1303711,1.0297852,0.3911133v-0.8579102
			c0-0.5317383-0.0126953-0.8583984-0.0385742-0.9799805c-0.0258789-0.1220703-0.065918-0.2045898-0.1210938-0.2490234
			c-0.0546875-0.0439453-0.1235352-0.065918-0.2060547-0.065918c-0.0893555,0-0.2075195,0.0273438-0.3549805,0.081543
			l-0.0668945-0.1777344l1.4057617-0.5688477h0.2319336v5.3769531c0,0.5449219,0.0126953,0.8774414,0.0385742,0.9975586
			c0.0253906,0.1201172,0.0668945,0.2036133,0.1235352,0.2509766c0.0566406,0.0478516,0.1225586,0.0712891,0.1982422,0.0712891
			c0.0927734,0,0.2163086-0.0288086,0.3706055-0.0864258l0.0566406,0.1777344l-1.4008789,0.5737305H5.1114907V48.8917656z
			 M5.1114907,48.5362968v-2.3964844c-0.0205078-0.2299805-0.0820313-0.4399414-0.1850586-0.6293945
			s-0.2397461-0.3325195-0.409668-0.4291992c-0.1699219-0.0961914-0.3354492-0.1445313-0.4970703-0.1445313
			c-0.3022459,0-0.5717771,0.1337891-0.8085935,0.4008789c-0.3125,0.3520508-0.46875,0.8666992-0.46875,1.543457
			c0,0.684082,0.1513672,1.2075195,0.4536133,1.5717773c0.3017578,0.3637695,0.6381836,0.5454102,1.0092771,0.5454102
			C4.5177407,48.9982109,4.8199868,48.8444023,5.1114907,48.5362968z"/>
	</g>
	<g>
		<path class="st3" d="M8.4054365,44.8199883c0.1166992,0.1962891,0.1972656,0.3798828,0.2421875,0.5507813
			c0.0444336,0.1708984,0.0893555,0.5068359,0.1337891,1.0078125l0.2265625,2.4980469
			c0.2060547-0.2436523,0.5048828-0.6298828,0.8959961-1.1577148c0.1889648-0.2573242,0.4223633-0.6074219,0.7006836-1.0507813
			c0.1679688-0.2709961,0.2709961-0.4604492,0.309082-0.5688477c0.0205078-0.0541992,0.0307617-0.1098633,0.0307617-0.1674805
			c0-0.0371094-0.012207-0.0678711-0.0361328-0.0913086c-0.0239258-0.0239258-0.0869141-0.0517578-0.1879883-0.0839844
			s-0.1855469-0.0913086-0.2524414-0.1777344c-0.0668945-0.0859375-0.1000977-0.1850586-0.1000977-0.296875
			c0-0.1386719,0.0410156-0.2504883,0.1235352-0.3349609s0.1850586-0.1269531,0.309082-0.1269531
			c0.1508789,0,0.2797852,0.0615234,0.3862305,0.1850586s0.159668,0.2939453,0.159668,0.5102539
			c0,0.2675781-0.0927734,0.5732422-0.2783203,0.9165039c-0.1855469,0.34375-0.5424805,0.8706055-1.0712891,1.581543
			s-1.1689453,1.4858398-1.9208984,2.3251953c-0.5185552,0.5791016-0.9028325,0.9438477-1.1538091,1.0942383
			c-0.2504883,0.1508789-0.4648438,0.2260742-0.6435547,0.2260742c-0.1064453,0-0.2001953-0.0400391-0.2807617-0.1191406
			c-0.0805664-0.0795898-0.1210938-0.171875-0.1210938-0.2768555c0-0.1318359,0.0561523-0.2524414,0.1674805-0.3603516
			c0.1118164-0.1083984,0.2324219-0.1625977,0.3632813-0.1625977c0.0683594,0,0.125,0.0151367,0.1699219,0.0454102
			c0.0273438,0.0170898,0.0576172,0.0654297,0.0898438,0.1450195c0.0327148,0.0795898,0.0625,0.1328125,0.090332,0.159668
			c0.0170898,0.0170898,0.0375977,0.0253906,0.0615234,0.0253906c0.0209961,0,0.0566406-0.0166016,0.1083984-0.0507813
			c0.1889648-0.1147461,0.4086914-0.2978516,0.6591797-0.5483398c0.3295898-0.331543,0.5732427-0.6025391,0.7314458-0.8120117
			L8.02946,46.4850273c-0.047852-0.53125-0.1201177-0.8544922-0.2163091-0.9697266
			c-0.0961914-0.1147461-0.2573242-0.1723633-0.4838867-0.1723633c-0.0722656,0-0.2011719,0.0102539-0.3862305,0.0302734
			L6.896647,45.1852226L8.4054365,44.8199883z"/>
	</g>
</g>
<g>
	<g>
		<path class="st3" d="M134.1754608,32.1676445v0.1875c-0.5151367-0.2573242-0.9453125-0.5581074-1.2900391-0.9038105
			c-0.4912109-0.4907227-0.8701172-1.0693359-1.1362305-1.7363281c-0.2666016-0.6665039-0.3994141-1.3588867-0.3994141-2.0761719
			c0-1.0493164,0.2607422-2.0063477,0.7832031-2.8710938c0.5219727-0.8652344,1.203125-1.4833984,2.0424805-1.855957v0.2133789
			c-0.4194336,0.2299805-0.7646484,0.5449219-1.0341797,0.9443359s-0.4707031,0.9052734-0.6040039,1.5180664
			c-0.1328125,0.612793-0.199707,1.2524414-0.199707,1.9189453c0,0.7246094,0.0566406,1.3828125,0.1689453,1.9750977
			c0.0888672,0.4672852,0.1962891,0.8417969,0.3227539,1.1245117c0.1259766,0.2827148,0.2958984,0.5541992,0.5092773,0.8149414
			S133.8307343,31.9303379,134.1754608,32.1676445z"/>
		<path class="st3" d="M140.97966,23.1251621v-0.2133789c0.519043,0.2539063,0.9506836,0.5532227,1.2954102,0.8989258
			c0.487793,0.4941406,0.8652344,1.0737305,1.1313477,1.7387695s0.3994141,1.3579102,0.3994141,2.0791016
			c0,1.0493164-0.2602539,2.0063477-0.7807617,2.8710938s-1.2021484,1.4833984-2.0454102,1.8554707v-0.1875
			c0.4199219-0.2338886,0.765625-0.5493183,1.0366211-0.9472675c0.2714844-0.3974609,0.4726563-0.9033203,0.6044922-1.5180664
			c0.1313477-0.6142578,0.1967773-1.2548828,0.1967773-1.9213867c0-0.7211914-0.0561523-1.3793945-0.1689453-1.9750977
			c-0.0849609-0.4672852-0.1918945-0.8413086-0.3198242-1.1220703s-0.2978516-0.5517578-0.5092773-0.8125
			C141.6075897,23.611002,141.3278046,23.3619785,140.97966,23.1251621z"/>
	</g>
	<g>
		<path class="st3" d="M110.7848282,25.5367832c0.1669922,0.1757813,0.293457,0.3520508,0.3789063,0.527832
			c0.0615234,0.1220703,0.1621094,0.4418945,0.3022461,0.9594727l0.4501953-0.6699219
			c0.1196289-0.1625977,0.2646484-0.3173828,0.4350586-0.4648438c0.1708984-0.1469727,0.3208008-0.2475586,0.4506836-0.3017578
			c0.0820313-0.0336914,0.1723633-0.0507813,0.2714844-0.0507813c0.1464844,0,0.2636719,0.0390625,0.3505859,0.1166992
			c0.0869141,0.078125,0.1303711,0.1728516,0.1303711,0.2841797c0,0.1289063-0.0253906,0.2167969-0.0766602,0.2641602
			c-0.0957031,0.0844727-0.2045898,0.1269531-0.3276367,0.1269531c-0.0717773,0-0.1484375-0.0151367-0.2304688-0.0458984
			c-0.1601563-0.0537109-0.2680664-0.0810547-0.3222656-0.0810547c-0.0820313,0-0.1791992,0.0473633-0.2919922,0.1420898
			c-0.2114258,0.1762695-0.4643555,0.5161133-0.7578125,1.0205078l0.4199219,1.746582
			c0.0649414,0.2675781,0.1196289,0.4272461,0.1640625,0.4799805c0.0439453,0.0522461,0.0883789,0.0786133,0.1328125,0.0786133
			c0.0717773,0,0.1552734-0.0390625,0.2509766-0.1166992c0.1875-0.1557617,0.3481445-0.3588867,0.480957-0.609375
			l0.1791992,0.0913086c-0.2148438,0.3994141-0.487793,0.730957-0.8188477,0.9951172
			c-0.1879883,0.1489258-0.3466797,0.2236328-0.4760742,0.2236328c-0.1914063,0-0.3432617-0.1069336-0.4555664-0.3203125
			c-0.0717773-0.1318359-0.2202148-0.7001953-0.4458008-1.7055664c-0.5322266,0.9169922-0.9589844,1.5078125-1.2797852,1.7719727
			c-0.2080078,0.1689453-0.4091797,0.2539063-0.6040039,0.2539063c-0.1362305,0-0.2612305-0.0493164-0.3735352-0.1474609
			c-0.0820313-0.0742188-0.1230469-0.1743164-0.1230469-0.2993164c0-0.1118164,0.0375977-0.2050781,0.112793-0.2792969
			c0.0751953-0.074707,0.1669922-0.1118164,0.2763672-0.1118164s0.2250977,0.0541992,0.3481445,0.1625977
			c0.0888672,0.0776367,0.1567383,0.1166992,0.2045898,0.1166992c0.0410156,0,0.09375-0.0273438,0.1586914-0.081543
			c0.1606445-0.128418,0.3789063-0.4057617,0.6552734-0.8325195c0.2768555-0.4262695,0.4575195-0.734375,0.5429688-0.9238281
			c-0.2119141-0.8227539-0.3261719-1.2573242-0.3432617-1.3051758c-0.0786133-0.2197266-0.1806641-0.3754883-0.3071289-0.4667969
			s-0.3120117-0.137207-0.5581055-0.137207c-0.0786133,0-0.1689453,0.003418-0.2709961,0.0102539v-0.1826172L110.7848282,25.5367832
			z"/>
		<path class="st3" d="M130.3126678,25.8512363l-0.1484375,0.5283203h-0.8549805
			c0.0649414,0.1826172,0.097168,0.3535156,0.097168,0.5126953c0,0.4467773-0.190918,0.8447266-0.5732422,1.1933594
			c-0.3857422,0.3486328-0.9145584,0.5415039-1.5869217,0.5786133c-0.3618164,0.1083984-0.6333008,0.2368164-0.8139648,0.3857422
			c-0.0683594,0.0541992-0.1025391,0.1103516-0.1025391,0.1674805c0,0.0678711,0.0307617,0.1298828,0.0922852,0.1855469
			s0.2167969,0.1123047,0.4658203,0.1699219l0.9931641,0.2285156c0.549324,0.1289063,0.9130936,0.28125,1.0903397,0.4570313
			c0.1743164,0.1791992,0.2612305,0.3857422,0.2612305,0.6196289c0,0.2773438-0.1035156,0.53125-0.3095703,0.7612305
			c-0.206543,0.2304688-0.5087891,0.4106464-0.90625,0.5410175c-0.3979568,0.1298828-0.8369217,0.1953125-1.318367,0.1953125
			c-0.4233398,0-0.809082-0.0498047-1.1572266-0.1499023c-0.3481445-0.0996094-0.597168-0.2343769-0.7470703-0.4033222
			c-0.1503906-0.1694336-0.2255859-0.34375-0.2255859-0.5229492c0-0.1459961,0.0488281-0.2973633,0.1459961-0.4545898
			s0.2192383-0.2871094,0.3662109-0.3886719c0.0922852-0.0639648,0.3530273-0.2163086,0.7832031-0.456543
			c-0.1572266-0.1220703-0.2353516-0.2558594-0.2353516-0.4013672c0-0.1352539,0.0688477-0.2792969,0.2070313-0.4316406
			s0.4311523-0.3198242,0.8779297-0.5024414c-0.3754883-0.0712891-0.6728516-0.2265625-0.8930664-0.4672852
			c-0.2202148-0.2402344-0.3300781-0.5073242-0.3300781-0.8022461c0-0.4804688,0.2124023-0.9101563,0.637207-1.2895508
			c0.4248047-0.3789063,0.9907227-0.5683594,1.6972656-0.5683594c0.255867,0,0.4658279,0.0253906,0.6294022,0.0761719
			c0.1640625,0.0507813,0.3227539,0.1303711,0.4760742,0.2382813H130.3126678z M126.0841446,30.1315098
			c-0.2763672,0.125-0.4858398,0.2861328-0.6274414,0.4824219s-0.2124023,0.3891602-0.2124023,0.5786133
			c0,0.2236328,0.1025391,0.4077148,0.3071289,0.5537109c0.293457,0.2094727,0.7236328,0.314455,1.2905273,0.314455
			c0.487793,0,0.9052734-0.0820332,1.2514725-0.2460957c0.3461914-0.1640625,0.5195313-0.3764648,0.5195313-0.637207
			c0-0.1318359-0.0639648-0.2573242-0.1918945-0.3754883c-0.1279297-0.1186523-0.3764648-0.215332-0.7446365-0.2895508
			C127.4747696,30.4718418,126.9440079,30.3448887,126.0841446,30.1315098z M128.5363007,26.6485996
			c0-0.2709961-0.0761719-0.4838867-0.2280273-0.6396484s-0.3505936-0.2333984-0.596199-0.2333984
			c-0.3857422,0-0.7041016,0.1918945-0.9545898,0.5761719c-0.2509766,0.3842773-0.3764648,0.7841797-0.3764648,1.2006836
			c0,0.2607422,0.0800781,0.4736328,0.2407227,0.6396484c0.1601563,0.1660156,0.3549805,0.2485352,0.5834961,0.2485352
			c0.1806641,0,0.355957-0.0488281,0.5249023-0.1469727s0.3110428-0.2333984,0.4272537-0.40625
			c0.1162109-0.1723633,0.2080078-0.3925781,0.2763672-0.6601563
			C128.502121,26.9601231,128.5363007,26.767252,128.5363007,26.6485996z"/>
		<path class="st3" d="M137.3336639,25.5367832c0.1162109,0.1962891,0.1962891,0.3798828,0.2407227,0.5507813
			s0.0888672,0.5068359,0.1333008,1.0078125l0.2250977,2.4980469c0.2050781-0.2436523,0.5019531-0.6298828,0.8911133-1.1577148
			c0.1875-0.2573242,0.4194336-0.6074219,0.6958008-1.0507813c0.1674805-0.2709961,0.2700195-0.4604492,0.3076172-0.5688477
			c0.0200195-0.0541992,0.0302734-0.1098633,0.0302734-0.1674805c0-0.0371094-0.0117188-0.0678711-0.0356445-0.0913086
			c-0.0239258-0.0239258-0.0864258-0.0517578-0.1870117-0.0839844s-0.184082-0.0913086-0.2504883-0.1777344
			c-0.0668945-0.0859375-0.1000977-0.1850586-0.1000977-0.296875c0-0.1386719,0.0410156-0.2504883,0.1230469-0.3349609
			s0.184082-0.1269531,0.3071289-0.1269531c0.1499023,0,0.2783203,0.0615234,0.3837891,0.1850586
			c0.105957,0.1235352,0.1586914,0.2939453,0.1586914,0.5102539c0,0.2675781-0.0917969,0.5732422-0.2763672,0.9165039
			c-0.184082,0.34375-0.5390625,0.8706055-1.0649414,1.581543c-0.5253906,0.7109375-1.1621094,1.4858398-1.909668,2.3251953
			c-0.5151367,0.5791016-0.8974609,0.9438477-1.1464844,1.0942402c-0.2490234,0.1508789-0.4624023,0.2260742-0.6401367,0.2260742
			c-0.1054688,0-0.1987305-0.0400391-0.2788086-0.1191406c-0.0800781-0.0795898-0.1201172-0.171875-0.1201172-0.2768574
			c0-0.1318359,0.0551758-0.2524414,0.1660156-0.3603516c0.1108398-0.1083984,0.2314453-0.1625977,0.3608398-0.1625977
			c0.0683594,0,0.125,0.0151367,0.1689453,0.0454102c0.0273438,0.0170898,0.0576172,0.0654297,0.0898438,0.1450195
			s0.0620117,0.1328125,0.0893555,0.159668c0.0170898,0.0170898,0.0375977,0.0253906,0.0615234,0.0253906
			c0.0205078,0,0.0566406-0.0166016,0.1074219-0.0507813c0.1879883-0.1147461,0.40625-0.2978516,0.6552734-0.5483398
			c0.3276367-0.331543,0.5703125-0.6025391,0.7270508-0.8120117l-0.2866211-3.2192383
			c-0.0478516-0.53125-0.1196289-0.8544922-0.2148438-0.9697266c-0.0957031-0.1147461-0.2558594-0.1723633-0.4814453-0.1723633
			c-0.0717773,0-0.199707,0.0102539-0.3837891,0.0302734l-0.0463867-0.1879883L137.3336639,25.5367832z"/>
	</g>
	<g>
		<path class="st3" d="M116.3668594,26.2779942h5.3754883v0.4926758h-5.3754883V26.2779942z M116.3668594,28.1715488h5.3754883
			v0.5029297h-5.3754883V28.1715488z"/>
	</g>
</g>
<g>
	<g>
		<path class="st3" d="M135.1988983,19.7809238v0.1875c-0.5166016-0.2573242-0.9472656-0.5581055-1.2924805-0.9038086
			c-0.4921875-0.4907227-0.871582-1.0693359-1.1386719-1.7363281c-0.2666016-0.6665039-0.3999023-1.3588858-0.3999023-2.0761709
			c0-1.0493164,0.2617188-2.0063477,0.784668-2.8710938c0.5229492-0.8652344,1.2050781-1.4833984,2.0463867-1.855957v0.2133789
			c-0.4208984,0.2299805-0.7661133,0.5449219-1.0361328,0.9443359s-0.4716797,0.9052734-0.6049805,1.5180664
			s-0.2001953,1.2524414-0.2001953,1.9189453c0,0.7246094,0.0566406,1.3828115,0.1694336,1.9750967
			c0.0888672,0.4672852,0.1962891,0.8417969,0.3227539,1.1245117s0.296875,0.5541992,0.5102539,0.8149414
			C134.5738983,19.295084,134.8531952,19.5436192,135.1988983,19.7809238z"/>
		<path class="st3" d="M141.3522186,10.7384443v-0.2133789c0.5195313,0.2539063,0.9521484,0.5532227,1.2973633,0.8989258
			c0.4887695,0.4941406,0.8666992,1.0737305,1.1333008,1.7387695s0.3999023,1.3579102,0.3999023,2.0791016
			c0,1.0493155-0.2602539,2.0063467-0.7817383,2.8710928s-1.2045898,1.4833984-2.0488281,1.8554688v-0.1875
			c0.4204102-0.2338867,0.7666016-0.5493164,1.0385742-0.9472656c0.2719727-0.3974609,0.4736328-0.9033203,0.6049805-1.5180664
			c0.1318359-0.6142578,0.1977539-1.2548828,0.1977539-1.9213858c0-0.7211914-0.0566406-1.3793945-0.1694336-1.9750977
			c-0.0854492-0.4672852-0.1923828-0.8413086-0.3203125-1.1220703c-0.128418-0.2807617-0.2983398-0.5517578-0.5102539-0.8125
			C141.9811249,11.2242842,141.7008514,10.9752607,141.3522186,10.7384443z"/>
	</g>
	<g>
		<path class="st3" d="M110.6442032,13.1500654c0.1162109,0.1962891,0.1967773,0.3798828,0.2412109,0.5507813
			s0.0888672,0.5068359,0.1333008,1.0078125l0.2255859,2.4980459c0.2050781-0.2436523,0.5024414-0.6298828,0.8925781-1.1577148
			c0.1879883-0.2573233,0.4204102-0.6074209,0.6972656-1.0507803c0.1674805-0.2709961,0.2700195-0.4604492,0.3076172-0.5688477
			c0.0205078-0.0541992,0.0307617-0.1098633,0.0307617-0.1674805c0-0.0371094-0.012207-0.0678711-0.0356445-0.0913086
			c-0.0244141-0.0239258-0.0864258-0.0517578-0.1875-0.0839844c-0.1005859-0.0322266-0.1845703-0.0913086-0.2509766-0.1777344
			c-0.0668945-0.0859375-0.1000977-0.1850586-0.1000977-0.296875c0-0.1386719,0.0410156-0.2504883,0.1230469-0.3349609
			s0.1845703-0.1269531,0.3076172-0.1269531c0.1503906,0,0.2788086,0.0615234,0.3847656,0.1850586
			s0.1586914,0.2939453,0.1586914,0.5102539c0,0.2675781-0.0922852,0.5732422-0.2768555,0.9165039
			c-0.1845703,0.34375-0.5400391,0.8706055-1.0664063,1.581542c-0.5268555,0.7109375-1.1640625,1.4858398-1.9130859,2.3251953
			c-0.5161133,0.5791016-0.8989258,0.9438477-1.1484375,1.0942383c-0.2495117,0.1508789-0.4633789,0.2260742-0.6411133,0.2260742
			c-0.105957,0-0.1992188-0.0400391-0.2797852-0.1191406c-0.0800781-0.0795898-0.1201172-0.171875-0.1201172-0.2768555
			c0-0.1318359,0.0551758-0.2524414,0.1665039-0.3603516c0.1113281-0.1083984,0.2314453-0.1625977,0.3613281-0.1625977
			c0.0683594,0,0.125,0.0151367,0.1694336,0.0454102c0.0273438,0.0170898,0.0571289,0.0654297,0.0898438,0.1450195
			c0.0322266,0.0795898,0.0620117,0.1328125,0.0898438,0.159668c0.0166016,0.0170898,0.0371094,0.0253906,0.0615234,0.0253906
			c0.0205078,0,0.0561523-0.0166016,0.1074219-0.0507813c0.1879883-0.1147461,0.4067383-0.2978516,0.65625-0.5483398
			c0.3286133-0.331543,0.5712891-0.6025391,0.7285156-0.8120117l-0.2871094-3.2192373
			c-0.0478516-0.53125-0.1201172-0.8544922-0.215332-0.9697266c-0.0961914-0.1147461-0.2568359-0.1723633-0.4824219-0.1723633
			c-0.0717773,0-0.199707,0.0102539-0.3842773,0.0302734l-0.0463867-0.1879883L110.6442032,13.1500654z"/>
		<path class="st3" d="M129.6388397,13.2716475l-0.0922852,0.3354492h-0.7485352l-0.5644531,2.21875
			c-0.2495193,0.9780264-0.5004959,1.734374-0.7539139,2.269042c-0.3588867,0.7548828-0.7451172,1.2763672-1.1586914,1.5639648
			c-0.3144531,0.2202148-0.6289063,0.3300781-0.9438477,0.3300781c-0.2050781,0-0.3793945-0.0610352-0.5229492-0.1826172
			c-0.105957-0.0849609-0.1586914-0.1948242-0.1586914-0.3300781c0-0.1083984,0.043457-0.2026367,0.1303711-0.2817383
			c0.0874023-0.0795898,0.1943359-0.1196289,0.3208008-0.1196289c0.0922852,0,0.1699219,0.0288086,0.2333984,0.0864258
			c0.0629883,0.0576172,0.0947266,0.1235352,0.0947266,0.1982422c0,0.0742188-0.0361328,0.1435547-0.1079102,0.2080078
			c-0.0541992,0.0473633-0.0820313,0.0830078-0.0820313,0.1064453c0,0.0307617,0.012207,0.0541992,0.0361328,0.0712891
			c0.0307617,0.0234375,0.0786133,0.0356445,0.1435547,0.0356445c0.1469727,0,0.3017578-0.0458984,0.4638672-0.137207
			c0.1625977-0.0913086,0.3071289-0.2275391,0.4335938-0.4086914s0.2460938-0.4428711,0.3588867-0.784668
			c0.0478516-0.1420898,0.1762695-0.6108398,0.3847656-1.40625l0.8920898-3.4370108h-0.8920898l0.0717773-0.3354492
			c0.2836914,0,0.4819336-0.019043,0.5947266-0.0581055s0.2163086-0.1132813,0.3105545-0.2236328
			c0.09375-0.1098633,0.2158203-0.3154297,0.3662109-0.6166992c0.2016602-0.40625,0.3950195-0.7211914,0.5795898-0.9443359
			c0.2529297-0.3012695,0.519043-0.5273438,0.7973633-0.6777344c0.2788086-0.1508789,0.5410156-0.2260742,0.7871094-0.2260742
			c0.2602539,0,0.46875,0.0654297,0.6259766,0.1953125c0.1572266,0.1303711,0.2358398,0.2719727,0.2358398,0.4243164
			c0,0.1181641-0.0395508,0.2182617-0.1181641,0.2993164s-0.1791992,0.1220703-0.3022461,0.1220703
			c-0.105957,0-0.1923828-0.0307617-0.2592773-0.0917969c-0.0664063-0.0605469-0.0996094-0.1333008-0.0996094-0.2182617
			c0-0.0537109,0.0219727-0.1206055,0.0664063-0.2001953s0.0668945-0.1328125,0.0668945-0.1601563
			c0-0.0473633-0.015625-0.0830078-0.0463867-0.1064453c-0.0444336-0.0336914-0.109375-0.0507813-0.1948242-0.0507813
			c-0.215332,0-0.4086914,0.0678711-0.5795898,0.203125c-0.2290039,0.1791992-0.434082,0.4599609-0.6152344,0.8427734
			c-0.0922852,0.199707-0.2617188,0.6953125-0.5078125,1.4873047H129.6388397z"/>
		<path class="st3" d="M138.0279999,13.1500654c0.1674805,0.1757813,0.2939453,0.3520508,0.3798828,0.527832
			c0.0615234,0.1220703,0.1621094,0.4418945,0.3022461,0.9594727l0.4511719-0.6699219
			c0.1196289-0.1625977,0.2651367-0.3173828,0.4360352-0.4648438c0.1708984-0.1469727,0.3212891-0.2475586,0.4511719-0.3017578
			c0.0820313-0.0336914,0.1728516-0.0507813,0.2719727-0.0507813c0.1469727,0,0.2641602,0.0390625,0.3510742,0.1166992
			c0.0874023,0.078125,0.1308594,0.1728516,0.1308594,0.2841797c0,0.1289063-0.0253906,0.2167969-0.0766602,0.2641602
			c-0.0957031,0.0844727-0.2050781,0.1269531-0.328125,0.1269531c-0.0717773,0-0.1489258-0.0151367-0.230957-0.0458984
			c-0.1606445-0.0537109-0.2685547-0.0810547-0.3232422-0.0810547c-0.0820313,0-0.1791992,0.0473633-0.2919922,0.1420898
			c-0.2124023,0.1762695-0.465332,0.5161133-0.7592773,1.0205078l0.4204102,1.7465811
			c0.0649414,0.2675781,0.1196289,0.4272461,0.1645508,0.4799805c0.0439453,0.0522461,0.0888672,0.0786133,0.1333008,0.0786133
			c0.0717773,0,0.1552734-0.0390625,0.2509766-0.1166992c0.1879883-0.1557617,0.3486328-0.3588867,0.4819336-0.609375
			l0.1796875,0.0913086c-0.215332,0.3994141-0.4887695,0.730957-0.8203125,0.9951172
			c-0.1879883,0.1489258-0.347168,0.2236328-0.4770508,0.2236328c-0.1914063,0-0.34375-0.1069336-0.456543-0.3203125
			c-0.0717773-0.1318359-0.2202148-0.7001953-0.4462891-1.7055655c-0.5332031,0.9169912-0.9604492,1.5078115-1.2817383,1.7719717
			c-0.2084961,0.1689453-0.4101563,0.2539063-0.6049805,0.2539063c-0.1367188,0-0.2617188-0.0493164-0.3745117-0.1474609
			c-0.0820313-0.0742188-0.1230469-0.1743164-0.1230469-0.2993164c0-0.1118164,0.0375977-0.2050781,0.112793-0.2792969
			c0.0751953-0.074707,0.1674805-0.1118164,0.2768555-0.1118164s0.2255859,0.0541992,0.3486328,0.1625977
			c0.0888672,0.0776367,0.1572266,0.1166992,0.2050781,0.1166992c0.0410156,0,0.0942383-0.0273438,0.1591797-0.081543
			c0.1606445-0.128418,0.3793945-0.4057617,0.65625-0.8325195c0.2768555-0.4262686,0.4580078-0.734374,0.543457-0.9238272
			c-0.2119141-0.8227539-0.3261719-1.2573242-0.3432617-1.3051758c-0.0786133-0.2197266-0.1811523-0.3754883-0.3076172-0.4667969
			s-0.3129883-0.137207-0.559082-0.137207c-0.0786133,0-0.1694336,0.003418-0.2719727,0.0102539V13.388835L138.0279999,13.1500654z"
			/>
	</g>
	<g>
		<path class="st3" d="M116.5382462,13.8912764h5.3842773v0.4926758h-5.3842773V13.8912764z M116.5382462,15.784831h5.3842773
			v0.5029287h-5.3842773V15.784831z"/>
	</g>
</g>
<g>
</g>
<g>
</g>
<g>
</g>
<g>
</g>
<g>
</g>
<g>
</g>
</svg>
