<?xml version="1.0" encoding="utf-8"?>
<!-- Generator: Adobe Illustrator 19.0.0, SVG Export Plug-In . SVG Version: 6.00 Build 0)  -->
<svg version="1.1" id="Layer_1" xmlns="http://www.w3.org/2000/svg" xmlns:xlink="http://www.w3.org/1999/xlink" x="0px" y="0px"
	 viewBox="0 0 183 125.3333359" style="enable-background:new 0 0 183 125.3333359;" xml:space="preserve">
<style type="text/css">
	.st0{fill-rule:evenodd;clip-rule:evenodd;fill:#231F20;}
	.st1{fill:none;stroke:#EA2026;stroke-miterlimit:10;}
	.st2{fill:#030303;}
</style>
<polyline class="st0" points="172.2606354,104.9172745 163.7976074,102.3318176 163.7976074,103.9778748 3,103.9778748 
	3,105.7410049 163.7976074,105.7410049 163.7976074,107.3856583 172.2606354,104.9172745 "/>
<polyline class="st0" points="50.4450951,2.3333333 47.8596382,9.282424 49.6227722,9.282424 49.5841942,123.3333359 
	51.2302551,123.3333359 51.2688293,9.282424 52.9134789,9.282424 50.4450951,2.3333333 "/>
<polyline class="st1" points="50.3865585,20.5245552 50.3865585,104.8587341 105.3181229,104.8587341 105.3181229,20.5245552 "/>
<g>
	<path class="st2" d="M105.8950195,110.8186874l-1.2182617,4.0820313l-0.1376953,0.5478516
		c-0.012207,0.0527344-0.0185547,0.0966797-0.0185547,0.1328125c0,0.0644531,0.0209961,0.1201172,0.0625,0.1689453
		c0.0332031,0.0361328,0.074707,0.0537109,0.125,0.0537109c0.0541992,0,0.125-0.0322266,0.2124023-0.0957031
		c0.1625977-0.1171875,0.3789063-0.3574219,0.6499023-0.7226563l0.2124023,0.1445313
		c-0.2875977,0.4169922-0.5834961,0.7353516-0.887207,0.9541016c-0.3041992,0.21875-0.5854492,0.328125-0.84375,0.328125
		c-0.1791992,0-0.3134766-0.0429688-0.402832-0.1298828c-0.0898438-0.0859375-0.1342773-0.2109375-0.1342773-0.3759766
		c0-0.1962891,0.0458984-0.4550781,0.137207-0.7763672l0.1313477-0.4521484
		c-0.5458984,0.6865234-1.0478516,1.1660156-1.5058594,1.4394531c-0.3291016,0.1962891-0.6518555,0.2949219-0.9682617,0.2949219
		c-0.3041992,0-0.5668945-0.1210938-0.7875977-0.3642578s-0.3310547-0.5771484-0.3310547-1.0029297
		c0-0.6376953,0.1987305-1.3115234,0.5966797-2.0195313c0.3979492-0.7089844,0.902832-1.2753906,1.5151367-1.7011719
		c0.4790039-0.3369141,0.9311523-0.5058594,1.355957-0.5058594c0.2539063,0,0.465332,0.0644531,0.6342773,0.1923828
		c0.168457,0.1289063,0.296875,0.3417969,0.3842773,0.6386719l0.2246094-0.6865234L105.8950195,110.8186874z
		 M103.6708984,111.132164c-0.2666016,0-0.5498047,0.1201172-0.8500977,0.3613281
		c-0.4248047,0.3408203-0.8027344,0.8466797-1.1337891,1.5166016c-0.3310547,0.6708984-0.496582,1.2763672-0.496582,1.8183594
		c0,0.2734375,0.0708008,0.4892578,0.2124023,0.6474609c0.1416016,0.1591797,0.3037109,0.2382813,0.4873047,0.2382813
		c0.4536133,0,0.9472656-0.3232422,1.4804688-0.9697266c0.7124023-0.8583984,1.0688477-1.7402344,1.0688477-2.6435547
		c0-0.3408203-0.0688477-0.5878906-0.206543-0.7402344C104.0957031,111.2083359,103.9082031,111.132164,103.6708984,111.132164z"/>
</g>
<g>
	<path class="st2" d="M176.6005859,102.3450546c0.2041016,0.2089844,0.3583984,0.4174805,0.4628906,0.6264648
		c0.0751953,0.1445313,0.1972656,0.5234375,0.3681641,1.1376953l0.5498047-0.7949219
		c0.1464844-0.1923828,0.3232422-0.3759766,0.53125-0.5507813c0.2080078-0.1743164,0.3916016-0.2939453,0.5498047-0.3583984
		c0.1005859-0.0400391,0.2099609-0.0600586,0.3310547-0.0600586c0.1796875,0,0.3222656,0.0463867,0.4287109,0.1386719
		c0.1054688,0.0922852,0.1591797,0.2045898,0.1591797,0.3369141c0,0.152832-0.03125,0.2573242-0.09375,0.3134766
		c-0.1171875,0.1000977-0.25,0.1503906-0.4003906,0.1503906c-0.0869141,0-0.1806641-0.0180664-0.28125-0.0541992
		c-0.1953125-0.0644531-0.3271484-0.0961914-0.3935547-0.0961914c-0.0996094,0-0.21875,0.0561523-0.3554688,0.168457
		c-0.2587891,0.2084961-0.5673828,0.6123047-0.9248047,1.2099609l0.5117188,2.0708008
		c0.0791016,0.3173828,0.1464844,0.5078125,0.2001953,0.5693359c0.0537109,0.0625,0.1083984,0.09375,0.1621094,0.09375
		c0.0878906,0,0.1894531-0.0458984,0.3066406-0.1386719c0.2285156-0.1845703,0.4248047-0.4248047,0.5869141-0.7226563
		l0.21875,0.1083984c-0.2626953,0.4736328-0.5957031,0.8671875-0.9990234,1.1806641
		c-0.2294922,0.1767578-0.4228516,0.2646484-0.5820313,0.2646484c-0.2324219,0-0.4179688-0.1269531-0.5556641-0.3789063
		c-0.0878906-0.1572266-0.2685547-0.8320313-0.5439453-2.0234375c-0.6494141,1.0878906-1.1699219,1.7880859-1.5615234,2.1015625
		c-0.2539063,0.2001953-0.5,0.3007813-0.7373047,0.3007813c-0.1669922,0-0.3183594-0.0585938-0.4560547-0.1748047
		c-0.0996094-0.0878906-0.1503906-0.2060547-0.1503906-0.3554688c0-0.1318359,0.0458984-0.2421875,0.1376953-0.3310547
		c0.0917969-0.0878906,0.2041016-0.1318359,0.3378906-0.1318359c0.1328125,0,0.2744141,0.0634766,0.4248047,0.1923828
		c0.1083984,0.0927734,0.1914063,0.1386719,0.25,0.1386719c0.0498047,0,0.1142578-0.0322266,0.1933594-0.0966797
		c0.1953125-0.1523438,0.4619141-0.4814453,0.7998047-0.9873047c0.3369141-0.5058594,0.5576172-0.8710938,0.6621094-1.0957031
		c-0.2578125-0.9755859-0.3974609-1.4912109-0.4189453-1.5478516c-0.0957031-0.2607422-0.2207031-0.4453125-0.3740234-0.5537109
		c-0.1542969-0.1083984-0.3818359-0.1625977-0.6816406-0.1625977c-0.0957031,0-0.2060547,0.0039063-0.3310547,0.012207v-0.2167969
		L176.6005859,102.3450546z"/>
</g>
<g>
	<path class="st2" d="M55.7075195,112.741539c0-0.9755859,0.1455078-1.8154297,0.4375-2.5195313
		c0.2915039-0.7041016,0.6787109-1.2294922,1.1621094-1.5742188c0.3745117-0.2734375,0.762207-0.4101563,1.1621094-0.4101563
		c0.6499023,0,1.2329102,0.3349609,1.7495117,1.0029297c0.6455078,0.8291016,0.9682617,1.9521484,0.9682617,3.3691406
		c0,0.9921875-0.1416016,1.8349609-0.4248047,2.5292969c-0.2832031,0.6933594-0.6445313,1.1972656-1.0839844,1.5107422
		s-0.8632813,0.4697266-1.2714844,0.4697266c-0.8081055,0-1.480957-0.4814453-2.0180664-1.4443359
		C55.9345703,114.8636093,55.7075195,113.8860703,55.7075195,112.741539z M56.9321289,112.8997421
		c0,1.1777344,0.1435547,2.1376953,0.4311523,2.8828125c0.2373047,0.6259766,0.5913086,0.9394531,1.0620117,0.9394531
		c0.2250977,0,0.4584961-0.1015625,0.699707-0.3056641c0.2416992-0.2041016,0.4248047-0.5458984,0.5498047-1.0253906
		c0.1918945-0.7226563,0.2875977-1.7431641,0.2875977-3.0595703c0-0.9755859-0.1000977-1.7890625-0.2998047-2.4404297
		c-0.1499023-0.4833984-0.34375-0.8261719-0.5810547-1.0283203c-0.1708984-0.1386719-0.3769531-0.2080078-0.6186523-0.2080078
		c-0.2832031,0-0.5351563,0.1279297-0.7558594,0.3847656c-0.300293,0.3486328-0.5043945,0.8974609-0.6123047,1.6464844
		C56.9863281,111.4339218,56.9321289,112.1722031,56.9321289,112.8997421z"/>
</g>
<g>
	<path class="st2" d="M118.5981445,83.4539413l0.7045898-7.121582c0.0336914-0.3613281,0.0507813-0.6054688,0.0507813-0.7314453
		c0-0.1894531-0.0703125-0.347168-0.2109375-0.4731445s-0.3618164-0.1894531-0.6640625-0.1894531h-0.2265625l0.0629883-0.2333984
		h3.3671875l-0.0693359,0.2333984c-0.3652344,0.0043945-0.6157227,0.0424805-0.7519531,0.1137695
		c-0.1367188,0.0717773-0.2446289,0.1933594-0.3242188,0.3657227c-0.0419922,0.0927734-0.0859375,0.3554688-0.1323242,0.7885742
		l-0.503418,5.1030273l3.3295898-4.5541992c0.3608398-0.4921875,0.5874023-0.8344727,0.6796875-1.0283203
		c0.0629883-0.1303711,0.0942383-0.2436523,0.0942383-0.340332c0-0.1137695-0.0483398-0.2124023-0.1445313-0.296875
		c-0.0966797-0.0839844-0.2768555-0.1342773-0.5415039-0.1513672l0.0756836-0.2333984h2.5678711l-0.0629883,0.2333984
		c-0.2055664,0.0170898-0.3691406,0.0571289-0.4907227,0.1201172c-0.230957,0.109375-0.4609375,0.2753906-0.6894531,0.4980469
		c-0.2285156,0.2231445-0.5908203,0.6733398-1.0854492,1.3500977l-4.8085938,6.5473633H118.5981445z"/>
</g>
<g>
	<path class="st2" d="M129.5566406,78.4710312h6.609375v0.6118164h-6.609375V78.4710312z M129.5566406,80.8235703h6.609375
		v0.6245117h-6.609375V80.8235703z"/>
	<path class="st2" d="M142.6240234,76.635582h0.6162109v3.0151367h2.9902344v0.6118164h-2.9902344v2.9960938h-0.6162109v-2.9960938
		h-3.0029297v-0.6118164h3.0029297V76.635582z"/>
</g>
<g>
	<path class="st2" d="M150.5703125,79.0511093c0.2851563-0.6557617,0.5976563-1.1108398,0.9375-1.3657227
		c0.3398438-0.2543945,0.8037109-0.3813477,1.3916016-0.3813477c0.6748047,0,1.2460938,0.2436523,1.7119141,0.7314453
		c0.4658203,0.4882813,0.6982422,1.1210938,0.6982422,1.8989258c0,0.7695313-0.2265625,1.4033203-0.6796875,1.9018555
		c-0.453125,0.4980469-0.9589844,0.7475586-1.5166016,0.7475586c-0.4160156,0-0.8017578-0.1538086-1.1582031-0.4604492
		c-0.2353516-0.2021484-0.5566406-0.6499023-0.9628906-1.34375c-0.2685547,0.5214844-0.5625,0.8969727-0.8808594,1.1259766
		c-0.3193359,0.2290039-0.7050781,0.34375-1.1582031,0.34375c-0.6044922,0-1.1152344-0.2163086-1.5332031-0.6499023
		c-0.4169922-0.4331055-0.6259766-0.9921875-0.6259766-1.6777344c0-0.6938477,0.1933594-1.2529297,0.5791016-1.6777344
		s0.8369141-0.637207,1.3535156-0.637207c0.3603516,0,0.6796875,0.09375,0.9560547,0.2807617
		C149.9599609,78.0745468,150.2558594,78.4627304,150.5703125,79.0511093z M150.3876953,79.5369492
		c-0.2050781-0.4624023-0.4404297-0.8032227-0.7050781-1.0219727c-0.2636719-0.2182617-0.5888672-0.328125-0.9755859-0.328125
		c-0.4443359,0-0.8173828,0.1567383-1.1171875,0.4702148s-0.4501953,0.7329102-0.4501953,1.2583008
		c0,0.5595703,0.1484375,1.0063477,0.4443359,1.340332c0.2958984,0.3344727,0.6298828,0.5014648,1.0039063,0.5014648
		c0.3984375,0,0.7509766-0.1787109,1.0576172-0.5361328C149.8417969,80.9856796,150.0898438,80.4241562,150.3876953,79.5369492z
		 M151.1748047,80.331871c0.3144531,0.6557617,0.625,1.0966797,0.9316406,1.3212891
		c0.3056641,0.2250977,0.6494141,0.3374023,1.0322266,0.3374023c0.515625,0,0.9462891-0.1860352,1.2929688-0.5581055
		c0.3457031-0.3720703,0.5195313-0.871582,0.5195313-1.4980469c0-0.6181641-0.1826172-1.1289063-0.5478516-1.5327148
		s-0.7744141-0.6054688-1.2275391-0.6054688c-0.2890625,0-0.5419922,0.0732422-0.7578125,0.2207031
		c-0.2167969,0.1469727-0.4130859,0.3823242-0.5888672,0.706543
		C151.7285156,78.9124374,151.5097656,79.4485703,151.1748047,80.331871z"/>
</g>
<g>
	<path class="st2" d="M88.0883789,79.0325546c0-0.9755859,0.1455078-1.815918,0.4375-2.5200195
		c0.2915039-0.7045898,0.6787109-1.2290039,1.1621094-1.5742188c0.3745117-0.2729492,0.762207-0.409668,1.1621094-0.409668
		c0.6499023,0,1.2329102,0.3339844,1.7495117,1.0029297c0.6455078,0.8286133,0.9682617,1.9511719,0.9682617,3.3681641
		c0,0.9926758-0.1416016,1.8359375-0.4248047,2.5297852s-0.6445313,1.1972656-1.0839844,1.5107422
		c-0.4394531,0.3129883-0.8632813,0.4697266-1.2714844,0.4697266c-0.8081055,0-1.480957-0.4814453-2.0180664-1.4443359
		C88.3154297,81.1541367,88.0883789,80.1761093,88.0883789,79.0325546z M89.3129883,79.1902695
		c0,1.1772461,0.1435547,2.1381836,0.4311523,2.8823242c0.2373047,0.6269531,0.5913086,0.9399414,1.0620117,0.9399414
		c0.2250977,0,0.4584961-0.1020508,0.699707-0.3056641c0.2416992-0.2041016,0.4248047-0.5458984,0.5498047-1.0253906
		c0.1918945-0.7231445,0.2875977-1.7426758,0.2875977-3.059082c0-0.9755859-0.1000977-1.7895508-0.2998047-2.4414063
		c-0.1499023-0.4833984-0.34375-0.8261719-0.5810547-1.027832c-0.1708984-0.1391602-0.3769531-0.2084961-0.6186523-0.2084961
		c-0.2832031,0-0.5351563,0.128418-0.7558594,0.3847656c-0.300293,0.3491211-0.5043945,0.8979492-0.6123047,1.6464844
		C89.3671875,77.7244492,89.3129883,78.4627304,89.3129883,79.1902695z"/>
</g>
<g>
	<path class="st2" d="M67.1777344,83.4539413l0.699707-7.121582c0.0332031-0.3613281,0.0498047-0.6054688,0.0498047-0.7314453
		c0-0.1894531-0.0698242-0.347168-0.2094727-0.4731445c-0.1391602-0.1259766-0.3588867-0.1894531-0.6591797-0.1894531h-0.2246094
		l0.0625-0.2333984h3.3427734l-0.0688477,0.2333984c-0.3623047,0.0043945-0.6113281,0.0424805-0.746582,0.1137695
		c-0.1357422,0.0717773-0.2426758,0.1933594-0.3217773,0.3657227c-0.0419922,0.0927734-0.0854492,0.3554688-0.1313477,0.7885742
		l-0.5,5.1030273l3.3051758-4.5541992c0.3583984-0.4921875,0.5834961-0.8344727,0.6748047-1.0283203
		c0.0625-0.1303711,0.09375-0.2436523,0.09375-0.340332c0-0.1137695-0.0478516-0.2124023-0.1435547-0.296875
		c-0.0957031-0.0839844-0.2749023-0.1342773-0.5371094-0.1513672l0.074707-0.2333984h2.5493164l-0.0625,0.2333984
		c-0.2041016,0.0170898-0.3666992,0.0571289-0.4873047,0.1201172c-0.2290039,0.109375-0.4570313,0.2753906-0.684082,0.4980469
		c-0.2270508,0.2231445-0.5864258,0.6733398-1.078125,1.3500977l-4.7734375,6.5473633H67.1777344z"/>
</g>
<g>
	<path class="st2" d="M78.0551758,78.4710312h6.5605469v0.6118164h-6.5605469V78.4710312z M78.0551758,80.8235703h6.5605469
		v0.6245117h-6.5605469V80.8235703z"/>
</g>
<g>
	<path class="st2" d="M4.9584961,83.4539413l0.7045898-7.121582c0.0336914-0.3613281,0.0507813-0.6054688,0.0507813-0.7314453
		c0-0.1894531-0.0703125-0.347168-0.2109375-0.4731445s-0.3618164-0.1894531-0.6640625-0.1894531H4.6123047l0.0629883-0.2333984
		h3.3671875l-0.0693359,0.2333984c-0.3652344,0.0043945-0.6157227,0.0424805-0.7519531,0.1137695
		c-0.1367188,0.0717773-0.2446289,0.1933594-0.3242188,0.3657227c-0.0419922,0.0927734-0.0859375,0.3554688-0.1323242,0.7885742
		l-0.503418,5.1030273l3.3295898-4.5541992c0.3608398-0.4921875,0.5874023-0.8344727,0.6796875-1.0283203
		c0.0629883-0.1303711,0.0942383-0.2436523,0.0942383-0.340332c0-0.1137695-0.0483398-0.2124023-0.1445313-0.296875
		c-0.0966797-0.0839844-0.2768555-0.1342773-0.5415039-0.1513672l0.0756836-0.2333984h2.5678711l-0.0629883,0.2333984
		c-0.2055664,0.0170898-0.3691406,0.0571289-0.4907227,0.1201172c-0.230957,0.109375-0.4609375,0.2753906-0.6894531,0.4980469
		c-0.2285156,0.2231445-0.5908203,0.6733398-1.0854492,1.3500977l-4.8085938,6.5473633H4.9584961z"/>
</g>
<g>
	<path class="st2" d="M15.9233398,78.4710312h6.6083984v0.6118164h-6.6083984V78.4710312z M15.9233398,80.8235703h6.6083984
		v0.6245117h-6.6083984V80.8235703z"/>
	<path class="st2" d="M28.9902344,76.635582h0.6171875v3.0151367h2.9892578v0.6118164h-2.9892578v2.9960938h-0.6171875v-2.9960938
		h-3.0019531v-0.6118164h3.0019531V76.635582z"/>
</g>
<g>
	<path class="st2" d="M36.9306641,79.0511093c0.2851563-0.6557617,0.5981445-1.1108398,0.9379883-1.3657227
		c0.3398438-0.2543945,0.8032227-0.3813477,1.390625-0.3813477c0.6757813,0,1.2460938,0.2436523,1.7119141,0.7314453
		c0.4658203,0.4882813,0.6987305,1.1210938,0.6987305,1.8989258c0,0.7695313-0.2265625,1.4033203-0.6796875,1.9018555
		c-0.453125,0.4980469-0.9589844,0.7475586-1.5170898,0.7475586c-0.4150391,0-0.8012695-0.1538086-1.1577148-0.4604492
		c-0.2353516-0.2021484-0.5561523-0.6499023-0.9628906-1.34375c-0.2685547,0.5214844-0.5625,0.8969727-0.8813477,1.1259766
		s-0.7050781,0.34375-1.1582031,0.34375c-0.6040039,0-1.1147461-0.2163086-1.5322266-0.6499023
		c-0.4179688-0.4331055-0.6264648-0.9921875-0.6264648-1.6777344c0-0.6938477,0.1928711-1.2529297,0.5791016-1.6777344
		c0.3857422-0.4248047,0.8369141-0.637207,1.3530273-0.637207c0.3608398,0,0.6796875,0.09375,0.956543,0.2807617
		C36.3203125,78.0745468,36.6157227,78.4627304,36.9306641,79.0511093z M36.7480469,79.5369492
		c-0.2055664-0.4624023-0.4404297-0.8032227-0.7050781-1.0219727c-0.2641602-0.2182617-0.5893555-0.328125-0.9750977-0.328125
		c-0.4448242,0-0.8173828,0.1567383-1.1171875,0.4702148c-0.300293,0.3134766-0.4501953,0.7329102-0.4501953,1.2583008
		c0,0.5595703,0.1479492,1.0063477,0.4438477,1.340332c0.2958984,0.3344727,0.6303711,0.5014648,1.0039063,0.5014648
		c0.3984375,0,0.7509766-0.1787109,1.0571289-0.5361328C36.2026367,80.9856796,36.4501953,80.4241562,36.7480469,79.5369492z
		 M37.534668,80.331871c0.3149414,0.6557617,0.6254883,1.0966797,0.9316406,1.3212891
		c0.3061523,0.2250977,0.6503906,0.3374023,1.0322266,0.3374023c0.5161133,0,0.9472656-0.1860352,1.293457-0.5581055
		s0.519043-0.871582,0.519043-1.4980469c0-0.6181641-0.1821289-1.1289063-0.5473633-1.5327148
		s-0.7744141-0.6054688-1.2275391-0.6054688c-0.2895508,0-0.5419922,0.0732422-0.7583008,0.2207031
		c-0.2163086,0.1469727-0.4121094,0.3823242-0.5883789,0.706543C38.0888672,78.9124374,37.8706055,79.4485703,37.534668,80.331871z"
		/>
</g>
<g>
	<path class="st2" d="M34.7578125,17.8655605l0.699707-7.121583c0.0332031-0.3613281,0.0498047-0.6054688,0.0498047-0.7314453
		c0-0.1894531-0.0698242-0.347168-0.2094727-0.4731445c-0.1391602-0.1259766-0.3588867-0.1894531-0.6591797-0.1894531h-0.2246094
		l0.0625-0.2333984h3.3427734l-0.0688477,0.2333984c-0.3623047,0.0043945-0.6113281,0.0424805-0.746582,0.1137695
		c-0.1357422,0.0717773-0.2426758,0.1933594-0.3217773,0.3657227c-0.0419922,0.0927734-0.0854492,0.3554688-0.1313477,0.7885742
		l-0.5,5.1030273l3.3051758-4.5541992c0.3583984-0.4921875,0.5834961-0.8344727,0.6748047-1.0283203
		c0.0625-0.1303711,0.09375-0.2436523,0.09375-0.340332c0-0.1137695-0.0478516-0.2124023-0.1435547-0.296875
		c-0.0957031-0.0839844-0.2749023-0.1342773-0.5371094-0.1513672l0.074707-0.2333984h2.5493164l-0.0625,0.2333984
		c-0.2041016,0.0170898-0.3666992,0.0571289-0.4873047,0.1201172c-0.2290039,0.109375-0.4570313,0.2753906-0.684082,0.4980469
		c-0.2270508,0.2231445-0.5864258,0.6733398-1.078125,1.3500977l-4.7734375,6.5473642H34.7578125z"/>
</g>
</svg>
