<?xml version="1.0" encoding="utf-8"?>
<!-- Generator: Adobe Illustrator 19.0.0, SVG Export Plug-In . SVG Version: 6.00 Build 0)  -->
<svg version="1.1" id="图层_1" xmlns="http://www.w3.org/2000/svg" xmlns:xlink="http://www.w3.org/1999/xlink" x="0px" y="0px"
	 viewBox="0 0 85.5 63.75" style="enable-background:new 0 0 85.5 63.75;" xml:space="preserve">
<style type="text/css">
	.st0{fill:#000100;fill-opacity:0;stroke:#000100;}
	.st1{fill:#6D7BBB;}
	.st2{fill:#000100;}
	.st3{fill:#5A6DB3;}
</style>
<path class="st0" d="M42.9177208,61.4193153c-22.1585407,0-40.1218224-13.1734238-40.1218224-29.422905
	c0-16.2498379,17.9632797-29.4226513,40.1218224-29.4226513c22.158802,0,40.1218224,13.1728134,40.1218224,29.4226513
	C83.0395432,48.2458916,65.0765228,61.4193153,42.9177208,61.4193153z"/>
<path class="st0" d="M15.6348152,31.9964104L58.4058609,4.6231894"/>
<path class="st0" d="M15.6348152,31.9964104L69.6345596,9.9746609"/>
<path class="st0" d="M15.6348152,31.9964104l-6.460743,15.7515373"/>
<path class="st0" d="M15.6348152,31.9964104l14.9671993,27.8711357"/>
<g>
	<path class="st1" d="M15.6348152,31.9964104l-6.460743,15.7515373l2.9004478,2.8950996l2.4634266,2.1158524l3.8571358,2.4511261
		l4.2569714,2.0894928l5.3935966,2.0608902l2.4115982,0.6250343L15.6348152,31.9964104z"/>
	<path class="st0" d="M15.6348152,31.9964104l-6.460743,15.7515373l2.9004478,2.8950996l2.4634266,2.1158524l3.8571358,2.4511261
		l4.2569714,2.0894928l5.3935966,2.0608902l2.4115982,0.6250343L15.6348152,31.9964104z"/>
</g>
<g>
	<path class="st1" d="M15.5466423,32.0824699L57.9881477,4.6944513l2.7492104,0.7955461l1.8674088,0.8211427l2.2136002,0.9340715
		l2.5573273,1.2792768l2.1469498,1.4501724L15.5466423,32.0824699z"/>
	<path class="st0" d="M15.5466423,32.0824699L57.9881477,4.6944513l2.7492104,0.7955461l1.8674088,0.8211427l2.2136002,0.9340715
		l2.5573273,1.2792768l2.1469498,1.4501724L15.5466423,32.0824699z"/>
</g>
<path class="st2" d="M15.6113081,34.002697c-1.1080494,0-2.0061846-0.8979836-2.0061846-2.0062866
	c0-1.1079235,0.8981352-2.0060577,2.0061846-2.0060577c1.1077948,0,2.0059042,0.8981342,2.0059042,2.0060577
	C17.6172123,33.1047134,16.7191029,34.002697,15.6113081,34.002697z"/>
<g>
	<g>
		<g>
			<path class="st3" d="M37.8237305,53.7373047l1.1044922-0.5419922h0.1103516v3.8554688
				c0,0.2558594,0.0102539,0.4150391,0.0317383,0.4780273c0.0209961,0.0629883,0.0654297,0.1113281,0.1323242,0.1450195
				s0.2026367,0.0527344,0.4082031,0.0571289v0.1245117h-1.7070313V57.730957
				c0.2143555-0.0043945,0.3525391-0.0229492,0.4150391-0.0556641s0.105957-0.0761719,0.1308594-0.1313477
				c0.0244141-0.0546875,0.0366211-0.2192383,0.0366211-0.4931641v-2.4648438c0-0.3320313-0.0112305-0.5454102-0.0336914-0.6396484
				c-0.015625-0.0717773-0.0439453-0.1245117-0.0849609-0.1582031c-0.0415039-0.0336914-0.0913086-0.0507813-0.1489258-0.0507813
				c-0.0825195,0-0.1977539,0.034668-0.3447266,0.1044922L37.8237305,53.7373047z"/>
		</g>
		<g>
			<path class="st3" d="M31.5449219,54.9628906l0.6484375-2.9296875h0.1967773
				c-0.0273438,0.2832031-0.0405273,0.5180664-0.0405273,0.7045898c0,0.5322266,0.168457,0.9648438,0.5063477,1.2988281
				s0.7788086,0.5009766,1.3227539,0.5009766c0.5053711,0,0.8896484-0.15625,1.1518555-0.46875
				c0.2626953-0.3125,0.3935547-0.6728516,0.3935547-1.0805664c0-0.2641602-0.0595703-0.5048828-0.1791992-0.722168
				c-0.1816406-0.3222656-0.6655273-0.8891602-1.453125-1.7006836c-0.3818359-0.3881836-0.6269531-0.6777344-0.7348633-0.8676758
				c-0.1777344-0.3149414-0.2666016-0.6445313-0.2666016-0.9902344c0-0.5512695,0.2045898-1.0229492,0.6137695-1.4155273
				c0.4091797-0.3920898,0.934082-0.5883789,1.574707-0.5883789c0.2158203,0,0.4204102,0.0214844,0.6132813,0.0644531
				c0.1196289,0.0229492,0.3378906,0.1010742,0.6542969,0.2329102c0.2236328,0.0893555,0.347168,0.1376953,0.3706055,0.1455078
				c0.0537109,0.0117188,0.1137695,0.0175781,0.1791992,0.0175781c0.1118164,0,0.2084961-0.0292969,0.2895508-0.0874023
				s0.175293-0.1826172,0.2836914-0.3730469h0.2197266l-0.6020508,2.6210938H37.090332
				c0.015625-0.2329102,0.0234375-0.4213867,0.0234375-0.5649414c0-0.4697266-0.1547852-0.8540039-0.4633789-1.1533203
				c-0.3085938-0.2988281-0.7158203-0.4482422-1.2211914-0.4482422c-0.4013672,0-0.7275391,0.1186523-0.9785156,0.3549805
				c-0.2509766,0.2373047-0.3759766,0.5107422-0.3759766,0.8212891c0,0.2719727,0.0800781,0.53125,0.2402344,0.777832
				s0.5283203,0.6484375,1.1054688,1.2055664c0.5766602,0.5571289,0.9501953,0.9921875,1.1201172,1.3046875
				s0.2548828,0.6455078,0.2548828,0.9990234c0,0.3999023-0.1054688,0.7871094-0.3154297,1.1616211
				c-0.2104492,0.375-0.5126953,0.6650391-0.90625,0.8710938c-0.3935547,0.2055664-0.8237305,0.3085938-1.2910156,0.3085938
				c-0.2314453,0-0.4472656-0.0214844-0.6479492-0.0639648c-0.2006836-0.0429688-0.5209961-0.1479492-0.9609375-0.3149414
				c-0.1508789-0.0581055-0.2758789-0.0869141-0.3764648-0.0869141c-0.2275391,0-0.4052734,0.1552734-0.5327148,0.4658203
				H31.5449219z"/>
		</g>
	</g>
</g>
<g>
	<g>
		<g>
			<g>
				<path class="st3" d="M64.6181641,29.1435547l-0.3178711,0.8789063h-2.6772461v-0.1245117
					c0.7871094-0.7226563,1.3417969-1.3134766,1.6630859-1.7709961c0.3212891-0.4580078,0.4819336-0.8769531,0.4819336-1.2563477
					c0-0.2895508-0.0883789-0.5273438-0.2646484-0.7138672c-0.1762695-0.1860352-0.3867188-0.2792969-0.6323242-0.2792969
					c-0.2231445,0-0.4233398,0.0654297-0.6005859,0.1967773s-0.3085938,0.3242188-0.3935547,0.5776367H61.753418
					c0.0556641-0.4150391,0.1992188-0.7338867,0.4301758-0.9560547c0.2304688-0.2226563,0.519043-0.3334961,0.8647461-0.3334961
					c0.3681641,0,0.6757813,0.1191406,0.921875,0.3569336c0.246582,0.237793,0.3701172,0.5185547,0.3701172,0.8417969
					c0,0.230957-0.0537109,0.4624023-0.1606445,0.6933594c-0.1650391,0.3637695-0.4331055,0.7490234-0.8032227,1.1552734
					c-0.5556641,0.6103516-0.9023438,0.9785156-1.0410156,1.1044922h1.1850586c0.2407227,0,0.409668-0.0092773,0.5068359-0.0268555
					c0.097168-0.0180664,0.1845703-0.0546875,0.2626953-0.1098633c0.078125-0.0546875,0.1459961-0.1328125,0.2041016-0.2338867
					H64.6181641z"/>
			</g>
		</g>
		<g>
			<g>
				<path class="st3" d="M55.2167969,27.1308594l0.6484375-2.9296875h0.1967773
					c-0.0273438,0.2832031-0.0405273,0.5180664-0.0405273,0.7045898c0,0.5322266,0.168457,0.9648438,0.5063477,1.2988281
					s0.7788086,0.5009766,1.3227539,0.5009766c0.5053711,0,0.8896484-0.15625,1.1518555-0.46875
					c0.2626953-0.3125,0.3935547-0.6728516,0.3935547-1.0805664c0-0.2641602-0.0595703-0.5048828-0.1791992-0.722168
					c-0.1816406-0.3222656-0.6655273-0.8891602-1.453125-1.7006836c-0.3818359-0.3881836-0.6269531-0.6777344-0.7348633-0.8676758
					c-0.1777344-0.3149414-0.2666016-0.6445313-0.2666016-0.9902344c0-0.5512695,0.2045898-1.0229492,0.6137695-1.4155273
					c0.4091797-0.3920898,0.934082-0.5883789,1.574707-0.5883789c0.2158203,0,0.4204102,0.0214844,0.6132813,0.0644531
					c0.1196289,0.0229492,0.3378906,0.1010742,0.6542969,0.2329102c0.2236328,0.0893555,0.347168,0.1376953,0.3706055,0.1455078
					c0.0537109,0.0117188,0.1137695,0.0175781,0.1791992,0.0175781c0.1118164,0,0.2084961-0.0292969,0.2895508-0.0874023
					s0.175293-0.1826172,0.2836914-0.3730469h0.2197266l-0.6020508,2.6210938H60.762207
					c0.015625-0.2329102,0.0234375-0.4213867,0.0234375-0.5649414c0-0.4697266-0.1547852-0.8540039-0.4633789-1.1533203
					c-0.3085938-0.2988281-0.7158203-0.4482422-1.2211914-0.4482422c-0.4013672,0-0.7275391,0.1186523-0.9785156,0.3549805
					c-0.2509766,0.2373047-0.3759766,0.5107422-0.3759766,0.8212891c0,0.2719727,0.0800781,0.53125,0.2402344,0.777832
					s0.5283203,0.6484375,1.1054688,1.2055664c0.5766602,0.5571289,0.9501953,0.9921875,1.1201172,1.3046875
					s0.2548828,0.6455078,0.2548828,0.9990234c0,0.3999023-0.1054688,0.7871094-0.3154297,1.1616211
					c-0.2104492,0.375-0.5126953,0.6650391-0.90625,0.8710938c-0.3935547,0.2055664-0.8237305,0.3085938-1.2910156,0.3085938
					c-0.2314453,0-0.4472656-0.0214844-0.6479492-0.0639648c-0.2006836-0.0429688-0.5209961-0.1479492-0.9609375-0.3149414
					c-0.1508789-0.0581055-0.2758789-0.0869141-0.3764648-0.0869141c-0.2275391,0-0.4052734,0.1552734-0.5327148,0.4658203
					H55.2167969z"/>
			</g>
		</g>
	</g>
</g>
<g>
</g>
<g>
</g>
<g>
</g>
<g>
</g>
<g>
</g>
<g>
</g>
</svg>
