<?xml version="1.0" encoding="utf-8"?>
<!-- Generator: Adobe Illustrator 19.0.0, SVG Export Plug-In . SVG Version: 6.00 Build 0)  -->
<svg version="1.1" id="图层_1" xmlns="http://www.w3.org/2000/svg" xmlns:xlink="http://www.w3.org/1999/xlink" x="0px" y="0px"
	 viewBox="0 0 117.1666641 52.2807007" style="enable-background:new 0 0 117.1666641 52.2807007;" xml:space="preserve">
<style type="text/css">
	.st0{fill:#6D7BBB;}
	.st1{fill:#000100;fill-opacity:0;stroke:#6D7BBB;}
	.st2{opacity:0;fill:#000100;}
	.st3{fill:none;stroke:#000100;}
	.st4{fill:#000100;stroke:#000100;}
	.st5{fill:#010101;}
</style>
<g>
	<path class="st0" d="M1.6573521,49.7980957L93.5935745,9.8909836c0,0,4.1127167,0.6871309,8.913063,3.6008301
		c4.8915634,2.9692822,8.5776672,6.8323536,8.5776672,6.8323536L1.6573521,49.7980957z"/>
	<path class="st1" d="M1.6573521,49.7980957L93.5935745,9.8909836c0,0,4.1127167,0.6871309,8.913063,3.6008301
		c4.8915634,2.9692822,8.5776672,6.8323536,8.5776672,6.8323536L1.6573521,49.7980957z"/>
</g>
<g>
	<g>
		<g>
			<line class="st2" x1="93.5935745" y1="9.8909836" x2="106.4653778" y2="17.5689373"/>
			<line class="st3" x1="93.5935745" y1="9.8909836" x2="106.4653778" y2="17.5689373"/>
		</g>
		<path class="st4" d="M105.5466309,19.1085777l5.0240479,0.9098377l-3.1873093-3.9891186L105.5466309,19.1085777z"/>
	</g>
</g>
<g>
	<g>
		<path class="st5" d="M41.9459648,18.0069389v1.2197266c0.3544922-0.5561523,0.6650391-0.925293,0.9316406-1.1079102
			c0.2666016-0.1821289,0.5234375-0.2729492,0.7714844-0.2729492c0.2128906,0,0.3828125,0.065918,0.5107422,0.1982422
			s0.1914063,0.3193359,0.1914063,0.5610352c0,0.2568359-0.0615234,0.456543-0.1855469,0.5981445
			c-0.1240234,0.1420898-0.2734375,0.2128906-0.4482422,0.2128906c-0.2021484,0-0.3769531-0.0649414-0.5253906-0.1953125
			s-0.2363281-0.203125-0.2626953-0.21875c-0.0380859-0.0229492-0.0820313-0.034668-0.1318359-0.034668
			c-0.1103516,0-0.2148438,0.0424805-0.3144531,0.1269531c-0.15625,0.1303711-0.2744141,0.3164063-0.3535156,0.5581055
			c-0.1220703,0.3720703-0.1835938,0.7822266-0.1835938,1.230957v1.2373047l0.0058594,0.3222656
			c0,0.2182617,0.0136719,0.3583984,0.0400391,0.4199219c0.0458984,0.1035156,0.1132813,0.1791992,0.203125,0.2270508
			c0.0888672,0.0478516,0.2402344,0.0776367,0.4541016,0.0893555v0.2070313h-2.8847656v-0.2070313
			c0.2324219-0.019043,0.3886719-0.0834961,0.4707031-0.1928711s0.1230469-0.3979492,0.1230469-0.8657227v-2.9746094
			c0-0.3071289-0.015625-0.5024414-0.0458984-0.5869141c-0.0380859-0.1074219-0.0927734-0.1860352-0.1650391-0.2358398
			s-0.2001953-0.0844727-0.3828125-0.1035156v-0.2128906H41.9459648z"/>
	</g>
</g>
<g>
	<g>
		<path class="st5" d="M109.2174454,9.5337944c-0.2597656,0.2695313-0.5136719,0.4628906-0.7617188,0.5800781
			c-0.2490234,0.1176758-0.5166016,0.1762695-0.8027344,0.1762695c-0.5820313,0-1.0898438-0.2416992-1.5244141-0.7246094
			c-0.4345703-0.4833984-0.6513672-1.1040039-0.6513672-1.862793s0.2402344-1.4526367,0.7216797-2.0820313
			c0.4804688-0.6298828,1.0986328-0.9443359,1.8554688-0.9443359c0.46875,0,0.8564453,0.1479492,1.1630859,0.4443359V4.1446342
			c0-0.6044924-0.0146484-0.9760745-0.0439453-1.1147463s-0.0742188-0.2329102-0.1367188-0.2827148
			c-0.0615234-0.050293-0.1396484-0.0751953-0.2324219-0.0751953c-0.1005859,0-0.234375,0.0307617-0.4013672,0.0922852
			l-0.0751953-0.2021484l1.5878906-0.6469727h0.2617188v6.1166992c0,0.6201172,0.0146484,0.9985352,0.0429688,1.1347656
			c0.0292969,0.137207,0.0761719,0.2324219,0.1396484,0.2861328c0.0644531,0.0541992,0.1386719,0.0810547,0.2246094,0.0810547
			c0.1044922,0,0.2441406-0.0327148,0.4179688-0.0981445l0.0644531,0.2021484l-1.5820313,0.6523438h-0.2675781V9.5337944z
			 M109.2174454,9.1294975V6.402935c-0.0234375-0.2617188-0.0927734-0.5004883-0.2099609-0.7158203
			c-0.1162109-0.2158203-0.2705078-0.378418-0.4619141-0.4882813c-0.1923828-0.1098633-0.3789063-0.1645508-0.5615234-0.1645508
			c-0.3408203,0-0.6455078,0.1523438-0.9130859,0.4560547c-0.3525391,0.4008789-0.5292969,0.9858398-0.5292969,1.7558594
			c0,0.777832,0.1708984,1.3740234,0.5117188,1.7875977c0.3417969,0.4140625,0.7216797,0.6210938,1.140625,0.6210938
			C108.5465469,9.6548882,108.8873672,9.4795952,109.2174454,9.1294975z"/>
	</g>
	<g>
		<path class="st5" d="M113.6930313,4.7281303v1.2246094c0.3603516-0.5585938,0.6767578-0.9291992,0.9482422-1.1118164
			c0.2714844-0.1831055,0.5332031-0.2744141,0.7851563-0.2744141c0.2167969,0,0.390625,0.0664063,0.5205078,0.1992188
			s0.1953125,0.3203125,0.1953125,0.5629883c0,0.2583008-0.0634766,0.4584961-0.1894531,0.6005859
			c-0.1259766,0.1425781-0.2783203,0.2138672-0.4570313,0.2138672c-0.2050781,0-0.3837891-0.0654297-0.5351563-0.1962891
			c-0.1503906-0.1308594-0.2402344-0.2041016-0.2675781-0.2197266c-0.0380859-0.0229492-0.0830078-0.034668-0.1337891-0.034668
			c-0.1123047,0-0.21875,0.0424805-0.3193359,0.1274414c-0.1591797,0.1308594-0.2792969,0.3173828-0.3603516,0.5600586
			c-0.125,0.3735352-0.1865234,0.7856445-0.1865234,1.2358398v1.2421875l0.0058594,0.3232422
			c0,0.2197266,0.0136719,0.3603516,0.0410156,0.421875c0.0458984,0.1035156,0.1152344,0.1796875,0.2060547,0.2280273
			s0.2451172,0.078125,0.4628906,0.0893555v0.2080078h-2.9375V9.9205132
			c0.2363281-0.019043,0.3964844-0.0834961,0.4794922-0.1933594s0.125-0.3994141,0.125-0.8691406V5.871685
			c0-0.3081055-0.015625-0.5043945-0.0458984-0.5888672c-0.0390625-0.1079102-0.0957031-0.1870117-0.1689453-0.2368164
			c-0.0742188-0.050293-0.2041016-0.0849609-0.3896484-0.1040039V4.7281303H113.6930313z"/>
	</g>
</g>
<g>
	<g>
		<g>
			<line class="st2" x1="1.6573521" y1="49.7980957" x2="88.6597443" y2="12.0324841"/>
			<line class="st3" x1="1.6573521" y1="49.7980957" x2="88.6597443" y2="12.0324841"/>
		</g>
		<path class="st4" d="M89.3738251,13.6769352l3.6722641-3.5479307l-5.0994186,0.2587996L89.3738251,13.6769352z"/>
	</g>
</g>
<g>
</g>
<g>
</g>
<g>
</g>
<g>
</g>
<g>
</g>
<g>
</g>
</svg>
