<?xml version="1.0" encoding="UTF-8"?>
<svg xmlns="http://www.w3.org/2000/svg" xmlns:xlink="http://www.w3.org/1999/xlink" width="525pt" height="283.02pt" viewBox="0 0 525 283.02" version="1.1">
<g id="surface1">
<path style="fill:none;stroke-width:15;stroke-linecap:round;stroke-linejoin:round;stroke:rgb(0%,0%,0%);stroke-opacity:1;stroke-miterlimit:10;" d="M 112.486721 1533.539057 L 370.97434 1533.539057 " transform="matrix(0.133106,0,0,-0.132991,0,289.5486)"/>
<path style="fill:none;stroke-width:15;stroke-linecap:round;stroke-linejoin:round;stroke:rgb(0%,0%,0%);stroke-opacity:1;stroke-miterlimit:10;" d="M 380.365352 1477.291165 L 839.380434 1477.291165 L 839.380434 1589.786949 L 380.365352 1589.786949 Z M 380.365352 1477.291165 " transform="matrix(0.133106,0,0,-0.132991,0,289.5486)"/>
<path style="fill:none;stroke-width:15;stroke-linecap:round;stroke-linejoin:round;stroke:rgb(0%,0%,0%);stroke-opacity:1;stroke-miterlimit:10;" d="M 851.177894 1533.539057 L 1601.167628 1533.539057 " transform="matrix(0.133106,0,0,-0.132991,0,289.5486)"/>
<path style=" stroke:none;fill-rule:evenodd;fill:rgb(0%,0%,0%);fill-opacity:1;" d="M 217.917969 85.601562 C 217.917969 88.246094 215.769531 90.390625 213.125 90.390625 C 210.480469 90.390625 208.332031 88.246094 208.332031 85.601562 C 208.332031 82.957031 210.480469 80.816406 213.125 80.816406 C 215.769531 80.816406 217.917969 82.957031 217.917969 85.601562 Z M 217.917969 85.601562 "/>
<path style=" stroke:none;fill-rule:evenodd;fill:rgb(0%,0%,0%);fill-opacity:1;" d="M 222.6875 61.757812 C 222.570312 62.070312 222.367188 62.230469 222.074219 62.230469 C 221 62.167969 219.929688 62.136719 218.863281 62.136719 L 218.328125 62.136719 C 217.070312 62.15625 215.804688 62.1875 214.535156 62.230469 C 214.246094 62.230469 214.089844 62.09375 214.066406 61.820312 L 214.066406 61.695312 L 214.132812 61.429688 C 214.21875 61.085938 214.425781 60.917969 214.761719 60.929688 C 215.160156 60.929688 215.515625 60.917969 215.828125 60.890625 C 216.140625 60.863281 216.441406 60.773438 216.730469 60.617188 C 216.839844 60.566406 216.929688 60.492188 217.003906 60.394531 C 217.046875 60.3125 217.074219 60.230469 217.085938 60.144531 L 217.085938 60.050781 L 216.699219 54.851562 L 209.398438 54.851562 L 206.832031 59.238281 C 206.691406 59.488281 206.621094 59.71875 206.621094 59.925781 C 206.621094 60.105469 206.675781 60.265625 206.785156 60.410156 C 207.019531 60.757812 207.460938 60.929688 208.109375 60.929688 C 208.398438 60.929688 208.554688 61.054688 208.574219 61.304688 C 208.574219 61.367188 208.566406 61.4375 208.542969 61.507812 L 208.480469 61.757812 C 208.359375 62.070312 208.152344 62.230469 207.851562 62.230469 C 206.859375 62.1875 205.878906 62.15625 204.910156 62.136719 L 204.476562 62.136719 C 203.636719 62.136719 202.785156 62.167969 201.925781 62.230469 C 201.761719 62.230469 201.644531 62.175781 201.570312 62.070312 C 201.503906 62.011719 201.472656 61.9375 201.472656 61.851562 C 201.472656 61.792969 201.480469 61.730469 201.503906 61.664062 L 201.570312 61.429688 C 201.65625 61.085938 201.867188 60.917969 202.199219 60.929688 C 202.542969 60.929688 202.882812 60.894531 203.214844 60.820312 C 203.550781 60.746094 203.863281 60.617188 204.152344 60.429688 C 204.441406 60.242188 204.710938 60.011719 204.960938 59.746094 C 205.207031 59.480469 205.429688 59.179688 205.621094 58.847656 L 217.019531 39.34375 C 217.214844 39.054688 217.460938 38.914062 217.765625 38.921875 L 218.070312 38.921875 C 218.414062 38.925781 218.609375 39.085938 218.652344 39.40625 L 220.074219 59.816406 C 220.09375 60.089844 220.125 60.296875 220.167969 60.4375 C 220.210938 60.578125 220.289062 60.679688 220.394531 60.742188 C 220.546875 60.835938 220.796875 60.890625 221.148438 60.90625 C 221.496094 60.921875 221.890625 60.929688 222.332031 60.929688 C 222.632812 60.929688 222.785156 61.054688 222.785156 61.304688 C 222.785156 61.367188 222.777344 61.4375 222.753906 61.507812 Z M 215.921875 43.746094 L 210.175781 53.582031 L 216.601562 53.582031 Z M 215.921875 43.746094 "/>
<path style="fill:none;stroke-width:15;stroke-linecap:round;stroke-linejoin:round;stroke:rgb(0%,0%,0%);stroke-opacity:1;stroke-miterlimit:10;" d="M 1626.846177 1533.539057 L 2428.809296 1533.539057 " transform="matrix(0.133106,0,0,-0.132991,0,289.5486)"/>
<path style="fill:none;stroke-width:15;stroke-linecap:round;stroke-linejoin:round;stroke:rgb(0%,0%,0%);stroke-opacity:1;stroke-miterlimit:10;" d="M 1544.909594 588.48635 L 1544.909594 1047.516147 L 1657.425662 1047.516147 L 1657.425662 588.515722 Z M 1544.909594 588.48635 " transform="matrix(0.133106,0,0,-0.132991,0,289.5486)"/>
<path style=" stroke:none;fill-rule:nonzero;fill:rgb(0%,0%,0%);fill-opacity:1;" d="M 48.25 65.429688 L 112.15625 65.429688 L 112.15625 67.425781 L 48.25 67.425781 C 47.699219 67.425781 47.253906 66.976562 47.253906 66.425781 C 47.253906 65.875 47.699219 65.429688 48.25 65.429688 Z M 128.113281 66.425781 L 108.148438 60.441406 L 112.140625 65.429688 L 112.140625 67.425781 L 108.148438 72.410156 Z M 128.113281 66.425781 "/>
<path style=" stroke:none;fill-rule:evenodd;fill:rgb(0%,0%,0%);fill-opacity:1;" d="M 91.21875 30.175781 C 91.1875 30.316406 91.113281 30.429688 91 30.523438 C 90.886719 30.617188 90.75 30.664062 90.585938 30.664062 C 90.082031 30.664062 89.585938 30.671875 89.101562 30.695312 C 88.617188 30.714844 88.269531 30.773438 88.054688 30.867188 C 87.828125 30.941406 87.660156 31.210938 87.550781 31.679688 L 83.015625 49.332031 C 82.972656 49.53125 82.949219 49.703125 82.949219 49.847656 C 82.949219 49.996094 82.976562 50.085938 83.03125 50.117188 C 83.183594 50.210938 83.492188 50.265625 83.96875 50.28125 C 84.441406 50.296875 84.941406 50.304688 85.46875 50.304688 C 85.769531 50.304688 85.921875 50.429688 85.921875 50.679688 C 85.921875 50.742188 85.910156 50.808594 85.890625 50.882812 L 85.824219 51.132812 C 85.707031 51.445312 85.5 51.601562 85.210938 51.601562 C 83.820312 51.539062 82.417969 51.507812 80.996094 51.507812 C 79.585938 51.507812 78.15625 51.539062 76.699219 51.601562 C 76.421875 51.601562 76.28125 51.46875 76.28125 51.195312 L 76.28125 51.070312 L 76.347656 50.804688 C 76.433594 50.460938 76.644531 50.292969 76.976562 50.304688 C 77.503906 50.304688 78.011719 50.296875 78.492188 50.28125 C 78.976562 50.265625 79.328125 50.210938 79.542969 50.117188 C 79.738281 50.011719 79.894531 49.730469 80.011719 49.269531 L 84.582031 31.617188 C 84.625 31.421875 84.644531 31.265625 84.644531 31.148438 C 84.644531 30.992188 84.621094 30.894531 84.566406 30.847656 C 84.394531 30.765625 84.070312 30.714844 83.597656 30.695312 C 83.121094 30.671875 82.632812 30.664062 82.128906 30.664062 C 81.824219 30.664062 81.675781 30.523438 81.675781 30.238281 L 81.675781 30.128906 L 81.738281 29.847656 C 81.859375 29.535156 82.0625 29.378906 82.351562 29.378906 C 83.761719 29.421875 85.179688 29.441406 86.601562 29.441406 C 88.03125 29.441406 89.453125 29.421875 90.863281 29.378906 C 91.011719 29.378906 91.140625 29.433594 91.25 29.535156 C 91.292969 29.617188 91.3125 29.699219 91.3125 29.769531 C 91.3125 29.832031 91.296875 29.890625 91.265625 29.941406 Z M 91.21875 30.175781 "/>
<path style=" stroke:none;fill-rule:evenodd;fill:rgb(0%,0%,0%);fill-opacity:1;" d="M 98.480469 56.152344 C 97.234375 56.117188 96.027344 56.101562 94.851562 56.101562 C 93.679688 56.101562 92.472656 56.117188 91.230469 56.152344 L 91.230469 55.398438 L 91.925781 55.398438 C 92.148438 55.398438 92.359375 55.398438 92.554688 55.390625 C 92.75 55.386719 92.9375 55.371094 93.113281 55.347656 C 93.289062 55.324219 93.441406 55.300781 93.566406 55.277344 C 93.675781 55.257812 93.765625 55.207031 93.835938 55.113281 C 93.90625 55.023438 93.941406 54.921875 93.941406 54.8125 L 93.941406 44.925781 C 93.605469 45.074219 93.191406 45.183594 92.695312 45.261719 C 92.203125 45.335938 91.664062 45.375 91.078125 45.375 L 91.078125 44.628906 C 91.886719 44.628906 92.632812 44.542969 93.320312 44.371094 C 94.003906 44.199219 94.597656 43.875 95.097656 43.398438 L 95.410156 43.398438 C 95.632812 43.398438 95.746094 43.496094 95.746094 43.6875 L 95.746094 54.8125 C 95.746094 54.929688 95.777344 55.03125 95.847656 55.117188 C 95.914062 55.207031 96.011719 55.257812 96.140625 55.277344 C 96.246094 55.300781 96.386719 55.324219 96.554688 55.347656 C 96.722656 55.371094 96.914062 55.386719 97.128906 55.390625 C 97.339844 55.398438 97.546875 55.398438 97.75 55.398438 L 98.480469 55.398438 Z M 98.480469 56.152344 "/>
<path style=" stroke:none;fill-rule:nonzero;fill:rgb(0%,0%,0%);fill-opacity:1;" d="M 305.835938 65.429688 L 377.667969 65.429688 L 377.667969 67.425781 L 305.835938 67.425781 C 305.285156 67.425781 304.839844 66.976562 304.839844 66.425781 C 304.839844 65.875 305.285156 65.429688 305.835938 65.429688 Z M 393.625 66.425781 L 373.660156 60.441406 L 377.652344 65.429688 L 377.652344 67.425781 L 373.660156 72.410156 Z M 393.625 66.425781 "/>
<path style=" stroke:none;fill-rule:evenodd;fill:rgb(0%,0%,0%);fill-opacity:1;" d="M 348.058594 30.175781 C 348.027344 30.316406 347.953125 30.429688 347.839844 30.523438 C 347.726562 30.617188 347.589844 30.664062 347.429688 30.664062 C 346.921875 30.664062 346.429688 30.671875 345.941406 30.695312 C 345.460938 30.714844 345.109375 30.773438 344.894531 30.867188 C 344.667969 30.941406 344.5 31.210938 344.394531 31.679688 L 339.855469 49.332031 C 339.8125 49.53125 339.792969 49.703125 339.792969 49.847656 C 339.792969 49.996094 339.820312 50.085938 339.871094 50.117188 C 340.023438 50.210938 340.335938 50.265625 340.808594 50.28125 C 341.285156 50.296875 341.785156 50.304688 342.308594 50.304688 C 342.613281 50.304688 342.761719 50.429688 342.761719 50.679688 C 342.761719 50.742188 342.753906 50.808594 342.730469 50.882812 L 342.664062 51.132812 C 342.546875 51.445312 342.34375 51.601562 342.050781 51.601562 C 340.664062 51.539062 339.257812 51.507812 337.835938 51.507812 C 336.429688 51.507812 334.996094 51.539062 333.542969 51.601562 C 333.265625 51.601562 333.125 51.46875 333.125 51.195312 L 333.125 51.070312 L 333.1875 50.804688 C 333.273438 50.460938 333.484375 50.292969 333.816406 50.304688 C 334.34375 50.304688 334.851562 50.296875 335.335938 50.28125 C 335.820312 50.265625 336.167969 50.210938 336.386719 50.117188 C 336.578125 50.011719 336.734375 49.730469 336.851562 49.269531 L 341.421875 31.617188 C 341.464844 31.421875 341.488281 31.265625 341.488281 31.148438 C 341.488281 30.992188 341.460938 30.894531 341.40625 30.847656 C 341.234375 30.765625 340.914062 30.714844 340.4375 30.695312 C 339.964844 30.671875 339.472656 30.664062 338.96875 30.664062 C 338.667969 30.664062 338.515625 30.523438 338.515625 30.238281 L 338.515625 30.128906 L 338.582031 29.847656 C 338.699219 29.535156 338.902344 29.378906 339.195312 29.378906 C 340.605469 29.421875 342.019531 29.441406 343.441406 29.441406 C 344.875 29.441406 346.292969 29.421875 347.703125 29.378906 C 347.855469 29.378906 347.984375 29.433594 348.089844 29.535156 C 348.132812 29.617188 348.15625 29.699219 348.15625 29.769531 C 348.15625 29.832031 348.140625 29.890625 348.105469 29.941406 Z M 348.058594 30.175781 "/>
<path style=" stroke:none;fill-rule:evenodd;fill:rgb(0%,0%,0%);fill-opacity:1;" d="M 356.078125 56.152344 L 347.835938 56.152344 L 347.835938 55.671875 C 347.835938 55.636719 347.859375 55.582031 347.898438 55.511719 L 351.210938 52.300781 C 351.601562 51.917969 351.996094 51.523438 352.398438 51.117188 C 352.800781 50.714844 353.160156 50.304688 353.476562 49.882812 C 353.796875 49.460938 354.046875 49.027344 354.238281 48.578125 C 354.425781 48.132812 354.519531 47.664062 354.519531 47.171875 C 354.519531 46.757812 354.460938 46.371094 354.339844 46.007812 C 354.214844 45.648438 354.039062 45.335938 353.8125 45.0625 C 353.582031 44.789062 353.292969 44.570312 352.949219 44.40625 C 352.605469 44.238281 352.207031 44.15625 351.757812 44.152344 C 351.082031 44.15625 350.484375 44.335938 349.96875 44.695312 C 349.453125 45.054688 349.109375 45.449219 348.941406 45.882812 C 348.90625 45.894531 348.960938 45.898438 349.101562 45.898438 L 349.277344 45.898438 C 349.476562 45.941406 349.652344 46.003906 349.800781 46.089844 C 349.949219 46.171875 350.074219 46.289062 350.175781 46.441406 C 350.277344 46.589844 350.328125 46.769531 350.328125 46.976562 C 350.328125 47.328125 350.199219 47.597656 349.945312 47.785156 C 349.6875 47.972656 349.398438 48.066406 349.082031 48.066406 C 348.78125 48.066406 348.496094 47.972656 348.234375 47.785156 C 347.96875 47.597656 347.835938 47.328125 347.835938 46.976562 C 347.835938 46.488281 347.945312 46.023438 348.160156 45.585938 C 348.378906 45.144531 348.671875 44.765625 349.042969 44.445312 C 349.414062 44.121094 349.851562 43.867188 350.359375 43.679688 C 350.863281 43.492188 351.402344 43.398438 351.96875 43.398438 C 352.671875 43.398438 353.3125 43.492188 353.898438 43.675781 C 354.480469 43.859375 354.980469 44.125 355.390625 44.46875 C 355.800781 44.816406 356.125 45.214844 356.359375 45.667969 C 356.589844 46.121094 356.707031 46.621094 356.707031 47.171875 C 356.707031 47.78125 356.554688 48.339844 356.242188 48.851562 C 355.929688 49.363281 355.546875 49.832031 355.085938 50.257812 C 354.628906 50.6875 354.140625 51.089844 353.625 51.464844 C 353.109375 51.84375 352.640625 52.210938 352.222656 52.566406 L 349.894531 54.523438 L 352.941406 54.523438 C 353.367188 54.523438 353.761719 54.519531 354.128906 54.511719 C 354.5 54.507812 354.808594 54.496094 355.066406 54.476562 C 355.324219 54.460938 355.457031 54.449219 355.460938 54.441406 C 355.515625 54.402344 355.566406 54.320312 355.613281 54.199219 C 355.660156 54.074219 355.703125 53.929688 355.746094 53.761719 C 355.785156 53.597656 355.828125 53.425781 355.867188 53.253906 C 355.90625 53.082031 355.945312 52.894531 355.976562 52.6875 L 356.726562 52.6875 Z M 356.078125 56.152344 "/>
<path style="fill:none;stroke-width:15;stroke-linecap:round;stroke-linejoin:round;stroke:rgb(0%,0%,0%);stroke-opacity:1;stroke-miterlimit:10;" d="M 1601.167628 1533.539057 L 1601.167628 1052.715038 " transform="matrix(0.133106,0,0,-0.132991,0,289.5486)"/>
<path style="fill:none;stroke-width:15;stroke-linecap:round;stroke-linejoin:round;stroke:rgb(0%,0%,0%);stroke-opacity:1;stroke-miterlimit:10;" d="M 2428.809296 1467.304594 L 2887.853725 1467.304594 L 2887.853725 1579.800378 L 2428.809296 1579.800378 Z M 2428.809296 1467.304594 " transform="matrix(0.133106,0,0,-0.132991,0,289.5486)"/>
<path style=" stroke:none;fill-rule:nonzero;fill:rgb(0%,0%,0%);fill-opacity:1;" d="M 238.585938 211.285156 L 238.585938 149.90625 L 240.582031 149.90625 L 240.582031 211.285156 C 240.582031 211.832031 240.136719 212.28125 239.585938 212.28125 C 239.035156 212.28125 238.585938 211.832031 238.585938 211.285156 Z M 239.585938 133.964844 L 233.59375 153.914062 L 238.585938 149.921875 L 240.582031 149.921875 L 245.574219 153.914062 Z M 239.585938 133.964844 "/>
<path style=" stroke:none;fill-rule:evenodd;fill:rgb(0%,0%,0%);fill-opacity:1;" d="M 272.039062 143.351562 C 272.007812 143.488281 271.9375 143.605469 271.824219 143.699219 C 271.710938 143.789062 271.574219 143.839844 271.410156 143.839844 C 270.90625 143.839844 270.410156 143.847656 269.925781 143.871094 C 269.441406 143.890625 269.089844 143.949219 268.875 144.039062 C 268.652344 144.113281 268.484375 144.386719 268.375 144.855469 L 263.839844 162.507812 C 263.796875 162.707031 263.773438 162.878906 263.773438 163.023438 C 263.773438 163.171875 263.800781 163.261719 263.855469 163.289062 C 264.003906 163.386719 264.316406 163.441406 264.792969 163.457031 C 265.265625 163.472656 265.765625 163.480469 266.292969 163.480469 C 266.59375 163.480469 266.746094 163.605469 266.746094 163.855469 C 266.746094 163.917969 266.734375 163.984375 266.710938 164.058594 L 266.648438 164.308594 C 266.53125 164.621094 266.324219 164.777344 266.035156 164.777344 C 264.644531 164.714844 263.242188 164.683594 261.820312 164.683594 C 260.410156 164.683594 258.976562 164.714844 257.523438 164.777344 C 257.246094 164.777344 257.105469 164.644531 257.105469 164.371094 L 257.105469 164.246094 L 257.167969 163.980469 C 257.257812 163.636719 257.464844 163.46875 257.800781 163.480469 C 258.328125 163.480469 258.832031 163.472656 259.316406 163.457031 C 259.800781 163.441406 260.152344 163.386719 260.367188 163.289062 C 260.5625 163.1875 260.71875 162.90625 260.835938 162.445312 L 265.40625 144.792969 C 265.449219 144.597656 265.46875 144.441406 265.46875 144.324219 C 265.46875 144.167969 265.441406 144.070312 265.386719 144.023438 C 265.214844 143.941406 264.894531 143.890625 264.421875 143.871094 C 263.945312 143.847656 263.457031 143.839844 262.949219 143.839844 C 262.648438 143.839844 262.496094 143.699219 262.496094 143.414062 L 262.496094 143.304688 L 262.5625 143.023438 C 262.679688 142.710938 262.886719 142.554688 263.175781 142.554688 C 264.585938 142.597656 266.003906 142.617188 267.421875 142.613281 C 268.855469 142.617188 270.277344 142.597656 271.683594 142.554688 C 271.835938 142.554688 271.964844 142.605469 272.074219 142.710938 C 272.117188 142.792969 272.136719 142.875 272.136719 142.945312 C 272.136719 143.007812 272.121094 143.066406 272.089844 143.117188 Z M 272.039062 143.351562 "/>
<path style=" stroke:none;fill-rule:evenodd;fill:rgb(0%,0%,0%);fill-opacity:1;" d="M 281.023438 166.023438 C 281.023438 166.523438 280.898438 167.007812 280.652344 167.46875 C 280.402344 167.929688 280.066406 168.328125 279.648438 168.652344 C 279.175781 169.023438 278.65625 169.296875 278.082031 169.472656 C 277.515625 169.652344 276.917969 169.742188 276.296875 169.742188 C 275.738281 169.742188 275.191406 169.671875 274.65625 169.53125 C 274.125 169.390625 273.644531 169.1875 273.214844 168.925781 C 272.785156 168.664062 272.441406 168.339844 272.1875 167.957031 C 271.929688 167.574219 271.800781 167.132812 271.800781 166.636719 C 271.800781 166.261719 271.941406 165.984375 272.222656 165.796875 C 272.503906 165.613281 272.796875 165.523438 273.109375 165.523438 C 273.433594 165.523438 273.734375 165.613281 274.015625 165.796875 C 274.292969 165.984375 274.433594 166.261719 274.433594 166.636719 C 274.433594 166.859375 274.386719 167.042969 274.289062 167.191406 C 274.191406 167.34375 274.066406 167.464844 273.914062 167.566406 C 273.761719 167.664062 273.585938 167.726562 273.390625 167.75 C 273.289062 167.773438 273.195312 167.785156 273.109375 167.785156 C 273.019531 167.785156 273.007812 167.792969 273.066406 167.800781 C 273.277344 168.128906 273.6875 168.421875 274.304688 168.671875 C 274.917969 168.921875 275.582031 169.046875 276.296875 169.046875 C 276.636719 169.046875 276.949219 168.972656 277.242188 168.824219 C 277.539062 168.675781 277.78125 168.476562 277.976562 168.222656 C 278.222656 167.894531 278.386719 167.546875 278.476562 167.171875 C 278.5625 166.796875 278.605469 166.414062 278.605469 166.023438 C 278.605469 165.617188 278.5625 165.230469 278.476562 164.859375 C 278.386719 164.488281 278.222656 164.144531 277.976562 163.828125 C 277.773438 163.574219 277.527344 163.363281 277.238281 163.207031 C 276.949219 163.050781 276.636719 162.96875 276.296875 162.96875 L 274.828125 162.96875 C 274.632812 162.96875 274.527344 162.886719 274.515625 162.722656 L 274.515625 162.628906 C 274.515625 162.558594 274.539062 162.503906 274.585938 162.460938 C 274.648438 162.410156 274.722656 162.382812 274.820312 162.382812 C 275.015625 162.359375 275.21875 162.347656 275.425781 162.347656 C 275.628906 162.347656 275.828125 162.335938 276.023438 162.3125 C 276.386719 162.289062 276.707031 162.1875 276.976562 162.007812 C 277.246094 161.832031 277.472656 161.601562 277.652344 161.324219 C 277.835938 161.046875 277.972656 160.726562 278.070312 160.363281 C 278.164062 160.003906 278.210938 159.628906 278.210938 159.25 C 278.210938 158.96875 278.175781 158.703125 278.109375 158.453125 C 278.039062 158.203125 277.917969 157.980469 277.734375 157.792969 C 277.355469 157.410156 276.878906 157.21875 276.296875 157.222656 C 275.675781 157.226562 275.109375 157.328125 274.589844 157.535156 C 274.074219 157.742188 273.730469 157.96875 273.554688 158.207031 C 273.507812 158.214844 273.53125 158.214844 273.625 158.214844 C 273.867188 158.214844 274.097656 158.28125 274.3125 158.410156 C 274.636719 158.578125 274.796875 158.863281 274.796875 159.269531 C 274.796875 159.609375 274.675781 159.863281 274.429688 160.035156 C 274.183594 160.207031 273.90625 160.292969 273.605469 160.292969 C 273.308594 160.292969 273.027344 160.210938 272.769531 160.039062 C 272.507812 159.871094 272.378906 159.613281 272.378906 159.269531 C 272.378906 158.839844 272.492188 158.464844 272.722656 158.136719 C 272.953125 157.808594 273.246094 157.527344 273.609375 157.296875 C 273.96875 157.0625 274.386719 156.882812 274.859375 156.761719 C 275.332031 156.636719 275.8125 156.574219 276.296875 156.574219 C 276.816406 156.574219 277.320312 156.636719 277.808594 156.761719 C 278.292969 156.882812 278.75 157.074219 279.183594 157.328125 C 279.535156 157.550781 279.828125 157.824219 280.070312 158.148438 C 280.308594 158.476562 280.429688 158.839844 280.429688 159.25 C 280.429688 159.660156 280.347656 160.046875 280.179688 160.410156 C 280.015625 160.773438 279.796875 161.097656 279.523438 161.390625 C 279.25 161.683594 278.925781 161.941406 278.546875 162.164062 C 278.167969 162.386719 277.882812 162.523438 277.695312 162.582031 C 277.855469 162.601562 278.132812 162.6875 278.527344 162.84375 C 278.917969 162.996094 279.292969 163.203125 279.648438 163.460938 C 280.066406 163.78125 280.402344 164.167969 280.652344 164.613281 C 280.898438 165.0625 281.023438 165.53125 281.023438 166.023438 Z M 281.023438 166.023438 "/>
<path style="fill:none;stroke-width:15;stroke-linecap:round;stroke-linejoin:round;stroke:rgb(0%,0%,0%);stroke-opacity:1;stroke-miterlimit:10;" d="M 1601.167628 588.48635 L 1601.167628 112.508755 " transform="matrix(0.133106,0,0,-0.132991,0,289.5486)"/>
<path style="fill:none;stroke-width:15;stroke-linecap:round;stroke-linejoin:round;stroke:rgb(0%,0%,0%);stroke-opacity:1;stroke-miterlimit:10;" d="M 2887.853725 1523.552486 L 3303.37668 1523.552486 " transform="matrix(0.133106,0,0,-0.132991,0,289.5486)"/>
<path style="fill:none;stroke-width:22.5;stroke-linecap:round;stroke-linejoin:round;stroke:rgb(0%,0%,0%);stroke-opacity:1;stroke-miterlimit:10;" d="M 3303.37668 1592.988526 L 3303.37668 1454.116446 " transform="matrix(0.133106,0,0,-0.132991,0,289.5486)"/>
<path style="fill:none;stroke-width:15;stroke-linecap:round;stroke-linejoin:round;stroke:rgb(0%,0%,0%);stroke-opacity:1;stroke-miterlimit:10;" d="M 3385.958896 1654.670288 L 3385.958896 1392.434684 " transform="matrix(0.133106,0,0,-0.132991,0,289.5486)"/>
<path style="fill:none;stroke-width:15;stroke-linecap:round;stroke-linejoin:round;stroke:rgb(0%,0%,0%);stroke-opacity:1;stroke-miterlimit:10;" d="M 3385.958896 1523.552486 L 3827.45387 1523.552486 " transform="matrix(0.133106,0,0,-0.132991,0,289.5486)"/>
</g>
</svg>
