<?xml version="1.0" encoding="UTF-8"?>
<svg xmlns="http://www.w3.org/2000/svg" xmlns:xlink="http://www.w3.org/1999/xlink" width="394.02pt" height="261pt" viewBox="0 0 394.02 261" version="1.1">
<g id="surface1">
<path style="fill:none;stroke-width:15;stroke-linecap:round;stroke-linejoin:round;stroke:rgb(0%,0%,0%);stroke-opacity:1;stroke-miterlimit:10;" d="M 1847.915952 2334.503617 L 1847.915952 1986.404427 " transform="matrix(0.106437,0,0,-0.106538,0,262.9487)"/>
<path style=" stroke:none;fill-rule:evenodd;fill:rgb(0%,0%,0%);fill-opacity:1;" d="M 200.519531 51.320312 C 200.519531 53.441406 198.804688 55.15625 196.6875 55.15625 C 194.570312 55.15625 192.855469 53.441406 192.855469 51.320312 C 192.855469 49.203125 194.570312 47.488281 196.6875 47.488281 C 198.804688 47.488281 200.519531 49.203125 200.519531 51.320312 Z M 200.519531 51.320312 "/>
<path style=" stroke:none;fill-rule:evenodd;fill:rgb(0%,0%,0%);fill-opacity:1;" d="M 227.492188 37.859375 C 227.472656 37.949219 227.421875 38.027344 227.347656 38.085938 C 227.273438 38.148438 227.179688 38.179688 227.074219 38.179688 C 226.816406 38.179688 226.566406 38.199219 226.320312 38.238281 C 226.078125 38.277344 225.851562 38.371094 225.640625 38.515625 C 225.46875 38.621094 225.332031 38.757812 225.234375 38.929688 C 225.132812 39.101562 225.058594 39.28125 225.007812 39.476562 L 221.832031 51.847656 C 221.753906 52.054688 221.613281 52.160156 221.414062 52.160156 L 221.167969 52.160156 C 221.039062 52.160156 220.941406 52.105469 220.875 51.992188 C 220.066406 49.804688 219.261719 47.621094 218.460938 45.445312 C 217.660156 43.265625 216.894531 41.207031 216.164062 39.269531 L 213.386719 50.070312 C 213.34375 50.1875 213.324219 50.308594 213.324219 50.425781 C 213.324219 50.476562 213.328125 50.527344 213.34375 50.582031 C 213.367188 50.75 213.429688 50.882812 213.539062 50.980469 C 213.667969 51.105469 213.839844 51.1875 214.054688 51.230469 C 214.269531 51.273438 214.515625 51.292969 214.785156 51.292969 C 214.988281 51.292969 215.085938 51.378906 215.085938 51.542969 C 215.085938 51.585938 215.082031 51.632812 215.066406 51.679688 L 215.023438 51.835938 C 215 51.933594 214.949219 52.011719 214.867188 52.070312 C 214.785156 52.132812 214.695312 52.160156 214.601562 52.160156 C 213.886719 52.121094 213.160156 52.097656 212.417969 52.097656 C 211.6875 52.097656 210.949219 52.121094 210.203125 52.160156 C 210.09375 52.160156 210.015625 52.128906 209.964844 52.066406 C 209.917969 52.019531 209.890625 51.964844 209.890625 51.910156 C 209.890625 51.867188 209.898438 51.828125 209.910156 51.785156 L 209.957031 51.628906 C 209.976562 51.539062 210.027344 51.460938 210.105469 51.394531 C 210.183594 51.328125 210.273438 51.292969 210.375 51.292969 C 210.648438 51.292969 210.902344 51.273438 211.140625 51.230469 C 211.375 51.1875 211.601562 51.101562 211.816406 50.96875 C 211.980469 50.863281 212.113281 50.726562 212.214844 50.558594 C 212.316406 50.386719 212.394531 50.203125 212.453125 50.007812 L 215.464844 38.285156 C 215.34375 38.246094 215.121094 38.21875 214.800781 38.203125 C 214.484375 38.191406 214.144531 38.179688 213.785156 38.179688 C 213.679688 38.179688 213.597656 38.148438 213.546875 38.078125 C 213.503906 38.035156 213.484375 37.984375 213.484375 37.917969 C 213.484375 37.878906 213.496094 37.839844 213.515625 37.804688 L 213.546875 37.636719 C 213.628906 37.429688 213.765625 37.324219 213.96875 37.324219 L 217.335938 37.324219 C 217.472656 37.324219 217.5625 37.378906 217.605469 37.492188 L 221.703125 48.554688 L 224.0625 39.414062 C 224.105469 39.289062 224.125 39.164062 224.125 39.039062 C 224.125 38.824219 224.058594 38.644531 223.921875 38.503906 C 223.769531 38.359375 223.59375 38.269531 223.386719 38.234375 C 223.183594 38.199219 222.945312 38.179688 222.671875 38.179688 C 222.566406 38.179688 222.488281 38.148438 222.4375 38.085938 C 222.386719 38.039062 222.359375 37.984375 222.359375 37.917969 C 222.359375 37.878906 222.371094 37.839844 222.390625 37.804688 L 222.425781 37.636719 C 222.503906 37.429688 222.644531 37.324219 222.84375 37.324219 C 223.578125 37.351562 224.3125 37.367188 225.050781 37.367188 C 225.78125 37.367188 226.515625 37.351562 227.253906 37.324219 C 227.355469 37.324219 227.441406 37.359375 227.515625 37.429688 C 227.542969 37.484375 227.558594 37.535156 227.558594 37.585938 C 227.558594 37.628906 227.546875 37.664062 227.527344 37.699219 Z M 227.492188 37.859375 "/>
<path style="fill:none;stroke-width:15;stroke-linecap:round;stroke-linejoin:round;stroke:rgb(0%,0%,0%);stroke-opacity:1;stroke-miterlimit:10;" d="M 1847.915952 1986.404427 L 1524.332481 1638.268571 " transform="matrix(0.106437,0,0,-0.106538,0,262.9487)"/>
<path style="fill:none;stroke-width:15;stroke-linecap:round;stroke-linejoin:round;stroke:rgb(0%,0%,0%);stroke-opacity:1;stroke-miterlimit:10;" d="M 1148.928678 1317.558267 L 1483.522135 1676.327024 L 1565.142827 1600.210117 L 1230.54937 1241.44136 Z M 1148.928678 1317.558267 " transform="matrix(0.106437,0,0,-0.106538,0,262.9487)"/>
<path style="fill:none;stroke-width:15;stroke-linecap:round;stroke-linejoin:round;stroke:rgb(0%,0%,0%);stroke-opacity:1;stroke-miterlimit:10;" d="M 1185.44513 1276.016622 L 1023.671744 1101.930361 " transform="matrix(0.106437,0,0,-0.106538,0,262.9487)"/>
<path style=" stroke:none;fill-rule:evenodd;fill:rgb(0%,0%,0%);fill-opacity:1;" d="M 112.789062 145.550781 C 112.789062 147.667969 111.074219 149.386719 108.957031 149.386719 C 106.839844 149.386719 105.125 147.667969 105.125 145.550781 C 105.125 143.433594 106.839844 141.714844 108.957031 141.714844 C 111.074219 141.714844 112.789062 143.433594 112.789062 145.550781 Z M 112.789062 145.550781 "/>
<path style=" stroke:none;fill-rule:evenodd;fill:rgb(0%,0%,0%);fill-opacity:1;" d="M 104.703125 127.609375 C 104.660156 127.824219 104.527344 127.933594 104.304688 127.933594 C 103.96875 127.933594 103.648438 127.941406 103.347656 127.953125 C 103.046875 127.96875 102.828125 128.003906 102.691406 128.0625 C 102.554688 128.121094 102.445312 128.304688 102.367188 128.613281 L 99.34375 140.394531 C 99.300781 140.550781 99.28125 140.671875 99.28125 140.761719 C 99.28125 140.84375 99.300781 140.898438 99.34375 140.917969 C 99.445312 140.980469 99.640625 141.019531 99.929688 141.027344 C 100.222656 141.039062 100.535156 141.042969 100.871094 141.042969 C 101.074219 141.042969 101.175781 141.128906 101.175781 141.292969 C 101.175781 141.335938 101.167969 141.382812 101.152344 141.429688 L 101.109375 141.585938 C 101.089844 141.679688 101.039062 141.753906 100.964844 141.816406 C 100.890625 141.878906 100.800781 141.910156 100.699219 141.910156 C 99.847656 141.871094 98.980469 141.847656 98.097656 141.847656 C 97.214844 141.847656 96.324219 141.871094 95.429688 141.910156 C 95.242188 141.910156 95.148438 141.820312 95.148438 141.640625 L 95.148438 141.554688 L 95.191406 141.378906 C 95.25 141.148438 95.390625 141.035156 95.609375 141.042969 C 95.949219 141.042969 96.265625 141.039062 96.558594 141.027344 C 96.851562 141.019531 97.070312 140.980469 97.214844 140.917969 C 97.34375 140.847656 97.449219 140.660156 97.527344 140.351562 L 100.550781 128.671875 L 92.554688 141.617188 C 92.449219 141.8125 92.28125 141.910156 92.058594 141.910156 L 91.953125 141.910156 C 91.730469 141.910156 91.597656 141.800781 91.554688 141.578125 L 90.253906 128.789062 L 87.421875 139.820312 C 87.378906 139.945312 87.359375 140.078125 87.359375 140.21875 C 87.359375 140.253906 87.367188 140.292969 87.378906 140.332031 C 87.394531 140.5 87.453125 140.632812 87.550781 140.730469 C 87.679688 140.855469 87.855469 140.941406 88.070312 140.980469 C 88.285156 141.023438 88.527344 141.042969 88.800781 141.042969 C 89 141.042969 89.101562 141.128906 89.101562 141.292969 C 89.101562 141.335938 89.09375 141.382812 89.078125 141.429688 L 89.039062 141.585938 C 89.015625 141.679688 88.96875 141.753906 88.890625 141.816406 C 88.816406 141.878906 88.726562 141.910156 88.617188 141.910156 C 87.902344 141.871094 87.175781 141.847656 86.445312 141.847656 C 85.710938 141.847656 84.96875 141.871094 84.21875 141.910156 C 84.109375 141.910156 84.03125 141.878906 83.980469 141.816406 C 83.929688 141.769531 83.90625 141.714844 83.90625 141.660156 C 83.90625 141.617188 83.914062 141.578125 83.925781 141.535156 L 83.96875 141.378906 C 84.027344 141.148438 84.167969 141.035156 84.390625 141.042969 C 84.660156 141.042969 84.917969 141.023438 85.160156 140.980469 C 85.398438 140.941406 85.625 140.851562 85.832031 140.71875 C 85.996094 140.613281 86.128906 140.476562 86.234375 140.308594 C 86.339844 140.136719 86.414062 139.953125 86.464844 139.757812 L 89.347656 128.570312 C 89.390625 128.414062 89.414062 128.296875 89.414062 128.214844 C 89.414062 128.128906 89.394531 128.082031 89.359375 128.066406 C 89.257812 128.007812 89.0625 127.96875 88.773438 127.953125 C 88.484375 127.941406 88.167969 127.933594 87.832031 127.933594 C 87.640625 127.933594 87.535156 127.839844 87.519531 127.648438 L 87.519531 127.574219 L 87.5625 127.386719 C 87.640625 127.179688 87.78125 127.074219 87.980469 127.074219 L 91.46875 127.074219 C 91.699219 127.074219 91.828125 127.1875 91.855469 127.410156 L 93.082031 139.359375 L 100.484375 127.367188 C 100.59375 127.171875 100.757812 127.074219 100.980469 127.074219 L 104.46875 127.074219 C 104.566406 127.074219 104.652344 127.109375 104.726562 127.179688 C 104.753906 127.234375 104.765625 127.285156 104.765625 127.335938 C 104.765625 127.378906 104.757812 127.417969 104.734375 127.449219 Z M 104.703125 127.609375 "/>
<path style=" stroke:none;fill-rule:nonzero;fill:rgb(0%,0%,0%);fill-opacity:1;" d="M 113.125 111.320312 L 141.945312 78.878906 L 143.136719 79.941406 L 114.316406 112.382812 C 114.023438 112.710938 113.519531 112.742188 113.191406 112.449219 C 112.859375 112.152344 112.832031 111.648438 113.125 111.320312 Z M 151.019531 69.867188 L 136.832031 78.625 L 141.9375 78.890625 L 143.128906 79.953125 L 143.992188 84.996094 Z M 151.019531 69.867188 "/>
<path style=" stroke:none;fill-rule:evenodd;fill:rgb(0%,0%,0%);fill-opacity:1;" d="M 128.066406 61.070312 C 128.042969 61.160156 127.996094 61.238281 127.921875 61.300781 C 127.84375 61.363281 127.753906 61.394531 127.644531 61.394531 C 127.308594 61.394531 126.980469 61.402344 126.65625 61.417969 C 126.332031 61.429688 126.101562 61.46875 125.957031 61.53125 C 125.804688 61.578125 125.695312 61.761719 125.621094 62.074219 L 122.597656 73.859375 C 122.570312 73.992188 122.554688 74.105469 122.554688 74.203125 C 122.554688 74.300781 122.574219 74.363281 122.609375 74.382812 C 122.710938 74.445312 122.917969 74.480469 123.234375 74.492188 C 123.550781 74.503906 123.882812 74.507812 124.234375 74.507812 C 124.4375 74.507812 124.535156 74.589844 124.535156 74.757812 C 124.535156 74.800781 124.527344 74.84375 124.515625 74.894531 L 124.472656 75.0625 C 124.394531 75.269531 124.257812 75.375 124.0625 75.375 C 123.136719 75.332031 122.199219 75.3125 121.253906 75.3125 C 120.316406 75.3125 119.359375 75.332031 118.390625 75.375 C 118.207031 75.375 118.113281 75.285156 118.113281 75.101562 L 118.113281 75.019531 L 118.15625 74.839844 C 118.214844 74.613281 118.351562 74.5 118.574219 74.507812 C 118.925781 74.507812 119.265625 74.503906 119.585938 74.492188 C 119.910156 74.480469 120.140625 74.445312 120.285156 74.382812 C 120.414062 74.3125 120.519531 74.125 120.597656 73.816406 L 123.644531 62.035156 C 123.671875 61.902344 123.6875 61.796875 123.6875 61.71875 C 123.6875 61.617188 123.667969 61.550781 123.632812 61.519531 C 123.519531 61.464844 123.304688 61.429688 122.988281 61.417969 C 122.671875 61.402344 122.34375 61.394531 122.007812 61.394531 C 121.804688 61.394531 121.707031 61.300781 121.707031 61.113281 L 121.707031 61.039062 L 121.75 60.851562 C 121.828125 60.640625 121.964844 60.539062 122.15625 60.539062 C 123.097656 60.566406 124.042969 60.582031 124.988281 60.582031 C 125.941406 60.582031 126.890625 60.566406 127.828125 60.539062 C 127.929688 60.539062 128.015625 60.574219 128.085938 60.640625 C 128.117188 60.699219 128.128906 60.75 128.128906 60.800781 C 128.128906 60.84375 128.121094 60.878906 128.097656 60.914062 Z M 128.066406 61.070312 "/>
<path style=" stroke:none;fill-rule:evenodd;fill:rgb(0%,0%,0%);fill-opacity:1;" d="M 132.902344 78.414062 C 132.074219 78.390625 131.269531 78.375 130.488281 78.375 C 129.707031 78.375 128.898438 78.386719 128.074219 78.410156 L 128.074219 77.910156 L 128.539062 77.910156 C 128.6875 77.910156 128.824219 77.90625 128.957031 77.902344 C 129.085938 77.898438 129.210938 77.890625 129.328125 77.875 C 129.445312 77.859375 129.546875 77.84375 129.632812 77.828125 C 129.703125 77.816406 129.761719 77.78125 129.808594 77.71875 C 129.855469 77.660156 129.878906 77.589844 129.878906 77.515625 L 129.878906 70.917969 C 129.65625 71.015625 129.378906 71.089844 129.050781 71.140625 C 128.722656 71.191406 128.363281 71.214844 127.972656 71.214844 L 127.972656 70.71875 C 128.511719 70.71875 129.007812 70.660156 129.464844 70.546875 C 129.921875 70.429688 130.316406 70.214844 130.648438 69.898438 L 130.859375 69.898438 C 131.007812 69.898438 131.082031 69.964844 131.082031 70.089844 L 131.082031 77.515625 C 131.082031 77.59375 131.105469 77.664062 131.148438 77.722656 C 131.195312 77.78125 131.261719 77.816406 131.34375 77.828125 C 131.417969 77.84375 131.507812 77.859375 131.621094 77.875 C 131.734375 77.890625 131.859375 77.898438 132.003906 77.902344 C 132.144531 77.90625 132.28125 77.910156 132.417969 77.910156 L 132.902344 77.910156 Z M 132.902344 78.414062 "/>
<path style="fill:none;stroke-width:15;stroke-linecap:round;stroke-linejoin:round;stroke:rgb(0%,0%,0%);stroke-opacity:1;stroke-miterlimit:10;" d="M 1005.395168 1085.174375 L 812.133224 877.282822 " transform="matrix(0.106437,0,0,-0.106538,0,262.9487)"/>
<path style="fill:none;stroke-width:15;stroke-linecap:round;stroke-linejoin:round;stroke:rgb(0%,0%,0%);stroke-opacity:1;stroke-miterlimit:10;" d="M 686.58269 981.228598 L 937.683758 768.13059 " transform="matrix(0.106437,0,0,-0.106538,0,262.9487)"/>
<path style="fill:none;stroke-width:22.5;stroke-linecap:round;stroke-linejoin:round;stroke:rgb(0%,0%,0%);stroke-opacity:1;stroke-miterlimit:10;" d="M 679.903299 860.673496 L 820.647613 741.21835 " transform="matrix(0.106437,0,0,-0.106538,0,262.9487)"/>
<path style="fill:none;stroke-width:15;stroke-linecap:round;stroke-linejoin:round;stroke:rgb(0%,0%,0%);stroke-opacity:1;stroke-miterlimit:10;" d="M 743.430915 795.959459 L 517.983114 553.382648 " transform="matrix(0.106437,0,0,-0.106538,0,262.9487)"/>
<path style=" stroke:none;fill-rule:evenodd;fill:rgb(0%,0%,0%);fill-opacity:1;" d="M 58.960938 203.992188 C 58.960938 206.113281 57.246094 207.828125 55.128906 207.828125 C 53.015625 207.828125 51.296875 206.113281 51.296875 203.992188 C 51.296875 201.875 53.015625 200.15625 55.128906 200.15625 C 57.246094 200.15625 58.960938 201.875 58.960938 203.992188 Z M 58.960938 203.992188 "/>
<path style="fill:none;stroke-width:15;stroke-linecap:round;stroke-linejoin:round;stroke:rgb(0%,0%,0%);stroke-opacity:1;stroke-miterlimit:10;" d="M 517.983114 553.382648 L 112.485351 409.398498 " transform="matrix(0.106437,0,0,-0.106538,0,262.9487)"/>
<path style=" stroke:none;fill-rule:evenodd;fill:rgb(0%,0%,0%);fill-opacity:1;" d="M 58.789062 234.125 C 58.726562 234.316406 58.585938 234.410156 58.371094 234.410156 L 48.332031 234.410156 C 48.222656 234.410156 48.144531 234.378906 48.09375 234.316406 C 48.046875 234.265625 48.019531 234.214844 48.019531 234.15625 C 48.019531 234.117188 48.027344 234.074219 48.042969 234.03125 L 48.085938 233.875 C 48.105469 233.785156 48.15625 233.707031 48.234375 233.640625 C 48.3125 233.574219 48.402344 233.542969 48.503906 233.539062 C 48.839844 233.542969 49.15625 233.535156 49.449219 233.527344 C 49.746094 233.515625 49.96875 233.480469 50.117188 233.414062 C 50.246094 233.347656 50.347656 233.15625 50.417969 232.851562 L 53.464844 221.066406 C 53.492188 220.933594 53.507812 220.828125 53.507812 220.753906 C 53.507812 220.648438 53.484375 220.582031 53.441406 220.554688 C 53.347656 220.5 53.15625 220.464844 52.863281 220.449219 C 52.566406 220.4375 52.25 220.429688 51.914062 220.429688 C 51.808594 220.429688 51.726562 220.394531 51.679688 220.324219 C 51.632812 220.28125 51.613281 220.230469 51.613281 220.167969 C 51.613281 220.125 51.625 220.089844 51.644531 220.050781 L 51.679688 219.886719 C 51.757812 219.675781 51.894531 219.574219 52.097656 219.570312 C 52.9375 219.613281 53.78125 219.632812 54.625 219.632812 C 54.769531 219.632812 54.917969 219.628906 55.066406 219.613281 C 56.050781 219.613281 57.050781 219.601562 58.070312 219.570312 C 58.167969 219.574219 58.253906 219.605469 58.328125 219.675781 C 58.355469 219.734375 58.371094 219.785156 58.371094 219.832031 C 58.371094 219.875 58.359375 219.914062 58.339844 219.949219 L 58.304688 220.105469 C 58.285156 220.195312 58.234375 220.273438 58.160156 220.335938 C 58.085938 220.398438 57.992188 220.429688 57.886719 220.429688 C 57.492188 220.429688 57.09375 220.4375 56.695312 220.449219 C 56.300781 220.464844 56.007812 220.503906 55.820312 220.566406 C 55.640625 220.636719 55.515625 220.816406 55.445312 221.109375 L 52.421875 232.902344 C 52.347656 233.148438 52.3125 233.328125 52.3125 233.445312 L 52.3125 233.488281 C 52.339844 233.515625 52.542969 233.535156 52.914062 233.539062 L 54.808594 233.539062 C 55.316406 233.542969 55.828125 233.46875 56.332031 233.320312 C 56.835938 233.175781 57.296875 232.925781 57.714844 232.570312 C 58.214844 232.171875 58.621094 231.648438 58.925781 230.996094 C 59.230469 230.34375 59.515625 229.671875 59.78125 228.980469 C 59.835938 228.792969 59.964844 228.699219 60.15625 228.699219 L 60.359375 228.699219 C 60.546875 228.699219 60.640625 228.792969 60.640625 228.972656 L 60.640625 229.054688 Z M 58.789062 234.125 "/>
<path style=" stroke:none;fill-rule:evenodd;fill:rgb(0%,0%,0%);fill-opacity:1;" d="M 200.226562 51.558594 C 200.226562 53.675781 198.507812 55.394531 196.394531 55.394531 C 194.277344 55.394531 192.5625 53.675781 192.5625 51.558594 C 192.5625 49.4375 194.277344 47.722656 196.394531 47.722656 C 198.507812 47.722656 200.226562 49.4375 200.226562 51.558594 Z M 200.226562 51.558594 "/>
<path style="fill:none;stroke-width:15;stroke-linecap:round;stroke-linejoin:round;stroke:rgb(0%,0%,0%);stroke-opacity:1;stroke-miterlimit:10;" d="M 1845.163456 1986.404427 L 2168.710227 1638.268571 " transform="matrix(0.106437,0,0,-0.106538,0,262.9487)"/>
<path style="fill:none;stroke-width:15;stroke-linecap:round;stroke-linejoin:round;stroke:rgb(0%,0%,0%);stroke-opacity:1;stroke-miterlimit:10;" d="M 2294.260761 1742.617665 L 2043.159693 1529.48299 " transform="matrix(0.106437,0,0,-0.106538,0,262.9487)"/>
<path style="fill:none;stroke-width:22.5;stroke-linecap:round;stroke-linejoin:round;stroke:rgb(0%,0%,0%);stroke-opacity:1;stroke-miterlimit:10;" d="M 2300.940152 1622.062562 L 2160.195838 1502.607416 " transform="matrix(0.106437,0,0,-0.106538,0,262.9487)"/>
<path style="fill:none;stroke-width:15;stroke-linecap:round;stroke-linejoin:round;stroke:rgb(0%,0%,0%);stroke-opacity:1;stroke-miterlimit:10;" d="M 2237.412536 1557.31186 L 2462.860337 1314.735049 " transform="matrix(0.106437,0,0,-0.106538,0,262.9487)"/>
<path style="fill:none;stroke-width:15;stroke-linecap:round;stroke-linejoin:round;stroke:rgb(0%,0%,0%);stroke-opacity:1;stroke-miterlimit:10;" d="M 2905.388351 759.660934 L 2570.758194 1118.429691 L 2652.415586 1194.546598 L 2987.009043 835.814506 Z M 2905.388351 759.660934 " transform="matrix(0.106437,0,0,-0.106538,0,262.9487)"/>
<path style="fill:none;stroke-width:15;stroke-linecap:round;stroke-linejoin:round;stroke:rgb(0%,0%,0%);stroke-opacity:1;stroke-miterlimit:10;" d="M 2950.492591 794.236196 L 3184.674981 542.273099 " transform="matrix(0.106437,0,0,-0.106538,0,262.9487)"/>
<path style=" stroke:none;fill-rule:nonzero;fill:rgb(0%,0%,0%);fill-opacity:1;" d="M 289.796875 120.664062 L 318.617188 153.101562 L 317.421875 154.164062 L 288.601562 121.722656 C 288.308594 121.394531 288.339844 120.890625 288.667969 120.597656 C 288.996094 120.300781 289.503906 120.332031 289.796875 120.664062 Z M 326.5 163.175781 L 319.46875 148.050781 L 318.609375 153.09375 L 317.414062 154.15625 L 312.308594 154.421875 Z M 326.5 163.175781 "/>
<path style=" stroke:none;fill-rule:evenodd;fill:rgb(0%,0%,0%);fill-opacity:1;" d="M 265.972656 122.878906 C 265.972656 124.996094 264.257812 126.710938 262.140625 126.710938 C 260.023438 126.710938 258.308594 124.996094 258.308594 122.878906 C 258.308594 120.757812 260.023438 119.042969 262.140625 119.042969 C 264.257812 119.042969 265.972656 120.757812 265.972656 122.878906 Z M 265.972656 122.878906 "/>
<path style=" stroke:none;fill-rule:evenodd;fill:rgb(0%,0%,0%);fill-opacity:1;" d="M 282.589844 110.144531 C 282.332031 111.15625 281.914062 112.132812 281.335938 113.070312 C 280.757812 114.011719 280.03125 114.875 279.15625 115.65625 C 278.367188 116.359375 277.503906 116.917969 276.570312 117.332031 C 275.632812 117.746094 274.695312 117.953125 273.753906 117.953125 C 272.808594 117.953125 271.96875 117.746094 271.230469 117.328125 C 270.496094 116.910156 269.910156 116.34375 269.472656 115.632812 C 268.992188 114.847656 268.714844 113.976562 268.644531 113.019531 C 268.617188 112.789062 268.601562 112.558594 268.601562 112.328125 C 268.601562 111.613281 268.695312 110.871094 268.878906 110.101562 C 269.152344 109.078125 269.574219 108.082031 270.144531 107.117188 C 270.714844 106.152344 271.445312 105.28125 272.335938 104.496094 C 273.125 103.792969 273.984375 103.226562 274.921875 102.800781 C 275.859375 102.371094 276.804688 102.15625 277.757812 102.15625 C 278.703125 102.15625 279.542969 102.375 280.269531 102.804688 C 281 103.234375 281.582031 103.808594 282.019531 104.519531 C 282.5 105.308594 282.78125 106.183594 282.867188 107.152344 C 282.882812 107.390625 282.890625 107.625 282.890625 107.855469 C 282.890625 108.601562 282.789062 109.363281 282.589844 110.144531 Z M 280.414062 104.875 C 280.179688 104.289062 279.824219 103.8125 279.351562 103.445312 C 278.875 103.082031 278.296875 102.898438 277.605469 102.898438 C 276.925781 102.898438 276.246094 103.085938 275.574219 103.457031 C 274.898438 103.832031 274.296875 104.3125 273.765625 104.90625 C 273.097656 105.625 272.570312 106.402344 272.183594 107.242188 C 271.796875 108.082031 271.496094 108.933594 271.28125 109.796875 C 271.03125 110.742188 270.875 111.65625 270.816406 112.546875 C 270.804688 112.714844 270.796875 112.882812 270.796875 113.050781 C 270.796875 113.75 270.910156 114.429688 271.140625 115.101562 C 271.363281 115.695312 271.703125 116.191406 272.164062 116.589844 C 272.621094 116.992188 273.195312 117.191406 273.882812 117.191406 C 274.59375 117.191406 275.289062 116.988281 275.964844 116.582031 C 276.644531 116.171875 277.253906 115.667969 277.789062 115.070312 C 278.484375 114.261719 279.027344 113.40625 279.414062 112.507812 C 279.800781 111.609375 280.117188 110.691406 280.359375 109.757812 C 280.582031 108.886719 280.722656 108.027344 280.78125 107.183594 L 280.78125 106.820312 C 280.78125 106.125 280.660156 105.472656 280.414062 104.875 Z M 280.414062 104.875 "/>
<path style="fill:none;stroke-width:15;stroke-linecap:round;stroke-linejoin:round;stroke:rgb(0%,0%,0%);stroke-opacity:1;stroke-miterlimit:10;" d="M 2485.467507 1288.0428 L 2609.990442 1154.068243 " transform="matrix(0.106437,0,0,-0.106538,0,262.9487)"/>
<path style=" stroke:none;fill-rule:evenodd;fill:rgb(0%,0%,0%);fill-opacity:1;" d="M 342.800781 203.992188 C 342.800781 206.113281 341.082031 207.828125 338.96875 207.828125 C 336.851562 207.828125 335.136719 206.113281 335.136719 203.992188 C 335.136719 201.875 336.851562 200.15625 338.96875 200.15625 C 341.082031 200.15625 342.800781 201.875 342.800781 203.992188 Z M 342.800781 203.992188 "/>
<path style=" stroke:none;fill-rule:evenodd;fill:rgb(0%,0%,0%);fill-opacity:1;" d="M 344.953125 223.679688 C 344.792969 224.246094 344.523438 224.769531 344.144531 225.246094 C 343.765625 225.722656 343.3125 226.136719 342.789062 226.484375 C 342.222656 226.875 341.617188 227.167969 340.976562 227.367188 C 340.332031 227.566406 339.699219 227.664062 339.066406 227.664062 L 335.871094 227.664062 L 334.523438 232.894531 C 334.480469 233.046875 334.460938 233.167969 334.460938 233.257812 C 334.460938 233.34375 334.480469 233.394531 334.515625 233.414062 C 334.617188 233.480469 334.8125 233.515625 335.105469 233.527344 C 335.402344 233.535156 335.714844 233.542969 336.054688 233.539062 C 336.253906 233.542969 336.355469 233.640625 336.355469 233.832031 L 336.355469 233.90625 L 336.3125 234.09375 C 336.234375 234.304688 336.09375 234.410156 335.890625 234.410156 C 334.996094 234.367188 334.09375 234.347656 333.191406 234.347656 C 332.28125 234.347656 331.371094 234.367188 330.457031 234.410156 C 330.265625 234.410156 330.160156 234.320312 330.144531 234.136719 L 330.144531 234.054688 L 330.1875 233.875 C 330.246094 233.644531 330.386719 233.535156 330.609375 233.539062 C 330.945312 233.542969 331.265625 233.535156 331.566406 233.527344 C 331.867188 233.515625 332.089844 233.480469 332.234375 233.414062 C 332.371094 233.339844 332.472656 233.152344 332.546875 232.851562 L 335.570312 221.066406 C 335.613281 220.914062 335.632812 220.796875 335.632812 220.710938 C 335.632812 220.628906 335.617188 220.578125 335.578125 220.566406 C 335.480469 220.503906 335.285156 220.464844 334.992188 220.449219 C 334.703125 220.4375 334.386719 220.429688 334.039062 220.429688 C 333.839844 220.429688 333.738281 220.335938 333.738281 220.144531 L 333.738281 220.0625 L 333.804688 219.886719 C 333.847656 219.675781 333.980469 219.574219 334.203125 219.570312 L 341.097656 219.570312 C 341.730469 219.574219 342.316406 219.671875 342.859375 219.871094 C 343.402344 220.070312 343.863281 220.367188 344.25 220.765625 C 344.601562 221.132812 344.851562 221.574219 344.996094 222.082031 C 345.039062 222.320312 345.058594 222.558594 345.058594 222.804688 C 345.058594 223.082031 345.023438 223.375 344.953125 223.679688 Z M 342.660156 223.628906 C 342.78125 223.191406 342.863281 222.765625 342.90625 222.351562 L 342.90625 222.164062 C 342.90625 221.84375 342.816406 221.550781 342.636719 221.285156 C 342.402344 220.972656 342.085938 220.753906 341.691406 220.625 C 341.296875 220.496094 340.871094 220.429688 340.410156 220.429688 L 338.386719 220.429688 C 338.023438 220.429688 337.804688 220.457031 337.730469 220.511719 C 337.660156 220.570312 337.585938 220.769531 337.503906 221.109375 L 336.011719 226.878906 L 338.699219 226.878906 C 339.164062 226.882812 339.632812 226.816406 340.097656 226.683594 C 340.566406 226.550781 341.003906 226.324219 341.410156 226.003906 C 341.777344 225.6875 342.046875 225.324219 342.222656 224.90625 C 342.398438 224.488281 342.542969 224.0625 342.660156 223.628906 Z M 342.660156 223.628906 "/>
<path style="fill:none;stroke-width:15;stroke-linecap:round;stroke-linejoin:round;stroke:rgb(0%,0%,0%);stroke-opacity:1;stroke-miterlimit:10;" d="M 3184.674981 553.382648 L 3584.851251 409.398498 " transform="matrix(0.106437,0,0,-0.106538,0,262.9487)"/>
<path style="fill:none;stroke-width:15;stroke-linecap:round;stroke-linejoin:round;stroke:rgb(0%,0%,0%);stroke-opacity:1;stroke-miterlimit:10;" d="M 517.983114 553.382648 L 1583.235903 553.382648 " transform="matrix(0.106437,0,0,-0.106538,0,262.9487)"/>
<path style="fill:none;stroke-width:15;stroke-linecap:round;stroke-linejoin:round;stroke:rgb(0%,0%,0%);stroke-opacity:1;stroke-miterlimit:10;" d="M 1583.235903 478.475691 L 2107.054309 478.475691 L 2107.054309 628.289604 L 1583.235903 628.289604 Z M 1583.235903 478.475691 " transform="matrix(0.106437,0,0,-0.106538,0,262.9487)"/>
<path style="fill:none;stroke-width:15;stroke-linecap:round;stroke-linejoin:round;stroke:rgb(0%,0%,0%);stroke-opacity:1;stroke-miterlimit:10;" d="M 2111.972102 553.382648 L 3179.390188 553.382648 " transform="matrix(0.106437,0,0,-0.106538,0,262.9487)"/>
<path style=" stroke:none;fill-rule:nonzero;fill:rgb(0%,0%,0%);fill-opacity:1;" d="M 237.386719 149.609375 L 237.46875 149.1875 L 237.628906 148.179688 L 237.761719 147.179688 L 237.871094 146.175781 L 237.953125 145.171875 L 238.015625 144.167969 L 238.050781 143.164062 L 238.0625 142.160156 L 238.046875 141.160156 L 238.007812 140.160156 L 237.949219 139.164062 L 237.863281 138.171875 L 237.753906 137.179688 L 237.621094 136.195312 L 237.464844 135.210938 L 237.285156 134.234375 L 237.082031 133.261719 L 236.855469 132.292969 L 236.605469 131.332031 L 236.335938 130.378906 L 236.039062 129.429688 L 235.722656 128.488281 L 235.382812 127.554688 L 235.023438 126.628906 L 234.640625 125.710938 L 234.234375 124.800781 L 233.804688 123.902344 L 233.355469 123.015625 L 232.886719 122.136719 L 232.390625 121.265625 L 231.878906 120.410156 L 231.34375 119.566406 L 230.789062 118.734375 L 230.210938 117.910156 L 229.609375 117.101562 L 228.992188 116.308594 L 228.351562 115.527344 L 227.691406 114.761719 L 227.011719 114.011719 L 226.3125 113.273438 L 225.59375 112.550781 L 224.851562 111.847656 L 224.089844 111.15625 L 223.3125 110.488281 L 222.511719 109.832031 L 221.691406 109.195312 L 220.855469 108.578125 L 219.996094 107.976562 L 219.121094 107.394531 L 218.226562 106.835938 L 217.3125 106.292969 L 216.382812 105.773438 L 215.4375 105.277344 L 214.484375 104.808594 L 213.527344 104.363281 L 212.5625 103.949219 L 211.589844 103.554688 L 210.617188 103.191406 L 209.632812 102.855469 L 208.652344 102.542969 L 207.664062 102.253906 L 206.667969 101.996094 L 205.675781 101.757812 L 204.679688 101.550781 L 203.679688 101.367188 L 202.679688 101.207031 L 201.675781 101.070312 L 200.671875 100.964844 L 199.671875 100.878906 L 198.667969 100.820312 L 197.664062 100.785156 L 196.664062 100.773438 L 195.664062 100.789062 L 194.664062 100.824219 L 193.671875 100.886719 L 192.675781 100.972656 L 191.6875 101.082031 L 190.703125 101.214844 L 189.71875 101.371094 L 188.742188 101.550781 L 187.773438 101.753906 L 186.804688 101.980469 L 185.84375 102.226562 L 184.890625 102.5 L 183.941406 102.792969 L 183 103.113281 L 182.070312 103.453125 L 181.144531 103.8125 L 180.226562 104.199219 L 179.320312 104.605469 L 178.421875 105.03125 L 177.535156 105.480469 L 176.65625 105.953125 L 175.789062 106.445312 L 174.933594 106.960938 L 174.089844 107.496094 L 173.253906 108.054688 L 172.4375 108.632812 L 171.628906 109.230469 L 170.835938 109.851562 L 170.054688 110.488281 L 169.289062 111.152344 L 168.539062 111.832031 L 167.800781 112.53125 L 167.082031 113.253906 L 166.378906 113.996094 L 165.691406 114.757812 L 165.019531 115.535156 L 164.363281 116.339844 L 163.730469 117.15625 L 163.109375 117.996094 L 162.511719 118.851562 L 161.933594 119.730469 L 161.371094 120.625 L 160.832031 121.539062 L 160.3125 122.472656 L 159.75 123.550781 L 159.21875 124.644531 L 158.722656 125.746094 L 158.261719 126.859375 L 157.832031 127.984375 L 157.4375 129.117188 L 157.074219 130.257812 L 156.746094 131.410156 L 156.453125 132.566406 L 156.195312 133.730469 L 155.96875 134.898438 L 155.777344 136.074219 L 155.617188 137.25 L 155.492188 138.433594 L 155.402344 139.617188 L 155.34375 140.800781 L 155.320312 141.988281 L 155.335938 143.179688 L 155.378906 144.363281 L 155.460938 145.550781 L 155.570312 146.734375 L 155.71875 147.917969 L 155.902344 149.09375 L 156.117188 150.269531 L 156.367188 151.4375 L 156.652344 152.601562 L 156.972656 153.757812 L 157.324219 154.910156 L 157.710938 156.050781 L 158.132812 157.1875 L 158.585938 158.308594 L 159.078125 159.421875 C 159.253906 159.828125 159.726562 160.011719 160.128906 159.832031 C 160.535156 159.65625 160.714844 159.183594 160.539062 158.78125 L 160.066406 157.707031 L 159.628906 156.628906 L 159.222656 155.539062 L 158.847656 154.441406 L 158.511719 153.335938 L 158.203125 152.222656 L 157.929688 151.105469 L 157.6875 149.980469 L 157.480469 148.851562 L 157.304688 147.71875 L 157.164062 146.582031 L 157.050781 145.441406 L 156.976562 144.304688 L 156.929688 143.160156 L 156.917969 142.019531 L 156.941406 140.878906 L 156.996094 139.738281 L 157.082031 138.597656 L 157.199219 137.464844 L 157.351562 136.332031 L 157.535156 135.203125 L 157.753906 134.078125 L 158.003906 132.960938 L 158.28125 131.847656 L 158.597656 130.742188 L 158.945312 129.640625 L 159.324219 128.550781 L 159.734375 127.472656 L 160.179688 126.402344 L 160.65625 125.339844 L 161.164062 124.292969 L 161.707031 123.253906 L 162.207031 122.355469 L 162.726562 121.472656 L 163.261719 120.613281 L 163.820312 119.769531 L 164.398438 118.945312 L 164.988281 118.136719 L 165.601562 117.347656 L 166.230469 116.578125 L 166.875 115.828125 L 167.535156 115.097656 L 168.210938 114.382812 L 168.902344 113.691406 L 169.609375 113.015625 L 170.332031 112.359375 L 171.066406 111.726562 L 171.816406 111.109375 L 172.578125 110.511719 L 173.355469 109.9375 L 174.144531 109.382812 L 174.945312 108.847656 L 175.753906 108.332031 L 176.578125 107.835938 L 177.410156 107.363281 L 178.257812 106.910156 L 179.109375 106.476562 L 179.972656 106.0625 L 180.84375 105.671875 L 181.726562 105.304688 L 182.613281 104.953125 L 183.511719 104.628906 L 184.414062 104.320312 L 185.328125 104.039062 L 186.246094 103.773438 L 187.167969 103.535156 L 188.097656 103.316406 L 189.03125 103.121094 L 189.972656 102.949219 L 190.914062 102.796875 L 191.863281 102.667969 L 192.816406 102.566406 L 193.769531 102.480469 L 194.726562 102.421875 L 195.683594 102.382812 L 196.644531 102.371094 L 197.609375 102.382812 L 198.574219 102.414062 L 199.535156 102.472656 L 200.5 102.550781 L 201.464844 102.65625 L 202.429688 102.785156 L 203.390625 102.9375 L 204.351562 103.113281 L 205.308594 103.316406 L 206.265625 103.539062 L 207.21875 103.789062 L 208.167969 104.066406 L 209.117188 104.367188 L 210.058594 104.6875 L 210.996094 105.039062 L 211.925781 105.414062 L 212.855469 105.816406 L 213.777344 106.242188 L 214.695312 106.691406 L 215.605469 107.171875 L 216.5 107.671875 L 217.378906 108.191406 L 218.242188 108.730469 L 219.082031 109.289062 L 219.910156 109.863281 L 220.714844 110.457031 L 221.5 111.070312 L 222.269531 111.699219 L 223.019531 112.34375 L 223.75 113.003906 L 224.460938 113.683594 L 225.15625 114.375 L 225.828125 115.082031 L 226.484375 115.804688 L 227.117188 116.542969 L 227.734375 117.292969 L 228.328125 118.054688 L 228.90625 118.832031 L 229.460938 119.621094 L 229.996094 120.421875 L 230.507812 121.234375 L 231.003906 122.058594 L 231.476562 122.890625 L 231.929688 123.734375 L 232.363281 124.589844 L 232.777344 125.457031 L 233.167969 126.328125 L 233.535156 127.210938 L 233.882812 128.101562 L 234.210938 128.996094 L 234.515625 129.902344 L 234.800781 130.8125 L 235.0625 131.734375 L 235.300781 132.660156 L 235.519531 133.589844 L 235.714844 134.523438 L 235.886719 135.464844 L 236.039062 136.410156 L 236.164062 137.359375 L 236.273438 138.308594 L 236.355469 139.265625 L 236.414062 140.222656 L 236.449219 141.183594 L 236.464844 142.144531 L 236.453125 143.109375 L 236.421875 144.070312 L 236.363281 145.039062 L 236.285156 146.003906 L 236.179688 146.96875 L 236.050781 147.933594 L 235.898438 148.890625 L 235.820312 149.3125 Z M 232.367188 161.507812 L 233.152344 144.84375 L 235.855469 149.183594 L 237.363281 149.714844 L 242.1875 148.027344 Z M 232.367188 161.507812 "/>
<path style=" stroke:none;fill-rule:evenodd;fill:rgb(0%,0%,0%);fill-opacity:1;" d="M 161.152344 145.972656 C 162.214844 145.890625 163.097656 145.824219 163.804688 145.777344 C 164.203125 145.09375 164.53125 144.410156 164.796875 143.714844 L 165.992188 144.617188 C 165.726562 144.75 165.441406 144.976562 165.132812 145.296875 C 164.824219 145.621094 164.335938 146.234375 163.671875 147.128906 C 163.011719 148.082031 162.324219 148.957031 161.617188 149.769531 C 163.078125 149.515625 164.335938 149.304688 165.394531 149.128906 L 165.460938 149.382812 C 164.753906 149.5625 164.027344 149.789062 163.273438 150.066406 C 162.527344 150.347656 161.90625 150.675781 161.414062 151.058594 L 160.554688 149.640625 C 160.910156 149.5625 161.300781 149.285156 161.71875 148.808594 C 162.136719 148.339844 162.765625 147.457031 163.605469 146.164062 C 163.164062 146.210938 162.691406 146.296875 162.179688 146.425781 C 161.671875 146.554688 161.199219 146.792969 160.757812 147.128906 L 160.09375 145.972656 C 160.492188 145.847656 160.945312 145.34375 161.453125 144.460938 C 161.957031 143.582031 162.433594 142.433594 162.875 141.011719 L 164.203125 141.785156 C 163.761719 142.046875 163.363281 142.496094 163.007812 143.136719 C 162.613281 143.828125 161.996094 144.769531 161.152344 145.972656 Z M 160.226562 153.25 C 160.667969 153.167969 161.3125 153.039062 162.148438 152.867188 C 162.988281 152.699219 164.136719 152.4375 165.59375 152.089844 L 165.660156 152.347656 C 164.425781 152.738281 163.386719 153.09375 162.546875 153.414062 C 161.710938 153.738281 161.179688 154.089844 160.953125 154.472656 Z M 165.660156 144.039062 L 168.378906 143.78125 C 168.289062 143.398438 168.199219 142.925781 168.113281 142.367188 C 168.023438 141.8125 167.960938 141.292969 167.914062 140.816406 L 169.4375 141.332031 L 168.972656 141.847656 C 169.0625 142.667969 169.148438 143.269531 169.238281 143.652344 L 172.550781 143.265625 L 173.28125 142.429688 L 174.542969 143.394531 L 169.304688 143.972656 C 169.527344 144.878906 169.859375 145.652344 170.300781 146.292969 C 170.875 145.910156 171.382812 145.535156 171.824219 145.167969 C 172.265625 144.808594 172.621094 144.429688 172.886719 144.039062 L 173.679688 145.199219 C 173.285156 145.285156 172.839844 145.492188 172.355469 145.8125 C 171.867188 146.136719 171.335938 146.492188 170.761719 146.871094 C 171.160156 147.21875 171.660156 147.480469 172.253906 147.648438 C 172.851562 147.824219 173.316406 147.929688 173.644531 147.972656 C 173.980469 148.015625 174.1875 147.796875 174.277344 147.324219 C 174.367188 146.898438 174.5 146.253906 174.671875 145.390625 L 174.9375 145.457031 C 174.898438 146.363281 174.898438 147.03125 174.941406 147.457031 C 174.984375 147.886719 175.136719 148.25 175.402344 148.546875 C 175.492188 148.679688 175.535156 148.765625 175.535156 148.804688 C 175.535156 148.980469 175.328125 149.066406 174.910156 149.066406 C 174.492188 149.066406 174.054688 149.027344 173.613281 148.9375 C 173.171875 148.851562 172.621094 148.691406 171.957031 148.453125 C 171.296875 148.222656 170.632812 147.824219 169.964844 147.257812 C 168.421875 147.953125 166.851562 148.359375 165.261719 148.484375 L 165.195312 148.289062 C 167.011719 147.863281 168.445312 147.347656 169.503906 146.742188 C 169.019531 145.976562 168.667969 145.09375 168.441406 144.101562 L 166.785156 144.296875 L 166.386719 144.554688 Z M 165.394531 149.835938 L 172.355469 149.835938 L 173.148438 149.0625 L 174.210938 150.222656 L 171.292969 150.222656 L 171.292969 154.023438 C 171.292969 154.539062 171.558594 154.796875 172.089844 154.796875 L 173.414062 154.796875 C 173.816406 154.710938 174.054688 154.421875 174.144531 153.929688 C 174.234375 153.4375 174.300781 152.800781 174.34375 152.027344 L 174.605469 152.027344 C 174.605469 152.757812 174.652344 153.34375 174.738281 153.769531 C 174.828125 154.199219 175.074219 154.433594 175.46875 154.472656 C 175.339844 154.859375 175.117188 155.117188 174.808594 155.246094 C 174.5 155.375 174.210938 155.4375 173.945312 155.4375 L 171.492188 155.4375 C 170.785156 155.4375 170.433594 155.097656 170.433594 154.410156 L 170.433594 150.222656 L 168.707031 150.222656 C 168.53125 152.546875 167.933594 154.015625 166.917969 154.632812 C 165.902344 155.257812 164.796875 155.722656 163.605469 156.019531 L 163.539062 155.824219 C 164.777344 155.269531 165.757812 154.691406 166.488281 154.089844 C 167.21875 153.492188 167.648438 152.203125 167.78125 150.222656 L 167.582031 150.222656 C 167.011719 150.226562 166.480469 150.289062 165.992188 150.414062 Z M 165.394531 149.835938 "/>
<path style=" stroke:none;fill-rule:evenodd;fill:rgb(0%,0%,0%);fill-opacity:1;" d="M 177.679688 113.75 L 183.324219 113.75 L 184.25 112.910156 L 185.378906 114.136719 L 179.871094 114.136719 C 179.296875 114.140625 178.765625 114.203125 178.277344 114.328125 Z M 178.277344 125.214844 C 179.472656 125.300781 180.269531 125.347656 180.667969 125.347656 C 181.066406 125.347656 181.261719 125.089844 181.261719 124.570312 L 181.261719 118 L 178.742188 118 C 178.171875 118.003906 177.640625 118.066406 177.148438 118.191406 L 176.554688 117.613281 L 184.183594 117.613281 L 185.179688 116.710938 L 186.308594 118 L 182.191406 118 L 182.191406 124.890625 C 182.242188 126.050781 181.6875 126.738281 180.535156 126.953125 C 180.535156 126.351562 179.785156 125.882812 178.277344 125.535156 Z M 175.027344 112.136719 L 176.21875 113.039062 C 175.914062 113.128906 175.382812 113.578125 174.628906 114.394531 C 173.878906 115.253906 172.925781 116.089844 171.777344 116.90625 L 171.644531 116.710938 C 172.394531 116.027344 173.089844 115.246094 173.734375 114.363281 C 174.378906 113.488281 174.808594 112.742188 175.027344 112.136719 Z M 175.160156 119.480469 L 175.160156 126.5 L 174.164062 127.082031 C 174.210938 126.140625 174.230469 123.523438 174.230469 119.222656 C 173.214844 120.257812 172.21875 121.09375 171.246094 121.734375 L 171.113281 121.542969 C 172.042969 120.644531 172.9375 119.636719 173.796875 118.519531 C 174.664062 117.402344 175.316406 116.328125 175.757812 115.292969 L 176.882812 116.261719 L 176.289062 116.582031 C 175.714844 117.402344 175.226562 118.046875 174.828125 118.515625 L 175.554688 119.09375 Z M 175.160156 119.480469 "/>
<path style=" stroke:none;fill-rule:evenodd;fill:rgb(0%,0%,0%);fill-opacity:1;" d="M 205.054688 115.359375 L 218.265625 115.359375 L 219.257812 114.394531 L 220.652344 115.746094 L 212.488281 115.746094 C 212.449219 116.566406 212.335938 117.507812 212.160156 118.578125 L 216.46875 118.578125 L 217.132812 117.933594 L 218.195312 118.902344 L 217.53125 119.289062 C 217.089844 122.597656 216.78125 124.554688 216.601562 125.152344 C 216.425781 125.753906 216.152344 126.171875 215.773438 126.40625 C 215.402344 126.640625 214.882812 126.847656 214.214844 127.015625 C 214.035156 126.332031 213.308594 125.730469 212.027344 125.214844 L 212.089844 124.957031 C 213.289062 125.300781 214.074219 125.484375 214.449219 125.503906 C 214.824219 125.527344 215.109375 125.453125 215.3125 125.28125 C 215.511719 125.113281 215.699219 124.566406 215.875 123.640625 C 216.050781 122.71875 216.273438 121.160156 216.539062 118.964844 L 212.089844 118.964844 C 211.34375 122.707031 209.175781 125.367188 205.585938 126.953125 L 205.453125 126.695312 C 209.4375 124.507812 211.425781 120.859375 211.425781 115.746094 L 207.25 115.746094 C 206.671875 115.75 206.140625 115.8125 205.65625 115.9375 Z M 211.425781 112.203125 C 212.578125 112.636719 213.253906 113.003906 213.453125 113.300781 C 213.65625 113.605469 213.75 113.835938 213.75 114.007812 C 213.75 114.183594 213.664062 114.386719 213.484375 114.621094 C 213.308594 114.859375 213.199219 114.976562 213.152344 114.972656 C 212.976562 114.976562 212.796875 114.738281 212.621094 114.265625 C 212.355469 113.625 211.914062 113 211.292969 112.394531 Z M 211.425781 112.203125 "/>
<path style=" stroke:none;fill-rule:evenodd;fill:rgb(0%,0%,0%);fill-opacity:1;" d="M 222.074219 147.582031 L 222.074219 150.929688 L 225.792969 150.929688 L 225.792969 147.582031 Z M 226.390625 154.152344 C 227.273438 154.199219 227.984375 154.230469 228.515625 154.25 C 229.046875 154.277344 229.289062 153.980469 229.242188 153.378906 L 229.242188 144.425781 L 218.890625 144.425781 L 218.890625 155.503906 L 217.894531 155.953125 C 217.941406 154.710938 217.960938 153.703125 217.960938 152.925781 L 217.960938 146.035156 C 217.960938 145.136719 217.941406 144.257812 217.894531 143.394531 L 218.957031 144.039062 L 221.808594 144.039062 C 222.339844 142.542969 222.628906 141.484375 222.675781 140.882812 L 224.132812 141.589844 C 223.601562 141.898438 222.984375 142.710938 222.277344 144.039062 L 229.109375 144.039062 L 229.574219 143.332031 L 230.703125 144.167969 L 230.171875 144.617188 L 230.171875 153.765625 C 230.257812 154.839844 229.773438 155.546875 228.710938 155.890625 C 228.671875 155.160156 227.894531 154.691406 226.390625 154.472656 Z M 226.71875 150.480469 C 226.71875 150.824219 226.746094 151.339844 226.789062 152.027344 L 225.792969 152.410156 L 225.792969 151.316406 L 222.074219 151.316406 L 222.074219 152.285156 L 221.082031 152.667969 C 221.125 151.597656 221.144531 150.507812 221.144531 149.390625 C 221.144531 148.273438 221.125 147.347656 221.082031 146.613281 L 222.074219 147.195312 L 225.726562 147.195312 L 226.191406 146.550781 L 227.25 147.386719 L 226.71875 147.839844 Z M 226.71875 150.480469 "/>
<path style=" stroke:none;fill-rule:evenodd;fill:rgb(0%,0%,0%);fill-opacity:1;" d="M 321.351562 124.0625 C 321.328125 124.15625 321.28125 124.234375 321.207031 124.296875 C 321.128906 124.359375 321.039062 124.390625 320.929688 124.386719 C 320.59375 124.390625 320.265625 124.398438 319.941406 124.410156 C 319.617188 124.425781 319.386719 124.464844 319.242188 124.523438 C 319.089844 124.574219 318.980469 124.753906 318.90625 125.066406 L 315.882812 136.851562 C 315.855469 136.984375 315.839844 137.101562 315.839844 137.199219 C 315.839844 137.296875 315.859375 137.355469 315.894531 137.375 C 315.996094 137.4375 316.203125 137.476562 316.519531 137.484375 C 316.835938 137.496094 317.167969 137.5 317.519531 137.5 C 317.722656 137.5 317.820312 137.585938 317.820312 137.75 C 317.820312 137.792969 317.8125 137.839844 317.800781 137.886719 L 317.757812 138.054688 C 317.679688 138.265625 317.542969 138.367188 317.347656 138.367188 C 316.421875 138.328125 315.484375 138.304688 314.539062 138.304688 C 313.601562 138.304688 312.644531 138.328125 311.675781 138.367188 C 311.492188 138.367188 311.398438 138.277344 311.398438 138.097656 L 311.398438 138.011719 L 311.441406 137.835938 C 311.5 137.605469 311.636719 137.496094 311.859375 137.5 C 312.210938 137.5 312.550781 137.496094 312.871094 137.484375 C 313.195312 137.476562 313.425781 137.4375 313.570312 137.375 C 313.699219 137.304688 313.804688 137.117188 313.882812 136.8125 L 316.929688 125.027344 C 316.957031 124.894531 316.972656 124.792969 316.972656 124.714844 C 316.972656 124.609375 316.953125 124.542969 316.917969 124.515625 C 316.804688 124.460938 316.589844 124.425781 316.273438 124.410156 C 315.957031 124.398438 315.628906 124.390625 315.292969 124.386719 C 315.089844 124.390625 314.992188 124.296875 314.992188 124.105469 L 314.992188 124.035156 L 315.035156 123.84375 C 315.113281 123.636719 315.25 123.53125 315.441406 123.53125 C 316.382812 123.558594 317.328125 123.574219 318.273438 123.574219 C 319.226562 123.574219 320.175781 123.558594 321.113281 123.53125 C 321.214844 123.53125 321.300781 123.566406 321.371094 123.636719 C 321.402344 123.691406 321.414062 123.746094 321.414062 123.792969 C 321.414062 123.835938 321.40625 123.875 321.382812 123.910156 Z M 321.351562 124.0625 "/>
<path style=" stroke:none;fill-rule:evenodd;fill:rgb(0%,0%,0%);fill-opacity:1;" d="M 326.695312 141.40625 L 321.203125 141.40625 L 321.203125 141.085938 C 321.203125 141.0625 321.214844 141.027344 321.242188 140.980469 L 323.449219 138.835938 C 323.710938 138.578125 323.976562 138.316406 324.242188 138.046875 C 324.511719 137.777344 324.75 137.5 324.960938 137.21875 C 325.171875 136.9375 325.339844 136.648438 325.46875 136.351562 C 325.59375 136.050781 325.65625 135.738281 325.65625 135.410156 C 325.65625 135.132812 325.617188 134.875 325.535156 134.636719 C 325.453125 134.394531 325.335938 134.183594 325.183594 134.003906 C 325.03125 133.820312 324.839844 133.675781 324.609375 133.5625 C 324.378906 133.453125 324.117188 133.394531 323.8125 133.394531 C 323.363281 133.394531 322.96875 133.515625 322.625 133.757812 C 322.28125 133.996094 322.050781 134.261719 321.9375 134.550781 C 321.917969 134.558594 321.953125 134.5625 322.046875 134.5625 L 322.160156 134.5625 C 322.296875 134.589844 322.414062 134.632812 322.511719 134.6875 C 322.609375 134.746094 322.695312 134.820312 322.761719 134.921875 C 322.828125 135.019531 322.863281 135.140625 322.863281 135.28125 C 322.863281 135.515625 322.777344 135.695312 322.605469 135.820312 C 322.433594 135.945312 322.246094 136.007812 322.03125 136.007812 C 321.832031 136.007812 321.640625 135.945312 321.464844 135.820312 C 321.289062 135.695312 321.203125 135.515625 321.203125 135.28125 C 321.203125 134.953125 321.273438 134.644531 321.417969 134.351562 C 321.5625 134.058594 321.757812 133.804688 322.003906 133.589844 C 322.253906 133.375 322.546875 133.207031 322.882812 133.082031 C 323.21875 132.957031 323.578125 132.894531 323.957031 132.890625 C 324.421875 132.894531 324.851562 132.953125 325.242188 133.078125 C 325.628906 133.199219 325.960938 133.378906 326.234375 133.605469 C 326.511719 133.835938 326.726562 134.105469 326.878906 134.40625 C 327.035156 134.710938 327.113281 135.042969 327.113281 135.410156 C 327.113281 135.816406 327.011719 136.191406 326.804688 136.53125 C 326.597656 136.875 326.339844 137.1875 326.035156 137.472656 C 325.726562 137.757812 325.402344 138.023438 325.058594 138.277344 C 324.714844 138.527344 324.402344 138.773438 324.125 139.011719 L 322.574219 140.316406 L 324.605469 140.316406 C 324.886719 140.316406 325.152344 140.316406 325.394531 140.3125 C 325.640625 140.308594 325.851562 140.300781 326.019531 140.289062 C 326.191406 140.277344 326.277344 140.269531 326.285156 140.265625 C 326.320312 140.238281 326.351562 140.183594 326.386719 140.101562 C 326.417969 140.019531 326.445312 139.921875 326.472656 139.8125 C 326.5 139.699219 326.527344 139.585938 326.554688 139.472656 C 326.582031 139.355469 326.605469 139.230469 326.628906 139.09375 L 327.125 139.09375 Z M 326.695312 141.40625 "/>
<path style=" stroke:none;fill-rule:evenodd;fill:rgb(0%,0%,0%);fill-opacity:1;" d="M 256.988281 73.335938 C 256.886719 73.335938 256.820312 73.28125 256.796875 73.164062 C 256.730469 72.851562 256.765625 72.421875 256.898438 71.878906 C 257.066406 71.28125 257.328125 70.753906 257.683594 70.296875 C 258.113281 69.8125 258.5625 69.503906 259.03125 69.375 C 259.128906 69.347656 259.308594 69.332031 259.574219 69.332031 C 261.265625 69.332031 262.351562 69.863281 262.839844 70.917969 C 262.867188 70.976562 262.898438 71.082031 262.929688 71.238281 C 262.980469 71.46875 263 71.667969 262.992188 71.835938 C 262.886719 72.867188 262.253906 73.757812 261.09375 74.515625 C 260.011719 75.230469 258.867188 75.585938 257.664062 75.585938 C 255.445312 75.585938 253.933594 74.90625 253.132812 73.550781 C 252.96875 73.265625 252.847656 72.9375 252.769531 72.566406 C 252.679688 72.152344 252.65625 71.78125 252.6875 71.453125 C 252.917969 69.355469 254.1875 67.863281 256.496094 66.976562 L 256.71875 66.890625 L 256.652344 66.785156 C 256.519531 66.628906 256.40625 66.34375 256.316406 65.925781 C 256.257812 65.644531 256.230469 65.441406 256.234375 65.328125 C 256.238281 64.230469 256.632812 63.230469 257.425781 62.328125 C 258.144531 61.488281 259.046875 60.890625 260.128906 60.53125 C 260.722656 60.359375 261.125 60.273438 261.332031 60.273438 L 261.59375 60.273438 C 263.84375 60.273438 265.121094 61.007812 265.433594 62.480469 C 265.472656 62.667969 265.496094 62.796875 265.496094 62.867188 C 265.488281 64.28125 264.777344 65.292969 263.363281 65.90625 C 263.082031 66.019531 262.8125 66.078125 262.5625 66.078125 C 261.636719 66.078125 261.089844 65.679688 260.921875 64.875 C 260.734375 63.996094 261.0625 63.195312 261.910156 62.480469 C 262.285156 62.167969 262.695312 61.980469 263.136719 61.921875 C 263.339844 61.921875 263.453125 61.972656 263.476562 62.074219 C 263.492188 62.160156 263.453125 62.28125 263.355469 62.4375 C 263.261719 62.609375 263.125 62.710938 262.957031 62.734375 C 262.769531 62.753906 262.601562 62.835938 262.460938 62.992188 C 262.214844 63.292969 262.019531 63.6875 261.871094 64.171875 C 261.808594 64.429688 261.792969 64.628906 261.824219 64.769531 C 261.894531 65.101562 262.171875 65.265625 262.65625 65.261719 C 262.832031 65.265625 262.992188 65.25 263.128906 65.21875 C 263.308594 65.152344 263.464844 65.058594 263.601562 64.941406 C 264.046875 64.542969 264.328125 64.015625 264.453125 63.359375 C 264.503906 63.101562 264.503906 62.867188 264.457031 62.648438 C 264.390625 62.335938 264.21875 62.074219 263.9375 61.859375 C 263.445312 61.472656 262.644531 61.28125 261.542969 61.28125 C 261.238281 61.28125 261.039062 61.289062 260.953125 61.300781 C 260.128906 61.488281 259.390625 62.175781 258.746094 63.359375 C 258.136719 64.558594 257.859375 65.441406 257.921875 66.011719 C 257.949219 66.285156 257.996094 66.457031 258.054688 66.527344 L 258.417969 66.484375 C 258.652344 66.46875 258.871094 66.464844 259.074219 66.460938 C 259.867188 66.464844 260.441406 66.597656 260.792969 66.871094 C 260.933594 66.984375 261.019531 67.105469 261.046875 67.234375 C 261.105469 67.519531 260.972656 67.75 260.640625 67.917969 C 260.351562 68.078125 260 68.15625 259.589844 68.152344 C 258.855469 68.15625 258.199219 68 257.617188 67.683594 C 257.5 67.613281 257.425781 67.578125 257.394531 67.574219 C 257.234375 67.578125 256.929688 67.75 256.488281 68.089844 C 255.398438 68.90625 254.730469 70.117188 254.484375 71.730469 C 254.402344 72.160156 254.394531 72.550781 254.472656 72.90625 C 254.503906 73.050781 254.566406 73.222656 254.667969 73.421875 C 255.167969 74.324219 256.203125 74.773438 257.777344 74.769531 C 258.644531 74.773438 259.371094 74.558594 259.953125 74.128906 C 260.855469 73.460938 261.371094 72.609375 261.507812 71.582031 C 261.515625 71.480469 261.496094 71.332031 261.457031 71.128906 C 261.417969 70.960938 261.378906 70.839844 261.332031 70.765625 C 260.964844 70.355469 260.34375 70.148438 259.460938 70.144531 C 259.167969 70.148438 258.980469 70.160156 258.898438 70.1875 C 258.054688 70.574219 257.640625 71.4375 257.660156 72.78125 C 257.660156 72.96875 257.640625 73.066406 257.617188 73.078125 C 257.535156 73.253906 257.324219 73.335938 256.988281 73.335938 Z M 260.058594 67.363281 C 260.054688 67.335938 259.863281 67.304688 259.492188 67.277344 C 259.253906 67.277344 259.140625 67.285156 259.140625 67.296875 C 259.15625 67.355469 259.449219 67.382812 260.019531 67.382812 C 260.035156 67.382812 260.046875 67.378906 260.058594 67.363281 Z M 260.058594 67.363281 "/>
<path style=" stroke:none;fill-rule:evenodd;fill:rgb(0%,0%,0%);fill-opacity:1;" d="M 270.957031 78.539062 L 265.460938 78.539062 L 265.460938 78.214844 C 265.460938 78.191406 265.476562 78.15625 265.503906 78.109375 L 267.710938 75.96875 C 267.96875 75.710938 268.234375 75.445312 268.503906 75.175781 C 268.769531 74.90625 269.011719 74.632812 269.222656 74.351562 C 269.433594 74.070312 269.601562 73.78125 269.726562 73.480469 C 269.851562 73.183594 269.917969 72.871094 269.917969 72.542969 C 269.917969 72.265625 269.875 72.007812 269.792969 71.765625 C 269.710938 71.527344 269.597656 71.316406 269.445312 71.132812 C 269.292969 70.953125 269.101562 70.804688 268.871094 70.695312 C 268.640625 70.582031 268.375 70.527344 268.074219 70.527344 C 267.625 70.527344 267.226562 70.648438 266.882812 70.886719 C 266.539062 71.128906 266.308594 71.394531 266.199219 71.679688 C 266.175781 71.6875 266.210938 71.695312 266.304688 71.691406 L 266.421875 71.691406 C 266.554688 71.722656 266.671875 71.761719 266.769531 71.820312 C 266.871094 71.875 266.953125 71.953125 267.019531 72.054688 C 267.089844 72.152344 267.121094 72.273438 267.121094 72.414062 C 267.121094 72.648438 267.035156 72.828125 266.867188 72.953125 C 266.695312 73.078125 266.503906 73.140625 266.292969 73.140625 C 266.089844 73.140625 265.902344 73.078125 265.726562 72.953125 C 265.550781 72.828125 265.460938 72.648438 265.460938 72.414062 C 265.460938 72.085938 265.535156 71.777344 265.679688 71.484375 C 265.824219 71.191406 266.019531 70.9375 266.265625 70.722656 C 266.511719 70.507812 266.804688 70.335938 267.140625 70.210938 C 267.480469 70.085938 267.835938 70.023438 268.214844 70.023438 C 268.683594 70.023438 269.113281 70.085938 269.503906 70.210938 C 269.890625 70.332031 270.222656 70.507812 270.496094 70.738281 C 270.769531 70.96875 270.984375 71.234375 271.140625 71.539062 C 271.296875 71.839844 271.375 72.175781 271.375 72.542969 C 271.375 72.949219 271.269531 73.324219 271.0625 73.664062 C 270.855469 74.003906 270.601562 74.320312 270.292969 74.605469 C 269.988281 74.890625 269.664062 75.15625 269.320312 75.410156 C 268.972656 75.660156 268.664062 75.90625 268.382812 76.144531 L 266.832031 77.449219 L 268.863281 77.449219 C 269.148438 77.449219 269.410156 77.449219 269.65625 77.445312 C 269.902344 77.441406 270.109375 77.433594 270.28125 77.421875 C 270.453125 77.410156 270.539062 77.402344 270.542969 77.394531 C 270.578125 77.367188 270.613281 77.316406 270.644531 77.234375 C 270.675781 77.152344 270.703125 77.054688 270.734375 76.941406 C 270.761719 76.832031 270.785156 76.71875 270.8125 76.601562 C 270.839844 76.488281 270.863281 76.363281 270.886719 76.226562 L 271.386719 76.226562 Z M 270.957031 78.539062 "/>
<path style=" stroke:none;fill-rule:evenodd;fill:rgb(0%,0%,0%);fill-opacity:1;" d="M 50.472656 161.878906 C 50.371094 161.882812 50.308594 161.824219 50.28125 161.707031 C 50.214844 161.394531 50.25 160.96875 50.382812 160.425781 C 50.550781 159.824219 50.8125 159.296875 51.171875 158.839844 C 51.597656 158.355469 52.046875 158.046875 52.519531 157.917969 C 52.617188 157.890625 52.796875 157.878906 53.058594 157.875 C 54.75 157.878906 55.839844 158.40625 56.328125 159.460938 C 56.355469 159.519531 56.382812 159.625 56.417969 159.78125 C 56.464844 160.011719 56.488281 160.210938 56.480469 160.382812 C 56.375 161.410156 55.742188 162.304688 54.578125 163.058594 C 53.496094 163.773438 52.355469 164.128906 51.148438 164.128906 C 48.929688 164.128906 47.421875 163.453125 46.617188 162.09375 C 46.457031 161.8125 46.332031 161.480469 46.253906 161.109375 C 46.167969 160.699219 46.140625 160.324219 46.171875 159.996094 C 46.402344 157.898438 47.671875 156.40625 49.980469 155.519531 L 50.207031 155.433594 L 50.140625 155.328125 C 50.003906 155.171875 49.890625 154.886719 49.804688 154.472656 C 49.742188 154.1875 49.714844 153.988281 49.71875 153.871094 C 49.722656 152.773438 50.121094 151.773438 50.914062 150.871094 C 51.628906 150.03125 52.53125 149.433594 53.613281 149.074219 C 54.210938 148.902344 54.609375 148.820312 54.816406 148.820312 L 55.082031 148.820312 C 57.328125 148.820312 58.609375 149.554688 58.921875 151.023438 C 58.960938 151.210938 58.980469 151.339844 58.980469 151.410156 C 58.972656 152.824219 58.261719 153.835938 56.847656 154.449219 C 56.566406 154.566406 56.300781 154.621094 56.046875 154.621094 C 55.125 154.621094 54.574219 154.222656 54.40625 153.421875 C 54.21875 152.539062 54.546875 151.738281 55.394531 151.023438 C 55.769531 150.710938 56.179688 150.523438 56.621094 150.464844 C 56.828125 150.46875 56.9375 150.515625 56.960938 150.617188 C 56.980469 150.703125 56.9375 150.824219 56.839844 150.980469 C 56.746094 151.152344 56.613281 151.253906 56.441406 151.28125 C 56.253906 151.296875 56.089844 151.382812 55.945312 151.539062 C 55.699219 151.835938 55.503906 152.230469 55.359375 152.714844 C 55.292969 152.972656 55.277344 153.175781 55.308594 153.316406 C 55.378906 153.644531 55.65625 153.808594 56.140625 153.808594 C 56.316406 153.808594 56.476562 153.792969 56.617188 153.765625 C 56.792969 153.695312 56.949219 153.601562 57.085938 153.488281 C 57.53125 153.085938 57.8125 152.558594 57.9375 151.902344 C 57.988281 151.644531 57.988281 151.410156 57.941406 151.195312 C 57.875 150.882812 57.703125 150.617188 57.421875 150.402344 C 56.929688 150.019531 56.132812 149.828125 55.03125 149.824219 C 54.722656 149.828125 54.523438 149.832031 54.4375 149.84375 C 53.613281 150.03125 52.878906 150.71875 52.234375 151.902344 C 51.621094 153.101562 51.34375 153.988281 51.40625 154.558594 C 51.4375 154.828125 51.480469 155 51.539062 155.070312 L 51.902344 155.027344 C 52.136719 155.015625 52.355469 155.007812 52.558594 155.007812 C 53.355469 155.007812 53.925781 155.144531 54.277344 155.414062 C 54.421875 155.527344 54.503906 155.648438 54.53125 155.777344 C 54.59375 156.0625 54.457031 156.292969 54.125 156.460938 C 53.835938 156.621094 53.488281 156.699219 53.074219 156.699219 C 52.339844 156.699219 51.683594 156.542969 51.101562 156.226562 C 50.984375 156.15625 50.910156 156.121094 50.878906 156.121094 C 50.71875 156.121094 50.417969 156.292969 49.976562 156.632812 C 48.886719 157.449219 48.21875 158.664062 47.972656 160.273438 C 47.886719 160.703125 47.882812 161.097656 47.957031 161.453125 C 47.988281 161.597656 48.054688 161.769531 48.15625 161.964844 C 48.65625 162.867188 49.691406 163.316406 51.261719 163.316406 C 52.128906 163.316406 52.855469 163.101562 53.441406 162.671875 C 54.339844 162.003906 54.859375 161.152344 54.992188 160.125 C 55 160.023438 54.984375 159.875 54.941406 159.675781 C 54.90625 159.503906 54.863281 159.382812 54.820312 159.3125 C 54.453125 158.898438 53.828125 158.691406 52.945312 158.691406 C 52.652344 158.691406 52.464844 158.707031 52.382812 158.734375 C 51.539062 159.121094 51.128906 159.984375 51.148438 161.324219 C 51.144531 161.511719 51.128906 161.609375 51.101562 161.625 C 51.019531 161.796875 50.8125 161.882812 50.472656 161.878906 Z M 53.546875 155.90625 C 53.539062 155.878906 53.351562 155.851562 52.976562 155.820312 C 52.742188 155.820312 52.625 155.828125 52.628906 155.839844 C 52.640625 155.902344 52.933594 155.929688 53.507812 155.925781 C 53.519531 155.929688 53.535156 155.921875 53.546875 155.90625 Z M 53.546875 155.90625 "/>
<path style=" stroke:none;fill-rule:evenodd;fill:rgb(0%,0%,0%);fill-opacity:1;" d="M 63.933594 167.082031 C 63.105469 167.058594 62.300781 167.046875 61.519531 167.046875 C 60.738281 167.046875 59.933594 167.058594 59.105469 167.082031 L 59.105469 166.578125 L 59.570312 166.578125 C 59.71875 166.578125 59.859375 166.578125 59.988281 166.574219 C 60.117188 166.570312 60.242188 166.558594 60.359375 166.542969 C 60.476562 166.527344 60.578125 166.511719 60.664062 166.496094 C 60.734375 166.484375 60.792969 166.449219 60.839844 166.386719 C 60.890625 166.328125 60.914062 166.261719 60.914062 166.1875 L 60.914062 159.585938 C 60.6875 159.683594 60.410156 159.757812 60.082031 159.808594 C 59.753906 159.859375 59.394531 159.886719 59.003906 159.886719 L 59.003906 159.386719 C 59.542969 159.386719 60.042969 159.332031 60.496094 159.214844 C 60.953125 159.101562 61.347656 158.886719 61.679688 158.566406 L 61.890625 158.566406 C 62.039062 158.570312 62.113281 158.632812 62.113281 158.761719 L 62.113281 166.1875 C 62.113281 166.265625 62.136719 166.332031 62.179688 166.390625 C 62.226562 166.449219 62.292969 166.484375 62.375 166.496094 C 62.449219 166.511719 62.539062 166.527344 62.652344 166.542969 C 62.765625 166.558594 62.890625 166.570312 63.035156 166.574219 C 63.175781 166.578125 63.3125 166.578125 63.449219 166.578125 L 63.933594 166.578125 Z M 63.933594 167.082031 "/>
<path style=" stroke:none;fill-rule:nonzero;fill:rgb(0%,0%,0%);fill-opacity:1;" d="M 99.640625 218.535156 L 138.261719 218.535156 L 138.261719 220.132812 L 99.640625 220.132812 C 99.199219 220.132812 98.839844 219.773438 98.839844 219.332031 C 98.839844 218.890625 99.199219 218.535156 99.640625 218.535156 Z M 151.019531 219.332031 L 135.054688 214.539062 L 138.25 218.535156 L 138.25 220.132812 L 135.054688 224.128906 Z M 151.019531 219.332031 "/>
<path style=" stroke:none;fill-rule:evenodd;fill:rgb(0%,0%,0%);fill-opacity:1;" d="M 133.652344 228.449219 C 133.632812 228.542969 133.585938 228.617188 133.507812 228.683594 C 133.433594 228.742188 133.339844 228.777344 133.234375 228.773438 C 132.894531 228.777344 132.566406 228.78125 132.242188 228.796875 C 131.921875 228.808594 131.6875 228.847656 131.542969 228.910156 C 131.394531 228.960938 131.28125 229.140625 131.210938 229.453125 L 128.1875 241.238281 C 128.160156 241.371094 128.144531 241.488281 128.144531 241.582031 C 128.144531 241.679688 128.164062 241.742188 128.199219 241.761719 C 128.296875 241.824219 128.507812 241.859375 128.824219 241.871094 C 129.136719 241.882812 129.472656 241.886719 129.824219 241.886719 C 130.023438 241.886719 130.125 241.96875 130.125 242.136719 C 130.125 242.179688 130.117188 242.226562 130.101562 242.273438 L 130.058594 242.441406 C 129.980469 242.648438 129.84375 242.753906 129.648438 242.753906 C 128.726562 242.710938 127.789062 242.691406 126.84375 242.691406 C 125.902344 242.691406 124.949219 242.710938 123.980469 242.753906 C 123.792969 242.753906 123.703125 242.664062 123.699219 242.484375 L 123.699219 242.398438 L 123.742188 242.222656 C 123.800781 241.992188 123.941406 241.878906 124.164062 241.886719 C 124.515625 241.886719 124.851562 241.882812 125.175781 241.871094 C 125.496094 241.859375 125.730469 241.824219 125.875 241.761719 C 126.003906 241.691406 126.109375 241.503906 126.1875 241.195312 L 129.230469 229.414062 C 129.261719 229.28125 129.273438 229.175781 129.273438 229.101562 C 129.273438 228.996094 129.257812 228.929688 129.21875 228.898438 C 129.105469 228.847656 128.890625 228.808594 128.574219 228.796875 C 128.257812 228.78125 127.933594 228.777344 127.59375 228.773438 C 127.394531 228.777344 127.292969 228.683594 127.292969 228.492188 L 127.292969 228.421875 L 127.335938 228.230469 C 127.417969 228.023438 127.550781 227.917969 127.746094 227.917969 C 128.6875 227.945312 129.628906 227.960938 130.574219 227.960938 C 131.53125 227.960938 132.476562 227.945312 133.417969 227.917969 C 133.515625 227.917969 133.601562 227.953125 133.675781 228.023438 C 133.703125 228.078125 133.71875 228.128906 133.71875 228.179688 C 133.71875 228.222656 133.707031 228.261719 133.683594 228.292969 Z M 133.652344 228.449219 "/>
<path style=" stroke:none;fill-rule:evenodd;fill:rgb(0%,0%,0%);fill-opacity:1;" d="M 139.640625 243.585938 C 139.640625 243.921875 139.558594 244.242188 139.390625 244.550781 C 139.226562 244.859375 139.003906 245.121094 138.722656 245.339844 C 138.410156 245.585938 138.0625 245.769531 137.679688 245.886719 C 137.300781 246.007812 136.902344 246.066406 136.488281 246.066406 C 136.117188 246.066406 135.753906 246.019531 135.398438 245.925781 C 135.042969 245.832031 134.722656 245.699219 134.4375 245.523438 C 134.148438 245.347656 133.921875 245.132812 133.75 244.875 C 133.578125 244.621094 133.492188 244.328125 133.492188 243.992188 C 133.492188 243.746094 133.585938 243.558594 133.773438 243.433594 C 133.960938 243.3125 134.15625 243.25 134.363281 243.25 C 134.582031 243.25 134.78125 243.3125 134.96875 243.433594 C 135.15625 243.558594 135.25 243.746094 135.25 243.992188 C 135.25 244.140625 135.214844 244.265625 135.148438 244.367188 C 135.085938 244.464844 135.003906 244.546875 134.902344 244.613281 C 134.800781 244.679688 134.683594 244.722656 134.554688 244.738281 C 134.484375 244.753906 134.421875 244.761719 134.363281 244.761719 C 134.304688 244.761719 134.296875 244.765625 134.335938 244.773438 C 134.476562 244.992188 134.75 245.183594 135.160156 245.351562 C 135.570312 245.519531 136.011719 245.605469 136.488281 245.605469 C 136.714844 245.605469 136.925781 245.554688 137.121094 245.457031 C 137.316406 245.355469 137.480469 245.222656 137.609375 245.054688 C 137.773438 244.835938 137.882812 244.601562 137.941406 244.351562 C 138 244.101562 138.027344 243.847656 138.027344 243.585938 C 138.027344 243.316406 138 243.058594 137.941406 242.808594 C 137.882812 242.5625 137.773438 242.332031 137.609375 242.121094 C 137.476562 241.949219 137.308594 241.808594 137.117188 241.703125 C 136.925781 241.597656 136.714844 241.546875 136.488281 241.546875 L 135.511719 241.546875 C 135.382812 241.546875 135.3125 241.492188 135.300781 241.382812 L 135.300781 241.316406 C 135.300781 241.273438 135.316406 241.234375 135.347656 241.207031 C 135.390625 241.171875 135.441406 241.15625 135.503906 241.152344 C 135.636719 241.136719 135.769531 241.132812 135.910156 241.128906 C 136.042969 241.132812 136.175781 241.125 136.308594 241.105469 C 136.550781 241.09375 136.761719 241.023438 136.941406 240.90625 C 137.121094 240.785156 137.273438 240.632812 137.394531 240.449219 C 137.515625 240.265625 137.605469 240.050781 137.671875 239.808594 C 137.734375 239.566406 137.765625 239.316406 137.765625 239.0625 C 137.765625 238.875 137.742188 238.699219 137.699219 238.53125 C 137.652344 238.363281 137.570312 238.21875 137.449219 238.089844 C 137.195312 237.835938 136.875 237.707031 136.488281 237.710938 C 136.074219 237.710938 135.695312 237.78125 135.351562 237.917969 C 135.007812 238.058594 134.777344 238.207031 134.660156 238.367188 C 134.628906 238.371094 134.644531 238.375 134.707031 238.371094 C 134.871094 238.375 135.023438 238.414062 135.167969 238.5 C 135.382812 238.613281 135.492188 238.804688 135.492188 239.074219 C 135.492188 239.300781 135.410156 239.472656 135.246094 239.589844 C 135.082031 239.703125 134.898438 239.761719 134.695312 239.761719 C 134.496094 239.761719 134.3125 239.703125 134.136719 239.589844 C 133.964844 239.476562 133.878906 239.304688 133.878906 239.074219 C 133.878906 238.789062 133.957031 238.539062 134.109375 238.320312 C 134.261719 238.101562 134.457031 237.914062 134.699219 237.757812 C 134.9375 237.601562 135.214844 237.484375 135.53125 237.402344 C 135.847656 237.320312 136.164062 237.277344 136.488281 237.277344 C 136.835938 237.277344 137.171875 237.320312 137.496094 237.402344 C 137.820312 237.484375 138.125 237.609375 138.414062 237.78125 C 138.648438 237.929688 138.84375 238.113281 139.003906 238.328125 C 139.164062 238.546875 139.242188 238.789062 139.242188 239.0625 C 139.242188 239.335938 139.1875 239.59375 139.078125 239.835938 C 138.96875 240.078125 138.820312 240.296875 138.640625 240.492188 C 138.457031 240.6875 138.238281 240.859375 137.988281 241.007812 C 137.734375 241.15625 137.546875 241.25 137.421875 241.289062 C 137.527344 241.300781 137.714844 241.359375 137.972656 241.460938 C 138.234375 241.566406 138.484375 241.703125 138.722656 241.875 C 139.003906 242.089844 139.226562 242.347656 139.390625 242.644531 C 139.558594 242.941406 139.640625 243.257812 139.640625 243.585938 Z M 139.640625 243.585938 "/>
<path style=" stroke:none;fill-rule:evenodd;fill:rgb(0%,0%,0%);fill-opacity:1;" d="M 199.890625 232.171875 C 199.808594 232.484375 199.691406 232.792969 199.535156 233.097656 C 199.375 233.402344 199.183594 233.675781 198.953125 233.917969 C 198.722656 234.164062 198.464844 234.363281 198.183594 234.519531 C 197.898438 234.675781 197.59375 234.753906 197.261719 234.753906 C 196.222656 234.753906 195.441406 234.480469 194.917969 233.929688 C 194.558594 233.550781 194.378906 233.078125 194.378906 232.503906 C 194.378906 232.214844 194.425781 231.898438 194.519531 231.554688 L 195.003906 229.683594 C 195.0625 229.445312 195.089844 229.222656 195.089844 229.011719 C 195.089844 228.910156 195.082031 228.800781 195.070312 228.6875 C 195.027344 228.398438 194.925781 228.140625 194.769531 227.917969 C 194.609375 227.695312 194.40625 227.519531 194.160156 227.386719 C 193.914062 227.257812 193.621094 227.195312 193.28125 227.195312 L 190.851562 227.195312 L 189.417969 232.765625 C 189.390625 232.902344 189.375 233.007812 189.375 233.089844 C 189.375 233.195312 189.398438 233.265625 189.441406 233.300781 C 189.535156 233.355469 189.730469 233.390625 190.023438 233.402344 C 190.316406 233.410156 190.632812 233.417969 190.96875 233.414062 C 191.171875 233.417969 191.269531 233.5 191.269531 233.667969 C 191.269531 233.707031 191.261719 233.753906 191.25 233.800781 L 191.207031 233.96875 C 191.128906 234.179688 190.988281 234.285156 190.785156 234.285156 C 189.902344 234.242188 189.015625 234.21875 188.117188 234.21875 C 187.222656 234.21875 186.320312 234.242188 185.417969 234.285156 C 185.222656 234.285156 185.121094 234.191406 185.105469 234.011719 L 185.105469 233.929688 L 185.148438 233.75 C 185.207031 233.519531 185.34375 233.410156 185.566406 233.414062 C 185.90625 233.417969 186.226562 233.410156 186.527344 233.402344 C 186.828125 233.390625 187.050781 233.351562 187.191406 233.289062 C 187.328125 233.214844 187.433594 233.027344 187.503906 232.726562 L 190.527344 220.941406 C 190.570312 220.789062 190.59375 220.667969 190.59375 220.585938 C 190.59375 220.503906 190.574219 220.453125 190.539062 220.4375 C 190.4375 220.378906 190.242188 220.339844 189.953125 220.324219 C 189.660156 220.3125 189.34375 220.304688 189 220.300781 C 188.800781 220.304688 188.699219 220.210938 188.699219 220.019531 L 188.699219 219.9375 L 188.761719 219.757812 C 188.808594 219.550781 188.941406 219.445312 189.160156 219.445312 L 195.21875 219.445312 C 195.902344 219.445312 196.550781 219.539062 197.167969 219.71875 C 197.785156 219.898438 198.320312 220.199219 198.78125 220.617188 C 199.160156 220.953125 199.4375 221.363281 199.609375 221.851562 C 199.71875 222.117188 199.773438 222.394531 199.78125 222.675781 C 199.78125 222.9375 199.742188 223.191406 199.664062 223.441406 C 199.527344 224 199.242188 224.503906 198.8125 224.957031 C 198.382812 225.410156 197.898438 225.796875 197.359375 226.117188 C 196.988281 226.335938 196.609375 226.515625 196.226562 226.65625 C 195.839844 226.800781 195.566406 226.886719 195.402344 226.921875 C 195.8125 227.082031 196.199219 227.398438 196.5625 227.863281 C 196.875 228.269531 197.027344 228.753906 197.027344 229.316406 C 197.027344 229.433594 197.019531 229.554688 197.003906 229.671875 L 196.800781 231.554688 C 196.742188 232.042969 196.714844 232.46875 196.714844 232.828125 C 196.714844 233.066406 196.730469 233.277344 196.757812 233.457031 C 196.808594 233.867188 197.023438 234.074219 197.402344 234.074219 C 197.746094 234.074219 198.0625 233.886719 198.351562 233.515625 C 198.636719 233.144531 198.847656 232.679688 198.984375 232.128906 C 199.0625 231.921875 199.203125 231.820312 199.40625 231.828125 L 199.578125 231.828125 C 199.769531 231.828125 199.875 231.917969 199.890625 232.097656 Z M 197.359375 223.378906 C 197.476562 222.960938 197.539062 222.542969 197.554688 222.121094 L 197.554688 222.0625 C 197.554688 221.703125 197.441406 221.398438 197.21875 221.140625 C 196.957031 220.832031 196.609375 220.617188 196.183594 220.492188 C 195.753906 220.367188 195.289062 220.304688 194.777344 220.300781 L 193.347656 220.300781 C 192.980469 220.304688 192.761719 220.332031 192.691406 220.386719 C 192.617188 220.441406 192.542969 220.640625 192.464844 220.984375 L 191.042969 226.515625 L 193.121094 226.515625 C 193.628906 226.515625 194.132812 226.453125 194.628906 226.328125 C 195.121094 226.203125 195.59375 225.980469 196.035156 225.65625 C 196.417969 225.386719 196.703125 225.042969 196.898438 224.632812 C 197.09375 224.222656 197.246094 223.804688 197.359375 223.378906 Z M 197.359375 223.378906 "/>
<path style=" stroke:none;fill-rule:evenodd;fill:rgb(0%,0%,0%);fill-opacity:1;" d="M 206.875 235.113281 C 206.875 235.449219 206.789062 235.773438 206.625 236.078125 C 206.457031 236.386719 206.238281 236.652344 205.957031 236.871094 C 205.644531 237.117188 205.292969 237.296875 204.914062 237.417969 C 204.535156 237.535156 204.136719 237.597656 203.722656 237.597656 C 203.351562 237.597656 202.988281 237.550781 202.632812 237.457031 C 202.277344 237.363281 201.957031 237.226562 201.667969 237.050781 C 201.382812 236.875 201.15625 236.660156 200.984375 236.40625 C 200.8125 236.148438 200.726562 235.855469 200.726562 235.523438 C 200.726562 235.273438 200.820312 235.085938 201.007812 234.964844 C 201.195312 234.839844 201.390625 234.78125 201.597656 234.78125 C 201.816406 234.78125 202.015625 234.839844 202.203125 234.964844 C 202.390625 235.085938 202.480469 235.273438 202.480469 235.523438 C 202.480469 235.671875 202.449219 235.796875 202.382812 235.894531 C 202.320312 235.996094 202.234375 236.078125 202.136719 236.144531 C 202.035156 236.210938 201.917969 236.25 201.789062 236.265625 C 201.71875 236.28125 201.65625 236.289062 201.597656 236.289062 C 201.539062 236.289062 201.53125 236.292969 201.570312 236.300781 C 201.710938 236.519531 201.984375 236.714844 202.394531 236.882812 C 202.804688 237.050781 203.246094 237.132812 203.722656 237.132812 C 203.949219 237.132812 204.160156 237.082031 204.355469 236.984375 C 204.550781 236.886719 204.714844 236.75 204.84375 236.582031 C 205.007812 236.363281 205.117188 236.128906 205.175781 235.878906 C 205.234375 235.632812 205.261719 235.375 205.261719 235.113281 C 205.261719 234.84375 205.234375 234.585938 205.175781 234.335938 C 205.117188 234.089844 205.007812 233.859375 204.84375 233.648438 C 204.707031 233.476562 204.542969 233.339844 204.351562 233.234375 C 204.15625 233.128906 203.949219 233.074219 203.722656 233.074219 L 202.746094 233.074219 C 202.613281 233.074219 202.546875 233.019531 202.539062 232.910156 L 202.539062 232.847656 C 202.539062 232.800781 202.550781 232.761719 202.585938 232.734375 C 202.625 232.699219 202.675781 232.683594 202.738281 232.683594 C 202.871094 232.667969 203.003906 232.660156 203.144531 232.660156 C 203.277344 232.660156 203.414062 232.652344 203.542969 232.636719 C 203.785156 232.621094 203.996094 232.554688 204.175781 232.433594 C 204.355469 232.316406 204.507812 232.164062 204.628906 231.976562 C 204.75 231.792969 204.839844 231.578125 204.90625 231.335938 C 204.96875 231.09375 205 230.847656 205 230.59375 C 205 230.40625 204.976562 230.226562 204.933594 230.058594 C 204.886719 229.890625 204.800781 229.746094 204.679688 229.621094 C 204.429688 229.363281 204.109375 229.238281 203.722656 229.238281 C 203.308594 229.242188 202.929688 229.308594 202.585938 229.449219 C 202.242188 229.585938 202.011719 229.738281 201.894531 229.894531 C 201.863281 229.898438 201.878906 229.902344 201.941406 229.902344 C 202.105469 229.902344 202.257812 229.945312 202.402344 230.03125 C 202.617188 230.144531 202.726562 230.335938 202.726562 230.605469 C 202.726562 230.832031 202.644531 231.003906 202.480469 231.117188 C 202.316406 231.230469 202.132812 231.289062 201.929688 231.289062 C 201.730469 231.289062 201.546875 231.234375 201.371094 231.121094 C 201.199219 231.007812 201.113281 230.835938 201.113281 230.605469 C 201.113281 230.320312 201.1875 230.066406 201.34375 229.847656 C 201.496094 229.632812 201.691406 229.445312 201.933594 229.289062 C 202.171875 229.132812 202.449219 229.011719 202.765625 228.929688 C 203.082031 228.847656 203.398438 228.808594 203.722656 228.808594 C 204.070312 228.808594 204.40625 228.847656 204.730469 228.929688 C 205.054688 229.011719 205.359375 229.140625 205.648438 229.308594 C 205.882812 229.457031 206.078125 229.640625 206.238281 229.859375 C 206.398438 230.074219 206.476562 230.320312 206.476562 230.59375 C 206.476562 230.867188 206.421875 231.125 206.3125 231.367188 C 206.199219 231.609375 206.054688 231.828125 205.875 232.023438 C 205.691406 232.21875 205.472656 232.390625 205.222656 232.535156 C 204.96875 232.6875 204.78125 232.777344 204.65625 232.816406 C 204.761719 232.828125 204.945312 232.886719 205.210938 232.992188 C 205.46875 233.09375 205.71875 233.230469 205.957031 233.402344 C 206.238281 233.617188 206.457031 233.875 206.625 234.171875 C 206.789062 234.472656 206.875 234.785156 206.875 235.113281 Z M 206.875 235.113281 "/>
</g>
</svg>
