<?xml version="1.0" encoding="utf-8"?>
<!-- Generator: Adobe Illustrator 19.0.0, SVG Export Plug-In . SVG Version: 6.00 Build 0)  -->
<svg version="1.1" id="Layer_1" xmlns="http://www.w3.org/2000/svg" xmlns:xlink="http://www.w3.org/1999/xlink" x="0px" y="0px"
	 viewBox="0 0 185.75 117" style="enable-background:new 0 0 185.75 117;" xml:space="preserve">
<style type="text/css">
	.st0{fill:none;stroke:#000000;stroke-miterlimit:10;}
	.st1{fill:none;stroke:#000000;stroke-width:0.6;stroke-miterlimit:10;}
	.st2{fill:none;stroke:#BE1E2D;stroke-width:0.566929;stroke-miterlimit:10;}
	.st3{fill:#BE1E2D;}
	.st4{fill:#010101;}
	.st5{fill:#1C75BC;}
</style>
<path class="st0" d="M139.9423981,56.0726814c0.2637024-0.0078011,0.527298-0.0116997,0.7929993-0.0116997
	c13.282196,0,24.0487976,10.7666016,24.0487976,24.0487976"/>
<circle class="st1" cx="49.9994736" cy="68.5005035" r="20.0410004"/>
<circle class="st1" cx="49.9989891" cy="68.5005035" r="28.3467121"/>
<circle class="st1" cx="49.9989891" cy="68.5" r="34.7246132"/>
<circle class="st1" cx="50" cy="68.4994965" r="40.0820007"/>
<g>
	<g>
		<g>
			<polygon points="97.4174805,69.0230713 97.4174805,71.029541 106.855957,68.5021973 97.4174805,65.970459 97.4174805,67.9770508 
				2.5,67.9770508 2.5,69.0230713 			"/>
		</g>
	</g>
</g>
<g>
	<g>
		<g>
			<polygon points="50.5236206,17.4224243 52.5300293,17.4224243 50.0026855,7.9838867 47.4709473,17.4224243 
				49.4775391,17.4224243 49.4775391,115.5 50.5236206,115.5 			"/>
		</g>
	</g>
</g>
<line class="st2" x1="26.2963753" y1="16.6830997" x2="98.455101" y2="88.841301"/>
<g>
	<line class="st3" x1="40.3326225" y1="24.509409" x2="29.7661057" y2="13.9423704"/>
	<g>
		<g>
			<polygon class="st3" points="36.8098755,20.2466431 38.2286987,18.8279419 29.7676392,13.9408569 34.6512451,22.4051514 
				36.0701904,20.9863281 36.5634155,21.4796143 39.9628296,24.8792114 40.7025146,24.1395264 37.3031006,20.7399292 			"/>
		</g>
	</g>
</g>
<line class="st2" x1="127.8906021" y1="33.4476814" x2="183.1679993" y2="88.7250824"/>
<circle class="st3" cx="64.2099228" cy="54.5186005" r="1.1171499"/>
<circle class="st3" cx="158.25" cy="63.5394821" r="1.3408"/>
<circle class="st3" cx="145.7021179" cy="51.3088379" r="1.3403"/>
<circle class="st3" cx="170.7854614" cy="76.4713669" r="1.34035"/>
<g>
	<g>
		<path class="st4" d="M114.6572266,67.0161133c0.1904297,0.2036133,0.3349609,0.4072266,0.4321289,0.6108398
			c0.0698242,0.140625,0.1850586,0.5107422,0.3442383,1.1098633l0.5146484-0.7753906
			c0.1357422-0.1879883,0.3007813-0.3666992,0.4960938-0.5371094c0.1943359-0.1704102,0.3662109-0.2866211,0.5136719-0.3496094
			c0.09375-0.0390625,0.1962891-0.0585938,0.3095703-0.0585938c0.1669922,0,0.3007813,0.0449219,0.4003906,0.1352539
			c0.0986328,0.0898438,0.1484375,0.199707,0.1484375,0.3286133c0,0.1489258-0.0292969,0.2504883-0.0878906,0.3051758
			c-0.1083984,0.0981445-0.2333984,0.1469727-0.3730469,0.1469727c-0.0820313,0-0.1699219-0.0175781-0.2626953-0.0527344
			c-0.1835938-0.0625-0.3056641-0.0942383-0.3681641-0.0942383c-0.09375,0-0.2041016,0.0551758-0.3330078,0.1645508
			c-0.2412109,0.2036133-0.5292969,0.597168-0.8642578,1.1801758l0.4785156,2.0195313
			c0.0742188,0.3095703,0.1367188,0.4951172,0.1875,0.5556641c0.0498047,0.0605469,0.1005859,0.0908203,0.1513672,0.0908203
			c0.0820313,0,0.1777344-0.0449219,0.2861328-0.1347656c0.2138672-0.1806641,0.3974609-0.4150391,0.5488281-0.7050781
			l0.2050781,0.1054688c-0.2451172,0.4619141-0.5566406,0.8457031-0.9345703,1.1513672
			c-0.2138672,0.171875-0.3955078,0.2578125-0.5429688,0.2578125c-0.21875,0-0.3916016-0.1230469-0.5205078-0.3691406
			c-0.0820313-0.1533203-0.2504883-0.8105469-0.5078125-1.9726563c-0.6069336,1.0605469-1.09375,1.7431641-1.4599609,2.0488281
			c-0.2373047,0.1953125-0.4672852,0.2929688-0.6889648,0.2929688c-0.1557617,0-0.2978516-0.0566406-0.4262695-0.1699219
			c-0.0932617-0.0859375-0.1401367-0.2011719-0.1401367-0.3466797c0-0.1289063,0.0429688-0.2363281,0.128418-0.3222656
			c0.0854492-0.0869141,0.190918-0.1298828,0.3154297-0.1298828s0.2568359,0.0625,0.3969727,0.1884766
			c0.1010742,0.0898438,0.1791992,0.1347656,0.2338867,0.1347656c0.0463867,0,0.1069336-0.03125,0.1806641-0.09375
			c0.1831055-0.1494141,0.4321289-0.4697266,0.7475586-0.9628906s0.5219727-0.8496094,0.6191406-1.0688477
			c-0.2412109-0.9511719-0.3720703-1.4541016-0.3911133-1.5092773c-0.0898438-0.2543945-0.206543-0.4345703-0.3505859-0.5400391
			c-0.144043-0.105957-0.3564453-0.1586914-0.6367188-0.1586914c-0.0893555,0-0.1923828,0.0039063-0.309082,0.0117188v-0.2114258
			L114.6572266,67.0161133z"/>
	</g>
</g>
<g>
	<g>
		<path class="st4" d="M57.8203125,1.9335938c0.1333008,0.2255859,0.2255859,0.4355469,0.2763672,0.6318359
			c0.0507813,0.1953125,0.1020508,0.5800781,0.152832,1.1542969l0.2592773,2.8623047
			c0.2353516-0.2792969,0.5761719-0.7216797,1.0234375-1.3271484c0.2158203-0.2939453,0.4824219-0.6953125,0.7998047-1.2041016
			c0.1923828-0.3095703,0.3095703-0.5273438,0.3535156-0.6513672c0.0234375-0.0615234,0.0351563-0.1259766,0.0351563-0.1914063
			c0-0.0429688-0.0136719-0.078125-0.0410156-0.1044922c-0.0273438-0.0273438-0.0996094-0.0595703-0.2148438-0.0966797
			c-0.1162109-0.0361328-0.2119141-0.1044922-0.2880859-0.203125c-0.0771484-0.0986328-0.1152344-0.2128906-0.1152344-0.3408203
			c0-0.1582031,0.046875-0.2861328,0.1416016-0.3837891c0.09375-0.0966797,0.2119141-0.1455078,0.3525391-0.1455078
			c0.1728516,0,0.3193359,0.0712891,0.4414063,0.2128906c0.1210938,0.1416016,0.1826172,0.3359375,0.1826172,0.5839844
			c0,0.3066406-0.1064453,0.6572266-0.3183594,1.0498047c-0.2109375,0.3945313-0.6191406,0.9980469-1.2236328,1.8125
			c-0.6035156,0.8144531-1.3349609,1.7021484-2.1938477,2.6640625c-0.5922852,0.6630859-1.0317383,1.0810547-1.3178711,1.2539063
			c-0.2861328,0.171875-0.53125,0.2587891-0.7353516,0.2587891c-0.121582,0-0.2285156-0.0458984-0.3208008-0.1367188
			c-0.0917969-0.0917969-0.1381836-0.1972656-0.1381836-0.3173828c0-0.1513672,0.0639648-0.2890625,0.1914063-0.4130859
			s0.265625-0.1855469,0.4145508-0.1855469c0.0786133,0,0.1430664,0.0166016,0.1943359,0.0517578
			c0.03125,0.0195313,0.0654297,0.0751953,0.1025391,0.1660156C55.8720703,9.0253906,55.90625,9.0869141,55.9375,9.1181641
			c0.0195313,0.0185547,0.043457,0.0283203,0.0708008,0.0283203c0.0234375,0,0.0644531-0.0195313,0.1235352-0.0576172
			c0.2158203-0.1318359,0.4667969-0.3417969,0.7529297-0.6289063c0.3764648-0.3798828,0.6547852-0.6894531,0.8354492-0.9296875
			L57.390625,3.8417969c-0.0546875-0.6083984-0.137207-0.9794922-0.2470703-1.1113281s-0.2939453-0.1972656-0.5527344-0.1972656
			c-0.0825195,0-0.2294922,0.0117188-0.4414063,0.0351563l-0.0527344-0.2158203L57.8203125,1.9335938z"/>
	</g>
</g>
<g>
	<g>
		<path class="st3" d="M32.0239258,1.7114258v6.7583008c0,0.3847656,0.0449219,0.6298828,0.1347656,0.7363281
			s0.2666016,0.1679688,0.5283203,0.1835938v0.2089844h-2.9609375V9.3896484
			c0.2421875-0.0078125,0.4223633-0.078125,0.5395508-0.2099609c0.078125-0.0888672,0.1171875-0.3251953,0.1171875-0.7099609
			V2.8398438c0-0.3798828-0.0449219-0.6235352-0.1347656-0.7299805c-0.0898438-0.1069336-0.2636719-0.1679688-0.5219727-0.1831055
			v-0.215332H32.0239258z"/>
	</g>
</g>
<g>
	<g>
		<path class="st3" d="M137.9790039,16.8208008v6.7583008c0,0.3847656,0.0449219,0.6298828,0.1347656,0.7363281
			s0.2666016,0.1679688,0.5283203,0.1835938v0.2089844h-2.9609375v-0.2089844
			c0.2421875-0.0078125,0.4223633-0.078125,0.5395508-0.2099609c0.078125-0.0888672,0.1171875-0.3251953,0.1171875-0.7099609
			v-5.6298828c0-0.3798828-0.0449219-0.6235352-0.1347656-0.7299805c-0.0898438-0.1069336-0.2636719-0.1679688-0.5219727-0.1831055
			v-0.215332H137.9790039z"/>
	</g>
</g>
<g>
	<line class="st3" x1="142.6475067" y1="40.1681976" x2="132.0809784" y2="29.601162"/>
	<g>
		<g>
			<polygon class="st3" points="139.1247711,35.905468 140.5435944,34.4867668 132.0825348,29.5996227 136.9660797,38.0639153 
				138.385025,36.645092 138.8783112,37.1383781 142.2777252,40.5379143 143.0173492,39.7982903 139.6179352,36.3987541 			"/>
		</g>
	</g>
</g>
<g>
	<g>
		<g>
			<polygon class="st5" points="153.2646179,67.5907135 152.2350769,66.4724274 148.2715759,72.7241364 154.8310242,69.2920074 
				153.8014832,68.1737213 158.51828,63.8309479 157.9815369,63.2479401 			"/>
		</g>
	</g>
</g>
<g>
	<g>
		<g>
			<polygon class="st5" points="143.9458923,60.351944 142.4425964,60.1266022 143.2762146,67.4818268 146.2328796,60.6947174 
				144.7295837,60.4693756 146.0939636,51.3670807 145.3101501,51.249649 			"/>
		</g>
	</g>
</g>
<g>
	<g>
		<g>
			<polygon class="st5" points="160.4040222,76.7655182 160.322113,75.2476959 153.2853699,77.5451813 160.5287781,79.0748444 
				160.4467468,77.5569 170.8068542,76.9975739 170.7641296,76.206192 			"/>
		</g>
	</g>
</g>
<g>
	<g>
		<g>
			<polygon class="st5" points="27.9065552,47.1368408 26.8359375,48.2158203 33.2602539,51.8930664 29.5354614,45.4952393 
				28.4647827,46.5743408 21.9313354,40.0914307 21.3731689,40.6539917 			"/>
		</g>
	</g>
</g>
<g>
	<g>
		<g>
			<polygon class="st5" points="71.9494019,47.2674561 70.9068604,46.1612549 67.0167236,52.4589844 73.5355835,48.9503174 
				72.492981,47.8441162 79.1907959,41.53125 78.6472168,40.9545288 			"/>
		</g>
	</g>
</g>
<g>
	<g>
		<g>
			<polygon class="st5" points="27.6018066,89.1663818 28.6179199,90.296875 32.6557617,84.0928955 26.0557861,87.4465332 
				27.0720215,88.5770264 20.2269897,94.7299805 20.7567749,95.3193359 			"/>
		</g>
	</g>
</g>
<g>
	<g>
		<g>
			<polygon class="st5" points="72.5186768,90.0825195 73.5893555,89.00354 67.1650391,85.3262939 70.8897705,91.7241211 
				71.9605103,90.6450195 78.4939575,97.1279297 79.052124,96.5654297 			"/>
		</g>
	</g>
</g>
<g>
	<g>
		<path class="st4" d="M164.9448242,60.3696289c0-0.5244141,0.0791016-0.9755859,0.2363281-1.3544922
			c0.1572266-0.3779297,0.3662109-0.6601563,0.6269531-0.8457031c0.2021484-0.1464844,0.4101563-0.2197266,0.6259766-0.2197266
			c0.3505859,0,0.6650391,0.1796875,0.9433594,0.5390625c0.3486328,0.4453125,0.5224609,1.0478516,0.5224609,1.8095703
			c0,0.5341797-0.0761719,0.9863281-0.2294922,1.359375c-0.1523438,0.3730469-0.3476563,0.6435547-0.5839844,0.8125
			c-0.2373047,0.1679688-0.4658203,0.2519531-0.6855469,0.2519531c-0.4365234,0-0.7988281-0.2587891-1.0888672-0.7763672
			C165.0678711,61.5102539,164.9448242,60.9848633,164.9448242,60.3696289z M165.605957,60.4545898
			c0,0.6328125,0.0771484,1.1494141,0.2324219,1.5488281c0.1279297,0.3369141,0.3183594,0.5058594,0.5722656,0.5058594
			c0.1210938,0,0.2470703-0.0546875,0.3769531-0.1650391c0.1308594-0.109375,0.2294922-0.2929688,0.296875-0.5507813
			c0.1035156-0.3886719,0.1552734-0.9365234,0.1552734-1.6435547c0-0.5244141-0.0537109-0.9619141-0.1621094-1.3125
			c-0.0810547-0.2597656-0.1855469-0.4443359-0.3134766-0.5527344c-0.0917969-0.0742188-0.203125-0.1113281-0.3330078-0.1113281
			c-0.1533203,0-0.2890625,0.0683594-0.4082031,0.2070313c-0.1611328,0.1875-0.2714844,0.4824219-0.3300781,0.8847656
			S165.605957,60.0639648,165.605957,60.4545898z"/>
	</g>
	<g>
		<path class="st4" d="M161.2402344,51.5805664h3.1118164c0.8164063,0,1.4257813,0.1767578,1.8300781,0.5307617
			c0.4042969,0.3535156,0.6064453,0.784668,0.6064453,1.2929688c0,0.4023438-0.1279297,0.793457-0.3847656,1.1723633
			c-0.2568359,0.3793945-0.6376953,0.6875-1.1425781,0.9238281s-1.0507813,0.3544922-1.637207,0.3544922
			c-0.3652344,0-0.8295898-0.0664063-1.3930664-0.1992188l-0.6293945,2.1699219
			c-0.1474609,0.515625-0.2211914,0.8554688-0.2211914,1.0195313c0,0.1259766,0.0522461,0.2294922,0.1572266,0.3115234
			s0.3554688,0.1347656,0.7519531,0.1582031l-0.0585938,0.2167969h-3.1411133l0.0639648-0.2167969
			c0.4121094,0,0.6987305-0.0712891,0.8598633-0.2138672s0.3349609-0.5371094,0.5214844-1.1816406l1.3056641-4.5268555
			c0.1552734-0.543457,0.2329102-0.9072266,0.2329102-1.0908203c0-0.1367188-0.0551758-0.25-0.1660156-0.340332
			c-0.1108398-0.0898438-0.3544922-0.1445313-0.7314453-0.1640625L161.2402344,51.5805664z M162.3300781,55.2866211
			c0.4389648,0.1132813,0.7924805,0.1699219,1.0605469,0.1699219c0.4243164,0,0.809082-0.0878906,1.1567383-0.2641602
			c0.3476563-0.1757813,0.6201172-0.4394531,0.8164063-0.7915039c0.1962891-0.3515625,0.2939453-0.7172852,0.2939453-1.0961914
			c0-0.3950195-0.1201172-0.7075195-0.3613281-0.9384766c-0.2412109-0.2304688-0.6064453-0.3457031-1.0957031-0.3457031
			c-0.2646484,0-0.5844727,0.0332031-0.9614258,0.0996094L162.3300781,55.2866211z"/>
	</g>
</g>
<g>
</g>
<g>
</g>
<g>
</g>
<g>
</g>
<g>
</g>
<g>
</g>
</svg>
