<?xml version="1.0" encoding="UTF-8"?>
<svg xmlns="http://www.w3.org/2000/svg" xmlns:xlink="http://www.w3.org/1999/xlink" width="549pt" height="273pt" viewBox="0 0 549 273" version="1.1">
<g id="surface1">
<path style="fill:none;stroke-width:15;stroke-linecap:round;stroke-linejoin:round;stroke:rgb(100%,100%,100%);stroke-opacity:1;stroke-miterlimit:10;" d="M 3395.12191 1135.883892 L 3395.12191 1045.889474 " transform="matrix(0.14633,0,0,-0.146103,0,276.7488)"/>
<path style="fill:none;stroke-width:15;stroke-linecap:round;stroke-linejoin:round;stroke:rgb(100%,100%,100%);stroke-opacity:1;stroke-miterlimit:10;" d="M 3395.12191 325.880662 L 3395.12191 235.886244 " transform="matrix(0.14633,0,0,-0.146103,0,276.7488)"/>
<path style="fill:none;stroke-width:22.5;stroke-linecap:round;stroke-linejoin:round;stroke:rgb(0%,0%,0%);stroke-opacity:1;stroke-miterlimit:10;" d="M 3395.12191 1045.889474 C 3434.897128 1045.889474 3467.117725 1013.645485 3467.117725 973.888593 C 3467.117725 934.131701 3434.897128 901.887712 3395.12191 901.887712 C 3434.897128 901.887712 3467.117725 869.643723 3467.117725 829.886831 C 3467.117725 790.129938 3434.897128 757.885949 3395.12191 757.885949 C 3434.897128 757.885949 3467.117725 725.64196 3467.117725 685.885068 C 3467.117725 646.128176 3434.897128 613.884187 3395.12191 613.884187 C 3434.897128 613.884187 3467.117725 581.640198 3467.117725 541.883306 C 3467.117725 502.126414 3434.897128 469.882424 3395.12191 469.882424 C 3434.897128 469.882424 3467.117725 437.638435 3467.117725 397.881543 C 3467.117725 358.124651 3434.897128 325.880662 3395.12191 325.880662 " transform="matrix(0.14633,0,0,-0.146103,0,276.7488)"/>
<path style="fill:none;stroke-width:22.5;stroke-linecap:round;stroke-linejoin:round;stroke:rgb(100%,100%,100%);stroke-opacity:1;stroke-miterlimit:10;" d="M 3539.140235 1045.889474 L 3539.140235 325.880662 " transform="matrix(0.14633,0,0,-0.146103,0,276.7488)"/>
<path style="fill:none;stroke-width:15;stroke-linecap:round;stroke-linejoin:round;stroke:rgb(0%,0%,0%);stroke-opacity:1;stroke-miterlimit:10;" d="M 546.602268 1276.115835 L 1746.585914 1276.115835 " transform="matrix(0.14633,0,0,-0.146103,0,276.7488)"/>
<path style="fill:none;stroke-width:15;stroke-linecap:round;stroke-linejoin:round;stroke:rgb(0%,0%,0%);stroke-opacity:1;stroke-miterlimit:10;" d="M 3395.12191 1276.115835 L 3395.12191 1043.616888 " transform="matrix(0.14633,0,0,-0.146103,0,276.7488)"/>
<path style="fill:none;stroke-width:15;stroke-linecap:round;stroke-linejoin:round;stroke:rgb(0%,0%,0%);stroke-opacity:1;stroke-miterlimit:10;" d="M 2196.73995 1276.115835 L 3396.750291 1276.115835 " transform="matrix(0.14633,0,0,-0.146103,0,276.7488)"/>
<path style=" stroke:none;fill-rule:evenodd;fill:rgb(0%,0%,0%);fill-opacity:1;" d="M 293.363281 33.003906 C 293.304688 33.273438 293.15625 33.40625 292.917969 33.402344 C 292.898438 33.421875 292.851562 33.433594 292.769531 33.433594 C 292.722656 33.433594 292.683594 33.421875 292.652344 33.402344 L 292.519531 33.402344 C 292.261719 33.40625 292.132812 33.308594 292.132812 33.117188 L 292.132812 33.015625 C 292.253906 32.3125 292.3125 31.652344 292.3125 31.050781 L 292.3125 30.507812 C 292.253906 29.773438 292.085938 29.136719 291.816406 28.609375 C 291.546875 28.078125 291.148438 27.667969 290.625 27.375 C 290.105469 27.085938 289.441406 26.9375 288.644531 26.9375 C 288.179688 26.9375 287.710938 27.039062 287.230469 27.238281 C 286.753906 27.441406 286.308594 27.710938 285.894531 28.054688 C 285.441406 28.429688 285.070312 28.851562 284.785156 29.324219 C 284.496094 29.796875 284.289062 30.285156 284.160156 30.78125 C 284.0625 31.132812 284.007812 31.472656 284 31.796875 C 284 32.246094 284.097656 32.679688 284.296875 33.089844 C 284.582031 33.777344 285.09375 34.21875 285.832031 34.40625 L 289.234375 35.355469 C 289.855469 35.535156 290.386719 35.828125 290.824219 36.222656 C 291.265625 36.621094 291.59375 37.089844 291.816406 37.628906 C 292.039062 38.167969 292.167969 38.757812 292.207031 39.398438 L 292.207031 39.65625 C 292.207031 40.210938 292.128906 40.78125 291.972656 41.363281 C 291.765625 42.167969 291.433594 42.941406 290.980469 43.6875 C 290.527344 44.433594 289.964844 45.101562 289.292969 45.691406 C 288.652344 46.238281 287.953125 46.675781 287.1875 47.003906 C 286.421875 47.335938 285.65625 47.5 284.886719 47.5 C 283.753906 47.5 282.785156 47.320312 281.988281 46.953125 C 281.1875 46.59375 280.597656 46.132812 280.210938 45.578125 L 278.746094 47.3125 C 278.621094 47.4375 278.488281 47.5 278.347656 47.5 L 278.261719 47.5 C 278.015625 47.5 277.878906 47.40625 277.859375 47.210938 C 277.859375 47.15625 277.875 47.101562 277.902344 47.054688 L 279.621094 40.34375 C 279.679688 40.078125 279.851562 39.9375 280.136719 39.929688 L 280.464844 39.929688 C 280.582031 39.929688 280.691406 39.976562 280.789062 40.070312 C 280.828125 40.148438 280.847656 40.214844 280.847656 40.273438 C 280.847656 40.3125 280.839844 40.359375 280.820312 40.414062 C 280.640625 41.105469 280.550781 41.746094 280.550781 42.335938 C 280.550781 43.285156 280.785156 44.085938 281.246094 44.746094 C 281.988281 45.808594 283.28125 46.339844 285.125 46.339844 C 285.585938 46.339844 286.058594 46.230469 286.535156 46.015625 C 287.015625 45.800781 287.460938 45.511719 287.875 45.148438 C 288.328125 44.726562 288.710938 44.261719 289.019531 43.75 C 289.332031 43.238281 289.5625 42.710938 289.707031 42.164062 C 289.808594 41.726562 289.855469 41.316406 289.855469 40.933594 C 289.855469 40.457031 289.792969 39.996094 289.664062 39.554688 C 289.367188 38.820312 288.820312 38.347656 288.023438 38.136719 L 284.664062 37.191406 C 284.0625 37.027344 283.546875 36.761719 283.109375 36.394531 C 282.675781 36.027344 282.339844 35.589844 282.097656 35.082031 C 281.855469 34.578125 281.714844 34.015625 281.675781 33.402344 L 281.675781 33.089844 C 281.675781 32.613281 281.734375 32.109375 281.855469 31.585938 C 282.0625 30.820312 282.390625 30.089844 282.84375 29.390625 C 283.300781 28.695312 283.863281 28.074219 284.53125 27.539062 C 285.164062 27.023438 285.855469 26.609375 286.609375 26.300781 C 287.363281 25.992188 288.113281 25.832031 288.851562 25.832031 C 289.867188 25.832031 290.703125 26.023438 291.363281 26.402344 C 292.027344 26.777344 292.503906 27.222656 292.800781 27.742188 L 294.21875 26.035156 C 294.300781 25.902344 294.429688 25.832031 294.605469 25.832031 L 294.738281 25.832031 C 294.976562 25.832031 295.09375 25.949219 295.09375 26.179688 L 295.09375 26.292969 Z M 293.363281 33.003906 "/>
<path style=" stroke:none;fill-rule:evenodd;fill:rgb(0%,0%,0%);fill-opacity:1;" d="M 23.992188 181.296875 C 23.851562 181.300781 23.765625 181.21875 23.730469 181.0625 C 23.640625 180.632812 23.6875 180.046875 23.871094 179.300781 C 24.101562 178.480469 24.460938 177.753906 24.953125 177.128906 C 25.539062 176.460938 26.15625 176.042969 26.804688 175.863281 C 26.9375 175.828125 27.1875 175.808594 27.550781 175.804688 C 29.875 175.808594 31.371094 176.53125 32.042969 177.980469 C 32.078125 178.058594 32.117188 178.207031 32.164062 178.417969 C 32.230469 178.734375 32.261719 179.007812 32.25 179.242188 C 32.105469 180.652344 31.234375 181.878906 29.636719 182.914062 C 28.152344 183.894531 26.578125 184.382812 24.921875 184.382812 C 21.871094 184.382812 19.796875 183.453125 18.691406 181.589844 C 18.46875 181.203125 18.300781 180.75 18.195312 180.238281 C 18.074219 179.675781 18.035156 179.164062 18.078125 178.714844 C 18.398438 175.835938 20.140625 173.789062 23.316406 172.574219 L 23.625 172.457031 L 23.53125 172.3125 C 23.347656 172.097656 23.191406 171.707031 23.070312 171.136719 C 22.988281 170.746094 22.949219 170.472656 22.957031 170.3125 C 22.960938 168.808594 23.507812 167.4375 24.597656 166.203125 C 25.582031 165.050781 26.820312 164.230469 28.3125 163.734375 C 29.128906 163.5 29.679688 163.386719 29.964844 163.386719 L 30.328125 163.386719 C 33.417969 163.386719 35.175781 164.394531 35.605469 166.410156 C 35.660156 166.667969 35.6875 166.839844 35.6875 166.9375 C 35.679688 168.878906 34.699219 170.265625 32.757812 171.105469 C 32.371094 171.265625 32.003906 171.34375 31.65625 171.34375 C 30.386719 171.34375 29.632812 170.796875 29.398438 169.695312 C 29.140625 168.488281 29.59375 167.386719 30.757812 166.410156 C 31.273438 165.980469 31.835938 165.726562 32.445312 165.644531 C 32.726562 165.648438 32.882812 165.714844 32.910156 165.851562 C 32.9375 165.972656 32.882812 166.136719 32.746094 166.351562 C 32.617188 166.585938 32.433594 166.726562 32.195312 166.761719 C 31.941406 166.785156 31.710938 166.898438 31.515625 167.113281 C 31.179688 167.527344 30.910156 168.0625 30.707031 168.730469 C 30.621094 169.082031 30.597656 169.359375 30.640625 169.550781 C 30.738281 170.003906 31.117188 170.226562 31.785156 170.226562 C 32.027344 170.226562 32.246094 170.207031 32.4375 170.167969 C 32.679688 170.074219 32.898438 169.945312 33.082031 169.789062 C 33.695312 169.238281 34.085938 168.515625 34.257812 167.613281 C 34.324219 167.261719 34.324219 166.9375 34.261719 166.644531 C 34.171875 166.214844 33.933594 165.851562 33.546875 165.554688 C 32.871094 165.03125 31.773438 164.765625 30.257812 164.765625 C 29.835938 164.765625 29.5625 164.777344 29.445312 164.792969 C 28.308594 165.050781 27.296875 165.992188 26.410156 167.613281 C 25.570312 169.257812 25.191406 170.472656 25.277344 171.253906 C 25.316406 171.628906 25.378906 171.863281 25.457031 171.957031 L 25.960938 171.898438 C 26.28125 171.882812 26.582031 171.871094 26.863281 171.871094 C 27.953125 171.871094 28.742188 172.058594 29.222656 172.429688 C 29.417969 172.585938 29.535156 172.753906 29.574219 172.929688 C 29.65625 173.320312 29.472656 173.632812 29.015625 173.867188 C 28.617188 174.085938 28.136719 174.191406 27.570312 174.191406 C 26.5625 174.191406 25.65625 173.976562 24.855469 173.542969 C 24.695312 173.449219 24.59375 173.398438 24.554688 173.398438 C 24.332031 173.398438 23.914062 173.632812 23.308594 174.101562 C 21.808594 175.21875 20.894531 176.886719 20.554688 179.09375 C 20.4375 179.683594 20.429688 180.222656 20.535156 180.710938 C 20.578125 180.910156 20.667969 181.144531 20.804688 181.414062 C 21.492188 182.648438 22.917969 183.265625 25.078125 183.265625 C 26.269531 183.265625 27.269531 182.972656 28.070312 182.382812 C 29.308594 181.464844 30.019531 180.300781 30.207031 178.890625 C 30.21875 178.753906 30.195312 178.546875 30.136719 178.273438 C 30.085938 178.039062 30.03125 177.871094 29.96875 177.773438 C 29.464844 177.207031 28.605469 176.921875 27.394531 176.921875 C 26.988281 176.921875 26.730469 176.945312 26.617188 176.980469 C 25.457031 177.511719 24.890625 178.695312 24.917969 180.535156 C 24.914062 180.789062 24.894531 180.925781 24.855469 180.945312 C 24.746094 181.183594 24.457031 181.300781 23.992188 181.296875 Z M 28.214844 173.105469 C 28.207031 173.066406 27.949219 173.027344 27.433594 172.988281 C 27.109375 172.988281 26.953125 172.996094 26.957031 173.015625 C 26.972656 173.097656 27.375 173.136719 28.164062 173.132812 C 28.183594 173.136719 28.203125 173.125 28.214844 173.105469 Z M 28.214844 173.105469 "/>
<path style=" stroke:none;fill-rule:evenodd;fill:rgb(0%,0%,0%);fill-opacity:1;" d="M 240.238281 189.191406 C 240.175781 189.460938 240.003906 189.597656 239.71875 189.605469 L 239.394531 189.605469 C 239.167969 189.609375 239.042969 189.492188 239.023438 189.261719 L 239.023438 189.148438 C 239.121094 188.546875 239.175781 187.96875 239.1875 187.414062 C 239.1875 187.097656 239.175781 186.777344 239.15625 186.453125 C 239.058594 185.613281 238.835938 184.871094 238.492188 184.222656 C 238.148438 183.578125 237.683594 183.0625 237.101562 182.675781 C 236.519531 182.289062 235.808594 182.09375 234.972656 182.09375 C 233.945312 182.09375 232.914062 182.34375 231.878906 182.839844 C 230.84375 183.339844 229.910156 184 229.070312 184.832031 C 228.09375 185.820312 227.332031 186.90625 226.777344 188.101562 C 226.226562 189.296875 225.792969 190.515625 225.476562 191.757812 C 225.132812 193.019531 224.933594 194.242188 224.886719 195.429688 L 224.886719 195.832031 C 224.886719 196.875 225.09375 197.824219 225.507812 198.683594 C 225.902344 199.496094 226.476562 200.152344 227.238281 200.648438 C 227.996094 201.148438 228.898438 201.394531 229.941406 201.394531 C 230.792969 201.394531 231.625 201.214844 232.441406 200.851562 C 233.261719 200.488281 234.011719 199.996094 234.699219 199.378906 C 235.382812 198.761719 235.980469 198.050781 236.496094 197.238281 C 237.007812 196.425781 237.378906 195.5625 237.605469 194.65625 C 237.664062 194.386719 237.835938 194.253906 238.121094 194.253906 L 238.445312 194.253906 C 238.695312 194.253906 238.828125 194.359375 238.847656 194.570312 C 238.847656 194.625 238.832031 194.679688 238.800781 194.726562 C 238.535156 195.777344 238.097656 196.777344 237.484375 197.722656 C 236.875 198.671875 236.148438 199.5 235.304688 200.210938 C 234.460938 200.925781 233.535156 201.492188 232.53125 201.917969 C 231.527344 202.34375 230.492188 202.554688 229.425781 202.554688 C 228.0625 202.554688 226.855469 202.269531 225.792969 201.703125 C 224.734375 201.136719 223.875 200.347656 223.214844 199.34375 C 222.523438 198.265625 222.121094 197.070312 222 195.757812 C 221.960938 195.40625 221.941406 195.039062 221.941406 194.65625 C 221.941406 193.691406 222.066406 192.707031 222.3125 191.699219 C 222.6875 190.296875 223.28125 188.941406 224.09375 187.636719 C 224.90625 186.332031 225.925781 185.144531 227.148438 184.070312 C 228.300781 183.097656 229.550781 182.324219 230.898438 181.75 C 232.242188 181.175781 233.589844 180.890625 234.941406 180.890625 C 236.015625 180.890625 236.9375 181.125 237.699219 181.597656 C 238.464844 182.074219 239.027344 182.644531 239.394531 183.3125 L 241.390625 181.089844 C 241.46875 180.957031 241.601562 180.890625 241.789062 180.890625 L 241.90625 180.890625 C 242.144531 180.890625 242.261719 181.003906 242.261719 181.234375 L 242.261719 181.347656 Z M 240.238281 189.191406 "/>
<path style=" stroke:none;fill-rule:evenodd;fill:rgb(0%,0%,0%);fill-opacity:1;" d="M 475.691406 183.878906 C 475.605469 184.136719 475.410156 184.265625 475.113281 184.265625 L 461.316406 184.265625 C 461.167969 184.265625 461.0625 184.222656 460.992188 184.136719 C 460.921875 184.070312 460.890625 184 460.886719 183.921875 C 460.890625 183.863281 460.898438 183.808594 460.917969 183.75 L 460.976562 183.535156 C 461.007812 183.410156 461.074219 183.304688 461.183594 183.210938 C 461.292969 183.121094 461.417969 183.074219 461.554688 183.074219 C 462.019531 183.074219 462.453125 183.070312 462.855469 183.054688 C 463.261719 183.039062 463.566406 182.988281 463.773438 182.902344 C 463.949219 182.808594 464.085938 182.550781 464.1875 182.128906 L 468.371094 165.96875 C 468.410156 165.785156 468.429688 165.644531 468.429688 165.539062 C 468.429688 165.394531 468.402344 165.304688 468.34375 165.265625 C 468.214844 165.191406 467.949219 165.144531 467.542969 165.125 C 467.140625 165.105469 466.707031 165.09375 466.242188 165.09375 C 466.09375 165.09375 465.984375 165.046875 465.917969 164.949219 C 465.859375 164.894531 465.828125 164.824219 465.828125 164.734375 C 465.828125 164.679688 465.84375 164.625 465.871094 164.578125 L 465.917969 164.347656 C 466.023438 164.0625 466.21875 163.917969 466.492188 163.917969 C 467.648438 163.976562 468.804688 164.003906 469.96875 164.003906 C 470.164062 164.003906 470.367188 163.996094 470.574219 163.976562 C 471.925781 163.976562 473.300781 163.957031 474.703125 163.917969 C 474.839844 163.917969 474.957031 163.964844 475.054688 164.0625 C 475.09375 164.140625 475.113281 164.207031 475.113281 164.277344 C 475.113281 164.335938 475.101562 164.386719 475.070312 164.433594 L 475.027344 164.648438 C 474.996094 164.777344 474.929688 164.882812 474.828125 164.964844 C 474.722656 165.050781 474.597656 165.09375 474.449219 165.09375 C 473.90625 165.09375 473.363281 165.105469 472.816406 165.125 C 472.269531 165.144531 471.867188 165.195312 471.609375 165.28125 C 471.363281 165.378906 471.191406 165.625 471.09375 166.027344 L 466.9375 182.199219 C 466.839844 182.535156 466.789062 182.785156 466.789062 182.945312 L 466.789062 183.003906 C 466.828125 183.042969 467.105469 183.066406 467.617188 183.074219 L 470.21875 183.074219 C 470.917969 183.074219 471.617188 182.976562 472.3125 182.773438 C 473.007812 182.574219 473.640625 182.230469 474.210938 181.742188 C 474.902344 181.199219 475.457031 180.480469 475.878906 179.585938 C 476.296875 178.691406 476.6875 177.769531 477.054688 176.824219 C 477.132812 176.566406 477.304688 176.4375 477.570312 176.4375 L 477.851562 176.4375 C 478.109375 176.4375 478.234375 176.5625 478.234375 176.808594 L 478.234375 176.921875 Z M 475.691406 183.878906 "/>
<path style=" stroke:none;fill-rule:nonzero;fill:rgb(0%,0%,0%);fill-opacity:1;" d="M 284.539062 115.875 L 265.570312 68.027344 C 265.347656 67.464844 265.621094 66.828125 266.1875 66.609375 C 266.75 66.386719 267.386719 66.660156 267.613281 67.222656 L 286.582031 115.070312 Z M 293.777344 118.152344 L 294.230469 120.710938 L 293.632812 123.257812 L 292.203125 125.28125 L 290.03125 126.703125 L 287.480469 127.152344 L 285.003906 126.625 L 282.898438 125.199219 L 281.46875 123.023438 L 281.019531 120.476562 L 281.542969 118.003906 L 282.972656 115.898438 L 285.15625 114.472656 L 287.769531 114.023438 L 290.246094 114.546875 L 292.351562 115.976562 Z M 290.632812 117.359375 L 290.9375 117.667969 L 289.1875 116.484375 L 289.578125 116.648438 L 287.519531 116.210938 L 287.933594 116.21875 L 285.753906 116.59375 L 286.167969 116.429688 L 284.359375 117.613281 L 284.667969 117.3125 L 283.480469 119.054688 L 283.644531 118.667969 L 283.210938 120.722656 L 283.21875 120.304688 L 283.589844 122.421875 L 283.429688 122.011719 L 284.613281 123.816406 L 284.3125 123.511719 L 286.058594 124.695312 L 285.667969 124.527344 L 287.726562 124.964844 L 287.308594 124.957031 L 289.429688 124.582031 L 289.019531 124.746094 L 290.828125 123.5625 L 290.53125 123.847656 L 291.714844 122.167969 L 291.542969 122.546875 L 292.042969 120.429688 L 292.03125 120.871094 L 291.65625 118.753906 L 291.820312 119.164062 Z M 290.632812 117.359375 "/>
<path style="fill:none;stroke-width:15;stroke-linecap:round;stroke-linejoin:round;stroke:rgb(0%,0%,0%);stroke-opacity:1;stroke-miterlimit:10;" d="M 540.275605 1276.115835 L 540.275605 773.606899 " transform="matrix(0.14633,0,0,-0.146103,0,276.7488)"/>
<path style="fill:none;stroke-width:15;stroke-linecap:round;stroke-linejoin:round;stroke:rgb(0%,0%,0%);stroke-opacity:1;stroke-miterlimit:10;" d="M 354.18631 773.606899 L 726.391595 773.606899 " transform="matrix(0.14633,0,0,-0.146103,0,276.7488)"/>
<path style="fill:none;stroke-width:28.125;stroke-linecap:round;stroke-linejoin:round;stroke:rgb(0%,0%,0%);stroke-opacity:1;stroke-miterlimit:10;" d="M 432.802431 660.565783 L 647.74878 660.565783 " transform="matrix(0.14633,0,0,-0.146103,0,276.7488)"/>
<path style="fill:none;stroke-width:15;stroke-linecap:round;stroke-linejoin:round;stroke:rgb(0%,0%,0%);stroke-opacity:1;stroke-miterlimit:10;" d="M 540.275605 660.565783 L 540.275605 117.25724 " transform="matrix(0.14633,0,0,-0.146103,0,276.7488)"/>
<path style="fill:none;stroke-width:15;stroke-linecap:round;stroke-linejoin:round;stroke:rgb(0%,0%,0%);stroke-opacity:1;stroke-miterlimit:10;" d="M 540.275605 117.25724 L 3395.12191 117.25724 " transform="matrix(0.14633,0,0,-0.146103,0,276.7488)"/>
<path style="fill:none;stroke-width:15;stroke-linecap:round;stroke-linejoin:round;stroke:rgb(0%,0%,0%);stroke-opacity:1;stroke-miterlimit:10;" d="M 1967.698758 1024.874735 L 1967.698758 628.936729 " transform="matrix(0.14633,0,0,-0.146103,0,276.7488)"/>
<path style="fill:none;stroke-width:15;stroke-linecap:round;stroke-linejoin:round;stroke:rgb(0%,0%,0%);stroke-opacity:1;stroke-miterlimit:10;" d="M 1779.180238 628.936729 L 2151.385523 628.936729 " transform="matrix(0.14633,0,0,-0.146103,0,276.7488)"/>
<path style="fill:none;stroke-width:15;stroke-linecap:round;stroke-linejoin:round;stroke:rgb(0%,0%,0%);stroke-opacity:1;stroke-miterlimit:10;" d="M 1779.180238 503.623647 L 2151.385523 503.623647 " transform="matrix(0.14633,0,0,-0.146103,0,276.7488)"/>
<path style="fill:none;stroke-width:15;stroke-linecap:round;stroke-linejoin:round;stroke:rgb(0%,0%,0%);stroke-opacity:1;stroke-miterlimit:10;" d="M 1967.698758 503.623647 L 1965.296228 117.25724 " transform="matrix(0.14633,0,0,-0.146103,0,276.7488)"/>
<path style="fill:none;stroke-width:15;stroke-linecap:round;stroke-linejoin:round;stroke:rgb(0%,0%,0%);stroke-opacity:1;stroke-miterlimit:10;" d="M 3396.750291 310.453811 L 3395.12191 112.498177 " transform="matrix(0.14633,0,0,-0.146103,0,276.7488)"/>
</g>
</svg>
