<?xml version="1.0" encoding="UTF-8"?>
<svg xmlns="http://www.w3.org/2000/svg" xmlns:xlink="http://www.w3.org/1999/xlink" width="409.98pt" height="321pt" viewBox="0 0 409.98 321" version="1.1">
<defs>
<clipPath id="clip1">
  <path d="M 36.550781 127 L 372.988281 127 L 372.988281 265 L 36.550781 265 Z M 36.550781 127 "/>
</clipPath>
<clipPath id="clip2">
  <path d="M 36.550781 107 L 372.988281 107 L 372.988281 285 L 36.550781 285 Z M 36.550781 107 "/>
</clipPath>
</defs>
<g id="surface1">
<g clip-path="url(#clip1)" clip-rule="nonzero">
<path style="fill:none;stroke-width:22.5;stroke-linecap:round;stroke-linejoin:round;stroke:rgb(0%,0%,94.099426%);stroke-opacity:1;stroke-miterlimit:10;" d="M -4854.430914 2453.103723 L -4843.771829 2452.859122 L -4833.161638 2452.027479 L -4822.502553 2450.706634 L -4811.843468 2448.847667 L -4801.233278 2446.450578 L -4790.574193 2443.515368 L -4779.964003 2440.042035 L -4769.304918 2436.03058 L -4758.645833 2431.529924 L -4748.035643 2426.491145 L -4737.425453 2420.963165 L -4726.815263 2414.897063 L -4716.156178 2408.292839 L -4705.545987 2401.199413 L -4694.886902 2393.616785 L -4684.227817 2385.544955 L -4673.617627 2376.983924 L -4662.958542 2367.88477 L -4652.348352 2358.345336 L -4641.689267 2348.316699 L -4631.079077 2337.84778 L -4620.419992 2326.88966 L -4609.809802 2315.491258 L -4599.199612 2303.652575 L -4588.540527 2291.32469 L -4577.930336 2278.605443 L -4567.271251 2265.445915 L -4556.612166 2251.895025 L -4546.001976 2237.903854 L -4535.342891 2223.570241 L -4524.732701 2208.796347 L -4514.073616 2193.631092 L -4503.463426 2178.123395 L -4492.853236 2162.224337 L -4482.194151 2146.031757 L -4471.58396 2129.447816 L -4460.924875 2112.570355 L -4450.314685 2095.350451 L -4439.6556 2077.788107 L -4429.04541 2059.981162 L -4418.386325 2041.880695 L -4407.72724 2023.486708 L -4397.11705 2004.84812 L -4386.457965 1985.91601 L -4375.847775 1966.78822 L -4365.18869 1947.415829 L -4354.5785 1927.847757 L -4343.968309 1908.084005 L -4333.309224 1888.075652 L -4322.699034 1867.920538 L -4312.039949 1847.618663 L -4301.429759 1827.170028 L -4290.770674 1806.525713 L -4280.111589 1785.832477 L -4269.501399 1764.99248 L -4258.842314 1744.005724 L -4248.232124 1722.970046 L -4237.621934 1701.885449 L -4227.011743 1680.703011 L -4216.352658 1659.520574 L -4205.693573 1638.289216 L -4195.083383 1617.008938 L -4184.424298 1595.72866 L -4173.814108 1574.497302 L -4163.155023 1553.217024 L -4152.495938 1532.034587 L -4141.885748 1510.901069 L -4131.226663 1489.767552 L -4120.616473 1468.780795 L -4109.957388 1447.842958 L -4099.347197 1427.002962 L -4088.737007 1406.260805 L -4078.077922 1385.66541 L -4067.467732 1365.216775 L -4056.808647 1344.963821 L -4046.198457 1324.808707 L -4035.539372 1304.849274 L -4024.929182 1285.085521 L -4014.270097 1265.51745 L -4003.611012 1246.193979 L -3993.000822 1227.066189 L -3982.390631 1208.23192 L -3971.780441 1189.593331 L -3961.121356 1171.248264 L -3950.462271 1153.196718 L -3939.852081 1135.389773 L -3929.192996 1117.876348 L -3918.582806 1100.705365 L -3907.923721 1083.876824 L -3897.313531 1067.341803 L -3886.654446 1051.149224 L -3875.995361 1035.299086 L -3865.38517 1019.840309 L -3854.726085 1004.772894 L -3844.115895 990.04792 L -3833.505705 975.714307 L -3822.895515 961.772056 L -3812.23643 948.270087 L -3801.577345 935.159479 L -3790.967155 922.489152 L -3780.30807 910.259107 L -3769.69788 898.469344 L -3759.038795 887.119862 L -3748.428604 876.210663 L -3737.769519 865.790664 L -3727.159329 855.810948 L -3716.500244 846.320433 L -3705.890054 837.31912 L -3695.230969 828.807009 L -3684.620779 820.784099 L -3673.961694 813.250392 L -3663.351504 806.254806 L -3652.692419 799.748422 L -3642.082229 793.73124 L -3631.423144 788.25218 L -3620.812953 783.262322 L -3610.153868 778.810585 L -3599.543678 774.896971 L -3588.884593 771.521479 L -3578.274403 768.635188 L -3567.615318 766.28702 L -3557.005128 764.476973 L -3546.346043 763.253968 L -3535.735853 762.471246 L -3525.076768 762.275565 L -3514.466577 762.618006 L -3503.807492 763.498569 L -3493.197302 764.917255 L -3482.538217 766.825142 L -3471.928027 769.320071 L -3461.268942 772.304202 L -3450.658752 775.826455 L -3439.999667 779.886829 L -3429.389477 784.485326 L -3418.730392 789.573025 L -3408.120202 795.198846 L -3397.461117 801.313868 L -3386.850926 807.967012 L -3376.191841 815.109359 L -3365.581651 822.740907 L -3354.922566 830.910576 L -3344.312376 839.520528 L -3333.653291 848.668602 L -3323.043101 858.256957 L -3312.384016 868.334514 L -3301.773826 878.901272 L -3291.163636 889.908313 L -3280.504551 901.355635 L -3269.89436 913.292158 L -3259.235275 925.620044 L -3248.57619 938.38821 L -3237.966 951.596659 L -3227.306915 965.245389 L -3216.696725 979.23656 L -3206.03764 993.668013 L -3195.42745 1008.490827 L -3184.768365 1023.705003 L -3174.158175 1039.26162 L -3163.49909 1055.160678 L -3152.888899 1071.451098 L -3142.229814 1088.083959 L -3131.619624 1105.010341 L -3120.960539 1122.230244 L -3110.350349 1139.841509 L -3099.691264 1157.697374 L -3089.081074 1175.797841 L -3078.470884 1194.240748 L -3067.811799 1212.928257 L -3057.201609 1231.860366 L -3046.542524 1251.037076 L -3035.932333 1270.409468 L -3025.273248 1290.026459 L -3014.663058 1309.839132 L -3004.003973 1329.847485 L -2993.393783 1350.002599 L -2982.734698 1370.353394 L -2972.075613 1390.802029 L -2961.465423 1411.446344 L -2950.806338 1432.188501 L -2940.196148 1453.028497 L -2929.585958 1474.015254 L -2918.926873 1495.050931 L -2908.316682 1516.184448 L -2897.657597 1537.317966 L -2887.047407 1558.549324 L -2876.388322 1579.780682 L -2865.778132 1601.06096 L -2855.119047 1622.341238 L -2844.508857 1643.572595 L -2833.849772 1664.803953 L -2823.239582 1686.035311 L -2812.580497 1707.168829 L -2801.970306 1728.253426 L -2791.311221 1749.289103 L -2780.701031 1770.178019 L -2770.041946 1791.018016 L -2759.431756 1811.711252 L -2748.772671 1832.306647 L -2738.162481 1852.706362 L -2727.503396 1873.008236 L -2716.893206 1893.11443 L -2706.234121 1913.024943 L -2695.623931 1932.788696 L -2684.964846 1952.307847 L -2674.354655 1971.631318 L -2663.69557 1990.710188 L -2653.08538 2009.544457 L -2642.426295 2028.134125 L -2631.816105 2046.430272 L -2621.15702 2064.481818 L -2610.54683 2082.239843 L -2599.887745 2099.655427 L -2589.277555 2116.82641 L -2578.61847 2133.606032 L -2568.00828 2150.092132 L -2557.349194 2166.235791 L -2546.739004 2182.037009 L -2536.079919 2197.446866 L -2525.469729 2212.514281 L -2514.810644 2227.190335 L -2504.200454 2241.475027 L -2493.541369 2255.319438 L -2482.931179 2268.821407 L -2472.272094 2281.834175 L -2461.661904 2294.455581 L -2451.002819 2306.636706 L -2440.392628 2318.377549 L -2429.733543 2329.67811 L -2419.123353 2340.53839 L -2408.464268 2350.909468 L -2397.854078 2360.791344 L -2387.194993 2370.232939 L -2376.584803 2379.136412 L -2365.925718 2387.599603 L -2355.315528 2395.573592 L -2344.656443 2403.058379 L -2334.046253 2410.005045 L -2323.387168 2416.462509 L -2312.776977 2422.38185 L -2302.117892 2427.81199 L -2291.507702 2432.704008 L -2280.848617 2437.106824 L -2270.238427 2440.971518 L -2259.579342 2444.298091 L -2248.969152 2447.086541 L -2238.310067 2449.336869 L -2227.699877 2451.097996 L -2217.040792 2452.321 L -2206.430602 2452.956962 L -2195.771516 2453.103723 L -2185.161326 2452.712361 L -2174.502241 2451.782878 L -2163.892051 2450.266352 L -2153.232966 2448.309545 L -2142.622776 2445.765696 L -2131.963691 2442.683725 L -2121.353501 2439.112552 L -2110.694416 2434.954336 L -2100.084226 2430.306919 L -2089.425141 2425.1703 L -2078.81495 2419.49556 L -2068.155865 2413.282697 L -2057.545675 2406.580632 L -2046.88659 2399.389366 L -2036.2764 2391.659978 L -2025.617315 2383.441387 L -2015.007125 2374.733596 L -2004.34804 2365.536602 L -1993.73785 2355.899327 L -1983.078765 2345.772849 L -1972.468575 2335.157171 L -1961.80949 2324.10121 L -1951.199299 2312.556048 L -1940.540214 2300.619524 L -1929.930024 2288.193798 L -1919.270939 2275.376711 L -1908.660749 2262.119343 L -1898.050559 2248.421693 L -1887.391474 2234.381601 L -1876.732389 2219.901228 L -1866.122199 2205.029493 L -1855.512009 2189.766398 L -1844.852923 2174.16086 L -1834.242733 2158.212882 L -1823.583648 2141.922462 L -1812.973458 2125.240681 L -1802.314373 2108.265379 L -1791.704183 2090.947635 L -1781.045098 2073.385291 L -1770.386013 2055.480505 L -1759.775823 2037.282199 L -1749.116738 2018.839291 L -1738.506548 2000.151782 L -1727.847463 1981.170753 L -1717.237272 1961.994043 L -1706.578187 1942.572731 L -1695.967997 1922.906819 L -1685.357807 1903.094147 L -1674.698722 1883.036873 L -1664.039637 1862.881759 L -1653.429447 1842.530965 L -1642.819257 1822.03341 L -1632.160172 1801.389094 L -1621.549982 1780.598018 L -1610.890897 1759.709101 L -1600.280706 1738.771264 L -1589.621621 1717.735587 L -1579.011431 1696.60207 L -1568.352346 1675.419632 L -1557.742156 1654.188274 L -1547.083071 1632.956916 L -1536.472881 1611.676638 L -1525.813796 1590.39636 L -1515.203606 1569.165003 L -1504.544521 1547.933645 L -1493.934331 1526.751207 L -1483.275245 1505.56877 L -1472.665055 1484.533092 L -1462.00597 1463.497415 L -1451.39578 1442.608499 L -1440.736695 1421.817423 L -1430.126505 1401.124187 L -1419.46742 1380.528791 L -1408.85723 1360.129076 L -1398.198145 1339.876122 L -1387.587955 1319.818849 L -1376.92887 1299.908336 L -1366.318679 1280.193503 L -1355.659594 1260.674352 L -1345.049404 1241.399801 L -1334.390319 1222.369851 L -1323.780129 1203.535582 L -1313.121044 1184.994834 L -1302.510854 1166.698687 L -1291.851769 1148.696061 L -1281.241579 1130.986956 L -1270.582494 1113.571373 L -1259.972304 1096.49823 L -1249.313219 1079.718608 L -1238.703028 1063.281428 L -1228.043943 1047.137769 L -1217.433753 1031.434392 L -1206.774668 1016.024535 L -1196.164478 1001.05496 L -1185.505393 986.427827 L -1174.895203 972.192054 L -1164.236118 958.347644 L -1153.625928 944.943514 L -1142.966843 931.979667 L -1132.356652 919.407181 L -1121.697567 907.274976 L -1111.087377 895.583054 L -1100.428292 884.331412 L -1089.818102 873.568973 L -1079.159017 863.246815 L -1068.548827 853.413859 L -1057.889742 844.021185 L -1047.279552 835.166632 L -1036.620467 826.752361 L -1026.010277 818.876212 L -1015.351192 811.489265 L -1004.741001 804.59152 L -994.081916 798.182976 L -983.471726 792.312555 L -972.812641 786.931335 L -962.202451 782.088237 L -951.543366 777.783262 L -940.933176 774.016408 L -930.274091 770.738756 L -919.663901 767.999226 L -909.004816 765.797818 L -898.394626 764.134532 L -887.735541 763.009368 L -877.12535 762.373405 L -866.466265 762.324485 L -855.856075 762.813687 L -845.19699 763.79209 L -834.5868 765.357536 L -823.927715 767.412184 L -813.317525 770.004953 L -802.65844 773.135845 L -792.04825 776.804858 L -781.389165 780.963073 L -770.778974 785.708331 L -760.119889 790.94279 L -749.509699 796.666451 L -738.850614 802.928234 L -728.240424 809.679219 L -717.581339 816.968325 L -706.971149 824.746634 L -696.312064 833.014144 L -685.701874 841.770856 L -675.042789 851.01677 L -664.432599 860.751886 L -653.773514 870.927283 L -643.163323 881.591882 L -632.504238 892.745683 L -621.894048 904.290845 L -611.283858 916.32521 L -600.624773 928.799855 L -589.965688 941.665862 L -579.355498 954.972151 L -568.696413 968.718722 L -558.086223 982.856653 L -547.427138 997.337027 L -536.816948 1012.257681 L -526.157862 1027.569697 L -515.547672 1043.224155 L -504.888587 1059.221053 L -494.278397 1075.560393 L -483.619312 1092.291095 L -473.009122 1109.266397 L -462.398932 1126.63306 L -451.739847 1144.244325 L -441.080762 1162.198031 L -430.470572 1180.396338 L -419.811487 1198.888165 L -409.201296 1217.624594 L -398.591106 1236.605624 L -387.932021 1255.831254 L -377.321831 1275.301485 L -366.662746 1294.967398 L -356.052556 1314.82899 L -345.393471 1334.837344 L -334.783281 1355.090298 L -324.124196 1375.441093 L -313.514006 1395.987568 L -302.854921 1416.631884 L -292.195836 1437.42296 L -281.585645 1458.311876 L -270.92656 1479.249713 L -260.31637 1500.33431 L -249.70618 1521.467828 L -239.047095 1542.650265 L -228.38801 1563.881623 L -217.77782 1585.112981 L -207.16763 1606.393259 L -196.508545 1627.673537 L -185.898355 1648.904895 L -175.23927 1670.136253 L -164.629079 1691.31869 L -153.969994 1712.452208 L -143.359804 1733.536805 L -132.700719 1754.523562 L -122.090529 1775.412479 L -111.431444 1796.203555 L -100.821254 1816.896791 L -90.162169 1837.443266 L -79.551979 1857.794061 L -68.892894 1878.047015 L -58.282703 1898.104288 L -47.623618 1917.965881 L -37.013428 1937.680713 L -26.354343 1957.150945 L -15.744153 1976.425496 L -5.085068 1995.406525 L 5.525122 2014.191874 L 16.184207 2032.732622 L 26.794397 2050.979849 L 37.453482 2068.933555 L 48.063672 2086.593739 L 58.722757 2104.009323 L 69.332948 2121.033546 L 79.992033 2137.764247 L 90.602223 2154.201427 L 101.261308 2170.247246 L 111.871498 2185.950624 L 122.530583 2201.26264 L 133.140773 2216.232215 L 143.799858 2230.810428 L 154.410048 2244.94836 L 165.069133 2258.74385 L 175.679323 2272.099059 L 186.338409 2285.062907 L 196.948599 2297.537553 L 207.607684 2309.620837 L 218.217874 2321.26384 L 228.876959 2332.41764 L 239.487149 2343.18008 L 250.146234 2353.404397 L 260.756424 2363.188433 L 271.415509 2372.483267 L 282.025699 2381.33782 L 292.684784 2389.65425 L 303.294975 2397.481479 L 313.95406 2404.819506 L 324.56425 2411.668331 L 335.223335 2417.979034 L 345.833525 2423.800535 L 356.49261 2429.083915 L 367.1028 2433.878092 L 377.761885 2438.134148 L 388.372075 2441.852082 L 399.03116 2445.031893 L 409.64135 2447.722503 L 420.300435 2449.826071 L 430.910626 2451.440437 L 441.569711 2452.516681 L 452.179901 2453.054803 L 462.838986 2453.054803 L 473.449176 2452.516681 L 484.108261 2451.440437 L 494.718451 2449.826071 L 505.377536 2447.722503 L 515.987726 2445.031893 L 526.646811 2441.852082 L 537.257001 2438.134148 L 547.916087 2433.878092 L 558.526277 2429.083915 L 569.185362 2423.800535 L 579.795552 2417.979034 L 590.454637 2411.668331 L 601.064827 2404.819506 L 611.723912 2397.481479 L 622.334102 2389.65425 L 632.993187 2381.33782 L 643.603377 2372.483267 L 654.262462 2363.188433 L 664.872653 2353.404397 L 675.531738 2343.13116 L 686.141928 2332.41764 L 696.801013 2321.26384 L 707.411203 2309.620837 L 718.070288 2297.537553 L 728.680478 2285.013987 L 739.339563 2272.099059 L 749.949753 2258.74385 L 760.608838 2244.94836 L 771.219028 2230.761508 L 781.878113 2216.183294 L 792.488304 2201.26264 L 803.147389 2185.901703 L 813.757579 2170.198326 L 824.367769 2154.152507 L 835.026854 2137.764247 L 845.637044 2121.033546 L 856.296129 2103.960403 L 866.906319 2086.593739 L 877.565404 2068.933555 L 888.175594 2050.930929 L 898.83468 2032.683702 L 909.493765 2014.191874 L 920.103955 1995.406525 L 930.76304 1976.376575 L 941.37323 1957.150945 L 952.032315 1937.631793 L 962.642505 1917.965881 L 973.30159 1898.104288 L 983.91178 1877.998095 L 994.570865 1857.794061 L 1005.181055 1837.394346 L 1015.791246 1816.847871 L 1026.450331 1796.203555 L 1037.060521 1775.412479 L 1047.719606 1754.523562 L 1058.329796 1733.487885 L 1068.988881 1712.452208 L 1079.599071 1691.31869 L 1090.258156 1670.087333 L 1100.868346 1648.855975 L 1111.527431 1627.624617 L 1122.137621 1606.344339 L 1132.796706 1585.112981 L 1143.406897 1563.832703 L 1154.065982 1542.601345 L 1164.676172 1521.418908 L 1175.335257 1500.33431 L 1185.945447 1479.249713 L 1196.604532 1458.262956 L 1207.263617 1437.37404 L 1217.873807 1416.631884 L 1228.483997 1395.938648 L 1239.143082 1375.441093 L 1249.753272 1355.041378 L 1260.412358 1334.837344 L 1271.022548 1314.78007 L 1281.681633 1294.918477 L 1292.291823 1275.301485 L 1302.950908 1255.831254 L 1313.561098 1236.605624 L 1324.220183 1217.624594 L 1334.830373 1198.888165 L 1345.489458 1180.396338 L 1356.099648 1162.149111 L 1366.758733 1144.244325 L 1377.368924 1126.58414 L 1388.028009 1109.266397 L 1398.638199 1092.242174 L 1409.297284 1075.560393 L 1419.907474 1059.221053 L 1430.566559 1043.175235 L 1441.176749 1027.520777 L 1451.835834 1012.257681 L 1462.446024 997.337027 L 1473.105109 982.807733 L 1483.715299 968.669801 L 1494.374384 954.972151 L 1504.984575 941.665862 L 1515.64366 928.799855 L 1526.25385 916.32521 L 1536.912935 904.290845 L 1547.523125 892.696763 L 1558.18221 881.591882 L 1568.7924 870.927283 L 1579.451485 860.751886 L 1590.061675 851.01677 L 1600.72076 841.770856 L 1611.330951 833.014144 L 1621.990036 824.746634 L 1632.600226 816.968325 L 1643.259311 809.679219 L 1653.869501 802.928234 L 1664.528586 796.666451 L 1675.138776 790.94279 L 1685.797861 785.708331 L 1696.408051 780.963073 L 1707.067136 776.804858 L 1717.677326 773.135845 L 1728.336411 770.004953 L 1738.946602 767.412184 L 1749.605687 765.308616 L 1760.215877 763.79209 L 1770.874962 762.813687 L 1781.485152 762.324485 L 1792.144237 762.373405 L 1802.754427 763.009368 L 1813.413512 764.134532 L 1824.023702 765.797818 L 1834.682787 767.999226 L 1845.292977 770.738756 L 1855.952062 774.016408 L 1866.562253 777.783262 L 1877.221338 782.137158 L 1887.831528 786.980255 L 1898.490613 792.312555 L 1909.100803 798.182976 L 1919.759888 804.59152 L 1930.370078 811.489265 L 1941.029163 818.876212 L 1951.639353 826.801281 L 1962.298438 835.166632 L 1972.908629 844.070105 L 1983.567714 853.413859 L 1994.177904 863.246815 L 2004.836989 873.568973 L 2015.447179 884.331412 L 2026.106264 895.583054 L 2036.716454 907.274976 L 2047.326644 919.407181 L 2057.985729 931.979667 L 2068.595919 944.992435 L 2079.255004 958.396564 L 2089.914089 972.192054 L 2100.52428 986.427827 L 2111.183365 1001.05496 L 2121.793555 1016.073455 L 2132.45264 1031.434392 L 2143.06283 1047.186689 L 2153.721915 1063.281428 L 2164.332105 1079.718608 L 2174.99119 1096.49823 L 2185.60138 1113.571373 L 2196.260465 1130.986956 L 2206.870655 1148.696061 L 2217.529741 1166.747608 L 2228.139931 1184.994834 L 2238.799016 1203.535582 L 2249.409206 1222.369851 L 2260.019396 1241.399801 L 2270.678481 1260.723272 L 2281.288671 1280.193503 L 2291.947756 1299.908336 L 2302.557946 1319.818849 L 2313.217031 1339.925042 L 2323.827222 1360.177997 L 2334.486307 1380.577711 L 2345.096497 1401.124187 L 2355.755582 1421.817423 L 2366.365772 1442.608499 L 2377.024857 1463.546335 L 2387.683942 1484.533092 L 2398.294132 1505.61769 L 2408.904322 1526.751207 L 2419.563407 1547.933645 L 2430.222492 1569.165003 L 2451.442873 1611.725559 L 2462.101958 1632.956916 L 2472.712148 1654.237194 L 2483.371233 1675.419632 L 2493.981423 1696.60207 L 2504.640508 1717.735587 L 2515.250698 1738.771264 L 2525.909783 1759.758021 L 2536.519973 1780.646938 L 2547.179058 1801.389094 L 2557.789248 1822.03341 L 2568.448333 1842.530965 L 2579.058524 1862.881759 L 2589.717609 1883.085793 L 2600.327799 1903.094147 L 2610.986884 1922.95574 L 2621.597074 1942.572731 L 2632.256159 1961.994043 L 2642.866349 1981.170753 L 2653.525434 2000.151782 L 2664.135624 2018.839291 L 2674.794709 2037.331119 L 2685.4049 2055.480505 L 2696.063985 2073.385291 L 2706.674175 2090.996555 L 2717.33326 2108.314299 L 2727.94345 2125.289601 L 2738.602535 2141.922462 L 2749.212725 2158.212882 L 2759.87181 2174.209781 L 2770.482 2189.815318 L 2781.141085 2205.029493 L 2791.751275 2219.901228 L 2802.41036 2234.381601 L 2813.020551 2248.470613 L 2823.679636 2262.119343 L 2834.289826 2275.376711 L 2844.948911 2288.242719 L 2855.559101 2300.619524 L 2866.218186 2312.556048 L 2876.828376 2324.10121 L 2887.487461 2335.157171 L 2898.097651 2345.772849 L 2908.756736 2355.899327 L 2919.366926 2365.585522 L 2930.026012 2374.782516 L 2940.636202 2383.441387 L 2951.295287 2391.659978 L 2961.905477 2399.389366 L 2972.564562 2406.580632 L 2983.174752 2413.282697 L 2993.833837 2419.49556 L 3004.444027 2425.1703 L 3015.103112 2430.306919 L 3025.713302 2435.003257 L 3036.372387 2439.112552 L 3046.982578 2442.683725 L 3057.641663 2445.765696 L 3068.251853 2448.309545 L 3078.910938 2450.266352 L 3089.521128 2451.782878 L 3100.180213 2452.712361 L 3110.790403 2453.103723 L 3121.449488 2452.956962 L 3132.059678 2452.321 L 3142.718763 2451.097996 L 3153.328953 2449.336869 L 3163.988038 2447.086541 L 3174.598229 2444.298091 L 3185.257314 2440.971518 L 3195.867504 2437.106824 L 3206.526589 2432.704008 L 3217.136779 2427.81199 L 3227.795864 2422.38185 L 3238.406054 2416.462509 L 3249.065139 2410.005045 L 3259.675329 2403.009459 L 3270.334414 2395.573592 L 3280.944605 2387.599603 L 3291.60369 2379.136412 L 3302.21388 2370.232939 L 3312.872965 2360.791344 L 3323.483155 2350.860548 L 3334.14224 2340.48947 L 3344.75243 2329.67811 L 3355.411515 2318.377549 L 3366.021705 2306.636706 L 3376.68079 2294.455581 L 3387.29098 2281.834175 L 3397.950065 2268.772487 L 3408.560256 2255.319438 L 3419.219341 2241.426107 L 3429.829531 2227.141415 L 3440.488616 2212.514281 L 3451.098806 2197.446866 L 3461.757891 2182.037009 L 3472.368081 2166.235791 L 3482.978271 2150.092132 L 3493.637356 2133.606032 L 3504.247546 2116.77749 L 3514.906631 2099.655427 L 3525.565716 2082.190923 L 3536.175907 2064.432898 L 3546.786097 2046.430272 L 3557.445182 2028.085205 L 3568.104267 2009.495537 L 3578.714457 1990.661268 L 3589.373542 1971.582398 L 3599.983732 1952.258927 L 3610.642817 1932.739775 L 3621.253007 1913.024943 L 3631.912092 1893.06551 L 3642.522283 1872.959316 L 3653.181368 1852.706362 L 3663.791558 1832.257727 L 3674.450643 1811.711252 L 3685.060833 1790.969096 L 3695.671023 1770.178019 L 3706.330108 1749.240183 L 3716.940298 1728.253426 L 3727.599383 1707.168829 L 3738.209573 1685.986391 L 3748.868658 1664.803953 L 3759.478849 1643.572595 L 3770.137934 1622.292317 L 3780.748124 1601.06096 L 3791.407209 1579.780682 L 3802.017399 1558.549324 L 3812.676484 1537.317966 L 3823.286674 1516.135528 L 3833.945759 1495.050931 L 3844.555949 1473.966334 L 3855.215034 1453.028497 L 3865.874119 1432.188501 L 3876.484309 1411.446344 L 3887.0945 1390.802029 L 3897.753585 1370.304474 L 3908.363775 1350.002599 L 3919.02286 1329.798565 L 3929.63305 1309.790212 L 3940.292135 1289.977539 L 3950.902325 1270.409468 L 3961.56141 1250.988156 L 3972.1716 1231.811446 L 3982.830685 1212.879337 L 3993.440876 1194.240748 L 4004.099961 1175.797841 L 4014.710151 1157.648454 L 4025.369236 1139.792589 L 4035.979426 1122.230244 L 4046.638511 1104.961421 L 4057.248701 1088.035039 L 4067.907786 1071.451098 L 4078.517976 1055.160678 L 4089.177061 1039.2127 L 4099.787251 1023.656083 L 4110.446336 1008.490827 L 4121.056527 993.668013 L 4131.715612 979.23656 L 4142.325802 965.196469 L 4152.984887 951.596659 L 4163.595077 938.38821 L 4174.254162 925.620044 L 4184.864352 913.292158 L 4195.523437 901.355635 L 4206.133627 889.908313 L 4216.792712 878.901272 L 4227.402902 868.334514 L 4238.061987 858.256957 L 4248.672178 848.668602 L 4259.331263 839.520528 L 4269.941453 830.910576 L 4280.600538 822.740907 L 4291.210728 815.109359 L 4301.869813 807.967012 L 4312.480003 801.313868 L 4323.139088 795.198846 L 4333.749278 789.573025 L 4344.408363 784.436406 L 4355.018554 779.886829 L 4365.677639 775.826455 L 4376.287829 772.304202 L 4386.946914 769.320071 L 4397.557104 766.825142 L 4408.216189 764.917255 L 4418.826379 763.498569 L 4429.485464 762.618006 L 4440.095654 762.275565 L 4450.754739 762.520166 L 4461.364929 763.253968 L 4472.024014 764.476973 L 4482.634205 766.28702 L 4493.29329 768.635188 L 4503.90348 771.521479 L 4514.562565 774.896971 L 4525.172755 778.810585 L 4535.83184 783.262322 L 4546.44203 788.25218 L 4557.101115 793.73124 L 4567.711305 799.748422 L 4578.37039 806.254806 L 4588.98058 813.299312 L 4599.639666 820.784099 L 4610.249856 828.807009 L 4620.908941 837.31912 L 4631.519131 846.369353 L 4642.178216 855.810948 L 4652.788406 865.790664 L 4663.447491 876.210663 L 4674.057681 887.119862 L 4684.716766 898.469344 L 4695.326956 910.259107 L 4705.937147 922.489152 L 4716.596232 935.208399 L 4727.206422 948.270087 L 4737.865507 961.820976 L 4748.475697 975.714307 L 4759.134782 990.04792 L 4769.793867 1004.772894 L 4780.404057 1019.889229 L 4791.063142 1035.348006 L 4801.673332 1051.198144 L 4812.332417 1067.341803 L 4822.942607 1083.876824 L 4833.601692 1100.754286 L 4844.211883 1117.925269 L 4854.822073 1135.389773 L 4865.481158 1153.196718 L 4876.091348 1171.248264 L 4886.750433 1189.642251 L 4897.360623 1208.23192 L 4908.019708 1227.115109 L 4918.678793 1246.242899 L 4929.288983 1265.56637 L 4939.948068 1285.134441 L 4950.558258 1304.898194 L 4961.217344 1324.808707 L 4971.827534 1344.963821 L 4982.437724 1365.265695 L 4993.096809 1385.71433 L 5003.706999 1406.309726 L 5014.366084 1427.002962 L 5024.976274 1447.842958 L 5035.635359 1468.780795 L 5046.294444 1489.816472 L 5056.904634 1510.901069 L 5067.563719 1532.083507 L 5078.17391 1553.265944 L 5088.832995 1574.497302 L 5099.443185 1595.77758 L 5110.053375 1617.008938 L 5120.71246 1638.289216 L 5131.32265 1659.520574 L 5141.981735 1680.751932 L 5152.591925 1701.934369 L 5163.25101 1723.018967 L 5173.910095 1744.054644 L 5184.520285 1764.99248 L 5195.17937 1785.832477 L 5205.789561 1806.574633 L 5216.448646 1827.170028 L 5227.058836 1847.618663 L 5237.669026 1867.969458 L 5248.328111 1888.124572 L 5258.938301 1908.084005 L 5269.597386 1927.847757 L 5280.207576 1947.464749 L 5290.866661 1966.83714 L 5301.476851 1985.96493 L 5312.135937 2004.84812 L 5322.795022 2023.486708 L 5333.405212 2041.880695 L 5344.064297 2059.981162 L 5354.625592 2077.837027 L 5365.284677 2095.350451 L 5375.943762 2112.570355 L 5386.553952 2129.447816 L 5397.213037 2146.031757 L 5407.823227 2162.273257 L 5418.482312 2178.123395 L 5429.092503 2193.631092 L 5439.751588 2208.796347 L 5450.410673 2223.570241 L 5461.020863 2237.952774 L 5471.679948 2251.895025 L 5482.290138 2265.494835 L 5492.900328 2278.654363 L 5503.510518 2291.37361 L 5514.169603 2303.652575 L 5524.828688 2315.491258 L 5535.438878 2326.88966 L 5546.097963 2337.84778 L 5556.708154 2348.365619 L 5567.367239 2358.394256 L 5578.026324 2367.933691 L 5588.636514 2376.983924 L 5599.246704 2385.544955 L 5609.856894 2393.616785 L 5620.515979 2401.248333 L 5631.126169 2408.292839 L 5641.785254 2414.897063 L 5652.444339 2420.963165 L 5663.054529 2426.491145 L 5673.713615 2431.529924 L 5684.323805 2436.0795 L 5694.98289 2440.042035 L 5705.641975 2443.515368 L 5716.252165 2446.450578 L 5726.91125 2448.847667 L 5737.52144 2450.706634 L 5748.13163 2452.027479 L 5758.74182 2452.859122 L 5769.400905 2453.103723 " transform="matrix(0.0798908,0,0,-0.0798495,0,324.1212)"/>
</g>
<g clip-path="url(#clip2)" clip-rule="nonzero">
<path style="fill:none;stroke-width:22.5;stroke-linecap:round;stroke-linejoin:round;stroke:rgb(100%,50.19989%,0%);stroke-opacity:1;stroke-miterlimit:10;" d="M -4854.430914 1607.714104 L -4843.771829 1580.074203 L -4833.161638 1552.434301 L -4822.502553 1524.84332 L -4811.843468 1497.301259 L -4801.233278 1469.808118 L -4790.574193 1442.461738 L -4779.964003 1415.164278 L -4769.304918 1388.013579 L -4758.645833 1360.960719 L -4748.035643 1334.103541 L -4737.425453 1307.442043 L -4726.815263 1280.927306 L -4716.156178 1254.60825 L -4705.545987 1228.582714 L -4694.886902 1202.752859 L -4684.227817 1177.167606 L -4673.617627 1151.875873 L -4662.958542 1126.828741 L -4652.348352 1102.124051 L -4641.689267 1077.761801 L -4631.079077 1053.693073 L -4620.419992 1030.015706 L -4609.809802 1006.680781 L -4599.199612 983.688296 L -4588.540527 961.136094 L -4577.930336 938.975253 L -4567.271251 917.254693 L -4556.612166 895.974415 L -4546.001976 875.134419 L -4535.342891 854.783624 L -4524.732701 834.873111 L -4514.073616 815.4518 L -4503.463426 796.51969 L -4492.853236 778.125703 L -4482.194151 760.269838 L -4471.58396 742.952094 L -4460.924875 726.123552 L -4450.314685 709.930973 L -4439.6556 694.227595 L -4429.04541 679.16018 L -4418.386325 664.679807 L -4407.72724 650.786476 L -4397.11705 637.480187 L -4386.457965 624.809861 L -4375.847775 612.726577 L -4365.18869 601.279255 L -4354.5785 590.516815 L -4343.968309 580.390338 L -4333.309224 570.850903 L -4322.699034 562.045271 L -4312.039949 553.826681 L -4301.429759 546.341893 L -4290.770674 539.493068 L -4280.111589 533.329126 L -4269.501399 527.850066 L -4258.842314 523.055888 L -4248.232124 518.946593 L -4237.621934 515.52218 L -4227.011743 512.78265 L -4216.352658 510.728003 L -4205.693573 509.358238 L -4195.083383 508.722275 L -4184.424298 508.771196 L -4173.814108 509.504998 L -4163.155023 510.972604 L -4152.495938 513.076171 L -4141.885748 515.913542 L -4131.226663 519.386875 L -4120.616473 523.59401 L -4109.957388 528.486028 L -4099.347197 534.062928 L -4088.737007 540.324711 L -4078.077922 547.222457 L -4067.467732 554.854005 L -4056.808647 563.121515 L -4046.198457 572.024987 L -4035.539372 581.613343 L -4024.929182 591.83766 L -4014.270097 602.69794 L -4003.611012 614.194182 L -3993.000822 626.326387 L -3982.390631 639.094553 L -3971.780441 652.449762 L -3961.121356 666.440934 L -3950.462271 681.019147 L -3939.852081 696.184403 L -3929.192996 711.88778 L -3918.582806 728.22712 L -3907.923721 745.055662 L -3897.313531 762.471246 L -3886.654446 780.424951 L -3875.995361 798.867859 L -3865.38517 817.848889 L -3854.726085 837.31912 L -3844.115895 857.278553 L -3833.505705 877.727188 L -3822.895515 898.616105 L -3812.23643 919.945303 L -3801.577345 941.763703 L -3790.967155 963.973464 L -3780.30807 986.574587 L -3769.69788 1009.567071 L -3759.038795 1032.950917 L -3748.428604 1056.677204 L -3737.769519 1080.794852 L -3727.159329 1105.206022 L -3716.500244 1129.959633 L -3705.890054 1155.006764 L -3695.230969 1180.347417 L -3684.620779 1205.932671 L -3673.961694 1231.811446 L -3663.351504 1257.885902 L -3652.692419 1284.253878 L -3642.082229 1310.768615 L -3631.423144 1337.479033 L -3620.812953 1364.336212 L -3610.153868 1391.389071 L -3599.543678 1418.53977 L -3588.884593 1445.837231 L -3578.274403 1473.232531 L -3567.615318 1500.725672 L -3557.005128 1528.267733 L -3546.346043 1555.858714 L -3535.735853 1583.498615 L -3525.076768 1611.138516 L -3514.466577 1638.827338 L -3503.807492 1666.418319 L -3493.197302 1694.0093 L -3482.538217 1721.551361 L -3471.928027 1748.995582 L -3461.268942 1776.390882 L -3450.658752 1803.639422 L -3439.999667 1830.790122 L -3429.389477 1857.794061 L -3418.730392 1884.651239 L -3408.120202 1911.312737 L -3397.461117 1937.778554 L -3386.850926 1964.04869 L -3376.191841 1990.074226 L -3365.581651 2015.90408 L -3354.922566 2041.440414 L -3344.312376 2066.683226 L -3333.653291 2091.681438 L -3323.043101 2116.337208 L -3312.384016 2140.699458 L -3301.773826 2164.670346 L -3291.163636 2188.347712 L -3280.504551 2211.633718 L -3269.89436 2234.528362 L -3259.235275 2257.080564 L -3248.57619 2279.143565 L -3237.966 2300.815205 L -3227.306915 2322.046562 L -3216.696725 2342.837639 L -3206.03764 2363.188433 L -3195.42745 2383.001106 L -3184.768365 2402.373497 L -3174.158175 2421.207766 L -3163.49909 2439.552833 L -3152.888899 2457.359778 L -3142.229814 2474.628602 L -3131.619624 2491.310383 L -3120.960539 2507.502962 L -3110.350349 2523.059579 L -3099.691264 2538.078074 L -3089.081074 2552.509527 L -3078.470884 2566.353938 L -3067.811799 2579.562386 L -3057.201609 2592.183793 L -3046.542524 2604.120316 L -3035.932333 2615.469798 L -3025.273248 2626.183317 L -3014.663058 2636.260874 L -3004.003973 2645.702469 L -2993.393783 2654.459181 L -2982.734698 2662.531011 L -2972.075613 2669.966878 L -2961.465423 2676.717863 L -2950.806338 2682.783965 L -2940.196148 2688.214105 L -2929.585958 2692.910442 L -2918.926873 2696.921897 L -2908.316682 2700.297389 L -2897.657597 2702.939079 L -2887.047407 2704.895886 L -2876.388322 2706.11889 L -2865.778132 2706.705932 L -2855.119047 2706.559172 L -2844.508857 2705.727529 L -2833.849772 2704.211003 L -2823.239582 2702.009595 L -2812.580497 2699.123305 L -2801.970306 2695.503211 L -2791.311221 2691.198236 L -2780.701031 2686.257298 L -2770.041946 2680.582557 L -2759.431756 2674.271854 L -2748.772671 2667.227348 L -2738.162481 2659.54688 L -2727.503396 2651.230449 L -2716.893206 2642.229136 L -2706.234121 2632.542941 L -2695.623931 2622.269703 L -2684.964846 2611.311583 L -2674.354655 2599.7175 L -2663.69557 2587.487455 L -2653.08538 2574.670368 L -2642.426295 2561.217319 L -2631.816105 2547.177228 L -2621.15702 2532.501174 L -2610.54683 2517.286998 L -2599.887745 2501.48578 L -2589.277555 2485.09752 L -2578.61847 2468.171138 L -2568.00828 2450.706634 L -2557.349194 2432.704008 L -2546.739004 2414.21218 L -2536.079919 2395.13331 L -2525.469729 2375.614159 L -2514.810644 2355.605805 L -2504.200454 2335.10825 L -2493.541369 2314.170414 L -2482.931179 2292.743375 L -2472.272094 2270.924975 L -2461.661904 2248.666293 L -2451.002819 2225.96733 L -2440.392628 2202.925926 L -2429.733543 2179.49316 L -2419.123353 2155.717953 L -2408.464268 2131.600304 L -2397.854078 2107.091294 L -2387.194993 2082.337684 L -2376.584803 2057.241632 L -2365.925718 2031.852059 L -2355.315528 2006.217885 L -2344.656443 1980.33911 L -2334.046253 1954.215734 L -2323.387168 1927.847757 L -2312.776977 1901.33302 L -2302.117892 1874.573682 L -2291.507702 1847.667584 L -2280.848617 1820.614724 L -2270.238427 1793.415105 L -2259.579342 1766.117645 L -2248.969152 1738.722344 L -2238.310067 1711.229203 L -2227.699877 1683.687142 L -2217.040792 1656.047241 L -2206.430602 1628.40734 L -2195.771516 1600.767438 L -2185.161326 1573.127537 L -2174.502241 1545.536556 L -2163.892051 1517.945575 L -2153.232966 1490.403514 L -2142.622776 1462.959293 L -2131.963691 1435.612913 L -2121.353501 1408.364373 L -2110.694416 1381.213674 L -2100.084226 1354.258655 L -2089.425141 1327.401476 L -2078.81495 1300.788899 L -2068.155865 1274.323082 L -2057.545675 1248.101866 L -2046.88659 1222.07633 L -2036.2764 1196.295396 L -2025.617315 1170.807982 L -2015.007125 1145.56517 L -2004.34804 1120.615878 L -1993.73785 1096.009028 L -1983.078765 1071.695699 L -1972.468575 1047.724811 L -1961.80949 1024.096365 L -1951.199299 1000.859279 L -1940.540214 978.013556 L -1929.930024 955.559193 L -1919.270939 933.496192 L -1908.660749 911.873473 L -1898.050559 890.739956 L -1887.391474 869.9978 L -1876.732389 849.744845 L -1866.122199 829.932173 L -1855.512009 810.657622 L -1844.852923 791.872273 L -1834.242733 773.625046 L -1823.583648 755.867021 L -1812.973458 738.647118 L -1802.314373 722.014257 L -1791.704183 705.919518 L -1781.045098 690.411821 L -1770.386013 675.491167 L -1759.775823 661.108634 L -1749.116738 647.362064 L -1738.506548 634.251456 L -1727.847463 621.72789 L -1717.237272 609.791366 L -1706.578187 598.539725 L -1695.967997 587.924046 L -1685.357807 577.944329 L -1674.698722 568.600575 L -1664.039637 559.941703 L -1653.429447 551.918794 L -1642.819257 544.580767 L -1632.160172 537.878702 L -1621.549982 531.91044 L -1610.890897 526.578141 L -1600.280706 521.930724 L -1589.621621 518.017109 L -1579.011431 514.739457 L -1568.352346 512.195608 L -1557.742156 510.336641 L -1547.083071 509.162557 L -1536.472881 508.673355 L -1525.813796 508.869036 L -1515.203606 509.798519 L -1504.544521 511.412885 L -1493.934331 513.712134 L -1483.275245 516.696265 L -1472.665055 520.414198 L -1462.00597 524.768094 L -1451.39578 529.806873 L -1440.736695 535.579454 L -1430.126505 541.987997 L -1419.46742 549.081423 L -1408.85723 556.859732 L -1398.198145 565.274003 L -1387.587955 574.373156 L -1376.92887 584.108272 L -1366.318679 594.47935 L -1355.659594 605.53531 L -1345.049404 617.178313 L -1334.390319 629.457278 L -1323.780129 642.372205 L -1313.121044 655.923095 L -1302.510854 670.061027 L -1291.851769 684.737081 L -1281.241579 700.049097 L -1270.582494 715.948155 L -1259.972304 732.385335 L -1249.313219 749.360638 L -1238.703028 766.922982 L -1228.043943 784.974528 L -1217.433753 803.564196 L -1206.774668 822.691986 L -1196.164478 842.260058 L -1185.505393 862.366252 L -1174.895203 882.912727 L -1164.236118 903.899484 L -1153.625928 925.375443 L -1142.966843 947.242763 L -1132.356652 969.550365 L -1121.697567 992.298248 L -1111.087377 1015.388573 L -1100.428292 1038.870259 L -1089.818102 1062.694386 L -1079.159017 1086.860955 L -1068.548827 1111.369965 L -1057.889742 1136.221416 L -1047.279552 1161.317468 L -1036.620467 1186.707041 L -1026.010277 1212.390135 L -1015.351192 1238.31783 L -1004.741001 1264.490126 L -994.081916 1290.858102 L -983.471726 1317.42176 L -972.812641 1344.181098 L -962.202451 1371.087197 L -951.543366 1398.188976 L -940.933176 1425.388596 L -930.274091 1452.686056 L -919.663901 1480.130276 L -909.004816 1507.623417 L -898.394626 1535.214398 L -887.735541 1562.805379 L -877.12535 1590.445281 L -866.466265 1618.085182 L -855.856075 1645.725083 L -845.19699 1673.316064 L -834.5868 1700.907046 L -823.927715 1728.449107 L -813.317525 1755.893327 L -802.65844 1783.239707 L -792.04825 1810.439327 L -781.389165 1837.590027 L -770.778974 1864.545045 L -760.119889 1891.353304 L -749.509699 1917.965881 L -738.850614 1944.382778 L -728.240424 1970.603994 L -717.581339 1996.580609 L -706.971149 2022.312624 L -696.312064 2047.800037 L -685.701874 2072.99393 L -675.042789 2097.894301 L -664.432599 2122.452231 L -653.773514 2146.71664 L -643.163323 2170.638607 L -632.504238 2194.218134 L -621.894048 2217.406299 L -611.283858 2240.203102 L -600.624773 2262.608545 L -589.965688 2284.622625 L -579.355498 2306.196424 L -568.696413 2327.329942 L -558.086223 2347.974257 L -547.427138 2368.178292 L -536.816948 2387.893124 L -526.157862 2407.118754 L -515.547672 2425.855183 L -504.888587 2444.05349 L -494.278397 2461.713674 L -483.619312 2478.835737 L -473.009122 2495.419678 L -462.398932 2511.465497 L -451.739847 2526.875353 L -441.080762 2541.747088 L -430.470572 2556.03178 L -419.811487 2569.68051 L -409.201296 2582.791118 L -398.591106 2595.216844 L -387.932021 2607.055527 L -377.321831 2618.209328 L -366.662746 2628.776087 L -356.052556 2638.657963 L -345.393471 2647.952797 L -334.783281 2656.513828 L -324.124196 2664.438898 L -313.514006 2671.728004 L -302.854921 2678.283308 L -292.195836 2684.20265 L -281.585645 2689.437109 L -270.92656 2693.986686 L -260.31637 2697.85138 L -249.70618 2701.031192 L -239.047095 2703.477201 L -228.38801 2705.238327 L -217.77782 2706.363491 L -207.16763 2706.754853 L -196.508545 2706.461332 L -185.898355 2705.434008 L -175.23927 2703.721802 L -164.629079 2701.373633 L -153.969994 2698.291662 L -143.359804 2694.475888 L -132.700719 2690.024151 L -122.090529 2684.887532 L -111.431444 2679.066031 L -100.821254 2672.559647 L -90.162169 2665.368381 L -79.551979 2657.541152 L -68.892894 2649.029041 L -58.282703 2639.880968 L -47.623618 2630.048011 L -37.013428 2619.579093 L -26.354343 2608.474212 L -15.744153 2596.733369 L -5.085068 2584.356564 L 5.525122 2571.343796 L 16.184207 2557.743986 L 26.794397 2543.557134 L 37.453482 2528.78324 L 48.063672 2513.373384 L 58.722757 2497.425405 L 69.332948 2480.939305 L 79.992033 2463.866162 L 90.602223 2446.254898 L 101.261308 2428.154431 L 111.871498 2409.466923 L 122.530583 2390.290213 L 133.140773 2370.673221 L 143.799858 2350.518107 L 154.410048 2329.922711 L 165.069133 2308.838114 L 175.679323 2287.313235 L 186.338409 2265.396995 L 196.948599 2243.040473 L 207.607684 2220.243669 L 218.217874 2197.104424 L 228.876959 2173.573818 L 239.487149 2149.700771 L 250.146234 2125.485282 L 260.756424 2100.927352 L 271.415509 2076.075901 L 282.025699 2050.930929 L 292.684784 2025.492435 L 303.294975 1999.760421 L 313.95406 1973.832726 L 324.56425 1947.66043 L 335.223335 1921.243533 L 345.833525 1894.630956 L 356.49261 1867.871618 L 367.1028 1840.916599 L 377.761885 1813.814819 L 388.372075 1786.6152 L 399.03116 1759.268819 L 409.64135 1731.873519 L 420.300435 1704.331458 L 430.910626 1676.789397 L 441.569711 1649.149496 L 452.179901 1621.509595 L 462.838986 1593.869693 L 473.449176 1566.229792 L 484.108261 1538.589891 L 494.718451 1511.04783 L 505.377536 1483.505769 L 515.987726 1456.110468 L 526.646811 1428.764088 L 537.257001 1401.564468 L 547.916087 1374.462689 L 558.526277 1347.50767 L 569.185362 1320.748332 L 579.795552 1294.135754 L 590.454637 1267.718858 L 601.064827 1241.546562 L 611.723912 1215.618867 L 622.334102 1189.886852 L 632.993187 1164.448359 L 643.603377 1139.303387 L 654.262462 1114.451936 L 664.872653 1089.894006 L 675.531738 1065.678517 L 686.141928 1041.80547 L 696.801013 1018.274863 L 707.411203 995.135618 L 718.070288 972.338815 L 728.680478 949.982293 L 739.339563 928.066053 L 749.949753 906.541174 L 760.608838 885.456576 L 771.219028 864.861181 L 781.878113 844.706067 L 792.488304 825.089075 L 803.147389 805.912365 L 813.757579 787.273776 L 824.367769 769.12439 L 835.026854 751.513125 L 845.637044 734.439983 L 856.296129 717.953882 L 866.906319 702.005904 L 877.565404 686.596047 L 888.175594 671.822153 L 898.83468 657.635301 L 909.493765 644.035491 L 920.103955 631.071644 L 930.76304 618.694839 L 941.37323 606.953996 L 952.032315 595.800195 L 962.642505 585.380196 L 973.30159 575.54724 L 983.91178 566.350247 L 994.570865 557.838135 L 1005.181055 550.010907 L 1015.791246 542.81964 L 1026.450331 536.313257 L 1037.060521 530.491755 L 1047.719606 525.355136 L 1058.329796 520.9034 L 1068.988881 517.136546 L 1079.599071 514.054575 L 1090.258156 511.657486 L 1100.868346 509.9942 L 1111.527431 508.966876 L 1122.137621 508.673355 L 1132.796706 509.064717 L 1143.406897 510.140961 L 1154.065982 511.951007 L 1164.676172 514.397016 L 1175.335257 517.576828 L 1185.945447 521.441522 L 1196.604532 525.991099 L 1207.263617 531.176638 L 1217.873807 537.095979 L 1228.483997 543.700204 L 1239.143082 550.94039 L 1249.753272 558.914379 L 1260.412358 567.475411 L 1271.022548 576.721325 L 1281.681633 586.652121 L 1292.291823 597.16996 L 1302.950908 608.372681 L 1313.561098 620.211364 L 1324.220183 632.63709 L 1334.830373 645.698778 L 1345.489458 659.396428 L 1356.099648 673.68112 L 1366.758733 688.552855 L 1377.368924 703.962711 L 1388.028009 720.00853 L 1398.638199 736.592471 L 1409.297284 753.714533 L 1419.907474 771.374718 L 1430.566559 789.573025 L 1441.176749 808.309454 L 1451.835834 827.535084 L 1462.446024 847.249916 L 1473.105109 867.45395 L 1483.715299 888.098266 L 1494.374384 909.231784 L 1504.984575 930.805583 L 1515.64366 952.819663 L 1526.25385 975.225105 L 1536.912935 998.021909 L 1547.523125 1021.210074 L 1558.18221 1044.7896 L 1568.7924 1068.711568 L 1579.451485 1092.975977 L 1590.061675 1117.582827 L 1600.72076 1142.483199 L 1611.330951 1167.677091 L 1621.990036 1193.115584 L 1632.600226 1218.847598 L 1643.259311 1244.873134 L 1653.869501 1271.04543 L 1664.528586 1297.462327 L 1675.138776 1324.123824 L 1685.797861 1350.883162 L 1696.408051 1377.887101 L 1707.067136 1404.988881 L 1717.677326 1432.188501 L 1728.336411 1459.583801 L 1738.946602 1486.979101 L 1749.605687 1514.521162 L 1760.215877 1542.112143 L 1770.874962 1569.703125 L 1781.485152 1597.343026 L 1792.144237 1624.982927 L 1802.754427 1652.622829 L 1813.413512 1680.26273 L 1824.023702 1707.804791 L 1834.682787 1735.297932 L 1845.292977 1762.742152 L 1855.952062 1790.039612 L 1866.562253 1817.239232 L 1877.221338 1844.341011 L 1887.831528 1871.24711 L 1898.490613 1898.006448 L 1909.100803 1924.570105 L 1919.759888 1950.938082 L 1930.370078 1977.110378 L 1941.029163 2003.038073 L 1951.639353 2028.721167 L 1962.298438 2054.11074 L 1972.908629 2079.206792 L 1983.567714 2104.058243 L 1994.177904 2128.567253 L 2004.836989 2152.733822 L 2015.447179 2176.557949 L 2026.106264 2200.039635 L 2036.716454 2223.12996 L 2047.326644 2245.877843 L 2057.985729 2268.185445 L 2068.595919 2290.052765 L 2079.255004 2311.528724 L 2089.914089 2332.515481 L 2100.52428 2353.061956 L 2111.183365 2373.16815 L 2121.793555 2392.736222 L 2132.45264 2411.864012 L 2143.06283 2430.45368 L 2153.721915 2448.505226 L 2164.332105 2466.06757 L 2174.99119 2483.042873 L 2185.60138 2499.480053 L 2196.260465 2515.379111 L 2206.870655 2530.691127 L 2217.529741 2545.367181 L 2228.139931 2559.505113 L 2238.799016 2573.007082 L 2249.409206 2585.92201 L 2260.019396 2598.249895 L 2270.678481 2609.892898 L 2281.288671 2620.948858 L 2291.947756 2631.319936 L 2302.557946 2641.055052 L 2313.217031 2650.154205 L 2323.827222 2658.568476 L 2334.486307 2666.346785 L 2345.096497 2673.440211 L 2355.755582 2679.848754 L 2366.365772 2685.572415 L 2377.024857 2690.660114 L 2387.683942 2695.01401 L 2398.294132 2698.683023 L 2408.904322 2701.667154 L 2419.563407 2704.015323 L 2430.222492 2705.580768 L 2440.832682 2706.510252 L 2451.442873 2706.705932 L 2462.101958 2706.265651 L 2472.712148 2705.091567 L 2483.371233 2703.2326 L 2493.981423 2700.63983 L 2504.640508 2697.411098 L 2515.250698 2693.448564 L 2525.909783 2688.801147 L 2536.519973 2683.517767 L 2547.179058 2677.500585 L 2557.789248 2670.847441 L 2568.448333 2663.509414 L 2579.058524 2655.486505 L 2589.717609 2646.778713 L 2600.327799 2637.483879 L 2610.986884 2627.504162 L 2621.597074 2616.839563 L 2632.256159 2605.587922 L 2642.866349 2593.700318 L 2653.525434 2581.127832 L 2664.135624 2568.017224 L 2674.794709 2554.270654 L 2685.4049 2539.888121 L 2696.063985 2524.967466 L 2706.674175 2509.459769 L 2717.33326 2493.36503 L 2727.94345 2476.732169 L 2738.602535 2459.512266 L 2749.212725 2441.803161 L 2759.87181 2423.507014 L 2770.482 2404.721666 L 2781.141085 2385.447115 L 2791.751275 2365.683362 L 2802.41036 2345.381488 L 2813.020551 2324.688252 L 2823.679636 2303.505814 L 2834.289826 2281.883095 L 2844.948911 2259.820094 L 2855.559101 2237.365732 L 2866.218186 2214.520008 L 2876.828376 2191.282923 L 2887.487461 2167.654476 L 2898.097651 2143.683589 L 2908.756736 2119.37026 L 2919.366926 2094.763409 L 2930.026012 2069.814118 L 2940.636202 2044.571305 L 2951.295287 2019.083892 L 2961.905477 1993.302957 L 2972.564562 1967.277422 L 2983.174752 1941.056206 L 2993.833837 1914.590389 L 3004.444027 1887.977811 L 3015.103112 1861.120633 L 3025.713302 1834.165614 L 3036.372387 1807.014915 L 3046.982578 1779.766375 L 3057.641663 1752.419994 L 3068.251853 1724.975774 L 3078.910938 1697.433713 L 3089.521128 1669.842732 L 3100.180213 1642.251751 L 3110.790403 1614.611849 L 3121.449488 1586.971948 L 3132.059678 1559.332047 L 3142.718763 1531.692145 L 3153.328953 1504.150084 L 3163.988038 1476.656944 L 3174.598229 1449.261643 L 3185.257314 1421.964183 L 3195.867504 1394.764563 L 3206.526589 1367.711704 L 3217.136779 1340.805606 L 3227.795864 1314.046267 L 3238.406054 1287.53153 L 3249.065139 1261.163554 L 3259.675329 1235.040178 L 3270.334414 1209.161403 L 3280.944605 1183.527229 L 3291.60369 1158.137656 L 3302.21388 1133.041604 L 3312.872965 1108.287993 L 3323.483155 1083.778983 L 3334.14224 1059.661335 L 3344.75243 1035.886128 L 3355.411515 1012.453362 L 3366.021705 989.411957 L 3376.68079 966.712994 L 3387.29098 944.503233 L 3397.950065 922.635913 L 3408.560256 901.257794 L 3419.219341 880.271037 L 3429.829531 859.773482 L 3440.488616 839.765129 L 3451.098806 820.245977 L 3461.757891 801.167107 L 3472.368081 782.67528 L 3482.978271 764.672654 L 3493.637356 747.20815 L 3504.247546 730.281768 L 3514.906631 713.893508 L 3525.565716 698.09229 L 3536.175907 682.878114 L 3546.786097 668.20206 L 3557.445182 654.161969 L 3568.104267 640.708919 L 3578.714457 627.891832 L 3589.373542 615.661787 L 3599.983732 604.067705 L 3610.642817 593.158505 L 3621.253007 582.836347 L 3631.912092 573.150152 L 3642.522283 564.148839 L 3653.181368 555.832408 L 3663.791558 548.15194 L 3674.450643 541.156354 L 3685.060833 534.796731 L 3695.671023 529.17091 L 3706.330108 524.181052 L 3716.940298 519.876076 L 3727.599383 516.304903 L 3738.209573 513.369692 L 3748.868658 511.168284 L 3759.478849 509.651759 L 3770.137934 508.820116 L 3780.748124 508.722275 L 3791.407209 509.260397 L 3802.017399 510.532322 L 3812.676484 512.489129 L 3823.286674 515.130819 L 3833.945759 518.457391 L 3844.555949 522.517766 L 3855.215034 527.214103 L 3865.874119 532.595323 L 3876.484309 538.710345 L 3887.0945 545.46133 L 3897.753585 552.897197 L 3908.363775 560.969027 L 3919.02286 569.725739 L 3929.63305 579.167334 L 3940.292135 589.19597 L 3950.902325 599.90949 L 3961.56141 611.258971 L 3972.1716 623.244415 L 3982.830685 635.865821 L 3993.440876 649.07427 L 4004.099961 662.918681 L 4014.710151 677.350134 L 4025.369236 692.319708 L 4035.979426 707.925246 L 4046.638511 724.068905 L 4057.248701 740.799606 L 4067.907786 758.068429 L 4078.517976 775.875375 L 4089.177061 794.220442 L 4099.787251 813.054711 L 4110.446336 832.427102 L 4121.056527 852.239775 L 4131.715612 872.590569 L 4142.325802 893.381645 L 4152.984887 914.613003 L 4163.595077 936.284643 L 4174.254162 958.347644 L 4184.864352 980.899846 L 4195.523437 1003.79449 L 4206.133627 1027.080496 L 4216.792712 1050.757862 L 4227.402902 1074.72875 L 4238.061987 1099.091 L 4248.672178 1123.74677 L 4259.331263 1148.744982 L 4269.941453 1173.987794 L 4280.600538 1199.573048 L 4291.210728 1225.353982 L 4301.869813 1251.379518 L 4312.480003 1277.649654 L 4323.139088 1304.115471 L 4333.749278 1330.776969 L 4344.408363 1357.634147 L 4355.018554 1384.638086 L 4365.677639 1411.788786 L 4376.287829 1439.037326 L 4386.946914 1466.432626 L 4397.557104 1493.876847 L 4408.216189 1521.418908 L 4418.826379 1549.009889 L 4429.485464 1576.64979 L 4440.095654 1604.289691 L 4450.754739 1631.929593 L 4461.364929 1659.569494 L 4472.024014 1687.160475 L 4482.634205 1714.702536 L 4493.29329 1742.195677 L 4503.90348 1769.590977 L 4514.562565 1796.888437 L 4525.172755 1824.039137 L 4535.83184 1851.091996 L 4546.44203 1877.949175 L 4557.101115 1904.659592 L 4567.711305 1931.22325 L 4578.37039 1957.542306 L 4588.98058 1983.616762 L 4599.639666 2009.495537 L 4610.249856 2035.080791 L 4620.908941 2060.421443 L 4631.519131 2085.468575 L 4642.178216 2110.222186 L 4652.788406 2134.633355 L 4663.447491 2158.751004 L 4674.057681 2182.477291 L 4684.716766 2205.861137 L 4695.326956 2228.902541 L 4705.937147 2251.503664 L 4716.596232 2273.713425 L 4727.206422 2295.482905 L 4737.865507 2316.812103 L 4748.475697 2337.70102 L 4759.134782 2358.149655 L 4769.793867 2378.109088 L 4780.404057 2397.579319 L 4791.063142 2416.560349 L 4801.673332 2435.003257 L 4812.332417 2452.956962 L 4822.942607 2470.372546 L 4833.601692 2487.201088 L 4844.211883 2503.540428 L 4854.822073 2519.243805 L 4865.481158 2534.409061 L 4876.091348 2548.987274 L 4886.750433 2562.929525 L 4897.360623 2576.333655 L 4908.019708 2589.101821 L 4918.678793 2601.234026 L 4929.288983 2612.730268 L 4939.948068 2623.590548 L 4950.558258 2633.814865 L 4961.217344 2643.40322 L 4971.827534 2652.306693 L 4982.437724 2660.574203 L 4993.096809 2668.156831 L 5003.706999 2675.103497 L 5014.366084 2681.36528 L 5024.976274 2686.94218 L 5035.635359 2691.785278 L 5046.294444 2695.992413 L 5056.904634 2699.514666 L 5067.563719 2702.352037 L 5078.17391 2704.455604 L 5088.832995 2705.874289 L 5099.443185 2706.608092 L 5110.053375 2706.657012 L 5120.71246 2706.02105 L 5131.32265 2704.700205 L 5141.981735 2702.645558 L 5152.591925 2699.906028 L 5163.25101 2696.481615 L 5173.910095 2692.37232 L 5184.520285 2687.578142 L 5195.17937 2682.050162 L 5205.789561 2675.886219 L 5216.448646 2669.037394 L 5227.058836 2661.552607 L 5237.669026 2653.382937 L 5248.328111 2644.528385 L 5258.938301 2635.03787 L 5269.597386 2624.862472 L 5280.207576 2614.100033 L 5290.866661 2602.652711 L 5301.476851 2590.618347 L 5312.135937 2577.8991 L 5322.795022 2564.641732 L 5333.405212 2550.748401 L 5344.064297 2536.219108 L 5354.625592 2521.151692 L 5365.284677 2505.497235 L 5375.943762 2489.255735 L 5386.553952 2472.476114 L 5397.213037 2455.10945 L 5407.823227 2437.253585 L 5418.482312 2418.859597 L 5429.092503 2399.927488 L 5439.751588 2380.506177 L 5450.410673 2360.644584 L 5461.020863 2340.244869 L 5471.679948 2319.404873 L 5482.290138 2298.124595 L 5492.900328 2276.404035 L 5503.510518 2254.243194 L 5514.169603 2231.690991 L 5524.828688 2208.698507 L 5535.438878 2185.363581 L 5546.097963 2161.686215 L 5556.708154 2137.617486 L 5567.367239 2113.255237 L 5578.026324 2088.550547 L 5588.636514 2063.503415 L 5599.246704 2038.211682 L 5609.856894 2012.626428 L 5620.515979 1986.796574 L 5631.126169 1960.771038 L 5641.785254 1934.451982 L 5652.444339 1907.937244 L 5663.054529 1881.275747 L 5673.713615 1854.418568 L 5684.323805 1827.365709 L 5694.98289 1800.21501 L 5705.641975 1772.91755 L 5716.252165 1745.571169 L 5726.91125 1718.078029 L 5737.52144 1690.535968 L 5748.13163 1662.944986 L 5758.74182 1635.305085 L 5769.400905 1607.665184 " transform="matrix(0.0798908,0,0,-0.0798495,0,324.1212)"/>
</g>
<path style=" stroke:none;fill-rule:nonzero;fill:rgb(0%,0%,0%);fill-opacity:1;" d="M 6.589844 195.296875 L 392.894531 195.296875 L 392.894531 196.195312 L 6.589844 196.195312 C 6.34375 196.195312 6.140625 195.996094 6.140625 195.746094 C 6.140625 195.5 6.34375 195.296875 6.589844 195.296875 Z M 402.949219 195.746094 L 390.367188 192.152344 L 392.882812 195.296875 L 392.882812 196.195312 L 390.367188 199.339844 Z M 402.949219 195.746094 "/>
<path style=" stroke:none;fill-rule:nonzero;fill:rgb(0%,0%,0%);fill-opacity:1;" d="M 36.101562 317.535156 L 36.101562 20.113281 L 37 20.113281 L 37 317.535156 C 37 317.78125 36.796875 317.984375 36.550781 317.984375 C 36.300781 317.984375 36.101562 317.78125 36.101562 317.535156 Z M 36.550781 10.0625 L 32.953125 22.640625 L 36.101562 20.125 L 37 20.125 L 40.144531 22.640625 Z M 36.550781 10.0625 "/>
<path style=" stroke:none;fill-rule:evenodd;fill:rgb(0%,0%,0%);fill-opacity:1;" d="M 26.53125 209.253906 C 26.296875 210.164062 25.917969 211.042969 25.398438 211.890625 C 24.878906 212.734375 24.226562 213.507812 23.4375 214.210938 C 22.726562 214.84375 21.949219 215.347656 21.105469 215.722656 C 20.261719 216.09375 19.417969 216.28125 18.574219 216.28125 C 17.71875 216.28125 16.960938 216.09375 16.300781 215.714844 C 15.636719 215.339844 15.109375 214.832031 14.714844 214.191406 C 14.28125 213.484375 14.035156 212.699219 13.96875 211.839844 C 13.941406 211.636719 13.929688 211.429688 13.929688 211.21875 C 13.929688 210.574219 14.015625 209.90625 14.183594 209.21875 C 14.425781 208.296875 14.808594 207.402344 15.320312 206.535156 C 15.835938 205.664062 16.492188 204.878906 17.292969 204.175781 C 18.003906 203.542969 18.78125 203.035156 19.625 202.648438 C 20.46875 202.261719 21.316406 202.070312 22.175781 202.070312 C 23.03125 202.070312 23.785156 202.265625 24.441406 202.652344 C 25.097656 203.042969 25.621094 203.558594 26.015625 204.195312 C 26.449219 204.90625 26.703125 205.695312 26.78125 206.566406 C 26.792969 206.78125 26.800781 206.988281 26.800781 207.195312 C 26.800781 207.867188 26.710938 208.554688 26.53125 209.253906 Z M 24.570312 204.515625 C 24.359375 203.988281 24.039062 203.5625 23.613281 203.234375 C 23.183594 202.902344 22.660156 202.738281 22.042969 202.738281 C 21.429688 202.738281 20.816406 202.90625 20.210938 203.242188 C 19.601562 203.578125 19.058594 204.011719 18.582031 204.542969 C 17.980469 205.191406 17.507812 205.890625 17.15625 206.644531 C 16.808594 207.402344 16.535156 208.167969 16.34375 208.945312 C 16.117188 209.792969 15.976562 210.617188 15.925781 211.417969 C 15.914062 211.570312 15.90625 211.71875 15.90625 211.871094 C 15.90625 212.496094 16.011719 213.113281 16.21875 213.710938 C 16.417969 214.246094 16.722656 214.691406 17.136719 215.054688 C 17.550781 215.414062 18.066406 215.59375 18.6875 215.59375 C 19.328125 215.59375 19.953125 215.410156 20.5625 215.042969 C 21.175781 214.675781 21.722656 214.222656 22.207031 213.683594 C 22.832031 212.957031 23.320312 212.191406 23.667969 211.382812 C 24.019531 210.570312 24.304688 209.746094 24.523438 208.90625 C 24.722656 208.125 24.847656 207.351562 24.902344 206.59375 L 24.902344 206.265625 C 24.902344 205.636719 24.792969 205.054688 24.570312 204.515625 Z M 24.570312 204.515625 "/>
<path style=" stroke:none;fill-rule:evenodd;fill:rgb(0%,0%,0%);fill-opacity:1;" d="M 23.429688 126.6875 C 23.195312 127.597656 22.820312 128.472656 22.300781 129.320312 C 21.78125 130.167969 21.125 130.941406 20.339844 131.644531 C 19.589844 132.300781 18.8125 132.808594 18.011719 133.15625 C 18.023438 133.382812 18.046875 133.613281 18.078125 133.851562 C 18.113281 134.089844 18.167969 134.296875 18.25 134.46875 C 18.332031 134.640625 18.441406 134.777344 18.582031 134.878906 C 18.726562 134.980469 18.917969 135.027344 19.164062 135.027344 C 19.390625 135.027344 19.609375 134.980469 19.820312 134.882812 C 20.03125 134.785156 20.226562 134.652344 20.414062 134.488281 C 20.601562 134.320312 20.765625 134.121094 20.910156 133.890625 C 21.050781 133.660156 21.152344 133.421875 21.210938 133.175781 C 21.230469 133.09375 21.273438 133.027344 21.339844 132.96875 C 21.410156 132.914062 21.488281 132.886719 21.578125 132.882812 C 21.667969 132.886719 21.75 132.917969 21.820312 132.988281 C 21.847656 133.039062 21.859375 133.082031 21.859375 133.121094 C 21.859375 133.15625 21.851562 133.191406 21.828125 133.222656 C 21.734375 133.648438 21.59375 134.082031 21.410156 134.527344 C 21.226562 134.96875 21 135.375 20.734375 135.746094 C 20.472656 136.121094 20.15625 136.425781 19.796875 136.664062 C 19.433594 136.902344 19.023438 137.023438 18.566406 137.023438 C 18.046875 137.023438 17.671875 136.90625 17.441406 136.675781 C 17.207031 136.441406 17.0625 136.136719 17.003906 135.761719 C 16.976562 135.59375 16.964844 135.410156 16.964844 135.214844 C 16.964844 135.015625 16.976562 134.808594 17.003906 134.597656 C 17.054688 134.167969 17.101562 133.792969 17.140625 133.46875 C 16.636719 133.628906 16.082031 133.710938 15.472656 133.710938 C 14.621094 133.710938 13.863281 133.523438 13.199219 133.148438 C 12.539062 132.773438 12.011719 132.265625 11.617188 131.625 C 11.183594 130.917969 10.933594 130.132812 10.871094 129.273438 C 10.84375 129.066406 10.832031 128.859375 10.832031 128.652344 C 10.832031 128.007812 10.914062 127.339844 11.082031 126.648438 C 11.328125 125.730469 11.707031 124.835938 12.222656 123.964844 C 12.734375 123.097656 13.394531 122.3125 14.195312 121.609375 C 14.90625 120.976562 15.679688 120.46875 16.523438 120.082031 C 17.367188 119.695312 18.21875 119.503906 19.078125 119.503906 C 19.929688 119.503906 20.683594 119.695312 21.339844 120.085938 C 21.996094 120.476562 22.523438 120.988281 22.914062 121.628906 C 23.347656 122.335938 23.605469 123.125 23.679688 123.996094 C 23.695312 124.210938 23.699219 124.421875 23.699219 124.628906 C 23.699219 125.300781 23.609375 125.984375 23.429688 126.6875 Z M 21.492188 122.023438 C 21.277344 121.496094 20.957031 121.054688 20.53125 120.703125 C 20.105469 120.347656 19.574219 120.171875 18.941406 120.167969 C 18.316406 120.171875 17.691406 120.351562 17.070312 120.710938 C 16.453125 121.070312 15.898438 121.519531 15.414062 122.050781 C 14.796875 122.734375 14.308594 123.476562 13.957031 124.269531 C 13.605469 125.066406 13.320312 125.871094 13.109375 126.6875 C 12.894531 127.488281 12.769531 128.285156 12.730469 129.066406 C 12.71875 129.179688 12.710938 129.292969 12.710938 129.40625 C 12.710938 130.058594 12.828125 130.664062 13.058594 131.230469 C 13.207031 131.582031 13.394531 131.894531 13.621094 132.171875 C 13.847656 132.445312 14.058594 132.625 14.25 132.707031 C 14.246094 132.695312 14.242188 132.601562 14.242188 132.421875 C 14.242188 132.273438 14.261719 132.121094 14.300781 131.960938 C 14.359375 131.746094 14.453125 131.53125 14.582031 131.328125 C 14.710938 131.125 14.859375 130.941406 15.03125 130.785156 C 15.203125 130.625 15.398438 130.496094 15.617188 130.398438 C 15.839844 130.300781 16.066406 130.25 16.304688 130.25 C 16.644531 130.25 16.914062 130.316406 17.125 130.441406 C 17.335938 130.566406 17.5 130.726562 17.625 130.917969 C 17.746094 131.113281 17.832031 131.339844 17.875 131.59375 C 17.921875 131.847656 17.949219 132.054688 17.953125 132.214844 C 18.097656 132.125 18.273438 131.984375 18.492188 131.804688 C 18.707031 131.621094 18.917969 131.421875 19.117188 131.199219 C 19.738281 130.53125 20.222656 129.804688 20.570312 129.023438 C 20.917969 128.242188 21.199219 127.453125 21.402344 126.648438 C 21.617188 125.828125 21.75 125.015625 21.800781 124.214844 C 21.8125 124.09375 21.820312 123.972656 21.820312 123.839844 C 21.820312 123.199219 21.710938 122.59375 21.492188 122.023438 Z M 17.238281 132.640625 C 17.25 132.496094 17.257812 132.339844 17.257812 132.167969 L 17.257812 131.945312 C 17.242188 131.726562 17.203125 131.539062 17.128906 131.378906 C 17.058594 131.222656 16.949219 131.097656 16.804688 131.003906 C 16.660156 130.910156 16.457031 130.863281 16.199219 130.863281 C 15.921875 130.863281 15.660156 130.976562 15.417969 131.195312 C 15.175781 131.417969 15.015625 131.6875 14.929688 132 C 14.90625 132.109375 14.890625 132.210938 14.890625 132.3125 C 14.890625 132.441406 14.914062 132.566406 14.960938 132.675781 C 15.035156 132.871094 15.164062 132.996094 15.335938 133.042969 L 15.589844 133.042969 C 16.164062 133.042969 16.714844 132.910156 17.238281 132.640625 Z M 17.238281 132.640625 "/>
<path style=" stroke:none;fill-rule:evenodd;fill:rgb(0%,0%,0%);fill-opacity:1;" d="M 30.070312 132.355469 C 30.070312 132.859375 30.03125 133.363281 29.953125 133.863281 C 29.875 134.363281 29.679688 134.835938 29.367188 135.273438 C 29.144531 135.59375 28.84375 135.839844 28.472656 136.011719 C 28.101562 136.183594 27.695312 136.269531 27.257812 136.269531 C 26.835938 136.269531 26.4375 136.183594 26.0625 136.011719 C 25.6875 135.839844 25.390625 135.59375 25.167969 135.273438 C 24.855469 134.835938 24.660156 134.363281 24.582031 133.863281 C 24.5 133.363281 24.460938 132.859375 24.460938 132.355469 C 24.460938 131.84375 24.5 131.332031 24.582031 130.820312 C 24.660156 130.308594 24.855469 129.832031 25.167969 129.386719 C 25.390625 129.0625 25.6875 128.8125 26.058594 128.632812 C 26.433594 128.453125 26.832031 128.363281 27.257812 128.363281 C 27.691406 128.363281 28.097656 128.453125 28.46875 128.632812 C 28.84375 128.8125 29.144531 129.0625 29.367188 129.386719 C 29.679688 129.832031 29.875 130.308594 29.953125 130.820312 C 30.03125 131.332031 30.070312 131.84375 30.070312 132.355469 Z M 28.867188 132.171875 C 28.867188 131.949219 28.867188 131.714844 28.863281 131.472656 C 28.859375 131.226562 28.847656 130.984375 28.832031 130.75 C 28.816406 130.515625 28.785156 130.292969 28.742188 130.082031 C 28.703125 129.875 28.648438 129.695312 28.585938 129.546875 C 28.464844 129.308594 28.289062 129.113281 28.054688 128.960938 C 27.820312 128.808594 27.550781 128.730469 27.257812 128.730469 C 26.96875 128.730469 26.707031 128.808594 26.476562 128.964844 C 26.242188 129.117188 26.066406 129.3125 25.945312 129.546875 C 25.882812 129.695312 25.832031 129.875 25.789062 130.082031 C 25.746094 130.292969 25.714844 130.515625 25.699219 130.75 C 25.683594 130.984375 25.675781 131.226562 25.671875 131.472656 C 25.667969 131.714844 25.664062 131.949219 25.664062 132.171875 C 25.664062 132.417969 25.667969 132.675781 25.671875 132.949219 C 25.675781 133.21875 25.683594 133.484375 25.699219 133.738281 C 25.714844 133.992188 25.746094 134.234375 25.789062 134.460938 C 25.832031 134.691406 25.882812 134.882812 25.945312 135.035156 C 26.058594 135.292969 26.234375 135.503906 26.472656 135.667969 C 26.707031 135.832031 26.96875 135.914062 27.257812 135.914062 C 27.558594 135.914062 27.824219 135.832031 28.0625 135.667969 C 28.300781 135.503906 28.472656 135.292969 28.585938 135.035156 C 28.648438 134.882812 28.703125 134.691406 28.742188 134.460938 C 28.785156 134.234375 28.816406 133.992188 28.832031 133.738281 C 28.847656 133.484375 28.859375 133.21875 28.863281 132.949219 C 28.867188 132.675781 28.867188 132.417969 28.867188 132.171875 Z M 28.867188 132.171875 "/>
<path style=" stroke:none;fill-rule:evenodd;fill:rgb(0%,0%,0%);fill-opacity:1;" d="M 22.203125 100.414062 C 22.183594 100.496094 22.140625 100.566406 22.074219 100.621094 C 22.003906 100.675781 21.921875 100.707031 21.824219 100.707031 C 21.523438 100.707031 21.226562 100.710938 20.933594 100.726562 C 20.644531 100.738281 20.433594 100.769531 20.304688 100.828125 C 20.167969 100.871094 20.066406 101.035156 20.003906 101.316406 L 17.28125 111.914062 C 17.253906 112.035156 17.242188 112.136719 17.242188 112.226562 C 17.242188 112.3125 17.257812 112.367188 17.289062 112.386719 C 17.378906 112.441406 17.566406 112.476562 17.851562 112.484375 C 18.136719 112.492188 18.4375 112.5 18.753906 112.496094 C 18.933594 112.5 19.023438 112.574219 19.023438 112.722656 C 19.023438 112.761719 19.019531 112.800781 19.003906 112.847656 L 18.964844 112.996094 C 18.894531 113.183594 18.773438 113.277344 18.597656 113.277344 C 17.765625 113.242188 16.921875 113.222656 16.070312 113.222656 C 15.222656 113.222656 14.363281 113.242188 13.492188 113.277344 C 13.324219 113.277344 13.238281 113.199219 13.238281 113.035156 L 13.238281 112.957031 L 13.277344 112.800781 C 13.332031 112.59375 13.457031 112.492188 13.65625 112.496094 C 13.972656 112.5 14.277344 112.492188 14.566406 112.484375 C 14.855469 112.476562 15.066406 112.441406 15.195312 112.386719 C 15.3125 112.324219 15.40625 112.152344 15.476562 111.878906 L 18.21875 101.277344 C 18.246094 101.160156 18.257812 101.066406 18.257812 100.996094 C 18.257812 100.902344 18.242188 100.84375 18.210938 100.816406 C 18.105469 100.769531 17.914062 100.738281 17.628906 100.726562 C 17.34375 100.710938 17.050781 100.707031 16.746094 100.707031 C 16.566406 100.707031 16.476562 100.621094 16.476562 100.453125 L 16.476562 100.386719 L 16.515625 100.214844 C 16.585938 100.027344 16.707031 99.933594 16.882812 99.933594 C 17.730469 99.960938 18.578125 99.972656 19.433594 99.972656 C 20.292969 99.972656 21.144531 99.960938 21.988281 99.933594 C 22.082031 99.933594 22.15625 99.964844 22.222656 100.027344 C 22.25 100.078125 22.261719 100.125 22.261719 100.167969 C 22.261719 100.207031 22.253906 100.242188 22.230469 100.273438 Z M 22.203125 100.414062 "/>
<path style=" stroke:none;fill-rule:evenodd;fill:rgb(0%,0%,0%);fill-opacity:1;" d="M 27.667969 112.34375 C 27.667969 112.851562 27.625 113.355469 27.546875 113.855469 C 27.46875 114.355469 27.273438 114.824219 26.960938 115.261719 C 26.738281 115.582031 26.441406 115.828125 26.066406 116 C 25.695312 116.171875 25.289062 116.257812 24.851562 116.257812 C 24.429688 116.257812 24.03125 116.171875 23.65625 116 C 23.28125 115.828125 22.984375 115.582031 22.761719 115.261719 C 22.449219 114.824219 22.253906 114.355469 22.175781 113.855469 C 22.09375 113.355469 22.054688 112.851562 22.054688 112.34375 C 22.054688 111.832031 22.09375 111.320312 22.175781 110.808594 C 22.253906 110.300781 22.449219 109.820312 22.761719 109.375 C 22.984375 109.050781 23.28125 108.800781 23.65625 108.621094 C 24.027344 108.441406 24.425781 108.351562 24.851562 108.351562 C 25.285156 108.351562 25.691406 108.441406 26.0625 108.621094 C 26.4375 108.800781 26.738281 109.050781 26.960938 109.375 C 27.273438 109.820312 27.46875 110.300781 27.546875 110.808594 C 27.625 111.320312 27.667969 111.832031 27.667969 112.34375 Z M 26.464844 112.160156 C 26.464844 111.941406 26.460938 111.707031 26.457031 111.460938 C 26.453125 111.214844 26.441406 110.972656 26.425781 110.738281 C 26.410156 110.503906 26.378906 110.28125 26.339844 110.074219 C 26.296875 109.863281 26.246094 109.6875 26.183594 109.539062 C 26.0625 109.300781 25.882812 109.105469 25.648438 108.949219 C 25.414062 108.796875 25.148438 108.722656 24.851562 108.722656 C 24.5625 108.722656 24.304688 108.800781 24.070312 108.953125 C 23.835938 109.109375 23.660156 109.304688 23.539062 109.539062 C 23.476562 109.6875 23.425781 109.863281 23.382812 110.074219 C 23.339844 110.28125 23.3125 110.503906 23.296875 110.738281 C 23.277344 110.972656 23.269531 111.214844 23.265625 111.460938 C 23.261719 111.707031 23.257812 111.941406 23.257812 112.160156 C 23.257812 112.40625 23.261719 112.664062 23.265625 112.9375 C 23.269531 113.210938 23.277344 113.472656 23.296875 113.726562 C 23.3125 113.980469 23.339844 114.222656 23.382812 114.453125 C 23.425781 114.679688 23.476562 114.871094 23.539062 115.027344 C 23.652344 115.28125 23.828125 115.492188 24.066406 115.65625 C 24.300781 115.824219 24.5625 115.90625 24.851562 115.90625 C 25.152344 115.90625 25.421875 115.824219 25.65625 115.65625 C 25.894531 115.492188 26.070312 115.28125 26.183594 115.027344 C 26.246094 114.871094 26.296875 114.679688 26.339844 114.453125 C 26.378906 114.222656 26.410156 113.980469 26.425781 113.726562 C 26.441406 113.472656 26.453125 113.210938 26.457031 112.9375 C 26.460938 112.664062 26.464844 112.40625 26.464844 112.160156 Z M 26.464844 112.160156 "/>
<path style="fill:none;stroke-width:7.5;stroke-linecap:round;stroke-linejoin:round;stroke:rgb(0%,0%,0%);stroke-opacity:1;stroke-dasharray:60,30;stroke-miterlimit:10;" d="M 457.509443 2453.446164 L 3119.689272 2453.446164 " transform="matrix(0.0798908,0,0,-0.0798495,0,324.1212)"/>
<path style="fill:none;stroke-width:7.5;stroke-linecap:round;stroke-linejoin:round;stroke:rgb(0%,0%,0%);stroke-opacity:1;stroke-dasharray:60,30;stroke-miterlimit:10;" d="M 457.509443 2704.064243 L 2449.731552 2704.064243 " transform="matrix(0.0798908,0,0,-0.0798495,0,324.1212)"/>
<path style=" stroke:none;fill-rule:evenodd;fill:rgb(0%,0%,0%);fill-opacity:1;" d="M 384.019531 135.585938 C 383.960938 135.824219 383.828125 136.023438 383.617188 136.183594 C 383.40625 136.34375 383.179688 136.425781 382.933594 136.421875 C 382.675781 136.425781 382.480469 136.335938 382.34375 136.160156 C 382.253906 136.058594 382.203125 135.9375 382.199219 135.792969 C 382.199219 135.707031 382.210938 135.617188 382.234375 135.53125 C 382.296875 135.292969 382.429688 135.09375 382.644531 134.933594 C 382.855469 134.773438 383.085938 134.691406 383.332031 134.691406 C 383.589844 134.691406 383.789062 134.777344 383.921875 134.945312 C 384.011719 135.066406 384.058594 135.195312 384.058594 135.332031 C 384.058594 135.421875 384.046875 135.507812 384.019531 135.585938 Z M 384.125 144.707031 C 384.054688 145.035156 383.945312 145.378906 383.796875 145.738281 C 383.648438 146.101562 383.464844 146.425781 383.25 146.722656 C 383.03125 147.015625 382.777344 147.261719 382.488281 147.460938 C 382.199219 147.65625 381.863281 147.753906 381.480469 147.753906 C 381.15625 147.753906 380.878906 147.6875 380.648438 147.546875 C 380.414062 147.410156 380.234375 147.230469 380.109375 147.003906 C 379.984375 146.777344 379.921875 146.527344 379.921875 146.25 C 379.90625 146.238281 379.902344 146.214844 379.902344 146.175781 C 379.902344 145.894531 379.960938 145.605469 380.085938 145.308594 L 381.65625 141.171875 C 381.847656 140.652344 381.945312 140.226562 381.945312 139.894531 C 381.945312 139.613281 381.828125 139.472656 381.585938 139.46875 C 381.367188 139.472656 381.171875 139.535156 380.996094 139.660156 C 380.820312 139.785156 380.660156 139.957031 380.515625 140.179688 C 380.371094 140.402344 380.242188 140.667969 380.125 140.972656 C 380.007812 141.277344 379.910156 141.597656 379.832031 141.945312 C 379.761719 142.113281 379.644531 142.199219 379.476562 142.207031 L 379.261719 142.207031 C 379.105469 142.207031 379.027344 142.128906 379.027344 141.972656 L 379.027344 141.90625 C 379.105469 141.5625 379.222656 141.210938 379.378906 140.847656 C 379.53125 140.488281 379.71875 140.160156 379.941406 139.867188 C 380.160156 139.570312 380.414062 139.328125 380.707031 139.132812 C 380.996094 138.9375 381.328125 138.839844 381.703125 138.839844 C 382.027344 138.839844 382.300781 138.910156 382.527344 139.046875 C 382.753906 139.1875 382.925781 139.371094 383.046875 139.597656 C 383.164062 139.828125 383.230469 140.085938 383.242188 140.375 L 383.242188 140.4375 C 383.242188 140.710938 383.191406 140.988281 383.078125 141.277344 L 381.507812 145.433594 C 381.328125 145.941406 381.238281 146.375 381.238281 146.730469 C 381.226562 146.742188 381.21875 146.742188 381.21875 146.730469 C 381.21875 147 381.339844 147.136719 381.585938 147.136719 C 381.808594 147.136719 382.003906 147.070312 382.183594 146.9375 C 382.359375 146.804688 382.523438 146.632812 382.667969 146.410156 C 382.8125 146.191406 382.941406 145.929688 383.050781 145.621094 C 383.160156 145.316406 383.261719 144.992188 383.351562 144.652344 C 383.390625 144.488281 383.503906 144.410156 383.691406 144.40625 L 383.902344 144.40625 C 383.972656 144.410156 384.046875 144.429688 384.117188 144.472656 C 384.136719 144.523438 384.152344 144.566406 384.164062 144.605469 C 384.164062 144.644531 384.152344 144.679688 384.125 144.707031 Z M 384.125 144.707031 "/>
<path style=" stroke:none;fill-rule:evenodd;fill:rgb(0%,0%,0%);fill-opacity:1;" d="M 382.785156 257.058594 C 382.746094 257.210938 382.726562 257.328125 382.726562 257.40625 C 382.726562 257.46875 382.742188 257.511719 382.765625 257.53125 C 382.832031 257.582031 382.972656 257.613281 383.191406 257.625 C 383.414062 257.636719 383.660156 257.644531 383.9375 257.644531 C 384.03125 257.644531 384.109375 257.675781 384.179688 257.738281 C 384.207031 257.789062 384.21875 257.832031 384.21875 257.867188 C 384.21875 257.90625 384.210938 257.941406 384.191406 257.972656 L 384.160156 258.121094 C 384.144531 258.210938 384.097656 258.277344 384.023438 258.328125 C 383.949219 258.378906 383.867188 258.40625 383.785156 258.40625 C 383.113281 258.367188 382.429688 258.347656 381.738281 258.347656 C 381.054688 258.347656 380.359375 258.367188 379.65625 258.40625 C 379.558594 258.40625 379.488281 258.375 379.441406 258.308594 C 379.402344 258.273438 379.382812 258.230469 379.382812 258.179688 C 379.382812 258.140625 379.394531 258.105469 379.414062 258.074219 L 379.441406 257.925781 C 379.480469 257.730469 379.605469 257.636719 379.808594 257.644531 C 380.074219 257.644531 380.324219 257.636719 380.550781 257.625 C 380.78125 257.613281 380.953125 257.578125 381.070312 257.519531 C 381.167969 257.484375 381.25 257.316406 381.324219 257.023438 L 382.097656 253.992188 C 381.949219 254.136719 381.6875 254.324219 381.316406 254.550781 C 380.945312 254.773438 380.542969 254.886719 380.109375 254.886719 C 379.601562 254.886719 379.171875 254.757812 378.828125 254.503906 C 378.480469 254.246094 378.210938 253.921875 378.015625 253.53125 C 377.785156 253.070312 377.664062 252.570312 377.648438 252.039062 L 377.648438 251.898438 C 377.648438 251.402344 377.71875 250.90625 377.851562 250.410156 C 378.007812 249.867188 378.222656 249.328125 378.503906 248.792969 C 378.78125 248.261719 379.148438 247.765625 379.605469 247.308594 C 379.980469 246.933594 380.410156 246.617188 380.890625 246.359375 C 381.371094 246.101562 381.863281 245.972656 382.359375 245.972656 C 382.824219 245.972656 383.199219 246.105469 383.480469 246.367188 C 383.761719 246.628906 383.949219 246.878906 384.046875 247.109375 C 384.128906 246.992188 384.265625 246.832031 384.449219 246.628906 C 384.632812 246.429688 384.832031 246.242188 385.054688 246.066406 C 385.144531 245.992188 385.230469 245.953125 385.316406 245.953125 C 385.414062 245.953125 385.480469 246.003906 385.519531 246.101562 C 385.539062 246.140625 385.546875 246.179688 385.546875 246.214844 L 385.546875 246.28125 Z M 383.570312 248.351562 C 383.542969 248.238281 383.523438 248.121094 383.503906 248 C 383.484375 247.878906 383.453125 247.757812 383.414062 247.636719 C 383.3125 247.34375 383.164062 247.097656 382.976562 246.898438 C 382.785156 246.703125 382.542969 246.601562 382.253906 246.601562 C 381.980469 246.601562 381.714844 246.699219 381.449219 246.894531 C 381.183594 247.089844 380.941406 247.339844 380.722656 247.644531 C 380.410156 248.078125 380.179688 248.53125 380.023438 248.996094 C 379.867188 249.464844 379.726562 249.949219 379.597656 250.457031 C 379.46875 250.960938 379.363281 251.445312 379.277344 251.914062 C 379.226562 252.152344 379.199219 252.378906 379.199219 252.59375 C 379.199219 252.820312 379.226562 253.039062 379.277344 253.25 C 379.335938 253.546875 379.441406 253.789062 379.59375 253.980469 C 379.742188 254.171875 379.957031 254.265625 380.226562 254.265625 C 380.523438 254.265625 380.824219 254.164062 381.125 253.957031 C 381.425781 253.75 381.703125 253.496094 381.960938 253.195312 C 382.066406 253.070312 382.164062 252.949219 382.257812 252.832031 C 382.351562 252.71875 382.433594 252.59375 382.503906 252.460938 Z M 383.570312 248.351562 "/>
<path style=" stroke:none;fill-rule:evenodd;fill:rgb(0%,0%,0%);fill-opacity:1;" d="M 391.769531 207.871094 C 391.699219 208.0625 391.574219 208.15625 391.390625 208.15625 L 389.589844 208.15625 L 388.15625 213.710938 C 388.039062 214.113281 387.980469 214.464844 387.980469 214.765625 C 387.980469 214.847656 387.988281 214.925781 388 215 C 388.03125 215.300781 388.183594 215.453125 388.457031 215.453125 C 388.699219 215.453125 388.933594 215.386719 389.152344 215.25 C 389.375 215.117188 389.578125 214.9375 389.773438 214.710938 C 389.96875 214.484375 390.140625 214.21875 390.296875 213.910156 C 390.453125 213.605469 390.59375 213.28125 390.722656 212.941406 C 390.742188 212.867188 390.785156 212.8125 390.847656 212.777344 C 390.914062 212.742188 390.976562 212.726562 391.035156 212.726562 L 391.277344 212.726562 C 391.359375 212.726562 391.425781 212.761719 391.480469 212.828125 C 391.5 212.875 391.507812 212.914062 391.507812 212.949219 L 391.507812 213.007812 C 391.371094 213.378906 391.203125 213.742188 391 214.105469 C 390.796875 214.464844 390.5625 214.789062 390.296875 215.078125 C 390.03125 215.367188 389.738281 215.605469 389.417969 215.792969 C 389.101562 215.980469 388.746094 216.074219 388.359375 216.074219 C 388.023438 216.074219 387.730469 216.007812 387.484375 215.878906 C 387.242188 215.753906 387.042969 215.574219 386.894531 215.34375 C 386.746094 215.117188 386.660156 214.855469 386.632812 214.558594 C 386.621094 214.484375 386.613281 214.402344 386.613281 214.316406 C 386.613281 214.101562 386.640625 213.886719 386.691406 213.664062 L 388.117188 208.15625 L 386.292969 208.15625 C 386.132812 208.15625 386.046875 208.070312 386.03125 207.902344 L 386.03125 207.824219 L 386.089844 207.667969 C 386.15625 207.476562 386.273438 207.382812 386.449219 207.382812 L 388.300781 207.382812 L 389.09375 204.300781 C 389.152344 204.066406 389.269531 203.894531 389.449219 203.78125 C 389.625 203.667969 389.804688 203.613281 389.988281 203.613281 C 390.175781 203.613281 390.328125 203.671875 390.453125 203.792969 C 390.535156 203.875 390.578125 203.988281 390.578125 204.128906 C 390.578125 204.199219 390.570312 204.269531 390.558594 204.335938 L 389.773438 207.382812 L 391.554688 207.382812 C 391.726562 207.382812 391.808594 207.46875 391.808594 207.636719 L 391.808594 207.703125 Z M 391.769531 207.871094 "/>
</g>
</svg>
