<?xml version="1.0" encoding="utf-8"?>
<!-- Generator: Adobe Illustrator 19.0.0, SVG Export Plug-In . SVG Version: 6.00 Build 0)  -->
<svg version="1.1" id="Layer_1" xmlns="http://www.w3.org/2000/svg" xmlns:xlink="http://www.w3.org/1999/xlink" x="0px" y="0px"
	 viewBox="0 0 426.9599915 228.9600067" style="enable-background:new 0 0 426.9599915 228.9600067;" xml:space="preserve">
<style type="text/css">
	.st0{clip-path:url(#SVGID_2_);}
	.st1{clip-path:url(#SVGID_4_);}
	.st2{clip-path:url(#SVGID_6_);}
	
		.st3{clip-path:url(#SVGID_8_);fill:none;stroke:#0000F0;stroke-width:1.7980175;stroke-linecap:round;stroke-linejoin:round;stroke-miterlimit:10;}
	
		.st4{clip-path:url(#SVGID_10_);fill:none;stroke:#FF8000;stroke-width:1.7980175;stroke-linecap:round;stroke-linejoin:round;stroke-miterlimit:10;}
	.st5{clip-path:url(#SVGID_12_);fill-rule:evenodd;clip-rule:evenodd;}
	.st6{clip-path:url(#SVGID_14_);fill-rule:evenodd;clip-rule:evenodd;}
	.st7{clip-path:url(#SVGID_16_);fill-rule:evenodd;clip-rule:evenodd;}
	
		.st8{clip-path:url(#SVGID_6_);fill:none;stroke:#000000;stroke-width:0.5993391;stroke-linecap:round;stroke-linejoin:round;stroke-miterlimit:10;stroke-dasharray:4.794713,2.3973565;}
	.st9{clip-path:url(#SVGID_18_);fill-rule:evenodd;clip-rule:evenodd;}
	.st10{clip-path:url(#SVGID_20_);fill-rule:evenodd;clip-rule:evenodd;}
	.st11{clip-path:url(#SVGID_22_);fill-rule:evenodd;clip-rule:evenodd;}
	
		.st12{clip-path:url(#SVGID_6_);fill:none;stroke:#000000;stroke-width:0.5993391;stroke-linecap:round;stroke-linejoin:round;stroke-miterlimit:10;stroke-dasharray:2.3973565,1.1986783;}
</style>
<g>
	<defs>
		<rect id="SVGID_1_" x="0.0000064" width="426.9599915" height="228.9600067"/>
	</defs>
	<clipPath id="SVGID_2_">
		<use xlink:href="#SVGID_1_"  style="overflow:visible;"/>
	</clipPath>
	<g class="st0">
	</g>
</g>
<g>
	<defs>
		<rect id="SVGID_3_" y="-0.0000763" width="426.9599915" height="228.9600067"/>
	</defs>
	<clipPath id="SVGID_4_">
		<use xlink:href="#SVGID_3_"  style="overflow:visible;"/>
	</clipPath>
	<g class="st1">
		<defs>
			<rect id="SVGID_5_" y="-0.002655" width="426.5205688" height="228.7526398"/>
		</defs>
		<clipPath id="SVGID_6_">
			<use xlink:href="#SVGID_5_"  style="overflow:visible;"/>
		</clipPath>
		<g class="st2">
			<defs>
				<rect id="SVGID_7_" x="37.7687492" y="37.5519104" width="336.521759" height="180.6135254"/>
			</defs>
			<clipPath id="SVGID_8_">
				<use xlink:href="#SVGID_7_"  style="overflow:visible;"/>
			</clipPath>
			<polyline class="st3" points="-379.3536072,61.4692535 -378.5169373,61.490036 -377.6842651,61.5531616 -376.8476257,61.6578522 
				-376.0109558,61.8048859 -375.1783142,61.9934998 -374.3416138,62.2236328 -373.5081787,62.4961548 -372.6715088,62.8094025 
				-371.8356628,63.1634216 -371.0022278,63.5589905 -370.1655273,63.9953308 -369.3328857,64.4716187 -368.4962158,64.987854 
				-367.6627502,65.5448456 -366.8260803,66.140213 -365.9902344,66.7755127 -365.1567688,67.4491882 -364.3201294,68.1612244 
				-363.4874573,68.9100037 -362.6507874,69.6971588 -361.8172913,70.5210724 -360.9814453,71.3809357 -360.1448059,72.2767639 
				-359.3113403,73.2077637 -358.4747009,74.173111 -357.6419983,75.1728363 -356.8053589,76.2053223 -355.968689,77.2705688 
				-355.1360168,78.368576 -354.2993774,79.4969635 -353.4659119,80.6565094 -352.6300659,81.8456268 -351.7965698,83.0643005 
				-350.9599304,84.3109589 -350.1232605,85.5855865 -349.2905884,86.8865814 -348.4539185,88.2139435 -347.6204834,89.5660706 
				-346.7846375,90.9421844 -345.9511414,92.3422852 -345.1144714,93.7639313 -344.277832,95.2079773 -343.4451904,96.6719971 
				-342.60849,98.1567841 -341.7750549,99.6591644 -340.9391785,101.1807175 -340.1025391,102.7182541 -339.269043,104.2717743 
				-338.4324036,105.840477 -337.599762,107.4227676 -336.763092,109.0186462 -335.9295959,110.6257019 -335.09375,112.2439575 
				-334.2571106,113.8717957 -333.423645,115.5092239 -332.5877686,117.1538544 -331.754303,118.8056564 -330.9176636,120.4630661 
				-330.0849915,122.1244736 -329.2483215,123.7906723 -328.4116516,125.4584656 -327.5782166,127.1286621 
				-326.7423401,128.7980652 -325.9088745,130.4682617 -325.0722046,132.1360474 -324.2355652,133.8014526 
				-323.4028931,135.4628601 -322.5662537,137.1194611 -321.7327576,138.7704773 -320.8969116,140.4143066 -320.063446,142.0501251 
				-319.2268066,143.6771545 -318.3909302,145.2938232 -317.5574646,146.9000854 -316.7207947,148.4935608 
				-315.8881531,150.0742493 -315.0514832,151.6413574 -314.2180176,153.1932831 -313.3813477,154.7284241 
				-312.5455017,156.2475739 -311.7120361,157.7475586 -310.8753967,159.22995 -310.0426941,160.6915741 -309.2060547,162.1324158 
				-308.3693848,163.5524902 -307.5359192,164.9493713 -306.7000732,166.3222961 -305.8666077,167.6712341 
				-305.0299377,168.9953918 -304.1972961,170.2931976 -303.3606262,171.564621 -302.5239563,172.8072815 -301.6912842,174.0227661 
				-300.8546448,175.2078857 -300.0211792,176.3634338 -299.1845093,177.4886169 -298.3518677,178.5818329 
				-297.5151978,179.6438904 -296.6785278,180.6723633 -295.8458557,181.6672974 -295.0092163,182.6286621 
				-294.1757507,183.5556641 -293.3391113,184.4466858 -292.5048218,185.3017578 -291.6697693,186.1208801 
				-290.8347168,186.9032288 -289.9988403,187.6480255 -289.1637878,188.3552551 -288.3294983,189.0241394 
				-287.4944458,189.6538696 -286.6585999,190.245224 -285.8235474,190.7966309 -284.9892883,191.308075 -284.1534119,191.7795715 
				-283.3183594,192.2102966 -282.4832764,192.6010742 -281.6482239,192.9502869 -280.8131714,193.2579651 
				-279.9780884,193.5248718 -279.1430359,193.7502289 -278.3079834,193.9332275 -277.4729309,194.0746765 
				-276.6378784,194.1753693 -275.8027954,194.2329102 -274.9677429,194.2480927 -274.1326904,194.2225189 
				-273.2976074,194.1537933 -272.4625549,194.0435181 -271.6274719,193.8916779 -270.7924194,193.6974792 
				-269.9573669,193.4617462 -269.1223145,193.1844482 -268.287262,192.866394 -267.452179,192.5067749 -266.6171265,192.1064148 
				-265.782074,191.6652832 -264.946991,191.1842041 -264.1119385,190.6623688 -263.276886,190.1005859 -262.441803,189.5004272 
				-261.6067505,188.860321 -260.771698,188.1818542 -259.9366455,187.4650269 -259.1015625,186.711441 -258.26651,185.9194946 
				-257.4314575,185.0915985 -256.596405,184.2269287 -255.7613373,183.3263092 -254.9262543,182.3913116 -254.0903931,181.4211578 
				-253.2553406,180.4182434 -252.4210815,179.3809662 -251.5860291,178.3117218 -250.7501526,177.2097168 
				-249.9151001,176.0773315 -249.0800323,174.9138031 -248.2457733,173.7206879 -247.4099274,172.4988098 
				-246.5748444,171.2489624 -245.7397919,169.9711456 -244.9047241,168.666153 -244.0696716,167.3363953 -243.2346191,165.9810486 
				-242.3995361,164.6017456 -241.5644836,163.1992493 -240.7294159,161.7744141 -239.8943634,160.3279724 
				-239.0593109,158.8607483 -238.2242279,157.3743591 -237.3891754,155.8687897 -236.5541077,154.3456421 
				-235.7190552,152.8056946 -234.8840027,151.2505798 -234.0489197,149.6802673 -233.2138672,148.0955811 
				-232.3788147,146.4989166 -231.5437469,144.8902588 -230.7086945,143.2704163 -229.8736115,141.6417694 -229.038559,140.00354 
				-228.2035065,138.3573303 -227.3684387,136.7055054 -226.5333862,135.0473022 -225.6983032,133.3851013 
				-224.8632507,131.7189026 -224.0281982,130.0503082 -223.1931305,128.3801117 -222.358078,126.7107162 -221.522995,125.0405197 
				-220.687149,123.3735199 -219.85289,121.7081223 -219.0178223,120.0475159 -218.1827698,118.3917084 -217.3468933,116.7414932 
				-216.5118408,115.098465 -215.6775818,113.4634399 -214.8425293,111.8379974 -214.0066681,110.2221451 -213.1715851,108.6174774 
				-212.337326,107.0256042 -211.5022736,105.4465103 -210.6664124,103.8817978 -209.8313599,102.3314819 -208.9962769,100.7979431 
				-208.1620178,99.2819672 -207.3261719,97.7835999 -206.4911041,96.3035889 -205.6560516,94.8443756 -204.8209686,93.4059296 
				-203.9859161,91.9898529 -203.1508636,90.5953674 -202.3157959,89.2248535 -201.4807434,87.8791046 -200.6456604,86.558136 
				-199.8106079,85.264328 -198.9755554,83.9960938 -198.1404877,82.7566376 -197.3054352,81.5451508 -196.4703674,80.3632355 
				-195.6352997,79.2116699 -194.8002472,78.0904846 -193.9651947,77.0012665 -193.130127,75.9440002 -192.2950592,74.9195099 
				-191.4599915,73.9277802 -190.624939,72.9712219 -189.7898865,72.0490112 -188.9548187,71.161972 -188.119751,70.3108978 
				-187.2846832,69.496582 -186.4496307,68.7190094 -185.6145782,67.9790192 -184.7795105,67.2765808 -183.9444427,66.6132965 
				-183.109375,65.9875793 -182.2743225,65.4017944 -181.43927,64.8552094 -180.6034088,64.3485413 -179.7691345,63.8818359 
				-178.934082,63.4559174 -178.0990143,63.0707245 -177.2631531,62.7270966 -176.4281006,62.4242249 -175.5938263,62.1629028 
				-174.7587738,61.942337 -173.9229126,61.7641296 -173.0878601,61.6274872 -172.2527924,61.5331879 -171.4177246,61.4812317 
				-170.5826569,61.470047 -169.7476044,61.5020142 -168.9125519,61.5755463 -168.0774841,61.6906128 -167.2424164,61.8480377 
				-166.4073486,62.0470276 -165.5722961,62.2883759 -164.7372437,62.5704651 -163.9021759,62.8941193 -163.0671082,63.2585297 
				-162.2320557,63.6644745 -161.3969879,64.1103973 -160.5619354,64.5970764 -159.7268677,65.123703 -158.8917999,65.6902924 
				-158.0567474,66.2952423 -157.2216797,66.9401398 -156.3866272,67.6233978 -155.5515594,68.3450165 -154.716507,69.1042023 
				-153.8814392,69.9001312 -153.0463715,70.7328491 -152.211319,71.6015015 -151.3762512,72.5061188 -150.5411987,73.4459076 
				-149.706131,74.4200592 -148.8710632,75.4277649 -148.0360107,76.4690399 -147.200943,77.5422821 -146.3658905,78.6474762 
				-145.5308228,79.7846527 -144.695755,80.9513855 -143.8607025,82.1484985 -143.0256348,83.3735657 -142.1905823,84.6274109 
				-141.3547211,85.908432 -140.5196533,87.2166138 -139.6853943,88.5495758 -138.8503265,89.9081116 -138.015274,91.2906189 
				-137.1794128,92.6954956 -136.3443451,94.1235504 -135.5100861,95.5723877 -134.6742249,97.0419922 -133.8391724,98.530777 
				-133.0041046,100.0387573 -132.1690369,101.5634995 -131.3339844,103.105835 -130.4989166,104.663353 -129.6638641,106.2352524 
				-128.8287964,107.8207397 -127.9937363,109.4198074 -127.1586761,111.0300751 -126.3236084,112.6507111 
				-125.4885483,114.2809525 -124.6534958,115.9199829 -123.818428,117.5670013 -122.9833679,119.2196121 -122.1483002,120.878624 
				-121.3132477,122.5416183 -120.4781876,124.2078247 -119.6431198,125.8764114 -118.8080597,127.546608 -117.9729919,129.2167969 
				-117.1379395,130.8854065 -116.3028793,132.5531921 -115.4678116,134.217804 -114.6327515,135.877594 -113.7976913,137.5334167 
				-112.9626312,139.1820221 -112.1275711,140.8242493 -111.2925034,142.4577026 -110.4574509,144.0823364 -109.6223831,145.696579 
				-108.787323,147.2996521 -107.9514694,148.8907318 -107.1171951,150.4682312 -106.2821426,152.0313416 -105.4470749,153.5784607 
				-104.6112137,155.1104126 -103.7761612,156.6247711 -102.9418945,158.1207581 -102.1068344,159.5975647 
				-101.2709732,161.0543823 -100.4359131,162.4904175 -99.600853,163.9040985 -98.7665863,165.2953949 -97.9307251,166.6627197 
				-97.0956726,168.0052643 -96.2606049,169.3222351 -95.4263458,170.6136475 -94.590477,171.8778839 -93.7554169,173.1141357 
				-92.9203644,174.32164 -92.0852966,175.4995728 -91.2502365,176.6479187 -90.4151688,177.7651062 -89.5801163,178.8511353 
				-88.7450562,179.9044037 -87.9099884,180.9248962 -87.0749283,181.9110413 -86.2398605,182.8636017 -85.404808,183.7817993 
				-84.5697479,184.6640625 -83.7346802,185.5103455 -82.8996277,186.3206635 -82.0645599,187.0934296 -81.2294998,187.8286285 
				-80.3944397,188.5262756 -79.5593719,189.1855621 -78.7243118,189.8056946 -77.8892517,190.386673 -77.0541916,190.9284821 
				-76.2191315,191.4295349 -75.3840714,191.891449 -74.5490036,192.3117828 -73.7139511,192.6921692 -72.8788834,193.0310059 
				-72.0438232,193.3290863 -71.2087631,193.5848083 -70.3736954,193.7997742 -69.5386429,193.9731903 -68.7035751,194.104248 
				-67.8677139,194.1929626 -67.0334549,194.240097 -66.1983948,194.245697 -65.3633347,194.2089386 -64.5274734,194.1298218 
				-63.6924095,194.0091553 -62.8581467,193.8469238 -62.0230827,193.6423492 -61.1872253,193.3962097 -60.3521652,193.1093292 
				-59.5171013,192.7808838 -58.6820412,192.41008 -57.846981,192.0001221 -57.0119209,191.5486145 -56.176857,191.0571442 
				-55.3417969,190.5249176 -54.5067329,189.9543304 -53.6716766,189.3437958 -52.8366127,188.6940918 -52.0015488,188.0060425 
				-51.1664886,187.280426 -50.3314247,186.516449 -49.4963684,185.7157135 -48.6613045,184.8782349 -47.8262444,184.004776 
				-46.9911804,183.0961609 -46.1561203,182.1515808 -45.3210602,181.1734314 -44.4860001,180.1617279 -43.6509361,179.1164551 
				-42.815876,178.0384216 -41.9808121,176.9292145 -41.1457558,175.7888489 -40.3106918,174.6181183 -39.4756279,173.4178162 
				-38.6405678,172.1887512 -37.8055077,170.9309082 -36.9704437,169.646698 -36.1353836,168.3361206 -35.3003235,166.9991608 
				-34.4652596,165.6382294 -33.6301994,164.2525177 -32.7951393,162.8444519 -31.9600773,161.4140015 -31.1242161,159.9627686 
				-30.2899532,158.4907532 -29.4548931,156.998764 -28.6198311,155.4891968 -27.7839718,153.9620514 -26.9497089,152.4181213 
				-26.1146469,150.8590088 -25.2787857,149.2846985 -24.4437275,147.6976318 -23.6086636,146.0977478 -22.7744026,144.4859009 
				-21.9385414,142.8636475 -21.1034794,141.2318115 -20.2684193,139.59198 -19.4333572,137.9449615 -18.5982952,136.2907562 
				-17.7632332,134.6317444 -16.9281731,132.9679565 -16.093111,131.3017578 -15.25805,129.6323547 -14.4229889,127.9621658 
				-13.5879269,126.2927704 -12.7528658,124.6233749 -11.9178047,122.9563751 -11.0827436,121.292572 -10.2476826,119.6327744 
				-9.4126205,117.9777527 -8.5775585,116.3299332 -7.7424173,114.6885071 -6.9072766,113.0558777 -6.0723743,111.4328308 
				-5.2373133,109.8193817 -4.402092,108.2179108 -3.5669508,106.6292267 -2.7321291,105.0533295 -1.8969878,103.4918137 
				-1.0618465,101.9462891 -0.2267212,100.416748 0.6084361,98.9047852 1.4432578,97.4111938 2.278399,95.9367981 
				3.1135404,94.4823608 3.9486818,93.0495148 4.7837429,91.6382294 5.6188049,90.2501373 6.453866,88.8860168 
				7.2889271,87.5466614 8.1236696,86.2320862 8.9587307,84.9438782 9.7937918,83.6836395 10.629653,82.4505768 
				11.4647141,81.2470703 12.2997751,80.0723419 13.1348362,78.9279785 13.9698982,77.8147888 14.8049593,76.733551 
				15.6400204,75.6842804 16.4750824,74.6677856 17.3101425,73.6856384 18.1452045,72.7370758 18.9802666,71.8236694 
				19.8153286,70.9461975 20.6503906,70.1039276 21.4854507,69.2983856 22.3205128,68.530426 23.1555729,67.8000031 
				23.9906349,67.1071625 24.8256969,66.4526672 25.6607571,65.8373413 26.4958191,65.2611542 27.3308792,64.7241364 
				28.1659412,64.2278748 29.0010033,63.7715759 29.8360634,63.3560181 30.6711273,62.9812164 31.5061855,62.6471863 
				32.3412476,62.3547058 33.1763115,62.1037598 34.0113716,61.8936005 34.8464317,61.7265778 35.6814919,61.6003265 
				36.5165558,61.5164032 37.3516197,61.4740601 38.1866798,61.4740601 39.02174,61.5164032 39.8568001,61.6003265 
				40.691864,61.7265778 41.5269241,61.8943939 42.3619843,62.1037598 43.1970482,62.3547058 44.0321083,62.6471863 
				44.8671684,62.9812164 45.7022285,63.3568268 46.5372925,63.7723694 47.3723526,64.2286682 48.2074165,64.7249298 
				49.0424728,65.2619476 49.8783379,65.8381348 50.713398,66.4534607 51.5484619,67.1079559 52.383522,67.8000031 
				53.2185822,68.5312195 54.0536423,69.2991943 54.8887062,70.1047211 55.7237663,70.9470062 56.5588303,71.8252563 
				57.3938866,72.7378693 58.2289505,73.6864471 59.0640144,74.6693878 59.8990746,75.6850891 60.7341385,76.7343445 
				61.5691948,77.816391 62.4042587,78.9295807 63.2393188,80.0739441 64.074379,81.2478638 64.9094467,82.452179 
				65.7444992,83.6852264 66.579567,84.9454651 67.4146271,86.2336731 68.2496872,87.5474701 69.0847549,88.8876038 
				69.9198074,90.2517395 70.7548752,91.6398315 71.5899353,93.0511169 72.4249954,94.483963 73.2600555,95.938385 
				74.0951157,97.412796 74.9301758,98.9063721 75.7652435,100.418335 76.6003036,101.9478912 77.4353638,103.4942169 
				78.2704239,105.0549316 79.105484,106.6308212 79.9405441,108.2195053 80.7756119,109.8217773 81.610672,111.434433 
				82.4457321,113.0574799 83.2807999,114.6901093 84.1166534,116.3315353 84.9517136,117.9793549 85.7859802,119.6343613 
				86.6210403,121.2941666 87.4568939,122.9579773 88.2919617,124.6249695 89.1270218,126.2943649 89.9612885,127.9645538 
				90.797142,129.6339417 91.6322021,131.3033447 92.4672699,132.9695435 93.3023224,134.6333466 94.1373901,136.2923584 
				94.9724503,137.9465637 95.8075104,139.5935822 96.6425781,141.2342072 97.4776306,142.8652496 98.3126984,144.4874878 
				99.1477585,146.09935 99.9828186,147.6992188 100.8178787,149.2863159 101.6529388,150.8605957 102.4880066,152.4197083 
				103.3230667,153.9636536 104.1581192,155.490799 104.993187,157.0003662 105.8282471,158.4923553 106.6633148,159.9643555 
				107.4983749,161.4155884 108.3334274,162.8460388 109.1684952,164.2541199 110.0035553,165.6398315 110.838623,167.0007629 
				111.6736755,168.3377075 112.5087357,169.6482849 113.3438034,170.9324951 114.1788635,172.1903381 115.0139313,173.4194183 
				115.8489838,174.6197205 116.6840439,175.7896576 117.5199127,176.9308167 118.3541641,178.0400238 119.1892319,179.1172485 
				120.024292,180.1625214 120.8601532,181.1742249 121.6944199,182.1531677 122.5294724,183.0969543 123.3645401,184.0055695 
				124.2004013,184.8790283 125.0354538,185.7165222 125.8697281,186.5172577 126.7047806,187.280426 127.5406494,188.0068359 
				128.3757019,188.6949005 129.2107697,189.3437958 130.0450287,189.9543304 130.8808899,190.5257263 131.7159576,191.0571442 
				132.5510101,191.5486145 133.3860779,192.0001221 134.2211456,192.4108887 135.0561981,192.7808838 135.8912659,193.1093292 
				136.7263184,193.3970032 137.5613708,193.6431427 138.3964386,193.8469238 139.2315063,194.0099487 140.0665741,194.1298218 
				140.9016266,194.2089386 141.7366791,194.245697 142.5717468,194.240097 143.4068146,194.1929626 144.2418823,194.104248 
				145.0769348,193.9731903 145.9119873,193.7997742 146.7470551,193.5848083 147.5821228,193.3282928 148.4171906,193.0310059 
				149.252243,192.6913757 150.0872955,192.3117828 150.9223633,191.8906403 151.757431,191.4287415 152.5924835,190.9276886 
				153.4275513,190.3858643 154.2626038,189.8049011 155.0976715,189.1847687 155.932724,188.5254822 156.7677917,187.8278351 
				157.603653,187.0926208 158.437912,186.3190613 159.2729797,185.5095367 160.1080322,184.6632538 160.9439087,183.7810059 
				161.7789612,182.862793 162.6132202,181.9102325 163.4490814,180.9233093 164.2841492,179.9028015 165.1192169,178.8495483 
				165.9542694,177.7643127 166.7893219,176.6471252 167.6243896,175.498764 168.4594574,174.3208466 169.2945251,173.1125488 
				170.1295776,171.8762817 170.9646301,170.612854 171.7996979,169.3214417 172.6347656,168.0036621 173.4698181,166.6611176 
				174.3048859,165.2937927 175.1399384,163.9024963 175.9749908,162.4888306 176.8100739,161.0527802 177.6451263,159.5959473 
				178.4801941,158.1191406 179.3152466,156.6231689 180.1502991,155.1088104 180.9853821,153.5768738 181.8204346,152.0297394 
				182.6555023,150.466629 183.4905548,148.8891296 184.3256073,147.2980652 185.1606903,145.6949768 185.9957428,144.0807343 
				186.8308105,142.4560852 187.665863,140.8226624 188.5009155,139.1804352 189.3359985,137.5310059 190.171051,135.8760071 
				191.0061035,134.2153931 191.8411713,132.5516052 192.6762238,130.8837891 193.5113068,129.2144012 194.3463593,127.54422 
				195.1814117,125.8748245 196.0164795,124.2062225 196.8523254,122.5392303 197.6874084,120.8762207 198.5216675,119.2180176 
				199.35672,117.5646057 200.1925812,115.9183807 201.0276337,114.2793503 201.8627167,112.6491241 202.6969757,111.0276718 
				203.5328369,109.4174118 204.3678894,107.8191376 205.2029419,106.2336578 206.0380249,104.6609497 206.8730774,103.1042404 
				207.7081451,101.5619125 208.5431976,100.0371552 209.3782501,98.5291901 210.2133331,97.04039 211.0483856,95.5707855 
				211.8834534,94.1219482 212.7185059,92.6938934 213.5535583,91.2890167 214.3886414,89.9065094 215.2236938,88.5487671 
				216.0587463,87.2150269 216.8938141,85.9068298 217.7288666,84.625824 218.5639496,83.3727722 219.3990021,82.1468964 
				220.2340546,80.9497986 221.0691223,79.7830505 221.9041748,78.6466827 222.7392578,77.5414734 223.5743103,76.4682465 
				224.4093628,75.4269714 225.2444305,74.418457 226.079483,73.4450989 226.914566,72.5053253 227.7496185,71.600708 
				228.584671,70.7320404 229.4197388,69.8985443 230.2555847,69.1026001 231.089859,68.344223 231.9249268,67.6226044 
				232.7599792,66.9393463 233.5958405,66.2952423 234.4308929,65.6894989 235.2651672,65.1228943 236.100235,64.5970764 
				236.9360809,64.1103973 237.7711487,63.663681 238.6054077,63.2585297 239.4404755,62.8941193 240.2763367,62.5704651 
				241.1113892,62.2883759 241.9464569,62.0470276 242.7807159,61.8480377 243.6165619,61.6906128 244.4516449,61.5755463 
				245.2866974,61.5020142 246.1217651,61.470047 246.9568176,61.4812317 247.7918701,61.5331879 248.6269531,61.6282806 
				249.4620056,61.7641296 250.2970734,61.9431305 251.1321259,62.1629028 251.9671783,62.4242249 252.8022614,62.7270966 
				253.6373138,63.0715332 254.4723663,63.4567108 255.3074341,63.8826447 256.1424866,64.34935 256.9775696,64.8560028 
				257.8126221,65.4026031 258.6476746,65.9883728 259.4827271,66.6132965 260.3178101,67.2773743 261.1528625,67.9798126 
				261.987915,68.7198181 262.822998,69.4973755 263.6580505,70.3125 264.493103,71.1635742 265.328186,72.0498199 
				266.1632385,72.9720154 266.998291,73.9293823 267.8333435,74.9203186 268.668396,75.944809 269.503479,77.0020599 
				270.3393555,78.0920868 271.1736145,79.2132721 272.008667,80.3648224 272.8437195,81.5467377 273.6795959,82.7582397 
				274.5146484,83.9976959 275.3489075,85.2651215 276.18396,86.5597229 277.0198364,87.8806915 277.8548889,89.2264404 
				278.6899719,90.5969543 279.5250244,91.9914551 280.3600769,93.4075317 281.1951294,94.8459625 282.0302124,96.305191 
				282.8652649,97.7851868 283.7003174,99.2835693 284.5353699,100.79953 285.3704224,102.3330688 286.2055054,103.8833923 
				287.0405579,105.4481125 287.8756409,107.0271912 288.7106934,108.619873 289.5457458,110.2237396 290.3808289,111.8395996 
				291.2158813,113.4658356 292.0509338,115.1000671 292.8859863,116.7430954 293.7210388,118.3933105 294.5561218,120.049118 
				295.3911743,121.7105255 296.2262573,123.3751221 297.0613098,125.0429153 297.8963623,126.7123108 298.7314453,128.3825073 
				299.5664978,130.0518951 300.4015503,131.7204895 301.2366028,133.3866882 302.0716553,135.0488892 302.9067383,136.7070923 
				303.7417908,138.3597107 304.5768433,140.0051422 305.4119263,141.6433716 306.2477722,143.2720032 307.0820618,144.8918457 
				307.9171143,146.5005188 308.7521667,148.0979919 309.5880127,149.6818848 310.4230652,151.2521667 311.2573547,152.8081055 
				312.0924072,154.347229 312.9282837,155.8703918 313.7633362,157.375946 314.5983887,158.8623505 315.4326477,160.3295593 
				316.2685242,161.776001 317.1035767,163.2008667 317.9386292,164.6033325 318.7736816,165.9826508 319.6087646,167.3371887 
				320.4438171,168.6677551 321.2788696,169.9719391 322.1139526,171.2497559 322.9490051,172.500412 323.7840881,173.72229 
				324.6191406,174.9154053 325.4541931,176.0781403 326.2892456,177.211319 327.1242981,178.3125305 327.9593811,179.3817749 
				328.7944336,180.4190521 329.6294861,181.42276 330.4645691,182.3921204 331.2996216,183.3278961 332.1347046,184.2277222 
				332.9697266,185.092392 333.8048096,185.9202881 334.6398926,186.711441 335.4749146,187.4658203 336.3099976,188.1826477 
				337.14505,188.8611145 337.9801025,189.5004272 338.8151855,190.1013794 339.650238,190.6623688 340.4852905,191.1842041 
				341.320343,191.6660919 342.155426,192.1072083 342.991272,192.5075684 343.825531,192.8671875 344.660614,193.1852417 
				345.495636,193.4625397 346.3315125,193.6974792 347.165802,193.8916779 348.0008545,194.0435181 348.835907,194.1537933 
				349.6717834,194.2225189 350.5068054,194.2480927 351.3411255,194.2321167 352.1761475,194.1745758 353.0119934,194.0746765 
				353.8470764,193.9332275 354.6821289,193.7494354 355.5164185,193.5248718 356.3522644,193.2579651 357.1873169,192.9494934 
				358.0223999,192.6002808 358.8574219,192.2102966 359.6925049,191.7787628 360.5275879,191.3072815 361.3626099,190.7958221 
				362.1976929,190.2444153 363.0327454,189.6538696 363.8677979,189.0233459 364.7028809,188.3544617 365.5379333,187.6472321 
				366.3730164,186.9024353 367.2080383,186.1200867 368.0431213,185.3009644 368.8782043,184.4458923 369.7140503,183.5540619 
				370.5467224,182.6278534 371.3833618,181.6665039 372.2200317,180.6707764 373.0526733,179.6422882 373.8893738,178.5810394 
				374.7228088,177.4870148 375.5586548,176.3626404 376.3953247,175.207077 377.2288208,174.0211639 378.0654602,172.8064728 
				378.8981018,171.5630188 379.7347717,170.2915955 380.5682678,168.9938049 381.4041138,167.6704254 382.2407532,166.3214874 
				383.0742188,164.9477692 383.9108582,163.5508728 384.7435608,162.1316223 385.5802002,160.6899719 386.4136963,159.228363 
				387.2495422,157.7459564 388.0861816,156.2459717 388.9196472,154.7268219 389.7555237,153.1916809 390.5889893,151.6397705 
				391.4256287,150.0726624 392.2622986,148.4919739 393.0949707,146.8984833 393.9316406,145.2922363 394.7650757,143.6755676 
				395.6009216,142.0485382 396.4344177,140.4126892 397.2710876,138.7680817 398.1077271,137.1178589 398.9403687,135.4612427 
				399.7770691,133.7990417 400.6105042,132.1344604 401.4463806,130.4666443 402.2798462,128.7964478 403.1165161,127.1262589 
				403.9523621,125.4568634 404.7857971,123.7882767 405.622467,122.1228714 406.4551392,120.4606781 407.2918091,118.8032684 
				408.1284485,117.1522522 408.9619446,115.5076218 409.7977905,113.8701935 410.6312561,112.2423553 411.4678955,110.6241074 
				412.3005676,109.016243 413.1372375,107.4211731 413.9739075,105.8388748 414.8073425,104.2701721 415.643219,102.7166595 
				416.4766846,101.1791229 417.313324,99.6575623 418.1460266,98.1551971 418.982666,96.6711884 419.8193359,95.2063751 
				420.6520081,93.7623291 421.4886475,92.340683 422.322113,90.9405975 423.158783,89.5644836 423.9946289,88.2123413 
				424.8280945,86.8849792 425.6647644,85.5839844 426.497406,84.3101654 427.3341064,83.0626984 428.1675415,81.8448181 
				429.0042114,80.6557007 429.8400574,79.49617 430.6735535,78.3669891 431.5101929,77.2697754 432.3428345,76.2045288 
				433.1795044,75.1712341 434.0129395,74.171524 434.8488464,73.2061615 435.6854858,72.2759705 436.5189514,71.3801422 
				437.3555908,70.5202637 438.1882629,69.6963654 439.0249329,68.9092102 439.8616028,68.1596222 440.6942749,67.4483948 
				441.5309143,66.7747192 442.3643799,66.140213 443.2010498,65.5440521 444.0337219,64.987854 444.8703613,64.4708099 
				445.7070313,63.9945374 446.5397034,63.5589905 447.3763733,63.1634216 448.2098083,62.808609 449.0456543,62.4953461 
				449.8823547,62.2236328 450.7157898,61.9934998 451.5524597,61.8048859 452.3851013,61.6578522 453.2218018,61.5531616 
				454.0552368,61.490036 454.8910828,61.4692535 			"/>
		</g>
		<g class="st2">
			<defs>
				<rect id="SVGID_9_" x="37.7687492" y="37.5519104" width="336.521759" height="180.6135254"/>
			</defs>
			<clipPath id="SVGID_10_">
				<use xlink:href="#SVGID_9_"  style="overflow:visible;"/>
			</clipPath>
			<polyline class="st4" points="-379.3536072,127.8590698 -378.5169373,130.0303345 -377.6842651,132.1999817 
				-376.8476257,134.3664398 -376.0109558,136.5296936 -375.1783142,138.686554 -374.3416138,140.8370361 -373.5081787,142.9795227 
				-372.6715088,145.1124268 -371.8356628,147.2341309 -371.0022278,149.3438416 -370.1655273,151.4391785 
				-369.3328857,153.5201263 -368.4962158,155.5850983 -367.6627502,157.6324768 -366.8260803,159.6606903 
				-365.9902344,161.6689148 -365.1567688,163.6555786 -364.3201294,165.6198425 -363.4874573,167.5601501 
				-362.6507874,169.4756775 -361.8172913,171.3648376 -360.9814453,173.2260284 -360.1448059,175.0584412 
				-359.3113403,176.8604889 -358.4747009,178.6329803 -357.6419983,180.3718872 -356.8053589,182.0780487 -355.968689,183.7506409 
				-355.1360168,185.3872681 -354.2993774,186.9871521 -353.4659119,188.5502625 -352.6300659,190.0750122 
				-351.7965698,191.5597992 -350.9599304,193.0038452 -350.1232605,194.4079285 -349.2905884,195.7688446 
				-348.4539185,197.0874176 -347.6204834,198.3620453 -346.7846375,199.5919189 -345.9511414,200.7762299 
				-345.1144714,201.9150085 -344.277832,203.0066223 -343.4451904,204.050293 -342.60849,205.0460205 -341.7750549,205.9929962 
				-340.9391785,206.8904266 -340.1025391,207.7383118 -339.269043,208.5350494 -338.4324036,209.2806396 -337.599762,209.9750824 
				-336.763092,210.6175842 -335.9295959,211.2073517 -335.09375,211.7443695 -334.2571106,212.228653 -333.423645,212.6593781 
				-332.5877686,213.0365753 -331.754303,213.3594208 -330.9176636,213.6287384 -330.0849915,213.8429108 -329.2483215,214.0035248 
				-328.4116516,214.1090088 -327.5782166,214.1601563 -326.7423401,214.1569672 -325.9088745,214.0986328 
				-325.0722046,213.9867554 -324.2355652,213.818924 -323.4028931,213.5975647 -322.5662537,213.3218689 -321.7327576,212.9918213 
				-320.8969116,212.6082458 -320.063446,212.1711121 -319.2268066,211.6796417 -318.3909302,211.1362305 -317.5574646,210.5400696 
				-316.7207947,209.8911743 -315.8881531,209.1903381 -315.0514832,208.4375458 -314.2180176,207.6352234 
				-313.3813477,206.7809448 -312.5455017,205.8779144 -311.7120361,204.9245453 -310.8753967,203.9224243 
				-310.0426941,202.8723602 -309.2060547,201.7751465 -308.3693848,200.6307983 -307.5359192,199.4408722 
				-306.7000732,198.2054138 -305.8666077,196.9252014 -305.0299377,195.6010284 -304.1972961,194.2345123 
				-303.3606262,192.8256226 -302.5239563,191.3760071 -301.6912842,189.8856201 -300.8546448,188.3568726 
				-300.0211792,186.7889557 -299.1845093,185.1842957 -298.3518677,183.5436707 -297.5151978,181.8670807 
				-296.6785278,180.1561279 -295.8458557,178.4124146 -295.0092163,176.6375427 -294.1757507,174.8306885 -293.3391113,172.994278 
				-292.5048218,171.1290894 -291.6697693,169.2375336 -290.8347168,167.3188171 -289.9988403,165.3761139 
				-289.1637878,163.4086304 -288.3294983,161.4187927 -287.4944458,159.4081573 -286.6585999,157.3775635 -285.8235474,155.327774 
				-284.9892883,153.2612 -284.1534119,151.1778564 -283.3183594,149.0801239 -282.4832764,146.968811 -281.6482239,144.8462982 
				-280.8131714,142.7118225 -279.9780884,140.5685425 -279.1430359,138.4172668 -278.3079834,136.2587891 
				-277.4729309,134.0955353 -276.6378784,131.9282837 -275.8027954,129.7586212 -274.9677429,127.5873642 
				-274.1326904,125.4161148 -273.2976074,123.24646 -272.4625549,121.0800095 -271.6274719,118.9183426 -270.7924194,116.7614746 
				-269.9573669,114.6117935 -269.1223145,112.4709091 -268.287262,110.3396149 -267.452179,108.2187042 -266.6171265,106.1113892 
				-265.782074,104.0168533 -264.946991,101.9383011 -264.1119385,99.8757324 -263.276886,97.8307343 -262.441803,95.8049316 
				-261.6067505,93.7991028 -260.771698,91.8148346 -259.9366455,89.853775 -259.1015625,87.9166718 -258.26651,86.0043335 
				-257.4314575,84.1191711 -256.596405,82.2611847 -255.7613373,80.4319611 -254.9262543,78.6338959 -254.0903931,76.8654175 
				-253.2553406,75.1304932 -252.4210815,73.4283295 -251.5860291,71.7605286 -250.7501526,70.1286926 -249.9151001,68.5328217 
				-249.0800323,66.9745026 -248.2457733,65.4553375 -247.4099274,63.9753571 -246.5748444,62.5353088 -245.7397919,61.1368256 
				-244.9047241,59.7814941 -244.0696716,58.4684906 -243.2346191,57.1994781 -242.3995361,55.9751892 -241.5644836,54.796463 
				-240.7294159,53.6632996 -239.8943634,52.578064 -239.0593109,51.5399933 -238.2242279,50.5506744 -237.3891754,49.6092834 
				-236.5541077,48.7182312 -235.7190552,47.8767395 -234.8840027,47.0864105 -234.0489197,46.3472137 -233.2138672,45.6599426 
				-232.3788147,45.0238342 -231.5437469,44.4404602 -230.7086945,43.9098358 -229.8736115,43.4319611 -229.038559,43.0084076 
				-228.2035065,42.6384277 -227.3684387,42.3219452 -226.5333862,42.059845 -225.6983032,41.8512726 -224.8632507,41.6978455 
				-224.0281982,41.5995483 -223.1931305,41.5547943 -222.358078,41.5651703 -221.522995,41.6298981 -220.687149,41.7489777 
				-219.85289,41.9231873 -219.0178223,42.1517487 -218.1827698,42.4338379 -217.3468933,42.7710724 -216.5118408,43.1610413 
				-215.6775818,43.6053619 -214.8425293,44.1032257 -214.0066681,44.6530457 -213.1715851,45.2563934 -212.337326,45.9116821 
				-211.5022736,46.6189117 -210.6664124,47.3772888 -209.8313599,48.1868134 -208.9962769,49.0474854 -208.1620178,49.9568939 
				-207.3261719,50.915863 -206.4911041,51.923584 -205.6560516,52.9800415 -204.8209686,54.08284 -203.9859161,55.2335968 
				-203.1508636,56.4290924 -202.3157959,57.6709595 -201.4807434,58.9559784 -200.6456604,60.2857361 -199.8106079,61.6570587 
				-198.9755554,63.0707245 -198.1404877,64.5259552 -197.3054352,66.0211334 -196.4703674,67.5546722 -195.6352997,69.1273804 
				-194.8002472,70.7368317 -193.9651947,72.3822632 -193.130127,74.0628357 -192.2950592,75.7777863 -191.4599915,77.5254974 
				-190.624939,79.3051758 -189.7898865,81.1152039 -188.9548187,82.9548187 -188.119751,84.8240051 -187.2846832,86.71875 
				-186.4496307,88.6406708 -185.6145782,90.5873718 -184.7795105,92.5572357 -183.9444427,94.5494995 -183.109375,96.5625153 
				-182.2743225,98.5963135 -181.43927,100.6476898 -180.6034088,102.7166595 -179.7691345,104.8015976 -178.934082,106.9009323 
				-178.0990143,109.013855 -177.2631531,111.1379547 -176.4281006,113.2732391 -175.5938263,115.4181213 -174.7587738,117.5701981 
				-173.9229126,119.7294617 -173.0878601,121.8935242 -172.2527924,124.0607758 -171.4177246,126.2312317 
				-170.5826569,128.4024963 -169.7476044,130.572937 -168.9125519,132.7425842 -168.0774841,134.9082489 -167.2424164,137.0699158 
				-166.4073486,139.2259827 -165.5722961,141.374054 -164.7372437,143.5141449 -163.9021759,145.6446533 -163.0671082,147.7631531 
				-162.2320557,149.8696747 -161.3969879,151.9618073 -160.5619354,154.0387573 -159.7268677,156.098938 -158.8917999,158.142334 
				-158.0567474,160.165741 -157.2216797,162.1683807 -156.3866272,164.1494446 -155.5515594,166.1081238 -154.716507,168.0420227 
				-153.8814392,169.9503632 -153.0463715,171.8331299 -152.211319,173.6871185 -151.3762512,175.5123596 -150.5411987,177.3072205 
				-149.706131,179.0709076 -148.8710632,180.8026276 -148.0360107,182.5 -147.200943,184.1638031 -146.3658905,185.7916412 
				-145.5308228,187.3819275 -144.695755,188.9354401 -143.8607025,190.450592 -143.0256348,191.9250031 -142.1905823,193.3594513 
				-141.3547211,194.7523499 -140.5196533,196.1036835 -139.6853943,197.4110718 -138.8503265,198.6744995 -138.015274,199.8931885 
				-137.1794128,201.0663147 -136.3443451,202.1923065 -135.5100861,203.2727356 -134.6742249,204.3044128 -133.8391724,205.288147 
				-133.0041046,206.2223511 -132.1690369,207.1077881 -131.3339844,207.9420776 -130.4989166,208.7260437 
				-129.6638641,209.4596405 -128.8287964,210.1405029 -127.9937363,210.7694244 -127.1586761,211.346405 -126.3236084,211.870636 
				-125.4885483,212.3413239 -124.6534958,212.7584839 -123.818428,213.1220856 -122.9833679,213.4313507 -122.1483002,213.6870728 
				-121.3132477,213.8884583 -120.4781876,214.0354919 -119.6431198,214.1273956 -118.8080597,214.1649628 
				-117.9729919,214.1473694 -117.1379395,214.0762482 -116.3028793,213.9491882 -115.4678116,213.7685852 
				-114.6327515,213.5336456 -113.7976913,213.2443542 -112.9626312,212.9007263 -112.1275711,212.5035553 
				-111.2925034,212.0528412 -110.4574509,211.548584 -109.6223831,210.9915924 -108.787323,210.3826447 -107.9514694,209.7201538 
				-107.1171951,209.0065308 -106.2821426,208.2417603 -105.4470749,207.4258423 -104.6112137,206.5595856 
				-103.7761612,205.6437683 -102.9418945,204.6784058 -102.1068344,203.6643066 -101.2709732,202.6022644 
				-100.4359131,201.4930573 -99.600853,200.3375092 -98.7665863,199.1356049 -97.9307251,197.8889618 -97.0956726,196.5975494 
				-96.2606049,195.2630005 -95.4263458,193.8860779 -94.590477,192.4668274 -93.7554169,191.0068054 -92.9203644,189.5068207 
				-92.0852966,187.9676819 -91.2502365,186.3909912 -90.4151688,184.7767334 -89.5801163,183.1273193 -88.7450562,181.4419403 
				-87.9099884,179.7229919 -87.0749283,177.9712982 -86.2398605,176.1876221 -85.404808,174.3735809 -84.5697479,172.5299683 
				-83.7346802,170.6584015 -82.8996277,168.7596436 -82.0645599,166.8353271 -81.2294998,164.885437 -80.3944397,162.9123688 
				-79.5593719,160.9177246 -78.7243118,158.9015198 -77.8892517,156.8661041 -77.0541916,154.8123322 -76.2191315,152.7409668 
				-75.3840714,150.6544189 -74.5490036,148.5534973 -73.7139511,146.4389801 -72.8788834,144.3124847 -72.0438232,142.1763916 
				-71.2087631,140.0307159 -70.3736954,137.8778381 -69.5386429,135.7177734 -68.7035751,133.5537109 -67.8677139,131.3856506 
				-67.0334549,129.21521 -66.1983948,127.0439606 -65.3633347,124.8727036 -64.5274734,122.7038422 -63.6924095,120.5389862 
				-62.8581467,118.3773193 -62.0230827,116.2228546 -61.1872253,114.0755768 -60.3521652,111.9362869 -59.5171013,109.8073883 
				-58.6820412,107.6904831 -57.846981,105.585556 -57.0119209,103.495018 -56.176857,101.4204636 -55.3417969,99.3618927 
				-54.5067329,97.3216858 -53.6716766,95.3006744 -52.8366127,93.3004456 -52.0015488,91.3217773 -51.1664886,89.3662872 
				-50.3314247,87.4355774 -49.4963684,85.5304413 -48.6613045,83.6508789 -47.8262444,81.8008728 -46.9911804,79.9788361 
				-46.1561203,78.187973 -45.3210602,76.4282837 -44.4860001,74.7005463 -43.6509361,73.0071869 -42.815876,71.348175 
				-41.9808121,69.7251282 -41.1457558,68.1396332 -40.3106918,66.5909119 -39.4756279,65.0813446 -38.6405678,63.6109467 
				-37.8055077,62.1820831 -36.9704437,60.7939911 -36.1353836,59.4482422 -35.3003235,58.1464386 -34.4652596,56.8885956 
				-33.6301994,55.6755219 -32.7951393,54.5087738 -31.9600773,53.3876038 -31.1242161,52.3135529 -30.2899532,51.288269 
				-29.4548931,50.3101349 -28.6198311,49.3815308 -27.7839718,48.5032806 -26.9497089,47.6745758 -26.1146469,46.8970032 
				-25.2787857,46.1706085 -24.4437275,45.4953308 -23.6086636,44.8728027 -22.7744026,44.303009 -21.9385414,43.7851715 
				-21.1034794,43.3216705 -20.2684193,42.9109192 -19.4333572,42.5537109 -18.5982952,42.2508392 -17.7632332,42.0022888 
				-16.9281731,41.8081055 -16.093111,41.6682587 -15.25805,41.5827484 -14.4229889,41.5523987 -13.5879269,41.5763702 
				-12.7528658,41.6546783 -11.9178047,41.7881317 -11.0827436,41.9751434 -10.2476826,42.2172852 -9.4126205,42.5137482 
				-8.5775585,42.8637695 -7.7424173,43.267334 -6.9072766,43.725235 -6.0723743,44.2359009 -5.2373133,44.7992706 
				-4.402092,45.4154205 -3.5669508,46.0842896 -2.7321291,46.8035126 -1.8969878,47.5754852 -1.0618465,48.3977814 
				-0.2267212,49.2704468 0.6084361,50.1926575 1.4432578,51.1636047 2.278399,52.1840973 3.1135404,53.2517395 
				3.9486818,54.3665466 4.7837429,55.5284729 5.6188049,56.7359772 6.453866,57.9882202 7.2889271,59.2852173 
				8.1236696,60.6245575 8.9587307,62.0070648 9.7937918,63.4319305 10.629653,64.896759 11.4647141,66.4015198 
				12.2997751,67.9454498 13.1348362,69.526947 13.9698982,71.1452026 14.8049593,72.8002014 15.6400204,74.4887848 
				16.4750824,76.2125092 17.3101425,77.9682159 18.1452045,79.7558899 18.9802666,81.5731201 19.8153286,83.4199219 
				20.6503906,85.2955017 21.4854507,87.1974487 22.3205128,89.1257629 23.1555729,91.0780334 23.9906349,93.0534973 
				24.8256969,95.0513458 25.6607571,97.0699615 26.4958191,99.1077576 27.3308792,101.1639328 28.1659412,103.2368927 
				29.0010033,105.3258362 29.8360634,107.42836 30.6711273,109.5444717 31.5061855,111.6717682 32.3412476,113.8094559 
				33.1763115,115.9559479 34.0113716,118.1104126 34.8464317,120.2704773 35.6814919,122.4353409 36.5165558,124.6041946 
				37.3516197,126.7746506 38.1866798,128.9458923 39.02174,131.1163483 39.8568001,133.2844086 40.691864,135.4500732 
				41.5269241,137.6101379 42.3619843,139.7637939 43.1970482,141.9102783 44.0321083,144.0479736 44.8671684,146.1760559 
				45.7022285,148.2913818 46.5372925,150.3947144 47.3723526,152.4828491 48.2074165,154.5558167 49.0424728,156.6119843 
				49.8783379,158.6497803 50.713398,160.668396 51.5484619,162.6662292 52.383522,164.6416931 53.2185822,166.5939941 
				54.0536423,168.5223083 54.8887062,170.4242554 55.7237663,172.2998199 56.5588303,174.1466217 57.3938866,175.9646606 
				58.2289505,177.7515259 59.0640144,179.5072327 59.8990746,181.2309723 60.7341385,182.9195404 61.5691948,184.5745544 
				62.4042587,186.1928101 63.2393188,187.774292 64.074379,189.318222 64.9094467,190.822998 65.7444992,192.2878113 
				66.579567,193.7118683 67.4146271,195.0943756 68.2496872,196.4345245 69.0847549,197.7315216 69.9198074,198.9829712 
				70.7548752,200.1904602 71.5899353,201.352417 72.4249954,202.4672089 73.2600555,203.5348511 74.0951157,204.5553436 
				74.9301758,205.5263062 75.7652435,206.4485016 76.6003036,207.3211517 77.4353638,208.1434631 78.2704239,208.9146271 
				79.105484,209.6346588 79.9405441,210.3027344 80.7756119,210.918869 81.610672,211.4830627 82.4457321,211.9937134 
				83.2807999,212.4508057 84.1166534,212.8543701 84.9517136,213.2043915 85.7859802,213.5008698 86.6210403,213.7430115 
				87.4568939,213.9300079 88.2919617,214.0634613 89.1270218,214.1417847 89.9612885,214.1657562 90.797142,214.1345825 
				91.6322021,214.0490875 92.4672699,213.9092255 93.3023224,213.7150421 94.1373901,213.466507 94.9724503,213.1636353 
				95.8075104,212.806427 96.6425781,212.3956757 97.4776306,211.9321747 98.3126984,211.4143372 99.1477585,210.8445435 
				99.9828186,210.2212219 100.8178787,209.5467529 101.6529388,208.820343 102.4880066,208.0419769 103.3230667,207.2132721 
				104.1581192,206.335022 104.993187,205.4064331 105.8282471,204.4290771 106.6633148,203.4029999 107.4983749,202.328949 
				108.3334274,201.2085571 109.1684952,200.0410309 110.0035553,198.8279419 110.838623,197.5700989 111.6736755,196.2683105 
				112.5087357,194.9225616 113.3438034,193.5344696 114.1788635,192.1056061 115.0139313,190.6351929 115.8489838,189.1256409 
				116.6840439,187.5769043 117.5199127,185.9906158 118.3541641,184.3675842 119.1892319,182.7085724 120.024292,181.0151978 
				120.8601532,179.2874756 121.6944199,177.527771 122.5294724,175.736908 123.3645401,173.9148865 124.2004013,172.0648804 
				125.0354538,170.1861115 125.8697281,168.2801666 126.7047806,166.3494568 127.5406494,164.3939667 128.3757019,162.4153137 
				129.2107697,160.4150696 130.0450287,158.3940582 130.8808899,156.3538666 131.7159576,154.2952881 132.5510101,152.2199402 
				133.3860779,150.1293945 134.2211456,148.0252686 135.0561981,145.9075623 135.8912659,143.7794495 136.7263184,141.6401672 
				137.5613708,139.4928894 138.3964386,137.337616 139.2315063,135.1767578 140.0665741,133.0111084 140.9016266,130.8422546 
				141.7366791,128.6717987 142.5717468,126.5005417 143.4068146,124.3300858 144.2418823,122.1620331 145.0769348,119.9971695 
				145.9119873,117.8379059 146.7470551,115.6842422 147.5821228,113.53936 148.4171906,111.4024582 149.252243,109.2767639 
				150.0872955,107.1622543 150.9223633,105.0613174 151.757431,102.9747772 152.5924835,100.9034119 153.4275513,98.8496399 
				154.2626038,96.8142395 155.0976715,94.7980194 155.932724,92.8033752 156.7677917,90.830307 157.603653,88.8804169 
				158.437912,86.9561005 159.2729797,85.0573578 160.1080322,83.1857758 160.9439087,81.3421783 161.7789612,79.5281219 
				162.6132202,77.7444611 163.4490814,75.9927521 164.2841492,74.2738037 165.1192169,72.5892334 165.9542694,70.9390106 
				166.7893219,69.3247681 167.6243896,67.7480774 168.4594574,66.2089386 169.2945251,64.7089539 170.1295776,63.2489319 
				170.9646301,61.8304596 171.7996979,60.4535522 172.6347656,59.1182098 173.4698181,57.8275909 174.3048859,56.5809479 
				175.1399384,55.3790436 175.9749908,54.2234955 176.8100739,53.1142883 177.6451263,52.0522308 178.4801941,51.0389252 
				179.3152466,50.0735626 180.1502991,49.1577606 180.9853821,48.2907104 181.8204346,47.4747925 182.6555023,46.710022 
				183.4905548,45.9963989 184.3256073,45.3347015 185.1606903,44.7249603 185.9957428,44.1679688 186.8308105,43.664505 
				187.665863,43.2137909 188.5009155,42.8158264 189.3359985,42.4729919 190.171051,42.1837006 191.0061035,41.948761 
				191.8411713,41.768158 192.6762238,41.6419067 193.5113068,41.5699768 194.3463593,41.5531921 195.1814117,41.590744 
				196.0164795,41.6826477 196.8523254,41.8296967 197.6874084,42.0310669 198.5216675,42.2867889 199.35672,42.5960693 
				200.1925812,42.959671 201.0276337,43.3768311 201.8627167,43.8475037 202.6969757,44.3717499 203.5328369,44.9487152 
				204.3678894,45.577652 205.2029419,46.2592926 206.0380249,46.9921112 206.8730774,47.7768555 207.7081451,48.6111603 
				208.5431976,49.4965973 209.3782501,50.4308014 210.2133331,51.4145203 211.0483856,52.4470215 211.8834534,53.5258484 
				212.7185059,54.6534271 213.5535583,55.8265686 214.3886414,57.0452423 215.2236938,58.30867 216.0587463,59.6160583 
				216.8938141,60.9665985 217.7288666,62.3594971 218.5639496,63.794754 219.3990021,65.2691498 220.2340546,66.7843018 
				221.0691223,68.3378296 221.9041748,69.9281006 222.7392578,71.5559387 223.5743103,73.2197571 224.4093628,74.9171143 
				225.2444305,76.6488495 226.079483,78.4125366 226.914566,80.2073975 227.7496185,82.0326233 228.584671,83.8866119 
				229.4197388,85.7693939 230.2555847,87.6777191 231.089859,89.6116333 231.9249268,91.5703125 232.7599792,93.5513611 
				233.5958405,95.5548096 234.4308929,97.5782166 235.2651672,99.6208038 236.100235,101.6809845 236.9360809,103.7579346 
				237.7711487,105.8508682 238.6054077,107.9565887 239.4404755,110.0758972 240.2763367,112.2055969 241.1113892,114.3456879 
				241.9464569,116.4945602 242.7807159,118.6498337 243.6165619,120.8115005 244.4516449,122.977951 245.2866974,125.1468124 
				246.1217651,127.3180542 246.9568176,129.4893188 247.7918701,131.6589661 248.6269531,133.8270264 249.4620056,135.9910889 
				250.2970734,138.1495361 251.1321259,140.3024139 251.9671783,142.4465027 252.8022614,144.5817871 253.6373138,146.7066956 
				254.4723663,148.8188171 255.3074341,150.9181366 256.1424866,153.0030823 256.9775696,155.072052 257.8126221,157.1242371 
				258.6476746,159.1572266 259.4827271,161.1702576 260.3178101,163.1632996 261.1528625,165.1331787 261.987915,167.079071 
				262.822998,169.0009918 263.6580505,170.8957367 264.493103,172.7649231 265.328186,174.604538 266.1632385,176.4145813 
				266.998291,178.1942444 267.8333435,179.9419556 268.668396,181.6569061 269.503479,183.3374939 270.3393555,184.9829102 
				271.1736145,186.5923767 272.008667,188.1642761 272.8437195,189.6986084 273.6795959,191.1938019 274.5146484,192.6482239 
				275.3489075,194.0618896 276.18396,195.434021 277.0198364,196.76297 277.8548889,198.0487823 278.6899719,199.2898407 
				279.5250244,200.4853516 280.3600769,201.6352997 281.1951294,202.7389069 282.0302124,203.7945709 282.8652649,204.8022766 
				283.7003174,205.7620392 284.5353699,206.671463 285.3704224,207.5313263 286.2055054,208.3408508 287.0405579,209.1000366 
				287.8756409,209.8064728 288.7106934,210.4617615 289.5457458,211.0651093 290.3808289,211.6157074 291.2158813,212.1127777 
				292.0509338,212.5570984 292.8859863,212.9470825 293.7210388,213.2843018 294.5561218,213.5664063 295.3911743,213.7949524 
				296.2262573,213.9683685 297.0613098,214.0882416 297.8963623,214.1529694 298.7314453,214.1633606 299.5664978,214.1186066 
				300.4015503,214.019516 301.2366028,213.8660736 302.0716553,213.6583099 302.9067383,213.3961945 303.7417908,213.0789337 
				304.5768433,212.7089233 305.4119263,212.2845917 306.2477722,211.8075104 307.0820618,211.276886 307.9171143,210.693512 
				308.7521667,210.0574036 309.5880127,209.369339 310.4230652,208.6301422 311.2573547,207.839798 312.0924072,206.9983063 
				312.9282837,206.1072693 313.7633362,205.166687 314.5983887,204.1765594 315.4326477,203.1384735 316.2685242,202.0532532 
				317.1035767,200.9208832 317.9386292,199.7413483 318.7736816,198.5170746 319.6087646,197.2480469 320.4438171,195.9350739 
				321.2788696,194.5789337 322.1139526,193.1804504 322.9490051,191.7412109 323.7840881,190.2612 324.6191406,188.7412415 
				325.4541931,187.1837311 326.2892456,185.5878601 327.1242981,183.9560242 327.9593811,182.2882233 328.7944336,180.5860596 
				329.6294861,178.8503418 330.4645691,177.0826569 331.2996216,175.2837982 332.1347046,173.4545746 332.9697266,171.5965881 
				333.8048096,169.7114258 334.6398926,167.7990875 335.4749146,165.8619843 336.3099976,163.9009094 337.14505,161.9166565 
				337.9801025,159.9108276 338.8151855,157.8850098 339.650238,155.8400269 340.4852905,153.7774506 341.320343,151.6988983 
				342.155426,149.6043701 342.991272,147.4962463 343.825531,145.3761292 344.660614,143.2448425 345.495636,141.1031494 
				346.3315125,138.9542694 347.165802,136.7974091 348.0008545,134.6349487 348.835907,132.4684906 349.6717834,130.2996368 
				350.5068054,128.1283875 351.3411255,125.9571228 352.1761475,123.7874756 353.0119934,121.620224 353.8470764,119.4561539 
				354.6821289,117.2984924 355.5164185,115.1472244 356.3522644,113.0031357 357.1873169,110.8694458 358.0223999,108.7461319 
				358.8574219,106.6356201 359.6925049,104.5378952 360.5275879,102.4545364 361.3626099,100.38797 362.1976929,98.3381958 
				363.0327454,96.3075867 363.8677979,94.2969666 364.7028809,92.3071136 365.5379333,90.3396454 366.3730164,88.3969421 
				367.2080383,86.4782257 368.0431213,84.5866547 368.8782043,82.7214813 369.7140503,80.8850555 370.5467224,79.07901 
				371.3833618,77.3033295 372.2200317,75.5596313 373.0526733,73.849472 373.8893738,72.1728821 374.7228088,70.5314636 
				375.5586548,68.9268036 376.3953247,67.3596802 377.2288208,65.8301392 378.0654602,64.3397522 378.8981018,62.8901215 
				379.7347717,61.4820404 380.5682678,60.1147156 381.4041138,58.7913513 382.2407532,57.5111389 383.0742188,56.2756653 
				383.9108582,55.0857697 384.7435608,53.941391 385.5802002,52.8441925 386.4136963,51.7941132 387.2495422,50.7920074 
				388.0861816,49.8394318 388.9196472,48.9355927 389.7555237,48.0821228 390.5889893,47.2789917 391.4256287,46.5270081 
				392.2622986,45.8261719 393.0949707,45.1772766 393.9316406,44.5811157 394.7650757,44.036911 395.6009216,43.5462341 
				396.4344177,43.1091003 397.2710876,42.7255249 398.1077271,42.3954773 398.9403687,42.1197815 399.7770691,41.8984222 
				400.6105042,41.7313995 401.4463806,41.6187286 402.2798462,41.5611877 403.1165161,41.5571899 403.9523621,41.6083221 
				404.7857971,41.7146149 405.622467,41.8744507 406.4551392,42.0894012 407.2918091,42.3587189 408.1284485,42.6815643 
				408.9619446,43.0587769 409.7977905,43.489502 410.6312561,43.9737701 411.4678955,44.510788 412.3005676,45.1013489 
				413.1372375,45.7430573 413.9739075,46.4375 414.8073425,47.1838989 415.643219,47.9806366 416.4766846,48.8285217 
				417.313324,49.7259521 418.1460266,50.6721344 418.982666,51.6686554 419.8193359,52.7123108 420.6520081,53.8039551 
				421.4886475,54.9427185 422.322113,56.1270294 423.158783,57.3569031 423.9946289,58.6315155 424.8280945,59.9501038 
				425.6647644,61.3110199 426.497406,62.7151184 427.3341064,64.1591339 428.1675415,65.6447449 429.0042114,67.1694946 
				429.8400574,68.7317963 430.6735535,70.3324738 431.5101929,71.969101 432.3428345,73.6408997 433.1795044,75.3478546 
				434.0129395,77.0867767 434.8488464,78.8584442 435.6854858,80.6613007 436.5189514,82.4937134 437.3555908,84.3549042 
				438.1882629,86.2440643 439.0249329,88.1595917 439.8616028,90.0998993 440.6942749,92.0641785 441.5309143,94.050827 
				442.3643799,96.0590515 443.2010498,98.087265 444.0337219,100.1346436 444.8703613,102.1996231 445.7070313,104.2805634 
				446.5397034,106.3767014 447.3763733,108.4856186 448.2098083,110.6081238 449.0456543,112.7402267 449.8823547,114.8827057 
				450.7157898,117.0331802 451.5524597,119.1908493 452.3851013,121.353302 453.2218018,123.5205612 454.0552368,125.6902161 
				454.8910828,127.8614731 			"/>
		</g>
		<path class="st2" d="M404.2568359,127.8590698l-12.5858459-3.5961075l2.5171509,3.1461945v0.8990402l-2.5171509,3.1469879
			L404.2568359,127.8590698z M7.8025098,127.4091568h386.3959961v0.8990402H7.8025098
			c-0.248281,0-0.4494948-0.2013855-0.4494948-0.4491272C7.3530149,127.6105423,7.5542288,127.4091568,7.8025098,127.4091568z"/>
		<path class="st2" d="M37.7687492,7.5843201l-3.5959587,12.58638l3.146862-2.5172729h0.8989906l3.1460648,2.5172729
			L37.7687492,7.5843201z M37.3196526,248.1330261V17.6430511h0.8989906v230.489975
			c0,0.2485352-0.2013741,0.4499207-0.449894,0.4499207C37.5202255,248.5829468,37.3196526,248.3815613,37.3196526,248.1330261z"/>
		<g class="st2">
			<defs>
				<rect id="SVGID_11_" x="9.8768969" y="129.8044739" width="23.408905" height="35.2599678"/>
			</defs>
			<clipPath id="SVGID_12_">
				<use xlink:href="#SVGID_11_"  style="overflow:visible;"/>
			</clipPath>
			<path class="st5" d="M26.4870415,140.9461975c-0.2477188-0.6137543-0.6217003-1.1124268-1.1197014-1.4976196
				c-0.4975224-0.3835754-1.1081963-0.5769653-1.8321838-0.5769653c-0.7158356,0-1.428154,0.196579-2.1369591,0.5881653
				c-0.7083244,0.391571-1.3416939,0.8982391-1.9002647,1.5199738c-0.7012939,0.7543945-1.2550697,1.5727234-1.6621323,2.4549713
				c-0.4069042,0.8822632-0.7239876,1.7773132-0.9502945,2.683548c-0.2635422,0.9893341-0.425602,1.9515228-0.4858532,2.8881073
				c-0.0151825,0.1764526-0.0226955,0.3521118-0.0226955,0.5271301c0,0.7329712,0.1208248,1.4501343,0.3616753,2.1522522
				c0.2339764,0.6231842,0.5921345,1.1447144,1.0746326,1.5653687c0.4823399,0.4213257,1.0856609,0.6313324,1.8088474,0.6306915
				c0.7466812,0.0006409,1.476902-0.2133636,2.1892223-0.6417084c0.7123203-0.4281921,1.3511219-0.9573822,1.9165668-1.5872803
				c0.7314987-0.8482056,1.3004608-1.745163,1.7073631-2.6896057c0.4076996-0.9445801,0.7385292-1.9067688,0.995842-2.8881073
				c0.2333374-0.9142303,0.3803711-1.8156586,0.4411049-2.7011261V142.9888
				C26.8722115,142.2583923,26.7443542,141.5775146,26.4870415,140.9461975z M28.7724762,146.4810791
				c-0.2716942,1.0628662-0.7112007,2.0873718-1.3185196,3.075119c-0.6057167,0.9882355-1.3696632,1.8920593-2.2897491,2.7115021
				c-0.8289871,0.7398529-1.7361298,1.3280334-2.7201424,1.763092c-0.9841766,0.4350586-1.9696293,0.6525726-2.9571609,0.6525726
				c-0.9950409,0-1.879488-0.2187958-2.6522217-0.6581726c-0.7727318-0.439209-1.388998-1.0320282-1.8488026-1.7793732
				c-0.5050325-0.8263245-0.7952671-1.7418213-0.870862-2.7452393c-0.0302057-0.24086-0.045228-0.4830017-0.045228-0.72435
				c0-0.7543945,0.0981293-1.5327606,0.2937489-2.3398895c0.2868786-1.0740662,0.7294216-2.1193542,1.3292274-3.1342621
				c0.5998058-1.0133209,1.3663044-1.9291534,2.3009357-2.7506714c0.829628-0.7384186,1.7361298-1.3329773,2.7203026-1.7836914
				c0.9840164-0.4507294,1.9769821-0.6744843,2.9796944-0.6760712c0.9950447,0.0015869,1.875494,0.2285461,2.6399155,0.6824646
				c0.7671394,0.4539185,1.3792534,1.0532837,1.8379364,1.7996826c0.5050316,0.8279114,0.8038979,1.7501221,0.8933945,2.7666321
				c0.0159836,0.2493439,0.0239754,0.4954834,0.0239754,0.7352295
				C29.0889206,144.8604126,28.9834404,145.6611633,28.7724762,146.4810791z"/>
		</g>
		<g class="st2">
			<defs>
				<rect id="SVGID_13_" x="6.2663965" y="44.962265" width="30.6310463" height="35.5232239"/>
			</defs>
			<clipPath id="SVGID_14_">
				<use xlink:href="#SVGID_13_"  style="overflow:visible;"/>
			</clipPath>
			<path class="st6" d="M17.9289207,68.5900116c0.0151825-0.1674957,0.0226936-0.3508148,0.0226936-0.548996v-0.2635651
				c-0.0151825-0.2554016-0.0637665-0.4750061-0.1468735-0.6581726c-0.0829468-0.1825104-0.209362-0.3293915-0.3787727-0.4391937
				c-0.1695671-0.1098022-0.4048233-0.1647797-0.7068825-0.1654205c-0.3237953,0.0006409-0.6279316,0.1310577-0.9106531,0.3904572
				c-0.2827206,0.2601929-0.4727468,0.5731354-0.5708761,0.9381866c-0.0302057,0.1248169-0.0453882,0.2456512-0.0453882,0.3623199
				c0,0.1544037,0.0268497,0.2971191,0.0789509,0.4281769c0.0906181,0.2279205,0.2381315,0.370636,0.4412622,0.4283447h0.2937489
				C16.6772118,69.0627899,17.3182507,68.9056702,17.9289207,68.5900116z M22.8940392,56.1933289
				c-0.2493172-0.613739-0.6216965-1.1283875-1.1200142-1.5423431c-0.4975204-0.4123535-1.1158619-0.6201324-1.8550301-0.6217194
				c-0.730854,0.0015869-1.4581947,0.2125702-2.1821766,0.6329193c-0.7233448,0.421936-1.3683758,0.9413757-1.9338188,1.5646973
				c-0.7233438,0.7975464-1.290864,1.6622162-1.7019205,2.5908051c-0.4110575,0.930191-0.7410841,1.8699799-0.990243,2.8209534
				c-0.2483597,0.9381866-0.3952351,1.8651886-0.440464,2.7794037c-0.0151825,0.1318512-0.0226936,0.2635498-0.0226936,0.3946075
				c0,0.7619019,0.1358471,1.472168,0.4069004,2.130188c0.1737251,0.4104309,0.392518,0.7769165,0.6560602,1.0988007
				c0.2641821,0.3225403,0.5091867,0.5304718,0.7350121,0.6252441c-0.0068731-0.0137329-0.0110283-0.1235352-0.0110283-0.3295593
				c0-0.1748505,0.0226946-0.3540192,0.0672836-0.5379791c0.0685635-0.2552338,0.1777201-0.5023346,0.3287497-0.7404785
				c0.1508703-0.2375031,0.3258724-0.4502258,0.5256472-0.6369171c0.1996145-0.1865082,0.4275179-0.3362732,0.6841879-0.4500732
				c0.25667-0.1133118,0.52421-0.1702118,0.8027744-0.1708527c0.3925171,0.0006409,0.7110386,0.0740051,0.9560413,0.2202454
				c0.2450047,0.1468811,0.4391842,0.3335571,0.5819035,0.5600281c0.1433601,0.2271271,0.2414894,0.4886017,0.2943878,0.78508
				c0.0529003,0.2964783,0.0829468,0.5400543,0.0898209,0.7294464c0.1662102-0.1091614,0.3754158-0.2696228,0.6279297-0.4823608
				c0.2525158-0.2120819,0.4962425-0.4468689,0.729578-0.7035522c0.7239838-0.7823639,1.2894249-1.6297607,1.6963253-2.5414124
				c0.4075394-0.911026,0.7311745-1.8348236,0.9725037-2.7730103c0.249321-0.9573669,0.4027443-1.9067383,0.4634781-2.8433228
				c0.0159836-0.1390533,0.0223732-0.2861023,0.0223732-0.4395294
				C23.277607,57.5662384,23.1497536,56.8598022,22.8940392,56.1933289z M25.1554909,61.6386414
				c-0.2716942,1.062851-0.7112007,2.0873413-1.3169174,3.075882c-0.6073151,0.9883728-1.3712502,1.8920288-2.2903748,2.7114716
				c-0.8742142,0.7694092-1.7794342,1.3588562-2.7146988,1.7678528c0.0150242,0.2635498,0.0417137,0.5346222,0.0795898,0.812561
				c0.0377197,0.2785797,0.1035652,0.518158,0.1975384,0.719223c0.0947723,0.2017059,0.2243862,0.3610535,0.39044,0.4777222
				c0.1660538,0.1173096,0.3918781,0.1756439,0.6781158,0.1756439c0.2641792,0,0.5187721-0.0562592,0.7637768-0.1702118
				c0.2450047-0.1133118,0.476902-0.2669067,0.6950569-0.4612579c0.2189541-0.1933899,0.4110565-0.4261017,0.5771084-0.6971741
				c0.1658936-0.2704315,0.2825623-0.548996,0.351284-0.8344574c0.022377-0.0947723,0.0735168-0.1750031,0.1518288-0.2410126
				c0.0799103-0.0658569,0.1710052-0.0987701,0.2764893-0.099411c0.1070786,0.0006409,0.2013741,0.0410767,0.2828789,0.1208191
				c0.030365,0.0589752,0.0463486,0.1104431,0.0463486,0.153595c0,0.0446014-0.0111885,0.0851898-0.0351601,0.1208344
				c-0.1118736,0.4981842-0.2764893,1.0046692-0.4906464,1.520752c-0.2157593,0.5160828-0.4778595,0.9923706-0.7861519,1.4274292
				c-0.308773,0.4358368-0.6744404,0.7927399-1.0971642,1.0706787c-0.4220848,0.2785797-0.9010639,0.4171448-1.4363003,0.4171448
				c-0.6033192,0-1.0404263-0.1352081-1.3121204-0.4062805c-0.2710533-0.2702637-0.4406223-0.625885-0.5091858-1.0650787
				c-0.0302048-0.1975555-0.0453873-0.4096375-0.0453873-0.6367645c0-0.2339783,0.0151825-0.475647,0.0453873-0.7248077
				c0.0604134-0.4975433,0.1131535-0.9367523,0.1585426-1.317627c-0.5874977,0.1908417-1.2358856,0.285614-1.9448462,0.285614
				c-0.995038,0-1.8796406-0.2189636-2.6523685-0.6581726c-0.7725687-0.4391937-1.388833-1.0321655-1.8486347-1.7795105
				c-0.5050306-0.8263092-0.7954226-1.741806-0.8708582-2.7450409c-0.0302067-0.2410126-0.045229-0.4823608-0.045229-0.725296
				c0-0.7527771,0.0981293-1.5327454,0.2935886-2.3382721c0.2868767-1.0756378,0.7295771-2.1193085,1.32938-3.1342163
				c0.5996437-1.0133057,1.3662987-1.9307098,2.3009262-2.7506256c0.8296232-0.7384033,1.7361221-1.3345642,2.7201309-1.7836761
				c0.984169-0.4507141,1.977129-0.6760712,2.9796791-0.6760712c0.9950371,0,1.8754845,0.2269592,2.6407013,0.6808624
				c0.7655373,0.4539185,1.3776474,1.0548706,1.8379288,1.7996674c0.5050278,0.8278961,0.8022919,1.7501068,0.8933907,2.7682037
				c0.0143852,0.2493286,0.0223732,0.493866,0.0223732,0.7352142
				C25.4719315,60.0179901,25.3664513,60.8203278,25.1554909,61.6386414z"/>
			<path class="st6" d="M31.5019302,68.0422821c0-0.2579498-0.0015984-0.530304-0.0063934-0.8175049
				c-0.0047951-0.2865753-0.0175781-0.5675507-0.0367584-0.8423004c-0.0191765-0.2744141-0.052742-0.5338135-0.1022835-0.7778778
				c-0.0495453-0.2437439-0.1102753-0.4519958-0.1805954-0.6246033c-0.1422424-0.2781067-0.3500061-0.5076141-0.624897-0.6850281
				c-0.2732925-0.1790009-0.5833397-0.2669067-0.9285507-0.2685089c-0.3356209,0.0016022-0.6392822,0.0911102-0.9109726,0.2717133
				c-0.2716942,0.180603-0.4794579,0.4075623-0.6217003,0.6818237c-0.0703201,0.1726074-0.1310501,0.3808594-0.1805954,0.6246033
				c-0.0495453,0.2440643-0.083107,0.5034637-0.1022835,0.7778778c-0.0191803,0.2747498-0.0303688,0.5557251-0.0351601,0.8423004
				c-0.0047951,0.2872009-0.0079918,0.5595551-0.0079918,0.8175049c0,0.2873688,0.0031967,0.5899353,0.0079918,0.9073486
				c0.0047913,0.3179016,0.0159798,0.6252441,0.0351601,0.9223633c0.0191765,0.2974396,0.0527382,0.5792084,0.1022835,0.8454895
				c0.0495453,0.2667542,0.1102753,0.4900208,0.1805954,0.6698303c0.1326523,0.2998352,0.3372192,0.5456543,0.6137085,0.7382507
				c0.2764893,0.1929016,0.5833435,0.2889557,0.9189644,0.2886353c0.3500061,0.0003204,0.66325-0.0957336,0.9397392-0.2886353
				c0.2764893-0.1925964,0.4810562-0.4384155,0.6137085-0.7382507c0.0703201-0.1798096,0.1310501-0.4030762,0.1805954-0.6698303
				c0.0495415-0.2662811,0.083107-0.5480499,0.1022835-0.8454895c0.0191803-0.2971191,0.0319633-0.6044617,0.0367584-0.9223633
				C31.5003319,68.6322174,31.5019302,68.3296509,31.5019302,68.0422821z M32.9067459,68.2574158
				c0,0.5907135-0.0463486,1.1779327-0.1390419,1.7621002c-0.0910988,0.5841675-0.3196411,1.1325378-0.6840324,1.644455
				c-0.2605019,0.3735199-0.6073112,0.6602478-1.0420227,0.8608398c-0.4347076,0.2010651-0.9077759,0.3014374-1.4191971,0.3014374
				c-0.4922447,0-0.9557228-0.1003723-1.393631-0.3014374c-0.4379044-0.200592-0.7863121-0.4873199-1.0468178-0.8608398
				c-0.3643875-0.5119171-0.5913315-1.0602875-0.6840286-1.644455c-0.0926933-0.5841675-0.1390419-1.1713867-0.1390419-1.7621002
				c0-0.5979156,0.0463486-1.1955109,0.1390419-1.7919922c0.0926971-0.5964661,0.3196411-1.1549072,0.6840286-1.6759491
				c0.2605057-0.3762207,0.6073151-0.6703033,1.0436211-0.8796844c0.4347115-0.2077789,0.8997879-0.3132629,1.3968277-0.3132629
				c0.5066261,0,0.978096,0.105484,1.414402,0.3132629c0.4379082,0.2093811,0.7863159,0.5034637,1.0468178,0.8796844
				c0.3643913,0.5210419,0.5929337,1.079483,0.6840324,1.6759491
				C32.8603973,67.0619049,32.9067459,67.6595001,32.9067459,68.2574158z"/>
		</g>
		<g class="st2">
			<defs>
				<rect id="SVGID_15_" x="9.073" y="16.8126984" width="25.0166245" height="35.5232239"/>
			</defs>
			<clipPath id="SVGID_16_">
				<use xlink:href="#SVGID_15_"  style="overflow:visible;"/>
			</clipPath>
			<path class="st7" d="M23.7248192,26.1769714c-0.0218925,0.0959015-0.0727158,0.1758118-0.1523056,0.2429352
				c-0.0795918,0.0655365-0.1756439,0.0975037-0.2889557,0.0975037c-0.3540001,0-0.7006493,0.0079803-1.0402679,0.0223694
				c-0.3389797,0.0159912-0.5839844,0.0543365-0.7350121,0.119873c-0.1577435,0.0527496-0.2752113,0.2429352-0.350647,0.5721741
				L17.9796104,39.605835c-0.0302048,0.1399994-0.0452271,0.2608337-0.0452271,0.3623199
				c0,0.1030884,0.0191765,0.1654205,0.0568962,0.186676c0.1057987,0.0666504,0.3239536,0.105011,0.6560593,0.1160431
				c0.3321075,0.0110321,0.6821117,0.0164642,1.0512962,0.0158234c0.211441,0.0006409,0.3170834,0.0885468,0.3170834,0.2635498
				c0,0.0446014-0.007513,0.0919037-0.0226955,0.1427307l-0.0452271,0.1756439
				c-0.083107,0.2196045-0.2264671,0.3294067-0.4302368,0.3294067c-0.9725037-0.0439453-1.9565163-0.0658417-2.9515572-0.0658417
				c-0.9875269,0-1.990078,0.0218964-3.0084505,0.0658417c-0.1949806,0-0.2931099-0.0947723-0.2937498-0.2854462v-0.0879059
				l0.0453892-0.186676c0.0610523-0.24086,0.2079258-0.3581848,0.441103-0.3513031
				c0.3693447,0.0006409,0.7239857-0.0047913,1.0631237-0.0158234c0.3389778-0.0110321,0.5839825-0.0493927,0.7348518-0.1160431
				c0.1358471-0.0727081,0.2456436-0.2702637,0.3281097-0.5927887l3.2005558-12.3749542
				c0.0302067-0.1390533,0.045229-0.2477417,0.045229-0.3292542c0-0.1086731-0.0183792-0.1790009-0.0568943-0.2093658
				c-0.1200256-0.0575409-0.3458519-0.0926971-0.6779575-0.1086884c-0.3321056-0.014389-0.6752396-0.0223694-1.0294018-0.0223694
				c-0.2112808,0-0.3170815-0.0975037-0.3170815-0.297287v-0.0767059l0.0453873-0.1965942
				c0.0829468-0.2189636,0.2264671-0.3292389,0.4295979-0.3292389c0.9881668,0.0287628,1.9796886,0.044754,2.9747295,0.0431519
				c1.0033493,0.0016022,1.9983883-0.014389,2.9851189-0.0431519c0.1058006,0,0.1964188,0.0367584,0.2718544,0.1086731
				c0.0302048,0.0591431,0.0452271,0.1150818,0.0452271,0.1646271c0,0.044754-0.0108681,0.0863037-0.0342007,0.12146
				L23.7248192,26.1769714z"/>
			<path class="st7" d="M28.6941051,39.8927155c0-0.2579498-0.0015984-0.530304-0.0063934-0.8175049
				c-0.0047932-0.2865753-0.0159836-0.5675507-0.0351601-0.8423004c-0.0191784-0.2744141-0.0527401-0.5338135-0.1038837-0.7778778
				c-0.0495453-0.2437439-0.1086769-0.4519958-0.1805973-0.6246033c-0.1406422-0.2781067-0.3484077-0.5076141-0.6232986-0.6850281
				c-0.274889-0.1790009-0.58494-0.2669067-0.930151-0.2685089c-0.3356228,0.0016022-0.6392803,0.0911102-0.9109745,0.2717133
				s-0.4778614,0.4075623-0.6201019,0.6818237c-0.0719185,0.1726074-0.131052,0.3808594-0.1805954,0.6246033
				c-0.0501842,0.2440643-0.0847034,0.5034637-0.1035633,0.7778778c-0.0190182,0.2747498-0.0305252,0.5557251-0.0353203,0.8423004
				c-0.0047951,0.2872009-0.0073509,0.5595551-0.0073509,0.8175049c0,0.2873688,0.0025558,0.5899353,0.0073509,0.9073486
				c0.0047951,0.3179016,0.0163021,0.6252441,0.0353203,0.9223633c0.0188599,0.2974396,0.0533791,0.5792084,0.1035633,0.8454895
				c0.0495434,0.2667542,0.1086769,0.4900208,0.1805954,0.6698303c0.1326504,0.2998352,0.3372211,0.5456543,0.6137104,0.7382507
				c0.2764874,0.1929016,0.5817432,0.2889557,0.917366,0.2886353c0.3516045,0.0003204,0.6648521-0.0957336,0.9413395-0.2886353
				c0.2764893-0.1925964,0.4810581-0.4384155,0.6121101-0.7382507c0.0719204-0.1798096,0.131052-0.4030762,0.1805973-0.6698303
				c0.0511436-0.2662811,0.0847054-0.5480499,0.1038837-0.8454895c0.0191765-0.2971191,0.0303669-0.6044617,0.0351601-0.9223633
				C28.6925068,40.4826508,28.6941051,40.1800842,28.6941051,39.8927155z M30.0989227,40.1078491
				c0,0.5907135-0.0463486,1.1779327-0.1374454,1.7621002c-0.0926952,0.5841675-0.3212376,1.1325378-0.6840305,1.644455
				c-0.2605057,0.3735199-0.6089134,0.6602478-1.043623,0.8608398c-0.4347115,0.2010651-0.9077797,0.3014374-1.4192028,0.3014374
				c-0.4906483,0-0.9557228-0.1003723-1.393631-0.3014374c-0.4366264-0.200592-0.7858353-0.4873199-1.0457001-0.8608398
				c-0.3642311-0.5119171-0.5922966-1.0602875-0.6843529-1.644455c-0.0922127-0.5841675-0.1385612-1.1713867-0.1385612-1.7621002
				c0-0.5979156,0.0463486-1.1955109,0.1385612-1.7919922c0.0920563-0.5964661,0.3201218-1.1549072,0.6843529-1.6759491
				c0.2598648-0.3762207,0.6076336-0.6703033,1.0425053-0.8796844c0.4347095-0.2077789,0.9013844-0.3132629,1.3968258-0.3132629
				c0.5066299,0,0.9780998,0.105484,1.4160061,0.3132629c0.4363079,0.2093811,0.786314,0.5034637,1.0468197,0.8796844
				c0.362793,0.5210419,0.5913353,1.079483,0.6840305,1.6759491C30.0525742,38.9123383,30.0989227,39.5099335,30.0989227,40.1078491
				z"/>
		</g>
		<line class="st8" x1="37.7687492" y1="62.4617767" x2="247.1502075" y2="62.2484131"/>
		<line class="st8" x1="37.7687492" y1="41.8328857" x2="196.9705963" y2="41.8328857"/>
		<g class="st2">
			<defs>
				<rect id="SVGID_17_" x="373.4434204" y="58.4128723" width="18.919281" height="35.259964"/>
			</defs>
			<clipPath id="SVGID_18_">
				<use xlink:href="#SVGID_17_"  style="overflow:visible;"/>
			</clipPath>
			<path class="st9" d="M388.0950928,67.7756805c-0.0218811,0.0975037-0.0726929,0.1774139-0.1522827,0.2429352
				c-0.0795898,0.0655365-0.1756592,0.0991058-0.2889709,0.0975037c-0.3539734,0.0016022-0.7006226,0.0095825-1.0402527,0.0239716
				c-0.3389587,0.014389-0.5839844,0.0543365-0.7350159,0.119873c-0.1577148,0.0511475-0.275177,0.2413483-0.3506165,0.5705872
				l-3.1779785,12.3749542c-0.0302124,0.1400146-0.0452271,0.260849-0.0452271,0.3623352
				c0,0.1029205,0.019165,0.1654205,0.0568848,0.186676c0.1058044,0.0666504,0.3239441,0.105011,0.6560669,0.1160431
				c0.3320923,0.0108643,0.6820984,0.0164642,1.0512695,0.0158234c0.2114563,0.0006409,0.3170776,0.0883789,0.3170776,0.2633972
				c0,0.0445862-0.0075073,0.0920563-0.0226746,0.1427307l-0.0452576,0.1758118
				c-0.0830994,0.2196045-0.2264404,0.3294067-0.4302063,0.3294067c-0.9725037-0.0439606-1.9565125-0.0658569-2.9515381-0.0658569
				c-0.9875183,0-1.9900513,0.0218964-3.0084229,0.0658569c-0.1949768,0-0.2931213-0.0947876-0.2937317-0.285614v-0.0877533
				l0.0453796-0.186676c0.0610352-0.2408752,0.2079163-0.3581848,0.4411011-0.3513031
				c0.3693237,0.0006256,0.7239685-0.0049591,1.0631104-0.0158234c0.3389587-0.0110321,0.5839844-0.0493927,0.7348328-0.1160431
				c0.1358643-0.0727234,0.245636-0.2704315,0.328125-0.5929718l3.2005005-12.3741455
				c0.0302124-0.1390533,0.0452271-0.2493286,0.0452271-0.3308411c0-0.1086884-0.0183716-0.1774139-0.0568848-0.2077789
				c-0.1200256-0.0575409-0.3458557-0.0942993-0.677948-0.1086884c-0.3321228-0.014389-0.6752319-0.0223846-1.0293884-0.0239716
				c-0.2113037,0.0015869-0.3171082-0.0975037-0.3171082-0.2956848v-0.0767212l0.0454102-0.1981964
				c0.0829468-0.2189636,0.2264709-0.3276367,0.4295959-0.3292389c0.9881592,0.030365,1.9796753,0.044754,2.9747009,0.044754
				c1.0033264,0,1.9983521-0.014389,2.9850769-0.044754c0.1058044,0.0016022,0.1964111,0.0367584,0.2718506,0.1102905
				c0.0302124,0.0591278,0.0452271,0.1134796,0.0452271,0.1646118c0,0.044754-0.0108643,0.0847168-0.0342102,0.119873
				L388.0950928,67.7756805z"/>
		</g>
		<g class="st2">
			<defs>
				<rect id="SVGID_19_" x="374.0994873" y="166.9371338" width="17.6073608" height="35.2599678"/>
			</defs>
			<clipPath id="SVGID_20_">
				<use xlink:href="#SVGID_19_"  style="overflow:visible;"/>
			</clipPath>
			<path class="st10" d="M385.2028503,183.9429779c-0.0302124-0.1310577-0.0562439-0.2685089-0.078949-0.4107513
				c-0.0227051-0.1422577-0.0569153-0.2828979-0.1022949-0.4235535c-0.1200256-0.3436279-0.2916565-0.6313324-0.5139771-0.8614807
				c-0.2223206-0.2301636-0.5037537-0.3452454-0.8427429-0.3468323c-0.3162842,0.0015869-0.6292114,0.1150818-0.9387817,0.342041
				c-0.3087769,0.2269592-0.5914917,0.5194397-0.8481445,0.8774567c-0.3616943,0.5050507-0.6327515,1.030899-0.8138123,1.5759125
				c-0.1812439,0.5450134-0.34729,1.1140137-0.4983215,1.7069855c-0.150238,0.5860901-0.2744141,1.1536407-0.3731689,1.7018585
				c-0.0597839,0.2787476-0.0899963,0.5421448-0.0899963,0.7906799c0,0.2641907,0.0302124,0.5200806,0.0899963,0.7686157
				c0.0685425,0.3444366,0.1906738,0.6286163,0.3677368,0.8515778c0.1770935,0.2237549,0.4241638,0.3350067,0.740448,0.3343658
				c0.34729,0.0006409,0.6958618-0.1201935,1.0465088-0.3616943c0.350647-0.2416687,0.6766663-0.538147,0.9779358-0.8900909
				c0.1208191-0.1456146,0.2360535-0.2862549,0.3452148-0.4221191c0.1098022-0.1352081,0.2058411-0.280014,0.288147-0.4344025
				L385.2028503,183.9429779z M384.2867737,194.1110077c-0.0453796,0.1756439-0.0680847,0.3115082-0.0680847,0.4062958
				c0,0.073349,0.0151672,0.1206665,0.0453796,0.1427155c0.0754395,0.0589752,0.2414856,0.0954132,0.4981689,0.1098022
				c0.2566833,0.0150299,0.5462646,0.0218964,0.8702087,0.0218964c0.1056519,0,0.2004089,0.0370789,0.2827454,0.1098022
				c0.0301819,0.0591431,0.0452271,0.1098022,0.0452271,0.1537628c0,0.0439453-0.0110474,0.0843964-0.0335693,0.1208344
				l-0.0343628,0.1756439c-0.0219116,0.1029358-0.0768738,0.1831665-0.1633301,0.2415009
				c-0.0864563,0.0591431-0.1791687,0.0879059-0.2772827,0.0879059c-0.7835999-0.0439453-1.5796814-0.0658417-2.3865967-0.0658417
				c-0.7987976,0-1.6092529,0.0218964-2.431366,0.0658417c-0.1126709,0-0.1956177-0.036438-0.2485046-0.1098022
				c-0.0452271-0.0439453-0.0679321-0.0946198-0.0679321-0.1537476c0-0.0439606,0.0116577-0.0837555,0.0335693-0.1206818
				l0.0343628-0.1758118c0.0453796-0.2264709,0.1881104-0.3362732,0.4295959-0.3294067
				c0.3087769,0,0.5977173-0.0068665,0.8654175-0.0218964c0.2675476-0.014389,0.4693909-0.0549774,0.6044312-0.1208344
				c0.1133118-0.0439453,0.2114563-0.2373352,0.2944031-0.5819397l0.9045715-3.5357361
				c-0.1729126,0.1689453-0.4762573,0.385025-0.9100037,0.6485901c-0.4337463,0.2635498-0.9031677,0.3946228-1.4081726,0.3946228
				c-0.5956726,0-1.0952454-0.1496124-1.4986572-0.4496155c-0.4035339-0.2998352-0.7178955-0.6773529-0.9443665-1.1315918
				c-0.2710571-0.540863-0.4144287-1.1228027-0.4295959-1.7459717v-0.1646271c0-0.5779419,0.0795898-1.1557159,0.2374878-1.7349396
				c0.1812439-0.635498,0.4337463-1.265213,0.7575378-1.8885498c0.3246155-0.6217346,0.7542114-1.2003174,1.2894287-1.7357483
				c0.4379272-0.4379272,0.9375-0.8071289,1.4988098-1.1076202c0.5612793-0.3004761,1.1323242-0.4507141,1.7129517-0.4507141
				c0.5433655,0,0.9785767,0.1550293,1.3065186,0.4618988c0.3279419,0.3068848,0.5483398,0.5961609,0.661499,0.866272
				c0.0981445-0.1390381,0.2545776-0.3244476,0.4693909-0.5593872c0.2148132-0.2333679,0.4502258-0.4539185,0.7062378-0.6585083
				c0.1056519-0.0879059,0.2079468-0.1310577,0.3052673-0.1326599c0.1139526,0.0016022,0.1929016,0.0591431,0.2374878,0.1758118
				c0.0233459,0.0447693,0.0343628,0.0879211,0.0343628,0.1326599v0.0767212L384.2867737,194.1110077z"/>
		</g>
		<g class="st2">
			<defs>
				<rect id="SVGID_21_" x="404.9232483" y="109.6294861" width="15.1307068" height="35.2599716"/>
			</defs>
			<clipPath id="SVGID_22_">
				<use xlink:href="#SVGID_21_"  style="overflow:visible;"/>
			</clipPath>
			<path class="st11" d="M415.8099976,124.6918182c-0.0823059,0.2205658-0.2298279,0.3308487-0.4412537,0.3292542h-2.103241
				l-1.6737671,6.4897003c-0.1351929,0.4694214-0.203125,0.8790588-0.203125,1.2297363
				c0,0.0962219,0.0075073,0.1874695,0.0226746,0.2745819c0.0377197,0.3521118,0.2148132,0.5277557,0.5310974,0.5271149
				c0.2868652,0.0006409,0.5579224-0.0776672,0.8146057-0.2354126c0.2566528-0.1572876,0.4974976-0.3679352,0.7239685-0.6315002
				c0.2264709-0.2633972,0.4295959-0.5742645,0.6106873-0.9332275c0.1812134-0.3581848,0.3466492-0.7357025,0.4968567-1.1317596
				c0.0233459-0.0871124,0.0720825-0.1508789,0.147522-0.1914825c0.075592-0.0397949,0.1468811-0.0602417,0.2147827-0.0610504
				h0.2827454c0.098114,0.0008087,0.177063,0.0412445,0.2374878,0.1208344
				c0.0226746,0.0520935,0.0335693,0.0995789,0.0335693,0.1427307v0.0658417
				c-0.1577454,0.4323425-0.3560791,0.8592377-0.5935669,1.2799225c-0.2373352,0.421463-0.5104675,0.8002625-0.819397,1.1365356
				c-0.3087769,0.3369141-0.6504822,0.6148682-1.0238037,0.8338318c-0.3733521,0.2196045-0.785675,0.3294067-1.2386169,0.3294067
				c-0.3918762,0-0.730835-0.0747986-1.0177307-0.2251892c-0.2862244-0.1496124-0.5160522-0.3575439-0.6896057-0.6250916
				c-0.1729431-0.2670898-0.2752075-0.5731506-0.3054199-0.9175873c-0.0151978-0.0871124-0.0227051-0.1825256-0.0227051-0.2854614
				c0-0.2485352,0.0302124-0.5010529,0.0906067-0.7577515l1.6621399-6.4347305h-2.1260986
				c-0.1879272,0.0015945-0.2902222-0.097496-0.3052368-0.2956848v-0.0879059l0.0679016-0.1870041
				c0.0754395-0.2189636,0.2154541-0.3292465,0.4185791-0.3292465h2.1596375l0.9277649-3.6025543
				c0.0679016-0.2701111,0.2052002-0.4714966,0.412323-0.6025543c0.2072754-0.1310577,0.4166565-0.1981888,0.6279297-0.1981888
				c0.2189636,0,0.400177,0.0703278,0.5429077,0.2077789c0.098114,0.097496,0.1468811,0.2285614,0.1468811,0.3963776
				c0,0.0799103-0.0076904,0.1614227-0.0227051,0.2413406l-0.9160767,3.5578079h2.0813293
				c0.1962585,0,0.2935791,0.0990906,0.2935791,0.2956848v0.0767136L415.8099976,124.6918182z"/>
		</g>
		<line class="st12" x1="247.1502075" y1="127.8590698" x2="247.1502075" y2="63.3240509"/>
	</g>
</g>
</svg>
