<?xml version="1.0" encoding="utf-8"?>
<!-- Generator: Adobe Illustrator 19.0.0, SVG Export Plug-In . SVG Version: 6.00 Build 0)  -->
<svg version="1.1" id="Layer_1" xmlns="http://www.w3.org/2000/svg" xmlns:xlink="http://www.w3.org/1999/xlink" x="0px" y="0px"
	 viewBox="0 0 926 785" style="enable-background:new 0 0 926 785;" xml:space="preserve">
<style type="text/css">
	.st0{clip-path:url(#SVGID_2_);fill:#FFFFFF;}
	
		.st1{clip-path:url(#SVGID_2_);fill:none;stroke:#000000;stroke-width:3;stroke-linejoin:round;stroke-miterlimit:10;stroke-dasharray:11,8;}
	
		.st2{clip-path:url(#SVGID_2_);fill:none;stroke:#000000;stroke-width:5;stroke-linejoin:round;stroke-miterlimit:10;stroke-dasharray:12,8;}
	
		.st3{clip-path:url(#SVGID_2_);fill:none;stroke:#000000;stroke-width:5;stroke-linecap:round;stroke-linejoin:round;stroke-miterlimit:10;}
	.st4{clip-path:url(#SVGID_2_);fill-rule:evenodd;clip-rule:evenodd;}
	
		.st5{clip-path:url(#SVGID_2_);fill:none;stroke:#4B0082;stroke-width:5;stroke-linecap:round;stroke-linejoin:round;stroke-miterlimit:10;}
	.st6{clip-path:url(#SVGID_2_);fill-rule:evenodd;clip-rule:evenodd;fill:#4B0082;}
	.st7{clip-path:url(#SVGID_2_);fill:#7D7DFF;}
	.st8{clip-path:url(#SVGID_2_);fill:none;stroke:#000000;stroke-linecap:round;stroke-linejoin:round;stroke-miterlimit:10;}
	.st9{clip-path:url(#SVGID_2_);fill:#006400;}
	.st10{clip-path:url(#SVGID_2_);}
	.st11{clip-path:url(#SVGID_2_);fill:#993300;}
</style>
<g>
	<defs>
		<rect id="SVGID_1_" width="926" height="785"/>
	</defs>
	<clipPath id="SVGID_2_">
		<use xlink:href="#SVGID_1_"  style="overflow:visible;"/>
	</clipPath>
	<polyline class="st0" points="0,0 926,0 926,785 0,785 0,0 	"/>
	<circle class="st1" cx="472.7352295" cy="396" r="246.5175323"/>
	<line class="st2" x1="403.9242554" y1="397.6490173" x2="541.5461426" y2="159.2808838"/>
	<line class="st2" x1="541.5461426" y1="159.2808838" x2="679.1680908" y2="397.6490173"/>
	<line class="st2" x1="679.1680908" y1="397.6490173" x2="541.5461426" y2="636.0171509"/>
	<line class="st2" x1="541.5461426" y1="636.0171509" x2="403.9242554" y2="397.6490173"/>
	<line class="st1" x1="541.5461426" y1="159.2808838" x2="472.735199" y2="396"/>
	<line class="st3" x1="84.4545441" y1="397.6490173" x2="792.789978" y2="397.6490173"/>
	<polygon class="st4" points="816.789978,397.6490173 792.789978,403.6490173 792.789978,391.6490173 	"/>
	<line class="st3" x1="472.735199" y1="693.9091187" x2="472.735199" y2="77.5942383"/>
	<polygon class="st4" points="472.735199,53.5942383 478.735199,77.5942383 466.735199,77.5942383 	"/>
	<line class="st5" x1="541.5461426" y1="159.2808838" x2="511.2422791" y2="263.5303955"/>
	<polygon class="st6" points="504.5430908,286.5765076 505.4807434,261.8556519 517.0037842,265.2052002 	"/>
	<circle class="st7" cx="403.9242554" cy="397.6490173" r="9"/>
	<circle class="st8" cx="403.9242554" cy="397.6490173" r="9"/>
	<circle class="st9" cx="679.1680908" cy="397.6490173" r="9"/>
	<circle class="st8" cx="679.1680908" cy="397.6490173" r="9"/>
	<circle class="st10" cx="747.4545288" cy="397.6490173" r="8"/>
	<circle class="st10" cx="128.6804199" cy="397.6490173" r="8"/>
	<circle class="st10" cx="610.3571167" cy="397.6490173" r="8"/>
	<circle class="st10" cx="541.5461426" cy="159.2808838" r="8"/>
	<circle class="st8" cx="541.5461426" cy="159.2808838" r="8"/>
	<circle class="st10" cx="541.5461426" cy="636.0171509" r="8"/>
	<circle class="st8" cx="541.5461426" cy="636.0171509" r="8"/>
	<circle class="st11" cx="472.735199" cy="396" r="6"/>
	<circle class="st8" cx="472.735199" cy="396" r="6"/>
	<path class="st10" d="M133.4088593,347.3716736l-7.2419968,29.1719971c0,0,0.3569946,0.0510254,1.1729965,0.0510254h2.9579926
		c0,0,2.2440033,0,4.1309967-0.8160095c0,0,1.8870087-0.8160095,3.0345001-1.8105164c0,0,1.1475067-0.9944763,2.1930084-2.7539978
		c0,0,1.0455017-1.759491,1.4790039-2.7539978c0,0,0.4335022-0.9944763,1.0454865-2.6264954
		c0,0,0.1530151-0.5610046,0.4589996-0.6885071c0,0,0.306015-0.1275024,0.9690094-0.1275024c0,0,1.4279938,0,1.4279938,0.9179993
		c0,0,0,0.2550049-0.2549896,0.8670044l-4.0800018,11.1180115c0,0-0.3059998,0.7649841-0.5610046,0.9179993
		c0,0-0.2550049,0.1530151-1.1730042,0.1530151h-24.071991c0,0-1.6319962,0-1.6319962-0.9180298
		c0,0,0-0.7139893,0.3059998-1.0454712c0,0,0.3059998-0.3315125,0.6119995-0.3825073c0,0,0.3059998-0.0509949,0.8669968-0.0509949
		h1.1220016c0,0,0.8160019,0,2.0400009-0.1020203c0,0,0.6629944-0.0509949,0.8414993-0.1529846
		c0,0,0.1784973-0.1020203,0.3314972-0.6629944l7.2929993-29.1720276c0,0-1.223999-0.1019897-2.4990005-0.1019897h-1.121994
		c0,0-1.6320038,0-1.6320038-0.9179993c0,0,0-0.6629944,0.3059998-1.019989c0,0,0.3059998-0.3569946,0.5354996-0.40802
		c0,0,0.2294998-0.0509949,0.6374969-0.0509949c0,0,1.326004,0,4.029007,0.0765076c0,0,2.7029953,0.0765076,4.0289993,0.0765076
		c0,0,1.4789886,0,4.3860016-0.0765076c0,0,2.9069977-0.0765076,4.3859863-0.0765076c0,0,1.1730042,0,1.1730042,0.9179993
		c0,0,0,0.7140198-0.2805023,1.0455017c0,0-0.2804871,0.3315125-0.5609894,0.3825073c0,0-0.2805023,0.0509949-0.8925018,0.0509949
		h-1.8359985c0,0-1.326004,0-2.3460083,0.1019897c0,0-0.9689941,0.0510254-1.1985016,0.1785278
		C133.7913513,346.683197,133.5618591,346.8106995,133.4088593,347.3716736z"/>
	<path class="st10" d="M163.9716339,364.1506958l-5.1764984,20.7060242c0,0,0.9638977,0.1070862,2.1062927,0.1070862h1.1781006
		c0,0,1.142395,0,1.142395,0.6426086c0,0,0,1.0353088-1.0709991,1.0353088c0,0-0.9281921,0-2.8738403-0.0535583
		c0,0-1.9456635-0.0535583-2.9095612-0.0535583c0,0-0.9281921,0-2.8024445,0.0535583c0,0-1.8742523,0.0535583-2.7667542,0.0535583
		c0,0-0.7854004,0-0.7854004-0.6426086c0,0,0-0.4998169,0.1963501-0.731842c0,0,0.1963501-0.2320557,0.410553-0.2677612
		c0,0,0.2142029-0.0357056,0.6425934-0.0357056h1.1067047c0,0,1.0709991,0,1.5708008-0.0714111
		c0,0,0.5711975-0.035675,0.7140045-0.1427917c0,0,0.1427917-0.1070862,0.2498932-0.4997864l3.9983978-15.9579163
		c0,0-2.2133942,1.0353088-4.1768951,1.0353088c0,0-0.8210907,0-0.8210907-0.6783142c0,0,0-0.8924866,0.8924866-0.9995728
		c0,0,4.4981995-0.3213196,7.8183136-4.212616c0,0,0.3927002-0.3927002,0.7139893-0.3927002c0,0,0.4284058,0,0.5890503,0.2320557
		c0,0,0.1606598,0.2320557,0.1606598,0.410553C164.0787354,363.686615,164.0787354,363.8294067,163.9716339,364.1506958z"/>
	<path class="st10" d="M590.4091187,348.3717957l-7.2420044,29.1719971c0,0,0.3569946,0.0510254,1.1729736,0.0510254h2.9580078
		c0,0,2.2440186,0,4.1309814-0.8160095c0,0,1.8870239-0.8160095,3.0344849-1.8105164c0,0,1.147522-0.9944763,2.1930542-2.7539978
		c0,0,1.0454712-1.759491,1.4790039-2.7539978c0,0,0.4334717-0.9944763,1.0454712-2.6264954
		c0,0,0.1530151-0.5610046,0.4589844-0.6885071c0,0,0.3060303-0.1275024,0.9689941-0.1275024c0,0,1.4280396,0,1.4280396,0.9179993
		c0,0,0,0.2550049-0.2550049,0.8670044l-4.0800171,11.1180115c0,0-0.3059692,0.7649841-0.5609741,0.9179993
		c0,0-0.2550049,0.1530151-1.1730347,0.1530151h-24.0719604c0,0-1.632019,0-1.632019-0.9180298c0,0,0-0.7139893,0.3059692-1.0454712
		c0,0,0.3060303-0.3315125,0.6119995-0.3825073c0,0,0.3060303-0.0509949,0.8670044-0.0509949h1.1220093
		c0,0,0.81604,0,2.0400391-0.1020203c0,0,0.6629639-0.0509949,0.8414917-0.1529846c0,0,0.1784668-0.1020203,0.3314819-0.6629944
		l7.2929688-29.1720276c0,0-1.223999-0.1019897-2.4989624-0.1019897h-1.1220093c0,0-1.632019,0-1.632019-0.9179993
		c0,0,0-0.6629944,0.3060303-1.019989c0,0,0.3059692-0.3569946,0.5354614-0.40802c0,0,0.2295532-0.0509949,0.6375122-0.0509949
		c0,0,1.3259888,0,4.0289917,0.0765076c0,0,2.7030029,0.0765076,4.0290527,0.0765076c0,0,1.4789429,0,4.3859863-0.0765076
		c0,0,2.9069824-0.0765076,4.3859863-0.0765076c0,0,1.1729736,0,1.1729736,0.9179993c0,0,0,0.7140198-0.2804565,1.0455017
		c0,0-0.2805176,0.3315125-0.5610352,0.3825073c0,0-0.2804565,0.0509949-0.8924561,0.0509949h-1.8359985
		c0,0-1.3260498,0-2.3460083,0.1019897c0,0-0.9689941,0.0510254-1.1985474,0.1785278
		C590.7915649,347.6833191,590.5620728,347.8108215,590.4091187,348.3717957z"/>
	<path class="st10" d="M609.8334961,384.0003967c0,0,1.9277954,0,4.1411743,0.2499084c0,0,2.7489014,0.2499084,3.7485352,0.2499084
		c0,0,1.6422119,0,2.7667236-0.821106c0,0,1.1245728-0.821106,1.5172729-1.9992065c0,0,0.1428223-0.3927002,0.2855835-0.4819641
		c0,0,0.1428223-0.0892334,0.7496948-0.0892334c0,0,0.9996338,0,0.9996338,0.5354919c0,0,0,0.3213196-0.2677612,1.0531616
		c0,0-0.2677612,0.731842-0.8389282,1.6957397c0,0-0.571228,0.9638977-1.3388062,1.8207092
		c0,0-0.7675171,0.856781-1.9099121,1.4458313c0,0-1.142395,0.5890503-2.4276123,0.5890503c0,0-1.5708008,0-3.9627075-1.4993896
		c0,0-2.2133789-1.4636841-3.4985962-1.4636841c0,0-1.2495117,0-1.963501,2.4632874c0,0-0.1071167,0.3569946-0.2677612,0.4284058
		c0,0-0.1606445,0.0713806-0.7675171,0.0713806c0,0-0.9639282,0-0.9639282-0.4997864c0,0,0-0.3212891,0.3391724-1.2138062
		c0,0,0.3391113-0.8924866,1.1066895-2.2669373c0,0,0.7675781-1.3744507,2.409729-2.9273987
		c0,0,1.6422119-1.552948,3.8199463-2.6953735c0,0,3.677063-1.8920898,5.4978027-4.3196716
		c0,0,0.7139893-0.9639282,1.142395-2.4811707c0,0,0.4284058-1.5172424,0.5176392-2.3204956
		c0,0,0.0892334-0.8032532,0.0892334-1.1245422c0,0,0-1.6422119-0.8925171-2.3562012c0,0-0.8924561-0.7140198-2.1062622-0.7140198
		c0,0-2.8203125,0-4.9979858,2.6953735c0,0-2.1777344,2.695343-2.1777344,4.9801331c0,0,0,0.9996033,0.6782837,0.9996033
		c0,0,1.3566284,0,2.4454956-1.5708008c0,0,1.0888062-1.5708008,1.0888062-2.5704041c0,0,0-0.4997864-0.3927002-1.142395
		c0,0-0.1784668-0.2855835-0.1784668-0.3927002c0,0,0-0.2855835,0.2855835-0.4640808c0,0,0.1785278-0.2499084,0.4641113-0.2499084
		c0,0,0.3927002,0,0.7496948,0.731842c0,0,0.3569946,0.731842,0.3569946,1.4458618c0,0,0,1.5350952-1.4636841,3.516449
		c0,0-1.4636841,1.9813538-3.4985962,1.9813538c0,0-1.1066895,0-1.7850342-0.7497253c0,0-0.6782837-0.7496948-0.6782837-1.9277954
		c0,0,0-1.1066895,0.6782837-2.5346985c0,0,0.6783447-1.4279785,1.838562-2.8024292c0,0,1.1602783-1.3744507,2.9631348-2.3026733
		c0,0,1.8027954-0.9281921,3.802002-0.9281921c0,0,2.9274292,0,4.819519,1.5172424c0,0,1.8920898,1.5172729,1.8920898,4.3732605
		c0,0,0,2.9988098-1.9992065,5.1051025c0,0-1.9992065,2.1062927-7.4970093,4.8908997
		C615.152771,379.930603,611.7255859,381.6441956,609.8334961,384.0003967z"/>
	<path class="st10" d="M763.4088135,354.3714294l-7.2420044,29.1719971c0,0,0.3569946,0.0510254,1.1729736,0.0510254h2.9580078
		c0,0,2.2440186,0,4.1309814-0.8160095c0,0,1.8870239-0.8160095,3.0344849-1.8105164c0,0,1.147522-0.9944763,2.1930542-2.7539978
		c0,0,1.0454712-1.759491,1.4790039-2.7539978c0,0,0.4334717-0.9944763,1.0454712-2.6264954
		c0,0,0.1530151-0.5610046,0.4589844-0.6885071c0,0,0.3060303-0.1275024,0.9689941-0.1275024c0,0,1.4280396,0,1.4280396,0.9179993
		c0,0,0,0.2550049-0.2550049,0.8670044l-4.0800171,11.1180115c0,0-0.3059692,0.7649841-0.5609741,0.9179993
		c0,0-0.2550049,0.1530151-1.1730347,0.1530151H744.895813c0,0-1.632019,0-1.632019-0.9180298c0,0,0-0.7139893,0.3059692-1.0454712
		c0,0,0.3060303-0.3315125,0.6119995-0.3825073c0,0,0.3060303-0.0509949,0.8670044-0.0509949h1.1220093
		c0,0,0.81604,0,2.0400391-0.1020203c0,0,0.6629639-0.0509949,0.8414917-0.1529846c0,0,0.1784668-0.1020203,0.3314819-0.6629944
		l7.2929688-29.1720276c0,0-1.223999-0.1019897-2.4989624-0.1019897h-1.1220093c0,0-1.632019,0-1.632019-0.9179993
		c0,0,0-0.6629944,0.3060303-1.019989c0,0,0.3059692-0.3569946,0.5354614-0.40802c0,0,0.2295532-0.0509949,0.6375122-0.0509949
		c0,0,1.3259888,0,4.0289917,0.0765076c0,0,2.7030029,0.0765076,4.0290527,0.0765076c0,0,1.4789429,0,4.3859863-0.0765076
		c0,0,2.9069824-0.0765076,4.3859863-0.0765076c0,0,1.1729736,0,1.1729736,0.9179993c0,0,0,0.7140198-0.2804565,1.0455017
		c0,0-0.2805176,0.3315125-0.5610352,0.3825073c0,0-0.2804565,0.0509949-0.8924561,0.0509949h-1.8359985
		c0,0-1.3260498,0-2.3460083,0.1019897c0,0-0.9689941,0.0510254-1.1985474,0.1785278
		C763.7912598,353.6829529,763.5617676,353.8104553,763.4088135,354.3714294z"/>
	<path class="st10" d="M787.6526489,380.8608704h0.9995728c0,0,3.0344849,0,4.3197021-1.9277954
		c0,0,0.6069336-0.8568115,1.0531616-2.6418152c0,0,0.446228-1.7850037,0.446228-2.6061096c0,0,0-2.3562012-2.6774902-2.3562012
		c0,0-2.5703735,0-4.6052856,1.6779175c0,0-2.0349121,1.677887-2.0349121,3.6413879c0,0,0,0.9996033,0.6782837,0.9996033
		c0,0,0.6783447,0,1.3209229-0.5533447c0,0,0.6425781-0.5533447,0.6425781-1.3030396c0,0,0-0.4641113-0.3569946-1.0353088
		c0,0-0.2141724-0.2142029-0.2141724-0.4284058c0,0,0-0.2855835,0.2855835-0.4640808c0,0,0.1785278-0.2499084,0.4641113-0.2499084
		c0,0,0.3927002,0,0.7675171,0.7496948c0,0,0.3748779,0.7496948,0.3748779,1.3565979c0,0,0,1.2495117-1.0352783,2.2312622
		c0,0-1.0353394,0.9817505-2.3562012,0.9817505c0,0-1.1067505,0-1.8207397-0.696167c0,0-0.7139893-0.6961365-0.7139893-1.8385315
		c0,0,0-2.2848206,2.5525513-4.3197021c0,0,2.5525513-2.0349121,6.1939697-2.0349121c0,0,2.7846069,0,4.4267578,1.2316589
		c0,0,1.6422119,1.2316284,1.6422119,3.5521545c0,0,0,1.963501-1.3387451,4.0519409c0,0-1.3387451,2.0884399-4.1233521,3.0523376
		c0,0,2.5704346,1.2495117,2.5704346,4.3554077c0,0,0,3.3200989-2.7667847,5.6405945c0,0-2.7667236,2.3204956-7.1578369,2.3204956
		c0,0-2.6060791,0-4.1768799-1.3387451c0,0-1.5708008-1.3387451-1.5708008-3.4093323c0,0,0-1.0353088,0.3212891-1.7314453
		c0,0,0.3212891-0.696167,0.8032227-0.9817505c0,0,0.4819946-0.285614,0.8389893-0.3927002
		c0,0,0.3569946-0.1071167,0.6425781-0.1071167c0,0,0.821106,0,1.3030396,0.4819641c0,0,0.4819336,0.4819336,0.4819336,1.1602478
		c0,0,0,0.7496948-0.5533447,1.5350952c0,0-0.5533447,0.7854004-1.7314453,0.9638977c0,0,0.2856445,1.2495117,1.3030396,1.8920898
		c0,0,1.0174561,0.6426086,2.3026733,0.6426086c0,0,1.5708008,0,2.7846069-0.7139893c0,0,1.2138062-0.7140198,1.7849731-1.8207092
		c0,0,0.6069336-1.1781006,1.0531616-3.0701904c0,0,0.4462891-1.8921204,0.4462891-2.6418152c0,0,0-2.1777039-2.4990234-2.1777039
		h-1.142395c0,0-0.4284058,0-0.6247559-0.0178528c0,0-0.1963501-0.0178528-0.3569946-0.1427917
		c0,0-0.1606445-0.124939-0.1606445-0.3748474c0,0,0-0.6426086,0.2855835-0.9281921
		C786.7244263,381.0750732,786.8672485,380.8608704,787.6526489,380.8608704z"/>
	<path class="st10" d="M390.7747498,359.6244507l-8.5680237,14.1779785h10.0980225L390.7747498,359.6244507z
		 M396.9457397,351.2094421l3.3659973,31.4159851c0,0,0.0509949,0.5610046,0.1784973,0.6885071
		c0,0,0.1275024,0.1275024,0.5865173,0.2294922c0,0,0.4079895,0.0510254,1.6829834,0.0510254h0.6629944
		c0,0,1.632019,0,1.632019,0.9179993c0,0,0,0.6629944-0.2805176,1.019989c0,0-0.2804871,0.3569946-0.5099792,0.4079895
		c0,0-0.2295227,0.0510254-0.6375122,0.0510254c0,0-1.1730042,0-3.5190125-0.0765076c0,0-2.3459778-0.0765076-3.4679871-0.0765076
		c0,0-1.2749939,0-3.7739868,0.0765076c0,0-2.4990234,0.0765076-3.7230225,0.0765076c0,0-1.1219788,0-1.1219788-0.9180298
		c0,0,0-1.019989,0.4589844-1.2494812c0,0,0.4590149-0.2294922,1.5299988-0.2294922c0,0,2.0910034,0,3.3150024-0.2550049
		l-0.7649841-7.1400146h-11.8320007l-4.131012,6.8850098c0,0,1.3770142,0.5100098,3.0599976,0.5100098
		c0,0,1.3259888,0,1.3259888,0.9179993c0,0,0,1.4790039-1.4279785,1.4790039c0,0-0.9179993,0-2.9070129-0.0765076
		c0,0-1.9889832-0.0765076-2.9580078-0.0765076c0,0-0.815979,0-2.5244751,0.0765076c0,0-1.7085266,0.0765076-2.4735107,0.0765076
		c0,0-0.9689941,0-0.9689941-0.9180298c0,0,0-0.6629944,0.2804871-1.019989c0,0,0.2805176-0.3569946,0.5354919-0.4079895
		c0,0,0.2550049-0.0509949,0.7650146-0.0509949c0,0,1.7340088,0,2.7795105-0.3315125c0,0,1.0455017-0.3315125,1.3515015-0.6375122
		c0,0,0.3059998-0.3059998,0.6629944-0.9179993l18.6149902-30.7019958c0,0,0.5100098-0.8670044,0.9689941-1.0709839
		c0,0,0.4590149-0.20401,1.428009-0.20401c0,0,1.1220093,0,1.428009,0.2294922
		C396.5377502,349.9599304,396.84375,350.1894531,396.9457397,351.2094421"/>
	<path class="st10" d="M689.7790527,381.5947571h7.190979c0,0,3.0089722,0,5.0999756-1.7340088
		c0,0,2.0910034-1.7340088,2.9070435-3.927002c0,0,0.815979-2.1929932,0.815979-4.4370117c0,0,0-1.6829834-0.5100098-2.7539978
		c0,0-0.5100098-1.0709839-1.4279785-1.4534912c0,0-0.9180298-0.3825073-1.4534912-0.4844971
		c0,0-0.5355225-0.1019897-1.2495117-0.1019897h-8.8740234l-3.6719971,14.8409729
		C688.6060181,381.5437317,688.9630127,381.5947571,689.7790527,381.5947571z M695.8990479,352.21875l-3.1619873,12.6480103
		h7.0889893c0,0,4.1820068,0,6.5025024-2.9580078c0,0,2.3204956-2.9580078,2.3204956-6.3240051c0,0,0-4.1820068-4.2330322-4.1820068
		h-6.6809692c0,0-1.1730347,0-1.4280396,0.1275024C696.3070068,351.5302429,696.052002,351.6577454,695.8990479,352.21875
		 M682.3840332,380.6767578l7.2929688-29.1720276c0,0-1.223999-0.1019897-2.4989624-0.1019897h-1.1220093
		c0,0-1.632019,0-1.632019-0.9179993c0,0,0-0.7139893,0.3060303-1.0455017c0,0,0.3059692-0.3314819,0.6119995-0.3825073
		c0,0,0.3059692-0.0509949,0.8670044-0.0509949h19.3800049c0,0,4.2839966,0,7.0379639,1.7340088
		c0,0,2.7540283,1.7340088,2.7540283,5.2019958c0,0,0,3.2640076-2.7030029,6.0690002c0,0-2.7030029,2.8049927-7.6500244,3.7229919
		c0,0,3.3150024,0.3059998,5.4825439,2.0144958c0,0,2.1674805,1.7085266,2.1674805,4.7685242c0,0,0,4.1309814-3.8505249,7.8029785
		c0,0-3.8504639,3.6720276-10.5314941,3.6720276h-20.3999634c0,0-1.632019,0-1.632019-0.9180298
		c0,0,0-0.7139893,0.3059692-1.0454712c0,0,0.3060303-0.3315125,0.6119995-0.3825073c0,0,0.3060303-0.0509949,0.8670044-0.0509949
		h1.1220093c0,0,0.81604,0,2.0400391-0.1020203c0,0,0.6629639-0.0509949,0.8414917-0.1529846
		C682.0525513,381.3397522,682.2310181,381.2377319,682.3840332,380.6767578"/>
	<path class="st10" d="M572.4092407,131.3713989l-7.2420044,29.1719971c0,0,0.3569946,0.0510254,1.1729736,0.0510254h2.9580078
		c0,0,2.2440186,0,4.1309814-0.81604c0,0,1.8870239-0.815979,3.0344849-1.8104858c0,0,1.147522-0.9945068,2.1930542-2.7540283
		c0,0,1.0454712-1.7594604,1.4790039-2.7539673c0,0,0.4334717-0.9945068,1.0454712-2.6265259
		c0,0,0.1530151-0.5609741,0.4589844-0.6884766c0,0,0.3060303-0.1275024,0.9689941-0.1275024c0,0,1.4280396,0,1.4280396,0.9180298
		c0,0,0,0.2550049-0.2550049,0.8669434l-4.0800171,11.118042c0,0-0.3059692,0.7650146-0.5609741,0.9179688
		c0,0-0.2550049,0.1530151-1.1730347,0.1530151h-24.0719604c0,0-1.632019,0-1.632019-0.9180298c0,0,0-0.7139893,0.3059692-1.0454712
		c0,0,0.3060303-0.3314819,0.6119995-0.3825073c0,0,0.3060303-0.0509644,0.8670044-0.0509644h1.1220093
		c0,0,0.81604,0,2.0400391-0.1019897c0,0,0.6629639-0.0510254,0.8414917-0.1530151c0,0,0.1784668-0.1019897,0.3314819-0.6630249
		l7.2929688-29.1719971c0,0-1.223999-0.1019897-2.4989624-0.1019897h-1.1220093c0,0-1.632019,0-1.632019-0.9180298
		c0,0,0-0.6629639,0.3060303-1.0199585c0,0,0.3059692-0.3569946,0.5354614-0.40802c0,0,0.2295532-0.0510254,0.6375122-0.0510254
		c0,0,1.3259888,0,4.0289917,0.0765381c0,0,2.7030029,0.0764771,4.0290527,0.0764771c0,0,1.4789429,0,4.3859863-0.0764771
		c0,0,2.9069824-0.0765381,4.3859863-0.0765381c0,0,1.1729736,0,1.1729736,0.9180298c0,0,0,0.7139893-0.2804565,1.0454712
		c0,0-0.2805176,0.331543-0.5610352,0.3825684c0,0-0.2804565,0.0509644-0.8924561,0.0509644h-1.8359985
		c0,0-1.3260498,0-2.3460083,0.1019897c0,0-0.9689941,0.0510254-1.1985474,0.1785278
		C572.791687,130.6829224,572.5621948,130.8104248,572.4092407,131.3713989z"/>
	<path class="st10" d="M601.7224731,164.5367432l-1.2852173,5.2478638c0,0,1.2852173,0,2.3919067-0.3569946
		c0,0,0.3927002-0.1071167,0.4284058-0.1071167c0,0,0.3212891,0,0.5890503,0.3927002c0,0,0.2677612,0.3927002,0.2677612,0.571228
		c0,0,0,0.5355225-1.4637451,0.8568115c0,0-1.4636841,0.3212891-2.6774902,0.3212891c0,0-0.1071167,0.5355225-0.9638672,3.9627075
		c0,0-0.5355225,2.1419678-2.3204956,2.1419678c0,0-0.7497559,0-1.1781006-0.446228c0,0-0.4284058-0.4462891-0.4284058-1.0531616
		l0.6425781-2.7846069l0.6425781-2.6060791c0,0-1.9991455-0.6783447-2.8202515-0.8568115
		c0,0-0.821106-0.1784668-2.1063232-0.1784668c0,0-2.4276123,0-3.3201294,0.571167c0,0-0.6068726,0.4284058-0.7854004,0.4284058
		c0,0-0.2855835,0-0.571167-0.3748779c0,0-0.2855835-0.3748169-0.2855835-0.5890503c0,0,0-0.6782837,1.3565674-1.2495117
		c0,0,0.3212891-0.1784668,1.1602783-0.8210449c0,0,0.8389282-0.6426392,2.4989624-2.40979
		c0,0,1.6600952-1.7671509,3.0880737-3.9448242c0,0,3.1773071-4.8552246,5.0336914-11.9952393
		c0,0,0.1428223-0.571167,0.2855835-0.9103394c0,0,0.1428223-0.3391113,0.696167-0.821106
		c0,0,0.5533447-0.4819336,1.3744507-0.4819336c0,0,0.2498779,0,0.5533447,0.0714111c0,0,0.3034668,0.0714111,0.6604614,0.446228
		c0,0,0.3569946,0.3748779,0.3569946,1.0174561c0,0,0,0.249939-0.2320557,1.267395c0,0-0.2320557,1.0174561-1.0709839,3.1237183
		c0,0-0.8389282,2.1063232-2.0884399,4.4089355c0,0-1.2495117,2.3026733-3.6057129,5.194397
		c0,0-2.3562012,2.8916626-5.3192749,5.390686h0.7139893c0,0,1.713562,0,4.8551636,1.0709839
		c0,0,0.571228-2.4276123,1.0710449-4.248291c0,0,0.1784668-0.7496948,0.3391113-1.1781006
		c0,0,0.1606445-0.4284058,0.696167-0.9103394c0,0,0.5355225-0.4819946,1.3565674-0.4819946c0,0,0.6783447,0,1.1424561,0.3927002
		c0,0,0.4640503,0.3927002,0.4640503,1.1066895C601.8652344,163.7155762,601.8652344,164.0012207,601.7224731,164.5367432z"/>
	<path class="st10" d="M570.4089966,642.37146l-7.2420044,29.1719971c0,0,0.3569946,0.0510254,1.1729736,0.0510254h2.9580078
		c0,0,2.2440186,0,4.1309814-0.815979c0,0,1.8870239-0.81604,3.0344849-1.8105469c0,0,1.147522-0.9944458,2.1930542-2.7539673
		c0,0,1.0454712-1.7595215,1.4790039-2.7540283c0,0,0.4334717-0.9944458,1.0454712-2.6264648
		c0,0,0.1530151-0.5610352,0.4589844-0.6885376c0,0,0.3060303-0.1275024,0.9689941-0.1275024c0,0,1.4280396,0,1.4280396,0.9180298
		c0,0,0,0.2550049-0.2550049,0.8670044l-4.0800171,11.117981c0,0-0.3059692,0.7650146-0.5609741,0.9180298
		c0,0-0.2550049,0.1530151-1.1730347,0.1530151h-24.0719604c0,0-1.632019,0-1.632019-0.9180298c0,0,0-0.7139893,0.3059692-1.0454712
		c0,0,0.3060303-0.331543,0.6119995-0.3825073c0,0,0.3060303-0.0510254,0.8670044-0.0510254h1.1220093
		c0,0,0.81604,0,2.0400391-0.1019897c0,0,0.6629639-0.0510254,0.8414917-0.1530151c0,0,0.1784668-0.1019897,0.3314819-0.6629639
		l7.2929688-29.1720581c0,0-1.223999-0.1019897-2.4989624-0.1019897h-1.1220093c0,0-1.632019,0-1.632019-0.9179688
		c0,0,0-0.6630249,0.3060303-1.0200195c0,0,0.3059692-0.3569946,0.5354614-0.40802c0,0,0.2295532-0.0509644,0.6375122-0.0509644
		c0,0,1.3259888,0,4.0289917,0.0764771c0,0,2.7030029,0.0765381,4.0290527,0.0765381c0,0,1.4789429,0,4.3859863-0.0765381
		c0,0,2.9069824-0.0764771,4.3859863-0.0764771c0,0,1.1729736,0,1.1729736,0.9179688c0,0,0,0.7140503-0.2804565,1.0455322
		c0,0-0.2805176,0.3314819-0.5610352,0.3825073c0,0-0.2804565,0.0509644-0.8924561,0.0509644h-1.8359985
		c0,0-1.3260498,0-2.3460083,0.1019897c0,0-0.9689941,0.0510254-1.1985474,0.1785278
		C570.7914429,641.6829834,570.5619507,641.8104858,570.4089966,642.37146z"/>
	<path class="st10" d="M593.7246094,663.6486206l-1.0709839,4.2483521c0,0,1.963501-1.0710449,4.1054688-1.0710449
		c0,0,2.5704346,0,4.2839966,1.3566284c0,0,1.713623,1.3565674,1.713623,4.1768799c0,0,0,3.8912964-2.9452515,6.8901367
		c0,0-2.9452515,2.9987793-7.6933594,2.9987793c0,0-2.5703735,0-3.927002-1.4815674c0,0-1.3565674-1.4815063-1.3565674-3.4807129
		c0,0,0-1.1067505,0.3212891-1.9099731c0,0,0.3212891-0.8032227,0.8389282-1.142395c0,0,0.5176392-0.3391724,0.9282227-0.4819336
		c0,0,0.4105225-0.1428223,0.8032227-0.1428223c0,0,0.7496948,0,1.3209229,0.446228c0,0,0.571167,0.4462891,0.571167,1.3387451
		c0,0,0,0.8925171-0.6604004,1.7671509c0,0-0.6604614,0.8746948-2.0170898,0.9817505c0,0,0.249939,1.2495117,1.1245728,1.9099731
		c0,0,0.8746338,0.6604614,2.0884399,0.6604614c0,0,0.6069336,0,1.2495117-0.1606445c0,0,0.6425781-0.1606445,1.6243286-0.8746338
		c0,0,0.9817505-0.7140503,1.5529785-1.963501c0,0,0.571167-1.2852173,1.2138062-3.9627075
		c0,0,0.6425781-2.6775513,0.6425781-3.6414185c0,0,0-0.7496948-0.4284058-1.3744507c0,0-0.4284058-0.6247559-1.4279785-0.6247559
		c0,0-2.6774902,0-4.819519,2.1063232c0,0-0.3927002,0.3927002-0.5176392,0.4640503c0,0-0.124939,0.0714111-0.4819336,0.0714111
		c0,0-0.8568115,0-0.8568115-0.6425781c0,0,0-0.0357056,0.1071167-0.571228l2.7131958-10.7813721
		c0,0,0.2141724-0.7139893,0.571167-0.7139893c0,0,0.1428223,0,0.571228,0.2141724c0,0,2.1776733,0.9282227,4.7481079,0.9282227
		c0,0,2.6060791,0,5.3549805-0.9996338c0,0,0.3569946-0.1427612,0.4998169-0.1427612c0,0,0.2498779,0,0.3927002,0.1606445
		c0,0,0.1427612,0.1606445,0.1427612,0.3391113c0,0,0,0.571228-1.0709839,1.4637451c0,0-3.7128296,3.3557739-7.9611206,3.3557739
		c0,0-0.4284058,0-0.9103394-0.0357056c0,0-0.4819336-0.0357056-0.7854004-0.0892334c0,0-0.3034668-0.0535278-0.3391724-0.0535278
		C593.9387817,663.1845703,593.8317261,663.1845703,593.7246094,663.6486206z"/>
	<path class="st10" d="M487.2489014,429.2389526c0,0,2.039978,0,3.9524841-1.2749939c0,0,1.9125061-1.2750244,2.9835205-3.6210022
		c0,0,0.9179993-1.9380188,1.759491-5.3805237c0,0,0.8414917-3.4424744,0.8414917-5.0234985c0,0,0-2.447998-1.2749939-3.4679871
		c0,0-1.2749939-1.019989-2.9580078-1.019989c0,0-2.0400085,0-3.9524841,1.2749939c0,0-1.9125061,1.2749939-2.9835205,3.6210022
		c0,0-0.9179993,1.9379883-1.759491,5.3804932c0,0-0.8414917,3.4425049-0.8414917,5.0234985c0,0,0,2.447998,1.2749939,3.4679871
		C484.2908936,428.2189331,485.5658875,429.2389526,487.2489014,429.2389526z M502.3449097,416.1829529
		c0,0,0,2.4989929-0.9945068,5.0489807c0,0-0.9945068,2.5500183-2.8050232,4.7940063c0,0-1.8104858,2.2440186-4.7939758,3.6465149
		c0,0-2.9835205,1.4024963-6.6045227,1.4024963c0,0-4.5390015,0-7.114502-2.2950134c0,0-2.5755005-2.2949829-2.5755005-6.2729797
		c0,0,0-2.447998,0.9945068-5.0234985c0,0,0.9945068-2.5755005,2.8049927-4.7940063c0,0,1.8105164-2.2185059,4.7940063-3.6465149
		c0,0,2.9835205-1.4279785,6.6045227-1.4279785c0,0,4.5389709,0,7.1144714,2.2949829
		C499.7693787,409.9099426,502.3449097,412.2049561,502.3449097,416.1829529"/>
	<path class="st10" d="M838.1650391,400.9895325l-2.7540283,11.321991c0,0-0.1529541,0.6119995-0.1529541,1.428009
		c0,0,0,2.4989929,2.6009521,2.4989929c0,0,1.8359985,0,3.7485352-1.5809937c0,0,1.9124756-1.5810242,2.8305054-4.5390015
		c0,0,0.2039795-0.5100098,0.4334717-0.6119995c0,0,0.2294922-0.1020203,1.0455322-0.1020203c0,0,1.4279785,0,1.4279785,0.7140198
		c0,0,0,0.7139893-0.6630249,1.963501c0,0-0.6629639,1.2494812-1.8104858,2.6264954c0,0-1.1474609,1.3769836-3.0855103,2.3714905
		c0,0-1.9379883,0.9945068-4.1820068,0.9945068c0,0-4.5390015,0-6.375-2.7030029c0,0-2.2949829,2.7030029-5.2019653,2.7030029
		c0,0-2.3460083,0-3.9525146-1.2495117c0,0-1.6065063-1.2494812-1.6065063-3.2384949c0,0,0-1.7340088,1.0964966-2.8559875
		c0,0,1.0964966-1.1220093,2.5755005-1.1220093c0,0,1.1730347,0,1.8615112,0.6885071c0,0,0.6884766,0.6884766,0.6884766,1.6575012
		c0,0,0,2.4989929-2.6009521,3.4679871c0,0,0.7649536,0.8160095,2.039978,0.8160095c0,0,2.8049927,0,4.0800171-5.1000061
		l1.631958-6.6300049c0,0,1.1220093-4.4880066,1.1220093-5.5589905c0,0,0-2.4989929-2.6009521-2.4989929
		c0,0-1.7850342,0-3.6975098,1.555481c0,0-1.9125366,1.5555115-2.8305054,4.5645142c0,0-0.2040405,0.5099792-0.4335327,0.6119995
		c0,0-0.2294922,0.1019897-1.0454712,0.1019897c0,0-1.4280396,0-1.4280396-0.7139893c0,0,0-0.7140198,0.6630249-1.963501
		c0,0,0.6630249-1.2495117,1.7850342-2.6264954c0,0,1.1219482-1.3770142,3.0854492-2.371521
		c0,0,1.963501-0.9944763,4.1564941-0.9944763c0,0,4.4880371,0,6.4260254,2.7029724c0,0,2.2949829-2.7029724,5.2020264-2.7029724
		c0,0,2.2949829,0,3.927002,1.2494812c0,0,1.631958,1.2495117,1.631958,3.2384949c0,0,0,1.7340088-1.0964966,2.8560181
		c0,0-1.0964966,1.1219788-2.5755005,1.1219788c0,0-1.1729736,0-1.8615112-0.6884766c0,0-0.6884766-0.6885071-0.6884766-1.6575012
		c0,0,0-2.4990234,2.6010132-3.4680176c0,0-0.81604-0.815979-2.0910034-0.815979c0,0-1.3770142,0-2.447998,1.4279785
		C839.644043,397.8785095,838.5730591,399.3065186,838.1650391,400.9895325z"/>
	<path class="st10" d="M510.1407776,48.3377686l-4.8959961,19.6860352c0,0-0.9690247,3.8759766-4.819519,6.9105225
		c0,0-3.8504944,3.0344849-8.4914856,3.0344849c0,0-2.8560181,0-4.6665039-1.223999c0,0-1.8105164-1.223999-1.8105164-3.2130127
		c0,0,0-1.632019,1.0710144-2.7540283c0,0,1.0710144-1.1219482,2.6010132-1.1219482c0,0,0.9179993,0,1.7084961,0.5354614
		c0,0,0.7904968,0.5355225,0.7904968,1.8105469c0,0,0,2.2949829-2.2950134,3.3659668c0,0,1.0710144,0.7650146,2.6520081,0.7650146
		c0,0,2.8049927,0,5.0490112-2.779541c0,0,2.243988-2.77948,3.0090027-6.5024414c0,0-1.8360291,1.223999-4.2840271,1.223999
		c0,0-3.4169922,0-5.4824829-1.555542c0,0-2.0654907-1.555481-2.0654907-4.8704834c0,0,0-1.3259888,0.5099792-3.3405151
		c0,0,0.5100098-2.0144653,0.943512-3.2130127c0,0,0.4335022-1.1984863,1.6065063-4.3604736
		c0,0,0.9179993-2.1420288,0.9179993-3.3660278c0,0,0-0.9179688-0.7140198-0.9179688c0,0-2.8049927,0-4.6919861,6.1710205
		c0,0-0.1530151,0.4589844-0.4079895,0.5609741c0,0-0.2550049,0.1019897-1.0200195,0.1019897c0,0-1.428009,0-1.428009-0.7139893
		c0,0,0-0.5100098,0.5100098-1.7084961c0,0,0.5100098-1.1984863,1.3770142-2.6519775c0,0,0.8670044-1.4535522,2.4734802-2.5245361
		c0,0,1.6065063-1.0709839,3.4425049-1.0709839c0,0,2.1929932,0,3.7740173,1.2495117c0,0,1.5809937,1.2494507,1.5809937,3.2894897
		c0,0,0,0.7650146-0.7140198,2.7539673c0,0-2.9579773,7.7520142-2.9579773,10.8120117c0,0,0,3.5189819,2.6519775,3.5189819
		c0,0,1.8359985,0,3.2130127-1.223999c0,0,1.5299988-1.2749634,1.8869934-2.6519775l3.6719971-14.5859985
		c0,0,0.3059998-1.223999,1.0964966-1.8870239c0,0,0.7905273-0.6629639,1.2495117-0.7649536
		c0,0,0.4590149-0.1019897,0.8670044-0.1019897c0,0,0.9179993,0,1.6065063,0.5609741c0,0,0.6885071,0.5609741,0.6885071,1.632019
		C510.3447876,47.2158203,510.3447876,47.5728149,510.1407776,48.3377686z"/>
	<path class="st10" d="M531.5610962,268.684021h-8.6939697c0,0-1.2150269,0-1.2150269-0.8099976
		c0,0,0-0.8370361,1.2150269-0.8370361h9.3959961c0,0-0.0809937-0.0809326-0.3104858-0.5129395
		c0,0-0.2294922-0.4320068-0.2294922-0.6750488c0,0,0-0.3239746,0.242981-0.5804443c0,0,0.242981-0.2565308,0.5939941-0.2565308
		c0,0,0.242981,0,0.4185181,0.1349487c0,0,0.1754761,0.1350098,0.2294922,0.2160645c0,0,0.0540161,0.0809326,0.1889648,0.3239746
		c0,0,0.3510132,0.7559814,1.4040527,1.3770142c0,0,0.6209717,0.242981,0.6209717,0.78302c0,0,0,0.2699585-0.1484985,0.4454346
		c0,0-0.1484985,0.1755371-0.2700195,0.243042c0,0-0.12146,0.0675049-0.4454956,0.2025146
		c0,0-1.1610107,0.5129395-2.2409668,1.5119629c0,0-0.4590454,0.4589844-0.78302,0.4589844c0,0-0.3239746,0-0.5670166-0.242981
		c0,0-0.242981-0.242981-0.242981-0.5669556c0,0,0-0.3510742,0.3239746-0.6750488l0.1350098-0.1619873
		C531.1831055,269.0620117,531.3181152,268.9000244,531.5610962,268.684021z"/>
	<path class="st10" d="M524.8818359,282.5258179l-1.80896,7.1820068c0,0,0.539978,0.1080017,1.7009888,0.1080017h0.8909912
		c0,0,0.8909912,0,0.8909912,0.4859924c0,0,0,0.78302-0.8099976,0.78302c0,0-0.3779907,0-1.147522-0.0270081
		c0,0-0.7694702-0.0270081-1.1744995-0.0270081c0,0-0.4049683,0-1.2149658-0.0134888c0,0-0.8099976-0.0135193-1.2150269-0.0135193
		c0,0-0.3779907,0-1.1069946,0.0135193c0,0-0.7290039,0.0134888-1.0800171,0.0134888c0,0-0.3509521,0-1.026001,0.0270081
		c0,0-0.6749878,0.0270081-1.026001,0.0270081c0,0-0.5939941,0-0.5939941-0.4860229c0,0,0-0.539978,0.3240356-0.7290039
		c0,0,0.1079712-0.0539856,0.8640137-0.0539856c0,0,0.9719849,0,1.4309692-0.0270081c0,0,0.3510132-0.0270081,0.4454956-0.1080017
		c0,0,0.0944824-0.0809937,0.1754761-0.4049988l3.8070068-15.2279968c0,0-1.1339722-0.0539856-1.6469727-0.0539856
		c0,0-0.4589844,0-0.6345215-0.0135193c0,0-0.1754761-0.0134888-0.3239746-0.1214905c0,0-0.1484985-0.1080017-0.1484985-0.3510132
		c0,0,0-0.4859924,0.242981-0.6479492c0,0,0.1619873-0.1350098,0.7290039-0.1350098h14.526001c0,0,0.8909912,0,0.8909912,0.4859619
		l-0.0269775,0.4320068l-0.4860229,4.8330078c0,0-0.0269775,0.2969971-0.0675049,0.4184875
		c0,0-0.0404663,0.121521-0.1754761,0.2294922c0,0-0.1350098,0.1080017-0.4050293,0.1080017c0,0-0.6479492,0-0.6479492-0.5130005
		l0.0539551-0.5939941c0,0,0.0540161-0.5939941,0.0540161-0.9719849c0,0,0-1.7820129-0.8640137-2.47052
		c0,0-0.8640137-0.6884766-3.1589966-0.6884766h-3.2130127c0,0-0.5669556,0-0.9179688,0.0539856l-1.7819824,7.2090149h1.5119629
		c0,0,1.5120239,0,2.2275391-0.4860229c0,0,0.7154541-0.4859924,1.0934448-1.9709778c0,0,0.1080322-0.4320068,0.2295532-0.5670166
		c0,0,0.12146-0.1350098,0.4724731-0.1350098c0,0,0.6480103,0,0.6480103,0.4860229c0,0,0,0.0809937-0.1080322,0.4320068
		l-1.5119629,6.0209961c0,0-0.0809937,0.2969971-0.121521,0.3914795c0,0-0.0404663,0.0945129-0.1754761,0.1755066
		c0,0-0.1350098,0.0809937-0.3779907,0.0809937c0,0-0.6210327,0-0.6210327-0.4859924c0,0,0-0.1080017,0.0809937-0.3779907
		c0,0,0.1619873-0.6480103,0.1619873-1.1340027c0,0,0-0.6750183-0.4319458-0.9179993c0,0-0.4320068-0.2430115-1.6470337-0.2430115
		H524.8818359z"/>
</g>
</svg>
