<?xml version="1.0" encoding="UTF-8"?>
<svg xmlns="http://www.w3.org/2000/svg" xmlns:xlink="http://www.w3.org/1999/xlink" width="505.98pt" height="463.02pt" viewBox="0 0 505.98 463.02" version="1.1">
<g id="surface1">
<path style="fill:none;stroke-width:15;stroke-linecap:round;stroke-linejoin:round;stroke:rgb(0%,0%,94.099426%);stroke-opacity:1;stroke-miterlimit:10;" d="M 1991.685535 1159.172562 C 1991.685535 699.385098 1618.959754 326.671769 1159.180505 326.671769 C 699.401256 326.671769 326.675475 699.385098 326.675475 1159.172562 C 326.675475 1618.940447 699.401256 1991.673356 1159.180505 1991.673356 C 1618.959754 1991.673356 1991.685535 1618.940447 1991.685535 1159.172562 Z M 1991.685535 1159.172562 " transform="matrix(0.19968,0,0,-0.199498,0,465.2445)"/>
<path style=" stroke:none;fill-rule:nonzero;fill:rgb(0%,0%,94.099426%);fill-opacity:1;" d="M 64.070312 219.386719 L 55.085938 249.3125 L 62.574219 243.328125 L 65.570312 243.328125 L 73.058594 249.3125 Z M 64.070312 219.386719 "/>
<path style=" stroke:none;fill-rule:nonzero;fill:rgb(0%,0%,94.099426%);fill-opacity:1;" d="M 397.207031 247.3125 L 406.195312 217.386719 L 398.707031 223.371094 L 395.710938 223.371094 L 388.222656 217.386719 Z M 397.207031 247.3125 "/>
<path style="fill:none;stroke-width:15;stroke-linecap:round;stroke-linejoin:round;stroke:rgb(0%,0%,0%);stroke-opacity:1;stroke-miterlimit:10;" d="M 2180.483967 1159.172562 C 2180.483967 595.119352 1723.22829 137.857761 1159.180505 137.857761 C 595.113157 137.857761 137.857481 595.119352 137.857481 1159.172562 C 137.857481 1723.225773 595.113157 2180.487364 1159.180505 2180.487364 C 1723.22829 2180.487364 2180.483967 1723.225773 2180.483967 1159.172562 Z M 2180.483967 1159.172562 " transform="matrix(0.19968,0,0,-0.199498,0,465.2445)"/>
<path style=" stroke:none;fill-rule:nonzero;fill:rgb(0%,0%,0%);fill-opacity:1;" d="M 26.105469 216.074219 L 17.121094 246 L 24.605469 240.011719 L 27.601562 240.011719 L 35.089844 246 Z M 26.105469 216.074219 "/>
<path style=" stroke:none;fill-rule:nonzero;fill:rgb(0%,0%,0%);fill-opacity:1;" d="M 434.800781 250.332031 L 443.789062 220.40625 L 436.300781 226.390625 L 433.304688 226.390625 L 425.816406 220.40625 Z M 434.800781 250.332031 "/>
<path style=" stroke:none;fill-rule:evenodd;fill:rgb(0%,0%,0%);fill-opacity:1;" d="M 479.863281 215.121094 C 479.824219 215.292969 479.730469 215.4375 479.589844 215.554688 C 479.449219 215.667969 479.277344 215.730469 479.074219 215.730469 C 478.441406 215.730469 477.824219 215.746094 477.21875 215.769531 C 476.613281 215.796875 476.175781 215.867188 475.90625 215.984375 C 475.625 216.074219 475.414062 216.414062 475.28125 217 L 469.605469 239.066406 C 469.554688 239.316406 469.527344 239.53125 469.527344 239.714844 C 469.527344 239.898438 469.5625 240.007812 469.628906 240.046875 C 469.816406 240.164062 470.207031 240.234375 470.800781 240.253906 C 471.390625 240.273438 472.015625 240.28125 472.675781 240.28125 C 473.050781 240.28125 473.242188 240.4375 473.242188 240.75 C 473.242188 240.832031 473.226562 240.914062 473.199219 241.003906 L 473.121094 241.320312 C 472.972656 241.710938 472.714844 241.90625 472.351562 241.90625 C 470.617188 241.828125 468.859375 241.789062 467.085938 241.789062 C 465.320312 241.789062 463.53125 241.828125 461.714844 241.90625 C 461.367188 241.90625 461.191406 241.738281 461.191406 241.398438 L 461.191406 241.242188 L 461.269531 240.90625 C 461.378906 240.476562 461.640625 240.269531 462.058594 240.28125 C 462.71875 240.28125 463.351562 240.273438 463.957031 240.253906 C 464.5625 240.234375 464.996094 240.164062 465.269531 240.046875 C 465.511719 239.917969 465.707031 239.5625 465.851562 238.988281 L 471.566406 216.921875 C 471.621094 216.675781 471.648438 216.480469 471.648438 216.335938 C 471.648438 216.140625 471.613281 216.015625 471.546875 215.964844 C 471.332031 215.859375 470.925781 215.796875 470.335938 215.769531 C 469.742188 215.746094 469.128906 215.730469 468.496094 215.730469 C 468.121094 215.730469 467.933594 215.554688 467.933594 215.199219 L 467.933594 215.0625 L 468.011719 214.710938 C 468.160156 214.320312 468.417969 214.125 468.777344 214.121094 C 470.542969 214.175781 472.3125 214.199219 474.089844 214.199219 C 475.878906 214.199219 477.65625 214.175781 479.417969 214.121094 C 479.605469 214.125 479.765625 214.1875 479.902344 214.320312 C 479.957031 214.425781 479.984375 214.519531 479.984375 214.613281 C 479.984375 214.691406 479.964844 214.761719 479.921875 214.828125 Z M 479.863281 215.121094 "/>
<path style=" stroke:none;fill-rule:evenodd;fill:rgb(0%,0%,0%);fill-opacity:1;" d="M 362.019531 217.523438 C 361.980469 217.695312 361.890625 217.839844 361.746094 217.957031 C 361.605469 218.074219 361.433594 218.132812 361.230469 218.128906 C 360.597656 218.132812 359.980469 218.144531 359.375 218.171875 C 358.769531 218.195312 358.332031 218.269531 358.0625 218.382812 C 357.78125 218.476562 357.570312 218.816406 357.4375 219.402344 L 351.765625 241.46875 C 351.710938 241.71875 351.683594 241.933594 351.683594 242.117188 C 351.683594 242.300781 351.71875 242.410156 351.785156 242.449219 C 351.972656 242.566406 352.363281 242.636719 352.957031 242.65625 C 353.550781 242.675781 354.171875 242.683594 354.832031 242.683594 C 355.210938 242.683594 355.398438 242.839844 355.398438 243.152344 C 355.398438 243.234375 355.386719 243.316406 355.359375 243.40625 L 355.277344 243.722656 C 355.128906 244.113281 354.875 244.308594 354.507812 244.308594 C 352.773438 244.230469 351.015625 244.191406 349.242188 244.191406 C 347.480469 244.191406 345.6875 244.230469 343.871094 244.308594 C 343.523438 244.308594 343.347656 244.140625 343.347656 243.800781 L 343.347656 243.644531 L 343.429688 243.308594 C 343.535156 242.878906 343.800781 242.671875 344.214844 242.683594 C 344.875 242.683594 345.507812 242.675781 346.113281 242.65625 C 346.71875 242.636719 347.15625 242.566406 347.425781 242.449219 C 347.667969 242.320312 347.863281 241.964844 348.011719 241.390625 L 353.722656 219.324219 C 353.777344 219.078125 353.804688 218.882812 353.804688 218.738281 C 353.804688 218.542969 353.769531 218.421875 353.703125 218.363281 C 353.488281 218.265625 353.085938 218.195312 352.492188 218.171875 C 351.898438 218.144531 351.285156 218.132812 350.65625 218.128906 C 350.277344 218.132812 350.089844 217.957031 350.089844 217.601562 L 350.089844 217.46875 L 350.167969 217.113281 C 350.316406 216.722656 350.574219 216.523438 350.9375 216.523438 C 352.699219 216.578125 354.46875 216.605469 356.246094 216.605469 C 358.035156 216.605469 359.8125 216.578125 361.574219 216.523438 C 361.761719 216.523438 361.925781 216.59375 362.058594 216.722656 C 362.113281 216.824219 362.140625 216.925781 362.140625 217.015625 C 362.140625 217.097656 362.121094 217.167969 362.078125 217.230469 Z M 362.019531 217.523438 "/>
<path style=" stroke:none;fill-rule:evenodd;fill:rgb(0%,0%,0%);fill-opacity:1;" d="M 370.886719 242.386719 C 370.808594 242.671875 370.644531 242.890625 370.390625 243.039062 C 370.140625 243.191406 369.890625 243.265625 369.644531 243.261719 C 369.394531 243.265625 369.191406 243.183594 369.039062 243.023438 C 368.910156 242.914062 368.84375 242.769531 368.835938 242.582031 C 368.835938 242.503906 368.84375 242.421875 368.859375 242.34375 C 368.9375 242.085938 369.082031 241.890625 369.296875 241.75 C 369.511719 241.613281 369.6875 241.53125 369.824219 241.507812 C 369.765625 241.28125 369.566406 241.078125 369.226562 240.890625 C 368.890625 240.703125 368.484375 240.609375 368.011719 240.609375 C 367.726562 240.609375 367.453125 240.636719 367.191406 240.691406 C 366.929688 240.746094 366.683594 240.855469 366.457031 241.015625 C 366.246094 241.15625 366.074219 241.324219 365.9375 241.527344 C 365.800781 241.726562 365.707031 241.941406 365.644531 242.167969 C 365.597656 242.292969 365.570312 242.417969 365.570312 242.539062 C 365.570312 242.746094 365.636719 242.9375 365.773438 243.121094 C 365.964844 243.390625 366.261719 243.558594 366.660156 243.625 L 367.925781 243.867188 C 368.339844 243.949219 368.710938 244.085938 369.046875 244.285156 C 369.378906 244.480469 369.648438 244.71875 369.855469 244.996094 C 370.0625 245.273438 370.207031 245.589844 370.292969 245.9375 C 370.308594 246.078125 370.316406 246.210938 370.316406 246.332031 C 370.316406 246.566406 370.277344 246.8125 370.203125 247.070312 C 370.058594 247.492188 369.847656 247.917969 369.570312 248.339844 C 369.292969 248.765625 368.914062 249.128906 368.441406 249.4375 C 367.929688 249.757812 367.394531 249.976562 366.835938 250.09375 C 366.28125 250.210938 365.742188 250.269531 365.226562 250.269531 C 364.714844 250.269531 364.234375 250.207031 363.792969 250.082031 C 363.347656 249.960938 362.960938 249.777344 362.632812 249.53125 C 362.304688 249.285156 362.082031 248.988281 361.960938 248.636719 C 361.886719 248.460938 361.84375 248.273438 361.835938 248.066406 C 361.835938 247.878906 361.867188 247.675781 361.925781 247.464844 C 362.019531 247.132812 362.207031 246.886719 362.488281 246.722656 C 362.769531 246.558594 363.054688 246.476562 363.34375 246.476562 C 363.636719 246.476562 363.890625 246.5625 364.101562 246.726562 C 364.246094 246.851562 364.320312 247.015625 364.328125 247.210938 C 364.328125 247.3125 364.308594 247.417969 364.265625 247.519531 C 364.171875 247.839844 363.984375 248.082031 363.703125 248.246094 C 363.421875 248.414062 363.191406 248.496094 363.011719 248.503906 C 363.105469 248.777344 363.371094 249.015625 363.808594 249.230469 C 364.25 249.441406 364.769531 249.546875 365.367188 249.546875 C 365.738281 249.546875 366.105469 249.511719 366.460938 249.441406 C 366.820312 249.375 367.148438 249.238281 367.441406 249.03125 C 367.730469 248.855469 367.964844 248.644531 368.144531 248.394531 C 368.328125 248.148438 368.457031 247.878906 368.53125 247.582031 C 368.582031 247.453125 368.609375 247.3125 368.609375 247.167969 C 368.609375 246.890625 368.511719 246.640625 368.316406 246.421875 C 368.039062 246.101562 367.640625 245.886719 367.125 245.773438 L 365.859375 245.523438 C 365.117188 245.382812 364.570312 245.050781 364.214844 244.523438 C 363.980469 244.195312 363.859375 243.828125 363.859375 243.417969 C 363.859375 243.183594 363.894531 242.945312 363.960938 242.703125 C 364.070312 242.332031 364.246094 241.960938 364.488281 241.585938 C 364.726562 241.214844 365.054688 240.890625 365.460938 240.609375 C 365.871094 240.332031 366.316406 240.140625 366.792969 240.035156 C 367.269531 239.929688 367.726562 239.875 368.164062 239.875 C 368.59375 239.875 369 239.933594 369.375 240.050781 C 369.75 240.167969 370.070312 240.339844 370.335938 240.5625 C 370.601562 240.785156 370.792969 241.046875 370.910156 241.34375 C 370.945312 241.507812 370.960938 241.667969 370.960938 241.828125 C 370.960938 242.003906 370.9375 242.191406 370.886719 242.386719 Z M 370.886719 242.386719 "/>
</g>
</svg>
