<?xml version="1.0" encoding="UTF-8"?>
<svg xmlns="http://www.w3.org/2000/svg" xmlns:xlink="http://www.w3.org/1999/xlink" width="289.98pt" height="289.98pt" viewBox="0 0 289.98 289.98" version="1.1">
<g id="surface1">
<path style="fill:none;stroke-width:15;stroke-linecap:round;stroke-linejoin:round;stroke:rgb(0%,0%,0%);stroke-opacity:1;stroke-miterlimit:10;" d="M 2065.329416 1091.006626 C 2065.329416 552.879996 1629.120263 116.670843 1091.023055 116.670843 C 552.896425 116.670843 116.657851 552.879996 116.657851 1091.006626 C 116.657851 1629.103833 552.896425 2065.342408 1091.023055 2065.342408 C 1629.120263 2065.342408 2065.329416 1629.103833 2065.329416 1091.006626 Z M 2065.329416 1091.006626 " transform="matrix(0.132767,0,0,-0.132767,0,293.0486)"/>
<path style="fill:none;stroke-width:11.25;stroke-linecap:round;stroke-linejoin:round;stroke:rgb(0%,0%,0%);stroke-opacity:1;stroke-miterlimit:10;" d="M 1070.515988 1762.944076 C 1070.515988 1670.735828 995.754929 1595.974769 903.546681 1595.974769 C 811.338433 1595.974769 736.577374 1670.735828 736.577374 1762.944076 C 736.577374 1855.152324 811.338433 1929.913383 903.546681 1929.913383 C 995.754929 1929.913383 1070.515988 1855.152324 1070.515988 1762.944076 Z M 1070.515988 1762.944076 " transform="matrix(0.132767,0,0,-0.132767,0,293.0486)"/>
<path style=" stroke:none;fill-rule:nonzero;fill:rgb(0%,0%,0%);fill-opacity:1;" d="M 129.3125 38.875 L 121.441406 33.652344 L 122.585938 36.285156 L 122.195312 37.726562 L 119.882812 39.421875 Z M 129.3125 38.875 "/>
<path style=" stroke:none;fill-rule:nonzero;fill:rgb(0%,0%,0%);fill-opacity:1;" d="M 109.363281 78.953125 L 117.238281 84.171875 L 116.089844 81.542969 L 116.480469 80.097656 L 118.792969 78.402344 Z M 109.363281 78.953125 "/>
<path style="fill:none;stroke-width:11.25;stroke-linecap:round;stroke-linejoin:round;stroke:rgb(0%,0%,0%);stroke-opacity:1;stroke-miterlimit:10;" d="M 1508.166814 1762.944076 C 1508.166814 1670.735828 1433.435177 1595.974769 1341.226929 1595.974769 C 1249.018681 1595.974769 1174.257622 1670.735828 1174.257622 1762.944076 C 1174.257622 1855.152324 1249.018681 1929.913383 1341.226929 1929.913383 C 1433.435177 1929.913383 1508.166814 1855.152324 1508.166814 1762.944076 Z M 1508.166814 1762.944076 " transform="matrix(0.132767,0,0,-0.132767,0,293.0486)"/>
<path style=" stroke:none;fill-rule:nonzero;fill:rgb(0%,0%,0%);fill-opacity:1;" d="M 176.109375 36.890625 L 166.683594 36.308594 L 168.992188 38.011719 L 169.375 39.457031 L 168.21875 42.082031 Z M 176.109375 36.890625 "/>
<path style=" stroke:none;fill-rule:nonzero;fill:rgb(0%,0%,0%);fill-opacity:1;" d="M 178.875 81.578125 L 188.304688 82.160156 L 185.996094 80.453125 L 185.609375 79.011719 L 186.765625 76.386719 Z M 178.875 81.578125 "/>
<path style="fill:none;stroke-width:11.25;stroke-linecap:round;stroke-linejoin:round;stroke:rgb(0%,0%,0%);stroke-opacity:1;stroke-miterlimit:10;" d="M 700.623807 1518.859958 C 700.623807 1426.65171 625.862748 1351.890651 533.6545 1351.890651 C 441.446252 1351.890651 366.714615 1426.65171 366.714615 1518.859958 C 366.714615 1611.068206 441.446252 1685.829265 533.6545 1685.829265 C 625.862748 1685.829265 700.623807 1611.068206 700.623807 1518.859958 Z M 700.623807 1518.859958 " transform="matrix(0.132767,0,0,-0.132767,0,293.0486)"/>
<path style=" stroke:none;fill-rule:nonzero;fill:rgb(0%,0%,0%);fill-opacity:1;" d="M 48.753906 93.351562 L 48.171875 102.78125 L 49.875 100.472656 L 51.320312 100.089844 L 53.945312 101.246094 Z M 48.753906 93.351562 "/>
<path style=" stroke:none;fill-rule:nonzero;fill:rgb(0%,0%,0%);fill-opacity:1;" d="M 93.441406 90.589844 L 94.023438 81.164062 L 92.316406 83.46875 L 90.875 83.851562 L 88.25 82.699219 Z M 93.441406 90.589844 "/>
<path style="fill:none;stroke-width:11.25;stroke-linecap:round;stroke-linejoin:round;stroke:rgb(0%,0%,0%);stroke-opacity:1;stroke-miterlimit:10;" d="M 1149.631488 1339.50403 C 1149.631488 1247.26636 1074.87043 1172.534723 982.662182 1172.534723 C 890.453933 1172.534723 815.692875 1247.26636 815.692875 1339.50403 C 815.692875 1431.712278 890.453933 1506.473336 982.662182 1506.473336 C 1074.87043 1506.473336 1149.631488 1431.712278 1149.631488 1339.50403 Z M 1149.631488 1339.50403 " transform="matrix(0.132767,0,0,-0.132767,0,293.0486)"/>
<path style=" stroke:none;fill-rule:nonzero;fill:rgb(0%,0%,0%);fill-opacity:1;" d="M 108.613281 111.378906 L 105.609375 120.335938 L 107.851562 118.546875 L 109.347656 118.550781 L 111.582031 120.347656 Z M 108.613281 111.378906 "/>
<path style=" stroke:none;fill-rule:nonzero;fill:rgb(0%,0%,0%);fill-opacity:1;" d="M 152.492188 120.277344 L 155.492188 111.320312 L 153.25 113.109375 L 151.757812 113.105469 L 149.519531 111.308594 Z M 152.492188 120.277344 "/>
<path style="fill:none;stroke-width:11.25;stroke-linecap:round;stroke-linejoin:round;stroke:rgb(0%,0%,0%);stroke-opacity:1;stroke-miterlimit:10;" d="M 1862.700761 1518.859958 C 1862.700761 1426.65171 1787.939702 1351.890651 1695.731454 1351.890651 C 1603.523206 1351.890651 1528.762147 1426.65171 1528.762147 1518.859958 C 1528.762147 1611.068206 1603.523206 1685.829265 1695.731454 1685.829265 C 1787.939702 1685.829265 1862.700761 1611.068206 1862.700761 1518.859958 Z M 1862.700761 1518.859958 " transform="matrix(0.132767,0,0,-0.132767,0,293.0486)"/>
<path style=" stroke:none;fill-rule:nonzero;fill:rgb(0%,0%,0%);fill-opacity:1;" d="M 203.039062 93.351562 L 202.457031 102.78125 L 204.160156 100.472656 L 205.605469 100.089844 L 208.230469 101.246094 Z M 203.039062 93.351562 "/>
<path style=" stroke:none;fill-rule:nonzero;fill:rgb(0%,0%,0%);fill-opacity:1;" d="M 247.722656 90.589844 L 248.308594 81.164062 L 246.601562 83.46875 L 245.160156 83.851562 L 242.53125 82.699219 Z M 247.722656 90.589844 "/>
<path style="fill:none;stroke-width:11.25;stroke-linecap:round;stroke-linejoin:round;stroke:rgb(0%,0%,0%);stroke-opacity:1;stroke-miterlimit:10;" d="M 574.609791 1165.120403 C 574.609791 1072.912155 499.878154 998.151096 407.669906 998.151096 C 315.461658 998.151096 240.700599 1072.912155 240.700599 1165.120403 C 240.700599 1257.328651 315.461658 1332.060288 407.669906 1332.060288 C 499.878154 1332.060288 574.609791 1257.328651 574.609791 1165.120403 Z M 574.609791 1165.120403 " transform="matrix(0.132767,0,0,-0.132767,0,293.0486)"/>
<path style=" stroke:none;fill-rule:nonzero;fill:rgb(0%,0%,0%);fill-opacity:1;" d="M 32.023438 136.453125 L 29.808594 145.636719 L 31.890625 143.660156 L 33.378906 143.53125 L 35.761719 145.125 Z M 32.023438 136.453125 "/>
<path style=" stroke:none;fill-rule:nonzero;fill:rgb(0%,0%,0%);fill-opacity:1;" d="M 76.507812 141.492188 L 78.71875 132.304688 L 76.640625 134.285156 L 75.152344 134.410156 L 72.765625 132.816406 Z M 76.507812 141.492188 "/>
<path style="fill:none;stroke-width:11.25;stroke-linecap:round;stroke-linejoin:round;stroke:rgb(0%,0%,0%);stroke-opacity:1;stroke-miterlimit:10;" d="M 1032.914794 936.1003 C 1032.914794 843.892052 958.153735 769.130993 865.945487 769.130993 C 773.737239 769.130993 698.97618 843.892052 698.97618 936.1003 C 698.97618 1028.308548 773.737239 1103.040185 865.945487 1103.040185 C 958.153735 1103.040185 1032.914794 1028.308548 1032.914794 936.1003 Z M 1032.914794 936.1003 " transform="matrix(0.132767,0,0,-0.132767,0,293.0486)"/>
<path style=" stroke:none;fill-rule:nonzero;fill:rgb(0%,0%,0%);fill-opacity:1;" d="M 124.320312 148.652344 L 116.449219 143.429688 L 117.59375 146.0625 L 117.207031 147.503906 L 114.890625 149.199219 Z M 124.320312 148.652344 "/>
<path style=" stroke:none;fill-rule:nonzero;fill:rgb(0%,0%,0%);fill-opacity:1;" d="M 104.371094 188.730469 L 112.246094 193.949219 L 111.097656 191.320312 L 111.488281 189.875 L 113.800781 188.179688 Z M 104.371094 188.730469 "/>
<path style="fill:none;stroke-width:11.25;stroke-linecap:round;stroke-linejoin:round;stroke:rgb(0%,0%,0%);stroke-opacity:1;stroke-miterlimit:10;" d="M 1573.571707 1274.77584 C 1573.571707 1182.567592 1498.84007 1107.806533 1406.631822 1107.806533 C 1314.423574 1107.806533 1239.662516 1182.567592 1239.662516 1274.77584 C 1239.662516 1366.984088 1314.423574 1441.715725 1406.631822 1441.715725 C 1498.84007 1441.715725 1573.571707 1366.984088 1573.571707 1274.77584 Z M 1573.571707 1274.77584 " transform="matrix(0.132767,0,0,-0.132767,0,293.0486)"/>
<path style=" stroke:none;fill-rule:nonzero;fill:rgb(0%,0%,0%);fill-opacity:1;" d="M 201.863281 107.558594 L 195.988281 100.164062 L 196.265625 103.019531 L 195.453125 104.269531 L 192.726562 105.167969 Z M 201.863281 107.558594 "/>
<path style=" stroke:none;fill-rule:nonzero;fill:rgb(0%,0%,0%);fill-opacity:1;" d="M 170.503906 139.511719 L 176.382812 146.910156 L 176.101562 144.054688 L 176.917969 142.804688 L 179.644531 141.90625 Z M 170.503906 139.511719 "/>
<path style="fill:none;stroke-width:11.25;stroke-linecap:round;stroke-linejoin:round;stroke:rgb(0%,0%,0%);stroke-opacity:1;stroke-miterlimit:10;" d="M 1928.105654 1093.831129 C 1928.105654 1001.622881 1853.344595 926.861822 1761.136347 926.861822 C 1668.928099 926.861822 1594.16704 1001.622881 1594.16704 1093.831129 C 1594.16704 1186.039377 1668.928099 1260.800436 1761.136347 1260.800436 C 1853.344595 1260.800436 1928.105654 1186.039377 1928.105654 1093.831129 Z M 1928.105654 1093.831129 " transform="matrix(0.132767,0,0,-0.132767,0,293.0486)"/>
<path style=" stroke:none;fill-rule:nonzero;fill:rgb(0%,0%,0%);fill-opacity:1;" d="M 250.191406 162.792969 L 257.539062 156.855469 L 254.683594 157.15625 L 253.429688 156.351562 L 252.503906 153.632812 Z M 250.191406 162.792969 "/>
<path style=" stroke:none;fill-rule:nonzero;fill:rgb(0%,0%,0%);fill-opacity:1;" d="M 217.96875 131.714844 L 210.621094 137.65625 L 213.476562 137.351562 L 214.734375 138.15625 L 215.65625 140.875 Z M 217.96875 131.714844 "/>
<path style="fill:none;stroke-width:11.25;stroke-linecap:round;stroke-linejoin:round;stroke:rgb(0%,0%,0%);stroke-opacity:1;stroke-miterlimit:10;" d="M 1458.855703 855.45486 C 1458.855703 763.246612 1384.124066 688.485553 1291.886396 688.485553 C 1199.678148 688.485553 1124.946511 763.246612 1124.946511 855.45486 C 1124.946511 947.663108 1199.678148 1022.424167 1291.886396 1022.424167 C 1384.124066 1022.424167 1458.855703 947.663108 1458.855703 855.45486 Z M 1458.855703 855.45486 " transform="matrix(0.132767,0,0,-0.132767,0,293.0486)"/>
<path style=" stroke:none;fill-rule:nonzero;fill:rgb(0%,0%,0%);fill-opacity:1;" d="M 176.347656 201.125 L 185.769531 200.472656 L 183.261719 199.085938 L 182.691406 197.703125 L 183.496094 194.949219 Z M 176.347656 201.125 "/>
<path style=" stroke:none;fill-rule:nonzero;fill:rgb(0%,0%,0%);fill-opacity:1;" d="M 167.777344 157.183594 L 158.351562 157.835938 L 160.863281 159.226562 L 161.429688 160.605469 L 160.628906 163.359375 Z M 167.777344 157.183594 "/>
<path style="fill:none;stroke-width:11.25;stroke-linecap:round;stroke-linejoin:round;stroke:rgb(0%,0%,0%);stroke-opacity:1;stroke-miterlimit:10;" d="M 635.218914 749.712536 C 635.218914 657.504288 560.457855 582.743229 468.249607 582.743229 C 376.041359 582.743229 301.309722 657.504288 301.309722 749.712536 C 301.309722 841.920784 376.041359 916.652421 468.249607 916.652421 C 560.457855 916.652421 635.218914 841.920784 635.218914 749.712536 Z M 635.218914 749.712536 " transform="matrix(0.132767,0,0,-0.132767,0,293.0486)"/>
<path style=" stroke:none;fill-rule:nonzero;fill:rgb(0%,0%,0%);fill-opacity:1;" d="M 50.820312 174.449219 L 42.074219 178.015625 L 44.890625 178.550781 L 45.863281 179.683594 L 45.960938 182.550781 Z M 50.820312 174.449219 "/>
<path style=" stroke:none;fill-rule:nonzero;fill:rgb(0%,0%,0%);fill-opacity:1;" d="M 72.691406 213.515625 L 81.4375 209.953125 L 78.621094 209.417969 L 77.648438 208.285156 L 77.550781 205.417969 Z M 72.691406 213.515625 "/>
<path style="fill:none;stroke-width:11.25;stroke-linecap:round;stroke-linejoin:round;stroke:rgb(0%,0%,0%);stroke-opacity:1;stroke-miterlimit:10;" d="M 955.799983 455.316962 C 955.799983 363.108714 881.038924 288.347655 788.830676 288.347655 C 696.622428 288.347655 621.861369 363.108714 621.861369 455.316962 C 621.861369 547.52521 696.622428 622.286269 788.830676 622.286269 C 881.038924 622.286269 955.799983 547.52521 955.799983 455.316962 Z M 955.799983 455.316962 " transform="matrix(0.132767,0,0,-0.132767,0,293.0486)"/>
<path style=" stroke:none;fill-rule:nonzero;fill:rgb(0%,0%,0%);fill-opacity:1;" d="M 99.535156 254.164062 L 108.289062 257.726562 L 106.644531 255.375 L 106.742188 253.882812 L 108.671875 251.761719 Z M 99.535156 254.164062 "/>
<path style=" stroke:none;fill-rule:nonzero;fill:rgb(0%,0%,0%);fill-opacity:1;" d="M 111.171875 210.933594 L 102.421875 207.375 L 104.066406 209.726562 L 103.96875 211.214844 L 102.035156 213.335938 Z M 111.171875 210.933594 "/>
<path style="fill:none;stroke-width:11.25;stroke-linecap:round;stroke-linejoin:round;stroke:rgb(0%,0%,0%);stroke-opacity:1;stroke-miterlimit:10;" d="M 1401.159348 409.830698 C 1401.159348 317.62245 1326.427711 242.861391 1234.219463 242.861391 C 1142.011215 242.861391 1067.250156 317.62245 1067.250156 409.830698 C 1067.250156 502.038946 1142.011215 576.800004 1234.219463 576.800004 C 1326.427711 576.800004 1401.159348 502.038946 1401.159348 409.830698 Z M 1401.159348 409.830698 " transform="matrix(0.132767,0,0,-0.132767,0,293.0486)"/>
<path style=" stroke:none;fill-rule:nonzero;fill:rgb(0%,0%,0%);fill-opacity:1;" d="M 185.484375 243.605469 L 188.949219 234.816406 L 186.617188 236.484375 L 185.125 236.402344 L 182.984375 234.492188 Z M 185.484375 243.605469 "/>
<path style=" stroke:none;fill-rule:nonzero;fill:rgb(0%,0%,0%);fill-opacity:1;" d="M 142.132812 232.421875 L 138.664062 241.210938 L 141 239.539062 L 142.488281 239.621094 L 144.628906 241.53125 Z M 142.132812 232.421875 "/>
<path style="fill:none;stroke-width:11.25;stroke-linecap:round;stroke-linejoin:round;stroke:rgb(0%,0%,0%);stroke-opacity:1;stroke-miterlimit:10;" d="M 1813.389649 634.967109 C 1813.389649 542.758861 1738.62859 468.027224 1646.420342 468.027224 C 1554.212094 468.027224 1479.451036 542.758861 1479.451036 634.967109 C 1479.451036 727.175357 1554.212094 801.936416 1646.420342 801.936416 C 1738.62859 801.936416 1813.389649 727.175357 1813.389649 634.967109 Z M 1813.389649 634.967109 " transform="matrix(0.132767,0,0,-0.132767,0,293.0486)"/>
<path style=" stroke:none;fill-rule:nonzero;fill:rgb(0%,0%,0%);fill-opacity:1;" d="M 203.726562 192.273438 L 195.84375 197.484375 L 198.714844 197.457031 L 199.890625 198.378906 L 200.546875 201.171875 Z M 203.726562 192.273438 "/>
<path style=" stroke:none;fill-rule:nonzero;fill:rgb(0%,0%,0%);fill-opacity:1;" d="M 232.824219 226.296875 L 240.707031 221.089844 L 237.835938 221.117188 L 236.660156 220.195312 L 236.003906 217.402344 Z M 232.824219 226.296875 "/>
</g>
</svg>
