<?xml version="1.0" encoding="utf-8"?>
<!-- Generator: Adobe Illustrator 19.0.0, SVG Export Plug-In . SVG Version: 6.00 Build 0)  -->
<svg version="1.1" id="Layer_1" xmlns="http://www.w3.org/2000/svg" xmlns:xlink="http://www.w3.org/1999/xlink" x="0px" y="0px"
	 viewBox="0 0 181.6666718 169.6666718" style="enable-background:new 0 0 181.6666718 169.6666718;" xml:space="preserve">
<style type="text/css">
	.st0{fill:#FFF200;}
	.st1{fill:none;stroke:#000000;stroke-linejoin:round;stroke-miterlimit:10;}
	.st2{fill:#010101;}
</style>
<g id="XMLID_18_">
	<rect id="XMLID_2_" x="13.25" y="113.5532227" class="st0" width="74.8595505" height="12.4765844"/>
	<g id="XMLID_3_">
		<line id="XMLID_187_" class="st1" x1="13.25" y1="150.9829865" x2="88.1095505" y2="150.9829865"/>
		<line id="XMLID_186_" class="st1" x1="13.25" y1="138.5064087" x2="88.1095505" y2="138.5064087"/>
		<line id="XMLID_185_" class="st1" x1="13.25" y1="126.029808" x2="88.1095505" y2="126.029808"/>
		<line id="XMLID_184_" class="st1" x1="13.25" y1="113.5532227" x2="88.1095505" y2="113.5532227"/>
		<line id="XMLID_183_" class="st1" x1="13.25" y1="101.076622" x2="88.1095505" y2="101.076622"/>
		<line id="XMLID_182_" class="st1" x1="13.25" y1="150.9829865" x2="13.25" y2="101.076622"/>
		<line id="XMLID_181_" class="st1" x1="25.7265873" y1="150.9829865" x2="25.7265873" y2="101.076622"/>
		<line id="XMLID_180_" class="st1" x1="38.2031822" y1="150.9829865" x2="38.2031822" y2="101.076622"/>
		<line id="XMLID_179_" class="st1" x1="50.6797752" y1="150.9829865" x2="50.6797752" y2="101.076622"/>
		<line id="XMLID_178_" class="st1" x1="63.1563683" y1="150.9829865" x2="63.1563683" y2="101.076622"/>
		<line id="XMLID_177_" class="st1" x1="75.6329498" y1="150.9829865" x2="75.6329498" y2="101.076622"/>
		<line id="XMLID_176_" class="st1" x1="88.1095505" y1="150.9829865" x2="88.1095505" y2="101.076622"/>
	</g>
</g>
<g id="XMLID_19_">
	<rect id="XMLID_4_" x="125.9036026" y="14.8333216" class="st0" width="12.4765844" height="74.8595505"/>
	<line id="XMLID_175_" class="st1" x1="150.856781" y1="89.6928711" x2="150.856781" y2="14.8333216"/>
	<line id="XMLID_174_" class="st1" x1="138.3802032" y1="89.6928711" x2="138.3802032" y2="14.8333216"/>
	<line id="XMLID_173_" class="st1" x1="125.9036026" y1="89.6928711" x2="125.9036026" y2="14.8333216"/>
	<line id="XMLID_172_" class="st1" x1="113.4270172" y1="89.6928711" x2="113.4270172" y2="14.8333216"/>
	<line id="XMLID_171_" class="st1" x1="100.9504242" y1="89.6928711" x2="100.9504242" y2="14.8333216"/>
	<line id="XMLID_8_" class="st1" x1="163.3333588" y1="89.6928558" x2="100.9504013" y2="89.6928558"/>
	<line id="XMLID_7_" class="st1" x1="163.3333588" y1="77.2162704" x2="100.9504013" y2="77.2162704"/>
	<line id="XMLID_5_" class="st1" x1="163.3333588" y1="64.7396698" x2="100.9504013" y2="64.7396698"/>
	<line id="XMLID_6_" class="st1" x1="163.333374" y1="52.2630997" x2="100.9504242" y2="52.2630997"/>
	<line id="XMLID_9_" class="st1" x1="163.3333588" y1="39.7864914" x2="100.9504089" y2="39.7864914"/>
	<line id="XMLID_10_" class="st1" x1="163.3333588" y1="27.309906" x2="100.9504089" y2="27.309906"/>
	<line id="XMLID_11_" class="st1" x1="163.3333588" y1="14.8333073" x2="100.9504089" y2="14.8333073"/>
	<line id="XMLID_12_" class="st1" x1="163.333374" y1="89.6928711" x2="163.333374" y2="14.8333216"/>
</g>
<g id="XMLID_1_">
	<rect id="XMLID_13_" x="125.9036026" y="113.5532227" class="st0" width="12.4765987" height="12.4765844"/>
	<line id="XMLID_17_" class="st1" x1="100.9504242" y1="150.9829865" x2="163.333374" y2="150.9829865"/>
	<line id="XMLID_16_" class="st1" x1="100.9504242" y1="138.5064087" x2="163.333374" y2="138.5064087"/>
	<line id="XMLID_15_" class="st1" x1="100.9504242" y1="126.029808" x2="163.3333588" y2="126.029808"/>
	<line id="XMLID_14_" class="st1" x1="100.9504242" y1="113.5532227" x2="163.3333588" y2="113.5532227"/>
	<line id="XMLID_20_" class="st1" x1="100.9504242" y1="101.076622" x2="163.3333588" y2="101.076622"/>
	<line id="XMLID_170_" class="st1" x1="100.9504242" y1="150.9829865" x2="100.9504242" y2="101.076622"/>
	<line id="XMLID_169_" class="st1" x1="113.4270096" y1="150.9829865" x2="113.4270096" y2="101.076622"/>
	<line id="XMLID_168_" class="st1" x1="125.9036026" y1="150.9829865" x2="125.9036026" y2="101.076622"/>
	<line id="XMLID_167_" class="st1" x1="138.3802032" y1="150.9829865" x2="138.3802032" y2="101.076622"/>
	<line id="XMLID_164_" class="st1" x1="150.856781" y1="150.9829865" x2="150.856781" y2="101.076622"/>
	<line id="XMLID_21_" class="st1" x1="163.333374" y1="150.9829865" x2="163.333374" y2="101.076622"/>
</g>
<g id="XMLID_165_">
	<g id="XMLID_166_">
		<path id="XMLID_47_" class="st2" d="M50.5016289,165.1787109h-2.7910156l-0.3320313,0.7675781
			c-0.1088867,0.2558594-0.1635742,0.4677734-0.1635742,0.6337891c0,0.2216797,0.0893555,0.3837891,0.2680664,0.4892578
			c0.1049805,0.0615234,0.3632813,0.1083984,0.7753906,0.1396484v0.2148438h-2.628418v-0.2148438
			c0.2836914-0.0429688,0.5166016-0.1601563,0.6992188-0.3525391c0.1826172-0.1914063,0.4082031-0.5878906,0.6762695-1.1894531
			l2.8261719-6.2939453h0.1108398l2.8500977,6.46875c0.2714844,0.6123047,0.4951172,0.9980469,0.6699219,1.1572266
			c0.1318359,0.1201172,0.3183594,0.1904297,0.5595703,0.2099609v0.2148438h-3.8232422v-0.2148438h0.1582031
			c0.3066406,0,0.5214844-0.0429688,0.6464844-0.1279297c0.0849609-0.0625,0.1279297-0.1513672,0.1279297-0.2675781
			c0-0.0703125-0.0117188-0.1416016-0.0351563-0.2158203c-0.0078125-0.0351563-0.0664063-0.1796875-0.1748047-0.4355469
			L50.5016289,165.1787109z M50.3043633,164.7480469l-1.1777344-2.7167969l-1.2119141,2.7167969H50.3043633z"/>
	</g>
</g>
<g id="XMLID_189_">
	<g id="XMLID_190_">
		<path id="XMLID_43_" class="st2" d="M177.3727264,53.5756836c0.7617188,0.1738281,1.296875,0.3857422,1.6044922,0.6337891
			c0.4414063,0.3525391,0.6630859,0.8105469,0.6630859,1.3720703c0,0.59375-0.2431641,1.0839844-0.7285156,1.4716797
			c-0.5957031,0.4697266-1.4619141,0.7041016-2.5986328,0.7041016h-4.078125v-0.2148438
			c0.3710938,0,0.6230469-0.0341797,0.7548828-0.1025391c0.1318359-0.0673828,0.2246094-0.1552734,0.2783203-0.2646484
			c0.0537109-0.1083984,0.0800781-0.3759766,0.0800781-0.8027344v-5.1181641c0-0.4267578-0.0263672-0.6953125-0.0800781-0.8056641
			s-0.1474609-0.1987305-0.28125-0.2646484s-0.3847656-0.0986328-0.7519531-0.0986328v-0.215332h3.8476563
			c0.9199219,0,1.5703125,0.0805664,1.953125,0.2412109c0.3828125,0.1611328,0.6845703,0.4013672,0.90625,0.7211914
			c0.2207031,0.3198242,0.3310547,0.6601563,0.3310547,1.0209961c0,0.3798828-0.1396484,0.7182617-0.4199219,1.0151367
			C178.5729218,53.1650391,178.0797577,53.4008789,177.3727264,53.5756836z M175.2184296,53.871582v2.5302734l-0.0058594,0.2910156
			c0,0.2089844,0.0546875,0.3671875,0.1630859,0.4736328c0.1083984,0.1074219,0.2685547,0.1601563,0.4824219,0.1601563
			c0.3154297,0,0.6064453-0.0683594,0.8730469-0.2060547s0.4707031-0.3378906,0.6123047-0.5996094
			c0.1425781-0.2617188,0.2128906-0.5527344,0.2128906-0.875c0-0.3681641-0.0869141-0.6992188-0.2597656-0.9921875
			c-0.1738281-0.2919922-0.4130859-0.4970703-0.7158203-0.6132813
			C176.2760468,53.9243164,175.8219452,53.8676758,175.2184296,53.871582z M175.2184296,53.4174805
			c0.5605469,0,0.9736328-0.0615234,1.2402344-0.1855469s0.4707031-0.2983398,0.6123047-0.5234375
			c0.1425781-0.2246094,0.2138672-0.5117188,0.2138672-0.8608398s-0.0703125-0.6347656-0.2109375-0.8579102
			c-0.1396484-0.2231445-0.3398438-0.3925781-0.6005859-0.5087891c-0.2607422-0.1166992-0.6787109-0.1728516-1.2548828-0.1689453
			V53.4174805z"/>
	</g>
</g>
<g id="XMLID_191_">
	<g id="XMLID_192_">
		<path id="XMLID_41_" class="st2" d="M135.2096405,159.3076172v2.75h-0.2304688
			c-0.1738281-0.7177734-0.4970703-1.2675781-0.9707031-1.6494141c-0.4736328-0.3828125-1.0107422-0.5732422-1.6103516-0.5732422
			c-0.5009766,0-0.9604492,0.1416016-1.3789063,0.4267578c-0.4179688,0.2851563-0.7241211,0.6572266-0.9174805,1.1171875
			c-0.2485352,0.5898438-0.3725586,1.2451172-0.3725586,1.9667969c0,0.7099609,0.0908203,1.3564453,0.2719727,1.9394531
			c0.1816406,0.5830078,0.4658203,1.0244141,0.8525391,1.3222656c0.3867188,0.2988281,0.8881836,0.4482422,1.503418,0.4482422
			c0.5048828,0,0.9677734-0.109375,1.3876953-0.328125c0.4208984-0.21875,0.8632813-0.5947266,1.3291016-1.1289063v0.6845703
			c-0.4501953,0.4638672-0.9189453,0.8007813-1.40625,1.0087891c-0.4873047,0.2089844-1.0556641,0.3134766-1.7070313,0.3134766
			c-0.8564453,0-1.6171875-0.1699219-2.2817383-0.5097656c-0.6650391-0.3388672-1.1782227-0.8261719-1.5390625-1.4619141
			c-0.3608475-0.6357422-0.5415115-1.3134766-0.5415115-2.03125c0-0.7568359,0.2001953-1.4746094,0.6005936-2.1533203
			c0.4003906-0.6787109,0.9414063-1.2050781,1.6220703-1.5791016c0.6806641-0.375,1.4033203-0.5625,2.1689453-0.5625
			c0.5644531,0,1.1601563,0.1210938,1.7880859,0.3632813c0.3623047,0.140625,0.59375,0.2109375,0.6923828,0.2109375
			c0.1259766,0,0.2353516-0.0458984,0.328125-0.1376953s0.1533203-0.2373047,0.1806641-0.4365234H135.2096405z"/>
	</g>
</g>
<g id="XMLID_258_">
	<g id="XMLID_260_">
		<path id="XMLID_38_" class="st2" d="M48.3873711,60.2988281h6.144043v0.5678711h-6.144043V60.2988281z M48.3873711,62.480957
			h6.144043v0.5791016h-6.144043V62.480957z"/>
	</g>
	<g id="XMLID_259_">
		<path id="XMLID_29_" class="st2" d="M44.9357109,56.6240234v2.75h-0.2280273
			c-0.171875-0.7177734-0.4916992-1.2675781-0.9599609-1.6499023c-0.4677734-0.3823242-0.9985352-0.5732422-1.5913086-0.5732422
			c-0.4956055,0-0.9501953,0.1420898-1.3637695,0.4267578c-0.4135742,0.2851563-0.7158203,0.6577148-0.9067383,1.1176758
			c-0.2456055,0.5893555-0.3686523,1.2446289-0.3686523,1.9663086c0,0.7099609,0.0898438,1.3564453,0.269043,1.9394531
			c0.1796875,0.5830078,0.4604492,1.0244141,0.8427734,1.3222656c0.3823242,0.2988281,0.8774414,0.4482422,1.4863281,0.4482422
			c0.4990234,0,0.956543-0.109375,1.3720703-0.328125s0.8535156-0.5947266,1.3134766-1.1289063v0.6845703
			c-0.4443359,0.4638672-0.9077148,0.8007813-1.3896484,1.0087891c-0.4819336,0.2089844-1.0444336,0.3134766-1.6879883,0.3134766
			c-0.8466797,0-1.5986328-0.1699219-2.2558594-0.5097656c-0.6572266-0.3388672-1.1645508-0.8261719-1.5214844-1.4619141
			s-0.5351563-1.3134766-0.5351563-2.03125c0-0.7563477,0.1977539-1.4741211,0.59375-2.152832
			s0.9306641-1.2055664,1.6035156-1.5795898c0.6728516-0.3745117,1.3876953-0.5620117,2.1445313-0.5620117
			c0.5576172,0,1.1469727,0.1210938,1.7670898,0.362793c0.3588867,0.140625,0.5869141,0.2109375,0.6845703,0.2109375
			c0.125,0,0.2329102-0.0458984,0.324707-0.1376953s0.1513672-0.2368164,0.1787109-0.4360352H44.9357109z"/>
		<path id="XMLID_31_" class="st2" d="M62.7042656,62.480957h-2.8027344l-0.3339844,0.7724609
			c-0.1083984,0.2578125-0.1630859,0.4707031-0.1630859,0.6376953c0,0.2226563,0.0898438,0.3867188,0.2685547,0.4921875
			c0.1054688,0.0615234,0.3652344,0.1083984,0.7783203,0.1396484v0.2167969H57.812664v-0.2167969
			c0.2841797-0.0429688,0.5185547-0.1601563,0.7021484-0.3535156s0.4091797-0.5917969,0.6787109-1.1962891l2.8378906-6.331543
			h0.1113281l2.8613243,6.5063477c0.2734375,0.6162109,0.4970703,1.0048828,0.6728516,1.1650391
			c0.1328125,0.1201172,0.3203125,0.1904297,0.5615234,0.2099609v0.2167969h-3.8378868v-0.2167969h0.1572266
			c0.3085938,0,0.5253906-0.0429688,0.6494141-0.1289063c0.0859375-0.0615234,0.1289063-0.1513672,0.1289063-0.2685547
			c0-0.0703125-0.0117188-0.1425781-0.0351563-0.2167969c-0.0078125-0.0351563-0.0664063-0.1816406-0.1748047-0.4384766
			L62.7042656,62.480957z M62.5050468,62.0483398l-1.1816406-2.7329102l-1.2167969,2.7329102H62.5050468z"/>
		<path id="XMLID_34_" class="st2" d="M71.668129,60.5327148c0.7529297,0.1757813,1.28125,0.3886719,1.5849609,0.6376953
			c0.4375,0.3554688,0.65625,0.8154297,0.65625,1.3808594c0,0.5966797-0.2402344,1.0908203-0.7197266,1.4804688
			c-0.5898438,0.4716797-1.4453125,0.7080078-2.5693359,0.7080078h-4.03125v-0.2167969
			c0.3662109,0,0.6152344-0.0341797,0.7460938-0.1025391c0.1298828-0.0673828,0.2216797-0.15625,0.2744141-0.265625
			s0.0791016-0.3789063,0.0791016-0.8076172v-5.1489258c0-0.4291992-0.0263672-0.6992188-0.0791016-0.8105469
			s-0.1455078-0.199707-0.2773438-0.2661133c-0.1328125-0.0664063-0.3808594-0.0996094-0.7431641-0.0996094v-0.2163086h3.8027344
			c0.9091797,0,1.5527344,0.0810547,1.9316406,0.2426758c0.3779297,0.1621094,0.6767578,0.4038086,0.8955078,0.7255859
			c0.2177734,0.3217773,0.3271484,0.6640625,0.3271484,1.0268555c0,0.3823242-0.1386719,0.7226563-0.4150391,1.0209961
			C72.8536758,60.1201172,72.3663712,60.3574219,71.668129,60.5327148z M69.5382462,60.831543v2.5449219l-0.0058594,0.2929688
			c0,0.2099609,0.0527344,0.3691406,0.1601563,0.4765625s0.2666016,0.1611328,0.4775391,0.1611328
			c0.3115234,0,0.5996094-0.0693359,0.8632813-0.2080078c0.2626953-0.1386719,0.4648438-0.3398438,0.6054688-0.6025391
			c0.140625-0.2636719,0.2099609-0.5566406,0.2099609-0.8808594c0-0.3701172-0.0849609-0.703125-0.2568359-0.9980469
			c-0.171875-0.2939453-0.4082031-0.5-0.7080078-0.6171875C70.583168,60.8842773,70.1349258,60.8276367,69.5382462,60.831543z
			 M69.5382462,60.3745117c0.5537109,0,0.9619141-0.0620117,1.2255859-0.1870117s0.4648438-0.300293,0.6054688-0.5268555
			c0.140625-0.2260742,0.2109375-0.5146484,0.2109375-0.8657227s-0.0693359-0.6386719-0.2080078-0.8632813
			c-0.1386719-0.2241211-0.3359375-0.3945313-0.59375-0.5117188S70.1075821,57.246582,69.5382462,57.25V60.3745117z"/>
	</g>
</g>
<g id="XMLID_274_">
	<g id="XMLID_275_">
		<path id="XMLID_26_" class="st2" d="M6.0548501,118.1674805l-1.1611328,4.0776367
			c-0.078125,0.2753906-0.1171875,0.4404297-0.1171875,0.4941406c0,0.0625,0.0185547,0.1123047,0.0556641,0.1513672
			s0.0810547,0.0585938,0.1318359,0.0585938c0.0585938,0,0.1289063-0.03125,0.2109375-0.09375
			c0.2226563-0.1738281,0.4472656-0.421875,0.6748047-0.7441406l0.2050781,0.1337891
			c-0.265625,0.4033203-0.5791016,0.7421875-0.9384766,1.0175781c-0.265625,0.2060547-0.5200195,0.3085938-0.762207,0.3085938
			c-0.1601563,0-0.2910156-0.0478516-0.3925779-0.1425781c-0.1020508-0.0947266-0.1523438-0.2138672-0.1523438-0.3574219
			s0.0488281-0.3818359,0.1464844-0.7158203l0.7622068-2.605957c0.125-0.4262695,0.1875-0.6938477,0.1875-0.8022461
			c0-0.0854492-0.0302734-0.1552734-0.0908203-0.2094727c-0.0610352-0.0541992-0.1435547-0.081543-0.2495117-0.081543
			c-0.0859375,0-0.2636719,0.0214844-0.5332031,0.0639648v-0.2270508L6.0548501,118.1674805z M5.9786782,115.8583984
			c0.1640625,0,0.3027344,0.0561523,0.4160156,0.1689453c0.1132813,0.1123047,0.1699219,0.25,0.1699219,0.4125977
			c0,0.1591797-0.0576172,0.2958984-0.1728516,0.4101563c-0.1162109,0.1142578-0.2529297,0.171875-0.4130859,0.171875
			s-0.2988281-0.0576172-0.4140625-0.171875s-0.1728516-0.2509766-0.1728516-0.4101563
			c0-0.1625977,0.0566406-0.300293,0.1699219-0.4125977C5.6759439,115.9145508,5.8146157,115.8583984,5.9786782,115.8583984z"/>
	</g>
</g>
<g id="XMLID_289_">
	<g id="XMLID_290_">
		<path id="XMLID_23_" class="st2" d="M134.9738007,3.2260742l-1.5117188,5.2641602
			c-0.2695313,0.9404297-0.6381836,1.6191406-1.1069336,2.0351563c-0.4692383,0.4150391-0.9765625,0.6230469-1.5214844,0.6230469
			c-0.2451172,0-0.4311523-0.0566406-0.5576172-0.1708984c-0.1264648-0.1132813-0.1899414-0.2490234-0.1899414-0.4052734
			c0-0.1220703,0.0478516-0.2285156,0.1430664-0.3212891c0.0957031-0.0917969,0.2055664-0.1376953,0.3300781-0.1376953
			c0.112793,0,0.2119141,0.0371094,0.2978516,0.1113281c0.0698242,0.0595703,0.1049805,0.1259766,0.1049805,0.2001953
			c0,0.1015625-0.0488281,0.1904297-0.1459961,0.2646484c-0.0546875,0.0429688-0.081543,0.078125-0.081543,0.1064453
			l0.0117188,0.0292969c0.0112305,0.015625,0.0288086,0.0273438,0.0522461,0.0351563s0.0585938,0.0117188,0.1049805,0.0117188
			c0.3154297,0,0.5854492-0.1015625,0.809082-0.3027344c0.2241211-0.2021484,0.4233398-0.6054688,0.5986328-1.2089844
			l1.3081055-4.5166016c0.1289063-0.4433594,0.1923828-0.6879883,0.1923828-0.7353516
			c0-0.0942383-0.0419922-0.1782227-0.125-0.2529297c-0.0839844-0.0742188-0.1904297-0.1118164-0.3183594-0.1118164
			c-0.0507813,0-0.109375,0.0058594-0.1757813,0.0180664c-0.0498047,0.0078125-0.1240234,0.0195313-0.2216797,0.0351563V3.5908203
			L134.9738007,3.2260742z M134.8810272,0.8974609c0.1630859,0,0.3027344,0.0576172,0.4169922,0.1733398
			c0.1152344,0.1157227,0.1728516,0.2558594,0.1728516,0.4204102c0,0.1650391-0.0576172,0.3051758-0.1728516,0.4204102
			c-0.1142578,0.1157227-0.2539063,0.1738281-0.4169922,0.1738281c-0.1640625,0-0.3027344-0.0581055-0.4179688-0.1738281
			c-0.1152344-0.1152344-0.171875-0.2553711-0.171875-0.4204102c0-0.1645508,0.0566406-0.3046875,0.171875-0.4204102
			S134.7169647,0.8974609,134.8810272,0.8974609z"/>
	</g>
</g>
<g id="XMLID_22_">
</g>
<g id="XMLID_50_">
</g>
<g id="XMLID_51_">
</g>
<g id="XMLID_52_">
</g>
<g id="XMLID_53_">
</g>
<g id="XMLID_54_">
</g>
</svg>
