<?xml version="1.0" encoding="utf-8"?>
<!-- Generator: Adobe Illustrator 19.0.0, SVG Export Plug-In . SVG Version: 6.00 Build 0)  -->
<svg version="1.1" id="Layer_1" xmlns="http://www.w3.org/2000/svg" xmlns:xlink="http://www.w3.org/1999/xlink" x="0px" y="0px"
	 viewBox="-82.6666641 208.6666718 388.1666565 186.6666718"
	 style="enable-background:new -82.6666641 208.6666718 388.1666565 186.6666718;" xml:space="preserve">
<style type="text/css">
	.st0{fill:#FFFFFF;}
	.st1{fill:none;stroke:#262626;stroke-width:1.3333;stroke-linecap:square;stroke-linejoin:round;stroke-miterlimit:10;}
	.st2{enable-background:new    ;}
	.st3{fill:#262626;}
	.st4{fill:none;stroke:#FF0000;stroke-width:1.3333;stroke-linejoin:round;stroke-miterlimit:10;}
	.st5{fill:#FF0000;}
	.st6{fill:none;stroke:#0000FF;stroke-width:1.3333;stroke-miterlimit:10;}
</style>
<g>
	<path class="st0" d="M-37.7499962,355h130V225h-130V355z"/>
	<g>
		<line class="st1" x1="-37.7499962" y1="355" x2="92.25" y2="355"/>
		<line class="st1" x1="-37.7499962" y1="225" x2="92.25" y2="225"/>
		<line class="st1" x1="-26.916647" y1="355" x2="-26.916647" y2="353.7000122"/>
		<line class="st1" x1="27.2500019" y1="355" x2="27.2500019" y2="353.7000122"/>
		<line class="st1" x1="81.4166565" y1="355" x2="81.4166565" y2="353.7000122"/>
		<line class="st1" x1="-26.916647" y1="225" x2="-26.916647" y2="226.3000031"/>
		<line class="st1" x1="27.2500019" y1="225" x2="27.2500019" y2="226.3000031"/>
		<line class="st1" x1="81.4166565" y1="225" x2="81.4166565" y2="226.3000031"/>
	</g>
	<g transform="translate(132.1667,314.6667)">
		<g class="st2">
			<path class="st3" d="M-161.5924835,55.575016v0.8779297h-3.3354492V55.575016H-161.5924835z"/>
			<path class="st3" d="M-158.0016632,51.9964027h-0.0268555l-1.5263672,0.8237305l-0.2294922-0.9047852l1.9174805-1.0263672
				h1.0131836v8.777832h-1.1479492V51.9964027z"/>
		</g>
	</g>
	<g transform="translate(240.5,314.6667)">
		<g class="st2">
			<path class="st3" d="M-210.8085938,55.1834145c0,2.984375-1.1074219,4.6318359-3.0517578,4.6318359
				c-1.715332,0-2.8764648-1.6069336-2.9033203-4.5102539c0-2.9438477,1.269043-4.5644531,3.0517578-4.5644531
				C-211.8618164,50.7405434-210.8085938,52.3880043-210.8085938,55.1834145z M-215.5756836,55.3186684
				c0,2.2822266,0.7026367,3.5786133,1.7827148,3.5786133c1.215332,0,1.7958984-1.4179688,1.7958984-3.659668
				c0-2.1606445-0.5537109-3.5786133-1.7822266-3.5786133C-214.8193359,51.6590004-215.5756836,52.9285316-215.5756836,55.3186684z"
				/>
		</g>
	</g>
	<g transform="translate(348.8333,314.6667)">
		<g class="st2">
			<path class="st3" d="M-268.2302856,51.9964027h-0.0268555l-1.5263672,0.8237305l-0.2294922-0.9047852l1.9174805-1.0263672
				h1.0131836v8.777832h-1.1479492V51.9964027z"/>
		</g>
	</g>
	<g transform="translate(240.5001,351.3333)">
		<g class="st2">
			<path class="st3" d="M-215.3477631,35.318058l1.0004883,1.5078125c0.2607422,0.3911133,0.4780273,0.7539063,0.7104492,1.1450195
				h0.043457c0.2319336-0.4204102,0.4638672-0.7827148,0.6958008-1.159668l0.9853516-1.4931641h1.3774414l-2.3920898,3.3920898
				l2.4643555,3.6240234h-1.449707l-1.0292969-1.5800781c-0.2753906-0.4057617-0.5073242-0.7973633-0.753418-1.2177734h-0.0292969
				c-0.2319336,0.4204102-0.4780273,0.7973633-0.7392578,1.2177734l-1.0146484,1.5800781h-1.4057617l2.4931641-3.5805664
				l-2.3774414-3.4355469H-215.3477631z"/>
		</g>
	</g>
	<g>
		<line class="st1" x1="-37.7499962" y1="355" x2="-37.7499962" y2="225"/>
		<line class="st1" x1="92.25" y1="355" x2="92.25" y2="225"/>
		<line class="st1" x1="-37.7499962" y1="344.1666565" x2="-36.4499969" y2="344.1666565"/>
		<line class="st1" x1="-37.7499962" y1="317.0833435" x2="-36.4499969" y2="317.0833435"/>
		<line class="st1" x1="-37.7499962" y1="290" x2="-36.4499969" y2="290"/>
		<line class="st1" x1="-37.7499962" y1="262.9166565" x2="-36.4499969" y2="262.9166565"/>
		<line class="st1" x1="-37.7499962" y1="235.8333588" x2="-36.4499969" y2="235.8333588"/>
		<line class="st1" x1="92.25" y1="344.1666565" x2="90.9499969" y2="344.1666565"/>
		<line class="st1" x1="92.25" y1="317.0833435" x2="90.9499969" y2="317.0833435"/>
		<line class="st1" x1="92.25" y1="290" x2="90.9499969" y2="290"/>
		<line class="st1" x1="92.25" y1="262.9166565" x2="90.9499969" y2="262.9166565"/>
		<line class="st1" x1="92.25" y1="235.8333588" x2="90.9499969" y2="235.8333588"/>
	</g>
	<g transform="translate(99.8333,282.3333)">
		<g class="st2">
			<path class="st3" d="M-151.6755829,63.2418861v0.8779335h-3.3354492v-0.8779335H-151.6755829z"/>
			<path class="st3" d="M-148.0847626,59.6632729h-0.0268555l-1.5263672,0.8237305l-0.2294922-0.9047852l1.9174805-1.0263672
				h1.0131836v8.7778358h-1.1479492V59.6632729z"/>
		</g>
	</g>
	<g transform="translate(99.8333,228.1667)">
		<g class="st2">
			<path class="st3" d="M-162.6760712,90.3250046v0.8779297h-3.3354492v-0.8779297H-162.6760712z"/>
			<path class="st3" d="M-155.8308563,89.933403c0,2.984375-1.1074219,4.6318359-3.0517578,4.6318359
				c-1.715332,0-2.8764648-1.6069336-2.9033203-4.5102539c0-2.9438477,1.269043-4.5644531,3.0517578-4.5644531
				C-156.884079,85.4905319-155.8308563,87.1379929-155.8308563,89.933403z M-160.5979462,90.0686569
				c0,2.2822266,0.7021484,3.5786133,1.7827148,3.5786133c1.215332,0,1.7958984-1.4179688,1.7958984-3.659668
				c0-2.1606445-0.5537109-3.5786133-1.7822266-3.5786133C-159.8415985,86.408989-160.5979462,87.6785202-160.5979462,90.0686569z"
				/>
			<path class="st3" d="M-154.6448212,93.714653c0-0.4995117,0.3378906-0.8505859,0.8105469-0.8505859
				c0.472168,0,0.7963867,0.3510742,0.7963867,0.8505859c0,0.4858398-0.3105469,0.8505859-0.8100586,0.8505859
				C-154.3206024,94.565239-154.6448212,94.2004929-154.6448212,93.714653z"/>
			<path class="st3" d="M-146.705368,86.6384811h-3.3491211l-0.3374023,2.2553711
				c0.2026367-0.0273438,0.3916016-0.0541992,0.7158203-0.0541992c0.675293,0,1.3500977,0.1484375,1.890625,0.4726563
				c0.6884766,0.3916016,1.2558594,1.1479492,1.2558594,2.2553711c0,1.7148438-1.3642578,2.9975586-3.2680664,2.9975586
				c-0.9589844,0-1.769043-0.2700195-2.1875-0.5400391l0.296875-0.9047852
				c0.3647461,0.2158203,1.0805664,0.4863281,1.8769531,0.4863281c1.1210938,0,2.0795898-0.7294922,2.0795898-1.9042969
				c-0.0131836-1.1342773-0.7695313-1.9443359-2.5249023-1.9443359c-0.5,0-0.8916016,0.0537109-1.215332,0.0942383
				l0.5668945-4.2133789h4.199707V86.6384811z"/>
		</g>
	</g>
	<g transform="translate(99.8333,174)">
		<g class="st2">
			<path class="st3" d="M-144.4748993,117.0170975c0,2.984375-1.1074219,4.6318359-3.0517578,4.6318359
				c-1.715332,0-2.8764648-1.6069336-2.9033203-4.5102539c0-2.9438477,1.269043-4.5644531,3.0517578-4.5644531
				C-145.5281219,112.5742264-144.4748993,114.2216873-144.4748993,117.0170975z M-149.2419891,117.1523514
				c0,2.2822266,0.7026367,3.5786133,1.7827148,3.5786133c1.215332,0,1.7958984-1.4179688,1.7958984-3.659668
				c0-2.1606445-0.5537109-3.5786133-1.7822266-3.5786133
				C-148.4856415,113.4926834-149.2419891,114.7622147-149.2419891,117.1523514z"/>
		</g>
	</g>
	<g transform="translate(99.8333,119.8333)">
		<g class="st2">
			<path class="st3" d="M-155.4748993,144.100296c0,2.984375-1.1074219,4.6318359-3.0517578,4.6318359
				c-1.715332,0-2.8764648-1.6069336-2.9033203-4.5102539c0-2.9438477,1.269043-4.5644531,3.0517578-4.5644531
				C-156.5281219,139.6574249-155.4748993,141.3048859-155.4748993,144.100296z M-160.2419891,144.2355499
				c0,2.2822266,0.7026367,3.5786133,1.7827148,3.5786133c1.215332,0,1.7958984-1.4179688,1.7958984-3.659668
				c0-2.1606445-0.5537109-3.5786133-1.7822266-3.5786133C-159.4856415,140.575882-160.2419891,141.8454132-160.2419891,144.2355499
				z"/>
			<path class="st3" d="M-154.2888641,147.881546c0-0.4995117,0.3378906-0.8505859,0.8100586-0.8505859
				c0.4726563,0,0.796875,0.3510742,0.796875,0.8505859c0,0.4863281-0.3105469,0.8505859-0.8100586,0.8505859
				C-153.9646454,148.732132-154.2888641,148.3678741-154.2888641,147.881546z"/>
			<path class="st3" d="M-146.349411,140.8053741h-3.3491211l-0.3374023,2.2553711
				c0.2026367-0.0273438,0.3916016-0.0541992,0.7158203-0.0541992c0.675293,0,1.3500977,0.1484375,1.890625,0.4726563
				c0.6884766,0.3916016,1.2558594,1.1479492,1.2558594,2.2553711c0,1.7148438-1.3642578,2.9975586-3.2680664,2.9975586
				c-0.9589844,0-1.769043-0.2700195-2.1875-0.5400391l0.296875-0.9047852
				c0.3647461,0.2163086,1.0800781,0.4863281,1.8769531,0.4863281c1.1210938,0,2.0795898-0.7294922,2.0795898-1.9042969
				c-0.0131836-1.1342773-0.7695313-1.9443359-2.5249023-1.9443359c-0.5,0-0.8916016,0.0537109-1.2158203,0.0942383
				l0.5673828-4.2133789h4.199707V140.8053741z"/>
		</g>
	</g>
	<g transform="translate(99.8333,65.6667)">
		<g class="st2">
			<path class="st3" d="M-147.7292938,167.9963837h-0.0268555l-1.5263672,0.8237305l-0.2294922-0.9047852l1.9174805-1.0263672
				h1.0131836v8.777832h-1.1479492V167.9963837z"/>
		</g>
	</g>
	<g transform="translate(44.8333,173.9999) rotate(-90)">
		<g class="st2">
			<path class="st3" d="M-118.2276535-125.9324188l1.5366211,4.1459961c0.159668,0.4638672,0.3334961,1.0146484,0.4492188,1.4350586
				h0.0292969c0.1303711-0.4204102,0.2753906-0.956543,0.4492188-1.4643555l1.3916016-4.1166992h1.3481445l-1.9135742,5.0009766
				c-0.9130859,2.4067383-1.5366211,3.6386719-2.40625,4.3925781c-0.6230469,0.5507813-1.246582,0.7680664-1.5654297,0.8261719
				l-0.3188477-1.0727539c0.3188477-0.1015625,0.7392578-0.3041992,1.1162109-0.6230469
				c0.3476563-0.2758789,0.7827148-0.7685547,1.0727539-1.4208984c0.0576172-0.1303711,0.1010742-0.2319336,0.1010742-0.3041992
				c0-0.0727539-0.0288086-0.1743164-0.0869141-0.3334961l-2.5947266-6.465332H-118.2276535z"/>
		</g>
	</g>
	<g transform="translate(240.5002,41.25)">
		<g class="st2">
			<path d="M-240.5705109,176.9614258c0,0.7250977,0.0141602,1.362793,0.0576172,1.9135742h-1.1303711l-0.0727539-1.1450195
				h-0.0288086c-0.3334961,0.5649414-1.0727539,1.3046875-2.3193359,1.3046875
				c-1.1015625,0-2.4208984-0.6088867-2.4208984-3.0732422v-4.1025391h1.2758789v3.8852539
				c0,1.3334961,0.4057617,2.2319336,1.5654297,2.2319336c0.8549805,0,1.449707-0.5942383,1.6816406-1.159668
				c0.0722656-0.1884766,0.1157227-0.4204102,0.1157227-0.6523438v-4.3051758h1.2758789V176.9614258z"/>
			<path d="M-238.4523468,173.7578125c0-0.7246094-0.0146484-1.3188477-0.0581055-1.8989258h1.1308594l0.0727539,1.159668h0.0288086
				c0.3476563-0.6665039,1.159668-1.3188477,2.3193359-1.3188477c0.9711914,0,2.4785156,0.5795898,2.4785156,2.9858398V178.875
				h-1.2753906v-4.0444336c0-1.1303711-0.4204102-2.0727539-1.6235352-2.0727539
				c-0.8408203,0-1.4931641,0.5942383-1.7104492,1.3046875c-0.0581055,0.1591797-0.0869141,0.3769531-0.0869141,0.5942383V178.875
				h-1.2758789V173.7578125z"/>
			<path d="M-228.9840851,169.8876953c0.0141602,0.4345703-0.3046875,0.7827148-0.8120117,0.7827148
				c-0.4492188,0-0.7680664-0.3481445-0.7680664-0.7827148c0-0.449707,0.3330078-0.7973633,0.796875-0.7973633
				C-229.2887726,169.090332-228.9840851,169.4379883-228.9840851,169.8876953z M-230.4049835,178.875v-7.0161133h1.2758789V178.875
				H-230.4049835z"/>
			<path d="M-225.475296,169.8442383v2.0146484h1.8266602v0.9711914h-1.8266602v3.7836914
				c0,0.8696289,0.246582,1.3623047,0.956543,1.3623047c0.3334961,0,0.5800781-0.043457,0.7392578-0.0869141l0.0581055,0.9570313
				c-0.2460938,0.1010742-0.6376953,0.1738281-1.1303711,0.1738281c-0.5947266,0-1.0727539-0.1884766-1.3774414-0.5366211
				c-0.3623047-0.3764648-0.4926758-1-0.4926758-1.8261719v-3.8271484h-1.0874023v-0.9711914h1.0874023v-1.6811523
				L-225.475296,169.8442383z"/>
			<path d="M-214.1378937,178.6142578c-0.3330078,0.1738281-1.0722656,0.4057617-2.0146484,0.4057617
				c-2.1166992,0-3.4936523-1.4350586-3.4936523-3.5805664c0-2.159668,1.4785156-3.7255859,3.769043-3.7255859
				c0.7539063,0,1.4204102,0.1884766,1.7685547,0.362793l-0.2900391,0.9853516
				c-0.3041992-0.1738281-0.7827148-0.3334961-1.4785156-0.3334961c-1.6088867,0-2.4790039,1.1889648-2.4790039,2.652832
				c0,1.6235352,1.0439453,2.6240234,2.4355469,2.6240234c0.7246094,0,1.203125-0.1884766,1.5654297-0.3481445
				L-214.1378937,178.6142578z"/>
			<path d="M-211.2218781,169.8876953c0.0141602,0.4345703-0.3046875,0.7827148-0.8120117,0.7827148
				c-0.4492188,0-0.7680664-0.3481445-0.7680664-0.7827148c0-0.449707,0.3330078-0.7973633,0.796875-0.7973633
				C-211.5265656,169.090332-211.2218781,169.4379883-211.2218781,169.8876953z M-212.6427765,178.875v-7.0161133h1.2758789V178.875
				H-212.6427765z"/>
			<path d="M-209.2497101,174.0478516c0-0.8261719-0.0141602-1.5366211-0.0581055-2.1889648h1.1162109l0.043457,1.3774414h0.0581055
				c0.3188477-0.9423828,1.0874023-1.5366211,1.9423828-1.5366211c0.1450195,0,0.246582,0.0141602,0.3623047,0.043457v1.203125
				c-0.1303711-0.0292969-0.2607422-0.043457-0.4345703-0.043457c-0.8989258,0-1.5366211,0.6811523-1.7104492,1.6376953
				c-0.0292969,0.1743164-0.0581055,0.3769531-0.0581055,0.5947266V178.875h-1.2612305V174.0478516z"/>
			<path d="M-199.6525421,178.6142578c-0.3330078,0.1738281-1.0722656,0.4057617-2.0146484,0.4057617
				c-2.1166992,0-3.4936523-1.4350586-3.4936523-3.5805664c0-2.159668,1.4785156-3.7255859,3.769043-3.7255859
				c0.7539063,0,1.4204102,0.1884766,1.7685547,0.362793l-0.2900391,0.9853516
				c-0.3041992-0.1738281-0.7827148-0.3334961-1.4785156-0.3334961c-1.6088867,0-2.4790039,1.1889648-2.4790039,2.652832
				c0,1.6235352,1.0439453,2.6240234,2.4355469,2.6240234c0.7246094,0,1.203125-0.1884766,1.5654297-0.3481445
				L-199.6525421,178.6142578z"/>
			<path d="M-198.1574249,168.5830078h1.2758789V178.875h-1.2758789V168.5830078z"/>
			<path d="M-194.0251007,175.5991211c0.0288086,1.7246094,1.1303711,2.4350586,2.40625,2.4350586
				c0.9130859,0,1.4638672-0.1591797,1.9423828-0.3623047l0.2172852,0.9130859
				c-0.4492188,0.203125-1.2172852,0.4350586-2.3334961,0.4350586c-2.1601563,0-3.4501953-1.4204102-3.4501953-3.5371094
				c0-2.1162109,1.246582-3.7832031,3.2905273-3.7832031c2.2905273,0,2.8994141,2.0146484,2.8994141,3.3046875
				c0,0.2612305-0.0292969,0.4638672-0.043457,0.5947266H-194.0251007z M-190.2853546,174.6855469
				c0.0146484-0.8115234-0.3334961-2.0727539-1.7685547-2.0727539c-1.2900391,0-1.8554688,1.1884766-1.956543,2.0727539
				H-190.2853546z"/>
		</g>
	</g>
	<g>
		<path class="st4" d="M81.4166565,290l-0.1090546-3.4354553l-0.3267059-3.4216309l-0.5430908-3.3940125l-0.7572479-3.3527527
			l-0.9683533-3.2979431l-1.1755981-3.2298889l-1.3781128-3.1488647l-1.5749969-3.0550842l-1.7655945-2.9490662
			l-1.9490967-2.8311462l-2.1247101-2.7017975l-2.2918396-2.5616455L64.002594,250.20961l-2.5976372-2.2508545l-2.735199-2.081604
			l-2.8617096-1.9039459l-2.9766998-1.7185974l-3.0796967-1.5263519l-3.1703033-1.3278961l-3.2481384-1.1242065l-3.312912-0.9159546
			l-3.3643494-0.703949l-3.4021912-0.489151l-3.4264088-0.2723999l-3.4367447-0.0545502l-3.4333038,0.163559l-3.4160004,0.3809509
			l-3.3849945,0.5968933l-3.3403006,0.8103485l-3.2822037,1.0205536l-3.2108006,1.2266998l-3.1265943,1.4278564l-3.0297546,1.623291
			l-2.9206467,1.812149l-2.7998507,1.9938049l-2.6678004,2.1672974l-2.5249023,2.3321991l-2.3719482,2.4876099l-2.209404,2.6330566
			l-2.0378962,2.7678223l-1.8582993,2.891571l-1.6711502,3.0036011l-1.4773026,3.1035461l-1.2774506,3.1909485l-1.0725479,3.2655945
			l-0.8632507,3.3269958l-0.6504517,3.3750916l-0.4351501,3.4095764l-0.2179947,3.4302368v3.4371948l0.2179947,3.4302673
			l0.4351501,3.4095459l0.6504517,3.3750916l0.8632507,3.3269958l1.0725479,3.2655945l1.2774506,3.1909485l1.4773026,3.1035767
			l1.6711502,3.0036011l1.8582993,2.8915405l2.0378962,2.7678528l2.209404,2.6330566l2.3719482,2.4875793l2.5249023,2.3322144
			l2.6678004,2.1672974l2.7998507,1.9938049l2.9206467,1.8121338l3.0297546,1.6233215l3.1265943,1.4278259l3.2108006,1.2267151
			l3.2822037,1.0205383l3.3403006,0.8103638l3.3849945,0.5968933l3.4160004,0.3809509l3.4333038,0.1635437l3.4367447-0.0545349
			l3.4264088-0.2723999l3.4021912-0.4891663l3.3643494-0.703949l3.312912-0.9158936l3.2481384-1.1242371l3.1703033-1.3279114
			l3.0796967-1.5263367l2.9766998-1.7186279l2.8617096-1.9039307l2.735199-2.081604l2.5976372-2.2508545l2.4496613-2.4111023
			l2.2918396-2.5616455l2.1247101-2.7018127l1.9490967-2.8311462l1.7655945-2.9490356l1.5749969-3.0551147l1.3781128-3.1488342
			l1.1755981-3.2299194l0.9683533-3.2979431l0.7572479-3.3527527l0.5430908-3.3939819l0.3267059-3.4216614L81.4166565,290"/>
		<circle class="st5" cx="81.4166565" cy="290" r="1.3333499"/>
	</g>
	<g transform="translate(348.6152,167.1291)">
		<circle class="st5" cx="-267.3075867" cy="119.4354553" r="1.3333499"/>
	</g>
	<g transform="translate(347.9618,160.2858)">
		<circle class="st5" cx="-266.980896" cy="122.8571091" r="1.3333499"/>
	</g>
	<g transform="translate(346.8756,153.4978)">
		<circle class="st5" cx="-266.4378052" cy="126.2511063" r="1.3333499"/>
	</g>
	<g transform="translate(345.3611,146.7923)">
		<circle class="st5" cx="-265.680542" cy="129.6038513" r="1.3333499"/>
	</g>
	<g transform="translate(343.4244,140.1964)">
		<circle class="st5" cx="-264.7121887" cy="132.9018097" r="1.3333499"/>
	</g>
	<g transform="translate(341.0732,133.7366)">
		<circle class="st5" cx="-263.5365906" cy="136.1316986" r="1.3333499"/>
	</g>
	<g transform="translate(338.317,127.4389)">
		<circle class="st5" cx="-262.1584778" cy="139.2805481" r="1.3333499"/>
	</g>
	<g transform="translate(335.167,121.3287)">
		<circle class="st5" cx="-260.5834961" cy="142.3356628" r="1.3333499"/>
	</g>
	<g transform="translate(331.6358,115.4306)">
		<circle class="st5" cx="-258.8179016" cy="145.2846985" r="1.3333499"/>
	</g>
	<g transform="translate(327.7376,109.7683)">
		<circle class="st5" cx="-256.8688049" cy="148.11586" r="1.3333499"/>
	</g>
	<g transform="translate(323.4882,104.3647)">
		<circle class="st5" cx="-254.7440948" cy="150.8176575" r="1.3333499"/>
	</g>
	<g transform="translate(318.9045,99.2414)">
		<circle class="st5" cx="-252.4522552" cy="153.379303" r="1.3333499"/>
	</g>
	<g transform="translate(314.0052,94.4192)">
		<circle class="st5" cx="-250.002594" cy="155.7904053" r="1.3333499"/>
	</g>
	<g transform="translate(308.8099,89.9175)">
		<circle class="st5" cx="-247.404953" cy="158.0412598" r="1.3333499"/>
	</g>
	<g transform="translate(303.3395,85.7543)">
		<circle class="st5" cx="-244.669754" cy="160.1228485" r="1.3333499"/>
	</g>
	<g transform="translate(297.6161,81.9464)">
		<circle class="st5" cx="-241.8080444" cy="162.0268097" r="1.3333499"/>
	</g>
	<g transform="translate(291.6627,78.5092)">
		<circle class="st5" cx="-238.8313446" cy="163.7454071" r="1.3333499"/>
	</g>
	<g transform="translate(285.5033,75.4565)">
		<circle class="st5" cx="-235.7516479" cy="165.271759" r="1.3333499"/>
	</g>
	<g transform="translate(279.1627,72.8007)">
		<circle class="st5" cx="-232.5813446" cy="166.5996552" r="1.3333499"/>
	</g>
	<g transform="translate(272.6664,70.5523)">
		<circle class="st5" cx="-229.3332062" cy="167.7238617" r="1.3333499"/>
	</g>
	<g transform="translate(266.0406,68.7204)">
		<circle class="st5" cx="-226.0202942" cy="168.639801" r="1.3333499"/>
	</g>
	<g transform="translate(259.3119,67.3125)">
		<circle class="st5" cx="-222.6559448" cy="169.34375" r="1.3333499"/>
	</g>
	<g transform="translate(252.5075,66.3342)">
		<circle class="st5" cx="-219.2537537" cy="169.832901" r="1.3333499"/>
	</g>
	<g transform="translate(245.6547,65.7894)">
		<circle class="st5" cx="-215.8273468" cy="170.1053009" r="1.3333499"/>
	</g>
	<g transform="translate(238.7812,65.6803)">
		<circle class="st5" cx="-212.3905945" cy="170.1598511" r="1.3333499"/>
	</g>
	<g transform="translate(231.9146,66.0074)">
		<circle class="st5" cx="-208.9572906" cy="169.9963074" r="1.3333499"/>
	</g>
	<g transform="translate(225.0826,66.7693)">
		<circle class="st5" cx="-205.5412903" cy="169.6153564" r="1.3333499"/>
	</g>
	<g transform="translate(218.3126,67.9631)">
		<circle class="st5" cx="-202.1562958" cy="169.0184631" r="1.3333499"/>
	</g>
	<g transform="translate(211.632,69.5838)">
		<circle class="st5" cx="-198.8159943" cy="168.2080994" r="1.3333499"/>
	</g>
	<g transform="translate(205.0676,71.6249)">
		<circle class="st5" cx="-195.5337982" cy="167.187561" r="1.3333499"/>
	</g>
	<g transform="translate(198.646,74.0783)">
		<circle class="st5" cx="-192.322998" cy="165.9608612" r="1.3333499"/>
	</g>
	<g transform="translate(192.3928,76.934)">
		<circle class="st5" cx="-189.1963959" cy="164.5330048" r="1.3333499"/>
	</g>
	<g transform="translate(186.3333,80.1806)">
		<circle class="st5" cx="-186.1666412" cy="162.9096985" r="1.3333499"/>
	</g>
	<g transform="translate(180.492,83.8049)">
		<circle class="st5" cx="-183.2460022" cy="161.0975494" r="1.3333499"/>
	</g>
	<g transform="translate(174.8923,87.7925)">
		<circle class="st5" cx="-180.4461517" cy="159.1037598" r="1.3333499"/>
	</g>
	<g transform="translate(169.5567,92.1271)">
		<circle class="st5" cx="-177.7783508" cy="156.9364624" r="1.3333499"/>
	</g>
	<g transform="translate(164.5069,96.7915)">
		<circle class="st5" cx="-175.2534485" cy="154.6042633" r="1.3333499"/>
	</g>
	<g transform="translate(159.763,101.7667)">
		<circle class="st5" cx="-172.8815002" cy="152.1166534" r="1.3333499"/>
	</g>
	<g transform="translate(155.3442,107.0328)">
		<circle class="st5" cx="-170.6720886" cy="149.4836121" r="1.3333499"/>
	</g>
	<g transform="translate(151.2684,112.5685)">
		<circle class="st5" cx="-168.634201" cy="146.7157593" r="1.3333499"/>
	</g>
	<g transform="translate(147.5518,118.3516)">
		<circle class="st5" cx="-166.7758942" cy="143.8242035" r="1.3333499"/>
	</g>
	<g transform="translate(144.2095,124.3588)">
		<circle class="st5" cx="-165.1047516" cy="140.8206024" r="1.3333499"/>
	</g>
	<g transform="translate(141.2549,130.5659)">
		<circle class="st5" cx="-163.6274414" cy="137.7170563" r="1.3333499"/>
	</g>
	<g transform="translate(138.7,136.9478)">
		<circle class="st5" cx="-162.3499908" cy="134.5261078" r="1.3333499"/>
	</g>
	<g transform="translate(136.5549,143.479)">
		<circle class="st5" cx="-161.2774506" cy="131.260498" r="1.3333499"/>
	</g>
	<g transform="translate(134.8284,150.133)">
		<circle class="st5" cx="-160.4141998" cy="127.9335098" r="1.3333499"/>
	</g>
	<g transform="translate(133.5275,156.8832)">
		<circle class="st5" cx="-159.7637482" cy="124.5584106" r="1.3333499"/>
	</g>
	<g transform="translate(132.6572,163.7023)">
		<circle class="st5" cx="-159.328598" cy="121.1488571" r="1.3333499"/>
	</g>
	<g transform="translate(132.2212,170.5628)">
		<circle class="st5" cx="-159.1105957" cy="117.718605" r="1.3333499"/>
	</g>
	<g transform="translate(132.2212,177.4372)">
		<circle class="st5" cx="-159.1105957" cy="114.2814102" r="1.3333499"/>
	</g>
	<g transform="translate(132.6572,184.2977)">
		<circle class="st5" cx="-159.328598" cy="110.8511581" r="1.3333499"/>
	</g>
	<g transform="translate(133.5275,191.1168)">
		<circle class="st5" cx="-159.7637482" cy="107.4416046" r="1.3333499"/>
	</g>
	<g transform="translate(134.8284,197.867)">
		<circle class="st5" cx="-160.4141998" cy="104.0665054" r="1.3333499"/>
	</g>
	<g transform="translate(136.5549,204.521)">
		<circle class="st5" cx="-161.2774506" cy="100.7395096" r="1.3333499"/>
	</g>
	<g transform="translate(138.7,211.0522)">
		<circle class="st5" cx="-162.3499908" cy="97.4739075" r="1.3333499"/>
	</g>
	<g transform="translate(141.2549,217.4341)">
		<circle class="st5" cx="-163.6274414" cy="94.282959" r="1.3333499"/>
	</g>
	<g transform="translate(144.2095,223.6412)">
		<circle class="st5" cx="-165.1047516" cy="91.1794052" r="1.3333499"/>
	</g>
	<g transform="translate(147.5518,229.6484)">
		<circle class="st5" cx="-166.7758942" cy="88.1758041" r="1.3333499"/>
	</g>
	<g transform="translate(151.2684,235.4315)">
		<circle class="st5" cx="-168.634201" cy="85.284256" r="1.3333499"/>
	</g>
	<g transform="translate(155.3442,240.9672)">
		<circle class="st5" cx="-170.6720886" cy="82.5164108" r="1.3333499"/>
	</g>
	<g transform="translate(159.763,246.2333)">
		<circle class="st5" cx="-172.8815002" cy="79.8833542" r="1.3333499"/>
	</g>
	<g transform="translate(164.5069,251.2085)">
		<circle class="st5" cx="-175.2534485" cy="77.3957596" r="1.3333499"/>
	</g>
	<g transform="translate(169.5567,255.8729)">
		<circle class="st5" cx="-177.7783508" cy="75.0635605" r="1.3333499"/>
	</g>
	<g transform="translate(174.8923,260.2075)">
		<circle class="st5" cx="-180.4461517" cy="72.8962631" r="1.3333499"/>
	</g>
	<g transform="translate(180.492,264.1951)">
		<circle class="st5" cx="-183.2460022" cy="70.9024582" r="1.3333499"/>
	</g>
	<g transform="translate(186.3333,267.8194)">
		<circle class="st5" cx="-186.1666412" cy="69.0903091" r="1.3333499"/>
	</g>
	<g transform="translate(192.3928,271.066)">
		<circle class="st5" cx="-189.1963959" cy="67.4670029" r="1.3333499"/>
	</g>
	<g transform="translate(198.646,273.9217)">
		<circle class="st5" cx="-192.322998" cy="66.0391617" r="1.3333499"/>
	</g>
	<g transform="translate(205.0676,276.3751)">
		<circle class="st5" cx="-195.5337982" cy="64.8124619" r="1.3333499"/>
	</g>
	<g transform="translate(211.632,278.4162)">
		<circle class="st5" cx="-198.8159943" cy="63.7919044" r="1.3333499"/>
	</g>
	<g transform="translate(218.3126,280.0369)">
		<circle class="st5" cx="-202.1562958" cy="62.9815559" r="1.3333499"/>
	</g>
	<g transform="translate(225.0826,281.2307)">
		<circle class="st5" cx="-205.5412903" cy="62.3846474" r="1.3333499"/>
	</g>
	<g transform="translate(231.9146,281.9926)">
		<circle class="st5" cx="-208.9572906" cy="62.0036964" r="1.3333499"/>
	</g>
	<g transform="translate(238.7812,282.3197)">
		<circle class="st5" cx="-212.3905945" cy="61.8401527" r="1.3333499"/>
	</g>
	<g transform="translate(245.6547,282.2106)">
		<circle class="st5" cx="-215.8273468" cy="61.8947029" r="1.3333499"/>
	</g>
	<g transform="translate(252.5075,281.6658)">
		<circle class="st5" cx="-219.2537537" cy="62.1671028" r="1.3333499"/>
	</g>
	<g transform="translate(259.3119,280.6875)">
		<circle class="st5" cx="-222.6559448" cy="62.6562538" r="1.3333499"/>
	</g>
	<g transform="translate(266.0406,279.2796)">
		<circle class="st5" cx="-226.0202942" cy="63.3602028" r="1.3333499"/>
	</g>
	<g transform="translate(272.6664,277.4478)">
		<circle class="st5" cx="-229.3332062" cy="64.2761002" r="1.3333499"/>
	</g>
	<g transform="translate(279.1627,275.1993)">
		<circle class="st5" cx="-232.5813446" cy="65.4003525" r="1.3333499"/>
	</g>
	<g transform="translate(285.5033,272.5435)">
		<circle class="st5" cx="-235.7516479" cy="66.7282639" r="1.3333499"/>
	</g>
	<g transform="translate(291.6627,269.4908)">
		<circle class="st5" cx="-238.8313446" cy="68.2546005" r="1.3333499"/>
	</g>
	<g transform="translate(297.6161,266.0536)">
		<circle class="st5" cx="-241.8080444" cy="69.9732132" r="1.3333499"/>
	</g>
	<g transform="translate(303.3395,262.2457)">
		<circle class="st5" cx="-244.669754" cy="71.8771591" r="1.3333499"/>
	</g>
	<g transform="translate(308.8099,258.0825)">
		<circle class="st5" cx="-247.404953" cy="73.9587631" r="1.3333499"/>
	</g>
	<g transform="translate(314.0052,253.5808)">
		<circle class="st5" cx="-250.002594" cy="76.20961" r="1.3333499"/>
	</g>
	<g transform="translate(318.9045,248.7586)">
		<circle class="st5" cx="-252.4522552" cy="78.6207047" r="1.3333499"/>
	</g>
	<g transform="translate(323.4882,243.6353)">
		<circle class="st5" cx="-254.7440948" cy="81.1823578" r="1.3333499"/>
	</g>
	<g transform="translate(327.7376,238.2317)">
		<circle class="st5" cx="-256.8688049" cy="83.8841553" r="1.3333499"/>
	</g>
	<g transform="translate(331.6358,232.5694)">
		<circle class="st5" cx="-258.8179016" cy="86.7153091" r="1.3333499"/>
	</g>
	<g transform="translate(335.167,226.6713)">
		<circle class="st5" cx="-260.5834961" cy="89.66436" r="1.3333499"/>
	</g>
	<g transform="translate(338.317,220.5611)">
		<circle class="st5" cx="-262.1584778" cy="92.7194595" r="1.3333499"/>
	</g>
	<g transform="translate(341.0732,214.2634)">
		<circle class="st5" cx="-263.5365906" cy="95.868309" r="1.3333499"/>
	</g>
	<g transform="translate(343.4244,207.8036)">
		<circle class="st5" cx="-264.7121887" cy="99.0982056" r="1.3333499"/>
	</g>
	<g transform="translate(345.3611,201.2077)">
		<circle class="st5" cx="-265.680542" cy="102.3961563" r="1.3333499"/>
	</g>
	<g transform="translate(346.8756,194.5022)">
		<circle class="st5" cx="-266.4378052" cy="105.748909" r="1.3333499"/>
	</g>
	<g transform="translate(347.9618,187.7142)">
		<circle class="st5" cx="-266.980896" cy="109.1429062" r="1.3333499"/>
	</g>
	<g transform="translate(348.6152,180.8709)">
		<circle class="st5" cx="-267.3075867" cy="112.5645599" r="1.3333499"/>
	</g>
	<g transform="translate(348.8333,174)">
		<circle class="st5" cx="-267.4166565" cy="116.0000076" r="1.3333499"/>
	</g>
</g>
<g>
	<path class="st0" d="M173.1676025,355.0082397h130.0049133V225.0033264H173.1676025V355.0082397z"/>
	<g>
		<line class="st1" x1="173.1676025" y1="355.0082397" x2="303.1725159" y2="355.0082397"/>
		<line class="st1" x1="173.1676025" y1="225.0033264" x2="303.1725159" y2="225.0033264"/>
		<line class="st1" x1="184.001358" y1="355.0082397" x2="184.001358" y2="353.7081604"/>
		<line class="st1" x1="238.1700592" y1="355.0082397" x2="238.1700592" y2="353.7081604"/>
		<line class="st1" x1="292.3387451" y1="355.0082397" x2="292.3387451" y2="353.7081604"/>
		<line class="st1" x1="184.001358" y1="225.0033264" x2="184.001358" y2="226.3033752"/>
		<line class="st1" x1="238.1700592" y1="225.0033264" x2="238.1700592" y2="226.3033752"/>
		<line class="st1" x1="292.3387451" y1="225.0033264" x2="292.3387451" y2="226.3033752"/>
	</g>
	<g transform="translate(132.1667,314.6667)">
		<g class="st2">
			<path class="st3" d="M49.3235359,55.5833168v0.8779297H45.988575v-0.8779297H49.3235359z"/>
			<path class="st3" d="M52.9143562,52.0047035H52.887989l-1.5263672,0.8237305l-0.2294922-0.9047852l1.9179688-1.0263672h1.0126953
				v8.777832h-1.1484375V52.0047035z"/>
		</g>
	</g>
	<g transform="translate(240.5,314.6667)">
		<g class="st2">
			<path class="st3" d="M0.1093775,55.1917152c0,2.984375-1.1074219,4.6318359-3.0517578,4.6318359
				c-1.714844,0-2.8769534-1.6069336-2.9033206-4.5102539c0-2.9438477,1.2695313-4.5644531,3.0517581-4.5644531
				C-0.9443334,50.7488441,0.1093775,52.3963051,0.1093775,55.1917152z M-4.6572242,55.3269691
				c0,2.2822266,0.7021487,3.5786133,1.7822268,3.5786133c1.2158202,0,1.7958983-1.4179688,1.7958983-3.659668
				c0-2.1606445-0.5537109-3.5786133-1.7822264-3.5786133C-3.9013646,51.6673012-4.6572242,52.9368324-4.6572242,55.3269691z"/>
		</g>
	</g>
	<g transform="translate(348.8333,314.6667)">
		<g class="st2">
			<path class="st3" d="M-57.3098717,52.0047035h-0.0263672l-1.5263672,0.8237305l-0.2294922-0.9047852l1.9179688-1.0263672
				h1.0126953v8.777832h-1.1484375V52.0047035z"/>
		</g>
	</g>
	<g transform="translate(240.5001,351.3333)">
		<g class="st2">
			<path class="st3" d="M-4.4288154,35.3263588l1,1.5078125c0.2617188,0.3911133,0.4785156,0.753418,0.7109375,1.1450195h0.0429688
				c0.2324219-0.4204102,0.4638672-0.7827148,0.6962891-1.159668l0.9853516-1.4931641h1.3769531l-2.3916016,3.3920898
				l2.4648438,3.6240234h-1.4501953l-1.0292969-1.5800781c-0.2753906-0.4057617-0.5068359-0.7973633-0.7539063-1.2177734h-0.0283203
				c-0.2324219,0.4204102-0.4785156,0.7973633-0.7392578,1.2177734l-1.0146484,1.5800781h-1.40625l2.4931641-3.5805664
				l-2.3769531-3.4355469H-4.4288154z"/>
		</g>
	</g>
	<g>
		<line class="st1" x1="173.1676025" y1="355.0082397" x2="173.1676025" y2="225.0033264"/>
		<line class="st1" x1="303.1725159" y1="355.0082397" x2="303.1725159" y2="225.0033264"/>
		<line class="st1" x1="173.1676025" y1="344.174469" x2="174.4676514" y2="344.174469"/>
		<line class="st1" x1="173.1676025" y1="317.0901489" x2="174.4676514" y2="317.0901489"/>
		<line class="st1" x1="173.1676025" y1="290.0057678" x2="174.4676514" y2="290.0057678"/>
		<line class="st1" x1="173.1676025" y1="262.9213867" x2="174.4676514" y2="262.9213867"/>
		<line class="st1" x1="173.1676025" y1="235.8370819" x2="174.4676514" y2="235.8370819"/>
		<line class="st1" x1="303.1725159" y1="344.174469" x2="301.872467" y2="344.174469"/>
		<line class="st1" x1="303.1725159" y1="317.0901489" x2="301.872467" y2="317.0901489"/>
		<line class="st1" x1="303.1725159" y1="290.0057678" x2="301.872467" y2="290.0057678"/>
		<line class="st1" x1="303.1725159" y1="262.9213867" x2="301.872467" y2="262.9213867"/>
		<line class="st1" x1="303.1725159" y1="235.8370819" x2="301.872467" y2="235.8370819"/>
	</g>
	<g transform="translate(99.8333,282.3333)">
		<g class="st2">
			<path class="st3" d="M59.2399483,63.2487221v0.8779335h-3.3349609v-0.8779335H59.2399483z"/>
			<path class="st3" d="M62.8307686,59.6701088h-0.0263672l-1.5263672,0.8237305l-0.2294922-0.9047852l1.9179688-1.0263672
				h1.0126953v8.7778358h-1.1484375V59.6701088z"/>
		</g>
	</g>
	<g transform="translate(99.8333,228.1667)">
		<g class="st2">
			<path class="st3" d="M48.2389717,90.3303757v0.8779297h-3.3349609v-0.8779297H48.2389717z"/>
			<path class="st3" d="M55.0846748,89.9387741c0,2.984375-1.1074219,4.6318359-3.0517578,4.6318359
				c-1.7148438,0-2.8769531-1.6069336-2.9033203-4.5102539c0-2.9438477,1.2695313-4.5644531,3.0517578-4.5644531
				C54.0309639,85.495903,55.0846748,87.143364,55.0846748,89.9387741z M50.3180733,90.074028
				c0,2.2822266,0.7021484,3.5786133,1.7822266,3.5786133c1.2158203,0,1.7958984-1.4179688,1.7958984-3.659668
				c0-2.1606445-0.5537109-3.5786133-1.7822266-3.5786133C51.0739326,86.41436,50.3180733,87.6838913,50.3180733,90.074028z"/>
			<path class="st3" d="M56.2711983,93.7200241c0-0.4995117,0.3378906-0.8505859,0.8105469-0.8505859
				s0.796875,0.3510742,0.796875,0.8505859c0,0.4863281-0.3105469,0.8505859-0.8105469,0.8505859
				C56.595417,94.57061,56.2711983,94.2063522,56.2711983,93.7200241z"/>
			<path class="st3" d="M64.2106476,86.6438522H60.861042l-0.3378906,2.2553711
				c0.203125-0.0273438,0.3925781-0.0541992,0.7158203-0.0541992c0.6757813,0,1.3505859,0.1484375,1.890625,0.4726563
				c0.6894531,0.3916016,1.2558556,1.1479492,1.2558556,2.2553711c0,1.7148438-1.3632774,2.9975586-3.2675743,2.9975586
				c-0.9589844,0-1.7695313-0.2700195-2.1875-0.5400391l0.296875-0.9047852
				c0.3642578,0.2163086,1.0800781,0.4863281,1.8769531,0.4863281c1.1210938,0,2.0800781-0.7294922,2.0800781-1.9042969
				c-0.0136719-1.1342773-0.7705078-1.9443359-2.5253906-1.9443359c-0.5,0-0.8916016,0.0537109-1.2158203,0.0942383
				l0.5673828-4.2133789h4.2001915V86.6438522z"/>
		</g>
	</g>
	<g transform="translate(99.8333,174)">
		<g class="st2">
			<path class="st3" d="M66.4401398,117.021492c0,2.984375-1.1074219,4.6318359-3.051754,4.6318359
				c-1.7148438,0-2.8769531-1.6069336-2.9033203-4.5102539c0-2.9438477,1.2695313-4.5644531,3.0517578-4.5644531
				C65.3864288,112.5786209,66.4401398,114.2260818,66.4401398,117.021492z M61.673542,117.1567459
				c0,2.2822266,0.7021484,3.5786133,1.7822266,3.5786133c1.2158165,0,1.7958946-1.4179688,1.7958946-3.659668
				c0-2.1606445-0.5537109-3.5786133-1.7822227-3.5786133C62.4294014,113.4970779,61.673542,114.7666092,61.673542,117.1567459z"/>
		</g>
	</g>
	<g transform="translate(99.8333,119.8333)">
		<g class="st2">
			<path class="st3" d="M55.4401436,144.1042023c0,2.984375-1.1074219,4.6318359-3.0517578,4.6318359
				c-1.7148438,0-2.8769531-1.6069336-2.9033203-4.5102539c0-2.9438477,1.2695313-4.5644531,3.0517578-4.5644531
				C54.3864326,139.6613312,55.4401436,141.3087921,55.4401436,144.1042023z M50.673542,144.2394562
				c0,2.2822266,0.7021484,3.5786133,1.7822266,3.5786133c1.2158203,0,1.7958984-1.4179688,1.7958984-3.659668
				c0-2.1606445-0.5537109-3.5786133-1.7822266-3.5786133C51.4294014,140.5797882,50.673542,141.8493195,50.673542,144.2394562z"/>
			<path class="st3" d="M56.626667,147.8854523c0-0.4995117,0.3378906-0.8505859,0.8105469-0.8505859
				s0.796875,0.3510742,0.796875,0.8505859c0,0.4863281-0.3105469,0.8505859-0.8105469,0.8505859
				C56.9508858,148.7360382,56.626667,148.3717804,56.626667,147.8854523z"/>
			<path class="st3" d="M64.5661163,140.8092804h-3.3496056l-0.3378906,2.2553711
				c0.203125-0.0273438,0.3925781-0.0541992,0.7158203-0.0541992c0.6757813,0,1.3505859,0.1484375,1.890625,0.4726563
				c0.6894493,0.3916016,1.2558556,1.1479492,1.2558556,2.2553711c0,1.7148438-1.3632774,2.9975586-3.2675743,2.9975586
				c-0.9589844,0-1.7695313-0.2700195-2.1875-0.5400391l0.296875-0.9047852
				c0.3642578,0.2163086,1.0800781,0.4863281,1.8769531,0.4863281c1.1210938,0,2.0800781-0.7294922,2.0800781-1.9042969
				c-0.0136719-1.1342773-0.7705078-1.9443359-2.5253906-1.9443359c-0.5,0-0.8916016,0.0537109-1.2158203,0.0942383
				l0.5673828-4.2133789h4.2001915V140.8092804z"/>
		</g>
	</g>
	<g transform="translate(99.8333,65.6667)">
		<g class="st2">
			<path class="st3" d="M63.1852608,167.9998016h-0.0263672l-1.5263672,0.8237305l-0.2294922-0.9047852l1.9179688-1.0263672
				h1.0126915v8.777832h-1.1484337V167.9998016z"/>
		</g>
	</g>
	<g transform="translate(44.8333,173.9999) rotate(-90)">
		<g class="st2">
			<path class="st3" d="M-118.2330246,84.982132l1.5366211,4.1455078c0.159668,0.4638672,0.3334961,1.0146484,0.4492188,1.4355469
				h0.0292969c0.1303711-0.4208984,0.2753906-0.9570313,0.4492188-1.4648438l1.3916016-4.1162109h1.3481445l-1.9135742,5.0009766
				c-0.9130859,2.40625-1.5366211,3.6386719-2.40625,4.3925781c-0.6230469,0.5507813-1.246582,0.7675781-1.5654297,0.8261719
				l-0.3188477-1.0732422c0.3188477-0.1015625,0.7392578-0.3037109,1.1162109-0.6230469
				c0.3476563-0.2753906,0.7827148-0.7685547,1.0727539-1.4208984c0.0576172-0.1298828,0.1010742-0.2314453,0.1010742-0.3037109
				c0-0.0732422-0.0288086-0.1748047-0.0869141-0.3339844l-2.5947266-6.4648438H-118.2330246z"/>
		</g>
	</g>
	<g transform="translate(240.5002,41.25)">
		<g class="st2">
			<path d="M-29.6535149,176.9643555c0,0.7250977,0.0146484,1.362793,0.0585938,1.9135742h-1.1308594l-0.0722656-1.1450195
				h-0.0292969c-0.3330078,0.5649414-1.0722656,1.3046875-2.3193359,1.3046875
				c-1.1015625,0-2.4208984-0.6088867-2.4208984-3.0732422v-4.1025391h1.2753906v3.8852539
				c0,1.3334961,0.40625,2.2319336,1.5654297,2.2319336c0.8554688,0,1.4501953-0.5942383,1.6816406-1.159668
				c0.0732422-0.1884766,0.1162109-0.4204102,0.1162109-0.6523438v-4.3051758h1.2753906V176.9643555z"/>
			<path d="M-27.5343742,173.7607422c0-0.7246094-0.0146484-1.3188477-0.0585938-1.8989258h1.1308594l0.0722656,1.159668h0.0292969
				c0.3476563-0.6665039,1.1591797-1.3188477,2.3193359-1.3188477c0.9707031,0,2.4785156,0.5795898,2.4785156,2.9858398v4.1894531
				h-1.2753906v-4.0444336c0-1.1303711-0.4208984-2.0727539-1.6240234-2.0727539
				c-0.8398438,0-1.4921875,0.5942383-1.7099609,1.3046875c-0.0576172,0.1591797-0.0869141,0.3769531-0.0869141,0.5942383v4.2182617
				h-1.2753906V173.7607422z"/>
			<path d="M-18.0666008,169.890625c0.0146484,0.4345703-0.3037109,0.7827148-0.8115234,0.7827148
				c-0.4492188,0-0.7685547-0.3481445-0.7685547-0.7827148c0-0.449707,0.3339844-0.7973633,0.7978516-0.7973633
				C-18.3703117,169.0932617-18.0666008,169.440918-18.0666008,169.890625z M-19.4865227,178.8779297v-7.0161133h1.2753906
				v7.0161133H-19.4865227z"/>
			<path d="M-14.5578127,169.847168v2.0146484h1.8261719v0.9711914h-1.8261719v3.7836914
				c0,0.8696289,0.2460938,1.3623047,0.9570313,1.3623047c0.3330078,0,0.5791016-0.043457,0.7392578-0.0869141l0.0576172,0.9570313
				c-0.2460938,0.1010742-0.6376953,0.1738281-1.1308594,0.1738281c-0.59375,0-1.0722656-0.1884766-1.3769531-0.5366211
				c-0.3623047-0.3764648-0.4931641-1-0.4931641-1.8261719v-3.8271484h-1.0869131v-0.9711914h1.0869131v-1.6811523
				L-14.5578127,169.847168z"/>
			<path d="M-3.2189455,178.6171875c-0.3339844,0.1738281-1.0732422,0.4057617-2.015625,0.4057617
				c-2.1162109,0-3.4931641-1.4350586-3.4931641-3.5805664c0-2.159668,1.4785156-3.7255859,3.7685547-3.7255859
				c0.7539063,0,1.4208984,0.1884766,1.7685547,0.362793l-0.2890625,0.9853516
				c-0.3046875-0.1738281-0.7832031-0.3334961-1.4794922-0.3334961c-1.6083984,0-2.4785156,1.1889648-2.4785156,2.652832
				c0,1.6235352,1.0439453,2.6240234,2.4355469,2.6240234c0.7246094,0,1.203125-0.1884766,1.5654297-0.3481445
				L-3.2189455,178.6171875z"/>
			<path d="M-0.3039064,169.890625c0.0146484,0.4345703-0.3037109,0.7827148-0.8115235,0.7827148
				c-0.4492188,0-0.7685547-0.3481445-0.7685547-0.7827148c0-0.449707,0.3339844-0.7973633,0.7978516-0.7973633
				C-0.6076173,169.0932617-0.3039064,169.440918-0.3039064,169.890625z M-1.7238283,178.8779297v-7.0161133h1.2753906v7.0161133
				H-1.7238283z"/>
			<path d="M1.6687498,174.0507813c0-0.8261719-0.0146484-1.5366211-0.0585938-2.1889648H2.726367l0.0439453,1.3774414h0.0576172
				c0.3193359-0.9423828,1.0869141-1.5366211,1.9423828-1.5366211c0.1455078,0,0.2460938,0.0141602,0.3623047,0.043457v1.203125
				c-0.1298828-0.0292969-0.2607422-0.043457-0.4345703-0.043457c-0.8984375,0-1.5371094,0.6811523-1.7109375,1.6376953
				c-0.0283203,0.1743164-0.0576172,0.3769531-0.0576172,0.5947266v3.7397461H1.6687498V174.0507813z"/>
			<path d="M11.2664061,178.6171875c-0.3339844,0.1738281-1.0732422,0.4057617-2.015625,0.4057617
				c-2.1162109,0-3.4931641-1.4350586-3.4931641-3.5805664c0-2.159668,1.4785156-3.7255859,3.7685547-3.7255859
				c0.7539063,0,1.4208984,0.1884766,1.7685547,0.362793l-0.2900391,0.9853516
				c-0.3037109-0.1738281-0.7822266-0.3334961-1.4785156-0.3334961c-1.6083984,0-2.4785156,1.1889648-2.4785156,2.652832
				c0,1.6235352,1.0439453,2.6240234,2.4355469,2.6240234c0.7246094,0,1.203125-0.1884766,1.5654297-0.3481445
				L11.2664061,178.6171875z"/>
			<path d="M12.7615232,168.5859375h1.2753906v10.2919922h-1.2753906V168.5859375z"/>
			<path d="M16.8933601,175.6020508c0.0292969,1.7246094,1.1308594,2.4350586,2.40625,2.4350586
				c0.9130859,0,1.4638672-0.1591797,1.9423828-0.3623047l0.2177734,0.9130859
				c-0.4492188,0.203125-1.2177734,0.4350586-2.3339844,0.4350586c-2.1601563,0-3.4501963-1.4204102-3.4501963-3.5371094
				c0-2.1162109,1.2470713-3.7832031,3.2910166-3.7832031c2.2900391,0,2.8984375,2.0146484,2.8984375,3.3046875
				c0,0.2612305-0.0283203,0.4638672-0.0429688,0.5947266H16.8933601z M20.6335945,174.6884766
				c0.0136719-0.8115234-0.3339844-2.0727539-1.7685547-2.0727539c-1.2900391,0-1.8554688,1.1884766-1.9570313,2.0727539H20.6335945
				z"/>
		</g>
	</g>
	<g>
		<path class="st4" d="M292.3387451,290.0057678l-0.1090393-3.4355774l-0.3267212-3.4217834l-0.5431213-3.394104
			l-0.7572632-3.3529053l-0.9684143-3.2980652l-1.1756287-3.230011l-1.3781738-3.1489868l-1.5750427-3.0552063l-1.7656555-2.9491577
			l-1.9491882-2.8312683l-2.1247864-2.701889l-2.2919312-2.5617523l-2.4497375-2.4111938l-2.5977478-2.2509308l-2.7352905-2.0816803
			l-2.8618164-1.9040222l-2.9768372-1.7186584l-3.0798035-1.526413l-3.1704102-1.3279419l-3.2482605-1.1242523l-3.3130493-0.9159851
			l-3.3644714-0.7039795l-3.4023132-0.4891663l-3.4265442-0.2723999l-3.4368744-0.0545654l-3.4334259,0.163559l-3.4161377,0.3809662
			l-3.3851166,0.5969238l-3.3404236,0.810379l-3.2823334,1.0205994l-3.2109222,1.2267456l-3.126709,1.4279022l-3.0298767,1.6233521
			l-2.9207458,1.8122253l-2.7999573,1.9938812l-2.6679077,2.1673737l-2.5249939,2.3322906l-2.3720398,2.4876862
			l-2.2094879,2.6331482l-2.0379791,2.7679443l-1.8583679,2.8916626l-1.6712036,3.0037231l-1.477356,3.1036682l-1.2775116,3.1910706
			l-1.0725861,3.2657166l-0.8632813,3.3271179l-0.6504822,3.3752441l-0.4351654,3.409668l-0.2180023,3.4303894v3.4373169
			l0.2180023,3.4303894l0.4351654,3.4096985l0.6504822,3.3752136l0.8632813,3.3271179l1.0725861,3.2657166l1.2775116,3.1910706
			l1.477356,3.1036682l1.6712036,3.0037231l1.8583679,2.8916626l2.0379791,2.7679443l2.2094879,2.6331482l2.3720398,2.4877014
			l2.5249939,2.3322754l2.6679077,2.1673889l2.7999573,1.993866l2.9207458,1.8122253l3.0298767,1.6233826l3.126709,1.427887
			l3.2109222,1.2267456l3.2823334,1.0205994l3.3404236,0.8103638l3.3851166,0.5969238l3.4161377,0.3809814l3.4334259,0.1635437
			l3.4368744-0.0545349l3.4265442-0.2724304l3.4023132-0.4891663l3.3644714-0.7039795l3.3130493-0.9159241l3.2482605-1.1242981
			l3.1704102-1.3279419l3.0798035-1.5263977l2.9768372-1.718689l2.8618164-1.9040222l2.7352905-2.081665l2.5977478-2.250946
			l2.4497375-2.4111938l2.2919312-2.5617371l2.1247864-2.7019043l1.9491882-2.8312683l1.7656555-2.9491577l1.5750427-3.0552063
			l1.3781738-3.1489563l1.1756287-3.2300415l0.9684143-3.2980652l0.7572632-3.3528748l0.5431213-3.3941345l0.3267212-3.4217834
			L292.3387451,290.0057678"/>
		<circle class="st5" cx="292.3387451" cy="290.0057678" r="1.3334002"/>
	</g>
	<g transform="translate(348.6152,167.1291)">
		<circle class="st5" cx="-56.3855057" cy="119.4410934" r="1.3334002"/>
	</g>
	<g transform="translate(347.9618,160.2858)">
		<circle class="st5" cx="-56.058815" cy="122.8626175" r="1.3334002"/>
	</g>
	<g transform="translate(346.8756,153.4978)">
		<circle class="st5" cx="-55.5157433" cy="126.256485" r="1.3334002"/>
	</g>
	<g transform="translate(345.3611,146.7923)">
		<circle class="st5" cx="-54.7585258" cy="129.6091156" r="1.3334002"/>
	</g>
	<g transform="translate(343.4244,140.1964)">
		<circle class="st5" cx="-53.7902069" cy="132.9069366" r="1.3334002"/>
	</g>
	<g transform="translate(341.0732,133.7366)">
		<circle class="st5" cx="-52.6146545" cy="136.1367188" r="1.3334002"/>
	</g>
	<g transform="translate(338.317,127.4389)">
		<circle class="st5" cx="-51.2365913" cy="139.2854462" r="1.3334002"/>
	</g>
	<g transform="translate(335.167,121.3287)">
		<circle class="st5" cx="-49.6616554" cy="142.3404388" r="1.3334002"/>
	</g>
	<g transform="translate(331.6358,115.4306)">
		<circle class="st5" cx="-47.8961258" cy="145.2893677" r="1.3334002"/>
	</g>
	<g transform="translate(327.7376,109.7683)">
		<circle class="st5" cx="-45.9471054" cy="148.1204071" r="1.3334002"/>
	</g>
	<g transform="translate(323.4882,104.3647)">
		<circle class="st5" cx="-43.8224754" cy="150.822113" r="1.3334002"/>
	</g>
	<g transform="translate(318.9045,99.2414)">
		<circle class="st5" cx="-41.5307198" cy="153.383667" r="1.3334002"/>
	</g>
	<g transform="translate(314.0052,94.4192)">
		<circle class="st5" cx="-39.0811539" cy="155.7946777" r="1.3334002"/>
	</g>
	<g transform="translate(308.8099,89.9175)">
		<circle class="st5" cx="-36.4836082" cy="158.0454407" r="1.3334002"/>
	</g>
	<g transform="translate(303.3395,85.7543)">
		<circle class="st5" cx="-33.7485123" cy="160.1269531" r="1.3334002"/>
	</g>
	<g transform="translate(297.6161,81.9464)">
		<circle class="st5" cx="-30.8869114" cy="162.030838" r="1.3334002"/>
	</g>
	<g transform="translate(291.6627,78.5092)">
		<circle class="st5" cx="-27.9103241" cy="163.7493744" r="1.3334002"/>
	</g>
	<g transform="translate(285.5033,75.4565)">
		<circle class="st5" cx="-24.8307438" cy="165.2756653" r="1.3334002"/>
	</g>
	<g transform="translate(279.1627,72.8007)">
		<circle class="st5" cx="-21.6605606" cy="166.6035156" r="1.3334002"/>
	</g>
	<g transform="translate(272.6664,70.5523)">
		<circle class="st5" cx="-18.4125443" cy="167.7276764" r="1.3334002"/>
	</g>
	<g transform="translate(266.0406,68.7204)">
		<circle class="st5" cx="-15.0997572" cy="168.6435852" r="1.3334002"/>
	</g>
	<g transform="translate(259.3119,67.3125)">
		<circle class="st5" cx="-11.7355347" cy="169.3475037" r="1.3334002"/>
	</g>
	<g transform="translate(252.5075,66.3342)">
		<circle class="st5" cx="-8.3334713" cy="169.8366394" r="1.3334002"/>
	</g>
	<g transform="translate(245.6547,65.7894)">
		<circle class="st5" cx="-4.9071946" cy="170.1090393" r="1.3334002"/>
	</g>
	<g transform="translate(238.7812,65.6803)">
		<circle class="st5" cx="-1.470579" cy="170.1635742" r="1.3334002"/>
	</g>
	<g transform="translate(231.9146,66.0074)">
		<circle class="st5" cx="1.9625946" cy="170.0000305" r="1.3334002"/>
	</g>
	<g transform="translate(225.0826,66.7693)">
		<circle class="st5" cx="5.3784661" cy="169.6190948" r="1.3334002"/>
	</g>
	<g transform="translate(218.3126,67.9631)">
		<circle class="st5" cx="8.7633333" cy="169.0222321" r="1.3334002"/>
	</g>
	<g transform="translate(211.632,69.5838)">
		<circle class="st5" cx="12.1035089" cy="168.2118988" r="1.3334002"/>
	</g>
	<g transform="translate(205.0676,71.6249)">
		<circle class="st5" cx="15.3855886" cy="167.191391" r="1.3334002"/>
	</g>
	<g transform="translate(198.646,74.0783)">
		<circle class="st5" cx="18.5962677" cy="165.9647369" r="1.3334002"/>
	</g>
	<g transform="translate(192.3928,76.934)">
		<circle class="st5" cx="21.722744" cy="164.5369415" r="1.3334002"/>
	</g>
	<g transform="translate(186.3333,80.1806)">
		<circle class="st5" cx="24.7523842" cy="162.9136963" r="1.3334002"/>
	</g>
	<g transform="translate(180.492,83.8049)">
		<circle class="st5" cx="27.6729221" cy="161.1016235" r="1.3334002"/>
	</g>
	<g transform="translate(174.8923,87.7925)">
		<circle class="st5" cx="30.4726658" cy="159.1078949" r="1.3334002"/>
	</g>
	<g transform="translate(169.5567,92.1271)">
		<circle class="st5" cx="33.1403656" cy="156.9406738" r="1.3334002"/>
	</g>
	<g transform="translate(164.5069,96.7915)">
		<circle class="st5" cx="35.6651726" cy="154.6085663" r="1.3334002"/>
	</g>
	<g transform="translate(159.763,101.7667)">
		<circle class="st5" cx="38.0370331" cy="152.1210632" r="1.3334002"/>
	</g>
	<g transform="translate(155.3442,107.0328)">
		<circle class="st5" cx="40.2463531" cy="149.4881134" r="1.3334002"/>
	</g>
	<g transform="translate(151.2684,112.5685)">
		<circle class="st5" cx="42.2841721" cy="146.7203674" r="1.3334002"/>
	</g>
	<g transform="translate(147.5518,118.3516)">
		<circle class="st5" cx="44.1423988" cy="143.8289185" r="1.3334002"/>
	</g>
	<g transform="translate(144.2095,124.3588)">
		<circle class="st5" cx="45.813488" cy="140.8254395" r="1.3334002"/>
	</g>
	<g transform="translate(141.2549,130.5659)">
		<circle class="st5" cx="47.2907333" cy="137.7220001" r="1.3334002"/>
	</g>
	<g transform="translate(138.7,136.9478)">
		<circle class="st5" cx="48.5681381" cy="134.5311737" r="1.3334002"/>
	</g>
	<g transform="translate(136.5549,143.479)">
		<circle class="st5" cx="49.6406441" cy="131.2657013" r="1.3334002"/>
	</g>
	<g transform="translate(134.8284,150.133)">
		<circle class="st5" cx="50.5038605" cy="127.9388275" r="1.3334002"/>
	</g>
	<g transform="translate(133.5275,156.8832)">
		<circle class="st5" cx="51.1542892" cy="124.5638504" r="1.3334002"/>
	</g>
	<g transform="translate(132.6572,163.7023)">
		<circle class="st5" cx="51.5894241" cy="121.1544266" r="1.3334002"/>
	</g>
	<g transform="translate(132.2212,170.5628)">
		<circle class="st5" cx="51.8074074" cy="117.7243042" r="1.3334002"/>
	</g>
	<g transform="translate(132.2212,177.4372)">
		<circle class="st5" cx="51.8074074" cy="114.2872391" r="1.3334002"/>
	</g>
	<g transform="translate(132.6572,184.2977)">
		<circle class="st5" cx="51.5894241" cy="110.8571167" r="1.3334002"/>
	</g>
	<g transform="translate(133.5275,191.1168)">
		<circle class="st5" cx="51.1542892" cy="107.4476929" r="1.3334002"/>
	</g>
	<g transform="translate(134.8284,197.867)">
		<circle class="st5" cx="50.5038605" cy="104.0727234" r="1.3334002"/>
	</g>
	<g transform="translate(136.5549,204.521)">
		<circle class="st5" cx="49.6406441" cy="100.7458496" r="1.3334002"/>
	</g>
	<g transform="translate(138.7,211.0522)">
		<circle class="st5" cx="48.5681381" cy="97.4803696" r="1.3334002"/>
	</g>
	<g transform="translate(141.2549,217.4341)">
		<circle class="st5" cx="47.2907333" cy="94.2895432" r="1.3334002"/>
	</g>
	<g transform="translate(144.2095,223.6412)">
		<circle class="st5" cx="45.813488" cy="91.1861038" r="1.3334002"/>
	</g>
	<g transform="translate(147.5518,229.6484)">
		<circle class="st5" cx="44.1423988" cy="88.1826172" r="1.3334002"/>
	</g>
	<g transform="translate(151.2684,235.4315)">
		<circle class="st5" cx="42.2841721" cy="85.2911835" r="1.3334002"/>
	</g>
	<g transform="translate(155.3442,240.9672)">
		<circle class="st5" cx="40.2463531" cy="82.5234375" r="1.3334002"/>
	</g>
	<g transform="translate(159.763,246.2333)">
		<circle class="st5" cx="38.0370331" cy="79.89048" r="1.3334002"/>
	</g>
	<g transform="translate(164.5069,251.2085)">
		<circle class="st5" cx="35.6651726" cy="77.4029846" r="1.3334002"/>
	</g>
	<g transform="translate(169.5567,255.8729)">
		<circle class="st5" cx="33.1403656" cy="75.0708694" r="1.3334002"/>
	</g>
	<g transform="translate(174.8923,260.2075)">
		<circle class="st5" cx="30.4726658" cy="72.903656" r="1.3334002"/>
	</g>
	<g transform="translate(180.492,264.1951)">
		<circle class="st5" cx="27.6729221" cy="70.9099274" r="1.3334002"/>
	</g>
	<g transform="translate(186.3333,267.8194)">
		<circle class="st5" cx="24.7523842" cy="69.097847" r="1.3334002"/>
	</g>
	<g transform="translate(192.3928,271.066)">
		<circle class="st5" cx="21.722744" cy="67.4746017" r="1.3334002"/>
	</g>
	<g transform="translate(198.646,273.9217)">
		<circle class="st5" cx="18.5962677" cy="66.046814" r="1.3334002"/>
	</g>
	<g transform="translate(205.0676,276.3751)">
		<circle class="st5" cx="15.3855886" cy="64.8201599" r="1.3334002"/>
	</g>
	<g transform="translate(211.632,278.4162)">
		<circle class="st5" cx="12.1035089" cy="63.7996445" r="1.3334002"/>
	</g>
	<g transform="translate(218.3126,280.0369)">
		<circle class="st5" cx="8.7633333" cy="62.9893265" r="1.3334002"/>
	</g>
	<g transform="translate(225.0826,281.2307)">
		<circle class="st5" cx="5.3784661" cy="62.3924408" r="1.3334002"/>
	</g>
	<g transform="translate(231.9146,281.9926)">
		<circle class="st5" cx="1.9625946" cy="62.0115013" r="1.3334002"/>
	</g>
	<g transform="translate(238.7812,282.3197)">
		<circle class="st5" cx="-1.470579" cy="61.8479652" r="1.3334002"/>
	</g>
	<g transform="translate(245.6547,282.2106)">
		<circle class="st5" cx="-4.9071946" cy="61.9025154" r="1.3334002"/>
	</g>
	<g transform="translate(252.5075,281.6658)">
		<circle class="st5" cx="-8.3334713" cy="62.1749039" r="1.3334002"/>
	</g>
	<g transform="translate(259.3119,280.6875)">
		<circle class="st5" cx="-11.7355347" cy="62.6640358" r="1.3334002"/>
	</g>
	<g transform="translate(266.0406,279.2796)">
		<circle class="st5" cx="-15.0997572" cy="63.3679581" r="1.3334002"/>
	</g>
	<g transform="translate(272.6664,277.4478)">
		<circle class="st5" cx="-18.4125443" cy="64.2838211" r="1.3334002"/>
	</g>
	<g transform="translate(279.1627,275.1993)">
		<circle class="st5" cx="-21.6605606" cy="65.4080276" r="1.3334002"/>
	</g>
	<g transform="translate(285.5033,272.5435)">
		<circle class="st5" cx="-24.8307438" cy="66.7358856" r="1.3334002"/>
	</g>
	<g transform="translate(291.6627,269.4908)">
		<circle class="st5" cx="-27.9103241" cy="68.2621689" r="1.3334002"/>
	</g>
	<g transform="translate(297.6161,266.0536)">
		<circle class="st5" cx="-30.8869114" cy="69.9807129" r="1.3334002"/>
	</g>
	<g transform="translate(303.3395,262.2457)">
		<circle class="st5" cx="-33.7485123" cy="71.8845901" r="1.3334002"/>
	</g>
	<g transform="translate(308.8099,258.0825)">
		<circle class="st5" cx="-36.4836082" cy="73.9661179" r="1.3334002"/>
	</g>
	<g transform="translate(314.0052,253.5808)">
		<circle class="st5" cx="-39.0811539" cy="76.2168808" r="1.3334002"/>
	</g>
	<g transform="translate(318.9045,248.7586)">
		<circle class="st5" cx="-41.5307198" cy="78.6278839" r="1.3334002"/>
	</g>
	<g transform="translate(323.4882,243.6353)">
		<circle class="st5" cx="-43.8224754" cy="81.1894379" r="1.3334002"/>
	</g>
	<g transform="translate(327.7376,238.2317)">
		<circle class="st5" cx="-45.9471054" cy="83.8911362" r="1.3334002"/>
	</g>
	<g transform="translate(331.6358,232.5694)">
		<circle class="st5" cx="-47.8961258" cy="86.7221832" r="1.3334002"/>
	</g>
	<g transform="translate(335.167,226.6713)">
		<circle class="st5" cx="-49.6616554" cy="89.6711197" r="1.3334002"/>
	</g>
	<g transform="translate(338.317,220.5611)">
		<circle class="st5" cx="-51.2365913" cy="92.7261047" r="1.3334002"/>
	</g>
	<g transform="translate(341.0732,214.2634)">
		<circle class="st5" cx="-52.6146545" cy="95.8748322" r="1.3334002"/>
	</g>
	<g transform="translate(343.4244,207.8036)">
		<circle class="st5" cx="-53.7902069" cy="99.1046066" r="1.3334002"/>
	</g>
	<g transform="translate(345.3611,201.2077)">
		<circle class="st5" cx="-54.7585258" cy="102.4024353" r="1.3334002"/>
	</g>
	<g transform="translate(346.8756,194.5022)">
		<circle class="st5" cx="-55.5157433" cy="105.7550583" r="1.3334002"/>
	</g>
	<g transform="translate(347.9618,187.7142)">
		<circle class="st5" cx="-56.058815" cy="109.1489334" r="1.3334002"/>
	</g>
	<g transform="translate(348.6152,180.8709)">
		<circle class="st5" cx="-56.3855057" cy="112.5704575" r="1.3334002"/>
	</g>
	<g transform="translate(348.8333,174)">
		<circle class="st5" cx="-56.4945564" cy="116.0057755" r="1.3334002"/>
	</g>
	<g transform="translate(240.5,174)">
		<circle class="st6" cx="-2.5799541" cy="115.7557678" r="4.0001507"/>
	</g>
</g>
</svg>
