<?xml version="1.0" encoding="utf-8"?>
<!-- Generator: Adobe Illustrator 19.0.0, SVG Export Plug-In . SVG Version: 6.00 Build 0)  -->
<svg version="1.1" id="Layer_1" xmlns="http://www.w3.org/2000/svg" xmlns:xlink="http://www.w3.org/1999/xlink" x="0px" y="0px"
	 viewBox="-64.25 187.5 415.75 145" style="enable-background:new -64.25 187.5 415.75 145;" xml:space="preserve">
<style type="text/css">
	.st0{fill:#FFFFFF;}
	.st1{fill:none;stroke:#262626;stroke-width:1.3333;stroke-linecap:square;stroke-linejoin:round;stroke-miterlimit:10;}
	.st2{enable-background:new    ;}
	.st3{fill:#262626;}
	.st4{fill:none;stroke:#FF0000;stroke-width:1.3333;stroke-linejoin:round;stroke-miterlimit:10;}
</style>
<g>
	<path class="st0" d="M-45.5405922,311.8234253h175.6161957V192.9671631H-45.5405922V311.8234253z"/>
	<g>
		<line class="st1" x1="-45.5405922" y1="311.8234253" x2="130.0756073" y2="311.8234253"/>
		<line class="st1" x1="-45.5405922" y1="192.9671631" x2="130.0756073" y2="192.9671631"/>
		<line class="st1" x1="-45.5405922" y1="311.8234253" x2="-45.5405922" y2="310.0672607"/>
		<line class="st1" x1="-1.6365405" y1="311.8234253" x2="-1.6365405" y2="310.0672607"/>
		<line class="st1" x1="42.2675095" y1="311.8234253" x2="42.2675095" y2="310.0672607"/>
		<line class="st1" x1="86.1715622" y1="311.8234253" x2="86.1715622" y2="310.0672607"/>
		<line class="st1" x1="130.0756073" y1="311.8234253" x2="130.0756073" y2="310.0672607"/>
		<line class="st1" x1="-45.5405922" y1="192.9671631" x2="-45.5405922" y2="194.7233276"/>
		<line class="st1" x1="-1.6365405" y1="192.9671631" x2="-1.6365405" y2="194.7233276"/>
		<line class="st1" x1="42.2675095" y1="192.9671631" x2="42.2675095" y2="194.7233276"/>
		<line class="st1" x1="86.1715622" y1="192.9671631" x2="86.1715622" y2="194.7233276"/>
		<line class="st1" x1="130.0756073" y1="192.9671631" x2="130.0756073" y2="194.7233276"/>
	</g>
	<g transform="translate(61,278.6667)">
		<g class="st2">
			<path class="st3" d="M-108.9790039,47.9475708v0.8510742h-3.2338867v-0.8510742H-108.9790039z"/>
			<path class="st3" d="M-105.4946289,44.4778442h-0.0263672l-1.4794922,0.7988281l-0.222168-0.8769531l1.8588867-0.9951172
				h0.9819336v8.5097656h-1.112793V44.4778442z"/>
		</g>
	</g>
	<g transform="translate(151.5,278.6667)">
		<g class="st2">
			<path class="st3" d="M-160.9106445,47.9475708v0.8510742h-3.2338867v-0.8510742H-160.9106445z"/>
			<path class="st3" d="M-154.2709961,47.567688c0,2.8935547-1.0737305,4.4907227-2.9589844,4.4907227
				c-1.6625977,0-2.7885742-1.5581055-2.8149414-4.3725586c0-2.8544922,1.230957-4.425293,2.9589844-4.425293
				C-155.2924805,43.2605591-154.2709961,44.8577271-154.2709961,47.567688z M-158.8925781,47.6985474
				c0,2.2128906,0.6806641,3.4697266,1.7280273,3.4697266c1.1782227,0,1.7412109-1.375,1.7412109-3.5478516
				c0-2.0947266-0.5366211-3.4697266-1.7280273-3.4697266C-158.159668,44.1506958-158.8925781,45.3816528-158.8925781,47.6985474z"
				/>
			<path class="st3" d="M-153.1162109,51.2337036c0-0.484375,0.3276367-0.824707,0.7856445-0.824707
				s0.7724609,0.340332,0.7724609,0.824707c0,0.4711914-0.3012695,0.824707-0.7856445,0.824707
				C-152.8017578,52.0584106-153.1162109,51.704895-153.1162109,51.2337036z"/>
			<path class="st3" d="M-145.4169922,44.3733521h-3.2470703l-0.3271484,2.1865234
				c0.1962891-0.0263672,0.3798828-0.0527344,0.6938477-0.0527344c0.6547852,0,1.309082,0.144043,1.8330078,0.4584961
				c0.6674805,0.3793945,1.2172852,1.112793,1.2172852,2.1865234c0,1.6625977-1.3222656,2.90625-3.1679688,2.90625
				c-0.9296875,0-1.715332-0.2617188-2.1210938-0.5239258l0.2880859-0.8769531
				c0.3535156,0.2094727,1.0473633,0.4711914,1.8198242,0.4711914c1.0864258,0,2.0161133-0.7070313,2.0161133-1.8457031
				c-0.0131836-1.1000977-0.7460938-1.8852539-2.4482422-1.8852539c-0.484375,0-0.8642578,0.0522461-1.1782227,0.0913086
				l0.5498047-4.0844727h4.0717773V44.3733521z"/>
		</g>
	</g>
	<g transform="translate(242,278.6667)">
		<g class="st2">
			<path class="st3" d="M-197.3691406,47.567688c0,2.8935547-1.0737305,4.4907227-2.9589844,4.4907227
				c-1.6625977,0-2.7885742-1.5581055-2.8149414-4.3725586c0-2.8544922,1.230957-4.425293,2.9589844-4.425293
				C-198.390625,43.2605591-197.3691406,44.8577271-197.3691406,47.567688z M-201.9907227,47.6985474
				c0,2.2128906,0.6806641,3.4697266,1.7280273,3.4697266c1.1782227,0,1.7412109-1.375,1.7412109-3.5478516
				c0-2.0947266-0.5366211-3.4697266-1.7280273-3.4697266C-201.2578125,44.1506958-201.9907227,45.3816528-201.9907227,47.6985474z"
				/>
		</g>
	</g>
	<g transform="translate(332.5,278.6667)">
		<g class="st2">
			<path class="st3" d="M-249.3007813,47.567688c0,2.8935547-1.0737305,4.4907227-2.9589844,4.4907227
				c-1.6625977,0-2.7885742-1.5581055-2.8149414-4.3725586c0-2.8544922,1.230957-4.425293,2.9589844-4.425293
				C-250.3222656,43.2605591-249.3007813,44.8577271-249.3007813,47.567688z M-253.9223633,47.6985474
				c0,2.2128906,0.6806641,3.4697266,1.7280273,3.4697266c1.1782227,0,1.7412109-1.375,1.7412109-3.5478516
				c0-2.0947266-0.5366211-3.4697266-1.7280273-3.4697266C-253.1894531,44.1506958-253.9223633,45.3816528-253.9223633,47.6985474z"
				/>
			<path class="st3" d="M-248.1459961,51.2337036c0-0.484375,0.3276367-0.824707,0.7856445-0.824707
				s0.7724609,0.340332,0.7724609,0.824707c0,0.4711914-0.3012695,0.824707-0.7856445,0.824707
				C-247.831543,52.0584106-248.1459961,51.704895-248.1459961,51.2337036z"/>
			<path class="st3" d="M-240.4462891,44.3733521h-3.2470703l-0.3271484,2.1865234
				c0.1962891-0.0263672,0.3798828-0.0527344,0.6938477-0.0527344c0.6547852,0,1.309082,0.144043,1.8330078,0.4584961
				c0.6674805,0.3793945,1.2172852,1.112793,1.2172852,2.1865234c0,1.6625977-1.3222656,2.90625-3.1679688,2.90625
				c-0.9296875,0-1.715332-0.2617188-2.1210938-0.5239258l0.2880859-0.8769531
				c0.3535156,0.2094727,1.0473633,0.4711914,1.8198242,0.4711914c1.0864258,0,2.0161133-0.7070313,2.0161133-1.8457031
				c-0.0131836-1.1000977-0.7460938-1.8852539-2.4482422-1.8852539c-0.484375,0-0.8642578,0.0522461-1.1782227,0.0913086
				l0.5498047-4.0844727h4.0717773V44.3733521z"/>
		</g>
	</g>
	<g transform="translate(423,278.6667)">
		<g class="st2">
			<path class="st3" d="M-293.7158203,44.4778442h-0.0263672l-1.4794922,0.7988281l-0.2226563-0.8769531l1.859375-0.9951172
				h0.9819336v8.5097656h-1.112793V44.4778442z"/>
		</g>
	</g>
	<g>
		<line class="st1" x1="-45.5405922" y1="311.8234253" x2="-45.5405922" y2="192.9671631"/>
		<line class="st1" x1="130.0756073" y1="311.8234253" x2="130.0756073" y2="192.9671631"/>
		<line class="st1" x1="-45.5405922" y1="311.8234253" x2="-43.7844276" y2="311.8234253"/>
		<line class="st1" x1="-45.5405922" y1="252.3952942" x2="-43.7844276" y2="252.3952942"/>
		<line class="st1" x1="-45.5405922" y1="192.9671631" x2="-43.7844276" y2="192.9671631"/>
		<line class="st1" x1="130.0756073" y1="311.8234253" x2="128.319458" y2="311.8234253"/>
		<line class="st1" x1="130.0756073" y1="252.3952942" x2="128.319458" y2="252.3952942"/>
		<line class="st1" x1="130.0756073" y1="192.9671631" x2="128.319458" y2="192.9671631"/>
	</g>
	<g transform="translate(50.3333,268)">
		<g class="st2">
			<path class="st3" d="M-109.5505905,45.1923828v0.8510742h-3.2338867v-0.8510742H-109.5505905z"/>
			<path class="st3" d="M-106.0662155,41.7226563h-0.0263672l-1.4794922,0.7988281l-0.222168-0.8769531l1.8588867-0.9951172
				h0.9819336v8.5097656h-1.112793V41.7226563z"/>
		</g>
	</g>
	<g transform="translate(50.3333,145.5)">
		<g class="st2">
			<path class="st3" d="M-102.5657272,107.8847656c0,2.8935547-1.0737305,4.4907227-2.9589844,4.4907227
				c-1.6625977,0-2.7885742-1.5581055-2.8149414-4.3725586c0-2.8544922,1.230957-4.425293,2.9589844-4.425293
				C-103.5872116,103.5776367-102.5657272,105.1748047-102.5657272,107.8847656z M-107.1873093,108.015625
				c0,2.2128906,0.6806641,3.4697266,1.7280273,3.4697266c1.1782227,0,1.7412109-1.375,1.7412109-3.5478516
				c0-2.0947266-0.5366211-3.4697266-1.7280273-3.4697266C-106.4543991,104.4677734-107.1873093,105.6987305-107.1873093,108.015625
				z"/>
		</g>
	</g>
	<g transform="translate(50.3333,23)">
		<g class="st2">
			<path class="st3" d="M-105.7210007,167.8671875h-0.0263672l-1.4794922,0.7983398l-0.2226563-0.8769531l1.859375-0.9951172
				h0.9819336v8.5097656h-1.112793V167.8671875z"/>
		</g>
	</g>
	<g>
		<path class="st4" d="M130.0756073,252.3952942l-0.1767731-3.7691498l-0.5296631-3.7540131l-0.8803558-3.7236938
			l-1.2275696-3.6783905l-1.5697861-3.6183167l-1.9057159-3.5436707l-2.2339706-3.4546814l-2.5532303-3.3518524
			l-2.8621445-3.2355042l-3.1596375-3.1061249l-3.4443054-2.9642792l-3.7152634-2.8104401l-3.9710541-2.6453094
			l-4.2110062-2.4694977l-4.4339294-2.2838287l-4.6390305-2.0888672l-4.8254089-1.885498l-4.9924622-1.6746063l-5.1392899-1.4569397
			l-5.2654724-1.2333832l-5.3704681-1.0048981l-5.4538536-0.7723236L52,193.3333282l-5.5544205-0.2988281l-5.5712128-0.0598755
			l-5.5656204,0.1794586l-5.5376396,0.417984l-5.4872818,0.6548157l-5.4148922,0.8890533l-5.3206358,1.1197205l-5.2050333,1.3458405
			l-5.0684199,1.5665741l-4.9113841,1.7809601l-4.7346063,1.9881897l-4.5388036,2.187439l-4.3246212,2.3778534l-4.0931206,2.5587158
			l-3.8450699,2.7292328l-3.5815525,2.8887787l-3.3036728,3.0367584l-3.0123978,3.1723938l-2.709053,3.2953339l-2.3947792,3.405014
			l-2.0709152,3.5009155l-1.7385979,3.5828094l-1.3994026,3.6502075l-1.0544739,3.7028809l-0.7053757,3.7407227
			l-0.3534164,3.7634735v3.7710876l0.3534164,3.7634735l0.7053757,3.7407227l1.0544739,3.7028809l1.3994026,3.6502075
			l1.7385979,3.5828247l2.0709152,3.5009155l2.3947792,3.4049988l2.709053,3.2953491l3.0123978,3.1723633l3.3036728,3.0367737
			l3.5815525,2.8887939l3.8450699,2.7292175l4.0931206,2.5587158l4.3246212,2.3778381l4.5388036,2.1874695l4.7346063,1.9881897
			l4.9113841,1.7809448l5.0684199,1.5665894l5.2050333,1.3458252l5.3206358,1.1197205l5.4148922,0.8890381l5.4872818,0.6548462
			l5.5376396,0.4179688l5.5656204,0.1794434l5.5712128-0.059845L52,311.4572449l5.5152168-0.5366821l5.4538536-0.7723389
			l5.3704681-1.0048828l5.2654724-1.2333984l5.1392899-1.4569092l4.9924622-1.6746216l4.8254089-1.885498l4.6390305-2.0888672
			l4.4339294-2.283844l4.2110062-2.4694824l3.9710541-2.6452942l3.7152634-2.8104553l3.4443054-2.9642639l3.1596375-3.1061401
			l2.8621445-3.2355042l2.5532303-3.3518372l2.2339706-3.4547119l1.9057159-3.5436401l1.5697861-3.6183472l1.2275696-3.6783752
			l0.8803558-3.7236938l0.5296631-3.7540283L130.0756073,252.3952942"/>
	</g>
</g>
<g>
	<path class="st0" d="M173.1102905,311.8258057h175.993988V192.9671478h-175.993988V311.8258057z"/>
	<g>
		<line class="st1" x1="173.1102905" y1="311.8258057" x2="349.1042786" y2="311.8258057"/>
		<line class="st1" x1="173.1102905" y1="192.9671478" x2="349.1042786" y2="192.9671478"/>
		<line class="st1" x1="201.6554871" y1="311.8258057" x2="201.6554871" y2="310.0658875"/>
		<line class="st1" x1="231.3739166" y1="311.8258057" x2="231.3739166" y2="310.0658875"/>
		<line class="st1" x1="261.0923157" y1="311.8258057" x2="261.0923157" y2="310.0658875"/>
		<line class="st1" x1="290.8107605" y1="311.8258057" x2="290.8107605" y2="310.0658875"/>
		<line class="st1" x1="320.5291138" y1="311.8258057" x2="320.5291138" y2="310.0658875"/>
		<line class="st1" x1="201.6554871" y1="192.9671478" x2="201.6554871" y2="194.7270966"/>
		<line class="st1" x1="231.3739166" y1="192.9671478" x2="231.3739166" y2="194.7270966"/>
		<line class="st1" x1="261.0923157" y1="192.9671478" x2="261.0923157" y2="194.7270966"/>
		<line class="st1" x1="290.8107605" y1="192.9671478" x2="290.8107605" y2="194.7270966"/>
		<line class="st1" x1="320.5291138" y1="192.9671478" x2="320.5291138" y2="194.7270966"/>
	</g>
	<g transform="translate(119.7143,281.4062)">
		<g class="st2">
			<path class="st3" d="M79.4995651,45.2417603v0.8535156h-3.2412109v-0.8535156H79.4995651z"/>
			<path class="st3" d="M82.9907761,41.7651978h-0.0263672l-1.4824219,0.7998047l-0.2226563-0.8789063l1.8632813-0.9970703
				h0.9833984v8.5292969h-1.1152344V41.7651978z"/>
		</g>
	</g>
	<g transform="translate(180.8418,281.4062)">
		<g class="st2">
			<path class="st3" d="M42.7421875,45.2417603v0.8535156h-3.2412109v-0.8535156H42.7421875z"/>
			<path class="st3" d="M49.3964844,44.8618774c0,2.8994141-1.0761719,4.5009766-2.9658203,4.5009766
				c-1.6669922,0-2.7949219-1.5615234-2.8212891-4.3828125c0-2.8613281,1.2333984-4.4355469,2.9658203-4.4355469
				C48.3730469,40.5444946,49.3964844,42.1450806,49.3964844,44.8618774z M44.7636719,44.9927368
				c0,2.2177734,0.6826172,3.4775391,1.7324219,3.4775391c1.1806641,0,1.7451172-1.3779297,1.7451172-3.5566406
				c0-2.0996094-0.5380859-3.4765625-1.7324219-3.4765625C45.4990234,41.4370728,44.7636719,42.6704712,44.7636719,44.9927368z"/>
			<path class="st3" d="M50.5527344,48.5357056c0-0.4853516,0.328125-0.8261719,0.7871094-0.8261719
				s0.7744141,0.3408203,0.7744141,0.8261719c0,0.4726563-0.3017578,0.8271484-0.7871094,0.8271484
				C50.8671875,49.362854,50.5527344,49.0083618,50.5527344,48.5357056z"/>
			<path class="st3" d="M58.2685547,41.659729h-3.2539063l-0.328125,2.1914063
				c0.1972656-0.0263672,0.3808594-0.0527344,0.6953125-0.0527344c0.65625,0,1.3125,0.1445313,1.8369141,0.4599609
				c0.6699219,0.3798828,1.2207031,1.1152344,1.2207031,2.1914063c0,1.6660156-1.3251953,2.9130859-3.1757813,2.9130859
				c-0.9316406,0-1.71875-0.2626953-2.1259766-0.5253906l0.2890625-0.8789063
				c0.3544922,0.2099609,1.0498047,0.4726563,1.8242188,0.4726563c1.0888672,0,2.0205078-0.7089844,2.0205078-1.8505859
				c-0.0126953-1.1025391-0.7480469-1.8896484-2.4541016-1.8896484c-0.4853516,0-0.8652344,0.0527344-1.1806641,0.0917969
				l0.5507813-4.09375h4.0810547V41.659729z"/>
		</g>
	</g>
	<g transform="translate(241.9692,281.4062)">
		<g class="st2">
			<path class="st3" d="M21.4936981,44.8618774c0,2.8994141-1.0761719,4.5009766-2.9658203,4.5009766
				c-1.6669922,0-2.7949228-1.5615234-2.82129-4.3828125c0-2.8613281,1.2333994-4.4355469,2.9658213-4.4355469
				C20.4702606,40.5444946,21.4936981,42.1450806,21.4936981,44.8618774z M16.8608856,44.9927368
				c0,2.2177734,0.6826172,3.4775391,1.7324219,3.4775391c1.1806641,0,1.7451172-1.3779297,1.7451172-3.5566406
				c0-2.0996094-0.5380859-3.4765625-1.7324219-3.4765625C17.5962372,41.4370728,16.8608856,42.6704712,16.8608856,44.9927368z"/>
		</g>
	</g>
	<g transform="translate(303.0967,281.4062)">
		<g class="st2">
			<path class="st3" d="M-15.2627258,44.8618774c0,2.8994141-1.0761719,4.5009766-2.9658203,4.5009766
				c-1.6669922,0-2.7949219-1.5615234-2.8212891-4.3828125c0-2.8613281,1.2333984-4.4355469,2.9658203-4.4355469
				C-16.2861633,40.5444946-15.2627258,42.1450806-15.2627258,44.8618774z M-19.8955383,44.9927368
				c0,2.2177734,0.6826172,3.4775391,1.7324219,3.4775391c1.1806641,0,1.7451172-1.3779297,1.7451172-3.5566406
				c0-2.0996094-0.5380859-3.4765625-1.7324219-3.4765625C-19.1601868,41.4370728-19.8955383,42.6704712-19.8955383,44.9927368z"/>
			<path class="st3" d="M-14.1064758,48.5357056c0-0.4853516,0.328125-0.8261719,0.7871094-0.8261719
				s0.7744141,0.3408203,0.7744141,0.8261719c0,0.4726563-0.3017578,0.8271484-0.7871094,0.8271484
				C-13.7920227,49.362854-14.1064758,49.0083618-14.1064758,48.5357056z"/>
			<path class="st3" d="M-6.3906555,41.659729h-3.2539063l-0.328125,2.1914063
				c0.1972656-0.0263672,0.3808594-0.0527344,0.6953125-0.0527344c0.65625,0,1.3125,0.1445313,1.8369141,0.4599609
				c0.6699219,0.3798828,1.2207031,1.1152344,1.2207031,2.1914063c0,1.6660156-1.3251953,2.9130859-3.1757813,2.9130859
				c-0.9316406,0-1.71875-0.2626953-2.1259766-0.5253906l0.2890625-0.8789063
				c0.3544922,0.2099609,1.0498047,0.4726563,1.8242188,0.4726563c1.0888672,0,2.0205078-0.7089844,2.0205078-1.8505859
				c-0.0126953-1.1025391-0.7480469-1.8896484-2.4541016-1.8896484c-0.4853516,0-0.8652344,0.0527344-1.1806641,0.0917969
				l0.5507813-4.09375h4.0810547V41.659729z"/>
		</g>
	</g>
	<g transform="translate(364.2241,281.4062)">
		<g class="st2">
			<path class="st3" d="M-44.4877625,41.7651978h-0.0263672l-1.4824219,0.7998047l-0.2226563-0.8789063l1.8632813-0.9970703
				h0.9833984v8.5292969h-1.1152344V41.7651978z"/>
		</g>
	</g>
	<g>
		<line class="st1" x1="173.1102905" y1="311.8258057" x2="173.1102905" y2="192.9671478"/>
		<line class="st1" x1="349.1042786" y1="311.8258057" x2="349.1042786" y2="192.9671478"/>
		<line class="st1" x1="173.1102905" y1="282.1148682" x2="174.870224" y2="282.1148682"/>
		<line class="st1" x1="173.1102905" y1="252.3964844" x2="174.870224" y2="252.3964844"/>
		<line class="st1" x1="173.1102905" y1="222.6781006" x2="174.870224" y2="222.6781006"/>
		<line class="st1" x1="349.1042786" y1="282.1148682" x2="347.3443298" y2="282.1148682"/>
		<line class="st1" x1="349.1042786" y1="252.3964844" x2="347.3443298" y2="252.3964844"/>
		<line class="st1" x1="349.1042786" y1="222.6781006" x2="347.3443298" y2="222.6781006"/>
	</g>
	<g transform="translate(50.3333,209.6274)">
		<g class="st2">
			<path class="st3" d="M98.3771439,73.8584442v0.8535156h-3.2412109v-0.8535156H98.3771439z"/>
			<path class="st3" d="M105.0314407,73.4785614c0,2.8994141-1.0761719,4.5009766-2.9658203,4.5009766
				c-1.6669922,0-2.7949219-1.5615234-2.8212891-4.3828125c0-2.8613281,1.2333984-4.4355469,2.9658203-4.4355469
				C104.0080032,69.1611786,105.0314407,70.7617645,105.0314407,73.4785614z M100.3986282,73.6094208
				c0,2.2177734,0.6826172,3.4775391,1.7324219,3.4775391c1.1806641,0,1.7451172-1.3779297,1.7451172-3.5566406
				c0-2.0996094-0.5380859-3.4765625-1.7324219-3.4765625C101.1339798,70.0537567,100.3986282,71.2871552,100.3986282,73.6094208z"
				/>
			<path class="st3" d="M106.1876907,77.1523895c0-0.4853516,0.328125-0.8261719,0.7871094-0.8261719
				s0.7744141,0.3408203,0.7744141,0.8261719c0,0.4726563-0.3017578,0.8271484-0.7871094,0.8271484
				C106.5021439,77.979538,106.1876907,77.6250458,106.1876907,77.1523895z"/>
			<path class="st3" d="M113.9030228,70.276413h-3.253418l-0.328125,2.1914063
				c0.1972656-0.0263672,0.3808594-0.0527344,0.6953125-0.0527344c0.6557617,0,1.3120117,0.1445313,1.8364258,0.4599609
				c0.6699219,0.3798828,1.2207031,1.1152344,1.2207031,2.1914063c0,1.6660156-1.3251953,2.9130859-3.175293,2.9130859
				c-0.9316406,0-1.71875-0.2626953-2.1259766-0.5253906l0.2890625-0.8789063
				c0.3544922,0.2099609,1.0498047,0.4726563,1.8242188,0.4726563c1.0883789,0,2.0200195-0.7089844,2.0200195-1.8505859
				c-0.0126953-1.1025391-0.7480469-1.8896484-2.4536133-1.8896484c-0.4853516,0-0.8662109,0.0527344-1.1806641,0.0917969
				l0.5507813-4.09375h4.0805664V70.276413z"/>
		</g>
	</g>
	<g transform="translate(50.3333,148.5)">
		<g class="st2">
			<path class="st3" d="M116.0719681,104.8881836c0,2.8999023-1.0761719,4.5009766-2.9658203,4.5009766
				c-1.6665039,0-2.7944336-1.5615234-2.8208008-4.3833008c0-2.8603516,1.2333984-4.4350586,2.965332-4.4350586
				C115.0485306,100.5708008,116.0719681,102.1713867,116.0719681,104.8881836z M111.4396439,105.019043
				c0,2.2177734,0.6821289,3.4775391,1.7319336,3.4775391c1.1806641,0,1.7451172-1.3779297,1.7451172-3.5561523
				c0-2.0996094-0.5380859-3.4775391-1.7324219-3.4775391C112.1745071,101.4628906,111.4396439,102.6962891,111.4396439,105.019043z
				"/>
		</g>
	</g>
	<g transform="translate(50.3333,87.3726)">
		<g class="st2">
			<path class="st3" d="M105.3771439,136.2978058c0,2.8999023-1.0761719,4.5009766-2.9658203,4.5009766
				c-1.6669922,0-2.7949219-1.5615234-2.8212891-4.3833008c0-2.8603516,1.2333984-4.4350586,2.9658203-4.4350586
				C104.3537064,131.980423,105.3771439,133.5810089,105.3771439,136.2978058z M100.7443314,136.4286652
				c0,2.2177734,0.6826172,3.4775391,1.7324219,3.4775391c1.1806641,0,1.7451172-1.3779297,1.7451172-3.5561523
				c0-2.0996094-0.5380859-3.4775391-1.7324219-3.4775391C101.4796829,132.8725128,100.7443314,134.1059113,100.7443314,136.4286652
				z"/>
			<path class="st3" d="M106.5333939,139.9716339c0-0.4853516,0.328125-0.8266602,0.7871094-0.8266602
				s0.7744141,0.3413086,0.7744141,0.8266602c0,0.4726563-0.3017578,0.8271484-0.7871094,0.8271484
				C106.847847,140.7987823,106.5333939,140.4442902,106.5333939,139.9716339z"/>
			<path class="st3" d="M114.2487259,133.0956573h-3.253418l-0.328125,2.1914063
				c0.1972656-0.0263672,0.3808594-0.0522461,0.6953125-0.0522461c0.6557617,0,1.3120117,0.144043,1.8364258,0.4589844
				c0.6699219,0.3808594,1.2207031,1.1157227,1.2207031,2.1914063c0,1.6665039-1.3251953,2.9135742-3.175293,2.9135742
				c-0.9316406,0-1.71875-0.2626953-2.1259766-0.5249023l0.2890625-0.8793945
				c0.3544922,0.2099609,1.0498047,0.4726563,1.8242188,0.4726563c1.0883789,0,2.0200195-0.7089844,2.0200195-1.8505859
				c-0.0126953-1.1020508-0.7480469-1.8896484-2.4536133-1.8896484c-0.4853516,0-0.8662109,0.0527344-1.1806641,0.0917969
				l0.5507813-4.0942383h4.0805664V133.0956573z"/>
		</g>
	</g>
	<g>
		<path class="st4" d="M320.5291138,252.3964844l-0.1196289-3.7697296l-0.358551-3.7545013l-0.5959167-3.7242737
			l-0.8309021-3.6789398l-1.0625916-3.6188202l-1.289978-3.5441895l-1.512146-3.4551697l-1.728241-3.352356l-1.9374084-3.2359924
			l-2.1387634-3.1065826l-2.3314209-2.9646759l-2.5148315-2.8108521l-2.6879883-2.6456909l-2.8503723-2.4698944
			l-3.0013123-2.2841339l-3.1401367-2.0891724l-3.2662964-1.8858185l-3.3793945-1.6748047l-3.4787292-1.4571533
			l-3.5641785-1.2336121l-3.6352539-1.0050049l-3.6916809-0.7724762l-3.7332153-0.5367432l-3.7597656-0.2988892
			l-3.7711182-0.0598602l-3.767334,0.1794586l-3.7483978,0.418045l-3.7142944,0.6549225l-3.6652985,0.8892059l-3.6015015,1.1198578
			l-3.5232849,1.3460541l-3.4307709,1.5667877l-3.3244934,1.7812347l-3.204834,1.9884949l-3.0722656,2.1877136l-2.9273224,2.3782043
			l-2.7705994,2.5591125l-2.6027222,2.729599l-2.4243317,2.8892212l-2.2362366,3.0372162l-2.0390625,3.1728516l-1.833786,3.2958527
			l-1.6209869,3.4054718l-1.4017792,3.5014648l-1.1768799,3.5832672l-0.9472046,3.6507568l-0.7138062,3.7034607
			l-0.4774628,3.7412415l-0.2391968,3.7640228v3.771637l0.2391968,3.7640228l0.4774628,3.7412415l0.7138062,3.7034607
			l0.9472046,3.6507568l1.1768799,3.5832825l1.4017792,3.5014343l1.6209869,3.4054871l1.833786,3.2958679l2.0390625,3.1728516
			l2.2362366,3.0372009l2.4243317,2.8892212l2.6027222,2.7295837l2.7705994,2.5591125l2.9273224,2.3782043l3.0722656,2.1877441
			l3.204834,1.9884644l3.3244934,1.78125l3.4307709,1.5667725l3.5232849,1.3460693l3.6015015,1.1198425l3.6652985,0.8892212
			l3.7142944,0.6549072l3.7483978,0.4180603l3.767334,0.1794434l3.7711182-0.059845l3.7597656-0.2988892l3.7332153-0.5367432
			l3.6916809-0.7724915l3.6352539-1.0050049l3.5641785-1.2336121l3.4787292-1.4571228l3.3793945-1.6748352l3.2662964-1.8858032
			l3.1401367-2.0891724l3.0013123-2.2841492l2.8503723-2.4698792l2.6879883-2.6456909l2.5148315-2.8108521l2.3314209-2.9646606
			l2.1387634-3.1065979l1.9374084-3.2359924l1.728241-3.352356l1.512146-3.4552307l1.289978-3.5441284l1.0625916-3.6188049
			l0.8309021-3.6789551l0.5959167-3.7242737l0.358551-3.7545166L320.5291138,252.3964844"/>
	</g>
</g>
</svg>
