<?xml version="1.0" encoding="utf-8"?>
<!-- Generator: Adobe Illustrator 19.0.0, SVG Export Plug-In . SVG Version: 6.00 Build 0)  -->
<svg version="1.1" id="Layer_1" xmlns="http://www.w3.org/2000/svg" xmlns:xlink="http://www.w3.org/1999/xlink" x="0px" y="0px"
	 viewBox="0 200 246.5 188" style="enable-background:new 0 200 246.5 188;" xml:space="preserve">
<style type="text/css">
	.st0{fill:#FFFFFF;}
	.st1{fill:none;stroke:#262626;stroke-linecap:square;stroke-linejoin:round;stroke-miterlimit:10;}
	.st2{enable-background:new    ;}
	.st3{fill:#262626;}
	.st4{fill:none;stroke:#0072BD;stroke-linejoin:round;stroke-miterlimit:10;}
	.st5{fill:#0072BD;}
</style>
<path class="st0" d="M30.110302,367.8244019h208.4262543V216.9322968H30.110302V367.8244019z"/>
<g>
	<line class="st1" x1="30.110302" y1="367.8244019" x2="238.5365601" y2="367.8244019"/>
	<line class="st1" x1="30.110302" y1="216.9322968" x2="238.5365601" y2="216.9322968"/>
	<line class="st1" x1="30.110302" y1="367.8244019" x2="30.110302" y2="365.7711182"/>
	<line class="st1" x1="99.585701" y1="367.8244019" x2="99.585701" y2="365.7711182"/>
	<line class="st1" x1="169.0611572" y1="367.8244019" x2="169.0611572" y2="365.7711182"/>
	<line class="st1" x1="238.5365601" y1="367.8244019" x2="238.5365601" y2="365.7711182"/>
	<line class="st1" x1="30.110302" y1="216.9322968" x2="30.110302" y2="218.9855804"/>
	<line class="st1" x1="99.585701" y1="216.9322968" x2="99.585701" y2="218.9855804"/>
	<line class="st1" x1="169.0611572" y1="216.9322968" x2="169.0611572" y2="218.9855804"/>
	<line class="st1" x1="238.5365601" y1="216.9322968" x2="238.5365601" y2="218.9855804"/>
</g>
<g transform="translate(72,371.6667)">
	<g class="st2">
		<path class="st3" d="M-39.5224609,10.3411255c0,2.8496094-1.0737305,4.4223633-2.9589844,4.4223633
			c-1.6625977,0-2.7885742-1.5341797-2.8149414-4.3061523c0-2.8110352,1.230957-4.3583984,2.9589844-4.3583984
			C-40.5439453,6.098938-39.5224609,7.6721802-39.5224609,10.3411255z M-44.144043,10.4700317
			c0,2.1791992,0.6806641,3.4169922,1.7280273,3.4169922c1.1782227,0,1.7412109-1.3540039,1.7412109-3.4941406
			c0-2.0629883-0.5366211-3.4169922-1.7280273-3.4169922C-43.4111328,6.9758911-44.144043,8.1878052-44.144043,10.4700317z"/>
	</g>
</g>
<g transform="translate(215.3333,371.6667)">
	<g class="st2">
		<path class="st3" d="M-118.712204,10.3411255c0,2.8496094-1.0737305,4.4223633-2.9589844,4.4223633
			c-1.6625977,0-2.7885742-1.5341797-2.8149414-4.3061523c0-2.8110352,1.230957-4.3583984,2.9589844-4.3583984
			C-119.7336884,6.098938-118.712204,7.6721802-118.712204,10.3411255z M-123.333786,10.4700317
			c0,2.1791992,0.6806641,3.4169922,1.7280273,3.4169922c1.1782227,0,1.7412109-1.3540039,1.7412109-3.4941406
			c0-2.0629883-0.5366211-3.4169922-1.7280273-3.4169922C-122.6008759,6.9758911-123.333786,8.1878052-123.333786,10.4700317z"/>
		<path class="st3" d="M-117.5632782,13.9514771c0-0.4770508,0.3276367-0.8125,0.7856445-0.8125
			s0.7724609,0.3354492,0.7724609,0.8125c0,0.4638672-0.3012695,0.8120117-0.7856445,0.8120117
			C-117.2488251,14.7634888-117.5632782,14.4153442-117.5632782,13.9514771z"/>
		<path class="st3" d="M-112.4451141,7.2981567h-0.0263672l-1.4794922,0.7866211l-0.222168-0.8637695l1.8588867-0.9799805h0.9819336
			v8.3808594h-1.112793V7.2981567z"/>
	</g>
</g>
<g transform="translate(358.6667,371.6667)">
	<g class="st2">
		<path class="st3" d="M-192.569519,10.3411255c0,2.8496094-1.0737305,4.4223633-2.9589844,4.4223633
			c-1.6625977,0-2.7885742-1.5341797-2.8149414-4.3061523c0-2.8110352,1.230957-4.3583984,2.9589844-4.3583984
			C-193.5910034,6.098938-192.569519,7.6721802-192.569519,10.3411255z M-197.1911011,10.4700317
			c0,2.1791992,0.6806641,3.4169922,1.7280273,3.4169922c1.1782227,0,1.7412109-1.3540039,1.7412109-3.4941406
			c0-2.0629883-0.5366211-3.4169922-1.7280273-3.4169922C-196.4581909,6.9758911-197.1911011,8.1878052-197.1911011,10.4700317z"/>
		<path class="st3" d="M-191.4205933,13.9514771c0-0.4770508,0.3276367-0.8125,0.7856445-0.8125
			s0.7724609,0.3354492,0.7724609,0.8125c0,0.4638672-0.3012695,0.8120117-0.7856445,0.8120117
			C-191.1061401,14.7634888-191.4205933,14.4153442-191.4205933,13.9514771z"/>
		<path class="st3" d="M-188.8029175,14.6218872v-0.6962891l0.9033203-0.8637695
			c2.1733398-2.0371094,3.1547852-3.1201172,3.1679688-4.3837891c0-0.8510742-0.4189453-1.6376953-1.6889648-1.6376953
			c-0.7724609,0-1.4135742,0.3867188-1.8066406,0.7089844l-0.3662109-0.7993164
			c0.5888672-0.4897461,1.4267578-0.8510742,2.4086914-0.8510742c1.8330078,0,2.6054688,1.237793,2.6054688,2.4370117
			c0,1.5473633-1.1391602,2.7978516-2.9326172,4.5l-0.6811523,0.6191406v0.0253906h3.8232422v0.9414063H-188.8029175z"/>
	</g>
</g>
<g transform="translate(502,371.6667)">
	<g class="st2">
		<path class="st3" d="M-266.4277344,10.3411255c0,2.8496094-1.0737305,4.4223633-2.9589844,4.4223633
			c-1.6625977,0-2.7885742-1.5341797-2.8149414-4.3061523c0-2.8110352,1.230957-4.3583984,2.9589844-4.3583984
			C-267.4492188,6.098938-266.4277344,7.6721802-266.4277344,10.3411255z M-271.0493164,10.4700317
			c0,2.1791992,0.6806641,3.4169922,1.7280273,3.4169922c1.1782227,0,1.7412109-1.3540039,1.7412109-3.4941406
			c0-2.0629883-0.5366211-3.4169922-1.7280273-3.4169922C-270.3164063,6.9758911-271.0493164,8.1878052-271.0493164,10.4700317z"/>
		<path class="st3" d="M-265.2788086,13.9514771c0-0.4770508,0.3276367-0.8125,0.7856445-0.8125
			s0.7724609,0.3354492,0.7724609,0.8125c0,0.4638672-0.3012695,0.8120117-0.7856445,0.8120117
			C-264.9643555,14.7634888-265.2788086,14.4153442-265.2788086,13.9514771z"/>
		<path class="st3" d="M-262.3862305,13.3196411c0.3271484,0.2060547,1.0864258,0.5288086,1.8852539,0.5288086
			c1.4790039,0,1.9375-0.9287109,1.9243164-1.625c-0.0131836-1.1733398-1.0864258-1.6757813-2.1992188-1.6757813h-0.6416016
			V9.6965942h0.6416016c0.8378906,0,1.8979492-0.4257813,1.8979492-1.418457c0-0.6704102-0.4316406-1.2636719-1.4921875-1.2636719
			c-0.6806641,0-1.3354492,0.296875-1.7021484,0.5546875l-0.3012695-0.8251953
			c0.4453125-0.3222656,1.3095703-0.6450195,2.2260742-0.6450195c1.6757813,0,2.4350586,0.9799805,2.4350586,1.9985352
			c0,0.8642578-0.5239258,1.5991211-1.5712891,1.9731445v0.0253906c1.0473633,0.206543,1.8984375,0.9799805,1.8984375,2.1533203
			c0,1.3408203-1.0605469,2.5141602-3.1030273,2.5141602c-0.9555664,0-1.793457-0.2963867-2.2124023-0.5668945
			L-262.3862305,13.3196411z"/>
	</g>
</g>
<g>
	<line class="st1" x1="30.110302" y1="367.8244019" x2="30.110302" y2="216.9322968"/>
	<line class="st1" x1="238.5365601" y1="367.8244019" x2="238.5365601" y2="216.9322968"/>
	<line class="st1" x1="30.110302" y1="367.8244019" x2="32.1945648" y2="367.8244019"/>
	<line class="st1" x1="30.110302" y1="330.1013794" x2="32.1945648" y2="330.1013794"/>
	<line class="st1" x1="30.110302" y1="292.3783569" x2="32.1945648" y2="292.3783569"/>
	<line class="st1" x1="30.110302" y1="254.6553192" x2="32.1945648" y2="254.6553192"/>
	<line class="st1" x1="30.110302" y1="216.9322968" x2="32.1945648" y2="216.9322968"/>
	<line class="st1" x1="238.5365601" y1="367.8244019" x2="236.452301" y2="367.8244019"/>
	<line class="st1" x1="238.5365601" y1="330.1013794" x2="236.452301" y2="330.1013794"/>
	<line class="st1" x1="238.5365601" y1="292.3783569" x2="236.452301" y2="292.3783569"/>
	<line class="st1" x1="238.5365601" y1="254.6553192" x2="236.452301" y2="254.6553192"/>
	<line class="st1" x1="238.5365601" y1="216.9322968" x2="236.452301" y2="216.9322968"/>
</g>
<g transform="translate(61.3333,361)">
	<g class="st2">
		<path class="st3" d="M-44.8840828,8.1713867v0.8378906h-3.2338867V8.1713867H-44.8840828z"/>
		<path class="st3" d="M-41.4031258,4.7543945h-0.0263672l-1.4794922,0.7866211l-0.222168-0.8637695l1.8588867-0.9799805h0.9819336
			v8.3808594h-1.112793V4.7543945z"/>
	</g>
</g>
<g transform="translate(61.3333,282)">
	<g class="st2">
		<path class="st3" d="M-55.5491219,49.4477539v0.8378906h-3.2338867v-0.8378906H-55.5491219z"/>
		<path class="st3" d="M-48.9128914,49.0737305c0,2.8496094-1.0737305,4.4223633-2.9589844,4.4223633
			c-1.6625977,0-2.7885742-1.5341797-2.8149414-4.3061523c0-2.8110352,1.230957-4.3583984,2.9589844-4.3583984
			C-49.9343758,44.831543-48.9128914,46.4047852-48.9128914,49.0737305z M-53.5344734,49.2026367
			c0,2.1791992,0.6806641,3.4169922,1.7280273,3.4169922c1.1782227,0,1.7412109-1.3540039,1.7412109-3.4941406
			c0-2.0629883-0.5366211-3.4169922-1.7280273-3.4169922C-52.8015633,45.7084961-53.5344734,46.9204102-53.5344734,49.2026367z"/>
		<path class="st3" d="M-47.7634773,52.684082c0-0.4770508,0.3276367-0.8125,0.7856445-0.8125s0.7724609,0.3354492,0.7724609,0.8125
			c0,0.4643555-0.3012695,0.8120117-0.7856445,0.8120117C-47.4490242,53.4960938-47.7634773,53.1484375-47.7634773,52.684082z"/>
		<path class="st3" d="M-40.0667,45.9277344h-3.2470703l-0.3271484,2.1533203
			c0.1962891-0.0258789,0.3798828-0.0517578,0.6938477-0.0517578c0.6547852,0,1.309082,0.1420898,1.8330078,0.4511719
			c0.6674805,0.3740234,1.2172852,1.0961914,1.2172852,2.1533203c0,1.6376953-1.3222656,2.8623047-3.1679688,2.8623047
			c-0.9296875,0-1.715332-0.2578125-2.1210938-0.515625l0.2880859-0.8637695
			c0.3535156,0.206543,1.0473633,0.4643555,1.8198242,0.4643555c1.0864258,0,2.0161133-0.6962891,2.0161133-1.8183594
			c-0.0131836-1.0830078-0.7460938-1.8564453-2.4482422-1.8564453c-0.484375,0-0.8642578,0.0512695-1.1782227,0.090332
			l0.5498047-4.0229492H-40.0667V45.9277344z"/>
	</g>
</g>
<g transform="translate(61.3333,203)">
	<g class="st2">
		<path class="st3" d="M-37.903614,90.3510742c0,2.8496094-1.0737305,4.4223633-2.9589844,4.4223633
			c-1.6625977,0-2.7885742-1.5341797-2.8149414-4.3061523c0-2.8110352,1.230957-4.3583984,2.9589844-4.3583984
			C-38.9250984,86.1088867-37.903614,87.6821289-37.903614,90.3510742z M-42.5251961,90.4799805
			c0,2.1791992,0.6806641,3.4169922,1.7280273,3.4169922c1.1782227,0,1.7412109-1.3540039,1.7412109-3.4941406
			c0-2.0629883-0.5366211-3.4169922-1.7280273-3.4169922C-41.7922859,86.9858398-42.5251961,88.1977539-42.5251961,90.4799805z"/>
	</g>
</g>
<g transform="translate(61.3333,124)">
	<g class="st2">
		<path class="st3" d="M-48.5676765,131.6274414c0,2.8496094-1.0737305,4.4223633-2.9589844,4.4223633
			c-1.6625977,0-2.7885742-1.5341797-2.8149414-4.3061523c0-2.8110352,1.230957-4.3583984,2.9589844-4.3583984
			C-49.5891609,127.3852539-48.5676765,128.9584961-48.5676765,131.6274414z M-53.1892586,131.7563477
			c0,2.1791992,0.6806641,3.4169922,1.7280273,3.4169922c1.1782227,0,1.7412109-1.3540039,1.7412109-3.4941406
			c0-2.0629883-0.5366211-3.4169922-1.7280273-3.4169922C-52.4563484,128.262207-53.1892586,129.4741211-53.1892586,131.7563477z"/>
		<path class="st3" d="M-47.4187508,135.237793c0-0.4770508,0.3276367-0.8125,0.7856445-0.8125
			s0.7724609,0.3354492,0.7724609,0.8125c0,0.4643555-0.3012695,0.8120117-0.7856445,0.8120117
			C-47.1042976,136.0498047-47.4187508,135.7021484-47.4187508,135.237793z"/>
		<path class="st3" d="M-39.7214851,128.4814453h-3.2470703l-0.3271484,2.1533203
			c0.1962891-0.0258789,0.3798828-0.0517578,0.6938477-0.0517578c0.6547852,0,1.309082,0.1420898,1.8330078,0.4511719
			c0.6674805,0.3740234,1.2172852,1.0961914,1.2172852,2.1533203c0,1.6376953-1.3222656,2.8623047-3.1679688,2.8623047
			c-0.9296875,0-1.715332-0.2578125-2.1210938-0.515625l0.2880859-0.8637695
			c0.3535156,0.206543,1.0473633,0.4643555,1.8198242,0.4643555c1.0864258,0,2.0161133-0.6962891,2.0161133-1.8183594
			c-0.0131836-1.0830078-0.7460938-1.8564453-2.4482422-1.8564453c-0.484375,0-0.8637695,0.0512695-1.1782227,0.090332
			l0.5498047-4.0229492h4.0717773V128.4814453z"/>
	</g>
</g>
<g transform="translate(61.3333,45)">
	<g class="st2">
		<path class="st3" d="M-41.0588875,169.8618164h-0.0263672l-1.4794922,0.7866211l-0.2226563-0.8637695l1.859375-0.9799805
			h0.9819336v8.3808594h-1.112793V169.8618164z"/>
	</g>
</g>
<g transform="translate(287.0003,42.2587)">
	<g class="st2">
		<path d="M-162.6731567,170.0230408v-5.7773438h-0.9555664v-0.9282227h0.9555664v-0.3188477
			c0-0.9423828,0.2109375-1.8012695,0.7871094-2.3413086c0.4638672-0.4433594,1.0820313-0.6235352,1.6582031-0.6235352
			c0.4355469,0,0.8149414,0.0966797,1.0541992,0.1938477l-0.1689453,0.9418945
			c-0.1826172-0.0830078-0.4355469-0.1523438-0.7871094-0.1523438c-1.0537109,0-1.3208008,0.9145508-1.3208008,1.9399414v0.3603516
			h1.644043v0.9282227h-1.644043v5.7773438H-162.6731567z"/>
		<path d="M-156.0110474,160.4078064c-1.0258789,1.3579102-1.7705078,3.1586914-1.7705078,5.6665039
			c0,2.4663086,0.7729492,4.2397461,1.7705078,5.625h-0.9697266c-0.8852539-1.1499023-1.8408203-2.9233398-1.8408203-5.625
			c0.0141602-2.7294922,0.9555664-4.5029297,1.8408203-5.6665039H-156.0110474z"/>
		<path d="M-154.12677,163.3174744l0.9697266,1.4404297c0.2529297,0.3745117,0.4638672,0.7207031,0.6884766,1.0947266h0.0424805
			c0.2246094-0.4018555,0.449707-0.7480469,0.6743164-1.1083984l0.9555664-1.4267578h1.3349609l-2.3183594,3.2416992
			l2.3886719,3.4638672h-1.4052734l-0.9975586-1.5102539c-0.2670898-0.3876953-0.4921875-0.7617188-0.730957-1.1635742h-0.027832
			c-0.2250977,0.4018555-0.4638672,0.7617188-0.7167969,1.1635742l-0.9838867,1.5102539h-1.3632813l2.4174805-3.4223633
			l-2.3051758-3.2832031H-154.12677z"/>
		<path d="M-148.9397583,171.6993103c0.9975586-1.371582,1.7705078-3.1728516,1.7705078-5.6665039
			c0-2.4799805-0.7587891-4.253418-1.7705078-5.625h0.9555664c0.8994141,1.1362305,1.8408203,2.909668,1.8408203,5.6386719
			c0,2.7158203-0.9414063,4.4750977-1.8408203,5.652832H-148.9397583z"/>
	</g>
</g>
<g>
	<path class="st4" d="M34.3638916,294.6025085l4.2535973-1.111969l4.2535896,63.8521118l4.2535896-65.5204163l4.2535973-71.058609
		l4.2536392,6.0919342l4.2535934,139.0058899l4.2535934-148.9286194l4.2535858,124.1303711l4.2535934-4.5189209
		l4.2535934-101.316452l4.2535934-8.0947876l4.2535934,65.4164276l4.2535934,58.9139099l4.2536392,15.9320679l4.2535934-21.7670898
		l4.2535858-39.5155029l4.2535934-39.6546631l4.2535934-29.6665344l4.2535858-16.2010345l4.2536011-3.4393768l4.2535858,6.6410065
		l4.2535934,13.5134888l4.2536087,17.4299011l4.2536163,18.9662323l4.2536011,18.7620544l4.2536011,17.3936462l4.2535858,15.3271484
		l4.2536011,12.9126892l4.2535706,10.3978271l4.2536011,7.947876l4.2536011,5.664856l4.2536316,3.6055603l4.2535553,1.7950439
		l4.2536316,0.236969l4.2535858-1.078125l4.2536011-2.1677246l4.2535858-3.0534058l4.2536011-3.7583313l4.2535858-4.3051758
		l4.2536011-4.7160645l4.2535858-5.0108643l4.2536316-5.2078247l4.2535553-5.322998l4.2535858-5.3705444l4.2536469-5.3627014
		l4.2535858-5.309967l4.2535858-5.221344l4.2536011-5.1045532"/>
	<ellipse class="st5" cx="34.3638916" cy="294.6025085" rx="1.292582" ry="1.2733668"/>
</g>
<g transform="translate(89.551,205.3292)">
	<ellipse class="st5" cx="-50.9335136" cy="88.1613541" rx="1.292582" ry="1.2733668"/>
</g>
<g transform="translate(98.3265,339.049)">
	<ellipse class="st5" cx="-55.4554214" cy="18.2936363" rx="1.292582" ry="1.2733668"/>
</g>
<g transform="translate(107.102,201.8354)">
	<ellipse class="st5" cx="-59.9773293" cy="89.9868393" rx="1.292582" ry="1.2733668"/>
</g>
<g transform="translate(115.8775,53.0236)">
	<ellipse class="st5" cx="-64.4992371" cy="167.7400208" rx="1.292582" ry="1.2733668"/>
</g>
<g transform="translate(124.6531,65.7814)">
	<ellipse class="st5" cx="-69.0211945" cy="161.0741577" rx="1.292582" ry="1.2733668"/>
</g>
<g transform="translate(133.4286,356.8892)">
	<ellipse class="st5" cx="-73.5431061" cy="8.9722595" rx="1.292582" ry="1.2733668"/>
</g>
<g transform="translate(142.2041,45.0011)">
	<ellipse class="st5" cx="-78.0650101" cy="171.9317322" rx="1.292582" ry="1.2733668"/>
</g>
<g transform="translate(150.9796,304.9564)">
	<ellipse class="st5" cx="-82.5869217" cy="36.1068039" rx="1.292582" ry="1.2733668"/>
</g>
<g transform="translate(159.7551,295.4928)">
	<ellipse class="st5" cx="-87.1088257" cy="41.0514679" rx="1.292582" ry="1.2733668"/>
</g>
<g transform="translate(168.5306,83.3147)">
	<ellipse class="st5" cx="-91.6307297" cy="151.9131317" rx="1.292582" ry="1.2733668"/>
</g>
<g transform="translate(177.3061,66.3625)">
	<ellipse class="st5" cx="-96.1526489" cy="160.7705383" rx="1.292582" ry="1.2733668"/>
</g>
<g transform="translate(186.0816,203.3584)">
	<ellipse class="st5" cx="-100.6745529" cy="89.1910858" rx="1.292582" ry="1.2733668"/>
</g>
<g transform="translate(194.8571,326.7366)">
	<ellipse class="st5" cx="-105.1964569" cy="24.7267876" rx="1.292582" ry="1.2733668"/>
</g>
<g transform="translate(203.6327,360.1017)">
	<ellipse class="st5" cx="-109.7184219" cy="7.2937369" rx="1.292582" ry="1.2733668"/>
</g>
<g transform="translate(212.4082,314.5168)">
	<ellipse class="st5" cx="-114.2403259" cy="31.1115456" rx="1.292582" ry="1.2733668"/>
</g>
<g transform="translate(221.1837,231.763)">
	<ellipse class="st5" cx="-118.7622375" cy="74.3498688" rx="1.292582" ry="1.2733668"/>
</g>
<g transform="translate(229.9592,148.7177)">
	<ellipse class="st5" cx="-123.2841415" cy="117.7404938" rx="1.292582" ry="1.2733668"/>
</g>
<g transform="translate(238.7347,86.5897)">
	<ellipse class="st5" cx="-127.8060455" cy="150.2019653" rx="1.292582" ry="1.2733668"/>
</g>
<g transform="translate(247.5102,52.6613)">
	<ellipse class="st5" cx="-132.3279572" cy="167.9293213" rx="1.292582" ry="1.2733668"/>
</g>
<g transform="translate(256.2857,45.4585)">
	<ellipse class="st5" cx="-136.8498688" cy="171.6927338" rx="1.292582" ry="1.2733668"/>
</g>
<g transform="translate(265.0612,59.3662)">
	<ellipse class="st5" cx="-141.3717651" cy="164.4260559" rx="1.292582" ry="1.2733668"/>
</g>
<g transform="translate(273.8367,87.6663)">
	<ellipse class="st5" cx="-145.8936768" cy="149.6394501" rx="1.292582" ry="1.2733668"/>
</g>
<g transform="translate(282.6122,124.1682)">
	<ellipse class="st5" cx="-150.4155884" cy="130.5674438" rx="1.292582" ry="1.2733668"/>
</g>
<g transform="translate(291.3878,163.8875)">
	<ellipse class="st5" cx="-154.9375458" cy="109.8143692" rx="1.292582" ry="1.2733668"/>
</g>
<g transform="translate(300.1633,203.1792)">
	<ellipse class="st5" cx="-159.4594574" cy="89.2847137" rx="1.292582" ry="1.2733668"/>
</g>
<g transform="translate(308.9388,239.6052)">
	<ellipse class="st5" cx="-163.981369" cy="70.2523727" rx="1.292582" ry="1.2733668"/>
</g>
<g transform="translate(317.7143,271.7035)">
	<ellipse class="st5" cx="-168.5032654" cy="53.4812241" rx="1.292582" ry="1.2733668"/>
</g>
<g transform="translate(326.4898,298.7454)">
	<ellipse class="st5" cx="-173.025177" cy="39.3520088" rx="1.292582" ry="1.2733668"/>
</g>
<g transform="translate(335.2653,320.5207)">
	<ellipse class="st5" cx="-177.5470886" cy="27.9745598" rx="1.292582" ry="1.2733668"/>
</g>
<g transform="translate(344.0408,337.1652)">
	<ellipse class="st5" cx="-182.0690002" cy="19.2779179" rx="1.292582" ry="1.2733668"/>
</g>
<g transform="translate(352.8163,349.0286)">
	<ellipse class="st5" cx="-186.5909119" cy="13.0793686" rx="1.292582" ry="1.2733668"/>
</g>
<g transform="translate(361.5919,356.5794)">
	<ellipse class="st5" cx="-191.112854" cy="9.134119" rx="1.292582" ry="1.2733668"/>
</g>
<g transform="translate(370.3673,360.3386)">
	<ellipse class="st5" cx="-195.6347198" cy="7.1699696" rx="1.292582" ry="1.2733668"/>
</g>
<g transform="translate(379.1429,360.8349)">
	<ellipse class="st5" cx="-200.1566925" cy="6.9106526" rx="1.292582" ry="1.2733668"/>
</g>
<g transform="translate(387.9184,358.5771)">
	<ellipse class="st5" cx="-204.6785889" cy="8.0903454" rx="1.292582" ry="1.2733668"/>
</g>
<g transform="translate(396.6939,354.0374)">
	<ellipse class="st5" cx="-209.2005005" cy="10.4622936" rx="1.292582" ry="1.2733668"/>
</g>
<g transform="translate(405.4694,347.6429)">
	<ellipse class="st5" cx="-213.7223969" cy="13.8033781" rx="1.292582" ry="1.2733668"/>
</g>
<g transform="translate(414.2449,339.7722)">
	<ellipse class="st5" cx="-218.2443085" cy="17.915781" rx="1.292582" ry="1.2733668"/>
</g>
<g transform="translate(423.0204,330.7562)">
	<ellipse class="st5" cx="-222.7662048" cy="22.6265774" rx="1.292582" ry="1.2733668"/>
</g>
<g transform="translate(431.7959,320.8798)">
	<ellipse class="st5" cx="-227.2881165" cy="27.7869339" rx="1.292582" ry="1.2733668"/>
</g>
<g transform="translate(440.5714,310.386)">
	<ellipse class="st5" cx="-231.8100433" cy="33.2698784" rx="1.292582" ry="1.2733668"/>
</g>
<g transform="translate(449.347,299.4797)">
	<ellipse class="st5" cx="-236.3319855" cy="38.9683342" rx="1.292582" ry="1.2733668"/>
</g>
<g transform="translate(458.1224,288.3322)">
	<ellipse class="st5" cx="-240.8538513" cy="44.7928276" rx="1.292582" ry="1.2733668"/>
</g>
<g transform="translate(466.8979,277.0851)">
	<ellipse class="st5" cx="-245.3757477" cy="50.6693611" rx="1.292582" ry="1.2733668"/>
</g>
<g transform="translate(475.6735,265.8545)">
	<ellipse class="st5" cx="-249.8977051" cy="56.5372887" rx="1.292582" ry="1.2733668"/>
</g>
<g transform="translate(484.449,254.7343)">
	<ellipse class="st5" cx="-254.419632" cy="62.3475151" rx="1.292582" ry="1.2733668"/>
</g>
<g transform="translate(493.2245,243.7997)">
	<ellipse class="st5" cx="-258.9415283" cy="68.0607758" rx="1.292582" ry="1.2733668"/>
</g>
<g transform="translate(502,233.1097)">
	<ellipse class="st5" cx="-263.4634399" cy="73.646225" rx="1.292582" ry="1.2733668"/>
</g>
</svg>
