<?xml version="1.0" encoding="utf-8"?>
<!-- Generator: Adobe Illustrator 19.0.0, SVG Export Plug-In . SVG Version: 6.00 Build 0)  -->
<svg version="1.1" id="Layer_1" xmlns="http://www.w3.org/2000/svg" xmlns:xlink="http://www.w3.org/1999/xlink" x="0px" y="0px"
	 viewBox="-34.75 225.5 213.5 156.3333282" style="enable-background:new -34.75 225.5 213.5 156.3333282;" xml:space="preserve">
<style type="text/css">
	.st0{fill:#FFFFFF;}
	.st1{fill:none;stroke:#262626;stroke-width:1.3333;stroke-linecap:square;stroke-linejoin:round;stroke-miterlimit:10;}
	.st2{enable-background:new    ;}
	.st3{fill:#262626;}
	.st4{fill:none;stroke:#0072BD;stroke-width:1.3333;stroke-linejoin:round;stroke-miterlimit:10;}
	.st5{fill:#0072BD;}
</style>
<path class="st0" d="M-7.9558473,363.3033142h180.1233215V241.1404419H-7.9558473V363.3033142z"/>
<g>
	<line class="st1" x1="-7.9558473" y1="363.3033142" x2="172.1674805" y2="363.3033142"/>
	<line class="st1" x1="-7.9558473" y1="241.1404419" x2="172.1674805" y2="241.1404419"/>
	<line class="st1" x1="-7.9558473" y1="363.3033142" x2="-7.9558473" y2="361.5020752"/>
	<line class="st1" x1="52.0852814" y1="363.3033142" x2="52.0852814" y2="361.5020752"/>
	<line class="st1" x1="112.1263657" y1="363.3033142" x2="112.1263657" y2="361.5020752"/>
	<line class="st1" x1="172.1674805" y1="363.3033142" x2="172.1674805" y2="361.5020752"/>
	<line class="st1" x1="-7.9558473" y1="241.1404419" x2="-7.9558473" y2="242.9416809"/>
	<line class="st1" x1="52.0852814" y1="241.1404419" x2="52.0852814" y2="242.9416809"/>
	<line class="st1" x1="112.1263657" y1="241.1404419" x2="112.1263657" y2="242.9416809"/>
	<line class="st1" x1="172.1674805" y1="241.1404419" x2="172.1674805" y2="242.9416809"/>
</g>
<g transform="translate(68,328.6667)">
	<g class="st2">
		<path class="st3" d="M-73.7807617,47.8782349c0,2.6606445-0.9873047,4.1293945-2.7207031,4.1293945
			c-1.5292969,0-2.5644531-1.4326172-2.5883789-4.0209961c0-2.6245117,1.1313477-4.0693359,2.7207031-4.0693359
			C-74.7197266,43.9172974-73.7807617,45.3860474-73.7807617,47.8782349z M-78.0307617,47.9988403
			c0,2.034668,0.6264648,3.1904297,1.5893555,3.1904297c1.0834961,0,1.6010742-1.2641602,1.6010742-3.2626953
			c0-1.9262695-0.4936523-3.1904297-1.5888672-3.1904297C-77.3564453,44.736145-78.0307617,45.867981-78.0307617,47.9988403z"/>
	</g>
</g>
<g transform="translate(202.6667,328.6667)">
	<g class="st2">
		<path class="st3" d="M-148.9362335,44.9407349h-2.9858398l-0.3007813,2.0107422
			c0.1806641-0.0244141,0.3491211-0.0483398,0.6381836-0.0483398c0.6020508,0,1.2036133,0.1323242,1.6855469,0.4213867
			c0.6137695,0.3491211,1.1196289,1.0234375,1.1196289,2.0107422c0,1.5288086-1.2163086,2.6723633-2.9135742,2.6723633
			c-0.8549805,0-1.5771484-0.2407227-1.9501953-0.4814453l0.2646484-0.8066406
			c0.3251953,0.1928711,0.9628906,0.4335938,1.6733398,0.4335938c0.9995117,0,1.8540039-0.6503906,1.8540039-1.6977539
			c-0.0117188-1.0112305-0.6860352-1.7333984-2.2509766-1.7333984c-0.4458008,0-0.7949219,0.0478516-1.0839844,0.0839844
			l0.5058594-3.7563477h3.7441406V44.9407349z"/>
	</g>
</g>
<g transform="translate(337.3333,328.6667)">
	<g class="st2">
		<path class="st3" d="M-229.2771606,45.0369263h-0.0239258l-1.3608398,0.734375l-0.2045898-0.8066406l1.7094727-0.9150391
			h0.9033203v7.8256836h-1.0234375V45.0369263z"/>
		<path class="st3" d="M-220.2005005,47.8782349c0,2.6606445-0.9873047,4.1293945-2.7207031,4.1293945
			c-1.5292969,0-2.5644531-1.4326172-2.5883789-4.0209961c0-2.6245117,1.1313477-4.0693359,2.7207031-4.0693359
			C-221.1394653,43.9172974-220.2005005,45.3860474-220.2005005,47.8782349z M-224.4505005,47.9988403
			c0,2.034668,0.6259766,3.1904297,1.5893555,3.1904297c1.0834961,0,1.6010742-1.2641602,1.6010742-3.2626953
			c0-1.9262695-0.4936523-3.1904297-1.5888672-3.1904297C-223.7761841,44.736145-224.4505005,45.867981-224.4505005,47.9988403z"/>
	</g>
</g>
<g transform="translate(472,328.6667)">
	<g class="st2">
		<path class="st3" d="M-303.9018555,45.0369263h-0.0239258l-1.3608398,0.734375l-0.2045898-0.8066406l1.7094727-0.9150391
			h0.9033203v7.8256836h-1.0234375V45.0369263z"/>
		<path class="st3" d="M-295.3549805,44.9407349h-2.9858398l-0.3007813,2.0107422
			c0.1806641-0.0244141,0.3491211-0.0483398,0.6381836-0.0483398c0.6020508,0,1.2036133,0.1323242,1.6855469,0.4213867
			c0.6137695,0.3491211,1.1196289,1.0234375,1.1196289,2.0107422c0,1.5288086-1.2163086,2.6723633-2.9135742,2.6723633
			c-0.8549805,0-1.5771484-0.2407227-1.9501953-0.4814453l0.2646484-0.8066406
			c0.3251953,0.1928711,0.9633789,0.4335938,1.6733398,0.4335938c0.9995117,0,1.8540039-0.6503906,1.8540039-1.6977539
			c-0.0117188-1.0112305-0.6860352-1.7333984-2.2509766-1.7333984c-0.4458008,0-0.7949219,0.0478516-1.0834961,0.0839844
			l0.5053711-3.7563477h3.7441406V44.9407349z"/>
	</g>
</g>
<g>
	<line class="st1" x1="-7.9558473" y1="363.3033142" x2="-7.9558473" y2="241.1404419"/>
	<line class="st1" x1="172.1674805" y1="363.3033142" x2="172.1674805" y2="241.1404419"/>
	<line class="st1" x1="-7.9558473" y1="363.3033142" x2="-6.1546135" y2="363.3033142"/>
	<line class="st1" x1="-7.9558473" y1="322.5823669" x2="-6.1546135" y2="322.5823669"/>
	<line class="st1" x1="-7.9558473" y1="281.8613892" x2="-6.1546135" y2="281.8613892"/>
	<line class="st1" x1="-7.9558473" y1="241.1404419" x2="-6.1546135" y2="241.1404419"/>
	<line class="st1" x1="172.1674805" y1="363.3033142" x2="170.3662567" y2="363.3033142"/>
	<line class="st1" x1="172.1674805" y1="322.5823669" x2="170.3662567" y2="322.5823669"/>
	<line class="st1" x1="172.1674805" y1="281.8613892" x2="170.3662567" y2="281.8613892"/>
	<line class="st1" x1="172.1674805" y1="241.1404419" x2="170.3662567" y2="241.1404419"/>
</g>
<g transform="translate(57.3333,318)">
	<g class="st2">
		<path class="st3" d="M-87.6653366,46.5581055v0.7827148h-2.9736328v-0.7827148H-87.6653366z"/>
		<path class="st3" d="M-81.5623093,46.2089844c0,2.6606445-0.9873047,4.1293945-2.7207031,4.1293945
			c-1.5292969,0-2.5644531-1.4326172-2.5883789-4.0209961c0-2.6245117,1.1313477-4.0693359,2.7207031-4.0693359
			C-82.5012741,42.2480469-81.5623093,43.7167969-81.5623093,46.2089844z M-85.8123093,46.3295898
			c0,2.034668,0.6264648,3.1904297,1.5893555,3.1904297c1.0834961,0,1.6010742-1.2641602,1.6010742-3.2626953
			c0-1.9262695-0.4936523-3.1904297-1.5888672-3.1904297C-85.1379929,43.0668945-85.8123093,44.1987305-85.8123093,46.3295898z"/>
		<path class="st3" d="M-80.5037155,49.5800781c0-0.4453125,0.3012695-0.7583008,0.722168-0.7583008
			c0.4213867,0,0.7104492,0.3129883,0.7104492,0.7583008c0,0.4335938-0.2768555,0.7583008-0.722168,0.7583008
			C-80.214653,50.3383789-80.5037155,50.0136719-80.5037155,49.5800781z"/>
		<path class="st3" d="M-73.4251022,43.2714844h-2.9858398l-0.3007813,2.0107422
			c0.1806641-0.0244141,0.3491211-0.0483398,0.6381836-0.0483398c0.6020508,0,1.2036133,0.1323242,1.6855469,0.4213867
			c0.6137695,0.3491211,1.1196289,1.0234375,1.1196289,2.0107422c0,1.5288086-1.2163086,2.6723633-2.9135742,2.6723633
			c-0.8549805,0-1.5771484-0.2407227-1.9501953-0.4814453l0.2646484-0.8066406
			c0.3251953,0.1928711,0.9628906,0.4335938,1.6733398,0.4335938c0.9995117,0,1.8540039-0.6503906,1.8540039-1.6977539
			c-0.0117188-1.0112305-0.6860352-1.7333984-2.2509766-1.7333984c-0.4458008,0-0.7949219,0.0478516-1.0839844,0.0839844
			l0.5058594-3.7563477h3.7441406V43.2714844z"/>
	</g>
</g>
<g transform="translate(57.3333,226.6667)">
	<g class="st2">
		<path class="st3" d="M-71.4363327,96.8225555c0,2.6606445-0.9873047,4.1293945-2.7207031,4.1293945
			c-1.5292969,0-2.5644531-1.4326172-2.5883789-4.0209961c0-2.6245117,1.1313477-4.0693359,2.7207031-4.0693359
			C-72.3752975,92.861618-71.4363327,94.330368-71.4363327,96.8225555z M-75.6863327,96.943161
			c0,2.034668,0.6264648,3.1904297,1.5893555,3.1904297c1.0834961,0,1.6010742-1.2641602,1.6010742-3.2626953
			c0-1.9262695-0.4936523-3.1904297-1.5888672-3.1904297C-75.0120163,93.6804657-75.6863327,94.8123016-75.6863327,96.943161z"/>
	</g>
</g>
<g transform="translate(57.3333,135.3333)">
	<g class="st2">
		<path class="st3" d="M-81.245903,147.4342804c0,2.6606445-0.9873047,4.1293945-2.7207031,4.1293945
			c-1.5292969,0-2.5644531-1.4326172-2.5883789-4.0209961c0-2.6245117,1.1313477-4.0693359,2.7207031-4.0693359
			C-82.1848679,143.4733429-81.245903,144.9420929-81.245903,147.4342804z M-85.495903,147.5548859
			c0,2.034668,0.6264648,3.1904297,1.5893555,3.1904297c1.0834961,0,1.6010742-1.2641602,1.6010742-3.2626953
			c0-1.9262695-0.4936523-3.1904297-1.5888672-3.1904297C-84.8215866,144.2921906-85.495903,145.4240265-85.495903,147.5548859z"/>
		<path class="st3" d="M-80.1873093,150.8053741c0-0.4453125,0.3012695-0.7583008,0.722168-0.7583008
			c0.4213867,0,0.7104492,0.3129883,0.7104492,0.7583008c0,0.4335938-0.2768555,0.7583008-0.722168,0.7583008
			C-79.8982468,151.5636749-80.1873093,151.2389679-80.1873093,150.8053741z"/>
		<path class="st3" d="M-73.108696,144.4967804h-2.9858398l-0.3007813,2.0107422
			c0.1806641-0.0244141,0.3491211-0.0483398,0.6381836-0.0483398c0.6020508,0,1.2036133,0.1323242,1.6855469,0.4213867
			c0.6137695,0.3491211,1.1196289,1.0234375,1.1196289,2.0107422c0,1.5288086-1.2163086,2.6723633-2.9135742,2.6723633
			c-0.8549805,0-1.5771484-0.2407227-1.9501953-0.4814453l0.2646484-0.8066406
			c0.3251953,0.1928711,0.9628906,0.4335938,1.6733398,0.4335938c0.9995117,0,1.8540039-0.6503906,1.8540039-1.6977539
			c-0.0117188-1.0112305-0.6860352-1.7333984-2.2509766-1.7333984c-0.4458008,0-0.7949219,0.0478516-1.0839844,0.0839844
			l0.5058594-3.7563477h3.7441406V144.4967804z"/>
	</g>
</g>
<g transform="translate(57.3333,44)">
	<g class="st2">
		<path class="st3" d="M-74.3376999,195.2055664h-0.0239258l-1.3608398,0.734375l-0.2045898-0.8066406l1.7094727-0.9150391
			h0.9033203v7.8256836h-1.0234375V195.2055664z"/>
	</g>
</g>
<g transform="translate(270.0002,41.2399)">
	<g class="st2">
		<path d="M-197.0900574,195.5481873v-5.3891602h-0.878418v-0.8662109h0.878418v-0.2973633
			c0-0.8789063,0.1938477-1.6801758,0.7241211-2.184082c0.4262695-0.4135742,0.9951172-0.581543,1.5249023-0.581543
			c0.4008789,0,0.7495117,0.090332,0.9692383,0.1811523l-0.1547852,0.878418
			c-0.168457-0.0771484-0.4008789-0.1420898-0.7241211-0.1420898c-0.9692383,0-1.2148438,0.8530273-1.2148438,1.8095703v0.3359375
			h1.512207v0.8662109h-1.512207v5.3891602H-197.0900574z"/>
		<path d="M-190.9621277,186.578949c-0.9433594,1.2666016-1.628418,2.9467773-1.628418,5.2856445
			c0,2.3007813,0.7104492,3.9550781,1.628418,5.2475586h-0.8920898c-0.8139648-1.0727539-1.6928711-2.7270508-1.6928711-5.2475586
			c0.0126953-2.5458984,0.8789063-4.2001953,1.6928711-5.2856445H-190.9621277z"/>
		<path d="M-189.2292175,189.2928162l0.8920898,1.3442383c0.2324219,0.3491211,0.4262695,0.671875,0.6333008,1.0209961h0.0385742
			c0.2070313-0.375,0.4135742-0.6977539,0.6206055-1.0341797l0.8789063-1.3310547h1.2275391l-2.1323242,3.0244141
			l2.1967773,3.230957h-1.2919922l-0.9179688-1.4086914c-0.2456055-0.3618164-0.4521484-0.7109375-0.671875-1.0854492h-0.0258789
			c-0.2070313,0.3745117-0.4267578,0.7104492-0.6591797,1.0854492l-0.9047852,1.4086914h-1.253418l2.2226563-3.1923828
			l-2.1191406-3.0629883H-189.2292175z"/>
		<path d="M-184.4577332,197.1121521c0.9179688-1.2797852,1.628418-2.9599609,1.628418-5.2861328
			c0-2.3134766-0.6977539-3.9677734-1.628418-5.2470703h0.8789063c0.8271484,1.0595703,1.6933594,2.7138672,1.6933594,5.2597656
			c0,2.5332031-0.8662109,4.1748047-1.6933594,5.2734375H-184.4577332z"/>
	</g>
</g>
<g>
	<path class="st4" d="M-7.9558473,322.5823669l3.6759892-23.0860596l3.6759853-18.3248901l3.6759889-12.4450989l3.6759856-6.1106567
		l3.6759887,0.0497131l3.6759853,5.495636l3.6759901,9.8138428l3.6759853,12.7415161l3.6759892,14.1723938l3.6759872,14.1489563
		l3.6759834,12.8408508l3.6759872,10.5150452l3.6759911,7.5006714l3.6759872,4.1512451l3.6759834,0.8100891l3.6759872-2.2197266
		l3.6759911-4.6983643l3.6759872-6.4638367l3.6759911-7.4377441l3.6759796-7.6227112l3.6759872-7.0927124l3.6759949-5.9785156
		l3.6759796-4.448761l3.6759491-2.6905212l3.6760254-0.8901367l3.6759491,0.7838135l3.6759872,2.1934509l3.6759796,3.2410583
		l3.6760406,3.8730774l3.6759796,4.079834l3.6759491,3.891571l3.6759872,3.3709412l3.6759872,2.6035461l3.6759872,1.6877136
		l3.6759872,0.723938l3.6759949-0.1946716l3.675972-0.9897461l3.6759949-1.6030579l3.6759796-1.9999084l3.6759949-2.1689453
		l3.6759796-2.1212769l3.6759949-1.8860168l3.6759949-1.5063171l3.6759796-1.0332947l3.6759796-0.520752l3.6759949-0.019989
		l3.6759796,0.4249878l3.6759949,0.7799683l3.6759796,1.0231018"/>
	<circle class="st5" cx="-7.9558473" cy="322.5823669" r="1.1889477"/>
</g>
<g transform="translate(76.2449,174.8868)">
	<circle class="st5" cx="-80.524765" cy="124.6095047" r="1.1889477"/>
</g>
<g transform="translate(84.4898,133.7858)">
	<circle class="st5" cx="-85.0936737" cy="147.3856354" r="1.1889477"/>
</g>
<g transform="translate(92.7347,105.8726)">
	<circle class="st5" cx="-89.66259" cy="162.8537292" r="1.1889477"/>
</g>
<g transform="translate(100.9796,92.1669)">
	<circle class="st5" cx="-94.2314987" cy="170.4487457" r="1.1889477"/>
</g>
<g transform="translate(109.2245,92.2784)">
	<circle class="st5" cx="-98.800415" cy="170.3869629" r="1.1889477"/>
</g>
<g transform="translate(117.4694,104.6046)">
	<circle class="st5" cx="-103.3693237" cy="163.5563965" r="1.1889477"/>
</g>
<g transform="translate(125.7143,126.6162)">
	<circle class="st5" cx="-107.9382401" cy="151.3586578" r="1.1889477"/>
</g>
<g transform="translate(133.9592,155.1942)">
	<circle class="st5" cx="-112.5071487" cy="135.5221558" r="1.1889477"/>
</g>
<g transform="translate(142.2041,186.9816)">
	<circle class="st5" cx="-117.0760651" cy="117.9071732" r="1.1889477"/>
</g>
<g transform="translate(150.449,218.7164)">
	<circle class="st5" cx="-121.6449738" cy="100.3213272" r="1.1889477"/>
</g>
<g transform="translate(158.6939,247.5172)">
	<circle class="st5" cx="-126.2138824" cy="84.3613586" r="1.1889477"/>
</g>
<g transform="translate(166.9388,271.1015)">
	<circle class="st5" cx="-130.7827911" cy="71.2921143" r="1.1889477"/>
</g>
<g transform="translate(175.1837,287.9248)">
	<circle class="st5" cx="-135.3517151" cy="61.9694748" r="1.1889477"/>
</g>
<g transform="translate(183.4286,297.2357)">
	<circle class="st5" cx="-139.9206238" cy="56.8098488" r="1.1889477"/>
</g>
<g transform="translate(191.6735,299.0526)">
	<circle class="st5" cx="-144.4895325" cy="55.8030014" r="1.1889477"/>
</g>
<g transform="translate(199.9184,294.074)">
	<circle class="st5" cx="-149.0584412" cy="58.5618973" r="1.1889477"/>
</g>
<g transform="translate(208.1633,283.536)">
	<circle class="st5" cx="-153.6273651" cy="64.4015274" r="1.1889477"/>
</g>
<g transform="translate(216.4082,269.0382)">
	<circle class="st5" cx="-158.1962738" cy="72.4354858" r="1.1889477"/>
</g>
<g transform="translate(224.6531,252.356)">
	<circle class="st5" cx="-162.7651978" cy="81.6799316" r="1.1889477"/>
</g>
<g transform="translate(232.898,235.259)">
	<circle class="st5" cx="-167.3340912" cy="91.1542358" r="1.1889477"/>
</g>
<g transform="translate(241.1429,219.3507)">
	<circle class="st5" cx="-171.9030151" cy="99.9698334" r="1.1889477"/>
</g>
<g transform="translate(249.3878,205.9414)">
	<circle class="st5" cx="-176.4719238" cy="107.400589" r="1.1889477"/>
</g>
<g transform="translate(257.6327,195.9633)">
	<circle class="st5" cx="-181.0408325" cy="112.9299545" r="1.1889477"/>
</g>
<g transform="translate(265.8775,189.9287)">
	<circle class="st5" cx="-185.6096954" cy="116.2740326" r="1.1889477"/>
</g>
<g transform="translate(274.1225,187.9322)">
	<circle class="st5" cx="-190.1786652" cy="117.380394" r="1.1889477"/>
</g>
<g transform="translate(282.3673,189.6902)">
	<circle class="st5" cx="-194.7475281" cy="116.4061966" r="1.1889477"/>
</g>
<g transform="translate(290.6122,194.6099)">
	<circle class="st5" cx="-199.3164368" cy="113.6799469" r="1.1889477"/>
</g>
<g transform="translate(298.8571,201.8793)">
	<circle class="st5" cx="-203.8853455" cy="109.6516037" r="1.1889477"/>
</g>
<g transform="translate(307.1021,210.5663)">
	<circle class="st5" cx="-208.4543152" cy="104.8377075" r="1.1889477"/>
</g>
<g transform="translate(315.347,219.717)">
	<circle class="st5" cx="-213.0232239" cy="99.7668457" r="1.1889477"/>
</g>
<g transform="translate(323.5918,228.4454)">
	<circle class="st5" cx="-217.5920868" cy="94.9299927" r="1.1889477"/>
</g>
<g transform="translate(331.8367,236.0061)">
	<circle class="st5" cx="-222.1609955" cy="90.7402344" r="1.1889477"/>
</g>
<g transform="translate(340.0816,241.8456)">
	<circle class="st5" cx="-226.7299194" cy="87.5042801" r="1.1889477"/>
</g>
<g transform="translate(348.3265,245.631)">
	<circle class="st5" cx="-231.2988281" cy="85.4065933" r="1.1889477"/>
</g>
<g transform="translate(356.5714,247.2547)">
	<circle class="st5" cx="-235.8677368" cy="84.5068207" r="1.1889477"/>
</g>
<g transform="translate(364.8163,246.8181)">
	<circle class="st5" cx="-240.4366608" cy="84.748764" r="1.1889477"/>
</g>
<g transform="translate(373.0612,244.5982)">
	<circle class="st5" cx="-245.0055542" cy="85.97892" r="1.1889477"/>
</g>
<g transform="translate(381.3061,241.0027)">
	<circle class="st5" cx="-249.5744629" cy="87.9713669" r="1.1889477"/>
</g>
<g transform="translate(389.551,236.5171)">
	<circle class="st5" cx="-254.1433868" cy="90.4570618" r="1.1889477"/>
</g>
<g transform="translate(397.7959,231.6523)">
	<circle class="st5" cx="-258.7123108" cy="93.1528931" r="1.1889477"/>
</g>
<g transform="translate(406.0408,226.8945)">
	<circle class="st5" cx="-263.2812195" cy="95.7894287" r="1.1889477"/>
</g>
<g transform="translate(414.2857,222.6643)">
	<circle class="st5" cx="-267.8501282" cy="98.1335907" r="1.1889477"/>
</g>
<g transform="translate(422.5306,219.2858)">
	<circle class="st5" cx="-272.4190369" cy="100.0057907" r="1.1889477"/>
</g>
<g transform="translate(430.7755,216.9682)">
	<circle class="st5" cx="-276.9879456" cy="101.2900925" r="1.1889477"/>
</g>
<g transform="translate(439.0204,215.8002)">
	<circle class="st5" cx="-281.5568542" cy="101.9373398" r="1.1889477"/>
</g>
<g transform="translate(447.2653,215.7554)">
	<circle class="st5" cx="-286.1257629" cy="101.9621658" r="1.1889477"/>
</g>
<g transform="translate(455.5102,216.7086)">
	<circle class="st5" cx="-290.6946716" cy="101.4339447" r="1.1889477"/>
</g>
<g transform="translate(463.7551,218.458)">
	<circle class="st5" cx="-295.2636108" cy="100.4645233" r="1.1889477"/>
</g>
<g transform="translate(472,220.7527)">
	<circle class="st5" cx="-299.8325195" cy="99.1929092" r="1.1889477"/>
</g>
</svg>
