<?xml version="1.0" encoding="UTF-8"?>
<svg xmlns="http://www.w3.org/2000/svg" xmlns:xlink="http://www.w3.org/1999/xlink" width="219pt" height="289.98pt" viewBox="0 0 219 289.98" version="1.1">
<g id="surface1">
<path style=" stroke:none;fill-rule:evenodd;fill:rgb(0%,0%,0%);fill-opacity:1;" d="M 111.355469 271.753906 C 111.355469 272.265625 111.253906 272.753906 111.054688 273.21875 C 110.851562 273.679688 110.558594 274.085938 110.167969 274.433594 C 109.722656 274.792969 109.226562 275.050781 108.675781 275.199219 C 108.125 275.347656 107.570312 275.421875 107.003906 275.421875 L 99.050781 275.421875 L 99.050781 274.214844 L 100.855469 274.214844 L 100.855469 263.445312 L 99.050781 263.445312 L 99.050781 262.238281 L 106.46875 262.238281 C 107.03125 262.238281 107.589844 262.308594 108.132812 262.445312 C 108.679688 262.582031 109.171875 262.816406 109.613281 263.152344 C 110.007812 263.460938 110.308594 263.832031 110.511719 264.265625 C 110.714844 264.703125 110.816406 265.160156 110.816406 265.640625 C 110.816406 266.105469 110.710938 266.539062 110.503906 266.945312 C 110.292969 267.351562 109.996094 267.695312 109.613281 267.976562 C 109.097656 268.324219 108.851562 268.496094 108.867188 268.488281 C 108.617188 268.457031 108.683594 268.511719 109.070312 268.648438 C 109.457031 268.785156 109.820312 268.984375 110.160156 269.246094 C 110.554688 269.550781 110.851562 269.925781 111.054688 270.363281 C 111.253906 270.800781 111.355469 271.265625 111.355469 271.753906 Z M 107.738281 265.640625 C 107.738281 265.351562 107.71875 265.066406 107.679688 264.785156 C 107.636719 264.511719 107.539062 264.25 107.382812 264.011719 C 107.28125 263.855469 107.148438 263.722656 106.980469 263.613281 C 106.816406 263.503906 106.644531 263.445312 106.46875 263.445312 L 103.71875 263.445312 L 103.71875 268.066406 L 105.941406 268.066406 C 106.199219 268.066406 106.4375 268.011719 106.65625 267.898438 C 106.875 267.785156 107.070312 267.625 107.238281 267.417969 C 107.429688 267.171875 107.558594 266.898438 107.632812 266.59375 C 107.703125 266.289062 107.738281 265.972656 107.738281 265.640625 Z M 108.164062 271.753906 C 108.164062 271.398438 108.140625 271.054688 108.09375 270.71875 C 108.046875 270.386719 107.933594 270.070312 107.757812 269.777344 C 107.644531 269.570312 107.5 269.402344 107.324219 269.269531 C 107.148438 269.140625 106.953125 269.074219 106.730469 269.074219 L 103.71875 269.074219 L 103.71875 274.214844 L 106.46875 274.214844 C 106.71875 274.214844 106.953125 274.15625 107.164062 274.035156 C 107.378906 273.917969 107.554688 273.765625 107.691406 273.574219 C 107.875 273.304688 108 273.015625 108.0625 272.707031 C 108.128906 272.394531 108.164062 272.078125 108.164062 271.753906 Z M 108.164062 271.753906 "/>
<path style=" stroke:none;fill-rule:evenodd;fill:rgb(0%,0%,0%);fill-opacity:1;" d="M 118.476562 274.441406 C 118.476562 274.933594 118.4375 275.421875 118.359375 275.910156 C 118.285156 276.394531 118.09375 276.851562 117.789062 277.277344 C 117.574219 277.589844 117.285156 277.828125 116.925781 277.996094 C 116.5625 278.164062 116.167969 278.246094 115.742188 278.246094 C 115.332031 278.246094 114.945312 278.164062 114.582031 277.996094 C 114.21875 277.828125 113.929688 277.589844 113.710938 277.277344 C 113.410156 276.851562 113.21875 276.394531 113.140625 275.910156 C 113.066406 275.421875 113.027344 274.933594 113.027344 274.441406 C 113.027344 273.941406 113.066406 273.445312 113.140625 272.949219 C 113.21875 272.449219 113.410156 271.984375 113.710938 271.550781 C 113.929688 271.238281 114.21875 270.992188 114.578125 270.820312 C 114.941406 270.644531 115.328125 270.558594 115.742188 270.558594 C 116.164062 270.558594 116.554688 270.644531 116.921875 270.820312 C 117.285156 270.992188 117.574219 271.238281 117.789062 271.550781 C 118.09375 271.984375 118.285156 272.449219 118.359375 272.949219 C 118.4375 273.445312 118.476562 273.941406 118.476562 274.441406 Z M 117.304688 274.261719 C 117.304688 274.046875 117.304688 273.820312 117.300781 273.582031 C 117.296875 273.339844 117.289062 273.105469 117.269531 272.878906 C 117.257812 272.648438 117.226562 272.433594 117.1875 272.230469 C 117.144531 272.027344 117.09375 271.855469 117.035156 271.710938 C 116.917969 271.476562 116.742188 271.289062 116.515625 271.140625 C 116.289062 270.992188 116.03125 270.917969 115.742188 270.914062 C 115.460938 270.917969 115.210938 270.992188 114.984375 271.140625 C 114.757812 271.292969 114.585938 271.480469 114.46875 271.710938 C 114.40625 271.855469 114.359375 272.027344 114.316406 272.230469 C 114.277344 272.433594 114.246094 272.648438 114.230469 272.878906 C 114.214844 273.105469 114.203125 273.339844 114.203125 273.582031 C 114.199219 273.820312 114.195312 274.046875 114.195312 274.261719 C 114.195312 274.5 114.199219 274.753906 114.203125 275.015625 C 114.203125 275.28125 114.214844 275.539062 114.230469 275.785156 C 114.246094 276.035156 114.277344 276.269531 114.316406 276.492188 C 114.359375 276.710938 114.40625 276.898438 114.46875 277.046875 C 114.578125 277.296875 114.75 277.503906 114.976562 277.664062 C 115.207031 277.824219 115.460938 277.902344 115.742188 277.902344 C 116.035156 277.902344 116.292969 277.824219 116.523438 277.664062 C 116.753906 277.503906 116.925781 277.296875 117.035156 277.046875 C 117.09375 276.898438 117.144531 276.710938 117.1875 276.492188 C 117.226562 276.269531 117.257812 276.035156 117.269531 275.785156 C 117.289062 275.539062 117.296875 275.28125 117.300781 275.015625 C 117.304688 274.753906 117.304688 274.5 117.304688 274.261719 Z M 117.304688 274.261719 "/>
<path style=" stroke:none;fill-rule:evenodd;fill:rgb(0%,0%,0%);fill-opacity:1;" d="M 94.257812 30.292969 C 94.277344 30.335938 94.285156 30.378906 94.285156 30.414062 C 94.285156 30.460938 94.273438 30.5 94.246094 30.523438 C 94.210938 30.597656 94.136719 30.632812 94.03125 30.632812 L 80.101562 30.632812 C 80 30.632812 79.929688 30.597656 79.882812 30.523438 C 79.859375 30.5 79.847656 30.460938 79.847656 30.414062 C 79.847656 30.378906 79.855469 30.335938 79.875 30.292969 L 86.546875 17.277344 C 86.628906 17.101562 86.773438 17.015625 86.980469 17.019531 L 87.148438 17.019531 C 87.34375 17.019531 87.488281 17.101562 87.582031 17.265625 Z M 86.5 19.070312 L 81.34375 29.125 L 91.648438 29.125 Z M 86.5 19.070312 "/>
<path style=" stroke:none;fill-rule:evenodd;fill:rgb(0%,0%,0%);fill-opacity:1;" d="M 111.65625 30.734375 C 110.734375 30.691406 109.867188 30.667969 109.058594 30.667969 C 108.273438 30.667969 107.4375 30.691406 106.554688 30.734375 L 106.554688 29.515625 L 107.785156 29.515625 L 107.785156 24.824219 C 107.785156 24.523438 107.78125 24.242188 107.769531 23.972656 C 107.753906 23.703125 107.703125 23.453125 107.609375 23.214844 C 107.558594 23.050781 107.46875 22.964844 107.34375 22.964844 C 107.011719 22.964844 106.699219 23.035156 106.414062 23.171875 C 106.125 23.308594 105.875 23.503906 105.664062 23.75 C 105.453125 23.996094 105.289062 24.28125 105.167969 24.609375 C 105.042969 24.933594 104.980469 25.28125 104.980469 25.648438 L 104.980469 29.515625 L 106.320312 29.515625 L 106.320312 30.734375 C 105.398438 30.691406 104.527344 30.667969 103.710938 30.667969 C 102.925781 30.667969 102.09375 30.691406 101.214844 30.734375 L 101.214844 29.515625 L 102.449219 29.515625 L 102.449219 24.824219 C 102.449219 24.523438 102.441406 24.242188 102.429688 23.972656 C 102.417969 23.703125 102.359375 23.453125 102.261719 23.214844 C 102.210938 23.050781 102.121094 22.964844 101.996094 22.964844 C 101.664062 22.964844 101.355469 23.035156 101.070312 23.171875 C 100.785156 23.308594 100.535156 23.503906 100.328125 23.75 C 100.117188 23.996094 99.949219 24.28125 99.824219 24.609375 C 99.703125 24.933594 99.644531 25.28125 99.644531 25.648438 L 99.644531 29.515625 L 100.972656 29.515625 L 100.972656 30.734375 C 100.046875 30.691406 99.183594 30.667969 98.371094 30.667969 C 97.550781 30.667969 96.679688 30.691406 95.753906 30.734375 L 95.753906 29.515625 L 97.101562 29.515625 L 97.101562 23.679688 C 97.101562 23.613281 97.089844 23.554688 97.074219 23.503906 C 97.054688 23.449219 97.023438 23.417969 96.980469 23.40625 C 96.898438 23.375 96.75 23.355469 96.535156 23.351562 C 96.320312 23.34375 96.0625 23.34375 95.753906 23.339844 L 95.753906 22.125 L 99.410156 21.949219 L 99.410156 23.324219 C 99.457031 23.207031 99.75 22.953125 100.277344 22.554688 C 100.808594 22.160156 101.429688 21.960938 102.136719 21.960938 C 102.496094 21.960938 102.875 22 103.269531 22.082031 C 103.664062 22.167969 104.007812 22.363281 104.304688 22.671875 C 104.472656 22.839844 104.601562 23.019531 104.6875 23.214844 C 104.777344 23.410156 104.8125 23.453125 104.792969 23.339844 C 104.925781 23.097656 105.242188 22.804688 105.742188 22.46875 C 106.246094 22.128906 106.824219 21.960938 107.476562 21.960938 C 107.832031 21.960938 108.210938 22 108.605469 22.082031 C 109 22.167969 109.347656 22.363281 109.640625 22.671875 C 109.949219 22.980469 110.140625 23.328125 110.214844 23.71875 C 110.292969 24.109375 110.328125 24.476562 110.328125 24.824219 L 110.328125 29.515625 L 111.65625 29.515625 Z M 111.65625 30.734375 "/>
<path style=" stroke:none;fill-rule:evenodd;fill:rgb(0%,0%,0%);fill-opacity:1;" d="M 122.40625 31.773438 C 122.359375 31.953125 122.289062 32.140625 122.191406 32.339844 C 122.097656 32.535156 121.984375 32.714844 121.855469 32.875 C 121.722656 33.035156 121.566406 33.167969 121.390625 33.273438 C 121.214844 33.382812 121.007812 33.4375 120.777344 33.4375 C 120.578125 33.4375 120.410156 33.398438 120.265625 33.324219 C 120.125 33.25 120.019531 33.148438 119.945312 33.027344 C 119.875 32.902344 119.832031 32.761719 119.824219 32.597656 L 119.824219 32.554688 C 119.824219 32.410156 119.859375 32.261719 119.925781 32.109375 C 120.054688 31.808594 120.175781 31.511719 120.285156 31.214844 C 120.394531 30.917969 120.496094 30.617188 120.585938 30.316406 C 120.648438 30.117188 120.695312 29.925781 120.714844 29.738281 C 120.726562 29.691406 120.730469 29.640625 120.730469 29.585938 C 120.730469 29.464844 120.707031 29.351562 120.667969 29.246094 C 120.597656 29.03125 120.449219 28.921875 120.21875 28.921875 C 119.820312 28.921875 119.472656 29.046875 119.179688 29.292969 C 118.890625 29.542969 118.636719 29.871094 118.417969 30.28125 C 118.296875 30.746094 118.167969 31.210938 118.03125 31.671875 C 117.890625 32.136719 117.757812 32.597656 117.621094 33.058594 C 117.585938 33.183594 117.515625 33.277344 117.402344 33.34375 C 117.292969 33.40625 117.1875 33.4375 117.078125 33.4375 C 116.964844 33.4375 116.871094 33.402344 116.796875 33.335938 C 116.746094 33.289062 116.71875 33.230469 116.714844 33.148438 C 116.714844 33.113281 116.71875 33.074219 116.722656 33.039062 L 117.515625 30.316406 C 117.578125 30.117188 117.621094 29.925781 117.644531 29.738281 L 117.644531 29.585938 C 117.644531 29.460938 117.628906 29.347656 117.597656 29.246094 C 117.527344 29.03125 117.378906 28.921875 117.152344 28.921875 C 116.75 28.921875 116.402344 29.046875 116.113281 29.292969 C 115.820312 29.542969 115.5625 29.871094 115.34375 30.28125 L 114.535156 33.058594 C 114.5 33.183594 114.425781 33.277344 114.320312 33.34375 C 114.210938 33.40625 114.101562 33.4375 113.992188 33.4375 C 113.871094 33.4375 113.78125 33.402344 113.71875 33.335938 C 113.667969 33.289062 113.644531 33.230469 113.644531 33.148438 C 113.644531 33.121094 113.648438 33.082031 113.65625 33.039062 L 114.5625 29.867188 C 114.625 29.644531 114.660156 29.453125 114.660156 29.292969 L 114.660156 29.167969 C 114.636719 29.003906 114.546875 28.921875 114.382812 28.921875 C 114.207031 28.921875 114.0625 29.046875 113.945312 29.296875 C 113.828125 29.546875 113.71875 29.871094 113.609375 30.269531 C 113.5625 30.363281 113.492188 30.410156 113.386719 30.414062 L 113.253906 30.414062 C 113.15625 30.414062 113.109375 30.371094 113.109375 30.285156 L 113.109375 30.25 C 113.15625 30.089844 113.210938 29.914062 113.269531 29.726562 C 113.332031 29.535156 113.410156 29.355469 113.507812 29.1875 C 113.605469 29.019531 113.730469 28.875 113.878906 28.757812 C 114.027344 28.640625 114.214844 28.582031 114.4375 28.578125 C 114.761719 28.582031 115.015625 28.667969 115.203125 28.839844 C 115.386719 29.015625 115.484375 29.183594 115.492188 29.347656 C 115.65625 29.152344 115.886719 28.976562 116.183594 28.816406 C 116.476562 28.660156 116.820312 28.582031 117.207031 28.578125 C 117.449219 28.582031 117.671875 28.617188 117.871094 28.695312 C 118.070312 28.773438 118.226562 28.894531 118.335938 29.066406 C 118.433594 29.214844 118.484375 29.335938 118.488281 29.433594 C 118.664062 29.21875 118.902344 29.019531 119.210938 28.84375 C 119.519531 28.667969 119.878906 28.582031 120.292969 28.578125 C 120.523438 28.582031 120.742188 28.617188 120.941406 28.695312 C 121.144531 28.773438 121.300781 28.894531 121.414062 29.066406 C 121.53125 29.242188 121.589844 29.4375 121.585938 29.65625 L 121.585938 29.679688 C 121.578125 29.902344 121.542969 30.121094 121.476562 30.34375 C 121.386719 30.652344 121.285156 30.960938 121.164062 31.257812 C 121.046875 31.558594 120.921875 31.863281 120.792969 32.171875 C 120.675781 32.449219 120.617188 32.679688 120.617188 32.867188 C 120.617188 33.023438 120.691406 33.097656 120.839844 33.097656 C 120.976562 33.097656 121.097656 33.0625 121.203125 32.992188 C 121.3125 32.917969 121.410156 32.824219 121.5 32.703125 C 121.585938 32.582031 121.667969 32.4375 121.738281 32.269531 C 121.808594 32.105469 121.871094 31.929688 121.925781 31.746094 C 121.949219 31.65625 122.019531 31.613281 122.132812 31.613281 L 122.265625 31.613281 C 122.308594 31.613281 122.351562 31.625 122.398438 31.648438 C 122.414062 31.679688 122.421875 31.707031 122.421875 31.726562 C 122.421875 31.738281 122.417969 31.753906 122.40625 31.773438 Z M 122.40625 31.773438 "/>
<path style=" stroke:none;fill-rule:evenodd;fill:rgb(0%,0%,0%);fill-opacity:1;" d="M 128.121094 31.023438 C 128.03125 31.332031 127.890625 31.628906 127.695312 31.921875 C 127.5 32.210938 127.25 32.476562 126.945312 32.714844 C 126.675781 32.925781 126.375 33.101562 126.050781 33.234375 C 125.722656 33.371094 125.394531 33.4375 125.0625 33.4375 C 124.722656 33.4375 124.425781 33.371094 124.171875 33.234375 C 123.917969 33.101562 123.722656 32.921875 123.578125 32.703125 C 123.410156 32.457031 123.316406 32.191406 123.292969 31.898438 C 123.285156 31.828125 123.28125 31.757812 123.28125 31.683594 C 123.28125 31.464844 123.3125 31.238281 123.375 31.003906 C 123.46875 30.6875 123.613281 30.386719 123.808594 30.097656 C 124.003906 29.804688 124.25 29.539062 124.542969 29.296875 C 124.816406 29.085938 125.117188 28.914062 125.445312 28.78125 C 125.773438 28.648438 126.101562 28.582031 126.433594 28.578125 C 126.769531 28.582031 127.0625 28.648438 127.316406 28.78125 C 127.570312 28.917969 127.773438 29.09375 127.925781 29.308594 C 128.09375 29.554688 128.191406 29.824219 128.222656 30.121094 L 128.222656 30.332031 C 128.222656 30.5625 128.1875 30.792969 128.121094 31.023438 Z M 127.179688 29.488281 C 127.113281 29.320312 127.015625 29.183594 126.875 29.078125 C 126.734375 28.976562 126.5625 28.921875 126.363281 28.921875 C 126.167969 28.921875 125.964844 28.976562 125.757812 29.085938 C 125.550781 29.191406 125.367188 29.332031 125.210938 29.503906 C 125 29.722656 124.835938 29.964844 124.722656 30.222656 C 124.613281 30.480469 124.519531 30.746094 124.4375 31.023438 C 124.359375 31.296875 124.296875 31.5625 124.253906 31.816406 C 124.238281 31.898438 124.230469 31.976562 124.230469 32.046875 C 124.230469 32.214844 124.261719 32.375 124.324219 32.53125 C 124.386719 32.699219 124.484375 32.839844 124.625 32.941406 C 124.765625 33.046875 124.929688 33.097656 125.128906 33.097656 C 125.332031 33.097656 125.539062 33.046875 125.746094 32.9375 C 125.953125 32.828125 126.132812 32.6875 126.285156 32.515625 C 126.496094 32.292969 126.660156 32.054688 126.773438 31.796875 C 126.886719 31.539062 126.980469 31.273438 127.066406 31.003906 C 127.144531 30.722656 127.203125 30.453125 127.242188 30.1875 C 127.257812 30.109375 127.265625 30.035156 127.265625 29.964844 C 127.265625 29.796875 127.238281 29.636719 127.179688 29.488281 Z M 127.179688 29.488281 "/>
<path style=" stroke:none;fill-rule:evenodd;fill:rgb(0%,0%,0%);fill-opacity:1;" d="M 130.433594 32.144531 C 130.394531 32.285156 130.363281 32.417969 130.351562 32.539062 C 130.339844 32.601562 130.335938 32.660156 130.335938 32.710938 C 130.335938 32.753906 130.339844 32.800781 130.351562 32.851562 C 130.359375 32.933594 130.390625 32.996094 130.433594 33.039062 C 130.476562 33.078125 130.539062 33.097656 130.628906 33.097656 C 130.710938 33.097656 130.785156 33.066406 130.847656 33.007812 C 130.914062 32.945312 130.976562 32.855469 131.039062 32.734375 C 131.101562 32.613281 131.160156 32.464844 131.214844 32.296875 C 131.269531 32.128906 131.324219 31.949219 131.382812 31.757812 C 131.40625 31.660156 131.472656 31.613281 131.582031 31.613281 L 131.71875 31.613281 C 131.8125 31.613281 131.859375 31.652344 131.859375 31.726562 L 131.859375 31.761719 C 131.820312 31.917969 131.769531 32.09375 131.707031 32.285156 C 131.644531 32.480469 131.566406 32.660156 131.472656 32.828125 C 131.375 32.996094 131.253906 33.136719 131.105469 33.257812 C 130.957031 33.378906 130.773438 33.4375 130.558594 33.4375 C 130.351562 33.4375 130.175781 33.402344 130.023438 33.332031 C 129.875 33.261719 129.753906 33.164062 129.664062 33.039062 C 129.574219 32.914062 129.519531 32.773438 129.503906 32.613281 C 129.496094 32.570312 129.492188 32.527344 129.492188 32.480469 C 129.492188 32.363281 129.511719 32.246094 129.542969 32.125 L 131.050781 26.878906 C 131.082031 26.765625 131.105469 26.679688 131.117188 26.621094 L 131.117188 26.609375 C 131.117188 26.578125 131.109375 26.554688 131.085938 26.539062 C 131.039062 26.515625 130.953125 26.496094 130.820312 26.484375 C 130.691406 26.472656 130.542969 26.46875 130.371094 26.46875 C 130.316406 26.46875 130.273438 26.453125 130.242188 26.417969 C 130.21875 26.398438 130.207031 26.371094 130.207031 26.339844 C 130.207031 26.320312 130.214844 26.300781 130.226562 26.285156 L 130.242188 26.207031 C 130.253906 26.160156 130.28125 26.125 130.324219 26.101562 C 130.367188 26.078125 130.417969 26.058594 130.46875 26.050781 L 132.007812 25.9375 L 132.042969 25.9375 C 132.136719 25.9375 132.1875 25.972656 132.1875 26.050781 C 132.1875 26.070312 132.179688 26.089844 132.171875 26.117188 Z M 130.433594 32.144531 "/>
<path style=" stroke:none;fill-rule:evenodd;fill:rgb(0%,0%,0%);fill-opacity:1;" d="M 137.601562 32.070312 C 137.628906 32.09375 137.640625 32.117188 137.640625 32.144531 C 137.640625 32.175781 137.628906 32.210938 137.597656 32.25 C 137.285156 32.632812 136.886719 32.929688 136.40625 33.132812 C 135.921875 33.335938 135.441406 33.4375 134.957031 33.4375 C 134.605469 33.4375 134.308594 33.359375 134.0625 33.203125 C 133.816406 33.042969 133.621094 32.851562 133.480469 32.621094 C 133.324219 32.347656 133.242188 32.046875 133.230469 31.71875 C 133.222656 31.6875 133.21875 31.648438 133.21875 31.609375 C 133.21875 31.316406 133.261719 31.019531 133.351562 30.714844 C 133.433594 30.4375 133.570312 30.167969 133.757812 29.90625 C 133.945312 29.648438 134.1875 29.414062 134.476562 29.210938 C 134.75 29.011719 135.046875 28.859375 135.371094 28.746094 C 135.691406 28.636719 136.011719 28.582031 136.324219 28.578125 C 136.519531 28.582031 136.699219 28.609375 136.871094 28.667969 C 137.039062 28.730469 137.179688 28.8125 137.289062 28.914062 C 137.398438 29.015625 137.476562 29.136719 137.519531 29.28125 C 137.535156 29.347656 137.542969 29.417969 137.542969 29.492188 C 137.542969 29.574219 137.53125 29.660156 137.507812 29.753906 C 137.433594 30.035156 137.277344 30.25 137.042969 30.40625 C 136.808594 30.5625 136.539062 30.675781 136.238281 30.746094 C 135.933594 30.820312 135.613281 30.863281 135.273438 30.875 C 134.9375 30.890625 134.632812 30.894531 134.367188 30.894531 C 134.285156 31.164062 134.226562 31.429688 134.195312 31.699219 C 134.179688 31.792969 134.171875 31.882812 134.171875 31.964844 C 134.171875 32.136719 134.195312 32.300781 134.242188 32.453125 C 134.300781 32.640625 134.394531 32.796875 134.523438 32.917969 C 134.652344 33.039062 134.816406 33.097656 135.023438 33.097656 C 135.4375 33.097656 135.84375 33.003906 136.242188 32.8125 C 136.640625 32.621094 136.972656 32.359375 137.234375 32.03125 C 137.265625 31.984375 137.3125 31.957031 137.371094 31.945312 L 137.398438 31.945312 C 137.445312 31.945312 137.484375 31.957031 137.511719 31.980469 Z M 136.945312 29.734375 C 136.96875 29.652344 136.980469 29.578125 136.980469 29.511719 C 136.980469 29.375 136.9375 29.257812 136.84375 29.152344 C 136.710938 29 136.515625 28.921875 136.253906 28.921875 C 136.054688 28.921875 135.851562 28.96875 135.648438 29.058594 C 135.445312 29.148438 135.265625 29.273438 135.109375 29.429688 C 134.933594 29.597656 134.792969 29.785156 134.695312 29.988281 C 134.59375 30.191406 134.511719 30.382812 134.453125 30.5625 C 134.710938 30.5625 134.984375 30.550781 135.269531 30.53125 C 135.5625 30.511719 135.820312 30.472656 136.046875 30.414062 C 136.277344 30.355469 136.46875 30.273438 136.628906 30.160156 C 136.785156 30.050781 136.890625 29.90625 136.945312 29.734375 Z M 136.945312 29.734375 "/>
<path style=" stroke:none;fill-rule:nonzero;fill:rgb(0%,0%,0%);fill-opacity:1;" d="M 10.476562 42.136719 L 10.476562 243.621094 L 9.082031 243.621094 L 9.082031 42.136719 C 9.082031 41.75 9.394531 41.4375 9.777344 41.4375 C 10.164062 41.4375 10.476562 41.75 10.476562 42.136719 Z M 9.777344 254.796875 L 13.96875 240.816406 L 10.476562 243.613281 L 9.082031 243.613281 L 5.589844 240.816406 Z M 9.777344 254.796875 "/>
<path style=" stroke:none;fill-rule:nonzero;fill:rgb(0%,0%,0%);fill-opacity:1;" d="M 43.675781 42.136719 L 43.675781 243.621094 L 42.28125 243.621094 L 42.28125 42.136719 C 42.28125 41.75 42.59375 41.4375 42.980469 41.4375 C 43.363281 41.4375 43.675781 41.75 43.675781 42.136719 Z M 42.980469 254.796875 L 47.167969 240.816406 L 43.675781 243.613281 L 42.28125 243.613281 L 38.789062 240.816406 Z M 42.980469 254.796875 "/>
<path style=" stroke:none;fill-rule:nonzero;fill:rgb(0%,0%,0%);fill-opacity:1;" d="M 76.875 42.136719 L 76.875 243.621094 L 75.480469 243.621094 L 75.480469 42.136719 C 75.480469 41.75 75.792969 41.4375 76.179688 41.4375 C 76.5625 41.4375 76.875 41.75 76.875 42.136719 Z M 76.179688 254.796875 L 80.367188 240.816406 L 76.875 243.613281 L 75.480469 243.613281 L 71.988281 240.816406 Z M 76.179688 254.796875 "/>
<path style=" stroke:none;fill-rule:nonzero;fill:rgb(0%,0%,0%);fill-opacity:1;" d="M 110.074219 42.136719 L 110.074219 243.621094 L 108.679688 243.621094 L 108.679688 42.136719 C 108.679688 41.75 108.992188 41.4375 109.378906 41.4375 C 109.761719 41.4375 110.074219 41.75 110.074219 42.136719 Z M 109.378906 254.796875 L 113.566406 240.816406 L 110.074219 243.613281 L 108.679688 243.613281 L 105.1875 240.816406 Z M 109.378906 254.796875 "/>
<path style=" stroke:none;fill-rule:nonzero;fill:rgb(0%,0%,0%);fill-opacity:1;" d="M 143.273438 42.136719 L 143.273438 243.621094 L 141.875 243.621094 L 141.875 42.136719 C 141.875 41.75 142.191406 41.4375 142.574219 41.4375 C 142.960938 41.4375 143.273438 41.75 143.273438 42.136719 Z M 142.574219 254.796875 L 146.765625 240.816406 L 143.273438 243.613281 L 141.875 243.613281 L 138.382812 240.816406 Z M 142.574219 254.796875 "/>
<path style=" stroke:none;fill-rule:nonzero;fill:rgb(0%,0%,0%);fill-opacity:1;" d="M 176.472656 42.136719 L 176.472656 243.621094 L 175.074219 243.621094 L 175.074219 42.136719 C 175.074219 41.75 175.390625 41.4375 175.773438 41.4375 C 176.160156 41.4375 176.472656 41.75 176.472656 42.136719 Z M 175.773438 254.796875 L 179.964844 240.816406 L 176.472656 243.613281 L 175.074219 243.613281 L 171.582031 240.816406 Z M 175.773438 254.796875 "/>
<path style=" stroke:none;fill-rule:nonzero;fill:rgb(0%,0%,0%);fill-opacity:1;" d="M 209.671875 42.136719 L 209.671875 243.621094 L 208.277344 243.621094 L 208.277344 42.136719 C 208.277344 41.75 208.589844 41.4375 208.972656 41.4375 C 209.359375 41.4375 209.671875 41.75 209.671875 42.136719 Z M 208.972656 254.796875 L 213.164062 240.816406 L 209.671875 243.613281 L 208.277344 243.613281 L 204.78125 240.816406 Z M 208.972656 254.796875 "/>
<path style="fill:none;stroke-width:15;stroke-linecap:round;stroke-linejoin:round;stroke:rgb(0%,0%,0%);stroke-opacity:1;stroke-miterlimit:10;" d="M 1613.483547 2126.1382 C 1613.483547 1995.353739 1416.904462 1889.334936 1174.399605 1889.334936 C 931.852806 1889.334936 735.273721 1995.353739 735.273721 2126.1382 C 735.273721 2256.922661 931.852806 2362.899561 1174.399605 2362.899561 C 1416.904462 2362.899561 1613.483547 2256.922661 1613.483547 2126.1382 Z M 1613.483547 2126.1382 " transform="matrix(0.093136,0,0,-0.0932175,0,293.0176)"/>
<path style=" stroke:none;fill-rule:nonzero;fill:rgb(0%,0%,94.099426%);fill-opacity:1;" d="M 108.328125 94.824219 L 108.328125 51.03125 L 110.425781 51.03125 L 110.425781 94.824219 C 110.425781 95.402344 109.957031 95.875 109.378906 95.875 C 108.796875 95.875 108.328125 95.402344 108.328125 94.824219 Z M 109.378906 40.972656 L 105.1875 53.558594 L 108.328125 51.039062 L 110.425781 51.039062 L 113.566406 53.558594 Z M 109.378906 40.972656 "/>
<path style=" stroke:none;fill-rule:evenodd;fill:rgb(0%,0%,0%);fill-opacity:1;" d="M 154.390625 65.464844 C 154.125 65.464844 153.921875 65.46875 153.769531 65.472656 C 153.617188 65.480469 153.472656 65.496094 153.328125 65.519531 C 153.269531 65.53125 153.21875 65.542969 153.171875 65.550781 C 153.125 65.558594 153.097656 65.570312 153.089844 65.582031 L 150.351562 72.527344 C 150.234375 72.824219 150.011719 72.976562 149.691406 72.976562 L 149.457031 72.976562 C 149.136719 72.976562 148.917969 72.824219 148.796875 72.527344 L 146.011719 65.464844 L 144.757812 65.464844 L 144.757812 64.246094 C 145.21875 64.265625 145.621094 64.277344 145.96875 64.285156 C 146.316406 64.289062 146.671875 64.292969 147.027344 64.292969 L 147.855469 64.292969 C 148.113281 64.292969 148.375 64.289062 148.644531 64.285156 C 148.910156 64.277344 149.238281 64.265625 149.625 64.246094 L 149.625 65.464844 L 148.609375 65.464844 L 150.210938 69.527344 L 151.828125 65.4375 C 151.824219 65.441406 151.820312 65.457031 151.820312 65.480469 C 151.820312 65.53125 151.832031 65.558594 151.859375 65.5625 C 151.796875 65.558594 151.730469 65.550781 151.660156 65.535156 C 151.453125 65.488281 151.164062 65.464844 150.792969 65.464844 L 150.792969 64.246094 C 151.171875 64.265625 151.488281 64.277344 151.75 64.285156 C 152.011719 64.289062 152.277344 64.292969 152.546875 64.292969 L 153.167969 64.292969 C 153.347656 64.292969 153.523438 64.289062 153.695312 64.285156 C 153.863281 64.277344 154.097656 64.265625 154.390625 64.246094 Z M 154.390625 65.464844 "/>
<path style=" stroke:none;fill-rule:evenodd;fill:rgb(0%,0%,0%);fill-opacity:1;" d="M 35.894531 66.644531 L 35.894531 71.152344 L 39.210938 71.152344 L 39.210938 66.644531 Z M 34.816406 71.152344 L 34.816406 66.644531 L 33.988281 66.644531 C 33.273438 66.648438 32.609375 66.730469 32.003906 66.886719 L 31.257812 66.160156 L 34.816406 66.160156 C 34.816406 64.71875 34.792969 63.269531 34.738281 61.8125 L 36.644531 62.78125 L 35.894531 63.34375 L 35.894531 66.160156 L 39.210938 66.160156 C 39.210938 64.660156 39.1875 63.210938 39.125 61.8125 L 41.03125 62.699219 L 40.289062 63.34375 L 40.289062 66.160156 L 41.617188 66.160156 L 42.605469 65.195312 L 44.011719 66.644531 L 40.289062 66.644531 L 40.289062 71.152344 L 42.195312 71.152344 L 43.1875 70.1875 L 44.597656 71.636719 L 40.289062 71.636719 C 40.289062 74.753906 40.316406 76.6875 40.367188 77.433594 L 39.125 77.996094 C 39.1875 76.929688 39.210938 74.804688 39.210938 71.636719 L 35.894531 71.636719 C 35.734375 74.160156 34.324219 76.09375 31.671875 77.433594 L 31.503906 77.191406 C 33.605469 75.691406 34.707031 73.839844 34.816406 71.636719 L 33.492188 71.636719 C 32.777344 71.640625 32.113281 71.722656 31.503906 71.878906 L 30.761719 71.152344 Z M 27.441406 62.621094 L 27.609375 62.457031 C 28.664062 63 29.398438 63.46875 29.8125 63.871094 C 30.222656 64.273438 30.402344 64.667969 30.347656 65.039062 C 30.292969 65.414062 30.152344 65.683594 29.929688 65.84375 C 29.710938 66.003906 29.574219 66.085938 29.515625 66.078125 C 29.296875 66.085938 29.105469 65.761719 28.9375 65.113281 C 28.714844 64.3125 28.21875 63.484375 27.441406 62.621094 Z M 29.765625 76.304688 C 30.375 76.792969 31.109375 77.265625 31.960938 77.71875 C 32.816406 78.175781 34.089844 78.4375 35.773438 78.519531 C 37.457031 78.597656 39.0625 78.613281 40.578125 78.558594 C 42.097656 78.507812 43.550781 78.398438 44.929688 78.238281 L 44.929688 78.558594 C 43.660156 78.882812 43.078125 79.3125 43.1875 79.847656 C 40.648438 79.847656 38.59375 79.824219 37.015625 79.765625 C 35.441406 79.714844 34.214844 79.554688 33.332031 79.285156 C 32.445312 79.015625 31.589844 78.507812 30.761719 77.753906 C 29.929688 77.058594 29.433594 76.703125 29.269531 76.671875 C 29.105469 76.648438 28.800781 76.847656 28.359375 77.277344 C 27.914062 77.710938 27.308594 78.480469 26.53125 79.605469 L 25.457031 78.640625 C 26.398438 77.894531 27.472656 77.089844 28.691406 76.226562 L 28.691406 69.460938 L 27.941406 69.460938 C 27.226562 69.46875 26.5625 69.546875 25.953125 69.703125 L 25.207031 68.980469 L 28.4375 68.980469 L 29.347656 68.09375 L 30.507812 69.21875 L 29.765625 69.785156 Z M 29.765625 76.304688 "/>
<path style=" stroke:none;fill-rule:evenodd;fill:rgb(0%,0%,0%);fill-opacity:1;" d="M 63.40625 67.128906 L 62.742188 67.691406 C 62.691406 73.386719 62.511719 76.808594 62.203125 77.960938 C 61.902344 79.113281 61.089844 79.878906 59.761719 80.25 C 59.707031 79.660156 58.851562 79.015625 57.191406 78.316406 L 57.273438 77.914062 C 58.433594 78.1875 59.34375 78.324219 60.007812 78.316406 C 60.339844 78.324219 60.605469 78.257812 60.796875 78.121094 C 60.988281 77.992188 61.15625 77.292969 61.296875 76.027344 C 61.4375 74.769531 61.558594 71.882812 61.667969 67.367188 L 58.1875 67.367188 C 58.132812 69.410156 57.894531 71.238281 57.484375 72.847656 C 57.074219 74.457031 56.324219 75.882812 55.246094 77.113281 C 54.171875 78.351562 52.746094 79.445312 50.976562 80.410156 L 50.726562 80.167969 C 52.496094 78.992188 53.816406 77.800781 54.667969 76.59375 C 55.523438 75.382812 56.132812 74.03125 56.488281 72.527344 C 56.851562 71.027344 57.054688 69.304688 57.105469 67.367188 L 55.621094 67.367188 L 54.625 67.53125 L 53.960938 66.886719 L 57.105469 66.886719 C 57.105469 64.636719 57.082031 62.921875 57.027344 61.734375 L 58.765625 62.539062 L 58.1875 63.101562 L 58.1875 66.886719 L 61.5 66.886719 L 62.164062 66.160156 Z M 45.261719 64.472656 L 51.226562 64.472656 L 52.21875 63.503906 L 53.714844 64.953125 L 47.667969 64.953125 C 47.058594 64.960938 46.503906 65.039062 46.007812 65.195312 Z M 44.597656 68.578125 L 52.386719 68.578125 L 53.382812 67.609375 L 54.871094 69.058594 L 49.320312 69.058594 L 50.648438 70.027344 C 50.09375 70.246094 49.375 71.023438 48.488281 72.359375 C 47.554688 73.707031 46.703125 74.78125 45.925781 75.582031 L 52.472656 74.855469 C 51.917969 73.789062 51.339844 72.792969 50.726562 71.878906 L 50.976562 71.714844 C 52.914062 73.4375 53.933594 74.609375 54.046875 75.222656 C 54.15625 75.84375 54.089844 76.269531 53.839844 76.511719 C 53.585938 76.753906 53.4375 76.875 53.382812 76.867188 C 53.214844 76.875 53.105469 76.738281 53.050781 76.464844 C 52.941406 76.09375 52.804688 75.691406 52.632812 75.257812 C 48.601562 75.964844 46.285156 76.632812 45.675781 77.269531 L 44.765625 75.660156 C 45.375 75.503906 46.148438 74.609375 47.082031 72.96875 C 48.023438 71.332031 48.601562 70.03125 48.824219 69.058594 L 46.171875 69.058594 L 45.261719 69.21875 Z M 44.597656 68.578125 "/>
<path style=" stroke:none;fill-rule:nonzero;fill:rgb(0%,0%,0%);fill-opacity:1;" d="M 93.347656 115.621094 L 107.027344 120.6875 L 104.460938 117.023438 L 104.546875 115.625 L 107.554688 112.3125 Z M 93.347656 115.621094 "/>
<path style="fill:none;stroke-width:15;stroke-linecap:round;stroke-linejoin:round;stroke:rgb(0%,0%,0%);stroke-opacity:1;stroke-miterlimit:10;" d="M 1669.768832 1062.639695 C 1627.114484 952.514234 1370.768983 949.119956 1097.143647 1055.096855 C 823.560253 1161.073754 636.334088 1336.235256 678.988436 1446.360717 C 721.600843 1556.486178 977.988286 1559.880456 1251.613621 1453.903557 C 1525.197015 1347.926657 1712.42318 1172.765156 1669.768832 1062.639695 Z M 1669.768832 1062.639695 " transform="matrix(0.093136,0,0,-0.0932175,0,293.0176)"/>
<path style=" stroke:none;fill-rule:evenodd;fill:rgb(0%,0%,0%);fill-opacity:1;" d="M 66.457031 142.894531 C 66.5 142.941406 66.523438 142.984375 66.523438 143.035156 C 66.523438 143.089844 66.5 143.148438 66.449219 143.214844 C 65.953125 143.90625 65.320312 144.433594 64.550781 144.796875 C 63.78125 145.15625 63.011719 145.339844 62.238281 145.339844 C 61.679688 145.339844 61.207031 145.199219 60.8125 144.917969 C 60.421875 144.636719 60.113281 144.292969 59.886719 143.882812 C 59.636719 143.390625 59.503906 142.855469 59.492188 142.273438 C 59.476562 142.214844 59.472656 142.148438 59.472656 142.074219 C 59.472656 141.554688 59.539062 141.023438 59.679688 140.480469 C 59.8125 139.980469 60.027344 139.5 60.328125 139.035156 C 60.628906 138.574219 61.011719 138.15625 61.476562 137.792969 C 61.910156 137.4375 62.382812 137.164062 62.898438 136.964844 C 63.414062 136.765625 63.921875 136.667969 64.421875 136.667969 C 64.730469 136.667969 65.019531 136.71875 65.289062 136.828125 C 65.558594 136.933594 65.78125 137.078125 65.957031 137.261719 C 66.132812 137.445312 66.257812 137.664062 66.324219 137.917969 C 66.351562 138.035156 66.363281 138.160156 66.363281 138.292969 C 66.363281 138.441406 66.34375 138.597656 66.304688 138.761719 C 66.1875 139.261719 65.941406 139.652344 65.566406 139.929688 C 65.195312 140.207031 64.765625 140.410156 64.28125 140.535156 C 63.800781 140.664062 63.289062 140.742188 62.746094 140.765625 C 62.207031 140.789062 61.726562 140.800781 61.296875 140.800781 C 61.167969 141.277344 61.074219 141.757812 61.023438 142.238281 C 61 142.402344 60.988281 142.5625 60.988281 142.714844 C 60.988281 143.019531 61.023438 143.308594 61.101562 143.582031 C 61.195312 143.917969 61.34375 144.195312 61.546875 144.410156 C 61.75 144.628906 62.015625 144.734375 62.34375 144.734375 C 63.007812 144.734375 63.65625 144.566406 64.292969 144.222656 C 64.925781 143.882812 65.453125 143.417969 65.875 142.832031 C 65.921875 142.746094 65.996094 142.695312 66.089844 142.675781 L 66.136719 142.675781 C 66.210938 142.675781 66.273438 142.699219 66.316406 142.742188 Z M 65.414062 138.722656 C 65.449219 138.578125 65.46875 138.449219 65.46875 138.332031 C 65.46875 138.085938 65.398438 137.875 65.253906 137.691406 C 65.039062 137.417969 64.726562 137.28125 64.3125 137.277344 C 63.992188 137.28125 63.667969 137.359375 63.347656 137.523438 C 63.023438 137.683594 62.734375 137.90625 62.484375 138.183594 C 62.203125 138.484375 61.980469 138.816406 61.820312 139.179688 C 61.660156 139.539062 61.535156 139.882812 61.4375 140.207031 C 61.847656 140.207031 62.28125 140.1875 62.742188 140.152344 C 63.203125 140.117188 63.617188 140.046875 63.980469 139.941406 C 64.34375 139.839844 64.652344 139.6875 64.902344 139.488281 C 65.15625 139.292969 65.324219 139.035156 65.414062 138.722656 Z M 65.414062 138.722656 "/>
<path style=" stroke:none;fill-rule:evenodd;fill:rgb(0%,0%,0%);fill-opacity:1;" d="M 72.726562 152.835938 C 72.726562 154.6875 71.222656 156.191406 69.371094 156.191406 C 67.519531 156.191406 66.019531 154.6875 66.019531 152.835938 C 66.019531 150.984375 67.519531 149.480469 69.371094 149.480469 C 71.222656 149.480469 72.726562 150.984375 72.726562 152.835938 Z M 72.726562 152.835938 "/>
<path style=" stroke:none;fill-rule:nonzero;fill:rgb(0%,0%,94.099426%);fill-opacity:1;" d="M 110.394531 176.546875 L 92.074219 212.886719 L 90.203125 211.941406 L 108.527344 175.605469 C 108.785156 175.085938 109.417969 174.878906 109.933594 175.140625 C 110.449219 175.402344 110.65625 176.03125 110.394531 176.546875 Z M 86.609375 221.390625 L 96.015625 212.046875 L 92.078125 212.875 L 90.207031 211.933594 L 88.535156 208.269531 Z M 86.609375 221.390625 "/>
<path style=" stroke:none;fill-rule:evenodd;fill:rgb(0%,0%,0%);fill-opacity:1;" d="M 58.019531 226.292969 C 57.097656 226.253906 56.230469 226.230469 55.421875 226.230469 C 54.636719 226.230469 53.800781 226.253906 52.914062 226.292969 L 52.914062 225.078125 L 54.148438 225.078125 L 54.148438 220.382812 C 54.148438 220.085938 54.144531 219.804688 54.128906 219.535156 C 54.117188 219.265625 54.0625 219.011719 53.96875 218.773438 C 53.917969 218.609375 53.832031 218.527344 53.707031 218.527344 C 53.375 218.527344 53.0625 218.597656 52.773438 218.734375 C 52.484375 218.871094 52.234375 219.0625 52.027344 219.308594 C 51.816406 219.558594 51.648438 219.84375 51.527344 220.171875 C 51.40625 220.496094 51.34375 220.84375 51.34375 221.207031 L 51.34375 225.078125 L 52.679688 225.078125 L 52.679688 226.292969 C 51.757812 226.253906 50.886719 226.230469 50.070312 226.230469 C 49.289062 226.230469 48.457031 226.253906 47.578125 226.292969 L 47.578125 225.078125 L 48.8125 225.078125 L 48.8125 220.382812 C 48.8125 220.085938 48.804688 219.804688 48.792969 219.535156 C 48.777344 219.265625 48.722656 219.011719 48.621094 218.773438 C 48.570312 218.609375 48.484375 218.527344 48.359375 218.527344 C 48.027344 218.527344 47.71875 218.597656 47.429688 218.734375 C 47.144531 218.871094 46.898438 219.0625 46.6875 219.308594 C 46.476562 219.558594 46.3125 219.84375 46.1875 220.171875 C 46.066406 220.496094 46.003906 220.84375 46.003906 221.207031 L 46.003906 225.078125 L 47.332031 225.078125 L 47.332031 226.292969 C 46.410156 226.253906 45.542969 226.230469 44.734375 226.230469 C 43.910156 226.230469 43.039062 226.253906 42.117188 226.292969 L 42.117188 225.078125 L 43.460938 225.078125 L 43.460938 219.242188 C 43.460938 219.175781 43.453125 219.113281 43.433594 219.0625 C 43.414062 219.011719 43.382812 218.980469 43.339844 218.964844 C 43.257812 218.9375 43.113281 218.917969 42.898438 218.910156 C 42.683594 218.90625 42.425781 218.902344 42.117188 218.902344 L 42.117188 217.683594 L 45.769531 217.511719 L 45.769531 218.882812 C 45.820312 218.769531 46.109375 218.511719 46.640625 218.117188 C 47.171875 217.71875 47.789062 217.519531 48.5 217.519531 C 48.859375 217.519531 49.234375 217.5625 49.628906 217.644531 C 50.023438 217.726562 50.371094 217.925781 50.664062 218.234375 C 50.835938 218.398438 50.964844 218.578125 51.050781 218.773438 C 51.140625 218.96875 51.175781 219.011719 51.15625 218.902344 C 51.285156 218.660156 51.605469 218.367188 52.105469 218.03125 C 52.609375 217.691406 53.1875 217.519531 53.839844 217.519531 C 54.195312 217.519531 54.574219 217.5625 54.96875 217.644531 C 55.363281 217.726562 55.710938 217.925781 56.003906 218.234375 C 56.3125 218.539062 56.503906 218.886719 56.578125 219.277344 C 56.652344 219.667969 56.691406 220.039062 56.691406 220.382812 L 56.691406 225.078125 L 58.019531 225.078125 Z M 58.019531 226.292969 "/>
<path style=" stroke:none;fill-rule:evenodd;fill:rgb(0%,0%,0%);fill-opacity:1;" d="M 68.773438 227.332031 C 68.722656 227.515625 68.652344 227.703125 68.558594 227.898438 C 68.464844 228.097656 68.351562 228.273438 68.21875 228.433594 C 68.085938 228.59375 67.933594 228.730469 67.753906 228.835938 C 67.578125 228.945312 67.375 228.996094 67.144531 228.996094 C 66.945312 228.996094 66.777344 228.960938 66.632812 228.886719 C 66.492188 228.808594 66.382812 228.710938 66.3125 228.589844 C 66.238281 228.464844 66.199219 228.320312 66.191406 228.15625 L 66.191406 228.117188 C 66.191406 227.96875 66.222656 227.820312 66.292969 227.671875 C 66.421875 227.371094 66.542969 227.070312 66.652344 226.773438 C 66.761719 226.476562 66.863281 226.179688 66.953125 225.878906 C 67.015625 225.679688 67.058594 225.488281 67.082031 225.296875 C 67.089844 225.25 67.09375 225.199219 67.09375 225.144531 C 67.09375 225.027344 67.074219 224.914062 67.035156 224.808594 C 66.964844 224.59375 66.816406 224.484375 66.585938 224.484375 C 66.183594 224.484375 65.839844 224.609375 65.546875 224.855469 C 65.253906 225.105469 65.003906 225.433594 64.785156 225.84375 C 64.664062 226.308594 64.535156 226.769531 64.394531 227.234375 C 64.257812 227.695312 64.125 228.15625 63.988281 228.617188 C 63.953125 228.746094 63.882812 228.839844 63.769531 228.902344 C 63.660156 228.964844 63.550781 228.996094 63.445312 228.996094 C 63.332031 228.996094 63.238281 228.964844 63.160156 228.894531 C 63.113281 228.851562 63.082031 228.789062 63.082031 228.710938 C 63.082031 228.671875 63.082031 228.636719 63.089844 228.597656 L 63.882812 225.878906 C 63.945312 225.679688 63.988281 225.488281 64.011719 225.296875 L 64.011719 225.144531 C 64.011719 225.023438 63.996094 224.910156 63.964844 224.808594 C 63.894531 224.59375 63.746094 224.484375 63.515625 224.484375 C 63.117188 224.484375 62.769531 224.609375 62.476562 224.855469 C 62.1875 225.105469 61.929688 225.433594 61.710938 225.84375 L 60.902344 228.617188 C 60.867188 228.746094 60.792969 228.839844 60.683594 228.902344 C 60.578125 228.964844 60.464844 228.996094 60.355469 228.996094 C 60.238281 228.996094 60.148438 228.964844 60.085938 228.894531 C 60.035156 228.851562 60.007812 228.789062 60.007812 228.710938 C 60.007812 228.679688 60.011719 228.644531 60.023438 228.597656 L 60.929688 225.425781 C 60.992188 225.207031 61.023438 225.015625 61.023438 224.851562 L 61.023438 224.730469 C 61.003906 224.566406 60.910156 224.484375 60.746094 224.484375 C 60.574219 224.484375 60.429688 224.609375 60.3125 224.859375 C 60.195312 225.109375 60.082031 225.433594 59.972656 225.832031 C 59.929688 225.925781 59.859375 225.972656 59.753906 225.976562 L 59.621094 225.976562 C 59.523438 225.976562 59.476562 225.933594 59.476562 225.847656 L 59.476562 225.8125 C 59.523438 225.652344 59.578125 225.476562 59.636719 225.285156 C 59.695312 225.097656 59.777344 224.917969 59.871094 224.75 C 59.972656 224.578125 60.097656 224.4375 60.246094 224.316406 C 60.394531 224.199219 60.582031 224.140625 60.804688 224.140625 C 61.128906 224.140625 61.382812 224.226562 61.566406 224.402344 C 61.753906 224.578125 61.847656 224.746094 61.855469 224.910156 C 62.023438 224.714844 62.253906 224.539062 62.546875 224.378906 C 62.84375 224.21875 63.1875 224.140625 63.574219 224.140625 C 63.816406 224.140625 64.035156 224.179688 64.238281 224.257812 C 64.4375 224.332031 64.59375 224.457031 64.703125 224.628906 C 64.796875 224.773438 64.851562 224.898438 64.855469 224.996094 C 65.03125 224.777344 65.269531 224.582031 65.578125 224.40625 C 65.886719 224.230469 66.246094 224.140625 66.660156 224.140625 C 66.890625 224.140625 67.105469 224.179688 67.304688 224.257812 C 67.507812 224.332031 67.667969 224.457031 67.78125 224.628906 C 67.898438 224.800781 67.953125 225 67.949219 225.21875 L 67.949219 225.242188 C 67.945312 225.460938 67.910156 225.683594 67.84375 225.902344 C 67.753906 226.214844 67.648438 226.519531 67.53125 226.820312 C 67.414062 227.121094 67.289062 227.425781 67.160156 227.730469 C 67.042969 228.007812 66.984375 228.242188 66.984375 228.429688 C 66.984375 228.582031 67.058594 228.660156 67.207031 228.660156 C 67.34375 228.660156 67.460938 228.625 67.570312 228.550781 C 67.679688 228.480469 67.777344 228.382812 67.867188 228.261719 C 67.953125 228.140625 68.03125 228 68.105469 227.832031 C 68.175781 227.667969 68.238281 227.492188 68.292969 227.308594 C 68.316406 227.21875 68.386719 227.175781 68.5 227.175781 L 68.628906 227.175781 C 68.675781 227.175781 68.71875 227.1875 68.765625 227.210938 C 68.78125 227.242188 68.789062 227.265625 68.789062 227.285156 C 68.789062 227.300781 68.785156 227.316406 68.773438 227.332031 Z M 68.773438 227.332031 "/>
<path style=" stroke:none;fill-rule:evenodd;fill:rgb(0%,0%,0%);fill-opacity:1;" d="M 74.488281 226.585938 C 74.398438 226.890625 74.253906 227.191406 74.0625 227.480469 C 73.867188 227.773438 73.617188 228.035156 73.3125 228.273438 C 73.042969 228.488281 72.742188 228.660156 72.417969 228.796875 C 72.089844 228.929688 71.761719 228.996094 71.429688 228.996094 C 71.089844 228.996094 70.792969 228.929688 70.539062 228.796875 C 70.285156 228.660156 70.085938 228.484375 69.941406 228.265625 C 69.777344 228.019531 69.683594 227.75 69.660156 227.460938 C 69.652344 227.390625 69.648438 227.316406 69.648438 227.246094 C 69.648438 227.027344 69.679688 226.800781 69.742188 226.5625 C 69.835938 226.25 69.980469 225.949219 70.175781 225.65625 C 70.371094 225.367188 70.613281 225.101562 70.910156 224.859375 C 71.183594 224.648438 71.484375 224.472656 71.8125 224.339844 C 72.140625 224.207031 72.46875 224.140625 72.800781 224.140625 C 73.136719 224.140625 73.429688 224.207031 73.683594 224.34375 C 73.9375 224.480469 74.140625 224.652344 74.292969 224.867188 C 74.460938 225.113281 74.558594 225.386719 74.589844 225.683594 L 74.589844 225.894531 C 74.589844 226.121094 74.554688 226.351562 74.488281 226.585938 Z M 73.542969 225.046875 C 73.480469 224.878906 73.378906 224.746094 73.238281 224.640625 C 73.101562 224.535156 72.929688 224.484375 72.730469 224.484375 C 72.535156 224.484375 72.332031 224.539062 72.125 224.644531 C 71.917969 224.753906 71.734375 224.894531 71.578125 225.0625 C 71.367188 225.285156 71.203125 225.527344 71.089844 225.785156 C 70.980469 226.042969 70.882812 226.308594 70.804688 226.585938 C 70.726562 226.859375 70.664062 227.121094 70.621094 227.378906 C 70.605469 227.460938 70.597656 227.539062 70.597656 227.609375 C 70.597656 227.777344 70.628906 227.9375 70.691406 228.089844 C 70.75 228.261719 70.851562 228.398438 70.992188 228.503906 C 71.128906 228.609375 71.296875 228.660156 71.496094 228.660156 C 71.699219 228.660156 71.90625 228.605469 72.113281 228.5 C 72.320312 228.390625 72.5 228.25 72.652344 228.074219 C 72.863281 227.855469 73.027344 227.613281 73.140625 227.355469 C 73.253906 227.097656 73.347656 226.835938 73.429688 226.5625 C 73.511719 226.285156 73.570312 226.011719 73.609375 225.75 C 73.625 225.671875 73.632812 225.597656 73.632812 225.523438 C 73.632812 225.355469 73.601562 225.199219 73.542969 225.046875 Z M 73.542969 225.046875 "/>
<path style=" stroke:none;fill-rule:evenodd;fill:rgb(0%,0%,0%);fill-opacity:1;" d="M 76.800781 227.707031 C 76.761719 227.847656 76.730469 227.976562 76.714844 228.101562 C 76.707031 228.164062 76.703125 228.21875 76.703125 228.269531 C 76.703125 228.316406 76.707031 228.363281 76.714844 228.414062 C 76.726562 228.496094 76.757812 228.558594 76.800781 228.597656 C 76.84375 228.640625 76.90625 228.660156 76.992188 228.660156 C 77.078125 228.660156 77.148438 228.628906 77.214844 228.566406 C 77.28125 228.507812 77.34375 228.414062 77.40625 228.292969 C 77.46875 228.171875 77.527344 228.027344 77.582031 227.859375 C 77.632812 227.6875 77.691406 227.507812 77.75 227.316406 C 77.773438 227.222656 77.839844 227.175781 77.949219 227.175781 L 78.085938 227.175781 C 78.179688 227.175781 78.226562 227.210938 78.226562 227.285156 L 78.226562 227.324219 C 78.1875 227.480469 78.136719 227.65625 78.074219 227.847656 C 78.011719 228.039062 77.929688 228.222656 77.839844 228.386719 C 77.742188 228.554688 77.621094 228.699219 77.472656 228.820312 C 77.324219 228.9375 77.136719 228.996094 76.921875 228.996094 C 76.71875 228.996094 76.539062 228.960938 76.390625 228.894531 C 76.242188 228.824219 76.121094 228.726562 76.03125 228.601562 C 75.941406 228.476562 75.886719 228.332031 75.871094 228.171875 C 75.863281 228.132812 75.859375 228.085938 75.859375 228.039062 C 75.859375 227.925781 75.875 227.804688 75.90625 227.6875 L 77.417969 222.441406 C 77.449219 222.328125 77.472656 222.242188 77.484375 222.183594 L 77.484375 222.167969 C 77.484375 222.136719 77.472656 222.117188 77.453125 222.101562 C 77.40625 222.074219 77.320312 222.054688 77.1875 222.046875 C 77.058594 222.035156 76.910156 222.03125 76.738281 222.03125 C 76.679688 222.03125 76.636719 222.011719 76.609375 221.980469 C 76.585938 221.957031 76.574219 221.933594 76.574219 221.902344 C 76.574219 221.882812 76.582031 221.863281 76.59375 221.84375 L 76.609375 221.769531 C 76.621094 221.722656 76.648438 221.6875 76.691406 221.660156 C 76.734375 221.636719 76.78125 221.621094 76.835938 221.609375 L 78.375 221.496094 L 78.410156 221.496094 C 78.503906 221.496094 78.550781 221.535156 78.550781 221.609375 C 78.550781 221.628906 78.546875 221.652344 78.539062 221.675781 Z M 76.800781 227.707031 "/>
<path style=" stroke:none;fill-rule:evenodd;fill:rgb(0%,0%,0%);fill-opacity:1;" d="M 83.964844 227.628906 C 83.996094 227.652344 84.007812 227.679688 84.007812 227.707031 C 84.007812 227.738281 83.992188 227.773438 83.960938 227.808594 C 83.648438 228.195312 83.253906 228.492188 82.773438 228.691406 C 82.289062 228.894531 81.804688 228.996094 81.320312 228.996094 C 80.972656 228.996094 80.671875 228.917969 80.425781 228.761719 C 80.183594 228.605469 79.988281 228.414062 79.847656 228.183594 C 79.6875 227.90625 79.605469 227.605469 79.597656 227.28125 C 79.589844 227.246094 79.585938 227.210938 79.585938 227.167969 C 79.585938 226.878906 79.628906 226.582031 79.714844 226.277344 C 79.800781 225.996094 79.9375 225.726562 80.125 225.46875 C 80.3125 225.207031 80.550781 224.976562 80.84375 224.769531 C 81.113281 224.574219 81.414062 224.417969 81.734375 224.308594 C 82.058594 224.195312 82.378906 224.140625 82.691406 224.140625 C 82.882812 224.140625 83.066406 224.171875 83.234375 224.230469 C 83.402344 224.289062 83.542969 224.371094 83.652344 224.472656 C 83.765625 224.578125 83.84375 224.699219 83.886719 224.84375 C 83.898438 224.90625 83.910156 224.976562 83.910156 225.054688 C 83.910156 225.136719 83.894531 225.222656 83.875 225.3125 C 83.800781 225.59375 83.644531 225.8125 83.410156 225.96875 C 83.175781 226.125 82.90625 226.238281 82.601562 226.308594 C 82.300781 226.378906 81.980469 226.421875 81.640625 226.4375 C 81.304688 226.449219 81 226.457031 80.730469 226.457031 C 80.648438 226.722656 80.589844 226.992188 80.558594 227.261719 C 80.546875 227.355469 80.539062 227.441406 80.539062 227.527344 C 80.539062 227.699219 80.558594 227.859375 80.609375 228.015625 C 80.667969 228.203125 80.761719 228.355469 80.886719 228.476562 C 81.015625 228.597656 81.183594 228.660156 81.386719 228.660156 C 81.804688 228.660156 82.210938 228.566406 82.609375 228.371094 C 83.007812 228.183594 83.335938 227.921875 83.601562 227.59375 C 83.632812 227.546875 83.679688 227.515625 83.738281 227.507812 L 83.765625 227.507812 C 83.8125 227.507812 83.851562 227.519531 83.878906 227.542969 Z M 83.3125 225.292969 C 83.335938 225.210938 83.347656 225.136719 83.347656 225.074219 C 83.347656 224.9375 83.300781 224.816406 83.210938 224.714844 C 83.078125 224.5625 82.878906 224.484375 82.621094 224.484375 C 82.421875 224.484375 82.21875 224.53125 82.015625 224.621094 C 81.8125 224.710938 81.632812 224.835938 81.476562 224.992188 C 81.300781 225.160156 81.160156 225.34375 81.058594 225.546875 C 80.960938 225.75 80.878906 225.941406 80.820312 226.125 C 81.074219 226.125 81.351562 226.113281 81.636719 226.09375 C 81.925781 226.074219 82.1875 226.035156 82.414062 225.976562 C 82.640625 225.917969 82.835938 225.832031 82.992188 225.722656 C 83.152344 225.609375 83.257812 225.46875 83.3125 225.292969 Z M 83.3125 225.292969 "/>
<path style=" stroke:none;fill-rule:nonzero;fill:rgb(0%,0%,0%);fill-opacity:1;" d="M 108.902344 175.605469 L 140.554688 112.828125 L 142.425781 113.773438 L 110.773438 176.546875 C 110.511719 177.066406 109.882812 177.273438 109.363281 177.011719 C 108.847656 176.753906 108.640625 176.121094 108.902344 175.605469 Z M 146.019531 104.324219 L 136.613281 113.667969 L 140.550781 112.839844 L 142.421875 113.785156 L 144.09375 117.449219 Z M 146.019531 104.324219 "/>
<path style=" stroke:none;fill-rule:evenodd;fill:rgb(0%,0%,0%);fill-opacity:1;" d="M 159.417969 128.820312 L 149.597656 128.820312 L 149.597656 127.609375 L 151.40625 127.609375 L 151.40625 116.84375 L 149.597656 116.84375 L 149.597656 115.625 C 150.765625 115.667969 151.882812 115.691406 152.949219 115.691406 C 154.160156 115.691406 155.433594 115.667969 156.765625 115.625 L 156.765625 116.84375 L 154.484375 116.84375 L 154.484375 127.609375 L 155.699219 127.609375 C 156.113281 127.613281 156.5 127.527344 156.859375 127.355469 C 157.214844 127.183594 157.527344 126.945312 157.789062 126.632812 C 158.140625 126.21875 158.378906 125.734375 158.496094 125.183594 C 158.617188 124.632812 158.710938 124.023438 158.789062 123.355469 L 160.039062 123.355469 Z M 159.417969 128.820312 "/>
<path style=" stroke:none;fill-rule:nonzero;fill:rgb(0%,0%,0%);fill-opacity:1;" d="M 134.671875 177.574219 L 134.929688 177.761719 L 135.421875 178.132812 L 135.898438 178.503906 L 136.359375 178.875 L 136.804688 179.242188 L 137.230469 179.609375 L 137.644531 179.976562 L 138.039062 180.339844 L 138.417969 180.703125 L 138.78125 181.0625 L 139.125 181.421875 L 139.457031 181.78125 L 139.769531 182.136719 L 140.0625 182.488281 L 140.339844 182.839844 L 140.601562 183.191406 L 140.847656 183.539062 L 141.070312 183.882812 L 141.28125 184.226562 L 141.472656 184.570312 L 141.644531 184.910156 L 141.800781 185.246094 L 141.9375 185.582031 L 142.054688 185.917969 L 142.152344 186.25 L 142.230469 186.578125 L 142.289062 186.90625 L 142.324219 187.234375 L 142.339844 187.558594 L 142.335938 187.878906 L 142.308594 188.195312 L 142.257812 188.507812 L 142.183594 188.8125 L 142.082031 189.117188 L 141.964844 189.410156 L 141.816406 189.695312 L 141.648438 189.972656 L 141.460938 190.242188 L 141.25 190.496094 L 141.015625 190.742188 L 140.765625 190.980469 L 140.488281 191.203125 L 140.199219 191.417969 L 139.882812 191.621094 L 139.550781 191.8125 L 139.199219 191.992188 L 138.828125 192.164062 L 138.4375 192.328125 L 138.027344 192.476562 L 137.601562 192.621094 L 137.160156 192.75 L 136.703125 192.867188 L 136.234375 192.976562 L 135.75 193.070312 L 135.25 193.160156 L 134.742188 193.234375 L 134.21875 193.300781 L 133.679688 193.359375 L 133.132812 193.40625 L 132.570312 193.441406 L 131.996094 193.46875 L 131.414062 193.488281 L 130.816406 193.496094 L 130.210938 193.496094 L 129.59375 193.484375 L 128.332031 193.4375 L 127.027344 193.355469 L 125.6875 193.238281 L 124.3125 193.085938 L 122.90625 192.898438 L 121.472656 192.683594 L 120.011719 192.429688 L 118.527344 192.148438 L 117.023438 191.832031 L 115.5 191.484375 L 113.960938 191.109375 L 112.410156 190.703125 L 110.847656 190.265625 L 109.28125 189.800781 L 107.707031 189.308594 L 106.132812 188.789062 L 104.558594 188.242188 L 102.988281 187.667969 L 101.425781 187.070312 L 99.867188 186.441406 L 98.324219 185.792969 L 96.796875 185.117188 L 95.28125 184.417969 L 93.789062 183.695312 L 93.050781 183.324219 L 92.332031 182.957031 L 91.628906 182.585938 L 90.9375 182.214844 L 90.261719 181.84375 L 89.601562 181.46875 L 88.953125 181.097656 L 88.320312 180.722656 L 87.707031 180.347656 L 87.105469 179.972656 L 86.519531 179.601562 L 85.949219 179.226562 L 85.394531 178.851562 L 84.855469 178.476562 L 84.332031 178.105469 L 83.824219 177.734375 L 83.332031 177.363281 L 82.855469 176.992188 L 82.394531 176.621094 L 81.949219 176.253906 L 81.523438 175.886719 L 81.109375 175.519531 L 80.714844 175.15625 L 80.335938 174.792969 L 79.972656 174.433594 L 79.628906 174.074219 L 79.296875 173.714844 L 78.988281 173.359375 L 78.691406 173.007812 L 78.414062 172.65625 L 78.152344 172.304688 L 77.910156 171.957031 L 77.683594 171.613281 L 77.472656 171.269531 L 77.28125 170.925781 L 77.109375 170.585938 L 76.957031 170.25 L 76.820312 169.914062 L 76.703125 169.578125 L 76.601562 169.246094 L 76.523438 168.917969 L 76.464844 168.589844 L 76.429688 168.261719 L 76.414062 167.941406 L 76.417969 167.617188 L 76.445312 167.300781 L 76.496094 166.988281 L 76.570312 166.683594 L 76.671875 166.378906 L 76.792969 166.085938 L 76.9375 165.800781 L 77.105469 165.519531 L 77.292969 165.253906 L 77.503906 165 L 77.738281 164.753906 L 77.992188 164.515625 L 78.265625 164.292969 L 78.558594 164.078125 L 78.871094 163.875 L 79.203125 163.683594 L 79.554688 163.503906 L 79.925781 163.332031 L 80.316406 163.167969 L 80.726562 163.015625 L 81.113281 162.890625 L 81.515625 162.769531 L 81.933594 162.660156 L 82.363281 162.558594 L 82.804688 162.464844 L 83.261719 162.378906 L 83.730469 162.304688 L 84.210938 162.238281 L 84.707031 162.179688 L 85.214844 162.128906 L 85.738281 162.085938 L 86.269531 162.054688 L 86.816406 162.027344 L 87.375 162.011719 L 87.941406 162.003906 L 88.527344 162.003906 C 88.910156 162.003906 89.222656 162.320312 89.222656 162.703125 C 89.222656 163.089844 88.910156 163.402344 88.523438 163.402344 L 87.964844 163.402344 L 87.414062 163.410156 L 86.878906 163.425781 L 86.355469 163.449219 L 85.847656 163.480469 L 85.351562 163.519531 L 84.871094 163.566406 L 84.402344 163.621094 L 83.953125 163.683594 L 83.511719 163.753906 L 83.089844 163.832031 L 82.679688 163.917969 L 82.289062 164.011719 L 81.914062 164.109375 L 81.550781 164.21875 L 81.207031 164.328125 L 80.847656 164.460938 L 80.507812 164.601562 L 80.195312 164.746094 L 79.898438 164.898438 L 79.625 165.050781 L 79.375 165.210938 L 79.144531 165.375 L 78.9375 165.546875 L 78.75 165.71875 L 78.578125 165.894531 L 78.425781 166.070312 L 78.292969 166.253906 L 78.179688 166.4375 L 78.078125 166.628906 L 77.996094 166.820312 L 77.929688 167.019531 L 77.875 167.222656 L 77.835938 167.433594 L 77.816406 167.648438 L 77.808594 167.875 L 77.816406 168.109375 L 77.84375 168.347656 L 77.882812 168.597656 L 77.945312 168.855469 L 78.019531 169.117188 L 78.113281 169.390625 L 78.226562 169.667969 L 78.355469 169.953125 L 78.503906 170.246094 L 78.667969 170.542969 L 78.851562 170.847656 L 79.054688 171.15625 L 79.273438 171.46875 L 79.507812 171.789062 L 79.761719 172.109375 L 80.035156 172.4375 L 80.328125 172.769531 L 80.632812 173.101562 L 80.960938 173.441406 L 81.300781 173.78125 L 81.660156 174.128906 L 82.039062 174.476562 L 82.429688 174.824219 L 82.839844 175.175781 L 83.269531 175.53125 L 83.710938 175.886719 L 84.171875 176.246094 L 84.648438 176.605469 L 85.140625 176.964844 L 85.648438 177.328125 L 86.175781 177.691406 L 86.714844 178.054688 L 87.269531 178.421875 L 87.84375 178.789062 L 88.429688 179.152344 L 89.035156 179.519531 L 89.652344 179.886719 L 90.285156 180.253906 L 90.933594 180.617188 L 91.597656 180.984375 L 92.277344 181.347656 L 92.96875 181.710938 L 93.675781 182.074219 L 94.398438 182.4375 L 95.867188 183.148438 L 97.359375 183.835938 L 98.867188 184.503906 L 100.390625 185.144531 L 101.925781 185.761719 L 103.46875 186.355469 L 105.015625 186.921875 L 106.570312 187.460938 L 108.125 187.976562 L 109.679688 188.460938 L 111.226562 188.917969 L 112.765625 189.347656 L 114.292969 189.75 L 115.808594 190.121094 L 117.308594 190.460938 L 118.789062 190.773438 L 120.25 191.050781 L 121.683594 191.300781 L 123.089844 191.515625 L 124.464844 191.695312 L 125.808594 191.84375 L 127.117188 191.960938 L 128.386719 192.039062 L 129.617188 192.085938 L 130.214844 192.097656 L 130.796875 192.097656 L 131.371094 192.089844 L 131.933594 192.074219 L 132.480469 192.046875 L 133.015625 192.011719 L 133.535156 191.96875 L 134.042969 191.914062 L 134.535156 191.851562 L 135.011719 191.78125 L 135.476562 191.699219 L 135.921875 191.613281 L 136.355469 191.511719 L 136.769531 191.40625 L 137.164062 191.292969 L 137.546875 191.167969 L 137.90625 191.035156 L 138.246094 190.894531 L 138.558594 190.75 L 138.855469 190.597656 L 139.128906 190.441406 L 139.378906 190.285156 L 139.609375 190.117188 L 139.816406 189.949219 L 140.003906 189.777344 L 140.175781 189.601562 L 140.328125 189.425781 L 140.460938 189.242188 L 140.574219 189.058594 L 140.675781 188.871094 L 140.757812 188.675781 L 140.828125 188.476562 L 140.878906 188.273438 L 140.917969 188.0625 L 140.9375 187.847656 L 140.945312 187.621094 L 140.9375 187.386719 L 140.910156 187.148438 L 140.871094 186.898438 L 140.808594 186.640625 L 140.734375 186.378906 L 140.640625 186.105469 L 140.527344 185.828125 L 140.398438 185.542969 L 140.253906 185.25 L 140.085938 184.953125 L 139.902344 184.648438 L 139.703125 184.339844 L 139.484375 184.027344 L 139.246094 183.707031 L 138.988281 183.386719 L 138.71875 183.058594 L 138.429688 182.726562 L 138.121094 182.394531 L 137.792969 182.054688 L 137.453125 181.714844 L 137.09375 181.367188 L 136.714844 181.019531 L 136.324219 180.671875 L 135.914062 180.320312 L 135.488281 179.964844 L 135.042969 179.609375 L 134.582031 179.25 L 134.109375 178.890625 L 133.847656 178.703125 Z M 124.660156 172.429688 L 134.53125 183.179688 L 133.914062 178.746094 L 134.625 177.542969 L 138.8125 175.964844 Z M 124.660156 172.429688 "/>
</g>
</svg>
