<?xml version="1.0" encoding="UTF-8"?>
<svg xmlns="http://www.w3.org/2000/svg" xmlns:xlink="http://www.w3.org/1999/xlink" width="280.98pt" height="372pt" viewBox="0 0 280.98 372" version="1.1">
<g id="surface1">
<path style=" stroke:none;fill-rule:evenodd;fill:rgb(0%,0%,0%);fill-opacity:1;" d="M 142.890625 345.71875 C 142.890625 346.378906 142.761719 347.003906 142.503906 347.597656 C 142.246094 348.191406 141.867188 348.710938 141.367188 349.15625 C 140.796875 349.621094 140.15625 349.945312 139.453125 350.140625 C 138.746094 350.328125 138.03125 350.425781 137.308594 350.425781 L 127.097656 350.425781 L 127.097656 348.875 L 129.417969 348.875 L 129.417969 335.0625 L 127.097656 335.0625 L 127.097656 333.511719 L 136.621094 333.511719 C 137.34375 333.515625 138.058594 333.601562 138.757812 333.777344 C 139.457031 333.957031 140.089844 334.257812 140.652344 334.6875 C 141.160156 335.078125 141.546875 335.554688 141.808594 336.113281 C 142.070312 336.675781 142.203125 337.261719 142.203125 337.878906 C 142.203125 338.476562 142.066406 339.03125 141.796875 339.550781 C 141.527344 340.074219 141.144531 340.511719 140.652344 340.871094 C 139.996094 341.320312 139.675781 341.539062 139.699219 341.53125 C 139.378906 341.492188 139.464844 341.558594 139.960938 341.734375 C 140.457031 341.910156 140.921875 342.167969 141.355469 342.503906 C 141.863281 342.894531 142.246094 343.371094 142.503906 343.9375 C 142.761719 344.5 142.890625 345.09375 142.890625 345.71875 Z M 138.25 337.878906 C 138.25 337.503906 138.226562 337.136719 138.171875 336.78125 C 138.121094 336.429688 137.992188 336.097656 137.792969 335.789062 C 137.664062 335.589844 137.492188 335.417969 137.277344 335.277344 C 137.0625 335.132812 136.84375 335.0625 136.621094 335.0625 L 133.09375 335.0625 L 133.09375 340.988281 L 135.941406 340.988281 C 136.273438 340.992188 136.578125 340.917969 136.863281 340.773438 C 137.144531 340.628906 137.394531 340.421875 137.609375 340.15625 C 137.851562 339.84375 138.019531 339.492188 138.113281 339.101562 C 138.203125 338.710938 138.25 338.304688 138.25 337.878906 Z M 138.792969 345.71875 C 138.792969 345.265625 138.765625 344.824219 138.703125 344.394531 C 138.644531 343.964844 138.5 343.558594 138.273438 343.183594 C 138.128906 342.917969 137.945312 342.703125 137.71875 342.535156 C 137.492188 342.367188 137.238281 342.28125 136.957031 342.28125 L 133.09375 342.28125 L 133.09375 348.875 L 136.621094 348.875 C 136.941406 348.878906 137.238281 348.800781 137.515625 348.648438 C 137.789062 348.496094 138.011719 348.296875 138.191406 348.054688 C 138.421875 347.710938 138.582031 347.339844 138.667969 346.941406 C 138.75 346.542969 138.792969 346.132812 138.792969 345.71875 Z M 138.792969 345.71875 "/>
<path style=" stroke:none;fill-rule:evenodd;fill:rgb(0%,0%,0%);fill-opacity:1;" d="M 152.027344 349.167969 C 152.027344 349.796875 151.976562 350.425781 151.878906 351.050781 C 151.78125 351.675781 151.539062 352.261719 151.148438 352.808594 C 150.871094 353.207031 150.5 353.511719 150.035156 353.726562 C 149.570312 353.941406 149.0625 354.050781 148.519531 354.050781 C 147.992188 354.050781 147.496094 353.941406 147.03125 353.726562 C 146.5625 353.511719 146.191406 353.207031 145.914062 352.808594 C 145.523438 352.261719 145.28125 351.675781 145.179688 351.050781 C 145.082031 350.425781 145.035156 349.796875 145.035156 349.167969 C 145.035156 348.527344 145.082031 347.886719 145.179688 347.25 C 145.28125 346.613281 145.523438 346.015625 145.914062 345.460938 C 146.191406 345.058594 146.5625 344.742188 147.027344 344.519531 C 147.492188 344.296875 147.988281 344.183594 148.519531 344.183594 C 149.058594 344.183594 149.5625 344.296875 150.03125 344.519531 C 150.5 344.742188 150.871094 345.058594 151.148438 345.460938 C 151.539062 346.015625 151.78125 346.613281 151.878906 347.25 C 151.976562 347.886719 152.027344 348.527344 152.027344 349.167969 Z M 150.527344 348.9375 C 150.527344 348.660156 150.523438 348.371094 150.519531 348.0625 C 150.515625 347.757812 150.5 347.457031 150.480469 347.164062 C 150.460938 346.867188 150.425781 346.589844 150.371094 346.332031 C 150.320312 346.070312 150.253906 345.847656 150.179688 345.664062 C 150.027344 345.367188 149.804688 345.121094 149.511719 344.929688 C 149.21875 344.742188 148.886719 344.644531 148.519531 344.644531 C 148.160156 344.644531 147.835938 344.742188 147.546875 344.933594 C 147.253906 345.128906 147.035156 345.371094 146.882812 345.664062 C 146.808594 345.847656 146.742188 346.070312 146.6875 346.332031 C 146.636719 346.589844 146.601562 346.867188 146.578125 347.164062 C 146.558594 347.457031 146.546875 347.757812 146.542969 348.0625 C 146.535156 348.371094 146.53125 348.660156 146.53125 348.9375 C 146.53125 349.242188 146.535156 349.566406 146.542969 349.90625 C 146.546875 350.246094 146.558594 350.574219 146.578125 350.890625 C 146.601562 351.210938 146.636719 351.511719 146.6875 351.796875 C 146.742188 352.082031 146.808594 352.320312 146.882812 352.511719 C 147.023438 352.832031 147.242188 353.09375 147.535156 353.300781 C 147.832031 353.507812 148.160156 353.609375 148.519531 353.609375 C 148.890625 353.609375 149.230469 353.507812 149.523438 353.300781 C 149.820312 353.09375 150.035156 352.832031 150.179688 352.511719 C 150.253906 352.320312 150.320312 352.082031 150.371094 351.796875 C 150.425781 351.511719 150.460938 351.210938 150.480469 350.890625 C 150.5 350.574219 150.515625 350.246094 150.519531 349.90625 C 150.523438 349.566406 150.527344 349.242188 150.527344 348.9375 Z M 150.527344 348.9375 "/>
<path style=" stroke:none;fill-rule:evenodd;fill:rgb(0%,0%,0%);fill-opacity:1;" d="M 162.839844 215.195312 C 162.863281 215.253906 162.875 215.304688 162.875 215.347656 C 162.875 215.414062 162.859375 215.460938 162.828125 215.492188 C 162.78125 215.585938 162.6875 215.632812 162.550781 215.632812 L 144.671875 215.632812 C 144.542969 215.632812 144.449219 215.585938 144.394531 215.492188 C 144.359375 215.460938 144.34375 215.414062 144.34375 215.347656 C 144.34375 215.304688 144.355469 215.253906 144.378906 215.195312 L 152.945312 198.496094 C 153.050781 198.269531 153.238281 198.160156 153.503906 198.167969 L 153.71875 198.167969 C 153.96875 198.167969 154.15625 198.273438 154.273438 198.484375 Z M 152.886719 200.796875 L 146.265625 213.695312 L 159.496094 213.695312 Z M 152.886719 200.796875 "/>
<path style=" stroke:none;fill-rule:evenodd;fill:rgb(0%,0%,0%);fill-opacity:1;" d="M 185.164062 215.761719 C 183.980469 215.707031 182.867188 215.679688 181.828125 215.679688 C 180.820312 215.679688 179.75 215.707031 178.617188 215.761719 L 178.617188 214.199219 L 180.199219 214.199219 L 180.199219 208.179688 C 180.199219 207.796875 180.191406 207.433594 180.175781 207.089844 C 180.15625 206.742188 180.089844 206.417969 179.96875 206.113281 C 179.902344 205.902344 179.792969 205.796875 179.628906 205.796875 C 179.203125 205.796875 178.804688 205.886719 178.433594 206.0625 C 178.0625 206.238281 177.742188 206.484375 177.472656 206.800781 C 177.207031 207.117188 176.992188 207.484375 176.835938 207.902344 C 176.675781 208.324219 176.597656 208.765625 176.597656 209.234375 L 176.597656 214.199219 L 178.316406 214.199219 L 178.316406 215.761719 C 177.132812 215.707031 176.015625 215.679688 174.964844 215.679688 C 173.960938 215.679688 172.894531 215.707031 171.765625 215.761719 L 171.765625 214.199219 L 173.347656 214.199219 L 173.347656 208.179688 C 173.347656 207.796875 173.339844 207.433594 173.324219 207.089844 C 173.308594 206.742188 173.234375 206.417969 173.105469 206.113281 C 173.042969 205.902344 172.929688 205.796875 172.769531 205.796875 C 172.339844 205.796875 171.945312 205.886719 171.578125 206.0625 C 171.214844 206.238281 170.894531 206.484375 170.625 206.800781 C 170.355469 207.117188 170.140625 207.484375 169.980469 207.902344 C 169.828125 208.324219 169.746094 208.765625 169.746094 209.234375 L 169.746094 214.199219 L 171.453125 214.199219 L 171.453125 215.761719 C 170.265625 215.707031 169.15625 215.679688 168.117188 215.679688 C 167.0625 215.679688 165.941406 215.707031 164.757812 215.761719 L 164.757812 214.199219 L 166.484375 214.199219 L 166.484375 206.710938 C 166.484375 206.625 166.472656 206.550781 166.449219 206.484375 C 166.425781 206.417969 166.386719 206.375 166.328125 206.359375 C 166.226562 206.320312 166.035156 206.296875 165.761719 206.289062 C 165.484375 206.28125 165.152344 206.277344 164.757812 206.277344 L 164.757812 204.714844 L 169.445312 204.492188 L 169.445312 206.253906 C 169.511719 206.105469 169.882812 205.777344 170.5625 205.269531 C 171.246094 204.761719 172.039062 204.507812 172.949219 204.503906 C 173.40625 204.507812 173.894531 204.558594 174.398438 204.664062 C 174.90625 204.769531 175.351562 205.023438 175.726562 205.421875 C 175.945312 205.632812 176.109375 205.863281 176.222656 206.113281 C 176.335938 206.363281 176.382812 206.417969 176.355469 206.277344 C 176.527344 205.964844 176.933594 205.589844 177.574219 205.15625 C 178.222656 204.722656 178.960938 204.507812 179.800781 204.503906 C 180.257812 204.507812 180.742188 204.558594 181.25 204.664062 C 181.757812 204.769531 182.199219 205.023438 182.578125 205.421875 C 182.972656 205.8125 183.21875 206.257812 183.316406 206.757812 C 183.414062 207.261719 183.460938 207.734375 183.460938 208.179688 L 183.460938 214.199219 L 185.164062 214.199219 Z M 185.164062 215.761719 "/>
<path style=" stroke:none;fill-rule:evenodd;fill:rgb(0%,0%,0%);fill-opacity:1;" d="M 198.957031 217.09375 C 198.898438 217.324219 198.804688 217.566406 198.683594 217.820312 C 198.5625 218.070312 198.417969 218.300781 198.25 218.503906 C 198.078125 218.710938 197.878906 218.882812 197.652344 219.019531 C 197.425781 219.160156 197.164062 219.226562 196.863281 219.226562 C 196.613281 219.226562 196.398438 219.179688 196.210938 219.082031 C 196.03125 218.988281 195.894531 218.859375 195.800781 218.703125 C 195.707031 218.546875 195.65625 218.359375 195.644531 218.148438 L 195.644531 218.097656 C 195.644531 217.910156 195.6875 217.71875 195.773438 217.527344 C 195.941406 217.140625 196.09375 216.757812 196.238281 216.375 C 196.378906 215.996094 196.507812 215.613281 196.625 215.226562 C 196.703125 214.972656 196.761719 214.722656 196.789062 214.484375 C 196.800781 214.421875 196.804688 214.355469 196.804688 214.285156 C 196.804688 214.132812 196.777344 213.988281 196.730469 213.851562 C 196.636719 213.578125 196.445312 213.4375 196.152344 213.4375 C 195.640625 213.4375 195.195312 213.597656 194.820312 213.914062 C 194.445312 214.234375 194.117188 214.652344 193.839844 215.179688 C 193.6875 215.777344 193.519531 216.371094 193.34375 216.964844 C 193.164062 217.558594 192.992188 218.152344 192.820312 218.742188 C 192.773438 218.90625 192.679688 219.027344 192.539062 219.105469 C 192.398438 219.1875 192.257812 219.226562 192.121094 219.226562 C 191.976562 219.226562 191.855469 219.183594 191.757812 219.097656 C 191.691406 219.039062 191.65625 218.960938 191.652344 218.859375 C 191.652344 218.8125 191.65625 218.765625 191.667969 218.714844 L 192.683594 215.226562 C 192.761719 214.972656 192.820312 214.722656 192.847656 214.484375 L 192.847656 214.285156 C 192.847656 214.128906 192.828125 213.984375 192.789062 213.851562 C 192.699219 213.578125 192.503906 213.4375 192.214844 213.4375 C 191.699219 213.4375 191.253906 213.597656 190.878906 213.914062 C 190.503906 214.234375 190.175781 214.652344 189.894531 215.179688 L 188.855469 218.742188 C 188.808594 218.90625 188.71875 219.027344 188.582031 219.105469 C 188.441406 219.1875 188.300781 219.226562 188.160156 219.226562 C 188.007812 219.226562 187.890625 219.183594 187.8125 219.097656 C 187.742188 219.039062 187.710938 218.960938 187.710938 218.859375 C 187.710938 218.820312 187.71875 218.773438 187.726562 218.714844 L 188.894531 214.648438 C 188.976562 214.363281 189.015625 214.117188 189.015625 213.910156 L 189.015625 213.753906 C 188.988281 213.542969 188.871094 213.4375 188.660156 213.4375 C 188.4375 213.4375 188.25 213.597656 188.101562 213.917969 C 187.953125 214.238281 187.808594 214.652344 187.667969 215.167969 C 187.609375 215.285156 187.515625 215.347656 187.386719 215.351562 L 187.210938 215.351562 C 187.089844 215.351562 187.027344 215.296875 187.027344 215.1875 L 187.027344 215.140625 C 187.089844 214.933594 187.160156 214.710938 187.234375 214.464844 C 187.3125 214.222656 187.410156 213.992188 187.539062 213.777344 C 187.664062 213.558594 187.824219 213.375 188.015625 213.222656 C 188.207031 213.074219 188.445312 212.996094 188.734375 212.996094 C 189.148438 212.996094 189.472656 213.109375 189.714844 213.332031 C 189.949219 213.554688 190.074219 213.773438 190.082031 213.984375 C 190.296875 213.734375 190.589844 213.507812 190.972656 213.304688 C 191.347656 213.101562 191.789062 212.996094 192.289062 212.996094 C 192.597656 212.996094 192.878906 213.046875 193.136719 213.144531 C 193.394531 213.246094 193.59375 213.402344 193.734375 213.621094 C 193.859375 213.8125 193.921875 213.96875 193.933594 214.09375 C 194.15625 213.816406 194.460938 213.5625 194.855469 213.335938 C 195.25 213.109375 195.714844 212.996094 196.242188 212.996094 C 196.542969 212.996094 196.820312 213.046875 197.078125 213.144531 C 197.335938 213.246094 197.535156 213.402344 197.683594 213.621094 C 197.835938 213.84375 197.910156 214.097656 197.902344 214.378906 L 197.902344 214.410156 C 197.894531 214.691406 197.847656 214.972656 197.765625 215.257812 C 197.652344 215.65625 197.515625 216.050781 197.363281 216.433594 C 197.214844 216.820312 197.054688 217.210938 196.890625 217.605469 C 196.734375 217.960938 196.660156 218.257812 196.660156 218.5 C 196.660156 218.695312 196.757812 218.792969 196.949219 218.792969 C 197.121094 218.792969 197.277344 218.75 197.414062 218.65625 C 197.554688 218.566406 197.679688 218.441406 197.792969 218.285156 C 197.90625 218.128906 198.011719 217.945312 198.101562 217.734375 C 198.191406 217.519531 198.273438 217.296875 198.34375 217.058594 C 198.375 216.945312 198.460938 216.890625 198.609375 216.886719 L 198.773438 216.886719 C 198.828125 216.890625 198.890625 216.902344 198.949219 216.933594 C 198.96875 216.972656 198.976562 217.007812 198.976562 217.03125 C 198.976562 217.050781 198.972656 217.070312 198.957031 217.09375 Z M 198.957031 217.09375 "/>
<path style=" stroke:none;fill-rule:evenodd;fill:rgb(0%,0%,0%);fill-opacity:1;" d="M 206.292969 216.132812 C 206.175781 216.527344 205.992188 216.910156 205.742188 217.28125 C 205.492188 217.65625 205.171875 217.996094 204.785156 218.300781 C 204.4375 218.574219 204.050781 218.796875 203.632812 218.96875 C 203.214844 219.140625 202.792969 219.226562 202.367188 219.226562 C 201.925781 219.226562 201.546875 219.140625 201.226562 218.96875 C 200.898438 218.796875 200.644531 218.570312 200.460938 218.289062 C 200.246094 217.972656 200.125 217.628906 200.09375 217.257812 C 200.085938 217.164062 200.078125 217.074219 200.078125 216.980469 C 200.078125 216.699219 200.121094 216.410156 200.203125 216.105469 C 200.320312 215.703125 200.507812 215.316406 200.757812 214.945312 C 201.007812 214.570312 201.324219 214.230469 201.699219 213.917969 C 202.050781 213.644531 202.433594 213.425781 202.855469 213.253906 C 203.277344 213.082031 203.699219 212.996094 204.125 212.996094 C 204.554688 212.996094 204.933594 213.085938 205.257812 213.257812 C 205.585938 213.429688 205.84375 213.65625 206.042969 213.929688 C 206.253906 214.246094 206.378906 214.59375 206.421875 214.976562 L 206.421875 215.246094 C 206.421875 215.539062 206.378906 215.835938 206.292969 216.132812 Z M 205.082031 214.160156 C 205 213.945312 204.871094 213.773438 204.691406 213.640625 C 204.511719 213.503906 204.292969 213.4375 204.035156 213.4375 C 203.78125 213.4375 203.523438 213.507812 203.257812 213.644531 C 202.992188 213.785156 202.757812 213.960938 202.558594 214.179688 C 202.285156 214.464844 202.074219 214.773438 201.933594 215.105469 C 201.789062 215.433594 201.667969 215.777344 201.5625 216.132812 C 201.464844 216.484375 201.386719 216.824219 201.328125 217.152344 C 201.308594 217.257812 201.300781 217.355469 201.300781 217.445312 C 201.300781 217.664062 201.339844 217.867188 201.421875 218.066406 C 201.496094 218.285156 201.625 218.460938 201.804688 218.59375 C 201.984375 218.726562 202.199219 218.792969 202.449219 218.792969 C 202.714844 218.792969 202.980469 218.726562 203.242188 218.585938 C 203.507812 218.449219 203.738281 218.269531 203.933594 218.046875 C 204.207031 217.761719 204.417969 217.453125 204.5625 217.121094 C 204.703125 216.792969 204.828125 216.453125 204.9375 216.105469 C 205.039062 215.746094 205.113281 215.398438 205.164062 215.0625 C 205.183594 214.960938 205.191406 214.863281 205.191406 214.773438 C 205.191406 214.558594 205.15625 214.355469 205.082031 214.160156 Z M 205.082031 214.160156 "/>
<path style=" stroke:none;fill-rule:evenodd;fill:rgb(0%,0%,0%);fill-opacity:1;" d="M 209.253906 217.570312 C 209.207031 217.75 209.167969 217.921875 209.152344 218.078125 C 209.140625 218.15625 209.132812 218.230469 209.132812 218.292969 C 209.132812 218.351562 209.140625 218.414062 209.152344 218.480469 C 209.164062 218.585938 209.199219 218.664062 209.253906 218.714844 C 209.3125 218.769531 209.394531 218.792969 209.507812 218.792969 C 209.613281 218.792969 209.707031 218.753906 209.792969 218.675781 C 209.871094 218.597656 209.957031 218.480469 210.039062 218.324219 C 210.117188 218.167969 210.191406 217.984375 210.257812 217.765625 C 210.328125 217.550781 210.402344 217.316406 210.476562 217.074219 C 210.507812 216.949219 210.59375 216.890625 210.734375 216.886719 L 210.90625 216.886719 C 211.03125 216.890625 211.089844 216.9375 211.089844 217.03125 L 211.089844 217.078125 C 211.039062 217.28125 210.972656 217.503906 210.894531 217.753906 C 210.8125 218 210.710938 218.230469 210.589844 218.445312 C 210.46875 218.660156 210.3125 218.84375 210.117188 219 C 209.925781 219.152344 209.691406 219.226562 209.414062 219.226562 C 209.152344 219.226562 208.925781 219.183594 208.730469 219.09375 C 208.542969 219.003906 208.386719 218.878906 208.269531 218.71875 C 208.15625 218.558594 208.085938 218.375 208.066406 218.171875 C 208.054688 218.117188 208.050781 218.0625 208.050781 218 C 208.050781 217.851562 208.074219 217.699219 208.113281 217.546875 L 210.050781 210.816406 C 210.09375 210.671875 210.121094 210.5625 210.136719 210.488281 L 210.136719 210.46875 C 210.136719 210.429688 210.125 210.398438 210.097656 210.382812 C 210.039062 210.347656 209.921875 210.324219 209.753906 210.308594 C 209.589844 210.296875 209.398438 210.289062 209.179688 210.289062 C 209.105469 210.289062 209.050781 210.269531 209.015625 210.222656 C 208.984375 210.199219 208.96875 210.164062 208.96875 210.125 C 208.96875 210.097656 208.976562 210.074219 208.992188 210.054688 L 209.015625 209.953125 C 209.027344 209.894531 209.066406 209.847656 209.121094 209.816406 C 209.175781 209.785156 209.238281 209.765625 209.300781 209.75 L 211.277344 209.605469 L 211.324219 209.605469 C 211.445312 209.605469 211.507812 209.65625 211.507812 209.75 C 211.507812 209.777344 211.5 209.804688 211.492188 209.835938 Z M 209.253906 217.570312 "/>
<path style=" stroke:none;fill-rule:evenodd;fill:rgb(0%,0%,0%);fill-opacity:1;" d="M 218.457031 217.472656 C 218.492188 217.503906 218.507812 217.539062 218.507812 217.570312 C 218.507812 217.613281 218.488281 217.65625 218.449219 217.703125 C 218.050781 218.199219 217.539062 218.578125 216.921875 218.835938 C 216.300781 219.097656 215.683594 219.226562 215.0625 219.226562 C 214.613281 219.226562 214.230469 219.128906 213.914062 218.925781 C 213.597656 218.726562 213.351562 218.476562 213.167969 218.183594 C 212.964844 217.828125 212.859375 217.441406 212.847656 217.027344 C 212.839844 216.984375 212.835938 216.933594 212.835938 216.882812 C 212.835938 216.507812 212.890625 216.128906 213 215.738281 C 213.105469 215.378906 213.28125 215.035156 213.523438 214.699219 C 213.765625 214.367188 214.074219 214.070312 214.449219 213.804688 C 214.796875 213.550781 215.175781 213.355469 215.59375 213.210938 C 216.003906 213.070312 216.414062 212.996094 216.820312 212.996094 C 217.066406 212.996094 217.300781 213.035156 217.515625 213.113281 C 217.734375 213.191406 217.914062 213.292969 218.054688 213.425781 C 218.195312 213.554688 218.292969 213.714844 218.347656 213.898438 C 218.371094 213.980469 218.378906 214.070312 218.378906 214.167969 C 218.378906 214.273438 218.363281 214.382812 218.332031 214.503906 C 218.238281 214.863281 218.039062 215.140625 217.738281 215.339844 C 217.441406 215.539062 217.09375 215.6875 216.707031 215.777344 C 216.316406 215.871094 215.90625 215.925781 215.46875 215.941406 C 215.035156 215.960938 214.648438 215.96875 214.304688 215.96875 C 214.199219 216.308594 214.125 216.652344 214.085938 217 C 214.0625 217.117188 214.054688 217.234375 214.054688 217.339844 C 214.054688 217.5625 214.085938 217.769531 214.144531 217.964844 C 214.21875 218.207031 214.339844 218.40625 214.503906 218.5625 C 214.667969 218.71875 214.882812 218.792969 215.144531 218.792969 C 215.679688 218.792969 216.203125 218.671875 216.714844 218.425781 C 217.222656 218.179688 217.648438 217.847656 217.984375 217.425781 C 218.027344 217.367188 218.082031 217.328125 218.160156 217.316406 L 218.199219 217.316406 C 218.257812 217.316406 218.308594 217.332031 218.339844 217.363281 Z M 217.613281 214.476562 C 217.644531 214.371094 217.660156 214.277344 217.660156 214.195312 C 217.660156 214.019531 217.601562 213.867188 217.484375 213.734375 C 217.3125 213.535156 217.0625 213.4375 216.726562 213.4375 C 216.46875 213.4375 216.210938 213.496094 215.949219 213.613281 C 215.691406 213.730469 215.460938 213.886719 215.257812 214.089844 C 215.03125 214.304688 214.855469 214.542969 214.726562 214.800781 C 214.59375 215.0625 214.492188 215.308594 214.417969 215.542969 C 214.746094 215.542969 215.09375 215.527344 215.464844 215.5 C 215.839844 215.476562 216.171875 215.425781 216.460938 215.351562 C 216.757812 215.277344 217.003906 215.167969 217.207031 215.027344 C 217.40625 214.882812 217.542969 214.699219 217.613281 214.476562 Z M 217.613281 214.476562 "/>
<path style=" stroke:none;fill-rule:nonzero;fill:rgb(0%,0%,0%);fill-opacity:1;" d="M 13.445312 51.160156 L 13.445312 309.632812 L 11.652344 309.632812 L 11.652344 51.160156 C 11.652344 50.664062 12.054688 50.261719 12.546875 50.261719 C 13.042969 50.261719 13.445312 50.664062 13.445312 51.160156 Z M 12.546875 323.96875 L 17.925781 306.03125 L 13.445312 309.617188 L 11.652344 309.617188 L 7.171875 306.03125 Z M 12.546875 323.96875 "/>
<path style=" stroke:none;fill-rule:nonzero;fill:rgb(0%,0%,0%);fill-opacity:1;" d="M 56.046875 51.160156 L 56.046875 309.632812 L 54.253906 309.632812 L 54.253906 51.160156 C 54.253906 50.664062 54.65625 50.261719 55.148438 50.261719 C 55.644531 50.261719 56.046875 50.664062 56.046875 51.160156 Z M 55.148438 323.96875 L 60.527344 306.03125 L 56.046875 309.617188 L 54.253906 309.617188 L 49.773438 306.03125 Z M 55.148438 323.96875 "/>
<path style=" stroke:none;fill-rule:nonzero;fill:rgb(0%,0%,0%);fill-opacity:1;" d="M 98.648438 51.160156 L 98.648438 309.632812 L 96.855469 309.632812 L 96.855469 51.160156 C 96.855469 50.664062 97.257812 50.261719 97.75 50.261719 C 98.246094 50.261719 98.648438 50.664062 98.648438 51.160156 Z M 97.75 323.96875 L 103.128906 306.03125 L 98.648438 309.617188 L 96.855469 309.617188 L 92.371094 306.03125 Z M 97.75 323.96875 "/>
<path style=" stroke:none;fill-rule:nonzero;fill:rgb(0%,0%,0%);fill-opacity:1;" d="M 141.25 51.160156 L 141.25 309.632812 L 139.457031 309.632812 L 139.457031 51.160156 C 139.457031 50.664062 139.855469 50.261719 140.351562 50.261719 C 140.847656 50.261719 141.25 50.664062 141.25 51.160156 Z M 140.351562 323.96875 L 145.730469 306.03125 L 141.25 309.617188 L 139.457031 309.617188 L 134.972656 306.03125 Z M 140.351562 323.96875 "/>
<path style=" stroke:none;fill-rule:nonzero;fill:rgb(0%,0%,0%);fill-opacity:1;" d="M 183.847656 51.160156 L 183.847656 309.632812 L 182.054688 309.632812 L 182.054688 51.160156 C 182.054688 50.664062 182.457031 50.261719 182.953125 50.261719 C 183.445312 50.261719 183.847656 50.664062 183.847656 51.160156 Z M 182.953125 323.96875 L 188.328125 306.03125 L 183.847656 309.617188 L 182.054688 309.617188 L 177.574219 306.03125 Z M 182.953125 323.96875 "/>
<path style=" stroke:none;fill-rule:nonzero;fill:rgb(0%,0%,0%);fill-opacity:1;" d="M 226.449219 51.160156 L 226.449219 309.632812 L 224.65625 309.632812 L 224.65625 51.160156 C 224.65625 50.664062 225.058594 50.261719 225.554688 50.261719 C 226.046875 50.261719 226.449219 50.664062 226.449219 51.160156 Z M 225.554688 323.96875 L 230.929688 306.03125 L 226.449219 309.617188 L 224.65625 309.617188 L 220.175781 306.03125 Z M 225.554688 323.96875 "/>
<path style=" stroke:none;fill-rule:nonzero;fill:rgb(0%,0%,0%);fill-opacity:1;" d="M 269.050781 51.160156 L 269.050781 309.632812 L 267.257812 309.632812 L 267.257812 51.160156 C 267.257812 50.664062 267.65625 50.261719 268.152344 50.261719 C 268.648438 50.261719 269.050781 50.664062 269.050781 51.160156 Z M 268.152344 323.96875 L 273.53125 306.03125 L 269.050781 309.617188 L 267.257812 309.617188 L 262.773438 306.03125 Z M 268.152344 323.96875 "/>
<path style="fill:none;stroke-width:15;stroke-linecap:round;stroke-linejoin:round;stroke:rgb(0%,0%,0%);stroke-opacity:1;stroke-miterlimit:10;" d="M 1613.468085 1035.224982 C 1613.468085 904.464258 1416.899795 798.46412 1174.376232 798.46412 C 931.885353 798.46412 735.284378 904.464258 735.284378 1035.224982 C 735.284378 1165.985706 931.885353 1272.018509 1174.376232 1272.018509 C 1416.899795 1272.018509 1613.468085 1165.985706 1613.468085 1035.224982 Z M 1613.468085 1035.224982 " transform="matrix(0.119512,0,0,-0.119583,0,372.99811)"/>
<path style=" stroke:none;fill-rule:nonzero;fill:rgb(0%,0%,94.099426%);fill-opacity:1;" d="M 139.007812 249.203125 L 139.007812 201.285156 L 141.695312 201.285156 L 141.695312 249.203125 C 141.695312 249.945312 141.09375 250.546875 140.351562 250.546875 C 139.609375 250.546875 139.007812 249.945312 139.007812 249.203125 Z M 140.351562 188.382812 L 134.972656 204.527344 L 139.007812 201.300781 L 141.695312 201.300781 L 145.730469 204.527344 Z M 140.351562 188.382812 "/>
<path style=" stroke:none;fill-rule:evenodd;fill:rgb(0%,0%,0%);fill-opacity:1;" d="M 46.058594 268.496094 L 46.058594 274.277344 L 50.316406 274.277344 L 50.316406 268.496094 Z M 44.679688 274.277344 L 44.679688 268.496094 L 43.613281 268.496094 C 42.699219 268.5 41.847656 268.605469 41.066406 268.804688 L 40.109375 267.875 L 44.679688 267.875 C 44.679688 266.023438 44.644531 264.164062 44.574219 262.300781 L 47.019531 263.539062 L 46.058594 264.261719 L 46.058594 267.875 L 50.316406 267.875 C 50.316406 265.953125 50.285156 264.09375 50.207031 262.300781 L 52.652344 263.433594 L 51.699219 264.261719 L 51.699219 267.875 L 53.402344 267.875 L 54.671875 266.636719 L 56.476562 268.496094 L 51.699219 268.496094 L 51.699219 274.277344 L 54.140625 274.277344 L 55.417969 273.039062 L 57.226562 274.898438 L 51.699219 274.898438 C 51.699219 278.902344 51.734375 281.378906 51.800781 282.335938 L 50.207031 283.058594 C 50.285156 281.691406 50.316406 278.964844 50.316406 274.898438 L 46.058594 274.898438 C 45.851562 278.140625 44.046875 280.617188 40.640625 282.335938 L 40.425781 282.023438 C 43.125 280.101562 44.535156 277.726562 44.679688 274.898438 L 42.976562 274.898438 C 42.058594 274.90625 41.207031 275.007812 40.425781 275.207031 L 39.472656 274.277344 Z M 35.214844 263.332031 L 35.425781 263.125 C 36.78125 263.824219 37.722656 264.421875 38.253906 264.941406 C 38.78125 265.457031 39.015625 265.957031 38.945312 266.4375 C 38.871094 266.921875 38.691406 267.261719 38.40625 267.46875 C 38.125 267.675781 37.949219 267.777344 37.871094 267.773438 C 37.59375 267.777344 37.351562 267.363281 37.128906 266.53125 C 36.847656 265.507812 36.207031 264.441406 35.214844 263.332031 Z M 38.195312 280.890625 C 38.976562 281.515625 39.917969 282.121094 41.015625 282.703125 C 42.109375 283.289062 43.742188 283.625 45.902344 283.730469 C 48.066406 283.832031 50.125 283.851562 52.070312 283.78125 C 54.019531 283.714844 55.886719 283.574219 57.652344 283.367188 L 57.652344 283.78125 C 56.027344 284.195312 55.277344 284.75 55.417969 285.433594 C 52.160156 285.433594 49.523438 285.402344 47.496094 285.332031 C 45.476562 285.265625 43.90625 285.058594 42.769531 284.710938 C 41.632812 284.367188 40.535156 283.714844 39.472656 282.75 C 38.40625 281.855469 37.769531 281.398438 37.554688 281.359375 C 37.351562 281.328125 36.957031 281.585938 36.390625 282.136719 C 35.820312 282.691406 35.039062 283.675781 34.046875 285.125 L 32.667969 283.882812 C 33.871094 282.929688 35.253906 281.894531 36.8125 280.785156 L 36.8125 272.109375 L 35.851562 272.109375 C 34.9375 272.117188 34.085938 272.21875 33.304688 272.421875 L 32.34375 271.492188 L 36.492188 271.492188 L 37.660156 270.355469 L 39.148438 271.800781 L 38.195312 272.523438 Z M 38.195312 280.890625 "/>
<path style=" stroke:none;fill-rule:evenodd;fill:rgb(0%,0%,0%);fill-opacity:1;" d="M 81.363281 269.117188 L 80.511719 269.835938 C 80.445312 277.144531 80.214844 281.535156 79.820312 283.011719 C 79.433594 284.492188 78.390625 285.472656 76.683594 285.949219 C 76.617188 285.195312 75.519531 284.367188 73.390625 283.472656 L 73.492188 282.953125 C 74.984375 283.304688 76.148438 283.476562 77.003906 283.472656 C 77.429688 283.476562 77.769531 283.394531 78.015625 283.21875 C 78.261719 283.050781 78.472656 282.15625 78.65625 280.535156 C 78.832031 278.921875 78.988281 275.214844 79.128906 269.425781 L 74.667969 269.425781 C 74.597656 272.046875 74.292969 274.390625 73.765625 276.453125 C 73.234375 278.519531 72.273438 280.347656 70.894531 281.929688 C 69.511719 283.515625 67.6875 284.917969 65.414062 286.15625 L 65.09375 285.847656 C 67.363281 284.335938 69.054688 282.804688 70.148438 281.257812 C 71.246094 279.707031 72.027344 277.972656 72.484375 276.042969 C 72.953125 274.117188 73.214844 271.910156 73.277344 269.425781 L 71.371094 269.425781 L 70.09375 269.632812 L 69.242188 268.804688 L 73.277344 268.804688 C 73.277344 265.921875 73.246094 263.71875 73.175781 262.195312 L 75.410156 263.226562 L 74.667969 263.953125 L 74.667969 268.804688 L 78.917969 268.804688 L 79.769531 267.875 Z M 58.082031 265.707031 L 65.734375 265.707031 L 67.007812 264.46875 L 68.925781 266.328125 L 61.164062 266.328125 C 60.382812 266.335938 59.671875 266.4375 59.035156 266.636719 Z M 57.226562 270.972656 L 67.222656 270.972656 L 68.5 269.734375 L 70.40625 271.59375 L 63.289062 271.59375 L 64.988281 272.832031 C 64.28125 273.117188 63.355469 274.113281 62.222656 275.828125 C 61.023438 277.558594 59.925781 278.933594 58.933594 279.960938 L 67.332031 279.03125 C 66.621094 277.660156 65.882812 276.382812 65.09375 275.207031 L 65.414062 275.003906 C 67.898438 277.210938 69.207031 278.714844 69.351562 279.5 C 69.492188 280.296875 69.410156 280.84375 69.085938 281.152344 C 68.761719 281.464844 68.570312 281.617188 68.5 281.613281 C 68.285156 281.617188 68.144531 281.445312 68.074219 281.097656 C 67.933594 280.617188 67.757812 280.101562 67.539062 279.546875 C 62.363281 280.449219 59.390625 281.308594 58.609375 282.128906 L 57.441406 280.0625 C 58.222656 279.863281 59.21875 278.714844 60.417969 276.609375 C 61.621094 274.511719 62.363281 272.839844 62.648438 271.59375 L 59.25 271.59375 L 58.082031 271.800781 Z M 57.226562 270.972656 "/>
<path style=" stroke:none;fill-rule:evenodd;fill:rgb(0%,0%,0%);fill-opacity:1;" d="M 207.433594 183.421875 C 207.492188 183.476562 207.519531 183.535156 207.519531 183.597656 C 207.519531 183.667969 207.488281 183.746094 207.421875 183.832031 C 206.785156 184.714844 205.976562 185.390625 204.988281 185.855469 C 204.003906 186.324219 203.015625 186.554688 202.023438 186.554688 C 201.304688 186.554688 200.695312 186.375 200.191406 186.015625 C 199.6875 185.65625 199.292969 185.214844 199.003906 184.6875 C 198.679688 184.054688 198.511719 183.367188 198.496094 182.625 C 198.480469 182.546875 198.472656 182.460938 198.472656 182.363281 C 198.472656 181.699219 198.558594 181.019531 198.738281 180.324219 C 198.90625 179.683594 199.183594 179.0625 199.570312 178.46875 C 199.957031 177.875 200.449219 177.34375 201.042969 176.871094 C 201.601562 176.417969 202.207031 176.066406 202.867188 175.8125 C 203.527344 175.558594 204.179688 175.429688 204.824219 175.429688 C 205.21875 175.429688 205.589844 175.5 205.9375 175.636719 C 206.285156 175.773438 206.570312 175.957031 206.796875 176.191406 C 207.019531 176.425781 207.175781 176.707031 207.265625 177.035156 C 207.296875 177.1875 207.3125 177.347656 207.3125 177.519531 C 207.3125 177.707031 207.289062 177.90625 207.242188 178.117188 C 207.089844 178.757812 206.773438 179.257812 206.292969 179.613281 C 205.8125 179.96875 205.265625 180.230469 204.644531 180.394531 C 204.023438 180.558594 203.367188 180.65625 202.675781 180.6875 C 201.984375 180.71875 201.363281 180.734375 200.816406 180.734375 C 200.644531 181.34375 200.527344 181.957031 200.464844 182.578125 C 200.433594 182.789062 200.414062 182.992188 200.414062 183.1875 C 200.414062 183.578125 200.464844 183.949219 200.5625 184.300781 C 200.683594 184.734375 200.875 185.085938 201.136719 185.363281 C 201.398438 185.640625 201.738281 185.78125 202.15625 185.78125 C 203.007812 185.78125 203.84375 185.5625 204.65625 185.125 C 205.46875 184.6875 206.144531 184.089844 206.6875 183.339844 C 206.75 183.230469 206.84375 183.164062 206.964844 183.140625 L 207.023438 183.140625 C 207.121094 183.140625 207.199219 183.167969 207.253906 183.222656 Z M 206.09375 178.070312 C 206.144531 177.882812 206.167969 177.714844 206.167969 177.566406 C 206.167969 177.253906 206.074219 176.980469 205.890625 176.742188 C 205.613281 176.390625 205.210938 176.214844 204.679688 176.214844 C 204.269531 176.214844 203.859375 176.320312 203.441406 176.527344 C 203.027344 176.734375 202.660156 177.019531 202.335938 177.378906 C 201.976562 177.761719 201.691406 178.1875 201.484375 178.652344 C 201.28125 179.117188 201.117188 179.558594 200.996094 179.972656 C 201.519531 179.972656 202.078125 179.949219 202.667969 179.902344 C 203.261719 179.855469 203.789062 179.765625 204.257812 179.632812 C 204.726562 179.5 205.121094 179.304688 205.441406 179.050781 C 205.765625 178.796875 205.980469 178.46875 206.09375 178.070312 Z M 206.09375 178.070312 "/>
<path style="fill:none;stroke-width:15;stroke-linecap:round;stroke-linejoin:round;stroke:rgb(0%,0%,0%);stroke-opacity:1;stroke-miterlimit:10;" d="M 648.995671 2055.439555 C 691.617063 2165.555569 947.999116 2168.920134 1221.606225 2062.952662 C 1495.246019 1956.985191 1682.433681 1781.799139 1639.812289 1671.683126 C 1597.158212 1561.534447 1340.776159 1558.202547 1067.16905 1664.170019 C 793.561941 1770.137491 606.341594 1945.323542 648.995671 2055.439555 Z M 648.995671 2055.439555 " transform="matrix(0.119512,0,0,-0.119583,0,372.99811)"/>
<path style=" stroke:none;fill-rule:evenodd;fill:rgb(0%,0%,0%);fill-opacity:1;" d="M 192.402344 179.960938 C 192.402344 182.339844 190.476562 184.265625 188.101562 184.265625 C 185.722656 184.265625 183.796875 182.339844 183.796875 179.960938 C 183.796875 177.585938 185.722656 175.65625 188.101562 175.65625 C 190.476562 175.65625 192.402344 177.585938 192.402344 179.960938 Z M 192.402344 179.960938 "/>
<path style=" stroke:none;fill-rule:nonzero;fill:rgb(0%,0%,94.099426%);fill-opacity:1;" d="M 135.460938 149.542969 L 158.972656 102.929688 L 161.371094 104.140625 L 137.859375 150.753906 C 137.527344 151.417969 136.71875 151.683594 136.054688 151.347656 C 135.390625 151.015625 135.125 150.207031 135.460938 149.542969 Z M 165.980469 92.015625 L 153.910156 104.003906 L 158.964844 102.941406 L 161.367188 104.152344 L 163.511719 108.851562 Z M 165.980469 92.015625 "/>
<path style=" stroke:none;fill-rule:evenodd;fill:rgb(0%,0%,0%);fill-opacity:1;" d="M 188.097656 98.304688 C 186.914062 98.25 185.800781 98.222656 184.761719 98.222656 C 183.757812 98.222656 182.683594 98.25 181.550781 98.304688 L 181.550781 96.742188 L 183.132812 96.742188 L 183.132812 90.722656 C 183.132812 90.339844 183.125 89.976562 183.109375 89.632812 C 183.089844 89.289062 183.023438 88.960938 182.902344 88.65625 C 182.839844 88.445312 182.726562 88.339844 182.5625 88.339844 C 182.136719 88.339844 181.738281 88.429688 181.367188 88.605469 C 180.996094 88.78125 180.675781 89.027344 180.40625 89.34375 C 180.136719 89.660156 179.925781 90.027344 179.769531 90.445312 C 179.609375 90.867188 179.53125 91.308594 179.53125 91.777344 L 179.53125 96.742188 L 181.246094 96.742188 L 181.246094 98.304688 C 180.0625 98.25 178.949219 98.222656 177.902344 98.222656 C 176.894531 98.222656 175.828125 98.25 174.699219 98.304688 L 174.699219 96.742188 L 176.28125 96.742188 L 176.28125 90.722656 C 176.28125 90.339844 176.273438 89.976562 176.257812 89.632812 C 176.242188 89.289062 176.167969 88.960938 176.039062 88.65625 C 175.976562 88.445312 175.863281 88.339844 175.703125 88.339844 C 175.277344 88.339844 174.878906 88.429688 174.511719 88.605469 C 174.144531 88.78125 173.828125 89.027344 173.558594 89.34375 C 173.289062 89.660156 173.074219 90.027344 172.917969 90.445312 C 172.761719 90.867188 172.683594 91.308594 172.683594 91.777344 L 172.683594 96.742188 L 174.382812 96.742188 L 174.382812 98.304688 C 173.203125 98.25 172.089844 98.222656 171.050781 98.222656 C 169.996094 98.222656 168.875 98.25 167.691406 98.304688 L 167.691406 96.742188 L 169.417969 96.742188 L 169.417969 89.253906 C 169.417969 89.171875 169.40625 89.09375 169.382812 89.027344 C 169.359375 88.960938 169.320312 88.917969 169.261719 88.902344 C 169.160156 88.863281 168.96875 88.839844 168.695312 88.832031 C 168.421875 88.824219 168.085938 88.820312 167.691406 88.820312 L 167.691406 87.261719 L 172.378906 87.035156 L 172.378906 88.796875 C 172.445312 88.648438 172.816406 88.320312 173.496094 87.8125 C 174.179688 87.304688 174.972656 87.050781 175.882812 87.046875 C 176.34375 87.050781 176.824219 87.101562 177.332031 87.207031 C 177.839844 87.3125 178.285156 87.566406 178.660156 87.964844 C 178.878906 88.175781 179.042969 88.40625 179.15625 88.65625 C 179.269531 88.90625 179.316406 88.960938 179.289062 88.820312 C 179.460938 88.507812 179.867188 88.136719 180.511719 87.699219 C 181.15625 87.265625 181.894531 87.050781 182.734375 87.046875 C 183.191406 87.050781 183.675781 87.101562 184.183594 87.207031 C 184.691406 87.3125 185.132812 87.566406 185.511719 87.964844 C 185.90625 88.355469 186.152344 88.800781 186.25 89.304688 C 186.347656 89.804688 186.394531 90.277344 186.394531 90.722656 L 186.394531 96.742188 L 188.097656 96.742188 Z M 188.097656 98.304688 "/>
<path style=" stroke:none;fill-rule:evenodd;fill:rgb(0%,0%,0%);fill-opacity:1;" d="M 201.898438 99.636719 C 201.835938 99.867188 201.742188 100.109375 201.625 100.363281 C 201.503906 100.613281 201.355469 100.84375 201.1875 101.050781 C 201.015625 101.253906 200.820312 101.425781 200.59375 101.5625 C 200.363281 101.703125 200.101562 101.773438 199.804688 101.773438 C 199.550781 101.773438 199.335938 101.722656 199.152344 101.628906 C 198.972656 101.53125 198.832031 101.402344 198.738281 101.246094 C 198.644531 101.089844 198.59375 100.90625 198.585938 100.695312 L 198.585938 100.640625 C 198.585938 100.453125 198.628906 100.261719 198.714844 100.070312 C 198.878906 99.683594 199.035156 99.300781 199.175781 98.917969 C 199.316406 98.539062 199.445312 98.15625 199.5625 97.769531 C 199.644531 97.515625 199.699219 97.269531 199.730469 97.027344 C 199.738281 96.964844 199.742188 96.898438 199.742188 96.828125 C 199.742188 96.675781 199.71875 96.53125 199.667969 96.394531 C 199.578125 96.121094 199.382812 95.980469 199.09375 95.980469 C 198.578125 95.980469 198.132812 96.140625 197.757812 96.457031 C 197.382812 96.777344 197.058594 97.199219 196.78125 97.722656 C 196.625 98.320312 196.460938 98.914062 196.28125 99.507812 C 196.105469 100.101562 195.929688 100.695312 195.757812 101.285156 C 195.714844 101.449219 195.621094 101.570312 195.480469 101.648438 C 195.335938 101.730469 195.195312 101.773438 195.0625 101.773438 C 194.914062 101.773438 194.792969 101.726562 194.699219 101.640625 C 194.632812 101.582031 194.597656 101.503906 194.59375 101.402344 C 194.59375 101.355469 194.597656 101.308594 194.605469 101.257812 L 195.621094 97.769531 C 195.703125 97.515625 195.757812 97.269531 195.789062 97.027344 L 195.789062 96.828125 C 195.789062 96.671875 195.769531 96.527344 195.726562 96.394531 C 195.636719 96.121094 195.445312 95.980469 195.152344 95.980469 C 194.636719 95.980469 194.191406 96.140625 193.816406 96.457031 C 193.445312 96.777344 193.117188 97.199219 192.832031 97.722656 L 191.796875 101.285156 C 191.75 101.449219 191.65625 101.570312 191.519531 101.648438 C 191.378906 101.730469 191.238281 101.773438 191.097656 101.773438 C 190.945312 101.773438 190.832031 101.726562 190.75 101.640625 C 190.683594 101.582031 190.652344 101.503906 190.652344 101.402344 C 190.652344 101.363281 190.65625 101.316406 190.667969 101.257812 L 191.835938 97.191406 C 191.914062 96.90625 191.953125 96.660156 191.953125 96.453125 L 191.953125 96.296875 C 191.929688 96.085938 191.808594 95.980469 191.597656 95.980469 C 191.375 95.980469 191.191406 96.140625 191.039062 96.460938 C 190.890625 96.78125 190.746094 97.199219 190.605469 97.710938 C 190.550781 97.828125 190.457031 97.890625 190.324219 97.894531 L 190.152344 97.894531 C 190.03125 97.894531 189.96875 97.839844 189.96875 97.730469 L 189.96875 97.683594 C 190.03125 97.476562 190.097656 97.253906 190.175781 97.011719 C 190.25 96.765625 190.351562 96.539062 190.476562 96.320312 C 190.601562 96.101562 190.761719 95.917969 190.953125 95.769531 C 191.144531 95.617188 191.386719 95.542969 191.675781 95.542969 C 192.089844 95.542969 192.414062 95.652344 192.652344 95.875 C 192.886719 96.101562 193.011719 96.316406 193.023438 96.527344 C 193.234375 96.277344 193.53125 96.050781 193.910156 95.847656 C 194.289062 95.644531 194.730469 95.542969 195.226562 95.542969 C 195.535156 95.542969 195.820312 95.589844 196.078125 95.6875 C 196.335938 95.789062 196.535156 95.945312 196.675781 96.164062 C 196.796875 96.355469 196.863281 96.511719 196.871094 96.636719 C 197.09375 96.359375 197.402344 96.105469 197.796875 95.878906 C 198.191406 95.65625 198.652344 95.542969 199.183594 95.542969 C 199.480469 95.542969 199.761719 95.589844 200.015625 95.6875 C 200.273438 95.789062 200.476562 95.945312 200.621094 96.164062 C 200.773438 96.390625 200.847656 96.640625 200.84375 96.921875 L 200.84375 96.953125 C 200.832031 97.234375 200.789062 97.515625 200.707031 97.800781 C 200.589844 98.199219 200.457031 98.59375 200.304688 98.980469 C 200.15625 99.363281 199.996094 99.753906 199.828125 100.148438 C 199.675781 100.503906 199.601562 100.800781 199.601562 101.042969 C 199.601562 101.238281 199.695312 101.339844 199.890625 101.335938 C 200.0625 101.339844 200.214844 101.292969 200.351562 101.199219 C 200.492188 101.109375 200.617188 100.984375 200.734375 100.828125 C 200.847656 100.671875 200.949219 100.488281 201.039062 100.277344 C 201.132812 100.0625 201.210938 99.839844 201.28125 99.601562 C 201.3125 99.488281 201.402344 99.433594 201.546875 99.433594 L 201.710938 99.433594 C 201.769531 99.433594 201.828125 99.449219 201.886719 99.476562 C 201.910156 99.519531 201.917969 99.550781 201.917969 99.578125 C 201.917969 99.59375 201.910156 99.613281 201.898438 99.636719 Z M 201.898438 99.636719 "/>
<path style=" stroke:none;fill-rule:evenodd;fill:rgb(0%,0%,0%);fill-opacity:1;" d="M 209.234375 98.675781 C 209.117188 99.070312 208.933594 99.453125 208.683594 99.828125 C 208.433594 100.199219 208.113281 100.539062 207.722656 100.84375 C 207.378906 101.117188 206.992188 101.339844 206.570312 101.511719 C 206.152344 101.683594 205.734375 101.773438 205.308594 101.773438 C 204.867188 101.773438 204.488281 101.683594 204.164062 101.511719 C 203.839844 101.339844 203.585938 101.113281 203.398438 100.832031 C 203.1875 100.515625 203.066406 100.171875 203.035156 99.800781 C 203.023438 99.707031 203.019531 99.617188 203.019531 99.523438 C 203.019531 99.242188 203.0625 98.953125 203.140625 98.648438 C 203.261719 98.246094 203.449219 97.859375 203.695312 97.488281 C 203.949219 97.113281 204.261719 96.773438 204.640625 96.460938 C 204.988281 96.191406 205.375 95.96875 205.796875 95.796875 C 206.21875 95.628906 206.640625 95.542969 207.066406 95.542969 C 207.496094 95.542969 207.871094 95.628906 208.199219 95.800781 C 208.523438 95.972656 208.785156 96.199219 208.984375 96.472656 C 209.195312 96.789062 209.320312 97.136719 209.363281 97.519531 L 209.363281 97.789062 C 209.363281 98.082031 209.320312 98.378906 209.234375 98.675781 Z M 208.019531 96.703125 C 207.9375 96.488281 207.808594 96.316406 207.632812 96.183594 C 207.453125 96.050781 207.230469 95.980469 206.976562 95.980469 C 206.722656 95.980469 206.464844 96.050781 206.199219 96.1875 C 205.933594 96.328125 205.699219 96.503906 205.496094 96.722656 C 205.222656 97.007812 205.015625 97.316406 204.871094 97.648438 C 204.730469 97.980469 204.605469 98.320312 204.503906 98.675781 C 204.402344 99.027344 204.324219 99.367188 204.269531 99.695312 C 204.25 99.800781 204.238281 99.898438 204.238281 99.992188 C 204.238281 100.207031 204.28125 100.410156 204.359375 100.609375 C 204.4375 100.828125 204.5625 101.003906 204.742188 101.136719 C 204.921875 101.273438 205.136719 101.339844 205.390625 101.335938 C 205.65625 101.339844 205.917969 101.269531 206.183594 101.132812 C 206.449219 100.992188 206.679688 100.8125 206.875 100.589844 C 207.148438 100.304688 207.359375 99.996094 207.503906 99.664062 C 207.644531 99.335938 207.773438 98.996094 207.878906 98.648438 C 207.976562 98.289062 208.054688 97.941406 208.105469 97.605469 C 208.125 97.503906 208.136719 97.40625 208.136719 97.316406 C 208.136719 97.101562 208.097656 96.898438 208.019531 96.703125 Z M 208.019531 96.703125 "/>
<path style=" stroke:none;fill-rule:evenodd;fill:rgb(0%,0%,0%);fill-opacity:1;" d="M 212.195312 100.117188 C 212.144531 100.296875 212.109375 100.464844 212.089844 100.621094 C 212.078125 100.699219 212.074219 100.773438 212.074219 100.839844 C 212.074219 100.894531 212.078125 100.957031 212.089844 101.023438 C 212.105469 101.128906 212.140625 101.207031 212.195312 101.257812 C 212.25 101.3125 212.335938 101.339844 212.449219 101.335938 C 212.550781 101.339844 212.648438 101.296875 212.730469 101.21875 C 212.8125 101.140625 212.898438 101.023438 212.976562 100.867188 C 213.058594 100.714844 213.132812 100.527344 213.199219 100.308594 C 213.269531 100.09375 213.339844 99.863281 213.414062 99.617188 C 213.445312 99.492188 213.53125 99.433594 213.671875 99.433594 L 213.847656 99.433594 C 213.96875 99.433594 214.03125 99.480469 214.03125 99.578125 L 214.03125 99.621094 C 213.980469 99.824219 213.914062 100.050781 213.832031 100.296875 C 213.753906 100.542969 213.652344 100.777344 213.53125 100.988281 C 213.410156 101.203125 213.253906 101.386719 213.058594 101.542969 C 212.867188 101.695312 212.632812 101.773438 212.355469 101.773438 C 212.09375 101.773438 211.867188 101.726562 211.671875 101.636719 C 211.480469 101.546875 211.328125 101.421875 211.210938 101.261719 C 211.09375 101.101562 211.027344 100.917969 211.007812 100.714844 C 210.996094 100.660156 210.992188 100.605469 210.992188 100.542969 C 210.992188 100.394531 211.011719 100.242188 211.050781 100.089844 L 212.992188 93.359375 C 213.03125 93.214844 213.058594 93.105469 213.074219 93.03125 L 213.074219 93.011719 C 213.074219 92.972656 213.0625 92.941406 213.039062 92.925781 C 212.976562 92.890625 212.863281 92.867188 212.695312 92.851562 C 212.53125 92.839844 212.335938 92.832031 212.121094 92.832031 C 212.046875 92.832031 211.988281 92.8125 211.953125 92.765625 C 211.925781 92.742188 211.910156 92.707031 211.910156 92.667969 C 211.910156 92.644531 211.917969 92.617188 211.929688 92.597656 L 211.953125 92.496094 C 211.96875 92.4375 212.003906 92.390625 212.058594 92.359375 C 212.113281 92.332031 212.175781 92.308594 212.242188 92.292969 L 214.21875 92.148438 L 214.265625 92.148438 C 214.386719 92.148438 214.449219 92.199219 214.449219 92.292969 C 214.449219 92.320312 214.441406 92.347656 214.429688 92.378906 Z M 212.195312 100.117188 "/>
<path style=" stroke:none;fill-rule:evenodd;fill:rgb(0%,0%,0%);fill-opacity:1;" d="M 221.394531 100.015625 C 221.433594 100.046875 221.449219 100.082031 221.449219 100.117188 C 221.449219 100.15625 221.429688 100.199219 221.390625 100.246094 C 220.988281 100.742188 220.480469 101.121094 219.863281 101.382812 C 219.242188 101.640625 218.625 101.773438 218.003906 101.773438 C 217.554688 101.773438 217.167969 101.671875 216.851562 101.46875 C 216.535156 101.269531 216.289062 101.019531 216.105469 100.726562 C 215.90625 100.371094 215.796875 99.988281 215.789062 99.570312 C 215.78125 99.527344 215.773438 99.476562 215.773438 99.425781 C 215.773438 99.054688 215.828125 98.671875 215.941406 98.28125 C 216.046875 97.921875 216.222656 97.578125 216.464844 97.242188 C 216.707031 96.910156 217.015625 96.613281 217.386719 96.347656 C 217.738281 96.09375 218.117188 95.898438 218.53125 95.753906 C 218.945312 95.613281 219.355469 95.542969 219.757812 95.542969 C 220.007812 95.542969 220.238281 95.582031 220.457031 95.65625 C 220.675781 95.734375 220.855469 95.835938 220.996094 95.96875 C 221.136719 96.101562 221.234375 96.257812 221.289062 96.441406 C 221.308594 96.523438 221.320312 96.613281 221.320312 96.710938 C 221.320312 96.816406 221.304688 96.929688 221.273438 97.046875 C 221.179688 97.40625 220.980469 97.683594 220.679688 97.882812 C 220.378906 98.085938 220.035156 98.230469 219.648438 98.320312 C 219.257812 98.414062 218.847656 98.46875 218.410156 98.484375 C 217.976562 98.503906 217.589844 98.511719 217.246094 98.511719 C 217.136719 98.855469 217.066406 99.199219 217.023438 99.542969 C 217.003906 99.664062 216.992188 99.777344 216.992188 99.886719 C 216.992188 100.105469 217.023438 100.3125 217.085938 100.507812 C 217.160156 100.75 217.28125 100.949219 217.445312 101.105469 C 217.609375 101.261719 217.824219 101.339844 218.082031 101.335938 C 218.621094 101.339844 219.140625 101.214844 219.652344 100.96875 C 220.164062 100.726562 220.589844 100.390625 220.925781 99.96875 C 220.964844 99.910156 221.027344 99.871094 221.101562 99.859375 L 221.136719 99.859375 C 221.199219 99.859375 221.25 99.875 221.28125 99.90625 Z M 220.554688 97.019531 C 220.585938 96.914062 220.601562 96.820312 220.601562 96.738281 C 220.601562 96.5625 220.542969 96.410156 220.425781 96.277344 C 220.253906 96.082031 220.003906 95.980469 219.667969 95.980469 C 219.410156 95.980469 219.152344 96.039062 218.890625 96.15625 C 218.632812 96.273438 218.402344 96.429688 218.199219 96.632812 C 217.972656 96.847656 217.792969 97.085938 217.664062 97.34375 C 217.535156 97.605469 217.433594 97.851562 217.355469 98.085938 C 217.683594 98.085938 218.035156 98.070312 218.40625 98.046875 C 218.777344 98.019531 219.113281 97.96875 219.402344 97.894531 C 219.695312 97.820312 219.941406 97.710938 220.144531 97.570312 C 220.347656 97.425781 220.484375 97.242188 220.554688 97.019531 Z M 220.554688 97.019531 "/>
<path style=" stroke:none;fill-rule:nonzero;fill:rgb(0%,0%,0%);fill-opacity:1;" d="M 137.378906 150.753906 L 96.757812 231.285156 L 94.359375 230.070312 L 134.976562 149.542969 C 135.3125 148.878906 136.121094 148.613281 136.785156 148.949219 C 137.445312 149.28125 137.710938 150.089844 137.378906 150.753906 Z M 89.75 242.195312 L 101.820312 230.207031 L 96.765625 231.273438 L 94.363281 230.058594 L 92.21875 225.359375 Z M 89.75 242.195312 "/>
<path style=" stroke:none;fill-rule:nonzero;fill:rgb(0%,0%,0%);fill-opacity:1;" d="M 112.796875 126.109375 L 112.390625 126.066406 L 111.601562 125.996094 L 110.828125 125.9375 L 110.070312 125.894531 L 109.332031 125.867188 L 108.609375 125.847656 L 107.902344 125.84375 L 107.210938 125.851562 L 106.539062 125.871094 L 105.886719 125.90625 L 105.246094 125.949219 L 104.625 126.007812 L 104.023438 126.078125 L 103.4375 126.164062 L 102.871094 126.257812 L 102.320312 126.367188 L 101.792969 126.492188 L 101.28125 126.625 L 100.785156 126.773438 L 100.3125 126.933594 L 99.855469 127.109375 L 99.417969 127.296875 L 99 127.503906 L 98.601562 127.71875 L 98.222656 127.953125 L 97.863281 128.199219 L 97.527344 128.460938 L 97.210938 128.738281 L 96.917969 129.035156 L 96.648438 129.34375 L 96.402344 129.671875 L 96.183594 130.015625 L 95.992188 130.371094 L 95.828125 130.742188 L 95.6875 131.128906 L 95.582031 131.527344 L 95.503906 131.929688 L 95.457031 132.351562 L 95.4375 132.777344 L 95.449219 133.210938 L 95.488281 133.652344 L 95.558594 134.101562 L 95.652344 134.558594 L 95.777344 135.019531 L 95.929688 135.488281 L 96.109375 135.964844 L 96.316406 136.445312 L 96.550781 136.9375 L 96.808594 137.433594 L 97.097656 137.933594 L 97.40625 138.4375 L 97.738281 138.941406 L 98.097656 139.449219 L 98.472656 139.957031 L 98.875 140.46875 L 99.296875 140.980469 L 99.738281 141.492188 L 100.203125 142.007812 L 100.683594 142.523438 L 101.1875 143.039062 L 101.710938 143.558594 L 102.25 144.078125 L 102.8125 144.597656 L 103.394531 145.117188 L 103.988281 145.636719 L 104.605469 146.160156 L 105.234375 146.679688 L 105.886719 147.203125 L 106.550781 147.722656 L 107.230469 148.242188 L 107.929688 148.761719 L 108.644531 149.28125 L 109.371094 149.796875 L 110.113281 150.316406 L 110.871094 150.832031 L 112.421875 151.851562 L 114.03125 152.867188 L 115.691406 153.871094 L 117.394531 154.863281 L 119.144531 155.84375 L 120.933594 156.804688 L 122.761719 157.75 L 124.625 158.675781 L 126.519531 159.578125 L 128.441406 160.460938 L 130.386719 161.316406 L 132.359375 162.148438 L 134.347656 162.949219 L 136.355469 163.722656 L 138.375 164.460938 L 140.40625 165.167969 L 142.445312 165.839844 L 144.488281 166.472656 L 146.53125 167.066406 L 148.550781 167.613281 L 150.515625 168.105469 L 152.429688 168.542969 L 153.371094 168.742188 L 154.292969 168.929688 L 155.203125 169.101562 L 156.097656 169.261719 L 156.976562 169.410156 L 157.839844 169.542969 L 158.691406 169.660156 L 159.527344 169.769531 L 160.34375 169.863281 L 161.152344 169.945312 L 161.9375 170.015625 L 162.710938 170.070312 L 163.464844 170.113281 L 164.207031 170.144531 L 164.929688 170.160156 L 165.632812 170.167969 L 166.324219 170.160156 L 166.996094 170.140625 L 167.652344 170.105469 L 168.289062 170.058594 L 168.910156 170.003906 L 169.515625 169.929688 L 170.097656 169.847656 L 170.664062 169.75 L 171.214844 169.640625 L 171.742188 169.519531 L 172.257812 169.386719 L 172.75 169.238281 L 173.226562 169.074219 L 173.683594 168.898438 L 174.117188 168.710938 L 174.539062 168.507812 L 174.933594 168.289062 L 175.3125 168.058594 L 175.671875 167.8125 L 176.011719 167.546875 L 176.324219 167.269531 L 176.617188 166.972656 L 176.886719 166.664062 L 177.132812 166.335938 L 177.351562 165.996094 L 177.546875 165.636719 L 177.710938 165.265625 L 177.847656 164.882812 L 177.953125 164.484375 L 178.03125 164.078125 L 178.082031 163.660156 L 178.097656 163.230469 L 178.085938 162.796875 L 178.050781 162.355469 L 177.980469 161.90625 L 177.882812 161.453125 L 177.757812 160.988281 L 177.605469 160.519531 L 177.429688 160.046875 L 177.222656 159.5625 L 176.988281 159.074219 L 176.726562 158.578125 L 176.464844 158.121094 L 176.183594 157.660156 L 175.882812 157.199219 L 175.5625 156.734375 L 175.21875 156.265625 L 174.855469 155.792969 L 174.472656 155.316406 L 174.070312 154.839844 L 173.648438 154.355469 L 173.207031 153.871094 L 172.746094 153.386719 L 172.265625 152.894531 L 171.769531 152.402344 L 171.25 151.910156 L 170.714844 151.410156 L 170.15625 150.910156 C 169.789062 150.582031 169.222656 150.609375 168.890625 150.980469 C 168.5625 151.347656 168.589844 151.914062 168.960938 152.246094 L 169.496094 152.726562 L 170.011719 153.207031 L 170.507812 153.679688 L 170.988281 154.152344 L 171.445312 154.621094 L 171.882812 155.082031 L 172.300781 155.539062 L 172.699219 155.992188 L 173.078125 156.445312 L 173.433594 156.882812 L 173.773438 157.324219 L 174.089844 157.757812 L 174.382812 158.179688 L 174.65625 158.597656 L 174.910156 159.011719 L 175.140625 159.414062 L 175.371094 159.851562 L 175.574219 160.269531 L 175.753906 160.683594 L 175.90625 161.078125 L 176.03125 161.460938 L 176.132812 161.828125 L 176.210938 162.183594 L 176.265625 162.523438 L 176.296875 162.851562 L 176.308594 163.164062 L 176.296875 163.464844 L 176.269531 163.75 L 176.222656 164.027344 L 176.152344 164.292969 L 176.066406 164.546875 L 175.960938 164.796875 L 175.835938 165.035156 L 175.695312 165.265625 L 175.527344 165.492188 L 175.339844 165.714844 L 175.132812 165.929688 L 174.902344 166.136719 L 174.648438 166.335938 L 174.375 166.53125 L 174.074219 166.71875 L 173.75 166.894531 L 173.40625 167.066406 L 173.039062 167.226562 L 172.648438 167.375 L 172.230469 167.519531 L 171.796875 167.652344 L 171.34375 167.773438 L 170.863281 167.882812 L 170.363281 167.984375 L 169.84375 168.070312 L 169.300781 168.148438 L 168.742188 168.214844 L 168.164062 168.269531 L 167.5625 168.3125 L 166.941406 168.34375 L 166.304688 168.367188 L 165.648438 168.371094 L 164.972656 168.367188 L 164.277344 168.351562 L 163.566406 168.324219 L 162.839844 168.28125 L 162.09375 168.226562 L 161.328125 168.160156 L 160.550781 168.082031 L 159.753906 167.992188 L 158.941406 167.886719 L 158.113281 167.769531 L 157.269531 167.640625 L 156.410156 167.496094 L 155.539062 167.339844 L 154.648438 167.171875 L 153.746094 166.988281 L 152.832031 166.792969 L 150.953125 166.363281 L 149.019531 165.882812 L 147.03125 165.34375 L 145.019531 164.757812 L 143.003906 164.136719 L 140.996094 163.476562 L 138.992188 162.777344 L 137 162.050781 L 135.019531 161.289062 L 133.054688 160.496094 L 131.109375 159.675781 L 129.1875 158.832031 L 127.289062 157.960938 L 125.421875 157.070312 L 123.585938 156.15625 L 121.785156 155.222656 L 120.019531 154.277344 L 118.296875 153.3125 L 116.617188 152.335938 L 114.988281 151.347656 L 113.40625 150.351562 L 111.878906 149.347656 L 111.136719 148.839844 L 110.410156 148.335938 L 109.699219 147.832031 L 109 147.324219 L 108.320312 146.816406 L 107.65625 146.308594 L 107.007812 145.800781 L 106.375 145.296875 L 105.761719 144.792969 L 105.167969 144.285156 L 104.589844 143.785156 L 104.03125 143.28125 L 103.492188 142.78125 L 102.972656 142.285156 L 102.472656 141.789062 L 101.992188 141.296875 L 101.535156 140.804688 L 101.09375 140.320312 L 100.679688 139.835938 L 100.285156 139.359375 L 99.910156 138.886719 L 99.5625 138.414062 L 99.234375 137.953125 L 98.933594 137.492188 L 98.652344 137.042969 L 98.394531 136.597656 L 98.164062 136.160156 L 97.960938 135.738281 L 97.785156 135.328125 L 97.632812 134.929688 L 97.507812 134.550781 L 97.40625 134.179688 L 97.328125 133.824219 L 97.273438 133.484375 L 97.242188 133.160156 L 97.230469 132.84375 L 97.238281 132.546875 L 97.265625 132.261719 L 97.316406 131.980469 L 97.382812 131.71875 L 97.46875 131.460938 L 97.574219 131.214844 L 97.699219 130.976562 L 97.84375 130.742188 L 98.007812 130.515625 L 98.195312 130.292969 L 98.402344 130.082031 L 98.636719 129.871094 L 98.886719 129.671875 L 99.164062 129.476562 L 99.460938 129.292969 L 99.785156 129.113281 L 100.132812 128.945312 L 100.5 128.785156 L 100.890625 128.632812 L 101.304688 128.492188 L 101.738281 128.359375 L 102.195312 128.238281 L 102.671875 128.125 L 103.171875 128.027344 L 103.691406 127.9375 L 104.234375 127.859375 L 104.792969 127.792969 L 105.375 127.738281 L 105.976562 127.695312 L 106.59375 127.664062 L 107.234375 127.644531 L 107.890625 127.636719 L 108.566406 127.640625 L 109.257812 127.660156 L 109.96875 127.6875 L 110.699219 127.726562 L 111.441406 127.78125 L 112.203125 127.847656 L 112.613281 127.890625 Z M 126.753906 129.804688 L 108.121094 131.570312 L 112.515625 127.875 L 112.867188 126.117188 L 110.226562 121.015625 Z M 126.753906 129.804688 "/>
<path style=" stroke:none;fill-rule:evenodd;fill:rgb(0%,0%,0%);fill-opacity:1;" d="M 82.566406 227.304688 L 69.96875 227.304688 L 69.96875 225.753906 L 72.285156 225.753906 L 72.285156 211.941406 L 69.96875 211.941406 L 69.96875 210.382812 C 71.464844 210.4375 72.898438 210.464844 74.265625 210.460938 C 75.824219 210.464844 77.453125 210.4375 79.160156 210.382812 L 79.160156 211.941406 L 76.238281 211.941406 L 76.238281 225.753906 L 77.796875 225.753906 C 78.328125 225.757812 78.824219 225.648438 79.28125 225.425781 C 79.742188 225.210938 80.140625 224.898438 80.476562 224.5 C 80.929688 223.96875 81.230469 223.347656 81.382812 222.640625 C 81.535156 221.933594 81.660156 221.152344 81.757812 220.296875 L 83.363281 220.296875 Z M 82.566406 227.304688 "/>
<path style=" stroke:none;fill-rule:nonzero;fill:rgb(0%,0%,0%);fill-opacity:1;" d="M 135.441406 276.332031 L 153.371094 281.710938 L 149.785156 277.226562 L 149.785156 275.433594 L 153.371094 270.949219 Z M 135.441406 276.332031 "/>
</g>
</svg>
