<?xml version="1.0" encoding="utf-8"?>
<!-- Generator: Adobe Illustrator 19.0.0, SVG Export Plug-In . SVG Version: 6.00 Build 0)  -->
<svg version="1.1" id="图层_1" xmlns="http://www.w3.org/2000/svg" xmlns:xlink="http://www.w3.org/1999/xlink" x="0px" y="0px"
	 viewBox="367.1666565 112.5 452.6666565 147" enable-background="new 367.1666565 112.5 452.6666565 147" xml:space="preserve">
<g>
	<path fill-opacity="0" stroke="#000000" d="M374.6425781,229.5923157h194.3768921"/>
	<path stroke="#000000" d="M569.0194702,232.4531097l7.6289063-2.8607941l-7.6289063-2.8609009V232.4531097z"/>
</g>
<g>
	<path fill-opacity="0" stroke="#000000" d="M468.0463867,126.0132141v123.3759918"/>
	<path stroke="#000000" d="M470.907196,126.0132141l-2.8608093-7.6278992l-2.8598938,7.6278992H470.907196z"/>
</g>
<path fill-opacity="0" stroke="#000000" d="M536.9696655,126.4238129
	c-1.8319702,6.6821899-6.6425781,18.9921875-11.6337891,31.3311005
	c-4.1854858,10.3432007-6.9970093,18.2709961-11.3242188,25.9756012
	c-4.4471741,7.918396-7.3661804,13.3822937-11.6200867,19.8847046c-4.1200867,6.2968903-8.281189,11.3583984-11.3388977,14.4609985
	c-3.8075867,3.8652039-9.0370789,6.6185913-11.6190796,7.8403015c-2.8623047,1.3563995-7.6748047,2.875-11.3882141,2.875
	c-3.7133789,0-8.5259094-1.5186005-11.3866882-2.875c-2.5834961-1.2217102-7.8130188-3.9750977-11.6216125-7.8403015
	c-3.0552063-3.1026001-7.218689-8.1641083-11.3378906-14.4609985c-4.2528992-6.5024109-7.1733093-11.9663086-11.6195984-19.8847046
	c-4.3276062-7.7046051-7.1392212-15.6324005-11.3228149-25.9756012c-4.9921875-12.338913-9.8041992-24.6489105-11.6362-31.3311005"
	/>
<path fill-opacity="0" stroke="#000000" d="M514.0341797,227.7217102l-0.0028687,4.0864105"/>
<path fill-opacity="0" stroke="#000000" d="M491.0966797,227.7217102l-0.0028992,4.0864105"/>
<path fill-opacity="0" stroke="#000000" d="M536.7226563,227.7217102l-0.0029907,4.0864105"/>
<path fill-opacity="0" stroke="#000000" d="M445.3144836,227.7217102l-0.0039978,4.0864105"/>
<path fill-opacity="0" stroke="#000000" d="M422.4384766,227.7217102l-0.0029907,4.0864105"/>
<path fill-opacity="0" stroke="#000000" d="M399.5492859,227.7217102l-0.0028992,4.0864105"/>
<path fill-opacity="0" stroke="#000000" d="M470.1552734,206.6523132l-4.0874023-0.0034027"/>
<path fill-opacity="0" stroke="#000000" d="M470.1552734,183.848114l-4.0874023-0.0023956"/>
<path fill-opacity="0" stroke="#000000" d="M470.0883789,160.9579926l-4.0855103-0.0033722"/>
<path fill-opacity="0" stroke="#000000" d="M470.0883789,138.117218l-4.0855103-0.0028992"/>
<g enable-background="new    ">
	<path d="M516.2919922,237.7998047v0.7270508h-0.9326172v1.8334961h-0.8447266v-1.8334961h-2.9394531v-0.6557617
		l3.2216797-4.5991211h0.5625v4.527832H516.2919922z M514.5146484,237.7998047v-3.4467773l-2.4375,3.4467773H514.5146484z"/>
</g>
<g enable-background="new    ">
	<path d="M419.0083008,237.6201172h2.6474609v0.7734375h-2.6474609V237.6201172z"/>
	<path d="M426.956543,237.7998047v0.7270508h-0.9321289v1.8334961h-0.8452148v-1.8334961h-2.9394531v-0.6557617l3.2211914-4.5991211
		h0.5634766v4.527832H426.956543z M425.1791992,237.7998047v-3.4467773l-2.4375,3.4467773H425.1791992z"/>
</g>
<g enable-background="new    ">
	<path d="M478.3818359,185.140625v0.7270508h-0.9326172v1.8334961h-0.8447266v-1.8334961h-2.9394531v-0.6557617l3.2216797-4.5991211
		h0.5625v4.527832H478.3818359z M476.6044922,185.140625v-3.4467773l-2.4375,3.4467773H476.6044922z"/>
</g>
<g>
	<path fill-opacity="0" stroke="#000000" d="M604.3644409,229.1153107H798.741333"/>
	<path stroke="#000000" d="M798.741333,231.97612l7.6289063-2.8608093l-7.6289063-2.8603973V231.97612z"/>
</g>
<g>
	<path fill-opacity="0" stroke="#000000" d="M697.8326416,128.8911133v123.3755035"/>
	<path stroke="#000000" d="M700.6935425,128.8907166l-2.8609009-7.6275024l-2.8612671,7.6278992L700.6935425,128.8907166z"/>
</g>
<path fill-opacity="0" stroke="#000000" d="M743.7560425,227.2451172l-0.0029297,4.0859985"/>
<path fill-opacity="0" stroke="#000000" d="M720.8185425,227.2451172l-0.0028687,4.0859985"/>
<path fill-opacity="0" stroke="#000000" d="M766.444519,227.2451172l-0.0029907,4.0859985"/>
<path fill-opacity="0" stroke="#000000" d="M675.0363159,227.2451172l-0.0039673,4.0859985"/>
<path fill-opacity="0" stroke="#000000" d="M652.1603394,227.2451172l-0.0029907,4.0859985"/>
<path fill-opacity="0" stroke="#000000" d="M629.2711182,227.2451172l-0.0028687,4.0859985"/>
<path fill-opacity="0" stroke="#000000" d="M699.8771362,206.1748199l-4.0874023-0.0034027"/>
<path fill-opacity="0" stroke="#000000" d="M699.8771362,183.371109l-4.0874023-0.0023956"/>
<g enable-background="new    ">
	<path d="M746.0136719,237.3237305v0.7270508h-0.9326172v1.8334961h-0.8447266v-1.8334961h-2.9394531v-0.6557617
		l3.2216797-4.5991211h0.5625v4.527832H746.0136719z M744.2363281,237.3237305v-3.4467773l-2.4375,3.4467773H744.2363281z"/>
</g>
<path fill-opacity="0" stroke="#000000" d="M684.2358398,235.7178497L810.166626,173.220459"/>
<g>
	<path fill="#4A81FF" d="M751.4894409,200.7080078h7.4979858v28.4073029h-7.4979858V200.7080078z"/>
	<path fill-opacity="0" stroke="#000000" stroke-width="0.3" d="M751.4894409,200.7080078h7.4979858v28.4073029h-7.4979858
		V200.7080078z"/>
</g>
<g>
	<path fill="#4A81FF" d="M743.9923706,204.3858185h7.4970703v24.7294922h-7.4970703V204.3858185z"/>
	<path fill-opacity="0" stroke="#000000" stroke-width="0.3" d="M743.9923706,204.3858185h7.4970703v24.7294922h-7.4970703
		V204.3858185z"/>
</g>
<g>
	<path fill="#4A81FF" d="M736.4943237,208.1949158h7.4980469v20.9203949h-7.4980469V208.1949158z"/>
	<path fill-opacity="0" stroke="#000000" stroke-width="0.3" d="M736.4943237,208.1949158h7.4980469v20.9203949h-7.4980469
		V208.1949158z"/>
</g>
<g>
	<path fill="#4A81FF" d="M728.9972534,211.7471161h7.4970703v17.3681946h-7.4970703V211.7471161z"/>
	<path fill-opacity="0" stroke="#000000" stroke-width="0.3" d="M728.9972534,211.7471161h7.4970703v17.3681946h-7.4970703
		V211.7471161z"/>
</g>
<path fill-opacity="0" stroke="#3E78FF" d="M529.265564,147.8013153v19.2832031"/>
<path fill-opacity="0" stroke="#000000" stroke-width="0.6" d="M529.265564,167.0845184h-7.4979858"/>
<path fill-opacity="0" stroke="#3E78FF" d="M521.7675781,167.0845184v16.0907898"/>
<path fill-opacity="0" stroke="#000000" stroke-width="0.6" d="M521.7675781,183.1753082h-7.4970703"/>
<path fill-opacity="0" stroke="#3E78FF" d="M514.2705078,183.1753082v13.3701019"/>
<path fill-opacity="0" stroke="#000000" stroke-width="0.6" d="M514.2705078,196.5454102h-7.4980164"/>
<path fill-opacity="0" stroke="#3E78FF" d="M506.7724915,196.5454102v11.6567078"/>
<path fill-opacity="0" stroke="#000000" stroke-width="0.6" d="M506.7724915,208.2021179h-7.4971008"/>
<g enable-background="new    ">
	<path d="M708.1035156,184.7714844v0.7270508h-0.9326172v1.8334961h-0.8447266v-1.8334961h-2.9394531v-0.6557617
		l3.2216797-4.5991211h0.5625v4.527832H708.1035156z M706.3261719,184.7714844v-3.4467773l-2.4375,3.4467773H706.3261719z"/>
</g>
<g>
	<g>
		<path d="M787.1298828,215.7109375v0.2167969c-0.5917969-0.296875-1.0849609-0.6435547-1.4804688-1.0419922
			c-0.5634766-0.5654297-0.9980469-1.2324219-1.3037109-2.0009766c-0.3046875-0.7695313-0.4580078-1.5668945-0.4580078-2.394043
			c0-1.2094727,0.2998047-2.3129883,0.8984375-3.3100586c0.5996094-0.996582,1.3808594-1.7099609,2.34375-2.1391602v0.2460938
			c-0.4814453,0.2651367-0.8769531,0.6279297-1.1865234,1.0883789s-0.5400391,1.0439453-0.6923828,1.75
			c-0.1533203,0.706543-0.2294922,1.4438477-0.2294922,2.2124023c0,0.8349609,0.0644531,1.5942383,0.1933594,2.2768555
			c0.1025391,0.5380859,0.2255859,0.9707031,0.3701172,1.2958984c0.1455078,0.3261719,0.3398438,0.6396484,0.5849609,0.9394531
			C786.4140625,215.1513672,786.734375,215.4384766,787.1298828,215.7109375z"/>
		<path d="M797.0634766,205.2875977v-0.2460938c0.5947266,0.2929688,1.0898438,0.6381836,1.4853516,1.0361328
			c0.5595703,0.5698242,0.9921875,1.237793,1.2978516,2.0043945s0.4580078,1.565918,0.4580078,2.3969727
			c0,1.2094727-0.2988281,2.3129883-0.8955078,3.3100586c-0.5966797,0.9960938-1.3789063,1.7089844-2.3457031,2.1386719v-0.2167969
			c0.4814453-0.2685547,0.8779297-0.6328125,1.1884766-1.0908203c0.3115234-0.4589844,0.5429688-1.0419922,0.6933594-1.75
			c0.1503906-0.7089844,0.2255859-1.4472656,0.2255859-2.2158203c0-0.8310547-0.0644531-1.5898438-0.1933594-2.2763672
			c-0.0976563-0.5385742-0.2197266-0.9697266-0.3671875-1.2939453c-0.1464844-0.3237305-0.3417969-0.6357422-0.5839844-0.9360352
			C797.7832031,205.847168,797.4628906,205.5605469,797.0634766,205.2875977z"/>
	</g>
	<g>
		<path d="M794.8916016,213.3955078l-0.671875,2.3720703c-0.0449219,0.1601563-0.0673828,0.2558594-0.0673828,0.2880859
			c0,0.0361328,0.0107422,0.0654297,0.0322266,0.0878906s0.046875,0.0332031,0.0761719,0.0332031
			c0.0341797,0,0.0742188-0.0175781,0.1220703-0.0537109c0.1289063-0.1015625,0.2587891-0.2460938,0.390625-0.4335938
			l0.1181641,0.078125c-0.1533203,0.234375-0.3349609,0.4326172-0.5429688,0.5927734
			c-0.1533203,0.1191406-0.3007813,0.1787109-0.4414063,0.1787109c-0.0927734,0-0.1679688-0.0273438-0.2275391-0.0830078
			c-0.0585938-0.0546875-0.0878906-0.1240234-0.0878906-0.2080078c0-0.0830078,0.0283203-0.2216797,0.0849609-0.4160156
			l0.4414063-1.515625c0.0722656-0.2480469,0.1083984-0.4042969,0.1083984-0.4667969
			c0-0.0498047-0.0175781-0.0908203-0.0527344-0.1220703s-0.0830078-0.0478516-0.1445313-0.0478516
			c-0.0498047,0-0.1523438,0.0126953-0.3085938,0.0371094v-0.1318359L794.8916016,213.3955078z M794.8476563,212.0527344
			c0.0957031,0,0.1757813,0.0322266,0.2412109,0.0976563s0.0986328,0.1455078,0.0986328,0.2402344
			c0,0.0927734-0.0332031,0.171875-0.1005859,0.2392578c-0.0664063,0.0664063-0.1464844,0.0996094-0.2392578,0.0996094
			s-0.171875-0.0332031-0.2392578-0.0996094c-0.0664063-0.0673828-0.0996094-0.1464844-0.0996094-0.2392578
			c0-0.0947266,0.0322266-0.1748047,0.0976563-0.2402344C794.6728516,212.0849609,794.7529297,212.0527344,794.8476563,212.0527344z
			"/>
	</g>
	<g>
		<path d="M780.7558594,208.2080078l-0.1054688,0.3862305h-0.8574219l-0.6455078,2.5576172
			c-0.2861328,1.1274414-0.5742188,1.9995117-0.8632813,2.6166992c-0.4111328,0.8691406-0.8535156,1.4707031-1.3271484,1.8017578
			c-0.3603516,0.2539063-0.7207031,0.3808594-1.0810547,0.3808594c-0.234375,0-0.4345703-0.0703125-0.5986328-0.2109375
			c-0.1210938-0.0976563-0.1826172-0.2246094-0.1826172-0.3798828c0-0.125,0.0507813-0.2333984,0.1503906-0.3251953
			s0.2216797-0.1376953,0.3671875-0.1376953c0.1054688,0,0.1943359,0.0332031,0.2666016,0.0996094
			s0.1083984,0.1425781,0.1083984,0.2285156s-0.0410156,0.1660156-0.1230469,0.2402344
			c-0.0625,0.0537109-0.09375,0.0947266-0.09375,0.1220703c0,0.0351563,0.0136719,0.0625,0.0410156,0.0820313
			c0.0351563,0.0273438,0.0898438,0.0410156,0.1640625,0.0410156c0.1689453,0,0.3457031-0.0527344,0.5322266-0.1582031
			c0.1855469-0.1044922,0.3515625-0.2617188,0.4960938-0.4707031s0.28125-0.5097656,0.4111328-0.9042969
			c0.0546875-0.1640625,0.2011719-0.7041016,0.4404297-1.6210938l1.0214844-3.9624023h-1.0214844l0.0820313-0.3862305
			c0.3251953,0,0.5517578-0.0224609,0.6816406-0.0673828c0.1289063-0.0449219,0.2470703-0.1308594,0.3544922-0.2573242
			c0.1083984-0.1269531,0.2480469-0.3637695,0.4199219-0.7114258c0.2314453-0.4682617,0.4521484-0.8310547,0.6640625-1.0883789
			c0.2890625-0.347168,0.59375-0.6079102,0.9130859-0.78125c0.3193359-0.1738281,0.6191406-0.2607422,0.9013672-0.2607422
			c0.2978516,0,0.5361328,0.0751953,0.7167969,0.2255859c0.1796875,0.1499023,0.2695313,0.3129883,0.2695313,0.4887695
			c0,0.1362305-0.0449219,0.2514648-0.1347656,0.3452148s-0.2050781,0.1401367-0.3466797,0.1401367
			c-0.1210938,0-0.2197266-0.034668-0.296875-0.1049805c-0.0761719-0.0703125-0.1142578-0.1542969-0.1142578-0.2519531
			c0-0.0620117,0.0253906-0.1391602,0.0761719-0.230957s0.0771484-0.1533203,0.0771484-0.1845703
			c0-0.0546875-0.0175781-0.0957031-0.0537109-0.1230469c-0.0507813-0.0385742-0.125-0.0581055-0.2226563-0.0581055
			c-0.2470703,0-0.4677734,0.078125-0.6640625,0.2338867c-0.2617188,0.2070313-0.4970703,0.5307617-0.7041016,0.9716797
			c-0.1054688,0.2299805-0.2998047,0.8017578-0.5820313,1.7148438H780.7558594z"/>
		<path d="M790.3632813,208.0673828c0.1914063,0.203125,0.3369141,0.4057617,0.4345703,0.6088867
			c0.0703125,0.1401367,0.1855469,0.5092773,0.3466797,1.105957l0.5166016-0.7724609
			c0.1367188-0.1875,0.3027344-0.3657227,0.4990234-0.5356445c0.1953125-0.1694336,0.3681641-0.2856445,0.5166016-0.3481445
			c0.09375-0.0390625,0.1982422-0.0585938,0.3115234-0.0585938c0.1679688,0,0.3027344,0.0449219,0.4023438,0.1347656
			s0.1494141,0.1987305,0.1494141,0.3276367c0,0.1484375-0.0292969,0.25-0.0878906,0.3041992
			c-0.109375,0.0976563-0.2353516,0.1464844-0.3759766,0.1464844c-0.0820313,0-0.1699219-0.0175781-0.2646484-0.0527344
			c-0.1835938-0.0620117-0.3066406-0.09375-0.3691406-0.09375c-0.0947266,0-0.2060547,0.0546875-0.3349609,0.1640625
			c-0.2431641,0.203125-0.5322266,0.5952148-0.8691406,1.1762695l0.4814453,2.0131836
			c0.0742188,0.3085938,0.1367188,0.4931641,0.1875,0.5537109s0.1025391,0.0908203,0.1533203,0.0908203
			c0.0820313,0,0.1777344-0.0449219,0.2871094-0.1347656c0.2158203-0.1796875,0.3994141-0.4140625,0.5527344-0.7021484
			l0.2050781,0.1044922c-0.2460938,0.4609375-0.5595703,0.8427734-0.9394531,1.1474609
			c-0.2158203,0.171875-0.3974609,0.2578125-0.5458984,0.2578125c-0.2197266,0-0.3935547-0.1230469-0.5234375-0.3691406
			c-0.0820313-0.1523438-0.2519531-0.8076172-0.5107422-1.9663086c-0.6103516,1.0571289-1.0996094,1.7387695-1.4677734,2.0424805
			c-0.2392578,0.1953125-0.4697266,0.2929688-0.6923828,0.2929688c-0.1572266,0-0.2998047-0.0566406-0.4287109-0.1699219
			c-0.0947266-0.0859375-0.1416016-0.2011719-0.1416016-0.3457031c0-0.1279297,0.0429688-0.2353516,0.1298828-0.3212891
			c0.0859375-0.0859375,0.1914063-0.1289063,0.3164063-0.1289063c0.1259766,0,0.2587891,0.0625,0.3994141,0.1875
			c0.1015625,0.0898438,0.1796875,0.1347656,0.234375,0.1347656c0.046875,0,0.1074219-0.03125,0.1826172-0.09375
			c0.1835938-0.1484375,0.4345703-0.46875,0.7519531-0.9599609c0.3164063-0.4916992,0.5244141-0.8466797,0.6220703-1.0654297
			c-0.2431641-0.9482422-0.3740234-1.4492188-0.3935547-1.5039063c-0.0898438-0.2539063-0.2070313-0.4331055-0.3525391-0.5385742
			c-0.1445313-0.1054688-0.3574219-0.1582031-0.6396484-0.1582031c-0.0908203,0-0.1943359,0.0039063-0.3115234,0.0117188v-0.2104492
			L790.3632813,208.0673828z"/>
	</g>
</g>
<path fill="none" stroke="#000000" stroke-width="0.5" d="M544.2733765,150.0596161
	c-3.1923218,6.3515015-6.9862671,7.259201-11.2772827,6.805603"/>
<path fill="none" stroke="#000000" stroke-width="0.5" d="M525.5166016,168.8335114
	c1.6503906,4.5,3.9228516,6.7144012,11.453064,8.7739105"/>
<path fill="none" stroke="#000000" stroke-width="0.5" d="M761.888855,213.4292145
	c3.0809937-1.8632965,6.7412109-2.1298981,10.8817749-1.9965973"/>
<path fill="none" stroke="#000000" stroke-width="0.5" d="M755.2384644,231.3311157
	c1.6503906,4.5,3.9228516,6.7142944,11.453064,8.7738953"/>
<g>
	<g>
		<path d="M571.0927734,240.6108398c0.1904297,0.2036133,0.3349609,0.4072266,0.4316406,0.6108398
			c0.0703125,0.140625,0.1855469,0.5107422,0.3447266,1.1098633l0.5146484-0.7753906
			c0.1357422-0.1879883,0.3007813-0.3666992,0.4960938-0.5371094c0.1943359-0.1704102,0.3662109-0.2866211,0.5136719-0.3496094
			c0.09375-0.0390625,0.1962891-0.0585938,0.3095703-0.0585938c0.1669922,0,0.3007813,0.0449219,0.4003906,0.1352539
			c0.0986328,0.0898438,0.1484375,0.199707,0.1484375,0.3286133c0,0.1489258-0.0292969,0.2504883-0.0878906,0.3051758
			c-0.1083984,0.0981445-0.2333984,0.1469727-0.3730469,0.1469727c-0.0820313,0-0.1699219-0.0175781-0.2626953-0.0527344
			c-0.1835938-0.0625-0.3056641-0.0942383-0.3681641-0.0942383c-0.09375,0-0.2041016,0.0551758-0.3330078,0.1645508
			c-0.2412109,0.2036133-0.5292969,0.597168-0.8642578,1.1801758l0.4785156,2.0195313
			c0.0742188,0.3095703,0.1367188,0.4951172,0.1875,0.5556641c0.0498047,0.0605469,0.1005859,0.0908203,0.1513672,0.0908203
			c0.0820313,0,0.1777344-0.0449219,0.2861328-0.1347656c0.2138672-0.1806641,0.3974609-0.4150391,0.5488281-0.7050781
			l0.2050781,0.1054688c-0.2451172,0.4619141-0.5566406,0.8457031-0.9345703,1.1513672
			c-0.2138672,0.171875-0.3955078,0.2578125-0.5429688,0.2578125c-0.21875,0-0.3916016-0.1230469-0.5205078-0.3691406
			c-0.0820313-0.1533203-0.2509766-0.8105469-0.5078125-1.9726563c-0.6074219,1.0605469-1.09375,1.7431641-1.4599609,2.0488281
			c-0.2373047,0.1953125-0.4677734,0.2929688-0.6894531,0.2929688c-0.1552734,0-0.2978516-0.0566406-0.4257813-0.1699219
			c-0.09375-0.0859375-0.140625-0.2011719-0.140625-0.3466797c0-0.1289063,0.0429688-0.2363281,0.1289063-0.3222656
			c0.0849609-0.0869141,0.1904297-0.1298828,0.3154297-0.1298828c0.1240234,0,0.2568359,0.0625,0.3964844,0.1884766
			c0.1015625,0.0898438,0.1796875,0.1347656,0.234375,0.1347656c0.0458984,0,0.1064453-0.03125,0.1806641-0.09375
			c0.1826172-0.1494141,0.4316406-0.4697266,0.7470703-0.9628906s0.5224609-0.8496094,0.6191406-1.0688477
			c-0.2412109-0.9511719-0.3720703-1.4541016-0.390625-1.5092773c-0.0898438-0.2543945-0.2070313-0.4345703-0.3505859-0.5400391
			c-0.1445313-0.105957-0.3564453-0.1586914-0.6367188-0.1586914c-0.0898438,0-0.1923828,0.0039063-0.3095703,0.0117188v-0.2114258
			L571.0927734,240.6108398z"/>
	</g>
</g>
<g>
	<g>
		<path d="M804.6289063,240.6108398c0.1904297,0.2036133,0.3349609,0.4072266,0.4316406,0.6108398
			c0.0703125,0.140625,0.1855469,0.5107422,0.3447266,1.1098633l0.5146484-0.7753906
			c0.1357422-0.1879883,0.3007813-0.3666992,0.4960938-0.5371094c0.1943359-0.1704102,0.3662109-0.2866211,0.5136719-0.3496094
			c0.09375-0.0390625,0.1962891-0.0585938,0.3095703-0.0585938c0.1669922,0,0.3007813,0.0449219,0.4003906,0.1352539
			c0.0986328,0.0898438,0.1484375,0.199707,0.1484375,0.3286133c0,0.1489258-0.0292969,0.2504883-0.0878906,0.3051758
			c-0.1083984,0.0981445-0.2333984,0.1469727-0.3730469,0.1469727c-0.0820313,0-0.1699219-0.0175781-0.2626953-0.0527344
			c-0.1835938-0.0625-0.3056641-0.0942383-0.3681641-0.0942383c-0.09375,0-0.2041016,0.0551758-0.3330078,0.1645508
			c-0.2412109,0.2036133-0.5292969,0.597168-0.8642578,1.1801758l0.4785156,2.0195313
			c0.0742188,0.3095703,0.1367188,0.4951172,0.1875,0.5556641c0.0498047,0.0605469,0.1005859,0.0908203,0.1513672,0.0908203
			c0.0820313,0,0.1777344-0.0449219,0.2861328-0.1347656c0.2138672-0.1806641,0.3974609-0.4150391,0.5488281-0.7050781
			l0.2050781,0.1054688c-0.2451172,0.4619141-0.5566406,0.8457031-0.9345703,1.1513672
			c-0.2138672,0.171875-0.3955078,0.2578125-0.5429688,0.2578125c-0.21875,0-0.3916016-0.1230469-0.5205078-0.3691406
			c-0.0820313-0.1533203-0.2509766-0.8105469-0.5078125-1.9726563c-0.6074219,1.0605469-1.09375,1.7431641-1.4599609,2.0488281
			c-0.2373047,0.1953125-0.4677734,0.2929688-0.6894531,0.2929688c-0.1552734,0-0.2978516-0.0566406-0.4257813-0.1699219
			c-0.09375-0.0859375-0.140625-0.2011719-0.140625-0.3466797c0-0.1289063,0.0429688-0.2363281,0.1289063-0.3222656
			c0.0849609-0.0869141,0.1904297-0.1298828,0.3154297-0.1298828c0.1240234,0,0.2568359,0.0625,0.3964844,0.1884766
			c0.1015625,0.0898438,0.1796875,0.1347656,0.234375,0.1347656c0.0458984,0,0.1064453-0.03125,0.1806641-0.09375
			c0.1826172-0.1494141,0.4316406-0.4697266,0.7470703-0.9628906s0.5224609-0.8496094,0.6191406-1.0688477
			c-0.2412109-0.9511719-0.3720703-1.4541016-0.390625-1.5092773c-0.0898438-0.2543945-0.2070313-0.4345703-0.3505859-0.5400391
			c-0.1445313-0.105957-0.3564453-0.1586914-0.6367188-0.1586914c-0.0898438,0-0.1923828,0.0039063-0.3095703,0.0117188v-0.2114258
			L804.6289063,240.6108398z"/>
	</g>
</g>
<g>
	<g>
		<path d="M491.8457031,131.2202148v0.2148438c-0.5878906-0.2939453-1.0791016-0.6386719-1.4726563-1.0332031
			c-0.5615234-0.5615234-0.9941406-1.2246094-1.2978516-1.9873047s-0.4560547-1.5546875-0.4560547-2.375
			c0-1.2011719,0.2978516-2.2958984,0.8945313-3.2856445c0.5966797-0.9892578,1.3740234-1.6972656,2.3320313-2.1230469v0.2436523
			c-0.4794922,0.2636719-0.8730469,0.6235352-1.1806641,1.0805664s-0.5380859,1.0361328-0.6894531,1.7368164
			c-0.1523438,0.7011719-0.2285156,1.4331055-0.2285156,2.1958008c0,0.8295898,0.0644531,1.5825195,0.1933594,2.2602539
			c0.1015625,0.5341797,0.2236328,0.9628906,0.3681641,1.2861328s0.3378906,0.6337891,0.5810547,0.9326172
			C491.1337891,130.6645508,491.4521484,130.949707,491.8457031,131.2202148z"/>
		<path d="M498.859375,120.8745117v-0.2436523c0.5927734,0.2900391,1.0859375,0.6328125,1.4794922,1.027832
			c0.5566406,0.5654297,0.9873047,1.2290039,1.2919922,1.9897461c0.3037109,0.7612305,0.4560547,1.5537109,0.4560547,2.3793945
			c0,1.2001953-0.2978516,2.2949219-0.8916016,3.2841797c-0.5947266,0.9892578-1.3730469,1.6972656-2.3359375,2.1230469v-0.2148438
			c0.4794922-0.2666016,0.8740234-0.6279297,1.1845703-1.0830078c0.3095703-0.4550781,0.5390625-1.0341797,0.6894531-1.7373047
			c0.1494141-0.7021484,0.2246094-1.4355469,0.2246094-2.1982422c0-0.8251953-0.0634766-1.578125-0.1923828-2.2597656
			c-0.0976563-0.534668-0.2197266-0.9624023-0.3652344-1.2836914c-0.1464844-0.3217773-0.3408203-0.6313477-0.5820313-0.9296875
			C499.5771484,121.4306641,499.2568359,121.1459961,498.859375,120.8745117z"/>
	</g>
	<g>
		<path d="M483.4121094,121.4321289l-0.9355469,3.1196289h1.0410156c0.4677734,0,0.8173828-0.0717773,1.0488281-0.2148438
			c0.2324219-0.1430664,0.4707031-0.4492188,0.7167969-0.9179688h0.2216797l-0.8242188,2.8696289h-0.2333984
			c0.0576172-0.2324219,0.0869141-0.4238281,0.0869141-0.5751953c0-0.2358398-0.078125-0.4189453-0.2363281-0.5488281
			c-0.1582031-0.1293945-0.453125-0.1943359-0.8857422-0.1943359h-1.0527344l-0.6894531,2.3759766
			c-0.125,0.421875-0.1865234,0.7021484-0.1865234,0.8417969c0,0.1435547,0.0527344,0.2539063,0.1601563,0.3310547
			c0.1074219,0.078125,0.3691406,0.1298828,0.7861328,0.1572266l-0.0703125,0.2148438h-3.1328125l0.0761719-0.2148438
			c0.3037109-0.0078125,0.5058594-0.0351563,0.6074219-0.0810547c0.15625-0.0664063,0.2714844-0.1552734,0.3447266-0.2675781
			c0.1054688-0.1591797,0.2304688-0.4863281,0.375-0.9814453l1.3964844-4.7460938
			c0.1132813-0.3837891,0.1699219-0.6835938,0.1699219-0.9003906c0-0.1005859-0.0253906-0.1870117-0.0761719-0.2587891
			c-0.0507813-0.0712891-0.1259766-0.125-0.2246094-0.159668c-0.0996094-0.034668-0.2978516-0.0522461-0.59375-0.0522461
			l0.0703125-0.2148438h6.1494141l-0.5839844,1.9921875h-0.2226563c0.0429688-0.2397461,0.0644531-0.4375,0.0644531-0.5922852
			c0-0.2553711-0.0712891-0.4580078-0.2138672-0.6069336c-0.1416016-0.1489258-0.3242188-0.2548828-0.5458984-0.3168945
			c-0.15625-0.0385742-0.5048828-0.0581055-1.046875-0.0581055H483.4121094z"/>
		<path d="M495.0605469,123.6337891c0.1914063,0.2016602,0.3349609,0.402832,0.4326172,0.6044922
			c0.0703125,0.1391602,0.1855469,0.5053711,0.3447266,1.0976563l0.5146484-0.7666016
			c0.1367188-0.1860352,0.3017578-0.3632813,0.4970703-0.5317383c0.1943359-0.168457,0.3662109-0.2836914,0.5146484-0.3457031
			c0.0927734-0.0385742,0.1962891-0.0581055,0.3095703-0.0581055c0.1669922,0,0.3007813,0.0449219,0.4003906,0.1337891
			s0.1494141,0.1972656,0.1494141,0.3251953c0,0.1474609-0.0292969,0.2480469-0.0878906,0.3022461
			c-0.109375,0.0966797-0.234375,0.1450195-0.3740234,0.1450195c-0.0820313,0-0.1699219-0.0170898-0.2636719-0.0522461
			c-0.1826172-0.0620117-0.3056641-0.0927734-0.3681641-0.0927734c-0.09375,0-0.2041016,0.0541992-0.3330078,0.1625977
			c-0.2421875,0.2011719-0.5302734,0.5908203-0.8652344,1.1674805l0.4794922,1.9980469
			c0.0742188,0.3066406,0.1357422,0.4892578,0.1865234,0.5488281c0.0507813,0.0605469,0.1015625,0.0908203,0.1523438,0.0908203
			c0.0820313,0,0.1777344-0.0449219,0.2861328-0.1337891c0.2148438-0.1777344,0.3974609-0.4101563,0.5498047-0.6972656
			l0.2050781,0.1044922c-0.2460938,0.4570313-0.5576172,0.8369141-0.9355469,1.1386719
			c-0.2148438,0.1699219-0.3955078,0.2558594-0.5439453,0.2558594c-0.2177734,0-0.3916016-0.1220703-0.5205078-0.3662109
			c-0.0810547-0.1513672-0.2509766-0.8017578-0.5078125-1.9511719c-0.6083984,1.0488281-1.0957031,1.7246094-1.4619141,2.0263672
			c-0.2373047,0.1943359-0.4677734,0.2910156-0.6894531,0.2910156c-0.15625,0-0.2988281-0.0566406-0.4267578-0.1689453
			c-0.09375-0.0849609-0.140625-0.1992188-0.140625-0.3427734c0-0.1279297,0.0429688-0.234375,0.1289063-0.3193359
			s0.1904297-0.1279297,0.3154297-0.1279297s0.2568359,0.0625,0.3974609,0.1865234
			c0.1015625,0.0888672,0.1796875,0.1328125,0.2333984,0.1328125c0.046875,0,0.1074219-0.0302734,0.1816406-0.0927734
			c0.1835938-0.1464844,0.4326172-0.4648438,0.7480469-0.9521484c0.3154297-0.4882813,0.5224609-0.8408203,0.6201172-1.0576172
			c-0.2421875-0.940918-0.3720703-1.4384766-0.3916016-1.4926758c-0.0898438-0.2519531-0.2070313-0.4301758-0.3505859-0.534668
			c-0.1445313-0.1044922-0.3574219-0.1567383-0.6376953-0.1567383c-0.0898438,0-0.1933594,0.0039063-0.3095703,0.0117188v-0.2094727
			L495.0605469,123.6337891z"/>
	</g>
</g>
<g>
	<g>
		<path d="M720.6171875,131.2202148v0.2148438c-0.5888672-0.2939453-1.0800781-0.6386719-1.4736328-1.0332031
			c-0.5605469-0.5615234-0.9931641-1.2246094-1.2978516-1.9873047c-0.3037109-0.7626953-0.4550781-1.5546875-0.4550781-2.375
			c0-1.2011719,0.2978516-2.2958984,0.8935547-3.2856445c0.5966797-0.9892578,1.3740234-1.6972656,2.3330078-2.1230469v0.2436523
			c-0.4794922,0.2636719-0.8730469,0.6235352-1.1806641,1.0805664c-0.3085938,0.4570313-0.5380859,1.0361328-0.6904297,1.7368164
			c-0.1513672,0.7011719-0.2275391,1.4331055-0.2275391,2.1958008c0,0.8295898,0.0644531,1.5825195,0.1923828,2.2602539
			c0.1015625,0.5341797,0.2246094,0.9628906,0.3691406,1.2861328c0.1435547,0.3232422,0.3378906,0.6337891,0.5810547,0.9326172
			C719.9052734,130.6645508,720.2236328,130.949707,720.6171875,131.2202148z"/>
		<path d="M727.6308594,120.8745117v-0.2436523c0.5927734,0.2900391,1.0859375,0.6328125,1.4794922,1.027832
			c0.5566406,0.5654297,0.9873047,1.2290039,1.2919922,1.9897461c0.3037109,0.7612305,0.4560547,1.5537109,0.4560547,2.3793945
			c0,1.2001953-0.2978516,2.2949219-0.8916016,3.2841797c-0.5947266,0.9892578-1.3730469,1.6972656-2.3359375,2.1230469v-0.2148438
			c0.4794922-0.2666016,0.8740234-0.6279297,1.1845703-1.0830078c0.3095703-0.4550781,0.5390625-1.0341797,0.6894531-1.7373047
			c0.1494141-0.7021484,0.2246094-1.4355469,0.2246094-2.1982422c0-0.8251953-0.0634766-1.578125-0.1923828-2.2597656
			c-0.0976563-0.534668-0.2197266-0.9624023-0.3652344-1.2836914c-0.1464844-0.3217773-0.3408203-0.6313477-0.5820313-0.9296875
			C728.3486328,121.4306641,728.0283203,121.1459961,727.6308594,120.8745117z"/>
	</g>
	<g>
		<path d="M714.2753906,123.7734375l-0.1044922,0.3833008h-0.8535156l-0.6435547,2.5390625
			c-0.2841797,1.1191406-0.5712891,1.984375-0.859375,2.5957031c-0.4091797,0.8642578-0.8496094,1.4599609-1.3212891,1.7900391
			c-0.3583984,0.2509766-0.7167969,0.3769531-1.0751953,0.3769531c-0.234375,0-0.4326172-0.0693359-0.5966797-0.2089844
			c-0.1201172-0.0966797-0.1806641-0.2226563-0.1806641-0.3779297c0-0.1240234,0.0498047-0.2314453,0.1484375-0.3222656
			c0.0996094-0.0908203,0.2216797-0.1367188,0.3652344-0.1367188c0.1054688,0,0.1943359,0.0332031,0.2666016,0.0996094
			c0.0722656,0.0654297,0.1083984,0.140625,0.1083984,0.2265625c0,0.0849609-0.0410156,0.1640625-0.1230469,0.2373047
			c-0.0625,0.0546875-0.09375,0.0957031-0.09375,0.1220703c0,0.0351563,0.0136719,0.0625,0.0410156,0.0820313
			c0.0351563,0.0263672,0.0898438,0.0400391,0.1640625,0.0400391c0.1669922,0,0.34375-0.0517578,0.5283203-0.15625
			c0.1855469-0.1044922,0.3505859-0.2607422,0.4941406-0.4677734c0.1445313-0.2070313,0.28125-0.5068359,0.4091797-0.8974609
			c0.0546875-0.1630859,0.2011719-0.6992188,0.4384766-1.609375l1.0175781-3.9326172h-1.0175781l0.0820313-0.3833008
			c0.3232422,0,0.5498047-0.0224609,0.6777344-0.0668945c0.1289063-0.0444336,0.2470703-0.1298828,0.3544922-0.2553711
			c0.1064453-0.1259766,0.2460938-0.3613281,0.4179688-0.7060547c0.2294922-0.4648438,0.4492188-0.824707,0.6601563-1.0805664
			c0.2880859-0.3447266,0.5908203-0.6030273,0.9091797-0.7753906c0.3173828-0.1723633,0.6162109-0.2583008,0.8974609-0.2583008
			c0.2958984,0,0.5332031,0.0742188,0.7128906,0.2236328c0.1787109,0.1489258,0.2685547,0.3105469,0.2685547,0.4848633
			c0,0.1357422-0.0449219,0.25-0.1337891,0.3427734c-0.0898438,0.0927734-0.2050781,0.1391602-0.3457031,0.1391602
			c-0.1201172,0-0.21875-0.034668-0.2949219-0.1044922c-0.0761719-0.0693359-0.1142578-0.152832-0.1142578-0.2495117
			c0-0.0620117,0.0253906-0.1386719,0.0761719-0.2294922s0.0761719-0.1518555,0.0761719-0.1831055
			c0-0.0541992-0.0175781-0.0947266-0.0527344-0.1220703c-0.0507813-0.0385742-0.125-0.0581055-0.2216797-0.0581055
			c-0.2460938,0-0.4658203,0.0776367-0.6611328,0.2324219c-0.2607422,0.2055664-0.4951172,0.5268555-0.7011719,0.9643555
			c-0.1054688,0.2285156-0.2978516,0.7958984-0.5791016,1.7021484H714.2753906z"/>
		<path d="M723.8388672,123.6337891c0.1914063,0.2016602,0.3349609,0.402832,0.4326172,0.6044922
			c0.0703125,0.1391602,0.1855469,0.5053711,0.3447266,1.0976563l0.5146484-0.7666016
			c0.1367188-0.1860352,0.3017578-0.3632813,0.4970703-0.5317383c0.1943359-0.168457,0.3662109-0.2836914,0.5146484-0.3457031
			c0.0927734-0.0385742,0.1962891-0.0581055,0.3095703-0.0581055c0.1669922,0,0.3007813,0.0449219,0.4003906,0.1337891
			s0.1494141,0.1972656,0.1494141,0.3251953c0,0.1474609-0.0292969,0.2480469-0.0878906,0.3022461
			c-0.109375,0.0966797-0.234375,0.1450195-0.3740234,0.1450195c-0.0820313,0-0.1699219-0.0170898-0.2636719-0.0522461
			c-0.1826172-0.0620117-0.3056641-0.0927734-0.3681641-0.0927734c-0.09375,0-0.2041016,0.0541992-0.3330078,0.1625977
			c-0.2421875,0.2011719-0.5302734,0.5908203-0.8652344,1.1674805l0.4794922,1.9980469
			c0.0742188,0.3066406,0.1357422,0.4892578,0.1865234,0.5488281c0.0507813,0.0605469,0.1015625,0.0908203,0.1523438,0.0908203
			c0.0820313,0,0.1777344-0.0449219,0.2861328-0.1337891c0.2148438-0.1777344,0.3974609-0.4101563,0.5498047-0.6972656
			l0.2050781,0.1044922c-0.2460938,0.4570313-0.5576172,0.8369141-0.9355469,1.1386719
			c-0.2148438,0.1699219-0.3955078,0.2558594-0.5439453,0.2558594c-0.2177734,0-0.3916016-0.1220703-0.5205078-0.3662109
			c-0.0810547-0.1513672-0.2509766-0.8017578-0.5078125-1.9511719c-0.6083984,1.0488281-1.0957031,1.7246094-1.4619141,2.0263672
			c-0.2373047,0.1943359-0.4677734,0.2910156-0.6894531,0.2910156c-0.15625,0-0.2988281-0.0566406-0.4267578-0.1689453
			c-0.09375-0.0849609-0.140625-0.1992188-0.140625-0.3427734c0-0.1279297,0.0429688-0.234375,0.1289063-0.3193359
			s0.1904297-0.1279297,0.3154297-0.1279297s0.2568359,0.0625,0.3974609,0.1865234
			c0.1015625,0.0888672,0.1796875,0.1328125,0.2333984,0.1328125c0.046875,0,0.1074219-0.0302734,0.1816406-0.0927734
			c0.1835938-0.1464844,0.4326172-0.4648438,0.7480469-0.9521484c0.3154297-0.4882813,0.5224609-0.8408203,0.6201172-1.0576172
			c-0.2421875-0.940918-0.3720703-1.4384766-0.3916016-1.4926758c-0.0898438-0.2519531-0.2070313-0.4301758-0.3505859-0.534668
			c-0.1445313-0.1044922-0.3574219-0.1567383-0.6376953-0.1567383c-0.0898438,0-0.1933594,0.0039063-0.3095703,0.0117188v-0.2094727
			L723.8388672,123.6337891z"/>
	</g>
</g>
<g>
	<g>
		<path d="M544.8232422,179.4785156c-0.2607422,0.2734375-0.5166016,0.4697266-0.765625,0.5888672
			c-0.25,0.1191406-0.5185547,0.1787109-0.8076172,0.1787109c-0.5849609,0-1.0957031-0.2451172-1.5322266-0.7353516
			c-0.4365234-0.4912109-0.6552734-1.1210938-0.6552734-1.8916016c0-0.7700195,0.2421875-1.4746094,0.7255859-2.1137695
			s1.1054688-0.9584961,1.8652344-0.9584961c0.4726563,0,0.8623047,0.1503906,1.1699219,0.4511719v-0.9907227
			c0-0.6137695-0.0146484-0.9912109-0.0439453-1.1318359c-0.0283203-0.140625-0.0742188-0.2363281-0.1367188-0.2871094
			s-0.140625-0.0766602-0.234375-0.0766602c-0.1015625,0-0.2363281,0.0317383-0.4033203,0.0942383l-0.0761719-0.2055664
			l1.5966797-0.6567383h0.2636719v6.2094727c0,0.6298828,0.0146484,1.0136719,0.0439453,1.1523438
			s0.0751953,0.2353516,0.1396484,0.2900391c0.0644531,0.0556641,0.1396484,0.0830078,0.2255859,0.0830078
			c0.1054688,0,0.2451172-0.0332031,0.4208984-0.1005859l0.0644531,0.2060547l-1.5908203,0.6621094h-0.2695313V179.4785156z
			 M544.8232422,179.0673828v-2.7675781c-0.0234375-0.265625-0.0927734-0.5078125-0.2099609-0.7270508
			c-0.1171875-0.21875-0.2724609-0.3837891-0.4648438-0.4956055c-0.1933594-0.1113281-0.3818359-0.1669922-0.5644531-0.1669922
			c-0.34375,0-0.6494141,0.1547852-0.9189453,0.4633789c-0.3544922,0.4067383-0.5322266,1.0004883-0.5322266,1.7827148
			c0,0.7890625,0.171875,1.3945313,0.5146484,1.8144531c0.34375,0.4208984,0.7255859,0.6308594,1.1464844,0.6308594
			C544.1494141,179.6015625,544.4921875,179.4238281,544.8232422,179.0673828z"/>
	</g>
	<g>
		<path d="M553.2421875,180.1074219l-0.6699219,2.3769531c-0.0449219,0.1601563-0.0673828,0.2568359-0.0673828,0.2880859
			c0,0.0361328,0.0107422,0.0654297,0.0322266,0.0878906s0.046875,0.0341797,0.0761719,0.0341797
			c0.0341797,0,0.0742188-0.0185547,0.1220703-0.0546875c0.1279297-0.1015625,0.2578125-0.2460938,0.3886719-0.4335938
			l0.1181641,0.078125c-0.1533203,0.2353516-0.3339844,0.4326172-0.5410156,0.5927734
			c-0.1533203,0.1201172-0.2998047,0.1796875-0.4394531,0.1796875c-0.0927734,0-0.1679688-0.0273438-0.2265625-0.0830078
			c-0.0585938-0.0546875-0.0878906-0.125-0.0878906-0.2080078c0-0.0839844,0.0283203-0.2226563,0.0839844-0.4169922
			l0.4394531-1.5185547c0.0722656-0.2490234,0.1083984-0.4052734,0.1083984-0.4677734
			c0-0.0498047-0.0175781-0.0908203-0.0517578-0.1220703c-0.0351563-0.0322266-0.0830078-0.0478516-0.1445313-0.0478516
			c-0.0488281,0-0.1513672,0.0126953-0.3076172,0.0371094v-0.1318359L553.2421875,180.1074219z M553.1982422,178.7617188
			c0.0947266,0,0.1748047,0.0332031,0.2402344,0.0986328s0.0976563,0.1455078,0.0976563,0.2402344
			c0,0.0927734-0.0332031,0.1728516-0.0996094,0.2392578s-0.1455078,0.1005859-0.2382813,0.1005859
			s-0.171875-0.0341797-0.2382813-0.1005859s-0.0996094-0.1464844-0.0996094-0.2392578
			c0-0.0947266,0.0322266-0.1748047,0.0976563-0.2402344S553.1035156,178.7617188,553.1982422,178.7617188z"/>
	</g>
	<g>
		<path d="M548.7255859,174.7753906c0.1914063,0.203125,0.3359375,0.4067383,0.4335938,0.6098633
			c0.0693359,0.140625,0.1845703,0.5102539,0.3447266,1.1083984l0.5146484-0.7744141
			c0.1367188-0.1875,0.3017578-0.3662109,0.4970703-0.5361328c0.1953125-0.1704102,0.3662109-0.2866211,0.5146484-0.3491211
			c0.09375-0.0390625,0.1972656-0.0585938,0.3105469-0.0585938c0.1669922,0,0.3007813,0.0449219,0.4003906,0.1347656
			s0.1494141,0.1992188,0.1494141,0.3286133c0,0.1484375-0.0292969,0.25-0.0878906,0.3046875
			c-0.109375,0.0976563-0.234375,0.1464844-0.3740234,0.1464844c-0.0820313,0-0.1699219-0.0175781-0.2636719-0.0527344
			c-0.1835938-0.0625-0.3066406-0.09375-0.3681641-0.09375c-0.09375,0-0.2050781,0.0546875-0.3339844,0.1640625
			c-0.2412109,0.2036133-0.5302734,0.5961914-0.8652344,1.1787109l0.4794922,2.0170898
			c0.0742188,0.3085938,0.1367188,0.4941406,0.1875,0.5546875c0.0498047,0.0605469,0.1005859,0.0908203,0.1513672,0.0908203
			c0.0820313,0,0.1777344-0.0449219,0.2871094-0.1357422c0.2138672-0.1796875,0.3974609-0.4140625,0.5498047-0.703125
			l0.2041016,0.1054688c-0.2451172,0.4609375-0.5576172,0.8447266-0.9355469,1.1494141
			c-0.2148438,0.171875-0.3955078,0.2578125-0.5439453,0.2578125c-0.21875,0-0.3916016-0.1230469-0.5205078-0.3691406
			c-0.0820313-0.1523438-0.2519531-0.8095703-0.5087891-1.9707031c-0.6083984,1.0595703-1.0957031,1.7421875-1.4628906,2.046875
			c-0.2373047,0.1953125-0.4677734,0.2929688-0.6904297,0.2929688c-0.1552734,0-0.2978516-0.0566406-0.4267578-0.1699219
			c-0.09375-0.0859375-0.140625-0.2011719-0.140625-0.3457031c0-0.1289063,0.0429688-0.2363281,0.1289063-0.3232422
			c0.0859375-0.0859375,0.1914063-0.1289063,0.3164063-0.1289063c0.1240234,0,0.2568359,0.0625,0.3974609,0.1884766
			c0.1015625,0.0898438,0.1796875,0.1347656,0.234375,0.1347656c0.046875,0,0.1064453-0.03125,0.1806641-0.09375
			c0.1835938-0.1494141,0.4335938-0.4697266,0.7490234-0.9619141c0.3164063-0.4931641,0.5224609-0.8486328,0.6201172-1.0673828
			c-0.2421875-0.949707-0.3720703-1.4521484-0.3916016-1.5068359c-0.0898438-0.2543945-0.2070313-0.434082-0.3515625-0.5395508
			c-0.1435547-0.1054688-0.3564453-0.1582031-0.6376953-0.1582031c-0.0898438,0-0.1923828,0.0039063-0.3095703,0.0117188v-0.2114258
			L548.7255859,174.7753906z"/>
	</g>
</g>
<g>
	<g>
		<path d="M580.7373047,150.1870117v0.3291016c-1.0068359-0.6621094-1.7910156-1.6328125-2.3525391-2.9130859
			s-0.8417969-2.6806641-0.8417969-4.203125c0-1.5830078,0.2949219-3.0244141,0.8857422-4.3251953
			c0.5898438-1.300293,1.359375-2.2304688,2.3085938-2.7905273v0.3208008
			c-0.4746094,0.3461914-0.8642578,0.8193359-1.1689453,1.4199219s-0.5322266,1.362793-0.6826172,2.2866211
			s-0.2255859,1.887207-0.2255859,2.8901367c0,1.1347656,0.0693359,2.1601563,0.2080078,3.0771484
			c0.1386719,0.9160156,0.3515625,1.6757813,0.6367188,2.2783203
			C579.7900391,149.1606445,580.2011719,149.7036133,580.7373047,150.1870117z"/>
	</g>
	<g>
		<path d="M591.9892578,136.6049805v-0.3208008c1.0068359,0.6567383,1.7910156,1.625,2.3525391,2.9052734
			c0.5615234,1.2797852,0.8417969,2.6811523,0.8417969,4.2026367c0,1.5830078-0.2949219,3.0263672-0.8857422,4.3291016
			c-0.5898438,1.3027344-1.359375,2.234375-2.3085938,2.7949219v-0.3291016
			c0.4785156-0.3457031,0.8701172-0.8193359,1.1748047-1.4199219s0.53125-1.3613281,0.6796875-2.2822266
			c0.1484375-0.921875,0.2226563-1.8857422,0.2226563-2.8945313c0-1.1293945-0.0683594-2.1538086-0.2050781-3.0727539
			c-0.1367188-0.918457-0.3496094-1.6796875-0.6367188-2.2827148S592.5253906,137.0883789,591.9892578,136.6049805z"/>
	</g>
	<g>
		<path d="M543.96875,145.6655273c-0.2617188,0.2724609-0.5175781,0.4677734-0.7685547,0.5859375
			c-0.25,0.1181641-0.5195313,0.1777344-0.8085938,0.1777344c-0.5869141,0-1.0996094-0.2441406-1.5371094-0.7314453
			c-0.4384766-0.4873047-0.6572266-1.1142578-0.6572266-1.8798828c0-0.7651367,0.2421875-1.4658203,0.7275391-2.1010742
			c0.484375-0.6352539,1.1083984-0.953125,1.8710938-0.953125c0.4726563,0,0.8642578,0.1499023,1.1728516,0.4487305v-0.9848633
			c0-0.6098633-0.0146484-0.9848633-0.0439453-1.125c-0.0292969-0.1396484-0.0751953-0.2348633-0.1376953-0.2856445
			c-0.0625-0.050293-0.140625-0.0756836-0.234375-0.0756836c-0.1015625,0-0.2373047,0.03125-0.4052734,0.0932617
			l-0.0761719-0.2041016l1.6015625-0.652832h0.2636719v6.1733398c0,0.625,0.0146484,1.0068359,0.0439453,1.1445313
			c0.0292969,0.1386719,0.0761719,0.234375,0.140625,0.2890625c0.0654297,0.0537109,0.140625,0.0810547,0.2265625,0.0810547
			c0.1054688,0,0.2460938-0.0332031,0.421875-0.0986328l0.0644531,0.2041016l-1.5947266,0.6582031H543.96875V145.6655273z
			 M543.96875,145.2573242v-2.7509766c-0.0234375-0.2641602-0.09375-0.5048828-0.2109375-0.7226563
			c-0.1171875-0.2172852-0.2724609-0.3818359-0.4658203-0.4921875c-0.1943359-0.1108398-0.3828125-0.1665039-0.5664063-0.1665039
			c-0.34375,0-0.6513672,0.1538086-0.9208984,0.4604492c-0.3564453,0.4042969-0.5341797,0.9951172-0.5341797,1.7724609
			c0,0.7851563,0.171875,1.3857422,0.5166016,1.8037109c0.34375,0.4179688,0.7275391,0.6269531,1.1494141,0.6269531
			C543.2919922,145.7885742,543.6367188,145.6118164,543.96875,145.2573242z"/>
		<path d="M601.1845703,145.6655273c-0.2617188,0.2724609-0.5175781,0.4677734-0.7675781,0.5859375
			c-0.2509766,0.1181641-0.5205078,0.1777344-0.8095703,0.1777344c-0.5869141,0-1.0986328-0.2441406-1.5371094-0.7314453
			c-0.4375-0.4873047-0.6572266-1.1142578-0.6572266-1.8798828c0-0.7651367,0.2431641-1.4658203,0.7275391-2.1010742
			c0.4853516-0.6352539,1.1083984-0.953125,1.8710938-0.953125c0.4736328,0,0.8642578,0.1499023,1.1728516,0.4487305v-0.9848633
			c0-0.6098633-0.0146484-0.9848633-0.0439453-1.125c-0.0292969-0.1396484-0.0751953-0.2348633-0.1376953-0.2856445
			c-0.0625-0.050293-0.140625-0.0756836-0.234375-0.0756836c-0.1015625,0-0.2363281,0.03125-0.4042969,0.0932617
			l-0.0761719-0.2041016l1.6005859-0.652832h0.2646484v6.1733398c0,0.625,0.0146484,1.0068359,0.0439453,1.1445313
			c0.0292969,0.1386719,0.0761719,0.234375,0.140625,0.2890625c0.0644531,0.0537109,0.1396484,0.0810547,0.2255859,0.0810547
			c0.1054688,0,0.2460938-0.0332031,0.421875-0.0986328l0.0654297,0.2041016l-1.5957031,0.6582031h-0.2705078V145.6655273z
			 M601.1845703,145.2573242v-2.7509766c-0.0234375-0.2641602-0.09375-0.5048828-0.2109375-0.7226563
			c-0.1171875-0.2172852-0.2724609-0.3818359-0.4658203-0.4921875C600.3144531,141.1806641,600.125,141.125,599.9414063,141.125
			c-0.34375,0-0.6513672,0.1538086-0.9208984,0.4604492c-0.3554688,0.4042969-0.5332031,0.9951172-0.5332031,1.7724609
			c0,0.7851563,0.171875,1.3857422,0.515625,1.8037109s0.7275391,0.6269531,1.1494141,0.6269531
			C600.5087891,145.7885742,600.8525391,145.6118164,601.1845703,145.2573242z"/>
	</g>
	<g>
		<path d="M553.5673828,146.2866211l-0.6708984,2.3623047c-0.0458984,0.1591797-0.0683594,0.2548828-0.0683594,0.2861328
			c0,0.0361328,0.0107422,0.0654297,0.0322266,0.0878906s0.046875,0.0341797,0.0761719,0.0341797
			c0.0341797,0,0.0751953-0.0185547,0.1220703-0.0546875c0.1289063-0.1005859,0.2587891-0.2441406,0.390625-0.4306641
			l0.1181641,0.0771484c-0.1533203,0.2333984-0.3339844,0.4306641-0.5419922,0.5898438
			c-0.1542969,0.1191406-0.3007813,0.1787109-0.4414063,0.1787109c-0.0927734,0-0.1679688-0.0273438-0.2265625-0.0830078
			c-0.0595703-0.0546875-0.0888672-0.1240234-0.0888672-0.2070313s0.0283203-0.2207031,0.0849609-0.4140625l0.4414063-1.5097656
			c0.0722656-0.2470703,0.1083984-0.4023438,0.1083984-0.4648438c0-0.0498047-0.0175781-0.0898438-0.0527344-0.1220703
			c-0.0351563-0.03125-0.0830078-0.046875-0.1445313-0.046875c-0.0498047,0-0.1523438,0.0126953-0.3085938,0.0371094v-0.1318359
			L553.5673828,146.2866211z M553.5234375,144.9487305c0.0947266,0,0.1748047,0.0332031,0.2412109,0.0976563
			c0.0654297,0.0654297,0.0976563,0.1455078,0.0976563,0.2392578c0,0.0927734-0.0332031,0.171875-0.0996094,0.2382813
			s-0.1464844,0.0986328-0.2392578,0.0986328s-0.171875-0.0322266-0.2392578-0.0986328
			c-0.0664063-0.0664063-0.0996094-0.1455078-0.0996094-0.2382813c0-0.09375,0.0322266-0.1738281,0.0986328-0.2392578
			C553.3486328,144.9819336,553.4287109,144.9487305,553.5234375,144.9487305z"/>
		<path d="M589.1943359,146.2866211l-0.671875,2.3623047c-0.0449219,0.1591797-0.0673828,0.2548828-0.0673828,0.2861328
			c0,0.0361328,0.0097656,0.0654297,0.0322266,0.0878906c0.0205078,0.0224609,0.046875,0.0341797,0.0761719,0.0341797
			c0.0332031,0,0.0742188-0.0185547,0.1220703-0.0546875c0.1289063-0.1005859,0.2587891-0.2441406,0.3896484-0.4306641
			l0.1191406,0.0771484c-0.1542969,0.2333984-0.3349609,0.4306641-0.5429688,0.5898438
			c-0.1542969,0.1191406-0.3007813,0.1787109-0.4404297,0.1787109c-0.0927734,0-0.1689453-0.0273438-0.2275391-0.0830078
			c-0.0585938-0.0546875-0.0878906-0.1240234-0.0878906-0.2070313s0.0273438-0.2207031,0.0839844-0.4140625l0.4414063-1.5097656
			c0.0722656-0.2470703,0.1083984-0.4023438,0.1083984-0.4648438c0-0.0498047-0.0175781-0.0898438-0.0527344-0.1220703
			c-0.0351563-0.03125-0.0830078-0.046875-0.1435547-0.046875c-0.0498047,0-0.1533203,0.0126953-0.3085938,0.0371094v-0.1318359
			L589.1943359,146.2866211z M589.1494141,144.9487305c0.0957031,0,0.1757813,0.0332031,0.2412109,0.0976563
			c0.0654297,0.0654297,0.0986328,0.1455078,0.0986328,0.2392578c0,0.0927734-0.0341797,0.171875-0.1005859,0.2382813
			s-0.1464844,0.0986328-0.2392578,0.0986328s-0.171875-0.0322266-0.2382813-0.0986328
			c-0.0673828-0.0664063-0.1005859-0.1455078-0.1005859-0.2382813c0-0.09375,0.0332031-0.1738281,0.0986328-0.2392578
			C588.9746094,144.9819336,589.0546875,144.9487305,589.1494141,144.9487305z"/>
		<path d="M609.6181641,146.2866211l-0.671875,2.3623047c-0.0449219,0.1591797-0.0673828,0.2548828-0.0673828,0.2861328
			c0,0.0361328,0.0097656,0.0654297,0.0322266,0.0878906c0.0205078,0.0224609,0.046875,0.0341797,0.0761719,0.0341797
			c0.0332031,0,0.0742188-0.0185547,0.1220703-0.0546875c0.1289063-0.1005859,0.2587891-0.2441406,0.3896484-0.4306641
			l0.1191406,0.0771484c-0.1542969,0.2333984-0.3349609,0.4306641-0.5429688,0.5898438
			c-0.1542969,0.1191406-0.3007813,0.1787109-0.4404297,0.1787109c-0.0927734,0-0.1689453-0.0273438-0.2275391-0.0830078
			c-0.0585938-0.0546875-0.0878906-0.1240234-0.0878906-0.2070313s0.0273438-0.2207031,0.0839844-0.4140625l0.4414063-1.5097656
			c0.0722656-0.2470703,0.1083984-0.4023438,0.1083984-0.4648438c0-0.0498047-0.0175781-0.0898438-0.0527344-0.1220703
			c-0.0351563-0.03125-0.0830078-0.046875-0.1435547-0.046875c-0.0498047,0-0.1533203,0.0126953-0.3085938,0.0371094v-0.1318359
			L609.6181641,146.2866211z M609.5732422,144.9487305c0.0957031,0,0.1757813,0.0332031,0.2412109,0.0976563
			c0.0654297,0.0654297,0.0986328,0.1455078,0.0986328,0.2392578c0,0.0927734-0.0341797,0.171875-0.1005859,0.2382813
			s-0.1464844,0.0986328-0.2392578,0.0986328s-0.171875-0.0322266-0.2382813-0.0986328
			c-0.0673828-0.0664063-0.1005859-0.1455078-0.1005859-0.2382813c0-0.09375,0.0332031-0.1738281,0.0986328-0.2392578
			C609.3984375,144.9819336,609.4785156,144.9487305,609.5732422,144.9487305z"/>
	</g>
	<g>
		<path d="M549.7128906,138.7822266l-0.9384766,3.1298828h1.0439453c0.4697266,0,0.8203125-0.0717773,1.0527344-0.2158203
			c0.2324219-0.1435547,0.4726563-0.4506836,0.71875-0.9208984H551.8125l-0.8271484,2.8793945h-0.234375
			c0.0585938-0.2324219,0.0878906-0.425293,0.0878906-0.5771484c0-0.2368164-0.0791016-0.4204102-0.2373047-0.5507813
			c-0.1582031-0.1298828-0.4550781-0.1953125-0.8886719-0.1953125h-1.0556641l-0.6923828,2.3837891
			c-0.125,0.4238281-0.1875,0.7060547-0.1875,0.8457031c0,0.1435547,0.0537109,0.2539063,0.1611328,0.3320313
			s0.3701172,0.1298828,0.7890625,0.1572266l-0.0703125,0.2158203h-3.1445313l0.0771484-0.2158203
			c0.3046875-0.0078125,0.5078125-0.0351563,0.609375-0.0810547c0.15625-0.0664063,0.2714844-0.1552734,0.3466797-0.2685547
			c0.1054688-0.1591797,0.2304688-0.4873047,0.375-0.9853516l1.4013672-4.7617188
			c0.1142578-0.3847656,0.1708984-0.6855469,0.1708984-0.9033203c0-0.1010742-0.0253906-0.1875-0.0761719-0.2592773
			c-0.0517578-0.0722656-0.1269531-0.1254883-0.2265625-0.1606445c-0.0996094-0.034668-0.2978516-0.0522461-0.5947266-0.0522461
			l0.0703125-0.2158203h6.1699219L553.25,140.3618164h-0.2226563c0.0429688-0.2412109,0.0644531-0.4394531,0.0644531-0.5947266
			c0-0.2563477-0.0722656-0.4594727-0.2148438-0.6088867c-0.1425781-0.1499023-0.3251953-0.2558594-0.5478516-0.3178711
			c-0.15625-0.0385742-0.5068359-0.0581055-1.0498047-0.0581055H549.7128906z"/>
		<path d="M573.2939453,141.1308594l-0.1054688,0.3847656h-0.8564453l-0.6455078,2.5473633
			c-0.2851563,1.1230469-0.5722656,1.9912109-0.8623047,2.6054688c-0.4101563,0.8662109-0.8525391,1.4648438-1.3251953,1.7949219
			c-0.359375,0.2529297-0.7197266,0.3789063-1.0791016,0.3789063c-0.234375,0-0.4345703-0.0693359-0.5986328-0.2099609
			c-0.1210938-0.0966797-0.1816406-0.2236328-0.1816406-0.3789063c0-0.1240234,0.0498047-0.2324219,0.1494141-0.3232422
			c0.0996094-0.0917969,0.2216797-0.1367188,0.3671875-0.1367188c0.1054688,0,0.1943359,0.0332031,0.2666016,0.0986328
			c0.0722656,0.0664063,0.1083984,0.1416016,0.1083984,0.2275391c0,0.0849609-0.0410156,0.1650391-0.1230469,0.2392578
			c-0.0625,0.0537109-0.09375,0.0947266-0.09375,0.1220703c0,0.0351563,0.0136719,0.0625,0.0410156,0.0820313
			c0.0351563,0.0263672,0.0898438,0.0400391,0.1640625,0.0400391c0.1679688,0,0.3447266-0.0517578,0.53125-0.1572266
			c0.1855469-0.1044922,0.3505859-0.2607422,0.4951172-0.46875s0.28125-0.5087891,0.4101563-0.9003906
			c0.0556641-0.1630859,0.2021484-0.7021484,0.4404297-1.6152344l1.0205078-3.9458008h-1.0205078l0.0820313-0.3847656
			c0.3242188,0,0.5517578-0.0219727,0.6806641-0.0668945c0.1289063-0.0444336,0.2470703-0.1298828,0.3544922-0.2563477
			s0.2470703-0.3623047,0.4199219-0.7084961c0.2304688-0.4663086,0.4511719-0.8276367,0.6621094-1.0839844
			c0.2900391-0.3457031,0.59375-0.6049805,0.9121094-0.7783203c0.3193359-0.1728516,0.6191406-0.2592773,0.9003906-0.2592773
			c0.2978516,0,0.5361328,0.0751953,0.7158203,0.2246094c0.1806641,0.1494141,0.2705078,0.3120117,0.2705078,0.4868164
			c0,0.1357422-0.0449219,0.2504883-0.1347656,0.34375s-0.2060547,0.1396484-0.3466797,0.1396484
			c-0.1210938,0-0.2197266-0.034668-0.2958984-0.1044922c-0.0771484-0.0703125-0.1152344-0.1538086-0.1152344-0.2509766
			c0-0.0620117,0.0253906-0.1386719,0.0761719-0.2299805s0.0771484-0.152832,0.0771484-0.1835938
			c0-0.0546875-0.0175781-0.0952148-0.0527344-0.1225586c-0.0517578-0.0385742-0.1259766-0.0581055-0.2236328-0.0581055
			c-0.2460938,0-0.4667969,0.0776367-0.6621094,0.2329102c-0.2626953,0.2060547-0.4970703,0.5288086-0.7041016,0.9677734
			c-0.1054688,0.2290039-0.2998047,0.7983398-0.5810547,1.7075195H573.2939453z"/>
		<path d="M584.6669922,140.9912109c0.1914063,0.2021484,0.3369141,0.4042969,0.4345703,0.605957
			c0.0703125,0.1401367,0.1855469,0.5073242,0.3457031,1.1015625l0.5166016-0.769043
			c0.1367188-0.1865234,0.3027344-0.3642578,0.4980469-0.5336914c0.1953125-0.1689453,0.3681641-0.2841797,0.5166016-0.3466797
			c0.09375-0.0385742,0.1972656-0.0581055,0.3105469-0.0581055c0.1679688,0,0.3017578,0.0444336,0.4023438,0.1337891
			c0.0996094,0.0898438,0.1494141,0.1982422,0.1494141,0.3266602c0,0.1474609-0.0292969,0.2485352-0.0878906,0.3032227
			c-0.1103516,0.097168-0.2353516,0.1455078-0.3759766,0.1455078c-0.0820313,0-0.1699219-0.0175781-0.2636719-0.0522461
			c-0.1835938-0.0625-0.3076172-0.0932617-0.3701172-0.0932617c-0.09375,0-0.2050781,0.0541992-0.3339844,0.1630859
			c-0.2421875,0.2021484-0.53125,0.5927734-0.8681641,1.1713867l0.4814453,2.0048828
			c0.0742188,0.3076172,0.1367188,0.4912109,0.1875,0.5507813c0.0507813,0.0605469,0.1015625,0.0908203,0.1523438,0.0908203
			c0.0820313,0,0.1777344-0.0449219,0.2871094-0.1337891c0.2158203-0.1787109,0.3994141-0.4121094,0.5517578-0.7001953
			l0.2050781,0.1054688c-0.2460938,0.4580078-0.5585938,0.8388672-0.9384766,1.1425781
			c-0.2148438,0.1708984-0.3964844,0.2558594-0.5449219,0.2558594c-0.2197266,0-0.3935547-0.1220703-0.5224609-0.3671875
			c-0.0820313-0.1513672-0.2519531-0.8037109-0.5107422-1.9580078c-0.609375,1.0527344-1.0986328,1.7304688-1.4658203,2.0341797
			c-0.2382813,0.1943359-0.4697266,0.2910156-0.6923828,0.2910156c-0.15625,0-0.2988281-0.0556641-0.4277344-0.1689453
			c-0.09375-0.0849609-0.140625-0.2001953-0.140625-0.34375c0-0.1279297,0.0429688-0.2353516,0.1289063-0.3203125
			c0.0859375-0.0859375,0.1914063-0.1289063,0.3164063-0.1289063s0.2578125,0.0625,0.3984375,0.1865234
			c0.1025391,0.0898438,0.1806641,0.1347656,0.2353516,0.1347656c0.046875,0,0.1074219-0.03125,0.1816406-0.09375
			c0.1835938-0.1474609,0.4335938-0.4658203,0.7509766-0.9560547c0.3164063-0.4892578,0.5234375-0.8427734,0.6210938-1.0605469
			c-0.2421875-0.9443359-0.3730469-1.4433594-0.3925781-1.4980469c-0.0898438-0.2524414-0.2070313-0.4311523-0.3515625-0.5361328
			c-0.1455078-0.1049805-0.3583984-0.1572266-0.6396484-0.1572266c-0.0898438,0-0.1933594,0.0039063-0.3105469,0.0117188v-0.2099609
			L584.6669922,140.9912109z"/>
		<path d="M605.0869141,140.9912109c0.1914063,0.2021484,0.3369141,0.4042969,0.4345703,0.605957
			c0.0703125,0.1401367,0.1855469,0.5073242,0.3457031,1.1015625l0.5166016-0.769043
			c0.1367188-0.1865234,0.3027344-0.3642578,0.4980469-0.5336914c0.1953125-0.1689453,0.3681641-0.2841797,0.5166016-0.3466797
			c0.09375-0.0385742,0.1972656-0.0581055,0.3105469-0.0581055c0.1679688,0,0.3017578,0.0444336,0.4023438,0.1337891
			c0.0996094,0.0898438,0.1494141,0.1982422,0.1494141,0.3266602c0,0.1474609-0.0292969,0.2485352-0.0878906,0.3032227
			c-0.1103516,0.097168-0.2353516,0.1455078-0.3759766,0.1455078c-0.0820313,0-0.1699219-0.0175781-0.2636719-0.0522461
			c-0.1835938-0.0625-0.3076172-0.0932617-0.3701172-0.0932617c-0.09375,0-0.2050781,0.0541992-0.3339844,0.1630859
			c-0.2421875,0.2021484-0.53125,0.5927734-0.8681641,1.1713867l0.4814453,2.0048828
			c0.0742188,0.3076172,0.1367188,0.4912109,0.1875,0.5507813c0.0507813,0.0605469,0.1015625,0.0908203,0.1523438,0.0908203
			c0.0820313,0,0.1777344-0.0449219,0.2871094-0.1337891c0.2158203-0.1787109,0.3994141-0.4121094,0.5517578-0.7001953
			l0.2050781,0.1054688c-0.2460938,0.4580078-0.5585938,0.8388672-0.9384766,1.1425781
			c-0.2148438,0.1708984-0.3964844,0.2558594-0.5449219,0.2558594c-0.2197266,0-0.3935547-0.1220703-0.5224609-0.3671875
			c-0.0820313-0.1513672-0.2519531-0.8037109-0.5107422-1.9580078c-0.609375,1.0527344-1.0986328,1.7304688-1.4658203,2.0341797
			c-0.2382813,0.1943359-0.4697266,0.2910156-0.6923828,0.2910156c-0.15625,0-0.2988281-0.0556641-0.4277344-0.1689453
			c-0.09375-0.0849609-0.140625-0.2001953-0.140625-0.34375c0-0.1279297,0.0429688-0.2353516,0.1289063-0.3203125
			c0.0859375-0.0859375,0.1914063-0.1289063,0.3164063-0.1289063s0.2578125,0.0625,0.3984375,0.1865234
			c0.1025391,0.0898438,0.1806641,0.1347656,0.2353516,0.1347656c0.046875,0,0.1074219-0.03125,0.1816406-0.09375
			c0.1835938-0.1474609,0.4335938-0.4658203,0.7509766-0.9560547c0.3164063-0.4892578,0.5234375-0.8427734,0.6210938-1.0605469
			c-0.2421875-0.9443359-0.3730469-1.4433594-0.3925781-1.4980469c-0.0898438-0.2524414-0.2070313-0.4311523-0.3515625-0.5361328
			c-0.1455078-0.1049805-0.3583984-0.1572266-0.6396484-0.1572266c-0.0898438,0-0.1933594,0.0039063-0.3105469,0.0117188v-0.2099609
			L605.0869141,140.9912109z"/>
	</g>
	<g>
		<path d="M558.3203125,141.8422852h6.1591797v0.5654297h-6.1591797V141.8422852z M558.3203125,144.0161133h6.1591797v0.5771484
			h-6.1591797V144.0161133z"/>
	</g>
</g>
<g>
	<g>
		<path d="M773.9570313,243.7744141c-0.2607422,0.2734375-0.5166016,0.4697266-0.765625,0.5888672
			c-0.25,0.1191406-0.5185547,0.1787109-0.8076172,0.1787109c-0.5849609,0-1.0957031-0.2451172-1.5322266-0.7353516
			c-0.4365234-0.4912109-0.6552734-1.1210938-0.6552734-1.8916016c0-0.7700195,0.2421875-1.4746094,0.7255859-2.1137695
			s1.1054688-0.9584961,1.8652344-0.9584961c0.4726563,0,0.8623047,0.1503906,1.1699219,0.4511719v-0.9907227
			c0-0.6137695-0.0146484-0.9912109-0.0439453-1.1318359c-0.0283203-0.140625-0.0742188-0.2363281-0.1367188-0.2871094
			s-0.140625-0.0766602-0.234375-0.0766602c-0.1015625,0-0.2363281,0.0317383-0.4033203,0.0942383l-0.0761719-0.2055664
			l1.5966797-0.6567383h0.2636719v6.2094727c0,0.6298828,0.0146484,1.0136719,0.0439453,1.1523438
			s0.0751953,0.2353516,0.1396484,0.2900391c0.0644531,0.0556641,0.1396484,0.0830078,0.2255859,0.0830078
			c0.1054688,0,0.2451172-0.0332031,0.4208984-0.1005859l0.0644531,0.2060547l-1.5908203,0.6621094h-0.2695313V243.7744141z
			 M773.9570313,243.3632813v-2.7675781c-0.0234375-0.265625-0.0927734-0.5078125-0.2099609-0.7270508
			c-0.1171875-0.21875-0.2724609-0.3837891-0.4648438-0.4956055c-0.1933594-0.1113281-0.3818359-0.1669922-0.5644531-0.1669922
			c-0.34375,0-0.6494141,0.1547852-0.9189453,0.4633789c-0.3544922,0.4067383-0.5322266,1.0004883-0.5322266,1.7827148
			c0,0.7890625,0.171875,1.3945313,0.5146484,1.8144531c0.34375,0.4208984,0.7255859,0.6308594,1.1464844,0.6308594
			C773.2832031,243.8974609,773.6259766,243.7197266,773.9570313,243.3632813z"/>
	</g>
	<g>
		<path d="M782.3759766,244.4033203l-0.6699219,2.3769531c-0.0449219,0.1601563-0.0673828,0.2568359-0.0673828,0.2880859
			c0,0.0361328,0.0107422,0.0654297,0.0322266,0.0878906s0.046875,0.0341797,0.0761719,0.0341797
			c0.0341797,0,0.0742188-0.0185547,0.1220703-0.0546875c0.1279297-0.1015625,0.2578125-0.2460938,0.3886719-0.4335938
			l0.1181641,0.078125c-0.1533203,0.2353516-0.3339844,0.4326172-0.5410156,0.5927734
			c-0.1533203,0.1201172-0.2998047,0.1796875-0.4394531,0.1796875c-0.0927734,0-0.1679688-0.0273438-0.2265625-0.0830078
			c-0.0585938-0.0546875-0.0878906-0.125-0.0878906-0.2080078c0-0.0839844,0.0283203-0.2226563,0.0839844-0.4169922
			l0.4394531-1.5185547c0.0722656-0.2490234,0.1083984-0.4052734,0.1083984-0.4677734
			c0-0.0498047-0.0175781-0.0908203-0.0517578-0.1220703c-0.0351563-0.0322266-0.0830078-0.0478516-0.1445313-0.0478516
			c-0.0488281,0-0.1513672,0.0126953-0.3076172,0.0371094V244.59375L782.3759766,244.4033203z M782.3320313,243.0576172
			c0.0947266,0,0.1748047,0.0332031,0.2402344,0.0986328s0.0976563,0.1455078,0.0976563,0.2402344
			c0,0.0927734-0.0332031,0.1728516-0.0996094,0.2392578s-0.1455078,0.1005859-0.2382813,0.1005859
			s-0.171875-0.0341797-0.2382813-0.1005859s-0.0996094-0.1464844-0.0996094-0.2392578
			c0-0.0947266,0.0322266-0.1748047,0.0976563-0.2402344S782.2373047,243.0576172,782.3320313,243.0576172z"/>
	</g>
	<g>
		<path d="M777.859375,239.0712891c0.1914063,0.203125,0.3359375,0.4067383,0.4335938,0.6098633
			c0.0693359,0.140625,0.1845703,0.5102539,0.3447266,1.1083984l0.5146484-0.7744141
			c0.1367188-0.1875,0.3017578-0.3662109,0.4970703-0.5361328c0.1953125-0.1704102,0.3662109-0.2866211,0.5146484-0.3491211
			c0.09375-0.0390625,0.1972656-0.0585938,0.3105469-0.0585938c0.1669922,0,0.3007813,0.0449219,0.4003906,0.1347656
			s0.1494141,0.1992188,0.1494141,0.3286133c0,0.1484375-0.0292969,0.25-0.0878906,0.3046875
			c-0.109375,0.0976563-0.234375,0.1464844-0.3740234,0.1464844c-0.0820313,0-0.1699219-0.0175781-0.2636719-0.0527344
			c-0.1835938-0.0625-0.3066406-0.09375-0.3681641-0.09375c-0.09375,0-0.2050781,0.0546875-0.3339844,0.1640625
			c-0.2412109,0.2036133-0.5302734,0.5961914-0.8652344,1.1787109l0.4794922,2.0170898
			c0.0742188,0.3085938,0.1367188,0.4941406,0.1875,0.5546875c0.0498047,0.0605469,0.1005859,0.0908203,0.1513672,0.0908203
			c0.0820313,0,0.1777344-0.0449219,0.2871094-0.1357422c0.2138672-0.1796875,0.3974609-0.4140625,0.5498047-0.703125
			l0.2041016,0.1054688c-0.2451172,0.4609375-0.5576172,0.8447266-0.9355469,1.1494141
			c-0.2148438,0.171875-0.3955078,0.2578125-0.5439453,0.2578125c-0.21875,0-0.3916016-0.1230469-0.5205078-0.3691406
			c-0.0820313-0.1523438-0.2519531-0.8095703-0.5087891-1.9707031c-0.6083984,1.0595703-1.0957031,1.7421875-1.4628906,2.046875
			c-0.2373047,0.1953125-0.4677734,0.2929688-0.6904297,0.2929688c-0.1552734,0-0.2978516-0.0566406-0.4267578-0.1699219
			c-0.09375-0.0859375-0.140625-0.2011719-0.140625-0.3457031c0-0.1289063,0.0429688-0.2363281,0.1289063-0.3232422
			c0.0859375-0.0859375,0.1914063-0.1289063,0.3164063-0.1289063c0.1240234,0,0.2568359,0.0625,0.3974609,0.1884766
			c0.1015625,0.0898438,0.1796875,0.1347656,0.234375,0.1347656c0.046875,0,0.1064453-0.03125,0.1806641-0.09375
			c0.1835938-0.1494141,0.4335938-0.4697266,0.7490234-0.9619141c0.3164063-0.4931641,0.5224609-0.8486328,0.6201172-1.0673828
			c-0.2421875-0.949707-0.3720703-1.4521484-0.3916016-1.5068359c-0.0898438-0.2543945-0.2070313-0.434082-0.3515625-0.5395508
			c-0.1435547-0.1054688-0.3564453-0.1582031-0.6376953-0.1582031c-0.0898438,0-0.1923828,0.0039063-0.3095703,0.0117188v-0.2114258
			L777.859375,239.0712891z"/>
	</g>
</g>
</svg>
