<?xml version="1.0" encoding="utf-8"?>
<!-- Generator: Adobe Illustrator 19.0.0, SVG Export Plug-In . SVG Version: 6.00 Build 0)  -->
<svg version="1.1" id="Layer_1" xmlns="http://www.w3.org/2000/svg" xmlns:xlink="http://www.w3.org/1999/xlink" x="0px" y="0px"
	 viewBox="111.6908417 290.4966125 254.0594635 82.0086594"
	 style="enable-background:new 111.6908417 290.4966125 254.0594635 82.0086594;" xml:space="preserve">
<style type="text/css">
	.st0{fill:#17ADE4;}
	.st1{fill:none;stroke:#262626;stroke-linecap:square;stroke-linejoin:round;stroke-miterlimit:10;}
	.st2{fill:none;stroke:#231F20;stroke-linejoin:round;stroke-miterlimit:10;}
</style>
<g>
	<polyline class="st0" points="132.9375,358.6511841 135.249115,358.2102356 139.413147,356.3123169 142.1670532,354.1904602 
		144.3790588,352.0337524 146.635788,349.4489746 148.626236,346.881897 151.3047791,343.0419922 154.0005341,338.8267822 
		156.3038025,335.0065613 159.1896667,330.0366821 161.6781006,325.6773987 163.4964752,322.4975891 165.5168762,319.0108032 
		167.5297089,315.6313477 169.3556671,312.67453 171.6589355,309.1483154 173.5968323,306.3973694 176.2654724,302.9748535 
		179.3365021,299.6660461 182.4075317,297.1144409 184.7108002,295.7416992 188.0687866,294.6266174 191.2462463,294.5552368 
		194.6915894,295.559967 197.762619,297.3893127 201.6014099,300.8226929 204.3218079,303.9562073 206.6514282,307.0346069 
		209.2789612,310.8803711 210.8144836,313.2852173 212.8886108,316.680542 214.6532593,319.6673584 216.1887817,322.3209229 
		217.7242889,325.0041809 218.9264069,327.1131287 220.7953186,330.383728 222.3308411,333.0420227 223.866333,335.6542969 
		225.9737854,339.1287842 227.9268036,342.2011108 229.7556763,344.9164734 231.3303528,347.1082764 233.4268341,349.7850342 
		235.3826904,352.0133057 238.0330811,354.5496521 240.3378906,356.282959 242.2924957,357.3897095 244.5957642,358.2322998 
		248,358.6511841 250.7378235,358.006897 254.227951,356.282959 257.9358826,353.2745361 260.7186584,350.2913513 
		263.0219421,347.3977356 266.0929565,343.0326843 268.3962402,339.4460754 270.4611511,336.0526123 272.2350159,333.0420227 
		274.1239929,329.76651 276.0737915,326.3510132 278.0218811,322.9403992 279.9125671,319.6673584 281.9522095,316.2225342 
		284.1338501,312.6797791 286.0546265,309.7183228 287.9559021,306.9769287 289.5772705,304.8018188 291.4289246,302.5227966 
		293.7321472,300.039978 296.8032227,297.3893127 299.1065063,295.9370728 302.1775208,294.7588806 305.2485046,294.4761963 
		308.3195801,295.0970154 311.1516724,296.4612732 313.6938782,298.2905579 316.3252869,300.7698669 318.5844116,303.3207092 
		320.8051758,306.1733398 322.9069519,309.1483154 325.0048523,312.3528748 326.745697,315.1510925 328.732605,318.473938 
		330.5845337,321.6540222 331.8008423,323.7738342 333.6555176,327.0246277 335.1910706,329.7141418 337.2007141,333.1957397 
		339.0298157,336.2980042 340.7693787,339.1544495 342.565033,341.9839783 345.1718445,345.8235168 347.4751282,348.8889771 
		349.0106201,350.7380676 351.0770874,352.9494324 353.1757202,354.8531189 355.9204712,356.7834778 358.2237244,357.8732605 
		360.5270081,358.465332 362.4375,358.6511841 282.75,358.5785522 235.3125,358.6511841 204.25,358.5785522 176,358.5785522 
		132.5033417,358.5785522 133.2711029,358.5502319 134.0388641,358.465332 134.8066101,358.3240356 135.5743713,358.1265869 
		136.3421326,357.8732605 137.1098785,357.5646362 137.8776398,357.2011414 138.645401,356.7834778 139.413147,356.3123169 
		140.1809082,355.7886047 140.9486694,355.2131653 141.7164307,354.5870056 142.4841766,353.9113464 143.2519379,353.1873169 
		144.0196991,352.4161377 144.7874451,351.5992126 145.5552063,350.7380676 146.3229675,349.8340759 147.0907135,348.8889771 
		147.8584747,347.9043274 148.626236,346.881897 149.3939819,345.8235168 150.1617432,344.7310486 150.9295044,343.6064453 
		151.6972504,342.4516602 152.4650116,341.2687073 153.2327728,340.0596924 154.0005341,338.8267822 154.76828,337.5721741 
		155.5360413,336.2980042 156.3038025,335.0065613 157.0715485,333.7001343 157.8393097,332.3810425 158.6070709,331.0515747 
		159.3748322,329.7141418 160.1425781,328.3710327 160.9103394,327.0246277 161.6781006,325.6773987 162.4458618,324.3316345 
		163.2136078,322.9897156 163.981369,321.6540222 164.7491302,320.3269348 165.5168762,319.0108032 166.2846375,317.7079163 
		167.0523987,316.4205933 167.8201447,315.1510925 168.5879059,313.9017029 169.3556671,312.67453 170.1234131,311.4718933 
		170.8911743,310.2957458 171.6589355,309.1483154 172.4266815,308.0315552 173.1944427,306.9474487 173.962204,305.8978882 
		174.72995,304.8847351 175.4977112,303.9098206 176.2654724,302.9748535 177.0331879,302.0814209 177.8009796,301.2311401 
		178.5687408,300.4255371 179.3365021,299.6660461 180.1042175,298.9539795 180.8720093,298.2905579 181.6397705,297.677063 
		182.4075317,297.1144409 183.1752777,296.6037292 183.9430389,296.1459351 184.7108002,295.7416992 185.4785156,295.3918762 
		186.2463074,295.0970154 187.0140686,294.8576355 187.7818298,294.6741638 188.5495453,294.5469666 189.317337,294.4761963 
		190.0850983,294.4620667 190.8528137,294.5045166 191.6205597,294.6035156 192.3883667,294.7588806 193.1561127,294.9703369 
		193.9238281,295.2375488 194.6915894,295.559967 195.4593506,295.9370728 196.2271423,296.3681641 196.994873,296.8525391 
		197.762619,297.3893127 198.530426,297.9775085 199.2981415,298.6160889 200.0658875,299.3039856 200.8336945,300.039978 
		201.6014099,300.8226929 202.3691559,301.6507874 203.1369019,302.5227966 203.9046783,303.4372559 204.6724243,304.392395 
		205.4401855,305.3866272 206.2079468,306.4182129 206.9756927,307.4852905 207.743454,308.585968 208.5112152,309.7183228 
		209.2789612,310.8803711 210.0467224,312.0700073 210.8144836,313.2852173 211.5822296,314.5237122 212.3499908,315.7834473 
		213.1177521,317.0621643 213.8855133,318.3575439 214.6532593,319.6673584 215.4210205,320.9892578 216.1887817,322.3209229 
		216.9565277,323.6600037 217.7242889,325.0041809 218.4920502,326.3510132 219.2597961,327.6981201 220.0275574,329.0431519 
		220.7953186,330.383728 221.5630646,331.7174683 222.3308411,333.0420227 223.098587,334.3551025 223.866333,335.6542969 
		224.6341095,336.9373779 225.4018555,338.2020874 226.1696014,339.4460754 226.9373779,340.6672974 227.7051239,341.8635559 
		228.4728851,343.0326843 229.2406464,344.1726685 230.0083923,345.2814331 230.7761536,346.3570862 231.5439148,347.3977356 
		232.3116608,348.4014587 233.079422,349.3665771 233.8471832,350.2913513 234.6149292,351.1741028 235.3826904,352.0133057 
		236.1504517,352.8074951 236.9182129,353.5552673 237.6859589,354.2553101 238.4537201,354.9063416 239.2214813,355.5072632 
		239.9892273,356.0569763 240.7569885,356.5545349 241.5247498,356.9990234 242.2924957,357.3897095 243.060257,357.7258301 
		243.8280182,358.006897 244.5957642,358.2322998 245.3635406,358.4017334 246.1312866,358.5148621 246.8990326,358.5714417 
		247.6668091,358.5714417 248.4345551,358.5148621 249.202301,358.4017334 249.9700775,358.2322998 250.7378235,358.006897 
		251.5055847,357.7258301 252.2733459,357.3897095 253.0410919,356.9990234 253.8088531,356.5545349 254.5766144,356.0569763 
		255.3443604,355.5072632 256.1121216,354.9063416 256.8798828,354.2553101 257.647644,353.5552673 258.4154053,352.8074951 
		259.183136,352.0133057 259.9508972,351.1741028 260.7186584,350.2913513 261.4864197,349.3665771 262.2541809,348.4014587 
		263.0219421,347.3977356 263.7896729,346.3570862 264.5574341,345.2814331 265.3251953,344.1726685 266.0929565,343.0326843 
		266.8607178,341.8635559 267.628479,340.6672974 268.3962402,339.4460754 269.1639709,338.2020874 269.9317322,336.9373779 
		270.6994934,335.6542969 271.4672546,334.3551025 272.2350159,333.0420227 273.0027771,331.7174683 273.7705383,330.383728 
		274.5382996,329.0431519 275.3060303,327.6981201 276.0737915,326.3510132 276.8415527,325.0041809 277.609314,323.6600037 
		278.3770752,322.3209229 279.1448364,320.9892578 279.9125671,319.6673584 280.6803284,318.3575439 281.4480896,317.0621643 
		282.2158508,315.7834473 282.9836121,314.5237122 283.7513733,313.2852173 284.519104,312.0700073 285.2868652,310.8803711 
		286.0546265,309.7183228 286.8223877,308.585968 287.5901489,307.4852905 288.3579102,306.4182129 289.1256409,305.3866272 
		289.8934021,304.392395 290.6611633,303.4372559 291.4289246,302.5227966 292.1966858,301.6507874 292.964447,300.8226929 
		293.7321472,300.039978 294.499939,299.3039856 295.2677002,298.6160889 296.0354309,297.9775085 296.8032227,297.3893127 
		297.5709839,296.8525391 298.3386841,296.3681641 299.1065063,295.9370728 299.8742371,295.559967 300.6419678,295.2375488 
		301.4097595,294.9703369 302.1775208,294.7588806 302.9452209,294.6035156 303.7130432,294.5045166 304.4807739,294.4620667 
		305.2485046,294.4761963 306.0162964,294.5469666 306.7840576,294.6741638 307.5517578,294.8576355 308.3195801,295.0970154 
		309.0873108,295.3918762 309.855072,295.7416992 310.6228027,296.1459351 311.390625,296.6037292 312.1583252,297.1144409 
		312.9260559,297.677063 313.6938782,298.2905579 314.4616089,298.9539795 315.2293396,299.6660461 315.9971619,300.4255371 
		316.7648621,301.2311401 317.5325928,302.0814209 318.300415,302.9748535 319.0681458,303.9098206 319.8358765,304.8847351 
		320.6036987,305.8978882 321.3713989,306.9474487 322.1391296,308.0315552 322.9069519,309.1483154 323.6746826,310.2957458 
		324.4424438,311.4718933 325.2101746,312.67453 325.9779968,313.9017029 326.745697,315.1510925 327.5134583,316.4205933 
		328.2812195,317.7079163 329.0489807,319.0108032 329.8167114,320.3269348 330.5845337,321.6540222 331.3522339,322.9897156 
		332.1199951,324.3316345 332.8877563,325.6773987 333.6555176,327.0246277 334.4232483,328.3710327 335.1910706,329.7141418 
		335.9587708,331.0515747 336.726532,332.3810425 337.4942932,333.7001343 338.2620544,335.0065613 339.0298157,336.2980042 
		339.7975464,337.5721741 340.5653076,338.8267822 341.3330688,340.0596924 342.1008301,341.2687073 342.8685913,342.4516602 
		343.6363525,343.6064453 344.4040833,344.7310486 345.1718445,345.8235168 345.9396057,346.881897 346.7073669,347.9043274 
		347.4751282,348.8889771 348.2428894,349.8340759 349.0106201,350.7380676 349.7783813,351.5992126 350.5461426,352.4161377 
		351.3139038,353.1873169 352.081665,353.9113464 352.8494263,354.5870056 353.617157,355.2131653 354.3849182,355.7886047 
		355.1526794,356.3123169 355.9204712,356.7834778 356.6882019,357.2011414 357.4559631,357.5646362 358.2237244,357.8732605 
		358.9914551,358.1265869 359.7592163,358.3240356 360.5270081,358.465332 361.2947388,358.5502319 362.0625,358.5785522 	"/>
</g>
<g>
	<g>
		<path d="M362.4316406,362.5639648l-2.0048828,6.9628906c-0.0976563,0.3476563-0.1464844,0.5595703-0.1464844,0.6376953
			c0,0.0585938,0.0180664,0.1074219,0.0556641,0.1464844c0.0371094,0.0390625,0.0830078,0.0585938,0.1376953,0.0585938
			c0.0742188,0,0.1542969-0.0332031,0.2402344-0.0996094c0.203125-0.1601563,0.4160156-0.4072266,0.6396484-0.7431641
			l0.1757813,0.1816406c-0.3720703,0.5224609-0.7138672,0.8867188-1.0263672,1.09375
			c-0.230957,0.1484375-0.449707,0.2226563-0.6567383,0.2226563c-0.1484375,0-0.2724609-0.0507813-0.3720703-0.1523438
			s-0.1494141-0.21875-0.1494141-0.3505859c0-0.140625,0.0620117-0.4296875,0.1875-0.8662109l1.5883789-5.4887695
			c0.1298828-0.4482422,0.1943359-0.7060547,0.1943359-0.7724609c0-0.0932617-0.0371094-0.1704102-0.1113281-0.230957
			c-0.0751953-0.0605469-0.1904297-0.0908203-0.3466797-0.0908203c-0.0898438,0-0.2265625,0.0136719-0.4101563,0.0410156v-0.2163086
			L362.4316406,362.5639648z"/>
	</g>
</g>
<g>
	<g>
		<path d="M245.3911133,366.9643555c0-0.9052734,0.1362305-1.6845703,0.4086914-2.3378906s0.6347656-1.1401367,1.0864258-1.4599609
			c0.3500977-0.253418,0.7124023-0.3803711,1.0859375-0.3803711c0.6079102,0,1.152832,0.3100586,1.6352539,0.9301758
			c0.6035156,0.7685547,0.9052734,1.8100586,0.9052734,3.125c0,0.9208984-0.1328125,1.7021484-0.3974609,2.3457031
			c-0.2646484,0.6445313-0.6025391,1.1113281-1.0126953,1.4013672c-0.4111328,0.2910156-0.8071289,0.4365234-1.1884766,0.4365234
			c-0.7553711,0-1.3842773-0.4472656-1.8862305-1.3398438C245.6035156,368.9321289,245.3911133,368.0249023,245.3911133,366.9643555
			z M246.5356445,367.1098633c0,1.0927734,0.1342773,1.984375,0.402832,2.6748047
			c0.222168,0.5810547,0.5532227,0.8710938,0.9931641,0.8710938c0.2099609,0,0.4277344-0.09375,0.6542969-0.2832031
			c0.2255859-0.1894531,0.3964844-0.5068359,0.5136719-0.9511719c0.1787109-0.6708984,0.2685547-1.6171875,0.2685547-2.8378906
			c0-0.9047852-0.09375-1.659668-0.2802734-2.2641602c-0.140625-0.4487305-0.3212891-0.7666016-0.5429688-0.9541016
			c-0.1601563-0.128418-0.3525391-0.1928711-0.5786133-0.1928711c-0.2646484,0-0.5,0.1191406-0.706543,0.3569336
			c-0.2802734,0.3237305-0.4711914,0.8330078-0.5722656,1.5273438S246.5356445,366.4355469,246.5356445,367.1098633z"/>
	</g>
</g>
<g>
	<g>
		<path d="M138.050293,362.5639648l-2.0048828,6.9628906c-0.0976563,0.3476563-0.1464844,0.5595703-0.1464844,0.6376953
			c0,0.0585938,0.0185547,0.1074219,0.0556641,0.1464844s0.0830078,0.0585938,0.1376953,0.0585938
			c0.0742188,0,0.1542969-0.0332031,0.2402344-0.0996094c0.203125-0.1601563,0.4160156-0.4072266,0.6386719-0.7431641
			l0.1757813,0.1816406c-0.3710938,0.5224609-0.7128906,0.8867188-1.0253906,1.09375
			c-0.2304688,0.1484375-0.4492188,0.2226563-0.65625,0.2226563c-0.1494141,0-0.2734375-0.0507813-0.3730469-0.1523438
			s-0.1494141-0.21875-0.1494141-0.3505859c0-0.140625,0.0625-0.4296875,0.1875-0.8662109l1.5888672-5.4887695
			c0.1289063-0.4482422,0.1933594-0.7060547,0.1933594-0.7724609c0-0.0932617-0.0371094-0.1704102-0.1113281-0.230957
			s-0.1894531-0.0908203-0.3457031-0.0908203c-0.0898438,0-0.2265625,0.0136719-0.4101563,0.0410156v-0.2163086
			L138.050293,362.5639648z"/>
	</g>
	<g>
		<path d="M128.1264648,367.5141602h6.1552734v0.5791016h-6.1552734V367.5141602z"/>
	</g>
</g>
<g>
	<g>
		<path d="M121.0473633,356.7626953c0-0.9052734,0.1362305-1.6845703,0.4086914-2.3378906s0.6347656-1.1401367,1.0864258-1.4599609
			c0.3500977-0.253418,0.7124023-0.3803711,1.0859375-0.3803711c0.6079102,0,1.152832,0.3100586,1.6352539,0.9301758
			c0.6035156,0.7685547,0.9052734,1.8100586,0.9052734,3.125c0,0.9208984-0.1328125,1.7021484-0.3974609,2.3457031
			c-0.2646484,0.6445313-0.6025391,1.1113281-1.0126953,1.4013672c-0.4111328,0.2910156-0.8071289,0.4365234-1.1884766,0.4365234
			c-0.7553711,0-1.3842773-0.4472656-1.8862305-1.3398438C121.2597656,358.7304688,121.0473633,357.8232422,121.0473633,356.7626953
			z M122.1918945,356.9082031c0,1.0927734,0.1342773,1.984375,0.402832,2.6748047
			c0.222168,0.5810547,0.5532227,0.8710938,0.9931641,0.8710938c0.2099609,0,0.4277344-0.09375,0.6542969-0.2832031
			c0.2255859-0.1894531,0.3964844-0.5068359,0.5136719-0.9511719c0.1787109-0.6708984,0.2685547-1.6171875,0.2685547-2.8378906
			c0-0.9047852-0.09375-1.659668-0.2802734-2.2641602c-0.140625-0.4487305-0.3212891-0.7666016-0.5429688-0.9541016
			c-0.1601563-0.128418-0.3525391-0.1928711-0.5786133-0.1928711c-0.2646484,0-0.5,0.1191406-0.706543,0.3569336
			c-0.2802734,0.3237305-0.4711914,0.8330078-0.5722656,1.5273438S122.1918945,356.2338867,122.1918945,356.9082031z"/>
	</g>
</g>
<g>
	<g>
		<path d="M114.3271484,326.8066406c0-0.9052734,0.137207-1.6845703,0.4116211-2.3378906
			c0.2739258-0.6533203,0.6381836-1.1401367,1.0927734-1.4599609c0.3525391-0.253418,0.7163086-0.3803711,1.0927734-0.3803711
			c0.6108398,0,1.1591797,0.3100586,1.6450195,0.9301758c0.6069336,0.7685547,0.9106445,1.8100586,0.9106445,3.125
			c0,0.9208984-0.1333008,1.7021484-0.3999023,2.3457031c-0.2661133,0.6445313-0.605957,1.1113281-1.019043,1.4013672
			c-0.4135742,0.2910156-0.8120117,0.4365234-1.1958008,0.4365234c-0.7597656,0-1.3920898-0.4472656-1.8974609-1.3398438
			C114.5405273,328.7744141,114.3271484,327.8671875,114.3271484,326.8066406z M115.4790039,326.9521484
			c0,1.0927734,0.1347656,1.984375,0.4052734,2.6748047c0.2231445,0.5810547,0.5561523,0.8710938,0.9985352,0.8710938
			c0.2114258,0,0.4311523-0.09375,0.6582031-0.2832031s0.3994141-0.5068359,0.5170898-0.9511719
			c0.1801758-0.6708984,0.2700195-1.6171875,0.2700195-2.8378906c0-0.9047852-0.09375-1.659668-0.2817383-2.2641602
			c-0.1411133-0.4487305-0.3232422-0.7666016-0.5463867-0.9541016c-0.1606445-0.128418-0.3544922-0.1928711-0.581543-0.1928711
			c-0.2666016,0-0.503418,0.1191406-0.7109375,0.3569336c-0.2822266,0.3237305-0.4741211,0.8330078-0.5761719,1.5273438
			C115.5297852,325.5932617,115.4790039,326.277832,115.4790039,326.9521484z"/>
		<path d="M121.4121094,329.5917969c0.1845703,0,0.3398438,0.0634766,0.4648438,0.1894531
			c0.125,0.1269531,0.1875,0.2802734,0.1875,0.4599609c0,0.1787109-0.0625,0.3320313-0.1904297,0.4589844
			s-0.28125,0.1904297-0.4619141,0.1904297c-0.1796875,0-0.3334961-0.0634766-0.4604492-0.1904297
			c-0.1274414-0.1269531-0.190918-0.2802734-0.190918-0.4589844c0-0.1835938,0.0634766-0.3378906,0.190918-0.4628906
			C121.0786133,329.6542969,121.2324219,329.5917969,121.4121094,329.5917969z"/>
		<path d="M128.1396484,322.7924805l-0.4580078,0.9946289h-2.3974609l-0.5224609,1.0649414
			c1.0380859,0.1518555,1.8603516,0.5361328,2.4677734,1.1523438c0.5205078,0.5307617,0.78125,1.1547852,0.78125,1.8725586
			c0,0.4179688-0.0849609,0.8037109-0.2558594,1.1582031c-0.1699219,0.3554688-0.3847656,0.6582031-0.6435547,0.9072266
			c-0.2578125,0.25-0.5458984,0.4501953-0.8632813,0.6025391c-0.4501953,0.2148438-0.9121094,0.3222656-1.3867188,0.3222656
			c-0.4775391,0-0.8251953-0.0810547-1.0429688-0.2431641c-0.2167969-0.1621094-0.3251953-0.3398438-0.3251953-0.5351563
			c0-0.109375,0.0449219-0.2060547,0.1347656-0.2900391s0.203125-0.125,0.3408203-0.125
			c0.1015625,0,0.1904297,0.015625,0.2675781,0.0458984c0.0761719,0.03125,0.2060547,0.1113281,0.390625,0.2402344
			c0.2929688,0.203125,0.5908203,0.3046875,0.8925781,0.3046875c0.4580078,0,0.8603516-0.1728516,1.2070313-0.5185547
			c0.3466797-0.3447266,0.5205078-0.7646484,0.5205078-1.2607422c0-0.4794922-0.1552734-0.9267578-0.4638672-1.3427734
			c-0.3095703-0.4150391-0.7373047-0.7363281-1.28125-0.9624023c-0.4267578-0.1757813-1.0087891-0.2768555-1.7451172-0.3041992
			l1.5273438-3.0834961H128.1396484z"/>
	</g>
</g>
<g>
	<g>
		<path d="M122.0224609,293.2519531l1.9345703-0.9365234h0.1933594v6.659668c0,0.4423828,0.0185547,0.7177734,0.0556641,0.8261719
			s0.1142578,0.1923828,0.2314453,0.25c0.1171875,0.0585938,0.3554688,0.0917969,0.7148438,0.0996094v0.2148438h-2.9892578
			v-0.2148438c0.375-0.0078125,0.6171875-0.0400391,0.7265625-0.0966797
			c0.109375-0.0556641,0.1860352-0.1318359,0.2290039-0.2265625s0.0644531-0.3789063,0.0644531-0.8525391v-4.2573242
			c0-0.5737305-0.0195313-0.9423828-0.0585938-1.1049805c-0.0273438-0.1240234-0.0771484-0.215332-0.1494141-0.2734375
			c-0.0727539-0.0581055-0.159668-0.0874023-0.2612305-0.0874023c-0.1445313,0-0.3457031,0.0600586-0.6035156,0.1801758
			L122.0224609,293.2519531z"/>
	</g>
</g>
<g>
	<line class="st1" x1="132.6908417" y1="358.6148682" x2="362.25" y2="358.6148682"/>
	<line class="st1" x1="132.6908417" y1="294.4966125" x2="362.25" y2="294.4966125"/>
	<line class="st1" x1="132.6908417" y1="358.6148682" x2="132.6908417" y2="356.3192749"/>
	<line class="st1" x1="190.0806274" y1="358.6148682" x2="190.0806274" y2="356.3192749"/>
	<line class="st1" x1="247.4704285" y1="358.6148682" x2="247.4704285" y2="356.3192749"/>
	<line class="st1" x1="304.860199" y1="358.6148682" x2="304.860199" y2="356.3192749"/>
	<line class="st1" x1="362.25" y1="358.6148682" x2="362.25" y2="356.3192749"/>
	<line class="st1" x1="132.6908417" y1="294.4966125" x2="132.6908417" y2="296.7922058"/>
	<line class="st1" x1="190.0806274" y1="294.4966125" x2="190.0806274" y2="296.7922058"/>
	<line class="st1" x1="247.4704285" y1="294.4966125" x2="247.4704285" y2="296.7922058"/>
	<line class="st1" x1="304.860199" y1="294.4966125" x2="304.860199" y2="296.7922058"/>
	<line class="st1" x1="362.25" y1="294.4966125" x2="362.25" y2="296.7922058"/>
</g>
<g>
	<line class="st1" x1="132.6908417" y1="358.6148682" x2="132.6908417" y2="294.4966125"/>
	<line class="st1" x1="362.25" y1="358.6148682" x2="362.25" y2="294.4966125"/>
	<line class="st1" x1="132.6908417" y1="358.6148682" x2="134.9864349" y2="358.6148682"/>
	<line class="st1" x1="132.6908417" y1="326.5557251" x2="134.9864349" y2="326.5557251"/>
	<line class="st1" x1="132.6908417" y1="294.4966125" x2="134.9864349" y2="294.4966125"/>
	<line class="st1" x1="362.25" y1="358.6148682" x2="359.9544067" y2="358.6148682"/>
	<line class="st1" x1="362.25" y1="326.5557251" x2="359.9544067" y2="326.5557251"/>
	<line class="st1" x1="362.25" y1="294.4966125" x2="359.9544067" y2="294.4966125"/>
</g>
<g>
	<path class="st2" d="M132.6908417,358.6148682l0.7677612-0.0283203l0.7677612-0.0848694l0.767746-0.1413269l0.7677612-0.1974487
		l0.7677612-0.2532959l0.767746-0.3086548l0.7677612-0.3634949l0.7677612-0.4176636l0.767746-0.4711609l0.7677612-0.5237122
		l0.7677612-0.5754395l0.7677612-0.6261292l0.767746-0.6756592l0.7677612-0.7240601l0.7677612-0.7711792l0.767746-0.8168945
		l0.7677612-0.8611755l0.7677612-0.9039917l0.767746-0.9450989l0.7677612-0.9846497l0.7677612-1.0224304l0.767746-1.0583801
		l0.7677612-1.0924683l0.7677612-1.1246033l0.767746-1.1547852l0.7677612-1.1829529l0.7677612-1.2090149l0.7677612-1.2329102
		l0.767746-1.2546082l0.7677612-1.2741699l0.7677612-1.2914124l0.767746-1.3064575l0.7677612-1.3190918l0.7677612-1.3294678
		l0.7677612-1.3374329l0.767746-1.3430786l0.7677612-1.346405l0.7677612-1.3472595l0.7677612-1.3457642l0.767746-1.3419189
		l0.7677612-1.3356934l0.7677612-1.3270874l0.767746-1.3161316l0.7677612-1.302887l0.7677612-1.287323l0.767746-1.2695007
		l0.7677612-1.2493896l0.7677612-1.2271423l0.767746-1.2026672l0.7677612-1.1761169l0.7677612-1.1474609l0.767746-1.1167603
		l0.7677612-1.0841064l0.7677612-1.0495605l0.767746-1.0131531l0.7677612-0.9749146l0.7677612-0.934967l0.7677155-0.8934326
		l0.7677917-0.8502808l0.7677612-0.805603l0.7677612-0.7594604l0.7677155-0.7120667l0.7677917-0.6634521l0.7677612-0.6134949
		l0.7677612-0.5626221l0.767746-0.5106812l0.7677612-0.4578247l0.7677612-0.4042358l0.7677155-0.349823l0.7677917-0.2948608
		l0.7677612-0.2393799l0.7677612-0.1834412l0.7677155-0.1272278l0.7677917-0.0707703l0.7677612-0.0141296l0.7677155,0.04245
		l0.767746,0.0990295l0.767807,0.1553345l0.767746,0.2114868l0.7677155,0.2671814l0.7677612,0.3224182l0.7677612,0.3771057
		l0.7677917,0.4310913l0.7677307,0.484375l0.767746,0.5367737l0.767807,0.5881958l0.7677155,0.6386108l0.767746,0.6878662
		l0.767807,0.7359924l0.7677155,0.7827148l0.767746,0.8280945l0.767746,0.8720093l0.7677765,0.9144592l0.767746,0.9551697
		l0.7677612,0.9942017l0.7677612,1.0316162l0.767746,1.0670471l0.7677612,1.1006775l0.7677612,1.1323853l0.767746,1.1620178
		l0.7677612,1.1896362l0.7677612,1.21521l0.767746,1.2385254l0.7677612,1.2597046l0.7677612,1.278717l0.7677612,1.2954102
		l0.767746,1.3097839l0.7677612,1.3218994l0.7677612,1.3316956l0.767746,1.3390808l0.7677612,1.3441467l0.7677612,1.3468323
		l0.767746,1.3471069l0.7677612,1.3450317l0.7677612,1.3405762l0.767746,1.3337402l0.7677765,1.3245544l0.767746,1.3130798
		l0.767746,1.2991943l0.7677765,1.2830811l0.767746,1.2647095l0.767746,1.2440186l0.7677765,1.2211914l0.767746,1.1962585
		l0.7677612,1.1691284l0.7677612,1.1399841l0.767746,1.1087646l0.7677612,1.0756531l0.7677612,1.0406494l0.767746,1.0037537
		l0.7677612,0.9650879l0.7677612,0.9247742l0.767746,0.8827515l0.7677612,0.8392029l0.7677612,0.7941895l0.7677612,0.7477722
		l0.767746,0.7000427l0.7677612,0.6510315l0.7677612,0.6009521l0.767746,0.5497131l0.7677612,0.4975281l0.7677612,0.4444885
		l0.767746,0.390686l0.7677612,0.3361511l0.7677612,0.2810364l0.767746,0.2254028l0.7677765,0.1694336l0.767746,0.1131287
		l0.767746,0.0566101h0.7677765l0.767746-0.0566101l0.767746-0.1131287l0.7677765-0.1694336l0.767746-0.2254028l0.7677612-0.2810364
		l0.7677612-0.3361511l0.767746-0.390686l0.7677612-0.4444885l0.7677612-0.4975281l0.767746-0.5497131l0.7677612-0.6009521
		l0.7677612-0.6510315l0.7677612-0.7000427l0.7677612-0.7477722l0.7677307-0.7941895l0.7677612-0.8392029l0.7677612-0.8827515
		l0.7677612-0.9247742l0.7677612-0.9650879l0.7677612-1.0037537l0.7677307-1.0406494l0.7677612-1.0756531l0.7677612-1.1087646
		l0.7677612-1.1399841l0.7677612-1.1691284l0.7677612-1.1962585l0.7677612-1.2211914l0.7677307-1.2440186l0.7677612-1.2647095
		l0.7677612-1.2830811l0.7677612-1.2991943l0.7677612-1.3130798l0.7677612-1.3245544l0.7677612-1.3337402l0.7677612-1.3405762
		l0.7677307-1.3450317l0.7677612-1.3471069l0.7677612-1.3468323l0.7677612-1.3441467l0.7677612-1.3390808l0.7677612-1.3316956
		l0.7677307-1.3218994l0.7677612-1.3097839l0.7677612-1.2954102l0.7677612-1.278717l0.7677612-1.2597046l0.7677612-1.2385254
		l0.7677307-1.21521l0.7677612-1.1896362l0.7677612-1.1620178l0.7677612-1.1323853l0.7677612-1.1006775l0.7677612-1.0670471
		l0.7677307-1.0316162l0.7677612-0.9942017l0.7677612-0.9551697l0.7677612-0.9144592l0.7677612-0.8720093l0.7677612-0.8280945
		l0.7677002-0.7827148l0.7677917-0.7359924l0.7677612-0.6878662l0.7677307-0.6386108l0.7677917-0.5881958l0.7677612-0.5367737
		l0.7677002-0.484375l0.7678223-0.4310913l0.7677307-0.3771057l0.7677307-0.3224182l0.7677917-0.2671814l0.7677612-0.2114868
		l0.7677002-0.1553345l0.7678223-0.0990295l0.7677307-0.04245l0.7677307,0.0141296l0.7677917,0.0707703l0.7677612,0.1272278
		l0.7677002,0.1834412l0.7678223,0.2393799l0.7677307,0.2948608l0.7677612,0.349823l0.7677307,0.4042358l0.7678223,0.4578247
		l0.7677002,0.5106812l0.7677307,0.5626221l0.7678223,0.6134949l0.7677307,0.6634521l0.7677307,0.7120667l0.7678223,0.7594604
		l0.7677002,0.805603l0.7677307,0.8502808l0.7678223,0.8934326l0.7677307,0.934967l0.7677307,0.9749146l0.7678223,1.0131531
		l0.7677002,1.0495605l0.7677307,1.0841064l0.7678223,1.1167603l0.7677307,1.1474609l0.7677612,1.1761169l0.7677307,1.2026672
		l0.7678223,1.2271423l0.7677002,1.2493896l0.7677612,1.2695007l0.7677612,1.287323l0.7677612,1.302887l0.7677307,1.3161316
		l0.7678223,1.3270874l0.7677002,1.3356934l0.7677612,1.3419189l0.7677612,1.3457642l0.7677612,1.3472595l0.7677307,1.346405
		l0.7678223,1.3430786l0.7677002,1.3374329l0.7677612,1.3294678l0.7677612,1.3190918l0.7677612,1.3064575l0.7677612,1.2914124
		l0.7677307,1.2741699l0.7677612,1.2546082l0.7677612,1.2329102l0.7677612,1.2090149l0.7677612,1.1829529l0.7677612,1.1547852
		l0.7677307,1.1246033l0.7677612,1.0924683l0.7677612,1.0583801l0.7677612,1.0224304l0.7677612,0.9846497l0.7677612,0.9450989
		l0.7677307,0.9039917l0.7677612,0.8611755l0.7677612,0.8168945l0.7677612,0.7711792l0.7677612,0.7240601l0.7677612,0.6756592
		l0.7677307,0.6261292l0.7677612,0.5754395l0.7677612,0.5237122l0.7677917,0.4711609l0.7677307,0.4176636l0.7677612,0.3634949
		l0.7677612,0.3086548l0.7677307,0.2532959l0.7677612,0.1974487l0.7677917,0.1413269l0.7677307,0.0848694L362.25,358.6148682"/>
</g>
</svg>
