<?xml version="1.0" encoding="UTF-8" standalone="no"?>
<svg
   xmlns:dc="http://purl.org/dc/elements/1.1/"
   xmlns:cc="http://creativecommons.org/ns#"
   xmlns:rdf="http://www.w3.org/1999/02/22-rdf-syntax-ns#"
   xmlns:svg="http://www.w3.org/2000/svg"
   xmlns="http://www.w3.org/2000/svg"
   viewBox="0 0 326.72 260"
   height="260"
   width="326.72"
   xml:space="preserve"
   id="svg2"
   version="1.1"><metadata
     id="metadata8"><rdf:RDF><cc:Work
         rdf:about=""><dc:format>image/svg+xml</dc:format><dc:type
           rdf:resource="http://purl.org/dc/dcmitype/StillImage" /></cc:Work></rdf:RDF></metadata><defs
     id="defs6"><clipPath
       id="clipPath18"
       clipPathUnits="userSpaceOnUse"><path
         style="clip-rule:evenodd"
         id="path16"
         d="M 3.651e-6,0 H 245.04 V 195 H 3.651e-6 Z" /></clipPath><clipPath
       id="clipPath26"
       clipPathUnits="userSpaceOnUse"><path
         style="clip-rule:evenodd"
         id="path24"
         d="M 3.651e-6,0.20004 H 244.75 v 194.8 H 3.651e-6 Z" /></clipPath><clipPath
       id="clipPath36"
       clipPathUnits="userSpaceOnUse"><path
         id="path34"
         d="M 0,0 H 3062.5 V 2437.49 H 0 Z" /></clipPath><clipPath
       id="clipPath56"
       clipPathUnits="userSpaceOnUse"><path
         id="path54"
         d="M 0,0 H 9.0317 V 15.758 H 0 Z" /></clipPath><clipPath
       id="clipPath68"
       clipPathUnits="userSpaceOnUse"><path
         id="path66"
         d="M 0,0 H 8.951 V 15.758 H 0 Z" /></clipPath><clipPath
       id="clipPath80"
       clipPathUnits="userSpaceOnUse"><path
         id="path78"
         d="M 0,0 H 10.068 V 15.758 H 0 Z" /></clipPath></defs><g
     transform="matrix(1.3333333,0,0,-1.3333333,0,260)"
     id="g10"><g
       id="g12"><g
         clip-path="url(#clipPath18)"
         id="g14" /></g><g
       id="g20"><g
         clip-path="url(#clipPath26)"
         id="g22"><g
           transform="matrix(3.3993,0,0,2.7056,0,0.20001)"
           id="g28"><g
             transform="scale(0.02351,0.029539)"
             id="g30"><g
               clip-path="url(#clipPath36)"
               id="g32"><g
                 id="g38"><path
                   id="path40"
                   style="fill:none;stroke:#000000;stroke-width:7.5;stroke-linecap:round;stroke-linejoin:round;stroke-miterlimit:10;stroke-dasharray:30, 15;stroke-dashoffset:0;stroke-opacity:1"
                   d="M 241.74,1451.91 1705.62,1124.69" /></g><g
                 id="g42"><path
                   id="path44"
                   style="fill:none;stroke:#000000;stroke-width:7.5;stroke-linecap:round;stroke-linejoin:round;stroke-miterlimit:10;stroke-dasharray:30, 15;stroke-dashoffset:0;stroke-opacity:1"
                   d="m 761.9,413.81 750,1299.04" /></g><path
                 id="path46"
                 style="fill:#000000;fill-opacity:1;fill-rule:evenodd;stroke:none"
                 d="m 1267.41,1235.12 c 0,-19.88 -16.12,-36 -36,-36 -19.89,0 -36,16.12 -36,36 0,19.88 16.11,36 36,36 19.88,0 36,-16.12 36,-36 z" /><g
                 transform="matrix(2.5088,0,0,4.3772,2802.07,239.27)"
                 id="g48"><g
                   transform="scale(7.9719,4.5691)"
                   id="g50"><g
                     clip-path="url(#clipPath56)"
                     id="g52"><path
                       id="path58"
                       style="fill:#000000;fill-opacity:1;fill-rule:evenodd;stroke:none"
                       d="M 7.1569,4.816 C 6.729,4.8387 6.3398,4.8504 5.9893,4.8504 H 5.9794 C 5.5648,4.8504 5.1216,4.8387 4.6499,4.816 V 5.4687 H 5.0342 L 4.3315,6.4648 3.5685,5.4539 c 0.0067,0.0095 0.0101,0.0227 0.0101,0.0393 0,0.0325 -0.0068,0.0503 -0.0203,0.054 C 3.5921,5.5306 3.6221,5.5159 3.6491,5.503 3.7402,5.4797 3.8785,5.4684 4.0638,5.4687 V 4.816 C 3.6694,4.8387 3.3038,4.8504 2.9667,4.8504 H 2.8759 C 2.5827,4.8504 2.2493,4.8387 1.8752,4.816 v 0.6527 c 0.1717,-3e-4 0.31,0.0012 0.4143,0.0046 0.1046,0.003 0.2092,0.0113 0.3135,0.0248 0.0506,0.0129 0.0969,0.0233 0.1389,0.0316 0.0423,0.008 0.0699,0.0205 0.0834,0.0371 L 3.9221,7.0292 2.6686,8.8105 H 1.9258 V 9.4631 C 2.1684,9.453 2.3772,9.4463 2.5524,9.4432 2.7278,9.4398 2.9048,9.4383 3.0833,9.4386 h 0.4345 c 0.1381,-3e-4 0.2736,0.0012 0.4067,0.0046 0.1331,0.0031 0.3009,0.0098 0.503,0.0199 V 8.8105 H 4.0435 L 4.6349,7.9763 5.2817,8.835 C 5.2749,8.8249 5.2716,8.8135 5.2716,8.8007 5.2716,8.7743 5.2802,8.7562 5.297,8.7467 5.2667,8.7528 5.2329,8.7626 5.1958,8.7761 5.105,8.7988 4.9701,8.8102 4.7916,8.8105 V 9.4631 C 5.0207,9.453 5.2179,9.4463 5.3829,9.4432 5.5479,9.4398 5.7132,9.4383 5.8782,9.4386 H 5.9693 C 6.1208,9.4383 6.2708,9.4398 6.4189,9.4432 6.5674,9.4463 6.7526,9.453 6.975,9.4631 V 8.8105 C 6.8032,8.8102 6.6643,8.8083 6.5582,8.8053 6.4521,8.8019 6.3466,8.7939 6.242,8.781 6.1984,8.7743 6.1555,8.7675 6.1132,8.7611 6.0711,8.7544 6.0451,8.743 6.0349,8.7271 L 5.0391,7.4119 6.4039,5.4687 h 0.753 z" /></g></g></g><g
                 transform="matrix(2.4864,0,0,4.3772,733.07,1807.1)"
                 id="g60"><g
                   transform="scale(8.0438,4.5691)"
                   id="g62"><g
                     clip-path="url(#clipPath68)"
                     id="g64"><path
                       id="path70"
                       style="fill:#000000;fill-opacity:1;fill-rule:evenodd;stroke:none"
                       d="M 7.0745,8.8105 C 6.9328,8.8102 6.8218,8.8083 6.7408,8.8053 6.6599,8.8019 6.5807,8.7939 6.5031,8.781 6.4663,8.7743 6.4369,8.7685 6.4148,8.7636 6.393,8.7586 6.3804,8.7528 6.3768,8.7467 L 4.5218,4.0799 C 4.4513,3.9097 4.3645,3.7478 4.2618,3.5941 4.159,3.4401 4.0385,3.3052 3.9002,3.1893 3.7621,3.073 3.6103,2.9807 3.4453,2.912 3.2803,2.8433 3.1033,2.8089 2.9147,2.8089 2.77,2.8089 2.6341,2.8365 2.5077,2.8924 2.3814,2.9479 2.2713,3.0215 2.1768,3.1132 2.0823,3.2046 2.0084,3.311 1.9544,3.4322 1.9005,3.553 1.8735,3.684 1.8735,3.8247 c 0,0.2224 0.0727,0.3902 0.2174,0.503 0.1448,0.1129 0.303,0.1693 0.4748,0.1693 0.1721,0 0.3297,-0.0564 0.4729,-0.1693 C 3.1819,4.2149 3.2533,4.0471 3.2533,3.8247 3.2533,3.6579 3.2098,3.5211 3.122,3.415 3.0343,3.3086 3.1086,3.2929 3.3441,3.3684 H 2.8439 c 0.1147,0 0.2223,0.0196 0.3235,0.0589 0.108,0.0358 0.2022,0.0889 0.2831,0.1594 C 3.5315,3.657 3.603,3.7404 3.6652,3.837 3.7278,3.9333 3.7808,4.0373 3.8244,4.1486 L 4.1326,4.9092 2.5758,8.8105 H 1.9038 V 9.4631 C 2.1498,9.453 2.3682,9.4463 2.5583,9.4432 2.7488,9.4398 2.9365,9.4383 3.1217,9.4386 h 0.4448 c 0.145,-3e-4 0.2873,0.0012 0.4272,0.0046 0.1399,0.0031 0.3144,0.0098 0.5232,0.0199 V 8.8105 H 3.971 L 4.8301,6.6611 5.6894,8.8252 C 5.6864,8.8215 5.6845,8.8135 5.6845,8.8007 5.6845,8.7743 5.6913,8.7596 5.7048,8.7565 5.6744,8.7596 5.6422,8.7645 5.6085,8.7712 5.5447,8.7841 5.4815,8.7936 5.4192,8.8004 5.357,8.8068 5.265,8.8102 5.1435,8.8105 V 9.4631 C 5.3459,9.453 5.5168,9.4463 5.6566,9.4432 5.7965,9.4398 5.9391,9.4383 6.0839,9.4386 h 0.3334 c 0.0978,-3e-4 0.1923,0.0012 0.283,0.0046 0.0911,0.0031 0.216,0.0098 0.3742,0.0199 z" /></g></g></g><g
                 transform="matrix(2.7967,0,0,4.3772,1384.16,1138.22)"
                 id="g72"><g
                   transform="scale(7.1513,4.5691)"
                   id="g74"><g
                     clip-path="url(#clipPath80)"
                     id="g76"><path
                       id="path82"
                       style="fill:#000000;fill-opacity:1;fill-rule:evenodd;stroke:none"
                       d="M 8.1918,9.8459 C 8.1918,9.5644 8.132,9.2951 8.0124,9.0384 7.8928,8.7813 7.7201,8.5648 7.4941,8.3885 7.2346,8.1885 6.9466,8.0477 6.6298,7.9661 6.3133,7.8842 5.9931,7.8435 5.6695,7.8438 H 4.497 V 5.4687 H 5.4674 V 4.816 C 4.8341,4.8387 4.236,4.8504 3.6729,4.8504 3.1003,4.8504 2.5007,4.8387 1.8738,4.816 V 5.4687 H 2.8442 V 11.244 H 1.8738 v 0.648 h 3.7957 c 0.3236,0 0.6438,-0.042 0.9603,-0.125 0.3168,-0.084 0.6048,-0.227 0.8643,-0.429 0.2361,-0.184 0.4113,-0.405 0.526,-0.663 0.1147,-0.259 0.1717,-0.535 0.1717,-0.8291 z m -1.7641,0 c 0,0.0978 -0.0016,0.2001 -0.0049,0.3061 -0.0034,0.106 -0.0101,0.209 -0.0203,0.309 -0.0101,0.1 -0.026,0.189 -0.0481,0.268 -0.0218,0.078 -0.0531,0.139 -0.0936,0.182 -0.111,0.133 -0.2567,0.223 -0.437,0.267 -0.1804,0.044 -0.3665,0.066 -0.5585,0.066 H 4.4464 V 8.4424 h 0.8189 c 0.192,-3e-4 0.3781,0.0218 0.5585,0.066 0.1803,0.0441 0.326,0.1365 0.437,0.2775 0.0405,0.0424 0.0718,0.1028 0.0936,0.1813 0.0221,0.0785 0.038,0.1659 0.0481,0.2625 0.0102,0.0963 0.0169,0.1979 0.0203,0.3043 0.0033,0.1061 0.0049,0.2101 0.0049,0.3119 z" /></g></g></g><path
                 id="path84"
                 style="fill:none;stroke:#000000;stroke-width:15;stroke-linecap:round;stroke-linejoin:round;stroke-miterlimit:10;stroke-dasharray:none;stroke-opacity:1"
                 d="m 361.57,809.72 793.12,1373.72" /><path
                 id="path86"
                 style="fill:#000000;fill-opacity:1;fill-rule:nonzero;stroke:none"
                 d="m 1248.28,2345.54 -156.96,-151.86 45.47,-26.25 12.99,-7.5 45.46,-26.25 z" /><path
                 id="path88"
                 style="fill:none;stroke:#000000;stroke-width:15;stroke-linecap:round;stroke-linejoin:round;stroke-miterlimit:10;stroke-dasharray:none;stroke-opacity:1"
                 d="m 267.99,647.62 93.58,162.1" /><path
                 id="path90"
                 style="fill:none;stroke:#000000;stroke-width:15;stroke-linecap:round;stroke-linejoin:round;stroke-miterlimit:10;stroke-dasharray:none;stroke-opacity:1"
                 d="m 361.57,809.72 62.67,-36.18" /><path
                 id="path92"
                 style="fill:none;stroke:#000000;stroke-width:15;stroke-linecap:round;stroke-linejoin:round;stroke-miterlimit:10;stroke-dasharray:none;stroke-opacity:1"
                 d="m 678.82,1359.21 62.67,-36.18" /><path
                 id="path94"
                 style="fill:none;stroke:#000000;stroke-width:15;stroke-linecap:round;stroke-linejoin:round;stroke-miterlimit:10;stroke-dasharray:none;stroke-opacity:1"
                 d="m 996.07,1908.7 62.66,-36.18" /><path
                 id="path96"
                 style="fill:none;stroke:#000000;stroke-width:15;stroke-linecap:round;stroke-linejoin:round;stroke-miterlimit:10;stroke-dasharray:none;stroke-opacity:1"
                 d="m 361.57,809.72 31.34,-18.09" /><path
                 id="path98"
                 style="fill:none;stroke:#000000;stroke-width:15;stroke-linecap:round;stroke-linejoin:round;stroke-miterlimit:10;stroke-dasharray:none;stroke-opacity:1"
                 d="m 520.2,1084.47 31.33,-18.09" /><path
                 id="path100"
                 style="fill:none;stroke:#000000;stroke-width:15;stroke-linecap:round;stroke-linejoin:round;stroke-miterlimit:10;stroke-dasharray:none;stroke-opacity:1"
                 d="m 678.82,1359.21 31.33,-18.09" /><path
                 id="path102"
                 style="fill:none;stroke:#000000;stroke-width:15;stroke-linecap:round;stroke-linejoin:round;stroke-miterlimit:10;stroke-dasharray:none;stroke-opacity:1"
                 d="m 837.45,1633.95 31.33,-18.09" /><path
                 id="path104"
                 style="fill:none;stroke:#000000;stroke-width:15;stroke-linecap:round;stroke-linejoin:round;stroke-miterlimit:10;stroke-dasharray:none;stroke-opacity:1"
                 d="m 996.07,1908.7 31.33,-18.09" /><path
                 id="path106"
                 style="fill:none;stroke:#000000;stroke-width:15;stroke-linecap:round;stroke-linejoin:round;stroke-miterlimit:10;stroke-dasharray:none;stroke-opacity:1"
                 d="m 1154.69,2183.44 31.34,-18.09" /><path
                 id="path108"
                 style="fill:#000000;fill-opacity:1;fill-rule:evenodd;stroke:none"
                 d="m 498.86,684.26 c -11.83,6.83 -20.99,14.49 -27.47,22.99 -6.48,8.51 -10.1,16.92 -10.87,25.25 -0.67,6.51 0.42,12.21 3.24,17.1 4.59,7.96 12.77,12.76 24.53,14.4 14.61,2.1 30.51,-1.81 47.7,-11.73 12.03,-6.95 21.25,-14.59 27.67,-22.91 6.41,-8.33 9.96,-16.28 10.66,-23.85 0.69,-7.57 -0.41,-13.86 -3.29,-18.86 -5.72,-9.89 -16.31,-14.76 -31.79,-14.59 -13.05,0.12 -26.51,4.19 -40.38,12.2 z m 10.57,13.89 c 14.28,-8.25 26.95,-13.22 38,-14.91 9.28,-1.48 15.58,0.66 18.91,6.42 1.59,2.76 2,6.33 1.24,10.71 -0.77,4.39 -3.62,9.03 -8.55,13.91 -7.42,7.41 -19.1,15.73 -35.07,24.94 -11.83,6.83 -22.4,11.3 -31.72,13.42 -6.93,1.55 -12.45,1.58 -16.58,0.09 -2.89,-1.12 -5.19,-3.16 -6.89,-6.12 -2.01,-3.47 -2.23,-7.45 -0.68,-11.95 2.11,-6.12 7.32,-12.46 15.64,-19.02 8.31,-6.57 16.88,-12.4 25.7,-17.49 z" /><path
                 id="path110"
                 style="fill:#000000;fill-opacity:1;fill-rule:evenodd;stroke:none"
                 d="m 867.93,1293.48 10.86,-6.27 -8.03,-13.93 27.38,-15.81 -7.29,-12.62 -27.38,15.81 -25.35,-43.91 -9.79,5.66 -40.92,87.77 4.86,8.42 67.62,-39.05 z m -15.32,-26.55 -51.49,29.73 30.46,-66.14 z" /><path
                 id="path112"
                 style="fill:#000000;fill-opacity:1;fill-rule:evenodd;stroke:none"
                 d="m 1146.45,1808.21 c -11.47,-4.32 -19.93,-6.49 -25.38,-6.51 -5.45,-0.02 -10.37,1.24 -14.76,3.77 -6.73,3.89 -11.03,9.84 -12.89,17.85 -1.87,8.02 -0.32,16.33 4.66,24.95 4.83,8.37 10.98,13.79 18.47,16.27 7.48,2.48 14.13,2.04 19.94,-1.32 3.88,-2.24 7.04,-5.9 9.47,-10.98 2.44,-5.07 3.87,-13.55 4.3,-25.42 12.11,4.97 21,7.76 26.66,8.37 7.44,0.87 14.04,-0.35 19.8,-3.68 7.29,-4.21 11.92,-10.59 13.89,-19.14 1.97,-8.54 0.34,-17.33 -4.87,-26.36 -5.68,-9.84 -13.2,-15.73 -22.55,-17.68 -7.48,-1.53 -14.15,-0.6 -20.01,2.78 -4.59,2.65 -8.25,6.83 -10.99,12.52 -2.73,5.69 -4.64,13.88 -5.74,24.58 z m -1.25,16.74 c -1.98,9.3 -4.09,15.68 -6.33,19.15 -2.25,3.48 -5.39,6.37 -9.41,8.7 -5.36,3.09 -10.42,4.01 -15.19,2.75 -4.77,-1.25 -8.66,-4.48 -11.67,-9.69 -3,-5.2 -3.94,-10.3 -2.81,-15.3 1.12,-5 3.7,-8.66 7.73,-10.99 2.65,-1.53 5.69,-2.39 9.12,-2.57 3.43,-0.18 7.07,0.29 10.91,1.41 z m 6.23,-14.82 c 1.13,-6.3 3.2,-11.68 6.23,-16.15 3.03,-4.47 7,-8.11 11.89,-10.94 6.58,-3.8 12.88,-5.04 18.91,-3.73 6.03,1.32 10.65,4.75 13.86,10.31 3.18,5.51 4.17,10.82 2.97,15.93 -1.19,5.11 -4.01,8.95 -8.45,11.51 -3.67,2.12 -7.52,3.05 -11.54,2.79 -7.5,-0.5 -18.79,-3.74 -33.87,-9.72 z" /><path
                 id="path114"
                 style="fill:none;stroke:#000000;stroke-width:15;stroke-linecap:round;stroke-linejoin:round;stroke-miterlimit:10;stroke-dasharray:none;stroke-opacity:1"
                 d="M 353.55,811.92 2631.13,302.82" /><path
                 id="path116"
                 style="fill:#000000;fill-opacity:1;fill-rule:nonzero;stroke:none"
                 d="m 2632.77,310.14 64.02,-14.31 -3.28,-14.64 -64.01,14.31 c -4.05,0.9 -6.59,4.91 -5.69,8.95 0.91,4.05 4.92,6.59 8.96,5.69 z m 267.12,-67.4 -191.86,104.37 -11.45,-51.24 -3.27,-14.63 -11.45,-51.24 z" /><path
                 id="path118"
                 style="fill:none;stroke:#000000;stroke-width:15;stroke-linecap:round;stroke-linejoin:round;stroke-miterlimit:10;stroke-dasharray:none;stroke-opacity:1"
                 d="M 84.794,871.99 353.55,811.92" /><path
                 id="path120"
                 style="fill:none;stroke:#000000;stroke-width:15;stroke-linecap:round;stroke-linejoin:round;stroke-miterlimit:10;stroke-dasharray:none;stroke-opacity:1"
                 d="M 353.55,811.92 337.76,741.3" /><path
                 id="path122"
                 style="fill:none;stroke:#000000;stroke-width:15;stroke-linecap:round;stroke-linejoin:round;stroke-miterlimit:10;stroke-dasharray:none;stroke-opacity:1"
                 d="M 922.94,684.64 907.16,614.03" /><path
                 id="path124"
                 style="fill:none;stroke:#000000;stroke-width:15;stroke-linecap:round;stroke-linejoin:round;stroke-miterlimit:10;stroke-dasharray:none;stroke-opacity:1"
                 d="m 1492.34,557.37 -15.78,-70.62" /><path
                 id="path126"
                 style="fill:none;stroke:#000000;stroke-width:15;stroke-linecap:round;stroke-linejoin:round;stroke-miterlimit:10;stroke-dasharray:none;stroke-opacity:1"
                 d="m 2061.74,430.09 -15.79,-70.61" /><path
                 id="path128"
                 style="fill:none;stroke:#000000;stroke-width:15;stroke-linecap:round;stroke-linejoin:round;stroke-miterlimit:10;stroke-dasharray:none;stroke-opacity:1"
                 d="M 2631.13,302.82 2615.35,232.2" /><path
                 id="path130"
                 style="fill:none;stroke:#000000;stroke-width:15;stroke-linecap:round;stroke-linejoin:round;stroke-miterlimit:10;stroke-dasharray:none;stroke-opacity:1"
                 d="m 353.55,811.92 -7.89,-35.31" /><path
                 id="path132"
                 style="fill:none;stroke:#000000;stroke-width:15;stroke-linecap:round;stroke-linejoin:round;stroke-miterlimit:10;stroke-dasharray:none;stroke-opacity:1"
                 d="m 638.25,748.28 -7.9,-35.31" /><path
                 id="path134"
                 style="fill:none;stroke:#000000;stroke-width:15;stroke-linecap:round;stroke-linejoin:round;stroke-miterlimit:10;stroke-dasharray:none;stroke-opacity:1"
                 d="m 922.94,684.64 -7.89,-35.31" /><path
                 id="path136"
                 style="fill:none;stroke:#000000;stroke-width:15;stroke-linecap:round;stroke-linejoin:round;stroke-miterlimit:10;stroke-dasharray:none;stroke-opacity:1"
                 d="m 1207.64,621.01 -7.89,-35.31" /><path
                 id="path138"
                 style="fill:none;stroke:#000000;stroke-width:15;stroke-linecap:round;stroke-linejoin:round;stroke-miterlimit:10;stroke-dasharray:none;stroke-opacity:1"
                 d="m 1492.34,557.37 -7.89,-35.31" /><path
                 id="path140"
                 style="fill:none;stroke:#000000;stroke-width:15;stroke-linecap:round;stroke-linejoin:round;stroke-miterlimit:10;stroke-dasharray:none;stroke-opacity:1"
                 d="m 1777.04,493.73 -7.89,-35.31" /><path
                 id="path142"
                 style="fill:none;stroke:#000000;stroke-width:15;stroke-linecap:round;stroke-linejoin:round;stroke-miterlimit:10;stroke-dasharray:none;stroke-opacity:1"
                 d="m 2061.74,430.09 -7.9,-35.31" /><path
                 id="path144"
                 style="fill:none;stroke:#000000;stroke-width:15;stroke-linecap:round;stroke-linejoin:round;stroke-miterlimit:10;stroke-dasharray:none;stroke-opacity:1"
                 d="m 2346.43,366.46 -7.89,-35.31" /><path
                 id="path146"
                 style="fill:none;stroke:#000000;stroke-width:15;stroke-linecap:round;stroke-linejoin:round;stroke-miterlimit:10;stroke-dasharray:none;stroke-opacity:1"
                 d="m 2631.13,302.82 -7.89,-35.31" /><path
                 id="path148"
                 style="fill:#000000;fill-opacity:1;fill-rule:evenodd;stroke:none"
                 d="m 274.88,643.4 c 2.98,13.33 7.56,24.36 13.73,33.09 6.18,8.72 13.12,14.7 20.84,17.92 6.01,2.58 11.77,3.25 17.29,2.02 8.96,-2.01 15.99,-8.37 21.07,-19.1 6.38,-13.32 7.4,-29.65 3.07,-49.02 -3.03,-13.56 -7.56,-24.65 -13.59,-33.26 -6.02,-8.61 -12.55,-14.37 -19.57,-17.3 -7.02,-2.93 -13.34,-3.76 -18.97,-2.5 -11.15,2.49 -18.96,11.14 -23.43,25.96 -3.79,12.49 -3.94,26.56 -0.44,42.19 z m 16.41,-5.94 c -3.59,-16.09 -4.55,-29.66 -2.85,-40.72 1.36,-9.29 5.28,-14.67 11.78,-16.12 3.1,-0.69 6.63,-0.02 10.59,2.02 3.95,2.05 7.53,6.15 10.71,12.32 4.86,9.29 9.29,22.93 13.32,40.92 2.98,13.33 4.08,24.76 3.31,34.28 -0.59,7.07 -2.21,12.36 -4.87,15.85 -1.93,2.42 -4.57,4 -7.9,4.75 -3.91,0.87 -7.78,-0.1 -11.61,-2.93 -5.2,-3.84 -9.69,-10.71 -13.47,-20.61 -3.78,-9.89 -6.78,-19.81 -9.01,-29.76 z" /><path
                 id="path150"
                 style="fill:#000000;fill-opacity:1;fill-rule:evenodd;stroke:none"
                 d="m 842.77,479.44 -13.22,-20.67 -68.96,15.42 0.72,3.18 c 24.42,13.98 42.08,25.9 52.97,35.77 10.9,9.87 17.43,19.67 19.6,29.38 1.66,7.41 0.75,14.01 -2.72,19.8 -3.48,5.78 -8.37,9.38 -14.69,10.79 -5.75,1.29 -11.28,0.76 -16.6,-1.58 -5.33,-2.34 -9.8,-6.51 -13.44,-12.52 l -3.19,0.71 c 3.82,10.31 9.33,17.65 16.55,22.01 7.22,4.36 15.28,5.54 24.19,3.55 9.48,-2.12 16.72,-6.93 21.71,-14.44 4.99,-7.52 6.56,-15.41 4.71,-23.68 -1.33,-5.92 -4.03,-11.53 -8.11,-16.84 -6.33,-8.36 -15.43,-16.67 -27.3,-24.94 -17.8,-12.43 -28.84,-19.86 -33.13,-22.28 l 30.52,-6.82 c 6.21,-1.39 10.61,-2.13 13.21,-2.23 2.61,-0.1 5.07,0.33 7.4,1.29 2.32,0.95 4.52,2.56 6.59,4.81 z m 30.78,-12.94 c 2.7,-0.61 4.76,-2.05 6.18,-4.33 1.42,-2.28 1.84,-4.74 1.25,-7.38 -0.59,-2.65 -2.03,-4.69 -4.32,-6.14 -2.28,-1.45 -4.74,-1.88 -7.39,-1.29 -2.64,0.59 -4.69,2.03 -6.14,4.31 -1.45,2.29 -1.88,4.75 -1.29,7.4 0.61,2.7 2.05,4.76 4.33,6.18 2.27,1.42 4.74,1.84 7.38,1.25 z m 122.38,77.81 -9.99,-13.15 -35.18,7.86 -11.17,-13.97 c 14.72,-5.65 25.53,-14.01 32.4,-25.08 5.9,-9.52 7.67,-19.57 5.3,-30.15 -1.37,-6.14 -3.89,-11.55 -7.56,-16.22 -3.67,-4.68 -7.81,-8.43 -12.43,-11.26 -4.61,-2.83 -9.5,-4.84 -14.65,-6.04 -7.32,-1.69 -14.45,-1.75 -21.41,-0.2 -7.01,1.57 -11.84,3.9 -14.5,7 -2.65,3.1 -3.66,6.08 -3.02,8.96 0.36,1.61 1.34,2.88 2.94,3.82 1.59,0.94 3.4,1.19 5.41,0.74 1.5,-0.34 2.75,-0.86 3.77,-1.57 1.02,-0.71 2.66,-2.31 4.94,-4.81 3.64,-3.96 7.68,-6.43 12.1,-7.42 6.73,-1.5 13.2,-0.28 19.42,3.67 6.23,3.95 10.15,9.58 11.78,16.87 1.58,7.07 0.79,14.18 -2.38,21.31 -3.18,7.14 -8.38,13.26 -15.63,18.38 -5.68,3.99 -13.88,7.39 -24.6,10.21 l 32.57,40.42 z" /><path
                 id="path152"
                 style="fill:#000000;fill-opacity:1;fill-rule:evenodd;stroke:none"
                 d="m 1497.14,432.28 -10,-13.15 -35.17,7.86 -11.17,-13.98 c 14.72,-5.64 25.53,-14 32.4,-25.07 5.9,-9.53 7.67,-19.57 5.3,-30.15 -1.37,-6.15 -3.89,-11.56 -7.56,-16.23 -3.67,-4.67 -7.81,-8.42 -12.43,-11.25 -4.61,-2.83 -9.5,-4.85 -14.65,-6.05 -7.32,-1.68 -14.45,-1.74 -21.41,-0.19 -7.01,1.57 -11.84,3.9 -14.5,7 -2.66,3.1 -3.66,6.08 -3.02,8.95 0.36,1.61 1.34,2.89 2.94,3.83 1.59,0.94 3.4,1.18 5.41,0.73 1.49,-0.33 2.75,-0.85 3.77,-1.56 1.02,-0.71 2.66,-2.32 4.94,-4.82 3.64,-3.95 7.68,-6.42 12.1,-7.41 6.73,-1.5 13.2,-0.28 19.42,3.67 6.22,3.95 10.15,9.57 11.78,16.87 1.58,7.07 0.79,14.17 -2.38,21.31 -3.18,7.13 -8.38,13.26 -15.63,18.38 -5.68,3.98 -13.88,7.39 -24.6,10.2 l 32.57,40.42 z" /><path
                 id="path154"
                 style="fill:#000000;fill-opacity:1;fill-rule:evenodd;stroke:none"
                 d="m 1939.48,333.4 62.67,-14 -0.74,-3.28 -64.89,-107.32 -9.66,2.16 58.44,97.45 -32.15,7.19 c -6.5,1.45 -11.3,1.71 -14.4,0.77 -5.42,-1.56 -10.21,-4.78 -14.38,-9.64 l -2.28,1.51 z m 72.86,-121.45 c 2.7,-0.61 4.76,-2.05 6.18,-4.33 1.43,-2.28 1.84,-4.74 1.25,-7.38 -0.59,-2.65 -2.03,-4.69 -4.31,-6.14 -2.29,-1.45 -4.75,-1.88 -7.4,-1.29 -2.64,0.59 -4.69,2.03 -6.14,4.31 -1.45,2.29 -1.88,4.75 -1.29,7.4 0.61,2.7 2.05,4.76 4.33,6.18 2.28,1.42 4.74,1.84 7.38,1.25 z m 122.39,77.81 -10,-13.15 -35.17,7.86 -11.18,-13.97 c 14.73,-5.65 25.53,-14.01 32.41,-25.08 5.89,-9.52 7.66,-19.57 5.3,-30.15 -1.38,-6.14 -3.9,-11.55 -7.57,-16.23 -3.67,-4.67 -7.81,-8.42 -12.43,-11.25 -4.61,-2.83 -9.5,-4.84 -14.65,-6.04 -7.32,-1.69 -14.45,-1.75 -21.41,-0.2 -7.01,1.57 -11.84,3.9 -14.5,7 -2.65,3.1 -3.66,6.08 -3.02,8.96 0.36,1.61 1.34,2.88 2.94,3.82 1.6,0.94 3.4,1.19 5.41,0.74 1.5,-0.34 2.75,-0.86 3.77,-1.57 1.02,-0.71 2.67,-2.31 4.94,-4.81 3.65,-3.96 7.68,-6.43 12.1,-7.42 6.73,-1.5 13.2,-0.28 19.42,3.67 6.23,3.95 10.15,9.58 11.79,16.87 1.58,7.07 0.78,14.18 -2.39,21.31 -3.17,7.14 -8.38,13.26 -15.63,18.38 -5.68,3.99 -13.88,7.39 -24.6,10.21 l 32.57,40.42 z" /><path
                 id="path156"
                 style="fill:#000000;fill-opacity:1;fill-rule:evenodd;stroke:none"
                 d="m 2531.91,188.94 31.55,7.52 2.85,-0.63 -22.07,-98.706 c -1.46,-6.551 -2.1,-10.693 -1.91,-12.424 0.18,-1.731 1.04,-3.221 2.57,-4.468 1.53,-1.247 4.93,-2.519 10.19,-3.816 l -0.71,-3.19 -43.96,9.827 0.71,3.19 c 5.54,-1.118 9.21,-1.441 11.01,-0.967 1.79,0.474 3.16,1.344 4.11,2.61 0.95,1.267 2.2,5.406 3.77,12.414 l 14.1,63.1 c 1.91,8.51 2.84,14.03 2.8,16.57 0.01,1.93 -0.42,3.45 -1.29,4.55 -0.87,1.1 -2.05,1.81 -3.55,2.15 -2.12,0.47 -5.28,0.24 -9.47,-0.69 z m 65.98,-64.8 c 2.98,13.33 7.56,24.36 13.73,33.09 6.18,8.73 13.12,14.7 20.84,17.92 6.01,2.58 11.77,3.26 17.29,2.02 8.97,-2 15.99,-8.37 21.07,-19.1 6.38,-13.31 7.4,-29.65 3.08,-49.02 -3.04,-13.559 -7.57,-24.645 -13.59,-33.253 -6.03,-8.609 -12.55,-14.377 -19.57,-17.303 -7.02,-2.926 -13.35,-3.76 -18.98,-2.501 -11.15,2.492 -18.96,11.147 -23.43,25.964 -3.79,12.492 -3.93,26.553 -0.44,42.183 z m 16.42,-5.93 c -3.6,-16.09 -4.55,-29.666 -2.86,-40.724 1.36,-9.295 5.29,-14.668 11.78,-16.12 3.1,-0.694 6.63,-0.019 10.59,2.023 3.96,2.042 7.53,6.146 10.72,12.312 4.85,9.294 9.29,22.935 13.31,40.919 2.98,13.34 4.08,24.76 3.32,34.29 -0.59,7.07 -2.22,12.35 -4.88,15.84 -1.93,2.42 -4.56,4.01 -7.9,4.75 -3.91,0.88 -7.77,-0.1 -11.6,-2.92 -5.21,-3.85 -9.7,-10.72 -13.48,-20.61 -3.78,-9.9 -6.78,-19.82 -9,-29.76 z" /></g></g></g></g></g></g></svg>