<?xml version="1.0" encoding="utf-8"?>
<!-- Generator: Adobe Illustrator 19.0.0, SVG Export Plug-In . SVG Version: 6.00 Build 0)  -->
<svg version="1.1" id="Layer_1" xmlns="http://www.w3.org/2000/svg" xmlns:xlink="http://www.w3.org/1999/xlink" x="0px" y="0px"
	 viewBox="156.9516907 276.6666565 242.3816376 217.3333282"
	 style="enable-background:new 156.9516907 276.6666565 242.3816376 217.3333282;" xml:space="preserve">
<style type="text/css">
	.st0{fill:none;stroke:#262626;stroke-linecap:square;stroke-linejoin:round;stroke-miterlimit:10;}
	.st1{enable-background:new    ;}
	.st2{fill:#262626;}
	.st3{fill:none;stroke:#0072BD;stroke-linejoin:round;stroke-miterlimit:10;}
	.st4{fill:none;stroke:#0072BD;stroke-miterlimit:10;}
	.st5{fill:none;stroke:#D95319;stroke-linejoin:round;stroke-miterlimit:10;}
</style>
<g>
	<line class="st0" x1="176.7654114" y1="470.9267578" x2="390.7501526" y2="470.9267578"/>
	<line class="st0" x1="176.7654114" y1="282.6202087" x2="390.7501526" y2="282.6202087"/>
	<line class="st0" x1="176.7654114" y1="470.9267578" x2="176.7654114" y2="468.7869263"/>
	<line class="st0" x1="219.5623627" y1="470.9267578" x2="219.5623627" y2="468.7869263"/>
	<line class="st0" x1="262.359314" y1="470.9267578" x2="262.359314" y2="468.7869263"/>
	<line class="st0" x1="305.15625" y1="470.9267578" x2="305.15625" y2="468.7869263"/>
	<line class="st0" x1="347.9532166" y1="470.9267578" x2="347.9532166" y2="468.7869263"/>
	<line class="st0" x1="390.7501526" y1="470.9267578" x2="390.7501526" y2="468.7869263"/>
	<line class="st0" x1="176.7654114" y1="282.6202087" x2="176.7654114" y2="284.7600403"/>
	<line class="st0" x1="219.5623627" y1="282.6202087" x2="219.5623627" y2="284.7600403"/>
	<line class="st0" x1="262.359314" y1="282.6202087" x2="262.359314" y2="284.7600403"/>
	<line class="st0" x1="305.15625" y1="282.6202087" x2="305.15625" y2="284.7600403"/>
	<line class="st0" x1="347.9532166" y1="282.6202087" x2="347.9532166" y2="284.7600403"/>
	<line class="st0" x1="390.7501526" y1="282.6202087" x2="390.7501526" y2="284.7600403"/>
</g>
<g transform="translate(75,442.6667)">
	<g class="st1">
		<path class="st2" d="M104.0825119,42.3860359c0,2.8359375-1.0517578,4.4023438-2.9003906,4.4023438
			c-1.6298828,0-2.7333984-1.5273438-2.7587891-4.2861328c0-2.7978516,1.2060547-4.3378906,2.9003906-4.3378906
			C103.0815353,38.1643562,104.0825119,39.7297859,104.0825119,42.3860359z M99.5522385,42.5149422
			c0,2.1679688,0.6679688,3.4003906,1.6943359,3.4003906c1.1552734,0,1.7070313-1.3476563,1.7070313-3.4775391
			c0-2.0537109-0.5263672-3.4003906-1.6943359-3.4003906C100.2709885,39.0374031,99.5522385,40.2434578,99.5522385,42.5149422z"/>
	</g>
</g>
<g transform="translate(165,442.6667)">
	<g class="st1">
		<path class="st2" d="M51.6479416,42.3860359c0,2.8359375-1.0517578,4.4023438-2.9003906,4.4023438
			c-1.6298828,0-2.7333984-1.5273438-2.7587891-4.2861328c0-2.7978516,1.2060547-4.3378906,2.9003906-4.3378906
			C50.646965,38.1643562,51.6479416,39.7297859,51.6479416,42.3860359z M47.1176682,42.5149422
			c0,2.1679688,0.6679688,3.4003906,1.6943359,3.4003906c1.1552734,0,1.7070313-1.3476563,1.7070313-3.4775391
			c0-2.0537109-0.5263672-3.4003906-1.6943359-3.4003906C47.8364182,39.0374031,47.1176682,40.2434578,47.1176682,42.5149422z"/>
		<path class="st2" d="M52.7797775,45.9797859c0-0.4755859,0.3212891-0.8085938,0.7705078-0.8085938
			s0.7568359,0.3330078,0.7568359,0.8085938c0,0.4619141-0.2949219,0.8085938-0.7695313,0.8085938
			C53.0883713,46.7883797,52.7797775,46.4417,52.7797775,45.9797859z"/>
		<path class="st2" d="M60.3276291,39.2551765h-3.1826172l-0.3212891,2.1425781
			c0.1933594-0.0253906,0.3730469-0.0507813,0.6806641-0.0507813c0.6416016,0,1.2832031,0.140625,1.796875,0.4492188
			c0.6542969,0.3720703,1.1933594,1.0908203,1.1933594,2.1425781c0,1.6298828-1.2958984,2.8496094-3.1054688,2.8496094
			c-0.9111328,0-1.6816406-0.2568359-2.0791016-0.5136719l0.2822266-0.859375
			c0.3466797,0.2050781,1.0263672,0.4619141,1.7841797,0.4619141c1.0644531,0,1.9755859-0.6933594,1.9755859-1.8095703
			c-0.0126953-1.078125-0.7314453-1.8486328-2.3994141-1.8486328c-0.4746094,0-0.8466797,0.0517578-1.1552734,0.0898438
			l0.5390625-4.0029297h3.9912109V39.2551765z"/>
	</g>
</g>
<g transform="translate(255,442.6667)">
	<g class="st1">
		<path class="st2" d="M6.5834885,39.3577156H6.5580978l-1.4501953,0.7832031l-0.2177734-0.8603516l1.8222656-0.9746094h0.9619141
			v8.3408203H6.5834885V39.3577156z"/>
	</g>
</g>
<g transform="translate(345,442.6667)">
	<g class="st1">
		<path class="st2" d="M-45.8505936,39.3577156h-0.0253906l-1.4501953,0.7832031l-0.2177734-0.8603516l1.8222656-0.9746094
			h0.9619141v8.3408203h-1.0908203V39.3577156z"/>
		<path class="st2" d="M-41.6259842,45.9797859c0-0.4755859,0.3212891-0.8085938,0.7705078-0.8085938
			s0.7568359,0.3330078,0.7568359,0.8085938c0,0.4619141-0.2949219,0.8085938-0.7695313,0.8085938
			C-41.3173904,46.7883797-41.6259842,46.4417-41.6259842,45.9797859z"/>
		<path class="st2" d="M-34.0781326,39.2551765h-3.1826172l-0.3212891,2.1425781
			c0.1933594-0.0253906,0.3730469-0.0507813,0.6806641-0.0507813c0.6416016,0,1.2832031,0.140625,1.796875,0.4492188
			c0.6542969,0.3720703,1.1933594,1.0908203,1.1933594,2.1425781c0,1.6298828-1.2958984,2.8496094-3.1054688,2.8496094
			c-0.9111328,0-1.6816406-0.2568359-2.0791016-0.5136719l0.2822266-0.859375
			c0.3466797,0.2050781,1.0263672,0.4619141,1.7841797,0.4619141c1.0644531,0,1.9755859-0.6933594,1.9755859-1.8095703
			c-0.0126953-1.078125-0.7314453-1.8486328-2.3994141-1.8486328c-0.4746094,0-0.8466797,0.0517578-1.1552734,0.0898438
			l0.5390625-4.0029297h3.9912109V39.2551765z"/>
	</g>
</g>
<g transform="translate(435,442.6667)">
	<g class="st1">
		<path class="st2" d="M-90.2734451,46.6467781v-0.6933594l0.8857422-0.859375
			c2.1298828-2.0273438,3.0927734-3.1054688,3.1054688-4.3632813c0-0.8466797-0.4101563-1.6298828-1.6552734-1.6298828
			c-0.7568359,0-1.3857422,0.3857422-1.7705078,0.7060547l-0.359375-0.7958984
			c0.5771484-0.4873047,1.3984375-0.8466797,2.3603516-0.8466797c1.796875,0,2.5537109,1.2324219,2.5537109,2.4257813
			c0,1.5400391-1.1162109,2.7841797-2.8740234,4.4785156l-0.6669922,0.6152344v0.0263672h3.7470703v0.9365234H-90.2734451z"/>
	</g>
</g>
<g transform="translate(525,442.6667)">
	<g class="st1">
		<path class="st2" d="M-142.7070313,46.6467781v-0.6933594l0.8857422-0.859375
			c2.1298828-2.0273438,3.0927734-3.1054688,3.1054688-4.3632813c0-0.8466797-0.4101563-1.6298828-1.6552734-1.6298828
			c-0.7568359,0-1.3857422,0.3857422-1.7705078,0.7060547l-0.359375-0.7958984
			c0.5771484-0.4873047,1.3984375-0.8466797,2.3603516-0.8466797c1.796875,0,2.5537109,1.2324219,2.5537109,2.4257813
			c0,1.5400391-1.1162109,2.7841797-2.8740234,4.4785156l-0.6669922,0.6152344v0.0263672h3.7470703v0.9365234H-142.7070313z"/>
		<path class="st2" d="M-136.03125,45.9797859c0-0.4755859,0.3212891-0.8085938,0.7705078-0.8085938
			s0.7568359,0.3330078,0.7568359,0.8085938c0,0.4619141-0.2949219,0.8085938-0.7695313,0.8085938
			C-135.7226563,46.7883797-136.03125,46.4417-136.03125,45.9797859z"/>
		<path class="st2" d="M-128.4833984,39.2551765h-3.1826172l-0.3203125,2.1425781
			c0.1923828-0.0253906,0.3720703-0.0507813,0.6796875-0.0507813c0.6416016,0,1.2832031,0.140625,1.796875,0.4492188
			c0.6542969,0.3720703,1.1933594,1.0908203,1.1933594,2.1425781c0,1.6298828-1.2958984,2.8496094-3.1054688,2.8496094
			c-0.9111328,0-1.6816406-0.2568359-2.0791016-0.5136719l0.2822266-0.859375
			c0.3466797,0.2050781,1.0263672,0.4619141,1.7841797,0.4619141c1.0644531,0,1.9755859-0.6933594,1.9755859-1.8095703
			c-0.0126953-1.078125-0.7314453-1.8486328-2.3994141-1.8486328c-0.4746094,0-0.8466797,0.0517578-1.1552734,0.0898438
			l0.5390625-4.0029297h3.9912109V39.2551765z"/>
	</g>
</g>
<g>
	<line class="st0" x1="176.7654114" y1="470.9267578" x2="176.7654114" y2="282.6202087"/>
	<line class="st0" x1="390.7501526" y1="470.9267578" x2="390.7501526" y2="282.6202087"/>
	<line class="st0" x1="176.7654114" y1="470.9267578" x2="178.9052582" y2="470.9267578"/>
	<line class="st0" x1="176.7654114" y1="408.1578979" x2="178.9052582" y2="408.1578979"/>
	<line class="st0" x1="176.7654114" y1="345.3890686" x2="178.9052582" y2="345.3890686"/>
	<line class="st0" x1="176.7654114" y1="282.6202087" x2="178.9052582" y2="282.6202087"/>
	<line class="st0" x1="390.7501526" y1="470.9267578" x2="388.610321" y2="470.9267578"/>
	<line class="st0" x1="390.7501526" y1="408.1578979" x2="388.610321" y2="408.1578979"/>
	<line class="st0" x1="390.7501526" y1="345.3890686" x2="388.610321" y2="345.3890686"/>
	<line class="st0" x1="390.7501526" y1="282.6202087" x2="388.610321" y2="282.6202087"/>
</g>
<g transform="translate(64.3333,432)">
	<g class="st1">
		<path class="st2" d="M105.872261,39.8964729c0,2.8359375-1.0517578,4.4023438-2.9003906,4.4023438
			c-1.6298828,0-2.7333984-1.5273438-2.7587891-4.2861328c0-2.7978516,1.2060547-4.3378906,2.9003906-4.3378906
			C104.8712845,35.6747932,105.872261,37.2402229,105.872261,39.8964729z M101.3419876,40.0253792
			c0,2.1679688,0.6679688,3.4003906,1.6943359,3.4003906c1.1552734,0,1.7070313-1.3476563,1.7070313-3.4775391
			c0-2.0537109-0.5263672-3.4003906-1.6943359-3.4003906C102.0607376,36.5478401,101.3419876,37.7538948,101.3419876,40.0253792z"/>
	</g>
</g>
<g transform="translate(64.3333,300)">
	<g class="st1">
		<path class="st2" d="M105.3078079,105.9970627h-3.1826172l-0.3203125,2.1425781
			c0.1923828-0.0253906,0.3720703-0.0507813,0.6796875-0.0507813c0.6416016,0,1.2832031,0.140625,1.796875,0.4492188
			c0.6542969,0.3720703,1.1933594,1.0908203,1.1933594,2.1425781c0,1.6298828-1.2958984,2.8486328-3.1054688,2.8486328
			c-0.9111328,0-1.6816406-0.2568359-2.0791016-0.5126953l0.2822266-0.8603516
			c0.3466797,0.2060547,1.0263672,0.4619141,1.7841797,0.4619141c1.0644531,0,1.9755859-0.6923828,1.9755859-1.8095703
			c-0.0126953-1.0771484-0.7314453-1.8476563-2.3994141-1.8476563c-0.4746094,0-0.8466797,0.0517578-1.1552734,0.0898438
			l0.5390625-4.0039063h3.9912109V105.9970627z"/>
	</g>
</g>
<g transform="translate(64.3333,168)">
	<g class="st1">
		<path class="st2" d="M95.6466751,175.3310394h-0.0253906l-1.4501953,0.7827148l-0.2177734-0.859375l1.8222656-0.9755859h0.9619141
			v8.3413086h-1.0908203V175.3310394z"/>
		<path class="st2" d="M105.325386,178.359848c0,2.8359375-1.0517578,4.4013672-2.9003906,4.4013672
			c-1.6298828,0-2.7333984-1.5268555-2.7587891-4.2861328c0-2.7973633,1.2060547-4.3374023,2.9003906-4.3374023
			C104.3244095,174.1376801,105.325386,175.7031097,105.325386,178.359848z M100.7951126,178.4877777
			c0,2.1689453,0.6679688,3.4008789,1.6943359,3.4008789c1.1552734,0,1.7070313-1.3476563,1.7070313-3.4775391
			c0-2.0532227-0.5263672-3.4008789-1.6943359-3.4008789C101.5138626,175.0102386,100.7951126,176.2167816,100.7951126,178.4877777z
			"/>
	</g>
</g>
<g transform="translate(64.3333,36)">
	<g class="st1">
		<path class="st2" d="M95.6466751,244.5619965h-0.0253906l-1.4501953,0.7827148l-0.2177734-0.859375l1.8222656-0.9755859h0.9619141
			v8.3413086h-1.0908203V244.5619965z"/>
		<path class="st2" d="M104.7609329,244.4594574h-3.1826172l-0.3203125,2.1430664
			c0.1923828-0.0258789,0.3720703-0.0512695,0.6796875-0.0512695c0.6416016,0,1.2832031,0.1411133,1.796875,0.4492188
			c0.6542969,0.3720703,1.1933594,1.0908203,1.1933594,2.1430664c0,1.6293945-1.2958984,2.8486328-3.1054688,2.8486328
			c-0.9111328,0-1.6816406-0.2568359-2.0791016-0.5131836l0.2822266-0.8598633
			c0.3466797,0.2050781,1.0263672,0.4619141,1.7841797,0.4619141c1.0644531,0,1.9755859-0.6928711,1.9755859-1.8095703
			c-0.0126953-1.0776367-0.7314453-1.8476563-2.3994141-1.8476563c-0.4746094,0-0.8466797,0.0512695-1.1552734,0.0898438
			l0.5390625-4.0039063h3.9912109V244.4594574z"/>
	</g>
</g>
<g>
	<path class="st3" d="M176.7654114,458.3729858l42.7969513-7.8460999l42.7969513-12.7499084l42.796936-20.7186279
		l42.7969666-33.6677856l42.796936-54.7101135"/>
	<path class="st4" d="M176.7654114,454.5688171v7.6083679 M172.9612427,458.3729858h7.6083527"/>
	<path class="st4" d="M219.5623627,446.7227173v7.6083374 M215.758194,450.526886h7.6083374"/>
	<path class="st4" d="M262.359314,433.9728088v7.6083374 M258.5551453,437.7769775h7.6083374"/>
	<path class="st4" d="M305.15625,413.2541809v7.6083374 M301.3520813,417.0583496h7.6083374"/>
	<path class="st4" d="M347.9532166,379.5863953v7.6083374 M344.1490479,383.390564h7.6083374"/>
	<path class="st4" d="M390.7501526,324.8762817v7.6083374 M386.9459839,328.6804504h7.6083374"/>
	<path class="st5" d="M176.7654114,458.3729858l2.1614838-0.3210449l2.161438-0.3292847l2.1614838-0.3376465l2.161438-0.3463135
		l2.1614838-0.3551941l2.161438-0.3642273l2.1614838-0.3735657l2.161438-0.3831482l2.1614838-0.3929138l2.161438-0.4030151
		l2.1614838-0.413269l2.1614838-0.4238281l2.1614227-0.4347229l2.161499-0.4458008l2.1614227-0.4572144l2.1614838-0.4688721
		l2.161438-0.480896l2.161499-0.4931946l2.1614227-0.5057678l2.1614838-0.5187683l2.161438-0.5319824l2.1614838-0.5456238
		l2.1614838-0.5595703l2.161438-0.5738831l2.1614838-0.588562l2.161438-0.6035767l2.1614838-0.6190186l2.161438-0.6348877
		l2.1614838-0.651062l2.161438-0.6677856l2.1614838-0.684845l2.1614227-0.7023621l2.1614838-0.7203064l2.1614838-0.7387085
		l2.161438-0.7576294l2.1614838-0.7769775l2.161438-0.7969055l2.1614685-0.8172302l2.1614685-0.8381348l2.1614685-0.8596191
		l2.161438-0.8815613l2.1614685-0.9041138l2.161499-0.9272156l2.161438-0.9509583l2.161438-0.9752808l2.1614685-1.0002136
		l2.161499-1.0257568l2.161438-1.0520325l2.1614685-1.0789185l2.161438-1.1065369L287,425.4182129l2.1614075-1.1638184
		l2.161499-1.1936035l2.1614685-1.2241211l2.161438-1.2554321l2.1614685-1.2875671l2.1614685-1.3204651l2.161499-1.354248
		l2.1614075-1.388855l2.161499-1.4243774l2.161438-1.4607849l2.1614685-1.49823l2.161438-1.5364685l2.161499-1.5757751
		l2.1614685-1.6161194l2.161438-1.6573792l2.161499-1.6998596l2.161438-1.7432556l2.1614685-1.7878113l2.161438-1.8336182
		l2.1614685-1.8804321l2.1614685-1.9285889l2.1614685-1.9778748l2.161438-2.0285034l2.1614685-2.0802917l2.161499-2.1335144
		l2.161438-2.1881104l2.1614685-2.2441101l2.161438-2.3014526l2.161499-2.360321l2.161438-2.4206848l2.1614685-2.4825439
		l2.161438-2.5460815l2.161499-2.6112061l2.1614075-2.677948l2.161499-2.74646l2.1614685-2.8166504l2.161438-2.8887634
		l2.1614685-2.9625854l2.1614685-3.0383911l2.161499-3.1160583l2.1614075-3.1957397l2.161499-3.2774658l2.161438-3.3613281
		l2.1614685-3.4472961l2.161438-3.5354004l2.161499-3.6258545l2.161438-3.7185974l2.1614685-3.8136292"/>
</g>
</svg>
