<?xml version="1.0" encoding="utf-8"?>
<!-- Generator: Adobe Illustrator 19.0.0, SVG Export Plug-In . SVG Version: 6.00 Build 0)  -->
<svg version="1.1" id="Layer_1" xmlns="http://www.w3.org/2000/svg" xmlns:xlink="http://www.w3.org/1999/xlink" x="0px" y="0px"
	 viewBox="22 172 250 216.5" style="enable-background:new 22 172 250 216.5;" xml:space="preserve">
<style type="text/css">
	.st0{fill:#FFFFFF;}
	.st1{fill:none;stroke:#262626;stroke-linecap:square;stroke-linejoin:round;stroke-miterlimit:10;}
	.st2{enable-background:new    ;}
	.st3{fill:#262626;}
	.st4{fill:none;stroke:#0072BD;stroke-linejoin:round;stroke-miterlimit:10;}
	.st5{fill:none;stroke:#0072BD;stroke-miterlimit:10;}
	.st6{fill:none;stroke:#D95319;stroke-linejoin:round;stroke-miterlimit:10;}
</style>
<path class="st0" d="M46.6649513,367.1485596h213.8840637V178.7821045H46.6649513V367.1485596z"/>
<g>
	<line class="st1" x1="46.6649513" y1="367.1485596" x2="260.5490112" y2="367.1485596"/>
	<line class="st1" x1="46.6649513" y1="178.7821045" x2="260.5490112" y2="178.7821045"/>
	<line class="st1" x1="46.6649513" y1="367.1485596" x2="46.6649513" y2="365.0097046"/>
	<line class="st1" x1="89.4417648" y1="367.1485596" x2="89.4417648" y2="365.0097046"/>
	<line class="st1" x1="132.2185822" y1="367.1485596" x2="132.2185822" y2="365.0097046"/>
	<line class="st1" x1="174.9953918" y1="367.1485596" x2="174.9953918" y2="365.0097046"/>
	<line class="st1" x1="217.7722015" y1="367.1485596" x2="217.7722015" y2="365.0097046"/>
	<line class="st1" x1="260.5490112" y1="367.1485596" x2="260.5490112" y2="365.0097046"/>
	<line class="st1" x1="46.6649513" y1="178.7821045" x2="46.6649513" y2="180.9209442"/>
	<line class="st1" x1="89.4417648" y1="178.7821045" x2="89.4417648" y2="180.9209442"/>
	<line class="st1" x1="132.2185822" y1="178.7821045" x2="132.2185822" y2="180.9209442"/>
	<line class="st1" x1="174.9953918" y1="178.7821045" x2="174.9953918" y2="180.9209442"/>
	<line class="st1" x1="217.7722015" y1="178.7821045" x2="217.7722015" y2="180.9209442"/>
	<line class="st1" x1="260.5490112" y1="178.7821045" x2="260.5490112" y2="180.9209442"/>
</g>
<g transform="translate(77,453.6667)">
	<g class="st2">
		<path class="st3" d="M-28.0712891-72.7379761c0,2.7685547-1.0273438,4.296875-2.8310547,4.296875
			c-1.5913086,0-2.668457-1.4907227-2.6933594-4.184082c0-2.730957,1.1772461-4.234375,2.8310547-4.234375
			C-29.0483398-76.8595581-28.0712891-75.3312378-28.0712891-72.7379761z M-32.4936523-72.6124878
			c0,2.1171875,0.6518555,3.3198242,1.6538086,3.3198242c1.1274414,0,1.6660156-1.3154297,1.6660156-3.3950195
			c0-2.0043945-0.5136719-3.3198242-1.6533203-3.3198242C-31.7919922-76.0075073-32.4936523-74.8297729-32.4936523-72.6124878z"/>
	</g>
</g>
<g transform="translate(169.2,453.6667)">
	<g class="st2">
		<path class="st3" d="M-82.5979462-72.7379761c0,2.7685547-1.0273438,4.296875-2.8310547,4.296875
			c-1.5913086,0-2.668457-1.4907227-2.6933594-4.184082c0-2.730957,1.1772461-4.234375,2.8310547-4.234375
			C-83.5749969-76.8595581-82.5979462-75.3312378-82.5979462-72.7379761z M-87.0203094-72.6124878
			c0,2.1171875,0.6513672,3.3198242,1.6538086,3.3198242c1.1274414,0,1.6660156-1.3154297,1.6660156-3.3950195
			c0-2.0043945-0.5136719-3.3198242-1.6533203-3.3198242C-86.3186493-76.0075073-87.0203094-74.8297729-87.0203094-72.6124878z"/>
		<path class="st3" d="M-81.4958954-69.2301636c0-0.4633789,0.3134766-0.7890625,0.7519531-0.7890625
			c0.4379883,0,0.7387695,0.3256836,0.7387695,0.7890625c0,0.4511719-0.2880859,0.7890625-0.7514648,0.7890625
			C-81.1951141-68.4411011-81.4958954-68.7789917-81.4958954-69.2301636z"/>
		<path class="st3" d="M-74.1301727-75.7946167h-3.1069336l-0.3129883,2.0922852
			c0.1879883-0.0253906,0.3632813-0.050293,0.6640625-0.050293c0.6264648,0,1.2524414,0.1376953,1.7539063,0.4384766
			c0.6386719,0.3632813,1.1650391,1.0649414,1.1650391,2.0922852c0,1.5908203-1.265625,2.7807617-3.0317383,2.7807617
			c-0.8896484,0-1.6411133-0.2504883-2.0292969-0.5009766l0.2753906-0.8393555
			c0.3383789,0.2006836,1.0019531,0.4511719,1.7412109,0.4511719c1.0400391,0,1.9291992-0.6767578,1.9291992-1.7666016
			c-0.012207-1.0522461-0.7138672-1.8037109-2.3422852-1.8037109c-0.4638672,0-0.8271484,0.0498047-1.1279297,0.0874023
			l0.5263672-3.9086914h3.8959961V-75.7946167z"/>
	</g>
</g>
<g transform="translate(261.4,453.6667)">
	<g class="st2">
		<path class="st3" d="M-129.936615-75.694519h-0.0249023l-1.4160156,0.7641602l-0.2128906-0.8393555l1.7788086-0.9521484h0.9399414
			v8.1430664h-1.0649414V-75.694519z"/>
	</g>
</g>
<g transform="translate(353.6,453.6667)">
	<g class="st2">
		<path class="st3" d="M-184.4632874-75.694519h-0.0249023l-1.4160156,0.7641602l-0.2128906-0.8393555l1.7788086-0.9521484
			h0.9399414v8.1430664h-1.0649414V-75.694519z"/>
		<path class="st3" d="M-180.3421936-69.2301636c0-0.4633789,0.3134766-0.7890625,0.7519531-0.7890625
			c0.4379883,0,0.7387695,0.3256836,0.7387695,0.7890625c0,0.4511719-0.2880859,0.7890625-0.7514648,0.7890625
			C-180.0414124-68.4411011-180.3421936-68.7789917-180.3421936-69.2301636z"/>
		<path class="st3" d="M-172.9764709-75.7946167h-3.1069336l-0.3129883,2.0922852
			c0.1879883-0.0253906,0.3632813-0.050293,0.6640625-0.050293c0.6264648,0,1.2524414,0.1376953,1.7539063,0.4384766
			c0.6386719,0.3632813,1.1650391,1.0649414,1.1650391,2.0922852c0,1.5908203-1.265625,2.7807617-3.0317383,2.7807617
			c-0.8896484,0-1.6411133-0.2504883-2.0292969-0.5009766l0.2753906-0.8393555
			c0.3383789,0.2006836,1.0019531,0.4511719,1.7412109,0.4511719c1.0400391,0,1.9291992-0.6767578,1.9291992-1.7666016
			c-0.012207-1.0522461-0.7138672-1.8037109-2.3422852-1.8037109c-0.4638672,0-0.8271484,0.0498047-1.1279297,0.0874023
			l0.5263672-3.9086914h3.8959961V-75.7946167z"/>
	</g>
</g>
<g transform="translate(445.8,453.6667)">
	<g class="st2">
		<path class="st3" d="M-231.1759644-68.5787964v-0.6762695l0.8642578-0.8393555
			c2.0795898-1.9794922,3.019043-3.0317383,3.0317383-4.2597656c0-0.8266602-0.4008789-1.5908203-1.6162109-1.5908203
			c-0.7392578,0-1.3530273,0.3759766-1.7290039,0.6889648l-0.3505859-0.7763672
			c0.5639648-0.4760742,1.3657227-0.8271484,2.3051758-0.8271484c1.7539063,0,2.4926758,1.2026367,2.4926758,2.3676758
			c0,1.503418-1.0898438,2.71875-2.8061523,4.3720703l-0.6513672,0.6015625v0.0249023h3.6582031v0.9145508H-231.1759644z"/>
	</g>
</g>
<g transform="translate(538,453.6667)">
	<g class="st2">
		<path class="st3" d="M-285.7026367-68.5787964v-0.6762695l0.8642578-0.8393555
			c2.0795898-1.9794922,3.019043-3.0317383,3.0317383-4.2597656c0-0.8266602-0.4008789-1.5908203-1.6162109-1.5908203
			c-0.7392578,0-1.3530273,0.3759766-1.7290039,0.6889648l-0.3505859-0.7763672
			c0.5639648-0.4760742,1.3657227-0.8271484,2.3051758-0.8271484c1.7539063,0,2.4926758,1.2026367,2.4926758,2.3676758
			c0,1.503418-1.0898438,2.71875-2.8061523,4.3720703l-0.6513672,0.6015625v0.0249023h3.6582031v0.9145508H-285.7026367z"/>
		<path class="st3" d="M-279.1889648-69.2301636c0-0.4633789,0.3134766-0.7890625,0.7514648-0.7890625
			c0.4384766,0,0.7392578,0.3256836,0.7392578,0.7890625c0,0.4511719-0.2880859,0.7890625-0.7514648,0.7890625
			C-278.8881836-68.4411011-279.1889648-68.7789917-279.1889648-69.2301636z"/>
		<path class="st3" d="M-271.8232422-75.7946167h-3.1069336l-0.3129883,2.0922852
			c0.1879883-0.0253906,0.3632813-0.050293,0.6640625-0.050293c0.6264648,0,1.2524414,0.1376953,1.7539063,0.4384766
			c0.6386719,0.3632813,1.1650391,1.0649414,1.1650391,2.0922852c0,1.5908203-1.265625,2.7807617-3.0317383,2.7807617
			c-0.8896484,0-1.6411133-0.2504883-2.0292969-0.5009766l0.2753906-0.8393555
			c0.3383789,0.2006836,1.0024414,0.4511719,1.7412109,0.4511719c1.0400391,0,1.9291992-0.6767578,1.9291992-1.7666016
			c-0.012207-1.0522461-0.7138672-1.8037109-2.3422852-1.8037109c-0.4638672,0-0.8271484,0.0498047-1.1274414,0.0874023
			l0.5258789-3.9086914h3.8959961V-75.7946167z"/>
	</g>
</g>
<g>
	<line class="st1" x1="46.6649513" y1="367.1485596" x2="46.6649513" y2="178.7821045"/>
	<line class="st1" x1="260.5490112" y1="367.1485596" x2="260.5490112" y2="178.7821045"/>
	<line class="st1" x1="46.6649513" y1="367.1485596" x2="48.8037949" y2="367.1485596"/>
	<line class="st1" x1="46.6649513" y1="304.3597412" x2="48.8037949" y2="304.3597412"/>
	<line class="st1" x1="46.6649513" y1="241.5709076" x2="48.8037949" y2="241.5709076"/>
	<line class="st1" x1="46.6649513" y1="178.7821045" x2="48.8037949" y2="178.7821045"/>
	<line class="st1" x1="260.5490112" y1="367.1485596" x2="258.4101868" y2="367.1485596"/>
	<line class="st1" x1="260.5490112" y1="304.3597412" x2="258.4101868" y2="304.3597412"/>
	<line class="st1" x1="260.5490112" y1="241.5709076" x2="258.4101868" y2="241.5709076"/>
	<line class="st1" x1="260.5490112" y1="178.7821045" x2="258.4101868" y2="178.7821045"/>
</g>
<g transform="translate(66.3333,443)">
	<g class="st2">
		<path class="st3" d="M-26.064743-74.9077148c0,2.7685547-1.0273438,4.296875-2.8310547,4.296875
			c-1.5913086,0-2.668457-1.4907227-2.6933594-4.184082c0-2.730957,1.1772461-4.234375,2.8310547-4.234375
			C-27.0417938-79.0292969-26.064743-77.5009766-26.064743-74.9077148z M-30.4871063-74.7822266
			c0,2.1171875,0.6518555,3.3198242,1.6538086,3.3198242c1.1274414,0,1.6660156-1.3154297,1.6660156-3.3950195
			c0-2.0043945-0.5136719-3.3198242-1.6533203-3.3198242C-29.7854462-78.1772461-30.4871063-76.9995117-30.4871063-74.7822266z"/>
	</g>
</g>
<g transform="translate(66.3333,307.6667)">
	<g class="st2">
		<path class="st3" d="M-26.6160126-5.4196167h-3.1069336l-0.3129883,2.0922852
			c0.1879883-0.0253906,0.3632813-0.050293,0.6640625-0.050293c0.6264648,0,1.2524414,0.1376953,1.7539063,0.4384766
			c0.6386719,0.3632813,1.1650391,1.0649414,1.1650391,2.0922852c0,1.5908203-1.265625,2.7807617-3.0317383,2.7807617
			c-0.8896484,0-1.6411133-0.2504883-2.0292969-0.5009766l0.2753906-0.8393555
			c0.3383789,0.2006836,1.0019531,0.4511719,1.7412109,0.4511719c1.0400391,0,1.9291992-0.6767578,1.9291992-1.7666016
			c-0.012207-1.0522461-0.7138672-1.8037109-2.3422852-1.8037109c-0.4638672,0-0.8271484,0.0498047-1.1279297,0.0874023
			l0.5263672-3.9086914h3.8959961V-5.4196167z"/>
	</g>
</g>
<g transform="translate(66.3333,172.3333)">
	<g class="st2">
		<path class="st3" d="M-36.0432587,67.2248077h-0.0249023l-1.4160156,0.7641602l-0.2128906-0.8393555l1.7788086-0.9521484
			h0.9399414v8.1430664h-1.0649414V67.2248077z"/>
		<path class="st3" d="M-26.5979462,70.1813507c0,2.7685547-1.0273438,4.296875-2.8310547,4.296875
			c-1.5913086,0-2.668457-1.4907227-2.6933594-4.184082c0-2.730957,1.1772461-4.234375,2.8310547-4.234375
			C-27.5749969,66.0597687-26.5979462,67.588089-26.5979462,70.1813507z M-31.0203094,70.306839
			c0,2.1171875,0.6518555,3.3198242,1.6538086,3.3198242c1.1274414,0,1.6660156-1.3154297,1.6660156-3.3950195
			c0-2.0043945-0.5136719-3.3198242-1.6533203-3.3198242C-30.3186493,66.9118195-31.0203094,68.0895538-31.0203094,70.306839z"/>
	</g>
</g>
<g transform="translate(66.3333,37)">
	<g class="st2">
		<path class="st3" d="M-36.0432587,139.7695313h-0.0249023l-1.4160156,0.7641602l-0.2128906-0.8393555l1.7788086-0.9521484
			h0.9399414v8.1430664h-1.0649414V139.7695313z"/>
		<path class="st3" d="M-27.1492157,139.6694336h-3.1069336l-0.3129883,2.0922852
			c0.1879883-0.0253906,0.3632813-0.050293,0.6640625-0.050293c0.6264648,0,1.2524414,0.1376953,1.7539063,0.4384766
			c0.6386719,0.3632813,1.1650391,1.0649414,1.1650391,2.0922852c0,1.5908203-1.265625,2.7807617-3.0317383,2.7807617
			c-0.8896484,0-1.6411133-0.2504883-2.0292969-0.5009766l0.2753906-0.8393555
			c0.3383789,0.2001953,1.0019531,0.4511719,1.7412109,0.4511719c1.0400391,0,1.9291992-0.6767578,1.9291992-1.7666016
			c-0.012207-1.0522461-0.7138672-1.8037109-2.3422852-1.8037109c-0.4638672,0-0.8271484,0.0498047-1.1279297,0.0874023
			l0.5263672-3.9086914h3.8959961V139.6694336z"/>
	</g>
</g>
<g>
	<path class="st4" d="M46.6649513,354.5907593l42.7768135-6.2788696l42.7768173-9.4183044l42.7768097-14.1275024
		l42.7768097-21.1911926l42.7768097-31.7868652"/>
	<path class="st5" d="M46.6649513,350.8791199v7.4233093 M42.9532967,354.5907593h7.4233093"/>
	<path class="st5" d="M89.4417648,344.6002502v7.4233093 M85.7301102,348.3118896h7.4233093"/>
	<path class="st5" d="M132.2185822,335.1819458v7.4233093 M128.5069275,338.8935852h7.4232941"/>
	<path class="st5" d="M174.9953918,321.0544434v7.4233093 M171.2837372,324.7660828h7.4233093"/>
	<path class="st5" d="M217.7722015,299.8632202v7.4233093 M214.0605469,303.5748901h7.4233093"/>
	<path class="st5" d="M260.5490112,268.0763855v7.4233093 M256.8373718,271.7880249h7.4233093"/>
	<path class="st6" d="M46.6649513,354.5907593l2.1604614-0.3211365l2.1604156-0.3293762l2.1604614-0.337738l2.1604576-0.3464661
		l2.1604156-0.3552856l2.1604614-0.3643799l2.1604614-0.3736877l2.1604156-0.3832703l2.1604614-0.3930054l2.1604614-0.4031372
		l2.1604156-0.4133911l2.1604614-0.4240112l2.1604614-0.4348145l2.160408-0.4459534l2.1604614-0.4573059l2.1604614-0.4690857
		l2.1604233-0.4810181l2.1604614-0.4933777l2.160408-0.5059509l2.1604614-0.5188904l2.1604614-0.532196l2.1604156-0.5457458
		l2.1604614-0.5597534l2.1604614-0.5740662l2.160408-0.5887756l2.1604614-0.6037292l2.1604614-0.6192627l2.1604233-0.6350403
		l2.1604614-0.6513062l2.1604614-0.6679993l2.160408-0.6850586l2.1604614-0.7025757l2.1604614-0.7205505l2.1604156-0.7389526
		l2.1604614-0.7578735l2.1604614-0.7772217l2.160408-0.7971191l2.1604691-0.8175354l2.1604004-0.8383789l2.1604767-0.8598938
		l2.1604462-0.8818359l2.1604309-0.9043884l2.1604614-0.9275513l2.1604462-0.9512634l2.1604309-0.9755554l2.1604462-1.0005188
		l2.1604767-1.026123l2.1604462-1.0523376l2.1604156-1.0792542l2.1604767-1.1068726l2.1604004-1.1352234l2.1604614-1.1641846
		l2.1604614-1.1939697l2.1604614-1.2245483l2.1604309-1.2557983l2.1604462-1.2879639l2.1604614-1.3208923l2.1604156-1.3546753
		l2.1604614-1.3893127l2.1604614-1.4248352l2.1604156-1.4612732l2.1604614-1.4986572l2.1604004-1.5369568l2.1604767-1.5762939
		l2.1604462-1.6166077l2.1604309-1.657959l2.1604614-1.7003479l2.1604614-1.7438354l2.1604156-1.7883911l2.1604462-1.8341675
		l2.1604156-1.881073l2.1604767-1.9291687l2.1604462-1.9785156l2.1604767-2.0291138l2.1604004-2.0809631l2.1604614-2.1342468
		l2.1604309-2.1888123l2.1604462-2.2447815l2.1604767-2.3021851l2.1604004-2.361084l2.1604614-2.4214478l2.1604614-2.4833679
		l2.1604614-2.5468445l2.1604156-2.61203l2.1604614-2.678833l2.1604614-2.7473145l2.1604004-2.8175659l2.1604767-2.8896637
		l2.1604156-2.9635315l2.1604614-3.0393372l2.1604614-3.1170349l2.1604614-3.1968079l2.1604156-3.2785034l2.1604614-3.3623962
		l2.1604156-3.448349l2.1604462-3.5365601l2.1604462-3.6270294l2.1604309-3.7197266l2.1604614-3.8148804"/>
</g>
</svg>
