<?xml version="1.0" encoding="utf-8"?>
<!-- Generator: Adobe Illustrator 19.0.0, SVG Export Plug-In . SVG Version: 6.00 Build 0)  -->
<svg version="1.1" id="Layer_1" xmlns="http://www.w3.org/2000/svg" xmlns:xlink="http://www.w3.org/1999/xlink" x="0px" y="0px"
	 viewBox="0 0 201.5 135.5" style="enable-background:new 0 0 201.5 135.5;" xml:space="preserve">
<style type="text/css">
	.st0{fill:none;stroke:#5E81B5;stroke-linecap:square;stroke-miterlimit:3.25;}
	.st1{fill:none;stroke:#000000;stroke-miterlimit:3.25;}
</style>
<polyline class="st0" points="8.0238066,115.8254852 8.0791359,115.8216934 8.131753,115.8151779 8.240242,115.8065033 
	8.4561348,115.7875137 8.888463,115.7473755 9.7552891,115.6708908 11.4840603,115.514122 15.2366905,115.177269 
	18.7392559,114.8593979 22.174015,114.5458603 25.8989811,114.2024918 29.376049,113.8802795 33.1438675,113.5222702 
	36.8433418,113.1664276 40.2927437,112.8274002 44.0350723,112.4525681 47.526783,112.0923843 50.9512367,111.7300339 
	54.6675224,111.3248291 58.134285,110.9353485 61.8912582,110.4965134 65.5820541,110.0473709 69.0211487,109.6107025 
	72.7526245,109.1149063 76.2362061,108.6299591 80.0099869,108.074501 83.7159729,107.496254 87.1718826,106.9261398 
	90.9201736,106.2649078 94.4189453,105.605835 97.8493576,104.9131317 101.5721588,104.1016388 105.0448837,103.2792892 
	108.8083649,102.3088608 112.5034943,101.2624817 115.9512711,100.1835632 119.6892624,98.8849487 123.1766357,97.5310059 
	126.5989151,96.0414505 130.3092346,94.2041931 133.7732849,92.2399979 137.5259094,89.769165 141.0328217,87.0569458 
	141.1391296,86.9679871 141.2470856,86.8768539 141.4608154,86.692421 141.890976,86.3219299 142.751297,85.5527496 
	144.4697571,83.9102249 144.5272522,83.8532639 144.5842133,83.794136 144.7008362,83.6775131 144.934082,83.4399261 
	145.4000397,82.9571457 146.3325043,81.9547119 148.1968842,79.7827682 148.2500458,79.7171249 148.3048401,79.6493225 
	148.4133148,79.51371 148.6313782,79.242485 149.0658875,78.687027 149.9365082,77.5326996 149.9896698,77.4583893 
	150.0449829,77.384079 150.1529388,77.2359848 150.3710022,76.9327621 150.8054962,76.3160019 151.6761322,75.0298691 
	151.7357941,74.9409027 151.7927551,74.8497696 151.9115448,74.6696777 152.1469574,74.3029938 152.6194305,73.5533295 
	153.5600281,71.9786148 153.678833,71.7751999 153.7970886,71.5696106 154.0325012,71.1546402 154.5028076,70.3024673 
	155.446106,68.5080566 155.503067,68.3936005 155.5622101,68.2791443 155.676651,68.0480576 155.9077301,67.5820999 
	156.3720551,66.6241455 157.2958527,64.6029968 157.3549805,64.4711838 157.4124756,64.3399124 157.5285645,64.0730286 
	157.7596436,63.5370941 158.2218018,62.4310493 159.1477509,60.0893173 159.2003784,59.9477386 159.2557068,59.8056183 
	159.3636475,59.5175819 159.5800781,58.9344559 160.0102386,57.7372742 160.8743591,55.2035217 160.9275208,55.0380707 
	160.9828339,54.8726311 161.0907898,54.537941 161.3045197,53.8598824 161.7368469,52.4636307 162.5993347,49.4970016 
	162.6584625,49.2870827 162.7181244,49.0755272 162.8347473,48.6491623 163.0674591,47.7828751 163.5361328,45.9879341 
	164.4723969,42.1295204 164.5320587,41.8772888 164.5890198,41.6207085 164.7056427,41.1059341 164.9405212,40.0552101 
	165.4091949,37.8724213 166.3432922,33.1515274 166.3986053,32.8613167 166.4539337,32.5667686 166.5640564,31.9755058 
	166.7821198,30.7680264 167.2187805,28.2570438 168.0915833,22.8114433 168.1469116,22.4512672 168.2017059,22.0867386 
	168.3096466,21.3533592 168.528244,19.8535004 168.9665527,16.7192554 169.3544006,13.674511 "/>
<line class="st1" x1="8.0238066" y1="115.8254852" x2="8.0238066" y2="113.6497421"/>
<line class="st1" x1="16.4425449" y1="115.8254852" x2="16.4425449" y2="114.5203705"/>
<line class="st1" x1="24.8585701" y1="115.8254852" x2="24.8585701" y2="114.5203705"/>
<line class="st1" x1="33.2773094" y1="115.8254852" x2="33.2773094" y2="114.5203705"/>
<line class="st1" x1="41.695507" y1="115.8254852" x2="41.695507" y2="114.5203705"/>
<line class="st1" x1="50.1120758" y1="115.8254852" x2="50.1120758" y2="113.6497421"/>
<g>
	<path d="M44.3300781,123.0986328c0.6655273,0,1.1860352,0.2382813,1.5610352,0.7128906
		c0.4467773,0.5625,0.6704102,1.4951172,0.6704102,2.7988281c0,1.2998047-0.2250977,2.234375-0.675293,2.8027344
		c-0.371582,0.46875-0.890625,0.703125-1.5561523,0.703125c-0.668457,0-1.2075195-0.2568359-1.6171875-0.7714844
		c-0.4091797-0.5136719-0.6137695-1.4296875-0.6137695-2.7490234c0-1.2939453,0.2246094-2.2246094,0.6748047-2.7939453
		C43.1459961,123.3330078,43.6645508,123.0986328,44.3300781,123.0986328z M44.3300781,124.1914063
		c-0.1591797,0-0.3012695,0.0507813-0.4262695,0.1523438s-0.222168,0.2832031-0.2910156,0.5458984
		c-0.090332,0.3408203-0.1357422,0.9140625-0.1357422,1.7207031c0,0.8056641,0.0405273,1.359375,0.1220703,1.6611328
		c0.0810547,0.3017578,0.1835938,0.5029297,0.3066406,0.6025391c0.1235352,0.0996094,0.2651367,0.1503906,0.4243164,0.1503906
		c0.159668,0,0.3017578-0.0507813,0.4267578-0.1523438s0.2216797-0.2841797,0.2905273-0.546875
		c0.0908203-0.3369141,0.1357422-0.9091797,0.1357422-1.7148438c0-0.8066406-0.0405273-1.3603516-0.121582-1.6621094
		c-0.081543-0.3017578-0.1835938-0.5029297-0.3071289-0.6044922S44.4897461,124.1914063,44.3300781,124.1914063z"/>
	<path d="M47.7236328,129.9990234v-1.3173828h1.3173828v1.3173828H47.7236328z"/>
	<path d="M50.1289063,128.2314453l1.3125-0.1357422c0.0371094,0.296875,0.1484375,0.5322266,0.3325195,0.7060547
		c0.1845703,0.1728516,0.3969727,0.2597656,0.6376953,0.2597656c0.2749023,0,0.5078125-0.1113281,0.6982422-0.3349609
		c0.190918-0.2236328,0.2861328-0.5605469,0.2861328-1.0107422c0-0.421875-0.0947266-0.7382813-0.2836914-0.9492188
		s-0.4350586-0.3164063-0.7382813-0.3164063c-0.3779297,0-0.7172852,0.1679688-1.0170898,0.5019531l-1.0688477-0.1542969
		l0.6748047-3.5771484h3.4829102v1.2333984h-2.484375l-0.2060547,1.1669922
		c0.293457-0.1474609,0.59375-0.2207031,0.8999023-0.2207031c0.5844727,0,1.0795898,0.2128906,1.4858398,0.6376953
		s0.609375,0.9765625,0.609375,1.6542969c0,0.5664063-0.1640625,1.0703125-0.4921875,1.5146484
		c-0.4467773,0.6064453-1.0668945,0.9091797-1.8608398,0.9091797c-0.6342773,0-1.1513672-0.1699219-1.5517578-0.5107422
		C50.4458008,129.2646484,50.2070313,128.8066406,50.1289063,128.2314453z"/>
</g>
<line class="st1" x1="58.5302734" y1="115.8254852" x2="58.5302734" y2="114.5203705"/>
<line class="st1" x1="66.9490128" y1="115.8254852" x2="66.9490128" y2="114.5203705"/>
<line class="st1" x1="75.3655777" y1="115.8254852" x2="75.3655777" y2="114.5203705"/>
<line class="st1" x1="83.7837753" y1="115.8254852" x2="83.7837753" y2="114.5203705"/>
<line class="st1" x1="92.202507" y1="115.8254852" x2="92.202507" y2="113.6497421"/>
<g>
	<path d="M87.5620117,129.9990234h-1.3173828v-4.9638672c-0.4814453,0.4501953-1.0483398,0.7822266-1.7016602,0.9980469v-1.1953125
		c0.34375-0.1123047,0.7172852-0.3251953,1.1206055-0.6396484c0.402832-0.3144531,0.6796875-0.6806641,0.8295898-1.0996094
		h1.0688477V129.9990234z"/>
	<path d="M89.8115234,129.9990234v-1.3173828h1.3173828v1.3173828H89.8115234z"/>
	<path d="M94.4243164,123.0986328c0.6660156,0,1.1855469,0.2382813,1.5605469,0.7128906
		c0.4472656,0.5625,0.6699219,1.4951172,0.6699219,2.7988281c0,1.2998047-0.2246094,2.234375-0.6738281,2.8027344
		c-0.3730469,0.46875-0.890625,0.703125-1.5566406,0.703125c-0.6679688,0-1.2070313-0.2568359-1.6171875-0.7714844
		c-0.4091797-0.5136719-0.6137695-1.4296875-0.6137695-2.7490234c0-1.2939453,0.2246094-2.2246094,0.6748047-2.7939453
		C93.2407227,123.3330078,93.7583008,123.0986328,94.4243164,123.0986328z M94.4243164,124.1914063
		c-0.1601563,0-0.3007813,0.0507813-0.4257813,0.1523438s-0.2226563,0.2832031-0.2910156,0.5458984
		c-0.0908203,0.3408203-0.1367188,0.9140625-0.1367188,1.7207031c0,0.8056641,0.0410156,1.359375,0.1230469,1.6611328
		c0.0800781,0.3017578,0.1835938,0.5029297,0.3066406,0.6025391s0.2636719,0.1503906,0.4238281,0.1503906
		s0.3007813-0.0507813,0.4257813-0.1523438s0.2226563-0.2841797,0.2910156-0.546875
		c0.0917969-0.3369141,0.1367188-0.9091797,0.1367188-1.7148438c0-0.8066406-0.0410156-1.3603516-0.1230469-1.6621094
		c-0.0800781-0.3017578-0.1835938-0.5029297-0.3066406-0.6044922S94.5844727,124.1914063,94.4243164,124.1914063z"/>
</g>
<line class="st1" x1="100.6185455" y1="115.8254852" x2="100.6185455" y2="114.5203705"/>
<line class="st1" x1="109.0372772" y1="115.8254852" x2="109.0372772" y2="114.5203705"/>
<line class="st1" x1="117.4554672" y1="115.8254852" x2="117.4554672" y2="114.5203705"/>
<line class="st1" x1="125.8742142" y1="115.8254852" x2="125.8742142" y2="114.5203705"/>
<line class="st1" x1="134.2907867" y1="115.8254852" x2="134.2907867" y2="113.6497421"/>
<g>
	<path d="M132.0961914,129.9990234h-1.3173828v-4.9638672c-0.4814453,0.4501953-1.0488281,0.7822266-1.7011719,0.9980469v-1.1953125
		c0.34375-0.1123047,0.7167969-0.3251953,1.1201172-0.6396484s0.6796875-0.6806641,0.8291016-1.0996094h1.0693359V129.9990234z"/>
	<path d="M134.3461914,129.9990234v-1.3173828h1.3164063v1.3173828H134.3461914z"/>
	<path d="M136.7504883,128.2314453l1.3125-0.1357422c0.0371094,0.296875,0.1484375,0.5322266,0.3330078,0.7060547
		c0.1835938,0.1728516,0.3964844,0.2597656,0.6367188,0.2597656c0.2753906,0,0.5078125-0.1113281,0.6992188-0.3349609
		c0.1904297-0.2236328,0.2851563-0.5605469,0.2851563-1.0107422c0-0.421875-0.09375-0.7382813-0.2832031-0.9492188
		s-0.4355469-0.3164063-0.7382813-0.3164063c-0.3779297,0-0.7167969,0.1679688-1.0175781,0.5019531l-1.0683594-0.1542969
		l0.6748047-3.5771484h3.4833984v1.2333984h-2.484375l-0.2070313,1.1669922
		c0.2939453-0.1474609,0.59375-0.2207031,0.9003906-0.2207031c0.5839844,0,1.0800781,0.2128906,1.4863281,0.6376953
		s0.609375,0.9765625,0.609375,1.6542969c0,0.5664063-0.1640625,1.0703125-0.4921875,1.5146484
		c-0.4472656,0.6064453-1.0673828,0.9091797-1.8613281,0.9091797c-0.6347656,0-1.1513672-0.1699219-1.5517578-0.5107422
		C137.0678711,129.2646484,136.8286133,128.8066406,136.7504883,128.2314453z"/>
</g>
<line class="st1" x1="142.7089844" y1="115.8254852" x2="142.7089844" y2="114.5203705"/>
<line class="st1" x1="151.1277161" y1="115.8254852" x2="151.1277161" y2="114.5203705"/>
<line class="st1" x1="159.5437469" y1="115.8254852" x2="159.5437469" y2="114.5203705"/>
<line class="st1" x1="167.9624786" y1="115.8254852" x2="167.9624786" y2="114.5203705"/>
<line class="st1" x1="176.3806763" y1="115.8254852" x2="176.3806763" y2="113.6497421"/>
<g>
	<path d="M174.2104492,128.7753906v1.2236328h-4.6171875c0.0498047-0.4628906,0.2001953-0.9003906,0.4501953-1.3144531
		s0.7431641-0.9638672,1.4804688-1.6484375c0.59375-0.5527344,0.9580078-0.9277344,1.0927734-1.125
		c0.1806641-0.2714844,0.2714844-0.5400391,0.2714844-0.8056641c0-0.2939453-0.0791016-0.5195313-0.2363281-0.6777344
		c-0.1582031-0.1572266-0.3759766-0.2363281-0.6542969-0.2363281c-0.2744141,0-0.4931641,0.0830078-0.65625,0.2480469
		c-0.1621094,0.1660156-0.2558594,0.4404297-0.28125,0.8251953l-1.3125-0.1308594
		c0.078125-0.7255859,0.3232422-1.2460938,0.7363281-1.5615234c0.4121094-0.3154297,0.9277344-0.4736328,1.546875-0.4736328
		c0.6777344,0,1.2109375,0.1835938,1.5986328,0.5488281c0.3867188,0.3652344,0.5810547,0.8203125,0.5810547,1.3642578
		c0,0.3095703-0.0556641,0.6035156-0.1669922,0.8837891c-0.1103516,0.2792969-0.2861328,0.5722656-0.5273438,0.8789063
		c-0.1591797,0.203125-0.4462891,0.4951172-0.8623047,0.8759766c-0.4150391,0.3818359-0.6787109,0.6347656-0.7900391,0.7597656
		c-0.1103516,0.125-0.2001953,0.2470703-0.2695313,0.3652344H174.2104492z"/>
	<path d="M175.3823242,129.9990234v-1.3173828h1.3164063v1.3173828H175.3823242z"/>
	<path d="M179.9946289,123.0986328c0.6645508,0,1.1850586,0.2382813,1.5600586,0.7128906
		c0.4472656,0.5625,0.6699219,1.4951172,0.6699219,2.7988281c0,1.2998047-0.2246094,2.234375-0.6748047,2.8027344
		c-0.3720703,0.46875-0.890625,0.703125-1.5551758,0.703125c-0.6689453,0-1.2080078-0.2568359-1.6171875-0.7714844
		c-0.4101563-0.5136719-0.6142578-1.4296875-0.6142578-2.7490234c0-1.2939453,0.2246094-2.2246094,0.6748047-2.7939453
		C178.8100586,123.3330078,179.3286133,123.0986328,179.9946289,123.0986328z M179.9946289,124.1914063
		c-0.1601563,0-0.3017578,0.0507813-0.4267578,0.1523438s-0.2216797,0.2832031-0.2910156,0.5458984
		c-0.0908203,0.3408203-0.1357422,0.9140625-0.1357422,1.7207031c0,0.8056641,0.0410156,1.359375,0.1220703,1.6611328
		s0.1835938,0.5029297,0.3066406,0.6025391c0.1240234,0.0996094,0.2646484,0.1503906,0.4248047,0.1503906
		c0.1586914,0,0.300293-0.0507813,0.425293-0.1523438s0.2226563-0.2841797,0.2910156-0.546875
		c0.0908203-0.3369141,0.1357422-0.9091797,0.1357422-1.7148438c0-0.8066406-0.0400391-1.3603516-0.1220703-1.6621094
		c-0.0810547-0.3017578-0.1835938-0.5029297-0.3066406-0.6044922S180.1533203,124.1914063,179.9946289,124.1914063z"/>
</g>
<line class="st1" x1="184.7972412" y1="115.8254852" x2="184.7972412" y2="114.5203705"/>
<line class="st1" x1="4.3520002" y1="115.8254852" x2="187.9987488" y2="115.8254852"/>
<line class="st1" x1="8.0238066" y1="121.5" x2="8.0238066" y2="8"/>
<g>
	<g>
		<path d="M17.1328125,3.2636719l-0.4414063,1.5952148h0.8886719l-0.0966797,0.3691406h-0.8828125l-0.9736328,3.4604492
			c-0.1054688,0.3710938-0.1586914,0.6113281-0.1586914,0.7207031c0,0.0673828,0.0151367,0.1181641,0.0454102,0.1533203
			s0.065918,0.0527344,0.1074219,0.0527344c0.0947266,0,0.2192383-0.0683594,0.3740234-0.2060547
			c0.090332-0.078125,0.2919922-0.3183594,0.6054688-0.7207031l0.1865234,0.1464844
			c-0.3466797,0.5234375-0.675293,0.8935547-0.9848633,1.1083984c-0.2109375,0.1484375-0.4243164,0.2226563-0.6396484,0.2226563
			c-0.1660156,0-0.3017578-0.0537109-0.4072266-0.1611328c-0.105957-0.1074219-0.1586914-0.2451172-0.1586914-0.4130859
			c0-0.2119141,0.0600586-0.5341797,0.1811523-0.9677734l0.9453125-3.3959961h-0.8549805l0.0566406-0.2285156
			c0.4155273-0.1171875,0.7607422-0.2919922,1.0361328-0.5249023c0.2753906-0.2324219,0.5830078-0.6362305,0.9228516-1.2109375
			H17.1328125z"/>
	</g>
</g>
<g>
	<g>
		<path d="M191.9394531,114.7402344c0.5009766-1.5683594,1.1914063-2.7753906,2.0742188-3.6230469
			c0.6640625-0.6376953,1.3193359-0.9550781,1.9638672-0.9550781c0.6259766,0,1.0625,0.3056641,1.3105469,0.9189453
			c0.34375,0.8554688,0.28125,2.0195313-0.1894531,3.4912109c-0.4482422,1.4013672-1.1054688,2.5068359-1.9716797,3.3193359
			c-0.6738281,0.6289063-1.3320313,0.9433594-1.9726563,0.9433594c-0.3476563,0-0.6357422-0.0878906-0.8662109-0.2626953
			c-0.2294922-0.1757813-0.4033203-0.4277344-0.5195313-0.7578125s-0.1738281-0.6816406-0.1738281-1.0517578
			C191.5966797,116.1269531,191.7109375,115.4521484,191.9394531,114.7402344z M193.0410156,114.7099609
			c-0.2099609,0.7080078-0.3623047,1.3457031-0.4560547,1.9101563c-0.0712891,0.4296875-0.0791016,0.8037109-0.0205078,1.1220703
			c0.0341797,0.1914063,0.1220703,0.3525391,0.2626953,0.4873047c0.140625,0.1328125,0.3154297,0.1992188,0.5253906,0.1992188
			c0.2441406,0,0.5136719-0.1201172,0.8095703-0.3574219c0.296875-0.2392578,0.5849609-0.6240234,0.8671875-1.1533203
			c0.28125-0.5292969,0.5849609-1.2646484,0.9091797-2.2080078H193.0410156z M196.0751953,114.3164063
			c0.328125-1.0380859,0.5-1.8730469,0.5136719-2.5019531c0.0087891-0.4804688-0.0742188-0.8251953-0.2480469-1.0322266
			c-0.1269531-0.1503906-0.3046875-0.2265625-0.5351563-0.2265625c-0.2578125,0-0.5302734,0.1054688-0.8154297,0.3154297
			c-0.2851563,0.2119141-0.5634766,0.5644531-0.8330078,1.0566406c-0.2714844,0.4941406-0.6005859,1.2900391-0.9902344,2.3886719
			H196.0751953z"/>
	</g>
</g>
</svg>
