<?xml version="1.0" encoding="utf-8"?>
<!-- Generator: Adobe Illustrator 19.0.0, SVG Export Plug-In . SVG Version: 6.00 Build 0)  -->
<svg version="1.1" id="Layer_1" xmlns="http://www.w3.org/2000/svg" xmlns:xlink="http://www.w3.org/1999/xlink" x="0px" y="0px"
	 viewBox="0 0 217 135" style="enable-background:new 0 0 217 135;" xml:space="preserve">
<style type="text/css">
	.st0{fill:none;stroke:#5E81B5;stroke-linecap:square;stroke-miterlimit:3.25;}
	.st1{fill:none;stroke:#000000;stroke-miterlimit:3.25;}
</style>
<polyline class="st0" points="7.9322228,120.1873474 7.9876261,120.1766052 8.0447245,120.1675644 8.1594868,120.1477737 
	8.8418465,120.0352707 9.7520351,119.882637 11.5735426,119.5756607 15.5224056,118.9063034 19.2100811,118.2686005 
	22.8231354,117.623558 26.7448616,116.8925781 30.4042721,116.1706467 34.3700943,115.3379059 38.2635536,114.4503326 
	41.8941307,113.5491943 45.83395,112.4716644 49.508625,111.351738 53.1148911,110.1215668 57.0236168,108.611557 
	60.6739807,106.9992218 64.6290588,104.9894638 68.5112152,102.6953354 72.1327438,100.2174759 76.0595627,97.1081314 
	79.7251892,93.7602234 83.6977921,89.6061401 87.5980377,84.9862289 91.2348328,80.2272415 95.1814346,74.6581268 
	98.8628998,69.2054825 100.669136,66.4896164 "/>
<polyline class="st0" points="101.0269928,65.9525452 101.6319046,65.0451813 102.4731216,63.7776985 106.390892,57.9830208 
	110.0457764,52.8220825 114.0076447,47.6413574 117.8982697,43.058754 121.5248947,39.2647934 125.4596252,35.6675758 
	129.1325989,32.7549667 132.7320862,30.2771072 136.6385498,27.9541512 140.282135,26.0811958 144.2349396,24.3145256 
	147.9231873,22.8768806 151.5402069,21.6269264 155.4647522,20.4210606 159.1258698,19.4119453 163.0945129,18.4226112 
	166.9896698,17.5350304 170.6247711,16.7667446 174.5645752,15.9871416 178.2437744,15.3002615 181.8500519,14.6529598 
	185.7627411,13.9751205 189.4153595,13.3543797 189.4797974,13.3436394 189.5414276,13.3323307 189.669754,13.3125505 
	189.923584,13.2684526 190.4335327,13.1847858 191.453949,13.0123549 191.5155792,13.0010452 191.5800171,12.9925661 
	191.7077942,12.9705172 191.9616241,12.928688 192.4721222,12.8421917 192.599884,12.8201427 192.7259521,12.800354 
	192.9820557,12.7562561 193.0459442,12.7472162 193.1081238,12.7364674 193.364212,12.692378 193.4281006,12.6833296 
	193.4897308,12.67202 "/>
<line class="st1" x1="7.9322228" y1="120.1873474" x2="7.9322228" y2="117.9130096"/>
<line class="st1" x1="13.837142" y1="120.1873474" x2="13.837142" y2="118.8226318"/>
<line class="st1" x1="19.7443237" y1="120.1873474" x2="19.7443237" y2="118.8226318"/>
<line class="st1" x1="25.6520691" y1="120.1873474" x2="25.6520691" y2="118.8226318"/>
<line class="st1" x1="31.5569897" y1="120.1873474" x2="31.5569897" y2="118.8226318"/>
<line class="st1" x1="37.4641685" y1="120.1873474" x2="37.4641685" y2="117.9130096"/>
<g>
	<path d="M38.5087891,130.3613281h-1.2412109v-4.6777344c-0.4536133,0.4248047-0.987793,0.7382813-1.6035156,0.9414063v-1.1259766
		c0.3242188-0.1064453,0.6757813-0.3076172,1.0556641-0.6035156s0.640625-0.640625,0.7817383-1.0351563h1.0073242V130.3613281z"/>
</g>
<line class="st1" x1="43.3713493" y1="120.1873474" x2="43.3713493" y2="118.8226318"/>
<line class="st1" x1="49.2768364" y1="120.1873474" x2="49.2768364" y2="118.8226318"/>
<line class="st1" x1="55.1840134" y1="120.1873474" x2="55.1840134" y2="118.8226318"/>
<line class="st1" x1="61.088932" y1="120.1873474" x2="61.088932" y2="118.8226318"/>
<line class="st1" x1="66.9961166" y1="120.1873474" x2="66.9961166" y2="117.9130096"/>
<g>
	<path d="M69.0571289,129.2089844v1.1523438H64.706543c0.0473633-0.4355469,0.1884766-0.8486328,0.4243164-1.2392578
		c0.2353516-0.3896484,0.7006836-0.9072266,1.3955078-1.5517578c0.5595703-0.5214844,0.9023438-0.875,1.0292969-1.0605469
		c0.1704102-0.2558594,0.2558594-0.5087891,0.2558594-0.7597656c0-0.2763672-0.0742188-0.4892578-0.2231445-0.6376953
		c-0.1484375-0.1484375-0.3540039-0.2236328-0.6157227-0.2236328c-0.2592773,0-0.465332,0.078125-0.6186523,0.234375
		c-0.152832,0.15625-0.2412109,0.4150391-0.2646484,0.7773438l-1.2368164-0.1240234
		c0.0732422-0.6826172,0.3046875-1.1728516,0.6933594-1.4707031c0.3886719-0.296875,0.8745117-0.4453125,1.4575195-0.4453125
		c0.6386719,0,1.1411133,0.171875,1.5058594,0.5166016c0.3652344,0.3447266,0.5478516,0.7724609,0.5478516,1.2851563
		c0,0.2910156-0.0522461,0.5693359-0.1567383,0.8320313c-0.1044922,0.2636719-0.2700195,0.5400391-0.4970703,0.828125
		c-0.1499023,0.1914063-0.4208984,0.4667969-0.8125,0.8261719s-0.6396484,0.5976563-0.7441406,0.7158203
		c-0.1044922,0.1171875-0.1894531,0.2324219-0.2539063,0.3447266H69.0571289z"/>
</g>
<line class="st1" x1="72.903862" y1="120.1873474" x2="72.903862" y2="118.8226318"/>
<line class="st1" x1="78.8087845" y1="120.1873474" x2="78.8087845" y2="118.8226318"/>
<line class="st1" x1="84.7159653" y1="120.1873474" x2="84.7159653" y2="118.8226318"/>
<line class="st1" x1="90.6231384" y1="120.1873474" x2="90.6231384" y2="118.8226318"/>
<line class="st1" x1="96.5286255" y1="120.1873474" x2="96.5286255" y2="117.9130096"/>
<g>
	<path d="M94.3540039,128.6435547l1.2016602-0.1464844c0.0380859,0.3066406,0.1411133,0.5410156,0.309082,0.703125
		c0.1679688,0.1611328,0.3710938,0.2421875,0.609375,0.2421875c0.2563477,0,0.472168-0.0966797,0.6469727-0.2910156
		c0.175293-0.1943359,0.2631836-0.4570313,0.2631836-0.7861328c0-0.3125-0.0839844-0.5595703-0.2519531-0.7421875
		s-0.3725586-0.2734375-0.6137695-0.2734375c-0.1591797,0-0.3491211,0.0302734-0.5698242,0.0927734l0.1367188-1.0117188
		c0.3359375,0.0087891,0.5917969-0.0644531,0.7685547-0.21875s0.2651367-0.3603516,0.2651367-0.6162109
		c0-0.2177734-0.0649414-0.3916016-0.1943359-0.5214844c-0.1298828-0.1289063-0.3017578-0.1943359-0.5166016-0.1943359
		c-0.2124023,0-0.3930664,0.0742188-0.543457,0.2207031c-0.1503906,0.1474609-0.2416992,0.3623047-0.2739258,0.6455078
		l-1.144043-0.1943359c0.0795898-0.3916016,0.199707-0.7050781,0.3603516-0.9384766
		c0.1601563-0.234375,0.3842773-0.4179688,0.6713867-0.5527344c0.2866211-0.1337891,0.6083984-0.2001953,0.9648438-0.2001953
		c0.609375,0,1.0981445,0.1943359,1.4663086,0.5830078c0.3032227,0.3173828,0.4550781,0.6767578,0.4550781,1.0771484
		c0,0.5683594-0.3110352,1.0214844-0.9321289,1.3603516c0.3710938,0.0800781,0.6674805,0.2578125,0.8901367,0.5341797
		c0.222168,0.2773438,0.3334961,0.6113281,0.3334961,1.0029297c0,0.5683594-0.2075195,1.0527344-0.6230469,1.453125
		c-0.4150391,0.4003906-0.9316406,0.6005859-1.550293,0.6005859c-0.5859375,0-1.0717773-0.1689453-1.4575195-0.5058594
		S94.4160156,129.1884766,94.3540039,128.6435547z"/>
</g>
<line class="st1" x1="102.4358063" y1="120.1873474" x2="102.4358063" y2="118.8226318"/>
<line class="st1" x1="108.3429947" y1="120.1873474" x2="108.3429947" y2="118.8226318"/>
<line class="st1" x1="114.2479095" y1="120.1873474" x2="114.2479095" y2="118.8226318"/>
<line class="st1" x1="120.1556625" y1="120.1873474" x2="120.1556625" y2="118.8226318"/>
<line class="st1" x1="126.0628357" y1="120.1873474" x2="126.0628357" y2="117.9130096"/>
<g>
	<path d="M126.3647461,130.3613281v-1.3027344h-2.6499023v-1.0869141l2.809082-4.1113281h1.0419922v4.1074219h0.8041992v1.0908203
		h-0.8041992v1.3027344H126.3647461z M126.3647461,127.9677734v-2.2128906l-1.4882813,2.2128906H126.3647461z"/>
</g>
<line class="st1" x1="131.9677582" y1="120.1873474" x2="131.9677582" y2="118.8226318"/>
<line class="st1" x1="137.874939" y1="120.1873474" x2="137.874939" y2="118.8226318"/>
<line class="st1" x1="143.7826843" y1="120.1873474" x2="143.7826843" y2="118.8226318"/>
<line class="st1" x1="149.6876068" y1="120.1873474" x2="149.6876068" y2="118.8226318"/>
<line class="st1" x1="155.5947876" y1="120.1873474" x2="155.5947876" y2="117.9130096"/>
<g>
	<path d="M153.4814453,128.6962891l1.2368164-0.1279297c0.0351563,0.2792969,0.1396484,0.5009766,0.3134766,0.6640625
		c0.1738281,0.1640625,0.3740234,0.2451172,0.6005859,0.2451172c0.2592773,0,0.4785156-0.1044922,0.6582031-0.3154297
		c0.1796875-0.2099609,0.2695313-0.5273438,0.2695313-0.9521484c0-0.3974609-0.0893555-0.6953125-0.2675781-0.8935547
		c-0.1777344-0.1992188-0.409668-0.2988281-0.6953125-0.2988281c-0.3564453,0-0.6757813,0.1582031-0.9584961,0.4726563
		l-1.0068359-0.1455078l0.6357422-3.3701172h3.2817383v1.1621094h-2.3408203l-0.1943359,1.0996094
		c0.2768555-0.1386719,0.5595703-0.2080078,0.8481445-0.2080078c0.550293,0,1.0170898,0.2001953,1.3999023,0.6005859
		s0.5742188,0.9208984,0.5742188,1.5595703c0,0.5332031-0.1547852,1.0087891-0.4638672,1.4267578
		c-0.4208984,0.5712891-1.0053711,0.8564453-1.753418,0.8564453c-0.5976563,0-1.0849609-0.1601563-1.4619141-0.4814453
		S153.5551758,129.2382813,153.4814453,128.6962891z"/>
</g>
<line class="st1" x1="161.5019684" y1="120.1873474" x2="161.5019684" y2="118.8226318"/>
<line class="st1" x1="167.4074402" y1="120.1873474" x2="167.4074402" y2="118.8226318"/>
<line class="st1" x1="173.314621" y1="120.1873474" x2="173.314621" y2="118.8226318"/>
<line class="st1" x1="179.221817" y1="120.1873474" x2="179.221817" y2="118.8226318"/>
<line class="st1" x1="185.1267395" y1="120.1873474" x2="185.1267395" y2="117.9130096"/>
<g>
	<path d="M187.2011719,125.4716797L186,125.6044922c-0.0292969-0.2470703-0.1064453-0.4296875-0.2294922-0.5478516
		c-0.1240234-0.1171875-0.2841797-0.1767578-0.4814453-0.1767578c-0.2626953,0-0.4833984,0.1181641-0.6650391,0.3535156
		c-0.1806641,0.2353516-0.2949219,0.7255859-0.3417969,1.4707031c0.3085938-0.3652344,0.6933594-0.5478516,1.1523438-0.5478516
		c0.5185547,0,0.9619141,0.1972656,1.3320313,0.5917969c0.3691406,0.3955078,0.5537109,0.9042969,0.5537109,1.5283203
		c0,0.6630859-0.1943359,1.1943359-0.5830078,1.5947266s-0.8876953,0.6005859-1.4970703,0.6005859
		c-0.6533203,0-1.1914063-0.2539063-1.6123047-0.7617188s-0.6313477-1.3408203-0.6313477-2.4980469
		c0-1.1865234,0.2192383-2.0419922,0.6577148-2.5654297c0.4394531-0.5244141,1.0087891-0.7861328,1.7099609-0.7861328
		c0.4912109,0,0.8984375,0.1376953,1.2207031,0.4121094C186.9072266,124.5478516,187.1132813,124.9482422,187.2011719,125.4716797z
		 M184.3876953,128.1796875c0,0.4033203,0.0927734,0.7148438,0.2783203,0.9335938
		c0.1855469,0.2197266,0.3974609,0.3291016,0.6357422,0.3291016c0.2294922,0,0.4208984-0.0898438,0.5742188-0.2695313
		c0.1533203-0.1787109,0.2294922-0.4736328,0.2294922-0.8828125c0-0.4208984-0.0820313-0.7294922-0.2470703-0.9257813
		c-0.1650391-0.1953125-0.3710938-0.2929688-0.6181641-0.2929688c-0.2382813,0-0.4404297,0.0927734-0.6054688,0.2802734
		C184.4697266,127.5380859,184.3876953,127.8144531,184.3876953,128.1796875z"/>
</g>
<line class="st1" x1="191.0344696" y1="120.1873474" x2="191.0344696" y2="118.8226318"/>
<line class="st1" x1="196.9416504" y1="120.1873474" x2="196.9416504" y2="118.8226318"/>
<line class="st1" x1="4.0653348" y1="120.1873474" x2="197.3566132" y2="120.1873474"/>
<line class="st1" x1="7.9322228" y1="126.1589813" x2="7.9322228" y2="6.6986985"/>
<g>
	<g>
		<path d="M19.4091797,3.2636719l-0.4414063,1.5952148h0.8886719l-0.0966797,0.3691406h-0.8828125l-0.9736328,3.4604492
			c-0.1054688,0.3710938-0.1586914,0.6113281-0.1586914,0.7207031c0,0.0673828,0.0151367,0.1181641,0.0454102,0.1533203
			s0.065918,0.0527344,0.1074219,0.0527344c0.0947266,0,0.2192383-0.0683594,0.3740234-0.2060547
			c0.090332-0.078125,0.2919922-0.3183594,0.6054688-0.7207031l0.1865234,0.1464844
			c-0.3466797,0.5234375-0.675293,0.8935547-0.9848633,1.1083984c-0.2109375,0.1484375-0.4243164,0.2226563-0.6396484,0.2226563
			c-0.1660156,0-0.3017578-0.0537109-0.4072266-0.1611328c-0.105957-0.1074219-0.1586914-0.2451172-0.1586914-0.4130859
			c0-0.2119141,0.0600586-0.5341797,0.1811523-0.9677734l0.9453125-3.3959961h-0.8549805l0.0566406-0.2285156
			c0.4155273-0.1171875,0.7607422-0.2919922,1.0361328-0.5249023c0.2753906-0.2324219,0.5830078-0.6362305,0.9228516-1.2109375
			H19.4091797z"/>
	</g>
</g>
<g>
	<g>
		<path d="M204.9394531,114.0039063c0.5009766-1.5688477,1.1914063-2.7758789,2.0742188-3.6235352
			c0.6640625-0.637207,1.3193359-0.9550781,1.9638672-0.9550781c0.6259766,0,1.0625,0.3056641,1.3105469,0.9189453
			c0.34375,0.855957,0.28125,2.0195313-0.1894531,3.4916992c-0.4482422,1.4013672-1.1054688,2.5068359-1.9716797,3.3193359
			c-0.6738281,0.6289063-1.3320313,0.9433594-1.9726563,0.9433594c-0.3476563,0-0.6357422-0.0878906-0.8662109-0.2626953
			c-0.2294922-0.1757813-0.4033203-0.4277344-0.5195313-0.7578125s-0.1738281-0.6816406-0.1738281-1.0517578
			C204.5966797,115.390625,204.7109375,114.7158203,204.9394531,114.0039063z M206.0410156,113.9736328
			c-0.2099609,0.7080078-0.3623047,1.3457031-0.4560547,1.9101563c-0.0712891,0.4296875-0.0791016,0.8037109-0.0205078,1.1220703
			c0.0341797,0.1914063,0.1220703,0.3525391,0.2626953,0.4873047c0.140625,0.1328125,0.3154297,0.1992188,0.5253906,0.1992188
			c0.2441406,0,0.5136719-0.1201172,0.8095703-0.3574219c0.296875-0.2392578,0.5849609-0.6240234,0.8671875-1.1533203
			c0.28125-0.5292969,0.5849609-1.2646484,0.9091797-2.2080078H206.0410156z M209.0751953,113.5795898
			c0.328125-1.0380859,0.5-1.8725586,0.5136719-2.5014648c0.0087891-0.480957-0.0742188-0.8251953-0.2480469-1.0327148
			c-0.1269531-0.1503906-0.3046875-0.2265625-0.5351563-0.2265625c-0.2578125,0-0.5302734,0.105957-0.8154297,0.315918
			c-0.2851563,0.2114258-0.5634766,0.5639648-0.8330078,1.0566406c-0.2714844,0.4941406-0.6005859,1.2895508-0.9902344,2.3881836
			H209.0751953z"/>
	</g>
</g>
</svg>
