<?xml version="1.0" encoding="utf-8"?>
<!-- Generator: Adobe Illustrator 19.0.0, SVG Export Plug-In . SVG Version: 6.00 Build 0)  -->
<svg version="1.1" id="Layer_1" xmlns="http://www.w3.org/2000/svg" xmlns:xlink="http://www.w3.org/1999/xlink" x="0px" y="0px"
	 viewBox="0 0 113 118.8304901" style="enable-background:new 0 0 113 118.8304901;" xml:space="preserve">
<style type="text/css">
	.st0{fill:none;stroke:#1173BB;stroke-linejoin:round;stroke-miterlimit:10;}
	.st1{fill:none;stroke:#D85527;stroke-linejoin:round;stroke-miterlimit:10;}
	.st2{fill:none;stroke:#000000;stroke-linejoin:round;stroke-miterlimit:10;}
	.st3{fill:none;stroke:#A7A9AC;stroke-linejoin:round;stroke-miterlimit:10;}
	.st4{fill:none;stroke:#A7A9AC;stroke-linejoin:round;}
	.st5{fill:none;stroke:#A7A9AC;stroke-linejoin:round;stroke-dasharray:5.1021671,5.1021671;}
	.st6{fill:#010101;}
	.st7{fill:#ECB121;}
</style>
<g id="XMLID_2_">
	<g id="XMLID_27_">
		<g id="XMLID_28_">
			<polygon id="XMLID_81_" points="101.9905319,62.4991684 101.9905319,64.4143906 110.9999924,62.001915 101.9905319,59.5852585 
				101.9905319,61.5006332 5.9024405,61.5006332 5.9024405,62.4991684 			"/>
		</g>
	</g>
</g>
<polyline id="XMLID_5_" class="st0" points="77.5021667,110.9066086 76.1901398,110.2990646 74.8945389,109.6915207 
	73.615303,109.0840073 72.3524933,108.4764633 71.1060715,107.8689194 69.8760681,107.2614059 68.6624451,106.653862 
	67.4652328,106.0463181 66.2844162,105.4387741 65.1200027,104.8312302 63.9719772,104.2237167 62.840374,103.6161728 
	61.7251625,103.0086288 60.6263275,102.4010849 59.5439301,101.793541 58.4779091,101.185997 57.4283028,100.5784836 
	56.395092,99.9709396 55.3782768,99.3633957 54.377861,98.7558517 53.393837,98.1483383 52.4262314,97.5407944 
	51.4750214,96.9332504 50.5402069,96.3257065 49.6217918,95.7181625 48.7197685,95.1106186 47.8341637,94.5031052 
	46.9649544,93.8955612 46.1121407,93.2880173 45.2757416,92.6804733 44.455719,92.0729294 43.6521149,91.465416 
	42.8649025,90.857872 42.0940895,90.2503281 41.3396721,89.6427841 40.6016731,89.0352707 39.8800659,88.4277267 
	39.1748581,87.8201828 38.486042,87.2126389 37.8136253,86.6050949 37.1576233,85.9975815 36.5180206,85.3900375 
	35.8948097,84.7824936 35.2879982,84.1749496 34.6976013,83.5674057 34.1235809,82.9598923 33.5659752,82.3523483 
	33.024765,81.7448044 32.4999504,81.1372604 31.9915543,80.529747 31.4995537,79.9222031 31.0239487,79.3146591 
	30.5647392,78.7071152 30.1219273,78.0995712 29.6955299,77.4920273 29.2855091,76.8845139 28.8919048,76.2769699 
	28.5147152,75.669426 28.1539021,75.061882 27.8095055,74.4543381 27.4814854,73.8468246 27.1698818,73.2392807 
	26.8746929,72.6317368 26.5958805,72.0241928 26.3334827,71.4166794 26.0874825,70.8091354 25.8578777,70.2015915 
	25.6446705,69.5940475 25.4478588,68.9865036 25.2674618,68.3789902 25.1034603,67.7714462 24.9558563,67.1639023 
	24.824667,66.5563583 24.709856,65.9488144 24.6114597,65.341301 24.529459,64.733757 24.4638557,64.1262131 24.4146481,63.5186691 
	24.381855,62.9111252 24.3654594,62.3036118 24.3654594,61.6960678 24.381855,61.0885239 24.4146481,60.4809799 
	24.4638557,59.8734665 24.529459,59.2659225 24.6114597,58.6583786 24.709856,58.0508347 24.824667,57.4432907 
	24.9558563,56.8357468 25.1034603,56.2282333 25.2674618,55.6206894 25.4478588,55.0131454 25.6446705,54.4056015 
	25.8578777,53.7980881 26.0874825,53.1905441 26.3334827,52.5830002 26.5958805,51.9754562 26.8746929,51.3679123 
	27.1698818,50.7603989 27.4814854,50.1528549 27.8095055,49.545311 28.1539021,48.937767 28.5147152,48.3302231 
	28.8919048,47.7227097 29.2855091,47.1151657 29.6955299,46.5076218 30.1219273,45.9000778 30.5647392,45.2925339 
	31.0239487,44.6850204 31.4995537,44.0774765 31.9915543,43.4699326 32.4999504,42.8623886 33.024765,42.2548447 
	33.5659752,41.6473312 34.1235809,41.0397873 34.6976013,40.4322433 35.2879982,39.8246994 35.8948097,39.2171555 
	36.5180206,38.609642 37.1576233,38.0020981 37.8136253,37.3945541 38.486042,36.7870102 39.1748581,36.1794662 
	39.8800659,35.5719528 40.6016731,34.9644089 41.3396721,34.3568649 42.0940895,33.749321 42.8649025,33.1418076 
	43.6521149,32.5342636 44.455719,31.9267216 45.2757416,31.3191776 46.1121407,30.7116337 46.9649544,30.1040897 
	47.8341637,29.4965763 48.7197685,28.8890324 49.6217918,28.2814884 50.5402069,27.6739445 51.4750214,27.066431 
	52.4262314,26.4588871 53.393837,25.8513432 54.377861,25.2437992 55.3782768,24.6362553 56.395092,24.0287418 
	57.4283028,23.4211979 58.4779091,22.8136539 59.5439301,22.20611 60.6263275,21.5985661 61.7251625,20.9910526 
	62.840374,20.3835087 63.9719772,19.7759647 65.1200027,19.1684208 66.2844162,18.5608768 67.4652328,17.9533634 
	68.6624451,17.3458195 69.8760681,16.7382755 71.1060715,16.1307316 72.3524933,15.5231876 73.615303,14.9156742 
	74.8945389,14.3081303 76.1901398,13.7005863 77.5021667,13.0930424 "/>
<line id="XMLID_80_" class="st1" x1="12.3540697" y1="116.4048233" x2="12.3540697" y2="7.5948291"/>
<line id="XMLID_4_" class="st2" x1="89.7046127" y1="110.3598251" x2="89.7046127" y2="13.6398287"/>
<line id="XMLID_1_" class="st3" x1="36.3727417" y1="61.9998245" x2="42.8649025" y2="33.1418076"/>
<line id="XMLID_6_" class="st3" x1="42.8649025" y1="33.1418076" x2="89.7046127" y2="33.1418076"/>
<g id="XMLID_7_">
	<g id="XMLID_86_">
		<line id="XMLID_89_" class="st4" x1="42.8649178" y1="33.1418076" x2="40.3649025" y2="33.1418076"/>
		<line id="XMLID_88_" class="st5" x1="35.2627296" y1="33.1418076" x2="17.4051571" y2="33.1418076"/>
		<line id="XMLID_87_" class="st4" x1="14.8540697" y1="33.1418076" x2="12.3540697" y2="33.1418076"/>
	</g>
</g>
<g id="XMLID_9_">
	<g id="XMLID_10_">
		<path id="XMLID_36_" class="st6" d="M9.1912432,27.6891117l-0.609375,6.560545
			c-0.03125,0.3066406-0.0478516,0.5087891-0.0478516,0.6054688c0,0.1552734,0.0302734,0.2734375,0.0888672,0.3544922
			c0.0751953,0.1123047,0.1767578,0.1962891,0.3056641,0.25c0.1279297,0.0546875,0.34375,0.0820313,0.6474609,0.0820313
			l-0.0644531,0.2148438H6.3504233l0.0654297-0.2148438h0.1357422c0.2568359,0,0.4658203-0.0546875,0.6279297-0.1630859
			c0.1142578-0.0742188,0.203125-0.1962891,0.265625-0.3662109c0.0439453-0.1201172,0.0849609-0.4033203,0.125-0.8496094
			l0.0947266-1h-2.296875l-0.8168945,1.0869141c-0.1855469,0.2451172-0.3017578,0.4199219-0.3491211,0.5263672
			c-0.0473633,0.1074219-0.0712891,0.2070313-0.0712891,0.2998047c0,0.1240234,0.0512695,0.2304688,0.1542969,0.3203125
			c0.1025391,0.0888672,0.2719727,0.1376953,0.5087891,0.1455078l-0.0649414,0.2148438H2.3553059l0.0649414-0.2148438
			c0.2919922-0.0117188,0.5493164-0.1083984,0.7724609-0.2880859c0.2231445-0.1806641,0.5551758-0.5654297,0.9975588-1.1552734
			l4.7939448-6.4091778H9.1912432z M8.0193682,29.6256351l-2.3256831,3.1123028h2.0180664L8.0193682,29.6256351z"/>
	</g>
</g>
<g id="XMLID_11_">
	<g id="XMLID_12_">
		<path id="XMLID_32_" class="st6" d="M94.0110703,28.0846195l0.0830078-0.215332h2.8652344
			c0.4814453,0,0.9101563,0.0737305,1.2871094,0.2207031c0.3769531,0.1474609,0.6591797,0.3530273,0.8466797,0.6166992
			s0.28125,0.5429688,0.28125,0.8378906c0,0.4536133-0.1669922,0.8637695-0.5009766,1.2299805
			c-0.3330078,0.3666992-0.8769531,0.6362305-1.6298828,0.8120117c0.4853516,0.1777344,0.8417969,0.4140606,1.0712891,0.7089825
			c0.2285156,0.2949219,0.3427734,0.6181641,0.3427734,0.9716797c0,0.3916016-0.1025391,0.765625-0.3076172,1.1220703
			c-0.2050781,0.3574219-0.46875,0.6347656-0.7900391,0.8320313c-0.3212891,0.1982422-0.7089844,0.3427734-1.1630859,0.4365234
			c-0.3232422,0.0654297-0.8291016,0.0986328-1.515625,0.0986328h-2.9414063l0.0771484-0.2148438
			c0.3076172-0.0078125,0.5166016-0.0371094,0.6269531-0.0878906c0.1582031-0.0654297,0.2705078-0.1533203,0.3378906-0.2617188
			c0.0947266-0.1474609,0.2207031-0.484375,0.3789063-1.0117188l1.4375-4.7753887
			c0.1230469-0.4033203,0.1835938-0.6865234,0.1835938-0.8496094c0-0.1430664-0.0537109-0.2568359-0.1621094-0.3398438
			c-0.109375-0.0834961-0.3154297-0.1254883-0.6191406-0.1254883
			C94.1331406,28.0899906,94.0706406,28.0885258,94.0110703,28.0846195z M94.0472031,35.2447739
			c0.4257813,0.0546875,0.7587891,0.0810547,1,0.0810547c0.6152344,0,1.1611328-0.1816406,1.6367188-0.546875
			c0.4755859-0.3642578,0.7128906-0.8583984,0.7128906-1.4824219c0-0.4775391-0.1464844-0.8496094-0.4404297-1.1171875
			c-0.2939453-0.2675762-0.7685547-0.4013653-1.4238281-0.4013653c-0.1269531,0-0.2802734,0.0058594-0.4619141,0.0175781
			L94.0472031,35.2447739z M95.2132187,31.3590336c0.2558594,0.0078125,0.4414063,0.0117188,0.5556641,0.0117188
			c0.8212891,0,1.4316406-0.175293,1.8320313-0.5263672s0.6015625-0.7900391,0.6015625-1.3173828
			c0-0.3994141-0.1230469-0.7104492-0.3671875-0.9335938c-0.2451172-0.2231445-0.6357422-0.3344727-1.171875-0.3344727
			c-0.1425781,0-0.3242188,0.0234375-0.5449219,0.0698242L95.2132187,31.3590336z"/>
	</g>
</g>
<g id="XMLID_13_">
	<g id="XMLID_14_">
		<path id="XMLID_29_" class="st6" d="M41.5125313,20.2027836h3.1606445c0.8291016,0,1.4482422,0.175293,1.8583984,0.5263672
			s0.6152344,0.7783203,0.6152344,1.2827148c0,0.3994141-0.1298828,0.7871094-0.390625,1.1630859
			c-0.2597656,0.3759766-0.6464844,0.6816406-1.1591797,0.9160156c-0.5136719,0.234375-1.0683594,0.3515625-1.6640625,0.3515625
			c-0.3710938,0-0.8422852-0.0654297-1.4140625-0.1972656l-0.6391602,2.1523438
			c-0.1503906,0.5117188-0.2250977,0.8486328-0.2250977,1.0117188c0,0.1240234,0.0532227,0.2265625,0.159668,0.3085938
			c0.1064453,0.0810547,0.3613281,0.1337891,0.7636719,0.1572266l-0.059082,0.2148438h-3.1904297l0.0649414-0.2148438
			c0.418457,0,0.7094727-0.0712891,0.8730469-0.2128906c0.1640625-0.1416016,0.340332-0.5322266,0.5297852-1.171875
			l1.3261719-4.4902344c0.1577148-0.5390625,0.2363281-0.8999023,0.2363281-1.0820313
			c0-0.1357422-0.0561523-0.2480469-0.168457-0.3374023s-0.3603516-0.1435547-0.7426758-0.1625977L41.5125313,20.2027836z
			 M42.6194649,23.8790531c0.4458008,0.1123047,0.8046875,0.1679688,1.0771484,0.1679688
			c0.4296875,0,0.8212891-0.0869141,1.1748047-0.2617188c0.3535156-0.1743164,0.6298828-0.4360352,0.8291016-0.784668
			c0.1992188-0.3491211,0.2988281-0.7119141,0.2988281-1.0878906c0-0.3916016-0.1230469-0.7016602-0.3671875-0.9306641
			c-0.2451172-0.2285156-0.6152344-0.3432617-1.1132813-0.3432617c-0.2675781,0-0.59375,0.0332031-0.9765625,0.0991211
			L42.6194649,23.8790531z"/>
	</g>
</g>
<ellipse id="XMLID_77_" class="st7" cx="36.3727417" cy="61.9998093" rx="0.6218523" ry="1.0000305"/>
<ellipse id="XMLID_15_" cx="42.8649025" cy="33.1417923" rx="0.6218523" ry="1.0000305"/>
<g id="XMLID_8_">
	<g id="XMLID_16_">
		<path id="XMLID_24_" class="st6" d="M105.788414,69.2105942c0.1904297,0.203125,0.3349609,0.4072266,0.4316406,0.6103516
			c0.0703125,0.140625,0.1855469,0.5107422,0.3447266,1.1103516l0.5146484-0.7753906
			c0.1357422-0.1884766,0.3007813-0.3671875,0.4960938-0.5371094c0.1943359-0.1708984,0.3662109-0.2871094,0.5136719-0.3496094
			c0.09375-0.0390625,0.1962891-0.0585938,0.3095703-0.0585938c0.1669922,0,0.3007813,0.0449219,0.4003906,0.1347656
			c0.0986328,0.0898438,0.1484375,0.2001953,0.1484375,0.3291016c0,0.1484375-0.0292969,0.25-0.0878906,0.3046875
			c-0.1083984,0.0986328-0.2333984,0.1474609-0.3730469,0.1474609c-0.0820313,0-0.1699219-0.0175781-0.2626953-0.0527344
			c-0.1835938-0.0625-0.3056641-0.0947266-0.3681641-0.0947266c-0.09375,0-0.2041016,0.0556641-0.3330078,0.1650391
			c-0.2412109,0.203125-0.5292969,0.5966797-0.8642578,1.1796875l0.4785156,2.0195313
			c0.0742188,0.3095703,0.1367188,0.4951172,0.1875,0.5556641c0.0498047,0.0605469,0.1005859,0.0908203,0.1513672,0.0908203
			c0.0820313,0,0.1777344-0.0449219,0.2861328-0.1347656c0.2138672-0.1806641,0.3974609-0.4150391,0.5488281-0.7050781
			l0.2050781,0.1054688c-0.2451172,0.4619141-0.5566406,0.8457031-0.9345703,1.1513672
			c-0.2138672,0.171875-0.3955078,0.2578125-0.5429688,0.2578125c-0.21875,0-0.3916016-0.1230469-0.5205078-0.3691406
			c-0.0820313-0.1533203-0.2509766-0.8105469-0.5078125-1.9726563c-0.6074219,1.0605469-1.09375,1.7431641-1.4599609,2.0488281
			c-0.2373047,0.1953125-0.4677734,0.2929688-0.6894531,0.2929688c-0.1552734,0-0.2978516-0.0566406-0.4257813-0.1699219
			c-0.09375-0.0859375-0.140625-0.2011719-0.140625-0.3466797c0-0.1289063,0.0429688-0.2363281,0.1289063-0.3222656
			c0.0849609-0.0869141,0.1904297-0.1298828,0.3154297-0.1298828c0.1240234,0,0.2568359,0.0625,0.3964844,0.1884766
			c0.1015625,0.0898438,0.1796875,0.1347656,0.234375,0.1347656c0.0458984,0,0.1064453-0.03125,0.1806641-0.09375
			c0.1826172-0.1494141,0.4316406-0.4697266,0.7470703-0.9628906s0.5224609-0.8496094,0.6191406-1.0683594
			c-0.2412109-0.9511719-0.3720703-1.4541016-0.390625-1.5097656c-0.0898438-0.2539063-0.2070313-0.4345703-0.3505859-0.5400391
			c-0.1445313-0.1054688-0.3564453-0.1582031-0.6367188-0.1582031c-0.0898438,0-0.1923828,0.0039063-0.3095703,0.0117188v-0.2119141
			L105.788414,69.2105942z"/>
	</g>
</g>
<g id="XMLID_78_">
	<g id="XMLID_79_">
		<path id="XMLID_20_" class="st6" d="M92.4095078,9.78335h-5.9130859l0.0820313-0.2148438
			c0.3139648-0.0078125,0.5239258-0.0332031,0.6298828-0.0761719c0.1645508-0.0693359,0.2861328-0.1611328,0.3647461-0.2734375
			c0.121582-0.1777344,0.2509766-0.5,0.3881836-0.9648438l1.40625-4.7993164
			c0.1171875-0.3955078,0.1767578-0.6860352,0.1767578-0.8725586c0-0.1469727-0.0546875-0.2617188-0.1621094-0.3427734
			c-0.1079102-0.081543-0.3110352-0.1225586-0.6088867-0.1225586c-0.0668945,0-0.1201172-0.0014648-0.1591797-0.0053711
			l0.0708008-0.2153322h3.2539063l-0.046875,0.2153322c-0.3652344,0-0.6240234,0.034668-0.7773438,0.1044922
			c-0.1523438,0.0698242-0.2802734,0.184082-0.3818359,0.3432617c-0.0703125,0.1044922-0.1865234,0.4301758-0.3476563,0.9770508
			l-1.3828125,4.7177734c-0.1054688,0.3564453-0.1586914,0.6044922-0.1586914,0.7441406
			c0,0.0927734,0.0532227,0.1826172,0.1586914,0.2675781c0.0668945,0.0576172,0.2177734,0.0869141,0.453125,0.0869141h0.7714844
			c0.5605469,0,1.0058594-0.0693359,1.3349609-0.2089844c0.2431641-0.1044922,0.4667969-0.2617188,0.6708984-0.4716797
			c0.109375-0.1162109,0.3037109-0.4052734,0.5820313-0.8662109l0.1533203-0.2617188h0.2177734L92.4095078,9.78335z"/>
	</g>
</g>
<g id="XMLID_21_">
	<g id="XMLID_22_">
		<path id="XMLID_17_" class="st6" d="M39.4236641,66.4088364c0.5332031,0,1.0048828,0.1142578,1.4150391,0.3417969
			c0.4101563,0.2285156,0.7314453,0.5664063,0.9648438,1.0126953c0.2324219,0.4462891,0.3496094,0.9101563,0.3496094,1.3896484
			c0,0.8505859-0.25,1.7421875-0.7490234,2.6767578s-1.1513672,1.6464844-1.9560547,2.1386719
			c-0.8056641,0.4912109-1.6376953,0.7373047-2.4980469,0.7373047c-0.6196289,0-1.137207-0.1357422-1.5537109-0.4072266
			c-0.4165039-0.2705078-0.7241211-0.6289063-0.9233398-1.0732422c-0.1992188-0.4453125-0.2988281-0.8759766-0.2988281-1.2929688
			c0-0.7412109,0.1806641-1.4736328,0.5415039-2.1972656s0.7919922-1.328125,1.293457-1.8134766
			c0.5009766-0.4863281,1.0356445-0.859375,1.6040039-1.1210938C38.1805,66.5396957,38.7849922,66.4088364,39.4236641,66.4088364z
			 M39.2224922,66.7828598c-0.3945313,0-0.7802734,0.0966797-1.1572266,0.2900391
			c-0.3764648,0.1933594-0.7504883,0.5087891-1.1210938,0.9482422c-0.3710938,0.4384766-0.7045898,1.0126953-1.0004883,1.7226563
			c-0.362793,0.8740234-0.5444336,1.6982422-0.5444336,2.4746094c0,0.5546875,0.144043,1.0449219,0.4321289,1.4716797
			c0.2880859,0.4277344,0.7299805,0.640625,1.3256836,0.640625c0.359375,0,0.7114258-0.0878906,1.0566406-0.2626953
			c0.3457031-0.1757813,0.7050781-0.4765625,1.0800781-0.9013672c0.4697266-0.5341797,0.8642578-1.2158203,1.1835938-2.0449219
			c0.3203125-0.8291016,0.4794922-1.6025391,0.4794922-2.3203125c0-0.5302734-0.1435547-0.9990234-0.4316406-1.4072266
			C40.2371407,66.9869614,39.8025703,66.7828598,39.2224922,66.7828598z"/>
	</g>
</g>
<g id="XMLID_3_">
</g>
<g id="XMLID_39_">
</g>
<g id="XMLID_40_">
</g>
<g id="XMLID_41_">
</g>
<g id="XMLID_42_">
</g>
<g id="XMLID_43_">
</g>
</svg>
