<?xml version="1.0" encoding="utf-8"?>
<!-- Generator: Adobe Illustrator 19.0.0, SVG Export Plug-In . SVG Version: 6.00 Build 0)  -->
<svg version="1.1" id="图层_1" xmlns="http://www.w3.org/2000/svg" xmlns:xlink="http://www.w3.org/1999/xlink" x="0px" y="0px"
	 viewBox="0 0 120.75 135.8333282" style="enable-background:new 0 0 120.75 135.8333282;" xml:space="preserve">
<style type="text/css">
	.st0{fill:#000100;fill-opacity:0;stroke:#000100;}
	.st1{fill:#000100;fill-opacity:0;stroke:#000100;stroke-dasharray:4.5,3;}
	.st2{fill:#000100;}
	.st3{fill:#CBCCCE;}
	.st4{fill:#F15A29;}
	.st5{fill:#010101;}
	.st6{opacity:0;fill:#000100;}
	.st7{fill:#2B3990;}
</style>
<path class="st0" d="M33.7854118,15.4441729l26.4002266,60.3445168c-8.0743027,3.565155-17.006237,5.5446396-26.4002266,5.5446396
	s-18.3253403-1.9794846-26.3996391-5.5446396"/>
<path class="st1" d="M33.7854118,15.4441729L7.3857718,75.7886887"/>
<path class="st2" d="M60.0511513,78.0694275c-1.3008881,0-2.3551178-1.0543594-2.3551178-2.3552475
	c0-1.3009033,1.0542297-2.3551331,2.3551178-2.3551331c1.3008842,0,2.3551178,1.0542297,2.3551178,2.3551331
	C62.4062691,77.0150681,61.3520355,78.0694275,60.0511513,78.0694275z"/>
<path class="st3" d="M7.6750512,78.0694275c-1.3005929,0-2.3551912-1.0543594-2.3551912-2.3552475
	c0-1.3009033,1.0545983-2.3551331,2.3551912-2.3551331c1.300756,0,2.3550582,1.0542297,2.3550582,2.3551331
	C10.0301094,77.0150681,8.9758072,78.0694275,7.6750512,78.0694275z"/>
<g>
	<path class="st0" d="M51.1294975,1.6532373v13.7909355H16.4740181V1.6532373"/>
	<path class="st0" d="M49.7274551,1.6532373l1.4020424,1.5851791"/>
	<path class="st0" d="M44.5001717,1.6532373l6.5770912,7.2353191"/>
	<path class="st0" d="M39.3572731,1.6532373l11.6842766,12.902936"/>
	<path class="st0" d="M34.0858765,1.6532373L46.637043,15.4441729"/>
	<path class="st0" d="M28.9432011,1.6532373l12.4769917,13.7909355"/>
	<path class="st0" d="M23.6727867,1.6532373l12.5311394,13.7909355"/>
	<path class="st0" d="M18.401392,1.6532373l12.5862694,13.7909355"/>
	<path class="st0" d="M20.6108742,15.4441729h5.2162647"/>
	<path class="st0" d="M16.5148869,5.2800035l9.312252,10.1641693"/>
	<path class="st0" d="M16.4412975,11.005991l4.1695766,4.4381819"/>
</g>
<path class="st0" d="M33.7854118,16.3460655l-0.0071945,16.9327698"/>
<path class="st0" d="M33.7782173,29.6656208c1.5782318,0,4.0699692-0.4757023,5.7858086-1.383707"/>
<g>
	<g>
		<path class="st4" d="M22.6274414,86.1829453v1.8125H22.434082c-0.1494141-0.5693359-0.3398438-0.9570313-0.5732422-1.1621094
			c-0.2329102-0.2050781-0.5292969-0.3076172-0.8896484-0.3076172c-0.2739258,0-0.4951172,0.0712891-0.6635742,0.2148438
			s-0.2524414,0.3017578-0.2524414,0.4765625c0,0.2167969,0.0625,0.4023438,0.1879883,0.5576172
			c0.1210938,0.1582031,0.3681641,0.3271484,0.7397461,0.5048828l0.8574219,0.4130859
			c0.7949219,0.3828125,1.1923828,0.8876953,1.1923828,1.515625c0,0.484375-0.1845703,0.8740234-0.5546875,1.1708984
			c-0.3701172,0.2958984-0.7841797,0.4443359-1.2421875,0.4443359c-0.3291016,0-0.7050781-0.0585938-1.1279297-0.1748047
			c-0.1289063-0.0380859-0.2348633-0.0576172-0.3168945-0.0576172c-0.090332,0-0.1606445,0.0498047-0.2114258,0.1503906h-0.1938477
			v-1.8994141h0.1938477c0.109375,0.5419922,0.3188477,0.9511719,0.628418,1.2255859
			c0.309082,0.2753906,0.6557617,0.4130859,1.0395508,0.4130859c0.2700195,0,0.4902344-0.0791016,0.6601563-0.2353516
			c0.1708984-0.1572266,0.2558594-0.3457031,0.2558594-0.5664063c0-0.2675781-0.0947266-0.4921875-0.2851563-0.6738281
			c-0.1894531-0.1826172-0.5683594-0.4130859-1.1362305-0.6914063c-0.5673828-0.2783203-0.9394531-0.5302734-1.1157227-0.7548828
			c-0.1762695-0.2207031-0.2641602-0.5-0.2641602-0.8369141c0-0.4375,0.1513672-0.8037109,0.4550781-1.0976563
			c0.3032227-0.2939453,0.6958008-0.4414063,1.1777344-0.4414063c0.2114258,0,0.4677734,0.0449219,0.769043,0.1337891
			c0.2001953,0.0576172,0.3330078,0.0869141,0.3994141,0.0869141c0.0625,0,0.1113281-0.0136719,0.1464844-0.0410156
			c0.0351563-0.0263672,0.0771484-0.0869141,0.1240234-0.1796875H22.6274414z"/>
		<path class="st4" d="M25.6987305,86.1829453v4.2753906c0,0.3330078,0.0244141,0.5546875,0.0732422,0.6650391
			c0.0498047,0.1103516,0.1220703,0.1923828,0.2177734,0.2470703c0.0957031,0.0537109,0.2714844,0.0810547,0.5253906,0.0810547
			v0.2089844h-2.6132813v-0.2089844c0.2626953,0,0.4384766-0.0253906,0.5283203-0.0751953
			c0.0898438-0.0507813,0.1621094-0.1337891,0.2148438-0.25s0.0791016-0.3388672,0.0791016-0.6679688v-2.0507813
			c0-0.5771484-0.0175781-0.9501953-0.0527344-1.1210938c-0.0273438-0.1240234-0.0703125-0.2099609-0.1289063-0.2587891
			c-0.0595703-0.0478516-0.1396484-0.0722656-0.2412109-0.0722656c-0.109375,0-0.2431641,0.0292969-0.3994141,0.0869141
			l-0.0820313-0.2089844l1.6210938-0.6503906H25.6987305z M25.2114258,83.4007187
			c0.1650391,0,0.3046875,0.0566406,0.4199219,0.1708984s0.1738281,0.2529297,0.1738281,0.4150391
			c0,0.1630859-0.0585938,0.3027344-0.1738281,0.4189453s-0.2548828,0.1738281-0.4199219,0.1738281
			c-0.1640625,0-0.3056641-0.0576172-0.4228516-0.1738281s-0.1757813-0.2558594-0.1757813-0.4189453
			c0-0.1621094,0.0576172-0.3007813,0.1728516-0.4150391S25.043457,83.4007187,25.2114258,83.4007187z"/>
		<path class="st4" d="M28.7895508,87.3098984c0.6298828-0.7509766,1.2304688-1.1269531,1.8027344-1.1269531
			c0.2939453,0,0.5458984,0.0722656,0.7578125,0.2177734c0.2109375,0.1455078,0.3798828,0.3847656,0.5048828,0.7177734
			c0.0859375,0.2324219,0.1289063,0.5878906,0.1289063,1.0683594v2.2714844c0,0.3369141,0.0273438,0.5654297,0.0820313,0.6855469
			c0.0429688,0.0966797,0.1132813,0.171875,0.2089844,0.2265625c0.0957031,0.0537109,0.2734375,0.0810547,0.53125,0.0810547
			v0.2089844h-2.6601563v-0.2089844h0.1113281c0.2509766,0,0.4257813-0.0380859,0.5253906-0.1132813
			c0.1005859-0.0751953,0.1699219-0.1865234,0.2089844-0.3339844c0.015625-0.0585938,0.0234375-0.2402344,0.0234375-0.5458984
			v-2.1787109c0-0.4833984-0.0634766-0.8349609-0.1914063-1.0537109c-0.1269531-0.21875-0.3408203-0.328125-0.6425781-0.328125
			c-0.4658203,0-0.9296875,0.2509766-1.3916016,0.7548828v2.8056641c0,0.359375,0.0214844,0.5830078,0.0644531,0.6679688
			c0.0546875,0.1123047,0.1298828,0.1943359,0.2255859,0.2470703c0.0957031,0.0517578,0.2910156,0.078125,0.5849609,0.078125
			v0.2089844H27.003418v-0.2089844h0.1181641c0.2734375,0,0.4589844-0.0693359,0.5546875-0.2060547
			c0.0957031-0.1376953,0.1435547-0.4003906,0.1435547-0.7871094v-1.9755859c0-0.6386719-0.0146484-1.0273438-0.0439453-1.1669922
			s-0.0742188-0.234375-0.1347656-0.2851563c-0.0605469-0.0498047-0.1416016-0.0751953-0.2441406-0.0751953
			c-0.109375,0-0.2402344,0.0292969-0.3935547,0.0869141l-0.0878906-0.2089844l1.6210938-0.6503906h0.2529297V87.3098984z"/>
	</g>
	<g>
		<path class="st4" d="M4.6635742,86.4036484l-0.7631836,2.6201172c0.340332-0.6162109,0.6303711-1.0791016,0.8691406-1.3886719
			c0.3720703-0.4804688,0.7338867-0.8291016,1.0864258-1.0458984c0.2075195-0.1240234,0.4248047-0.1855469,0.6518555-0.1855469
			c0.1958008,0,0.3583984,0.0615234,0.4873047,0.1855469c0.1293945,0.1240234,0.1938477,0.2832031,0.1938477,0.4765625
			c0,0.1894531-0.0449219,0.4375-0.1347656,0.7431641L6.637207,89.2845078
			c0.6381836-1.1806641,1.2431641-2.0097656,1.8144531-2.4863281c0.3173828-0.2626953,0.6303711-0.3945313,0.9399414-0.3945313
			c0.1801758,0,0.3276367,0.0605469,0.4433594,0.1826172c0.1152344,0.1220703,0.1733398,0.3115234,0.1733398,0.5664063
			c0,0.2246094-0.0351563,0.4628906-0.105957,0.7148438l-0.6459961,2.2597656
			c-0.1411133,0.4912109-0.2114258,0.7646484-0.2114258,0.8183594c0,0.0546875,0.0175781,0.1015625,0.0527344,0.1396484
			c0.0239258,0.0273438,0.0551758,0.0410156,0.0942383,0.0410156s0.1074219-0.0371094,0.2055664-0.1103516
			c0.2231445-0.1708984,0.4326172-0.3955078,0.628418-0.6738281l0.1938477,0.1220703
			c-0.0981445,0.1542969-0.2714844,0.3671875-0.5200195,0.6386719S9.2387695,91.5579453,9.0625,91.6546249
			s-0.3383789,0.1455078-0.4873047,0.1455078c-0.137207,0-0.2514648-0.046875-0.34375-0.1396484
			C8.1396484,91.5677109,8.09375,91.4534531,8.09375,91.3177109c0-0.1855469,0.0800781-0.5595703,0.2407227-1.1210938
			l0.5341797-1.8642578c0.121582-0.4296875,0.1860352-0.6679688,0.1938477-0.7148438
			c0.0117188-0.0732422,0.0175781-0.1455078,0.0175781-0.2148438c0-0.0966797-0.0214844-0.171875-0.0644531-0.2265625
			c-0.046875-0.0537109-0.0996094-0.0810547-0.1586914-0.0810547c-0.1645508,0-0.3383789,0.0830078-0.5224609,0.25
			c-0.5405273,0.4912109-1.0454102,1.1806641-1.5151367,2.0673828c-0.3095703,0.5849609-0.5991211,1.3339844-0.8696289,2.2480469
			H5.0629883l1.0043945-3.5146484c0.109375-0.3789063,0.1645508-0.6328125,0.1645508-0.7607422
			c0-0.1044922-0.0214844-0.1816406-0.0644531-0.2324219c-0.043457-0.0498047-0.0961914-0.0751953-0.1586914-0.0751953
			c-0.1293945,0-0.2666016,0.046875-0.4111328,0.1396484c-0.2348633,0.1503906-0.5375977,0.4746094-0.9077148,0.9697266
			c-0.3696289,0.4960938-0.6567383,0.9697266-0.8603516,1.4228516c-0.0976563,0.2128906-0.3305664,0.8964844-0.6987305,2.0507813
			H2.2617188l1.0864258-3.7636719l0.1411133-0.4882813c0.0273438-0.0732422,0.0410156-0.1279297,0.0410156-0.1630859
			c0-0.0849609-0.0390625-0.1611328-0.1176758-0.2294922c-0.078125-0.0673828-0.1782227-0.1015625-0.2993164-0.1015625
			c-0.0507813,0-0.1918945,0.0234375-0.4228516,0.0703125l-0.0527344-0.2148438L4.6635742,86.4036484z"/>
		<path class="st4" d="M16.9726563,86.7639999l-0.1704102,0.6035156h-0.980957
			c0.0742188,0.2089844,0.1118164,0.4052734,0.1118164,0.5869141c0,0.5117188-0.2192383,0.9658203-0.6577148,1.3652344
			c-0.4428711,0.3984375-1.0493164,0.6191406-1.8208008,0.6621094c-0.4150391,0.1240234-0.7260742,0.2714844-0.9335938,0.4414063
			c-0.0786133,0.0615234-0.1176758,0.1259766-0.1176758,0.1914063c0,0.078125,0.0351563,0.1484375,0.105957,0.2119141
			c0.0703125,0.0644531,0.2485352,0.1289063,0.5341797,0.1953125l1.1391602,0.2607422
			c0.6303711,0.1474609,1.0473633,0.3222656,1.2509766,0.5234375c0.199707,0.2050781,0.2998047,0.4414063,0.2998047,0.7080078
			c0,0.3183594-0.1186523,0.6083984-0.3554688,0.8720703c-0.2368164,0.2626953-0.5834961,0.46875-1.0395508,0.6181641
			s-0.9599609,0.2236328-1.512207,0.2236328c-0.4853516,0-0.9277344-0.0566406-1.3271484-0.1708984
			s-0.6855469-0.2685547-0.8574219-0.4619141c-0.1723633-0.1943359-0.2587891-0.3935547-0.2587891-0.5986328
			c0-0.1660156,0.0561523-0.3398438,0.1674805-0.5195313c0.1118164-0.1806641,0.2514648-0.328125,0.4199219-0.4443359
			c0.105957-0.0742188,0.4052734-0.2480469,0.8989258-0.5234375c-0.1801758-0.1386719-0.2705078-0.2919922-0.2705078-0.4589844
			c0-0.1542969,0.0795898-0.3193359,0.237793-0.4931641c0.1586914-0.1748047,0.4946289-0.3662109,1.0073242-0.5751953
			c-0.4306641-0.0810547-0.7724609-0.2597656-1.0249023-0.5341797c-0.2524414-0.2753906-0.3789063-0.5810547-0.3789063-0.9179688
			c0-0.5498047,0.2441406-1.0419922,0.7314453-1.4755859s1.1362305-0.6503906,1.9467773-0.6503906
			c0.2939453,0,0.534668,0.0292969,0.7226563,0.0869141c0.1879883,0.0585938,0.3696289,0.1494141,0.5458984,0.2734375H16.9726563z
			 M12.121582,91.6604843c-0.3173828,0.1435547-0.5571289,0.3271484-0.7197266,0.5517578s-0.2436523,0.4453125-0.2436523,0.6621094
			c0,0.2558594,0.1176758,0.4667969,0.3525391,0.6337891c0.3364258,0.2392578,0.8300781,0.359375,1.4799805,0.359375
			c0.5595703,0,1.0385742-0.09375,1.4360352-0.28125c0.3969727-0.1875,0.5957031-0.4306641,0.5957031-0.7294922
			c0-0.1503906-0.0732422-0.2939453-0.2202148-0.4296875c-0.1464844-0.1357422-0.4316406-0.2460938-0.8544922-0.3310547
			C13.7167969,92.0501328,13.1079102,91.9046249,12.121582,91.6604843z M14.9345703,87.6761093
			c0-0.3105469-0.0869141-0.5537109-0.2612305-0.7324219c-0.1743164-0.1777344-0.4023438-0.2675781-0.684082-0.2675781
			c-0.4428711,0-0.8076172,0.2207031-1.0957031,0.6601563c-0.2875977,0.4394531-0.4316406,0.8974609-0.4316406,1.3730469
			c0,0.2988281,0.0922852,0.5429688,0.2763672,0.7324219c0.1835938,0.1894531,0.4072266,0.2841797,0.6694336,0.2841797
			c0.2075195,0,0.4082031-0.0556641,0.6020508-0.1689453c0.1938477-0.1113281,0.3569336-0.2666016,0.4902344-0.4638672
			c0.1333008-0.1982422,0.2387695-0.4492188,0.3173828-0.7548828
			C14.8955078,88.0325546,14.9345703,87.8108749,14.9345703,87.6761093z"/>
	</g>
	<g>
		<path class="st4" d="M35.5825195,87.8333359c0.5146484-1.5253906,1.2236328-2.7001953,2.1279297-3.5263672
			c0.6835938-0.6191406,1.3554688-0.9287109,2.0175781-0.9287109c0.6416016,0,1.0888672,0.2978516,1.3417969,0.8945313
			c0.3544922,0.8320313,0.2900391,1.9648438-0.1933594,3.3984375c-0.4589844,1.3632813-1.1337891,2.4394531-2.0224609,3.2304688
			c-0.6923828,0.6113281-1.3662109,0.9179688-2.0244141,0.9179688c-0.3554688,0-0.6523438-0.0869141-0.8886719-0.2568359
			s-0.4130859-0.4150391-0.5322266-0.7373047c-0.1181641-0.3212891-0.1787109-0.6621094-0.1777344-1.0224609
			C35.230957,89.1839218,35.3491211,88.5276718,35.5825195,87.8333359z M36.7143555,87.8050156
			c-0.2167969,0.6884766-0.3730469,1.3095703-0.4677734,1.859375c-0.0751953,0.4179688-0.0810547,0.78125-0.0214844,1.0917969
			c0.0341797,0.1855469,0.125,0.3427734,0.2685547,0.4726563c0.1445313,0.1308594,0.3242188,0.1953125,0.5400391,0.1953125
			c0.25,0,0.5283203-0.1162109,0.8310547-0.3486328c0.3037109-0.2324219,0.5996094-0.6064453,0.8876953-1.1210938
			c0.2900391-0.515625,0.6005859-1.2314453,0.9335938-2.1494141H36.7143555z M39.8276367,87.4212265
			c0.3359375-1.0107422,0.5117188-1.8222656,0.5253906-2.4335938c0.0097656-0.4697266-0.0751953-0.8046875-0.2539063-1.0048828
			c-0.1308594-0.1474609-0.3125-0.2216797-0.5488281-0.2216797c-0.265625,0-0.5449219,0.1025391-0.8369141,0.3085938
			c-0.2929688,0.2050781-0.5771484,0.5478516-0.8554688,1.0283203c-0.2763672,0.4804688-0.6152344,1.2548828-1.0146484,2.3232422
			H39.8276367z"/>
	</g>
</g>
<g>
	<g>
		<path class="st5" d="M53.7480469,126.7542343l-0.7666016,2.6230392c0.3417969-0.6162109,0.6328125-1.0800781,0.8730469-1.3896408
			c0.3735352-0.4814453,0.7373047-0.8300781,1.0908203-1.0478516c0.2084961-0.1240234,0.4267578-0.1855469,0.6547852-0.1855469
			c0.1967773,0,0.3598633,0.0615234,0.4897461,0.1855469c0.1293945,0.125,0.1943359,0.2832031,0.1943359,0.4775391
			c0,0.1894531-0.0449219,0.4384766-0.1357422,0.744133l-0.418457,1.4775391
			c0.640625-1.1826172,1.2485352-2.0126877,1.8222656-2.4892502c0.3188477-0.2636719,0.6333008-0.3955078,0.9438477-0.3955078
			c0.1806641,0,0.3286133,0.0605469,0.4458008,0.1835938c0.1152344,0.1220703,0.1738281,0.3105469,0.1738281,0.5664063
			c0,0.2255859-0.0351563,0.4638672-0.1064453,0.7158127l-0.6489258,2.2626953
			c-0.1416016,0.4921875-0.2124023,0.765625-0.2124023,0.8193359c0,0.0546875,0.0180664,0.1015625,0.0532227,0.1396484
			c0.0234375,0.0273438,0.0551758,0.0410156,0.0942383,0.0410156c0.0395508,0,0.1083984-0.0371094,0.206543-0.1103516
			c0.2241211-0.1708984,0.434082-0.3955078,0.6313477-0.6748047l0.1943359,0.1220703
			c-0.0986328,0.1552734-0.2724609,0.3681641-0.5224609,0.6396484c-0.2490234,0.2714844-0.4624023,0.4560547-0.6391602,0.5527344
			c-0.1772461,0.0966797-0.340332,0.1455078-0.4897461,0.1455078c-0.1376953,0-0.2529297-0.046875-0.3452148-0.1396484
			s-0.1381836-0.2070313-0.1381836-0.3427734c0-0.1865234,0.0800781-0.5605469,0.2416992-1.1230469l0.5366211-1.8671875
			c0.121582-0.4296875,0.1865234-0.6689453,0.1948242-0.7148361c0.0117188-0.0742188,0.0175781-0.1455078,0.0175781-0.2158203
			c0-0.0966797-0.0219727-0.171875-0.0649414-0.2265625c-0.0473633-0.0537109-0.1000977-0.0810547-0.1591797-0.0810547
			c-0.1650391,0-0.340332,0.0830078-0.5249023,0.25c-0.5429688,0.4921799-1.0498047,1.1826096-1.5219727,2.0703049
			c-0.3105469,0.5859375-0.6015625,1.3359375-0.8725586,2.2509766h-0.890625l1.0083008-3.5185547
			c0.1103516-0.3798828,0.1650391-0.6337814,0.1650391-0.7626877c0-0.1044922-0.0214844-0.1816406-0.0644531-0.2324219
			c-0.043457-0.0498047-0.0966797-0.0751953-0.159668-0.0751953c-0.1293945,0-0.2670898,0.0458984-0.4125977,0.1396484
			c-0.2358398,0.1513672-0.5395508,0.4746017-0.9111328,0.9706955c-0.371582,0.4970703-0.659668,0.9716797-0.8642578,1.4257813
			c-0.0981445,0.2128906-0.3325195,0.8974609-0.7016602,2.0527344h-0.8730469l1.0908203-3.7685547l0.1416016-0.4892502
			c0.027832-0.0732422,0.0415039-0.1279297,0.0415039-0.1621094c0-0.0859375-0.0395508-0.1621094-0.1181641-0.2304688
			c-0.0786133-0.0673828-0.1787109-0.1015625-0.3007813-0.1015625c-0.0507813,0-0.1923828,0.0234375-0.4243164,0.0703125
			l-0.0532227-0.2158203L53.7480469,126.7542343z"/>
		<path class="st5" d="M66.1098633,127.1145859l-0.1708984,0.6054688h-0.984375
			c0.0742188,0.2089844,0.1113281,0.4052658,0.1113281,0.5869064c0,0.5117188-0.2197266,0.9677734-0.6601563,1.3671875
			c-0.4443359,0.3994141-1.0537109,0.6201172-1.828125,0.6630859c-0.4169922,0.1240234-0.7294922,0.2705078-0.9384766,0.4423828
			c-0.078125,0.0615234-0.1181641,0.125-0.1181641,0.1914063c0,0.0771484,0.0361328,0.1484375,0.1064453,0.2119141
			c0.0712891,0.0644531,0.25,0.1289063,0.5371094,0.1953125l1.1435547,0.2617188
			c0.6337891,0.1474609,1.0527344,0.3212891,1.2568359,0.5234375c0.2001953,0.2050781,0.3007813,0.4423828,0.3007813,0.7099609
			c0,0.3173828-0.1191406,0.6083984-0.3564453,0.8720703c-0.2382813,0.2636719-0.5859375,0.4697266-1.0439453,0.6191406
			c-0.4589844,0.1494141-0.9648438,0.2246094-1.5195313,0.2246094c-0.4873047,0-0.9316406-0.0576172-1.3330078-0.171875
			c-0.4003906-0.1142578-0.6875-0.2685547-0.8603516-0.4628906c-0.1738281-0.1933594-0.2597656-0.3935547-0.2597656-0.5986328
			c0-0.1669922,0.0556641-0.3408203,0.1679688-0.5205078c0.1123047-0.1806641,0.2529297-0.3291016,0.421875-0.4453125
			c0.1054688-0.0732422,0.4072266-0.2480469,0.9023438-0.5234375c-0.1806641-0.1396484-0.2714844-0.2929688-0.2714844-0.4589844
			c0-0.1552734,0.0800781-0.3203125,0.2392578-0.4951172c0.1591797-0.1738281,0.4960938-0.3662109,1.0107422-0.5751953
			c-0.4326172-0.0810547-0.7753906-0.2597656-1.0283203-0.5351563c-0.2539063-0.2753906-0.3808594-0.5820313-0.3808594-0.9189453
			c0-0.5507813,0.2451172-1.0429611,0.734375-1.4775314s1.1416016-0.6513672,1.9550781-0.6513672
			c0.2949219,0,0.5371094,0.0292969,0.7255859,0.0869141c0.1884766,0.0585938,0.3710938,0.1494141,0.5488281,0.2734375H66.1098633z
			 M61.2387695,132.0178986c-0.3193359,0.1435547-0.5595703,0.328125-0.7226563,0.5527344s-0.2451172,0.4453125-0.2451172,0.6630859
			c0,0.2558594,0.1181641,0.4667969,0.3535156,0.6337891c0.3388672,0.2402344,0.8339844,0.3603516,1.4863281,0.3603516
			c0.5625,0,1.0429688-0.09375,1.4423828-0.2822266c0.3994141-0.1875,0.5986328-0.4306641,0.5986328-0.7294922
			c0-0.1513672-0.0732422-0.2949219-0.2207031-0.4306641s-0.4335938-0.2460938-0.8583984-0.3310547
			C62.840332,132.407547,62.2290039,132.2620392,61.2387695,132.0178986z M64.0639648,128.0276642
			c0-0.3095627-0.0878906-0.5537033-0.2626953-0.7324142s-0.4042969-0.2675781-0.6875-0.2675781
			c-0.4443359,0-0.8105469,0.2197266-1.0996094,0.6601563c-0.2890625,0.4404221-0.4335938,0.8984299-0.4335938,1.3759689
			c0,0.2978516,0.0917969,0.5419922,0.2773438,0.7324219c0.1845703,0.1904297,0.4082031,0.2851563,0.671875,0.2851563
			c0.2089844,0,0.4101563-0.0566406,0.6044922-0.1689453c0.1953125-0.1123047,0.359375-0.2675781,0.4931641-0.4648438
			c0.1328125-0.1982422,0.2392578-0.4501953,0.3183594-0.7568359
			C64.0239258,128.3850861,64.0639648,128.1634064,64.0639648,128.0276642z"/>
	</g>
</g>
<g>
	<g>
		<path class="st5" d="M34.1811523,38.8665352c0.5117188-1.5371094,1.2167969-2.7207031,2.1162109-3.5507813
			c0.6777344-0.6240234,1.3466797-0.9365234,2.0048828-0.9365234c0.6386719,0,1.0839844,0.2998047,1.3359375,0.9013672
			c0.3525391,0.8378906,0.2861328,1.9794922-0.1933594,3.4228516c-0.4570313,1.3730469-1.1259766,2.4570313-2.0097656,3.2529297
			c-0.6884766,0.6162109-1.3598633,0.9248047-2.0141602,0.9248047c-0.3535156,0-0.6479492-0.0859375-0.8833008-0.2578125
			c-0.234375-0.1708984-0.4111328-0.4199219-0.5297852-0.7431641c-0.1176758-0.3232422-0.1762695-0.6669922-0.1772461-1.0292969
			C33.8325195,40.2259102,33.9487305,39.5657539,34.1811523,38.8665352z M35.3061523,38.8372383
			c-0.215332,0.6953125-0.3701172,1.3183594-0.4648438,1.8730469c-0.0737305,0.421875-0.0810547,0.7871094-0.0209961,1.0996094
			c0.034668,0.1875,0.1240234,0.3466797,0.2670898,0.4775391c0.144043,0.1308594,0.3222656,0.1953125,0.5361328,0.1953125
			c0.2490234,0,0.5253906-0.1171875,0.8271484-0.3515625c0.3017578-0.2333984,0.5957031-0.609375,0.8837891-1.1279297
			c0.2871094-0.5195313,0.5957031-1.2412109,0.9267578-2.1660156H35.3061523z M38.4008789,38.4524727
			c0.3359375-1.0195313,0.5107422-1.8359375,0.5244141-2.453125c0.0087891-0.4707031-0.0742188-0.8085938-0.2529297-1.0117188
			c-0.1298828-0.1484375-0.3105469-0.2226563-0.5449219-0.2226563c-0.2646484,0-0.5429688,0.1035156-0.8330078,0.3105469
			s-0.5742188,0.5517578-0.8496094,1.0351563c-0.2763672,0.484375-0.6132813,1.2646484-1.0102539,2.3417969H38.4008789z"/>
	</g>
</g>
<g>
	<line class="st6" x1="60.2536964" y1="75.7886887" x2="77.3922806" y2="114.9633331"/>
	<g>
		<g>
			<polygon class="st7" points="73.1299591,106.5258408 71.291748,107.33004 77.3902893,114.9641953 75.9266815,105.302269 
				74.0883179,106.1065292 60.7328033,75.5790634 59.7744446,75.9983749 			"/>
		</g>
	</g>
</g>
<g>
	<g>
		<g>
			<polygon class="st2" points="59.7305756,113.0299911 57.7241516,113.0299911 60.2515259,122.4684677 62.7832489,113.0299911 
				60.7766418,113.0299911 60.7766418,75.8640366 59.7305756,75.8640366 			"/>
		</g>
	</g>
</g>
<g>
	<line class="st6" x1="60.1175766" y1="75.8640442" x2="42.9789925" y2="83.36203"/>
	<g>
		<g>
			<polygon class="st4" points="51.4164886,79.0996933 50.6122894,77.2614975 42.9781189,83.3600082 52.6400452,81.8964462 
				51.8357697,80.0580673 60.327179,76.3431625 59.9079132,75.3847885 			"/>
		</g>
	</g>
</g>
<path class="st0" d="M77.3922806,114.9109192l-17.274704,7.5575409"/>
<path class="st0" d="M42.9789925,83.2938156l17.1385841,39.1746445"/>
<g>
	<line class="st6" x1="60.1540985" y1="75.8640366" x2="43.0155144" y2="36.6893921"/>
	<g>
		<g>
			<polygon class="st7" points="47.2778473,45.1269112 49.1160583,44.3227119 43.0175171,36.6884956 44.4811096,46.3504219 
				46.3194733,45.5461617 59.6749878,76.0736313 60.6333618,75.6543808 			"/>
		</g>
	</g>
</g>
<g>
	<g>
		<g>
			<path class="st7" d="M53.3134766,39.2034492h6.059082l-0.6523438,2.09375H58.496582
				c0.0742188-0.3066406,0.1113281-0.5800781,0.1113281-0.8203125c0-0.2832031-0.0878906-0.4960938-0.2646484-0.6396484
				c-0.1337891-0.1083984-0.4765625-0.1630859-1.0292969-0.1630859H56.684082l-1.5766602,5.4326172
				c-0.199707,0.6826172-0.2998047,1.1035156-0.2998047,1.2617188c0,0.1474609,0.0625,0.2685547,0.1879883,0.3642578
				c0.1254883,0.0947266,0.347168,0.1425781,0.6650391,0.1425781h0.2705078l-0.0703125,0.2148438h-3.4711914l0.0644531-0.2148438
				h0.1533203c0.3056641,0,0.5410156-0.0488281,0.7060547-0.1455078c0.1132813-0.0664063,0.2163086-0.1855469,0.3085938-0.3583984
				c0.0922852-0.171875,0.2207031-0.5380859,0.3852539-1.0957031l1.6533203-5.6015625H55.184082
				c-0.4589844,0-0.8286133,0.0585938-1.1088867,0.1748047c-0.2807617,0.1162109-0.5068359,0.2851563-0.6796875,0.5058594
				c-0.1723633,0.2207031-0.3134766,0.5351563-0.4233398,0.9423828h-0.2177734L53.3134766,39.2034492z"/>
		</g>
	</g>
</g>
<g>
	<g>
		<g>
			<path class="st7" d="M99.190918,121.8577499c-0.1445313,0.7011719-0.4267578,1.2402344-0.8486328,1.6181641
				c-0.421875,0.3769531-0.8886719,0.5664063-1.4003906,0.5664063c-0.6088867,0-1.1401367-0.2539063-1.5932617-0.7617188
				c-0.453125-0.5068359-0.6791992-1.1923828-0.6791992-2.0556641c0-0.8369141,0.2504883-1.5166016,0.7524414-2.0390625
				s1.1040039-0.7841797,1.8071289-0.7841797c0.5273438,0,0.9599609,0.1386719,1.3007813,0.4150391
				c0.3388672,0.2773438,0.5087891,0.5644531,0.5087891,0.8632813c0,0.1464844-0.0478516,0.265625-0.1435547,0.3564453
				c-0.0957031,0.0917969-0.2285156,0.1367188-0.4003906,0.1367188c-0.2304688,0-0.4052734-0.0732422-0.5214844-0.2207031
				c-0.0668945-0.0810547-0.1108398-0.2363281-0.1318359-0.4648438c-0.0214844-0.2285156-0.1005859-0.4023438-0.2373047-0.5224609
				c-0.1367188-0.1162109-0.3261719-0.1748047-0.5683594-0.1748047c-0.390625,0-0.7050781,0.1435547-0.9428711,0.4306641
				c-0.3164063,0.3789063-0.4746094,0.8808594-0.4746094,1.5039063c0,0.6347656,0.1572266,1.1953125,0.4716797,1.6816406
				c0.3139648,0.4863281,0.7387695,0.7294922,1.2739258,0.7294922c0.3828125,0,0.7255859-0.1298828,1.03125-0.3896484
				c0.2138672-0.1777344,0.4228516-0.5009766,0.6259766-0.9707031L99.190918,121.8577499z"/>
			<path class="st7" d="M102.5102539,118.4016953c0.8125,0,1.4648438,0.3056641,1.9560547,0.9179688
				c0.4179688,0.5224609,0.6269531,1.1230469,0.6269531,1.7998047c0,0.4765625-0.1152344,0.9589844-0.3457031,1.4472656
				c-0.2304688,0.4873047-0.5478516,0.8554688-0.9511719,1.1035156c-0.4042969,0.2480469-0.8544922,0.3720703-1.3505859,0.3720703
				c-0.8085938,0-1.4511719-0.3203125-1.9267578-0.9589844c-0.4023438-0.5380859-0.6035156-1.1425781-0.6035156-1.8125
				c0-0.4873047,0.1220703-0.9726563,0.3662109-1.4550781c0.2441406-0.4814453,0.5654297-0.8378906,0.9628906-1.0683594
				C101.6430664,118.5169296,102.0649414,118.4016953,102.5102539,118.4016953z M102.3286133,118.7796249
				c-0.2070313,0-0.4150391,0.0605469-0.6240234,0.1826172s-0.3779297,0.3359375-0.5068359,0.6416016
				c-0.1289063,0.3066406-0.1923828,0.6992188-0.1923828,1.1796875c0,0.7734375,0.1542969,1.4423828,0.4648438,2.0039063
				s0.7197266,0.8417969,1.2275391,0.8417969c0.3789063,0,0.6914063-0.1542969,0.9375-0.4648438
				c0.2460938-0.3095703,0.3691406-0.8417969,0.3691406-1.5976563c0-0.9443359-0.2050781-1.6875-0.6152344-2.2294922
				C103.1118164,118.9651718,102.7583008,118.7796249,102.3286133,118.7796249z"/>
			<path class="st7" d="M109.3520508,118.4016953v1.8125h-0.1933594c-0.1484375-0.5693359-0.3388672-0.9570313-0.5712891-1.1621094
				s-0.5283203-0.3076172-0.8876953-0.3076172c-0.2734375,0-0.4941406,0.0712891-0.6621094,0.2148438
				c-0.1669922,0.1435547-0.2509766,0.3017578-0.2509766,0.4765625c0,0.2167969,0.0615234,0.4023438,0.1875,0.5576172
				c0.1201172,0.1582031,0.3662109,0.3271484,0.7373047,0.5048828l0.8554688,0.4130859
				c0.7929688,0.3828125,1.1894531,0.8876953,1.1894531,1.515625c0,0.484375-0.1845703,0.8740234-0.5537109,1.1708984
				c-0.3691406,0.2958984-0.7822266,0.4443359-1.2392578,0.4443359c-0.328125,0-0.703125-0.0585938-1.1240234-0.1748047
				c-0.1289063-0.0380859-0.234375-0.0576172-0.3164063-0.0576172c-0.0898438,0-0.1601563,0.0498047-0.2109375,0.1503906h-0.1933594
				v-1.8994141h0.1933594c0.109375,0.5419922,0.3183594,0.9511719,0.6269531,1.2255859
				c0.3076172,0.2753906,0.6533203,0.4130859,1.0361328,0.4130859c0.2695313,0,0.4892578-0.0791016,0.6591797-0.2353516
				c0.1699219-0.1572266,0.2548828-0.3457031,0.2548828-0.5664063c0-0.2675781-0.0947266-0.4921875-0.2841797-0.6738281
				c-0.1894531-0.1826172-0.5673828-0.4130859-1.1337891-0.6914063c-0.5654297-0.2783203-0.9365234-0.5302734-1.1123047-0.7548828
				c-0.1757813-0.2207031-0.2636719-0.5-0.2636719-0.8369141c0-0.4375,0.1513672-0.8037109,0.4541016-1.0976563
				c0.3017578-0.2939453,0.6933594-0.4414063,1.1738281-0.4414063c0.2109375,0,0.4667969,0.0449219,0.7675781,0.1337891
				c0.1992188,0.0576172,0.3320313,0.0869141,0.3984375,0.0869141c0.0625,0,0.1113281-0.0136719,0.1464844-0.0410156
				c0.0351563-0.0263672,0.0761719-0.0869141,0.1230469-0.1796875H109.3520508z"/>
		</g>
		<g>
			<path class="st7" d="M79.9926758,118.6223984l-0.7612305,2.6201172c0.3398438-0.6162109,0.628418-1.0791016,0.8666992-1.3886719
				c0.3710938-0.4804688,0.7324219-0.8291016,1.0834961-1.0458984c0.2070313-0.1240234,0.4238281-0.1855469,0.6503906-0.1855469
				c0.1953125,0,0.3574219,0.0615234,0.4863281,0.1855469s0.1933594,0.2832031,0.1933594,0.4765625
				c0,0.1894531-0.0449219,0.4375-0.1347656,0.7431641l-0.4160156,1.4755859
				c0.6362305-1.1806641,1.2397461-2.0097656,1.8100586-2.4863281c0.3164063-0.2626953,0.628418-0.3945313,0.9370117-0.3945313
				c0.1796875,0,0.3271484,0.0605469,0.4423828,0.1826172s0.1728516,0.3115234,0.1728516,0.5664063
				c0,0.2246094-0.0351563,0.4628906-0.1054688,0.7148438l-0.6445313,2.2597656
				c-0.140625,0.4912109-0.2109375,0.7646484-0.2109375,0.8183594c0,0.0546875,0.0175781,0.1015625,0.0527344,0.1396484
				c0.0234375,0.0273438,0.0546875,0.0410156,0.09375,0.0410156s0.1074219-0.0371094,0.2050781-0.1103516
				c0.2226563-0.1708984,0.4316406-0.3955078,0.6269531-0.6738281l0.1933594,0.1220703
				c-0.0976563,0.1542969-0.2705078,0.3671875-0.5185547,0.6386719s-0.4599609,0.4550781-0.6357422,0.5517578
				s-0.3374023,0.1455078-0.4858398,0.1455078c-0.1367188,0-0.2509766-0.046875-0.3427734-0.1396484
				s-0.1376953-0.2070313-0.1376953-0.3427734c0-0.1855469,0.0800781-0.5595703,0.2402344-1.1210938l0.5327148-1.8642578
				c0.1210938-0.4296875,0.1855469-0.6679688,0.1933594-0.7148438c0.0117188-0.0732422,0.0175781-0.1455078,0.0175781-0.2148438
				c0-0.0966797-0.0214844-0.171875-0.0644531-0.2265625c-0.046875-0.0537109-0.0996094-0.0810547-0.1582031-0.0810547
				c-0.1635742,0-0.3374023,0.0830078-0.5209961,0.25c-0.5390625,0.4912109-1.0424805,1.1806641-1.5112305,2.0673828
				c-0.3085938,0.5849609-0.5976563,1.3339844-0.8671875,2.2480469h-0.8842773l1.0014648-3.5146484
				c0.109375-0.3789063,0.1640625-0.6328125,0.1640625-0.7607422c0-0.1044922-0.0214844-0.1816406-0.0644531-0.2324219
				c-0.0429688-0.0498047-0.0957031-0.0751953-0.1582031-0.0751953c-0.1289063,0-0.265625,0.046875-0.409668,0.1396484
				c-0.234375,0.1503906-0.5361328,0.4746094-0.9052734,0.9697266c-0.3691406,0.4960938-0.6547852,0.9697266-0.8579102,1.4228516
				c-0.0976563,0.2128906-0.3300781,0.8964844-0.6972656,2.0507813H77.597168l1.0834961-3.7636719l0.140625-0.4882813
				c0.0273438-0.0732422,0.0410156-0.1279297,0.0410156-0.1630859c0-0.0849609-0.0390625-0.1611328-0.1171875-0.2294922
				c-0.078125-0.0673828-0.1777344-0.1015625-0.2988281-0.1015625c-0.0507813,0-0.1914063,0.0234375-0.4213867,0.0703125
				l-0.0527344-0.2148438L79.9926758,118.6223984z"/>
			<path class="st7" d="M92.269043,118.9827499l-0.1699219,0.6035156h-0.9780273
				c0.0737305,0.2089844,0.1113281,0.4052734,0.1113281,0.5869141c0,0.5117188-0.21875,0.9658203-0.65625,1.3652344
				c-0.4414063,0.3984375-1.0463867,0.6191406-1.815918,0.6621094c-0.4140625,0.1240234-0.7241211,0.2714844-0.9311523,0.4414063
				c-0.078125,0.0615234-0.1171875,0.1259766-0.1171875,0.1914063c0,0.078125,0.0351563,0.1484375,0.1054688,0.2119141
				c0.0703125,0.0644531,0.2480469,0.1289063,0.5327148,0.1953125l1.1367188,0.2607422
				c0.628418,0.1474609,1.0444336,0.3222656,1.2475586,0.5234375c0.1992188,0.2050781,0.2988281,0.4414063,0.2988281,0.7080078
				c0,0.3183594-0.1181641,0.6083984-0.3544922,0.8720703c-0.2363281,0.2626953-0.5820313,0.46875-1.0366211,0.6181641
				c-0.4550781,0.1494141-0.9580078,0.2236328-1.5083008,0.2236328c-0.484375,0-0.9257813-0.0566406-1.3242188-0.1708984
				c-0.3979492-0.1142578-0.6831055-0.2685547-0.8549805-0.4619141c-0.171875-0.1943359-0.2578125-0.3935547-0.2578125-0.5986328
				c0-0.1660156,0.0556641-0.3398438,0.1669922-0.5195313c0.1113281-0.1806641,0.2509766-0.328125,0.4189453-0.4443359
				c0.1054688-0.0742188,0.4042969-0.2480469,0.8959961-0.5234375c-0.1796875-0.1386719-0.2695313-0.2919922-0.2695313-0.4589844
				c0-0.1542969,0.0791016-0.3193359,0.2373047-0.4931641c0.1582031-0.1748047,0.4931641-0.3662109,1.0048828-0.5751953
				c-0.4296875-0.0810547-0.7705078-0.2597656-1.0224609-0.5341797c-0.2519531-0.2753906-0.3774414-0.5810547-0.3774414-0.9179688
				c0-0.5498047,0.2426758-1.0419922,0.7290039-1.4755859s1.1333008-0.6503906,1.9418945-0.6503906
				c0.2929688,0,0.5327148,0.0292969,0.7202148,0.0869141c0.1875,0.0585938,0.3691406,0.1494141,0.5449219,0.2734375H92.269043z
				 M87.4306641,123.8792343c-0.3164063,0.1435547-0.5556641,0.3271484-0.7172852,0.5517578
				c-0.1621094,0.2246094-0.2431641,0.4453125-0.2431641,0.6621094c0,0.2558594,0.1171875,0.4667969,0.3510742,0.6337891
				c0.3359375,0.2392578,0.828125,0.359375,1.4760742,0.359375c0.5585938,0,1.0361328-0.09375,1.4326172-0.28125
				c0.3959961-0.1875,0.5942383-0.4306641,0.5942383-0.7294922c0-0.1503906-0.0732422-0.2939453-0.2197266-0.4296875
				s-0.4301758-0.2460938-0.8520508-0.3310547C89.0219727,124.2688828,88.4145508,124.1233749,87.4306641,123.8792343z
				 M90.2363281,119.8948593c0-0.3105469-0.0869141-0.5537109-0.2607422-0.7324219
				c-0.1738281-0.1777344-0.4008789-0.2675781-0.6821289-0.2675781c-0.4414063,0-0.8056641,0.2207031-1.0922852,0.6601563
				c-0.2871094,0.4394531-0.4306641,0.8974609-0.4306641,1.3730469c0,0.2988281,0.0917969,0.5429688,0.2753906,0.7324219
				c0.1831055,0.1894531,0.4057617,0.2841797,0.6674805,0.2841797c0.2070313,0,0.4072266-0.0556641,0.6005859-0.1689453
				c0.1933594-0.1113281,0.3564453-0.2666016,0.4887695-0.4638672c0.1328125-0.1982422,0.2382813-0.4492188,0.3164063-0.7548828
				S90.2363281,120.0296249,90.2363281,119.8948593z"/>
		</g>
		<g>
			<path class="st7" d="M112.5493164,120.0823593c0.5126953-1.5263672,1.2207031-2.7021484,2.1230469-3.5263672
				c0.6796875-0.6191406,1.3505859-0.9296875,2.0107422-0.9296875c0.640625,0,1.0869141,0.2988281,1.3388672,0.8955078
				c0.3525391,0.8320313,0.2880859,1.9648438-0.1933594,3.3974609c-0.4580078,1.3632813-1.1298828,2.4404297-2.0166016,3.2294922
				c-0.6894531,0.6123047-1.3632813,0.9189453-2.0195313,0.9189453c-0.3554688,0-0.6503906-0.0869141-0.8857422-0.2568359
				s-0.4130859-0.4160156-0.5302734-0.7373047c-0.1191406-0.3212891-0.1777344-0.6621094-0.1777344-1.0224609
				C112.1987305,121.4319687,112.315918,120.7757187,112.5493164,120.0823593z M113.6772461,120.0530624
				c-0.2158203,0.6894531-0.3710938,1.3085938-0.4667969,1.8583984c-0.0742188,0.4179688-0.0810547,0.7822266-0.0205078,1.0917969
				c0.0341797,0.1865234,0.1240234,0.34375,0.2685547,0.4746094c0.1435547,0.1289063,0.3222656,0.1943359,0.5371094,0.1943359
				c0.25,0,0.5273438-0.1171875,0.8300781-0.3496094c0.3027344-0.2314453,0.5976563-0.6044922,0.8867188-1.1201172
				c0.2871094-0.5146484,0.5976563-1.2314453,0.9287109-2.1494141H113.6772461z M116.7817383,119.6692734
				c0.3359375-1.0107422,0.5107422-1.8212891,0.5263672-2.4335938c0.0087891-0.46875-0.0761719-0.8027344-0.2539063-1.0048828
				c-0.1308594-0.1474609-0.3125-0.2216797-0.546875-0.2216797c-0.265625,0-0.5449219,0.1035156-0.8359375,0.3085938
				c-0.2919922,0.2060547-0.5761719,0.5478516-0.8525391,1.0283203s-0.6142578,1.2548828-1.0126953,2.3232422H116.7817383z"/>
		</g>
	</g>
</g>
<g>
</g>
<g>
</g>
<g>
</g>
<g>
</g>
<g>
</g>
<g>
</g>
</svg>
