<?xml version="1.0" encoding="utf-8"?>
<!-- Generator: Adobe Illustrator 19.0.0, SVG Export Plug-In . SVG Version: 6.00 Build 0)  -->
<svg version="1.1" id="图层_1" xmlns="http://www.w3.org/2000/svg" xmlns:xlink="http://www.w3.org/1999/xlink" x="0px" y="0px"
	 viewBox="0 0 119.5 120.5" style="enable-background:new 0 0 119.5 120.5;" xml:space="preserve">
<style type="text/css">
	.st0{fill-opacity:0;stroke:#000000;}
	.st1{enable-background:new    ;}
</style>
<g>
	<path class="st0" d="M35.7134514,37.4338837h19.6966934v19.696579H35.7134514V37.4338837z"/>
	<path class="st0" d="M35.7128563,96.5243301h19.6966972v19.6964645H35.7128563V96.5243301z"/>
	<path class="st0" d="M55.4095535,76.8274002h19.696579v19.6969299h-19.696579V76.8274002z"/>
	<path class="st0" d="M35.7128563,76.8274002h19.6966972v19.6969299H35.7128563V76.8274002z"/>
	<path class="st0" d="M75.1061325,57.1304626h19.6966934v19.6969376H75.1061325V57.1304626z"/>
	<path class="st0" d="M55.4095535,57.1304626h19.696579v19.6969376h-19.696579V57.1304626z"/>
	<path class="st0" d="M35.7128563,57.1304626h19.6966972v19.6969376H35.7128563V57.1304626z"/>
	<path class="st0" d="M94.8028259,37.4338837H114.5v19.696579H94.8028259V37.4338837z"/>
	<path class="st0" d="M75.1061325,37.4338837h19.6966934v19.696579H75.1061325V37.4338837z"/>
	<path class="st0" d="M55.4095535,37.4338837h19.696579v19.696579h-19.696579V37.4338837z"/>
	<g class="st1">
		<path d="M44.8120117,48.4145508v0.8276367h-1.0605469v2.0869141h-0.9619141v-2.0869141h-3.3457031v-0.7460938l3.6665039-5.2338867
			h0.6411133v5.1523438H44.8120117z M42.7895508,48.4145508v-3.9228516l-2.7744141,3.9228516H42.7895508z"/>
		<path d="M50.6992188,43.2446289v2.7333984H50.484375c-0.0703125-0.5244141-0.1953125-0.9418945-0.3769531-1.2529297
			c-0.1796875-0.3110352-0.4375-0.5576172-0.7714844-0.7402344c-0.3349609-0.1826172-0.6806641-0.2739258-1.0380859-0.2739258
			c-0.4042969,0-0.7382813,0.1230469-1.0024414,0.3701172c-0.2641602,0.246582-0.3964844,0.5273438-0.3964844,0.8422852
			c0,0.2407227,0.0834961,0.4604492,0.2504883,0.6586914c0.2412109,0.2915039,0.8144531,0.6796875,1.7197266,1.1655273
			c0.7382813,0.3964844,1.2421875,0.7006836,1.5117188,0.9121094c0.2714844,0.2119141,0.4785156,0.4614258,0.625,0.7490234
			c0.1445313,0.2875977,0.21875,0.5888672,0.21875,0.9038086c0,0.5981445-0.2324219,1.1142578-0.6972656,1.5473633
			c-0.4648438,0.4335938-1.0625,0.6499023-1.7929688,0.6499023c-0.2285156,0-0.4443359-0.0175781-0.6464844-0.0522461
			c-0.1201172-0.0195313-0.3701172-0.090332-0.7490234-0.2128906s-0.6186523-0.1835938-0.7197266-0.1835938
			c-0.097168,0-0.1738281,0.0292969-0.2299805,0.0874023c-0.0566406,0.0581055-0.0986328,0.1787109-0.1254883,0.3613281h-0.2158203
			v-2.7104492h0.2158203c0.1010742,0.5673828,0.2368164,0.9921875,0.4077148,1.2734375
			c0.1713867,0.2822266,0.4326172,0.5161133,0.7841797,0.7026367s0.7373047,0.2797852,1.1577148,0.2797852
			c0.484375,0,0.8691406-0.128418,1.1503906-0.3847656s0.421875-0.5595703,0.421875-0.9091797
			c0-0.1943359-0.0527344-0.390625-0.1601563-0.5888672c-0.1054688-0.1982422-0.2714844-0.3828125-0.4980469-0.5537109
			c-0.1503906-0.1166992-0.5644531-0.3642578-1.2412109-0.7431641c-0.6762695-0.3789063-1.1567383-0.6811523-1.4423828-0.90625
			c-0.2856445-0.2255859-0.5024414-0.4741211-0.6499023-0.7460938c-0.1479492-0.2719727-0.2216797-0.5712891-0.2216797-0.8979492
			c0-0.5668945,0.2177734-1.0556641,0.652832-1.4658203c0.4350586-0.409668,0.9887695-0.6147461,1.6611328-0.6147461
			c0.4199219,0,0.8642578,0.1030273,1.3349609,0.3085938c0.2167969,0.097168,0.3710938,0.1459961,0.4609375,0.1459961
			c0.0996094,0,0.1835938-0.0302734,0.2480469-0.090332c0.0625-0.0600586,0.1152344-0.1816406,0.1542969-0.3642578H50.6992188z"/>
	</g>
	<g class="st1">
		<path d="M40.65625,101.7148438l1.9233398-0.9379883h0.1923828v6.6738281c0,0.4428711,0.0185547,0.71875,0.0556641,0.8276367
			c0.0366211,0.1088867,0.1132813,0.1923828,0.2299805,0.2504883c0.1166992,0.0585938,0.3535156,0.0913086,0.7114258,0.0991211
			v0.2158203h-2.9731445v-0.2158203c0.3730469-0.0078125,0.6142578-0.0395508,0.7231445-0.0961914
			c0.1083984-0.0561523,0.1845703-0.1318359,0.2270508-0.2270508c0.0429688-0.0952148,0.0644531-0.3798828,0.0644531-0.8540039
			v-4.2666016c0-0.5751953-0.0195313-0.9443359-0.0585938-1.1074219c-0.0273438-0.1245117-0.0766602-0.2158203-0.1484375-0.2739258
			c-0.0722656-0.0585938-0.1586914-0.0878906-0.2592773-0.0878906c-0.144043,0-0.3442383,0.0605469-0.6005859,0.1811523
			L40.65625,101.7148438z"/>
		<path d="M50.6992188,100.7592773v2.7333984H50.484375c-0.0703125-0.5244141-0.1953125-0.9418945-0.3769531-1.2529297
			c-0.1796875-0.3110352-0.4375-0.5576172-0.7714844-0.7402344c-0.3349609-0.1826172-0.6806641-0.2739258-1.0380859-0.2739258
			c-0.4042969,0-0.7382813,0.1230469-1.0024414,0.3701172c-0.2641602,0.246582-0.3964844,0.5273438-0.3964844,0.8422852
			c0,0.2407227,0.0834961,0.4604492,0.2504883,0.6586914c0.2412109,0.2915039,0.8144531,0.6796875,1.7197266,1.1655273
			c0.7382813,0.3964844,1.2421875,0.7006836,1.5117188,0.9121094c0.2714844,0.2119141,0.4785156,0.4614258,0.625,0.7490234
			c0.1445313,0.2875977,0.21875,0.5888672,0.21875,0.9038086c0,0.5981445-0.2324219,1.1142578-0.6972656,1.5473633
			c-0.4648438,0.4335938-1.0625,0.6499023-1.7929688,0.6499023c-0.2285156,0-0.4443359-0.0175781-0.6464844-0.0522461
			c-0.1201172-0.0195313-0.3701172-0.090332-0.7490234-0.2128906s-0.6186523-0.1835938-0.7197266-0.1835938
			c-0.097168,0-0.1738281,0.0292969-0.2299805,0.0874023c-0.0566406,0.0581055-0.0986328,0.1787109-0.1254883,0.3613281h-0.2158203
			v-2.7104492h0.2158203c0.1010742,0.5673828,0.2368164,0.9921875,0.4077148,1.2734375
			c0.1713867,0.2822266,0.4326172,0.5161133,0.7841797,0.7026367s0.7373047,0.2797852,1.1577148,0.2797852
			c0.484375,0,0.8691406-0.128418,1.1503906-0.3847656s0.421875-0.5595703,0.421875-0.9091797
			c0-0.1943359-0.0527344-0.390625-0.1601563-0.5888672c-0.1054688-0.1982422-0.2714844-0.3828125-0.4980469-0.5537109
			c-0.1503906-0.1166992-0.5644531-0.3642578-1.2412109-0.7431641c-0.6762695-0.3789063-1.1567383-0.6811523-1.4423828-0.90625
			c-0.2856445-0.2255859-0.5024414-0.4741211-0.6499023-0.7460938c-0.1479492-0.2719727-0.2216797-0.5712891-0.2216797-0.8979492
			c0-0.5668945,0.2177734-1.0556641,0.652832-1.4658203c0.4350586-0.409668,0.9887695-0.6147461,1.6611328-0.6147461
			c0.4199219,0,0.8642578,0.1030273,1.3349609,0.3085938c0.2167969,0.097168,0.3710938,0.1459961,0.4609375,0.1459961
			c0.0996094,0,0.1835938-0.0302734,0.2480469-0.090332c0.0625-0.0600586,0.1152344-0.1816406,0.1542969-0.3642578H50.6992188z"/>
	</g>
	<g class="st1">
		<path d="M83.2148438,48.4145508v0.8276367h-1.0605469v2.0869141h-0.9619141v-2.0869141h-3.3457031v-0.7460938l3.6660156-5.2338867
			h0.6416016v5.1523438H83.2148438z M81.1923828,48.4145508v-3.9228516l-2.7744141,3.9228516H81.1923828z"/>
		<path d="M83.8330078,51.3291016v-0.2158203h0.296875c0.3339844,0,0.5712891-0.1064453,0.7109375-0.3203125
			c0.0859375-0.128418,0.1289063-0.4160156,0.1289063-0.862793v-5.105957c0-0.4936523-0.0546875-0.8022461-0.1630859-0.9267578
			c-0.1523438-0.1708984-0.3769531-0.2568359-0.6767578-0.2568359h-0.296875v-0.215332h3.2177734
			c1.1806641,0,2.0791016,0.1337891,2.6953125,0.4018555c0.6162109,0.2685547,1.1113281,0.715332,1.4863281,1.3408203
			c0.375,0.6259766,0.5625,1.3486328,0.5625,2.168457c0,1.0996094-0.3339844,2.0185547-1.0019531,2.7568359
			c-0.75,0.8242188-1.8925781,1.2358398-3.4277344,1.2358398H83.8330078z M86.0888672,50.7578125
			c0.4931641,0.1088867,0.9072266,0.1630859,1.2412109,0.1630859c0.9013672,0,1.6494141-0.3164063,2.2441406-0.949707
			c0.5947266-0.6337891,0.8916016-1.4921875,0.8916016-2.5766602c0-1.0917969-0.296875-1.9526367-0.8916016-2.5820313
			s-1.3583984-0.9443359-2.2910156-0.9443359c-0.3496094,0-0.7480469,0.0566406-1.1943359,0.1689453V50.7578125z"/>
	</g>
	<g class="st1">
		<path d="M44.7304688,87.625l-0.5537109,1.5214844h-4.6630859v-0.2158203
			c1.371582-1.2509766,2.3374023-2.2729492,2.8969727-3.065918C42.9702148,85.0722656,43.25,84.3476563,43.25,83.690918
			c0-0.5014648-0.1533203-0.9135742-0.4604492-1.2358398c-0.3071289-0.3227539-0.6743164-0.4838867-1.1015625-0.4838867
			c-0.3886719,0-0.7373047,0.1137695-1.0463867,0.3408203c-0.309082,0.2275391-0.5371094,0.5605469-0.6850586,1h-0.215332
			c0.097168-0.7192383,0.3466797-1.2709961,0.7490234-1.6557617c0.4018555-0.3847656,0.9042969-0.5766602,1.5068359-0.5766602
			c0.6411133,0,1.1762695,0.2055664,1.6054688,0.6176758c0.4296875,0.4121094,0.644043,0.8974609,0.644043,1.4570313
			c0,0.4003906-0.0932617,0.8007813-0.2797852,1.2006836c-0.2875977,0.6298828-0.7539063,1.2963867-1.3989258,1.9995117
			c-0.9672852,1.0571289-1.5717773,1.6943359-1.8125,1.9116211h2.0634766c0.4194336,0,0.7138672-0.0151367,0.8828125-0.0463867
			s0.3217773-0.0942383,0.4575195-0.1894531c0.1362305-0.0952148,0.2548828-0.2304688,0.355957-0.4052734H44.7304688z"/>
		<path d="M50.6992188,81.0620117v2.7333984H50.484375c-0.0703125-0.5244141-0.1953125-0.9418945-0.3769531-1.2529297
			c-0.1796875-0.3110352-0.4375-0.5576172-0.7714844-0.7402344c-0.3349609-0.1826172-0.6806641-0.2739258-1.0380859-0.2739258
			c-0.4042969,0-0.7382813,0.1230469-1.0024414,0.3701172c-0.2641602,0.246582-0.3964844,0.5273438-0.3964844,0.8422852
			c0,0.2407227,0.0834961,0.4604492,0.2504883,0.6586914c0.2412109,0.2915039,0.8144531,0.6796875,1.7197266,1.1655273
			c0.7382813,0.3964844,1.2421875,0.7006836,1.5117188,0.9121094c0.2714844,0.2119141,0.4785156,0.4614258,0.625,0.7490234
			c0.1445313,0.2875977,0.21875,0.5888672,0.21875,0.9038086c0,0.5981445-0.2324219,1.1142578-0.6972656,1.5473633
			c-0.4648438,0.4335938-1.0625,0.6499023-1.7929688,0.6499023c-0.2285156,0-0.4443359-0.0175781-0.6464844-0.0522461
			c-0.1201172-0.0195313-0.3701172-0.090332-0.7490234-0.2128906s-0.6186523-0.1835938-0.7197266-0.1835938
			c-0.097168,0-0.1738281,0.0292969-0.2299805,0.0874023c-0.0566406,0.0581055-0.0986328,0.1787109-0.1254883,0.3613281h-0.2158203
			v-2.7104492h0.2158203c0.1010742,0.5673828,0.2368164,0.9921875,0.4077148,1.2734375
			c0.1713867,0.2822266,0.4326172,0.5161133,0.7841797,0.7026367s0.7373047,0.2797852,1.1577148,0.2797852
			c0.484375,0,0.8691406-0.128418,1.1503906-0.3847656s0.421875-0.5595703,0.421875-0.9091797
			c0-0.1943359-0.0527344-0.390625-0.1601563-0.5888672c-0.1054688-0.1982422-0.2714844-0.3828125-0.4980469-0.5537109
			c-0.1503906-0.1166992-0.5644531-0.3642578-1.2412109-0.7431641c-0.6762695-0.3789063-1.1567383-0.6811523-1.4423828-0.90625
			c-0.2856445-0.2255859-0.5024414-0.4741211-0.6499023-0.7460938c-0.1479492-0.2719727-0.2216797-0.5712891-0.2216797-0.8979492
			c0-0.5668945,0.2177734-1.0556641,0.652832-1.4658203c0.4350586-0.409668,0.9887695-0.6147461,1.6611328-0.6147461
			c0.4199219,0,0.8642578,0.1030273,1.3349609,0.3085938c0.2167969,0.097168,0.3710938,0.1459961,0.4609375,0.1459961
			c0.0996094,0,0.1835938-0.0302734,0.2480469-0.090332c0.0625-0.0600586,0.1152344-0.1816406,0.1542969-0.3642578H50.6992188z"/>
	</g>
	<g class="st1">
		<path d="M78.2666016,64.6264648c0.2246094-0.5327148,0.5097656-0.9433594,0.8535156-1.2329102
			s0.7724609-0.434082,1.2851563-0.434082c0.6337891,0,1.1191406,0.2055664,1.4570313,0.6176758
			c0.2568359,0.3071289,0.3847656,0.6352539,0.3847656,0.9848633c0,0.5751953-0.3613281,1.1699219-1.0839844,1.7836914
			c0.4863281,0.1904297,0.8535156,0.4624023,1.1015625,0.815918c0.2490234,0.3540039,0.3730469,0.7695313,0.3730469,1.2475586
			c0,0.684082-0.2177734,1.2763672-0.6523438,1.777832c-0.5673828,0.652832-1.3896484,0.9790039-2.4658203,0.9790039
			c-0.5322266,0-0.8945313-0.065918-1.0869141-0.1977539c-0.1923828-0.1323242-0.2890625-0.2739258-0.2890625-0.4257813
			c0-0.112793,0.0458984-0.2114258,0.1376953-0.2973633c0.0908203-0.0854492,0.2011719-0.1279297,0.3291016-0.1279297
			c0.0966797,0,0.1962891,0.015625,0.296875,0.0463867c0.0664063,0.0195313,0.2158203,0.090332,0.4492188,0.2128906
			s0.3945313,0.1953125,0.4833984,0.21875c0.1435547,0.0424805,0.2978516,0.0639648,0.4609375,0.0639648
			c0.3964844,0,0.7412109-0.1533203,1.0341797-0.4604492c0.2939453-0.3071289,0.4404297-0.6704102,0.4404297-1.0898438
			c0-0.3071289-0.0683594-0.6064453-0.2041016-0.8979492c-0.1015625-0.2172852-0.2119141-0.3828125-0.3320313-0.4951172
			c-0.1669922-0.1557617-0.3964844-0.2963867-0.6884766-0.4228516c-0.2910156-0.1259766-0.5878906-0.1894531-0.8916016-0.1894531
			h-0.1865234v-0.1748047c0.3076172-0.0385742,0.6152344-0.1494141,0.9238281-0.3320313
			c0.3095703-0.1826172,0.5332031-0.4023438,0.6738281-0.6586914c0.1396484-0.2568359,0.2099609-0.5385742,0.2099609-0.8452148
			c0-0.4003906-0.1259766-0.7236328-0.3759766-0.9707031c-0.2509766-0.246582-0.5625-0.3701172-0.9355469-0.3701172
			c-0.6025391,0-1.1054688,0.3227539-1.5097656,0.9677734L78.2666016,64.6264648z"/>
		<path d="M83.8330078,71.0263672v-0.2158203h0.296875c0.3339844,0,0.5712891-0.1064453,0.7109375-0.3203125
			c0.0859375-0.128418,0.1289063-0.4160156,0.1289063-0.862793v-5.105957c0-0.4936523-0.0546875-0.8022461-0.1630859-0.9267578
			c-0.1523438-0.1708984-0.3769531-0.2568359-0.6767578-0.2568359h-0.296875v-0.215332h3.2177734
			c1.1806641,0,2.0791016,0.1337891,2.6953125,0.4018555c0.6162109,0.2685547,1.1113281,0.715332,1.4863281,1.3408203
			c0.375,0.6259766,0.5625,1.3486328,0.5625,2.168457c0,1.0996094-0.3339844,2.0185547-1.0019531,2.7568359
			c-0.75,0.8242188-1.8925781,1.2358398-3.4277344,1.2358398H83.8330078z M86.0888672,70.4550781
			c0.4931641,0.1088867,0.9072266,0.1630859,1.2412109,0.1630859c0.9013672,0,1.6494141-0.3164063,2.2441406-0.949707
			c0.5947266-0.6337891,0.8916016-1.4921875,0.8916016-2.5766602c0-1.0917969-0.296875-1.9526367-0.8916016-2.5820313
			s-1.3583984-0.9443359-2.2910156-0.9443359c-0.3496094,0-0.7480469,0.0566406-1.1943359,0.1689453V70.4550781z"/>
	</g>
	<g class="st1">
		<path d="M59.5605469,64.6264648c0.2246094-0.5327148,0.5097656-0.9433594,0.8535156-1.2329102
			s0.7724609-0.434082,1.2851563-0.434082c0.6337891,0,1.1191406,0.2055664,1.4570313,0.6176758
			c0.2568359,0.3071289,0.3847656,0.6352539,0.3847656,0.9848633c0,0.5751953-0.3613281,1.1699219-1.0839844,1.7836914
			c0.4863281,0.1904297,0.8535156,0.4624023,1.1015625,0.815918c0.2490234,0.3540039,0.3730469,0.7695313,0.3730469,1.2475586
			c0,0.684082-0.2177734,1.2763672-0.6523438,1.777832c-0.5673828,0.652832-1.3896484,0.9790039-2.4658203,0.9790039
			c-0.5322266,0-0.8945313-0.065918-1.0869141-0.1977539C59.5341797,70.8359375,59.4375,70.6943359,59.4375,70.5424805
			c0-0.112793,0.0458984-0.2114258,0.1376953-0.2973633c0.0908203-0.0854492,0.2011719-0.1279297,0.3291016-0.1279297
			c0.0966797,0,0.1962891,0.015625,0.296875,0.0463867c0.0664063,0.0195313,0.2158203,0.090332,0.4492188,0.2128906
			s0.3945313,0.1953125,0.4833984,0.21875c0.1435547,0.0424805,0.2978516,0.0639648,0.4609375,0.0639648
			c0.3964844,0,0.7412109-0.1533203,1.0341797-0.4604492c0.2939453-0.3071289,0.4404297-0.6704102,0.4404297-1.0898438
			c0-0.3071289-0.0683594-0.6064453-0.2041016-0.8979492c-0.1015625-0.2172852-0.2119141-0.3828125-0.3320313-0.4951172
			c-0.1669922-0.1557617-0.3964844-0.2963867-0.6884766-0.4228516c-0.2910156-0.1259766-0.5878906-0.1894531-0.8916016-0.1894531
			h-0.1865234v-0.1748047c0.3076172-0.0385742,0.6152344-0.1494141,0.9238281-0.3320313
			C62,66.4140625,62.2236328,66.1943359,62.3642578,65.9379883c0.1396484-0.2568359,0.2099609-0.5385742,0.2099609-0.8452148
			c0-0.4003906-0.1259766-0.7236328-0.3759766-0.9707031c-0.2509766-0.246582-0.5625-0.3701172-0.9355469-0.3701172
			c-0.6025391,0-1.1054688,0.3227539-1.5097656,0.9677734L59.5605469,64.6264648z"/>
		<path d="M67.3710938,67.3251953v2.3022461c0,0.4975586,0.0546875,0.8061523,0.1630859,0.9267578
			c0.1474609,0.1708984,0.3710938,0.2563477,0.6699219,0.2563477h0.3037109v0.2158203h-3.3867188v-0.2158203h0.296875
			c0.3349609,0,0.5732422-0.1083984,0.7167969-0.3261719c0.078125-0.1206055,0.1171875-0.40625,0.1171875-0.8569336v-5.105957
			c0-0.4975586-0.0527344-0.8061523-0.1572266-0.9267578c-0.1513672-0.1708984-0.3769531-0.2568359-0.6767578-0.2568359h-0.296875
			v-0.215332h2.8964844c0.7080078,0,1.265625,0.0727539,1.6728516,0.2182617
			c0.4082031,0.1459961,0.7519531,0.3916016,1.0322266,0.737793c0.2792969,0.3457031,0.4199219,0.7558594,0.4199219,1.2294922
			c0,0.6450195-0.2128906,1.1699219-0.6386719,1.5737305c-0.4257813,0.4042969-1.0263672,0.6064453-1.8037109,0.6064453
			c-0.1904297,0-0.3964844-0.0136719-0.6181641-0.0410156C67.8603516,67.4204102,67.6230469,67.3793945,67.3710938,67.3251953z
			 M67.3710938,66.9926758c0.2060547,0.0390625,0.3886719,0.0683594,0.5478516,0.0874023
			c0.1591797,0.0195313,0.2949219,0.0292969,0.4082031,0.0292969c0.4042969,0,0.7529297-0.15625,1.0458984-0.4692383
			c0.2939453-0.3125,0.4404297-0.7177734,0.4404297-1.215332c0-0.3417969-0.0703125-0.659668-0.2099609-0.953125
			c-0.1396484-0.2929688-0.3378906-0.5126953-0.5947266-0.6586914c-0.2568359-0.1455078-0.5478516-0.2182617-0.8740234-0.2182617
			c-0.1982422,0-0.453125,0.0366211-0.7636719,0.1108398V66.9926758z"/>
	</g>
	<g class="st1">
		<path d="M39.8632813,64.6264648c0.2255859-0.5327148,0.5102539-0.9433594,0.8540039-1.2329102
			c0.3442383-0.2895508,0.7724609-0.434082,1.2856445-0.434082c0.6333008,0,1.1191406,0.2055664,1.4570313,0.6176758
			c0.2563477,0.3071289,0.3847656,0.6352539,0.3847656,0.9848633c0,0.5751953-0.3613281,1.1699219-1.0844727,1.7836914
			c0.4858398,0.1904297,0.8530273,0.4624023,1.1020508,0.815918c0.2485352,0.3540039,0.3730469,0.7695313,0.3730469,1.2475586
			c0,0.684082-0.2177734,1.2763672-0.652832,1.777832c-0.5673828,0.652832-1.3896484,0.9790039-2.4658203,0.9790039
			c-0.5322266,0-0.8945313-0.065918-1.0869141-0.1977539c-0.1923828-0.1323242-0.2885742-0.2739258-0.2885742-0.4257813
			c0-0.112793,0.0454102-0.2114258,0.1367188-0.2973633c0.0913086-0.0854492,0.2011719-0.1279297,0.3295898-0.1279297
			c0.097168,0,0.1962891,0.015625,0.2973633,0.0463867c0.065918,0.0195313,0.215332,0.090332,0.4487305,0.2128906
			c0.2329102,0.1225586,0.394043,0.1953125,0.4838867,0.21875c0.1435547,0.0424805,0.296875,0.0639648,0.4604492,0.0639648
			c0.3959961,0,0.7412109-0.1533203,1.034668-0.4604492c0.2929688-0.3071289,0.4399414-0.6704102,0.4399414-1.0898438
			c0-0.3071289-0.0678711-0.6064453-0.2041016-0.8979492c-0.1010742-0.2172852-0.2119141-0.3828125-0.3320313-0.4951172
			c-0.1674805-0.1557617-0.3964844-0.2963867-0.6879883-0.4228516c-0.2915039-0.1259766-0.5888672-0.1894531-0.8916016-0.1894531
			h-0.1865234v-0.1748047c0.3066406-0.0385742,0.6147461-0.1494141,0.9238281-0.3320313
			c0.3085938-0.1826172,0.5332031-0.4023438,0.6728516-0.6586914c0.1401367-0.2568359,0.2099609-0.5385742,0.2099609-0.8452148
			c0-0.4003906-0.125-0.7236328-0.3759766-0.9707031c-0.2504883-0.246582-0.5625-0.3701172-0.9355469-0.3701172
			c-0.6020508,0-1.1054688,0.3227539-1.5097656,0.9677734L39.8632813,64.6264648z"/>
		<path d="M50.6992188,62.9418945v2.7333984H50.484375c-0.0703125-0.5244141-0.1953125-0.9418945-0.3769531-1.2529297
			c-0.1796875-0.3110352-0.4375-0.5576172-0.7714844-0.7402344c-0.3349609-0.1826172-0.6806641-0.2739258-1.0380859-0.2739258
			c-0.4042969,0-0.7382813,0.1230469-1.0024414,0.3701172c-0.2641602,0.246582-0.3964844,0.5273438-0.3964844,0.8422852
			c0,0.2407227,0.0834961,0.4604492,0.2504883,0.6586914c0.2412109,0.2915039,0.8144531,0.6796875,1.7197266,1.1655273
			c0.7382813,0.3964844,1.2421875,0.7006836,1.5117188,0.9121094c0.2714844,0.2119141,0.4785156,0.4614258,0.625,0.7490234
			c0.1445313,0.2875977,0.21875,0.5888672,0.21875,0.9038086c0,0.5981445-0.2324219,1.1142578-0.6972656,1.5473633
			c-0.4648438,0.4335938-1.0625,0.6499023-1.7929688,0.6499023c-0.2285156,0-0.4443359-0.0175781-0.6464844-0.0522461
			c-0.1201172-0.0195313-0.3701172-0.090332-0.7490234-0.2128906s-0.6186523-0.1835938-0.7197266-0.1835938
			c-0.097168,0-0.1738281,0.0292969-0.2299805,0.0874023c-0.0566406,0.0581055-0.0986328,0.1787109-0.1254883,0.3613281h-0.2158203
			V68.496582h0.2158203c0.1010742,0.5673828,0.2368164,0.9921875,0.4077148,1.2734375
			c0.1713867,0.2822266,0.4326172,0.5161133,0.7841797,0.7026367s0.7373047,0.2797852,1.1577148,0.2797852
			c0.484375,0,0.8691406-0.128418,1.1503906-0.3847656s0.421875-0.5595703,0.421875-0.9091797
			c0-0.1943359-0.0527344-0.390625-0.1601563-0.5888672c-0.1054688-0.1982422-0.2714844-0.3828125-0.4980469-0.5537109
			c-0.1503906-0.1166992-0.5644531-0.3642578-1.2412109-0.7431641c-0.6762695-0.3789063-1.1567383-0.6811523-1.4423828-0.90625
			c-0.2856445-0.2255859-0.5024414-0.4741211-0.6499023-0.7460938c-0.1479492-0.2719727-0.2216797-0.5712891-0.2216797-0.8979492
			c0-0.5668945,0.2177734-1.0556641,0.652832-1.4658203c0.4350586-0.409668,0.9887695-0.6147461,1.6611328-0.6147461
			c0.4199219,0,0.8642578,0.1030273,1.3349609,0.3085938c0.2167969,0.097168,0.3710938,0.1459961,0.4609375,0.1459961
			c0.0996094,0,0.1835938-0.0302734,0.2480469-0.090332c0.0625-0.0600586,0.1152344-0.1816406,0.1542969-0.3642578H50.6992188z"/>
	</g>
	<g class="st1">
		<path d="M103.9023438,48.4145508v0.8276367h-1.0605469v2.0869141h-0.9619141v-2.0869141h-3.3457031v-0.7460938
			l3.6660156-5.2338867h0.6416016v5.1523438H103.9023438z M101.8798828,48.4145508v-3.9228516l-2.7744141,3.9228516H101.8798828z"/>
		<path d="M106.7587891,43.8564453v3.1069336h1.4394531c0.3300781,0,0.5722656-0.0727539,0.7255859-0.21875
			c0.1533203-0.1455078,0.2558594-0.434082,0.3066406-0.8657227h0.2148438v2.6757813h-0.2148438
			c-0.0039063-0.3071289-0.0439453-0.5322266-0.1201172-0.6762695c-0.0751953-0.1435547-0.1806641-0.2514648-0.3144531-0.3237305
			c-0.1337891-0.0717773-0.3330078-0.1074219-0.5976563-0.1074219h-1.4394531v2.4829102
			c0,0.4003906,0.0253906,0.6645508,0.0751953,0.7929688c0.0390625,0.097168,0.1210938,0.1806641,0.2451172,0.2504883
			c0.1708984,0.0932617,0.3496094,0.1396484,0.5361328,0.1396484h0.2861328v0.2158203h-3.3925781v-0.2158203h0.2792969
			c0.3271484,0,0.5634766-0.0952148,0.7119141-0.2856445c0.0927734-0.1240234,0.1396484-0.4233398,0.1396484-0.8974609v-5.105957
			c0-0.4003906-0.0253906-0.6645508-0.0761719-0.7929688c-0.0390625-0.097168-0.1181641-0.1806641-0.2382813-0.2504883
			c-0.1679688-0.0932617-0.3466797-0.1401367-0.5371094-0.1401367h-0.2792969v-0.215332h5.8808594l0.0761719,1.7368164h-0.2041016
			c-0.1005859-0.3691406-0.21875-0.6401367-0.3525391-0.8129883s-0.2988281-0.2983398-0.4951172-0.3759766
			s-0.5009766-0.1166992-0.9121094-0.1166992H106.7587891z"/>
	</g>
	<g class="st1">
		<path d="M64.4277344,87.625l-0.5537109,1.5214844h-4.6630859v-0.2158203
			c1.3710938-1.2509766,2.3369141-2.2729492,2.8964844-3.065918c0.5595703-0.7924805,0.8398438-1.5170898,0.8398438-2.1738281
			c0-0.5014648-0.1542969-0.9135742-0.4609375-1.2358398c-0.3066406-0.3227539-0.6738281-0.4838867-1.1015625-0.4838867
			c-0.3886719,0-0.7373047,0.1137695-1.0458984,0.3408203c-0.3095703,0.2275391-0.5380859,0.5605469-0.6855469,1H59.4375
			c0.0976563-0.7192383,0.3476563-1.2709961,0.7490234-1.6557617c0.4023438-0.3847656,0.9042969-0.5766602,1.5068359-0.5766602
			c0.6416016,0,1.1767578,0.2055664,1.6064453,0.6176758c0.4287109,0.4121094,0.6435547,0.8974609,0.6435547,1.4570313
			c0,0.4003906-0.0927734,0.8007813-0.2792969,1.2006836c-0.2880859,0.6298828-0.7539063,1.2963867-1.3994141,1.9995117
			c-0.9677734,1.0571289-1.5712891,1.6943359-1.8125,1.9116211h2.0634766c0.4199219,0,0.7138672-0.0151367,0.8828125-0.0463867
			s0.3212891-0.0942383,0.4580078-0.1894531c0.1357422-0.0952148,0.2539063-0.2304688,0.3554688-0.4052734H64.4277344z"/>
		<path d="M67.3710938,85.4453125v2.3022461c0,0.4975586,0.0546875,0.8061523,0.1630859,0.9267578
			c0.1474609,0.1708984,0.3710938,0.2563477,0.6699219,0.2563477h0.3037109v0.2158203h-3.3867188v-0.2158203h0.296875
			c0.3349609,0,0.5732422-0.1083984,0.7167969-0.3261719c0.078125-0.1206055,0.1171875-0.40625,0.1171875-0.8569336v-5.105957
			c0-0.4975586-0.0527344-0.8061523-0.1572266-0.9267578c-0.1513672-0.1708984-0.3769531-0.2568359-0.6767578-0.2568359h-0.296875
			v-0.215332h2.8964844c0.7080078,0,1.265625,0.0727539,1.6728516,0.2182617
			c0.4082031,0.1459961,0.7519531,0.3916016,1.0322266,0.737793c0.2792969,0.3457031,0.4199219,0.7558594,0.4199219,1.2294922
			c0,0.6450195-0.2128906,1.1699219-0.6386719,1.5737305c-0.4257813,0.4042969-1.0263672,0.6064453-1.8037109,0.6064453
			c-0.1904297,0-0.3964844-0.0136719-0.6181641-0.0410156C67.8603516,85.5405273,67.6230469,85.4995117,67.3710938,85.4453125z
			 M67.3710938,85.112793c0.2060547,0.0390625,0.3886719,0.0683594,0.5478516,0.0874023
			c0.1591797,0.0195313,0.2949219,0.0292969,0.4082031,0.0292969c0.4042969,0,0.7529297-0.15625,1.0458984-0.4692383
			c0.2939453-0.3125,0.4404297-0.7177734,0.4404297-1.215332c0-0.3417969-0.0703125-0.659668-0.2099609-0.953125
			c-0.1396484-0.2929688-0.3378906-0.5126953-0.5947266-0.6586914c-0.2568359-0.1455078-0.5478516-0.2182617-0.8740234-0.2182617
			c-0.1982422,0-0.453125,0.0366211-0.7636719,0.1108398V85.112793z"/>
	</g>
	<g class="st1">
		<path d="M64.5087891,48.4145508v0.8276367h-1.0605469v2.0869141h-0.9619141v-2.0869141H59.140625v-0.7460938l3.6660156-5.2338867
			h0.6416016v5.1523438H64.5087891z M62.4863281,48.4145508v-3.9228516l-2.7744141,3.9228516H62.4863281z"/>
		<path d="M67.3710938,47.6279297v2.3022461c0,0.4975586,0.0546875,0.8061523,0.1630859,0.9267578
			c0.1474609,0.1708984,0.3710938,0.2563477,0.6699219,0.2563477h0.3037109v0.2158203h-3.3867188v-0.2158203h0.296875
			c0.3349609,0,0.5732422-0.1083984,0.7167969-0.3261719c0.078125-0.1206055,0.1171875-0.40625,0.1171875-0.8569336v-5.105957
			c0-0.4975586-0.0527344-0.8061523-0.1572266-0.9267578c-0.1513672-0.1708984-0.3769531-0.2568359-0.6767578-0.2568359h-0.296875
			v-0.215332h2.8964844c0.7080078,0,1.265625,0.0727539,1.6728516,0.2182617
			c0.4082031,0.1459961,0.7519531,0.3916016,1.0322266,0.737793c0.2792969,0.3457031,0.4199219,0.7558594,0.4199219,1.2294922
			c0,0.6450195-0.2128906,1.1699219-0.6386719,1.5737305c-0.4257813,0.4042969-1.0263672,0.6064453-1.8037109,0.6064453
			c-0.1904297,0-0.3964844-0.0136719-0.6181641-0.0410156C67.8603516,47.7231445,67.6230469,47.6821289,67.3710938,47.6279297z
			 M67.3710938,47.2954102c0.2060547,0.0390625,0.3886719,0.0683594,0.5478516,0.0874023
			c0.1591797,0.0195313,0.2949219,0.0292969,0.4082031,0.0292969c0.4042969,0,0.7529297-0.15625,1.0458984-0.4692383
			c0.2939453-0.3125,0.4404297-0.7177734,0.4404297-1.215332c0-0.3417969-0.0703125-0.659668-0.2099609-0.953125
			c-0.1396484-0.2929688-0.3378906-0.5126953-0.5947266-0.6586914c-0.2568359-0.1455078-0.5478516-0.2182617-0.8740234-0.2182617
			c-0.1982422,0-0.453125,0.0366211-0.7636719,0.1108398V47.2954102z"/>
	</g>
</g>
<g class="st1">
	<path d="M40.3461914,30.3330078c0.1826172,0,0.3359375,0.0634766,0.4604492,0.1894531
		c0.1245117,0.1264648,0.1865234,0.2788086,0.1865234,0.4575195s-0.0629883,0.331543-0.1894531,0.4575195
		c-0.1264648,0.1264648-0.2788086,0.1894531-0.4575195,0.1894531s-0.331543-0.0629883-0.4575195-0.1894531
		c-0.1264648-0.1259766-0.1894531-0.2788086-0.1894531-0.4575195c0-0.1826172,0.0629883-0.3359375,0.1894531-0.4604492
		C40.0146484,30.3955078,40.1674805,30.3330078,40.3461914,30.3330078z"/>
	<path d="M46.3149414,30.3330078c0.1826172,0,0.3359375,0.0634766,0.4604492,0.1894531
		c0.1245117,0.1264648,0.1865234,0.2788086,0.1865234,0.4575195s-0.0629883,0.331543-0.1894531,0.4575195
		c-0.1264648,0.1264648-0.2788086,0.1894531-0.4575195,0.1894531s-0.331543-0.0629883-0.4575195-0.1894531
		c-0.1264648-0.1259766-0.1894531-0.2788086-0.1894531-0.4575195c0-0.1826172,0.0629883-0.3359375,0.1894531-0.4604492
		C45.9833984,30.3955078,46.1362305,30.3330078,46.3149414,30.3330078z"/>
	<path d="M52.2832031,30.3330078c0.1826172,0,0.3359375,0.0634766,0.4609375,0.1894531
		c0.1240234,0.1264648,0.1865234,0.2788086,0.1865234,0.4575195s-0.0634766,0.331543-0.1894531,0.4575195
		c-0.1269531,0.1264648-0.2792969,0.1894531-0.4580078,0.1894531s-0.3310547-0.0629883-0.4580078-0.1894531
		c-0.1259766-0.1259766-0.1894531-0.2788086-0.1894531-0.4575195c0-0.1826172,0.0634766-0.3359375,0.1894531-0.4604492
		C51.9521484,30.3955078,52.1044922,30.3330078,52.2832031,30.3330078z"/>
	<path d="M58.2519531,30.3330078c0.1826172,0,0.3359375,0.0634766,0.4609375,0.1894531
		c0.1240234,0.1264648,0.1865234,0.2788086,0.1865234,0.4575195s-0.0634766,0.331543-0.1894531,0.4575195
		c-0.1269531,0.1264648-0.2792969,0.1894531-0.4580078,0.1894531s-0.3310547-0.0629883-0.4580078-0.1894531
		c-0.1259766-0.1259766-0.1894531-0.2788086-0.1894531-0.4575195c0-0.1826172,0.0634766-0.3359375,0.1894531-0.4604492
		C57.9208984,30.3955078,58.0732422,30.3330078,58.2519531,30.3330078z"/>
</g>
<g class="st1">
	<path d="M46.5429688,17.890625v2.6962891h-0.2128906c-0.0688477-0.5175781-0.1923828-0.9291992-0.3706055-1.2358398
		s-0.4321289-0.550293-0.7617188-0.7304688c-0.3300781-0.1801758-0.6708984-0.2700195-1.0234375-0.2700195
		c-0.3989258,0-0.7285156,0.121582-0.9892578,0.3647461c-0.2607422,0.2436523-0.390625,0.5205078-0.390625,0.8310547
		c0,0.237793,0.0820313,0.4541016,0.2470703,0.6499023c0.237793,0.2871094,0.8027344,0.6704102,1.6962891,1.1499023
		c0.7280273,0.390625,1.2255859,0.690918,1.4916992,0.8994141c0.2666016,0.2089844,0.4716797,0.4555664,0.6152344,0.7392578
		c0.144043,0.2836914,0.2158203,0.5805664,0.2158203,0.8911133c0,0.590332-0.2290039,1.0991211-0.6870117,1.5263672
		c-0.4584961,0.4277344-1.0473633,0.6411133-1.7680664,0.6411133c-0.2265625,0-0.4389648-0.0170898-0.6381836-0.0517578
		c-0.1191406-0.019043-0.3652344-0.0888672-0.7387695-0.2099609c-0.3740234-0.1206055-0.6108398-0.1811523-0.7104492-0.1811523
		c-0.0957031,0-0.1713867,0.0288086-0.2270508,0.0864258s-0.0966797,0.1762695-0.1235352,0.3564453h-0.2128906v-2.6733398h0.2128906
		c0.0996094,0.5595703,0.2338867,0.9780273,0.4023438,1.2558594c0.1689453,0.2783203,0.4262695,0.5092773,0.7734375,0.6928711
		c0.3466797,0.184082,0.7275391,0.2763672,1.1411133,0.2763672c0.4794922,0,0.8579102-0.1264648,1.1357422-0.3798828
		c0.277832-0.2529297,0.4169922-0.5517578,0.4169922-0.8969727c0-0.1914063-0.0527344-0.3852539-0.1582031-0.5805664
		s-0.2695313-0.3774414-0.4916992-0.5463867c-0.1494141-0.1147461-0.5576172-0.3588867-1.2246094-0.7329102
		c-0.6669922-0.3735352-1.1411133-0.671875-1.4228516-0.894043s-0.4956055-0.4677734-0.6411133-0.7358398
		c-0.1459961-0.2685547-0.21875-0.5634766-0.21875-0.8857422c0-0.5595703,0.2148438-1.0415039,0.644043-1.4458008
		s0.9755859-0.6064453,1.6386719-0.6064453c0.4140625,0,0.8530273,0.1015625,1.3168945,0.3046875
		c0.2143555,0.0957031,0.3657227,0.1435547,0.4541016,0.1435547c0.0996094,0,0.1811523-0.0297852,0.2441406-0.0888672
		c0.0634766-0.0595703,0.1142578-0.1791992,0.1523438-0.359375H46.5429688z"/>
	<path d="M64.8271484,22.2143555v2.2709961c0,0.4907227,0.0537109,0.7954102,0.1611328,0.9140625
		c0.1455078,0.1689453,0.3652344,0.2529297,0.6611328,0.2529297h0.2988281v0.2128906h-3.3408203v-0.2128906h0.2929688
		c0.3300781,0,0.5654297-0.1069336,0.7080078-0.3217773c0.0761719-0.1186523,0.1142578-0.4003906,0.1142578-0.8452148v-5.0366211
		c0-0.4907227-0.0517578-0.7954102-0.1552734-0.9145508c-0.1494141-0.168457-0.3710938-0.2529297-0.6669922-0.2529297h-0.2929688
		v-0.2124023h2.8574219c0.6982422,0,1.2480469,0.0717773,1.6503906,0.215332
		c0.4023438,0.144043,0.7421875,0.3862305,1.0175781,0.7275391c0.2763672,0.3413086,0.4140625,0.7456055,0.4140625,1.2128906
		c0,0.6367188-0.2099609,1.1538086-0.6298828,1.5527344C67.4980469,22.1757813,66.9042969,22.375,66.1376953,22.375
		c-0.1875,0-0.390625-0.0131836-0.609375-0.0400391S65.0761719,22.2680664,64.8271484,22.2143555z M64.8271484,21.8862305
		c0.203125,0.0385742,0.3828125,0.0673828,0.5400391,0.0864258s0.2919922,0.0288086,0.4023438,0.0288086
		c0.3994141,0,0.7431641-0.1542969,1.0322266-0.4628906c0.2900391-0.3085938,0.4345703-0.7080078,0.4345703-1.1987305
		c0-0.3374023-0.0693359-0.6508789-0.2070313-0.9399414C66.890625,19.1103516,66.6953125,18.8935547,66.4423828,18.75
		s-0.5400391-0.2158203-0.8623047-0.2158203c-0.1953125,0-0.4462891,0.0366211-0.7529297,0.109375V21.8862305z"/>
	<path d="M80.5,25.8652344v-0.2128906h0.2929688c0.3300781,0,0.5634766-0.1054688,0.7021484-0.315918
		c0.0839844-0.1264648,0.1259766-0.4101563,0.1259766-0.8510742v-5.0366211c0-0.4868164-0.0537109-0.7915039-0.1611328-0.9145508
		c-0.1494141-0.168457-0.3710938-0.2529297-0.6669922-0.2529297H80.5v-0.2124023h3.1738281
		c1.1650391,0,2.0517578,0.1318359,2.6591797,0.3964844s1.0966797,0.7055664,1.4658203,1.3222656
		c0.3701172,0.6171875,0.5556641,1.3305664,0.5556641,2.1391602c0,1.0849609-0.3300781,1.9912109-0.9892578,2.7197266
		c-0.7402344,0.8125-1.8671875,1.21875-3.3808594,1.21875H80.5z M82.7255859,25.3017578
		c0.4863281,0.1074219,0.8945313,0.1611328,1.2246094,0.1611328c0.8886719,0,1.6269531-0.3125,2.2128906-0.9375
		c0.5869141-0.6245117,0.8798828-1.4716797,0.8798828-2.5410156c0-1.0771484-0.2929688-1.9262695-0.8798828-2.5473633
		c-0.5859375-0.6210938-1.3388672-0.9311523-2.2587891-0.9311523c-0.3457031,0-0.7382813,0.0551758-1.1787109,0.1665039V25.3017578z
		"/>
	<path d="M105.9316406,18.4941406v3.0644531h1.4199219c0.3261719,0,0.5644531-0.0717773,0.7158203-0.215332
		c0.1513672-0.144043,0.2519531-0.4287109,0.3017578-0.8540039h0.2128906v2.6391602h-0.2128906
		c-0.0039063-0.3027344-0.0429688-0.5249023-0.1171875-0.6669922c-0.0751953-0.1416016-0.1787109-0.2480469-0.3105469-0.3193359
		c-0.1328125-0.0708008-0.3291016-0.105957-0.5898438-0.105957h-1.4199219v2.4492188
		c0,0.3950195,0.0244141,0.6552734,0.0742188,0.7817383c0.0390625,0.0961914,0.1191406,0.1782227,0.2421875,0.2475586
		c0.1679688,0.0917969,0.3447266,0.1376953,0.5283203,0.1376953h0.2822266v0.2128906h-3.3466797v-0.2128906h0.2763672
		c0.3222656,0,0.5556641-0.09375,0.7011719-0.2817383c0.0917969-0.1225586,0.1376953-0.4174805,0.1376953-0.8852539v-5.0366211
		c0-0.3950195-0.0244141-0.6557617-0.0742188-0.7822266c-0.0380859-0.0957031-0.1171875-0.1782227-0.2353516-0.2470703
		c-0.1650391-0.0917969-0.3417969-0.1381836-0.5292969-0.1381836h-0.2763672v-0.2124023h5.8017578l0.0742188,1.7133789h-0.2011719
		c-0.0996094-0.3642578-0.2148438-0.6318359-0.3476563-0.8022461c-0.1318359-0.1704102-0.2949219-0.2939453-0.4882813-0.3706055
		s-0.4941406-0.1152344-0.9003906-0.1152344H105.9316406z"/>
</g>
<g class="st1">
	<path d="M27.7207031,3.9443359v7.0898438c0,0.3344727,0.0244141,0.5566406,0.0732422,0.6655273
		c0.0483398,0.1088867,0.1235352,0.1914063,0.2246094,0.2475586c0.1010742,0.0566406,0.2895508,0.0849609,0.565918,0.0849609
		v0.2099609h-2.6201172v-0.2099609c0.2451172,0,0.4125977-0.0253906,0.5019531-0.0761719
		c0.0893555-0.050293,0.159668-0.1337891,0.2099609-0.2504883c0.0507813-0.1166992,0.0761719-0.3408203,0.0761719-0.6713867
		V6.1791992c0-0.6030273-0.0136719-0.9736328-0.0410156-1.1113281c-0.0273438-0.1381836-0.0712891-0.2324219-0.1313477-0.2832031
		c-0.0605469-0.0507813-0.137207-0.0756836-0.2304688-0.0756836c-0.1010742,0-0.2294922,0.0307617-0.3852539,0.0932617
		l-0.0991211-0.2045898l1.5932617-0.6533203H27.7207031z"/>
	<path d="M32.0332031,7.0893555h6.2963867v0.4785156h-6.2963867V7.0893555z M32.0332031,8.9916992h6.2963867v0.4785156h-6.2963867
		V8.9916992z"/>
	<path d="M41.9765625,8.3325195c0-0.9023438,0.1362305-1.6796875,0.4086914-2.3310547
		c0.2719727-0.6518555,0.6337891-1.137207,1.0854492-1.4560547c0.3500977-0.2529297,0.7119141-0.3793945,1.0854492-0.3793945
		c0.6064453,0,1.1513672,0.309082,1.6337891,0.9277344c0.6030273,0.7666016,0.9042969,1.8051758,0.9042969,3.1162109
		c0,0.9179688-0.1323242,1.6982422-0.3964844,2.3398438c-0.2646484,0.6420898-0.6020508,1.1079102-1.0126953,1.3974609
		c-0.4106445,0.2900391-0.8061523,0.4350586-1.1875,0.4350586c-0.7548828,0-1.3828125-0.4453125-1.8847656-1.3364258
		C42.1889648,10.2954102,41.9765625,9.390625,41.9765625,8.3325195z M43.1206055,8.4785156
		c0,1.0893555,0.1342773,1.9780273,0.4023438,2.6665039c0.2216797,0.5795898,0.5527344,0.8696289,0.9921875,0.8696289
		c0.2099609,0,0.4277344-0.0942383,0.6533203-0.2832031c0.2255859-0.1884766,0.3969727-0.5043945,0.5136719-0.9482422
		c0.1787109-0.6689453,0.2685547-1.6123047,0.2685547-2.8300781c0-0.9023438-0.0932617-1.6552734-0.2802734-2.2583008
		c-0.1401367-0.4472656-0.3208008-0.7641602-0.5424805-0.9511719c-0.159668-0.128418-0.3520508-0.1923828-0.5776367-0.1923828
		c-0.2646484,0-0.5,0.1186523-0.7060547,0.355957c-0.2802734,0.3227539-0.4707031,0.8305664-0.5722656,1.5229492
		C43.1708984,7.1225586,43.1206055,7.8051758,43.1206055,8.4785156z"/>
	<path d="M63.859375,5.1054688l1.9257813-0.9394531h0.1923828v6.6816406c0,0.4433594,0.0185547,0.7197266,0.0556641,0.8286133
		s0.1132813,0.1923828,0.2304688,0.2509766c0.1162109,0.0581055,0.3535156,0.0913086,0.7119141,0.0991211v0.2158203H64v-0.2158203
		c0.3730469-0.0078125,0.6142578-0.0400391,0.7226563-0.0961914c0.109375-0.0566406,0.1855469-0.1323242,0.2275391-0.2275391
		c0.0429688-0.0957031,0.0644531-0.3803711,0.0644531-0.8549805V6.5761719c0-0.5756836-0.0195313-0.9453125-0.0585938-1.1088867
		c-0.0263672-0.1245117-0.0761719-0.2158203-0.1484375-0.2744141c-0.0722656-0.0581055-0.1582031-0.0874023-0.2597656-0.0874023
		c-0.1435547,0-0.34375,0.0605469-0.6005859,0.1811523L63.859375,5.1054688z"/>
	<path d="M88.8515625,10.7192383l-0.5546875,1.5229492h-4.6679688v-0.2158203
		c1.3730469-1.2524414,2.3398438-2.2758789,2.9003906-3.0693359c0.5595703-0.7939453,0.8398438-1.519043,0.8398438-2.1767578
		c0-0.5019531-0.1533203-0.9140625-0.4609375-1.2373047c-0.3076172-0.3227539-0.6748047-0.4838867-1.1025391-0.4838867
		c-0.3896484,0-0.7382813,0.1137695-1.0478516,0.3413086s-0.5380859,0.5610352-0.6855469,1.0004883h-0.2158203
		c0.0966797-0.7197266,0.3466797-1.2719727,0.75-1.6572266c0.4023438-0.3852539,0.9052734-0.5776367,1.5078125-0.5776367
		c0.6425781,0,1.1777344,0.2060547,1.6083984,0.6186523c0.4296875,0.4121094,0.6445313,0.8984375,0.6445313,1.4589844
		c0,0.4003906-0.09375,0.8012695-0.2802734,1.2016602c-0.2880859,0.6303711-0.7548828,1.2978516-1.4003906,2.0019531
		c-0.96875,1.0581055-1.5732422,1.6958008-1.8144531,1.9135742H86.9375c0.4199219,0,0.7148438-0.0151367,0.8837891-0.0463867
		c0.1699219-0.03125,0.3222656-0.0942383,0.4580078-0.1899414c0.1367188-0.0952148,0.2548828-0.2304688,0.3564453-0.4052734
		H88.8515625z"/>
	<path d="M104.8925781,5.8349609c0.2255859-0.5327148,0.5107422-0.9443359,0.8554688-1.234375
		c0.34375-0.2895508,0.7734375-0.4345703,1.2861328-0.4345703c0.6347656,0,1.1210938,0.2060547,1.4589844,0.6186523
		c0.2568359,0.3071289,0.3857422,0.6362305,0.3857422,0.9863281c0,0.5756836-0.3623047,1.1708984-1.0859375,1.7856445
		c0.4863281,0.1904297,0.8544922,0.4628906,1.1035156,0.8168945c0.2480469,0.3540039,0.3730469,0.7700195,0.3730469,1.2485352
		c0,0.6845703-0.2177734,1.277832-0.6533203,1.7797852c-0.5683594,0.6538086-1.390625,0.9804688-2.46875,0.9804688
		c-0.5332031,0-0.8955078-0.0664063-1.0878906-0.1987305c-0.1923828-0.1318359-0.2890625-0.2739258-0.2890625-0.4257813
		c0-0.112793,0.0458984-0.2119141,0.1367188-0.2973633c0.0917969-0.0859375,0.2021484-0.128418,0.3300781-0.128418
		c0.0976563,0,0.1962891,0.015625,0.2978516,0.0463867c0.0654297,0.0195313,0.2158203,0.0908203,0.4492188,0.2128906
		c0.2333984,0.1225586,0.3945313,0.1958008,0.484375,0.2192383c0.1435547,0.0424805,0.2978516,0.0639648,0.4609375,0.0639648
		c0.3964844,0,0.7421875-0.1538086,1.0351563-0.4609375c0.2939453-0.3071289,0.4414063-0.6708984,0.4414063-1.0913086
		c0-0.3071289-0.0683594-0.6069336-0.2050781-0.8984375c-0.1005859-0.2177734-0.2119141-0.3833008-0.3320313-0.4960938
		c-0.1669922-0.1557617-0.3964844-0.2963867-0.6884766-0.4228516s-0.5898438-0.1899414-0.8925781-0.1899414h-0.1875V8.1401367
		c0.3076172-0.0390625,0.6162109-0.1499023,0.9248047-0.3330078c0.3095703-0.1826172,0.5341797-0.4023438,0.6748047-0.6591797
		c0.1396484-0.2568359,0.2099609-0.5385742,0.2099609-0.8461914c0-0.4003906-0.1259766-0.7246094-0.3769531-0.9716797
		s-0.5625-0.3706055-0.9365234-0.3706055c-0.6025391,0-1.1064453,0.3232422-1.5107422,0.96875L104.8925781,5.8349609z"/>
</g>
<g>
	<g>
		<path d="M22.4580078,104.1547852l1.9238281-0.9418945h0.1923828v6.699707c0,0.4443359,0.0175781,0.7216797,0.0546875,0.8310547
			s0.1142578,0.1933594,0.2304688,0.2509766c0.1162109,0.0585938,0.3535156,0.0917969,0.7109375,0.0996094v0.2167969h-2.9726563
			v-0.2167969c0.3730469-0.0078125,0.6142578-0.0400391,0.7226563-0.0966797
			c0.109375-0.0556641,0.1845703-0.1318359,0.2275391-0.2275391s0.0644531-0.3818359,0.0644531-0.8574219v-4.2832031
			c0-0.5771484-0.0195313-0.9477539-0.0585938-1.1118164c-0.0273438-0.1245117-0.0761719-0.2163086-0.1484375-0.2749023
			s-0.1582031-0.0878906-0.2597656-0.0878906c-0.1435547,0-0.34375,0.0605469-0.5996094,0.1816406L22.4580078,104.1547852z"/>
	</g>
	<g>
		<path d="M6.9125977,106.015625l-0.7753906,2.6625977c0.7265625-1.0888672,1.2832031-1.8041992,1.6699219-2.1474609
			s0.7583008-0.5151367,1.1157227-0.5151367c0.1943359,0,0.3544922,0.0644531,0.480957,0.1933594
			c0.1264648,0.128418,0.1894531,0.2963867,0.1894531,0.5029297c0,0.2338867-0.0561523,0.5463867-0.1689453,0.9360352
			l-0.7109375,2.4638672c-0.081543,0.2841797-0.1225586,0.4580078-0.1225586,0.5205078
			c0,0.0546875,0.015625,0.1005859,0.046875,0.1376953c0.0307617,0.0371094,0.0639648,0.0556641,0.0991211,0.0556641
			c0.0463867,0,0.1025391-0.0253906,0.1689453-0.0761719c0.2055664-0.1640625,0.4311523-0.4140625,0.6757813-0.7490234
			l0.1806641,0.1113281c-0.3613281,0.5185547-0.703125,0.8886719-1.0253906,1.1113281
			c-0.2255859,0.1523438-0.4277344,0.2285156-0.6064453,0.2285156c-0.1435547,0-0.2583008-0.0439453-0.34375-0.1318359
			s-0.1279297-0.2060547-0.1279297-0.3544922c0-0.1865234,0.065918-0.5087891,0.1977539-0.9648438l0.6762695-2.3525391
			c0.0854492-0.2919922,0.1279297-0.5205078,0.1279297-0.6845703c0-0.0776367-0.0249023-0.1411133-0.0756836-0.1899414
			c-0.050293-0.0488281-0.112793-0.0732422-0.1865234-0.0732422c-0.1088867,0-0.2387695,0.046875-0.3901367,0.140625
			c-0.2875977,0.175293-0.5869141,0.4648438-0.8974609,0.8686523c-0.3110352,0.4042969-0.6391602,0.9199219-0.9848633,1.5478516
			c-0.1831055,0.3310547-0.3344727,0.6943359-0.4545898,1.0878906l-0.2915039,0.9658203H4.5053711l1.0610352-3.6630859
			c0.1240234-0.4404297,0.1865234-0.7055664,0.1865234-0.7954102c0-0.0859375-0.0341797-0.1611328-0.1020508-0.2255859
			c-0.0683594-0.0639648-0.152832-0.0961914-0.253418-0.0961914c-0.046875,0-0.128418,0.0078125-0.2451172,0.0234375
			l-0.2211914,0.034668l-0.0351563-0.2104492L6.9125977,106.015625z"/>
	</g>
	<g>
		<path d="M13.2597656,106.8701172h6.1191406v0.5678711h-6.1191406V106.8701172z M13.2597656,109.0522461h6.1191406v0.5791016
			h-6.1191406V109.0522461z"/>
	</g>
</g>
<g>
	<g>
		<path d="M27.6464844,88.6191406l-0.5566406,1.5273438h-4.6904297v-0.2167969
			c1.3798828-1.2558594,2.3505859-2.28125,2.9140625-3.0771484c0.5625-0.7958984,0.84375-1.5234375,0.84375-2.1826172
			c0-0.503418-0.1542969-0.9169922-0.4628906-1.2407227s-0.6777344-0.4853516-1.1083984-0.4853516
			c-0.390625,0-0.7412109,0.1137695-1.0517578,0.3422852c-0.3105469,0.2280273-0.5410156,0.5625-0.6894531,1.003418h-0.2167969
			c0.0976563-0.7216797,0.3486328-1.2758789,0.7539063-1.6621094c0.4042969-0.3857422,0.9091797-0.5791016,1.515625-0.5791016
			c0.6445313,0,1.1826172,0.2070313,1.6142578,0.6201172c0.4326172,0.4135742,0.6484375,0.9013672,0.6484375,1.4628906
			c0,0.4018555-0.09375,0.8037109-0.28125,1.2055664c-0.2900391,0.6318359-0.7587891,1.3007813-1.4072266,2.0068359
			c-0.9736328,1.0615234-1.5810547,1.7011719-1.8232422,1.9189453h2.0751953c0.421875,0,0.7177734-0.015625,0.8876953-0.046875
			c0.1708984-0.03125,0.3242188-0.09375,0.4609375-0.1894531s0.2558594-0.2314453,0.3574219-0.4072266H27.6464844z"/>
	</g>
	<g>
		<path d="M6.5966797,84.8510742l-0.7802734,2.6625977c0.7314453-1.0888672,1.2910156-1.8041992,1.6796875-2.1474609
			s0.7636719-0.5151367,1.1230469-0.5151367c0.1953125,0,0.3564453,0.0644531,0.4833984,0.1933594
			c0.1269531,0.128418,0.1904297,0.2963867,0.1904297,0.5029297c0,0.2338867-0.0566406,0.5463867-0.1699219,0.9360352
			l-0.7148438,2.4638672c-0.0820313,0.2841797-0.1230469,0.4580078-0.1230469,0.5205078
			c0,0.0546875,0.015625,0.1005859,0.046875,0.1376953s0.0644531,0.0556641,0.0996094,0.0556641
			c0.046875,0,0.1035156-0.0253906,0.1699219-0.0761719c0.2070313-0.1640625,0.4335938-0.4140625,0.6796875-0.7490234
			l0.1816406,0.1113281c-0.3632813,0.5185547-0.7070313,0.8886719-1.03125,1.1113281
			c-0.2265625,0.1523438-0.4306641,0.2285156-0.6103516,0.2285156c-0.1445313,0-0.2597656-0.0439453-0.3457031-0.1318359
			s-0.1289063-0.2060547-0.1289063-0.3544922c0-0.1865234,0.0664063-0.5087891,0.1992188-0.9648438l0.6806641-2.3525391
			c0.0859375-0.2919922,0.1289063-0.5205078,0.1289063-0.6845703c0-0.0776367-0.0253906-0.1411133-0.0761719-0.1899414
			s-0.1132813-0.0732422-0.1875-0.0732422c-0.1103516,0-0.2412109,0.046875-0.3935547,0.140625
			c-0.2890625,0.175293-0.5898438,0.4648438-0.9023438,0.8686523c-0.3125,0.4042969-0.6435547,0.9199219-0.9912109,1.5478516
			c-0.1835938,0.3310547-0.3359375,0.6943359-0.4570313,1.0878906l-0.2929688,0.9658203H4.1748047l1.0673828-3.6630859
			c0.125-0.4404297,0.1875-0.7055664,0.1875-0.7954102c0-0.0859375-0.0341797-0.1611328-0.1025391-0.2255859
			c-0.0683594-0.0639648-0.1533203-0.0961914-0.2548828-0.0961914c-0.046875,0-0.1289063,0.0078125-0.2460938,0.0234375
			l-0.2226563,0.034668l-0.0351563-0.2104492L6.5966797,84.8510742z"/>
	</g>
	<g>
		<path d="M12.9833984,85.7055664h6.1552734v0.5678711h-6.1552734V85.7055664z M12.9833984,87.8876953h6.1552734v0.5791016
			h-6.1552734V87.8876953z"/>
	</g>
</g>
<g>
	<g>
		<path d="M22.5429688,64.6015625c0.2255859-0.5341797,0.5107422-0.9467773,0.8564453-1.2373047
			c0.3447266-0.2905273,0.7744141-0.4360352,1.2880859-0.4360352c0.6357422,0,1.1230469,0.2070313,1.4619141,0.6201172
			c0.2568359,0.3085938,0.3857422,0.6381836,0.3857422,0.9892578c0,0.5771484-0.3623047,1.1738281-1.0869141,1.7900391
			c0.4863281,0.1914063,0.8554688,0.4643555,1.1044922,0.8198242c0.2490234,0.3544922,0.3740234,0.7714844,0.3740234,1.2519531
			c0,0.6865234-0.2177734,1.28125-0.6542969,1.7841797c-0.5693359,0.6552734-1.3935547,0.9833984-2.4726563,0.9833984
			c-0.5341797,0-0.8974609-0.0664063-1.0908203-0.1992188c-0.1923828-0.1328125-0.2890625-0.2753906-0.2890625-0.4267578
			c0-0.1132813,0.0458984-0.2128906,0.1376953-0.2988281c0.0908203-0.0859375,0.2011719-0.1289063,0.3300781-0.1289063
			c0.0966797,0,0.1962891,0.015625,0.2978516,0.046875c0.0664063,0.0195313,0.2167969,0.0908203,0.4501953,0.2138672
			s0.3955078,0.1962891,0.4853516,0.2197266c0.1435547,0.0429688,0.2978516,0.0644531,0.4619141,0.0644531
			c0.3974609,0,0.7431641-0.1542969,1.0371094-0.4628906c0.2939453-0.3076172,0.4414063-0.6728516,0.4414063-1.09375
			c0-0.3085938-0.0683594-0.6083984-0.2041016-0.9013672c-0.1015625-0.21875-0.2128906-0.3837891-0.3339844-0.4970703
			c-0.1669922-0.15625-0.3974609-0.2978516-0.6894531-0.4248047c-0.2919922-0.1259766-0.5898438-0.1894531-0.8945313-0.1894531
			h-0.1865234v-0.1757813c0.3076172-0.0390625,0.6162109-0.1503906,0.9257813-0.3334961
			c0.3105469-0.1835938,0.5351563-0.4038086,0.6757813-0.6611328c0.140625-0.2578125,0.2099609-0.5405273,0.2099609-0.8486328
			c0-0.4018555-0.125-0.7265625-0.3769531-0.9741211c-0.2509766-0.2475586-0.5634766-0.371582-0.9384766-0.371582
			c-0.6035156,0-1.1083984,0.3237305-1.5136719,0.9711914L22.5429688,64.6015625z"/>
	</g>
	<g>
		<path d="M6.7954102,65.730957l-0.7773438,2.6625977c0.7290039-1.0888672,1.2871094-1.8041992,1.6748047-2.1474609
			S8.4536133,65.730957,8.8125,65.730957c0.1948242,0,0.3554688,0.0644531,0.4824219,0.1933594
			c0.1264648,0.128418,0.1899414,0.2963867,0.1899414,0.5029297c0,0.2338867-0.0566406,0.5463867-0.1699219,0.9360352
			l-0.7128906,2.4638672c-0.0820313,0.2841797-0.1230469,0.4580078-0.1230469,0.5205078
			c0,0.0546875,0.015625,0.1005859,0.046875,0.1376953s0.0644531,0.0556641,0.0996094,0.0556641
			c0.0463867,0,0.1030273-0.0253906,0.1694336-0.0761719c0.206543-0.1640625,0.4326172-0.4140625,0.6782227-0.7490234
			l0.1811523,0.1113281c-0.3623047,0.5185547-0.7055664,0.8886719-1.0288086,1.1113281
			c-0.2260742,0.1523438-0.4287109,0.2285156-0.6079102,0.2285156c-0.1445313,0-0.2592773-0.0439453-0.3452148-0.1318359
			c-0.0854492-0.0878906-0.128418-0.2060547-0.128418-0.3544922c0-0.1865234,0.065918-0.5087891,0.1987305-0.9648438
			l0.6782227-2.3525391c0.0854492-0.2919922,0.128418-0.5205078,0.128418-0.6845703
			c0-0.0776367-0.0253906-0.1411133-0.0761719-0.1899414c-0.050293-0.0488281-0.112793-0.0732422-0.1870117-0.0732422
			c-0.1088867,0-0.2397461,0.046875-0.3916016,0.140625c-0.2885742,0.175293-0.5883789,0.4648438-0.9003906,0.8686523
			c-0.3115234,0.4042969-0.6411133,0.9199219-0.987793,1.5478516c-0.1831055,0.3310547-0.3349609,0.6943359-0.4560547,1.0878906
			l-0.2919922,0.9658203H4.3813477l1.0639648-3.6630859c0.1245117-0.4404297,0.1870117-0.7055664,0.1870117-0.7954102
			c0-0.0859375-0.0341797-0.1611328-0.1025391-0.2255859c-0.0678711-0.0639648-0.152832-0.0961914-0.2539063-0.0961914
			c-0.046875,0-0.1289063,0.0078125-0.2456055,0.0234375l-0.222168,0.034668L4.7729492,66.09375L6.7954102,65.730957z"/>
	</g>
	<g>
		<path d="M13.1665039,66.5854492h6.1381836v0.5678711h-6.1381836V66.5854492z M13.1665039,68.7675781h6.1381836v0.5791016
			h-6.1381836V68.7675781z"/>
	</g>
</g>
<g>
	<g>
		<path d="M27.4516602,48.4033203v0.8310547h-1.0673828v2.0947266h-0.9667969V49.234375h-3.3652344v-0.7490234l3.6875-5.2543945
			h0.6445313v5.1723633H27.4516602z M25.4174805,48.4033203v-3.9375l-2.7910156,3.9375H25.4174805z"/>
	</g>
	<g>
		<path d="M6.3193359,46.0336914l-0.7797852,2.6625977c0.730957-1.0888672,1.2905273-1.8041992,1.6796875-2.1474609
			c0.3886719-0.3432617,0.7631836-0.5151367,1.1225586-0.5151367c0.1953125,0,0.3564453,0.0644531,0.4838867,0.1933594
			c0.1269531,0.128418,0.1904297,0.2963867,0.1904297,0.5029297c0,0.2338867-0.0566406,0.5463867-0.1699219,0.9360352
			l-0.715332,2.4638672c-0.0820313,0.2841797-0.1230469,0.4580078-0.1230469,0.5205078
			c0,0.0546875,0.015625,0.1005859,0.046875,0.1376953S8.1191406,50.84375,8.1542969,50.84375
			c0.046875,0,0.1035156-0.0253906,0.1699219-0.0761719c0.2070313-0.1640625,0.434082-0.4140625,0.6801758-0.7490234
			l0.1816406,0.1113281c-0.3632813,0.5185547-0.7075195,0.8886719-1.0317383,1.1113281
			c-0.2265625,0.1523438-0.4301758,0.2285156-0.6098633,0.2285156c-0.1445313,0-0.2597656-0.0439453-0.3457031-0.1318359
			s-0.1289063-0.2060547-0.1289063-0.3544922c0-0.1865234,0.0664063-0.5087891,0.1992188-0.9648438l0.6801758-2.3525391
			c0.0859375-0.2919922,0.1289063-0.5205078,0.1289063-0.6845703c0-0.0776367-0.0253906-0.1411133-0.0761719-0.1899414
			s-0.1132813-0.0732422-0.1875-0.0732422c-0.1098633,0-0.2407227,0.046875-0.3930664,0.140625
			c-0.2890625,0.175293-0.590332,0.4648438-0.902832,0.8686523c-0.3125,0.4042969-0.6430664,0.9199219-0.9907227,1.5478516
			c-0.1835938,0.3310547-0.3359375,0.6943359-0.4570313,1.0878906l-0.293457,0.9658203H3.8979492l1.0668945-3.6630859
			c0.125-0.4404297,0.1879883-0.7055664,0.1879883-0.7954102c0-0.0859375-0.034668-0.1611328-0.1025391-0.2255859
			c-0.0688477-0.0639648-0.1538086-0.0961914-0.2553711-0.0961914c-0.046875,0-0.1289063,0.0078125-0.2460938,0.0234375
			l-0.2226563,0.034668l-0.0351563-0.2104492L6.3193359,46.0336914z"/>
	</g>
	<g>
		<path d="M12.706543,46.8881836h6.1552734v0.5678711H12.706543V46.8881836z M12.706543,49.0703125h6.1552734v0.5791016H12.706543
			V49.0703125z"/>
	</g>
</g>
<g>
</g>
<g>
</g>
<g>
</g>
<g>
</g>
<g>
</g>
</svg>
