<?xml version="1.0" encoding="utf-8"?>
<!-- Generator: Adobe Illustrator 19.0.0, SVG Export Plug-In . SVG Version: 6.00 Build 0)  -->
<svg version="1.1" id="图层_1" xmlns="http://www.w3.org/2000/svg" xmlns:xlink="http://www.w3.org/1999/xlink" x="0px" y="0px"
	 viewBox="0 0 133.5 170.5" style="enable-background:new 0 0 133.5 170.5;" xml:space="preserve">
<style type="text/css">
	.st0{fill-opacity:0;stroke:#000000;}
	.st1{stroke:#000000;stroke-miterlimit:10;}
</style>
<path class="st0" d="M51.279747,42.3252487c-28.1909065,8.2182236-48.0748215,31.747345-48.1908531,61.6777344
	c0,35.1626663,28.5046654,63.6669235,63.6674919,63.6669235c35.1626968,0,63.6681595-28.5042572,63.6681595-63.6669235
	c-0.6554565-27.7584152-18.7083282-52.8034096-45.4713135-60.9995384"/>
<path class="st0" d="M49.217411,56.8556938c-19.5044518,8.5297966-32.8199387,25.2627907-32.8833008,47.1472893
	c0,27.8469009,22.5748043,50.422142,50.4222717,50.422142c27.8481445,0,50.4227524-22.5752411,50.4227524-50.422142
	c-0.7134552-21.1763382-13.5699615-40.4154587-33.8222351-47.602993"/>
<path class="st0" d="M50.9735031,72.9398117c-11.6917076,6.7707214-19.1075478,17.2078094-19.1975632,31.0631714
	c0,19.3192825,15.6610374,34.9798355,34.9804459,34.9798355c19.3192749,0,34.9804764-15.660553,34.9804764-34.9798355
	c-0.5240784-12.1778259-6.3987656-23.3150711-16.8435593-29.8413086"/>
<g>
	<g>
		<path d="M67.5633316,26.7992191c-0.4453354,0-0.8069458-0.3095531-0.8069458-0.6912346
			c0-0.3818111,0.3616104-0.6912041,0.8069458-0.6912041c0.445488,0,0.806488,0.3093929,0.806488,0.6912041
			C68.3698196,26.489666,68.0088196,26.7992191,67.5633316,26.7992191z"/>
		<path class="st0" d="M67.5633316,26.7992191c-0.4453354,0-0.8069458-0.3095531-0.8069458-0.6912346
			c0-0.3818111,0.3616104-0.6912041,0.8069458-0.6912041c0.445488,0,0.806488,0.3093929,0.806488,0.6912041
			C68.3698196,26.489666,68.0088196,26.7992191,67.5633316,26.7992191z"/>
	</g>
	<g>
		<path d="M67.5633316,4.0491042c-0.4453354,0-0.8069458-0.3095207-0.8069458-0.6912029
			c0-0.3822923,0.3616104-0.6912346,0.8069458-0.6912346c0.445488,0,0.806488,0.3089423,0.806488,0.6912346
			C68.3698196,3.7395835,68.0088196,4.0491042,67.5633316,4.0491042z"/>
		<path class="st0" d="M67.5633316,4.0491042c-0.4453354,0-0.8069458-0.3095207-0.8069458-0.6912029
			c0-0.3822923,0.3616104-0.6912346,0.8069458-0.6912346c0.445488,0,0.806488,0.3089423,0.806488,0.6912346
			C68.3698196,3.7395835,68.0088196,4.0491042,67.5633316,4.0491042z"/>
	</g>
	<g>
		<path d="M67.5633316,16.0285912c-0.4453354,0-0.8069458-0.3095531-0.8069458-0.6912355
			c0-0.3822927,0.3616104-0.6912031,0.8069458-0.6912031c0.445488,0,0.806488,0.3089104,0.806488,0.6912031
			C68.3698196,15.719038,68.0088196,16.0285912,67.5633316,16.0285912z"/>
		<path class="st0" d="M67.5633316,16.0285912c-0.4453354,0-0.8069458-0.3095531-0.8069458-0.6912355
			c0-0.3822927,0.3616104-0.6912031,0.8069458-0.6912031c0.445488,0,0.806488,0.3089104,0.806488,0.6912031
			C68.3698196,15.719038,68.0088196,16.0285912,67.5633316,16.0285912z"/>
	</g>
</g>
<circle class="st1" cx="66.7567902" cy="104.9974747" r="9.4204178"/>
<g>
	<g>
		<path d="M75.5161133,67.7763672l1.9238281-0.9418945h0.1923828v6.699707c0,0.4443359,0.0175781,0.7216797,0.0546875,0.8310547
			s0.1142578,0.1933594,0.2304688,0.2509766c0.1162109,0.0585938,0.3535156,0.0917969,0.7109375,0.0996094v0.2167969h-2.9726563
			v-0.2167969c0.3730469-0.0078125,0.6142578-0.0400391,0.7226563-0.0966797
			c0.109375-0.0556641,0.1845703-0.1318359,0.2275391-0.2275391s0.0644531-0.3818359,0.0644531-0.8574219v-4.2832031
			c0-0.5771484-0.0195313-0.9477539-0.0585938-1.1118164c-0.0273438-0.1245117-0.0761719-0.2163086-0.1484375-0.2749023
			s-0.1582031-0.0878906-0.2597656-0.0878906c-0.1435547,0-0.34375,0.0605469-0.5996094,0.1816406L75.5161133,67.7763672z"/>
	</g>
	<g>
		<path d="M59.9707031,69.637207l-0.7753906,2.6625977c0.7265625-1.0888672,1.2832031-1.8041992,1.6699219-2.1474609
			s0.7583008-0.5151367,1.1157227-0.5151367c0.1943359,0,0.3544922,0.0644531,0.480957,0.1933594
			c0.1264648,0.128418,0.1894531,0.2963867,0.1894531,0.5029297c0,0.2338867-0.0561523,0.5463867-0.1689453,0.9360352
			l-0.7109375,2.4638672c-0.081543,0.2841797-0.1225586,0.4580078-0.1225586,0.5205078
			c0,0.0546875,0.015625,0.1005859,0.046875,0.1376953c0.0307617,0.0371094,0.0639648,0.0556641,0.0991211,0.0556641
			c0.0463867,0,0.1025391-0.0253906,0.1689453-0.0761719c0.2055664-0.1640625,0.4311523-0.4140625,0.6757813-0.7490234
			l0.1806641,0.1113281c-0.3613281,0.5185547-0.703125,0.8886719-1.0253906,1.1113281
			c-0.2255859,0.1523438-0.4277344,0.2285156-0.6064453,0.2285156c-0.1435547,0-0.2583008-0.0439453-0.34375-0.1318359
			s-0.1279297-0.2060547-0.1279297-0.3544922c0-0.1865234,0.065918-0.5087891,0.1977539-0.9648438l0.6762695-2.3525391
			c0.0854492-0.2919922,0.1279297-0.5205078,0.1279297-0.6845703c0-0.0776367-0.0249023-0.1411133-0.0756836-0.1899414
			c-0.050293-0.0488281-0.112793-0.0732422-0.1865234-0.0732422c-0.1088867,0-0.2387695,0.046875-0.3901367,0.140625
			c-0.2875977,0.175293-0.5869141,0.4648438-0.8974609,0.8686523c-0.3110352,0.4042969-0.6391602,0.9199219-0.9848633,1.5478516
			c-0.1831055,0.3310547-0.3344727,0.6943359-0.4545898,1.0878906l-0.2915039,0.9658203h-0.8745117l1.0610352-3.6630859
			c0.1240234-0.4404297,0.1865234-0.7055664,0.1865234-0.7954102c0-0.0859375-0.0341797-0.1611328-0.1020508-0.2255859
			c-0.0683594-0.0639648-0.152832-0.0961914-0.253418-0.0961914c-0.046875,0-0.128418,0.0078125-0.2451172,0.0234375
			l-0.2211914,0.034668L57.9541016,70L59.9707031,69.637207z"/>
	</g>
	<g>
		<path d="M66.3178711,70.4916992h6.1191406v0.5678711h-6.1191406V70.4916992z M66.3178711,72.6738281h6.1191406v0.5791016
			h-6.1191406V72.6738281z"/>
	</g>
</g>
<g>
	<g>
		<path d="M80.7045898,57.4746094l-0.5566406,1.5273438h-4.6904297v-0.2167969
			c1.3798828-1.2558594,2.3505859-2.28125,2.9140625-3.0771484c0.5625-0.7958984,0.84375-1.5234375,0.84375-2.1826172
			c0-0.503418-0.1542969-0.9169922-0.4628906-1.2407227s-0.6777344-0.4853516-1.1083984-0.4853516
			c-0.390625,0-0.7412109,0.1137695-1.0517578,0.3422852c-0.3105469,0.2280273-0.5410156,0.5625-0.6894531,1.003418h-0.2167969
			c0.0976563-0.7216797,0.3486328-1.2758789,0.7539063-1.6621094c0.4042969-0.3857422,0.9091797-0.5791016,1.515625-0.5791016
			c0.6445313,0,1.1826172,0.2070313,1.6142578,0.6201172c0.4326172,0.4135742,0.6484375,0.9013672,0.6484375,1.4628906
			c0,0.4018555-0.09375,0.8037109-0.28125,1.2055664c-0.2900391,0.6318359-0.7587891,1.3007813-1.4072266,2.0068359
			c-0.9736328,1.0615234-1.5810547,1.7011719-1.8232422,1.9189453h2.0751953c0.421875,0,0.7177734-0.015625,0.8876953-0.046875
			c0.1708984-0.03125,0.3242188-0.09375,0.4609375-0.1894531s0.2558594-0.2314453,0.3574219-0.4072266H80.7045898z"/>
	</g>
	<g>
		<path d="M59.6542969,53.706543l-0.7797852,2.6625977c0.730957-1.0888672,1.2905273-1.8041992,1.6796875-2.1474609
			c0.3886719-0.3432617,0.7631836-0.5151367,1.1225586-0.5151367c0.1953125,0,0.3564453,0.0644531,0.4838867,0.1933594
			c0.1269531,0.128418,0.1904297,0.2963867,0.1904297,0.5029297c0,0.2338867-0.0566406,0.5463867-0.1699219,0.9360352
			l-0.715332,2.4638672c-0.0820313,0.2841797-0.1230469,0.4580078-0.1230469,0.5205078
			c0,0.0546875,0.015625,0.1005859,0.046875,0.1376953s0.0644531,0.0556641,0.0996094,0.0556641
			c0.046875,0,0.1035156-0.0253906,0.1699219-0.0761719c0.2070313-0.1640625,0.434082-0.4140625,0.6801758-0.7490234
			l0.1816406,0.1113281c-0.3632813,0.5185547-0.7075195,0.8886719-1.0317383,1.1113281
			c-0.2265625,0.1523438-0.4301758,0.2285156-0.6098633,0.2285156c-0.1445313,0-0.2597656-0.0439453-0.3457031-0.1318359
			s-0.1289063-0.2060547-0.1289063-0.3544922c0-0.1865234,0.0664063-0.5087891,0.1992188-0.9648438l0.6801758-2.3525391
			c0.0859375-0.2919922,0.1289063-0.5205078,0.1289063-0.6845703c0-0.0776367-0.0253906-0.1411133-0.0761719-0.1899414
			s-0.1132813-0.0732422-0.1875-0.0732422c-0.1098633,0-0.2407227,0.046875-0.3930664,0.140625
			c-0.2890625,0.175293-0.590332,0.4648438-0.902832,0.8686523c-0.3125,0.4042969-0.6430664,0.9199219-0.9907227,1.5478516
			c-0.1835938,0.3310547-0.3359375,0.6943359-0.4570313,1.0878906l-0.293457,0.9658203h-0.8793945l1.0668945-3.6630859
			c0.125-0.4404297,0.1879883-0.7055664,0.1879883-0.7954102c0-0.0859375-0.034668-0.1611328-0.1025391-0.2255859
			c-0.0688477-0.0639648-0.1538086-0.0961914-0.2553711-0.0961914c-0.046875,0-0.1289063,0.0078125-0.2460938,0.0234375
			l-0.2226563,0.034668l-0.0351563-0.2104492L59.6542969,53.706543z"/>
	</g>
	<g>
		<path d="M66.0415039,54.5610352h6.1552734v0.5678711h-6.1552734V54.5610352z M66.0415039,56.7431641h6.1552734v0.5791016
			h-6.1552734V56.7431641z"/>
	</g>
</g>
<g>
	<g>
		<path d="M75.3237305,38.5771484c0.2255859-0.5341797,0.5107422-0.9467773,0.8564453-1.2373047
			c0.3447266-0.2905273,0.7744141-0.4360352,1.2880859-0.4360352c0.6357422,0,1.1230469,0.2070313,1.4619141,0.6201172
			c0.2568359,0.3085938,0.3857422,0.6381836,0.3857422,0.9892578c0,0.5771484-0.3623047,1.1738281-1.0869141,1.7900391
			c0.4863281,0.1914063,0.8554688,0.4643555,1.1044922,0.8198242c0.2490234,0.3544922,0.3740234,0.7714844,0.3740234,1.2519531
			c0,0.6865234-0.2177734,1.28125-0.6542969,1.7841797c-0.5693359,0.6552734-1.3935547,0.9833984-2.4726563,0.9833984
			c-0.5341797,0-0.8974609-0.0664063-1.0908203-0.1992188c-0.1923828-0.1328125-0.2890625-0.2753906-0.2890625-0.4267578
			c0-0.1132813,0.0458984-0.2128906,0.1376953-0.2988281c0.0908203-0.0859375,0.2011719-0.1289063,0.3300781-0.1289063
			c0.0966797,0,0.1962891,0.015625,0.2978516,0.046875c0.0664063,0.0195313,0.2167969,0.0908203,0.4501953,0.2138672
			s0.3955078,0.1962891,0.4853516,0.2197266c0.1435547,0.0429688,0.2978516,0.0644531,0.4619141,0.0644531
			c0.3974609,0,0.7431641-0.1542969,1.0371094-0.4628906c0.2939453-0.3076172,0.4414063-0.6728516,0.4414063-1.09375
			c0-0.3085938-0.0683594-0.6083984-0.2041016-0.9013672c-0.1015625-0.21875-0.2128906-0.3837891-0.3339844-0.4970703
			c-0.1669922-0.15625-0.3974609-0.2978516-0.6894531-0.4248047c-0.2919922-0.1259766-0.5898438-0.1894531-0.8945313-0.1894531
			h-0.1865234v-0.1757813c0.3076172-0.0390625,0.6162109-0.1503906,0.9257813-0.3334961
			c0.3105469-0.1835938,0.5351563-0.4038086,0.6757813-0.6611328c0.140625-0.2578125,0.2099609-0.5405273,0.2099609-0.8486328
			c0-0.4018555-0.125-0.7265625-0.3769531-0.9741211c-0.2509766-0.2475586-0.5634766-0.371582-0.9384766-0.371582
			c-0.6035156,0-1.1083984,0.3237305-1.5136719,0.9711914L75.3237305,38.5771484z"/>
	</g>
	<g>
		<path d="M59.5761719,39.706543l-0.7773438,2.6625977c0.7290039-1.0888672,1.2871094-1.8041992,1.6748047-2.1474609
			s0.7607422-0.5151367,1.1196289-0.5151367c0.1948242,0,0.3554688,0.0644531,0.4824219,0.1933594
			c0.1264648,0.128418,0.1899414,0.2963867,0.1899414,0.5029297c0,0.2338867-0.0566406,0.5463867-0.1699219,0.9360352
			l-0.7128906,2.4638672c-0.0820313,0.2841797-0.1230469,0.4580078-0.1230469,0.5205078
			c0,0.0546875,0.015625,0.1005859,0.046875,0.1376953s0.0644531,0.0556641,0.0996094,0.0556641
			c0.0463867,0,0.1030273-0.0253906,0.1694336-0.0761719c0.206543-0.1640625,0.4326172-0.4140625,0.6782227-0.7490234
			l0.1811523,0.1113281c-0.3623047,0.5185547-0.7055664,0.8886719-1.0288086,1.1113281
			c-0.2260742,0.1523438-0.4287109,0.2285156-0.6079102,0.2285156c-0.1445313,0-0.2592773-0.0439453-0.3452148-0.1318359
			c-0.0854492-0.0878906-0.128418-0.2060547-0.128418-0.3544922c0-0.1865234,0.065918-0.5087891,0.1987305-0.9648438
			l0.6782227-2.3525391c0.0854492-0.2919922,0.128418-0.5205078,0.128418-0.6845703
			c0-0.0776367-0.0253906-0.1411133-0.0761719-0.1899414c-0.050293-0.0488281-0.112793-0.0732422-0.1870117-0.0732422
			c-0.1088867,0-0.2397461,0.046875-0.3916016,0.140625c-0.2885742,0.175293-0.5883789,0.4648438-0.9003906,0.8686523
			c-0.3115234,0.4042969-0.6411133,0.9199219-0.987793,1.5478516c-0.1831055,0.3310547-0.3349609,0.6943359-0.4560547,1.0878906
			l-0.2919922,0.9658203h-0.8769531l1.0639648-3.6630859c0.1245117-0.4404297,0.1870117-0.7055664,0.1870117-0.7954102
			c0-0.0859375-0.0341797-0.1611328-0.1025391-0.2255859c-0.0678711-0.0639648-0.152832-0.0961914-0.2539063-0.0961914
			c-0.046875,0-0.1289063,0.0078125-0.2456055,0.0234375l-0.222168,0.034668l-0.0351563-0.2104492L59.5761719,39.706543z"/>
	</g>
	<g>
		<path d="M65.9472656,40.5610352h6.1381836v0.5678711h-6.1381836V40.5610352z M65.9472656,42.7431641h6.1381836v0.5791016
			h-6.1381836V42.7431641z"/>
	</g>
</g>
<g>
</g>
<g>
</g>
<g>
</g>
<g>
</g>
<g>
</g>
</svg>
