<?xml version="1.0" encoding="utf-8"?>
<!-- Generator: Adobe Illustrator 19.0.0, SVG Export Plug-In . SVG Version: 6.00 Build 0)  -->
<svg version="1.1" id="图层_1" xmlns="http://www.w3.org/2000/svg" xmlns:xlink="http://www.w3.org/1999/xlink" x="0px" y="0px"
	 viewBox="0 0 130 147.3333282" style="enable-background:new 0 0 130 147.3333282;" xml:space="preserve">
<style type="text/css">
	.st0{fill-opacity:0;stroke:#CACBFF;stroke-linecap:round;stroke-linejoin:round;stroke-dasharray:3,2;}
	.st1{fill-opacity:0;stroke:#000000;}
	.st2{enable-background:new    ;}
	.st3{fill-opacity:0;stroke:#404080;}
	.st4{fill:#404080;stroke:#404080;}
</style>
<path class="st0" d="M31.3381023,112.8836288L31.3381023,112.8836288L31.3381023,112.8836288L31.3381023,112.8836288
	L31.3381023,112.8836288c-0.5607986-0.6999588-0.2212009-0.9618225,0.1341076-1.1752548
	c0.350996-0.2105408,1.4110451,0.2327423,2.2016945,0.6566849c7.3586769,4.2263184,18.961235,11.3334885,22.8040962,12.0507507
	c0.6523781,0.1220016,1.3741302,0.1557541,1.7517929-0.5375824c0.1328087-0.2440033,0.1718826-0.5087585,0.0275269-0.9275055
	c-0.0684853-0.1975784-0.4284325-0.7700348-0.8777428-1.2759018"/>
<path class="st0" d="M32.6108437,96.6682892c-6.8471966-14.776741,32.4482536,21.1756287,35.2421684,23.348175
	c1.7304382,1.3459854,8.7118683,4.975296,6.4209213-0.1790848"/>
<path class="st0" d="M33.5178833,78.8278198c-12.6581192-21.2573776,61.2757034,48.4533157,43.6431427,25.5299377"/>
<path class="st0" d="M33.5178833,60.6188698c-5.2168407-15.3035164,47.4391327,38.145565,49.6157303,39.8676186
	c2.073349,1.6424942,11.4191284,7.3437042,8.9982681,0.6183548"/>
<g>
	<path class="st1" d="M35.2980576,62.5934601h18.2709389v18.2707901H35.2980576V62.5934601z"/>
	<path class="st1" d="M35.2980576,117.4061203h18.2709389v18.2705002H35.2980576V117.4061203z"/>
	<path class="st1" d="M53.5689964,99.1353378h18.2709389v18.2707825H53.5689964V99.1353378z"/>
	<path class="st1" d="M35.2980576,99.1353378h18.2709389v18.2707825H35.2980576V99.1353378z"/>
	<path class="st1" d="M71.8399353,80.8642502h18.2705231v18.2710876H71.8399353V80.8642502z"/>
	<path class="st1" d="M53.5689964,80.8642502h18.2709389v18.2710876H53.5689964V80.8642502z"/>
	<path class="st1" d="M35.2980576,80.8642502h18.2709389v18.2710876H35.2980576V80.8642502z"/>
	<path class="st1" d="M90.1104584,62.5934601h18.2704926v18.2707901H90.1104584V62.5934601z"/>
	<path class="st1" d="M71.8399353,62.5934601h18.2705231v18.2707901H71.8399353V62.5934601z"/>
	<path class="st1" d="M53.5689964,62.5934601h18.2709389v18.2707901H53.5689964V62.5934601z"/>
	<g class="st2">
		<path d="M46.7421875,74.070961l-0.5136719,1.4111328H41.902832v-0.2001953c1.2724609-1.1606445,2.168457-2.1083984,2.6875-2.84375
			s0.7783203-1.4077148,0.7783203-2.0170898c0-0.4648438-0.1425781-0.8466797-0.4272461-1.1459961
			s-0.625-0.4487305-1.0214844-0.4487305c-0.3608398,0-0.684082,0.1054688-0.9707031,0.3164063
			s-0.4985352,0.5200195-0.6352539,0.9272461h-0.2001953c0.090332-0.6669922,0.3217773-1.1787109,0.6948242-1.5356445
			s0.8388672-0.5351563,1.3974609-0.5351563c0.5947266,0,1.0913086,0.190918,1.4897461,0.5727539
			c0.3984375,0.3823242,0.5976563,0.8330078,0.5976563,1.3520508c0,0.3710938-0.0864258,0.7426758-0.2597656,1.1137695
			c-0.2666016,0.5839844-0.6992188,1.2021484-1.2973633,1.8544922c-0.8979492,0.9804688-1.4584961,1.5717773-1.6816406,1.7734375
			H44.96875c0.3891602,0,0.6621094-0.0141602,0.8188477-0.043457c0.1567383-0.0288086,0.2983398-0.0874023,0.4248047-0.1757813
			c0.1259766-0.0878906,0.2358398-0.2133789,0.3295898-0.3754883H46.7421875z"/>
	</g>
	<g class="st2">
		<path d="M46.7421875,127.4215469l-0.5136719,1.4111404H41.902832v-0.2001953
			c1.2724609-1.1606522,2.168457-2.1084061,2.6875-2.8437576s0.7783203-1.4077148,0.7783203-2.0170898
			c0-0.4648438-0.1425781-0.8466797-0.4272461-1.1459961s-0.625-0.4487305-1.0214844-0.4487305
			c-0.3608398,0-0.684082,0.1054688-0.9707031,0.3164063s-0.4985352,0.5200195-0.6352539,0.9272461h-0.2001953
			c0.090332-0.6669922,0.3217773-1.1787109,0.6948242-1.5356445s0.8388672-0.5351563,1.3974609-0.5351563
			c0.5947266,0,1.0913086,0.190918,1.4897461,0.5727539c0.3984375,0.3823242,0.5976563,0.8330078,0.5976563,1.3520508
			c0,0.3710938-0.0864258,0.7426758-0.2597656,1.1137695c-0.2666016,0.5839844-0.6992188,1.2021484-1.2973633,1.8544922
			c-0.8979492,0.9804688-1.4584961,1.5717773-1.6816406,1.7734451H44.96875c0.3891602,0,0.6621094-0.0141602,0.8188477-0.0434647
			c0.1567383-0.0288086,0.2983398-0.0874023,0.4248047-0.1757813c0.1259766-0.0878906,0.2358398-0.2133789,0.3295898-0.3754883
			H46.7421875z"/>
	</g>
	<g class="st2">
		<path d="M76.7363281,68.8693008l1.7841797-0.8701172h0.1782227v6.1904297c0,0.4111328,0.0170898,0.6669922,0.0512695,0.7680664
			s0.1054688,0.1782227,0.2138672,0.2324219c0.1079102,0.0541992,0.3276367,0.0849609,0.659668,0.0917969v0.2001953h-2.7578125
			v-0.2001953c0.3461914-0.0068359,0.5698242-0.0366211,0.6704102-0.0888672
			c0.1010742-0.0522461,0.1713867-0.1225586,0.2109375-0.2109375s0.0595703-0.3525391,0.0595703-0.7924805v-3.9575195
			c0-0.5336914-0.0180664-0.8759766-0.0541992-1.0273438c-0.0249023-0.1152344-0.0712891-0.2001953-0.1376953-0.2539063
			c-0.0668945-0.0541992-0.1469727-0.081543-0.2407227-0.081543c-0.1333008,0-0.3188477,0.0561523-0.5566406,0.1679688
			L76.7363281,68.8693008z"/>
		<path d="M81.375,71.8595352c0-0.8364258,0.1264648-1.5561523,0.3789063-2.1601563
			c0.2519531-0.6035156,0.5874023-1.0532227,1.0053711-1.3491211c0.324707-0.2338867,0.659668-0.3510742,1.0058594-0.3510742
			c0.5620117,0,1.0668945,0.2866211,1.5136719,0.859375c0.5585938,0.7104492,0.8383789,1.6728516,0.8383789,2.887207
			c0,0.8510742-0.1225586,1.5737305-0.3676758,2.168457s-0.5581055,1.0263672-0.9384766,1.2949219
			c-0.3798828,0.2685547-0.7470703,0.402832-1.1000977,0.402832c-0.6992188,0-1.28125-0.4125977-1.746582-1.2382813
			C81.5717773,73.6778946,81.375,72.840004,81.375,71.8595352z M82.4350586,71.9947891
			c0,1.0092773,0.1240234,1.8330078,0.3730469,2.4707031c0.2055664,0.5371094,0.5117188,0.8056641,0.9189453,0.8056641
			c0.1948242,0,0.3964844-0.0874023,0.6054688-0.262207c0.2094727-0.1748047,0.3676758-0.4677734,0.4760742-0.878418
			c0.1655273-0.6201172,0.2485352-1.4941406,0.2485352-2.6225586c0-0.8359375-0.0864258-1.5336914-0.2592773-2.0922852
			c-0.1298828-0.4145508-0.2973633-0.7084961-0.5029297-0.8813477c-0.1479492-0.1191406-0.3261719-0.1787109-0.5351563-0.1787109
			c-0.2451172,0-0.4633789,0.1103516-0.6542969,0.3300781c-0.2597656,0.2993164-0.4360352,0.7695313-0.5297852,1.4111328
			S82.4350586,71.371254,82.4350586,71.9947891z"/>
	</g>
	<g class="st2">
		<path d="M46.7421875,109.1500626l-0.5136719,1.4111328H41.902832v-0.2001953
			c1.2724609-1.1606445,2.168457-2.1083984,2.6875-2.84375s0.7783203-1.4077148,0.7783203-2.0170898
			c0-0.4648438-0.1425781-0.8466797-0.4272461-1.1459961s-0.625-0.4487305-1.0214844-0.4487305
			c-0.3608398,0-0.684082,0.1054688-0.9707031,0.3164063s-0.4985352,0.5200195-0.6352539,0.9272461h-0.2001953
			c0.090332-0.6669922,0.3217773-1.1787109,0.6948242-1.5356445s0.8388672-0.5351563,1.3974609-0.5351563
			c0.5947266,0,1.0913086,0.190918,1.4897461,0.5727539c0.3984375,0.3823242,0.5976563,0.8330078,0.5976563,1.3520508
			c0,0.3710938-0.0864258,0.7426758-0.2597656,1.1137695c-0.2666016,0.5839844-0.6992188,1.2021484-1.2973633,1.8544922
			c-0.8979492,0.9804688-1.4584961,1.5717773-1.6816406,1.7734375H44.96875c0.3891602,0,0.6621094-0.0141602,0.8188477-0.043457
			c0.1567383-0.0288086,0.2983398-0.0874023,0.4248047-0.1757813c0.1259766-0.0878906,0.2358398-0.2133789,0.3295898-0.3754883
			H46.7421875z"/>
	</g>
	<g class="st2">
		<path d="M76.7363281,87.1388321l1.7841797-0.8701172h0.1782227v6.1904297c0,0.4111328,0.0170898,0.6669922,0.0512695,0.7680664
			s0.1054688,0.1782227,0.2138672,0.2324219c0.1079102,0.0541992,0.3276367,0.0849609,0.659668,0.0917969v0.2001953h-2.7578125
			v-0.2001953c0.3461914-0.0068359,0.5698242-0.0366211,0.6704102-0.0888672
			c0.1010742-0.0522461,0.1713867-0.1225586,0.2109375-0.2109375s0.0595703-0.3525391,0.0595703-0.7924805v-3.9575195
			c0-0.5336914-0.0180664-0.8759766-0.0541992-1.0273438c-0.0249023-0.1152344-0.0712891-0.2001953-0.1376953-0.2539063
			c-0.0668945-0.0541992-0.1469727-0.081543-0.2407227-0.081543c-0.1333008,0-0.3188477,0.0561523-0.5566406,0.1679688
			L76.7363281,87.1388321z"/>
		<path d="M81.375,90.1290665c0-0.8364258,0.1264648-1.5561523,0.3789063-2.1601563
			c0.2519531-0.6035156,0.5874023-1.0532227,1.0053711-1.3491211c0.324707-0.2338867,0.659668-0.3510742,1.0058594-0.3510742
			c0.5620117,0,1.0668945,0.2866211,1.5136719,0.859375c0.5585938,0.7104492,0.8383789,1.6728516,0.8383789,2.887207
			c0,0.8510742-0.1225586,1.5737305-0.3676758,2.168457s-0.5581055,1.0263672-0.9384766,1.2949219
			c-0.3798828,0.2685547-0.7470703,0.402832-1.1000977,0.402832c-0.6992188,0-1.28125-0.4125977-1.746582-1.2382813
			C81.5717773,91.9474258,81.375,91.1095352,81.375,90.1290665z M82.4350586,90.2643204
			c0,1.0092773,0.1240234,1.8330078,0.3730469,2.4707031c0.2055664,0.5371094,0.5117188,0.8056641,0.9189453,0.8056641
			c0.1948242,0,0.3964844-0.0874023,0.6054688-0.262207c0.2094727-0.1748047,0.3676758-0.4677734,0.4760742-0.878418
			c0.1655273-0.6201172,0.2485352-1.4941406,0.2485352-2.6225586c0-0.8359375-0.0864258-1.5336914-0.2592773-2.0922852
			c-0.1298828-0.4145508-0.2973633-0.7084961-0.5029297-0.8813477c-0.1479492-0.1191406-0.3261719-0.1787109-0.5351563-0.1787109
			c-0.2451172,0-0.4633789,0.1103516-0.6542969,0.3300781c-0.2597656,0.2993164-0.4360352,0.7695313-0.5297852,1.4111328
			S82.4350586,89.6407852,82.4350586,90.2643204z"/>
	</g>
	<g class="st2">
		<path d="M64.8989258,86.2687149v0.199707c-0.4755859,0.046875-0.8642578,0.1416016-1.1650391,0.2841797
			c-0.3012695,0.1420898-0.5986328,0.359375-0.8920898,0.6513672c-0.2939453,0.2919922-0.5371094,0.6171875-0.7299805,0.9760742
			c-0.1928711,0.3583984-0.3540039,0.784668-0.4838867,1.2788086c0.519043-0.3569336,1.0400391-0.5356445,1.5625-0.5356445
			c0.5009766,0,0.9355469,0.2021484,1.3032227,0.605957c0.3676758,0.4033203,0.5512695,0.9223633,0.5512695,1.5571289
			c0,0.612793-0.1855469,1.1713867-0.5566406,1.6757813c-0.4472656,0.612793-1.0380859,0.9194336-1.7734375,0.9194336
			c-0.5014648,0-0.9267578-0.1660156-1.2763672-0.4975586c-0.6845703-0.6450195-1.0273438-1.4814453-1.0273438-2.5087891
			c0-0.6557617,0.1318359-1.2797852,0.3950195-1.8706055c0.2631836-0.5913086,0.6386719-1.1157227,1.1274414-1.5737305
			c0.4882813-0.4575195,0.9560547-0.765625,1.402832-0.9243164s0.8632813-0.237793,1.2490234-0.237793H64.8989258z
			 M61.5361328,90.0533829c-0.0649414,0.4868164-0.0976563,0.8793945-0.0976563,1.1787109
			c0,0.3461914,0.0639648,0.7216797,0.1918945,1.1274414c0.1279297,0.4052734,0.3183594,0.7270508,0.5708008,0.9648438
			c0.1835938,0.1694336,0.4072266,0.2543945,0.6704102,0.2543945c0.3134766,0,0.59375-0.1479492,0.8408203-0.4433594
			c0.246582-0.2958984,0.3701172-0.7172852,0.3701172-1.2651367c0-0.6166992-0.1225586-1.1499023-0.3676758-1.6005859
			s-0.5927734-0.6757813-1.043457-0.6757813c-0.137207,0-0.2836914,0.0288086-0.4404297,0.0864258
			C62.0737305,89.7379532,61.8422852,89.8624649,61.5361328,90.0533829z"/>
	</g>
	<g class="st2">
		<path d="M46.7421875,92.3404922l-0.5136719,1.4111328H41.902832v-0.2001953
			c1.2724609-1.1606445,2.168457-2.1083984,2.6875-2.84375s0.7783203-1.4077148,0.7783203-2.0170898
			c0-0.4648438-0.1425781-0.8466797-0.4272461-1.1459961s-0.625-0.4487305-1.0214844-0.4487305
			c-0.3608398,0-0.684082,0.1054688-0.9707031,0.3164063s-0.4985352,0.5200195-0.6352539,0.9272461h-0.2001953
			c0.090332-0.6669922,0.3217773-1.1787109,0.6948242-1.5356445s0.8388672-0.5351563,1.3974609-0.5351563
			c0.5947266,0,1.0913086,0.190918,1.4897461,0.5727539c0.3984375,0.3823242,0.5976563,0.8330078,0.5976563,1.3520508
			c0,0.3710938-0.0864258,0.7426758-0.2597656,1.1137695c-0.2666016,0.5839844-0.6992188,1.2021484-1.2973633,1.8544922
			c-0.8979492,0.9804688-1.4584961,1.5717773-1.6816406,1.7734375H44.96875c0.3891602,0,0.6621094-0.0141602,0.8188477-0.043457
			c0.1567383-0.0288086,0.2983398-0.0874023,0.4248047-0.1757813c0.1259766-0.0878906,0.2358398-0.2133789,0.3295898-0.3754883
			H46.7421875z"/>
	</g>
	<g class="st2">
		<path d="M95.0068359,68.8693008l1.7841797-0.8701172h0.1782227v6.1904297c0,0.4111328,0.0170898,0.6669922,0.0512695,0.7680664
			s0.1054688,0.1782227,0.2138672,0.2324219c0.1079102,0.0541992,0.3276367,0.0849609,0.659668,0.0917969v0.2001953h-2.7578125
			v-0.2001953c0.3461914-0.0068359,0.5698242-0.0366211,0.6704102-0.0888672
			c0.1010742-0.0522461,0.1713867-0.1225586,0.2109375-0.2109375s0.0595703-0.3525391,0.0595703-0.7924805v-3.9575195
			c0-0.5336914-0.0180664-0.8759766-0.0541992-1.0273438c-0.0249023-0.1152344-0.0712891-0.2001953-0.1376953-0.2539063
			c-0.0668945-0.0541992-0.1469727-0.081543-0.2407227-0.081543c-0.1333008,0-0.3188477,0.0561523-0.5566406,0.1679688
			L95.0068359,68.8693008z"/>
		<path d="M104.3984375,72.7784805v0.7680664h-0.984375v1.9355469h-0.8920898v-1.9355469H99.418457v-0.6923828l3.4008789-4.8549805
			h0.5947266v4.7792969H104.3984375z M102.5219727,72.7784805v-3.6386719l-2.5732422,3.6386719H102.5219727z"/>
	</g>
	<g class="st2">
		<path d="M64.8989258,103.0782852v0.199707c-0.4755859,0.046875-0.8642578,0.1416016-1.1650391,0.2841797
			c-0.3012695,0.1420898-0.5986328,0.359375-0.8920898,0.6513672c-0.2939453,0.2919922-0.5371094,0.6171875-0.7299805,0.9760742
			c-0.1928711,0.3583984-0.3540039,0.784668-0.4838867,1.2788086c0.519043-0.3569336,1.0400391-0.5356445,1.5625-0.5356445
			c0.5009766,0,0.9355469,0.2021484,1.3032227,0.605957c0.3676758,0.4033203,0.5512695,0.9223633,0.5512695,1.5571289
			c0,0.612793-0.1855469,1.1713867-0.5566406,1.6757813c-0.4472656,0.612793-1.0380859,0.9194336-1.7734375,0.9194336
			c-0.5014648,0-0.9267578-0.1660156-1.2763672-0.4975586c-0.6845703-0.6450195-1.0273438-1.4814453-1.0273438-2.5087891
			c0-0.6557617,0.1318359-1.2797852,0.3950195-1.8706055c0.2631836-0.5913086,0.6386719-1.1157227,1.1274414-1.5737305
			c0.4882813-0.4575195,0.9560547-0.765625,1.402832-0.9243164s0.8632813-0.237793,1.2490234-0.237793H64.8989258z
			 M61.5361328,106.8629532c-0.0649414,0.4868164-0.0976563,0.8793945-0.0976563,1.1787109
			c0,0.3461914,0.0639648,0.7216797,0.1918945,1.1274414c0.1279297,0.4052734,0.3183594,0.7270508,0.5708008,0.9648438
			c0.1835938,0.1694336,0.4072266,0.2543945,0.6704102,0.2543945c0.3134766,0,0.59375-0.1479492,0.8408203-0.4433594
			c0.246582-0.2958984,0.3701172-0.7172852,0.3701172-1.2651367c0-0.6166992-0.1225586-1.1499023-0.3676758-1.6005859
			s-0.5927734-0.6757813-1.043457-0.6757813c-0.137207,0-0.2836914,0.0288086-0.4404297,0.0864258
			C62.0737305,106.5475235,61.8422852,106.6720352,61.5361328,106.8629532z"/>
	</g>
	<g class="st2">
		<path d="M64.8989258,67.9991837v0.199707c-0.4755859,0.046875-0.8642578,0.1416016-1.1650391,0.2841797
			c-0.3012695,0.1420898-0.5986328,0.359375-0.8920898,0.6513672c-0.2939453,0.2919922-0.5371094,0.6171875-0.7299805,0.9760742
			c-0.1928711,0.3583984-0.3540039,0.784668-0.4838867,1.2788086c0.519043-0.3569336,1.0400391-0.5356445,1.5625-0.5356445
			c0.5009766,0,0.9355469,0.2021484,1.3032227,0.605957c0.3676758,0.4033203,0.5512695,0.9223633,0.5512695,1.5571289
			c0,0.612793-0.1855469,1.1713867-0.5566406,1.6757813c-0.4472656,0.612793-1.0380859,0.9194336-1.7734375,0.9194336
			c-0.5014648,0-0.9267578-0.1660156-1.2763672-0.4975586c-0.6845703-0.6450195-1.0273438-1.4814453-1.0273438-2.5087891
			c0-0.6557617,0.1318359-1.2797852,0.3950195-1.8706055c0.2631836-0.5913086,0.6386719-1.1157227,1.1274414-1.5737305
			c0.4882813-0.4575195,0.9560547-0.765625,1.402832-0.9243164s0.8632813-0.237793,1.2490234-0.237793H64.8989258z
			 M61.5361328,71.7838516c-0.0649414,0.4868164-0.0976563,0.8793945-0.0976563,1.1787109
			c0,0.3461914,0.0639648,0.7216797,0.1918945,1.1274414c0.1279297,0.4052734,0.3183594,0.7270508,0.5708008,0.9648438
			c0.1835938,0.1694336,0.4072266,0.2543945,0.6704102,0.2543945c0.3134766,0,0.59375-0.1479492,0.8408203-0.4433594
			c0.246582-0.2958984,0.3701172-0.7172852,0.3701172-1.2651367c0-0.6166992-0.1225586-1.1499023-0.3676758-1.6005859
			s-0.5927734-0.6757813-1.043457-0.6757813c-0.137207,0-0.2836914,0.0288086-0.4404297,0.0864258
			C62.0737305,71.4684219,61.8422852,71.5929337,61.5361328,71.7838516z"/>
	</g>
	<g>
		<path class="st1" d="M108.2476959,44.3225212h18.2707901v18.2709389h-18.2707901V44.3225212z"/>
		<g class="st2">
			<path d="M113.1445313,50.5978203l1.7841797-0.8701172h0.1782227v6.1904297c0,0.4111328,0.0170898,0.6669922,0.0512695,0.7680664
				s0.1054688,0.1782227,0.2138672,0.2324219c0.1079102,0.0541992,0.3276367,0.0849609,0.659668,0.0917969v0.2001953h-2.7578125
				v-0.2001953c0.3461914-0.0068359,0.5698242-0.0366211,0.6704102-0.0888672
				c0.1010742-0.0522461,0.1713867-0.1225586,0.2109375-0.2109375s0.0595703-0.3525391,0.0595703-0.7924805v-3.9575195
				c0-0.5336914-0.0180664-0.8759766-0.0541992-1.0273438c-0.0249023-0.1152344-0.0712891-0.2001953-0.1376953-0.2539063
				c-0.0668945-0.0541992-0.1469727-0.081543-0.2407227-0.081543c-0.1333008,0-0.3188477,0.0561523-0.5566406,0.1679688
				L113.1445313,50.5978203z"/>
			<path d="M119.5083008,53.5177422c-0.5805664-0.4755859-0.9545898-0.8579102-1.1220703-1.1464844
				c-0.1674805-0.2880859-0.2514648-0.5874023-0.2514648-0.8974609c0-0.4755859,0.184082-0.8857422,0.5517578-1.2299805
				s0.855957-0.5161133,1.4648438-0.5161133c0.5913086,0,1.0673828,0.1601563,1.4277344,0.480957
				s0.5405273,0.6865234,0.5405273,1.0976563c0,0.2739258-0.097168,0.5532227-0.2919922,0.8378906
				c-0.1943359,0.2851563-0.6000977,0.6201172-1.2163086,1.0058594c0.6342773,0.4902344,1.0541992,0.8759766,1.2597656,1.1572266
				c0.2739258,0.3676758,0.4106445,0.7548828,0.4106445,1.1621094c0,0.515625-0.1962891,0.956543-0.5893555,1.3222656
				c-0.3925781,0.3657227-0.9082031,0.5488281-1.5463867,0.5488281c-0.6953125,0-1.237793-0.2182617-1.6274414-0.6542969
				c-0.3100586-0.3496094-0.4648438-0.7319336-0.4648438-1.1464844c0-0.3242188,0.1088867-0.6459961,0.3271484-0.9648438
				C118.5991211,54.2555351,118.9746094,53.9034843,119.5083008,53.5177422z M119.762207,53.7233086
				c-0.2993164,0.2524414-0.5209961,0.5268555-0.6650391,0.8242188s-0.2163086,0.6191406-0.2163086,0.965332
				c0,0.4648438,0.1274414,0.8374023,0.3813477,1.1166992s0.5776367,0.4189453,0.9707031,0.4189453
				c0.3891602,0,0.7006836-0.1098633,0.9350586-0.3300781c0.234375-0.2197266,0.3515625-0.4863281,0.3515625-0.800293
				c0-0.2592773-0.0683594-0.4916992-0.2055664-0.6972656C121.0581055,54.8390312,120.5410156,54.3395195,119.762207,53.7233086z
				 M120.3569336,52.9391289c0.4326172-0.3891602,0.706543-0.6962891,0.8217773-0.921875
				c0.1157227-0.2250977,0.1733398-0.4799805,0.1733398-0.7651367c0-0.378418-0.1064453-0.6748047-0.3193359-0.8891602
				c-0.2124023-0.2143555-0.5024414-0.3217773-0.8701172-0.3217773s-0.6669922,0.1064453-0.8979492,0.3188477
				c-0.2304688,0.2128906-0.3457031,0.4614258-0.3457031,0.7460938c0,0.1875,0.0478516,0.375,0.1430664,0.5625
				c0.0957031,0.1875,0.2314453,0.3657227,0.4082031,0.5351563L120.3569336,52.9391289z"/>
		</g>
	</g>
	<g>
		<path class="st1" d="M90.1104584,44.3225212h18.2704926v18.2709389H90.1104584V44.3225212z"/>
		<g class="st2">
			<path d="M95.0068359,50.5978203l1.7841797-0.8701172h0.1782227v6.1904297c0,0.4111328,0.0170898,0.6669922,0.0512695,0.7680664
				s0.1054688,0.1782227,0.2138672,0.2324219c0.1079102,0.0541992,0.3276367,0.0849609,0.659668,0.0917969v0.2001953h-2.7578125
				v-0.2001953c0.3461914-0.0068359,0.5698242-0.0366211,0.6704102-0.0888672
				c0.1010742-0.0522461,0.1713867-0.1225586,0.2109375-0.2109375s0.0595703-0.3525391,0.0595703-0.7924805v-3.9575195
				c0-0.5336914-0.0180664-0.8759766-0.0541992-1.0273438c-0.0249023-0.1152344-0.0712891-0.2001953-0.1376953-0.2539063
				c-0.0668945-0.0541992-0.1469727-0.081543-0.2407227-0.081543c-0.1333008,0-0.3188477,0.0561523-0.5566406,0.1679688
				L95.0068359,50.5978203z"/>
			<path d="M104.3984375,54.507v0.7680664h-0.984375v1.9355469h-0.8920898v-1.9355469H99.418457v-0.6923828l3.4008789-4.8549805
				h0.5947266V54.507H104.3984375z M102.5219727,54.507v-3.6386719L99.9487305,54.507H102.5219727z"/>
		</g>
	</g>
	<g>
		<path class="st1" d="M71.8399353,44.3225212h18.2705231v18.2709389H71.8399353V44.3225212z"/>
		<g class="st2">
			<path d="M76.7363281,50.5978203l1.7841797-0.8701172h0.1782227v6.1904297c0,0.4111328,0.0170898,0.6669922,0.0512695,0.7680664
				s0.1054688,0.1782227,0.2138672,0.2324219c0.1079102,0.0541992,0.3276367,0.0849609,0.659668,0.0917969v0.2001953h-2.7578125
				v-0.2001953c0.3461914-0.0068359,0.5698242-0.0366211,0.6704102-0.0888672
				c0.1010742-0.0522461,0.1713867-0.1225586,0.2109375-0.2109375s0.0595703-0.3525391,0.0595703-0.7924805v-3.9575195
				c0-0.5336914-0.0180664-0.8759766-0.0541992-1.0273438c-0.0249023-0.1152344-0.0712891-0.2001953-0.1376953-0.2539063
				c-0.0668945-0.0541992-0.1469727-0.081543-0.2407227-0.081543c-0.1333008,0-0.3188477,0.0561523-0.5566406,0.1679688
				L76.7363281,50.5978203z"/>
			<path d="M81.375,53.5880547c0-0.8364258,0.1264648-1.5561523,0.3789063-2.1601563
				c0.2519531-0.6035156,0.5874023-1.0532227,1.0053711-1.3491211c0.324707-0.2338867,0.659668-0.3510742,1.0058594-0.3510742
				c0.5620117,0,1.0668945,0.2866211,1.5136719,0.859375c0.5585938,0.7104492,0.8383789,1.6728516,0.8383789,2.887207
				c0,0.8510742-0.1225586,1.5737305-0.3676758,2.168457s-0.5581055,1.0263672-0.9384766,1.2949219
				c-0.3798828,0.2685547-0.7470703,0.402832-1.1000977,0.402832c-0.6992188,0-1.28125-0.4125977-1.746582-1.2382813
				C81.5717773,55.406414,81.375,54.5685234,81.375,53.5880547z M82.4350586,53.7233086
				c0,1.0092773,0.1240234,1.8330078,0.3730469,2.4707031c0.2055664,0.5371094,0.5117188,0.8056641,0.9189453,0.8056641
				c0.1948242,0,0.3964844-0.0874023,0.6054688-0.262207c0.2094727-0.1748047,0.3676758-0.4677734,0.4760742-0.878418
				c0.1655273-0.6201172,0.2485352-1.4941406,0.2485352-2.6225586c0-0.8359375-0.0864258-1.5336914-0.2592773-2.0922852
				c-0.1298828-0.4145508-0.2973633-0.7084961-0.5029297-0.8813477c-0.1479492-0.1191406-0.3261719-0.1787109-0.5351563-0.1787109
				c-0.2451172,0-0.4633789,0.1103516-0.6542969,0.3300781c-0.2597656,0.2993164-0.4360352,0.7695313-0.5297852,1.4111328
				S82.4350586,53.0997734,82.4350586,53.7233086z"/>
		</g>
	</g>
	<g>
		<path class="st1" d="M53.5689964,44.3225212h18.2709389v18.2709389H53.5689964V44.3225212z"/>
		<g class="st2">
			<path d="M64.8989258,49.7277031v0.199707c-0.4755859,0.046875-0.8642578,0.1416016-1.1650391,0.2841797
				c-0.3012695,0.1420898-0.5986328,0.359375-0.8920898,0.6513672c-0.2939453,0.2919922-0.5371094,0.6171875-0.7299805,0.9760742
				c-0.1928711,0.3583984-0.3540039,0.784668-0.4838867,1.2788086c0.519043-0.3569336,1.0400391-0.5356445,1.5625-0.5356445
				c0.5009766,0,0.9355469,0.2021484,1.3032227,0.605957c0.3676758,0.4033203,0.5512695,0.9223633,0.5512695,1.5571289
				c0,0.612793-0.1855469,1.1713867-0.5566406,1.6757813c-0.4472656,0.612793-1.0380859,0.9194336-1.7734375,0.9194336
				c-0.5014648,0-0.9267578-0.1660156-1.2763672-0.4975586c-0.6845703-0.6450195-1.0273438-1.4814453-1.0273438-2.5087891
				c0-0.6557617,0.1318359-1.2797852,0.3950195-1.8706055c0.2631836-0.5913086,0.6386719-1.1157227,1.1274414-1.5737305
				c0.4882813-0.4575195,0.9560547-0.765625,1.402832-0.9243164s0.8632813-0.237793,1.2490234-0.237793H64.8989258z
				 M61.5361328,53.5123711c-0.0649414,0.4868164-0.0976563,0.8793945-0.0976563,1.1787109
				c0,0.3461914,0.0639648,0.7216797,0.1918945,1.1274414c0.1279297,0.4052734,0.3183594,0.7270508,0.5708008,0.9648438
				c0.1835938,0.1694336,0.4072266,0.2543945,0.6704102,0.2543945c0.3134766,0,0.59375-0.1479492,0.8408203-0.4433594
				c0.246582-0.2958984,0.3701172-0.7172852,0.3701172-1.2651367c0-0.6166992-0.1225586-1.1499023-0.3676758-1.6005859
				s-0.5927734-0.6757813-1.043457-0.6757813c-0.137207,0-0.2836914,0.0288086-0.4404297,0.0864258
				C62.0737305,53.1969414,61.8422852,53.3214531,61.5361328,53.5123711z"/>
		</g>
	</g>
	<g>
		<path class="st1" d="M35.2980576,44.3225212h18.2709389v18.2709389H35.2980576V44.3225212z"/>
		<g class="st2">
			<path d="M46.7421875,55.7994804l-0.5136719,1.4111328H41.902832v-0.2001953
				c1.2724609-1.1606445,2.168457-2.1083984,2.6875-2.84375s0.7783203-1.4077148,0.7783203-2.0170898
				c0-0.4648438-0.1425781-0.8466797-0.4272461-1.1459961s-0.625-0.4487305-1.0214844-0.4487305
				c-0.3608398,0-0.684082,0.1054688-0.9707031,0.3164063s-0.4985352,0.5200195-0.6352539,0.9272461h-0.2001953
				c0.090332-0.6669922,0.3217773-1.1787109,0.6948242-1.5356445s0.8388672-0.5351563,1.3974609-0.5351563
				c0.5947266,0,1.0913086,0.190918,1.4897461,0.5727539c0.3984375,0.3823242,0.5976563,0.8330078,0.5976563,1.3520508
				c0,0.3710938-0.0864258,0.7426758-0.2597656,1.1137695c-0.2666016,0.5839844-0.6992188,1.2021484-1.2973633,1.8544922
				c-0.8979492,0.9804688-1.4584961,1.5717773-1.6816406,1.7734375H44.96875c0.3891602,0,0.6621094-0.0141602,0.8188477-0.043457
				c0.1567383-0.0288086,0.2983398-0.0874023,0.4248047-0.1757813c0.1259766-0.0878906,0.2358398-0.2133789,0.3295898-0.3754883
				H46.7421875z"/>
		</g>
	</g>
</g>
<g>
	<path class="st0" d="M32.6119957,41.8612633c-8.4341393-15.5749226,42.37994,31.0340462,43.6122856,32.3387718
		c2.0436325,2.1642227,25.0163269,19.0751724,15.9078979,8.5639343"/>
	<g>
		<g>
			<path class="st3" d="M92.1321793,82.7639694L47.9476738,39.1039391"/>
			<path class="st3" d="M56.1069832,137.889267l-24.7688808-25.0056381"/>
			<path class="st3" d="M92.1321793,101.1039886L32.6119957,41.8612633"/>
			<path class="st3" d="M77.161026,104.3577576L33.5178833,60.6188698"/>
			<path class="st3" d="M74.2749405,119.8373795L33.5178833,78.8278198"/>
			<path class="st3" d="M57.3795776,121.6736679L32.6119957,96.6682892"/>
		</g>
		<g>
			<path class="st3" d="M63.7152672,145.4166718l-5.2469635-5.19104"/>
			<path class="st4" d="M58.4683037,140.2256317l1.9550972-0.4020233l-4.3164177-1.9343414l1.9803162,4.2958069
				L58.4683037,140.2256317z"/>
		</g>
		<g>
			<path class="st3" d="M55.1540794,46.2073898l-5.247261-5.1904373"/>
			<path class="st4" d="M49.9068184,41.0169525l1.9552422-0.4023247l-4.3169785-1.9344864l1.981205,4.2956581L49.9068184,41.0169525
				z"/>
		</g>
	</g>
</g>
<g class="st2">
	<path d="M37.9594727,32.0934258c0.1694336,0,0.3115234,0.0585938,0.4272461,0.1757813
		c0.1152344,0.1171875,0.1728516,0.2583008,0.1728516,0.4243164s-0.0585938,0.3071289-0.1757813,0.4243164
		S38.125,33.2936211,37.9594727,33.2936211c-0.1660156,0-0.3076172-0.0585938-0.4248047-0.1757813
		c-0.1166992-0.1171875-0.175293-0.2583008-0.175293-0.4243164c0-0.1694336,0.0585938-0.3120117,0.175293-0.4272461
		C37.6518555,32.1510429,37.793457,32.0934258,37.9594727,32.0934258z"/>
	<path d="M43.4960938,32.0934258c0.1694336,0,0.3115234,0.0585938,0.4272461,0.1757813
		c0.1152344,0.1171875,0.1728516,0.2583008,0.1728516,0.4243164s-0.0585938,0.3071289-0.1757813,0.4243164
		s-0.2587891,0.1757813-0.4243164,0.1757813c-0.1660156,0-0.3076172-0.0585938-0.4248047-0.1757813
		c-0.1166992-0.1171875-0.175293-0.2583008-0.175293-0.4243164c0-0.1694336,0.0585938-0.3120117,0.175293-0.4272461
		C43.1884766,32.1510429,43.3300781,32.0934258,43.4960938,32.0934258z"/>
	<path d="M49.0327148,32.0934258c0.1694336,0,0.3115234,0.0585938,0.4272461,0.1757813
		c0.1152344,0.1171875,0.1728516,0.2583008,0.1728516,0.4243164s-0.0585938,0.3071289-0.1757813,0.4243164
		s-0.2587891,0.1757813-0.4243164,0.1757813c-0.1660156,0-0.3076172-0.0585938-0.4248047-0.1757813
		c-0.1166992-0.1171875-0.175293-0.2583008-0.175293-0.4243164c0-0.1694336,0.0585938-0.3120117,0.175293-0.4272461
		C48.7250977,32.1510429,48.8666992,32.0934258,49.0327148,32.0934258z"/>
	<path d="M54.5693359,32.0934258c0.1694336,0,0.3115234,0.0585938,0.4272461,0.1757813
		c0.1152344,0.1171875,0.1728516,0.2583008,0.1728516,0.4243164s-0.0585938,0.3071289-0.1757813,0.4243164
		s-0.2587891,0.1757813-0.4243164,0.1757813c-0.1660156,0-0.3076172-0.0585938-0.4248047-0.1757813
		c-0.1166992-0.1171875-0.175293-0.2583008-0.175293-0.4243164c0-0.1694336,0.0585938-0.3120117,0.175293-0.4272461
		C54.2617188,32.1510429,54.4033203,32.0934258,54.5693359,32.0934258z"/>
</g>
<g class="st2">
	<path d="M45.7724609,16.3287754v2.6108398h-0.2055664c-0.0668945-0.5009766-0.1865234-0.8999023-0.359375-1.1967773
		c-0.1723633-0.296875-0.418457-0.5322266-0.7373047-0.7070313c-0.3193359-0.1743164-0.6494141-0.2617188-0.9907227-0.2617188
		c-0.3862305,0-0.7050781,0.1181641-0.9575195,0.3535156c-0.2524414,0.2358398-0.378418,0.5039063-0.378418,0.8046875
		c0,0.2299805,0.0795898,0.4394531,0.2392578,0.6289063c0.2299805,0.2783203,0.7773438,0.6494141,1.6420898,1.1132813
		c0.7050781,0.378418,1.1865234,0.6689453,1.4443359,0.8710938s0.456543,0.4404297,0.5957031,0.715332
		c0.1391602,0.2744141,0.2084961,0.5620117,0.2084961,0.862793c0,0.5712891-0.2216797,1.0639648-0.6650391,1.4775391
		c-0.4433594,0.4140625-1.0141602,0.6206055-1.7114258,0.6206055c-0.2192383,0-0.425293-0.0166016-0.6181641-0.0498047
		c-0.1147461-0.0185547-0.3535156-0.0864258-0.715332-0.203125c-0.3618164-0.1171875-0.5908203-0.175293-0.6870117-0.175293
		c-0.0927734,0-0.1665039,0.027832-0.2202148,0.0834961s-0.09375,0.1704102-0.1196289,0.3447266h-0.2060547v-2.5883789h0.2060547
		c0.0966797,0.5419922,0.2265625,0.9472656,0.3896484,1.2163086s0.4130859,0.4926758,0.7485352,0.6708984
		c0.3359375,0.1782227,0.7045898,0.2670898,1.1049805,0.2670898c0.4638672,0,0.8305664-0.1225586,1.0996094-0.3671875
		c0.269043-0.2451172,0.4033203-0.534668,0.4033203-0.8686523c0-0.1850586-0.0507813-0.3725586-0.152832-0.5620117
		s-0.2607422-0.3652344-0.4760742-0.5288086c-0.1445313-0.1113281-0.5400391-0.3476563-1.1855469-0.7094727
		s-1.1049805-0.6503906-1.3779297-0.8657227c-0.2724609-0.215332-0.4794922-0.4526367-0.6206055-0.7124023
		s-0.2114258-0.5454102-0.2114258-0.8574219c0-0.5415039,0.2080078-1.0083008,0.6235352-1.3999023
		s0.9443359-0.5874023,1.5864258-0.5874023c0.4008789,0,0.8256836,0.0986328,1.2744141,0.2954102
		c0.2080078,0.0927734,0.3544922,0.1391602,0.4399414,0.1391602c0.0966797,0,0.175293-0.0288086,0.2368164-0.0864258
		c0.0610352-0.0576172,0.1103516-0.1733398,0.1474609-0.3481445H45.7724609z"/>
	<path d="M63.4736328,20.5148106v2.1987305c0,0.4750977,0.0517578,0.7700195,0.1557617,0.8852539
		c0.1411133,0.1630859,0.3544922,0.2446289,0.6401367,0.2446289h0.2895508v0.2060547h-3.2338867v-0.2060547h0.2836914
		c0.3193359,0,0.5473633-0.1035156,0.6845703-0.3115234c0.0742188-0.1152344,0.1113281-0.3876953,0.1113281-0.8183594v-4.8759766
		c0-0.4750977-0.0498047-0.7700195-0.1503906-0.8852539c-0.1445313-0.1630859-0.3598633-0.2446289-0.6455078-0.2446289h-0.2836914
		V16.501627h2.7661133c0.675293,0,1.2080078,0.0693359,1.5976563,0.2084961s0.7182617,0.3740234,0.9853516,0.7041016
		c0.2670898,0.3305664,0.4008789,0.722168,0.4008789,1.1748047c0,0.6157227-0.203125,1.1166992-0.6098633,1.5029297
		c-0.40625,0.3857422-0.9804688,0.5786133-1.7226563,0.5786133c-0.1816406,0-0.378418-0.0126953-0.5898438-0.0385742
		C63.9414063,20.6056309,63.7148438,20.5670567,63.4736328,20.5148106z M63.4736328,20.1974277
		c0.1967773,0.0371094,0.3710938,0.0649414,0.5234375,0.0834961c0.1518555,0.0185547,0.2817383,0.027832,0.3891602,0.027832
		c0.3862305,0,0.7192383-0.1494141,0.9995117-0.4477539c0.2797852-0.2988281,0.4199219-0.6855469,0.4199219-1.1606445
		c0-0.3266602-0.0664063-0.6298828-0.2001953-0.9101563s-0.3227539-0.4897461-0.5678711-0.6289063
		c-0.2446289-0.1391602-0.5229492-0.2089844-0.8349609-0.2089844c-0.1889648,0-0.4321289,0.0356445-0.7290039,0.105957V20.1974277z"
		/>
	<path d="M78.6474609,24.0494785v-0.2060547h0.2836914c0.3193359,0,0.5458984-0.1020508,0.6791992-0.3061523
		c0.081543-0.1225586,0.1225586-0.3969727,0.1225586-0.8237305v-4.8759766c0-0.4711914-0.0522461-0.7661133-0.1557617-0.8852539
		c-0.1450195-0.1630859-0.3598633-0.2446289-0.6459961-0.2446289h-0.2836914V16.501627h3.0727539
		c1.1279297,0,1.9858398,0.1279297,2.5742188,0.3837891c0.5883789,0.2563477,1.0615234,0.6831055,1.4194336,1.2802734
		c0.3579102,0.5976563,0.5371094,1.2880859,0.5371094,2.0708008c0,1.050293-0.3193359,1.9277344-0.9575195,2.6328125
		c-0.7158203,0.7871094-1.8071289,1.1801758-3.2729492,1.1801758H78.6474609z M80.8017578,23.5040684
		c0.4711914,0.1040039,0.8662109,0.1557617,1.1855469,0.1557617c0.8608398,0,1.5751953-0.3022461,2.1430664-0.9072266
		s0.8515625-1.425293,0.8515625-2.4604492c0-1.0424805-0.2836914-1.8647461-0.8515625-2.4658203
		s-1.296875-0.9018555-2.1875-0.9018555c-0.3339844,0-0.7143555,0.0537109-1.1411133,0.1616211V23.5040684z"/>
	<path d="M103.2670898,16.9132481v2.9672852h1.3745117c0.3154297,0,0.5463867-0.0698242,0.6933594-0.2089844
		c0.1464844-0.1391602,0.2436523-0.4145508,0.2919922-0.8266602h0.2060547v2.5551758h-0.2060547
		c-0.0039063-0.293457-0.0415039-0.5083008-0.1142578-0.6459961c-0.0722656-0.137207-0.1723633-0.2402344-0.300293-0.3085938
		c-0.1279297-0.0688477-0.3183594-0.1030273-0.5708008-0.1030273h-1.3745117v2.3710938
		c0,0.3823242,0.0239258,0.6347656,0.0722656,0.7568359c0.0371094,0.0927734,0.1147461,0.1728516,0.2338867,0.2397461
		c0.1630859,0.0888672,0.3339844,0.1333008,0.5117188,0.1333008h0.2729492v0.2060547h-3.2397461v-0.2060547h0.2670898
		c0.3120117,0,0.5380859-0.0908203,0.6791992-0.2724609c0.0893555-0.1191406,0.1337891-0.4047852,0.1337891-0.8574219v-4.8759766
		c0-0.3823242-0.0244141-0.6347656-0.0722656-0.7573242c-0.0371094-0.0922852-0.1132813-0.1723633-0.2285156-0.2392578
		c-0.159668-0.0888672-0.3300781-0.1333008-0.512207-0.1333008h-0.2670898V16.501627h5.6166992l0.0722656,1.6586914h-0.1948242
		c-0.0966797-0.3525391-0.2089844-0.6113281-0.3369141-0.7763672s-0.2856445-0.284668-0.4731445-0.359375
		c-0.1875-0.0742188-0.4775391-0.1113281-0.8710938-0.1113281H103.2670898z"/>
	<path d="M125.6713867,16.3287754l0.1948242,2.3828125h-0.1948242c-0.1967773-0.59375-0.4511719-1.0410156-0.7626953-1.3417969
		c-0.4492188-0.434082-1.0263672-0.6513672-1.7314453-0.6513672c-0.9609375,0-1.6918945,0.3808594-2.1928711,1.1411133
		c-0.4194336,0.6420898-0.6289063,1.4067383-0.6289063,2.293457c0,0.7202148,0.1391602,1.3769531,0.4174805,1.9707031
		s0.6425781,1.0288086,1.09375,1.3051758c0.4506836,0.2763672,0.9135742,0.4145508,1.3886719,0.4145508
		c0.2783203,0,0.5473633-0.0351563,0.8071289-0.1054688c0.2597656-0.0708008,0.5102539-0.1748047,0.7514648-0.3120117v-2.1821289
		c0-0.378418-0.0288086-0.6259766-0.0864258-0.7426758c-0.0576172-0.1171875-0.1464844-0.2060547-0.2670898-0.2675781
		c-0.1206055-0.0610352-0.3330078-0.0917969-0.637207-0.0917969v-0.2114258h2.9223633v0.2114258h-0.1391602
		c-0.2895508,0-0.4882813,0.0966797-0.5957031,0.2895508c-0.0742188,0.137207-0.1113281,0.4082031-0.1113281,0.8125v2.3100586
		c-0.4267578,0.2304688-0.8481445,0.3989258-1.2636719,0.5068359c-0.4155273,0.1074219-0.8774414,0.1611328-1.3857422,0.1611328
		c-1.4584961,0-2.5664063-0.4672852-3.3232422-1.4023438c-0.5678711-0.7016602-0.8515625-1.5102539-0.8515625-2.4272461
		c0-0.6640625,0.1591797-1.300293,0.4785156-1.9091797c0.378418-0.7236328,0.8979492-1.2802734,1.5585938-1.6699219
		c0.5527344-0.3227539,1.2060547-0.484375,1.9594727-0.484375c0.2744141,0,0.5239258,0.0224609,0.7485352,0.0668945
		s0.5429688,0.1430664,0.9545898,0.2949219c0.2080078,0.078125,0.347168,0.1171875,0.4174805,0.1171875
		s0.1308594-0.0327148,0.1811523-0.0976563c0.0498047-0.0649414,0.0805664-0.1918945,0.0917969-0.3813477H125.6713867z"/>
</g>
<g class="st2">
	<path d="M42.0888672,6.3248696c0-0.8608398,0.1298828-1.6020508,0.3896484-2.2236328
		c0.2592773-0.6215818,0.6044922-1.0844724,1.0351563-1.3886716c0.3339844-0.2412109,0.6791992-0.3618164,1.0351563-0.3618164
		c0.5791016,0,1.0986328,0.2949219,1.5585938,0.8847656c0.5751953,0.7314453,0.862793,1.7221677,0.862793,2.972656
		c0,0.8754883-0.1259766,1.6196289-0.378418,2.2319341s-0.5742188,1.0566406-0.9658203,1.3330078
		c-0.3916016,0.2768555-0.769043,0.4150391-1.1328125,0.4150391c-0.7197266,0-1.3188477-0.425293-1.7978516-1.2749023
		C42.2910156,8.1969404,42.0888672,7.334147,42.0888672,6.3248696z M43.1796875,6.4640298
		c0,1.0390625,0.1279297,1.8872075,0.3842773,2.5439458c0.2114258,0.5527344,0.5268555,0.8291016,0.9462891,0.8291016
		c0.2001953,0,0.4077148-0.0898438,0.6230469-0.2695313c0.215332-0.1801758,0.378418-0.4819336,0.4897461-0.9047852
		c0.1708984-0.6381836,0.2563477-1.5380864,0.2563477-2.6997075c0-0.8608398-0.0893555-1.5786133-0.2670898-2.1542966
		c-0.1337891-0.4262695-0.3061523-0.7290039-0.5180664-0.9072266c-0.1518555-0.1225586-0.3354492-0.1835938-0.5507813-0.1835938
		c-0.2524414,0-0.4770508,0.1132813-0.6733398,0.3393555c-0.2675781,0.3081055-0.4492188,0.7924805-0.5458984,1.4531248
		C43.2280273,5.171061,43.1796875,5.8219399,43.1796875,6.4640298z"/>
	<path d="M62.9624023,3.2467449l1.8369141-0.8959961h0.1835938v6.3730469c0,0.4233398,0.0175781,0.6870117,0.0527344,0.7905273
		c0.0356445,0.1040039,0.1088867,0.1835938,0.2202148,0.2392578s0.3374023,0.0874023,0.6787109,0.0947266v0.2060547h-2.8383789
		V9.8483076c0.355957-0.0073242,0.5859375-0.0380859,0.6899414-0.0917969s0.1762695-0.1259766,0.2172852-0.2167969
		c0.0405273-0.0913086,0.0610352-0.362793,0.0610352-0.815918V4.6495767c0-0.5493164-0.0185547-0.9018552-0.0556641-1.0576169
		c-0.0258789-0.1186523-0.0732422-0.2060547-0.1420898-0.2617188c-0.0683594-0.0556641-0.1508789-0.0834961-0.2475586-0.0834961
		c-0.137207,0-0.328125,0.0576172-0.5732422,0.1723633L62.9624023,3.2467449z"/>
	<path d="M86.8027344,8.6017256l-0.5288086,1.4526367h-4.4526367V9.8483076
		c1.3095703-1.1948242,2.2319336-2.1708989,2.7661133-2.9277349c0.534668-0.7568359,0.8017578-1.4492188,0.8017578-2.0761719
		c0-0.4790039-0.1464844-0.8720701-0.4399414-1.1801755c-0.2929688-0.3081055-0.6435547-0.4619141-1.0517578-0.4619141
		c-0.3710938,0-0.7041016,0.1083984-0.9995117,0.3256836c-0.2949219,0.2167969-0.5126953,0.535156-0.6538086,0.9545896h-0.2060547
		c0.0927734-0.6865232,0.3310547-1.2133787,0.715332-1.5810544c0.3842773-0.3671875,0.8637695-0.5507813,1.4389648-0.5507813
		c0.6123047,0,1.1235352,0.1967773,1.5336914,0.5898438c0.409668,0.3935547,0.6147461,0.8574219,0.6147461,1.3916013
		c0,0.3823242-0.0888672,0.7646484-0.2670898,1.1464844c-0.2744141,0.6015625-0.7197266,1.237793-1.3359375,1.9091797
		c-0.9238281,1.0097661-1.5009766,1.6181645-1.730957,1.8261724h1.9702148c0.4008789,0,0.6821289-0.0151367,0.8432617-0.0449219
		c0.1616211-0.0292969,0.3071289-0.0898438,0.4370117-0.1806641s0.2431641-0.2197266,0.3398438-0.3867188H86.8027344z"/>
	<path d="M102.1049805,3.9425457c0.2148438-0.5083008,0.4868164-0.9008789,0.8154297-1.1772461
		c0.328125-0.2763672,0.7373047-0.4145508,1.2270508-0.4145508c0.6049805,0,1.0688477,0.1967773,1.3916016,0.5898438
		c0.2451172,0.2929688,0.3676758,0.6069336,0.3676758,0.940918c0,0.5488279-0.3452148,1.116699-1.0356445,1.7031248
		c0.4638672,0.1816406,0.8144531,0.4414063,1.0522461,0.7792969c0.2373047,0.3378906,0.355957,0.7348633,0.355957,1.190918
		c0,0.6533208-0.2075195,1.2192388-0.6230469,1.6977544c-0.5419922,0.6235352-1.3266602,0.9355469-2.3544922,0.9355469
		c-0.5087891,0-0.8544922-0.0634766-1.0385742-0.1894531c-0.1835938-0.1259766-0.2753906-0.2617188-0.2753906-0.40625
		c0-0.1079102,0.043457-0.2021484,0.1308594-0.2841797c0.0874023-0.081543,0.1918945-0.1220703,0.3144531-0.1220703
		c0.0927734,0,0.1875,0.0146484,0.2841797,0.0444336c0.0629883,0.0185547,0.2055664,0.0864258,0.4282227,0.203125
		s0.3769531,0.1865234,0.4624023,0.2084961c0.137207,0.0410156,0.2836914,0.0615234,0.4394531,0.0615234
		c0.378418,0,0.7080078-0.1464844,0.9882813-0.4399414c0.2797852-0.2929688,0.4199219-0.6401367,0.4199219-1.0410156
		c0-0.2929692-0.0649414-0.5786138-0.1948242-0.8569341c-0.0961914-0.2080078-0.2021484-0.3657227-0.3173828-0.4731445
		c-0.1591797-0.1484375-0.378418-0.2832031-0.6567383-0.4038086c-0.2783203-0.1201172-0.5620117-0.1806641-0.8515625-0.1806641
		h-0.1782227V6.1412759c0.293457-0.0371094,0.5874023-0.1430664,0.8823242-0.3173828s0.5092773-0.3837891,0.6430664-0.6289063
		c0.1333008-0.2451172,0.2001953-0.5141602,0.2001953-0.8071289c0-0.3823242-0.1196289-0.6909177-0.3588867-0.9267576
		s-0.5371094-0.3535156-0.8935547-0.3535156c-0.5751953,0-1.0556641,0.3081055-1.4414063,0.9238279L102.1049805,3.9425457z"/>
	<path d="M126.7797852,7.2711587v0.7905278h-1.0131836v1.9926758h-0.918457V8.0616865h-3.1948242V7.3492837l3.5009766-4.9985352
		h0.6123047v4.9204102H126.7797852z M124.8481445,7.2711587V3.5250652l-2.6494141,3.7460935H124.8481445z"/>
</g>
<g>
	<g>
		<path d="M21.5048828,123.0123672l1.9238281-0.9418945h0.1923828v6.6997147c0,0.4443359,0.0175781,0.7216797,0.0546875,0.8310547
			s0.1142578,0.1933594,0.2304688,0.2509766c0.1162109,0.0585938,0.3535156,0.0917969,0.7109375,0.0996094v0.2167969h-2.9726563
			v-0.2167969c0.3730469-0.0078125,0.6142578-0.0400391,0.7226563-0.0966797
			c0.109375-0.0556641,0.1845703-0.1318359,0.2275391-0.2275391s0.0644531-0.3818359,0.0644531-0.8574219v-4.2832108
			c0-0.5771484-0.0195313-0.9477539-0.0585938-1.1118164c-0.0273438-0.1245117-0.0761719-0.2163086-0.1484375-0.2749023
			s-0.1582031-0.0878906-0.2597656-0.0878906c-0.1435547,0-0.34375,0.0605469-0.5996094,0.1816406L21.5048828,123.0123672z"/>
	</g>
	<g>
		<path d="M5.9594727,124.8732071l-0.7753906,2.6625977c0.7265625-1.0888672,1.2832031-1.8041992,1.6699219-2.1474609
			s0.7583008-0.5151367,1.1157227-0.5151367c0.1943359,0,0.3544922,0.0644531,0.480957,0.1933594
			c0.1264648,0.128418,0.1894531,0.2963867,0.1894531,0.5029297c0,0.2338867-0.0561523,0.5463867-0.1689453,0.9360352
			l-0.7109375,2.4638748c-0.081543,0.2841797-0.1225586,0.4580078-0.1225586,0.5205078
			c0,0.0546875,0.015625,0.1005859,0.046875,0.1376953c0.0307617,0.0371094,0.0639648,0.0556641,0.0991211,0.0556641
			c0.0463867,0,0.1025391-0.0253906,0.1689453-0.0761719c0.2055664-0.1640625,0.4311523-0.4140625,0.6757813-0.7490234
			l0.1806641,0.1113281c-0.3613281,0.5185547-0.703125,0.8886719-1.0253906,1.1113281
			c-0.2255859,0.1523438-0.4277344,0.2285156-0.6064453,0.2285156c-0.1435547,0-0.2583008-0.0439453-0.34375-0.1318359
			s-0.1279297-0.2060547-0.1279297-0.3544922c0-0.1865234,0.065918-0.5087891,0.1977539-0.9648438l0.6762695-2.3525467
			c0.0854492-0.2919922,0.1279297-0.5205078,0.1279297-0.6845703c0-0.0776367-0.0249023-0.1411133-0.0756836-0.1899414
			c-0.050293-0.0488281-0.112793-0.0732422-0.1865234-0.0732422c-0.1088867,0-0.2387695,0.046875-0.3901367,0.140625
			c-0.2875977,0.175293-0.5869141,0.4648438-0.8974609,0.8686523c-0.3110352,0.4042969-0.6391602,0.9199219-0.9848633,1.5478592
			c-0.1831055,0.3310547-0.3344727,0.6943359-0.4545898,1.0878906l-0.2915039,0.9658203H3.5522461l1.0610352-3.6630936
			c0.1240234-0.4404297,0.1865234-0.7055664,0.1865234-0.7954102c0-0.0859375-0.0341797-0.1611328-0.1020508-0.2255859
			c-0.0683594-0.0639648-0.152832-0.0961914-0.253418-0.0961914c-0.046875,0-0.128418,0.0078125-0.2451172,0.0234375
			l-0.2211914,0.034668l-0.0351563-0.2104492L5.9594727,124.8732071z"/>
	</g>
	<g>
		<path d="M12.3066406,125.7276993h6.1191406v0.5678711h-6.1191406V125.7276993z M12.3066406,127.9098282h6.1191406v0.5791092
			h-6.1191406V127.9098282z"/>
	</g>
</g>
<g>
	<g>
		<path d="M26.5957031,110.3566055l-0.5566406,1.5273438h-4.6904297v-0.2167969
			c1.3798828-1.2558594,2.3505859-2.28125,2.9140625-3.0771484c0.5625-0.7958984,0.84375-1.5234375,0.84375-2.1826172
			c0-0.503418-0.1542969-0.9169922-0.4628906-1.2407227s-0.6777344-0.4853516-1.1083984-0.4853516
			c-0.390625,0-0.7412109,0.1137695-1.0517578,0.3422852c-0.3105469,0.2280273-0.5410156,0.5625-0.6894531,1.003418h-0.2167969
			c0.0976563-0.7216797,0.3486328-1.2758789,0.7539063-1.6621094c0.4042969-0.3857422,0.9091797-0.5791016,1.515625-0.5791016
			c0.6445313,0,1.1826172,0.2070313,1.6142578,0.6201172c0.4326172,0.4135742,0.6484375,0.9013672,0.6484375,1.4628906
			c0,0.4018555-0.09375,0.8037109-0.28125,1.2055664c-0.2900391,0.6318359-0.7587891,1.3007813-1.4072266,2.0068359
			c-0.9736328,1.0615234-1.5810547,1.7011719-1.8232422,1.9189453h2.0751953c0.421875,0,0.7177734-0.015625,0.8876953-0.046875
			c0.1708984-0.03125,0.3242188-0.09375,0.4609375-0.1894531s0.2558594-0.2314453,0.3574219-0.4072266H26.5957031z"/>
	</g>
	<g>
		<path d="M5.5454102,106.5885391l-0.7797852,2.6625977c0.730957-1.0888672,1.2905273-1.8041992,1.6796875-2.1474609
			c0.3886719-0.3432617,0.7631836-0.5151367,1.1225586-0.5151367c0.1953125,0,0.3564453,0.0644531,0.4838867,0.1933594
			c0.1269531,0.128418,0.1904297,0.2963867,0.1904297,0.5029297c0,0.2338867-0.0566406,0.5463867-0.1699219,0.9360352
			l-0.715332,2.4638672c-0.0820313,0.2841797-0.1230469,0.4580078-0.1230469,0.5205078
			c0,0.0546875,0.015625,0.1005859,0.046875,0.1376953s0.0644531,0.0556641,0.0996094,0.0556641
			c0.046875,0,0.1035156-0.0253906,0.1699219-0.0761719c0.2070313-0.1640625,0.434082-0.4140625,0.6801758-0.7490234
			l0.1816406,0.1113281c-0.3632813,0.5185547-0.7075195,0.8886719-1.0317383,1.1113281
			c-0.2265625,0.1523438-0.4301758,0.2285156-0.6098633,0.2285156c-0.1445313,0-0.2597656-0.0439453-0.3457031-0.1318359
			s-0.1289063-0.2060547-0.1289063-0.3544922c0-0.1865234,0.0664063-0.5087891,0.1992188-0.9648438l0.6801758-2.3525391
			c0.0859375-0.2919922,0.1289063-0.5205078,0.1289063-0.6845703c0-0.0776367-0.0253906-0.1411133-0.0761719-0.1899414
			s-0.1137695-0.0732422-0.1875-0.0732422c-0.1098633,0-0.2407227,0.046875-0.3930664,0.140625
			c-0.2890625,0.175293-0.590332,0.4648438-0.902832,0.8686523c-0.3125,0.4042969-0.6430664,0.9199219-0.9907227,1.5478516
			c-0.1835938,0.3310547-0.3359375,0.6943359-0.4570313,1.0878906l-0.293457,0.9658203H3.1240234l1.0668945-3.6630859
			c0.125-0.4404297,0.1879883-0.7055664,0.1879883-0.7954102c0-0.0859375-0.034668-0.1611328-0.1025391-0.2255859
			c-0.0688477-0.0639648-0.1538086-0.0961914-0.2553711-0.0961914c-0.046875,0-0.1289063,0.0078125-0.2460938,0.0234375
			l-0.2226563,0.034668l-0.0351563-0.2104492L5.5454102,106.5885391z"/>
	</g>
	<g>
		<path d="M11.9326172,107.4430313h6.1552734v0.5678711h-6.1552734V107.4430313z M11.9326172,109.6251602h6.1552734v0.5791016
			h-6.1552734V109.6251602z"/>
	</g>
</g>
<g>
	<g>
		<path d="M21.7148438,87.3268204c0.2255859-0.5341797,0.5107422-0.9467773,0.8564453-1.2373047
			c0.3447266-0.2905273,0.7744141-0.4360352,1.2880859-0.4360352c0.6357422,0,1.1230469,0.2070313,1.4619141,0.6201172
			c0.2568359,0.3085938,0.3857422,0.6381836,0.3857422,0.9892578c0,0.5771484-0.3623047,1.1738281-1.0869141,1.7900391
			c0.4863281,0.1914063,0.8554688,0.4643555,1.1044922,0.8198242c0.2490234,0.3544922,0.3740234,0.7714844,0.3740234,1.2519531
			c0,0.6865234-0.2177734,1.28125-0.6542969,1.7841797c-0.5693359,0.6552734-1.3935547,0.9833984-2.4726563,0.9833984
			c-0.5341797,0-0.8974609-0.0664063-1.0908203-0.1992188c-0.1923828-0.1328125-0.2890625-0.2753906-0.2890625-0.4267578
			c0-0.1132813,0.0458984-0.2128906,0.1376953-0.2988281c0.0908203-0.0859375,0.2011719-0.1289063,0.3300781-0.1289063
			c0.0966797,0,0.1962891,0.015625,0.2978516,0.046875c0.0664063,0.0195313,0.2167969,0.0908203,0.4501953,0.2138672
			s0.3955078,0.1962891,0.4853516,0.2197266c0.1435547,0.0429688,0.2978516,0.0644531,0.4619141,0.0644531
			c0.3974609,0,0.7431641-0.1542969,1.0371094-0.4628906c0.2949219-0.3076172,0.4414063-0.6728516,0.4414063-1.09375
			c0-0.3085938-0.0683594-0.6083984-0.2041016-0.9013672c-0.1015625-0.21875-0.2128906-0.3837891-0.3339844-0.4970703
			c-0.1669922-0.15625-0.3974609-0.2978516-0.6894531-0.4248047c-0.2919922-0.1259766-0.5898438-0.1894531-0.8945313-0.1894531
			h-0.1865234v-0.1757813c0.3076172-0.0390625,0.6162109-0.1503906,0.9257813-0.3334961
			c0.3105469-0.1835938,0.5351563-0.4038086,0.6757813-0.6611328c0.140625-0.2578125,0.2099609-0.5405273,0.2099609-0.8486328
			c0-0.4018555-0.125-0.7265625-0.3769531-0.9741211c-0.2509766-0.2475586-0.5634766-0.371582-0.9384766-0.371582
			c-0.6035156,0-1.1083984,0.3237305-1.5136719,0.9711914L21.7148438,87.3268204z"/>
	</g>
	<g>
		<path d="M5.9672852,88.4562149l-0.7773438,2.6625977c0.7290039-1.0888672,1.2871094-1.8041992,1.6748047-2.1474609
			s0.7607422-0.5151367,1.1196289-0.5151367c0.1948242,0,0.3554688,0.0644531,0.4824219,0.1933594
			c0.1264648,0.128418,0.1899414,0.2963867,0.1899414,0.5029297c0,0.2338867-0.0566406,0.5463867-0.1699219,0.9360352
			l-0.7128906,2.4638672c-0.0820313,0.2841797-0.1230469,0.4580078-0.1230469,0.5205078
			c0,0.0546875,0.015625,0.1005859,0.046875,0.1376953s0.0644531,0.0556641,0.0996094,0.0556641
			c0.046875,0,0.1030273-0.0253906,0.1694336-0.0761719c0.206543-0.1640625,0.4326172-0.4140625,0.6782227-0.7490234
			l0.1811523,0.1113281c-0.3623047,0.5185547-0.7055664,0.8886719-1.0288086,1.1113281
			c-0.2260742,0.1523438-0.4287109,0.2285156-0.6079102,0.2285156c-0.1445313,0-0.2592773-0.0439453-0.3452148-0.1318359
			c-0.0854492-0.0878906-0.128418-0.2060547-0.128418-0.3544922c0-0.1865234,0.065918-0.5087891,0.1987305-0.9648438
			l0.6782227-2.3525391c0.0854492-0.2919922,0.128418-0.5205078,0.128418-0.6845703
			c0-0.0776367-0.0253906-0.1411133-0.0761719-0.1899414c-0.050293-0.0488281-0.112793-0.0732422-0.1870117-0.0732422
			c-0.1088867,0-0.2397461,0.046875-0.3916016,0.140625c-0.2885742,0.175293-0.5883789,0.4648438-0.9003906,0.8686523
			c-0.3115234,0.4042969-0.6411133,0.9199219-0.987793,1.5478516c-0.1831055,0.3310547-0.3349609,0.6943359-0.4560547,1.0878906
			l-0.2919922,0.9658203H3.5532227l1.0639648-3.6630859c0.1245117-0.4404297,0.1870117-0.7055664,0.1870117-0.7954102
			c0-0.0859375-0.0341797-0.1611328-0.1025391-0.2255859c-0.0678711-0.0639648-0.152832-0.0961914-0.2539063-0.0961914
			c-0.046875,0-0.1289063,0.0078125-0.2456055,0.0234375l-0.222168,0.034668l-0.0351563-0.2104492L5.9672852,88.4562149z"/>
	</g>
	<g>
		<path d="M12.3383789,89.3107071h6.1381836v0.5678711h-6.1381836V89.3107071z M12.3383789,91.492836h6.1381836v0.5791016
			h-6.1381836V91.492836z"/>
	</g>
</g>
<g>
	<g>
		<path d="M27.2636719,73.742836v0.8310547h-1.0673828v2.0947266h-0.9667969v-2.0947266h-3.3652344v-0.7490234l3.6875-5.2543945
			h0.6445313v5.1723633H27.2636719z M25.2294922,73.742836v-3.9375l-2.7910156,3.9375H25.2294922z"/>
	</g>
	<g>
		<path d="M6.1313477,71.3732071l-0.7797852,2.6625977c0.730957-1.0888672,1.2905273-1.8041992,1.6796875-2.1474609
			c0.3886719-0.3432617,0.7631836-0.5151367,1.1225586-0.5151367c0.1953125,0,0.3564453,0.0644531,0.4838867,0.1933594
			c0.1269531,0.128418,0.1904297,0.2963867,0.1904297,0.5029297c0,0.2338867-0.0566406,0.5463867-0.1699219,0.9360352
			l-0.715332,2.4638672c-0.0820313,0.2841797-0.1230469,0.4580078-0.1230469,0.5205078
			c0,0.0546875,0.015625,0.1005859,0.046875,0.1376953s0.0644531,0.0556641,0.0996094,0.0556641
			c0.046875,0,0.1035156-0.0253906,0.1699219-0.0761719c0.2070313-0.1640625,0.434082-0.4140625,0.6801758-0.7490234
			l0.1816406,0.1113281c-0.3632813,0.5185547-0.7075195,0.8886719-1.0317383,1.1113281
			c-0.2265625,0.1523438-0.4301758,0.2285156-0.6098633,0.2285156c-0.1445313,0-0.2597656-0.0439453-0.3457031-0.1318359
			s-0.1289063-0.2060547-0.1289063-0.3544922c0-0.1865234,0.0664063-0.5087891,0.1992188-0.9648438l0.6801758-2.3525391
			c0.0859375-0.2919922,0.1289063-0.5205078,0.1289063-0.6845703c0-0.0776367-0.0253906-0.1411133-0.0761719-0.1899414
			s-0.1137695-0.0732422-0.1875-0.0732422c-0.1098633,0-0.2407227,0.046875-0.3930664,0.140625
			c-0.2890625,0.175293-0.590332,0.4648438-0.902832,0.8686523c-0.3125,0.4042969-0.6430664,0.9199219-0.9907227,1.5478516
			C5.15625,74.945961,5.0039063,75.3092422,4.8828125,75.7027969l-0.293457,0.9658203H3.7099609l1.0668945-3.6630859
			c0.125-0.4404297,0.1879883-0.7055664,0.1879883-0.7954102c0-0.0859375-0.034668-0.1611328-0.1025391-0.2255859
			c-0.0688477-0.0639648-0.1538086-0.0961914-0.2553711-0.0961914c-0.046875,0-0.1289063,0.0078125-0.2460938,0.0234375
			l-0.2226563,0.034668l-0.0351563-0.2104492L6.1313477,71.3732071z"/>
	</g>
	<g>
		<path d="M12.5185547,72.2276993h6.1552734v0.5678711h-6.1552734V72.2276993z M12.5185547,74.4098282h6.1552734v0.5791016
			h-6.1552734V74.4098282z"/>
	</g>
</g>
<g>
	<g>
		<path d="M29.109375,1.7340494l-2.0078125,6.9628911c-0.0981445,0.347168-0.1469727,0.5595703-0.1469727,0.6376953
			c0,0.0585938,0.0185547,0.1074219,0.0556641,0.1464844s0.0830078,0.0581055,0.1381836,0.0581055
			c0.0742188,0,0.1542969-0.0327148,0.2407227-0.0991211c0.2036133-0.1601563,0.4169922-0.4077148,0.6401367-0.7431641
			l0.1757813,0.1811523c-0.371582,0.5229492-0.7143555,0.8876953-1.0273438,1.0942383
			c-0.230957,0.1484375-0.4501953,0.2226563-0.6577148,0.2226563c-0.1489258,0-0.2729492-0.0507813-0.3725586-0.1523438
			c-0.1000977-0.1015625-0.1499023-0.2182617-0.1499023-0.3510742c0-0.140625,0.0625-0.4291992,0.1879883-0.8657227
			l1.5908203-5.4887695c0.1293945-0.4482422,0.1938477-0.7060547,0.1938477-0.7724609
			c0-0.0932617-0.0371094-0.1704102-0.1113281-0.230957c-0.074707-0.0605469-0.1899414-0.0908203-0.3466797-0.0908203
			c-0.0898438,0-0.2270508,0.0136719-0.4106445,0.0410156V2.0675457L29.109375,1.7340494z"/>
	</g>
	<g>
		<path d="M32.5087891,5.6134439h6.1650391v0.5673828h-6.1650391V5.6134439z M32.5087891,7.7955728h6.1650391v0.5795903h-6.1650391
			V7.7955728z"/>
	</g>
</g>
<g>
</g>
<g>
</g>
<g>
</g>
<g>
</g>
<g>
</g>
</svg>
