<?xml version="1.0" encoding="UTF-8"?>
<svg xmlns="http://www.w3.org/2000/svg" xmlns:xlink="http://www.w3.org/1999/xlink" width="448.98pt" height="397.02pt" viewBox="0 0 448.98 397.02" version="1.1">
<g id="surface1">
<path style=" stroke:none;fill-rule:nonzero;fill:rgb(0%,0%,0%);fill-opacity:1;" d="M 65.804688 321.496094 L 399.691406 321.496094 L 399.691406 323.59375 L 65.804688 323.59375 C 65.226562 323.59375 64.757812 323.121094 64.757812 322.542969 C 64.757812 321.960938 65.226562 321.496094 65.804688 321.496094 Z M 428.996094 322.542969 L 399.664062 314.152344 L 399.664062 330.933594 Z M 428.996094 322.542969 "/>
<path style=" stroke:none;fill-rule:nonzero;fill:rgb(0%,0%,0%);fill-opacity:1;" d="M 64.757812 322.542969 L 64.757812 56.753906 L 66.851562 56.753906 L 66.851562 322.542969 C 66.851562 323.121094 66.382812 323.59375 65.804688 323.59375 C 65.226562 323.59375 64.757812 323.121094 64.757812 322.542969 Z M 65.804688 27.410156 L 57.421875 56.78125 L 74.183594 56.78125 Z M 65.804688 27.410156 "/>
<path style=" stroke:none;fill-rule:evenodd;fill:rgb(0%,0%,0%);fill-opacity:1;" d="M 48.441406 353.121094 C 47.988281 354.890625 47.257812 356.597656 46.246094 358.246094 C 45.238281 359.894531 43.964844 361.398438 42.433594 362.765625 C 41.054688 364 39.542969 364.976562 37.90625 365.703125 C 36.265625 366.429688 34.625 366.792969 32.984375 366.792969 C 31.324219 366.792969 29.855469 366.425781 28.566406 365.695312 C 27.28125 364.960938 26.253906 363.972656 25.488281 362.730469 C 24.648438 361.351562 24.164062 359.824219 24.039062 358.152344 C 23.988281 357.75 23.964844 357.347656 23.964844 356.945312 C 23.964844 355.6875 24.128906 354.390625 24.453125 353.046875 C 24.929688 351.253906 25.667969 349.515625 26.667969 347.824219 C 27.664062 346.136719 28.941406 344.605469 30.496094 343.238281 C 31.878906 342.007812 33.386719 341.015625 35.027344 340.265625 C 36.664062 339.515625 38.316406 339.140625 39.984375 339.140625 C 41.644531 339.140625 43.109375 339.519531 44.382812 340.273438 C 45.65625 341.03125 46.675781 342.03125 47.441406 343.273438 C 48.28125 344.65625 48.777344 346.191406 48.929688 347.886719 C 48.953125 348.300781 48.96875 348.710938 48.96875 349.113281 C 48.96875 350.417969 48.792969 351.753906 48.441406 353.121094 Z M 44.636719 343.898438 C 44.222656 342.871094 43.601562 342.039062 42.773438 341.398438 C 41.945312 340.757812 40.925781 340.441406 39.722656 340.4375 C 38.53125 340.441406 37.34375 340.765625 36.164062 341.417969 C 34.984375 342.070312 33.929688 342.917969 33 343.949219 C 31.832031 345.210938 30.910156 346.570312 30.234375 348.042969 C 29.554688 349.515625 29.027344 351.003906 28.652344 352.515625 C 28.214844 354.164062 27.941406 355.769531 27.84375 357.328125 C 27.816406 357.625 27.804688 357.917969 27.804688 358.207031 C 27.804688 359.429688 28.007812 360.625 28.40625 361.796875 C 28.796875 362.832031 29.394531 363.703125 30.195312 364.40625 C 31 365.105469 32.003906 365.457031 33.207031 365.457031 C 34.449219 365.457031 35.667969 365.097656 36.851562 364.386719 C 38.039062 363.671875 39.101562 362.789062 40.042969 361.742188 C 41.261719 360.328125 42.207031 358.832031 42.886719 357.257812 C 43.566406 355.683594 44.117188 354.078125 44.542969 352.441406 C 44.933594 350.917969 45.175781 349.417969 45.277344 347.941406 L 45.277344 347.300781 C 45.277344 346.082031 45.066406 344.945312 44.636719 343.898438 Z M 44.636719 343.898438 "/>
<path style=" stroke:none;fill-rule:evenodd;fill:rgb(0%,0%,0%);fill-opacity:1;" d="M 45.84375 50.945312 C 45.554688 52.007812 45.128906 53.058594 44.570312 54.097656 C 44.011719 55.132812 43.289062 56.089844 42.394531 56.96875 C 41.667969 57.699219 40.84375 58.3125 39.921875 58.808594 C 39 59.300781 38.039062 59.546875 37.050781 59.546875 C 36.234375 59.546875 35.5625 59.324219 35.035156 58.871094 C 34.507812 58.421875 34.175781 58.054688 34.035156 57.773438 L 32.472656 63.777344 C 32.398438 64.082031 32.355469 64.308594 32.34375 64.453125 C 32.34375 64.574219 32.367188 64.652344 32.417969 64.691406 C 32.570312 64.789062 32.859375 64.851562 33.292969 64.875 C 33.726562 64.898438 34.210938 64.910156 34.75 64.910156 C 35.078125 64.910156 35.242188 65.070312 35.242188 65.386719 L 35.242188 65.515625 L 35.167969 65.863281 C 35.027344 66.226562 34.785156 66.40625 34.433594 66.394531 C 33.226562 66.34375 32.035156 66.308594 30.855469 66.285156 L 30.308594 66.285156 C 29.28125 66.285156 28.238281 66.320312 27.183594 66.394531 C 26.859375 66.394531 26.695312 66.234375 26.695312 65.917969 L 26.695312 65.789062 L 26.769531 65.441406 C 26.910156 65.074219 27.152344 64.898438 27.503906 64.910156 C 27.945312 64.910156 28.308594 64.898438 28.597656 64.875 C 28.882812 64.851562 29.089844 64.792969 29.214844 64.710938 C 29.34375 64.648438 29.476562 64.3125 29.613281 63.703125 L 33.980469 46.792969 C 34.179688 46 34.28125 45.316406 34.28125 44.742188 L 34.28125 44.304688 C 34.21875 43.71875 33.925781 43.425781 33.398438 43.425781 C 32.84375 43.425781 32.382812 43.871094 32.011719 44.761719 C 31.640625 45.652344 31.28125 46.8125 30.929688 48.238281 C 30.792969 48.570312 30.558594 48.738281 30.234375 48.75 L 29.800781 48.75 C 29.5 48.75 29.347656 48.601562 29.347656 48.292969 L 29.347656 48.164062 C 29.5 47.59375 29.667969 46.96875 29.855469 46.289062 C 30.046875 45.613281 30.296875 44.972656 30.609375 44.367188 C 30.925781 43.765625 31.320312 43.253906 31.796875 42.832031 C 32.273438 42.410156 32.867188 42.199219 33.585938 42.199219 C 34.539062 42.199219 35.300781 42.472656 35.871094 43.015625 C 36.445312 43.558594 36.78125 44.101562 36.878906 44.652344 C 37.371094 44.089844 38.023438 43.542969 38.847656 43.003906 C 39.671875 42.46875 40.539062 42.199219 41.453125 42.199219 C 42.421875 42.199219 43.246094 42.453125 43.929688 42.960938 C 44.613281 43.464844 45.144531 44.097656 45.523438 44.851562 C 45.972656 45.757812 46.210938 46.734375 46.238281 47.78125 L 46.238281 48.035156 C 46.238281 48.976562 46.105469 49.945312 45.84375 50.945312 Z M 43.074219 45.382812 C 42.960938 44.796875 42.75 44.328125 42.441406 43.964844 C 42.136719 43.605469 41.730469 43.425781 41.226562 43.425781 C 40.652344 43.425781 40.066406 43.621094 39.46875 44.011719 C 38.871094 44.402344 38.324219 44.894531 37.820312 45.492188 C 37.433594 45.992188 37.09375 46.464844 36.804688 46.902344 L 34.734375 54.898438 C 34.785156 55.15625 34.832031 55.402344 34.875 55.632812 C 34.917969 55.863281 34.976562 56.089844 35.054688 56.308594 C 35.242188 56.910156 35.515625 57.398438 35.871094 57.773438 C 36.230469 58.152344 36.703125 58.339844 37.292969 58.339844 C 37.820312 58.339844 38.34375 58.148438 38.855469 57.757812 C 39.371094 57.367188 39.839844 56.878906 40.269531 56.289062 C 40.871094 55.472656 41.324219 54.605469 41.625 53.683594 C 41.925781 52.761719 42.203125 51.820312 42.453125 50.855469 C 42.703125 49.855469 42.925781 48.894531 43.113281 47.964844 C 43.1875 47.527344 43.222656 47.097656 43.222656 46.683594 C 43.222656 46.246094 43.175781 45.8125 43.074219 45.382812 Z M 43.074219 45.382812 "/>
<path style=" stroke:none;fill-rule:evenodd;fill:rgb(0%,0%,0%);fill-opacity:1;" d="M 403.34375 340.953125 C 403.269531 341.316406 403.042969 341.5 402.664062 341.5 C 402.265625 341.5 401.882812 341.542969 401.515625 341.636719 C 401.15625 341.730469 400.800781 341.882812 400.453125 342.105469 C 400.109375 342.324219 399.792969 342.589844 399.503906 342.902344 C 399.214844 343.210938 398.949219 343.5625 398.710938 343.949219 L 384.984375 366.296875 C 384.796875 366.640625 384.507812 366.804688 384.121094 366.792969 L 383.761719 366.792969 C 383.296875 366.792969 383.070312 366.597656 383.085938 366.207031 L 380.730469 342.835938 C 380.679688 342.519531 380.628906 342.273438 380.582031 342.097656 C 380.53125 341.917969 380.453125 341.792969 380.355469 341.71875 C 380.179688 341.621094 379.902344 341.5625 379.515625 341.535156 C 379.132812 341.515625 378.699219 341.5 378.207031 341.5 C 378.019531 341.5 377.882812 341.441406 377.792969 341.316406 C 377.71875 341.242188 377.679688 341.152344 377.679688 341.039062 C 377.679688 340.96875 377.699219 340.902344 377.738281 340.839844 L 377.792969 340.566406 C 377.832031 340.40625 377.917969 340.273438 378.046875 340.164062 C 378.179688 340.054688 378.339844 340 378.527344 339.996094 C 379.734375 340.070312 380.953125 340.109375 382.179688 340.109375 C 382.371094 340.109375 382.570312 340.097656 382.78125 340.070312 C 384.238281 340.070312 385.695312 340.050781 387.152344 339.996094 C 387.328125 340 387.484375 340.058594 387.621094 340.183594 C 387.671875 340.28125 387.699219 340.371094 387.699219 340.457031 C 387.699219 340.53125 387.679688 340.597656 387.640625 340.65625 L 387.585938 340.933594 C 387.546875 341.105469 387.457031 341.242188 387.3125 341.34375 C 387.167969 341.449219 387.011719 341.5 386.851562 341.5 C 386.410156 341.5 386.007812 341.519531 385.644531 341.554688 C 385.28125 341.59375 384.925781 341.691406 384.574219 341.847656 C 384.359375 341.957031 384.257812 342.140625 384.269531 342.394531 L 384.269531 342.523438 C 384.710938 345.769531 385.0625 349.03125 385.324219 352.308594 C 385.589844 355.582031 385.871094 358.683594 386.171875 361.613281 L 397.28125 343.511719 C 397.445312 343.257812 397.546875 342.988281 397.582031 342.707031 L 397.582031 342.613281 C 397.582031 342.433594 397.539062 342.269531 397.449219 342.121094 C 397.175781 341.707031 396.660156 341.5 395.90625 341.5 C 395.582031 341.5 395.417969 341.335938 395.417969 341.003906 L 395.417969 340.875 L 395.492188 340.546875 C 395.632812 340.183594 395.875 340 396.226562 339.996094 C 397.332031 340.050781 398.441406 340.070312 399.558594 340.070312 C 399.710938 340.097656 399.855469 340.109375 399.992188 340.109375 C 400.945312 340.109375 401.925781 340.070312 402.929688 339.996094 C 403.269531 340 403.449219 340.164062 403.476562 340.492188 L 403.476562 340.636719 Z M 403.34375 340.953125 "/>
<path style="fill:none;stroke-width:15;stroke-linecap:round;stroke-linejoin:round;stroke:rgb(0%,0%,0%);stroke-opacity:1;stroke-miterlimit:10;" d="M 667.881743 1106.98436 C 1185.744391 1508.120127 1521.793038 721.266417 1823.320305 1621.260984 " transform="matrix(0.186252,0,0,-0.186472,0,401.0979)"/>
<path style="fill:none;stroke-width:15;stroke-linecap:round;stroke-linejoin:round;stroke:rgb(0%,0%,0%);stroke-opacity:1;stroke-dasharray:120,60;stroke-miterlimit:10;" d="M 667.881743 1105.015235 L 667.881743 421.268228 " transform="matrix(0.186252,0,0,-0.186472,0,401.0979)"/>
<path style="fill:none;stroke-width:15;stroke-linecap:round;stroke-linejoin:round;stroke:rgb(0%,0%,0%);stroke-opacity:1;stroke-dasharray:120,60;stroke-miterlimit:10;" d="M 1823.299332 1628.131971 L 1823.299332 421.268228 " transform="matrix(0.186252,0,0,-0.186472,0,401.0979)"/>
<path style=" stroke:none;fill-rule:evenodd;fill:rgb(0%,0%,0%);fill-opacity:1;" d="M 133.125 340.730469 C 133.050781 341.101562 132.828125 341.28125 132.449219 341.277344 C 132.046875 341.28125 131.664062 341.328125 131.300781 341.421875 C 130.9375 341.511719 130.582031 341.667969 130.238281 341.886719 C 129.890625 342.105469 129.574219 342.371094 129.285156 342.679688 C 128.996094 342.996094 128.734375 343.34375 128.496094 343.734375 L 114.769531 366.078125 C 114.582031 366.421875 114.292969 366.585938 113.902344 366.574219 L 113.546875 366.574219 C 113.082031 366.574219 112.855469 366.378906 112.867188 365.988281 L 110.515625 342.617188 C 110.464844 342.300781 110.414062 342.054688 110.363281 341.875 C 110.3125 341.699219 110.238281 341.574219 110.136719 341.5 C 109.960938 341.40625 109.683594 341.34375 109.300781 341.320312 C 108.917969 341.292969 108.480469 341.28125 107.992188 341.277344 C 107.804688 341.28125 107.664062 341.21875 107.578125 341.097656 C 107.5 341.023438 107.464844 340.933594 107.464844 340.824219 C 107.464844 340.75 107.484375 340.683594 107.519531 340.621094 L 107.578125 340.347656 C 107.617188 340.191406 107.699219 340.054688 107.832031 339.945312 C 107.964844 339.835938 108.125 339.78125 108.3125 339.78125 C 109.515625 339.855469 110.734375 339.890625 111.964844 339.886719 C 112.152344 339.890625 112.355469 339.875 112.566406 339.855469 C 114.023438 339.855469 115.480469 339.828125 116.933594 339.78125 C 117.113281 339.78125 117.269531 339.84375 117.40625 339.960938 C 117.457031 340.058594 117.480469 340.152344 117.480469 340.238281 C 117.480469 340.3125 117.464844 340.378906 117.425781 340.441406 L 117.367188 340.710938 C 117.332031 340.882812 117.238281 341.023438 117.09375 341.125 C 116.953125 341.230469 116.796875 341.28125 116.632812 341.277344 C 116.195312 341.28125 115.792969 341.300781 115.429688 341.335938 C 115.066406 341.371094 114.707031 341.46875 114.355469 341.628906 C 114.144531 341.738281 114.042969 341.921875 114.054688 342.179688 L 114.054688 342.304688 C 114.492188 345.554688 114.847656 348.8125 115.109375 352.089844 C 115.371094 355.363281 115.65625 358.464844 115.957031 361.394531 L 127.066406 343.292969 C 127.226562 343.039062 127.328125 342.769531 127.367188 342.488281 L 127.367188 342.398438 C 127.367188 342.214844 127.324219 342.050781 127.234375 341.902344 C 126.957031 341.488281 126.445312 341.28125 125.691406 341.277344 C 125.363281 341.28125 125.199219 341.117188 125.199219 340.785156 L 125.199219 340.660156 L 125.277344 340.328125 C 125.414062 339.960938 125.660156 339.78125 126.011719 339.78125 C 127.113281 339.828125 128.226562 339.855469 129.34375 339.855469 C 129.492188 339.875 129.640625 339.890625 129.777344 339.886719 C 130.730469 339.890625 131.707031 339.855469 132.714844 339.78125 C 133.050781 339.78125 133.234375 339.945312 133.257812 340.273438 L 133.257812 340.421875 Z M 133.125 340.730469 "/>
<path style=" stroke:none;fill-rule:evenodd;fill:rgb(0%,0%,0%);fill-opacity:1;" d="M 138.996094 371.066406 C 137.550781 371.023438 136.140625 371.003906 134.769531 371.003906 C 133.402344 371.003906 131.992188 371.023438 130.542969 371.066406 L 130.542969 370.183594 L 131.359375 370.183594 C 131.617188 370.183594 131.863281 370.179688 132.089844 370.175781 C 132.320312 370.167969 132.535156 370.148438 132.738281 370.121094 C 132.945312 370.097656 133.121094 370.070312 133.269531 370.039062 C 133.398438 370.019531 133.5 369.957031 133.585938 369.851562 C 133.667969 369.746094 133.707031 369.628906 133.707031 369.496094 L 133.707031 357.945312 C 133.3125 358.117188 132.832031 358.25 132.253906 358.335938 C 131.679688 358.425781 131.050781 358.46875 130.367188 358.46875 L 130.367188 357.597656 C 131.3125 357.597656 132.183594 357.5 132.980469 357.296875 C 133.78125 357.097656 134.472656 356.71875 135.054688 356.164062 L 135.421875 356.164062 C 135.679688 356.164062 135.808594 356.277344 135.808594 356.5 L 135.808594 369.496094 C 135.808594 369.632812 135.847656 369.753906 135.929688 369.855469 C 136.007812 369.957031 136.121094 370.019531 136.269531 370.039062 C 136.398438 370.070312 136.558594 370.097656 136.753906 370.121094 C 136.953125 370.148438 137.175781 370.167969 137.421875 370.175781 C 137.667969 370.179688 137.914062 370.183594 138.148438 370.183594 L 138.996094 370.183594 Z M 138.996094 371.066406 "/>
<path style=" stroke:none;fill-rule:evenodd;fill:rgb(0%,0%,0%);fill-opacity:1;" d="M 347.460938 340.730469 C 347.386719 341.101562 347.160156 341.28125 346.78125 341.277344 C 346.382812 341.28125 346 341.328125 345.632812 341.421875 C 345.269531 341.511719 344.914062 341.667969 344.570312 341.886719 C 344.226562 342.105469 343.910156 342.371094 343.621094 342.679688 C 343.332031 342.996094 343.066406 343.34375 342.828125 343.734375 L 329.101562 366.078125 C 328.914062 366.421875 328.625 366.585938 328.238281 366.574219 L 327.878906 366.574219 C 327.414062 366.574219 327.1875 366.378906 327.203125 365.988281 L 324.847656 342.617188 C 324.796875 342.300781 324.746094 342.054688 324.699219 341.875 C 324.648438 341.699219 324.570312 341.574219 324.472656 341.5 C 324.296875 341.40625 324.015625 341.34375 323.632812 341.320312 C 323.25 341.292969 322.8125 341.28125 322.324219 341.277344 C 322.136719 341.28125 322 341.21875 321.910156 341.097656 C 321.835938 341.023438 321.796875 340.933594 321.796875 340.824219 C 321.796875 340.75 321.816406 340.683594 321.855469 340.621094 L 321.910156 340.347656 C 321.949219 340.191406 322.035156 340.054688 322.164062 339.945312 C 322.296875 339.835938 322.457031 339.78125 322.644531 339.78125 C 323.851562 339.855469 325.070312 339.890625 326.296875 339.886719 C 326.488281 339.890625 326.6875 339.875 326.898438 339.855469 C 328.355469 339.855469 329.8125 339.828125 331.269531 339.78125 C 331.445312 339.78125 331.601562 339.84375 331.738281 339.960938 C 331.789062 340.058594 331.816406 340.152344 331.816406 340.238281 C 331.816406 340.3125 331.796875 340.378906 331.757812 340.441406 L 331.703125 340.710938 C 331.664062 340.882812 331.574219 341.023438 331.429688 341.125 C 331.285156 341.230469 331.128906 341.28125 330.96875 341.277344 C 330.527344 341.28125 330.125 341.300781 329.761719 341.335938 C 329.398438 341.371094 329.042969 341.46875 328.6875 341.628906 C 328.476562 341.738281 328.375 341.921875 328.386719 342.179688 L 328.386719 342.304688 C 328.828125 345.554688 329.179688 348.8125 329.441406 352.089844 C 329.707031 355.363281 329.988281 358.464844 330.289062 361.394531 L 341.398438 343.292969 C 341.5625 343.039062 341.660156 342.769531 341.699219 342.488281 L 341.699219 342.398438 C 341.699219 342.214844 341.65625 342.050781 341.566406 341.902344 C 341.292969 341.488281 340.777344 341.28125 340.023438 341.277344 C 339.695312 341.28125 339.535156 341.117188 339.535156 340.785156 L 339.535156 340.660156 L 339.609375 340.328125 C 339.75 339.960938 339.992188 339.78125 340.34375 339.78125 C 341.449219 339.828125 342.558594 339.855469 343.675781 339.855469 C 343.828125 339.875 343.972656 339.890625 344.109375 339.886719 C 345.0625 339.890625 346.042969 339.855469 347.046875 339.78125 C 347.386719 339.78125 347.566406 339.945312 347.59375 340.273438 L 347.59375 340.421875 Z M 347.460938 340.730469 "/>
<path style=" stroke:none;fill-rule:evenodd;fill:rgb(0%,0%,0%);fill-opacity:1;" d="M 354.207031 371.066406 L 344.59375 371.066406 L 344.59375 370.5 C 344.59375 370.460938 344.617188 370.398438 344.664062 370.316406 L 348.527344 366.566406 C 348.984375 366.117188 349.445312 365.65625 349.914062 365.183594 C 350.382812 364.710938 350.804688 364.230469 351.171875 363.738281 C 351.542969 363.246094 351.835938 362.738281 352.058594 362.214844 C 352.28125 361.695312 352.386719 361.144531 352.386719 360.570312 C 352.386719 360.085938 352.316406 359.632812 352.175781 359.214844 C 352.035156 358.792969 351.828125 358.425781 351.5625 358.105469 C 351.292969 357.789062 350.960938 357.53125 350.558594 357.335938 C 350.15625 357.144531 349.691406 357.046875 349.164062 357.046875 C 348.378906 357.046875 347.683594 357.253906 347.082031 357.675781 C 346.476562 358.097656 346.078125 358.558594 345.882812 359.0625 C 345.84375 359.078125 345.90625 359.085938 346.070312 359.085938 L 346.269531 359.085938 C 346.507812 359.132812 346.710938 359.207031 346.886719 359.304688 C 347.058594 359.40625 347.203125 359.542969 347.324219 359.714844 C 347.441406 359.890625 347.5 360.101562 347.5 360.34375 C 347.5 360.753906 347.351562 361.070312 347.050781 361.289062 C 346.75 361.507812 346.417969 361.617188 346.046875 361.617188 C 345.691406 361.617188 345.363281 361.507812 345.054688 361.289062 C 344.75 361.070312 344.59375 360.753906 344.59375 360.34375 C 344.59375 359.773438 344.71875 359.230469 344.972656 358.714844 C 345.226562 358.203125 345.566406 357.761719 346 357.382812 C 346.433594 357.007812 346.945312 356.710938 347.535156 356.492188 C 348.125 356.273438 348.75 356.164062 349.414062 356.164062 C 350.230469 356.164062 350.980469 356.273438 351.664062 356.488281 C 352.34375 356.703125 352.921875 357.011719 353.40625 357.414062 C 353.886719 357.816406 354.261719 358.285156 354.53125 358.8125 C 354.804688 359.34375 354.9375 359.929688 354.9375 360.570312 C 354.9375 361.28125 354.757812 361.9375 354.394531 362.535156 C 354.035156 363.132812 353.585938 363.679688 353.050781 364.179688 C 352.515625 364.675781 351.945312 365.148438 351.34375 365.589844 C 350.742188 366.027344 350.195312 366.457031 349.707031 366.875 L 346.992188 369.160156 L 350.546875 369.160156 C 351.042969 369.160156 351.503906 369.15625 351.933594 369.148438 C 352.359375 369.144531 352.726562 369.128906 353.023438 369.109375 C 353.324219 369.085938 353.480469 369.074219 353.484375 369.066406 C 353.550781 369.019531 353.609375 368.921875 353.664062 368.78125 C 353.722656 368.636719 353.769531 368.46875 353.816406 368.273438 C 353.867188 368.078125 353.910156 367.878906 353.960938 367.679688 C 354.007812 367.476562 354.046875 367.257812 354.089844 367.015625 L 354.960938 367.015625 Z M 354.207031 371.066406 "/>
<path style=" stroke:none;fill-rule:evenodd;fill:rgb(0%,0%,0%);fill-opacity:1;" d="M 40.964844 196.503906 C 40.675781 197.566406 40.253906 198.617188 39.695312 199.652344 C 39.136719 200.691406 38.410156 201.648438 37.519531 202.523438 C 36.792969 203.257812 35.964844 203.871094 35.042969 204.363281 C 34.121094 204.859375 33.164062 205.105469 32.171875 205.105469 C 31.355469 205.105469 30.683594 204.878906 30.15625 204.429688 C 29.628906 203.976562 29.296875 203.613281 29.160156 203.328125 L 27.597656 209.332031 C 27.519531 209.636719 27.476562 209.863281 27.464844 210.011719 C 27.464844 210.132812 27.492188 210.210938 27.539062 210.246094 C 27.691406 210.347656 27.984375 210.40625 28.414062 210.429688 C 28.847656 210.457031 29.335938 210.46875 29.875 210.46875 C 30.203125 210.46875 30.363281 210.625 30.363281 210.941406 L 30.363281 211.070312 L 30.289062 211.417969 C 30.152344 211.785156 29.90625 211.960938 29.554688 211.949219 C 28.351562 211.902344 27.15625 211.863281 25.976562 211.839844 L 25.429688 211.839844 C 24.402344 211.839844 23.359375 211.875 22.304688 211.949219 C 21.980469 211.949219 21.816406 211.792969 21.816406 211.472656 L 21.816406 211.347656 L 21.890625 210.996094 C 22.03125 210.632812 22.277344 210.457031 22.625 210.46875 C 23.066406 210.46875 23.429688 210.457031 23.71875 210.429688 C 24.007812 210.40625 24.214844 210.351562 24.339844 210.265625 C 24.464844 210.207031 24.597656 209.871094 24.734375 209.257812 L 29.101562 192.347656 C 29.304688 191.558594 29.402344 190.875 29.402344 190.300781 L 29.402344 189.859375 C 29.34375 189.277344 29.046875 188.984375 28.519531 188.980469 C 27.964844 188.984375 27.503906 189.429688 27.136719 190.320312 C 26.765625 191.210938 26.40625 192.367188 26.054688 193.796875 C 25.914062 194.125 25.683594 194.296875 25.355469 194.308594 L 24.921875 194.308594 C 24.621094 194.308594 24.46875 194.15625 24.46875 193.851562 L 24.46875 193.722656 C 24.621094 193.148438 24.792969 192.523438 24.980469 191.847656 C 25.167969 191.171875 25.421875 190.53125 25.734375 189.925781 C 26.046875 189.320312 26.441406 188.808594 26.917969 188.386719 C 27.394531 187.96875 27.992188 187.757812 28.707031 187.757812 C 29.660156 187.757812 30.425781 188.027344 30.996094 188.570312 C 31.566406 189.113281 31.902344 189.660156 32 190.207031 C 32.492188 189.648438 33.148438 189.101562 33.96875 188.5625 C 34.792969 188.027344 35.660156 187.757812 36.578125 187.757812 C 37.542969 187.757812 38.371094 188.011719 39.054688 188.515625 C 39.738281 189.023438 40.269531 189.65625 40.644531 190.410156 C 41.097656 191.3125 41.335938 192.289062 41.359375 193.335938 L 41.359375 193.59375 C 41.359375 194.535156 41.226562 195.503906 40.964844 196.503906 Z M 38.195312 190.941406 C 38.085938 190.355469 37.875 189.882812 37.566406 189.523438 C 37.257812 189.164062 36.855469 188.984375 36.351562 188.980469 C 35.773438 188.984375 35.1875 189.179688 34.59375 189.570312 C 33.996094 189.960938 33.445312 190.453125 32.941406 191.050781 C 32.554688 191.550781 32.214844 192.019531 31.925781 192.460938 L 29.855469 200.457031 C 29.90625 200.714844 29.953125 200.957031 30 201.191406 C 30.042969 201.421875 30.101562 201.648438 30.175781 201.867188 C 30.363281 202.464844 30.636719 202.953125 30.996094 203.332031 C 31.351562 203.710938 31.828125 203.898438 32.417969 203.898438 C 32.945312 203.898438 33.464844 203.703125 33.980469 203.3125 C 34.492188 202.921875 34.964844 202.433594 35.390625 201.847656 C 35.996094 201.03125 36.445312 200.164062 36.746094 199.242188 C 37.050781 198.320312 37.324219 197.378906 37.574219 196.414062 C 37.828125 195.414062 38.046875 194.449219 38.234375 193.519531 C 38.308594 193.082031 38.347656 192.65625 38.347656 192.238281 C 38.347656 191.800781 38.296875 191.367188 38.195312 190.941406 Z M 38.195312 190.941406 "/>
<path style=" stroke:none;fill-rule:evenodd;fill:rgb(0%,0%,0%);fill-opacity:1;" d="M 51.589844 210 C 50.144531 209.960938 48.734375 209.9375 47.363281 209.9375 C 45.996094 209.9375 44.585938 209.960938 43.136719 210 L 43.136719 209.117188 L 43.953125 209.117188 C 44.210938 209.121094 44.457031 209.117188 44.683594 209.109375 C 44.910156 209.101562 45.128906 209.085938 45.332031 209.058594 C 45.539062 209.03125 45.714844 209.003906 45.863281 208.976562 C 45.988281 208.957031 46.09375 208.894531 46.175781 208.785156 C 46.261719 208.679688 46.300781 208.5625 46.300781 208.433594 L 46.300781 196.882812 C 45.90625 197.054688 45.421875 197.183594 44.847656 197.273438 C 44.273438 197.363281 43.644531 197.40625 42.960938 197.40625 L 42.960938 196.535156 C 43.902344 196.535156 44.777344 196.433594 45.574219 196.230469 C 46.375 196.03125 47.066406 195.652344 47.648438 195.097656 L 48.011719 195.097656 C 48.273438 195.097656 48.402344 195.210938 48.402344 195.4375 L 48.402344 208.433594 C 48.402344 208.570312 48.441406 208.6875 48.519531 208.792969 C 48.601562 208.894531 48.714844 208.957031 48.863281 208.976562 C 48.988281 209.003906 49.152344 209.03125 49.347656 209.058594 C 49.546875 209.085938 49.765625 209.101562 50.015625 209.109375 C 50.261719 209.117188 50.503906 209.121094 50.742188 209.117188 L 51.589844 209.117188 Z M 51.589844 210 "/>
<path style=" stroke:none;fill-rule:evenodd;fill:rgb(0%,0%,0%);fill-opacity:1;" d="M 40.097656 98.953125 C 39.808594 100.015625 39.386719 101.066406 38.828125 102.101562 C 38.269531 103.140625 37.542969 104.097656 36.652344 104.976562 C 35.921875 105.707031 35.097656 106.320312 34.175781 106.816406 C 33.253906 107.308594 32.296875 107.554688 31.304688 107.554688 C 30.488281 107.554688 29.816406 107.332031 29.289062 106.878906 C 28.761719 106.429688 28.429688 106.0625 28.292969 105.78125 L 26.730469 111.785156 C 26.652344 112.089844 26.609375 112.3125 26.597656 112.460938 C 26.597656 112.582031 26.621094 112.660156 26.671875 112.699219 C 26.824219 112.796875 27.113281 112.859375 27.546875 112.882812 C 27.980469 112.90625 28.46875 112.917969 29.007812 112.917969 C 29.332031 112.917969 29.496094 113.078125 29.496094 113.394531 L 29.496094 113.523438 L 29.421875 113.871094 C 29.285156 114.234375 29.039062 114.414062 28.6875 114.398438 C 27.484375 114.351562 26.289062 114.316406 25.109375 114.289062 L 24.5625 114.289062 C 23.535156 114.289062 22.492188 114.328125 21.4375 114.398438 C 21.113281 114.398438 20.949219 114.242188 20.949219 113.925781 L 20.949219 113.796875 L 21.023438 113.449219 C 21.164062 113.082031 21.410156 112.90625 21.757812 112.917969 C 22.199219 112.917969 22.5625 112.90625 22.851562 112.882812 C 23.140625 112.859375 23.34375 112.800781 23.472656 112.71875 C 23.597656 112.65625 23.730469 112.320312 23.867188 111.710938 L 28.234375 94.800781 C 28.4375 94.007812 28.535156 93.324219 28.535156 92.75 L 28.535156 92.3125 C 28.472656 91.726562 28.179688 91.433594 27.652344 91.433594 C 27.097656 91.433594 26.636719 91.878906 26.265625 92.769531 C 25.898438 93.660156 25.539062 94.820312 25.183594 96.246094 C 25.046875 96.578125 24.816406 96.746094 24.488281 96.757812 L 24.054688 96.757812 C 23.753906 96.757812 23.601562 96.605469 23.601562 96.300781 L 23.601562 96.171875 C 23.753906 95.601562 23.921875 94.976562 24.113281 94.296875 C 24.300781 93.621094 24.550781 92.980469 24.867188 92.375 C 25.179688 91.773438 25.574219 91.257812 26.050781 90.839844 C 26.527344 90.417969 27.125 90.207031 27.839844 90.207031 C 28.792969 90.207031 29.554688 90.480469 30.128906 91.023438 C 30.699219 91.566406 31.035156 92.109375 31.132812 92.660156 C 31.625 92.097656 32.28125 91.550781 33.101562 91.011719 C 33.925781 90.476562 34.792969 90.207031 35.710938 90.207031 C 36.675781 90.207031 37.503906 90.460938 38.1875 90.96875 C 38.871094 91.472656 39.398438 92.105469 39.777344 92.859375 C 40.230469 93.761719 40.46875 94.742188 40.492188 95.789062 L 40.492188 96.042969 C 40.492188 96.984375 40.359375 97.953125 40.097656 98.953125 Z M 37.328125 93.390625 C 37.214844 92.804688 37.007812 92.332031 36.699219 91.972656 C 36.390625 91.613281 35.988281 91.433594 35.484375 91.433594 C 34.90625 91.433594 34.320312 91.628906 33.722656 92.019531 C 33.128906 92.410156 32.578125 92.902344 32.074219 93.5 C 31.6875 94 31.347656 94.472656 31.058594 94.910156 L 28.988281 102.90625 C 29.039062 103.164062 29.085938 103.410156 29.128906 103.640625 C 29.171875 103.871094 29.234375 104.097656 29.308594 104.316406 C 29.496094 104.917969 29.769531 105.402344 30.128906 105.78125 C 30.484375 106.160156 30.960938 106.347656 31.550781 106.347656 C 32.078125 106.347656 32.597656 106.15625 33.113281 105.761719 C 33.625 105.375 34.097656 104.886719 34.523438 104.296875 C 35.128906 103.480469 35.578125 102.613281 35.878906 101.691406 C 36.179688 100.769531 36.457031 99.828125 36.707031 98.863281 C 36.957031 97.863281 37.179688 96.898438 37.367188 95.972656 C 37.441406 95.535156 37.480469 95.105469 37.480469 94.691406 C 37.480469 94.253906 37.429688 93.820312 37.328125 93.390625 Z M 37.328125 93.390625 "/>
<path style=" stroke:none;fill-rule:evenodd;fill:rgb(0%,0%,0%);fill-opacity:1;" d="M 51.597656 112.449219 L 41.988281 112.449219 L 41.988281 111.886719 C 41.988281 111.847656 42.011719 111.785156 42.058594 111.703125 L 45.917969 107.953125 C 46.375 107.5 46.835938 107.039062 47.304688 106.570312 C 47.773438 106.097656 48.195312 105.617188 48.566406 105.125 C 48.933594 104.632812 49.230469 104.125 49.449219 103.601562 C 49.671875 103.078125 49.78125 102.53125 49.78125 101.957031 C 49.78125 101.472656 49.710938 101.019531 49.566406 100.597656 C 49.425781 100.179688 49.222656 99.808594 48.953125 99.492188 C 48.6875 99.175781 48.351562 98.917969 47.949219 98.722656 C 47.550781 98.527344 47.085938 98.433594 46.558594 98.429688 C 45.769531 98.433594 45.074219 98.640625 44.472656 99.0625 C 43.871094 99.480469 43.472656 99.945312 43.273438 100.449219 C 43.234375 100.464844 43.296875 100.472656 43.460938 100.46875 L 43.664062 100.46875 C 43.898438 100.519531 44.105469 100.59375 44.277344 100.691406 C 44.449219 100.789062 44.597656 100.925781 44.714844 101.101562 C 44.832031 101.277344 44.890625 101.484375 44.890625 101.730469 C 44.890625 102.140625 44.742188 102.457031 44.441406 102.675781 C 44.144531 102.894531 43.808594 103.003906 43.4375 103 C 43.085938 103.003906 42.753906 102.894531 42.449219 102.675781 C 42.140625 102.457031 41.988281 102.140625 41.988281 101.730469 C 41.988281 101.15625 42.113281 100.613281 42.363281 100.101562 C 42.617188 99.589844 42.957031 99.144531 43.390625 98.769531 C 43.824219 98.394531 44.335938 98.097656 44.925781 97.878906 C 45.515625 97.660156 46.144531 97.550781 46.804688 97.550781 C 47.625 97.550781 48.375 97.65625 49.054688 97.875 C 49.734375 98.089844 50.316406 98.398438 50.796875 98.800781 C 51.273438 99.203125 51.652344 99.671875 51.921875 100.199219 C 52.195312 100.730469 52.332031 101.316406 52.332031 101.957031 C 52.332031 102.667969 52.148438 103.320312 51.789062 103.917969 C 51.425781 104.519531 50.976562 105.066406 50.441406 105.566406 C 49.90625 106.0625 49.335938 106.53125 48.734375 106.972656 C 48.132812 107.414062 47.589844 107.84375 47.101562 108.257812 L 44.382812 110.542969 L 47.9375 110.542969 C 48.433594 110.546875 48.898438 110.542969 49.324219 110.535156 C 49.753906 110.527344 50.117188 110.515625 50.417969 110.496094 C 50.71875 110.472656 50.871094 110.460938 50.878906 110.453125 C 50.941406 110.40625 51 110.308594 51.054688 110.167969 C 51.109375 110.023438 51.164062 109.855469 51.210938 109.660156 C 51.253906 109.464844 51.304688 109.265625 51.351562 109.066406 C 51.398438 108.863281 51.441406 108.640625 51.480469 108.402344 L 52.355469 108.402344 Z M 51.597656 112.449219 "/>
<path style=" stroke:none;fill-rule:evenodd;fill:rgb(0%,0%,94.099426%);fill-opacity:0.39216;" d="M 337.808594 107.613281 L 337.109375 110.441406 L 336.414062 112.5625 L 332.222656 123.167969 L 330.125 128.117188 L 321.746094 145.085938 L 319.648438 148.621094 L 317.554688 152.15625 C 317.320312 152.507812 316.625 153.570312 316.15625 154.277344 C 315.691406 154.984375 314.992188 156.042969 314.761719 156.398438 L 312.664062 159.222656 L 309.871094 162.761719 L 298.695312 174.074219 L 295.902344 176.195312 L 293.808594 177.605469 L 290.316406 179.730469 L 285.425781 181.847656 L 279.140625 183.972656 L 275.648438 184.679688 L 270.757812 185.382812 L 258.886719 185.382812 L 252.597656 184.679688 L 248.410156 183.972656 L 244.21875 183.261719 L 240.726562 182.554688 L 218.375 176.898438 L 214.882812 176.195312 L 207.199219 174.78125 L 201.613281 174.074219 L 194.628906 173.363281 L 180.660156 173.363281 L 174.375 174.074219 L 170.183594 174.78125 L 166.691406 175.488281 C 166.226562 175.605469 164.828125 175.957031 163.894531 176.195312 C 162.964844 176.429688 161.566406 176.78125 161.101562 176.898438 L 154.816406 179.023438 C 154.234375 179.257812 152.488281 179.964844 151.324219 180.4375 C 150.160156 180.90625 148.414062 181.613281 147.832031 181.847656 L 142.246094 184.679688 L 138.753906 186.796875 L 135.261719 188.921875 L 128.972656 193.160156 L 126.179688 195.28125 L 126.179688 322.542969 L 337.808594 322.542969 Z M 337.808594 107.613281 "/>
<path style="fill:none;stroke-width:15;stroke-linecap:round;stroke-linejoin:round;stroke:rgb(0%,0%,0%);stroke-opacity:1;stroke-dasharray:60,30;stroke-miterlimit:10;" d="M 353.309337 1105.015235 L 677.466355 1105.015235 " transform="matrix(0.186252,0,0,-0.186472,0,401.0979)"/>
<path style="fill:none;stroke-width:15;stroke-linecap:round;stroke-linejoin:round;stroke:rgb(0%,0%,0%);stroke-opacity:1;stroke-dasharray:120,60;stroke-miterlimit:10;" d="M 353.309337 1621.260984 L 1823.299332 1621.260984 " transform="matrix(0.186252,0,0,-0.186472,0,401.0979)"/>
<path style=" stroke:none;fill-rule:evenodd;fill:rgb(0%,0%,0%);fill-opacity:1;" d="M 131.097656 195.042969 C 131.097656 198.75 128.097656 201.753906 124.394531 201.753906 C 120.691406 201.753906 117.6875 198.75 117.6875 195.042969 C 117.6875 191.335938 120.691406 188.328125 124.394531 188.328125 C 128.097656 188.328125 131.097656 191.335938 131.097656 195.042969 Z M 131.097656 195.042969 "/>
<path style=" stroke:none;fill-rule:evenodd;fill:rgb(0%,0%,0%);fill-opacity:1;" d="M 346.300781 98.777344 C 346.300781 102.484375 343.296875 105.488281 339.59375 105.488281 C 335.890625 105.488281 332.890625 102.484375 332.890625 98.777344 C 332.890625 95.070312 335.890625 92.0625 339.59375 92.0625 C 343.296875 92.0625 346.300781 95.070312 346.300781 98.777344 Z M 346.300781 98.777344 "/>
</g>
</svg>
