<?xml version="1.0" encoding="UTF-8"?>
<svg xmlns="http://www.w3.org/2000/svg" xmlns:xlink="http://www.w3.org/1999/xlink" width="481.02pt" height="424.98pt" viewBox="0 0 481.02 424.98" version="1.1">
<g id="surface1">
<path style=" stroke:none;fill-rule:nonzero;fill:rgb(0%,0%,0%);fill-opacity:1;" d="M 70.488281 345.460938 L 428.160156 345.460938 L 428.160156 347.707031 L 70.488281 347.707031 C 69.867188 347.707031 69.367188 347.203125 69.367188 346.582031 C 69.367188 345.960938 69.867188 345.460938 70.488281 345.460938 Z M 459.550781 346.582031 L 428.125 337.597656 L 428.125 355.5625 Z M 459.550781 346.582031 "/>
<path style=" stroke:none;fill-rule:nonzero;fill:rgb(0%,0%,0%);fill-opacity:1;" d="M 69.367188 346.582031 L 69.367188 62.058594 L 71.613281 62.058594 L 71.613281 346.582031 C 71.613281 347.203125 71.109375 347.707031 70.488281 347.707031 C 69.867188 347.707031 69.367188 347.203125 69.367188 346.582031 Z M 70.488281 30.648438 L 61.511719 62.089844 L 79.46875 62.089844 Z M 70.488281 30.648438 "/>
<path style=" stroke:none;fill-rule:evenodd;fill:rgb(0%,0%,0%);fill-opacity:1;" d="M 51.890625 379.316406 C 51.40625 381.210938 50.621094 383.039062 49.539062 384.800781 C 48.457031 386.5625 47.097656 388.175781 45.457031 389.640625 C 43.976562 390.957031 42.359375 392.007812 40.605469 392.785156 C 38.851562 393.558594 37.09375 393.949219 35.332031 393.949219 C 33.558594 393.949219 31.980469 393.558594 30.601562 392.773438 C 29.222656 391.992188 28.125 390.933594 27.304688 389.601562 C 26.402344 388.125 25.886719 386.492188 25.75 384.703125 C 25.699219 384.273438 25.671875 383.839844 25.671875 383.410156 C 25.671875 382.0625 25.847656 380.671875 26.195312 379.234375 C 26.707031 377.316406 27.496094 375.453125 28.566406 373.644531 C 29.632812 371.835938 31 370.199219 32.667969 368.734375 C 34.148438 367.417969 35.765625 366.355469 37.519531 365.554688 C 39.273438 364.75 41.046875 364.347656 42.835938 364.347656 C 44.609375 364.347656 46.179688 364.753906 47.542969 365.5625 C 48.910156 366.371094 50 367.441406 50.820312 368.773438 C 51.722656 370.253906 52.253906 371.898438 52.414062 373.710938 C 52.441406 374.15625 52.453125 374.59375 52.453125 375.023438 C 52.453125 376.421875 52.269531 377.851562 51.890625 379.316406 Z M 47.816406 369.441406 C 47.375 368.34375 46.707031 367.453125 45.820312 366.765625 C 44.933594 366.082031 43.84375 365.742188 42.550781 365.738281 C 41.273438 365.742188 40.003906 366.089844 38.742188 366.785156 C 37.476562 367.484375 36.347656 368.390625 35.351562 369.496094 C 34.101562 370.847656 33.113281 372.304688 32.386719 373.878906 C 31.660156 375.453125 31.097656 377.050781 30.691406 378.667969 C 30.222656 380.433594 29.933594 382.148438 29.824219 383.820312 C 29.796875 384.132812 29.785156 384.449219 29.785156 384.761719 C 29.785156 386.066406 30 387.347656 30.429688 388.601562 C 30.847656 389.710938 31.488281 390.644531 32.347656 391.394531 C 33.207031 392.144531 34.28125 392.519531 35.574219 392.519531 C 36.90625 392.519531 38.207031 392.136719 39.476562 391.375 C 40.746094 390.609375 41.886719 389.664062 42.894531 388.542969 C 44.199219 387.027344 45.214844 385.429688 45.941406 383.742188 C 46.667969 382.058594 47.257812 380.339844 47.714844 378.589844 C 48.132812 376.957031 48.394531 375.351562 48.5 373.769531 L 48.5 373.085938 C 48.5 371.78125 48.273438 370.5625 47.816406 369.441406 Z M 47.816406 369.441406 "/>
<path style=" stroke:none;fill-rule:evenodd;fill:rgb(0%,0%,0%);fill-opacity:1;" d="M 49.113281 55.84375 C 48.804688 56.980469 48.347656 58.105469 47.75 59.214844 C 47.152344 60.324219 46.375 61.351562 45.421875 62.289062 C 44.640625 63.074219 43.757812 63.730469 42.769531 64.261719 C 41.78125 64.789062 40.753906 65.050781 39.695312 65.050781 C 38.820312 65.050781 38.101562 64.8125 37.535156 64.328125 C 36.972656 63.847656 36.617188 63.453125 36.46875 63.152344 L 34.792969 69.578125 C 34.714844 69.90625 34.667969 70.144531 34.652344 70.304688 C 34.652344 70.433594 34.679688 70.519531 34.734375 70.558594 C 34.894531 70.664062 35.207031 70.726562 35.671875 70.753906 C 36.136719 70.78125 36.65625 70.792969 37.234375 70.792969 C 37.582031 70.792969 37.757812 70.960938 37.757812 71.300781 L 37.757812 71.4375 L 37.679688 71.8125 C 37.53125 72.203125 37.269531 72.394531 36.890625 72.378906 C 35.601562 72.328125 34.324219 72.289062 33.058594 72.261719 L 32.476562 72.261719 C 31.371094 72.261719 30.257812 72.300781 29.125 72.378906 C 28.777344 72.378906 28.605469 72.210938 28.601562 71.871094 L 28.601562 71.734375 L 28.683594 71.359375 C 28.832031 70.96875 29.09375 70.78125 29.46875 70.792969 C 29.941406 70.792969 30.332031 70.78125 30.640625 70.753906 C 30.949219 70.726562 31.171875 70.667969 31.304688 70.578125 C 31.441406 70.511719 31.582031 70.152344 31.730469 69.5 L 36.40625 51.398438 C 36.621094 50.550781 36.730469 49.816406 36.730469 49.203125 L 36.730469 48.734375 C 36.664062 48.109375 36.347656 47.792969 35.78125 47.792969 C 35.191406 47.792969 34.695312 48.273438 34.300781 49.222656 C 33.902344 50.179688 33.515625 51.417969 33.140625 52.945312 C 32.992188 53.300781 32.746094 53.480469 32.394531 53.492188 L 31.929688 53.492188 C 31.605469 53.496094 31.445312 53.332031 31.445312 53.003906 L 31.445312 52.867188 C 31.605469 52.253906 31.789062 51.585938 31.992188 50.859375 C 32.191406 50.136719 32.460938 49.449219 32.796875 48.804688 C 33.132812 48.15625 33.558594 47.609375 34.066406 47.15625 C 34.578125 46.707031 35.214844 46.480469 35.984375 46.480469 C 37.007812 46.480469 37.820312 46.773438 38.433594 47.351562 C 39.046875 47.933594 39.40625 48.519531 39.511719 49.105469 C 40.035156 48.503906 40.738281 47.917969 41.621094 47.34375 C 42.5 46.769531 43.429688 46.480469 44.414062 46.480469 C 45.449219 46.480469 46.332031 46.753906 47.0625 47.292969 C 47.796875 47.835938 48.363281 48.511719 48.769531 49.320312 C 49.253906 50.289062 49.507812 51.332031 49.535156 52.457031 L 49.535156 52.730469 C 49.535156 53.738281 49.394531 54.773438 49.113281 55.84375 Z M 46.148438 49.890625 C 46.027344 49.261719 45.800781 48.757812 45.472656 48.371094 C 45.140625 47.988281 44.710938 47.792969 44.171875 47.792969 C 43.550781 47.792969 42.925781 48.003906 42.285156 48.421875 C 41.648438 48.839844 41.058594 49.367188 40.519531 50.007812 C 40.105469 50.542969 39.742188 51.046875 39.433594 51.515625 L 37.214844 60.078125 C 37.269531 60.351562 37.316406 60.613281 37.363281 60.863281 C 37.414062 61.109375 37.476562 61.351562 37.558594 61.585938 C 37.757812 62.226562 38.050781 62.75 38.433594 63.152344 C 38.816406 63.558594 39.324219 63.761719 39.957031 63.757812 C 40.519531 63.761719 41.078125 63.550781 41.628906 63.132812 C 42.179688 62.714844 42.683594 62.195312 43.140625 61.566406 C 43.789062 60.691406 44.273438 59.761719 44.59375 58.773438 C 44.917969 57.789062 45.210938 56.78125 45.480469 55.746094 C 45.75 54.675781 45.984375 53.644531 46.1875 52.652344 C 46.269531 52.183594 46.308594 51.726562 46.308594 51.28125 C 46.308594 50.8125 46.253906 50.347656 46.148438 49.890625 Z M 46.148438 49.890625 "/>
<path style=" stroke:none;fill-rule:evenodd;fill:rgb(0%,0%,0%);fill-opacity:1;" d="M 448.566406 366.289062 C 448.488281 366.679688 448.246094 366.875 447.84375 366.875 C 447.414062 366.875 447.003906 366.921875 446.613281 367.023438 C 446.222656 367.121094 445.84375 367.285156 445.472656 367.519531 C 445.101562 367.757812 444.765625 368.039062 444.453125 368.375 C 444.144531 368.707031 443.863281 369.082031 443.605469 369.496094 L 428.902344 393.421875 C 428.703125 393.785156 428.394531 393.960938 427.976562 393.949219 L 427.59375 393.949219 C 427.097656 393.949219 426.855469 393.742188 426.867188 393.320312 L 424.347656 368.304688 C 424.292969 367.964844 424.238281 367.699219 424.183594 367.511719 C 424.128906 367.320312 424.050781 367.191406 423.941406 367.109375 C 423.753906 367.007812 423.457031 366.941406 423.046875 366.914062 C 422.636719 366.890625 422.167969 366.875 421.644531 366.875 C 421.441406 366.875 421.292969 366.8125 421.199219 366.679688 C 421.117188 366.597656 421.078125 366.503906 421.078125 366.382812 C 421.078125 366.308594 421.097656 366.234375 421.140625 366.167969 L 421.199219 365.875 C 421.242188 365.703125 421.332031 365.5625 421.472656 365.445312 C 421.613281 365.328125 421.785156 365.269531 421.988281 365.265625 C 423.277344 365.34375 424.582031 365.386719 425.898438 365.386719 C 426.101562 365.386719 426.316406 365.375 426.542969 365.34375 C 428.105469 365.34375 429.664062 365.320312 431.222656 365.265625 C 431.414062 365.269531 431.582031 365.332031 431.726562 365.464844 C 431.78125 365.570312 431.808594 365.664062 431.808594 365.757812 C 431.808594 365.835938 431.789062 365.910156 431.746094 365.972656 L 431.6875 366.269531 C 431.648438 366.453125 431.550781 366.597656 431.394531 366.707031 C 431.242188 366.820312 431.074219 366.875 430.902344 366.875 C 430.429688 366.875 430 366.894531 429.609375 366.933594 C 429.21875 366.972656 428.835938 367.078125 428.460938 367.246094 C 428.234375 367.367188 428.125 367.5625 428.136719 367.832031 L 428.136719 367.972656 C 428.609375 371.445312 428.984375 374.9375 429.265625 378.445312 C 429.550781 381.949219 429.851562 385.269531 430.175781 388.40625 L 442.074219 369.03125 C 442.25 368.753906 442.355469 368.46875 442.398438 368.167969 L 442.398438 368.066406 C 442.398438 367.871094 442.351562 367.695312 442.253906 367.542969 C 441.960938 367.097656 441.410156 366.875 440.601562 366.875 C 440.253906 366.875 440.078125 366.699219 440.078125 366.34375 L 440.078125 366.207031 L 440.15625 365.855469 C 440.308594 365.464844 440.570312 365.269531 440.945312 365.265625 C 442.128906 365.320312 443.316406 365.34375 444.515625 365.34375 C 444.675781 365.375 444.832031 365.386719 444.980469 365.386719 C 446 365.386719 447.050781 365.34375 448.125 365.265625 C 448.488281 365.269531 448.683594 365.445312 448.710938 365.796875 L 448.710938 365.953125 Z M 448.566406 366.289062 "/>
<path style=" stroke:none;fill-rule:evenodd;fill:rgb(0%,0%,0%);fill-opacity:1;" d="M 145.210938 366.050781 C 145.128906 366.445312 144.886719 366.640625 144.484375 366.636719 C 144.054688 366.640625 143.644531 366.691406 143.253906 366.789062 C 142.863281 366.886719 142.484375 367.054688 142.113281 367.289062 C 141.746094 367.523438 141.40625 367.808594 141.097656 368.140625 C 140.785156 368.476562 140.503906 368.851562 140.25 369.265625 L 125.542969 393.183594 C 125.34375 393.550781 125.035156 393.726562 124.617188 393.714844 L 124.234375 393.714844 C 123.738281 393.714844 123.496094 393.507812 123.507812 393.085938 L 120.988281 368.070312 C 120.933594 367.730469 120.878906 367.46875 120.824219 367.277344 C 120.773438 367.089844 120.691406 366.953125 120.582031 366.875 C 120.394531 366.773438 120.097656 366.707031 119.6875 366.683594 C 119.277344 366.652344 118.808594 366.640625 118.285156 366.636719 C 118.082031 366.640625 117.933594 366.574219 117.839844 366.441406 C 117.761719 366.367188 117.71875 366.265625 117.71875 366.152344 C 117.71875 366.070312 117.742188 366 117.78125 365.9375 L 117.839844 365.640625 C 117.882812 365.472656 117.972656 365.328125 118.113281 365.210938 C 118.253906 365.09375 118.425781 365.035156 118.628906 365.035156 C 119.917969 365.113281 121.222656 365.152344 122.539062 365.148438 C 122.742188 365.152344 122.957031 365.136719 123.183594 365.113281 C 124.746094 365.113281 126.304688 365.085938 127.863281 365.035156 C 128.054688 365.035156 128.222656 365.101562 128.371094 365.230469 C 128.421875 365.332031 128.449219 365.433594 128.449219 365.523438 C 128.449219 365.605469 128.429688 365.675781 128.390625 365.738281 L 128.328125 366.03125 C 128.289062 366.214844 128.191406 366.363281 128.035156 366.476562 C 127.882812 366.585938 127.71875 366.640625 127.542969 366.636719 C 127.074219 366.640625 126.640625 366.664062 126.25 366.699219 C 125.863281 366.738281 125.480469 366.84375 125.101562 367.011719 C 124.875 367.128906 124.765625 367.324219 124.777344 367.601562 L 124.777344 367.734375 C 125.25 371.214844 125.628906 374.703125 125.910156 378.210938 C 126.191406 381.714844 126.492188 385.035156 126.816406 388.171875 L 138.714844 368.792969 C 138.890625 368.523438 139 368.234375 139.039062 367.933594 L 139.039062 367.835938 C 139.039062 367.640625 138.992188 367.464844 138.898438 367.304688 C 138.601562 366.863281 138.050781 366.640625 137.242188 366.636719 C 136.894531 366.640625 136.71875 366.464844 136.71875 366.109375 L 136.71875 365.976562 L 136.800781 365.621094 C 136.949219 365.230469 137.210938 365.035156 137.585938 365.035156 C 138.769531 365.085938 139.960938 365.113281 141.15625 365.113281 C 141.316406 365.136719 141.472656 365.152344 141.621094 365.148438 C 142.640625 365.152344 143.691406 365.113281 144.765625 365.035156 C 145.128906 365.035156 145.324219 365.210938 145.351562 365.558594 L 145.351562 365.71875 Z M 145.210938 366.050781 "/>
<path style=" stroke:none;fill-rule:evenodd;fill:rgb(0%,0%,0%);fill-opacity:1;" d="M 151.488281 398.523438 C 149.9375 398.480469 148.429688 398.457031 146.960938 398.457031 C 145.492188 398.457031 143.984375 398.480469 142.433594 398.523438 L 142.433594 397.582031 L 143.304688 397.582031 C 143.582031 397.582031 143.847656 397.578125 144.089844 397.570312 C 144.335938 397.5625 144.566406 397.542969 144.785156 397.515625 C 145.003906 397.484375 145.195312 397.457031 145.355469 397.425781 C 145.488281 397.40625 145.601562 397.339844 145.691406 397.222656 C 145.777344 397.109375 145.824219 396.984375 145.824219 396.84375 L 145.824219 384.480469 C 145.402344 384.664062 144.882812 384.804688 144.265625 384.898438 C 143.652344 384.992188 142.976562 385.039062 142.242188 385.039062 L 142.242188 384.109375 C 143.253906 384.109375 144.191406 384 145.046875 383.785156 C 145.902344 383.570312 146.640625 383.164062 147.265625 382.570312 L 147.65625 382.570312 C 147.933594 382.574219 148.074219 382.695312 148.074219 382.933594 L 148.074219 396.84375 C 148.074219 396.992188 148.117188 397.121094 148.199219 397.230469 C 148.285156 397.339844 148.40625 397.40625 148.566406 397.425781 C 148.703125 397.457031 148.875 397.484375 149.085938 397.515625 C 149.296875 397.542969 149.535156 397.5625 149.800781 397.570312 C 150.066406 397.578125 150.324219 397.582031 150.578125 397.582031 L 151.488281 397.582031 Z M 151.488281 398.523438 "/>
<path style=" stroke:none;fill-rule:evenodd;fill:rgb(0%,0%,0%);fill-opacity:1;" d="M 393.160156 366.050781 C 393.078125 366.445312 392.835938 366.640625 392.433594 366.636719 C 392.003906 366.640625 391.59375 366.691406 391.203125 366.789062 C 390.8125 366.886719 390.433594 367.054688 390.0625 367.289062 C 389.695312 367.523438 389.355469 367.808594 389.046875 368.140625 C 388.734375 368.476562 388.453125 368.851562 388.195312 369.265625 L 373.492188 393.183594 C 373.292969 393.550781 372.984375 393.726562 372.566406 393.714844 L 372.183594 393.714844 C 371.6875 393.714844 371.445312 393.507812 371.457031 393.085938 L 368.9375 368.070312 C 368.882812 367.730469 368.828125 367.46875 368.773438 367.277344 C 368.71875 367.089844 368.640625 366.953125 368.53125 366.875 C 368.34375 366.773438 368.046875 366.707031 367.636719 366.683594 C 367.226562 366.652344 366.757812 366.640625 366.234375 366.636719 C 366.03125 366.640625 365.882812 366.574219 365.789062 366.441406 C 365.707031 366.367188 365.667969 366.265625 365.667969 366.152344 C 365.667969 366.070312 365.6875 366 365.730469 365.9375 L 365.789062 365.640625 C 365.832031 365.472656 365.921875 365.328125 366.0625 365.210938 C 366.203125 365.09375 366.375 365.035156 366.578125 365.035156 C 367.867188 365.113281 369.171875 365.152344 370.488281 365.148438 C 370.691406 365.152344 370.90625 365.136719 371.132812 365.113281 C 372.695312 365.113281 374.253906 365.085938 375.8125 365.035156 C 376.003906 365.035156 376.171875 365.101562 376.316406 365.230469 C 376.371094 365.332031 376.398438 365.433594 376.398438 365.523438 C 376.398438 365.605469 376.378906 365.675781 376.335938 365.738281 L 376.277344 366.03125 C 376.238281 366.214844 376.140625 366.363281 375.984375 366.476562 C 375.832031 366.585938 375.664062 366.640625 375.492188 366.636719 C 375.019531 366.640625 374.589844 366.664062 374.199219 366.699219 C 373.8125 366.738281 373.425781 366.84375 373.050781 367.011719 C 372.824219 367.128906 372.714844 367.324219 372.726562 367.601562 L 372.726562 367.734375 C 373.199219 371.214844 373.574219 374.703125 373.855469 378.210938 C 374.140625 381.714844 374.441406 385.035156 374.765625 388.171875 L 386.664062 368.792969 C 386.839844 368.523438 386.949219 368.234375 386.988281 367.933594 L 386.988281 367.835938 C 386.988281 367.640625 386.941406 367.464844 386.84375 367.304688 C 386.550781 366.863281 386 366.640625 385.191406 366.636719 C 384.84375 366.640625 384.667969 366.464844 384.667969 366.109375 L 384.667969 365.976562 L 384.75 365.621094 C 384.898438 365.230469 385.160156 365.035156 385.535156 365.035156 C 386.71875 365.085938 387.90625 365.113281 389.105469 365.113281 C 389.265625 365.136719 389.421875 365.152344 389.570312 365.148438 C 390.589844 365.152344 391.640625 365.113281 392.714844 365.035156 C 393.078125 365.035156 393.273438 365.210938 393.300781 365.558594 L 393.300781 365.71875 Z M 393.160156 366.050781 "/>
<path style=" stroke:none;fill-rule:evenodd;fill:rgb(0%,0%,0%);fill-opacity:1;" d="M 400.386719 398.523438 L 390.089844 398.523438 L 390.089844 397.921875 C 390.089844 397.875 390.117188 397.8125 390.167969 397.722656 L 394.304688 393.707031 C 394.792969 393.226562 395.289062 392.730469 395.789062 392.226562 C 396.292969 391.722656 396.738281 391.207031 397.136719 390.679688 C 397.53125 390.152344 397.847656 389.609375 398.085938 389.050781 C 398.320312 388.492188 398.441406 387.90625 398.441406 387.289062 C 398.441406 386.769531 398.363281 386.285156 398.214844 385.835938 C 398.058594 385.386719 397.839844 384.992188 397.554688 384.652344 C 397.265625 384.3125 396.910156 384.039062 396.476562 383.828125 C 396.046875 383.621094 395.550781 383.515625 394.984375 383.515625 C 394.144531 383.515625 393.398438 383.742188 392.753906 384.191406 C 392.109375 384.640625 391.679688 385.136719 391.46875 385.675781 C 391.429688 385.691406 391.496094 385.699219 391.671875 385.699219 L 391.886719 385.699219 C 392.140625 385.75 392.359375 385.828125 392.546875 385.933594 C 392.730469 386.042969 392.886719 386.1875 393.011719 386.375 C 393.140625 386.558594 393.203125 386.785156 393.203125 387.046875 C 393.203125 387.488281 393.042969 387.824219 392.722656 388.058594 C 392.402344 388.292969 392.042969 388.410156 391.648438 388.410156 C 391.269531 388.410156 390.914062 388.292969 390.585938 388.058594 C 390.257812 387.824219 390.089844 387.488281 390.089844 387.046875 C 390.089844 386.433594 390.226562 385.851562 390.496094 385.304688 C 390.765625 384.757812 391.132812 384.28125 391.597656 383.878906 C 392.058594 383.476562 392.609375 383.15625 393.242188 382.925781 C 393.871094 382.691406 394.542969 382.574219 395.25 382.570312 C 396.128906 382.574219 396.933594 382.6875 397.660156 382.917969 C 398.390625 383.148438 399.011719 383.480469 399.527344 383.910156 C 400.039062 384.34375 400.445312 384.84375 400.734375 385.410156 C 401.027344 385.976562 401.171875 386.601562 401.171875 387.289062 C 401.171875 388.050781 400.980469 388.75 400.585938 389.390625 C 400.199219 390.03125 399.722656 390.617188 399.148438 391.152344 C 398.574219 391.6875 397.964844 392.1875 397.320312 392.660156 C 396.675781 393.132812 396.089844 393.589844 395.566406 394.035156 L 392.660156 396.484375 L 396.464844 396.484375 C 396.996094 396.484375 397.492188 396.480469 397.953125 396.472656 C 398.414062 396.464844 398.804688 396.449219 399.125 396.429688 C 399.441406 396.40625 399.605469 396.390625 399.613281 396.382812 C 399.683594 396.332031 399.746094 396.230469 399.804688 396.078125 C 399.867188 395.925781 399.917969 395.742188 399.96875 395.535156 C 400.019531 395.324219 400.070312 395.113281 400.121094 394.898438 C 400.171875 394.683594 400.214844 394.445312 400.261719 394.191406 L 401.195312 394.191406 Z M 400.386719 398.523438 "/>
<path style=" stroke:none;fill-rule:evenodd;fill:rgb(0%,0%,0%);fill-opacity:1;" d="M 43.886719 250.871094 C 43.578125 252.007812 43.125 253.132812 42.523438 254.242188 C 41.925781 255.351562 41.148438 256.375 40.195312 257.316406 C 39.417969 258.101562 38.53125 258.757812 37.542969 259.285156 C 36.554688 259.816406 35.53125 260.078125 34.46875 260.078125 C 33.59375 260.078125 32.875 259.835938 32.3125 259.355469 C 31.746094 258.871094 31.390625 258.480469 31.242188 258.175781 L 29.566406 264.601562 C 29.488281 264.929688 29.441406 265.171875 29.425781 265.328125 C 29.425781 265.460938 29.453125 265.542969 29.507812 265.582031 C 29.667969 265.6875 29.984375 265.753906 30.445312 265.777344 C 30.910156 265.804688 31.429688 265.816406 32.007812 265.816406 C 32.359375 265.816406 32.53125 265.988281 32.53125 266.328125 L 32.53125 266.464844 L 32.453125 266.835938 C 32.304688 267.230469 32.042969 267.417969 31.664062 267.40625 C 30.375 267.351562 29.097656 267.3125 27.832031 267.289062 L 27.25 267.289062 C 26.148438 267.289062 25.03125 267.328125 23.902344 267.40625 C 23.554688 267.40625 23.378906 267.234375 23.378906 266.894531 L 23.378906 266.757812 L 23.457031 266.386719 C 23.609375 265.996094 23.871094 265.804688 24.246094 265.816406 C 24.714844 265.816406 25.105469 265.804688 25.414062 265.777344 C 25.722656 265.753906 25.945312 265.695312 26.078125 265.601562 C 26.214844 265.539062 26.355469 265.179688 26.503906 264.523438 L 31.179688 246.421875 C 31.394531 245.574219 31.503906 244.84375 31.503906 244.230469 L 31.503906 243.757812 C 31.4375 243.132812 31.121094 242.820312 30.558594 242.820312 C 29.964844 242.820312 29.472656 243.296875 29.074219 244.25 C 28.679688 245.203125 28.292969 246.445312 27.914062 247.972656 C 27.769531 248.324219 27.519531 248.507812 27.167969 248.519531 L 26.707031 248.519531 C 26.382812 248.519531 26.21875 248.359375 26.21875 248.03125 L 26.21875 247.890625 C 26.382812 247.28125 26.566406 246.609375 26.765625 245.886719 C 26.96875 245.160156 27.238281 244.476562 27.570312 243.828125 C 27.910156 243.183594 28.332031 242.632812 28.84375 242.183594 C 29.355469 241.730469 29.992188 241.507812 30.757812 241.503906 C 31.78125 241.507812 32.597656 241.796875 33.207031 242.378906 C 33.820312 242.960938 34.179688 243.542969 34.285156 244.128906 C 34.8125 243.53125 35.511719 242.945312 36.394531 242.367188 C 37.277344 241.792969 38.207031 241.507812 39.1875 241.503906 C 40.222656 241.507812 41.105469 241.777344 41.835938 242.320312 C 42.570312 242.863281 43.140625 243.539062 43.542969 244.347656 C 44.027344 245.3125 44.28125 246.359375 44.308594 247.480469 L 44.308594 247.753906 C 44.308594 248.761719 44.167969 249.800781 43.886719 250.871094 Z M 40.921875 244.914062 C 40.800781 244.289062 40.574219 243.78125 40.246094 243.398438 C 39.917969 243.011719 39.484375 242.820312 38.945312 242.820312 C 38.328125 242.820312 37.699219 243.027344 37.058594 243.445312 C 36.421875 243.867188 35.835938 244.394531 35.296875 245.03125 C 34.878906 245.566406 34.515625 246.070312 34.207031 246.539062 L 31.988281 255.101562 C 32.042969 255.378906 32.09375 255.640625 32.140625 255.886719 C 32.1875 256.136719 32.25 256.375 32.332031 256.609375 C 32.535156 257.253906 32.824219 257.773438 33.207031 258.179688 C 33.59375 258.582031 34.097656 258.785156 34.730469 258.785156 C 35.296875 258.785156 35.855469 258.578125 36.402344 258.160156 C 36.953125 257.742188 37.460938 257.21875 37.917969 256.589844 C 38.5625 255.714844 39.046875 254.789062 39.367188 253.800781 C 39.691406 252.816406 39.988281 251.804688 40.253906 250.773438 C 40.523438 249.703125 40.757812 248.671875 40.960938 247.675781 C 41.042969 247.207031 41.082031 246.75 41.082031 246.304688 C 41.082031 245.835938 41.027344 245.371094 40.921875 244.914062 Z M 40.921875 244.914062 "/>
<path style=" stroke:none;fill-rule:evenodd;fill:rgb(0%,0%,0%);fill-opacity:1;" d="M 55.265625 265.316406 C 53.710938 265.273438 52.203125 265.253906 50.734375 265.253906 C 49.269531 265.253906 47.757812 265.273438 46.207031 265.316406 L 46.207031 264.375 L 47.078125 264.375 C 47.355469 264.375 47.617188 264.371094 47.863281 264.363281 C 48.109375 264.355469 48.339844 264.339844 48.558594 264.308594 C 48.777344 264.28125 48.96875 264.25 49.128906 264.222656 C 49.261719 264.199219 49.375 264.132812 49.464844 264.019531 C 49.554688 263.90625 49.597656 263.78125 49.597656 263.640625 L 49.597656 251.273438 C 49.175781 251.457031 48.65625 251.597656 48.039062 251.691406 C 47.425781 251.789062 46.75 251.835938 46.015625 251.835938 L 46.015625 250.902344 C 47.027344 250.902344 47.964844 250.796875 48.820312 250.578125 C 49.675781 250.363281 50.414062 249.960938 51.039062 249.367188 L 51.429688 249.367188 C 51.707031 249.367188 51.847656 249.488281 51.847656 249.726562 L 51.847656 263.640625 C 51.847656 263.785156 51.890625 263.914062 51.972656 264.023438 C 52.058594 264.132812 52.179688 264.199219 52.339844 264.222656 C 52.476562 264.25 52.648438 264.28125 52.859375 264.308594 C 53.070312 264.339844 53.308594 264.355469 53.574219 264.363281 C 53.839844 264.371094 54.101562 264.375 54.351562 264.375 L 55.265625 264.375 Z M 55.265625 265.316406 "/>
<path style=" stroke:none;fill-rule:evenodd;fill:rgb(0%,0%,0%);fill-opacity:1;" d="M 42.953125 153.007812 C 42.644531 154.148438 42.191406 155.269531 41.59375 156.378906 C 40.992188 157.492188 40.214844 158.515625 39.261719 159.453125 C 38.484375 160.238281 37.597656 160.894531 36.609375 161.425781 C 35.621094 161.953125 34.597656 162.21875 33.535156 162.21875 C 32.660156 162.21875 31.941406 161.976562 31.375 161.492188 C 30.8125 161.011719 30.457031 160.617188 30.308594 160.316406 L 28.632812 166.742188 C 28.550781 167.070312 28.503906 167.3125 28.492188 167.46875 C 28.492188 167.597656 28.519531 167.683594 28.574219 167.722656 C 28.734375 167.828125 29.046875 167.890625 29.511719 167.917969 C 29.972656 167.945312 30.496094 167.957031 31.074219 167.957031 C 31.421875 167.957031 31.597656 168.128906 31.597656 168.464844 L 31.597656 168.605469 L 31.519531 168.976562 C 31.371094 169.367188 31.109375 169.558594 30.730469 169.542969 C 29.441406 169.492188 28.164062 169.453125 26.898438 169.425781 L 26.3125 169.425781 C 25.210938 169.425781 24.097656 169.464844 22.964844 169.542969 C 22.617188 169.542969 22.441406 169.375 22.441406 169.035156 L 22.441406 168.898438 L 22.523438 168.523438 C 22.671875 168.132812 22.933594 167.945312 23.308594 167.957031 C 23.78125 167.957031 24.171875 167.945312 24.480469 167.917969 C 24.789062 167.890625 25.007812 167.832031 25.144531 167.742188 C 25.277344 167.675781 25.421875 167.316406 25.566406 166.664062 L 30.246094 148.5625 C 30.460938 147.714844 30.570312 146.984375 30.570312 146.367188 L 30.570312 145.898438 C 30.503906 145.273438 30.1875 144.957031 29.621094 144.957031 C 29.03125 144.957031 28.535156 145.4375 28.140625 146.390625 C 27.742188 147.34375 27.355469 148.582031 26.980469 150.109375 C 26.832031 150.464844 26.582031 150.644531 26.234375 150.660156 L 25.769531 150.660156 C 25.445312 150.660156 25.285156 150.496094 25.285156 150.167969 L 25.285156 150.03125 C 25.445312 149.417969 25.628906 148.75 25.832031 148.023438 C 26.03125 147.300781 26.300781 146.613281 26.636719 145.96875 C 26.972656 145.320312 27.398438 144.773438 27.90625 144.320312 C 28.417969 143.871094 29.054688 143.644531 29.824219 143.644531 C 30.847656 143.644531 31.664062 143.9375 32.273438 144.519531 C 32.886719 145.097656 33.246094 145.683594 33.351562 146.269531 C 33.878906 145.671875 34.578125 145.082031 35.460938 144.507812 C 36.34375 143.933594 37.273438 143.644531 38.253906 143.644531 C 39.289062 143.644531 40.175781 143.917969 40.90625 144.460938 C 41.640625 145 42.207031 145.675781 42.609375 146.484375 C 43.09375 147.453125 43.351562 148.5 43.375 149.621094 L 43.375 149.894531 C 43.375 150.902344 43.234375 151.9375 42.953125 153.007812 Z M 39.988281 147.054688 C 39.867188 146.429688 39.644531 145.921875 39.3125 145.535156 C 38.984375 145.152344 38.550781 144.957031 38.011719 144.957031 C 37.394531 144.957031 36.765625 145.167969 36.125 145.585938 C 35.488281 146.003906 34.898438 146.53125 34.359375 147.171875 C 33.945312 147.707031 33.582031 148.210938 33.269531 148.679688 L 31.054688 157.242188 C 31.109375 157.515625 31.160156 157.777344 31.207031 158.027344 C 31.253906 158.273438 31.316406 158.515625 31.394531 158.75 C 31.597656 159.390625 31.890625 159.914062 32.273438 160.316406 C 32.65625 160.722656 33.164062 160.925781 33.796875 160.921875 C 34.363281 160.925781 34.917969 160.71875 35.46875 160.296875 C 36.019531 159.878906 36.527344 159.359375 36.984375 158.730469 C 37.628906 157.855469 38.113281 156.925781 38.4375 155.941406 C 38.757812 154.953125 39.054688 153.945312 39.320312 152.910156 C 39.589844 151.839844 39.828125 150.808594 40.027344 149.816406 C 40.109375 149.347656 40.148438 148.890625 40.148438 148.445312 C 40.148438 147.976562 40.097656 147.511719 39.988281 147.054688 Z M 39.988281 147.054688 "/>
<path style=" stroke:none;fill-rule:evenodd;fill:rgb(0%,0%,0%);fill-opacity:1;" d="M 55.273438 167.457031 L 44.980469 167.457031 L 44.980469 166.855469 C 44.980469 166.808594 45.003906 166.746094 45.054688 166.65625 L 49.191406 162.640625 C 49.679688 162.160156 50.175781 161.664062 50.679688 161.160156 C 51.179688 160.65625 51.628906 160.140625 52.023438 159.613281 C 52.421875 159.085938 52.738281 158.542969 52.972656 157.984375 C 53.210938 157.425781 53.328125 156.839844 53.328125 156.222656 C 53.328125 155.703125 53.253906 155.21875 53.101562 154.769531 C 52.949219 154.320312 52.730469 153.925781 52.441406 153.585938 C 52.15625 153.246094 51.796875 152.972656 51.367188 152.761719 C 50.9375 152.554688 50.441406 152.449219 49.875 152.449219 C 49.03125 152.449219 48.289062 152.675781 47.644531 153.125 C 46.996094 153.574219 46.570312 154.070312 46.359375 154.609375 C 46.316406 154.625 46.382812 154.632812 46.5625 154.632812 L 46.777344 154.632812 C 47.03125 154.683594 47.246094 154.761719 47.433594 154.867188 C 47.621094 154.976562 47.777344 155.121094 47.902344 155.308594 C 48.027344 155.492188 48.089844 155.71875 48.089844 155.980469 C 48.089844 156.421875 47.933594 156.757812 47.609375 156.992188 C 47.289062 157.226562 46.933594 157.34375 46.535156 157.34375 C 46.15625 157.34375 45.800781 157.226562 45.472656 156.992188 C 45.144531 156.757812 44.980469 156.421875 44.980469 155.980469 C 44.980469 155.367188 45.113281 154.785156 45.386719 154.238281 C 45.65625 153.691406 46.019531 153.214844 46.484375 152.8125 C 46.949219 152.410156 47.496094 152.089844 48.128906 151.855469 C 48.761719 151.625 49.433594 151.507812 50.140625 151.503906 C 51.015625 151.507812 51.820312 151.621094 52.550781 151.851562 C 53.277344 152.082031 53.902344 152.414062 54.414062 152.84375 C 54.929688 153.277344 55.332031 153.777344 55.625 154.34375 C 55.917969 154.910156 56.058594 155.535156 56.058594 156.222656 C 56.058594 156.984375 55.863281 157.683594 55.476562 158.324219 C 55.089844 158.964844 54.609375 159.550781 54.035156 160.085938 C 53.460938 160.621094 52.851562 161.121094 52.207031 161.59375 C 51.5625 162.066406 50.980469 162.523438 50.457031 162.96875 L 47.546875 165.417969 L 51.355469 165.417969 C 51.886719 165.417969 52.382812 165.414062 52.839844 165.40625 C 53.300781 165.398438 53.691406 165.382812 54.011719 165.363281 C 54.332031 165.339844 54.496094 165.324219 54.503906 165.316406 C 54.570312 165.265625 54.632812 165.164062 54.695312 165.011719 C 54.753906 164.859375 54.808594 164.675781 54.859375 164.46875 C 54.910156 164.257812 54.957031 164.046875 55.011719 163.832031 C 55.0625 163.617188 55.105469 163.378906 55.148438 163.125 L 56.082031 163.125 Z M 55.273438 167.457031 "/>
<path style="fill-rule:evenodd;fill:rgb(0%,0%,94.099426%);fill-opacity:0.39216;stroke-width:15;stroke-linecap:round;stroke-linejoin:round;stroke:rgb(0%,0%,0%);stroke-opacity:1;stroke-miterlimit:10;" d="M 1898.954999 1488.384423 C 2008.065815 1304.63154 1827.865573 996.185006 1496.499962 799.438309 C 1165.134351 602.672042 808.04263 592.143921 698.951393 775.896805 C 589.840577 959.649688 770.040819 1268.096222 1101.40643 1464.84292 C 1432.772041 1661.609186 1789.863762 1672.137307 1898.954999 1488.384423 Z M 1898.954999 1488.384423 " transform="matrix(0.199518,0,0,-0.199614,0,430.673)"/>
<path style="fill:none;stroke-width:11.25;stroke-linecap:round;stroke-linejoin:round;stroke:rgb(0%,0%,0%);stroke-opacity:1;stroke-dasharray:90,45;stroke-miterlimit:10;" d="M 668.311087 882.019477 L 668.311087 426.864171 " transform="matrix(0.199518,0,0,-0.199614,0,430.673)"/>
<path style="fill:none;stroke-width:11.25;stroke-linecap:round;stroke-linejoin:round;stroke:rgb(0%,0%,0%);stroke-opacity:1;stroke-dasharray:90,45;stroke-miterlimit:10;" d="M 1928.303126 1398.836692 L 1928.303126 426.864171 " transform="matrix(0.199518,0,0,-0.199614,0,430.673)"/>
<path style="fill:none;stroke-width:11.25;stroke-linecap:round;stroke-linejoin:round;stroke:rgb(0%,0%,0%);stroke-opacity:1;stroke-dasharray:90,45;stroke-miterlimit:10;" d="M 353.313077 1398.836692 L 1928.303126 1398.836692 " transform="matrix(0.199518,0,0,-0.199614,0,430.673)"/>
<path style="fill:none;stroke-width:11.25;stroke-linecap:round;stroke-linejoin:round;stroke:rgb(0%,0%,0%);stroke-opacity:1;stroke-dasharray:90,45;stroke-miterlimit:10;" d="M 353.313077 882.019477 L 668.311087 882.019477 " transform="matrix(0.199518,0,0,-0.199614,0,430.673)"/>
<path style=" stroke:none;fill-rule:evenodd;fill:rgb(0%,0%,0%);fill-opacity:1;" d="M 140.523438 254.609375 C 140.523438 258.582031 137.304688 261.796875 133.339844 261.796875 C 129.371094 261.796875 126.15625 258.582031 126.15625 254.609375 C 126.15625 250.644531 129.371094 247.425781 133.339844 247.425781 C 137.304688 247.425781 140.523438 250.644531 140.523438 254.609375 Z M 140.523438 254.609375 "/>
<path style=" stroke:none;fill-rule:evenodd;fill:rgb(0%,0%,0%);fill-opacity:1;" d="M 391.914062 151.445312 C 391.914062 155.414062 388.699219 158.628906 384.730469 158.628906 C 380.765625 158.628906 377.550781 155.414062 377.550781 151.445312 C 377.550781 147.476562 380.765625 144.257812 384.730469 144.257812 C 388.699219 144.257812 391.914062 147.476562 391.914062 151.445312 Z M 391.914062 151.445312 "/>
</g>
</svg>
