<?xml version="1.0" encoding="utf-8"?>
<!-- Generator: Adobe Illustrator 19.0.0, SVG Export Plug-In . SVG Version: 6.00 Build 0)  -->
<svg version="1.1" id="Layer_1" xmlns="http://www.w3.org/2000/svg" xmlns:xlink="http://www.w3.org/1999/xlink" x="0px" y="0px"
	 viewBox="0 0 323.3333435 66" style="enable-background:new 0 0 323.3333435 66;" xml:space="preserve">
<style type="text/css">
	.st0{fill:none;stroke:#A7A9AC;stroke-miterlimit:10;}
	.st1{fill:none;stroke:#A7A9AC;stroke-miterlimit:10;stroke-dasharray:4.8185096,4.8185096;}
	.st2{fill:none;stroke:#262626;stroke-linecap:square;stroke-linejoin:round;stroke-miterlimit:10;}
	.st3{fill:#262626;}
	.st4{fill:#010101;}
	.st5{fill:none;stroke:#1173BB;stroke-linejoin:round;stroke-miterlimit:10;}
</style>
<g id="XMLID_15_">
	<g id="XMLID_39_">
		<line id="XMLID_42_" class="st0" x1="96.3113632" y1="24.3671055" x2="98.8113632" y2="24.3671055"/>
		<line id="XMLID_41_" class="st1" x1="103.6298752" y1="24.3671055" x2="149.4057159" y2="24.3671055"/>
		<line id="XMLID_40_" class="st0" x1="151.8149872" y1="24.3671055" x2="154.3149872" y2="24.3671055"/>
	</g>
</g>
<line id="XMLID_25_" class="st2" x1="292.3434753" y1="39.6548805" x2="292.3434753" y2="36.9236794"/>
<line id="XMLID_7_" class="st2" x1="248.7554626" y1="39.6548805" x2="248.7554626" y2="36.9236794"/>
<line id="XMLID_5_" class="st2" x1="205.167572" y1="39.6548805" x2="205.167572" y2="36.9236794"/>
<line id="XMLID_31_" class="st2" x1="161.5796204" y1="39.6548805" x2="161.5796204" y2="36.9236794"/>
<line id="XMLID_4_" class="st2" x1="30.8159351" y1="39.6704674" x2="30.8159351" y2="36.9392662"/>
<line id="XMLID_9_" class="st2" x1="74.4038239" y1="39.6705666" x2="74.4038239" y2="36.9393654"/>
<line id="XMLID_10_" class="st2" x1="117.9917831" y1="39.6705666" x2="117.9917831" y2="36.9393654"/>
<g id="XMLID_13_">
	<g id="XMLID_32_">
		<g id="XMLID_33_">
			<polygon id="XMLID_34_" class="st3" points="311.3662415,40.1935844 311.3662415,42.2000237 320.804718,39.6726494 
				311.3662415,37.1409111 311.3662415,39.1475334 2.6666615,39.1475334 2.6666615,40.1935844 			"/>
		</g>
	</g>
</g>
<line id="XMLID_6_" class="st2" x1="154.3149414" y1="39.6704712" x2="154.3149414" y2="36.9080925"/>
<line id="XMLID_3_" class="st2" x1="15.5703497" y1="39.6704712" x2="18.3452377" y2="39.6704712"/>
<line id="XMLID_2_" class="st2" x1="293.0595398" y1="39.6704712" x2="290.284668" y2="39.6704712"/>
<g id="XMLID_8_">
	<g id="XMLID_27_">
		<g id="XMLID_28_">
			<polygon id="XMLID_29_" class="st3" points="154.838089,13.1051741 156.8445282,13.1051741 154.3171539,3.6666973 
				151.7854156,13.1051741 153.792038,13.1051741 153.792038,64.4166641 154.838089,64.4166641 			"/>
		</g>
	</g>
</g>
<g id="XMLID_11_">
	<g id="XMLID_12_">
		<path id="XMLID_65_" class="st4" d="M317.2884216,27.0445957c0.1904297,0.2036133,0.3349609,0.4072266,0.4316406,0.6108398
			c0.0703125,0.140625,0.1855469,0.5107422,0.3447266,1.1098633l0.5146484-0.7753906
			c0.1357422-0.1879883,0.3007813-0.3666992,0.4960938-0.5371094c0.1943359-0.1704102,0.3662109-0.2866211,0.5136719-0.3496094
			c0.09375-0.0390625,0.1962891-0.0585938,0.3095703-0.0585938c0.1669922,0,0.3007813,0.0449219,0.4003906,0.1352539
			c0.0986328,0.0898438,0.1484375,0.199707,0.1484375,0.3286133c0,0.1489258-0.0292969,0.2504883-0.0878906,0.3051758
			c-0.1083984,0.0981445-0.2333984,0.1469727-0.3730469,0.1469727c-0.0820313,0-0.1699219-0.0175781-0.2626953-0.0527344
			c-0.1835938-0.0625-0.3056641-0.0942383-0.3681641-0.0942383c-0.09375,0-0.2041016,0.0551758-0.3330078,0.1645508
			c-0.2412109,0.2036133-0.5292969,0.597168-0.8642578,1.1801758l0.4785156,2.0195313
			c0.0742188,0.3095703,0.1367188,0.4951172,0.1875,0.5556641c0.0498047,0.0605469,0.1005859,0.0908203,0.1513672,0.0908203
			c0.0820313,0,0.1777344-0.0449219,0.2861328-0.1347656c0.2138672-0.1806641,0.3974609-0.4150391,0.5488281-0.7050781
			l0.2050781,0.1054688c-0.2451172,0.4619141-0.5566406,0.8457031-0.9345703,1.1513691
			c-0.2138672,0.171875-0.3955078,0.2578125-0.5429688,0.2578125c-0.21875,0-0.3916016-0.1230469-0.5205078-0.3691406
			c-0.0820313-0.1533222-0.2509766-0.8105488-0.5078125-1.9726582c-0.6064453,1.0605469-1.09375,1.7431641-1.4599609,2.04883
			c-0.2373047,0.1953125-0.4667969,0.2929688-0.6894531,0.2929688c-0.1552734,0-0.296875-0.0566406-0.4257813-0.1699219
			c-0.09375-0.0859375-0.140625-0.2011719-0.140625-0.3466816c0-0.1289063,0.0429688-0.2363281,0.1289063-0.3222656
			c0.0859375-0.0869141,0.1914063-0.1298828,0.3154297-0.1298828s0.2568359,0.0625,0.3974609,0.1884766
			c0.1005859,0.0898438,0.1787109,0.1347656,0.2333984,0.1347656c0.0458984,0,0.1064453-0.03125,0.1806641-0.09375
			c0.1835938-0.1494141,0.4316406-0.4697266,0.7480469-0.9628906c0.3144531-0.4931641,0.5214844-0.8496094,0.6191406-1.0688477
			c-0.2421875-0.9511719-0.3730469-1.4541016-0.3916016-1.5092773c-0.0898438-0.2543945-0.2060547-0.4345703-0.3505859-0.5400391
			c-0.1445313-0.105957-0.3564453-0.1586914-0.6367188-0.1586914c-0.0898438,0-0.1923828,0.0039063-0.3085938,0.0117188v-0.2114258
			L317.2884216,27.0445957z"/>
	</g>
</g>
<g id="XMLID_14_">
	<g id="XMLID_20_">
		<path id="XMLID_63_" class="st4" d="M163.6595001,1.9254557c0.1337891,0.2250978,0.2255859,0.435547,0.2763672,0.6313478
			s0.1025391,0.5805664,0.1533203,1.1542969l0.2587891,2.8623044c0.2353516-0.2792969,0.5761719-0.7216797,1.0234375-1.3266602
			c0.2158203-0.2944336,0.4824219-0.6958008,0.7998047-1.2041016c0.1923828-0.3100584,0.3095703-0.5273435,0.3535156-0.6513669
			c0.0234375-0.0620117,0.0351563-0.1259766,0.0351563-0.1918945c0-0.0424805-0.0136719-0.0776367-0.0410156-0.1044922
			c-0.0273438-0.0273438-0.0996094-0.059082-0.2148438-0.0961914c-0.1162109-0.0366211-0.2119141-0.1044922-0.2880859-0.2036133
			c-0.0771484-0.0986328-0.1152344-0.2124023-0.1152344-0.340332c0-0.1586914,0.046875-0.2866211,0.1416016-0.3837891
			c0.09375-0.0966798,0.2119141-0.1455079,0.3525391-0.1455079c0.1728516,0,0.3193359,0.0708008,0.4414063,0.2124025
			c0.1210938,0.1416016,0.1826172,0.3364258,0.1826172,0.5844727c0,0.3066406-0.1064453,0.6567383-0.3183594,1.0498047
			c-0.2109375,0.3940427-0.6191406,0.9975584-1.2236328,1.8120115c-0.6035156,0.8144531-1.3349609,1.7021484-2.1933594,2.664063
			c-0.5927734,0.6630859-1.0322266,1.0810547-1.3183594,1.2539063c-0.2861328,0.171875-0.53125,0.2587891-0.7353516,0.2587891
			c-0.1210938,0-0.2285156-0.0458984-0.3203125-0.1367188c-0.0917969-0.0917969-0.1386719-0.1972656-0.1386719-0.3173828
			c0-0.1513672,0.0644531-0.2890625,0.1914063-0.4130859c0.1279297-0.1240234,0.265625-0.1855469,0.4150391-0.1855469
			c0.078125,0,0.1425781,0.0166016,0.1943359,0.0517578c0.03125,0.0195313,0.0654297,0.0751953,0.1025391,0.1660156
			s0.0712891,0.1523438,0.1025391,0.1835938c0.0195313,0.0185547,0.0439453,0.0283203,0.0712891,0.0283203
			c0.0234375,0,0.0644531-0.0195313,0.1230469-0.0576172c0.2158203-0.1318359,0.4667969-0.3417969,0.7529297-0.6289063
			c0.3769531-0.3798828,0.6552734-0.6894536,0.8359375-0.929688l-0.3300781-3.687988
			c-0.0546875-0.6088867-0.1367188-0.9794922-0.2470703-1.1113281c-0.109375-0.1318359-0.2939453-0.1977539-0.5527344-0.1977539
			c-0.0820313,0-0.2294922,0.0117188-0.4414063,0.0351563l-0.0527344-0.215332L163.6595001,1.9254557z"/>
	</g>
</g>
<polyline id="XMLID_1_" class="st5" points="15.5703497,26.0397549 16.4984207,26.5353031 17.4264717,27.0895882 
	18.3545227,27.7001324 19.2825718,28.3642197 20.2106228,29.0789013 21.1386929,29.84095 22.0667648,30.6469421 
	22.9948158,31.4932995 23.9228649,32.3762054 24.8509369,33.2917671 25.7789669,34.2358475 26.707037,35.2042427 
	27.635088,36.192627 28.563158,37.1965485 29.491209,38.2115211 30.4192791,39.2330284 31.3473301,40.2565041 32.275383,41.2773399 
	33.203434,42.2909813 34.1314812,43.2929344 35.0595551,44.2786789 35.9876251,45.2438087 36.9156761,46.1839981 
	37.8437233,47.0950737 38.7717972,47.9729042 39.6998253,48.8136368 40.6278954,49.6134911 41.5559692,50.3688507 
	42.4840164,51.0763321 43.4120674,51.7328262 44.3401375,52.3353844 45.2681885,52.8812904 46.1962395,53.368103 
	47.1243095,53.793663 48.0523605,54.1560783 48.9804115,54.4536591 49.9084816,54.6851463 50.8365517,54.8494759 
	51.7645836,54.9459038 52.6926537,54.9740334 53.6207047,54.9337082 54.5487556,54.8250847 55.4768257,54.6487541 
	56.4048767,54.4053879 57.3329468,54.0960846 58.2609978,53.7222977 59.1890488,53.2856827 60.1170998,52.7881279 
	61.0451698,52.2319565 61.9732208,51.6195641 62.9012718,50.953743 63.8293419,50.2374496 64.7573929,49.4739075 
	65.6854477,48.6664963 66.6135178,47.818882 67.5415878,46.9347954 68.4696198,46.0182114 69.3976898,45.0732651 
	70.3257599,44.1041603 71.2538071,43.1151886 72.1818619,42.110836 73.1099091,41.0955429 74.0379791,40.0739174 
	74.9660339,39.0504837 75.894104,38.0298042 76.8221512,37.0164413 77.7501984,36.0149574 78.6782532,35.0298424 
	79.6063004,34.0654984 80.5343704,33.1261787 81.4624481,32.2161636 82.3904953,31.3394737 83.3185425,30.5000401 
	84.2466125,29.7016411 85.1746902,28.9478149 86.1027145,28.2419453 87.0307846,27.5871811 87.9588165,26.9864731 
	88.8868866,26.4424953 89.8149567,25.9576893 90.7430267,25.5341759 91.6710587,25.1739235 92.5991287,24.8785076 
	93.5271606,24.6492233 94.4552307,24.4871349 95.3833008,24.392952 96.3113708,24.3671036 97.2394028,24.4097118 
	98.1674728,24.5205765 99.0955048,24.6991882 100.0235748,24.9447575 100.9516449,25.2561874 101.879715,25.6320972 
	102.8077469,26.0707951 103.735817,26.5702782 104.6638489,27.1283798 105.5919189,27.7425823 106.519989,28.4101315 
	107.4480591,29.1280384 108.376091,29.893116 109.3041611,30.7019024 110.232193,31.5508175 111.1602631,32.4360466 
	112.0883331,33.353611 113.0164032,34.2994232 113.9444351,35.2692757 114.8725052,36.2587967 115.8005753,37.2636223 
	116.7286072,38.2791519 117.6566772,39.3009338 118.5847473,40.3243675 119.5128174,41.3448906 120.4408493,42.3578987 
	121.3688812,43.3589096 122.2969513,44.3434372 123.2250214,45.3070335 124.1530914,46.2454109 125.0811234,47.1543999 
	126.0091934,48.029911 126.9372253,48.8680458 127.8652954,49.6650276 128.7933655,50.4173203 129.7214355,51.1215363 
	130.6494751,51.7745285 131.5775452,52.3734283 132.5056152,52.9154778 133.4336395,53.3982811 134.3617096,53.8197098 
	135.2897797,54.1778336 136.2178497,54.4710884 137.1458893,54.6981277 138.0739594,54.857975 139.0019836,54.9498749 
	139.9300537,54.9734802 140.8581238,54.9285927 141.7861938,54.8154869 142.7142334,54.6346321 143.6422577,54.3868561 
	144.5703278,54.0732651 145.4983978,53.6952705 146.4264679,53.2545242 147.354538,52.7530365 148.2825775,52.1930084 
	149.2106476,51.5769958 150.1386719,50.9077148 151.0667419,50.1881943 151.994812,49.4216232 152.9228821,48.6114578 
	153.8509064,47.7612839 154.7789917,46.8749161 155.707016,45.9563255 156.6350861,45.0096474 157.5631561,44.0390892 
	158.4912262,43.0489388 159.4192505,42.0437164 160.3473206,41.0278778 161.2753601,40.0059776 162.2034302,38.9825821 
	163.1315002,37.9622536 164.0595703,36.9495583 164.9876404,35.9490204 165.9156647,34.9651642 166.8437042,34.0023155 
	167.7717743,33.0648422 168.6998444,32.1568756 169.6279144,31.282547 170.5559387,30.4457493 171.4840088,29.6501808 
	172.4120483,28.8994236 173.3401184,28.1968594 174.2681885,27.5455971 175.1962585,26.9485874 176.1242828,26.4084263 
	177.0523529,25.9276314 177.980423,25.5082893 178.9084625,25.1522865 179.8365326,24.8611965 180.7646027,24.6363983 
	181.6926727,24.478796 182.620697,24.3891354 183.5487671,24.3678131 184.4768066,24.4149837 185.4048767,24.5303326 
	186.3329468,24.7134285 187.2610168,24.9634056 188.1890411,25.2791634 189.1170807,25.6592827 190.0451508,26.1020718 
	190.9732208,26.6055279 191.9012909,27.1674461 192.8293152,27.7852669 193.7573853,28.4562798 194.6854553,29.177412 
	195.6134949,29.9454803 196.5415649,30.7570591 197.469635,31.6084919 198.3977051,32.4960022 199.3257294,33.4155731 
	200.2537994,34.3631172 201.181839,35.3344269 202.1099091,36.3250885 203.0379791,37.3307419 203.9660492,38.346859 
	204.8940735,39.3688774 205.8221436,40.3922729 206.7501831,41.4124031 207.6782532,42.4247818 208.6063232,43.4248085 
	209.5343933,44.4080734 210.4624176,45.3701363 211.3904877,46.3067055 212.3185272,47.2136078 213.2465973,48.0867577 
	214.1746674,48.9222565 215.1027374,49.7164078 216.0307617,50.4655914 216.9588013,51.1665039 217.8868713,51.8159981 
	218.8149414,52.4111977 219.7430115,52.9493904 220.6710815,53.4281807 221.5991058,53.8454781 222.5271759,54.1993141 
	223.455246,54.4882431 224.3832855,54.7108383 225.3113556,54.8661957 226.2394257,54.9535751 227.16745,54.9726143 
	228.09552,54.9232025 229.0235596,54.8055725 229.9516296,54.6202736 230.8796997,54.3680916 231.8077698,54.0501709 
	232.7358398,53.6679268 233.6638641,53.2230911 234.5919037,52.7176285 235.5199738,52.1538239 236.4480438,51.5341911 
	237.3761139,50.8614883 238.3041382,50.1387405 239.2322083,49.3691788 240.1602783,48.556221 241.0883179,47.7035294 
	242.0163879,46.8148804 242.944458,45.8943253 243.8725281,44.9459152 244.8005524,43.9738998 245.7285919,42.9826469 
	246.656662,41.9765625 247.5847321,40.9602089 248.5128021,39.9380341 249.4408722,38.9147148 250.3688965,37.8947449 
	251.2969666,36.8827171 252.2250366,35.8831635 253.1530762,34.900528 254.0811462,33.9392509 255.0091705,33.0035896 
	255.9372406,32.097744 256.8653259,31.2258167 257.793335,30.3916149 258.721405,29.5989189 259.6494751,28.8512707 
	260.5775452,28.15201 261.5055847,27.5042496 262.4336243,26.9109383 263.3616943,26.3746719 264.2897644,25.8978901 
	265.2178345,25.4826775 266.1459045,25.1309223 267.0739441,24.8442402 268.0020142,24.6238079 268.9300842,24.4707298 
	269.8580933,24.3855953 270.7861633,24.3688354 271.7142029,24.4205303 272.6422729,24.5404034 273.570343,24.7279453 
	274.4983826,24.9823303 275.4264526,25.3024139 276.3545227,25.6867428 277.2825928,26.133625 278.2106628,26.6410542 
	279.1387024,27.2067471 280.0667114,27.828228 280.9947815,28.5026245 281.9228516,29.2269821 282.8509216,29.9980412 
	283.7789612,30.8123741 284.7070313,31.6663246 285.6351013,32.556076 286.5631409,33.4776573 287.4912109,34.4268913 
	288.419281,35.3996162 289.3473511,36.3914185 290.2753906,37.3978958 291.2033997,38.414566 292.1314697,39.436821 
	293.0595398,40.4601364 "/>
<g id="XMLID_17_">
	<g id="XMLID_18_">
		<path id="XMLID_60_" class="st4" d="M163.3577423,18.6139317l-0.609375,6.5605469
			c-0.03125,0.3066406-0.0478516,0.5087891-0.0478516,0.6054688c0,0.1552734,0.0302734,0.2734375,0.0888672,0.3544922
			c0.0751953,0.1123047,0.1767578,0.1962891,0.3056641,0.25c0.1279297,0.0546875,0.34375,0.0820313,0.6474609,0.0820313
			l-0.0644531,0.2148438h-3.1611328l0.0654297-0.2148438h0.1357422c0.2568359,0,0.4658203-0.0546875,0.6279297-0.1630859
			c0.1142578-0.0742188,0.203125-0.1962891,0.265625-0.3662109c0.0439453-0.1201172,0.0849609-0.4033203,0.125-0.8496094
			l0.0947266-1h-2.296875l-0.8173828,1.0869141c-0.1855469,0.2451172-0.3017578,0.4199219-0.3486328,0.5263672
			c-0.0478516,0.1074219-0.0712891,0.2070313-0.0712891,0.2998047c0,0.1240234,0.0507813,0.2304688,0.1542969,0.3203125
			c0.1025391,0.0888672,0.2714844,0.1376953,0.5087891,0.1455078l-0.0654297,0.2148438h-2.3730469l0.0644531-0.2148438
			c0.2919922-0.0117188,0.5498047-0.1083984,0.7724609-0.2880859c0.2236328-0.1806641,0.5556641-0.5654297,0.9980469-1.1552734
			l4.7939453-6.4091797H163.3577423z M162.1858673,20.5504551l-2.3261719,3.1123047h2.0185547L162.1858673,20.5504551z"/>
	</g>
</g>
<line id="XMLID_16_" class="st2" x1="30.8159351" y1="3.4166667" x2="30.8159351" y2="8.666667"/>
<line id="XMLID_19_" class="st2" x1="117.9917831" y1="3.4166667" x2="117.9917831" y2="8.666667"/>
<g id="XMLID_21_">
	<g id="XMLID_45_">
		<g id="XMLID_46_">
			<polygon id="XMLID_47_" class="st3" points="108.5532761,6.5647683 108.5532761,8.571208 117.9917831,6.0438333 
				108.5532761,3.5121257 108.5532761,5.5187173 84.9999924,5.5187173 84.9999924,6.5647683 			"/>
		</g>
	</g>
</g>
<g id="XMLID_22_">
	<g id="XMLID_49_">
		<g id="XMLID_50_">
			<polygon id="XMLID_51_" class="st3" points="40.2543983,5.5185342 40.2543983,3.5120952 30.8158932,6.0394692 
				40.2543983,8.571208 40.2543983,6.5645852 62.3333473,6.5645852 62.3333473,5.5185342 			"/>
		</g>
	</g>
</g>
<g id="XMLID_24_">
	<g id="XMLID_35_">
		<path id="XMLID_54_" class="st4" d="M74.1658554,6.5934243l-3.3544922,4.0898442h-1.046875l4.5439453-5.5175786
			l0.0722656-0.5151367c0.0703125-0.5620117,0.0410156-0.9423826-0.0898438-1.1435544
			C74.159996,3.3063152,73.972496,3.205241,73.7303085,3.205241c-0.2207031,0-0.4394531,0.0795898-0.6572266,0.2397461
			c-0.21875,0.1601563-0.4130859,0.4194336-0.5849609,0.7788084h-0.2109375
			c0.2158203-0.6093748,0.5292969-1.0961912,0.9423828-1.4628904c0.296875-0.265625,0.5947266-0.3979492,0.8935547-0.3979492
			c0.2617188,0,0.453125,0.1035156,0.5712891,0.3100586c0.1777344,0.3154297,0.2207031,0.8740234,0.1337891,1.6728513
			L74.378746,8.4654951c-0.0644531,0.6171875-0.0390625,1.015625,0.0810547,1.1992188
			c0.1132813,0.1884766,0.2900391,0.28125,0.5292969,0.28125c0.2275391,0,0.4394531-0.0751953,0.6376953-0.2285156
			c0.1992188-0.1513672,0.3671875-0.3955078,0.5078125-0.7314453h0.2285156
			c-0.0292969,0.1015625-0.0527344,0.1777344-0.0703125,0.2285156c-0.1708984,0.5117188-0.4375,0.9228516-0.796875,1.234375
			c-0.2695313,0.234375-0.5595703,0.3505859-0.8701172,0.3505859c-0.2744141,0-0.4814453-0.1142578-0.6201172-0.34375
			c-0.1386719-0.2304688-0.1621094-0.7597656-0.0742188-1.5859375L74.1658554,6.5934243z"/>
	</g>
</g>
<g id="XMLID_23_">
	<g id="XMLID_56_">
		<g id="XMLID_57_">
			<polygon id="XMLID_58_" class="st3" points="272.3087158,16.1897678 272.3087158,18.196207 281.7472229,15.6688337 
				272.3087158,13.137126 272.3087158,15.1437178 248.7554474,15.1437178 248.7554474,16.1897678 			"/>
		</g>
	</g>
</g>
<g id="XMLID_37_">
	<g id="XMLID_43_">
		<path id="XMLID_52_" class="st4" d="M260.3714294,6.908854l1.671875-0.3642578
			c0.1201172,0.2900391,0.2158203,0.5854492,0.2900391,0.8867188c0.1035156,0.4423828,0.1884766,0.9667974,0.2539063,1.5737309
			c0.03125,0.3051758,0.0732422,0.9511719,0.1279297,1.9375c0.4824219-0.5400391,0.7695313-0.875,0.8623047-1.0039063
			c0.5087891-0.7006836,0.8027344-1.1118164,0.8798828-1.2333984c0.1269531-0.2070313,0.2158203-0.3891602,0.265625-0.5458984
			c0.0429688-0.1171875,0.0634766-0.2290044,0.0634766-0.3344731c0-0.1020508-0.0888672-0.2192383-0.2685547-0.3525391
			c-0.1796875-0.1328125-0.2695313-0.2817383-0.2695313-0.4462891c0-0.125,0.0498047-0.2368164,0.1474609-0.3344727
			c0.0986328-0.0976563,0.2158203-0.1469727,0.3505859-0.1469727c0.1621094,0,0.3046875,0.0673828,0.4287109,0.2026367
			c0.1230469,0.1352539,0.1845703,0.3022461,0.1845703,0.5019531s-0.0302734,0.3916016-0.0927734,0.5756836
			c-0.0996094,0.2973638-0.2871094,0.660645-0.5605469,1.0888677c-0.2744141,0.4291992-0.7158203,1.003418-1.3261719,1.7231445
			c-0.0771484,0.0908203-0.5048828,0.5449219-1.2841797,1.3623047h-0.2148438
			c-0.0927734-2.4775391-0.2851563-4.0239263-0.578125-4.6381841c-0.0966797-0.199707-0.2568359-0.2998047-0.4804688-0.2998047
			c-0.0966797,0-0.2333984,0.0175781-0.4111328,0.0532227L260.3714294,6.908854z"/>
	</g>
</g>
<g id="XMLID_36_">
</g>
<g id="XMLID_67_">
</g>
<g id="XMLID_68_">
</g>
<g id="XMLID_69_">
</g>
<g id="XMLID_70_">
</g>
<g id="XMLID_71_">
</g>
</svg>
