<?xml version="1.0" encoding="utf-8"?>
<!-- Generator: Adobe Illustrator 19.0.0, SVG Export Plug-In . SVG Version: 6.00 Build 0)  -->
<svg version="1.1" id="Layer_1" xmlns="http://www.w3.org/2000/svg" xmlns:xlink="http://www.w3.org/1999/xlink" x="0px" y="0px"
	 viewBox="0 0 461.5 189.5" style="enable-background:new 0 0 461.5 189.5;" xml:space="preserve">
<style type="text/css">
	.st0{fill:none;stroke:#D85527;stroke-width:0.5000002;stroke-linejoin:round;stroke-miterlimit:10;}
	.st1{fill:#D85527;}
	.st2{fill:#F15A29;}
	.st3{fill:none;stroke:#000000;stroke-linejoin:round;stroke-miterlimit:10;}
	.st4{fill:#010101;}
</style>
<polyline id="XMLID_138_" class="st0" points="49.8679314,62.2312584 50.4150429,62.2209511 50.9621506,62.2089539 
	51.5092659,62.1950226 52.0563774,62.1788673 52.6034927,62.1601868 53.1506004,62.1386452 53.6977119,62.1138382 
	54.2448196,62.0853386 54.7919312,62.0526619 55.3390465,62.0153084 55.8861542,61.9726524 56.4332733,61.9240913 
	56.980381,61.8689041 57.5274925,61.8063469 58.0746002,61.7355728 58.6217155,61.6557007 59.1688271,61.5657272 
	59.7159348,61.4646568 60.2630539,61.3513298 60.8101616,61.224556 61.3572731,61.0830765 61.9043808,60.9255409 
	62.4514961,60.7504997 62.9986153,60.5564919 63.545723,60.3419228 64.0928345,60.1051865 64.639946,59.8445778 
	65.1870575,59.5583687 65.7341614,59.2447853 66.2812729,58.9020081 66.8283997,58.5281944 67.3754959,58.1215286 
	67.9226151,57.6801872 68.4697266,57.2023506 69.0168381,56.6862602 69.563942,56.1301918 70.1110611,55.5325737 
	70.658165,54.8918648 71.2052765,54.2066765 71.752388,53.4757919 72.2995071,52.6981277 72.8466187,51.8728371 
	73.3937225,50.999279 73.940834,50.0770798 74.4879456,49.1061134 75.0350571,48.0865707 75.5821762,47.0189323 
	76.1292877,45.904068 76.6763992,44.7431641 77.2235031,43.5378113 77.7706146,42.2899399 78.3177261,41.0019341 
	78.8648376,39.6765404 79.4119568,38.3169479 79.9590683,36.9267159 80.5061798,35.5098305 81.0532837,34.0706596 
	81.6003952,32.6139488 82.1475067,31.1448097 82.6946182,29.6686802 83.2417374,28.191309 83.7888489,26.7187176 
	84.3359604,25.2571583 84.8830643,23.8130836 85.4301758,22.3931084 85.9772873,21.0039291 86.5244064,19.6523113 
	87.0715179,18.3450069 87.6186295,17.0887127 88.165741,15.8900223 88.7128448,14.7553396 89.2599564,13.6908636 
	89.8070679,12.7024784 90.354187,11.7957439 90.9012833,10.9758739 91.44841,10.2475452 91.9955215,9.615056 92.5426254,9.082119 
	93.0897369,8.6518917 93.6368561,8.32693 94.1839676,8.1092014 94.7310638,8 95.2781906,8 95.8253021,8.1092014 96.372406,8.32693 
	96.9195175,8.6518917 97.4666367,9.082119 98.0137482,9.615056 98.5608444,10.2475452 99.1079712,10.9758739 99.6550903,11.7957439 
	100.2021866,12.7024784 100.7492981,13.6908636 101.2964172,14.7553396 101.8435287,15.8900223 102.3906326,17.0887127 
	102.9377441,18.3450069 103.4848709,19.6523113 104.0319672,21.0039291 104.5790863,22.3931084 105.1261978,23.8130836 
	105.6733093,25.2571583 106.2204132,26.7187176 106.7675247,28.191309 107.3146515,29.6686802 107.8617477,31.1448097 
	108.4088669,32.6139488 108.9559784,34.0706596 109.5030899,35.5098305 110.0501938,36.9267159 110.5973053,38.3169479 
	111.1444321,39.6765404 111.6915283,41.0019341 112.2386475,42.2899399 112.785759,43.5378113 113.3328705,44.7431641 
	113.8799744,45.904068 114.4270859,47.0189323 114.9742126,48.0865707 115.5213165,49.1061134 116.068428,50.0770798 
	116.6155396,50.999279 117.1626511,51.8728371 117.7097549,52.6981277 118.2568665,53.4757919 118.8039932,54.2066765 
	119.3510971,54.8918648 119.8982086,55.5325737 120.4453201,56.1301918 120.9924316,56.6862602 121.5395355,57.2023506 
	122.086647,57.6801872 122.6337738,58.1215286 123.1808777,58.5281944 123.7279892,58.9020081 124.2751007,59.2447853 
	124.8222122,59.5583687 125.3693161,59.8445778 125.9164276,60.1051865 126.4635468,60.3419228 127.0106583,60.5564919 
	127.5577698,60.7504997 128.1048889,60.9255409 128.6519928,61.0830765 129.1990967,61.224556 129.7462158,61.3513298 
	130.2933197,61.4646568 130.8404388,61.5657272 131.387558,61.6557007 131.9346619,61.7355728 132.481781,61.8063469 
	133.0288849,61.8689041 133.5759888,61.9240913 134.1231079,61.9726524 134.6702118,62.0153084 135.2173309,62.0526619 
	135.7644501,62.0853386 136.311554,62.1138382 136.8586578,62.1386452 137.405777,62.1601868 137.9528961,62.1788673 
	138.5,62.1950226 "/>
<g id="XMLID_142_">
	<g id="XMLID_36_">
		<g id="XMLID_37_">
			<polygon id="XMLID_38_" class="st1" points="158.6593018,35.3423538 158.6593018,37.7743912 170.0999146,34.7109146 
				158.6593018,31.6421585 158.6593018,34.074379 120.4318542,34.074379 120.4318542,35.3423538 			"/>
		</g>
	</g>
</g>
<g id="XMLID_3_">
	<g id="XMLID_10_">
		<path id="XMLID_31_" class="st2" d="M140.6298828,26.8632813l-1.8066406-4.2124023
			c-0.2177734-0.5073242-0.3881836-0.8286133-0.5102539-0.9643555c-0.0878906-0.1005859-0.2177734-0.168457-0.3901367-0.203125
			v-0.2148438h2.8500977v0.2148438c-0.1791992,0-0.3017578,0.0327148-0.3666992,0.0986328
			c-0.0917969,0.0854492-0.1376953,0.1860352-0.1376953,0.3022461c0,0.1430664,0.0839844,0.4121094,0.2524414,0.8076172
			l0.8837891,2.0385742l0.7050781-1.7597656c0.2021484-0.503418,0.3037109-0.8598633,0.3037109-1.0693359
			c0-0.1196289-0.0429688-0.2177734-0.1289063-0.2929688c-0.0859375-0.0756836-0.2382813-0.1171875-0.4560547-0.125v-0.2148438
			h1.7548828v0.2148438c-0.1679688,0.0229492-0.3056641,0.0869141-0.4130859,0.1914063
			c-0.1064453,0.1049805-0.2675781,0.4125977-0.4814453,0.9238281l-1.7890625,4.2646484H140.6298828z"/>
	</g>
</g>
<line id="XMLID_137_" class="st3" x1="34" y1="62.2312584" x2="416" y2="62.2312584"/>
<polyline id="XMLID_144_" class="st0" points="144.8679352,117.4625168 145.628006,117.4545593 146.3880768,117.4452972 
	147.1481476,117.4345474 147.9082336,117.4220734 148.6683044,117.4076614 149.4283752,117.3910294 150.188446,117.3718796 
	150.9485168,117.349884 151.7086029,117.3246613 152.4686737,117.2958298 153.2287445,117.2629013 153.9888306,117.2254181 
	154.7489014,117.1828232 155.5089722,117.1345367 156.269043,117.0799026 157.0291138,117.0182495 157.7891998,116.9488068 
	158.5492706,116.8707886 159.3093567,116.7833099 160.0694275,116.6854553 160.8294983,116.5762482 161.5895691,116.4546509 
	162.3496399,116.3195419 163.109726,116.1697845 163.8697968,116.0041656 164.6298676,115.821434 165.3899384,115.6202698 
	166.1500244,115.399353 166.9100952,115.1572952 167.670166,114.8927155 168.4302521,114.6041718 169.1903076,114.2902756 
	169.9503937,113.9496078 170.7104645,113.5807724 171.4705353,113.1824112 172.2306061,112.7531891 172.9906921,112.291893 
	173.7507629,111.7973404 174.5108337,111.2684479 175.2709045,110.7042923 176.0309906,110.1040268 176.7910614,109.4669952 
	177.5511169,108.7927094 178.311203,108.0808716 179.0712738,107.331398 179.8313599,106.544426 180.5914307,105.7203293 
	181.3515015,104.8597794 182.1115875,103.9636993 182.8716431,103.0333023 183.6317291,102.0700836 184.3917999,101.0758896 
	185.1518707,100.0528412 185.9119568,99.0033875 186.6720276,97.9302902 187.4321136,96.8366089 188.1921692,95.7257385 
	188.95224,94.6013184 189.712326,93.4673157 190.4723969,92.3279114 191.2324829,91.1875458 191.9925537,90.0508728 
	192.7526245,88.9227142 193.5126953,87.8080521 194.2727661,86.711998 195.0328369,85.6397095 195.792923,84.5964127 
	196.5529938,83.5873184 197.3130798,82.6176071 198.0731506,81.6923523 198.8332062,80.8165054 199.5932922,79.9948502 
	200.353363,79.2319336 201.1134491,78.5320358 201.8735046,77.8991852 202.6335907,77.336998 203.3936768,76.848793 
	204.1537323,76.4374237 204.9138184,76.1053391 205.6738892,75.8545074 206.43396,75.6864395 207.1940308,75.60215 
	207.9541168,75.60215 208.7142029,75.6864395 209.4742584,75.8545074 210.2343292,76.1053391 210.9944153,76.4374237 
	211.7544861,76.848793 212.5145416,77.336998 213.2746429,77.8991852 214.0347137,78.5320358 214.7947845,79.2319336 
	215.5548553,79.9948502 216.3149261,80.8165054 217.0750122,81.6923523 217.8350677,82.6176071 218.5951538,83.5873184 
	219.3552399,84.5964127 220.1152954,85.6397095 220.8753815,86.711998 221.6354523,87.8080521 222.3955383,88.9227142 
	223.1555939,90.0508728 223.9156647,91.1875458 224.675766,92.3279114 225.4358215,93.4673157 226.1959076,94.6013184 
	226.9559784,95.7257385 227.7160492,96.8366089 228.47612,97.9302902 229.2361908,99.0033875 229.9962921,100.0528412 
	230.7563477,101.0758896 231.5164185,102.0700836 232.2765045,103.0333023 233.0365753,103.9636993 233.7966309,104.8597794 
	234.5567169,105.7203293 235.316803,106.544426 236.0768738,107.331398 236.8369446,108.0808716 237.5970154,108.7927094 
	238.3571014,109.4669952 239.117157,110.1040268 239.877243,110.7042923 240.6373291,111.2684479 241.3973846,111.7973404 
	242.1574707,112.291893 242.9175415,112.7531891 243.6776276,113.1824112 244.4376831,113.5807724 245.1977539,113.9496078 
	245.9578552,114.2902756 246.7179108,114.6041718 247.4779816,114.8927155 248.2380676,115.1572952 248.9981384,115.399353 
	249.7582092,115.6202698 250.51828,115.821434 251.2783508,116.0041656 252.0384369,116.1697845 252.7985077,116.3195419 
	253.5585938,116.4546509 254.3186646,116.5762482 255.0787201,116.6854553 255.8388062,116.7833099 256.598877,116.8707886 
	257.3589478,116.9488068 258.1190186,117.0182495 258.8791199,117.0799026 259.6391907,117.1345367 260.3992615,117.1828232 
	261.1593323,117.2254181 261.9194031,117.2629013 262.6794739,117.2958298 263.4395447,117.3246613 264.199646,117.349884 
	264.9597168,117.3718796 265.7197571,117.3910294 266.4798584,117.4076614 267.2399292,117.4220734 268,117.4345474 "/>
<g id="XMLID_143_">
	<g id="XMLID_32_">
		<g id="XMLID_33_">
			<polygon id="XMLID_34_" class="st1" points="278.6593018,90.573616 278.6593018,93.0056534 290.0999146,89.9421768 
				278.6593018,86.8733902 278.6593018,89.3056412 240.4318542,89.3056412 240.4318542,90.573616 			"/>
		</g>
	</g>
</g>
<g id="XMLID_140_">
	<g id="XMLID_141_">
		<path id="XMLID_23_" class="st2" d="M260.6298828,82.0947266l-1.8066406-4.2128906
			c-0.2177734-0.5068359-0.3876953-0.828125-0.5097656-0.9638672c-0.0878906-0.1005859-0.2177734-0.1689453-0.390625-0.203125V76.5
			h2.8505859v0.2148438c-0.1796875,0-0.3017578,0.0322266-0.3671875,0.0986328
			c-0.0917969,0.0849609-0.1376953,0.1855469-0.1376953,0.3017578c0,0.1435547,0.0839844,0.4121094,0.2529297,0.8076172
			l0.8837891,2.0390625l0.7050781-1.7597656c0.2021484-0.5039063,0.3037109-0.8603516,0.3037109-1.0693359
			c0-0.1201172-0.0429688-0.2177734-0.1289063-0.2929688c-0.0859375-0.0761719-0.2382813-0.1171875-0.4560547-0.125V76.5h1.7548828
			v0.2148438c-0.1679688,0.0224609-0.3056641,0.0869141-0.4130859,0.1914063
			c-0.1064453,0.1044922-0.2675781,0.4121094-0.4814453,0.9238281l-1.7890625,4.2646484H260.6298828z"/>
	</g>
</g>
<line id="XMLID_139_" class="st3" x1="34" y1="117.4625168" x2="416" y2="117.4625168"/>
<polyline id="XMLID_7_" class="st0" points="238.5,179.6021423 239.5119476,179.5980835 240.5238647,179.593338 
	241.5358124,179.5878296 242.54776,179.5814362 243.5596924,179.5740662 244.5716248,179.5655518 245.5835724,179.5557404 
	246.5955048,179.5444794 247.6074371,179.5315704 248.6193848,179.5167999 249.6313171,179.499939 250.6432648,179.4807434 
	251.6551971,179.4589386 252.6671295,179.4342194 253.6790619,179.40625 254.6910095,179.3746796 255.7029419,179.3391113 
	256.7148743,179.2991791 257.7268372,179.2543793 258.7387695,179.2042847 259.7507019,179.1483612 260.7626343,179.0861053 
	261.7745667,179.016922 262.7865295,178.9402466 263.7984619,178.8554382 264.8103943,178.7618866 265.8223267,178.6588745 
	266.834259,178.5457611 267.8461914,178.4218292 268.8581543,178.2863617 269.8700867,178.1386108 270.882019,177.97789 
	271.8939514,177.8034668 272.9058838,177.6146088 273.9178467,177.4106445 274.9297791,177.1908722 275.9417114,176.9546814 
	276.9536438,176.7014618 277.9655762,176.4306641 278.9775085,176.1417999 279.9894714,175.8344421 281.0014038,175.5082703 
	282.0133362,175.1630249 283.0252686,174.7985535 284.0372009,174.4148102 285.0491333,174.0118561 286.0610962,173.5899048 
	287.0730286,173.149292 288.0849609,172.6904755 289.0968933,172.2140961 290.1088257,171.7209015 291.1207581,171.2118683 
	292.1327209,170.6880341 293.1446533,170.1506958 294.1565857,169.6012421 295.1685486,169.0412598 296.1804504,168.4724731 
	297.1924133,167.8967438 298.2043457,167.3161163 299.2162781,166.7327118 300.2282104,166.148819 301.2401733,165.5668182 
	302.2521057,164.9891815 303.2640381,164.418457 304.2759705,163.857254 305.2879028,163.3082123 306.2998352,162.7740326 
	307.3117981,162.2573547 308.3237305,161.7608337 309.3356628,161.2870941 310.3475952,160.8386383 311.3595276,160.4179382 
	312.37146,160.027298 313.3834229,159.6689453 314.3953247,159.3449097 315.4072876,159.0570526 316.4192505,158.8070831 
	317.4311523,158.5964508 318.4431152,158.4264221 319.4550476,158.2979889 320.46698,158.2119446 321.4789124,158.1687775 
	322.4908752,158.1687775 323.5028076,158.2119446 324.51474,158.2979889 325.5266724,158.4264221 326.5386047,158.5964508 
	327.5505371,158.8070831 328.5624695,159.0570526 329.5744324,159.3449097 330.5863647,159.6689453 331.5982971,160.027298 
	332.6102295,160.4179382 333.6221619,160.8386383 334.6341248,161.2870941 335.6460266,161.7608337 336.6579895,162.2573547 
	337.6699524,162.7740326 338.6818542,163.3082123 339.6938171,163.857254 340.7057495,164.418457 341.7176819,164.9891815 
	342.7296143,165.5668182 343.7415466,166.148819 344.7535095,166.7327118 345.7654419,167.3161163 346.7773743,167.8967438 
	347.7893066,168.4724731 348.801239,169.0412598 349.8131714,169.6012421 350.8251038,170.1506958 351.8370667,170.6880341 
	352.848999,171.2118683 353.8609314,171.7209015 354.8728638,172.2140961 355.8848267,172.6904755 356.8967285,173.149292 
	357.9086914,173.5899048 358.9206543,174.0118561 359.9325562,174.4148102 360.9444885,174.7985535 361.9564514,175.1630249 
	362.9683838,175.5082703 363.9803162,175.8344421 364.9922485,176.1417999 366.0042114,176.4306641 367.0161438,176.7014618 
	368.0280762,176.9546814 369.0400085,177.1908722 370.0519409,177.4106445 371.0638733,177.6146088 372.0758057,177.8034668 
	373.0877686,177.97789 374.0997009,178.1386108 375.1116333,178.2863617 376.1235657,178.4218292 377.1355286,178.5457611 
	378.1474304,178.6588745 379.1593933,178.7618866 380.1713257,178.8554382 381.1832581,178.9402466 382.1951904,179.016922 
	383.2071533,179.0861053 384.2190857,179.1483612 385.2310181,179.2042847 386.2429504,179.2543793 387.2548828,179.2991791 
	388.2668457,179.3391113 389.2787781,179.3746796 390.2907104,179.40625 391.3026428,179.4342194 392.3145752,179.4589386 
	393.3265076,179.4807434 394.3384705,179.499939 395.3504028,179.5167999 396.3623352,179.5315704 397.3742676,179.5444794 
	398.3862305,179.5557404 399.3981323,179.5655518 400.4100952,179.5740662 401.4220581,179.5814362 402.43396,179.5878296 "/>
<g id="XMLID_6_">
	<g id="XMLID_28_">
		<g id="XMLID_29_">
			<polygon id="XMLID_30_" class="st1" points="399.0932617,152.7132416 399.0932617,155.1452789 410.5338745,152.0818024 
				399.0932617,149.0130463 399.0932617,151.4452972 360.8658142,151.4452972 360.8658142,152.7132416 			"/>
		</g>
	</g>
</g>
<g id="XMLID_4_">
	<g id="XMLID_5_">
		<path id="XMLID_21_" class="st2" d="M381.0644531,144.234375l-1.8066406-4.2128906
			c-0.2177734-0.5068359-0.3886719-0.828125-0.5107422-0.9638672c-0.0878906-0.1005859-0.2177734-0.1689453-0.3896484-0.203125
			v-0.2148438h2.8496094v0.2148438c-0.1787109,0-0.3017578,0.0322266-0.3662109,0.0986328
			c-0.0917969,0.0849609-0.1376953,0.1855469-0.1376953,0.3017578c0,0.1435547,0.0839844,0.4121094,0.2519531,0.8076172
			l0.8837891,2.0390625l0.7050781-1.7597656c0.2021484-0.5039063,0.3037109-0.8603516,0.3037109-1.0693359
			c0-0.1201172-0.0429688-0.2177734-0.1289063-0.2929688c-0.0859375-0.0761719-0.2382813-0.1171875-0.4560547-0.125v-0.2148438
			h1.7548828v0.2148438c-0.1679688,0.0224609-0.3056641,0.0869141-0.4130859,0.1914063
			c-0.1064453,0.1044922-0.2675781,0.4121094-0.4814453,0.9238281l-1.7890625,4.2646484H381.0644531z"/>
	</g>
</g>
<line id="XMLID_1_" class="st3" x1="33.4339676" y1="179.6021423" x2="415.43396" y2="179.6021423"/>
<g id="XMLID_9_">
	<g id="XMLID_11_">
		<path id="XMLID_19_" class="st4" d="M429.3710938,56.9736328c0.1875,0.2011719,0.328125,0.4033203,0.4238281,0.6044922
			c0.0693359,0.1386719,0.1816406,0.5048828,0.3388672,1.0976563l0.5048828-0.7666016
			c0.1337891-0.1865234,0.2958984-0.3632813,0.4873047-0.5322266c0.1914063-0.1679688,0.359375-0.2832031,0.5048828-0.3457031
			c0.0917969-0.0380859,0.1933594-0.0576172,0.3037109-0.0576172c0.1640625,0,0.2958984,0.0449219,0.3925781,0.1337891
			c0.0976563,0.0888672,0.1464844,0.1972656,0.1464844,0.3251953c0,0.1474609-0.0283203,0.2480469-0.0859375,0.3017578
			c-0.1074219,0.0966797-0.2294922,0.1455078-0.3671875,0.1455078c-0.0800781,0-0.1660156-0.0175781-0.2578125-0.0527344
			c-0.1796875-0.0615234-0.2998047-0.0927734-0.3613281-0.0927734c-0.0917969,0-0.2011719,0.0546875-0.3271484,0.1630859
			c-0.2373047,0.2011719-0.5195313,0.5908203-0.8486328,1.1679688l0.4707031,1.9980469
			c0.0722656,0.3066406,0.1337891,0.4892578,0.1835938,0.5488281c0.0488281,0.0605469,0.0986328,0.0908203,0.1484375,0.0908203
			c0.0800781,0,0.1738281-0.0449219,0.28125-0.1337891c0.2099609-0.1787109,0.3896484-0.4101563,0.5390625-0.6972656
			l0.2011719,0.1044922c-0.2412109,0.4570313-0.546875,0.8369141-0.9179688,1.1386719
			c-0.2099609,0.1699219-0.3876953,0.2558594-0.5332031,0.2558594c-0.2148438,0-0.3847656-0.1220703-0.5107422-0.3662109
			c-0.0800781-0.1513672-0.2460938-0.8017578-0.4990234-1.9521484c-0.5966797,1.0498047-1.0742188,1.7255859-1.4335938,2.0273438
			c-0.2333984,0.1943359-0.4589844,0.2910156-0.6767578,0.2910156c-0.1523438,0-0.2929688-0.0566406-0.4189453-0.1689453
			c-0.0917969-0.0849609-0.1376953-0.1992188-0.1376953-0.3427734c0-0.1279297,0.0429688-0.234375,0.1269531-0.3193359
			s0.1865234-0.1279297,0.3085938-0.1279297c0.1230469,0,0.2529297,0.0625,0.390625,0.1865234
			c0.0996094,0.0888672,0.1757813,0.1328125,0.2294922,0.1328125c0.0458984,0,0.1044922-0.0302734,0.1777344-0.0927734
			c0.1796875-0.1464844,0.4248047-0.4648438,0.7333984-0.9521484c0.3105469-0.4882813,0.5126953-0.8408203,0.6083984-1.0576172
			c-0.2373047-0.9414063-0.3652344-1.4394531-0.3837891-1.4931641c-0.0878906-0.2519531-0.203125-0.4296875-0.34375-0.5351563
			c-0.1425781-0.1044922-0.3505859-0.15625-0.6259766-0.15625c-0.0878906,0-0.1884766,0.0039063-0.3037109,0.0117188v-0.2089844
			L429.3710938,56.9736328z"/>
	</g>
</g>
<g id="XMLID_8_">
	<g id="XMLID_12_">
		<path id="XMLID_16_" class="st4" d="M429.3710938,112.2050781c0.1875,0.2011719,0.328125,0.4033203,0.4238281,0.6044922
			c0.0693359,0.1386719,0.1816406,0.5048828,0.3388672,1.0976563l0.5048828-0.7666016
			c0.1337891-0.1865234,0.2958984-0.3632813,0.4873047-0.5322266c0.1914063-0.1679688,0.359375-0.2832031,0.5048828-0.3457031
			c0.0917969-0.0380859,0.1933594-0.0576172,0.3037109-0.0576172c0.1640625,0,0.2958984,0.0449219,0.3925781,0.1337891
			c0.0976563,0.0888672,0.1464844,0.1972656,0.1464844,0.3251953c0,0.1474609-0.0283203,0.2480469-0.0859375,0.3017578
			c-0.1074219,0.0966797-0.2294922,0.1455078-0.3671875,0.1455078c-0.0800781,0-0.1660156-0.0175781-0.2578125-0.0527344
			c-0.1796875-0.0615234-0.2998047-0.0927734-0.3613281-0.0927734c-0.0917969,0-0.2011719,0.0546875-0.3271484,0.1630859
			c-0.2373047,0.2011719-0.5195313,0.5908203-0.8486328,1.1679688l0.4707031,1.9980469
			c0.0722656,0.3066406,0.1337891,0.4892578,0.1835938,0.5488281c0.0488281,0.0605469,0.0986328,0.0908203,0.1484375,0.0908203
			c0.0800781,0,0.1738281-0.0449219,0.28125-0.1337891c0.2099609-0.1787109,0.3896484-0.4101563,0.5390625-0.6972656
			l0.2011719,0.1044922c-0.2412109,0.4570313-0.546875,0.8369141-0.9179688,1.1386719
			c-0.2099609,0.1699219-0.3876953,0.2558594-0.5332031,0.2558594c-0.2148438,0-0.3847656-0.1220703-0.5107422-0.3662109
			c-0.0800781-0.1513672-0.2460938-0.8017578-0.4990234-1.9521484c-0.5966797,1.0498047-1.0742188,1.7255859-1.4335938,2.0273438
			c-0.2333984,0.1943359-0.4589844,0.2910156-0.6767578,0.2910156c-0.1523438,0-0.2929688-0.0566406-0.4189453-0.1689453
			c-0.0917969-0.0849609-0.1376953-0.1992188-0.1376953-0.3427734c0-0.1279297,0.0429688-0.234375,0.1269531-0.3193359
			s0.1865234-0.1279297,0.3085938-0.1279297c0.1230469,0,0.2529297,0.0625,0.390625,0.1865234
			c0.0996094,0.0888672,0.1757813,0.1328125,0.2294922,0.1328125c0.0458984,0,0.1044922-0.0302734,0.1777344-0.0927734
			c0.1796875-0.1464844,0.4248047-0.4648438,0.7333984-0.9521484c0.3105469-0.4882813,0.5126953-0.8408203,0.6083984-1.0576172
			c-0.2373047-0.9414063-0.3652344-1.4394531-0.3837891-1.4931641c-0.0878906-0.2519531-0.203125-0.4296875-0.34375-0.5351563
			c-0.1425781-0.1044922-0.3505859-0.15625-0.6259766-0.15625c-0.0878906,0-0.1884766,0.0039063-0.3037109,0.0117188v-0.2089844
			L429.3710938,112.2050781z"/>
	</g>
</g>
<g id="XMLID_13_">
	<g id="XMLID_17_">
		<path id="XMLID_14_" class="st4" d="M429.3710938,174.3447266c0.1875,0.2011719,0.328125,0.4033203,0.4238281,0.6044922
			c0.0693359,0.1386719,0.1816406,0.5048828,0.3388672,1.0976563l0.5048828-0.7666016
			c0.1337891-0.1865234,0.2958984-0.3632813,0.4873047-0.5322266c0.1914063-0.1679688,0.359375-0.2832031,0.5048828-0.3457031
			c0.0917969-0.0380859,0.1933594-0.0576172,0.3037109-0.0576172c0.1640625,0,0.2958984,0.0449219,0.3925781,0.1337891
			c0.0976563,0.0888672,0.1464844,0.1972656,0.1464844,0.3251953c0,0.1474609-0.0283203,0.2480469-0.0859375,0.3017578
			c-0.1074219,0.0966797-0.2294922,0.1455078-0.3671875,0.1455078c-0.0800781,0-0.1660156-0.0175781-0.2578125-0.0527344
			c-0.1796875-0.0615234-0.2998047-0.0927734-0.3613281-0.0927734c-0.0917969,0-0.2011719,0.0546875-0.3271484,0.1630859
			c-0.2373047,0.2011719-0.5195313,0.5908203-0.8486328,1.1679688l0.4707031,1.9980469
			c0.0722656,0.3066406,0.1337891,0.4892578,0.1835938,0.5488281c0.0488281,0.0605469,0.0986328,0.0908203,0.1484375,0.0908203
			c0.0800781,0,0.1738281-0.0449219,0.28125-0.1337891c0.2099609-0.1787109,0.3896484-0.4101563,0.5390625-0.6972656
			l0.2011719,0.1044922c-0.2412109,0.4570313-0.546875,0.8369141-0.9179688,1.1386719
			c-0.2099609,0.1699219-0.3876953,0.2558594-0.5332031,0.2558594c-0.2148438,0-0.3847656-0.1220703-0.5107422-0.3662109
			c-0.0800781-0.1513672-0.2460938-0.8017578-0.4990234-1.9521484c-0.5966797,1.0498047-1.0742188,1.7255859-1.4335938,2.0273438
			c-0.2333984,0.1943359-0.4589844,0.2910156-0.6767578,0.2910156c-0.1523438,0-0.2929688-0.0566406-0.4189453-0.1689453
			c-0.0917969-0.0849609-0.1376953-0.1992188-0.1376953-0.3427734c0-0.1279297,0.0429688-0.234375,0.1269531-0.3193359
			s0.1865234-0.1279297,0.3085938-0.1279297c0.1230469,0,0.2529297,0.0625,0.390625,0.1865234
			c0.0996094,0.0888672,0.1757813,0.1328125,0.2294922,0.1328125c0.0458984,0,0.1044922-0.0302734,0.1777344-0.0927734
			c0.1796875-0.1464844,0.4248047-0.4648438,0.7333984-0.9521484c0.3105469-0.4882813,0.5126953-0.8408203,0.6083984-1.0576172
			c-0.2373047-0.9414063-0.3652344-1.4394531-0.3837891-1.4931641c-0.0878906-0.2519531-0.203125-0.4296875-0.34375-0.5351563
			c-0.1425781-0.1044922-0.3505859-0.15625-0.6259766-0.15625c-0.0878906,0-0.1884766,0.0039063-0.3037109,0.0117188v-0.2089844
			L429.3710938,174.3447266z"/>
	</g>
</g>
<g id="XMLID_2_">
</g>
<g id="XMLID_39_">
</g>
<g id="XMLID_40_">
</g>
<g id="XMLID_41_">
</g>
<g id="XMLID_42_">
</g>
<g id="XMLID_43_">
</g>
</svg>
