<?xml version="1.0" encoding="utf-8"?>
<!-- Generator: Adobe Illustrator 19.0.0, SVG Export Plug-In . SVG Version: 6.00 Build 0)  -->
<svg version="1.1" id="Layer_1" xmlns="http://www.w3.org/2000/svg" xmlns:xlink="http://www.w3.org/1999/xlink" x="0px" y="0px"
	 viewBox="0 0 612 529.4735107" style="enable-background:new 0 0 612 529.4735107;" xml:space="preserve">
<style type="text/css">
	.st0{fill:none;stroke:#1173BB;stroke-linejoin:round;stroke-miterlimit:10;}
	.st1{fill:none;stroke:#D85527;stroke-linejoin:round;stroke-miterlimit:10;}
	.st2{fill:none;stroke:#ECB121;stroke-linejoin:round;stroke-miterlimit:10;}
	.st3{fill:none;stroke:#7F2F8D;stroke-linejoin:round;stroke-miterlimit:10;}
	.st4{fill:none;stroke:#A7A9AC;stroke-width:0.5000002;stroke-linejoin:round;stroke-miterlimit:10;}
	.st5{fill:#A7A9AC;}
	.st6{fill:#010101;}
	.st7{fill:#1173BB;}
	.st8{fill:#D85527;}
	.st9{fill:#ECB121;}
	.st10{fill:#7F2F8D;}
</style>
<g id="XMLID_7_">
	<g id="XMLID_30_">
		<g id="XMLID_31_">
			<polygon id="XMLID_32_" points="579.5275879,478.5811157 579.5275879,481.0131226 590.9682007,477.949646 
				579.5275879,474.8809204 579.5275879,477.3131104 21.0653019,477.3131104 21.0653019,478.5811157 			"/>
		</g>
	</g>
</g>
<g id="XMLID_8_">
	<g id="XMLID_28_">
		<g id="XMLID_42_">
			<polygon id="XMLID_50_" points="579.5275879,369.2403564 579.5275879,371.6724243 590.9682007,368.6089478 
				579.5275879,365.5401611 579.5275879,367.9724121 21.0653019,367.9724121 21.0653019,369.2403564 			"/>
		</g>
	</g>
</g>
<g id="XMLID_9_">
	<g id="XMLID_52_">
		<g id="XMLID_117_">
			<polygon id="XMLID_118_" points="579.5275879,250.2112427 579.5275879,252.64328 590.9682007,249.5798035 
				579.5275879,246.5110474 579.5275879,248.9432678 21.0653019,248.9432678 21.0653019,250.2112427 			"/>
		</g>
	</g>
</g>
<g id="XMLID_10_">
	<g id="XMLID_120_">
		<g id="XMLID_121_">
			<polygon id="XMLID_122_" points="579.5275879,140.1784973 579.5275879,142.6105347 590.9682007,139.5470581 
				579.5275879,136.4782715 579.5275879,138.9105225 21.0653019,138.9105225 21.0653019,140.1784973 			"/>
		</g>
	</g>
</g>
<polyline id="XMLID_4_" class="st0" points="106.75,477.9470215 108.7526779,477.3011475 110.7553635,476.6554565 
	112.7580338,476.0100708 114.7607193,475.3651428 116.7633972,474.7208862 118.7660828,474.0774536 120.7687607,473.4349365 
	122.7714462,472.7935791 124.7741241,472.1535034 126.7768021,471.5148621 128.77948,470.8778076 130.7821655,470.2425537 
	132.7848511,469.6091919 134.7875366,468.9779053 136.7902222,468.348877 138.7928925,467.722229 140.795578,467.098114 
	142.7982483,466.4767151 144.8009186,465.8581848 146.8036041,465.2426453 148.8062897,464.6303101 150.8089752,464.0212708 
	152.8116455,463.4156799 154.8143311,462.8137512 156.8170166,462.2155762 158.8197021,461.6213074 160.8223724,461.0311279 
	162.825058,460.4451599 164.8277283,459.8635559 166.8304291,459.286438 168.8330994,458.7139893 170.8357697,458.1463318 
	172.8384552,457.5836182 174.8411407,457.0259399 176.8438263,456.4735107 178.8464966,455.9264221 180.8491821,455.3848267 
	182.8518524,454.8488464 184.8545532,454.318634 186.8572235,453.7943115 188.8599091,453.276001 190.8625793,452.763855 
	192.8652649,452.2579651 194.8679504,451.7584839 196.8706207,451.2655334 198.8733063,450.7792053 200.8759918,450.2996826 
	202.8786774,449.8270569 204.8813477,449.3614197 206.8840332,448.9028931 208.8867188,448.4516296 210.889389,448.0076904 
	212.8920746,447.571228 214.8947449,447.142334 216.8974304,446.7211304 218.900116,446.3077087 220.9028015,445.9021606 
	222.9054718,445.5046082 224.9081573,445.1151123 226.9108582,444.7338257 228.9135284,444.3608093 230.9161987,443.9961853 
	232.9188843,443.6399841 234.9215546,443.2923584 236.9242554,442.9533386 238.9269257,442.6230774 240.9295959,442.3016052 
	242.9322815,441.9890137 244.9349823,441.6853943 246.9376526,441.3908081 248.9403381,441.1053162 250.9430084,440.82901 
	252.9456787,440.5619812 254.9483795,440.3042603 256.9510498,440.0559082 258.9537354,439.8169861 260.9564209,439.5875854 
	262.9591064,439.3677368 264.961792,439.1575317 266.9644775,438.9569702 268.9671326,438.7661133 270.9698181,438.5850525 
	272.9725037,438.4137878 274.9751587,438.2523499 276.9778442,438.1008301 278.9805298,437.9592285 280.9831848,437.8276062 
	282.9859009,437.7059937 284.9885864,437.5943909 286.9912415,437.4928284 288.9939575,437.4013977 290.9966125,437.3200378 
	292.9992981,437.2487793 295.0019836,437.1877136 297.0046387,437.1367798 299.0073547,437.0960083 301.0100098,437.0654297 
	303.0126953,437.0450439 305.0154114,437.0348511 307.0180664,437.0348511 309.020752,437.0450439 311.0234375,437.0654297 
	313.0260925,437.0960083 315.0287781,437.1367798 317.0314636,437.1877136 319.0341492,437.2487793 321.0368347,437.3200378 
	323.0394897,437.4013977 325.0422058,437.4928284 327.0448608,437.5943909 329.0475464,437.7059937 331.0502319,437.8276062 
	333.0529175,437.9592285 335.055603,438.1008301 337.0582581,438.2523499 339.0609436,438.4137878 341.0636292,438.5850525 
	343.0663147,438.7661133 345.0690002,438.9569702 347.0716858,439.1575317 349.0743408,439.3677368 351.0770569,439.5875854 
	353.0797119,439.8169861 355.0823975,440.0559082 357.085083,440.3042603 359.087738,440.5619812 361.0904541,440.82901 
	363.0931091,441.1053162 365.0957947,441.3908081 367.0984802,441.6853943 369.1011353,441.9890137 371.1038513,442.3016052 
	373.1065063,442.6230774 375.1091919,442.9533386 377.111908,443.2923584 379.1145935,443.6399841 381.1172485,443.9961853 
	383.1199341,444.3608093 385.1226196,444.7338257 387.1253052,445.1151123 389.1279907,445.5046082 391.1306458,445.9021606 
	393.1333313,446.3077087 395.1360168,446.7211304 397.1387024,447.142334 399.1413879,447.571228 401.144043,448.0076904 
	403.1467285,448.4516296 405.1494141,448.9028931 407.1520996,449.3614197 409.1547852,449.8270569 411.1574402,450.2996826 
	413.1601257,450.7792053 415.1628113,451.2655334 417.1655273,451.7584839 419.1682129,452.2579651 421.1708679,452.763855 
	423.1735535,453.276001 425.1762695,453.7943115 427.1789246,454.318634 429.1816101,454.8488464 431.1842651,455.3848267 
	433.1869507,455.9264221 435.1896667,456.4735107 437.1923218,457.0259399 439.1950073,457.5836182 441.1976624,458.1463318 
	443.2003479,458.7139893 445.2030029,459.286438 447.205719,459.8635559 449.2084045,460.4451599 451.2110596,461.0311279 
	453.2137451,461.6213074 455.2164001,462.2155762 457.2191162,462.8137512 459.2218323,463.4156799 461.2245178,464.0212708 
	463.2271729,464.6303101 465.2298584,465.2426453 467.2325134,465.8581848 469.235199,466.4767151 471.237915,467.098114 
	473.2405701,467.722229 475.2432556,468.348877 477.2459106,468.9779053 479.2485962,469.6091919 481.2513123,470.2425537 
	483.2539673,470.8778076 485.2566528,471.5148621 487.2593079,472.1535034 489.2619934,472.7935791 491.2647095,473.4349365 
	493.2673645,474.0774536 495.27005,474.7208862 497.2727051,475.3651428 499.2753906,476.0100708 501.2781067,476.6554565 
	503.2808228,477.3011475 505.2834778,477.9470215 "/>
<polyline id="XMLID_3_" class="st1" points="106.75,368.6062927 108.7526779,367.3147278 110.7553635,366.0244446 
	112.7580338,364.7367249 114.7607193,363.4528503 116.7633972,362.1741333 118.7660828,360.901825 120.7687607,359.637207 
	122.7714462,358.3815002 124.7741241,357.1360168 126.7768021,355.901947 128.77948,354.680542 130.7821655,353.4730225 
	132.7848511,352.2805786 134.7875366,351.1044312 136.7902222,349.9457092 138.7928925,348.805603 140.795578,347.6852417 
	142.7982483,346.5856934 144.8009186,345.5081482 146.8036041,344.4535828 148.8062897,343.4231262 150.8089752,342.4177551 
	152.8116455,341.4385071 154.8143311,340.4863281 156.8170166,339.5621643 158.8197021,338.6669617 160.8223724,337.8016357 
	162.825058,336.96698 164.8277283,336.1638794 166.8304291,335.3930969 168.8330994,334.6554565 170.8357697,333.9516296 
	172.8384552,333.2823486 174.8411407,332.6483154 176.8438263,332.0500793 178.8464966,331.4883118 180.8491821,330.9635315 
	182.8518524,330.4762573 184.8545532,330.0270386 186.8572235,329.6162415 188.8599091,329.2443237 190.8625793,328.9116516 
	192.8652649,328.6185303 194.8679504,328.3652649 196.8706207,328.1521301 198.8733063,327.9793091 200.8759918,327.8469849 
	202.8786774,327.7552795 204.8813477,327.7043457 206.8840332,327.6941223 208.8867188,327.7247009 210.889389,327.796051 
	212.8920746,327.9080811 214.8947449,328.0606689 216.8974304,328.2536621 218.900116,328.4868774 220.9028015,328.7601013 
	222.9054718,329.0730591 224.9081573,329.4253845 226.9108582,329.816803 228.9135284,330.2468872 230.9161987,330.7151794 
	232.9188843,331.2212524 234.9215546,331.7646179 236.9242554,332.3446655 238.9269257,332.9608765 240.9295959,333.6126404 
	242.9322815,334.2992554 244.9349823,335.0200806 246.9376526,335.7743835 248.9403381,336.5614319 250.9430084,337.3804321 
	252.9456787,338.2305298 254.9483795,339.1109009 256.9510498,340.0206909 258.9537354,340.9589844 260.9564209,341.9248047 
	262.9591064,342.9172363 264.961792,343.9352722 266.9644775,344.9779053 268.9671326,346.0441284 270.9698181,347.132782 
	272.9725037,348.2428894 274.9751587,349.3732605 276.9778442,350.5228271 278.9805298,351.6903992 280.9831848,352.8748474 
	282.9859009,354.0749817 284.9885864,355.2895813 286.9912415,356.5174561 288.9939575,357.7574158 290.9966125,359.0081482 
	292.9992981,360.2684631 295.0019836,361.5371094 297.0046387,362.8127747 299.0073547,364.0942078 301.0100098,365.380188 
	303.0126953,366.669342 305.0154114,367.9604492 307.0180664,369.2521667 309.020752,370.5432739 311.0234375,371.832428 
	313.0260925,373.1183777 315.0287781,374.3998413 317.0314636,375.6755066 319.0341492,376.9441528 321.0368347,378.2044373 
	323.0394897,379.4552002 325.0422058,380.6951294 327.0448608,381.9230347 329.0475464,383.1376343 331.0502319,384.3377686 
	333.0529175,385.5222168 335.055603,386.6897888 337.0582581,387.8393555 339.0609436,388.9697266 341.0636292,390.0798035 
	343.0663147,391.1684875 345.0690002,392.2346802 347.0716858,393.2773132 349.0743408,394.2953796 351.0770569,395.2878113 
	353.0797119,396.2536316 355.0823975,397.191925 357.085083,398.1017151 359.087738,398.9820862 361.0904541,399.8321838 
	363.0931091,400.6511536 365.0957947,401.4382019 367.0984802,402.1925049 369.1011353,402.9133301 371.1038513,403.5999756 
	373.1065063,404.251709 375.1091919,404.8679199 377.111908,405.447998 379.1145935,405.9913635 381.1172485,406.497406 
	383.1199341,406.9657288 385.1226196,407.395813 387.1253052,407.7872009 389.1279907,408.1395569 391.1306458,408.4524841 
	393.1333313,408.725708 395.1360168,408.9589539 397.1387024,409.151947 399.1413879,409.3045349 401.144043,409.4165649 
	403.1467285,409.4878845 405.1494141,409.5184631 407.1520996,409.5082703 409.1547852,409.4573059 411.1574402,409.3656006 
	413.1601257,409.2333069 415.1628113,409.0604858 417.1655273,408.8473511 419.1682129,408.5940857 421.1708679,408.3009644 
	423.1735535,407.9682922 425.1762695,407.5963745 427.1789246,407.1855774 429.1816101,406.7363281 431.1842651,406.2490845 
	433.1869507,405.7243042 435.1896667,405.1625366 437.1923218,404.5643005 439.1950073,403.9302368 441.1976624,403.2609863 
	443.2003479,402.5571594 445.2030029,401.8194885 447.205719,401.0487366 449.2084045,400.245636 451.2110596,399.4109802 
	453.2137451,398.5456238 455.2164001,397.6504517 457.2191162,396.7262878 459.2218323,395.7741089 461.2245178,394.7948303 
	463.2271729,393.7894897 465.2298584,392.7590027 467.2325134,391.7044678 469.235199,390.6268921 471.237915,389.5273743 
	473.2405701,388.4070129 475.2432556,387.2669067 477.2459106,386.1081848 479.2485962,384.9320068 481.2513123,383.7395935 
	483.2539673,382.532074 485.2566528,381.3106689 487.2593079,380.0765991 489.2619934,378.8311157 491.2647095,377.5754089 
	493.2673645,376.310791 495.27005,375.0384827 497.2727051,373.7597656 499.2753906,372.4758911 501.2781067,371.1881714 
	503.2808228,369.8978882 505.2834778,368.6062927 "/>
<polyline id="XMLID_2_" class="st2" points="106.75,249.5771637 108.7526779,247.6401978 110.7553635,245.7075806 
	112.7580338,243.7836456 114.7607193,241.8726807 116.7633972,239.9790192 118.7660828,238.1068726 120.7687607,236.260437 
	122.7714462,234.4438782 124.7741241,232.6612549 126.7768021,230.9165802 128.77948,229.2137451 130.7821655,227.5565643 
	132.7848511,225.9487762 134.7875366,224.3939819 136.7902222,222.8956757 138.7928925,221.4571838 140.795578,220.0817719 
	142.7982483,218.7724915 144.8009186,217.5323029 146.8036041,216.3639679 148.8062897,215.2701263 150.8089752,214.2532196 
	152.8116455,213.3155365 154.8143311,212.4591675 156.8170166,211.6860352 158.8197021,210.9978943 160.8223724,210.3962555 
	162.825058,209.8825073 164.8277283,209.4577484 166.8304291,209.1229858 168.8330994,208.8789368 170.8357697,208.7261505 
	172.8384552,208.6649933 174.8411407,208.6955719 176.8438263,208.8178406 178.8464966,209.0315247 180.8491821,209.3361359 
	182.8518524,209.7309723 184.8545532,210.2151947 186.8572235,210.7876587 188.8599091,211.4471283 190.8625793,212.1921234 
	192.8652649,213.0209503 194.8679504,213.9317474 196.8706207,214.9225006 198.8733063,215.9909515 200.8759918,217.1347351 
	202.8786774,218.3512878 204.8813477,219.6378326 206.8840332,220.9915466 208.8867188,222.4093628 210.889389,223.8881073 
	212.8920746,225.4244537 214.8947449,227.0149689 216.8974304,228.6560974 218.900116,230.3441315 220.9028015,232.0752869 
	222.9054718,233.8457031 224.9081573,235.651413 226.9108582,237.488327 228.9135284,239.352356 230.9161987,241.2393341 
	232.9188843,243.1450043 234.9215546,245.0650787 236.9242554,246.9953003 238.9269257,248.9313049 240.9295959,250.8687439 
	242.9322815,252.803299 244.9349823,254.7306213 246.9376526,256.6463623 248.9403381,258.5462646 250.9430084,260.4260559 
	252.9456787,262.2815247 254.9483795,264.10849 256.9510498,265.9028931 258.9537354,267.6606445 260.9564209,269.3778687 
	262.9591064,271.0506897 264.961792,272.6753235 266.9644775,274.2481995 268.9671326,275.7657166 270.9698181,277.2244873 
	272.9725037,278.6213074 274.9751587,279.9529419 276.9778442,281.2164917 278.9805298,282.4090881 280.9831848,283.5280151 
	282.9859009,284.5708313 284.9885864,285.5351563 286.9912415,286.4188538 288.9939575,287.2199402 290.9966125,287.936615 
	292.9992981,288.5672302 295.0019836,289.1104126 297.0046387,289.5649414 299.0073547,289.9298096 301.0100098,290.2041626 
	303.0126953,290.3874207 305.0154114,290.479126 307.0180664,290.479126 309.020752,290.3874207 311.0234375,290.2041626 
	313.0260925,289.9298096 315.0287781,289.5649414 317.0314636,289.1104126 319.0341492,288.5672302 321.0368347,287.936615 
	323.0394897,287.2199402 325.0422058,286.4188538 327.0448608,285.5351563 329.0475464,284.5708313 331.0502319,283.5280151 
	333.0529175,282.4090881 335.055603,281.2164917 337.0582581,279.9529419 339.0609436,278.6213074 341.0636292,277.2244873 
	343.0663147,275.7657166 345.0690002,274.2481995 347.0716858,272.6753235 349.0743408,271.0506897 351.0770569,269.3778687 
	353.0797119,267.6606445 355.0823975,265.9028931 357.085083,264.10849 359.087738,262.2815247 361.0904541,260.4260559 
	363.0931091,258.5462646 365.0957947,256.6463623 367.0984802,254.7306213 369.1011353,252.803299 371.1038513,250.8687439 
	373.1065063,248.9313049 375.1091919,246.9953003 377.111908,245.0650787 379.1145935,243.1450043 381.1172485,241.2393341 
	383.1199341,239.352356 385.1226196,237.488327 387.1253052,235.651413 389.1279907,233.8457031 391.1306458,232.0752869 
	393.1333313,230.3441315 395.1360168,228.6560974 397.1387024,227.0149689 399.1413879,225.4244537 401.144043,223.8881073 
	403.1467285,222.4093628 405.1494141,220.9915466 407.1520996,219.6378326 409.1547852,218.3512878 411.1574402,217.1347351 
	413.1601257,215.9909515 415.1628113,214.9225006 417.1655273,213.9317474 419.1682129,213.0209503 421.1708679,212.1921234 
	423.1735535,211.4471283 425.1762695,210.7876587 427.1789246,210.2151947 429.1816101,209.7309723 431.1842651,209.3361359 
	433.1869507,209.0315247 435.1896667,208.8178406 437.1923218,208.6955719 439.1950073,208.6649933 441.1976624,208.7261505 
	443.2003479,208.8789368 445.2030029,209.1229858 447.205719,209.4577484 449.2084045,209.8825073 451.2110596,210.3962555 
	453.2137451,210.9978943 455.2164001,211.6860352 457.2191162,212.4591675 459.2218323,213.3155365 461.2245178,214.2532196 
	463.2271729,215.2701263 465.2298584,216.3639679 467.2325134,217.5323029 469.235199,218.7724915 471.237915,220.0817719 
	473.2405701,221.4571838 475.2432556,222.8956757 477.2459106,224.3939819 479.2485962,225.9487762 481.2513123,227.5565643 
	483.2539673,229.2137451 485.2566528,230.9165802 487.2593079,232.6612549 489.2619934,234.4438782 491.2647095,236.260437 
	493.2673645,238.1068726 495.27005,239.9790192 497.2727051,241.8726807 499.2753906,243.7836456 501.2781067,245.7075806 
	503.2808228,247.6401978 505.2834778,249.5771637 "/>
<polyline id="XMLID_1_" class="st3" points="106.75,139.5444183 108.7526779,136.9625549 110.7553635,134.390976 
	112.7580338,131.8399353 114.7607193,129.3196106 116.7633972,126.8400497 118.7660828,124.4111328 120.7687607,122.0425415 
	122.7714462,119.7437134 124.7741241,117.523819 126.7768021,115.3917084 128.77948,113.3558807 130.7821655,111.4244385 
	132.7848511,109.6050873 134.7875366,107.9050903 136.7902222,106.3312225 138.7928925,104.8897476 140.795578,103.5864182 
	142.7982483,102.4264145 144.8009186,101.4143829 146.8036041,100.5543594 148.8062897,99.8497543 150.8089752,99.3033829 
	152.8116455,98.9174194 154.8143311,98.6934052 156.8170166,98.6322479 158.8197021,98.734169 160.8223724,98.9987793 
	162.825058,99.4250031 164.8277283,100.0111694 166.8304291,100.7549133 168.8330994,101.6532898 170.8357697,102.7027206 
	172.8384552,103.8990021 174.8411407,105.2373734 176.8438263,106.7125092 178.8464966,108.3185349 180.8491821,110.0490189 
	182.8518524,111.8970871 184.8545532,113.8553543 186.8572235,115.9160309 188.8599091,118.0709076 190.8625793,120.3113785 
	192.8652649,122.6285095 194.8679504,125.013092 196.8706207,127.455574 198.8733063,129.9462738 200.8759918,132.4752045 
	202.8786774,135.0323334 204.8813477,137.6074524 206.8840332,140.1902924 208.8867188,142.7705383 210.889389,145.3379517 
	212.8920746,147.8822479 214.8947449,150.3933258 216.8974304,152.8611298 218.900116,155.2758789 220.9028015,157.6278992 
	222.9054718,159.9078369 224.9081573,162.1066132 226.9108582,164.2154388 228.9135284,166.2259216 230.9161987,168.1300354 
	232.9188843,169.9201965 234.9215546,171.5892792 236.9242554,173.1306305 238.9269257,174.5380859 240.9295959,175.8060455 
	242.9322815,176.9294739 244.9349823,177.9038544 246.9376526,178.7253113 248.9403381,179.3905945 250.9430084,179.8970642 
	252.9456787,180.2426453 254.9483795,180.4259949 256.9510498,180.4463959 258.9537354,180.3037262 260.9564209,179.9985962 
	262.9591064,179.532196 264.961792,178.9064026 266.9644775,178.1236877 268.9671326,177.1871948 270.9698181,176.100647 
	272.9725037,174.8683624 274.9751587,173.4952698 276.9778442,171.9868317 278.9805298,170.3490906 280.9831848,168.5885468 
	282.9859009,166.7122192 284.9885864,164.7276001 286.9912415,162.6425781 288.9939575,160.4654846 290.9966125,158.2050018 
	292.9992981,155.8701324 295.0019836,153.4701843 297.0046387,151.0147247 299.0073547,148.5135193 301.0100098,145.9765778 
	303.0126953,143.4140015 305.0154114,140.8359985 307.0180664,138.2528381 309.020752,135.6748352 311.0234375,133.1122589 
	313.0260925,130.5753174 315.0287781,128.0741119 317.0314636,125.61866 319.0341492,123.2187042 321.0368347,120.8838272 
	323.0394897,118.6233444 325.0422058,116.4462509 327.0448608,114.3612366 329.0475464,112.3766098 331.0502319,110.5002823 
	333.0529175,108.7397385 335.055603,107.1019897 337.0582581,105.5935669 339.0609436,104.2204742 341.0636292,102.9881973 
	343.0663147,101.9016418 345.0690002,100.9651413 347.0716858,100.1824417 349.0743408,99.5566406 351.0770569,99.0902328 
	353.0797119,98.7850952 355.0823975,98.6424484 357.085083,98.6628265 359.087738,98.8461838 361.0904541,99.1917725 
	363.0931091,99.6982269 365.0957947,100.3635101 367.0984802,101.1849899 369.1011353,102.1593704 371.1038513,103.2827911 
	373.1065063,104.5507431 375.1091919,105.9582062 377.111908,107.4995575 379.1145935,109.1686325 381.1172485,110.9588013 
	383.1199341,112.8629227 385.1226196,114.8733978 387.1253052,116.9822235 389.1279907,119.1809998 391.1306458,121.4609375 
	393.1333313,123.8129578 395.1360168,126.2276917 397.1387024,128.6955261 399.1413879,131.2065887 401.144043,133.750885 
	403.1467285,136.3182983 405.1494141,138.8985443 407.1520996,141.4813843 409.1547852,144.0565033 411.1574402,146.6136322 
	413.1601257,149.1425629 415.1628113,151.633255 417.1655273,154.0757446 419.1682129,156.4603271 421.1708679,158.7774658 
	423.1735535,161.0179291 425.1762695,163.1727905 427.1789246,165.2334747 429.1816101,167.1917572 431.1842651,169.0398254 
	433.1869507,170.7703094 435.1896667,172.3763275 437.1923218,173.8514557 439.1950073,175.1898193 441.1976624,176.3861084 
	443.2003479,177.4355316 445.2030029,178.3339233 447.205719,179.0776672 449.2084045,179.6638336 451.2110596,180.0900574 
	453.2137451,180.35466 455.2164001,180.4565887 457.2191162,180.3954315 459.2218323,180.1714172 461.2245178,179.7854614 
	463.2271729,179.23909 465.2298584,178.5344849 467.2325134,177.6744385 469.235199,176.6624146 471.237915,175.5024261 
	473.2405701,174.1990967 475.2432556,172.7576141 477.2459106,171.1837311 479.2485962,169.4837494 481.2513123,167.6643982 
	483.2539673,165.7329559 485.2566528,163.6971283 487.2593079,161.5650177 489.2619934,159.345108 491.2647095,157.0462952 
	493.2673645,154.6777039 495.27005,152.2487793 497.2727051,149.7692261 499.2753906,147.2489014 501.2781067,144.6978607 
	503.2808228,142.126297 505.2834778,139.5444183 "/>
<line id="XMLID_5_" class="st4" x1="106.75" y1="34.8990555" x2="106.75" y2="519.8990479"/>
<line id="XMLID_6_" class="st4" x1="505.2834778" y1="34.8990555" x2="505.2834778" y2="519.8990479"/>
<g id="XMLID_11_">
	<g id="XMLID_69_">
		<g id="XMLID_70_">
			<polygon id="XMLID_71_" class="st5" points="490.9827271,53.691658 490.9827271,56.7317123 505.2834778,52.9023514 
				490.9827271,49.0663986 490.9827271,52.1067123 299.666687,52.1067123 299.666687,53.691658 			"/>
		</g>
	</g>
</g>
<g id="XMLID_12_">
	<g id="XMLID_65_">
		<g id="XMLID_66_">
			<polygon id="XMLID_67_" class="st5" points="121.0507736,52.1064682 121.0507736,49.0664139 106.7500153,52.8957596 
				121.0507736,56.7317123 121.0507736,53.6914139 299.666687,53.6914139 299.666687,52.1064682 			"/>
		</g>
	</g>
</g>
<g id="XMLID_14_">
	<g id="XMLID_33_">
		<path id="XMLID_178_" class="st6" d="M295.3652344,29.3082352v0.2177734
			c-0.5864258-0.2988281-1.0761719-0.6474609-1.4682617-1.0478516c-0.5595703-0.5693359-0.9907227-1.2402344-1.2939453-2.0126953
			c-0.3027344-0.7734375-0.4545898-1.5751953-0.4545898-2.4072266c0-1.2167969,0.2973633-2.3261719,0.8916016-3.3286133
			c0.5947266-1.0029297,1.3696289-1.7197266,2.3251953-2.1513672v0.2470703
			c-0.4775391,0.2670898-0.8701172,0.6318359-1.1767578,1.0947266c-0.3071289,0.4628906-0.5361328,1.0498047-0.6879883,1.7597656
			c-0.1513672,0.7104492-0.2270508,1.4521484-0.2270508,2.2250977c0,0.8398438,0.0639648,1.6025391,0.1923828,2.2900391
			c0.1010742,0.5410156,0.2231445,0.9755859,0.3671875,1.3037109c0.1435547,0.3271484,0.3369141,0.6416016,0.5795898,0.9443359
			C294.6552734,28.7447586,294.9731445,29.0338211,295.3652344,29.3082352z"/>
		<path id="XMLID_180_" class="st6" d="M302.3579102,18.825325v-0.2470703
			c0.590332,0.2939453,1.0820313,0.6416016,1.4741211,1.0415039c0.5556641,0.5732422,0.9853516,1.2451172,1.2880859,2.0161133
			s0.4541016,1.574707,0.4541016,2.4106445c0,1.2158203-0.2958984,2.3251953-0.8886719,3.328125
			c-0.5917969,1.0029297-1.3681641,1.7197266-2.3276367,2.1513672v-0.2177734
			c0.4780273-0.2705078,0.8710938-0.6367188,1.1801758-1.0976563c0.3085938-0.4609375,0.5380859-1.0478516,0.6875-1.7597656
			c0.1494141-0.7128906,0.2246094-1.4550781,0.2246094-2.2285156c0-0.8354492-0.0644531-1.5986328-0.1923828-2.2890625
			c-0.0976563-0.5415039-0.21875-0.9750977-0.3642578-1.3007813c-0.1459961-0.3256836-0.3393555-0.6396484-0.5800781-0.9418945
			S302.7543945,19.1002274,302.3579102,18.825325z"/>
		<path id="XMLID_182_" class="st6" d="M318.3701172,23.0045242c0-0.9106445,0.1357422-1.6943359,0.4072266-2.3515625
			c0.2724609-0.6572266,0.6337891-1.1469727,1.0839844-1.46875c0.3496094-0.2548828,0.7109375-0.3823242,1.0839844-0.3823242
			c0.6064453,0,1.1503906,0.3120117,1.6318359,0.9355469c0.6025391,0.7734375,0.9033203,1.8208008,0.9033203,3.1430664
			c0,0.9262695-0.1318359,1.7128906-0.3964844,2.3603516c-0.2636719,0.6474609-0.6015625,1.1171875-1.0107422,1.4101563
			c-0.4101563,0.2919922-0.8056641,0.4384766-1.1865234,0.4384766c-0.7529297,0-1.3808594-0.4492188-1.8818359-1.3486328
			C318.5810547,24.9840164,318.3701172,24.071907,318.3701172,23.0045242z M319.5117188,23.1514969
			c0,1.0991211,0.1337891,1.9956055,0.4023438,2.6899414c0.2216797,0.5849609,0.5517578,0.8769531,0.9902344,0.8769531
			c0.2099609,0,0.4277344-0.0947266,0.6533203-0.2851563c0.2246094-0.1904297,0.3955078-0.5097656,0.5126953-0.9570313
			c0.1787109-0.6748047,0.2675781-1.6264648,0.2675781-2.8544922c0-0.9101563-0.0927734-1.6694336-0.2792969-2.277832
			c-0.1396484-0.4511719-0.3203125-0.7709961-0.5419922-0.9594727c-0.1591797-0.1293945-0.3515625-0.1943359-0.5771484-0.1943359
			c-0.2636719,0-0.4990234,0.1201172-0.7050781,0.359375c-0.2792969,0.3256836-0.4697266,0.8378906-0.5712891,1.5361328
			C319.5625,21.7838211,319.5117188,22.4727859,319.5117188,23.1514969z"/>
	</g>
	<g id="XMLID_16_">
		<path id="XMLID_174_" class="st6" d="M284.3310547,27.1305008l0.6523438-6.6455078
			c0.03125-0.3374023,0.046875-0.5649414,0.046875-0.6826172c0-0.1767578-0.0654297-0.3237305-0.1953125-0.4414063
			c-0.1303711-0.1176758-0.3349609-0.1767578-0.6147461-0.1767578h-0.2099609l0.0585938-0.2177734h3.1176758l-0.0644531,0.2177734
			c-0.3378906,0.0039063-0.5698242,0.0395508-0.6962891,0.105957c-0.1264648,0.0668945-0.2260742,0.1806641-0.300293,0.3413086
			c-0.0385742,0.0864258-0.0795898,0.3320313-0.1220703,0.7358398l-0.4663086,4.762207l3.0825195-4.25
			c0.3344727-0.4589844,0.5439453-0.7788086,0.6293945-0.9594727c0.0585938-0.121582,0.0874023-0.2275391,0.0874023-0.3178711
			c0-0.105957-0.0444336-0.1982422-0.1337891-0.2763672c-0.0893555-0.0786133-0.2563477-0.1254883-0.5009766-0.1416016
			l0.0698242-0.2177734h2.3774414l-0.0581055,0.2177734c-0.1904297,0.0161133-0.3422852,0.0532227-0.4545898,0.1118164
			c-0.2138672,0.1020508-0.4262695,0.2573242-0.6381836,0.465332s-0.546875,0.6279297-1.0053711,1.2592773l-4.4521484,6.1098633
			H284.3310547z"/>
		<path id="XMLID_176_" class="st6" d="M298.5727539,21.6212234c0.1899414,0.2041016,0.3339844,0.4082031,0.4311523,0.6118164
			c0.0698242,0.1416016,0.1845703,0.512207,0.34375,1.112793l0.5126953-0.7768555
			c0.1362305-0.1884766,0.3012695-0.3681641,0.4956055-0.5385742c0.1938477-0.1708984,0.3647461-0.2875977,0.5126953-0.3505859
			c0.0932617-0.0390625,0.1962891-0.0585938,0.3085938-0.0585938c0.1669922,0,0.300293,0.0449219,0.3994141,0.1352539
			s0.1484375,0.2001953,0.1484375,0.3295898c0,0.1494141-0.0288086,0.2514648-0.0874023,0.3061523
			c-0.1088867,0.0981445-0.2329102,0.1469727-0.3730469,0.1469727c-0.081543,0-0.1689453-0.0175781-0.262207-0.0527344
			c-0.1826172-0.0629883-0.3046875-0.0942383-0.3666992-0.0942383c-0.0932617,0-0.2041016,0.0551758-0.3325195,0.1645508
			c-0.2407227,0.2041016-0.5283203,0.5986328-0.8623047,1.1831055l0.4780273,2.0253906
			c0.0737305,0.3095703,0.1357422,0.4951172,0.1865234,0.5556641c0.050293,0.0605469,0.1005859,0.0917969,0.1513672,0.0917969
			c0.081543,0,0.1767578-0.0458984,0.2856445-0.1357422c0.2133789-0.1806641,0.3959961-0.4160156,0.5473633-0.7060547
			l0.2041016,0.1054688c-0.2446289,0.4628906-0.5556641,0.8476563-0.9321289,1.1533203
			c-0.2138672,0.1728516-0.3945313,0.2597656-0.5419922,0.2597656c-0.2177734,0-0.390625-0.1240234-0.5185547-0.3710938
			c-0.0820313-0.1533203-0.2509766-0.8125-0.5073242-1.9775391c-0.605957,1.0634766-1.0917969,1.7480469-1.456543,2.0537109
			c-0.2373047,0.1962891-0.4663086,0.2949219-0.6879883,0.2949219c-0.1552734,0-0.296875-0.0576172-0.425293-0.1708984
			c-0.0932617-0.0859375-0.1396484-0.2021484-0.1396484-0.3476563c0-0.1289063,0.0424805-0.2373047,0.1279297-0.3232422
			c0.0854492-0.0869141,0.1904297-0.1298828,0.3149414-0.1298828c0.1240234,0,0.2563477,0.0625,0.3959961,0.1884766
			c0.1010742,0.0908203,0.1787109,0.1357422,0.2333984,0.1357422c0.0463867,0,0.1064453-0.03125,0.1806641-0.0947266
			c0.1826172-0.1484375,0.4311523-0.4707031,0.7456055-0.9648438c0.3149414-0.4951172,0.5205078-0.8515625,0.6176758-1.0712891
			c-0.2407227-0.9536133-0.3710938-1.4580078-0.3901367-1.5126953c-0.0893555-0.2553711-0.2060547-0.4355469-0.3496094-0.5415039
			c-0.144043-0.105957-0.3554688-0.1591797-0.6352539-0.1591797c-0.0893555,0-0.1923828,0.0039063-0.309082,0.0117188v-0.2119141
			L298.5727539,21.6212234z"/>
	</g>
	<g id="XMLID_15_">
		<path id="XMLID_171_" class="st6" d="M309.0234375,22.4805984h6.1181641v0.5708008h-6.1181641V22.4805984z
			 M309.0234375,24.6763992h6.1181641v0.5820313h-6.1181641V24.6763992z"/>
	</g>
</g>
<g id="XMLID_38_">
	<g id="XMLID_45_">
		<path id="XMLID_167_" class="st6" d="M530.6328125,29.3082352v0.2177734
			c-0.5917969-0.2988281-1.0849609-0.6474609-1.4804688-1.0478516c-0.5634766-0.5693359-0.9980469-1.2402344-1.3037109-2.0126953
			c-0.3056641-0.7734375-0.4580078-1.5751953-0.4580078-2.4072266c0-1.2167969,0.2998047-2.3261719,0.8984375-3.3286133
			c0.5996094-1.0029297,1.3808594-1.7197266,2.34375-2.1513672v0.2470703
			c-0.4824219,0.2670898-0.8769531,0.6318359-1.1865234,1.0947266s-0.5400391,1.0498047-0.6923828,1.7597656
			c-0.1533203,0.7104492-0.2294922,1.4521484-0.2294922,2.2250977c0,0.8398438,0.0644531,1.6025391,0.1943359,2.2900391
			c0.1015625,0.5410156,0.2246094,0.9755859,0.3691406,1.3037109c0.1445313,0.3271484,0.3398438,0.6416016,0.5839844,0.9443359
			C529.9169922,28.7447586,530.2373047,29.0338211,530.6328125,29.3082352z"/>
		<path id="XMLID_169_" class="st6" d="M537.6796875,18.825325v-0.2470703
			c0.5957031,0.2939453,1.0898438,0.6416016,1.4863281,1.0415039c0.5595703,0.5732422,0.9921875,1.2451172,1.296875,2.0161133
			c0.3066406,0.7709961,0.4589844,1.574707,0.4589844,2.4106445c0,1.2158203-0.2988281,2.3251953-0.8964844,3.328125
			c-0.5966797,1.0029297-1.3789063,1.7197266-2.3457031,2.1513672v-0.2177734
			c0.4824219-0.2705078,0.8779297-0.6367188,1.1894531-1.0976563c0.3105469-0.4609375,0.5419922-1.0478516,0.6933594-1.7597656
			c0.1503906-0.7128906,0.2255859-1.4550781,0.2255859-2.2285156c0-0.8354492-0.0644531-1.5986328-0.1943359-2.2890625
			c-0.0976563-0.5415039-0.2197266-0.9750977-0.3662109-1.3007813c-0.1474609-0.3256836-0.3417969-0.6396484-0.5849609-0.9418945
			C538.4003906,19.3883133,538.0791016,19.1002274,537.6796875,18.825325z"/>
	</g>
	<g id="XMLID_44_">
		<path id="XMLID_163_" class="st6" d="M519.5214844,27.1305008l0.6572266-6.6455078
			c0.03125-0.3374023,0.046875-0.5649414,0.046875-0.6826172c0-0.1767578-0.0654297-0.3237305-0.1962891-0.4414063
			c-0.1318359-0.1176758-0.3378906-0.1767578-0.6201172-0.1767578h-0.2119141l0.0585938-0.2177734h3.1425781l-0.0644531,0.2177734
			c-0.3408203,0.0039063-0.5742188,0.0395508-0.7021484,0.105957c-0.1269531,0.0668945-0.2275391,0.1806641-0.3017578,0.3413086
			c-0.0390625,0.0864258-0.0800781,0.3320313-0.1240234,0.7358398l-0.4697266,4.762207l3.1074219-4.25
			c0.3359375-0.4589844,0.546875-0.7788086,0.6337891-0.9594727c0.0585938-0.121582,0.0878906-0.2275391,0.0878906-0.3178711
			c0-0.105957-0.0449219-0.1982422-0.1347656-0.2763672c-0.0908203-0.0786133-0.2587891-0.1254883-0.5048828-0.1416016
			l0.0703125-0.2177734h2.3964844l-0.0585938,0.2177734c-0.1923828,0.0161133-0.3457031,0.0532227-0.4589844,0.1118164
			c-0.2148438,0.1020508-0.4296875,0.2573242-0.6425781,0.465332c-0.2138672,0.2080078-0.5507813,0.6279297-1.0136719,1.2592773
			l-4.4863281,6.1098633H519.5214844z"/>
		<path id="XMLID_165_" class="st6" d="M533.8730469,21.6212234c0.1923828,0.2041016,0.3369141,0.4082031,0.4355469,0.6118164
			c0.0703125,0.1416016,0.1855469,0.512207,0.3457031,1.112793l0.5175781-0.7768555
			c0.1367188-0.1884766,0.3027344-0.3681641,0.4980469-0.5385742c0.1962891-0.1708984,0.3691406-0.2875977,0.5175781-0.3505859
			c0.09375-0.0390625,0.1972656-0.0585938,0.3105469-0.0585938c0.1689453,0,0.3027344,0.0449219,0.4023438,0.1352539
			s0.1503906,0.2001953,0.1503906,0.3295898c0,0.1494141-0.0292969,0.2514648-0.0878906,0.3061523
			c-0.109375,0.0981445-0.2353516,0.1469727-0.3759766,0.1469727c-0.0830078,0-0.1708984-0.0175781-0.2646484-0.0527344
			c-0.1835938-0.0629883-0.3066406-0.0942383-0.3691406-0.0942383c-0.0947266,0-0.2060547,0.0551758-0.3359375,0.1645508
			c-0.2421875,0.2041016-0.5322266,0.5986328-0.8691406,1.1831055l0.4824219,2.0253906
			c0.0742188,0.3095703,0.1367188,0.4951172,0.1875,0.5556641s0.1015625,0.0917969,0.1523438,0.0917969
			c0.0820313,0,0.1787109-0.0458984,0.2880859-0.1357422c0.2158203-0.1806641,0.3994141-0.4160156,0.5517578-0.7060547
			l0.2060547,0.1054688c-0.2470703,0.4628906-0.5595703,0.8476563-0.9404297,1.1533203
			c-0.2148438,0.1728516-0.3964844,0.2597656-0.5449219,0.2597656c-0.2197266,0-0.3945313-0.1240234-0.5234375-0.3710938
			c-0.0820313-0.1533203-0.2519531-0.8125-0.5107422-1.9775391c-0.6103516,1.0634766-1.1005859,1.7480469-1.4677734,2.0537109
			c-0.2392578,0.1962891-0.4707031,0.2949219-0.6933594,0.2949219c-0.15625,0-0.2998047-0.0576172-0.4287109-0.1708984
			c-0.0947266-0.0859375-0.1416016-0.2021484-0.1416016-0.3476563c0-0.1289063,0.0429688-0.2373047,0.1298828-0.3232422
			c0.0859375-0.0869141,0.1923828-0.1298828,0.3173828-0.1298828s0.2578125,0.0625,0.3984375,0.1884766
			c0.1015625,0.0908203,0.1806641,0.1357422,0.2353516,0.1357422c0.046875,0,0.1083984-0.03125,0.1826172-0.0947266
			c0.1835938-0.1484375,0.4335938-0.4707031,0.7509766-0.9648438c0.3173828-0.4951172,0.5244141-0.8515625,0.6220703-1.0712891
			c-0.2421875-0.9536133-0.3730469-1.4580078-0.3925781-1.5126953c-0.0898438-0.2553711-0.2080078-0.4355469-0.3525391-0.5415039
			c-0.1455078-0.105957-0.3583984-0.1591797-0.6396484-0.1591797c-0.0908203,0-0.1943359,0.0039063-0.3125,0.0117188v-0.2119141
			L533.8730469,21.6212234z"/>
	</g>
	<g id="XMLID_43_">
		<path id="XMLID_154_" class="st6" d="M544.4042969,22.4805984h6.1660156v0.5708008h-6.1660156V22.4805984z
			 M544.4042969,24.6763992h6.1660156v0.5820313h-6.1660156V24.6763992z"/>
		<path id="XMLID_157_" class="st6" d="M556.5957031,20.7677078h0.5751953v2.8134766h2.7900391v0.5708008h-2.7900391v2.7958984
			h-0.5751953v-2.7958984h-2.8007813v-0.5708008h2.8007813V20.7677078z"/>
		<path id="XMLID_159_" class="st6" d="M564.0068359,23.0221024c0.2666016-0.6123047,0.5576172-1.0371094,0.875-1.2744141
			s0.75-0.355957,1.2978516-0.355957c0.6308594,0,1.1630859,0.2275391,1.5976563,0.6826172s0.6513672,1.0458984,0.6513672,1.7714844
			c0,0.7182617-0.2109375,1.3100586-0.6337891,1.7749023s-0.8945313,0.6972656-1.4150391,0.6972656
			c-0.3876953,0-0.7480469-0.1435547-1.0810547-0.4296875c-0.2197266-0.1884766-0.5185547-0.6064453-0.8984375-1.2539063
			c-0.2509766,0.4873047-0.5244141,0.8369141-0.8222656,1.0507813s-0.6582031,0.3212891-1.0810547,0.3212891
			c-0.5634766,0-1.0400391-0.2021484-1.4296875-0.6064453s-0.5839844-0.9257813-0.5839844-1.565918
			c0-0.6474609,0.1796875-1.1689453,0.5400391-1.5654297s0.78125-0.5947266,1.2626953-0.5947266
			c0.3369141,0,0.6337891,0.0874023,0.8925781,0.262207C563.4375,22.1104813,563.7128906,22.4727859,564.0068359,23.0221024z
			 M563.8369141,23.4752274c-0.1923828-0.4316406-0.4111328-0.7495117-0.6582031-0.9536133
			s-0.5498047-0.3061523-0.9101563-0.3061523c-0.4150391,0-0.7626953,0.1464844-1.0429688,0.4384766
			c-0.2792969,0.2924805-0.4189453,0.684082-0.4189453,1.1743164c0,0.5219727,0.1376953,0.9389648,0.4130859,1.2504883
			c0.2763672,0.3125,0.5888672,0.46875,0.9375,0.46875c0.3720703,0,0.7001953-0.1669922,0.9863281-0.5009766
			C563.3271484,24.8267899,563.5585938,24.3033524,563.8369141,23.4752274z M564.5703125,24.2164383
			c0.2939453,0.6123047,0.5839844,1.0234375,0.8691406,1.2333984c0.2861328,0.2099609,0.6074219,0.3154297,0.9638672,0.3154297
			c0.4814453,0,0.8837891-0.1738281,1.2060547-0.5214844c0.3232422-0.3466797,0.4853516-0.8134766,0.4853516-1.3979492
			c0-0.5766602-0.1708984-1.0532227-0.5117188-1.4301758c-0.3398438-0.3764648-0.7216797-0.5649414-1.1445313-0.5649414
			c-0.2705078,0-0.5058594,0.0688477-0.7080078,0.2060547c-0.2011719,0.137207-0.3847656,0.3569336-0.5488281,0.6591797
			C565.0878906,22.8927078,564.8837891,23.3927078,564.5703125,24.2164383z"/>
	</g>
</g>
<g id="XMLID_46_">
	<g id="XMLID_49_">
		<path id="XMLID_150_" class="st6" d="M54.5297852,29.3082352v0.2177734
			c-0.5913086-0.2988281-1.0849609-0.6474609-1.4799805-1.0478516c-0.5639648-0.5693359-0.9985352-1.2402344-1.3041992-2.0126953
			c-0.3051758-0.7734375-0.4580078-1.5751953-0.4580078-2.4072266c0-1.2167969,0.2998047-2.3261719,0.8989258-3.3286133
			c0.5986328-1.0029297,1.3798828-1.7197266,2.3432617-2.1513672v0.2470703
			c-0.4819336,0.2670898-0.8774414,0.6318359-1.1865234,1.0947266c-0.3095703,0.4628906-0.5405273,1.0498047-0.6928711,1.7597656
			c-0.152832,0.7104492-0.2290039,1.4521484-0.2290039,2.2250977c0,0.8398438,0.0644531,1.6025391,0.1938477,2.2900391
			c0.1015625,0.5410156,0.2250977,0.9755859,0.3696289,1.3037109c0.1450195,0.3271484,0.3398438,0.6416016,0.5844727,0.9443359
			C53.8139648,28.7447586,54.1342773,29.0338211,54.5297852,29.3082352z"/>
		<path id="XMLID_152_" class="st6" d="M61.5766602,18.825325v-0.2470703
			c0.5952148,0.2939453,1.090332,0.6416016,1.4858398,1.0415039c0.5600586,0.5732422,0.9926758,1.2451172,1.2978516,2.0161133
			c0.3056641,0.7709961,0.4580078,1.574707,0.4580078,2.4106445c0,1.2158203-0.2983398,2.3251953-0.8955078,3.328125
			s-1.3789063,1.7197266-2.3461914,2.1513672v-0.2177734c0.4819336-0.2705078,0.8779297-0.6367188,1.1894531-1.0976563
			c0.3110352-0.4609375,0.5419922-1.0478516,0.6928711-1.7597656c0.1508789-0.7128906,0.2260742-1.4550781,0.2260742-2.2285156
			c0-0.8354492-0.0644531-1.5986328-0.1938477-2.2890625c-0.0976563-0.5415039-0.2202148-0.9750977-0.3666992-1.3007813
			c-0.1469727-0.3256836-0.3417969-0.6396484-0.5844727-0.9418945S61.9760742,19.1002274,61.5766602,18.825325z"/>
	</g>
	<g id="XMLID_48_">
		<path id="XMLID_146_" class="st6" d="M43.4179688,27.1305008l0.6577148-6.6455078
			c0.03125-0.3374023,0.046875-0.5649414,0.046875-0.6826172c0-0.1767578-0.0654297-0.3237305-0.1967773-0.4414063
			s-0.3378906-0.1767578-0.6196289-0.1767578h-0.2114258l0.0585938-0.2177734h3.1420898l-0.0644531,0.2177734
			c-0.3408203,0.0039063-0.574707,0.0395508-0.7021484,0.105957c-0.1269531,0.0668945-0.2280273,0.1806641-0.3022461,0.3413086
			c-0.0390625,0.0864258-0.0800781,0.3320313-0.1235352,0.7358398l-0.4697266,4.762207l3.1069336-4.25
			c0.3364258-0.4589844,0.5478516-0.7788086,0.6342773-0.9594727c0.0585938-0.121582,0.0878906-0.2275391,0.0878906-0.3178711
			c0-0.105957-0.0449219-0.1982422-0.1347656-0.2763672c-0.090332-0.0786133-0.2587891-0.1254883-0.5053711-0.1416016
			l0.0708008-0.2177734h2.3959961l-0.0585938,0.2177734c-0.1918945,0.0161133-0.3447266,0.0532227-0.4584961,0.1118164
			c-0.215332,0.1020508-0.4296875,0.2573242-0.6430664,0.465332s-0.5507813,0.6279297-1.0126953,1.2592773l-4.4868164,6.1098633
			H43.4179688z"/>
		<path id="XMLID_148_" class="st6" d="M57.7705078,21.6212234c0.1918945,0.2041016,0.3364258,0.4082031,0.4345703,0.6118164
			c0.0703125,0.1416016,0.1860352,0.512207,0.3461914,1.112793l0.5170898-0.7768555
			c0.1367188-0.1884766,0.3032227-0.3681641,0.4990234-0.5385742c0.1958008-0.1708984,0.3681641-0.2875977,0.5170898-0.3505859
			c0.09375-0.0390625,0.1972656-0.0585938,0.3110352-0.0585938c0.168457,0,0.3027344,0.0449219,0.4023438,0.1352539
			s0.1499023,0.2001953,0.1499023,0.3295898c0,0.1494141-0.0292969,0.2514648-0.0883789,0.3061523
			c-0.109375,0.0981445-0.2348633,0.1469727-0.3754883,0.1469727c-0.0825195,0-0.1704102-0.0175781-0.2646484-0.0527344
			c-0.184082-0.0629883-0.3071289-0.0942383-0.3696289-0.0942383c-0.0942383,0-0.2055664,0.0551758-0.3349609,0.1645508
			c-0.2426758,0.2041016-0.5327148,0.5986328-0.8691406,1.1831055l0.4814453,2.0253906
			c0.0742188,0.3095703,0.137207,0.4951172,0.1879883,0.5556641s0.1015625,0.0917969,0.152832,0.0917969
			c0.0820313,0,0.1782227-0.0458984,0.2875977-0.1357422c0.215332-0.1806641,0.3994141-0.4160156,0.5522461-0.7060547
			l0.2055664,0.1054688c-0.246582,0.4628906-0.5600586,0.8476563-0.9399414,1.1533203
			c-0.215332,0.1728516-0.3974609,0.2597656-0.5458984,0.2597656c-0.2192383,0-0.3935547-0.1240234-0.5229492-0.3710938
			c-0.0820313-0.1533203-0.2524414-0.8125-0.5107422-1.9775391c-0.6108398,1.0634766-1.1000977,1.7480469-1.4682617,2.0537109
			c-0.2387695,0.1962891-0.4697266,0.2949219-0.6928711,0.2949219c-0.1567383,0-0.2998047-0.0576172-0.4287109-0.1708984
			c-0.0942383-0.0859375-0.1411133-0.2021484-0.1411133-0.3476563c0-0.1289063,0.0429688-0.2373047,0.1293945-0.3232422
			c0.0859375-0.0869141,0.1918945-0.1298828,0.3168945-0.1298828c0.1254883,0,0.2583008,0.0625,0.3994141,0.1884766
			c0.1015625,0.0908203,0.1801758,0.1357422,0.2348633,0.1357422c0.046875,0,0.1079102-0.03125,0.1821289-0.0947266
			c0.184082-0.1484375,0.4345703-0.4707031,0.7514648-0.9648438c0.3173828-0.4951172,0.5249023-0.8515625,0.6225586-1.0712891
			c-0.2426758-0.9536133-0.3735352-1.4580078-0.3930664-1.5126953c-0.090332-0.2553711-0.2080078-0.4355469-0.3525391-0.5415039
			c-0.1450195-0.105957-0.3583984-0.1591797-0.6401367-0.1591797c-0.090332,0-0.1938477,0.0039063-0.3115234,0.0117188v-0.2119141
			L57.7705078,21.6212234z"/>
	</g>
	<g id="XMLID_47_">
		<path id="XMLID_137_" class="st6" d="M68.3012695,22.4805984h6.1660156v0.5708008h-6.1660156V22.4805984z M68.3012695,24.6763992
			h6.1660156v0.5820313h-6.1660156V24.6763992z"/>
		<path id="XMLID_140_" class="st6" d="M80.4926758,20.7677078h0.5751953v2.8134766h2.7900391v0.5708008h-2.7900391v2.7958984
			h-0.5751953v-2.7958984h-2.8007813v-0.5708008h2.8007813V20.7677078z"/>
		<path id="XMLID_142_" class="st6" d="M87.9038086,23.0221024c0.2666016-0.6123047,0.5576172-1.0371094,0.875-1.2744141
			s0.75-0.355957,1.2978516-0.355957c0.6308594,0,1.1630859,0.2275391,1.5976563,0.6826172s0.6513672,1.0458984,0.6513672,1.7714844
			c0,0.7182617-0.2109375,1.3100586-0.6337891,1.7749023s-0.8945313,0.6972656-1.4150391,0.6972656
			c-0.3876953,0-0.7480469-0.1435547-1.0810547-0.4296875c-0.2197266-0.1884766-0.5185547-0.6064453-0.8984375-1.2539063
			c-0.2509766,0.4873047-0.5244141,0.8369141-0.8222656,1.0507813s-0.6582031,0.3212891-1.0810547,0.3212891
			c-0.5634766,0-1.0400391-0.2021484-1.4296875-0.6064453s-0.5839844-0.9257813-0.5839844-1.565918
			c0-0.6474609,0.1796875-1.1689453,0.5400391-1.5654297s0.78125-0.5947266,1.2626953-0.5947266
			c0.3369141,0,0.6337891,0.0874023,0.8925781,0.262207C87.3344727,22.1104813,87.6098633,22.4727859,87.9038086,23.0221024z
			 M87.7338867,23.4752274c-0.1923828-0.4316406-0.4111328-0.7495117-0.6582031-0.9536133s-0.5498047-0.3061523-0.9101563-0.3061523
			c-0.4150391,0-0.7626953,0.1464844-1.0429688,0.4384766c-0.2792969,0.2924805-0.4189453,0.684082-0.4189453,1.1743164
			c0,0.5219727,0.1376953,0.9389648,0.4130859,1.2504883c0.2763672,0.3125,0.5888672,0.46875,0.9375,0.46875
			c0.3720703,0,0.7001953-0.1669922,0.9863281-0.5009766C87.2241211,24.8267899,87.4555664,24.3033524,87.7338867,23.4752274z
			 M88.4672852,24.2164383c0.2939453,0.6123047,0.5839844,1.0234375,0.8691406,1.2333984
			c0.2861328,0.2099609,0.6074219,0.3154297,0.9638672,0.3154297c0.4814453,0,0.8837891-0.1738281,1.2060547-0.5214844
			c0.3232422-0.3466797,0.4853516-0.8134766,0.4853516-1.3979492c0-0.5766602-0.1708984-1.0532227-0.5117188-1.4301758
			c-0.3398438-0.3764648-0.7216797-0.5649414-1.1445313-0.5649414c-0.2705078,0-0.5058594,0.0688477-0.7080078,0.2060547
			c-0.2011719,0.137207-0.3847656,0.3569336-0.5488281,0.6591797
			C88.9848633,22.8927078,88.7807617,23.3927078,88.4672852,24.2164383z"/>
	</g>
</g>
<g id="XMLID_13_">
	<g id="XMLID_61_">
		<g id="XMLID_62_">
			<polygon id="XMLID_63_" class="st5" points="93.1941757,53.691658 93.1941757,56.7317123 107.4949341,52.9023514 
				93.1941757,49.0663986 93.1941757,52.1067123 36.5447884,52.1067123 36.5447884,53.691658 			"/>
		</g>
	</g>
</g>
<g id="XMLID_34_">
	<g id="XMLID_57_">
		<g id="XMLID_58_">
			<polygon id="XMLID_59_" class="st5" points="519.5842285,52.1064529 519.5842285,49.0663986 505.2834778,52.8957596 
				519.5842285,56.7317123 519.5842285,53.6914139 576.2336426,53.6914139 576.2336426,52.1064529 			"/>
		</g>
	</g>
</g>
<g id="XMLID_36_">
	<g id="XMLID_37_">
		<path id="XMLID_135_" class="st6" d="M601.703125,475.3560791c0.1865234,0.2011719,0.328125,0.4033203,0.4238281,0.6044922
			c0.0693359,0.1386719,0.1816406,0.5048828,0.3388672,1.0976563l0.5048828-0.7666016
			c0.1337891-0.1865234,0.2958984-0.3632813,0.4873047-0.5322266c0.1914063-0.1679688,0.359375-0.2832031,0.5048828-0.3457031
			c0.0917969-0.0380859,0.1933594-0.0576172,0.3037109-0.0576172c0.1640625,0,0.2958984,0.0449219,0.3925781,0.1337891
			c0.0976563,0.0888672,0.1464844,0.1972656,0.1464844,0.3251953c0,0.1474609-0.0283203,0.2480469-0.0859375,0.3017578
			c-0.1074219,0.0966797-0.2294922,0.1455078-0.3671875,0.1455078c-0.0800781,0-0.1660156-0.0175781-0.2578125-0.0527344
			c-0.1796875-0.0615234-0.2998047-0.0927734-0.3613281-0.0927734c-0.0917969,0-0.2011719,0.0546875-0.3271484,0.1630859
			c-0.2373047,0.2011719-0.5195313,0.5908203-0.8486328,1.1679688l0.4707031,1.9980469
			c0.0722656,0.3066406,0.1337891,0.4892578,0.1835938,0.5488281c0.0488281,0.0605469,0.0986328,0.0908203,0.1484375,0.0908203
			c0.0800781,0,0.1738281-0.0449219,0.28125-0.1337891c0.2099609-0.1787109,0.3896484-0.4101563,0.5390625-0.6972656
			l0.2011719,0.1044922c-0.2412109,0.4570313-0.546875,0.8369141-0.9179688,1.1386719
			c-0.2099609,0.1699219-0.3876953,0.2558594-0.5332031,0.2558594c-0.2148438,0-0.3847656-0.1220703-0.5107422-0.3662109
			c-0.0800781-0.1513672-0.2470703-0.8017578-0.4990234-1.9521484c-0.5966797,1.0498047-1.0742188,1.7255859-1.4335938,2.0273438
			c-0.2333984,0.1943359-0.4589844,0.2910156-0.6767578,0.2910156c-0.1533203,0-0.2929688-0.0566406-0.4189453-0.1689453
			c-0.0917969-0.0849609-0.1376953-0.1992188-0.1376953-0.3427734c0-0.1279297,0.0419922-0.234375,0.1259766-0.3193359
			s0.1875-0.1279297,0.3095703-0.1279297c0.1230469,0,0.2529297,0.0625,0.390625,0.1865234
			c0.0986328,0.0888672,0.1757813,0.1328125,0.2294922,0.1328125c0.0458984,0,0.1044922-0.0302734,0.1777344-0.0927734
			c0.1796875-0.1464844,0.4238281-0.4648438,0.7333984-0.9521484c0.3095703-0.4882813,0.5126953-0.8408203,0.6083984-1.0576172
			c-0.2373047-0.9414063-0.3652344-1.4394531-0.3847656-1.4931641c-0.0878906-0.2519531-0.2021484-0.4296875-0.34375-0.5351563
			c-0.1416016-0.1044922-0.3496094-0.15625-0.625-0.15625c-0.0878906,0-0.1894531,0.0039063-0.3037109,0.0117188v-0.2089844
			L601.703125,475.3560791z"/>
	</g>
</g>
<g id="XMLID_35_">
	<g id="XMLID_39_">
		<path id="XMLID_133_" class="st6" d="M601.703125,366.3492432c0.1875,0.2011719,0.3291016,0.4033203,0.4248047,0.6044922
			c0.0683594,0.1386719,0.1816406,0.5048828,0.3378906,1.0976563l0.5048828-0.7666016
			c0.1337891-0.1865234,0.2958984-0.3632813,0.4873047-0.5322266c0.1914063-0.1679688,0.359375-0.2832031,0.5048828-0.3457031
			c0.0917969-0.0380859,0.1933594-0.0576172,0.3037109-0.0576172c0.1640625,0,0.2958984,0.0449219,0.3925781,0.1337891
			c0.0976563,0.0888672,0.1464844,0.1972656,0.1464844,0.3251953c0,0.1474609-0.0283203,0.2480469-0.0859375,0.3017578
			c-0.1074219,0.0966797-0.2294922,0.1455078-0.3671875,0.1455078c-0.0800781,0-0.1660156-0.0175781-0.2578125-0.0527344
			c-0.1796875-0.0615234-0.2998047-0.0927734-0.3613281-0.0927734c-0.0917969,0-0.2011719,0.0546875-0.3271484,0.1630859
			c-0.2373047,0.2011719-0.5195313,0.5908203-0.8486328,1.1679688l0.4707031,1.9980469
			c0.0722656,0.3066406,0.1337891,0.4892578,0.1835938,0.5488281c0.0488281,0.0605469,0.0986328,0.0908203,0.1484375,0.0908203
			c0.0800781,0,0.1738281-0.0449219,0.28125-0.1337891c0.2099609-0.1787109,0.3896484-0.4101563,0.5390625-0.6972656
			l0.2011719,0.1044922c-0.2412109,0.4570313-0.546875,0.8369141-0.9179688,1.1386719
			c-0.2099609,0.1699219-0.3876953,0.2558594-0.5332031,0.2558594c-0.2148438,0-0.3847656-0.1220703-0.5107422-0.3662109
			c-0.0800781-0.1513672-0.2460938-0.8017578-0.4990234-1.9521484c-0.5957031,1.0498047-1.0742188,1.7255859-1.4335938,2.0273438
			c-0.2333984,0.1943359-0.4589844,0.2910156-0.6767578,0.2910156c-0.1523438,0-0.2919922-0.0566406-0.4189453-0.1689453
			c-0.0917969-0.0849609-0.1376953-0.1992188-0.1376953-0.3427734c0-0.1279297,0.0429688-0.234375,0.1269531-0.3193359
			s0.1865234-0.1279297,0.3095703-0.1279297c0.1220703,0,0.2519531,0.0625,0.3896484,0.1865234
			c0.0996094,0.0888672,0.1757813,0.1328125,0.2294922,0.1328125c0.0458984,0,0.1054688-0.0302734,0.1777344-0.0927734
			c0.1796875-0.1464844,0.4248047-0.4648438,0.734375-0.9521484c0.3095703-0.4882813,0.5117188-0.8408203,0.6074219-1.0576172
			c-0.2363281-0.9414063-0.3652344-1.4394531-0.3837891-1.4931641c-0.0878906-0.2519531-0.203125-0.4296875-0.34375-0.5351563
			c-0.1416016-0.1044922-0.3505859-0.15625-0.6259766-0.15625c-0.0878906,0-0.1884766,0.0039063-0.3037109,0.0117188v-0.2089844
			L601.703125,366.3492432z"/>
	</g>
</g>
<g id="XMLID_21_">
	<g id="XMLID_22_">
		<path id="XMLID_131_" class="st6" d="M601.703125,247.3199463c0.1865234,0.2011719,0.328125,0.4033203,0.4238281,0.6044922
			c0.0693359,0.1386719,0.1816406,0.5048828,0.3388672,1.0976563l0.5048828-0.7666016
			c0.1337891-0.1865234,0.2958984-0.3632813,0.4873047-0.5322266c0.1914063-0.1679688,0.359375-0.2832031,0.5048828-0.3457031
			c0.0917969-0.0380859,0.1933594-0.0576172,0.3037109-0.0576172c0.1640625,0,0.2958984,0.0449219,0.3925781,0.1337891
			c0.0976563,0.0888672,0.1464844,0.1972656,0.1464844,0.3251953c0,0.1474609-0.0283203,0.2480469-0.0859375,0.3017578
			c-0.1074219,0.0966797-0.2294922,0.1455078-0.3671875,0.1455078c-0.0800781,0-0.1660156-0.0175781-0.2578125-0.0527344
			c-0.1796875-0.0615234-0.2998047-0.0927734-0.3613281-0.0927734c-0.0917969,0-0.2011719,0.0546875-0.3271484,0.1630859
			c-0.2373047,0.2011719-0.5195313,0.5908203-0.8486328,1.1679688l0.4707031,1.9980469
			c0.0722656,0.3066406,0.1337891,0.4892578,0.1835938,0.5488281c0.0488281,0.0605469,0.0986328,0.0908203,0.1484375,0.0908203
			c0.0800781,0,0.1738281-0.0449219,0.28125-0.1337891c0.2099609-0.1787109,0.3896484-0.4101563,0.5390625-0.6972656
			l0.2011719,0.1044922c-0.2412109,0.4570313-0.546875,0.8369141-0.9179688,1.1386719
			c-0.2099609,0.1699219-0.3876953,0.2558594-0.5332031,0.2558594c-0.2148438,0-0.3847656-0.1220703-0.5107422-0.3662109
			c-0.0800781-0.1513672-0.2470703-0.8017578-0.4990234-1.9521484c-0.5966797,1.0498047-1.0742188,1.7255859-1.4335938,2.0273438
			c-0.2333984,0.1943359-0.4589844,0.2910156-0.6767578,0.2910156c-0.1533203,0-0.2929688-0.0566406-0.4189453-0.1689453
			c-0.0917969-0.0849609-0.1376953-0.1992188-0.1376953-0.3427734c0-0.1279297,0.0419922-0.234375,0.1259766-0.3193359
			s0.1875-0.1279297,0.3095703-0.1279297c0.1230469,0,0.2529297,0.0625,0.390625,0.1865234
			c0.0986328,0.0888672,0.1757813,0.1328125,0.2294922,0.1328125c0.0458984,0,0.1044922-0.0302734,0.1777344-0.0927734
			c0.1796875-0.1464844,0.4238281-0.4648438,0.7333984-0.9521484c0.3095703-0.4882813,0.5126953-0.8408203,0.6083984-1.0576172
			c-0.2373047-0.9414063-0.3652344-1.4394531-0.3847656-1.4931641c-0.0878906-0.2519531-0.2021484-0.4296875-0.34375-0.5351563
			c-0.1416016-0.1044922-0.3496094-0.15625-0.625-0.15625c-0.0878906,0-0.1894531,0.0039063-0.3037109,0.0117188v-0.2089844
			L601.703125,247.3199463z"/>
	</g>
</g>
<g id="XMLID_23_">
	<g id="XMLID_24_">
		<path id="XMLID_129_" class="st6" d="M603.3701172,137.3492432c0.1865234,0.2011719,0.328125,0.402832,0.4238281,0.6040039
			c0.0693359,0.1391602,0.1816406,0.5053711,0.3388672,1.0981445l0.5048828-0.7670898
			c0.1337891-0.1860352,0.2958984-0.3632813,0.4873047-0.5317383s0.359375-0.2836914,0.5048828-0.3457031
			c0.0917969-0.0385742,0.1933594-0.0576172,0.3037109-0.0576172c0.1640625,0,0.2958984,0.0444336,0.3925781,0.1333008
			c0.0976563,0.0893555,0.1464844,0.1977539,0.1464844,0.3251953c0,0.1474609-0.0283203,0.2480469-0.0859375,0.3022461
			c-0.1074219,0.0966797-0.2294922,0.1455078-0.3671875,0.1455078c-0.0800781,0-0.1660156-0.0175781-0.2578125-0.0527344
			c-0.1796875-0.0615234-0.2998047-0.0927734-0.3613281-0.0927734c-0.0917969,0-0.2011719,0.0541992-0.3271484,0.1625977
			c-0.2373047,0.2016602-0.5195313,0.5908203-0.8486328,1.1679688l0.4707031,1.9980469
			c0.0722656,0.3066406,0.1337891,0.4892578,0.1835938,0.5488281c0.0488281,0.0605469,0.0986328,0.0908203,0.1484375,0.0908203
			c0.0800781,0,0.1738281-0.0449219,0.28125-0.1337891c0.2099609-0.1787109,0.3896484-0.4101563,0.5390625-0.6972656
			l0.2011719,0.1044922c-0.2412109,0.4570313-0.546875,0.8369141-0.9179688,1.1386719
			c-0.2099609,0.1699219-0.3876953,0.2558594-0.5332031,0.2558594c-0.2148438,0-0.3847656-0.1220703-0.5107422-0.3662109
			c-0.0800781-0.1513672-0.2470703-0.8017578-0.4990234-1.9521484c-0.5966797,1.0498047-1.0742188,1.7255859-1.4335938,2.0273438
			c-0.2333984,0.1943359-0.4589844,0.2910156-0.6767578,0.2910156c-0.1533203,0-0.2929688-0.0566406-0.4189453-0.1689453
			c-0.0917969-0.0849609-0.1376953-0.1992188-0.1376953-0.3427734c0-0.1279297,0.0419922-0.234375,0.1259766-0.3193359
			s0.1875-0.1279297,0.3095703-0.1279297c0.1230469,0,0.2529297,0.0625,0.390625,0.1865234
			c0.0986328,0.0888672,0.1757813,0.1328125,0.2294922,0.1328125c0.0458984,0,0.1044922-0.0302734,0.1777344-0.0927734
			c0.1796875-0.1464844,0.4238281-0.4648438,0.7333984-0.9521484c0.3095703-0.4882813,0.5126953-0.8408203,0.6083984-1.0576172
			c-0.2373047-0.9414063-0.3652344-1.4389648-0.3847656-1.4931641c-0.0878906-0.2514648-0.2021484-0.4296875-0.34375-0.534668
			c-0.1416016-0.1044922-0.3496094-0.1567383-0.625-0.1567383c-0.0878906,0-0.1894531,0.0039063-0.3037109,0.0117188v-0.2089844
			L603.3701172,137.3492432z"/>
	</g>
</g>
<g id="XMLID_41_">
	<g id="XMLID_68_">
		<path id="XMLID_127_" class="st7" d="M193.9833984,434.4664307l1.1171875-0.5390625h0.1113281v3.8339844
			c0,0.2548828,0.0107422,0.4130859,0.0322266,0.4755859s0.0654297,0.1113281,0.1337891,0.1445313
			c0.0673828,0.0332031,0.2050781,0.0527344,0.4130859,0.0566406v0.1240234h-1.7265625v-0.1240234
			c0.2167969-0.0039063,0.3564453-0.0224609,0.4199219-0.0546875c0.0625-0.0332031,0.1064453-0.0761719,0.1318359-0.1308594
			c0.0244141-0.0546875,0.0371094-0.21875,0.0371094-0.4912109v-2.4511719c0-0.3300781-0.0117188-0.5419922-0.0341797-0.6357422
			c-0.015625-0.0712891-0.0439453-0.1240234-0.0859375-0.1572266c-0.0419922-0.0341797-0.0917969-0.0507813-0.1503906-0.0507813
			c-0.0839844,0-0.2001953,0.0351563-0.3486328,0.1035156L193.9833984,434.4664307z"/>
	</g>
	<g id="XMLID_64_">
		<path id="XMLID_123_" class="st7" d="M170.0678711,428.0758057l-0.9072266,3.1044922h0.7436523
			c0.5307617,0,0.9150391-0.0800781,1.1533203-0.2402344c0.237793-0.1601563,0.4428711-0.4560547,0.6147461-0.8886719h0.2163086
			l-0.8134766,2.8496094h-0.234375c0.0703125-0.2392578,0.1054688-0.4443359,0.1054688-0.6142578
			c0-0.1660156-0.0341797-0.2988281-0.1025391-0.3994141s-0.1621094-0.1748047-0.28125-0.2226563
			c-0.1186523-0.0488281-0.3696289-0.0722656-0.7519531-0.0722656h-0.7553711l-0.7670898,2.6005859
			c-0.0742188,0.2509766-0.1108398,0.4414063-0.1108398,0.5732422c0,0.1005859,0.0483398,0.1894531,0.1459961,0.2666016
			c0.0664063,0.0537109,0.2324219,0.0810547,0.4975586,0.0810547h0.7026367c0.7612305,0,1.3710938-0.1337891,1.8295898-0.4003906
			c0.4584961-0.265625,0.8696289-0.7294922,1.2324219-1.3896484h0.2167969l-0.7495117,2.1835938h-6.1357422l0.0761719-0.2138672
			c0.3046875-0.0078125,0.5092773-0.0351563,0.6147461-0.0820313c0.15625-0.0693359,0.2695313-0.1582031,0.3398438-0.265625
			c0.1054688-0.1582031,0.2299805-0.4902344,0.3745117-0.9970703l1.3935547-4.7373047
			c0.1088867-0.3828125,0.1635742-0.6738281,0.1635742-0.875c0-0.1464844-0.0517578-0.2617188-0.1547852-0.3447266
			c-0.1035156-0.0830078-0.3056641-0.1240234-0.605957-0.1240234h-0.1230469l0.0703125-0.2148438h5.7021484l-0.4916992,1.8945313
			h-0.2167969c0.0273438-0.1777344,0.0410156-0.3261719,0.0410156-0.4462891c0-0.2050781-0.0507813-0.3769531-0.1523438-0.515625
			c-0.1323242-0.1777344-0.3256836-0.3125-0.5795898-0.4052734c-0.1870117-0.0693359-0.6186523-0.1044922-1.293457-0.1044922
			H170.0678711z"/>
		<path id="XMLID_125_" class="st7" d="M190.4853516,428.0758057l-0.9082031,3.1044922h0.7441406
			c0.5302734,0,0.9150391-0.0800781,1.1533203-0.2402344s0.4423828-0.4560547,0.6142578-0.8886719h0.2167969l-0.8134766,2.8496094
			h-0.234375c0.0703125-0.2392578,0.1054688-0.4443359,0.1054688-0.6142578c0-0.1660156-0.0341797-0.2988281-0.1025391-0.3994141
			s-0.1621094-0.1748047-0.28125-0.2226563c-0.1191406-0.0488281-0.3691406-0.0722656-0.7519531-0.0722656h-0.7548828
			l-0.7675781,2.6005859c-0.0742188,0.2509766-0.1113281,0.4414063-0.1113281,0.5732422
			c0,0.1005859,0.0488281,0.1894531,0.1464844,0.2666016c0.0664063,0.0537109,0.2324219,0.0810547,0.4980469,0.0810547h0.7021484
			c0.7607422,0,1.3710938-0.1337891,1.8300781-0.4003906c0.4580078-0.265625,0.8691406-0.7294922,1.2314453-1.3896484h0.2167969
			l-0.7490234,2.1835938h-6.1357422l0.0761719-0.2138672c0.3046875-0.0078125,0.5097656-0.0351563,0.6152344-0.0820313
			c0.1552734-0.0693359,0.2685547-0.1582031,0.3388672-0.265625c0.1054688-0.1582031,0.2304688-0.4902344,0.375-0.9970703
			l1.3935547-4.7373047c0.109375-0.3828125,0.1640625-0.6738281,0.1640625-0.875
			c0-0.1464844-0.0517578-0.2617188-0.1552734-0.3447266s-0.3056641-0.1240234-0.6064453-0.1240234h-0.1230469l0.0703125-0.2148438
			h5.7021484l-0.4912109,1.8945313h-0.2167969c0.0273438-0.1777344,0.0410156-0.3261719,0.0410156-0.4462891
			c0-0.2050781-0.0507813-0.3769531-0.1523438-0.515625c-0.1328125-0.1777344-0.3261719-0.3125-0.5791016-0.4052734
			c-0.1875-0.0693359-0.6191406-0.1044922-1.2939453-0.1044922H190.4853516z"/>
	</g>
	<g id="XMLID_60_">
		<path id="XMLID_106_" class="st7" d="M177.0830078,431.1109619h6.1474609v0.5625h-6.1474609V431.1109619z
			 M177.0830078,433.2711182h6.1474609v0.5742188h-6.1474609V433.2711182z"/>
	</g>
</g>
<g id="XMLID_72_">
	<g id="XMLID_75_">
		<path id="XMLID_104_" class="st8" d="M316.8525391,338.9488525l-0.3242188,0.8740234h-2.7304688v-0.1240234
			c0.8027344-0.71875,1.3681641-1.3056641,1.6962891-1.7617188c0.3271484-0.4550781,0.4912109-0.8710938,0.4912109-1.2490234
			c0-0.2880859-0.0898438-0.5244141-0.2695313-0.7099609c-0.1796875-0.1845703-0.3945313-0.2773438-0.6445313-0.2773438
			c-0.2285156,0-0.4326172,0.0654297-0.6132813,0.1953125c-0.1806641,0.1308594-0.3144531,0.3222656-0.4013672,0.5742188h-0.1259766
			c0.0566406-0.4121094,0.203125-0.7294922,0.4384766-0.9501953c0.2353516-0.2216797,0.5302734-0.3320313,0.8828125-0.3320313
			c0.375,0,0.6884766,0.1181641,0.9404297,0.3554688c0.2509766,0.2363281,0.3769531,0.515625,0.3769531,0.8369141
			c0,0.2294922-0.0546875,0.4599609-0.1640625,0.6894531c-0.1679688,0.3623047-0.4414063,0.7451172-0.8193359,1.1484375
			c-0.5664063,0.6074219-0.9199219,0.9736328-1.0615234,1.0986328h1.2089844c0.2451172,0,0.4179688-0.0087891,0.5166016-0.0263672
			c0.0986328-0.0185547,0.1884766-0.0546875,0.2675781-0.109375c0.0800781-0.0546875,0.1494141-0.1318359,0.2089844-0.2324219
			H316.8525391z"/>
	</g>
	<g id="XMLID_74_">
		<path id="XMLID_100_" class="st8" d="M289.6005859,329.3365479l-0.9150391,3.1044922h0.7495117
			c0.5351563,0,0.9228516-0.0800781,1.1630859-0.2402344s0.4467773-0.4560547,0.6201172-0.8896484h0.2182617l-0.8208008,2.8505859
			h-0.2358398c0.0708008-0.2392578,0.105957-0.4443359,0.105957-0.6142578c0-0.1660156-0.0341797-0.2988281-0.1030273-0.3994141
			s-0.1635742-0.1748047-0.2836914-0.2236328c-0.1201172-0.0478516-0.3725586-0.0722656-0.7583008-0.0722656h-0.7617188
			l-0.7734375,2.6015625c-0.074707,0.2509766-0.1123047,0.4414063-0.1123047,0.5732422
			c0,0.1005859,0.0493164,0.1894531,0.1474609,0.2666016c0.0668945,0.0537109,0.234375,0.0810547,0.5019531,0.0810547h0.7084961
			c0.7675781,0,1.3828125-0.1337891,1.8452148-0.4003906c0.4624023-0.265625,0.8764648-0.7294922,1.2426758-1.3896484h0.2182617
			l-0.7553711,2.1835938h-6.1875l0.0766602-0.2138672c0.3071289-0.0078125,0.5136719-0.0351563,0.6201172-0.0820313
			c0.1572266-0.0693359,0.2714844-0.1582031,0.3422852-0.265625c0.1064453-0.1582031,0.2319336-0.4902344,0.3779297-0.9970703
			l1.4052734-4.7382813c0.1098633-0.3818359,0.1650391-0.6738281,0.1650391-0.8740234
			c0-0.1474609-0.0522461-0.2617188-0.15625-0.3447266c-0.1044922-0.0830078-0.3081055-0.125-0.6113281-0.125h-0.1240234
			l0.0708008-0.2138672h5.7509766l-0.4960938,1.8935547h-0.2182617c0.0273438-0.1777344,0.0410156-0.3261719,0.0410156-0.4453125
			c0-0.2050781-0.0512695-0.3769531-0.1533203-0.515625c-0.1337891-0.1777344-0.3286133-0.3125-0.5844727-0.40625
			c-0.1889648-0.0683594-0.6240234-0.1035156-1.3051758-0.1035156H289.6005859z"/>
		<path id="XMLID_102_" class="st8" d="M310.1904297,329.3365479l-0.9150391,3.1044922h0.75
			c0.5351563,0,0.9228516-0.0800781,1.1630859-0.2402344s0.4472656-0.4560547,0.6201172-0.8896484h0.21875l-0.8212891,2.8505859
			h-0.2363281c0.0712891-0.2392578,0.1064453-0.4443359,0.1064453-0.6142578c0-0.1660156-0.0341797-0.2988281-0.1035156-0.3994141
			c-0.0683594-0.1005859-0.1630859-0.1748047-0.2832031-0.2236328c-0.1201172-0.0478516-0.3730469-0.0722656-0.7587891-0.0722656
			h-0.7617188l-0.7734375,2.6015625c-0.0742188,0.2509766-0.1113281,0.4414063-0.1113281,0.5732422
			c0,0.1005859,0.0488281,0.1894531,0.1474609,0.2666016c0.0664063,0.0537109,0.2333984,0.0810547,0.5019531,0.0810547h0.7080078
			c0.7675781,0,1.3828125-0.1337891,1.8447266-0.4003906c0.4628906-0.265625,0.8769531-0.7294922,1.2431641-1.3896484h0.21875
			l-0.7558594,2.1835938h-6.1879883l0.0761719-0.2138672c0.3076172-0.0078125,0.5136719-0.0351563,0.6201172-0.0820313
			c0.1572266-0.0693359,0.2714844-0.1582031,0.3432617-0.265625c0.1064453-0.1582031,0.2324219-0.4902344,0.3779297-0.9970703
			l1.4052734-4.7382813c0.1103516-0.3818359,0.1650391-0.6738281,0.1650391-0.8740234
			c0-0.1474609-0.0517578-0.2617188-0.15625-0.3447266s-0.3085938-0.125-0.6113281-0.125h-0.1240234l0.0712891-0.2138672h5.75
			l-0.4960938,1.8935547h-0.2177734c0.0273438-0.1777344,0.0410156-0.3261719,0.0410156-0.4453125
			c0-0.2050781-0.0507813-0.3769531-0.1533203-0.515625c-0.1337891-0.1777344-0.3291016-0.3125-0.5849609-0.40625
			c-0.1884766-0.0683594-0.6240234-0.1035156-1.3046875-0.1035156H310.1904297z"/>
	</g>
	<g id="XMLID_73_">
		<path id="XMLID_97_" class="st8" d="M296.6777344,332.3717041h6.199707v0.5625h-6.199707V332.3717041z M296.6777344,334.5318604
			h6.199707v0.5742188h-6.199707V334.5318604z"/>
	</g>
</g>
<g id="XMLID_76_">
	<g id="XMLID_79_">
		<path id="XMLID_95_" class="st9" d="M261.6806641,226.1461182c0.1318359-0.3056641,0.2978516-0.5419922,0.4980469-0.7080078
			c0.2001953-0.1669922,0.4501953-0.25,0.75-0.25c0.3691406,0,0.6523438,0.1181641,0.8496094,0.3554688
			c0.1494141,0.1757813,0.2236328,0.3642578,0.2236328,0.5654297c0,0.3300781-0.2099609,0.671875-0.6318359,1.0244141
			c0.2832031,0.109375,0.4970703,0.265625,0.6425781,0.46875c0.1445313,0.2041016,0.2177734,0.4423828,0.2177734,0.7167969
			c0,0.3935547-0.1269531,0.7333984-0.3808594,1.0214844c-0.3310547,0.375-0.8105469,0.5625-1.4384766,0.5625
			c-0.3105469,0-0.5214844-0.0380859-0.6337891-0.1132813c-0.1123047-0.0761719-0.1679688-0.1572266-0.1679688-0.2451172
			c0-0.0644531,0.0263672-0.1210938,0.0800781-0.1708984c0.0527344-0.0488281,0.1171875-0.0732422,0.1914063-0.0732422
			c0.0566406,0,0.1152344,0.0087891,0.1738281,0.0263672c0.0380859,0.0117188,0.1259766,0.0527344,0.2617188,0.1230469
			s0.2294922,0.1123047,0.2822266,0.125c0.0839844,0.0244141,0.1728516,0.0371094,0.2685547,0.0371094
			c0.2314453,0,0.4316406-0.0878906,0.6035156-0.2646484c0.1708984-0.1767578,0.2568359-0.3847656,0.2568359-0.6259766
			c0-0.1767578-0.0400391-0.3486328-0.1191406-0.515625c-0.0595703-0.125-0.1240234-0.2197266-0.1943359-0.2851563
			c-0.0976563-0.0888672-0.2304688-0.1699219-0.4003906-0.2421875c-0.1708984-0.0732422-0.34375-0.109375-0.5205078-0.109375
			h-0.1083984v-0.1005859c0.1787109-0.0224609,0.3583984-0.0859375,0.5380859-0.1904297
			c0.1806641-0.1054688,0.3115234-0.2314453,0.3925781-0.3789063c0.0820313-0.1474609,0.1230469-0.3085938,0.1230469-0.4853516
			c0-0.2294922-0.0732422-0.4160156-0.2197266-0.5576172s-0.328125-0.2128906-0.5458984-0.2128906
			c-0.3505859,0-0.6445313,0.1855469-0.8798828,0.5566406L261.6806641,226.1461182z"/>
	</g>
	<g id="XMLID_78_">
		<path id="XMLID_91_" class="st9" d="M237.6005859,219.3365479l-0.9116211,3.1044922h0.7470703
			c0.5327148,0,0.9189453-0.0800781,1.1582031-0.2402344s0.4448242-0.4570313,0.6171875-0.8896484h0.2177734l-0.8173828,2.8505859
			h-0.2353516c0.0708008-0.2392578,0.105957-0.4443359,0.105957-0.6142578c0-0.1660156-0.0341797-0.2998047-0.1025391-0.3994141
			c-0.0688477-0.1005859-0.1630859-0.1748047-0.2827148-0.2236328c-0.1191406-0.0478516-0.3710938-0.0722656-0.7553711-0.0722656
			h-0.7583008l-0.7705078,2.6015625c-0.0742188,0.2509766-0.1118164,0.4414063-0.1118164,0.5732422
			c0,0.1005859,0.0493164,0.1894531,0.1469727,0.2666016c0.0668945,0.0537109,0.2333984,0.0810547,0.5,0.0810547h0.7055664
			c0.7641602,0,1.3769531-0.1337891,1.8374023-0.4003906c0.4604492-0.265625,0.8730469-0.7294922,1.237793-1.3896484h0.2177734
			l-0.7529297,2.1835938h-6.1621094l0.0766602-0.2138672c0.3056641-0.0078125,0.5112305-0.0351563,0.6171875-0.0820313
			c0.1567383-0.0693359,0.2705078-0.1582031,0.3408203-0.265625c0.105957-0.1582031,0.2314453-0.4902344,0.3764648-0.9970703
			l1.3994141-4.7382813c0.1098633-0.3818359,0.1645508-0.6738281,0.1645508-0.8740234
			c0-0.1474609-0.0517578-0.2617188-0.1557617-0.3447266s-0.3066406-0.125-0.6083984-0.125h-0.1235352l0.0708008-0.2138672
			h5.7270508l-0.4941406,1.8935547h-0.2177734c0.027832-0.1777344,0.0415039-0.3261719,0.0415039-0.4453125
			c0-0.2050781-0.0512695-0.3769531-0.152832-0.515625c-0.1333008-0.1777344-0.3276367-0.3134766-0.5825195-0.40625
			c-0.1879883-0.0693359-0.6210938-0.1035156-1.2993164-0.1035156H237.6005859z"/>
		<path id="XMLID_93_" class="st9" d="M258.1064453,219.3365479l-0.9111328,3.1044922h0.7460938
			c0.5332031,0,0.9199219-0.0800781,1.1591797-0.2402344c0.2382813-0.1601563,0.4443359-0.4570313,0.6171875-0.8896484h0.2177734
			l-0.8173828,2.8505859h-0.2353516c0.0703125-0.2392578,0.1054688-0.4443359,0.1054688-0.6142578
			c0-0.1660156-0.0341797-0.2998047-0.1025391-0.3994141c-0.0693359-0.1005859-0.1630859-0.1748047-0.2822266-0.2236328
			c-0.1201172-0.0478516-0.3720703-0.0722656-0.7558594-0.0722656h-0.7587891l-0.7695313,2.6015625
			c-0.0751953,0.2509766-0.1123047,0.4414063-0.1123047,0.5732422c0,0.1005859,0.0488281,0.1894531,0.1474609,0.2666016
			c0.0664063,0.0537109,0.2324219,0.0810547,0.4990234,0.0810547h0.7060547c0.7646484,0,1.3769531-0.1337891,1.8378906-0.4003906
			c0.4599609-0.265625,0.8730469-0.7294922,1.2373047-1.3896484h0.2177734l-0.7529297,2.1835938H253.9375l0.0761719-0.2138672
			c0.3056641-0.0078125,0.5117188-0.0351563,0.6181641-0.0820313c0.15625-0.0693359,0.2695313-0.1582031,0.3408203-0.265625
			c0.1054688-0.1582031,0.2314453-0.4902344,0.3759766-0.9970703l1.3994141-4.7382813
			c0.109375-0.3818359,0.1650391-0.6738281,0.1650391-0.8740234c0-0.1474609-0.0527344-0.2617188-0.15625-0.3447266
			s-0.3066406-0.125-0.6083984-0.125h-0.1230469l0.0703125-0.2138672h5.7265625l-0.4931641,1.8935547h-0.2177734
			c0.0273438-0.1777344,0.0410156-0.3261719,0.0410156-0.4453125c0-0.2050781-0.0507813-0.3769531-0.1533203-0.515625
			c-0.1328125-0.1777344-0.3271484-0.3134766-0.5820313-0.40625c-0.1875-0.0693359-0.6210938-0.1035156-1.2988281-0.1035156
			H258.1064453z"/>
	</g>
	<g id="XMLID_77_">
		<path id="XMLID_88_" class="st9" d="M244.6464844,222.3717041h6.1738281v0.5615234h-6.1738281V222.3717041z
			 M244.6464844,224.5318604h6.1738281v0.5742188h-6.1738281V224.5318604z"/>
	</g>
</g>
<g id="XMLID_80_">
	<g id="XMLID_83_">
		<path id="XMLID_85_" class="st10" d="M229.4404297,117.2789383v0.4755859h-0.6210938v1.1992188h-0.5634766v-1.1992188h-1.9589844
			v-0.4287109l2.1464844-3.0068359h0.3759766v2.9599609H229.4404297z M228.2558594,117.2789383v-2.2529297l-1.625,2.2529297
			H228.2558594z"/>
	</g>
	<g id="XMLID_82_">
		<path id="XMLID_25_" class="st10" d="M202.1411133,108.4674149l-0.9150391,3.1044922h0.7495117
			c0.5351563,0,0.9228516-0.0800781,1.1630859-0.2402344s0.4467773-0.456543,0.6201172-0.8891602h0.2182617l-0.8208008,2.8500977
			h-0.2358398c0.0708008-0.2392578,0.105957-0.4443359,0.105957-0.6142578c0-0.1660156-0.0341797-0.2993164-0.1030273-0.3994141
			c-0.0688477-0.1005859-0.1635742-0.1748047-0.2836914-0.2231445s-0.3725586-0.0722656-0.7583008-0.0722656h-0.7617188
			l-0.7734375,2.6010742c-0.074707,0.2509766-0.1123047,0.4414063-0.1123047,0.5732422
			c0,0.1005859,0.0493164,0.1894531,0.1474609,0.2666016c0.0668945,0.0537109,0.234375,0.0810547,0.5019531,0.0810547h0.7084961
			c0.7675781,0,1.3828125-0.1337891,1.8452148-0.4003906c0.4624023-0.265625,0.8764648-0.7294922,1.2426758-1.3896484h0.2182617
			l-0.7553711,2.1835938h-6.1875l0.0766602-0.2138672c0.3071289-0.0078125,0.5136719-0.0351563,0.6201172-0.0820313
			c0.1572266-0.0693359,0.2714844-0.1582031,0.3422852-0.265625c0.1064453-0.1582031,0.2319336-0.4902344,0.3779297-0.9970703
			l1.4052734-4.737793c0.1098633-0.3823242,0.1650391-0.6738281,0.1650391-0.8745117
			c0-0.1469727-0.0522461-0.2617188-0.15625-0.3447266c-0.1044922-0.0830078-0.3081055-0.1245117-0.6113281-0.1245117h-0.1240234
			l0.0708008-0.2143555h5.7509766l-0.4960938,1.894043h-0.2182617c0.0273438-0.1777344,0.0410156-0.3261719,0.0410156-0.4458008
			c0-0.2050781-0.0512695-0.3769531-0.1533203-0.515625c-0.1337891-0.1777344-0.3286133-0.3129883-0.5844727-0.4057617
			c-0.1889648-0.0693359-0.6240234-0.1040039-1.3051758-0.1040039H202.1411133z"/>
		<path id="XMLID_40_" class="st10" d="M222.7304688,108.4674149l-0.9150391,3.1044922h0.75
			c0.5351563,0,0.9228516-0.0800781,1.1630859-0.2402344s0.4472656-0.456543,0.6201172-0.8891602h0.21875l-0.8212891,2.8500977
			h-0.2363281c0.0712891-0.2392578,0.1064453-0.4443359,0.1064453-0.6142578c0-0.1660156-0.0341797-0.2993164-0.1035156-0.3994141
			c-0.0683594-0.1005859-0.1630859-0.1748047-0.2832031-0.2231445s-0.3730469-0.0722656-0.7587891-0.0722656h-0.7617188
			l-0.7734375,2.6010742c-0.0742188,0.2509766-0.1113281,0.4414063-0.1113281,0.5732422
			c0,0.1005859,0.0488281,0.1894531,0.1474609,0.2666016c0.0664063,0.0537109,0.2333984,0.0810547,0.5019531,0.0810547h0.7080078
			c0.7675781,0,1.3828125-0.1337891,1.8447266-0.4003906c0.4628906-0.265625,0.8769531-0.7294922,1.2431641-1.3896484h0.21875
			l-0.7558594,2.1835938h-6.1875l0.0761719-0.2138672c0.3076172-0.0078125,0.5136719-0.0351563,0.6201172-0.0820313
			c0.1572266-0.0693359,0.2714844-0.1582031,0.3427734-0.265625c0.1064453-0.1582031,0.2324219-0.4902344,0.3779297-0.9970703
			l1.4052734-4.737793c0.1103516-0.3823242,0.1650391-0.6738281,0.1650391-0.8745117
			c0-0.1469727-0.0517578-0.2617188-0.15625-0.3447266s-0.3085938-0.1245117-0.6113281-0.1245117h-0.1240234l0.0712891-0.2143555
			h5.75l-0.4960938,1.894043h-0.2177734c0.0273438-0.1777344,0.0410156-0.3261719,0.0410156-0.4458008
			c0-0.2050781-0.0507813-0.3769531-0.1533203-0.515625c-0.1337891-0.1777344-0.3291016-0.3129883-0.5849609-0.4057617
			c-0.1884766-0.0693359-0.6240234-0.1040039-1.3046875-0.1040039H222.7304688z"/>
	</g>
	<g id="XMLID_81_">
		<path id="XMLID_18_" class="st10" d="M209.2182617,111.5025711h6.199707v0.5620117h-6.199707V111.5025711z
			 M209.2182617,113.6627274h6.199707v0.5742188h-6.199707V113.6627274z"/>
	</g>
</g>
<line id="XMLID_109_" class="st3" x1="106.75" y1="139.5444183" x2="57" y2="139.5444183"/>
<line id="XMLID_110_" class="st3" x1="555.0334473" y1="139.5444183" x2="505.2834778" y2="139.5444183"/>
<line id="XMLID_111_" class="st2" x1="555.0334473" y1="249.5774994" x2="505.2834778" y2="249.5774994"/>
<line id="XMLID_112_" class="st2" x1="106.75" y1="249.5774994" x2="57" y2="249.5774994"/>
<line id="XMLID_113_" class="st1" x1="106.75" y1="368.6064148" x2="57" y2="368.6064148"/>
<line id="XMLID_114_" class="st1" x1="555.0334473" y1="368.6062927" x2="505.2834778" y2="368.6062927"/>
<line id="XMLID_115_" class="st0" x1="555.0334473" y1="477.9470215" x2="505.2834778" y2="477.9470215"/>
<line id="XMLID_116_" class="st0" x1="106.75" y1="477.9470215" x2="57" y2="477.9470215"/>
<g id="XMLID_17_">
</g>
<g id="XMLID_185_">
</g>
<g id="XMLID_186_">
</g>
<g id="XMLID_187_">
</g>
<g id="XMLID_188_">
</g>
<g id="XMLID_189_">
</g>
</svg>
