<?xml version="1.0" encoding="utf-8"?>
<!-- Generator: Adobe Illustrator 19.0.0, SVG Export Plug-In . SVG Version: 6.00 Build 0)  -->
<svg version="1.1" id="Layer_1" xmlns="http://www.w3.org/2000/svg" xmlns:xlink="http://www.w3.org/1999/xlink" x="0px" y="0px"
	 viewBox="0 0 305 136" style="enable-background:new 0 0 305 136;" xml:space="preserve">
<style type="text/css">
	.st0{fill:none;stroke:#1173BB;stroke-linejoin:round;stroke-miterlimit:10;}
	.st1{fill:#010101;}
</style>
<g id="XMLID_67_">
	<g id="XMLID_124_">
		<g id="XMLID_125_">
			<polygon id="XMLID_126_" points="291.475708,46.7770996 291.475708,48.8017578 301,46.2514343 291.475708,43.6966858 
				291.475708,45.7215271 6,45.7215271 6,46.7770996 			"/>
		</g>
	</g>
</g>
<polyline id="XMLID_100_" class="st0" points="29.81954,54.3097229 30.6757374,55.5990372 31.5319157,56.8283157 
	32.388092,57.9896431 33.2443085,59.0755806 34.1004868,60.0791397 34.956665,60.9938889 35.8128433,61.8139305 
	36.6690407,62.5340118 37.525219,63.1495247 38.3813934,63.6564865 39.2376137,64.0516586 40.0937881,64.3325043 
	40.9499664,64.4971924 41.8061447,64.5447159 42.6623421,64.4747162 43.5185204,64.2876968 44.3746986,63.9848175 
	45.2309151,63.5680351 46.0870934,63.0400085 46.9432678,62.404171 47.7994461,61.6645737 48.6556435,60.8259811 
	49.5118217,59.8937683 50.368,58.8739281 51.2242165,57.7730217 52.0803947,56.5980949 52.936573,55.3567047 53.7927475,54.0568237 
	54.6489449,52.7068024 55.5051231,51.3152924 56.3613014,49.8912697 57.2175179,48.4438438 58.0736961,46.9823341 
	58.9298744,45.5161171 59.7860527,44.0546074 60.6422501,42.6071815 61.4984245,41.1831589 62.3546028,39.7916489 
	63.2108231,38.4416275 64.0670013,37.1417465 64.9231796,35.9003563 65.7793503,34.7254295 66.6355515,33.6245232 
	67.4917297,32.6046829 68.347908,31.6724682 69.2041245,30.8338776 70.0603027,30.0942783 70.916481,29.4584446 
	71.7726593,28.9304352 72.6288528,28.5136356 73.4850311,28.2107582 74.3412094,28.023735 75.1974258,27.9537354 
	76.0536041,28.0012608 76.9097824,28.1659489 77.7659607,28.4467945 78.6221542,28.8419647 79.4783325,29.3489265 
	80.3345108,29.9644394 81.1907272,30.6845207 82.0469055,31.5045624 82.9030838,32.4193115 83.7592621,33.4228706 
	84.6154556,34.5088081 85.4716339,35.6701355 86.3278122,36.8994141 87.1840286,38.1887283 88.0402069,39.5298157 
	88.8963852,40.9140625 89.7525864,42.3325729 90.608757,43.7762375 91.4649353,45.235775 92.3211136,46.7018318 
	93.17733,48.1649704 94.0335083,49.6157951 94.8896866,51.0450325 95.7458878,52.4434433 96.602066,53.8020744 
	97.4582367,55.1122169 98.314415,56.3654366 99.1706314,57.5536652 100.0268097,58.669323 100.882988,59.7051964 
	101.7391891,60.6546555 102.5953674,61.5115967 103.4515457,62.2705307 104.3077164,62.9265671 105.1639404,63.475502 
	106.0201111,63.9137917 106.8762894,64.2386398 107.7324905,64.4479523 108.5886688,64.5404129 109.4448471,64.5153809 
	110.3010254,64.3730469 111.1572189,64.1143112 112.0133972,63.7408524 112.8695755,63.2550392 113.7257919,62.6600266 
	114.5819702,61.9596252 115.4381485,61.1583176 116.2943268,60.2612534 117.1505432,59.2742119 118.0067215,58.2035065 
	118.8628998,57.0560417 119.7190781,55.83918 120.5752487,54.5607071 121.431427,53.228878 122.2876053,51.8522148 
	123.1438217,50.4395599 124,49 124.8561783,47.542778 125.7123947,46.0772438 126.568573,44.6128159 127.4247513,43.1588936 
	128.2809753,41.7248268 129.137146,40.3198166 129.9933167,38.9528732 130.8495026,37.6328125 131.7056732,36.3680649 
	132.5618591,35.1667747 133.4180298,34.0366745 134.2742157,32.9850044 135.1304321,32.0185051 135.9866028,31.1434155 
	136.8427887,30.365345 137.6990051,29.6892681 138.5551758,29.1195507 139.4113617,28.659832 140.2675781,28.3130913 
	141.1237488,28.081543 141.9799347,27.9666519 142.8361053,27.9691887 143.692276,28.0891266 144.5484619,28.3256874 
	145.4046326,28.6773567 146.2608185,29.1418839 147.1170349,29.7162704 147.9732056,30.3968544 148.8293915,31.1792297 
	149.6856079,32.0583839 150.5417786,33.0286865 151.3979645,34.0838776 152.2541809,35.2172203 153.1103516,36.4214058 
	153.9665375,37.6886902 154.8227081,39.0109634 155.678894,40.3797379 156.5350647,41.7861938 157.3912354,43.2213058 
	158.247467,44.6758766 159.1036377,46.1405449 159.9598083,47.6059151 160.81604,49.0625572 161.6722107,50.5011482 
	162.5283813,51.9124374 163.3845673,53.2873459 164.2407837,54.6170464 165.0969543,55.8930206 165.9531403,57.107048 
	166.8093109,58.2513542 167.6654968,59.3185768 168.5216675,60.3018761 169.3778534,61.1949158 170.2340698,61.9919586 
	171.0902405,62.6879158 171.9464264,63.2782974 172.802597,63.759304 173.6588135,64.1278534 174.5149994,64.3815994 
	175.37117,64.5188828 176.2273865,64.5388412 177.0835724,64.4413376 177.939743,64.2269897 178.7959137,63.8971901 
	179.6520996,63.454071 180.5082703,62.9004288 181.3644562,62.2398643 182.2206726,61.4766045 183.0768433,60.6155396 
	183.9330292,59.66222 184.7892456,58.6227608 185.6454163,57.5038261 186.5016022,56.3126183 187.3577728,55.0567856 
	188.2139893,53.7443886 189.0701752,52.3838463 189.9263458,50.9839058 190.7825317,49.5535622 191.6387024,48.1020126 
	192.494873,46.6385536 193.3510895,45.1725769 194.2072754,43.7135201 195.063446,42.2707634 195.919632,40.8535576 
	196.7758026,39.4709816 197.632019,38.1319695 198.488205,36.8450661 199.3443756,35.6185684 200.200592,34.4603386 
	201.056778,33.3778 201.9129486,32.377964 202.7691345,31.4671764 203.6253052,30.6513424 204.4814911,29.935688 
	205.3376617,29.3247814 206.1938782,28.822588 207.0500488,28.4323063 207.9062347,28.1564312 208.7624512,27.9967728 
	209.6186218,27.9543381 210.4748077,28.0293884 211.3310242,28.2214413 212.1871948,28.5292892 213.0433807,28.9509392 
	213.8995514,29.483675 214.7557373,30.1240788 215.611908,30.868063 216.4680939,31.7107983 217.3243103,32.6469345 
	218.180481,33.6703987 219.0366669,34.774662 219.8928833,35.9526329 220.749054,37.1966972 221.6052399,38.4989319 
	222.4614105,39.8509216 223.3175812,41.2440033 224.1738129,42.6692352 225.0299835,44.1174431 225.8861542,45.5793571 
	226.7423401,47.0455742 227.5985107,48.5066795 228.4546967,49.9532814 229.3109131,51.3760986 230.1670837,52.7659798 
	231.0232697,54.114006 231.8794861,55.4115334 232.7356567,56.6502266 233.5918427,57.8220978 234.4480133,58.9196625 
	235.3042297,59.9358597 236.1604156,60.864151 237.0165863,61.6985779 237.8727722,62.4337883 238.7289429,63.0650558 
	239.5851135,63.5883369 240.4413452,64.0002518 241.2975159,64.2981796 242.1536865,64.4801712 243.0098724,64.5450745 
	243.8660889,64.4925003 244.7222595,64.3227615 245.5784454,64.0369492 246.4346161,63.6368904 247.290802,63.1251564 
	248.1470184,62.5050583 249.0031891,61.780571 249.859375,60.9563255 250.7155457,60.0376129 251.5717316,59.0303688 
	252.4279022,57.9410324 253.2841187,56.7766037 254.1403046,55.5445709 254.9964752,54.2528419 255.8526459,52.9097214 
	256.7088623,51.5238037 257.565033,50.1040268 258.4212341,48.6594772 259.2774353,47.1994781 260.133606,45.7333603 
	260.9898071,44.2705421 261.8459778,42.8204422 262.7021484,41.3923721 263.5583191,39.995491 264.4145203,38.6387711 
	265.2707214,37.3309212 266.1268921,36.0803375 266.9830933,34.8950844 267.8392944,33.7827301 268.6954651,32.7504578 
	269.5516663,31.804863 270.4078674,30.9520264 271.2640381,30.1974583 272.1202393,29.5459499 "/>
<g id="XMLID_111_">
	<g id="XMLID_120_">
		<g id="XMLID_121_">
			<polygon id="XMLID_122_" points="290.477478,109.5278625 290.477478,111.5525513 300.00177,109.0021973 290.477478,106.4474487 
				290.477478,108.47229 7.5586853,108.47229 7.5586853,109.5278625 			"/>
		</g>
	</g>
</g>
<g id="XMLID_114_">
	<g id="XMLID_115_">
		<path id="XMLID_34_" class="st1" d="M294.5996094,59.0908203c0.1972656,0.2089844,0.3457031,0.4179688,0.4462891,0.6269531
			c0.0722656,0.1445313,0.1904297,0.5244141,0.3554688,1.1386719l0.5302734-0.7949219
			c0.140625-0.1933594,0.3115234-0.3769531,0.5117188-0.5517578c0.2011719-0.1748047,0.3779297-0.2939453,0.5302734-0.3583984
			c0.0966797-0.0400391,0.203125-0.0605469,0.3193359-0.0605469c0.1728516,0,0.3105469,0.0458984,0.4130859,0.1386719
			s0.1542969,0.2050781,0.1542969,0.3378906c0,0.1523438-0.0302734,0.2568359-0.0908203,0.3134766
			c-0.1123047,0.0996094-0.2412109,0.1503906-0.3857422,0.1503906c-0.0839844,0-0.1748047-0.0185547-0.2714844-0.0546875
			c-0.1884766-0.0634766-0.3154297-0.0957031-0.3789063-0.0957031c-0.0966797,0-0.2109375,0.0556641-0.34375,0.1679688
			c-0.2490234,0.2089844-0.546875,0.6132813-0.8925781,1.2119141l0.4941406,2.0732422
			c0.0771484,0.3173828,0.140625,0.5068359,0.1933594,0.5693359c0.0517578,0.0625,0.1044922,0.0927734,0.15625,0.0927734
			c0.0849609,0,0.1835938-0.0458984,0.2958984-0.1386719c0.2207031-0.1845703,0.4091797-0.4257813,0.5664063-0.7226563
			l0.2109375,0.1083984c-0.2529297,0.4736328-0.5742188,0.8681641-0.9648438,1.1816406
			c-0.2207031,0.1767578-0.4072266,0.2646484-0.5595703,0.2646484c-0.2255859,0-0.4042969-0.1259766-0.5371094-0.3798828
			c-0.0839844-0.15625-0.2587891-0.8310547-0.5244141-2.0244141c-0.6269531,1.0888672-1.1289063,1.7900391-1.5058594,2.1035156
			c-0.2460938,0.2001953-0.4824219,0.3007813-0.7109375,0.3007813c-0.1611328,0-0.3085938-0.0585938-0.4404297-0.1748047
			c-0.0966797-0.0878906-0.1455078-0.2070313-0.1455078-0.3554688c0-0.1328125,0.0449219-0.2431641,0.1328125-0.3310547
			c0.0888672-0.0888672,0.1972656-0.1328125,0.3261719-0.1328125s0.2646484,0.0644531,0.4101563,0.1923828
			c0.1035156,0.0927734,0.1835938,0.1386719,0.2402344,0.1386719c0.0488281,0,0.1113281-0.0322266,0.1875-0.0957031
			c0.1884766-0.1533203,0.4453125-0.4824219,0.7714844-0.9892578c0.3242188-0.5058594,0.5371094-0.8710938,0.6386719-1.0966797
			c-0.25-0.9755859-0.3847656-1.4921875-0.4042969-1.5488281c-0.0917969-0.2607422-0.2128906-0.4453125-0.3613281-0.5537109
			s-0.3671875-0.1630859-0.6572266-0.1630859c-0.0927734,0-0.1982422,0.0039063-0.3193359,0.0117188v-0.2167969
			L294.5996094,59.0908203z"/>
	</g>
</g>
<g id="XMLID_116_">
	<g id="XMLID_117_">
		<path id="XMLID_32_" class="st1" d="M294.5996094,122.0908203c0.1972656,0.2089844,0.3457031,0.4179688,0.4462891,0.6269531
			c0.0722656,0.1445313,0.1904297,0.5244141,0.3554688,1.1386719l0.5302734-0.7949219
			c0.140625-0.1933594,0.3115234-0.3769531,0.5117188-0.5517578c0.2011719-0.1748047,0.3779297-0.2939453,0.5302734-0.3583984
			c0.0966797-0.0400391,0.203125-0.0605469,0.3193359-0.0605469c0.1728516,0,0.3105469,0.0458984,0.4130859,0.1386719
			s0.1542969,0.2050781,0.1542969,0.3378906c0,0.1523438-0.0302734,0.2568359-0.0908203,0.3134766
			c-0.1123047,0.0996094-0.2412109,0.1503906-0.3857422,0.1503906c-0.0839844,0-0.1748047-0.0185547-0.2714844-0.0546875
			c-0.1884766-0.0634766-0.3154297-0.0957031-0.3789063-0.0957031c-0.0966797,0-0.2109375,0.0556641-0.34375,0.1679688
			c-0.2490234,0.2089844-0.546875,0.6132813-0.8925781,1.2119141l0.4941406,2.0732422
			c0.0771484,0.3173828,0.140625,0.5068359,0.1933594,0.5693359c0.0517578,0.0625,0.1044922,0.0927734,0.15625,0.0927734
			c0.0849609,0,0.1835938-0.0458984,0.2958984-0.1386719c0.2207031-0.1845703,0.4091797-0.4257813,0.5664063-0.7226563
			l0.2109375,0.1083984c-0.2529297,0.4736328-0.5742188,0.8681641-0.9648438,1.1816406
			c-0.2207031,0.1767578-0.4072266,0.2646484-0.5595703,0.2646484c-0.2255859,0-0.4042969-0.1259766-0.5371094-0.3798828
			c-0.0839844-0.15625-0.2587891-0.8310547-0.5244141-2.0244141c-0.6269531,1.0888672-1.1289063,1.7900391-1.5058594,2.1035156
			c-0.2460938,0.2001953-0.4824219,0.3007813-0.7109375,0.3007813c-0.1611328,0-0.3085938-0.0585938-0.4404297-0.1748047
			c-0.0966797-0.0878906-0.1455078-0.2070313-0.1455078-0.3554688c0-0.1328125,0.0449219-0.2431641,0.1328125-0.3310547
			c0.0888672-0.0888672,0.1972656-0.1328125,0.3261719-0.1328125s0.2646484,0.0644531,0.4101563,0.1923828
			c0.1035156,0.0927734,0.1835938,0.1386719,0.2402344,0.1386719c0.0488281,0,0.1113281-0.0322266,0.1875-0.0957031
			c0.1884766-0.1533203,0.4453125-0.4824219,0.7714844-0.9892578c0.3242188-0.5058594,0.5371094-0.8710938,0.6386719-1.0966797
			c-0.25-0.9755859-0.3847656-1.4921875-0.4042969-1.5488281c-0.0917969-0.2607422-0.2128906-0.4453125-0.3613281-0.5537109
			s-0.3671875-0.1630859-0.6572266-0.1630859c-0.0927734,0-0.1982422,0.0039063-0.3193359,0.0117188v-0.2167969
			L294.5996094,122.0908203z"/>
	</g>
</g>
<polyline id="XMLID_2_" class="st0" points="27.2509899,101.5971909 28.1071663,99.0422134 28.9633675,96.7490234 
	29.8195438,94.7764359 30.6757431,93.1750412 31.5318985,91.9859161 32.3880997,91.2395554 33.2442741,90.9551086 
	34.1004753,91.1398468 34.9566536,91.7890472 35.812851,92.8860703 36.6690292,94.4027786 37.5252075,96.3002548 
	38.3814049,98.5298462 39.2375832,101.0343552 40.0937843,103.7495651 40.9499588,106.6058273 41.80616,109.5298843 
	42.6623383,112.4467545 43.5185165,115.281601 44.374691,117.9617386 45.2308922,120.4184113 46.0870705,122.5886307 
	46.9432678,124.4167175 47.7994461,125.8558044 48.6556473,126.8689499 49.5118217,127.4302139 50.368,127.5251617 
	51.2242012,127.1513672 52.0803757,126.3184433 52.9365768,125.0477142 53.7927551,123.3718033 54.6489525,121.3336868 
	55.5051308,118.9856262 56.3613319,116.3878326 57.2175064,113.6069641 58.0737076,110.7143402 58.929863,107.784111 
	59.7860413,104.8914871 60.6422386,102.1106186 61.4984169,99.512825 62.3546181,97.1647644 63.2107925,95.1266479 
	64.0669937,93.450737 64.923172,92.1800079 65.7793732,91.347084 66.6355515,90.9732895 67.491745,91.0682373 
	68.3479233,91.6295013 69.2041245,92.6426468 70.0603027,94.0817337 70.9164581,95.9098206 71.7726593,98.08004 
	72.6288376,100.5367126 73.4850311,103.2168503 74.3412094,106.0516968 75.1974106,108.9685669 76.0535889,111.8926239 
	76.90979,114.7488861 77.7659683,117.4640961 78.6221619,119.968605 79.4783401,122.1981964 80.3345413,124.0956726 
	81.1907196,125.612381 82.0469208,126.709404 82.9030762,127.3586044 83.7592545,127.5433426 84.615448,127.2588959 
	85.4716263,126.5125351 86.3278275,125.32341 87.1840057,123.7220001 88.0402069,121.7494278 88.8963852,119.4562378 
	89.7525787,116.9012604 90.608757,114.150032 91.4649582,111.2730942 92.3211365,108.3442764 93.1773376,105.4386444 
	94.0335159,102.6307526 94.8897095,99.9926147 95.7458649,97.5918808 96.6020432,95.4901352 97.4582443,93.7412796 
	98.3144226,92.3901672 99.1706238,91.4714355 100.0267944,91.0086746 100.8829956,91.0137558 101.7391739,91.4865189 
	102.5953751,92.4148483 103.4515533,93.7749481 104.3077545,95.531929 105.1639252,97.6407394 106.0201263,100.0472717 
	106.8762817,102.6898041 107.7325058,105.5005722 108.5886612,108.4074936 109.4448395,111.3359985 110.3010406,114.2109909 
	111.1572113,116.9587173 112.0134125,119.5086975 112.8695908,121.7955704 113.7257919,123.760643 114.5819702,125.3535385 
	115.4381714,126.5334015 116.294342,127.2699432 117.1505432,127.5443268 118.0067215,127.3494568 118.8629227,126.690361 
	119.7190781,125.5839462 120.5752563,124.0585861 121.4314575,122.1534042 122.2876282,119.917244 123.1438293,117.4074783 
	124.0000076,114.6884689 124.8562088,111.8299637 125.7123871,108.9052734 126.5685883,105.9894028 127.4247589,103.1571198 
	128.2809601,100.4811096 129.137146,98.0299606 129.9933319,95.8665695 130.8495178,94.0464249 131.7056732,92.6161804 
	132.5618744,91.6125412 133.418045,91.0612488 134.2742462,90.9764252 135.1304321,91.3602524 135.986618,92.2029037 
	136.842804,93.4827576 137.6990051,95.1669693 138.5551758,97.2123642 139.411377,99.5664825 140.2675629,102.1689301 
	141.1237488,104.9529877 141.9799347,107.847229 142.8361359,110.77742 143.6922913,113.6684189 144.5484467,116.4460831 
	145.4046478,119.0391617 146.260849,121.3811417 147.1170349,123.411972 147.9731903,125.0795593 148.8293915,126.3411255 
	149.6855927,127.1643524 150.5417938,127.5280685 151.3979492,127.4229813 152.2541504,126.8517838 153.1103516,125.8291245 
	153.9665527,124.3812256 154.8227081,122.5452194 155.6788635,120.3682175 156.5351105,117.9060135 157.3912659,115.2218094 
	158.2474518,112.3844147 159.1036072,109.4665909 159.9598083,106.5432205 160.8160095,103.6892319 161.6722107,100.9778595 
	162.5283661,98.4786072 163.3845673,96.2556229 164.2407684,94.3658752 165.0969696,92.8578491 165.953125,91.7702332 
	166.8093262,91.1309128 167.6655273,90.9562988 168.5216827,91.2508392 169.3778687,92.0070038 170.234024,93.2053833 
	171.0902252,94.8152542 171.9464264,96.7953186 172.8026276,99.0948029 173.658783,101.6547394 174.5149841,104.4094315 
	175.3711853,107.2882767 176.2273865,110.2173996 177.0835419,113.1216965 177.939743,115.9266663 178.7959442,118.5603867 
	179.6521301,120.9552841 180.5082855,123.0499573 181.3644409,124.7906799 182.2206421,126.1327896 183.0768433,127.0418701 
	183.9330444,127.4946136 184.7891998,127.4794235 185.645401,126.9966354 186.5016022,126.0586929 187.3578033,124.689621 
	188.2139587,122.9245453 189.0701599,120.8087158 189.9263611,118.3964233 190.782547,115.7495117 191.6387024,112.9358826 
	192.4948578,110.0277176 193.3511047,107.0995789 194.2072601,104.2265701 195.0634613,101.4823837 195.9196167,98.9373932 
	196.7758179,96.6568756 197.632019,94.6993408 198.4882202,93.1149597 199.3443756,91.944397 200.2005768,91.2176437 
	201.056778,90.9533691 201.9129639,91.1583481 202.7691193,91.8273239 203.6253204,92.9431076 204.4815216,94.4771271 
	205.337677,96.3900146 206.1938782,98.6326904 207.0500336,101.1476746 207.9062347,103.8704376 208.7624359,106.731163 
	209.6186371,109.6564636 210.4747925,112.5713272 211.3309937,115.4009781 212.1871796,118.0728531 213.0433807,120.5184174 
	213.8995361,122.6749573 214.7557373,124.4871674 215.6119385,125.9085464 216.4681396,126.9026566 217.324295,127.4440002 
	218.1804504,127.5186768 219.0366516,127.124794 219.8928528,126.272438 220.749054,124.9834824 221.6052094,123.2909775 
	222.4614105,121.2383347 223.3175964,118.8782043 224.1737976,116.2710953 225.029953,113.483902 225.8861542,110.5881042 
	226.7423553,107.6579666 227.5985565,104.768631 228.4547119,101.9942093 229.3109131,99.4058838 230.1670685,97.0699921 
	231.0232697,95.0464859 231.8794708,93.3872528 232.7356262,92.1348267 233.5918274,91.3213501 234.4480133,90.9676819 
	235.3042145,91.082901 236.1603699,91.6640472 237.016571,92.6961975 237.8727722,94.1528931 238.7289734,95.9967957 
	239.5851288,98.1805801 240.44133,100.6482468 241.2975311,103.3365173 242.1537323,106.1764221 243.0098877,109.0951462 
	243.8660431,112.0178223 244.7222443,114.8694992 245.5784302,117.5770187 246.4346313,120.0709457 247.2907867,122.287323 
	248.1469879,124.1693115 249.0031891,125.6686249 249.8593903,126.7468185 250.7155457,127.3762436 251.5717468,127.5407486 
	252.427948,127.2361221 253.2841492,126.4701614 254.1403046,125.2625351 254.99646,123.6442032 255.8526611,121.6566772 
	256.7088623,119.3509216 257.5650635,116.7860794 258.4212036,114.0279312 259.2774048,111.1472321 260.133606,108.2178497 
	260.9898071,105.3149185 261.8459778,102.5128937 262.7021484,99.8836365 263.5583496,97.4945908 264.4145508,95.4070129 
	265.2707214,93.674469 266.1268616,92.3413773 266.9830627,91.441925 267.839325,90.9991989 268.6954651,91.0245438 
	269.5516357,91.5173035 270.4078369,92.464859 271.2640381,93.8428879 272.1202393,95.6160507 "/>
<g id="XMLID_161_">
	<g id="XMLID_165_">
		<path id="XMLID_30_" class="st1" d="M30.5791016,20.9213867v0.3222656
			c-1.0087891-0.6494141-1.7944336-1.6035156-2.3569336-2.8603516c-0.5625-1.2578125-0.8432617-2.6337891-0.8432617-4.1289063
			c0-1.5551758,0.2954102-2.9711914,0.8867188-4.2485352c0.5917969-1.2773438,1.3623047-2.1914063,2.3134766-2.7412109v0.3149414
			c-0.4755859,0.3398438-0.8652344,0.8051758-1.1708984,1.3950195s-0.5336914,1.3383789-0.684082,2.2460938
			c-0.1508789,0.9072266-0.2265625,1.8535156-0.2265625,2.8388672c0,1.1147461,0.0698242,2.1225586,0.2089844,3.0219727
			c0.1391602,0.9003906,0.3515625,1.6464844,0.6376953,2.2392578
			C29.6298828,19.9125977,30.0419922,20.4467773,30.5791016,20.9213867z"/>
	</g>
	<g id="XMLID_164_">
		<path id="XMLID_28_" class="st1" d="M43.6679688,7.5795898V7.2646484
			c1.0087891,0.6450195,1.7949219,1.5961914,2.3574219,2.8535156s0.84375,2.6337891,0.84375,4.1289063
			c0,1.5551758-0.2958984,2.972168-0.8876953,4.2524414c-0.5908203,1.2792969-1.3623047,2.1943359-2.3134766,2.7441406v-0.3222656
			c0.4794922-0.3398438,0.8720703-0.8046875,1.1777344-1.3945313c0.3046875-0.5898438,0.5322266-1.3378906,0.6806641-2.2421875
			C45.6748047,16.3793945,45.75,15.4321289,45.75,14.4418945c0-1.1098633-0.0693359-2.1162109-0.2060547-3.0185547
			c-0.1376953-0.902832-0.3496094-1.6499023-0.6376953-2.2426758C44.6181641,8.5883789,44.2050781,8.0546875,43.6679688,7.5795898z"
			/>
	</g>
	<g id="XMLID_163_">
		<path id="XMLID_21_" class="st1" d="M14.949707,11.6630859v1.7861328h-0.1943359
			c-0.1489258-0.5610352-0.3398438-0.9428711-0.5727539-1.1450195s-0.5297852-0.3037109-0.8901367-0.3037109
			c-0.2744141,0-0.4956055,0.0708008-0.6640625,0.2119141c-0.168457,0.1416016-0.2529297,0.2978516-0.2529297,0.4697266
			c0,0.2138672,0.0629883,0.3969727,0.1884766,0.5498047c0.1210938,0.15625,0.3681641,0.3222656,0.7402344,0.4980469
			l0.8579102,0.40625c0.7954102,0.3779297,1.1928711,0.8759766,1.1928711,1.4941406
			c0,0.4775391-0.1850586,0.8623047-0.5551758,1.1542969c-0.3706055,0.2919922-0.784668,0.4375-1.2431641,0.4375
			c-0.3291016,0-0.7050781-0.0566406-1.1279297-0.171875c-0.1293945-0.0380859-0.2353516-0.0566406-0.3173828-0.0566406
			c-0.090332,0-0.1606445,0.0488281-0.2114258,0.1484375h-0.1938477v-1.8720703h0.1938477
			c0.109375,0.5341797,0.3193359,0.9375,0.628418,1.2080078c0.3095703,0.2714844,0.65625,0.40625,1.0400391,0.40625
			c0.2705078,0,0.4907227-0.0771484,0.6611328-0.2314453s0.2558594-0.3408203,0.2558594-0.5585938
			c0-0.2636719-0.0952148-0.484375-0.2851563-0.6640625s-0.5688477-0.40625-1.1367188-0.6806641
			c-0.5683594-0.2753906-0.9404297-0.5234375-1.1166992-0.7451172c-0.1762695-0.2172852-0.2646484-0.4921875-0.2646484-0.8242188
			c0-0.4311523,0.1518555-0.7919922,0.4555664-1.0820313s0.6962891-0.4350586,1.1782227-0.4350586
			c0.2114258,0,0.4682617,0.0439453,0.7695313,0.1313477c0.2001953,0.0576172,0.3330078,0.0859375,0.3999023,0.0859375
			c0.0625,0,0.1113281-0.0131836,0.1469727-0.0400391c0.0351563-0.0263672,0.0761719-0.0859375,0.1230469-0.1772461H14.949707z"/>
		<path id="XMLID_23_" class="st1" d="M18.0229492,11.6630859v4.2133789c0,0.3291016,0.0244141,0.546875,0.0732422,0.65625
			c0.0493164,0.1083984,0.121582,0.1894531,0.2177734,0.2431641c0.0957031,0.0537109,0.2709961,0.0800781,0.5258789,0.0800781
			v0.2060547h-2.6147461V16.855957c0.262207,0,0.4384766-0.0244141,0.5288086-0.0742188
			c0.0898438-0.0498047,0.1616211-0.1318359,0.2143555-0.2460938c0.0527344-0.1152344,0.0791016-0.3339844,0.0791016-0.6591797
			V13.855957c0-0.5688477-0.0175781-0.9370117-0.0527344-1.1049805c-0.0273438-0.1225586-0.0703125-0.2070313-0.1293945-0.2548828
			c-0.0585938-0.0478516-0.1391602-0.0717773-0.2407227-0.0717773c-0.1098633,0-0.2431641,0.0288086-0.3994141,0.0859375
			l-0.0825195-0.2060547l1.6220703-0.6411133H18.0229492z M17.5351563,8.9204102
			c0.1645508,0,0.3046875,0.0561523,0.4204102,0.1689453c0.1152344,0.112793,0.1733398,0.2490234,0.1733398,0.4091797
			c0,0.1606445-0.0581055,0.2978516-0.1733398,0.4125977c-0.1157227,0.1142578-0.2558594,0.1713867-0.4204102,0.1713867
			s-0.3056641-0.0571289-0.4228516-0.1713867c-0.1176758-0.1147461-0.1762695-0.2519531-0.1762695-0.4125977
			c0-0.1601563,0.0576172-0.2963867,0.1733398-0.4091797C17.2246094,8.9765625,17.3666992,8.9204102,17.5351563,8.9204102z"/>
		<path id="XMLID_26_" class="st1" d="M21.1147461,12.7734375c0.6308594-0.7402344,1.2319336-1.1103516,1.8041992-1.1103516
			c0.2939453,0,0.5463867,0.0712891,0.7578125,0.2143555c0.2119141,0.1435547,0.3798828,0.3789063,0.5053711,0.7070313
			c0.0864258,0.2294922,0.1293945,0.5805664,0.1293945,1.0537109v2.2382813c0,0.3320313,0.0273438,0.5576172,0.0825195,0.6757813
			c0.0429688,0.0957031,0.1123047,0.1699219,0.2084961,0.2236328c0.0957031,0.0537109,0.2729492,0.0800781,0.5317383,0.0800781
			v0.2060547H22.472168V16.855957h0.1118164c0.2504883,0,0.4257813-0.0371094,0.5258789-0.1113281
			c0.1000977-0.0751953,0.1694336-0.1845703,0.2084961-0.3300781c0.015625-0.0566406,0.0234375-0.2363281,0.0234375-0.5380859
			v-2.1464844c0-0.4770508-0.0634766-0.8237305-0.190918-1.0395508c-0.1274414-0.215332-0.3417969-0.3232422-0.6435547-0.3232422
			c-0.4658203,0-0.9301758,0.2480469-1.3925781,0.7441406v2.7651367c0,0.3554688,0.0214844,0.5751953,0.0649414,0.6591797
			c0.0546875,0.1103516,0.1298828,0.1914063,0.2260742,0.2431641s0.2910156,0.0771484,0.5844727,0.0771484v0.2060547h-2.6616211
			V16.855957h0.1176758c0.2739258,0,0.4589844-0.0673828,0.5551758-0.203125
			c0.0957031-0.1357422,0.144043-0.3945313,0.144043-0.7763672v-1.9462891c0-0.6298828-0.0146484-1.0131836-0.0444336-1.1508789
			c-0.0292969-0.137207-0.0742188-0.230957-0.1347656-0.2802734c-0.0610352-0.0498047-0.1420898-0.074707-0.2441406-0.074707
			c-0.109375,0-0.2407227,0.0288086-0.3935547,0.0859375l-0.0883789-0.2060547l1.6220703-0.6411133h0.2524414V12.7734375z"/>
	</g>
	<g id="XMLID_162_">
		<path id="XMLID_17_" class="st1" d="M35.3115234,8.9204102l-1.6689453,5.6279297L34.3125,13.9931641
			c0.7324219-0.6030273,1.2089844-1.0498047,1.4277344-1.3398438c0.0712891-0.0952148,0.1064453-0.1679688,0.1064453-0.2172852
			c0-0.034668-0.0117188-0.0668945-0.0351563-0.0976563c-0.0244141-0.0302734-0.0703125-0.0551758-0.1386719-0.0742188
			s-0.1884766-0.0288086-0.3613281-0.0288086h-0.2060547l0.0654297-0.2172852h2.5673828l-0.0585938,0.2172852
			c-0.2939453,0.015625-0.5478516,0.0600586-0.7607422,0.1347656c-0.2138672,0.0742188-0.4199219,0.184082-0.6201172,0.3291016
			c-0.3955078,0.2861328-0.65625,0.4848633-0.78125,0.5952148l-0.5058594,0.4355469
			c0.0859375,0.2744141,0.1923828,0.6582031,0.3173828,1.1503906c0.2119141,0.8173828,0.3544922,1.3017578,0.4287109,1.4541016
			c0.0751953,0.1533203,0.1513672,0.2294922,0.2294922,0.2294922c0.0664063,0,0.1445313-0.0322266,0.2353516-0.0976563
			c0.203125-0.1445313,0.4208984-0.3759766,0.6523438-0.6923828l0.2050781,0.1425781
			c-0.4267578,0.5234375-0.7539063,0.8681641-0.9814453,1.0341797c-0.2265625,0.1660156-0.4345703,0.2490234-0.6220703,0.2490234
			c-0.1650391,0-0.2919922-0.0634766-0.3828125-0.1894531c-0.15625-0.2246094-0.4169922-1.1123047-0.78125-2.6621094
			l-0.8046875,0.6806641l-0.6054688,2.0332031h-0.9169922l1.9511719-6.5327148l0.1650391-0.5551758
			c0.0195313-0.0957031,0.0292969-0.1796875,0.0292969-0.2519531c0-0.0917969-0.0371094-0.1679688-0.109375-0.2290039
			s-0.1767578-0.0917969-0.3144531-0.0917969c-0.0898438,0-0.2324219,0.019043-0.4287109,0.0571289V9.2583008L35.3115234,8.9204102z
			"/>
		<path id="XMLID_19_" class="st1" d="M39.2236328,11.8803711c0.1923828,0.1987305,0.3369141,0.3969727,0.4345703,0.5957031
			c0.0712891,0.137207,0.1865234,0.4980469,0.3466797,1.0820313l0.5175781-0.7558594
			c0.1367188-0.1831055,0.3037109-0.3579102,0.4990234-0.5239258c0.1962891-0.1660156,0.3681641-0.2792969,0.5175781-0.3408203
			c0.09375-0.0380859,0.1972656-0.0571289,0.3115234-0.0571289c0.1679688,0,0.3027344,0.0439453,0.4023438,0.1318359
			s0.1494141,0.1948242,0.1494141,0.3208008c0,0.1450195-0.0292969,0.2441406-0.0878906,0.2973633
			c-0.109375,0.0957031-0.2353516,0.1430664-0.3759766,0.1430664c-0.0820313,0-0.1699219-0.0170898-0.2646484-0.0512695
			c-0.1835938-0.0610352-0.3076172-0.0917969-0.3701172-0.0917969c-0.09375,0-0.2050781,0.0537109-0.3349609,0.1606445
			c-0.2431641,0.1982422-0.5322266,0.5820313-0.8691406,1.1503906l0.4814453,1.9702148
			c0.0742188,0.3007813,0.1367188,0.4814453,0.1884766,0.5410156c0.0507813,0.0585938,0.1015625,0.0878906,0.1523438,0.0878906
			c0.0820313,0,0.1787109-0.0429688,0.2880859-0.1308594c0.2148438-0.1757813,0.3994141-0.4052734,0.5527344-0.6875
			l0.2050781,0.1035156c-0.2470703,0.4501953-0.5605469,0.8242188-0.9404297,1.1220703
			c-0.2148438,0.1679688-0.3974609,0.2519531-0.5458984,0.2519531c-0.2197266,0-0.3935547-0.1201172-0.5234375-0.3613281
			c-0.0820313-0.1484375-0.2519531-0.7900391-0.5107422-1.9228516c-0.6113281,1.0341797-1.1015625,1.7001953-1.4697266,1.9980469
			c-0.2382813,0.1904297-0.4697266,0.2861328-0.6933594,0.2861328c-0.15625,0-0.2988281-0.0556641-0.4287109-0.1660156
			c-0.09375-0.0839844-0.140625-0.1972656-0.140625-0.3378906c0-0.1259766,0.0429688-0.2314453,0.1289063-0.3154297
			s0.1923828-0.1259766,0.3173828-0.1259766s0.2587891,0.0615234,0.3994141,0.1835938
			c0.1025391,0.0878906,0.1806641,0.1318359,0.2353516,0.1318359c0.046875,0,0.1074219-0.0302734,0.1816406-0.0917969
			c0.1845703-0.1455078,0.4355469-0.4580078,0.7529297-0.9394531c0.3173828-0.4804688,0.5244141-0.828125,0.6220703-1.0410156
			c-0.2421875-0.9282227-0.3740234-1.418457-0.3935547-1.472168c-0.0898438-0.2480469-0.2070313-0.4233398-0.3525391-0.5263672
			c-0.1445313-0.1030273-0.3583984-0.1547852-0.640625-0.1547852c-0.0898438,0-0.1933594,0.0039063-0.3105469,0.0112305v-0.2060547
			L39.2236328,11.8803711z"/>
	</g>
</g>
<g id="XMLID_166_">
	<g id="XMLID_169_">
		<path id="XMLID_15_" class="st1" d="M140.0771484,10.5585938l1.9121094-0.9707031h0.1914063v6.9008789
			c0,0.4580078,0.0185547,0.7431641,0.0556641,0.8554688c0.0361328,0.1132813,0.1123047,0.1992188,0.2285156,0.2597656
			c0.1162109,0.0595703,0.3515625,0.09375,0.7070313,0.1025391v0.2226563h-2.9550781V17.706543
			c0.3701172-0.0087891,0.6103516-0.0410156,0.7177734-0.0996094c0.1083984-0.0585938,0.1835938-0.1367188,0.2265625-0.2353516
			c0.0419922-0.0986328,0.0634766-0.3925781,0.0634766-0.8828125v-4.4116211c0-0.5947266-0.0195313-0.9760742-0.0576172-1.1450195
			c-0.0273438-0.128418-0.0761719-0.2231445-0.1484375-0.2832031c-0.0712891-0.0605469-0.1572266-0.090332-0.2578125-0.090332
			c-0.1425781,0-0.3417969,0.0620117-0.5966797,0.1865234L140.0771484,10.5585938z"/>
	</g>
	<g id="XMLID_168_">
		<path id="XMLID_13_" class="st1" d="M125.2070313,9.3588867l-1.6455078,5.9248047l0.6601563-0.5849609
			c0.7226563-0.6347656,1.1923828-1.1054688,1.4082031-1.4101563c0.0703125-0.1005859,0.1044922-0.1767578,0.1044922-0.2290039
			c0-0.0361328-0.0117188-0.0703125-0.0341797-0.1025391c-0.0234375-0.0322266-0.0693359-0.0581055-0.1367188-0.078125
			s-0.1865234-0.0302734-0.3564453-0.0302734h-0.203125l0.0644531-0.2290039h2.5322266l-0.0576172,0.2290039
			c-0.2900391,0.0161133-0.5400391,0.0634766-0.7509766,0.1416016s-0.4140625,0.1938477-0.6113281,0.3466797
			c-0.390625,0.3012695-0.6474609,0.5102539-0.7705078,0.6264648l-0.4990234,0.4580078
			c0.0849609,0.2890625,0.1894531,0.6933594,0.3134766,1.2119141c0.2089844,0.859375,0.3496094,1.3701172,0.4228516,1.5302734
			c0.0732422,0.1611328,0.1484375,0.2412109,0.2265625,0.2412109c0.0654297,0,0.1425781-0.0341797,0.2314453-0.1025391
			c0.2011719-0.1523438,0.4150391-0.3955078,0.6435547-0.7294922l0.2021484,0.1513672
			c-0.4208984,0.5498047-0.7431641,0.9130859-0.9677734,1.0878906c-0.2236328,0.1748047-0.4287109,0.2617188-0.6142578,0.2617188
			c-0.1621094,0-0.2871094-0.0664063-0.3759766-0.1992188c-0.1552734-0.2363281-0.4121094-1.1708984-0.7714844-2.8017578
			l-0.7939453,0.7167969l-0.5966797,2.1396484h-0.9042969l1.9248047-6.8764648l0.1621094-0.5844727
			c0.0185547-0.1005859,0.0283203-0.1889648,0.0283203-0.265625c0-0.0961914-0.0351563-0.1767578-0.1064453-0.2407227
			c-0.0722656-0.0644531-0.1748047-0.0966797-0.3105469-0.0966797c-0.0888672,0-0.2294922,0.0205078-0.4228516,0.0605469V9.7148438
			L125.2070313,9.3588867z"/>
	</g>
	<g id="XMLID_167_">
		<path id="XMLID_10_" class="st1" d="M130.9316406,13.3549805h6.0849609v0.5849609h-6.0849609V13.3549805z M130.9316406,15.6030273
			h6.0849609v0.5966797h-6.0849609V15.6030273z"/>
	</g>
</g>
<g id="XMLID_170_">
	<g id="XMLID_173_">
		<path id="XMLID_8_" class="st1" d="M143.2880859,83.4462891l-0.5517578,1.5732422h-4.6494141V84.796875
			c1.3671875-1.2939453,2.3300781-2.3505859,2.8886719-3.1708984c0.5576172-0.8193359,0.8359375-1.5683594,0.8359375-2.2470703
			c0-0.5185547-0.1523438-0.9443359-0.4589844-1.2783203c-0.3056641-0.3330078-0.671875-0.5-1.0976563-0.5
			c-0.3876953,0-0.7353516,0.1181641-1.0439453,0.3525391c-0.3076172,0.2353516-0.5351563,0.5800781-0.6826172,1.0341797h-0.2148438
			c0.0966797-0.7431641,0.3457031-1.3144531,0.7470703-1.7119141c0.4003906-0.3974609,0.9013672-0.5966797,1.5019531-0.5966797
			c0.6396484,0,1.1728516,0.2128906,1.6015625,0.6386719c0.4277344,0.4257813,0.6416016,0.9287109,0.6416016,1.5068359
			c0,0.4140625-0.0927734,0.828125-0.2792969,1.2412109c-0.2861328,0.6513672-0.7509766,1.3398438-1.3945313,2.0673828
			c-0.9648438,1.0927734-1.5673828,1.7519531-1.8076172,1.9765625h2.0576172c0.4189453,0,0.7119141-0.015625,0.8808594-0.0478516
			c0.1679688-0.0322266,0.3203125-0.0976563,0.4560547-0.1962891s0.2539063-0.2382813,0.3544922-0.4189453H143.2880859z"/>
	</g>
	<g id="XMLID_172_">
		<path id="XMLID_6_" class="st1" d="M123.0097656,76.4492188l-1.6503906,5.9248047l0.6621094-0.5849609
			c0.7246094-0.6347656,1.1953125-1.1054688,1.4121094-1.4101563c0.0703125-0.1005859,0.1054688-0.1767578,0.1054688-0.2285156
			c0-0.0361328-0.0117188-0.0703125-0.0351563-0.1025391s-0.0693359-0.0585938-0.1367188-0.078125
			c-0.0673828-0.0205078-0.1865234-0.0302734-0.3574219-0.0302734h-0.203125l0.0634766-0.2294922h2.5400391l-0.0585938,0.2294922
			c-0.2900391,0.015625-0.5410156,0.0634766-0.7519531,0.1416016c-0.2119141,0.078125-0.4160156,0.1933594-0.6132813,0.3466797
			c-0.3916016,0.3007813-0.6494141,0.5097656-0.7734375,0.6259766l-0.4990234,0.4580078
			c0.0849609,0.2890625,0.1894531,0.6933594,0.3134766,1.2119141c0.2089844,0.859375,0.3505859,1.3701172,0.4238281,1.5302734
			c0.0742188,0.1611328,0.1494141,0.2412109,0.2265625,0.2412109c0.0664063,0,0.1435547-0.0341797,0.2324219-0.1025391
			c0.2021484-0.1523438,0.4169922-0.3955078,0.6455078-0.7294922l0.203125,0.1513672
			c-0.421875,0.5498047-0.7451172,0.9130859-0.9697266,1.0878906c-0.2255859,0.1748047-0.4306641,0.2617188-0.6162109,0.2617188
			c-0.1630859,0-0.2890625-0.0664063-0.3779297-0.1992188c-0.1552734-0.2363281-0.4130859-1.1708984-0.7734375-2.8017578
			l-0.7958984,0.7167969l-0.5986328,2.1396484h-0.90625l1.9296875-6.8759766l0.1621094-0.5849609
			c0.0195313-0.1005859,0.0292969-0.1884766,0.0292969-0.265625c0-0.0957031-0.0361328-0.1767578-0.1074219-0.2402344
			c-0.0722656-0.0644531-0.1757813-0.0966797-0.3115234-0.0966797c-0.0888672,0-0.2304688,0.0205078-0.4238281,0.0605469v-0.2109375
			L123.0097656,76.4492188z"/>
	</g>
	<g id="XMLID_171_">
		<path id="XMLID_3_" class="st1" d="M128.7490234,80.4453125h6.1025391v0.5849609h-6.1025391V80.4453125z M128.7490234,82.6933594
			h6.1025391v0.5966797h-6.1025391V82.6933594z"/>
	</g>
</g>
<g id="XMLID_1_">
</g>
<g id="XMLID_36_">
</g>
<g id="XMLID_37_">
</g>
<g id="XMLID_38_">
</g>
<g id="XMLID_39_">
</g>
<g id="XMLID_40_">
</g>
</svg>
