<?xml version="1.0" encoding="utf-8"?>
<!-- Generator: Adobe Illustrator 19.0.0, SVG Export Plug-In . SVG Version: 6.00 Build 0)  -->
<svg version="1.1" id="Layer_1" xmlns="http://www.w3.org/2000/svg" xmlns:xlink="http://www.w3.org/1999/xlink" x="0px" y="0px"
	 viewBox="0 0 319.7535095 104" style="enable-background:new 0 0 319.7535095 104;" xml:space="preserve">
<style type="text/css">
	.st0{fill:none;stroke:#262626;stroke-width:0.5000002;stroke-linecap:square;stroke-linejoin:round;stroke-miterlimit:10;}
	.st1{fill:none;stroke:#1173BB;stroke-width:0.5000002;stroke-linejoin:round;stroke-miterlimit:10;}
	.st2{fill:none;stroke:#D85527;stroke-width:0.5000002;stroke-linejoin:round;stroke-miterlimit:10;}
	.st3{fill:#010101;}
</style>
<line id="XMLID_5_" class="st0" x1="157.5271606" y1="8.2728119" x2="157.5271606" y2="10.2503748"/>
<polyline id="XMLID_3_" class="st1" points="12.5709944,53.7992973 13.5405979,53.7992973 14.5102081,53.7992973 
	15.4798126,53.7992973 16.4494171,53.7992973 17.4190216,53.7992973 18.3886356,53.7992973 19.3582401,53.7992973 
	20.3278446,53.7992973 21.2974548,53.7992973 22.2670574,53.7992973 23.2366581,53.7992973 24.2062778,53.7992973 
	25.1758823,53.7992973 26.1454811,53.7992973 27.1150856,53.7992973 28.0846939,53.7992973 29.0542946,53.7992973 
	30.0239029,53.7992973 30.9935226,53.7992973 31.9631233,53.7992973 32.9327316,53.7993088 33.9023209,53.7993088 
	34.8719406,53.7992973 35.8415489,53.7992973 36.8111496,53.7992973 37.7807693,53.7992973 38.7503586,53.7992973 
	39.7199669,53.7992821 40.6895752,53.7992821 41.6591873,53.7992973 42.6287842,53.7993088 43.5983963,53.799324 
	44.5680046,53.7993546 45.5376053,53.7993698 46.5072136,53.7993698 47.4768219,53.7993393 48.446434,53.7992821 
	49.4160309,53.7992096 50.385643,53.7991066 51.3552513,53.7990341 52.3248482,53.7990227 53.2944603,53.7991066 
	54.2640686,53.7992973 55.2336769,53.7995872 56.2032776,53.7999344 57.1728859,53.8002357 58.142498,53.8003654 
	59.1120949,53.8001633 60.081707,53.799572 61.0513153,53.7985725 62.0209236,53.7973442 62.9905243,53.7961998 
	63.9601326,53.7955894 64.9297409,53.7959824 65.8993454,53.797718 66.8689499,53.8007851 67.838562,53.8047523 
	68.8081741,53.8086472 69.777771,53.8111191 70.7473755,53.8106728 71.7169876,53.8062286 72.6865845,53.7975464 
	73.6562042,53.7857933 74.6258087,53.7736092 75.5954132,53.7649078 76.5650177,53.7639847 77.5346222,53.7742424 
	78.5042343,53.7967186 79.4738312,53.8287468 80.4434433,53.8635406 81.4130554,53.8908043 82.3826599,53.8989258 
	83.3522644,53.878273 84.3218689,53.8251305 85.2914734,53.7449379 86.2610779,53.6538048 87.23069,53.5768394 
	88.2002869,53.5431786 89.1699066,53.5778236 90.1395111,53.6923752 91.1091156,53.8768539 92.0787125,54.0961266 
	93.0483246,54.2932129 94.0179367,54.4005127 94.9875336,54.3579903 95.9571533,54.1342201 96.9267502,53.744545 
	97.8963623,53.2597618 98.8659592,52.7996979 99.8355713,52.5097275 100.805191,52.522953 101.7747879,52.9160538 
	102.7444,53.6709976 103.7139969,54.6563568 104.683609,55.6386337 105.6532059,56.3277397 106.622818,56.4508553 
	107.5924377,55.8384972 108.562027,54.4992294 109.5316467,52.6576195 110.5012436,50.7354012 111.4708557,49.2693214 
	112.4404526,48.7770424 113.4100647,49.6006546 114.3796616,51.7706299 115.3492737,54.935009 116.3188858,58.3879852 
	117.2884903,61.2081795 118.2581024,62.4858818 119.2276917,61.5879784 120.1972961,58.3886948 121.1669083,53.3921547 
	122.1365204,47.6926613 123.1061249,42.757576 124.075737,40.0683708 125.0453491,40.7026711 126.0149384,44.9697952 
	126.9845428,52.2136612 127.954155,60.8633118 128.9237671,68.7505951 129.8933716,73.6386642 130.8629761,73.8368759 
	131.8325958,68.7368164 132.8021851,59.1068039 133.7717896,47.033905 134.741394,35.490612 135.7110138,27.6091156 
	136.6806183,25.8382187 137.6502228,31.2089996 138.6198425,42.9253693 139.5894318,58.4232826 140.5590363,73.9219208 
	141.5286407,85.3526001 142.4982605,89.4363174 143.467865,84.6215363 144.4374695,71.6133423 145.4070892,53.3215294 
	146.3766785,34.2073517 147.346283,19.1747131 148.3158875,12.2862473 149.2855072,15.6473942 150.2550964,28.7698956 
	151.2247162,48.6074982 152.1943359,70.2777023 153.1639252,88.295578 154.1335297,98 155.1031342,96.7915192 
	156.0727539,84.8449783 157.0423431,65.0967712 158.0119629,42.5018311 158.9815826,22.7536278 159.9511719,10.8070879 
	160.9207764,9.5986071 161.8903809,19.3030128 162.8600006,37.3209038 163.8295898,58.9911118 164.7992096,78.8287125 
	165.7688293,91.95121 166.7384186,95.3123627 167.7080231,88.4238968 168.6776276,73.391243 169.6472473,54.2770767 
	170.6168213,35.9852676 171.586441,22.9770679 172.556076,18.1622906 173.52565,22.246006 174.4952698,33.6766891 
	175.4648743,49.1753235 176.4344788,64.6732407 177.404068,76.3896103 178.3736877,81.7603836 179.3433228,79.9894943 
	180.3128967,72.1079941 181.2825165,60.5647011 182.252121,48.4918022 183.2217255,38.8617859 184.1913147,33.7617149 
	185.1609344,33.9599419 186.1305542,38.8480072 187.1001434,46.7352791 188.0697632,55.3849449 189.0393677,62.6288109 
	190.0089722,66.8959351 190.9785614,67.5302353 191.9481812,64.8410339 192.9178009,59.9059448 193.8873901,54.2064514 
	194.8570099,49.2099152 195.8266144,46.0106277 196.7962189,45.1127243 197.7658081,46.3904305 198.7354279,49.2106247 
	199.7050476,52.6635971 200.6746368,55.8279762 201.6442566,57.9979515 202.6138611,58.8215637 203.5834656,58.3292847 
	204.5530548,56.8632088 205.5226746,54.9409866 206.4922943,53.0993652 207.4618835,51.7601089 208.4315033,51.1477509 
	209.4011078,51.2708664 210.3707123,51.9599724 211.3403015,52.9422493 212.3099213,53.9276085 213.2795258,54.6825523 
	214.2491302,55.0756378 215.21875,55.0888824 216.1883545,54.798912 217.157959,54.3388443 218.1275482,53.8540611 
	219.0971527,53.4643898 220.0667725,53.2406158 221.036377,53.1980934 222.0059967,53.3053932 222.9756012,53.5024796 
	223.9452057,53.7217522 224.9147949,53.9062347 225.8843994,54.0207672 226.8540192,54.0554314 227.8236237,54.0217667 
	228.7932281,53.9448013 229.7628479,53.853653 230.7324524,53.7734642 231.7020416,53.7203217 232.6716461,53.6996803 
	233.6412811,53.7078018 234.6108704,53.7350655 235.5804749,53.7698593 236.5500641,53.8018875 237.5196991,53.8243484 
	238.4893036,53.8346252 239.4588928,53.8336983 240.4285278,53.8250008 241.3981171,53.8128128 242.3677216,53.8010635 
	243.3373108,53.7923775 244.3069458,53.7879219 245.2765503,53.787487 246.2461395,53.7899628 247.2157745,53.7938538 
	248.1853638,53.797821 249.1549683,53.8008881 250.1245575,53.8026237 251.0941925,53.8030167 252.063797,53.8024063 
	253.0333862,53.8012657 254.0029755,53.8000336 254.9726105,53.7990341 255.942215,53.7984276 256.9118042,53.7982407 
	257.8814392,53.7983704 258.8510132,53.7986755 259.8206482,53.7990227 260.7902222,53.7993088 261.7598572,53.7994995 
	262.7294617,53.7995872 263.6990662,53.7995567 264.6686707,53.7994995 265.6382751,53.7993965 266.6078796,53.799324 
	267.5774841,53.7992668 268.5470886,53.7992401 269.5167236,53.7992401 270.4862976,53.7992516 271.4559326,53.7992821 
	272.4255066,53.7992973 273.3951416,53.7993088 274.3647156,53.799324 275.3343506,53.799324 276.3039551,53.7993088 
	277.2735596,53.7993088 278.2431641,53.7993088 279.2127686,53.7992973 280.182373,53.7992973 281.1520081,53.7992973 
	282.121582,53.7992973 283.091217,53.7992973 284.060791,53.7992973 285.030426,53.7992973 286,53.7992973 286.969635,53.7992973 
	287.9392395,53.7992973 288.908844,53.7992973 289.8784485,53.7992973 290.8480225,53.7992973 291.8176575,53.7992973 
	292.787262,53.7992973 293.7568665,53.7992973 294.7265015,53.7992973 295.6960754,53.7992973 296.6656799,53.7992973 
	297.6352844,53.7992973 298.6048889,53.7992973 299.5744934,53.7992973 300.5440979,53.7992973 301.5137329,53.7992973 
	302.4833374,53.7992973 "/>
<polyline id="XMLID_2_" class="st2" points="12.5709944,53.7992973 13.5405979,53.7992973 14.5102081,53.7992973 
	15.4798126,53.7992973 16.4494171,53.7992973 17.4190216,53.7992973 18.3886356,53.7992973 19.3582401,53.7992973 
	20.3278446,53.7992973 21.2974548,53.7992973 22.2670574,53.7992973 23.2366581,53.7992973 24.2062778,53.7992973 
	25.1758823,53.7992973 26.1454811,53.7992973 27.1150856,53.7992973 28.0846939,53.7992973 29.0542946,53.7992973 
	30.0239029,53.7992973 30.9935226,53.7992973 31.9631233,53.7992973 32.9327316,53.7992973 33.9023209,53.7992973 
	34.8719406,53.7992973 35.8415489,53.7992973 36.8111496,53.7992973 37.7807693,53.7992973 38.7503586,53.7992973 
	39.7199669,53.7992821 40.6895752,53.7992821 41.6591873,53.7992821 42.6287842,53.7992668 43.5983963,53.7992516 
	44.5680046,53.7992516 45.5376053,53.7992401 46.5072136,53.7992096 47.4768219,53.7991943 48.446434,53.7991676 
	49.4160309,53.7991371 50.385643,53.7990952 51.3552513,53.7990341 52.3248482,53.7989769 53.2944603,53.7989044 
	54.2640686,53.7988052 55.2336769,53.798687 56.2032776,53.798542 57.1728859,53.7983551 58.142498,53.7981377 
	59.1120949,53.7978783 60.081707,53.7975578 61.0513153,53.7971687 62.0209236,53.7966919 62.9905243,53.7961273 
	63.9601326,53.795433 64.9297409,53.7946053 65.8993454,53.7936211 66.8689499,53.79245 67.838562,53.7910309 
	68.8081741,53.7893524 69.777771,53.7873573 70.7473755,53.7849693 71.7169876,53.7821617 72.6865845,53.7788467 
	73.6562042,53.7749252 74.6258087,53.7703209 75.5954132,53.7649078 76.5650177,53.7585716 77.5346222,53.7511597 
	78.5042343,53.7425194 79.4738312,53.7324638 80.4434433,53.7207832 81.4130554,53.7072372 82.3826599,53.6915779 
	83.3522644,53.6735153 84.3218689,53.6527176 85.2914734,53.6288261 86.2610779,53.601429 87.23069,53.5701103 
	88.2002869,53.5343475 89.1699066,53.4936371 90.1395111,53.4473686 91.1091156,53.3949203 92.0787125,53.3355827 
	93.0483246,53.2686195 94.0179367,53.1931877 94.9875336,53.1084518 95.9571533,53.0134392 96.9267502,52.9071541 
	97.8963623,52.7885399 98.8659592,52.6564636 99.8355713,52.5097122 100.805191,52.3470535 101.7747879,52.1671638 
	102.7444,51.9686852 103.7139969,51.7501945 104.683609,51.5102425 105.6532059,51.2473335 106.622818,50.9599533 
	107.5924377,50.646553 108.562027,50.3056107 109.5316467,49.9355927 110.5012436,49.5349808 111.4708557,49.1022949 
	112.4404526,48.6360931 113.4100647,48.1350555 114.3796616,47.5978966 115.3492737,47.0234413 116.3188858,46.410675 
	117.2884903,45.7586899 118.2581024,45.0667763 119.2276917,44.3343964 120.1972961,43.5612335 121.1669083,42.7471848 
	122.1365204,41.8924103 123.1061249,40.9973183 124.075737,40.0626259 125.0453491,39.0893364 126.0149384,38.0787811 
	126.9845428,37.0325813 127.954155,35.9527321 128.9237671,34.8415337 129.8933716,33.7016678 130.8629761,32.5361137 
	131.8325958,31.3482113 132.8021851,30.1416264 133.7717896,28.9203358 134.741394,27.6886272 135.7110138,26.4510574 
	136.6806183,25.2124443 137.6502228,23.9778404 138.6198425,22.7524834 139.5894318,21.5417881 140.5590363,20.3512974 
	141.5286407,19.1866245 142.4982605,18.0534439 143.467865,16.9574146 144.4374695,15.90415 145.4070892,14.8991814 
	146.3766785,13.947876 147.346283,13.0554314 148.3158875,12.2267799 149.2855072,11.4665842 150.2550964,10.7792139 
	151.2247162,10.1685905 152.1943359,9.638319 153.1639252,9.1915102 154.1335297,8.8308125 155.1031342,8.5583687 
	156.0727539,8.3758268 157.0423431,8.2842741 158.0119629,8.2842741 158.9815826,8.3758268 159.9511719,8.5583687 
	160.9207764,8.8308125 161.8903809,9.1915102 162.8600006,9.638319 163.8295898,10.1685905 164.7992096,10.7792139 
	165.7688293,11.4665842 166.7384186,12.2267799 167.7080231,13.0554314 168.6776276,13.947876 169.6472473,14.8991814 
	170.6168213,15.90415 171.586441,16.9574146 172.556076,18.0534439 173.52565,19.1866245 174.4952698,20.3512974 
	175.4648743,21.5417881 176.4344788,22.7524834 177.404068,23.9778404 178.3736877,25.2124443 179.3433228,26.4510574 
	180.3128967,27.6886272 181.2825165,28.9203358 182.252121,30.1416264 183.2217255,31.3482113 184.1913147,32.5361137 
	185.1609344,33.7016678 186.1305542,34.8415337 187.1001434,35.9527321 188.0697632,37.0325813 189.0393677,38.0787811 
	190.0089722,39.0893364 190.9785614,40.0626259 191.9481812,40.9973183 192.9178009,41.8924103 193.8873901,42.7471848 
	194.8570099,43.5612335 195.8266144,44.3343964 196.7962189,45.0667763 197.7658081,45.7586899 198.7354279,46.410675 
	199.7050476,47.0234413 200.6746368,47.5978966 201.6442566,48.1350555 202.6138611,48.6360931 203.5834656,49.1022949 
	204.5530548,49.5349808 205.5226746,49.9355927 206.4922943,50.3056107 207.4618835,50.646553 208.4315033,50.9599533 
	209.4011078,51.2473335 210.3707123,51.5102425 211.3403015,51.7501945 212.3099213,51.9686852 213.2795258,52.1671638 
	214.2491302,52.3470535 215.21875,52.5097122 216.1883545,52.6564636 217.157959,52.7885399 218.1275482,52.9071541 
	219.0971527,53.0134392 220.0667725,53.1084518 221.036377,53.1931877 222.0059967,53.2686195 222.9756012,53.3355827 
	223.9452057,53.3949203 224.9147949,53.4473686 225.8843994,53.4936371 226.8540192,53.5343475 227.8236237,53.5701103 
	228.7932281,53.601429 229.7628479,53.6288261 230.7324524,53.6527176 231.7020416,53.6735153 232.6716461,53.6915779 
	233.6412811,53.7072372 234.6108704,53.7207832 235.5804749,53.7324638 236.5500641,53.7425194 237.5196991,53.7511597 
	238.4893036,53.7585716 239.4588928,53.7649078 240.4285278,53.7703209 241.3981171,53.7749252 242.3677216,53.7788467 
	243.3373108,53.7821617 244.3069458,53.7849693 245.2765503,53.7873573 246.2461395,53.7893524 247.2157745,53.7910309 
	248.1853638,53.79245 249.1549683,53.7936211 250.1245575,53.7946053 251.0941925,53.795433 252.063797,53.7961273 
	253.0333862,53.7966919 254.0029755,53.7971687 254.9726105,53.7975578 255.942215,53.7978783 256.9118042,53.7981377 
	257.8814392,53.7983551 258.8510132,53.798542 259.8206482,53.798687 260.7902222,53.7988052 261.7598572,53.7989044 
	262.7294617,53.7989769 263.6990662,53.7990341 264.6686707,53.7990952 265.6382751,53.7991371 266.6078796,53.7991676 
	267.5774841,53.7991943 268.5470886,53.7992096 269.5167236,53.7992401 270.4862976,53.7992516 271.4559326,53.7992516 
	272.4255066,53.7992668 273.3951416,53.7992821 274.3647156,53.7992821 275.3343506,53.7992821 276.3039551,53.7992973 
	277.2735596,53.7992973 278.2431641,53.7992973 279.2127686,53.7992973 280.182373,53.7992973 281.1520081,53.7992973 
	282.121582,53.7992973 283.091217,53.7992973 284.060791,53.7992973 285.030426,53.7992973 286,53.7992973 286.969635,53.7992973 
	287.9392395,53.7992973 288.908844,53.7992973 289.8784485,53.7992973 290.8480225,53.7992973 291.8176575,53.7992973 
	292.787262,53.7992973 293.7568665,53.7992973 294.7265015,53.7992973 295.6960754,53.7992973 296.6656799,53.7992973 
	297.6352844,53.7992973 298.6048889,53.7992973 299.5744934,53.7992973 300.5440979,53.7992973 301.5137329,53.7992973 
	302.4833374,53.7992973 "/>
<g id="XMLID_1_">
	<g id="XMLID_14_">
		<g id="XMLID_15_">
			<polygon id="XMLID_16_" points="235.2588348,26.7933044 235.2588348,29.2253418 246.6994476,26.1618652 235.2588348,23.0930786 
				235.2588348,25.5253296 197.1061096,25.5253296 197.1061096,26.7933044 			"/>
		</g>
	</g>
</g>
<g id="XMLID_7_">
	<g id="XMLID_8_">
		<path id="XMLID_6_" class="st3" d="M219.4825897,17.0800781l-1.8066406-4.2124023
			c-0.2177734-0.5073242-0.3881836-0.8286133-0.5102539-0.9643555c-0.0878906-0.1005859-0.2177734-0.168457-0.3901367-0.203125
			v-0.2148438h2.8500977v0.2148438c-0.1791992,0-0.3017578,0.0327148-0.3666992,0.0986328
			c-0.0917969,0.0854492-0.1376953,0.1860352-0.1376953,0.3022461c0,0.1430664,0.0839844,0.4121094,0.2524414,0.8076172
			l0.8837891,2.0385742l0.7050781-1.7597656c0.2021484-0.503418,0.3037109-0.8598633,0.3037109-1.0693359
			c0-0.1196289-0.0429688-0.2177734-0.1289063-0.2929688c-0.0859375-0.0756836-0.2382813-0.1171875-0.4560547-0.125v-0.2148438
			h1.7548828v0.2148438c-0.1679688,0.0229492-0.3056641,0.0869141-0.4130859,0.1914063
			c-0.1064453,0.1049805-0.2675781,0.4125977-0.4814453,0.9238281l-1.7890625,4.2646484H219.4825897z"/>
	</g>
</g>
<g id="XMLID_4_">
</g>
<g id="XMLID_10_">
</g>
<g id="XMLID_11_">
</g>
<g id="XMLID_12_">
</g>
<g id="XMLID_17_">
</g>
<g id="XMLID_18_">
</g>
</svg>
