<?xml version="1.0" encoding="utf-8"?>
<!-- Generator: Adobe Illustrator 19.0.0, SVG Export Plug-In . SVG Version: 6.00 Build 0)  -->
<svg version="1.1" id="Layer_1" xmlns="http://www.w3.org/2000/svg" xmlns:xlink="http://www.w3.org/1999/xlink" x="0px" y="0px"
	 viewBox="0 0 578 349" style="enable-background:new 0 0 578 349;" xml:space="preserve">
<style type="text/css">
	.st0{fill:none;stroke:#D85527;stroke-width:0.5000002;stroke-linejoin:round;stroke-miterlimit:10;}
	.st1{fill:#D85527;}
	.st2{fill:#F15A29;}
	.st3{fill:none;stroke:#000000;stroke-linejoin:round;stroke-miterlimit:10;}
	.st4{fill:#010101;}
	.st5{fill:none;stroke:#00AEEF;stroke-linejoin:round;stroke-miterlimit:10;}
	.st6{fill:#00AEEF;}
	.st7{fill:none;stroke:#D1D3D4;stroke-miterlimit:10;}
</style>
<polyline id="XMLID_138_" class="st0" points="45.8679314,179.7312622 46.4150429,179.7209473 46.9621506,179.7089539 
	47.5092659,179.6950226 48.0563774,179.6788635 48.6034927,179.6601868 49.1506004,179.6386414 49.6977119,179.6138458 
	50.2448196,179.5853424 50.7919312,179.5526581 51.3390465,179.5153046 51.8861542,179.4726563 52.4332733,179.4240875 
	52.980381,179.3689117 53.5274925,179.3063507 54.0746002,179.2355652 54.6217155,179.1557007 55.1688271,179.0657349 
	55.7159348,178.9646606 56.2630539,178.8513336 56.8101616,178.7245636 57.3572731,178.5830688 57.9043808,178.4255371 
	58.4514961,178.2505035 58.9986153,178.056488 59.545723,177.8419189 60.0928345,177.6051941 60.6399422,177.344574 
	61.1870575,177.0583649 61.7341652,176.7447815 62.2812767,176.4020081 62.8283958,176.0281982 63.3754959,175.6215363 
	63.9226151,175.180191 64.4697266,174.7023468 65.0168381,174.186264 65.563942,173.630188 66.1110611,173.0325775 
	66.658165,172.391861 67.2052765,171.7066803 67.752388,170.9757996 68.2995071,170.1981354 68.8466187,169.3728333 
	69.3937225,168.4992828 69.940834,167.5770721 70.4879456,166.6061096 71.0350571,165.5865631 71.5821762,164.5189362 
	72.1292877,163.404068 72.6763992,162.2431641 73.2235031,161.0378113 73.7706146,159.7899475 74.3177261,158.5019379 
	74.8648376,157.1765442 75.4119568,155.8169403 75.9590683,154.426712 76.5061798,153.0098267 77.0532837,151.5706635 
	77.6003952,150.1139526 78.1475067,148.6448059 78.6946182,147.1686859 79.2417374,145.6913147 79.7888489,144.2187195 
	80.3359604,142.7571564 80.8830643,141.3130798 81.4301758,139.8931122 81.9772873,138.5039215 82.5244064,137.1523132 
	83.0715179,135.8450012 83.6186295,134.5887146 84.165741,133.3900146 84.7128448,132.2553406 85.2599564,131.1908569 
	85.8070679,130.2024841 86.354187,129.2957458 86.9012833,128.4758759 87.44841,127.7475433 87.9955215,127.1150589 
	88.5426254,126.5821152 89.0897369,126.1518936 89.6368561,125.8269272 90.1839676,125.6091995 90.7310638,125.5 91.2781906,125.5 
	91.8253021,125.6091995 92.372406,125.8269272 92.9195175,126.1518936 93.4666367,126.5821152 94.0137482,127.1150589 
	94.5608444,127.7475433 95.1079712,128.4758759 95.6550903,129.2957458 96.2021866,130.2024841 96.7492981,131.1908569 
	97.2964172,132.2553406 97.8435287,133.3900146 98.3906326,134.5887146 98.9377441,135.8450012 99.4848709,137.1523132 
	100.0319672,138.5039215 100.5790863,139.8931122 101.1261978,141.3130798 101.6733093,142.7571564 102.2204132,144.2187195 
	102.7675247,145.6913147 103.3146515,147.1686859 103.8617477,148.6448059 104.4088669,150.1139526 104.9559784,151.5706635 
	105.5030899,153.0098267 106.0501938,154.426712 106.5973053,155.8169403 107.1444321,157.1765442 107.6915283,158.5019379 
	108.2386475,159.7899475 108.785759,161.0378113 109.3328705,162.2431641 109.8799744,163.404068 110.4270859,164.5189362 
	110.9742126,165.5865631 111.5213165,166.6061096 112.068428,167.5770721 112.6155396,168.4992828 113.1626511,169.3728333 
	113.7097549,170.1981354 114.2568665,170.9757996 114.8039932,171.7066803 115.3510971,172.391861 115.8982086,173.0325775 
	116.4453201,173.630188 116.9924316,174.186264 117.5395355,174.7023468 118.086647,175.180191 118.6337738,175.6215363 
	119.1808777,176.0281982 119.7279892,176.4020081 120.2751007,176.7447815 120.8222122,177.0583649 121.3693161,177.344574 
	121.9164276,177.6051941 122.4635468,177.8419189 123.0106583,178.056488 123.5577698,178.2505035 124.1048813,178.4255371 
	124.6519928,178.5830688 125.1990967,178.7245636 125.7462082,178.8513336 126.2933273,178.9646606 126.8404388,179.0657349 
	127.3875504,179.1557007 127.9346619,179.2355652 128.481781,179.3063507 129.0288849,179.3689117 129.5759888,179.4240875 
	130.1231079,179.4726563 130.6702118,179.5153046 131.2173309,179.5526581 131.7644501,179.5853424 132.311554,179.6138458 
	132.8586578,179.6386414 133.405777,179.6601868 133.9528961,179.6788635 134.5,179.6950226 "/>
<g id="XMLID_142_">
	<g id="XMLID_36_">
		<g id="XMLID_37_">
			<polygon id="XMLID_38_" class="st1" points="154.6593018,152.8423615 154.6593018,155.2743988 166.0999146,152.2109222 
				154.6593018,149.1421661 154.6593018,151.5743866 116.4318542,151.5743866 116.4318542,152.8423615 			"/>
		</g>
	</g>
</g>
<g id="XMLID_3_">
	<g id="XMLID_10_">
		<path id="XMLID_59_" class="st2" d="M136.6298828,144.3632813l-1.8066406-4.2124023
			c-0.2177734-0.5073242-0.3881836-0.8286133-0.5102539-0.9643555c-0.0878906-0.1005859-0.2177734-0.168457-0.3901367-0.203125
			v-0.2148438h2.8500977v0.2148438c-0.1791992,0-0.3017578,0.0327148-0.3666992,0.0986328
			c-0.0917969,0.0854492-0.1376953,0.1860352-0.1376953,0.3022461c0,0.1430664,0.0839844,0.4121094,0.2524414,0.8076172
			l0.8837891,2.0385742l0.7050781-1.7597656c0.2021484-0.503418,0.3037109-0.8598633,0.3037109-1.0693359
			c0-0.1196289-0.0429688-0.2177734-0.1289063-0.2929688c-0.0859375-0.0756836-0.2382813-0.1171875-0.4560547-0.125v-0.2148438
			h1.7548828v0.2148438c-0.1679688,0.0229492-0.3056641,0.0869141-0.4130859,0.1914063
			c-0.1064453,0.1049805-0.2675781,0.4125977-0.4814453,0.9238281l-1.7890625,4.2646484H136.6298828z"/>
	</g>
</g>
<line id="XMLID_137_" class="st3" x1="15" y1="179.7312622" x2="544" y2="179.7312622"/>
<polyline id="XMLID_7_" class="st0" points="366.5,284.1021423 367.5119324,284.0980835 368.5238647,284.0933228 
	369.5358276,284.0878296 370.54776,284.0814514 371.5596924,284.0740662 372.5716248,284.0655518 373.5835571,284.0557556 
	374.5954895,284.0444641 375.6074524,284.0315552 376.6193848,284.0168152 377.6313171,283.999939 378.6432495,283.9807434 
	379.6551819,283.9589539 380.6671448,283.9342041 381.6790771,283.90625 382.6910095,283.8746643 383.7029419,283.8391113 
	384.7148743,283.7991638 385.7268372,283.7543945 386.7387695,283.7042847 387.7507019,283.6483765 388.7626343,283.5860901 
	389.7745667,283.5169373 390.7865295,283.4402466 391.7984619,283.3554382 392.8103943,283.2618713 393.8223267,283.1588745 
	394.834259,283.0457764 395.8461914,282.9218445 396.8581543,282.7863464 397.8700867,282.6386108 398.882019,282.4779053 
	399.8939514,282.3034668 400.9058838,282.114624 401.9178467,281.9106445 402.9297791,281.6908875 403.9417114,281.4546814 
	404.9536438,281.2014771 405.9655762,280.9306641 406.9775085,280.6417847 407.9894714,280.3344421 409.0014038,280.0082703 
	410.0133362,279.6630249 411.0252686,279.2985535 412.0372009,278.9147949 413.0491333,278.5118713 414.0610962,278.0899048 
	415.0730286,277.649292 416.0849609,277.1904907 417.0968933,276.7140808 418.1088257,276.2209167 419.1207581,275.711853 
	420.1327209,275.1880493 421.1446533,274.6506958 422.1565857,274.1012573 423.1685486,273.5412598 424.1804504,272.9724731 
	425.1924133,272.396759 426.2043457,271.8161011 427.2162781,271.2327271 428.2282104,270.6488342 429.2401733,270.0668335 
	430.2521057,269.4891968 431.2640381,268.918457 432.2759705,268.3572388 433.2879028,267.8082275 434.2998352,267.2740173 
	435.3117981,266.7573547 436.3237305,266.2608337 437.3356628,265.7870789 438.3475952,265.338623 439.3595276,264.9179382 
	440.37146,264.5273132 441.3834229,264.1689453 442.3953247,263.8449097 443.4072876,263.5570679 444.4192505,263.3070984 
	445.4311523,263.0964661 446.4431152,262.9264221 447.4550476,262.7980042 448.46698,262.7119446 449.4789124,262.6687927 
	450.4908752,262.6687927 451.5028076,262.7119446 452.51474,262.7980042 453.5266724,262.9264221 454.5386047,263.0964661 
	455.5505371,263.3070984 456.5624695,263.5570679 457.5744324,263.8449097 458.5863647,264.1689453 459.5982971,264.5273132 
	460.6102295,264.9179382 461.6221619,265.338623 462.6341248,265.7870789 463.6460266,266.2608337 464.6579895,266.7573547 
	465.6699524,267.2740173 466.6818542,267.8082275 467.6938171,268.3572388 468.7057495,268.918457 469.7176819,269.4891968 
	470.7296143,270.0668335 471.7415466,270.6488342 472.7535095,271.2327271 473.7654419,271.8161011 474.7773743,272.396759 
	475.7893066,272.9724731 476.801239,273.5412598 477.8131714,274.1012573 478.8251038,274.6506958 479.8370667,275.1880493 
	480.848999,275.711853 481.8609314,276.2209167 482.8728638,276.7140808 483.8848267,277.1904907 484.8967285,277.649292 
	485.9086914,278.0899048 486.9206543,278.5118713 487.9325562,278.9147949 488.9444885,279.2985535 489.9564514,279.6630249 
	490.9683838,280.0082703 491.9803162,280.3344421 492.9922485,280.6417847 494.0042114,280.9306641 495.0161438,281.2014771 
	496.0280762,281.4546814 497.0400085,281.6908875 498.0519409,281.9106445 499.0638733,282.114624 500.0758057,282.3034668 
	501.0877686,282.4779053 502.0997009,282.6386108 503.1116333,282.7863464 504.1235657,282.9218445 505.1355286,283.0457764 
	506.1474304,283.1588745 507.1593933,283.2618713 508.1713257,283.3554382 509.1832581,283.4402466 510.1951904,283.5169373 
	511.2071533,283.5860901 512.2191162,283.6483765 513.2310181,283.7042847 514.2429199,283.7543945 515.2548828,283.7991638 
	516.2668457,283.8391113 517.2787476,283.8746643 518.2907104,283.90625 519.3026733,283.9342041 520.3145752,283.9589539 
	521.3265381,283.9807434 522.3384399,283.999939 523.3504028,284.0168152 524.3623657,284.0315552 525.3742676,284.0444641 
	526.3862305,284.0557556 527.3981323,284.0655518 528.4100952,284.0740662 529.4220581,284.0814514 530.43396,284.0878296 "/>
<g id="XMLID_6_">
	<g id="XMLID_28_">
		<g id="XMLID_29_">
			<polygon id="XMLID_30_" class="st1" points="527.0932617,257.2132263 527.0932617,259.6452637 538.5338745,256.5817871 
				527.0932617,253.5130463 527.0932617,255.9452972 488.8658142,255.9452972 488.8658142,257.2132263 			"/>
		</g>
	</g>
</g>
<g id="XMLID_4_">
	<g id="XMLID_5_">
		<path id="XMLID_57_" class="st2" d="M509.0644531,248.734375l-1.8066406-4.2128906
			c-0.2177734-0.5068359-0.3886719-0.828125-0.5107422-0.9638672c-0.0878906-0.1005859-0.2177734-0.1689453-0.3896484-0.203125
			v-0.2148438h2.8496094v0.2148438c-0.1787109,0-0.3017578,0.0322266-0.3662109,0.0986328
			c-0.0917969,0.0849609-0.1376953,0.1855469-0.1376953,0.3017578c0,0.1435547,0.0839844,0.4121094,0.2519531,0.8076172
			l0.8837891,2.0390625l0.7050781-1.7597656c0.2021484-0.5039063,0.3037109-0.8603516,0.3037109-1.0693359
			c0-0.1201172-0.0429688-0.2177734-0.1289063-0.2929688c-0.0859375-0.0761719-0.2382813-0.1171875-0.4560547-0.125v-0.2148438
			h1.7548828v0.2148438c-0.1679688,0.0224609-0.3056641,0.0869141-0.4130859,0.1914063
			c-0.1064453,0.1044922-0.2675781,0.4121094-0.4814453,0.9238281l-1.7890625,4.2646484H509.0644531z"/>
	</g>
</g>
<line id="XMLID_1_" class="st3" x1="15" y1="284.1021423" x2="543.43396" y2="284.1021423"/>
<g id="XMLID_9_">
	<g id="XMLID_11_">
		<path id="XMLID_55_" class="st4" d="M557.3710938,174.4741211c0.1875,0.2011719,0.328125,0.402832,0.4238281,0.6040039
			c0.0693359,0.1391602,0.1816406,0.5053711,0.3388672,1.0981445l0.5048828-0.7670898
			c0.1337891-0.1860352,0.2958984-0.3632813,0.4873047-0.5317383s0.359375-0.2836914,0.5048828-0.3457031
			c0.0917969-0.0385742,0.1933594-0.0576172,0.3037109-0.0576172c0.1640625,0,0.2958984,0.0444336,0.3925781,0.1333008
			c0.0976563,0.0893555,0.1464844,0.1977539,0.1464844,0.3251953c0,0.1474609-0.0283203,0.2480469-0.0859375,0.3022461
			c-0.1074219,0.0966797-0.2294922,0.1455078-0.3671875,0.1455078c-0.0800781,0-0.1660156-0.0175781-0.2578125-0.0527344
			c-0.1796875-0.0615234-0.2998047-0.0927734-0.3613281-0.0927734c-0.0917969,0-0.2011719,0.0541992-0.3271484,0.1625977
			c-0.2373047,0.2016602-0.5195313,0.5908203-0.8486328,1.1679688l0.4707031,1.9980469
			c0.0722656,0.3066406,0.1337891,0.4892578,0.1835938,0.5488281c0.0488281,0.0605469,0.0986328,0.0908203,0.1484375,0.0908203
			c0.0800781,0,0.1738281-0.0449219,0.28125-0.1337891c0.2099609-0.1787109,0.3896484-0.4101563,0.5390625-0.6972656
			l0.2011719,0.1044922c-0.2412109,0.4570313-0.546875,0.8369141-0.9179688,1.1386719
			c-0.2099609,0.1699219-0.3876953,0.2558594-0.5332031,0.2558594c-0.2148438,0-0.3847656-0.1220703-0.5107422-0.3662109
			c-0.0800781-0.1513672-0.2460938-0.8017578-0.4990234-1.9521484c-0.5966797,1.0498047-1.0742188,1.7255859-1.4335938,2.0273438
			c-0.2333984,0.1943359-0.4589844,0.2910156-0.6767578,0.2910156c-0.1523438,0-0.2929688-0.0566406-0.4189453-0.1689453
			c-0.0917969-0.0849609-0.1376953-0.1992188-0.1376953-0.3427734c0-0.1279297,0.0429688-0.234375,0.1269531-0.3193359
			s0.1865234-0.1279297,0.3085938-0.1279297c0.1230469,0,0.2529297,0.0625,0.390625,0.1865234
			c0.0996094,0.0888672,0.1757813,0.1328125,0.2294922,0.1328125c0.0458984,0,0.1044922-0.0302734,0.1777344-0.0927734
			c0.1796875-0.1464844,0.4248047-0.4648438,0.7333984-0.9521484c0.3105469-0.4882813,0.5126953-0.8408203,0.6083984-1.0576172
			c-0.2373047-0.9414063-0.3652344-1.4389648-0.3837891-1.4931641c-0.0878906-0.2514648-0.203125-0.4296875-0.34375-0.534668
			c-0.1425781-0.1044922-0.3505859-0.1567383-0.6259766-0.1567383c-0.0878906,0-0.1884766,0.0039063-0.3037109,0.0117188v-0.2089844
			L557.3710938,174.4741211z"/>
	</g>
</g>
<g id="XMLID_13_">
	<g id="XMLID_17_">
		<path id="XMLID_53_" class="st4" d="M557.3710938,278.8447266c0.1875,0.2011719,0.328125,0.4033203,0.4238281,0.6044922
			c0.0693359,0.1386719,0.1816406,0.5048828,0.3388672,1.0976563l0.5048828-0.7666016
			c0.1337891-0.1865234,0.2958984-0.3632813,0.4873047-0.5322266c0.1914063-0.1679688,0.359375-0.2832031,0.5048828-0.3457031
			c0.0917969-0.0380859,0.1933594-0.0576172,0.3037109-0.0576172c0.1640625,0,0.2958984,0.0449219,0.3925781,0.1337891
			c0.0976563,0.0888672,0.1464844,0.1972656,0.1464844,0.3251953c0,0.1474609-0.0283203,0.2480469-0.0859375,0.3017578
			c-0.1074219,0.0966797-0.2294922,0.1455078-0.3671875,0.1455078c-0.0800781,0-0.1660156-0.0175781-0.2578125-0.0527344
			c-0.1796875-0.0615234-0.2998047-0.0927734-0.3613281-0.0927734c-0.0917969,0-0.2011719,0.0546875-0.3271484,0.1630859
			c-0.2373047,0.2011719-0.5195313,0.5908203-0.8486328,1.1679688l0.4707031,1.9980469
			c0.0722656,0.3066406,0.1337891,0.4892578,0.1835938,0.5488281c0.0488281,0.0605469,0.0986328,0.0908203,0.1484375,0.0908203
			c0.0800781,0,0.1738281-0.0449219,0.28125-0.1337891c0.2099609-0.1787109,0.3896484-0.4101563,0.5390625-0.6972656
			l0.2011719,0.1044922c-0.2412109,0.4570313-0.546875,0.8369141-0.9179688,1.1386719
			c-0.2099609,0.1699219-0.3876953,0.2558594-0.5332031,0.2558594c-0.2148438,0-0.3847656-0.1220703-0.5107422-0.3662109
			c-0.0800781-0.1513672-0.2460938-0.8017578-0.4990234-1.9521484c-0.5966797,1.0498047-1.0742188,1.7255859-1.4335938,2.0273438
			c-0.2333984,0.1943359-0.4589844,0.2910156-0.6767578,0.2910156c-0.1523438,0-0.2929688-0.0566406-0.4189453-0.1689453
			c-0.0917969-0.0849609-0.1376953-0.1992188-0.1376953-0.3427734c0-0.1279297,0.0429688-0.234375,0.1269531-0.3193359
			s0.1865234-0.1279297,0.3085938-0.1279297c0.1230469,0,0.2529297,0.0625,0.390625,0.1865234
			c0.0996094,0.0888672,0.1757813,0.1328125,0.2294922,0.1328125c0.0458984,0,0.1044922-0.0302734,0.1777344-0.0927734
			c0.1796875-0.1464844,0.4248047-0.4648438,0.7333984-0.9521484c0.3105469-0.4882813,0.5126953-0.8408203,0.6083984-1.0576172
			c-0.2373047-0.9414063-0.3652344-1.4394531-0.3837891-1.4931641c-0.0878906-0.2519531-0.203125-0.4296875-0.34375-0.5351563
			c-0.1425781-0.1044922-0.3505859-0.15625-0.6259766-0.15625c-0.0878906,0-0.1884766,0.0039063-0.3037109,0.0117188v-0.2089844
			L557.3710938,278.8447266z"/>
	</g>
</g>
<line id="XMLID_25_" class="st3" x1="13.6828156" y1="77" x2="542.6828003" y2="77"/>
<line id="XMLID_23_" class="st5" x1="259.6828003" y1="77" x2="294.0484314" y2="42.6343727"/>
<line id="XMLID_22_" class="st5" x1="294.0484314" y1="42.6343727" x2="328.5484314" y2="77.1343765"/>
<g id="XMLID_15_">
	<g id="XMLID_21_">
		<path id="XMLID_45_" class="st6" d="M292.0947266,33.0112305v0.2177734
			c-0.5878906-0.2988281-1.0786133-0.6474609-1.4716797-1.0478516c-0.5605469-0.5693359-0.9926758-1.2402344-1.2963867-2.0126953
			c-0.3037109-0.7734375-0.4550781-1.5751953-0.4550781-2.4072266c0-1.2167969,0.2973633-2.3261719,0.8930664-3.3286133
			c0.5957031-1.0029297,1.3720703-1.7197266,2.3300781-2.1513672v0.2470703
			c-0.4794922,0.2670898-0.8720703,0.6318359-1.1796875,1.0947266s-0.5371094,1.0498047-0.6889648,1.7597656
			c-0.1518555,0.7104492-0.2275391,1.4521484-0.2275391,2.2250977c0,0.8398438,0.0639648,1.6025391,0.1923828,2.2900391
			c0.1010742,0.5410156,0.2241211,0.9755859,0.3681641,1.3037109c0.1435547,0.3271484,0.3374023,0.6416016,0.5805664,0.9443359
			C291.3833008,32.4477539,291.7011719,32.7368164,292.0947266,33.0112305z"/>
		<path id="XMLID_48_" class="st6" d="M299.1015625,22.5283203V22.28125
			c0.5917969,0.2939453,1.0839844,0.6416016,1.4775391,1.0415039c0.5566406,0.5732422,0.9863281,1.2451172,1.2900391,2.0161133
			s0.4560547,1.574707,0.4560547,2.4106445c0,1.2158203-0.296875,2.3251953-0.890625,3.328125
			s-1.3710938,1.7197266-2.3330078,2.1513672v-0.2177734c0.4785156-0.2705078,0.8730469-0.6367188,1.1826172-1.0976563
			s0.5390625-1.0478516,0.6884766-1.7597656c0.1503906-0.7128906,0.2255859-1.4550781,0.2255859-2.2285156
			c0-0.8354492-0.0644531-1.5986328-0.1933594-2.2890625c-0.0966797-0.5415039-0.21875-0.9750977-0.3642578-1.3007813
			c-0.1464844-0.3256836-0.3398438-0.6396484-0.5810547-0.9418945
			C299.8173828,23.0913086,299.4990234,22.8032227,299.1015625,22.5283203z"/>
	</g>
	<g id="XMLID_20_">
		<path id="XMLID_41_" class="st6" d="M281.0327148,30.8334961l0.6538086-6.6455078
			c0.03125-0.3374023,0.046875-0.5649414,0.046875-0.6826172c0-0.1767578-0.0649414-0.3237305-0.1953125-0.4414063
			c-0.1308594-0.1176758-0.3359375-0.1767578-0.6162109-0.1767578h-0.2104492l0.0585938-0.2177734h3.1240234l-0.0644531,0.2177734
			c-0.3383789,0.0039063-0.5712891,0.0395508-0.6977539,0.105957c-0.1264648,0.0668945-0.2265625,0.1806641-0.3007813,0.3413086
			c-0.0385742,0.0864258-0.0795898,0.3320313-0.1225586,0.7358398l-0.4667969,4.762207l3.0888672-4.25
			c0.3344727-0.4589844,0.5449219-0.7788086,0.6303711-0.9594727c0.0585938-0.121582,0.0878906-0.2275391,0.0878906-0.3178711
			c0-0.105957-0.0449219-0.1982422-0.1342773-0.2763672c-0.0898438-0.0786133-0.2573242-0.1254883-0.5024414-0.1416016
			l0.0703125-0.2177734h2.3823242l-0.0585938,0.2177734c-0.190918,0.0161133-0.3427734,0.0532227-0.4555664,0.1118164
			c-0.2138672,0.1020508-0.4272461,0.2573242-0.6391602,0.465332c-0.2124023,0.2080078-0.5478516,0.6279297-1.0073242,1.2592773
			l-4.4609375,6.1098633H281.0327148z"/>
		<path id="XMLID_43_" class="st6" d="M295.3037109,25.3242188c0.1904297,0.2041016,0.3339844,0.4082031,0.4316406,0.6118164
			c0.0703125,0.1416016,0.1845703,0.512207,0.3447266,1.112793l0.5136719-0.7768555
			c0.1367188-0.1884766,0.3017578-0.3681641,0.4960938-0.5385742c0.1953125-0.1708984,0.3662109-0.2875977,0.5146484-0.3505859
			c0.0927734-0.0390625,0.1962891-0.0585938,0.3085938-0.0585938c0.1679688,0,0.3007813,0.0449219,0.4003906,0.1352539
			s0.1484375,0.2001953,0.1484375,0.3295898c0,0.1494141-0.0283203,0.2514648-0.0869141,0.3061523
			c-0.109375,0.0981445-0.2333984,0.1469727-0.3740234,0.1469727c-0.0820313,0-0.1689453-0.0175781-0.2626953-0.0527344
			c-0.1826172-0.0629883-0.3056641-0.0942383-0.3681641-0.0942383c-0.0927734,0-0.2041016,0.0551758-0.3320313,0.1645508
			c-0.2421875,0.2041016-0.5302734,0.5986328-0.8642578,1.1831055l0.4785156,2.0253906
			c0.0742188,0.3095703,0.1357422,0.4951172,0.1865234,0.5556641s0.1015625,0.0917969,0.1523438,0.0917969
			c0.0810547,0,0.1767578-0.0458984,0.2861328-0.1357422c0.2138672-0.1806641,0.3964844-0.4160156,0.5488281-0.7060547
			l0.2041016,0.1054688c-0.2451172,0.4628906-0.5566406,0.8476563-0.9345703,1.1533203
			c-0.2138672,0.1728516-0.3945313,0.2597656-0.5429688,0.2597656c-0.2177734,0-0.390625-0.1240234-0.5195313-0.3710938
			c-0.0820313-0.1533203-0.2509766-0.8125-0.5078125-1.9775391c-0.6074219,1.0634766-1.09375,1.7480469-1.4599609,2.0537109
			c-0.2373047,0.1962891-0.4667969,0.2949219-0.6894531,0.2949219c-0.1552734,0-0.296875-0.0576172-0.4257813-0.1708984
			c-0.09375-0.0859375-0.140625-0.2021484-0.140625-0.3476563c0-0.1289063,0.0429688-0.2373047,0.1289063-0.3232422
			c0.0859375-0.0869141,0.1904297-0.1298828,0.3154297-0.1298828c0.1240234,0,0.2568359,0.0625,0.3974609,0.1884766
			c0.1005859,0.0908203,0.1787109,0.1357422,0.2333984,0.1357422c0.046875,0,0.1064453-0.03125,0.1806641-0.0947266
			c0.1826172-0.1484375,0.4326172-0.4707031,0.7470703-0.9648438c0.3154297-0.4951172,0.5224609-0.8515625,0.6191406-1.0712891
			c-0.2412109-0.9536133-0.3720703-1.4580078-0.390625-1.5126953c-0.0898438-0.2553711-0.2070313-0.4355469-0.3505859-0.5415039
			c-0.1445313-0.105957-0.3564453-0.1591797-0.6367188-0.1591797c-0.0898438,0-0.1923828,0.0039063-0.3095703,0.0117188v-0.2119141
			L295.3037109,25.3242188z"/>
	</g>
</g>
<line id="XMLID_2_" class="st5" x1="328.5484314" y1="77.1343765" x2="471" y2="77.1343765"/>
<line id="XMLID_14_" class="st5" x1="116.4318542" y1="77.1343765" x2="258.8834229" y2="77.1343765"/>
<line id="XMLID_16_" class="st7" x1="258.8834229" y1="16" x2="258.8834229" y2="334"/>
<line id="XMLID_18_" class="st7" x1="328.5484314" y1="16" x2="328.5484314" y2="334"/>
<g id="XMLID_8_">
	<g id="XMLID_12_">
		<path id="XMLID_39_" class="st4" d="M557.3710938,71.8769531c0.1875,0.2011719,0.328125,0.402832,0.4238281,0.6040039
			c0.0693359,0.1391602,0.1816406,0.5053711,0.3388672,1.0981445l0.5048828-0.7670898
			c0.1337891-0.1860352,0.2958984-0.3632813,0.4873047-0.5317383s0.359375-0.2836914,0.5048828-0.3457031
			c0.0917969-0.0385742,0.1933594-0.0576172,0.3037109-0.0576172c0.1640625,0,0.2958984,0.0444336,0.3925781,0.1333008
			c0.0976563,0.0893555,0.1464844,0.1977539,0.1464844,0.3251953c0,0.1474609-0.0283203,0.2480469-0.0859375,0.3022461
			c-0.1074219,0.0966797-0.2294922,0.1455078-0.3671875,0.1455078c-0.0800781,0-0.1660156-0.0175781-0.2578125-0.0527344
			c-0.1796875-0.0615234-0.2998047-0.0927734-0.3613281-0.0927734c-0.0917969,0-0.2011719,0.0541992-0.3271484,0.1625977
			c-0.2373047,0.2016602-0.5195313,0.5908203-0.8486328,1.1679688l0.4707031,1.9980469
			c0.0722656,0.3066406,0.1337891,0.4892578,0.1835938,0.5488281c0.0488281,0.0605469,0.0986328,0.0908203,0.1484375,0.0908203
			c0.0800781,0,0.1738281-0.0449219,0.28125-0.1337891c0.2099609-0.1787109,0.3896484-0.4101563,0.5390625-0.6972656
			l0.2011719,0.1044922c-0.2412109,0.4570313-0.546875,0.8369141-0.9179688,1.1386719
			c-0.2099609,0.1699219-0.3876953,0.2558594-0.5332031,0.2558594c-0.2148438,0-0.3847656-0.1220703-0.5107422-0.3662109
			c-0.0800781-0.1513672-0.2460938-0.8017578-0.4990234-1.9521484c-0.5966797,1.0498047-1.0742188,1.7255859-1.4335938,2.0273438
			c-0.2333984,0.1943359-0.4589844,0.2910156-0.6767578,0.2910156c-0.1523438,0-0.2929688-0.0566406-0.4189453-0.1689453
			c-0.0917969-0.0849609-0.1376953-0.1992188-0.1376953-0.3427734c0-0.1279297,0.0429688-0.234375,0.1269531-0.3193359
			s0.1865234-0.1279297,0.3085938-0.1279297c0.1230469,0,0.2529297,0.0625,0.390625,0.1865234
			c0.0996094,0.0888672,0.1757813,0.1328125,0.2294922,0.1328125c0.0458984,0,0.1044922-0.0302734,0.1777344-0.0927734
			c0.1796875-0.1464844,0.4248047-0.4648438,0.7333984-0.9521484c0.3105469-0.4882813,0.5126953-0.8408203,0.6083984-1.0576172
			c-0.2373047-0.9414063-0.3652344-1.4389648-0.3837891-1.4931641c-0.0878906-0.2514648-0.203125-0.4296875-0.34375-0.534668
			c-0.1425781-0.1044922-0.3505859-0.1567383-0.6259766-0.1567383c-0.0878906,0-0.1884766,0.0039063-0.3037109,0.0117188v-0.2089844
			L557.3710938,71.8769531z"/>
	</g>
</g>
<polyline id="XMLID_32_" class="st0" points="210.3161926,284.1023254 209.3042603,284.0982666 208.2923279,284.0935059 
	207.2803802,284.0880127 206.2684479,284.081604 205.2565002,284.0742493 204.2445679,284.0657349 203.2326355,284.0559082 
	202.2207031,284.0446472 201.2087555,284.0317383 200.1968231,284.0169678 199.1848907,284.0001221 198.1729279,283.9809265 
	197.1609955,283.9591064 196.1490631,283.9343872 195.1371307,283.9064331 194.1251831,283.8748474 193.1132507,283.8392944 
	192.1013184,283.7993469 191.0893707,283.7545471 190.0774384,283.7044678 189.0654907,283.6485291 188.0535583,283.5862732 
	187.041626,283.5170898 186.0296631,283.4404297 185.017746,283.3556213 184.0057983,283.2620544 182.993866,283.1590576 
	181.9819336,283.045929 180.9700012,282.9219971 179.9580536,282.7865295 178.946106,282.6387939 177.9341888,282.4780579 
	176.922226,282.3036499 175.9102936,282.1147766 174.8983612,281.9108276 173.8864288,281.69104 172.8744812,281.4548645 
	171.8625641,281.2016296 170.8506165,280.9308472 169.8386688,280.6419678 168.8267365,280.3346252 167.8147888,280.0084534 
	166.8028717,279.663208 165.7909393,279.2987366 164.7789917,278.914978 163.7670441,278.5120239 162.7551117,278.0900879 
	161.7431641,277.6494751 160.7312317,277.1906433 159.7192993,276.7142639 158.7073669,276.2210693 157.6954193,275.7120361 
	156.6834869,275.1882019 155.6715393,274.6508789 154.6595917,274.1014099 153.6476593,273.5414429 152.6357422,272.9726563 
	151.6237946,272.3969116 150.6118622,271.8162842 149.5999146,271.2328796 148.5879669,270.6489868 147.5760345,270.0669861 
	146.5640869,269.4893494 145.5521698,268.9186401 144.5402374,268.3574219 143.5282898,267.8083801 142.5163422,267.2742004 
	141.5044098,266.7575378 140.4924622,266.2610168 139.4805298,265.787262 138.4685974,265.3388062 137.456665,264.9181213 
	136.4447174,264.5274658 135.432785,264.1691284 134.4208679,263.8450928 133.408905,263.5572205 132.3969574,263.307251 
	131.3850403,263.0966187 130.3730927,262.9266052 129.3611603,262.7981567 128.3492126,262.7121277 127.3372955,262.6689453 
	126.3253326,262.6689453 125.3133926,262.7121277 124.3014679,262.7981567 123.2895279,262.9266052 122.2775879,263.0966187 
	121.2656479,263.307251 120.2537231,263.5572205 119.2417603,263.8450928 118.2298203,264.1691284 117.2179031,264.5274658 
	116.2059631,264.9181213 115.1940231,265.3388062 114.1820755,265.787262 113.1701584,266.2610168 112.1582184,266.7575378 
	111.1462555,267.2742004 110.1343384,267.8083801 109.1223907,268.3574219 108.1104507,268.9186401 107.0985107,269.4893494 
	106.0865936,270.0669861 105.0746536,270.6489868 104.0626907,271.2328796 103.050766,271.8162842 102.038826,272.3969116 
	101.026886,272.9726563 100.014946,273.5414429 99.0030212,274.1014099 97.9910812,274.6508789 96.9791183,275.1882019 
	95.9672012,275.7120361 94.9552612,276.2210693 93.9433212,276.7142639 92.9313736,277.1906433 91.9194565,277.6494751 
	90.9075165,278.0900879 89.8955536,278.5120239 88.8836365,278.914978 87.8716888,279.2987366 86.8597488,279.663208 
	85.8478088,280.0084534 84.8358917,280.3346252 83.8239517,280.6419678 82.8119888,280.9308472 81.8000641,281.2016296 
	80.7881241,281.4548645 79.7761841,281.69104 78.7642441,281.9108276 77.7523193,282.1147766 76.7403793,282.3036499 
	75.7284164,282.4780579 74.7164993,282.6387939 73.7045593,282.7865295 72.6926193,282.9219971 71.6806717,283.045929 
	70.6687546,283.1590576 69.6568146,283.2620544 68.6448746,283.3556213 67.6329346,283.4404297 66.6209869,283.5170898 
	65.6090469,283.5862732 64.5971069,283.6485291 63.5851898,283.7044678 62.573246,283.7545471 61.561306,283.7993469 
	60.549366,283.8392944 59.5374222,283.8748474 58.5254822,283.9064331 57.5135422,283.9343872 56.5016212,283.9591064 
	55.4896812,283.9809265 54.4777374,284.0001221 53.4657974,284.0169678 52.4538574,284.0317383 51.4419136,284.0446472 
	50.4299736,284.0559082 49.4180527,284.0657349 48.4061127,284.0742493 47.3941498,284.081604 46.3822289,284.0880127 "/>
<g id="XMLID_31_">
	<g id="XMLID_50_">
		<g id="XMLID_51_">
			<polygon id="XMLID_52_" class="st1" points="49.7229156,255.9452515 49.7229156,253.5132141 38.2823143,256.5766907 
				49.7229156,259.6454468 49.7229156,257.2132263 87.9503784,257.2132263 87.9503784,255.9452515 			"/>
		</g>
	</g>
</g>
<g id="XMLID_19_">
	<g id="XMLID_27_">
		<path id="XMLID_34_" class="st2" d="M65.9326172,244.734375l-1.8066406-4.2128906
			c-0.2177734-0.5068359-0.3881836-0.828125-0.5102539-0.9638672c-0.0878906-0.1005859-0.2177734-0.1689453-0.3901367-0.203125
			v-0.2148438h2.8500977v0.2148438c-0.1791992,0-0.3017578,0.0322266-0.3666992,0.0986328
			c-0.0917969,0.0849609-0.1376953,0.1855469-0.1376953,0.3017578c0,0.1435547,0.0839844,0.4121094,0.2524414,0.8076172
			l0.8837891,2.0390625l0.7050781-1.7597656c0.2021484-0.5039063,0.3037109-0.8603516,0.3037109-1.0693359
			c0-0.1201172-0.0429688-0.2177734-0.1289063-0.2929688c-0.0859375-0.0761719-0.2382813-0.1171875-0.4560547-0.125v-0.2148438
			h1.7548828v0.2148438c-0.1679688,0.0224609-0.3056641,0.0869141-0.4130859,0.1914063
			c-0.1064453,0.1044922-0.2675781,0.4121094-0.4814453,0.9238281l-1.7890625,4.2646484H65.9326172z"/>
	</g>
</g>
<g id="XMLID_33_">
</g>
<g id="XMLID_61_">
</g>
<g id="XMLID_62_">
</g>
<g id="XMLID_63_">
</g>
<g id="XMLID_64_">
</g>
<g id="XMLID_65_">
</g>
</svg>
