<?xml version="1.0" encoding="utf-8"?>
<!-- Generator: Adobe Illustrator 19.0.0, SVG Export Plug-In . SVG Version: 6.00 Build 0)  -->
<svg version="1.1" id="Layer_1" xmlns="http://www.w3.org/2000/svg" xmlns:xlink="http://www.w3.org/1999/xlink" x="0px" y="0px"
	 viewBox="0 0 248 99.6666641" style="enable-background:new 0 0 248 99.6666641;" xml:space="preserve">
<style type="text/css">
	.st0{fill:#262626;}
	.st1{fill:none;stroke:#D85527;stroke-linejoin:round;stroke-miterlimit:10;}
	.st2{fill:none;stroke:#000000;stroke-miterlimit:10;}
	.st3{fill:#010101;}
</style>
<g id="XMLID_1_">
	<g id="XMLID_64_">
		<g id="XMLID_65_">
			<polygon id="XMLID_66_" class="st0" points="235.8090363,84.2702408 235.8090363,86.294899 245.3333282,83.7445755 
				235.8090363,81.189827 235.8090363,83.2146683 4.0000024,83.2146683 4.0000024,84.2702408 			"/>
		</g>
	</g>
</g>
<polyline id="XMLID_2_" class="st1" points="108.6620483,83.7423706 108.7415848,83.7423706 108.8211136,83.7423706 
	108.90065,83.7423706 108.9801788,83.7423706 109.0597153,83.7423706 109.1392517,83.7423706 109.2187805,83.7423706 
	109.2983093,83.7423706 109.3778458,83.7423706 109.4573822,83.7423706 109.536911,83.7423706 109.6164474,83.7423706 
	109.6959763,83.7423706 109.7755127,83.7423706 109.8550415,83.7423706 109.9345779,83.7423706 110.0141068,83.7423706 
	110.0936432,83.7423706 110.173172,83.7423706 110.2527084,83.7423706 110.3322372,83.7423706 110.4117661,83.7423706 
	110.4913025,83.7423706 110.5708389,83.7423706 110.6503677,83.7423706 110.7299042,83.7423706 110.809433,83.7423706 
	110.8889694,83.7423477 110.9684982,83.7423477 111.0480347,83.7423477 111.1275635,83.7423172 111.2070999,83.7422943 
	111.2866287,83.7422943 111.3661652,83.7422714 111.445694,83.742218 111.5252304,83.7421951 111.6047592,83.7421417 
	111.6842957,83.7420959 111.7638245,83.7420197 111.8433609,83.7419205 111.9228897,83.7418213 112.0024261,83.7416916 
	112.081955,83.7415161 112.1614914,83.7413177 112.2410202,83.741066 112.3205566,83.7407455 112.4000854,83.7403717 
	112.4796219,83.7399216 112.5591507,83.7393723 112.6386871,83.7386932 112.7182159,83.7378693 112.7977524,83.7368927 
	112.8772812,83.7356949 112.9568176,83.7342682 113.0363464,83.7325668 113.1158829,83.730545 113.1954117,83.7280884 
	113.2749481,83.7251892 113.3544769,83.7217407 113.4340134,83.7176132 113.5135422,83.7127609 113.5930786,83.7070313 
	113.6726074,83.7002563 113.7521439,83.6923065 113.8316727,83.6829529 113.9112091,83.6719971 113.9907379,83.6591949 
	114.0702744,83.6442642 114.1498032,83.6268845 114.2293396,83.6067047 114.3088684,83.5832977 114.3884048,83.5562439 
	114.4679337,83.525032 114.5474701,83.4890976 114.6269989,83.4478073 114.7065353,83.4004669 114.7860641,83.3463516 
	114.8656006,83.2845612 114.945137,83.2142181 115.0246658,83.1342697 115.1042023,83.0436401 115.1837311,82.9411087 
	115.2632599,82.8254013 115.3427963,82.6950607 115.4223251,82.548645 115.5018616,82.3844681 115.581398,82.2008209 
	115.6609268,81.9958572 115.7404633,81.7676392 115.8199921,81.5140686 115.8995285,81.2330093 115.9790573,80.9221649 
	116.0585938,80.579216 116.1381226,80.201683 116.217659,79.787056 116.2971878,79.3327789 116.3767242,78.8362045 
	116.4562531,78.2946701 116.5357895,77.7055511 116.6153183,77.066185 116.6948547,76.3739548 116.7743835,75.6263123 
	116.85392,74.820755 116.9334488,73.9549942 117.0129852,73.026825 117.092514,72.0342102 117.1720505,70.9753952 
	117.2515793,69.8488159 117.3311157,68.653244 117.4106445,67.3877487 117.490181,66.0517807 117.5697098,64.6451645 
	117.6492462,63.1681824 117.728775,61.6215286 117.8083115,60.0064545 117.8878403,58.3246841 117.9673767,56.5785217 
	118.0469055,54.7707672 118.126442,52.9048691 118.2059708,50.9848061 118.2855072,49.0152016 118.365036,47.0012131 
	118.4445724,44.9486084 118.5241013,42.8637238 118.6036377,40.7534294 118.6831665,38.6251297 118.7627029,36.486702 
	118.8422318,34.3464737 118.9217682,32.2131729 119.001297,30.09585 119.0808334,28.0038605 119.1603622,25.9467831 
	119.2398987,23.9343166 119.3194275,21.9762669 119.3989639,20.0824108 119.4784927,18.2624512 119.5580292,16.5259418 
	119.637558,14.8821602 119.7170944,13.3400822 119.7966232,11.9082375 119.8761597,10.594677 119.9556885,9.4069529 
	120.0352249,8.3518438 120.1147614,7.4355745 120.1942902,6.6635227 120.273819,6.0402651 120.3533554,5.5695019 
	120.4328842,5.2540841 120.5124207,5.0958877 120.5919571,5.0958877 120.6714859,5.2540841 120.7510147,5.5695019 
	120.8305511,6.0402651 120.9100876,6.6635227 120.9896164,7.4355745 121.0691452,8.3518438 121.1486816,9.4069529 
	121.2282181,10.594677 121.3077469,11.9082375 121.3872833,13.3400822 121.4668121,14.8821602 121.5463486,16.5259418 
	121.6258774,18.2624512 121.7054062,20.0824108 121.7849426,21.9762669 121.8644791,23.9343166 121.9440079,25.9467831 
	122.0235443,28.0038605 122.1030731,30.09585 122.1826019,32.2131729 122.2621384,34.3464737 122.3416748,36.486702 
	122.4212036,38.6251297 122.5007401,40.7534294 122.5802689,42.8637238 122.6598053,44.9486084 122.7393341,47.0012131 
	122.8188705,49.0152016 122.8983994,50.9848061 122.9779358,52.9048691 123.0574646,54.7707672 123.137001,56.5785217 
	123.2165298,58.3246841 123.2960663,60.0064545 123.3755951,61.6215286 123.4551315,63.1681824 123.5346603,64.6451645 
	123.6141968,66.0517807 123.6937256,67.3877487 123.773262,68.653244 123.8527908,69.8488159 123.9323273,70.9753952 
	124.0118561,72.0342102 124.0913925,73.026825 124.1709213,73.9549942 124.2504578,74.820755 124.3299866,75.6263123 
	124.409523,76.3739548 124.4890518,77.066185 124.5685883,77.7055511 124.6481171,78.2946701 124.7276535,78.8362045 
	124.8071823,79.3327789 124.8867188,79.787056 124.9662476,80.201683 125.045784,80.579216 125.1253128,80.9221649 
	125.2048492,81.2330093 125.2843781,81.5140686 125.3639145,81.7676392 125.4434509,81.9958572 125.5229797,82.2008209 
	125.6025085,82.3844681 125.682045,82.548645 125.7615738,82.6950607 125.8411102,82.8254013 125.9206467,82.9411087 
	126.0001755,83.0436401 126.0797043,83.1342697 126.1592407,83.2142181 126.2387695,83.2845612 126.318306,83.3463516 
	126.3978424,83.4004669 126.4773712,83.4478073 126.5569077,83.4890976 126.6364365,83.525032 126.7159653,83.5562439 
	126.7955017,83.5832977 126.8750381,83.6067047 126.954567,83.6268845 127.0340958,83.6442642 127.1136322,83.6591949 
	127.1931686,83.6719971 127.2726974,83.6829529 127.3522339,83.6923065 127.4317627,83.7002563 127.5112991,83.7070313 
	127.5908279,83.7127609 127.6703644,83.7176132 127.7498932,83.7217407 127.8294296,83.7251892 127.9089584,83.7280884 
	127.9884949,83.730545 128.0680237,83.7325668 128.1475525,83.7342682 128.2270966,83.7356949 128.3066254,83.7368927 
	128.3861542,83.7378693 128.465683,83.7386932 128.5452271,83.7393723 128.6247559,83.7399216 128.7042847,83.7403717 
	128.7838135,83.7407455 128.8633575,83.741066 128.9428864,83.7413177 129.0224152,83.7415161 129.101944,83.7416916 
	129.181488,83.7418213 129.2610168,83.7419205 129.3405457,83.7420197 129.4200745,83.7420959 129.4996185,83.7421417 
	129.5791473,83.7421951 129.6586761,83.742218 129.738205,83.7422714 129.817749,83.7422943 129.8972778,83.7422943 
	129.9768066,83.7423172 130.0563354,83.7423477 130.1358795,83.7423477 130.2154083,83.7423477 130.2949371,83.7423706 
	130.3744659,83.7423706 130.45401,83.7423706 130.5335388,83.7423706 130.6130676,83.7423706 130.6926117,83.7423706 
	130.7721405,83.7423706 130.8516693,83.7423706 130.9311981,83.7423706 131.0107422,83.7423706 131.090271,83.7423706 
	131.1697998,83.7423706 131.2493286,83.7423706 131.3288727,83.7423706 131.4084015,83.7423706 131.4879303,83.7423706 
	131.5674591,83.7423706 131.6469879,83.7423706 131.726532,83.7423706 131.8060608,83.7423706 131.8855896,83.7423706 
	131.9651184,83.7423706 132.0446625,83.7423706 132.1241913,83.7423706 132.2037201,83.7423706 132.2832642,83.7423706 
	132.362793,83.7423706 132.4423218,83.7423706 "/>
<line id="XMLID_3_" class="st1" x1="132.4423218" y1="83.7423706" x2="199.8313446" y2="83.7423706"/>
<line id="XMLID_4_" class="st1" x1="110.0141068" y1="83.7423706" x2="45.4701653" y2="83.7423706"/>
<line id="XMLID_18_" class="st2" x1="120.5521851" y1="86.3333359" x2="120.5521851" y2="80.3333359"/>
<g id="XMLID_19_">
	<path id="XMLID_13_" d="M123.3873672,93.3517227c0,2.6508789-0.9833984,4.1137695-2.7104492,4.1137695
		c-1.5229492,0-2.5546875-1.4272461-2.5786133-4.0058594c0-2.6142578,1.1274414-4.0537109,2.7104492-4.0537109
		C122.4518204,89.4059219,123.3873672,90.8693008,123.3873672,93.3517227z M119.1539688,93.4718399
		c0,2.0268555,0.6235352,3.1782227,1.5830078,3.1782227c1.0795898,0,1.5952148-1.2592773,1.5952148-3.2504883
		c0-1.9189453-0.4916992-3.1782227-1.5830078-3.1782227C119.8253555,90.2213516,119.1539688,91.348793,119.1539688,93.4718399z"/>
</g>
<g id="XMLID_6_" transform="matrix(1 0 0 -1 0 0)">
	<g id="XMLID_10_">
		<path id="E1-MJMATHI-3B4" class="st3" d="M134.8448792-13.5599756c0,0.3808384,0.1296539,0.6928024,0.3889465,0.9358912
			s0.5631561,0.3686848,0.9115753,0.3767881c0.1377563-0.0081034,0.3362732-0.0405149,0.5955811-0.0972357
			c0.2592926-0.0567207,0.4861755-0.1053391,0.6806488-0.145853c0.194458-0.0405149,0.2998047-0.0688763,0.3160095-0.0850811
			c0.1458588-0.0648241,0.2187805-0.1782656,0.2187805-0.3403244c0-0.145853-0.0526733-0.2836037-0.1580048-0.4132509
			c-0.1053467-0.1296482-0.2471466-0.1944714-0.425415-0.1944714c-0.1701508,0-0.3929901,0.1174936-0.6684875,0.352479
			s-0.5185852,0.3565302-0.7292633,0.3646326c-0.2106781,0.0081034-0.3686829-0.0486174-0.4740295-0.1701622
			c-0.1053314-0.1215439-0.1620636-0.2390375-0.170166-0.352478c0-0.3565302,0.4011078-1.0250244,1.2032928-2.0054827
			c0.5429077-0.6806488,0.8143463-1.3734512,0.8143463-2.0784092c0-0.996664-0.2471313-1.8555775-0.7414246-2.5767403
			c-0.494278-0.7211628-1.0412292-1.0857964-1.6408386-1.0938988h-0.085083c-0.5753174,0-1.0412292,0.186367-1.3977661,0.559103
			c-0.3565216,0.372736-0.5469513,0.8467598-0.5712585,1.4220695c0,1.0776939,0.4659271,2.0054817,1.3977661,2.7833672
			c0.3241119,0.2511902,0.7333221,0.4618683,1.2276001,0.6320305c0,0.0081024-0.0283661,0.0688744-0.085083,0.1823158
			s-0.1174927,0.2430887-0.182312,0.3889427c-0.0648346,0.145853-0.1296539,0.3079119-0.1944733,0.4861774
			c-0.0648346,0.1782646-0.1174927,0.3605814-0.1580048,0.5469494
			C134.8772888-13.8962488,134.8529816-13.7220345,134.8448792-13.5599756z M133.8360596-19.3819523
			c0-0.3808384,0.0972443-0.6847,0.2917175-0.911581c0.194458-0.2268829,0.4699707-0.3403244,0.8264923-0.3403244
			c0.2349854,0,0.4456635,0.0972347,0.6320343,0.2917061s0.3281708,0.4375591,0.4253998,0.7292652
			c0.0972443,0.291708,0.170166,0.5631561,0.2187805,0.8143482c0.0486298,0.2511921,0.0769806,0.4699707,0.085083,0.6563396
			c0,0.2836037-0.0283508,0.5510006-0.085083,0.8021927c-0.0567169,0.2511921-0.1134338,0.4375591-0.1701508,0.5591049
			c-0.0567322,0.1215439-0.1620636,0.3484268-0.3160248,0.6806469l-0.1215363-0.0486164
			c-0.3565369-0.1215458-0.664444-0.3403244-0.9237366-0.6563396c-0.2593079-0.3160152-0.4456635-0.664444-0.5591125-1.0452824
			c-0.1134338-0.3808384-0.1904144-0.6928024-0.2309265-0.9358921
			C133.8684692-19.0294724,133.844162-19.2279949,133.8360596-19.3819523z"/>
	</g>
	<g id="XMLID_9_">
		<path id="E1-MJMAIN-28" class="st3" d="M139.098938-17.923418c0,0.559103,0.0405121,1.0898476,0.1215363,1.5922298
			c0.0810394,0.5023842,0.1742249,0.9358921,0.2795563,1.3005257c0.1053467,0.3646326,0.255249,0.7211628,0.4497223,1.0695906
			c0.194458,0.3484268,0.3484192,0.6198759,0.4618683,0.8143473c0.1134338,0.1944704,0.2835999,0.4051476,0.5104828,0.6320305
			s0.3605804,0.3646326,0.4010925,0.4132509c0.0405121,0.0486174,0.1417999,0.1336985,0.3038635,0.2552433h0.1580048h0.0486145
			c0.1134491,0,0.170166-0.0364637,0.170166-0.1093903c0-0.0243092-0.0688782-0.1093903-0.2066193-0.2552433
			c-0.1377563-0.145853-0.3038635-0.3605814-0.4983368-0.6441851s-0.3929901-0.6320305-0.5955658-1.0452814
			s-0.3727417-0.9723549-0.5104828-1.6773129c-0.1377563-0.704957-0.2066345-1.4868917-0.2066345-2.3458052
			c0-0.8589153,0.0688782-1.6367989,0.2066345-2.3336525c0.1377411-0.6968555,0.3038635-1.2600098,0.4983215-1.6894665
			c0.1944733-0.4294567,0.3930054-0.7778854,0.5955658-1.0452824c0.2025757-0.2673969,0.3727417-0.4821262,0.510498-0.644186
			c0.1377411-0.1620579,0.2066193-0.247139,0.2066193-0.2552414c0-0.0729275-0.0607758-0.1093903-0.182312-0.1093903h-0.0364685
			h-0.1580048l-0.340332,0.2917061c-0.761673,0.6887512-1.3167267,1.5476646-1.6651459,2.5767403
			C139.2731476-20.1031151,139.098938-19.0335236,139.098938-17.923418z"/>
	</g>
	<g id="XMLID_8_">
		<path id="E1-MJMATHI-78" class="st3" d="M143.3286743-17.4493961c0.0567322,0.3403244,0.2755127,0.7333183,0.6563416,1.1789799
			c0.3808441,0.4456635,0.8508148,0.6725464,1.4099121,0.6806488c0.2836151,0,0.5429077-0.0729265,0.7778931-0.2187796
			s0.4091949-0.3281698,0.522644-0.5469503c0.3403168,0.5104876,0.7495117,0.7657299,1.2276001,0.7657299
			c0.2998047,0,0.5590973-0.0891323,0.7778778-0.2673969s0.3322144-0.4173031,0.3403168-0.7171116
			c0-0.2349873-0.0567169-0.4254055-0.1701508-0.5712585c-0.1134491-0.145853-0.2228394-0.2349873-0.3281708-0.2673988
			c-0.1053467-0.0324116-0.1985321-0.0486164-0.2795563-0.0486164c-0.1539612,0-0.2795563,0.0445652-0.3767853,0.1336975
			c-0.0972443,0.0891342-0.1458588,0.2066269-0.1458588,0.3524799c0,0.372736,0.2025757,0.6279793,0.6077271,0.7657299
			c-0.0891418,0.1053371-0.2511902,0.1580067-0.4861755,0.1580067c-0.1053467,0-0.1823273-0.0081024-0.2309418-0.0243092
			c-0.3079071-0.1296463-0.53479-0.3970451-0.6806488-0.8021927c-0.4861755-1.7907543-0.7292633-2.8360348-0.7292633-3.1358452
			c0-0.2268829,0.0648193-0.3889408,0.1944733-0.4861774c0.1296387-0.0972347,0.2714539-0.145853,0.4253998-0.145853
			c0.2998199,0,0.5955658,0.1336994,0.8872833,0.4010963c0.2917023,0.2673988,0.4902191,0.5955677,0.5955658,0.9845104
			c0.0243073,0.0810299,0.0486145,0.1255951,0.0729218,0.1336975c0.0243073,0.0081043,0.0891266,0.0162067,0.1944733,0.0243092
			h0.0486145c0.1215515,0,0.182312-0.0324116,0.182312-0.0972347c0-0.0081043-0.0081024-0.0526695-0.0243073-0.1336994
			c-0.1296387-0.4618683-0.3808289-0.871067-0.7535706-1.2275982c-0.3727417-0.3565292-0.8062439-0.5347958-1.3005219-0.5347958
			c-0.567215,0-0.9966736,0.2552433-1.2883759,0.7657299c-0.3322144-0.5023823-0.7130585-0.7535744-1.1425171-0.7535744h-0.0729218
			c-0.397049,0-0.6806488,0.1053391-0.8508148,0.3160152s-0.2592926,0.4335079-0.267395,0.6684933
			c0,0.2592945,0.0769806,0.4699726,0.2309418,0.6320305c0.1539459,0.1620598,0.3362579,0.2430897,0.546936,0.2430897
			c0.3484344,0,0.522644-0.1701622,0.522644-0.5104866c0-0.1620598-0.0486145-0.3038616-0.1458435-0.4254055
			c-0.0972443-0.1215439-0.1904297-0.2025738-0.2795563-0.2430878c-0.0891418-0.0405159-0.1417999-0.0607719-0.1580048-0.0607719
			l-0.0364685-0.0121555c0-0.0081024,0.0243073-0.0243092,0.0729218-0.0486183
			c0.0486298-0.0243073,0.1134491-0.0526676,0.1944733-0.0850811c0.0810242-0.0324116,0.1580048-0.0445652,0.2309418-0.0364628
			c0.2917023,0,0.5428925,0.1823177,0.7535706,0.5469494c0.0729218,0.1296482,0.1661072,0.4051495,0.2795563,0.8265018
			c0.1134338,0.4213543,0.2268829,0.8589134,0.3403168,1.3126793c0.1134491,0.4537659,0.1782684,0.7211647,0.1944733,0.8021927
			c0.0405121,0.2187805,0.0607758,0.3767891,0.0607758,0.4740238c0,0.2268829-0.0607758,0.3889427-0.1823273,0.4861774
			c-0.1215363,0.0972347-0.2592926,0.145853-0.4132385,0.145853c-0.3241272,0-0.6279907-0.1296463-0.9115906-0.3889427
			c-0.2835999-0.2592945-0.4821167-0.5915146-0.5955658-0.9966621c-0.0162048-0.0729275-0.0364685-0.1134434-0.0607758-0.1215458
			s-0.0891266-0.0162048-0.1944733-0.0243092h-0.1701508C143.3529968-17.5344772,143.3286743-17.4899101,143.3286743-17.4493961z"/>
	</g>
	<g id="XMLID_7_">
		<path id="E1-MJMAIN-29" class="st3" d="M150.3782501-11.8583546l0.0486145,0.0121546c0.0405273,0,0.0810394,0,0.1215515,0
			h0.1458588l0.3403168-0.291707c0.761673-0.6887512,1.3167267-1.5476646,1.6651611-2.5767403
			c0.3484192-1.0290756,0.522644-2.0986671,0.522644-3.2087708c0-0.5510025-0.0405121-1.0817451-0.1215515-1.5922318
			c-0.0810242-0.5104866-0.1742096-0.9439945-0.2795563-1.3005257c-0.1053314-0.3565292-0.2552338-0.7130604-0.449707-1.0695896
			c-0.1944733-0.3565311-0.3484344-0.6279793-0.4618683-0.8143482c-0.1134491-0.186367-0.2795563-0.3929939-0.4983368-0.619875
			c-0.2187805-0.2268829-0.3484192-0.3605824-0.3889313-0.4010983c-0.0405273-0.040514-0.1337128-0.1174927-0.2795563-0.2309341
			c-0.0243073-0.0243073-0.0405121-0.040514-0.0486145-0.0486164h-0.1458588c-0.0648193,0-0.1093903,0-0.1336975,0
			s-0.0445709,0.0121536-0.0607758,0.0364628s-0.0283508,0.0607719-0.0364685,0.1093903
			c0.0081177,0.0081024,0.0526733,0.0607719,0.1337128,0.1580067c1.2559509,1.3045769,1.8839264,3.2290287,1.8839264,5.7733593
			c0,2.5443277-0.6279755,4.4687805-1.8839264,5.7733564c-0.0810394,0.0972357-0.1255951,0.1499052-0.1337128,0.1580076
			C150.3174744-11.9272299,150.337738-11.8826637,150.3782501-11.8583546z"/>
	</g>
</g>
<g id="XMLID_5_">
</g>
<g id="XMLID_16_">
</g>
<g id="XMLID_17_">
</g>
<g id="XMLID_20_">
</g>
<g id="XMLID_21_">
</g>
<g id="XMLID_22_">
</g>
</svg>
