<?xml version="1.0" encoding="UTF-8" standalone="no"?>
<svg
   xmlns:dc="http://purl.org/dc/elements/1.1/"
   xmlns:cc="http://creativecommons.org/ns#"
   xmlns:rdf="http://www.w3.org/1999/02/22-rdf-syntax-ns#"
   xmlns:svg="http://www.w3.org/2000/svg"
   xmlns="http://www.w3.org/2000/svg"
   viewBox="0 0 726.64001 618.64001"
   height="618.64001"
   width="726.64001"
   xml:space="preserve"
   id="svg2"
   version="1.1"><metadata
     id="metadata8"><rdf:RDF><cc:Work
         rdf:about=""><dc:format>image/svg+xml</dc:format><dc:type
           rdf:resource="http://purl.org/dc/dcmitype/StillImage" /></cc:Work></rdf:RDF></metadata><defs
     id="defs6"><clipPath
       id="clipPath18"
       clipPathUnits="userSpaceOnUse"><path
         style="clip-rule:evenodd"
         id="path16"
         d="M 8.121e-6,3.0518e-5 H 544.98001 V 463.98003 H 8.121e-6 Z" /></clipPath><clipPath
       id="clipPath26"
       clipPathUnits="userSpaceOnUse"><path
         style="clip-rule:evenodd"
         id="path24"
         d="M 8.121e-6,1.8311e-4 H 544.41001 V 461.73018 H 8.121e-6 Z" /></clipPath><clipPath
       id="clipPath36"
       clipPathUnits="userSpaceOnUse"><path
         id="path34"
         d="M 0,0 H 2272.14 V 1934.99 H 0 Z" /></clipPath><clipPath
       id="clipPath52"
       clipPathUnits="userSpaceOnUse"><path
         id="path50"
         d="M 0,0 H 25.838 V 12.606 H 0 Z" /></clipPath><clipPath
       id="clipPath72"
       clipPathUnits="userSpaceOnUse"><path
         id="path70"
         d="M 0,0 H 9.3767 V 12.606 H 0 Z" /></clipPath><clipPath
       id="clipPath88"
       clipPathUnits="userSpaceOnUse"><path
         id="path86"
         d="M 0,0 H 31.324 V 12.606 H 0 Z" /></clipPath><clipPath
       id="clipPath112"
       clipPathUnits="userSpaceOnUse"><path
         id="path110"
         d="M 0,0 H 8.6286 V 12.606 H 0 Z" /></clipPath></defs><g
     transform="matrix(1.3333333,0,0,-1.3333333,0,618.64)"
     id="g10"><g
       id="g12"><g
         clip-path="url(#clipPath18)"
         id="g14" /></g><g
       id="g20"><g
         clip-path="url(#clipPath26)"
         id="g22"><g
           transform="matrix(7.5613,0,0,6.4375,0,-1.7677)"
           id="g28"><g
             transform="scale(0.031688,0.03721)"
             id="g30"><g
               clip-path="url(#clipPath36)"
               id="g32"><path
                 id="path38"
                 style="fill:#ffffff;fill-opacity:1;fill-rule:evenodd;stroke:none"
                 d="M 1841.25,967.49 C 1841.25,484.93 1450.06,93.736 967.5,93.736 484.94,93.736 93.75,484.93 93.75,967.49 c 0,482.56 391.19,873.75 873.75,873.75 482.56,0 873.75,-391.19 873.75,-873.75 z" /><path
                 id="path40"
                 style="fill:none;stroke:#000000;stroke-width:15;stroke-linecap:round;stroke-linejoin:round;stroke-miterlimit:10;stroke-dasharray:none;stroke-opacity:1"
                 d="M 1841.25,967.49 C 1841.25,484.93 1450.06,93.736 967.5,93.736 484.94,93.736 93.75,484.93 93.75,967.49 c 0,482.56 391.19,873.75 873.75,873.75 482.56,0 873.75,-391.19 873.75,-873.75 z" /><path
                 id="path42"
                 style="fill:#0000f0;fill-opacity:1;fill-rule:evenodd;stroke:none"
                 d="m 1626,1582.49 c 0,-19.89 -16.12,-36 -36,-36 -19.88,0 -36,16.11 -36,36 0,19.88 16.12,36 36,36 19.88,0 36,-16.12 36,-36 z" /><g
                 transform="matrix(7.1772,-1.507e-6,-1.507e-6,3.5018,1665.37,1583.92)"
                 id="g44"><g
                   transform="scale(2.7866,5.7114)"
                   id="g46"><g
                     clip-path="url(#clipPath52)"
                     id="g48"><path
                       id="path54"
                       style="fill:#0000f0;fill-opacity:1;fill-rule:evenodd;stroke:none"
                       d="M 3.6424,2.891 C 3.6262,2.8282 3.6181,2.7796 3.6181,2.7457 3.6181,2.7195 3.6235,2.7025 3.6343,2.6947 3.6613,2.6736 3.7206,2.6606 3.8124,2.6554 3.9042,2.65 4.0077,2.6476 4.1235,2.6476 4.1613,2.6476 4.1952,2.6343 4.2246,2.6083 4.2354,2.5872 4.2408,2.5691 4.2408,2.5534 4.2408,2.5377 4.2369,2.5232 4.2288,2.5102 L 4.2165,2.4474 C 4.2087,2.4106 4.189,2.3819 4.1581,2.361 4.1272,2.3399 4.0941,2.3296 4.059,2.3296 3.7788,2.3453 3.4942,2.3532 3.2056,2.3532 2.92,2.3532 2.6303,2.3453 2.3363,2.3296 c -0.0402,0 -0.0699,0.013 -0.0888,0.0393 -0.0162,0.0157 -0.0243,0.0338 -0.0243,0.0549 0,0.0157 0.0042,0.0299 0.012,0.0432 l 0.0123,0.0628 c 0.0162,0.081 0.0672,0.1202 0.1536,0.1178 0.1104,0 0.2137,0.0024 0.3094,0.0078 0.0957,0.0052 0.1678,0.0197 0.2162,0.0432 0.0404,0.0157 0.0755,0.0849 0.1052,0.2081 L 3.3553,4.1708 C 3.2935,4.1104 3.185,4.0331 3.03,3.9389 2.8749,3.8447 2.7071,3.7978 2.5265,3.7978 2.3135,3.7978 2.1349,3.8513 1.9906,3.9586 1.8463,4.0658 1.734,4.2007 1.653,4.3632 1.5561,4.5565 1.5048,4.7646 1.4994,4.9874 v 0.0588 c 0,0.2066 0.0284,0.4132 0.0849,0.6203 C 1.6491,5.894 1.7394,6.119 1.8552,6.3415 1.9712,6.5638 2.1248,6.7706 2.3162,6.962 2.4727,7.1188 2.6514,7.2508 2.8521,7.3583 3.0528,7.4655 3.2569,7.5192 3.4645,7.5195 3.6588,7.5192 3.8144,7.4643 3.9317,7.3544 4.0489,7.2444 4.1277,7.1411 4.1682,7.0445 4.2033,7.094 4.2592,7.1605 4.336,7.2444 4.4128,7.3281 4.497,7.4066 4.5885,7.4802 4.6263,7.5114 4.6628,7.5271 4.6977,7.5273 4.7384,7.5271 4.7666,7.5062 4.7826,7.4645 4.7909,7.4486 4.7948,7.4329 4.7948,7.4174 V 7.3899 Z M 3.9699,6.5263 C 3.9591,6.5731 3.9498,6.6222 3.9417,6.6732 3.9336,6.7243 3.9213,6.7746 3.9052,6.8246 3.8622,6.9473 3.8009,7.0501 3.7214,7.1325 3.6419,7.215 3.5413,7.2562 3.4201,7.2565 3.307,7.2562 3.1951,7.2155 3.0844,7.1345 2.974,7.0533 2.8729,6.9488 2.7812,6.8207 2.6518,6.6399 2.5549,6.4519 2.4902,6.2571 2.4254,6.062 2.366,5.8586 2.312,5.6469 2.2583,5.4373 2.2139,5.2344 2.1785,5.0384 2.1572,4.9388 2.1464,4.8446 2.1464,4.7557 2.1464,4.6613 2.1572,4.5697 2.1785,4.4809 2.2031,4.3578 2.2468,4.2562 2.3101,4.1764 2.3734,4.0964 2.4617,4.0567 2.5748,4.0569 2.699,4.0567 2.8236,4.0999 2.949,4.1862 3.0744,4.2726 3.1909,4.3786 3.2986,4.5045 3.3418,4.5565 3.383,4.6068 3.422,4.6554 3.4613,4.7037 3.4956,4.7555 3.5251,4.8107 Z" /><path
                       id="path56"
                       style="fill:none;stroke:#0000f0;stroke-width:0.32159999;stroke-linecap:round;stroke-linejoin:round;stroke-miterlimit:10;stroke-dasharray:none;stroke-opacity:1"
                       d="m 7.127,7.1474 h 5.628" /><path
                       id="path58"
                       style="fill:none;stroke:#0000f0;stroke-width:0.32159999;stroke-linecap:round;stroke-linejoin:round;stroke-miterlimit:10;stroke-dasharray:none;stroke-opacity:1"
                       d="m 7.127,5.459 h 5.628" /><path
                       id="path60"
                       style="fill:none;stroke:#0000f0;stroke-width:0.32159999;stroke-linecap:round;stroke-linejoin:round;stroke-miterlimit:10;stroke-dasharray:none;stroke-opacity:1"
                       d="m 15.489,6.3032 h 3.489" /><path
                       id="path62"
                       style="fill:#0000f0;fill-opacity:1;fill-rule:evenodd;stroke:none"
                       d="m 24.309,4.846 c 0.019,-0.0186 0.028,-0.0383 0.028,-0.0589 0,-0.0238 -0.01,-0.05 -0.032,-0.0785 C 24.092,4.4127 23.821,4.1867 23.491,4.0312 23.16,3.8756 22.829,3.7978 22.498,3.7978 c -0.24,0 -0.444,0.0602 -0.613,0.1804 -0.168,0.1202 -0.301,0.2682 -0.398,0.4438 -0.108,0.2118 -0.165,0.4422 -0.17,0.691 -0.005,0.026 -0.008,0.0547 -0.008,0.0863 0,0.2223 0.03,0.45 0.089,0.6831 0.057,0.2145 0.15,0.4211 0.279,0.6201 0.13,0.1987 0.294,0.3768 0.493,0.5341 0.186,0.1516 0.39,0.2699 0.611,0.355 0.221,0.0849 0.439,0.1276 0.655,0.1279 0.132,-3e-4 0.256,-0.0233 0.372,-0.069 0.116,-0.0458 0.212,-0.1079 0.287,-0.1864 0.076,-0.0786 0.128,-0.1728 0.158,-0.2825 0.01,-0.05 0.016,-0.1035 0.016,-0.1609 0,-0.0631 -0.008,-0.1298 -0.025,-0.2002 C 24.193,6.4055 24.088,6.2387 23.927,6.1197 23.767,6.0004 23.583,5.9136 23.375,5.8586 23.168,5.8037 22.948,5.7708 22.716,5.7605 22.485,5.7499 22.277,5.7448 22.093,5.745 22.037,5.5406 21.998,5.3353 21.976,5.1287 21.965,5.0578 21.96,4.9898 21.96,4.9245 c 0,-0.131 0.016,-0.2554 0.049,-0.3729 0.04,-0.1443 0.104,-0.2628 0.192,-0.3555 0.087,-0.093 0.201,-0.1394 0.341,-0.1392 0.286,-2e-4 0.565,0.0729 0.837,0.2196 0.273,0.1465 0.499,0.3455 0.68,0.597 0.021,0.0363 0.052,0.0586 0.093,0.0667 h 0.02 C 24.204,4.94 24.23,4.9309 24.249,4.9128 Z m -0.448,1.7902 c 0.016,0.0625 0.024,0.1187 0.024,0.1688 0,0.1045 -0.031,0.196 -0.093,0.2748 C 23.7,7.1973 23.565,7.2562 23.387,7.2565 23.25,7.2562 23.112,7.2214 22.973,7.1522 22.834,7.0827 22.711,6.988 22.603,6.8678 22.482,6.7392 22.387,6.5972 22.318,6.4416 22.249,6.2858 22.195,6.1386 22.154,6.0002 c 0.175,-2e-4 0.362,0.0076 0.56,0.0233 0.198,0.0157 0.376,0.0456 0.532,0.0903 0.156,0.0444 0.288,0.1092 0.396,0.1943 0.108,0.0849 0.181,0.1944 0.219,0.3281 z" /></g></g></g><g
                 transform="matrix(2.6046,0,-1.507e-6,3.5018,1488.73,1313.92)"
                 id="g64"><g
                   transform="scale(7.6786,5.7114)"
                   id="g66"><g
                     clip-path="url(#clipPath72)"
                     id="g68"><path
                       id="path74"
                       style="fill:#000000;fill-opacity:1;fill-rule:evenodd;stroke:none"
                       d="M 7.8648,5.0737 C 7.8324,4.9348 7.7841,4.7901 7.7193,4.6397 7.6545,4.489 7.577,4.3524 7.4867,4.2294 7.3964,4.1063 7.2907,4.0037 7.1694,3.9215 7.0482,3.8391 6.9079,3.7978 6.7486,3.7978 6.6139,3.7978 6.4981,3.8265 6.401,3.8842 6.3041,3.9416 6.2307,4.0174 6.1806,4.1117 6.1308,4.2059 6.1031,4.3158 6.0977,4.4417 v 0.0314 c 0,0.1123 0.0231,0.2262 0.0687,0.3415 C 6.2555,5.0448 6.3377,5.2737 6.4132,5.5014 6.4888,5.7291 6.5575,5.958 6.6193,6.1886 6.6625,6.3403 6.6922,6.488 6.7084,6.6323 6.7138,6.6686 6.7165,6.7078 6.7165,6.75 6.7165,6.8413 6.703,6.9277 6.676,7.0091 6.6274,7.1738 6.5251,7.2562 6.3686,7.2565 6.0938,7.2562 5.8565,7.1613 5.657,6.9716 5.4576,6.7817 5.2836,6.5299 5.1354,6.2161 5.052,5.8599 4.9629,5.5046 4.8684,5.15 4.7742,4.7952 4.6812,4.4414 4.5895,4.0883 4.5654,3.9912 4.5156,3.9188 4.44,3.8705 4.3645,3.8219 4.2904,3.7978 4.2175,3.7978 c -0.078,0 -0.1428,0.026 -0.1941,0.0786 -0.0348,0.0338 -0.0537,0.0809 -0.0567,0.1413 0,0.0284 0.0027,0.0574 0.0081,0.0863 L 4.5166,6.1886 C 4.5598,6.3403 4.5895,6.488 4.6057,6.6323 V 6.75 c 0,0.094 -0.0108,0.1804 -0.0324,0.2591 C 4.5249,7.1738 4.4226,7.2562 4.2661,7.2565 3.9913,7.2562 3.754,7.1613 3.5545,6.9716 3.3551,6.7817 3.1799,6.5299 3.0287,6.2161 L 2.4747,4.0883 C 2.4507,3.9912 2.4013,3.9188 2.3272,3.8705 2.2531,3.8219 2.1783,3.7978 2.1027,3.7978 c -0.0807,0 -0.1428,0.026 -0.186,0.0786 -0.0348,0.0338 -0.0525,0.0809 -0.0525,0.1413 0,0.0233 0.0027,0.052 0.0081,0.0863 L 2.4948,6.5341 C 2.538,6.7039 2.5596,6.8506 2.5596,6.9738 V 7.068 C 2.5463,7.1934 2.483,7.2562 2.3697,7.2565 2.2509,7.2562 2.1518,7.1605 2.0723,6.9696 1.9928,6.7785 1.9155,6.5299 1.8399,6.224 1.8103,6.1531 1.7605,6.1165 1.6903,6.1141 H 1.5973 C 1.5325,6.1138 1.5001,6.1464 1.5001,6.2122 V 6.2397 C 1.5325,6.3624 1.5691,6.4966 1.6096,6.6418 1.65,6.7871 1.704,6.9245 1.7712,7.054 1.8387,7.1836 1.9236,7.2935 2.0259,7.3838 2.1285,7.4741 2.2563,7.5192 2.4099,7.5195 2.6312,7.5192 2.8052,7.4525 2.9318,7.319 3.0584,7.1855 3.1244,7.056 3.1298,6.9306 3.2432,7.0795 3.4007,7.215 3.6029,7.3367 3.805,7.4584 4.0396,7.5192 4.3063,7.5195 4.471,7.5192 4.6221,7.4898 4.7595,7.4309 4.8969,7.372 5.0034,7.2771 5.0787,7.1465 5.1435,7.0337 5.1786,6.9394 5.184,6.8639 5.3027,7.0312 5.4671,7.1821 5.6774,7.3171 5.8877,7.4518 6.1343,7.5192 6.4172,7.5195 6.5762,7.5192 6.7246,7.4898 6.862,7.4309 6.9994,7.372 7.1074,7.2771 7.1854,7.1465 7.2664,7.0128 7.3056,6.8624 7.3027,6.6951 V 6.6754 C 7.2973,6.5076 7.2732,6.3388 7.23,6.169 7.168,5.9305 7.0966,5.6962 7.0156,5.4661 6.9349,5.2357 6.85,5.0028 6.7609,4.7675 6.6799,4.5553 6.6395,4.3774 6.6395,4.2336 c 0,-0.118 0.0512,-0.1769 0.1538,-0.1767 0.0918,-2e-4 0.1745,0.0273 0.2486,0.0822 0.0741,0.055 0.1415,0.1289 0.2021,0.2218 0.0609,0.0928 0.1154,0.2027 0.1639,0.3298 0.0486,0.1269 0.0916,0.2611 0.1293,0.4026 0.0162,0.0678 0.0636,0.1019 0.1416,0.1021 h 0.0888 c 0.03,-2e-4 0.0609,-0.0093 0.093,-0.0275 0.0108,-0.0238 0.0162,-0.0434 0.0162,-0.0588 0,-0.0108 -0.0039,-0.0226 -0.012,-0.0354 z" /></g></g></g><path
                 id="path76"
                 style="fill:#f00000;fill-opacity:1;fill-rule:evenodd;stroke:none"
                 d="m 1040.72,967.49 c 0,-40.44 -32.78,-73.22 -73.22,-73.22 -40.43,0 -73.21,32.78 -73.21,73.22 0,40.43 32.78,73.21 73.21,73.21 40.44,0 73.22,-32.78 73.22,-73.21 z" /><path
                 id="path78"
                 style="fill:none;stroke:#f00000;stroke-width:15;stroke-linecap:round;stroke-linejoin:round;stroke-miterlimit:10;stroke-dasharray:none;stroke-opacity:1"
                 d="m 1040.72,967.49 c 0,-40.44 -32.78,-73.22 -73.22,-73.22 -40.43,0 -73.21,32.78 -73.21,73.22 0,40.43 32.78,73.21 73.21,73.21 40.44,0 73.22,-32.78 73.22,-73.21 z" /><g
                 transform="matrix(8.7011,0,-3.77e-7,3.5018,454.26,1028.21)"
                 id="g80"><g
                   transform="scale(2.2986,5.7114)"
                   id="g82"><g
                     clip-path="url(#clipPath88)"
                     id="g84"><path
                       id="path90"
                       style="fill:#ff0000;fill-opacity:1;fill-rule:evenodd;stroke:none"
                       d="M 3.6424,2.891 C 3.6262,2.8282 3.6181,2.7796 3.6181,2.7457 3.6181,2.7195 3.6235,2.7025 3.6343,2.6947 3.6613,2.6736 3.7206,2.6606 3.8124,2.6554 3.9042,2.65 4.0077,2.6476 4.1235,2.6476 4.1613,2.6476 4.1952,2.6343 4.2246,2.6083 4.2354,2.5872 4.2408,2.5691 4.2408,2.5534 4.2408,2.5377 4.2369,2.5232 4.2288,2.5102 L 4.2165,2.4474 C 4.2087,2.4106 4.189,2.3819 4.1581,2.361 4.1272,2.3399 4.0941,2.3296 4.059,2.3296 3.7788,2.3453 3.4942,2.3532 3.2056,2.3532 2.92,2.3532 2.6303,2.3453 2.3363,2.3296 c -0.0402,0 -0.0699,0.013 -0.0888,0.0393 -0.0162,0.0157 -0.0243,0.0338 -0.0243,0.0549 0,0.0157 0.0042,0.0299 0.012,0.0432 l 0.0123,0.0628 c 0.0162,0.081 0.0672,0.1202 0.1536,0.1178 0.1104,0 0.2137,0.0024 0.3094,0.0078 0.0957,0.0052 0.1678,0.0197 0.2162,0.0432 0.0404,0.0157 0.0755,0.0849 0.1052,0.2081 L 3.3553,4.1708 C 3.2935,4.1104 3.185,4.0331 3.03,3.9389 2.8749,3.8447 2.7071,3.7978 2.5265,3.7978 2.3135,3.7978 2.1349,3.8513 1.9906,3.9586 1.8463,4.0658 1.734,4.2007 1.653,4.3632 1.5561,4.5565 1.5048,4.7646 1.4994,4.9874 v 0.0588 c 0,0.2066 0.0284,0.4132 0.0849,0.6203 C 1.6491,5.894 1.7394,6.119 1.8552,6.3415 1.9712,6.5638 2.1248,6.7706 2.3162,6.962 2.4727,7.1188 2.6514,7.2508 2.8521,7.3583 3.0528,7.4655 3.2569,7.5192 3.4645,7.5195 3.6588,7.5192 3.8144,7.4643 3.9317,7.3544 4.0489,7.2444 4.1277,7.1411 4.1682,7.0445 4.2033,7.094 4.2592,7.1605 4.336,7.2444 4.4128,7.3281 4.497,7.4066 4.5885,7.4802 4.6263,7.5114 4.6628,7.5271 4.6977,7.5273 4.7384,7.5271 4.7666,7.5062 4.7826,7.4645 4.7909,7.4486 4.7948,7.4329 4.7948,7.4174 V 7.3899 Z M 3.9699,6.5263 C 3.9591,6.5731 3.9498,6.6222 3.9417,6.6732 3.9336,6.7243 3.9213,6.7746 3.9052,6.8246 3.8622,6.9473 3.8009,7.0501 3.7214,7.1325 3.6419,7.215 3.5413,7.2562 3.4201,7.2565 3.307,7.2562 3.1951,7.2155 3.0844,7.1345 2.974,7.0533 2.8729,6.9488 2.7812,6.8207 2.6518,6.6399 2.5549,6.4519 2.4902,6.2571 2.4254,6.062 2.366,5.8586 2.312,5.6469 2.2583,5.4373 2.2139,5.2344 2.1785,5.0384 2.1572,4.9388 2.1464,4.8446 2.1464,4.7557 2.1464,4.6613 2.1572,4.5697 2.1785,4.4809 2.2031,4.3578 2.2468,4.2562 2.3101,4.1764 2.3734,4.0964 2.4617,4.0567 2.5748,4.0569 2.699,4.0567 2.8236,4.0999 2.949,4.1862 3.0744,4.2726 3.1909,4.3786 3.2986,4.5045 3.3418,4.5565 3.383,4.6068 3.422,4.6554 3.4613,4.7037 3.4956,4.7555 3.5251,4.8107 Z" /><path
                       id="path92"
                       style="fill:none;stroke:#ff0000;stroke-width:0.32159999;stroke-linecap:round;stroke-linejoin:round;stroke-miterlimit:10;stroke-dasharray:none;stroke-opacity:1"
                       d="m 7.127,7.1474 h 5.628" /><path
                       id="path94"
                       style="fill:none;stroke:#ff0000;stroke-width:0.32159999;stroke-linecap:round;stroke-linejoin:round;stroke-miterlimit:10;stroke-dasharray:none;stroke-opacity:1"
                       d="m 7.127,5.459 h 5.628" /><path
                       id="path96"
                       style="fill:#ff0000;fill-opacity:1;fill-rule:evenodd;stroke:none"
                       d="m 20.307,9.2507 c 0,-0.0211 -0.012,-0.0434 -0.036,-0.0667 L 16.013,4.2336 h 1.108 c 0.24,-2e-4 0.471,0.0199 0.693,0.0606 0.223,0.0405 0.429,0.1354 0.617,0.2849 0.097,0.0782 0.181,0.169 0.253,0.2726 0.071,0.1033 0.137,0.2164 0.198,0.3395 0.061,0.123 0.114,0.2533 0.16,0.3907 0.046,0.1374 0.09,0.2755 0.133,0.4144 0.03,0.0782 0.082,0.1175 0.158,0.1178 h 0.065 c 0.072,-3e-4 0.111,-0.0356 0.117,-0.106 V 5.9806 C 19.426,5.6376 19.325,5.3056 19.212,4.9851 19.098,4.6645 18.989,4.3381 18.884,4.0059 18.855,3.9274 18.802,3.8881 18.726,3.8881 H 15.2 c -0.075,0 -0.113,0.0339 -0.113,0.1021 v 0.0314 l 0.028,0.0982 0.029,0.0549 4.27,4.9622 h -1.06 C 18.136,9.1367 17.922,9.1175 17.711,9.0797 17.501,9.0417 17.31,8.9534 17.137,8.815 16.959,8.6813 16.822,8.5156 16.725,8.3181 16.628,8.1204 16.544,7.9118 16.474,7.6922 16.458,7.6108 16.405,7.5703 16.316,7.5705 h -0.064 c -0.041,-2e-4 -0.07,0.0128 -0.089,0.0393 -0.017,0.0154 -0.025,0.0338 -0.025,0.0549 0,0.0155 0.003,0.0312 0.008,0.0471 0.073,0.2773 0.154,0.5499 0.241,0.8183 0.088,0.2682 0.173,0.5386 0.257,0.8109 0.021,0.0783 0.073,0.1176 0.153,0.1178 h 3.421 c 0.076,-2e-4 0.114,-0.0356 0.114,-0.106 V 9.3214 Z" /><path
                       id="path98"
                       style="fill:#ff0000;fill-opacity:1;fill-rule:evenodd;stroke:none"
                       d="m 24.059,6.3032 c 0,-0.2735 -0.222,-0.4953 -0.496,-0.4953 -0.273,0 -0.495,0.2218 -0.495,0.4953 0,0.2735 0.222,0.4953 0.495,0.4953 0.274,0 0.496,-0.2218 0.496,-0.4953 z" /><path
                       id="path100"
                       style="fill:#ff0000;fill-opacity:1;fill-rule:evenodd;stroke:none"
                       d="m 29.795,4.846 c 0.019,-0.0186 0.028,-0.0383 0.028,-0.0589 0,-0.0238 -0.01,-0.05 -0.032,-0.0785 C 29.578,4.4127 29.307,4.1867 28.976,4.0312 28.646,3.8756 28.315,3.7978 27.984,3.7978 c -0.24,0 -0.445,0.0602 -0.613,0.1804 -0.168,0.1202 -0.301,0.2682 -0.398,0.4438 -0.108,0.2118 -0.165,0.4422 -0.17,0.691 -0.006,0.026 -0.008,0.0547 -0.008,0.0863 0,0.2223 0.029,0.45 0.089,0.6831 0.057,0.2145 0.15,0.4211 0.279,0.6201 0.129,0.1987 0.294,0.3768 0.493,0.5341 0.186,0.1516 0.39,0.2699 0.611,0.355 0.221,0.0849 0.439,0.1276 0.655,0.1279 0.132,-3e-4 0.256,-0.0233 0.372,-0.069 0.116,-0.0458 0.211,-0.1079 0.287,-0.1864 0.075,-0.0786 0.128,-0.1728 0.157,-0.2825 0.011,-0.05 0.017,-0.1035 0.017,-0.1609 0,-0.0631 -0.009,-0.1298 -0.025,-0.2002 C 29.679,6.4055 29.574,6.2387 29.413,6.1197 29.253,6.0004 29.069,5.9136 28.861,5.8586 28.653,5.8037 28.434,5.7708 28.202,5.7605 27.97,5.7499 27.763,5.7448 27.579,5.745 27.523,5.5406 27.484,5.3353 27.462,5.1287 27.451,5.0578 27.446,4.9898 27.446,4.9245 c 0,-0.131 0.016,-0.2554 0.048,-0.3729 0.041,-0.1443 0.105,-0.2628 0.192,-0.3555 0.088,-0.093 0.202,-0.1394 0.342,-0.1392 0.286,-2e-4 0.565,0.0729 0.837,0.2196 0.272,0.1465 0.499,0.3455 0.679,0.597 0.022,0.0363 0.053,0.0586 0.093,0.0667 h 0.021 C 29.69,4.94 29.716,4.9309 29.734,4.9128 Z m -0.449,1.7902 c 0.016,0.0625 0.025,0.1187 0.025,0.1688 0,0.1045 -0.031,0.196 -0.093,0.2748 C 29.186,7.1973 29.051,7.2562 28.873,7.2565 28.736,7.2562 28.598,7.2214 28.459,7.1522 28.32,7.0827 28.197,6.988 28.089,6.8678 27.968,6.7392 27.872,6.5972 27.804,6.4416 27.735,6.2858 27.68,6.1386 27.64,6.0002 27.815,6 28.002,6.0078 28.2,6.0235 c 0.198,0.0157 0.375,0.0456 0.532,0.0903 0.156,0.0444 0.288,0.1092 0.396,0.1943 0.108,0.0849 0.181,0.1944 0.218,0.3281 z" /></g></g></g><path
                 id="path102"
                 style="fill:#ff8000;fill-opacity:1;fill-rule:nonzero;stroke:none"
                 d="m 1595.22,1576.59 -301.76,-301.87 -10.6,10.61 301.75,301.87 c 2.92,2.93 7.67,2.93 10.6,0 2.93,-2.93 2.93,-7.68 0.01,-10.61 z m -391.81,-381.35 137.87,74.28 -47.73,5.29 -10.61,10.6 -5.31,47.73 z" /><g
                 transform="matrix(2.3968,-1.507e-6,-1.507e-6,3.5018,1109.62,1230.71)"
                 id="g104"><g
                   transform="scale(8.3444,5.7114)"
                   id="g106"><g
                     clip-path="url(#clipPath112)"
                     id="g108"><path
                       id="path114"
                       style="fill:#ff8000;fill-opacity:1;fill-rule:evenodd;stroke:none"
                       d="M 6.9137,7.6804 C 6.9058,7.6461 6.8889,7.6166 6.8634,7.5919 6.8378,7.5668 6.8101,7.5546 6.7804,7.5548 6.775,7.5494 6.7615,7.5467 6.7399,7.547 6.7076,7.5467 6.6914,7.5494 6.6914,7.5548 H 6.6833 c -0.07,-2e-4 -0.1051,0.0285 -0.1051,0.0864 v 0.0275 c 0.0162,0.1226 0.0295,0.247 0.0403,0.3729 0.0108,0.0967 0.0162,0.1855 0.0162,0.267 V 8.3753 C 6.6293,8.4798 6.6173,8.5738 6.5984,8.6577 6.5797,8.7414 6.5473,8.8108 6.5012,8.866 6.3989,8.9862 6.2527,9.0574 6.0627,9.0797 5.8728,9.1018 5.6657,9.1131 5.442,9.1133 H 4.621 C 4.4782,9.1131 4.3948,9.1026 4.3705,9.0819 4.357,9.0711 4.33,8.9941 4.2895,8.8503 L 3.764,6.8285 H 4.3057 C 4.4485,6.8283 4.58,6.8334 4.7,6.844 c 0.12,0.0103 0.223,0.051 0.3092,0.1219 0.0755,0.0599 0.1349,0.1509 0.1781,0.2726 0.0432,0.1217 0.0861,0.256 0.1293,0.4027 0.0081,0.0363 0.0277,0.0657 0.0586,0.0881 0.031,0.022 0.0641,0.0333 0.0992,0.0336 H 5.5389 C 5.5767,7.7626 5.6105,7.7496 5.64,7.7236 5.6508,7.7025 5.6562,7.6829 5.6562,7.6647 5.6562,7.6488 5.6523,7.6343 5.6442,7.6216 L 5.1507,5.6783 C 5.1213,5.5995 5.0685,5.5603 4.993,5.5605 H 4.9284 C 4.8558,5.5603 4.8166,5.5944 4.8112,5.6626 V 5.694 C 4.8543,5.8508 4.8855,5.9909 4.9041,6.1141 4.9095,6.1425 4.9122,6.17 4.9122,6.1965 4.9122,6.2696 4.896,6.3285 4.8637,6.3732 4.818,6.4357 4.7378,6.473 4.6232,6.4848 4.5086,6.4966 4.3813,6.5025 4.2409,6.5027 H 3.6749 L 3.1532,4.4574 C 3.1425,4.4179 3.1371,4.3798 3.1371,4.3435 3.1371,4.3013 3.1478,4.2765 3.1694,4.2689 3.2261,4.2451 3.3279,4.2299 3.4747,4.2235 3.6216,4.2169 3.772,4.2137 3.9256,4.214 4.0012,4.2137 4.0388,4.1823 4.0388,4.1198 4.0388,4.1038 4.0361,4.0869 4.0307,4.0687 L 4.0145,4.0059 C 3.985,3.9274 3.9337,3.8881 3.8609,3.8881 3.4916,3.8984 3.1209,3.9063 2.7489,3.9117 H 2.583 c -0.3207,0 -0.6428,-0.0079 -0.9662,-0.0236 -0.0405,0 -0.0702,0.0118 -0.0891,0.0354 -0.0186,0.0181 -0.0279,0.0378 -0.0282,0.0589 3e-4,0.0154 0.003,0.0311 0.0081,0.0471 l 0.0162,0.0588 c 0.0081,0.0339 0.027,0.0631 0.0567,0.0881 0.0297,0.0248 0.0633,0.0373 0.1008,0.0376 0.1269,-3e-4 0.2456,0.0017 0.356,0.0056 0.1105,0.0039 0.1941,0.0177 0.2506,0.0415 0.0485,0.026 0.0863,0.0967 0.1133,0.212 L 3.5375,8.8699 C 3.5537,8.9274 3.5618,8.973 3.5618,9.0074 3.5618,9.0385 3.5551,9.0569 3.5414,9.0623 3.5036,9.0856 3.4295,9.0999 3.3191,9.1052 3.2087,9.1104 3.0899,9.1131 2.9631,9.1133 2.8878,9.1131 2.85,9.1484 2.85,9.2193 V 9.2468 L 2.8662,9.3136 C 2.8878,9.3997 2.9405,9.4429 3.0239,9.4431 H 7.0147 C 7.0903,9.4429 7.1281,9.4009 7.1281,9.3175 Z" /></g></g></g></g></g></g></g></g></g></svg>