<?xml version="1.0" encoding="utf-8"?>
<!-- Generator: Adobe Illustrator 19.0.0, SVG Export Plug-In . SVG Version: 6.00 Build 0)  -->
<svg version="1.1" id="Layer_1" xmlns="http://www.w3.org/2000/svg" xmlns:xlink="http://www.w3.org/1999/xlink" x="0px" y="0px"
	 viewBox="0 0 234 210" style="enable-background:new 0 0 234 210;" xml:space="preserve">
<style type="text/css">
	.st0{clip-path:url(#SVGID_2_);}
	.st1{clip-path:url(#SVGID_4_);}
	
		.st2{clip-path:url(#SVGID_6_);fill:none;stroke:#000000;stroke-width:1.7978516;stroke-linecap:round;stroke-linejoin:round;stroke-miterlimit:10;}
	
		.st3{clip-path:url(#SVGID_6_);fill:none;stroke:#0000FF;stroke-width:1.7978516;stroke-linecap:round;stroke-linejoin:round;stroke-miterlimit:10;}
	.st4{clip-path:url(#SVGID_6_);}
	.st5{clip-path:url(#SVGID_8_);fill-rule:evenodd;clip-rule:evenodd;fill:#0000FF;}
	.st6{clip-path:url(#SVGID_6_);fill-rule:evenodd;clip-rule:evenodd;fill:#FFFFFF;}
	
		.st7{clip-path:url(#SVGID_6_);fill:none;stroke:#FF8000;stroke-width:1.7978516;stroke-linecap:round;stroke-linejoin:round;stroke-miterlimit:10;}
	.st8{clip-path:url(#SVGID_6_);fill:#E69138;}
	.st9{clip-path:url(#SVGID_10_);fill-rule:evenodd;clip-rule:evenodd;fill:#E69138;}
	.st10{clip-path:url(#SVGID_6_);fill:#0000F0;}
	.st11{clip-path:url(#SVGID_12_);fill-rule:evenodd;clip-rule:evenodd;fill:#0000F0;}
	.st12{clip-path:url(#SVGID_6_);fill:#408080;}
	.st13{clip-path:url(#SVGID_14_);fill-rule:evenodd;clip-rule:evenodd;fill:#408080;}
	.st14{clip-path:url(#SVGID_16_);fill-rule:evenodd;clip-rule:evenodd;fill:#408080;}
	.st15{clip-path:url(#SVGID_18_);fill-rule:evenodd;clip-rule:evenodd;fill:#0000F0;}
</style>
<g>
	<defs>
		<rect id="SVGID_1_" x="0.0000035" width="234" height="210"/>
	</defs>
	<clipPath id="SVGID_2_">
		<use xlink:href="#SVGID_1_"  style="overflow:visible;"/>
	</clipPath>
	<g class="st0">
	</g>
</g>
<g>
	<defs>
		<rect id="SVGID_3_" y="-0.0000305" width="234" height="210"/>
	</defs>
	<clipPath id="SVGID_4_">
		<use xlink:href="#SVGID_3_"  style="overflow:visible;"/>
	</clipPath>
	<g class="st1">
		<defs>
			<rect id="SVGID_5_" y="-0.0011292" width="233.7174988" height="209.7510986"/>
		</defs>
		<clipPath id="SVGID_6_">
			<use xlink:href="#SVGID_5_"  style="overflow:visible;"/>
		</clipPath>
		<line class="st2" x1="14.0962343" y1="73.1971893" x2="221.2956543" y2="198.1490479"/>
		<line class="st2" x1="14.0962343" y1="198.148941" x2="220.8461914" y2="198.148941"/>
		<path class="st3" d="M191.6073914,198.148941c0-5.3216858,1.4514465-10.5426941,4.1997375-15.0996857"/>
		<g class="st4">
			<defs>
				<rect id="SVGID_7_" x="164.1412354" y="167.0836182" width="19.5296783" height="37.7741203"/>
			</defs>
			<clipPath id="SVGID_8_">
				<use xlink:href="#SVGID_7_"  style="overflow:visible;"/>
			</clipPath>
			<path class="st5" d="M171.306427,185.2081451c-0.2176514,0.8867035-0.4079895,1.780838-0.5697937,2.6821594
				c-0.1287231,0.6513062-0.1934357,1.302597-0.1934357,1.952713c0,0.2440186,0.0081482,0.479187,0.0244446,0.705719
				c0.0160675,0.3065796,0.0527344,0.5932922,0.1088257,0.859375c0.0565796,0.2670288,0.1316071,0.4964447,0.2241364,0.6882172
				c0.0925293,0.1927338,0.216217,0.3411102,0.369873,0.4470673c0.153656,0.1057129,0.3396759,0.1586914,0.5570831,0.157959
				c0.4602509,0.0007324,0.8905334-0.2145386,1.2903595-0.6462555c0.4000854-0.4307709,0.7771454-0.9490356,1.1328735-1.55336
				c0.5331116-0.8778229,0.9447021-1.767395,1.2359467-2.669693c0.2912445-0.9013214,0.5410309-1.7762756,0.7505341-2.6239014
				H171.306427z M177.243103,178.9158936c-0.0323639-0.306839-0.072876-0.5921021-0.1212921-0.8581848
				c-0.0484314-0.2660828-0.1191406-0.4985962-0.2116699-0.6951599c-0.0927734-0.1941681-0.2118988-0.3475952-0.3574066-0.453064
				s-0.3307953-0.1582031-0.5573273-0.1582031c-0.4681549,0-0.900589,0.2181396-1.2961121,0.6520081
				c-0.3955231,0.4362793-0.7792969,0.9564667-1.1513367,1.5581512c-0.5328674,0.8629608-0.9446869,1.7499084-1.2357025,2.6596222
				c-0.2912445,0.910202-0.5412598,1.7880249-0.7514954,2.6342163h4.9310913
				c0.2183685-0.885025,0.4204559-1.7873077,0.6057434-2.7054138c0.1294403-0.6191711,0.1941681-1.2316437,0.1941681-1.8357239
				C177.2917633,179.4480591,177.2754669,179.1819763,177.243103,178.9158936z M178.878891,178.6450195
				c0.1941528,0.7455139,0.2905273,1.5054016,0.2905273,2.2813568c0,0.2440338-0.0081482,0.4794159-0.0244598,0.705719
				c-0.0800629,1.0360413-0.2536011,2.0747223-0.520401,3.1172333c-0.2902985,1.0513916-0.6580048,2.0931854-1.101944,3.1239624
				c-0.4441986,1.0314789-1.0345917,2.0210266-1.7697906,2.969574c-0.2500153,0.3219299-0.5271149,0.640274-0.8298798,0.9535828
				c-0.3029938,0.3137817-0.6280365,0.5940094-0.9748993,0.8409119c-0.3471069,0.2471466-0.7088165,0.4492188-1.0844574,0.6052856
				c-0.3756256,0.1572418-0.7696991,0.2351532-1.1815186,0.2351532c-0.4197388,0-0.7814636-0.0800629-1.0844574-0.2411499
				c-0.3027496-0.1603699-0.5630798-0.3674927-0.7814636-0.6227875c-0.2176514-0.2543335-0.3976746-0.5388794-0.5388641-0.8526611
				c-0.1411896-0.3132935-0.256485-0.6352386-0.3456573-0.965332c-0.201355-0.7287292-0.3027649-1.4816589-0.3027649-2.2585754
				c0-0.2500305,0.0160675-0.4971619,0.0484314-0.7411957c0.0647125-1.0190277,0.238266-2.0497894,0.5206451-3.09375
				c0.2667999-1.049942,0.626358-2.088623,1.0784607-3.1165161c0.4528046-1.0278931,1.054245-2.0203094,1.8057404-2.9767761
				c0.2507324-0.3212128,0.5256805-0.6400299,0.8241119-0.958847c0.2984467-0.3164368,0.6174927-0.5992889,0.9564514-0.8461914
				c0.3396759-0.2469177,0.6968384-0.4482727,1.0727081-0.6064758c0.3756256-0.1558228,0.7733002-0.2349243,1.1932831-0.2349243
				c0.4204407,0,0.780014,0.0815125,1.0784454,0.2421112c0.2984467,0.160614,0.5630798,0.3667603,0.7932129,0.6160736
				c0.230835,0.2516937,0.4125366,0.5393524,0.545578,0.8605652
				C178.6796875,178.0025787,178.7906647,178.3237915,178.878891,178.6450195z"/>
		</g>
		<circle class="st6" cx="101.4848633" cy="92.6884766" r="27.0963898"/>
		<circle class="st7" cx="101.4848633" cy="92.6884766" r="27.0963898"/>
		<path class="st8" d="M38.2208023,87.4986343l7.3723221,8.6573257l-0.4518547-3.4243393l0.9300842-1.5389786l3.2408943-1.1913834
			L38.2208023,87.4986343z M86.6569061,117.8250427L45.134079,92.7268295l0.9300804-1.5377808l41.5228233,25.097023
			c0.4254913,0.2564926,0.5609283,0.8090439,0.3044357,1.2345352
			C87.6349258,117.9449005,87.0823898,118.081543,86.6569061,117.8250427z"/>
		<g class="st4">
			<defs>
				<rect id="SVGID_9_" x="28.8948212" y="88.7604599" width="16.8546162" height="30.218811"/>
			</defs>
			<clipPath id="SVGID_10_">
				<use xlink:href="#SVGID_9_"  style="overflow:visible;"/>
			</clipPath>
			<path class="st9" d="M42.0979614,97.5470657c-0.0711937,0.2763977-0.2164574,0.4887848-0.4365082,0.6357346
				c-0.2193375,0.1476669-0.435791,0.2212601-0.6493721,0.2205429c-0.2322769,0.0007172-0.4197311-0.0810318-0.5621147-0.2445145
				c-0.1095505-0.105957-0.1677971-0.2411575-0.1747513-0.4046478c0-0.0683136,0.0129471-0.1565323,0.0388336-0.2636871
				c0.0716743-0.2375641,0.1929665-0.4257355,0.3641205-0.5640564c0.1711502-0.1375961,0.2986755-0.2133484,0.3823318-0.2262878
				c-0.1224899-0.1376038-0.3648376-0.2066422-0.7270355-0.2071228c-0.2128601,0.0004807-0.4163742,0.1857834-0.6105347,0.555191
				c-0.0388336,0.0570526-0.082222,0.1840973-0.1306419,0.3818665c-0.0481834,0.1975327-0.1033134,0.4391632-0.1646805,0.7244263
				c-0.0611267,0.2859879-0.124649,0.5882721-0.1893692,0.9082947c-0.064724,0.3200226-0.1227303,0.6275787-0.174511,0.9217148
				l-0.2423439,1.1949921h1.7738457c0.1682739,0.0007172,0.2521706,0.0853348,0.2521706,0.254097v0.0659256l-0.0388336,0.1694794
				c-0.0709534,0.1886597-0.1968002,0.2828674-0.3780174,0.2823868h-1.7640152l-0.9303055,4.6864853
				c-0.0906143,0.4398804-0.1869736,0.9087677-0.2905273,1.4073792c-0.1035538,0.4988556-0.2164574,0.9945908-0.3394279,1.486969
				s-0.2634392,0.9581528-0.4216461,1.3968353c-0.1582069,0.4393997-0.3281631,0.8224716-0.5093803,1.1482468
				c-0.1093102,0.1824265-0.2341957,0.3658142-0.3729858,0.5506363c-0.1387939,0.1850586-0.2917252,0.3497467-0.4597626,0.4940567
				c-0.1682739,0.1445465-0.3506927,0.2651291-0.548214,0.3622131c-0.1970406,0.0975647-0.4087029,0.1457443-0.6347466,0.1457443
				c-0.2516937,0-0.4875679-0.0405121-0.7073784-0.1222534c-0.219574-0.0810242-0.408226-0.1941681-0.5671501-0.3387222
				c-0.1574898-0.1440659-0.2756653-0.3200226-0.3540497-0.5271378c-0.0251694-0.1129074-0.0381165-0.2258148-0.0388336-0.3387222
				c0.0007172-0.1064301,0.0136642-0.2222137,0.0388336-0.3480682c0.0719109-0.2823868,0.2205315-0.4940567,0.4465752-0.6352539
				c0.226284-0.1411896,0.4492149-0.2119064,0.6680679-0.2119064c0.227005,0,0.4139748,0.0752716,0.562355,0.2260513
				c0.109787,0.1069107,0.1646805,0.2416382,0.1646805,0.4046402c0,0.0692825-0.0129433,0.1570206-0.0388336,0.2634506
				c-0.070713,0.2387619-0.1936836,0.4298172-0.3677101,0.5741272c-0.1740303,0.1445465-0.3034744,0.2229385-0.3880882,0.2351608
				c0.1105042,0.1258545,0.3363113,0.188179,0.6781349,0.188179c0.1680336,0,0.3252831-0.0939713,0.4705467-0.2823868
				c0.1452637-0.188179,0.2627182-0.4451523,0.3533287-0.7716522c0.2265244-0.7651749,0.4317169-1.6132965,0.6158104-2.5448456
				c0.1840973-0.931778,0.3665161-1.8398285,0.5477333-2.7251053l0.9590759-4.7241211h-1.4538345
				c-0.0963631,0.0004807-0.1675568-0.0306854-0.2128601-0.0942078c-0.0388336-0.0371552-0.0582504-0.084137-0.0582504-0.1411896
				c0-0.0369186,0.0100708-0.0716782,0.0287666-0.1035614l0.0294838-0.1411896
				c0.0194168-0.0810318,0.0628052-0.149826,0.1306419-0.2064056c0.0680771-0.0563278,0.1404686-0.0846176,0.2181358-0.0853348
				h1.4732475l0.2229271-1.1762924c0.0388336-0.2440338,0.0906105-0.5134811,0.1553307-0.8088074
				c0.064724-0.2946167,0.1416664-0.588028,0.2322769-0.8797684c0.0906105-0.2917328,0.1929665-0.5724411,0.3058701-0.8423691
				c0.1129036-0.2692032,0.2504921-0.4986115,0.4115791-0.6875076c0.2329941-0.2694473,0.5012283-0.4899826,0.8046989-0.6628189
				c0.3034706-0.1723633,0.6234818-0.2588959,0.9593124-0.2593765c0.2521744,0.0004807,0.4928398,0.0381165,0.7222404,0.1133881
				c0.2294044,0.0752716,0.4233246,0.1853027,0.5815353,0.3293686c0.1582069,0.1447906,0.2694321,0.3171539,0.3341522,0.5170746
				c0.0453072,0.1011581,0.0676003,0.2169418,0.0676003,0.3483124
				C42.1554909,97.277626,42.1367912,97.4034805,42.0979614,97.5470657z"/>
		</g>
		<path class="st10" d="M152.8987732,17.8456726l-14.677536,11.7005157l5.7422943-0.3943329l1.4778137,1.0247955
			l1.6444244,5.5158539L152.8987732,17.8456726z M100.6788254,91.5725937l43.2930984-62.4327164l1.477829,1.0247955
			l-43.2943039,62.4315109c-0.2828522,0.4087067-0.8425903,0.5093918-1.2500916,0.226532
			C100.4966431,92.5398483,100.3959656,91.9801102,100.6788254,91.5725937z"/>
		<g class="st4">
			<defs>
				<rect id="SVGID_11_" x="154.8056641" y="1.837204" width="23.1067505" height="30.218811"/>
			</defs>
			<clipPath id="SVGID_12_">
				<use xlink:href="#SVGID_11_"  style="overflow:visible;"/>
			</clipPath>
			<path class="st11" d="M174.2597351,9.8615112c-0.0189362,0.0822144-0.0623169,0.1512604-0.1306458,0.2075958
				c-0.0683136,0.0565643-0.150528,0.0846252-0.2476196,0.084137c-0.2322693,0.0004883-0.4580841,0.018219-0.6781311,0.0522614
				c-0.220047,0.0347595-0.4233246,0.1177063-0.6110229,0.2488251c-0.1546021,0.094696-0.2775726,0.2188568-0.3681946,0.3722839
				c-0.0906067,0.154129-0.1582031,0.3183441-0.2035065,0.493576l-2.8590088,11.1329651
				c-0.0711823,0.1881866-0.1970367,0.2823944-0.3782501,0.2823944h-0.2229309
				c-0.1165009,0-0.2035217-0.0500946-0.2617645-0.1505432c-0.7296753-1.9692841-1.4550323-3.9344788-2.1753693-5.8953705
				c-0.7205658-1.9604187-1.4104462-3.8132019-2.0698853-5.5576172l-2.500885,9.7212677
				c-0.0385895,0.1071472-0.0579987,0.2140656-0.0579987,0.3200226c0,0.0445862,0.0064697,0.0918121,0.0194092,0.1411896
				c0.0194244,0.1510315,0.0774231,0.270401,0.1740265,0.357666c0.1165009,0.1133881,0.2715912,0.1886597,0.4657593,0.2262878
				c0.1941681,0.0376434,0.4134979,0.0565796,0.6587219,0.0558624c0.1812134,0.0007172,0.2718201,0.0759888,0.2718201,0.2258148
				c0,0.0383453-0.0064697,0.0788574-0.0194092,0.1224976l-0.0388336,0.1411896
				c-0.0194092,0.0882111-0.066391,0.1586914-0.1407013,0.2116699c-0.0740814,0.0534515-0.1534271,0.0800629-0.2375641,0.0800629
				c-0.6457672-0.0376434-1.3016205-0.0565796-1.9672852-0.0565796c-0.6587219,0-1.3246307,0.0189362-1.9967804,0.0565796
				c-0.0970764,0-0.1682739-0.0282898-0.2135773-0.0848541c-0.0445862-0.043396-0.0671234-0.0906219-0.0675964-0.1412048
				c0.000473-0.036911,0.0069427-0.0745544,0.0194092-0.1128998l0.0388336-0.1409607
				c0.0194244-0.0812531,0.0647278-0.1512604,0.1359253-0.2111816c0.0711823-0.0594482,0.1517334-0.0894165,0.2416229-0.0901337
				c0.2459412,0.0007172,0.4758148-0.018219,0.6886749-0.0558624c0.2128754-0.0376282,0.4163818-0.1157837,0.6105499-0.2358856
				c0.1488495-0.0934906,0.2682343-0.2169342,0.3588409-0.3710785c0.0906067-0.1534119,0.161087-0.3181,0.2128601-0.4945374
				l2.7137451-10.5494995c-0.109314-0.0371552-0.3082733-0.0618439-0.5959167-0.0747833
				c-0.2874146-0.0124664-0.592804-0.0189362-0.9161682-0.0194244c-0.0966034,0.0004883-0.1678009-0.0306854-0.2128601-0.0942078
				c-0.0388336-0.036911-0.0582581-0.0838928-0.0582581-0.1409454c0-0.0371704,0.0098267-0.0719299,0.0287628-0.1035614
				l0.0294952-0.1505432c0.0709534-0.1876984,0.1967926-0.2819061,0.3780212-0.2823944h3.0337524
				c0.1229706,0.0004883,0.2035217,0.0505829,0.2423401,0.1505432l3.6929626,9.9566803l2.1226196-8.2252045
				c0.0388336-0.1121826,0.0582581-0.2250824,0.0582581-0.3387146c0-0.1941681-0.0611267-0.3540649-0.1840973-0.4799194
				c-0.1351929-0.1311188-0.2953186-0.2123871-0.4799042-0.2440186c-0.1840973-0.0311737-0.3988647-0.047226-0.644577-0.0477142
				c-0.0966034,0.0004883-0.1678009-0.0275726-0.2135773-0.08461c-0.0445862-0.0436401-0.0675964-0.0934906-0.0675964-0.1505432
				c0-0.0371704,0.0100708-0.0719299,0.0287628-0.1035614l0.02948-0.1505432
				c0.0711975-0.1876984,0.197052-0.2819061,0.3782654-0.2823944c0.6591949,0.0258942,1.3215179,0.0381165,1.9867096,0.0376434
				c0.6591949,0.000473,1.3215179-0.0117493,1.9867096-0.0376434c0.0906067,0.0004883,0.1682739,0.0316467,0.2330017,0.0939789
				c0.0258789,0.0505676,0.0388336,0.0977936,0.0388336,0.1411896c0,0.0383606-0.0095978,0.0731049-0.0294952,0.1035614
				L174.2597351,9.8615112z"/>
		</g>
		<path class="st12" d="M49.7557182,166.5927734l14.6763344-11.7005157l-5.7422867,0.3931427l-1.4766235-1.0247803
			l-1.6444206-5.5158691L49.7557182,166.5927734z M101.9756699,92.86586l-43.2942963,62.4315186l-1.4766235-1.0247803
			l43.2930908-62.4315186c0.2828598-0.4075241,0.8437958-0.5093994,1.251297-0.226532
			C102.1566544,91.8974075,102.258522,92.4583435,101.9756699,92.86586z"/>
		<g class="st4">
			<defs>
				<rect id="SVGID_13_" x="12.9372292" y="162.4118652" width="71.8394623" height="30.2188168"/>
			</defs>
			<clipPath id="SVGID_14_">
				<use xlink:href="#SVGID_13_"  style="overflow:visible;"/>
			</clipPath>
			<path class="st13" d="M31.7908649,180.4681244c-0.0776672,0.332962-0.193449,0.6798401-0.3487816,1.0403748
				c-0.1553345,0.3612518-0.3411121,0.6887054-0.5575714,0.9835663c-0.2164612,0.2950897-0.4698372,0.5410461-0.7603703,0.7380829
				c-0.2905293,0.197525-0.6270866,0.2965393-1.008709,0.2965393c-0.3228951,0-0.600481-0.0688019-0.8334808-0.2071228
				c-0.2322807-0.1375885-0.4082298-0.3193054-0.5280876-0.5453644c-0.1193771-0.2257996-0.1860161-0.4892578-0.1989613-0.7910614
				v-0.0752716c0-0.2691956,0.0553741-0.5422363,0.1646824-0.818634c0.2135849-0.5518341,0.4106274-1.1005402,0.5918503-1.6463776
				c0.1809845-0.5458374,0.345665-1.0945587,0.4940491-1.6473541c0.1033134-0.3636475,0.174511-0.7177124,0.2133446-1.0636139
				c0.0129433-0.0870209,0.0194168-0.1809845,0.0194168-0.2821503c0-0.2188721-0.032362-0.4259796-0.097084-0.621109
				c-0.1162605-0.3948212-0.3617268-0.5923462-0.7368774-0.5930634c-0.6587296,0.0007172-1.2275677,0.2282104-1.705555,0.6829529
				c-0.4782257,0.4552307-0.8953285,1.0588379-1.2505798,1.8110657c-0.1999207,0.8538818-0.4135056,1.7055969-0.6397934,2.5556335
				c-0.2260494,0.8505249-0.4487419,1.6986389-0.6687984,2.5450897c-0.0577717,0.2327576-0.1771488,0.406311-0.3581295,0.5220947
				c-0.1812248,0.1165009-0.3588524,0.1742859-0.5335999,0.1742859c-0.1869774,0-0.3423119-0.0623322-0.4652824-0.1884308
				c-0.0834217-0.0810242-0.128727-0.193924-0.1356792-0.3387146c0-0.0680847,0.0064716-0.1376038,0.0194168-0.2068787
				l1.2985249-4.9971619c0.1035538-0.3636475,0.1747494-0.7177124,0.213583-1.0636139v-0.2821503
				c0-0.2253418-0.0258884-0.4324493-0.0776672-0.621109c-0.1157818-0.3948212-0.3612461-0.5923462-0.7363987-0.5930634
				c-0.6587296,0.0007172-1.2275658,0.2282104-1.705555,0.6829529c-0.4782257,0.4552307-0.898201,1.0588379-1.2606468,1.8110657
				l-1.3280087,5.1007233c-0.0575314,0.2327576-0.1757088,0.406311-0.3533363,0.5220947
				c-0.1776257,0.1165009-0.357172,0.1742859-0.5381546,0.1742859c-0.1936874,0-0.34231-0.0623322-0.4458656-0.1884308
				c-0.0836582-0.0810242-0.1258488-0.193924-0.1258488-0.3387146c0-0.0558472,0.0064735-0.124649,0.0194168-0.2068787
				l1.491972-5.8253784c0.1035557-0.4070435,0.1553326-0.7586975,0.1553326-1.0540466v-0.2257996
				c-0.031641-0.3006134-0.1833801-0.4511566-0.4552135-0.4518738c-0.2845383,0.0007172-0.5223331,0.2301331-0.7129059,0.6877441
				c-0.1905708,0.4580994-0.3758678,1.0540466-0.5568523,1.7873383c-0.0711937,0.1699677-0.1905708,0.2577057-0.3588486,0.2634583
				h-0.2229328c-0.1553345,0.0007172-0.2330017-0.0774384-0.2330017-0.2351685v-0.065918
				c0.0776672-0.2941437,0.1654015-0.6158295,0.2624855-0.963913c0.097084-0.3482971,0.2262897-0.6776733,0.3876152-0.9881134
				c0.1615658-0.3106689,0.3650837-0.5741272,0.610548-0.7905884c0.2457047-0.2164612,0.5522976-0.3245697,0.9202576-0.3253021
				c0.5307236,0.0007324,0.9475822,0.160614,1.2510605,0.4806366c0.3034744,0.3200226,0.4616852,0.6304626,0.4746304,0.931076
				c0.2718334-0.3569489,0.6493816-0.6817627,1.1340809-0.9735107c0.4846973-0.2917328,1.0468235-0.4374695,1.6861382-0.4382019
				c0.3948059,0.0007324,0.7570114,0.0711975,1.0863762,0.2124023c0.3293648,0.1411896,0.5846596,0.3686829,0.7651634,0.6817474
				c0.1553326,0.270401,0.2394714,0.49646,0.2524166,0.6774445c0.2847805-0.4010468,0.678627-0.7627869,1.1827412-1.0863953
				c0.5041161-0.3229065,1.0952492-0.4844666,1.7733955-0.485199c0.3811417,0.0007324,0.7368755,0.0711975,1.0662403,0.2124023
				c0.3293667,0.1411896,0.5882549,0.3686829,0.7752304,0.6817474c0.1941681,0.3205109,0.2881355,0.6810455,0.2811832,1.0820923
				v0.047226c-0.0129452,0.4022369-0.0704746,0.8068848-0.1740303,1.2139282
				c-0.1488609,0.5717163-0.3200169,1.1333771-0.514183,1.684967c-0.193449,0.5523071-0.396965,1.1106262-0.6105499,1.6746826
				c-0.1939259,0.508667-0.2910099,0.9351349-0.2910099,1.2798462c0,0.2828674,0.1229725,0.424057,0.3686771,0.423584
				c0.2200565,0.000473,0.4182987-0.0654449,0.5959263-0.197052c0.1776276-0.1318512,0.3394337-0.3089905,0.4846992-0.5316925
				c0.1457443-0.2224579,0.2763882-0.4859161,0.392889-0.7905884c0.1162605-0.3041992,0.2193375-0.6259003,0.309948-0.9651031
				c0.0388336-0.1625366,0.1522179-0.244278,0.3391933-0.244751h0.2131042
				c0.0716743,0.000473,0.1457462,0.0222931,0.2226925,0.065918c0.0258884,0.0570526,0.0388336,0.1040344,0.0388336,0.1409607
				C31.8196297,180.4091492,31.8102818,180.437439,31.7908649,180.4681244z"/>
			<path class="st13" d="M39.2600708,176.9389954c-0.0143814-0.1186523-0.0335617-0.2346802-0.0599289-0.3475952
				c-0.0239716-0.1128998-0.0527382-0.2257996-0.0862961-0.3394318c-0.1030807-0.2938995-0.2493019-0.536972-0.4410706-0.7287445
				c-0.1893768-0.1910553-0.4314842-0.2869415-0.7215347-0.2876587c-0.2708778,0.0007172-0.5393524,0.0982819-0.8054352,0.29245
				c-0.2644043,0.1946564-0.506752,0.4394073-0.7265701,0.733551c-0.2972412,0.4079895-0.523056,0.8428345-0.6781464,1.3038177
				c-0.1553345,0.4612122-0.3005981,0.9298553-0.4365158,1.4064178c-0.1165009,0.4899902-0.2164612,0.9670258-0.300602,1.4304047
				c-0.0517769,0.226532-0.0776634,0.4458771-0.0776634,0.6587372c0,0.226532,0.0258865,0.4429932,0.0776634,0.6493988
				c0.0582542,0.2828674,0.1682777,0.5180206,0.3293648,0.7064514c0.161808,0.1881714,0.3782654,0.2821503,0.6493835,0.281662
				c0.2974815,0.0004883,0.5947266-0.1011658,0.8922119-0.3054047c0.2972412-0.2032776,0.5753098-0.4499359,0.834198-0.7392883
				c0.1869736-0.2186127,0.3643646-0.4576111,0.5321617-0.7150726L39.2600708,176.9389954z M38.8046188,184.4865112
				c-0.1102715,0.4082336-0.2996445,0.7845917-0.5681229,1.129303c-0.2684784,0.3451996-0.580101,0.6398163-0.9348793,0.8845673
				c-0.3547745,0.244751-0.7467041,0.4365234-1.1731529,0.5741272c-0.4262085,0.1380768-0.8526573,0.2068787-1.2798233,0.2068787
				c-0.290535,0-0.6004829-0.0122375-0.9298477-0.0376434c-0.3293648-0.0246887-0.6287651-0.0858154-0.8970032-0.1833801
				c-0.2679977-0.0970917-0.4698372-0.2493134-0.6057549-0.4564209c-0.1035576-0.1253815-0.1582069-0.2852631-0.1646805-0.4799194
				c0-0.0942078,0.0129433-0.2035217,0.0388298-0.3293762c0.0711975-0.2823792,0.2164612-0.4923706,0.4357986-0.6306915
				c0.2200546-0.1376038,0.4393921-0.2068787,0.6594505-0.2068787c0.2262878,0,0.4139824,0.072403,0.5621262,0.2164612
				c0.1100273,0.1069183,0.1646843,0.2445221,0.1646843,0.4140015c0,0.069519-0.0129471,0.1505432-0.0385971,0.244751
				c-0.0448227,0.2011261-0.1289635,0.365799-0.2519379,0.4940491c-0.1227303,0.1287384-0.1910477,0.1929779-0.2039948,0.1929779
				c0.0388336,0.0187073,0.189373,0.0457916,0.4511414,0.079834c0.2617645,0.0347595,0.5575714,0.0517731,0.8869324,0.0517731
				c0.2646446,0,0.5216141-0.0575409,0.7704391-0.1740417c0.2488251-0.1157837,0.4799042-0.2775879,0.6930084-0.4846954
				c0.2133446-0.2071228,0.4010391-0.4422913,0.5611649-0.7057343c0.1630058-0.2634583,0.2828636-0.5422516,0.3595734-0.8375702
				l0.5129852-2.0138702c-0.1486244,0.1445465-0.4123077,0.3269653-0.7934494,0.5463104
				c-0.3816223,0.2200623-0.7793083,0.3288879-1.1925735,0.3288879c-0.4976425,0-0.925766-0.1229706-1.2846184-0.3713226
				c-0.3588486-0.2476196-0.634758-0.5662079-0.8286858-0.9557495c-0.2322845-0.4511566-0.3552551-0.9404144-0.3681984-1.4680328
				v-0.1128998c0-0.4823151,0.0647202-0.9715729,0.1934471-1.4680328c0.1359177-0.5518341,0.3459053-1.0828094,0.6304436-1.5946045
				c0.2847786-0.5110779,0.6558571-0.9897919,1.114666-1.4356689c0.3751488-0.375885,0.7999191-0.686554,1.2745514-0.9310608
				c0.4753494-0.244751,0.9571724-0.3670044,1.4485855-0.3677368c0.4194946,0.0007324,0.769474,0.1124268,1.0475388,0.3346558
				c0.2780685,0.2229309,0.4554558,0.4094238,0.5321655,0.559494l-0.0479431,0.178833
				c0.0575294-0.2318115,0.1773834-0.4041595,0.3547745-0.5170746c0.1773872-0.112915,0.3571701-0.1694794,0.5369568-0.1699524
				c0.1869736,0.000473,0.3427887,0.0599213,0.4650421,0.178833c0.0839005,0.0822144,0.1270447,0.1951294,0.1270447,0.3387146
				c0,0.0692749-0.0071907,0.1387939-0.0191727,0.2071228L38.8046188,184.4865112z"/>
			<path class="st13" d="M52.4514503,180.9104004c-0.1102638,0.7846069-0.4794197,1.4138641-1.1098671,1.8875427
				c-0.6304436,0.4734344-1.3903313,0.7098083-2.284462,0.7098083c-0.5920868,0-1.1578102-0.1157837-1.694767-0.3475952
				s-1.0043945-0.5523071-1.4047165-0.960556c-0.4218941-0.4257355-0.7383118-0.9087677-0.9564514-1.4486084
				c-0.2157402-0.5393677-0.3236122-1.1038971-0.3236122-1.6945648c0-0.6016846,0.1054726-1.1815643,0.3188171-1.7403564
				c0.2133446-0.5582886,0.5345612-1.0540314,0.9612465-1.487442c0.400322-0.4199829,0.8677597-0.7476807,1.4047165-0.9828339
				c0.5369568-0.2354126,1.1026802-0.3528748,1.694767-0.3535919c0.3763504,0.0007172,0.7503014,0.0400238,1.1266518,0.1181793
				c0.373951,0.0788574,0.7119446,0.2023315,1.0115852,0.3717957c0.3020401,0.1694946,0.5489426,0.3905029,0.7407112,0.6635437
				c0.1941719,0.2727966,0.2924538,0.5944977,0.2924538,0.9638977c0,0.3269806-0.1054764,0.5746155-0.3164215,0.7440948
				c-0.2085495,0.1694794-0.4410706,0.2541046-0.6927719,0.2533722c-0.2516975,0.0007324-0.481823-0.0838928-0.6927681-0.2533722
				c-0.2085495-0.1694794-0.3140221-0.4171143-0.3140221-0.7440948c0-0.3257751,0.1126633-0.5762634,0.3379936-0.7529449
				c0.1941681-0.1375885,0.4051132-0.2092743,0.6304436-0.2162323h-0.1845779
				c-0.1102676-0.1001892-0.3475838-0.2047119-0.7167397-0.314743c-0.3691597-0.1095428-0.7742729-0.1646881-1.222538-0.1654053
				c-0.3595657,0.0007172-0.7071495,0.0982819-1.0403519,0.2924652c-0.3331985,0.1946411-0.6088676,0.4544983-0.8294029,0.7805176
				c-0.2636833,0.4082336-0.4386749,0.8509827-0.5225754,1.3275452c-0.0839005,0.4768066-0.1270485,0.9756622-0.1270485,1.4956055
				c0,0.49646,0.0503426,0.9763641,0.1510201,1.4404602c0.1006775,0.4645691,0.29245,0.891037,0.5777092,1.2793732
				c0.2325211,0.3205109,0.5177765,0.5762787,0.8557739,0.7675781c0.3403893,0.1915436,0.6975632,0.2869415,1.0715141,0.2864685
				c0.6927681,0.000473,1.2536964-0.1841125,1.6875763-0.5547028c0.4314842-0.3701324,0.7263298-0.8469238,0.8821449-1.4311218
				c0.0383492-0.1500702,0.1318398-0.2253418,0.2804604-0.2258148l0.1749878,0.018692
				C52.3723488,180.6757202,52.4514503,180.7668152,52.4514503,180.9104004z"/>
			<path class="st13" d="M60.3595734,178.877594c0-0.4822998-0.0335617-0.9593506-0.1030769-1.4296722
				c-0.0671196-0.4705658-0.2325211-0.9006195-0.4986038-1.2899323c-0.2445068-0.3317566-0.5465431-0.5906525-0.9013176-0.7759552
				c-0.3547783-0.1845856-0.7359161-0.2776031-1.1434288-0.2780762c-0.4075127,0.000473-0.7886543,0.0934906-1.1434326,0.2780762
				c-0.3547707,0.1853027-0.6568108,0.4441986-0.9013176,0.7759552c-0.2660789,0.383316-0.4314842,0.8116913-0.5009956,1.285141
				c-0.0671196,0.4739227-0.1006813,0.9521637-0.1006813,1.4344635c0,0.5089264,0.0311584,1.0123291,0.0910912,1.5111847
				c0.0623245,0.4986115,0.2325172,0.9581451,0.5105858,1.3778992c0.2181396,0.3272095,0.512989,0.5858612,0.8821449,0.7771606
				c0.3667603,0.1915436,0.7550926,0.2869415,1.1626053,0.2864685c0.4075127,0.000473,0.795845-0.0949249,1.1626053-0.2864685
				c0.3691597-0.1912994,0.6616058-0.4499512,0.8821411-0.7771606c0.2780685-0.419754,0.4482613-0.8792877,0.5081902-1.3778992
				C60.3284111,179.8899231,60.3595734,179.3865204,60.3595734,178.877594z M62.2005653,179.0940552
				c0,0.5906677-0.1126671,1.1552124-0.3379974,1.6945801c-0.2277222,0.5398407-0.5561333,1.0163879-0.9900131,1.4299011
				c-0.4123001,0.4022522-0.8917274,0.7174835-1.4334793,0.9464111c-0.541748,0.2286987-1.1170578,0.342804-1.7259293,0.342804
				c-0.606472,0-1.1817818-0.1124268-1.7259331-0.3382568c-0.541748-0.2257996-1.023571-0.5427094-1.4430695-0.9509583
				c-0.4386749-0.4199829-0.7694778-0.8982239-0.9900131-1.4347076c-0.2181358-0.5362396-0.3284073-1.0991058-0.3284073-1.6897736
				c0-0.6016846,0.1102715-1.1815643,0.3331985-1.7403412c0.2229347-0.5583038,0.5513458-1.0605164,0.9852219-1.5063934
				c0.4123039-0.4199829,0.8941269-0.7505493,1.4382782-0.9921875c0.5465431-0.2411499,1.1242523-0.3622131,1.7307243-0.3629303
				c0.6088715,0.0007172,1.1841812,0.1217804,1.7259293,0.3629303c0.5417519,0.2416382,1.0211792,0.5722046,1.4334793,0.9921875
				c0.4410744,0.4523621,0.7718773,0.9557495,0.994812,1.5111847
				C62.0902939,177.9136963,62.2005653,178.4923706,62.2005653,179.0940552z"/>
			<path class="st13" d="M69.7826767,180.7128754c0,0.383316-0.0671158,0.7579803-0.2037582,1.125
				c-0.1342392,0.3670044-0.3643646,0.6853485-0.687973,0.9545441c-0.3499832,0.2766418-0.7359161,0.4648132-1.157814,0.5647888
				c-0.4242935,0.1006775-0.8533707,0.1505432-1.2848587,0.1505432c-0.4770279,0-0.8941269-0.0781555-1.251297-0.2351685
				c-0.3547821-0.1565399-0.6448364-0.3475952-0.8725586-0.5741272l-0.618454,0.7153168
				c-0.052742,0.0563354-0.1294479,0.0882111-0.2325211,0.0939789h-0.0599327c-0.1941681,0-0.2900505-0.0970917-0.2900505-0.291748
				v-3.1055298c0-0.1376038,0.0743065-0.2253418,0.2229309-0.2634583c0.0455475-0.0117493,0.0862999-0.018219,0.1270523-0.0189362
				c0.0503387,0.0007172,0.1006775,0.0100708,0.1438255,0.0282898c0.0982819,0.0383453,0.163002,0.1040344,0.1941643,0.197525
				c0.1677971,0.8601074,0.4554596,1.5476074,0.8629684,2.0615692c0.4075089,0.514679,0.9972,0.7718964,1.7738724,0.7711792
				c0.309227,0.0007172,0.6112671-0.0287781,0.9013214-0.0886993c0.2900543-0.0594482,0.541748-0.1771545,0.7550964-0.3535919
				c0.1749878-0.1435852,0.3044281-0.3204956,0.3883362-0.5312042c0.0838928-0.2099915,0.1270447-0.4374847,0.1270447-0.682724
				c0-0.4012909-0.1582184-0.7440796-0.4746323-1.0300598c-0.3164215-0.2852631-0.7071533-0.4751282-1.1745911-0.569809
				l-1.3376007-0.2730408c-0.3212128-0.0623322-0.6328354-0.1603699-0.9348755-0.2958069
				c-0.2996445-0.1347351-0.5657272-0.3010864-0.7958488-0.4986267c-0.227726-0.1977539-0.4147034-0.4312439-0.5609245-0.7011719
				c-0.1462288-0.2694397-0.2181396-0.5676422-0.2181396-0.8946228c0-0.3569336,0.0767097-0.7004547,0.227726-1.0298157
				c0.1510201-0.3293762,0.3811455-0.6007385,0.6831779-0.8148193c0.3547821-0.2627258,0.7479095-0.4334106,1.1721954-0.5122681
				c0.4266891-0.0781555,0.8413925-0.1174622,1.2417145-0.1181793c0.7359161,0.0007172,1.3304062,0.1699677,1.7834625,0.508194
				l0.5033951-0.4516296c0.0767136-0.0371399,0.1414261-0.0558472,0.1941681-0.0565643h0.0671158
				c0.1941681,0.0007172,0.29245,0.0882111,0.29245,0.263443v2.5033875c0,0.1888885-0.0982819,0.2857361-0.29245,0.2917175
				h-0.1054688c-0.1941681,0.0004883-0.2900543-0.0965881-0.2900543-0.2917175c0-0.6834412-0.1869812-1.223999-0.5585327-1.6228943
				c-0.3715515-0.3981781-0.903717-0.5973816-1.5940857-0.5980988c-0.2972412,0.0007172-0.5896912,0.0258942-0.8773499,0.0759888
				c-0.2876587,0.0505829-0.5441437,0.1534271-0.7694778,0.3099518c-0.3427887,0.2262878-0.5153809,0.5621338-0.5153809,1.0068207
				c0,0.3269806,0.1486206,0.6064911,0.4458694,0.8382874c0.2972412,0.2322845,0.6735916,0.3921814,1.1242523,0.4792023
				l1.3280029,0.244751c0.3499756,0.0635223,0.6831818,0.1764221,0.9996033,0.3394318
				c0.3164215,0.1634979,0.5920868,0.3593445,0.8294067,0.588028c0.2349091,0.2294159,0.4218903,0.4988556,0.5609283,0.8095398
				C69.7131577,180.0404663,69.7826767,180.3681641,69.7826767,180.7128754z"/>
			<path class="st13" d="M75.1474457,176.9107056c-0.1749954,0.7093353-0.3260117,1.4246521-0.4554596,2.1457214
				c-0.1030731,0.5211487-0.1558075,1.0422974-0.1558075,1.5622406c0,0.1953735,0.0071869,0.3835449,0.0191727,0.5645294
				c0.0143814,0.2454834,0.0431442,0.4746399,0.0862961,0.6877594c0.0455475,0.2133484,0.1054688,0.3969727,0.1797867,0.5503845
				c0.0743103,0.1541443,0.1725922,0.2730408,0.2972488,0.357666c0.1222458,0.08461,0.2708664,0.1270447,0.4458618,0.1265717
				c0.3667603,0.000473,0.7119446-0.171875,1.0307617-0.5170746c0.3212128-0.3447113,0.6232452-0.7594299,0.9061127-1.2429352
				c0.4266815-0.7021332,0.7574921-1.4138489,0.9900208-2.1356506c0.2325134-0.7210693,0.4314728-1.421051,0.5992737-2.0992126
				H75.1474457z M79.8961487,171.8759155c-0.0263672-0.2440186-0.0575256-0.4727173-0.0958862-0.6863098
				c-0.0407562-0.2128601-0.0958862-0.3981628-0.1701965-0.5551758c-0.0743103-0.1565399-0.1701965-0.2776031-0.2852631-0.3624573
				c-0.1174469-0.0846252-0.2660828-0.1270447-0.4458618-0.127533c-0.3763428,0.0004883-0.7215271,0.1747589-1.0379486,0.5228271
				c-0.3164215,0.3483124-0.6232605,0.7642212-0.9205017,1.2462921c-0.4266891,0.6906281-0.7550964,1.3999481-0.9900055,2.1274872
				c-0.2325287,0.7282715-0.431488,1.4304047-0.5992889,2.1073608h3.9432678
				c0.1749878-0.7081299,0.3379974-1.4296722,0.4842224-2.1643982c0.1054688-0.4952698,0.1558075-0.9845276,0.1558075-1.4680481
				C79.934494,172.3031006,79.9225159,172.0902252,79.8961487,171.8759155z M81.2049866,171.6596985
				c0.1558075,0.5961761,0.2325134,1.2050629,0.2325134,1.8256836c0,0.1951294-0.0071869,0.383316-0.0191803,0.5645447
				c-0.0647125,0.8287048-0.2037506,1.65979-0.417099,2.4937744c-0.2325134,0.8411713-0.527359,1.6746674-0.8821411,2.4992981
				c-0.3547668,0.8251038-0.8270111,1.6168976-1.4143066,2.3756104c-0.201355,0.2576904-0.4218903,0.5122681-0.6640015,0.7627716
				c-0.2421112,0.251236-0.5034027,0.4753571-0.7814636,0.6728973c-0.2756653,0.1977539-0.5657196,0.3593292-0.8677521,0.4839783
				c-0.2996445,0.1260986-0.6136703,0.1884308-0.9444733,0.1884308c-0.3356018,0-0.6256485-0.0642548-0.8677597-0.1929779
				c-0.2421036-0.1282501-0.4506607-0.2941284-0.6256485-0.4981384c-0.1725922-0.2035217-0.3164215-0.4312439-0.4290924-0.6824646
				c-0.1150589-0.2505188-0.2061462-0.5082092-0.2780609-0.7721405c-0.160614-0.5829926-0.2421112-1.1851654-0.2421112-1.8069916
				c0-0.1999207,0.0143814-0.3974457,0.038353-0.5928192c0.052742-0.8152771,0.1917725-1.6399078,0.417099-2.4750824
				c0.2133484-0.8397369,0.5009995-1.6708374,0.8629684-2.4933167c0.361969-0.8215027,0.8437881-1.6156921,1.4454651-2.3813477
				c0.198967-0.2565002,0.4194946-0.5122681,0.6592102-0.7663879c0.2373199-0.2540894,0.4938049-0.4799042,0.764679-0.6776733
				c0.270874-0.197525,0.5561371-0.3588562,0.8581848-0.4847107c0.2996368-0.1251221,0.618454-0.1881714,0.9540558-0.1886597
				c0.3355865,0.0004883,0.6232452,0.0652161,0.8629608,0.1934509c0.2397156,0.1287384,0.4506531,0.2934265,0.6352386,0.4940643
				c0.1845703,0.2011261,0.3283997,0.4300537,0.4362793,0.687027
				C81.0443726,171.1462097,81.1354675,171.4031982,81.2049866,171.6596985z"/>
		</g>
		<path class="st12" d="M152.8987732,129.4728241L141.6431274,114.45224l0.2217255,5.7519836l-1.0691071,1.445488l-5.5625,1.4790421
			L152.8987732,129.4728241z M101.7790985,90.5909653l40.0965424,29.6216431l-1.0679016,1.445488l-40.0977478-29.6216507
			c-0.3991241-0.2948532-0.4830246-0.856987-0.1881714-1.2561111
			C100.8166656,90.3800125,101.379982,90.2961121,101.7790985,90.5909653z"/>
		<g class="st4">
			<defs>
				<rect id="SVGID_15_" x="147.1445007" y="119.6645966" width="69.6103058" height="30.2188072"/>
			</defs>
			<clipPath id="SVGID_16_">
				<use xlink:href="#SVGID_15_"  style="overflow:visible;"/>
			</clipPath>
			<path class="st14" d="M165.9981995,137.7208557c-0.0776672,0.332962-0.1934509,0.6798401-0.3487854,1.0403748
				c-0.1553345,0.3612366-0.3411102,0.6887054-0.5575714,0.983551c-0.2164612,0.295105-0.4698334,0.5410461-0.760376,0.7380981
				c-0.2905273,0.197525-0.6270905,0.296524-1.0087128,0.296524c-0.3228912,0-0.6004791-0.0688019-0.8334808-0.2071075
				c-0.2322845-0.1376038-0.4082336-0.3193054-0.5280914-0.5453644c-0.1193695-0.2258148-0.1860199-0.4892731-0.1989594-0.7910614
				v-0.0752869c0-0.2691956,0.0553741-0.5422363,0.1646881-0.818634c0.2135773-0.5518188,0.4106293-1.1005402,0.5918427-1.6463776
				c0.1809845-0.5458374,0.3456726-1.0945587,0.4940491-1.6473389c0.1033173-0.3636475,0.1745148-0.7177124,0.2133484-1.0636292
				c0.0129395-0.0870209,0.0194092-0.1809845,0.0194092-0.2821503c0-0.2188568-0.0323639-0.4259644-0.0970764-0.6210938
				c-0.1162567-0.3948212-0.3617249-0.5923462-0.7368774-0.5930786c-0.6587372,0.0007324-1.2275696,0.2282104-1.7055664,0.6829681
				c-0.4782257,0.4552155-0.8953247,1.0588226-1.2505798,1.8110657c-0.1999207,0.8538666-0.4134979,1.7055817-0.6397858,2.5556183
				c-0.226059,0.8505249-0.4487457,1.6986389-0.668808,2.5450897c-0.0577698,0.2327728-0.1771393,0.4063263-0.3581238,0.52211
				c-0.1812286,0.1165009-0.3588562,0.1742706-0.5335999,0.1742706c-0.1869812,0-0.3423157-0.0623322-0.4652863-0.1884155
				c-0.0834198-0.0810242-0.1287231-0.193924-0.1356812-0.3387299c0-0.0680695,0.0064697-0.1375885,0.0194092-0.2068787
				l1.2985382-4.9971466c0.1035461-0.3636475,0.1747437-0.7177124,0.2135773-1.0636292v-0.2821503
				c0-0.2253265-0.0258942-0.4324493-0.0776672-0.6210938c-0.1157837-0.3948212-0.3612518-0.5923462-0.7364044-0.5930786
				c-0.6587219,0.0007324-1.2275696,0.2282104-1.7055511,0.6829529c-0.4782257,0.4552307-0.8982086,1.0588379-1.2606506,1.8110809
				l-1.3280182,5.100708c-0.0575256,0.2327728-0.175705,0.4063263-0.3533325,0.52211
				c-0.1776276,0.1165009-0.3571777,0.1742706-0.538147,0.1742706c-0.1936951,0-0.3423157-0.0623322-0.4458771-0.1884155
				c-0.0836639-0.0810242-0.1258545-0.193924-0.1258545-0.3387299c0-0.0558472,0.006485-0.124649,0.0194244-0.2068787
				l1.4919739-5.8253784c0.1035614-0.4070435,0.1553345-0.7586975,0.1553345-1.0540314v-0.2258148
				c-0.0316467-0.3005981-0.1833801-0.4511414-0.4552155-0.4518738c-0.2845459,0.0007324-0.5223389,0.2301331-0.7129059,0.6877594
				c-0.1905823,0.4580994-0.3758698,1.0540314-0.5568542,1.7873383c-0.0711975,0.1699524-0.190567,0.2576904-0.3588562,0.263443
				h-0.2229309c-0.1553345,0.0007172-0.2330017-0.0774384-0.2330017-0.2351532v-0.0659332
				c0.0776672-0.2941284,0.1654053-0.6158295,0.2624817-0.963913c0.0970917-0.3482971,0.2262878-0.6776733,0.387619-0.9880981
				c0.1615753-0.3106842,0.3650818-0.5741272,0.6105499-0.7905884c0.2457123-0.2164764,0.5523071-0.324585,0.9202576-0.3253021
				c0.5307312,0.0007172,0.9475861,0.1605988,1.2510681,0.4806366c0.3034821,0.3200073,0.4616852,0.6304474,0.4746246,0.9310608
				c0.2718353-0.3569336,0.6493835-0.6817627,1.1340942-0.9734955c0.4846954-0.2917328,1.046814-0.4374847,1.686142-0.4382019
				c0.3948059,0.0007172,0.7570038,0.0711975,1.08638,0.2123871c0.329361,0.1411896,0.5846558,0.3686829,0.7651672,0.6817627
				c0.1553345,0.270401,0.2394714,0.49646,0.2524109,0.6774292c0.2847748-0.4010315,0.6786346-0.7627716,1.1827393-1.0863953
				c0.5041199-0.3229065,1.0952606-0.4844666,1.773407-0.4851837c0.381134,0.0007172,0.7368774,0.0711975,1.0662384,0.2123871
				s0.5882568,0.3686829,0.775238,0.6817627c0.1941681,0.3204956,0.2881317,0.6810303,0.2811737,1.082077v0.047226
				c-0.0129395,0.4022522-0.0704651,0.8068848-0.1740265,1.2139282c-0.1488495,0.5717316-0.3200073,1.1333923-0.5141754,1.6849823
				c-0.1934509,0.5523071-0.3969727,1.110611-0.6105499,1.6746674c-0.193924,0.5086823-0.2910156,0.9351349-0.2910156,1.2798462
				c0,0.2828674,0.1229706,0.4240723,0.3686829,0.423584c0.220047,0.0004883,0.4182892-0.0654297,0.595932-0.197052
				c0.1776123-0.1318359,0.3394318-0.3089905,0.4846954-0.5316772c0.1457367-0.2224731,0.2763824-0.4859161,0.3928833-0.7905884
				c0.1162567-0.3042145,0.2193451-0.6259155,0.3099518-0.9651184c0.0388336-0.1625214,0.1522217-0.2442627,0.3391876-0.244751
				h0.2131042c0.0716858,0.0004883,0.145752,0.0222931,0.222702,0.065918
				c0.0258789,0.0570679,0.0388336,0.1040497,0.0388336,0.1409607
				C166.0269623,137.6618805,166.0176086,137.690155,165.9981995,137.7208557z"/>
			<path class="st14" d="M173.4674225,134.1917267c-0.014389-0.1186676-0.0335693-0.2346954-0.0599365-0.3475952
				c-0.0239716-0.1128998-0.0527344-0.2258148-0.0862885-0.3394318c-0.1030884-0.2938995-0.2493134-0.536972-0.4410706-0.7287445
				c-0.1893768-0.1910553-0.431488-0.2869415-0.7215424-0.287674c-0.270874,0.0007324-0.5393524,0.0982971-0.8054352,0.2924652
				c-0.2644043,0.1946564-0.5067596,0.4394073-0.7265778,0.7335358c-0.2972412,0.4079895-0.523056,0.8428497-0.6781464,1.303833
				c-0.1553345,0.4612122-0.3005981,0.9298553-0.4365082,1.4064178c-0.1165009,0.489975-0.2164764,0.9670258-0.3006134,1.4303894
				c-0.0517731,0.226532-0.0776672,0.4458771-0.0776672,0.6587372c0,0.226532,0.0258942,0.4430084,0.0776672,0.6494141
				c0.0582581,0.2828674,0.1682892,0.5180206,0.3293762,0.7064362c0.1618042,0.1881866,0.3782654,0.2821503,0.6493835,0.281662
				c0.2974854,0.0004883,0.5947266-0.1011505,0.8922119-0.3053894c0.2972412-0.2032776,0.5753174-0.4499512,0.834198-0.7392883
				c0.1869812-0.2186279,0.3643646-0.4576263,0.5321655-0.7150879L173.4674225,134.1917267z M173.0119629,141.7392273
				c-0.11026,0.4082489-0.2996368,0.7846069-0.5681152,1.1293182c-0.2684784,0.3451996-0.5801086,0.6398163-0.9348755,0.8845673
				c-0.3547821,0.244751-0.7467194,0.4365234-1.1731567,0.5741119c-0.4262085,0.1380768-0.8526611,0.2068787-1.2798309,0.2068787
				c-0.2905426,0-0.6004791-0.0122223-0.9298553-0.0376434c-0.329361-0.0246887-0.6287689-0.0858154-0.8970032-0.1833801
				c-0.2680054-0.0970764-0.4698334-0.2492981-0.6057587-0.4564209c-0.1035614-0.1253662-0.1582031-0.2852631-0.1646729-0.4799194
				c0-0.0942078,0.0129395-0.2035217,0.0388184-0.329361c0.0711975-0.2823944,0.2164612-0.4923859,0.4358063-0.6306915
				c0.2200623-0.1376038,0.4393921-0.2068787,0.6594543-0.2068787c0.2262878,0,0.4139862,0.0723877,0.5621185,0.2164612
				c0.1100311,0.1069031,0.1646881,0.2445068,0.1646881,0.4139862c0,0.069519-0.0129395,0.1505432-0.0385895,0.2447662
				c-0.0448303,0.2011108-0.1289673,0.365799-0.2519379,0.4940491c-0.1227417,0.1287231-0.1910553,0.1929626-0.2039948,0.1929626
				c0.0388336,0.0187073,0.1893616,0.0457916,0.4511414,0.079834c0.2617645,0.0347595,0.5575714,0.0517883,0.8869324,0.0517883
				c0.2646484,0,0.5216217-0.0575409,0.7704315-0.1740417c0.2488251-0.1157837,0.4799194-0.2775879,0.6930237-0.4847107
				c0.2133331-0.2071228,0.4010315-0.442276,0.5611572-0.705719c0.1630096-0.2634583,0.2828674-0.5422516,0.3595734-0.8375854
				l0.5129852-2.0138702c-0.1486206,0.1445465-0.4123077,0.3269806-0.793457,0.5463104
				c-0.3816223,0.2200623-0.7792969,0.3289032-1.1925659,0.3289032c-0.4976501,0-0.925766-0.1229706-1.2846222-0.3713226
				c-0.3588562-0.2476196-0.6347656-0.5662231-0.8286896-0.9557495c-0.2322845-0.4511566-0.3552551-0.9404297-0.3681946-1.4680481
				v-0.1128998c0-0.4823151,0.0647125-0.9715729,0.1934357-1.4680328c0.1359253-0.5518188,0.3459167-1.0827942,0.6304474-1.5946045
				c0.2847748-0.5110779,0.6558533-0.9897919,1.1146698-1.4356689c0.3751526-0.3758698,0.7999268-0.686554,1.2745514-0.9310608
				c0.4753571-0.244751,0.9571838-0.3670044,1.4485931-0.3677216c0.4194946,0.0007172,0.7694702,0.1124268,1.0475464,0.3346405
				c0.2780609,0.2229309,0.4554596,0.4094391,0.5321655,0.5595093l-0.0479431,0.178833
				c0.0575256-0.2318115,0.1773834-0.4041748,0.3547668-0.5170898c0.1773987-0.1128998,0.3571777-0.1694641,0.5369568-0.1699524
				c0.1869812,0.0004883,0.3427887,0.0599365,0.4650421,0.178833c0.0839081,0.0822144,0.1270599,0.1951294,0.1270599,0.3387146
				c0,0.0692749-0.0072021,0.1387939-0.0191803,0.2071228L173.0119629,141.7392273z"/>
			<path class="st14" d="M185.5441742,137.9656067c0,0.3833008-0.069519,0.7579803-0.2037506,1.125
				c-0.1366425,0.3670044-0.3643799,0.6853333-0.6879883,0.9545441c-0.3499756,0.2766266-0.7359161,0.4648132-1.1578064,0.5647736
				c-0.4243011,0.1006775-0.8533936,0.1505432-1.2848663,0.1505432c-0.4794312,0-0.8941345-0.0781555-1.251297-0.2351685
				c-0.3547821-0.1565247-0.6448364-0.34758-0.8725586-0.5741272l-0.6208649,0.715332
				c-0.0503387,0.0563354-0.1270447,0.0882111-0.2325287,0.0939636h-0.0575256
				c-0.1941681,0-0.2900543-0.0970764-0.2900543-0.2917328v-3.105545c0-0.1376038,0.0743103-0.2253418,0.2229309-0.2634583
				c0.0455475-0.011734,0.0863037-0.018219,0.124649-0.0189209c0.0527496,0.0007019,0.1006927,0.0100555,0.1462402,0.0282745
				c0.0982819,0.0383606,0.1629944,0.1040497,0.1941528,0.197525c0.1678162,0.8601074,0.4554749,1.5476227,0.8629761,2.0615845
				c0.4075165,0.5146637,0.9972076,0.7718811,1.77388,0.7711639c0.3092194,0.0007172,0.6112671-0.0287628,0.9013214-0.0886993
				c0.2900543-0.0594482,0.541748-0.1771545,0.7550964-0.3535767c0.1749878-0.1435852,0.3044434-0.3204956,0.3883362-0.5312195
				c0.0838928-0.2099915,0.1270447-0.4374695,0.1270447-0.6827087c0-0.4012909-0.1582031-0.7440796-0.4746246-1.0300598
				c-0.3164215-0.2852783-0.709549-0.4751282-1.1746063-0.5698242l-1.3375854-0.2730408
				c-0.3236237-0.0623169-0.6352539-0.1603699-0.9348907-0.2958069c-0.2996368-0.1347198-0.5657196-0.3010864-0.7958527-0.4986115
				c-0.2277222-0.1977692-0.4147034-0.4312592-0.5609283-0.7011719c-0.146225-0.269455-0.2181396-0.5676422-0.2181396-0.8946381
				c0-0.3569336,0.0767059-0.7004395,0.2277374-1.0298157c0.1510162-0.3293762,0.3787384-0.6007385,0.6831665-0.8148041
				c0.3547821-0.2627258,0.7455139-0.4334106,1.1722107-0.5122833c0.4266815-0.0781403,0.8413849-0.1174622,1.2417145-0.1181641
				c0.7359161,0.0007019,1.3303986,0.1699524,1.7834625,0.508194l0.5033875-0.4516296
				c0.0767212-0.0371552,0.1414337-0.0558624,0.1941833-0.0565643h0.0671082
				c0.1941681,0.0007019,0.29245,0.0882111,0.29245,0.263443v2.5033722c0,0.1889038-0.0982819,0.2857361-0.29245,0.2917328
				h-0.1054688c-0.1941681,0.000473-0.29245-0.0966034-0.29245-0.2917328c0-0.6834412-0.1845703-1.223999-0.5561371-1.6228943
				c-0.3715515-0.3981628-0.903717-0.5973816-1.5940857-0.5980835c-0.2972565,0.0007019-0.5897064,0.0258789-0.8773499,0.0759888
				c-0.2876587,0.0505676-0.5441589,0.1534119-0.7718811,0.3099518c-0.3403931,0.2262878-0.5129852,0.5621338-0.5129852,1.0068207
				c0,0.3269653,0.1486206,0.6064758,0.4458618,0.8382874c0.2972412,0.2322845,0.6712036,0.3921814,1.1242523,0.479187
				l1.3280182,0.244751c0.3499756,0.0635376,0.6831818,0.1764374,0.9996033,0.339447
				c0.3164215,0.1634827,0.5920868,0.3593445,0.8270111,0.588028c0.2373199,0.2294159,0.4243011,0.4988556,0.563324,0.8095245
				C185.4746552,137.2931824,185.5441742,137.6208801,185.5441742,137.9656067z"/>
			<path class="st14" d="M190.9808655,140.5533447c-0.7742615-0.0433807-1.522171-0.0656738-2.2389221-0.0656738
				c-0.7047577,0-1.4430695,0.0222931-2.2197418,0.0656738v-0.7903442c0.2900543,0.0004883,0.5585327-0.0040741,0.8006439-0.0136566
				c0.2421112-0.0093536,0.4242859-0.0421906,0.5465393-0.0992432c0.0767212-0.0371552,0.1294556-0.1011658,0.1558228-0.1924896
				c0.0263672-0.0906219,0.0383453-0.1898651,0.0383453-0.2970276v-5.3452148c0-0.1752319-0.0071869-0.3346558-0.0239716-0.4794312
				c-0.0167847-0.1440735-0.0719147-0.2605743-0.1701965-0.3487854c-0.11026-0.0745544-0.2756653-0.1181946-0.4985962-0.131134
				c-0.2229309-0.0124664-0.4794312-0.0189362-0.7718811-0.0194092v-0.7810059l2.9868164-0.226059l0.0000153,7.3310394
				c0,0.1071625,0.0095825,0.2064056,0.0287628,0.2970276c0.0191803,0.0913239,0.0671234,0.1553345,0.146225,0.1924896
				c0.1030731,0.0570526,0.2660828,0.0898895,0.4890137,0.0992432c0.2229462,0.0095825,0.4674377,0.0141449,0.7311249,0.0136566
				V140.5533447z M189.6720276,128.5547638c0,0.3080292-0.1126709,0.5717316-0.3379974,0.7910614
				c-0.2253265,0.2198181-0.4985962,0.3293762-0.8150177,0.3286591c-0.3164215,0.0007172-0.5848999-0.1088409-0.8078308-0.3286591
				c-0.2229309-0.2193298-0.3356018-0.4830322-0.3356018-0.7910614c0-0.3070831,0.1126709-0.5688477,0.3356018-0.7853165
				s0.491394-0.3245773,0.8078308-0.3252945c0.3164063,0.0007172,0.5896912,0.1088257,0.8150177,0.3252945
				S189.6720276,128.2476807,189.6720276,128.5547638z"/>
			<path class="st14" d="M202.0196533,140.5533447c-0.819809-0.0433807-1.6012726-0.0656738-2.3443909-0.0656738
				c-0.7574921,0-1.5293732,0.0222931-2.3180237,0.0656738v-0.7903442c0.29245,0.0004883,0.5585327-0.0040588,0.8006439-0.0136566
				c0.2421112-0.0093536,0.4243011-0.0421906,0.5465546-0.0992432c0.0718994-0.0371552,0.1198425-0.1011658,0.1414185-0.1924896
				c0.0215759-0.0906219,0.0335693-0.1898651,0.0335693-0.2970123v-4.592514c0-0.3128357-0.014389-0.6110382-0.0479431-0.8934326
				c-0.0311737-0.282135-0.1222687-0.5393677-0.2708893-0.7721252c-0.091095-0.1500549-0.2253265-0.2593689-0.40271-0.3288879
				c-0.1773834-0.0688171-0.3667603-0.1035767-0.5681305-0.1040497c-0.3667603,0.000473-0.7119446,0.0776672-1.0307617,0.2310944
				c-0.3212128,0.1541443-0.5944824,0.3612518-0.8198242,0.621109c-0.2253265,0.2605743-0.4075012,0.566452-0.541748,0.9176483
				c-0.1366272,0.3516541-0.2037506,0.7181854-0.2037506,1.1005249v3.8206329c0,0.1071472,0.0119781,0.2063904,0.0383453,0.2970123
				c0.0263824,0.0913239,0.0767212,0.1553345,0.1558228,0.1924896c0.1222534,0.0570526,0.3068237,0.0898895,0.5513306,0.0992432
				c0.2469177,0.0095978,0.5106049,0.0141449,0.7958527,0.0136566v0.7810059
				c-0.3307953-0.0122223-0.6352386-0.0218201-0.9109039-0.0282898c-0.2780762-0.0057526-0.5513458-0.0151062-0.815033-0.0280457
				h-0.6112671c-0.7550964,0-1.5269623,0.0222931-2.3156281,0.0656738v-0.7903442
				c0.2900543,0.0004883,0.5561371-0.0040741,0.7982483-0.0136566c0.2421112-0.0093536,0.4266815-0.0421906,0.5489349-0.0992432
				c0.0767212-0.0371552,0.1294556-0.1011658,0.1534271-0.1924896c0.0263672-0.0906219,0.0407562-0.1898651,0.0407562-0.2970123
				l-0.0000153-5.3452301c0-0.1752319-0.0095825-0.3346558-0.0239716-0.4794312
				c-0.0167847-0.1440735-0.0814972-0.2605743-0.1893768-0.3487854c-0.11026-0.0745544-0.2876434-0.1181946-0.5345612-0.131134
				c-0.2445068-0.0124664-0.5081787-0.0189362-0.7934418-0.0194092v-0.7810059l1.6660004-0.1224976l1.3376007-0.1035614v1.6188202
				c0.1222534-0.2883911,0.4386749-0.6282959,0.9444733-1.0204773c0.508194-0.3916931,1.1074829-0.5882721,1.7978516-0.5887451
				c0.3643646,0.000473,0.7359161,0.0429077,1.1218567,0.127533c0.3835449,0.08461,0.7215424,0.2682343,1.0115967,0.5506287
				c0.2900391,0.282135,0.4818115,0.6069641,0.5729065,0.9739685c0.0886993,0.3670044,0.1342468,0.7263489,0.1342468,1.0768127
				v4.592514c0,0.1071472,0.0143738,0.2063904,0.040741,0.2970123c0.0239868,0.0913239,0.0767212,0.1553345,0.1534271,0.1924896
				c0.1222534,0.0570526,0.306839,0.0898895,0.5537262,0.0992432c0.2445221,0.0095978,0.5130005,0.0141449,0.8030396,0.0136566
				V140.5533447z"/>
			<path class="st14" d="M207.1231537,134.1634369c-0.1725922,0.7093353-0.326004,1.4246368-0.4554596,2.1457062
				c-0.1030731,0.5211487-0.1534119,1.0422974-0.1534119,1.5622559c0,0.1953735,0.0047913,0.3835449,0.0191803,0.5645294
				c0.0119781,0.2454681,0.0407562,0.4746399,0.0862885,0.6877594c0.0455475,0.2133484,0.105484,0.3969727,0.1797943,0.5503845
				c0.0743103,0.1541443,0.1725922,0.2730408,0.2948456,0.357666c0.124649,0.08461,0.2732697,0.1270447,0.4458618,0.1265564
				c0.3691711,0.0004883,0.7119446-0.171875,1.0331726-0.5170593c0.3188171-0.3447266,0.6208496-0.7594299,0.9061127-1.2429504
				c0.4266815-0.7021179,0.7550964-1.4138489,0.9876099-2.1356354c0.2349243-0.7210693,0.4338837-1.421051,0.6016846-2.0992126
				H207.1231537z M211.8742676,129.1286469c-0.0263672-0.2440338-0.0599365-0.4727173-0.0982819-0.6863098
				c-0.0383453-0.2128754-0.0958862-0.3981781-0.1701965-0.555191c-0.0719147-0.1565323-0.1678009-0.2775879-0.2852631-0.3624496
				c-0.1150513-0.0846176-0.2636871-0.1270523-0.4458618-0.1275253c-0.3739624,0.000473-0.7191467,0.1747513-1.0355682,0.5228195
				c-0.3164215,0.34832-0.6232452,0.7642136-0.9228973,1.2462997c-0.4242859,0.6906128-0.7550964,1.3999481-0.9876099,2.1274872
				c-0.2325134,0.7282562-0.4338837,1.4304047-0.6016846,2.1073608h3.9456787
				c0.1749878-0.7081299,0.3356018-1.4296722,0.4842224-2.1644135c0.1030884-0.4952545,0.1558228-0.9845276,0.1558228-1.4680328
				C211.9126282,129.5558167,211.8982391,129.3429565,211.8742676,129.1286469z M213.1831055,128.9124146
				c0.1534119,0.5961914,0.2301331,1.2050781,0.2301331,1.8256989c0,0.1951294-0.0048065,0.383316-0.0191956,0.5645294
				c-0.0623169,0.8287048-0.201355,1.6598206-0.4147034,2.4937897c-0.2325134,0.8411713-0.5273743,1.6746674-0.8821411,2.4992981
				c-0.3547668,0.8251038-0.8270111,1.6168976-1.4167023,2.3755951c-0.1989594,0.2577057-0.4218903,0.5122833-0.6640015,0.7627869
				c-0.2421112,0.2512207-0.5010071,0.4753723-0.779068,0.6728821c-0.2780609,0.1977844-0.5681152,0.3593445-0.8677673,0.4839935
				c-0.2996368,0.1260986-0.6160583,0.1884308-0.944458,0.1884308c-0.3356018,0-0.6256561-0.0642548-0.8677673-0.1929779
				c-0.2421112-0.1282501-0.4506531-0.2941437-0.6256561-0.4981384c-0.1749878-0.2035217-0.3188171-0.4312592-0.4314728-0.6824799
				c-0.1126709-0.2505035-0.2037659-0.508194-0.2756805-0.7721252c-0.1605988-0.5829926-0.2421112-1.1851654-0.2421112-1.8069916
				c0-0.1999359,0.0119934-0.3974457,0.0383606-0.5928192c0.0527344-0.8152771,0.1893616-1.6399231,0.417099-2.4750977
				c0.2133331-0.8397217,0.5009918-1.6708221,0.8629608-2.4932861c0.361969-0.8215179,0.8414001-1.6157074,1.4430847-2.3813629
				c0.201355-0.2565002,0.421875-0.5122833,0.6592102-0.7663727c0.2397156-0.2541122,0.4938049-0.4799194,0.764679-0.6776886
				c0.2732697-0.197525,0.5585327-0.3588562,0.8581696-0.4847107c0.3020325-0.1251373,0.6208496-0.188179,0.9564514-0.1886597
				c0.3356018,0.0004807,0.6232605,0.0652008,0.8629608,0.1934509c0.2373352,0.1287308,0.4506836,0.2934189,0.632843,0.4940643
				c0.1846008,0.2011185,0.3308105,0.4300537,0.4362946,0.687027
				C213.0224915,128.3989563,213.1111755,128.6559296,213.1831055,128.9124146z"/>
		</g>
		<path class="st10" d="M101.2373505,198.148941l5.4234772-17.9690857l-4.5005875,3.5873413l-1.7978363-0.0023956
			l-4.4885941-3.604126L101.2373505,198.148941z M102.3160553,92.0855865l-0.1558151,91.6959991l-1.7978363-0.0023956
			l0.1558151-91.6959991c0.0011978-0.4962082,0.4039154-0.8989334,0.900116-0.8977356
			C101.915741,91.1866531,102.3172531,91.5893707,102.3160553,92.0855865z"/>
		<g class="st4">
			<defs>
				<rect id="SVGID_17_" x="105.8949432" y="170.8614807" width="31.7617874" height="30.2188168"/>
			</defs>
			<clipPath id="SVGID_18_">
				<use xlink:href="#SVGID_17_"  style="overflow:visible;"/>
			</clipPath>
			<path class="st15" d="M124.7485046,188.9177399c-0.0776596,0.332962-0.1934433,0.6798401-0.3487778,1.0403748
				c-0.1553268,0.3612518-0.3411102,0.6887054-0.5575638,0.9835663c-0.2164612,0.2950897-0.469841,0.5410461-0.7603683,0.7380829
				c-0.290535,0.197525-0.6270828,0.2965393-1.0087051,0.2965393c-0.3228912,0-0.6004791-0.0688019-0.8334808-0.2071228
				c-0.2322769-0.1375885-0.408226-0.3193054-0.5280838-0.5453644c-0.1193771-0.2257996-0.1860123-0.4892578-0.1989594-0.7910614
				v-0.0752716c0-0.2691956,0.0553741-0.5422363,0.1646805-0.818634c0.2135849-0.5518341,0.4106293-1.1005402,0.5918503-1.6463776
				c0.1809769-0.5458374,0.345665-1.0945587,0.4940414-1.6473389c0.1033173-0.3636627,0.1745148-0.7177277,0.2133484-1.0636292
				c0.0129395-0.0870209,0.0194092-0.1809845,0.0194092-0.2821503c0-0.2188721-0.0323563-0.4259796-0.0970764-0.621109
				c-0.1162643-0.3948212-0.3617249-0.5923462-0.7368774-0.5930634c-0.6587296,0.0007172-1.227562,0.2282104-1.7055511,0.6829529
				c-0.4782257,0.4552307-0.8953171,1.0588379-1.2505722,1.8110657c-0.1999207,0.8538818-0.4135056,1.7055969-0.6397934,2.5556335
				c-0.2260437,0.8505249-0.4487381,1.6986389-0.6687927,2.5450897c-0.0577698,0.2327576-0.1771469,0.406311-0.3581238,0.5220947
				c-0.1812286,0.1165009-0.3588562,0.1742859-0.5335999,0.1742859c-0.1869736,0-0.342308-0.0623322-0.4652786-0.1884308
				c-0.0834274-0.0810242-0.1287308-0.193924-0.1356812-0.3387146c0-0.0680847,0.0064774-0.1376038,0.0194168-0.2068787
				l1.2985153-4.9971466c0.1035538-0.3636627,0.1747513-0.7177277,0.2135849-1.0636292v-0.2821503
				c0-0.2253418-0.0258865-0.4324493-0.0776672-0.621109c-0.1157837-0.3948212-0.3612442-0.5923462-0.7363968-0.5930634
				c-0.6587219,0.0007172-1.227562,0.2282104-1.7055435,0.6829529c-0.4782257,0.4552307-0.898201,1.0588379-1.260643,1.8110657
				l-1.3280029,5.1007233c-0.0575333,0.2327576-0.1757126,0.406311-0.3533325,0.5220947
				c-0.1776276,0.1165009-0.3571701,0.1742859-0.5381546,0.1742859c-0.1936874,0-0.342308-0.0623322-0.4458618-0.1884308
				c-0.0836639-0.0810242-0.1258545-0.193924-0.1258545-0.3387146c0-0.0558472,0.0064774-0.124649,0.0194168-0.2068787
				l1.4919662-5.8253784c0.1035538-0.4070435,0.1553345-0.7586975,0.1553345-1.0540466v-0.2257996
				c-0.0316467-0.3006134-0.1833801-0.4511566-0.4552155-0.4518738c-0.2845383,0.0007172-0.5223312,0.2301331-0.7128983,0.6877441
				c-0.1905746,0.4580994-0.3758698,1.0540466-0.5568542,1.7873383c-0.0711899,0.1699677-0.190567,0.2577057-0.3588486,0.2634583
				h-0.2229309c-0.1553345,0.0007172-0.2329941-0.0774384-0.2329941-0.2351685l-0.0000076-0.065918
				c0.0776672-0.2941437,0.1654053-0.6158447,0.2624893-0.963913c0.097084-0.3482971,0.2262878-0.6776733,0.3876114-0.9881134
				c0.1615677-0.3106689,0.3650818-0.5741272,0.6105499-0.7905884c0.245697-0.2164612,0.5522919-0.3245697,0.9202499-0.3253021
				c0.5307236,0.0007324,0.9475784,0.160614,1.2510529,0.4806366s0.4616852,0.6304626,0.4746323,0.9310608
				c0.2718353-0.3569336,0.6493759-0.6817474,1.1340714-0.9734955c0.4847031-0.2917328,1.0468216-0.4374695,1.6861343-0.4382019
				c0.3948059,0.0007324,0.7570114,0.0711975,1.0863724,0.2124023c0.3293686,0.1411896,0.5846558,0.3686829,0.7651596,0.6817474
				c0.1553345,0.270401,0.2394714,0.49646,0.2524185,0.6774445c0.2847748-0.4010468,0.6786194-0.7627869,1.1827393-1.0863953
				c0.5041122-0.3229065,1.0952377-0.4844666,1.7733841-0.485199c0.3811417,0.0007324,0.7368698,0.0711975,1.0662384,0.2124023
				c0.329361,0.1411896,0.5882492,0.3686829,0.7752228,0.6817474c0.1941681,0.3205109,0.2881393,0.6810455,0.281189,1.0820923
				v0.047226c-0.0129471,0.4022369-0.0704803,0.8068848-0.1740341,1.2139282
				c-0.1488571,0.5717163-0.320015,1.1333771-0.514183,1.684967c-0.1934433,0.5523071-0.3969574,1.1106262-0.6105423,1.6746826
				c-0.193924,0.508667-0.291008,0.9351349-0.291008,1.2798462c0,0.2828674,0.1229706,0.424057,0.3686752,0.423584
				c0.2200546,0.000473,0.4182968-0.0654449,0.5959244-0.197052c0.1776276-0.1318512,0.3394318-0.3089905,0.4846954-0.5316925
				c0.1457443-0.2224579,0.2763824-0.4859161,0.3928833-0.7905884c0.1162643-0.3041992,0.2193375-0.6259003,0.3099518-0.9651031
				c0.0388336-0.1625366,0.1522141-0.244278,0.3391876-0.244751h0.2131042
				c0.0716782,0.000473,0.145752,0.0222931,0.2226944,0.065918c0.0258865,0.0570526,0.0388336,0.1040344,0.0388336,0.1409607
				C124.7772751,188.8587646,124.7679291,188.8870544,124.7485046,188.9177399z"/>
			<path class="st15" d="M132.2200775,185.3886108c-0.014389-0.1186523-0.0335541-0.2346802-0.0599213-0.34758
				c-0.0239716-0.112915-0.0527344-0.2258148-0.0863037-0.339447c-0.1030731-0.2938995-0.2492981-0.536972-0.4410706-0.7287445
				c-0.1893616-0.1910553-0.4314728-0.2869415-0.7215271-0.2876587c-0.270874,0.0007172-0.5393524,0.0982819-0.8054352,0.29245
				c-0.2646332,0.1946564-0.5067444,0.4394073-0.7268066,0.733551c-0.2969971,0.4079895-0.5228119,0.8428345-0.6781464,1.3038177
				c-0.1553345,0.4612122-0.3005981,0.9298553-0.4365082,1.4064178c-0.1162567,0.4899902-0.2164612,0.9670258-0.300354,1.4304047
				c-0.0517807,0.226532-0.0776672,0.4458771-0.0776672,0.6587372c0,0.226532,0.0258865,0.4429932,0.0776672,0.6493988
				c0.0579987,0.2828674,0.1680298,0.5180206,0.329361,0.7064514c0.1615601,0.1881714,0.3780212,0.2821503,0.6491394,0.281662
				c0.2977295,0.0004883,0.5947266-0.1011658,0.8922119-0.3054047c0.2974701-0.2032776,0.5755463-0.4499359,0.8344269-0.7392883
				c0.1869812-0.2186127,0.3643646-0.4576111,0.5321655-0.7150726L132.2200775,185.3886108z M131.7622375,192.9361267
				c-0.1078796,0.4082336-0.2972412,0.7845917-0.5657196,1.129303c-0.2684784,0.3451996-0.5801086,0.6398163-0.9348755,0.8845673
				c-0.3547821,0.244751-0.7467041,0.4365234-1.1731567,0.5741272c-0.4264374,0.1380768-0.85289,0.2068787-1.2798157,0.2068787
				c-0.2905273,0-0.6004791-0.0122375-0.9298401-0.0376434c-0.3293686-0.0246887-0.6287689-0.0858154-0.8970032-0.1833801
				c-0.2682343-0.0970917-0.4700775-0.2493134-0.605751-0.4564209c-0.1035538-0.1253815-0.1582108-0.2852631-0.1646805-0.4799194
				c0-0.0942078,0.0129395-0.2035217,0.0388336-0.3293762c0.0709534-0.2823792,0.2164536-0.4923706,0.435791-0.6306915
				c0.2198181-0.1376038,0.4393921-0.2068787,0.6592102-0.2068787c0.2265244,0,0.4142227,0.072403,0.5623627,0.2164612
				c0.1100311,0.1069183,0.1646805,0.2445221,0.1646805,0.4140015c0,0.069519-0.0129471,0.1505432-0.0388336,0.244751
				c-0.0448227,0.2011261-0.1287231,0.365799-0.2517014,0.4940491c-0.1229706,0.1287384-0.1912842,0.1929779-0.2042236,0.1929779
				c0.0388336,0.018692,0.1893692,0.0457916,0.4511337,0.079834c0.2617645,0.0347595,0.5575638,0.0517731,0.8869324,0.0517731
				c0.2646408,0,0.5218582-0.0575409,0.770668-0.1740417c0.2485809-0.1157837,0.4799042-0.2775879,0.6927643-0.4846954
				c0.2135925-0.2071228,0.4010468-0.4422913,0.5614166-0.7057343c0.1629944-0.2634583,0.2828522-0.5422516,0.3595581-0.8375702
				l0.5129852-2.0138702c-0.1486206,0.1445465-0.4123077,0.3269653-0.7934418,0.5463104
				c-0.3816223,0.2200623-0.7792969,0.3288879-1.1928101,0.3288879c-0.4976349,0-0.925766-0.1229706-1.2846069-0.3713226
				c-0.3586121-0.2476196-0.6345215-0.5662079-0.8286896-0.9557495c-0.2322769-0.4511566-0.3552551-0.9404144-0.3681946-1.4680328
				v-0.1128998c0-0.4823151,0.0647202-0.9715729,0.1934433-1.4680328c0.1359177-0.5518341,0.3459015-1.0828094,0.6306839-1.5946045
				c0.2845383-0.5110779,0.6556091-0.9897919,1.1144257-1.4356689c0.3753815-0.375885,0.7999115-0.686554,1.2745361-0.9310608
				c0.4755859-0.244751,0.9574127-0.3670044,1.448822-0.3677368c0.4194946,0.0007324,0.7694702,0.1124268,1.0475311,0.3346558
				c0.2780762,0.2229309,0.4554596,0.4094391,0.5321655,0.559494l-0.0479431,0.178833
				c0.0575256-0.2318115,0.1749878-0.4041595,0.3547821-0.5170746c0.1773834-0.1128998,0.3571625-0.1694794,0.5369415-0.1699524
				c0.1869812,0.000473,0.3427887,0.0599213,0.4650421,0.178833c0.0839081,0.0822144,0.1270447,0.1951294,0.1270447,0.3387146
				c0,0.0692749-0.0071869,0.1387939-0.019165,0.2071075L131.7622375,192.9361267z"/>
		</g>
	</g>
</g>
</svg>
