<?xml version="1.0" encoding="utf-8"?>
<!-- Generator: Adobe Illustrator 19.0.0, SVG Export Plug-In . SVG Version: 6.00 Build 0)  -->
<svg version="1.1" id="Layer_1" xmlns="http://www.w3.org/2000/svg" xmlns:xlink="http://www.w3.org/1999/xlink" x="0px" y="0px"
	 viewBox="0 0 127.2703552 96.3281555" style="enable-background:new 0 0 127.2703552 96.3281555;" xml:space="preserve">
<style type="text/css">
	.st0{fill:#010101;}
	.st1{fill:none;stroke:#010101;stroke-miterlimit:10;}
	.st2{fill:none;stroke:#939598;stroke-miterlimit:10;}
</style>
<g id="XMLID_5_">
	<g id="XMLID_6_">
		<path id="XMLID_42_" class="st0" d="M32.5388603,58.092823l-0.7573242,2.6484375
			c0.3378906-0.6225586,0.6254883-1.090332,0.8623047-1.4033203c0.3691406-0.4853516,0.7285156-0.8378906,1.078125-1.0571289
			c0.2060547-0.125,0.4213867-0.1879883,0.6469727-0.1879883c0.1943359,0,0.355957,0.0629883,0.4838867,0.1879883
			c0.1279297,0.1254883,0.1923828,0.2856445,0.1923828,0.4814453c0,0.1918945-0.0449219,0.4423828-0.1347656,0.7514648
			l-0.4130859,1.4916992c0.6328125-1.1938477,1.2333984-2.0317383,1.8007813-2.5131836
			c0.3144531-0.2661133,0.625-0.3994141,0.9326172-0.3994141c0.1787109,0,0.3251953,0.0615234,0.4394531,0.1850586
			c0.1152344,0.1235352,0.171875,0.3139648,0.171875,0.5722656c0,0.2270508-0.0351563,0.4682617-0.1044922,0.7226563
			l-0.6416016,2.2841797c-0.1396484,0.4970703-0.2089844,0.7724609-0.2089844,0.8271484
			c0,0.0556641,0.0166016,0.1025391,0.0517578,0.1416016c0.0234375,0.0273438,0.0546875,0.0410156,0.09375,0.0410156
			c0.0380859,0,0.1064453-0.0371094,0.2041016-0.1113281c0.2207031-0.1728516,0.4287109-0.3994141,0.6230469-0.6816406
			l0.1923828,0.1230469c-0.0966797,0.1572266-0.2685547,0.3720703-0.515625,0.6464844
			c-0.2470703,0.2734375-0.4580078,0.4599609-0.6328125,0.5576172s-0.3359375,0.1464844-0.4833984,0.1464844
			c-0.1357422,0-0.25-0.046875-0.3408203-0.140625c-0.0917969-0.09375-0.1367188-0.2089844-0.1367188-0.3466797
			c0-0.1875,0.0791016-0.5654297,0.2382813-1.1328125l0.53125-1.8847656
			c0.1201172-0.4345703,0.1835938-0.675293,0.1914063-0.7226563c0.0117188-0.0742188,0.0175781-0.1464844,0.0175781-0.2167969
			c0-0.0981445-0.0214844-0.1743164-0.0634766-0.2290039c-0.046875-0.0551758-0.0996094-0.0825195-0.1572266-0.0825195
			c-0.1640625,0-0.3369141,0.0844727-0.5195313,0.2524414c-0.5361328,0.4970703-1.0371094,1.1943359-1.5029297,2.090332
			c-0.3071289,0.5908203-0.5947266,1.3486328-0.862793,2.2724609h-0.8798828l0.996582-3.5522461
			c0.1088867-0.3837891,0.1630859-0.6401367,0.1630859-0.7695313c0-0.1054688-0.0214844-0.1835938-0.0639648-0.2348633
			c-0.0429688-0.0507813-0.0952148-0.0761719-0.1572266-0.0761719c-0.128418,0-0.2646484,0.046875-0.4082031,0.1411133
			c-0.2329102,0.1523438-0.5332031,0.4794922-0.9003906,0.9804688s-0.6518555,0.9804688-0.8540039,1.4389648
			c-0.097168,0.2148438-0.328125,0.90625-0.6933594,2.0722656h-0.8623047l1.078125-3.8046875l0.1396484-0.4931641
			c0.0273438-0.074707,0.0410156-0.1293945,0.0410156-0.1645508c0-0.0859375-0.0390625-0.1635742-0.1166992-0.2319336
			s-0.1767578-0.1030273-0.2973633-0.1030273c-0.050293,0-0.1904297,0.0239258-0.4194336,0.0708008l-0.0522461-0.2172852
			L32.5388603,58.092823z"/>
	</g>
</g>
<rect id="XMLID_1_" x="4.5216575" y="1.4366002" class="st1" width="7.9083672" height="91.3855743"/>
<line id="XMLID_2_" class="st1" x1="12.4300241" y1="1.4366002" x2="46.0700111" y2="52.8010178"/>
<circle id="XMLID_3_" class="st1" cx="33.7521629" cy="60.3828011" r="20.6631069"/>
<g id="XMLID_10_">
	<g id="XMLID_29_">
		<g id="XMLID_125_">
			<polygon id="XMLID_126_" class="st0" points="92.3006134,60.9059029 92.3006134,62.9123421 101.73909,60.3849678 
				92.3006134,57.85326 92.3006134,59.8598518 83.6429901,59.8598518 83.6429901,60.9059029 			"/>
		</g>
	</g>
</g>
<g id="XMLID_11_">
	<g id="XMLID_128_">
		<g id="XMLID_129_">
			<polygon id="XMLID_130_" class="st0" points="103.5585785,85.560997 101.5521393,85.560997 104.0795135,94.9995041 
				106.6112213,85.560997 104.6046295,85.560997 104.6046295,60.3828011 103.5585785,60.3828011 			"/>
		</g>
	</g>
</g>
<g id="XMLID_13_">
	<g id="XMLID_14_">
		<path id="XMLID_36_" class="st0" d="M113.1936493,85.8511276l-0.7666016,2.6230469
			c0.3417969-0.6162109,0.6328125-1.0800781,0.8730469-1.3896484c0.3740234-0.4814453,0.7373047-0.8300781,1.0908203-1.0478516
			c0.2089844-0.1240234,0.4267578-0.1855469,0.6552734-0.1855469c0.1962891,0,0.359375,0.0615234,0.4892578,0.1855469
			c0.1298828,0.125,0.1943359,0.2832031,0.1943359,0.4775391c0,0.1894531-0.0449219,0.4384766-0.1357422,0.7441406
			l-0.4179688,1.4775391c0.640625-1.1826172,1.2480469-2.0126953,1.8222656-2.4892578
			c0.3183594-0.2636719,0.6328125-0.3955078,0.9433594-0.3955078c0.1806641,0,0.3291016,0.0605469,0.4462891,0.1835938
			c0.1152344,0.1220703,0.1738281,0.3105469,0.1738281,0.5664063c0,0.2255859-0.0351563,0.4638672-0.1064453,0.7158203
			l-0.6494141,2.2626953c-0.1416016,0.4921875-0.2119141,0.765625-0.2119141,0.8193359
			c0,0.0546875,0.0175781,0.1015625,0.0527344,0.1396484c0.0234375,0.0273438,0.0556641,0.0410156,0.0947266,0.0410156
			s0.1083984-0.0371094,0.2060547-0.1103516c0.2246094-0.1708984,0.4345703-0.3955078,0.6318359-0.6748047l0.1943359,0.1220703
			c-0.0986328,0.1552734-0.2724609,0.3681641-0.5224609,0.6396484c-0.2490234,0.2714844-0.4628906,0.4560547-0.6396484,0.5527344
			s-0.3398438,0.1455078-0.4892578,0.1455078c-0.1376953,0-0.2529297-0.046875-0.3457031-0.1396484
			c-0.0917969-0.0927734-0.1376953-0.2070313-0.1376953-0.3427734c0-0.1865234,0.0800781-0.5605469,0.2412109-1.1230469
			l0.5371094-1.8671875c0.1210938-0.4296875,0.1865234-0.6689453,0.1943359-0.7148438
			c0.0117188-0.0742188,0.0175781-0.1455078,0.0175781-0.2158203c0-0.0966797-0.0214844-0.171875-0.0644531-0.2265625
			c-0.0478516-0.0537109-0.1005859-0.0810547-0.1591797-0.0810547c-0.1650391,0-0.3408203,0.0830078-0.5253906,0.25
			c-0.5429688,0.4921875-1.0498047,1.1826172-1.5214844,2.0703125c-0.3105469,0.5859375-0.6015625,1.3359375-0.8730469,2.2509766
			h-0.890625l1.0087891-3.5185547c0.1103516-0.3798828,0.1650391-0.6337891,0.1650391-0.7626953
			c0-0.1044922-0.0214844-0.1816406-0.0644531-0.2324219c-0.0439453-0.0498047-0.0966797-0.0751953-0.1601563-0.0751953
			c-0.1289063,0-0.2666016,0.0458984-0.4121094,0.1396484c-0.2363281,0.1513672-0.5400391,0.4746094-0.9111328,0.9707031
			c-0.3720703,0.4970703-0.6601563,0.9716797-0.8642578,1.4257813c-0.0986328,0.2128906-0.3330078,0.8974609-0.7021484,2.0527344
			h-0.8730469l1.0908203-3.7685547l0.1416016-0.4892578c0.0283203-0.0732422,0.0419922-0.1279297,0.0419922-0.1621094
			c0-0.0859375-0.0400391-0.1621094-0.1181641-0.2304688c-0.0791016-0.0673828-0.1787109-0.1015625-0.3007813-0.1015625
			c-0.0507813,0-0.1923828,0.0234375-0.4248047,0.0703125l-0.0527344-0.2158203L113.1936493,85.8511276z"/>
		<path id="XMLID_38_" class="st0" d="M125.555954,86.2114792l-0.1708984,0.6054688h-0.984375
			c0.0742188,0.2089844,0.1113281,0.4052734,0.1113281,0.5869141c0,0.5117188-0.2197266,0.9677734-0.6601563,1.3671875
			c-0.4443359,0.3994141-1.0537109,0.6201172-1.828125,0.6630859c-0.4169922,0.1240234-0.7294922,0.2705078-0.9384766,0.4423828
			c-0.078125,0.0615234-0.1181641,0.125-0.1181641,0.1914063c0,0.0771484,0.0361328,0.1484375,0.1064453,0.2119141
			c0.0712891,0.0644531,0.25,0.1289063,0.5371094,0.1953125l1.1435547,0.2617188
			c0.6337891,0.1474609,1.0527344,0.3212891,1.2568359,0.5234375c0.2001953,0.2050781,0.3007813,0.4423828,0.3007813,0.7099609
			c0,0.3173828-0.1191406,0.6083984-0.3564453,0.8720703c-0.2382813,0.2636719-0.5859375,0.4697266-1.0439453,0.6191406
			c-0.4589844,0.1494141-0.9648438,0.2246094-1.5195313,0.2246094c-0.4873047,0-0.9316406-0.0576172-1.3330078-0.171875
			c-0.4003906-0.1142578-0.6875-0.2685547-0.8603516-0.4628906c-0.1738281-0.1933594-0.2597656-0.3935547-0.2597656-0.5986328
			c0-0.1669922,0.0556641-0.3408203,0.1679688-0.5205078c0.1123047-0.1806641,0.2529297-0.3291016,0.421875-0.4453125
			c0.1054688-0.0732422,0.4072266-0.2480469,0.9023438-0.5234375c-0.1806641-0.1396484-0.2714844-0.2929688-0.2714844-0.4589844
			c0-0.1552734,0.0800781-0.3203125,0.2392578-0.4951172c0.1591797-0.1738281,0.4960938-0.3662109,1.0107422-0.5751953
			c-0.4326172-0.0810547-0.7753906-0.2597656-1.0283203-0.5351563c-0.2539063-0.2753906-0.3808594-0.5820313-0.3808594-0.9189453
			c0-0.5507813,0.2451172-1.0429688,0.734375-1.4775391s1.1416016-0.6513672,1.9550781-0.6513672
			c0.2949219,0,0.5371094,0.0292969,0.7255859,0.0869141c0.1884766,0.0585938,0.3710938,0.1494141,0.5488281,0.2734375H125.555954z
			 M120.6848602,91.1147995c-0.3193359,0.1435547-0.5595703,0.328125-0.7226563,0.5527344s-0.2451172,0.4453125-0.2451172,0.6630859
			c0,0.2558594,0.1181641,0.4667969,0.3535156,0.6337891c0.3388672,0.2402344,0.8339844,0.3603516,1.4863281,0.3603516
			c0.5625,0,1.0429688-0.09375,1.4423828-0.2822266c0.3994141-0.1875,0.5986328-0.4306641,0.5986328-0.7294922
			c0-0.1513672-0.0732422-0.2949219-0.2207031-0.4306641s-0.4335938-0.2460938-0.8583984-0.3310547
			C122.2864227,91.5044479,121.6750946,91.3589401,120.6848602,91.1147995z M123.5100555,87.1245651
			c0-0.3095703-0.0878906-0.5537109-0.2626953-0.7324219s-0.4042969-0.2675781-0.6875-0.2675781
			c-0.4443359,0-0.8105469,0.2197266-1.0996094,0.6601563s-0.4335938,0.8984375-0.4335938,1.3759766
			c0,0.2978516,0.0917969,0.5419922,0.2773438,0.7324219c0.1845703,0.1904297,0.4082031,0.2851563,0.671875,0.2851563
			c0.2089844,0,0.4101563-0.0566406,0.6044922-0.1689453c0.1953125-0.1123047,0.359375-0.2675781,0.4931641-0.4648438
			c0.1328125-0.1982422,0.2392578-0.4501953,0.3183594-0.7568359
			C123.4700165,87.481987,123.5100555,87.2603073,123.5100555,87.1245651z"/>
	</g>
</g>
<g id="XMLID_15_">
	<g id="XMLID_16_">
		<path id="XMLID_34_" class="st0" d="M99.6096649,48.8315926l2.4560547,6.2192383l1.3310547-4.6455078
			c0.109375-0.3823242,0.1640625-0.6787109,0.1640625-0.8891602c0-0.1445313-0.0507813-0.2578125-0.1523438-0.3393555
			c-0.1015625-0.0820313-0.2910156-0.1230469-0.5683594-0.1230469c-0.046875,0-0.0957031-0.0019531-0.1464844-0.0058594
			l0.0644531-0.2163086h2.5556641l-0.0703125,0.2163086c-0.265625-0.0039063-0.4628906,0.0234375-0.5917969,0.0820313
			c-0.1845703,0.0820313-0.3212891,0.1870117-0.4111328,0.315918c-0.125,0.1831055-0.2519531,0.5029297-0.3808594,0.9594727
			l-1.8701172,6.5419922h-0.2109375l-2.6435547-6.6938477l-1.4130859,4.9438477
			c-0.1054688,0.375-0.1582031,0.6611328-0.1582031,0.8603516c0,0.1484375,0.0478516,0.2607422,0.1435547,0.3369141
			c0.0957031,0.0751953,0.3232422,0.1269531,0.6826172,0.1542969l-0.0585938,0.2167969h-2.4970703l0.0820313-0.2167969
			c0.3125-0.0078125,0.5214844-0.0351563,0.6269531-0.0820313c0.1611328-0.0693359,0.2802734-0.1611328,0.3583984-0.2744141
			c0.1132813-0.171875,0.2402344-0.5029297,0.3808594-0.9951172l1.5771484-5.5175781
			c-0.1523438-0.2338867-0.3164063-0.3950195-0.4902344-0.4824219c-0.1738281-0.0878906-0.4443359-0.1376953-0.8115234-0.1494141
			l0.0644531-0.2163086H99.6096649z"/>
	</g>
</g>
<g id="XMLID_17_">
	<g id="XMLID_30_">
		<path id="XMLID_32_" class="st0" d="M88.4768524,14.0230007h6.0595703l-0.6523438,2.09375h-0.2236328
			c0.0742188-0.3061523,0.1113281-0.5795898,0.1113281-0.8198242c0-0.2832031-0.0878906-0.496582-0.2646484-0.6401367
			c-0.1337891-0.1083984-0.4765625-0.1625977-1.0292969-0.1625977h-0.6298828l-1.5771484,5.4326172
			c-0.1992188,0.6826172-0.2998047,1.1035156-0.2998047,1.2617188c0,0.1474609,0.0625,0.2685547,0.1884766,0.3642578
			c0.125,0.0947266,0.3466797,0.1425781,0.6650391,0.1425781h0.2705078l-0.0703125,0.2148438h-3.4716797l0.0644531-0.2148438
			h0.1533203c0.3056641,0,0.5410156-0.0488281,0.7060547-0.1455078c0.1132813-0.0664063,0.2167969-0.1855469,0.3085938-0.3583984
			c0.0927734-0.171875,0.2207031-0.5380859,0.3857422-1.0957031l1.6533203-5.6015625h-0.4765625
			c-0.4589844,0-0.8291016,0.0581055-1.109375,0.1743164s-0.5068359,0.2851563-0.6796875,0.5058594
			c-0.171875,0.2211914-0.3134766,0.5351563-0.4228516,0.9423828h-0.2177734L88.4768524,14.0230007z"/>
	</g>
</g>
<circle id="XMLID_121_" class="st1" cx="33.7521629" cy="60.3828011" r="14.4641752"/>
<g id="XMLID_8_">
	<g id="XMLID_122_">
		<path id="XMLID_22_" class="st0" d="M30.5349541,7.8311057h0.9824219l-1.6669922,2.6713872
			c-0.1074219,0.168457-0.2773438,0.4321289-0.5087891,0.7924805c-0.0537109,0.6025391-0.0615234,0.9628906-0.0263672,1.0800781
			c0.0703125,0.2158203,0.2138672,0.3232422,0.4306641,0.3232422c0.1572266,0,0.3251953-0.0644531,0.5029297-0.1933594
			c0.1777344-0.1298828,0.3339844-0.3310547,0.4697266-0.6044922h0.2373047
			c-0.2451172,0.5625-0.4951172,0.9521484-0.7509766,1.1679688c-0.2558594,0.2148438-0.5048828,0.3232422-0.7451172,0.3232422
			c-0.2246094,0-0.3974609-0.0947266-0.5175781-0.2822266c-0.1210938-0.1884766-0.1503906-0.5908203-0.0878906-1.2089844
			c-0.2880859,0.3398438-0.5449219,0.5986328-0.7695313,0.7744141c-0.3149414,0.2431641-0.6279297,0.4238281-0.9404297,0.5439453
			c-0.3125,0.1181641-0.6420898,0.1787109-0.9897461,0.1787109c-0.8720703,0-1.4155273-0.2880859-1.6337891-0.8632813
			c-0.2167969-0.5751953-0.2016602-1.2314453,0.0454102-1.9667969c0.2900391-0.8618164,0.765625-1.559082,1.4267578-2.0942383
			c0.659668-0.5341802,1.3134766-0.8007817,1.9609375-0.8007817c0.4501953,0,0.8007813,0.1362305,1.0527344,0.4077153
			c0.2519531,0.2719727,0.3935547,0.7783203,0.4257813,1.5180664L30.5349541,7.8311057z M29.0046806,10.2554226
			c0.0576172-0.8061523-0.0273438-1.3681641-0.2568359-1.6875C28.5203056,8.2485867,28.2322197,8.089407,27.88554,8.089407
			c-0.3867188,0-0.7792969,0.2099609-1.1767578,0.6313477c-0.3984375,0.4199219-0.7519531,1.0913086-1.0605469,2.0107422
			c-0.1826172,0.5439453-0.2719727,0.9716797-0.2651367,1.2822266c0.0058594,0.3115234,0.0913086,0.5517578,0.2573242,0.7226563
			c0.1655273,0.1699219,0.3720703,0.2548828,0.6210938,0.2548828c0.3037109,0,0.6289063-0.1386719,0.9750977-0.4160156
			C27.7058525,12.1992702,28.2947197,11.4268093,29.0046806,10.2554226z"/>
	</g>
</g>
<path id="XMLID_123_" class="st2" d="M12.4300241,20.8157387c4.782649,0,7.3789568-0.8946533,10.7311277-2.9939327"/>
<g id="XMLID_124_">
	<g id="XMLID_26_">
		<g id="XMLID_27_">
			<polygon id="XMLID_31_" class="st0" points="101.7770844,29.5194302 103.4555817,28.420126 96.1700897,21.9090176 
				99.2233734,31.191946 100.9019928,30.0925503 115.9620514,53.0875435 116.8371429,52.5144234 			"/>
		</g>
	</g>
</g>
<circle id="XMLID_7_" class="st1" cx="104.0816803" cy="60.3828011" r="20.6631069"/>
<circle id="XMLID_4_" class="st1" cx="104.0816803" cy="60.3828011" r="14.4641752"/>
<g id="XMLID_18_">
	<g id="XMLID_19_">
		<path id="XMLID_20_" class="st0" d="M78.2932587,39.2280769l-0.1064453,0.3833008h-0.8642578l-0.6513672,2.5390625
			c-0.2871094,1.1191406-0.5771484,1.984375-0.8696289,2.5957031c-0.4145508,0.8642578-0.8603516,1.4599609-1.3378906,1.7900391
			c-0.362793,0.2509766-0.7260742,0.3769531-1.0888672,0.3769531c-0.2368164,0-0.4379883-0.0693359-0.6040039-0.2089844
			c-0.1220703-0.0966797-0.1835938-0.2226563-0.1835938-0.3779297c0-0.1240234,0.0507813-0.2314453,0.1513672-0.3222656
			s0.2236328-0.1367188,0.3696289-0.1367188c0.1064453,0,0.1962891,0.0332031,0.2695313,0.0996094
			c0.0727539,0.0654297,0.109375,0.140625,0.109375,0.2265625c0,0.0849609-0.0415039,0.1640625-0.1245117,0.2373047
			c-0.0629883,0.0546875-0.0942383,0.0957031-0.0942383,0.1220703c0,0.0351563,0.0136719,0.0625,0.0410156,0.0820313
			c0.0356445,0.0263672,0.0908203,0.0400391,0.1660156,0.0400391c0.1694336,0,0.3481445-0.0517578,0.5356445-0.15625
			s0.3540039-0.2607422,0.5-0.4677734s0.2841797-0.5068359,0.4145508-0.8974609
			c0.0551758-0.1630859,0.203125-0.6992188,0.4438477-1.609375l1.0302734-3.9326172h-1.0302734l0.0825195-0.3833008
			c0.3276367,0,0.5571289-0.0224609,0.6870117-0.0668945s0.25-0.1298828,0.3583984-0.2553711
			c0.1074219-0.1259766,0.2490234-0.3613281,0.4228516-0.7060547c0.2324219-0.4648438,0.4560547-0.824707,0.6689453-1.0805664
			c0.2919922-0.3447266,0.5986328-0.6030273,0.9199219-0.7753906s0.625-0.2583008,0.9091797-0.2583008
			c0.2998047,0,0.5400391,0.0742188,0.7216797,0.2236328c0.1816406,0.1489258,0.2724609,0.3105469,0.2724609,0.4848633
			c0,0.1357422-0.0458984,0.25-0.1367188,0.3427734s-0.2070313,0.1391602-0.3486328,0.1391602
			c-0.1220703,0-0.2216797-0.034668-0.2988281-0.1044922c-0.0771484-0.0693359-0.1152344-0.152832-0.1152344-0.2495117
			c0-0.0620117,0.0253906-0.1386719,0.0761719-0.2294922c0.0517578-0.0908203,0.0771484-0.1518555,0.0771484-0.1831055
			c0-0.0541992-0.0175781-0.0947266-0.0527344-0.1220703c-0.0517578-0.0385742-0.1269531-0.0581055-0.2255859-0.0581055
			c-0.2480469,0-0.4716797,0.0776367-0.6689453,0.2324219c-0.2636719,0.2055664-0.5009766,0.5268555-0.7099609,0.9643555
			c-0.1064453,0.2285156-0.3017578,0.7958984-0.5859375,1.7021484H78.2932587z"/>
	</g>
</g>
<g id="XMLID_9_">
	<g id="XMLID_134_">
		<g id="XMLID_135_">
			<polygon id="XMLID_136_" class="st0" points="83.9417877,48.1912727 85.9482269,48.1912727 83.4208527,38.7527657 
				80.8891144,48.1912727 82.8957062,48.1912727 82.8957062,60.3828926 83.9417877,60.3828926 			"/>
		</g>
	</g>
</g>
<g id="XMLID_12_">
</g>
<g id="XMLID_44_">
</g>
<g id="XMLID_45_">
</g>
<g id="XMLID_46_">
</g>
<g id="XMLID_47_">
</g>
<g id="XMLID_48_">
</g>
</svg>
