<?xml version="1.0" encoding="UTF-8"?>
<svg xmlns="http://www.w3.org/2000/svg" xmlns:xlink="http://www.w3.org/1999/xlink" width="143.04pt" height="111.96pt" viewBox="0 0 143.04 111.96" version="1.1">
<g id="surface1">
<path style=" stroke:none;fill-rule:nonzero;fill:rgb(0%,0%,0%);fill-opacity:1;" d="M 22.523438 104.5 L 22.523438 32.339844 L 23.523438 32.339844 L 23.523438 104.5 C 23.523438 104.777344 23.300781 105 23.023438 105 C 22.75 105 22.523438 104.777344 22.523438 104.5 Z M 23.023438 24.359375 L 20.027344 34.34375 L 22.523438 32.347656 L 23.523438 32.347656 L 26.019531 34.34375 Z M 23.023438 24.359375 "/>
<path style=" stroke:none;fill-rule:nonzero;fill:rgb(0%,0%,0%);fill-opacity:1;" d="M 23.023438 104.003906 L 114.910156 104.003906 L 114.910156 105 L 23.023438 105 C 22.75 105 22.523438 104.777344 22.523438 104.5 C 22.523438 104.226563 22.75 104.003906 23.023438 104.003906 Z M 122.890625 104.5 L 112.90625 101.503906 L 114.902344 104.003906 L 114.902344 105 L 112.90625 107.496094 Z M 122.890625 104.5 "/>
<path style=" stroke:none;fill-rule:nonzero;fill:rgb(0%,0%,0%);fill-opacity:1;" d="M 24.597656 103.445313 L 113.351563 79.664063 L 113.609375 80.628906 L 24.855469 104.410156 C 24.589844 104.480469 24.316406 104.324219 24.242188 104.058594 C 24.171875 103.792969 24.332031 103.515625 24.597656 103.445313 Z M 121.191406 78.082031 L 110.769531 77.769531 L 113.34375 79.664063 L 113.601563 80.628906 L 112.320313 83.558594 Z M 121.191406 78.082031 "/>
<path style=" stroke:none;fill-rule:nonzero;fill:rgb(0%,0%,0%);fill-opacity:1;" d="M 23.101563 104.480469 L 46.882813 15.726563 L 47.847656 15.984375 L 24.066406 104.738281 C 23.992188 105.003906 23.71875 105.164063 23.453125 105.089844 C 23.1875 105.019531 23.03125 104.746094 23.101563 104.480469 Z M 49.429688 8.144531 L 43.953125 17.015625 L 46.882813 15.734375 L 47.847656 15.992188 L 49.738281 18.566406 Z M 49.429688 8.144531 "/>
<path style=" stroke:none;fill-rule:evenodd;fill:rgb(0%,0%,0%);fill-opacity:1;" d="M 135.484375 109.003906 C 134.800781 108.96875 134.179688 108.949219 133.621094 108.949219 L 133.605469 108.949219 C 132.941406 108.949219 132.234375 108.96875 131.480469 109.003906 L 131.480469 107.960938 L 132.09375 107.960938 L 130.972656 106.371094 L 129.75 107.984375 C 129.761719 107.96875 129.769531 107.949219 129.769531 107.921875 C 129.769531 107.871094 129.757813 107.84375 129.734375 107.835938 C 129.789063 107.863281 129.835938 107.886719 129.878906 107.90625 C 130.027344 107.945313 130.246094 107.960938 130.542969 107.960938 L 130.542969 109.003906 C 129.914063 108.96875 129.328125 108.949219 128.789063 108.949219 L 128.644531 108.949219 C 128.175781 108.949219 127.644531 108.96875 127.046875 109.003906 L 127.046875 107.960938 C 127.320313 107.960938 127.542969 107.960938 127.707031 107.953125 C 127.875 107.949219 128.042969 107.9375 128.207031 107.914063 C 128.289063 107.894531 128.363281 107.878906 128.429688 107.863281 C 128.5 107.851563 128.542969 107.832031 128.5625 107.804688 L 130.316406 105.46875 L 128.3125 102.621094 L 127.125 102.621094 L 127.125 101.578125 C 127.515625 101.59375 127.847656 101.605469 128.128906 101.609375 C 128.410156 101.617188 128.691406 101.617188 128.976563 101.617188 L 129.671875 101.617188 C 129.890625 101.617188 130.109375 101.617188 130.320313 101.609375 C 130.535156 101.605469 130.800781 101.59375 131.125 101.578125 L 131.125 102.621094 L 130.511719 102.621094 L 131.457031 103.953125 L 132.488281 102.582031 C 132.480469 102.597656 132.472656 102.617188 132.472656 102.636719 C 132.472656 102.679688 132.488281 102.710938 132.515625 102.722656 C 132.464844 102.714844 132.410156 102.699219 132.351563 102.675781 C 132.207031 102.640625 131.992188 102.621094 131.707031 102.621094 L 131.707031 101.578125 C 132.074219 101.59375 132.386719 101.605469 132.652344 101.609375 C 132.914063 101.617188 133.179688 101.617188 133.441406 101.617188 L 133.589844 101.617188 C 133.832031 101.617188 134.070313 101.617188 134.304688 101.609375 C 134.542969 101.605469 134.839844 101.59375 135.195313 101.578125 L 135.195313 102.621094 C 134.921875 102.621094 134.699219 102.625 134.527344 102.628906 C 134.359375 102.636719 134.191406 102.648438 134.023438 102.667969 C 133.953125 102.679688 133.886719 102.691406 133.816406 102.699219 C 133.75 102.710938 133.710938 102.730469 133.691406 102.753906 L 132.101563 104.855469 L 134.28125 107.960938 L 135.484375 107.960938 Z M 135.484375 109.003906 "/>
<path style=" stroke:none;fill-rule:evenodd;fill:rgb(0%,0%,0%);fill-opacity:1;" d="M 13.023438 29.917969 C 13.023438 30.179688 12.980469 30.4375 12.898438 30.6875 C 12.816406 30.9375 12.699219 31.164063 12.550781 31.363281 C 12.402344 31.566406 12.21875 31.730469 11.992188 31.859375 C 11.769531 31.988281 11.515625 32.050781 11.222656 32.050781 C 10.90625 32.050781 10.574219 32.019531 10.234375 31.960938 C 9.890625 31.902344 9.574219 31.753906 9.285156 31.523438 C 9.019531 31.328125 8.835938 31.085938 8.726563 30.796875 C 8.621094 30.507813 8.566406 30.214844 8.566406 29.917969 L 8.566406 25.582031 L 7.523438 25.582031 L 7.523438 24.71875 C 7.957031 24.71875 8.292969 24.632813 8.542969 24.464844 C 8.789063 24.292969 8.996094 24.0625 9.164063 23.773438 C 9.332031 23.484375 9.457031 23.152344 9.542969 22.773438 C 9.628906 22.398438 9.671875 21.96875 9.671875 21.480469 L 10.738281 21.480469 L 10.738281 24.546875 L 12.742188 24.546875 L 12.742188 25.582031 L 10.738281 25.582031 L 10.738281 29.917969 C 10.738281 30.117188 10.75 30.296875 10.777344 30.464844 C 10.804688 30.628906 10.859375 30.769531 10.941406 30.890625 C 11.019531 31.039063 11.15625 31.109375 11.34375 31.109375 C 11.527344 31.109375 11.675781 31.003906 11.789063 30.789063 C 11.902344 30.574219 11.957031 30.285156 11.957031 29.917969 L 11.957031 28.835938 L 13.023438 28.835938 Z M 13.023438 29.917969 "/>
<path style=" stroke:none;fill-rule:evenodd;fill:rgb(0%,0%,0%);fill-opacity:1;" d="M 41.21875 14.167969 C 41.21875 14.429688 41.175781 14.6875 41.09375 14.9375 C 41.007813 15.1875 40.894531 15.414063 40.746094 15.617188 C 40.597656 15.816406 40.410156 15.984375 40.1875 16.109375 C 39.964844 16.238281 39.707031 16.300781 39.417969 16.300781 C 39.097656 16.300781 38.769531 16.273438 38.425781 16.210938 C 38.085938 16.152344 37.769531 16.007813 37.476563 15.777344 C 37.214844 15.578125 37.027344 15.335938 36.921875 15.046875 C 36.8125 14.761719 36.757813 14.46875 36.757813 14.167969 L 36.757813 9.832031 L 35.71875 9.832031 L 35.71875 8.972656 C 36.148438 8.972656 36.488281 8.886719 36.734375 8.714844 C 36.984375 8.546875 37.191406 8.316406 37.355469 8.027344 C 37.523438 7.738281 37.648438 7.402344 37.738281 7.027344 C 37.824219 6.648438 37.867188 6.21875 37.867188 5.734375 L 38.933594 5.734375 L 38.933594 8.796875 L 40.933594 8.796875 L 40.933594 9.832031 L 38.933594 9.832031 L 38.933594 14.167969 C 38.933594 14.367188 38.945313 14.550781 38.972656 14.714844 C 39 14.878906 39.054688 15.023438 39.132813 15.140625 C 39.214844 15.289063 39.347656 15.363281 39.539063 15.359375 C 39.722656 15.363281 39.867188 15.253906 39.980469 15.039063 C 40.09375 14.824219 40.152344 14.535156 40.152344 14.167969 L 40.152344 13.085938 L 41.21875 13.085938 Z M 41.21875 14.167969 "/>
<path style=" stroke:none;fill-rule:evenodd;fill:rgb(0%,0%,0%);fill-opacity:1;" d="M 46.261719 6.902344 C 46.261719 7.628906 46.101563 8.308594 45.785156 8.945313 C 45.46875 9.585938 45.015625 10.140625 44.429688 10.609375 C 44.347656 10.65625 44.273438 10.679688 44.203125 10.679688 C 44.113281 10.679688 44.023438 10.640625 43.9375 10.5625 L 43.808594 10.445313 C 43.753906 10.371094 43.726563 10.289063 43.726563 10.203125 C 43.726563 10.101563 43.769531 10.019531 43.855469 9.949219 C 44.296875 9.570313 44.65625 9.136719 44.929688 8.648438 C 45.203125 8.164063 45.351563 7.753906 45.367188 7.425781 C 45.277344 7.511719 45.027344 7.550781 44.613281 7.550781 C 44.136719 7.550781 43.777344 7.40625 43.535156 7.121094 C 43.296875 6.832031 43.175781 6.515625 43.175781 6.171875 C 43.175781 5.820313 43.296875 5.503906 43.535156 5.214844 C 43.777344 4.929688 44.136719 4.78125 44.613281 4.78125 C 44.894531 4.78125 45.140625 4.851563 45.351563 4.980469 C 45.558594 5.109375 45.734375 5.277344 45.871094 5.476563 C 46.007813 5.679688 46.105469 5.90625 46.167969 6.15625 C 46.230469 6.40625 46.261719 6.65625 46.261719 6.902344 Z M 46.261719 6.902344 "/>
<path style=" stroke:none;fill-rule:evenodd;fill:rgb(0%,0%,0%);fill-opacity:1;" d="M 127.894531 82.476563 C 127.210938 82.4375 126.589844 82.421875 126.027344 82.421875 L 126.011719 82.421875 C 125.351563 82.421875 124.640625 82.4375 123.886719 82.476563 L 123.886719 81.433594 L 124.503906 81.433594 L 123.378906 79.839844 L 122.160156 81.457031 C 122.171875 81.441406 122.175781 81.417969 122.175781 81.394531 C 122.175781 81.339844 122.164063 81.3125 122.144531 81.308594 C 122.199219 81.332031 122.246094 81.355469 122.289063 81.378906 C 122.433594 81.414063 122.65625 81.433594 122.953125 81.433594 L 122.953125 82.476563 C 122.320313 82.4375 121.738281 82.421875 121.199219 82.421875 L 121.054688 82.421875 C 120.585938 82.421875 120.050781 82.4375 119.453125 82.476563 L 119.453125 81.433594 C 119.730469 81.433594 119.949219 81.429688 120.117188 81.425781 C 120.285156 81.421875 120.449219 81.40625 120.617188 81.386719 C 120.699219 81.363281 120.773438 81.347656 120.839844 81.335938 C 120.90625 81.320313 120.953125 81.300781 120.972656 81.277344 L 122.726563 78.9375 L 120.722656 76.09375 L 119.535156 76.09375 L 119.535156 75.050781 C 119.921875 75.066406 120.257813 75.074219 120.535156 75.082031 C 120.816406 75.085938 121.101563 75.089844 121.386719 75.089844 L 122.078125 75.089844 C 122.300781 75.089844 122.515625 75.085938 122.730469 75.082031 C 122.941406 75.074219 123.210938 75.066406 123.53125 75.050781 L 123.53125 76.09375 L 122.917969 76.09375 L 123.863281 77.425781 L 124.898438 76.054688 C 124.886719 76.070313 124.882813 76.089844 124.882813 76.109375 C 124.882813 76.152344 124.894531 76.179688 124.921875 76.195313 C 124.875 76.183594 124.820313 76.167969 124.761719 76.148438 C 124.617188 76.109375 124.398438 76.09375 124.113281 76.09375 L 124.113281 75.050781 C 124.480469 75.066406 124.796875 75.074219 125.058594 75.082031 C 125.324219 75.085938 125.585938 75.089844 125.851563 75.089844 L 125.996094 75.089844 C 126.238281 75.089844 126.480469 75.085938 126.714844 75.082031 C 126.953125 75.074219 127.25 75.066406 127.605469 75.050781 L 127.605469 76.09375 C 127.328125 76.09375 127.105469 76.097656 126.9375 76.101563 C 126.769531 76.105469 126.597656 76.117188 126.433594 76.140625 C 126.363281 76.152344 126.292969 76.160156 126.226563 76.171875 C 126.160156 76.183594 126.117188 76.199219 126.101563 76.226563 L 124.511719 78.328125 L 126.691406 81.433594 L 127.894531 81.433594 Z M 127.894531 82.476563 "/>
<path style=" stroke:none;fill-rule:evenodd;fill:rgb(0%,0%,0%);fill-opacity:1;" d="M 132.296875 73.160156 C 132.296875 73.886719 132.136719 74.570313 131.820313 75.207031 C 131.503906 75.84375 131.050781 76.398438 130.464844 76.867188 C 130.382813 76.917969 130.308594 76.941406 130.238281 76.9375 C 130.148438 76.941406 130.058594 76.902344 129.972656 76.820313 L 129.84375 76.703125 C 129.789063 76.632813 129.761719 76.550781 129.761719 76.460938 C 129.761719 76.363281 129.804688 76.277344 129.890625 76.210938 C 130.332031 75.828125 130.691406 75.394531 130.964844 74.910156 C 131.238281 74.421875 131.386719 74.015625 131.402344 73.6875 C 131.316406 73.769531 131.066406 73.8125 130.652344 73.8125 C 130.171875 73.8125 129.8125 73.667969 129.574219 73.378906 C 129.332031 73.09375 129.214844 72.777344 129.214844 72.429688 C 129.214844 72.082031 129.332031 71.761719 129.574219 71.472656 C 129.8125 71.1875 130.171875 71.042969 130.652344 71.042969 C 130.929688 71.042969 131.175781 71.109375 131.386719 71.238281 C 131.59375 71.371094 131.769531 71.535156 131.90625 71.738281 C 132.042969 71.9375 132.144531 72.164063 132.203125 72.414063 C 132.265625 72.664063 132.296875 72.914063 132.296875 73.160156 Z M 132.296875 73.160156 "/>
<path style="fill:none;stroke-width:15;stroke-linecap:round;stroke-linejoin:round;stroke:rgb(0%,0%,100%);stroke-opacity:1;stroke-miterlimit:10;" d="M 322.048641 51.548608 L 1162.813265 1507.833301 " transform="matrix(0.0665782,0,0,-0.0665783,0,111.84999)"/>
<path style="fill:none;stroke-width:7.5;stroke-linecap:round;stroke-linejoin:round;stroke:rgb(100%,0%,0%);stroke-opacity:1;stroke-dasharray:30,15;stroke-miterlimit:10;" d="M 632.421625 1113.267628 L 990.964026 1209.195491 " transform="matrix(0.0665782,0,0,-0.0665783,0,111.84999)"/>
<path style="fill:none;stroke-width:7.5;stroke-linecap:round;stroke-linejoin:round;stroke:rgb(100%,0%,0%);stroke-opacity:1;stroke-dasharray:30,15;stroke-miterlimit:10;" d="M 727.939057 212.132437 L 990.964026 1192.708806 " transform="matrix(0.0665782,0,0,-0.0665783,0,111.84999)"/>
<path style="fill:none;stroke-width:15;stroke-linecap:round;stroke-linejoin:round;stroke:rgb(21.998596%,46.299744%,11.399841%);stroke-opacity:1;stroke-miterlimit:10;" d="M 1198.192265 339.273524 C 1239.731787 269.571811 1261.733652 189.895947 1261.733652 108.753297 " transform="matrix(0.0665782,0,0,-0.0665783,0,111.84999)"/>
<path style=" stroke:none;fill-rule:evenodd;fill:rgb(41.598511%,65.899658%,30.999756%);fill-opacity:1;" d="M 95.359375 96.441406 C 95.359375 97.164063 95.292969 97.882813 95.15625 98.597656 C 95.023438 99.308594 94.753906 99.980469 94.351563 100.609375 C 94.042969 101.082031 93.636719 101.472656 93.132813 101.78125 C 92.632813 102.085938 92.082031 102.238281 91.484375 102.238281 C 90.859375 102.238281 90.289063 102.082031 89.769531 101.765625 C 89.253906 101.449219 88.828125 101.039063 88.496094 100.535156 C 88.074219 99.898438 87.796875 99.21875 87.664063 98.496094 C 87.527344 97.769531 87.460938 97.050781 87.460938 96.335938 C 87.460938 95.617188 87.53125 94.902344 87.675781 94.191406 C 87.816406 93.476563 88.085938 92.808594 88.480469 92.1875 C 88.785156 91.707031 89.191406 91.3125 89.695313 91.003906 C 90.199219 90.695313 90.753906 90.539063 91.363281 90.539063 C 91.976563 90.539063 92.542969 90.699219 93.058594 91.019531 C 93.574219 91.335938 94 91.746094 94.332031 92.242188 C 94.753906 92.890625 95.03125 93.574219 95.160156 94.292969 C 95.292969 95.011719 95.359375 95.726563 95.359375 96.441406 Z M 92.984375 95.871094 C 92.984375 95.339844 92.964844 94.769531 92.929688 94.164063 C 92.890625 93.554688 92.792969 93.023438 92.628906 92.5625 C 92.5 92.210938 92.335938 91.933594 92.140625 91.71875 C 91.945313 91.507813 91.726563 91.402344 91.484375 91.402344 C 91.199219 91.402344 90.945313 91.523438 90.726563 91.757813 C 90.511719 91.996094 90.339844 92.296875 90.214844 92.65625 C 90.054688 93.105469 89.949219 93.625 89.902344 94.21875 C 89.859375 94.808594 89.835938 95.359375 89.835938 95.871094 Z M 89.835938 96.90625 C 89.835938 97.449219 89.855469 98.027344 89.894531 98.636719 C 89.9375 99.246094 90.042969 99.777344 90.214844 100.238281 C 90.332031 100.578125 90.492188 100.855469 90.6875 101.066406 C 90.882813 101.277344 91.109375 101.382813 91.363281 101.382813 C 91.636719 101.382813 91.882813 101.265625 92.101563 101.03125 C 92.320313 100.796875 92.488281 100.5 92.613281 100.144531 C 92.785156 99.695313 92.890625 99.171875 92.929688 98.574219 C 92.964844 97.976563 92.984375 97.417969 92.984375 96.90625 Z M 89.835938 96.90625 "/>
<path style="fill:none;stroke-width:15;stroke-linecap:round;stroke-linejoin:round;stroke:rgb(21.998596%,46.299744%,11.399841%);stroke-opacity:1;stroke-miterlimit:10;" d="M 356.195536 756.310372 C 469.138446 776.14133 585.366968 752.203368 681.177759 689.307547 " transform="matrix(0.0665782,0,0,-0.0665783,0,111.84999)"/>
<path style=" stroke:none;fill-rule:evenodd;fill:rgb(41.598511%,65.899658%,30.999756%);fill-opacity:1;" d="M 41.429688 53.183594 C 41.429688 53.785156 41.296875 54.332031 41.023438 54.820313 C 40.753906 55.3125 40.394531 55.734375 39.953125 56.089844 C 39.511719 56.441406 39 56.714844 38.414063 56.902344 C 37.832031 57.09375 37.222656 57.1875 36.585938 57.1875 L 36.304688 57.1875 L 36.554688 59.457031 L 36.554688 59.589844 C 36.554688 59.867188 36.453125 60.089844 36.253906 60.261719 C 36.011719 60.445313 35.75 60.535156 35.464844 60.53125 C 35.183594 60.53125 34.929688 60.433594 34.703125 60.238281 C 34.503906 60.0625 34.40625 59.8125 34.40625 59.496094 L 34.40625 59.335938 L 34.65625 57 C 34.1875 56.914063 33.699219 56.757813 33.1875 56.539063 C 32.675781 56.320313 32.226563 56.046875 31.84375 55.71875 C 31.464844 55.394531 31.15625 55.007813 30.929688 54.566406 C 30.699219 54.125 30.585938 53.632813 30.585938 53.089844 C 30.585938 52.507813 30.636719 51.933594 30.738281 51.363281 C 30.839844 50.792969 31.074219 50.261719 31.441406 49.769531 C 31.5 49.695313 31.589844 49.652344 31.707031 49.652344 L 32.023438 49.652344 C 32.136719 49.652344 32.226563 49.6875 32.289063 49.75 C 32.359375 49.789063 32.417969 49.863281 32.46875 49.96875 C 32.46875 50.105469 32.445313 50.199219 32.402344 50.25 C 32.101563 50.65625 31.902344 51.113281 31.808594 51.617188 C 31.714844 52.125 31.667969 52.644531 31.667969 53.183594 C 31.667969 53.523438 31.75 53.8125 31.914063 54.054688 C 32.078125 54.292969 32.308594 54.5 32.609375 54.667969 C 32.90625 54.839844 33.261719 54.976563 33.667969 55.082031 C 34.074219 55.183594 34.46875 55.253906 34.851563 55.292969 L 34.9375 54.453125 C 34.992188 53.902344 35.082031 53.339844 35.203125 52.753906 C 35.328125 52.171875 35.515625 51.640625 35.765625 51.160156 C 36.015625 50.679688 36.34375 50.285156 36.742188 49.972656 C 37.144531 49.660156 37.644531 49.507813 38.242188 49.503906 C 38.730469 49.507813 39.171875 49.613281 39.566406 49.828125 C 39.960938 50.042969 40.292969 50.316406 40.566406 50.65625 C 40.84375 51 41.054688 51.386719 41.207031 51.828125 C 41.355469 52.265625 41.429688 52.71875 41.429688 53.183594 Z M 40.339844 53.089844 C 40.339844 52.839844 40.289063 52.605469 40.1875 52.394531 C 40.085938 52.183594 39.945313 52 39.769531 51.84375 C 39.589844 51.683594 39.378906 51.5625 39.136719 51.46875 C 38.894531 51.378906 38.636719 51.332031 38.355469 51.332031 C 37.984375 51.332031 37.648438 51.421875 37.34375 51.59375 C 37.042969 51.769531 36.785156 52.007813 36.570313 52.308594 C 36.355469 52.609375 36.199219 52.953125 36.101563 53.339844 C 36.035156 53.605469 36.003906 53.886719 36.003906 54.179688 C 36.003906 54.304688 36.011719 54.433594 36.019531 54.5625 L 36.101563 55.371094 L 36.472656 55.371094 C 36.980469 55.371094 37.46875 55.320313 37.941406 55.222656 C 38.417969 55.121094 38.828125 54.976563 39.183594 54.785156 C 39.535156 54.597656 39.816406 54.359375 40.027344 54.074219 C 40.238281 53.789063 40.339844 53.460938 40.339844 53.089844 Z M 40.339844 53.089844 "/>
<path style=" stroke:none;fill-rule:evenodd;fill:rgb(100%,0%,0%);fill-opacity:1;" d="M 57.457031 31.523438 C 57.457031 31.652344 57.417969 31.753906 57.332031 31.835938 C 57.25 31.917969 57.144531 31.957031 57.015625 31.957031 L 56.003906 31.957031 C 55.847656 31.957031 55.683594 31.941406 55.507813 31.90625 C 55.332031 31.871094 55.164063 31.8125 55.007813 31.722656 C 54.847656 31.632813 54.714844 31.515625 54.601563 31.371094 C 54.492188 31.230469 54.4375 31.046875 54.4375 30.820313 L 54.4375 31.289063 C 54.449219 31.273438 54.269531 31.398438 53.902344 31.660156 C 53.53125 31.921875 53.101563 32.050781 52.605469 32.050781 C 52.265625 32.050781 51.921875 32.015625 51.578125 31.945313 C 51.234375 31.875 50.917969 31.761719 50.625 31.601563 C 50.335938 31.441406 50.09375 31.234375 49.90625 30.984375 C 49.71875 30.734375 49.625 30.429688 49.625 30.066406 C 49.625 29.582031 49.777344 29.164063 50.085938 28.816406 C 50.390625 28.46875 50.753906 28.207031 51.175781 28.027344 C 51.679688 27.808594 52.195313 27.660156 52.722656 27.582031 C 53.246094 27.503906 53.730469 27.457031 54.179688 27.441406 L 54.179688 26.898438 C 54.179688 26.664063 54.152344 26.441406 54.097656 26.234375 C 54.042969 26.023438 53.953125 25.835938 53.824219 25.667969 C 53.710938 25.53125 53.582031 25.429688 53.433594 25.363281 C 53.285156 25.292969 53.128906 25.261719 52.96875 25.261719 C 52.785156 25.261719 52.605469 25.269531 52.433594 25.285156 C 52.261719 25.300781 52.195313 25.300781 52.234375 25.292969 C 52.210938 25.269531 52.238281 25.335938 52.316406 25.488281 C 52.394531 25.640625 52.433594 25.816406 52.433594 26.019531 C 52.433594 26.398438 52.3125 26.679688 52.0625 26.871094 C 51.816406 27.0625 51.542969 27.15625 51.246094 27.15625 C 50.960938 27.15625 50.695313 27.0625 50.449219 26.871094 C 50.199219 26.679688 50.078125 26.398438 50.078125 26.019531 C 50.078125 25.675781 50.171875 25.398438 50.367188 25.179688 C 50.5625 24.96875 50.804688 24.804688 51.097656 24.6875 C 51.390625 24.574219 51.703125 24.496094 52.03125 24.457031 C 52.359375 24.417969 52.671875 24.398438 52.96875 24.398438 C 53.386719 24.398438 53.804688 24.441406 54.214844 24.53125 C 54.628906 24.621094 55.011719 24.796875 55.367188 25.054688 C 55.667969 25.28125 55.90625 25.554688 56.085938 25.871094 C 56.261719 26.191406 56.351563 26.535156 56.351563 26.898438 L 56.351563 30.695313 C 56.351563 30.726563 56.398438 30.773438 56.496094 30.832031 C 56.59375 30.890625 56.765625 30.921875 57.015625 30.921875 C 57.136719 30.921875 57.242188 30.960938 57.328125 31.039063 C 57.414063 31.117188 57.457031 31.222656 57.457031 31.351563 Z M 54.179688 28.230469 C 53.976563 28.253906 53.726563 28.300781 53.433594 28.375 C 53.140625 28.445313 52.863281 28.550781 52.605469 28.6875 C 52.367188 28.839844 52.179688 29.035156 52.042969 29.273438 C 51.90625 29.515625 51.835938 29.78125 51.835938 30.066406 C 51.835938 30.382813 51.925781 30.644531 52.109375 30.859375 C 52.289063 31.074219 52.496094 31.179688 52.734375 31.179688 C 52.933594 31.179688 53.121094 31.144531 53.296875 31.070313 C 53.46875 30.996094 53.625 30.894531 53.753906 30.761719 C 53.886719 30.628906 53.992188 30.472656 54.066406 30.296875 C 54.140625 30.125 54.179688 29.933594 54.179688 29.730469 Z M 54.179688 28.230469 "/>
<path style=" stroke:none;fill-rule:evenodd;fill:rgb(100%,0%,0%);fill-opacity:1;" d="M 69.800781 61.722656 C 69.800781 62.226563 69.722656 62.71875 69.5625 63.199219 C 69.402344 63.683594 69.140625 64.109375 68.769531 64.480469 C 68.402344 64.847656 67.976563 65.113281 67.496094 65.277344 C 67.011719 65.445313 66.519531 65.527344 66.011719 65.527344 C 65.582031 65.527344 65.195313 65.445313 64.847656 65.28125 C 64.5 65.121094 64.226563 64.933594 64.027344 64.726563 L 63.277344 65.429688 L 62.296875 65.429688 L 62.296875 55.480469 C 62.296875 55.414063 62.289063 55.359375 62.273438 55.316406 C 62.257813 55.277344 62.238281 55.25 62.210938 55.246094 C 62.128906 55.207031 62 55.1875 61.820313 55.179688 C 61.636719 55.171875 61.417969 55.167969 61.160156 55.167969 L 61.160156 54.140625 L 64.390625 54 L 64.390625 58.429688 C 64.507813 58.335938 64.746094 58.226563 65.097656 58.105469 C 65.449219 57.980469 65.820313 57.921875 66.214844 57.921875 C 66.695313 57.921875 67.167969 58.007813 67.632813 58.183594 C 68.097656 58.359375 68.496094 58.625 68.832031 58.980469 C 69.1875 59.359375 69.4375 59.789063 69.582031 60.265625 C 69.726563 60.742188 69.800781 61.226563 69.800781 61.722656 Z M 67.410156 61.722656 C 67.410156 61.289063 67.398438 60.871094 67.371094 60.464844 C 67.34375 60.058594 67.265625 59.726563 67.144531 59.472656 C 67.03125 59.257813 66.882813 59.089844 66.695313 58.964844 C 66.511719 58.84375 66.304688 58.78125 66.085938 58.78125 C 65.757813 58.78125 65.449219 58.863281 65.164063 59.023438 C 64.878906 59.1875 64.652344 59.386719 64.480469 59.621094 L 64.480469 63.792969 C 64.640625 64.050781 64.84375 64.257813 65.085938 64.417969 C 65.328125 64.578125 65.597656 64.65625 65.898438 64.65625 C 66.148438 64.65625 66.378906 64.59375 66.589844 64.472656 C 66.804688 64.347656 66.972656 64.175781 67.09375 63.949219 C 67.242188 63.695313 67.328125 63.367188 67.363281 62.96875 C 67.394531 62.574219 67.410156 62.15625 67.410156 61.722656 Z M 67.410156 61.722656 "/>
<path style=" stroke:none;fill-rule:evenodd;fill:rgb(90.19928%,56.898499%,21.998596%);fill-opacity:1;" d="M 39.917969 76.710938 C 39.917969 76.84375 39.886719 76.960938 39.824219 77.058594 C 39.757813 77.160156 39.675781 77.242188 39.578125 77.304688 C 39.480469 77.371094 39.371094 77.417969 39.25 77.445313 C 39.128906 77.476563 39.011719 77.492188 38.898438 77.492188 C 38.554688 77.492188 38.246094 77.410156 37.964844 77.242188 C 37.683594 77.078125 37.476563 76.894531 37.335938 76.695313 C 37.0625 76.929688 36.726563 77.121094 36.324219 77.269531 C 35.925781 77.417969 35.492188 77.492188 35.027344 77.492188 C 34.65625 77.492188 34.285156 77.4375 33.914063 77.332031 C 33.542969 77.226563 33.207031 77.042969 32.910156 76.78125 C 32.625 76.53125 32.421875 76.246094 32.289063 75.914063 C 32.160156 75.585938 32.097656 75.246094 32.097656 74.894531 C 32.097656 74.546875 32.160156 74.214844 32.289063 73.898438 C 32.421875 73.578125 32.617188 73.300781 32.886719 73.058594 C 33.171875 72.804688 33.492188 72.625 33.851563 72.523438 C 34.210938 72.421875 34.578125 72.367188 34.949219 72.367188 C 35.292969 72.367188 35.621094 72.417969 35.9375 72.519531 C 36.257813 72.621094 36.550781 72.761719 36.820313 72.945313 C 37.089844 73.128906 37.320313 73.347656 37.519531 73.605469 C 37.714844 73.867188 37.863281 74.152344 37.960938 74.46875 L 37.992188 74.574219 C 38.035156 74.476563 38.085938 74.285156 38.144531 73.996094 C 38.207031 73.710938 38.234375 73.414063 38.234375 73.117188 C 38.234375 72.96875 38.308594 72.898438 38.457031 72.90625 L 38.664063 72.90625 C 38.734375 72.90625 38.792969 72.929688 38.847656 72.976563 C 38.902344 73.019531 38.933594 73.0625 38.945313 73.101563 C 38.957031 73.113281 38.960938 73.140625 38.960938 73.179688 C 38.960938 73.621094 38.902344 74.050781 38.78125 74.46875 C 38.660156 74.882813 38.5 75.253906 38.300781 75.578125 C 38.574219 76.46875 38.75 76.917969 38.816406 76.921875 C 38.921875 76.921875 39.007813 76.894531 39.082031 76.835938 C 39.15625 76.78125 39.191406 76.71875 39.191406 76.648438 C 39.191406 76.507813 39.265625 76.433594 39.414063 76.433594 L 39.625 76.433594 C 39.691406 76.433594 39.753906 76.457031 39.804688 76.503906 C 39.855469 76.546875 39.894531 76.601563 39.917969 76.664063 Z M 36.996094 76.101563 C 36.976563 76.039063 36.957031 75.988281 36.941406 75.953125 L 36.585938 74.804688 C 36.503906 74.550781 36.414063 74.308594 36.316406 74.082031 C 36.222656 73.855469 36.109375 73.65625 35.984375 73.484375 C 35.859375 73.3125 35.71875 73.179688 35.5625 73.085938 C 35.40625 72.992188 35.226563 72.945313 35.027344 72.941406 C 34.820313 72.945313 34.621094 72.984375 34.429688 73.070313 C 34.238281 73.15625 34.085938 73.285156 33.96875 73.457031 C 33.824219 73.660156 33.738281 73.894531 33.714844 74.152344 C 33.691406 74.410156 33.679688 74.679688 33.679688 74.964844 C 33.679688 75.261719 33.691406 75.539063 33.714844 75.789063 C 33.738281 76.042969 33.820313 76.265625 33.960938 76.457031 C 34.066406 76.605469 34.207031 76.722656 34.378906 76.800781 C 34.550781 76.882813 34.742188 76.921875 34.949219 76.921875 C 35.363281 76.921875 35.746094 76.847656 36.097656 76.695313 C 36.449219 76.542969 36.75 76.34375 36.996094 76.101563 Z M 36.996094 76.101563 "/>
<path style=" stroke:none;fill-rule:evenodd;fill:rgb(90.19928%,56.898499%,21.998596%);fill-opacity:1;" d="M 43.96875 92.070313 C 43.96875 92.417969 43.902344 92.75 43.773438 93.070313 C 43.644531 93.390625 43.445313 93.664063 43.175781 93.894531 C 42.882813 94.148438 42.5625 94.328125 42.207031 94.429688 C 41.851563 94.535156 41.484375 94.585938 41.101563 94.585938 C 40.605469 94.585938 40.132813 94.488281 39.6875 94.292969 C 39.242188 94.097656 38.929688 93.898438 38.753906 93.691406 L 38.753906 96.320313 C 38.753906 96.453125 38.683594 96.519531 38.542969 96.519531 L 38.285156 96.519531 C 38.148438 96.5 38.0625 96.425781 38.039063 96.300781 L 38.027344 89.550781 C 38.027344 89.15625 38.109375 88.789063 38.269531 88.445313 C 38.425781 88.101563 38.644531 87.804688 38.914063 87.550781 C 39.183594 87.300781 39.5 87.097656 39.863281 86.949219 C 40.226563 86.804688 40.613281 86.730469 41.027344 86.726563 C 41.3125 86.730469 41.59375 86.769531 41.878906 86.851563 C 42.164063 86.933594 42.421875 87.082031 42.648438 87.292969 C 42.871094 87.488281 43.03125 87.714844 43.128906 87.976563 C 43.222656 88.238281 43.273438 88.5 43.273438 88.761719 C 43.273438 89.003906 43.234375 89.234375 43.15625 89.460938 C 43.078125 89.6875 42.980469 89.867188 42.863281 89.996094 C 42.933594 90.039063 43.027344 90.105469 43.144531 90.199219 C 43.425781 90.445313 43.636719 90.738281 43.769531 91.066406 C 43.902344 91.398438 43.96875 91.734375 43.96875 92.070313 Z M 41.378906 90.089844 C 41.34375 90.078125 41.253906 90.074219 41.101563 90.074219 C 40.851563 90.074219 40.683594 90.082031 40.59375 90.101563 C 40.503906 90.117188 40.460938 90.132813 40.460938 90.140625 C 40.460938 90.117188 40.460938 90.105469 40.457031 90.101563 C 40.453125 90.097656 40.46875 90.101563 40.503906 90.109375 C 40.539063 90.117188 40.601563 90.125 40.683594 90.132813 C 40.769531 90.144531 40.882813 90.148438 41.027344 90.148438 C 41.214844 90.148438 41.332031 90.128906 41.378906 90.089844 Z M 42.382813 92.003906 C 42.382813 91.691406 42.367188 91.410156 42.339844 91.148438 C 42.308594 90.890625 42.230469 90.683594 42.105469 90.535156 C 41.988281 90.585938 41.839844 90.628906 41.65625 90.664063 C 41.472656 90.699219 41.289063 90.71875 41.101563 90.71875 L 40.773438 90.71875 C 40.628906 90.71875 40.476563 90.699219 40.328125 90.667969 C 40.175781 90.632813 40.039063 90.570313 39.921875 90.480469 C 39.800781 90.386719 39.738281 90.25 39.738281 90.070313 C 39.738281 89.910156 39.792969 89.789063 39.898438 89.710938 C 40.003906 89.632813 40.125 89.578125 40.261719 89.546875 C 40.398438 89.519531 40.535156 89.503906 40.671875 89.503906 L 41.027344 89.503906 C 41.328125 89.503906 41.578125 89.523438 41.78125 89.5625 C 41.808594 89.488281 41.828125 89.371094 41.835938 89.203125 C 41.84375 89.039063 41.84375 88.867188 41.84375 88.6875 C 41.84375 88.460938 41.839844 88.253906 41.824219 88.066406 C 41.808594 87.878906 41.765625 87.726563 41.695313 87.613281 C 41.636719 87.519531 41.554688 87.441406 41.453125 87.386719 C 41.347656 87.332031 41.230469 87.304688 41.101563 87.304688 C 40.78125 87.304688 40.472656 87.367188 40.1875 87.488281 C 39.898438 87.613281 39.648438 87.777344 39.4375 87.988281 C 39.226563 88.199219 39.058594 88.445313 38.9375 88.730469 C 38.816406 89.015625 38.753906 89.316406 38.753906 89.628906 L 38.753906 92.070313 C 38.753906 92.351563 38.816406 92.605469 38.9375 92.839844 C 39.058594 93.074219 39.222656 93.277344 39.425781 93.449219 C 39.628906 93.625 39.867188 93.761719 40.144531 93.855469 C 40.421875 93.953125 40.714844 94 41.027344 94 C 41.238281 94 41.4375 93.960938 41.628906 93.878906 C 41.816406 93.796875 41.972656 93.667969 42.09375 93.492188 C 42.234375 93.292969 42.316406 93.066406 42.34375 92.8125 C 42.371094 92.554688 42.382813 92.285156 42.382813 92.003906 Z M 42.382813 92.003906 "/>
<path style="fill:none;stroke-width:15;stroke-linecap:round;stroke-linejoin:round;stroke:rgb(100%,59.999084%,0%);stroke-opacity:1;stroke-miterlimit:10;" d="M 447.957984 429.510253 C 475.533655 426.518008 501.466521 414.607698 521.649565 395.539469 " transform="matrix(0.0665782,0,0,-0.0665783,0,111.84999)"/>
<path style="fill:none;stroke-width:15;stroke-linecap:round;stroke-linejoin:round;stroke:rgb(100%,59.999084%,0%);stroke-opacity:1;stroke-miterlimit:10;" d="M 461.159103 299.963635 C 519.772073 287.290597 561.604953 235.425012 561.604953 175.462764 " transform="matrix(0.0665782,0,0,-0.0665783,0,111.84999)"/>
<path style=" stroke:none;fill-rule:evenodd;fill:rgb(90.19928%,56.898499%,21.998596%);fill-opacity:1;" d="M 51.898438 43.402344 C 51.898438 43.75 51.832031 44.082031 51.703125 44.402344 C 51.574219 44.722656 51.375 45 51.105469 45.226563 C 50.816406 45.484375 50.492188 45.660156 50.136719 45.765625 C 49.78125 45.867188 49.414063 45.917969 49.03125 45.917969 C 48.535156 45.917969 48.0625 45.820313 47.617188 45.625 C 47.171875 45.429688 46.863281 45.230469 46.6875 45.023438 L 46.6875 47.652344 C 46.6875 47.785156 46.617188 47.851563 46.476563 47.851563 L 46.21875 47.851563 C 46.078125 47.832031 45.996094 47.757813 45.96875 47.632813 L 45.957031 40.882813 C 45.957031 40.492188 46.039063 40.121094 46.199219 39.777344 C 46.359375 39.4375 46.574219 39.136719 46.84375 38.886719 C 47.117188 38.632813 47.433594 38.433594 47.792969 38.285156 C 48.15625 38.136719 48.546875 38.0625 48.957031 38.0625 C 49.242188 38.0625 49.527344 38.101563 49.8125 38.183594 C 50.097656 38.265625 50.351563 38.414063 50.578125 38.625 C 50.800781 38.820313 50.960938 39.050781 51.058594 39.3125 C 51.15625 39.574219 51.203125 39.832031 51.203125 40.09375 C 51.203125 40.335938 51.164063 40.570313 51.085938 40.796875 C 51.011719 41.023438 50.914063 41.199219 50.792969 41.328125 C 50.867188 41.371094 50.960938 41.4375 51.074219 41.53125 C 51.355469 41.78125 51.566406 42.070313 51.699219 42.402344 C 51.832031 42.730469 51.898438 43.066406 51.898438 43.402344 Z M 49.308594 41.421875 C 49.277344 41.414063 49.183594 41.40625 49.03125 41.40625 C 48.78125 41.40625 48.613281 41.417969 48.523438 41.433594 C 48.4375 41.449219 48.390625 41.464844 48.390625 41.476563 C 48.390625 41.449219 48.390625 41.4375 48.386719 41.433594 C 48.382813 41.429688 48.398438 41.433594 48.433594 41.441406 C 48.472656 41.449219 48.53125 41.460938 48.617188 41.46875 C 48.699219 41.476563 48.8125 41.480469 48.957031 41.480469 C 49.144531 41.480469 49.261719 41.460938 49.308594 41.421875 Z M 50.316406 43.335938 C 50.316406 43.027344 50.300781 42.742188 50.269531 42.480469 C 50.238281 42.222656 50.160156 42.015625 50.035156 41.867188 C 49.917969 41.917969 49.769531 41.964844 49.585938 42 C 49.40625 42.03125 49.21875 42.050781 49.03125 42.050781 L 48.703125 42.050781 C 48.558594 42.050781 48.410156 42.035156 48.257813 42 C 48.105469 41.96875 47.972656 41.90625 47.851563 41.8125 C 47.730469 41.71875 47.671875 41.582031 47.671875 41.402344 C 47.671875 41.242188 47.722656 41.121094 47.828125 41.042969 C 47.9375 40.964844 48.058594 40.910156 48.195313 40.882813 C 48.328125 40.851563 48.464844 40.835938 48.601563 40.835938 L 48.957031 40.835938 C 49.257813 40.835938 49.511719 40.855469 49.710938 40.894531 C 49.742188 40.820313 49.757813 40.703125 49.765625 40.535156 C 49.773438 40.371094 49.777344 40.199219 49.777344 40.023438 C 49.777344 39.796875 49.769531 39.589844 49.753906 39.398438 C 49.742188 39.210938 49.699219 39.058594 49.625 38.945313 C 49.566406 38.851563 49.488281 38.777344 49.382813 38.71875 C 49.28125 38.664063 49.164063 38.636719 49.03125 38.636719 C 48.710938 38.636719 48.40625 38.699219 48.117188 38.824219 C 47.832031 38.945313 47.582031 39.113281 47.371094 39.320313 C 47.15625 39.53125 46.992188 39.777344 46.867188 40.0625 C 46.746094 40.351563 46.6875 40.648438 46.6875 40.960938 L 46.6875 43.402344 C 46.6875 43.683594 46.746094 43.941406 46.867188 44.171875 C 46.992188 44.40625 47.152344 44.609375 47.355469 44.785156 C 47.558594 44.957031 47.796875 45.09375 48.074219 45.191406 C 48.351563 45.285156 48.644531 45.332031 48.957031 45.332031 C 49.167969 45.332031 49.371094 45.292969 49.558594 45.210938 C 49.746094 45.128906 49.902344 45 50.023438 44.824219 C 50.164063 44.628906 50.246094 44.398438 50.273438 44.144531 C 50.300781 43.886719 50.316406 43.617188 50.316406 43.335938 Z M 50.316406 43.335938 "/>
<path style="fill:none;stroke-width:15;stroke-linecap:round;stroke-linejoin:round;stroke:rgb(100%,59.999084%,0%);stroke-opacity:1;stroke-miterlimit:10;" d="M 893.686445 1042.216472 C 847.687878 1059.759243 815.887848 1102.237391 812.074191 1151.345416 " transform="matrix(0.0665782,0,0,-0.0665783,0,111.84999)"/>
</g>
</svg>
