<?xml version="1.0" encoding="utf-8"?>
<!-- Generator: Adobe Illustrator 19.0.0, SVG Export Plug-In . SVG Version: 6.00 Build 0)  -->
<svg version="1.1" id="Layer_1" xmlns="http://www.w3.org/2000/svg" xmlns:xlink="http://www.w3.org/1999/xlink" x="0px" y="0px"
	 viewBox="0 0 135.25 67.3333359" style="enable-background:new 0 0 135.25 67.3333359;" xml:space="preserve">
<style type="text/css">
	.st0{fill-rule:evenodd;clip-rule:evenodd;}
	.st1{fill:#010101;}
	.st2{fill:none;stroke:#EF4823;stroke-miterlimit:10;}
	.st3{fill:#EF4823;}
</style>
<g>
	<polygon class="st0" points="11.64394,52.5004311 55.9204826,63.7000046 56.0356064,63.2462196 60.1047554,65.0833359 
		55.6580238,64.7353973 55.7668228,64.3061447 11.4904966,53.106575 	"/>
</g>
<g>
	<polygon class="st0" points="11.5389576,53.1158943 11.5389576,7.013248 11.0786276,7.013248 11.8458433,2.8755279 
		12.587225,7.013248 12.15273,7.013248 12.15273,53.1158943 	"/>
</g>
<g>
	<polygon class="st0" points="11.6291161,52.6087952 49.7365494,26.6618176 49.4770851,26.2806377 52.0477333,25.4914017 
		50.3262215,27.5282936 50.0819702,27.1686993 11.974103,53.1158943 	"/>
</g>
<g>
	<g>
		<path class="st1" d="M46.9414063,19.9388027c0.2075195,0.2128906,0.3647461,0.425293,0.4707031,0.6381836
			c0.0766602,0.1469727,0.2016602,0.5336914,0.3759766,1.1591797l0.5600586-0.8095703
			c0.1484375-0.1962891,0.3291016-0.3837891,0.5410156-0.5615234c0.2124023-0.1777344,0.3989258-0.2993164,0.5605469-0.3647461
			c0.1015625-0.0410156,0.2143555-0.0615234,0.3374023-0.0615234c0.1821289,0,0.3276367,0.046875,0.4360352,0.1411133
			s0.1621094,0.2084961,0.1621094,0.3432617c0,0.1557617-0.0317383,0.262207-0.0952148,0.3193359
			c-0.1191406,0.1020508-0.2548828,0.1533203-0.4077148,0.1533203c-0.0888672,0-0.1845703-0.0185547-0.2861328-0.0551758
			c-0.199707-0.0654297-0.3334961-0.0981445-0.4013672-0.0981445c-0.1015625,0-0.2226563,0.0571289-0.362793,0.171875
			c-0.2631836,0.2124023-0.5771484,0.6235352-0.9423828,1.2329102l0.5219727,2.1103516
			c0.0805664,0.3232422,0.1489258,0.5166016,0.2041016,0.5800781s0.1103516,0.0952148,0.1655273,0.0952148
			c0.0888672,0,0.1928711-0.0473633,0.3120117-0.1411133c0.2333984-0.1884766,0.4326172-0.4335938,0.5981445-0.7363281
			l0.2231445,0.1103516c-0.2675781,0.4829102-0.6074219,0.8833008-1.019043,1.2026367
			c-0.2333984,0.1796875-0.4306641,0.2700195-0.5917969,0.2700195c-0.237793,0-0.4267578-0.1289063-0.5668945-0.3867188
			c-0.0888672-0.159668-0.2734375-0.8466797-0.5537109-2.0615234c-0.6621094,1.1083984-1.1928711,1.8222656-1.5917969,2.1411133
			c-0.2587891,0.2045898-0.5092773,0.3071289-0.7509766,0.3071289c-0.1699219,0-0.324707-0.0595703-0.4648438-0.1782227
			c-0.1015625-0.0898438-0.152832-0.2104492-0.152832-0.3618164c0-0.1352539,0.046875-0.2475586,0.1401367-0.3374023
			s0.2080078-0.1352539,0.34375-0.1352539s0.2802734,0.0654297,0.4331055,0.1962891
			c0.1103516,0.0942383,0.1948242,0.1411133,0.2543945,0.1411133c0.0512695,0,0.1166992-0.0327148,0.1972656-0.0981445
			c0.199707-0.1552734,0.4711914-0.4907227,0.8149414-1.0058594c0.34375-0.515625,0.5688477-0.8876953,0.6748047-1.1166992
			c-0.2631836-0.9941406-0.4052734-1.5195313-0.4262695-1.5766602c-0.0976563-0.2661133-0.2250977-0.4541016-0.3818359-0.5644531
			c-0.1572266-0.1103516-0.3886719-0.1655273-0.6943359-0.1655273c-0.0976563,0-0.2099609,0.0039063-0.3374023,0.012207v-0.2211914
			L46.9414063,19.9388027z"/>
	</g>
</g>
<g>
	<g>
		<path class="st1" d="M57.9458008,51.6673164c0.140625,0.2407227,0.237793,0.4663086,0.2915039,0.6757813
			c0.0537109,0.2099609,0.1074219,0.6220703,0.1611328,1.2368164l0.2729492,3.0649414
			c0.2480469-0.2993164,0.6074219-0.7724609,1.0786133-1.4204102c0.2275391-0.3154297,0.5087891-0.7456055,0.84375-1.2895508
			c0.2021484-0.3320313,0.3261719-0.5649414,0.3720703-0.6977539c0.0244141-0.0664063,0.0371094-0.1347656,0.0371094-0.2055664
			c0-0.0458984-0.0146484-0.0830078-0.043457-0.1123047c-0.0288086-0.0288086-0.1044922-0.0629883-0.2265625-0.1025391
			s-0.2231445-0.1123047-0.3037109-0.2182617s-0.1210938-0.2270508-0.1210938-0.3642578
			c0-0.1704102,0.0498047-0.3071289,0.1489258-0.4111328s0.2231445-0.1557617,0.3720703-0.1557617
			c0.1821289,0,0.3369141,0.0756836,0.465332,0.2275391c0.1279297,0.1513672,0.1918945,0.3603516,0.1918945,0.6259766
			c0,0.328125-0.1113281,0.7026367-0.3344727,1.1245117c-0.2236328,0.4213867-0.6533203,1.0683594-1.2900391,1.9404297
			s-1.4077148,1.8232422-2.3129883,2.8530273c-0.6240234,0.7099609-1.0874023,1.1577148-1.3891602,1.3422852
			c-0.3017578,0.1850586-0.5600586,0.2773438-0.7749023,0.2773438c-0.1279297,0-0.2407227-0.0488281-0.3378906-0.1464844
			s-0.1459961-0.2109375-0.1459961-0.3393555c0-0.1621094,0.0673828-0.3095703,0.2016602-0.4423828
			s0.2802734-0.1992188,0.4370117-0.1992188c0.0830078,0,0.1508789,0.0185547,0.2045898,0.0561523
			c0.0332031,0.0205078,0.0693359,0.0795898,0.1088867,0.1772461c0.0390625,0.0976563,0.0751953,0.1630859,0.1083984,0.1962891
			c0.0205078,0.0209961,0.0454102,0.03125,0.0742188,0.03125c0.0249023,0,0.0683594-0.0209961,0.1303711-0.0625
			c0.2275391-0.1411133,0.4916992-0.3652344,0.7939453-0.6723633c0.3964844-0.4072266,0.6899414-0.7397461,0.8803711-0.9970703
			l-0.347168-3.9492188c-0.0581055-0.6523438-0.1450195-1.0488281-0.2607422-1.1899414s-0.3100586-0.2119141-0.5825195-0.2119141
			c-0.0869141,0-0.2421875,0.0126953-0.465332,0.0375977l-0.0556641-0.230957L57.9458008,51.6673164z"/>
	</g>
</g>
<g>
	<g>
		<path class="st1" d="M3.3920898,1.8655599h4.0424805v0.1577147L3.0288086,6.5584311h1.8657227
			c0.4414063,0,0.7211914-0.0170898,0.840332-0.0507813C5.8535156,6.4744468,5.9628906,6.4031577,6.0625,6.2937827
			s0.2114258-0.3066406,0.3344727-0.5922852h0.2353516L6.0786133,7.4148765H1.934082V7.2322593l4.4052734-4.5351563H4.5058594
			c-0.3862305,0-0.6196289,0.0107422-0.7001953,0.0317383C3.6870117,2.7537434,3.5688477,2.8201497,3.4521484,2.9270833
			s-0.2363281,0.284668-0.359375,0.5322266H2.8505859L3.3920898,1.8655599z"/>
	</g>
</g>
<g>
	<polygon class="st0" points="85.0011215,52.5004311 129.2774963,63.7000046 129.3926086,63.2462196 133.462204,65.0833359 
		129.0150299,64.7353973 129.1242676,64.3061447 84.8474655,53.106575 	"/>
</g>
<g>
	<polygon class="st0" points="84.8961792,53.1158943 84.8961792,7.013248 84.4360275,7.013248 85.2030716,2.8755279 
		85.944664,7.013248 85.5099564,7.013248 85.5099564,53.1158943 	"/>
</g>
<g>
	<polygon class="st0" points="84.9863434,52.6087952 123.0939941,26.6618176 122.8340912,26.2806377 125.4051743,25.4914017 
		123.6832275,27.5282936 123.439415,27.1686993 85.3313293,53.1158943 	"/>
</g>
<g>
	<g>
		<path class="st1" d="M129.7919922,51.7527657c0.2080078,0.2128906,0.3652344,0.425293,0.4716797,0.6381836
			c0.0761719,0.1469727,0.2011719,0.5336914,0.375,1.1591797l0.5605469-0.8095703
			c0.1484375-0.1962891,0.3291016-0.3837891,0.5410156-0.5615234s0.3994141-0.2993164,0.5605469-0.3647461
			c0.1015625-0.0410156,0.2138672-0.0615234,0.3369141-0.0615234c0.1826172,0,0.328125,0.046875,0.4365234,0.1411133
			s0.1621094,0.2084961,0.1621094,0.3432617c0,0.1557617-0.03125,0.262207-0.0957031,0.3193359
			c-0.1181641,0.1020508-0.2539063,0.1533203-0.4072266,0.1533203c-0.0888672,0-0.1845703-0.0185547-0.2861328-0.0551758
			c-0.2001953-0.0654297-0.3330078-0.0981445-0.4013672-0.0981445c-0.1015625,0-0.2226563,0.0571289-0.3623047,0.171875
			c-0.2636719,0.2124023-0.578125,0.6235352-0.9423828,1.2329102l0.5214844,2.1103516
			c0.0810547,0.3232422,0.1484375,0.5166016,0.2041016,0.5800781c0.0546875,0.0634766,0.1103516,0.0952148,0.1650391,0.0952148
			c0.0898438,0,0.1933594-0.0473633,0.3125-0.1411133c0.2333984-0.1884766,0.4326172-0.4335938,0.5986328-0.7363281
			l0.2226563,0.1103516c-0.2675781,0.4829102-0.6074219,0.8833008-1.0185547,1.2026367
			c-0.2333984,0.1796875-0.4306641,0.2700195-0.5927734,0.2700195c-0.2373047,0-0.4257813-0.1289063-0.5664063-0.3867188
			c-0.0888672-0.159668-0.2734375-0.8466797-0.5537109-2.0615234c-0.6621094,1.1083984-1.1923828,1.8222656-1.5917969,2.1411133
			c-0.2587891,0.2045898-0.5087891,0.3071289-0.7509766,0.3071289c-0.1699219,0-0.3242188-0.0595703-0.4648438-0.1782227
			c-0.1015625-0.0898438-0.1523438-0.2104492-0.1523438-0.3618164c0-0.1352539,0.0458984-0.2475586,0.1396484-0.3374023
			s0.2080078-0.1352539,0.34375-0.1352539s0.2802734,0.0654297,0.4326172,0.1962891
			c0.1103516,0.0942383,0.1953125,0.1411133,0.2548828,0.1411133c0.0507813,0,0.1171875-0.0327148,0.1972656-0.0981445
			c0.1992188-0.1552734,0.4716797-0.4907227,0.8154297-1.0058594c0.34375-0.515625,0.5683594-0.8876953,0.6748047-1.1166992
			c-0.2636719-0.9941406-0.4052734-1.5195313-0.4267578-1.5766602c-0.0976563-0.2661133-0.2246094-0.4541016-0.3818359-0.5644531
			s-0.3886719-0.1655273-0.6943359-0.1655273c-0.0976563,0-0.2099609,0.0039063-0.3369141,0.012207v-0.2211914
			L129.7919922,51.7527657z"/>
	</g>
</g>
<g>
	<g>
		<path class="st1" d="M117.7783203,19.8533535c0.140625,0.2407227,0.2382813,0.4663086,0.2919922,0.6757813
			c0.0537109,0.2099609,0.1074219,0.6220703,0.1611328,1.2368164l0.2724609,3.0649414
			c0.2480469-0.2993164,0.6083984-0.7724609,1.0791016-1.4204102c0.2275391-0.3154297,0.5087891-0.7456055,0.84375-1.2895508
			c0.2021484-0.3320313,0.3261719-0.5649414,0.3720703-0.6977539c0.0244141-0.0664063,0.0371094-0.1347656,0.0371094-0.2055664
			c0-0.0458984-0.0146484-0.0830078-0.0439453-0.1123047c-0.0283203-0.0288086-0.1044922-0.0629883-0.2255859-0.1025391
			c-0.1220703-0.0395508-0.2236328-0.1123047-0.3037109-0.2182617c-0.0810547-0.105957-0.1210938-0.2270508-0.1210938-0.3642578
			c0-0.1704102,0.0488281-0.3071289,0.1484375-0.4111328s0.2236328-0.1557617,0.3720703-0.1557617
			c0.1816406,0,0.3369141,0.0756836,0.4648438,0.2275391c0.1279297,0.1513672,0.1923828,0.3603516,0.1923828,0.6259766
			c0,0.328125-0.1113281,0.7026367-0.3349609,1.1245117c-0.2226563,0.4213867-0.6533203,1.0683594-1.2900391,1.9404297
			c-0.6357422,0.8720703-1.4072266,1.8232422-2.3125,2.8530273c-0.6240234,0.7099609-1.0869141,1.1577148-1.3886719,1.3422852
			c-0.3017578,0.1850586-0.5605469,0.2773438-0.7753906,0.2773438c-0.1279297,0-0.2412109-0.0488281-0.3378906-0.1464844
			c-0.0976563-0.0976563-0.1455078-0.2109375-0.1455078-0.3393555c0-0.1621094,0.0664063-0.3095703,0.2011719-0.4423828
			s0.2802734-0.1992188,0.4375-0.1992188c0.0820313,0,0.1503906,0.0185547,0.2041016,0.0561523
			c0.0332031,0.0205078,0.0693359,0.0795898,0.1083984,0.1772461c0.0400391,0.0976563,0.0761719,0.1630859,0.1083984,0.1962891
			c0.0214844,0.0209961,0.0458984,0.03125,0.0751953,0.03125c0.0244141,0,0.0673828-0.0209961,0.1298828-0.0625
			c0.2275391-0.1411133,0.4921875-0.3652344,0.7939453-0.6723633c0.3964844-0.4072266,0.6904297-0.7397461,0.8798828-0.9970703
			l-0.3466797-3.9492188c-0.0576172-0.6523438-0.1445313-1.0488281-0.2607422-1.1899414
			c-0.1152344-0.1411133-0.3095703-0.2119141-0.5830078-0.2119141c-0.0869141,0-0.2412109,0.0126953-0.4648438,0.0375977
			l-0.0556641-0.230957L117.7783203,19.8533535z"/>
	</g>
</g>
<g>
	<g>
		<path class="st1" d="M79.1547852,1.8660482h4.0424805v0.1577147l-4.4057617,4.5351563h1.8657227
			c0.4414063,0,0.7211914-0.0170898,0.840332-0.0507813c0.1186523-0.0332031,0.2280273-0.1044922,0.3276367-0.2138672
			s0.2114258-0.3066406,0.3344727-0.5922852h0.2353516l-0.5537109,1.7133789h-4.1445313V7.2327476l4.4052734-4.5351563h-1.8334961
			c-0.3862305,0-0.6196289,0.0107422-0.7001953,0.0317383c-0.1186523,0.0249023-0.2368164,0.0913086-0.3535156,0.1982422
			s-0.2363281,0.284668-0.359375,0.5322266h-0.2421875L79.1547852,1.8660482z"/>
	</g>
</g>
<g>
	<path class="st2" d="M7.4107294,17.4385834c-1.1318817,0.6771011-1.8319983,1.6125832-1.8319983,2.6458111
		c0,2.0665417,2.8005109,3.7415428,6.2546287,3.7415428c3.4532518,0,6.2537622-1.6750011,6.2537622-3.7415428
		c0-1.1323147-0.8406429-2.1471634-2.1689663-2.833107"/>
</g>
<polygon class="st3" points="6.9533691,16.7653732 7.7864485,18.3276978 9.6569595,16.3279305 "/>
<g>
	<path class="st2" d="M89.6125259,17.7336369c1.1318817,0.6770573,1.8320389,1.6125393,1.8320389,2.6458111
		c0,2.0665398-2.8005524,3.7414989-6.254631,3.7414989c-3.4532471,0-6.2537613-1.6749592-6.2537613-3.7414989
		c0-1.1323166,0.8406448-2.1471653,2.1689682-2.833107"/>
</g>
<polygon class="st3" points="90.142128,17.0604362 89.3091125,18.6226959 87.4385376,16.6229935 "/>
<g>
</g>
<g>
</g>
<g>
</g>
<g>
</g>
<g>
</g>
<g>
</g>
</svg>
