<?xml version="1.0" encoding="utf-8"?>
<!-- Generator: Adobe Illustrator 19.0.0, SVG Export Plug-In . SVG Version: 6.00 Build 0)  -->
<svg version="1.1" id="Layer_1" xmlns="http://www.w3.org/2000/svg" xmlns:xlink="http://www.w3.org/1999/xlink" x="0px" y="0px"
	 viewBox="0 0 105.5 129" style="enable-background:new 0 0 105.5 129;" xml:space="preserve">
<style type="text/css">
	.st0{fill:none;stroke:#939598;stroke-miterlimit:10;}
	.st1{fill-rule:evenodd;clip-rule:evenodd;fill:none;stroke:#000000;stroke-miterlimit:10;}
	.st2{fill:none;stroke:#ED1C24;stroke-miterlimit:10;}
	.st3{fill:#F15A29;}
	.st4{fill:#27AAE1;}
	.st5{fill:#010101;}
	.st6{fill:#2B3990;}
	.st7{fill:#939598;}
</style>
<path class="st0" d="M29.2634869,32.9059715C25.125,35.0416794,23.3124924,34.9166794,20,34.9166794"/>
<line class="st0" x1="20" y1="19.1022568" x2="20" y2="56.3333359"/>
<circle cx="76.8333359" cy="67.9953308" r="2.5"/>
<path class="st1" d="M82.8464966,125.6368942c-6.11483,3.2735825-16.8350677,0.8888702-24.261364-0.8592529
	c-9.5021057-2.2368469-10.8787155-13.9547882-20.0033684-22.9141006
	c-6.9540863-6.8286438-24.1206837-6.1074448-29.4054337-15.978981C6.558897,80.9953766,6.4584103,72.494873,4.693748,67.588089
	c-3.603467-10.0215378,4.4440427-18.5761948,4.3413053-27.5452728C8.9471655,32.376236,0.241985,24.0516624,2.6590712,18.1768684
	C5.3581648,11.6151476,9.6038227,6.4648142,15.3620691,3.3821242c8.7244902-4.6706758,18.4455109,8.416584,29.2524223,13.620451
	c13.8444099,6.665905,28.8120995,8.2400246,38.7176933,26.7429695
	c6.1046906,11.4031334,18.4780121,21.4843063,19.9754028,32.3398438c1.2286606,8.9067841-12.0339432,17.549324-13.834938,24.7090454
	C87.1261292,110.1202011,90.2066193,121.6966324,82.8464966,125.6368942z"/>
<path class="st2" d="M44.9978752,46.7259293"/>
<circle cx="52.8115082" cy="67.9953308" r="2.5"/>
<g>
	<g>
		<g>
			<polygon class="st3" points="47.1176453,60.4495659 45.4515991,61.5676079 52.8096924,67.9965286 49.6524353,58.7484856 
				47.9862366,59.8666496 20.4342346,18.8108616 19.5656433,19.3937473 			"/>
		</g>
	</g>
</g>
<g>
	<g>
		<path class="st3" d="M40.1582031,65.6363907c-0.2363281,0.2832031-0.4736328,0.4902344-0.7148438,0.6220703
			c-0.2402344,0.1328125-0.4941406,0.1982422-0.7617188,0.1982422c-0.3212891,0-0.5732422-0.0898438-0.7529297-0.2705078
			c-0.1806641-0.1816406-0.2705078-0.4238281-0.2705078-0.7294922c0-0.3457031,0.0966797-0.6855469,0.2910156-1.0205078
			c0.1933594-0.3339844,0.4541016-0.6054649,0.7822266-0.8144493c0.3271484-0.2089844,0.6484375-0.3144531,0.9638672-0.3144531
			c0.2470703,0,0.4326172,0.0517578,0.5546875,0.1542969c0.1220703,0.1035156,0.1835938,0.2294922,0.1835938,0.3779297
			c0,0.140625-0.0429688,0.2607384-0.1289063,0.3593712c-0.0634766,0.0771484-0.1425781,0.1152344-0.2353516,0.1152344
			c-0.0703125,0-0.1279297-0.0224609-0.1748047-0.0673828s-0.0693359-0.1015625-0.0693359-0.1699219
			c0-0.0419922,0.0078125-0.0820274,0.0253906-0.1181602c0.0166016-0.0361328,0.0517578-0.0800781,0.1054688-0.1308594
			c0.0527344-0.0507813,0.0849609-0.0869141,0.0966797-0.1103516c0.0107422-0.0224609,0.0166016-0.0458984,0.0166016-0.0703125
			c0-0.0478516-0.0214844-0.0869141-0.0644531-0.1191406c-0.0654297-0.0449219-0.1582031-0.0673828-0.2783203-0.0673828
			c-0.2226563,0-0.4423828,0.078125-0.6601563,0.2333984c-0.2177734,0.15625-0.4033203,0.3779259-0.5576172,0.6650352
			c-0.1865234,0.3476563-0.2792969,0.6953125-0.2792969,1.0439453c0,0.2304688,0.0654297,0.4130859,0.1972656,0.546875
			c0.1318359,0.1347656,0.3105469,0.2021484,0.5371094,0.2021484c0.1748047,0,0.3476563-0.0439453,0.5195313-0.1308594
			c0.1708984-0.0869141,0.3632813-0.2441406,0.5761719-0.4726563L40.1582031,65.6363907z"/>
	</g>
	<g>
		<path class="st3" d="M35.625,57.7994804v1.2431641c0.3642578-0.5664063,0.6845703-0.9433594,0.9589844-1.1289063
			s0.5390625-0.2783203,0.7939453-0.2783203c0.2197266,0,0.3955078,0.0673828,0.5273438,0.2021484
			c0.1308594,0.1347656,0.1962891,0.3251953,0.1962891,0.5722656c0,0.2617188-0.0634766,0.4648438-0.1904297,0.609375
			c-0.1279297,0.1445313-0.2822266,0.2167969-0.4628906,0.2167969c-0.2070313,0-0.3876953-0.0664063-0.5410156-0.1992188
			s-0.2431641-0.2070313-0.2705078-0.2226563c-0.0390625-0.0234375-0.0839844-0.0351563-0.1357422-0.0351563
			c-0.1132813,0-0.2216797,0.0429688-0.3232422,0.1289063c-0.1611328,0.1328125-0.2822266,0.3222656-0.3642578,0.5683594
			C35.6875,59.8561211,35.625,60.2740898,35.625,60.7311211v1.2607422l0.0058594,0.328125
			c0,0.2226563,0.0136719,0.3662109,0.0410156,0.4287109c0.046875,0.1054688,0.1162109,0.1826172,0.2089844,0.2314453
			c0.0917969,0.0488281,0.2480469,0.0791016,0.4677734,0.0908203v0.2109375h-2.9707031v-0.2109375
			c0.2382813-0.0195313,0.4003906-0.0849609,0.4853516-0.1962891c0.0839844-0.1113281,0.1259766-0.40625,0.1259766-0.8828125
			v-3.03125c0-0.3125-0.015625-0.5117188-0.046875-0.5976563c-0.0390625-0.1103516-0.0966797-0.1904297-0.1708984-0.2412109
			s-0.2060547-0.0859375-0.3935547-0.1054688v-0.2167969H35.625z"/>
	</g>
</g>
<g>
	<g>
		<g>
			<polygon class="st4" points="69.3370667,62.2364311 68.0285339,63.7574577 76.8319092,67.9969864 71.3279114,59.9222832 
				70.0192871,61.4434319 20.3410645,18.7058201 19.658844,19.4988194 			"/>
		</g>
	</g>
</g>
<g>
	<g>
		<path class="st5" d="M51.2910156,73.4537735l0.7275391,6.3515625l4.5800781-6.3515625h1.9267578v0.2148438
			c-0.4189453,0.0273438-0.6650391,0.0546875-0.7392578,0.0810547c-0.1279297,0.0507813-0.2451172,0.1513672-0.3515625,0.3027344
			c-0.1074219,0.1513672-0.2226563,0.4423828-0.3466797,0.8720703l-1.4609375,5.0029297
			c-0.0849609,0.2900391-0.1279297,0.5195313-0.1279297,0.6855469c0,0.1513672,0.0527344,0.2666016,0.1572266,0.34375
			c0.1474609,0.1123047,0.3798828,0.1689453,0.6982422,0.1689453h0.1396484l-0.0527344,0.2148438h-3.3232422l0.0585938-0.2148438
			h0.1572266c0.2949219,0,0.5195313-0.0429688,0.6748047-0.1279297c0.1201172-0.0625,0.2285156-0.1796875,0.3232422-0.3525391
			c0.0947266-0.171875,0.2275391-0.5556641,0.3984375-1.1484375l1.3037109-4.5722656l-4.6035156,6.4160156h-0.2333984
			l-0.7392578-6.4160156l-1.4082031,4.8808594c-0.1201172,0.4150391-0.1806641,0.6933594-0.1806641,0.8369141
			s0.0527344,0.2529297,0.1572266,0.3291016c0.1054688,0.0751953,0.359375,0.1269531,0.7626953,0.1542969l-0.0634766,0.2148438
			h-2.6025391L47.1875,81.1256485h0.1572266c0.3837891,0,0.6611328-0.0976563,0.8320313-0.2910156
			c0.1240234-0.1396484,0.2539063-0.4423828,0.3896484-0.9072266l1.7177734-5.8808594
			c-0.1279297-0.1318359-0.2509766-0.2216797-0.3671875-0.2675781s-0.3320313-0.0830078-0.6455078-0.1103516l0.0576172-0.2148438
			H51.2910156z"/>
	</g>
</g>
<g>
	<g>
		<path class="st4" d="M53.4628906,36.8346367l-0.6679688,2.3769531c-0.0449219,0.1601563-0.0673828,0.2568359-0.0673828,0.2880859
			c0,0.0361328,0.0107422,0.0654297,0.0322266,0.0878906c0.0205078,0.0224609,0.0458984,0.0341797,0.0751953,0.0341797
			c0.0341797,0,0.0742188-0.0185547,0.1220703-0.0546875c0.1279297-0.1015625,0.2578125-0.2460938,0.3876953-0.4335938
			l0.1181641,0.078125c-0.1523438,0.2353516-0.3330078,0.4326172-0.5400391,0.5927734
			c-0.1533203,0.1201172-0.2988281,0.1796875-0.4384766,0.1796875c-0.0927734,0-0.1679688-0.0273438-0.2265625-0.0830078
			c-0.0585938-0.0546875-0.0878906-0.125-0.0878906-0.2080078c0-0.0839844,0.0283203-0.2226563,0.0849609-0.4169922
			l0.4384766-1.5185547c0.0722656-0.2490234,0.1083984-0.4052734,0.1083984-0.4677734
			c0-0.0498047-0.0175781-0.0908203-0.0527344-0.1220703c-0.0351563-0.0322266-0.0830078-0.0478516-0.1435547-0.0478516
			c-0.0488281,0-0.1513672,0.0126953-0.3066406,0.0371094v-0.1318359L53.4628906,36.8346367z M53.4189453,35.4889336
			c0.0947266,0,0.1748047,0.0332031,0.2402344,0.0986328s0.0976563,0.1455078,0.0976563,0.2402344
			c0,0.0927734-0.0332031,0.1728516-0.0996094,0.2392578s-0.1455078,0.1005859-0.2382813,0.1005859
			c-0.0917969,0-0.1708984-0.0341797-0.2373047-0.1005859s-0.0996094-0.1464844-0.0996094-0.2392578
			c0-0.0947266,0.0322266-0.1748047,0.0976563-0.2402344S53.3251953,35.4889336,53.4189453,35.4889336z"/>
	</g>
	<g>
		<path class="st4" d="M50.1826172,31.3268223v1.243166c0.3613281-0.5673828,0.6787109-0.9433613,0.9521484-1.1289082
			c0.2714844-0.1855469,0.5351563-0.2792969,0.7880859-0.2792969c0.2177734,0,0.3925781,0.0683594,0.5224609,0.203125
			c0.1308594,0.1347656,0.1962891,0.3251953,0.1962891,0.5712891c0,0.2617207-0.0634766,0.4648457-0.1904297,0.6103535
			c-0.1259766,0.1445313-0.2792969,0.2167969-0.4580078,0.2167969c-0.2070313,0-0.3857422-0.0664063-0.5380859-0.1992188
			c-0.1513672-0.1337891-0.2402344-0.2080078-0.2675781-0.2236328c-0.0390625-0.0234375-0.0839844-0.0351563-0.1347656-0.0351563
			c-0.1132813,0-0.2207031,0.0429688-0.3212891,0.1289063c-0.1601563,0.1337891-0.2802734,0.3232422-0.3623047,0.5693359
			c-0.125,0.3789063-0.1865234,0.7978516-0.1865234,1.2548828v1.2607422l0.0058594,0.328125
			c0,0.2226563,0.0136719,0.3662109,0.0410156,0.4287109c0.0458984,0.1054688,0.1152344,0.1826172,0.2070313,0.2314453
			c0.0908203,0.0488281,0.2460938,0.0791016,0.4638672,0.0908203v0.2109375h-2.9492188v-0.2109375
			c0.2373047-0.0195313,0.3984375-0.0849609,0.4824219-0.1962891c0.0830078-0.1113281,0.125-0.40625,0.125-0.8828125v-3.0322266
			c0-0.3125-0.015625-0.5117207-0.046875-0.5976582c-0.0390625-0.109375-0.0947266-0.1894531-0.1689453-0.2402344
			s-0.2041016-0.0859375-0.3916016-0.1054688v-0.2167969H50.1826172z"/>
	</g>
</g>
<g>
	<g>
		<g>
			<polygon class="st6" points="76.3102112,85.8948441 74.303772,85.8948441 76.8311462,95.3333206 79.3628845,85.8948441 
				77.3562927,85.8948441 77.3562927,67.9953384 76.3102112,67.9953384 			"/>
		</g>
	</g>
</g>
<g>
	<g>
		<path class="st6" d="M71.3066406,104.0426407l-0.6728516,2.3769531c-0.0458984,0.1601563-0.0683594,0.2568359-0.0683594,0.2880859
			c0,0.0361328,0.0107422,0.0654297,0.0322266,0.0878906s0.046875,0.0341797,0.0761719,0.0341797
			c0.0341797,0,0.0751953-0.0185547,0.1230469-0.0546875c0.1289063-0.1015625,0.2597656-0.2460938,0.390625-0.4335938
			l0.1191406,0.078125c-0.1542969,0.2353516-0.3349609,0.4326172-0.5439453,0.5927734
			c-0.1542969,0.1201172-0.3017578,0.1796875-0.4423828,0.1796875c-0.0927734,0-0.1689453-0.0273438-0.2275391-0.0830078
			c-0.0595703-0.0546875-0.0888672-0.125-0.0888672-0.2080078c0-0.0839844,0.0283203-0.2226563,0.0849609-0.4169922
			l0.4423828-1.5185547c0.0722656-0.2490234,0.109375-0.4052734,0.109375-0.4677734
			c0-0.0498047-0.0185547-0.0908203-0.0527344-0.1220703c-0.0361328-0.0322266-0.0839844-0.0478516-0.1445313-0.0478516
			c-0.0507813,0-0.1533203,0.0126953-0.3095703,0.0371094v-0.1318359L71.3066406,104.0426407z M71.2626953,102.6969376
			c0.0957031,0,0.1757813,0.0332031,0.2412109,0.0986328c0.0664063,0.0654297,0.0986328,0.1455078,0.0986328,0.2402344
			c0,0.0927734-0.0332031,0.1728516-0.0996094,0.2392578c-0.0673828,0.0664063-0.1474609,0.1005859-0.2402344,0.1005859
			s-0.1728516-0.0341797-0.2392578-0.1005859c-0.0673828-0.0664063-0.1005859-0.1464844-0.1005859-0.2392578
			c0-0.0947266,0.0322266-0.1748047,0.0986328-0.2402344C71.0869141,102.7301407,71.1679688,102.6969376,71.2626953,102.6969376z"/>
	</g>
	<g>
		<path class="st6" d="M64.0898438,98.7106094l-0.7646484,2.6445313c0.3417969-0.6210938,0.6318359-1.0888672,0.8710938-1.4013672
			c0.3720703-0.484375,0.7353516-0.8359375,1.0878906-1.0556641c0.2080078-0.125,0.4257813-0.1875,0.6533203-0.1875
			c0.1962891,0,0.359375,0.0625,0.4882813,0.1875c0.1298828,0.1259766,0.1943359,0.2861328,0.1943359,0.4814453
			c0,0.1914063-0.0449219,0.4414063-0.1357422,0.75l-0.4169922,1.4892578
			c0.6386719-1.1914063,1.2451172-2.0283203,1.8173828-2.5087891c0.3173828-0.2666016,0.6318359-0.3994141,0.9414063-0.3994141
			c0.1806641,0,0.328125,0.0615234,0.4443359,0.1845703c0.1152344,0.1230469,0.1738281,0.3144531,0.1738281,0.5722656
			c0,0.2265625-0.0361328,0.4667969-0.1064453,0.7207031l-0.6474609,2.28125
			c-0.140625,0.4960938-0.2109375,0.7714844-0.2109375,0.8261719c0,0.0556641,0.0175781,0.1025391,0.0527344,0.1416016
			c0.0234375,0.0273438,0.0546875,0.0410156,0.09375,0.0410156s0.1083984-0.0371094,0.2060547-0.1113281
			c0.2236328-0.1728516,0.4335938-0.3994141,0.6298828-0.6806641l0.1933594,0.1230469
			c-0.0976563,0.15625-0.2714844,0.3710938-0.5205078,0.6455078c-0.2490234,0.2734375-0.4619141,0.4589844-0.6376953,0.5566406
			c-0.1767578,0.0976563-0.3398438,0.1464844-0.4882813,0.1464844c-0.1376953,0-0.2519531-0.046875-0.3447266-0.140625
			c-0.0917969-0.09375-0.1376953-0.2089844-0.1376953-0.3457031c0-0.1875,0.0800781-0.5654297,0.2412109-1.1318359
			l0.5351563-1.8818359c0.1210938-0.4345703,0.1865234-0.6748047,0.1943359-0.7216797
			c0.0117188-0.0742188,0.0175781-0.1464844,0.0175781-0.2167969c0-0.0976563-0.0214844-0.1738281-0.0654297-0.2285156
			c-0.046875-0.0546875-0.0996094-0.0820313-0.1582031-0.0820313c-0.1650391,0-0.3398438,0.0839844-0.5234375,0.2519531
			c-0.5419922,0.4960938-1.0478516,1.1923828-1.5185547,2.0869141c-0.3095703,0.5908203-0.5996094,1.3466797-0.8701172,2.2695313
			h-0.8886719l1.0058594-3.546875c0.1103516-0.3837891,0.1650391-0.6396484,0.1650391-0.7685547
			c0-0.1054688-0.0214844-0.1835938-0.0644531-0.234375C65.5527344,99.4166641,65.5,99.3912735,65.4375,99.3912735
			c-0.1289063,0-0.2666016,0.046875-0.4121094,0.140625c-0.2353516,0.1523438-0.5380859,0.4785156-0.9082031,0.9794922
			c-0.3710938,0.5-0.6582031,0.9785156-0.8623047,1.4355469c-0.0976563,0.2158203-0.3310547,0.9052734-0.7001953,2.0703125
			h-0.8701172l1.0878906-3.7998047l0.1416016-0.4921875c0.0273438-0.0742188,0.0410156-0.1289063,0.0410156-0.1640625
			c0-0.0859375-0.0390625-0.1630859-0.1181641-0.2314453c-0.078125-0.0683594-0.1777344-0.1025391-0.2998047-0.1025391
			c-0.0507813,0-0.1923828,0.0234375-0.4238281,0.0703125l-0.0527344-0.2177734L64.0898438,98.7106094z"/>
		<path class="st6" d="M79.3007813,99.0738907l-0.1708984,0.6103516h-0.9824219
			c0.0742188,0.2109375,0.1123047,0.4082031,0.1123047,0.5917969c0,0.5166016-0.2197266,0.9755859-0.6591797,1.3779297
			c-0.4433594,0.4033203-1.0517578,0.6259766-1.8242188,0.6689453c-0.4150391,0.125-0.7275391,0.2734375-0.9355469,0.4453125
			c-0.078125,0.0625-0.1171875,0.1269531-0.1171875,0.1933594c0,0.078125,0.0351563,0.1494141,0.1054688,0.2138672
			c0.0712891,0.0644531,0.2490234,0.1298828,0.5361328,0.1972656l1.140625,0.2636719
			c0.6318359,0.1484375,1.0498047,0.3242188,1.2529297,0.5273438c0.2001953,0.2070313,0.3007813,0.4453125,0.3007813,0.7158203
			c0,0.3203125-0.1191406,0.6132813-0.3564453,0.8789063s-0.5839844,0.4746094-1.0410156,0.625
			s-0.9619141,0.2255859-1.5146484,0.2255859c-0.4863281,0-0.9296875-0.0576172-1.3300781-0.1728516
			c-0.3994141-0.1152344-0.6865234-0.2705078-0.8583984-0.4667969c-0.1728516-0.1953125-0.2587891-0.3964844-0.2587891-0.6035156
			c0-0.1679688,0.0556641-0.3427734,0.1669922-0.5244141c0.1123047-0.1826172,0.2519531-0.3320313,0.4208984-0.4492188
			c0.1064453-0.0742188,0.40625-0.25,0.9003906-0.5273438c-0.1806641-0.140625-0.2705078-0.2949219-0.2705078-0.4628906
			c0-0.1572266,0.0791016-0.3232422,0.2382813-0.4990234c0.1582031-0.1757813,0.4951172-0.3691406,1.0087891-0.5800781
			c-0.4316406-0.0820313-0.7734375-0.2617188-1.0263672-0.5400391c-0.2529297-0.2773438-0.3798828-0.5859375-0.3798828-0.9257813
			c0-0.5556641,0.2441406-1.0517578,0.7324219-1.4892578c0.4882813-0.4384766,1.1386719-0.6572266,1.9501953-0.6572266
			c0.2939453,0,0.5351563,0.0292969,0.7236328,0.0878906s0.3710938,0.1503906,0.546875,0.2753906H79.3007813z
			 M74.4414063,104.0172501c-0.3173828,0.1445313-0.5585938,0.3300781-0.7207031,0.5566406
			c-0.1630859,0.2275391-0.2441406,0.4501953-0.2441406,0.6689453c0,0.2578125,0.1171875,0.4707031,0.3525391,0.6386719
			c0.3378906,0.2431641,0.8320313,0.3642578,1.4824219,0.3642578c0.5615234,0,1.0410156-0.0947266,1.4384766-0.2851563
			c0.3984375-0.1894531,0.5976563-0.4345703,0.5976563-0.7353516c0-0.1523438-0.0742188-0.296875-0.2207031-0.4335938
			c-0.1474609-0.1376953-0.4326172-0.2490234-0.8564453-0.3349609
			C76.0390625,104.4098282,75.4296875,104.2633438,74.4414063,104.0172501z M77.2587891,99.9947891
			c0-0.3125-0.0869141-0.5585938-0.2617188-0.7382813c-0.1738281-0.1796875-0.4023438-0.2705078-0.6845703-0.2705078
			c-0.4433594,0-0.8095703,0.2226563-1.0976563,0.6660156s-0.4326172,0.90625-0.4326172,1.3867188
			c0,0.3007813,0.0927734,0.546875,0.2763672,0.7382813c0.1845703,0.1914063,0.4082031,0.2880859,0.6708984,0.2880859
			c0.2080078,0,0.4091797-0.0566406,0.6035156-0.1708984c0.1933594-0.1132813,0.3574219-0.2695313,0.4912109-0.46875
			c0.1328125-0.1992188,0.2392578-0.453125,0.3173828-0.7617188S77.2587891,100.1315079,77.2587891,99.9947891z"/>
	</g>
</g>
<g>
	<g>
		<path class="st7" d="M23.4946289,42.9283867c0.5117188-1.5371094,1.2167969-2.7207031,2.1162109-3.5517578
			c0.6777344-0.6230469,1.3466797-0.9355469,2.0048828-0.9355469c0.6386719,0,1.0839844,0.2998047,1.3359375,0.9003906
			c0.3525391,0.8388672,0.2861328,1.9804688-0.1933594,3.4238281c-0.4570313,1.3730469-1.1259766,2.4570313-2.0097656,3.2529297
			c-0.6884766,0.6162109-1.3598633,0.9248047-2.0141602,0.9248047c-0.3535156,0-0.6479492-0.0859375-0.8833008-0.2578125
			c-0.234375-0.1708984-0.4111328-0.4199219-0.5297852-0.7431641c-0.1176758-0.3232422-0.1762695-0.6669922-0.1772461-1.0292969
			C23.1459961,44.2877617,23.262207,43.6276054,23.4946289,42.9283867z M24.6196289,42.8990898
			c-0.215332,0.6953125-0.3701172,1.3183594-0.4648438,1.8730469c-0.0737305,0.421875-0.0810547,0.7871094-0.0209961,1.0996094
			c0.034668,0.1875,0.1240234,0.3466797,0.2670898,0.4775391c0.144043,0.1308594,0.3222656,0.1953125,0.5361328,0.1953125
			c0.2490234,0,0.5253906-0.1171875,0.8271484-0.3515625c0.3017578-0.2333984,0.5957031-0.609375,0.8837891-1.1279297
			c0.2871094-0.5195313,0.5957031-1.2412109,0.9267578-2.1660156H24.6196289z M27.7143555,42.5133476
			c0.3359375-1.0185547,0.5107422-1.8359375,0.5244141-2.4521484c0.0087891-0.4716797-0.0742188-0.8095703-0.2529297-1.0126953
			c-0.1298828-0.1474609-0.3105469-0.2216797-0.5449219-0.2216797c-0.2646484,0-0.5429688,0.1035156-0.8330078,0.3095703
			c-0.2900391,0.2070313-0.5742188,0.5527344-0.8496094,1.0361328c-0.2763672,0.484375-0.6132813,1.2646484-1.0102539,2.3408203
			H27.7143555z"/>
	</g>
</g>
<circle cx="20" cy="19.1022568" r="2.5"/>
<g>
</g>
<g>
</g>
<g>
</g>
<g>
</g>
<g>
</g>
<g>
</g>
</svg>
