<?xml version="1.0" encoding="utf-8"?>
<!-- Generator: Adobe Illustrator 19.0.0, SVG Export Plug-In . SVG Version: 6.00 Build 0)  -->
<svg version="1.1" id="Layer_1" xmlns="http://www.w3.org/2000/svg" xmlns:xlink="http://www.w3.org/1999/xlink" x="0px" y="0px"
	 viewBox="0 0 342.9599915 240.9600067" style="enable-background:new 0 0 342.9599915 240.9600067;" xml:space="preserve">
<style type="text/css">
	.st0{clip-path:url(#SVGID_2_);}
	.st1{clip-path:url(#SVGID_4_);}
	
		.st2{clip-path:url(#SVGID_6_);fill:none;stroke:#000000;stroke-width:1.7981377;stroke-linecap:round;stroke-linejoin:round;stroke-miterlimit:10;}
	
		.st3{clip-path:url(#SVGID_6_);fill:none;stroke:#FF8000;stroke-width:1.7981377;stroke-linecap:round;stroke-linejoin:round;stroke-miterlimit:10;}
	
		.st4{clip-path:url(#SVGID_6_);fill:none;stroke:#8080FF;stroke-width:1.7981377;stroke-linecap:round;stroke-linejoin:round;stroke-miterlimit:10;}
	.st5{clip-path:url(#SVGID_6_);}
	.st6{clip-path:url(#SVGID_8_);fill-rule:evenodd;clip-rule:evenodd;fill:#0080FF;}
	.st7{clip-path:url(#SVGID_6_);fill-rule:evenodd;clip-rule:evenodd;fill:#FF8000;}
	.st8{clip-path:url(#SVGID_6_);fill:#FF8000;}
	.st9{clip-path:url(#SVGID_10_);fill-rule:evenodd;clip-rule:evenodd;fill:#FF8000;}
	.st10{clip-path:url(#SVGID_6_);fill:#980000;}
	.st11{clip-path:url(#SVGID_12_);fill-rule:evenodd;clip-rule:evenodd;fill:#980000;}
	.st12{clip-path:url(#SVGID_14_);fill-rule:evenodd;clip-rule:evenodd;fill:#FF8000;}
	.st13{clip-path:url(#SVGID_16_);fill-rule:evenodd;clip-rule:evenodd;fill:#980000;}
</style>
<g>
	<defs>
		<rect id="SVGID_1_" x="0.0000051" width="342.9599915" height="240.9600067"/>
	</defs>
	<clipPath id="SVGID_2_">
		<use xlink:href="#SVGID_1_"  style="overflow:visible;"/>
	</clipPath>
	<g class="st0">
	</g>
</g>
<g>
	<defs>
		<rect id="SVGID_3_" y="-0.0000458" width="342.9599915" height="240.9600067"/>
	</defs>
	<clipPath id="SVGID_4_">
		<use xlink:href="#SVGID_3_"  style="overflow:visible;"/>
	</clipPath>
	<g class="st1">
		<defs>
			<rect id="SVGID_5_" y="0.0014343" width="342.6459351" height="240.7485352"/>
		</defs>
		<clipPath id="SVGID_6_">
			<use xlink:href="#SVGID_5_"  style="overflow:visible;"/>
		</clipPath>
		<line class="st2" x1="91.085907" y1="33.0857239" x2="91.085907" y2="155.8077393"/>
		<line class="st2" x1="91.085907" y1="156.0319214" x2="329.3408508" y2="155.8077393"/>
		<line class="st3" x1="91.085907" y1="71.7454224" x2="251.1212921" y2="155.8077393"/>
		<path class="st4" d="M220.7804871,155.5823975c0.0707245-4.7746277,1.2683105-9.465332,3.4932098-13.6897278"/>
		<g class="st5">
			<defs>
				<rect id="SVGID_7_" x="190.8556671" y="126.8785782" width="19.5330963" height="37.779541"/>
			</defs>
			<clipPath id="SVGID_8_">
				<use xlink:href="#SVGID_7_"  style="overflow:visible;"/>
			</clipPath>
			<path class="st6" d="M198.02211,145.0057068c-0.2176971,0.8868408-0.4080505,1.7810974-0.5698853,2.6825562
				c-0.1287537,0.6513824-0.1934814,1.3027802-0.1934814,1.9529724c0,0.2440796,0.0081482,0.4792633,0.0244598,0.7058258
				c0.0160522,0.3066406,0.0527496,0.5933685,0.1088409,0.8594971c0.0565796,0.2670746,0.1316223,0.496521,0.2241669,0.688324
				c0.0925446,0.1927643,0.2162628,0.341156,0.3699493,0.4471283c0.1536713,0.1057281,0.3397217,0.1587219,0.5571747,0.1579895
				c0.4603271,0.0007324,0.890686-0.2145691,1.2905884-0.6463623c0.4001465-0.4308167,0.7772827-0.9491577,1.1330719-1.5535583
				c0.5332031-0.8779602,0.94487-1.7676697,1.2361603-2.6700745c0.2913055-0.9014587,0.5411224-1.7765503,0.7506714-2.6242981
				H198.02211z M203.9598236,138.7125549c-0.0323639-0.3068848-0.0728912-0.5921783-0.1213226-0.8583069
				c-0.0484314-0.2661133-0.1191559-0.4986572-0.2117004-0.6952667c-0.0927734-0.1941986-0.2119446-0.3476257-0.3574677-0.453125
				c-0.1455231-0.105484-0.3308563-0.1582336-0.5574188-0.1582336c-0.4682465,0-0.9007568,0.2181854-1.2963409,0.6521149
				c-0.3955994,0.4363403-0.7794342,0.956604-1.151535,1.5583649c-0.5329742,0.8630981-0.94487,1.7501678-1.2359161,2.6600189
				c-0.2913055,0.9103088-0.5413666,1.788269-0.7516327,2.6345825h4.9319458
				c0.2184143-0.8851471,0.4205322-1.7875671,0.6058655-2.7057953c0.1294556-0.6192627,0.1941833-1.2318268,0.1941833-1.8359833
				C204.0084839,139.2447968,203.9921875,138.9786682,203.9598236,138.7125549z M205.5958862,138.4416504
				c0.1941986,0.7456055,0.2905884,1.5056152,0.2905884,2.2816772c0,0.2440643-0.0081482,0.4794922-0.0244598,0.7058105
				c-0.0800781,1.0361938-0.2536621,2.0750275-0.5204926,3.117691c-0.2903442,1.0515289-0.6581268,2.0934906-1.1021423,3.1244049
				c-0.4442596,1.0316467-1.0347748,2.0213165-1.7700958,2.9700012c-0.250061,0.321991-0.5272217,0.6403656-0.8300171,0.9537201
				c-0.3030548,0.3138275-0.6281586,0.594101-0.9750824,0.8410339c-0.3471527,0.2471771-0.7089386,0.449295-1.0846405,0.6053619
				c-0.3756866,0.1572876-0.7698364,0.235199-1.1817322,0.235199c-0.4198151,0-0.781601-0.0800781-1.0846405-0.2411804
				c-0.3028107-0.1604004-0.5631866-0.3675537-0.781601-0.622879c-0.2176819-0.2543793-0.3977509-0.5389557-0.5389557-0.8527832
				c-0.1412201-0.3133392-0.2565308-0.6353302-0.3457184-0.9654694c-0.2014008-0.7288208-0.3028107-1.4818726-0.3028107-2.2589111
				c0-0.250061,0.0160522-0.4972229,0.0484314-0.7413025c0.0647278-1.019165,0.2383118-2.0500793,0.5207367-3.0941772
				c0.2668457-1.0501099,0.6264648-2.0889282,1.0786438-3.1169739c0.4528961-1.0280457,1.0544281-2.0205994,1.8060608-2.9772034
				c0.2507782-0.3212585,0.5257721-0.6401215,0.8242645-0.9589844c0.2984924-0.3164673,0.6175995-0.5993652,0.956604-0.8463135
				c0.3397369-0.2469482,0.6969604-0.4483337,1.0728912-0.6065674c0.3757019-0.1558228,0.7734528-0.2349548,1.1934967-0.2349548
				c0.420517,0,0.7801514,0.0815125,1.0786438,0.242157c0.2984924,0.1606293,0.5631714,0.366806,0.793335,0.6161499
				c0.2308807,0.2517395,0.4126129,0.5394287,0.5456848,0.8606873
				C205.3966522,137.799118,205.5076599,138.1203766,205.5958862,138.4416504z"/>
		</g>
		<circle class="st7" cx="251.1213074" cy="155.8077393" r="4.3155594"/>
		<circle class="st7" cx="91.085907" cy="71.7454224" r="4.3155594"/>
		<path class="st8" d="M70.5762024,11.8079224l-5.394455,17.9812469l4.4953766-3.5962524h1.7981491l4.4953766,3.5962524
			L70.5762024,11.8079224z M69.677124,74.7422943V26.1785278h1.7981491v48.5637665
			c0,0.4962769-0.4027786,0.8990631-0.8990707,0.8990631S69.677124,75.2385712,69.677124,74.7422943z"/>
		<g class="st5">
			<defs>
				<rect id="SVGID_9_" x="42.7947731" y="-8.1208267" width="25.6679916" height="38.059845"/>
			</defs>
			<clipPath id="SVGID_10_">
				<use xlink:href="#SVGID_9_"  style="overflow:visible;"/>
			</clipPath>
			<path class="st9" d="M57.2442284,7.3697052c0.2184143,0.2126465,0.3560333,0.5104218,0.4118958,0.8942566
				c0.0160637,0.1889191,0.0242157,0.3689575,0.0242157,0.5411072c0,0.2205658-0.016304,0.4396973-0.0484314,0.6588135
				c-0.0486679,0.4396973-0.1229935,0.8853912-0.2244072,1.3361206c-0.1007004,0.4514465-0.1992378,0.8530273-0.2963371,1.2052002
				c-0.1618309,0.6677094-0.3778496,1.3653717-0.6485329,2.0949097C56.1919518,14.8294373,55.8589325,15.5,55.4633408,16.1118317
				c-0.3955917,0.6118469-0.858078,1.1258545-1.3876915,1.5411072c-0.529377,0.4154816-1.1412239,0.6228638-1.8360329,0.6228638
				c-0.5492744,0-1.0683403-0.0978241-1.5574341-0.2941742c-0.4881401-0.1954041-0.8698273-0.5130615-1.144825-0.9527588
				c-0.2984924-0.4464111-0.4442635-0.9561157-0.4368286-1.5295868c0-0.0309296,0.008152-0.061615,0.0242119-0.0939789
				c0-0.5559845,0.0647354-1.1169891,0.1942024-1.6825409c0.129467-0.5404053,0.3176727-1.1359253,0.5639-1.7875671
				c0.2464676-0.6506653,0.4823837-1.2824097,0.7082291-1.8947144c0.24263-0.6501923,0.363945-1.1838684,0.363945-1.6000824
				c0-0.3521881-0.1493645-0.5286407-0.4485779-0.5293579c-0.2742767,0.0007172-0.5226593,0.079361-0.7449112,0.2359161
				c-0.2220116,0.1572723-0.4241257,0.3749695-0.6058578,0.6530762c-0.1817322,0.2785797-0.3454857,0.6080017-0.4912529,0.9882355
				c-0.1455307,0.380722-0.2661285,0.7858887-0.3632278,1.2169495c-0.0889473,0.2124176-0.2383156,0.3219757-0.4485779,0.3294067
				h-0.278595c-0.1941986,0.0007324-0.2912979-0.0970917-0.2912979-0.2941589v-0.0824738
				c0.1134033-0.4308319,0.2632484-0.8712463,0.4485779-1.3226929c0.1860466-0.4507141,0.4207649-0.8604431,0.7029572-1.2294159
				c0.2831459-0.3684845,0.6068153-0.674408,0.9700394-0.9177551c0.3632278-0.24263,0.779438-0.3646545,1.2476768-0.3653717
				c0.4044647,0.0007172,0.7494698,0.0875092,1.0362167,0.2593994c0.2867432,0.1728668,0.5051575,0.402298,0.6542854,0.688324
				c0.1500854,0.2867432,0.2325592,0.6096802,0.2486229,0.9700165v0.0822296c0,0.3382874-0.0683289,0.6868744-0.206665,1.0469818
				c-0.2337608,0.6125488-0.4653625,1.2382965-0.6962433,1.8774567c-0.2301636,0.6396484-0.4104576,1.2138367-0.5396881,1.7228241
				c-0.128746,0.5336761-0.2176933,1.0440979-0.2663651,1.5293427c-0.0160637,0.1102905-0.0242157,0.2162476-0.0242157,0.3176727
				c0,0.3536224,0.0611382,0.6866302,0.181736,0.9999847c0.105011,0.2749786,0.277153,0.4912415,0.5154686,0.6477966
				c0.2380753,0.1572723,0.5190659,0.2354279,0.841774,0.2344666c0.4766312,0.0009613,0.9067459-0.1536713,1.2905922-0.463913
				c0.3838463-0.3095093,0.7257347-0.7271423,1.0242271-1.2529144c0.2987328-0.5250397,0.5634193-1.1234589,0.7935829-1.7942657
				c0.2308807-0.670578,0.4344292-1.3469086,0.6116104-2.0301819c0.0810356-0.3440399,0.1215553-0.6734467,0.1215553-0.9882355
				c0-0.2344666-0.016304-0.4579163-0.0486717-0.670578c-0.1042938-0.5087433-0.3390121-0.9402771-0.7029572-1.2941437
				c-0.1690254-0.1640015-0.2579727-0.3522034-0.2661247-0.5646057c0-0.0779266,0.0124664-0.1522522,0.035965-0.2236938
				c0.0736008-0.2733154,0.2169724-0.5108948,0.4308319-0.7108459c0.2141037-0.2001953,0.4663239-0.3272552,0.7566643-0.3831177
				c0.0486679-0.0148621,0.1052513-0.0227661,0.1699829-0.0234985C56.8486366,7.0999908,57.0588989,7.1903687,57.2442284,7.3697052z
				"/>
			<path class="st9" d="M64.2706833,21.4227142c-0.9319229-0.0263672-1.8391495-0.0395508-2.7209625-0.0395508
				c-0.8813324,0-1.788559,0.0131836-2.721199,0.0395508v-0.5665131h0.5248184
				c0.1671066,0.000473,0.3243866-0.0016785,0.4708748-0.0062408c0.1472092-0.0040741,0.2865067-0.0153351,0.4183693-0.0328369
				c0.1318665-0.0175018,0.2457504-0.0350037,0.3418884-0.0532227c0.0810394-0.0127106,0.148407-0.0529938,0.2013931-0.1215515
				c0.0534668-0.0678558,0.0798378-0.1436157,0.0798378-0.2275238l-0.0000038-7.4252167
				c-0.2531776,0.1102905-0.5648575,0.1939697-0.9347992,0.2507782c-0.3699341,0.0572968-0.7753601,0.0855865-1.2162628,0.0853577
				l-0.0000038-0.5600586c0.6082573,0.0002441,1.1697578-0.0642548,1.6837883-0.1939545
				c0.5142708-0.1292267,0.9590149-0.3723297,1.3339882-0.7283478h0.2356758
				c0.1668701,0.0002441,0.2503052,0.0728912,0.2503052,0.2172089v8.3542328c0,0.0879822,0.0254135,0.1649475,0.076004,0.2308807
				c0.050827,0.065918,0.1246719,0.105484,0.2205734,0.1181946c0.0810318,0.018219,0.1853256,0.0357208,0.311676,0.0532227
				c0.1268311,0.0175018,0.2699661,0.0287628,0.4293976,0.0328369c0.1596756,0.0045624,0.3155174,0.0067139,0.4672813,0.0062408
				h0.5473595V21.4227142z"/>
		</g>
		<path class="st10" d="M37.8270874,11.8079224l-5.3944511,17.9812469l4.4953766-3.5962524h1.7981491l4.4953766,3.5962524
			L37.8270874,11.8079224z M36.9280128,85.4183502V26.1785278h1.7981491v59.2398224
			c0,0.4962769-0.4027824,0.8990631-0.8990746,0.8990631C37.3307991,86.3174133,36.9280128,85.9146271,36.9280128,85.4183502z"/>
		<g class="st5">
			<defs>
				<rect id="SVGID_11_" x="9.8101091" y="-8.1208267" width="26.1405907" height="38.059845"/>
			</defs>
			<clipPath id="SVGID_12_">
				<use xlink:href="#SVGID_11_"  style="overflow:visible;"/>
			</clipPath>
			<path class="st11" d="M21.7058411,10.0992126c-0.0321274-0.1404877-0.0601788-0.2874451-0.0843925-0.4404144
				c-0.0242176-0.1529541-0.0611401-0.3037567-0.1095695-0.453598c-0.1287498-0.3677673-0.3126411-0.6758423-0.5507202-0.9230194
				c-0.2383175-0.2469482-0.5399303-0.3704224-0.9031601-0.3711395c-0.339016,0.0007172-0.6741943,0.122757-1.0057755,0.3653717
				c-0.3311043,0.2433472-0.6339149,0.5567017-0.9089165,0.9405365c-0.3876858,0.5418243-0.67803,1.1049957-0.8722305,1.6890106
				c-0.193964,0.5845032-0.3721027,1.1939392-0.5336971,1.8285522c-0.1611176,0.6278992-0.2941818,1.236145-0.4001541,1.8235168
				c-0.0640144,0.2987366-0.0963821,0.5809174-0.0963821,0.8472748c0,0.2828979,0.0323677,0.5571747,0.0963821,0.8235321
				c0.0736065,0.3689728,0.2045116,0.6734467,0.3941593,0.9124756c0.1896477,0.2397461,0.4545784,0.358902,0.7933521,0.3579407
				c0.3721027,0.0009613,0.7456417-0.1285095,1.1215782-0.3874359c0.3756981-0.2586823,0.7250233-0.5763397,1.0477352-0.9537048
				c0.129467-0.155838,0.2529411-0.3066406,0.3699417-0.4521637c0.1177216-0.1448059,0.2205772-0.2999268,0.3088074-0.4653473
				L21.7058411,10.0992126z M25.1715126,14.4288177c-0.0961418,0.3852692-0.2049904,0.7969208-0.3263073,1.2359009
				c-0.1213169,0.439682-0.2831516,0.8470154-0.4855061,1.2236633c-0.201395,0.3764038-0.4557762,0.7022247-0.7631435,0.9764862
				c-0.3066463,0.2742767-0.6904964,0.4109344-1.1515484,0.4109344c-0.6132946,0-1.1045551-0.169754-1.4720993-0.51091
				c-0.3677864-0.341156-0.5794907-0.6883087-0.6360741-1.0419464c-0.2749996,0.3145599-0.684742,0.6521149-1.2301865,1.0124512
				c-0.5449677,0.3603516-1.1208611,0.54039-1.7267227,0.54039c-0.6382313,0-1.1736069-0.160141-1.6058865-0.4816437
				c-0.432519-0.3212585-0.7691364-0.7257233-1.0117702-1.2124023c-0.2905836-0.5794678-0.4442673-1.2030487-0.460331-1.8707428
				v-0.1764679c0-0.6190186,0.0851135-1.2382813,0.2543812-1.8587494c0.1942024-0.6816101,0.4646473-1.3560181,0.8118134-2.022995
				c0.3478861-0.6660156,0.808218-1.2859955,1.3817139-1.8594666c0.469202-0.4699097,1.0043373-0.8654938,1.6058865-1.1874695
				c0.6015472-0.3215027,1.2134056-0.4823761,1.835331-0.4830933c0.5413704,0.0007172,0.9818001,0.1440887,1.320816,0.4301147
				c0.3397331,0.2867279,0.5535965,0.5236053,0.6425457,0.7110901l-0.0484314,0.1999359
				c0.0565834-0.2896118,0.1918049-0.5087433,0.4059086-0.6580963c0.2145805-0.1486511,0.4308395-0.2234497,0.6485367-0.2241669
				c0.2500668,0.0007172,0.4603348,0.0747986,0.6300812,0.2234497c0.1052513,0.1184235,0.1618347,0.2749786,0.1692677,0.4706268
				c0,0.0711975-0.008152,0.1498413-0.0242157,0.2351837l-1.7449436,6.8001862
				c-0.0810375,0.3219757-0.137619,0.6242981-0.1699867,0.9060059c-0.0153446,0.1419373-0.0234985,0.2711487-0.0234985,0.3881531
				c0,0.1028442,0.0081539,0.2124176,0.0234985,0.3294067c0.0249329,0.1889191,0.0817566,0.3301392,0.1699867,0.4243622
				c0.0889492,0.0939789,0.2138615,0.1412048,0.3756981,0.1402435c0.1697464,0.0009613,0.3294239-0.0697632,0.4787903-0.210968
				c0.1498489-0.1412201,0.287468-0.3507538,0.4123821-0.6293488c0.1249123-0.2778625,0.244072-0.6118317,0.3574753-0.9999847
				c0.1131649-0.388382,0.2301655-0.8096161,0.3507633-1.265625c0.0484314-0.2028198,0.1860504-0.3049469,0.4123802-0.3056641
				h0.2788353c0.2102661,0.0007172,0.3145599,0.0865479,0.3145599,0.2586823V14.4288177z"/>
			<path class="st11" d="M31.7583275,21.4227142c-0.9319305-0.0263672-1.8391685-0.0395508-2.7209892-0.0395508
				c-0.8813438,0-1.788578,0.0131836-2.7212296,0.0395508v-0.5665131h0.524826
				c0.1671104,0.000473,0.3243904-0.0016785,0.4708786-0.0062408c0.147213-0.0040741,0.2865105-0.0153351,0.4183769-0.0328369
				s0.2459869-0.0350037,0.3418922-0.0532227c0.0810356-0.0127106,0.148407-0.0529938,0.2013931-0.1215515
				c0.0534668-0.0678558,0.0798378-0.1436157,0.0798378-0.2275238v-7.4252167
				c-0.2531815,0.1102905-0.5648651,0.1939697-0.9348068,0.2507782c-0.3699417,0.0572968-0.7753716,0.0855865-1.2162819,0.0853577
				V12.765686c0.6082611,0.0002441,1.1697693-0.0642548,1.6838074-0.1939545
				c0.5142746-0.1292267,0.9590225-0.3723297,1.3339996-0.7283478h0.2356834
				c0.1668701,0.0002441,0.2503014,0.0728912,0.2503014,0.2172089v8.3542328c0,0.0879822,0.0254173,0.1649475,0.076004,0.2308807
				c0.0508308,0.065918,0.1246719,0.105484,0.2205772,0.1181946c0.0812759,0.018219,0.1853294,0.0357208,0.3116798,0.0532227
				c0.1268311,0.0175018,0.2699661,0.0287628,0.4294052,0.0328369c0.1596756,0.0045624,0.3155174,0.0067139,0.4672813,0.0062408
				h0.5473633V21.4227142z"/>
		</g>
		<path class="st8" d="M165.8218384,174.4818726l17.9814911,5.3943787l-3.5962982-4.4953156v-1.798111l3.5962982-4.4953308
			L165.8218384,174.4818726z M252.2457275,175.3809357h-72.0530853v-1.798111h72.0530853
			c0.4963074,0,0.8990784,0.402771,0.8990784,0.8990479S252.7420349,175.3809357,252.2457275,175.3809357z"/>
		<g class="st5">
			<defs>
				<rect id="SVGID_13_" x="151.5301208" y="166.4470978" width="26.7849884" height="38.0598564"/>
			</defs>
			<clipPath id="SVGID_14_">
				<use xlink:href="#SVGID_13_"  style="overflow:visible;"/>
			</clipPath>
			<path class="st12" d="M165.9794464,181.9376526c0.2184143,0.2126465,0.3560333,0.5104065,0.4118958,0.8942566
				c0.0160675,0.1889038,0.0242157,0.3689575,0.0242157,0.5411072c0,0.2205658-0.0162964,0.4396973-0.0484314,0.6588135
				c-0.0486603,0.4396973-0.1229858,0.8853912-0.224411,1.3361206c-0.1006927,0.4514465-0.199234,0.8530121-0.2963257,1.2052002
				c-0.1618347,0.6676941-0.3778534,1.3653564-0.6485291,2.0949097c-0.2706757,0.7293091-0.6036835,1.3998871-0.9992828,2.0117188
				c-0.3955841,0.6118469-0.8580627,1.1258545-1.3876801,1.5411072c-0.5293732,0.4154663-1.1412048,0.6228638-1.8360138,0.6228638
				c-0.5492706,0-1.0683289-0.0978241-1.5574188-0.2941742c-0.4881287-0.1953888-0.869812-0.5130615-1.1448059-0.9527588
				c-0.2984924-0.4464111-0.4442596-0.9561157-0.4368286-1.5295868c0-0.0309296,0.0081482-0.061615,0.0242157-0.0939789
				c0-0.5559845,0.0647278-1.1169891,0.1941986-1.6825409c0.1294556-0.5404053,0.3176575-1.1359253,0.5638885-1.7875671
				c0.24646-0.6506653,0.4823761-1.2824097,0.7082214-1.8947144c0.24263-0.6501923,0.3639374-1.1838684,0.3639374-1.6000671
				c0-0.3522034-0.149353-0.528656-0.4485626-0.5293732c-0.2742767,0.0007172-0.5226593,0.079361-0.7449188,0.2359161
				c-0.2220001,0.1572723-0.424118,0.3749695-0.6058502,0.6530762c-0.1817322,0.2785797-0.3454742,0.6080017-0.4912415,0.9882355
				c-0.1455383,0.380722-0.2661285,0.7858887-0.3632202,1.2169495c-0.0889587,0.2124176-0.2383118,0.3219757-0.4485779,0.329422
				h-0.278595c-0.1941986,0.0007172-0.2912903-0.0971069-0.2912903-0.2941742v-0.0824738
				c0.1134033-0.4308167,0.2632446-0.8712463,0.4485626-1.3226929c0.1860504-0.4507141,0.4207764-0.8604431,0.7029572-1.2294159
				c0.2831421-0.3684845,0.6068115-0.674408,0.9700317-0.9177551c0.3632202-0.24263,0.7794342-0.3646545,1.2476654-0.3653717
				c0.4044647,0.0007172,0.7494659,0.0875092,1.0362091,0.2593994c0.2867432,0.1728668,0.5051575,0.402298,0.6542816,0.688324
				c0.1500854,0.2867432,0.2325592,0.6096802,0.2486115,0.9700165v0.0822296c0,0.3382874-0.0683289,0.6868744-0.206665,1.0469666
				c-0.2337494,0.6125641-0.4653473,1.2383118-0.696228,1.8774719c-0.2301636,0.6396484-0.4104614,1.2138367-0.5396881,1.7228241
				c-0.1287384,0.5336761-0.2176819,1.0440979-0.2663574,1.5293427c-0.0160675,0.1102905-0.0242157,0.2162476-0.0242157,0.3176575
				c0,0.3536377,0.061142,0.6866455,0.1817322,1c0.105011,0.2749939,0.2771606,0.4912415,0.5154724,0.6477966
				c0.2380676,0.1572723,0.5190582,0.2354279,0.8417664,0.2344666c0.4766235,0.0009613,0.9067383-0.1536865,1.2905731-0.463913
				c0.3838348-0.3095093,0.7257233-0.7271576,1.0242157-1.2529144c0.2987366-0.5250549,0.5634155-1.1234589,0.7935791-1.7942657
				c0.2308807-0.670578,0.434433-1.3469086,0.6116028-2.0301819c0.0810394-0.3440399,0.1215515-0.6734467,0.1215515-0.9882355
				c0-0.2344666-0.0162964-0.4579163-0.0486755-0.670578c-0.1042786-0.5087433-0.3390045-0.9402924-0.7029419-1.2941437
				c-0.1690216-0.1640015-0.2579803-0.3522034-0.2661285-0.5646057c0-0.0779266,0.0124664-0.1522522,0.035965-0.2236938
				c0.0736084-0.2733154,0.21698-0.5108948,0.4308319-0.7108459c0.2140961-0.2001953,0.4663239-0.3272552,0.7566528-0.3831177
				c0.0486755-0.0148621,0.1052551-0.0227814,0.1699829-0.0234985
				C165.5838623,181.667923,165.7941284,181.758316,165.9794464,181.9376526z"/>
			<path class="st12" d="M173.5690155,195.9906616h-6.1865387v-0.3622589c0-0.0261383,0.0151062-0.0654449,0.0455627-0.1186676
				l2.4854889-2.411377c0.2937012-0.2893829,0.5912323-0.5859375,0.8928375-0.8889771
				c0.3016052-0.3030548,0.5718079-0.6128082,0.8098755-0.9290314s0.4279633-0.6422882,0.5701294-0.9784088
				c0.1419373-0.3358765,0.2124176-0.6883087,0.2124176-1.0577698c0-0.3111877-0.0455475-0.602478-0.1369019-0.8724365
				c-0.0913391-0.2702026-0.2227173-0.5072937-0.39534-0.7115631c-0.1719055-0.2042694-0.387207-0.3689728-0.6456604-0.4941254
				c-0.2582092-0.1251526-0.5574188-0.1877136-0.8968964-0.1882019c-0.5063629,0.0004883-0.9537354,0.1354675-1.3416595,0.4056549
				c-0.3874359,0.2699585-0.6446838,0.5677185-0.7715149,0.8921051c-0.0249329,0.0091095,0.0155792,0.0136566,0.1217957,0.0131836
				h0.1289825c0.1522369,0.0314026,0.2836304,0.0786438,0.3953552,0.1421661
				c0.1114807,0.0637665,0.2052307,0.1515198,0.2812195,0.2634735c0.0762482,0.111969,0.1138916,0.2471924,0.1138916,0.4049377
				c0,0.2637329-0.0959015,0.4660645-0.2886658,0.6063232c-0.1927643,0.140976-0.4080505,0.2109833-0.6461334,0.2105103
				c-0.2277527,0.000473-0.4409027-0.0695343-0.6382141-0.2105103c-0.1973114-0.1402588-0.2965698-0.3425903-0.2965698-0.6063232
				c0-0.3687286,0.0812683-0.717804,0.2435913-1.0472107c0.1623077-0.3294067,0.3821564-0.6147156,0.6607513-0.8566132
				c0.278595-0.2411957,0.6080017-0.4322662,0.9880066-0.572998c0.3800201-0.1404877,0.7830353-0.2109833,1.2088318-0.2112274
				c0.5269775,0.0002441,1.0098267,0.0695343,1.4480896,0.2078705c0.4380341,0.1383362,0.8115692,0.337326,1.1206055,0.5962524
				c0.3090363,0.2594147,0.5511932,0.5590973,0.7259674,0.899292c0.1747742,0.3404388,0.2620392,0.7168427,0.2620392,1.1294403
				c0,0.4572144-0.116272,0.8779602-0.3497925,1.2620392c-0.2328033,0.3847961-0.5214539,0.7372284-0.8659821,1.0575256
				c-0.3445129,0.3207855-0.7106171,0.6226196-1.0985413,0.9059906c-0.3874359,0.2831421-0.7384338,0.5586243-1.0525055,0.826416
				l-1.7482605,1.4691772h2.2879486c0.3191071,0.0002441,0.6171112-0.0016785,0.8928223-0.0062408
				c0.2761993-0.0040741,0.510437-0.0131836,0.7032013-0.0263672s0.2915344-0.0218201,0.2960815-0.0268555
				c0.0407562-0.0304413,0.0788879-0.0918121,0.1143646-0.1838837c0.0357208-0.0923004,0.0683289-0.2009125,0.0987854-0.3262939
				c0.0304413-0.1251526,0.0608978-0.2522125,0.0913391-0.3819275c0.0304565-0.1294556,0.0580139-0.2713928,0.0834351-0.4255371
				h0.5622101L173.5690155,195.9906616z"/>
		</g>
		<path class="st10" d="M142.3559723,210.0571747l17.9815063,5.3943787l-3.5963135-4.4953156v-1.7981262l3.5963135-4.4953156
			L142.3559723,210.0571747z M253.4253235,210.9562378h-96.6985321v-1.7981262h96.6985321
			c0.4962769,0,0.8990784,0.4015808,0.8990784,0.8990631C254.3244019,210.5534515,253.9216003,210.9562378,253.4253235,210.9562378z
			"/>
		<g class="st5">
			<defs>
				<rect id="SVGID_15_" x="140.4870911" y="202.0223083" width="27.2550659" height="38.0598602"/>
			</defs>
			<clipPath id="SVGID_16_">
				<use xlink:href="#SVGID_15_"  style="overflow:visible;"/>
			</clipPath>
			<path class="st13" d="M152.3826447,220.2423706c-0.0321198-0.1404877-0.0601807-0.2874603-0.0843964-0.4404144
				c-0.0242157-0.1529694-0.0611267-0.3037567-0.1095581-0.453598c-0.1287537-0.3677826-0.3126373-0.6758575-0.5507202-0.9230347
				c-0.2383118-0.246933-0.539917-0.3704071-0.9031372-0.3711243c-0.3390198,0.0007172-0.6741943,0.1227417-1.0057678,0.3653717
				c-0.3311005,0.2433472-0.6339111,0.5566864-0.908905,0.9405365c-0.3876801,0.5418243-0.6780243,1.1049805-0.8722229,1.6890106
				c-0.1939545,0.5845032-0.3720856,1.1939392-0.5336761,1.8285522c-0.1611176,0.6278992-0.2941742,1.2361298-0.4001465,1.8235168
				c-0.0640259,0.2987213-0.0963898,0.5809021-0.0963898,0.8472748c0,0.2828979,0.0323639,0.5571594,0.0963898,0.8235168
				c0.0735931,0.3689728,0.2044983,0.6734619,0.3941498,0.9124908c0.1896362,0.2397461,0.4545746,0.358902,0.793335,0.3579407
				c0.3721008,0.0009613,0.745636-0.1285095,1.1215668-0.3874359c0.3756866-0.2586823,0.7250061-0.576355,1.0477142-0.9537201
				c0.1294708-0.1558228,0.2529449-0.3066254,0.3699493-0.4521637c0.1177063-0.1448059,0.2205658-0.2999115,0.3087921-0.4653473
				L152.3826447,220.2423706z M155.8482666,224.5719604c-0.0961304,0.3852844-0.2049866,0.7969208-0.3262939,1.2359009
				c-0.1213226,0.4396973-0.2831573,0.8470306-0.4855042,1.2236633c-0.2013855,0.3764038-0.4557648,0.7022247-0.7631378,0.9765015
				c-0.3066406,0.2742615-0.6904755,0.4109192-1.1515198,0.4109192c-0.6132965,0-1.104538-0.1697388-1.4720917-0.5108948
				c-0.3677673-0.3411713-0.579483-0.688324-0.6360626-1.0419464c-0.2749939,0.3145447-0.6847229,0.6521149-1.2301636,1.0124512
				c-0.5449524,0.3603363-1.1208496,0.54039-1.7266998,0.54039c-0.6382141,0-1.173584-0.1601563-1.6058655-0.4816589
				c-0.4325104-0.3212585-0.7691193-0.725708-1.0117493-1.2123871c-0.2905884-0.5794678-0.4442596-1.203064-0.4603271-1.8707581
				v-0.1764526c0-0.6190186,0.0851135-1.2382965,0.2543793-1.8587494c0.1941986-0.6816101,0.4646301-1.3560181,0.8117981-2.022995
				c0.3478851-0.6660156,0.808197-1.2859955,1.3816986-1.8594818c0.4691925-0.4698944,1.0043182-0.8654785,1.6058502-1.1874695
				c0.6015472-0.3215027,1.2133942-0.4823608,1.8353119-0.483078c0.5413666,0.0007172,0.981781,0.1440887,1.3208008,0.4300995
				c0.3397217,0.2867432,0.5535889,0.5236053,0.6425323,0.7110901l-0.0484314,0.1999512
				c0.0565796-0.2896118,0.191803-0.5087433,0.405899-0.6581116c0.2145844-0.1486359,0.4308319-0.2234344,0.6485291-0.2241669
				c0.250061,0.0007324,0.4603271,0.0748138,0.6300659,0.2234497c0.1052551,0.1184387,0.1618347,0.2749939,0.169281,0.4706268
				c0,0.0711975-0.0081635,0.1498413-0.0242157,0.2351837l-1.7449188,6.8002014
				c-0.0810394,0.3219757-0.137619,0.6242981-0.1699829,0.9060059c-0.0153503,0.141922-0.0234985,0.2711487-0.0234985,0.3881378
				c0,0.1028595,0.0081482,0.2124176,0.0234985,0.329422c0.0249329,0.1889191,0.0817566,0.3301239,0.1699829,0.4243469
				c0.0889435,0.0939789,0.2138519,0.1412201,0.3756866,0.1402588c0.169754,0.0009613,0.329422-0.0697784,0.4787903-0.2109833
				c0.1498413-0.1412048,0.2874603-0.3507538,0.4123688-0.6293335c0.1249084-0.2778625,0.2440643-0.6118317,0.3574677-0.9999847
				c0.1131744-0.3883972,0.2301636-0.8096313,0.350769-1.265625c0.0484161-0.2028351,0.1860352-0.3049622,0.4123688-0.3056793
				h0.2788391c0.2102509,0.0007172,0.3145447,0.0865479,0.3145447,0.2586823V224.5719604z"/>
			<path class="st13" d="M162.9981689,231.5658722h-6.1865692v-0.3622589c0-0.0261383,0.0153351-0.0654602,0.0455475-0.1186829
				l2.4855194-2.411377c0.2937012-0.2893677,0.5912323-0.5859375,0.8928375-0.8889771s0.5718079-0.612793,0.8098755-0.9290161
				c0.2380829-0.3162231,0.4279633-0.6422882,0.5701294-0.9784088c0.1419373-0.3358917,0.2124329-0.688324,0.2124329-1.0577698
				c0-0.3111877-0.0455627-0.602478-0.1369019-0.8724365c-0.0913391-0.2702026-0.2227325-0.507309-0.3951111-0.7115784
				c-0.1721497-0.2042542-0.3874359-0.3689728-0.6459045-0.4941101c-0.2582092-0.1251526-0.5574188-0.1877289-0.8969116-0.1882019
				c-0.5063477,0.000473-0.9537354,0.1354523-1.3416443,0.4056549c-0.3874512,0.2699585-0.6446991,0.5677185-0.7715302,0.8920898
				c-0.0249329,0.0091095,0.0155792,0.0136719,0.1217957,0.0131836h0.1289825
				c0.1522522,0.0314178,0.2836304,0.0786438,0.3953552,0.1421814c0.1114807,0.0637665,0.2052307,0.1515198,0.2812347,0.2634735
				c0.0762329,0.111969,0.1138763,0.2471771,0.1138763,0.4049377c0,0.2637177-0.0959015,0.4660645-0.2886658,0.6063232
				c-0.192749,0.140976-0.4080505,0.2109833-0.6461182,0.210495c-0.2277679,0.0004883-0.440918-0.069519-0.6382294-0.210495
				c-0.1973114-0.1402588-0.2965698-0.3426056-0.2965698-0.6063232c0-0.3687286,0.0812683-0.717804,0.243576-1.0472107
				c0.162323-0.329422,0.3821716-0.6147156,0.6607666-0.8566132c0.278595-0.2411957,0.608017-0.4322815,0.9880219-0.572998
				c0.3800049-0.1405029,0.7830353-0.2109833,1.2088318-0.2112274c0.5269775,0.0002441,1.0098419,0.0695343,1.4481049,0.2078705
				c0.4380188,0.1383362,0.811554,0.3373108,1.1206055,0.5962524c0.3090363,0.2593994,0.5511932,0.559082,0.7259674,0.899292
				c0.1747742,0.3404388,0.2620544,0.7168427,0.2620544,1.1294403c0,0.4571991-0.1162872,0.8779602-0.3498077,1.2620392
				c-0.2327881,0.3847809-0.5214539,0.7372131-0.8659821,1.0575104c-0.3445282,0.3207855-0.7106171,0.6226349-1.0985413,0.9060059
				c-0.3874359,0.2831421-0.7384491,0.558609-1.0525208,0.826416l-1.7482758,1.469162h2.2879639
				c0.3191071,0.0002441,0.6171265-0.0016785,0.8928375-0.0062256c0.2761993-0.0040741,0.510437-0.0131836,0.7032013-0.0263672
				c0.1929932-0.0131989,0.2915344-0.0218201,0.2960815-0.0268555c0.0407715-0.0304565,0.0788879-0.0918274,0.1143646-0.1838837
				c0.0357208-0.0923004,0.0683289-0.2009125,0.0987854-0.3263092c0.0304413-0.1251373,0.0608978-0.2522125,0.0913391-0.3819122
				c0.0304565-0.1294556,0.0580292-0.2713928,0.0834351-0.4255524h0.5622253L162.9981689,231.5658722z"/>
		</g>
	</g>
</g>
</svg>
