<?xml version="1.0" encoding="UTF-8" standalone="no"?>
<svg
   xmlns:dc="http://purl.org/dc/elements/1.1/"
   xmlns:cc="http://creativecommons.org/ns#"
   xmlns:rdf="http://www.w3.org/1999/02/22-rdf-syntax-ns#"
   xmlns:svg="http://www.w3.org/2000/svg"
   xmlns="http://www.w3.org/2000/svg"
   viewBox="0 0 456 357.35999"
   height="357.35999"
   width="456"
   xml:space="preserve"
   id="svg2"
   version="1.1"><metadata
     id="metadata8"><rdf:RDF><cc:Work
         rdf:about=""><dc:format>image/svg+xml</dc:format><dc:type
           rdf:resource="http://purl.org/dc/dcmitype/StillImage" /></cc:Work></rdf:RDF></metadata><defs
     id="defs6"><clipPath
       id="clipPath18"
       clipPathUnits="userSpaceOnUse"><path
         style="clip-rule:evenodd"
         id="path16"
         d="M 5.096e-6,0 H 342.00001 V 268.02 H 5.096e-6 Z" /></clipPath><clipPath
       id="clipPath26"
       clipPathUnits="userSpaceOnUse"><path
         style="clip-rule:evenodd"
         id="path24"
         d="M 5.096e-6,9.1553e-5 H 341.62001 V 261.47009 H 5.096e-6 Z" /></clipPath><clipPath
       id="clipPath36"
       clipPathUnits="userSpaceOnUse"><path
         id="path34"
         d="M 0,0 H 2853.01 V 2235.53 H 0 Z" /></clipPath><clipPath
       id="clipPath54"
       clipPathUnits="userSpaceOnUse"><path
         id="path52"
         d="M 0,0 H 8.1472 V 15.758 H 0 Z" /></clipPath><clipPath
       id="clipPath72"
       clipPathUnits="userSpaceOnUse"><path
         id="path70"
         d="M 0,0 H 10.706 V 15.875 H 0 Z" /></clipPath><clipPath
       id="clipPath88"
       clipPathUnits="userSpaceOnUse"><path
         id="path86"
         d="M 0,0 H 10.903 V 15.875 H 0 Z" /></clipPath><clipPath
       id="clipPath104"
       clipPathUnits="userSpaceOnUse"><path
         id="path102"
         d="M 0,0 H 11.172 V 15.875 H 0 Z" /></clipPath><clipPath
       id="clipPath120"
       clipPathUnits="userSpaceOnUse"><path
         id="path118"
         d="M 0,0 H 11.368 V 15.875 H 0 Z" /></clipPath></defs><g
     transform="matrix(1.3333333,0,0,-1.3333333,0,357.36)"
     id="g10"><g
       id="g12"><g
         clip-path="url(#clipPath18)"
         id="g14" /></g><g
       id="g20"><g
         clip-path="url(#clipPath26)"
         id="g22"><g
           transform="matrix(4.7447,0,0,3.7181,0,-6.2288)"
           id="g28"><g
             transform="scale(0.025237,0.032207)"
             id="g30"><g
               clip-path="url(#clipPath36)"
               id="g32"><path
                 id="path38"
                 style="fill:none;stroke:#000000;stroke-width:15;stroke-linecap:round;stroke-linejoin:round;stroke-miterlimit:10;stroke-dasharray:none;stroke-opacity:1"
                 d="M 753,1816.78 V 793.03" /><path
                 id="path40"
                 style="fill:none;stroke:#000000;stroke-width:15;stroke-linecap:round;stroke-linejoin:round;stroke-miterlimit:10;stroke-dasharray:none;stroke-opacity:1"
                 d="m 753,791.15 1987.5,1.88" /><path
                 id="path42"
                 style="fill:none;stroke:#ff8000;stroke-width:15;stroke-linecap:round;stroke-linejoin:round;stroke-miterlimit:10;stroke-dasharray:none;stroke-opacity:1"
                 d="M 753,1494.28 2088,793.03" /><path
                 id="path44"
                 style="fill:none;stroke:#8080ff;stroke-width:15;stroke-linecap:round;stroke-linejoin:round;stroke-miterlimit:10;stroke-dasharray:none;stroke-opacity:1"
                 d="m 1834.9,794.9 c 0.59,39.83 10.57,78.96 29.14,114.21" /><g
                 transform="matrix(2.2631,-7.54e-7,-1.507e-6,4.3772,1585.26,719.2)"
                 id="g46"><g
                   transform="scale(8.8374,4.5691)"
                   id="g48"><g
                     clip-path="url(#clipPath54)"
                     id="g50"><path
                       id="path56"
                       style="fill:#0080ff;fill-opacity:1;fill-rule:evenodd;stroke:none"
                       d="m 6.1481,10.935 c 0.081,-0.311 0.1212,-0.628 0.1212,-0.9517 0,-0.1018 -0.0034,-0.2 -0.0102,-0.2944 C 6.2257,9.2567 6.1533,8.8234 6.042,8.3885 5.9209,7.9499 5.7675,7.5153 5.5823,7.0853 5.397,6.655 5.1507,6.2422 4.844,5.8465 4.7397,5.7122 4.6241,5.5794 4.4978,5.4487 4.3714,5.3178 4.2358,5.2009 4.0911,5.0979 3.9463,4.9948 3.7954,4.9105 3.6387,4.8454 3.482,4.7798 3.3176,4.7473 3.1458,4.7473 2.9707,4.7473 2.8198,4.7807 2.6934,4.8479 2.5671,4.9148 2.4585,5.0012 2.3674,5.1077 2.2766,5.2138 2.2015,5.3325 2.1426,5.4634 2.0837,5.5941 2.0356,5.7284 1.9984,5.8661 1.9144,6.1701 1.8721,6.4842 1.8721,6.8083 c 0,0.1043 0.0067,0.2074 0.0202,0.3092 0.027,0.4251 0.0994,0.8551 0.2172,1.2906 0.1113,0.438 0.2613,0.8713 0.4499,1.3001 0.1889,0.4288 0.4398,0.8428 0.7533,1.2418 0.1046,0.134 0.2193,0.267 0.3438,0.4 0.1245,0.132 0.2576,0.25 0.399,0.353 0.1417,0.103 0.2907,0.187 0.4475,0.253 0.1567,0.065 0.3226,0.098 0.4978,0.098 0.1754,0 0.3254,-0.034 0.4499,-0.101 C 5.5752,11.886 5.6856,11.8 5.7816,11.696 5.8779,11.591 5.9537,11.471 6.0092,11.337 6.065,11.203 6.1113,11.069 6.1481,10.935 Z M 5.4657,10.822 C 5.4522,10.95 5.4353,11.069 5.4151,11.18 5.3949,11.291 5.3654,11.388 5.3268,11.47 5.2881,11.551 5.2384,11.615 5.1777,11.659 5.117,11.703 5.0397,11.725 4.9452,11.725 4.7499,11.725 4.5695,11.634 4.4045,11.453 4.2395,11.271 4.0794,11.054 3.9242,10.803 3.7019,10.443 3.5301,10.073 3.4087,9.6935 3.2872,9.3138 3.1829,8.9476 3.0952,8.5946 h 2.0571 c 0.0911,0.3692 0.1754,0.7456 0.2527,1.1286 0.054,0.2583 0.081,0.5138 0.081,0.7658 0,0.111 -0.0068,0.222 -0.0203,0.333 z M 2.9891,8.1971 C 2.8983,7.8272 2.8189,7.4542 2.7514,7.0782 2.6977,6.8065 2.6707,6.5348 2.6707,6.2636 2.6707,6.1618 2.6741,6.0637 2.6809,5.9692 2.6876,5.8413 2.7029,5.7217 2.7263,5.6107 2.7499,5.4993 2.7812,5.4036 2.8198,5.3236 2.8584,5.2432 2.91,5.1813 2.9741,5.1371 3.0382,5.093 3.1158,5.0709 3.2065,5.0712 3.3985,5.0709 3.578,5.1607 3.7448,5.3408 3.9117,5.5205 4.069,5.7367 4.2174,5.9888 4.4398,6.355 4.6115,6.7261 4.733,7.1025 c 0.1215,0.376 0.2257,0.741 0.3131,1.0946 z" /></g></g></g><path
                 id="path58"
                 style="fill:#ff8000;fill-opacity:1;fill-rule:evenodd;stroke:none"
                 d="m 2124,793.03 c 0,-19.88 -16.12,-36 -36,-36 -19.89,0 -36,16.12 -36,36 0,19.88 16.11,36 36,36 19.88,0 36,-16.12 36,-36 z" /><path
                 id="path60"
                 style="fill:#ff8000;fill-opacity:1;fill-rule:evenodd;stroke:none"
                 d="m 789,1494.28 c 0,-19.88 -16.12,-36 -36,-36 -19.89,0 -36,16.12 -36,36 0,19.88 16.11,36 36,36 19.88,0 36,-16.12 36,-36 z" /><path
                 id="path62"
                 style="fill:#ff8000;fill-opacity:1;fill-rule:nonzero;stroke:none"
                 d="m 574.4,1469.28 v 405.12 h 15 v -405.12 c 0,-4.14 -3.35,-7.5 -7.5,-7.5 -4.14,0 -7.5,3.36 -7.5,7.5 z m 7.5,525 -45,-150 37.5,30 h 15 l 37.5,-30 z" /><g
                 transform="matrix(2.9738,-3.014e-6,-3.77e-7,4.4098,350.16,1843.02)"
                 id="g64"><g
                   transform="scale(6.7254,4.5353)"
                   id="g66"><g
                     clip-path="url(#clipPath72)"
                     id="g68"><path
                       id="path74"
                       style="fill:#ff8000;fill-opacity:1;fill-rule:evenodd;stroke:none"
                       d="M 6.0268,9.4138 C 6.1179,9.3251 6.1753,9.2009 6.1986,9.0408 6.2053,8.962 6.2087,8.8869 6.2087,8.8151 6.2087,8.7231 6.2019,8.6317 6.1885,8.5403 6.1682,8.3569 6.1372,8.171 6.0949,7.983 6.0529,7.7947 6.0118,7.6272 5.9713,7.4803 5.9038,7.2018 5.8137,6.9108 5.7008,6.6065 5.5879,6.3023 5.449,6.0226 5.284,5.7674 5.119,5.5122 4.9261,5.2978 4.7052,5.1246 4.4844,4.9513 4.2292,4.8648 3.9394,4.8648 3.7103,4.8648 3.4938,4.9056 3.2898,4.9875 3.0862,5.069 2.927,5.2015 2.8123,5.3849 2.6878,5.5711 2.627,5.7837 2.6301,6.0229 c 0,0.0129 0.0034,0.0257 0.0101,0.0392 0,0.2319 0.027,0.4659 0.081,0.7018 0.054,0.2254 0.1325,0.4738 0.2352,0.7456 C 3.0592,7.7809 3.1576,8.0444 3.2518,8.2998 3.353,8.571 3.4036,8.7936 3.4036,8.9672 3.4036,9.1141 3.3413,9.1877 3.2165,9.188 3.1021,9.1877 2.9985,9.1549 2.9058,9.0896 2.8132,9.024 2.7289,8.9332 2.6531,8.8172 2.5773,8.701 2.509,8.5636 2.4482,8.405 2.3875,8.2462 2.3372,8.0772 2.2967,7.8974 2.2596,7.8088 2.1973,7.7631 2.1096,7.76 H 1.9934 C 1.9124,7.7597 1.8719,7.8005 1.8719,7.8827 V 7.9171 C 1.9192,8.0968 1.9817,8.2805 2.059,8.4688 2.1366,8.6568 2.2345,8.8277 2.3522,8.9816 2.4703,9.1353 2.6053,9.2629 2.7568,9.3644 2.9083,9.4656 3.0819,9.5165 3.2772,9.5168 3.4459,9.5165 3.5898,9.4803 3.7094,9.4086 3.829,9.3365 3.9201,9.2408 3.9823,9.1215 4.0449,9.0019 4.0793,8.8672 4.086,8.7169 V 8.6826 C 4.086,8.5415 4.0575,8.3961 3.9998,8.2459 3.9023,7.9904 3.8057,7.7294 3.7094,7.4628 3.6134,7.196 3.5382,6.9565 3.4843,6.7442 3.4306,6.5216 3.3935,6.3087 3.3732,6.1063 3.3665,6.0603 3.3631,6.0161 3.3631,5.9738 3.3631,5.8263 3.3886,5.6874 3.4389,5.5567 3.4827,5.442 3.5545,5.3518 3.6539,5.2865 3.7532,5.2209 3.8704,5.1883 4.005,5.1887 4.2038,5.1883 4.3832,5.2528 4.5433,5.3822 4.7034,5.5113 4.846,5.6855 4.9705,5.9048 5.0951,6.1238 5.2055,6.3734 5.3015,6.6532 5.3978,6.9329 5.4827,7.215 5.5566,7.5 5.5904,7.6435 5.6073,7.7809 5.6073,7.9122 5.6073,8.01 5.6005,8.1032 5.587,8.1919 5.5435,8.4041 5.4456,8.5841 5.2938,8.7317 5.2233,8.8001 5.1862,8.8786 5.1828,8.9672 c 0,0.0325 0.0052,0.0635 0.015,0.0933 C 5.2285,9.1745 5.2883,9.2736 5.3775,9.357 5.4668,9.4405 5.572,9.4935 5.6931,9.5168 5.7134,9.523 5.737,9.5263 5.764,9.5266 5.8618,9.5263 5.9495,9.4886 6.0268,9.4138 Z" /><path
                       id="path76"
                       style="fill:#ff8000;fill-opacity:1;fill-rule:evenodd;stroke:none"
                       d="M 8.9575,3.5522 C 8.5688,3.5632 8.1904,3.5687 7.8226,3.5687 7.455,3.5687 7.0766,3.5632 6.6876,3.5522 v 0.2363 h 0.2189 c 0.0697,-2e-4 0.1353,7e-4 0.1964,0.0026 C 7.1643,3.7928 7.2224,3.7975 7.2774,3.8048 7.3324,3.8121 7.3799,3.8194 7.42,3.827 7.4538,3.8323 7.4819,3.8491 7.504,3.8777 7.5263,3.906 7.5373,3.9376 7.5373,3.9726 V 7.0697 C 7.4317,7.0237 7.3017,6.9888 7.1474,6.9651 6.9931,6.9412 6.824,6.9294 6.6401,6.9295 V 7.1631 C 6.8938,7.163 7.128,7.1899 7.3424,7.244 c 0.2145,0.0539 0.4,0.1553 0.5564,0.3038 H 7.9971 C 8.0667,7.5477 8.1015,7.5174 8.1015,7.4572 V 3.9726 C 8.1015,3.9359 8.1121,3.9038 8.1332,3.8763 8.1544,3.8488 8.1852,3.8323 8.2252,3.827 8.259,3.8194 8.3025,3.8121 8.3552,3.8048 8.4081,3.7975 8.4678,3.7928 8.5343,3.7911 8.6009,3.7892 8.6659,3.7883 8.7292,3.7885 h 0.2283 z" /></g></g></g><path
                 id="path78"
                 style="fill:#ffff00;fill-opacity:1;fill-rule:nonzero;stroke:none"
                 d="m 301.21,1380.22 v 494.18 h 15 v -494.18 c 0,-4.15 -3.36,-7.5 -7.5,-7.5 -4.14,0 -7.5,3.35 -7.5,7.5 z m 7.5,614.06 -45,-150 37.5,30 h 15 l 37.5,-30 z" /><g
                 transform="matrix(3.0285,-3.014e-6,0,4.4098,75,1843.02)"
                 id="g80"><g
                   transform="scale(6.604,4.5353)"
                   id="g82"><g
                     clip-path="url(#clipPath88)"
                     id="g84"><path
                       id="path90"
                       style="fill:#ffff00;fill-opacity:1;fill-rule:evenodd;stroke:none"
                       d="M 6.4071,6.4694 C 6.367,6.3087 6.3216,6.137 6.271,5.9539 6.2204,5.7705 6.1529,5.6006 6.0685,5.4435 5.9845,5.2865 5.8784,5.1506 5.7502,5.0362 5.6223,4.9218 5.4622,4.8648 5.2699,4.8648 5.0141,4.8648 4.8092,4.9356 4.6559,5.0779 4.5025,5.2202 4.4142,5.365 4.3906,5.5125 4.2759,5.3813 4.105,5.2405 3.8775,5.0902 3.6502,4.9399 3.41,4.8648 3.1573,4.8648 2.8911,4.8648 2.6678,4.9316 2.4875,5.0657 2.3071,5.1997 2.1667,5.3684 2.0655,5.5714 1.9443,5.8131 1.8802,6.0732 1.8735,6.3517 v 0.0736 c 0,0.2582 0.0355,0.5165 0.1061,0.7753 0.081,0.2843 0.1938,0.5656 0.3386,0.8438 C 2.4633,8.3222 2.6553,8.5808 2.8945,8.82 3.0902,9.016 3.3134,9.181 3.5643,9.3153 3.8152,9.4494 4.0704,9.5165 4.3298,9.5168 4.5556,9.5165 4.7393,9.4567 4.8807,9.3374 5.0224,9.2178 5.1116,9.119 5.1487,9.0408 L 5.1285,8.9574 c 0.0236,0.1208 0.08,0.2122 0.1693,0.2745 0.0895,0.062 0.1797,0.0932 0.2705,0.0935 C 5.6726,9.3251 5.7603,9.2942 5.8311,9.2322 5.875,9.1828 5.8986,9.1175 5.9017,9.0359 5.9017,9.0062 5.8983,8.9734 5.8916,8.9378 L 5.1638,6.1014 C 5.13,5.9671 5.1064,5.841 5.0929,5.7235 5.0865,5.6643 5.0831,5.6104 5.0831,5.5616 5.0831,5.5187 5.0865,5.473 5.0929,5.4242 5.1033,5.3454 5.127,5.2865 5.1638,5.2472 5.2009,5.208 5.253,5.1883 5.3205,5.1887 c 0.0708,-4e-4 0.1374,0.0291 0.1997,0.088 0.0625,0.0589 0.1199,0.1463 0.172,0.2625 0.0521,0.1159 0.1018,0.2552 0.1491,0.4171 0.0472,0.162 0.096,0.3377 0.1463,0.5279 0.0202,0.0846 0.0776,0.1272 0.172,0.1275 H 6.2759 C 6.3636,6.6114 6.4071,6.5756 6.4071,6.5038 Z M 4.9616,8.2753 C 4.9482,8.3339 4.9365,8.3952 4.9264,8.459 4.9163,8.5228 4.9009,8.5857 4.8807,8.6482 4.827,8.8016 4.7503,8.9301 4.651,9.0332 4.5516,9.1362 4.4258,9.1877 4.2743,9.188 4.1329,9.1877 3.9931,9.1368 3.8548,9.0356 3.7167,8.9341 3.5904,8.8034 3.4757,8.6433 3.314,8.4173 3.1929,8.1824 3.1119,7.9388 3.031,7.695 2.9567,7.4408 2.8893,7.1761 2.8221,6.9142 2.7666,6.6605 2.7224,6.4155 2.6957,6.2909 2.6822,6.1732 2.6822,6.0621 2.6822,5.9441 2.6957,5.8297 2.7224,5.7186 2.7531,5.5647 2.8077,5.4377 2.8868,5.338 2.9659,5.238 3.0764,5.1883 3.2177,5.1887 c 0.1552,-4e-4 0.311,0.0536 0.4678,0.1616 0.1567,0.1079 0.3024,0.2404 0.437,0.3978 0.054,0.065 0.1055,0.1279 0.1543,0.1886 0.0491,0.0604 0.092,0.1251 0.1288,0.1941 z" /><path
                       id="path92"
                       style="fill:#ffff00;fill-opacity:1;fill-rule:evenodd;stroke:none"
                       d="m 9.1544,3.5522 c -0.3887,0.011 -0.7671,0.0165 -1.1349,0.0165 -0.3676,0 -0.746,-0.0055 -1.135,-0.0165 v 0.2363 h 0.2189 c 0.0697,-2e-4 0.1353,7e-4 0.1964,0.0026 0.0614,0.0017 0.1195,0.0064 0.1745,0.0137 0.055,0.0073 0.1026,0.0146 0.1426,0.0222 0.0338,0.0053 0.0619,0.0221 0.084,0.0507 0.0223,0.0283 0.0333,0.0599 0.0333,0.0949 V 7.0697 C 7.6286,7.0237 7.4986,6.9888 7.3443,6.9651 7.19,6.9412 7.0209,6.9294 6.837,6.9295 v 0.2336 c 0.2537,-10e-5 0.4879,0.0268 0.7023,0.0809 0.2145,0.0539 0.4,0.1553 0.5564,0.3038 H 8.194 C 8.2636,7.5477 8.2984,7.5174 8.2984,7.4572 V 3.9726 C 8.2984,3.9359 8.309,3.9038 8.3301,3.8763 8.3513,3.8488 8.3821,3.8323 8.4221,3.827 8.456,3.8194 8.4994,3.8121 8.5521,3.8048 8.605,3.7975 8.6647,3.7928 8.7312,3.7911 8.7978,3.7892 8.8628,3.7883 8.9261,3.7885 h 0.2283 z" /></g></g></g><path
                 id="path94"
                 style="fill:#ff8000;fill-opacity:1;fill-rule:nonzero;stroke:none"
                 d="m 2097.37,629.75 h -601.06 v 15 h 601.06 c 4.14,0 7.5,-3.36 7.5,-7.5 0,-4.14 -3.36,-7.5 -7.5,-7.5 z m -720.94,7.5 150,-45 -30,37.5 v 15 l 30,37.5 z" /><g
                 transform="matrix(3.1032,0,-1.507e-6,4.4098,1257.22,386.77)"
                 id="g96"><g
                   transform="scale(6.4449,4.5353)"
                   id="g98"><g
                     clip-path="url(#clipPath104)"
                     id="g100"><path
                       id="path106"
                       style="fill:#ff8000;fill-opacity:1;fill-rule:evenodd;stroke:none"
                       d="M 6.0268,9.4138 C 6.1179,9.3251 6.1753,9.2009 6.1986,9.0408 6.2053,8.962 6.2087,8.8869 6.2087,8.8151 6.2087,8.7231 6.2019,8.6317 6.1885,8.5403 6.1682,8.3569 6.1372,8.171 6.0949,7.983 6.0529,7.7947 6.0118,7.6272 5.9713,7.4803 5.9038,7.2018 5.8137,6.9108 5.7008,6.6065 5.5879,6.3023 5.449,6.0226 5.284,5.7674 5.119,5.5122 4.9261,5.2978 4.7052,5.1246 4.4844,4.9513 4.2292,4.8648 3.9394,4.8648 3.7103,4.8648 3.4938,4.9056 3.2898,4.9875 3.0862,5.069 2.927,5.2015 2.8123,5.3849 2.6878,5.5711 2.627,5.7837 2.6301,6.0229 c 0,0.0129 0.0034,0.0257 0.0101,0.0392 0,0.2319 0.027,0.4659 0.081,0.7018 0.054,0.2254 0.1325,0.4738 0.2352,0.7456 C 3.0592,7.7809 3.1576,8.0444 3.2518,8.2998 3.353,8.571 3.4036,8.7936 3.4036,8.9672 3.4036,9.1141 3.3413,9.1877 3.2165,9.188 3.1021,9.1877 2.9985,9.1549 2.9058,9.0896 2.8132,9.024 2.7289,8.9332 2.6531,8.8172 2.5773,8.701 2.509,8.5636 2.4482,8.405 2.3875,8.2462 2.3372,8.0772 2.2967,7.8974 2.2596,7.8088 2.1973,7.7631 2.1096,7.76 H 1.9934 C 1.9124,7.7597 1.8719,7.8005 1.8719,7.8827 V 7.9171 C 1.9192,8.0968 1.9817,8.2805 2.059,8.4688 2.1366,8.6568 2.2345,8.8277 2.3522,8.9816 2.4703,9.1353 2.6053,9.2629 2.7568,9.3644 2.9083,9.4656 3.0819,9.5165 3.2772,9.5168 3.4459,9.5165 3.5898,9.4803 3.7094,9.4086 3.829,9.3365 3.9201,9.2408 3.9823,9.1215 4.0449,9.0019 4.0793,8.8672 4.086,8.7169 V 8.6826 C 4.086,8.5415 4.0575,8.3961 3.9998,8.2459 3.9023,7.9904 3.8057,7.7294 3.7094,7.4628 3.6134,7.196 3.5382,6.9565 3.4843,6.7442 3.4306,6.5216 3.3935,6.3087 3.3732,6.1063 3.3665,6.0603 3.3631,6.0161 3.3631,5.9738 3.3631,5.8263 3.3886,5.6874 3.4389,5.5567 3.4827,5.442 3.5545,5.3518 3.6539,5.2865 3.7532,5.2209 3.8704,5.1883 4.005,5.1887 4.2038,5.1883 4.3832,5.2528 4.5433,5.3822 4.7034,5.5113 4.846,5.6855 4.9705,5.9048 5.0951,6.1238 5.2055,6.3734 5.3015,6.6532 5.3978,6.9329 5.4827,7.215 5.5566,7.5 5.5904,7.6435 5.6073,7.7809 5.6073,7.9122 5.6073,8.01 5.6005,8.1032 5.587,8.1919 5.5435,8.4041 5.4456,8.5841 5.2938,8.7317 5.2233,8.8001 5.1862,8.8786 5.1828,8.9672 c 0,0.0325 0.0052,0.0635 0.015,0.0933 C 5.2285,9.1745 5.2883,9.2736 5.3775,9.357 5.4668,9.4405 5.572,9.4935 5.6931,9.5168 5.7134,9.523 5.737,9.5263 5.764,9.5266 5.8618,9.5263 5.9495,9.4886 6.0268,9.4138 Z" /><path
                       id="path108"
                       style="fill:#ff8000;fill-opacity:1;fill-rule:evenodd;stroke:none"
                       d="M 9.1924,3.5522 H 6.612 v 0.1511 c 0,0.0109 0.0063,0.0273 0.019,0.0495 L 7.6677,4.7586 C 7.7902,4.8793 7.9143,5.003 8.0401,5.1294 8.1659,5.2558 8.2786,5.385 8.3779,5.5169 8.4772,5.6488 8.5564,5.7848 8.6157,5.925 8.6749,6.0651 8.7043,6.2121 8.7043,6.3662 8.7043,6.496 8.6853,6.6175 8.6472,6.7301 8.6091,6.8428 8.5543,6.9417 8.4823,7.0269 8.4106,7.1121 8.3208,7.1808 8.213,7.233 8.1053,7.2852 7.9805,7.3113 7.8389,7.3115 7.6277,7.3113 7.4411,7.255 7.2793,7.1423 7.1177,7.0297 7.0104,6.9055 6.9575,6.7702 6.9471,6.7664 6.964,6.7645 7.0083,6.7647 H 7.0621 C 7.1256,6.7516 7.1804,6.7319 7.227,6.7054 7.2735,6.6788 7.3126,6.6422 7.3443,6.5955 7.3761,6.5488 7.3918,6.4924 7.3918,6.4266 7.3918,6.3166 7.3518,6.2322 7.2714,6.1737 7.191,6.1149 7.1012,6.0857 7.0019,6.0859 6.9069,6.0857 6.818,6.1149 6.7357,6.1737 6.6534,6.2322 6.612,6.3166 6.612,6.4266 6.612,6.5804 6.6459,6.726 6.7136,6.8634 6.7813,7.0008 6.873,7.1198 6.9892,7.2207 7.1054,7.3213 7.2428,7.401 7.4013,7.4597 7.5598,7.5183 7.7279,7.5477 7.9055,7.5478 8.1253,7.5477 8.3267,7.5188 8.5095,7.4611 8.6922,7.4034 8.848,7.3204 8.9769,7.2124 9.1058,7.1042 9.2068,6.9792 9.2797,6.8373 9.3526,6.6953 9.389,6.5383 9.389,6.3662 9.389,6.1755 9.3405,6 9.2431,5.8398 9.146,5.6793 9.0256,5.5323 8.8819,5.3987 8.7382,5.2649 8.5855,5.139 8.4237,5.0208 8.2621,4.9027 8.1157,4.7878 7.9847,4.6761 L 7.2555,4.0633 h 0.9543 c 0.1331,-10e-5 0.2574,7e-4 0.3724,0.0026 0.1152,0.0017 0.2129,0.0055 0.2933,0.011 0.0804,0.0055 0.1216,0.0091 0.1235,0.0112 0.017,0.0127 0.0329,0.0383 0.0477,0.0767 0.0149,0.0385 0.0285,0.0838 0.0412,0.1361 0.0127,0.0522 0.0254,0.1052 0.0381,0.1593 0.0127,0.054 0.0242,0.1132 0.0348,0.1775 h 0.2345 z" /></g></g></g><path
                 id="path110"
                 style="fill:#ffff00;fill-opacity:1;fill-rule:nonzero;stroke:none"
                 d="m 2107.21,332.98 h -806.65 v 15 h 806.65 c 4.15,0 7.5,-3.36 7.5,-7.5 0,-4.14 -3.35,-7.5 -7.5,-7.5 z m -926.53,7.5 150,-45 -30,37.5 v 15 l 30,37.5 z" /><g
                 transform="matrix(3.1579,0,-1.507e-6,4.4098,1165.09,90.008)"
                 id="g112"><g
                   transform="scale(6.3333,4.5353)"
                   id="g114"><g
                     clip-path="url(#clipPath120)"
                     id="g116"><path
                       id="path122"
                       style="fill:#ffff00;fill-opacity:1;fill-rule:evenodd;stroke:none"
                       d="M 6.4071,6.4694 C 6.367,6.3087 6.3216,6.137 6.271,5.9539 6.2204,5.7705 6.1529,5.6006 6.0685,5.4435 5.9845,5.2865 5.8784,5.1506 5.7502,5.0362 5.6223,4.9218 5.4622,4.8648 5.2699,4.8648 5.0141,4.8648 4.8092,4.9356 4.6559,5.0779 4.5025,5.2202 4.4142,5.365 4.3906,5.5125 4.2759,5.3813 4.105,5.2405 3.8775,5.0902 3.6502,4.9399 3.41,4.8648 3.1573,4.8648 2.8911,4.8648 2.6678,4.9316 2.4875,5.0657 2.3071,5.1997 2.1667,5.3684 2.0655,5.5714 1.9443,5.8131 1.8802,6.0732 1.8735,6.3517 v 0.0736 c 0,0.2582 0.0355,0.5165 0.1061,0.7753 0.081,0.2843 0.1938,0.5656 0.3386,0.8438 C 2.4633,8.3222 2.6553,8.5808 2.8945,8.82 3.0902,9.016 3.3134,9.181 3.5643,9.3153 3.8152,9.4494 4.0704,9.5165 4.3298,9.5168 4.5556,9.5165 4.7393,9.4567 4.8807,9.3374 5.0224,9.2178 5.1116,9.119 5.1487,9.0408 L 5.1285,8.9574 c 0.0236,0.1208 0.08,0.2122 0.1693,0.2745 0.0895,0.062 0.1797,0.0932 0.2705,0.0935 C 5.6726,9.3251 5.7603,9.2942 5.8311,9.2322 5.875,9.1828 5.8986,9.1175 5.9017,9.0359 5.9017,9.0062 5.8983,8.9734 5.8916,8.9378 L 5.1638,6.1014 C 5.13,5.9671 5.1064,5.841 5.0929,5.7235 5.0865,5.6643 5.0831,5.6104 5.0831,5.5616 5.0831,5.5187 5.0865,5.473 5.0929,5.4242 5.1033,5.3454 5.127,5.2865 5.1638,5.2472 5.2009,5.208 5.253,5.1883 5.3205,5.1887 c 0.0708,-4e-4 0.1374,0.0291 0.1997,0.088 0.0625,0.0589 0.1199,0.1463 0.172,0.2625 0.0521,0.1159 0.1018,0.2552 0.1491,0.4171 0.0472,0.162 0.096,0.3377 0.1463,0.5279 0.0202,0.0846 0.0776,0.1272 0.172,0.1275 H 6.2759 C 6.3636,6.6114 6.4071,6.5756 6.4071,6.5038 Z M 4.9616,8.2753 C 4.9482,8.3339 4.9365,8.3952 4.9264,8.459 4.9163,8.5228 4.9009,8.5857 4.8807,8.6482 4.827,8.8016 4.7503,8.9301 4.651,9.0332 4.5516,9.1362 4.4258,9.1877 4.2743,9.188 4.1329,9.1877 3.9931,9.1368 3.8548,9.0356 3.7167,8.9341 3.5904,8.8034 3.4757,8.6433 3.314,8.4173 3.1929,8.1824 3.1119,7.9388 3.031,7.695 2.9567,7.4408 2.8893,7.1761 2.8221,6.9142 2.7666,6.6605 2.7224,6.4155 2.6957,6.2909 2.6822,6.1732 2.6822,6.0621 2.6822,5.9441 2.6957,5.8297 2.7224,5.7186 2.7531,5.5647 2.8077,5.4377 2.8868,5.338 2.9659,5.238 3.0764,5.1883 3.2177,5.1887 c 0.1552,-4e-4 0.311,0.0536 0.4678,0.1616 0.1567,0.1079 0.3024,0.2404 0.437,0.3978 0.054,0.065 0.1055,0.1279 0.1543,0.1886 0.0491,0.0604 0.092,0.1251 0.1288,0.1941 z" /><path
                       id="path124"
                       style="fill:#ffff00;fill-opacity:1;fill-rule:evenodd;stroke:none"
                       d="M 9.3893,3.5522 H 6.8089 v 0.1511 c 0,0.0109 0.0064,0.0273 0.019,0.0495 L 7.8646,4.7586 C 7.9871,4.8793 8.1112,5.003 8.237,5.1294 8.3628,5.2558 8.4755,5.385 8.5748,5.5169 8.6741,5.6488 8.7533,5.7848 8.8126,5.925 8.8718,6.0651 8.9012,6.2121 8.9012,6.3662 8.9012,6.496 8.8822,6.6175 8.8441,6.7301 8.806,6.8428 8.7512,6.9417 8.6793,7.0269 8.6075,7.1121 8.5177,7.1808 8.4099,7.233 8.3022,7.2852 8.1774,7.3113 8.0358,7.3115 7.8246,7.3113 7.638,7.255 7.4762,7.1423 7.3146,7.0297 7.2073,6.9055 7.1544,6.7702 7.144,6.7664 7.1609,6.7645 7.2052,6.7647 H 7.259 C 7.3225,6.7516 7.3773,6.7319 7.4239,6.7054 7.4704,6.6788 7.5095,6.6422 7.5412,6.5955 7.573,6.5488 7.5887,6.4924 7.5887,6.4266 7.5887,6.3166 7.5487,6.2322 7.4683,6.1737 7.3879,6.1149 7.2981,6.0857 7.1988,6.0859 7.1038,6.0857 7.0149,6.1149 6.9326,6.1737 6.8503,6.2322 6.8089,6.3166 6.8089,6.4266 c 0,0.1538 0.0339,0.2994 0.1016,0.4368 0.0677,0.1374 0.1594,0.2564 0.2756,0.3573 0.1162,0.1006 0.2536,0.1803 0.4121,0.239 0.1585,0.0586 0.3266,0.088 0.5042,0.0881 C 8.3222,7.5477 8.5236,7.5188 8.7064,7.4611 8.8891,7.4034 9.0449,7.3204 9.1738,7.2124 9.3027,7.1042 9.4037,6.9792 9.4766,6.8373 9.5495,6.6953 9.5859,6.5383 9.5859,6.3662 9.5859,6.1755 9.5374,6 9.44,5.8398 9.3429,5.6793 9.2225,5.5323 9.0788,5.3987 8.9351,5.2649 8.7824,5.139 8.6206,5.0208 8.459,4.9027 8.3126,4.7878 8.1816,4.6761 L 7.4524,4.0633 h 0.9543 c 0.1331,-10e-5 0.2574,7e-4 0.3724,0.0026 0.1152,0.0017 0.2129,0.0055 0.2933,0.011 0.0805,0.0055 0.1216,0.0091 0.1235,0.0112 0.017,0.0127 0.0329,0.0383 0.0477,0.0767 0.0149,0.0385 0.0285,0.0838 0.0412,0.1361 0.0127,0.0522 0.0254,0.1052 0.0381,0.1593 0.0127,0.054 0.0242,0.1132 0.0348,0.1775 h 0.2345 z" /></g></g></g></g></g></g></g></g></g></svg>