<?xml version="1.0" encoding="utf-8"?>
<!-- Generator: Adobe Illustrator 19.0.0, SVG Export Plug-In . SVG Version: 6.00 Build 0)  -->
<svg version="1.1" id="Layer_1" xmlns="http://www.w3.org/2000/svg" xmlns:xlink="http://www.w3.org/1999/xlink" x="0px" y="0px"
	 viewBox="0 0 335.0400085 229.9199982" style="enable-background:new 0 0 335.0400085 229.9199982;" xml:space="preserve">
<style type="text/css">
	.st0{clip-path:url(#SVGID_2_);}
	.st1{clip-path:url(#SVGID_4_);}
	
		.st2{clip-path:url(#SVGID_6_);fill:none;stroke:#000000;stroke-width:1.9978371;stroke-linecap:round;stroke-linejoin:round;stroke-miterlimit:10;}
	
		.st3{clip-path:url(#SVGID_6_);fill:none;stroke:#FF8000;stroke-width:1.9978371;stroke-linecap:round;stroke-linejoin:round;stroke-miterlimit:10;}
	
		.st4{clip-path:url(#SVGID_6_);fill:none;stroke:#8080FF;stroke-width:1.9978371;stroke-linecap:round;stroke-linejoin:round;stroke-miterlimit:10;}
	.st5{clip-path:url(#SVGID_6_);}
	.st6{clip-path:url(#SVGID_8_);fill-rule:evenodd;clip-rule:evenodd;fill:#0080FF;}
	.st7{clip-path:url(#SVGID_6_);fill-rule:evenodd;clip-rule:evenodd;fill:#FF8000;}
	.st8{clip-path:url(#SVGID_6_);fill:#FF8000;}
	.st9{clip-path:url(#SVGID_10_);fill-rule:evenodd;clip-rule:evenodd;fill:#FF8000;}
	.st10{clip-path:url(#SVGID_12_);fill-rule:evenodd;clip-rule:evenodd;fill:#FF8000;}
</style>
<g>
	<defs>
		<rect id="SVGID_1_" x="0.000005" width="335.0400085" height="229.9199982"/>
	</defs>
	<clipPath id="SVGID_2_">
		<use xlink:href="#SVGID_1_"  style="overflow:visible;"/>
	</clipPath>
	<g class="st0">
	</g>
</g>
<g>
	<defs>
		<rect id="SVGID_3_" y="-0.0000458" width="335.0400085" height="229.9199982"/>
	</defs>
	<clipPath id="SVGID_4_">
		<use xlink:href="#SVGID_3_"  style="overflow:visible;"/>
	</clipPath>
	<g class="st1">
		<defs>
			<rect id="SVGID_5_" y="-0.001297" width="334.6376953" height="229.7512665"/>
		</defs>
		<clipPath id="SVGID_6_">
			<use xlink:href="#SVGID_5_"  style="overflow:visible;"/>
		</clipPath>
		<line class="st2" x1="57.7934341" y1="40.5388184" x2="57.7934341" y2="176.8912048"/>
		<line class="st2" x1="57.7934341" y1="177.1402588" x2="322.5068359" y2="176.8912048"/>
		<line class="st3" x1="57.7934341" y1="83.4923096" x2="235.6009369" y2="176.8912048"/>
		<path class="st4" d="M201.8907623,176.6408081c0.0785828-5.3049316,1.4078064-10.5166168,3.881134-15.2115479"/>
		<g class="st5">
			<defs>
				<rect id="SVGID_7_" x="168.6414185" y="144.7489319" width="21.7022705" height="41.9756088"/>
			</defs>
			<clipPath id="SVGID_8_">
				<use xlink:href="#SVGID_7_"  style="overflow:visible;"/>
			</clipPath>
			<path class="st6" d="M176.603714,164.8894043c-0.2418823,0.985321-0.4533844,1.9789124-0.6331787,2.980484
				c-0.1430511,0.7237396-0.2149658,1.4474945-0.2149658,2.1699066c0,0.2711639,0.0090485,0.532486,0.0271606,0.7842102
				c0.0178528,0.3406982,0.058609,0.6592712,0.1209412,0.9549561c0.0628662,0.2967529,0.1462402,0.5516663,0.2490692,0.7647705
				c0.1028137,0.2141724,0.2402649,0.3790588,0.4110107,0.4967957c0.1707458,0.1174622,0.3774567,0.1763306,0.6190643,0.1755371
				c0.5114441,0.0007935,0.9895935-0.2384033,1.4339142-0.7181549c0.4445801-0.4786835,0.8635864-1.0545807,1.2588959-1.72612
				c0.5924225-0.9754639,1.0497894-1.9639893,1.3734283-2.966629c0.3236542-1.0015717,0.6012268-1.9738464,0.8340302-2.9157562
				H176.603714z M183.2008057,157.8972778c-0.035965-0.3409424-0.0809784-0.6579437-0.1347961-0.9536133
				c-0.0538025-0.2956848-0.1323853-0.5540771-0.235199-0.7724915c-0.1030884-0.2157745-0.2354889-0.386261-0.397171-0.5034485
				c-0.1616974-0.117218-0.3675995-0.1758118-0.6193237-0.1758118c-0.5202484,0-1.0007782,0.2424011-1.4403076,0.7245483
				c-0.4395294,0.4848022-0.8659973,1.0628357-1.2794037,1.7314453c-0.5921631,0.9589539-1.0498047,1.9445496-1.3731842,2.9554443
				c-0.3236389,1.0114288-0.6014709,1.9868927-0.835083,2.9272156h5.4796448
				c0.2426605-0.9834747,0.4672241-1.9861145,0.6731262-3.0063324c0.1438446-0.6880493,0.2157745-1.3686371,0.2157745-2.039917
				C183.2548828,158.4886475,183.2367706,158.1929626,183.2008057,157.8972778z M185.0185547,157.596283
				c0.2157745,0.8284302,0.3228607,1.6728516,0.3228607,2.5350952c0,0.2711792-0.0090637,0.5327606-0.0271759,0.7842102
				c-0.088974,1.1512909-0.2818298,2.3054962-0.5783081,3.4639587c-0.3225708,1.168335-0.7312012,2.3260193-1.2245331,3.4714355
				c-0.4935913,1.1462097-1.1496735,2.2458191-1.9666595,3.2998657c-0.277832,0.3577423-0.5857544,0.7114868-0.9221954,1.0596466
				c-0.3367004,0.3486786-0.6979065,0.66008-1.0833588,0.9344482c-0.3857117,0.2746277-0.787674,0.4991913-1.2050934,0.6725922
				c-0.4174042,0.1747437-0.8553314,0.261322-1.312973,0.261322c-0.4664154,0-0.8683777-0.088974-1.2050781-0.2679749
				c-0.336441-0.1782074-0.6257324-0.4083557-0.8683929-0.6920471c-0.2418671-0.2826233-0.441925-0.5988159-0.5988159-0.9474945
				c-0.1569061-0.3481598-0.2850342-0.7059021-0.3841248-1.0727081c-0.2237549-0.8097839-0.3364258-1.6464691-0.3364258-2.5097961
				c0-0.277832,0.0178375-0.5524597,0.0538025-0.8236389c0.0719147-1.1323547,0.2647858-2.277771,0.5785675-3.437851
				c0.2964783-1.1667328,0.6960449-2.3209381,1.1984253-3.46315c0.5031891-1.1422272,1.1715393-2.2450256,2.0066223-3.3078613
				c0.2786255-0.3569641,0.5841675-0.7112427,0.915802-1.0655212c0.3316498-0.3516235,0.6861877-0.6659393,1.062851-0.9403076
				c0.3774567-0.2743683,0.774353-0.4981232,1.1920319-0.6739197c0.4174194-0.1731567,0.8593445-0.2610626,1.3260345-0.2610626
				c0.4672241,0,0.8667908,0.0905762,1.1984253,0.269043c0.3316498,0.1784821,0.6257172,0.407547,0.8814392,0.6845856
				c0.2565308,0.2796936,0.4584351,0.59935,0.6062775,0.9562988
				C184.7972107,156.8823853,184.9205322,157.2393341,185.0185547,157.596283z"/>
		</g>
		<circle class="st7" cx="235.6009521" cy="176.8912048" r="4.7948074"/>
		<circle class="st7" cx="57.7934341" cy="83.4923096" r="4.7948074"/>
		<path class="st8" d="M35.0060997,16.8977356l-5.9935093,19.9783783l4.9945927-3.9956818h1.9978371l4.9945908,3.9956818
			L35.0060997,16.8977356z M34.0071831,86.8220367V32.8644562h1.9978371v53.9575806
			c0,0.5514069-0.4475136,0.9989166-0.9989204,0.9989166C34.4533653,87.8209534,34.0071831,87.3734436,34.0071831,86.8220367z"/>
		<g class="st5">
			<defs>
				<rect id="SVGID_9_" x="4.1396518" y="-5.2444382" width="28.5184479" height="42.2870483"/>
			</defs>
			<clipPath id="SVGID_10_">
				<use xlink:href="#SVGID_9_"  style="overflow:visible;"/>
			</clipPath>
			<path class="st9" d="M20.1937351,11.9665833c0.2426701,0.2362823,0.3955708,0.5671082,0.4576359,0.993576
				c0.017849,0.2099152,0.0269051,0.4099579,0.0269051,0.6012115c0,0.2450714-0.0181141,0.4885406-0.0538082,0.7319946
				c-0.0540752,0.4885406-0.136652,0.9837341-0.2493305,1.4845123c-0.1118793,0.5015869-0.2213612,0.9477692-0.3292427,1.3390656
				c-0.1798058,0.7418671-0.4198132,1.5170135-0.7205544,2.3275909c-0.3007393,0.810318-0.6707401,1.5553589-1.1102638,2.2351532
				s-0.9533672,1.2509003-1.5417957,1.712265c-0.5881653,0.4616241-1.2679615,0.6920319-2.0399265,0.6920319
				c-0.6102715,0-1.1869812-0.1086731-1.7303925-0.3268433c-0.542345-0.2170868-0.9664192-0.5700378-1.2719555-1.0585785
				c-0.3316412-0.4959869-0.4935989-1.0623016-0.4853411-1.6994629c0-0.0343628,0.009057-0.0684662,0.0269041-0.1044159
				c0-0.6177368,0.0719223-1.2410431,0.2157669-1.8694305c0.1438437-0.6004028,0.352951-1.262085,0.6265202-1.986084
				c0.273838-0.7229462,0.5359535-1.4248505,0.7868824-2.1051636c0.2695751-0.7224121,0.4043617-1.3153687,0.4043617-1.7778015
				c0-0.3912964-0.1659527-0.5873413-0.498394-0.58815c-0.3047371,0.0008087-0.5807037,0.0881805-0.8276367,0.2621155
				c-0.246666,0.1747437-0.4712229,0.4166107-0.6731377,0.7256012c-0.2019138,0.3095398-0.3838501,0.6755371-0.5458088,1.0980072
				c-0.1616917,0.4230042-0.29568,0.8731689-0.4035625,1.3521118c-0.0988274,0.2360077-0.26478,0.3577423-0.498394,0.3659973
				H9.4496346c-0.215766,0.0008087-0.3236485-0.1078796-0.3236485-0.3268433v-0.091629
				c0.1259956-0.4786682,0.2924824-0.9680023,0.4983931-1.4695892c0.2067099-0.5007782,0.467494-0.9560242,0.7810211-1.3659668
				c0.3145924-0.4094238,0.6742029-0.7493134,1.0777655-1.0196838c0.4035635-0.269577,0.8659954-0.4051666,1.3862324-0.4059601
				c0.4493809,0.0007935,0.8326988,0.097229,1.1512871,0.2882233c0.3185883,0.1920471,0.5612583,0.4469757,0.7269459,0.7647552
				c0.1667538,0.3185883,0.2583866,0.6773987,0.2762337,1.0777588v0.0913696c0,0.3758545-0.0759182,0.7631531-0.2296181,1.1632538
				c-0.2597179,0.6805878-0.5170383,1.375824-0.7735615,2.0859833c-0.255724,0.7106934-0.4560394,1.3486633-0.599617,1.9141693
				c-0.1430454,0.5929565-0.2418709,1.1600647-0.2959461,1.6992035c-0.017849,0.1225433-0.0269051,0.2402802-0.0269051,0.352951
				c0,0.3929138,0.0679264,0.7629089,0.2019157,1.1110535c0.1166725,0.305542,0.3079319,0.5458069,0.5727119,0.7197418
				c0.2645149,0.1747437,0.5767097,0.2615814,0.9352551,0.2605286c0.5295601,0.0010529,1.0074425-0.1707458,1.4339142-0.5154419
				c0.4264717-0.3438873,0.8063259-0.8079224,1.1379662-1.3920746c0.3319073-0.5833588,0.6259899-1.24823,0.881712-1.9935455
				c0.2565231-0.7450562,0.4826775-1.4965057,0.6795311-2.2556763c0.0900364-0.3822479,0.1350536-0.7482452,0.1350536-1.0979919
				c0-0.2605133-0.0181122-0.5087738-0.0540752-0.7450562c-0.1158733-0.5652466-0.3766575-1.0447235-0.7810211-1.4378967
				c-0.1877956-0.1821899-0.2866211-0.3912964-0.2956791-0.6273041c0-0.0865784,0.0138531-0.1691437,0.039957-0.2485352
				c0.0817776-0.3036652,0.2410717-0.5676422,0.4786816-0.7897949c0.2378769-0.2224274,0.5181065-0.3636017,0.8406906-0.4256744
				c0.0540733-0.01651,0.1169395-0.0252991,0.1888618-0.0260925C19.7542095,11.6669159,19.9878235,11.767334,20.1937351,11.9665833z
				"/>
			<path class="st9" d="M28.0004826,27.5804291c-1.0354137-0.0292969-2.0433884-0.0439453-3.0231285-0.0439453
				c-0.9792061,0-1.9871807,0.0146484-3.0233917,0.0439453v-0.6294403h0.5831013
				c0.1856651,0.0005341,0.3604088-0.0018616,0.5231667-0.0069275c0.1635571-0.0045319,0.3183231-0.0170441,0.4648304-0.0364838
				c0.1465073-0.019455,0.273037-0.0388947,0.3798542-0.0591431c0.0900364-0.0141144,0.1648903-0.0588684,0.2237587-0.1350555
				c0.0594025-0.0753784,0.0887032-0.1595612,0.0887032-0.2527924v-8.2498932
				c-0.2812939,0.1225281-0.6275864,0.2154999-1.0386086,0.2786255c-0.4110203,0.0636597-0.8614674,0.0950928-1.3513355,0.0948334
				v-0.6222534c0.6758003,0.0002594,1.2996578-0.0713959,1.8707733-0.2154999
				c0.5713806-0.1435852,1.0655136-0.413681,1.4821281-0.8092499h0.2618504
				c0.1853981,0.0002747,0.2780972,0.0809784,0.2780972,0.241333v9.2821045c0,0.0977631,0.0282364,0.1832733,0.0844421,0.2565308
				c0.0564728,0.0732422,0.1385174,0.1172028,0.2450676,0.1313171c0.0900364,0.0202484,0.2059116,0.0396881,0.3462925,0.0591431
				c0.1409149,0.0194397,0.2999439,0.0319519,0.4770832,0.0364838c0.1774082,0.0050659,0.3505554,0.0074615,0.5191727,0.0069275
				h0.6081429V27.5804291z"/>
		</g>
		<path class="st8" d="M140.8288727,197.6394043l19.978363,5.9934998l-3.9956665-4.9945831v-1.9978485l3.9956665-4.9945831
			L140.8288727,197.6394043z M236.8489227,198.6383209H156.795578v-1.9978485h80.0533447
			c0.5527191,0,0.9989166,0.447525,0.9989166,0.9989319C237.8478394,198.1907959,237.4016418,198.6383209,236.8489227,198.6383209z"
			/>
		<g class="st5">
			<defs>
				<rect id="SVGID_11_" x="124.950058" y="188.7123566" width="29.7594986" height="42.2870483"/>
			</defs>
			<clipPath id="SVGID_12_">
				<use xlink:href="#SVGID_11_"  style="overflow:visible;"/>
			</clipPath>
			<path class="st10" d="M141.0039978,205.9233704c0.2426605,0.2362823,0.3955688,0.5671234,0.4576263,0.9935913
				c0.0178528,0.2098999,0.0269012,0.4099426,0.0269012,0.6012115c0,0.2450562-0.0181122,0.4885254-0.0538025,0.7319946
				c-0.0540771,0.4885254-0.1366577,0.9837189-0.2493286,1.4845123c-0.1118774,0.5015717-0.2213593,0.9477539-0.3292389,1.3390656
				c-0.1797943,0.7418518-0.4197998,1.5169983-0.7205505,2.3275757c-0.3007355,0.810318-0.6707306,1.5553741-1.1102448,2.2351532
				c-0.4395142,0.6797943-0.9533691,1.2509003-1.5417786,1.712265c-0.5881653,0.4616241-1.2679596,0.6920471-2.039917,0.6920471
				c-0.61026,0-1.1869659-0.1086884-1.7303772-0.3268433c-0.5423431-0.2171021-0.9664001-0.5700531-1.2719421-1.0585785
				c-0.3316345-0.4959869-0.4935913-1.0623016-0.4853363-1.6994781c0-0.0343628,0.0090637-0.0684509,0.0269012-0.1044159
				c0-0.6177216,0.0719299-1.2410431,0.2157745-1.8694153c0.1438293-0.6004028,0.3529358-1.262085,0.6265106-1.9860992
				c0.2738342-0.7229462,0.5359497-1.4248352,0.7868652-2.1051636c0.269577-0.7223969,0.4043579-1.3153534,0.4043579-1.7777863
				c0-0.3912964-0.1659546-0.5873566-0.4983826-0.58815c-0.3047333,0.0007935-0.5807037,0.0881653-0.8276367,0.2621155
				c-0.2466583,0.1747284-0.4712067,0.4166107-0.6731262,0.7256012c-0.2019043,0.3095245-0.3838501,0.6755219-0.5458069,1.0979919
				c-0.1616821,0.4230042-0.2956696,0.8731842-0.4035492,1.3521271c-0.0988312,0.2360077-0.2647858,0.3577423-0.4983978,0.3659973
				h-0.3095245c-0.2157593,0.0008087-0.3236542-0.1078796-0.3236542-0.3268433v-0.091629
				c0.1260071-0.4786835,0.2924805-0.9680176,0.4983978-1.4695892c0.2067108-0.5007935,0.4674835-0.9560242,0.7810059-1.3659821
				c0.3145905-0.4094086,0.6741943-0.7493134,1.0777588-1.0196838c0.4035645-0.2695618,0.8659821-0.4051514,1.3862152-0.4059448
				c0.4493866,0.0007935,0.8327026,0.097229,1.1512756,0.288208c0.3185883,0.1920624,0.561264,0.4469757,0.726944,0.7647705
				c0.166748,0.3185883,0.2583923,0.6773834,0.2762299,1.0777588v0.0913544c0,0.3758545-0.0759125,0.7631683-0.2296143,1.163269
				c-0.2597046,0.6805878-0.5170288,1.375824-0.7735443,2.0859833c-0.255722,0.7106934-0.4560394,1.3486481-0.5996246,1.9141693
				c-0.1430359,0.5929565-0.2418671,1.1600647-0.295929,1.6992035c-0.0178528,0.1225281-0.0269165,0.2402649-0.0269165,0.352951
				c0,0.3928986,0.0679321,0.7628937,0.2019196,1.1110535c0.1166687,0.3055267,0.3079376,0.5457916,0.5727081,0.7197418
				c0.2645111,0.1747437,0.5767059,0.2615814,0.9352417,0.2605133c0.5295563,0.0010681,1.007431-0.1707458,1.4338989-0.5154419
				c0.4264679-0.3438873,0.8063202-0.8079071,1.13797-1.3920746c0.3318939-0.5833588,0.6259766-1.24823,0.8816986-1.9935455
				c0.2565155-0.7450562,0.482666-1.4964905,0.6795197-2.255661c0.0900421-0.3822479,0.1350555-0.7482605,0.1350555-1.0980072
				c0-0.2605133-0.0181122-0.5087738-0.0540771-0.7450409c-0.1158752-0.5652618-0.3766479-1.0447235-0.7810211-1.4378967
				c-0.1877899-0.1822052-0.2866058-0.3913116-0.2956696-0.6273193c0-0.0865631,0.013855-0.1691437,0.0399628-0.2485199
				c0.0817719-0.3036804,0.2410583-0.5676422,0.4786682-0.7898102c0.2378693-0.2224274,0.5180969-0.3636017,0.840683-0.4256592
				c0.0540771-0.0165253,0.1169434-0.0253143,0.188858-0.0261078
				C140.5644684,205.623703,140.7980804,205.7241364,141.0039978,205.9233704z"/>
			<path class="st10" d="M149.4363861,221.5372314h-6.8735504v-0.4024963c0-0.0290375,0.0167694-0.0727234,0.0505981-0.1318665
				l2.7615204-2.6791992c0.3263092-0.3215179,0.6568909-0.6510162,0.9919891-0.9877167s0.6352997-0.6808472,0.8998108-1.032196
				s0.4754944-0.713623,0.6334534-1.0870819c0.1576843-0.3731995,0.2360077-0.7647705,0.2360077-1.1752472
				c0-0.3457489-0.0506134-0.6694031-0.1521149-0.9693451c-0.1014862-0.3002014-0.2474518-0.5636444-0.4392395-0.7905884
				c-0.1909943-0.2269592-0.4302063-0.4099579-0.7173615-0.5490112c-0.2868805-0.1390381-0.6193237-0.2085724-0.9965057-0.2091064
				c-0.5625916,0.0005341-1.0596466,0.1505127-1.4906311,0.4507141c-0.4304657,0.299942-0.7162933,0.6307678-0.8572083,0.9911804
				c-0.0276947,0.0101318,0.0173187,0.0151825,0.1353149,0.0146484h0.1433105
				c0.1691589,0.0348969,0.3151245,0.0873718,0.4392548,0.157959c0.1238708,0.0708618,0.2280273,0.1683502,0.3124695,0.2927551
				c0.0847015,0.1243896,0.1265259,0.2746277,0.1265259,0.4499054c0,0.2930145-0.1065521,0.5178375-0.3207245,0.6736603
				c-0.2141571,0.1566315-0.4533691,0.2344055-0.7178802,0.2338715c-0.2530518,0.0005341-0.4898682-0.07724-0.7090912-0.2338715
				c-0.219223-0.1558228-0.3294983-0.3806458-0.3294983-0.6736603c0-0.4096832,0.0903015-0.7975311,0.2706299-1.1635284
				s0.4246063-0.6829834,0.7341309-0.9517517c0.3095245-0.2679749,0.6755371-0.4802856,1.0977325-0.6366425
				c0.4222107-0.1560974,0.8699799-0.2344055,1.3430634-0.2346802c0.585495,0.0002747,1.1219788,0.0772552,1.6089172,0.2309418
				c0.4866638,0.1537018,0.9016724,0.3748016,1.2450409,0.6624756c0.3433533,0.2882233,0.6123962,0.6212006,0.8065796,0.999176
				c0.1941986,0.3782654,0.291153,0.796463,0.291153,1.2548981c0,0.5079803-0.1291962,0.9754639-0.3886414,1.4021912
				c-0.2586517,0.427536-0.579361,0.8191071-0.9621582,1.1749878c-0.3827667,0.3564148-0.7895203,0.6917725-1.22052,1.0066376
				c-0.4304657,0.3145752-0.8204346,0.6206512-1.1693878,0.9181824l-1.9424133,1.6323547h2.5420227
				c0.354538,0.0002594,0.6856537-0.0018616,0.9919891-0.0069275c0.3068542-0.0045319,0.5671082-0.0146484,0.7812653-0.0292969
				c0.2141724-0.0146484,0.3239136-0.0242462,0.3289795-0.0298309c0.0452881-0.0338287,0.0876465-0.1020355,0.1270599-0.2043152
				c0.0396881-0.1025543,0.0759277-0.2232208,0.1097565-0.3625336c0.0338287-0.1390533,0.0676575-0.2802277,0.1014862-0.4243469
				c0.0338287-0.1438293,0.0644531-0.3015289,0.0926971-0.4728088h0.624649L149.4363861,221.5372314z"/>
		</g>
	</g>
</g>
</svg>
