<?xml version="1.0" encoding="UTF-8" standalone="no"?>
<svg
   xmlns:dc="http://purl.org/dc/elements/1.1/"
   xmlns:cc="http://creativecommons.org/ns#"
   xmlns:rdf="http://www.w3.org/1999/02/22-rdf-syntax-ns#"
   xmlns:svg="http://www.w3.org/2000/svg"
   xmlns="http://www.w3.org/2000/svg"
   viewBox="0 0 554.64001 477.35999"
   height="477.35999"
   width="554.64001"
   xml:space="preserve"
   id="svg2"
   version="1.1"><metadata
     id="metadata8"><rdf:RDF><cc:Work
         rdf:about=""><dc:format>image/svg+xml</dc:format><dc:type
           rdf:resource="http://purl.org/dc/dcmitype/StillImage" /></cc:Work></rdf:RDF></metadata><defs
     id="defs6"><clipPath
       id="clipPath18"
       clipPathUnits="userSpaceOnUse"><path
         style="clip-rule:evenodd"
         id="path16"
         d="M 6.199e-6,0 H 415.98001 V 358.02 H 6.199e-6 Z" /></clipPath><clipPath
       id="clipPath26"
       clipPathUnits="userSpaceOnUse"><path
         style="clip-rule:evenodd"
         id="path24"
         d="M 6.199e-6,9.1553e-5 H 415.54001 V 357.42009 H 6.199e-6 Z" /></clipPath><clipPath
       id="clipPath36"
       clipPathUnits="userSpaceOnUse"><path
         id="path34"
         d="M 0,0 H 3471.03 V 2985.57 H 0 Z" /></clipPath><clipPath
       id="clipPath46"
       clipPathUnits="userSpaceOnUse"><path
         id="path44"
         d="M 0,0 H 8.0362 V 15.758 H 0 Z" /></clipPath><clipPath
       id="clipPath68"
       clipPathUnits="userSpaceOnUse"><path
         id="path66"
         d="M 0,0 H 10.371 V 15.758 H 0 Z" /></clipPath><clipPath
       id="clipPath80"
       clipPathUnits="userSpaceOnUse"><path
         id="path78"
         d="M 0,0 H 10.371 V 15.758 H 0 Z" /></clipPath><clipPath
       id="clipPath100"
       clipPathUnits="userSpaceOnUse"><path
         id="path98"
         d="M 0,0 H 8.1472 V 15.758 H 0 Z" /></clipPath><clipPath
       id="clipPath124"
       clipPathUnits="userSpaceOnUse"><path
         id="path122"
         d="M 0,0 H 8.1472 V 15.758 H 0 Z" /></clipPath><clipPath
       id="clipPath142"
       clipPathUnits="userSpaceOnUse"><path
         id="path140"
         d="M 0,0 H 18.243 V 28.268 H 0 Z" /></clipPath></defs><g
     transform="matrix(1.3333333,0,0,-1.3333333,0,477.36)"
     id="g10"><g
       id="g12"><g
         clip-path="url(#clipPath18)"
         id="g14" /></g><g
       id="g20"><g
         clip-path="url(#clipPath26)"
         id="g22"><g
           transform="matrix(5.7713,0,0,4.9667,0,-0.17838)"
           id="g28"><g
             transform="scale(0.020743,0.024116)"
             id="g30"><g
               clip-path="url(#clipPath36)"
               id="g32"><g
                 transform="matrix(2.2323,-3.014e-6,0,4.3772,1350.61,2337.01)"
                 id="g38"><g
                   transform="scale(8.9595,4.5691)"
                   id="g40"><g
                     clip-path="url(#clipPath46)"
                     id="g42"><path
                       id="path48"
                       style="fill:#ff8000;fill-opacity:1;fill-rule:evenodd;stroke:none"
                       d="M 6.1401,9.1982 C 5.9448,8.851 5.7132,8.5295 5.4452,8.2336 5.1774,7.9373 4.8968,7.6521 4.6036,7.3773 4.3104,7.1025 4.0175,6.8292 3.7243,6.5578 3.4311,6.286 3.1918,6.0425 3.0063,5.8269 2.9965,5.8232 3.0336,5.8217 3.1176,5.822 3.2489,5.8217 3.366,5.8045 3.4688,5.7701 3.5718,5.7358 3.6694,5.6965 3.762,5.6524 3.8546,5.6082 3.9482,5.5705 4.0426,5.5395 4.1371,5.5082 4.2312,5.4929 4.3254,5.4932 4.4435,5.4929 4.5622,5.515 4.6818,5.5591 4.8014,5.6033 4.9084,5.6653 5.0029,5.7456 5.0974,5.8257 5.1814,5.9189 5.2556,6.0253 5.3298,6.1314 5.3835,6.2422 5.4173,6.3569 5.4375,6.4483 5.4948,6.494 5.589,6.4943 H 5.7056 C 5.7933,6.494 5.8368,6.4581 5.8368,6.3863 5.8368,6.3664 5.8319,6.3483 5.8218,6.3323 5.7746,6.1357 5.6997,5.9434 5.597,5.7554 5.4942,5.5671 5.3703,5.3997 5.2253,5.2524 5.0805,5.1052 4.9179,4.9841 4.7376,4.8896 4.5573,4.7945 4.3662,4.7473 4.1638,4.7473 3.9988,4.7473 3.8693,4.789 3.7749,4.8724 3.6804,4.9555 3.5988,5.0463 3.5295,5.1445 3.4605,5.2426 3.3915,5.3267 3.3222,5.3972 3.2532,5.4674 3.163,5.5027 3.052,5.503 2.9072,5.5027 2.7689,5.4389 2.6373,5.3113 2.506,5.1837 2.388,5.0282 2.2837,4.8454 2.2466,4.7832 2.1926,4.7504 2.1217,4.7473 H 1.9751 C 1.908,4.7798 1.8745,4.8209 1.8742,4.87 1.8745,4.8927 1.8828,4.9172 1.8994,4.9436 2.0951,5.2803 2.3251,5.5975 2.5895,5.8953 2.8538,6.1928 3.1293,6.4792 3.4157,6.754 3.7022,7.0289 3.992,7.2994 4.2852,7.5662 4.5784,7.8327 4.8278,8.0839 5.0333,8.3198 H 5.0836 C 4.9523,8.3195 4.8354,8.3382 4.7324,8.3759 4.6296,8.4133 4.5312,8.4526 4.4367,8.4937 4.3426,8.5345 4.249,8.5722 4.1564,8.6065 4.0638,8.6409 3.9684,8.6581 3.8706,8.6584 3.7022,8.6581 3.5488,8.6114 3.4108,8.5182 3.2728,8.425 3.1851,8.3112 3.148,8.1774 3.1277,8.0854 3.0688,8.0382 2.971,8.0351 H 2.8548 C 2.7738,8.0348 2.7333,8.0756 2.7333,8.1578 V 8.1922 C 2.7707,8.3489 2.8296,8.4976 2.9106,8.6384 2.9915,8.7789 3.0891,8.9059 3.2035,9.0187 3.3182,9.1316 3.4461,9.223 3.5878,9.2935 3.7295,9.3638 3.8791,9.399 4.0374,9.3993 4.2027,9.399 4.3315,9.3564 4.4242,9.2715 4.5168,9.1862 4.5996,9.0963 4.672,9.0016 4.7443,8.9065 4.8143,8.8224 4.8818,8.7488 4.9492,8.6752 5.0366,8.6384 5.1443,8.6387 5.2455,8.6384 5.3433,8.6988 5.4378,8.82 5.5323,8.9408 5.6381,9.1031 5.7558,9.3061 5.8,9.3681 5.8522,9.399 5.9126,9.3993 H 6.0239 C 6.0779,9.399 6.1165,9.376 6.1401,9.3306 6.1469,9.3141 6.1536,9.296 6.1604,9.2767 6.1604,9.2534 6.1536,9.2273 6.1401,9.1982 Z" /></g></g></g><path
                 id="path50"
                 style="fill:#0000f0;fill-opacity:1;fill-rule:nonzero;stroke:none"
                 d="M 1635,1979.99 H 344.79 v 26.25 H 1635 c 7.25,0 13.13,-5.88 13.13,-13.13 0,-7.25 -5.88,-13.12 -13.13,-13.12 z m -1500,13.12 262.5,-78.75 -52.5,65.63 v 26.25 l 52.5,65.62 z" /><path
                 id="path52"
                 style="fill:#0000f0;fill-opacity:1;fill-rule:nonzero;stroke:none"
                 d="m 2455.7,1463.69 447.96,-1128.84 -24.39,-9.68 -447.97,1128.84 c -2.67,6.74 0.62,14.37 7.36,17.04 6.73,2.68 14.36,-0.62 17.04,-7.36 z m 513.15,-1328.68 -23.63,273.04 -41.63,-73 -24.4,-9.68 -80.37,24.59 z" /><path
                 id="path54"
                 style="fill:#ffffff;fill-opacity:1;fill-rule:evenodd;stroke:none"
                 d="m 2507.01,1111.87 c 0,-482.56 -391.19,-873.75 -873.75,-873.75 -482.56,0 -873.75,391.19 -873.75,873.75 0,482.56 391.19,873.76 873.75,873.76 482.56,0 873.75,-391.2 873.75,-873.76 z" /><path
                 id="path56"
                 style="fill:none;stroke:#000000;stroke-width:15;stroke-linecap:round;stroke-linejoin:round;stroke-miterlimit:10;stroke-dasharray:none;stroke-opacity:1"
                 d="m 2507.01,1111.87 c 0,-482.56 -391.19,-873.75 -873.75,-873.75 -482.56,0 -873.75,391.19 -873.75,873.75 0,482.56 391.19,873.76 873.75,873.76 482.56,0 873.75,-391.2 873.75,-873.76 z" /><path
                 id="path58"
                 style="fill:none;stroke:#0000ff;stroke-width:26.25;stroke-linecap:round;stroke-linejoin:round;stroke-miterlimit:10;stroke-dasharray:none;stroke-opacity:1"
                 d="m 1633.26,1993.12 c 355.51,0 676.21,-213.61 813.2,-541.67" /><g
                 transform="matrix(2.8809,-3.014e-6,-1.88e-7,4.3772,167.25,2020.8)"
                 id="g60"><g
                   transform="scale(6.9422,4.5691)"
                   id="g62"><g
                     clip-path="url(#clipPath68)"
                     id="g64"><path
                       id="path70"
                       style="fill:#0000f0;fill-opacity:1;fill-rule:evenodd;stroke:none"
                       d="M 8.1503,9.5711 C 8.1405,9.5282 8.1193,9.4914 8.0874,9.4604 8.0555,9.4291 8.0156,9.4138 7.9684,9.4141 H 7.8724 C 7.7782,9.4138 7.731,9.453 7.731,9.5318 v 0.0344 c 0.027,0.1469 0.0503,0.2996 0.0706,0.4588 0.0202,0.158 0.0371,0.306 0.0506,0.444 v 0.157 c 0,0.075 -0.0034,0.144 -0.0102,0.206 C 7.8285,10.933 7.8049,11.01 7.7712,11.063 7.6804,11.18 7.5534,11.259 7.39,11.301 7.2265,11.341 7.0437,11.362 6.8413,11.362 h -0.561 c -0.1684,0 -0.273,-0.01 -0.3134,-0.029 C 5.9368,11.303 5.9031,11.205 5.866,11.038 L 4.4557,5.5717 C 4.4422,5.5223 4.4355,5.4831 4.4355,5.4539 4.4355,5.3883 4.4557,5.349 4.4959,5.3362 4.5904,5.3064 4.7422,5.2874 4.9511,5.2794 5.1599,5.2711 5.3688,5.2672 5.5777,5.2675 5.6721,5.2672 5.7194,5.2279 5.7194,5.1497 5.7194,5.1298 5.716,5.1086 5.7092,5.0859 L 5.689,5.0123 C 5.6687,4.9105 5.6031,4.8602 5.4918,4.8602 4.9391,4.8798 4.3815,4.8896 3.8187,4.8896 3.2593,4.8896 2.6968,4.8798 2.1306,4.8602 2.0803,4.8602 2.0432,4.8749 2.0193,4.9043 1.996,4.927 1.984,4.9516 1.984,4.9779 c 0,0.0194 0.0034,0.039 0.0102,0.0589 l 0.0202,0.0736 c 0.0101,0.0424 0.0337,0.0789 0.0708,0.1101 0.0372,0.031 0.0792,0.0467 0.1264,0.047 0.2055,-3e-4 0.4162,0.0036 0.6318,0.0119 0.2156,0.008 0.3733,0.027 0.4726,0.0565 0.0994,0.0294 0.166,0.1144 0.1994,0.2554 l 1.4102,5.4717 c 0.0337,0.114 0.0506,0.201 0.0506,0.26 v 0.02 C 4.9627,11.355 4.8701,11.362 4.6983,11.362 H 4.1371 c -0.2018,0 -0.399,-0.022 -0.591,-0.064 C 3.3541,11.256 3.182,11.174 3.0302,11.053 2.9597,10.997 2.8922,10.917 2.8281,10.812 2.7643,10.707 2.7011,10.587 2.6385,10.452 2.5763,10.316 2.5165,10.171 2.4591,10.017 2.4021,9.8634 2.3447,9.7097 2.2874,9.5564 2.2536,9.4579 2.1914,9.4104 2.1003,9.4141 H 2.0144 C 1.9641,9.4138 1.927,9.43 1.9031,9.4631 1.8828,9.4825 1.8727,9.5055 1.8727,9.5318 c 0,0.0194 0.0052,0.039 0.0153,0.0589 0.0878,0.33 0.1972,0.6673 0.3285,1.0103 0.1316,0.344 0.2564,0.686 0.3742,1.026 0.0337,0.098 0.0975,0.147 0.192,0.147 h 5.57 c 0.0945,0 0.1414,-0.041 0.1414,-0.122 v -0.035 z" /></g></g></g><g
                 transform="matrix(2.8809,0,0,4.3772,2994.93,265.8)"
                 id="g72"><g
                   transform="scale(6.9422,4.5691)"
                   id="g74"><g
                     clip-path="url(#clipPath80)"
                     id="g76"><path
                       id="path82"
                       style="fill:#0000f0;fill-opacity:1;fill-rule:evenodd;stroke:none"
                       d="M 8.1503,9.5711 C 8.1405,9.5282 8.1193,9.4914 8.0874,9.4604 8.0555,9.4291 8.0156,9.4138 7.9684,9.4141 H 7.8724 C 7.7782,9.4138 7.731,9.453 7.731,9.5318 v 0.0344 c 0.027,0.1469 0.0503,0.2996 0.0706,0.4588 0.0202,0.158 0.0371,0.306 0.0506,0.444 v 0.157 c 0,0.075 -0.0034,0.144 -0.0102,0.206 C 7.8285,10.933 7.8049,11.01 7.7712,11.063 7.6804,11.18 7.5534,11.259 7.39,11.301 7.2265,11.341 7.0437,11.362 6.8413,11.362 h -0.561 c -0.1684,0 -0.273,-0.01 -0.3134,-0.029 C 5.9368,11.303 5.9031,11.205 5.866,11.038 L 4.4557,5.5717 C 4.4422,5.5223 4.4355,5.4831 4.4355,5.4539 4.4355,5.3883 4.4557,5.349 4.4959,5.3362 4.5904,5.3064 4.7422,5.2874 4.9511,5.2794 5.1599,5.2711 5.3688,5.2672 5.5777,5.2675 5.6721,5.2672 5.7194,5.2279 5.7194,5.1497 5.7194,5.1298 5.716,5.1086 5.7092,5.0859 L 5.689,5.0123 C 5.6687,4.9105 5.6031,4.8602 5.4918,4.8602 4.9391,4.8798 4.3815,4.8896 3.8187,4.8896 3.2593,4.8896 2.6968,4.8798 2.1306,4.8602 2.0803,4.8602 2.0432,4.8749 2.0193,4.9043 1.996,4.927 1.984,4.9516 1.984,4.9779 c 0,0.0194 0.0034,0.039 0.0102,0.0589 l 0.0202,0.0736 c 0.0101,0.0424 0.0337,0.0789 0.0708,0.1101 0.0372,0.031 0.0792,0.0467 0.1264,0.047 0.2055,-3e-4 0.4162,0.0036 0.6318,0.0119 0.2156,0.008 0.3733,0.027 0.4726,0.0565 0.0994,0.0294 0.166,0.1144 0.1994,0.2554 l 1.4102,5.4717 c 0.0337,0.114 0.0506,0.201 0.0506,0.26 v 0.02 C 4.9627,11.355 4.8701,11.362 4.6983,11.362 H 4.1371 c -0.2018,0 -0.399,-0.022 -0.591,-0.064 C 3.3541,11.256 3.182,11.174 3.0302,11.053 2.9597,10.997 2.8922,10.917 2.8281,10.812 2.7643,10.707 2.7011,10.587 2.6385,10.452 2.5763,10.316 2.5165,10.171 2.4591,10.017 2.4021,9.8634 2.3447,9.7097 2.2874,9.5564 2.2536,9.4579 2.1914,9.4104 2.1003,9.4141 H 2.0144 C 1.9641,9.4138 1.927,9.43 1.9031,9.4631 1.8828,9.4825 1.8727,9.5055 1.8727,9.5318 c 0,0.0194 0.0052,0.039 0.0153,0.0589 0.0878,0.33 0.1972,0.6673 0.3285,1.0103 0.1316,0.344 0.2564,0.686 0.3742,1.026 0.0337,0.098 0.0975,0.147 0.192,0.147 h 5.57 c 0.0945,0 0.1414,-0.041 0.1414,-0.122 v -0.035 z" /></g></g></g><path
                 id="path84"
                 style="fill:#ff8000;fill-opacity:1;fill-rule:nonzero;stroke:none"
                 d="m 1627.5,1133.12 v 1364.07 h 15 V 1133.12 c 0,-4.14 -3.36,-7.5 -7.5,-7.5 -4.14,0 -7.5,3.36 -7.5,7.5 z m 7.5,1483.95 -45,-150 37.5,30 h 15 l 37.5,-30 z" /><path
                 id="path86"
                 style="fill:#ff0000;fill-opacity:1;fill-rule:nonzero;stroke:none"
                 d="m 1896.94,2081.9 122.41,425.35 14.42,-4.14 -122.42,-425.36 c -1.14,-3.98 -5.3,-6.28 -9.28,-5.13 -3.98,1.14 -6.28,5.3 -5.13,9.28 z m 162.77,538.48 -84.72,-131.7 44.33,18.46 14.41,-4.15 27.74,-39.2 z" /><path
                 id="path88"
                 style="fill:none;stroke:#ff8000;stroke-width:15;stroke-linecap:round;stroke-linejoin:round;stroke-miterlimit:10;stroke-dasharray:none;stroke-opacity:1"
                 d="m 1647.44,1130.73 1152,473.49" /><path
                 id="path90"
                 style="fill:none;stroke:#ff8000;stroke-width:15;stroke-linecap:round;stroke-linejoin:round;stroke-miterlimit:10;stroke-dasharray:none;stroke-opacity:1"
                 d="m 1647.44,1358.12 c 91.36,0 173.65,-55.24 208.25,-139.79" /><g
                 transform="matrix(2.2631,-1.507e-6,-1.507e-6,4.3772,1735.35,1247.72)"
                 id="g92"><g
                   transform="scale(8.8374,4.5691)"
                   id="g94"><g
                     clip-path="url(#clipPath100)"
                     id="g96"><path
                       id="path102"
                       style="fill:#ff8000;fill-opacity:1;fill-rule:evenodd;stroke:none"
                       d="m 6.1481,10.935 c 0.081,-0.311 0.1212,-0.628 0.1212,-0.9517 0,-0.1018 -0.0034,-0.2 -0.0102,-0.2944 C 6.2257,9.2567 6.1533,8.8234 6.042,8.3885 5.9209,7.9499 5.7675,7.5153 5.5823,7.0853 5.397,6.655 5.1507,6.2422 4.844,5.8465 4.7397,5.7122 4.6241,5.5794 4.4978,5.4487 4.3714,5.3178 4.2358,5.2009 4.0911,5.0979 3.9463,4.9948 3.7954,4.9105 3.6387,4.8454 3.482,4.7798 3.3176,4.7473 3.1458,4.7473 2.9707,4.7473 2.8198,4.7807 2.6934,4.8479 2.5671,4.9148 2.4585,5.0012 2.3674,5.1077 2.2766,5.2138 2.2015,5.3325 2.1426,5.4634 2.0837,5.5941 2.0356,5.7284 1.9984,5.8661 1.9144,6.1701 1.8721,6.4842 1.8721,6.8083 c 0,0.1043 0.0067,0.2074 0.0202,0.3092 0.027,0.4251 0.0994,0.8551 0.2172,1.2906 0.1113,0.438 0.2613,0.8713 0.4499,1.3001 0.1889,0.4288 0.4398,0.8428 0.7533,1.2418 0.1046,0.134 0.2193,0.267 0.3438,0.4 0.1245,0.132 0.2576,0.25 0.399,0.353 0.1417,0.103 0.2907,0.187 0.4475,0.253 0.1567,0.065 0.3226,0.098 0.4978,0.098 0.1754,0 0.3254,-0.034 0.4499,-0.101 C 5.5752,11.886 5.6856,11.8 5.7816,11.696 5.8779,11.591 5.9537,11.471 6.0092,11.337 6.065,11.203 6.1113,11.069 6.1481,10.935 Z M 5.4657,10.822 C 5.4522,10.95 5.4353,11.069 5.4151,11.18 5.3949,11.291 5.3654,11.388 5.3268,11.47 5.2881,11.551 5.2384,11.615 5.1777,11.659 5.117,11.703 5.0397,11.725 4.9452,11.725 4.7499,11.725 4.5695,11.634 4.4045,11.453 4.2395,11.271 4.0794,11.054 3.9242,10.803 3.7019,10.443 3.5301,10.073 3.4087,9.6935 3.2872,9.3138 3.1829,8.9476 3.0952,8.5946 h 2.0571 c 0.0911,0.3692 0.1754,0.7456 0.2527,1.1286 0.054,0.2583 0.081,0.5138 0.081,0.7658 0,0.111 -0.0068,0.222 -0.0203,0.333 z M 2.9891,8.1971 C 2.8983,7.8272 2.8189,7.4542 2.7514,7.0782 2.6977,6.8065 2.6707,6.5348 2.6707,6.2636 2.6707,6.1618 2.6741,6.0637 2.6809,5.9692 2.6876,5.8413 2.7029,5.7217 2.7263,5.6107 2.7499,5.4993 2.7812,5.4036 2.8198,5.3236 2.8584,5.2432 2.91,5.1813 2.9741,5.1371 3.0382,5.093 3.1158,5.0709 3.2065,5.0712 3.3985,5.0709 3.578,5.1607 3.7448,5.3408 3.9117,5.5205 4.069,5.7367 4.2174,5.9888 4.4398,6.355 4.6115,6.7261 4.733,7.1025 c 0.1215,0.376 0.2257,0.741 0.3131,1.0946 z" /></g></g></g><path
                 id="path104"
                 style="fill:none;stroke:#ff8000;stroke-width:15;stroke-linecap:round;stroke-linejoin:round;stroke-miterlimit:10;stroke-dasharray:none;stroke-opacity:1"
                 d="M 1492.75,1835.96 H 1635" /><path
                 id="path106"
                 style="fill:none;stroke:#ff8000;stroke-width:15;stroke-linecap:round;stroke-linejoin:round;stroke-miterlimit:10;stroke-dasharray:none;stroke-opacity:1"
                 d="m 1492.75,1843.78 v 142.25" /><path
                 id="path108"
                 style="fill:none;stroke:#ff8000;stroke-width:15;stroke-linecap:round;stroke-linejoin:round;stroke-miterlimit:10;stroke-dasharray:none;stroke-opacity:1"
                 d="m 2378.85,1586.45 -129.31,-52.91" /><path
                 id="path110"
                 style="fill:none;stroke:#ff8000;stroke-width:15;stroke-linecap:round;stroke-linejoin:round;stroke-miterlimit:10;stroke-dasharray:none;stroke-opacity:1"
                 d="m 2244.78,1531.01 52.91,-129.31" /><path
                 id="path112"
                 style="fill:none;stroke:#ff8000;stroke-width:15;stroke-linecap:round;stroke-linejoin:round;stroke-miterlimit:10;stroke-dasharray:none;stroke-opacity:1"
                 d="m 2448.74,1458.85 h 909.79" /><path
                 id="path114"
                 style="fill:none;stroke:#ff8000;stroke-width:15;stroke-linecap:round;stroke-linejoin:round;stroke-miterlimit:10;stroke-dasharray:none;stroke-opacity:1"
                 d="m 2668.5,1458.85 c 0,-91.37 -55.25,-173.66 -139.82,-208.25" /><g
                 transform="matrix(2.2631,-1.507e-6,-3.014e-6,4.3772,2617.2,1107.39)"
                 id="g116"><g
                   transform="scale(8.8374,4.5691)"
                   id="g118"><g
                     clip-path="url(#clipPath124)"
                     id="g120"><path
                       id="path126"
                       style="fill:#ff8000;fill-opacity:1;fill-rule:evenodd;stroke:none"
                       d="m 6.1481,10.935 c 0.081,-0.311 0.1212,-0.628 0.1212,-0.9517 0,-0.1018 -0.0034,-0.2 -0.0102,-0.2944 C 6.2257,9.2567 6.1533,8.8234 6.042,8.3885 5.9209,7.9499 5.7675,7.5153 5.5823,7.0853 5.397,6.655 5.1507,6.2422 4.844,5.8465 4.7397,5.7122 4.6241,5.5794 4.4978,5.4487 4.3714,5.3178 4.2358,5.2009 4.0911,5.0979 3.9463,4.9948 3.7954,4.9105 3.6387,4.8454 3.482,4.7798 3.3176,4.7473 3.1458,4.7473 2.9707,4.7473 2.8198,4.7807 2.6934,4.8479 2.5671,4.9148 2.4585,5.0012 2.3674,5.1077 2.2766,5.2138 2.2015,5.3325 2.1426,5.4634 2.0837,5.5941 2.0356,5.7284 1.9984,5.8661 1.9144,6.1701 1.8721,6.4842 1.8721,6.8083 c 0,0.1043 0.0067,0.2074 0.0202,0.3092 0.027,0.4251 0.0994,0.8551 0.2172,1.2906 0.1113,0.438 0.2613,0.8713 0.4499,1.3001 0.1889,0.4288 0.4398,0.8428 0.7533,1.2418 0.1046,0.134 0.2193,0.267 0.3438,0.4 0.1245,0.132 0.2576,0.25 0.399,0.353 0.1417,0.103 0.2907,0.187 0.4475,0.253 0.1567,0.065 0.3226,0.098 0.4978,0.098 0.1754,0 0.3254,-0.034 0.4499,-0.101 C 5.5752,11.886 5.6856,11.8 5.7816,11.696 5.8779,11.591 5.9537,11.471 6.0092,11.337 6.065,11.203 6.1113,11.069 6.1481,10.935 Z M 5.4657,10.822 C 5.4522,10.95 5.4353,11.069 5.4151,11.18 5.3949,11.291 5.3654,11.388 5.3268,11.47 5.2881,11.551 5.2384,11.615 5.1777,11.659 5.117,11.703 5.0397,11.725 4.9452,11.725 4.7499,11.725 4.5695,11.634 4.4045,11.453 4.2395,11.271 4.0794,11.054 3.9242,10.803 3.7019,10.443 3.5301,10.073 3.4087,9.6935 3.2872,9.3138 3.1829,8.9476 3.0952,8.5946 h 2.0571 c 0.0911,0.3692 0.1754,0.7456 0.2527,1.1286 0.054,0.2583 0.081,0.5138 0.081,0.7658 0,0.111 -0.0068,0.222 -0.0203,0.333 z M 2.9891,8.1971 C 2.8983,7.8272 2.8189,7.4542 2.7514,7.0782 2.6977,6.8065 2.6707,6.5348 2.6707,6.2636 2.6707,6.1618 2.6741,6.0637 2.6809,5.9692 2.6876,5.8413 2.7029,5.7217 2.7263,5.6107 2.7499,5.4993 2.7812,5.4036 2.8198,5.3236 2.8584,5.2432 2.91,5.1813 2.9741,5.1371 3.0382,5.093 3.1158,5.0709 3.2065,5.0712 3.3985,5.0709 3.578,5.1607 3.7448,5.3408 3.9117,5.5205 4.069,5.7367 4.2174,5.9888 4.4398,6.355 4.6115,6.7261 4.733,7.1025 c 0.1215,0.376 0.2257,0.741 0.3131,1.0946 z" /></g></g></g><path
                 id="path128"
                 style="fill:#ff0000;fill-opacity:1;fill-rule:nonzero;stroke:none"
                 d="m 2124.58,1990.66 196.46,396.63 13.44,-6.66 L 2138.02,1984 c -1.84,-3.71 -6.34,-5.23 -10.05,-3.39 -3.71,1.84 -5.23,6.33 -3.39,10.05 z m 256.39,500.72 -106.9,-114.44 46.92,10.24 13.44,-6.66 20.29,-43.53 z" /><path
                 id="path130"
                 style="fill:#ff0000;fill-opacity:1;fill-rule:nonzero;stroke:none"
                 d="m 2330.86,1871 288.75,335.46 11.37,-9.79 -288.75,-335.46 c -2.71,-3.14 -7.44,-3.49 -10.58,-0.79 -3.14,2.7 -3.49,7.44 -0.79,10.58 z m 372.64,421.42 -131.96,-84.32 47.99,-1.73 11.37,-9.79 8.85,-47.2 z" /><path
                 id="path132"
                 style="fill:#ff0000;fill-opacity:1;fill-rule:nonzero;stroke:none"
                 d="m 2495.89,1693.57 356.36,262.53 8.9,-12.08 -356.36,-262.53 c -3.34,-2.46 -8.03,-1.75 -10.49,1.59 -2.46,3.33 -1.74,8.03 1.59,10.49 z m 457.32,327.6 -147.45,-52.74 46.39,-12.4 8.9,-12.08 -1.91,-47.98 z" /><g
                 transform="matrix(5.0674,-3.014e-6,-3.014e-6,7.8523,2513.57,2345.2)"
                 id="g134"><g
                   transform="scale(3.9468,2.547)"
                   id="g136"><g
                     clip-path="url(#clipPath142)"
                     id="g138"><path
                       id="path144"
                       style="fill:none;stroke:#ff0000;stroke-width:0.40200001;stroke-linecap:round;stroke-linejoin:round;stroke-miterlimit:10;stroke-dasharray:none;stroke-opacity:1"
                       d="M 2.076,14.134 H 16.167" /><path
                       id="path146"
                       style="fill:#ff0000;fill-opacity:1;fill-rule:evenodd;stroke:none"
                       d="m 6.7076,17.263 v 0.584 C 6.6,17.712 6.4273,17.582 6.1896,17.456 5.9522,17.33 5.6866,17.268 5.3934,17.268 c -0.3097,0 -0.6029,0.06 -0.8793,0.181 -0.276,0.121 -0.5152,0.288 -0.7177,0.501 -0.219,0.228 -0.3849,0.482 -0.4977,0.76 -0.1129,0.278 -0.1697,0.571 -0.1697,0.879 0,0.307 0.0592,0.603 0.177,0.888 0.1181,0.284 0.2898,0.536 0.5156,0.755 0.2257,0.219 0.4836,0.389 0.7735,0.508 0.2898,0.12 0.5931,0.179 0.9097,0.18 0.2729,-0.001 0.5217,-0.059 0.7456,-0.175 0.2241,-0.116 0.3833,-0.234 0.4775,-0.355 v 2.041 c 0,0.085 -0.004,0.167 -0.0126,0.248 -0.0083,0.08 -0.0411,0.141 -0.0984,0.184 -0.0574,0.039 -0.1485,0.062 -0.273,0.068 -0.1245,0.007 -0.261,0.01 -0.4095,0.01 v 0.398 l 1.5921,0.118 v -6.164 c 0,-0.085 0.0043,-0.167 0.0126,-0.245 C 7.5477,17.969 7.5814,17.91 7.6403,17.871 7.6992,17.832 7.7912,17.808 7.9157,17.8 8.0406,17.791 8.1786,17.787 8.3301,17.788 v -0.403 z m 0,3.572 c -0.111,0.219 -0.2695,0.4 -0.475,0.542 -0.2055,0.142 -0.4414,0.214 -0.7076,0.214 -0.2122,0 -0.411,-0.05 -0.5962,-0.15 -0.1853,-0.1 -0.3454,-0.238 -0.4803,-0.414 -0.1482,-0.2 -0.2432,-0.424 -0.2856,-0.671 -0.042,-0.247 -0.0631,-0.503 -0.0631,-0.767 0,-0.266 0.0187,-0.519 0.0555,-0.761 0.0371,-0.243 0.1248,-0.47 0.2628,-0.682 0.1147,-0.167 0.2604,-0.301 0.4374,-0.403 0.1769,-0.101 0.3631,-0.152 0.5582,-0.152 0.2932,0 0.5526,0.081 0.7784,0.243 0.2257,0.162 0.3978,0.369 0.5155,0.621 z" /><path
                       id="path148"
                       style="fill:#ff0000;fill-opacity:1;fill-rule:evenodd;stroke:none"
                       d="M 15.237,22.111 C 15.227,22.068 15.206,22.031 15.174,22 15.142,21.969 15.107,21.954 15.07,21.954 c -0.007,-0.007 -0.024,-0.01 -0.051,-0.01 -0.04,0 -0.06,0.003 -0.06,0.01 h -0.01 c -0.088,0 -0.132,0.036 -0.132,0.108 v 0.034 c 0.021,0.154 0.037,0.309 0.051,0.466 0.013,0.121 0.02,0.232 0.02,0.334 v 0.084 c -0.007,0.13 -0.022,0.248 -0.045,0.353 -0.024,0.104 -0.064,0.191 -0.122,0.26 -0.128,0.15 -0.311,0.239 -0.548,0.267 -0.237,0.028 -0.496,0.042 -0.776,0.042 h -1.026 c -0.179,0 -0.283,-0.013 -0.313,-0.039 -0.017,-0.014 -0.051,-0.11 -0.102,-0.29 L 11.3,21.046 h 0.677 c 0.178,0 0.343,0.006 0.493,0.019 0.15,0.013 0.278,0.064 0.386,0.153 0.094,0.075 0.169,0.189 0.223,0.341 0.054,0.152 0.107,0.32 0.161,0.503 0.01,0.045 0.035,0.082 0.074,0.11 0.038,0.028 0.08,0.042 0.124,0.042 h 0.08 c 0.047,0 0.09,-0.016 0.127,-0.049 0.013,-0.026 0.02,-0.051 0.02,-0.074 0,-0.02 -0.005,-0.038 -0.015,-0.054 L 13.033,19.608 C 12.996,19.51 12.93,19.461 12.836,19.461 h -0.081 c -0.091,0 -0.14,0.042 -0.146,0.128 v 0.039 c 0.053,0.196 0.092,0.371 0.116,0.525 0.007,0.036 0.01,0.07 0.01,0.103 0,0.091 -0.02,0.165 -0.061,0.221 -0.057,0.078 -0.157,0.125 -0.3,0.139 -0.144,0.015 -0.303,0.023 -0.478,0.023 h -0.708 l -0.652,-2.557 c -0.013,-0.049 -0.02,-0.097 -0.02,-0.142 0,-0.053 0.013,-0.084 0.04,-0.093 0.071,-0.03 0.199,-0.049 0.382,-0.057 0.184,-0.008 0.372,-0.012 0.564,-0.012 0.094,0 0.141,-0.04 0.141,-0.118 0,-0.02 -0.003,-0.041 -0.01,-0.064 l -0.02,-0.078 c -0.037,-0.098 -0.101,-0.147 -0.192,-0.147 -0.462,0.013 -0.925,0.022 -1.39,0.029 H 9.8234 c -0.4009,0 -0.8036,-0.01 -1.2078,-0.029 -0.0506,0 -0.0878,0.014 -0.1114,0.044 -0.0233,0.023 -0.0349,0.047 -0.0352,0.073 3e-4,0.02 0.0036,0.039 0.0101,0.059 l 0.0202,0.074 c 0.0101,0.042 0.0338,0.079 0.0709,0.11 0.0371,0.031 0.0791,0.047 0.126,0.047 0.1586,0 0.307,0.002 0.4451,0.007 0.138,0.005 0.2426,0.022 0.3131,0.052 0.0607,0.032 0.108,0.121 0.1417,0.265 l 1.4199,5.496 c 0.021,0.072 0.031,0.129 0.031,0.172 0,0.039 -0.008,0.062 -0.026,0.068 -0.047,0.03 -0.14,0.047 -0.278,0.054 -0.138,0.006 -0.286,0.01 -0.445,0.01 -0.094,0 -0.141,0.044 -0.141,0.133 v 0.034 l 0.02,0.083 c 0.027,0.108 0.093,0.162 0.198,0.162 h 4.988 c 0.094,0 0.142,-0.052 0.142,-0.157 z" /><path
                       id="path150"
                       style="fill:#ff0000;fill-opacity:1;fill-rule:evenodd;stroke:none"
                       d="m 8.4154,4.7522 v 0.584 C 8.3077,5.2018 8.135,5.0715 7.8973,4.9457 7.66,4.82 7.3943,4.7571 7.1011,4.7571 6.7914,4.7571 6.4982,4.8175 6.2218,4.9384 5.9458,5.0592 5.7066,5.2264 5.5041,5.4392 5.2852,5.668 5.1192,5.9214 5.0064,6.1995 4.8935,6.4774 4.8368,6.7703 4.8368,7.0782 4.8368,7.3855 4.896,7.6815 5.0137,7.9661 5.1318,8.2508 5.3036,8.5026 5.5293,8.7218 5.755,8.9408 6.013,9.1101 6.3028,9.2297 6.5926,9.3491 6.896,9.4089 7.2125,9.4092 7.4854,9.4089 7.7342,9.3506 7.9581,9.2346 8.1823,9.1184 8.3414,9 8.4356,8.8792 v 2.0418 c 0,0.084 -0.004,0.167 -0.0126,0.247 -0.0083,0.08 -0.0411,0.141 -0.0984,0.184 -0.0574,0.039 -0.1485,0.062 -0.273,0.069 -0.1245,0.006 -0.261,0.01 -0.4094,0.01 v 0.397 l 1.5921,0.118 V 5.7827 C 9.2343,5.6975 9.2385,5.6156 9.2468,5.5371 9.2554,5.4585 9.2891,5.3997 9.348,5.3604 9.4069,5.3211 9.4989,5.2972 9.6235,5.2892 9.7483,5.281 9.8863,5.277 10.038,5.2773 V 4.8749 Z m 0,3.5725 C 8.3043,8.5437 8.1458,8.7243 7.9403,8.8666 7.7348,9.0089 7.4989,9.0801 7.2327,9.0804 7.0205,9.0801 6.8217,9.0301 6.6365,8.9304 6.4512,8.8304 6.2911,8.6924 6.1562,8.516 6.0081,8.3161 5.913,8.0928 5.8707,7.8459 5.8286,7.5987 5.8075,7.3429 5.8075,7.0782 5.8075,6.8129 5.8262,6.5593 5.863,6.3173 5.9001,6.075 5.9878,5.8477 6.1258,5.6355 6.2405,5.4684 6.3862,5.334 6.5632,5.2328 6.7402,5.1313 6.9263,5.0807 7.1214,5.081 c 0.2932,-3e-4 0.5527,0.0807 0.7784,0.2426 0.2257,0.1619 0.3978,0.369 0.5156,0.6211 z" /><path
                       id="path152"
                       style="fill:#ff0000;fill-opacity:1;fill-rule:evenodd;stroke:none"
                       d="M 11.632,5.9839 C 11.599,5.8496 11.575,5.7235 11.561,5.6061 c -0.006,-0.0592 -0.01,-0.1132 -0.01,-0.162 0,-0.0429 0.004,-0.0886 0.01,-0.1374 0.011,-0.0788 0.034,-0.1377 0.071,-0.1769 0.037,-0.0393 0.093,-0.0589 0.167,-0.0586 0.071,-3e-4 0.134,0.0291 0.19,0.088 0.055,0.0589 0.11,0.1463 0.164,0.2625 0.054,0.116 0.104,0.2552 0.149,0.4172 0.046,0.1619 0.094,0.3346 0.144,0.518 0.02,0.0914 0.078,0.1371 0.172,0.1374 h 0.116 c 0.081,-3e-4 0.121,-0.0362 0.121,-0.108 V 6.352 C 12.822,6.2011 12.778,6.0333 12.724,5.8487 12.67,5.6637 12.603,5.4911 12.522,5.331 12.441,5.1705 12.337,5.0331 12.209,4.9187 12.08,4.8043 11.924,4.7473 11.738,4.7473 c -0.175,0 -0.326,0.0334 -0.454,0.1006 -0.128,0.0669 -0.231,0.1598 -0.309,0.2794 -0.077,0.1193 -0.123,0.2561 -0.136,0.4101 -0.007,0.0389 -0.01,0.0815 -0.01,0.1275 0,0.1111 0.013,0.2239 0.04,0.3386 l 1.294,5.0255 c 0.027,0.107 0.046,0.189 0.056,0.245 v 0.015 c 0,0.029 -0.009,0.05 -0.026,0.063 -0.04,0.026 -0.116,0.044 -0.227,0.054 -0.111,0.01 -0.239,0.015 -0.384,0.015 -0.051,0 -0.088,0.016 -0.111,0.049 -0.021,0.02 -0.031,0.044 -0.031,0.074 0,0.019 0.006,0.037 0.015,0.054 l 0.016,0.073 c 0.01,0.046 0.033,0.08 0.07,0.103 0.038,0.023 0.078,0.039 0.122,0.05 l 1.319,0.107 h 0.03 c 0.081,0 0.122,-0.036 0.122,-0.107 0,-0.02 -0.004,-0.042 -0.011,-0.064 z" /></g></g></g></g></g></g></g></g></g></svg>