<?xml version="1.0" encoding="utf-8"?>
<!-- Generator: Adobe Illustrator 19.0.0, SVG Export Plug-In . SVG Version: 6.00 Build 0)  -->
<svg version="1.1" id="Layer_1" xmlns="http://www.w3.org/2000/svg" xmlns:xlink="http://www.w3.org/1999/xlink" x="0px" y="0px"
	 viewBox="0 0 276.9599915 258" style="enable-background:new 0 0 276.9599915 258;" xml:space="preserve">
<style type="text/css">
	.st0{clip-path:url(#SVGID_2_);}
	.st1{clip-path:url(#SVGID_4_);}
	.st2{clip-path:url(#SVGID_6_);}
	.st3{clip-path:url(#SVGID_8_);fill-rule:evenodd;clip-rule:evenodd;fill:#FF8000;}
	.st4{clip-path:url(#SVGID_6_);fill:#0000F0;}
	.st5{clip-path:url(#SVGID_6_);fill-rule:evenodd;clip-rule:evenodd;fill:#FFFFFF;}
	
		.st6{clip-path:url(#SVGID_6_);fill:none;stroke:#000000;stroke-width:1.3983581;stroke-linecap:round;stroke-linejoin:round;stroke-miterlimit:10;}
	
		.st7{clip-path:url(#SVGID_6_);fill:none;stroke:#0000FF;stroke-width:2.4471269;stroke-linecap:round;stroke-linejoin:round;stroke-miterlimit:10;}
	.st8{clip-path:url(#SVGID_10_);fill-rule:evenodd;clip-rule:evenodd;fill:#0000F0;}
	.st9{clip-path:url(#SVGID_12_);fill-rule:evenodd;clip-rule:evenodd;fill:#0000F0;}
	.st10{clip-path:url(#SVGID_6_);fill:#FF8000;}
	.st11{clip-path:url(#SVGID_6_);fill:#FF0000;}
	
		.st12{clip-path:url(#SVGID_6_);fill:none;stroke:#FF8000;stroke-width:1.3983581;stroke-linecap:round;stroke-linejoin:round;stroke-miterlimit:10;}
	.st13{clip-path:url(#SVGID_14_);fill-rule:evenodd;clip-rule:evenodd;fill:#FF8000;}
	
		.st14{clip-path:url(#SVGID_6_);fill:none;stroke:#666666;stroke-width:1.3983581;stroke-linecap:round;stroke-linejoin:round;stroke-miterlimit:10;}
	
		.st15{clip-path:url(#SVGID_6_);fill:none;stroke:#B2B2B2;stroke-width:1.3983581;stroke-linecap:round;stroke-linejoin:round;stroke-miterlimit:10;}
	.st16{clip-path:url(#SVGID_16_);fill-rule:evenodd;clip-rule:evenodd;fill:#FF8000;}
	
		.st17{clip-path:url(#SVGID_18_);fill:none;stroke:#FF0000;stroke-width:0.7495166;stroke-linecap:round;stroke-linejoin:round;stroke-miterlimit:10;}
	.st18{clip-path:url(#SVGID_18_);fill-rule:evenodd;clip-rule:evenodd;fill:#FF0000;}
</style>
<g>
	<defs>
		<rect id="SVGID_1_" x="0.0000041" width="276.9599915" height="258"/>
	</defs>
	<clipPath id="SVGID_2_">
		<use xlink:href="#SVGID_1_"  style="overflow:visible;"/>
	</clipPath>
	<g class="st0">
	</g>
</g>
<g>
	<defs>
		<rect id="SVGID_3_" y="-0.000061" width="276.9599915" height="258"/>
	</defs>
	<clipPath id="SVGID_4_">
		<use xlink:href="#SVGID_3_"  style="overflow:visible;"/>
	</clipPath>
	<g class="st1">
		<defs>
			<rect id="SVGID_5_" y="0.0022278" width="276.67453" height="257.6977234"/>
		</defs>
		<clipPath id="SVGID_6_">
			<use xlink:href="#SVGID_5_"  style="overflow:visible;"/>
		</clipPath>
		<g class="st2">
			<defs>
				<rect id="SVGID_7_" x="101.5497208" y="23.2272797" width="14.9835358" height="29.3802185"/>
			</defs>
			<clipPath id="SVGID_8_">
				<use xlink:href="#SVGID_7_"  style="overflow:visible;"/>
			</clipPath>
			<path class="st3" d="M112.9979706,35.4577789c-0.3641357,0.6473541-0.7959595,1.2467651-1.295639,1.7984619
				c-0.4993134,0.5524445-1.0224991,1.0841827-1.5691681,1.5965424c-0.5466766,0.5123596-1.0927887,1.0219116-1.6394653,1.5279236
				c-0.546669,0.5067596-0.9928436,0.9607544-1.3387146,1.3627319c-0.0182648,0.006897,0.0509033,0.0097046,0.2075195,0.00914
				c0.244812,0.0005646,0.46315,0.0326233,0.6548157,0.0967712c0.1920471,0.0639496,0.3740234,0.1372223,0.5466766,0.2194366
				c0.1726532,0.0824127,0.347168,0.15271,0.5231781,0.2105103c0.1762009,0.0583496,0.3516464,0.0868835,0.5272827,0.086319
				c0.2201996,0.0005646,0.4415131-0.0406342,0.6645126-0.1228638c0.2229919-0.0824127,0.422493-0.1980133,0.5986862-0.3477173
				c0.1762009-0.149353,0.3328171-0.3231201,0.4711609-0.5214996c0.1383514-0.1978149,0.238472-0.4044037,0.3014984-0.6182556
				c0.0376587-0.1704102,0.1444931-0.2556152,0.3201294-0.2561646h0.2173996
				c0.1635208,0.0005493,0.2446289,0.0674896,0.2446289,0.201355c0,0.0371094-0.00914,0.0708466-0.0279694,0.1006775
				c-0.0880051,0.3665619-0.2276535,0.7250977-0.4191437,1.0756073c-0.1916656,0.3510895-0.4226837,0.6631927-0.6930313,0.9378357
				c-0.2699814,0.2744446-0.5731506,0.5002289-0.9093246,0.6764221c-0.3361664,0.1773071-0.6924744,0.2653046-1.0698471,0.2653046
				c-0.3076477,0-0.5491028-0.0777435-0.7251129-0.2332458c-0.1761932-0.1549377-0.3283386-0.3242188-0.45755-0.507309
				c-0.1286469-0.1829071-0.2573013-0.3397064-0.3865051-0.4711609c-0.1286545-0.1308746-0.2968292-0.196701-0.5037918-0.1972504
				c-0.2699814,0.0005493-0.5278397,0.1195068-0.7732086,0.3574066c-0.244812,0.237915-0.4648209,0.527832-0.6592941,0.8686523
				c-0.0691681,0.1159668-0.1698532,0.177124-0.3020477,0.1829071h-0.2733383
				c-0.1251068-0.0605927-0.1875687-0.1372223-0.1881256-0.228775c0.0005569-0.0423126,0.016037-0.0879974,0.0469818-0.1372223
				c0.3648834-0.6277618,0.7937241-1.2191772,1.2866974-1.7744141c0.4927902-0.5546722,1.0064621-1.0886536,1.540451-1.6010132
				c0.5341873-0.5125275,1.0745163-1.0168762,1.6211929-1.5143127c0.546669-0.4968719,1.0116806-0.9652252,1.3948364-1.4050598
				h0.0937805c-0.244812,0.0005646-0.4627686-0.0343018-0.6548157-0.104599
				c-0.1916656-0.0697174-0.3751373-0.1429901-0.5513306-0.2196198c-0.1754532-0.0760803-0.349968-0.1463623-0.5226212-0.2103271
				c-0.1726532-0.0641327-0.3505325-0.0962067-0.5328751-0.096756c-0.3139877,0.0005493-0.5999985,0.0876312-0.8572998,0.2613983
				s-0.4208221,0.3859406-0.4899902,0.6354065c-0.0378494,0.171524-0.1476746,0.2595367-0.3300171,0.2653046h-0.2166595
				c-0.1510239,0.0005646-0.2265396-0.0755005-0.2265396-0.2287598v-0.0641479
				c0.0697327-0.29216,0.1795578-0.569397,0.3305817-0.8319244c0.1508331-0.2619476,0.3328094-0.4987335,0.5461121-0.7090454
				c0.2138596-0.2105103,0.4523239-0.3809052,0.7165298-0.5123596c0.2641983-0.131073,0.543129-0.196701,0.8382797-0.1972504
				c0.3082047,0.0005493,0.5483475,0.0799866,0.7211914,0.238266c0.1726532,0.1590424,0.327034,0.3266602,0.4620209,0.5032196
				c0.1348038,0.1773224,0.2653198,0.3341217,0.3911743,0.471344c0.1256714,0.1372223,0.2886276,0.2058411,0.4894333,0.2052765
				c0.1886902,0.0005646,0.3710403-0.1120453,0.5472336-0.338028c0.1761932-0.2252197,0.3734589-0.527832,0.5929108-0.906311
				c0.0824127-0.1156006,0.1797409-0.1732025,0.2923584-0.1737671h0.2075195
				c0.1006851,0.0005646,0.1726532,0.0434418,0.2166519,0.1280823c0.0126801,0.030777,0.025177,0.0645142,0.0378494,0.1004944
				C113.03582,35.3548584,113.0231476,35.4035339,112.9979706,35.4577789z"/>
		</g>
		<path class="st4" d="M12.4677649,84.6671753l24.4712715,7.3413696l-4.8942566-6.1173401v-2.4471283l4.8942566-6.1182861
			L12.4677649,84.6671753z M128.06073,85.8912048H32.0252075v-2.4471283H128.06073
			c0.6758728,0,1.2240295,0.547226,1.2240295,1.2230988S128.7366028,85.8912048,128.06073,85.8912048z"/>
		<path class="st4" d="M242.6030884,233.1811523l-2.2019501-25.4538422l-3.8818359,6.8062744l-2.2746887,0.9024048
			l-7.4914551-2.2923737L242.6030884,233.1811523z M204.5695801,134.0217285L236.5267334,214.5513l-2.2746429,0.9024048
			l-31.9571686-80.5295715c-0.2488861-0.6283264,0.0578156-1.3386841,0.686142-1.5885315
			C203.6093903,133.0867004,204.3206787,133.3934021,204.5695801,134.0217285z"/>
		<circle class="st5" cx="127.8989944" cy="166.8197632" r="81.4539108"/>
		<circle class="st6" cx="127.8989944" cy="166.8197632" r="81.4539108"/>
		<path class="st7" d="M127.8985214,84.6662445c33.1429672,0,63.0389328,19.9135437,75.8096695,50.4965668"/>
		<g class="st2">
			<defs>
				<rect id="SVGID_9_" x="2.0996819" y="52.7055893" width="19.3362923" height="29.3802185"/>
			</defs>
			<clipPath id="SVGID_10_">
				<use xlink:href="#SVGID_9_"  style="overflow:visible;"/>
			</clipPath>
			<path class="st8" d="M17.2955723,64.2408447c-0.0182705,0.0799866-0.0577984,0.1485901-0.1172733,0.2063904
				c-0.0594769,0.0583649-0.1338692,0.0868835-0.2218704,0.0863342h-0.1789894
				c-0.1756306,0.0005493-0.2636337-0.0725403-0.2636337-0.2194519v-0.0641479
				c0.0503407-0.27388,0.0937824-0.5585938,0.1316299-0.8554077c0.0376625-0.2945862,0.0691719-0.5705261,0.0943413-0.8278198
				v-0.2927246c0-0.1398315-0.0063381-0.2684784-0.0190163-0.384079c-0.0251694-0.1883087-0.0691719-0.3318787-0.1320038-0.4306946
				c-0.1692924-0.2181396-0.4060783-0.3654327-0.7107315-0.4437408c-0.3048382-0.074585-0.6456614-0.113739-1.0230274-0.113739
				h-1.0459614c-0.3139744,0-0.508997,0.0186462-0.584321,0.0540771c-0.0561199,0.0559235-0.1189518,0.2386475-0.1881237,0.5500183
				l-2.6294451,10.1917114c-0.0251694,0.0921021-0.0376616,0.1651917-0.0376616,0.219635
				c0,0.1223145,0.0376616,0.1955872,0.1126137,0.2194519c0.1761913,0.0555573,0.4592152,0.0909882,0.8487005,0.105896
				c0.3892994,0.0154724,0.7787848,0.0227509,1.1682692,0.0221863c0.1760054,0.0005646,0.2641935,0.0738373,0.2641935,0.219635
				c0,0.0371094-0.0063391,0.0766296-0.0190172,0.1189575l-0.0376616,0.1372223
				c-0.0378485,0.1898041-0.1601582,0.2835846-0.367672,0.2835846c-1.0304861-0.0365448-2.0701075-0.0548096-3.1194239-0.0548096
				c-1.0429773,0-2.0917354,0.0182648-3.1473913,0.0548096c-0.0937824,0-0.1629534-0.0274048-0.2075143-0.0822296
				c-0.0434418-0.0423279-0.0658154-0.0881805-0.0658154-0.1372223c0-0.0361633,0.0063391-0.0727081,0.0190172-0.1098175
				l0.0376625-0.1372223c0.0188308-0.0790558,0.0628319-0.14711,0.1320038-0.2052765
				c0.0693579-0.0578003,0.147665-0.0870667,0.2356672-0.0876312c0.3831458,0.0005646,0.7759871-0.0067139,1.1779642-0.0221863
				c0.4019775-0.0149231,0.696003-0.0503387,0.8811436-0.1053467c0.1853266-0.0548096,0.3094997-0.2132874,0.3717728-0.476181
				l2.6292582-10.2017822c0.0628319-0.2125549,0.0943413-0.3747559,0.0943413-0.4847565v-0.0372925
				c-0.0251703-0.0223694-0.1978188-0.0354309-0.5181332-0.0354309H9.8131313c-0.3762484,0-0.7439194,0.0410156-1.1018963,0.1193237
				c-0.357975,0.0783081-0.6788483,0.2312012-0.9618731,0.4567871c-0.131444,0.1044159-0.2572951,0.2535706-0.3768067,0.4493408
				c-0.1189523,0.1957703-0.2367859,0.4195099-0.3535013,0.6712036c-0.1159697,0.2535706-0.2274637,0.5239258-0.3344836,0.8110504
				c-0.1062741,0.286377-0.213294,0.5729523-0.3201275,0.8587646c-0.0630188,0.1836548-0.178988,0.2722168-0.3488398,0.2653198
				H5.8554459c-0.0937824,0.0005493-0.1629534-0.0296478-0.2075143-0.0913544
				c-0.0378485-0.0361786-0.0566792-0.0790558-0.0566792-0.1280975c0-0.0361633,0.0096951-0.0727081,0.0285263-0.1098175
				c0.1636992-0.6152649,0.367671-1.2441559,0.612474-1.883667c0.2453628-0.6413727,0.4780469-1.2790222,0.69768-1.9129333
				c0.0628324-0.182724,0.1817846-0.2740784,0.3579764-0.2740784l10.3850307,0.0000153
				c0.1761894,0,0.2636337,0.0764313,0.2636337,0.2274628v0.0652466L17.2955723,64.2408447z"/>
		</g>
		<g class="st2">
			<defs>
				<rect id="SVGID_11_" x="254.8387146" y="206.7001801" width="19.3362885" height="29.3802261"/>
			</defs>
			<clipPath id="SVGID_12_">
				<use xlink:href="#SVGID_11_"  style="overflow:visible;"/>
			</clipPath>
			<path class="st9" d="M270.0346069,218.2354279c-0.01828,0.0799866-0.0578003,0.1486053-0.1172791,0.2064056
				c-0.0594788,0.0583496-0.1338501,0.0868835-0.2218628,0.086319h-0.1789856
				c-0.1756287,0.0005646-0.2636414-0.072525-0.2636414-0.2194519v-0.0641327
				c0.050354-0.2738953,0.0937805-0.5585938,0.1316223-0.8554077c0.0376587-0.2945862,0.0691833-0.5705261,0.0943604-0.8278198
				v-0.2927246c0-0.1398468-0.0063477-0.2684937-0.0190125-0.3840942c-0.025177-0.1882935-0.0691833-0.3318634-0.132019-0.4306793
				c-0.169281-0.2181549-0.4060669-0.3654327-0.7107239-0.4437408c-0.3048401-0.074585-0.6456604-0.113739-1.0230408-0.113739
				h-1.0459595c-0.3139648,0-0.5090027,0.0186462-0.5843201,0.0540771
				c-0.0561218,0.0559235-0.1189575,0.2386475-0.1881104,0.5500183l-2.6294556,10.1917114
				c-0.0251465,0.0921021-0.0376587,0.1651917-0.0376587,0.219635c0,0.1223145,0.0376587,0.1955872,0.1126099,0.2194519
				c0.1762085,0.0555573,0.4592285,0.0909882,0.8487244,0.105896c0.3892822,0.0154724,0.7787781,0.0227509,1.1682434,0.0221863
				c0.1760254,0.0005646,0.2641907,0.0738373,0.2641907,0.219635c0,0.0371094-0.0063171,0.0766296-0.0190125,0.1189575
				l-0.0376587,0.1372223c-0.0378418,0.1898041-0.1601563,0.2835846-0.3676758,0.2835846
				c-1.0304871-0.0365448-2.0700989-0.0548096-3.1194153-0.0548096c-1.0429688,0-2.0917358,0.0182648-3.1473999,0.0548096
				c-0.0937805,0-0.1629333-0.0274048-0.207489-0.0822296c-0.043457-0.0423126-0.0658264-0.0881805-0.0658264-0.1372223
				c0-0.0361633,0.0063477-0.0727081,0.0190125-0.1098175l0.0376587-0.1372223
				c0.0188293-0.0790558,0.0628357-0.14711,0.132019-0.2052765c0.0693359-0.0578003,0.147644-0.0870667,0.2356567-0.0876312
				c0.3831482,0.0005646,0.776001-0.0067139,1.1779785-0.0221863c0.4019775-0.0149078,0.6959839-0.0503387,0.881134-0.1053467
				c0.1853333-0.0548096,0.3095093-0.2132874,0.3717651-0.476181l2.6292419-10.2017822
				c0.0628357-0.2125549,0.0943604-0.3747711,0.0943604-0.4847565v-0.0372925
				c-0.025177-0.0223694-0.1978149-0.0354309-0.5181274-0.0354309h-1.0463562c-0.3762512,0-0.7438965,0.0410156-1.1018982,0.1193237
				c-0.3579712,0.0783081-0.678833,0.2312012-0.961853,0.4567871c-0.1314392,0.1044159-0.2572937,0.2535706-0.3768005,0.4493408
				c-0.1189575,0.1957703-0.2367859,0.4195099-0.3535156,0.6712036c-0.1159668,0.2535706-0.2274475,0.5239258-0.3344727,0.8110504
				c-0.1062927,0.286377-0.2132874,0.5729523-0.3201294,0.8587799c-0.0630188,0.1836395-0.1789856,0.2722015-0.3488464,0.2653046
				h-0.1601563c-0.0937805,0.0005646-0.1629639-0.0296478-0.2075195-0.0913544
				c-0.0378418-0.0361786-0.0566711-0.0790558-0.0566711-0.1280975c0-0.0361633,0.0097046-0.0727081,0.0285339-0.1098175
				c0.1636963-0.6152649,0.3676453-1.2441559,0.6124573-1.883667c0.2453613-0.6413727,0.4780579-1.2790222,0.6976929-1.9129333
				c0.0628357-0.182724,0.1817627-0.2740784,0.3579712-0.2740784h10.3850403c0.176178,0,0.2636108,0.0764465,0.2636108,0.2274628
				v0.0652618L270.0346069,218.2354279z"/>
		</g>
		<path class="st10" d="M128.06073,26.4992065l-4.195076,13.9835815l3.495903-2.7967224h1.3983612l3.4958954,2.7967224
			L128.06073,26.4992065z M127.361557,164.8387451V37.6748962h1.3983612v127.1638489
			c0,0.3859558-0.3123016,0.6991882-0.6991882,0.6991882C127.6747971,165.5379333,127.361557,165.2247009,127.361557,164.8387451z"
			/>
		<path class="st11" d="M167.6548004,26.1906281l-7.8988647,12.2776031l4.1326141-1.7209015l1.3442841,0.3868713
			l2.5860443,3.6543579L167.6548004,26.1906281z M152.4798126,76.3898163l11.4124756-39.6527557l1.343338,0.3868713
			l-11.4115295,39.652771c-0.1072083,0.3710327-0.4940948,0.5854492-0.8651123,0.4791718
			C152.5879517,77.1486664,152.3735352,76.7617798,152.4798126,76.3898163z"/>
		<line class="st12" x1="129.2213745" y1="165.0624695" x2="236.6152954" y2="120.9219208"/>
		<path class="st12" d="M129.2213745,143.8633728c8.5160065,0,16.1874084,5.1496887,19.4129486,13.0317688"/>
		<g class="st2">
			<defs>
				<rect id="SVGID_13_" x="137.4157562" y="124.7750854" width="15.1902008" height="29.3802185"/>
			</defs>
			<clipPath id="SVGID_14_">
				<use xlink:href="#SVGID_13_"  style="overflow:visible;"/>
			</clipPath>
			<path class="st13" d="M142.9888458,138.8721008c-0.1692963,0.6896667-0.317337,1.3851013-0.4431915,2.0861511
				c-0.1001129,0.5065613-0.1504669,1.0131531-0.1504669,1.5187988c0,0.1897888,0.0063477,0.3726959,0.0190277,0.5488892
				c0.0124817,0.2384644,0.0410156,0.4614563,0.0846405,0.6684113c0.0440063,0.2077026,0.102356,0.3861237,0.1743317,0.5352936
				c0.0719604,0.1499023,0.1681824,0.2653046,0.2876892,0.3477173c0.1195068,0.0822144,0.2641907,0.1234283,0.4333038,0.1228638
				c0.3579712,0.0005646,0.6926422-0.1668701,1.0036469-0.502655c0.3111725-0.3350525,0.6044617-0.7381439,0.8811493-1.2081757
				c0.4146576-0.6827545,0.734787-1.3746643,0.961319-2.0764465c0.226532-0.7010345,0.4208069-1.3815765,0.5837555-2.0408478
				H142.9888458z M147.6063843,133.9780731c-0.0251617-0.2386627-0.0566711-0.4605255-0.0943451-0.6674805
				c-0.0376587-0.206955-0.0926666-0.3878021-0.1646271-0.5406952c-0.0721588-0.1510315-0.1648254-0.2703552-0.2779999-0.3523865
				s-0.2572937-0.1230469-0.4334869-0.1230469c-0.3641357,0-0.7004852,0.1696625-1.0081177,0.5071259
				c-0.3076324,0.3393402-0.6061401,0.743927-0.8955078,1.2118988c-0.4144592,0.6712036-0.734787,1.3610535-0.9611359,2.068634
				c-0.226532,0.7079315-0.42099,1.390686-0.5845032,2.0488586h3.8354034
				c0.1698456-0.6883698,0.3270264-1.390152,0.4711456-2.1042328c0.1006775-0.4815979,0.1510315-0.957962,0.1510315-1.4278107
				C147.6442413,134.391983,147.6315613,134.1850281,147.6063843,133.9780731z M148.8786926,133.767395
				c0.1510315,0.579834,0.2259827,1.1708679,0.2259827,1.7743988c0,0.1898041-0.0063477,0.3728943-0.0190125,0.5489044
				c-0.0622864,0.8058167-0.1972656,1.6136932-0.4047852,2.4245453c-0.2257843,0.8177643-0.511795,1.6280518-0.8570862,2.4297638
				c-0.3454895,0.8022766-0.804718,1.5719299-1.3765411,2.3097076c-0.1944733,0.2503967-0.4100037,0.4980011-0.6454773,0.741684
				c-0.235672,0.2440491-0.4884949,0.4620056-0.7582855,0.6540527c-0.2699738,0.1922302-0.5513306,0.3493958-0.8434906,0.4707642
				c-0.29216,0.1223145-0.5986786,0.1829224-0.9189911,0.1829224c-0.3264771,0-0.6078186-0.0622864-0.8434906-0.1875763
				c-0.2354736-0.1247406-0.4379578-0.2858124-0.6078186-0.4843903c-0.1692963-0.1978149-0.3093109-0.4191284-0.4191284-0.6631775
				c-0.1098175-0.2436981-0.1994934-0.4940948-0.2688599-0.750824c-0.1566162-0.566803-0.2354736-1.1524353-0.2354889-1.7567139
				c0-0.194458,0.0124969-0.3866882,0.037674-0.5764771c0.0503387-0.7925873,0.185318-1.5942993,0.404953-2.4062805
				c0.2075195-0.8166351,0.4871979-1.6245117,0.8388367-2.423996c0.3521881-0.7994843,0.8199921-1.5713654,1.4044952-2.3152924
				c0.1950226-0.2498322,0.4088745-0.4978027,0.6410065-0.7457886c0.232132-0.2460938,0.4802856-0.4661102,0.743927-0.6581421
				c0.2641907-0.1920471,0.5419922-0.3486633,0.8343506-0.4717102c0.29216-0.1211853,0.6014709-0.182724,0.9281311-0.182724
				c0.3270264,0,0.6067047,0.0634003,0.8388214,0.1883087c0.232132,0.1249237,0.437973,0.2852783,0.6169586,0.4791718
				c0.1795502,0.1957703,0.3208771,0.4195099,0.4243469,0.669342
				C148.7237549,133.2677002,148.8100891,133.5175476,148.8786926,133.767395z"/>
		</g>
		<line class="st14" x1="114.7996368" y1="99.3173065" x2="128.06073" y2="99.3173065"/>
		<line class="st15" x1="114.7996368" y1="98.5882874" x2="114.7996368" y2="85.3271942"/>
		<line class="st15" x1="197.4053345" y1="122.5775757" x2="185.3505554" y2="127.5100555"/>
		<line class="st15" x1="184.9067993" y1="127.7468414" x2="189.8392792" y2="139.8016052"/>
		<line class="st12" x1="215.5737305" y1="164.7706909" x2="257.9812927" y2="164.7706909"/>
		<path class="st12" d="M236.549118,164.7716217c0,8.5169373-5.1506195,16.1892548-13.0345612,19.4138641"/>
		<g class="st2">
			<defs>
				<rect id="SVGID_15_" x="231.2791443" y="168.1549225" width="15.1902008" height="29.3802261"/>
			</defs>
			<clipPath id="SVGID_16_">
				<use xlink:href="#SVGID_15_"  style="overflow:visible;"/>
			</clipPath>
			<path class="st16" d="M236.8522339,182.2519531c-0.1692963,0.6896667-0.3173218,1.3851013-0.4431763,2.0861511
				c-0.1001282,0.5065613-0.1504669,1.0131378-0.1504669,1.5187836c0,0.1898041,0.0063477,0.3726959,0.0190277,0.5489044
				c0.0124817,0.2384644,0.0410156,0.4614563,0.0846405,0.668396c0.0440063,0.2077026,0.102356,0.3861389,0.1743317,0.5352936
				c0.0719604,0.1499023,0.1681671,0.2653198,0.2876892,0.3477325c0.1195068,0.0822144,0.2641907,0.1234131,0.4333038,0.1228638
				c0.3579712,0.0005493,0.6926422-0.1668701,1.0036316-0.502655c0.3111877-0.3350525,0.6044617-0.7381439,0.8811493-1.2081757
				c0.4146576-0.6827698,0.734787-1.3746796,0.961319-2.0764618c0.226532-0.7010345,0.4208221-1.3815613,0.5837708-2.0408325
				H236.8522339z M241.4697876,177.3579102c-0.025177-0.2386475-0.0566864-0.4605103-0.0943451-0.6674805
				c-0.0376587-0.2069397-0.0926666-0.3878021-0.1646423-0.5406799c-0.0721436-0.1510315-0.1648102-0.2703552-0.2779846-0.3523865
				s-0.2572937-0.1230621-0.4334869-0.1230621c-0.3641357,0-0.7004852,0.1696625-1.0081177,0.5071259
				c-0.3076477,0.3393402-0.6061401,0.743927-0.8955078,1.2119141c-0.4144745,0.6712036-0.734787,1.3610535-0.9611359,2.0686188
				c-0.226532,0.7079315-0.42099,1.3907013-0.5845032,2.0488586l3.8353882,0.0000153
				c0.1698608-0.6883698,0.3270416-1.390152,0.4711609-2.104248c0.1006775-0.4815826,0.1510162-0.957962,0.1510162-1.4277954
				C241.5076294,177.7718201,241.4949493,177.5648804,241.4697876,177.3579102z M242.7420959,177.1472321
				c0.1510315,0.5798492,0.2259827,1.1708832,0.2259827,1.7744141c0,0.1898041-0.0063477,0.372879-0.0190277,0.5489044
				c-0.0622711,0.8058167-0.1972504,1.613678-0.4047699,2.42453c-0.2257843,0.8177643-0.511795,1.6280518-0.8571014,2.4297791
				c-0.3454742,0.8022766-0.8047028,1.5719299-1.3765259,2.3096924c-0.1944733,0.2503967-0.4100037,0.4980011-0.6454926,0.7416992
				c-0.2356567,0.2440491-0.4884796,0.4620056-0.7582703,0.6540527c-0.2699738,0.192215-0.5513306,0.3493958-0.8434906,0.4707642
				c-0.29216,0.1223145-0.5986786,0.1829071-0.9189911,0.1829071c-0.3264771,0-0.6078186-0.0622711-0.8434906-0.187561
				c-0.2354889-0.1247406-0.4379578-0.2858276-0.6078186-0.4843903c-0.1692963-0.1978149-0.3093109-0.4191284-0.4191284-0.6631927
				c-0.1098175-0.2436829-0.1995087-0.4940796-0.2688599-0.7508087c-0.1566162-0.566803-0.2354889-1.1524353-0.2354889-1.7567139
				c0-0.194458,0.0124969-0.3866882,0.0376587-0.5764771c0.050354-0.7926025,0.1853333-1.5943146,0.4049683-2.4062805
				c0.2075195-0.8166504,0.4871826-1.6245117,0.8388214-2.423996c0.3522034-0.7994843,0.8199921-1.5713654,1.4045105-2.3152924
				c0.1950226-0.2498474,0.4088745-0.4978027,0.6410065-0.7457886c0.2321167-0.246109,0.4802856-0.4661102,0.7439117-0.6581573
				c0.2642059-0.1920319,0.5420074-0.3486481,0.8343506-0.4717102c0.29216-0.1211853,0.6014862-0.1827087,0.9281311-0.1827087
				c0.3270416,0,0.6067047,0.063385,0.8388367,0.1883087c0.2321167,0.1249237,0.4379578,0.2852631,0.6169434,0.4791718
				c0.1795502,0.1957703,0.3208771,0.4195099,0.4243622,0.669342
				C242.5871582,176.6475525,242.6734772,176.8973999,242.7420959,177.1472321z"/>
		</g>
		<path class="st11" d="M197.6029663,38.216507l-9.9656219,10.6685638l4.374054-0.9546204l1.2529449,0.6208649l1.8914948,4.0580444
			L197.6029663,38.216507z M173.7012939,84.8964996l18.3147736-36.9753723l1.2529144,0.6199188l-18.3147583,36.9763184
			c-0.171524,0.345871-0.5910339,0.4875641-0.9368896,0.31604C173.671463,85.6618652,173.5297699,85.2423553,173.7012939,84.8964996
			z"/>
		<path class="st11" d="M227.6704712,56.7643433l-12.3018188,7.861557l4.4738159,0.1603394l1.059967,0.9126587l0.8250122,4.400177
			L227.6704712,56.7643433z M192.9315186,96.0516663l26.9184113-31.2738037l1.0599365,0.912674l-26.918396,31.2728577
			c-0.2516937,0.2927094-0.6935883,0.3262939-0.9862976,0.0736389
			C192.7124481,96.7853394,192.6798248,96.3443909,192.9315186,96.0516663z"/>
		<path class="st11" d="M250.9503326,82.0522308l-13.7467804,4.916626l4.325592,1.1559753l0.8287506,1.1252289l-0.1780396,4.4738007
			L250.9503326,82.0522308z M208.3162689,112.5923615l33.2212524-24.4749756l0.8297119,1.1261444l-33.221283,24.4740601
			c-0.3104401,0.2293243-0.7485809,0.1631317-0.9779205-0.1482239
			C207.9396362,113.2589264,208.0058289,112.8207703,208.3162689,112.5923615z"/>
		<g class="st2">
			<defs>
				<rect id="SVGID_17_" x="209.964447" y="-0.8605118" width="34.0136871" height="52.7045135"/>
			</defs>
			<clipPath id="SVGID_18_">
				<use xlink:href="#SVGID_17_"  style="overflow:visible;"/>
			</clipPath>
			<line class="st17" x1="213.8351135" y1="25.4917297" x2="240.1074829" y2="25.491745"/>
			<path class="st18" d="M222.4706268,12.9980011c-0.206955-0.4083252-0.5024719-0.7457886-0.8856201-1.0105438
				c-0.3831635-0.26474-0.8229828-0.3989868-1.3193054-0.3989868c-0.3956451,0-0.7663116,0.0932159-1.1116028,0.2796631
				c-0.3454895,0.1864471-0.6439972,0.4437408-0.8955231,0.7718811c-0.2763062,0.3728943-0.4534302,0.7905273-0.532486,1.2510529
				c-0.0783081,0.4605255-0.1176453,0.9378204-0.1176453,1.4300385c0,0.4959412,0.0348663,0.9676514,0.1034698,1.4188538
				c0.0691833,0.453064,0.2326965,0.876297,0.4899902,1.2715607c0.2138519,0.3113708,0.4855042,0.561203,0.8155212,0.7513885
				c0.329834,0.1882935,0.677002,0.2833862,1.0407562,0.2833862c0.5466614,0,1.030304-0.1510162,1.4513092-0.453064
				c0.4208069-0.3020325,0.741684-0.687973,0.9611359-1.1578217V12.9980011z M222.4706268,19.6578369v-1.0888367
				c-0.2006073,0.251709-0.5226135,0.4940796-0.9657898,0.7290039c-0.4426422,0.2349243-0.9378357,0.3505249-1.4845123,0.3505249
				c-0.5774231,0-1.1240845-0.1118774-1.6394348-0.3374786c-0.5145874-0.2256012-0.9605713-0.5369568-1.3381348-0.9340973
				c-0.4083252-0.4250946-0.7176361-0.8986664-0.927948-1.4169769c-0.210495-0.5183258-0.3164063-1.064621-0.3164063-1.6388702
				c0-0.5723877,0.1103821-1.1242676,0.3300171-1.6556396c0.2201996-0.5295105,0.540329-0.9993439,0.961319-1.4076538
				c0.4208221-0.4083252,0.9016724-0.7252808,1.4421844-0.9471588c0.5403137-0.2237396,1.1058197-0.333725,1.696106-0.3355865
				c0.5088196,0.0018616,0.972702,0.1100006,1.3901672,0.3262634c0.4178162,0.2162781,0.7146454,0.4362946,0.8902893,0.6618958
				l-0.0000153-3.8053589c0-0.1584778-0.0074463-0.3113708-0.0234833-0.4624023
				c-0.0154724-0.1491394-0.0766296-0.2628784-0.1834717-0.3430481c-0.1070099-0.0727234-0.2768707-0.1156006-0.5090027-0.1267853
				c-0.2321167-0.0130463-0.4866333-0.0186462-0.763504-0.0186462V6.4649353l2.9684448-0.2200012v11.4925232
				c0,0.1584778,0.0080109,0.3113556,0.0234985,0.4567871c0.016037,0.1472931,0.0788574,0.2572937,0.1886749,0.3300171
				c0.1098175,0.0727081,0.2813568,0.1174622,0.5134888,0.13237c0.2328644,0.0167694,0.4901733,0.024231,0.7726288,0.0223694
				v0.7513885L222.4706268,19.6578369z"/>
			<path class="st18" d="M238.3735199,10.6189575c-0.0186462,0.0801697-0.0578003,0.1491547-0.1174622,0.206955
				s-0.1249237,0.0857697-0.1939087,0.0857697c-0.0130463,0.0130463-0.044754,0.0186462-0.0950928,0.0186462
				c-0.0745697,0-0.1118622-0.0056-0.1118622-0.0186462h-0.0186462c-0.1640778,0-0.246109-0.0671234-0.246109-0.2013702v-0.063385
				c0.0391541-0.2871246,0.068985-0.5761261,0.0950775-0.8688507c0.0242462-0.2255859,0.0372925-0.4325562,0.0372925-0.6227264
				v-0.156601c-0.0130463-0.2423859-0.0410156-0.4624023-0.0838928-0.6581573
				c-0.044754-0.1939087-0.119339-0.3561249-0.227478-0.4847565c-0.2386475-0.2796783-0.5798492-0.4456177-1.0217285-0.497818
				s-0.9247742-0.0783081-1.4468384-0.0783081h-1.9129486c-0.3337402,0-0.5276489,0.0242462-0.5835876,0.0727081
				c-0.0316925,0.0261078-0.0950928,0.2050934-0.1901703,0.5406952l-1.2230988,4.7114868h1.2622528
				c0.3318787,0.0000153,0.6395111-0.0111847,0.9191895-0.0354156c0.2796631-0.024231,0.5183258-0.1193237,0.7196808-0.2852631
				c0.1752625-0.1398315,0.315094-0.3523865,0.4157867-0.635788c0.1006775-0.2833862,0.1994934-0.5966187,0.3001709-0.9378204
				c0.0186462-0.0839081,0.0652618-0.1528778,0.13797-0.2050934c0.0708618-0.0522003,0.1491699-0.0783081,0.2312012-0.0783081
				h0.1491547c0.0876312,0,0.1678009,0.0298462,0.2368011,0.0913696c0.024231,0.0484619,0.0372772,0.0950775,0.0372772,0.13797
				c0,0.0372925-0.0093231,0.0708466-0.0279694,0.1006775l-1.1503754,4.5287781
				c-0.068985,0.1827087-0.1920471,0.2740631-0.3672943,0.2740631h-0.1510315c-0.1696625,0-0.2610321-0.0783081-0.2722168-0.2386475
				v-0.0727081c0.0988159-0.365448,0.1715393-0.6917267,0.2162781-0.9788513
				c0.0130615-0.0671082,0.0186462-0.1305084,0.0186462-0.1920319c0-0.1696625-0.0372925-0.3076324-0.113739-0.4120483
				c-0.1062622-0.1454315-0.2927094-0.2330475-0.5593414-0.2591553c-0.2684784-0.0279694-0.5649261-0.0428925-0.8912201-0.0428925
				h-1.3200531l-1.2156372,4.7674255c-0.024231,0.0913544-0.0372772,0.1808472-0.0372772,0.2647552
				c0,0.0988159,0.024231,0.156601,0.0745697,0.1733856c0.1323853,0.0559387,0.3710327,0.0913696,0.7122345,0.1062775
				c0.3430634,0.0149231,0.6935883,0.0223846,1.0515594,0.0223846c0.1752625,0,0.2628937,0.0745697,0.2628937,0.2200012
				c0,0.0372925-0.0055847,0.0764465-0.0186462,0.1193237l-0.0372925,0.1454163
				c-0.0689697,0.182724-0.1883087,0.2740784-0.3579712,0.2740784c-0.8613892-0.024231-1.7246399-0.0410156-2.591629-0.0540619
				h-0.3870697c-0.747467,0-1.498291,0.0186462-2.2519073,0.0540619c-0.0943451,0-0.1637115-0.0260925-0.2077026-0.0820313
				c-0.0434418-0.0428772-0.0650787-0.0876312-0.0656281-0.1361084c0.0005493-0.0372925,0.0067139-0.0727234,0.0188293-0.1100006
				l0.0376587-0.13797c0.0188293-0.0783081,0.0630188-0.1472931,0.1321869-0.2050934s0.1474762-0.087616,0.2349243-0.087616
				c0.2957153,0,0.572403-0.0037384,0.8298798-0.0130615c0.2572937-0.0093231,0.4523315-0.0410156,0.5837708-0.0969543
				c0.1131744-0.0596619,0.2013702-0.2256012,0.2641907-0.4940796L230.50354,7.8464966
				c0.0391541-0.1342316,0.0578003-0.240509,0.0578003-0.3206787c0-0.0727234-0.0149078-0.1156006-0.0484619-0.1267853
				c-0.0876465-0.0559387-0.2610321-0.0876312-0.5183411-0.1006775c-0.2572937-0.0111847-0.5332336-0.0186462-0.8296814-0.0186462
				c-0.1752625,0-0.2628937-0.0820465-0.2628937-0.2479706V6.968338l0.0372925-0.1547394
				c0.0503387-0.2013702,0.1733856-0.3020477,0.3691559-0.3020477h9.3000336c0.1752472,0,0.2647552,0.0969543,0.2647552,0.2927246
				L238.3735199,10.6189575z"/>
			<path class="st18" d="M225.6548004,36.322937c-0.2071533-0.4083099-0.5026703-0.7450256-0.8858185-1.0103455
				s-0.8229828-0.3980713-1.3193054-0.3986206c-0.3956451,0.0005493-0.7662964,0.0937805-1.1116028,0.2796631
				c-0.3454895,0.1864471-0.6439972,0.4437408-0.8955078,0.7726288c-0.2761383,0.3727112-0.4534454,0.7890472-0.5323181,1.2493744
				c-0.0784912,0.4608917-0.1178284,0.9378357-0.1178284,1.4313507c0,0.4946442,0.0348663,0.9674683,0.1034851,1.4186707
				c0.0691681,0.4517517,0.2326813,0.8755493,0.489975,1.2711792c0.2138672,0.311554,0.4855194,0.5621338,0.8155365,0.750824
				c0.3300018,0.1892395,0.6769867,0.2835846,1.040741,0.28302c0.5466614,0.0005646,1.0305023-0.1504517,1.4513092-0.4523163
				c0.4208221-0.3018494,0.7416992-0.6879883,0.9613342-1.1580048V36.322937z M225.6548004,42.9837189v-1.0888367
				c-0.2008057,0.2505798-0.5227966,0.493515-0.9659882,0.7280731c-0.4424438,0.2343597-0.9378357,0.3516235-1.4844971,0.3516235
				c-0.5774384,0-1.1240997-0.1126099-1.6394348-0.338028c-0.5146027-0.2252197-0.9605865-0.5369568-1.3381348-0.9337158
				c-0.4081421-0.42659-0.7176514-0.8990479-0.9279633-1.4175568c-0.210495-0.5181274-0.3162079-1.0642242-0.3162079-1.6382904
				c0-0.5729523,0.1103668-1.1248322,0.3298187-1.6554565c0.2201996-0.5308075,0.5405121-1.0002747,0.9613342-1.4089661
				c0.4208069-0.4083252,0.9018402-0.7239685,1.4421692-0.9469604c0.540329-0.2226105,1.1060028-0.3341064,1.6961212-0.334671
				c0.5088043,0.0005646,0.9726868,0.1092529,1.390152,0.325531c0.4180145,0.2166595,0.7146454,0.4374084,0.8902893,0.6626282
				v-3.806839c0-0.1566162-0.0074615-0.3113708-0.0234985-0.4605255c-0.0154724-0.1491547-0.0766296-0.2628937-0.1834564-0.3430634
				c-0.1070251-0.0727081-0.276886-0.1156006-0.5090027-0.1286469c-0.232132-0.0111847-0.4866333-0.0186462-0.7633209-0.0186462
				v-0.7401886l2.9684296-0.2200012v11.4912109c0,0.1588593,0.007843,0.311554,0.0233154,0.4579163
				c0.016037,0.1465454,0.0788574,0.2561798,0.1886902,0.3294525c0.1098175,0.0732727,0.2813416,0.1178284,0.5136566,0.1327515
				c0.2326813,0.0152893,0.4899902,0.0227356,0.7728271,0.0221863v0.7502594L225.6548004,42.9837189z"/>
			<path class="st18" d="M231.6520844,40.6872711c-0.0615387,0.2503967-0.1062775,0.4855042-0.1323853,0.7043915
				c-0.0111847,0.1103821-0.0186462,0.2110596-0.0186462,0.3020477c0,0.0799866,0.0074615,0.1651917,0.0186462,0.2561646
				c0.0205078,0.1469269,0.0634003,0.2567444,0.1323853,0.329834c0.068985,0.0732727,0.1733856,0.1098175,0.3113556,0.1092529
				c0.1323853,0.0005646,0.2498474-0.0542603,0.3542633-0.1640778c0.1025391-0.1098175,0.2050934-0.2727661,0.3057709-0.4894104
				c0.1006775-0.2162781,0.1939087-0.4758148,0.2778015-0.7778625c0.0857697-0.3018494,0.1752625-0.6238403,0.2684937-0.9657898
				c0.0372925-0.1704102,0.1454315-0.2556152,0.320694-0.2561646h0.2162781
				c0.1510162,0.0005493,0.2256012,0.0674896,0.2256012,0.201355v0.0639496
				c-0.0615387,0.2813568-0.1435699,0.5942078-0.2442474,0.938385c-0.1006927,0.3449249-0.2256012,0.6667328-0.3766327,0.9652252
				c-0.1510162,0.2992554-0.3449249,0.5554199-0.5835724,0.7687225c-0.2405243,0.2132874-0.5313873,0.3195648-0.8781738,0.3195648
				c-0.3262787,0-0.6078186-0.0622711-0.8464813-0.187561c-0.2386475-0.1247406-0.4306946-0.2979431-0.5761108-0.5209351
				c-0.1435699-0.2224274-0.2293396-0.477478-0.2535706-0.7646179c-0.0130615-0.072525-0.0186462-0.151947-0.0186462-0.2377167
				c0-0.2071381,0.024231-0.41745,0.0745697-0.6313019l2.4126434-9.3698425
				c0.0503387-0.1994934,0.0857544-0.3523865,0.1044006-0.4567871v-0.0279694c0-0.0540619-0.0167694-0.0932159-0.0484772-0.1174622
				c-0.0745697-0.0484772-0.2162781-0.0820313-0.423233-0.1006775s-0.4456024-0.0279694-0.7159576-0.0279694
				c-0.0950928,0-0.1640778-0.0298309-0.206955-0.0913544c-0.0391541-0.0372925-0.0578003-0.0820313-0.0578003-0.13797
				c0-0.0354309,0.0111847-0.068985,0.0279694-0.1006775l0.0298309-0.1361084
				c0.0186462-0.0857697,0.0615234-0.1491547,0.1305084-0.1920471c0.0708466-0.0428772,0.1454315-0.0727081,0.2274628-0.0932159
				l2.459259-0.1994934h0.0559235c0.1510315,0,0.227478,0.0671082,0.227478,0.1994934
				c0,0.0372925-0.0074615,0.0783081-0.0205231,0.1193237L231.6520844,40.6872711z"/>
		</g>
	</g>
</g>
</svg>
