<?xml version="1.0" encoding="utf-8"?>
<!-- Generator: Adobe Illustrator 19.0.0, SVG Export Plug-In . SVG Version: 6.00 Build 0)  -->
<svg version="1.1" id="Layer_1" xmlns="http://www.w3.org/2000/svg" xmlns:xlink="http://www.w3.org/1999/xlink" x="0px" y="0px"
	 viewBox="0 0 142 142.5" style="enable-background:new 0 0 142 142.5;" xml:space="preserve">
<style type="text/css">
	.st0{fill:none;stroke:#939598;stroke-miterlimit:10;}
	.st1{fill:#00AEEF;}
	.st2{fill:#F7941E;}
	.st3{fill:none;stroke:#F7941E;stroke-miterlimit:10;}
	.st4{fill:none;stroke:#000000;stroke-miterlimit:10;}
	.st5{fill:#010101;}
</style>
<line class="st0" x1="57.9921913" y1="12.625" x2="10.9862928" y2="58.6309013"/>
<g>
	<g>
		<g>
			<polygon class="st1" points="20.2843628,61.5700073 21.0184937,59.7027283 11.3097534,58.6013184 19.1673889,64.4110107 
				19.9016113,62.5435486 57.8320923,77.4562988 58.2148438,76.4827576 			"/>
		</g>
	</g>
</g>
<line class="st0" x1="10.9872932" y1="58.6123009" x2="10.9872932" y2="123.1952972"/>
<g>
	<g>
		<g>
			<polygon class="st1" points="17.3657837,116.2185669 15.9623718,114.7846375 10.9847717,123.192749 19.5010071,118.4002075 
				18.0974731,116.966156 58.3579712,77.5622253 57.6262817,76.8146362 			"/>
		</g>
	</g>
</g>
<g>
	<g>
		<g>
			<polygon class="st2" points="80.7718811,118.6930847 79.0231628,119.6768188 85.8536072,126.6638184 83.4324341,117.1963501 
				81.6835938,118.1802063 58.4791565,76.9320984 57.5674438,77.4449768 			"/>
		</g>
	</g>
</g>
<line class="st0" x1="85.7108917" y1="61.8428001" x2="58.0233917" y2="12.625"/>
<line class="st3" x1="85.7108917" y1="61.8428001" x2="85.7108917" y2="126.7441025"/>
<g>
	<g>
		<g>
			<polygon class="st2" points="77.7067566,66.8720093 78.6785889,68.6273804 85.7119446,61.844696 76.2282104,64.2012939 
				77.2001038,65.9568176 57.7388916,76.7309875 58.245575,77.6461487 			"/>
		</g>
	</g>
</g>
<g>
	<g>
		<g>
			<polygon points="121.5098877,110.2810059 120.5958252,112.0671387 130.1493835,114.1170349 122.9005432,107.5635071 
				121.9864197,109.3497925 58.2304382,76.7229614 57.7538757,77.6541748 			"/>
		</g>
	</g>
</g>
<path class="st4" d="M51.0155907,84.0166016c0,0.7724991,4.8535004,2.7333984,11.6357994,1.3983994"/>
<g>
	<g>
		<path class="st5" d="M52.8115234,92.0136719c0.5224609-1.5068359,1.2421875-2.6660156,2.1601563-3.4804688
			c0.6923828-0.6113281,1.375-0.9179688,2.046875-0.9179688c0.6513672,0,1.1054688,0.2939453,1.3623047,0.8828125
			c0.359375,0.8222656,0.2929688,1.9404297-0.1972656,3.3554688c-0.4658203,1.3447266-1.1503906,2.4082031-2.0517578,3.1875
			c-0.7021484,0.6035156-1.3876953,0.90625-2.0546875,0.90625c-0.3623047,0-0.6621094-0.0849609-0.9013672-0.2529297
			c-0.2402344-0.1679688-0.4199219-0.4101563-0.5410156-0.7275391c-0.1201172-0.3173828-0.1806641-0.6533203-0.1806641-1.0097656
			C52.4550781,93.3466797,52.5742188,92.6972656,52.8115234,92.0136719z M53.9599609,91.9853516
			c-0.2197266,0.6796875-0.3779297,1.2919922-0.4746094,1.8339844c-0.0751953,0.4140625-0.0830078,0.7724609-0.0214844,1.078125
			c0.0351563,0.1835938,0.1259766,0.3398438,0.2724609,0.4677734s0.3291016,0.1914063,0.5478516,0.1914063
			c0.2539063,0,0.5351563-0.1142578,0.84375-0.34375c0.3076172-0.2285156,0.6083984-0.5976563,0.9013672-1.1064453
			c0.2939453-0.5087891,0.609375-1.2158203,0.9462891-2.1210938H53.9599609z M57.1191406,91.6054688
			c0.3417969-0.9970703,0.5205078-1.7978516,0.5341797-2.4013672c0.0097656-0.4638672-0.0771484-0.7939453-0.2578125-0.9921875
			c-0.1318359-0.1455078-0.3183594-0.2177734-0.5566406-0.2177734c-0.2705078,0-0.5537109,0.1005859-0.8505859,0.3037109
			C55.6923828,88.5,55.4033203,88.8388672,55.1210938,89.3125c-0.28125,0.4746094-0.6240234,1.2382813-1.0292969,2.2929688
			H57.1191406z"/>
	</g>
</g>
<path class="st0" d="M85.7108917,62.7402c-8.8426971,1.2011986-18.1337967,1.8418007-27.7187004,1.8418007
	c-16.8085976,0-32.7148972-1.9687004-46.8798981-5.4785004"/>
<path class="st0" d="M130.1503906,114.1903992c-12.2813034,5.8622971-27.4756012,10.2412033-44.4042969,12.5537033
	c-8.8252029,1.2061005-18.1220932,1.8505936-27.722702,1.8505936c-16.9032974,0-32.8631973-1.996994-46.9686966-5.5399933"/>
<g>
	<g>
		<path class="st5" d="M59.3857422,5.9716797c0.1318359-0.3095703,0.2978516-0.5478516,0.4980469-0.7167969
			c0.2011719-0.1679688,0.4511719-0.2519531,0.75-0.2519531c0.3701172,0,0.6533203,0.1191406,0.8505859,0.359375
			c0.1494141,0.1777344,0.2246094,0.3691406,0.2246094,0.5722656c0,0.3349609-0.2109375,0.6806641-0.6328125,1.0380859
			c0.2832031,0.1103516,0.4980469,0.2685547,0.6425781,0.4746094c0.1455078,0.2050781,0.2177734,0.4472656,0.2177734,0.7246094
			c0,0.3984375-0.1269531,0.7431641-0.3808594,1.0341797c-0.3310547,0.3798828-0.8105469,0.5693359-1.4384766,0.5693359
			c-0.3105469,0-0.5224609-0.0380859-0.6347656-0.1152344c-0.1113281-0.0761719-0.1679688-0.1591797-0.1679688-0.2470703
			c0-0.0654297,0.0263672-0.1230469,0.0800781-0.1728516c0.0527344-0.0498047,0.1171875-0.0751953,0.1923828-0.0751953
			c0.0566406,0,0.1142578,0.0097656,0.1728516,0.0273438c0.0390625,0.0117188,0.1259766,0.0527344,0.2617188,0.1240234
			c0.1367188,0.0712891,0.2304688,0.1132813,0.2832031,0.1269531c0.0830078,0.0253906,0.1728516,0.0371094,0.2685547,0.0371094
			c0.2314453,0,0.4326172-0.0888672,0.6035156-0.2675781s0.2568359-0.3896484,0.2568359-0.6337891
			c0-0.1787109-0.0400391-0.3525391-0.1191406-0.5224609c-0.0585938-0.1259766-0.1240234-0.2226563-0.1943359-0.2880859
			c-0.0966797-0.0898438-0.2304688-0.171875-0.4013672-0.2451172c-0.1699219-0.0742188-0.3427734-0.1103516-0.5195313-0.1103516
			h-0.109375V7.3115234c0.1796875-0.0224609,0.359375-0.0869141,0.5390625-0.1933594
			c0.1806641-0.1064453,0.3115234-0.234375,0.3925781-0.3828125c0.0820313-0.1494141,0.1230469-0.3134766,0.1230469-0.4921875
			c0-0.2324219-0.0732422-0.4208984-0.2197266-0.5644531s-0.328125-0.2148438-0.5458984-0.2148438
			c-0.3515625,0-0.6445313,0.1875-0.8808594,0.5625L59.3857422,5.9716797z"/>
	</g>
	<g>
		<path class="st5" d="M57.3222656,1.1186523v1.2431641C57.6875,1.7949219,58.0068359,1.418457,58.28125,1.2329102
			s0.5390625-0.2788086,0.7939453-0.2788086c0.2197266,0,0.3955078,0.0678711,0.5273438,0.2026367
			c0.1308594,0.1347656,0.1962891,0.3251953,0.1962891,0.5717773c0,0.2617188-0.0634766,0.4648438-0.1904297,0.6098633
			c-0.1279297,0.1445313-0.2822266,0.2167969-0.4628906,0.2167969c-0.2070313,0-0.3876953-0.0664063-0.5400391-0.1992188
			c-0.1533203-0.1333008-0.2431641-0.2075195-0.2714844-0.2231445C58.2949219,2.109375,58.25,2.0976563,58.1992188,2.0976563
			c-0.1142578,0-0.2216797,0.0429688-0.3232422,0.1289063c-0.1611328,0.1333008-0.2832031,0.3227539-0.3652344,0.5688477
			c-0.125,0.3793945-0.1884766,0.7978516-0.1884766,1.2548828v1.2602539l0.0058594,0.328125
			c0,0.2226563,0.0136719,0.3662109,0.0419922,0.4287109C57.4169922,6.1728516,57.4863281,6.25,57.578125,6.2988281
			c0.0927734,0.0488281,0.2480469,0.0791016,0.4677734,0.0908203v0.2109375h-2.9707031V6.3896484
			c0.2392578-0.0195313,0.4013672-0.0849609,0.4853516-0.1962891S55.6875,5.7871094,55.6875,5.3105469v-3.03125
			c0-0.3125-0.0166016-0.5117188-0.0478516-0.5976563c-0.0390625-0.1098633-0.0957031-0.1899414-0.1699219-0.2407227
			c-0.0751953-0.0507813-0.2060547-0.0859375-0.3945313-0.1054688V1.1186523H57.3222656z"/>
	</g>
</g>
<g>
	<g>
		<path class="st1" d="M4.2402344,55.0761719v1.2353516c0.3583984-0.5625,0.6733398-0.9365234,0.9428711-1.1220703
			c0.2705078-0.1835938,0.5302734-0.2763672,0.78125-0.2763672c0.2167969,0,0.3886719,0.0673828,0.5185547,0.2011719
			c0.1289063,0.1337891,0.1933594,0.3232422,0.1933594,0.5683594c0,0.2597656-0.0625,0.4619141-0.1875,0.6064453
			c-0.1259766,0.1435547-0.2773438,0.2148438-0.4550781,0.2148438c-0.2041016,0-0.3818359-0.0654297-0.5322266-0.1982422
			c-0.1503906-0.1318359-0.2392578-0.2050781-0.265625-0.2207031c-0.0390625-0.0234375-0.0839844-0.0351563-0.1328125-0.0351563
			c-0.1132813,0-0.21875,0.0429688-0.3183594,0.1279297c-0.1586914,0.1318359-0.2783203,0.3203125-0.359375,0.5654297
			c-0.1235352,0.3769531-0.1850586,0.7929688-0.1850586,1.2480469v1.2529297l0.0053711,0.3261719
			c0,0.2216797,0.0136719,0.3632813,0.0405273,0.4257813c0.0463867,0.1044922,0.1147461,0.1816406,0.2055664,0.2304688
			c0.0908203,0.0478516,0.2441406,0.078125,0.4599609,0.0898438v0.2099609H2.0292969v-0.2099609
			c0.2353516-0.0195313,0.3945313-0.0839844,0.4775391-0.1953125c0.0830078-0.1103516,0.1245117-0.4033203,0.1245117-0.8769531
			v-3.0136719c0-0.3105469-0.015625-0.5087891-0.0463867-0.5947266c-0.0385742-0.1083984-0.0947266-0.1884766-0.1679688-0.2392578
			c-0.0732422-0.0498047-0.2026367-0.0849609-0.3876953-0.1044922v-0.2158203H4.2402344z"/>
	</g>
</g>
<g>
	<g>
		<path class="st5" d="M49.0722656,39.8544922h1.0722656l1.1074219,1.9228516h-0.1806641l-1.5908203-1.2373047l-1.3349609,1.2373047
			h-0.1748047L49.0722656,39.8544922z"/>
	</g>
	<g>
		<path class="st5" d="M50.34375,49.0087891h-2.7910156l-0.3320313,0.7666016
			c-0.1088867,0.2558594-0.1635742,0.4667969-0.1635742,0.6328125c0,0.2216797,0.0893555,0.3837891,0.2680664,0.4882813
			c0.1049805,0.0625,0.3632813,0.1083984,0.7753906,0.1396484v0.2148438h-2.628418v-0.2148438
			c0.2836914-0.0429688,0.5166016-0.1601563,0.6992188-0.3515625s0.4082031-0.5878906,0.6762695-1.1875l2.8261719-6.2851563
			h0.1113281l2.8496094,6.4589844c0.2714844,0.6123047,0.4951172,0.9970703,0.6699219,1.15625
			c0.1318359,0.1201172,0.3183594,0.1894531,0.5595703,0.2089844v0.2148438h-3.8232422v-0.2148438h0.1572266
			c0.3066406,0,0.5224609-0.0429688,0.6474609-0.1279297c0.0849609-0.0615234,0.1279297-0.1513672,0.1279297-0.2675781
			c0-0.0693359-0.0117188-0.140625-0.0351563-0.2148438c-0.0078125-0.0341797-0.0664063-0.1796875-0.1748047-0.4355469
			L50.34375,49.0087891z M50.1464844,48.5791016L48.96875,45.8662109l-1.2119141,2.7128906H50.1464844z"/>
	</g>
</g>
<g>
	<g>
		<path class="st2" d="M96.2255859,59.5673828l0.1835938-1.7216797c0.0517578-0.4882813,0.1025391-0.8183594,0.1542969-0.9892578
			c0.0751953-0.2441406,0.1806641-0.4189453,0.3164063-0.5263672c0.1367188-0.1064453,0.2890625-0.1591797,0.4589844-0.1591797
			c0.1416016,0,0.2539063,0.0380859,0.3369141,0.1162109c0.0830078,0.0771484,0.125,0.1757813,0.125,0.2958984
			c0,0.09375-0.0205078,0.1923828-0.0595703,0.296875c-0.0517578,0.1474609-0.1972656,0.4716797-0.4384766,0.9716797
			l-0.8164063,1.7158203H96.2255859z"/>
	</g>
	<g>
		<path class="st2" d="M92.5273438,59.4873047v1.2333984c0.3662109-0.5625,0.6884766-0.9365234,0.9648438-1.1201172
			c0.2753906-0.1845703,0.5419922-0.2763672,0.7988281-0.2763672c0.2207031,0,0.3974609,0.0664063,0.5292969,0.2001953
			c0.1328125,0.1337891,0.1982422,0.3232422,0.1982422,0.5673828c0,0.2597656-0.0634766,0.4619141-0.1923828,0.6054688
			c-0.1279297,0.1435547-0.2832031,0.2148438-0.4648438,0.2148438c-0.2089844,0-0.390625-0.0664063-0.5439453-0.1972656
			c-0.1542969-0.1318359-0.2451172-0.2050781-0.2724609-0.2216797c-0.0390625-0.0234375-0.0849609-0.0351563-0.1357422-0.0351563
			c-0.1152344,0-0.2236328,0.0429688-0.3261719,0.1279297c-0.1611328,0.1328125-0.2841797,0.3203125-0.3662109,0.5644531
			c-0.1269531,0.3769531-0.1894531,0.7910156-0.1894531,1.2451172v1.2509766l0.0058594,0.3251953
			c0,0.2216797,0.0136719,0.3632813,0.0410156,0.4248047c0.0478516,0.1044922,0.1171875,0.1816406,0.2099609,0.2294922
			c0.0927734,0.0488281,0.25,0.0791016,0.4707031,0.0908203v0.2089844H90.265625v-0.2089844
			c0.2412109-0.0195313,0.4033203-0.0849609,0.4882813-0.1953125s0.1279297-0.4023438,0.1279297-0.875v-3.0078125
			c0-0.3105469-0.0166016-0.5078125-0.0478516-0.59375c-0.0390625-0.1083984-0.0966797-0.1875-0.171875-0.2382813
			c-0.0742188-0.0498047-0.2070313-0.0849609-0.3964844-0.1044922v-0.2148438H92.5273438z"/>
	</g>
</g>
<g>
	<g>
		<path class="st5" d="M140.7832031,120.2382813l-0.3251953,0.8847656h-2.7373047v-0.125
			c0.8056641-0.7285156,1.3720703-1.3222656,1.7011719-1.7832031c0.328125-0.4609375,0.4921875-0.8828125,0.4921875-1.2646484
			c0-0.2919922-0.0898438-0.53125-0.2705078-0.71875c-0.1796875-0.1875-0.3955078-0.28125-0.6464844-0.28125
			c-0.2275391,0-0.4326172,0.0654297-0.6142578,0.1982422c-0.1816406,0.1318359-0.3154297,0.3261719-0.4023438,0.5810547h-0.1259766
			c0.0566406-0.4179688,0.203125-0.7392578,0.4394531-0.9628906s0.53125-0.3349609,0.8847656-0.3349609
			c0.3759766,0,0.6904297,0.1191406,0.9423828,0.359375c0.2519531,0.2392578,0.3779297,0.5214844,0.3779297,0.8466797
			c0,0.2333984-0.0546875,0.4658203-0.1640625,0.6992188c-0.1689453,0.3652344-0.4423828,0.7529297-0.8212891,1.1621094
			c-0.5673828,0.6152344-0.9228516,0.9853516-1.0634766,1.1123047h1.2109375c0.2460938,0,0.4189453-0.0087891,0.5185547-0.0273438
			c0.0986328-0.0175781,0.1884766-0.0546875,0.2685547-0.1103516c0.0800781-0.0546875,0.1494141-0.1337891,0.2089844-0.2353516
			H140.7832031z"/>
	</g>
	<g>
		<path class="st5" d="M135.6347656,112.546875v1.2431641c0.3671875-0.5673828,0.6884766-0.9433594,0.9648438-1.1289063
			c0.2753906-0.1855469,0.5429688-0.2792969,0.7988281-0.2792969c0.2207031,0,0.3974609,0.0683594,0.5292969,0.203125
			c0.1328125,0.1347656,0.1982422,0.3251953,0.1982422,0.5712891c0,0.2617188-0.0634766,0.4648438-0.1923828,0.6103516
			c-0.1279297,0.1445313-0.2832031,0.2167969-0.4648438,0.2167969c-0.2089844,0-0.390625-0.0664063-0.5439453-0.1992188
			c-0.1533203-0.1337891-0.2451172-0.2080078-0.2724609-0.2236328c-0.0390625-0.0234375-0.0839844-0.0351563-0.1357422-0.0351563
			c-0.1142578,0-0.2236328,0.0429688-0.3251953,0.1289063c-0.1621094,0.1337891-0.2851563,0.3232422-0.3671875,0.5693359
			c-0.1269531,0.3789063-0.1894531,0.7978516-0.1894531,1.2548828v1.2607422l0.0058594,0.328125
			c0,0.2226563,0.0136719,0.3662109,0.0410156,0.4287109c0.0478516,0.1054688,0.1171875,0.1826172,0.2109375,0.2314453
			c0.0917969,0.0488281,0.2490234,0.0791016,0.4707031,0.0908203v0.2109375h-2.9902344v-0.2109375
			c0.2412109-0.0195313,0.4042969-0.0849609,0.4882813-0.1962891c0.0859375-0.1113281,0.1279297-0.40625,0.1279297-0.8828125
			v-3.0322266c0-0.3125-0.0166016-0.5117188-0.0478516-0.5976563c-0.0390625-0.109375-0.0957031-0.1894531-0.171875-0.2402344
			c-0.0742188-0.0507813-0.2070313-0.0859375-0.3964844-0.1054688v-0.2167969H135.6347656z"/>
	</g>
</g>
<g>
	<g>
		<path class="st1" d="M7.3027344,127.5429688l1.1142578-0.5458984h0.1113281v3.8808594
			c0,0.2578125,0.0107422,0.4189453,0.0322266,0.4814453c0.0205078,0.0634766,0.0654297,0.1123047,0.1328125,0.1464844
			c0.0673828,0.0332031,0.2050781,0.0527344,0.4121094,0.0576172v0.125H7.3837891v-0.125
			c0.2158203-0.0048828,0.3554688-0.0234375,0.4179688-0.0566406c0.0634766-0.0322266,0.1074219-0.0761719,0.1318359-0.1318359
			c0.0253906-0.0556641,0.0371094-0.2207031,0.0371094-0.4970703v-2.4814453c0-0.3339844-0.0107422-0.5488281-0.0332031-0.6435547
			c-0.015625-0.0722656-0.0449219-0.1259766-0.0859375-0.1591797c-0.0419922-0.0341797-0.0917969-0.0507813-0.1503906-0.0507813
			c-0.0839844,0-0.1992188,0.0341797-0.3476563,0.1044922L7.3027344,127.5429688z"/>
	</g>
	<g>
		<path class="st1" d="M5.3330078,123.1123047v1.2431641c0.3618164-0.5673828,0.6791992-0.9433594,0.9521484-1.1289063
			c0.2714844-0.1855469,0.5351563-0.2792969,0.7880859-0.2792969c0.2177734,0,0.3925781,0.0683594,0.5224609,0.203125
			c0.1308594,0.1347656,0.1962891,0.3251953,0.1962891,0.5712891c0,0.2617188-0.0634766,0.4648438-0.1904297,0.6103516
			c-0.1259766,0.1445313-0.2792969,0.2167969-0.4580078,0.2167969c-0.2070313,0-0.3857422-0.0664063-0.5380859-0.1992188
			c-0.1513672-0.1337891-0.2402344-0.2080078-0.2675781-0.2236328c-0.0390625-0.0234375-0.0839844-0.0351563-0.1347656-0.0351563
			c-0.112793,0-0.2202148,0.0429688-0.3212891,0.1289063c-0.159668,0.1337891-0.2802734,0.3232422-0.3618164,0.5693359
			c-0.125,0.3789063-0.1870117,0.7978516-0.1870117,1.2548828v1.2607422l0.0058594,0.328125
			c0,0.2226563,0.0136719,0.3662109,0.0410156,0.4287109c0.0463867,0.1054688,0.1157227,0.1826172,0.2070313,0.2314453
			s0.2460938,0.0791016,0.4643555,0.0908203v0.2109375H3.1020508v-0.2109375
			C3.3393555,128.3642578,3.5,128.2988281,3.5839844,128.1875c0.0834961-0.1113281,0.1254883-0.40625,0.1254883-0.8828125
			v-3.0322266c0-0.3125-0.015625-0.5117188-0.046875-0.5976563c-0.0390625-0.109375-0.0952148-0.1894531-0.1694336-0.2402344
			c-0.0737305-0.0507813-0.2041016-0.0859375-0.3911133-0.1054688v-0.2167969H5.3330078z"/>
	</g>
</g>
<g>
	<g>
		<g>
			<polygon points="58.5153198,22.0635071 60.5217285,22.0635071 57.9943848,12.625 55.4626465,22.0635071 57.4692383,22.0635071 
				57.4692383,76.969696 58.5153198,76.969696 			"/>
		</g>
	</g>
</g>
<g>
	<g>
		<g>
			<polygon points="58.5153809,53.5218201 60.5218201,53.5218201 57.9944458,44.0833435 55.4627075,53.5218201 
				57.4693298,53.5218201 57.4693298,76.9697571 58.5153809,76.9697571 			"/>
		</g>
	</g>
</g>
<g>
	<g>
		<path class="st2" d="M100.0322266,137.6386719c0.1298828-0.3095703,0.2949219-0.5478516,0.4941406-0.7167969
			c0.1992188-0.1679688,0.4472656-0.2519531,0.7441406-0.2519531c0.3671875,0,0.6484375,0.1191406,0.8447266,0.359375
			c0.1484375,0.1777344,0.2226563,0.3691406,0.2226563,0.5722656c0,0.3349609-0.2089844,0.6806641-0.6279297,1.0380859
			c0.28125,0.1103516,0.4941406,0.2685547,0.6376953,0.4746094c0.1445313,0.2050781,0.2167969,0.4472656,0.2167969,0.7246094
			c0,0.3984375-0.1269531,0.7431641-0.3789063,1.0341797c-0.328125,0.3798828-0.8046875,0.5693359-1.4277344,0.5693359
			c-0.3085938,0-0.5185547-0.0380859-0.6298828-0.1152344c-0.1113281-0.0761719-0.1669922-0.1591797-0.1669922-0.2470703
			c0-0.0654297,0.0263672-0.1230469,0.0791016-0.1728516s0.1162109-0.0751953,0.1914063-0.0751953
			c0.0556641,0,0.1132813,0.0097656,0.171875,0.0273438c0.0380859,0.0117188,0.125,0.0527344,0.2597656,0.1240234
			s0.2285156,0.1132813,0.2802734,0.1269531c0.0830078,0.0253906,0.171875,0.0371094,0.2666016,0.0371094
			c0.2294922,0,0.4296875-0.0888672,0.5996094-0.2675781s0.2548828-0.3896484,0.2548828-0.6337891
			c0-0.1787109-0.0400391-0.3525391-0.1181641-0.5224609c-0.0585938-0.1259766-0.1230469-0.2226563-0.1923828-0.2880859
			c-0.0966797-0.0898438-0.2294922-0.171875-0.3984375-0.2451172c-0.1689453-0.0742188-0.3408203-0.1103516-0.5166016-0.1103516
			h-0.1083984v-0.1015625c0.1777344-0.0224609,0.3564453-0.0869141,0.5351563-0.1933594s0.3095703-0.234375,0.390625-0.3828125
			c0.0800781-0.1494141,0.1210938-0.3134766,0.1210938-0.4921875c0-0.2324219-0.0722656-0.4208984-0.2177734-0.5644531
			s-0.3261719-0.2148438-0.5419922-0.2148438c-0.3486328,0-0.640625,0.1875-0.8740234,0.5625L100.0322266,137.6386719z"/>
	</g>
	<g>
		<path class="st2" d="M83.1376953,132.8632813l0.1806641-1.7353516c0.0507813-0.4931641,0.1015625-0.8251953,0.1523438-0.9970703
			c0.0732422-0.2460938,0.1777344-0.4228516,0.3125-0.5302734c0.1337891-0.1074219,0.2851563-0.1611328,0.4521484-0.1611328
			c0.140625,0,0.2509766,0.0390625,0.3330078,0.1171875s0.1230469,0.1777344,0.1230469,0.2988281
			c0,0.09375-0.0195313,0.1933594-0.0585938,0.2988281c-0.0507813,0.1484375-0.1953125,0.4746094-0.4326172,0.9794922
			l-0.8056641,1.7294922H83.1376953z"/>
	</g>
	<g>
		<path class="st2" d="M87.3193359,134.890625h6.1308594v0.5800781h-6.1308594V134.890625z"/>
	</g>
	<g>
		<path class="st2" d="M79.4902344,132.7851563v1.2431641c0.3623047-0.5673828,0.6796875-0.9433594,0.9521484-1.1289063
			s0.5351563-0.2783203,0.7880859-0.2783203c0.2177734,0,0.3925781,0.0673828,0.5224609,0.2021484
			c0.1308594,0.1347656,0.1962891,0.3251953,0.1962891,0.5712891c0,0.2617188-0.0634766,0.4648438-0.1904297,0.6103516
			c-0.1259766,0.1445313-0.2792969,0.2167969-0.4580078,0.2167969c-0.2060547,0-0.3857422-0.0664063-0.5371094-0.1992188
			c-0.1523438-0.1337891-0.2412109-0.2080078-0.2685547-0.2236328c-0.0390625-0.0234375-0.0839844-0.0351563-0.1347656-0.0351563
			c-0.1123047,0-0.2197266,0.0429688-0.3212891,0.1289063c-0.1591797,0.1337891-0.2802734,0.3232422-0.3613281,0.5693359
			c-0.125,0.3798828-0.1875,0.7978516-0.1875,1.2548828v1.2607422l0.0058594,0.328125
			c0,0.2226563,0.0136719,0.3662109,0.0410156,0.4287109c0.046875,0.1054688,0.1162109,0.1826172,0.2070313,0.2314453
			c0.0917969,0.0488281,0.2460938,0.0791016,0.4648438,0.0908203v0.2109375h-2.9492188v-0.2109375
			c0.2373047-0.0195313,0.3974609-0.0849609,0.4814453-0.1962891s0.1259766-0.40625,0.1259766-0.8828125v-3.0322266
			c0-0.3125-0.015625-0.5117188-0.046875-0.5976563c-0.0390625-0.109375-0.0957031-0.1894531-0.1699219-0.2402344
			c-0.0732422-0.0507813-0.2041016-0.0859375-0.390625-0.1054688v-0.2167969H79.4902344z"/>
		<path class="st2" d="M97.9912109,132.7851563v1.2431641c0.3623047-0.5673828,0.6796875-0.9433594,0.9521484-1.1289063
			s0.5351563-0.2783203,0.7880859-0.2783203c0.2177734,0,0.3925781,0.0673828,0.5224609,0.2021484
			c0.1308594,0.1347656,0.1962891,0.3251953,0.1962891,0.5712891c0,0.2617188-0.0634766,0.4648438-0.1904297,0.6103516
			c-0.1259766,0.1445313-0.2792969,0.2167969-0.4580078,0.2167969c-0.2070313,0-0.3857422-0.0664063-0.5371094-0.1992188
			c-0.1523438-0.1337891-0.2421875-0.2080078-0.2685547-0.2236328c-0.0390625-0.0234375-0.0839844-0.0351563-0.1347656-0.0351563
			c-0.1132813,0-0.2197266,0.0429688-0.3212891,0.1289063c-0.1591797,0.1337891-0.2802734,0.3232422-0.3623047,0.5693359
			c-0.1240234,0.3798828-0.1865234,0.7978516-0.1865234,1.2548828v1.2607422l0.0058594,0.328125
			c0,0.2226563,0.0136719,0.3662109,0.0410156,0.4287109c0.046875,0.1054688,0.1152344,0.1826172,0.2070313,0.2314453
			s0.2460938,0.0791016,0.4638672,0.0908203v0.2109375h-2.9482422v-0.2109375
			c0.2373047-0.0195313,0.3974609-0.0849609,0.4814453-0.1962891s0.125-0.40625,0.125-0.8828125v-3.0322266
			c0-0.3125-0.015625-0.5117188-0.0458984-0.5976563c-0.0390625-0.109375-0.0957031-0.1894531-0.1699219-0.2402344
			s-0.2041016-0.0859375-0.390625-0.1054688v-0.2167969H97.9912109z"/>
	</g>
</g>
<g>
</g>
<g>
</g>
<g>
</g>
<g>
</g>
<g>
</g>
<g>
</g>
</svg>
