<?xml version="1.0" encoding="utf-8"?>
<!-- Generator: Adobe Illustrator 19.0.0, SVG Export Plug-In . SVG Version: 6.00 Build 0)  -->
<svg version="1.1" id="Layer_1" xmlns="http://www.w3.org/2000/svg" xmlns:xlink="http://www.w3.org/1999/xlink" x="0px" y="0px"
	 viewBox="0 0 251 169" style="enable-background:new 0 0 251 169;" xml:space="preserve">
<style type="text/css">
	.st0{fill:none;stroke:#F15A29;stroke-miterlimit:10;}
	.st1{fill:none;stroke:#010101;stroke-miterlimit:10;}
	.st2{fill:none;stroke:#00AEEF;stroke-miterlimit:10;}
	.st3{fill:none;stroke:#BCBEC0;stroke-miterlimit:10;}
	.st4{opacity:0.54;fill:#F7941E;}
	.st5{fill:#010101;}
	.st6{fill:none;stroke:#939598;stroke-miterlimit:10;}
	.st7{fill:#A7A9AC;}
</style>
<path id="XMLID_12_" class="st0" d="M208.6177673,166.682312c-11.2352448,0-20.3432159-32.8430328-20.3432159-73.3569641
	s9.1079712-73.3569794,20.3432159-73.3569794"/>
<path id="XMLID_8_" class="st1" d="M33.5189743,93.4044647"/>
<g id="XMLID_13_">
	<path id="XMLID_9_" class="st0" d="M28.2809238,112.2926865c-2.8928947,0-5.2380486-8.456543-5.2380486-18.8882217
		s2.3451538-18.8882294,5.2380486-18.8882294"/>
	<path id="XMLID_7_" class="st0" d="M28.2809238,116.2592163c-3.5004025,0-6.3380394-10.2324219-6.3380394-22.8547516
		s2.8376369-22.8547592,6.3380394-22.8547592"/>
</g>
<path id="XMLID_6_" class="st1" d="M34.6189613,93.4044647"/>
<line id="XMLID_5_" class="st1" x1="12.8704319" y1="93.4044647" x2="248.5" y2="93.4044647"/>
<path id="XMLID_26_" class="st0" d="M218.5259247,162.4496613c-10.5887299,0-19.1726074-30.953125-19.1726074-69.1357346
	s8.5838776-69.1357422,19.1726074-69.1357422"/>
<path id="XMLID_15_" class="st2" d="M12.8704319,74.5162354c0,0,35.9830856,0,81.9868393,0
	c65.2858429,0,69.238205-0.2233734,101.1018982-40.6800766C203.5657806,24.1781902,221.4968262,3,221.4968262,3"/>
<path id="XMLID_17_" class="st0" d="M162.2600403,74.5162354"/>
<path id="XMLID_18_" class="st2" d="M234.8422394,10.8147631c0,0-22.5646515,18.4985161-30.0095215,24.6696129
	C167.127182,66.7387314,151.2612,70.5497055,96.9393463,70.5497055c-46.7193489,0-84.0689163,0-84.0689163,0"/>
<line id="XMLID_16_" class="st3" x1="177.9069214" y1="93.4044647" x2="218.5259247" y2="162.4496613"/>
<polygon id="XMLID_23_" class="st4" points="211.4176788,20.6631584 221.4968262,25.0053196 224.5580902,27.6734104 
	226.8169556,30.9602318 228.9609985,35.3102112 230.9539337,40.6822357 232.5630798,46.233593 234.5659332,55.4428101 
	236.0838776,65.5203094 236.9792175,74.5162354 237.4760895,82.7510681 237.6985168,93.3139267 237.3086243,107.2534561 
	236.2211304,119.9681625 234.7703705,130.043396 232.2525635,141.5677032 230.1751251,148.2229156 228.1122131,153.1992035 
	226.0621796,156.9020691 224.0594025,159.5215149 221.0514679,161.8519897 212.4785767,165.357132 215.4403229,162.4496613 
	217.0972595,160.0211945 219.0132446,156.3889923 220.6744232,152.411377 222.7725983,146.006424 224.5580902,138.8920746 
	225.7724609,132.7539825 227.0588379,124.3219833 227.9212799,116.5158081 228.6797485,105.5083313 228.9386902,96.7528763 
	228.8902588,87.2468109 228.453537,77.0029297 227.5578003,66.5209579 226.207489,56.4665298 224.772171,48.7452621 
	223.1308899,41.9247856 221.1716003,35.5982361 219.4256744,31.171957 218.4565735,29.2782421 217.1248016,26.6758709 
	214.901123,23.5401859 "/>
<g id="XMLID_19_">
	<path id="XMLID_10_" class="st0" d="M28.2809238,112.2926865c2.8928947,0,5.2380505-8.456543,5.2380505-18.8882217
		s-2.3451557-18.8882294-5.2380505-18.8882294"/>
	<path id="XMLID_4_" class="st0" d="M28.2809238,116.2592163c3.5004025,0,6.3380375-10.2324219,6.3380375-22.8547516
		s-2.837635-22.8547592-6.3380375-22.8547592"/>
</g>
<line id="XMLID_11_" class="st3" x1="177.9069214" y1="93.4044647" x2="208.6177673" y2="166.682312"/>
<path id="XMLID_21_" class="st0" d="M218.5259247,162.4496613c10.5887299,0,19.1725922-30.953125,19.1725922-69.1357346
	s-8.5838623-69.1357422-19.1725922-69.1357422"/>
<path id="XMLID_1_" class="st0" d="M208.6177673,166.682312c11.23526,0,20.3432312-32.8430328,20.3432312-73.3569641
	s-9.1079712-73.3569794-20.3432312-73.3569794"/>
<circle id="XMLID_2_" class="st5" cx="177.9069366" cy="93.3139267" r="1.2697968"/>
<path id="XMLID_14_" class="st6" d="M181.8999023,100.1918259c2.9515381-1.6288147,3.745163-4.3494797,3.745163-6.8778992"/>
<g id="XMLID_20_">
	<g id="XMLID_22_">
		<path id="XMLID_42_" d="M167.5551758,104.5996094c0-1.2094727,0.3867188-2.2138672,1.159668-3.0136719
			c0.7734375-0.7998047,1.7094727-1.199707,2.809082-1.199707c1.0991211,0,2.0424805,0.4018555,2.8295898,1.2055664
			s1.1796875,1.7729492,1.1796875,2.9077148c0,1.1704102-0.390625,2.1606445-1.1738281,2.9692383
			c-0.7832031,0.8095703-1.7324219,1.2148438-2.847168,1.2148438c-1.1967773,0-2.1791992-0.4433594-2.9487305-1.328125
			C167.8911133,106.5751953,167.5551758,105.65625,167.5551758,104.5996094z M168.8896484,104.5820313
			c0,1.2441406,0.2543945,2.1728516,0.7636719,2.7851563c0.5087891,0.6123047,1.1342773,0.9179688,1.8764648,0.9179688
			c0.7573242,0,1.3676758-0.2802734,1.8295898-0.8417969c0.5595703-0.6748047,0.8398438-1.6503906,0.8398438-2.9257813
			c0-1.2524414-0.2802734-2.2177734-0.8398438-2.8964844c-0.4541016-0.5463867-1.0566406-0.8193359-1.8061523-0.8193359
			c-0.8896484,0-1.581543,0.3842773-2.074707,1.152832C169.0859375,102.574707,168.8896484,103.4501953,168.8896484,104.5820313z
			 M173.0097656,103.1420898v2.7446289h-0.2148438c0.0068359-0.25-0.0253906-0.4394531-0.0996094-0.5673828
			c-0.0742188-0.1289063-0.1943359-0.2265625-0.3613281-0.2929688c-0.0849609-0.0351563-0.2431641-0.0527344-0.472168-0.0527344
			h-0.6699219c-0.3261719,0-0.5576172,0.0683594-0.6933594,0.2050781c-0.1362305,0.1367188-0.2060547,0.3720703-0.2099609,0.7080078
			h-0.2216797v-2.7446289h0.2216797c0,0.3510742,0.0708008,0.5981445,0.2128906,0.7402344
			c0.1416016,0.1425781,0.3676758,0.2138672,0.6787109,0.2138672h0.6875c0.3344727,0,0.5717773-0.0712891,0.7114258-0.2138672
			c0.1396484-0.1420898,0.2119141-0.3891602,0.2158203-0.7402344H173.0097656z"/>
	</g>
</g>
<line id="XMLID_3_" class="st0" x1="211.4176788" y1="20.6631584" x2="221.4968262" y2="25.0053196"/>
<line id="XMLID_24_" class="st0" x1="211.4176788" y1="165.9875336" x2="221.8482056" y2="161.4125977"/>
<g id="XMLID_25_">
	<g id="XMLID_34_">
		<g id="XMLID_35_">
			<polygon id="XMLID_36_" class="st7" points="13.3697662,79.7197876 15.2850037,79.7197876 12.8725128,74.5162354 
				10.455864,79.7197876 12.371254,79.7197876 12.371254,82.8333435 13.3697662,82.8333435 			"/>
		</g>
	</g>
</g>
<g id="XMLID_27_">
	<g id="XMLID_39_">
		<g id="XMLID_40_">
			<polygon id="XMLID_41_" class="st7" points="12.3710938,88.2009125 10.455862,88.2009125 12.8683529,93.4044647 
				15.2850018,88.2009125 13.3696117,88.2009125 13.3696117,85.0873566 12.3710938,85.0873566 			"/>
		</g>
	</g>
</g>
<g id="XMLID_29_">
	<g id="XMLID_30_">
		<path id="XMLID_31_" class="st5" d="M5.6455078,78.9316406l-1.1503906,4.0429688
			c0.3740234-0.3901367,0.699707-0.6572266,0.9785156-0.8017578c0.2783203-0.144043,0.5693359-0.2163086,0.8730469-0.2163086
			c0.4277344,0,0.7783203,0.1425781,1.0507813,0.4272461s0.4091797,0.6708984,0.4091797,1.1582031
			c0,0.6279297-0.1796875,1.2539063-0.5371094,1.8759766c-0.3583984,0.6220703-0.8085938,1.1064453-1.3486328,1.4541016
			c-0.5419922,0.3466797-1.0751953,0.5205078-1.6005859,0.5205078c-0.5883789,0-1.1914063-0.2207031-1.8105469-0.6611328
			l1.7753906-6.1264648c0.1362305-0.472168,0.2041016-0.7490234,0.2041016-0.8310547
			c0-0.1010742-0.03125-0.1772461-0.0932617-0.2280273c-0.0898438-0.0703125-0.222168-0.1054688-0.3969727-0.1054688
			c-0.0820313,0-0.206543,0.0136719-0.3740234,0.0410156v-0.222168L5.6455078,78.9316406z M3.3857422,86.7958984
			c0.3891602,0.2138672,0.7319336,0.3212891,1.027832,0.3212891c0.3422852,0,0.6977539-0.1259766,1.065918-0.3769531
			c0.3671875-0.2519531,0.6875-0.6757813,0.9580078-1.2724609c0.2705078-0.5976563,0.4052734-1.2001953,0.4052734-1.8085938
			c0-0.3583984-0.0888672-0.6396484-0.265625-0.8422852c-0.1767578-0.203125-0.3867188-0.3041992-0.6279297-0.3041992
			c-0.3618164,0-0.7163086,0.1450195-1.0625,0.4355469c-0.3466797,0.2910156-0.59375,0.6953125-0.7416992,1.2138672
			L3.3857422,86.7958984z"/>
	</g>
</g>
<g id="XMLID_28_">
</g>
<g id="XMLID_46_">
</g>
<g id="XMLID_47_">
</g>
<g id="XMLID_48_">
</g>
<g id="XMLID_49_">
</g>
<g id="XMLID_50_">
</g>
</svg>
