<?xml version="1.0" encoding="utf-8"?>
<!-- Generator: Adobe Illustrator 19.0.0, SVG Export Plug-In . SVG Version: 6.00 Build 0)  -->
<svg version="1.1" id="图层_1" xmlns="http://www.w3.org/2000/svg" xmlns:xlink="http://www.w3.org/1999/xlink" x="0px" y="0px"
	 viewBox="0 0 136.3333282 48.1666679" style="enable-background:new 0 0 136.3333282 48.1666679;" xml:space="preserve">
<style type="text/css">
	.st0{fill:#000100;fill-opacity:0;stroke:#000100;}
	.st1{fill:#000100;fill-opacity:0;stroke:#BABBBE;}
	.st2{fill:#010101;}
	.st3{fill:#000100;}
	.st4{fill:#939598;}
</style>
<path class="st0" d="M80.0315933,23.0782127h-6.882309c0-2.4242744-2.0879364-4.3902512-4.6631317-4.3902512
	c-2.5749054,0-4.662529,1.9659767-4.662529,4.3902512c0,2.459095,0.983429,4.4518795,2.1966553,4.4518795
	c1.2135391,0,2.1969757-1.9927845,2.1969757-4.4518795c0-2.4242744-2.0876236-4.3902512-4.6628189-4.3902512
	c-2.5749054,0-4.6625595,1.9659767-4.6625595,4.3902512c0,2.459095,0.9834595,4.4518795,2.1972847,4.4518795
	c1.2129097,0,2.1963692-1.9927845,2.1963692-4.4518795c0-2.4242744-2.0876198-4.3902512-4.662529-4.3902512
	c-2.5755043,0-4.6631279,1.9659767-4.6631279,4.3902512c0,2.459095,0.983429,4.4518795,2.1972847,4.4518795
	c1.2129097,0,2.1963387-1.9927845,2.1963387-4.4518795c0-2.4242744-2.087307-4.3902512-4.6622124-4.3902512
	c-2.5755081,0-4.6631622,1.9659767-4.6631622,4.3902512c0,2.459095,0.9840927,4.4518795,2.1972885,4.4518795
	c1.2129059,0,2.1969986-1.9927845,2.1969986-4.4518795c0-2.4242744-2.0876541-4.3902512-4.6631622-4.3902512
	c-2.5749054,0-4.662529,1.9659767-4.662529,4.3902512c0,2.459095,0.9834633,4.4518795,2.1966553,4.4518795
	c1.2135429,0,2.1970024-1.9927845,2.1970024-4.4518795c0-2.4242744-2.0876541-4.3902512-4.6628456-4.3902512
	c-2.575222,0-4.662529,1.9659767-4.662529,4.3902512c0,2.459095,0.9832687,4.4518795,2.1966553,4.4518795
	c1.2135391,0,2.1969681-1.9927845,2.1969681-4.4518795c0-2.4242744-2.0876236-4.3902512-4.662529-4.3902512
	c-2.5755081,0-4.6629715,1.9659767-4.6629715,4.3902512c0,2.459095,0.9832726,4.4518795,2.1971283,4.4518795
	c1.2129097,0,2.1963387-1.9927845,2.1963387-4.4518795c0-2.4242744-2.0874672-4.3902512-4.6622162-4.3902512
	c-2.5756607,0-4.6631279,1.9659767-4.6631279,4.3902512c0,2.459095,0.9832726,4.4518795,2.1971283,4.4518795
	c1.2130661,0,2.1963387-1.9927845,2.1963387-4.4518795c0-2.4242744-2.0874653-4.3902512-4.6622143-4.3902512
	c-2.5750332,0-4.6626873,1.9659767-4.6626873,4.3902512h-7.8190861"/>
<path class="st0" d="M1.9747049,2.1151507h14.5760212v31.0510597H1.9747049"/>
<path class="st0" d="M1.9747049,3.3707335l1.675372-1.2555828"/>
<path class="st0" d="M1.9747049,8.0552788l7.6470699-5.8936076"/>
<path class="st0" d="M1.9747049,12.6629934L15.6119556,2.1943145"/>
<path class="st0" d="M1.9747049,17.3858891L16.5507259,6.1402702"/>
<path class="st0" d="M1.9747049,21.9931316l14.5760212-11.1785984"/>
<path class="st0" d="M1.9747049,26.7157135l14.5760212-11.2275801"/>
<path class="st0" d="M1.9747049,31.4392414l14.5760212-11.2777901"/>
<path class="st0" d="M16.5507259,29.4587879v-4.6736012"/>
<path class="st0" d="M5.8077807,33.128933l10.7429447-8.3437462"/>
<path class="st0" d="M11.8600302,33.1948471l4.6906958-3.7360592"/>
<path class="st0" d="M79.7255173,32.5039558l-0.0012283,4.758316"/>
<path class="st1" d="M108.1479263,32.5039558l-0.0024567,4.758316"/>
<path class="st1" d="M51.306797,32.4574661l-0.001545,4.7580032"/>
<g>
	<g>
		<path class="st2" d="M131.7293243,31.9015293c0.1904297,0.2036152,0.3349609,0.4072285,0.4321289,0.6108418
			c0.0698242,0.140625,0.1850586,0.5107422,0.3447266,1.1098633l0.5136719-0.7753906
			c0.1362305-0.1879883,0.3017578-0.3666992,0.496582-0.5371094c0.1943359-0.1704102,0.3657227-0.2866211,0.5136719-0.3496113
			c0.09375-0.0390625,0.1967773-0.0585938,0.3095703-0.0585938c0.1674805,0,0.3007813,0.0449219,0.3999023,0.1352558
			c0.0996094,0.0898438,0.1489258,0.199707,0.1489258,0.3286133c0,0.1489258-0.0288086,0.2504883-0.0874023,0.3051758
			c-0.1088867,0.0981445-0.2333984,0.1469727-0.3735352,0.1469727c-0.0820313,0-0.1694336-0.0175781-0.2631836-0.0527344
			c-0.1831055-0.0625-0.3056641-0.0942383-0.3676758-0.0942383c-0.09375,0-0.2045898,0.0551758-0.3330078,0.1645508
			c-0.2412109,0.2036133-0.5292969,0.597168-0.8642578,1.1801758l0.4790039,2.0200195
			c0.0737305,0.309082,0.1362305,0.4941406,0.1865234,0.5546875c0.0507813,0.0610352,0.1015625,0.0913086,0.1518555,0.0913086
			c0.0820313,0,0.1772461-0.0449219,0.2861328-0.1352539c0.2143555-0.1801758,0.3974609-0.4150391,0.5493164-0.7045898
			l0.2041016,0.105957c-0.2451172,0.4619141-0.5566406,0.8452148-0.934082,1.1503906
			c-0.2143555,0.1723633-0.3955078,0.2587891-0.543457,0.2587891c-0.2177734,0-0.3911133-0.1235352-0.5195313-0.3701172
			c-0.0820313-0.152832-0.2509766-0.8100586-0.5083008-1.9726563c-0.6069336,1.0605469-1.09375,1.7436523-1.4599609,2.0488281
			c-0.2373047,0.1958008-0.4672852,0.2939453-0.6889648,0.2939453c-0.1557617,0-0.2978516-0.0571289-0.4262695-0.1704102
			c-0.0932617-0.0859375-0.1401367-0.2016602-0.1401367-0.3466797c0-0.1289063,0.0429688-0.2368164,0.128418-0.3227539
			s0.190918-0.1293945,0.3154297-0.1293945s0.2568359,0.0629883,0.3969727,0.1879883
			c0.1010742,0.090332,0.1791992,0.1352539,0.2338867,0.1352539c0.0463867,0,0.1069336-0.03125,0.1806641-0.0942383
			c0.1831055-0.1484375,0.4321289-0.4697266,0.7475586-0.9628906s0.5219727-0.8491211,0.6191406-1.0683594
			c-0.2412109-0.9511719-0.3720703-1.4541016-0.3911133-1.5092773c-0.0898438-0.2543945-0.206543-0.4345703-0.3505859-0.5400391
			c-0.144043-0.105957-0.3564453-0.1586914-0.6367188-0.1586914c-0.0893555,0-0.1923828,0.0039063-0.309082,0.0117188v-0.2114258
			L131.7293243,31.9015293z"/>
	</g>
</g>
<g>
	<g>
		<path class="st2" d="M77.3929062,43.5299492c0-0.9047852,0.1362305-1.684082,0.4086914-2.3374023
			s0.6347656-1.1401367,1.0864258-1.4599609c0.3500977-0.253418,0.7124023-0.3803711,1.0859375-0.3803711
			c0.6074219,0,1.152832,0.3100586,1.6352539,0.9301758c0.6035156,0.7685547,0.9052734,1.8100586,0.9052734,3.125
			c0,0.9204102-0.1323242,1.7026367-0.3969727,2.3461914s-0.6025391,1.1108398-1.0131836,1.4013672
			c-0.4111328,0.2905273-0.8071289,0.4360352-1.1884766,0.4360352c-0.7553711,0-1.3842773-0.4467773-1.8862305-1.340332
			C77.6053085,45.4982109,77.3929062,44.5909843,77.3929062,43.5299492z M78.5374374,43.6764336
			c0,1.0922852,0.1342773,1.9833984,0.4033203,2.6738281c0.2216797,0.581543,0.5527344,0.8720703,0.9926758,0.8720703
			c0.2099609,0,0.4282227-0.0947266,0.6538086-0.2841797c0.2260742-0.1889648,0.3974609-0.5058594,0.5141602-0.9506836
			c0.1787109-0.6708984,0.2685547-1.6166992,0.2685547-2.8378906c0-0.9047852-0.0932617-1.659668-0.2802734-2.2641602
			c-0.1401367-0.4487305-0.3212891-0.7666016-0.5429688-0.9541016c-0.159668-0.128418-0.3525391-0.1928711-0.5786133-0.1928711
			c-0.2646484,0-0.5,0.1191406-0.706543,0.3569336c-0.2802734,0.3237305-0.4711914,0.8330078-0.5722656,1.5273438
			S78.5374374,43.0016289,78.5374374,43.6764336z"/>
	</g>
</g>
<g>
	<g>
		<path class="st2" d="M55.7561836,39.3829765l-0.6079102,6.5610352c-0.03125,0.3061523-0.046875,0.5078125-0.046875,0.6049805
			c0,0.1547852,0.0292969,0.2729492,0.0883789,0.3544922c0.074707,0.112793,0.1757813,0.1958008,0.3037109,0.25
			c0.1279297,0.0546875,0.3432617,0.081543,0.6459961,0.081543l-0.0649414,0.215332h-3.1494141l0.0644531-0.215332h0.1357422
			c0.2558594,0,0.4638672-0.0541992,0.6254883-0.1625977c0.1137695-0.0737305,0.2021484-0.1958008,0.2651367-0.3666992
			c0.043457-0.1201172,0.0844727-0.4033203,0.1240234-0.8491211l0.0942383-1.0004883h-2.2885742l-0.8139648,1.0878906
			c-0.1845703,0.2441406-0.3007813,0.4194336-0.3476563,0.5263672c-0.0473633,0.1064453-0.0708008,0.206543-0.0708008,0.2993164
			c0,0.1245117,0.0507813,0.230957,0.1533203,0.3198242c0.1020508,0.0893555,0.2714844,0.1376953,0.5073242,0.1455078
			l-0.0649414,0.215332h-2.3652344l0.0649414-0.215332c0.2910156-0.0117188,0.5473633-0.1074219,0.7695313-0.2875977
			c0.222168-0.1806641,0.5537109-0.5654297,0.9941406-1.1547852l4.7773438-6.409668H55.7561836z M54.5882149,41.3195
			l-2.3178711,3.1118164h2.0112305L54.5882149,41.3195z"/>
	</g>
	<g>
		<path class="st2" d="M41.8299141,44.0997734h6.1928711v0.5761719h-6.1928711V44.0997734z"/>
	</g>
</g>
<g>
	<g>
		<path class="st2" d="M109.5960312,39.3829765l-0.6098633,6.5610352c-0.0317383,0.3061523-0.0473633,0.5078125-0.0473633,0.6049805
			c0,0.1547852,0.0297852,0.2729492,0.0888672,0.3544922c0.074707,0.112793,0.1762695,0.1958008,0.3046875,0.25
			c0.128418,0.0546875,0.3442383,0.081543,0.6479492,0.081543l-0.0649414,0.215332h-3.1606445l0.0649414-0.215332h0.1362305
			c0.2563477,0,0.4658203-0.0541992,0.6274414-0.1625977c0.1142578-0.0737305,0.203125-0.1958008,0.2666016-0.3666992
			c0.0429688-0.1201172,0.0844727-0.4033203,0.1240234-0.8491211l0.0947266-1.0004883h-2.2963867l-0.8168945,1.0878906
			c-0.1855469,0.2441406-0.3017578,0.4194336-0.3491211,0.5263672c-0.0473633,0.1064453-0.0712891,0.206543-0.0712891,0.2993164
			c0,0.1245117,0.0512695,0.230957,0.1542969,0.3198242c0.1025391,0.0893555,0.2719727,0.1376953,0.5087891,0.1455078
			l-0.0649414,0.215332h-2.3735352l0.0649414-0.215332c0.2919922-0.0117188,0.5493164-0.1074219,0.7724609-0.2875977
			c0.2231445-0.1806641,0.5551758-0.5654297,0.9975586-1.1547852l4.7939453-6.409668H109.5960312z M108.4236679,41.3195
			l-2.3256836,3.1118164h2.0180664L108.4236679,41.3195z"/>
	</g>
</g>
<circle class="st3" cx="79.6993027" cy="23.0364513" r="2.875"/>
<circle class="st4" cx="108.1454697" cy="23.109026" r="2.875"/>
<g>
	<g>
		<g>
			<polygon class="st3" points="118.7608261,35.4062309 118.7608261,37.4126701 128.199295,34.8852959 118.7608261,32.3535576 
				118.7608261,34.3601799 44.1992989,34.3601799 44.1992989,35.4062309 			"/>
		</g>
	</g>
</g>
<circle class="st4" cx="51.1185722" cy="23.0875492" r="2.875"/>
<g>
</g>
<g>
</g>
<g>
</g>
<g>
</g>
<g>
</g>
<g>
</g>
</svg>
