<?xml version="1.0" encoding="utf-8"?>
<!-- Generator: Adobe Illustrator 19.0.0, SVG Export Plug-In . SVG Version: 6.00 Build 0)  -->
<svg version="1.1" id="Layer_1" xmlns="http://www.w3.org/2000/svg" xmlns:xlink="http://www.w3.org/1999/xlink" x="0px" y="0px"
	 viewBox="412.6666565 136.6666718 331.6666565 110.3333359"
	 style="enable-background:new 412.6666565 136.6666718 331.6666565 110.3333359;" xml:space="preserve">
<style type="text/css">
	.st0{fill:#414141;}
	.st1{fill:none;stroke:#262626;stroke-width:1.3333;stroke-linecap:square;stroke-linejoin:round;stroke-miterlimit:10;}
	.st2{fill:none;stroke:#0072BD;stroke-linejoin:round;stroke-miterlimit:10;}
	.st3{font-family:'TimesNewRomanPS-ItalicMT';}
	.st4{font-size:6.9426498px;}
	.st5{font-family:'SymbolMT';}
	.st6{font-size:12.6553802px;}
	.st7{font-size:12.0089102px;}
	.st8{font-family:'TimesNewRomanPSMT';}
	.st9{font-size:11.9833002px;}
	.st10{letter-spacing:8.0321283;}
	.st11{fill:none;stroke:#262626;stroke-width:0.6;stroke-miterlimit:10;}
	.st12{font-size:12.6858997px;}
	.st13{font-size:11.9124002px;}
	.st14{fill:none;stroke:#0072BD;stroke-width:1.3333;stroke-linejoin:round;stroke-miterlimit:10;}
	.st15{font-size:12.6582403px;}
	.st16{font-size:12.6764002px;}
	.st17{font-size:12.0251999px;}
</style>
<g>
	<g>
		<g>
			<polygon class="st0" points="545.4195557,229.5728149 545.4195557,231.3968506 554,229.0992432 545.4195557,226.7976685 
				545.4195557,228.6218262 440.7761841,228.6218262 440.7761841,229.5728149 			"/>
		</g>
	</g>
</g>
<g>
	<g>
		<g>
			<polygon class="st0" points="441.2517395,148.3247681 443.0757446,148.3247681 440.7781372,139.7443237 438.476593,148.3247681 
				440.3007507,148.3247681 440.3007507,229.097229 441.2517395,229.097229 			"/>
		</g>
	</g>
</g>
<line class="st1" x1="440.7761536" y1="193.3560791" x2="441.9084167" y2="193.3560791"/>
<g>
	<path class="st2" d="M440.7799377,193.3560791l0.5689392-0.0072021l0.5689697-0.0214233l0.5689392-0.0357208l0.5689392-0.0500488
		l0.5689392-0.0644989l0.5689392-0.079071l0.5689392-0.0938263l0.5689392-0.1087494l0.5689697-0.1239319l0.5689392-0.1393127
		l0.5689392-0.1550293l0.5689392-0.1710358l0.5689697-0.187439l0.5689392-0.2042084l0.5689392-0.2214203l0.5689392-0.2391205
		l0.5689392-0.257309l0.5689697-0.276062l0.5689087-0.2954254l0.5689697-0.3154602l0.5689392-0.3361359l0.5689392-0.3576202
		l0.5689392-0.3798676l0.5689697-0.4029846l0.5689392-0.427002l0.5689392-0.4519806l0.5689392-0.4780121l0.5689392-0.5050964
		l0.5689697-0.5333557l0.5689392-0.5627747l0.5689392-0.5934753l0.5689392-0.6254578l0.5689392-0.6587982l0.5689697-0.693512
		l0.5689392-0.729599l0.5689392-0.7671204l0.5689392-0.8059845l0.5689392-0.8462219l0.5689392-0.8876648l0.5689697-0.9302368
		l0.5689392-0.9736938l0.5689392-1.0177917l0.5689392-1.0621185l0.5689392-1.1061859l0.5689697-1.1493988l0.5689392-1.1908875
		l0.5689392-1.2296295l0.5689392-1.2644348l0.5689392-1.2937012l0.5689392-1.3156128l0.5689697-1.3280945l0.5689392-1.3286438
		l0.5689392-1.3145294l0.5689392-1.2828674l0.5689392-1.2306366l0.5689697-1.1549225l0.5689392-1.0532227l0.5689392-0.9236755
		l0.5689392-0.7655029l0.5689697-0.5793152l0.5689392-0.3673553l0.5689392-0.1338043l0.5689392,0.1156006l0.5689392,0.3734589
		l0.5689697,0.631546l0.5689087,0.8814545l0.5689697,1.1152191l0.5689392,1.3260803l0.5689392,1.5090485l0.5689392,1.6609955
		l0.5689697,1.7807617l0.5689392,1.8688507l0.5689392,1.9272614l0.5689392,1.9587555l0.5689392,1.9668884l0.5689697,1.955246
		l0.5689392,1.9274445l0.5689392,1.8869324l0.5689392,1.8366547l0.5689392,1.7793274l0.5689392,1.7171783l0.5689392,1.6520081
		l0.5689697,1.5853424l0.5689392,1.5183563l0.5689392,1.4519653l0.5689392,1.3868256l0.5689697,1.3234558l0.5689087,1.2621918
		l0.5689697,1.2033081l0.5689392,1.1469116l0.5689392,1.0930634l0.5689697,1.0418396l0.5689392,0.9931335l0.5689392,0.9469757
		l0.5689392,0.9032135l0.5689697,0.8617706l0.5689087,0.8226166l0.5689697,0.7855682l0.5689392,0.7505341l0.5689392,0.717453
		l0.5689392,0.6861572l0.5689392,0.6565857l0.5689392,0.6286163l0.5689697,0.6021576l0.5689392,0.5771484l0.5689392,0.5534668
		l0.5689392,0.5310516l0.5689697,0.5097961l0.5689392,0.4896698l0.5689392,0.4705658l0.5689392,0.4524689l0.5689392,0.4352875
		l0.5689392,0.4189758l0.5689697,0.4034271l0.5689087,0.3887024l0.5689697,0.3746643l0.5689392,0.3613281l0.5689697,0.3486176
		l0.5689392,0.3364868l0.5689392,0.3249207l0.5689392,0.3139191l0.5689392,0.303421l0.5689392,0.2933655l0.5689392,0.283783
		l0.5689697,0.2745972l0.5689087,0.2658691l0.5689697,0.2574463l0.5689697,0.2494354l0.5689087,0.241745l0.5689697,0.234375
		l0.5689697,0.2273102l0.5689087,0.22052l0.5689697,0.2140198l0.5689087,0.2077942l0.5689697,0.2018127l0.5689087,0.1960297
		l0.5689697,0.190506l0.5689087,0.1851959l0.5689697,0.1800537l0.5689697,0.1751404l0.5689087,0.1704102l0.5689697,0.1658173
		l0.5689697,0.161438l0.5689087,0.1571808l0.5689697,0.1530914l0.5689087,0.1491547l0.5689697,0.14534l0.5689697,0.1416626
		l0.5689087,0.1381226l0.5689087,0.1347046l0.5689697,0.1313934l0.5689697,0.1281738l0.5689697,0.1250916l0.5689087,0.1221008
		l0.5689697,0.1192169l0.5689087,0.116394l0.5689697,0.1137085l0.5689697,0.1110687l0.5689087,0.1085358l0.5689697,0.1060638
		l0.5689087,0.1036835l0.5689697,0.1013794l0.5689087,0.0991058l0.5689697,0.0969696l0.5689697,0.0948334l0.5689087,0.0927887
		l0.5689697,0.0908203l0.5689087,0.0888672l0.5689697,0.0869904l0.5689697,0.0852051l0.5689087,0.0834045l0.5689697,0.0817108
		l0.5689087,0.0800171l0.5689697,0.0784149l0.5689697,0.076828l0.5689087,0.0752716l0.5689697,0.0738068l0.5689087,0.0723572
		l0.5689697,0.0709229l0.5689697,0.0695496l0.5689087,0.0682068l0.5689697,0.066925l0.5689087,0.0656433l0.5689697,0.0643921
		l0.5689697,0.0632019l0.5689087,0.062027l0.5689697,0.0608826l0.5689087,0.0597382l0.5689697,0.05867l0.5689697,0.0576019
		l0.5689087,0.0565643l0.5689697,0.0555573l0.5689087,0.0545807l0.5689697,0.0536194l0.5689087,0.0526733l0.5689697,0.0517426
		l0.5689697,0.0508575l0.5689087,0.0499878L554,224.7061157"/>
</g>
<g>
	<text transform="matrix(0.99753 0 0 1 482.5636902 245.2779846)" class="st3 st4">m</text>
	<text transform="matrix(0.94657 0 -0.31552 0.94892 474.2596741 242.1981201)" class="st5 st6">ω</text>
</g>
<g>
	<text transform="matrix(0.99258 0 0 1 464.0693359 160.6476135)" class="st3 st4">m</text>
	<text transform="matrix(0.99258 0 0 1 457.7412109 157.5538635)" class="st3 st7">A</text>
</g>
<g>
	<text transform="matrix(0.996 0 0 1 423.8427734 196.2519531)" class="st8 st9">/</text>
	<text transform="matrix(0.996 0 0 1 414.1396484 196.2519531)"><tspan x="0" y="0" class="st3 st9 st10">B</tspan><tspan x="15.540678" y="0" class="st3 st9">k</tspan></text>
</g>
<line class="st11" x1="476.0545349" y1="155.2708588" x2="476.0545349" y2="229.0972443"/>
<circle cx="476.0545349" cy="155.2708588" r="1.4758233"/>
<g>
	<text transform="matrix(0.95554 0 -0.31851 0.94792 544.100708 242.1875)" class="st5 st12">ω</text>
</g>
<g>
	<text transform="matrix(1.01758 0 0 1 425.7802734 147.4238281)" class="st3 st13">A</text>
</g>
<g>
	<g>
		<g>
			<polygon class="st0" points="732.7528687,229.5728149 732.7528687,231.3968506 741.333313,229.0992432 732.7528687,226.7976685 
				732.7528687,228.6218262 628.1378784,228.6218262 628.1378784,229.5728149 			"/>
		</g>
	</g>
</g>
<g>
	<g>
		<g>
			<polygon class="st0" points="628.6134644,148.3247681 630.4375,148.3247681 628.1398926,139.7443237 625.8383179,148.3247681 
				627.6624756,148.3247681 627.6624756,229.097229 628.6134644,229.097229 			"/>
		</g>
	</g>
</g>
<g>
	<path class="st14" d="M628.1416626,157.5550537l0.5687866,0.1795349l0.5688477,0.1797791l0.5687866,0.1802063l0.5687866,0.1808929
		l0.5687866,0.1818237l0.5687866,0.1829376l0.5688477,0.1843109l0.5687866,0.1859589l0.5687866,0.1878204l0.5688477,0.1899414
		l0.5687866,0.192337l0.5687866,0.1950073l0.5687866,0.1979523l0.5687866,0.2012024l0.5688477,0.2047729l0.5687866,0.2086639
		l0.5687866,0.2128754l0.5688477,0.217453l0.5687866,0.2224579l0.5687866,0.2277985l0.5687866,0.2335968l0.5688477,0.2398682
		l0.5687866,0.246582l0.5687866,0.2538452l0.5687866,0.2616272l0.5688477,0.2700195l0.5687866,0.2790375l0.5687866,0.2887268
		l0.5687866,0.2991486l0.5688477,0.3103485l0.5687866,0.3223877l0.5687866,0.3353424l0.5687866,0.3492737l0.5688477,0.3642426
		l0.5687866,0.3803711l0.5687866,0.3977203l0.5687866,0.4164124l0.5688477,0.4365082l0.5687866,0.4581909l0.5687866,0.4814911
		l0.5687866,0.5066223l0.5688477,0.5336304l0.5687866,0.5627289l0.5687866,0.5939636l0.5688477,0.627533l0.5687866,0.6635132
		l0.5687866,0.7019958l0.5687866,0.743103l0.5688477,0.7867889l0.5687866,0.8330841l0.5687866,0.8818665l0.5687866,0.9329529
		l0.5688477,0.9860535l0.5687866,1.0406494l0.5687866,1.0961761l0.5687866,1.151825l0.5688477,1.2066345l0.5687866,1.2593689
		l0.5687866,1.3087616l0.5687866,1.3533783l0.5688477,1.3917542l0.5687866,1.4225006l0.5687866,1.444458l0.5687866,1.456665
		l0.5688477,1.4586182l0.5687866,1.4501953l0.5687866,1.4317932l0.5687866,1.4040833l0.5688477,1.3682098l0.5687866,1.3254852
		l0.5687866,1.277298l0.5687866,1.2251434l0.5688477,1.1703644l0.5687866,1.1142273l0.5687866,1.057785l0.5688477,1.0019379
		l0.5687866,0.9473419l0.5687866,0.8945618l0.5687866,0.8439484l0.5687866,0.7957611l0.5688477,0.7500916l0.5687866,0.707077
		l0.5687866,0.666626l0.5688477,0.6287231l0.5687866,0.5932617l0.5687866,0.5601807l0.5687866,0.5292969l0.5687866,0.5005035
		l0.5688477,0.4736938l0.5687866,0.4487l0.5687866,0.4253998l0.5688477,0.403717l0.5687866,0.3834534l0.5687866,0.3645782
		l0.5687866,0.3469543l0.5688477,0.3304596l0.5687866,0.315094l0.5687866,0.3006592l0.5687866,0.2871704l0.5688477,0.2745361
		l0.5687866,0.2626495l0.5687866,0.2515106l0.5687866,0.2410583l0.5688477,0.2311707l0.5687866,0.2219238l0.5687866,0.2131805
		l0.5688477,0.2049408l0.5687866,0.1971436l0.5687866,0.1898041l0.5687866,0.1828461l0.5687866,0.176239l0.5688477,0.1700287
		l0.5687866,0.1641235l0.5687866,0.158493l0.5687866,0.153183l0.5688477,0.1481171l0.5687866,0.1432953l0.5687866,0.1387024
		l0.5688477,0.1343536l0.5687866,0.1302032l0.5687866,0.1262207l0.5687866,0.1224213l0.5687866,0.1188202l0.5688477,0.1153717
		l0.5687866,0.1120453l0.5687866,0.108902l0.5688477,0.1058655l0.5687866,0.102951l0.5687866,0.1002045l0.5687866,0.0975037
		l0.5688477,0.0949402l0.5687866,0.092514l0.5687866,0.0901184l0.5687866,0.0878754l0.5688477,0.0856781l0.5687866,0.0835876
		l0.5687866,0.081543l0.5687866,0.0796051l0.5688477,0.0777435l0.5687866,0.0759277l0.5687866,0.074173l0.5687866,0.0724945
		l0.5688477,0.0708771l0.5687866,0.0692902l0.5687866,0.0677948l0.5687866,0.0663147l0.5688477,0.0648956l0.5687866,0.0635376
		l0.5687866,0.0621948l0.5687866,0.0609436l0.5688477,0.0596771l0.5687866,0.0584717l0.5687866,0.057312l0.5688477,0.0561829
		l0.5687866,0.0550842l0.5687866,0.0540314l0.5687866,0.0529785l0.5688477,0.052002l0.5687866,0.0510101l0.5687866,0.0500793
		l0.5687866,0.0491486l0.5688477,0.0482635l0.5687866,0.0474091l0.5687866,0.0465546l0.5687866,0.0457458l0.5688477,0.0449371
		l0.5687866,0.0441742l0.5687866,0.0434113l0.5687866,0.0426788l0.5688477,0.0419617l0.5687866,0.041275l0.5687866,0.0405884
		l0.5687866,0.039917l0.5688477,0.0392914"/>
</g>
<line class="st1" x1="626.9909058" y1="157.5538635" x2="629.2698364" y2="157.5538635"/>
<g>
	<text transform="matrix(0.99807 0 0 1 617.052124 162.6686249)" class="st8 st9">0</text>
</g>
<g>
	<text transform="matrix(0.99979 0 0 1 618.8008423 148.9755096)" class="st8 st4">0</text>
	<text transform="matrix(0.9485 0 -0.31617 0.9487 611.2890015 145.8455505)" class="st5 st15">ϕ</text>
</g>
<g>
	<text transform="matrix(0.94917 0 -0.31639 0.94863 615.512207 230.8478241)" class="st5 st16">π</text>
	<text transform="matrix(1.0005701 0 0 1 609.3129272 230.8587341)" class="st5 st17">−</text>
</g>
<g>
	<text transform="matrix(0.95554 0 -0.31851 0.94792 730.767334 242.1868896)" class="st5 st12">ω</text>
</g>
<g>
	<text transform="matrix(0.99807 0 0 1 428.718811 230.8412933)" class="st8 st9">0</text>
</g>
</svg>
