<?xml version="1.0" encoding="UTF-8" standalone="no"?>
<!-- Created with Inkscape (http://www.inkscape.org/) -->

<svg
   xmlns:dc="http://purl.org/dc/elements/1.1/"
   xmlns:cc="http://creativecommons.org/ns#"
   xmlns:rdf="http://www.w3.org/1999/02/22-rdf-syntax-ns#"
   xmlns:svg="http://www.w3.org/2000/svg"
   xmlns="http://www.w3.org/2000/svg"
   xmlns:sodipodi="http://sodipodi.sourceforge.net/DTD/sodipodi-0.dtd"
   xmlns:inkscape="http://www.inkscape.org/namespaces/inkscape"
   width="260"
   height="280"
   id="svg2"
   version="1.1"
   inkscape:version="0.48.2 r9819"
   sodipodi:docname="test4.svg">
  <defs
     id="defs4" />
  <sodipodi:namedview
     id="base"
     pagecolor="#ffffff"
     bordercolor="#666666"
     borderopacity="1.0"
     inkscape:pageopacity="0.0"
     inkscape:pageshadow="2"
     inkscape:zoom="1.3453125"
     inkscape:cx="225.49555"
     inkscape:cy="115.92228"
     inkscape:document-units="px"
     inkscape:current-layer="layer1"
     showgrid="true"
     gridtolerance="1"
     objecttolerance="1"
     guidetolerance="1"
     inkscape:window-width="1280"
     inkscape:window-height="661"
     inkscape:window-x="-8"
     inkscape:window-y="-8"
     inkscape:window-maximized="1">
    <inkscape:grid
       type="xygrid"
       id="grid2985"
       empspacing="5"
       visible="true"
       enabled="true"
       snapvisiblegridlinesonly="false"
       spacingx="10px"
       spacingy="10px" />
  </sodipodi:namedview>
  <metadata
     id="metadata7">
    <rdf:RDF>
      <cc:Work
         rdf:about="">
        <dc:format>image/svg+xml</dc:format>
        <dc:type
           rdf:resource="http://purl.org/dc/dcmitype/StillImage" />
        <dc:title></dc:title>
      </cc:Work>
    </rdf:RDF>
  </metadata>
  <g
     inkscape:label="Layer 1"
     inkscape:groupmode="layer"
     id="layer1"
     transform="translate(0,-772.36218)">
    <g
       id="g3262"
       transform="translate(1.912317,-1.2878275)">
      <path
         inkscape:connector-curvature="0"
         id="path5075"
         d="m 137.81928,1030.9192 c 0.81186,-211.36878 0.81186,-211.36878 0.81186,-211.36878"
         style="fill:none;stroke:#000000;stroke-width:0.99999994;stroke-linecap:butt;stroke-linejoin:miter;stroke-miterlimit:4;stroke-opacity:1;stroke-dasharray:3.99999999, 3.99999999;stroke-dashoffset:0" />
      <path
         sodipodi:nodetypes="cc"
         id="path3728-1-5"
         d="m 158.273,977.0772 c -5.09304,7.3633 -10.51848,9.3509 -20.10319,6.0868"
         style="fill:none;stroke:#000000;stroke-width:1;stroke-linecap:butt;stroke-miterlimit:4;stroke-opacity:1;stroke-dashoffset:0"
         inkscape:connector-curvature="0" />
      <path
         id="path3306"
         style="fill:none;stroke:#babdb6;stroke-width:3.10815001;stroke-linecap:round;stroke-linejoin:miter;stroke-miterlimit:4;stroke-opacity:1;stroke-dasharray:none"
         d="m 71.563425,833.39862 65.477315,86.28785"
         inkscape:connector-curvature="0" />
      <path
         id="path3354-9-61-6-7-0"
         style="fill:none;stroke:#204a87;stroke-width:1;stroke-linecap:butt;stroke-linejoin:miter;stroke-miterlimit:4;stroke-opacity:1;stroke-dasharray:none"
         d="M 43.683287,888.89508 130.66255,822.30402"
         inkscape:connector-curvature="0" />
      <path
         id="path3354-9-6-5-4"
         style="fill:none;stroke:#4e9a06;stroke-width:0.99999994;stroke-linecap:butt;stroke-linejoin:miter;stroke-miterlimit:4;stroke-opacity:1;stroke-dasharray:none"
         d="M 96.762062,992.62409 216.06899,946.39921"
         inkscape:connector-curvature="0" />
      <path
         id="path3354-9-6-5-4-7"
         style="fill:none;stroke:#4e9a06;stroke-width:0.99999994;stroke-linecap:butt;stroke-linejoin:miter;stroke-miterlimit:4;stroke-opacity:1;stroke-dasharray:none"
         d="M 87.399007,968.98547 206.70595,922.76057"
         inkscape:connector-curvature="0" />
      <path
         id="path3340"
         style="fill:none;stroke:#babdb6;stroke-width:3.10815001;stroke-linecap:round;stroke-linejoin:miter;stroke-miterlimit:4;stroke-opacity:1;stroke-dasharray:none"
         d="m 206.73193,924.15616 22.73823,59.01513"
         inkscape:connector-curvature="0" />
      <path
         inkscape:transform-center-x="-15.977611"
         id="path3354-9-61-6-7-0-61"
         style="fill:none;stroke:#204a87;stroke-width:1;stroke-linecap:butt;stroke-linejoin:miter;stroke-miterlimit:4;stroke-opacity:1;stroke-dasharray:none"
         d="m 138.11363,921.02693 43.48964,-33.29552"
         inkscape:connector-curvature="0" />
      <path
         id="path3354-9-61-6-7-0-7"
         style="fill:none;stroke:#204a87;stroke-width:1;stroke-linecap:butt;stroke-linejoin:miter;stroke-miterlimit:4;stroke-opacity:1;stroke-dasharray:none"
         d="M 68.952887,921.9429 155.93216,855.35184"
         inkscape:connector-curvature="0" />
      <path
         id="path3354-9-61-8"
         style="fill:none;stroke:#4e9a06;stroke-width:1;stroke-linecap:butt;stroke-linejoin:miter;stroke-miterlimit:4;stroke-opacity:1;stroke-dasharray:none"
         d="M 78.954637,946.01391 140,922.36218"
         inkscape:connector-curvature="0" />
      <path
         id="path3294"
         style="fill:none;stroke:#babdb6;stroke-width:3.10815001;stroke-linecap:round;stroke-linejoin:miter;stroke-miterlimit:4;stroke-opacity:1;stroke-dasharray:none"
         d="m 22.603843,861.97607 42.584868,55.81602"
         inkscape:connector-curvature="0" />
      <path
         id="path3298"
         style="fill:none;stroke:#babdb6;stroke-width:3.10815001;stroke-linecap:round;stroke-linejoin:miter;stroke-miterlimit:4;stroke-opacity:1;stroke-dasharray:none"
         d="m 111.47785,797.43489 91.9243,120.1859"
         inkscape:connector-curvature="0" />
      <path
         id="path3330"
         style="fill:none;stroke:#babdb6;stroke-width:3.10815001;stroke-linecap:round;stroke-linejoin:miter;stroke-miterlimit:4;stroke-opacity:1;stroke-dasharray:none"
         d="M 69.787867,925.75409 109.64911,1029.1294"
         inkscape:connector-curvature="0" />
      <path
         id="path3336"
         style="fill:none;stroke:#babdb6;stroke-width:3.10815001;stroke-linecap:round;stroke-linejoin:miter;stroke-miterlimit:4;stroke-opacity:1;stroke-dasharray:none"
         d="M 138.17333,923.55993 170,1006.4617"
         inkscape:connector-curvature="0" />
      <g
         transform="translate(-304.35335,68.82626)"
         id="g3054">
        <path
           inkscape:connector-curvature="0"
           d="m 325.8843,852.57708 208.99796,0"
           style="fill:none;stroke:#2e3436;stroke-width:1.77242911;stroke-linecap:butt;stroke-linejoin:miter;stroke-miterlimit:4;stroke-opacity:1;stroke-dasharray:none"
           id="path2281" />
        <path
           inkscape:connector-curvature="0"
           id="path30869"
           style="fill:#edd400;fill-opacity:1;fill-rule:evenodd;stroke:none"
           d="m 516.06394,852.36218 c 0.002,2.83348 -2.29474,5.13128 -5.12818,5.13128 -2.83343,0 -5.1299,-2.2978 -5.12817,-5.13128 -0.002,-2.83344 2.29474,-5.13132 5.12817,-5.13132 2.83344,0 5.12993,2.29788 5.12818,5.13132 z" />
        <path
           id="path29892"
           style="fill:#edd400;fill-opacity:1;fill-rule:evenodd;stroke:none"
           d="m 377.12839,853.53592 c 0.002,2.83344 -2.29474,5.13134 -5.12818,5.13134 -2.83344,0 -5.12991,-2.2979 -5.12817,-5.13134 -0.002,-2.83344 2.29473,-5.13132 5.12817,-5.13132 2.83344,0 5.12992,2.29788 5.12818,5.13132 z"
           inkscape:connector-curvature="0" />
        <path
           inkscape:connector-curvature="0"
           id="path30865"
           style="fill:#edd400;fill-opacity:1;fill-rule:evenodd;stroke:none"
           d="m 447.50169,852.36218 c 0.002,2.83348 -2.29474,5.13128 -5.12818,5.13128 -2.83344,0 -5.12991,-2.2978 -5.12817,-5.13128 -0.002,-2.83344 2.29473,-5.13132 5.12817,-5.13132 2.83344,0 5.12992,2.29788 5.12818,5.13132 z" />
      </g>
      <path
         id="path2285"
         style="fill:none;stroke:#204a87;stroke-width:3.10815001;stroke-linecap:butt;stroke-linejoin:miter;stroke-miterlimit:4;stroke-opacity:1;stroke-dasharray:6.2163, 3.10815;stroke-dashoffset:0"
         d="m 80,844.80217 37.72753,49.44951"
         inkscape:connector-curvature="0" />
      <path
         id="path11266"
         style="fill:#204a87;fill-opacity:1;fill-rule:evenodd;stroke:none"
         d="m 113.89952,896.5023 7.65041,-5.69711 2.60438,11.55699 -10.25479,-5.85988 z"
         inkscape:connector-curvature="0" />
      <path
         id="path9326"
         style="fill:none;stroke:#4e9a06;stroke-width:2.74845695;stroke-linecap:butt;stroke-linejoin:miter;stroke-miterlimit:4;stroke-opacity:1;stroke-dasharray:5.49691394, 2.74845697;stroke-dashoffset:0"
         d="m 145.56398,943.15059 20.65259,53.6444"
         inkscape:connector-curvature="0" />
      <path
         id="path11266-3"
         style="fill:#4e9a06;fill-opacity:1;fill-rule:evenodd;stroke:none"
         d="m 160.87296,995.48435 8.86424,-3.52292 -0.4755,11.83727 -8.38874,-8.31435 z"
         inkscape:connector-curvature="0" />
      <g
         id="flowRoot5555"
         style="font-size:24px;font-style:normal;font-weight:normal;line-height:125%;letter-spacing:0px;word-spacing:0px;fill:#000000;fill-opacity:1;stroke:none;font-family:Sans"
         transform="translate(85.72863,693.51111)">
        <path
           id="path3132"
           style="font-size:20px"
           d="m 25.960937,154.39702 c 0,-4.93489 1.555988,-7.40233 4.667969,-7.40235 3.111971,2e-5 4.667959,2.46746 4.667969,7.40235 -1e-5,4.92838 -1.555998,7.39257 -4.667969,7.39257 -3.111981,0 -4.667969,-2.46419 -4.667969,-7.39257 z m 1.816407,-0.71289 5.703125,0 c -0.06511,-2.03775 -0.358081,-3.42122 -0.878907,-4.15039 -0.52084,-0.72916 -1.184902,-1.09374 -1.992187,-1.09375 -1.81641,1e-5 -2.760419,1.74805 -2.832031,5.24414 z m 5.703125,1.41601 -5.703125,0 c 0.07161,3.4961 1.022131,5.24414 2.851562,5.24414 1.83593,0 2.78645,-1.74804 2.851563,-5.24414 z"
           inkscape:connector-curvature="0" />
        <path
           id="path3134"
           style="font-size:65.00091553%;baseline-shift:sub"
           d="m 41.038642,165.55522 -1.142594,0 0,-7.28086 c -0.275072,0.26238 -0.635835,0.52475 -1.08229,0.78712 -0.446461,0.26238 -0.847426,0.45916 -1.202898,0.59034 l 0,-1.10451 c 0.639004,-0.30045 1.197605,-0.66439 1.675805,-1.09181 0.478193,-0.42741 0.816739,-0.84213 1.015639,-1.24416 l 0.736338,0 z"
           inkscape:connector-curvature="0" />
      </g>
      <g
         id="flowRoot5555-0"
         style="font-size:24px;font-style:normal;font-weight:normal;line-height:125%;letter-spacing:0px;word-spacing:0px;fill:#000000;fill-opacity:1;stroke:none;font-family:Sans"
         transform="translate(117.50138,842.46915)">
        <path
           id="path3172"
           style="font-size:20px"
           d="m 25.960937,154.39702 c 0,-4.93489 1.555988,-7.40233 4.667969,-7.40235 3.111971,2e-5 4.667959,2.46746 4.667969,7.40235 -1e-5,4.92838 -1.555998,7.39257 -4.667969,7.39257 -3.111981,0 -4.667969,-2.46419 -4.667969,-7.39257 z m 1.816407,-0.71289 5.703125,0 c -0.06511,-2.03775 -0.358081,-3.42122 -0.878907,-4.15039 -0.52084,-0.72916 -1.184902,-1.09374 -1.992187,-1.09375 -1.81641,1e-5 -2.760419,1.74805 -2.832031,5.24414 z m 5.703125,1.41601 -5.703125,0 c 0.07161,3.4961 1.022131,5.24414 2.851562,5.24414 1.83593,0 2.78645,-1.74804 2.851563,-5.24414 z"
           inkscape:connector-curvature="0" />
        <path
           id="path3174"
           style="font-size:65.00091553%;baseline-shift:sub"
           d="m 42.739838,164.45706 0,1.09816 -6.150965,0 c -0.0085,-0.27507 0.03597,-0.53956 0.133302,-0.79347 0.156577,-0.41895 0.407313,-0.83155 0.752208,-1.23781 0.344893,-0.40625 0.84319,-0.87599 1.494894,-1.4092 1.011404,-0.82943 1.694844,-1.48642 2.050322,-1.97097 0.355469,-0.48454 0.533205,-0.94264 0.533211,-1.37429 -6e-6,-0.4528 -0.161873,-0.83472 -0.485603,-1.14577 -0.323739,-0.31103 -0.745864,-0.46655 -1.266375,-0.46656 -0.550141,1e-5 -0.990251,0.16505 -1.320331,0.49513 -0.330085,0.33009 -0.497242,0.78712 -0.501472,1.37111 l -1.174333,-0.12061 c 0.0804,-0.87598 0.38298,-1.54355 0.907728,-2.00271 0.524745,-0.45915 1.229344,-0.68872 2.113799,-0.68873 0.892912,1e-5 1.599627,0.24757 2.120147,0.74268 0.520509,0.49514 0.780766,1.10875 0.780773,1.84085 -7e-6,0.37241 -0.07618,0.73846 -0.228519,1.09816 -0.152352,0.35971 -0.405204,0.73846 -0.758556,1.13625 -0.353363,0.39779 -0.940529,0.9437 -1.761499,1.63772 -0.68556,0.57553 -1.12567,0.96591 -1.320331,1.17115 -0.194667,0.20525 -0.355476,0.41155 -0.482429,0.61891 z"
           inkscape:connector-curvature="0" />
      </g>
      <g
         id="flowRoot5555-2-8-4"
         style="font-size:24px;font-style:normal;font-weight:normal;line-height:125%;letter-spacing:0px;word-spacing:0px;fill:#000000;fill-opacity:1;stroke:none;font-family:Sans"
         transform="translate(138.23144,691.15243)">
        <path
           id="path3117"
           style="font-size:14px"
           d="m 26.087891,156.54178 0,-10.02149 3.759765,0 c 0.76562,1e-5 1.379714,0.10141 1.842285,0.3042 0.462558,0.20281 0.824863,0.51499 1.086914,0.93653 0.262037,0.42155 0.393059,0.86247 0.393067,1.32275 -8e-6,0.42839 -0.116219,0.83171 -0.348633,1.20996 -0.232429,0.37826 -0.58334,0.6836 -1.052734,0.91602 0.606112,0.17774 1.072095,0.4808 1.397949,0.90918 0.325838,0.42839 0.488761,0.93425 0.488769,1.51758 -8e-6,0.4694 -0.09913,0.90576 -0.297363,1.30908 -0.19825,0.40332 -0.443204,0.71435 -0.734863,0.9331 -0.291674,0.21875 -0.657396,0.38395 -1.097168,0.49561 -0.439785,0.11165 -0.978684,0.16748 -1.616699,0.16748 z m 1.326171,-5.81055 2.166993,0 c 0.587885,1e-5 1.009434,-0.0387 1.264648,-0.11621 0.337234,-0.10025 0.591302,-0.26659 0.762207,-0.49902 0.170892,-0.23242 0.256341,-0.52408 0.256348,-0.875 -7e-6,-0.33268 -0.07976,-0.62548 -0.239258,-0.87842 -0.159512,-0.25292 -0.387376,-0.4261 -0.683594,-0.51953 -0.296229,-0.0934 -0.804367,-0.14013 -1.524414,-0.14014 l -2.00293,0 z m 0,4.62793 2.495118,0 c 0.42838,0 0.729161,-0.016 0.902343,-0.0479 0.305333,-0.0547 0.560541,-0.14583 0.765625,-0.27344 0.205072,-0.1276 0.373691,-0.31331 0.50586,-0.55713 0.132154,-0.24381 0.198235,-0.52522 0.198242,-0.84423 -7e-6,-0.3737 -0.09571,-0.69841 -0.287109,-0.97413 -0.191413,-0.27571 -0.456875,-0.46939 -0.796387,-0.58105 -0.339524,-0.11165 -0.828293,-0.16748 -1.466309,-0.16748 l -2.317383,0 z"
           inkscape:connector-curvature="0" />
        <path
           id="path3119"
           style="font-size:65.00091553%;baseline-shift:sub"
           d="m 39.257392,160.54178 -1.142594,0 0,-7.28087 c -0.275072,0.26238 -0.635835,0.52476 -1.08229,0.78712 -0.446461,0.26238 -0.847426,0.45916 -1.202898,0.59035 l 0,-1.10451 c 0.639004,-0.30046 1.197605,-0.66439 1.675805,-1.09181 0.478193,-0.42741 0.816739,-0.84213 1.015639,-1.24416 l 0.736338,0 z"
           inkscape:connector-curvature="0" />
      </g>
      <g
         id="flowRoot5555-2-8-4-1"
         style="font-size:24px;font-style:normal;font-weight:normal;line-height:125%;letter-spacing:0px;word-spacing:0px;fill:#000000;fill-opacity:1;stroke:none;font-family:Sans"
         transform="translate(161.80268,724.70863)">
        <path
           id="path3122"
           style="font-size:14px"
           d="m 26.087891,156.54178 0,-10.02149 3.759765,0 c 0.76562,1e-5 1.379714,0.10141 1.842285,0.3042 0.462558,0.20281 0.824863,0.51499 1.086914,0.93653 0.262037,0.42155 0.393059,0.86247 0.393067,1.32275 -8e-6,0.42839 -0.116219,0.83171 -0.348633,1.20996 -0.232429,0.37826 -0.58334,0.6836 -1.052734,0.91602 0.606112,0.17774 1.072095,0.4808 1.397949,0.90918 0.325838,0.42839 0.488761,0.93425 0.488769,1.51758 -8e-6,0.4694 -0.09913,0.90576 -0.297363,1.30908 -0.19825,0.40332 -0.443204,0.71435 -0.734863,0.9331 -0.291674,0.21875 -0.657396,0.38395 -1.097168,0.49561 -0.439785,0.11165 -0.978684,0.16748 -1.616699,0.16748 z m 1.326171,-5.81055 2.166993,0 c 0.587885,1e-5 1.009434,-0.0387 1.264648,-0.11621 0.337234,-0.10025 0.591302,-0.26659 0.762207,-0.49902 0.170892,-0.23242 0.256341,-0.52408 0.256348,-0.875 -7e-6,-0.33268 -0.07976,-0.62548 -0.239258,-0.87842 -0.159512,-0.25292 -0.387376,-0.4261 -0.683594,-0.51953 -0.296229,-0.0934 -0.804367,-0.14013 -1.524414,-0.14014 l -2.00293,0 z m 0,4.62793 2.495118,0 c 0.42838,0 0.729161,-0.016 0.902343,-0.0479 0.305333,-0.0547 0.560541,-0.14583 0.765625,-0.27344 0.205072,-0.1276 0.373691,-0.31331 0.50586,-0.55713 0.132154,-0.24381 0.198235,-0.52522 0.198242,-0.84423 -7e-6,-0.3737 -0.09571,-0.69841 -0.287109,-0.97413 -0.191413,-0.27571 -0.456875,-0.46939 -0.796387,-0.58105 -0.339524,-0.11165 -0.828293,-0.16748 -1.466309,-0.16748 l -2.317383,0 z"
           inkscape:connector-curvature="0" />
        <path
           id="path3124"
           style="font-size:65.00091553%;baseline-shift:sub"
           d="m 40.958588,159.44362 0,1.09816 -6.150965,0 c -0.0085,-0.27507 0.03597,-0.53956 0.133302,-0.79347 0.156577,-0.41895 0.407313,-0.83155 0.752208,-1.23781 0.344893,-0.40625 0.84319,-0.87599 1.494894,-1.4092 1.011404,-0.82943 1.694844,-1.48642 2.050322,-1.97097 0.355469,-0.48454 0.533205,-0.94264 0.533211,-1.37429 -6e-6,-0.4528 -0.161873,-0.83472 -0.485603,-1.14577 -0.323739,-0.31103 -0.745864,-0.46655 -1.266375,-0.46656 -0.550141,1e-5 -0.990251,0.16505 -1.320331,0.49513 -0.330085,0.33009 -0.497242,0.78712 -0.501472,1.37111 l -1.174333,-0.12061 c 0.0804,-0.87598 0.38298,-1.54355 0.907728,-2.00271 0.524745,-0.45915 1.229344,-0.68872 2.113799,-0.68873 0.892912,1e-5 1.599627,0.24757 2.120147,0.74268 0.520509,0.49514 0.780766,1.10875 0.780773,1.84085 -7e-6,0.37241 -0.07618,0.73846 -0.228519,1.09816 -0.152352,0.35971 -0.405204,0.73846 -0.758556,1.13625 -0.353363,0.39779 -0.940529,0.9437 -1.761499,1.63771 -0.68556,0.57554 -1.12567,0.96592 -1.320331,1.17116 -0.194667,0.20525 -0.355476,0.41155 -0.482429,0.61891 z"
           inkscape:connector-curvature="0" />
      </g>
      <g
         id="flowRoot5555-2-8-4-1-8"
         style="font-size:24px;font-style:normal;font-weight:normal;line-height:125%;letter-spacing:0px;word-spacing:0px;fill:#000000;fill-opacity:1;stroke:none;font-family:Sans"
         transform="translate(183.32933,754.73016)">
        <path
           id="path3127"
           style="font-size:14px"
           d="m 26.087891,156.54178 0,-10.02149 3.759765,0 c 0.76562,1e-5 1.379714,0.10141 1.842285,0.3042 0.462558,0.20281 0.824863,0.51499 1.086914,0.93653 0.262037,0.42155 0.393059,0.86247 0.393067,1.32275 -8e-6,0.42839 -0.116219,0.83171 -0.348633,1.20996 -0.232429,0.37826 -0.58334,0.6836 -1.052734,0.91602 0.606112,0.17774 1.072095,0.4808 1.397949,0.90918 0.325838,0.42839 0.488761,0.93425 0.488769,1.51758 -8e-6,0.4694 -0.09913,0.90576 -0.297363,1.30908 -0.19825,0.40332 -0.443204,0.71435 -0.734863,0.9331 -0.291674,0.21875 -0.657396,0.38395 -1.097168,0.49561 -0.439785,0.11165 -0.978684,0.16748 -1.616699,0.16748 z m 1.326171,-5.81055 2.166993,0 c 0.587885,1e-5 1.009434,-0.0387 1.264648,-0.11621 0.337234,-0.10025 0.591302,-0.26659 0.762207,-0.49902 0.170892,-0.23242 0.256341,-0.52408 0.256348,-0.875 -7e-6,-0.33268 -0.07976,-0.62548 -0.239258,-0.87842 -0.159512,-0.25292 -0.387376,-0.4261 -0.683594,-0.51953 -0.296229,-0.0934 -0.804367,-0.14013 -1.524414,-0.14014 l -2.00293,0 z m 0,4.62793 2.495118,0 c 0.42838,0 0.729161,-0.016 0.902343,-0.0479 0.305333,-0.0547 0.560541,-0.14583 0.765625,-0.27344 0.205072,-0.1276 0.373691,-0.31331 0.50586,-0.55713 0.132154,-0.24381 0.198235,-0.52522 0.198242,-0.84423 -7e-6,-0.3737 -0.09571,-0.69841 -0.287109,-0.97413 -0.191413,-0.27571 -0.456875,-0.46939 -0.796387,-0.58105 -0.339524,-0.11165 -0.828293,-0.16748 -1.466309,-0.16748 l -2.317383,0 z"
           inkscape:connector-curvature="0" />
        <path
           id="path3129"
           style="font-size:65.00091553%;baseline-shift:sub"
           d="m 34.959969,158.0852 1.142594,-0.15234 c 0.131185,0.64747 0.354414,1.11403 0.669687,1.39967 0.315269,0.28565 0.699307,0.42848 1.152116,0.42848 0.537438,0 0.991302,-0.1862 1.361591,-0.55861 0.37028,-0.3724 0.555423,-0.83366 0.555428,-1.3838 -5e-6,-0.52475 -0.171394,-0.95745 -0.514167,-1.29812 -0.342783,-0.34066 -0.778661,-0.51099 -1.307636,-0.51099 -0.215827,0 -0.484548,0.0423 -0.806164,0.12695 l 0.126955,-1.00294 c 0.07617,0.008 0.137532,0.0127 0.184085,0.0127 0.486657,1e-5 0.924651,-0.12694 1.313983,-0.38086 0.389324,-0.2539 0.583988,-0.64535 0.583993,-1.17433 -5e-6,-0.41895 -0.141771,-0.76596 -0.425299,-1.04103 -0.283537,-0.27506 -0.64959,-0.4126 -1.09816,-0.41261 -0.444345,1e-5 -0.81463,0.13966 -1.110856,0.41895 -0.29623,0.27931 -0.486662,0.69826 -0.571297,1.25686 l -1.142594,-0.20313 c 0.13965,-0.76595 0.457037,-1.35947 0.952162,-1.78054 0.495122,-0.42106 1.110853,-0.63159 1.847194,-0.6316 0.507816,1e-5 0.975432,0.10898 1.402852,0.32691 0.427409,0.21794 0.754318,0.51523 0.980726,0.89185 0.226397,0.37664 0.339599,0.77655 0.339605,1.19973 -6e-6,0.40203 -0.107918,0.76808 -0.323735,1.09816 -0.215829,0.33009 -0.535332,0.59246 -0.95851,0.78712 0.550133,0.12696 0.977547,0.39039 1.282245,0.79029 0.304685,0.39991 0.457031,0.90033 0.457037,1.50124 -6e-6,0.81252 -0.296234,1.50125 -0.888684,2.0662 -0.592461,0.56495 -1.341495,0.84742 -2.247102,0.84742 -0.816746,0 -1.494896,-0.24333 -2.034452,-0.72999 -0.53956,-0.48666 -0.847425,-1.1172 -0.923597,-1.89163 z"
           inkscape:connector-curvature="0" />
      </g>
      <g
         id="flowRoot5555-2-8-4-17"
         style="font-size:24px;font-style:normal;font-weight:normal;line-height:125%;letter-spacing:0px;word-spacing:0px;fill:#000000;fill-opacity:1;stroke:none;font-family:Sans"
         transform="translate(-5.473914,652.8921)">
        <path
           id="path3107"
           style="font-size:14px"
           d="m 25.985352,156.54178 0,-7.25977 1.107421,0 0,1.03223 c 0.533201,-0.79752 1.303383,-1.19628 2.310547,-1.19629 0.437496,1e-5 0.839676,0.0786 1.206543,0.23584 0.366856,0.15723 0.641433,0.36345 0.823731,0.61865 0.182285,0.25522 0.309889,0.55828 0.382812,0.90918 0.04557,0.22787 0.06835,0.62664 0.06836,1.19629 l 0,4.46387 -1.230469,0 0,-4.41602 c -6e-6,-0.50129 -0.04786,-0.87613 -0.143555,-1.12451 -0.09571,-0.24837 -0.265467,-0.44661 -0.509277,-0.59473 -0.24382,-0.1481 -0.52979,-0.22216 -0.85791,-0.22216 -0.524092,0 -0.976403,0.16634 -1.356934,0.49902 -0.380536,0.33269 -0.570803,0.96387 -0.570801,1.89355 l 0,3.96485 z"
           inkscape:connector-curvature="0" />
        <path
           id="path3109"
           style="font-size:65.00091553%;baseline-shift:sub"
           d="m 37.698799,160.54178 -1.142595,0 0,-7.28087 c -0.275072,0.26238 -0.635835,0.52476 -1.08229,0.78712 -0.44646,0.26238 -0.847426,0.45916 -1.202898,0.59035 l 0,-1.10451 c 0.639004,-0.30046 1.197605,-0.66439 1.675805,-1.09181 0.478193,-0.42741 0.816739,-0.84213 1.015639,-1.24416 l 0.736339,0 z"
           inkscape:connector-curvature="0" />
      </g>
      <g
         id="flowRoot5555-2-8-4-7"
         style="font-size:24px;font-style:normal;font-weight:normal;line-height:125%;letter-spacing:0px;word-spacing:0px;fill:#000000;fill-opacity:1;stroke:none;font-family:Sans"
         transform="translate(120.32048,662.21079)">
        <path
           id="path3112"
           style="font-size:14px"
           d="m 26.087891,156.54178 0,-10.02149 3.759765,0 c 0.76562,1e-5 1.379714,0.10141 1.842285,0.3042 0.462558,0.20281 0.824863,0.51499 1.086914,0.93653 0.262037,0.42155 0.393059,0.86247 0.393067,1.32275 -8e-6,0.42839 -0.116219,0.83171 -0.348633,1.20996 -0.232429,0.37826 -0.58334,0.6836 -1.052734,0.91602 0.606112,0.17774 1.072095,0.4808 1.397949,0.90918 0.325838,0.42839 0.488761,0.93425 0.488769,1.51758 -8e-6,0.4694 -0.09913,0.90576 -0.297363,1.30908 -0.19825,0.40332 -0.443204,0.71435 -0.734863,0.9331 -0.291674,0.21875 -0.657396,0.38395 -1.097168,0.49561 -0.439785,0.11165 -0.978684,0.16748 -1.616699,0.16748 z m 1.326171,-5.81055 2.166993,0 c 0.587885,1e-5 1.009434,-0.0387 1.264648,-0.11621 0.337234,-0.10025 0.591302,-0.26659 0.762207,-0.49902 0.170892,-0.23242 0.256341,-0.52408 0.256348,-0.875 -7e-6,-0.33268 -0.07976,-0.62548 -0.239258,-0.87842 -0.159512,-0.25292 -0.387376,-0.4261 -0.683594,-0.51953 -0.296229,-0.0934 -0.804367,-0.14013 -1.524414,-0.14014 l -2.00293,0 z m 0,4.62793 2.495118,0 c 0.42838,0 0.729161,-0.016 0.902343,-0.0479 0.305333,-0.0547 0.560541,-0.14583 0.765625,-0.27344 0.205072,-0.1276 0.373691,-0.31331 0.50586,-0.55713 0.132154,-0.24381 0.198235,-0.52522 0.198242,-0.84423 -7e-6,-0.3737 -0.09571,-0.69841 -0.287109,-0.97413 -0.191413,-0.27571 -0.456875,-0.46939 -0.796387,-0.58105 -0.339524,-0.11165 -0.828293,-0.16748 -1.466309,-0.16748 l -2.317383,0 z"
           inkscape:connector-curvature="0" />
        <path
           id="path3114"
           style="font-size:65.00091553%;baseline-shift:sub"
           d="m 34.953621,155.95236 c -10e-7,-1.10027 0.113201,-1.98578 0.339604,-2.65653 0.226402,-0.67074 0.562832,-1.18808 1.009292,-1.55203 0.446456,-0.36393 1.008231,-0.54589 1.685326,-0.5459 0.499352,1e-5 0.937346,0.10051 1.313984,0.30151 0.376627,0.20103 0.687667,0.49091 0.933118,0.86965 0.24544,0.37875 0.437988,0.84002 0.577645,1.3838 0.139644,0.5438 0.209469,1.27697 0.209476,2.1995 -7e-6,1.09181 -0.11215,1.97309 -0.336431,2.64383 -0.224293,0.67075 -0.559665,1.18915 -1.006117,1.5552 -0.446463,0.36606 -1.010354,0.54908 -1.691675,0.54908 -0.89715,0 -1.601749,-0.32162 -2.113799,-0.96486 -0.613616,-0.77442 -0.920424,-2.0355 -0.920423,-3.78325 z m 1.174333,0 c -2e-6,1.52769 0.178793,2.54439 0.536384,3.05009 0.357587,0.50571 0.798755,0.75856 1.323505,0.75856 0.524743,0 0.965911,-0.25391 1.323505,-0.76173 0.357585,-0.50782 0.536379,-1.52346 0.536385,-3.04692 -6e-6,-1.53192 -0.1788,-2.54967 -0.536385,-3.05327 -0.357594,-0.50358 -0.802994,-0.75537 -1.3362,-0.75538 -0.52475,1e-5 -0.943701,0.22218 -1.256854,0.66651 -0.393562,0.56708 -0.590342,1.61445 -0.59034,3.14214 z"
           inkscape:connector-curvature="0" />
      </g>
      <g
         id="flowRoot5555-2-8-4-6"
         style="font-size:24px;font-style:normal;font-weight:normal;line-height:125%;letter-spacing:0px;word-spacing:0px;fill:#000000;fill-opacity:1;stroke:none;font-family:Sans"
         transform="translate(194.64821,792.06845)">
        <path
           id="path3177"
           style="font-size:14px"
           d="m 26.087891,156.54178 0,-10.02149 3.759765,0 c 0.76562,1e-5 1.379714,0.10141 1.842285,0.3042 0.462558,0.20281 0.824863,0.51499 1.086914,0.93653 0.262037,0.42155 0.393059,0.86247 0.393067,1.32275 -8e-6,0.42839 -0.116219,0.83171 -0.348633,1.20996 -0.232429,0.37826 -0.58334,0.6836 -1.052734,0.91602 0.606112,0.17774 1.072095,0.4808 1.397949,0.90918 0.325838,0.42839 0.488761,0.93425 0.488769,1.51758 -8e-6,0.4694 -0.09913,0.90576 -0.297363,1.30908 -0.19825,0.40332 -0.443204,0.71435 -0.734863,0.9331 -0.291674,0.21875 -0.657396,0.38395 -1.097168,0.49561 -0.439785,0.11165 -0.978684,0.16748 -1.616699,0.16748 z m 1.326171,-5.81055 2.166993,0 c 0.587885,1e-5 1.009434,-0.0387 1.264648,-0.11621 0.337234,-0.10025 0.591302,-0.26659 0.762207,-0.49902 0.170892,-0.23242 0.256341,-0.52408 0.256348,-0.875 -7e-6,-0.33268 -0.07976,-0.62548 -0.239258,-0.87842 -0.159512,-0.25292 -0.387376,-0.4261 -0.683594,-0.51953 -0.296229,-0.0934 -0.804367,-0.14013 -1.524414,-0.14014 l -2.00293,0 z m 0,4.62793 2.495118,0 c 0.42838,0 0.729161,-0.016 0.902343,-0.0479 0.305333,-0.0547 0.560541,-0.14583 0.765625,-0.27344 0.205072,-0.1276 0.373691,-0.31331 0.50586,-0.55713 0.132154,-0.24381 0.198235,-0.52522 0.198242,-0.84423 -7e-6,-0.3737 -0.09571,-0.69841 -0.287109,-0.97413 -0.191413,-0.27571 -0.456875,-0.46939 -0.796387,-0.58105 -0.339524,-0.11165 -0.828293,-0.16748 -1.466309,-0.16748 l -2.317383,0 z"
           inkscape:connector-curvature="0" />
        <path
           id="path3179"
           style="font-size:65.00091553%;baseline-shift:sub"
           d="m 38.61627,160.54178 0,-2.22806 -4.037166,0 0,-1.04738 4.246642,-6.03036 0.933118,0 0,6.03036 1.256854,0 0,1.04738 -1.256854,0 0,2.22806 z m 0,-3.27544 0,-4.19586 -2.913615,4.19586 z"
           inkscape:connector-curvature="0" />
      </g>
      <path
         sodipodi:nodetypes="cc"
         id="path3728-1"
         d="m 104.41029,873.69106 c 7.38651,-12.96527 16.1058,-17.05354 32.49363,-13.02633"
         style="fill:none;stroke:#000000;stroke-width:1;stroke-linecap:butt;stroke-miterlimit:4;stroke-opacity:1;stroke-dashoffset:0"
         inkscape:connector-curvature="0" />
      <path
         sodipodi:nodetypes="cc"
         id="path3728-1-1"
         d="m 91.57885,903.97846 c 5.51311,4.57233 6.7189,9.03477 3.44927,16.44574"
         style="fill:none;stroke:#000000;stroke-width:1;stroke-linecap:butt;stroke-miterlimit:4;stroke-opacity:1;stroke-dashoffset:0"
         inkscape:connector-curvature="0" />
      <path
         sodipodi:nodetypes="cc"
         id="path3728-1-5-6"
         d="m 173.3275,935.22822 c -4.71249,-3.25953 -5.9846,-6.73183 -3.89558,-12.86604"
         style="fill:none;stroke:#000000;stroke-width:1;stroke-linecap:butt;stroke-miterlimit:4;stroke-opacity:1;stroke-dashoffset:0"
         inkscape:connector-curvature="0" />
      <g
         id="flowRoot5555-2"
         style="font-size:24px;font-style:normal;font-weight:normal;line-height:125%;letter-spacing:0px;word-spacing:0px;fill:#000000;fill-opacity:1;stroke:none;font-family:Sans"
         transform="translate(75.808163,752.0179)">
        <path
           id="path3137"
           style="font-size:20px"
           d="m 25.960937,154.39702 c 0,-4.93489 1.555988,-7.40233 4.667969,-7.40235 3.111971,2e-5 4.667959,2.46746 4.667969,7.40235 -1e-5,4.92838 -1.555998,7.39257 -4.667969,7.39257 -3.111981,0 -4.667969,-2.46419 -4.667969,-7.39257 z m 1.816407,-0.71289 5.703125,0 c -0.06511,-2.03775 -0.358081,-3.42122 -0.878907,-4.15039 -0.52084,-0.72916 -1.184902,-1.09374 -1.992187,-1.09375 -1.81641,1e-5 -2.760419,1.74805 -2.832031,5.24414 z m 5.703125,1.41601 -5.703125,0 c 0.07161,3.4961 1.022131,5.24414 2.851562,5.24414 1.83593,0 2.78645,-1.74804 2.851563,-5.24414 z"
           inkscape:connector-curvature="0" />
        <path
           id="path3139"
           style="font-size:65.00091553%;baseline-shift:sub"
           d="m 41.038642,165.55522 -1.142594,0 0,-7.28086 c -0.275072,0.26238 -0.635835,0.52475 -1.08229,0.78712 -0.446461,0.26238 -0.847426,0.45916 -1.202898,0.59034 l 0,-1.10451 c 0.639004,-0.30045 1.197605,-0.66439 1.675805,-1.09181 0.478193,-0.42741 0.816739,-0.84213 1.015639,-1.24416 l 0.736338,0 z"
           inkscape:connector-curvature="0" />
      </g>
      <path
         id="path3354-9-6-5-4-2-4-7"
         style="fill:none;stroke:#ffffff;stroke-width:2;stroke-linecap:butt;stroke-linejoin:miter;stroke-miterlimit:4;stroke-opacity:1;stroke-dasharray:none"
         d="m 151.32969,943.87458 17.89605,-6.93374"
         inkscape:connector-curvature="0" />
      <g
         id="flowRoot5555-0-0"
         style="font-size:24px;font-style:normal;font-weight:normal;line-height:125%;letter-spacing:0px;word-spacing:0px;fill:#000000;fill-opacity:1;stroke:none;font-family:Sans"
         transform="translate(124.38318,780.57259)">
        <path
           id="path3152"
           style="font-size:20px"
           d="m 25.960937,154.39702 c 0,-4.93489 1.555988,-7.40233 4.667969,-7.40235 3.111971,2e-5 4.667959,2.46746 4.667969,7.40235 -1e-5,4.92838 -1.555998,7.39257 -4.667969,7.39257 -3.111981,0 -4.667969,-2.46419 -4.667969,-7.39257 z m 1.816407,-0.71289 5.703125,0 c -0.06511,-2.03775 -0.358081,-3.42122 -0.878907,-4.15039 -0.52084,-0.72916 -1.184902,-1.09374 -1.992187,-1.09375 -1.81641,1e-5 -2.760419,1.74805 -2.832031,5.24414 z m 5.703125,1.41601 -5.703125,0 c 0.07161,3.4961 1.022131,5.24414 2.851562,5.24414 1.83593,0 2.78645,-1.74804 2.851563,-5.24414 z"
           inkscape:connector-curvature="0" />
        <path
           id="path3154"
           style="font-size:65.00091553%;baseline-shift:sub"
           d="m 42.739838,164.45706 0,1.09816 -6.150965,0 c -0.0085,-0.27507 0.03597,-0.53956 0.133302,-0.79347 0.156577,-0.41895 0.407313,-0.83155 0.752208,-1.23781 0.344893,-0.40625 0.84319,-0.87599 1.494894,-1.4092 1.011404,-0.82943 1.694844,-1.48642 2.050322,-1.97097 0.355469,-0.48454 0.533205,-0.94264 0.533211,-1.37429 -6e-6,-0.4528 -0.161873,-0.83472 -0.485603,-1.14577 -0.323739,-0.31103 -0.745864,-0.46655 -1.266375,-0.46656 -0.550141,1e-5 -0.990251,0.16505 -1.320331,0.49513 -0.330085,0.33009 -0.497242,0.78712 -0.501472,1.37111 l -1.174333,-0.12061 c 0.0804,-0.87598 0.38298,-1.54355 0.907728,-2.00271 0.524745,-0.45915 1.229344,-0.68872 2.113799,-0.68873 0.892912,1e-5 1.599627,0.24757 2.120147,0.74268 0.520509,0.49514 0.780766,1.10875 0.780773,1.84085 -7e-6,0.37241 -0.07618,0.73846 -0.228519,1.09816 -0.152352,0.35971 -0.405204,0.73846 -0.758556,1.13625 -0.353363,0.39779 -0.940529,0.9437 -1.761499,1.63772 -0.68556,0.57553 -1.12567,0.96591 -1.320331,1.17115 -0.194667,0.20525 -0.355476,0.41155 -0.482429,0.61891 z"
           inkscape:connector-curvature="0" />
      </g>
      <g
         id="flowRoot5555-2-8-4-2-8"
         style="font-size:24px;font-style:normal;font-weight:normal;line-height:125%;letter-spacing:0px;word-spacing:0px;fill:#000000;fill-opacity:1;stroke:none;font-family:Sans"
         transform="translate(31.483745,803.79672)">
        <path
           id="path3157"
           style="font-size:14px"
           d="m 25.041992,156.54178 3.848633,-10.02149 1.428711,0 4.101562,10.02149 -1.510742,0 -1.168945,-3.03516 -4.19043,0 -1.100586,3.03516 z m 2.891602,-4.11524 3.397461,0 -1.045899,-2.77539 c -0.319015,-0.84309 -0.555994,-1.5358 -0.710937,-2.07812 -0.127609,0.64259 -0.307622,1.28061 -0.540039,1.91406 z"
           inkscape:connector-curvature="0" />
        <path
           id="path3159"
           style="font-size:65.00091553%;baseline-shift:sub"
           d="m 40.958588,159.44362 0,1.09816 -6.150965,0 c -0.0085,-0.27507 0.03597,-0.53956 0.133302,-0.79347 0.156577,-0.41895 0.407313,-0.83155 0.752208,-1.23781 0.344893,-0.40625 0.84319,-0.87599 1.494894,-1.4092 1.011404,-0.82943 1.694844,-1.48642 2.050322,-1.97097 0.355469,-0.48454 0.533205,-0.94264 0.533211,-1.37429 -6e-6,-0.4528 -0.161873,-0.83472 -0.485603,-1.14577 -0.323739,-0.31103 -0.745864,-0.46655 -1.266375,-0.46656 -0.550141,1e-5 -0.990251,0.16505 -1.320331,0.49513 -0.330085,0.33009 -0.497242,0.78712 -0.501472,1.37111 l -1.174333,-0.12061 c 0.0804,-0.87598 0.38298,-1.54355 0.907728,-2.00271 0.524745,-0.45915 1.229344,-0.68872 2.113799,-0.68873 0.892912,1e-5 1.599627,0.24757 2.120147,0.74268 0.520509,0.49514 0.780766,1.10875 0.780773,1.84085 -7e-6,0.37241 -0.07618,0.73846 -0.228519,1.09816 -0.152352,0.35971 -0.405204,0.73846 -0.758556,1.13625 -0.353363,0.39779 -0.940529,0.9437 -1.761499,1.63771 -0.68556,0.57554 -1.12567,0.96592 -1.320331,1.17116 -0.194667,0.20525 -0.355476,0.41155 -0.482429,0.61891 z"
           inkscape:connector-curvature="0" />
      </g>
      <g
         id="flowRoot5555-2-8-4-2-9"
         style="font-size:24px;font-style:normal;font-weight:normal;line-height:125%;letter-spacing:0px;word-spacing:0px;fill:#000000;fill-opacity:1;stroke:none;font-family:Sans"
         transform="translate(38.673775,826.22574)">
        <path
           id="path3162"
           style="font-size:14px"
           d="m 25.041992,156.54178 3.848633,-10.02149 1.428711,0 4.101562,10.02149 -1.510742,0 -1.168945,-3.03516 -4.19043,0 -1.100586,3.03516 z m 2.891602,-4.11524 3.397461,0 -1.045899,-2.77539 c -0.319015,-0.84309 -0.555994,-1.5358 -0.710937,-2.07812 -0.127609,0.64259 -0.307622,1.28061 -0.540039,1.91406 z"
           inkscape:connector-curvature="0" />
        <path
           id="path3164"
           style="font-size:65.00091553%;baseline-shift:sub"
           d="m 34.959969,158.0852 1.142594,-0.15234 c 0.131185,0.64747 0.354414,1.11403 0.669687,1.39967 0.315269,0.28565 0.699307,0.42848 1.152116,0.42848 0.537438,0 0.991302,-0.1862 1.361591,-0.55861 0.37028,-0.3724 0.555423,-0.83366 0.555428,-1.3838 -5e-6,-0.52475 -0.171394,-0.95745 -0.514167,-1.29812 -0.342783,-0.34066 -0.778661,-0.51099 -1.307636,-0.51099 -0.215827,0 -0.484548,0.0423 -0.806164,0.12695 l 0.126955,-1.00294 c 0.07617,0.008 0.137532,0.0127 0.184085,0.0127 0.486657,1e-5 0.924651,-0.12694 1.313983,-0.38086 0.389324,-0.2539 0.583988,-0.64535 0.583993,-1.17433 -5e-6,-0.41895 -0.141771,-0.76596 -0.425299,-1.04103 -0.283537,-0.27506 -0.64959,-0.4126 -1.09816,-0.41261 -0.444345,1e-5 -0.81463,0.13966 -1.110856,0.41895 -0.29623,0.27931 -0.486662,0.69826 -0.571297,1.25686 l -1.142594,-0.20313 c 0.13965,-0.76595 0.457037,-1.35947 0.952162,-1.78054 0.495122,-0.42106 1.110853,-0.63159 1.847194,-0.6316 0.507816,1e-5 0.975432,0.10898 1.402852,0.32691 0.427409,0.21794 0.754318,0.51523 0.980726,0.89185 0.226397,0.37664 0.339599,0.77655 0.339605,1.19973 -6e-6,0.40203 -0.107918,0.76808 -0.323735,1.09816 -0.215829,0.33009 -0.535332,0.59246 -0.95851,0.78712 0.550133,0.12696 0.977547,0.39039 1.282245,0.79029 0.304685,0.39991 0.457031,0.90033 0.457037,1.50124 -6e-6,0.81252 -0.296234,1.50125 -0.888684,2.0662 -0.592461,0.56495 -1.341495,0.84742 -2.247102,0.84742 -0.816746,0 -1.494896,-0.24333 -2.034452,-0.72999 -0.53956,-0.48666 -0.847425,-1.1172 -0.923597,-1.89163 z"
           inkscape:connector-curvature="0" />
      </g>
      <g
         id="flowRoot5555-2-8-4-17-8"
         style="font-size:24px;font-style:normal;font-weight:normal;line-height:125%;letter-spacing:0px;word-spacing:0px;fill:#000000;fill-opacity:1;stroke:none;font-family:Sans"
         transform="translate(-4.37258,869.42433)">
        <path
           id="path3182"
           style="font-size:14px"
           d="m 25.985352,156.54178 0,-7.25977 1.107421,0 0,1.03223 c 0.533201,-0.79752 1.303383,-1.19628 2.310547,-1.19629 0.437496,1e-5 0.839676,0.0786 1.206543,0.23584 0.366856,0.15723 0.641433,0.36345 0.823731,0.61865 0.182285,0.25522 0.309889,0.55828 0.382812,0.90918 0.04557,0.22787 0.06835,0.62664 0.06836,1.19629 l 0,4.46387 -1.230469,0 0,-4.41602 c -6e-6,-0.50129 -0.04786,-0.87613 -0.143555,-1.12451 -0.09571,-0.24837 -0.265467,-0.44661 -0.509277,-0.59473 -0.24382,-0.1481 -0.52979,-0.22216 -0.85791,-0.22216 -0.524092,0 -0.976403,0.16634 -1.356934,0.49902 -0.380536,0.33269 -0.570803,0.96387 -0.570801,1.89355 l 0,3.96485 z"
           inkscape:connector-curvature="0" />
        <path
           id="path3184"
           style="font-size:65.00091553%;baseline-shift:sub"
           d="m 39.399995,159.44362 0,1.09816 -6.150966,0 c -0.0085,-0.27507 0.03597,-0.53956 0.133303,-0.79347 0.156577,-0.41895 0.407312,-0.83155 0.752207,-1.23781 0.344893,-0.40625 0.843191,-0.87599 1.494895,-1.4092 1.011403,-0.82943 1.694843,-1.48642 2.050321,-1.97097 0.355469,-0.48454 0.533206,-0.94264 0.533211,-1.37429 -5e-6,-0.4528 -0.161873,-0.83472 -0.485602,-1.14577 -0.32374,-0.31103 -0.745865,-0.46655 -1.266376,-0.46656 -0.550141,1e-5 -0.990251,0.16505 -1.320331,0.49513 -0.330085,0.33009 -0.497242,0.78712 -0.501472,1.37111 l -1.174333,-0.12061 c 0.0804,-0.87598 0.38298,-1.54355 0.907728,-2.00271 0.524745,-0.45915 1.229344,-0.68872 2.113799,-0.68873 0.892912,1e-5 1.599627,0.24757 2.120147,0.74268 0.520509,0.49514 0.780766,1.10875 0.780773,1.84085 -7e-6,0.37241 -0.07618,0.73846 -0.228519,1.09816 -0.152352,0.35971 -0.405203,0.73846 -0.758555,1.13625 -0.353363,0.39779 -0.940529,0.9437 -1.7615,1.63771 -0.685559,0.57554 -1.125669,0.96592 -1.320331,1.17116 -0.194666,0.20525 -0.355476,0.41155 -0.482429,0.61891 z"
           inkscape:connector-curvature="0" />
      </g>
      <g
         id="flowRoot5555-2-8-4-2-79"
         style="font-size:24px;font-style:normal;font-weight:normal;line-height:125%;letter-spacing:0px;word-spacing:0px;fill:#000000;fill-opacity:1;stroke:none;font-family:Sans"
         transform="translate(48.627222,846.80571)">
        <path
           id="path3167"
           style="font-size:14px"
           d="m 25.041992,156.54178 3.848633,-10.02149 1.428711,0 4.101562,10.02149 -1.510742,0 -1.168945,-3.03516 -4.19043,0 -1.100586,3.03516 z m 2.891602,-4.11524 3.397461,0 -1.045899,-2.77539 c -0.319015,-0.84309 -0.555994,-1.5358 -0.710937,-2.07812 -0.127609,0.64259 -0.307622,1.28061 -0.540039,1.91406 z"
           inkscape:connector-curvature="0" />
        <path
           id="path3169"
           style="font-size:65.00091553%;baseline-shift:sub"
           d="m 38.61627,160.54178 0,-2.22806 -4.037166,0 0,-1.04738 4.246642,-6.03036 0.933118,0 0,6.03036 1.256854,0 0,1.04738 -1.256854,0 0,2.22806 z m 0,-3.27544 0,-4.19586 -2.913615,4.19586 z"
           inkscape:connector-curvature="0" />
      </g>
      <g
         id="flowRoot5555-2-8-4-2-7"
         style="font-size:24px;font-style:normal;font-weight:normal;line-height:125%;letter-spacing:0px;word-spacing:0px;fill:#000000;fill-opacity:1;stroke:none;font-family:Sans"
         transform="translate(-2.910156,741.72838)">
        <path
           id="path3142"
           style="font-size:14px"
           d="m 25.041992,156.54178 3.848633,-10.02149 1.428711,0 4.101562,10.02149 -1.510742,0 -1.168945,-3.03516 -4.19043,0 -1.100586,3.03516 z m 2.891602,-4.11524 3.397461,0 -1.045899,-2.77539 c -0.319015,-0.84309 -0.555994,-1.5358 -0.710937,-2.07812 -0.127609,0.64259 -0.307622,1.28061 -0.540039,1.91406 z"
           inkscape:connector-curvature="0" />
        <path
           id="path3144"
           style="font-size:65.00091553%;baseline-shift:sub"
           d="m 34.953621,155.95236 c -10e-7,-1.10027 0.113201,-1.98578 0.339604,-2.65653 0.226402,-0.67074 0.562832,-1.18808 1.009292,-1.55203 0.446456,-0.36393 1.008231,-0.54589 1.685326,-0.5459 0.499352,1e-5 0.937346,0.10051 1.313984,0.30151 0.376627,0.20103 0.687667,0.49091 0.933118,0.86965 0.24544,0.37875 0.437988,0.84002 0.577645,1.3838 0.139644,0.5438 0.209469,1.27697 0.209476,2.1995 -7e-6,1.09181 -0.11215,1.97309 -0.336431,2.64383 -0.224293,0.67075 -0.559665,1.18915 -1.006117,1.5552 -0.446463,0.36606 -1.010354,0.54908 -1.691675,0.54908 -0.89715,0 -1.601749,-0.32162 -2.113799,-0.96486 -0.613616,-0.77442 -0.920424,-2.0355 -0.920423,-3.78325 z m 1.174333,0 c -2e-6,1.52769 0.178793,2.54439 0.536384,3.05009 0.357587,0.50571 0.798755,0.75856 1.323505,0.75856 0.524743,0 0.965911,-0.25391 1.323505,-0.76173 0.357585,-0.50782 0.536379,-1.52346 0.536385,-3.04692 -6e-6,-1.53192 -0.1788,-2.54967 -0.536385,-3.05327 -0.357594,-0.50358 -0.802994,-0.75537 -1.3362,-0.75538 -0.52475,1e-5 -0.943701,0.22218 -1.256854,0.66651 -0.393562,0.56708 -0.590342,1.61445 -0.59034,3.14214 z"
           inkscape:connector-curvature="0" />
      </g>
      <g
         id="flowRoot5555-2-8-4-2"
         style="font-size:24px;font-style:normal;font-weight:normal;line-height:125%;letter-spacing:0px;word-spacing:0px;fill:#000000;fill-opacity:1;stroke:none;font-family:Sans"
         transform="translate(23.03913,779.93564)">
        <path
           id="path3147"
           style="font-size:14px"
           d="m 25.041992,156.54178 3.848633,-10.02149 1.428711,0 4.101562,10.02149 -1.510742,0 -1.168945,-3.03516 -4.19043,0 -1.100586,3.03516 z m 2.891602,-4.11524 3.397461,0 -1.045899,-2.77539 c -0.319015,-0.84309 -0.555994,-1.5358 -0.710937,-2.07812 -0.127609,0.64259 -0.307622,1.28061 -0.540039,1.91406 z"
           inkscape:connector-curvature="0" />
        <path
           id="path3149"
           style="font-size:65.00091553%;baseline-shift:sub"
           d="m 39.257392,160.54178 -1.142594,0 0,-7.28087 c -0.275072,0.26238 -0.635835,0.52476 -1.08229,0.78712 -0.446461,0.26238 -0.847426,0.45916 -1.202898,0.59035 l 0,-1.10451 c 0.639004,-0.30046 1.197605,-0.66439 1.675805,-1.09181 0.478193,-0.42741 0.816739,-0.84213 1.015639,-1.24416 l 0.736338,0 z"
           inkscape:connector-curvature="0" />
      </g>
    </g>
  </g>
</svg>
