<?xml version="1.0" encoding="utf-8"?>
<!-- Generator: Adobe Illustrator 19.0.0, SVG Export Plug-In . SVG Version: 6.00 Build 0)  -->
<svg version="1.1" id="Layer_1" xmlns="http://www.w3.org/2000/svg" xmlns:xlink="http://www.w3.org/1999/xlink" x="0px" y="0px"
	 viewBox="0 0 143.3333282 103.3333359" style="enable-background:new 0 0 143.3333282 103.3333359;" xml:space="preserve">
<style type="text/css">
	.st0{fill:#FFFFFF;stroke:#000000;stroke-miterlimit:10;}
	.st1{fill:none;stroke:#000000;stroke-miterlimit:10;}
	.st2{fill:#010101;}
	.st3{fill:none;stroke:#010101;stroke-miterlimit:10;}
</style>
<ellipse id="XMLID_1_" class="st0" cx="71.7360764" cy="84.0091553" rx="67.6201401" ry="13.7299767"/>
<line id="XMLID_2_" class="st1" x1="71.7360764" y1="84.0091553" x2="71.7360764" y2="6.4347825"/>
<line id="XMLID_3_" class="st1" x1="71.7360764" y1="6.4347825" x2="110.4648361" y2="95.264534"/>
<line id="XMLID_4_" class="st1" x1="71.7360764" y1="84.0091553" x2="110.4648361" y2="95.264534"/>
<g id="XMLID_6_">
	<g id="XMLID_7_">
		<path id="XMLID_29_" class="st2" d="M88.2547226,82.4238281l-1.284668-3.8330078
			c-0.2998047,0.0039063-0.6074219-0.0253906-0.9233398-0.0869141l-0.6923828,2.3847656
			c-0.0908203,0.3095703-0.1362305,0.5712891-0.1362305,0.7851563c0,0.1621094,0.0571289,0.2900391,0.171875,0.3837891
			c0.0864258,0.0693359,0.3232422,0.1201172,0.7099609,0.1513672l-0.0532227,0.2148438h-3.1074219l0.0654297-0.2148438
			c0.2919922-0.0117188,0.4892578-0.0410156,0.5917969-0.0878906c0.1616211-0.0654297,0.2797852-0.1542969,0.3549805-0.2675781
			c0.1264648-0.1816406,0.2583008-0.5039063,0.3964844-0.9648438l1.402832-4.7641602
			c0.0947266-0.3178711,0.1420898-0.5644531,0.1420898-0.7387695c0-0.1782227-0.0737305-0.3295898-0.222168-0.4536133
			c-0.1479492-0.1240234-0.3598633-0.184082-0.6362305-0.1801758l0.0712891-0.215332h2.6157227
			c0.8759766,0,1.5078125,0.1625977,1.8945313,0.4882813c0.3867188,0.3261719,0.5800781,0.7543945,0.5800781,1.2856445
			c0,0.5083008-0.1982422,0.972168-0.5947266,1.3930664c-0.3964844,0.4213867-0.9404297,0.6870117-1.6308594,0.800293
			l0.78125,2.3085938c0.1894531,0.5664063,0.3789063,0.9345703,0.5683594,1.1054688s0.4951172,0.2675781,0.9169922,0.2910156
			l-0.0644531,0.2148438H88.2547226z M86.1473007,78.171875c0.2524414,0.0351563,0.4775391,0.0527344,0.6748047,0.0527344
			c0.6787109,0,1.2158203-0.1855469,1.6103516-0.5556641c0.3945313-0.3706055,0.5917969-0.8310547,0.5917969-1.3818359
			c0-0.4301758-0.1240234-0.7597656-0.3701172-0.9887695c-0.2470703-0.2285156-0.6162109-0.3432617-1.109375-0.3432617
			c-0.1269531,0-0.2763672,0.015625-0.4501953,0.046875L86.1473007,78.171875z"/>
	</g>
</g>
<g id="XMLID_8_">
	<g id="XMLID_9_">
		<path id="XMLID_27_" class="st2" d="M97.2483749,45.0673828l1.996582-0.3261719l-0.8330078,2.8325195
			c0.6748047-1.1616211,1.2885742-1.9736328,1.840332-2.4360352c0.3125-0.2646484,0.5673828-0.3964844,0.7636719-0.3964844
			c0.1269531,0,0.2275391,0.0375977,0.3007813,0.1137695c0.0732422,0.0756836,0.1103516,0.1855469,0.1103516,0.3291016
			c0,0.2563477-0.0654297,0.5014648-0.1972656,0.734375c-0.0917969,0.1748047-0.2255859,0.262207-0.3994141,0.262207
			c-0.0878906,0-0.1640625-0.0288086-0.2285156-0.0874023c-0.0634766-0.0581055-0.1025391-0.1474609-0.1181641-0.2680664
			c-0.0078125-0.0737305-0.0253906-0.1225586-0.0517578-0.1455078c-0.03125-0.03125-0.0683594-0.046875-0.1103516-0.046875
			c-0.0654297,0-0.1269531,0.015625-0.1855469,0.046875c-0.0996094,0.0541992-0.2529297,0.2060547-0.4570313,0.4545898
			c-0.3203125,0.3808594-0.6674805,0.8740234-1.0415039,1.4804688c-0.1621094,0.2568359-0.3012695,0.5458984-0.4169922,0.8681641
			c-0.1616211,0.4433594-0.2543945,0.7089844-0.2773438,0.7988281l-0.1855469,0.734375h-0.8852539l1.0708008-3.6196289
			c0.1230469-0.4194336,0.1850586-0.71875,0.1850586-0.8974609c0-0.0703125-0.0288086-0.128418-0.0869141-0.1748047
			c-0.0771484-0.0625-0.1791992-0.0932617-0.3066406-0.0932617c-0.0810547,0-0.2294922,0.0170898-0.4458008,0.0522461
			L97.2483749,45.0673828z"/>
	</g>
</g>
<g id="XMLID_10_">
	<g id="XMLID_11_">
		<path id="XMLID_23_" class="st2" d="M74.9944687,35.699707c0.5117188-1.5366211,1.2167969-2.7202148,2.1162109-3.5512695
			c0.6777344-0.6235352,1.3466797-0.9360352,2.0048828-0.9360352c0.6386719,0,1.0839844,0.300293,1.3359375,0.9008789
			c0.3525391,0.8383789,0.2861328,1.9799805-0.1933594,3.4233398c-0.4570313,1.3730469-1.1259766,2.4570313-2.0097656,3.2529297
			c-0.6884766,0.6162109-1.3598633,0.9248047-2.0141602,0.9248047c-0.3535156,0-0.6479492-0.0859375-0.8833008-0.2578125
			c-0.234375-0.1708984-0.4111328-0.4199219-0.5297852-0.7431641c-0.1176758-0.3232422-0.1762695-0.6669922-0.1772461-1.0292969
			C74.6458359,37.059082,74.7620468,36.3989258,74.9944687,35.699707z M76.1194687,35.6704102
			c-0.215332,0.6953125-0.3701172,1.3183594-0.4648438,1.8730469c-0.0737305,0.421875-0.0810547,0.7871094-0.0209961,1.0996094
			c0.034668,0.1875,0.1240234,0.3466797,0.2670898,0.4775391c0.144043,0.1308594,0.3222656,0.1953125,0.5361328,0.1953125
			c0.2490234,0,0.5253906-0.1171875,0.8271484-0.3515625c0.3017578-0.2333984,0.5957031-0.609375,0.8837891-1.1279297
			c0.2871094-0.5195313,0.5957031-1.2412109,0.9267578-2.1660156H76.1194687z M79.2141953,35.2851563
			c0.3359375-1.0185547,0.5107422-1.8359375,0.5244141-2.4521484c0.0087891-0.4716797-0.0742188-0.8095703-0.2529297-1.0126953
			c-0.1298828-0.1474609-0.3105469-0.222168-0.5449219-0.222168c-0.2646484,0-0.5429688,0.1035156-0.8330078,0.3100586
			c-0.2900391,0.2070313-0.5742188,0.5522461-0.8496094,1.0361328c-0.2763672,0.4838867-0.6132813,1.2641602-1.0102539,2.3408203
			H79.2141953z"/>
	</g>
</g>
<path id="XMLID_12_" class="st3" d="M71.7360764,26c3.8472595,0,4.9728851-0.7171135,7.7017365-1.9002228"/>
<g id="XMLID_13_">
	<g id="XMLID_14_">
		<path id="XMLID_20_" class="st2" d="M64.757164,78.5527344c0.5332031,0,1.0048828,0.1142578,1.4150391,0.3422852
			c0.4101563,0.2285156,0.7314453,0.565918,0.9648438,1.012207c0.2324219,0.4467773,0.3496094,0.9101563,0.3496094,1.3896484
			c0,0.8505859-0.25,1.7426758-0.7490234,2.6772461s-1.1513672,1.6464844-1.9560547,2.1386719
			c-0.8056679,0.4912109-1.6376991,0.7373047-2.4980507,0.7373047c-0.6196289,0-1.137207-0.1357422-1.5537109-0.4072266
			c-0.4165039-0.2705078-0.7241211-0.6289063-0.9233398-1.0732422c-0.1992188-0.4453125-0.2988281-0.8759766-0.2988281-1.2929688
			c0-0.7412109,0.1806641-1.4736328,0.5415039-2.1972656s0.7919922-1.3286133,1.293457-1.8139648
			c0.5009766-0.4858398,1.0356445-0.859375,1.6040039-1.1206055C63.5139961,78.6835938,64.1184921,78.5527344,64.757164,78.5527344z
			 M64.5559921,78.9272461c-0.3945313,0-0.7802773,0.0966797-1.1572304,0.2895508
			c-0.3764648,0.1933594-0.7504883,0.5092773-1.1210938,0.9482422c-0.3710938,0.4384766-0.7045898,1.0131836-1.0004883,1.7231445
			c-0.362793,0.8740234-0.5444336,1.6982422-0.5444336,2.4746094c0,0.5546875,0.144043,1.0449219,0.4321289,1.4716797
			c0.2880859,0.4277344,0.7299805,0.640625,1.3256836,0.640625c0.359375,0,0.7114258-0.0878906,1.0566406-0.2626953
			c0.3457031-0.1757813,0.7050819-0.4765625,1.0800819-0.9013672c0.4697266-0.5341797,0.8642578-1.2158203,1.1835938-2.0449219
			c0.3203125-0.8291016,0.4794922-1.6025391,0.4794922-2.3203125c0-0.5302734-0.1435547-0.9995117-0.4316406-1.4072266
			C65.5706406,79.1313477,65.1360703,78.9272461,64.5559921,78.9272461z"/>
	</g>
</g>
<g id="XMLID_15_">
	<g id="XMLID_16_">
		<path id="XMLID_17_" class="st2" d="M63.4451485,3.203125h3.1606483c0.8291016,0,1.4482422,0.175293,1.8583984,0.5263672
			s0.6152344,0.7783203,0.6152344,1.2827148c0,0.3994141-0.1298828,0.7871094-0.390625,1.1630859
			c-0.2597656,0.3759766-0.6464844,0.6816406-1.1591797,0.9160156c-0.5136719,0.234375-1.0683594,0.3515625-1.6640625,0.3515625
			c-0.3710938,0-0.8422852-0.0654297-1.4140625-0.1972656l-0.639164,2.1523438
			c-0.1503906,0.5117188-0.2250977,0.8486328-0.2250977,1.0117188c0,0.1240234,0.0532227,0.2265625,0.159668,0.3085938
			c0.1064453,0.0810547,0.3613319,0.1337891,0.7636757,0.1572266l-0.059082,0.2148438h-3.1904335l0.0649414-0.2148438
			c0.418457,0,0.7094727-0.0712891,0.8730469-0.2128906c0.1640625-0.1416016,0.340332-0.5322266,0.5297852-1.171875
			l1.3261757-4.4902344c0.1577148-0.5390625,0.2363281-0.8999023,0.2363281-1.0820313
			c0-0.1357422-0.0561523-0.2480469-0.168457-0.3374023S63.7625313,3.4375,63.3802071,3.418457L63.4451485,3.203125z
			 M64.5520859,6.8793945c0.4458008,0.1123047,0.8046875,0.1679688,1.0771484,0.1679688
			c0.4296875,0,0.8212891-0.0869141,1.1748047-0.2617188c0.3535156-0.1743164,0.6298828-0.4360352,0.8291016-0.784668
			c0.1992188-0.3491211,0.2988281-0.7119141,0.2988281-1.0878906c0-0.3916016-0.1230469-0.7016602-0.3671875-0.9306641
			c-0.2451172-0.2285156-0.6152344-0.3432617-1.1132813-0.3432617c-0.2675781,0-0.59375,0.0332031-0.9765625,0.0991211
			L64.5520859,6.8793945z"/>
	</g>
</g>
<g id="XMLID_5_">
</g>
<g id="XMLID_32_">
</g>
<g id="XMLID_33_">
</g>
<g id="XMLID_34_">
</g>
<g id="XMLID_35_">
</g>
<g id="XMLID_36_">
</g>
</svg>