<?xml version="1.0" encoding="utf-8"?>
<!-- Generator: Adobe Illustrator 19.0.0, SVG Export Plug-In . SVG Version: 6.00 Build 0)  -->
<svg version="1.1" id="Layer_1" xmlns="http://www.w3.org/2000/svg" xmlns:xlink="http://www.w3.org/1999/xlink" x="0px" y="0px"
	 viewBox="0 0 167 83" style="enable-background:new 0 0 167 83;" xml:space="preserve">
<style type="text/css">
	.st0{fill:#F15A29;}
	.st1{fill:none;stroke:#000000;stroke-miterlimit:10;}
	.st2{fill:#010101;}
	.st3{fill:#FFFFFF;stroke:#000000;stroke-miterlimit:10;}
</style>
<polygon id="XMLID_5_" class="st0" points="80.0310211,16.7474308 80.0309982,66.0205917 77.3828201,68.9451981 
	75.2022705,70.9627457 75.2022705,11.8179693 77.9785614,14.5221977 "/>
<circle id="XMLID_1_" class="st1" cx="49.8623199" cy="41.3840561" r="38.949276"/>
<g id="XMLID_2_">
	<g id="XMLID_55_">
		<g id="XMLID_56_">
			<polygon id="XMLID_57_" points="155.2405243,41.8833923 155.2405243,43.7986145 164.25,41.3861389 155.2405243,38.9694824 
				155.2405243,40.8848877 4.6666641,40.8848877 4.6666641,41.8833923 			"/>
		</g>
	</g>
</g>
<line id="XMLID_3_" class="st1" x1="49.8623199" y1="41.3840561" x2="80.0310211" y2="16.7538071"/>
<line id="XMLID_4_" class="st1" x1="80.0310211" y1="16.7474308" x2="144.75" y2="41.3840561"/>
<path id="XMLID_19_" class="st1" d="M57.2838173,35.3260727C58.8691444,37.1869469,59.5,39.0843582,59.5,41.3840561"/>
<g id="XMLID_7_">
	<g id="XMLID_8_">
		<path id="XMLID_46_" class="st2" d="M63.456543,35.574707c0.5117188-1.5366211,1.2167969-2.7202148,2.1162109-3.5512695
			c0.6777344-0.6235352,1.3466797-0.9360352,2.0048828-0.9360352c0.6386719,0,1.0839844,0.300293,1.3359375,0.9008789
			c0.3525391,0.8383789,0.2861328,1.9799805-0.1933594,3.4233398c-0.4570313,1.3730469-1.1259766,2.4570313-2.0097656,3.2529297
			c-0.6884766,0.6162109-1.3598633,0.9248047-2.0141602,0.9248047c-0.3535156,0-0.6479492-0.0859375-0.8833008-0.2578125
			c-0.234375-0.1708984-0.4111328-0.4199219-0.5297852-0.7431641c-0.1176758-0.3232422-0.1762695-0.6669922-0.1772461-1.0292969
			C63.1079102,36.934082,63.2241211,36.2739258,63.456543,35.574707z M64.581543,35.5454102
			c-0.215332,0.6953125-0.3701172,1.3183594-0.4648438,1.8730469c-0.0737305,0.421875-0.0810547,0.7871094-0.0209961,1.0996094
			c0.034668,0.1875,0.1240234,0.3466797,0.2670898,0.4775391c0.144043,0.1308594,0.3222656,0.1953125,0.5361328,0.1953125
			c0.2490234,0,0.5253906-0.1171875,0.8271484-0.3515625c0.3017578-0.2333984,0.5957031-0.609375,0.8837891-1.1279297
			c0.2871094-0.5195313,0.5957031-1.2412109,0.9267578-2.1660156H64.581543z M67.6762695,35.1601563
			c0.3359375-1.0185547,0.5107422-1.8359375,0.5244141-2.4521484c0.0087891-0.4716797-0.0742188-0.8095703-0.2529297-1.0126953
			c-0.1298828-0.1474609-0.3105469-0.222168-0.5449219-0.222168c-0.2646484,0-0.5429688,0.1035156-0.8330078,0.3100586
			c-0.2900391,0.2070313-0.5742188,0.5522461-0.8496094,1.0361328c-0.2763672,0.4838867-0.6132813,1.2641602-1.0102539,2.3408203
			H67.6762695z"/>
	</g>
</g>
<g id="XMLID_9_">
	<g id="XMLID_10_">
		<path id="XMLID_43_" class="st2" d="M97.3208008,51.7207031l-1.284668-3.8330078
			c-0.2998047,0.0039063-0.6074219-0.0253906-0.9233398-0.0869141l-0.6923828,2.3847656
			c-0.0908203,0.3095703-0.1362305,0.5712891-0.1362305,0.7851563c0,0.1621094,0.0571289,0.2900391,0.171875,0.3837891
			c0.0864258,0.0693359,0.3232422,0.1201172,0.7099609,0.1513672l-0.0532227,0.2148438h-3.1074219l0.0654297-0.2148438
			c0.2919922-0.0117188,0.4892578-0.0410156,0.5917969-0.0878906c0.1616211-0.0654297,0.2797852-0.1542969,0.3549805-0.2675781
			c0.1264648-0.1816406,0.2583008-0.5039063,0.3964844-0.9648438l1.402832-4.7641602
			c0.0947266-0.3178711,0.1420898-0.5644531,0.1420898-0.7387695c0-0.1782227-0.0737305-0.3295898-0.222168-0.4536133
			c-0.1479492-0.1240234-0.3598633-0.184082-0.6362305-0.1801758l0.0712891-0.215332h2.6157227
			c0.8759766,0,1.5078125,0.1625977,1.8945313,0.4882813c0.3867188,0.3261719,0.5800781,0.7543945,0.5800781,1.2856445
			c0,0.5083008-0.1982422,0.972168-0.5947266,1.3930664c-0.3964844,0.4213867-0.9404297,0.6870117-1.6308594,0.800293
			l0.78125,2.3085938c0.1894531,0.5664063,0.3789063,0.9345703,0.5683594,1.1054688s0.4951172,0.2675781,0.9169922,0.2910156
			l-0.0644531,0.2148438H97.3208008z M95.2133789,47.46875c0.2524414,0.0351563,0.4775391,0.0527344,0.6748047,0.0527344
			c0.6787109,0,1.2158203-0.1855469,1.6103516-0.5556641c0.3945313-0.3706055,0.5917969-0.8310547,0.5917969-1.3818359
			c0-0.4301758-0.1240234-0.7597656-0.3701172-0.9887695c-0.2470703-0.2285156-0.6162109-0.3432617-1.109375-0.3432617
			c-0.1269531,0-0.2763672,0.015625-0.4501953,0.046875L95.2133789,47.46875z"/>
	</g>
</g>
<g id="XMLID_11_">
	<g id="XMLID_12_">
		<path id="XMLID_41_" class="st2" d="M104.6552734,13.5566406l-2.0048828,6.9628906
			c-0.0976563,0.3476563-0.1464844,0.5595703-0.1464844,0.6376953c0,0.0585938,0.0180664,0.1074219,0.0556641,0.1464844
			c0.0371094,0.0390625,0.0830078,0.0585938,0.1376953,0.0585938c0.0742188,0,0.1542969-0.0332031,0.2402344-0.0996094
			c0.203125-0.1601563,0.4160156-0.4072266,0.6396484-0.7431641l0.1757813,0.1816406
			c-0.3720703,0.5224609-0.7138672,0.8867188-1.0263672,1.09375c-0.230957,0.1484375-0.449707,0.2226563-0.6567383,0.2226563
			c-0.1484375,0-0.2724609-0.0507813-0.3720703-0.1523438s-0.1494141-0.21875-0.1494141-0.3505859
			c0-0.140625,0.0620117-0.4296875,0.1875-0.8662109l1.5883789-5.4887695
			c0.1298828-0.4482422,0.1943359-0.7060547,0.1943359-0.7724609c0-0.0932617-0.0371094-0.1704102-0.1113281-0.230957
			c-0.0751953-0.0605469-0.1904297-0.0908203-0.3466797-0.0908203c-0.0898438,0-0.2265625,0.0136719-0.4101563,0.0410156v-0.2163086
			L104.6552734,13.5566406z"/>
	</g>
</g>
<g id="XMLID_13_">
	<g id="XMLID_14_">
		<path id="XMLID_39_" class="st2" d="M141.2900391,46.7719727l1.996582-0.3261719l-0.8330078,2.8325195
			c0.6748047-1.1616211,1.2885742-1.9736328,1.840332-2.4360352c0.3125-0.2646484,0.5673828-0.3964844,0.7636719-0.3964844
			c0.1269531,0,0.2275391,0.0375977,0.3007813,0.1137695c0.0732422,0.0756836,0.1103516,0.1855469,0.1103516,0.3291016
			c0,0.2563477-0.0654297,0.5014648-0.1972656,0.734375c-0.0917969,0.1748047-0.2255859,0.262207-0.3994141,0.262207
			c-0.0878906,0-0.1640625-0.0288086-0.2285156-0.0874023c-0.0634766-0.0581055-0.1025391-0.1474609-0.1181641-0.2680664
			c-0.0078125-0.0737305-0.0253906-0.1225586-0.0517578-0.1455078c-0.03125-0.03125-0.0683594-0.046875-0.1103516-0.046875
			c-0.0654297,0-0.1269531,0.015625-0.1855469,0.046875c-0.0996094,0.0541992-0.2529297,0.2060547-0.4570313,0.4545898
			c-0.3203125,0.3808594-0.6674805,0.8740234-1.0415039,1.4804688c-0.1621094,0.2568359-0.3012695,0.5458984-0.4169922,0.8681641
			c-0.1616211,0.4433594-0.2543945,0.7089844-0.2773438,0.7988281l-0.1855469,0.734375h-0.8852539l1.0708008-3.6196289
			c0.1230469-0.4194336,0.1850586-0.71875,0.1850586-0.8974609c0-0.0703125-0.0288086-0.128418-0.0869141-0.1748047
			c-0.0771484-0.0625-0.1791992-0.0932617-0.3066406-0.0932617c-0.0810547,0-0.2294922,0.0170898-0.4458008,0.0522461
			L141.2900391,46.7719727z"/>
	</g>
</g>
<g id="XMLID_15_">
	<g id="XMLID_16_">
		<path id="XMLID_36_" class="st2" d="M49.6738281,45.8862305c0.5332031,0,1.0048828,0.1142578,1.4150391,0.3422852
			c0.4101563,0.2285156,0.7314453,0.565918,0.9648438,1.012207c0.2324219,0.4467773,0.3496094,0.9101563,0.3496094,1.3896484
			c0,0.8505859-0.25,1.7426758-0.7490234,2.6772461s-1.1513672,1.6464844-1.9560547,2.1386719
			c-0.8056641,0.4912109-1.6376953,0.7373047-2.4980469,0.7373047c-0.6196289,0-1.137207-0.1357422-1.5537109-0.4072266
			c-0.4165039-0.2705078-0.7241211-0.6289063-0.9233398-1.0732422c-0.1992188-0.4453125-0.2988281-0.8759766-0.2988281-1.2929688
			c0-0.7412109,0.1806641-1.4736328,0.5415039-2.1972656s0.7919922-1.3286133,1.293457-1.8139648
			c0.5009766-0.4858398,1.0356445-0.859375,1.6040039-1.1206055C48.4306641,46.0170898,49.0351563,45.8862305,49.6738281,45.8862305
			z M49.4726563,46.2607422c-0.3945313,0-0.7802734,0.0966797-1.1572266,0.2895508
			c-0.3764648,0.1933594-0.7504883,0.5092773-1.1210938,0.9482422c-0.3710938,0.4384766-0.7045898,1.0131836-1.0004883,1.7231445
			c-0.362793,0.8740234-0.5444336,1.6982422-0.5444336,2.4746094c0,0.5546875,0.144043,1.0449219,0.4321289,1.4716797
			c0.2880859,0.4277344,0.7299805,0.640625,1.3256836,0.640625c0.359375,0,0.7114258-0.0878906,1.0566406-0.2626953
			c0.3457031-0.1757813,0.7050781-0.4765625,1.0800781-0.9013672c0.4697266-0.5341797,0.8642578-1.2158203,1.1835938-2.0449219
			c0.3203125-0.8291016,0.4794922-1.6025391,0.4794922-2.3203125c0-0.5302734-0.1435547-0.9995117-0.4316406-1.4072266
			C50.4873047,46.4648438,50.0527344,46.2607422,49.4726563,46.2607422z"/>
	</g>
</g>
<line id="XMLID_17_" class="st1" x1="49.8623199" y1="41.3840561" x2="75.2022705" y2="11.8179693"/>
<line id="XMLID_6_" class="st1" x1="59.1606255" y1="30.5350018" x2="60.9366875" y2="32.3427544"/>
<g id="XMLID_20_">
	<g id="XMLID_22_">
		<path id="XMLID_33_" class="st2" d="M47.1030273,32.9619141c-0.2612305,0.2734375-0.5166016,0.46875-0.7661133,0.5878906
			s-0.5185547,0.1787109-0.8071289,0.1787109c-0.5849609,0-1.0957031-0.2451172-1.5327148-0.734375
			c-0.4365234-0.4892578-0.6547852-1.1191406-0.6547852-1.8867188c0-0.7685547,0.2416992-1.4716797,0.7250977-2.1098633
			c0.4833984-0.6376953,1.1054688-0.956543,1.8657227-0.956543c0.472168,0,0.8618164,0.1499023,1.1699219,0.4501953v-0.9887695
			c0-0.6123047-0.0146484-0.9887695-0.0439453-1.1289063c-0.0292969-0.140625-0.074707-0.2363281-0.137207-0.2871094
			c-0.0625-0.050293-0.140625-0.0756836-0.2338867-0.0756836c-0.1015625,0-0.2363281,0.03125-0.4038086,0.0932617
			l-0.0761719-0.2045898l1.597168-0.6552734h0.2631836v6.1962891c0,0.6279297,0.0146484,1.0117188,0.0439453,1.1494141
			c0.0292969,0.1386719,0.0756836,0.2353516,0.1401367,0.2900391s0.1396484,0.0820313,0.2250977,0.0820313
			c0.1054688,0,0.2456055-0.0332031,0.4213867-0.0996094l0.0644531,0.2050781l-1.5913086,0.6611328h-0.269043V32.9619141z
			 M47.1030273,32.5517578v-2.7617188c-0.0234375-0.2646484-0.0932617-0.5068359-0.2104492-0.7250977
			s-0.2719727-0.3833008-0.4648438-0.4946289c-0.1933594-0.1108398-0.3813477-0.1665039-0.5644531-0.1665039
			c-0.3432617,0-0.6494141,0.1538086-0.918457,0.4619141c-0.3549805,0.4057617-0.5322266,0.9985352-0.5322266,1.7788086
			c0,0.7880859,0.1713867,1.3916016,0.5146484,1.8115234c0.3432617,0.4189453,0.7250977,0.6289063,1.1464844,0.6289063
			C46.4287109,33.0849609,46.7714844,32.9072266,47.1030273,32.5517578z"/>
	</g>
	<g id="XMLID_21_">
		<path id="XMLID_29_" class="st2" d="M50.7495117,29.7382813c0.5117188-1.5366211,1.2167969-2.7207031,2.1181641-3.5517578
			C53.5483398,25.5620117,54.2182617,25.25,54.8764648,25.25c0.6396484,0,1.0849609,0.3012695,1.3369141,0.9013672
			c0.3525391,0.8383789,0.2890625,1.9799805-0.1923828,3.4228516c-0.4570313,1.3740234-1.1289063,2.4580078-2.0146484,3.2539063
			c-0.6884766,0.6152344-1.3603516,0.9238281-2.015625,0.9238281c-0.3544922,0-0.6494141-0.0859375-0.8857422-0.2568359
			c-0.234375-0.171875-0.4111328-0.4199219-0.5292969-0.7431641c-0.1181641-0.3242188-0.1777344-0.6669922-0.1767578-1.0302734
			C50.3999023,31.0976563,50.5161133,30.4365234,50.7495117,29.7382813z M51.8754883,29.7089844
			c-0.2158203,0.6943359-0.3701172,1.3183594-0.4658203,1.8730469c-0.0732422,0.4199219-0.0810547,0.7871094-0.0214844,1.0996094
			c0.0351563,0.1865234,0.125,0.3457031,0.2675781,0.4765625c0.1445313,0.1308594,0.3242188,0.1953125,0.5371094,0.1953125
			c0.25,0,0.5253906-0.1162109,0.828125-0.3505859c0.3027344-0.2333984,0.5976563-0.609375,0.8857422-1.1298828
			c0.2880859-0.5175781,0.5976563-1.2392578,0.9287109-2.1640625H51.8754883z M54.9760742,29.3227539
			c0.3359375-1.0180664,0.5097656-1.8354492,0.5234375-2.4516602c0.0107422-0.472168-0.0742188-0.8095703-0.2529297-1.012207
			c-0.1289063-0.1484375-0.3115234-0.2226563-0.5458984-0.2226563c-0.2646484,0-0.5429688,0.1040039-0.8339844,0.3105469
			s-0.5751953,0.5522461-0.8505859,1.0356445c-0.2763672,0.4838867-0.6142578,1.2636719-1.0117188,2.340332H54.9760742z"/>
	</g>
</g>
<path id="XMLID_23_" class="st3" d="M129.8306885,35.7047119C128.8333282,38.25,128.75,39.7916679,128.75,41.5"/>
<g id="XMLID_24_">
	<g id="XMLID_25_">
		<path id="XMLID_26_" class="st2" d="M120.097168,34.0302734h0.9824219l-1.6669922,2.6713867
			c-0.1074219,0.168457-0.2773438,0.4321289-0.5087891,0.7924805c-0.0537109,0.6025391-0.0615234,0.9628906-0.0263672,1.0800781
			c0.0703125,0.2158203,0.2138672,0.3232422,0.4306641,0.3232422c0.1572266,0,0.3251953-0.0644531,0.5029297-0.1933594
			c0.1777344-0.1298828,0.3339844-0.3310547,0.4697266-0.6044922h0.2373047
			c-0.2451172,0.5625-0.4951172,0.9521484-0.7509766,1.1679688c-0.2558594,0.2148438-0.5048828,0.3232422-0.7451172,0.3232422
			c-0.2246094,0-0.3974609-0.0947266-0.5175781-0.2822266c-0.1210938-0.1884766-0.1503906-0.5908203-0.0878906-1.2089844
			c-0.2880859,0.3398438-0.5449219,0.5986328-0.7695313,0.7744141c-0.3149414,0.2431641-0.6279297,0.4238281-0.9404297,0.5439453
			c-0.3125,0.1181641-0.6420898,0.1787109-0.9897461,0.1787109c-0.8720703,0-1.4155273-0.2880859-1.6337891-0.8632813
			c-0.2167969-0.5751953-0.2016602-1.2314453,0.0454102-1.9667969c0.2900391-0.8618164,0.765625-1.559082,1.4267578-2.0942383
			c0.659668-0.5341797,1.3134766-0.8007813,1.9609375-0.8007813c0.4501953,0,0.8007813,0.1362305,1.0527344,0.4077148
			c0.2519531,0.2719727,0.3935547,0.7783203,0.4257813,1.5180664L120.097168,34.0302734z M118.5668945,36.4545898
			c0.0576172-0.8061523-0.0273438-1.3681641-0.2568359-1.6875c-0.2275391-0.3193359-0.515625-0.4785156-0.8623047-0.4785156
			c-0.3867188,0-0.7792969,0.2099609-1.1767578,0.6313477c-0.3984375,0.4199219-0.7519531,1.0913086-1.0605469,2.0107422
			c-0.1826172,0.5439453-0.2719727,0.9716797-0.2651367,1.2822266c0.0058594,0.3115234,0.0913086,0.5517578,0.2573242,0.7226563
			c0.1655273,0.1699219,0.3720703,0.2548828,0.6210938,0.2548828c0.3037109,0,0.6289063-0.1386719,0.9750977-0.4160156
			C117.2680664,38.3984375,117.8569336,37.6259766,118.5668945,36.4545898z"/>
	</g>
</g>
<g id="XMLID_18_">
</g>
<g id="XMLID_50_">
</g>
<g id="XMLID_51_">
</g>
<g id="XMLID_52_">
</g>
<g id="XMLID_53_">
</g>
<g id="XMLID_58_">
</g>
</svg>
