<?xml version="1.0" encoding="utf-8"?>
<!-- Generator: Adobe Illustrator 19.0.0, SVG Export Plug-In . SVG Version: 6.00 Build 0)  -->
<svg version="1.1" id="图层_1" xmlns="http://www.w3.org/2000/svg" xmlns:xlink="http://www.w3.org/1999/xlink" x="0px" y="0px"
	 viewBox="0 0 301.3333435 133" style="enable-background:new 0 0 301.3333435 133;" xml:space="preserve">
<style type="text/css">
	.st0{fill:none;stroke:#000100;}
	.st1{fill:url(#SVGID_1_);}
	.st2{fill:#000100;fill-opacity:0;stroke:#000100;}
	.st3{fill:url(#SVGID_2_);}
	.st4{fill:url(#SVGID_3_);}
	.st5{fill:#010101;}
	.st6{fill:none;stroke:#000000;}
	.st7{fill:none;stroke:#000100;stroke-miterlimit:10;}
</style>
<path class="st0" d="M72.5835724,129.0833282c34.5681229,0,62.5910034-28.0223999,62.5910034-62.5909729
	c0-34.5687332-28.0228806-62.5916214-62.5910034-62.5916214c-34.5685768,0-62.591301,28.0228863-62.591301,62.5916214
	C9.9922714,101.0609283,38.0149956,129.0833282,72.5835724,129.0833282z"/>
<linearGradient id="SVGID_1_" gradientUnits="userSpaceOnUse" x1="64.0628128" y1="353.7464294" x2="64.0628128" y2="228.5638275" gradientTransform="matrix(-1 0 0 -1 136.6462402 357.6471558)">
	<stop  offset="0" style="stop-color:#858589;stop-opacity:0.205"/>
	<stop  offset="0.5" style="stop-color:#FFFFFF;stop-opacity:0.203"/>
	<stop  offset="1" style="stop-color:#828387;stop-opacity:0.207"/>
</linearGradient>
<path class="st1" d="M72.5835724,129.0833282c34.5681229,0,62.5910034-28.0223999,62.5910034-62.5909729
	c0-34.5687332-28.0228806-62.5916214-62.5910034-62.5916214c-34.5685768,0-62.591301,28.0228863-62.591301,62.5916214
	C9.9922714,101.0609283,38.0149956,129.0833282,72.5835724,129.0833282z"/>
<path class="st2" d="M3.2182419,66.4923553H141.947998"/>
<path class="st2" d="M124.610733,31.6653957L36.175663,117.4101181"/>
<path class="st2" d="M124.6064835,101.3136139L36.187603,15.585248"/>
<path class="st2" d="M118.2847443,23.7422352L48.6204948,124.3708649"/>
<path class="st2" d="M118.288826,109.3159866L48.6088753,8.6650515"/>
<path class="st2" d="M101.4210205,54.7741661c-0.6669769-0.9058609-1.592598-1.6724548-2.7052841-2.1436195"/>
<g>
	
		<linearGradient id="SVGID_2_" gradientUnits="userSpaceOnUse" x1="15.2067585" y1="333.9479675" x2="15.2067585" y2="248.3160858" gradientTransform="matrix(-1 0 0 -1 136.6462402 357.6471558)">
		<stop  offset="0" style="stop-color:#F15B5E;stop-opacity:0.734"/>
		<stop  offset="0.498" style="stop-color:#EBEAEA;stop-opacity:0.734"/>
		<stop  offset="1" style="stop-color:#F0494C;stop-opacity:0.725"/>
	</linearGradient>
	<path class="st3" d="M124.610733,31.7960052l-6.3425064-8.0968018v85.6318741l3.3318787-4.1718445l3.0063782-3.8456192"/>
	<path class="st2" d="M124.610733,31.7960052l-6.3425064-8.0968018v85.6318741l3.3318787-4.1718445l3.0063782-3.8456192"/>
</g>
<path class="st2" d="M124.5948639,31.648756v34.8435974v34.8335266"/>
<path class="st2" d="M118.2682266,23.6992035v42.7931519v42.8387222"/>
<g>
	
		<linearGradient id="SVGID_3_" gradientUnits="userSpaceOnUse" x1="-233.5962982" y1="348.9781799" x2="-233.5962982" y2="233.2763062" gradientTransform="matrix(1 0 0 -1 275.980072 357.6471558)">
		<stop  offset="0" style="stop-color:#4C65AF;stop-opacity:0.734"/>
		<stop  offset="0.498" style="stop-color:#EBEAEA;stop-opacity:0.734"/>
		<stop  offset="1" style="stop-color:#4C65AF;stop-opacity:0.725"/>
	</linearGradient>
	<path class="st4" d="M36.16465,15.585248l5.6623306-3.6870384L48.60289,8.6689777v115.701889l-6.0388641-2.8517609
		l-6.3993759-4.1089859"/>
	<path class="st2" d="M36.16465,15.585248l5.6623306-3.6870384L48.60289,8.6689777v115.701889l-6.0388641-2.8517609
		l-6.3993759-4.1089859"/>
</g>
<path class="st2" d="M48.60289,8.6689777v115.701889"/>
<path class="st2" d="M36.16465,15.5426664v101.8674545"/>
<g>
	<g>
		<path class="st5" d="M104.304039,33.5667305l1.1142578-0.5458984h0.1113281v3.8808594
			c0,0.2578125,0.0107422,0.4189453,0.0322266,0.4814453c0.0205078,0.0634766,0.0654297,0.1123047,0.1328125,0.1464844
			c0.0673828,0.0332031,0.2050781,0.0527344,0.4121094,0.0576172v0.125h-1.7226563v-0.125
			c0.2167969-0.0048828,0.3564453-0.0234375,0.4189453-0.0566406c0.0634766-0.0322266,0.1074219-0.0761719,0.1318359-0.1318359
			c0.0253906-0.0556641,0.0371094-0.2207031,0.0371094-0.4970703v-2.4814453c0-0.3339844-0.0107422-0.5488281-0.0332031-0.6435547
			c-0.015625-0.0722656-0.0449219-0.1259766-0.0859375-0.1591797c-0.0419922-0.0341797-0.0917969-0.0507813-0.1503906-0.0507813
			c-0.0839844,0-0.1992188,0.0341797-0.3476563,0.1044922L104.304039,33.5667305z"/>
	</g>
	<g>
		<path class="st5" d="M101.3450546,29.6399746l2.0146484-0.328125l-0.8408203,2.8496075
			c0.6811523-1.1684551,1.300293-1.9858379,1.8574219-2.4506817c0.3144531-0.2661133,0.5722656-0.3989258,0.7705078-0.3989258
			c0.1289063,0,0.2294922,0.0380859,0.3037109,0.1142578s0.1113281,0.1870117,0.1113281,0.331543
			c0,0.2578125-0.0664063,0.5039063-0.1992188,0.7387695c-0.0927734,0.1757813-0.2275391,0.2636719-0.4023438,0.2636719
			c-0.0898438,0-0.1669922-0.0292969-0.2314453-0.0878906c-0.0634766-0.0585938-0.1044922-0.1484375-0.1191406-0.2695313
			c-0.0087891-0.0742188-0.0253906-0.1235352-0.0527344-0.1469727c-0.03125-0.03125-0.0683594-0.046875-0.1103516-0.046875
			c-0.0664063,0-0.1289063,0.015625-0.1875,0.046875c-0.1015625,0.0551758-0.2548828,0.2075195-0.4614258,0.4575195
			c-0.3232422,0.3833008-0.6733398,0.8793945-1.0512695,1.4892559c-0.1635742,0.2578125-0.3037109,0.5498047-0.4204102,0.8740234
			c-0.1635742,0.4453125-0.2568359,0.7128906-0.2802734,0.8027344l-0.1870117,0.7392578h-0.8935547l1.0805664-3.6415997
			c0.1245117-0.421875,0.1870117-0.7231445,0.1870117-0.902832c0-0.0703125-0.0292969-0.1289063-0.0878906-0.1757813
			c-0.0776367-0.0625-0.1806641-0.09375-0.3095703-0.09375c-0.081543,0-0.2314453,0.0175781-0.449707,0.0527344
			L101.3450546,29.6399746z"/>
	</g>
</g>
<g>
	<g>
		<path class="st5" d="M73.8221054,108.4461288l-0.3232422,0.8847656h-2.7207031v-0.125
			c0.8007813-0.7285156,1.3642578-1.3222656,1.6904297-1.7832031c0.3271484-0.4609375,0.4902344-0.8828125,0.4902344-1.2646484
			c0-0.2919922-0.0898438-0.53125-0.2685547-0.71875c-0.1796875-0.1875-0.3935547-0.28125-0.6435547-0.28125
			c-0.2265625,0-0.4296875,0.0654297-0.6103516,0.1982422c-0.1806641,0.1318359-0.3134766,0.3261719-0.3994141,0.5810547h-0.1259766
			c0.0566406-0.4179688,0.2021484-0.7392578,0.4365234-0.9628906c0.2353516-0.2236328,0.5283203-0.3349609,0.8798828-0.3349609
			c0.3740234,0,0.6865234,0.1191406,0.9365234,0.359375c0.2509766,0.2392578,0.3759766,0.5214844,0.3759766,0.8466797
			c0,0.2333984-0.0537109,0.4658203-0.1630859,0.6992188c-0.1679688,0.3652344-0.4394531,0.7529297-0.8164063,1.1621094
			c-0.5644531,0.6152344-0.9169922,0.9853516-1.0576172,1.1123047h1.2041016c0.2451172,0,0.4169922-0.0087891,0.515625-0.0273438
			c0.0986328-0.0175781,0.1875-0.0546875,0.2666016-0.1103516c0.0791016-0.0546875,0.1484375-0.1337891,0.2070313-0.2353516
			H73.8221054z"/>
	</g>
	<g>
		<path class="st5" d="M67.7034531,101.2586288l2.0297852-0.328125l-0.847168,2.8496094
			c0.6860352-1.168457,1.3100586-1.9858398,1.8706055-2.4506836c0.3173828-0.2661133,0.5771484-0.3989258,0.7763672-0.3989258
			c0.1298828,0,0.2314453,0.0380859,0.3066406,0.1142578c0.0742188,0.0761719,0.1113281,0.1870117,0.1113281,0.331543
			c0,0.2578125-0.0664063,0.5039063-0.2001953,0.7387695c-0.09375,0.1757813-0.2294922,0.2636719-0.4052734,0.2636719
			c-0.0908203,0-0.1679688-0.0292969-0.2324219-0.0878906s-0.1054688-0.1484375-0.1210938-0.2695313
			c-0.0078125-0.0742188-0.0253906-0.1235352-0.0527344-0.1469727c-0.03125-0.03125-0.0683594-0.046875-0.1113281-0.046875
			c-0.0673828,0-0.1298828,0.015625-0.1889648,0.046875c-0.1020508,0.0551758-0.2568359,0.2075195-0.4643555,0.4575195
			c-0.3256836,0.3833008-0.6787109,0.8793945-1.059082,1.4892578c-0.1650391,0.2578125-0.3061523,0.5498047-0.4238281,0.8740234
			c-0.1645508,0.4453125-0.2587891,0.7128906-0.2822266,0.8027344l-0.1884766,0.7392578h-0.8999023l1.0883789-3.6416016
			c0.1254883-0.421875,0.1884766-0.7231445,0.1884766-0.902832c0-0.0703125-0.0297852-0.1289063-0.0883789-0.1757813
			c-0.0786133-0.0625-0.1826172-0.09375-0.3120117-0.09375c-0.0820313,0-0.2333984,0.0175781-0.4526367,0.0527344
			L67.7034531,101.2586288z"/>
	</g>
</g>
<circle cx="72.4162369" cy="66.5199203" r="1.7875"/>
<path class="st6" d="M97.2170715,58.9905205c2.3722,2.8428116,2.9972,4.840992,2.9972,7.5293999"/>
<g>
	<g>
		<path class="st5" d="M103.2112656,60.9348946c0.5117188-1.5366211,1.2167969-2.7202148,2.1162109-3.5512695
			c0.6777344-0.6235352,1.3466797-0.9360352,2.0048828-0.9360352c0.6386719,0,1.0839844,0.300293,1.3359375,0.9008789
			c0.3525391,0.8383789,0.2861328,1.9799805-0.1933594,3.4233398c-0.4570313,1.3730469-1.1259766,2.4570313-2.0097656,3.2529335
			c-0.6884766,0.6162109-1.3598633,0.9248047-2.0141602,0.9248047c-0.3535156,0-0.6479492-0.0859375-0.8833008-0.2578125
			c-0.234375-0.1708984-0.4111328-0.4199219-0.5297852-0.7431679c-0.1176758-0.3232422-0.1762695-0.6669922-0.1772461-1.0292969
			C102.8626328,62.2942696,102.9788437,61.6341133,103.2112656,60.9348946z M104.3362656,60.9055977
			c-0.215332,0.6953125-0.3701172,1.3183594-0.4648438,1.8730469c-0.0737305,0.421875-0.0810547,0.7871094-0.0209961,1.0996094
			c0.034668,0.1875038,0.1240234,0.3466835,0.2670898,0.4775429c0.144043,0.1308594,0.3222656,0.1953125,0.5361328,0.1953125
			c0.2490234,0,0.5253906-0.1171875,0.8271484-0.3515625c0.3017578-0.2334023,0.5957031-0.6093788,0.8837891-1.1279335
			c0.2871094-0.5195313,0.5957031-1.2412109,0.9267578-2.1660156H104.3362656z M107.4309921,60.5203438
			c0.3359375-1.0185547,0.5107422-1.8359375,0.5244141-2.4521484c0.0087891-0.4716797-0.0742188-0.8095703-0.2529297-1.0126953
			c-0.1298828-0.1474609-0.3105469-0.222168-0.5449219-0.222168c-0.2646484,0-0.5429688,0.1035156-0.8330078,0.3100586
			c-0.2900391,0.2070313-0.5742188,0.5522461-0.8496094,1.0361328c-0.2763672,0.4838867-0.6132813,1.2641602-1.0102539,2.3408203
			H107.4309921z"/>
	</g>
</g>
<g>
	<g>
		<path class="st5" d="M68.3880234,70.8670273c0.5332031,0,1.0048828,0.1142578,1.4150391,0.3422852
			c0.4101563,0.2285156,0.7314453,0.565918,0.9648438,1.012207c0.2324219,0.4467773,0.3496094,0.9101563,0.3496094,1.3896484
			c0,0.8505859-0.25,1.7426758-0.7490234,2.6772461s-1.1513672,1.6464844-1.9560547,2.1386719
			c-0.8056641,0.4912109-1.6376953,0.7373047-2.4980469,0.7373047c-0.6196289,0-1.137207-0.1357422-1.5537109-0.4072266
			c-0.4165077-0.2705078-0.7241249-0.6289063-0.9233437-1.0732422c-0.1992188-0.4453125-0.2988281-0.8759766-0.2988281-1.2929688
			c0-0.7412109,0.1806641-1.4736328,0.5415039-2.1972656c0.3608437-0.7236328,0.791996-1.3286133,1.2934608-1.8139648
			c0.5009766-0.4858398,1.0356445-0.859375,1.6040039-1.1206055C67.1448593,70.9978867,67.7493515,70.8670273,68.3880234,70.8670273
			z M68.1868515,71.241539c-0.3945313,0-0.7802734,0.0966797-1.1572266,0.2895508
			c-0.3764648,0.1933594-0.7504883,0.5092773-1.1210938,0.9482422c-0.3710938,0.4384766-0.7045898,1.0131836-1.0004883,1.7231445
			c-0.362793,0.8740234-0.5444336,1.6982422-0.5444336,2.4746094c0,0.5546875,0.144043,1.0449219,0.4321289,1.4716797
			c0.2880859,0.4277344,0.7299805,0.640625,1.3256836,0.640625c0.359375,0,0.7114258-0.0878906,1.0566406-0.2626953
			c0.3457031-0.1757813,0.7050781-0.4765625,1.0800781-0.9013672c0.4697266-0.5341797,0.8642578-1.2158203,1.1835938-2.0449219
			c0.3203125-0.8291016,0.4794922-1.6025391,0.4794922-2.3203125c0-0.5302734-0.1435547-0.9995117-0.4316406-1.4072266
			C69.2014999,71.4456406,68.7669296,71.241539,68.1868515,71.241539z"/>
	</g>
</g>
<g>
	<g>
		<path class="st5" d="M85.3465195,75.0364609h3.1606445c0.8291016,0,1.4482422,0.175293,1.8583984,0.5263672
			s0.6152344,0.7783203,0.6152344,1.2827148c0,0.3994141-0.1298828,0.7871094-0.390625,1.1630859
			c-0.2597656,0.3759766-0.6464844,0.6816406-1.1591797,0.9160156c-0.5136719,0.234375-1.0683594,0.3515625-1.6640625,0.3515625
			c-0.3710938,0-0.8422852-0.0654297-1.4140625-0.1972656l-0.6391602,2.1523438
			c-0.1503906,0.5117188-0.2250977,0.8486328-0.2250977,1.0117188c0,0.1240234,0.0532227,0.2265625,0.159668,0.3085938
			c0.1064453,0.0810547,0.3613281,0.1337891,0.7636719,0.1572266l-0.059082,0.2148438h-3.1904297l0.0649414-0.2148438
			c0.418457,0,0.7094727-0.0712891,0.8730469-0.2128906c0.1640625-0.1416016,0.340332-0.5322266,0.5297852-1.171875
			l1.3261719-4.4902344c0.1577148-0.5390625,0.2363281-0.8999023,0.2363281-1.0820313
			c0-0.1357422-0.0561523-0.2480469-0.168457-0.3374023s-0.3603516-0.1435547-0.7426758-0.1625977L85.3465195,75.0364609z
			 M86.4534531,78.7127304c0.4458008,0.1123047,0.8046875,0.1679688,1.0771484,0.1679688
			c0.4296875,0,0.8212891-0.0869141,1.1748047-0.2617188c0.3535156-0.1743164,0.6298828-0.4360352,0.8291016-0.784668
			c0.1992188-0.3491211,0.2988281-0.7119141,0.2988281-1.0878906c0-0.3916016-0.1230469-0.7016602-0.3671875-0.9306641
			c-0.2451172-0.2285156-0.6152344-0.3432617-1.1132813-0.3432617c-0.2675781,0-0.59375,0.0332031-0.9765625,0.0991211
			L86.4534531,78.7127304z"/>
	</g>
</g>
<path class="st7" d="M228.6111755,129.1112213c34.5681152,0,62.5910034-28.0224075,62.5910034-62.5909805
	c0-34.5687332-28.0228882-62.5916176-62.5910034-62.5916176c-34.568573,0-62.5912933,28.0228882-62.5912933,62.5916176
	C166.0198822,101.0888138,194.0426025,129.1112213,228.6111755,129.1112213z"/>
<path class="st2" d="M159.2458496,66.5202408h138.7297668"/>
<path class="st2" d="M280.6383362,31.693285l-88.4350586,85.7447205"/>
<circle cx="228.4438477" cy="66.5478058" r="1.7875"/>
<line class="st0" x1="228.4438477" y1="66.5478058" x2="280.6383362" y2="31.693285"/>
<line class="st0" x1="228.4438477" y1="66.5478058" x2="192.2032776" y2="117.4380035"/>
<path class="st7" d="M262.1801453,44.0193367c1.1531982,1.5639954,1.0873108,1.4153442,2.6619263,2.9896698"/>
<path class="st7" d="M204.5650024,100.0792694c1.6737213,0.7540665,1.6737213,0.7540665,3.0046997,2.6512222"/>
<g>
	<g>
		<path class="st5" d="M272.2151794,49.8050117h0.9824219l-1.6669922,2.6713867
			c-0.1074219,0.168457-0.2773438,0.4321289-0.5087891,0.7924805c-0.0537109,0.6025391-0.0615234,0.9628906-0.0263672,1.0800781
			c0.0703125,0.2158203,0.2138672,0.3232422,0.4306641,0.3232422c0.1572266,0,0.3251953-0.0644531,0.5029297-0.1933594
			c0.1777344-0.1298828,0.3339844-0.3310547,0.4697266-0.6044922h0.2373047
			c-0.2451172,0.5625-0.4951172,0.9521484-0.7509766,1.1679688c-0.2558594,0.2148438-0.5048828,0.3232422-0.7451172,0.3232422
			c-0.2246094,0-0.3974609-0.0947266-0.5175781-0.2822266c-0.1210938-0.1884766-0.1503906-0.5908203-0.0878906-1.2089844
			c-0.2880859,0.3398438-0.5449219,0.5986328-0.7695313,0.7744141c-0.3144531,0.2431641-0.6279297,0.4238281-0.9404297,0.5439453
			c-0.3125,0.1181641-0.6416016,0.1787109-0.9892578,0.1787109c-0.8720703,0-1.4160156-0.2880859-1.6337891-0.8632813
			c-0.2167969-0.5751953-0.2021484-1.2314453,0.0449219-1.9667969c0.2900391-0.8618164,0.765625-1.559082,1.4267578-2.0942383
			c0.6601563-0.5341797,1.3134766-0.8007813,1.9609375-0.8007813c0.4501953,0,0.8007813,0.1362305,1.0527344,0.4077148
			c0.2519531,0.2719727,0.3935547,0.7783203,0.4257813,1.5180664L272.2151794,49.8050117z M270.684906,52.2293282
			c0.0576172-0.8061523-0.0273438-1.3681641-0.2568359-1.6875c-0.2275391-0.3193359-0.515625-0.4785156-0.8623047-0.4785156
			c-0.3867188,0-0.7792969,0.2099609-1.1767578,0.6313477c-0.3984375,0.4199219-0.7519531,1.0913086-1.0605469,2.0107422
			c-0.1826172,0.5439453-0.2714844,0.9716797-0.2646484,1.2822266c0.0058594,0.3115234,0.0908203,0.5517578,0.2568359,0.7226563
			c0.1660156,0.1699219,0.3720703,0.2548828,0.6210938,0.2548828c0.3037109,0,0.6289063-0.1386719,0.9755859-0.4160156
			C269.3860779,54.1731758,269.9749451,53.4007149,270.684906,52.2293282z"/>
	</g>
</g>
<g>
	<g>
		<path class="st5" d="M219.0999298,102.1380234h0.9824219l-1.6669922,2.6713867
			c-0.1074219,0.168457-0.2773438,0.4321289-0.5087891,0.7924805c-0.0537109,0.6025391-0.0615234,0.9628906-0.0263672,1.0800781
			c0.0703125,0.2158203,0.2138672,0.3232422,0.4306641,0.3232422c0.1572266,0,0.3251953-0.0644531,0.5029297-0.1933594
			c0.1777344-0.1298828,0.3339844-0.3310547,0.4697266-0.6044922h0.2373047
			c-0.2451172,0.5625-0.4951172,0.9521484-0.7509766,1.1679688c-0.2558594,0.2148438-0.5048828,0.3232422-0.7451172,0.3232422
			c-0.2246094,0-0.3974609-0.0947266-0.5175781-0.2822266c-0.1210938-0.1884766-0.1503906-0.5908203-0.0878906-1.2089844
			c-0.2880859,0.3398438-0.5449219,0.5986328-0.7695313,0.7744141c-0.3149414,0.2431641-0.6279297,0.4238281-0.9404297,0.5439453
			c-0.3125,0.1181641-0.6420898,0.1787109-0.9897461,0.1787109c-0.8720703,0-1.4155273-0.2880859-1.6337891-0.8632813
			c-0.2167969-0.5751953-0.2016602-1.2314453,0.0454102-1.9667969c0.2900391-0.8618164,0.765625-1.559082,1.4267578-2.0942383
			c0.659668-0.5341797,1.3134766-0.8007813,1.9609375-0.8007813c0.4501953,0,0.8007813,0.1362305,1.0527344,0.4077148
			c0.2519531,0.2719727,0.3935547,0.7783203,0.4257813,1.5180664L219.0999298,102.1380234z M217.5696564,104.5623398
			c0.0576172-0.8061523-0.0273438-1.3681641-0.2568359-1.6875c-0.2275391-0.3193359-0.515625-0.4785156-0.8623047-0.4785156
			c-0.3867188,0-0.7792969,0.2099609-1.1767578,0.6313477c-0.3984375,0.4199219-0.7519531,1.0913086-1.0605469,2.0107422
			c-0.1826172,0.5439453-0.2719727,0.9716797-0.2651367,1.2822266c0.0058594,0.3115234,0.0913086,0.5517578,0.2573242,0.7226563
			c0.1655273,0.1699219,0.3720703,0.2548828,0.6210938,0.2548828c0.3037109,0,0.6289063-0.1386719,0.9750977-0.4160156
			C216.2708282,106.5061874,216.8596954,105.7337265,217.5696564,104.5623398z"/>
	</g>
</g>
<g>
	<g>
		<path class="st5" d="M245.3470001,69.3455429h3.1601563c0.8291016,0,1.4482422,0.175293,1.8583984,0.5263672
			s0.6152344,0.7783203,0.6152344,1.2827148c0,0.3994141-0.1298828,0.7871094-0.390625,1.1630859
			c-0.2597656,0.3759766-0.6464844,0.6816406-1.1591797,0.9160156c-0.5136719,0.234375-1.0683594,0.3515625-1.6640625,0.3515625
			c-0.3710938,0-0.8417969-0.0654297-1.4140625-0.1972656l-0.6386719,2.1523438
			c-0.1503906,0.5117188-0.2255859,0.8486328-0.2255859,1.0117188c0,0.1240234,0.0537109,0.2265625,0.1601563,0.3085938
			c0.1064453,0.0810547,0.3613281,0.1337891,0.7636719,0.1572266l-0.0595703,0.2148438h-3.1904297l0.0654297-0.2148438
			c0.4179688,0,0.7089844-0.0712891,0.8730469-0.2128906s0.3398438-0.5322266,0.5292969-1.171875l1.3261719-4.4902344
			c0.1582031-0.5390625,0.2363281-0.8999023,0.2363281-1.0820313c0-0.1357422-0.0556641-0.2480469-0.1679688-0.3374023
			s-0.3603516-0.1435547-0.7431641-0.1625977L245.3470001,69.3455429z M246.4534454,73.0218124
			c0.4462891,0.1123047,0.8046875,0.1679688,1.0771484,0.1679688c0.4296875,0,0.8212891-0.0869141,1.1748047-0.2617188
			c0.3535156-0.1743164,0.6298828-0.4360352,0.8291016-0.784668c0.1992188-0.3491211,0.2988281-0.7119141,0.2988281-1.0878906
			c0-0.3916016-0.1230469-0.7016602-0.3671875-0.9306641c-0.2451172-0.2285156-0.6152344-0.3432617-1.1132813-0.3432617
			c-0.2675781,0-0.59375,0.0332031-0.9765625,0.0991211L246.4534454,73.0218124z"/>
	</g>
</g>
<g>
	<g>
		<path class="st5" d="M223.8880157,54.6394844c0.5332031,0,1.0048828,0.1142578,1.4150391,0.3422852
			c0.4101563,0.2285156,0.7314453,0.565918,0.9648438,1.012207c0.2324219,0.4467773,0.3496094,0.9101563,0.3496094,1.3896484
			c0,0.8505859-0.25,1.7426758-0.7490234,2.6772461s-1.1513672,1.6464844-1.9560547,2.1386719
			c-0.8056641,0.4912109-1.6376953,0.7373047-2.4980469,0.7373047c-0.6196289,0-1.137207-0.1357422-1.5537109-0.4072266
			c-0.4165039-0.2705078-0.7241211-0.6289063-0.9233398-1.0732422c-0.1992188-0.4453125-0.2988281-0.8759766-0.2988281-1.2929688
			c0-0.7412109,0.1806641-1.4736328,0.5415039-2.1972656s0.7919922-1.3286133,1.293457-1.8139648
			c0.5009766-0.4858398,1.0356445-0.859375,1.6040039-1.1206055
			C222.6448517,54.7703438,223.2493439,54.6394844,223.8880157,54.6394844z M223.6868439,55.0139961
			c-0.3945313,0-0.7802734,0.0966797-1.1572266,0.2895508c-0.3764648,0.1933594-0.7504883,0.5092773-1.1210938,0.9482422
			c-0.3710938,0.4384766-0.7045898,1.0131836-1.0004883,1.7231445c-0.362793,0.8740234-0.5444336,1.6982422-0.5444336,2.4746094
			c0,0.5546875,0.144043,1.0449219,0.4321289,1.4716797c0.2880859,0.4277344,0.7299805,0.640625,1.3256836,0.640625
			c0.359375,0,0.7114258-0.0878906,1.0566406-0.2626953c0.3457031-0.1757813,0.7050781-0.4765625,1.0800781-0.9013672
			c0.4697266-0.5341797,0.8642578-1.2158203,1.1835938-2.0449219c0.3203125-0.8291016,0.4794922-1.6025391,0.4794922-2.3203125
			c0-0.5302734-0.1435547-0.9995117-0.4316406-1.4072266C224.7014923,55.2180977,224.266922,55.0139961,223.6868439,55.0139961z"/>
	</g>
</g>
<g>
	<g>
		<path class="st5" d="M94.4617538,45.2718086c0.5166016-1.5371094,1.2285156-2.7207031,2.1367188-3.5522461
			c0.6855469-0.6240234,1.3603516-0.9360352,2.0244141-0.9360352c0.6455078,0,1.0947266,0.300293,1.3486328,0.9008789
			c0.3554688,0.8388672,0.2910156,1.9799805-0.1943359,3.4233398c-0.4609375,1.3730469-1.1376953,2.4580078-2.0302734,3.2529297
			c-0.6953125,0.6162109-1.3730469,0.9248047-2.0332031,0.9248047c-0.3574219,0-0.65625-0.0859375-0.8925781-0.2578125
			c-0.2373047-0.171875-0.4150391-0.4189453-0.5351563-0.7431641c-0.1181641-0.3242188-0.1796875-0.6660156-0.1787109-1.0292969
			C94.1082382,46.6302071,94.2273788,45.9690742,94.4617538,45.2718086z M95.597496,45.2415352
			c-0.2177734,0.6943359-0.3740234,1.3193359-0.4697266,1.8730469c-0.0742188,0.4208984-0.0820313,0.7880859-0.0214844,1.0996094
			c0.0351563,0.1884766,0.125,0.3466797,0.2695313,0.4765625c0.1455078,0.1318359,0.3261719,0.1962891,0.5429688,0.1962891
			c0.2509766,0,0.5292969-0.1162109,0.8339844-0.3505859s0.6025391-0.6113281,0.8925781-1.1289063
			c0.2890625-0.5185547,0.6025391-1.2412109,0.9365234-2.1660156H95.597496z M98.7234726,44.855793
			c0.3378906-1.0180664,0.5146484-1.8344727,0.5283203-2.4511719c0.0097656-0.472168-0.0751953-0.8100586-0.2548828-1.0126953
			c-0.1308594-0.1479492-0.3144531-0.222168-0.5507813-0.222168c-0.2675781,0-0.546875,0.1035156-0.8417969,0.3100586
			c-0.2929688,0.206543-0.5791016,0.5517578-0.8574219,1.0361328c-0.2783203,0.4829102-0.6191406,1.2631836-1.0195313,2.3398438
			H98.7234726z"/>
	</g>
	<g>
		<path class="st5" d="M92.5579453,49.1292305h-7.0776367l3.7041016-8.1157227L92.5579453,49.1292305z M91.1658554,48.6497383
			l-2.3530273-5.6582031l-2.5952148,5.6582031H91.1658554z"/>
	</g>
</g>
<g>
</g>
<g>
</g>
<g>
</g>
<g>
</g>
<g>
</g>
<g>
</g>
</svg>
