<?xml version="1.0" encoding="UTF-8" standalone="no"?>
<!DOCTYPE svg PUBLIC "-//W3C//DTD SVG 1.1//EN" "http://www.w3.org/Graphics/SVG/1.1/DTD/svg11.dtd">
<svg xmlns="http://www.w3.org/2000/svg" xmlns:xlink="http://www.w3.org/1999/xlink" version="1.1" width="374.04pt" height="243.96pt" viewBox="0 0 374.04 243.96">
<g enable-background="new">
<g>
<g id="Layer-1" data-name="P">
<clipPath id="cp0">
<path transform="matrix(1,0,0,-1,0,243.96)" d="M .000005574 0 L 374.04 0 L 374.04 243.96 L .000005574 243.96 Z " fill-rule="evenodd"/>
</clipPath>
<g clip-path="url(#cp0)">
<text xml:space="preserve" transform="matrix(1 0 -0 1 0 243.96)" font-size="11.04" font-family="Calibri"><tspan y="-.12" x="373.68"> </tspan></text>
</g>
</g>
<g id="Layer-1" data-name="P">
<clipPath id="cp1">
<path transform="matrix(1,0,0,-1,0,243.96)" d="M .000005574 .22105 L 373.6 .22105 L 373.6 243.96106 L .000005574 243.96106 Z " fill-rule="evenodd"/>
</clipPath>
<g clip-path="url(#cp1)">
<clipPath id="cp2">
<path transform="matrix(.09310962,0,0,-.09311944,0,243.73897)" d="M 0 0 L 4012.5 0 L 4012.5 2617.5 L 0 2617.5 Z " fill-rule="evenodd"/>
</clipPath>
<g clip-path="url(#cp2)">
<path transform="matrix(.09310962,0,0,-.09311944,0,243.73897)" d="M 125.49 178.99 L 2525.61 178.99 L 2525.61 163.99 L 125.49 163.99 C 121.34 163.99 117.99 167.35 117.99 171.49 C 117.99 175.63 121.34 178.99 125.49 178.99 Z M 2645.49 171.49 L 2495.49 216.49 L 2525.49 178.99 L 2525.49 163.99 L 2495.49 126.49 Z "/>
<path transform="matrix(.09310962,0,0,-.09311944,0,243.73897)" d="M 117.99 171.49 L 117.99 1345.36 L 132.99 1345.36 L 132.99 171.49 C 132.99 167.35 129.63 163.99 125.49 163.99 C 121.34 163.99 117.99 167.35 117.99 171.49 Z M 125.49 1465.24 L 80.487 1315.24 L 117.99 1345.24 L 132.99 1345.24 L 170.49 1315.24 Z "/>
<path transform="matrix(.09310962,0,0,-.09311944,0,243.73897)" d="M 119.14 175.49 L 805.18 1262.86 L 817.86 1254.85 L 131.83 167.49 C 129.62 163.99 124.99 162.94 121.48 165.15 C 117.98 167.36 116.93 171.99 119.14 175.49 Z M 875.49 1360.24 L 757.39 1257.39 L 805.11 1262.75 L 817.8 1254.75 L 833.51 1209.37 Z "/>
<path transform="matrix(.09310962,0,0,-.09311944,0,243.73897)" d="M 1903.75 552.22 L 2219.22 1064.13 L 2219.22 2168.26 L 1903.75 1656.35 Z " fill="#6ee56b" fill-rule="evenodd"/>
<path transform="matrix(.09310962,0,0,-.09311944,0,243.73897)" stroke-width="15" stroke-linecap="round" stroke-linejoin="round" fill="none" stroke="#000000" d="M 1903.75 552.22 L 2219.22 1064.13 L 2219.22 2168.26 L 1903.75 1656.35 Z "/>
<clipPath id="cp3">
<path transform="matrix(1.8621837,0,0,-1.8623904,178.03305,128.20195)" d="M 0 0 L 14.191 0 L 14.191 12.7 L 0 12.7 Z " fill-rule="evenodd"/>
</clipPath>
<g clip-path="url(#cp3)">
<path transform="matrix(1.8621837,0,0,-1.8623904,178.03305,128.20195)" d="M 7.2964 3.9468 C 6.8518 3.9649 6.4244 3.9743 6.0146 3.9743 L 6.0066 3.9743 C 5.5536 3.9743 5.0779 3.9649 4.579 3.9468 L 4.579 4.4689 L 5.2342 4.4689 L 4.8865 5.415 L 3.18 5.415 L 2.8443 4.4925 L 2.8443 4.4964 C 2.8443 4.5197 2.8416 4.5327 2.8362 4.5356 C 2.8824 4.5224 2.9268 4.5106 2.9697 4.5003 C 3.0426 4.4895 3.1167 4.4817 3.1923 4.4765 C 3.2678 4.4711 3.3662 4.4687 3.4874 4.4689 L 3.4874 3.9468 C 3.1451 3.9649 2.8284 3.9743 2.5371 3.9743 L 2.4157 3.9743 C 2.1382 3.9743 1.8322 3.9649 1.498 3.9468 L 1.498 4.4689 L 1.8334 4.4689 C 1.9171 4.4687 2.0047 4.4765 2.0965 4.4925 C 2.1316 4.4974 2.1639 4.504 2.1934 4.5118 C 2.2231 4.5197 2.2378 4.5249 2.2378 4.5278 L 4.0412 9.5214 C 4.0628 9.5761 4.0994 9.6217 4.1506 9.6585 C 4.2019 9.6951 4.2613 9.7135 4.3285 9.7138 L 4.478 9.7138 C 4.5373 9.7135 4.5928 9.6951 4.6438 9.6585 C 4.6951 9.6217 4.7314 9.5761 4.753 9.5214 L 6.5807 4.4689 L 7.2964 4.4689 L 7.2964 3.9468 Z M 4.0373 7.7783 L 3.3701 5.9332 L 4.7044 5.9332 Z " fill-rule="evenodd"/>
<path transform="matrix(1.8621837,0,0,-1.8623904,178.03305,128.20195)" d="M 10.609 4.6071 C 10.538 4.607 10.482 4.6061 10.442 4.6048 C 10.401 4.6032 10.361 4.5997 10.322 4.5939 C 10.304 4.5909 10.289 4.5883 10.278 4.5861 C 10.267 4.5839 10.261 4.5813 10.259 4.5785 L 9.3281 2.4878 C 9.2927 2.4115 9.2492 2.339 9.1976 2.2702 C 9.1461 2.2012 9.0856 2.1407 9.0162 2.0888 C 8.9469 2.0367 8.8708 1.9954 8.788 1.9646 C 8.7052 1.9338 8.6164 1.9184 8.5217 1.9184 C 8.4491 1.9184 8.3809 1.9308 8.3175 1.9558 C 8.2541 1.9806 8.1989 2.0136 8.1515 2.0547 C 8.1041 2.0957 8.067 2.1433 8.0399 2.1976 C 8.0128 2.2517 7.9993 2.3104 7.9993 2.3735 C 7.9993 2.4731 8.0358 2.5483 8.1084 2.5988 C 8.181 2.6494 8.2604 2.6747 8.3466 2.6747 C 8.433 2.6747 8.5121 2.6494 8.5839 2.5988 C 8.6558 2.5483 8.6916 2.4731 8.6916 2.3735 C 8.6916 2.2987 8.6698 2.2375 8.6258 2.1899 C 8.5818 2.1422 8.619 2.1352 8.7372 2.169 L 8.4862 2.169 C 8.5438 2.169 8.5978 2.1778 8.6486 2.1954 C 8.7027 2.2115 8.75 2.2353 8.7906 2.2669 C 8.8312 2.2983 8.8671 2.3357 8.8983 2.379 C 8.9297 2.4221 8.9563 2.4687 8.9782 2.5186 L 9.1328 2.8593 L 8.3517 4.6071 L 8.0145 4.6071 L 8.0145 4.8995 C 8.1379 4.895 8.2475 4.8919 8.3429 4.8906 C 8.4385 4.889 8.5327 4.8884 8.6256 4.8885 L 8.8488 4.8885 C 8.9216 4.8884 8.993 4.889 9.0631 4.8906 C 9.1333 4.8919 9.2209 4.895 9.3257 4.8995 L 9.3257 4.6071 L 9.0517 4.6071 L 9.4828 3.6442 L 9.914 4.6137 C 9.9125 4.612 9.9115 4.6085 9.9115 4.6027 C 9.9115 4.5909 9.9149 4.5843 9.9217 4.5829 C 9.9065 4.5843 9.8903 4.5865 9.8734 4.5895 C 9.8414 4.5953 9.8097 4.5995 9.7784 4.6026 C 9.7472 4.6054 9.701 4.607 9.6401 4.6071 L 9.6401 4.8995 C 9.7416 4.895 9.8274 4.8919 9.8975 4.8906 C 9.9677 4.889 10.039 4.8884 10.112 4.8885 L 10.279 4.8885 C 10.328 4.8884 10.376 4.889 10.421 4.8906 C 10.467 4.8919 10.53 4.895 10.609 4.8995 L 10.609 4.6071 Z " fill-rule="evenodd"/>
<path transform="matrix(1.8621837,0,0,-1.8623904,178.03305,128.20195)" d="M 12.679 2.8198 L 10.889 2.8198 C 10.85 2.8198 10.817 2.8308 10.79 2.8527 C 10.763 2.8746 10.749 2.9039 10.749 2.9407 L 10.749 2.9803 C 10.749 2.9962 10.754 3.0175 10.764 3.044 L 11.959 4.6577 L 11.781 4.6577 C 11.693 4.6575 11.607 4.6516 11.523 4.6399 C 11.438 4.6281 11.366 4.5967 11.307 4.5455 C 11.244 4.4942 11.206 4.4237 11.19 4.3344 C 11.175 4.2449 11.163 4.1438 11.155 4.0311 L 10.815 4.0311 L 10.889 4.8973 L 12.623 4.8973 C 12.662 4.8972 12.695 4.8862 12.722 4.8642 C 12.749 4.8422 12.763 4.8129 12.763 4.7764 L 12.763 4.75 C 12.763 4.7264 12.755 4.7059 12.74 4.6884 L 11.561 3.0792 L 11.756 3.0792 C 11.852 3.079 11.945 3.0881 12.035 3.1065 C 12.124 3.1248 12.201 3.1619 12.263 3.2177 C 12.294 3.2439 12.32 3.2776 12.343 3.3187 C 12.366 3.3596 12.383 3.4055 12.395 3.4561 C 12.407 3.5066 12.416 3.5594 12.423 3.6144 C 12.43 3.6693 12.438 3.7342 12.448 3.8091 L 12.783 3.8091 Z " fill-rule="evenodd"/>
</g>
<clipPath id="cp4">
<path transform="matrix(1.8621509,0,0,-1.8624057,226.98545,228.33422)" d="M 0 0 L 7.2254 0 L 7.2254 12.606 L 0 12.606 Z " fill-rule="evenodd"/>
</clipPath>
<g clip-path="url(#cp4)">
<path transform="matrix(1.8621509,0,0,-1.8624057,226.98545,228.33422)" d="M 5.7255 3.8528 C 5.3832 3.871 5.0718 3.8803 4.7914 3.8803 L 4.7835 3.8803 C 4.4518 3.8803 4.0973 3.871 3.7199 3.8528 L 3.7199 4.3749 L 4.0273 4.3749 L 3.4652 5.1719 L 2.8548 4.3632 C 2.8602 4.3708 2.8629 4.3813 2.8629 4.3946 C 2.8629 4.4206 2.8575 4.4348 2.8467 4.4377 C 2.8737 4.4245 2.8977 4.4127 2.9193 4.4024 C 2.9922 4.3838 3.1028 4.3747 3.251 4.3749 L 3.251 3.8528 C 2.9355 3.871 2.643 3.8803 2.3734 3.8803 L 2.3007 3.8803 C 2.0662 3.8803 1.7995 3.871 1.5001 3.8528 L 1.5001 4.3749 C 1.6375 4.3747 1.7482 4.3759 1.8316 4.3786 C 1.9153 4.3811 1.9989 4.3877 2.0824 4.3985 C 2.1229 4.4088 2.1599 4.4171 2.1935 4.4238 C 2.2274 4.4301 2.2495 4.4402 2.2603 4.4534 L 3.1377 5.6233 L 2.1349 7.0484 L 1.5406 7.0484 L 1.5406 7.5705 C 1.7347 7.5624 1.9018 7.557 2.0419 7.5546 C 2.1822 7.5519 2.3238 7.5506 2.4666 7.5509 L 2.8143 7.5509 C 2.9247 7.5506 3.0331 7.5519 3.1396 7.5546 C 3.2461 7.557 3.3803 7.5624 3.542 7.5705 L 3.542 7.0484 L 3.2348 7.0484 L 3.7079 6.381 L 4.2254 7.068 C 4.22 7.0599 4.2173 7.0508 4.2173 7.0405 C 4.2173 7.0194 4.2241 7.005 4.2376 6.9974 C 4.2133 7.0023 4.1863 7.0101 4.1567 7.0209 C 4.084 7.0391 3.9761 7.0481 3.8333 7.0484 L 3.8333 7.5705 C 4.0165 7.5624 4.1743 7.557 4.3063 7.5546 C 4.4383 7.5519 4.5706 7.5506 4.7026 7.5509 L 4.7755 7.5509 C 4.8967 7.5506 5.0166 7.5519 5.1352 7.5546 C 5.2539 7.557 5.4021 7.5624 5.58 7.5705 L 5.58 7.0484 C 5.4426 7.0481 5.3314 7.0467 5.2465 7.0442 C 5.1617 7.0415 5.0772 7.0351 4.9936 7.0248 C 4.9587 7.0194 4.9244 7.014 4.8905 7.0089 C 4.8569 7.0035 4.8361 6.9944 4.828 6.9816 L 4.0313 5.9295 L 5.1231 4.3749 L 5.7255 4.3749 L 5.7255 3.8528 Z " fill-rule="evenodd"/>
</g>
<clipPath id="cp5">
<path transform="matrix(1.8622297,0,0,-1.8624057,64.98493,118.336879)" d="M 0 0 L 7.1608 0 L 7.1608 12.606 L 0 12.606 Z " fill-rule="evenodd"/>
</clipPath>
<g clip-path="url(#cp5)">
<path transform="matrix(1.8622297,0,0,-1.8624057,64.98493,118.336879)" d="M 5.6596 7.0484 C 5.5463 7.0481 5.4574 7.0467 5.3927 7.0442 C 5.3279 7.0415 5.2646 7.0351 5.2025 7.0248 C 5.1731 7.0194 5.1495 7.0148 5.1318 7.0108 C 5.1144 7.0069 5.1044 7.0023 5.1014 6.9974 L 3.6175 3.2639 C 3.561 3.1278 3.4916 2.9982 3.4094 2.8753 C 3.3272 2.7521 3.2308 2.6441 3.1201 2.5514 C 3.0097 2.4584 2.8883 2.3846 2.7563 2.3296 C 2.6242 2.2746 2.4827 2.2472 2.3318 2.2472 C 2.216 2.2472 2.1073 2.2692 2.0062 2.3139 C 1.9051 2.3583 1.817 2.4172 1.7414 2.4906 C 1.6659 2.5637 1.6067 2.6488 1.5635 2.7457 C 1.5204 2.8424 1.4988 2.9472 1.4988 3.0598 C 1.4988 3.2377 1.5569 3.3719 1.6727 3.4622 C 1.7885 3.5525 1.9152 3.5976 2.0526 3.5976 C 2.1902 3.5976 2.3163 3.5525 2.4309 3.4622 C 2.5455 3.3719 2.6027 3.2377 2.6027 3.0598 C 2.6027 2.9263 2.5678 2.8169 2.4976 2.732 C 2.4275 2.6468 2.4868 2.6343 2.6753 2.6947 L 2.2751 2.6947 C 2.3669 2.6947 2.453 2.7104 2.534 2.7418 C 2.6203 2.7705 2.6956 2.813 2.7604 2.8694 C 2.8252 2.9256 2.8824 2.9923 2.9322 3.0696 C 2.9822 3.1467 3.0247 3.2298 3.0595 3.3189 L 3.3061 3.9274 L 2.0607 7.0484 L 1.5231 7.0484 L 1.5231 7.5705 C 1.7198 7.5624 1.8945 7.557 2.0467 7.5546 C 2.199 7.5519 2.3492 7.5506 2.4974 7.5509 L 2.8532 7.5509 C 2.9692 7.5506 3.0831 7.5519 3.195 7.5546 C 3.3068 7.557 3.4465 7.5624 3.6135 7.5705 L 3.6135 7.0484 L 3.1768 7.0484 L 3.8641 5.3289 L 4.5516 7.0602 C 4.5491 7.0572 4.5476 7.0508 4.5476 7.0405 C 4.5476 7.0194 4.553 7.0077 4.5638 7.0052 C 4.5395 7.0077 4.5138 7.0116 4.4868 7.017 C 4.4357 7.0273 4.3852 7.0349 4.3354 7.0403 C 4.2856 7.0454 4.212 7.0481 4.1148 7.0484 L 4.1148 7.5705 C 4.2768 7.5624 4.4134 7.557 4.5253 7.5546 C 4.6372 7.5519 4.7513 7.5506 4.8671 7.5509 L 5.1338 7.5509 C 5.2121 7.5506 5.2876 7.5519 5.3603 7.5546 C 5.4331 7.557 5.533 7.5624 5.6596 7.5705 L 5.6596 7.0484 Z " fill-rule="evenodd"/>
</g>
<clipPath id="cp6">
<path transform="matrix(1.8621343,0,0,-1.8624057,15.211319,118.336879)" d="M 0 0 L 6.2429 0 L 6.2429 12.606 L 0 12.606 Z " fill-rule="evenodd"/>
</clipPath>
<g clip-path="url(#cp6)">
<path transform="matrix(1.8621343,0,0,-1.8624057,15.211319,118.336879)" d="M 4.577 3.8567 L 1.7222 3.8567 C 1.6603 3.8567 1.6076 3.8764 1.5644 3.9156 C 1.5212 3.9546 1.4996 4.0069 1.4996 4.0726 L 1.4996 4.1433 C 1.4996 4.1718 1.5077 4.2098 1.5239 4.2572 L 3.4284 7.1387 L 3.1455 7.1387 C 3.0054 7.1384 2.868 7.1279 2.7331 7.107 C 2.5984 7.0859 2.4838 7.0297 2.3893 6.9385 C 2.2897 6.8467 2.2276 6.7208 2.2033 6.5613 C 2.1793 6.4016 2.1604 6.221 2.1467 6.0198 L 1.6049 6.0198 L 1.7222 7.5666 L 4.4879 7.5666 C 4.55 7.5663 4.6025 7.5467 4.6457 7.5075 C 4.6888 7.4682 4.7102 7.4159 4.7102 7.3507 L 4.7102 7.3036 C 4.7102 7.2614 4.6982 7.2248 4.6739 7.1936 L 2.7937 4.32 L 3.105 4.32 C 3.2586 4.3197 3.4071 4.3359 3.5499 4.3688 C 3.6927 4.4014 3.8141 4.4677 3.9137 4.5673 C 3.9623 4.6142 4.0048 4.6743 4.0411 4.7476 C 4.0774 4.8208 4.1051 4.9027 4.124 4.993 C 4.1429 5.0833 4.1576 5.1775 4.1684 5.2757 C 4.1792 5.3738 4.1927 5.4896 4.2089 5.6233 L 4.7426 5.6233 Z " fill-rule="evenodd"/>
</g>
<clipPath id="cp7">
<path transform="matrix(1.8621193,0,0,-1.8623904,141.25475,28.368592)" d="M 0 0 L 37.917 0 L 37.917 12.7 L 0 12.7 Z " fill-rule="evenodd"/>
</clipPath>
<g clip-path="url(#cp7)">
<path transform="matrix(1.8621193,0,0,-1.8623904,141.25475,28.368592)" d="M 3.361 7.2672 C 3.361 8.6016 3.361 9.4005 3.361 9.6661 C 3.361 9.9295 3.3502 10.316 3.3243 10.826 L 4.1793 10.446 L 3.8943 10.169 L 3.8943 7.2672 L 8.1652 7.2672 L 8.7697 7.7854 L 9.4088 7.0599 L 5.3884 7.0599 C 5.816 6.2286 6.4033 5.5593 7.1503 5.054 C 7.8974 4.5466 8.7352 4.2357 9.6593 4.1234 L 9.6593 3.9853 C 9.2793 3.9831 8.9943 3.8212 8.8043 3.5016 C 8.0701 3.7521 7.3706 4.1666 6.7055 4.7431 C 6.0405 5.3175 5.5439 6.0905 5.2114 7.0599 L 3.8943 7.0599 L 3.8943 3.778 C 4.6068 4.0759 5.3301 4.3739 6.0643 4.6762 L 6.1355 4.5035 C 4.9026 3.8795 4.0735 3.3634 3.646 2.9488 L 3.1818 3.5016 C 3.3027 3.6614 3.361 3.8341 3.361 4.0198 L 3.361 7.0599 L 2.5426 7.0599 C 2.236 7.0578 1.951 7.0232 1.6876 6.9563 L 1.3681 7.2672 Z M 7.3468 10.722 L 8.0226 10.1 L 7.5584 9.9273 C 6.2543 8.8197 5.1531 8.0596 4.2506 7.6472 L 4.1793 7.7854 C 4.9393 8.2907 5.5849 8.7959 6.1182 9.3033 C 6.6537 9.8086 7.0618 10.281 7.3468 10.722 Z " fill-rule="evenodd"/>
<path transform="matrix(1.8621193,0,0,-1.8623904,141.25475,28.368592)" d="M 17.526 2.8798 C 16.388 3.0179 15.38 3.3051 14.501 3.7434 C 13.672 3.2598 12.675 2.9596 11.513 2.8452 L 11.228 3.5707 C 12.297 3.6614 13.186 3.8795 13.897 4.2271 C 13.517 4.5941 13.173 4.985 12.865 5.4017 L 11.869 5.4017 L 11.869 5.9544 L 16.032 5.9544 L 16.138 6.0581 L 16.671 5.6435 C 16.766 5.5032 16.721 5.4449 16.531 5.4708 C 16.127 5.0087 15.641 4.5812 15.071 4.1925 C 15.903 3.914 16.779 3.7413 17.703 3.6743 Z M 14.288 9.9273 L 17.49 9.9273 L 17.49 9.2709 L 11.193 9.2709 L 11.193 6.2308 C 11.193 4.9396 10.898 3.8557 10.304 2.9834 L 9.6626 3.5016 C 10.209 4.2141 10.481 5.1685 10.481 6.369 L 10.481 9.9273 L 13.469 9.9273 L 13.469 10.826 L 14.253 10.826 C 14.443 10.8 14.456 10.731 14.288 10.618 Z M 14.501 4.5726 C 14.786 4.7539 15.119 5.0303 15.499 5.4017 L 13.648 5.4017 C 13.886 5.1231 14.169 4.8468 14.501 4.5726 Z M 15.782 6.4381 L 15.071 6.4381 L 15.071 6.6454 L 13.54 6.6454 L 13.54 6.4035 L 12.83 6.4035 L 12.83 7.7854 L 11.405 7.7854 L 11.405 8.3382 L 12.83 8.3382 L 12.83 8.9946 L 13.506 8.9946 C 13.696 8.9686 13.709 8.8995 13.54 8.7873 L 13.54 8.3382 L 15.071 8.3382 L 15.071 9.0636 L 15.747 9.0636 C 15.937 9.0377 15.95 8.9686 15.782 8.8564 L 15.782 8.3382 L 17.49 8.3382 L 17.49 7.7854 L 15.782 7.7854 Z M 15.071 7.7854 L 13.54 7.7854 L 13.54 7.1981 L 15.071 7.1981 Z " fill-rule="evenodd"/>
<path transform="matrix(1.8621193,0,0,-1.8623904,141.25475,28.368592)" d="M 19.203 10.411 C 20.032 9.9252 20.47 9.5732 20.518 9.3551 C 20.565 9.1349 20.544 8.9686 20.449 8.8542 C 20.354 8.7376 20.283 8.6815 20.235 8.6836 C 20.14 8.6815 20.058 8.7959 19.985 9.0291 C 19.842 9.3724 19.546 9.7978 19.095 10.307 Z M 21.764 10.929 L 22.725 10.48 L 22.368 10.238 C 22.299 9.5689 22.215 8.8995 22.12 8.2345 L 25.145 8.2345 L 25.43 8.6836 L 26.069 8.2 L 25.75 7.9236 C 25.585 5.8486 25.46 4.6093 25.376 4.2077 C 25.294 3.8039 25.134 3.5016 24.897 3.2943 C 24.659 3.087 24.363 2.9359 24.005 2.8452 C 23.865 3.236 23.379 3.5124 22.547 3.6743 L 22.547 3.8471 C 23.355 3.7305 23.888 3.6765 24.15 3.6894 C 24.411 3.7002 24.601 3.8212 24.717 4.0522 C 24.836 4.2811 25.002 5.6068 25.216 8.0272 L 22.085 8.0272 C 21.777 6.5741 21.22 5.4341 20.412 4.6049 C 19.607 3.7758 18.788 3.1907 17.957 2.8452 L 17.886 2.9488 C 18.765 3.5016 19.535 4.2077 20.2 5.0713 C 20.865 5.935 21.304 6.9196 21.515 8.0272 L 19.417 8.0272 C 19.108 8.0251 18.823 7.9905 18.562 7.9236 L 18.242 8.2345 L 21.55 8.2345 C 21.692 9.0377 21.764 9.936 21.764 10.929 Z M 22.191 6.9908 C 23.284 6.505 23.888 6.1768 24.007 6.0041 C 24.126 5.8314 24.184 5.6759 24.184 5.5399 C 24.184 5.4233 24.16 5.3067 24.113 5.1922 C 24.065 5.0756 24.018 5.0195 23.97 5.0217 C 23.901 5.0195 23.783 5.1469 23.614 5.4017 C 23.377 5.7687 22.88 6.2524 22.12 6.8526 Z " fill-rule="evenodd"/>
<path transform="matrix(1.8621193,0,0,-1.8623904,141.25475,28.368592)" d="M 32.944 7.1424 C 32.831 7.1421 32.743 7.1407 32.678 7.1382 C 32.613 7.1355 32.55 7.1291 32.488 7.1188 C 32.464 7.1134 32.441 7.1088 32.421 7.1048 C 32.401 7.1009 32.389 7.0962 32.387 7.0913 L 31.21 4.1117 C 31.159 3.9833 31.065 3.9193 30.927 3.9193 L 30.826 3.9193 C 30.689 3.9193 30.594 3.9833 30.543 4.1117 L 29.346 7.1424 L 28.809 7.1424 L 28.809 7.6645 C 29.005 7.6564 29.179 7.651 29.328 7.6485 C 29.478 7.6458 29.629 7.6446 29.783 7.6449 L 30.139 7.6449 C 30.249 7.6446 30.362 7.6458 30.476 7.6485 C 30.591 7.651 30.732 7.6564 30.899 7.6645 L 30.899 7.1424 L 30.462 7.1424 L 31.149 5.3993 L 31.845 7.1541 C 31.842 7.1512 31.841 7.1448 31.841 7.1345 C 31.841 7.1134 31.846 7.1016 31.857 7.0992 C 31.83 7.1016 31.802 7.1056 31.772 7.111 C 31.683 7.1316 31.559 7.1421 31.4 7.1424 L 31.4 7.6645 C 31.562 7.6564 31.699 7.651 31.811 7.6485 C 31.923 7.6458 32.036 7.6446 32.152 7.6449 L 32.419 7.6449 C 32.497 7.6446 32.573 7.6458 32.645 7.6485 C 32.718 7.651 32.818 7.6564 32.944 7.6645 L 32.944 7.1424 Z " fill-rule="evenodd"/>
<path transform="matrix(1.8621193,0,0,-1.8623904,141.25475,28.368592)" d="M 36.472 2.8176 C 36.257 2.8277 36.062 2.833 35.886 2.833 L 35.881 2.833 C 35.673 2.833 35.451 2.8277 35.214 2.8176 L 35.214 3.11 L 35.407 3.11 L 35.054 3.5562 L 34.672 3.1034 C 34.675 3.1076 34.677 3.1135 34.677 3.121 C 34.677 3.1355 34.673 3.1435 34.666 3.1451 C 34.683 3.1377 34.698 3.1311 34.712 3.1253 C 34.758 3.1149 34.827 3.1098 34.92 3.11 L 34.92 2.8176 C 34.722 2.8277 34.539 2.833 34.37 2.833 L 34.324 2.833 C 34.177 2.833 34.01 2.8277 33.822 2.8176 L 33.822 3.11 C 33.908 3.1098 33.978 3.1105 34.03 3.112 C 34.082 3.1134 34.135 3.1171 34.187 3.1231 C 34.212 3.1289 34.236 3.1336 34.257 3.1373 C 34.278 3.1409 34.292 3.1465 34.299 3.1539 L 34.849 3.8091 L 34.22 4.6071 L 33.847 4.6071 L 33.847 4.8995 C 33.969 4.895 34.074 4.8919 34.162 4.8906 C 34.25 4.889 34.339 4.8884 34.428 4.8885 L 34.646 4.8885 C 34.715 4.8884 34.783 4.889 34.85 4.8906 C 34.917 4.8919 35.001 4.895 35.103 4.8995 L 35.103 4.6071 L 34.91 4.6071 L 35.207 4.2334 L 35.531 4.6181 C 35.528 4.6136 35.526 4.6085 35.526 4.6027 C 35.526 4.5909 35.53 4.5828 35.539 4.5785 C 35.524 4.5813 35.507 4.5857 35.488 4.5917 C 35.443 4.6019 35.375 4.607 35.285 4.6071 L 35.285 4.8995 C 35.4 4.895 35.499 4.8919 35.582 4.8906 C 35.665 4.889 35.748 4.8884 35.83 4.8885 L 35.876 4.8885 C 35.952 4.8884 36.027 4.889 36.102 4.8906 C 36.176 4.8919 36.269 4.895 36.381 4.8995 L 36.381 4.6071 C 36.295 4.607 36.225 4.6061 36.172 4.6048 C 36.118 4.6032 36.065 4.5997 36.013 4.5939 C 35.991 4.5909 35.97 4.5879 35.948 4.585 C 35.927 4.582 35.914 4.5769 35.909 4.5697 L 35.409 3.9805 L 36.094 3.11 L 36.472 3.11 L 36.472 2.8176 Z " fill-rule="evenodd"/>
</g>
<path transform="matrix(.09310962,0,0,-.09311944,0,243.73897)" stroke-width="15" stroke-linecap="round" stroke-linejoin="round" fill="none" stroke="#cc0000" d="M 1227.75 222.22 L 1903.75 552.22 "/>
<path transform="matrix(.09310962,0,0,-.09311944,0,243.73897)" stroke-width="15" stroke-linecap="round" stroke-linejoin="round" fill="none" stroke="#000000" d="M 1227.75 222.22 L 1543.22 734.13 L 1543.22 1838.26 L 1227.75 1326.35 Z "/>
<path transform="matrix(.09310962,0,0,-.09311944,0,243.73897)" stroke-width="15" stroke-linecap="round" stroke-linejoin="round" fill="none" stroke="#cc0000" d="M 1227.75 1320.12 L 1903.75 1649.48 "/>
<path transform="matrix(.09310962,0,0,-.09311944,0,243.73897)" stroke-width="15" stroke-linecap="round" stroke-linejoin="round" fill="none" stroke="#cc0000" d="M 1543.22 726.77 L 2219.22 1056.77 "/>
<path transform="matrix(.09310962,0,0,-.09311944,0,243.73897)" stroke-width="15" stroke-linecap="round" stroke-linejoin="round" fill="none" stroke="#cc0000" d="M 1543.22 1834.3 L 2219.22 2168.39 "/>
<path transform="matrix(.09310962,0,0,-.09311944,0,243.73897)" d="M 1700.56 2248.72 L 2061.88 2248.72 L 2061.88 2237.47 L 1700.56 2237.47 Z M 1543.22 2243.09 L 1700.72 2209.34 L 1700.72 2237.47 L 1700.72 2248.72 L 1700.72 2276.84 Z M 2219.22 2243.09 L 2061.72 2276.84 L 2061.72 2248.72 L 2061.72 2237.47 L 2061.72 2209.34 Z "/>
<path transform="matrix(.09310962,0,0,-.09311944,0,243.73897)" stroke-width="7.5" stroke-linecap="round" stroke-linejoin="round" fill="none" stroke="#000000" d="M 1543.22 2317.8 L 1543.22 2168.39 "/>
<path transform="matrix(.09310962,0,0,-.09311944,0,243.73897)" stroke-width="7.5" stroke-linecap="round" stroke-linejoin="round" fill="none" stroke="#000000" d="M 2219.22 2317.8 L 2219.22 2168.39 "/>
<path transform="matrix(.09310962,0,0,-.09311944,0,243.73897)" stroke-width="7.5" stroke-linecap="round" stroke-dasharray="30,15" stroke-linejoin="round" fill="none" stroke="#000000" d="M 1543.22 1649.48 L 1543.22 2243.09 "/>
<path transform="matrix(.09310962,0,0,-.09311944,0,243.73897)" d="M 2483.26 1201.98 L 3051.53 1479.39 L 3058.11 1465.91 L 2489.84 1188.5 C 2486.12 1186.68 2481.63 1188.23 2479.81 1191.95 C 2477.99 1195.67 2479.54 1200.16 2483.26 1201.98 Z M 3162.55 1525.24 L 3008.01 1499.88 L 3051.42 1479.34 L 3058 1465.86 L 3047.49 1419 Z " fill="#cc0000"/>
<clipPath id="cp8">
<path transform="matrix(1.8621345,0,0,-1.8624057,245.27123,150.78714)" d="M 0 0 L 60.402 0 L 60.402 12.606 L 0 12.606 Z " fill-rule="evenodd"/>
</clipPath>
<g clip-path="url(#cp8)">
<path transform="matrix(1.8621345,0,0,-1.8624057,245.27123,150.78714)" d="M 5.2826 5.4804 C 5.2826 5.9382 5.2719 6.3419 5.2459 6.6896 L 6.1355 6.3096 L 5.816 6.0677 L 5.816 5.4804 L 7.7009 5.4804 L 8.1997 5.9641 L 8.9122 5.2731 L 5.816 5.2731 L 5.816 3.304 L 8.2364 3.304 L 8.8755 3.9258 L 9.7306 3.0967 L 2.5772 3.0967 C 2.2706 3.0967 1.9856 3.0621 1.7243 2.9931 L 1.4026 3.304 L 5.2826 3.304 L 5.2826 5.2731 L 2.9702 5.2731 L 2.5059 5.2041 L 2.2209 5.4804 Z M 3.6805 9.6606 L 4.4276 9.0388 C 4.1901 8.9913 3.823 8.7149 3.3243 8.2096 C 2.8277 7.7001 2.2468 7.2164 1.5818 6.7587 L 1.4739 6.8623 C 1.9964 7.3438 2.4476 7.821 2.8277 8.2938 C 3.2077 8.7645 3.4905 9.2201 3.6805 9.6606 Z M 5.816 10.041 C 5.816 9.5548 5.816 9.0539 5.816 8.5357 C 5.816 8.0175 5.8289 7.5273 5.8505 7.0696 L 5.2459 6.8623 C 5.2719 7.482 5.2826 8.1211 5.2826 8.7775 C 5.2826 9.4339 5.2719 10.084 5.2459 10.732 L 6.101 10.317 Z M 6.7401 9.4188 L 6.8481 9.5224 C 8.0097 8.8984 8.6812 8.4666 8.8582 8.2247 C 9.0375 7.9829 9.126 7.7821 9.126 7.6223 C 9.126 7.5273 9.0914 7.4237 9.0202 7.3093 C 8.9489 7.1927 8.9014 7.1365 8.8755 7.1387 C 8.7589 7.1365 8.6035 7.3093 8.4135 7.6569 C 8.1544 8.1146 7.5951 8.7019 6.7401 9.4188 Z " fill="#cc0000" fill-rule="evenodd"/>
<path transform="matrix(1.8621345,0,0,-1.8624057,245.27123,150.78714)" d="M 12.508 6.4823 C 12.983 6.9184 13.458 7.5403 13.931 8.3478 L 12.83 8.2787 C 12.735 8.0455 12.664 8.0455 12.616 8.2787 L 12.508 8.9351 L 13.577 8.9697 L 14.324 10.766 L 14.963 10.593 C 15.201 10.498 15.201 10.418 14.963 10.352 L 14.253 8.9697 L 16.175 9.0042 C 15.961 9.2093 15.713 9.4274 15.428 9.6606 L 15.995 10.041 C 16.565 9.6239 17.112 9.1057 17.632 8.486 L 17.028 8.0369 C 16.885 8.2183 16.755 8.3694 16.637 8.486 L 14.039 8.3478 L 14.538 8.1405 C 14.704 8.0239 14.691 7.9548 14.501 7.9333 L 14.253 7.5532 L 16.922 7.5532 L 16.922 6.8969 L 15.356 6.8969 L 15.285 5.9641 L 17.632 5.9641 L 17.632 5.3077 L 15.356 5.3077 C 15.784 4.5908 16.589 4.0511 17.775 3.684 L 17.49 2.8894 C 16.328 3.304 15.486 3.8891 14.963 4.6513 C 14.49 3.82 13.638 3.2003 12.403 2.7858 L 12.046 3.5458 C 13.398 3.9345 14.205 4.5218 14.467 5.3077 L 12.545 5.3077 L 12.545 5.9641 L 14.573 5.9641 L 14.644 6.8969 L 13.825 6.8969 C 13.635 6.6183 13.374 6.3311 13.042 6.0332 Z M 9.8396 7.8987 L 9.8396 8.5551 L 10.8 8.5551 L 10.8 10.49 L 11.476 10.49 C 11.761 10.442 11.774 10.349 11.513 10.213 L 11.513 8.5551 L 12.331 8.5551 L 12.331 7.8987 L 11.513 7.8987 L 11.513 5.135 L 12.474 5.3768 L 12.474 4.6859 L 10.09 4.0295 C 9.9476 3.82 9.8526 3.8308 9.8051 4.064 L 9.5913 4.7549 L 10.8 4.9968 L 10.8 7.8987 Z " fill="#cc0000" fill-rule="evenodd"/>
<path transform="matrix(1.8621345,0,0,-1.8624057,245.27123,150.78714)" d="M 18.918 3.3731 C 18.823 3.1658 18.728 3.142 18.633 3.304 L 18.419 4.1331 L 19.594 4.1676 L 21.017 7.0696 L 18.171 7.0696 L 18.171 7.8296 L 25.855 7.8296 L 25.855 7.0696 L 21.977 7.0696 L 20.306 4.2022 L 24.219 4.4095 C 23.793 4.9147 23.379 5.3293 22.975 5.6532 L 23.472 6.2059 C 24.635 5.2364 25.454 4.4073 25.927 3.7185 L 25.145 3.1312 C 25.002 3.3839 24.836 3.6127 24.646 3.8222 L 18.918 3.3731 Z M 19.095 9.3151 L 19.095 10.075 L 24.966 10.075 L 24.966 9.3151 Z " fill="#cc0000" fill-rule="evenodd"/>
<path transform="matrix(1.8621345,0,0,-1.8624057,245.27123,150.78714)" d="M 30.095 2.9931 C 29.24 2.9931 28.445 3.291 27.709 3.8913 C 27.379 3.5458 26.999 3.2219 26.571 2.924 L 26.109 3.6494 C 26.56 3.8546 26.964 4.0856 27.318 4.3404 L 27.318 6.5859 L 26.18 6.5859 L 26.18 7.2423 L 28.031 7.2423 L 28.031 4.444 C 28.625 3.9129 29.324 3.6473 30.129 3.6494 L 34.329 3.6494 L 34.187 2.9931 L 30.095 2.9931 Z M 27.141 10.352 C 27.569 10.049 27.947 9.693 28.279 9.2806 L 27.674 8.6933 C 27.415 9.0819 27.059 9.462 26.608 9.8333 Z M 31.624 6.4477 C 32.312 5.8237 33.191 5.3163 34.258 4.9277 L 33.902 4.2367 C 32.93 4.6254 32.159 5.109 31.589 5.6877 L 31.589 3.8913 L 30.877 3.8913 L 30.877 5.5841 C 30.427 5.0745 29.715 4.5908 28.741 4.1331 L 28.35 4.824 C 29.395 5.2364 30.224 5.7784 30.842 6.4477 L 28.849 6.4477 L 28.849 8.6587 L 30.877 8.6587 L 30.877 9.246 L 28.599 9.246 L 28.599 9.9024 L 30.877 9.9024 L 30.877 10.801 L 31.552 10.801 C 31.742 10.775 31.755 10.706 31.589 10.593 L 31.589 9.9024 L 34.007 9.9024 L 34.007 9.246 L 31.589 9.246 L 31.589 8.6587 L 33.617 8.6587 L 33.617 6.4477 L 31.624 6.4477 Z M 31.589 8.0023 L 31.589 7.1041 L 32.906 7.1041 L 32.906 8.0023 Z M 29.559 8.0023 L 29.559 7.1041 L 30.877 7.1041 L 30.877 8.0023 Z " fill="#cc0000" fill-rule="evenodd"/>
<path transform="matrix(1.8621345,0,0,-1.8624057,245.27123,150.78714)" d="M 42.196 2.7858 C 41.058 2.924 40.05 3.2111 39.171 3.6494 C 38.342 3.1658 37.344 2.8657 36.183 2.7512 L 35.898 3.4767 C 36.967 3.5674 37.856 3.7855 38.566 4.1331 C 38.186 4.5002 37.843 4.891 37.534 5.3077 L 36.539 5.3077 L 36.539 5.8604 L 40.702 5.8604 L 40.808 5.9641 L 41.341 5.5495 C 41.436 5.4092 41.391 5.3509 41.201 5.3768 C 40.797 4.9147 40.311 4.4872 39.741 4.0986 C 40.572 3.82 41.449 3.6473 42.373 3.5804 Z M 38.957 9.8333 L 42.159 9.8333 L 42.159 9.1769 L 35.863 9.1769 L 35.863 6.1368 C 35.863 4.8456 35.567 3.7617 34.974 2.8894 L 34.332 3.4076 C 34.879 4.1201 35.151 5.0745 35.151 6.275 L 35.151 9.8333 L 38.139 9.8333 L 38.139 10.732 L 38.923 10.732 C 39.113 10.706 39.126 10.637 38.957 10.524 Z M 39.171 4.4786 C 39.456 4.6599 39.789 4.9363 40.169 5.3077 L 38.318 5.3077 C 38.556 5.0292 38.839 4.7528 39.171 4.4786 Z M 40.451 6.3441 L 39.741 6.3441 L 39.741 6.5514 L 38.21 6.5514 L 38.21 6.3096 L 37.5 6.3096 L 37.5 7.6914 L 36.075 7.6914 L 36.075 8.2442 L 37.5 8.2442 L 37.5 8.9006 L 38.176 8.9006 C 38.366 8.8747 38.379 8.8056 38.21 8.6933 L 38.21 8.2442 L 39.741 8.2442 L 39.741 8.9697 L 40.417 8.9697 C 40.607 8.9438 40.62 8.8747 40.451 8.7624 L 40.451 8.2442 L 42.159 8.2442 L 42.159 7.6914 L 40.451 7.6914 Z M 39.741 7.6914 L 38.21 7.6914 L 38.21 7.1041 L 39.741 7.1041 Z " fill="#cc0000" fill-rule="evenodd"/>
<path transform="matrix(1.8621345,0,0,-1.8624057,245.27123,150.78714)" d="M 46.362 7.346 L 49.672 7.346 L 49.316 4.2367 C 49.221 3.4076 48.878 2.9931 48.284 2.9931 L 46.861 2.9931 L 46.684 3.7531 L 48.213 3.7531 C 48.381 3.7509 48.487 3.9237 48.534 4.2713 L 48.817 6.6896 L 46.256 6.6896 C 45.95 5.2127 44.929 3.9474 43.197 2.8894 L 42.698 3.6149 C 44.549 4.5347 45.533 5.9727 45.652 7.9333 L 45.686 8.5551 L 42.698 8.5551 L 42.698 9.3151 L 46.185 9.3151 L 46.185 10.697 L 46.967 10.697 C 47.204 10.65 47.217 10.557 47.003 10.421 L 47.003 9.3151 L 50.596 9.3151 L 50.596 8.5551 L 46.505 8.5551 Z " fill="#cc0000" fill-rule="evenodd"/>
<path transform="matrix(1.8621345,0,0,-1.8624057,245.27123,150.78714)" d="M 52.094 8.8315 L 52.094 3.0276 L 51.381 3.0276 L 51.381 9.4879 L 53.907 9.4879 L 54.441 10.766 L 55.296 10.455 C 55.391 10.36 55.356 10.304 55.188 10.282 L 54.655 9.4879 L 58.321 9.4879 L 58.321 3.5458 C 58.321 3.1766 58.131 2.9931 57.751 2.9931 L 56.719 2.9931 L 56.647 3.7531 L 57.466 3.7531 C 57.561 3.7509 57.608 3.7963 57.608 3.8913 L 57.608 8.8315 Z M 53.907 7.0696 L 53.907 5.6186 L 55.795 5.6186 L 55.795 7.0696 Z M 55.795 4.5477 L 55.795 4.9622 L 53.907 4.9622 L 53.907 4.3404 L 53.197 4.3404 L 53.197 7.726 L 56.505 7.726 L 56.505 4.5477 Z " fill="#cc0000" fill-rule="evenodd"/>
</g>
</g>
</g>
</g>
</g>
</g>
</svg>
