<?xml version="1.0" encoding="UTF-8" standalone="no"?>
<!DOCTYPE svg PUBLIC "-//W3C//DTD SVG 1.1//EN" "http://www.w3.org/Graphics/SVG/1.1/DTD/svg11.dtd">
<svg xmlns="http://www.w3.org/2000/svg" xmlns:xlink="http://www.w3.org/1999/xlink" version="1.1" width="189pt" height="170.04pt" viewBox="0 0 189 170.04">
<g enable-background="new">
<g>
<g id="Layer-1" data-name="P">
<clipPath id="cp0">
<path transform="matrix(1,0,0,-1,0,170.04)" d="M .000002816 -.000015259 L 189 -.000015259 L 189 170.03998 L .000002816 170.03998 Z " fill-rule="evenodd"/>
</clipPath>
<g clip-path="url(#cp0)">
<text xml:space="preserve" transform="matrix(1 0 -0 1 0 170.04)" font-size="11.04" font-family="Calibri"><tspan y="-.12" x="188.88"> </tspan></text>
</g>
</g>
<g id="Layer-1" data-name="P">
<clipPath id="cp1">
<path transform="matrix(1,0,0,-1,0,170.04)" d="M .000002816 .24004 L 188.78 .24004 L 188.78 170.04004 L .000002816 170.04004 Z " fill-rule="evenodd"/>
</clipPath>
<g clip-path="url(#cp1)">
<clipPath id="cp2">
<path transform="matrix(.093221668,0,0,-.09322124,0,169.79998)" d="M 0 0 L 2025.01 0 L 2025.01 1821.43 L 0 1821.43 Z " fill-rule="evenodd"/>
</clipPath>
<g clip-path="url(#cp2)">
<path transform="matrix(.093221668,0,0,-.09322124,0,169.79998)" d="M 106.61 221.25 L 106.61 1685.75 L 121.61 1685.75 L 121.61 221.25 C 121.61 217.11 118.25 213.75 114.11 213.75 C 109.96 213.75 106.61 217.11 106.61 221.25 Z M 114.11 1805.63 L 69.107 1655.63 L 106.61 1685.63 L 121.61 1685.63 L 159.11 1655.63 Z "/>
<path transform="matrix(.093221668,0,0,-.09322124,0,169.79998)" d="M 114.11 228.75 L 1801.73 228.75 L 1801.73 213.75 L 114.11 213.75 C 109.96 213.75 106.61 217.11 106.61 221.25 C 106.61 225.4 109.96 228.75 114.11 228.75 Z M 1921.61 221.25 L 1771.61 266.25 L 1801.61 228.75 L 1801.61 213.75 L 1771.61 176.25 Z "/>
<path transform="matrix(.093221668,0,0,-.09322124,0,169.79998)" stroke-width="15" stroke-linecap="round" stroke-linejoin="round" fill="none" stroke="#93c47d" d="M 1524.11 1216.88 L 1524.11 1693.13 "/>
<path transform="matrix(.093221668,0,0,-.09322124,0,169.79998)" stroke-width="15" stroke-linecap="round" stroke-linejoin="round" fill="none" stroke="#990000" d="M 1164.11 221.25 L 1531.61 1216.88 "/>
<path transform="matrix(.093221668,0,0,-.09322124,0,169.79998)" stroke-width="15" stroke-linecap="round" stroke-linejoin="round" fill="none" stroke="#990000" d="M 984.85 233.44 L 1531.61 1714.69 "/>
<path transform="matrix(.093221668,0,0,-.09322124,0,169.79998)" stroke-width="15" stroke-linecap="round" stroke-linejoin="round" fill="none" stroke="#990000" d="M 1098.62 223.84 L 1531.61 1396.88 "/>
<path transform="matrix(.093221668,0,0,-.09322124,0,169.79998)" stroke-width="15" stroke-linecap="round" stroke-linejoin="round" fill="none" stroke="#990000" d="M 1038.6 224.93 L 1531.61 1560.58 "/>
<clipPath id="cp3">
<path transform="matrix(1.8644631,0,0,-1.8644415,149.45577,176.76519)" d="M 0 0 L 10.838 0 L 10.838 18.91 L 0 18.91 Z " fill-rule="evenodd"/>
</clipPath>
<g clip-path="url(#cp3)">
<path transform="matrix(1.8644631,0,0,-1.8644415,149.45577,176.76519)" d="M 8.5882 5.7792 C 8.0748 5.8064 7.6078 5.8204 7.1871 5.8204 L 7.1753 5.8204 C 6.6777 5.8204 6.1459 5.8064 5.5799 5.7792 L 5.5799 6.5624 L 6.041 6.5624 L 5.1978 7.7578 L 4.2821 6.5447 C 4.2902 6.5561 4.2943 6.572 4.2943 6.5918 C 4.2943 6.6308 4.2862 6.6522 4.27 6.6566 C 4.3105 6.6367 4.3466 6.6191 4.3789 6.6036 C 4.4882 6.5756 4.6542 6.562 4.8765 6.5624 L 4.8765 5.7792 C 4.4032 5.8064 3.9645 5.8204 3.56 5.8204 L 3.4511 5.8204 C 3.0993 5.8204 2.6992 5.8064 2.2502 5.7792 L 2.2502 6.5624 C 2.4563 6.562 2.6223 6.5639 2.7474 6.5679 C 2.8729 6.5716 2.9984 6.5815 3.1235 6.5977 C 3.1843 6.6132 3.2398 6.6257 3.2903 6.6356 C 3.3411 6.6452 3.3742 6.6603 3.3904 6.6802 L 4.7065 8.435 L 3.2023 10.573 L 2.3109 10.573 L 2.3109 11.356 C 2.602 11.344 2.8527 11.336 3.0628 11.332 C 3.2733 11.328 3.4857 11.326 3.6999 11.326 L 4.2214 11.326 C 4.387 11.326 4.5497 11.328 4.7094 11.332 C 4.8692 11.336 5.0705 11.344 5.313 11.356 L 5.313 10.573 L 4.8522 10.573 L 5.5618 9.5715 L 6.338 10.602 C 6.3299 10.59 6.3259 10.576 6.3259 10.561 C 6.3259 10.529 6.3362 10.507 6.3564 10.496 C 6.32 10.503 6.2795 10.515 6.235 10.531 C 6.126 10.559 5.9641 10.572 5.7499 10.573 L 5.7499 11.356 C 6.0248 11.344 6.2615 11.336 6.4595 11.332 C 6.6575 11.328 6.8559 11.326 7.0539 11.326 L 7.1632 11.326 C 7.345 11.326 7.525 11.328 7.7027 11.332 C 7.8809 11.336 8.1032 11.344 8.37 11.356 L 8.37 10.573 C 8.1639 10.572 7.9972 10.57 7.8698 10.566 C 7.7425 10.562 7.6159 10.553 7.4904 10.537 C 7.4381 10.529 7.3866 10.521 7.3358 10.513 C 7.2854 10.505 7.2541 10.492 7.2419 10.472 L 6.0469 8.8943 L 7.6847 6.5624 L 8.5882 6.5624 L 8.5882 5.7792 Z " fill-rule="evenodd"/>
</g>
<clipPath id="cp4">
<path transform="matrix(1.864462,0,0,-1.8644415,12.379837,28.893265)" d="M 0 0 L 8.6305 0 L 8.6305 18.91 L 0 18.91 Z " fill-rule="evenodd"/>
</clipPath>
<g clip-path="url(#cp4)">
<path transform="matrix(1.864462,0,0,-1.8644415,12.379837,28.893265)" d="M 6.3796 7.3161 C 6.3796 7.1196 6.3483 6.9271 6.2858 6.7387 C 6.2232 6.5502 6.136 6.3802 6.0248 6.2293 C 5.9137 6.078 5.7738 5.9544 5.606 5.8587 C 5.4382 5.7623 5.2453 5.7144 5.0271 5.7144 C 4.7886 5.7144 4.5409 5.7369 4.284 5.7821 C 4.0271 5.827 3.7897 5.936 3.5711 6.109 C 3.3731 6.2577 3.234 6.4402 3.153 6.6562 C 3.072 6.8719 3.0315 7.092 3.0315 7.3161 L 3.0315 10.573 L 2.2491 10.573 L 2.2491 11.22 C 2.5726 11.22 2.8273 11.284 3.0131 11.411 C 3.1994 11.539 3.355 11.712 3.4802 11.93 C 3.6057 12.147 3.7006 12.398 3.7654 12.68 C 3.8302 12.963 3.8622 13.287 3.8622 13.652 L 4.6631 13.652 L 4.6631 11.35 L 6.1673 11.35 L 6.1673 10.573 L 4.6631 10.573 L 4.6631 7.3161 C 4.6631 7.1667 4.6734 7.0302 4.6936 6.9065 C 4.7139 6.7828 4.7543 6.6757 4.8147 6.5859 C 4.8754 6.4755 4.9766 6.4207 5.118 6.4211 C 5.2556 6.4207 5.3668 6.5009 5.4514 6.6621 C 5.5364 6.823 5.5788 7.0408 5.5788 7.3161 L 5.5788 8.1288 L 6.3796 8.1288 L 6.3796 7.3161 Z " fill-rule="evenodd"/>
</g>
</g>
</g>
</g>
</g>
</g>
</svg>
