<?xml version="1.0" encoding="UTF-8" standalone="no"?>
<svg
   xmlns:dc="http://purl.org/dc/elements/1.1/"
   xmlns:cc="http://creativecommons.org/ns#"
   xmlns:rdf="http://www.w3.org/1999/02/22-rdf-syntax-ns#"
   xmlns:svg="http://www.w3.org/2000/svg"
   xmlns="http://www.w3.org/2000/svg"
   viewBox="0 0 241.28 216"
   height="216"
   width="241.28"
   xml:space="preserve"
   id="svg2"
   version="1.1"><metadata
     id="metadata8"><rdf:RDF><cc:Work
         rdf:about=""><dc:format>image/svg+xml</dc:format><dc:type
           rdf:resource="http://purl.org/dc/dcmitype/StillImage" /></cc:Work></rdf:RDF></metadata><defs
     id="defs6"><clipPath
       id="clipPath18"
       clipPathUnits="userSpaceOnUse"><path
         style="clip-rule:evenodd"
         id="path16"
         d="M 2.697e-6,0 H 180.96 V 162 H 2.697e-6 Z" /></clipPath><clipPath
       id="clipPath26"
       clipPathUnits="userSpaceOnUse"><path
         style="clip-rule:evenodd"
         id="path24"
         d="M 2.697e-6,0.20004 H 180.78 v 161.8 H 2.697e-6 Z" /></clipPath><clipPath
       id="clipPath36"
       clipPathUnits="userSpaceOnUse"><path
         id="path34"
         d="M 0,0 H 1939.3 V 1735.73 H 0 Z" /></clipPath><clipPath
       id="clipPath54"
       clipPathUnits="userSpaceOnUse"><path
         id="path52"
         d="M 0,0 H 9.0317 V 15.758 H 0 Z" /></clipPath><clipPath
       id="clipPath66"
       clipPathUnits="userSpaceOnUse"><path
         id="path64"
         d="M 0,0 H 7.1912 V 15.758 H 0 Z" /></clipPath><clipPath
       id="clipPath78"
       clipPathUnits="userSpaceOnUse"><path
         id="path76"
         d="M 0,0 H 11.796 V 15.758 H 0 Z" /></clipPath><clipPath
       id="clipPath92"
       clipPathUnits="userSpaceOnUse"><path
         id="path90"
         d="M 0,0 H 10.357 V 15.758 H 0 Z" /></clipPath><clipPath
       id="clipPath110"
       clipPathUnits="userSpaceOnUse"><path
         id="path108"
         d="M 0,0 H 8.6934 V 15.758 H 0 Z" /></clipPath><clipPath
       id="clipPath122"
       clipPathUnits="userSpaceOnUse"><path
         id="path120"
         d="M 0,0 H 8.6934 V 15.758 H 0 Z" /></clipPath></defs><g
     transform="matrix(1.3333333,0,0,-1.3333333,0,216)"
     id="g10"><g
       id="g12"><g
         clip-path="url(#clipPath18)"
         id="g14" /></g><g
       id="g20"><g
         clip-path="url(#clipPath26)"
         id="g22"><g
           transform="matrix(2.5108,0,0,2.2472,0,0.20003)"
           id="g28"><g
             transform="scale(0.037127,0.041481)"
             id="g30"><g
               clip-path="url(#clipPath36)"
               id="g32"><path
                 id="path38"
                 style="fill:#000000;fill-opacity:1;fill-rule:nonzero;stroke:none"
                 d="m 131.2,278.16 h 1380.12 v -15 H 131.2 c -4.14,0 -7.5,3.36 -7.5,7.5 0,4.14 3.36,7.5 7.5,7.5 z m 1500,-7.5 -150,45 30,-37.5 v -15 l -30,-37.5 z" /><path
                 id="path40"
                 style="fill:#000000;fill-opacity:1;fill-rule:nonzero;stroke:none"
                 d="m 408.7,135.66 v 1068.87 h 15 V 135.66 c 0,-4.14 -3.36,-7.5 -7.5,-7.5 -4.14,0 -7.5,3.36 -7.5,7.5 z m 7.5,1188.75 -45,-150 37.5,30 h 15 l 37.5,-30 z" /><path
                 id="path42"
                 style="fill:#000000;fill-opacity:1;fill-rule:nonzero;stroke:none"
                 d="m 415.43,277.16 1195.22,690.06 7.5,-12.99 L 422.93,264.17 c -3.59,-2.08 -8.17,-0.85 -10.24,2.74 -2.08,3.59 -0.85,8.17 2.74,10.25 z m 1302.79,743.5 -152.4,-36.03 44.73,-17.47 7.5,-13 -7.23,-47.47 z" /><path
                 id="path44"
                 style="fill:#000000;fill-opacity:1;fill-rule:nonzero;stroke:none"
                 d="m 409.71,284.89 690.06,1195.22 12.99,-7.5 L 422.7,277.39 c -2.08,-3.59 -6.66,-4.82 -10.25,-2.74 -3.59,2.07 -4.82,6.65 -2.74,10.24 z m 756.49,1295.29 -113.97,-107.4 47.47,7.23 13,-7.5 17.47,-44.73 z" /><g
                 transform="matrix(2.5088,0,0,4.3772,1620.4,120.58)"
                 id="g46"><g
                   transform="scale(7.9719,4.5691)"
                   id="g48"><g
                     clip-path="url(#clipPath54)"
                     id="g50"><path
                       id="path56"
                       style="fill:#000000;fill-opacity:1;fill-rule:evenodd;stroke:none"
                       d="M 7.1569,4.816 C 6.729,4.8387 6.3398,4.8504 5.9893,4.8504 H 5.9794 C 5.5648,4.8504 5.1216,4.8387 4.6499,4.816 V 5.4687 H 5.0342 L 4.3315,6.4648 3.5685,5.4539 c 0.0067,0.0095 0.0101,0.0227 0.0101,0.0393 0,0.0325 -0.0068,0.0503 -0.0203,0.054 C 3.5921,5.5306 3.6221,5.5159 3.6491,5.503 3.7402,5.4797 3.8785,5.4684 4.0638,5.4687 V 4.816 C 3.6694,4.8387 3.3038,4.8504 2.9667,4.8504 H 2.8759 C 2.5827,4.8504 2.2493,4.8387 1.8752,4.816 v 0.6527 c 0.1717,-3e-4 0.31,0.0012 0.4143,0.0046 0.1046,0.003 0.2092,0.0113 0.3135,0.0248 0.0506,0.0129 0.0969,0.0233 0.1389,0.0316 0.0423,0.008 0.0699,0.0205 0.0834,0.0371 L 3.9221,7.0292 2.6686,8.8105 H 1.9258 V 9.4631 C 2.1684,9.453 2.3772,9.4463 2.5524,9.4432 2.7278,9.4398 2.9048,9.4383 3.0833,9.4386 h 0.4345 c 0.1381,-3e-4 0.2736,0.0012 0.4067,0.0046 0.1331,0.0031 0.3009,0.0098 0.503,0.0199 V 8.8105 H 4.0435 L 4.6349,7.9763 5.2817,8.835 C 5.2749,8.8249 5.2716,8.8135 5.2716,8.8007 5.2716,8.7743 5.2802,8.7562 5.297,8.7467 5.2667,8.7528 5.2329,8.7626 5.1958,8.7761 5.105,8.7988 4.9701,8.8102 4.7916,8.8105 V 9.4631 C 5.0207,9.453 5.2179,9.4463 5.3829,9.4432 5.5479,9.4398 5.7132,9.4383 5.8782,9.4386 H 5.9693 C 6.1208,9.4383 6.2708,9.4398 6.4189,9.4432 6.5674,9.4463 6.7526,9.453 6.975,9.4631 V 8.8105 C 6.8032,8.8102 6.6643,8.8083 6.5582,8.8053 6.4521,8.8019 6.3466,8.7939 6.242,8.781 6.1984,8.7743 6.1555,8.7675 6.1132,8.7611 6.0711,8.7544 6.0451,8.743 6.0349,8.7271 L 5.0391,7.4119 6.4039,5.4687 h 0.753 z" /></g></g></g><g
                 transform="matrix(1.9976,0,0,4.3772,224.29,1174.33)"
                 id="g58"><g
                   transform="scale(10.012,4.5691)"
                   id="g60"><g
                     clip-path="url(#clipPath66)"
                     id="g62"><path
                       id="path68"
                       style="fill:#000000;fill-opacity:1;fill-rule:evenodd;stroke:none"
                       d="M 5.3168,6.0968 C 5.3168,5.933 5.2907,5.7726 5.2386,5.6156 5.1865,5.4585 5.1138,5.3168 5.0211,5.1911 4.9285,5.065 4.8126,4.962 4.6727,4.8822 4.5329,4.8019 4.3722,4.762 4.19,4.762 3.9912,4.762 3.7851,4.7807 3.5711,4.8185 3.357,4.8559 3.1592,4.9467 2.9773,5.0908 2.8123,5.2147 2.696,5.3668 2.6286,5.5469 2.5611,5.7266 2.5274,5.91 2.5274,6.0968 V 8.8105 H 1.8756 v 0.5398 c 0.2696,-3e-4 0.4818,0.0527 0.6367,0.1592 0.1552,0.1061 0.285,0.2502 0.3892,0.4318 0.1043,0.1817 0.1834,0.3897 0.2374,0.6257 0.054,0.236 0.0807,0.505 0.0807,0.81 H 3.8867 V 9.4582 H 5.1401 V 8.8105 H 3.8867 V 6.0968 C 3.8867,5.9723 3.8952,5.8585 3.9121,5.7554 3.929,5.6524 3.9627,5.5631 4.013,5.4883 4.0636,5.3963 4.148,5.3506 4.2657,5.3509 c 0.1147,-3e-4 0.2074,0.0665 0.2779,0.2009 0.0709,0.134 0.1061,0.3156 0.1061,0.545 V 6.774 h 0.6671 z" /></g></g></g><g
                 transform="matrix(3.2766,0,0,4.3772,1670.74,780.58)"
                 id="g70"><g
                   transform="scale(6.104,4.5691)"
                   id="g72"><g
                     clip-path="url(#clipPath78)"
                     id="g74"><path
                       id="path80"
                       style="fill:#000000;fill-opacity:1;fill-rule:evenodd;stroke:none"
                       d="M 7.1531,4.816 C 6.7253,4.8387 6.3361,4.8504 5.9855,4.8504 H 5.9757 C 5.561,4.8504 5.1179,4.8387 4.6461,4.816 V 5.4687 H 5.0304 L 4.3278,6.4648 3.5647,5.4539 c 0.0068,0.0095 0.0101,0.0227 0.0101,0.0393 0,0.0325 -0.0067,0.0503 -0.0202,0.054 C 3.5883,5.5306 3.6184,5.5159 3.6454,5.503 3.7365,5.4797 3.8748,5.4684 4.06,5.4687 V 4.816 C 3.6656,4.8387 3.3,4.8504 2.963,4.8504 H 2.8722 C 2.579,4.8504 2.2456,4.8387 1.8714,4.816 v 0.6527 c 0.1718,-3e-4 0.3101,0.0012 0.4144,0.0046 0.1046,0.003 0.2091,0.0113 0.3134,0.0248 0.0506,0.0129 0.0969,0.0233 0.139,0.0316 0.0423,0.008 0.0699,0.0205 0.0834,0.0371 L 3.9183,7.0292 2.6649,8.8105 H 1.922 V 9.4631 C 2.1646,9.453 2.3735,9.4463 2.5486,9.4432 2.724,9.4398 2.901,9.4383 3.0795,9.4386 h 0.4346 c 0.138,-3e-4 0.2736,0.0012 0.4067,0.0046 0.1331,0.0031 0.3009,0.0098 0.503,0.0199 V 8.8105 H 4.0398 L 4.6311,7.9763 5.278,8.835 C 5.2712,8.8249 5.2678,8.8135 5.2678,8.8007 5.2678,8.7743 5.2764,8.7562 5.2933,8.7467 5.2629,8.7528 5.2292,8.7626 5.1921,8.7761 5.1013,8.7988 4.9663,8.8102 4.7878,8.8105 V 9.4631 C 5.017,9.453 5.2142,9.4463 5.3792,9.4432 5.5442,9.4398 5.7095,9.4383 5.8745,9.4386 H 5.9656 C 6.1171,9.4383 6.2671,9.4398 6.4152,9.4432 6.5636,9.4463 6.7489,9.453 6.9713,9.4631 V 8.8105 C 6.7995,8.8102 6.6606,8.8083 6.5544,8.8053 6.4483,8.8019 6.3428,8.7939 6.2382,8.781 6.1947,8.7743 6.1517,8.7675 6.1094,8.7611 6.0674,8.7544 6.0413,8.743 6.0312,8.7271 L 5.0354,7.4119 6.4002,5.4687 h 0.7529 z" /><path
                       id="path82"
                       style="fill:#000000;fill-opacity:1;fill-rule:evenodd;stroke:none"
                       d="M 9.9089,10.646 C 9.9089,10.191 9.8096,9.7637 9.6108,9.3647 9.4121,8.9654 9.1293,8.6188 8.7619,8.3247 8.7116,8.2949 8.6643,8.2802 8.6202,8.2805 8.5631,8.2802 8.5076,8.3047 8.4536,8.3541 L 8.3727,8.4277 C 8.3389,8.4731 8.3221,8.524 8.3221,8.5798 c 0,0.062 0.0269,0.1141 0.0809,0.1571 0.2764,0.2386 0.5006,0.51 0.6723,0.8143 0.1718,0.3042 0.2629,0.5598 0.2727,0.7658 -0.054,-0.053 -0.2104,-0.079 -0.4699,-0.079 -0.3,0 -0.5248,0.09 -0.6747,0.27 -0.1497,0.18 -0.2249,0.378 -0.2249,0.594 0,0.219 0.0752,0.418 0.2249,0.599 0.1499,0.179 0.3747,0.269 0.6747,0.27 C 9.0535,11.97 9.2069,11.929 9.3382,11.848 9.4694,11.766 9.578,11.662 9.6639,11.536 9.7497,11.41 9.8123,11.269 9.851,11.112 9.8896,10.955 9.9089,10.799 9.9089,10.646 Z" /></g></g></g><g
                 transform="matrix(2.8771,0,0,4.3772,1190.13,1430.1)"
                 id="g84"><g
                   transform="scale(6.9515,4.5691)"
                   id="g86"><g
                     clip-path="url(#clipPath92)"
                     id="g88"><path
                       id="path94"
                       style="fill:#000000;fill-opacity:1;fill-rule:evenodd;stroke:none"
                       d="M 5.314,6.0968 C 5.314,5.933 5.2879,5.7726 5.2358,5.6156 5.1836,5.4585 5.111,5.3168 5.0183,5.1911 4.9257,5.065 4.8092,4.962 4.6693,4.8822 4.5294,4.8019 4.3687,4.762 4.1869,4.762 3.9881,4.762 3.7817,4.7807 3.5676,4.8185 3.3536,4.8559 3.1557,4.9467 2.9736,5.0908 2.8085,5.2147 2.6926,5.3668 2.6251,5.5469 2.5577,5.7266 2.5239,5.91 2.5239,6.0968 v 2.7137 h -0.652 v 0.5398 c 0.2696,-3e-4 0.4818,0.0527 0.6367,0.1592 0.1552,0.1061 0.2849,0.2502 0.3892,0.4318 0.1046,0.1817 0.1837,0.3897 0.2377,0.6257 0.054,0.236 0.0807,0.505 0.0807,0.81 H 3.8835 V 9.4582 H 5.137 V 8.8105 H 3.8835 V 6.0968 C 3.8835,5.9723 3.8921,5.8585 3.909,5.7554 3.9259,5.6524 3.9596,5.5631 4.0099,5.4883 4.0605,5.3963 4.1448,5.3506 4.2626,5.3509 c 0.1147,-3e-4 0.2073,0.0665 0.2779,0.2009 0.0708,0.134 0.1061,0.3156 0.1061,0.545 V 6.774 H 5.314 Z" /><path
                       id="path96"
                       style="fill:#000000;fill-opacity:1;fill-rule:evenodd;stroke:none"
                       d="M 8.4708,10.646 C 8.4708,10.191 8.3714,9.7637 8.1727,9.3647 7.9739,8.9654 7.6912,8.6188 7.3237,8.3247 7.2734,8.2949 7.2262,8.2802 7.182,8.2805 7.125,8.2802 7.0695,8.3047 7.0155,8.3541 L 6.9345,8.4277 C 6.9008,8.4731 6.8839,8.524 6.8839,8.5798 c 0,0.062 0.027,0.1141 0.081,0.1571 0.2763,0.2386 0.5005,0.51 0.6723,0.8143 C 7.8089,9.8554 7.9,10.111 7.9098,10.317 7.8559,10.264 7.6994,10.238 7.44,10.238 c -0.3,0 -0.5248,0.09 -0.6748,0.27 -0.1496,0.18 -0.2248,0.378 -0.2248,0.594 0,0.219 0.0752,0.418 0.2248,0.599 0.15,0.179 0.3748,0.269 0.6748,0.27 0.1754,-10e-4 0.3288,-0.042 0.46,-0.123 0.1313,-0.082 0.2399,-0.186 0.3257,-0.312 0.0859,-0.126 0.1485,-0.267 0.1871,-0.424 0.0387,-0.157 0.058,-0.313 0.058,-0.466 z" /></g></g></g><path
                 id="path98"
                 style="fill:none;stroke:#000000;stroke-width:15;stroke-linecap:round;stroke-linejoin:round;stroke-miterlimit:10;stroke-dasharray:none;stroke-opacity:1"
                 d="m 914.61,558.36 c 56.48,-85.32 86.59,-185.38 86.59,-287.7" /><path
                 id="path100"
                 style="fill:none;stroke:#000000;stroke-width:15;stroke-linecap:round;stroke-linejoin:round;stroke-miterlimit:10;stroke-dasharray:none;stroke-opacity:1"
                 d="M 416.2,981.28 C 537.92,981.29 654.46,931.97 739.21,844.6" /><g
                 transform="matrix(2.4148,0,0,4.3772,531.77,870.58)"
                 id="g102"><g
                   transform="scale(8.2821,4.5691)"
                   id="g104"><g
                     clip-path="url(#clipPath110)"
                     id="g106"><path
                       id="path112"
                       style="fill:#000000;fill-opacity:1;fill-rule:evenodd;stroke:none"
                       d="M 6.8181,8.3688 C 6.8181,7.9171 6.7761,7.468 6.6918,7.0215 6.6077,6.5749 6.439,6.1554 6.1863,5.7631 5.9943,5.465 5.7407,5.2205 5.4257,5.0292 5.1107,4.8378 4.766,4.7424 4.3918,4.7424 4.0011,4.7424 3.6441,4.8411 3.3205,5.039 2.9972,5.2368 2.731,5.4929 2.5218,5.8073 2.259,6.206 2.0854,6.632 2.0011,7.0853 1.917,7.5383 1.8747,7.9891 1.8747,8.4375 c 0,0.4478 0.0448,0.8953 0.134,1.3419 0.0896,0.4466 0.257,0.8646 0.503,1.2536 0.192,0.301 0.4457,0.548 0.7606,0.741 0.3153,0.193 0.6631,0.29 1.0437,0.29 0.3843,0 0.7383,-0.1 1.0615,-0.3 0.3236,-0.199 0.5898,-0.455 0.7987,-0.765 0.2628,-0.406 0.4355,-0.834 0.518,-1.2834 0.0828,-0.45 0.1239,-0.899 0.1239,-1.3468 z m -1.486,0.3583 c 0,0.3333 -0.0116,0.6897 -0.0352,1.0694 C 5.2733,10.176 5.2107,10.51 5.1095,10.798 5.0288,11.017 4.927,11.193 4.804,11.325 4.681,11.458 4.5436,11.524 4.3918,11.524 4.2133,11.524 4.056,11.449 3.9195,11.301 3.783,11.152 3.676,10.964 3.5984,10.739 3.4975,10.457 3.4327,10.132 3.4039,9.7622 3.3751,9.3923 3.3607,9.0473 3.3607,8.7271 Z M 3.3607,8.0793 C 3.3607,7.7389 3.3735,7.3779 3.3987,6.997 3.4242,6.6157 3.4907,6.2814 3.5984,5.9937 3.6726,5.7809 3.7713,5.6082 3.8943,5.4757 4.0173,5.3432 4.1578,5.277 4.316,5.2773 4.4881,5.277 4.6424,5.3506 4.7785,5.4978 4.915,5.645 5.0221,5.83 5.0997,6.0526 5.2076,6.3336 5.2733,6.6614 5.2969,7.0362 5.3205,7.4107 5.3321,7.7585 5.3321,8.0793 Z" /></g></g></g><g
                 transform="matrix(2.4148,0,0,4.3772,974.27,270.58)"
                 id="g114"><g
                   transform="scale(8.2821,4.5691)"
                   id="g116"><g
                     clip-path="url(#clipPath122)"
                     id="g118"><path
                       id="path124"
                       style="fill:#000000;fill-opacity:1;fill-rule:evenodd;stroke:none"
                       d="M 6.8181,8.3688 C 6.8181,7.9171 6.7761,7.468 6.6918,7.0215 6.6077,6.5749 6.439,6.1554 6.1863,5.7631 5.9943,5.465 5.7407,5.2205 5.4257,5.0292 5.1107,4.8378 4.766,4.7424 4.3918,4.7424 4.0011,4.7424 3.6441,4.8411 3.3205,5.039 2.9972,5.2368 2.731,5.4929 2.5218,5.8073 2.259,6.206 2.0854,6.632 2.0011,7.0853 1.917,7.5383 1.8747,7.9891 1.8747,8.4375 c 0,0.4478 0.0448,0.8953 0.134,1.3419 0.0896,0.4466 0.257,0.8646 0.503,1.2536 0.192,0.301 0.4457,0.548 0.7606,0.741 0.3153,0.193 0.6631,0.29 1.0437,0.29 0.3843,0 0.7383,-0.1 1.0615,-0.3 0.3236,-0.199 0.5898,-0.455 0.7987,-0.765 0.2628,-0.406 0.4355,-0.834 0.518,-1.2834 0.0828,-0.45 0.1239,-0.899 0.1239,-1.3468 z m -1.486,0.3583 c 0,0.3333 -0.0116,0.6897 -0.0352,1.0694 C 5.2733,10.176 5.2107,10.51 5.1095,10.798 5.0288,11.017 4.927,11.193 4.804,11.325 4.681,11.458 4.5436,11.524 4.3918,11.524 4.2133,11.524 4.056,11.449 3.9195,11.301 3.783,11.152 3.676,10.964 3.5984,10.739 3.4975,10.457 3.4327,10.132 3.4039,9.7622 3.3751,9.3923 3.3607,9.0473 3.3607,8.7271 Z M 3.3607,8.0793 C 3.3607,7.7389 3.3735,7.3779 3.3987,6.997 3.4242,6.6157 3.4907,6.2814 3.5984,5.9937 3.6726,5.7809 3.7713,5.6082 3.8943,5.4757 4.0173,5.3432 4.1578,5.277 4.316,5.2773 4.4881,5.277 4.6424,5.3506 4.7785,5.4978 4.915,5.645 5.0221,5.83 5.0997,6.0526 5.2076,6.3336 5.2733,6.6614 5.2969,7.0362 5.3205,7.4107 5.3321,7.7585 5.3321,8.0793 Z" /></g></g></g></g></g></g></g></g></g></svg>