<?xml version="1.0" encoding="utf-8"?>
<!-- Generator: Adobe Illustrator 19.0.0, SVG Export Plug-In . SVG Version: 6.00 Build 0)  -->
<svg version="1.1" id="Layer_1" xmlns="http://www.w3.org/2000/svg" xmlns:xlink="http://www.w3.org/1999/xlink" x="0px" y="0px"
	 viewBox="0 0 215.3333282 118.6666641" style="enable-background:new 0 0 215.3333282 118.6666641;" xml:space="preserve">
<style type="text/css">
	.st0{fill:none;stroke:#BE1E2D;stroke-miterlimit:10;}
	.st1{fill:none;stroke:#000000;stroke-miterlimit:10;}
	.st2{fill:#F15A29;}
	.st3{fill:none;stroke:#1C75BC;stroke-miterlimit:10;}
	.st4{fill:#1C75BC;}
</style>
<ellipse id="XMLID_1_" transform="matrix(0.9678746 0.2514332 -0.2514332 0.9678746 17.7621059 -26.3507881)" class="st0" cx="112" cy="56.3333321" rx="100.0579681" ry="45.413044"/>
<path id="XMLID_2_" class="st1" d="M15.1564255,31.1754398c0,0,42.9545212-6.5571194,101.1917267,8.5716648
	s92.4954147,41.7441216,92.4954147,41.7441216"/>
<path id="XMLID_3_" class="st1" d="M26.6530018,16.4462185c0,0,44.6930618-5.6450615,93.8937912,7.1362324
	s85.4965134,39.4655151,85.4965134,39.4655151"/>
<path id="XMLID_5_" class="st1" d="M198.8087158,95.2432556c0,0-45.3044128-25.2006149-87.4841995-36.15802
	S17.3030605,48.0919571,17.3030605,48.0919571"/>
<path id="XMLID_6_" class="st1" d="M32.3341751,66.996048c0,0,30.6008148,0.6990509,73.835968,11.9306183
	s70.232399,25.4952698,70.232399,25.4952698"/>
<path id="XMLID_7_" class="st1" d="M32.3341751,66.996048c0,0,0.627243-16.4075012,7.749157-34.07938
	S57.0426865,6.5841012,57.0426865,6.5841012"/>
<path id="XMLID_8_" class="st1" d="M100.5816574,100.287468c0,0-6.7483215-22.1208038,1.0016785-49.7458
	s21.8350067-38.162468,21.8350067-38.162468"/>
<path id="XMLID_9_" class="st1" d="M61.499157,85.708992c0,0-2.5408249-18.8300476,6.2091789-44.6673241
	S88.0942841,6.2839837,88.0942841,6.2839837"/>
<path id="XMLID_10_" class="st1" d="M176.4025421,104.421936c0,0,3.0557861-15.0052719,9.9307861-25.6302719
	s19.7099762-15.7436752,19.7099762-15.7436752"/>
<path id="XMLID_11_" class="st1" d="M137.5581665,106.5149841c0,0-2.1749878-21.6052551,6.612442-45.1148338
	c8.7874146-23.5095863,24.1872711-31.6384735,24.1872711-31.6384735"/>
<g id="XMLID_4_">
	<g id="XMLID_52_">
		<g id="XMLID_57_">
			<polygon id="XMLID_58_" class="st2" points="128.5816193,46.3773613 129.1529083,44.5492973 119.8339462,44.1646843 
				127.7124863,49.1586113 128.2837982,47.3304253 135.684433,49.6431389 135.982254,48.6900749 			"/>
		</g>
	</g>
</g>
<g id="XMLID_12_">
	<g id="XMLID_67_">
		<g id="XMLID_68_">
			<polygon id="XMLID_69_" class="st2" points="106.5790634,45.9754448 104.7509995,45.4041557 104.3663864,54.7231255 
				109.3603287,46.8445854 107.5321274,46.2732658 107.7307358,45.6377373 109.2554855,40.7584953 108.3024216,40.4606743 
				106.7776566,45.3398857 			"/>
		</g>
	</g>
</g>
<g id="XMLID_13_">
	<g id="XMLID_63_">
		<g id="XMLID_64_">
			<polygon id="XMLID_65_" class="st2" points="121.0850449,58.4157524 120.5137558,60.2438164 129.8327179,60.6284294 
				121.9541855,55.6345024 121.3828659,57.4626884 113.9822311,55.1500053 113.6843948,56.1030693 			"/>
		</g>
	</g>
</g>
<g id="XMLID_14_">
	<g id="XMLID_53_">
		<g id="XMLID_54_">
			<polygon id="XMLID_55_" class="st2" points="141.7675018,59.8176994 143.5955658,60.388958 143.9801788,51.0700188 
				138.9862518,58.9485283 140.8144379,59.5198479 140.6158295,60.1553764 139.0910797,65.0346146 140.0441437,65.3324661 
				141.5688934,60.453228 			"/>
		</g>
	</g>
</g>
<g id="XMLID_15_">
	<g id="XMLID_48_">
		<g id="XMLID_49_">
			<polygon id="XMLID_50_" class="st2" points="134.5211639,30.7287693 135.0924225,28.9007359 125.7734909,28.5160923 
				133.6520233,33.5100517 134.2233429,31.6818333 141.6239777,33.9945488 141.9217987,33.0414848 			"/>
		</g>
	</g>
</g>
<g id="XMLID_16_">
	<g id="XMLID_43_">
		<g id="XMLID_44_">
			<polygon id="XMLID_45_" class="st2" points="129.0850372,39.4154778 128.5137482,41.2435417 137.8327179,41.6281548 
				129.9541779,36.6342278 129.3828583,38.4624138 121.9822311,36.1497307 121.6844101,37.1027946 			"/>
		</g>
	</g>
</g>
<g id="XMLID_17_">
	<g id="XMLID_39_">
		<g id="XMLID_40_">
			<polygon id="XMLID_41_" class="st2" points="148.4467316,44.8977776 150.0655975,45.9211845 152.8405609,37.016674 
				145.9836884,43.3407707 147.6027069,44.3642387 147.2469025,44.9270744 146.5875702,45.9700737 147.4315948,46.5036125 
				148.0909271,45.4606133 			"/>
		</g>
	</g>
</g>
<g id="XMLID_22_">
	<g id="XMLID_35_">
		<g id="XMLID_36_">
			<polygon id="XMLID_37_" class="st2" points="115.3107681,27.7464695 113.6918869,26.723093 110.9169388,35.6276054 
				117.7737961,29.3035069 116.1547775,28.2800388 116.510582,27.7172031 117.1699142,26.6742039 116.3259048,26.1406651 
				115.6665573,27.1836643 			"/>
		</g>
	</g>
</g>
<path id="XMLID_27_" class="st3" d="M90.1122894,109.7216263C36.6270599,95.8273087-1.6191173,64.8847961,4.6870608,40.6096001"/>
<g id="XMLID_32_">
	<g id="XMLID_26_">
		<g id="XMLID_28_">
			<polygon id="XMLID_29_" class="st4" points="95.6010971,111.5938187 95.1411819,113.4530106 104.4663467,113.2746048 
				96.3008347,108.7651749 95.8408737,110.6245193 95.1945114,110.4646072 90.2321701,109.2370377 89.9923782,110.206337 
				94.9547348,111.4339066 			"/>
		</g>
	</g>
</g>
<g id="XMLID_18_">
</g>
<g id="XMLID_19_">
</g>
<g id="XMLID_20_">
</g>
<g id="XMLID_21_">
</g>
<g id="XMLID_23_">
</g>
<g id="XMLID_24_">
</g>
</svg>
