<?xml version="1.0" encoding="utf-8"?>
<!-- Generator: Adobe Illustrator 19.0.0, SVG Export Plug-In . SVG Version: 6.00 Build 0)  -->
<svg version="1.1" id="Layer_1" xmlns="http://www.w3.org/2000/svg" xmlns:xlink="http://www.w3.org/1999/xlink" x="0px" y="0px"
	 viewBox="0 0 458 208" style="enable-background:new 0 0 458 208;" xml:space="preserve">
<style type="text/css">
	.st0{fill:none;stroke:#A7A9AC;stroke-miterlimit:10;}
	.st1{fill:none;stroke:#EF4136;stroke-miterlimit:10;}
	.st2{fill:#FFFFFF;stroke:#000000;stroke-miterlimit:10;}
	.st3{fill:none;stroke:#A7A9AC;stroke-miterlimit:10;stroke-dasharray:5.6426005,5.6426005;}
	.st4{fill:none;stroke:#A7A9AC;stroke-miterlimit:10;stroke-dasharray:6.6460056,6.6460056;}
	.st5{fill:#010101;}
	.st6{fill:none;stroke:#000000;}
</style>
<line id="XMLID_13_" class="st0" x1="390.4136353" y1="124.4570465" x2="434.2136841" y2="124.4570465"/>
<line id="XMLID_14_" class="st0" x1="359.8930969" y1="82.1963348" x2="403.6931458" y2="82.1963348"/>
<path id="XMLID_24_" class="st0" d="M160.5782928,81.1380768c4.0300598,0,7.2970734,11.7067871,7.2970734,26.1478348
	s-3.2670135,26.1478348-7.2970734,26.1478348"/>
<path id="XMLID_11_" class="st0" d="M153.2812195,107.2859116"/>
<line id="XMLID_9_" class="st0" x1="116.778244" y1="81.1380768" x2="160.5782928" y2="81.1380768"/>
<line id="XMLID_10_" class="st0" x1="116.778244" y1="133.4337463" x2="160.5782928" y2="133.4337463"/>
<polygon id="XMLID_1_" class="st1" points="136.8451843,176 97.3193893,137.6903839 97.3193893,30.666666 136.8451843,68.9762878 
	"/>
<ellipse id="XMLID_2_" class="st2" cx="116.778244" cy="107.2859116" rx="7.297071" ry="26.1478386"/>
<g id="XMLID_5_">
	<g id="XMLID_35_">
		<path id="XMLID_38_" class="st0" d="M160.5782928,133.4337463c-0.8646088,0-1.6941071-0.5388489-2.4637604-1.5279236"/>
		<path id="XMLID_37_" class="st3" d="M155.7277832,126.821106c-1.5010986-4.7892151-2.4465637-11.7665405-2.4465637-19.5351868
			c0-9.3529968,1.3704224-17.5590515,3.4309998-22.1805115"/>
		<path id="XMLID_36_" class="st0" d="M158.1145325,82.6660156c0.7696533-0.9891052,1.5991516-1.5279541,2.4637604-1.5279541"/>
	</g>
</g>
<g id="XMLID_40_">
	<g id="XMLID_62_">
		<g id="XMLID_63_">
			<polygon id="XMLID_64_" points="307.0720825,50.5259285 307.0720825,52.4442024 316.0958252,50.0278816 307.0720825,47.6073799 
				307.0720825,49.5258064 251.0302887,49.5258064 251.0302887,50.5259285 			"/>
		</g>
	</g>
</g>
<g id="XMLID_39_">
	<g id="XMLID_58_">
		<g id="XMLID_59_">
			<polygon id="XMLID_60_" points="307.0720825,95.9695587 307.0720825,97.8878326 316.0958252,95.4715118 307.0720825,93.0510406 
				307.0720825,94.9694672 251.0302887,94.9694672 251.0302887,95.9695587 			"/>
		</g>
	</g>
</g>
<g id="XMLID_33_">
	<g id="XMLID_54_">
		<g id="XMLID_55_">
			<polygon id="XMLID_56_" points="307.0720825,144.6591949 307.0720825,146.5774384 316.0958252,144.1611481 
				307.0720825,141.7406464 307.0720825,143.6590729 251.0302887,143.6590729 251.0302887,144.6591949 			"/>
		</g>
	</g>
</g>
<polygon id="XMLID_42_" class="st1" points="425.6011047,163.5 386.0753174,125.1903763 325.0753174,43.1666679 
	364.6011047,81.4762878 "/>
<ellipse id="XMLID_12_" transform="matrix(0.807857 -0.5893786 0.5893786 0.807857 11.2161684 241.0710907)" class="st2" cx="375.3381958" cy="103.3333359" rx="1.2594142" ry="26.1478386"/>
<path id="XMLID_17_" class="st0" d="M403.3575745,82.2096176c0.5619202-0.4099426,7.9171753,8.7151413,16.4284058,20.3814468
	c8.511261,11.6663055,14.9554749,21.4560394,14.3935547,21.8659821"/>
<path id="XMLID_16_" class="st0" d="M417.7511292,104.0756073"/>
<g id="XMLID_15_">
	<g id="XMLID_52_">
		<path id="XMLID_67_" class="st0" d="M434.2136536,124.4437561c-0.1678772,0.1224976-0.9422913-0.6062927-2.1727905-1.9997864"/>
		<path id="XMLID_66_" class="st4" d="M427.8126221,117.3196411c-2.8077393-3.54422-6.3071289-8.15802-10.0273743-13.2573242
			c-4.7067566-6.4515381-8.7814026-12.3291626-11.3886108-16.3640137"/>
		<path id="XMLID_65_" class="st0" d="M404.6327515,84.875885c-0.951355-1.597168-1.4089355-2.5570679-1.2410278-2.6795349"/>
	</g>
</g>
<line id="XMLID_41_" class="st0" x1="325.0753174" y1="43.1666679" x2="325.0753174" y2="74.0197906"/>
<path id="XMLID_44_" class="st0" d="M325.0753174,60.375c3.0913391,0,8.0629883-1.6546707,10.3067932-3.3492928"/>
<g id="XMLID_45_" transform="matrix(1 0 0 -1 0 0)">
	<g id="XMLID_46_">
		<path id="E1-MJMATHI-3B8" class="st5" d="M331.8757324-77.6958389c0,1.1840286,0.2263489,2.4318924,0.6790466,3.7436142
			c0.4527283,1.3117142,1.0679626,2.4434967,1.8457031,3.3953629s1.5845032,1.4974442,2.4202881,1.6367416
			c0.0115967,0,0.0580444,0,0.1392822,0c0.0812683,0,0.1509094,0.005806,0.2089539,0.0174103
			c0.6268311-0.0464325,1.1143799-0.3308258,1.462616-0.8531952c0.4527283-0.6964798,0.6790771-1.6309357,0.6790771-2.8033524
			c0-1.3349304-0.2611694-2.6930771-0.7835388-4.07444s-1.1898193-2.5131531-2.0024109-3.3953705
			c-0.812561-0.8822098-1.5903015-1.3233185-2.3332214-1.3233185h-0.1218872c-0.4178772,0-0.7777405,0.1160812-1.0795593,0.3482437
			c-0.3017883,0.2321625-0.5281677,0.539772-0.6790466,0.9228439c-0.1509094,0.3830643-0.2612,0.7719345-0.3308411,1.1666107
			S331.8757324-78.1137314,331.8757324-77.6958389z M337.9351501-71.322998c0,1.1840286-0.3076172,1.7760391-0.9228516,1.7760391
			c-0.4178772,0-0.8241882-0.2611771-1.2188416-0.7835464c-0.3946838-0.5223618-0.719696-1.1143723-0.9750977-1.7760391
			c-0.2553711-0.6616592-0.4526978-1.2420654-0.5920105-1.7412109c-0.1392822-0.4991455-0.2147522-0.7893524-0.2263489-0.8706055
			c0.5687866-0.0116119,1.1317749-0.0174103,1.6889648-0.0174103l1.6889954,0.0174103
			c0.0115967,0.0116043,0.0580444,0.2031403,0.1392822,0.5746002c0.0812683,0.37146,0.1741333,0.8357849,0.278595,1.3929672
			C337.9003296-72.1936035,337.9467468-71.7176666,337.9351501-71.322998z M333.2338562-78.8798676
			c0-1.2304535,0.3076172-1.8456802,0.9228516-1.8456802c0.1741333,0,0.3598633,0.0580368,0.5571899,0.174118
			s0.4353027,0.3366318,0.7138977,0.6616592s0.5571899,0.8299789,0.8357849,1.5148621
			c0.278595,0.6848755,0.5571899,1.5322647,0.8357849,2.5421677l0.0870667,0.2960052h-3.3953857
			c0-0.0348206-0.0522156-0.2553787-0.1567078-0.6616592c-0.1044617-0.4062805-0.1973267-0.8590012-0.278595-1.3581467
			C333.2745056-78.055687,333.2338562-78.4967957,333.2338562-78.8798676z"/>
	</g>
</g>
<g id="XMLID_50_" transform="matrix(1 0 0 -1 0 0)">
	<g id="XMLID_68_">
		<path id="E1-MJMAINB-76_2_" class="st5" d="M279.4225464-71.2255554c0.1393433-0.0348358,0.6851807-0.0522537,1.6374512-0.0522537
			c0.8477478,0,1.3064575,0.0174179,1.3761292,0.0522537h0.1045227v-1.0800095h-1.2193604l-1.7593994-3.9368362
			c-0.708374-1.6026077-1.1148376-2.473587-1.2193604-2.6129456c-0.0928955-0.1161346-0.2032166-0.1741943-0.3309631-0.1741943
			c-0.0232239,0-0.0638733,0-0.1219482,0s-0.1161194,0.005806-0.1741943,0.0174179h-0.2612915
			c-0.1741943,0-0.3135681,0.0870972-0.4180908,0.2612915c-0.1044922,0.174202-0.354187,0.696785-0.7490234,1.5677719
			c-0.1741943,0.3832321-0.3135681,0.696785-0.4180908,0.9406586l-1.7593689,3.9368362h-1.2193604v1.0800095h0.1393433
			c0.1741943-0.0348358,0.8187256-0.0522537,1.9335938-0.0522537c1.2425842,0,1.9684143,0.0174179,2.1774292,0.0522537h0.1567993
			v-1.0800095h-0.8361511l0.9232483-2.0555191c0.5922546-1.3355026,0.9058228-2.0032578,0.9406433-2.0032578
			c0,0.0116119,0.2961426,0.6793671,0.8883972,2.0032578c0.5922852,1.3238907,0.9000244,2.0032578,0.9232483,2.0380936
			c0,0.0116119-0.1393433,0.0174255-0.4180603,0.0174255h-0.4180908v1.0800095H279.4225464z"/>
	</g>
</g>
<g id="XMLID_8_">
	<g id="XMLID_69_">
		<g id="XMLID_70_">
			<polygon id="XMLID_71_" points="68.0229416,48.9029388 68.0229416,50.8212128 77.0467148,48.404892 68.0229416,45.9844055 
				68.0229416,47.902832 11.9811602,47.902832 11.9811602,48.9029388 			"/>
		</g>
	</g>
</g>
<g id="XMLID_7_">
	<g id="XMLID_30_">
		<g id="XMLID_31_">
			<polygon id="XMLID_32_" points="68.0229416,94.3465881 68.0229416,96.2648621 77.0467148,93.8485413 68.0229416,91.4280396 
				68.0229416,93.3464661 11.9811602,93.3464661 11.9811602,94.3465881 			"/>
		</g>
	</g>
</g>
<g id="XMLID_6_">
	<g id="XMLID_26_">
		<g id="XMLID_27_">
			<polygon id="XMLID_28_" points="68.0229416,143.0361938 68.0229416,144.9544678 77.0467148,142.538147 68.0229416,140.1176758 
				68.0229416,142.0361023 11.9811602,142.0361023 11.9811602,143.0361938 			"/>
		</g>
	</g>
</g>
<g id="XMLID_3_" transform="matrix(1 0 0 -1 0 0)">
	<g id="XMLID_4_">
		<path id="E1-MJMAINB-76_1_" class="st5" d="M40.3734322-69.6025696c0.1393547-0.0348358,0.6851692-0.0522537,1.6374435-0.0522537
			c0.8477554,0,1.3064728,0.0174179,1.3761482,0.0522537h0.1045189v-1.0800171H42.272171l-1.7593842-3.9368286
			c-0.7083969-1.6026077-1.1148567-2.473587-1.2193718-2.6129456c-0.092907-0.1161346-0.203228-0.1741943-0.3309746-0.1741943
			c-0.0232239,0-0.0638695,0-0.1219368,0c-0.0580635,0-0.1161308,0.005806-0.1741943,0.0174179H38.405014
			c-0.1741982,0-0.3135529,0.0870972-0.4180717,0.2612915c-0.1045189,0.174202-0.3541985,0.696785-0.7490425,1.5677719
			c-0.1741982,0.3832245-0.3135529,0.696785-0.4180717,0.9406586l-1.7593842,3.9368286h-1.2193718v1.0800171h0.1393585
			c0.1741943-0.0348358,0.8187218-0.0522537,1.9335785-0.0522537c1.2425995,0,1.9684143,0.0174179,2.1774521,0.0522537h0.1567764
			v-1.0800171h-0.8361435l0.9232407-2.0555115c0.5922661-1.3355026,0.9058189-2.0032578,0.9406586-2.0032578
			c0,0.0116119,0.2961349,0.6793671,0.888401,2.0032578c0.5922699,1.3238907,0.900013,2.0032578,0.9232407,2.0380936
			c0,0.0116119-0.1393585,0.0174179-0.4180717,0.0174179h-0.4180717v1.0800171H40.3734322z"/>
	</g>
</g>
<line id="XMLID_18_" class="st6" x1="116.778244" y1="42" x2="116.778244" y2="30.666666"/>
<line id="XMLID_19_" class="st6" x1="160.5782928" y1="43.1666679" x2="160.5782928" y2="30.666666"/>
<g id="XMLID_20_">
	<g id="XMLID_77_">
		<g id="XMLID_78_">
			<polygon id="XMLID_79_" points="151.5545197,36.8334656 151.5545197,38.7517395 160.5782928,36.3354187 151.5545197,33.9149323 
				151.5545197,35.8333588 138.6782837,35.8333588 138.6782837,36.8334656 			"/>
		</g>
	</g>
</g>
<g id="XMLID_21_">
	<g id="XMLID_81_">
		<g id="XMLID_82_">
			<polygon id="XMLID_83_" points="125.8020325,35.8332062 125.8020325,33.9149475 116.7782593,36.3312531 125.8020325,38.7517395 
				125.8020325,36.833313 138.6782837,36.833313 138.6782837,35.8332062 			"/>
		</g>
	</g>
</g>
<g id="XMLID_23_" transform="matrix(1 0 0 -1 0 0)">
	<g id="XMLID_84_">
		<path id="E1-MJMAINB-76" class="st5" d="M127.6375656-11.6373997c0.1393509-0.0348377,0.6851578-0.0522566,1.6373978-0.0522566
			c0.8477325,0,1.3064423,0.0174189,1.3761139,0.0522566H130.7556v-1.0799866h-1.2193451l-1.7593384-3.9367275
			c-0.708374-1.602562-1.1148224-2.4735203-1.2193375-2.6128731c-0.0929031-0.116127-0.2032242-0.1741924-0.3309631-0.1741924
			c-0.0232239,0-0.0638733,0-0.121933,0c-0.0580673,0-0.116127,0.0058079-0.1741943,0.0174198h-0.2612839
			c-0.1741943,0-0.3135452,0.0870953-0.4180603,0.2612877c-0.1045151,0.1741905-0.3541946,0.6967659-0.7490234,1.5677223
			c-0.1741943,0.3832226-0.3135452,0.6967659-0.4180603,0.9406357l-1.7593384,3.9367275h-1.2193375v1.0799866h0.1393509
			c0.1741943-0.0348377,0.8187027-0.0522566,1.9335251-0.0522566c1.242569,0,1.9683685,0.0174189,2.1773987,0.0522566h0.1567688
			v-1.0799866h-0.8361206l0.9232178-2.05546c0.5922546-1.3354683,0.9057922-2.0032024,0.9406357-2.0032024
			c0,0.0116138,0.2961273,0.6793461,0.8883743,2.0032024s0.8999863,2.0032024,0.9232101,2.0380402
			c0,0.0116129-0.1393433,0.0174198-0.4180527,0.0174198h-0.4180603v1.0799866H127.6375656z"/>
	</g>
	<g id="XMLID_73_">
		<path id="E1-MJMAINB-394" class="st5" d="M146.9205627-19.1624718c0-0.0580635-0.0522614-0.1277409-0.1567688-0.2090302
			h-7.1941071c-4.8076935,0-7.2289429,0.0116119-7.2637939,0.0348377c-0.0696716,0.0464516-0.1045074,0.0987091-0.1045074,0.1567726
			c0,0.0348377,1.0799866,1.9857826,3.2399597,5.8528347s3.2689972,5.8296094,3.3270569,5.8876729
			c0.0580597,0.1045146,0.1567688,0.1683855,0.2961273,0.1916103c0.0464478,0.0232253,0.2206421,0.0348387,0.5225677,0.0348387
			h0.4528961l0.2961273-0.1916108c0.0348511-0.0464516,1.1264496-1.9799767,3.2748108-5.8005772
			s3.2399597-5.7773504,3.2747955-5.8702536C146.9089508-19.1218281,146.9205627-19.1508598,146.9205627-19.1624718z
			 M142.6006165-16.9850788l-3.9367218,6.9850798l-3.9193115-6.9850798l1.9683533-0.0174179h3.9193115L142.6006165-16.9850788z"/>
	</g>
	<g id="XMLID_72_">
		<path id="E1-MJMAINB-74" class="st5" d="M152.6688843-18.5179634c0.5574188,0,0.8361206,0.5051556,0.8361206,1.5154667v0.1567707
			v0.5574131h1.0799866v-0.5922508c0-0.4296722-0.0116119-0.6851521-0.0348358-0.7664433
			c-0.0696869-0.4296722-0.2496796-0.7954731-0.5399933-1.0974064c-0.290329-0.3019314-0.6619263-0.5225735-1.1148224-0.6619263
			l-0.2264557-0.0522575h-0.4354858c-0.8593445,0-1.5154572,0.1858044-1.9683533,0.5574131
			c-0.290329,0.2206421-0.47612,0.4935417-0.5574188,0.8186989c-0.0812836,0.3251572-0.1277313,0.8245068-0.1393433,1.4980469
			c0,0.1277409,0,0.3541889,0,0.679347s0.0057983,0.5922518,0.0174103,0.801281v2.3864241h-1.2890167v0.8883762h0.0696716
			c0.3832245,0,0.7606354,0.1335468,1.1322479,0.4006405c0.3600006,0.2670937,0.6503143,0.6561213,0.8709564,1.1670828
			s0.3483887,1.0799875,0.3832245,1.707077v0.2438679h1.0799866v-3.3270578h2.4212646v-1.0799866h-2.4212646v-2.4909391v-0.5574121
			v-1.0103111c0-0.5922508,0.0232239-0.9870853,0.0696716-1.1845016c0.046463-0.1974182,0.168396-0.3483829,0.3658142-0.452898
			C152.4075928-18.4831257,152.5411377-18.5179634,152.6688843-18.5179634z"/>
	</g>
</g>
<line id="XMLID_93_" class="st6" x1="359.8753662" y1="41.7456589" x2="359.8753662" y2="30.4123268"/>
<line id="XMLID_92_" class="st6" x1="403.675415" y1="42.9123268" x2="403.675415" y2="30.4123268"/>
<g id="XMLID_91_">
	<g id="XMLID_105_">
		<g id="XMLID_106_">
			<polygon id="XMLID_107_" points="394.6516724,36.5791245 394.6516724,38.4973984 403.6754456,36.0810776 394.6516724,33.6605911 
				394.6516724,35.5790176 381.7754211,35.5790176 381.7754211,36.5791245 			"/>
		</g>
	</g>
</g>
<g id="XMLID_90_">
	<g id="XMLID_101_">
		<g id="XMLID_102_">
			<polygon id="XMLID_103_" points="368.8991699,35.5788651 368.8991699,33.6606064 359.8753967,36.0769119 368.8991699,38.4973984 
				368.8991699,36.5789719 381.7754211,36.5789719 381.7754211,35.5788651 			"/>
		</g>
	</g>
</g>
<g id="XMLID_22_" transform="matrix(1 0 0 -1 0 0)">
	<g id="XMLID_89_">
		<path id="E1-MJMAINB-76_3_" class="st5" d="M370.7346802-11.3830585c0.1393738-0.0348387,0.6851807-0.0522575,1.6374207-0.0522575
			c0.8477173,0,1.306427,0.0174189,1.3760986,0.0522575h0.1045227v-1.0799875h-1.2193298l-1.7593384-3.9367285
			c-0.708374-1.602562-1.1148376-2.4735184-1.2193604-2.6128712c-0.0928955-0.1161289-0.2032166-0.1741924-0.3309631-0.1741924
			c-0.0232239,0-0.0638428,0-0.1219177,0s-0.1161194,0.005806-0.1741943,0.0174198h-0.2612915
			c-0.1741943,0-0.3135376,0.0870953-0.4180603,0.2612877c-0.1045227,0.1741905-0.354187,0.6967659-0.7490234,1.5677223
			c-0.1741943,0.3832226-0.3135376,0.6967659-0.4180603,0.9406338l-1.7593384,3.9367285h-1.2193298v1.0799875h0.1393433
			c0.1741943-0.0348387,0.8186951-0.0522575,1.9335327-0.0522575c1.2425537,0,1.9683533,0.0174189,2.1773987,0.0522575h0.1567688
			v-1.0799875h-0.8361206l0.9232178-2.05546c0.5922546-1.3354683,0.9057922-2.0032015,0.9406433-2.0032015
			c0,0.0116119,0.2961121,0.6793461,0.8883667,2.0032015s0.8999939,2.0032024,0.9232178,2.0380411
			c0,0.0116129-0.1393433,0.0174189-0.4180603,0.0174189h-0.4180603v1.0799875H370.7346802z"/>
	</g>
	<g id="XMLID_86_">
		<path id="E1-MJMAINB-394_1_" class="st5" d="M390.0177002-18.9081306c0-0.0580654-0.0522766-0.1277409-0.1567688-0.2090302
			h-7.1941223c-4.8076782,0-7.2289429,0.0116119-7.2637939,0.0348377c-0.0696716,0.0464516-0.1044922,0.0987091-0.1044922,0.1567726
			c0,0.0348377,1.0799866,1.9857826,3.2399597,5.8528347s3.2689819,5.8296089,3.3270569,5.8876724
			c0.0580444,0.1045146,0.1567688,0.1683855,0.2961121,0.1916103c0.0464478,0.0232253,0.2206421,0.0348387,0.522583,0.0348387
			h0.4528809l0.2961426-0.1916108c0.0348206-0.0464516,1.1264343-1.9799771,3.2748108-5.8005767
			c2.1483459-3.8205996,3.2399597-5.7773523,3.2747803-5.8702536
			C390.006073-18.867487,390.0177002-18.8965187,390.0177002-18.9081306z M385.6977539-16.7307377l-3.9367371,6.9850788
			l-3.9193115-6.9850788l1.9683533-0.0174198h3.9193115L385.6977539-16.7307377z"/>
	</g>
	<g id="XMLID_85_">
		<path id="E1-MJMAINB-74_1_" class="st5" d="M395.7660217-18.2636223c0.5574036,0,0.8361206,0.5051556,0.8361206,1.5154648
			v0.1567726v0.5574131h1.0799866v-0.5922508c0-0.4296722-0.0116272-0.685154-0.0348511-0.7664433
			c-0.0696716-0.4296722-0.2496643-0.795475-0.539978-1.0974064c-0.2903442-0.3019314-0.6619263-0.5225735-1.1148376-0.6619282
			l-0.2264404-0.0522575h-0.4354858c-0.8593445,0-1.5154724,0.1858044-1.9683533,0.5574131
			c-0.2903442,0.220644-0.4761353,0.4935436-0.5574341,0.8187008c-0.0812683,0.3251572-0.1277466,0.8245068-0.1393433,1.4980469
			c0,0.1277409,0,0.3541889,0,0.679347c0,0.3251572,0.0057983,0.5922508,0.0174255,0.801281v2.3864231h-1.289032v0.8883772
			h0.0696716c0.3832397,0,0.7606506,0.1335459,1.1322632,0.4006405c0.3599854,0.2670937,0.6502991,0.6561203,0.8709412,1.1670828
			c0.2206421,0.5109615,0.3483887,1.0799875,0.3832397,1.7070761v0.2438688h1.0799866v-3.3270578h2.4212646v-1.0799875h-2.4212646
			v-2.4909382v-0.5574131v-1.0103102c0-0.5922508,0.0232239-0.9870853,0.0696716-1.1845016
			c0.0464478-0.1974182,0.168396-0.3483849,0.3658142-0.452898
			C395.5047302-18.2287846,395.6382751-18.2636223,395.7660217-18.2636223z"/>
	</g>
</g>
<g id="XMLID_95_" transform="matrix(1 0 0 -1 0 0)">
	<g id="XMLID_113_">
		<path id="E1-MJMATHI-56" class="st5" d="M100.9933701-191.075119c0,0.2554932,0.0754852,0.4587097,0.2264557,0.6096802h0.1916046
			c0.4877396-0.0348358,1.0974121-0.0522614,1.82901-0.0522614c1.3703079,0,2.1773987,0.0174255,2.4212646,0.0522614h0.1741943
			c0.0696716-0.0696869,0.1045151-0.121933,0.1045151-0.1567688c0-0.0348511-0.0116119-0.1393585-0.0348434-0.3135529
			c-0.0580597-0.1741943-0.110321-0.2845154-0.1567688-0.3309631h-0.365799
			c-0.2554855-0.0232239-0.4296722-0.0348358-0.5225754-0.0348358c-0.3367767-0.0580597-0.5225754-0.1451569-0.5574188-0.2612915
			c0-0.0232239,0.1683884-1.4806213,0.5051575-4.3722076c0.3367691-2.891571,0.5109634-4.3489838,0.5225754-4.3722076
			l1.2715988,2.0380402c0.8477325,1.3587036,1.6954651,2.7290039,2.5431976,4.1109161
			c0.8477325,1.3819275,1.2832108,2.0961151,1.3064346,2.1425629c0.0464478,0.0812836,0.0696793,0.1683807,0.0696793,0.2612915
			c0,0.2787018-0.2554855,0.4412842-0.766449,0.4877319c-0.2090302,0-0.3135452,0.0638733-0.3135452,0.1916046
			c0,0.0116119,0.0116196,0.0870972,0.0348434,0.2264557c0.0348358,0.1625824,0.0696716,0.2670898,0.1045151,0.3135376
			c0.0348358,0.046463,0.110321,0.0696869,0.2264481,0.0696869c0.0232239,0,0.0929031,0,0.2090302,0
			s0.3135452-0.0058136,0.592247-0.0174255c0.2787094-0.0116119,0.6503143-0.0174103,1.11483-0.0174103
			c0.8012772,0,1.3064346,0.0116119,1.5154648,0.0348358h0.121933c0.0812912-0.0812988,0.121933-0.1451569,0.121933-0.1916199
			c0-0.1974182-0.0522537-0.3832092-0.1567688-0.5574036c-0.0348434-0.0348358-0.1335526-0.0522614-0.2961273-0.0522614
			c-0.1509628-0.0116119-0.2903214-0.0232239-0.4180603-0.0348358s-0.2496719-0.0406494-0.365799-0.0870972
			s-0.2090302-0.0870972-0.2787094-0.121933s-0.1393509-0.0812988-0.2090302-0.1393585s-0.127739-0.0987091-0.1741943-0.121933
			c-0.0464478-0.0232239-0.0928955-0.0754852-0.1393509-0.1567688c-0.0464478-0.0812988-0.0870972-0.121933-0.121933-0.121933
			l-3.3618927-5.3999329c-2.0903015-3.3793182-3.1702881-5.1096191-3.2399673-5.190918
			c-0.0348358-0.0232239-0.0754776-0.0522461-0.121933-0.0870972l-0.3135452-0.0174103h-0.121933
			c-0.2090302,0-0.3135452,0.0406494-0.3135452,0.121933c-0.0348358,0.0696716-0.2612839,1.9277191-0.6793442,5.5741272
			c-0.4412842,3.6928558-0.6677322,5.5567017-0.6793518,5.5915527c-0.0580597,0.1277313-0.4180527,0.1916046-1.0799866,0.1916046
			h-0.2961197C101.0340195-191.2086639,100.9933701-191.1447906,100.9933701-191.075119z"/>
	</g>
	<g id="XMLID_110_">
		<path id="E1-MJMAIN-3D" class="st5" d="M119.3009033-196.3182831c0,0.1509705,0.0812836,0.2671051,0.243866,0.3483887h11.095993
			c0.1741943-0.0928955,0.2612915-0.2090302,0.2612915-0.3483887c0-0.1277313-0.0812836-0.2380524-0.243866-0.3309631
			l-5.5392914-0.0174103h-5.5392914C119.3937988-196.6085968,119.3009033-196.4924622,119.3009033-196.3182831z
			 M119.3009033-199.6975861c0,0.1741791,0.0928955,0.2903137,0.2787018,0.3483734h11.0785828
			c0.1625824-0.1161194,0.243866-0.232254,0.243866-0.3483734c0-0.1509705-0.0870972-0.2671051-0.2612915-0.3483887h-11.095993
			C119.3821869-199.9646912,119.3009033-199.8485565,119.3009033-199.6975861z"/>
	</g>
	<g id="XMLID_109_">
		<path id="E1-MJMATHI-76" class="st5" d="M139.7335663-195.7434387c0,0.2903137-0.110321,0.4354706-0.3309631,0.4354706
			c-0.278717,0-0.5690308-0.1683807-0.8709564-0.5051575c-0.3019409-0.3367615-0.5516052-0.8535309-0.7490234-1.5503082
			c-0.0116119-0.0116119-0.0232239-0.0290222-0.0348358-0.0522461c-0.0116272-0.0232239-0.0174255-0.0406494-0.0174255-0.0522614
			s-0.0116119-0.0232239-0.0348358-0.0348358s-0.0406494-0.0174255-0.0522614-0.0174255s-0.0348358,0-0.0696716,0
			s-0.0812988,0-0.1393585,0h-0.243866c-0.0696716,0.0696869-0.1045227,0.121933-0.1045227,0.1567688
			c0,0.0812988,0.046463,0.2496796,0.1393585,0.5051575c0.0929108,0.2554932,0.232254,0.5574188,0.4180603,0.9058075
			c0.1858063,0.3483734,0.4412842,0.6445007,0.766449,0.8883667c0.3251495,0.243866,0.6909485,0.3716125,1.0973969,0.3832245
			c0.4877472,0,0.8651581-0.1393585,1.1322479-0.4180603s0.4064484-0.6038666,0.4180603-0.9754639
			c0-0.1974182-0.0174255-0.3483887-0.0522614-0.4529114c0-0.0696716-0.0870972-0.3251495-0.2612762-0.7664337
			c-0.1741943-0.4412842-0.3542023-0.9580536-0.5399933-1.5503082c-0.1858063-0.5922546-0.290329-1.109024-0.3135529-1.5503082
			c0-0.3135376,0.0290375-0.5690155,0.0870972-0.7664337c0.1509705-0.4993591,0.5167694-0.7490234,1.0974121-0.7490234
			c0.4296722,0,0.830307,0.1974182,1.2019196,0.5922546c0.3715973,0.3948212,0.6619263,0.8535309,0.8709564,1.3760986
			c0.2090302,0.522583,0.3774109,1.0045166,0.5051575,1.4458008c0.1277313,0.4412842,0.1916046,0.7606354,0.1916046,0.9580536
			c0,0.2670898-0.0464478,0.4993439-0.1393585,0.6967621c-0.0928955,0.1974182-0.1974182,0.3483887-0.3135376,0.4528961
			c-0.1161346,0.1045227-0.2206421,0.2090302-0.3135529,0.3135529c-0.0928955,0.1045074-0.1393433,0.232254-0.1393433,0.3832092
			c0,0.2554779,0.110321,0.4935455,0.3309631,0.7141876s0.4586945,0.3309631,0.7141876,0.3309631
			c0.2206421,0,0.4180603-0.1045074,0.5922394-0.3135376c0.1741943-0.2090302,0.2671051-0.5458069,0.278717-1.0103149
			c0-0.3135376-0.0696869-0.7954712-0.2090302-1.4457855c-0.1393585-0.6503143-0.354187-1.3761139-0.644516-2.1773987
			c-0.2903137-0.8012848-0.7025757-1.4922333-1.2367554-2.072876c-0.5341949-0.5806427-1.1496582-0.87677-1.8464355-0.888382
			c-0.7432098,0-1.3354645,0.1916199-1.7767487,0.5748291c-0.4296722,0.3716125-0.6445007,0.9232178-0.6445007,1.6548309
			c0,0.3599854,0.0464478,0.7315979,0.1393433,1.1148224c0.0929108,0.3832245,0.3309631,1.062561,0.7141876,2.0380402
			C139.6058197-196.4286041,139.7335663-195.9524689,139.7335663-195.7434387z"/>
	</g>
	<g id="XMLID_108_">
		<path id="E1-MJMATHI-53" class="st5" d="M150.5508575-201.9446564c0.6851501,0,1.3122406,0.3019257,1.8812714,0.9057922
			c0.5690155,0.6038666,0.8593445,1.306427,0.8709564,2.1077118c0,0.7316132-0.3019409,1.2367554-0.9057922,1.5154724
			c-1.230957,0.3135376-2.0206299,0.5283813-2.3690186,0.6445007c-0.3483734,0.1161346-0.5922394,0.232254-0.7315979,0.3483887
			c-0.6967621,0.4877319-1.0451508,1.1903076-1.0451508,2.1077118c0,0.7083893,0.1858063,1.35289,0.5574188,1.9335327
			c0.3715973,0.5806274,0.7490234,1.0161133,1.1322479,1.306427c0.3367615,0.290329,0.7432098,0.522583,1.2193298,0.6967773
			c0.47612,0.1741791,0.8477325,0.2670898,1.1148224,0.2787018h0.1916199h0.121933
			c1.1148224,0,1.9219055-0.3716125,2.4212646-1.1148224c0.0116119,0,0.0870972,0.0754852,0.2264404,0.2264404
			c0.1393585,0.1509705,0.290329,0.3193512,0.4528961,0.5051575c0.1625824,0.1858063,0.278717,0.3135529,0.3483887,0.3832245
			c0.0116119,0,0.0348358,0,0.0696716,0c0.0348511,0,0.0638733,0.0057983,0.0870972,0.0174255
			c0.1509705,0,0.2264557-0.0406494,0.2264557-0.1219482c0-0.0812836-0.1625824-0.7838593-0.4877319-2.1077118
			c-0.3251648-1.3238525-0.5109711-2.0090027-0.5574188-2.0554657c-0.0464478-0.0464478-0.1393585-0.063858-0.2787018-0.0522461
			c-0.232254,0-0.3483887,0.0522461-0.3483887,0.1567688c0,0.0696716,0.0058136,0.1277466,0.0174255,0.1741943
			c0,0.0348358,0.0057983,0.1451569,0.0174103,0.3309631s0.0232239,0.3367615,0.0348358,0.4528961
			c0,0.3948364-0.0522461,0.7374115-0.1567688,1.0277252c-0.1045074,0.290329-0.2090302,0.5051575-0.3135376,0.644516
			c-0.1045227,0.1393433-0.2496796,0.2845154-0.4354858,0.4354706c-0.4180603,0.243866-0.8941803,0.3658142-1.4283752,0.3658142
			c-0.6619263,0-1.2774048-0.2671051-1.8464203-0.8012848c-0.5690308-0.5341949-0.8593445-1.1496735-0.8709564-1.8464355
			c0-0.3483734,0.0870972-0.6503143,0.2612762-0.9057922c0.1741943-0.2554779,0.412262-0.4354858,0.7141876-0.5399933
			c0.0464478-0.0232239,0.4528961-0.1335449,1.2193451-0.3309631s1.1554718-0.3019409,1.1670837-0.3135529
			c0.3948364-0.1277313,0.7780609-0.4064484,1.1496582-0.8361206c0.3716125-0.4296722,0.5574188-1.0102997,0.5574188-1.7419128
			c0-0.3019257-0.0464478-0.6270905-0.1393585-0.9754639c-0.0580597-0.2554779-0.1625671-0.5399933-0.3135376-0.8535461
			c-0.1509705-0.3135376-0.3600006-0.6561127-0.6270905-1.0277252s-0.6503143-0.719986-1.1496735-1.0451508
			c-0.4993439-0.3251495-1.0451355-0.5457916-1.6373901-0.6619263c-0.1393585-0.0232239-0.3367767-0.0348358-0.5922546-0.0348358
			c-1.1496582,0-2.0438385,0.3193512-2.6825409,0.9580536l-0.1741943,0.1916046l-0.4877472-0.5399933
			c-0.2670898-0.3135376-0.4296722-0.4935455-0.4877319-0.5399933s-0.1335449-0.0696716-0.2264404-0.0696716
			c-0.1509705,0-0.2264557,0.0464478-0.2264557,0.1393433c0,0.0348511,0.3367767,1.399353,1.0103149,4.0935059
			c0.0232239,0.0696716,0.1393433,0.1045227,0.3483734,0.1045227h0.2264557
			c0.0696716-0.0696869,0.1045074-0.1335602,0.1045074-0.1916199c0-0.0232239-0.0057983-0.0754852-0.0174103-0.1567688
			s-0.0348358-0.2032166-0.0696716-0.365799c-0.0348511-0.1625824-0.046463-0.354187-0.0348511-0.5748291
			c0.0232239-0.4529114,0.1277466-0.8361206,0.3135529-1.1496735c0.1858063-0.3135376,0.4354706-0.5457916,0.7490234-0.6967621
			c0.3135376-0.1509705,0.6154785-0.2554779,0.9057922-0.3135529
			C149.9179535-201.9156342,150.2256927-201.9446564,150.5508575-201.9446564z"/>
	</g>
	<g id="XMLID_97_">
		<path id="E1-MJMAIN-394" class="st5" d="M157.3094788-202.3627167c-0.0580597,0.0464478-0.0870819,0.0870972-0.0870819,0.121933
			c0,0.0232239,0.9812775,2.0554504,2.9438324,6.0966949s2.9670563,6.0850983,3.013504,6.131546
			c0.0348511,0.0812836,0.1974182,0.121933,0.4877472,0.121933c0.2670898,0,0.4296722-0.0406494,0.4877319-0.121933
			c0.0348358-0.0464478,1.0335388-2.0903015,2.9960938-6.131546s2.949646-6.0734711,2.9612579-6.0966949
			c0-0.0348358-0.0290375-0.0754852-0.0870972-0.121933H157.3094788z M165.2526245-196.3705292l-2.1425629,4.3896179
			l-4.302536-8.7792511l4.2851105-0.0174103h4.302536C167.3951721-200.7543488,166.6809845-199.2853394,165.2526245-196.3705292z"/>
	</g>
	<g id="XMLID_96_">
		<path id="E1-MJMATHI-74" class="st5" d="M171.4015808-195.6563568c-0.0812988,0.0812988-0.121933,0.1393585-0.121933,0.1741943
			c0,0.0464478,0.0174103,0.1393585,0.0522614,0.278717c0.0348358,0.1393433,0.063858,0.2206421,0.0870819,0.243866
			c0.0232391,0.0580597,0.0754852,0.0870972,0.1567841,0.0870972c0.0812836,0,0.3774109,0.0057983,0.8883667,0.0174103h0.9232178
			l0.3309631,1.3935394c0.0348358,0.1277313,0.0754852,0.2961273,0.121933,0.5051575s0.0870972,0.3599854,0.121933,0.4528961
			c0.0348358,0.0928955,0.0696869,0.2090302,0.1045227,0.3483734c0.0348358,0.1393585,0.0812836,0.2380676,0.1393433,0.2961273
			c0.058075,0.0580597,0.1161346,0.1277466,0.1741943,0.2090302c0.058075,0.0812988,0.1393585,0.1335449,0.243866,0.1567688
			c0.1045227,0.0232391,0.2090302,0.0348511,0.3135529,0.0348511c0.2090302-0.0116119,0.354187-0.0754852,0.4354706-0.1916199
			c0.0812988-0.1161194,0.121933-0.2264404,0.121933-0.3309631c0-0.0812836-0.0522461-0.354187-0.1567688-0.8186951
			c-0.1045074-0.4645081-0.2206421-0.9232178-0.3483734-1.3761139l-0.1741943-0.644516
			c0-0.0232239,0.2903137-0.0348358,0.8709564-0.0348358h0.888382c0.0812836-0.0812836,0.121933-0.1451569,0.121933-0.1916046
			c0-0.2554779-0.0754852-0.4587097-0.2264557-0.6096802h-1.8638458l-0.6270905-2.5257721
			c-0.4528961-1.8580475-0.6793518-2.8567352-0.6793518-2.9960938c0-0.4877319,0.1567688-0.7315979,0.4703217-0.7315979
			c0.4064484,0,0.8012848,0.1974182,1.184494,0.5922546c0.3832245,0.3948212,0.6909637,0.8825684,0.9232178,1.4631958
			c0.0232239,0.0696869,0.0522614,0.110321,0.0870972,0.121933s0.121933,0.0232391,0.2612915,0.0348511h0.0696716
			c0.1741943,0,0.2612915-0.046463,0.2612915-0.1393585c0-0.0348358-0.0174255-0.1045227-0.0522614-0.2090302
			c-0.0580597-0.1858063-0.1625824-0.4064484-0.3135376-0.6619263c-0.1509705-0.2554779-0.3483887-0.5283813-0.5922546-0.8186951
			c-0.243866-0.290329-0.5399933-0.5341949-0.888382-0.7316132c-0.3483734-0.1974182-0.7025604-0.2961273-1.062561-0.2961273
			c-0.3483887,0-0.6793518,0.0870972-0.9928894,0.2612915c-0.3135529,0.1741943-0.5399933,0.47612-0.6793518,0.9057922
			c-0.0232239,0.0929108-0.0348358,0.2496796-0.0348358,0.4703217v0.3135376l0.6096649,2.4386902
			c0.4064484,1.6373901,0.6154785,2.4618988,0.6270905,2.4735107c0,0.0232239-0.2961273,0.0348358-0.888382,0.0348358H171.4015808z"
			/>
	</g>
</g>
<g id="XMLID_125_" transform="matrix(1 0 0 -1 0 0)">
	<g id="XMLID_145_">
		<path id="E1-MJMATHI-56_2_" class="st5" d="M334.6625671-191.170929c0,0.2554932,0.0755005,0.4587097,0.2264404,0.6096802
			h0.1916199c0.4877319-0.0348358,1.0974121-0.0522614,1.82901-0.0522614c1.3703003,0,2.1773987,0.0174255,2.4212646,0.0522614
			h0.1741943c0.0696716-0.0696869,0.1045227-0.121933,0.1045227-0.1567688c0-0.0348511-0.0116272-0.1393585-0.0348511-0.3135529
			c-0.058075-0.1741943-0.110321-0.2845154-0.1567688-0.3309631h-0.3658142
			c-0.2554626-0.0232239-0.429657-0.0348358-0.5225525-0.0348358c-0.336792-0.0580597-0.522583-0.1451569-0.5574341-0.2612915
			c0-0.0232239,0.168396-1.4806213,0.5051575-4.3722076c0.336792-2.891571,0.5109863-4.3489838,0.522583-4.3722076
			l1.2716064,2.0380402c0.8477173,1.3587036,1.6954651,2.7290039,2.5431824,4.1109161
			c0.8477478,1.3819275,1.2832031,2.0961151,1.3064575,2.1425629c0.0464478,0.0812836,0.0696716,0.1683807,0.0696716,0.2612915
			c0,0.2787018-0.2554932,0.4412842-0.766449,0.4877319c-0.2090454,0-0.3135376,0.0638733-0.3135376,0.1916046
			c0,0.0116119,0.0115967,0.0870972,0.0348206,0.2264557c0.0348511,0.1625824,0.0696716,0.2670898,0.1045227,0.3135376
			c0.0348511,0.046463,0.110321,0.0696869,0.2264404,0.0696869c0.0232239,0,0.0928955,0,0.2090454,0
			c0.1161194,0,0.3135376-0.0058136,0.5922546-0.0174255c0.2786865-0.0116119,0.6502991-0.0174103,1.1148071-0.0174103
			c0.8013,0,1.3064575,0.0116119,1.5154724,0.0348358h0.1219482c0.0812683-0.0812988,0.1219177-0.1451569,0.1219177-0.1916199
			c0-0.1974182-0.0522461-0.3832092-0.1567688-0.5574036c-0.0348511-0.0348358-0.1335449-0.0522614-0.2961121-0.0522614
			c-0.1509705-0.0116119-0.2903442-0.0232239-0.4180603-0.0348358c-0.1277466-0.0116119-0.2496948-0.0406494-0.3658142-0.0870972
			s-0.2090454-0.0870972-0.278717-0.121933s-0.1393433-0.0812988-0.2090149-0.1393585s-0.1277466-0.0987091-0.1741943-0.121933
			s-0.0928955-0.0754852-0.1393433-0.1567688c-0.0464783-0.0812988-0.0870972-0.121933-0.1219482-0.121933l-3.361908-5.3999329
			c-2.090271-3.3793182-3.1702576-5.1096191-3.2399597-5.190918c-0.0348206-0.0232239-0.07547-0.0522461-0.1219177-0.0870972
			l-0.3135376-0.0174103h-0.1219482c-0.2090149,0-0.3135376,0.0406494-0.3135376,0.121933
			c-0.0348511,0.0696716-0.2612915,1.9277191-0.6793518,5.5741272c-0.4412842,3.6928558-0.6677246,5.5567017-0.6793518,5.5915527
			c-0.0580444,0.1277313-0.4180603,0.1916046-1.0799866,0.1916046h-0.2961121
			C334.7032166-191.3044739,334.6625671-191.2406006,334.6625671-191.170929z"/>
	</g>
	<g id="XMLID_142_">
		<path id="E1-MJMAIN-3D_2_" class="st5" d="M352.9700928-196.414093c0,0.1509705,0.0812988,0.2671051,0.243866,0.3483887
			h11.0960083c0.1741943-0.0928955,0.2612915-0.2090302,0.2612915-0.3483887c0-0.1277313-0.0812988-0.2380524-0.243866-0.3309631
			l-5.5393066-0.0174103h-5.5392761C353.0629883-196.7044067,352.9700928-196.5882721,352.9700928-196.414093z
			 M352.9700928-199.793396c0,0.1741791,0.0928955,0.2903137,0.278717,0.3483734h11.0785828
			c0.1625671-0.1161194,0.243866-0.232254,0.243866-0.3483734c0-0.1509705-0.0870972-0.2671051-0.2612915-0.3483887h-11.0960083
			C353.0513916-200.0605011,352.9700928-199.9443665,352.9700928-199.793396z"/>
	</g>
	<g id="XMLID_141_">
		<path id="E1-MJMATHI-76_2_" class="st5" d="M373.402771-195.8392487c0,0.2903137-0.110321,0.4354706-0.3309631,0.4354706
			c-0.278717,0-0.5690308-0.1683807-0.8709717-0.5051575c-0.3019409-0.3367615-0.5516052-0.8535309-0.7490234-1.5503082
			c-0.0115967-0.0116119-0.0232239-0.0290222-0.0348206-0.0522461c-0.0116272-0.0232239-0.0174255-0.0406494-0.0174255-0.0522614
			s-0.0116272-0.0232239-0.0348511-0.0348358s-0.0406494-0.0174255-0.0522461-0.0174255c-0.0116272,0-0.0348511,0-0.0696716,0
			c-0.0348511,0-0.0812988,0-0.1393738,0h-0.243866c-0.0696716,0.0696869-0.1044922,0.121933-0.1044922,0.1567688
			c0,0.0812988,0.0464478,0.2496796,0.1393433,0.5051575c0.0928955,0.2554932,0.2322388,0.5574188,0.4180603,0.9058075
			c0.185791,0.3483734,0.4412842,0.6445007,0.766449,0.8883667c0.3251343,0.243866,0.6909485,0.3716125,1.0973816,0.3832245
			c0.4877625,0,0.8651733-0.1393585,1.1322632-0.4180603s0.4064331-0.6038666,0.4180603-0.9754639
			c0-0.1974182-0.0174255-0.3483887-0.0522766-0.4529114c0-0.0696716-0.0870972-0.3251495-0.261261-0.7664337
			c-0.1741943-0.4412842-0.3542175-0.9580536-0.5400085-1.5503082s-0.2903137-1.109024-0.3135376-1.5503082
			c0-0.3135376,0.0290222-0.5690155,0.0870972-0.7664337c0.1509705-0.4993591,0.5167542-0.7490234,1.0974121-0.7490234
			c0.429657,0,0.8302917,0.1974182,1.2019043,0.5922546c0.3716125,0.3948212,0.6619263,0.8535309,0.8709717,1.3760986
			c0.2090149,0.522583,0.3774109,1.0045166,0.5051575,1.4458008c0.1277161,0.4412842,0.1915894,0.7606354,0.1915894,0.9580536
			c0,0.2670898-0.0464478,0.4993439-0.1393433,0.6967621s-0.1974182,0.3483887-0.3135376,0.4528961
			c-0.1161499,0.1045227-0.2206421,0.2090302-0.3135376,0.3135529c-0.092926,0.1045074-0.1393738,0.232254-0.1393738,0.3832092
			c0,0.2554779,0.110321,0.4935455,0.3309631,0.7141876s0.4587097,0.3309631,0.7142029,0.3309631
			c0.2206421,0,0.4180603-0.1045074,0.5922546-0.3135376c0.1741638-0.2090302,0.2670898-0.5458069,0.2786865-1.0103149
			c0-0.3135376-0.0696716-0.7954712-0.2090149-1.4457855c-0.1393738-0.6503143-0.354187-1.3761139-0.6445313-2.1773987
			c-0.2903137-0.8012848-0.7025452-1.4922333-1.2367554-2.072876c-0.5341797-0.5806427-1.1496582-0.87677-1.8464355-0.888382
			c-0.7431946,0-1.3354492,0.1916199-1.7767334,0.5748291c-0.4296875,0.3716125-0.6445007,0.9232178-0.6445007,1.6548309
			c0,0.3599854,0.0464478,0.7315979,0.1393433,1.1148224s0.3309631,1.062561,0.7141724,2.0380402
			C373.2750244-196.5244141,373.402771-196.0482788,373.402771-195.8392487z"/>
	</g>
	<g id="XMLID_140_">
		<path id="E1-MJMATHI-53_2_" class="st5" d="M384.2200623-202.0404663c0.6851501,0,1.3122253,0.3019257,1.8812561,0.9057922
			s0.8593445,1.306427,0.8709717,2.1077118c0,0.7316132-0.3019409,1.2367554-0.9057922,1.5154724
			c-1.230957,0.3135376-2.0206299,0.5283813-2.3690186,0.6445007c-0.3483887,0.1161346-0.5922546,0.232254-0.7315979,0.3483887
			c-0.6967773,0.4877319-1.045166,1.1903076-1.045166,2.1077118c0,0.7083893,0.1858215,1.35289,0.5574341,1.9335327
			c0.3716125,0.5806274,0.7490234,1.0161133,1.1322327,1.306427c0.3367615,0.290329,0.7432251,0.522583,1.2193298,0.6967773
			c0.4761353,0.1741791,0.8477478,0.2670898,1.1148376,0.2787018h0.1916199h0.1219177
			c1.1148376,0,1.9219055-0.3716125,2.4212646-1.1148224c0.0116272,0,0.0870972,0.0754852,0.2264404,0.2264404
			c0.1393738,0.1509705,0.2903442,0.3193512,0.4529114,0.5051575s0.278717,0.3135529,0.3483887,0.3832245
			c0.0115967,0,0.0348206,0,0.0696716,0s0.0638733,0.0057983,0.0870972,0.0174255
			c0.1509705,0,0.2264404-0.0406494,0.2264404-0.1219482c0-0.0812836-0.1625671-0.7838593-0.4877319-2.1077118
			s-0.5109558-2.0090027-0.5574036-2.0554657c-0.0464478-0.0464478-0.1393738-0.063858-0.278717-0.0522461
			c-0.2322388,0-0.3483887,0.0522461-0.3483887,0.1567688c0,0.0696716,0.0058289,0.1277466,0.0174255,0.1741943
			c0,0.0348358,0.0057983,0.1451569,0.0174255,0.3309631c0.0115967,0.1858063,0.0232239,0.3367615,0.0348206,0.4528961
			c0,0.3948364-0.0522461,0.7374115-0.1567688,1.0277252c-0.1044922,0.290329-0.2090149,0.5051575-0.3135376,0.644516
			c-0.1045227,0.1393433-0.2496643,0.2845154-0.4354858,0.4354706c-0.4180603,0.243866-0.894165,0.3658142-1.4283752,0.3658142
			c-0.6619263,0-1.2774048-0.2671051-1.846405-0.8012848c-0.5690308-0.5341949-0.8593445-1.1496735-0.8709717-1.8464355
			c0-0.3483734,0.0870972-0.6503143,0.2612915-0.9057922s0.412262-0.4354858,0.7141724-0.5399933
			c0.0464783-0.0232239,0.4529114-0.1335449,1.2193604-0.3309631s1.1554565-0.3019409,1.1670837-0.3135529
			c0.3948364-0.1277313,0.7780457-0.4064484,1.1496582-0.8361206s0.5574036-1.0102997,0.5574036-1.7419128
			c0-0.3019257-0.0464478-0.6270905-0.1393433-0.9754639c-0.058075-0.2554779-0.1625671-0.5399933-0.3135376-0.8535461
			c-0.1509705-0.3135376-0.3600159-0.6561127-0.6271057-1.0277252s-0.6502991-0.719986-1.1496582-1.0451508
			c-0.4993591-0.3251495-1.0451355-0.5457916-1.6373901-0.6619263c-0.1393738-0.0232239-0.336792-0.0348358-0.5922546-0.0348358
			c-1.1496582,0-2.0438538,0.3193512-2.6825562,0.9580536l-0.1741943,0.1916046l-0.4877319-0.5399933
			c-0.2670898-0.3135376-0.4296875-0.4935455-0.4877319-0.5399933c-0.058075-0.0464478-0.1335449-0.0696716-0.2264404-0.0696716
			c-0.1509705,0-0.2264709,0.0464478-0.2264709,0.1393433c0,0.0348511,0.336792,1.399353,1.0103149,4.0935059
			c0.0232239,0.0696716,0.1393433,0.1045227,0.3483887,0.1045227h0.2264404
			c0.0696716-0.0696869,0.1045227-0.1335602,0.1045227-0.1916199c0-0.0232239-0.0057983-0.0754852-0.0174255-0.1567688
			c-0.0115967-0.0812836-0.0348206-0.2032166-0.0696716-0.365799s-0.0464478-0.354187-0.0348511-0.5748291
			c0.0232544-0.4529114,0.1277466-0.8361206,0.3135681-1.1496735c0.185791-0.3135376,0.4354553-0.5457916,0.7490234-0.6967621
			c0.3135376-0.1509705,0.6154785-0.2554779,0.9057922-0.3135529
			C383.5871582-202.0114441,383.8948975-202.0404663,384.2200623-202.0404663z"/>
	</g>
	<g id="XMLID_134_" transform="translate(3401,0)">
		<g id="XMLID_139_">
			<path id="E1-MJMAIN-63" class="st5" d="M-3001.5556641-197.1456909c0,0-0.1218262,0-0.3657227,0
				s-0.4528809,0.0870972-0.6271973,0.2612915c-0.1740723,0.1741791-0.2670898,0.3948364-0.2785645,0.6619263
				c0,0.2670898,0.0871582,0.4877319,0.2612305,0.6619263c0.0581055,0.0580597,0.0871582,0.0928955,0.0871582,0.1045074
				s-0.0581055,0.0232239-0.1743164,0.0348511c-0.3017578,0.0464478-0.5864258,0.0696716-0.8535156,0.0696716
				c-0.5690918,0-1.0334473-0.1858063-1.3935547-0.5574188c-0.5456543-0.5457916-0.8186035-1.4573975-0.8186035-2.7348022
				c0-0.9522552,0.1799316-1.7012634,0.5400391-2.2470703c0.4760742-0.708374,1.1147461-1.0625763,1.9160156-1.0625763
				c0.4760742,0,0.859375,0.1509705,1.1496582,0.4529114c0.2902832,0.3019257,0.4992676,0.6619263,0.6271973,1.0799866
				c0.0231934,0.0928955,0.0522461,0.1509552,0.0869141,0.1741791c0.0349121,0.0232391,0.1279297,0.0348511,0.2788086,0.0348511
				h0.2438965c0.0695801-0.0696869,0.1044922-0.121933,0.1044922-0.1567841c0-0.0464478-0.0231934-0.1393433-0.0695801-0.2787018
				c-0.0466309-0.1393585-0.1394043-0.3309631-0.2788086-0.5748291s-0.3078613-0.4645081-0.505127-0.6619263
				c-0.1975098-0.1974182-0.4760742-0.3774109-0.8361816-0.5399933c-0.3598633-0.1625824-0.760498-0.2380676-1.2019043-0.2264557
				c-0.9987793,0-1.8696289,0.3716125-2.612793,1.1148224c-0.7434082,0.7432251-1.1206055,1.6780548-1.1323242,2.8044891
				c0,1.2077332,0.3774414,2.1890106,1.1323242,2.9438324c0.7546387,0.754837,1.6315918,1.1322479,2.630127,1.1322479
				c0.9987793,0,1.6955566-0.1567688,2.090332-0.4703217c0.3947754-0.3135376,0.5922852-0.6851501,0.5922852-1.1148224
				c0-0.2670898-0.0986328-0.4819336-0.2961426-0.6445007L-3001.5556641-197.1456909z"/>
		</g>
		<g id="XMLID_136_">
			<path id="E1-MJMAIN-6F" class="st5" d="M-2999.7788086-198.730835c0,1.1032104,0.3774414,2.0554657,1.1320801,2.8567352
				c0.7548828,0.8012848,1.6665039,1.2077332,2.7348633,1.2193451c1.045166,0,1.9453125-0.3948364,2.6999512-1.184494
				c0.7548828-0.7896729,1.1381836-1.7477264,1.1496582-2.8741608c0-1.1032257-0.371582-2.0322418-1.1147461-2.7870636
				c-0.7431641-0.754837-1.6547852-1.1322479-2.7348633-1.1322479c-1.1264648,0-2.0495605,0.3890228-2.7695313,1.1670837
				C-2999.4013672-200.6875916-2999.767334-199.7759857-2999.7788086-198.730835z M-2995.9118652-201.9359589
				c1.416748,0,2.1252441,0.9464417,2.1252441,2.839325v0.5574036v0.4354858c0,0.2554779-0.0058594,0.47612-0.0175781,0.6619263
				c-0.0114746,0.1858063-0.0522461,0.4064484-0.1218262,0.6619263s-0.1625977,0.4645081-0.2788086,0.6270905
				c-0.1159668,0.1625824-0.2958984,0.3251648-0.5397949,0.4877319c-0.2438965,0.1625824-0.5285645,0.278717-0.8535156,0.3483887
				c-0.0581055,0.0116119-0.151123,0.0174255-0.2788086,0.0174255c-0.3483887,0-0.6794434-0.0696869-0.9929199-0.2090302
				c-0.4992676-0.2554932-0.8244629-0.6096802-0.9753418-1.0625763c-0.151123-0.4528961-0.2265625-0.9870758-0.2265625-1.6025543
				v-0.3483887c0-1.1148224,0.1103516-1.8986816,0.3310547-2.3515778
				C-2997.3691406-201.5817719-2996.7595215-201.9359589-2995.9118652-201.9359589z"/>
		</g>
		<g id="XMLID_135_">
			<path id="E1-MJMAIN-73" class="st5" d="M-2986.4008789-196.9540863c0,0.4645233-0.1567383,0.8651581-0.470459,1.2019196
				c-0.3134766,0.3367767-0.7663574,0.5051575-1.3586426,0.5051575c-0.4179688,0-0.7780762-0.0754852-1.0800781-0.2264404
				c-0.3483887-0.2206421-0.5224609-0.522583-0.5224609-0.9057922c-0.0117188-0.058075-0.0117188-0.1335602,0-0.2264557
				s0.1044922-0.232254,0.2788086-0.4180603c0.1740723-0.1858063,0.4238281-0.3309631,0.7490234-0.4354858
				c0.2089844-0.0580597,0.4643555-0.110321,0.7663574-0.1567688s0.557373-0.0987091,0.7663574-0.1567688
				s0.3950195-0.1335449,0.557373-0.2264557c0.1975098-0.0928955,0.3891602-0.2090302,0.5749512-0.3483734
				c0.185791-0.1393585,0.371582-0.3774109,0.557373-0.7141876s0.2844238-0.6967621,0.2961426-1.0799866
				c0-0.719986-0.2207031-1.3122406-0.6618652-1.7767487c-0.4414063-0.4645233-1.1555176-0.7025757-2.1425781-0.7141876h-0.1394043
				c-0.6037598,0-1.161377,0.2090302-1.6721191,0.6270905l-0.1394043-0.121933l-0.1567383-0.1567841
				c-0.0698242-0.0696716-0.1394043-0.1335449-0.2092285-0.1916046l-0.1914063-0.1741943h-0.1394043h-0.0698242
				c-0.034668,0-0.0869141,0.0348358-0.1567383,0.1045227v1.3761139v1.0102997c0,0.2438812,0.0117188,0.3890381,0.0349121,0.4354858
				s0.0812988,0.0754852,0.1743164,0.0870972h0.1567383c0.1391602,0,0.2321777-0.0232239,0.2785645-0.0696869
				c0.0463867-0.0464478,0.0754395-0.1161194,0.0871582-0.2090149c0.0117188-0.0929108,0.0522461-0.2496796,0.1218262-0.4703217
				c0.0698242-0.2206421,0.1801758-0.4645081,0.3310547-0.7316132c0.4064941-0.5922394,0.9697266-0.8883667,1.6896973-0.8883667
				c1.1264648,0,1.6896973,0.4528961,1.6896973,1.3586884c0,0.3367767-0.1044922,0.6096649-0.3137207,0.8186951
				c-0.2321777,0.278717-0.7141113,0.4877472-1.4458008,0.6270905c-0.7314453,0.1393585-1.2133789,0.2729034-1.4455566,0.40065
				c-0.4182129,0.1974182-0.7490234,0.4645081-0.9929199,0.8012695c-0.2438965,0.3367767-0.3659668,0.6967773-0.3659668,1.0800018
				c0,0.4528961,0.098877,0.8361053,0.2961426,1.1496582c0.1975098,0.3135376,0.4472656,0.5457916,0.7490234,0.6967621
				c0.302002,0.1509705,0.5922852,0.2554779,0.8710938,0.3135529c0.2785645,0.0580597,0.5341797,0.0870972,0.7663574,0.0870972
				h0.1916504c0.4645996,0,0.8708496-0.0870972,1.2192383-0.2612915l0.2614746-0.1393585l0.1567383,0.121933
				c0.1159668,0.1045227,0.2438965,0.2032318,0.3830566,0.2961273h0.1394043h0.0698242
				c0.034668,0,0.0869141-0.0348358,0.1567383-0.1045074v-2.2993317l-0.1044922-0.1045227h-0.487793
				C-2986.3662109-197.0934296-2986.4008789-197.0237579-2986.4008789-196.9540863z"/>
		</g>
	</g>
	<g id="XMLID_130_">
		<path id="E1-MJMATHI-3B8_1_" class="st5" d="M419.8422241-198.9747009c0,1.184494,0.2264404,2.4328766,0.6793518,3.7451172
			c0.4528809,1.3122406,1.0683594,2.4444885,1.846405,3.3967285c0.7780762,0.9522552,1.585144,1.4980469,2.4212646,1.6374054
			c0.0116272,0,0.058075,0,0.1393738,0c0.0812683,0,0.1509399,0.0057983,0.2090149,0.0174255
			c0.6271057-0.046463,1.1148376-0.3309784,1.4632263-0.8535461c0.4528809-0.6967621,0.6793213-1.6315918,0.6793213-2.8044891
			c0-1.3354645-0.2612915-2.6941528-0.783844-4.0760803c-0.522583-1.3819122-1.1903076-2.5141602-2.0032043-3.3967285
			s-1.5909424-1.3238525-2.3341675-1.3238525h-0.1219482c-0.4180603,0-0.7780457,0.1161194-1.0799866,0.3483734
			c-0.3019104,0.2322693-0.5283813,0.5399933-0.6793518,0.9232178c-0.1509399,0.3832245-0.261261,0.7722473-0.3309631,1.1670837
			C419.8770447-199.7992096,419.8422241-199.3927612,419.8422241-198.9747009z M425.9040833-192.5992889
			c0,1.184494-0.3077393,1.7767487-0.9232178,1.7767487c-0.4180603,0-0.8244934-0.2612915-1.2193298-0.7838593
			c-0.3948364-0.522583-0.7200012-1.1148224-0.9754944-1.7767487c-0.2554626-0.6619415-0.4528809-1.242569-0.5922546-1.7419281
			c-0.1393433-0.4993439-0.2148132-0.7896576-0.2264404-0.8709564c0.5690308-0.0116119,1.1322632-0.0174103,1.6896667-0.0174103
			l1.6896667,0.0174103c0.0115967,0.0116119,0.0580444,0.2032318,0.1393433,0.5748444
			c0.0812988,0.3715973,0.1741943,0.8361053,0.278717,1.3935242
			C425.8692322-193.4702454,425.9156799-192.9941254,425.9040833-192.5992889z M421.2008972-200.1592102
			c0-1.2309418,0.3077393-1.8464203,0.9232178-1.8464203c0.1741943,0,0.3600159,0.0580597,0.5574341,0.1741943
			c0.1974182,0.1161194,0.4354553,0.3367615,0.7141724,0.6619263c0.278717,0.3251495,0.5574036,0.830307,0.8361206,1.5154572
			s0.5574036,1.5328827,0.8361206,2.5431976l0.0870972,0.2961273h-3.3967285c0-0.0348358-0.0522766-0.2554779-0.1567688-0.6619263
			c-0.1045227-0.4064484-0.1974182-0.8593445-0.278717-1.3586884
			C421.2415466-199.3347015,421.2008972-199.7759857,421.2008972-200.1592102z"/>
	</g>
	<g id="XMLID_127_">
		<path id="E1-MJMAIN-394_2_" class="st5" d="M428.2904968-202.4585266
			c-0.0580444,0.0464478-0.0870972,0.0870972-0.0870972,0.121933c0,0.0232239,0.9812927,2.0554504,2.9438477,6.0966949
			s2.9670715,6.0850983,3.0135193,6.131546c0.0348206,0.0812836,0.1974182,0.121933,0.4877319,0.121933
			c0.2670898,0,0.429657-0.0406494,0.4877319-0.121933c0.0348511-0.0464478,1.0335388-2.0903015,2.9960938-6.131546
			s2.949646-6.0734711,2.9612427-6.0966949c0-0.0348358-0.0290222-0.0754852-0.0870972-0.121933H428.2904968z
			 M436.2336426-196.4663391l-2.1425476,4.3896179l-4.3025513-8.7792511l4.2851257-0.0174103h4.3025208
			C438.3761902-200.8501587,437.6620178-199.3811493,436.2336426-196.4663391z"/>
	</g>
	<g id="XMLID_126_">
		<path id="E1-MJMATHI-74_2_" class="st5" d="M442.3825989-195.7521667
			c-0.0812988,0.0812988-0.1219482,0.1393585-0.1219482,0.1741943c0,0.0464478,0.0174255,0.1393585,0.0522766,0.278717
			c0.0348206,0.1393433,0.0638733,0.2206421,0.0870972,0.243866c0.0232239,0.0580597,0.07547,0.0870972,0.1567688,0.0870972
			c0.0812683,0,0.3774109,0.0057983,0.8883667,0.0174103h0.9232178l0.3309631,1.3935394
			c0.0348511,0.1277313,0.07547,0.2961273,0.1219482,0.5051575c0.0464478,0.2090302,0.0870972,0.3599854,0.1219177,0.4528961
			c0.0348511,0.0928955,0.0696716,0.2090302,0.1045227,0.3483734c0.0348206,0.1393585,0.0812988,0.2380676,0.1393433,0.2961273
			c0.058075,0.0580597,0.1161194,0.1277466,0.1741943,0.2090302c0.058075,0.0812988,0.1393433,0.1335449,0.243866,0.1567688
			c0.1045227,0.0232391,0.2090454,0.0348511,0.3135376,0.0348511c0.2090454-0.0116119,0.354187-0.0754852,0.4354858-0.1916199
			c0.0812988-0.1161194,0.1219482-0.2264404,0.1219482-0.3309631c0-0.0812836-0.0522766-0.354187-0.1567688-0.8186951
			c-0.1045227-0.4645081-0.2206421-0.9232178-0.3483887-1.3761139l-0.1741943-0.644516
			c0-0.0232239,0.2903137-0.0348358,0.8709412-0.0348358h0.8883972c0.0812683-0.0812836,0.1219177-0.1451569,0.1219177-0.1916046
			c0-0.2554779-0.07547-0.4587097-0.2264404-0.6096802h-1.8638611l-0.6270752-2.5257721
			c-0.4529114-1.8580475-0.6793518-2.8567352-0.6793518-2.9960938c0-0.4877319,0.1567688-0.7315979,0.4703064-0.7315979
			c0.4064636,0,0.8013,0.1974182,1.1845093,0.5922546c0.3832397,0.3948212,0.690979,0.8825684,0.9232178,1.4631958
			c0.0232239,0.0696869,0.0522461,0.110321,0.0870972,0.121933s0.1219482,0.0232391,0.2612915,0.0348511h0.0696716
			c0.1741943,0,0.2612915-0.046463,0.2612915-0.1393585c0-0.0348358-0.0174255-0.1045227-0.0522461-0.2090302
			c-0.058075-0.1858063-0.1625977-0.4064484-0.3135681-0.6619263s-0.3483582-0.5283813-0.5922546-0.8186951
			c-0.243866-0.290329-0.539978-0.5341949-0.8883667-0.7316132s-0.7025757-0.2961273-1.062561-0.2961273
			c-0.3483887,0-0.6793518,0.0870972-0.9928894,0.2612915s-0.5400085,0.47612-0.6793518,0.9057922
			c-0.0232239,0.0929108-0.0348511,0.2496796-0.0348511,0.4703217v0.3135376l0.6096802,2.4386902
			c0.4064636,1.6373901,0.6154785,2.4618988,0.6271057,2.4735107c0,0.0232239-0.2961426,0.0348358-0.8883972,0.0348358H442.3825989z
			"/>
	</g>
</g>
<g id="XMLID_94_">
</g>
<g id="XMLID_114_">
</g>
<g id="XMLID_115_">
</g>
<g id="XMLID_116_">
</g>
<g id="XMLID_117_">
</g>
<g id="XMLID_118_">
</g>
</svg>
