<?xml version="1.0" encoding="utf-8"?>
<!-- Generator: Adobe Illustrator 19.0.0, SVG Export Plug-In . SVG Version: 6.00 Build 0)  -->
<svg version="1.1" id="Layer_1" xmlns="http://www.w3.org/2000/svg" xmlns:xlink="http://www.w3.org/1999/xlink" x="0px" y="0px"
	 viewBox="0 0 164.75 77.75" style="enable-background:new 0 0 164.75 77.75;" xml:space="preserve">
<style type="text/css">
	.st0{fill:none;stroke:#000000;stroke-miterlimit:10;}
	.st1{fill:none;stroke:#2F8253;stroke-miterlimit:10;}
	.st2{fill:#010101;}
</style>
<line class="st0" x1="2.6947999" y1="7.3305998" x2="162.0332031" y2="46.1006012"/>
<path class="st1" d="M11.4419003,3.5479c5.9102001,37.8250999,13.4731007,18.2485008,29.0819988,12.9872999
	c38.5303001-12.9872999,61.6987953,1.669899,75.3598938,18.336401c8.7695007,10.6987,21.6572037,23.953598,33.6200943,40.5433998"/>
<circle class="st2" cx="40.3604012" cy="16.625" r="1.5"/>
<circle class="st2" cx="204.4853973" cy="289.75" r="1"/>
<circle class="st2" cx="115.7978973" cy="34.875" r="1.5"/>
<g>
	<g>
		<path class="st2" d="M42.0244141,2.9013672l-0.609375,6.5605469c-0.03125,0.3066406-0.046875,0.5087891-0.046875,0.6054688
			c0,0.1552734,0.0292969,0.2734375,0.0878906,0.3544922c0.0751953,0.1123047,0.1767578,0.1962891,0.3056641,0.25
			c0.1279297,0.0546875,0.34375,0.0820313,0.6474609,0.0820313L42.3447266,10.96875h-3.1611328l0.0654297-0.2148438h0.1357422
			c0.2568359,0,0.4658203-0.0546875,0.6279297-0.1630859c0.1142578-0.0742188,0.203125-0.1962891,0.265625-0.3662109
			c0.0439453-0.1201172,0.0849609-0.4033203,0.125-0.8496094l0.0947266-1h-2.296875l-0.8168945,1.0869141
			c-0.1855469,0.2451172-0.3017578,0.4199219-0.3491211,0.5263672c-0.0473633,0.1074219-0.0712891,0.2070313-0.0712891,0.2998047
			c0,0.1240234,0.0512695,0.2304688,0.1542969,0.3203125c0.1025391,0.0888672,0.2719727,0.1376953,0.5087891,0.1455078
			L37.5620117,10.96875h-2.3735352l0.0649414-0.2148438c0.2919922-0.0117188,0.5493164-0.1083984,0.7724609-0.2880859
			c0.2231445-0.1806641,0.5551758-0.5654297,0.9975586-1.1552734l4.7939453-6.4091797H42.0244141z M40.8525391,4.8378906
			l-2.3256836,3.1123047h2.0180664L40.8525391,4.8378906z"/>
	</g>
</g>
<g>
	<g>
		<path class="st2" d="M118.5908203,22.090332l0.0830078-0.215332h2.8652344c0.4814453,0,0.9101563,0.0737305,1.2871094,0.2207031
			c0.3769531,0.1474609,0.6591797,0.3530273,0.8466797,0.6166992s0.28125,0.5429688,0.28125,0.8378906
			c0,0.4536133-0.1669922,0.8637695-0.5,1.2299805c-0.3339844,0.3666992-0.8779297,0.6367188-1.6308594,0.8115234
			c0.4853516,0.1782227,0.8417969,0.4150391,1.0712891,0.7094727c0.2285156,0.2949219,0.3427734,0.6186523,0.3427734,0.9711914
			c0,0.3920898-0.1025391,0.7661133-0.3076172,1.1230469c-0.2050781,0.3564453-0.46875,0.6337891-0.7900391,0.831543
			s-0.7089844,0.3432617-1.1630859,0.4360352c-0.3232422,0.0664063-0.8291016,0.0991211-1.515625,0.0991211h-2.9414063
			l0.0771484-0.215332c0.3076172-0.0078125,0.5166016-0.0366211,0.6269531-0.0869141
			c0.1582031-0.065918,0.2705078-0.1533203,0.3378906-0.262207c0.0947266-0.1469727,0.2207031-0.484375,0.3789063-1.0117188
			l1.4384766-4.7753906c0.1220703-0.4033203,0.1826172-0.6865234,0.1826172-0.8496094
			c0-0.1430664-0.0537109-0.2568359-0.1621094-0.3398438c-0.1083984-0.0834961-0.3144531-0.1254883-0.6191406-0.1254883
			C118.7138672,22.0957031,118.6503906,22.0942383,118.5908203,22.090332z M118.6269531,29.2504883
			c0.4257813,0.0541992,0.7597656,0.0810547,1,0.0810547c0.6152344,0,1.1611328-0.1821289,1.6367188-0.5463867
			c0.4755859-0.3647461,0.7128906-0.8588867,0.7128906-1.4833984c0-0.4770508-0.1464844-0.8491211-0.4404297-1.1166992
			s-0.7685547-0.4013672-1.4238281-0.4013672c-0.1259766,0-0.2802734,0.0058594-0.4619141,0.0175781L118.6269531,29.2504883z
			 M119.7929688,25.3647461c0.2558594,0.0078125,0.4414063,0.0117188,0.5566406,0.0117188
			c0.8203125,0,1.4306641-0.175293,1.8310547-0.5263672s0.6015625-0.7900391,0.6015625-1.3173828
			c0-0.3994141-0.1230469-0.7104492-0.3671875-0.9335938c-0.2451172-0.2231445-0.6357422-0.3344727-1.171875-0.3344727
			c-0.1425781,0-0.3242188,0.0234375-0.5449219,0.0698242L119.7929688,25.3647461z"/>
	</g>
</g>
<g>
</g>
<g>
</g>
<g>
</g>
<g>
</g>
<g>
</g>
<g>
</g>
</svg>
