<?xml version="1.0" encoding="utf-8"?>
<!-- Generator: Adobe Illustrator 19.0.0, SVG Export Plug-In . SVG Version: 6.00 Build 0)  -->
<svg version="1.1" id="Layer_1" xmlns="http://www.w3.org/2000/svg" xmlns:xlink="http://www.w3.org/1999/xlink" x="0px" y="0px"
	 viewBox="0 0 169 188.6666718" style="enable-background:new 0 0 169 188.6666718;" xml:space="preserve">
<style type="text/css">
	.st0{fill:none;stroke:#000000;stroke-miterlimit:10;}
	.st1{fill:none;stroke:#068C45;stroke-miterlimit:10;}
	.st2{fill-rule:evenodd;clip-rule:evenodd;fill:none;stroke:#000000;stroke-miterlimit:10;}
	.st3{fill-rule:evenodd;clip-rule:evenodd;fill:#3DA548;stroke:#000000;stroke-miterlimit:10;}
	.st4{fill:#010101;}
</style>
<line class="st0" x1="4.6283965" y1="4.9153333" x2="163.9667969" y2="43.6854324"/>
<path class="st1" d="M12.5404959,14.3548336c5.9102011,37.8252029,13.4732008,18.2484989,29.0820999,12.987299
	c38.5301971-12.987299,61.6987,1.6699009,75.3597946,18.3363991c8.7696075,10.6987,21.657196,23.9536018,33.6201019,40.543499"/>
<circle class="st2" cx="78.2399445" cy="39.4993324" r="8.9289474"/>
<rect x="62.6306305" y="47.0245438" transform="matrix(0.7670962 0.6415321 -0.6415321 0.7670962 50.316452 -28.8232784)" class="st3" width="4.4487252" height="15.723979"/>
<circle class="st2" cx="78.2399979" cy="39.4993324" r="11.6990004"/>
<polyline class="st3" points="72.816391,84.2562332 78.987793,79.6185303 76.3529968,79.3235321 78.6078949,63.1990318 
	73.2460938,62.3440323 70.9911957,78.468132 68.3100967,78.0408325 72.816391,84.2562332 "/>
<g>
	<g>
		<path class="st4" d="M78.2397461,33.1985664h1.0664063v5.2294922h5.1665039v1.0610352h-5.1665039v5.1962891h-1.0664063v-5.1962891
			h-5.1884766v-1.0610352h5.1884766V33.1985664z"/>
	</g>
</g>
<path class="st0" d="M389.3544922,211.075531"/>
<line class="st0" x1="30.7421951" y1="123.8187332" x2="126.4169998" y2="147.0970306"/>
<path class="st0" d="M-229.2187958,60.5657349"/>
<path class="st1" d="M29.9716949,127.013031c36.9043045,1.0820007,68.5233994,9.9804993,95.572197,23.5702972"/>
<path class="st0" d="M29.9721966,127.0140305"/>
<circle class="st0" cx="78.2401962" cy="136.8431396" r="49.25"/>
<circle class="st4" cx="80.4853973" cy="133.8333282" r="1.5"/>
<circle class="st4" cx="49.5" cy="128.3333282" r="1.5"/>
<circle class="st4" cx="107.2978973" cy="142.4583282" r="1.5"/>
<g>
	<g>
		<path class="st4" d="M55.7441406,115.7513046l-0.609375,6.5605469c-0.03125,0.3066406-0.046875,0.5087891-0.046875,0.6054688
			c0,0.1552734,0.0292969,0.2734375,0.0878906,0.3544922c0.0751953,0.1123047,0.1767578,0.1962891,0.3056641,0.25
			c0.1279297,0.0546875,0.34375,0.0820313,0.6474609,0.0820313l-0.0644531,0.2148438h-3.1611328l0.0654297-0.2148438h0.1357422
			c0.2568359,0,0.4658203-0.0546875,0.6279297-0.1630859c0.1142578-0.0742188,0.203125-0.1962891,0.265625-0.3662109
			c0.0439453-0.1201172,0.0849609-0.4033203,0.125-0.8496094l0.0947266-1h-2.296875l-0.8168945,1.0869141
			c-0.1855469,0.2451172-0.3017578,0.4199219-0.3491211,0.5263672c-0.0473633,0.1074219-0.0712891,0.2070313-0.0712891,0.2998047
			c0,0.1240234,0.0512695,0.2304688,0.1542969,0.3203125c0.1025391,0.0888672,0.2719727,0.1376953,0.5087891,0.1455078
			l-0.0649414,0.2148438h-2.3735352l0.0649414-0.2148438c0.2919922-0.0117188,0.5493164-0.1083984,0.7724609-0.2880859
			c0.2231445-0.1806641,0.5551758-0.5654297,0.9975586-1.1552734l4.7939453-6.4091797H55.7441406z M54.5722656,117.6878281
			l-2.3256836,3.1123047h2.0180664L54.5722656,117.6878281z"/>
	</g>
</g>
<g>
	<g>
		<path class="st4" d="M110.5913086,131.126297l0.0830078-0.2158203h2.8647461c0.4814453,0,0.9101563,0.0742188,1.2871094,0.2207031
			c0.3769531,0.1474609,0.6591797,0.3535156,0.8466797,0.6171875s0.28125,0.5429688,0.28125,0.8378906
			c0,0.453125-0.1669922,0.8632813-0.5,1.2294922c-0.3339844,0.3671875-0.8779297,0.6367188-1.6308594,0.8125
			c0.4853516,0.1777344,0.8417969,0.4140625,1.0712891,0.7089844c0.2285156,0.2949219,0.3427734,0.6181641,0.3427734,0.9716797
			c0,0.3916016-0.1025391,0.765625-0.3076172,1.1220703c-0.2050781,0.3574219-0.46875,0.6347656-0.7900391,0.8320313
			c-0.3212891,0.1982422-0.7089844,0.3427734-1.1630859,0.4365234c-0.3232422,0.0654297-0.8286133,0.0986328-1.5151367,0.0986328
			h-2.9418945l0.0771484-0.2148438c0.3076172-0.0078125,0.5166016-0.0371094,0.6274414-0.0878906
			c0.1577148-0.0654297,0.2700195-0.1533203,0.3374023-0.2617188c0.0947266-0.1474609,0.2207031-0.484375,0.3789063-1.0117188
			l1.4379883-4.7753906c0.1225586-0.4033203,0.1835938-0.6865234,0.1835938-0.8496094
			c0-0.1435547-0.0541992-0.2568359-0.1625977-0.3398438c-0.1088867-0.0839844-0.3149414-0.1259766-0.6186523-0.1259766
			C110.7133789,131.1311798,110.6503906,131.1302032,110.5913086,131.126297z M110.6269531,138.2864532
			c0.4257813,0.0546875,0.7592773,0.0810547,1,0.0810547c0.6157227,0,1.1611328-0.1816406,1.6367188-0.546875
			c0.4755859-0.3642578,0.7128906-0.8583984,0.7128906-1.4824219c0-0.4775391-0.1464844-0.8496094-0.4404297-1.1171875
			s-0.7685547-0.4013672-1.4238281-0.4013672c-0.1259766,0-0.2802734,0.0058594-0.4614258,0.0175781L110.6269531,138.2864532z
			 M111.7929688,134.4007111c0.2563477,0.0078125,0.4418945,0.0117188,0.5561523,0.0117188
			c0.8208008,0,1.4311523-0.1757813,1.831543-0.5263672c0.4003906-0.3515625,0.6015625-0.7900391,0.6015625-1.3173828
			c0-0.3994141-0.1230469-0.7109375-0.3671875-0.9335938c-0.2451172-0.2236328-0.6357422-0.3349609-1.171875-0.3349609
			c-0.1425781,0-0.3242188,0.0234375-0.5449219,0.0703125L111.7929688,134.4007111z"/>
	</g>
</g>
<g>
	<g>
		<path class="st4" d="M89.0146484,120.2171249l-0.5976563,2.5693359H88.203125l-0.0234375-0.6435547
			c-0.0195313-0.234375-0.0644531-0.4433594-0.1357422-0.6269531c-0.0712891-0.1826172-0.1777344-0.3417969-0.3193359-0.4765625
			c-0.1425781-0.1347656-0.3222656-0.2402344-0.5390625-0.3154297c-0.2167969-0.0761719-0.4580078-0.1142578-0.7216797-0.1142578
			c-0.7070313,0-1.3242188,0.1914063-1.8530273,0.5732422c-0.6748047,0.4873047-1.2036133,1.1757813-1.5864258,2.0654297
			c-0.3154297,0.7333984-0.4731445,1.4765625-0.4731445,2.2294922c0,0.7685547,0.2265625,1.3818359,0.6806641,1.8398438
			c0.4536133,0.4589844,1.043457,0.6874924,1.7695313,0.6874924c0.5483398,0,1.0366211-0.1201096,1.465332-0.3622971
			c0.4277344-0.2421875,0.8251953-0.6142578,1.1923828-1.1171875H87.9375
			c-0.4345703,0.6826172-0.9160156,1.1845703-1.4443359,1.5058517c-0.5292969,0.3222656-1.1621094,0.4833984-1.8999023,0.4833984
			c-0.6552734,0-1.2353516-0.1357422-1.7402344-0.4072266c-0.5053711-0.2705002-0.8901367-0.6523361-1.1542969-1.1435471
			c-0.2646484-0.4912109-0.3964844-1.0205078-0.3964844-1.5859375c0-0.8662109,0.2348633-1.7089844,0.7041016-2.5273438
			c0.4697266-0.8193359,1.1137695-1.4628906,1.9326172-1.9316406c0.8188477-0.4677734,1.644043-0.7021484,2.4770508-0.7021484
			c0.390625,0,0.8291016,0.0917969,1.3144531,0.2753906c0.2128906,0.078125,0.3662109,0.1171875,0.4609375,0.1171875
			s0.1777344-0.0195313,0.2490234-0.0585938s0.1894531-0.1503906,0.3554688-0.3339844H89.0146484z"/>
	</g>
</g>
<g>
	<g>
		<path class="st4" d="M92.8266602,12.5530596l-0.5976563,2.5688477h-0.2138672l-0.0234375-0.6435547
			c-0.0195313-0.234375-0.0644531-0.4428711-0.1357422-0.6264648c-0.0712891-0.1831055-0.1777344-0.3422852-0.3193359-0.4765625
			c-0.1425781-0.1347656-0.3222656-0.2402344-0.5390625-0.315918c-0.2167969-0.0761719-0.4580078-0.1142578-0.7216797-0.1142578
			c-0.7070313,0-1.3242188,0.1914063-1.8530273,0.5732422c-0.6748047,0.487793-1.2036133,1.1762695-1.5864258,2.065918
			c-0.3154297,0.7333994-0.4731445,1.4760752-0.4731445,2.2290049c0,0.7685547,0.2265625,1.3818359,0.6806641,1.8398438
			c0.4536133,0.4589844,1.043457,0.6875,1.7695313,0.6875c0.5483398,0,1.0366211-0.1201172,1.465332-0.3623047
			c0.4277344-0.2421875,0.8251953-0.6142578,1.1923828-1.1171875h0.2783203
			c-0.4345703,0.6826172-0.9160156,1.1845703-1.4443359,1.5058594c-0.5292969,0.3222656-1.1621094,0.4833984-1.8999023,0.4833984
			c-0.6552734,0-1.2353516-0.1357422-1.7402344-0.4072266c-0.5053711-0.2705078-0.8901367-0.6523438-1.1542969-1.1435547
			c-0.2646484-0.4912109-0.3964844-1.0205078-0.3964844-1.5859375c0-0.8662109,0.2348633-1.7084961,0.7041016-2.5273447
			c0.4697266-0.8193359,1.1137695-1.4628906,1.9326172-1.9311523s1.644043-0.7021484,2.4770508-0.7021484
			c0.390625,0,0.8291016,0.0917969,1.3144531,0.2749023c0.2128906,0.078125,0.3662109,0.1171875,0.4609375,0.1171875
			s0.1777344-0.0195313,0.2490234-0.0585938s0.1894531-0.1499023,0.3554688-0.3334961H92.8266602z"/>
	</g>
</g>
<circle class="st4" cx="84.5" cy="24.3003826" r="1.5"/>
<g>
</g>
<g>
</g>
<g>
</g>
<g>
</g>
<g>
</g>
<g>
</g>
</svg>
