<?xml version="1.0" encoding="utf-8"?>
<!-- Generator: Adobe Illustrator 19.0.0, SVG Export Plug-In . SVG Version: 6.00 Build 0)  -->
<svg version="1.1" id="Layer_1" xmlns="http://www.w3.org/2000/svg" xmlns:xlink="http://www.w3.org/1999/xlink" x="0px" y="0px"
	 viewBox="24 28 610.581665 376.5" style="enable-background:new 24 28 610.581665 376.5;" xml:space="preserve">
<style type="text/css">
	.st0{fill:#FFFFFF;}
	.st1{fill:none;stroke:#262626;stroke-linecap:square;stroke-linejoin:round;stroke-miterlimit:10;}
	.st2{enable-background:new    ;}
	.st3{fill:#262626;}
	.st4{fill:none;stroke:#0072BD;stroke-linejoin:round;stroke-miterlimit:10;}
	.st5{fill:none;stroke:#D95319;stroke-linejoin:round;stroke-miterlimit:10;}
</style>
<path class="st0" d="M58.4279404,180.8914795h261.2456665V45.4174652H58.4279404V180.8914795z"/>
<g>
	<line class="st1" x1="58.4279404" y1="180.8914795" x2="319.6736145" y2="180.8914795"/>
	<line class="st1" x1="58.4279404" y1="45.4174652" x2="319.6736145" y2="45.4174652"/>
	<line class="st1" x1="64.3151703" y1="180.8914795" x2="64.3151703" y2="178.2790375"/>
	<line class="st1" x1="105.893692" y1="180.8914795" x2="105.893692" y2="178.2790375"/>
	<line class="st1" x1="147.4722137" y1="180.8914795" x2="147.4722137" y2="178.2790375"/>
	<line class="st1" x1="189.050766" y1="180.8914795" x2="189.050766" y2="178.2790375"/>
	<line class="st1" x1="230.629303" y1="180.8914795" x2="230.629303" y2="178.2790375"/>
	<line class="st1" x1="272.2078552" y1="180.8914795" x2="272.2078552" y2="178.2790375"/>
	<line class="st1" x1="313.786377" y1="180.8914795" x2="313.786377" y2="178.2790375"/>
	<line class="st1" x1="64.3151703" y1="45.4174652" x2="64.3151703" y2="48.0299225"/>
	<line class="st1" x1="105.893692" y1="45.4174652" x2="105.893692" y2="48.0299225"/>
	<line class="st1" x1="147.4722137" y1="45.4174652" x2="147.4722137" y2="48.0299225"/>
	<line class="st1" x1="189.050766" y1="45.4174652" x2="189.050766" y2="48.0299225"/>
	<line class="st1" x1="230.629303" y1="45.4174652" x2="230.629303" y2="48.0299225"/>
	<line class="st1" x1="272.2078552" y1="45.4174652" x2="272.2078552" y2="48.0299225"/>
	<line class="st1" x1="313.786377" y1="45.4174652" x2="313.786377" y2="48.0299225"/>
</g>
<g transform="translate(138.3831,439)">
	<g class="st2">
		<path class="st3" d="M-75.9319305-245.925293v0.7011719h-2.6645508v-0.7011719H-75.9319305z"/>
		<path class="st3" d="M-71.1228485-249c-0.1943359-0.0107422-0.4423828,0-0.7119141,0.0429688
			c-1.4887695,0.2480469-2.2763672,1.3378906-2.4379883,2.4921875h0.0322266
			c0.3344727-0.4423828,0.9169922-0.809082,1.6938477-0.809082c1.2402344,0,2.1142578,0.8955078,2.1142578,2.265625
			c0,1.2836914-0.8740234,2.4702148-2.3300781,2.4702148c-1.4995117,0-2.4814453-1.1650391-2.4814453-2.9882813
			c0-1.3808594,0.496582-2.4702148,1.1870117-3.1606445c0.5825195-0.5717773,1.3588867-0.9277344,2.2436523-1.0356445
			c0.2802734-0.043457,0.5180664-0.0541992,0.6904297-0.0541992V-249z M-71.3923798-244.9545898
			c0-1.003418-0.5717773-1.6074219-1.4458008-1.6074219c-0.5717773,0-1.1000977,0.355957-1.359375,0.8632813
			c-0.0644531,0.1079102-0.1079102,0.2480469-0.1079102,0.4204102c0.0219727,1.1542969,0.550293,2.0068359,1.5429688,2.0068359
			C-71.9426727-243.2714844-71.3923798-243.9511719-71.3923798-244.9545898z"/>
	</g>
</g>
<g transform="translate(254.0887,439)">
	<g class="st2">
		<path class="st3" d="M-150.0594025-245.925293v0.7011719h-2.6645508v-0.7011719H-150.0594025z"/>
		<path class="st3" d="M-146.3181915-242.6567383v-1.909668h-3.2583008v-0.6254883l3.1289063-4.4770508h1.0249023v4.3583984
			h0.9814453v0.7441406h-0.9814453v1.909668H-146.3181915z M-146.3181915-245.3105469v-2.3408203
			c0-0.3671875,0.0107422-0.7338867,0.0322266-1.1005859h-0.0322266c-0.2158203,0.4101563-0.3886719,0.7119141-0.5825195,1.0356445
			l-1.715332,2.3842773v0.0214844H-146.3181915z"/>
	</g>
</g>
<g transform="translate(369.7943,439)">
	<g class="st2">
		<path class="st3" d="M-224.1849365-245.925293v0.7011719h-2.6645508v-0.7011719H-224.1849365z"/>
		<path class="st3" d="M-223.3782959-242.6567383v-0.5825195l0.7446289-0.7226563
			c1.7905273-1.7045898,2.5996094-2.6108398,2.6103516-3.6679688c0-0.7119141-0.3452148-1.3701172-1.3916016-1.3701172
			c-0.6362305,0-1.1650391,0.3237305-1.4887695,0.5932617l-0.3017578-0.6689453
			c0.4853516-0.409668,1.1757813-0.7119141,1.9848633-0.7119141c1.5102539,0,2.1469727,1.0356445,2.1469727,2.0390625
			c0,1.2944336-0.9389648,2.3408203-2.4165039,3.7646484l-0.5610352,0.5180664v0.0214844h3.1499023v0.7875977H-223.3782959z"/>
	</g>
</g>
<g transform="translate(485.5,439)">
	<g class="st2">
		<path class="st3" d="M-294.3579102-246.2382813c0,2.3842773-0.8847656,3.7001953-2.4379883,3.7001953
			c-1.3701172,0-2.2978516-1.2836914-2.3198242-3.6030273c0-2.3520508,1.0141602-3.6464844,2.4384766-3.6464844
			C-295.199707-249.7875977-294.3579102-248.4716797-294.3579102-246.2382813z M-298.1660156-246.1303711
			c0,1.8232422,0.5605469,2.8588867,1.4238281,2.8588867c0.9707031,0,1.4345703-1.1328125,1.4345703-2.9238281
			c0-1.7260742-0.4418945-2.8588867-1.4238281-2.8588867C-297.5620117-249.0541992-298.1660156-248.0400391-298.1660156-246.1303711
			z"/>
	</g>
</g>
<g transform="translate(601.2056,439)">
	<g class="st2">
		<path class="st3" d="M-373.1450806-242.6567383v-0.5825195l0.7446289-0.7226563
			c1.7905273-1.7045898,2.5996094-2.6108398,2.6103516-3.6679688c0-0.7119141-0.3452148-1.3701172-1.3916016-1.3701172
			c-0.6362305,0-1.1650391,0.3237305-1.4887695,0.5932617l-0.3017578-0.6689453
			c0.4853516-0.409668,1.1757813-0.7119141,1.9848633-0.7119141c1.5102539,0,2.1469727,1.0356445,2.1469727,2.0390625
			c0,1.2944336-0.9389648,2.3408203-2.4165039,3.7646484l-0.5610352,0.5180664v0.0214844h3.1499023v0.7875977H-373.1450806z"/>
	</g>
</g>
<g transform="translate(716.9113,439)">
	<g class="st2">
		<path class="st3" d="M-444.3380737-242.6567383v-1.909668h-3.2583008v-0.6254883l3.1289063-4.4770508h1.0249023v4.3583984
			h0.9814453v0.7441406h-0.9814453v1.909668H-444.3380737z M-444.3380737-245.3105469v-2.3408203
			c0-0.3671875,0.0107422-0.7338867,0.0322266-1.1005859h-0.0322266c-0.2158203,0.4101563-0.3886719,0.7119141-0.5825195,1.0356445
			l-1.715332,2.3842773v0.0214844H-444.3380737z"/>
	</g>
</g>
<g transform="translate(832.6169,439)">
	<g class="st2">
		<path class="st3" d="M-517.397644-249c-0.1943359-0.0107422-0.4423828,0-0.7119141,0.0429688
			c-1.4887695,0.2480469-2.2763672,1.3378906-2.4379883,2.4921875h0.0322266
			c0.3344727-0.4423828,0.9169922-0.809082,1.6938477-0.809082c1.2402344,0,2.1142578,0.8955078,2.1142578,2.265625
			c0,1.2836914-0.8740234,2.4702148-2.3300781,2.4702148c-1.4995117,0-2.4814453-1.1650391-2.4814453-2.9882813
			c0-1.3808594,0.496582-2.4702148,1.1870117-3.1606445c0.5825195-0.5717773,1.3588867-0.9277344,2.2436523-1.0356445
			c0.2802734-0.043457,0.5180664-0.0541992,0.6904297-0.0541992V-249z M-517.6671753-244.9545898
			c0-1.003418-0.5717773-1.6074219-1.4458008-1.6074219c-0.5717773,0-1.1000977,0.355957-1.359375,0.8632813
			c-0.0644531,0.1079102-0.1079102,0.2480469-0.1079102,0.4204102c0.0219727,1.1542969,0.550293,2.0068359,1.5429688,2.0068359
			C-518.2174683-243.2714844-517.6671753-243.9511719-517.6671753-244.9545898z"/>
	</g>
</g>
<g transform="translate(485.5003,480)">
	<g class="st2">
		<path class="st3" d="M-298.1526489-273.5844727l0.8178711,1.2329102c0.2138672,0.3203125,0.3916016,0.6166992,0.5810547,0.9365234
			h0.0356445c0.1899414-0.34375,0.3793945-0.6401367,0.5693359-0.9482422l0.8061523-1.2211914h1.1259766l-1.9560547,2.7744141
			l2.015625,2.9638672h-1.1855469l-0.8417969-1.2924805c-0.2255859-0.3320313-0.4150391-0.6518555-0.6166992-0.9956055h-0.0234375
			c-0.1899414,0.34375-0.3916016,0.6518555-0.6049805,0.9956055l-0.8295898,1.2924805h-1.1503906l2.0395508-2.9282227
			l-1.9448242-2.8100586H-298.1526489z"/>
	</g>
</g>
<g>
	<line class="st1" x1="58.4279404" y1="180.8914795" x2="58.4279404" y2="45.4174652"/>
	<line class="st1" x1="319.6736145" y1="180.8914795" x2="319.6736145" y2="45.4174652"/>
	<line class="st1" x1="58.4279404" y1="180.8914795" x2="61.0403976" y2="180.8914795"/>
	<line class="st1" x1="58.4279404" y1="147.0229797" x2="61.0403976" y2="147.0229797"/>
	<line class="st1" x1="58.4279404" y1="113.1544724" x2="61.0403976" y2="113.1544724"/>
	<line class="st1" x1="58.4279404" y1="79.2859726" x2="61.0403976" y2="79.2859726"/>
	<line class="st1" x1="58.4279404" y1="45.4174652" x2="61.0403976" y2="45.4174652"/>
	<line class="st1" x1="319.6736145" y1="180.8914795" x2="317.0611267" y2="180.8914795"/>
	<line class="st1" x1="319.6736145" y1="147.0229797" x2="317.0611267" y2="147.0229797"/>
	<line class="st1" x1="319.6736145" y1="113.1544724" x2="317.0611267" y2="113.1544724"/>
	<line class="st1" x1="319.6736145" y1="79.2859726" x2="317.0611267" y2="79.2859726"/>
	<line class="st1" x1="319.6736145" y1="45.4174652" x2="317.0611267" y2="45.4174652"/>
</g>
<g transform="translate(110,427)">
	<g class="st2">
		<path class="st3" d="M-62.5986328-245.065918v0.7011719h-2.6645508v-0.7011719H-62.5986328z"/>
		<path class="st3" d="M-61.7919922-241.7973633v-0.5825195l0.7446289-0.7226563
			c1.7905273-1.7045898,2.5996094-2.6108398,2.6103516-3.6679688c0-0.7119141-0.3452148-1.3701172-1.3916016-1.3701172
			c-0.6362305,0-1.1650391,0.3237305-1.4887695,0.5932617l-0.3017578-0.6689453
			c0.4853516-0.409668,1.1757813-0.7119141,1.9848633-0.7119141c1.5102539,0,2.1469727,1.0356445,2.1469727,2.0390625
			c0,1.2944336-0.9389648,2.3408203-2.4165039,3.7646484l-0.5610352,0.5180664v0.0214844h3.1499023v0.7875977H-61.7919922z"/>
	</g>
</g>
<g transform="translate(110,332.75)">
	<g class="st2">
		<path class="st3" d="M-62.5986328-184.6831055v0.7011719h-2.6645508v-0.7011719H-62.5986328z"/>
		<path class="st3" d="M-59.7314453-187.5419922h-0.0214844l-1.2192383,0.6577148l-0.1831055-0.7226563l1.5317383-0.8198242
			h0.809082v7.012207h-0.9169922V-187.5419922z"/>
	</g>
</g>
<g transform="translate(110,238.5)">
	<g class="st2">
		<path class="st3" d="M-56.8481445-124.6152344c0,2.3842773-0.8847656,3.7001953-2.4379883,3.7001953
			c-1.3701172,0-2.2978516-1.2836914-2.3198242-3.6030273c0-2.3520508,1.0141602-3.6464844,2.4384766-3.6464844
			C-57.6899414-128.1645508-56.8481445-126.8486328-56.8481445-124.6152344z M-60.65625-124.5073242
			c0,1.8232422,0.5605469,2.8588867,1.4238281,2.8588867c0.9707031,0,1.4345703-1.1328125,1.4345703-2.9238281
			c0-1.7260742-0.4418945-2.8588867-1.4238281-2.8588867C-60.0522461-127.4311523-60.65625-126.4169922-60.65625-124.5073242z"/>
	</g>
</g>
<g transform="translate(110,144.25)">
	<g class="st2">
		<path class="st3" d="M-59.4482422-66.7802734h-0.0214844l-1.2192383,0.6577148l-0.1831055-0.7226563l1.5317383-0.8198242h0.809082
			v7.012207h-0.9169922V-66.7802734z"/>
	</g>
</g>
<g transform="translate(110,50)">
	<g class="st2">
		<path class="st3" d="M-61.5087891-0.2709961v-0.5825195l0.7446289-0.7226563
			c1.7905273-1.7045898,2.5996094-2.6108398,2.6103516-3.6679688c0-0.7119141-0.3452148-1.3701172-1.3916016-1.3701172
			c-0.6362305,0-1.1650391,0.3237305-1.4887695,0.5932617l-0.3017578-0.6689453
			c0.4853516-0.409668,1.1757813-0.7119141,1.9848633-0.7119141c1.5102539,0,2.1469727,1.0356445,2.1469727,2.0390625
			c0,1.2944336-0.9389648,2.3408203-2.4165039,3.7646484l-0.5610352,0.5180664v0.0214844h3.1499023v0.7875977H-61.5087891z"/>
	</g>
</g>
<g transform="translate(74,238.4998) rotate(-90)">
	<g class="st2">
		<path class="st3" d="M123.5373993-41.4345703l1.2563477,3.390625c0.1303711,0.3793945,0.2729492,0.8300781,0.3676758,1.1738281
			h0.0239258c0.1064453-0.34375,0.2250977-0.7822266,0.3671875-1.1972656l1.1381836-3.3671875h1.1030273l-1.5654297,4.090332
			c-0.746582,1.9682617-1.2563477,2.9760742-1.9677734,3.5922852c-0.5097656,0.4506836-1.0195313,0.628418-1.2807617,0.6757813
			l-0.2607422-0.8774414c0.2607422-0.0830078,0.6044922-0.2490234,0.9130859-0.5097656
			c0.284668-0.2250977,0.6401367-0.628418,0.8774414-1.1616211c0.0473633-0.1069336,0.0830078-0.1899414,0.0830078-0.2490234
			c0-0.0595703-0.0239258-0.1425781-0.0712891-0.2729492l-2.1220703-5.2875977H123.5373993z"/>
	</g>
</g>
<g transform="translate(485.5005,47.25)">
	<g class="st2">
		<path d="M-306.6894531-5.6958008v-7.9912109h1.1264648l2.5610352,4.0429688
			c0.5927734,0.9370117,1.0551758,1.7788086,1.4345703,2.5966797l0.0234375-0.0117188
			c-0.0947266-1.0673828-0.1181641-2.0395508-0.1181641-3.2841797v-3.34375h0.972168v7.9912109h-1.043457l-2.5371094-4.0546875
			c-0.5571289-0.8891602-1.0908203-1.8022461-1.4941406-2.6674805l-0.0356445,0.0117188
			c0.0595703,1.0078125,0.0830078,1.9677734,0.0830078,3.2958984v3.4145508H-306.6894531z"/>
		<path d="M-299.3134766-9.6914063v-0.7114258h6.1176758v0.7114258H-299.3134766z M-299.3134766-7.3676758v-0.7114258h6.1176758
			v0.7114258H-299.3134766z"/>
		<path d="M-289.9223633-12.4301758h-0.0234375l-1.3398438,0.7231445l-0.2016602-0.7939453l1.6835938-0.9013672h0.8891602v7.706543
			h-1.0078125V-12.4301758z"/>
	</g>
</g>
<g>
	<path class="st4" d="M58.4279404,113.1544724l0.8737183-1.4230118l0.8737526-1.4204636l0.8737183-1.4155121l0.8737526-1.4079208
		l0.8737183-1.397934l0.8737144-1.3854675l0.8737526-1.3705444l0.8737259-1.3531952l0.8737183-1.3334656l0.8737488-1.3113708
		l0.8737183-1.2869644l0.8737564-1.2603073l0.8737183-1.2313766l0.8737106-1.2002945l0.8737564-1.1671219l0.8737183-1.1318359
		l0.8737183-1.094574l0.8737488-1.0554047l0.8737183-1.014328l0.8737564-0.9714966l0.8737183-0.9269409l0.8737106-0.880722
		l0.8737564-0.832962l0.8737259-0.7837753l0.8737488-0.7331085l0.8737183-0.6812515l0.8737183-0.6281052l0.8737564-0.5739136
		l0.8737183-0.5186844l0.8737106-0.4625092l0.8737564-0.4055634l0.8737183-0.3478775l0.8737183-0.289566l0.8737488-0.2307739
		l0.8737183-0.1715851l0.8737564-0.1120453l0.8737183-0.0523224l0.8737488,0.0074692l0.8737183,0.0672684l0.8737259,0.1269608
		l0.8737106,0.1863937l0.8737564,0.2455063l0.8737183,0.3042297l0.8737564,0.3623581l0.8737106,0.4198608l0.8737564,0.4766388
		l0.8737183,0.5325928l0.8737183,0.587532l0.8737488,0.6415024l0.8737183,0.6943359l0.8737183,0.7458954l0.8737564,0.7962112
		l0.8737106,0.8450394l0.8737564,0.8924408l0.8737183,0.9382172l0.8737183,0.9823914l0.8737564,1.0247498l0.8737183,1.0653915
		l0.8737488,1.1040649l0.8737183,1.1408463l0.8737183,1.1756058l0.8737259,1.2082748l0.8737488,1.2388153l0.8737183,1.2671661
		l0.8737488,1.2932892l0.8737259,1.3171158l0.8737183,1.3386078l0.8737488,1.3577652l0.8737106,1.3745041l0.873764,1.3888016
		l0.8737183,1.4007034l0.8737106,1.4100418l0.8737488,1.4169464l0.8737183,1.4213638l0.8737183,1.4232635l0.8737564,1.4225845
		l0.8737183,1.4194946l0.8737488,1.4138184l0.8737183,1.4056931l0.8737259,1.3950577l0.8737488,1.3819427l0.8737183,1.3664246
		l0.8737488,1.3484879l0.8737335,1.3281403l0.873703,1.3055191l0.873764,1.2804871l0.873703,1.2532654l0.873764,1.2238312
		l0.8737183,1.192215l0.8737183,1.1584625l0.8737488,1.1227112l0.8737183,1.0849762l0.8737183,1.0453033l0.8737488,1.0037994
		l0.8737183,0.9605103l0.8737488,0.9155426l0.8737183,0.8688965l0.8737335,0.8208313l0.8737488,0.771225l0.8737183,0.7202606
		l0.8737488,0.6680756l0.8737183,0.6146698l0.8737183,0.5601807l0.8737488,0.5046997l0.8737183,0.4483643l0.873764,0.3911896
		l0.8737183,0.3333588l0.8737183,0.2749329l0.8737488,0.2160034l0.8737183,0.1567078l0.873703,0.0971527l0.873764,0.0373535
		l0.8737183-0.0224152l0.8737488-0.0822296l0.8737183-0.1418152l0.8737335-0.2012024l0.8737488-0.2602539l0.873703-0.3188019
		l0.8737183-0.3768158l0.873764-0.4341278l0.8737183-0.4906921l0.8737488-0.5464172l0.8737183-0.6011505l0.8737183-0.6548004
		l0.8737488-0.7073517l0.8737183-0.758606l0.8737183-0.8085327l0.8737488-0.8570557l0.8737183-0.9040527l0.8737335-0.9493866
		l0.8737488-0.9931183l0.8737183-1.0351105l0.8737488-1.0752411l0.8737183-1.1134338l0.8737183-1.1497345l0.8737488-1.1839752
		l0.8737183-1.216095l0.873764-1.2461243l0.8737183-1.2739182l0.873703-1.2994766l0.873764-1.3226852l0.873703-1.3436356
		l0.8737183-1.362175l0.873764-1.3782806l0.8737183-1.3920135l0.8737488-1.4032822l0.8737183-1.4120178l0.8737183-1.4182739
		l0.8737488-1.422081l0.8737183-1.4233017l0.8737488-1.4220886l0.8737335-1.4182663l0.8737183-1.4120178l0.8737488-1.4032898
		l0.8737183-1.3920059l0.8737488-1.3782806l0.8737183-1.362175l0.8737183-1.3436356l0.8737488-1.3226852l0.8737183-1.2994766
		l0.8737183-1.2739258l0.873764-1.246109l0.8737183-1.2161026l0.8737488-1.1839752l0.8737183-1.1496964l0.8737183-1.1134796
		l0.8737335-1.0752411l0.8737488-1.0350952l0.8737183-0.9931259l0.8737335-0.94944l0.8737183-0.904007l0.8737183-0.8570404
		l0.8737488-0.8085327l0.873764-0.7586212l0.8736725-0.7073364l0.873764-0.654808l0.873764-0.6011505l0.8737183-0.5464249
		l0.873703-0.4906845l0.8737488-0.4341278l0.8737183-0.3768158l0.8737335-0.3188095l0.8737335-0.2602386l0.8737183-0.2012024
		l0.8737183-0.1418381l0.873764-0.0822144l0.8737488-0.0224228l0.8737183,0.0373688l0.8737183,0.0971298l0.873764,0.1567154
		l0.8737183,0.2160034l0.8737183,0.2749405l0.8737335,0.3333664l0.8737183,0.3911819l0.8737183,0.4483566l0.873764,0.5047379
		l0.873703,0.5601578l0.8737183,0.6146622l0.873764,0.6680603l0.873764,0.7202759l0.8737183,0.7712326l0.8737183,0.8208237
		l0.873703,0.8689041l0.873764,0.9155426l0.8737183,0.9605026l0.8737335,1.0037994l0.8737183,1.0453033l0.8737183,1.0849838
		l0.873764,1.1227036l0.8737183,1.1584702l0.8737183,1.1922073l0.8737488,1.2238312l0.8737183,1.2532578l0.873764,1.2805023
		l0.8737183,1.3055038l0.8737183,1.3281479l0.8737335,1.3484879l0.8737335,1.3664169l0.8737183,1.3819809l0.8737335,1.3950272
		l0.8737183,1.4056931l0.873764,1.4138184l0.8737183,1.4194946l0.873764,1.4225845l0.8736725,1.4232635l0.8737488,1.4213638
		l0.8737793,1.4169464l0.8737183,1.4100418l0.8736877,1.4007034l0.8737488,1.3888092l0.8737183,1.3744965l0.8737488,1.3577652
		l0.8737183,1.3386078l0.8737183,1.3171082l0.8737183,1.2932892l0.8737793,1.2671661l0.8737488,1.2388306l0.8737183,1.2082672
		l0.8737183,1.1755981l0.8737488,1.1408539l0.8737183,1.1040649l0.8737183,1.0653839l0.8737488,1.024765l0.8737183,0.9823761
		l0.8737183,0.9382324l0.8737488,0.8924255l0.8737183,0.845047l0.8737183,0.7962036l0.8737488,0.7458954l0.8737793,0.6943359
		l0.8737183,0.64151l0.8737183,0.5875244l0.8736877,0.5325928l0.8737793,0.4766388l0.8737183,0.4198608l0.8737183,0.3623657
		l0.8737183,0.3042297l0.8737183,0.2454987l0.8737793,0.1864014l0.8737183,0.1269531l0.8737183,0.067276l0.8737488,0.0074768
		l0.8737183-0.0523224l0.8737488-0.1120453l0.8737183-0.1715851l0.8737488-0.2307892l0.8737183-0.2895508l0.8737183-0.3478851
		l0.8737488-0.4055634l0.8737183-0.4625244l0.8737183-0.5186768l0.8737488-0.5739136l0.8737183-0.6280975l0.8737793-0.6812439
		l0.8736572-0.7331085l0.8737793-0.783783l0.8737488-0.832962l0.8737183-0.880722l0.8737183-0.9269409l0.8737183-0.9714966
		l0.8737183-1.014328l0.8737488-1.0554047l0.8737488-1.094574l0.8737183-1.1318359l0.8737183-1.1671295l0.8737488-1.2002869
		l0.8737488-1.2313843l0.8737183-1.2602997l0.8737183-1.2869644l0.8737793-1.3113632l0.8737183-1.3334732l0.8736877-1.3531876
		l0.8737488-1.3705597l0.8737183-1.3854675l0.8737183-1.3979263l0.8737488-1.4079208l0.8737183-1.4155121l0.8737793-1.4204636
		l0.8737183-1.4230194"/>
	<path class="st5" d="M147.463913,180.9050293l0.0846252-0.1378326l0.8737183-1.4234161l0.8737488-1.4234467l0.8737183-1.4234161
		l0.873764-1.4234467l0.8737183-1.4234161l0.8737183-1.4234009l0.8737488-1.4234619l0.8737183-1.4234009l0.873703-1.4234467
		l0.873764-1.4234161l0.8737183-1.4234161l0.8737488-1.4234467l0.8737183-1.4234009l0.8737335-1.4234161l0.8737488-1.4234467
		l0.873703-1.4234161l0.8737183-1.4234467l0.873764-1.4234009l0.8737183-1.4234314l0.8737488-1.4234314l0.8737183-1.4234161
		l0.8737183-1.4234467l0.8737488-1.4234009l0.8737183-1.4234314l0.8737183-1.4234314l0.8737488-1.4234161l0.8737183-1.4234467
		l0.8737335-1.4234161l0.8737488-1.4234161l0.8737183-1.4234467l0.8737488-1.4234161l0.8737183-1.4234314l0.8737183-1.4234161
		l0.8737488-1.4234161l0.8737183-1.4234467l0.873764-1.4234161l0.8737183-1.4234467l0.873703-1.4234085l0.873764-1.4234085
		l0.873703-1.4234467l0.8737183-1.4234085l0.873764-1.4234238l0.8737183-1.423439l0.8737488-1.4234161l0.8737183-1.4234467
		l0.8737183-1.4234085l0.8737488-1.4234085l0.8737183-1.4234543l0.8737488-1.4234085l0.8737335-1.4234085l0.8737183-1.4234467
		l0.8737488-1.4234161l0.8737183-1.4234467l0.8737488-1.4234161l0.8737183-1.4234085l0.8737183-1.4234467l0.8737488-1.4234085
		l0.8737183-1.4234161l0.8737183-1.4234467l0.873764-1.4234161l0.8737183-1.423439l0.8737488-1.4234085l0.8737183-1.4234161
		l0.8737183-1.4234467l0.8737335-1.4234161l0.8737488-1.4234467l0.8737183-1.4234085l0.8737335-1.4234085l0.8737183-1.4234543
		l0.8737183-1.4234085l0.8737488-1.4234467l0.873764-1.4234085l0.8736725-1.4234161l0.873764-1.4234467l0.873764-1.4234161
		l0.8737183-1.4234085l0.873703-1.4234467l0.8737488-1.4234085l0.8737183-1.4234543l0.8737335-1.4234085l0.8737335-1.4234085
		l0.8737183-1.4234467l0.8737183-1.4234123l0.873764-1.4234467l0.8737488-1.4234161l0.8737183-1.4234085l0.8737183-1.4234467
		l0.873764-1.4234123l0.8737183-1.4234467l0.8737183-1.4234123l0.8737335-1.4234123l0.8737183-1.4234467l0.8737183-1.4234123
		l0.873764-1.4234123l0.873703-1.4234467l0.0846405-0.1378479"/>
</g>
<path class="st0" d="M365.31073,180.8914795h260.5269775V45.4174652H365.31073V180.8914795z"/>
<g>
	<line class="st1" x1="365.31073" y1="180.8914795" x2="625.8377075" y2="180.8914795"/>
	<line class="st1" x1="365.31073" y1="45.4174652" x2="625.8377075" y2="45.4174652"/>
	<line class="st1" x1="371.1817627" y1="180.8914795" x2="371.1817627" y2="178.2862244"/>
	<line class="st1" x1="412.6459045" y1="180.8914795" x2="412.6459045" y2="178.2862244"/>
	<line class="st1" x1="454.1100769" y1="180.8914795" x2="454.1100769" y2="178.2862244"/>
	<line class="st1" x1="495.5742188" y1="180.8914795" x2="495.5742188" y2="178.2862244"/>
	<line class="st1" x1="537.0383911" y1="180.8914795" x2="537.0383911" y2="178.2862244"/>
	<line class="st1" x1="578.5025635" y1="180.8914795" x2="578.5025635" y2="178.2862244"/>
	<line class="st1" x1="619.9666748" y1="180.8914795" x2="619.9666748" y2="178.2862244"/>
	<line class="st1" x1="371.1817627" y1="45.4174652" x2="371.1817627" y2="48.0227356"/>
	<line class="st1" x1="412.6459045" y1="45.4174652" x2="412.6459045" y2="48.0227356"/>
	<line class="st1" x1="454.1100769" y1="45.4174652" x2="454.1100769" y2="48.0227356"/>
	<line class="st1" x1="495.5742188" y1="45.4174652" x2="495.5742188" y2="48.0227356"/>
	<line class="st1" x1="537.0383911" y1="45.4174652" x2="537.0383911" y2="48.0227356"/>
	<line class="st1" x1="578.5025635" y1="45.4174652" x2="578.5025635" y2="48.0227356"/>
	<line class="st1" x1="619.9666748" y1="45.4174652" x2="619.9666748" y2="48.0227356"/>
</g>
<g transform="translate(138.338,439)">
	<g class="st2">
		<path class="st3" d="M230.9803619-245.925293v0.7011719h-2.6645508v-0.7011719H230.9803619z"/>
		<path class="st3" d="M235.789444-249c-0.1943359-0.0107422-0.4423828,0-0.7119141,0.0429688
			c-1.4887695,0.2480469-2.2763672,1.3378906-2.4379883,2.4921875h0.0322266
			c0.3344727-0.4423828,0.9169922-0.809082,1.6938477-0.809082c1.2402344,0,2.1142578,0.8955078,2.1142578,2.265625
			c0,1.2836914-0.8740234,2.4702148-2.3300781,2.4702148c-1.4995117,0-2.4814453-1.1650391-2.4814453-2.9882813
			c0-1.3808594,0.496582-2.4702148,1.1870117-3.1606445c0.5825195-0.5717773,1.3588867-0.9277344,2.2436523-1.0356445
			c0.2802734-0.043457,0.5180664-0.0541992,0.6904297-0.0541992V-249z M235.5199127-244.9545898
			c0-1.003418-0.5717773-1.6074219-1.4458008-1.6074219c-0.5717773,0-1.1000977,0.355957-1.359375,0.8632813
			c-0.0644531,0.1079102-0.1079102,0.2480469-0.1079102,0.4204102c0.0219727,1.1542969,0.550293,2.0068359,1.5429688,2.0068359
			C234.9696198-243.2714844,235.5199127-243.9511719,235.5199127-244.9545898z"/>
	</g>
</g>
<g transform="translate(253.7253,439)">
	<g class="st2">
		<path class="st3" d="M157.0569305-245.925293v0.7011719h-2.6645508v-0.7011719H157.0569305z"/>
		<path class="st3" d="M160.7981415-242.6567383v-1.909668h-3.2583008v-0.6254883l3.1289063-4.4770508h1.0249023v4.3583984
			h0.9814453v0.7441406h-0.9814453v1.909668H160.7981415z M160.7981415-245.3105469v-2.3408203
			c0-0.3671875,0.0107422-0.7338867,0.0322266-1.1005859h-0.0322266c-0.2158203,0.4101563-0.3886719,0.7119141-0.5825195,1.0356445
			l-1.715332,2.3842773v0.0214844H160.7981415z"/>
	</g>
</g>
<g transform="translate(369.1127,439)">
	<g class="st2">
		<path class="st3" d="M83.1333923-245.925293v0.7011719h-2.6645508v-0.7011719H83.1333923z"/>
		<path class="st3" d="M83.940033-242.6567383v-0.5825195l0.7446289-0.7226563
			c1.7905273-1.7045898,2.5996094-2.6108398,2.6103516-3.6679688c0-0.7119141-0.3452148-1.3701172-1.3916016-1.3701172
			c-0.6362305,0-1.1650391,0.3237305-1.4887695,0.5932617l-0.3017578-0.6689453
			c0.4853516-0.409668,1.1757813-0.7119141,1.9848633-0.7119141c1.5102539,0,2.1469727,1.0356445,2.1469727,2.0390625
			c0,1.2944336-0.9389648,2.3408203-2.4165039,3.7646484l-0.5610352,0.5180664v0.0214844h3.1499023v0.7875977H83.940033z"/>
	</g>
</g>
<g transform="translate(484.5,439)">
	<g class="st2">
		<path class="st3" d="M13.1650391-246.2382813c0,2.3842773-0.8837891,3.7001953-2.4375,3.7001953
			c-1.3701172,0-2.2978516-1.2836914-2.3193359-3.6030273c0-2.3520508,1.0136719-3.6464844,2.4375-3.6464844
			C12.3242188-249.7875977,13.1650391-248.4716797,13.1650391-246.2382813z M9.3574219-246.1303711
			c0,1.8232422,0.5605469,2.8588867,1.4238281,2.8588867c0.9707031,0,1.4345703-1.1328125,1.4345703-2.9238281
			c0-1.7260742-0.4423828-2.8588867-1.4238281-2.8588867C9.9609375-249.0541992,9.3574219-248.0400391,9.3574219-246.1303711z"/>
	</g>
</g>
<g transform="translate(599.8873,439)">
	<g class="st2">
		<path class="st3" d="M-65.4185791-242.6567383v-0.5825195l0.7441406-0.7226563
			c1.7910156-1.7045898,2.6005859-2.6108398,2.6113281-3.6679688c0-0.7119141-0.3457031-1.3701172-1.3916016-1.3701172
			c-0.6367188,0-1.1650391,0.3237305-1.4892578,0.5932617l-0.3017578-0.6689453
			c0.4853516-0.409668,1.1757813-0.7119141,1.984375-0.7119141c1.5107422,0,2.1474609,1.0356445,2.1474609,2.0390625
			c0,1.2944336-0.9384766,2.3408203-2.4169922,3.7646484l-0.5605469,0.5180664v0.0214844h3.1503906v0.7875977H-65.4185791z"/>
	</g>
</g>
<g transform="translate(715.2747,439)">
	<g class="st2">
		<path class="st3" d="M-136.4075317-242.6567383v-1.909668h-3.2578125v-0.6254883l3.1279297-4.4770508h1.0253906v4.3583984
			h0.9814453v0.7441406h-0.9814453v1.909668H-136.4075317z M-136.4075317-245.3105469v-2.3408203
			c0-0.3671875,0.0107422-0.7338867,0.0322266-1.1005859h-0.0322266c-0.2158203,0.4101563-0.3886719,0.7119141-0.5830078,1.0356445
			l-1.7148438,2.3842773v0.0214844H-136.4075317z"/>
	</g>
</g>
<g transform="translate(830.662,439)">
	<g class="st2">
		<path class="st3" d="M-209.2615967-249c-0.1943359-0.0107422-0.4423828,0-0.7128906,0.0429688
			c-1.4882813,0.2480469-2.2753906,1.3378906-2.4375,2.4921875h0.0322266
			c0.3339844-0.4423828,0.9169922-0.809082,1.6933594-0.809082c1.2412109,0,2.1142578,0.8955078,2.1142578,2.265625
			c0,1.2836914-0.8730469,2.4702148-2.3300781,2.4702148c-1.4990234,0-2.4804688-1.1650391-2.4804688-2.9882813
			c0-1.3808594,0.4960938-2.4702148,1.1865234-3.1606445c0.5820313-0.5717773,1.359375-0.9277344,2.2431641-1.0356445
			c0.28125-0.043457,0.5185547-0.0541992,0.6914063-0.0541992V-249z M-209.5321045-244.9545898
			c0-1.003418-0.5712891-1.6074219-1.4453125-1.6074219c-0.5712891,0-1.1005859,0.355957-1.359375,0.8632813
			c-0.0644531,0.1079102-0.1074219,0.2480469-0.1074219,0.4204102c0.0214844,1.1542969,0.5498047,2.0068359,1.5419922,2.0068359
			C-210.0819092-243.2714844-209.5321045-243.9511719-209.5321045-244.9545898z"/>
	</g>
</g>
<g transform="translate(484.5003,480)">
	<g class="st2">
		<path class="st3" d="M9.3707886-273.5844727l0.8183594,1.2329102c0.2128906,0.3203125,0.390625,0.6166992,0.5810547,0.9365234
			h0.0351563c0.1894531-0.34375,0.3798828-0.6401367,0.5693359-0.9482422l0.8056641-1.2211914h1.1269531l-1.9560547,2.7744141
			l2.0146484,2.9638672h-1.1855469l-0.8417969-1.2924805c-0.2246094-0.3320313-0.4150391-0.6518555-0.6162109-0.9956055h-0.0234375
			c-0.1894531,0.34375-0.3916016,0.6518555-0.6044922,0.9956055l-0.8300781,1.2924805H8.1139526l2.0390625-2.9282227
			l-1.9443359-2.8100586H9.3707886z"/>
	</g>
</g>
<g>
	<line class="st1" x1="365.31073" y1="180.8914795" x2="365.31073" y2="45.4174652"/>
	<line class="st1" x1="625.8377075" y1="180.8914795" x2="625.8377075" y2="45.4174652"/>
	<line class="st1" x1="365.31073" y1="180.8914795" x2="367.9160156" y2="180.8914795"/>
	<line class="st1" x1="365.31073" y1="147.0229797" x2="367.9160156" y2="147.0229797"/>
	<line class="st1" x1="365.31073" y1="113.1544724" x2="367.9160156" y2="113.1544724"/>
	<line class="st1" x1="365.31073" y1="79.2859726" x2="367.9160156" y2="79.2859726"/>
	<line class="st1" x1="365.31073" y1="45.4174652" x2="367.9160156" y2="45.4174652"/>
	<line class="st1" x1="625.8377075" y1="180.8914795" x2="623.2324219" y2="180.8914795"/>
	<line class="st1" x1="625.8377075" y1="147.0229797" x2="623.2324219" y2="147.0229797"/>
	<line class="st1" x1="625.8377075" y1="113.1544724" x2="623.2324219" y2="113.1544724"/>
	<line class="st1" x1="625.8377075" y1="79.2859726" x2="623.2324219" y2="79.2859726"/>
	<line class="st1" x1="625.8377075" y1="45.4174652" x2="623.2324219" y2="45.4174652"/>
</g>
<g transform="translate(110,427)">
	<g class="st2">
		<path class="st3" d="M244.2832031-245.065918v0.7011719h-2.6645508v-0.7011719H244.2832031z"/>
		<path class="st3" d="M245.0898438-241.7973633v-0.5825195l0.7446289-0.7226563
			c1.7905273-1.7045898,2.5996094-2.6108398,2.6103516-3.6679688c0-0.7119141-0.3452148-1.3701172-1.3916016-1.3701172
			c-0.6362305,0-1.1650391,0.3237305-1.4887695,0.5932617l-0.3017578-0.6689453
			c0.4853516-0.409668,1.1757813-0.7119141,1.9848633-0.7119141c1.5102539,0,2.1469727,1.0356445,2.1469727,2.0390625
			c0,1.2944336-0.9389648,2.3408203-2.4165039,3.7646484l-0.5610352,0.5180664v0.0214844h3.1499023v0.7875977H245.0898438z"/>
	</g>
</g>
<g transform="translate(110,332.75)">
	<g class="st2">
		<path class="st3" d="M244.2832031-184.6831055v0.7011719h-2.6645508v-0.7011719H244.2832031z"/>
		<path class="st3" d="M247.1503906-187.5419922h-0.0214844l-1.2192383,0.6577148l-0.1831055-0.7226563l1.5317383-0.8198242
			h0.809082v7.012207h-0.9169922V-187.5419922z"/>
	</g>
</g>
<g transform="translate(110,238.5)">
	<g class="st2">
		<path class="st3" d="M250.0356445-124.6152344c0,2.3842773-0.8847656,3.7001953-2.4379883,3.7001953
			c-1.3701172,0-2.2978516-1.2836914-2.3198242-3.6030273c0-2.3520508,1.0141602-3.6464844,2.4384766-3.6464844
			C249.1938477-128.1645508,250.0356445-126.8486328,250.0356445-124.6152344z M246.2275391-124.5073242
			c0,1.8232422,0.5605469,2.8588867,1.4238281,2.8588867c0.9707031,0,1.4345703-1.1328125,1.4345703-2.9238281
			c0-1.7260742-0.4418945-2.8588867-1.4238281-2.8588867C246.831543-127.4311523,246.2275391-126.4169922,246.2275391-124.5073242z"
			/>
	</g>
</g>
<g transform="translate(110,144.25)">
	<g class="st2">
		<path class="st3" d="M247.4355469-66.7802734h-0.0214844l-1.2192383,0.6577148l-0.1831055-0.7226563l1.5317383-0.8198242h0.809082
			v7.012207h-0.9169922V-66.7802734z"/>
	</g>
</g>
<g transform="translate(110,50)">
	<g class="st2">
		<path class="st3" d="M245.375-0.2709961v-0.5825195l0.7446289-0.7226563
			c1.7905273-1.7045898,2.5996094-2.6108398,2.6103516-3.6679688c0-0.7119141-0.3452148-1.3701172-1.3916016-1.3701172
			c-0.6362305,0-1.1650391,0.3237305-1.4887695,0.5932617l-0.3017578-0.6689453
			c0.4853516-0.409668,1.1757813-0.7119141,1.9848633-0.7119141c1.5102539,0,2.1469727,1.0356445,2.1469727,2.0390625
			c0,1.2944336-0.9389648,2.3408203-2.4165039,3.7646484l-0.5610352,0.5180664v0.0214844h3.1499023v0.7875977H245.375z"/>
	</g>
</g>
<g transform="translate(74,238.4998) rotate(-90)">
	<g class="st2">
		<path class="st3" d="M123.5373993,265.4482422l1.2563477,3.390625c0.1303711,0.3793945,0.2729492,0.8300781,0.3676758,1.1738281
			h0.0239258c0.1064453-0.34375,0.2250977-0.7822266,0.3671875-1.1972656l1.1381836-3.3671875h1.1030273l-1.5654297,4.090332
			c-0.746582,1.9682617-1.2563477,2.9760742-1.9677734,3.5922852c-0.5097656,0.4506836-1.0195313,0.628418-1.2807617,0.6757813
			l-0.2607422-0.8774414c0.2607422-0.0830078,0.6044922-0.2490234,0.9130859-0.5097656
			c0.284668-0.2250977,0.6401367-0.628418,0.8774414-1.1616211c0.0473633-0.1069336,0.0830078-0.1899414,0.0830078-0.2490234
			c0-0.0595703-0.0239258-0.1425781-0.0712891-0.2729492l-2.1220703-5.2875977H123.5373993z"/>
	</g>
</g>
<g transform="translate(484.5005,47.25)">
	<g class="st2">
		<path d="M0.8354495-5.6958008v-7.9912109H1.961426L4.5219731-9.644043
			c0.5927734,0.9370117,1.0556641,1.7788086,1.4345703,2.5966797L5.9809575-7.059082
			c-0.0947266-1.0673828-0.1191406-2.0395508-0.1191406-3.2841797v-3.34375h0.9726563v7.9912109H5.7905278L3.2534182-9.7504883
			c-0.5566406-0.8891602-1.0908203-1.8022461-1.4931641-2.6674805L1.7241213-12.40625
			c0.0595703,1.0078125,0.0830078,1.9677734,0.0830078,3.2958984v3.4145508H0.8354495z"/>
		<path d="M8.2114258-9.6914063v-0.7114258h6.1171875v0.7114258H8.2114258z M8.2114258-7.3676758v-0.7114258h6.1171875v0.7114258
			H8.2114258z"/>
		<path d="M19.9379883-12.5249023h-2.9404297l-0.296875,1.9799805c0.1787109-0.0239258,0.3447266-0.0473633,0.6289063-0.0473633
			c0.5927734,0,1.1855469,0.1303711,1.6601563,0.4150391c0.6044922,0.34375,1.1025391,1.0078125,1.1025391,1.9799805
			c0,1.5053711-1.1972656,2.6318359-2.8691406,2.6318359c-0.8417969,0-1.5537109-0.2373047-1.9208984-0.4741211l0.2607422-0.7944336
			c0.3203125,0.1894531,0.9482422,0.4267578,1.6484375,0.4267578c0.9833984,0,1.8251953-0.6401367,1.8251953-1.671875
			c-0.0117188-0.9956055-0.6757813-1.7070313-2.2167969-1.7070313c-0.4384766,0-0.7822266,0.0473633-1.0673828,0.0830078
			l0.4980469-3.6992188h3.6875V-12.5249023z"/>
	</g>
</g>
<g>
	<path class="st4" d="M365.31073,113.1544724l0.8713074-1.4230118l0.8713684-1.4204636l0.8713379-1.4155121l0.8713074-1.4079208
		l0.8713074-1.397934l0.8713379-1.3854675l0.8713379-1.3705444l0.8713379-1.3531952l0.8713074-1.3334656l0.8713379-1.3113708
		l0.8713074-1.2869644l0.8713379-1.2603073l0.8713074-1.2313766l0.8713684-1.2002945l0.8713074-1.1671219l0.8713379-1.1318359
		l0.8713074-1.094574l0.8713379-1.0554047l0.8713379-1.014328l0.8713379-0.9714966l0.8713074-0.9269409l0.8713379-0.880722
		l0.8713074-0.832962l0.8713684-0.7837753l0.8713074-0.7331085l0.8713379-0.6812515l0.8713074-0.6281052l0.8713379-0.5739136
		l0.8713074-0.5186844l0.8713379-0.4625092l0.8713379-0.4055634l0.8713379-0.3478775l0.8713074-0.289566l0.8713379-0.2307739
		l0.8713074-0.1715851l0.8713684-0.1120453l0.8713074-0.0523224l0.8713379,0.0074692l0.8713074,0.0672684l0.8713379,0.1269608
		l0.8713074,0.1863937l0.8713684,0.2455063l0.8713074,0.3042297l0.8713379,0.3623581l0.8713074,0.4198608l0.8713379,0.4766388
		l0.8713074,0.5325928l0.8713684,0.587532l0.8713074,0.6415024l0.8713379,0.6943359l0.8713074,0.7458954l0.8713074,0.7962112
		l0.8713684,0.8450394l0.8713074,0.8924408l0.8713379,0.9382172l0.8713074,0.9823914l0.8713379,1.0247498l0.8713379,1.0653915
		l0.8713379,1.1040649l0.8713379,1.1408463l0.8713074,1.1756058l0.8713074,1.2082748l0.8713379,1.2388153l0.8713379,1.2671661
		l0.8713379,1.2932892l0.8712769,1.3171158l0.8713684,1.3386078l0.8713074,1.3577652l0.8713379,1.3745041l0.8713684,1.3888016
		l0.8713074,1.4007034l0.8713074,1.4100418l0.8713379,1.4169464l0.8713074,1.4213638l0.8713379,1.4232635l0.8713379,1.4225845
		l0.8713379,1.4194946l0.8713074,1.4138184l0.8713379,1.4056931l0.8713074,1.3950577l0.8713379,1.3819427l0.8713379,1.3664246
		l0.8713379,1.3484879l0.8713074,1.3281403l0.8713379,1.3055191l0.8713074,1.2804871l0.8713379,1.2532654l0.8713074,1.2238312
		l0.8713684,1.192215l0.8713074,1.1584625l0.8713379,1.1227112l0.8713074,1.0849762l0.8713684,1.0453033l0.8712769,1.0037994
		l0.8713684,0.9605103l0.8713074,0.9155426l0.8713379,0.8688965l0.8713074,0.8208313l0.8713379,0.771225l0.8713379,0.7202606
		l0.8713379,0.6680756l0.8713074,0.6146698l0.8713379,0.5601807l0.8713074,0.5046997l0.8713379,0.4483643l0.8713379,0.3911896
		l0.8713379,0.3333588l0.8713074,0.2749329l0.8713379,0.2160034l0.8713074,0.1567078l0.8713379,0.0971527l0.8713379,0.0373535
		l0.8713074-0.0224152l0.8713379-0.0822296l0.8713379-0.1418152l0.8713074-0.2012024l0.8713074-0.2602539l0.8713684-0.3188019
		l0.8713074-0.3768158l0.8713379-0.4341278l0.8713379-0.4906921l0.8713074-0.5464172l0.8713379-0.6011505l0.8713379-0.6548004
		l0.8713379-0.7073517l0.8713074-0.758606l0.8713074-0.8085327l0.8713379-0.8570557l0.8713379-0.9040527l0.8713379-0.9493866
		l0.8713379-0.9931183l0.8713074-1.0351105l0.8713074-1.0752411l0.8713684-1.1134338l0.8713074-1.1497345l0.8713379-1.1839752
		l0.8713074-1.216095l0.8713379-1.2461243l0.8713074-1.2739182l0.8713684-1.2994766l0.8712769-1.3226852l0.8713684-1.3436356
		l0.8713074-1.362175l0.8713379-1.3782806l0.8713074-1.3920135l0.8713684-1.4032822l0.8713074-1.4120178l0.8713379-1.4182739
		l0.8713074-1.422081l0.8713379-1.4233017l0.8713074-1.4220886l0.8713684-1.4182663l0.8713074-1.4120178l0.8713379-1.4032898
		l0.8713074-1.3920059l0.8713379-1.3782806l0.8713074-1.362175l0.8713684-1.3436356l0.8713074-1.3226852l0.8713379-1.2994766
		l0.8713074-1.2739258l0.8713379-1.246109l0.8713074-1.2161026l0.8713379-1.1839752l0.8713379-1.1496964l0.8713379-1.1134796
		l0.8713074-1.0752411l0.8713074-1.0350952l0.8713684-0.9931259l0.8712769-0.94944l0.8713379-0.904007l0.8713379-0.8570404
		l0.8713379-0.8085327l0.8713379-0.7586212l0.8713379-0.7073364l0.8713379-0.654808l0.8712769-0.6011505l0.8713379-0.5464249
		l0.8713379-0.4906845l0.8713379-0.4341278l0.8713379-0.3768158l0.8712769-0.3188095l0.8713989-0.2602386l0.8712769-0.2012024
		l0.8713379-0.1418381l0.8713379-0.0822144l0.8713379-0.0224228l0.8712769,0.0373688l0.8713379,0.0971298l0.8713379,0.1567154
		l0.8713379,0.2160034l0.8713379,0.2749405l0.8713379,0.3333664l0.8713379,0.3911819l0.8713379,0.4483566l0.8713379,0.5047379
		l0.8712769,0.5601578l0.8713379,0.6146622l0.8713379,0.6680603l0.8713379,0.7202759l0.8712769,0.7712326l0.8713379,0.8208237
		l0.8713379,0.8689041l0.8713379,0.9155426l0.8712769,0.9605026l0.8713989,1.0037994l0.8713379,1.0453033l0.8712769,1.0849838
		l0.8713379,1.1227036l0.8713379,1.1584702l0.8713379,1.1922073l0.8713379,1.2238312l0.8713379,1.2532578l0.8712769,1.2805023
		l0.8713379,1.3055038l0.8713379,1.3281479l0.8713379,1.3484879l0.8712769,1.3664169l0.8713379,1.3819809l0.8713379,1.3950272
		l0.8713379,1.4056931l0.8713379,1.4138184l0.8713379,1.4194946l0.8712769,1.4225845l0.8713379,1.4232635l0.8713379,1.4213638
		l0.8713379,1.4169464l0.8713379,1.4100418l0.8713379,1.4007034l0.8713379,1.3888092l0.8713379,1.3744965l0.8712769,1.3577652
		l0.8713379,1.3386078l0.8713379,1.3171082l0.8712769,1.2932892l0.8713379,1.2671661l0.8713989,1.2388306l0.8712769,1.2082672
		l0.8713379,1.1755981l0.8713379,1.1408539l0.8713379,1.1040649l0.8713379,1.0653839l0.8713379,1.024765l0.8712769,0.9823761
		l0.8713379,0.9382324l0.8713379,0.8924255l0.8713379,0.845047l0.8713379,0.7962036l0.8713379,0.7458954l0.8712769,0.6943359
		l0.8713989,0.64151l0.8712769,0.5875244l0.8712769,0.5325928l0.8713989,0.4766388l0.8712769,0.4198608l0.8713379,0.3623657
		l0.8713379,0.3042297l0.8713379,0.2454987l0.8713379,0.1864014l0.8713379,0.1269531l0.8713379,0.067276l0.8712769,0.0074768
		l0.8713379-0.0523224l0.8713379-0.1120453l0.8712769-0.1715851l0.8713989-0.2307892l0.8712769-0.2895508l0.8713379-0.3478851
		l0.8713379-0.4055634l0.8713379-0.4625244l0.8713379-0.5186768l0.8713379-0.5739136l0.8712769-0.6280975l0.8713379-0.6812439
		l0.8713379-0.7331085l0.8713379-0.783783l0.8713379-0.832962l0.8713379-0.880722l0.8712769-0.9269409l0.8713379-0.9714966
		l0.8713379-1.014328l0.8712769-1.0554047l0.8713379-1.094574l0.8713989-1.1318359l0.8712769-1.1671295l0.8713379-1.2002869
		l0.8713379-1.2313843l0.8713379-1.2602997l0.8713379-1.2869644l0.8712769-1.3113632l0.8713379-1.3334732l0.8713379-1.3531876
		l0.8713379-1.3705597l0.8713379-1.3854675l0.8713379-1.3979263l0.8713379-1.4079208l0.8712769-1.4155121l0.8713989-1.4204636
		l0.8712769-1.4230194"/>
	<path class="st5" d="M411.9216614,180.9050293l0.4407654-2.8100891l0.8713379-5.1505585l0.8713074-4.7634888l0.8713379-4.3935242
		l0.8713379-4.0402222l0.8713379-3.7032166l0.8713379-3.3821106l0.8713074-3.0764313l0.8713074-2.7858734l0.8713379-2.5099792
		l0.8713379-2.2483368l0.8713379-2.0006714l0.8712769-1.76651l0.8713684-1.5454865l0.8713074-1.337265l0.8713379-1.1414795
		l0.8713684-0.9576874l0.8713074-0.7856445l0.8713074-0.624939l0.8713379-0.475235l0.8713074-0.3361359l0.8713379-0.2074127
		l0.8713379-0.088623l0.8713379,0.0204773l0.8713074,0.1203156l0.8713379,0.2111206l0.8713074,0.2932587l0.8713379,0.3670044
		l0.8713379,0.432724l0.8713379,0.4906616l0.8713074,0.5411682l0.8713379,0.5845184l0.8713074,0.6209869l0.8713379,0.6508942
		l0.8713074,0.6744537l0.8713684,0.6919861l0.8713074,0.7038574l0.8713379,0.7101746l0.8713074,0.7113342l0.8713684,0.707489
		l0.8712769,0.6989288l0.8713684,0.6859589l0.8713074,0.6687469l0.8713379,0.6476135l0.8713074,0.622757l0.8713379,0.5943909
		l0.8713379,0.5627441l0.8713379,0.5280914l0.8713074,0.4905853l0.8713379,0.4505463l0.8713074,0.4080353l0.8713379,0.3634033
		l0.8713379,0.3167419l0.8713379,0.2683258l0.8713074,0.2183075l0.8713379,0.1668701l0.8713074,0.114212l0.8713379,0.0605774
		l0.8713379,0.0059967l0.8713074-0.0492401l0.8713379-0.1049805l0.8713379-0.1611481l0.8713074-0.2174683l0.8713074-0.2738647
		l0.8713684-0.3301239l0.8713074-0.3862l0.8713379-0.4418488l0.8713379-0.4970398l0.8713074-0.5515442l0.8713379-0.6052704
		l0.8713379-0.6581116l0.8713379-0.7099609l0.8713074-0.7606659l0.8713074-0.8101196l0.8713379-0.8582764l0.8713379-0.9049377
		l0.8713379-0.950119l0.8713379-0.9936218l0.8713074-1.0354614l0.8713074-1.075531l0.8713684-1.1136169l0.8713074-1.1498718
		l0.8713379-1.1840515l0.8713074-1.2161407l0.8713379-1.2461548l0.8713074-1.2739182l0.8713684-1.299469l0.8712769-1.3227234
		l0.8713684-1.3436356l0.8713074-1.362175l0.8713379-1.3782806l0.8713074-1.3920135l0.8713684-1.4032822l0.8713074-1.4120178
		l0.8713379-1.4182739l0.8713074-1.422081l0.8713379-1.4233017l0.8713074-1.4220886l0.8713684-1.4182663l0.8713074-1.4120178
		l0.8713379-1.4032898l0.8713074-1.3920059l0.8713379-1.3782806l0.8713074-1.362175l0.8713684-1.3436356l0.8713074-1.322731
		l0.8713379-1.299469l0.8713074-1.2739182l0.8713379-1.2461472l0.8713074-1.2161407l0.8713379-1.1840515l0.8713379-1.1498718
		l0.8713379-1.1136551l0.8713074-1.0754547l0.8713074-1.0354996l0.8713684-0.9936295l0.8712769-0.950119l0.8713379-0.9049454
		l0.8713379-0.8582611l0.8713379-0.810112l0.8713379-0.7606659l0.8713379-0.7099609l0.8713379-0.6581116l0.8712769-0.6052856
		l0.8713379-0.5515289l0.8713379-0.4970474l0.8713379-0.4418564l0.8713379-0.3861923l0.8712769-0.3301315l0.8713989-0.2738571
		l0.8712769-0.2174759l0.8713379-0.1611328l0.8713379-0.1049652l0.8713379-0.049263l0.8712769,0.0060349l0.8713379,0.0605545
		l0.8713379,0.1141968l0.8713379,0.1668777l0.8713379,0.2183075l0.8713379,0.2683258l0.8713379,0.3167267l0.8713379,0.3634109
		l0.8713379,0.4080353l0.8712769,0.4505539l0.8713379,0.4905777l0.8713379,0.5280991l0.8713379,0.5627747l0.8712769,0.5943604
		l0.8713379,0.6227493l0.8713379,0.6476135l0.8713379,0.6687469l0.8712769,0.6859589l0.8713989,0.6989288l0.8713379,0.707489
		l0.8712769,0.7113266l0.8713379,0.7101746l0.8713379,0.7038574l0.8713379,0.6919937l0.8713379,0.6744537l0.8713379,0.6508942
		l0.8712769,0.6209869l0.8713379,0.5845108l0.8713379,0.5411453l0.8713379,0.4906845l0.8712769,0.4327316l0.8713379,0.3670044
		l0.8713379,0.2932587l0.8713379,0.211113l0.8713379,0.1203156l0.8713379,0.0204773l0.8712769-0.0886154l0.8713379-0.2074127
		l0.8713379-0.3361359l0.8713379-0.475235l0.8713379-0.624939l0.8713379-0.7856445l0.8713379-0.957695l0.8713379-1.1414642
		l0.8712769-1.3372803l0.8713379-1.5454788l0.8713379-1.7664795l0.8712769-2.0007019l0.8713379-2.2483292l0.8713989-2.5099716
		l0.8712769-2.785881l0.8713379-3.0764465l0.8713379-3.3821106l0.8713379-3.7032166l0.8713379-4.0402184l0.8713379-4.3935242
		l0.8712769-4.7634773l0.8713379-5.1505623l0.4407349-2.8101006"/>
</g>
<path class="st0" d="M58.7872887,369.1896057h260.526947V234.0749207H58.7872887V369.1896057z"/>
<g>
	<line class="st1" x1="58.7872887" y1="369.1896057" x2="319.3142395" y2="369.1896057"/>
	<line class="st1" x1="58.7872887" y1="234.0749207" x2="319.3142395" y2="234.0749207"/>
	<line class="st1" x1="64.6583099" y1="369.1896057" x2="64.6583099" y2="366.5843201"/>
	<line class="st1" x1="106.1224518" y1="369.1896057" x2="106.1224518" y2="366.5843201"/>
	<line class="st1" x1="147.5866241" y1="369.1896057" x2="147.5866241" y2="366.5843201"/>
	<line class="st1" x1="189.050766" y1="369.1896057" x2="189.050766" y2="366.5843201"/>
	<line class="st1" x1="230.5149231" y1="369.1896057" x2="230.5149231" y2="366.5843201"/>
	<line class="st1" x1="271.9790955" y1="369.1896057" x2="271.9790955" y2="366.5843201"/>
	<line class="st1" x1="313.4432373" y1="369.1896057" x2="313.4432373" y2="366.5843201"/>
	<line class="st1" x1="64.6583099" y1="234.0749207" x2="64.6583099" y2="236.680191"/>
	<line class="st1" x1="106.1224518" y1="234.0749207" x2="106.1224518" y2="236.680191"/>
	<line class="st1" x1="147.5866241" y1="234.0749207" x2="147.5866241" y2="236.680191"/>
	<line class="st1" x1="189.050766" y1="234.0749207" x2="189.050766" y2="236.680191"/>
	<line class="st1" x1="230.5149231" y1="234.0749207" x2="230.5149231" y2="236.680191"/>
	<line class="st1" x1="271.9790955" y1="234.0749207" x2="271.9790955" y2="236.680191"/>
	<line class="st1" x1="313.4432373" y1="234.0749207" x2="313.4432373" y2="236.680191"/>
</g>
<g transform="translate(138.338,438)">
	<g class="st2">
		<path class="st3" d="M-75.5440521-56.6279297v0.7011719h-2.6645508v-0.7011719H-75.5440521z"/>
		<path class="st3" d="M-70.7349701-59.703125c-0.1943359-0.0107422-0.4423828,0-0.7119141,0.0439453
			c-1.4887695,0.2480469-2.2763672,1.3369141-2.4379883,2.4912109h0.0322266
			c0.3344727-0.4414063,0.9169922-0.8085938,1.6938477-0.8085938c1.2402344,0,2.1142578,0.8955078,2.1142578,2.265625
			c0,1.2832031-0.8740234,2.4707031-2.3300781,2.4707031c-1.4995117,0-2.4814453-1.1660156-2.4814453-2.9882813
			c0-1.3808594,0.496582-2.4707031,1.1870117-3.1611328c0.5825195-0.5722656,1.3588867-0.9277344,2.2436523-1.0361328
			c0.2802734-0.0429688,0.5180664-0.0537109,0.6904297-0.0537109V-59.703125z M-71.0045013-55.6572266
			c0-1.0029297-0.5717773-1.6074219-1.4458008-1.6074219c-0.5717773,0-1.1000977,0.3564453-1.359375,0.8632813
			c-0.0644531,0.1074219-0.1079102,0.2480469-0.1079102,0.4208984c0.0219727,1.1542969,0.550293,2.0058594,1.5429688,2.0058594
			C-71.5547943-53.9746094-71.0045013-54.6542969-71.0045013-55.6572266z"/>
	</g>
</g>
<g transform="translate(253.7253,438)">
	<g class="st2">
		<path class="st3" d="M-149.466507-56.6279297v0.7011719h-2.6645508v-0.7011719H-149.466507z"/>
		<path class="st3" d="M-145.725296-53.359375v-1.9091797h-3.2583008v-0.6259766l3.1289063-4.4765625h1.0249023v4.3574219h0.9814453
			v0.7451172h-0.9814453v1.9091797H-145.725296z M-145.725296-56.0136719v-2.3408203
			c0-0.3662109,0.0107422-0.7333984,0.0322266-1.0996094h-0.0322266c-0.2158203,0.4091797-0.3886719,0.7119141-0.5825195,1.0351563
			l-1.715332,2.3837891v0.0214844H-145.725296z"/>
	</g>
</g>
<g transform="translate(369.1127,438)">
	<g class="st2">
		<path class="st3" d="M-223.3900452-56.6279297v0.7011719h-2.6645508v-0.7011719H-223.3900452z"/>
		<path class="st3" d="M-222.5834045-53.359375v-0.5830078l0.7446289-0.7226563
			c1.7905273-1.7041016,2.5996094-2.6103516,2.6103516-3.6679688c0-0.7119141-0.3452148-1.3701172-1.3916016-1.3701172
			c-0.6362305,0-1.1650391,0.3242188-1.4887695,0.59375l-0.3017578-0.6689453
			c0.4853516-0.4101563,1.1757813-0.7119141,1.9848633-0.7119141c1.5102539,0,2.1469727,1.0361328,2.1469727,2.0390625
			c0,1.2949219-0.9389648,2.3408203-2.4165039,3.7646484l-0.5610352,0.5175781v0.0224609h3.1499023v0.7871094H-222.5834045z"/>
	</g>
</g>
<g transform="translate(484.5,438)">
	<g class="st2">
		<path class="st3" d="M-293.3579102-56.9414063c0,2.3847656-0.8847656,3.7011719-2.4379883,3.7011719
			c-1.3701172,0-2.2978516-1.2841797-2.3198242-3.6035156c0-2.3515625,1.0141602-3.6464844,2.4384766-3.6464844
			C-294.199707-60.4902344-293.3579102-59.1738281-293.3579102-56.9414063z M-297.1660156-56.8330078
			c0,1.8232422,0.5605469,2.8583984,1.4238281,2.8583984c0.9707031,0,1.4345703-1.1328125,1.4345703-2.9228516
			c0-1.7265625-0.4418945-2.859375-1.4238281-2.859375C-296.5620117-59.7568359-297.1660156-58.7421875-297.1660156-56.8330078z"/>
	</g>
</g>
<g transform="translate(599.8873,438)">
	<g class="st2">
		<path class="st3" d="M-371.9420166-53.359375v-0.5830078l0.7446289-0.7226563
			c1.7905273-1.7041016,2.5996094-2.6103516,2.6103516-3.6679688c0-0.7119141-0.3452148-1.3701172-1.3916016-1.3701172
			c-0.6362305,0-1.1650391,0.3242188-1.4887695,0.59375l-0.3017578-0.6689453
			c0.4853516-0.4101563,1.1757813-0.7119141,1.9848633-0.7119141c1.5102539,0,2.1469727,1.0361328,2.1469727,2.0390625
			c0,1.2949219-0.9389648,2.3408203-2.4165039,3.7646484l-0.5610352,0.5175781v0.0224609h3.1499023v0.7871094H-371.9420166z"/>
	</g>
</g>
<g transform="translate(715.2747,438)">
	<g class="st2">
		<path class="st3" d="M-442.9309692-53.359375v-1.9091797h-3.2583008v-0.6259766l3.1289063-4.4765625h1.0249023v4.3574219
			h0.9814453v0.7451172h-0.9814453v1.9091797H-442.9309692z M-442.9309692-56.0136719v-2.3408203
			c0-0.3662109,0.0107422-0.7333984,0.0322266-1.0996094h-0.0322266c-0.2158203,0.4091797-0.3886719,0.7119141-0.5825195,1.0351563
			l-1.715332,2.3837891v0.0214844H-442.9309692z"/>
	</g>
</g>
<g transform="translate(830.662,438)">
	<g class="st2">
		<path class="st3" d="M-515.7855225-59.703125c-0.1943359-0.0107422-0.4423828,0-0.7119141,0.0439453
			c-1.4887695,0.2480469-2.2763672,1.3369141-2.4379883,2.4912109h0.0322266
			c0.3344727-0.4414063,0.9169922-0.8085938,1.6938477-0.8085938c1.2402344,0,2.1142578,0.8955078,2.1142578,2.265625
			c0,1.2832031-0.8740234,2.4707031-2.3300781,2.4707031c-1.4995117,0-2.4814453-1.1660156-2.4814453-2.9882813
			c0-1.3808594,0.496582-2.4707031,1.1870117-3.1611328c0.5825195-0.5722656,1.3588867-0.9277344,2.2436523-1.0361328
			c0.2802734-0.0429688,0.5180664-0.0537109,0.6904297-0.0537109V-59.703125z M-516.0550537-55.6572266
			c0-1.0029297-0.5717773-1.6074219-1.4458008-1.6074219c-0.5717773,0-1.1000977,0.3564453-1.359375,0.8632813
			c-0.0644531,0.1074219-0.1079102,0.2480469-0.1079102,0.4208984c0.0219727,1.1542969,0.550293,2.0058594,1.5429688,2.0058594
			C-516.6053467-53.9746094-516.0550537-54.6542969-516.0550537-55.6572266z"/>
	</g>
</g>
<g transform="translate(484.5003,479)">
	<g class="st2">
		<path class="st3" d="M-297.1526489-84.2861328l0.8178711,1.2333984c0.2138672,0.3193359,0.3916016,0.6162109,0.5810547,0.9365234
			h0.0356445c0.1899414-0.34375,0.3793945-0.640625,0.5693359-0.9492188l0.8061523-1.2207031h1.1259766l-1.9560547,2.7744141
			l2.015625,2.9638672h-1.1855469l-0.8417969-1.2919922c-0.2255859-0.3320313-0.4150391-0.6523438-0.6166992-0.9960938h-0.0234375
			c-0.1899414,0.34375-0.3916016,0.6523438-0.6049805,0.9960938l-0.8295898,1.2919922h-1.1503906l2.0395508-2.9287109
			l-1.9448242-2.8095703H-297.1526489z"/>
	</g>
</g>
<g>
	<line class="st1" x1="58.7872887" y1="369.1896057" x2="58.7872887" y2="234.0749207"/>
	<line class="st1" x1="319.3142395" y1="369.1896057" x2="319.3142395" y2="234.0749207"/>
	<line class="st1" x1="58.7872887" y1="369.1896057" x2="61.3925591" y2="369.1896057"/>
	<line class="st1" x1="58.7872887" y1="335.4109192" x2="61.3925591" y2="335.4109192"/>
	<line class="st1" x1="58.7872887" y1="301.6322632" x2="61.3925591" y2="301.6322632"/>
	<line class="st1" x1="58.7872887" y1="267.8535767" x2="61.3925591" y2="267.8535767"/>
	<line class="st1" x1="58.7872887" y1="234.0749207" x2="61.3925591" y2="234.0749207"/>
	<line class="st1" x1="319.3142395" y1="369.1896057" x2="316.7089844" y2="369.1896057"/>
	<line class="st1" x1="319.3142395" y1="335.4109192" x2="316.7089844" y2="335.4109192"/>
	<line class="st1" x1="319.3142395" y1="301.6322632" x2="316.7089844" y2="301.6322632"/>
	<line class="st1" x1="319.3142395" y1="267.8535767" x2="316.7089844" y2="267.8535767"/>
	<line class="st1" x1="319.3142395" y1="234.0749207" x2="316.7089844" y2="234.0749207"/>
</g>
<g transform="translate(110,426)">
	<g class="st2">
		<path class="st3" d="M-62.2402344-55.7675781v0.7011719h-2.6645508v-0.7011719H-62.2402344z"/>
		<path class="st3" d="M-61.4335938-52.4990234v-0.5830078l0.7446289-0.7226563
			c1.7905273-1.7041016,2.5996094-2.6103516,2.6103516-3.6679688c0-0.7119141-0.3452148-1.3701172-1.3916016-1.3701172
			c-0.6362305,0-1.1650391,0.3242188-1.4887695,0.59375l-0.3017578-0.6689453
			c0.4853516-0.4101563,1.1757813-0.7119141,1.9848633-0.7119141c1.5102539,0,2.1469727,1.0361328,2.1469727,2.0390625
			c0,1.2939453-0.9389648,2.3408203-2.4165039,3.7646484l-0.5610352,0.5175781v0.0224609h3.1499023v0.7871094H-61.4335938z"/>
	</g>
</g>
<g transform="translate(110,332)">
	<g class="st2">
		<path class="st3" d="M-62.2402344,4.4541016v0.7011719h-2.6645508V4.4541016H-62.2402344z"/>
		<path class="st3" d="M-59.3730469,1.5947266h-0.0214844l-1.2192383,0.6582031l-0.1831055-0.7226563l1.5317383-0.8193359h0.809082
			v7.0117188h-0.9169922V1.5947266z"/>
	</g>
</g>
<g transform="translate(110,238)">
	<g class="st2">
		<path class="st3" d="M-56.4887695,64.3613281c0,2.3847656-0.8847656,3.7011719-2.4379883,3.7011719
			c-1.3701172,0-2.2978516-1.2841797-2.3198242-3.6035156c0-2.3515625,1.0141602-3.6464844,2.4384766-3.6464844
			C-57.3305664,60.8125-56.4887695,62.1289063-56.4887695,64.3613281z M-60.296875,64.4697266
			c0,1.8232422,0.5605469,2.8583984,1.4238281,2.8583984c0.9707031,0,1.4345703-1.1328125,1.4345703-2.9228516
			c0-1.7265625-0.4418945-2.859375-1.4238281-2.859375C-59.6928711,61.5458984-60.296875,62.5605469-60.296875,64.4697266z"/>
	</g>
</g>
<g transform="translate(110,144)">
	<g class="st2">
		<path class="st3" d="M-59.0888672,122.0380859h-0.0214844l-1.2192383,0.6577148l-0.1831055-0.7226563l1.5317383-0.8198242
			h0.809082v7.012207h-0.9169922V122.0380859z"/>
	</g>
</g>
<g transform="translate(110,50)">
	<g class="st2">
		<path class="st3" d="M-61.1494141,188.387207v-0.5825195l0.7446289-0.7226563
			c1.7905273-1.7045898,2.5996094-2.6108398,2.6103516-3.6679688c0-0.7119141-0.3452148-1.3701172-1.3916016-1.3701172
			c-0.6362305,0-1.1650391,0.3237305-1.4887695,0.5932617l-0.3017578-0.6689453
			c0.4853516-0.409668,1.1757813-0.7119141,1.9848633-0.7119141c1.5102539,0,2.1469727,1.0356445,2.1469727,2.0390625
			c0,1.2944336-0.9389648,2.3408203-2.4165039,3.7646484l-0.5610352,0.5180664v0.0214844h3.1499023v0.7875977H-61.1494141z"/>
	</g>
</g>
<g transform="translate(74,237.9998) rotate(-90)">
	<g class="st2">
		<path class="st3" d="M-65.4406281-41.0751953l1.2568359,3.390625c0.1298828,0.3793945,0.2724609,0.8300781,0.3671875,1.1738281
			h0.0234375c0.1074219-0.34375,0.2255859-0.7822266,0.3681641-1.1972656l1.1376953-3.3671875h1.1025391l-1.5644531,4.090332
			c-0.7470703,1.9682617-1.2568359,2.9760742-1.96875,3.5922852c-0.5097656,0.4506836-1.0195313,0.628418-1.2802734,0.6757813
			l-0.2607422-0.8774414c0.2607422-0.0830078,0.6044922-0.2490234,0.9130859-0.5097656
			c0.2841797-0.2250977,0.6396484-0.628418,0.8769531-1.1616211c0.0478516-0.1069336,0.0830078-0.1899414,0.0830078-0.2490234
			c0-0.0595703-0.0234375-0.1425781-0.0712891-0.2729492l-2.1220703-5.2875977H-65.4406281z"/>
	</g>
</g>
<g transform="translate(484.5005,47.25)">
	<g class="st2">
		<path d="M-308.9228516,182.9614258v-7.9912109h1.1264648l2.5610352,4.0429688
			c0.5927734,0.9370117,1.0551758,1.7788086,1.4345703,2.5966797l0.0234375-0.0117188
			c-0.0947266-1.0673828-0.1181641-2.0395508-0.1181641-3.2841797v-3.34375h0.972168v7.9912109h-1.043457l-2.5371094-4.0546875
			c-0.5571289-0.8891602-1.0908203-1.8022461-1.4941406-2.6674805l-0.0356445,0.0117188
			c0.0595703,1.0078125,0.0830078,1.9677734,0.0830078,3.2958984v3.4145508H-308.9228516z"/>
		<path d="M-301.546875,178.9658203v-0.7114258h6.1176758v0.7114258H-301.546875z M-301.546875,181.2895508v-0.7114258h6.1176758
			v0.7114258H-301.546875z"/>
		<path d="M-292.1557617,176.2270508h-0.0234375l-1.3398438,0.7231445l-0.2016602-0.7939453l1.6835938-0.9013672h0.8891602v7.706543
			h-1.0078125V176.2270508z"/>
		<path d="M-286.0722656,176.2270508h-0.0234375l-1.3398438,0.7231445l-0.2016602-0.7939453l1.6835938-0.9013672h0.8891602v7.706543
			h-1.0078125V176.2270508z"/>
	</g>
</g>
<g>
	<path class="st4" d="M58.7872887,301.6322632l0.8713074-1.4192505l0.8713493-1.4167175l0.8713455-1.4117126l0.8713112-1.4042053
		l0.8713074-1.3942261l0.8713417-1.3818054l0.871315-1.3668823l0.8713455-1.3496094l0.8713074-1.3299561l0.8713455-1.3078613
		l0.871315-1.2835693l0.8713455-1.256958l0.8713074-1.2281189l0.8713455-1.197113l0.871315-1.1640015l0.8713455-1.1288452
		l0.8713074-1.0916748l0.8713455-1.0526123l0.871315-1.0116577l0.8713379-0.9689026l0.8713074-0.924469l0.8713531-0.8783875
		l0.8713074-0.83078l0.8713455-0.7816467l0.8713074-0.7312012l0.8713531-0.6794128l0.8713074-0.6264648l0.8713455-0.5723877
		l0.8713074-0.5172729l0.8713455-0.4613037l0.871315-0.40448l0.8713455-0.3469543l0.8713074-0.2888489l0.8713455-0.2301636
		l0.8713074-0.1710815l0.8713531-0.1117554l0.8713074-0.0521851l0.8713455,0.0074463l0.8713074,0.0670776l0.8713531,0.1266479
		l0.8713074,0.1858826l0.8713379,0.244873l0.871315,0.3034058l0.8713455,0.3614197l0.8713074,0.4187317l0.8713455,0.4754028
		l0.871315,0.5311279l0.8713455,0.5859985l0.8713074,0.6398315l0.8713455,0.6924438l0.871315,0.7439575l0.8713074,0.7940674
		l0.8713455,0.842804l0.8713074,0.8900757l0.8713531,0.93573l0.8712997,0.9797668l0.8713455,1.0220642l0.8713531,1.062561
		l0.871315,1.1011353l0.8713379,1.1378479l0.871315,1.1724548l0.8713074,1.2050781l0.8713379,1.2355042l0.8713531,1.2638245
		l0.871315,1.289856l0.8712997,1.3136292l0.8713455,1.3350525l0.871315,1.3541565l0.8713531,1.3708496l0.8713455,1.3851318
		l0.8712997,1.3969727l0.871315,1.406311l0.8713531,1.413208l0.8712997,1.417572l0.8713455,1.4194641l0.871315,1.4188538
		l0.8713379,1.4157104l0.871315,1.4100952l0.8713455,1.4019165l0.8713074,1.3913574l0.8713531,1.3783264l0.8713074,1.3627625
		l0.8713531,1.3449402l0.8712921,1.3246155l0.8713531,1.3020325l0.8713226,1.2771301l0.8713379,1.2499084l0.8713074,1.2206116
		l0.8713531,1.1889954l0.8712921,1.155426l0.8713531,1.119751l0.8713226,1.0820618l0.8713379,1.0425415l0.8713074,1.0011292
		l0.8713531,0.9579468l0.8713074,0.9131165l0.8713531,0.8666382l0.8712921,0.818634l0.8713531,0.7691345l0.8713226,0.7183838
		l0.8713226,0.6662903l0.8713226,0.6130371l0.8713531,0.5586853l0.8712921,0.5033875l0.8713531,0.4471741l0.8713074,0.3901672
		l0.8713531,0.332489l0.8713074,0.2741699l0.8713379,0.2154236l0.8713226,0.156311l0.8713379,0.0968933l0.8713074,0.037262
		l0.8713226-0.0223999l0.8713379-0.0819397l0.8713379-0.1414795l0.8713226-0.2006836l0.8713074-0.259552l0.8713379-0.3179321
		l0.8713226-0.375824l0.8713379-0.4329529l0.8713531-0.4894104l0.8713074-0.5449829l0.8713074-0.5995483l0.8713531-0.6530762
		l0.8713379-0.7054749l0.8713074-0.7565918l0.8713226-0.806366l0.8713379-0.8547974l0.8713074-0.9016418l0.8713531-0.9468689
		l0.8713379-0.990509l0.8713074-1.0323792l0.8713226-1.0723572l0.8713379-1.1104736l0.8713074-1.146698l0.8713531-1.1808472
		l0.8713074-1.2128906l0.8713379-1.2427979l0.8713226-1.2705383l0.8713379-1.2960205l0.8713074-1.3191528l0.8713531-1.3400879
		l0.8713074-1.358551l0.8713531-1.3746643l0.8713074-1.3883362l0.8713379-1.3995056l0.8713226-1.4082642l0.8713379-1.4145508
		l0.8713074-1.4182739l0.8713531-1.4195557l0.8712921-1.4182739l0.8713531-1.4145508l0.8713226-1.4082642l0.8713379-1.3995361
		l0.8713074-1.3883362l0.8713531-1.3746338l0.8713074-1.358551l0.8713531-1.3400879l0.8712921-1.3191833l0.8713531-1.29599
		l0.8713074-1.2705688l0.8713379-1.2427979l0.8713074-1.2128601l0.8713531-1.1808472l0.8713226-1.146698l0.8713531-1.1104736
		l0.8712921-1.0724182l0.8713074-1.0323181l0.8713531-0.990509l0.8713074-0.9468689l0.8713379-0.9016418l0.8713531-0.8547974
		l0.8713226-0.806366l0.8713226-0.7566223l0.8713379-0.7054443l0.8713379-0.6530762l0.8713074-0.5995483l0.8713074-0.5449829
		l0.8713379-0.4894104l0.8713074-0.4329529l0.8713531-0.375824l0.8713226-0.3179626l0.8713531-0.259552l0.8713226-0.2006531
		l0.8713226-0.1414795l0.8713531-0.0819702l0.8712921-0.0223694l0.8713074,0.0372925l0.8713531,0.0968323l0.8713074,0.1563416
		l0.8713379,0.2154236l0.8713226,0.2741699l0.8713531,0.332489l0.8713531,0.3901672l0.8712921,0.4471741l0.8713531,0.5033569
		l0.8713074,0.5586853l0.8713074,0.6130676l0.8713379,0.6662903l0.8713226,0.7183838l0.8713379,0.7691345l0.8713226,0.818634
		l0.8713379,0.8666382l0.8713074,0.9130859l0.8713074,0.9579468l0.8713837,1.0011597l0.8713074,1.0425415l0.8713074,1.0820618
		l0.8713531,1.119751l0.8713226,1.155426l0.8713226,1.1889954l0.8713226,1.2206116l0.8713531,1.2499084l0.8713074,1.2771301
		l0.8712921,1.302002l0.8713531,1.324646l0.8713531,1.3449402l0.8712921,1.3627625l0.8713531,1.3783264l0.8713226,1.3913574
		l0.8713531,1.4019165l0.8713074,1.4100952l0.8713379,1.4157104l0.8713074,1.4188538l0.8713074,1.4194641l0.8713379,1.417572
		l0.8713531,1.413208l0.8713074,1.406311l0.8713379,1.3969727l0.8713379,1.3851318l0.8713379,1.3708496l0.8713074,1.3541565
		l0.8713379,1.3350525l0.8713074,1.3136292l0.8713074,1.2898254l0.8713379,1.2638245l0.8713684,1.2355347l0.8713074,1.2050781
		l0.8713379,1.1724548l0.8713379,1.1378479l0.8713379,1.1011353l0.8713074,1.062561l0.8713379,1.0220642l0.8713074,0.9797668
		l0.8713074,0.93573l0.8713379,0.8900757l0.8713379,0.842804l0.8713379,0.7940674l0.8713379,0.743927l0.8713074,0.6924744
		l0.8713684,0.6398315l0.8712769,0.585968l0.8713074,0.5311584l0.8713684,0.4753723l0.8713074,0.4187622l0.8713379,0.3614197
		l0.8713074,0.3034058l0.8713684,0.244873l0.8713074,0.1858826l0.8713379,0.1266479l0.8713379,0.0670776l0.8713074,0.0074463
		l0.8713074-0.0521851l0.8713379-0.1117554l0.8713074-0.1711121l0.8713684-0.2301636l0.8713074-0.2888184l0.8713379-0.3469543
		l0.8713074-0.40448l0.8713684-0.4613037l0.8713074-0.5172729l0.8713379-0.5724182l0.8713074-0.6264343l0.8713379-0.6794128
		l0.8713379-0.7312012l0.8713074-0.7816467l0.8713379-0.83078l0.8713379-0.878418l0.8713074-0.9244385l0.8713074-0.9689026
		l0.8713379-1.0116882l0.8713074-1.0525818l0.8713379-1.0916748l0.8713684-1.1288452l0.8713074-1.1640015l0.8713379-1.197113
		l0.8713379-1.2281799l0.8713379-1.256897l0.8713074-1.2835693l0.8713074-1.3078613l0.8713379-1.3299561l0.8713074-1.3496094
		l0.8713379-1.3668823l0.8713379-1.3818054l0.8713379-1.3942261l0.8713379-1.4042358l0.8713074-1.4116821l0.8713684-1.4167175
		l0.8712769-1.4192505"/>
	<path class="st5" d="M65.1219711,234.0614166l0.6359406,2.6821289l0.8713074,3.2975159l0.8713455,2.9512482l0.871315,2.6341248
		l0.8713455,2.3443451l0.8713074,2.0802612l0.8713455,1.8401184l0.871315,1.6225281l0.8713455,1.4258881l0.8713074,1.2490234
		l0.8713455,1.0904236l0.871315,0.9490967l0.8713379,0.8237305l0.8713074,0.7132874l0.8713531,0.6167908l0.8713074,0.5332336
		l0.8713455,0.461731l0.8713074,0.4013062l0.8713531,0.3513794l0.8713074,0.3109436l0.8713455,0.27948l0.8713074,0.2561035
		l0.8713455,0.2403259l0.871315,0.2314453l0.8713455,0.2290039l0.8713074,0.2323303l0.8713455,0.2409973l0.8713074,0.2543945
		l0.8713531,0.2722778l0.8713074,0.2940063l0.8713455,0.3192139l0.8713074,0.3476868l0.8713531,0.3787842l0.8713074,0.412384
		l0.8713379,0.4480286l0.871315,0.4854736l0.8713455,0.5243835l0.8713074,0.5644836l0.8713455,0.6055908l0.871315,0.6472778
		l0.8713455,0.6895142l0.8713074,0.7319641l0.8713455,0.7744141l0.871315,0.8167114l0.8713074,0.8585815l0.8713455,0.8999939
		l0.8713074,0.9406128l0.8713531,0.9804077l0.8712997,1.0191956l0.8713455,1.0567627l0.8713531,1.0931091l0.871315,1.1279907
		l0.8713379,1.1614075l0.871315,1.1930847l0.8713074,1.223114l0.8713379,1.2512817l0.8713531,1.2775574l0.871315,1.3018188
		l0.8712997,1.3240051l0.8713455,1.3440857l0.871315,1.3619385l0.8713531,1.377655l0.8713455,1.3909302l0.8712997,1.4019775
		l0.871315,1.410614l0.8713531,1.4169006l0.8712997,1.4207764l0.8713455,1.4221802l0.871315,1.4211426l0.8713379,1.4176636
		l0.871315,1.4117432l0.8713455,1.4033508l0.8713074,1.3925476l0.8713531,1.3792725l0.8713074,1.3636475l0.8713531,1.3456116
		l0.8712921,1.3252563l0.8713531,1.3025208l0.8713226,1.2775269l0.8713379,1.2502747l0.8713074,1.2208557l0.8713531,1.1892395
		l0.8712921,1.1556091l0.8713531,1.1199036l0.8713226,1.0822144l0.8713379,1.0426331l0.8713074,1.0012207l0.8713531,0.9580078
		l0.8713074,0.9131775l0.8713531,0.8666382l0.8712921,0.8186646l0.8713531,0.7692261l0.8713226,0.7183838l0.8713226,0.6662903
		l0.8713226,0.6130371l0.8713531,0.5587158l0.8712921,0.5033875l0.8713531,0.4472046l0.8713074,0.3901367l0.8713531,0.3325195
		l0.8713074,0.2741699l0.8713379,0.2154236l0.8713226,0.156311l0.8713379,0.0968628l0.8713074,0.0372925l0.8713226-0.0223999
		l0.8713379-0.0819397l0.8713379-0.1414795l0.8713226-0.2006836l0.8713074-0.259552l0.8713379-0.3179321l0.8713226-0.375824
		l0.8713379-0.4329529l0.8713531-0.4894104l0.8713074-0.5449829l0.8713074-0.5995483l0.8713531-0.6530762l0.8713379-0.7054749
		l0.8713074-0.7565918l0.8713226-0.806366l0.8713379-0.8547974l0.8713074-0.9016418l0.8713531-0.9468689l0.8713379-0.990509
		l0.8713074-1.0323792l0.8713226-1.0723572l0.8713379-1.1104736l0.8713074-1.146698l0.8713531-1.1808472l0.8713074-1.2128906
		l0.8713379-1.2427979l0.8713226-1.2705383l0.8713379-1.2960205l0.8713074-1.3191528l0.8713531-1.3400879l0.8713074-1.358551
		l0.8713531-1.3746643l0.8713074-1.3883362l0.8713379-1.3995056l0.8713226-1.4082642l0.8713379-1.4145508l0.8713074-1.4182739
		l0.8713531-1.4195557l0.8712921-1.4182739l0.8713531-1.4145508l0.8713226-1.4082642l0.8713379-1.3995361l0.8713074-1.3883362
		l0.8713531-1.3746338l0.8713074-1.358551l0.8713531-1.3400879l0.8712921-1.3191833l0.8713531-1.29599l0.8713074-1.2705688
		l0.8713379-1.2427979l0.8713074-1.2128601l0.8713531-1.1808472l0.8713226-1.146698l0.8713531-1.1104736l0.8712921-1.0724182
		l0.8713074-1.0323181l0.8713531-0.990509l0.8713074-0.9468689l0.8713379-0.9016418l0.8713531-0.8547974l0.8713226-0.806366
		l0.8713226-0.7566223l0.8713379-0.7054443l0.8713379-0.6530762l0.8713074-0.5995483l0.8713074-0.5449829l0.8713379-0.4894104
		l0.8713074-0.4329529l0.8713531-0.375824l0.8713226-0.3179626l0.8713531-0.259552l0.8713226-0.2006531l0.8713226-0.1414795
		l0.8713531-0.0819702l0.8712921-0.0223694l0.8713074,0.0372925l0.8713531,0.0968323l0.8713074,0.1563416l0.8713379,0.2154236
		l0.8713226,0.2741699l0.8713531,0.3325195l0.8713531,0.3901367l0.8712921,0.4471741l0.8713531,0.503418l0.8713074,0.5586853
		l0.8713074,0.6130676l0.8713379,0.6662903l0.8713226,0.7183838l0.8713379,0.7692261l0.8713226,0.8186646l0.8713379,0.8666687
		l0.8713074,0.9131165l0.8713074,0.9580383l0.8713837,1.0012207l0.8713074,1.0426331l0.8713074,1.0822144l0.8713531,1.1199036
		l0.8713226,1.1555786l0.8713226,1.18927l0.8713226,1.2208557l0.8713531,1.2502747l0.8713074,1.2775269l0.8712921,1.3025208
		l0.8713531,1.3252258l0.8713531,1.3456116l0.8712921,1.363678l0.8713531,1.3792725l0.8713226,1.3925476l0.8713531,1.4033508
		l0.8713074,1.4117432l0.8713379,1.4176636l0.8713074,1.4211426l0.8713074,1.4221802l0.8713379,1.4207458l0.8713531,1.4169312
		l0.8713074,1.410614l0.8713379,1.4019775l0.8713379,1.3909302l0.8713379,1.377594l0.8713074,1.3619995l0.8713379,1.3440857
		l0.8713074,1.3240051l0.8713074,1.3017883l0.8713379,1.2775574l0.8713684,1.2513123l0.8713074,1.2230835l0.8713379,1.1931152
		l0.8713379,1.1614075l0.8713379,1.1279907l0.8713074,1.0931091l0.8713379,1.0567627l0.8713074,1.0191956l0.8713074,0.9804382
		l0.8713379,0.9405823l0.8713379,0.8999939l0.8713379,0.8585815l0.8713379,0.8166809l0.8713074,0.7744446l0.8713684,0.7319641
		l0.8712769,0.6895142l0.8713074,0.6472778l0.8713684,0.6055908l0.8713074,0.5644836l0.8713379,0.524353l0.8713074,0.4855042
		l0.8713684,0.4480286l0.8713074,0.412384l0.8713379,0.3787842l0.8713379,0.3476563l0.8713074,0.3192444l0.8713074,0.2940063
		l0.8713379,0.2722778l0.8713074,0.2543945l0.8713684,0.2409973l0.8713074,0.2322998l0.8713379,0.2290344l0.8713074,0.2314453
		l0.8713684,0.2403259l0.8713074,0.2561035l0.8713379,0.2794495l0.8713074,0.3109741l0.8713379,0.3513184l0.8713379,0.4013672
		l0.8713074,0.4616699l0.8713379,0.5332642l0.8713379,0.6167908l0.8713074,0.7133179l0.8713074,0.8237305l0.8713379,0.9490662
		l0.8713074,1.0904541l0.8713379,1.2490234l0.8713684,1.4259033l0.8713074,1.6224976l0.8713379,1.8401489l0.8713379,2.0802307
		l0.8713379,2.3443604l0.8713074,2.6341248l0.8713074,2.9512329l0.8713379,3.2975159l0.6359558,2.6821289"/>
</g>
<path class="st0" d="M365.31073,369.1896057h260.5269775V234.0749207H365.31073V369.1896057z"/>
<g>
	<line class="st1" x1="365.31073" y1="369.1896057" x2="625.8377075" y2="369.1896057"/>
	<line class="st1" x1="365.31073" y1="234.0749207" x2="625.8377075" y2="234.0749207"/>
	<line class="st1" x1="371.1817627" y1="369.1896057" x2="371.1817627" y2="366.5843201"/>
	<line class="st1" x1="412.6459045" y1="369.1896057" x2="412.6459045" y2="366.5843201"/>
	<line class="st1" x1="454.1100769" y1="369.1896057" x2="454.1100769" y2="366.5843201"/>
	<line class="st1" x1="495.5742188" y1="369.1896057" x2="495.5742188" y2="366.5843201"/>
	<line class="st1" x1="537.0383911" y1="369.1896057" x2="537.0383911" y2="366.5843201"/>
	<line class="st1" x1="578.5025635" y1="369.1896057" x2="578.5025635" y2="366.5843201"/>
	<line class="st1" x1="619.9666748" y1="369.1896057" x2="619.9666748" y2="366.5843201"/>
	<line class="st1" x1="371.1817627" y1="234.0749207" x2="371.1817627" y2="236.680191"/>
	<line class="st1" x1="412.6459045" y1="234.0749207" x2="412.6459045" y2="236.680191"/>
	<line class="st1" x1="454.1100769" y1="234.0749207" x2="454.1100769" y2="236.680191"/>
	<line class="st1" x1="495.5742188" y1="234.0749207" x2="495.5742188" y2="236.680191"/>
	<line class="st1" x1="537.0383911" y1="234.0749207" x2="537.0383911" y2="236.680191"/>
	<line class="st1" x1="578.5025635" y1="234.0749207" x2="578.5025635" y2="236.680191"/>
	<line class="st1" x1="619.9666748" y1="234.0749207" x2="619.9666748" y2="236.680191"/>
</g>
<g transform="translate(138.338,438)">
	<g class="st2">
		<path class="st3" d="M230.9803619-56.6279297v0.7011719h-2.6645508v-0.7011719H230.9803619z"/>
		<path class="st3" d="M235.789444-59.703125c-0.1943359-0.0107422-0.4423828,0-0.7119141,0.0439453
			c-1.4887695,0.2480469-2.2763672,1.3369141-2.4379883,2.4912109h0.0322266
			c0.3344727-0.4414063,0.9169922-0.8085938,1.6938477-0.8085938c1.2402344,0,2.1142578,0.8955078,2.1142578,2.265625
			c0,1.2832031-0.8740234,2.4707031-2.3300781,2.4707031c-1.4995117,0-2.4814453-1.1660156-2.4814453-2.9882813
			c0-1.3808594,0.496582-2.4707031,1.1870117-3.1611328c0.5825195-0.5722656,1.3588867-0.9277344,2.2436523-1.0361328
			c0.2802734-0.0429688,0.5180664-0.0537109,0.6904297-0.0537109V-59.703125z M235.5199127-55.6572266
			c0-1.0029297-0.5717773-1.6074219-1.4458008-1.6074219c-0.5717773,0-1.1000977,0.3564453-1.359375,0.8632813
			c-0.0644531,0.1074219-0.1079102,0.2480469-0.1079102,0.4208984c0.0219727,1.1542969,0.550293,2.0058594,1.5429688,2.0058594
			C234.9696198-53.9746094,235.5199127-54.6542969,235.5199127-55.6572266z"/>
	</g>
</g>
<g transform="translate(253.7253,438)">
	<g class="st2">
		<path class="st3" d="M157.0569305-56.6279297v0.7011719h-2.6645508v-0.7011719H157.0569305z"/>
		<path class="st3" d="M160.7981415-53.359375v-1.9091797h-3.2583008v-0.6259766l3.1289063-4.4765625h1.0249023v4.3574219h0.9814453
			v0.7451172h-0.9814453v1.9091797H160.7981415z M160.7981415-56.0136719v-2.3408203
			c0-0.3662109,0.0107422-0.7333984,0.0322266-1.0996094h-0.0322266c-0.2158203,0.4091797-0.3886719,0.7119141-0.5825195,1.0351563
			l-1.715332,2.3837891v0.0214844H160.7981415z"/>
	</g>
</g>
<g transform="translate(369.1127,438)">
	<g class="st2">
		<path class="st3" d="M83.1333923-56.6279297v0.7011719h-2.6645508v-0.7011719H83.1333923z"/>
		<path class="st3" d="M83.940033-53.359375v-0.5830078l0.7446289-0.7226563
			c1.7905273-1.7041016,2.5996094-2.6103516,2.6103516-3.6679688c0-0.7119141-0.3452148-1.3701172-1.3916016-1.3701172
			c-0.6362305,0-1.1650391,0.3242188-1.4887695,0.59375l-0.3017578-0.6689453
			c0.4853516-0.4101563,1.1757813-0.7119141,1.9848633-0.7119141c1.5102539,0,2.1469727,1.0361328,2.1469727,2.0390625
			c0,1.2949219-0.9389648,2.3408203-2.4165039,3.7646484l-0.5610352,0.5175781v0.0224609h3.1499023v0.7871094H83.940033z"/>
	</g>
</g>
<g transform="translate(484.5,438)">
	<g class="st2">
		<path class="st3" d="M13.1650391-56.9414063c0,2.3847656-0.8837891,3.7011719-2.4375,3.7011719
			c-1.3701172,0-2.2978516-1.2841797-2.3193359-3.6035156c0-2.3515625,1.0136719-3.6464844,2.4375-3.6464844
			C12.3242188-60.4902344,13.1650391-59.1738281,13.1650391-56.9414063z M9.3574219-56.8330078
			c0,1.8232422,0.5605469,2.8583984,1.4238281,2.8583984c0.9707031,0,1.4345703-1.1328125,1.4345703-2.9228516
			c0-1.7265625-0.4423828-2.859375-1.4238281-2.859375C9.9609375-59.7568359,9.3574219-58.7421875,9.3574219-56.8330078z"/>
	</g>
</g>
<g transform="translate(599.8873,438)">
	<g class="st2">
		<path class="st3" d="M-65.4185791-53.359375v-0.5830078l0.7441406-0.7226563
			c1.7910156-1.7041016,2.6005859-2.6103516,2.6113281-3.6679688c0-0.7119141-0.3457031-1.3701172-1.3916016-1.3701172
			c-0.6367188,0-1.1650391,0.3242188-1.4892578,0.59375l-0.3017578-0.6689453
			c0.4853516-0.4101563,1.1757813-0.7119141,1.984375-0.7119141c1.5107422,0,2.1474609,1.0361328,2.1474609,2.0390625
			c0,1.2949219-0.9384766,2.3408203-2.4169922,3.7646484l-0.5605469,0.5175781v0.0224609h3.1503906v0.7871094H-65.4185791z"/>
	</g>
</g>
<g transform="translate(715.2747,438)">
	<g class="st2">
		<path class="st3" d="M-136.4075317-53.359375v-1.9091797h-3.2578125v-0.6259766l3.1279297-4.4765625h1.0253906v4.3574219
			h0.9814453v0.7451172h-0.9814453v1.9091797H-136.4075317z M-136.4075317-56.0136719v-2.3408203
			c0-0.3662109,0.0107422-0.7333984,0.0322266-1.0996094h-0.0322266c-0.2158203,0.4091797-0.3886719,0.7119141-0.5830078,1.0351563
			l-1.7148438,2.3837891v0.0214844H-136.4075317z"/>
	</g>
</g>
<g transform="translate(830.662,438)">
	<g class="st2">
		<path class="st3" d="M-209.2615967-59.703125c-0.1943359-0.0107422-0.4423828,0-0.7128906,0.0439453
			c-1.4882813,0.2480469-2.2753906,1.3369141-2.4375,2.4912109h0.0322266
			c0.3339844-0.4414063,0.9169922-0.8085938,1.6933594-0.8085938c1.2412109,0,2.1142578,0.8955078,2.1142578,2.265625
			c0,1.2832031-0.8730469,2.4707031-2.3300781,2.4707031c-1.4990234,0-2.4804688-1.1660156-2.4804688-2.9882813
			c0-1.3808594,0.4960938-2.4707031,1.1865234-3.1611328c0.5820313-0.5722656,1.359375-0.9277344,2.2431641-1.0361328
			c0.28125-0.0429688,0.5185547-0.0537109,0.6914063-0.0537109V-59.703125z M-209.5321045-55.6572266
			c0-1.0029297-0.5712891-1.6074219-1.4453125-1.6074219c-0.5712891,0-1.1005859,0.3564453-1.359375,0.8632813
			c-0.0644531,0.1074219-0.1074219,0.2480469-0.1074219,0.4208984c0.0214844,1.1542969,0.5498047,2.0058594,1.5419922,2.0058594
			C-210.0819092-53.9746094-209.5321045-54.6542969-209.5321045-55.6572266z"/>
	</g>
</g>
<g transform="translate(484.5003,479)">
	<g class="st2">
		<path class="st3" d="M9.3707886-84.2861328l0.8183594,1.2333984c0.2128906,0.3193359,0.390625,0.6162109,0.5810547,0.9365234
			h0.0351563c0.1894531-0.34375,0.3798828-0.640625,0.5693359-0.9492188l0.8056641-1.2207031h1.1269531l-1.9560547,2.7744141
			l2.0146484,2.9638672h-1.1855469l-0.8417969-1.2919922c-0.2246094-0.3320313-0.4150391-0.6523438-0.6162109-0.9960938h-0.0234375
			c-0.1894531,0.34375-0.3916016,0.6523438-0.6044922,0.9960938l-0.8300781,1.2919922H8.1139526l2.0390625-2.9287109
			l-1.9443359-2.8095703H9.3707886z"/>
	</g>
</g>
<g>
	<line class="st1" x1="365.31073" y1="369.1896057" x2="365.31073" y2="234.0749207"/>
	<line class="st1" x1="625.8377075" y1="369.1896057" x2="625.8377075" y2="234.0749207"/>
	<line class="st1" x1="365.31073" y1="369.1896057" x2="367.9160156" y2="369.1896057"/>
	<line class="st1" x1="365.31073" y1="335.4109192" x2="367.9160156" y2="335.4109192"/>
	<line class="st1" x1="365.31073" y1="301.6322632" x2="367.9160156" y2="301.6322632"/>
	<line class="st1" x1="365.31073" y1="267.8535767" x2="367.9160156" y2="267.8535767"/>
	<line class="st1" x1="365.31073" y1="234.0749207" x2="367.9160156" y2="234.0749207"/>
	<line class="st1" x1="625.8377075" y1="369.1896057" x2="623.2324219" y2="369.1896057"/>
	<line class="st1" x1="625.8377075" y1="335.4109192" x2="623.2324219" y2="335.4109192"/>
	<line class="st1" x1="625.8377075" y1="301.6322632" x2="623.2324219" y2="301.6322632"/>
	<line class="st1" x1="625.8377075" y1="267.8535767" x2="623.2324219" y2="267.8535767"/>
	<line class="st1" x1="625.8377075" y1="234.0749207" x2="623.2324219" y2="234.0749207"/>
</g>
<g transform="translate(110,426)">
	<g class="st2">
		<path class="st3" d="M244.2832031-55.7675781v0.7011719h-2.6645508v-0.7011719H244.2832031z"/>
		<path class="st3" d="M245.0898438-52.4990234v-0.5830078l0.7446289-0.7226563
			c1.7905273-1.7041016,2.5996094-2.6103516,2.6103516-3.6679688c0-0.7119141-0.3452148-1.3701172-1.3916016-1.3701172
			c-0.6362305,0-1.1650391,0.3242188-1.4887695,0.59375l-0.3017578-0.6689453
			c0.4853516-0.4101563,1.1757813-0.7119141,1.9848633-0.7119141c1.5102539,0,2.1469727,1.0361328,2.1469727,2.0390625
			c0,1.2939453-0.9389648,2.3408203-2.4165039,3.7646484l-0.5610352,0.5175781v0.0224609h3.1499023v0.7871094H245.0898438z"/>
	</g>
</g>
<g transform="translate(110,332)">
	<g class="st2">
		<path class="st3" d="M244.2832031,4.4541016v0.7011719h-2.6645508V4.4541016H244.2832031z"/>
		<path class="st3" d="M247.1503906,1.5947266h-0.0214844l-1.2192383,0.6582031l-0.1831055-0.7226563l1.5317383-0.8193359h0.809082
			v7.0117188h-0.9169922V1.5947266z"/>
	</g>
</g>
<g transform="translate(110,238)">
	<g class="st2">
		<path class="st3" d="M250.0356445,64.3613281c0,2.3847656-0.8847656,3.7011719-2.4379883,3.7011719
			c-1.3701172,0-2.2978516-1.2841797-2.3198242-3.6035156c0-2.3515625,1.0141602-3.6464844,2.4384766-3.6464844
			C249.1938477,60.8125,250.0356445,62.1289063,250.0356445,64.3613281z M246.2275391,64.4697266
			c0,1.8232422,0.5605469,2.8583984,1.4238281,2.8583984c0.9707031,0,1.4345703-1.1328125,1.4345703-2.9228516
			c0-1.7265625-0.4418945-2.859375-1.4238281-2.859375C246.831543,61.5458984,246.2275391,62.5605469,246.2275391,64.4697266z"/>
	</g>
</g>
<g transform="translate(110,144)">
	<g class="st2">
		<path class="st3" d="M247.4355469,122.0380859h-0.0214844l-1.2192383,0.6577148l-0.1831055-0.7226563l1.5317383-0.8198242
			h0.809082v7.012207h-0.9169922V122.0380859z"/>
	</g>
</g>
<g transform="translate(110,50)">
	<g class="st2">
		<path class="st3" d="M245.375,188.387207v-0.5825195l0.7446289-0.7226563
			c1.7905273-1.7045898,2.5996094-2.6108398,2.6103516-3.6679688c0-0.7119141-0.3452148-1.3701172-1.3916016-1.3701172
			c-0.6362305,0-1.1650391,0.3237305-1.4887695,0.5932617l-0.3017578-0.6689453
			c0.4853516-0.409668,1.1757813-0.7119141,1.9848633-0.7119141c1.5102539,0,2.1469727,1.0356445,2.1469727,2.0390625
			c0,1.2944336-0.9389648,2.3408203-2.4165039,3.7646484l-0.5610352,0.5180664v0.0214844h3.1499023v0.7875977H245.375z"/>
	</g>
</g>
<g transform="translate(74,237.9998) rotate(-90)">
	<g class="st2">
		<path class="st3" d="M-65.4406281,265.4482422l1.2568359,3.390625c0.1298828,0.3793945,0.2724609,0.8300781,0.3671875,1.1738281
			h0.0234375c0.1074219-0.34375,0.2255859-0.7822266,0.3681641-1.1972656l1.1376953-3.3671875h1.1025391l-1.5644531,4.090332
			c-0.7470703,1.9682617-1.2568359,2.9760742-1.96875,3.5922852c-0.5097656,0.4506836-1.0195313,0.628418-1.2802734,0.6757813
			l-0.2607422-0.8774414c0.2607422-0.0830078,0.6044922-0.2490234,0.9130859-0.5097656
			c0.2841797-0.2250977,0.6396484-0.628418,0.8769531-1.1616211c0.0478516-0.1069336,0.0830078-0.1899414,0.0830078-0.2490234
			c0-0.0595703-0.0234375-0.1425781-0.0712891-0.2729492l-2.1220703-5.2875977H-65.4406281z"/>
	</g>
</g>
<g transform="translate(484.5005,47.25)">
	<g class="st2">
		<path d="M-2.3989255,182.9614258v-7.9912109h1.1259766l2.5605469,4.0429688
			c0.5927734,0.9370117,1.0556641,1.7788086,1.4345703,2.5966797l0.0244141-0.0117188
			c-0.0947266-1.0673828-0.1191406-2.0395508-0.1191406-3.2841797v-3.34375h0.9726563v7.9912109H2.5561526l-2.5371094-4.0546875
			c-0.5566406-0.8891602-1.0908203-1.8022461-1.4931641-2.6674805l-0.0361328,0.0117188
			c0.0595703,1.0078125,0.0830078,1.9677734,0.0830078,3.2958984v3.4145508H-2.3989255z"/>
		<path d="M4.9770513,178.9658203v-0.7114258h6.117187v0.7114258H4.9770513z M4.9770513,181.2895508v-0.7114258h6.117187v0.7114258
			H4.9770513z"/>
		<path d="M12.1030273,182.9614258v-0.6401367l0.8183594-0.7944336c1.9677734-1.8730469,2.8574219-2.8691406,2.8691406-4.03125
			c0-0.7822266-0.3789063-1.5053711-1.5292969-1.5053711c-0.6992188,0-1.2802734,0.3554688-1.6357422,0.6518555
			l-0.3320313-0.7348633c0.5332031-0.4506836,1.2919922-0.7827148,2.1806641-0.7827148
			c1.6601563,0,2.359375,1.1381836,2.359375,2.2407227c0,1.4228516-1.03125,2.5727539-2.6552734,4.1376953l-0.6162109,0.5693359
			v0.0234375h3.4619141v0.8657227H12.1030273z"/>
		<path d="M20.4506836,176.2270508h-0.0234375l-1.3398438,0.7231445l-0.2011719-0.7939453l1.6835938-0.9013672h0.8886719v7.706543
			h-1.0078125V176.2270508z"/>
	</g>
</g>
<g>
	<path class="st4" d="M365.31073,301.6322632l0.8713074-1.4192505l0.8713684-1.4167175l0.8713379-1.4117126l0.8713074-1.4042053
		l0.8713074-1.3942261l0.8713379-1.3818054l0.8713379-1.3668823l0.8713379-1.3496094l0.8713074-1.3299561l0.8713379-1.3078613
		l0.8713074-1.2835693l0.8713379-1.256958l0.8713074-1.2281189l0.8713684-1.197113l0.8713074-1.1640015l0.8713379-1.1288452
		l0.8713074-1.0916748l0.8713379-1.0526123l0.8713379-1.0116577l0.8713379-0.9689026l0.8713074-0.924469l0.8713379-0.8783875
		l0.8713074-0.83078l0.8713684-0.7816467l0.8713074-0.7312012l0.8713379-0.6794128l0.8713074-0.6264648l0.8713379-0.5723877
		l0.8713074-0.5172729l0.8713379-0.4613037l0.8713379-0.40448l0.8713379-0.3469543l0.8713074-0.2888489l0.8713379-0.2301636
		l0.8713074-0.1710815l0.8713684-0.1117554l0.8713074-0.0521851l0.8713379,0.0074463l0.8713074,0.0670776l0.8713379,0.1266479
		l0.8713074,0.1858826l0.8713684,0.244873l0.8713074,0.3034058l0.8713379,0.3614197l0.8713074,0.4187317l0.8713379,0.4754028
		l0.8713074,0.5311279l0.8713684,0.5859985l0.8713074,0.6398315l0.8713379,0.6924438l0.8713074,0.7439575l0.8713074,0.7940674
		l0.8713684,0.842804l0.8713074,0.8900757l0.8713379,0.93573l0.8713074,0.9797668l0.8713379,1.0220642l0.8713379,1.062561
		l0.8713379,1.1011353l0.8713379,1.1378479l0.8713074,1.1724548l0.8713074,1.2050781l0.8713379,1.2355042l0.8713379,1.2638245
		l0.8713379,1.289856l0.8712769,1.3136292l0.8713684,1.3350525l0.8713074,1.3541565l0.8713379,1.3708496l0.8713684,1.3851318
		l0.8713074,1.3969727l0.8713074,1.406311l0.8713379,1.413208l0.8713074,1.417572l0.8713379,1.4194641l0.8713379,1.4188538
		l0.8713379,1.4157104l0.8713074,1.4100952l0.8713379,1.4019165l0.8713074,1.3913574l0.8713379,1.3783264l0.8713379,1.3627625
		l0.8713379,1.3449402l0.8713074,1.3246155l0.8713379,1.3020325l0.8713074,1.2771301l0.8713379,1.2499084l0.8713074,1.2206116
		l0.8713684,1.1889954l0.8713074,1.155426l0.8713379,1.119751l0.8713074,1.0820618l0.8713684,1.0425415l0.8712769,1.0011292
		l0.8713684,0.9579468l0.8713074,0.9131165l0.8713379,0.8666382l0.8713074,0.818634l0.8713379,0.7691345l0.8713379,0.7183838
		l0.8713379,0.6662903l0.8713074,0.6130371l0.8713379,0.5586853l0.8713074,0.5033875l0.8713379,0.4471741l0.8713379,0.3901672
		l0.8713379,0.332489l0.8713074,0.2741699l0.8713379,0.2154236l0.8713074,0.156311l0.8713379,0.0968933l0.8713379,0.037262
		l0.8713074-0.0223999l0.8713379-0.0819397l0.8713379-0.1414795l0.8713074-0.2006836l0.8713074-0.259552l0.8713684-0.3179321
		l0.8713074-0.375824l0.8713379-0.4329529l0.8713379-0.4894104l0.8713074-0.5449829l0.8713379-0.5995483l0.8713379-0.6530762
		l0.8713379-0.7054749l0.8713074-0.7565918l0.8713074-0.806366l0.8713379-0.8547974l0.8713379-0.9016418l0.8713379-0.9468689
		l0.8713379-0.990509l0.8713074-1.0323792l0.8713074-1.0723572l0.8713684-1.1104736l0.8713074-1.146698l0.8713379-1.1808472
		l0.8713074-1.2128906l0.8713379-1.2427979l0.8713074-1.2705383l0.8713684-1.2960205l0.8712769-1.3191528l0.8713684-1.3400879
		l0.8713074-1.358551l0.8713379-1.3746643l0.8713074-1.3883362l0.8713684-1.3995056l0.8713074-1.4082642l0.8713379-1.4145508
		l0.8713074-1.4182739l0.8713379-1.4195557l0.8713074-1.4182739l0.8713684-1.4145508l0.8713074-1.4082642l0.8713379-1.3995361
		l0.8713074-1.3883362l0.8713379-1.3746338l0.8713074-1.358551l0.8713684-1.3400879l0.8713074-1.3191833l0.8713379-1.29599
		l0.8713074-1.2705688l0.8713379-1.2427979l0.8713074-1.2128601l0.8713379-1.1808472l0.8713379-1.146698l0.8713379-1.1104736
		l0.8713074-1.0724182l0.8713074-1.0323181l0.8713684-0.990509l0.8712769-0.9468689l0.8713379-0.9016418l0.8713379-0.8547974
		l0.8713379-0.806366l0.8713379-0.7566223l0.8713379-0.7054443l0.8713379-0.6530762l0.8712769-0.5995483l0.8713379-0.5449829
		l0.8713379-0.4894104l0.8713379-0.4329529l0.8713379-0.375824l0.8712769-0.3179626l0.8713989-0.259552l0.8712769-0.2006531
		l0.8713379-0.1414795l0.8713379-0.0819702l0.8713379-0.0223694l0.8712769,0.0372925l0.8713379,0.0968323l0.8713379,0.1563416
		l0.8713379,0.2154236l0.8713379,0.2741699l0.8713379,0.332489l0.8713379,0.3901672l0.8713379,0.4471741l0.8713379,0.5033569
		l0.8712769,0.5586853l0.8713379,0.6130676l0.8713379,0.6662903l0.8713379,0.7183838l0.8712769,0.7691345l0.8713379,0.818634
		l0.8713379,0.8666382l0.8713379,0.9130859l0.8712769,0.9579468l0.8713989,1.0011597l0.8713379,1.0425415l0.8712769,1.0820618
		l0.8713379,1.119751l0.8713379,1.155426l0.8713379,1.1889954l0.8713379,1.2206116l0.8713379,1.2499084l0.8712769,1.2771301
		l0.8713379,1.302002l0.8713379,1.324646l0.8713379,1.3449402l0.8712769,1.3627625l0.8713379,1.3783264l0.8713379,1.3913574
		l0.8713379,1.4019165l0.8713379,1.4100952l0.8713379,1.4157104l0.8712769,1.4188538l0.8713379,1.4194641l0.8713379,1.417572
		l0.8713379,1.413208l0.8713379,1.406311l0.8713379,1.3969727l0.8713379,1.3851318l0.8713379,1.3708496l0.8712769,1.3541565
		l0.8713379,1.3350525l0.8713379,1.3136292l0.8712769,1.2898254l0.8713379,1.2638245l0.8713989,1.2355347l0.8712769,1.2050781
		l0.8713379,1.1724548l0.8713379,1.1378479l0.8713379,1.1011353l0.8713379,1.062561l0.8713379,1.0220642l0.8712769,0.9797668
		l0.8713379,0.93573l0.8713379,0.8900757l0.8713379,0.842804l0.8713379,0.7940674l0.8713379,0.743927l0.8712769,0.6924744
		l0.8713989,0.6398315l0.8712769,0.585968l0.8712769,0.5311584l0.8713989,0.4753723l0.8712769,0.4187622l0.8713379,0.3614197
		l0.8713379,0.3034058l0.8713379,0.244873l0.8713379,0.1858826l0.8713379,0.1266479l0.8713379,0.0670776l0.8712769,0.0074463
		l0.8713379-0.0521851l0.8713379-0.1117554l0.8712769-0.1711121l0.8713989-0.2301636l0.8712769-0.2888184l0.8713379-0.3469543
		l0.8713379-0.40448l0.8713379-0.4613037l0.8713379-0.5172729l0.8713379-0.5724182l0.8712769-0.6264343l0.8713379-0.6794128
		l0.8713379-0.7312012l0.8713379-0.7816467l0.8713379-0.83078l0.8713379-0.878418l0.8712769-0.9244385l0.8713379-0.9689026
		l0.8713379-1.0116882l0.8712769-1.0525818l0.8713379-1.0916748l0.8713989-1.1288452l0.8712769-1.1640015l0.8713379-1.197113
		l0.8713379-1.2281799l0.8713379-1.256897l0.8713379-1.2835693l0.8712769-1.3078613l0.8713379-1.3299561l0.8713379-1.3496094
		l0.8713379-1.3668823l0.8713379-1.3818054l0.8713379-1.3942261l0.8713379-1.4042358l0.8712769-1.4116821l0.8713989-1.4167175
		l0.8712769-1.4192505"/>
	<path class="st5" d="M365.31073,301.6350708l0.8713074-1.4196472l0.8713684-1.4170532l0.8713379-1.4120178l0.8713074-1.40448
		l0.8713074-1.3944397l0.8713379-1.3819885l0.8713379-1.3670654l0.8713379-1.3497314l0.8713074-1.3300476l0.8713379-1.3080139
		l0.8713074-1.2836609l0.8713379-1.2569885l0.8713074-1.2281799l0.8713684-1.1971741l0.8713074-1.1640625l0.8713379-1.1288757
		l0.8713074-1.0917053l0.8713379-1.0526428l0.8713379-1.0116577l0.8713379-0.9689636l0.8713074-0.9244995l0.8713379-0.8783875
		l0.8713074-0.8307495l0.8713684-0.7817078l0.8713074-0.7312012l0.8713379-0.6794128l0.8713074-0.6264648l0.8713379-0.5723877
		l0.8713074-0.5172729l0.8713379-0.4613342l0.8713379-0.40448l0.8713379-0.3469543l0.8713074-0.2888184l0.8713379-0.2301636
		l0.8713074-0.1711121l0.8713684-0.1117554l0.8713074-0.0521851l0.8713379,0.0074463l0.8713074,0.0670776l0.8713379,0.1266479
		l0.8713074,0.1858826l0.8713684,0.244873l0.8713074,0.3034058l0.8713379,0.3614197l0.8713074,0.4187317l0.8713379,0.4754028
		l0.8713074,0.5311279l0.8713684,0.5859985l0.8713074,0.6398315l0.8713379,0.6924438l0.8713074,0.7439575l0.8713074,0.7940674
		l0.8713684,0.842804l0.8713074,0.8900757l0.8713379,0.93573l0.8713074,0.9797668l0.8713379,1.0220642l0.8713379,1.062561
		l0.8713379,1.1011353l0.8713379,1.1378479l0.8713074,1.1724548l0.8713074,1.2050781l0.8713379,1.2355042l0.8713379,1.2638245
		l0.8713379,1.289856l0.8712769,1.3136292l0.8713684,1.3350525l0.8713074,1.3541565l0.8713379,1.3708496l0.8713684,1.3851318
		l0.8713074,1.3969727l0.8713074,1.406311l0.8713379,1.413208l0.8713074,1.417572l0.8713379,1.4194641l0.8713379,1.4188538
		l0.8713379,1.4157104l0.8713074,1.4100952l0.8713379,1.4019165l0.8713074,1.3913574l0.8713379,1.3783264l0.8713379,1.3627625
		l0.8713379,1.3449402l0.8713074,1.3246155l0.8713379,1.3020325l0.8713074,1.2771301l0.8713379,1.2499084l0.8713074,1.2206116
		l0.8713684,1.1889954l0.8713074,1.155426l0.8713379,1.119751l0.8713074,1.0820618l0.8713684,1.0425415l0.8712769,1.0011292
		l0.8713684,0.9579468l0.8713074,0.9131165l0.8713379,0.8666382l0.8713074,0.818634l0.8713379,0.7691345l0.8713379,0.7183838
		l0.8713379,0.6662903l0.8713074,0.6130371l0.8713379,0.5586853l0.8713074,0.5033875l0.8713379,0.4471741l0.8713379,0.3901672
		l0.8713379,0.332489l0.8713074,0.2741699l0.8713379,0.2154236l0.8713074,0.156311l0.8713379,0.0968933l0.8713379,0.037262
		l0.8713074-0.0223999l0.8713379-0.0819397l0.8713379-0.1414795l0.8713074-0.2006836l0.8713074-0.259552l0.8713684-0.3179321
		l0.8713074-0.375824l0.8713379-0.4329529l0.8713379-0.4894104l0.8713074-0.5449829l0.8713379-0.5995483l0.8713379-0.6530762
		l0.8713379-0.7054749l0.8713074-0.7565918l0.8713074-0.806366l0.8713379-0.8547974l0.8713379-0.9016418l0.8713379-0.9468689
		l0.8713379-0.990509l0.8713074-1.0323792l0.8713074-1.0723572l0.8713684-1.1104736l0.8713074-1.146698l0.8713379-1.1808472
		l0.8713074-1.2128906l0.8713379-1.2427979l0.8713074-1.2705383l0.8713684-1.2960205l0.8712769-1.3191528l0.8713684-1.3400879
		l0.8713074-1.358551l0.8713379-1.3746643l0.8713074-1.3883362l0.8713684-1.3995056l0.8713074-1.4082642l0.8713379-1.4145508
		l0.8713074-1.4182739l0.8713379-1.4195557l0.8713074-1.4182739l0.8713684-1.4145508l0.8713074-1.4082642l0.8713379-1.3995361
		l0.8713074-1.3883362l0.8713379-1.3746338l0.8713074-1.358551l0.8713684-1.3400879l0.8713074-1.3191833l0.8713379-1.29599
		l0.8713074-1.2705688l0.8713379-1.2427979l0.8713074-1.2128601l0.8713379-1.1808472l0.8713379-1.146698l0.8713379-1.1104736
		l0.8713074-1.0724182l0.8713074-1.0323181l0.8713684-0.990509l0.8712769-0.9468689l0.8713379-0.9016418l0.8713379-0.8547974
		l0.8713379-0.806366l0.8713379-0.7566223l0.8713379-0.7054443l0.8713379-0.6530762l0.8712769-0.5995483l0.8713379-0.5449829
		l0.8713379-0.4894104l0.8713379-0.4329529l0.8713379-0.375824l0.8712769-0.3179626l0.8713989-0.259552l0.8712769-0.2006531
		l0.8713379-0.1414795l0.8713379-0.0819702l0.8713379-0.0223694l0.8712769,0.0372925l0.8713379,0.0968323l0.8713379,0.1563416
		l0.8713379,0.2154236l0.8713379,0.2741699l0.8713379,0.332489l0.8713379,0.3901672l0.8713379,0.4471741l0.8713379,0.5033569
		l0.8712769,0.5586853l0.8713379,0.6130676l0.8713379,0.6662903l0.8713379,0.7183838l0.8712769,0.7691345l0.8713379,0.818634
		l0.8713379,0.8666382l0.8713379,0.9130859l0.8712769,0.9579468l0.8713989,1.0011597l0.8713379,1.0425415l0.8712769,1.0820618
		l0.8713379,1.119751l0.8713379,1.155426l0.8713379,1.1889954l0.8713379,1.2206116l0.8713379,1.2499084l0.8712769,1.2771301
		l0.8713379,1.302002l0.8713379,1.324646l0.8713379,1.3449402l0.8712769,1.3627625l0.8713379,1.3783264l0.8713379,1.3913574
		l0.8713379,1.4019165l0.8713379,1.4100952l0.8713379,1.4157104l0.8712769,1.4188538l0.8713379,1.4194641l0.8713379,1.417572
		l0.8713379,1.413208l0.8713379,1.406311l0.8713379,1.3969727l0.8713379,1.3851318l0.8713379,1.3708496l0.8712769,1.3541565
		l0.8713379,1.3350525l0.8713379,1.3136292l0.8712769,1.2898254l0.8713379,1.2638245l0.8713989,1.2355347l0.8712769,1.2050781
		l0.8713379,1.1724548l0.8713379,1.1378479l0.8713379,1.1011353l0.8713379,1.062561l0.8713379,1.0220642l0.8712769,0.9797668
		l0.8713379,0.93573l0.8713379,0.8900757l0.8713379,0.842804l0.8713379,0.7940674l0.8713379,0.743927l0.8712769,0.6924744
		l0.8713989,0.6398315l0.8712769,0.585968l0.8712769,0.5311584l0.8713989,0.4753723l0.8712769,0.4187622l0.8713379,0.3613892
		l0.8713379,0.3034363l0.8713379,0.244873l0.8713379,0.1858826l0.8713379,0.1266479l0.8713379,0.0670776l0.8712769,0.0074463
		l0.8713379-0.0521851l0.8713379-0.1117554l0.8712769-0.1711121l0.8713989-0.2301636l0.8712769-0.2888184l0.8713379-0.3469543
		l0.8713379-0.40448l0.8713379-0.4613342l0.8713379-0.5172729l0.8713379-0.5724182l0.8712769-0.6264343l0.8713379-0.6794128
		l0.8713379-0.7312012l0.8713379-0.7817078l0.8713379-0.83078l0.8713379-0.8783875l0.8712769-0.924469l0.8713379-0.9689636
		l0.8713379-1.0116577l0.8712769-1.0526428l0.8713379-1.0917053l0.8713989-1.1288757l0.8712769-1.164093l0.8713379-1.1971436
		l0.8713379-1.2281799l0.8713379-1.2570496l0.8713379-1.2836304l0.8712769-1.3079834l0.8713379-1.3300476l0.8713379-1.3497314
		l0.8713379-1.3670959l0.8713379-1.381958l0.8713379-1.3944397l0.8713379-1.40448l0.8712769-1.4120178l0.8713989-1.4170532
		l0.8712769-1.4196472"/>
</g>
</svg>
