<?xml version="1.0" encoding="UTF-8" standalone="no"?>
<!DOCTYPE svg PUBLIC "-//W3C//DTD SVG 1.1//EN" "http://www.w3.org/Graphics/SVG/1.1/DTD/svg11.dtd">
<svg xmlns="http://www.w3.org/2000/svg" xmlns:xlink="http://www.w3.org/1999/xlink" version="1.1" width="536.04pt" height="215.04pt" viewBox="0 0 536.04 215.04">
<g enable-background="new">
<g>
<g id="Layer-1" data-name="P">
<clipPath id="cp0">
<path transform="matrix(1,0,0,-1,0,215.04)" d="M .000007988 -.000015259 L 536.04 -.000015259 L 536.04 215.03998 L .000007988 215.03998 Z " fill-rule="evenodd"/>
</clipPath>
<g clip-path="url(#cp0)">
<text xml:space="preserve" transform="matrix(1 0 -0 1 0 215.04)" font-size="11.04" font-family="Calibri"><tspan y="-.12" x="535.56"> </tspan></text>
</g>
</g>
<g id="Layer-1" data-name="P">
<clipPath id="cp1">
<path transform="matrix(1,0,0,-1,0,215.04)" d="M .000007988 .29004 L 535.38 .29004 L 535.38 215.04004 L .000007988 215.04004 Z " fill-rule="evenodd"/>
</clipPath>
<g clip-path="url(#cp1)">
<clipPath id="cp2">
<path transform="matrix(.10654014,0,0,-.106541458,0,214.75)" d="M 0 0 L 5025 0 L 5025 2015.62 L 0 2015.62 Z " fill-rule="evenodd"/>
</clipPath>
<g clip-path="url(#cp2)">
<path transform="matrix(.10654014,0,0,-.106541458,0,214.75)" stroke-width="15" stroke-linecap="round" stroke-linejoin="round" fill="none" stroke="#000000" d="M 118.75 354.37 L 2376.25 354.37 L 2376.25 1558.12 L 118.75 1558.12 Z "/>
<path transform="matrix(.10654014,0,0,-.106541458,0,214.75)" stroke-width="15" stroke-linecap="round" stroke-linejoin="round" fill="none" stroke="#000000" d="M 2548.75 354.37 L 4806.25 354.37 L 4806.25 1558.12 L 2548.75 1558.12 Z "/>
<path transform="matrix(.10654014,0,0,-.106541458,0,214.75)" d="M 459.25 1114.12 L 588.35 1210.94 L 597.35 1198.94 L 468.25 1102.12 C 464.94 1099.63 460.24 1100.3 457.75 1103.62 C 455.26 1106.93 455.94 1111.63 459.25 1114.12 Z M 688.75 1276.87 L 541.75 1222.87 L 588.25 1210.87 L 597.25 1198.87 L 595.75 1150.87 Z "/>
<path transform="matrix(.10654014,0,0,-.106541458,0,214.75)" d="M 1821.25 1108.12 L 1821.25 1241.36 L 1836.25 1241.36 L 1836.25 1108.12 C 1836.25 1103.98 1832.89 1100.62 1828.75 1100.62 C 1824.61 1100.62 1821.25 1103.98 1821.25 1108.12 Z M 1828.75 1361.24 L 1783.75 1211.24 L 1821.25 1241.24 L 1836.25 1241.24 L 1873.75 1211.24 Z "/>
<path transform="matrix(.10654014,0,0,-.106541458,0,214.75)" stroke-width="15" stroke-linecap="round" stroke-linejoin="round" fill="none" stroke="#000000" d="M 118.75 354.37 L 2376.25 354.37 L 2376.25 1558.12 L 118.75 1558.12 Z "/>
<path transform="matrix(.10654014,0,0,-.106541458,0,214.75)" d="M 1821.25 1048.12 L 1821.25 1241.36 L 1836.25 1241.36 L 1836.25 1048.12 C 1836.25 1043.98 1832.89 1040.62 1828.75 1040.62 C 1824.61 1040.62 1821.25 1043.98 1821.25 1048.12 Z M 1828.75 1361.24 L 1783.75 1211.24 L 1821.25 1241.24 L 1836.25 1241.24 L 1873.75 1211.24 Z "/>
<path transform="matrix(.10654014,0,0,-.106541458,0,214.75)" d="M 1246.6 1054 L 1388.77 1166.27 L 1398.07 1154.5 L 1255.9 1042.23 C 1252.65 1039.67 1247.93 1040.22 1245.36 1043.47 C 1242.8 1046.72 1243.35 1051.44 1246.6 1054 Z M 1487.5 1234.68 L 1341.89 1177.04 L 1388.67 1166.2 L 1397.97 1154.43 L 1397.67 1106.4 Z "/>
<path transform="matrix(.10654014,0,0,-.106541458,0,214.75)" d="M 2013.27 865.95 L 2047.05 709.38 L 2032.39 706.22 L 1998.61 862.79 C 1997.73 866.84 2000.31 870.83 2004.35 871.7 C 2008.4 872.57 2012.39 870 2013.27 865.95 Z M 2065 590.62 L 2077.35 746.74 L 2047.02 709.5 L 2032.36 706.34 L 1989.38 727.75 Z "/>
<path transform="matrix(.10654014,0,0,-.106541458,0,214.75)" d="M 673.71 660.98 L 507.89 566.55 L 500.46 579.58 L 666.29 674.01 C 669.89 676.06 674.47 674.8 676.52 671.2 C 678.57 667.6 677.31 663.03 673.71 660.98 Z M 400 513.74 L 552.62 548.86 L 507.99 566.61 L 500.57 579.64 L 508.08 627.07 Z "/>
<path transform="matrix(.10654014,0,0,-.106541458,0,214.75)" d="M 1232.5 956.24 L 1232.5 772.37 L 1217.5 772.37 L 1217.5 956.24 C 1217.5 960.39 1220.86 963.74 1225 963.74 C 1229.14 963.74 1232.5 960.39 1232.5 956.24 Z M 1225 652.49 L 1270 802.49 L 1232.5 772.49 L 1217.5 772.49 L 1180 802.49 Z "/>
<path transform="matrix(.10654014,0,0,-.106541458,0,214.75)" d="M 2274.49 1018.38 L 2141.78 836.74 L 2129.67 845.59 L 2262.38 1027.23 C 2264.82 1030.57 2269.52 1031.31 2272.86 1028.86 C 2276.21 1026.42 2276.94 1021.73 2274.49 1018.38 Z M 2065 744.37 L 2189.83 838.94 L 2141.85 836.84 L 2129.74 845.69 L 2117.16 892.03 Z "/>
<path transform="matrix(.10654014,0,0,-.106541458,0,214.75)" d="M 1040.23 1448.73 L 1181.85 1338.58 L 1172.64 1326.73 L 1031.02 1436.89 C 1027.75 1439.43 1027.16 1444.14 1029.7 1447.41 C 1032.25 1450.68 1036.96 1451.27 1040.23 1448.73 Z M 1271.87 1259.06 L 1181.1 1386.67 L 1181.76 1338.65 L 1172.55 1326.81 L 1125.84 1315.63 Z "/>
<path transform="matrix(.10654014,0,0,-.106541458,0,214.75)" d="M 888.08 1271.01 L 1036.33 1052.82 L 1023.92 1044.39 L 875.67 1262.58 C 873.34 1266 874.23 1270.67 877.66 1272.99 C 881.09 1275.32 885.75 1274.43 888.08 1271.01 Z M 1097.5 949.45 L 1050.42 1098.81 L 1036.26 1052.92 L 1023.86 1044.49 L 975.98 1048.23 Z "/>
<path transform="matrix(.10654014,0,0,-.106541458,0,214.75)" d="M 1703.71 982.44 L 1456.94 896.65 L 1452.02 910.82 L 1698.79 996.61 C 1702.7 997.97 1706.97 995.9 1708.33 991.99 C 1709.69 988.08 1707.62 983.8 1703.71 982.44 Z M 1341.25 864.37 L 1497.71 871.12 L 1457.06 896.69 L 1452.13 910.86 L 1468.15 956.13 Z "/>
<path transform="matrix(.10654014,0,0,-.106541458,0,214.75)" d="M 1457.5 1368.74 L 1645.12 1368.74 L 1645.12 1353.74 L 1457.5 1353.74 C 1453.36 1353.74 1450 1357.1 1450 1361.24 C 1450 1365.39 1453.36 1368.74 1457.5 1368.74 Z M 1765 1361.24 L 1615 1406.24 L 1645 1368.74 L 1645 1353.74 L 1615 1316.24 Z "/>
<path transform="matrix(.10654014,0,0,-.106541458,0,214.75)" d="M 982.53 718.94 L 1038.79 899.78 L 1053.11 895.33 L 996.85 714.48 C 995.62 710.53 991.41 708.32 987.46 709.55 C 983.5 710.78 981.3 714.98 982.53 718.94 Z M 1081.56 1012.02 L 994.03 882.16 L 1038.75 899.67 L 1053.08 895.21 L 1079.97 855.43 Z "/>
<path transform="matrix(.10654014,0,0,-.106541458,0,214.75)" d="M 381.25 871.87 L 568.87 871.87 L 568.87 856.87 L 381.25 856.87 C 377.11 856.87 373.75 860.23 373.75 864.37 C 373.75 868.51 377.11 871.87 381.25 871.87 Z M 688.75 864.37 L 538.75 909.37 L 568.75 871.87 L 568.75 856.87 L 538.75 819.37 Z "/>
<path transform="matrix(.10654014,0,0,-.106541458,0,214.75)" d="M 283.32 1300.41 L 525.51 1378.81 L 530.13 1364.53 L 287.93 1286.14 C 283.99 1284.86 279.77 1287.02 278.49 1290.96 C 277.21 1294.91 279.37 1299.13 283.32 1300.41 Z M 641.87 1408.59 L 485.31 1405.21 L 525.4 1378.77 L 530.02 1364.5 L 513.02 1319.58 Z "/>
<path transform="matrix(.10654014,0,0,-.106541458,0,214.75)" d="M 1307.07 811.09 L 1507.09 712.3 L 1500.44 698.86 L 1300.43 797.64 C 1296.71 799.48 1295.19 803.98 1297.02 807.69 C 1298.86 811.4 1303.36 812.93 1307.07 811.09 Z M 1611.25 652.49 L 1496.69 759.27 L 1506.98 712.36 L 1500.34 698.91 L 1456.83 678.57 Z "/>
<path transform="matrix(.10654014,0,0,-.106541458,0,214.75)" d="M 1821.31 482.78 L 1802.96 624.52 L 1817.83 626.44 L 1836.19 484.71 C 1836.72 480.6 1833.82 476.84 1829.71 476.31 C 1825.6 475.77 1821.84 478.67 1821.31 482.78 Z M 1795 744.37 L 1769.64 589.83 L 1802.97 624.4 L 1817.85 626.33 L 1858.89 601.39 Z "/>
<path transform="matrix(.10654014,0,0,-.106541458,0,214.75)" d="M 1999.29 1346.07 L 1900.71 1461.95 L 1912.14 1471.67 L 2010.71 1355.79 C 2013.4 1352.64 2013.01 1347.9 2009.86 1345.22 C 2006.7 1342.53 2001.97 1342.92 1999.29 1346.07 Z M 1828.75 1558.12 L 1891.67 1414.71 L 1900.79 1461.86 L 1912.22 1471.58 L 1960.22 1473.02 Z "/>
<path transform="matrix(.10654014,0,0,-.106541458,0,214.75)" d="M 163.75 864.37 L 163.75 710.5 L 148.75 710.5 L 148.75 864.37 C 148.75 868.51 152.11 871.87 156.25 871.87 C 160.39 871.87 163.75 868.51 163.75 864.37 Z M 156.25 590.62 L 201.25 740.62 L 163.75 710.62 L 148.75 710.62 L 111.25 740.62 Z "/>
<path transform="matrix(.10654014,0,0,-.106541458,0,214.75)" d="M 2093.14 1113.1 L 2229.17 1266.27 L 2240.38 1256.31 L 2104.36 1103.14 C 2101.61 1100.04 2096.87 1099.76 2093.77 1102.51 C 2090.67 1105.26 2090.39 1110 2093.14 1113.1 Z M 2314.37 1350.93 L 2181.13 1268.65 L 2229.09 1266.18 L 2240.3 1256.22 L 2248.42 1208.89 Z "/>
<path transform="matrix(.10654014,0,0,-.106541458,0,214.75)" d="M 1111.75 477.74 L 922.65 619.57 L 931.65 631.57 L 1120.75 489.74 C 1124.06 487.26 1124.73 482.56 1122.25 479.24 C 1119.76 475.93 1115.06 475.26 1111.75 477.74 Z M 831.25 697.49 L 924.25 571.49 L 922.75 619.49 L 931.75 631.49 L 978.25 643.49 Z "/>
<path transform="matrix(.10654014,0,0,-.106541458,0,214.75)" d="M 971.36 1349.68 L 777.46 1415 L 782.25 1429.22 L 976.14 1363.9 C 980.07 1362.57 982.18 1358.32 980.86 1354.4 C 979.53 1350.47 975.28 1348.36 971.36 1349.68 Z M 666.25 1460.38 L 794.03 1369.85 L 777.58 1414.97 L 782.36 1429.18 L 822.77 1455.14 Z "/>
<path transform="matrix(.10654014,0,0,-.106541458,0,214.75)" d="M 3561.25 751.87 L 3808.87 751.87 L 3808.87 736.87 L 3561.25 736.87 C 3557.11 736.87 3553.75 740.23 3553.75 744.37 C 3553.75 748.51 3557.11 751.87 3561.25 751.87 Z M 3928.75 744.37 L 3778.75 789.37 L 3808.75 751.87 L 3808.75 736.87 L 3778.75 699.37 Z "/>
<path transform="matrix(.10654014,0,0,-.106541458,0,214.75)" d="M 3058.75 751.87 L 3306.37 751.87 L 3306.37 736.87 L 3058.75 736.87 C 3054.61 736.87 3051.25 740.23 3051.25 744.37 C 3051.25 748.51 3054.61 751.87 3058.75 751.87 Z M 3426.25 744.37 L 3276.25 789.37 L 3306.25 751.87 L 3306.25 736.87 L 3276.25 699.37 Z "/>
<path transform="matrix(.10654014,0,0,-.106541458,0,214.75)" d="M 3058.75 939.37 L 3306.37 939.37 L 3306.37 924.37 L 3058.75 924.37 C 3054.61 924.37 3051.25 927.73 3051.25 931.87 C 3051.25 936.01 3054.61 939.37 3058.75 939.37 Z M 3426.25 931.87 L 3276.25 976.87 L 3306.25 939.37 L 3306.25 924.37 L 3276.25 886.87 Z "/>
<path transform="matrix(.10654014,0,0,-.106541458,0,214.75)" d="M 3561.25 864.37 L 3808.87 864.37 L 3808.87 849.37 L 3561.25 849.37 C 3557.11 849.37 3553.75 852.73 3553.75 856.87 C 3553.75 861.01 3557.11 864.37 3561.25 864.37 Z M 3928.75 856.87 L 3778.75 901.87 L 3808.75 864.37 L 3808.75 849.37 L 3778.75 811.87 Z "/>
<path transform="matrix(.10654014,0,0,-.106541458,0,214.75)" d="M 3745 594.37 L 3992.62 594.37 L 3992.62 579.37 L 3745 579.37 C 3740.86 579.37 3737.5 582.73 3737.5 586.87 C 3737.5 591.01 3740.86 594.37 3745 594.37 Z M 4112.5 586.87 L 3962.5 631.87 L 3992.5 594.37 L 3992.5 579.37 L 3962.5 541.87 Z "/>
<path transform="matrix(.10654014,0,0,-.106541458,0,214.75)" d="M 3175 466.87 L 3422.62 466.87 L 3422.62 451.87 L 3175 451.87 C 3170.86 451.87 3167.5 455.23 3167.5 459.37 C 3167.5 463.51 3170.86 466.87 3175 466.87 Z M 3542.5 459.37 L 3392.5 504.37 L 3422.5 466.87 L 3422.5 451.87 L 3392.5 414.37 Z "/>
<path transform="matrix(.10654014,0,0,-.106541458,0,214.75)" d="M 2875 594.37 L 3122.62 594.37 L 3122.62 579.37 L 2875 579.37 C 2870.86 579.37 2867.5 582.73 2867.5 586.87 C 2867.5 591.01 2870.86 594.37 2875 594.37 Z M 3242.5 586.87 L 3092.5 631.87 L 3122.5 594.37 L 3122.5 579.37 L 3092.5 541.87 Z "/>
<path transform="matrix(.10654014,0,0,-.106541458,0,214.75)" d="M 2612.5 864.37 L 2860.12 864.37 L 2860.12 849.37 L 2612.5 849.37 C 2608.36 849.37 2605 852.73 2605 856.87 C 2605 861.01 2608.36 864.37 2612.5 864.37 Z M 2980 856.87 L 2830 901.87 L 2860 864.37 L 2860 849.37 L 2830 811.87 Z "/>
<path transform="matrix(.10654014,0,0,-.106541458,0,214.75)" d="M 3857.5 466.87 L 4105.12 466.87 L 4105.12 451.87 L 3857.5 451.87 C 3853.36 451.87 3850 455.23 3850 459.37 C 3850 463.51 3853.36 466.87 3857.5 466.87 Z M 4225 459.37 L 4075 504.37 L 4105 466.87 L 4105 451.87 L 4075 414.37 Z "/>
<path transform="matrix(.10654014,0,0,-.106541458,0,214.75)" d="M 3928.75 939.37 L 4176.37 939.37 L 4176.37 924.37 L 3928.75 924.37 C 3924.61 924.37 3921.25 927.73 3921.25 931.87 C 3921.25 936.01 3924.61 939.37 3928.75 939.37 Z M 4296.25 931.87 L 4146.25 976.87 L 4176.25 939.37 L 4176.25 924.37 L 4146.25 886.87 Z "/>
<path transform="matrix(.10654014,0,0,-.106541458,0,214.75)" d="M 3928.75 669.37 L 4176.37 669.37 L 4176.37 654.37 L 3928.75 654.37 C 3924.61 654.37 3921.25 657.73 3921.25 661.87 C 3921.25 666.01 3924.61 669.37 3928.75 669.37 Z M 4296.25 661.87 L 4146.25 706.87 L 4176.25 669.37 L 4176.25 654.37 L 4146.25 616.87 Z "/>
<path transform="matrix(.10654014,0,0,-.106541458,0,214.75)" d="M 4296.25 856.87 L 4543.87 856.87 L 4543.87 841.87 L 4296.25 841.87 C 4292.11 841.87 4288.75 845.23 4288.75 849.37 C 4288.75 853.51 4292.11 856.87 4296.25 856.87 Z M 4663.75 849.37 L 4513.75 894.37 L 4543.75 856.87 L 4543.75 841.87 L 4513.75 804.37 Z "/>
<path transform="matrix(.10654014,0,0,-.106541458,0,214.75)" d="M 3928.75 751.87 L 4176.37 751.87 L 4176.37 736.87 L 3928.75 736.87 C 3924.61 736.87 3921.25 740.23 3921.25 744.37 C 3921.25 748.51 3924.61 751.87 3928.75 751.87 Z M 4296.25 744.37 L 4146.25 789.37 L 4176.25 751.87 L 4176.25 736.87 L 4146.25 699.37 Z "/>
<path transform="matrix(.10654014,0,0,-.106541458,0,214.75)" d="M 3058.75 1115.62 L 3306.37 1115.62 L 3306.37 1100.62 L 3058.75 1100.62 C 3054.61 1100.62 3051.25 1103.98 3051.25 1108.12 C 3051.25 1112.26 3054.61 1115.62 3058.75 1115.62 Z M 3426.25 1108.12 L 3276.25 1153.12 L 3306.25 1115.62 L 3306.25 1100.62 L 3276.25 1063.12 Z "/>
<path transform="matrix(.10654014,0,0,-.106541458,0,214.75)" d="M 3358.75 997.02 L 3606.37 997.02 L 3606.37 982.02 L 3358.75 982.02 C 3354.61 982.02 3351.25 985.38 3351.25 989.52 C 3351.25 993.67 3354.61 997.02 3358.75 997.02 Z M 3726.25 989.52 L 3576.25 1034.52 L 3606.25 997.02 L 3606.25 982.02 L 3576.25 944.52 Z "/>
<path transform="matrix(.10654014,0,0,-.106541458,0,214.75)" d="M 3493.75 1115.62 L 3741.37 1115.62 L 3741.37 1100.62 L 3493.75 1100.62 C 3489.61 1100.62 3486.25 1103.98 3486.25 1108.12 C 3486.25 1112.26 3489.61 1115.62 3493.75 1115.62 Z M 3861.25 1108.12 L 3711.25 1153.12 L 3741.25 1115.62 L 3741.25 1100.62 L 3711.25 1063.12 Z "/>
<path transform="matrix(.10654014,0,0,-.106541458,0,214.75)" d="M 2991.25 1358.43 L 3238.87 1358.43 L 3238.87 1343.43 L 2991.25 1343.43 C 2987.11 1343.43 2983.75 1346.79 2983.75 1350.93 C 2983.75 1355.07 2987.11 1358.43 2991.25 1358.43 Z M 3358.75 1350.93 L 3208.75 1395.93 L 3238.75 1358.43 L 3238.75 1343.43 L 3208.75 1305.93 Z "/>
<path transform="matrix(.10654014,0,0,-.106541458,0,214.75)" d="M 2807.5 1242.18 L 3055.12 1242.18 L 3055.12 1227.18 L 2807.5 1227.18 C 2803.36 1227.18 2800 1230.54 2800 1234.68 C 2800 1238.82 2803.36 1242.18 2807.5 1242.18 Z M 3175 1234.68 L 3025 1279.68 L 3055 1242.18 L 3055 1227.18 L 3025 1189.68 Z "/>
<path transform="matrix(.10654014,0,0,-.106541458,0,214.75)" d="M 2691.25 1115.62 L 2938.87 1115.62 L 2938.87 1100.62 L 2691.25 1100.62 C 2687.11 1100.62 2683.75 1103.98 2683.75 1108.12 C 2683.75 1112.26 2687.11 1115.62 2691.25 1115.62 Z M 3058.75 1108.12 L 2908.75 1153.12 L 2938.75 1115.62 L 2938.75 1100.62 L 2908.75 1063.12 Z "/>
<path transform="matrix(.10654014,0,0,-.106541458,0,214.75)" d="M 2612.5 1368.74 L 2860.12 1368.74 L 2860.12 1353.74 L 2612.5 1353.74 C 2608.36 1353.74 2605 1357.1 2605 1361.24 C 2605 1365.39 2608.36 1368.74 2612.5 1368.74 Z M 2980 1361.24 L 2830 1406.24 L 2860 1368.74 L 2860 1353.74 L 2830 1316.24 Z "/>
<path transform="matrix(.10654014,0,0,-.106541458,0,214.75)" d="M 3673.75 1368.74 L 3921.37 1368.74 L 3921.37 1353.74 L 3673.75 1353.74 C 3669.61 1353.74 3666.25 1357.1 3666.25 1361.24 C 3666.25 1365.39 3669.61 1368.74 3673.75 1368.74 Z M 4041.25 1361.24 L 3891.25 1406.24 L 3921.25 1368.74 L 3921.25 1353.74 L 3891.25 1316.24 Z "/>
<path transform="matrix(.10654014,0,0,-.106541458,0,214.75)" d="M 3673.75 1242.18 L 3921.37 1242.18 L 3921.37 1227.18 L 3673.75 1227.18 C 3669.61 1227.18 3666.25 1230.54 3666.25 1234.68 C 3666.25 1238.82 3669.61 1242.18 3673.75 1242.18 Z M 4041.25 1234.68 L 3891.25 1279.68 L 3921.25 1242.18 L 3921.25 1227.18 L 3891.25 1189.68 Z "/>
<path transform="matrix(.10654014,0,0,-.106541458,0,214.75)" d="M 3358.75 1300.77 L 3606.37 1300.77 L 3606.37 1285.77 L 3358.75 1285.77 C 3354.61 1285.77 3351.25 1289.13 3351.25 1293.27 C 3351.25 1297.42 3354.61 1300.77 3358.75 1300.77 Z M 3726.25 1293.27 L 3576.25 1338.27 L 3606.25 1300.77 L 3606.25 1285.77 L 3576.25 1248.27 Z "/>
<path transform="matrix(.10654014,0,0,-.106541458,0,214.75)" d="M 4041.25 1467.88 L 4288.87 1467.88 L 4288.87 1452.88 L 4041.25 1452.88 C 4037.11 1452.88 4033.75 1456.24 4033.75 1460.38 C 4033.75 1464.53 4037.11 1467.88 4041.25 1467.88 Z M 4408.75 1460.38 L 4258.75 1505.38 L 4288.75 1467.88 L 4288.75 1452.88 L 4258.75 1415.38 Z "/>
<path transform="matrix(.10654014,0,0,-.106541458,0,214.75)" d="M 3673.75 1450.31 L 3921.37 1450.31 L 3921.37 1435.31 L 3673.75 1435.31 C 3669.61 1435.31 3666.25 1438.66 3666.25 1442.81 C 3666.25 1446.95 3669.61 1450.31 3673.75 1450.31 Z M 4041.25 1442.81 L 3891.25 1487.81 L 3921.25 1450.31 L 3921.25 1435.31 L 3891.25 1397.81 Z "/>
<path transform="matrix(.10654014,0,0,-.106541458,0,214.75)" d="M 4112.5 1242.18 L 4360.12 1242.18 L 4360.12 1227.18 L 4112.5 1227.18 C 4108.36 1227.18 4105 1230.54 4105 1234.68 C 4105 1238.82 4108.36 1242.18 4112.5 1242.18 Z M 4480 1234.68 L 4330 1279.68 L 4360 1242.18 L 4360 1227.18 L 4330 1189.68 Z "/>
<path transform="matrix(.10654014,0,0,-.106541458,0,214.75)" d="M 3797.5 1174.21 L 4045.12 1174.21 L 4045.12 1159.21 L 3797.5 1159.21 C 3793.36 1159.21 3790 1162.57 3790 1166.71 C 3790 1170.85 3793.36 1174.21 3797.5 1174.21 Z M 4165 1166.71 L 4015 1211.71 L 4045 1174.21 L 4045 1159.21 L 4015 1121.71 Z "/>
<path transform="matrix(.10654014,0,0,-.106541458,0,214.75)" d="M 4393.75 1055.62 L 4641.37 1055.62 L 4641.37 1040.62 L 4393.75 1040.62 C 4389.61 1040.62 4386.25 1043.98 4386.25 1048.12 C 4386.25 1052.26 4389.61 1055.62 4393.75 1055.62 Z M 4761.25 1048.12 L 4611.25 1093.12 L 4641.25 1055.62 L 4641.25 1040.62 L 4611.25 1003.12 Z "/>
<path transform="matrix(.10654014,0,0,-.106541458,0,214.75)" d="M 4296.25 491.24 L 4543.87 491.24 L 4543.87 476.24 L 4296.25 476.24 C 4292.11 476.24 4288.75 479.6 4288.75 483.74 C 4288.75 487.89 4292.11 491.24 4296.25 491.24 Z M 4663.75 483.74 L 4513.75 528.74 L 4543.75 491.24 L 4543.75 476.24 L 4513.75 438.74 Z "/>
<path transform="matrix(.10654014,0,0,-.106541458,0,214.75)" d="M 4393.75 659.99 L 4641.37 659.99 L 4641.37 644.99 L 4393.75 644.99 C 4389.61 644.99 4386.25 648.35 4386.25 652.49 C 4386.25 656.64 4389.61 659.99 4393.75 659.99 Z M 4761.25 652.49 L 4611.25 697.49 L 4641.25 659.99 L 4641.25 644.99 L 4611.25 607.49 Z "/>
<path transform="matrix(.10654014,0,0,-.106541458,0,214.75)" d="M 2623.75 491.24 L 2871.37 491.24 L 2871.37 476.24 L 2623.75 476.24 C 2619.61 476.24 2616.25 479.6 2616.25 483.74 C 2616.25 487.89 2619.61 491.24 2623.75 491.24 Z M 2991.25 483.74 L 2841.25 528.74 L 2871.25 491.24 L 2871.25 476.24 L 2841.25 438.74 Z "/>
<path transform="matrix(.10654014,0,0,-.106541458,0,214.75)" d="M 4236.25 1369.68 L 4483.87 1369.68 L 4483.87 1354.68 L 4236.25 1354.68 C 4232.11 1354.68 4228.75 1358.04 4228.75 1362.18 C 4228.75 1366.32 4232.11 1369.68 4236.25 1369.68 Z M 4603.75 1362.18 L 4453.75 1407.18 L 4483.75 1369.68 L 4483.75 1354.68 L 4453.75 1317.18 Z "/>
<path transform="matrix(.10654014,0,0,-.106541458,0,214.75)" d="M 4296.25 963.74 L 4543.87 963.74 L 4543.87 948.74 L 4296.25 948.74 C 4292.11 948.74 4288.75 952.1 4288.75 956.24 C 4288.75 960.39 4292.11 963.74 4296.25 963.74 Z M 4663.75 956.24 L 4513.75 1001.24 L 4543.75 963.74 L 4543.75 948.74 L 4513.75 911.24 Z "/>
<path transform="matrix(.10654014,0,0,-.106541458,0,214.75)" d="M 4393.75 766.87 L 4641.37 766.87 L 4641.37 751.87 L 4393.75 751.87 C 4389.61 751.87 4386.25 755.23 4386.25 759.37 C 4386.25 763.51 4389.61 766.87 4393.75 766.87 Z M 4761.25 759.37 L 4611.25 804.37 L 4641.25 766.87 L 4641.25 751.87 L 4611.25 714.37 Z "/>
<path transform="matrix(.10654014,0,0,-.106541458,0,214.75)" d="M 4420 1148.9 L 4667.62 1148.9 L 4667.62 1133.9 L 4420 1133.9 C 4415.86 1133.9 4412.5 1137.26 4412.5 1141.4 C 4412.5 1145.54 4415.86 1148.9 4420 1148.9 Z M 4787.5 1141.4 L 4637.5 1186.4 L 4667.5 1148.9 L 4667.5 1133.9 L 4637.5 1096.4 Z "/>
<path transform="matrix(.10654014,0,0,-.106541458,0,214.75)" d="M 3058.75 1450.31 L 3306.37 1450.31 L 3306.37 1435.31 L 3058.75 1435.31 C 3054.61 1435.31 3051.25 1438.66 3051.25 1442.81 C 3051.25 1446.95 3054.61 1450.31 3058.75 1450.31 Z M 3426.25 1442.81 L 3276.25 1487.81 L 3306.25 1450.31 L 3306.25 1435.31 L 3276.25 1397.81 Z "/>
<path transform="matrix(.10654014,0,0,-.106541458,0,214.75)" d="M 2612.5 674.99 L 2860.12 674.99 L 2860.12 659.99 L 2612.5 659.99 C 2608.36 659.99 2605 663.35 2605 667.49 C 2605 671.64 2608.36 674.99 2612.5 674.99 Z M 2980 667.49 L 2830 712.49 L 2860 674.99 L 2860 659.99 L 2830 622.49 Z "/>
<path transform="matrix(.10654014,0,0,-.106541458,0,214.75)" d="M 3377.5 594.37 L 3625.12 594.37 L 3625.12 579.37 L 3377.5 579.37 C 3373.36 579.37 3370 582.73 3370 586.87 C 3370 591.01 3373.36 594.37 3377.5 594.37 Z M 3745 586.87 L 3595 631.87 L 3625 594.37 L 3625 579.37 L 3595 541.87 Z "/>
<path transform="matrix(.10654014,0,0,-.106541458,0,214.75)" d="M 1264.37 1078.12 L 1264.37 1271.36 L 1279.37 1271.36 L 1279.37 1078.12 C 1279.37 1073.98 1276.02 1070.62 1271.87 1070.62 C 1267.73 1070.62 1264.37 1073.98 1264.37 1078.12 Z M 1271.87 1391.24 L 1226.87 1241.24 L 1264.37 1271.24 L 1279.37 1271.24 L 1316.87 1241.24 Z "/>
<path transform="matrix(.10654014,0,0,-.106541458,0,214.75)" d="M 425.65 748.94 L 481.91 929.78 L 496.24 925.33 L 439.97 744.48 C 438.74 740.53 434.54 738.32 430.58 739.55 C 426.63 740.78 424.42 744.99 425.65 748.94 Z M 524.69 1042.02 L 437.16 912.16 L 481.88 929.67 L 496.2 925.21 L 523.1 885.43 Z "/>
<path transform="matrix(.10654014,0,0,-.106541458,0,214.75)" d="M 1264.44 512.78 L 1246.08 654.52 L 1260.96 656.44 L 1279.31 514.71 C 1279.84 510.6 1276.95 506.84 1272.84 506.31 C 1268.73 505.77 1264.97 508.67 1264.44 512.78 Z M 1238.12 774.37 L 1212.76 619.83 L 1246.1 654.4 L 1260.97 656.33 L 1302.02 631.39 Z "/>
<path transform="matrix(.10654014,0,0,-.106541458,0,214.75)" d="M 1703.16 1054 L 1845.33 1166.27 L 1854.63 1154.5 L 1712.46 1042.23 C 1709.21 1039.67 1704.49 1040.22 1701.93 1043.47 C 1699.36 1046.72 1699.91 1051.44 1703.16 1054 Z M 1944.06 1234.68 L 1798.45 1177.04 L 1845.24 1166.2 L 1854.53 1154.43 L 1854.23 1106.4 Z "/>
<path transform="matrix(.10654014,0,0,-.106541458,0,214.75)" d="M 1499.17 1348.2 L 1419.03 1142.99 L 1405.06 1148.45 L 1485.2 1353.66 C 1486.71 1357.52 1491.06 1359.42 1494.92 1357.92 C 1498.77 1356.41 1500.68 1352.06 1499.17 1348.2 Z M 1368.44 1034.06 L 1464.92 1157.41 L 1419.08 1143.11 L 1405.1 1148.56 L 1381.09 1190.15 Z "/>
<path transform="matrix(.10654014,0,0,-.106541458,0,214.75)" d="M 2277.87 482.78 L 2259.52 624.52 L 2274.4 626.44 L 2292.75 484.71 C 2293.28 480.6 2290.38 476.84 2286.28 476.31 C 2282.17 475.77 2278.41 478.67 2277.87 482.78 Z M 2251.56 744.37 L 2226.2 589.83 L 2259.54 624.4 L 2274.41 626.33 L 2315.45 601.39 Z "/>
<path transform="matrix(.10654014,0,0,-.106541458,0,214.75)" d="M 1915.51 1040.84 L 2092.57 994.09 L 2088.74 979.59 L 1911.68 1026.34 C 1907.67 1027.39 1905.28 1031.5 1906.34 1035.5 C 1907.4 1039.51 1911.5 1041.9 1915.51 1040.84 Z M 2206.56 956.24 L 2073.02 1038.04 L 2092.45 994.13 L 2088.62 979.62 L 2050.04 951.02 Z "/>
<path transform="matrix(.10654014,0,0,-.106541458,0,214.75)" d="M 1217.66 987.96 L 1171.44 1204.47 L 1186.11 1207.6 L 1232.33 991.09 C 1233.2 987.04 1230.62 983.05 1226.57 982.19 C 1222.51 981.33 1218.53 983.91 1217.66 987.96 Z M 1153.75 1323.27 L 1141.06 1167.19 L 1171.47 1204.35 L 1186.14 1207.48 L 1229.07 1185.98 Z "/>
<path transform="matrix(.10654014,0,0,-.106541458,0,214.75)" d="M 1028.71 944.47 L 781.94 858.68 L 777.02 872.85 L 1023.79 958.64 C 1027.7 960 1031.97 957.93 1033.33 954.02 C 1034.69 950.11 1032.63 945.83 1028.71 944.47 Z M 666.25 826.4 L 822.71 833.15 L 782.06 858.72 L 777.13 872.89 L 793.15 918.16 Z "/>
<path transform="matrix(.10654014,0,0,-.106541458,0,214.75)" d="M 824.17 1310.23 L 744.03 1105.03 L 730.06 1110.48 L 810.2 1315.69 C 811.71 1319.55 816.06 1321.45 819.92 1319.95 C 823.77 1318.44 825.68 1314.09 824.17 1310.23 Z M 693.44 996.09 L 789.92 1119.44 L 744.08 1105.14 L 730.1 1110.59 L 706.09 1152.18 Z "/>
<path transform="matrix(.10654014,0,0,-.106541458,0,214.75)" d="M 2976.25 1760.62 L 4356.37 1760.62 L 4356.37 1745.62 L 2976.25 1745.62 C 2972.11 1745.62 2968.75 1748.98 2968.75 1753.12 C 2968.75 1757.26 2972.11 1760.62 2976.25 1760.62 Z M 4476.25 1753.12 L 4326.25 1798.12 L 4356.25 1760.62 L 4356.25 1745.62 L 4326.25 1708.12 Z "/>
<clipPath id="cp3">
<path transform="matrix(2.1308008,0,0,-2.1308485,79.08688,211.4015)" d="M 0 0 L 43.955 0 L 43.955 12.606 L 0 12.606 Z " fill-rule="evenodd"/>
</clipPath>
<g clip-path="url(#cp3)">
<path transform="matrix(2.1308008,0,0,-2.1308485,79.08688,211.4015)" d="M 8.6272 5.0313 L 9.4088 4.824 L 9.2318 4.0986 C 9.0893 3.5221 8.7697 3.2349 8.271 3.2349 L 6.2068 3.2349 C 5.7577 3.2349 5.531 3.453 5.531 3.8913 L 5.531 6.2405 C 5.0818 4.6491 3.8468 3.589 1.8301 3.0621 L 1.5451 3.8913 C 3.728 4.349 4.8422 5.4783 4.8897 7.2769 L 1.6164 7.2769 L 1.6164 7.9333 L 4.8897 7.9333 L 4.8897 9.4879 L 2.3289 9.4879 L 2.3289 10.144 L 8.6985 10.144 L 8.6985 9.4879 L 5.6022 9.4879 L 5.6022 7.9333 L 9.3743 7.9333 L 9.3743 7.2769 L 5.6022 7.2769 C 5.6022 6.9746 5.5785 6.6766 5.531 6.3786 L 6.2068 6.3786 C 6.4443 6.3311 6.4572 6.2383 6.2435 6.1023 L 6.2435 4.1331 C 6.2435 3.969 6.3514 3.8891 6.563 3.8913 L 7.8801 3.8913 C 8.1652 3.8891 8.3552 4.0511 8.448 4.3749 Z " fill-rule="evenodd"/>
<path transform="matrix(2.1308008,0,0,-2.1308485,79.08688,211.4015)" d="M 10.09 3.7185 C 10.872 4.2 11.56 4.9601 12.152 5.9986 C 11.679 6.411 11.288 6.7112 10.98 6.8969 C 10.813 6.5039 10.589 6.1455 10.304 5.8259 L 9.6626 6.275 C 10.446 7.2164 10.956 8.4838 11.193 10.075 L 11.94 9.8679 C 12.059 9.7729 12.036 9.693 11.869 9.6261 L 11.727 8.9697 L 13.078 8.9697 L 13.221 9.1078 L 13.72 8.6933 C 13.791 8.622 13.767 8.5529 13.648 8.486 C 13.292 6.0418 12.26 4.2454 10.552 3.0967 Z M 17.241 5.1695 C 16.555 5.6273 16.043 6.0073 15.71 6.3096 L 15.71 2.9585 L 15 2.9585 L 15 7.0005 C 14.551 7.5511 14.147 8.1276 13.791 8.7278 L 14.359 9.1424 C 14.575 8.771 14.788 8.4493 15 8.1751 L 15 10.559 L 15.676 10.559 C 15.866 10.533 15.879 10.464 15.71 10.352 L 15.71 7.3805 C 15.879 7.0566 16.565 6.5492 17.775 5.8604 Z M 12.437 6.6896 C 12.653 7.2164 12.806 7.7584 12.901 8.3133 L 11.548 8.3133 L 11.263 7.5532 C 11.573 7.3676 11.964 7.0782 12.437 6.6896 Z " fill-rule="evenodd"/>
<path transform="matrix(2.1308008,0,0,-2.1308485,79.08688,211.4015)" d="M 21.23 8.3824 L 20.164 8.3824 L 20.164 7.7951 C 20.164 5.8583 19.583 4.2799 18.419 3.0621 L 17.815 3.5804 C 18.907 4.7765 19.451 6.193 19.451 7.8296 L 19.451 8.3824 L 18.134 8.3824 L 18.134 9.0388 L 19.451 9.0388 L 19.451 10.593 L 20.127 10.593 C 20.317 10.567 20.33 10.498 20.164 10.386 L 20.164 9.0388 L 21.943 9.0388 L 21.943 5.7568 C 21.943 4.8327 21.872 4.2 21.729 3.8567 C 21.563 3.4638 21.22 3.2694 20.697 3.2694 L 20.127 3.2694 L 20.056 4.0295 L 20.626 4.0295 C 20.863 4.0273 21.019 4.1309 21.088 4.3404 C 21.183 4.5693 21.23 5.0054 21.23 5.6532 Z M 22.547 9.4188 L 25.678 9.4188 L 25.678 3.5113 L 24.966 3.5113 L 24.966 3.9258 L 23.258 3.9258 L 23.258 3.3731 L 22.547 3.3731 Z M 23.258 8.7624 L 23.258 4.5822 L 24.966 4.5822 L 24.966 8.7624 Z " fill-rule="evenodd"/>
<path transform="matrix(2.1308008,0,0,-2.1308485,79.08688,211.4015)" d="M 29.739 8.9697 C 29.739 9.6347 29.728 10.246 29.702 10.801 L 30.52 10.421 L 30.237 10.179 L 30.237 8.9697 L 32.407 8.9697 L 32.764 9.3151 L 33.26 8.8315 L 32.941 8.5896 C 32.941 6.7457 32.954 5.5927 32.977 5.135 L 32.442 4.8931 L 32.442 5.3077 L 30.237 5.3077 L 30.237 3.7531 C 30.237 3.4983 30.38 3.3731 30.663 3.3731 L 33.118 3.3731 C 33.334 3.3947 33.452 3.5156 33.476 3.7337 C 33.5 3.9517 33.524 4.3965 33.545 5.0659 L 33.724 5.0659 C 33.724 4.4872 33.768 4.1072 33.85 3.9237 C 33.932 3.738 34.057 3.589 34.221 3.4767 C 34.126 3.291 34.01 3.1593 33.867 3.0794 C 33.724 2.9974 33.524 2.9585 33.26 2.9585 L 30.486 2.9585 C 29.989 2.9585 29.739 3.1874 29.739 3.6494 L 29.739 5.3077 L 27.603 5.3077 L 27.603 4.824 L 27.07 4.5822 C 27.094 5.3638 27.104 6.1692 27.104 6.9983 C 27.104 7.8275 27.094 8.5875 27.07 9.2806 L 27.64 8.9697 Z M 27.603 8.7624 L 27.603 7.2769 L 29.739 7.2769 L 29.739 8.7624 Z M 30.237 8.7624 L 30.237 7.2769 L 32.442 7.2769 L 32.442 8.7624 Z M 27.603 7.0696 L 27.603 5.515 L 29.739 5.515 L 29.739 7.0696 Z M 30.237 7.0696 L 30.237 5.515 L 32.442 5.515 L 32.442 7.0696 Z " fill-rule="evenodd"/>
<path transform="matrix(2.1308008,0,0,-2.1308485,79.08688,211.4015)" d="M 41.518 7.4151 L 41.874 7.7605 L 42.408 7.2423 L 42.088 7.035 C 41.993 5.4437 41.898 4.4289 41.803 3.9928 C 41.708 3.5566 41.548 3.2522 41.324 3.0794 C 41.099 2.9067 40.879 2.7858 40.663 2.7167 C 40.568 3.0837 40.19 3.3731 39.525 3.5804 L 39.56 3.7185 C 39.987 3.6235 40.363 3.5631 40.682 3.5285 C 41.002 3.494 41.209 3.7164 41.304 4.2 C 41.399 4.6837 41.494 5.6856 41.589 7.2078 L 40.842 7.2078 C 40.557 5.9166 40.061 4.9363 39.348 4.2691 C 38.636 3.5998 37.77 3.1075 36.751 2.7858 L 36.714 2.924 C 37.664 3.3385 38.441 3.8891 39.046 4.5801 C 39.65 5.271 40.061 6.1455 40.272 7.2078 L 39.488 7.2078 C 39.301 6.6075 39.016 6.0353 38.636 5.4955 C 38.256 4.9536 37.603 4.4527 36.679 3.9949 L 36.608 4.1331 C 37.178 4.4764 37.664 4.9126 38.066 5.4437 C 38.469 5.9727 38.754 6.56 38.921 7.2078 L 38.102 7.2078 L 37.78 7.0005 L 37.39 7.4841 L 37.78 7.6223 C 38.707 8.3802 39.562 9.164 40.343 9.9715 L 38.102 9.9715 L 37.709 9.9024 L 37.426 10.179 L 40.343 10.179 L 40.7 10.524 L 41.268 10.041 L 40.913 9.8679 C 39.989 8.9438 39.076 8.1276 38.173 7.4151 Z M 36.252 5.3077 L 37.746 5.9641 L 37.78 5.8259 C 36.049 4.8802 35.006 4.2454 34.65 3.9258 L 34.188 4.5477 C 34.568 4.6599 35.079 4.8456 35.718 5.1004 L 35.718 8.0714 L 35.433 8.0714 C 35.127 8.0693 34.842 8.0347 34.578 7.9678 L 34.259 8.2787 L 35.718 8.2787 L 35.718 9.4188 C 35.718 9.8074 35.708 10.246 35.682 10.732 L 36.571 10.317 L 36.252 10.006 L 36.252 8.2787 L 36.785 8.2787 L 37.176 8.6587 L 37.78 8.0714 L 36.252 8.0714 Z " fill-rule="evenodd"/>
</g>
<clipPath id="cp4">
<path transform="matrix(2.130724,0,0,-2.1308485,338.05616,211.4015)" d="M 0 0 L 49.321 0 L 49.321 12.606 L 0 12.606 Z " fill-rule="evenodd"/>
</clipPath>
<g clip-path="url(#cp4)">
<path transform="matrix(2.130724,0,0,-2.1308485,338.05616,211.4015)" d="M 1.8668 3.7185 C 2.6484 4.2 3.3372 4.9601 3.9288 5.9986 C 3.456 6.411 3.0652 6.7112 2.7564 6.8969 C 2.5902 6.5039 2.3656 6.1455 2.0806 5.8259 L 1.4393 6.275 C 2.2231 7.2164 2.7327 8.4838 2.9702 10.075 L 3.7172 9.8679 C 3.836 9.7729 3.8122 9.693 3.646 9.6261 L 3.5035 8.9697 L 4.8551 8.9697 L 4.9976 9.1078 L 5.4964 8.6933 C 5.5677 8.622 5.5439 8.5529 5.4252 8.486 C 5.0689 6.0418 4.0368 4.2454 2.3289 3.0967 Z M 9.018 5.1695 C 8.3314 5.6273 7.8197 6.0073 7.4872 6.3096 L 7.4872 2.9585 L 6.7768 2.9585 L 6.7768 7.0005 C 6.3277 7.5511 5.9239 8.1276 5.5677 8.7278 L 6.1355 9.1424 C 6.3514 8.771 6.5652 8.4493 6.7768 8.1751 L 6.7768 10.559 L 7.4526 10.559 C 7.6426 10.533 7.6556 10.464 7.4872 10.352 L 7.4872 7.3805 C 7.6556 7.0566 8.3422 6.5492 9.5513 5.8604 Z M 4.2139 6.6896 C 4.4298 7.2164 4.5831 7.7584 4.6781 8.3133 L 3.3243 8.3133 L 3.0393 7.5532 C 3.3502 7.3676 3.741 7.0782 4.2139 6.6896 Z " fill-rule="evenodd"/>
<path transform="matrix(2.130724,0,0,-2.1308485,338.05616,211.4015)" d="M 13.007 8.3824 L 11.94 8.3824 L 11.94 7.7951 C 11.94 5.8583 11.36 4.2799 10.196 3.0621 L 9.5913 3.5804 C 10.684 4.7765 11.228 6.193 11.228 7.8296 L 11.228 8.3824 L 9.9109 8.3824 L 9.9109 9.0388 L 11.228 9.0388 L 11.228 10.593 L 11.904 10.593 C 12.094 10.567 12.107 10.498 11.94 10.386 L 11.94 9.0388 L 13.72 9.0388 L 13.72 5.7568 C 13.72 4.8327 13.648 4.2 13.506 3.8567 C 13.34 3.4638 12.996 3.2694 12.474 3.2694 L 11.904 3.2694 L 11.833 4.0295 L 12.403 4.0295 C 12.64 4.0273 12.796 4.1309 12.865 4.3404 C 12.96 4.5693 13.007 5.0054 13.007 5.6532 Z M 14.324 9.4188 L 17.455 9.4188 L 17.455 3.5113 L 16.743 3.5113 L 16.743 3.9258 L 15.035 3.9258 L 15.035 3.3731 L 14.324 3.3731 Z M 15.035 8.7624 L 15.035 4.5822 L 16.743 4.5822 L 16.743 8.7624 Z " fill-rule="evenodd"/>
<path transform="matrix(2.130724,0,0,-2.1308485,338.05616,211.4015)" d="M 21.515 8.9697 C 21.515 9.6347 21.505 10.246 21.479 10.801 L 22.297 10.421 L 22.014 10.179 L 22.014 8.9697 L 24.184 8.9697 L 24.54 9.3151 L 25.037 8.8315 L 24.717 8.5896 C 24.717 6.7457 24.73 5.5927 24.754 5.135 L 24.219 4.8931 L 24.219 5.3077 L 22.014 5.3077 L 22.014 3.7531 C 22.014 3.4983 22.157 3.3731 22.44 3.3731 L 24.895 3.3731 C 25.11 3.3947 25.229 3.5156 25.253 3.7337 C 25.277 3.9517 25.3 4.3965 25.322 5.0659 L 25.501 5.0659 C 25.501 4.4872 25.544 4.1072 25.626 3.9237 C 25.709 3.738 25.834 3.589 25.998 3.4767 C 25.903 3.291 25.786 3.1593 25.644 3.0794 C 25.501 2.9974 25.3 2.9585 25.037 2.9585 L 22.262 2.9585 C 21.766 2.9585 21.515 3.1874 21.515 3.6494 L 21.515 5.3077 L 19.38 5.3077 L 19.38 4.824 L 18.847 4.5822 C 18.87 5.3638 18.881 6.1692 18.881 6.9983 C 18.881 7.8275 18.87 8.5875 18.847 9.2806 L 19.417 8.9697 Z M 19.38 8.7624 L 19.38 7.2769 L 21.515 7.2769 L 21.515 8.7624 Z M 22.014 8.7624 L 22.014 7.2769 L 24.219 7.2769 L 24.219 8.7624 Z M 19.38 7.0696 L 19.38 5.515 L 21.515 5.515 L 21.515 7.0696 Z M 22.014 7.0696 L 22.014 5.515 L 24.219 5.515 L 24.219 7.0696 Z " fill-rule="evenodd"/>
<path transform="matrix(2.130724,0,0,-2.1308485,338.05616,211.4015)" d="M 33.297 7.4151 L 33.653 7.7605 L 34.187 7.2423 L 33.867 7.035 C 33.772 5.4437 33.677 4.4289 33.582 3.9928 C 33.487 3.5566 33.327 3.2522 33.103 3.0794 C 32.878 2.9067 32.658 2.7858 32.442 2.7167 C 32.347 3.0837 31.969 3.3731 31.304 3.5804 L 31.339 3.7185 C 31.766 3.6235 32.142 3.5631 32.461 3.5285 C 32.781 3.494 32.988 3.7164 33.083 4.2 C 33.178 4.6837 33.273 5.6856 33.368 7.2078 L 32.621 7.2078 C 32.336 5.9166 31.84 4.9363 31.127 4.2691 C 30.414 3.5998 29.549 3.1075 28.53 2.7858 L 28.493 2.924 C 29.443 3.3385 30.22 3.8891 30.825 4.5801 C 31.429 5.271 31.84 6.1455 32.051 7.2078 L 31.267 7.2078 C 31.08 6.6075 30.794 6.0353 30.414 5.4955 C 30.034 4.9536 29.382 4.4527 28.458 3.9949 L 28.387 4.1331 C 28.957 4.4764 29.443 4.9126 29.844 5.4437 C 30.248 5.9727 30.533 6.56 30.699 7.2078 L 29.881 7.2078 L 29.559 7.0005 L 29.169 7.4841 L 29.559 7.6223 C 30.486 8.3802 31.341 9.164 32.122 9.9715 L 29.881 9.9715 L 29.488 9.9024 L 29.205 10.179 L 32.122 10.179 L 32.479 10.524 L 33.047 10.041 L 32.692 9.8679 C 31.768 8.9438 30.855 8.1276 29.952 7.4151 Z M 28.031 5.3077 L 29.525 5.9641 L 29.559 5.8259 C 27.828 4.8802 26.785 4.2454 26.429 3.9258 L 25.967 4.5477 C 26.347 4.6599 26.858 4.8456 27.497 5.1004 L 27.497 8.0714 L 27.212 8.0714 C 26.906 8.0693 26.621 8.0347 26.357 7.9678 L 26.038 8.2787 L 27.497 8.2787 L 27.497 9.4188 C 27.497 9.8074 27.487 10.246 27.461 10.732 L 28.35 10.317 L 28.031 10.006 L 28.031 8.2787 L 28.564 8.2787 L 28.955 8.6587 L 29.559 8.0714 L 28.031 8.0714 Z " fill-rule="evenodd"/>
<path transform="matrix(2.130724,0,0,-2.1308485,338.05616,211.4015)" d="M 39.147 3.8567 L 34.485 3.8567 L 34.485 4.3749 L 35.261 4.3749 L 35.261 8.9445 L 34.485 8.9445 L 34.485 9.4745 L 39.05 9.4745 L 39.317 7.386 L 38.779 7.386 C 38.757 7.5401 38.738 7.6748 38.722 7.7901 C 38.706 7.9052 38.683 8.0163 38.654 8.1238 C 38.624 8.231 38.586 8.3299 38.54 8.4202 C 38.495 8.5105 38.436 8.5883 38.366 8.654 C 38.226 8.7821 38.06 8.8623 37.867 8.8952 C 37.674 8.9279 37.478 8.9443 37.279 8.9445 L 36.583 8.9445 L 36.583 7.0288 L 36.701 7.0288 C 36.811 7.0285 36.917 7.0383 37.018 7.058 C 37.119 7.0776 37.203 7.122 37.269 7.1914 C 37.335 7.2606 37.375 7.3615 37.388 7.4937 C 37.402 7.6257 37.408 7.7823 37.408 7.9631 L 37.942 7.9631 L 37.942 5.5684 L 37.408 5.5684 C 37.408 5.746 37.402 5.9018 37.388 6.0353 C 37.375 6.1688 37.335 6.2701 37.269 6.3395 C 37.203 6.4087 37.119 6.4546 37.018 6.4769 C 36.917 6.499 36.811 6.5103 36.701 6.5106 L 36.583 6.5106 L 36.583 4.3749 L 37.347 4.3749 C 37.558 4.3747 37.763 4.3987 37.962 4.4473 C 38.162 4.4956 38.338 4.5879 38.492 4.7243 C 38.567 4.7947 38.632 4.8836 38.686 4.991 C 38.74 5.0983 38.788 5.216 38.83 5.3444 C 38.871 5.4724 38.906 5.6054 38.933 5.7428 C 38.96 5.8802 38.988 6.0326 39.017 6.2004 L 39.551 6.2004 Z " fill-rule="evenodd"/>
<path transform="matrix(2.130724,0,0,-2.1308485,338.05616,211.4015)" d="M 46.749 2.924 L 46.037 2.924 L 46.037 3.304 L 43.044 3.304 L 43.044 2.8203 L 42.332 2.8203 L 42.332 6.5168 L 46.749 6.5168 Z M 41.405 8.2096 L 47.747 8.2096 L 47.747 7.5532 L 41.405 7.5532 L 41.405 5.9986 C 41.405 4.9147 41.049 3.9474 40.337 3.0967 L 39.732 3.6494 C 40.373 4.3836 40.693 5.2472 40.693 6.2405 L 40.693 10.11 L 41.405 10.006 C 43.521 10.073 45.232 10.28 46.536 10.628 L 47.071 9.8679 C 47.261 9.6584 47.132 9.6239 46.678 9.7642 C 44.683 9.5095 42.926 9.3713 41.405 9.3497 Z M 46.037 5.8604 L 43.044 5.8604 L 43.044 3.9604 L 46.037 3.9604 Z " fill-rule="evenodd"/>
</g>
<clipPath id="cp5">
<path transform="matrix(2.1308072,0,0,-2.1308485,382.0082,30.614396)" d="M 0 0 L 8.0665 0 L 8.0665 12.606 L 0 12.606 Z " fill-rule="evenodd"/>
</clipPath>
<g clip-path="url(#cp5)">
<path transform="matrix(2.1308072,0,0,-2.1308485,382.0082,30.614396)" d="M 6.1608 3.8567 L 1.4987 3.8567 L 1.4987 4.3749 L 2.275 4.3749 L 2.275 8.9445 L 1.4987 8.9445 L 1.4987 9.4745 L 6.0638 9.4745 L 6.3306 7.386 L 5.7927 7.386 C 5.7714 7.5401 5.7525 7.6748 5.7363 7.7901 C 5.7201 7.9052 5.6973 8.0163 5.6676 8.1238 C 5.6379 8.231 5.6001 8.3299 5.5542 8.4202 C 5.5086 8.5105 5.4504 8.5883 5.3803 8.654 C 5.2402 8.7821 5.0738 8.8623 4.881 8.8952 C 4.6883 8.9279 4.4923 8.9443 4.2926 8.9445 L 3.5972 8.9445 L 3.5972 7.0288 L 3.7145 7.0288 C 3.8249 7.0285 3.9307 7.0383 4.0318 7.058 C 4.1328 7.0776 4.2165 7.122 4.2825 7.1914 C 4.3488 7.2606 4.3885 7.3615 4.402 7.4937 C 4.4155 7.6257 4.4221 7.7823 4.4221 7.9631 L 4.9558 7.9631 L 4.9558 5.5684 L 4.4221 5.5684 C 4.4221 5.746 4.4155 5.9018 4.402 6.0353 C 4.3885 6.1688 4.3488 6.2701 4.2825 6.3395 C 4.2165 6.4087 4.1328 6.4546 4.0318 6.4769 C 3.9307 6.499 3.8249 6.5103 3.7145 6.5106 L 3.5972 6.5106 L 3.5972 4.3749 L 4.3613 4.3749 C 4.5718 4.3747 4.7767 4.3987 4.9762 4.4473 C 5.1756 4.4956 5.3521 4.5879 5.5056 4.7243 C 5.5812 4.7947 5.646 4.8836 5.7 4.991 C 5.754 5.0983 5.8018 5.216 5.8435 5.3444 C 5.8852 5.4724 5.9196 5.6054 5.9466 5.7428 C 5.9736 5.8802 6.0018 6.0326 6.0315 6.2004 L 6.5651 6.2004 Z " fill-rule="evenodd"/>
</g>
</g>
</g>
</g>
</g>
</g>
</svg>
