<?xml version="1.0" encoding="utf-8"?>
<!-- Generator: Adobe Illustrator 19.0.0, SVG Export Plug-In . SVG Version: 6.00 Build 0)  -->
<svg version="1.1" id="Layer_1" focusable="false" xmlns="http://www.w3.org/2000/svg" xmlns:xlink="http://www.w3.org/1999/xlink"
	 x="0px" y="0px" viewBox="50 290.2633362 389.3333435 103.3333359"
	 style="enable-background:new 50 290.2633362 389.3333435 103.3333359;" xml:space="preserve">
<style type="text/css">
	.st0{fill:none;stroke:#00ADEE;stroke-miterlimit:10;}
	.st1{fill:none;stroke:#231F20;stroke-miterlimit:10;}
	.st2{fill:none;stroke:#EC1C24;stroke-miterlimit:10;}
	.st3{fill:#F6921E;}
	.st4{fill:#A6A8AB;}
	.st5{fill:none;stroke:#A6A8AB;}
	.st6{fill:#F7A03B;}
</style>
<path id="XMLID_10_" class="st0" d="M166.7145538,382.0793152c-5.1715393-12.5900574-8.0233002-26.3781128-8.0233002-40.8322144
	c0-14.4541321,2.8517609-28.2421875,8.0233002-40.8322144"/>
<line id="XMLID_9_" class="st1" x1="55.4815025" y1="341.2471008" x2="435.2327271" y2="341.2471008"/>
<line id="XMLID_3_" class="st2" x1="80.2181168" y1="341.2471008" x2="164.4437256" y2="306.4803772"/>
<line id="XMLID_4_" class="st0" x1="134.026535" y1="297.5488586" x2="282.8450623" y2="341.2471008"/>
<line id="XMLID_6_" class="st2" x1="164.4437256" y1="306.4803772" x2="404.7327271" y2="341.2471008"/>
<g id="XMLID_13_" transform="matrix(1 0 0 -1 0 0)">
	<g id="XMLID_14_">
		<path id="E1-MJMATHI-52" class="st3" d="M211.260498-348.0621948c-0.3135376,0-0.4993439,0.0057983-0.5574036,0.0174255
			c-0.058075,0.0115967-0.0870972,0.07547-0.0870972,0.1915894c0,0.3135681,0.0638733,0.5051575,0.1916046,0.5748596
			c0.0232239,0.0115967,1.0335388,0.017395,3.0309296,0.017395c1.997406-0.0115967,3.0773926-0.0290222,3.2399597-0.0522461
			c0.6503143-0.0928955,1.1961212-0.2554932,1.6374054-0.4877319c0.4412842-0.2322693,0.754837-0.4993591,0.9406281-0.8013
			c0.1858063-0.3019104,0.3077393-0.5516052,0.3658142-0.7490234c0.0580597-0.1973877,0.0928955-0.3948059,0.1045074-0.5922241
			c0-0.522583-0.1683807-1.0103149-0.5051575-1.4632263c-0.3367615-0.4528809-0.7257996-0.8012695-1.1670837-1.0451355
			s-0.830307-0.4412842-1.1670837-0.5922546c-0.3367615-0.1509705-0.5574036-0.2264404-0.6619263-0.2264404l0.121933-0.0870972
			c0.7780609-0.4412842,1.1670837-1.0799866,1.1670837-1.9161072c0-0.1277466-0.0290222-0.4819336-0.0870972-1.0625916
			c-0.0580597-0.5806274-0.0870819-1.0567627-0.0870819-1.4283447v-0.1567993c0-0.2090149,0.0057983-0.371582,0.0174103-0.4877319
			c0.0116119-0.1161194,0.0754852-0.2206421,0.1916199-0.3135376c0.1161194-0.0928955,0.2670898-0.1451721,0.4528961-0.1567688
			c0.3251495,0,0.5922394,0.1277466,0.8012695,0.3832092c0.2090302,0.2554932,0.3600006,0.5283813,0.4528961,0.8187256
			c0.058075,0.1625671,0.1045227,0.261261,0.1393585,0.2961121s0.121933,0.0522461,0.2612915,0.0522461
			c0.232254,0,0.3483734-0.0696716,0.3483734-0.2090149c0-0.2090454-0.1393433-0.5400085-0.418045-0.9928894
			c-0.4412994-0.6619263-0.9638672-0.9928894-1.5677338-0.9928894h-0.1567688c-0.708374,0-1.2948303,0.1451416-1.7593384,0.4354553
			c-0.4645081,0.2903442-0.719986,0.7432251-0.7664337,1.3587036c0,0.3135376,0.0870972,0.8013,0.2612762,1.4632263
			c0.1741943,0.6619263,0.2612915,1.0857849,0.2612915,1.2715759c0,0.5922546-0.2496796,1.0219421-0.7490234,1.289032
			c-0.1741943,0.0812683-0.3193512,0.1277466-0.4354706,0.1393433c-0.1161346,0.0116272-0.5283813,0.0232239-1.2367706,0.0348511
			h-1.2019196l-0.5574036-2.2644958c-0.3832245-1.5328979-0.5748444-2.3109436-0.5748444-2.3341675
			c0-0.0464478,0.0058136-0.07547,0.0174255-0.0870972s0.0522614-0.0348511,0.121933-0.0696716
			c0.0696716-0.0348511,0.1683807-0.0464478,0.2961273-0.0348511c0.1277466,0.0116272,0.3193512,0,0.5748291-0.0348206h0.5399933
			c0.0696716-0.092926,0.1045227-0.1451721,0.1045227-0.1567688c0-0.0116272-0.0174255-0.1161499-0.0522614-0.3135681
			c-0.0464478-0.1509705-0.1045227-0.2612915-0.1741943-0.3309631h-0.2612915
			c-0.4180603,0.0232239-1.1786957,0.0348511-2.2819061,0.0348511c-0.3948364,0-0.7606354,0-1.0973969,0
			c-0.3367767,0-0.6038666,0-0.8012848,0s-0.3193512-0.0057983-0.365799-0.0174255
			c-0.1974182,0-0.2961273,0.0522461-0.2961273,0.1567688c0,0.0232239,0.0174103,0.1045227,0.0522461,0.243866
			c0.058075,0.2206421,0.1161346,0.3425903,0.1741943,0.3658142c0.0464478,0.0115967,0.1335449,0.0174255,0.2612915,0.0174255
			h0.1045074c0.3135529,0,0.6619415,0.017395,1.0451508,0.0522461c0.1625824,0.0348511,0.2729034,0.1045227,0.3309631,0.2090454
			c0.0348511,0.0464478,0.4529114,1.660614,1.2541809,4.8424988c0.8012848,3.1819153,1.2019196,4.8599548,1.2019196,5.0341492
			C212.2533875-348.1376648,211.9224243-348.0854187,211.260498-348.0621948z M218.2281647-349.5079956
			c0,0.3716125-0.121933,0.6851501-0.365799,0.9406433c-0.2438812,0.2554932-0.7432251,0.4180603-1.4980469,0.4877319
			c-0.0232239,0-0.1567841,0-0.40065,0s-0.4645081,0.0057983-0.6619263,0.0174255h-0.3832245
			c-0.5457916,0-0.8593445-0.058075-0.9406281-0.1741943c-0.0116119-0.0348511-0.2090302-0.8070984-0.5922546-2.3167419
			c-0.3832245-1.5096741-0.5748291-2.2819214-0.5748291-2.3167419c0-0.0116272,0.4006348-0.0174255,1.2019196-0.0174255
			c0.9057922,0.0115967,1.5096588,0.0522461,1.8115997,0.1219177c0.7432098,0.1161499,1.3238525,0.4587097,1.7419128,1.0277405
			c0.1858063,0.2670898,0.3425751,0.6154785,0.4703064,1.045166
			C218.1642914-350.2628174,218.2281647-349.867981,218.2281647-349.5079956z"/>
	</g>
</g>
<g id="XMLID_20_" transform="matrix(1 0 0 -1 0 0)">
	<g id="XMLID_33_">
		<path id="E1-MJMATHI-3B8_2_" class="st4" d="M255.938385-352.8153992c0,1.1840515,0.2263794,2.4319153,0.6790771,3.7436218
			c0.4527283,1.3117065,1.0679626,2.443512,1.8457031,3.3953552c0.7777405,0.9518738,1.5845032,1.497467,2.4202881,1.6367493
			c0.0115967,0,0.0580139,0,0.1392822,0s0.1509094,0.0057983,0.2089539,0.0174255
			c0.6268311-0.0464478,1.1143799-0.3308411,1.462616-0.8532104c0.4526978-0.6964722,0.6790771-1.6309204,0.6790771-2.8033447
			c0-1.3349304-0.2612-2.6930847-0.7835388-4.0744324c-0.5223694-1.3813782-1.1898499-2.5131531-2.0024109-3.3953857
			c-0.812561-0.8822021-1.5903015-1.3233032-2.3332214-1.3233032h-0.1218872c-0.4179077,0-0.7777405,0.1160583-1.0795593,0.3482361
			c-0.3018188,0.2321472-0.5281677,0.5397644-0.6790771,0.9228516c-0.1509094,0.3830566-0.2611694,0.7719116-0.3308105,1.1665955
			C255.9732208-353.6395569,255.938385-353.2332764,255.938385-352.8153992z M261.9978027-346.4425354
			c0,1.184021-0.3075867,1.7760315-0.922821,1.7760315c-0.4179077,0-0.8241882-0.2611694-1.2188721-0.7835388
			c-0.3946533-0.5223694-0.719696-1.1143799-0.9750671-1.7760315c-0.2553711-0.6616821-0.4527283-1.2420959-0.5920105-1.7412415
			c-0.1393127-0.4991455-0.2147522-0.7893372-0.2263489-0.8706055c0.5687866-0.0115967,1.1317749-0.017395,1.6889648-0.017395
			l1.6889954,0.017395c0.0115967,0.0116272,0.0580139,0.2031555,0.1392822,0.5746155s0.1741333,0.8357849,0.278595,1.3929749
			S262.0094299-346.8372192,261.9978027-346.4425354z M257.2965393-353.9994202
			c0-1.2304382,0.3076172-1.8456726,0.9228516-1.8456726c0.1741028,0,0.3598328,0.0580444,0.5571899,0.1741028
			c0.1973267,0.1160889,0.4353027,0.3366394,0.7138977,0.6616821c0.278595,0.3250122,0.5571899,0.8299561,0.8357849,1.5148621
			c0.278595,0.6848755,0.5571899,1.5322571,0.8357849,2.5421448l0.0870361,0.2960205h-3.3953552
			c0-0.0348206-0.0522461-0.2553711-0.1567078-0.6616516s-0.1973267-0.8590088-0.278595-1.3581543
			S257.2965393-353.616333,257.2965393-353.9994202z"/>
	</g>
</g>
<g id="XMLID_38_" transform="matrix(1 0 0 -1 0 0)">
	<g id="XMLID_39_">
		<path id="E1-MJMATHI-68" class="st3" d="M171.1912842-316.3866577c0.0116119,0,0.4296722,0.0290527,1.2541809,0.0870972
			c0.8244934,0.058075,1.2483673,0.0928955,1.2715912,0.1045227c0.1393585,0,0.2090302-0.0522461,0.2090302-0.1567688
			c0-0.1277466-0.2090302-1.0045166-0.6270905-2.6303101c-0.4412842-1.718689-0.6619263-2.5954285-0.6619263-2.6302795
			c0-0.0232239,0.0406494,0.0057983,0.121933,0.0870972c0.708374,0.6270752,1.4632111,0.9406433,2.2644958,0.9406433
			c0.6270905,0,1.1322327-0.1567688,1.5154572-0.4703369c0.3832245-0.3135376,0.5806427-0.7722473,0.5922546-1.3760986
			c0-0.5922546-0.2206421-1.5096741-0.6619263-2.7522278s-0.6619263-1.9857788-0.6619263-2.2296448
			c0.0116119-0.1625977,0.0406494-0.2729187,0.0870972-0.3309631c0.0464478-0.058075,0.1335449-0.0870972,0.2612762-0.0870972
			c0.3251648,0,0.6270905,0.1741943,0.9058075,0.5225525c0.2787018,0.3483887,0.5051575,0.8245239,0.6793365,1.4283752
			c0.0348511,0.1277466,0.0696869,0.2032471,0.1045227,0.2264709s0.1277313,0.0348206,0.2787018,0.0348206
			c0.232254,0,0.3483887-0.0464478,0.3483887-0.1393433c0-0.0116272-0.0232239-0.0987244-0.0696869-0.2612915
			c-0.185791-0.6851501-0.4819183-1.2483826-0.8883667-1.6896667c-0.3948364-0.4993286-0.8651581-0.7490234-1.4109497-0.7490234
			h-0.0870972c-0.5458069,0-0.9406433,0.1567688-1.1845093,0.4703369c-0.243866,0.3135376-0.365799,0.6445007-0.365799,0.9928894
			c0,0.185791,0.2090302,0.8709412,0.6270905,2.0554504s0.6328888,2.072876,0.6445007,2.6651306
			c0,0.6851501-0.2554779,1.0277405-0.7664337,1.0277405H174.88414c-0.9638672,0-1.7999725-0.5690308-2.5083618-1.7070923
			l-0.121933-0.2264404l-0.5922546-2.351593c-0.3715973-1.5096436-0.586441-2.3341675-0.6445007-2.4735107
			c-0.1509705-0.3135376-0.4064484-0.4703369-0.766449-0.4703369c-0.1625671,0-0.3019257,0.0522766-0.4180603,0.1567993
			c-0.1161194,0.1044922-0.1799927,0.2090149-0.1916046,0.3135376c0,0.1625671,0.4238586,1.9277039,1.2715912,5.2954102
			l1.2890167,5.1560669c0,0.1509705-0.0406342,0.243866-0.121933,0.278717
			c-0.0812836,0.0348206-0.3077393,0.0638733-0.6793365,0.0870972h-0.365799
			c-0.0696869,0.0696716-0.1045227,0.1161194-0.1045227,0.1393433s0.0116119,0.1335449,0.0348358,0.3309631
			C171.0228882-316.4969788,171.0983734-316.3866577,171.1912842-316.3866577z"/>
	</g>
</g>
<path id="XMLID_40_" class="st5" d="M148.2396698,301.7223206c-2.5069427,4.5278625-1.8263855,7.3699036,0,11.4467773"/>
<path id="XMLID_41_" class="st5" d="M206.8931732,312.6222534c-0.1604462,2.9570618-0.3001709,3.6127319-0.9803162,6.0348816"/>
<path id="XMLID_42_" class="st5" d="M255.4525909,333.2037354c-0.7198639,2.6255798-1.3448639,4.7111511-1.2198639,8.0433655"/>
<path id="XMLID_43_" class="st5" d="M95.6493683,334.8773804c0.9583511,2.4519348,1.0833511,4.4125061,1.0833511,6.3697205"/>
<path id="XMLID_44_" class="st5" d="M346.7985535,332.8647766c-0.3158264,3.7145386-0.4341431,5.0501099,0,8.3823242"/>
<g id="XMLID_45_">
	<g id="XMLID_18_">
		<g>
			<g>
				<polygon class="st6" points="149.1583862,350.7754517 149.1583862,352.8019409 158.6912537,350.2492981 
					149.1583862,347.6922607 149.1583862,349.7189026 111.3993835,349.7189026 111.3993835,350.7754517 				"/>
			</g>
		</g>
	</g>
	<g id="XMLID_37_">
		<g>
			<g>
				<polygon class="st6" points="89.7509995,349.71875 89.7509995,347.6922607 80.2181168,350.2449036 89.7509995,352.8019409 
					89.7509995,350.7752686 123.7327271,350.7752686 123.7327271,349.71875 				"/>
			</g>
		</g>
	</g>
</g>
<g id="XMLID_46_">
	<g id="XMLID_48_">
		<g>
			<g>
				<polygon class="st6" points="273.3121948,363.7754517 273.3121948,365.8019409 282.8450317,363.2492981 
					273.3121948,360.6922607 273.3121948,362.7189026 208.0237122,362.7189026 208.0237122,363.7754517 				"/>
			</g>
		</g>
	</g>
	<g id="XMLID_47_">
		<g>
			<g>
				<polygon class="st6" points="168.2241364,362.71875 168.2241364,360.6922607 158.6912537,363.2449036 168.2241364,365.8019409 
					168.2241364,363.7752686 227.5365143,363.7752686 227.5365143,362.71875 				"/>
			</g>
		</g>
	</g>
</g>
<g id="XMLID_2_">
	<g id="XMLID_50_">
		<g>
			<g>
				<polygon class="st6" points="395.1998291,370.7754517 395.1998291,372.8019409 404.7327271,370.2492981 
					395.1998291,367.6922607 395.1998291,369.7189026 256.4557495,369.7189026 256.4557495,370.7754517 				"/>
			</g>
		</g>
	</g>
	<g id="XMLID_49_">
		<g>
			<g>
				<polygon class="st6" points="168.2241364,369.71875 168.2241364,367.6922607 158.6912537,370.2449036 168.2241364,372.8019409 
					168.2241364,370.7752686 295.1251831,370.7752686 295.1251831,369.71875 				"/>
			</g>
		</g>
	</g>
</g>
<g id="XMLID_51_">
	<g id="XMLID_87_">
		<g>
			<g>
				<polygon class="st6" points="164.9720612,315.6022034 166.9985657,315.6022034 164.4459229,306.0693054 
					161.8888702,315.6022034 163.9155426,315.6022034 163.9155426,327.2692261 164.9720612,327.2692261 				"/>
			</g>
		</g>
	</g>
	<g id="XMLID_86_">
		<g>
			<g>
				<polygon class="st6" points="163.9153748,331.7142029 161.8888702,331.7142029 164.4415131,341.2471008 
					166.9985657,331.7142029 164.9718933,331.7142029 164.9718933,321.740448 163.9153748,321.740448 				"/>
			</g>
		</g>
	</g>
</g>
<g id="XMLID_83_">
	<path id="E1-MJMATHI-3B1" class="st4" d="M80.2181091,324.7478333c0-1.3238525,0.4993515-2.4851074,1.4980469-3.4838257
		c0.998703-0.9986877,2.0961075-1.4980469,3.2922211-1.4980469c0.8128967,0,1.4632111,0.2322693,1.9509506,0.6967773
		c0.4877319,0.4645081,0.8186951,1.0335388,0.9928894,1.7070618c0.0696793,0.336792,0.110321,0.7257996,0.121933,1.1670837
		v0.5051575c0.5690308-0.8593445,1.004509-1.8231812,1.3064346-2.891571
		c0.0464554-0.1625671,0.0812912-0.2554932,0.1045151-0.278717c0.0232315-0.0232239,0.1161346-0.0406494,0.2787094-0.0522461
		c0.243866,0,0.3658066,0.0464478,0.3658066,0.1393433c0,0.1045227-0.0522614,0.3309631-0.1567764,0.6793518
		s-0.3135452,0.8419189-0.6270905,1.4806213s-0.6677322,1.2193604-1.0625687,1.7419434l-0.1916122,0.243866l0.0174179,0.4180603
		c0.0232315,0.6502991,0.0696793,1.0915833,0.1393585,1.3238525c0.0696716,0.2322388,0.1800003,0.354187,0.3309631,0.3657837
		c0.1625748-0.0232239,0.3135452-0.0870972,0.4528961-0.1915894c0.1393585-0.1045227,0.23806-0.2380676,0.2961273-0.4006653
		c0.0232239-0.0812683,0.0522537-0.1277161,0.0870972-0.1393433c0.0348358-0.0115967,0.121933-0.0232239,0.2612839-0.0348511
		c0.232254,0,0.3483887,0.0464783,0.3483887,0.1393738c0,0.0696716-0.0348434,0.1799927-0.1045151,0.3309631
		c-0.1393585,0.278717-0.3425827,0.4993591-0.6096725,0.6619263c-0.2670975,0.1625671-0.5225754,0.2496643-0.7664413,0.2612915
		h-0.1219406c-0.7780533,0-1.3064346-0.4180603-1.5851364-1.2541809l-0.0522614-0.1219482l-0.1916122,0.1393738
		c-0.116127,0.0928955-0.2903214,0.2090149-0.5225754,0.3483582c-0.232254,0.1393738-0.4935379,0.2729187-0.7838593,0.4006653
		c-0.2903214,0.1277161-0.6270905,0.243866-1.0103149,0.3483582c-0.3832169,0.1045227-0.7548294,0.1567993-1.1148224,0.1567993
		c-0.9174118,0-1.6374054-0.2903442-2.1599808-0.8709717C80.4794006,326.2052612,80.2181091,325.5259094,80.2181091,324.7478333z
		 M83.2490463,327.0123291c0.5690231,0,1.1380463-0.1219177,1.707077-0.3657837
		c0.5690231-0.243866,0.9928894-0.4935608,1.2715988-0.7490234l0.4180603-0.3832397
		c-0.0232315-1.660614-0.0638733-2.6941528-0.121933-3.1006165c-0.1625824-1.3354492-0.6967697-2.0032043-1.6025696-2.0032043
		c-0.8012772,0-1.5038528,0.4238892-2.1077118,1.2716064c-0.3135452,0.4645081-0.5690308,1.0916138-0.766449,1.8812866
		s-0.3019333,1.3935242-0.3135452,1.8115845c0,0.5690308,0.1451645,0.9812927,0.4354782,1.2367554
		C82.4593735,326.8671875,82.8193741,327.0007324,83.2490463,327.0123291z"/>
</g>
<g id="XMLID_29_">
	<path id="E1-MJMATHI-3B8" class="st4" d="M123.7327271,307.8251953c0-1.1844788,0.2264481-2.4328308,0.6793365-3.7450562
		s1.0683517-2.444458,1.8463974-3.3966675c0.778038-0.95224,1.5851135-1.4980164,2.4212112-1.6373901
		c0.0116272,0,0.058075,0,0.1393585,0s0.1509552-0.0057983,0.2090302-0.017395
		c0.6270752,0.0464478,1.1148071,0.3309326,1.4631805,0.8535156c0.4528809,0.6967468,0.6793365,1.6315613,0.6793365,2.8044434
		c0,1.3354187-0.2612915,2.6940918-0.7838593,4.0759888c-0.5225525,1.381897-1.1902771,2.5141296-2.0031586,3.3966675
		c-0.8128815,0.8825684-1.5909195,1.3238525-2.3341293,1.3238525h-0.1219254c-0.4180527,0-0.7780457-0.1161194-1.0799713-0.3483887
		c-0.3019257-0.2322388-0.5283737-0.539978-0.6793365-0.9231873s-0.2612839-0.7722473-0.3309555-1.1670532
		C123.7675629,308.6496887,123.7327271,308.2432556,123.7327271,307.8251953z M129.7944794,301.4498901
		c0-1.1844788-0.307724-1.7767029-0.9231873-1.7767029c-0.4180603,0-0.8244934,0.261261-1.2193222,0.783844
		c-0.3948288,0.5225525-0.7199783,1.1148071-0.9754562,1.7767029c-0.2554779,0.6619263-0.4528885,1.2425537-0.5922394,1.7418823
		c-0.1393509,0.4993591-0.2148361,0.7896729-0.2264481,0.8709412c0.5690155,0.0116272,1.132225,0.0174255,1.6896286,0.0174255
		l1.689621-0.0174255c0.0116119-0.0115967,0.058075-0.2032166,0.1393585-0.5747986
		c0.0812836-0.3716125,0.1741943-0.8361206,0.2787018-1.3935242S129.8060913,301.8447266,129.7944794,301.4498901z
		 M125.0914001,309.0096741c0,1.2309265,0.3077316,1.846405,0.9231949,1.846405c0.1741867,0,0.359993-0.058075,0.5574036-0.1741943
		s0.4354706-0.3367615,0.7141724-0.6619263c0.2787018-0.3251343,0.5574036-0.8302917,0.836113-1.5154419
		c0.2786865-0.6851196,0.5573883-1.5328369,0.8360901-2.5431519l0.0870972-0.2961121h-3.3966675
		c0,0.0348511-0.0522614,0.2554932-0.1567764,0.6619263c-0.1045074,0.4064331-0.1974106,0.859314-0.2786942,1.3586731
		C125.1320419,308.1851807,125.0914001,308.6264648,125.0914001,309.0096741z"/>
</g>
<g id="XMLID_23_">
	<path id="E1-MJMATHI-3B8_1_" class="st4" d="M195.3510437,328.3571472c0-1.1844788,0.2264404-2.4328308,0.6793213-3.7450562
		c0.4528961-1.3121948,1.0683594-2.4444275,1.846405-3.3966675s1.5851135-1.4980164,2.4212189-1.6373596
		c0.0116119,0,0.0580597,0,0.1393433,0c0.0812988,0,0.1509705-0.0058289,0.2090302-0.0174255
		c0.6270752,0.0464478,1.1148071,0.3309631,1.4631805,0.8535156c0.4528961,0.6967468,0.6793365,1.6315613,0.6793365,2.8044434
		c0,1.3354492-0.2612762,2.6941223-0.783844,4.0760193c-0.5225677,1.3818665-1.1902924,2.5140991-2.0031738,3.3966675
		c-0.8128662,0.8825378-1.5909119,1.323822-2.3341217,1.323822h-0.121933c-0.418045,0-0.7780304-0.1161194-1.0799713-0.3483582
		c-0.3019257-0.2322693-0.5283661-0.5400085-0.6793213-0.9232178c-0.1509705-0.3832092-0.2612915-0.7722168-0.3309631-1.1670532
		S195.3510437,328.7752075,195.3510437,328.3571472z M201.412796,321.981842c0-1.1844788-0.3077393-1.7767029-0.9232025-1.7767029
		c-0.418045,0-0.8244934,0.2612915-1.2193146,0.783844c-0.3948364,0.5225525-0.719986,1.1148071-0.9754639,1.7767334
		c-0.2554779,0.6618958-0.4528809,1.2425232-0.5922394,1.7418823c-0.1393433,0.4993286-0.2148285,0.7896423-0.2264404,0.8709412
		c0.5690155,0.0115967,1.1322327,0.017395,1.689621,0.017395l1.6896362-0.017395
		c0.0116119-0.0116272,0.0580597-0.2032166,0.1393433-0.5748291c0.0812988-0.3716125,0.1741943-0.8361206,0.2787018-1.3935242
		C201.3779602,322.8527832,201.424408,322.3766785,201.412796,321.981842z M196.7097015,329.541626
		c0,1.2309265,0.3077393,1.846405,0.9232025,1.846405c0.1741943,0,0.3599854-0.058075,0.5574036-0.1741943
		s0.4354706-0.3367615,0.7141724-0.6618958c0.2787018-0.3251648,0.5574036-0.8303223,0.8361053-1.5154419
		c0.2787018-0.6851501,0.5574036-1.5328674,0.8361053-2.5431519l0.0870972-0.2961426h-3.3966827
		c0,0.0348511-0.0522461,0.2554932-0.1567688,0.6619263c-0.1045074,0.4064331-0.197403,0.8593445-0.2787018,1.3586731
		C196.750351,328.7171326,196.7097015,329.1584167,196.7097015,329.541626z"/>
</g>
<g id="XMLID_54_">
	<path id="E1-MJMATHI-3B1_1_" class="st4" d="M338.7572021,322.1559448c0-1.3238525,0.4993591-2.4851379,1.4980469-3.4838257
		s2.0960999-1.4980469,3.2922363-1.4980469c0.8128662,0,1.4631958,0.2322693,1.9509277,0.6967773
		s0.8186951,1.0335388,0.9928894,1.7070618c0.0696716,0.3367615,0.110321,0.7257996,0.1219482,1.1670837v0.5051575
		c0.5690308-0.8593445,1.0044861-1.8232117,1.306427-2.891571c0.0464478-0.1625977,0.0812988-0.2554932,0.1045227-0.278717
		s0.1161194-0.0406494,0.278717-0.0522461c0.243866,0,0.3657837,0.0464478,0.3657837,0.1393433
		c0,0.1045227-0.0522461,0.3309631-0.1567688,0.6793518s-0.3135376,0.8419189-0.6270752,1.4806213
		c-0.3135681,0.6387024-0.6677551,1.2193604-1.0625916,1.7419128l-0.1915894,0.243866l0.017395,0.4180603
		c0.0232239,0.6503296,0.0697021,1.0916138,0.1393738,1.3238525c0.0696716,0.2322693,0.1799927,0.3542175,0.3309631,0.3658142
		c0.1625671-0.0232239,0.3135376-0.0870972,0.4528809-0.1916199c0.1393738-0.1044922,0.2380676-0.2380371,0.2961426-0.4006348
		c0.0232239-0.0812683,0.0522461-0.1277466,0.0870972-0.1393433c0.0348206-0.0116272,0.1219177-0.0232239,0.2612915-0.0348511
		c0.2322388,0,0.3483582,0.0464478,0.3483582,0.1393738c0,0.0696716-0.0348206,0.1799927-0.1044922,0.3309631
		c-0.1393738,0.2786865-0.3425903,0.4993286-0.6096802,0.6619263c-0.2670898,0.1625671-0.522583,0.2496643-0.766449,0.2612915
		h-0.1219177c-0.7780762,0-1.3064575-0.4180603-1.585144-1.2541809l-0.0522766-0.1219482l-0.1915894,0.1393433
		c-0.1161499,0.092926-0.2903442,0.2090454-0.522583,0.3483887c-0.2322693,0.1393738-0.4935608,0.2729187-0.7838745,0.4006348
		c-0.2903137,0.1277466-0.6270752,0.243866-1.0103149,0.3483887c-0.3832092,0.1045227-0.7548218,0.1567688-1.1148071,0.1567688
		c-0.9174194,0-1.6374207-0.2903137-2.1599731-0.8709412C339.0184937,323.6133423,338.7572021,322.934021,338.7572021,322.1559448z
		 M341.788147,324.4204407c0.5690308,0,1.138031-0.1219177,1.7070618-0.3658142
		c0.5690308-0.243866,0.9928894-0.4935303,1.2716064-0.7490234l0.4180603-0.3832092
		c-0.0232239-1.660614-0.0638733-2.6941528-0.1219482-3.1006165c-0.1625671-1.3354492-0.6967468-2.0032043-1.6025391-2.0032043
		c-0.8013,0-1.5038757,0.4238892-2.1077271,1.2716064c-0.3135376,0.4645081-0.5690308,1.0916138-0.766449,1.8812561
		c-0.1974182,0.7896729-0.3019409,1.3935547-0.3135376,1.811615c0,0.5690308,0.1451416,0.9812622,0.4354858,1.2367554
		C340.9984741,324.2752991,341.3584595,324.408844,341.788147,324.4204407z"/>
</g>
<g id="XMLID_8_">
	<path id="E1-MJMATHI-6C" class="st3" d="M116.674675,366.9547119c0,0.3831787,0.1451416,0.5747681,0.4354248,0.5747681
		c0.4296265,0,0.7953873-0.6096191,1.0972824-1.8288269c0.0696716-0.2322083,0.1277313-0.354126,0.1741714-0.3657532
		c0.0232239-0.0115967,0.0812836-0.017395,0.1741714-0.017395h0.0696716c0.1044998,0,0.1741714,0,0.2090073,0
		s0.063858,0.0115967,0.0870819,0.0348206s0.0348358,0.0638733,0.0348358,0.1219177
		c-0.0116119,0.0696716-0.0290298,0.1625671-0.0522537,0.2786865c-0.0232239,0.1160889-0.0870819,0.336731-0.1915894,0.6618347
		c-0.1044998,0.3251343-0.2206116,0.5979919-0.3483429,0.8186035c-0.1277237,0.2206421-0.3077011,0.4354248-0.5399323,0.6444397
		c-0.2322235,0.2090149-0.4992905,0.3077087-0.8011856,0.2961121c-0.4180145,0-0.8069992-0.1277466-1.166954-0.3831787
		c-0.3599548-0.2554626-0.5457306-0.6850891-0.5573425-1.2888794c0-0.1393433,0.005806-0.2380371,0.0174179-0.2960815
		l1.1321106-4.4936523c0.7315216-2.960907,1.0972824-4.4878235,1.0972824-4.5806885
		c0-0.0348511-0.005806-0.0638733-0.0174179-0.0870972s-0.0348358-0.0464478-0.0696716-0.0696716
		c-0.0348282-0.0232239-0.063858-0.0348206-0.0870819-0.0348206s-0.0696716-0.0058289-0.1393356-0.0174255
		c-0.0696716-0.0116272-0.1161194-0.0174255-0.1393356-0.0174255c-0.0232239,0-0.0754776-0.0057983-0.1567612-0.0174255
		c-0.0812759-0.0115967-0.1393356-0.0115967-0.1741714,0c-0.1161118,0-0.1915894,0-0.2264175,0
		c-0.0348358,0-0.0812836-0.0057983-0.1393433-0.017395c-0.0580521-0.0116272-0.0928879-0.0290527-0.1044998-0.0522766
		c-0.0116119-0.0231934-0.0174179-0.0580444-0.0174179-0.1044922c0-0.0232239,0.0116119-0.1044922,0.0348358-0.2438354
		c0.0580597-0.2206116,0.1219177-0.3425293,0.1915894-0.3657532c0.069664-0.0232239,0.4876785-0.058075,1.2540359-0.1045227
		c0.1741714-0.0115967,0.3715668-0.0232239,0.5921783-0.0348206c0.2206192-0.0116272,0.3947906-0.0290222,0.522522-0.0522461
		c0.1277237-0.0232239,0.1915817-0.0290222,0.1915817-0.0174255c0.1393433,0,0.2090073,0.0464478,0.2090073,0.1393433
		c0,0.1277161-0.4238129,1.8694458-1.2714539,5.2251282c-0.8476334,3.3557129-1.2830582,5.1148682-1.306282,5.2774048
		c0,0.0232239,0,0.0696716,0,0.1393433s-0.005806,0.1277161-0.0174179,0.1741638V366.9547119z"/>
</g>
<g id="XMLID_12_">
	<path id="E1-MJMATHI-6C_1_" class="st3" d="M272.5484314,385.7869263c0,0.3831787,0.1451416,0.5747681,0.4354248,0.5747681
		c0.4296265,0,0.7953796-0.6096191,1.09729-1.8287964c0.0696716-0.2322388,0.1277161-0.3541565,0.1741638-0.3657837
		c0.0232239-0.0115967,0.0812988-0.017395,0.1741638-0.017395h0.0696716c0.1045227,0,0.1741943,0,0.2090149,0
		c0.0348511,0,0.0638733,0.0115967,0.0870972,0.0348206s0.0348206,0.0638733,0.0348206,0.1219177
		c-0.0115967,0.0696716-0.0290222,0.1625671-0.0522461,0.2786865s-0.0870972,0.336731-0.1915894,0.6618347
		c-0.1044922,0.3251343-0.2206116,0.5979919-0.3483582,0.8186035c-0.1277161,0.2206421-0.3076782,0.4354553-0.539917,0.6444397
		c-0.2322388,0.2090149-0.4992981,0.3077087-0.801178,0.2961121c-0.4180298,0-0.8070068-0.1277466-1.1669617-0.3831787
		c-0.3599548-0.2554626-0.5457458-0.6850891-0.5573425-1.2888794c0-0.1393433,0.0057983-0.2380371,0.0174255-0.2960815
		l1.1321106-4.4936523c0.7315063-2.960907,1.0972595-4.4878235,1.0972595-4.5806885
		c0-0.0348511-0.0057983-0.0638733-0.017395-0.0870972c-0.0116272-0.0232239-0.0348511-0.0464478-0.0696716-0.0696716
		c-0.0348511-0.0232239-0.0638733-0.0348206-0.0870972-0.0348206s-0.0696716-0.0058289-0.1393433-0.0174255
		c-0.0696716-0.0116272-0.1161194-0.0174255-0.1393127-0.0174255c-0.0232239,0-0.0755005-0.0057983-0.1567688-0.0174255
		c-0.0812683-0.0115967-0.1393433-0.0115967-0.1741638,0c-0.1161194,0-0.1915894,0-0.2264404,0
		c-0.0348206,0-0.0812683-0.0057983-0.1393433-0.017395c-0.0580444-0.0116272-0.092865-0.0290222-0.1044922-0.0522461
		c-0.0115967-0.0232239-0.0174255-0.058075-0.0174255-0.1045227c0-0.0232239,0.0116272-0.1044922,0.0348511-0.2438354
		c0.0580444-0.2206116,0.1219177-0.3425293,0.1915894-0.3657532s0.4876709-0.058075,1.2540283-0.1045227
		c0.1741638-0.0115967,0.371582-0.0231934,0.5921936-0.0348206c0.2206116-0.0115967,0.3947754-0.0290222,0.522522-0.0522461
		c0.1277161-0.0232239,0.1915588-0.0290222,0.1915588-0.0174255c0.1393433,0,0.2090149,0.0464478,0.2090149,0.1393433
		c0,0.1277161-0.4237976,1.8694458-1.2714539,5.2251587c-0.8476257,3.3556824-1.2830505,5.1148376-1.3062744,5.2773743
		c0,0.0232239,0,0.0696716,0,0.1393433s-0.0057983,0.1277466-0.0174255,0.1741638V385.7869263z"/>
</g>
<g>
	<path class="st4" d="M92.5883789,322.3601685l2.0058594-0.9785156h0.2001953v6.9584961
		c0,0.4619141,0.0195313,0.7495117,0.0581055,0.8632813c0.0380859,0.1132813,0.1181641,0.2001953,0.2397461,0.2612305
		c0.121582,0.0605469,0.3686523,0.0952148,0.7416992,0.1030273v0.2250977H92.734375v-0.2250977
		c0.3891602-0.0078125,0.6401367-0.0415039,0.753418-0.1000977c0.1137695-0.0585938,0.1923828-0.1376953,0.2373047-0.2368164
		c0.0444336-0.0996094,0.0668945-0.3959961,0.0668945-0.890625v-4.4487305c0-0.5996094-0.0205078-0.984375-0.0610352-1.1547852
		c-0.0283203-0.1293945-0.0800781-0.2246094-0.1547852-0.2856445c-0.0751953-0.0605469-0.1650391-0.0908203-0.2705078-0.0908203
		c-0.1499023,0-0.3583984,0.0625-0.6259766,0.1879883L92.5883789,322.3601685z"/>
</g>
<g>
	<path class="st4" d="M132.6289063,307.2068481l2.0058594-0.9785156h0.2001953v6.9584961
		c0,0.4619141,0.0195313,0.7495117,0.0581055,0.8632813c0.0380859,0.1132813,0.1181641,0.2001953,0.2397461,0.2612305
		c0.121582,0.0605469,0.3686523,0.0952148,0.7416992,0.1030273v0.2250977h-3.0996094v-0.2250977
		c0.3891602-0.0078125,0.6401367-0.0415039,0.753418-0.1000977c0.1137695-0.0585938,0.1923828-0.1376953,0.2373047-0.2368164
		c0.0444336-0.0996094,0.0668945-0.3959961,0.0668945-0.890625v-4.4487305c0-0.5996094-0.0205078-0.984375-0.0610352-1.1547852
		c-0.0283203-0.1293945-0.0800781-0.2246094-0.1547852-0.2856445c-0.0751953-0.0605469-0.1650391-0.0908203-0.2705078-0.0908203
		c-0.1499023,0-0.3583984,0.0625-0.6259766,0.1879883L132.6289063,307.2068481z"/>
</g>
<g>
	<path class="st3" d="M121.7895508,363.2068481l2.0058594-0.9785156h0.2001953v6.9584961
		c0,0.4619141,0.0195313,0.7495117,0.0581055,0.8632813c0.0380859,0.1132813,0.1181641,0.2001953,0.2397461,0.2612305
		c0.121582,0.0605469,0.3686523,0.0952148,0.7416992,0.1030273v0.2250977h-3.0996094v-0.2250977
		c0.3891602-0.0078125,0.6401367-0.0415039,0.753418-0.1000977c0.1137695-0.0585938,0.1923828-0.1376953,0.2373047-0.2368164
		c0.0444336-0.0996094,0.0668945-0.3959961,0.0668945-0.890625v-4.4487305c0-0.5996094-0.0205078-0.984375-0.0610352-1.1547852
		c-0.0283203-0.1293945-0.0800781-0.2246094-0.1547852-0.2856445c-0.0751953-0.0605469-0.1650391-0.0908203-0.2705078-0.0908203
		c-0.1499023,0-0.3583984,0.0625-0.6259766,0.1879883L121.7895508,363.2068481z"/>
</g>
<g>
	<path class="st4" d="M208.4960938,333.2913208l-0.5776367,1.5864258h-4.8618164v-0.2250977
		c1.4301758-1.3041992,2.4370117-2.3701172,3.0205078-3.1967773c0.5834961-0.8261719,0.875-1.5820313,0.875-2.2666016
		c0-0.5229492-0.1601563-0.9521484-0.4799805-1.2885742c-0.3203125-0.3364258-0.703125-0.5043945-1.1489258-0.5043945
		c-0.4052734,0-0.7685547,0.1186523-1.0908203,0.3554688c-0.3222656,0.2373047-0.5600586,0.5844727-0.7138672,1.0424805h-0.2250977
		c0.1010742-0.7495117,0.3618164-1.3251953,0.7807617-1.7260742c0.4194336-0.4013672,0.9433594-0.6015625,1.5712891-0.6015625
		c0.668457,0,1.2265625,0.2148438,1.6743164,0.644043c0.4477539,0.4296875,0.6713867,0.9360352,0.6713867,1.5195313
		c0,0.4169922-0.097168,0.8344727-0.2915039,1.2519531c-0.2998047,0.65625-0.7861328,1.3510742-1.4584961,2.0844727
		c-1.0087891,1.1020508-1.6391602,1.7666016-1.8901367,1.9936523h2.1513672c0.4375,0,0.7446289-0.0166016,0.9208984-0.0488281
		s0.3349609-0.0981445,0.4770508-0.1977539c0.1416016-0.0991211,0.2651367-0.2397461,0.3706055-0.4223633H208.4960938z"/>
</g>
<g>
	<path class="st3" d="M282.8300781,386.9578247l-0.578125,1.5864258h-4.8613281v-0.2250977
		c1.4296875-1.3041992,2.4365234-2.3701172,3.0205078-3.1967773c0.5830078-0.8261719,0.875-1.5820313,0.875-2.2666016
		c0-0.5229492-0.1601563-0.9521484-0.4804688-1.2885742s-0.703125-0.5043945-1.1484375-0.5043945
		c-0.4052734,0-0.7685547,0.1186523-1.0908203,0.3554688c-0.3222656,0.2373047-0.5605469,0.5844727-0.7138672,1.0424805h-0.2255859
		c0.1015625-0.7495117,0.3623047-1.3251953,0.78125-1.7260742c0.4189453-0.4013672,0.9433594-0.6015625,1.5712891-0.6015625
		c0.6679688,0,1.2265625,0.2148438,1.6738281,0.644043c0.4482422,0.4296875,0.671875,0.9360352,0.671875,1.5195313
		c0,0.4169922-0.0976563,0.8344727-0.2919922,1.2519531c-0.2998047,0.65625-0.7861328,1.3510742-1.4580078,2.0844727
		c-1.0087891,1.1020508-1.6396484,1.7666016-1.890625,1.9936523h2.1513672c0.4375,0,0.7451172-0.0166016,0.9208984-0.0488281
		c0.1767578-0.0322266,0.3349609-0.0981445,0.4775391-0.1977539c0.1416016-0.0991211,0.2646484-0.2397461,0.3701172-0.4223633
		H282.8300781z"/>
</g>
<g>
	<path class="st4" d="M355.8300781,326.2058716l-0.578125,1.5864258h-4.8613281v-0.2250977
		c1.4296875-1.3041992,2.4365234-2.3701172,3.0205078-3.1967773c0.5830078-0.8261719,0.875-1.5820313,0.875-2.2666016
		c0-0.5229492-0.1601563-0.9521484-0.4804688-1.2885742s-0.703125-0.5043945-1.1484375-0.5043945
		c-0.4052734,0-0.7685547,0.1186523-1.0908203,0.3554688c-0.3222656,0.2373047-0.5605469,0.5844727-0.7138672,1.0424805h-0.2255859
		c0.1015625-0.7495117,0.3623047-1.3251953,0.78125-1.7260742c0.4189453-0.4013672,0.9433594-0.6015625,1.5712891-0.6015625
		c0.6679688,0,1.2265625,0.2148438,1.6738281,0.644043c0.4482422,0.4296875,0.671875,0.9360352,0.671875,1.5195313
		c0,0.4169922-0.0976563,0.8344727-0.2919922,1.2519531c-0.2998047,0.65625-0.7861328,1.3510742-1.4580078,2.0844727
		c-1.0087891,1.1020508-1.6396484,1.7666016-1.890625,1.9936523h2.1513672c0.4375,0,0.7451172-0.0166016,0.9208984-0.0488281
		c0.1767578-0.0322266,0.3349609-0.0981445,0.4775391-0.1977539c0.1416016-0.0991211,0.2646484-0.2397461,0.3701172-0.4223633
		H355.8300781z"/>
</g>
</svg>
