<?xml version="1.0" encoding="UTF-8" standalone="no"?>
<svg
   xmlns:dc="http://purl.org/dc/elements/1.1/"
   xmlns:cc="http://creativecommons.org/ns#"
   xmlns:rdf="http://www.w3.org/1999/02/22-rdf-syntax-ns#"
   xmlns:svg="http://www.w3.org/2000/svg"
   xmlns="http://www.w3.org/2000/svg"
   viewBox="0 0 372 248"
   height="248"
   width="372"
   xml:space="preserve"
   id="svg2"
   version="1.1"><metadata
     id="metadata8"><rdf:RDF><cc:Work
         rdf:about=""><dc:format>image/svg+xml</dc:format><dc:type
           rdf:resource="http://purl.org/dc/dcmitype/StillImage" /></cc:Work></rdf:RDF></metadata><defs
     id="defs6"><clipPath
       id="clipPath18"
       clipPathUnits="userSpaceOnUse"><path
         style="clip-rule:evenodd"
         id="path16"
         d="M 4.157e-6,0 H 279 V 186 H 4.157e-6 Z" /></clipPath><clipPath
       id="clipPath26"
       clipPathUnits="userSpaceOnUse"><path
         style="clip-rule:evenodd"
         id="path24"
         d="M 4.157e-6,0.20006 H 278.7 v 185.8 H 4.157e-6 Z" /></clipPath><clipPath
       id="clipPath36"
       clipPathUnits="userSpaceOnUse"><path
         id="path34"
         d="M 0,0 H 4190.2 V 2801.16 H 0 Z" /></clipPath><clipPath
       id="clipPath50"
       clipPathUnits="userSpaceOnUse"><path
         id="path48"
         d="M 0,0 H 60.21 V 16.178 H 0 Z" /></clipPath><clipPath
       id="clipPath74"
       clipPathUnits="userSpaceOnUse"><path
         id="path72"
         d="M 0,0 H 131.48 V 15.875 H 0 Z" /></clipPath><clipPath
       id="clipPath120"
       clipPathUnits="userSpaceOnUse"><path
         id="path118"
         d="M 0,0 H 66.591 V 16.178 H 0 Z" /></clipPath></defs><g
     transform="matrix(1.3333333,0,0,-1.3333333,0,248)"
     id="g10"><g
       id="g12"><g
         clip-path="url(#clipPath18)"
         id="g14" /></g><g
       id="g20"><g
         clip-path="url(#clipPath26)"
         id="g22"><g
           transform="matrix(3.8708,0,0,2.5806,0,0.20001)"
           id="g28"><g
             transform="scale(0.017183,0.025704)"
             id="g30"><g
               clip-path="url(#clipPath36)"
               id="g32"><path
                 id="path38"
                 style="fill:#000000;fill-opacity:1;fill-rule:nonzero;stroke:none"
                 d="m 1397.29,869.52 h 1650.13 v -15 H 1397.29 c -4.14,0 -7.5,3.36 -7.5,7.5 0,4.15 3.36,7.5 7.5,7.5 z m 1770,-7.5 -150,45 30,-37.5 v -15 l -30,-37.5 z" /><path
                 id="path40"
                 style="fill:#000000;fill-opacity:1;fill-rule:nonzero;stroke:none"
                 d="m 1389.79,862.02 v 1451.37 h 15 V 862.02 c 0,-4.14 -3.35,-7.5 -7.5,-7.5 -4.14,0 -7.5,3.36 -7.5,7.5 z m 7.5,1571.25 -45,-150 37.5,30 h 15 l 37.5,-30 z" /><g
                 transform="matrix(16.725,0,0,4.4939,2895.99,523.12)"
                 id="g42"><g
                   transform="scale(1.1958,4.4504)"
                   id="g44"><g
                     clip-path="url(#clipPath50)"
                     id="g46"><path
                       id="path52"
                       style="fill:#000000;fill-opacity:1;fill-rule:evenodd;stroke:none"
                       d="M 7.4022,3.9888 H 6.5142 V 6.2775 C 5.3591,5.2384 3.9205,4.5637 2.1986,4.2479 L 1.9314,5.1548 C 3.8315,5.5272 5.2997,6.1885 6.3361,7.1412 H 2.1986 V 7.9617 H 6.5142 V 8.9549 H 5.2241 V 8.5663 H 4.3335 V 11.978 H 2.3767 v 0.691 h 1.9568 v 1.036 H 5.1783 C 5.4158,13.673 5.432,13.586 5.2241,13.446 v -0.777 h 3.4682 v 1.079 H 9.5371 C 9.7746,13.716 9.7908,13.63 9.583,13.489 v -0.82 h 1.824 V 11.978 H 9.583 V 8.739 H 8.6923 V 8.9549 H 7.4022 V 7.9617 H 11.718 V 7.1412 H 7.5372 C 8.5466,6.2451 10.028,5.6271 11.985,5.2843 l -0.313,-0.95 C 9.9824,4.6501 8.5601,5.3248 7.4022,6.3639 Z M 5.2241,11.978 v -0.821 h 3.4682 v 0.821 z m 0,-1.512 V 9.6459 h 3.4682 v 0.8201 z" /><path
                       id="path54"
                       style="fill:#000000;fill-opacity:1;fill-rule:evenodd;stroke:none"
                       d="M 17.061,12.323 C 15.905,10.736 14.451,9.6 12.702,8.9117 L 12.21,9.7322 c 1.987,0.8608 3.515,2.1568 4.583,3.8868 l 0.756,-0.216 c 0.356,-0.119 0.372,-0.248 0.043,-0.389 0.802,-1.182 2.313,-2.205 4.537,-3.0659 L 21.597,9.0845 c -2.045,0.8043 -3.559,1.8835 -4.536,3.2385 z m 0.531,-1.684 c 0.297,-0.059 0.313,-0.175 0.046,-0.345 V 4.2911 h -1.023 v 6.3479 z" /><path
                       id="path56"
                       style="fill:#000000;fill-opacity:1;fill-rule:evenodd;stroke:none"
                       d="M 31.742,9.9913 C 31.536,9.241 31.151,8.8659 30.586,8.8685 H 28.894 C 28.333,8.8659 28.049,9.1384 28.049,9.689 v 2.116 h -1.422 v -0.518 c 0,-1.2984 -0.977,-2.2781 -2.936,-2.9367 l -0.446,0.8205 c 1.663,0.4859 2.491,1.1932 2.491,2.1162 v 0.518 h -2.045 v -1.468 h -1.023 v 2.289 h 4.269 v 1.209 h 0.98 c 0.238,-0.033 0.254,-0.119 0.043,-0.259 v -0.95 h 4.27 v -2.03 h -1.023 v 1.209 H 28.94 V 9.9913 c 0,-0.2051 0.135,-0.305 0.4,-0.3023 h 0.979 c 0.297,-0.0027 0.491,0.2133 0.578,0.648 z M 32.408,5.1548 V 4.2047 h -9.873 v 0.9501 h 4.448 v 1.8569 h -3.382 v 0.95 h 7.652 v -0.95 H 27.871 V 5.1548 Z" /><path
                       id="path58"
                       style="fill:#000000;fill-opacity:1;fill-rule:evenodd;stroke:none"
                       d="m 35.883,5.8025 c 0.03,0.9177 0.043,1.8326 0.043,2.7395 0,0.9068 -0.013,1.806 -0.043,2.702 l 0.667,-0.389 h 2.181 l 0.442,0.432 0.581,-0.562 -0.357,-0.302 c 0,-1.9026 0.016,-3.298 0.043,-4.1886 L 38.82,5.8889 v 0.6909 h -2.313 v -0.475 z m 0.624,4.7935 V 8.9117 h 2.313 v 1.6843 z m 0,-1.9434 V 6.8389 h 2.313 v 1.8137 z m -2.181,5.2254 c 0.683,-0.435 1.082,-0.737 1.201,-0.91 0.119,-0.172 0.178,-0.315 0.178,-0.429 0,-0.175 -0.059,-0.343 -0.178,-0.499 -0.119,-0.159 -0.192,-0.238 -0.221,-0.235 -0.089,-0.003 -0.179,0.157 -0.268,0.475 -0.148,0.429 -0.429,0.918 -0.844,1.468 z M 34.059,5.6298 c 0,-0.4642 0.016,-0.9231 0.046,-1.3819 L 33.392,3.9888 c 0.032,0.4318 0.046,1.8542 0.046,4.2725 0,2.4187 -0.014,3.8437 -0.046,4.2777 l 1.069,-0.518 -0.402,-0.259 z m 5.516,-0.5182 c 0.95,-0.1458 1.482,-0.197 1.601,-0.1539 0.119,0.0432 0.178,0.1647 0.178,0.3698 V 12.582 H 37.797 C 37.411,12.58 37.055,12.536 36.728,12.453 l -0.399,0.388 h 4.936 l 0.445,0.432 0.624,-0.604 -0.357,-0.259 V 5.2843 C 41.977,4.9065 41.913,4.6366 41.778,4.4638 41.643,4.2911 41.37,4.1184 40.955,3.9456 40.717,4.4341 40.258,4.7661 39.575,4.9388 Z" /><path
                       id="path60"
                       style="fill:#000000;fill-opacity:1;fill-rule:evenodd;stroke:none"
                       d="m 50.458,5.2362 c -0.559,0.0227 -1.086,0.0344 -1.581,0.0344 h -0.01 c -0.573,0 -1.179,-0.0117 -1.82,-0.0344 v 0.6527 h 0.683 l -1.294,2.0757 -1.37,-2.0561 v 0.0147 c 0,0.0325 0,0.0473 0,0.0442 C 45.127,5.9539 45.188,5.941 45.248,5.9281 45.35,5.9146 45.449,5.9048 45.547,5.8984 45.644,5.8916 45.774,5.8886 45.935,5.8889 V 5.2362 C 45.427,5.2589 44.952,5.2706 44.51,5.2706 h -0.136 c -0.414,0 -0.852,-0.0117 -1.314,-0.0344 v 0.6527 c 0.199,-3e-4 0.368,0.0012 0.508,0.0046 0.14,0.0031 0.275,0.0113 0.407,0.0248 0.06,0.0129 0.12,0.0233 0.177,0.0316 0.057,0.008 0.089,0.0187 0.096,0.0322 l 1.768,2.6548 -1.9,3.0281 h -0.919 v 0.652 c 0.556,-0.023 1.083,-0.034 1.581,-0.034 h 0.01 c 0.573,0 1.176,0.011 1.81,0.034 V 11.665 H 45.91 l 1.021,-1.634 1.077,1.614 V 11.63 c 0,-0.026 10e-4,-0.039 0.004,-0.039 -0.06,0.006 -0.122,0.016 -0.186,0.03 -0.102,0.012 -0.201,0.023 -0.298,0.031 -0.098,0.008 -0.228,0.012 -0.39,0.013 v 0.652 c 0.543,-0.023 1.06,-0.034 1.552,-0.034 h 0.01 c 0.408,0 0.846,0.011 1.314,0.034 v -0.652 c -0.199,-10e-4 -0.368,-0.002 -0.508,-0.006 -0.14,-0.003 -0.276,-0.011 -0.407,-0.024 -0.061,-0.013 -0.12,-0.024 -0.177,-0.032 -0.057,-0.008 -0.089,-0.019 -0.096,-0.032 L 47.355,9.3583 49.528,5.8889 h 0.93 z" /><path
                       id="path62"
                       style="fill:#000000;fill-opacity:1;fill-rule:evenodd;stroke:none"
                       d="M 56.146,4.1929 C 56.146,4.1232 56.127,4.0622 56.089,4.01 56.051,3.9578 56.002,3.9147 55.944,3.8809 55.886,3.847 55.822,3.8223 55.751,3.8068 55.68,3.7912 55.611,3.7835 55.543,3.7835 55.342,3.7835 55.16,3.8269 54.995,3.9138 54.83,4.0008 54.706,4.0966 54.624,4.2012 54.463,4.0782 54.265,3.9779 54.03,3.9001 53.794,3.8223 53.539,3.7835 53.264,3.7835 c -0.218,0 -0.436,0.0278 -0.655,0.0838 -0.218,0.0556 -0.416,0.1523 -0.591,0.2899 -0.167,0.1299 -0.288,0.2815 -0.365,0.4546 -0.076,0.1732 -0.114,0.3523 -0.114,0.5375 0,0.1812 0.038,0.3557 0.114,0.5233 0.077,0.1676 0.194,0.3146 0.352,0.4412 0.167,0.1337 0.357,0.2274 0.568,0.2815 0.211,0.054 0.427,0.0811 0.647,0.0813 0.2,-2e-4 0.394,-0.0268 0.581,-0.0799 0.187,-0.0532 0.36,-0.1278 0.519,-0.224 0.158,-0.0961 0.295,-0.2121 0.412,-0.3476 0.116,-0.1357 0.203,-0.2866 0.26,-0.4532 l 0.019,-0.055 c 0.025,0.0512 0.055,0.1523 0.09,0.3035 0.035,0.1511 0.052,0.3055 0.052,0.4632 0,0.0768 0.044,0.1134 0.13,0.1099 h 0.124 c 0.04,-2e-4 0.076,-0.0122 0.108,-0.0359 0.032,-0.0238 0.051,-0.0458 0.057,-0.0658 0.006,-0.0075 0.009,-0.0213 0.009,-0.0412 0,-0.2329 -0.035,-0.4587 -0.106,-0.6775 C 55.404,5.1541 55.31,4.9595 55.191,4.7893 55.354,4.32 55.456,4.0847 55.496,4.083 c 0.061,-2e-4 0.113,0.0144 0.157,0.0438 0.043,0.0292 0.065,0.0624 0.065,0.0991 0,0.0749 0.043,0.1125 0.13,0.1127 h 0.123 c 0.04,-2e-4 0.076,-0.0122 0.106,-0.0359 0.031,-0.0239 0.054,-0.0522 0.069,-0.085 z M 54.424,4.5145 C 54.412,4.5473 54.401,4.5729 54.393,4.5914 L 54.183,5.196 C 54.135,5.3296 54.082,5.4558 54.025,5.575 53.968,5.6941 53.902,5.799 53.828,5.8897 53.754,5.9804 53.671,6.0505 53.579,6.0999 53.487,6.1494 53.382,6.1741 53.264,6.1743 53.144,6.1741 53.027,6.1516 52.914,6.1068 52.801,6.0618 52.71,5.9946 52.643,5.905 52.556,5.7968 52.506,5.6748 52.492,5.5393 52.478,5.4036 52.471,5.2609 52.471,5.1108 c 0,-0.156 0.007,-0.3002 0.021,-0.433 0.014,-0.1329 0.062,-0.2496 0.144,-0.3502 0.064,-0.079 0.146,-0.1395 0.247,-0.1815 0.102,-0.0423 0.214,-0.0633 0.337,-0.0631 0.243,-2e-4 0.468,0.0397 0.675,0.1194 0.207,0.0797 0.383,0.1836 0.529,0.3121 z" /><path
                       id="path64"
                       style="fill:#000000;fill-opacity:1;fill-rule:evenodd;stroke:none"
                       d="M 58.39,4.0118 C 58.39,3.8547 58.378,3.6985 58.353,3.5431 58.329,3.3877 58.268,3.2418 58.171,3.1056 58.102,3.0062 58.009,2.93 57.894,2.8766 57.778,2.8231 57.652,2.7964 57.516,2.7964 c -0.131,0 -0.254,0.0267 -0.371,0.0802 -0.116,0.0534 -0.209,0.1296 -0.278,0.229 -0.097,0.1362 -0.157,0.2821 -0.182,0.4375 -0.024,0.1554 -0.037,0.3116 -0.037,0.4687 0,0.1591 0.013,0.3181 0.037,0.4767 0.025,0.1587 0.085,0.3072 0.182,0.4459 0.069,0.1001 0.162,0.1782 0.278,0.2338 0.115,0.0556 0.239,0.0834 0.371,0.0835 0.135,-10e-5 0.26,-0.0279 0.377,-0.0835 0.116,-0.0556 0.209,-0.1337 0.278,-0.2338 0.097,-0.1387 0.158,-0.2872 0.182,-0.4459 0.025,-0.1586 0.037,-0.3176 0.037,-0.4767 z m -0.374,0.0573 c 0,0.0686 0,0.141 -0.002,0.2174 C 58.013,4.3628 58.01,4.4375 58.005,4.5106 58,4.5836 57.991,4.6526 57.978,4.7175 57.964,4.7823 57.948,4.8377 57.929,4.8837 57.892,4.9577 57.836,5.0185 57.763,5.0659 57.69,5.1134 57.608,5.1371 57.516,5.1372 57.427,5.1371 57.346,5.1131 57.274,5.0651 57.201,5.0171 57.146,4.9566 57.109,4.8837 57.09,4.8377 57.074,4.7823 57.06,4.7175 57.047,4.6526 57.038,4.5836 57.033,4.5106 57.028,4.4375 57.025,4.3628 57.024,4.2865 57.022,4.2101 57.022,4.1377 57.022,4.0691 c 0,-0.0765 0,-0.157 0.002,-0.2414 10e-4,-0.0846 0.004,-0.1664 0.009,-0.2454 0.005,-0.0791 0.014,-0.154 0.027,-0.2249 0.014,-0.0709 0.03,-0.1303 0.049,-0.1782 0.035,-0.0797 0.089,-0.1452 0.163,-0.1964 0.073,-0.0513 0.155,-0.0769 0.244,-0.0768 0.093,-1e-4 0.177,0.0255 0.25,0.0768 0.074,0.0512 0.128,0.1167 0.163,0.1964 0.019,0.0479 0.035,0.1073 0.049,0.1782 0.013,0.0709 0.022,0.1458 0.027,0.2249 0.005,0.079 0.008,0.1608 0.009,0.2454 0.002,0.0844 0.002,0.1649 0.002,0.2414 z" /></g></g></g><g
                 transform="matrix(36.522,0,0,4.4099,75,2408.65)"
                 id="g66"><g
                   transform="scale(0.54761,4.5353)"
                   id="g68"><g
                     clip-path="url(#clipPath74)"
                     id="g70"><path
                       id="path76"
                       style="fill:#000000;fill-opacity:1;fill-rule:evenodd;stroke:none"
                       d="M 9.3698,11.891 H 11.108 V 11.07 H 9.3698 V 6.8385 H 11.82 V 6.018 H 1.8882 V 6.8385 H 4.3389 V 11.07 H 2.6007 v 0.821 h 1.7382 v 1.511 H 5.1836 C 5.4212,13.37 5.4374,13.284 5.2295,13.143 v -1.252 h 3.2496 v 1.511 H 9.3266 C 9.5641,13.37 9.5803,13.284 9.3698,13.143 Z M 2.1554,4.5065 C 3.3429,4.8493 4.3982,5.3108 5.3186,5.8884 L 5.9852,5.1111 C 6.104,4.9654 6.0149,4.9222 5.718,4.9816 4.768,4.52 3.7154,4.0747 2.5575,3.6429 Z M 8.4791,10.207 V 11.07 H 5.2295 v -0.863 z m 0,-1.6412 V 9.3863 H 5.2295 V 8.5658 Z m 0,-1.7273 V 7.7453 H 5.2295 V 6.8385 Z M 8.3468,5.8452 C 9.0891,5.4107 10.188,5.0517 11.642,4.7657 L 11.24,3.8588 C 9.7557,4.1746 8.5844,4.5929 7.7234,5.1111 Z" /><path
                       id="path78"
                       style="fill:#000000;fill-opacity:1;fill-rule:evenodd;stroke:none"
                       d="m 15.017,10.077 c 0.238,-0.032 0.254,-0.1185 0.046,-0.2589 V 8.0044 c 1.544,0.3725 3.058,0.8178 4.543,1.3387 L 20.183,8.6522 C 20.334,8.4201 20.245,8.3472 19.916,8.4363 18.345,7.945 16.726,7.5132 15.063,7.1407 V 5.2839 c 0,-0.2052 0.135,-0.305 0.4,-0.3023 h 4.453 c 0.329,-0.0027 0.521,0.1403 0.58,0.4318 L 20.718,6.2771 21.654,5.9748 21.387,4.9816 C 21.209,4.3473 20.823,4.0315 20.229,4.0315 h -5.344 c -0.564,0 -0.847,0.2726 -0.847,0.8205 v 5.225 z m 2.583,3.325 c 0.238,-0.032 0.254,-0.118 0.046,-0.259 v -1.166 h 4.008 V 9.4727 h -0.89 V 11.027 H 13.46 V 9.4727 h -0.891 v 2.5043 h 4.052 v 1.425 z" /><path
                       id="path80"
                       style="fill:#000000;fill-opacity:1;fill-rule:evenodd;stroke:none"
                       d="m 28.592,12.582 c 1.306,0.2 2.286,0.443 2.939,0.734 l 0.491,-0.82 c 0.119,-0.262 0.03,-0.319 -0.267,-0.173 -1.098,-0.232 -2.137,-0.392 -3.117,-0.475 v -1.814 h 3.919 V 9.2136 H 31.086 V 3.7724 H 30.195 V 9.2136 H 28.638 V 7.8749 c 0,-1.9028 -0.713,-3.3117 -2.138,-4.232 l -0.669,0.7773 c 1.279,0.7449 1.916,1.9271 1.916,3.541 V 12.884 Z M 26.9,11.027 V 7.2703 H 26.009 V 7.7021 H 24.006 V 6.493 c 0,-1.0958 -0.237,-2.0161 -0.712,-2.7638 l -0.802,0.6046 c 0.416,0.5722 0.624,1.3063 0.624,2.2024 V 11.027 Z M 26.009,8.5226 V 10.207 H 24.006 V 8.5226 Z m -3.25,3.6704 v 0.821 h 4.454 v -0.821 z" /><path
                       id="path82"
                       style="fill:#000000;fill-opacity:1;fill-rule:evenodd;stroke:none"
                       d="m 32.682,7.5294 c 1.752,0.9473 2.88,2.17 3.385,3.6706 h -2.985 v 0.82 h 3.206 c 0.092,0.343 0.165,0.861 0.224,1.555 L 37.67,13.359 C 37.789,13.24 37.745,13.17 37.535,13.143 L 37.314,12.02 h 5.344 V 11.2 h -5.522 c -0.119,-0.405 -0.251,-0.737 -0.403,-0.993 h 4.411 V 4.4634 c 0,-0.4616 -0.238,-0.691 -0.713,-0.691 h -1.026 l -0.221,0.8205 h 0.891 c 0.118,0 0.178,0.054 0.178,0.1728 V 5.9316 H 36.377 V 3.6429 H 35.486 V 8.3931 C 34.774,7.6697 34.018,7.0814 33.217,6.6225 Z m 3.695,0.1727 v -0.95 h 3.876 v 0.95 z m 3.876,0.8205 V 9.3863 H 36.377 V 8.5226 Z" /><path
                       id="path84"
                       style="fill:#000000;fill-opacity:1;fill-rule:evenodd;stroke:none"
                       d="M 52.3,9.6886 C 52.095,8.9383 51.709,8.5631 51.145,8.5658 H 49.452 C 48.891,8.5631 48.608,8.8357 48.608,9.3863 v 2.1157 h -1.423 v -0.518 c 0,-1.2981 -0.977,-2.2778 -2.936,-2.9364 l -0.446,0.8205 c 1.663,0.4858 2.492,1.1929 2.492,2.1159 v 0.518 h -2.046 v -1.468 h -1.023 v 2.289 h 4.27 v 1.209 h 0.979 c 0.238,-0.032 0.254,-0.119 0.043,-0.259 v -0.95 h 4.27 v -2.03 h -1.023 v 1.209 H 49.498 V 9.6886 c 0,-0.2051 0.135,-0.305 0.4,-0.3023 h 0.979 c 0.297,-0.0027 0.492,0.2132 0.578,0.6477 z M 52.966,4.852 v -0.95 h -9.872 v 0.95 h 4.447 V 6.7089 H 44.16 V 7.659 h 7.651 V 6.7089 H 48.429 V 4.852 Z" /><path
                       id="path86"
                       style="fill:#000000;fill-opacity:1;fill-rule:evenodd;stroke:none"
                       d="m 56.441,5.4998 c 0.03,0.9176 0.044,1.8326 0.044,2.7394 0,0.9069 -0.014,1.8058 -0.044,2.7018 l 0.667,-0.389 h 2.181 l 0.442,0.432 0.581,-0.561 -0.357,-0.303 c 0,-1.9024 0.017,-3.2977 0.044,-4.1884 L 59.378,5.5861 v 0.691 h -2.313 v -0.475 z m 0.624,4.7932 V 8.609 h 2.313 v 1.684 z m 0,-1.9431 V 6.5362 h 2.313 v 1.8137 z m -2.181,5.2251 c 0.683,-0.434 1.082,-0.737 1.201,-0.909 0.119,-0.173 0.178,-0.316 0.178,-0.43 0,-0.175 -0.059,-0.342 -0.178,-0.499 -0.119,-0.159 -0.192,-0.237 -0.221,-0.235 -0.089,-0.002 -0.178,0.157 -0.267,0.475 -0.149,0.429 -0.43,0.918 -0.845,1.469 z M 54.617,5.327 c 0,-0.4642 0.016,-0.923 0.046,-1.3818 L 53.95,3.6861 c 0.033,0.4318 0.046,1.8542 0.046,4.2724 0,2.4185 -0.013,3.8435 -0.046,4.2775 l 1.069,-0.518 -0.402,-0.259 z m 5.517,-0.5182 c 0.95,-0.1457 1.481,-0.197 1.6,-0.1538 0.119,0.0432 0.178,0.1646 0.178,0.3698 V 12.28 h -3.557 c -0.386,-0.003 -0.742,-0.046 -1.069,-0.13 l -0.399,0.389 h 4.936 l 0.445,0.432 0.624,-0.605 -0.356,-0.259 V 4.9816 c 0,-0.3779 -0.065,-0.6478 -0.2,-0.8205 C 62.201,3.9883 61.928,3.8156 61.513,3.6429 61.275,4.1314 60.816,4.4634 60.134,4.6361 Z" /><path
                       id="path88"
                       style="fill:#000000;fill-opacity:1;fill-rule:evenodd;stroke:none"
                       d="m 71.017,4.9335 c -0.56,0.0227 -1.087,0.0343 -1.582,0.0343 h -0.01 c -0.573,0 -1.179,-0.0116 -1.82,-0.0343 v 0.6526 h 0.683 l -1.294,2.0758 -1.37,-2.0561 v 0.0147 c 0,0.0325 0,0.0472 0,0.0442 0.061,-0.0135 0.122,-0.0264 0.183,-0.0393 0.101,-0.0135 0.2,-0.0233 0.298,-0.0298 0.097,-0.0067 0.227,-0.0098 0.389,-0.0095 V 4.9335 C 65.985,4.9562 65.51,4.9678 65.069,4.9678 h -0.137 c -0.414,0 -0.852,-0.0116 -1.314,-0.0343 v 0.6526 c 0.199,-3e-4 0.368,0.0013 0.508,0.0046 0.14,0.0031 0.276,0.0114 0.407,0.0249 0.061,0.0129 0.12,0.0233 0.177,0.0316 0.057,0.0079 0.089,0.0187 0.096,0.0322 l 1.769,2.6548 -1.9,3.0278 h -0.92 v 0.653 c 0.556,-0.024 1.083,-0.035 1.581,-0.035 h 0.011 c 0.572,0 1.175,0.011 1.809,0.035 v -0.653 h -0.688 l 1.021,-1.6342 1.077,1.6142 v -0.014 c 0,-0.027 10e-4,-0.04 0.005,-0.04 -0.061,0.006 -0.123,0.016 -0.187,0.03 -0.101,0.013 -0.201,0.023 -0.298,0.031 -0.098,0.008 -0.228,0.013 -0.39,0.013 v 0.653 c 0.543,-0.024 1.06,-0.035 1.552,-0.035 h 0.01 c 0.408,0 0.846,0.011 1.314,0.035 v -0.653 c -0.199,0 -0.368,-0.002 -0.508,-0.005 -0.14,-0.004 -0.276,-0.012 -0.407,-0.024 C 69.596,11.319 69.538,11.308 69.48,11.3 69.423,11.292 69.391,11.282 69.384,11.269 l -1.47,-2.2135 2.173,-3.4694 h 0.93 z" /><path
                       id="path90"
                       style="fill:#000000;fill-opacity:1;fill-rule:evenodd;stroke:none"
                       d="M 76.704,3.8902 C 76.704,3.8205 76.685,3.7595 76.647,3.7073 76.609,3.6551 76.561,3.612 76.502,3.5781 76.444,3.5443 76.38,3.5196 76.309,3.5041 76.238,3.4885 76.169,3.4807 76.101,3.4807 c -0.2,0 -0.383,0.0435 -0.548,0.1304 C 75.388,3.698 75.264,3.7938 75.182,3.8984 75.021,3.7755 74.823,3.6752 74.588,3.5974 74.352,3.5196 74.097,3.4807 73.822,3.4807 c -0.218,0 -0.436,0.0279 -0.655,0.0839 -0.218,0.0556 -0.415,0.1523 -0.591,0.2899 -0.167,0.1298 -0.288,0.2815 -0.364,0.4546 -0.076,0.1731 -0.114,0.3523 -0.114,0.5374 0,0.1812 0.038,0.3557 0.114,0.5233 0.076,0.1677 0.193,0.3147 0.351,0.4413 0.167,0.1336 0.357,0.2274 0.568,0.2815 0.211,0.0539 0.427,0.0811 0.647,0.0812 0.2,-10e-5 0.395,-0.0268 0.582,-0.0798 0.187,-0.0533 0.359,-0.1278 0.518,-0.224 0.158,-0.0962 0.296,-0.2121 0.412,-0.3476 0.116,-0.1357 0.203,-0.2867 0.26,-0.4533 l 0.019,-0.055 c 0.025,0.0512 0.055,0.1524 0.09,0.3035 0.035,0.1512 0.052,0.3056 0.052,0.4633 0,0.0767 0.044,0.1133 0.13,0.1099 h 0.124 c 0.04,-2e-4 0.076,-0.0122 0.108,-0.0359 C 76.105,5.831 76.124,5.809 76.13,5.7891 76.136,5.7815 76.139,5.7678 76.139,5.7479 76.139,5.515 76.104,5.2891 76.033,5.0703 75.962,4.8513 75.868,4.6567 75.75,4.4865 75.912,4.0173 76.014,3.782 76.054,3.7803 c 0.061,-2e-4 0.114,0.0144 0.157,0.0438 0.043,0.0292 0.065,0.0623 0.065,0.0991 0,0.0749 0.043,0.1125 0.13,0.1126 h 0.123 c 0.041,-10e-5 0.076,-0.0121 0.107,-0.0359 0.03,-0.0238 0.053,-0.0522 0.068,-0.085 z m -1.722,0.3215 c -0.012,0.0328 -0.023,0.0584 -0.031,0.077 l -0.21,0.6045 C 74.693,5.0269 74.64,5.1531 74.583,5.2723 74.526,5.3913 74.46,5.4963 74.386,5.5869 74.312,5.6776 74.23,5.7477 74.138,5.7972 74.046,5.8466 73.941,5.8714 73.822,5.8715 73.702,5.8714 73.585,5.8489 73.472,5.804 73.359,5.759 73.268,5.6919 73.201,5.6022 73.114,5.494 73.064,5.3721 73.05,5.2366 73.036,5.1009 73.03,4.9582 73.03,4.808 c 0,-0.1559 0.006,-0.3002 0.02,-0.4329 0.014,-0.133 0.062,-0.2496 0.144,-0.3502 0.064,-0.0791 0.146,-0.1395 0.248,-0.1816 0.101,-0.0422 0.213,-0.0632 0.336,-0.063 0.243,-2e-4 0.468,0.0397 0.675,0.1193 0.207,0.0797 0.383,0.1836 0.529,0.3121 z" /><path
                       id="path92"
                       style="fill:#000000;fill-opacity:1;fill-rule:evenodd;stroke:none"
                       d="M 84.747,10.725 C 84.45,9.9153 83.975,9.1542 83.322,8.4363 l -0.667,0.7773 c 1.01,0.9774 1.649,2.3724 1.914,4.1884 L 85.505,13.1 c 0.268,-0.119 0.251,-0.205 -0.045,-0.259 -0.087,-0.405 -0.206,-0.837 -0.357,-1.296 H 88.31 L 88.088,5.6725 C 88.059,4.52 87.584,3.9452 86.663,3.9452 h -1.247 l -0.135,0.8205 h 1.158 c 0.416,-0.0027 0.64,0.2564 0.67,0.7773 l 0.221,5.182 z m 0.534,-4.0161 c -0.415,0.5722 -0.874,1.0904 -1.379,1.5546 l 0.756,0.7773 c 0.594,-0.5209 1.069,-1.0256 1.425,-1.5114 z m -5.255,4.8361 c 0.179,0.546 0.343,1.177 0.492,1.901 l 1.068,-0.389 c 0.119,-0.119 0.076,-0.189 -0.134,-0.216 -0.087,-0.378 -0.251,-0.81 -0.489,-1.296 h 1.646 V 4.4202 h -0.89 v 0.5182 h -1.96 V 4.0747 h -0.89 v 7.4703 z m 1.693,-0.82 h -1.96 V 8.8249 h 1.96 z m 0,-2.7206 h -1.96 V 5.7589 h 1.96 z" /><path
                       id="path94"
                       style="fill:#000000;fill-opacity:1;fill-rule:evenodd;stroke:none"
                       d="m 96.095,9.9477 c -0.146,0.5153 -0.34,1.0043 -0.578,1.4683 h -0.712 c -0.267,-0.578 -0.61,-1.053 -1.026,-1.4251 l -0.667,0.6481 c 0.772,0.774 1.247,1.724 1.426,2.85 l 0.979,-0.259 c 0.119,-0.119 0.076,-0.189 -0.135,-0.216 -0.086,-0.292 -0.175,-0.551 -0.267,-0.778 h 3.474 v -0.82 h -2.138 c 0.27,-0.348 0.507,-0.737 0.713,-1.166 z m -4.051,1.4683 c 0.237,-0.405 0.432,-0.823 0.577,-1.252 L 91.552,9.9045 C 91.466,10.45 91.331,10.952 91.153,11.416 H 90.708 C 90.322,10.693 89.876,10.131 89.372,9.7318 l -0.624,0.8202 c 0.98,0.832 1.558,1.841 1.736,3.023 l 0.979,-0.345 c 0.119,-0.119 0.076,-0.189 -0.132,-0.216 -0.089,-0.262 -0.178,-0.521 -0.267,-0.778 h 2.494 v -0.82 z M 96.718,4.9384 V 6.2339 H 94.224 V 4.9384 Z m -3.384,0 V 6.2339 H 90.84 V 4.9384 Z m 0,2.116 V 8.3067 H 90.84 V 7.0544 Z m 3.384,0 V 8.3067 H 94.224 V 7.0544 Z M 94.181,9.9477 C 94.419,9.9153 94.435,9.8289 94.224,9.6886 V 9.1272 h 3.385 V 3.7724 H 96.718 V 4.1179 H 90.84 V 3.7292 h -0.891 v 5.398 h 3.385 v 0.8205 z" /><path
                       id="path96"
                       style="fill:#000000;fill-opacity:1;fill-rule:evenodd;stroke:none"
                       d="m 103.21,9.3863 v 4.1027 h 0.94 c 0.29,-0.06 0.31,-0.176 0.04,-0.346 v -1.338 h 3.61 v -0.907 h -3.61 V 9.3863 h 4.68 V 8.4794 h -4.68 V 3.5997 h -0.98 v 4.8797 h -4.094 v 0.9069 z m 2.01,-1.5546 c 0.89,-0.4345 1.9,-1.0688 3.02,-1.9001 l -0.62,-0.9068 c -1.09,0.8906 -2.07,1.5519 -2.94,1.9864 z" /><path
                       id="path98"
                       style="fill:#000000;fill-opacity:1;fill-rule:evenodd;stroke:none"
                       d="m 116.13,8.4843 c -0.01,0.0194 -0.02,0.0341 -0.02,0.0442 0,0.0325 0.09,0.088 0.27,0.1669 0.14,0.0585 0.23,0.088 0.25,0.0883 0.03,-3e-4 0.05,-0.0199 0.07,-0.0589 0.45,-1.1093 1.15,-2.0745 2.09,-2.8953 -0.16,-0.0822 -0.3,-0.195 -0.42,-0.3386 -0.07,-0.0822 -0.11,-0.1229 -0.13,-0.1226 -0.03,-3e-4 -0.08,0.0325 -0.13,0.0981 -0.81,0.8109 -1.47,1.8169 -1.98,3.0179 z m -6.24,-2.7971 c 0.78,0.6214 1.39,1.3918 1.81,2.3113 0.17,0.3564 0.28,0.6475 0.32,0.8735 0.28,-0.069 0.49,-0.1313 0.62,-0.1865 0.09,-0.0395 0.13,-0.0837 0.13,-0.1325 0,-0.046 -0.04,-0.0999 -0.11,-0.1619 -0.06,-0.0494 -0.14,-0.1834 -0.24,-0.4024 -0.5,-1.0701 -1.11,-1.9353 -1.82,-2.5959 -0.06,-0.0592 -0.11,-0.0886 -0.14,-0.0883 -0.02,-3e-4 -0.07,0.034 -0.14,0.103 -0.13,0.111 -0.27,0.2043 -0.43,0.2797 z m -0.16,3.4007 c 1.04,0.8208 1.79,1.9271 2.27,3.3171 0.05,0.141 0.09,0.317 0.1,0.53 0.29,-0.053 0.52,-0.107 0.68,-0.162 0.08,-0.026 0.12,-0.062 0.12,-0.108 0,-0.039 -0.02,-0.083 -0.07,-0.132 -0.07,-0.066 -0.13,-0.159 -0.18,-0.28 -0.18,-0.452 -0.32,-0.79 -0.43,-1.016 h 5.34 c 0.11,0 0.2,0.013 0.25,0.04 0.05,0.019 0.09,0.029 0.13,0.029 0.06,0 0.17,-0.071 0.33,-0.211 0.13,-0.118 0.19,-0.205 0.19,-0.26 0,-0.066 -0.02,-0.113 -0.07,-0.142 -0.08,-0.05 -0.16,-0.133 -0.21,-0.251 -0.23,-0.4613 -0.5,-0.8867 -0.82,-1.2755 -0.07,-0.0755 -0.11,-0.1132 -0.12,-0.1129 -0.02,-3e-4 -0.07,0.0276 -0.16,0.0834 -0.11,0.0684 -0.25,0.1258 -0.41,0.1718 0.37,0.4152 0.67,0.8602 0.9,1.3352 h -2.85 V 6.3399 l 0.01,-1.2857 c 0,-0.3404 -0.09,-0.5858 -0.27,-0.7361 -0.18,-0.1408 -0.62,-0.211 -1.32,-0.211 -0.04,0 -0.11,0 -0.21,0 -0.1,0 -0.17,0.0098 -0.19,0.0294 -0.01,0.0163 -0.03,0.0669 -0.06,0.1522 -0.05,0.1929 -0.13,0.3643 -0.23,0.5152 0.3,-0.0429 0.63,-0.0641 1,-0.0638 0.24,-3e-4 0.4,0.039 0.49,0.1178 0.07,0.0684 0.11,0.1779 0.11,0.3288 v 5.4573 h -2.16 c -0.39,-0.6878 -0.88,-1.3076 -1.47,-1.8603 -0.06,-0.0656 -0.11,-0.0985 -0.13,-0.0982 -0.01,-3e-4 -0.06,0.0356 -0.13,0.108 -0.13,0.1337 -0.27,0.2319 -0.43,0.2944 z" /><path
                       id="path100"
                       style="fill:#000000;fill-opacity:1;fill-rule:evenodd;stroke:none"
                       d="m 124.44,7.6158 c 0.03,0.8313 0.04,1.6814 0.04,2.5452 0,0.864 -0.01,1.727 -0.04,2.594 l 0.66,-0.346 h 3.08 l 0.44,0.432 0.67,-0.648 -0.44,-0.259 c 0,-2.2481 0.01,-3.5571 0.04,-3.9296 l -0.62,-0.2159 v 0.5614 h -3.21 V 7.8317 Z m 0.62,4.5342 V 8.609 h 3.21 v 3.541 z m 0.62,-4.6206 0.85,-0.6909 -0.4,-0.1296 C 125,5.2083 123.89,4.1881 122.79,3.6429 l -0.05,0.1727 c 0.75,0.5749 1.37,1.1903 1.88,1.8542 0.5,0.6613 0.86,1.282 1.06,1.8596 z m 1.56,-0.1727 c 1.22,-1.0958 1.9,-1.811 2.05,-2.1403 0.15,-0.332 0.22,-0.583 0.22,-0.753 0,-0.1728 -0.04,-0.3239 -0.13,-0.4535 -0.09,-0.1295 -0.16,-0.1943 -0.22,-0.1943 -0.06,0 -0.14,0.1134 -0.23,0.3455 -0.14,0.3724 -0.32,0.7746 -0.53,1.2064 -0.21,0.4319 -0.62,1.0499 -1.25,1.8596 z m -5.03,1.6841 c 0,-2.7097 0.01,-4.4209 0.04,-5.1388 l -0.66,-0.3887 c 0.03,0.8637 0.04,2.5748 0.04,5.1389 -0.62,-1.2416 -1.36,-2.2348 -2.23,-2.9797 l -0.08,0.1296 c 0.44,0.5721 0.86,1.2415 1.26,2.0053 0.41,0.7611 0.72,1.533 0.96,2.3126 h -0.67 c -0.38,-0.002 -0.74,-0.045 -1.07,-0.1291 l -0.4,0.3891 h 2.23 v 1.943 c -0.77,-0.119 -1.38,-0.189 -1.83,-0.216 v 0.173 c 0.66,0.113 1.25,0.261 1.79,0.45 0.53,0.187 1.03,0.44 1.51,0.759 l 0.62,-0.778 c -0.35,-0.002 -0.86,-0.089 -1.51,-0.259 V 10.38 h 0.67 l 0.53,0.518 0.76,-0.778 h -1.96 V 9.2136 c 0.71,-0.3185 1.15,-0.5857 1.31,-0.8016 0.17,-0.216 0.25,-0.3806 0.25,-0.4939 0,-0.1458 -0.05,-0.2915 -0.16,-0.4346 -0.1,-0.1457 -0.17,-0.2159 -0.2,-0.2132 -0.12,-0.0027 -0.22,0.1403 -0.31,0.4318 -0.15,0.4292 -0.44,0.8745 -0.89,1.3387 z" /></g></g></g><path
                 id="path102"
                 style="fill:#de0a11;fill-opacity:0.39216003;fill-rule:evenodd;stroke:none"
                 d="m 1780.59,857.4 h 847.5 v 1575.87 h -847.5 z" /><path
                 id="path104"
                 style="fill:none;stroke:#000000;stroke-width:15;stroke-linecap:round;stroke-linejoin:round;stroke-miterlimit:10;stroke-dasharray:none;stroke-opacity:1"
                 d="m 1780.59,857.4 h 847.5 v 1575.87 h -847.5 z" /><path
                 id="path106"
                 style="fill:#000000;fill-opacity:1;fill-rule:nonzero;stroke:none"
                 d="m 1937.93,683.03 h 532.82 v -11.25 h -532.82 z m -157.34,-5.63 157.5,-33.75 v 28.13 11.25 28.12 z m 847.5,0 -157.5,33.75 v -28.12 -11.25 -28.13 z" /><path
                 id="path108"
                 style="fill:none;stroke:#000000;stroke-width:7.5;stroke-linecap:round;stroke-linejoin:round;stroke-miterlimit:10;stroke-dasharray:none;stroke-opacity:1"
                 d="m 1780.59,977.4 v -600" /><path
                 id="path110"
                 style="fill:none;stroke:#000000;stroke-width:7.5;stroke-linecap:round;stroke-linejoin:round;stroke-miterlimit:10;stroke-dasharray:none;stroke-opacity:1"
                 d="m 2628.09,977.4 v -600" /><g
                 transform="matrix(18.498,0,0,4.4939,1608.88,89.996)"
                 id="g112"><g
                   transform="scale(1.0812,4.4504)"
                   id="g114"><g
                     clip-path="url(#clipPath120)"
                     id="g116"><path
                       id="path122"
                       style="fill:#000000;fill-opacity:1;fill-rule:evenodd;stroke:none"
                       d="M 9.2753,5.2362 C 8.7158,5.2589 8.1886,5.2706 7.6933,5.2706 H 7.6832 c -0.573,0 -1.1793,-0.0117 -1.8197,-0.0344 V 5.8889 H 6.5459 L 5.2519,7.9646 3.8822,5.9085 v 0.0147 c 0,0.0325 0,0.0473 0,0.0442 C 3.9429,5.9539 4.0034,5.941 4.0641,5.9281 4.1653,5.9146 4.265,5.9048 4.3625,5.8984 4.46,5.8916 4.5898,5.8886 4.7514,5.8889 V 5.2362 C 4.2429,5.2589 3.7678,5.2706 3.3262,5.2706 H 3.1897 c -0.4144,0 -0.8523,-0.0117 -1.3142,-0.0344 v 0.6527 c 0.199,-3e-4 0.3683,0.0012 0.5082,0.0046 0.1398,0.0031 0.2754,0.0113 0.4067,0.0248 0.0607,0.0129 0.1199,0.0233 0.1769,0.0316 0.0574,0.008 0.0893,0.0187 0.096,0.0322 L 4.8324,8.6369 2.9321,11.665 H 2.0119 v 0.652 C 2.568,12.294 3.0952,12.283 3.5939,12.283 H 3.604 c 0.573,0 1.1762,0.011 1.8096,0.034 V 11.665 H 4.7263 l 1.021,-1.634 1.0765,1.614 V 11.63 c 0,-0.026 0.0018,-0.039 0.0052,-0.039 -0.0607,0.006 -0.123,0.016 -0.1871,0.03 -0.1009,0.012 -0.2003,0.023 -0.2981,0.031 -0.0975,0.008 -0.2273,0.012 -0.3892,0.013 v 0.652 c 0.5426,-0.023 1.0596,-0.034 1.5516,-0.034 h 0.0101 c 0.4079,0 0.8459,0.011 1.3142,0.034 V 11.665 C 8.6318,11.664 8.4625,11.663 8.3226,11.659 8.1828,11.656 8.0472,11.648 7.9156,11.635 7.8549,11.622 7.796,11.611 7.7387,11.603 7.6816,11.595 7.6494,11.584 7.6427,11.571 L 6.1717,9.3583 8.3453,5.8889 h 0.93 z" /><path
                       id="path124"
                       style="fill:#000000;fill-opacity:1;fill-rule:evenodd;stroke:none"
                       d="M 14.688,4.1929 C 14.688,4.1232 14.669,4.0622 14.631,4.01 14.593,3.9578 14.544,3.9147 14.486,3.8809 14.428,3.847 14.364,3.8223 14.293,3.8068 14.222,3.7912 14.153,3.7835 14.085,3.7835 c -0.2,0 -0.383,0.0434 -0.548,0.1303 -0.165,0.087 -0.288,0.1828 -0.371,0.2874 -0.16,-0.123 -0.358,-0.2233 -0.594,-0.3011 -0.236,-0.0778 -0.491,-0.1166 -0.765,-0.1166 -0.218,0 -0.436,0.0278 -0.655,0.0838 -0.219,0.0556 -0.416,0.1523 -0.591,0.2899 -0.167,0.1299 -0.288,0.2815 -0.365,0.4546 -0.076,0.1732 -0.114,0.3523 -0.114,0.5375 0,0.1812 0.038,0.3557 0.114,0.5233 0.077,0.1676 0.194,0.3146 0.352,0.4412 0.167,0.1337 0.356,0.2274 0.568,0.2815 0.211,0.054 0.426,0.0811 0.646,0.0813 0.201,-2e-4 0.395,-0.0268 0.582,-0.0799 0.187,-0.0532 0.359,-0.1278 0.518,-0.224 0.159,-0.0961 0.296,-0.2121 0.412,-0.3476 0.116,-0.1357 0.203,-0.2866 0.26,-0.4532 l 0.019,-0.055 c 0.025,0.0512 0.055,0.1523 0.09,0.3035 0.035,0.1511 0.053,0.3055 0.053,0.4632 0,0.0768 0.043,0.1134 0.129,0.1099 h 0.124 c 0.04,-2e-4 0.076,-0.0122 0.108,-0.0359 0.032,-0.0238 0.051,-0.0458 0.057,-0.0658 0.006,-0.0075 0.009,-0.0213 0.009,-0.0412 0,-0.2329 -0.035,-0.4587 -0.106,-0.6775 C 13.946,5.1541 13.852,4.9595 13.733,4.7893 13.896,4.32 13.998,4.0847 14.038,4.083 c 0.061,-2e-4 0.113,0.0144 0.157,0.0438 0.043,0.0292 0.065,0.0624 0.065,0.0991 0,0.0749 0.043,0.1125 0.13,0.1127 h 0.123 c 0.04,-2e-4 0.076,-0.0122 0.106,-0.0359 0.031,-0.0239 0.054,-0.0522 0.069,-0.085 z M 12.966,4.5145 C 12.954,4.5473 12.943,4.5729 12.935,4.5914 L 12.726,5.196 C 12.677,5.3296 12.624,5.4558 12.567,5.575 12.51,5.6941 12.445,5.799 12.371,5.8897 12.297,5.9804 12.214,6.0505 12.122,6.0999 12.03,6.1494 11.925,6.1741 11.807,6.1743 11.686,6.1741 11.57,6.1516 11.456,6.1068 11.343,6.0618 11.253,5.9946 11.185,5.905 11.099,5.7968 11.049,5.6748 11.035,5.5393 11.021,5.4036 11.014,5.2609 11.014,5.1108 c 0,-0.156 0.007,-0.3002 0.021,-0.433 0.014,-0.1329 0.061,-0.2496 0.144,-0.3502 0.063,-0.079 0.146,-0.1395 0.247,-0.1815 0.102,-0.0423 0.214,-0.0633 0.336,-0.0631 0.243,-2e-4 0.468,0.0397 0.675,0.1194 0.207,0.0797 0.384,0.1836 0.529,0.3121 z" /><path
                       id="path126"
                       style="fill:#000000;fill-opacity:1;fill-rule:evenodd;stroke:none"
                       d="M 16.931,4.0118 C 16.931,3.8547 16.918,3.6985 16.894,3.5431 16.869,3.3877 16.809,3.2418 16.712,3.1056 16.643,3.0062 16.55,2.93 16.434,2.8766 16.319,2.8231 16.193,2.7964 16.057,2.7964 c -0.131,0 -0.255,0.0267 -0.371,0.0802 -0.116,0.0534 -0.209,0.1296 -0.278,0.229 -0.097,0.1362 -0.158,0.2821 -0.182,0.4375 -0.025,0.1554 -0.037,0.3116 -0.037,0.4687 0,0.1591 0.012,0.3181 0.037,0.4767 0.024,0.1587 0.085,0.3072 0.182,0.4459 0.069,0.1001 0.161,0.1782 0.277,0.2338 0.116,0.0556 0.24,0.0834 0.372,0.0835 0.135,-10e-5 0.26,-0.0279 0.376,-0.0835 0.117,-0.0556 0.21,-0.1337 0.279,-0.2338 0.097,-0.1387 0.157,-0.2872 0.182,-0.4459 0.024,-0.1586 0.037,-0.3176 0.037,-0.4767 z m -0.374,0.0573 c 0,0.0686 -10e-4,0.141 -0.002,0.2174 -0.001,0.0763 -0.004,0.151 -0.009,0.2241 -0.005,0.073 -0.014,0.142 -0.028,0.2069 C 16.505,4.7823 16.489,4.8377 16.47,4.8837 16.432,4.9577 16.377,5.0185 16.304,5.0659 16.231,5.1134 16.149,5.1371 16.057,5.1372 15.968,5.1371 15.887,5.1131 15.815,5.0651 15.742,5.0171 15.687,4.9566 15.649,4.8837 15.631,4.8377 15.614,4.7823 15.601,4.7175 15.588,4.6526 15.579,4.5836 15.574,4.5106 15.569,4.4375 15.566,4.3628 15.564,4.2865 15.563,4.2101 15.563,4.1377 15.563,4.0691 c 0,-0.0765 0,-0.157 10e-4,-0.2414 0.002,-0.0846 0.005,-0.1664 0.01,-0.2454 0.005,-0.0791 0.014,-0.154 0.027,-0.2249 0.013,-0.0709 0.03,-0.1303 0.048,-0.1782 0.036,-0.0797 0.09,-0.1452 0.164,-0.1964 0.073,-0.0513 0.155,-0.0769 0.244,-0.0768 0.093,-1e-4 0.176,0.0255 0.25,0.0768 0.074,0.0512 0.128,0.1167 0.163,0.1964 0.019,0.0479 0.035,0.1073 0.048,0.1782 0.014,0.0709 0.023,0.1458 0.028,0.2249 0.005,0.079 0.008,0.1608 0.009,0.2454 0.001,0.0844 0.002,0.1649 0.002,0.2414 z" /><path
                       id="path128"
                       style="fill:#000000;fill-opacity:1;fill-rule:evenodd;stroke:none"
                       d="M 24.921,11.028 C 24.625,10.218 24.15,9.4569 23.496,8.739 L 22.83,9.5163 c 1.009,0.9767 1.649,2.3727 1.913,4.1887 l 0.937,-0.302 c 0.267,-0.119 0.251,-0.205 -0.046,-0.259 -0.086,-0.405 -0.205,-0.837 -0.356,-1.296 h 3.206 L 28.263,5.9753 C 28.233,4.8228 27.758,4.2479 26.838,4.2479 h -1.247 l -0.135,0.8205 h 1.158 c 0.415,-0.0027 0.639,0.2564 0.669,0.7773 l 0.221,5.1823 z M 25.456,7.0117 C 25.04,7.5838 24.581,8.102 24.077,8.5663 l 0.755,0.7773 C 25.426,8.8227 25.901,8.318 26.257,7.8321 Z m -5.255,4.8363 c 0.178,0.545 0.343,1.177 0.491,1.9 l 1.069,-0.388 c 0.119,-0.119 0.076,-0.189 -0.135,-0.216 -0.086,-0.378 -0.251,-0.81 -0.488,-1.296 h 1.646 V 4.7229 H 21.893 V 5.2411 H 19.934 V 4.3775 h -0.891 v 7.4705 z m 1.692,-0.82 H 19.934 V 9.1277 h 1.959 z m 0,-2.7208 H 19.934 V 6.0616 h 1.959 z" /><path
                       id="path130"
                       style="fill:#000000;fill-opacity:1;fill-rule:evenodd;stroke:none"
                       d="m 29.144,4.8957 c 1.754,0.4588 2.629,1.2793 2.629,2.4614 v 0.9932 h -2.85 v 0.9501 h 2.85 v 2.6346 h -2.184 v 0.95 h 8.64 v -0.95 H 36.137 V 9.3004 h 2.761 V 8.3503 H 36.137 V 4.0752 H 35.111 V 8.3503 H 32.796 V 7.3571 c 0,-1.6733 -1.069,-2.8231 -3.207,-3.4547 z m 3.652,7.0393 V 9.3004 h 2.315 v 2.6346 z" /><path
                       id="path132"
                       style="fill:#000000;fill-opacity:1;fill-rule:evenodd;stroke:none"
                       d="M 42.319,13.403 C 42.23,13.141 42.065,12.895 41.828,12.669 h 2.183 c 0.208,0.459 0.357,0.831 0.446,1.122 l 0.89,-0.172 C 45.466,13.5 45.423,13.43 45.212,13.403 l -0.356,-0.734 h 3.563 v -0.691 h -3.695 v -0.562 h 2.982 v -0.691 h -2.982 v -0.561 h 2.982 V 9.4731 H 44.724 V 8.8254 h 4.008 V 8.1344 H 44.724 V 7.4867 h 4.364 V 6.6662 h -3.473 c 0.95,-0.664 2.167,-1.1552 3.651,-1.4683 L 48.953,4.3343 c -1.662,0.4021 -3.071,1.12 -4.229,2.1592 V 3.9456 H 43.833 V 6.4503 C 42.913,5.5272 41.442,4.7796 39.423,4.2047 l -0.31,0.8205 c 1.514,0.3725 2.79,0.9177 3.83,1.641 H 39.38 v 0.8205 h 4.453 v 0.6477 h -1.56 -1.557 V 11.2 c -0.267,-0.291 -0.594,-0.577 -0.98,-0.863 l -0.491,0.604 c 1.128,0.891 1.916,1.868 2.362,2.937 l 0.844,-0.259 C 42.57,13.5 42.527,13.43 42.319,13.403 Z M 41.472,9.4731 V 8.8254 h 2.361 v 0.6477 z m 0,1.2519 v -0.561 h 2.361 v 0.561 z m 0,1.253 v -0.562 h 2.361 v 0.562 z" /><path
                       id="path134"
                       style="fill:#000000;fill-opacity:1;fill-rule:evenodd;stroke:none"
                       d="m 56.545,8.7351 c 0,-0.4779 -0.07,-0.9444 -0.212,-1.3989 C 56.191,6.8814 55.954,6.4741 55.62,6.1146 55.3,5.784 54.926,5.5368 54.496,5.3733 54.067,5.2098 53.619,5.1283 53.154,5.1283 c -0.464,0 -0.912,0.0815 -1.341,0.245 -0.43,0.1635 -0.805,0.4107 -1.125,0.7413 -0.333,0.3564 -0.57,0.7628 -0.712,1.2192 -0.142,0.4563 -0.212,0.9234 -0.212,1.4013 0,0.4904 0.069,0.967 0.207,1.4299 0.138,0.463 0.377,0.878 0.717,1.245 0.317,0.343 0.691,0.597 1.122,0.762 0.431,0.165 0.88,0.248 1.344,0.248 0.465,0 0.913,-0.083 1.344,-0.248 0.432,-0.165 0.806,-0.419 1.122,-0.762 0.341,-0.367 0.58,-0.781 0.718,-1.242 0.138,-0.4616 0.207,-0.9391 0.207,-1.4329 z m -1.763,0.1815 c 0,0.3791 -0.018,0.753 -0.054,1.1214 -0.035,0.368 -0.145,0.717 -0.33,1.048 -0.132,0.222 -0.305,0.404 -0.521,0.546 -0.216,0.143 -0.456,0.214 -0.723,0.214 -0.262,0 -0.502,-0.072 -0.72,-0.216 C 52.217,11.486 52.043,11.305 51.911,11.086 51.726,10.758 51.616,10.41 51.58,10.04 51.545,9.6702 51.527,9.2957 51.527,8.9166 c 0,-0.4125 0.017,-0.8198 0.051,-1.2222 0.033,-0.4024 0.145,-0.7817 0.333,-1.1381 0.132,-0.2423 0.304,-0.4414 0.518,-0.5966 0.215,-0.1555 0.456,-0.2331 0.725,-0.2328 0.27,-3e-4 0.512,0.0773 0.726,0.2328 0.214,0.1552 0.386,0.3543 0.518,0.5966 0.185,0.3594 0.295,0.7397 0.33,1.1406 0.036,0.4005 0.054,0.8072 0.054,1.2197 z" /><path
                       id="path136"
                       style="fill:#000000;fill-opacity:1;fill-rule:evenodd;stroke:none"
                       d="M 62.527,4.1929 C 62.527,4.1232 62.509,4.0622 62.471,4.01 62.432,3.9578 62.384,3.9147 62.326,3.8809 62.268,3.847 62.204,3.8223 62.133,3.8068 62.062,3.7912 61.993,3.7835 61.925,3.7835 c -0.2,0 -0.383,0.0434 -0.548,0.1303 -0.165,0.087 -0.288,0.1828 -0.371,0.2874 -0.16,-0.123 -0.358,-0.2233 -0.594,-0.3011 -0.236,-0.0778 -0.491,-0.1166 -0.766,-0.1166 -0.217,0 -0.435,0.0278 -0.654,0.0838 -0.219,0.0556 -0.416,0.1523 -0.591,0.2899 -0.167,0.1299 -0.288,0.2815 -0.365,0.4546 -0.076,0.1732 -0.114,0.3523 -0.114,0.5375 0,0.1812 0.038,0.3557 0.114,0.5233 0.077,0.1676 0.194,0.3146 0.352,0.4412 0.167,0.1337 0.356,0.2274 0.567,0.2815 0.212,0.054 0.427,0.0811 0.647,0.0813 0.201,-2e-4 0.395,-0.0268 0.582,-0.0799 0.187,-0.0532 0.359,-0.1278 0.518,-0.224 0.158,-0.0961 0.296,-0.2121 0.412,-0.3476 0.116,-0.1357 0.203,-0.2866 0.26,-0.4532 l 0.019,-0.055 c 0.025,0.0512 0.055,0.1523 0.09,0.3035 0.035,0.1511 0.052,0.3055 0.052,0.4632 0,0.0768 0.044,0.1134 0.13,0.1099 h 0.124 c 0.04,-2e-4 0.076,-0.0122 0.108,-0.0359 0.031,-0.0238 0.051,-0.0458 0.057,-0.0658 0.006,-0.0075 0.009,-0.0213 0.009,-0.0412 0,-0.2329 -0.035,-0.4587 -0.106,-0.6775 C 61.786,5.1541 61.692,4.9595 61.573,4.7893 61.736,4.32 61.838,4.0847 61.878,4.083 c 0.061,-2e-4 0.113,0.0144 0.157,0.0438 0.043,0.0292 0.065,0.0624 0.065,0.0991 0,0.0749 0.043,0.1125 0.13,0.1127 h 0.123 c 0.04,-2e-4 0.076,-0.0122 0.106,-0.0359 0.031,-0.0239 0.054,-0.0522 0.068,-0.085 z M 60.806,4.5145 C 60.794,4.5473 60.783,4.5729 60.775,4.5914 L 60.566,5.196 C 60.517,5.3296 60.464,5.4558 60.407,5.575 60.35,5.6941 60.285,5.799 60.211,5.8897 60.137,5.9804 60.054,6.0505 59.962,6.0999 59.87,6.1494 59.765,6.1741 59.646,6.1743 59.526,6.1741 59.409,6.1516 59.296,6.1068 59.183,6.0618 59.093,5.9946 59.025,5.905 58.939,5.7968 58.889,5.6748 58.875,5.5393 58.861,5.4036 58.854,5.2609 58.854,5.1108 c 0,-0.156 0.007,-0.3002 0.021,-0.433 0.014,-0.1329 0.061,-0.2496 0.144,-0.3502 0.063,-0.079 0.146,-0.1395 0.247,-0.1815 0.102,-0.0423 0.213,-0.0633 0.336,-0.0631 0.243,-2e-4 0.468,0.0397 0.675,0.1194 0.207,0.0797 0.384,0.1836 0.529,0.3121 z" /><path
                       id="path138"
                       style="fill:#000000;fill-opacity:1;fill-rule:evenodd;stroke:none"
                       d="M 64.771,4.0118 C 64.771,3.8547 64.758,3.6985 64.734,3.5431 64.709,3.3877 64.649,3.2418 64.552,3.1056 64.483,3.0062 64.39,2.93 64.274,2.8766 64.159,2.8231 64.033,2.7964 63.897,2.7964 c -0.131,0 -0.255,0.0267 -0.371,0.0802 -0.116,0.0534 -0.209,0.1296 -0.278,0.229 -0.097,0.1362 -0.158,0.2821 -0.182,0.4375 -0.025,0.1554 -0.037,0.3116 -0.037,0.4687 0,0.1591 0.012,0.3181 0.037,0.4767 0.024,0.1587 0.085,0.3072 0.182,0.4459 0.069,0.1001 0.161,0.1782 0.277,0.2338 0.116,0.0556 0.24,0.0834 0.372,0.0835 0.135,-10e-5 0.26,-0.0279 0.376,-0.0835 0.117,-0.0556 0.21,-0.1337 0.279,-0.2338 0.097,-0.1387 0.157,-0.2872 0.182,-0.4459 0.024,-0.1586 0.037,-0.3176 0.037,-0.4767 z m -0.374,0.0573 c 0,0.0686 -0.001,0.141 -0.002,0.2174 -10e-4,0.0763 -0.004,0.151 -0.009,0.2241 -0.005,0.073 -0.014,0.142 -0.028,0.2069 C 64.345,4.7823 64.329,4.8377 64.31,4.8837 64.272,4.9577 64.217,5.0185 64.144,5.0659 64.071,5.1134 63.989,5.1371 63.897,5.1372 63.808,5.1371 63.727,5.1131 63.654,5.0651 63.582,5.0171 63.527,4.9566 63.489,4.8837 63.47,4.8377 63.454,4.7823 63.441,4.7175 63.428,4.6526 63.419,4.5836 63.414,4.5106 63.409,4.4375 63.406,4.3628 63.404,4.2865 63.403,4.2101 63.402,4.1377 63.402,4.0691 c 0,-0.0765 10e-4,-0.157 0.002,-0.2414 0.002,-0.0846 0.005,-0.1664 0.01,-0.2454 0.005,-0.0791 0.014,-0.154 0.027,-0.2249 0.013,-0.0709 0.029,-0.1303 0.048,-0.1782 0.036,-0.0797 0.09,-0.1452 0.164,-0.1964 0.073,-0.0513 0.155,-0.0769 0.244,-0.0768 0.093,-1e-4 0.176,0.0255 0.25,0.0768 0.074,0.0512 0.128,0.1167 0.163,0.1964 0.019,0.0479 0.035,0.1073 0.048,0.1782 0.014,0.0709 0.023,0.1458 0.028,0.2249 0.005,0.079 0.008,0.1608 0.009,0.2454 0.001,0.0844 0.002,0.1649 0.002,0.2414 z" /></g></g></g></g></g></g></g></g></g></svg>