<?xml version="1.0" encoding="UTF-8" standalone="no"?>
<svg
   xmlns:dc="http://purl.org/dc/elements/1.1/"
   xmlns:cc="http://creativecommons.org/ns#"
   xmlns:rdf="http://www.w3.org/1999/02/22-rdf-syntax-ns#"
   xmlns:svg="http://www.w3.org/2000/svg"
   xmlns="http://www.w3.org/2000/svg"
   viewBox="0 0 246.72 237.28"
   height="237.28"
   width="246.72"
   xml:space="preserve"
   id="svg2"
   version="1.1"><metadata
     id="metadata8"><rdf:RDF><cc:Work
         rdf:about=""><dc:format>image/svg+xml</dc:format><dc:type
           rdf:resource="http://purl.org/dc/dcmitype/StillImage" /></cc:Work></rdf:RDF></metadata><defs
     id="defs6"><clipPath
       id="clipPath18"
       clipPathUnits="userSpaceOnUse"><path
         style="clip-rule:evenodd"
         id="path16"
         d="M 2.757e-6,0 H 185.04 V 177.96 H 2.757e-6 Z" /></clipPath><clipPath
       id="clipPath26"
       clipPathUnits="userSpaceOnUse"><path
         style="clip-rule:evenodd"
         id="path24"
         d="M 2.757e-6,0.16006 H 184.79 v 177.8 H 2.757e-6 Z" /></clipPath><clipPath
       id="clipPath36"
       clipPathUnits="userSpaceOnUse"><path
         id="path34"
         d="M 0,0 H 2781.41 V 2676.26 H 0 Z" /></clipPath><clipPath
       id="clipPath50"
       clipPathUnits="userSpaceOnUse"><path
         id="path48"
         d="M 0,0 H 14.271 V 15.875 H 0 Z" /></clipPath><clipPath
       id="clipPath64"
       clipPathUnits="userSpaceOnUse"><path
         id="path62"
         d="M 0,0 H 14.737 V 15.875 H 0 Z" /></clipPath><clipPath
       id="clipPath106"
       clipPathUnits="userSpaceOnUse"><path
         id="path104"
         d="M 0,0 H 13.654 V 15.875 H 0 Z" /></clipPath><clipPath
       id="clipPath120"
       clipPathUnits="userSpaceOnUse"><path
         id="path118"
         d="M 0,0 H 14.12 V 15.875 H 0 Z" /></clipPath><clipPath
       id="clipPath138"
       clipPathUnits="userSpaceOnUse"><path
         id="path136"
         d="M 0,0 H 28.627 V 12.7 H 0 Z" /></clipPath></defs><g
     transform="matrix(1.3333333,0,0,-1.3333333,0,237.28)"
     id="g10"><g
       id="g12"><g
         clip-path="url(#clipPath18)"
         id="g14" /></g><g
       id="g20"><g
         clip-path="url(#clipPath26)"
         id="g22"><g
           transform="matrix(2.5666,0,0,2.4694,0,0.16002)"
           id="g28"><g
             transform="scale(0.025886,0.026903)"
             id="g30"><g
               clip-path="url(#clipPath36)"
               id="g32"><path
                 id="path38"
                 style="fill:#000000;fill-opacity:1;fill-rule:nonzero;stroke:none"
                 d="m 966.2,1081.26 h 1380.12 v -15 H 966.2 c -4.14,0 -7.5,3.36 -7.5,7.5 0,4.14 3.36,7.5 7.5,7.5 z m 1500,-7.5 -150,45 30,-37.5 v -15 l -30,-37.5 z" /><path
                 id="path40"
                 style="fill:#000000;fill-opacity:1;fill-rule:nonzero;stroke:none"
                 d="m 958.7,1073.76 v 1241.37 h 15 V 1073.76 c 0,-4.14 -3.36,-7.5 -7.5,-7.5 -4.14,0 -7.5,3.36 -7.5,7.5 z m 7.5,1361.25 -45,-150 37.5,30 h 15 l 37.5,-30 z" /><g
                 transform="matrix(3.9642,0,0,4.4098,2405.99,772.5)"
                 id="g42"><g
                   transform="scale(5.0451,4.5353)"
                   id="g44"><g
                     clip-path="url(#clipPath50)"
                     id="g46"><path
                       id="path52"
                       style="fill:#000000;fill-opacity:1;fill-rule:evenodd;stroke:none"
                       d="M 9.2753,4.9335 C 8.7158,4.9562 8.1886,4.9678 7.6933,4.9678 H 7.6832 c -0.573,0 -1.1793,-0.0116 -1.8197,-0.0343 V 5.5861 H 6.5459 L 5.2519,7.6619 3.8822,5.6058 v 0.0147 c 0,0.0325 0,0.0472 0,0.0442 C 3.9429,5.6512 4.0034,5.6383 4.0641,5.6254 4.1653,5.6119 4.265,5.6021 4.3625,5.5956 4.46,5.5889 4.5898,5.5858 4.7514,5.5861 V 4.9335 C 4.2429,4.9562 3.7678,4.9678 3.3262,4.9678 H 3.1897 c -0.4144,0 -0.8523,-0.0116 -1.3142,-0.0343 v 0.6526 c 0.199,-3e-4 0.3683,0.0013 0.5082,0.0046 0.1398,0.0031 0.2754,0.0114 0.4067,0.0249 0.0607,0.0129 0.1199,0.0233 0.1769,0.0316 0.0574,0.0079 0.0893,0.0187 0.096,0.0322 L 4.8324,8.3342 2.9321,11.362 H 2.0119 v 0.653 C 2.568,11.991 3.0952,11.98 3.5939,11.98 H 3.604 c 0.573,0 1.1762,0.011 1.8096,0.035 V 11.362 H 4.7263 l 1.021,-1.6342 1.0765,1.6142 v -0.014 c 0,-0.027 0.0018,-0.04 0.0052,-0.04 -0.0607,0.006 -0.123,0.016 -0.1871,0.03 -0.1009,0.013 -0.2003,0.023 -0.2981,0.031 -0.0975,0.008 -0.2273,0.013 -0.3892,0.013 v 0.653 C 6.4972,11.991 7.0142,11.98 7.5062,11.98 h 0.0101 c 0.4079,0 0.8459,0.011 1.3142,0.035 V 11.362 C 8.6318,11.362 8.4625,11.36 8.3226,11.357 8.1828,11.353 8.0472,11.345 7.9156,11.333 7.8549,11.319 7.796,11.308 7.7387,11.3 7.6816,11.292 7.6494,11.282 7.6427,11.269 L 6.1717,9.0555 8.3453,5.5861 h 0.93 z" /><path
                       id="path54"
                       style="fill:#000000;fill-opacity:1;fill-rule:evenodd;stroke:none"
                       d="m 12.523,3.5522 c -0.389,0.011 -0.767,0.0165 -1.135,0.0165 -0.368,0 -0.746,-0.0055 -1.135,-0.0165 v 0.2363 h 0.219 c 0.07,-2e-4 0.135,7e-4 0.196,0.0026 0.062,0.0017 0.12,0.0064 0.175,0.0137 0.055,0.0073 0.102,0.0146 0.142,0.0222 0.034,0.0053 0.062,0.0221 0.085,0.0507 0.022,0.0283 0.033,0.0599 0.033,0.0949 V 7.0697 C 10.997,7.0237 10.867,6.9888 10.713,6.9651 10.559,6.9412 10.39,6.9294 10.206,6.9295 v 0.2336 c 0.253,-10e-5 0.487,0.0268 0.702,0.0809 0.214,0.0539 0.4,0.1553 0.556,0.3038 h 0.099 c 0.069,-10e-5 0.104,-0.0304 0.104,-0.0906 V 3.9726 c 0,-0.0367 0.011,-0.0688 0.032,-0.0963 0.021,-0.0275 0.052,-0.044 0.092,-0.0493 0.034,-0.0076 0.077,-0.0149 0.13,-0.0222 0.053,-0.0073 0.112,-0.012 0.179,-0.0137 0.066,-0.0019 0.131,-0.0028 0.195,-0.0026 h 0.228 z" /></g></g></g><g
                 transform="matrix(4.0936,0,0,4.4099,653.83,2283.75)"
                 id="g56"><g
                   transform="scale(4.8856,4.5353)"
                   id="g58"><g
                     clip-path="url(#clipPath64)"
                     id="g60"><path
                       id="path66"
                       style="fill:#000000;fill-opacity:1;fill-rule:evenodd;stroke:none"
                       d="M 9.2753,4.9335 C 8.7158,4.9562 8.1886,4.9678 7.6933,4.9678 H 7.6832 c -0.573,0 -1.1793,-0.0116 -1.8197,-0.0343 V 5.5861 H 6.5459 L 5.2519,7.6619 3.8822,5.6058 v 0.0147 c 0,0.0325 0,0.0472 0,0.0442 C 3.9429,5.6512 4.0034,5.6383 4.0641,5.6254 4.1653,5.6119 4.265,5.6021 4.3625,5.5956 4.46,5.5889 4.5898,5.5858 4.7514,5.5861 V 4.9335 C 4.2429,4.9562 3.7678,4.9678 3.3262,4.9678 H 3.1897 c -0.4144,0 -0.8523,-0.0116 -1.3142,-0.0343 v 0.6526 c 0.199,-3e-4 0.3683,0.0013 0.5082,0.0046 0.1398,0.0031 0.2754,0.0114 0.4067,0.0249 0.0607,0.0129 0.1199,0.0233 0.1769,0.0316 0.0574,0.0079 0.0893,0.0187 0.096,0.0322 L 4.8324,8.3342 2.9321,11.362 H 2.0119 v 0.653 C 2.568,11.991 3.0952,11.98 3.5939,11.98 H 3.604 c 0.573,0 1.1762,0.011 1.8096,0.035 V 11.362 H 4.7263 l 1.021,-1.6342 1.0765,1.6142 v -0.014 c 0,-0.027 0.0018,-0.04 0.0052,-0.04 -0.0607,0.006 -0.123,0.016 -0.1871,0.03 -0.1009,0.013 -0.2003,0.023 -0.2981,0.031 -0.0975,0.008 -0.2273,0.013 -0.3892,0.013 v 0.653 C 6.4972,11.991 7.0142,11.98 7.5062,11.98 h 0.0101 c 0.4079,0 0.8459,0.011 1.3142,0.035 V 11.362 C 8.6318,11.362 8.4625,11.36 8.3226,11.357 8.1828,11.353 8.0472,11.345 7.9156,11.333 7.8549,11.319 7.796,11.308 7.7387,11.3 7.6816,11.292 7.6494,11.282 7.6427,11.269 L 6.1717,9.0555 8.3453,5.5861 h 0.93 z" /><path
                       id="path68"
                       style="fill:#000000;fill-opacity:1;fill-rule:evenodd;stroke:none"
                       d="m 12.758,3.5522 h -2.58 v 0.1511 c 0,0.0109 0.006,0.0273 0.019,0.0495 l 1.036,1.0058 c 0.123,0.1207 0.247,0.2444 0.373,0.3708 0.125,0.1264 0.238,0.2556 0.337,0.3875 0.1,0.1319 0.179,0.2679 0.238,0.4081 0.059,0.1401 0.089,0.2871 0.089,0.4412 0,0.1298 -0.019,0.2513 -0.057,0.3639 C 12.175,6.8428 12.12,6.9417 12.048,7.0269 11.976,7.1121 11.886,7.1808 11.779,7.233 11.671,7.2852 11.546,7.3113 11.404,7.3115 11.193,7.3113 11.007,7.255 10.845,7.1423 10.683,7.0297 10.576,6.9055 10.523,6.7702 10.513,6.7664 10.53,6.7645 10.574,6.7647 h 0.054 c 0.063,-0.0131 0.118,-0.0328 0.165,-0.0593 0.046,-0.0266 0.085,-0.0632 0.117,-0.1099 0.032,-0.0467 0.047,-0.1031 0.047,-0.1689 0,-0.11 -0.04,-0.1944 -0.12,-0.2529 -0.08,-0.0588 -0.17,-0.088 -0.27,-0.0878 -0.095,-2e-4 -0.183,0.029 -0.266,0.0878 -0.082,0.0585 -0.123,0.1429 -0.123,0.2529 0,0.1538 0.033,0.2994 0.101,0.4368 0.068,0.1374 0.16,0.2564 0.276,0.3573 0.116,0.1006 0.253,0.1803 0.412,0.239 0.158,0.0586 0.326,0.088 0.504,0.0881 0.22,-10e-5 0.421,-0.029 0.604,-0.0867 0.183,-0.0577 0.339,-0.1407 0.467,-0.2487 0.129,-0.1082 0.23,-0.2332 0.303,-0.3751 0.073,-0.142 0.109,-0.299 0.109,-0.4711 C 12.954,6.1755 12.906,6 12.809,5.8398 12.712,5.6793 12.591,5.5323 12.447,5.3987 12.304,5.2649 12.151,5.139 11.989,5.0208 11.828,4.9027 11.681,4.7878 11.55,4.6761 L 10.821,4.0633 h 0.954 c 0.133,-10e-5 0.258,7e-4 0.373,0.0026 0.115,0.0017 0.213,0.0055 0.293,0.011 0.08,0.0055 0.122,0.0091 0.124,0.0112 0.016,0.0127 0.032,0.0383 0.047,0.0767 0.015,0.0385 0.029,0.0838 0.041,0.1361 0.013,0.0522 0.026,0.1052 0.039,0.1593 0.012,0.054 0.024,0.1132 0.034,0.1775 h 0.235 z" /></g></g></g><g
                 id="g70"><path
                   id="path72"
                   style="fill:none;stroke:#000000;stroke-width:7.5;stroke-linecap:round;stroke-linejoin:round;stroke-miterlimit:10;stroke-dasharray:30, 15;stroke-dashoffset:0;stroke-opacity:1"
                   d="m 906.2,2041.26 h 1500" /></g><g
                 id="g74"><path
                   id="path76"
                   style="fill:none;stroke:#000000;stroke-width:7.5;stroke-linecap:round;stroke-linejoin:round;stroke-miterlimit:10;stroke-dasharray:30, 15;stroke-dashoffset:0;stroke-opacity:1"
                   d="m 906.2,1388.76 h 1500" /></g><g
                 id="g78"><path
                   id="path80"
                   style="fill:none;stroke:#000000;stroke-width:7.5;stroke-linecap:round;stroke-linejoin:round;stroke-miterlimit:10;stroke-dasharray:30, 15;stroke-dashoffset:0;stroke-opacity:1"
                   d="m 1431.2,833.76 v 1417.5" /></g><g
                 id="g82"><path
                   id="path84"
                   style="fill:none;stroke:#000000;stroke-width:7.5;stroke-linecap:round;stroke-linejoin:round;stroke-miterlimit:10;stroke-dasharray:30, 15;stroke-dashoffset:0;stroke-opacity:1"
                   d="m 2031.2,833.76 v 1417.5" /></g><path
                 id="path86"
                 style="fill:#000000;fill-opacity:1;fill-rule:nonzero;stroke:none"
                 d="m 518.07,1546.1 v 337.82 h 11.25 V 1546.1 Z m 5.63,-157.34 33.75,157.5 h -28.13 -11.25 -28.12 z m 0,652.5 -33.75,-157.5 h 28.12 11.25 28.13 z" /><path
                 id="path88"
                 style="fill:none;stroke:#000000;stroke-width:7.5;stroke-linecap:round;stroke-linejoin:round;stroke-miterlimit:10;stroke-dasharray:none;stroke-opacity:1"
                 d="m 223.7,1388.76 h 600" /><path
                 id="path90"
                 style="fill:none;stroke:#000000;stroke-width:7.5;stroke-linecap:round;stroke-linejoin:round;stroke-miterlimit:10;stroke-dasharray:none;stroke-opacity:1"
                 d="m 223.7,2041.26 h 600" /><path
                 id="path92"
                 style="fill:#000000;fill-opacity:1;fill-rule:nonzero;stroke:none"
                 d="m 1588.54,479.38 h 285.32 v -11.25 h -285.32 z m -157.34,-5.62 157.5,-33.75 v 28.12 11.25 28.13 z m 600,0 -157.5,33.75 v -28.13 -11.25 -28.12 z" /><path
                 id="path94"
                 style="fill:none;stroke:#000000;stroke-width:7.5;stroke-linecap:round;stroke-linejoin:round;stroke-miterlimit:10;stroke-dasharray:none;stroke-opacity:1"
                 d="m 1431.2,773.76 v -600" /><path
                 id="path96"
                 style="fill:none;stroke:#000000;stroke-width:7.5;stroke-linecap:round;stroke-linejoin:round;stroke-miterlimit:10;stroke-dasharray:none;stroke-opacity:1"
                 d="m 2031.2,773.76 v -600" /><g
                 transform="matrix(3.7927,0,0,4.4098,1587.16,90.003)"
                 id="g98"><g
                   transform="scale(5.2732,4.5353)"
                   id="g100"><g
                     clip-path="url(#clipPath106)"
                     id="g102"><path
                       id="path108"
                       style="fill:#000000;fill-opacity:1;fill-rule:evenodd;stroke:none"
                       d="M 8.6562,8.4323 C 8.6562,7.9545 8.5856,7.488 8.4439,7.0335 8.3025,6.5786 8.0652,6.1713 7.7315,5.8119 7.4113,5.4812 7.0365,5.234 6.6068,5.0706 6.1774,4.9071 5.7299,4.8255 5.2647,4.8255 4.7997,4.8255 4.3525,4.9071 3.9229,5.0706 3.4935,5.234 3.1184,5.4812 2.7982,5.8119 2.4648,6.1683 2.2274,6.5746 2.0857,7.031 1.944,7.4874 1.8732,7.9545 1.8732,8.4323 c 0,0.4904 0.0693,0.9671 0.2073,1.4302 0.1383,0.4625 0.3775,0.8775 0.7177,1.2445 0.3168,0.343 0.691,0.597 1.1222,0.763 0.4312,0.165 0.8793,0.247 1.3443,0.248 C 5.7299,12.117 6.178,12.035 6.6092,11.87 7.0405,11.704 7.4146,11.45 7.7315,11.107 8.0719,10.74 8.3111,10.326 8.4492,9.8649 8.5872,9.4037 8.6562,8.9261 8.6562,8.4323 Z M 6.8923,8.6139 c 0,0.3791 -0.0174,0.7529 -0.053,1.121 C 6.804,10.103 6.6936,10.452 6.508,10.783 6.3768,11.005 6.2035,11.187 5.9876,11.33 5.772,11.472 5.5309,11.543 5.2647,11.544 5.0021,11.543 4.762,11.471 4.5445,11.327 4.3274,11.183 4.1529,11.002 4.0213,10.783 3.8361,10.455 3.7259,10.107 3.6904,9.7373 3.6551,9.3675 3.6373,8.993 3.6373,8.6139 3.6373,8.2014 3.6542,7.7941 3.6879,7.3917 3.7217,6.9893 3.8327,6.6099 4.0213,6.2535 4.1529,6.0112 4.3255,5.8122 4.5396,5.657 4.7537,5.5015 4.9954,5.4239 5.2647,5.4242 5.5346,5.4239 5.7762,5.5015 5.9903,5.657 6.2044,5.8122 6.3768,6.0112 6.508,6.2535 6.6936,6.613 6.804,6.9933 6.8393,7.3941 c 0.0356,0.4006 0.053,0.8073 0.053,1.2198 z" /><path
                       id="path110"
                       style="fill:#000000;fill-opacity:1;fill-rule:evenodd;stroke:none"
                       d="m 11.904,3.5522 c -0.389,0.011 -0.767,0.0165 -1.135,0.0165 -0.368,0 -0.746,-0.0055 -1.1347,-0.0165 V 3.7885 H 9.853 c 0.0696,-2e-4 0.1352,7e-4 0.196,0.0026 0.062,0.0017 0.12,0.0064 0.175,0.0137 0.055,0.0073 0.102,0.0146 0.142,0.0222 0.034,0.0053 0.062,0.0221 0.084,0.0507 0.023,0.0283 0.034,0.0599 0.034,0.0949 V 7.0697 C 10.378,7.0237 10.248,6.9888 10.094,6.9651 9.9396,6.9412 9.7707,6.9294 9.5868,6.9295 v 0.2336 c 0.2535,-10e-5 0.4872,0.0268 0.7022,0.0809 0.214,0.0539 0.4,0.1553 0.556,0.3038 h 0.098 c 0.07,-10e-5 0.105,-0.0304 0.105,-0.0906 V 3.9726 c 0,-0.0367 0.01,-0.0688 0.032,-0.0963 0.021,-0.0275 0.051,-0.044 0.091,-0.0493 0.034,-0.0076 0.078,-0.0149 0.13,-0.0222 0.053,-0.0073 0.113,-0.012 0.179,-0.0137 0.067,-0.0019 0.132,-0.0028 0.195,-0.0026 h 0.229 z" /></g></g></g><g
                 transform="matrix(3.9222,0,0,4.4098,75,1563.75)"
                 id="g112"><g
                   transform="scale(5.0992,4.5353)"
                   id="g114"><g
                     clip-path="url(#clipPath120)"
                     id="g116"><path
                       id="path122"
                       style="fill:#000000;fill-opacity:1;fill-rule:evenodd;stroke:none"
                       d="M 8.6562,8.4323 C 8.6562,7.9545 8.5856,7.488 8.4439,7.0335 8.3025,6.5786 8.0652,6.1713 7.7315,5.8119 7.4113,5.4812 7.0365,5.234 6.6068,5.0706 6.1774,4.9071 5.7299,4.8255 5.2647,4.8255 4.7997,4.8255 4.3525,4.9071 3.9229,5.0706 3.4935,5.234 3.1184,5.4812 2.7982,5.8119 2.4648,6.1683 2.2274,6.5746 2.0857,7.031 1.944,7.4874 1.8732,7.9545 1.8732,8.4323 c 0,0.4904 0.0693,0.9671 0.2073,1.4302 0.1383,0.4625 0.3775,0.8775 0.7177,1.2445 0.3168,0.343 0.691,0.597 1.1222,0.763 0.4312,0.165 0.8793,0.247 1.3443,0.248 C 5.7299,12.117 6.178,12.035 6.6092,11.87 7.0405,11.704 7.4146,11.45 7.7315,11.107 8.0719,10.74 8.3111,10.326 8.4492,9.8649 8.5872,9.4037 8.6562,8.9261 8.6562,8.4323 Z M 6.8923,8.6139 c 0,0.3791 -0.0174,0.7529 -0.053,1.121 C 6.804,10.103 6.6936,10.452 6.508,10.783 6.3768,11.005 6.2035,11.187 5.9876,11.33 5.772,11.472 5.5309,11.543 5.2647,11.544 5.0021,11.543 4.762,11.471 4.5445,11.327 4.3274,11.183 4.1529,11.002 4.0213,10.783 3.8361,10.455 3.7259,10.107 3.6904,9.7373 3.6551,9.3675 3.6373,8.993 3.6373,8.6139 3.6373,8.2014 3.6542,7.7941 3.6879,7.3917 3.7217,6.9893 3.8327,6.6099 4.0213,6.2535 4.1529,6.0112 4.3255,5.8122 4.5396,5.657 4.7537,5.5015 4.9954,5.4239 5.2647,5.4242 5.5346,5.4239 5.7762,5.5015 5.9903,5.657 6.2044,5.8122 6.3768,6.0112 6.508,6.2535 6.6936,6.613 6.804,6.9933 6.8393,7.3941 c 0.0356,0.4006 0.053,0.8073 0.053,1.2198 z" /><path
                       id="path124"
                       style="fill:#000000;fill-opacity:1;fill-rule:evenodd;stroke:none"
                       d="M 12.141,3.5522 H 9.5614 v 0.1511 c 0,0.0109 0.0063,0.0273 0.019,0.0495 l 1.0366,1.0058 c 0.123,0.1207 0.247,0.2444 0.372,0.3708 0.126,0.1264 0.239,0.2556 0.338,0.3875 0.099,0.1319 0.178,0.2679 0.238,0.4081 0.059,0.1401 0.088,0.2871 0.088,0.4412 0,0.1298 -0.019,0.2513 -0.057,0.3639 C 11.558,6.8428 11.503,6.9417 11.432,7.0269 11.36,7.1121 11.27,7.1808 11.162,7.233 11.054,7.2852 10.93,7.3113 10.788,7.3115 10.577,7.3113 10.39,7.255 10.229,7.1423 10.067,7.0297 9.9598,6.9055 9.9069,6.7702 9.8965,6.7664 9.9134,6.7645 9.9576,6.7647 h 0.0544 c 0.063,-0.0131 0.118,-0.0328 0.164,-0.0593 0.047,-0.0266 0.086,-0.0632 0.118,-0.1099 0.031,-0.0467 0.047,-0.1031 0.047,-0.1689 0,-0.11 -0.04,-0.1944 -0.12,-0.2529 C 10.14,6.1149 10.051,6.0857 9.9513,6.0859 9.8563,6.0857 9.7676,6.1149 9.6851,6.1737 9.6027,6.2322 9.5614,6.3166 9.5614,6.4266 c 0,0.1538 0.0338,0.2994 0.1015,0.4368 0.0678,0.1374 0.1595,0.2564 0.2757,0.3573 0.1164,0.1006 0.2534,0.1803 0.4124,0.239 0.158,0.0586 0.326,0.088 0.504,0.0881 0.219,-10e-5 0.421,-0.029 0.603,-0.0867 0.183,-0.0577 0.339,-0.1407 0.468,-0.2487 0.129,-0.1082 0.23,-0.2332 0.303,-0.3751 0.073,-0.142 0.109,-0.299 0.109,-0.4711 C 12.338,6.1755 12.289,6 12.192,5.8398 12.095,5.6793 11.975,5.5323 11.831,5.3987 11.687,5.2649 11.534,5.139 11.373,5.0208 11.211,4.9027 11.065,4.7878 10.934,4.6761 L 10.205,4.0633 h 0.954 c 0.133,-10e-5 0.257,7e-4 0.372,0.0026 0.116,0.0017 0.213,0.0055 0.294,0.011 0.08,0.0055 0.121,0.0091 0.123,0.0112 0.017,0.0127 0.033,0.0383 0.048,0.0767 0.015,0.0385 0.028,0.0838 0.041,0.1361 0.013,0.0522 0.025,0.1052 0.038,0.1593 0.013,0.054 0.024,0.1132 0.035,0.1775 h 0.234 z" /></g></g></g><path
                 id="path126"
                 style="fill:#6570a8;fill-opacity:0.39216003;fill-rule:evenodd;stroke:none"
                 d="m 1431.2,1388.76 h 600 v 652.5 h -600 z" /><path
                 id="path128"
                 style="fill:none;stroke:#000000;stroke-width:15;stroke-linecap:round;stroke-linejoin:round;stroke-miterlimit:10;stroke-dasharray:none;stroke-opacity:1"
                 d="m 1431.2,1388.76 h 600 v 652.5 h -600 z" /><g
                 transform="matrix(7.9518,0,0,3.5279,1437.43,1595.5)"
                 id="g130"><g
                   transform="scale(2.5151,5.6691)"
                   id="g132"><g
                     clip-path="url(#clipPath138)"
                     id="g134"><path
                       id="path140"
                       style="fill:#000000;fill-opacity:1;fill-rule:evenodd;stroke:none"
                       d="M 6.9249,6.7459 C 6.9249,6.3636 6.8685,5.9904 6.7552,5.6268 6.642,5.2629 6.4521,4.9371 6.1852,4.6495 5.929,4.385 5.6292,4.1872 5.2854,4.0565 4.9419,3.9257 4.5839,3.8604 4.2117,3.8604 3.8398,3.8604 3.482,3.9257 3.1383,4.0565 2.7948,4.1872 2.4947,4.385 2.2385,4.6495 1.9718,4.9346 1.7819,5.2597 1.6686,5.6248 1.5552,5.9899 1.4985,6.3636 1.4985,6.7459 1.4985,7.1382 1.554,7.5195 1.6644,7.89 1.7751,8.2602 1.9664,8.592 2.2385,8.8854 2.492,9.16 2.7913,9.3634 3.1363,9.4956 3.4813,9.6276 3.8398,9.6939 4.2117,9.6941 4.5839,9.6939 4.9424,9.6276 5.2874,9.4956 5.6324,9.3634 5.9317,9.16 6.1852,8.8854 6.4575,8.592 6.6489,8.261 6.7593,7.8919 6.8697,7.5229 6.9249,7.1409 6.9249,6.7459 Z m -1.411,0.1452 c 0,0.3033 -0.014,0.6024 -0.0425,0.8968 C 5.4432,8.0823 5.3549,8.3618 5.2064,8.6263 5.1014,8.804 4.9628,8.9499 4.7901,9.0638 4.6176,9.1776 4.4247,9.2346 4.2117,9.2348 4.0017,9.2346 3.8096,9.1769 3.6356,9.0618 3.4619,8.9465 3.3223,8.8015 3.217,8.6263 3.0688,8.3643 2.9808,8.0855 2.9523,7.7899 2.9241,7.494 2.9098,7.1944 2.9098,6.8911 2.9098,6.5611 2.9233,6.2353 2.9503,5.9134 2.9773,5.5914 3.0661,5.2879 3.217,5.0028 3.3223,4.809 3.4604,4.6497 3.6317,4.5256 3.803,4.4012 3.9963,4.3391 4.2117,4.3394 4.4277,4.3391 4.621,4.4012 4.7923,4.5256 4.9635,4.6497 5.1014,4.809 5.2064,5.0028 5.3549,5.2904 5.4432,5.5946 5.4714,5.9153 5.4999,6.2358 5.5139,6.5611 5.5139,6.8911 Z" /><path
                       id="path142"
                       style="fill:#000000;fill-opacity:1;fill-rule:evenodd;stroke:none"
                       d="M 9.525,2.8417 C 9.214,2.8505 8.9113,2.8549 8.6171,2.8549 8.323,2.8549 8.0203,2.8505 7.7091,2.8417 v 0.1891 h 0.1751 c 0.0557,-1e-4 0.1082,6e-4 0.1572,0.0021 0.049,0.0014 0.0955,0.0051 0.1395,0.011 0.044,0.0057 0.0821,0.0116 0.1141,0.0177 0.0271,0.0043 0.0495,0.0177 0.0672,0.0405 0.0179,0.0227 0.0266,0.048 0.0266,0.076 V 5.6557 C 8.3044,5.6189 8.2003,5.591 8.0769,5.5721 7.9535,5.553 7.8182,5.5435 7.6711,5.5436 V 5.7305 C 7.8741,5.7304 8.0614,5.7519 8.233,5.7952 8.4045,5.8384 8.5529,5.9194 8.678,6.0383 H 8.7566 C 8.8123,6.0381 8.8402,6.014 8.8402,5.9657 V 3.1781 C 8.8402,3.1487 8.8487,3.123 8.8656,3.101 8.8825,3.079 8.9071,3.0659 8.9392,3.0616 8.9662,3.0555 9.001,3.0496 9.0432,3.0439 9.0855,3.038 9.1332,3.0343 9.1865,3.0329 9.2397,3.0314 9.2917,3.0307 9.3423,3.0308 H 9.525 Z" /><path
                       id="path144"
                       style="fill:none;stroke:#000000;stroke-width:0.32159999;stroke-linecap:round;stroke-linejoin:round;stroke-miterlimit:10;stroke-dasharray:none;stroke-opacity:1"
                       d="M 11.996,8.6484 16.499,4.146" /><path
                       id="path146"
                       style="fill:none;stroke:#000000;stroke-width:0.32159999;stroke-linecap:round;stroke-linejoin:round;stroke-miterlimit:10;stroke-dasharray:none;stroke-opacity:1"
                       d="M 16.499,8.6484 11.996,4.146" /><path
                       id="path148"
                       style="fill:#000000;fill-opacity:1;fill-rule:evenodd;stroke:none"
                       d="m 24.255,6.7459 c 0,-0.3823 -0.056,-0.7555 -0.17,-1.1191 C 23.972,5.2629 23.782,4.9371 23.516,4.6495 23.259,4.385 22.96,4.1872 22.616,4.0565 22.272,3.9257 21.914,3.8604 21.542,3.8604 c -0.372,0 -0.73,0.0653 -1.073,0.1961 -0.344,0.1307 -0.644,0.3285 -0.9,0.593 -0.267,0.2851 -0.457,0.6102 -0.57,0.9753 -0.113,0.3651 -0.17,0.7388 -0.17,1.1211 0,0.3923 0.055,0.7736 0.166,1.1441 0.11,0.3702 0.302,0.702 0.574,0.9954 0.253,0.2746 0.553,0.478 0.898,0.6102 0.345,0.132 0.703,0.1983 1.075,0.1985 0.372,-2e-4 0.731,-0.0665 1.076,-0.1985 C 22.963,9.3634 23.262,9.16 23.516,8.8854 23.788,8.592 23.979,8.261 24.09,7.8919 c 0.11,-0.369 0.165,-0.751 0.165,-1.146 z m -1.411,0.1452 c 0,0.3033 -0.014,0.6024 -0.042,0.8968 C 22.774,8.0823 22.685,8.3618 22.537,8.6263 22.432,8.804 22.293,8.9499 22.12,9.0638 21.948,9.1776 21.755,9.2346 21.542,9.2348 21.332,9.2346 21.14,9.1769 20.966,9.0618 20.792,8.9465 20.653,8.8015 20.547,8.6263 20.399,8.3643 20.311,8.0855 20.283,7.7899 20.254,7.494 20.24,7.1944 20.24,6.8911 c 0,-0.33 0.014,-0.6558 0.041,-0.9777 0.027,-0.322 0.115,-0.6255 0.266,-0.9106 0.106,-0.1938 0.244,-0.3531 0.415,-0.4772 0.171,-0.1244 0.365,-0.1865 0.58,-0.1862 0.216,-3e-4 0.409,0.0618 0.581,0.1862 0.171,0.1241 0.309,0.2834 0.414,0.4772 0.148,0.2876 0.237,0.5918 0.265,0.9125 0.028,0.3205 0.042,0.6458 0.042,0.9758 z" /><path
                       id="path150"
                       style="fill:#000000;fill-opacity:1;fill-rule:evenodd;stroke:none"
                       d="m 27.043,2.8417 h -2.064 v 0.121 c 0,0.0086 0.005,0.0218 0.015,0.0395 l 0.829,0.8047 c 0.099,0.0966 0.198,0.1955 0.298,0.2966 0.101,0.1011 0.191,0.2045 0.271,0.31 0.079,0.1055 0.142,0.2143 0.19,0.3265 0.047,0.1121 0.071,0.2297 0.071,0.3529 0,0.1039 -0.015,0.2011 -0.046,0.2912 -0.03,0.0901 -0.074,0.1693 -0.132,0.2374 C 26.418,5.6897 26.346,5.7446 26.26,5.7864 26.174,5.8282 26.074,5.8491 25.96,5.8492 25.791,5.8491 25.642,5.804 25.513,5.7139 25.384,5.6237 25.298,5.5244 25.255,5.4161 25.247,5.4131 25.261,5.4116 25.296,5.4117 h 0.043 C 25.39,5.4013 25.434,5.3855 25.471,5.3643 25.508,5.343 25.539,5.3138 25.565,5.2764 25.59,5.239 25.603,5.1939 25.603,5.1413 25.603,5.0532 25.571,4.9858 25.506,4.9389 25.442,4.8919 25.37,4.8686 25.291,4.8687 c -0.076,-10e-5 -0.147,0.0232 -0.213,0.0702 -0.066,0.0469 -0.099,0.1143 -0.099,0.2024 0,0.123 0.027,0.2395 0.081,0.3494 0.054,0.11 0.128,0.2052 0.221,0.2858 0.093,0.0805 0.203,0.1443 0.329,0.1913 0.127,0.0468 0.262,0.0703 0.404,0.0705 0.176,-2e-4 0.337,-0.0232 0.483,-0.0694 0.146,-0.0462 0.271,-0.1125 0.374,-0.199 C 26.974,5.6834 27.055,5.5833 27.113,5.4698 27.171,5.3562 27.2,5.2306 27.2,5.0929 27.2,4.9404 27.162,4.8 27.084,4.6718 27.006,4.5435 26.91,4.4259 26.795,4.319 26.68,4.2119 26.558,4.1112 26.428,4.0167 26.299,3.9221 26.182,3.8302 26.077,3.7409 L 25.494,3.2507 h 0.763 c 0.107,-2e-4 0.206,5e-4 0.298,0.002 0.092,0.0014 0.17,0.0044 0.235,0.0088 0.064,0.0044 0.097,0.0073 0.099,0.0089 0.013,0.0102 0.026,0.0307 0.038,0.0615 0.012,0.0307 0.022,0.067 0.033,0.1088 0.01,0.0418 0.02,0.0842 0.03,0.1275 0.01,0.0431 0.02,0.0905 0.028,0.1419 h 0.188 z" /></g></g></g></g></g></g></g></g></g></svg>