<?xml version="1.0" encoding="UTF-8" standalone="no"?>
<svg
   xmlns:dc="http://purl.org/dc/elements/1.1/"
   xmlns:cc="http://creativecommons.org/ns#"
   xmlns:rdf="http://www.w3.org/1999/02/22-rdf-syntax-ns#"
   xmlns:svg="http://www.w3.org/2000/svg"
   xmlns="http://www.w3.org/2000/svg"
   viewBox="0 0 478.72 221.28"
   height="221.28"
   width="478.72"
   xml:space="preserve"
   id="svg2"
   version="1.1"><metadata
     id="metadata8"><rdf:RDF><cc:Work
         rdf:about=""><dc:format>image/svg+xml</dc:format><dc:type
           rdf:resource="http://purl.org/dc/dcmitype/StillImage" /></cc:Work></rdf:RDF></metadata><defs
     id="defs6"><clipPath
       id="clipPath18"
       clipPathUnits="userSpaceOnUse"><path
         style="clip-rule:evenodd"
         id="path16"
         d="M 5.35e-6,0 H 359.04001 V 165.96 H 5.35e-6 Z" /></clipPath><clipPath
       id="clipPath26"
       clipPathUnits="userSpaceOnUse"><path
         style="clip-rule:evenodd"
         id="path24"
         d="M 5.35e-6,0.16005 H 358.57001 v 165.8 H 5.35e-6 Z" /></clipPath><clipPath
       id="clipPath36"
       clipPathUnits="userSpaceOnUse"><path
         id="path34"
         d="M 0,0 H 3846.42 V 1778.58 H 0 Z" /></clipPath><clipPath
       id="clipPath66"
       clipPathUnits="userSpaceOnUse"><path
         id="path64"
         d="M 0,0 H 7.2254 V 12.606 H 0 Z" /></clipPath><clipPath
       id="clipPath78"
       clipPathUnits="userSpaceOnUse"><path
         id="path76"
         d="M 0,0 H 7.2254 V 12.606 H 0 Z" /></clipPath><clipPath
       id="clipPath90"
       clipPathUnits="userSpaceOnUse"><path
         id="path88"
         d="M 0,0 H 7.2254 V 12.606 H 0 Z" /></clipPath><clipPath
       id="clipPath102"
       clipPathUnits="userSpaceOnUse"><path
         id="path100"
         d="M 0,0 H 27.667 V 31.516 H 0 Z" /></clipPath></defs><g
     transform="matrix(1.3333333,0,0,-1.3333333,0,221.28)"
     id="g10"><g
       id="g12"><g
         clip-path="url(#clipPath18)"
         id="g14" /></g><g
       id="g20"><g
         clip-path="url(#clipPath26)"
         id="g22"><g
           transform="matrix(4.9801,0,0,2.3028,0,0.16003)"
           id="g28"><g
             transform="scale(0.018719,0.040482)"
             id="g30"><g
               clip-path="url(#clipPath36)"
               id="g32"><path
                 id="path38"
                 style="fill:#980000;fill-opacity:0.39216003;fill-rule:evenodd;stroke:none"
                 d="m 359.7,344.85 h 1500 v 900 h -1500 z" /><path
                 id="path40"
                 style="fill:none;stroke:#000000;stroke-width:15;stroke-linecap:round;stroke-linejoin:round;stroke-miterlimit:10;stroke-dasharray:none;stroke-opacity:1"
                 d="m 359.7,344.85 h 1500 v 900 h -1500 z" /><path
                 id="path42"
                 style="fill:#980000;fill-opacity:0.39216003;fill-rule:evenodd;stroke:none"
                 d="m 3734.7,1406.1 c -261.48,-215 -638.52,-215 -900,0 V 273.6 c 261.48,-215.001 638.52,-215.001 900,0 z" /><path
                 id="path44"
                 style="fill:none;stroke:#000000;stroke-width:15;stroke-linecap:round;stroke-linejoin:round;stroke-miterlimit:10;stroke-dasharray:none;stroke-opacity:1"
                 d="m 3734.7,1406.1 c -261.48,-215 -638.52,-215 -900,0 V 273.6 c 261.48,-215.001 638.52,-215.001 900,0 z" /><path
                 id="path46"
                 style="fill:none;stroke:#000000;stroke-width:15;stroke-linecap:round;stroke-linejoin:round;stroke-miterlimit:10;stroke-dasharray:none;stroke-opacity:1"
                 d="m 3734.7,296.1 c 0,-97.34 -201.47,-176.25 -450,-176.25 -248.53,0 -450,78.91 -450,176.25 v 1147.5 c 0,97.34 201.47,176.25 450,176.25 248.53,0 450,-78.91 450,-176.25 0,0 0,0 0,0 z" /><path
                 id="path48"
                 style="fill:none;stroke:#000000;stroke-width:15;stroke-linecap:round;stroke-linejoin:round;stroke-miterlimit:10;stroke-dasharray:none;stroke-opacity:1"
                 d="m 3734.7,1443.6 c 0,-97.34 -201.47,-176.25 -450,-176.25 -248.53,0 -450,78.91 -450,176.25" /><path
                 id="path50"
                 style="fill:none;stroke:#000000;stroke-width:15;stroke-linecap:round;stroke-linejoin:round;stroke-miterlimit:10;stroke-dasharray:none;stroke-opacity:1"
                 d="M 3629.7,191.1 V 1323.6" /><path
                 id="path52"
                 style="fill:#000000;fill-opacity:1;fill-rule:nonzero;stroke:none"
                 d="m 1852.2,344.85 v 405.12 h 15 V 344.85 c 0,-4.14 -3.36,-7.5 -7.5,-7.5 -4.14,0 -7.5,3.36 -7.5,7.5 z m 7.5,525 -45,-150 37.5,30 h 15 l 37.5,-30 z" /><path
                 id="path54"
                 style="fill:#000000;fill-opacity:1;fill-rule:nonzero;stroke:none"
                 d="m 352.2,344.85 v 405.12 h 15 V 344.85 c 0,-4.14 -3.36,-7.5 -7.5,-7.5 -4.14,0 -7.5,3.36 -7.5,7.5 z m 7.5,525 -45,-150 37.5,30 h 15 l 37.5,-30 z" /><path
                 id="path56"
                 style="fill:#000000;fill-opacity:1;fill-rule:nonzero;stroke:none"
                 d="m 3622.2,416.1 v 405.12 h 15 V 416.1 c 0,-4.14 -3.36,-7.5 -7.5,-7.5 -4.14,0 -7.5,3.36 -7.5,7.5 z m 7.5,525 -45,-150 37.5,30 h 15 l 37.5,-30 z" /><g
                 transform="matrix(2.007,0,0,3.5018,1884.94,638.79)"
                 id="g58"><g
                   transform="scale(9.9649,5.7114)"
                   id="g60"><g
                     clip-path="url(#clipPath66)"
                     id="g62"><path
                       id="path68"
                       style="fill:#000000;fill-opacity:1;fill-rule:evenodd;stroke:none"
                       d="M 5.7255,3.8528 C 5.3832,3.871 5.0718,3.8803 4.7914,3.8803 H 4.7835 C 4.4518,3.8803 4.0973,3.871 3.7199,3.8528 V 4.3749 H 4.0273 L 3.4652,5.1719 2.8548,4.3632 c 0.0054,0.0076 0.0081,0.0181 0.0081,0.0314 0,0.026 -0.0054,0.0402 -0.0162,0.0431 C 2.8737,4.4245 2.8977,4.4127 2.9193,4.4024 2.9922,4.3838 3.1028,4.3747 3.251,4.3749 V 3.8528 C 2.9355,3.871 2.643,3.8803 2.3734,3.8803 H 2.3007 C 2.0662,3.8803 1.7995,3.871 1.5001,3.8528 v 0.5221 c 0.1374,-2e-4 0.2481,10e-4 0.3315,0.0037 0.0837,0.0025 0.1673,0.0091 0.2508,0.0199 0.0405,0.0103 0.0775,0.0186 0.1111,0.0253 0.0339,0.0063 0.056,0.0164 0.0668,0.0296 L 3.1377,5.6233 2.1349,7.0484 H 1.5406 V 7.5705 C 1.7347,7.5624 1.9018,7.557 2.0419,7.5546 2.1822,7.5519 2.3238,7.5506 2.4666,7.5509 H 2.8143 C 2.9247,7.5506 3.0331,7.5519 3.1396,7.5546 3.2461,7.557 3.3803,7.5624 3.542,7.5705 V 7.0484 H 3.2348 L 3.7079,6.381 4.2254,7.068 C 4.22,7.0599 4.2173,7.0508 4.2173,7.0405 4.2173,7.0194 4.2241,7.005 4.2376,6.9974 4.2133,7.0023 4.1863,7.0101 4.1567,7.0209 4.084,7.0391 3.9761,7.0481 3.8333,7.0484 V 7.5705 C 4.0165,7.5624 4.1743,7.557 4.3063,7.5546 4.4383,7.5519 4.5706,7.5506 4.7026,7.5509 H 4.7755 C 4.8967,7.5506 5.0166,7.5519 5.1352,7.5546 5.2539,7.557 5.4021,7.5624 5.58,7.5705 V 7.0484 C 5.4426,7.0481 5.3314,7.0467 5.2465,7.0442 5.1617,7.0415 5.0772,7.0351 4.9936,7.0248 4.9587,7.0194 4.9244,7.014 4.8905,7.0089 4.8569,7.0035 4.8361,6.9944 4.828,6.9816 L 4.0313,5.9295 5.1231,4.3749 h 0.6024 z" /></g></g></g><g
                 transform="matrix(2.007,0,0,3.5018,84.944,638.79)"
                 id="g70"><g
                   transform="scale(9.9649,5.7114)"
                   id="g72"><g
                     clip-path="url(#clipPath78)"
                     id="g74"><path
                       id="path80"
                       style="fill:#000000;fill-opacity:1;fill-rule:evenodd;stroke:none"
                       d="M 5.7255,3.8528 C 5.3832,3.871 5.0718,3.8803 4.7914,3.8803 H 4.7835 C 4.4518,3.8803 4.0973,3.871 3.7199,3.8528 V 4.3749 H 4.0273 L 3.4652,5.1719 2.8548,4.3632 c 0.0054,0.0076 0.0081,0.0181 0.0081,0.0314 0,0.026 -0.0054,0.0402 -0.0162,0.0431 C 2.8737,4.4245 2.8977,4.4127 2.9193,4.4024 2.9922,4.3838 3.1028,4.3747 3.251,4.3749 V 3.8528 C 2.9355,3.871 2.643,3.8803 2.3734,3.8803 H 2.3007 C 2.0662,3.8803 1.7995,3.871 1.5001,3.8528 v 0.5221 c 0.1374,-2e-4 0.2481,10e-4 0.3315,0.0037 0.0837,0.0025 0.1673,0.0091 0.2508,0.0199 0.0405,0.0103 0.0775,0.0186 0.1111,0.0253 0.0339,0.0063 0.056,0.0164 0.0668,0.0296 L 3.1377,5.6233 2.1349,7.0484 H 1.5406 V 7.5705 C 1.7347,7.5624 1.9018,7.557 2.0419,7.5546 2.1822,7.5519 2.3238,7.5506 2.4666,7.5509 H 2.8143 C 2.9247,7.5506 3.0331,7.5519 3.1396,7.5546 3.2461,7.557 3.3803,7.5624 3.542,7.5705 V 7.0484 H 3.2348 L 3.7079,6.381 4.2254,7.068 C 4.22,7.0599 4.2173,7.0508 4.2173,7.0405 4.2173,7.0194 4.2241,7.005 4.2376,6.9974 4.2133,7.0023 4.1863,7.0101 4.1567,7.0209 4.084,7.0391 3.9761,7.0481 3.8333,7.0484 V 7.5705 C 4.0165,7.5624 4.1743,7.557 4.3063,7.5546 4.4383,7.5519 4.5706,7.5506 4.7026,7.5509 H 4.7755 C 4.8967,7.5506 5.0166,7.5519 5.1352,7.5546 5.2539,7.557 5.4021,7.5624 5.58,7.5705 V 7.0484 C 5.4426,7.0481 5.3314,7.0467 5.2465,7.0442 5.1617,7.0415 5.0772,7.0351 4.9936,7.0248 4.9587,7.0194 4.9244,7.014 4.8905,7.0089 4.8569,7.0035 4.8361,6.9944 4.828,6.9816 L 4.0313,5.9295 5.1231,4.3749 h 0.6024 z" /></g></g></g><g
                 transform="matrix(2.007,0,0,3.5018,3482.44,560.04)"
                 id="g82"><g
                   transform="scale(9.9649,5.7114)"
                   id="g84"><g
                     clip-path="url(#clipPath90)"
                     id="g86"><path
                       id="path92"
                       style="fill:#000000;fill-opacity:1;fill-rule:evenodd;stroke:none"
                       d="M 5.7255,3.8528 C 5.3832,3.871 5.0718,3.8803 4.7914,3.8803 H 4.7835 C 4.4518,3.8803 4.0973,3.871 3.7199,3.8528 V 4.3749 H 4.0273 L 3.4652,5.1719 2.8548,4.3632 c 0.0054,0.0076 0.0081,0.0181 0.0081,0.0314 0,0.026 -0.0054,0.0402 -0.0162,0.0431 C 2.8737,4.4245 2.8977,4.4127 2.9193,4.4024 2.9922,4.3838 3.1028,4.3747 3.251,4.3749 V 3.8528 C 2.9355,3.871 2.643,3.8803 2.3734,3.8803 H 2.3007 C 2.0662,3.8803 1.7995,3.871 1.5001,3.8528 v 0.5221 c 0.1374,-2e-4 0.2481,10e-4 0.3315,0.0037 0.0837,0.0025 0.1673,0.0091 0.2508,0.0199 0.0405,0.0103 0.0775,0.0186 0.1111,0.0253 0.0339,0.0063 0.056,0.0164 0.0668,0.0296 L 3.1377,5.6233 2.1349,7.0484 H 1.5406 V 7.5705 C 1.7347,7.5624 1.9018,7.557 2.0419,7.5546 2.1822,7.5519 2.3238,7.5506 2.4666,7.5509 H 2.8143 C 2.9247,7.5506 3.0331,7.5519 3.1396,7.5546 3.2461,7.557 3.3803,7.5624 3.542,7.5705 V 7.0484 H 3.2348 L 3.7079,6.381 4.2254,7.068 C 4.22,7.0599 4.2173,7.0508 4.2173,7.0405 4.2173,7.0194 4.2241,7.005 4.2376,6.9974 4.2133,7.0023 4.1863,7.0101 4.1567,7.0209 4.084,7.0391 3.9761,7.0481 3.8333,7.0484 V 7.5705 C 4.0165,7.5624 4.1743,7.557 4.3063,7.5546 4.4383,7.5519 4.5706,7.5506 4.7026,7.5509 H 4.7755 C 4.8967,7.5506 5.0166,7.5519 5.1352,7.5546 5.2539,7.557 5.4021,7.5624 5.58,7.5705 V 7.0484 C 5.4426,7.0481 5.3314,7.0467 5.2465,7.0442 5.1617,7.0415 5.0772,7.0351 4.9936,7.0248 4.9587,7.0194 4.9244,7.014 4.8905,7.0089 4.8569,7.0035 4.8361,6.9944 4.828,6.9816 L 4.0313,5.9295 5.1231,4.3749 h 0.6024 z" /></g></g></g><g
                 transform="matrix(7.6853,0,0,8.7544,2051.68,449.69)"
                 id="g94"><g
                   transform="scale(2.6024,2.2846)"
                   id="g96"><g
                     clip-path="url(#clipPath102)"
                     id="g98"><path
                       id="path104"
                       style="fill:#000000;fill-opacity:1;fill-rule:evenodd;stroke:none"
                       d="m 10.166,21.378 c 0.235,-0.001 0.351,-0.082 0.351,-0.241 0,-0.096 -0.027,-0.196 -0.082,-0.302 C 10.048,19.936 9.5376,19.112 8.902,18.363 L 8.7575,18.202 c 0,-0.015 1.6905,-0.021 5.0725,-0.02 3.368,-10e-4 5.052,0.005 5.052,0.02 l -0.146,0.161 c -0.635,0.749 -1.145,1.573 -1.531,2.472 -0.07,0.16 -0.105,0.267 -0.105,0.322 0,0.133 0.152,0.2 0.456,0.201 0.194,-0.015 0.339,-0.136 0.435,-0.362 0.94,-2.011 2.327,-3.485 4.162,-4.422 0.455,-0.256 0.82,-0.423 1.097,-0.503 0.152,-0.055 0.227,-0.135 0.227,-0.241 0,-0.108 -0.075,-0.188 -0.227,-0.241 -0.277,-0.082 -0.642,-0.249 -1.097,-0.502 -1.918,-1.02 -3.305,-2.494 -4.162,-4.422 -0.096,-0.229 -0.241,-0.35 -0.435,-0.362 -0.304,0 -0.456,0.066 -0.456,0.201 0,0.053 0.035,0.161 0.105,0.321 0.386,0.897 0.896,1.721 1.531,2.473 l 0.146,0.16 c 0,0.013 -1.684,0.019 -5.052,0.021 -3.382,-0.002 -5.0725,-0.008 -5.0725,-0.021 l 0.1445,-0.16 c 0.6356,-0.752 1.146,-1.576 1.533,-2.473 0.069,-0.16 0.103,-0.268 0.103,-0.321 0,-0.135 -0.151,-0.201 -0.455,-0.201 -0.1936,0.012 -0.3381,0.133 -0.4348,0.362 -0.9384,2.008 -2.3253,3.482 -4.162,4.422 -0.4547,0.253 -0.8203,0.42 -1.0967,0.502 -0.1382,0.053 -0.2073,0.133 -0.2073,0.241 0,0.106 0.0691,0.186 0.2073,0.241 0.2764,0.08 0.642,0.247 1.0967,0.503 1.9045,1.018 3.2989,2.505 4.1821,4.462 0.0829,0.174 0.1457,0.274 0.1859,0.302 z m 9.522,-4 H 7.9497 C 7.4673,16.908 6.8053,16.432 5.9623,15.951 L 5.7551,15.83 5.9623,15.71 c 0.7324,-0.43 1.3329,-0.852 1.8015,-1.267 l 0.1859,-0.16 H 19.688 l 0.187,0.16 c 0.47,0.415 1.071,0.837 1.802,1.267 l 0.206,0.12 -0.206,0.121 c -0.731,0.427 -1.332,0.849 -1.802,1.266 z" /></g></g></g></g></g></g></g></g></g></svg>