<?xml version="1.0" encoding="UTF-8" standalone="no"?>
<!DOCTYPE svg PUBLIC "-//W3C//DTD SVG 1.1//EN" "http://www.w3.org/Graphics/SVG/1.1/DTD/svg11.dtd">
<svg xmlns="http://www.w3.org/2000/svg" xmlns:xlink="http://www.w3.org/1999/xlink" version="1.1" width="305.04pt" height="198pt" viewBox="0 0 305.04 198">
<g enable-background="new">
<g>
<g id="Layer-1" data-name="P">
<clipPath id="cp0">
<path transform="matrix(1,0,0,-1,0,198)" d="M .000004545 0 L 305.04 0 L 305.04 198 L .000004545 198 Z " fill-rule="evenodd"/>
</clipPath>
<g clip-path="url(#cp0)">
<text xml:space="preserve" transform="matrix(1 0 -0 1 0 198)" font-size="11.04" font-family="Calibri"><tspan y="-.12001" x="304.66"> </tspan></text>
</g>
</g>
<g id="Layer-1" data-name="P">
<clipPath id="cp1">
<path transform="matrix(1,0,0,-1,0,198)" d="M .000004545 .22719 L 304.65 .22719 L 304.65 197.9972 L .000004545 197.9972 Z " fill-rule="evenodd"/>
</clipPath>
<g clip-path="url(#cp1)">
<clipPath id="cp2">
<path transform="matrix(.06655255,0,0,-.06655496,0,197.77281)" d="M 0 0 L 4577.59 0 L 4577.59 2971.55 L 0 2971.55 Z " fill-rule="evenodd"/>
</clipPath>
<g clip-path="url(#cp2)">
<path transform="matrix(.06655255,0,0,-.06655496,0,197.77281)" stroke-width="15" stroke-linecap="round" stroke-linejoin="round" fill="none" stroke="#000000" d="M 112.5 1499.02 L 1612.51 1499.02 L 1612.51 2399.02 L 112.5 2399.02 Z "/>
<path transform="matrix(.06655255,0,0,-.06655496,0,197.77281)" stroke-width="15" stroke-linecap="round" stroke-linejoin="round" fill="none" stroke="#000000" d="M 3108.98 1499.02 L 2358.98 2399.02 L 3858.98 2399.02 Z "/>
<path transform="matrix(.06655255,0,0,-.06655496,0,197.77281)" stroke-width="15" stroke-linecap="round" stroke-linejoin="round" fill="none" stroke="#cc0000" d="M 112.5 2226.52 L 1612.5 2226.52 "/>
<path transform="matrix(.06655255,0,0,-.06655496,0,197.77281)" stroke-width="15" stroke-linecap="round" stroke-linejoin="round" fill="none" stroke="#00ff00" d="M 112.5 1949.02 L 1612.5 1949.02 "/>
<path transform="matrix(.06655255,0,0,-.06655496,0,197.77281)" stroke-width="15" stroke-linecap="round" stroke-linejoin="round" fill="none" stroke="#9900ff" d="M 112.5 1679.02 L 1612.5 1679.02 "/>
<path transform="matrix(.06655255,0,0,-.06655496,0,197.77281)" stroke-width="15" stroke-linecap="round" stroke-linejoin="round" fill="none" stroke="#cc0000" d="M 2505.1 2226.52 L 3715.1 2226.52 "/>
<path transform="matrix(.06655255,0,0,-.06655496,0,197.77281)" stroke-width="15" stroke-linecap="round" stroke-linejoin="round" fill="none" stroke="#00ff00" d="M 2745.46 1949.02 L 3475.1 1949.02 "/>
<path transform="matrix(.06655255,0,0,-.06655496,0,197.77281)" stroke-width="15" stroke-linecap="round" stroke-linejoin="round" fill="none" stroke="#9900ff" d="M 2956.81 1679.02 L 3261.15 1679.02 "/>
<clipPath id="cp3">
<path transform="matrix(1.3310537,0,0,-1.3310903,214.86157,112.62639)" d="M 0 0 L 10.068 0 L 10.068 15.758 L 0 15.758 Z " fill-rule="evenodd"/>
</clipPath>
<g clip-path="url(#cp3)">
<path transform="matrix(1.3310537,0,0,-1.3310903,214.86157,112.62639)" d="M 8.1918 9.8459 C 8.1918 9.5644 8.132 9.2951 8.0124 9.0384 C 7.8928 8.7813 7.7201 8.5648 7.4941 8.3885 C 7.2346 8.1885 6.9466 8.0477 6.6298 7.9661 C 6.3133 7.8842 5.9931 7.8435 5.6695 7.8438 L 4.497 7.8438 L 4.497 5.4687 L 5.4674 5.4687 L 5.4674 4.816 C 4.8341 4.8387 4.236 4.8504 3.6729 4.8504 C 3.1003 4.8504 2.5007 4.8387 1.8738 4.816 L 1.8738 5.4687 L 2.8442 5.4687 L 2.8442 11.244 L 1.8738 11.244 L 1.8738 11.892 L 5.6695 11.892 C 5.9931 11.892 6.3133 11.85 6.6298 11.767 C 6.9466 11.683 7.2346 11.54 7.4941 11.338 C 7.7302 11.154 7.9054 10.933 8.0201 10.675 C 8.1348 10.416 8.1918 10.14 8.1918 9.8459 Z M 6.4277 9.8459 C 6.4277 9.9437 6.4261 10.046 6.4228 10.152 C 6.4194 10.258 6.4127 10.361 6.4025 10.461 C 6.3924 10.561 6.3765 10.65 6.3544 10.729 C 6.3326 10.807 6.3013 10.868 6.2608 10.911 C 6.1498 11.044 6.0041 11.134 5.8238 11.178 C 5.6434 11.222 5.4573 11.244 5.2653 11.244 L 4.4464 11.244 L 4.4464 8.4424 L 5.2653 8.4424 C 5.4573 8.4421 5.6434 8.4642 5.8238 8.5084 C 6.0041 8.5525 6.1498 8.6449 6.2608 8.7859 C 6.3013 8.8283 6.3326 8.8887 6.3544 8.9672 C 6.3765 9.0457 6.3924 9.1331 6.4025 9.2297 C 6.4127 9.326 6.4194 9.4276 6.4228 9.534 C 6.4261 9.6401 6.4277 9.7441 6.4277 9.8459 Z " fill-rule="evenodd"/>
</g>
<path transform="matrix(.06655255,0,0,-.06655496,0,197.77281)" d="M 3144.98 1499.02 C 3144.98 1479.14 3128.86 1463.02 3108.98 1463.02 C 3089.1 1463.02 3072.98 1479.14 3072.98 1499.02 C 3072.98 1518.9 3089.1 1535.02 3108.98 1535.02 C 3128.86 1535.02 3144.98 1518.9 3144.98 1499.02 Z " fill-rule="evenodd"/>
<clipPath id="cp4">
<path transform="matrix(1.331068,0,0,-1.3310903,50.010248,118.72681)" d="M 0 0 L 10.356 0 L 10.356 15.758 L 0 15.758 Z " fill-rule="evenodd"/>
</clipPath>
<g clip-path="url(#cp4)">
<path transform="matrix(1.331068,0,0,-1.3310903,50.010248,118.72681)" d="M 8.4797 6.7887 C 8.4797 6.5136 8.426 6.2517 8.318 6.0032 C 8.2101 5.7545 8.0518 5.5371 7.8427 5.3509 C 7.6034 5.1577 7.3366 5.0209 7.0415 4.9408 C 6.7468 4.8608 6.4478 4.8209 6.1444 4.8209 L 1.8736 4.8209 L 1.8736 5.4687 L 2.844 5.4687 L 2.844 11.244 L 1.8736 11.244 L 1.8736 11.892 L 5.8565 11.892 C 6.1598 11.892 6.4579 11.855 6.7511 11.782 C 7.0443 11.708 7.309 11.581 7.5445 11.401 C 7.7568 11.238 7.9178 11.039 8.0273 10.805 C 8.1371 10.571 8.1917 10.325 8.1917 10.067 C 8.1917 9.8177 8.1352 9.5846 8.0224 9.3671 C 7.9095 9.1494 7.75 8.9657 7.5445 8.8154 C 7.2685 8.6286 7.1354 8.5369 7.1452 8.5406 C 7.0106 8.5565 7.0468 8.528 7.2541 8.4544 C 7.4614 8.3808 7.6559 8.2738 7.8377 8.1333 C 8.05 7.9695 8.2101 7.7698 8.318 7.5343 C 8.426 7.2987 8.4797 7.05 8.4797 6.7887 Z M 6.5389 10.067 C 6.5389 10.223 6.5281 10.376 6.506 10.525 C 6.484 10.674 6.4309 10.812 6.3466 10.94 C 6.2929 11.025 6.2214 11.097 6.1319 11.156 C 6.0426 11.215 5.9509 11.244 5.8565 11.244 L 4.3806 11.244 L 4.3806 8.7663 L 5.5734 8.7663 C 5.7117 8.766 5.8399 8.7961 5.9577 8.8568 C 6.0754 8.9172 6.18 9.0031 6.2708 9.1147 C 6.372 9.2454 6.4423 9.3923 6.4809 9.5561 C 6.5195 9.7195 6.5389 9.8898 6.5389 10.067 Z M 6.7661 6.7887 C 6.7661 6.9782 6.7536 7.1629 6.7284 7.3429 C 6.7033 7.5226 6.6434 7.6913 6.549 7.8487 C 6.4883 7.9597 6.411 8.0502 6.3165 8.1207 C 6.222 8.1909 6.1159 8.2262 5.9978 8.2265 L 4.3806 8.2265 L 4.3806 5.4687 L 5.8565 5.4687 C 5.9914 5.4684 6.1159 5.5003 6.2306 5.564 C 6.3453 5.6278 6.4395 5.7103 6.5134 5.8122 C 6.6112 5.9557 6.6778 6.1112 6.7131 6.278 C 6.7486 6.4449 6.7661 6.6151 6.7661 6.7887 Z " fill-rule="evenodd"/>
</g>
<path transform="matrix(.06655255,0,0,-.06655496,0,197.77281)" d="M 466.67 1499.02 L 1258.33 1499.02 L 1258.33 2399.02 L 466.67 2399.02 Z " fill="#555555" fill-opacity=".39216" fill-rule="evenodd"/>
<path transform="matrix(.06655255,0,0,-.06655496,0,197.77281)" d="M 341.67 120.9 L 1133.34 120.9 L 1133.34 1020.9 L 341.67 1020.9 Z " fill="#555555" fill-opacity=".39216" fill-rule="evenodd"/>
<clipPath id="cp5">
<path transform="matrix(1.3310665,0,0,-1.3310903,40.995038,169.76515)" d="M 0 0 L 11.402 0 L 11.402 15.758 L 0 15.758 Z " fill-rule="evenodd"/>
</clipPath>
<g clip-path="url(#cp5)">
<path transform="matrix(1.3310665,0,0,-1.3310903,40.995038,169.76515)" d="M 9.5244 5.9054 C 9.5244 5.7545 9.4993 5.6073 9.4487 5.4634 C 9.3984 5.3193 9.3233 5.1926 9.2239 5.0831 C 9.1245 4.9733 9.0083 4.8838 8.8752 4.8135 C 8.7421 4.743 8.5915 4.708 8.4228 4.708 C 8.1431 4.708 7.8661 4.7292 7.5913 4.7718 C 7.3168 4.8142 7.0708 4.8878 6.8534 4.9924 C 6.6362 5.0969 6.4584 5.2451 6.32 5.4365 C 6.182 5.6278 6.1127 5.8741 6.1127 6.1753 L 6.1127 7.0488 C 6.1127 7.3429 6.0397 7.5898 5.8931 7.7895 C 5.7465 7.9888 5.5603 8.0888 5.3343 8.0891 L 4.4449 8.0891 L 4.4449 5.4687 L 5.4153 5.4687 L 5.4153 4.816 C 4.7954 4.8387 4.2056 4.8504 3.6462 4.8504 C 3.08 4.8504 2.4887 4.8387 1.8722 4.816 L 1.8722 5.4687 L 2.8426 5.4687 L 2.8426 11.244 L 1.8722 11.244 L 1.8722 11.892 L 5.3343 11.892 C 5.7152 11.892 6.0845 11.854 6.4415 11.779 C 6.7985 11.704 7.1337 11.565 7.4472 11.362 C 7.6931 11.202 7.8903 10.998 8.0385 10.751 C 8.1869 10.504 8.2608 10.232 8.2608 9.9342 C 8.2608 9.6558 8.186 9.3981 8.036 9.161 C 7.8864 8.9237 7.6901 8.7317 7.4472 8.5847 C 7.1944 8.424 7.0024 8.3277 6.8709 8.2952 C 6.9991 8.2425 7.1693 8.1109 7.3815 7.8999 C 7.5938 7.6889 7.722 7.415 7.7655 7.0782 L 7.8818 6.2146 C 7.9259 5.8839 7.9848 5.6401 8.059 5.4831 C 8.1332 5.326 8.2544 5.2475 8.4228 5.2478 C 8.5442 5.2475 8.647 5.3079 8.731 5.4291 C 8.8154 5.5499 8.8574 5.7088 8.8574 5.9054 C 8.8574 5.9802 8.8828 6.044 8.9331 6.0965 C 8.9837 6.1486 9.0512 6.175 9.1352 6.1753 L 9.2466 6.1753 C 9.3242 6.175 9.3898 6.1486 9.4438 6.0965 C 9.4978 6.044 9.5244 5.9802 9.5244 5.9054 Z M 6.497 9.9342 C 6.497 10.124 6.4878 10.312 6.4694 10.498 C 6.451 10.685 6.3893 10.827 6.2848 10.925 C 6.14 11.066 5.9664 11.154 5.764 11.19 C 5.5619 11.226 5.353 11.244 5.1374 11.244 L 4.4449 11.244 L 4.4449 8.624 L 5.1374 8.624 C 5.353 8.6237 5.5619 8.6433 5.764 8.6826 C 5.9664 8.7218 6.14 8.8117 6.2848 8.9528 C 6.3893 9.0506 6.451 9.1929 6.4694 9.3794 C 6.4878 9.5659 6.497 9.7508 6.497 9.9342 Z " fill-rule="evenodd"/>
</g>
<path transform="matrix(.06655255,0,0,-.06655496,0,197.77281)" stroke-width="15" stroke-linecap="round" stroke-linejoin="round" fill="none" stroke="#000000" d="M 896.92 2125.44 L 1188.59 2725.44 "/>
<path transform="matrix(.06655255,0,0,-.06655496,0,197.77281)" stroke-width="15" stroke-linecap="round" stroke-linejoin="round" fill="none" stroke="#000000" d="M 1188.59 2725.44 L 1896.93 2725.44 "/>
<clipPath id="cp6">
<path transform="matrix(1.3310665,0,0,-1.3310903,126.71339,26.369812)" d="M 0 0 L 11.402 0 L 11.402 15.758 L 0 15.758 Z " fill-rule="evenodd"/>
</clipPath>
<g clip-path="url(#cp6)">
<path transform="matrix(1.3310665,0,0,-1.3310903,126.71339,26.369812)" d="M 9.5244 5.9054 C 9.5244 5.7545 9.4993 5.6073 9.4487 5.4634 C 9.3984 5.3193 9.3233 5.1926 9.2239 5.0831 C 9.1245 4.9733 9.0083 4.8838 8.8752 4.8135 C 8.7421 4.743 8.5915 4.708 8.4228 4.708 C 8.1431 4.708 7.8661 4.7292 7.5913 4.7718 C 7.3168 4.8142 7.0708 4.8878 6.8534 4.9924 C 6.6362 5.0969 6.4584 5.2451 6.32 5.4365 C 6.182 5.6278 6.1127 5.8741 6.1127 6.1753 L 6.1127 7.0488 C 6.1127 7.3429 6.0397 7.5898 5.8931 7.7895 C 5.7465 7.9888 5.5603 8.0888 5.3343 8.0891 L 4.4449 8.0891 L 4.4449 5.4687 L 5.4153 5.4687 L 5.4153 4.816 C 4.7954 4.8387 4.2056 4.8504 3.6462 4.8504 C 3.08 4.8504 2.4887 4.8387 1.8722 4.816 L 1.8722 5.4687 L 2.8426 5.4687 L 2.8426 11.244 L 1.8722 11.244 L 1.8722 11.892 L 5.3343 11.892 C 5.7152 11.892 6.0845 11.854 6.4415 11.779 C 6.7985 11.704 7.1337 11.565 7.4472 11.362 C 7.6931 11.202 7.8903 10.998 8.0385 10.751 C 8.1869 10.504 8.2608 10.232 8.2608 9.9342 C 8.2608 9.6558 8.186 9.3981 8.036 9.161 C 7.8864 8.9237 7.6901 8.7317 7.4472 8.5847 C 7.1944 8.424 7.0024 8.3277 6.8709 8.2952 C 6.9991 8.2425 7.1693 8.1109 7.3815 7.8999 C 7.5938 7.6889 7.722 7.415 7.7655 7.0782 L 7.8818 6.2146 C 7.9259 5.8839 7.9848 5.6401 8.059 5.4831 C 8.1332 5.326 8.2544 5.2475 8.4228 5.2478 C 8.5442 5.2475 8.647 5.3079 8.731 5.4291 C 8.8154 5.5499 8.8574 5.7088 8.8574 5.9054 C 8.8574 5.9802 8.8828 6.044 8.9331 6.0965 C 8.9837 6.1486 9.0512 6.175 9.1352 6.1753 L 9.2466 6.1753 C 9.3242 6.175 9.3898 6.1486 9.4438 6.0965 C 9.4978 6.044 9.5244 5.9802 9.5244 5.9054 Z M 6.497 9.9342 C 6.497 10.124 6.4878 10.312 6.4694 10.498 C 6.451 10.685 6.3893 10.827 6.2848 10.925 C 6.14 11.066 5.9664 11.154 5.764 11.19 C 5.5619 11.226 5.353 11.244 5.1374 11.244 L 4.4449 11.244 L 4.4449 8.624 L 5.1374 8.624 C 5.353 8.6237 5.5619 8.6433 5.764 8.6826 C 5.9664 8.7218 6.14 8.8117 6.2848 8.9528 C 6.3893 9.0506 6.451 9.1929 6.4694 9.3794 C 6.4878 9.5659 6.497 9.7508 6.497 9.9342 Z " fill-rule="evenodd"/>
</g>
<path transform="matrix(.06655255,0,0,-.06655496,0,197.77281)" d="M 3114.72 1499.02 L 2745.46 2399.02 L 3483.98 2399.02 Z " fill="#555555" fill-opacity=".39216" fill-rule="evenodd"/>
<path transform="matrix(.06655255,0,0,-.06655496,0,197.77281)" stroke-width="15" stroke-linecap="round" stroke-linejoin="round" fill="none" stroke="#000000" d="M 3108.98 2125.44 L 3336.63 2725.44 "/>
<path transform="matrix(.06655255,0,0,-.06655496,0,197.77281)" stroke-width="15" stroke-linecap="round" stroke-linejoin="round" fill="none" stroke="#000000" d="M 3336.63 2725.44 L 3715.1 2725.44 "/>
<clipPath id="cp7">
<path transform="matrix(1.3310628,0,0,-1.3310901,252.60286,26.771149)" d="M 0 0 L 24.571 0 L 24.571 16.361 L 0 16.361 Z " fill-rule="evenodd"/>
</clipPath>
<g clip-path="url(#cp7)">
<path transform="matrix(1.3310628,0,0,-1.3310901,252.60286,26.771149)" d="M 5.8968 11.369 C 5.8968 11.133 5.821 10.956 5.6695 10.837 C 5.518 10.717 5.3493 10.657 5.1641 10.658 C 4.9856 10.657 4.8203 10.717 4.6687 10.837 C 4.5172 10.956 4.4412 11.133 4.4412 11.369 C 4.4412 11.5 4.4691 11.613 4.5246 11.708 C 4.5804 11.802 4.6046 11.848 4.5979 11.845 C 4.6957 11.812 4.7227 11.796 4.6789 11.796 C 4.4329 11.796 4.2326 11.706 4.0774 11.526 C 3.9866 11.421 3.9241 11.304 3.8903 11.175 C 3.8566 11.046 3.8397 10.903 3.8397 10.746 L 3.8397 9.7597 L 4.8506 9.7597 L 4.8506 9.112 L 3.8903 9.112 L 3.8903 5.7702 L 4.7798 5.7702 L 4.7798 5.1175 C 4.2443 5.1402 3.7302 5.1518 3.2383 5.1518 C 2.8104 5.1518 2.3556 5.1402 1.8735 5.1175 L 1.8735 5.7702 L 2.5915 5.7702 L 2.5915 9.112 L 1.9897 9.112 L 1.9897 9.7597 L 2.5915 9.7597 L 2.5915 10.746 C 2.5915 10.981 2.6464 11.201 2.7558 11.406 C 2.8653 11.61 3.0178 11.785 3.2131 11.929 C 3.449 12.089 3.6983 12.196 3.9612 12.252 C 4.224 12.308 4.4869 12.336 4.7497 12.336 C 4.8914 12.336 5.0313 12.314 5.1693 12.269 C 5.3073 12.225 5.4303 12.162 5.5382 12.078 C 5.6462 11.995 5.7327 11.892 5.7983 11.771 C 5.864 11.65 5.8968 11.516 5.8968 11.369 Z " fill-rule="evenodd"/>
<path transform="matrix(1.3310628,0,0,-1.3310901,252.60286,26.771149)" d="M 19.126 6.2069 C 19.126 6.056 19.1 5.9088 19.05 5.7649 C 18.999 5.6208 18.924 5.4941 18.825 5.3846 C 18.726 5.2748 18.609 5.1853 18.476 5.115 C 18.343 5.0445 18.193 5.0095 18.024 5.0095 C 17.744 5.0095 17.467 5.0307 17.192 5.0733 C 16.918 5.1157 16.672 5.1893 16.454 5.2939 C 16.237 5.3984 16.059 5.5466 15.921 5.738 C 15.783 5.9293 15.714 6.1756 15.714 6.4768 L 15.714 7.3503 C 15.714 7.6444 15.641 7.8913 15.494 8.091 C 15.348 8.2903 15.161 8.3903 14.935 8.3906 L 14.046 8.3906 L 14.046 5.7702 L 15.016 5.7702 L 15.016 5.1175 C 14.396 5.1402 13.807 5.1518 13.247 5.1518 C 12.681 5.1518 12.09 5.1402 11.473 5.1175 L 11.473 5.7702 L 12.444 5.7702 L 12.444 11.546 L 11.473 11.546 L 11.473 12.194 L 14.935 12.194 C 15.316 12.193 15.686 12.156 16.043 12.081 C 16.4 12.005 16.735 11.866 17.048 11.664 C 17.294 11.503 17.491 11.299 17.64 11.052 C 17.788 10.805 17.862 10.533 17.862 10.236 C 17.862 9.9573 17.787 9.6996 17.637 9.4625 C 17.487 9.2252 17.291 9.0332 17.048 8.8862 C 16.795 8.7255 16.604 8.6292 16.472 8.5967 C 16.6 8.544 16.77 8.4124 16.983 8.2014 C 17.195 7.9904 17.323 7.7165 17.367 7.3797 L 17.483 6.5161 C 17.527 6.1854 17.586 5.9416 17.66 5.7846 C 17.734 5.6275 17.855 5.549 18.024 5.5493 C 18.145 5.549 18.248 5.6094 18.332 5.7306 C 18.416 5.8514 18.458 6.0103 18.458 6.2069 C 18.458 6.2817 18.484 6.3455 18.534 6.398 C 18.585 6.4501 18.652 6.4765 18.736 6.4768 L 18.848 6.4768 C 18.925 6.4765 18.991 6.4501 19.045 6.398 C 19.099 6.3455 19.126 6.2817 19.126 6.2069 Z M 16.098 10.236 C 16.098 10.425 16.089 10.613 16.07 10.8 C 16.052 10.986 15.99 11.129 15.886 11.227 C 15.741 11.367 15.567 11.455 15.365 11.492 C 15.163 11.528 14.954 11.546 14.738 11.546 L 14.046 11.546 L 14.046 8.9255 L 14.738 8.9255 C 14.954 8.9252 15.163 8.9448 15.365 8.9841 C 15.567 9.0233 15.741 9.1132 15.886 9.2543 C 15.99 9.3521 16.052 9.4944 16.07 9.6809 C 16.089 9.8674 16.098 10.052 16.098 10.236 Z " fill-rule="evenodd"/>
<path transform="matrix(1.3310628,0,0,-1.3310901,252.60286,26.771149)" d="M 10.383 3.3825 C 6.8452 5.5416 6.8452 10.819 10.383 12.978 L 10.897 12.978 C 7.6814 10.819 7.6814 5.5416 10.897 3.3825 " fill-rule="evenodd"/>
<path transform="matrix(1.3310628,0,0,-1.3310901,252.60286,26.771149)" d="M 20.222 12.978 C 23.759 10.819 23.759 5.5416 20.222 3.3825 L 19.707 3.3825 C 22.923 5.5416 22.923 10.819 19.707 12.978 " fill-rule="evenodd"/>
</g>
<path transform="matrix(.06655255,0,0,-.06655496,0,197.77281)" d="M 2235 120.9 L 1865.74 1020.9 L 2604.26 1020.9 Z " fill="#555555" fill-opacity=".39216" fill-rule="evenodd"/>
<clipPath id="cp8">
<path transform="matrix(1.3310628,0,0,-1.3310901,131.89318,162.16857)" d="M 0 0 L 24.571 0 L 24.571 16.361 L 0 16.361 Z " fill-rule="evenodd"/>
</clipPath>
<g clip-path="url(#cp8)">
<path transform="matrix(1.3310628,0,0,-1.3310901,131.89318,162.16857)" d="M 5.8968 11.369 C 5.8968 11.133 5.821 10.956 5.6695 10.837 C 5.518 10.717 5.3493 10.657 5.1641 10.658 C 4.9856 10.657 4.8203 10.717 4.6687 10.837 C 4.5172 10.956 4.4412 11.133 4.4412 11.369 C 4.4412 11.5 4.4691 11.613 4.5246 11.708 C 4.5804 11.802 4.6046 11.848 4.5979 11.845 C 4.6957 11.812 4.7227 11.796 4.6789 11.796 C 4.4329 11.796 4.2326 11.706 4.0774 11.526 C 3.9866 11.421 3.9241 11.304 3.8903 11.175 C 3.8566 11.046 3.8397 10.903 3.8397 10.746 L 3.8397 9.7597 L 4.8506 9.7597 L 4.8506 9.112 L 3.8903 9.112 L 3.8903 5.7702 L 4.7798 5.7702 L 4.7798 5.1175 C 4.2443 5.1402 3.7302 5.1518 3.2383 5.1518 C 2.8104 5.1518 2.3556 5.1402 1.8735 5.1175 L 1.8735 5.7702 L 2.5915 5.7702 L 2.5915 9.112 L 1.9897 9.112 L 1.9897 9.7597 L 2.5915 9.7597 L 2.5915 10.746 C 2.5915 10.981 2.6464 11.201 2.7558 11.406 C 2.8653 11.61 3.0178 11.785 3.2131 11.929 C 3.449 12.089 3.6983 12.196 3.9612 12.252 C 4.224 12.308 4.4869 12.336 4.7497 12.336 C 4.8914 12.336 5.0313 12.314 5.1693 12.269 C 5.3073 12.225 5.4303 12.162 5.5382 12.078 C 5.6462 11.995 5.7327 11.892 5.7983 11.771 C 5.864 11.65 5.8968 11.516 5.8968 11.369 Z " fill-rule="evenodd"/>
<path transform="matrix(1.3310628,0,0,-1.3310901,131.89318,162.16857)" d="M 19.126 6.2069 C 19.126 6.056 19.1 5.9088 19.05 5.7649 C 18.999 5.6208 18.924 5.4941 18.825 5.3846 C 18.726 5.2748 18.609 5.1853 18.476 5.115 C 18.343 5.0445 18.193 5.0095 18.024 5.0095 C 17.744 5.0095 17.467 5.0307 17.192 5.0733 C 16.918 5.1157 16.672 5.1893 16.454 5.2939 C 16.237 5.3984 16.059 5.5466 15.921 5.738 C 15.783 5.9293 15.714 6.1756 15.714 6.4768 L 15.714 7.3503 C 15.714 7.6444 15.641 7.8913 15.494 8.091 C 15.348 8.2903 15.161 8.3903 14.935 8.3906 L 14.046 8.3906 L 14.046 5.7702 L 15.016 5.7702 L 15.016 5.1175 C 14.396 5.1402 13.807 5.1518 13.247 5.1518 C 12.681 5.1518 12.09 5.1402 11.473 5.1175 L 11.473 5.7702 L 12.444 5.7702 L 12.444 11.546 L 11.473 11.546 L 11.473 12.194 L 14.935 12.194 C 15.316 12.193 15.686 12.156 16.043 12.081 C 16.4 12.005 16.735 11.866 17.048 11.664 C 17.294 11.503 17.491 11.299 17.64 11.052 C 17.788 10.805 17.862 10.533 17.862 10.236 C 17.862 9.9573 17.787 9.6996 17.637 9.4625 C 17.487 9.2252 17.291 9.0332 17.048 8.8862 C 16.795 8.7255 16.604 8.6292 16.472 8.5967 C 16.6 8.544 16.77 8.4124 16.983 8.2014 C 17.195 7.9904 17.323 7.7165 17.367 7.3797 L 17.483 6.5161 C 17.527 6.1854 17.586 5.9416 17.66 5.7846 C 17.734 5.6275 17.855 5.549 18.024 5.5493 C 18.145 5.549 18.248 5.6094 18.332 5.7306 C 18.416 5.8514 18.458 6.0103 18.458 6.2069 C 18.458 6.2817 18.484 6.3455 18.534 6.398 C 18.585 6.4501 18.652 6.4765 18.736 6.4768 L 18.848 6.4768 C 18.925 6.4765 18.991 6.4501 19.045 6.398 C 19.099 6.3455 19.126 6.2817 19.126 6.2069 Z M 16.098 10.236 C 16.098 10.425 16.089 10.613 16.07 10.8 C 16.052 10.986 15.99 11.129 15.886 11.227 C 15.741 11.367 15.567 11.455 15.365 11.492 C 15.163 11.528 14.954 11.546 14.738 11.546 L 14.046 11.546 L 14.046 8.9255 L 14.738 8.9255 C 14.954 8.9252 15.163 8.9448 15.365 8.9841 C 15.567 9.0233 15.741 9.1132 15.886 9.2543 C 15.99 9.3521 16.052 9.4944 16.07 9.6809 C 16.089 9.8674 16.098 10.052 16.098 10.236 Z " fill-rule="evenodd"/>
<path transform="matrix(1.3310628,0,0,-1.3310901,131.89318,162.16857)" d="M 10.383 3.3825 C 6.8452 5.5416 6.8452 10.819 10.383 12.978 L 10.897 12.978 C 7.6814 10.819 7.6814 5.5416 10.897 3.3825 " fill-rule="evenodd"/>
<path transform="matrix(1.3310628,0,0,-1.3310901,131.89318,162.16857)" d="M 20.222 12.978 C 23.759 10.819 23.759 5.5416 20.222 3.3825 L 19.707 3.3825 C 22.923 5.5416 22.923 10.819 19.707 12.978 " fill-rule="evenodd"/>
</g>
<path transform="matrix(.06655255,0,0,-.06655496,0,197.77281)" d="M 3319.27 120.9 L 4110.94 120.9 L 4110.94 1020.9 L 3319.27 1020.9 Z " fill="#555555" fill-opacity=".39216" fill-rule="evenodd"/>
<path transform="matrix(.06655255,0,0,-.06655496,0,197.77281)" stroke-width="15" stroke-linecap="round" stroke-linejoin="round" fill="none" stroke="#000000" d="M 2965.1 120.9 L 4465.1 120.9 "/>
<clipPath id="cp9">
<path transform="matrix(1.3309708,0,0,-1.3310986,215.94773,189.62715)" d="M 0 0 L 46.283 0 L 46.283 16.964 L 0 16.964 Z " fill-rule="evenodd"/>
</clipPath>
<g clip-path="url(#cp9)">
<path transform="matrix(1.3309708,0,0,-1.3310986,215.94773,189.62715)" d="M 5.8968 11.671 C 5.8968 11.435 5.821 11.257 5.6695 11.138 C 5.518 11.018 5.3493 10.959 5.1641 10.959 C 4.9856 10.959 4.8203 11.018 4.6687 11.138 C 4.5172 11.257 4.4412 11.435 4.4412 11.671 C 4.4412 11.801 4.4691 11.914 4.5246 12.009 C 4.5804 12.104 4.6046 12.15 4.5979 12.147 C 4.6957 12.114 4.7227 12.097 4.6789 12.098 C 4.4329 12.097 4.2326 12.008 4.0774 11.828 C 3.9866 11.723 3.9241 11.606 3.8903 11.477 C 3.8566 11.347 3.8397 11.204 3.8397 11.048 L 3.8397 10.061 L 4.8506 10.061 L 4.8506 9.4135 L 3.8903 9.4135 L 3.8903 6.0717 L 4.7798 6.0717 L 4.7798 5.419 C 4.2443 5.4417 3.7302 5.4534 3.2383 5.4534 C 2.8104 5.4534 2.3556 5.4417 1.8735 5.419 L 1.8735 6.0717 L 2.5915 6.0717 L 2.5915 9.4135 L 1.9897 9.4135 L 1.9897 10.061 L 2.5915 10.061 L 2.5915 11.048 C 2.5915 11.283 2.6464 11.503 2.7558 11.707 C 2.8653 11.912 3.0178 12.086 3.2131 12.23 C 3.449 12.39 3.6983 12.498 3.9612 12.554 C 4.224 12.609 4.4869 12.637 4.7497 12.638 C 4.8914 12.637 5.0313 12.615 5.1693 12.571 C 5.3073 12.527 5.4303 12.463 5.5382 12.38 C 5.6462 12.296 5.7327 12.194 5.7983 12.073 C 5.864 11.952 5.8968 11.818 5.8968 11.671 Z " fill-rule="evenodd"/>
<path transform="matrix(1.3309708,0,0,-1.3310986,215.94773,189.62715)" stroke-width=".22512" stroke-linecap="round" stroke-linejoin="round" fill="none" stroke="#000000" d="M 6.7023 11.241 L 9.1449 11.241 "/>
<path transform="matrix(1.3309708,0,0,-1.3310986,215.94773,189.62715)" d="M 12.546 9.5562 C 12.157 9.5672 11.779 9.5727 11.411 9.5727 C 11.043 9.5727 10.665 9.5672 10.276 9.5562 L 10.276 9.7925 L 10.495 9.7925 C 10.565 9.7923 10.63 9.7932 10.691 9.7951 C 10.753 9.7968 10.811 9.8014 10.866 9.8088 C 10.921 9.816 10.968 9.8234 11.008 9.831 C 11.042 9.8363 11.07 9.8531 11.092 9.8817 C 11.115 9.91 11.126 9.9416 11.126 9.9766 L 11.126 13.074 C 11.02 13.028 10.89 12.993 10.736 12.969 C 10.581 12.945 10.412 12.933 10.228 12.934 L 10.228 13.167 C 10.482 13.167 10.716 13.194 10.931 13.248 C 11.145 13.302 11.331 13.403 11.487 13.552 L 11.585 13.552 C 11.655 13.552 11.69 13.521 11.69 13.461 L 11.69 9.9766 C 11.69 9.9399 11.7 9.9078 11.722 9.8803 C 11.743 9.8528 11.774 9.8363 11.814 9.831 C 11.847 9.8234 11.891 9.816 11.944 9.8088 C 11.996 9.8014 12.056 9.7968 12.123 9.7951 C 12.189 9.7932 12.254 9.7923 12.318 9.7925 L 12.546 9.7925 L 12.546 9.5562 Z " fill-rule="evenodd"/>
<path transform="matrix(1.3309708,0,0,-1.3310986,215.94773,189.62715)" d="M 22.722 11.671 C 22.722 11.435 22.646 11.257 22.495 11.138 C 22.343 11.018 22.175 10.959 21.989 10.959 C 21.811 10.959 21.646 11.018 21.494 11.138 C 21.343 11.257 21.266 11.435 21.266 11.671 C 21.266 11.801 21.294 11.914 21.35 12.009 C 21.406 12.104 21.43 12.15 21.423 12.147 C 21.521 12.114 21.548 12.097 21.504 12.098 C 21.258 12.097 21.058 12.008 20.903 11.828 C 20.812 11.723 20.749 11.606 20.716 11.477 C 20.682 11.347 20.665 11.204 20.665 11.048 L 20.665 10.061 L 21.676 10.061 L 21.676 9.4135 L 20.716 9.4135 L 20.716 6.0717 L 21.605 6.0717 L 21.605 5.419 C 21.07 5.4417 20.556 5.4534 20.064 5.4534 C 19.636 5.4534 19.181 5.4417 18.699 5.419 L 18.699 6.0717 L 19.417 6.0717 L 19.417 9.4135 L 18.815 9.4135 L 18.815 10.061 L 19.417 10.061 L 19.417 11.048 C 19.417 11.283 19.472 11.503 19.581 11.707 C 19.691 11.912 19.843 12.086 20.038 12.23 C 20.274 12.39 20.524 12.498 20.786 12.554 C 21.049 12.609 21.312 12.637 21.575 12.638 C 21.717 12.637 21.857 12.615 21.995 12.571 C 22.133 12.527 22.256 12.463 22.364 12.38 C 22.471 12.296 22.558 12.194 22.624 12.073 C 22.689 11.952 22.722 11.818 22.722 11.671 Z " fill-rule="evenodd"/>
<path transform="matrix(1.3309708,0,0,-1.3310986,215.94773,189.62715)" d="M 35.951 6.5084 C 35.951 6.3575 35.926 6.2103 35.875 6.0664 C 35.825 5.9223 35.75 5.7956 35.65 5.6861 C 35.551 5.5763 35.435 5.4868 35.301 5.4165 C 35.168 5.346 35.018 5.311 34.849 5.311 C 34.569 5.311 34.292 5.3322 34.018 5.3748 C 33.743 5.4172 33.497 5.4908 33.28 5.5954 C 33.063 5.6999 32.885 5.8481 32.746 6.0395 C 32.608 6.2308 32.539 6.4771 32.539 6.7783 L 32.539 7.6518 C 32.539 7.9459 32.466 8.1928 32.319 8.3925 C 32.173 8.5918 31.987 8.6918 31.761 8.6921 L 30.871 8.6921 L 30.871 6.0717 L 31.842 6.0717 L 31.842 5.419 C 31.222 5.4417 30.632 5.4534 30.073 5.4534 C 29.506 5.4534 28.915 5.4417 28.299 5.419 L 28.299 6.0717 L 29.269 6.0717 L 29.269 11.847 L 28.299 11.847 L 28.299 12.495 L 31.761 12.495 C 32.142 12.495 32.511 12.457 32.868 12.382 C 33.225 12.307 33.56 12.168 33.873 11.965 C 34.119 11.805 34.317 11.601 34.465 11.354 C 34.613 11.107 34.687 10.835 34.687 10.537 C 34.687 10.259 34.612 10.001 34.462 9.764 C 34.313 9.5267 34.116 9.3347 33.873 9.1877 C 33.621 9.027 33.429 8.9307 33.297 8.8982 C 33.425 8.8455 33.596 8.7139 33.808 8.5029 C 34.02 8.2919 34.148 8.018 34.192 7.6812 L 34.308 6.8176 C 34.352 6.4869 34.411 6.2431 34.485 6.0861 C 34.56 5.929 34.681 5.8505 34.849 5.8508 C 34.971 5.8505 35.073 5.9109 35.157 6.0321 C 35.242 6.1529 35.284 6.3118 35.284 6.5084 C 35.284 6.5832 35.309 6.647 35.359 6.6995 C 35.41 6.7516 35.478 6.778 35.562 6.7783 L 35.673 6.7783 C 35.751 6.778 35.816 6.7516 35.87 6.6995 C 35.924 6.647 35.951 6.5832 35.951 6.5084 Z M 32.923 10.537 C 32.923 10.727 32.914 10.915 32.896 11.101 C 32.877 11.288 32.816 11.43 32.711 11.528 C 32.566 11.669 32.393 11.757 32.19 11.793 C 31.988 11.829 31.779 11.847 31.564 11.847 L 30.871 11.847 L 30.871 9.227 L 31.564 9.227 C 31.779 9.2267 31.988 9.2463 32.19 9.2856 C 32.393 9.3248 32.566 9.4147 32.711 9.5558 C 32.816 9.6536 32.877 9.7959 32.896 9.9824 C 32.914 10.169 32.923 10.354 32.923 10.537 Z " fill-rule="evenodd"/>
<path transform="matrix(1.3309708,0,0,-1.3310986,215.94773,189.62715)" d="M 27.208 3.684 C 23.67 5.8431 23.67 11.121 27.208 13.28 L 27.723 13.28 C 24.507 11.121 24.507 5.8431 27.723 3.684 " fill-rule="evenodd"/>
<path transform="matrix(1.3309708,0,0,-1.3310986,215.94773,189.62715)" d="M 37.047 13.28 C 40.584 11.121 40.584 5.8431 37.047 3.684 L 36.532 3.684 C 39.748 5.8431 39.748 11.121 36.532 13.28 " fill-rule="evenodd"/>
<path transform="matrix(1.3309708,0,0,-1.3310986,215.94773,189.62715)" d="M 17.628 3.3825 C 14.091 5.6773 14.091 11.287 17.628 13.581 L 18.143 13.581 C 14.927 11.287 14.927 5.6773 18.143 3.3825 " fill-rule="evenodd"/>
<path transform="matrix(1.3309708,0,0,-1.3310986,215.94773,189.62715)" d="M 41.912 13.581 C 45.45 11.287 45.45 5.6773 41.912 3.3825 L 41.398 3.3825 C 44.614 5.6773 44.614 11.287 41.398 13.581 " fill-rule="evenodd"/>
</g>
<path transform="matrix(.06655255,0,0,-.06655496,0,197.77281)" stroke-width="15" stroke-linecap="round" stroke-linejoin="round" fill="none" stroke="#000000" d="M 341.67 1020.9 L 1133.33 1020.9 "/>
<path transform="matrix(.06655255,0,0,-.06655496,0,197.77281)" stroke-width="15" stroke-linecap="round" stroke-linejoin="round" fill="none" stroke="#000000" d="M 341.67 120.9 L 1133.33 120.9 "/>
<path transform="matrix(.06655255,0,0,-.06655496,0,197.77281)" stroke-width="15" stroke-linecap="round" stroke-linejoin="round" fill="none" stroke="#000000" d="M 1881.33 1020.9 L 2588.67 1020.9 "/>
<path transform="matrix(.06655255,0,0,-.06655496,0,197.77281)" d="M 2271 120.9 C 2271 101.01 2254.88 84.896 2235 84.896 C 2215.12 84.896 2199 101.01 2199 120.9 C 2199 140.78 2215.12 156.9 2235 156.9 C 2254.88 156.9 2271 140.78 2271 120.9 Z " fill-rule="evenodd"/>
<path transform="matrix(.06655255,0,0,-.06655496,0,197.77281)" stroke-width="15" stroke-linecap="round" stroke-linejoin="round" fill="none" stroke="#000000" d="M 3319.27 1020.9 L 4110.93 1020.9 "/>
</g>
</g>
</g>
</g>
</g>
</svg>
