<?xml version="1.0" encoding="UTF-8" standalone="no"?>
<svg
   xmlns:dc="http://purl.org/dc/elements/1.1/"
   xmlns:cc="http://creativecommons.org/ns#"
   xmlns:rdf="http://www.w3.org/1999/02/22-rdf-syntax-ns#"
   xmlns:svg="http://www.w3.org/2000/svg"
   xmlns="http://www.w3.org/2000/svg"
   viewBox="0 0 534.71997 229.28"
   height="229.28"
   width="534.71997"
   xml:space="preserve"
   id="svg2"
   version="1.1"><metadata
     id="metadata8"><rdf:RDF><cc:Work
         rdf:about=""><dc:format>image/svg+xml</dc:format><dc:type
           rdf:resource="http://purl.org/dc/dcmitype/StillImage" /></cc:Work></rdf:RDF></metadata><defs
     id="defs6"><clipPath
       id="clipPath18"
       clipPathUnits="userSpaceOnUse"><path
         style="clip-rule:evenodd"
         id="path16"
         d="M 5.976e-6,0 H 401.04001 V 171.96 H 5.976e-6 Z" /></clipPath><clipPath
       id="clipPath26"
       clipPathUnits="userSpaceOnUse"><path
         style="clip-rule:evenodd"
         id="path24"
         d="M 5.976e-6,0.16005 H 400.53001 v 171.8 H 5.976e-6 Z" /></clipPath><clipPath
       id="clipPath36"
       clipPathUnits="userSpaceOnUse"><path
         id="path34"
         d="M 0,0 H 4296.42 V 1842.84 H 0 Z" /></clipPath><clipPath
       id="clipPath50"
       clipPathUnits="userSpaceOnUse"><path
         id="path48"
         d="M 0,0 H 9.0317 V 15.758 H 0 Z" /></clipPath><clipPath
       id="clipPath62"
       clipPathUnits="userSpaceOnUse"><path
         id="path60"
         d="M 0,0 H 8.951 V 15.758 H 0 Z" /></clipPath><clipPath
       id="clipPath78"
       clipPathUnits="userSpaceOnUse"><path
         id="path76"
         d="M 0,0 H 13.515 V 15.758 H 0 Z" /></clipPath><clipPath
       id="clipPath92"
       clipPathUnits="userSpaceOnUse"><path
         id="path90"
         d="M 0,0 H 7.4448 V 15.758 H 0 Z" /></clipPath><clipPath
       id="clipPath104"
       clipPathUnits="userSpaceOnUse"><path
         id="path102"
         d="M 0,0 H 10.533 V 15.758 H 0 Z" /></clipPath><clipPath
       id="clipPath116"
       clipPathUnits="userSpaceOnUse"><path
         id="path114"
         d="M 0,0 H 7.4448 V 15.758 H 0 Z" /></clipPath><clipPath
       id="clipPath128"
       clipPathUnits="userSpaceOnUse"><path
         id="path126"
         d="M 0,0 H 27.667 V 31.516 H 0 Z" /></clipPath></defs><g
     transform="matrix(1.3333333,0,0,-1.3333333,0,229.28)"
     id="g10"><g
       id="g12"><g
         clip-path="url(#clipPath18)"
         id="g14" /></g><g
       id="g20"><g
         clip-path="url(#clipPath26)"
         id="g22"><g
           transform="matrix(5.563,0,0,2.3861,0,0.16003)"
           id="g28"><g
             transform="scale(0.016758,0.03907)"
             id="g30"><g
               clip-path="url(#clipPath36)"
               id="g32"><path
                 id="path38"
                 style="fill:#000000;fill-opacity:1;fill-rule:nonzero;stroke:none"
                 d="m 122.88,383.49 h 2034.3 v -15 H 122.88 c -4.14,0 -7.5,3.36 -7.5,7.5 0,4.14 3.36,7.5 7.5,7.5 z m 2154.18,-7.5 -150,45 30,-37.5 v -15 l -30,-37.5 z" /><path
                 id="path40"
                 style="fill:#000000;fill-opacity:1;fill-rule:nonzero;stroke:none"
                 d="m 1089.81,310.37 v 1211.36 h 15 V 310.37 c 0,-4.15 -3.36,-7.5 -7.5,-7.5 -4.14,0 -7.5,3.35 -7.5,7.5 z m 7.5,1331.24 -45,-150 37.5,30 h 15 l 37.5,-30 z" /><g
                 transform="matrix(2.5088,0,0,4.3772,2203,160.29)"
                 id="g42"><g
                   transform="scale(7.9719,4.5691)"
                   id="g44"><g
                     clip-path="url(#clipPath50)"
                     id="g46"><path
                       id="path52"
                       style="fill:#000000;fill-opacity:1;fill-rule:evenodd;stroke:none"
                       d="M 7.1569,4.816 C 6.729,4.8387 6.3398,4.8504 5.9893,4.8504 H 5.9794 C 5.5648,4.8504 5.1216,4.8387 4.6499,4.816 V 5.4687 H 5.0342 L 4.3315,6.4648 3.5685,5.4539 c 0.0067,0.0095 0.0101,0.0227 0.0101,0.0393 0,0.0325 -0.0068,0.0503 -0.0203,0.054 C 3.5921,5.5306 3.6221,5.5159 3.6491,5.503 3.7402,5.4797 3.8785,5.4684 4.0638,5.4687 V 4.816 C 3.6694,4.8387 3.3038,4.8504 2.9667,4.8504 H 2.8759 C 2.5827,4.8504 2.2493,4.8387 1.8752,4.816 v 0.6527 c 0.1717,-3e-4 0.31,0.0012 0.4143,0.0046 0.1046,0.003 0.2092,0.0113 0.3135,0.0248 0.0506,0.0129 0.0969,0.0233 0.1389,0.0316 0.0423,0.008 0.0699,0.0205 0.0834,0.0371 L 3.9221,7.0292 2.6686,8.8105 H 1.9258 V 9.4631 C 2.1684,9.453 2.3772,9.4463 2.5524,9.4432 2.7278,9.4398 2.9048,9.4383 3.0833,9.4386 h 0.4345 c 0.1381,-3e-4 0.2736,0.0012 0.4067,0.0046 0.1331,0.0031 0.3009,0.0098 0.503,0.0199 V 8.8105 H 4.0435 L 4.6349,7.9763 5.2817,8.835 C 5.2749,8.8249 5.2716,8.8135 5.2716,8.8007 5.2716,8.7743 5.2802,8.7562 5.297,8.7467 5.2667,8.7528 5.2329,8.7626 5.1958,8.7761 5.105,8.7988 4.9701,8.8102 4.7916,8.8105 V 9.4631 C 5.0207,9.453 5.2179,9.4463 5.3829,9.4432 5.5479,9.4398 5.7132,9.4383 5.8782,9.4386 H 5.9693 C 6.1208,9.4383 6.2708,9.4398 6.4189,9.4432 6.5674,9.4463 6.7526,9.453 6.975,9.4631 V 8.8105 C 6.8032,8.8102 6.6643,8.8083 6.5582,8.8053 6.4521,8.8019 6.3466,8.7939 6.242,8.781 6.1984,8.7743 6.1555,8.7675 6.1132,8.7611 6.0711,8.7544 6.0451,8.743 6.0349,8.7271 L 5.0391,7.4119 6.4039,5.4687 h 0.753 z" /></g></g></g><g
                 transform="matrix(2.4864,0,0,4.3772,1102.95,1491.53)"
                 id="g54"><g
                   transform="scale(8.0438,4.5691)"
                   id="g56"><g
                     clip-path="url(#clipPath62)"
                     id="g58"><path
                       id="path64"
                       style="fill:#000000;fill-opacity:1;fill-rule:evenodd;stroke:none"
                       d="M 7.0745,8.8105 C 6.9328,8.8102 6.8218,8.8083 6.7408,8.8053 6.6599,8.8019 6.5807,8.7939 6.5031,8.781 6.4663,8.7743 6.4369,8.7685 6.4148,8.7636 6.393,8.7586 6.3804,8.7528 6.3768,8.7467 L 4.5218,4.0799 C 4.4513,3.9097 4.3645,3.7478 4.2618,3.5941 4.159,3.4401 4.0385,3.3052 3.9002,3.1893 3.7621,3.073 3.6103,2.9807 3.4453,2.912 3.2803,2.8433 3.1033,2.8089 2.9147,2.8089 2.77,2.8089 2.6341,2.8365 2.5077,2.8924 2.3814,2.9479 2.2713,3.0215 2.1768,3.1132 2.0823,3.2046 2.0084,3.311 1.9544,3.4322 1.9005,3.553 1.8735,3.684 1.8735,3.8247 c 0,0.2224 0.0727,0.3902 0.2174,0.503 0.1448,0.1129 0.303,0.1693 0.4748,0.1693 0.1721,0 0.3297,-0.0564 0.4729,-0.1693 C 3.1819,4.2149 3.2533,4.0471 3.2533,3.8247 3.2533,3.6579 3.2098,3.5211 3.122,3.415 3.0343,3.3086 3.1086,3.2929 3.3441,3.3684 H 2.8439 c 0.1147,0 0.2223,0.0196 0.3235,0.0589 0.108,0.0358 0.2022,0.0889 0.2831,0.1594 C 3.5315,3.657 3.603,3.7404 3.6652,3.837 3.7278,3.9333 3.7808,4.0373 3.8244,4.1486 L 4.1326,4.9092 2.5758,8.8105 H 1.9038 V 9.4631 C 2.1498,9.453 2.3682,9.4463 2.5583,9.4432 2.7488,9.4398 2.9365,9.4383 3.1217,9.4386 h 0.4448 c 0.145,-3e-4 0.2873,0.0012 0.4272,0.0046 0.1399,0.0031 0.3144,0.0098 0.5232,0.0199 V 8.8105 H 3.971 L 4.8301,6.6611 5.6894,8.8252 C 5.6864,8.8215 5.6845,8.8135 5.6845,8.8007 5.6845,8.7743 5.6913,8.7596 5.7048,8.7565 5.6744,8.7596 5.6422,8.7645 5.6085,8.7712 5.5447,8.7841 5.4815,8.7936 5.4192,8.8004 5.357,8.8068 5.265,8.8102 5.1435,8.8105 V 9.4631 C 5.3459,9.453 5.5168,9.4463 5.6566,9.4432 5.7965,9.4398 5.9391,9.4383 6.0839,9.4386 h 0.3334 c 0.0978,-3e-4 0.1923,0.0012 0.283,0.0046 0.0911,0.0031 0.216,0.0098 0.3742,0.0199 z" /></g></g></g><path
                 id="path66"
                 style="fill:none;stroke:#000000;stroke-width:15;stroke-linecap:round;stroke-linejoin:round;stroke-miterlimit:10;stroke-dasharray:none;stroke-opacity:1"
                 d="m 347.31,1148.49 h 1500" /><path
                 id="path68"
                 style="fill:none;stroke:#000000;stroke-width:15;stroke-linecap:round;stroke-linejoin:round;stroke-miterlimit:10;stroke-dasharray:none;stroke-opacity:1"
                 d="m 346.68,1148.49 h 750.01" /><g
                 transform="matrix(3.7542,0,0,4.3772,204.03,80.339)"
                 id="g70"><g
                   transform="scale(5.3274,4.5691)"
                   id="g72"><g
                     clip-path="url(#clipPath78)"
                     id="g74"><path
                       id="path80"
                       style="fill:none;stroke:#000000;stroke-width:0.40200001;stroke-linecap:round;stroke-linejoin:round;stroke-miterlimit:10;stroke-dasharray:none;stroke-opacity:1"
                       d="M 1.875,7.879 H 6.2367" /><path
                       id="path82"
                       style="fill:#000000;fill-opacity:1;fill-rule:evenodd;stroke:none"
                       d="M 11.6,4.9007 C 10.993,4.9199 10.402,4.9296 9.8269,4.9296 9.2525,4.9296 8.6613,4.9199 8.0536,4.9007 v 0.4136 h 0.342 c 0.1088,-3e-4 0.2113,0.0012 0.3069,0.0045 0.0959,0.003 0.1866,0.0111 0.2726,0.024 0.086,0.0127 0.1602,0.0256 0.2227,0.0388 0.0529,0.0093 0.0968,0.0388 0.1314,0.0887 0.0348,0.0496 0.052,0.1049 0.052,0.1662 V 11.056 C 9.2161,10.976 9.013,10.915 8.7719,10.873 8.5309,10.831 8.2667,10.811 7.9793,10.811 v 0.409 c 0.3965,0 0.7623,0.047 1.0974,0.141 0.3351,0.095 0.6249,0.272 0.8692,0.532 H 10.1 c 0.108,0 0.163,-0.053 0.163,-0.159 V 5.6365 c 0,-0.0643 0.016,-0.1205 0.049,-0.1686 0.033,-0.0481 0.081,-0.077 0.144,-0.0863 0.053,-0.0132 0.121,-0.0261 0.203,-0.0388 0.083,-0.0129 0.176,-0.021 0.28,-0.024 0.104,-0.0033 0.206,-0.0048 0.304,-0.0045 H 11.6 Z" /></g></g></g><g
                 transform="matrix(2.068,0,0,4.3772,1765.67,80.339)"
                 id="g84"><g
                   transform="scale(9.6711,4.5691)"
                   id="g86"><g
                     clip-path="url(#clipPath92)"
                     id="g88"><path
                       id="path94"
                       style="fill:#000000;fill-opacity:1;fill-rule:evenodd;stroke:none"
                       d="M 5.5301,4.9007 C 4.9226,4.9199 4.3314,4.9296 3.7567,4.9296 3.1823,4.9296 2.5911,4.9199 1.9834,4.9007 v 0.4136 h 0.342 c 0.1088,-3e-4 0.2113,0.0012 0.3069,0.0045 0.0959,0.003 0.1866,0.0111 0.2726,0.024 0.086,0.0127 0.1602,0.0256 0.2227,0.0388 0.0529,0.0093 0.0968,0.0388 0.1314,0.0887 0.0348,0.0496 0.052,0.1049 0.052,0.1662 V 11.056 C 3.1459,10.976 2.9428,10.915 2.7017,10.873 2.4607,10.831 2.1965,10.811 1.9091,10.811 v 0.409 c 0.3965,0 0.7623,0.047 1.0974,0.141 0.3351,0.095 0.6249,0.272 0.8692,0.532 h 0.1536 c 0.1088,0 0.1632,-0.053 0.1632,-0.159 V 5.6365 C 4.1925,5.5722 4.2091,5.516 4.2421,5.4679 4.2752,5.4198 4.3233,5.3909 4.3858,5.3816 4.4387,5.3684 4.5066,5.3555 4.589,5.3428 4.6716,5.3299 4.7648,5.3218 4.8688,5.3188 4.9728,5.3155 5.0744,5.314 5.1733,5.3143 h 0.3568 z" /></g></g></g><g
                 transform="matrix(2.9258,0,0,4.3772,1087.14,80.339)"
                 id="g96"><g
                   transform="scale(6.8357,4.5691)"
                   id="g98"><g
                     clip-path="url(#clipPath104)"
                     id="g100"><path
                       id="path106"
                       style="fill:#000000;fill-opacity:1;fill-rule:evenodd;stroke:none"
                       d="M 8.6562,8.3149 C 8.6562,7.837 8.5856,7.3705 8.4439,6.916 8.3025,6.4611 8.0652,6.0538 7.7315,5.6944 7.4113,5.3638 7.0365,5.1166 6.6068,4.9531 6.1774,4.7896 5.7299,4.708 5.2647,4.708 4.7997,4.708 4.3525,4.7896 3.9229,4.9531 3.4935,5.1166 3.1184,5.3638 2.7982,5.6944 2.4648,6.0508 2.2274,6.4572 2.0857,6.9135 1.944,7.3699 1.8732,7.837 1.8732,8.3149 c 0,0.4904 0.0693,0.967 0.2073,1.4301 0.1383,0.463 0.3775,0.877 0.7177,1.244 0.3168,0.343 0.691,0.598 1.1222,0.763 C 4.3516,11.917 4.7997,12 5.2647,12 5.7299,12 6.178,11.917 6.6092,11.752 7.0405,11.587 7.4146,11.332 7.7315,10.989 8.0719,10.622 8.3111,10.209 8.4492,9.7475 8.5872,9.2862 8.6562,8.8086 8.6562,8.3149 Z M 6.8923,8.4964 c 0,0.3791 -0.0174,0.753 -0.053,1.121 C 6.804,9.9855 6.6936,10.335 6.508,10.665 6.3768,10.887 6.2035,11.07 5.9876,11.212 5.772,11.355 5.5309,11.426 5.2647,11.426 5.0021,11.426 4.762,11.354 4.5445,11.21 4.3274,11.066 4.1529,10.884 4.0213,10.665 3.8361,10.338 3.7259,9.9894 3.6904,9.6199 3.6551,9.25 3.6373,8.8755 3.6373,8.4964 3.6373,8.0839 3.6542,7.6766 3.6879,7.2742 3.7217,6.8718 3.8327,6.4924 4.0213,6.136 4.1529,5.8937 4.3255,5.6947 4.5396,5.5395 4.7537,5.384 4.9954,5.3064 5.2647,5.3067 5.5346,5.3064 5.7762,5.384 5.9903,5.5395 6.2044,5.6947 6.3768,5.8937 6.508,6.136 c 0.1856,0.3595 0.296,0.7398 0.3313,1.1407 0.0356,0.4005 0.053,0.8072 0.053,1.2197 z" /></g></g></g><g
                 transform="matrix(2.068,0,0,4.3772,1118.02,1140.91)"
                 id="g108"><g
                   transform="scale(9.6711,4.5691)"
                   id="g110"><g
                     clip-path="url(#clipPath116)"
                     id="g112"><path
                       id="path118"
                       style="fill:#000000;fill-opacity:1;fill-rule:evenodd;stroke:none"
                       d="M 5.5301,4.9007 C 4.9226,4.9199 4.3314,4.9296 3.7567,4.9296 3.1823,4.9296 2.5911,4.9199 1.9834,4.9007 v 0.4136 h 0.342 c 0.1088,-3e-4 0.2113,0.0012 0.3069,0.0045 0.0959,0.003 0.1866,0.0111 0.2726,0.024 0.086,0.0127 0.1602,0.0256 0.2227,0.0388 0.0529,0.0093 0.0968,0.0388 0.1314,0.0887 0.0348,0.0496 0.052,0.1049 0.052,0.1662 V 11.056 C 3.1459,10.976 2.9428,10.915 2.7017,10.873 2.4607,10.831 2.1965,10.811 1.9091,10.811 v 0.409 c 0.3965,0 0.7623,0.047 1.0974,0.141 0.3351,0.095 0.6249,0.272 0.8692,0.532 h 0.1536 c 0.1088,0 0.1632,-0.053 0.1632,-0.159 V 5.6365 C 4.1925,5.5722 4.2091,5.516 4.2421,5.4679 4.2752,5.4198 4.3233,5.3909 4.3858,5.3816 4.4387,5.3684 4.5066,5.3555 4.589,5.3428 4.6716,5.3299 4.7648,5.3218 4.8688,5.3188 4.9728,5.3155 5.0744,5.314 5.1733,5.3143 h 0.3568 z" /></g></g></g><g
                 transform="matrix(7.6853,0,0,8.7544,2359.11,454.58)"
                 id="g120"><g
                   transform="scale(2.6024,2.2846)"
                   id="g122"><g
                     clip-path="url(#clipPath128)"
                     id="g124"><path
                       id="path130"
                       style="fill:#000000;fill-opacity:1;fill-rule:evenodd;stroke:none"
                       d="m 15.486,21.137 c 0,0.145 0.111,0.22 0.332,0.221 0.248,-0.001 0.427,-0.088 0.537,-0.262 1.106,-2.131 2.797,-3.659 5.073,-4.582 0.442,-0.189 0.856,-0.329 1.242,-0.422 0.235,-0.068 0.352,-0.156 0.352,-0.262 0,-0.108 -0.117,-0.196 -0.352,-0.261 -2.829,-0.711 -4.934,-2.379 -6.315,-5.005 -0.083,-0.161 -0.233,-0.241 -0.454,-0.241 -0.277,0 -0.415,0.053 -0.415,0.161 0,0.052 0.035,0.16 0.103,0.321 0.484,0.924 1.078,1.748 1.781,2.473 l 0.208,0.201 H 4.9272 c -0.1922,0.093 -0.289,0.226 -0.289,0.402 0,0.199 0.1106,0.334 0.3304,0.402 H 18.488 l 0.206,0.16 c 0.553,0.401 1.361,0.863 2.424,1.387 -0.056,0.039 -0.125,0.073 -0.208,0.101 -0.758,0.32 -1.497,0.749 -2.216,1.286 l -0.206,0.161 H 4.9686 c -0.2198,0.065 -0.3304,0.2 -0.3304,0.402 0,0.173 0.0968,0.307 0.289,0.402 H 17.578 l -0.208,0.201 c -0.703,0.722 -1.297,1.546 -1.781,2.472 -0.068,0.133 -0.103,0.226 -0.103,0.282 z" /></g></g></g><path
                 id="path132"
                 style="fill:#980000;fill-opacity:0.39216003;fill-rule:evenodd;stroke:none"
                 d="m 347,387.61 h 1500.62 v 772.5 H 347 Z" /><path
                 id="path134"
                 style="fill:none;stroke:#000000;stroke-width:15;stroke-linecap:round;stroke-linejoin:round;stroke-miterlimit:10;stroke-dasharray:none;stroke-opacity:1"
                 d="m 347,387.61 h 1500.62 v 772.5 H 347 Z" /><path
                 id="path136"
                 style="fill:none;stroke:#000000;stroke-width:15;stroke-linecap:round;stroke-linejoin:round;stroke-miterlimit:10;stroke-dasharray:none;stroke-opacity:1"
                 d="m 4184.26,281.88 c 0,-91.87 -201.47,-166.35 -450,-166.35 -248.53,0 -450,74.48 -450,166.35 v 1167.29 c 0,91.88 201.47,166.36 450,166.36 248.53,0 450,-74.48 450,-166.36 0,0 0,0 0,0 z" /><path
                 id="path138"
                 style="fill:none;stroke:#000000;stroke-width:15;stroke-linecap:round;stroke-linejoin:round;stroke-miterlimit:10;stroke-dasharray:none;stroke-opacity:1"
                 d="m 4184.26,1449.17 c 0,-91.87 -201.47,-166.35 -450,-166.35 -248.53,0 -450,74.48 -450,166.35" /><path
                 id="path140"
                 style="fill:#980000;fill-opacity:0.39216003;fill-rule:evenodd;stroke:none"
                 d="m 4184.26,1399.17 c -279.39,-157.27 -620.62,-157.27 -900,0 V 223.71 c 279.39,-157.271 620.61,-157.271 900,0 z" /><path
                 id="path142"
                 style="fill:none;stroke:#000000;stroke-width:15;stroke-linecap:round;stroke-linejoin:round;stroke-miterlimit:10;stroke-dasharray:none;stroke-opacity:1"
                 d="m 4184.26,1399.17 c -279.39,-157.27 -620.62,-157.27 -900,0 V 223.71 c 279.39,-157.271 620.61,-157.271 900,0 z" /></g></g></g></g></g></g></svg>