<?xml version="1.0" encoding="utf-8"?>
<!-- Generator: Adobe Illustrator 19.0.0, SVG Export Plug-In . SVG Version: 6.00 Build 0)  -->
<svg version="1.1" id="Layer_1" xmlns="http://www.w3.org/2000/svg" xmlns:xlink="http://www.w3.org/1999/xlink" x="0px" y="0px"
	 viewBox="0 0 141.6666718 138.8333282" style="enable-background:new 0 0 141.6666718 138.8333282;" xml:space="preserve">
<style type="text/css">
	.st0{fill:none;stroke:#808285;stroke-miterlimit:10;}
	.st1{fill:#ED1C24;}
	.st2{fill:#010101;}
	.st3{fill:none;stroke:#000000;stroke-miterlimit:10;}
</style>
<g id="XMLID_2_">
	<g id="XMLID_39_">
		<g id="XMLID_40_">
			<polygon id="XMLID_41_" points="73.258934,89.3633347 74.0984421,91.1856918 81.6135483,84.9410172 71.9816589,86.5907211 
				72.8212433,88.4132309 3.3702247,120.4075241 3.8079097,121.3576279 			"/>
		</g>
	</g>
</g>
<line id="XMLID_3_" class="st0" x1="33.3441925" y1="40.2956047" x2="111.3678055" y2="4.3521447"/>
<g id="XMLID_5_">
	<g id="XMLID_35_">
		<g id="XMLID_36_">
			<polygon id="XMLID_37_" class="st1" points="105.3430862,11.6364794 106.8160782,12.9988604 111.3693924,4.3536277 
				103.1020126,9.5637255 104.5751266,10.926198 3.2051151,120.5274124 3.9730709,121.2376938 			"/>
		</g>
	</g>
</g>
<g id="XMLID_24_">
	<g id="XMLID_25_">
		<path id="XMLID_148_" class="st2" d="M79.8507462,96.7991562h-2.6616211l-0.3168945,0.7319336
			c-0.1035156,0.2441406-0.1557617,0.4458008-0.1557617,0.6044922c0,0.2109375,0.0854492,0.3662109,0.2558594,0.4658203
			c0.1000977,0.059082,0.3461914,0.1035156,0.7387695,0.1333008v0.2050781h-2.5058594v-0.2050781
			c0.2705078-0.0405273,0.4926758-0.152832,0.6669922-0.3354492c0.1738281-0.1831055,0.3886719-0.5610352,0.6445313-1.1342773
			l2.6948242-6.0004883h0.1054688l2.7172852,6.1669922c0.2592773,0.5839844,0.472168,0.9516602,0.6386719,1.1035156
			c0.1259766,0.1147461,0.3037109,0.1811523,0.5336914,0.199707v0.2050781h-3.6450195v-0.2050781h0.1499023
			c0.2924805,0,0.4980469-0.0405273,0.6166992-0.1220703c0.081543-0.059082,0.1225586-0.144043,0.1225586-0.2553711
			c0-0.0664063-0.0112305-0.1347656-0.0336914-0.2050781c-0.0073242-0.0332031-0.0629883-0.171875-0.1665039-0.4160156
			L79.8507462,96.7991562z M79.6617813,96.3885117l-1.1225586-2.5898438l-1.1557617,2.5898438H79.6617813z"/>
	</g>
</g>
<g id="XMLID_10_">
	<g id="XMLID_11_">
		<path id="XMLID_144_" class="st2" d="M23.6080723,42.5266914c0.7260742,0.1660156,1.2358398,0.3676758,1.5292969,0.6044922
			c0.4213867,0.3364258,0.6318359,0.7724609,0.6318359,1.3085938c0,0.565918-0.230957,1.0336914-0.6938477,1.4033203
			c-0.5683594,0.4472656-1.394043,0.6708984-2.4775391,0.6708984h-3.8881836V46.308918
			c0.3535156,0,0.5932617-0.0322266,0.7197266-0.097168c0.1259766-0.0644531,0.2143555-0.1489258,0.2651367-0.2524414
			s0.0761719-0.3583984,0.0761719-0.7651367v-4.8803711c0-0.4067383-0.0253906-0.6625977-0.0761719-0.7680664
			s-0.1401367-0.1894531-0.2680664-0.2524414s-0.3666992-0.0942383-0.7167969-0.0942383v-0.2050781h3.6679688
			c0.8769531,0,1.4975586,0.0766602,1.8623047,0.2299805c0.3652344,0.1533203,0.652832,0.3828125,0.8637695,0.6879883
			c0.2104492,0.3046875,0.315918,0.6293945,0.315918,0.9731445c0,0.3623047-0.1337891,0.6850586-0.4008789,0.9677734
			S24.2814121,42.3601875,23.6080723,42.5266914z M21.5538731,42.8094063v2.4125977l-0.0058594,0.2773438
			c0,0.1992188,0.0517578,0.3500977,0.1552734,0.4516602c0.1035156,0.1020508,0.2568359,0.152832,0.4599609,0.152832
			c0.3007813,0,0.5786133-0.065918,0.8325195-0.1972656c0.2539063-0.1308594,0.4487305-0.3212891,0.5839844-0.5712891
			c0.1352539-0.2495117,0.203125-0.5273438,0.203125-0.8344727c0-0.3510742-0.0825195-0.6665039-0.2480469-0.9453125
			c-0.1660156-0.2792969-0.3935547-0.4741211-0.6831055-0.5854492
			C22.5621738,42.859211,22.1295567,42.8059883,21.5538731,42.8094063z M21.5538731,42.3767891
			c0.5341797,0,0.9282227-0.059082,1.1821289-0.1772461c0.2539063-0.1186523,0.4487305-0.284668,0.5839844-0.4995117
			c0.1357422-0.2143555,0.203125-0.487793,0.203125-0.8208008c0-0.3325195-0.0664063-0.6049805-0.2001953-0.8178711
			c-0.1333008-0.2124023-0.3242188-0.3740234-0.5727539-0.4853516c-0.2480469-0.1108398-0.6469727-0.1640625-1.1962891-0.1606445
			V42.3767891z"/>
	</g>
</g>
<line id="XMLID_65_" class="st3" x1="3.5890329" y1="120.8824997" x2="137.6666718" y2="120.8824997"/>
<path id="XMLID_66_" class="st0" d="M21.8380699,112.4756393c3.3462467,2.964386,3.3462467,4.9443665,3.3462467,8.4068604"/>
<g id="XMLID_68_">
	<g id="XMLID_69_">
		<path id="XMLID_142_" class="st2" d="M23.8146152,128.7464142c0.1821289,0.1938477,0.3193359,0.3881836,0.4121094,0.5820313
			c0.0668945,0.1342773,0.1762695,0.4873047,0.3286133,1.0581055l0.4897461-0.7387695
			c0.1298828-0.1791992,0.2875977-0.3500977,0.4736328-0.512207c0.1855469-0.1625977,0.3486328-0.2734375,0.4897461-0.3330078
			c0.0893555-0.0375977,0.1875-0.0561523,0.2954102-0.0561523c0.1591797,0,0.2866211,0.0429688,0.3813477,0.1289063
			c0.0947266,0.0854492,0.1416016,0.1899414,0.1416016,0.3134766c0,0.1416016-0.027832,0.2387695-0.0834961,0.2910156
			c-0.1035156,0.0932617-0.2226563,0.1396484-0.355957,0.1396484c-0.078125,0-0.1616211-0.0166016-0.2509766-0.050293
			c-0.1743164-0.0595703-0.2910156-0.0893555-0.3505859-0.0893555c-0.0888672,0-0.1948242,0.0522461-0.3173828,0.1567383
			c-0.2299805,0.1938477-0.5048828,0.5693359-0.8242188,1.125l0.456543,1.9257813
			c0.0708008,0.2949219,0.1298828,0.4716797,0.1782227,0.5292969c0.0483398,0.0581055,0.0966797,0.0869141,0.1450195,0.0869141
			c0.0776367,0,0.1689453-0.0429688,0.2729492-0.1289063c0.2041016-0.171875,0.378418-0.3955078,0.5234375-0.671875
			l0.1948242,0.1005859c-0.2338867,0.4404297-0.53125,0.8061523-0.8911133,1.0976563
			c-0.2041016,0.1640625-0.3769531,0.2460938-0.5175781,0.2460938c-0.2080078,0-0.3730469-0.1176758-0.4956055-0.3525391
			c-0.078125-0.1455078-0.2397461-0.7724609-0.484375-1.8813477c-0.5791016,1.0117188-1.043457,1.6630859-1.3920898,1.9541016
			c-0.2265625,0.1865234-0.4458008,0.2797852-0.6572266,0.2797852c-0.1484375,0-0.2836914-0.0541992-0.40625-0.1621094
			c-0.0893555-0.0820313-0.1337891-0.1923828-0.1337891-0.3305664c0-0.1230469,0.0410156-0.2255859,0.1225586-0.3076172
			s0.1816406-0.1235352,0.3007813-0.1235352c0.1186523,0,0.2446289,0.0600586,0.378418,0.1791992
			c0.0966797,0.0859375,0.1708984,0.1289063,0.2226563,0.1289063c0.0444336,0,0.1020508-0.0297852,0.1728516-0.0893555
			c0.1743164-0.1420898,0.4121094-0.4482422,0.7124023-0.918457c0.3007813-0.4702148,0.4975586-0.8095703,0.590332-1.0185547
			c-0.2299805-0.9072266-0.3544922-1.3867188-0.3730469-1.4389648c-0.0854492-0.2426758-0.1967773-0.4145508-0.3339844-0.5151367
			s-0.3398438-0.1508789-0.6069336-0.1508789c-0.0854492,0-0.1835938,0.003418-0.2949219,0.0107422v-0.2011719
			L23.8146152,128.7464142z"/>
	</g>
</g>
<g id="XMLID_71_">
	<g id="XMLID_75_">
		<path id="XMLID_140_" class="st2" d="M33.1105156,128.7937775c0.1274414,0.2143555,0.215332,0.4150391,0.2636719,0.6020508
			c0.0488281,0.1865234,0.097168,0.5537109,0.1459961,1.1005859l0.246582,2.7285156
			c0.2246094-0.2661133,0.5498047-0.6875,0.9760742-1.2646484c0.2055664-0.2807617,0.4599609-0.6635742,0.7631836-1.1479492
			c0.1831055-0.2954102,0.2949219-0.5024414,0.3364258-0.6210938c0.0224609-0.059082,0.0336914-0.1201172,0.0336914-0.1826172
			c0-0.0410156-0.0131836-0.0742188-0.0395508-0.1000977c-0.0258789-0.0258789-0.0942383-0.0561523-0.2045898-0.0913086
			s-0.2021484-0.1000977-0.2749023-0.1943359s-0.109375-0.2021484-0.109375-0.3242188
			c0-0.1518555,0.0449219-0.2739258,0.1347656-0.3662109s0.2016602-0.1386719,0.3364258-0.1386719
			c0.1645508,0,0.3046875,0.0673828,0.4208984,0.2026367c0.1157227,0.1347656,0.1738281,0.3208008,0.1738281,0.5571289
			c0,0.2919922-0.1010742,0.6259766-0.3032227,1.0009766c-0.2016602,0.3754883-0.5908203,0.9511719-1.1665039,1.7275391
			s-1.2734375,1.6230469-2.0922852,2.5400391c-0.5644531,0.6323242-0.9834003,1.0307617-1.2563496,1.1953125
			s-0.5068359,0.246582-0.7011719,0.246582c-0.1157227,0-0.2177734-0.043457-0.3056641-0.1303711
			s-0.1318359-0.1875-0.1318359-0.3022461c0-0.144043,0.0610352-0.2753906,0.1821289-0.3935547
			c0.121582-0.1186523,0.253418-0.1777344,0.3955078-0.1777344c0.0751953,0,0.1367188,0.0166016,0.1850586,0.050293
			c0.0302734,0.0180664,0.0629883,0.0708008,0.0981445,0.1577148c0.0356445,0.0869141,0.0683594,0.1450195,0.0981445,0.1748047
			c0.019043,0.0185547,0.0415039,0.027832,0.0673828,0.027832c0.0224609,0,0.0620117-0.0185547,0.1181641-0.0556641
			c0.2055664-0.1254883,0.4448242-0.3251953,0.7177753-0.5986328c0.3588867-0.362793,0.6245117-0.6582031,0.7963867-0.8876953
			l-0.3139648-3.515625c-0.0527344-0.5805664-0.1308594-0.9335938-0.2358398-1.0595703
			c-0.1044922-0.1254883-0.2802734-0.1884766-0.5268574-0.1884766c-0.0786133,0-0.21875,0.0112305-0.4208984,0.0332031
			l-0.050293-0.2050781L33.1105156,128.7937775z"/>
	</g>
</g>
<path id="XMLID_67_" class="st0" d="M14.4954567,91.3442612c11.3883553,6.0836334,18.2848167,17.530571,18.2848167,29.5382309"/>
<g id="XMLID_18_">
	<g id="XMLID_31_">
		<g id="XMLID_32_">
			<polygon id="XMLID_33_" points="30.5656757,49.3310127 32.4479027,50.0259895 33.3462372,40.29636 27.7019787,48.2736549 
				29.5843639,48.9686928 3.0984542,120.7013626 4.0797658,121.0636978 			"/>
		</g>
	</g>
</g>
<line id="XMLID_4_" class="st0" x1="81.6126404" y1="84.9390335" x2="111.3677979" y2="4.3521447"/>
<path id="XMLID_6_" class="st0" d="M32.3691101,89.7654877c9.3731689,7.4378967,13.3331261,21.6103745,13.3331261,31.117012"/>
<line id="XMLID_19_" class="st0" x1="81.6126404" y1="84.9390335" x2="33.3441925" y2="40.2956047"/>
<g id="XMLID_21_">
	<g id="XMLID_26_">
		<path id="XMLID_132_" class="st2" d="M44.741375,136.0340118v0.2045898
			c-0.5634766-0.2807617-1.0336914-0.6088867-1.4106445-0.9858398c-0.5375977-0.5351563-0.9516602-1.1665039-1.2431641-1.894043
			c-0.2910156-0.7275391-0.4365234-1.4824219-0.4365234-2.2651367c0-1.1450195,0.2856445-2.1889648,0.8564453-3.1323166
			c0.5712891-0.9433594,1.315918-1.6181641,2.2338867-2.0244141v0.2329102
			c-0.4589844,0.2509766-0.8359375,0.5942383-1.1308594,1.0297852c-0.2949219,0.4360352-0.5151367,0.9877853-0.6606445,1.6562424
			s-0.2182617,1.3662109-0.2182617,2.09375c0,0.7900391,0.0615234,1.5083008,0.1845703,2.1542969
			c0.097168,0.5097656,0.2148438,0.918457,0.3525391,1.2270508c0.1381836,0.3081055,0.3237305,0.6044922,0.5571289,0.8886719
			S44.3644218,135.7752228,44.741375,136.0340118z"/>
		<path id="XMLID_134_" class="st2" d="M68.3009415,126.1697617v-0.2329102
			c0.5673828,0.2768555,1.0395508,0.6040039,1.4165039,0.9804688c0.5336914,0.5390625,0.9462891,1.1713791,1.2373047,1.896965
			s0.4365234,1.4814453,0.4365234,2.2680664c0,1.1445313-0.284668,2.1884766-0.8535156,3.1318359
			c-0.5693359,0.9433594-1.3149414,1.6181641-2.2368164,2.0244141v-0.2045898
			c0.4594727-0.2548828,0.8369141-0.5991211,1.1337891-1.0332031s0.5170898-0.9858398,0.6606445-1.6557617
			c0.1435547-0.6704102,0.215332-1.3691406,0.215332-2.0966797c0-0.7866211-0.0615234-1.5043945-0.1845703-2.1542969
			c-0.0932617-0.5097656-0.2099609-0.9174805-0.3500977-1.2241135c-0.1396484-0.3066406-0.3256836-0.6020508-0.5566406-0.8862305
			C68.9879532,126.6995468,68.6818008,126.4280624,68.3009415,126.1697617z"/>
		<path id="XMLID_136_" class="st2" d="M77.161293,125.9368515l-2.7485352,8.0312424h-0.4482422l2.7490234-8.0312424H77.161293z"/>
		<path id="XMLID_138_" class="st2" d="M84.7521133,132.3670197l-0.5317383,1.4458008h-4.4790039v-0.2050781
			c1.3178711-1.1889648,2.2451172-2.159668,2.7827148-2.9130859c0.5371094-0.753418,0.8061523-1.4418945,0.8061523-2.065918
			c0-0.4765625-0.1474609-0.8676682-0.4423828-1.1743088c-0.2949219-0.3061523-0.6474609-0.4594727-1.0581055-0.4594727
			c-0.3730469,0-0.7080078,0.1079102-1.0048828,0.3237305c-0.296875,0.2163086-0.5161133,0.5327148-0.6577148,0.9501877h-0.2070313
			c0.0932617-0.6830978,0.3330078-1.2075119,0.7192383-1.5732346c0.3862305-0.3652344,0.8686523-0.5483398,1.4472656-0.5483398
			c0.6157227,0,1.1298828,0.1958008,1.5419922,0.5874023c0.4125977,0.3911133,0.6186523,0.8525391,0.6186523,1.3842697
			c0,0.3803711-0.0893555,0.7607422-0.2685547,1.1411133c-0.2763672,0.5981445-0.7241211,1.2314453-1.34375,1.8999023
			c-0.9291992,1.0043945-1.5097656,1.6098633-1.7407227,1.8164063h1.9814453c0.4033203,0,0.6860352-0.0146484,0.8481445-0.0444336
			c0.1625977-0.0292969,0.3085938-0.0893555,0.4394531-0.1796875s0.2446289-0.21875,0.3413086-0.3852539H84.7521133z"/>
	</g>
	<g id="XMLID_23_">
		<path id="XMLID_128_" class="st2" d="M47.8312187,128.8006134c0.1831055,0.1918945,0.3208008,0.3837891,0.4145508,0.5756836
			c0.0668945,0.1328125,0.1767578,0.4819336,0.3300781,1.046875l0.4926758-0.730957
			c0.1303711-0.1772461,0.2890625-0.3461914,0.4755859-0.5068359c0.1870117-0.1606445,0.3510742-0.2705078,0.4926758-0.3295898
			c0.0898438-0.0366211,0.1884766-0.0551758,0.296875-0.0551758c0.1606445,0,0.2880859,0.0424805,0.3833008,0.1269531
			c0.0952148,0.0854492,0.1430664,0.1884766,0.1430664,0.3105469c0,0.1401367-0.0283203,0.2363281-0.0839844,0.2880859
			c-0.1044922,0.0922852-0.2241211,0.1381836-0.3583984,0.1381836c-0.0786133,0-0.1625977-0.0166016-0.2519531-0.0498047
			c-0.175293-0.059082-0.2929688-0.0883789-0.3525391-0.0883789c-0.0898438,0-0.1962891,0.0512695-0.3193359,0.1547852
			c-0.2314453,0.1918945-0.5073242,0.5629883-0.8286133,1.1132813l0.4594727,1.9052734
			c0.0708008,0.2919922,0.1303711,0.4663086,0.1787109,0.5234375c0.0488281,0.0571289,0.097168,0.0859375,0.1459961,0.0859375
			c0.078125,0,0.1694336-0.0424805,0.2739258-0.1274414c0.2055664-0.1699219,0.3808594-0.3916016,0.5263672-0.6645508
			l0.1958008,0.0996094c-0.2348633,0.4355469-0.5336914,0.7973633-0.8955078,1.0854492
			c-0.2055664,0.1625977-0.3789063,0.2436523-0.5205078,0.2436523c-0.2094727,0-0.3754883-0.1162109-0.4985352-0.3486328
			c-0.078125-0.144043-0.2407227-0.7646484-0.4868164-1.8613281c-0.5825195,1.0009766-1.0488281,1.6450195-1.3994141,1.9331055
			c-0.2280273,0.1845703-0.4482422,0.2768555-0.6606445,0.2768555c-0.1494141,0-0.2856445-0.0532227-0.4086914-0.1606445
			c-0.0898438-0.0810547-0.1342773-0.1899414-0.1342773-0.3266602c0-0.121582,0.0410156-0.2231445,0.1230469-0.3046875
			c0.0820313-0.0810547,0.1826172-0.121582,0.3022461-0.121582c0.1191406,0,0.2460938,0.059082,0.3803711,0.1772461
			c0.097168,0.0849609,0.171875,0.1274414,0.2241211,0.1274414c0.0449219,0,0.1025391-0.0297852,0.1738281-0.0888672
			c0.175293-0.1401367,0.4140625-0.4428711,0.7163086-0.9082031s0.5-0.8012695,0.5932617-1.0083008
			c-0.2314453-0.8969727-0.3564453-1.371582-0.375-1.4233398c-0.0859375-0.2397461-0.1977539-0.409668-0.3359375-0.5092773
			c-0.1381836-0.1000977-0.3413086-0.1499023-0.6098633-0.1499023c-0.0859375,0-0.1850586,0.0039063-0.296875,0.0112305v-0.1992188
			L47.8312187,128.8006134z"/>
		<path id="XMLID_130_" class="st2" d="M64.3312149,128.8006134c0.1269531,0.2138672,0.2148438,0.4145508,0.2631836,0.6005859
			c0.0483398,0.1865234,0.097168,0.5532227,0.1455078,1.0996094l0.2460938,2.7250977
			c0.2241211-0.2661133,0.5488281-0.6870117,0.9741211-1.2631836c0.2055664-0.2802734,0.4594727-0.6625977,0.7617188-1.1464844
			c0.1826172-0.2949219,0.2944336-0.5019531,0.3359375-0.6201172c0.0219727-0.059082,0.0332031-0.1201172,0.0332031-0.1826172
			c0-0.0405273-0.0131836-0.0737305-0.0390625-0.0996094s-0.0942383-0.0566406-0.2041016-0.0917969
			c-0.1103516-0.034668-0.2016602-0.0996094-0.2744141-0.1938477c-0.0727539-0.09375-0.109375-0.2021484-0.109375-0.3237305
			c0-0.1513672,0.0449219-0.2734375,0.1342773-0.3657227c0.0898438-0.0922852,0.2016602-0.1381836,0.3359375-0.1381836
			c0.1645508,0,0.3041992,0.0673828,0.4199219,0.2021484s0.1738281,0.3203125,0.1738281,0.5566406
			c0,0.2915039-0.1010742,0.625-0.3022461,0.9995117c-0.2016602,0.375-0.5898438,0.949707-1.1645508,1.7250977
			s-1.2709961,1.6210938-2.0883751,2.5366211c-0.5634766,0.6318359-0.9814453,1.0292969-1.2539063,1.1938477
			c-0.2724609,0.1640625-0.5053711,0.246582-0.699707,0.246582c-0.1157227,0-0.2172852-0.043457-0.3051758-0.1303711
			c-0.0874023-0.0869141-0.1313477-0.1875-0.1313477-0.3017578c0-0.144043,0.0605469-0.2753906,0.1816406-0.3930664
			c0.121582-0.1186523,0.2529297-0.1772461,0.3950195-0.1772461c0.074707,0,0.1362305,0.0166016,0.1845703,0.0498047
			c0.0297852,0.0180664,0.0625,0.0708008,0.0981445,0.1577148c0.0351563,0.0864258,0.0678711,0.1450195,0.0976563,0.1743164
			c0.0185547,0.0185547,0.0410156,0.027832,0.0673828,0.027832c0.0224609,0,0.0615234-0.0185547,0.1176758-0.0556641
			c0.2050781-0.1254883,0.4438477-0.324707,0.7163086-0.5981445c0.3583984-0.3618164,0.6235313-0.6572266,0.7949181-0.8857422
			l-0.3134727-3.5117188c-0.0522461-0.5795898-0.1308594-0.9321289-0.2348633-1.0576172
			c-0.1044922-0.1254883-0.2802734-0.1884766-0.5263672-0.1884766c-0.0786133,0-0.2182617,0.0112305-0.4199219,0.0332031
			l-0.050293-0.2050781L64.3312149,128.8006134z"/>
	</g>
	<g id="XMLID_22_">
		<path id="XMLID_126_" class="st2" d="M55.8873711,127.9973984h0.5488281v2.6474533h2.6591797v0.5371094h-2.6591797v2.6308594
			h-0.5488281v-2.6308594h-2.6704102v-0.5371094h2.6704102V127.9973984z"/>
	</g>
</g>
<g id="XMLID_7_">
	<g id="XMLID_239_">
		<g id="XMLID_248_">
			<path id="XMLID_249_" class="st1" d="M121.9669571,12.6555986h2.6918945V9.9934893h0.7333984v2.6621094h2.6914139v0.7319336
				h-2.6914139v2.6396494h-0.7333984v-2.6396494h-2.6918945V12.6555986z"/>
		</g>
		<g id="XMLID_240_">
			<path id="XMLID_245_" class="st1" d="M116.1354141,14.6409502h-2.6806641l-0.3188477,0.7319336
				c-0.1044922,0.2441406-0.1567383,0.4458008-0.1567383,0.6044922c0,0.2109385,0.0854492,0.3662119,0.2573242,0.4658213
				c0.1005859,0.059082,0.3486328,0.1035156,0.7441406,0.1333008v0.2050781h-2.5239258V16.576498
				c0.2724609-0.0405273,0.4960938-0.152832,0.671875-0.3354492c0.175293-0.1831055,0.3916016-0.5610361,0.6489258-1.1342783
				l2.7143555-6.0004883h0.1064453l2.7363281,6.1669922c0.2612305,0.5839844,0.4755859,0.9516611,0.6435547,1.1035166
				c0.1269531,0.1147461,0.3061523,0.1811523,0.5371094,0.199707v0.2050781h-3.6708984V16.576498h0.1508789
				c0.2949219,0,0.5019531-0.0405273,0.621582-0.1220703c0.0820313-0.059082,0.1230469-0.144043,0.1230469-0.2553711
				c0-0.0664063-0.0112305-0.1347656-0.0336914-0.2050791c-0.0073242-0.0332031-0.0634766-0.171875-0.1679688-0.4160156
				L116.1354141,14.6409502z M115.9449844,14.2303057l-1.1303711-2.5898438l-1.1640625,2.5898438H115.9449844z"/>
			<path id="XMLID_241_" class="st1" d="M135.080246,12.7942705c0.7202148,0.1660156,1.2255859,0.3676758,1.5166016,0.6044922
				c0.4179688,0.3364258,0.6269531,0.7724609,0.6269531,1.3085938c0,0.565918-0.2294922,1.0336914-0.6884766,1.4033213
				c-0.5634766,0.4472656-1.3823242,0.6708984-2.456543,0.6708984h-3.855957V16.576498
				c0.3505859,0,0.5883789-0.0322266,0.7133789-0.097168c0.125-0.0644531,0.2128906-0.1489258,0.2631836-0.2524414
				s0.0756836-0.3583994,0.0756836-0.7651377v-4.8803711c0-0.4067383-0.0253906-0.6625977-0.0756836-0.7680664
				s-0.1391602-0.1894531-0.2661133-0.2524414c-0.1264648-0.0629883-0.3637695-0.0942383-0.7104492-0.0942383V9.2615557h3.6376953
				c0.8691406,0,1.4848633,0.0766602,1.8466797,0.2299805s0.6469727,0.3828125,0.855957,0.6879883
				c0.2089844,0.3046875,0.3134766,0.6293945,0.3134766,0.9731445c0,0.3623047-0.1323242,0.6850586-0.3974609,0.9677734
				C136.2145233,12.4031572,135.7482147,12.6277666,135.080246,12.7942705z M133.0431366,13.0769854v2.4125977l-0.0053711,0.2773438
				c0,0.1992188,0.0512695,0.3500986,0.1538086,0.4516611c0.1025391,0.1020508,0.2543945,0.152832,0.4560547,0.152832
				c0.2983398,0,0.5737305-0.065918,0.8256836-0.1972656c0.2514648-0.1308594,0.4448242-0.32129,0.5791016-0.57129
				c0.1342773-0.2495117,0.2011719-0.5273438,0.2011719-0.8344727c0-0.3510742-0.0820313-0.6665039-0.2460938-0.9453125
				c-0.1640625-0.2792969-0.3896484-0.4741211-0.6772461-0.5854492
				C134.0431366,13.12679,133.6139374,13.0735674,133.0431366,13.0769854z M133.0431366,12.6443682
				c0.5297852,0,0.9208984-0.059082,1.1723633-0.1772461c0.2519531-0.1186523,0.4453125-0.284668,0.5795898-0.4995117
				c0.1342773-0.2143555,0.2011719-0.487793,0.2011719-0.8208008c0-0.3325195-0.0664063-0.6049805-0.1987305-0.8178711
				c-0.1323242-0.2124023-0.3217773-0.3740234-0.5678711-0.4853516c-0.2460938-0.1108398-0.6416016-0.1640625-1.1865234-0.1606445
				V12.6443682z"/>
		</g>
	</g>
</g>
<path id="XMLID_1_" class="st0" d="M39.0356712,82.5576096c5.2382851,4.1776047,9.8590698,9.9385834,12.1857719,16.3818665"/>
<g id="XMLID_13_">
	<g id="XMLID_16_">
		<path id="XMLID_109_" class="st2" d="M54.7770195,114.6971054v0.2045898
			c-0.5629883-0.2807617-1.0322266-0.6088867-1.4086914-0.9858398c-0.5366211-0.5351563-0.9501953-1.1665039-1.2412109-1.894043
			c-0.2905273-0.7275391-0.4355469-1.4824219-0.4355469-2.2651367c0-1.1450195,0.284668-2.1889648,0.8549805-3.1323242
			s1.3134766-1.6181641,2.2304688-2.0244141v0.2329102c-0.4584961,0.2509766-0.8349609,0.5942383-1.1293945,1.0297852
			c-0.2944336,0.4360352-0.5141602,0.987793-0.659668,1.65625c-0.1450195,0.668457-0.2177734,1.3662109-0.2177734,2.09375
			c0,0.7900391,0.0615234,1.5083008,0.1845703,2.1542969c0.0966797,0.5097656,0.2138672,0.918457,0.3520508,1.2270508
			c0.1376953,0.3081055,0.3232422,0.6044922,0.5561523,0.8886719S54.4005547,114.4383163,54.7770195,114.6971054z"/>
		<path id="XMLID_111_" class="st2" d="M78.1285782,104.8328476v-0.2329102
			c0.5664063,0.2768555,1.0375977,0.6040039,1.4140625,0.9804688c0.5327148,0.5390625,0.9443359,1.1713867,1.2353516,1.8969727
			c0.2905273,0.7255859,0.4360352,1.4814453,0.4360352,2.2680664c0,1.1445313-0.284668,2.1884766-0.8525391,3.1318359
			c-0.5683594,0.9433594-1.3129883,1.6181641-2.2329102,2.0244141v-0.2045898
			c0.4580078-0.2548828,0.8354492-0.5991211,1.1318359-1.0332031c0.2958984-0.434082,0.5161133-0.9858398,0.6591797-1.6557617
			c0.1435547-0.6704102,0.215332-1.3691406,0.215332-2.0966797c0-0.7866211-0.0615234-1.5043945-0.1845703-2.1542969
			c-0.0927734-0.5097656-0.2094727-0.9174805-0.3491211-1.2241211s-0.3251953-0.6020508-0.5561523-0.8862305
			S78.508461,105.0911484,78.1285782,104.8328476z"/>
		<path id="XMLID_113_" class="st2" d="M86.9752579,104.5999374l-2.7446289,8.03125h-0.4472656l2.7446289-8.03125H86.9752579z"/>
		<path id="XMLID_115_" class="st2" d="M94.5538712,111.0301132l-0.5307617,1.4458008h-4.4716797v-0.2050781
			c1.3154297-1.1889648,2.2412109-2.159668,2.777832-2.9130859s0.8046875-1.4418945,0.8046875-2.065918
			c0-0.4765625-0.1469727-0.8676758-0.4414063-1.1743164c-0.2944336-0.3061523-0.6464844-0.4594727-1.0561523-0.4594727
			c-0.3730469,0-0.7075195,0.1079102-1.003418,0.3237305c-0.2963867,0.2163086-0.5151367,0.5327148-0.6567383,0.9501953h-0.2070313
			c0.0932617-0.6831055,0.3325195-1.2075195,0.7182617-1.5732422c0.3857422-0.3652344,0.8671875-0.5483398,1.4448242-0.5483398
			c0.6147461,0,1.128418,0.1958008,1.5400391,0.5874023c0.4116211,0.3911133,0.6176758,0.8525391,0.6176758,1.3842773
			c0,0.3803711-0.0893555,0.7607422-0.2685547,1.1411133c-0.2753906,0.5981445-0.7226563,1.2314453-1.3413086,1.8999023
			c-0.9277344,1.0043945-1.5073242,1.6098633-1.7382813,1.8164063h1.9785156c0.402832,0,0.6850586-0.0146484,0.847168-0.0444336
			c0.1621094-0.0292969,0.3081055-0.0893555,0.4384766-0.1796875s0.2441406-0.21875,0.3413086-0.3852539H94.5538712z"/>
	</g>
	<g id="XMLID_15_">
		<path id="XMLID_105_" class="st2" d="M58.2330742,107.463707c0.1269531,0.2138672,0.2143555,0.4145508,0.2626953,0.6005859
			c0.0483398,0.1865234,0.097168,0.5532227,0.1455078,1.0996094l0.2460938,2.7250977
			c0.2236328-0.2661133,0.5473633-0.6870117,0.972168-1.2631836c0.2050781-0.2802734,0.4584961-0.6625977,0.7602539-1.1464844
			c0.1826172-0.2949219,0.2944336-0.5019531,0.3354492-0.6201172c0.0224609-0.059082,0.0336914-0.1201172,0.0336914-0.1826172
			c0-0.0405273-0.0131836-0.0737305-0.0390625-0.0996094c-0.0263672-0.0258789-0.0942383-0.0566406-0.2041016-0.0917969
			c-0.1098633-0.034668-0.2011719-0.0996094-0.2739258-0.1938477c-0.0727539-0.09375-0.1088867-0.2021484-0.1088867-0.3237305
			c0-0.1513672,0.0444336-0.2734375,0.1337891-0.3657227c0.0898438-0.0922852,0.2016602-0.1381836,0.3354492-0.1381836
			c0.1640625,0,0.3037109,0.0673828,0.4194336,0.2021484c0.1152344,0.1347656,0.1733398,0.3203125,0.1733398,0.5566406
			c0,0.2915039-0.1005859,0.625-0.3017578,0.9995117c-0.2016602,0.375-0.5888672,0.949707-1.1625977,1.7250977
			c-0.5742188,0.7753906-1.269043,1.6210938-2.0849609,2.5366211c-0.5629883,0.6318359-0.9804688,1.0292969-1.2524414,1.1938477
			c-0.2719727,0.1640625-0.5048828,0.246582-0.6982422,0.246582c-0.1157227,0-0.2172852-0.043457-0.3046875-0.1303711
			c-0.0878906-0.0869141-0.1313477-0.1875-0.1313477-0.3017578c0-0.144043,0.0605469-0.2753906,0.1816406-0.3930664
			c0.1210938-0.1186523,0.2524414-0.1772461,0.394043-0.1772461c0.0742188,0,0.1357422,0.0166016,0.184082,0.0498047
			c0.0302734,0.0180664,0.0625,0.0708008,0.0981445,0.1577148c0.0351563,0.0864258,0.0678711,0.1450195,0.0976563,0.1743164
			c0.0185547,0.0185547,0.0410156,0.027832,0.0673828,0.027832c0.0219727,0,0.0610352-0.0185547,0.1171875-0.0556641
			c0.2050781-0.1254883,0.4433594-0.324707,0.715332-0.5981445c0.3579102-0.3618164,0.6225586-0.6572266,0.7939453-0.8857422
			l-0.3129883-3.5117188c-0.0522461-0.5795898-0.1308594-0.9321289-0.2348633-1.0576172
			c-0.1044922-0.1254883-0.2797852-0.1884766-0.5253906-0.1884766c-0.078125,0-0.2182617,0.0112305-0.4194336,0.0332031
			l-0.050293-0.2050781L58.2330742,107.463707z"/>
		<path id="XMLID_107_" class="st2" d="M74.4830704,107.463707c0.1826172,0.1918945,0.3203125,0.3837891,0.4135742,0.5756836
			c0.0668945,0.1328125,0.1767578,0.4819336,0.3295898,1.046875l0.4921875-0.730957
			c0.1303711-0.1772461,0.2885742-0.3461914,0.4750977-0.5068359c0.1860352-0.1606445,0.3500977-0.2705078,0.4916992-0.3295898
			c0.0893555-0.0366211,0.1879883-0.0551758,0.2963867-0.0551758c0.1601563,0,0.2875977,0.0424805,0.3828125,0.1269531
			c0.0952148,0.0854492,0.1425781,0.1884766,0.1425781,0.3105469c0,0.1401367-0.027832,0.2363281-0.0839844,0.2880859
			c-0.1044922,0.0922852-0.2236328,0.1381836-0.3579102,0.1381836c-0.078125,0-0.1616211-0.0166016-0.2514648-0.0498047
			c-0.1748047-0.059082-0.2924805-0.0883789-0.3520508-0.0883789c-0.0893555,0-0.1953125,0.0512695-0.3183594,0.1547852
			c-0.2314453,0.1918945-0.5068359,0.5629883-0.8276367,1.1132813l0.4584961,1.9052734
			c0.0708008,0.2919922,0.1303711,0.4663086,0.1787109,0.5234375c0.0488281,0.0571289,0.097168,0.0859375,0.1455078,0.0859375
			c0.078125,0,0.1694336-0.0424805,0.2739258-0.1274414c0.2050781-0.1699219,0.3798828-0.3916016,0.5253906-0.6645508
			l0.1958008,0.0996094c-0.2348633,0.4355469-0.5332031,0.7973633-0.8945313,1.0854492
			c-0.2050781,0.1625977-0.378418,0.2436523-0.5195313,0.2436523c-0.2089844,0-0.3745117-0.1162109-0.4975586-0.3486328
			c-0.0786133-0.144043-0.2407227-0.7646484-0.4863281-1.8613281c-0.581543,1.0009766-1.0473633,1.6450195-1.3974609,1.9331055
			c-0.2275391,0.1845703-0.4472656,0.2768555-0.659668,0.2768555c-0.1489258,0-0.2851563-0.0532227-0.4077148-0.1606445
			c-0.0898438-0.0810547-0.1342773-0.1899414-0.1342773-0.3266602c0-0.121582,0.0410156-0.2231445,0.1230469-0.3046875
			c0.0820313-0.0810547,0.1826172-0.121582,0.3017578-0.121582s0.2456055,0.059082,0.3798828,0.1772461
			c0.097168,0.0849609,0.1713867,0.1274414,0.2236328,0.1274414c0.0449219,0,0.1025391-0.0297852,0.1733398-0.0888672
			c0.175293-0.1401367,0.4135742-0.4428711,0.715332-0.9082031s0.4995117-0.8012695,0.5927734-1.0083008
			c-0.2314453-0.8969727-0.355957-1.371582-0.3745117-1.4233398c-0.0859375-0.2397461-0.1977539-0.409668-0.3354492-0.5092773
			c-0.1381836-0.1000977-0.3408203-0.1499023-0.609375-0.1499023c-0.0859375,0-0.1845703,0.0039063-0.2963867,0.0112305v-0.1992188
			L74.4830704,107.463707z"/>
	</g>
	<g id="XMLID_14_">
		<path id="XMLID_103_" class="st2" d="M63.9435234,109.2854843h5.8686485v0.5483398h-5.8686485V109.2854843z"/>
	</g>
</g>
<g id="XMLID_102_">
</g>
<g id="XMLID_151_">
</g>
<g id="XMLID_152_">
</g>
<g id="XMLID_153_">
</g>
<g id="XMLID_154_">
</g>
<g id="XMLID_155_">
</g>
</svg>
