<?xml version="1.0" encoding="utf-8"?>
<!-- Generator: Adobe Illustrator 19.0.0, SVG Export Plug-In . SVG Version: 6.00 Build 0)  -->
<svg version="1.1" id="Layer_1" xmlns="http://www.w3.org/2000/svg" xmlns:xlink="http://www.w3.org/1999/xlink" x="0px" y="0px"
	 viewBox="0 0 183.6666718 187" style="enable-background:new 0 0 183.6666718 187;" xml:space="preserve">
<style type="text/css">
	.st0{fill:none;stroke:#D0D2D3;stroke-miterlimit:10;stroke-dasharray:6;}
	.st1{fill:none;}
	.st2{fill:none;stroke:#262626;stroke-linecap:square;stroke-linejoin:round;stroke-miterlimit:10;}
	.st3{fill:#262626;}
	.st4{fill:none;stroke:#D95319;stroke-linejoin:round;stroke-miterlimit:10;}
	.st5{fill:none;stroke:#EDB120;stroke-linejoin:round;stroke-miterlimit:10;}
	.st6{fill:none;stroke:#0072BD;stroke-linejoin:round;stroke-miterlimit:10;}
	.st7{fill:#0072BD;}
	.st8{fill:#D95319;}
	.st9{fill:#EDB120;}
</style>
<line class="st0" x1="98.2387466" y1="167.3561554" x2="98.2387466" y2="5.5003133"/>
<line class="st0" x1="17.3108292" y1="86.4282303" x2="179.1666718" y2="86.4282303"/>
<rect x="17.3108292" y="5.5003133" class="st1" width="161.855835" height="161.855835"/>
<line class="st2" x1="17.3108292" y1="167.3561554" x2="179.1666718" y2="167.3561554"/>
<line class="st2" x1="17.3108292" y1="5.5003133" x2="179.1666718" y2="5.5003133"/>
<line class="st2" x1="47.6587982" y1="167.3561554" x2="47.6587982" y2="165.7375946"/>
<line class="st2" x1="98.2387466" y1="167.3561554" x2="98.2387466" y2="165.7375946"/>
<line class="st2" x1="148.8186951" y1="167.3561554" x2="148.8186951" y2="165.7375946"/>
<line class="st2" x1="47.6587982" y1="5.5003133" x2="47.6587982" y2="7.1188717"/>
<line class="st2" x1="98.2387466" y1="5.5003133" x2="98.2387466" y2="7.1188717"/>
<line class="st2" x1="148.8186951" y1="5.5003133" x2="148.8186951" y2="7.1188717"/>
<g>
	<path class="st3" d="M42.628582,181.5722656v-1.0175781h3.1079102v1.0175781H42.628582z"/>
	<path class="st3" d="M46.5738945,181.8867188l1.0625-0.0898438c0.0786133,0.5166016,0.2612305,0.90625,0.5478516,1.1660156
		c0.2866211,0.2607422,0.6323242,0.390625,1.0366211,0.390625c0.4873047,0,0.8994141-0.1835938,1.2368164-0.5507813
		c0.3369141-0.3671875,0.5058594-0.8544922,0.5058594-1.4609375c0-0.5771484-0.1621094-1.0322266-0.4863281-1.3662109
		c-0.3242188-0.3330078-0.7485352-0.5-1.2729492-0.5c-0.3261719,0-0.6201172,0.0742188-0.8823242,0.2226563
		c-0.262207,0.1474609-0.4682617,0.3398438-0.6181641,0.5751953l-0.949707-0.1230469l0.7978516-4.2324219h4.097168v0.9667969
		h-3.2880859l-0.4438477,2.2148438c0.4946289-0.3447266,1.0136719-0.5175781,1.5566406-0.5175781
		c0.7197266,0,1.3266602,0.2490234,1.8212891,0.7480469c0.4946289,0.4980469,0.7416992,1.1386719,0.7416992,1.921875
		c0,0.7451172-0.2172852,1.3896484-0.6518555,1.9326172c-0.5283203,0.6669922-1.2495117,1.0009766-2.1640625,1.0009766
		c-0.7490234,0-1.3608398-0.2099609-1.8344727-0.6298828C46.9122734,183.1367188,46.6412773,182.5800781,46.5738945,181.8867188z"/>
</g>
<g>
	<path class="st3" d="M95.2633438,179.9814453c0-0.9736328,0.1005859-1.7578125,0.3007813-2.3515625
		s0.4980469-1.0517578,0.8935547-1.3740234s0.8925781-0.4833984,1.4921875-0.4833984
		c0.4423828,0,0.8300781,0.0888672,1.1630859,0.2666016c0.3339844,0.1777344,0.609375,0.4345703,0.8261719,0.7705078
		c0.2177734,0.3349609,0.3876953,0.7431641,0.5117188,1.2246094s0.1855469,1.1308594,0.1855469,1.9472656
		c0,0.9667969-0.0996094,1.7470703-0.2978516,2.3408203c-0.1992188,0.59375-0.4960938,1.0527344-0.890625,1.3769531
		c-0.3955078,0.3242188-0.8945313,0.4863281-1.4980469,0.4863281c-0.7939453,0-1.4179688-0.2851563-1.8710938-0.8544922
		C95.5348282,182.6455078,95.2633438,181.5292969,95.2633438,179.9814453z M96.3033829,179.9814453
		c0,1.3525391,0.1582031,2.2529297,0.4746094,2.7001953c0.3164063,0.4482422,0.7070313,0.671875,1.171875,0.671875
		s0.8554688-0.2246094,1.171875-0.6738281c0.3164063-0.4501953,0.4746094-1.3496094,0.4746094-2.6982422
		c0-1.3564453-0.1582031-2.2568359-0.4746094-2.703125c-0.3164063-0.4453125-0.7109375-0.6689453-1.1826172-0.6689453
		c-0.4648438,0-0.8359375,0.1972656-1.1132813,0.5898438C96.477211,177.7021484,96.3033829,178.6289063,96.3033829,179.9814453z"/>
</g>
<g>
	<path class="st3" d="M145.842453,181.8867188l1.0625-0.0898438c0.078125,0.5166016,0.2607422,0.90625,0.5478516,1.1660156
		c0.2861328,0.2607422,0.6318359,0.390625,1.0371094,0.390625c0.4863281,0,0.8994141-0.1835938,1.2363281-0.5507813
		s0.5058594-0.8544922,0.5058594-1.4609375c0-0.5771484-0.1621094-1.0322266-0.4863281-1.3662109
		c-0.3242188-0.3330078-0.7480469-0.5-1.2734375-0.5c-0.3251953,0-0.6201172,0.0742188-0.8818359,0.2226563
		c-0.2626953,0.1474609-0.46875,0.3398438-0.6181641,0.5751953l-0.9501953-0.1230469l0.7988281-4.2324219h4.0966797v0.9667969
		h-3.2880859l-0.4433594,2.2148438c0.4941406-0.3447266,1.0126953-0.5175781,1.5566406-0.5175781
		c0.71875,0,1.3261719,0.2490234,1.8203125,0.7480469c0.4951172,0.4980469,0.7421875,1.1386719,0.7421875,1.921875
		c0,0.7451172-0.2177734,1.3896484-0.6523438,1.9326172c-0.5283203,0.6669922-1.2490234,1.0009766-2.1630859,1.0009766
		c-0.75,0-1.3613281-0.2099609-1.8349609-0.6298828C146.1803436,183.1367188,145.9098358,182.5800781,145.842453,181.8867188z"/>
</g>
<line class="st2" x1="17.3108292" y1="167.3561554" x2="17.3108292" y2="5.5003133"/>
<line class="st2" x1="179.1666718" y1="167.3561554" x2="179.1666718" y2="5.5003133"/>
<line class="st2" x1="17.3108292" y1="137.0081787" x2="18.929388" y2="137.0081787"/>
<line class="st2" x1="17.3108292" y1="86.4282303" x2="18.929388" y2="86.4282303"/>
<line class="st2" x1="17.3108292" y1="35.8482819" x2="18.929388" y2="35.8482819"/>
<line class="st2" x1="179.1666718" y1="137.0081787" x2="177.548111" y2="137.0081787"/>
<line class="st2" x1="179.1666718" y1="86.4282303" x2="177.548111" y2="86.4282303"/>
<line class="st2" x1="179.1666718" y1="35.8482819" x2="177.548111" y2="35.8482819"/>
<g>
	<path class="st3" d="M2.2809246,139.2822266v-1.0175781h3.1079099v1.0175781H2.2809246z"/>
	<path class="st3" d="M6.2262368,139.5966797l1.0625-0.0898438c0.0786133,0.5166016,0.2612305,0.90625,0.5478516,1.1660156
		c0.2866216,0.2607422,0.6323247,0.390625,1.0366216,0.390625c0.4873047,0,0.8994141-0.1835938,1.2368164-0.5507813
		c0.3369141-0.3671875,0.5058594-0.8544922,0.5058594-1.4609375c0-0.5771484-0.1621094-1.0322266-0.4863281-1.3662109
		c-0.3242188-0.3330078-0.7485352-0.5-1.2729492-0.5c-0.3261719,0-0.6201172,0.0742188-0.8823247,0.2226563
		c-0.262207,0.1474609-0.4682617,0.3398438-0.6181641,0.5751953l-0.949707-0.1230469l0.7978516-4.2324219h4.0971684v0.9667969
		H8.0133467l-0.4438481,2.2148438c0.4946294-0.3447266,1.0136724-0.5175781,1.5566411-0.5175781
		c0.7197266,0,1.3266602,0.2490234,1.8212891,0.7480469c0.4946289,0.4980469,0.7416992,1.1386719,0.7416992,1.921875
		c0,0.7451172-0.2172852,1.3896484-0.6518555,1.9326172c-0.5283203,0.6669922-1.2495117,1.0009766-2.1640625,1.0009766
		c-0.7490234,0-1.3608403-0.2099609-1.8344731-0.6298828C6.5646157,140.8466797,6.2936196,140.2900391,6.2262368,139.5966797z"/>
</g>
<g>
	<path class="st3" d="M6.2779946,87.1123047c0-0.9736328,0.1005859-1.7578125,0.3007813-2.3515625
		c0.2006836-0.59375,0.4985352-1.0517578,0.8935547-1.3740234c0.3955078-0.3222656,0.8925786-0.4833984,1.492188-0.4833984
		c0.4418945,0,0.8300781,0.0888672,1.1635742,0.2666016c0.3330078,0.1777344,0.6083984,0.4345703,0.8261719,0.7705078
		c0.2167969,0.3349609,0.3876953,0.7431641,0.5112305,1.2246094s0.1855469,1.1308594,0.1855469,1.9472656
		c0,0.9667969-0.0996094,1.7470703-0.2978516,2.3408203c-0.1987305,0.59375-0.4956055,1.0527344-0.8911133,1.3769531
		c-0.3950195,0.3242188-0.8945313,0.4863281-1.4975586,0.4863281c-0.7944336,0-1.4179692-0.2851563-1.8715825-0.8544922
		C6.5499673,89.7763672,6.2779946,88.6601563,6.2779946,87.1123047z M7.3180337,87.1123047
		c0,1.3525391,0.1582031,2.2529297,0.4746094,2.7001953c0.316895,0.4482422,0.70752,0.671875,1.1718755,0.671875
		s0.8549805-0.2246094,1.171875-0.6738281c0.3164063-0.4501953,0.4746094-1.3496094,0.4746094-2.6982422
		c0-1.3564453-0.1582031-2.2568359-0.4746094-2.703125c-0.3168945-0.4453125-0.7109375-0.6689453-1.1831055-0.6689453
		c-0.4643555,0-0.8354492,0.1972656-1.1127934,0.5898438C7.4918618,84.8330078,7.3180337,85.7597656,7.3180337,87.1123047z"/>
</g>
<g>
	<path class="st3" d="M6.2779946,38.4375l1.0625-0.0898438c0.0786133,0.5170898,0.2612305,0.9057617,0.5478516,1.1660156
		c0.2866216,0.2607422,0.6323247,0.390625,1.0366216,0.390625c0.4873047,0,0.8994141-0.1835938,1.2368164-0.5507813
		c0.3369141-0.3671875,0.5058594-0.8540039,0.5058594-1.4609375c0-0.5771484-0.1621094-1.0322266-0.4863281-1.3657227
		s-0.7485352-0.5004883-1.2729492-0.5004883c-0.3261719,0-0.6201172,0.0742188-0.8823242,0.222168
		c-0.2622075,0.1479492-0.4682622,0.3398438-0.6181645,0.5761719l-0.949707-0.1235352l0.7978516-4.2319336h4.0971684v0.9663086
		H8.0651045l-0.4438481,2.2143555c0.4946294-0.3447266,1.0136724-0.5170898,1.5566411-0.5170898
		c0.7197266,0,1.3266602,0.2495117,1.8212891,0.7475586c0.4946289,0.4985352,0.7416992,1.1391602,0.7416992,1.9223633
		c0,0.7456055-0.2172852,1.3896484-0.6518555,1.9331055c-0.5283203,0.6669922-1.2495117,1.0004883-2.1640625,1.0004883
		c-0.7490234,0-1.3608403-0.2099609-1.8344731-0.6293945C6.6163735,39.6870117,6.3453774,39.1308594,6.2779946,38.4375z"/>
</g>
<polyline class="st4" points="70.2327347,5.4979248 70.4514618,7.2310257 70.8571167,10.3179836 71.2627716,13.2825651 
	71.668396,16.1295147 72.0740585,18.8633595 72.4797134,21.4885998 72.885376,24.0093784 73.2910309,26.4297695 
	73.6966858,28.7536716 74.1023483,30.9848099 74.5080032,33.1268005 74.9136276,35.1830521 75.3192902,37.1568985 
	75.7249451,39.0514679 76.1306,40.8698883 76.5362625,42.615036 76.9419174,44.2896919 77.34758,45.8966217 77.7532349,47.4383278 
	78.1588593,48.9173355 78.5645142,50.3360329 78.9701767,51.696701 79.3758316,53.0014877 79.7814941,54.2524986 
	80.187149,55.4518051 80.5928116,56.6012344 80.9984665,57.702755 81.4040909,58.758049 81.8097458,59.7688408 
	82.2154083,60.7367783 82.6210632,61.6633759 83.0267258,62.5501404 83.4323807,63.3985138 83.8380356,64.2098618 
	84.2436981,64.9854584 84.6493225,65.726593 85.0549774,66.4344025 85.46064,67.1100998 85.8662949,67.7546768 
	86.2719498,68.3692551 86.6776123,68.9547882 87.0832672,69.5122223 87.4889297,70.0424347 87.8945541,70.5463028 
	88.300209,71.0246353 88.705864,71.4782028 89.1115265,71.9077148 89.5171814,72.3138657 89.9228439,72.697319 
	90.3284988,73.0586853 90.7341614,73.3985596 91.1397781,73.7174911 91.5454407,74.0159836 91.9510956,74.294487 
	92.3567581,74.5534973 92.762413,74.7933655 93.1680756,75.0145874 93.5737305,75.2174301 93.9793854,75.4022217 
	94.3850098,75.569313 94.7906723,75.7189102 95.1963272,75.8512955 95.6019897,75.9666824 96.0076447,76.0652084 
	96.4132996,76.1471176 96.8189621,76.2124557 97.224617,76.2613831 97.6302414,76.2939453 98.0359039,76.3102417 
	98.4415588,76.3102417 98.8472137,76.2939453 99.2528763,76.2613831 99.6585007,76.2124557 100.0641556,76.1471176 
	100.4698181,76.0652084 100.875473,75.9666824 101.2811279,75.8512955 101.6867905,75.7189102 102.0924454,75.569313 
	102.4981079,75.4022217 102.9037323,75.2174301 103.3093872,75.0145874 103.7150421,74.7933655 104.1207047,74.5534973 
	104.5263596,74.294487 104.9320221,74.0159836 105.337677,73.7174911 105.7433395,73.3985596 106.1489563,73.0586853 
	106.5546188,72.697319 106.9602737,72.3138657 107.3659363,71.9077148 107.7715912,71.4782028 108.1772537,71.0246353 
	108.5829086,70.5463028 108.9885712,70.0424347 109.3941879,69.5122223 109.7998505,68.9547882 110.2055054,68.3692551 
	110.6111679,67.7546768 111.0168228,67.1100998 111.4224854,66.4344025 111.8281403,65.726593 112.2337952,64.9854584 
	112.6394196,64.2098618 113.0450821,63.3985138 113.450737,62.5501404 113.8563995,61.6633759 114.2620544,60.7367783 
	114.6677094,59.7688408 115.0733719,58.758049 115.4790268,57.702755 115.8846512,56.6012344 116.2903137,55.4518051 
	116.6959686,54.2524986 117.1016235,53.0014877 117.5072861,51.696701 117.912941,50.3360329 118.3186035,48.9173355 
	118.7242584,47.4383278 119.1298828,45.8966217 119.5355377,44.2896919 119.9412003,42.615036 120.3468552,40.8698883 
	120.7525177,39.0514679 121.1581726,37.1568985 121.5638351,35.1830521 121.9694901,33.1268005 122.3751144,30.9848099 
	122.7807693,28.7536716 123.1864319,26.4297695 123.5920868,24.0093784 123.9977493,21.4885998 124.4034042,18.8633595 
	124.8090591,16.1295147 125.2147217,13.2825651 125.6203461,10.3179836 126.026001,7.2310257 126.2447281,5.4979248 "/>
<polyline class="st5" points="17.3108292,96.54422 17.7164688,96.54422 18.1221275,96.54422 18.5277863,96.54422 
	18.933445,96.54422 19.3390846,96.54422 19.7447433,96.54422 20.1504021,96.54422 20.5560589,96.54422 20.9617004,96.54422 
	21.3673592,96.54422 21.773016,96.54422 22.1786747,96.54422 22.5843163,96.54422 22.9899731,96.54422 23.3956318,96.54422 
	23.8012905,96.54422 24.2069302,96.54422 24.6125889,96.54422 25.0182476,96.54422 25.4238873,96.54422 25.829546,96.54422 
	26.2352047,96.54422 26.6408443,96.54422 27.0465202,96.54422 27.4521618,96.54422 27.8578205,96.54422 28.2634773,96.54422 
	28.669136,96.54422 29.0747776,96.54422 29.4804344,96.54422 29.8860931,96.54422 30.2917347,96.54422 30.6973915,96.54422 
	31.1030502,96.54422 31.5086918,96.5441895 31.9143658,96.5441895 32.3200073,96.5441895 32.725666,96.5441895 
	33.1313248,96.5441895 33.5369835,96.5441895 33.9426231,96.5441895 34.3482819,96.5441895 34.7539406,96.5441513 
	35.1595802,96.5441513 35.565239,96.5441513 35.9708977,96.5441513 36.3765182,96.5441513 36.782177,96.5441132 
	37.1878357,96.5441132 37.5934944,96.5441132 37.9991531,96.5441132 38.4048119,96.5440826 38.8104668,96.5440826 
	39.2161255,96.5440826 39.6217499,96.5440445 40.0274086,96.5440445 40.4330673,96.544014 40.838726,96.544014 
	41.244381,96.5439758 41.6500397,96.5439758 42.0556984,96.5439377 42.4613571,96.5439072 42.8669815,96.543869 
	43.2726402,96.5438385 43.6782951,96.5438385 44.0839539,96.5438004 44.4896126,96.5437317 44.8952713,96.5436935 
	45.30093,96.543663 45.7065887,96.5436249 46.1122093,96.5435562 46.517868,96.5435181 46.9235268,96.5434494 
	47.3291855,96.5433807 47.7348442,96.5433121 48.1405029,96.5432358 48.5461617,96.5431366 48.9518204,96.5430603 
	49.3574409,96.5429611 49.7630997,96.5428543 50.1687584,96.5427475 50.5744171,96.5426025 50.9800758,96.5424652 
	51.3857346,96.5423279 51.7913895,96.5421524 52.1970482,96.5419769 52.6026726,96.5418015 53.0083313,96.5415878 
	53.41399,96.5413742 53.8196487,96.5411301 54.2253036,96.5408859 54.6309624,96.5406036 55.0366211,96.5402908 
	55.4422455,96.5399704 55.8479042,96.5395889 56.2535629,96.5391998 56.6592178,96.5388107 57.0648766,96.538353 
	57.4705353,96.5378647 57.876194,96.5373001 58.2818527,96.5367432 58.6874771,96.5361099 59.093132,96.5354385 
	59.4987907,96.5347061 59.9044495,96.5338974 60.3101082,96.5330505 60.7157669,96.5321045 61.1214256,96.5310822 
	61.5270844,96.5299988 61.9327393,96.528801 62.3383636,96.5275345 62.7440224,96.5261307 63.1496811,96.5246201 
	63.5553398,96.5229721 63.9609985,96.5212173 64.3666534,96.5192871 64.772316,96.5172119 65.1779404,96.5149612 
	65.5835953,96.5125046 65.9892502,96.5098724 66.3949127,96.5069885 66.8005676,96.5038986 67.2062302,96.5005264 
	67.6118851,96.4969101 68.0175476,96.4929428 68.4231644,96.4886932 68.8288269,96.4840546 69.2344818,96.4790268 
	69.6401443,96.4736176 70.0457993,96.46772 70.4514618,96.4613647 70.8571167,96.4544754 71.2627716,96.4470291 
	71.668396,96.4389496 72.0740585,96.4302063 72.4797134,96.4207611 72.885376,96.4104996 73.2910309,96.3993988 
	73.6966858,96.3874207 74.1023483,96.3744278 74.5080032,96.3603745 74.9136276,96.3451691 75.3192902,96.3287277 
	75.7249451,96.3109589 76.1306,96.2917099 76.5362625,96.2709122 76.9419174,96.2483978 77.34758,96.2240906 77.7532349,96.1978226 
	78.1588593,96.1694412 78.5645142,96.1387711 78.9701767,96.1056519 79.3758316,96.0698624 79.7814941,96.0312576 
	80.187149,95.9896011 80.5928116,95.9446716 80.9984665,95.8962021 81.4040909,95.8439713 81.8097458,95.7876663 
	82.2154083,95.7270432 82.6210632,95.6617813 83.0267258,95.5915604 83.4323807,95.5160446 83.8380356,95.434906 
	84.2436981,95.3477631 84.6493225,95.2542191 85.0549774,95.1539078 85.46064,95.0463867 85.8662949,94.931282 
	86.2719498,94.8081741 86.6776123,94.6765594 87.0832672,94.5360947 87.4889297,94.3862839 87.8945541,94.2267151 
	88.300209,94.0569916 88.705864,93.8766937 89.1115265,93.6854019 89.5171814,93.4828033 89.9228439,93.2685394 
	90.3284988,93.042366 90.7341614,92.8040085 91.1397781,92.5532913 91.5454407,92.2901001 91.9510956,92.0144043 
	92.3567581,91.7262039 92.762413,91.4256744 93.1680756,91.1129913 93.5737305,90.7884674 93.9793854,90.4525681 
	94.3850098,90.1057434 94.7906723,89.748703 95.1963272,89.3821335 95.6019897,89.0068588 96.0076447,88.6238556 
	96.4132996,88.2341461 96.8189621,87.8387833 97.224617,87.4389877 97.6302414,87.0360031 98.0359039,86.6310425 
	98.4415588,86.2254562 98.8472137,85.8205032 99.2528763,85.417511 99.6585007,85.0177155 100.0641556,84.6223526 
	100.4698181,84.2326431 100.875473,83.8496399 101.2811279,83.4743652 101.6867905,83.1077957 102.0924454,82.7507553 
	102.4981079,82.4039307 102.9037323,82.0680313 103.3093872,81.7435074 103.7150421,81.4308243 104.1207047,81.1303024 
	104.5263596,80.8421021 104.9320221,80.5664063 105.337677,80.3032074 105.7433395,80.0524902 106.1489563,79.8141327 
	106.5546188,79.5879593 106.9602737,79.3736954 107.3659363,79.1710968 107.7715912,78.979805 108.1772537,78.7995148 
	108.5829086,78.6297913 108.9885712,78.4702148 109.3941879,78.3204041 109.7998505,78.1799393 110.2055054,78.0483322 
	110.6111679,77.9252167 111.0168228,77.810112 111.4224854,77.7025909 111.8281403,77.6022797 112.2337952,77.5087357 
	112.6394196,77.4215927 113.0450821,77.3404541 113.450737,77.2649384 113.8563995,77.194725 114.2620544,77.1294632 
	114.6677094,77.0688324 115.0733719,77.0125275 115.4790268,76.9602966 115.8846512,76.9118271 116.2903137,76.8668976 
	116.6959686,76.8252411 117.1016235,76.7866364 117.5072861,76.7508469 117.912941,76.7177277 118.3186035,76.6870575 
	118.7242584,76.6586761 119.1298828,76.6324081 119.5355377,76.6081009 119.9412003,76.5855865 120.3468552,76.5647888 
	120.7525177,76.5455399 121.1581726,76.527771 121.5638351,76.5113297 121.9694901,76.4961243 122.3751144,76.4820709 
	122.7807693,76.4690781 123.1864319,76.4570999 123.5920868,76.4459991 123.9977493,76.4357452 124.4034042,76.4262924 
	124.8090591,76.4175491 125.2147217,76.4094696 125.6203461,76.4020233 126.026001,76.395134 126.4316635,76.3887482 
	126.8373184,76.3828812 127.2429733,76.3774719 127.6486359,76.3724442 128.0542908,76.3678131 128.4599457,76.3635635 
	128.8655701,76.3595886 129.2712402,76.3559723 129.6768951,76.3526001 130.08255,76.3495102 130.488205,76.3466263 
	130.8938599,76.3439941 131.29953,76.3415375 131.7051849,76.3392868 132.1108093,76.3372192 132.5164642,76.3352814 
	132.9221191,76.3335266 133.327774,76.3318787 133.7334442,76.330368 134.1390991,76.3289642 134.544754,76.3276978 
	134.9504089,76.3264999 135.3560333,76.3254166 135.7616882,76.3243942 136.1673584,76.3234482 136.5730133,76.3226013 
	136.9786682,76.3217926 137.3843231,76.3210602 137.789978,76.3203888 138.1956482,76.3197556 138.6012726,76.3191986 
	139.0069275,76.318634 139.4125824,76.3181458 139.8182373,76.317688 140.2238922,76.3172989 140.6295624,76.3168793 
	141.0352173,76.3165283 141.4408722,76.3162079 141.8464966,76.3158951 142.2521515,76.3156128 142.6578064,76.3153687 
	143.0634766,76.3151245 143.4691315,76.3149109 143.8747864,76.3146973 144.2804108,76.3145218 144.6861115,76.3143463 
	145.0917206,76.3141708 145.4973907,76.3140335 145.9030457,76.3138962 146.3087006,76.3137512 146.7143555,76.3136444 
	147.1200256,76.3135452 147.5256805,76.3134384 147.9313049,76.3133698 148.3369598,76.3132629 148.7426147,76.3131943 
	149.1482697,76.313118 149.5539398,76.3130493 149.9595947,76.3129807 150.3652191,76.3129425 150.7709045,76.3128738 
	151.1765594,76.3128357 151.5821838,76.3128052 151.987854,76.312767 152.3935089,76.3126984 152.7991638,76.3126602 
	153.2048187,76.3126602 153.6104736,76.3126297 154.016098,76.3125916 154.4217682,76.312561 154.8274231,76.3125229 
	155.233078,76.3125229 155.6387329,76.3124847 156.0443878,76.3124847 156.450058,76.3124542 156.8556824,76.3124542 
	157.2613678,76.3124161 157.6669922,76.3124161 158.0726471,76.3124161 158.478302,76.3123856 158.8839722,76.3123856 
	159.2896271,76.3123856 159.695282,76.3123474 160.1009064,76.3123474 160.5065613,76.3123474 160.9122162,76.3123474 
	161.3178864,76.3123474 161.7235413,76.3123474 162.1291962,76.3123093 162.5348511,76.3123093 162.940506,76.3123093 
	163.3461304,76.3123093 163.7518005,76.3123093 164.1574554,76.3123093 164.5631104,76.3123093 164.9687653,76.3123093 
	165.3744202,76.3122787 165.7800903,76.3122787 166.1857452,76.3122787 166.5913696,76.3122787 166.9970245,76.3122787 
	167.4026794,76.3122787 167.8083344,76.3122787 168.2140045,76.3122787 168.6196594,76.3122787 169.0253143,76.3122787 
	169.4309692,76.3122787 169.8365936,76.3122787 170.2422485,76.3122787 170.6479187,76.3122787 171.0535736,76.3122787 
	171.4592285,76.3122787 171.8648834,76.3122787 172.2705536,76.3122787 172.6762085,76.3122787 173.0818329,76.3122787 
	173.4874878,76.3122787 173.8931427,76.3122787 174.2987976,76.3122787 174.7044678,76.3122787 175.1101227,76.3122787 
	175.5157776,76.3122787 175.9214325,76.3122787 176.3270569,76.3122787 176.7327118,76.3122787 177.138382,76.3122787 
	177.5440369,76.3122406 177.9496918,76.3122406 178.3553467,76.3122406 178.7610016,76.3122406 179.1666718,76.3122406 "/>
<polyline class="st6" points="70.1532135,167.3585815 70.4514618,164.9767456 70.8571167,161.8632355 71.2627716,158.871048 
	71.668396,155.9953308 72.0740585,153.2315216 72.4797134,150.5751648 72.885376,148.0219269 73.2910309,145.5677795 
	73.6966858,143.2087555 74.1023483,140.9410248 74.5080032,138.7609558 74.9136276,136.6650848 75.3192902,134.6499634 
	75.7249451,132.7124329 76.1306,130.8493042 76.5362625,129.0576477 76.9419174,127.3345184 77.34758,125.6772156 
	77.7532349,124.0830002 78.1588593,122.5493393 78.5645142,121.0738144 78.9701767,119.6539536 79.3758316,118.2875595 
	79.7814941,116.9724121 80.187149,115.7063675 80.5928116,114.4874268 80.9984665,113.3135834 81.4040909,112.1829834 
	81.8097458,111.0938263 82.2154083,110.0443268 82.6210632,109.0327988 83.0267258,108.0576248 83.4323807,107.1172562 
	83.8380356,106.2101593 84.2436981,105.3348389 84.6493225,104.4899445 85.0549774,103.6740952 85.46064,102.8860016 
	85.8662949,102.124382 86.2719498,101.3879929 86.6776123,100.6756592 87.0832672,99.9862213 87.4889297,99.3186035 
	87.8945541,98.6717377 88.300209,98.044548 88.705864,97.4360123 89.1115265,96.8452072 89.5171814,96.2711639 
	89.9228439,95.7129211 90.3284988,95.1696396 90.7341614,94.6403809 91.1397781,94.1243591 91.5454407,93.6207047 
	91.9510956,93.1286316 92.3567581,92.647316 92.762413,92.1760101 93.1680756,91.7139435 93.5737305,91.260376 
	93.9793854,90.8145676 94.3850098,90.3758545 94.7906723,89.9434662 95.1963272,89.5167389 95.6019897,89.0949554 
	96.0076447,88.6774597 96.4132996,88.2636185 96.8189621,87.8526917 97.224617,87.4440842 97.6302414,87.0370865 
	98.0359039,86.6310806 98.4415588,86.2254181 98.8472137,85.8194122 99.2528763,85.4124146 99.6585007,85.0038071 
	100.0641556,84.5928802 100.4698181,84.1790085 100.875473,83.7615433 101.2811279,83.3397675 101.6867905,82.9130325 
	102.0924454,82.4806442 102.4981079,82.0419006 102.9037323,81.5961227 103.3093872,81.1425552 103.7150421,80.6804886 
	104.1207047,80.2091827 104.5263596,79.7278671 104.9320221,79.2358017 105.337677,78.7321396 105.7433395,78.2161179 
	106.1489563,77.6868591 106.5546188,77.1435776 106.9602737,76.5853424 107.3659363,76.0112915 107.7715912,75.4204865 
	108.1772537,74.8119507 108.5829086,74.184761 108.9885712,73.5378952 109.3941879,72.8702774 109.7998505,72.1808472 
	110.2055054,71.4685135 110.6111679,70.7321167 111.0168228,69.9704666 111.4224854,69.1823654 111.8281403,68.3665543 
	112.2337952,67.5216599 112.6394196,66.646347 113.0450821,65.7392426 113.450737,64.7988739 113.8563995,63.8237 
	114.2620544,62.8121719 114.6677094,61.7626724 115.0733719,60.6735191 115.4790268,59.5429153 115.8846512,58.3690758 
	116.2903137,57.150135 116.6959686,55.8840904 117.1016235,54.5689392 117.5072861,53.2025452 117.912941,51.7826881 
	118.3186035,50.3071594 118.7242584,48.7734985 119.1298828,47.1792793 119.5355377,45.5219803 119.9412003,43.7988548 
	120.3468552,42.0071983 120.7525177,40.1440659 121.1581726,38.2065392 121.5638351,36.1914177 121.9694901,34.0955467 
	122.3751144,31.9154816 122.7807693,29.6477432 123.1864319,27.2887154 123.5920868,24.8345699 123.9977493,22.2813358 
	124.4034042,19.6249752 124.8090591,16.8611679 125.2147217,13.9854507 125.6203461,10.9932604 126.026001,7.8797488 
	126.3242493,5.4979248 "/>
<g>
	<g>
		<path class="st7" d="M128.3024139,50.1508789v1.8251953h-0.1933594c-0.1494217-0.5732422-0.3398514-0.9633789-0.5722733-1.1699219
			c-0.2333984-0.206543-0.5292969-0.3100586-0.8896484-0.3100586c-0.2734375,0-0.4951172,0.0722656-0.6630859,0.2163086
			c-0.1679688,0.1445313-0.2519531,0.3041992-0.2519531,0.4799805c0,0.2182617,0.0625,0.4057617,0.1875,0.5620117
			c0.1210938,0.1591797,0.3671875,0.3291016,0.7392578,0.5087891l0.8574219,0.4150391
			c0.7939529,0.3867188,1.1914139,0.8955078,1.1914139,1.5273438c0,0.4873047-0.1855469,0.8808594-0.5546875,1.1787109
			c-0.3701248,0.2988281-0.7841873,0.4482422-1.2412186,0.4482422c-0.3291016,0-0.7050781-0.0585938-1.1269531-0.1757813
			c-0.1298828-0.0390625-0.2353516-0.0585938-0.3173828-0.0585938c-0.0898438,0-0.1601563,0.0507813-0.2109375,0.1523438h-0.1943359
			v-1.9130859h0.1943359c0.109375,0.5458984,0.3183594,0.9570313,0.6279297,1.234375
			c0.3085938,0.2773438,0.6552734,0.4150391,1.0390625,0.4150391c0.2695313,0,0.4892578-0.0791016,0.6601563-0.2363281
			c0.1699219-0.1582031,0.2548828-0.3486328,0.2548828-0.5712891c0-0.2685547-0.0947266-0.4951172-0.2841797-0.6787109
			c-0.1904297-0.1826172-0.5683594-0.4150391-1.1357422-0.6962891c-0.5673828-0.2802734-0.9394531-0.5341797-1.1152344-0.7607422
			c-0.1767578-0.2216797-0.2646484-0.5029297-0.2646484-0.8417969c0-0.440918,0.1523438-0.8095703,0.4550781-1.1064453
			c0.3037109-0.2963867,0.6953125-0.4443359,1.1767578-0.4443359c0.2119141,0,0.4677734,0.0449219,0.7695313,0.1342773
			c0.1992188,0.0585938,0.3320313,0.0878906,0.3984375,0.0878906c0.0625,0,0.1113281-0.0136719,0.1474609-0.0410156
			c0.0351639-0.0273438,0.0761795-0.0878906,0.1230545-0.1811523H128.3024139z"/>
		<path class="st7" d="M131.3727264,50.1508789v4.3066406c0,0.3349609,0.0244141,0.5585938,0.0732422,0.6699219
			s0.1210938,0.1943359,0.2177734,0.2480469c0.0957031,0.0546875,0.2705078,0.0820313,0.5253906,0.0820313v0.2109375h-2.6123047
			v-0.2109375c0.2617188,0,0.4384766-0.0253906,0.5283203-0.0761719c0.0898438-0.0498047,0.1611328-0.1337891,0.2138672-0.2509766
			s0.0791016-0.3417969,0.0791016-0.6728516v-2.0654297c0-0.5810547-0.0175781-0.9580078-0.0527344-1.1293945
			c-0.0273438-0.125-0.0703125-0.2119141-0.1289063-0.2607422c-0.0585938-0.0483398-0.1386719-0.0727539-0.2402344-0.0727539
			c-0.109375,0-0.2431641,0.0288086-0.3994141,0.0874023l-0.0820313-0.2104492l1.6201172-0.6552734H131.3727264z
			 M130.8854218,47.3481445c0.1650391,0,0.3046875,0.0576172,0.4199219,0.1723633
			c0.1152344,0.1152344,0.1728516,0.2548828,0.1728516,0.418457c0,0.1640625-0.0576172,0.3041992-0.1728516,0.4213867
			s-0.2548828,0.175293-0.4199219,0.175293c-0.1640625,0-0.3046875-0.0581055-0.421875-0.175293
			c-0.1181641-0.1171875-0.1767578-0.2573242-0.1767578-0.4213867c0-0.1635742,0.0576172-0.3032227,0.1738281-0.418457
			C130.5758514,47.4057617,130.717453,47.3481445,130.8854218,47.3481445z"/>
		<path class="st7" d="M134.4606171,51.2861328c0.6298828-0.7568359,1.2304688-1.1352539,1.8017578-1.1352539
			c0.2939453,0,0.5458984,0.0732422,0.7578125,0.2192383c0.2109375,0.1464844,0.3789063,0.387207,0.5048828,0.7226563
			c0.0859375,0.2338867,0.1289063,0.5932617,0.1289063,1.0766602v2.2880859c0,0.3388672,0.0273438,0.5693359,0.0820313,0.6904297
			c0.0429688,0.0976563,0.1123047,0.1738281,0.2080078,0.2275391c0.0966797,0.0546875,0.2734375,0.0820313,0.53125,0.0820313
			v0.2109375h-2.6582031v-0.2109375h0.1113281c0.25,0,0.4257813-0.0380859,0.5253906-0.1142578
			c0.0996094-0.0751953,0.1689453-0.1875,0.2080078-0.3359375c0.015625-0.0585938,0.0234375-0.2421875,0.0234375-0.5498047
			v-2.1943359c0-0.4873047-0.0634766-0.8417969-0.1904297-1.0620117s-0.3417969-0.3305664-0.6425781-0.3305664
			c-0.4658203,0-0.9296875,0.253418-1.3916016,0.7607422v2.8261719c0,0.3623047,0.0214844,0.5869141,0.0644531,0.6728516
			c0.0546875,0.1132813,0.1298828,0.1953125,0.2265625,0.2480469c0.0957031,0.0527344,0.2900391,0.0791016,0.5839844,0.0791016
			v0.2109375h-2.6591797v-0.2109375h0.1171875c0.2744141,0,0.4589844-0.0693359,0.5546875-0.2070313
			c0.0957031-0.1386719,0.1435547-0.4033203,0.1435547-0.7929688v-1.9892578c0-0.6445313-0.0146484-1.0361328-0.0439453-1.1767578
			c-0.0292969-0.1401367-0.0742188-0.2358398-0.1347656-0.2866211c-0.0605469-0.050293-0.1416016-0.0756836-0.2431641-0.0756836
			c-0.109375,0-0.2412109,0.0288086-0.3935547,0.0874023l-0.0878906-0.2104492l1.6201172-0.6552734h0.2519531V51.2861328z"/>
		<path class="st7" d="M140.4821014,47.3481445v3.9204102c0.4345703-0.4760742,0.7792969-0.78125,1.0332031-0.9160156
			c0.2548828-0.1342773,0.5087891-0.2016602,0.7636719-0.2016602c0.3046875,0,0.5673828,0.0839844,0.7861328,0.2514648
			c0.21875,0.1679688,0.3818359,0.4311523,0.4873047,0.7900391c0.0742188,0.2495117,0.1113281,0.7055664,0.1113281,1.3686523
			v1.8964844c0,0.3388672,0.0273438,0.5712891,0.0820313,0.6962891c0.0390625,0.09375,0.1054688,0.1679688,0.2001953,0.2216797
			c0.09375,0.0546875,0.265625,0.0820313,0.5166016,0.0820313v0.2109375h-2.6416016v-0.2109375h0.1230469
			c0.25,0,0.4248047-0.0380859,0.5224609-0.1142578c0.0976563-0.0751953,0.1660156-0.1875,0.2050781-0.3359375
			c0.0117188-0.0625,0.0175781-0.2460938,0.0175781-0.5498047v-1.8964844c0-0.5849609-0.0302734-0.96875-0.0908203-1.1523438
			c-0.0605469-0.1831055-0.1572266-0.3208008-0.2900391-0.4125977c-0.1337891-0.0913086-0.2939453-0.137207-0.4814453-0.137207
			c-0.1923828,0-0.3916016,0.0507813-0.5986328,0.1518555c-0.2080078,0.1015625-0.4560547,0.3066406-0.7460938,0.6147461v2.8320313
			c0,0.3662109,0.0214844,0.5947266,0.0625,0.6845703s0.1171875,0.1650391,0.2285156,0.2246094
			c0.1113281,0.0605469,0.3037109,0.0908203,0.578125,0.0908203v0.2109375h-2.6640625v-0.2109375
			c0.2382813,0,0.4257813-0.0371094,0.5634766-0.1113281c0.078125-0.0380859,0.140625-0.1123047,0.1875-0.2216797
			s0.0703125-0.3320313,0.0703125-0.6669922v-4.8510742c0-0.6123047-0.015625-0.9887695-0.0449219-1.1289063
			c-0.0292969-0.140625-0.0742188-0.2363281-0.1347656-0.2871094c-0.0605469-0.050293-0.1416016-0.0756836-0.2431641-0.0756836
			c-0.0820313,0-0.2148438,0.03125-0.3984375,0.0932617l-0.0830078-0.2045898l1.6083984-0.6552734H140.4821014z"/>
	</g>
	<g>
		<path class="st7" d="M149.2623749,50.3730469c0.1914063,0.203125,0.3359375,0.4057617,0.4335938,0.6083984
			c0.0712891,0.140625,0.1865234,0.5092773,0.3466797,1.105957l0.5166016-0.7724609
			c0.1367188-0.1870117,0.3027344-0.3657227,0.4990234-0.5351563c0.1953125-0.1699219,0.3671875-0.2856445,0.5166016-0.3481445
			c0.09375-0.0390625,0.1972656-0.0585938,0.3105469-0.0585938c0.1689453,0,0.3027344,0.0449219,0.4023438,0.1347656
			s0.1494141,0.1987305,0.1494141,0.3276367c0,0.1479492-0.0292969,0.2495117-0.0878906,0.3041992
			c-0.109375,0.0976563-0.234375,0.1464844-0.3759766,0.1464844c-0.0820313,0-0.1699219-0.0175781-0.2636719-0.0527344
			c-0.1835938-0.0625-0.3076172-0.09375-0.3701172-0.09375c-0.09375,0-0.2050781,0.0546875-0.3339844,0.1635742
			c-0.2431641,0.203125-0.5322266,0.5947266-0.8691406,1.1767578l0.4814453,2.0126953
			c0.0742188,0.3076172,0.1367188,0.4921875,0.1875,0.5527344s0.1025391,0.0908203,0.1533203,0.0908203
			c0.0820313,0,0.1777344-0.0449219,0.2871094-0.1347656c0.2158203-0.1796875,0.3994141-0.4130859,0.5517578-0.7021484
			l0.2060547,0.1054688c-0.2470703,0.4599609-0.5605469,0.8427734-0.9394531,1.1464844
			c-0.2158203,0.171875-0.3974609,0.2578125-0.5458984,0.2578125c-0.2197266,0-0.3935547-0.1230469-0.5224609-0.3691406
			c-0.0820313-0.1513672-0.2519531-0.8076172-0.5107422-1.9658203c-0.6103516,1.0576172-1.0996094,1.7382813-1.4677734,2.0419922
			c-0.2382813,0.1953125-0.46875,0.2929688-0.6923828,0.2929688c-0.15625,0-0.2988281-0.0566406-0.4277344-0.1699219
			c-0.0947266-0.0859375-0.1416016-0.2011719-0.1416016-0.3447266c0-0.1289063,0.0429688-0.2363281,0.1289063-0.3222656
			c0.0869141-0.0859375,0.1923828-0.1289063,0.3173828-0.1289063s0.2578125,0.0625,0.3994141,0.1875
			c0.1015625,0.0898438,0.1796875,0.1347656,0.234375,0.1347656c0.046875,0,0.1074219-0.03125,0.1816406-0.09375
			c0.1845703-0.1484375,0.4345703-0.4677734,0.7519531-0.9599609c0.3164063-0.4912109,0.5244141-0.8466797,0.6220703-1.0644531
			c-0.2431641-0.9482422-0.3740234-1.4492188-0.3935547-1.5039063c-0.0898438-0.253418-0.2070313-0.4331055-0.3515625-0.5385742
			c-0.1455078-0.1049805-0.3583984-0.1577148-0.640625-0.1577148c-0.0898438,0-0.1933594,0.0039063-0.3105469,0.0117188v-0.2109375
			L149.2623749,50.3730469z"/>
	</g>
</g>
<g>
	<g>
		<path class="st8" d="M46.5494804,53.6328125c-0.1445313,0.7060547-0.4272461,1.2490234-0.8481445,1.6298828
			c-0.4213867,0.3798828-0.887207,0.5703125-1.3984375,0.5703125c-0.6079102,0-1.1386719-0.2558594-1.5908203-0.7666016
			s-0.6782227-1.2011719-0.6782227-2.0712891c0-0.8427734,0.2504883-1.5273438,0.7514648-2.0541992
			c0.5009766-0.5263672,1.1025391-0.7895508,1.8041992-0.7895508c0.5268555,0,0.9594727,0.1391602,1.2988281,0.418457
			c0.3393555,0.2788086,0.5087891,0.5683594,0.5087891,0.8686523c0,0.1484375-0.0478516,0.2685547-0.1430664,0.3603516
			c-0.0957031,0.0908203-0.2294922,0.1367188-0.4008789,0.1367188c-0.2299805,0-0.4038086-0.0742188-0.5205078-0.2216797
			c-0.0664063-0.0820313-0.1103516-0.2382813-0.1318359-0.4682617c-0.0214844-0.2304688-0.1000977-0.4057617-0.2368164-0.5268555
			c-0.1367188-0.1171875-0.3256836-0.175293-0.5673828-0.175293c-0.3901367,0-0.7036133,0.144043-0.9418945,0.4326172
			c-0.3154297,0.3823242-0.4736328,0.887207-0.4736328,1.5161133c0,0.6396484,0.1572266,1.2041016,0.4711914,1.6933594
			c0.3134766,0.4892578,0.737793,0.734375,1.2719727,0.734375c0.3823242,0,0.7250977-0.1308594,1.0292969-0.3916016
			c0.2143555-0.1796875,0.4233398-0.5058594,0.6259766-0.9775391L46.5494804,53.6328125z"/>
		<path class="st8" d="M49.8639336,50.1513672c0.8110352,0,1.4624023,0.3081055,1.9536133,0.9243164
			c0.4174805,0.5268555,0.6259766,1.1313477,0.6259766,1.8139648c0,0.4794922-0.1147461,0.9658203-0.3452148,1.4570313
			c-0.2299805,0.4912109-0.546875,0.8623047-0.9501953,1.1113281c-0.4038086,0.25-0.8530273,0.375-1.3481445,0.375
			c-0.8076172,0-1.4487305-0.3222656-1.9248047-0.9658203c-0.4013672-0.5419922-0.6020508-1.1503906-0.6020508-1.8251953
			c0-0.4921875,0.121582-0.9804688,0.3652344-1.4658203C47.882,51.090332,48.2028008,50.7314453,48.60075,50.4995117
			C48.9982109,50.2675781,49.4195976,50.1513672,49.8639336,50.1513672z M49.6827812,50.5317383
			c-0.206543,0-0.4145508,0.0610352-0.6230469,0.184082s-0.3769531,0.3383789-0.5058594,0.6464844
			c-0.1289063,0.3085938-0.1928711,0.7041016-0.1928711,1.1875c0,0.7802734,0.1547852,1.453125,0.4648438,2.0195313
			c0.3100586,0.5654297,0.7182617,0.8476563,1.2255859,0.8476563c0.3779297,0,0.6899414-0.1552734,0.9355469-0.4677734
			c0.2460938-0.3115234,0.3686523-0.8486328,0.3686523-1.609375c0-0.9511719-0.2045898-1.7001953-0.6142578-2.246582
			C50.4645195,50.71875,50.1114922,50.5317383,49.6827812,50.5317383z"/>
		<path class="st8" d="M56.6959648,50.1513672v1.8251953h-0.1928711c-0.1484375-0.5732422-0.3383789-0.9633789-0.5703125-1.1699219
			s-0.5273438-0.3100586-0.8862305-0.3100586c-0.2729492,0-0.4931641,0.0722656-0.6606445,0.2163086
			c-0.1679688,0.1445313-0.2519531,0.3041992-0.2519531,0.4799805c0,0.2182617,0.0625,0.4057617,0.1875,0.5620117
			c0.1206055,0.1591797,0.3662109,0.3291016,0.7368164,0.5087891l0.8540039,0.4150391
			c0.7915039,0.3867188,1.1875,0.8955078,1.1875,1.5273438c0,0.4873047-0.184082,0.8808594-0.5527344,1.1787109
			c-0.3686523,0.2988281-0.7807617,0.4482422-1.2373047,0.4482422c-0.3276367,0-0.7016602-0.0585938-1.1230469-0.1757813
			c-0.128418-0.0390625-0.2338867-0.0585938-0.315918-0.0585938c-0.0893555,0-0.159668,0.0507813-0.2104492,0.1523438h-0.1928711
			v-1.9130859h0.1928711c0.109375,0.5458984,0.3178711,0.9570313,0.6259766,1.234375s0.652832,0.4150391,1.0351563,0.4150391
			c0.269043,0,0.4887695-0.0791016,0.6582031-0.2363281c0.1694336-0.1582031,0.2543945-0.3486328,0.2543945-0.5712891
			c0-0.2685547-0.0947266-0.4951172-0.2836914-0.6787109c-0.1889648-0.1826172-0.5664063-0.4150391-1.1318359-0.6962891
			c-0.5654297-0.2802734-0.9360352-0.5341797-1.1113281-0.7607422c-0.175293-0.2216797-0.2631836-0.5029297-0.2631836-0.8417969
			c0-0.440918,0.1508789-0.8095703,0.453125-1.1064453c0.3022461-0.2963867,0.6933594-0.4443359,1.1728516-0.4443359
			c0.2104492,0,0.4658203,0.0449219,0.7661133,0.1342773c0.1992188,0.0585938,0.331543,0.0878906,0.3979492,0.0878906
			c0.0625,0,0.1113281-0.0136719,0.1459961-0.0410156c0.0351563-0.0273438,0.0761719-0.0878906,0.1230469-0.1811523H56.6959648z"/>
		<path class="st8" d="M59.4816093,47.3486328v3.9204102c0.4326172-0.4760742,0.7753906-0.78125,1.0292969-0.9160156
			c0.2529297-0.1342773,0.5068359-0.2016602,0.7597656-0.2016602c0.3046875,0,0.5654297,0.0839844,0.7841797,0.2514648
			c0.21875,0.1679688,0.3798828,0.4311523,0.4853516,0.7900391c0.0742188,0.2495117,0.1113281,0.7055664,0.1113281,1.3686523
			v1.8964844c0,0.3388672,0.0273438,0.5712891,0.0820313,0.6962891c0.0390625,0.09375,0.1054688,0.1679688,0.1982422,0.2216797
			c0.09375,0.0546875,0.265625,0.0820313,0.5146484,0.0820313v0.2109375h-2.6318359v-0.2109375h0.1230469
			c0.2490234,0,0.4228516-0.0380859,0.5205078-0.1142578c0.0976563-0.0751953,0.1660156-0.1875,0.2050781-0.3359375
			c0.0117188-0.0625,0.0175781-0.2460938,0.0175781-0.5498047v-1.8964844c0-0.5849609-0.0302734-0.96875-0.0908203-1.1523438
			c-0.0605469-0.1831055-0.1572266-0.3208008-0.2900391-0.4125977c-0.1318359-0.0913086-0.2919922-0.137207-0.4794922-0.137207
			c-0.1914063,0-0.3896484,0.0507813-0.5966797,0.1518555c-0.2060547,0.1015625-0.4541016,0.3066406-0.7421875,0.6147461v2.8320313
			c0,0.3662109,0.0205078,0.5947266,0.0605469,0.6845703c0.0410156,0.0898438,0.1171875,0.1650391,0.2285156,0.2246094
			c0.1113281,0.0605469,0.3027344,0.0908203,0.5761719,0.0908203v0.2109375h-2.6552734v-0.2109375
			c0.2373047,0,0.4248047-0.0371094,0.5615234-0.1113281c0.078125-0.0380859,0.1396484-0.1123047,0.1865234-0.2216797
			s0.0703125-0.3320313,0.0703125-0.6669922v-4.8510742c0-0.6123047-0.0146484-0.9887695-0.0439453-1.1289063
			c-0.0292969-0.140625-0.0742188-0.2363281-0.1337891-0.2871094c-0.0605469-0.050293-0.1416016-0.0756836-0.2431641-0.0756836
			c-0.0820313,0-0.2148438,0.03125-0.3974609,0.0932617l-0.0820313-0.2045898l1.6025391-0.6552734H59.4816093z"/>
	</g>
	<g>
		<path class="st8" d="M68.223793,50.3735352c0.1914063,0.203125,0.3359375,0.4057617,0.4335938,0.6083984
			c0.0693359,0.140625,0.1845703,0.5092773,0.3447266,1.105957l0.5146484-0.7724609
			c0.1367188-0.1870117,0.3017578-0.3657227,0.4970703-0.5351563c0.1953125-0.1699219,0.3662109-0.2856445,0.5146484-0.3481445
			c0.09375-0.0390625,0.1972656-0.0585938,0.3105469-0.0585938c0.1669922,0,0.3007813,0.0449219,0.4003906,0.1347656
			s0.1494141,0.1987305,0.1494141,0.3276367c0,0.1479492-0.0292969,0.2495117-0.0878906,0.3041992
			c-0.109375,0.0976563-0.234375,0.1464844-0.3740234,0.1464844c-0.0820313,0-0.1699219-0.0175781-0.2636719-0.0527344
			c-0.1835938-0.0625-0.3066406-0.09375-0.3681641-0.09375c-0.09375,0-0.2050781,0.0546875-0.3339844,0.1635742
			c-0.2412109,0.203125-0.5302734,0.5947266-0.8652344,1.1767578l0.4794922,2.0126953
			c0.0742188,0.3076172,0.1367188,0.4921875,0.1875,0.5527344c0.0498047,0.0605469,0.1005859,0.0908203,0.1513672,0.0908203
			c0.0820313,0,0.1777344-0.0449219,0.2871094-0.1347656c0.2138672-0.1796875,0.3974609-0.4130859,0.5498047-0.7021484
			l0.2041016,0.1054688c-0.2451172,0.4599609-0.5576172,0.8427734-0.9355469,1.1464844
			c-0.2148438,0.171875-0.3955078,0.2578125-0.5439453,0.2578125c-0.21875,0-0.3916016-0.1230469-0.5205078-0.3691406
			c-0.0820313-0.1513672-0.2519531-0.8076172-0.5087891-1.9658203c-0.6083984,1.0576172-1.0957031,1.7382813-1.4619141,2.0419922
			c-0.2382813,0.1953125-0.46875,0.2929688-0.6904297,0.2929688c-0.15625,0-0.2988281-0.0566406-0.4277344-0.1699219
			c-0.0927734-0.0859375-0.1396484-0.2011719-0.1396484-0.3447266c0-0.1289063,0.0429688-0.2363281,0.1289063-0.3222656
			c0.0849609-0.0859375,0.1904297-0.1289063,0.3154297-0.1289063s0.2578125,0.0625,0.3974609,0.1875
			c0.1015625,0.0898438,0.1796875,0.1347656,0.234375,0.1347656c0.046875,0,0.1074219-0.03125,0.1816406-0.09375
			c0.1826172-0.1484375,0.4326172-0.4677734,0.7480469-0.9599609c0.3164063-0.4912109,0.5224609-0.8466797,0.6201172-1.0644531
			c-0.2421875-0.9482422-0.3720703-1.4492188-0.3916016-1.5039063c-0.0898438-0.253418-0.2070313-0.4331055-0.3515625-0.5385742
			c-0.1435547-0.1049805-0.3564453-0.1577148-0.6367188-0.1577148c-0.0898438,0-0.1933594,0.0039063-0.3105469,0.0117188v-0.2109375
			L68.223793,50.3735352z"/>
	</g>
</g>
<g>
	<g>
		<path class="st9" d="M38.0104179,101.5478516v1.7607422h1.2485352v0.4101563h-1.2485352v3.4755859
			c0,0.3476563,0.0493164,0.5810547,0.1484375,0.7021484c0.0996094,0.1210938,0.2265625,0.1816406,0.3823242,0.1816406
			c0.128418,0,0.2529297-0.0400391,0.3735352-0.1201172s0.2138672-0.1982422,0.2802734-0.3535156h0.2275391
			c-0.1362305,0.3818359-0.3291016,0.6699219-0.5776367,0.8623047c-0.2490234,0.1933594-0.5058594,0.2900391-0.7705078,0.2900391
			c-0.1787109,0-0.3540039-0.0498047-0.5249023-0.1494141c-0.1713867-0.0996094-0.2978516-0.2421875-0.3793945-0.4267578
			c-0.0820313-0.1855469-0.1225586-0.4716797-0.1225586-0.8574219V103.71875h-0.8461914v-0.1933594
			c0.2138672-0.0859375,0.4326172-0.2314453,0.65625-0.4355469c0.2236328-0.2050781,0.4233398-0.4482422,0.5981445-0.7285156
			c0.0898438-0.1484375,0.2138672-0.4199219,0.3735352-0.8134766H38.0104179z"/>
		<path class="st9" d="M42.8424492,107.8964844c-0.5483398,0.4257813-0.8925781,0.6708984-1.0327148,0.7373047
			c-0.2099609,0.0976563-0.434082,0.1464844-0.6708984,0.1464844c-0.3696289,0-0.6743164-0.1269531-0.9135742-0.3808594
			c-0.2392578-0.2529297-0.3588867-0.5869141-0.3588867-1c0-0.2617188,0.0585938-0.4873047,0.175293-0.6787109
			c0.1591797-0.265625,0.4365234-0.5146484,0.831543-0.7490234c0.3945313-0.234375,1.0512695-0.5185547,1.9692383-0.8544922
			V104.90625c0-0.5341797-0.0844727-0.9013672-0.2539063-1.0996094c-0.1689453-0.1992188-0.4150391-0.2988281-0.737793-0.2988281
			c-0.2451172,0-0.4399414,0.0664063-0.5839844,0.1992188c-0.1474609,0.1328125-0.2216797,0.2841797-0.2216797,0.4560547
			l0.0117188,0.3398438c0,0.1796875-0.0454102,0.3183594-0.137207,0.4150391
			c-0.0913086,0.0976563-0.2109375,0.1464844-0.3588867,0.1464844c-0.1435547,0-0.2612305-0.0507813-0.3530273-0.1523438
			c-0.0913086-0.1005859-0.1367188-0.2392578-0.1367188-0.4150391c0-0.3359375,0.1708984-0.6435547,0.5131836-0.9248047
			s0.8227539-0.4208984,1.4414063-0.4208984c0.4746094,0,0.8637695,0.0800781,1.1669922,0.2392578
			c0.2294922,0.1210938,0.3989258,0.3105469,0.5078125,0.5673828c0.0698242,0.1679688,0.1049805,0.5117188,0.1049805,1.0302734
			v1.8203125c0,0.5107422,0.0097656,0.8242188,0.0292969,0.9384766c0.019043,0.1152344,0.0512695,0.1923828,0.0961914,0.2314453
			c0.0444336,0.0390625,0.0961914,0.0585938,0.1547852,0.0585938c0.0620117,0,0.1166992-0.0136719,0.1630859-0.0410156
			c0.081543-0.0507813,0.2392578-0.1933594,0.4726563-0.4267578v0.3271484
			c-0.4355469,0.5849609-0.8520508,0.8779297-1.2485352,0.8779297c-0.190918,0-0.3422852-0.0664063-0.4550781-0.1992188
			C42.9044609,108.4423828,42.8463554,108.2167969,42.8424492,107.8964844z M42.8424492,107.5166016v-2.0419922
			c-0.5874023,0.2333984-0.9667969,0.3994141-1.1376953,0.4970703c-0.3076172,0.171875-0.5273438,0.3505859-0.659668,0.5380859
			s-0.1982422,0.3925781-0.1982422,0.6142578c0,0.28125,0.0834961,0.5146484,0.2509766,0.6992188
			c0.1669922,0.1855469,0.3598633,0.2783203,0.5776367,0.2783203
			C41.9708672,108.1015625,42.3600273,107.90625,42.8424492,107.5166016z"/>
		<path class="st9" d="M46.6051445,104.2861328c0.6259766-0.7568359,1.2231445-1.1347656,1.7910156-1.1347656
			c0.2919922,0,0.5429688,0.0732422,0.7529297,0.21875c0.2099609,0.1464844,0.3774414,0.3876953,0.5019531,0.7226563
			c0.0854492,0.234375,0.128418,0.59375,0.128418,1.0771484v2.2880859c0,0.3388672,0.0268555,0.5693359,0.081543,0.6904297
			c0.0429688,0.0976563,0.1118164,0.1738281,0.2070313,0.2275391c0.0952148,0.0546875,0.2714844,0.0820313,0.5283203,0.0820313
			v0.2109375h-2.6435547v-0.2109375h0.1108398c0.2490234,0,0.4233398-0.0380859,0.5224609-0.1142578
			c0.0991211-0.0751953,0.1679688-0.1875,0.2070313-0.3359375c0.015625-0.0585938,0.0234375-0.2421875,0.0234375-0.5498047
			v-2.1943359c0-0.4873047-0.0634766-0.8417969-0.1899414-1.0625c-0.1264648-0.2197266-0.3393555-0.3300781-0.6386719-0.3300781
			c-0.4628906,0-0.9238281,0.2529297-1.3828125,0.7607422v2.8261719c0,0.3623047,0.0209961,0.5869141,0.0639648,0.6728516
			c0.0546875,0.1132813,0.1293945,0.1953125,0.2246094,0.2480469s0.2890625,0.0791016,0.5805664,0.0791016v0.2109375h-2.6430664
			v-0.2109375h0.1166992c0.2719727,0,0.4560547-0.0693359,0.5512695-0.2070313
			c0.0952148-0.1386719,0.1430664-0.4033203,0.1430664-0.7929688V105.46875c0-0.6445313-0.0146484-1.0361328-0.0439453-1.1767578
			s-0.0737305-0.2363281-0.1342773-0.2871094c-0.0600586-0.0498047-0.1411133-0.0751953-0.2421875-0.0751953
			c-0.1088867,0-0.2392578,0.0283203-0.390625,0.0869141l-0.0878906-0.2099609l1.6108398-0.6552734h0.2509766V104.2861328z"/>
		<path class="st9" d="M52.5914726,100.3486328v3.9199219c0.4316406-0.4755859,0.7734375-0.78125,1.0263672-0.9160156
			c0.2529297-0.1337891,0.5058594-0.2011719,0.7587891-0.2011719c0.3037109,0,0.5644531,0.0839844,0.7822266,0.2509766
			c0.2177734,0.1679688,0.3789063,0.4316406,0.484375,0.7900391c0.0732422,0.25,0.1103516,0.7060547,0.1103516,1.3691406v1.8964844
			c0,0.3388672,0.0273438,0.5712891,0.0820313,0.6962891c0.0390625,0.09375,0.1054688,0.1679688,0.1982422,0.2216797
			c0.09375,0.0546875,0.2646484,0.0820313,0.5136719,0.0820313v0.2109375h-2.6259766v-0.2109375h0.1230469
			c0.2480469,0,0.421875-0.0380859,0.5185547-0.1142578c0.0976563-0.0751953,0.1660156-0.1875,0.2050781-0.3359375
			c0.0107422-0.0625,0.0166016-0.2460938,0.0166016-0.5498047v-1.8964844c0-0.5849609-0.0292969-0.96875-0.0898438-1.1523438
			s-0.1572266-0.3212891-0.2890625-0.4130859c-0.1318359-0.0908203-0.2919922-0.1367188-0.4785156-0.1367188
			c-0.1904297,0-0.3886719,0.0507813-0.5947266,0.1513672c-0.2070313,0.1015625-0.4541016,0.3066406-0.7412109,0.6152344v2.8320313
			c0,0.3662109,0.0205078,0.5947266,0.0605469,0.6845703c0.0410156,0.0898438,0.1171875,0.1650391,0.2285156,0.2246094
			c0.1103516,0.0605469,0.3017578,0.0908203,0.5742188,0.0908203v0.2109375h-2.6494141v-0.2109375
			c0.2373047,0,0.4238281-0.0371094,0.5605469-0.1113281c0.078125-0.0380859,0.1396484-0.1123047,0.1865234-0.2216797
			s0.0703125-0.3320313,0.0703125-0.6669922v-4.8515625c0-0.6123047-0.0146484-0.9882813-0.0439453-1.1289063
			s-0.0742188-0.2363281-0.1337891-0.2871094c-0.0605469-0.0498047-0.1416016-0.0751953-0.2421875-0.0751953
			c-0.0820313,0-0.2138672,0.03125-0.3974609,0.0927734l-0.0810547-0.2041016l1.5986328-0.6552734H52.5914726z"/>
	</g>
	<g>
		<path class="st9" d="M61.3043633,103.3730469c0.1904297,0.203125,0.3349609,0.40625,0.4316406,0.6083984
			c0.0703125,0.140625,0.1855469,0.5097656,0.3447266,1.1064453l0.5136719-0.7724609
			c0.1357422-0.1875,0.3007813-0.3662109,0.4960938-0.5351563c0.1943359-0.1699219,0.3652344-0.2861328,0.5126953-0.3486328
			c0.09375-0.0390625,0.1972656-0.0585938,0.3095703-0.0585938c0.1669884,0,0.3007774,0.0449219,0.3994102,0.1347656
			c0.0996094,0.0898438,0.1494141,0.1992188,0.1494141,0.328125c0,0.1474609-0.0292969,0.2490234-0.0878906,0.3037109
			c-0.1083984,0.0976563-0.2333984,0.1464844-0.3730469,0.1464844c-0.0820274,0-0.1699181-0.0175781-0.2626915-0.0527344
			c-0.1826172-0.0625-0.3056641-0.09375-0.3681641-0.09375c-0.0927734,0-0.2041016,0.0546875-0.3320313,0.1640625
			c-0.2412109,0.203125-0.5292969,0.5947266-0.8632813,1.1767578l0.4775391,2.0126953
			c0.0742188,0.3076172,0.1367188,0.4921875,0.1875,0.5527344c0.0498047,0.0605469,0.1005859,0.0908203,0.1513672,0.0908203
			c0.0820313,0,0.1767578-0.0449219,0.2861328-0.1347656c0.2138672-0.1796875,0.3964844-0.4130859,0.5488281-0.7021484
			l0.2040977,0.1054688c-0.2451134,0.4599609-0.5566368,0.8427734-0.9335899,1.1464844
			c-0.2148438,0.171875-0.3955078,0.2578125-0.5429688,0.2578125c-0.2177734,0-0.390625-0.1230469-0.5195313-0.3691406
			c-0.0820313-0.1513672-0.2509766-0.8076172-0.5078125-1.9658203c-0.6064453,1.0576172-1.0927734,1.7382813-1.4589844,2.0419922
			c-0.2373047,0.1953125-0.4667969,0.2929688-0.6884766,0.2929688c-0.1552734,0-0.296875-0.0566406-0.4257813-0.1699219
			c-0.0927734-0.0859375-0.1396484-0.2011719-0.1396484-0.3447266c0-0.1289063,0.0429688-0.2363281,0.1279297-0.3222656
			c0.0859375-0.0859375,0.1904297-0.1289063,0.3154297-0.1289063c0.1240234,0,0.2568359,0.0625,0.3964844,0.1875
			c0.1015625,0.0898438,0.1787109,0.1347656,0.2333984,0.1347656c0.046875,0,0.1074219-0.03125,0.1806641-0.09375
			c0.1835938-0.1484375,0.4326172-0.4677734,0.7470703-0.9599609c0.3154297-0.4912109,0.5214844-0.8466797,0.6191406-1.0644531
			c-0.2412109-0.9482422-0.3720703-1.4492188-0.3916016-1.5039063c-0.0888672-0.2539063-0.2060547-0.4335938-0.3496094-0.5390625
			c-0.1445313-0.1044922-0.3564453-0.1572266-0.6357422-0.1572266c-0.0898438,0-0.1933594,0.0039063-0.3095703,0.0117188v-0.2109375
			L61.3043633,103.3730469z"/>
	</g>
</g>
<g>
	<g>
		<path d="M178.1217499,178.7304688c0.1904297,0.2041016,0.3349609,0.4072266,0.4326172,0.6113281
			c0.0693359,0.140625,0.1845703,0.5107422,0.34375,1.109375l0.5146484-0.7753906
			c0.1357422-0.1875,0.3007813-0.3662109,0.4960938-0.5371094c0.1943359-0.1699219,0.3662109-0.2861328,0.5136719-0.3496094
			c0.09375-0.0390625,0.1962891-0.0585938,0.3095703-0.0585938c0.1669922,0,0.3007813,0.0449219,0.4003906,0.1357422
			c0.0986328,0.0898438,0.1484375,0.1992188,0.1484375,0.328125c0,0.1494141-0.0292969,0.2509766-0.0878906,0.3056641
			c-0.1083984,0.0976563-0.2333984,0.1464844-0.3730469,0.1464844c-0.0820313,0-0.1699219-0.0175781-0.2626953-0.0527344
			c-0.1835938-0.0625-0.3056641-0.09375-0.3681641-0.09375c-0.09375,0-0.2041016,0.0546875-0.3330078,0.1640625
			c-0.2412109,0.2041016-0.5292969,0.5976563-0.8642578,1.1806641l0.4785156,2.0195313
			c0.0742188,0.3095703,0.1367188,0.4951172,0.1875,0.5556641c0.0498047,0.0605469,0.1005859,0.0908203,0.1513672,0.0908203
			c0.0820313,0,0.1777344-0.0449219,0.2861328-0.1347656c0.2138672-0.1806641,0.3974609-0.4150391,0.5488281-0.7050781
			l0.2050781,0.1054688c-0.2451172,0.4619141-0.5566406,0.8457031-0.9345703,1.1513672
			c-0.2138672,0.171875-0.3955078,0.2578125-0.5429688,0.2578125c-0.21875,0-0.3916016-0.1230469-0.5205078-0.3691406
			c-0.0820313-0.1533203-0.25-0.8105469-0.5078125-1.9726563c-0.6064453,1.0605469-1.09375,1.7431641-1.4599609,2.0488281
			c-0.2373047,0.1953125-0.4667969,0.2929688-0.6884766,0.2929688c-0.15625,0-0.2978516-0.0566406-0.4267578-0.1699219
			c-0.0927734-0.0859375-0.1396484-0.2011719-0.1396484-0.3466797c0-0.1289063,0.0429688-0.2363281,0.1279297-0.3222656
			c0.0859375-0.0869141,0.1914063-0.1298828,0.3154297-0.1298828c0.125,0,0.2568359,0.0625,0.3974609,0.1884766
			c0.1005859,0.0898438,0.1787109,0.1347656,0.2333984,0.1347656c0.046875,0,0.1074219-0.03125,0.1806641-0.09375
			c0.1835938-0.1494141,0.4326172-0.4697266,0.7480469-0.9628906s0.5214844-0.8496094,0.6191406-1.0693359
			c-0.2412109-0.9511719-0.3720703-1.4541016-0.3916016-1.5087891c-0.0898438-0.2548828-0.2060547-0.4345703-0.3505859-0.5400391
			c-0.1435547-0.1064453-0.3564453-0.1591797-0.6367188-0.1591797c-0.0888672,0-0.1923828,0.0039063-0.3085938,0.0117188v-0.2109375
			L178.1217499,178.7304688z"/>
	</g>
</g>
<g>
	<g>
		<path d="M7.7242837,3.5087891c0.1333008,0.2250977,0.2255859,0.4355469,0.2763677,0.6313477
			c0.0507813,0.1958008,0.1020508,0.5805664,0.152832,1.1542969l0.2592773,2.8623047
			c0.2353516-0.2792969,0.5761719-0.7216797,1.0234375-1.3266602c0.2158203-0.2944336,0.4824219-0.6958008,0.7998047-1.2041016
			c0.1923828-0.3100586,0.3095703-0.5273438,0.3535156-0.6513672c0.0234375-0.0620117,0.0351563-0.1259766,0.0351563-0.1918945
			c0-0.0424805-0.0136719-0.0776367-0.0410156-0.1044922c-0.0273438-0.0273438-0.0996094-0.059082-0.2148438-0.0961914
			c-0.1162109-0.0366211-0.2119141-0.1044922-0.2880859-0.2036133c-0.0771484-0.0986328-0.1152344-0.2124023-0.1152344-0.340332
			c0-0.1586914,0.046875-0.2866211,0.1416016-0.3837891c0.09375-0.0966797,0.2119141-0.1455078,0.3525391-0.1455078
			c0.1728516,0,0.3193359,0.0708008,0.4414063,0.2124023c0.1210938,0.1416016,0.1826172,0.3364258,0.1826172,0.5844727
			c0,0.3066406-0.1064453,0.6567383-0.3183594,1.0498047c-0.2109375,0.394043-0.6191406,0.9975586-1.2236328,1.8120117
			C8.9381514,7.9819336,8.206706,8.8696289,7.3478189,9.831543c-0.5922852,0.6630859-1.0317383,1.0810547-1.3178711,1.2539063
			c-0.2861328,0.171875-0.53125,0.2587891-0.7353516,0.2587891c-0.121582,0-0.2285156-0.0458984-0.3208008-0.1367188
			c-0.0917969-0.0917969-0.1381836-0.1972656-0.1381836-0.3173828c0-0.1513672,0.0639648-0.2890625,0.1914063-0.4130859
			s0.265625-0.1855469,0.4145508-0.1855469c0.0786133,0,0.1430664,0.0166016,0.1943359,0.0517578
			c0.03125,0.0195313,0.0654297,0.0751953,0.1025391,0.1660156c0.0375977,0.0908203,0.0717773,0.1523438,0.1030273,0.1835938
			c0.0195313,0.0185547,0.043457,0.0283203,0.0708008,0.0283203c0.0234375,0,0.0644531-0.0195313,0.1235352-0.0576172
			c0.2158203-0.1318359,0.4667969-0.3417969,0.7529297-0.6289063C7.1652017,9.6547852,7.443522,9.3452148,7.624186,9.1049805
			L7.2945962,5.4169922C7.2399087,4.8081055,7.1573892,4.4375,7.0475259,4.3056641S6.7535806,4.1079102,6.4947915,4.1079102
			c-0.0825195,0-0.2294922,0.0117188-0.4414063,0.0351563l-0.0527344-0.215332L7.7242837,3.5087891z"/>
	</g>
</g>
</svg>
