<?xml version="1.0" encoding="utf-8"?>
<!-- Generator: Adobe Illustrator 19.0.0, SVG Export Plug-In . SVG Version: 6.00 Build 0)  -->
<svg version="1.1" id="Layer_1" xmlns="http://www.w3.org/2000/svg" xmlns:xlink="http://www.w3.org/1999/xlink" x="0px" y="0px"
	 viewBox="0 0 926 785" style="enable-background:new 0 0 926 785;" xml:space="preserve">
<style type="text/css">
	.st0{clip-path:url(#SVGID_2_);fill:#FFFFFF;}
	
		.st1{clip-path:url(#SVGID_2_);fill:none;stroke:#000000;stroke-width:5;stroke-linecap:round;stroke-linejoin:round;stroke-miterlimit:10;}
	
		.st2{clip-path:url(#SVGID_2_);fill:none;stroke:#000000;stroke-width:5;stroke-linejoin:round;stroke-miterlimit:10;stroke-dasharray:12,8;}
	.st3{clip-path:url(#SVGID_2_);fill-rule:evenodd;clip-rule:evenodd;}
	
		.st4{clip-path:url(#SVGID_2_);fill:none;stroke:#003399;stroke-width:5;stroke-linecap:round;stroke-linejoin:round;stroke-miterlimit:10;}
	.st5{clip-path:url(#SVGID_2_);fill-rule:evenodd;clip-rule:evenodd;fill:#003399;}
	.st6{clip-path:url(#SVGID_2_);}
	.st7{clip-path:url(#SVGID_2_);fill:none;stroke:#000000;stroke-linecap:round;stroke-linejoin:round;stroke-miterlimit:10;}
	.st8{clip-path:url(#SVGID_2_);fill:#663300;}
	.st9{clip-path:url(#SVGID_2_);fill:#006633;}
</style>
<g>
	<defs>
		<rect id="SVGID_1_" width="926" height="785"/>
	</defs>
	<clipPath id="SVGID_2_">
		<use xlink:href="#SVGID_1_"  style="overflow:visible;"/>
	</clipPath>
	<polyline class="st0" points="0,0 926,0 926,785 0,785 0,0 	"/>
	<path class="st1" d="M517,517.1341553c0-18.211792-3.7778931-36.2255554-11.0949097-52.902771"/>
	<line class="st2" x1="442.2000122" y1="260.9000244" x2="214.9349976" y2="591.892395"/>
	<line class="st2" x1="442.2000122" y1="260.9000244" x2="613.723999" y2="416.9266052"/>
	<line class="st1" x1="15.5136194" y1="517.1341553" x2="786.6325073" y2="517.1341553"/>
	<polygon class="st3" points="816.6325073,517.1341553 786.6325073,524.6341553 786.6325073,509.6341248 	"/>
	<line class="st1" x1="385.3270569" y1="708.9700928" x2="385.3270569" y2="118.8505249"/>
	<polygon class="st3" points="385.3270569,88.8505249 392.8270569,118.8505249 377.8270569,118.8505249 	"/>
	<line class="st4" x1="461.4432068" y1="690.6210938" x2="220.2637177" y2="140.9152832"/>
	<polygon class="st5" points="208.210495,113.4430542 227.1317596,137.9019775 213.3956757,143.9285278 	"/>
	<line class="st4" x1="39.3611336" y1="668.9241943" x2="844.1190796" y2="315.8424072"/>
	<polygon class="st5" points="871.5912476,303.7891846 847.1323853,322.7104492 841.1057739,308.9743652 	"/>
	<circle class="st6" cx="385.3270569" cy="517.1341553" r="5"/>
	<circle class="st7" cx="385.3270569" cy="517.1341553" r="5"/>
	<circle class="st8" cx="214.9349976" cy="591.892395" r="9"/>
	<circle class="st7" cx="214.9349976" cy="591.892395" r="9"/>
	<circle class="st9" cx="613.723999" cy="416.9266052" r="9"/>
	<circle class="st7" cx="613.723999" cy="416.9266052" r="9"/>
	<circle class="st6" cx="442.2000122" cy="260.9000244" r="6"/>
	<path class="st6" d="M357.1341248,573.7168579c0,0,5.6610107,0,9.9450073-6.2730103c0,0,2.1929932-3.2130127,3.7485046-9.0269775
		c0,0,1.5555115-5.8140259,1.5555115-8.9760132c0,0,0-1.0200195-0.1275024-1.9890137c0,0-0.1275024-0.9689941-0.5865173-2.1419678
		c0,0-0.4589844-1.1730347-1.1984863-2.0400391c0,0-0.739502-0.8670044-2.0910034-1.4790039
		c0,0-1.3515015-0.6119995-3.1365051-0.6119995c0,0-2.5499878,0-5.3804932,1.555542c0,0-2.8305054,1.555481-5.0744934,5.227478
		c0,0-1.9380188,3.2130127-3.2895203,8.6444702c0,0-1.3515015,5.4315186-1.3515015,8.5425415c0,0,0,3.9779663,1.6830139,6.1709595
		C351.8301392,571.3198242,353.7681274,573.7168579,357.1341248,573.7168579z M379.1151428,551.888855
		c0,0,0,4.1309814-1.5299988,8.3129883c0,0-1.5299988,4.1820068-4.2839966,7.7009888c0,0-2.7539978,3.519043-7.114502,5.7375488
		c0,0-4.3605042,2.2184448-9.5625,2.2184448c0,0-6.0180054,0-9.7409973-3.1619873c0,0-3.7230225-3.1619873-3.7230225-9.3839722
		c0,0,0-3.1110229,0.9179993-6.4515381c0,0,0.9179993-3.3404541,2.8305054-6.5025024c0,0,1.9125061-3.1619873,4.5390015-5.6609497
		c0,0,2.6264954-2.4990234,6.3495178-4.0290527c0,0,3.7229919-1.5299683,7.9559937-1.5299683c0,0,5.7630005,0,9.5625,3.1364746
		C375.3156433,542.2753296,379.1151428,545.4118652,379.1151428,551.888855"/>
	<path class="st6" d="M812.579895,555.8973999l6.8339844,16.8810425c0,0,0.2040405,0.4589844,0.3570557,0.5864868
		c0,0,0.1529541,0.1275024,0.7139893,0.1784668c0,0,0.4589844,0.0510254,1.6829834,0.0510254h0.6119995
		c0,0,1.632019,0,1.632019,0.9180298c0,0,0,0.6629639-0.2805176,1.0199585c0,0-0.2805176,0.3569946-0.5100098,0.40802
		c0,0-0.2294922,0.0510254-0.6375122,0.0510254c0,0-1.1219482,0-3.4169922-0.0765381c0,0-2.2949829-0.0764771-3.4679565-0.0764771
		c0,0-1.2750244,0-3.8250122,0.0764771c0,0-2.5499878,0.0765381-3.7739868,0.0765381c0,0-1.1220093,0-1.1220093-0.9180298
		c0,0,0-1.4790039,1.3769531-1.4790039c0,0,1.3770142,0,3.2130127-0.3569946l-4.6920166-11.5770264l-10.4549561,11.3730469
		c0,0,1.4790039,0.5609741,3.2130127,0.5609741c0,0,1.1219482,0,1.1219482,0.9180298c0,0,0,0.6629639-0.2804565,1.0199585
		c0,0-0.2805176,0.3569946-0.5100098,0.40802c0,0-0.2294922,0.0510254-0.6375122,0.0510254c0,0-1.1220093,0-3.3659668-0.0765381
		c0,0-2.2440186-0.0764771-3.3150024-0.0764771c0,0-0.9690552,0-2.8560181,0.0764771c0,0-1.8870239,0.0765381-2.8049927,0.0765381
		c0,0-1.0200195,0-1.0200195-0.9180298c0,0,0-0.7139893,0.3060303-1.0454712c0,0,0.3059692-0.331543,0.6119995-0.3825073
		c0,0,0.3059692-0.0510254,0.9179688-0.0510254c0,0,4.335022-0.0510254,6.1199951-1.9379883l11.8320313-12.8519897
		l-5.9160156-14.5859985c0,0-0.2039795-0.4590454-0.3569946-0.5865479c0,0-0.1530151-0.1275024-0.7139893-0.1784668
		c0,0-0.4590454-0.0510254-1.6830444-0.0510254h-0.6119995c0,0-1.631958,0-1.631958-0.9179688c0,0,0-1.4790039,1.4279785-1.4790039
		c0,0,1.1220093,0,3.4169922,0.0764771c0,0,2.2949829,0.0765381,3.4680176,0.0765381c0,0,1.2749634,0,3.8250122-0.0765381
		c0,0,2.5499878-0.0764771,3.7739868-0.0764771c0,0,1.1220093,0,1.1220093,0.9179688c0,0,0,0.6630249-0.2805176,1.0200195
		c0,0-0.2805176,0.3569946-0.5100098,0.40802c0,0-0.2294922,0.0509644-0.5864868,0.0509644c0,0-1.4790039,0-3.2130127,0.3569946
		l3.7739868,9.3330078l8.4150391-9.1289673c0,0-1.4280396-0.5610352-3.0599976-0.5610352c0,0-1.3259888,0-1.3259888-0.9179688
		c0,0,0-0.6630249,0.3059692-1.0200195c0,0,0.3060303-0.3569946,0.5355225-0.40802c0,0,0.2294922-0.0509644,0.5864868-0.0509644
		c0,0,1.0709839,0,3.3150024,0.0764771c0,0,2.2440186,0.0765381,3.3659668,0.0765381c0,0,0.9689941,0,2.8560181-0.0765381
		c0,0,1.8870239-0.0764771,2.8049927-0.0764771c0,0,1.0200195,0,1.0200195,0.9179688c0,0,0,0.7140503-0.2805176,1.0455322
		c0,0-0.2805176,0.3314819-0.5609741,0.3825073c0,0-0.2805176,0.0509644-0.8925171,0.0509644c0,0-4.4370117,0-6.2219849,1.9380493
		L812.579895,555.8973999z"/>
	<path class="st6" d="M425.2481995,103.4428101l-14.3309937,16.5749512l-2.8560181,11.4750366
		c0,0,1.223999,0.1019897,2.4990234,0.1019897h1.1219788c0,0,1.632019,0,1.632019,0.9180298c0,0,0,0.6629639-0.3059998,1.0199585
		c0,0-0.3059998,0.3569946-0.5355225,0.40802c0,0-0.2294922,0.0510254-0.6374817,0.0510254c0,0-1.223999,0-3.8250122-0.0765381
		c0,0-2.6009827-0.0765381-3.8760071-0.0765381c0,0-1.2749939,0-3.7994995,0.0765381c0,0-2.5244751,0.0765381-3.7484741,0.0765381
		c0,0-1.1220093,0-1.1220093-0.9180298c0,0,0-0.7139893,0.3059998-1.0454712c0,0,0.3059998-0.331543,0.6119995-0.3825684
		c0,0,0.3059998-0.0509644,0.8670044-0.0509644h1.1219788c0,0,1.4790039,0,2.0400085-0.0510254
		c0,0,0.7140198-0.1019897,0.8925171-0.2294922c0,0,0.1784973-0.1275024,0.3314819-0.6884766l2.6520081-10.6080322
		l-6.5280151-17.7989502c0,0-0.2039795-0.4590454-0.3569946-0.5865479c0,0-0.1529846-0.1275024-0.6629944-0.1784668
		c0,0-0.4589844-0.0510254-1.6829834-0.0510254h-0.61203c0,0-1.6319885,0-1.6319885-0.9179688c0,0,0-1.4790039,1.428009-1.4790039
		c0,0,1.1220093,0,3.4934998,0.0764771c0,0,2.3714905,0.0765381,3.5444946,0.0765381c0,0,1.2749939,0,3.8760071-0.0765381
		c0,0,2.6009827-0.0764771,3.8249817-0.0764771c0,0,1.1220093,0,1.1220093,0.9179688c0,0,0,0.6630249-0.2804871,1.0200195
		c0,0-0.2805176,0.3569946-0.5610046,0.40802c0,0-0.2805176,0.0509644-0.739502,0.0509644c0,0-1.4790039,0-3.1109924,0.2040405
		l5.2529907,14.4840088l12.2909851-14.2800293c0,0-1.0709839-0.40802-2.5499878-0.40802c0,0-1.3259888,0-1.3259888-0.9179688
		c0,0,0-1.4790039,1.4279785-1.4790039c0,0,0.9179993,0,2.9070129,0.0764771c0,0,1.9889832,0.0765381,2.9580078,0.0765381
		c0,0,0.815979,0,2.4734802-0.0765381c0,0,1.6575012-0.0764771,2.4225159-0.0764771c0,0,0.4589844,0,0.7139893,0.2804565
		c0,0,0.2550049,0.2805176,0.2550049,0.6375122c0,0,0,1.4790039-1.5299988,1.4790039c0,0-1.7340088,0-2.8815002,0.331543
		c0,0-1.1474915,0.3314819-1.5555115,0.6629639C426.2681885,102.3972778,425.860199,102.7287598,425.2481995,103.4428101z"/>
	<path class="st6" d="M870.1650391,334.9899292l-2.7540283,11.321991c0,0-0.1529541,0.6119995-0.1529541,1.428009
		c0,0,0,2.4989929,2.6009521,2.4989929c0,0,1.8359985,0,3.7485352-1.5809937c0,0,1.9124756-1.5810242,2.8305054-4.5390015
		c0,0,0.2039795-0.5100098,0.4334717-0.6119995c0,0,0.2294922-0.1020203,1.0455322-0.1020203c0,0,1.4279785,0,1.4279785,0.7140198
		c0,0,0,0.7139893-0.6630249,1.963501c0,0-0.6629639,1.2494812-1.8104858,2.6264954c0,0-1.1474609,1.3769836-3.0855103,2.3714905
		c0,0-1.9379883,0.9945068-4.1820068,0.9945068c0,0-4.5390015,0-6.375-2.7030029c0,0-2.2949829,2.7030029-5.2019653,2.7030029
		c0,0-2.3460083,0-3.9525146-1.2495117c0,0-1.6065063-1.2494812-1.6065063-3.2384949c0,0,0-1.7340088,1.0964966-2.8559875
		c0,0,1.0964966-1.1220093,2.5755005-1.1220093c0,0,1.1730347,0,1.8615112,0.6885071c0,0,0.6884766,0.6884766,0.6884766,1.6575012
		c0,0,0,2.4989929-2.6009521,3.4679871c0,0,0.7649536,0.8160095,2.039978,0.8160095c0,0,2.8049927,0,4.0800171-5.1000061
		l1.631958-6.6300049c0,0,1.1220093-4.4880066,1.1220093-5.5589905c0,0,0-2.4989929-2.6009521-2.4989929
		c0,0-1.7850342,0-3.6975098,1.555481c0,0-1.9125366,1.5555115-2.8305054,4.5645142c0,0-0.2040405,0.5099792-0.4335327,0.6119995
		c0,0-0.2294922,0.1019897-1.0454712,0.1019897c0,0-1.4280396,0-1.4280396-0.7139893c0,0,0-0.7140198,0.6630249-1.963501
		c0,0,0.6630249-1.2495117,1.7850342-2.6264954c0,0,1.1219482-1.3770142,3.0854492-2.371521
		c0,0,1.963501-0.9944763,4.1564941-0.9944763c0,0,4.4880371,0,6.4260254,2.7029724c0,0,2.2949829-2.7029724,5.2020264-2.7029724
		c0,0,2.2949829,0,3.927002,1.2494812c0,0,1.631958,1.2495117,1.631958,3.2384949c0,0,0,1.7340088-1.0964966,2.8560181
		c0,0-1.0964966,1.1219788-2.5755005,1.1219788c0,0-1.1729736,0-1.8615112-0.6884766c0,0-0.6884766-0.6885071-0.6884766-1.6575012
		c0,0,0-2.4990234,2.6010132-3.4680176c0,0-0.81604-0.815979-2.0910034-0.815979c0,0-1.3770142,0-2.447998,1.4279785
		C871.644043,331.8789063,870.5730591,333.3069153,870.1650391,334.9899292z"/>
	<path class="st6" d="M259.1411743,122.3377686l-4.8959808,19.6860352c0,0-0.9690094,3.8759766-4.8195038,6.9104614
		c0,0-3.8504944,3.0344849-8.4915009,3.0344849c0,0-2.8560028,0-4.6665039-1.223999c0,0-1.8105011-1.223999-1.8105011-3.2130127
		c0,0,0-1.631958,1.0710144-2.7539673c0,0,1.0709991-1.1220093,2.6009979-1.1220093c0,0,0.9179993,0,1.7084961,0.5355225
		c0,0,0.7904968,0.5355225,0.7904968,1.8104858c0,0,0,2.2949829-2.2949982,3.3660278c0,0,1.0709991,0.7649536,2.6519928,0.7649536
		c0,0,2.8050079,0,5.0490112-2.77948c0,0,2.243988-2.77948,3.0090027-6.5025024c0,0-1.8360138,1.223999-4.2840118,1.223999
		c0,0-3.4169922,0-5.4824982-1.555481c0,0-2.0654907-1.555542-2.0654907-4.8704834c0,0,0-1.3260498,0.5099945-3.3405151
		c0,0,0.5099945-2.0145264,0.9434967-3.2130127c0,0,0.4335022-1.1984863,1.6065063-4.3605347
		c0,0,0.9179993-2.1419678,0.9179993-3.3659668c0,0,0-0.9179688-0.7140045-0.9179688c0,0-2.8049927,0-4.6920013,6.1709595
		c0,0-0.1529999,0.4589844-0.4079895,0.5610352c0,0-0.2550049,0.1019897-1.0200043,0.1019897c0,0-1.428009,0-1.428009-0.7139893
		c0,0,0-0.5100098,0.5100098-1.7084961c0,0,0.5099945-1.1985474,1.3769989-2.6520386c0,0,0.8670044-1.4534912,2.4734955-2.5244751
		c0,0,1.6065063-1.0710449,3.4425049-1.0710449c0,0,2.1929932,0,3.7740021,1.2495117c0,0,1.5809937,1.2495117,1.5809937,3.2895508
		c0,0,0,0.7649536-0.7140045,2.7539673c0,0-2.9579926,7.7520142-2.9579926,10.8120117c0,0,0,3.5189819,2.6519928,3.5189819
		c0,0,1.8359985,0,3.2129974-1.223999c0,0,1.530014-1.2750244,1.8870087-2.6519775l3.6719971-14.5859985
		c0,0,0.3059998-1.223999,1.0964966-1.8870239c0,0,0.7905121-0.6629639,1.2495117-0.7650146
		c0,0,0.4589844-0.1019897,0.8669739-0.1019897c0,0,0.9179993,0,1.6065063,0.5610352c0,0,0.6885071,0.5609741,0.6885071,1.631958
		C259.3451843,121.2157593,259.3451843,121.5727539,259.1411743,122.3377686z"/>
	<path class="st6" d="M206.7997284,632.4385986h10.8076172c0,0-1.7929688-5.2792969-2.8762207-8.5539551
		c0,0-1.083252-3.2746582-1.7805176-5.5532227c0,0-0.6972656-2.2785645-0.6972656-2.7268066h-0.0498047
		c0,0,0,0.6474609-1.5812988,5.4909668C210.6222382,621.0955811,209.0409393,625.9390869,206.7997284,632.4385986z
		 M196.1415253,643.0469971c0,0,0-0.3237305,0.0498047-0.4731445l11.0068359-31.7255859
		c0,0,0.2988281-0.8217773,1.0085449-1.3198242c0,0,0.7097168-0.4980469,1.5563965-0.4980469h5.8022461
		c0,0,0.871582,0,1.59375,0.5229492c0,0,0.722168,0.5229492,0.9711914,1.2949219l11.0068359,31.7255859
		c0,0,0.0498047,0.1494141,0.0498047,0.4731445c0,0,0,0.5727539-0.3984375,0.9711914c0,0-0.3984375,0.3984375-0.9711914,0.3984375
		h-4.0839844c0,0-0.871582,0-1.59375-0.510498c0,0-0.722168-0.510498-0.9960938-1.3322754
		c0,0-0.4980469-1.3945313-1.0334473-2.9509277c0,0-0.5354004-1.5563965-0.9089355-2.6022949h-13.9702148
		c0,0-1.1455078,3.4116211-1.9423828,5.5532227c0,0-0.2739258,0.796875-0.9960938,1.3198242
		c0,0-0.722168,0.5229492-1.5688477,0.5229492h-3.2124023c0,0-0.5727539,0-0.9711914-0.3984375
		C196.5399628,644.0181885,196.1415253,643.619751,196.1415253,643.0469971"/>
	<path class="st6" d="M623.02771,449.0715637h5.3540039c0,0,3.4863281,0,5.8022461-1.2949219
		c0,0,2.315918-1.2949219,2.315918-4.4824219c0,0,0-4.6816406-8.1181641-4.6816406H623.02771V449.0715637z M623.02771,464.8347473
		h6.8979492c0,0,2.0917969,0,3.8723145-0.435791c0,0,1.7805176-0.435791,2.9509277-1.6062012
		c0,0,1.1704102-1.1704102,1.1704102-3.3120117c0,0,0-3.6357422-2.4404297-5.0925293c0,0-2.4404297-1.4567871-6.3251953-1.4567871
		H623.02771V464.8347473 M617.3748779,469.4167786c0,0-1.5688477-0.1743164-1.7431641-1.7431641v-31.9248047
		c0,0,0.1494141-1.5439453,1.7431641-1.7182617h12.5507813c0,0,13.7211914,0,13.7211914,9.2636719
		c0,0,0,3.0629883-2.0419922,4.9680176c0,0-2.0419922,1.9050293-5.3041992,2.6520996c0,0,3.984375,0.5727539,6.449707,2.6645508
		c0,0,2.465332,2.0917969,2.465332,5.9018555c0,0,0,2.9384766-1.1081543,4.8684082c0,0-1.1081543,1.9299316-3.112793,3.0629883
		c0,0-2.0046387,1.1330566-4.420166,1.5688477c0,0-2.4155273,0.435791-5.0800781,0.435791H617.3748779"/>
	<g class="st6">
		<path d="M461.4765625,228.3671875L468.203125,230.5c-1.03125,3.75-2.7460938,6.5351563-5.1445313,8.3554688
			s-5.4414063,2.7304688-9.1289063,2.7304688c-4.5625,0-8.3125-1.5585938-11.25-4.6757813s-4.40625-7.3789063-4.40625-12.7851563
			c0-5.71875,1.4765625-10.1601563,4.4296875-13.3242188s6.8359375-4.7460938,11.6484375-4.7460938
			c4.203125,0,7.6171875,1.2421875,10.2421875,3.7265625c1.5625,1.46875,2.734375,3.578125,3.515625,6.328125L461.2421875,217.75
			c-0.40625-1.78125-1.2539063-3.1875-2.5429688-4.21875S455.84375,211.984375,454,211.984375
			c-2.546875,0-4.6132813,0.9140625-6.1992188,2.7421875s-2.3789063,4.7890625-2.3789063,8.8828125
			c0,4.34375,0.78125,7.4375,2.34375,9.28125s3.59375,2.765625,6.09375,2.765625c1.84375,0,3.4296875-0.5859375,4.7578125-1.7578125
			S460.8984375,230.8828125,461.4765625,228.3671875z"/>
	</g>
	<path class="st6" d="M270.8609924,437.4488831l-3.4680176,13.8720093c0,0-0.2550049,0.9179993-0.7139893,1.5299988
		c0,0-0.4590149,0.6119995-1.019989,0.8414917c0,0-0.5610046,0.2294922-0.8925171,0.3059998
		c0,0-0.3314819,0.0765076-0.5864868,0.0765076c0,0-0.9179993,0-1.6065063-0.5610046c0,0-0.6885071-0.5610046-0.6885071-1.6319885
		c0,0,0-0.3570251,0.20401-1.1220093l3.6210022-14.5350037c0,0,0.3059998-1.223999,0.3059998-2.1929932
		c0,0,0-1.5809937-0.9689941-1.5809937c0,0-1.7340088,0-3.0599976,5.5079956c0,0-0.2550049,0.9689941-0.4845276,1.1474915
		c0,0-0.2294922,0.1784973-1.1474915,0.1784973c0,0-1.428009,0-1.428009-0.7139893c0,0,0-0.3569946,0.5610046-2.0910034
		c0,0,0.5610046-1.7340088,1.428009-3.1109924c0,0,1.7850037-2.7539978,4.3349915-2.7539978c0,0,1.8359985,0,3.2895203,0.7649841
		c0,0,1.4534912,0.7650146,2.1164856,1.9890137c0,0,2.7539978-2.7539978,6.5280151-2.7539978c0,0,2.8049927,0,4.6409912,1.2749939
		c0,0,1.8359985,1.2749939,1.8359985,3.2640076c0,0,0,1.6829834-1.0964966,2.8049927c0,0-1.0964966,1.1219788-2.5755005,1.1219788
		c0,0-1.1730042,0-1.8615112-0.6884766c0,0-0.6885071-0.6885071-0.6885071-1.6575012c0,0,0-0.3059998,0.0765076-0.7650146
		c0,0,0.0765076-0.4589844,0.6629944-1.3259888c0,0,0.5865173-0.8670044,1.6575012-1.3260193
		c0,0-1.0709839-0.8669739-2.8049927-0.8669739c0,0-2.3460083,0-4.0799866,1.8104858
		C272.9519958,434.2613831,271.2179871,436.0718994,270.8609924,437.4488831z"/>
	<path class="st6" d="M298.9706726,438.8258972l-5.1765137,20.7060242c0,0,0.9638977,0.1070862,2.1062927,0.1070862h1.1781006
		c0,0,1.142395,0,1.142395,0.6426086c0,0,0,1.0353088-1.0709839,1.0353088c0,0-0.9281921,0-2.8738403-0.0535583
		c0,0-1.9456787-0.0535583-2.9095764-0.0535583c0,0-0.9281921,0-2.8024292,0.0535583c0,0-1.8742676,0.0535583-2.7667542,0.0535583
		c0,0-0.7854004,0-0.7854004-0.6426086c0,0,0-0.4998169,0.1963501-0.731842c0,0,0.1963501-0.2320557,0.410553-0.2677612
		c0,0,0.2142029-0.0357056,0.6425781-0.0357056h1.10672c0,0,1.0709839,0,1.5708008-0.0714111
		c0,0,0.5711975-0.035675,0.7139893-0.1427917c0,0,0.1427917-0.1070862,0.2499084-0.4997864l3.9983826-15.9579163
		c0,0-2.2133789,1.0353088-4.1768799,1.0353088c0,0-0.821106,0-0.821106-0.6783142c0,0,0-0.8924866,0.8924866-0.9995728
		c0,0,4.4981995-0.3213196,7.8183289-4.212616c0,0,0.3927002-0.3927002,0.7139893-0.3927002c0,0,0.4284058,0,0.5890503,0.2320557
		c0,0,0.1606445,0.2320557,0.1606445,0.410553C299.0777588,438.3618164,299.0777588,438.5046082,298.9706726,438.8258972z"/>
	<path class="st6" d="M558.8610229,330.4488831l-3.4680176,13.8720093c0,0-0.2550049,0.9179993-0.7139893,1.5299988
		c0,0-0.4589844,0.6119995-1.0199585,0.8414917c0,0-0.5610352,0.2294922-0.8925171,0.3059998
		c0,0-0.3314819,0.0765076-0.5864868,0.0765076c0,0-0.9180298,0-1.6065063-0.5610046c0,0-0.6885376-0.5610046-0.6885376-1.6319885
		c0,0,0-0.3570251,0.2040405-1.1220093l3.6209717-14.5350037c0,0,0.3060303-1.223999,0.3060303-2.1929932
		c0,0,0-1.5809937-0.9689941-1.5809937c0,0-1.7340088,0-3.0599976,5.5079956c0,0-0.2550049,0.9689941-0.4845581,1.1474915
		c0,0-0.2294922,0.1784973-1.1474609,0.1784973c0,0-1.4280396,0-1.4280396-0.7139893c0,0,0-0.3569946,0.5610352-2.0910034
		c0,0,0.5609741-1.7340088,1.4279785-3.1109924c0,0,1.7850342-2.7539978,4.335022-2.7539978c0,0,1.8359985,0,3.2894897,0.7649841
		c0,0,1.4534912,0.7650146,2.1165161,1.9890137c0,0,2.7539673-2.7539978,6.5280151-2.7539978c0,0,2.8049927,0,4.6409912,1.2749939
		c0,0,1.8359985,1.2749939,1.8359985,3.2640076c0,0,0,1.6829834-1.0964966,2.8049927c0,0-1.0964966,1.1219788-2.5755005,1.1219788
		c0,0-1.1730347,0-1.8615112-0.6884766c0,0-0.6885376-0.6885071-0.6885376-1.6575012c0,0,0-0.3059998,0.0765381-0.7650146
		c0,0,0.0764771-0.4589844,0.6629639-1.3259888c0,0,0.5865479-0.8670044,1.6575317-1.3260193
		c0,0-1.0709839-0.8669739-2.8049927-0.8669739c0,0-2.3460083,0-4.0800171,1.8104858
		C560.9520264,327.2613831,559.2180176,329.0718994,558.8610229,330.4488831z"/>
	<path class="st6" d="M575.8317871,350.6754761c0,0,1.9277954,0,4.1411743,0.2499084c0,0,2.7489014,0.2499084,3.7485352,0.2499084
		c0,0,1.6422119,0,2.7667236-0.821106c0,0,1.1245728-0.821106,1.5172729-1.9992065c0,0,0.1428223-0.3927002,0.2855835-0.4819641
		c0,0,0.1428223-0.0892334,0.7496948-0.0892334c0,0,0.9996338,0,0.9996338,0.5354919c0,0,0,0.3213196-0.2677612,1.0531616
		c0,0-0.2677612,0.731842-0.8389282,1.6957397c0,0-0.571228,0.9638977-1.3388062,1.8207092
		c0,0-0.7675171,0.856781-1.9099121,1.4458313c0,0-1.142395,0.5890503-2.4276123,0.5890503c0,0-1.5708008,0-3.9627075-1.4993896
		c0,0-2.2133789-1.4636841-3.4985962-1.4636841c0,0-1.2495117,0-1.963501,2.4632874c0,0-0.1071167,0.3569946-0.2677612,0.4284058
		c0,0-0.1606445,0.0713806-0.7675171,0.0713806c0,0-0.9639282,0-0.9639282-0.4997864c0,0,0-0.3212891,0.3391724-1.2138062
		c0,0,0.3391113-0.8924866,1.1066895-2.2669373c0,0,0.7675781-1.3744507,2.409729-2.9273987
		c0,0,1.6422119-1.552948,3.8199463-2.6953735c0,0,3.677063-1.8920898,5.4978027-4.3196716
		c0,0,0.7139893-0.9639282,1.142395-2.4811707c0,0,0.4284058-1.5172424,0.5176392-2.3204956
		c0,0,0.0892334-0.8032532,0.0892334-1.1245422c0,0,0-1.6422119-0.8925171-2.3562012c0,0-0.8924561-0.7140198-2.1062622-0.7140198
		c0,0-2.8203125,0-4.9979858,2.6953735c0,0-2.1777344,2.695343-2.1777344,4.9801331c0,0,0,0.9996033,0.6782837,0.9996033
		c0,0,1.3566284,0,2.4454956-1.5708008c0,0,1.0888062-1.5708008,1.0888062-2.5704041c0,0,0-0.4997864-0.3927002-1.142395
		c0,0-0.1784668-0.2855835-0.1784668-0.3927002c0,0,0-0.2855835,0.2855835-0.4640808c0,0,0.1785278-0.2499084,0.4641113-0.2499084
		c0,0,0.3927002,0,0.7496948,0.731842c0,0,0.3569946,0.731842,0.3569946,1.4458618c0,0,0,1.5350952-1.4636841,3.516449
		c0,0-1.4636841,1.9813538-3.4985962,1.9813538c0,0-1.1066895,0-1.7850342-0.7497253c0,0-0.6782837-0.7496948-0.6782837-1.9277954
		c0,0,0-1.1066895,0.6782837-2.5346985c0,0,0.6783447-1.4279785,1.838562-2.8024292c0,0,1.1602783-1.3744507,2.9631348-2.3026733
		c0,0,1.8027954-0.9281921,3.802002-0.9281921c0,0,2.9274292,0,4.819519,1.5172424c0,0,1.8920898,1.5172729,1.8920898,4.3732605
		c0,0,0,2.9988098-1.9992065,5.1051025c0,0-1.9992065,2.1062927-7.4970093,4.8908997
		C581.151062,346.6056824,577.723877,348.3192749,575.8317871,350.6754761z"/>
	<path class="st6" d="M540.1450195,488.943573h-10.6589966c0,0-1.6829834,6.57901-1.6829834,9.8430176
		c0,0,0,2.039978,0.6119995,3.4169922c0,0,0.815979,1.7850037,2.4989624,1.7850037c0,0,0.6630249,0,1.3515015-0.2294922
		c0,0,0.6885376-0.2295227,1.7595215-1.147522c0,0,1.0709839-0.9179993,2.039978-2.447998
		c0,0,0.9690552-1.5299988,2.0655518-4.4369812C538.1305542,495.726593,539.2270508,492.8195801,540.1450195,488.943573z
		 M530.0980225,486.495575h10.6589966c0,0,1.6829834-6.4259949,1.6829834-9.7919922c0,0,0-5.2529907-3.0599976-5.2529907
		c0,0-3.0089722,0-5.7119751,4.7939758C533.6680298,476.2445679,531.7810059,479.5085754,530.0980225,486.495575
		 M547.8970337,480.4265747c0,0,0,3.6210022-1.3770142,8.7975159c0,0-1.3770142,5.1764832-4.2839966,9.4094849
		c0,0-2.447998,3.6719971-5.5335083,5.4315186c0,0-3.0855103,1.759491-5.8905029,1.759491c0,0-3.6719971,0-6.0689697-2.7285156
		c0,0-2.3970337-2.7284851-2.3970337-8.0325012c0,0,0-3.2639771,1.147522-7.8284912c0,0,1.147522-4.5644836,3.0344849-8.0325012
		c0,0,2.7030029-4.8959961,6.1710205-7.2420044c0,0,3.4680176-2.3459778,6.78302-2.3459778c0,0,1.3259888,0,2.6519775,0.4589844
		c0,0,1.3259888,0.4590149,2.7030029,1.5555115c0,0,1.3770142,1.0964966,2.2185059,3.3659973
		C547.055542,474.9950867,547.8970337,477.2645874,547.8970337,480.4265747"/>
</g>
</svg>
