<?xml version="1.0" encoding="utf-8"?>
<!-- Generator: Adobe Illustrator 19.0.0, SVG Export Plug-In . SVG Version: 6.00 Build 0)  -->
<svg version="1.1" id="Layer_1" xmlns="http://www.w3.org/2000/svg" xmlns:xlink="http://www.w3.org/1999/xlink" x="0px" y="0px"
	 viewBox="0 0 90 75.5" style="enable-background:new 0 0 90 75.5;" xml:space="preserve">
<style type="text/css">
	.st0{fill:none;}
	.st1{fill:none;stroke:#000000;stroke-miterlimit:10;}
	.st2{fill:#010101;}
</style>
<line class="st0" x1="192" y1="-55.5" x2="292.4501953" y2="-55.5"/>
<line class="st0" x1="235" y1="39.5" x2="335.4501953" y2="39.5"/>
<polygon class="st1" points="15.8989,67.4941025 45.3334961,16.5116997 74.7680969,67.4941025 "/>
<polygon points="64.2680969,64.3188019 74.7680969,67.4941025 64.2680969,70.6694031 "/>
<polygon points="23.8999004,59.9883003 15.8989,67.4941025 18.3988991,56.8125 "/>
<polygon points="47.8334961,27.1933994 45.3334961,16.5116997 53.3334961,24.0175991 "/>
<g>
	<g>
		<path class="st2" d="M45.9628906,10.0292969H43.171875l-0.3320313,0.7675781
			c-0.1088867,0.2558594-0.1635742,0.4677734-0.1635742,0.6337891c0,0.2216797,0.0893555,0.3837891,0.2680664,0.4892578
			c0.1049805,0.0615234,0.3632813,0.1083984,0.7753906,0.1396484v0.2148438h-2.628418v-0.2148438
			c0.2836914-0.0429688,0.5166016-0.1601563,0.6992188-0.3525391c0.1826172-0.1914063,0.4082031-0.5878906,0.6762695-1.1894531
			l2.8261719-6.293457h0.1108398l2.8500977,6.4682617c0.2714844,0.6123047,0.4951172,0.9980469,0.6699219,1.1572266
			c0.1318359,0.1201172,0.3183594,0.1904297,0.5595703,0.2099609v0.2148438h-3.8232422v-0.2148438h0.1582031
			c0.3066406,0,0.5214844-0.0429688,0.6464844-0.1279297c0.0849609-0.0625,0.1279297-0.1513672,0.1279297-0.2675781
			c0-0.0703125-0.0117188-0.1416016-0.0351563-0.2158203c-0.0078125-0.0351563-0.0664063-0.1796875-0.1748047-0.4355469
			L45.9628906,10.0292969z M45.765625,9.5986328l-1.1777344-2.7163086l-1.2119141,2.7163086H45.765625z"/>
	</g>
</g>
<g>
	<g>
		<path class="st2" d="M9.7880859,66.487793c0.7617188,0.1738281,1.296875,0.3857422,1.6044922,0.6337891
			c0.4414063,0.3525391,0.6630859,0.8105469,0.6630859,1.3720703c0,0.59375-0.2431641,1.0839844-0.7285156,1.4716797
			c-0.5957031,0.4697266-1.4619141,0.7041016-2.5981445,0.7041016h-4.078125v-0.2148438
			c0.3710938,0,0.6225586-0.0341797,0.7548828-0.1025391c0.1318359-0.0673828,0.2246094-0.1552734,0.277832-0.2646484
			c0.0537109-0.1083984,0.0800781-0.3759766,0.0800781-0.8027344v-5.1181641c0-0.4267578-0.0263672-0.6953125-0.0800781-0.8056641
			c-0.0532227-0.1103516-0.1469727-0.1987305-0.2807617-0.2646484c-0.1342773-0.065918-0.3847656-0.0986328-0.7519531-0.0986328
			v-0.215332h3.847168c0.9199219,0,1.5703125,0.0805664,1.953125,0.2412109
			c0.3828125,0.1611328,0.6845703,0.4013672,0.90625,0.7211914c0.2207031,0.3198242,0.3310547,0.6601563,0.3310547,1.0209961
			c0,0.3798828-0.1396484,0.7182617-0.4199219,1.0151367C10.9882813,66.0771484,10.4951172,66.3129883,9.7880859,66.487793z
			 M7.6342773,66.7836914v2.5302734L7.628418,69.6049805c0,0.2089844,0.0541992,0.3671875,0.1625977,0.4736328
			c0.1083984,0.1074219,0.269043,0.1601563,0.4824219,0.1601563c0.3154297,0,0.6064453-0.0683594,0.8730469-0.2060547
			s0.4707031-0.3378906,0.6123047-0.5996094c0.1425781-0.2617188,0.2128906-0.5527344,0.2128906-0.875
			c0-0.3681641-0.0869141-0.6992188-0.2597656-0.9921875c-0.1738281-0.2919922-0.4130859-0.4970703-0.7158203-0.6132813
			C8.6914063,66.8364258,8.237793,66.7797852,7.6342773,66.7836914z M7.6342773,66.3295898
			c0.5600586,0,0.9736328-0.0615234,1.2397461-0.1855469c0.2666016-0.1240234,0.4707031-0.2983398,0.6123047-0.5234375
			c0.1425781-0.2246094,0.2138672-0.5117188,0.2138672-0.8608398S9.6298828,64.125,9.4892578,63.9018555
			c-0.1396484-0.2231445-0.3398438-0.3925781-0.6005859-0.5087891c-0.2602539-0.1166992-0.6787109-0.1728516-1.2543945-0.1689453
			V66.3295898z"/>
	</g>
</g>
<g>
	<g>
		<path class="st2" d="M86.7998047,62.5537109v2.75h-0.2304688c-0.1738281-0.7177734-0.4970703-1.2675781-0.9707031-1.6499023
			s-1.0107422-0.5732422-1.6103516-0.5732422c-0.5009766,0-0.9604492,0.1420898-1.3789063,0.4267578
			c-0.4179688,0.2851563-0.7241211,0.6577148-0.9174805,1.1176758c-0.2485352,0.5893555-0.3725586,1.2446289-0.3725586,1.9663086
			c0,0.7099609,0.0908203,1.3564453,0.2719727,1.9394531c0.1816406,0.5830078,0.4658203,1.0244141,0.8525391,1.3222656
			c0.3867188,0.2988281,0.8881836,0.4482422,1.503418,0.4482422c0.5048828,0,0.9677734-0.109375,1.3876953-0.328125
			c0.4208984-0.21875,0.8632813-0.5947266,1.3291016-1.1289063v0.6845703
			c-0.4501953,0.4638672-0.9189453,0.8007813-1.40625,1.0087891c-0.4873047,0.2089844-1.0556641,0.3134766-1.7070313,0.3134766
			c-0.8564453,0-1.6171875-0.1699219-2.2817383-0.5097656c-0.6650391-0.3388672-1.1782227-0.8261719-1.5390625-1.4619141
			s-0.5415039-1.3134766-0.5415039-2.0302734c0-0.7573242,0.2001953-1.4750977,0.6005859-2.1538086
			s0.9414063-1.2055664,1.6220703-1.5795898c0.6806641-0.3745117,1.4033203-0.5620117,2.1689453-0.5620117
			c0.5644531,0,1.1601563,0.1210938,1.7880859,0.362793c0.3623047,0.140625,0.59375,0.2109375,0.6923828,0.2109375
			c0.1259766,0,0.2353516-0.0458984,0.328125-0.1376953s0.1533203-0.2368164,0.1806641-0.4360352H86.7998047z"/>
	</g>
</g>
<g>
</g>
<g>
</g>
<g>
</g>
<g>
</g>
<g>
</g>
<g>
</g>
</svg>
