<?xml version="1.0" encoding="UTF-8" standalone="no"?>
<!DOCTYPE svg PUBLIC "-//W3C//DTD SVG 1.1//EN" "http://www.w3.org/Graphics/SVG/1.1/DTD/svg11.dtd">
<svg xmlns="http://www.w3.org/2000/svg" xmlns:xlink="http://www.w3.org/1999/xlink" version="1.1" width="428.04pt" height="150pt" viewBox="0 0 428.04 150">
<g enable-background="new">
<g>
<g id="Layer-1" data-name="P">
<clipPath id="cp0">
<path transform="matrix(1,0,0,-1,0,150)" d="M .000006378 0 L 428.04 0 L 428.04 150 L .000006378 150 Z " fill-rule="evenodd"/>
</clipPath>
<g clip-path="url(#cp0)">
<text xml:space="preserve" transform="matrix(1 0 -0 1 0 150)" font-size="11.04" font-family="Calibri"><tspan y="0" x="427.58"> </tspan></text>
</g>
</g>
<g id="Layer-1" data-name="P">
<clipPath id="cp1">
<path transform="matrix(1,0,0,-1,0,150)" d="M .000006378 .15776 L 427.55 .15776 L 427.55 149.99776 L .000006378 149.99776 Z " fill-rule="evenodd"/>
</clipPath>
<g clip-path="url(#cp1)">
<clipPath id="cp2">
<path transform="matrix(.066484089,0,0,-.06650155,0,149.84226)" d="M 0 0 L 6430.9 0 L 6430.9 2253.16 L 0 2253.16 Z " fill-rule="evenodd"/>
</clipPath>
<g clip-path="url(#cp2)">
<path transform="matrix(.066484089,0,0,-.06650155,0,149.84226)" d="M 2131.91 519.64 L 3474.58 519.64 L 3474.58 508.39 L 2131.91 508.39 C 2128.8 508.39 2126.28 510.91 2126.28 514.02 C 2126.28 517.12 2128.8 519.64 2131.91 519.64 Z M 3631.92 514.02 L 3474.42 559.02 L 3474.42 519.64 L 3474.42 508.39 L 3474.42 469.02 Z "/>
<path transform="matrix(.066484089,0,0,-.06650155,0,149.84226)" d="M 2231.43 350.33 L 2231.43 1692.98 L 2242.68 1692.98 L 2242.68 350.33 C 2242.68 347.22 2240.17 344.7 2237.06 344.7 C 2233.95 344.7 2231.43 347.22 2231.43 350.33 Z M 2237.06 1850.32 L 2192.06 1692.82 L 2231.43 1692.82 L 2242.68 1692.82 L 2282.06 1692.82 Z "/>
<clipPath id="cp3">
<path transform="matrix(1.3297023,0,0,-1.3300177,138.37001,37.46926)" d="M 0 0 L 4.3153 0 L 4.3153 9.4548 L 0 9.4548 Z " fill-rule="evenodd"/>
</clipPath>
<g clip-path="url(#cp3)">
<path transform="matrix(1.3297023,0,0,-1.3300177,138.37001,37.46926)" d="M 3.1898 3.6581 C 3.1898 3.5598 3.1742 3.4636 3.1429 3.3693 C 3.1116 3.2751 3.068 3.1901 3.0124 3.1147 C 2.9568 3.039 2.8869 2.9772 2.803 2.9293 C 2.7191 2.8811 2.6227 2.8572 2.5135 2.8572 C 2.3943 2.8572 2.2704 2.8684 2.142 2.8911 C 2.0135 2.9135 1.8949 2.968 1.7855 3.0545 C 1.6865 3.1288 1.617 3.2201 1.5765 3.3281 C 1.536 3.436 1.5158 3.546 1.5158 3.6581 L 1.5158 5.2863 L 1.1245 5.2863 L 1.1245 5.6102 C 1.2863 5.61 1.4136 5.6418 1.5066 5.7057 C 1.5997 5.7693 1.6775 5.8558 1.7401 5.9648 C 1.8028 6.0737 1.8503 6.1988 1.8827 6.3402 C 1.9151 6.4815 1.9311 6.6434 1.9311 6.8262 L 2.3315 6.8262 L 2.3315 5.6749 L 3.0836 5.6749 L 3.0836 5.2863 L 2.3315 5.2863 L 2.3315 3.6581 C 2.3315 3.5834 2.3367 3.5151 2.3468 3.4533 C 2.3569 3.3914 2.3772 3.3379 2.4074 3.293 C 2.4377 3.2378 2.4883 3.2103 2.559 3.2105 C 2.6278 3.2103 2.6834 3.2505 2.7257 3.3311 C 2.7682 3.4115 2.7894 3.5204 2.7894 3.6581 L 2.7894 4.0644 L 3.1898 4.0644 L 3.1898 3.6581 Z " fill-rule="evenodd"/>
</g>
<clipPath id="cp4">
<path transform="matrix(1.329743,0,0,-1.3300177,233.80059,128.4148)" d="M 0 0 L 5.419 0 L 5.419 9.4548 L 0 9.4548 Z " fill-rule="evenodd"/>
</clipPath>
<g clip-path="url(#cp4)">
<path transform="matrix(1.329743,0,0,-1.3300177,233.80059,128.4148)" d="M 4.2941 2.8896 C 4.0374 2.9032 3.8039 2.9102 3.5936 2.9102 L 3.5877 2.9102 C 3.3389 2.9102 3.073 2.9032 2.7899 2.8896 L 2.7899 3.2812 L 3.0205 3.2812 L 2.5989 3.8789 L 2.1411 3.2724 C 2.1451 3.2781 2.1471 3.286 2.1471 3.2959 C 2.1471 3.3154 2.1431 3.3261 2.135 3.3283 C 2.1552 3.3184 2.1733 3.3095 2.1895 3.3018 C 2.2441 3.2878 2.3271 3.281 2.4383 3.2812 L 2.4383 2.8896 C 2.2016 2.9032 1.9823 2.9102 1.78 2.9102 L 1.7256 2.9102 C 1.5496 2.9102 1.3496 2.9032 1.1251 2.8896 L 1.1251 3.2812 C 1.2281 3.281 1.3111 3.2819 1.3737 3.284 C 1.4365 3.2858 1.4992 3.2908 1.5618 3.2989 C 1.5921 3.3066 1.6199 3.3128 1.6451 3.3178 C 1.6705 3.3226 1.6871 3.3301 1.6952 3.3401 L 2.3532 4.2175 L 1.6012 5.2863 L 1.1555 5.2863 L 1.1555 5.6779 C 1.301 5.6718 1.4263 5.6678 1.5314 5.6659 C 1.6367 5.6639 1.7429 5.663 1.85 5.6632 L 2.1107 5.6632 C 2.1935 5.663 2.2749 5.6639 2.3547 5.6659 C 2.4346 5.6678 2.5352 5.6718 2.6565 5.6779 L 2.6565 5.2863 L 2.4261 5.2863 L 2.7809 4.7858 L 3.169 5.301 C 3.165 5.2949 3.1629 5.2881 3.1629 5.2804 C 3.1629 5.2646 3.1681 5.2537 3.1782 5.248 C 3.16 5.2517 3.1398 5.2576 3.1175 5.2657 C 3.063 5.2793 2.982 5.2861 2.8749 5.2863 L 2.8749 5.6779 C 3.0124 5.6718 3.1307 5.6678 3.2297 5.6659 C 3.3287 5.6639 3.4279 5.663 3.5269 5.6632 L 3.5816 5.6632 C 3.6725 5.663 3.7625 5.6639 3.8514 5.6659 C 3.9404 5.6678 4.0516 5.6718 4.185 5.6779 L 4.185 5.2863 C 4.0819 5.2861 3.9986 5.285 3.9349 5.2832 C 3.8712 5.2811 3.8079 5.2764 3.7452 5.2686 C 3.7191 5.2646 3.6933 5.2605 3.6679 5.2567 C 3.6427 5.2526 3.627 5.2458 3.621 5.2362 L 3.0235 4.4472 L 3.8423 3.2812 L 4.2941 3.2812 L 4.2941 2.8896 Z " fill-rule="evenodd"/>
</g>
<path transform="matrix(.066484089,0,0,-.06650155,0,149.84226)" stroke-width="15" stroke-linecap="round" stroke-linejoin="round" fill="none" stroke="#e69138" d="M 2237.05 514.02 L 3011.77 1855.87 "/>
<path transform="matrix(.066484089,0,0,-.06650155,0,149.84226)" stroke-width="15" stroke-linecap="round" stroke-linejoin="round" fill="none" stroke="#0000ff" d="M 2395.3 514.02 L 3170.03 1855.87 "/>
<path transform="matrix(.066484089,0,0,-.06650155,0,149.84226)" stroke-width="15" stroke-linecap="round" stroke-linejoin="round" fill="none" stroke="#0000ff" d="M 2554.96 514.02 L 3329.68 1855.87 "/>
<path transform="matrix(.066484089,0,0,-.06650155,0,149.84226)" stroke-width="15" stroke-linecap="round" stroke-linejoin="round" fill="none" stroke="#0000ff" d="M 2715.36 514.02 L 3490.08 1855.87 "/>
<path transform="matrix(.066484089,0,0,-.06650155,0,149.84226)" stroke-width="15" stroke-linecap="round" stroke-linejoin="round" fill="none" stroke="#0000ff" d="M 2877.44 514.02 L 3652.17 1855.87 "/>
<path transform="matrix(.066484089,0,0,-.06650155,0,149.84226)" stroke-width="15" stroke-linecap="round" stroke-linejoin="round" fill="none" stroke="#0000ff" d="M 3035.68 514.02 L 3810.42 1855.87 "/>
<path transform="matrix(.066484089,0,0,-.06650155,0,149.84226)" stroke-width="15" stroke-linecap="round" stroke-linejoin="round" fill="none" stroke="#0000ff" d="M 3195.35 514.02 L 3970.08 1855.87 "/>
<path transform="matrix(.066484089,0,0,-.06650155,0,149.84226)" stroke-width="15" stroke-linecap="round" stroke-linejoin="round" fill="none" stroke="#0000ff" d="M 3355.75 514.02 L 4130.47 1855.87 "/>
<path transform="matrix(.066484089,0,0,-.06650155,0,149.84226)" stroke-width="15" stroke-linecap="round" stroke-linejoin="round" fill="none" stroke="#0000ff" d="M 2240.15 511.41 L 3923.62 1483.76 "/>
<path transform="matrix(.066484089,0,0,-.06650155,0,149.84226)" stroke-width="15" stroke-linecap="round" stroke-linejoin="round" fill="none" stroke="#0000ff" d="M 2398.18 511.41 L 3835.6 1340.48 "/>
<path transform="matrix(.066484089,0,0,-.06650155,0,149.84226)" stroke-width="15" stroke-linecap="round" stroke-linejoin="round" fill="none" stroke="#0000ff" d="M 2564.24 526.49 L 3771.93 1225.12 "/>
<path transform="matrix(.066484089,0,0,-.06650155,0,149.84226)" stroke-width="15" stroke-linecap="round" stroke-linejoin="round" fill="none" stroke="#0000ff" d="M 2722.28 526.49 L 3690.68 1084.49 "/>
<path transform="matrix(.066484089,0,0,-.06650155,0,149.84226)" stroke-width="15" stroke-linecap="round" stroke-linejoin="round" fill="none" stroke="#0000ff" d="M 2880.33 511.41 L 3606.31 931.37 "/>
<path transform="matrix(.066484089,0,0,-.06650155,0,149.84226)" stroke-width="15" stroke-linecap="round" stroke-linejoin="round" fill="none" stroke="#0000ff" d="M 3038.36 511.41 L 3527.76 796.6 "/>
<path transform="matrix(.066484089,0,0,-.06650155,0,149.84226)" stroke-width="15" stroke-linecap="round" stroke-linejoin="round" fill="none" stroke="#0000ff" d="M 3204.43 526.49 L 3446.93 666.37 "/>
<path transform="matrix(.066484089,0,0,-.06650155,0,149.84226)" stroke-width="15" stroke-linecap="round" stroke-linejoin="round" fill="none" stroke="#0000ff" d="M 2240.15 602.47 L 3989.79 1616.11 "/>
<path transform="matrix(.066484089,0,0,-.06650155,0,149.84226)" stroke-width="15" stroke-linecap="round" stroke-linejoin="round" fill="none" stroke="#0000ff" d="M 2240.15 681.74 L 3582 1456.47 "/>
<path transform="matrix(.066484089,0,0,-.06650155,0,149.84226)" stroke-width="15" stroke-linecap="round" stroke-linejoin="round" fill="none" stroke="#0000ff" d="M 2240.15 765.56 L 3582 1540.29 "/>
<path transform="matrix(.066484089,0,0,-.06650155,0,149.84226)" stroke-width="15" stroke-linecap="round" stroke-linejoin="round" fill="none" stroke="#0000ff" d="M 2240.15 856.64 L 3582 1631.36 "/>
<path transform="matrix(.066484089,0,0,-.06650155,0,149.84226)" stroke-width="15" stroke-linecap="round" stroke-linejoin="round" fill="none" stroke="#a9a9a9" d="M 2240.15 935.91 L 3582 1710.63 "/>
<path transform="matrix(.066484089,0,0,-.06650155,0,149.84226)" stroke-width="15" stroke-linecap="round" stroke-linejoin="round" fill="none" stroke="#a9a9a9" d="M 2240.15 1020.71 L 3582 1795.43 "/>
<path transform="matrix(.066484089,0,0,-.06650155,0,149.84226)" stroke-width="15" stroke-linecap="round" stroke-linejoin="round" fill="none" stroke="#a9a9a9" d="M 2240.15 1111.78 L 3582 1886.5 "/>
<path transform="matrix(.066484089,0,0,-.06650155,0,149.84226)" stroke-width="15" stroke-linecap="round" stroke-linejoin="round" fill="none" stroke="#a9a9a9" d="M 2240.15 1191.04 L 3582 1965.77 "/>
<path transform="matrix(.066484089,0,0,-.06650155,0,149.84226)" stroke-width="15" stroke-linecap="round" stroke-linejoin="round" fill="none" stroke="#a9a9a9" d="M 2240.15 1274.87 L 3582 2049.6 "/>
<path transform="matrix(.066484089,0,0,-.06650155,0,149.84226)" stroke-width="15" stroke-linecap="round" stroke-linejoin="round" fill="none" stroke="#a9a9a9" d="M 2240.15 1365.94 L 3582 2140.66 "/>
<path transform="matrix(.066484089,0,0,-.06650155,0,149.84226)" stroke-width="15" stroke-linecap="round" stroke-linejoin="round" fill="none" stroke="#0000ff" d="M 2752.12 978.58 L 4093.99 1753.3 "/>
<path transform="matrix(.066484089,0,0,-.06650155,0,149.84226)" stroke-width="15" stroke-linecap="round" stroke-linejoin="round" fill="none" stroke="#0000ff" d="M 2752.12 1062.46 L 4093.99 1837.19 "/>
<path transform="matrix(.066484089,0,0,-.06650155,0,149.84226)" d="M 181.9 531.09 L 1524.56 531.09 L 1524.56 519.84 L 181.9 519.84 C 178.79 519.84 176.28 522.36 176.28 525.47 C 176.28 528.58 178.79 531.09 181.9 531.09 Z M 1681.9 525.47 L 1524.4 570.47 L 1524.4 531.09 L 1524.4 519.84 L 1524.4 480.47 Z "/>
<path transform="matrix(.066484089,0,0,-.06650155,0,149.84226)" d="M 281.43 361.78 L 281.43 1704.44 L 292.68 1704.44 L 292.68 361.78 C 292.68 358.67 290.16 356.15 287.05 356.15 C 283.94 356.15 281.43 358.67 281.43 361.78 Z M 287.05 1861.78 L 242.05 1704.28 L 281.43 1704.28 L 292.68 1704.28 L 332.05 1704.28 Z "/>
<clipPath id="cp5">
<path transform="matrix(1.3297023,0,0,-1.3300177,4.9863069,37.46926)" d="M 0 0 L 4.3153 0 L 4.3153 9.4548 L 0 9.4548 Z " fill-rule="evenodd"/>
</clipPath>
<g clip-path="url(#cp5)">
<path transform="matrix(1.3297023,0,0,-1.3300177,4.9863069,37.46926)" d="M 3.1898 3.6581 C 3.1898 3.5598 3.1742 3.4636 3.1429 3.3693 C 3.1116 3.2751 3.068 3.1901 3.0124 3.1147 C 2.9568 3.039 2.8869 2.9772 2.803 2.9293 C 2.7191 2.8811 2.6227 2.8572 2.5135 2.8572 C 2.3943 2.8572 2.2704 2.8684 2.142 2.8911 C 2.0135 2.9135 1.8949 2.968 1.7855 3.0545 C 1.6865 3.1288 1.617 3.2201 1.5765 3.3281 C 1.536 3.436 1.5158 3.546 1.5158 3.6581 L 1.5158 5.2863 L 1.1245 5.2863 L 1.1245 5.6102 C 1.2863 5.61 1.4136 5.6418 1.5066 5.7057 C 1.5997 5.7693 1.6775 5.8558 1.7401 5.9648 C 1.8028 6.0737 1.8503 6.1988 1.8827 6.3402 C 1.9151 6.4815 1.9311 6.6434 1.9311 6.8262 L 2.3315 6.8262 L 2.3315 5.6749 L 3.0836 5.6749 L 3.0836 5.2863 L 2.3315 5.2863 L 2.3315 3.6581 C 2.3315 3.5834 2.3367 3.5151 2.3468 3.4533 C 2.3569 3.3914 2.3772 3.3379 2.4074 3.293 C 2.4377 3.2378 2.4883 3.2103 2.559 3.2105 C 2.6278 3.2103 2.6834 3.2505 2.7257 3.3311 C 2.7682 3.4115 2.7894 3.5204 2.7894 3.6581 L 2.7894 4.0644 L 3.1898 4.0644 L 3.1898 3.6581 Z " fill-rule="evenodd"/>
</g>
<clipPath id="cp6">
<path transform="matrix(1.329743,0,0,-1.3300177,100.4169,128.4148)" d="M 0 0 L 5.419 0 L 5.419 9.4548 L 0 9.4548 Z " fill-rule="evenodd"/>
</clipPath>
<g clip-path="url(#cp6)">
<path transform="matrix(1.329743,0,0,-1.3300177,100.4169,128.4148)" d="M 4.2941 2.8896 C 4.0374 2.9032 3.8039 2.9102 3.5936 2.9102 L 3.5877 2.9102 C 3.3389 2.9102 3.073 2.9032 2.7899 2.8896 L 2.7899 3.2812 L 3.0205 3.2812 L 2.5989 3.8789 L 2.1411 3.2724 C 2.1451 3.2781 2.1471 3.286 2.1471 3.2959 C 2.1471 3.3154 2.1431 3.3261 2.135 3.3283 C 2.1552 3.3184 2.1733 3.3095 2.1895 3.3018 C 2.2441 3.2878 2.3271 3.281 2.4383 3.2812 L 2.4383 2.8896 C 2.2016 2.9032 1.9823 2.9102 1.78 2.9102 L 1.7256 2.9102 C 1.5496 2.9102 1.3496 2.9032 1.1251 2.8896 L 1.1251 3.2812 C 1.2281 3.281 1.3111 3.2819 1.3737 3.284 C 1.4365 3.2858 1.4992 3.2908 1.5618 3.2989 C 1.5921 3.3066 1.6199 3.3128 1.6451 3.3178 C 1.6705 3.3226 1.6871 3.3301 1.6952 3.3401 L 2.3532 4.2175 L 1.6012 5.2863 L 1.1555 5.2863 L 1.1555 5.6779 C 1.301 5.6718 1.4263 5.6678 1.5314 5.6659 C 1.6367 5.6639 1.7429 5.663 1.85 5.6632 L 2.1107 5.6632 C 2.1935 5.663 2.2749 5.6639 2.3547 5.6659 C 2.4346 5.6678 2.5352 5.6718 2.6565 5.6779 L 2.6565 5.2863 L 2.4261 5.2863 L 2.7809 4.7858 L 3.169 5.301 C 3.165 5.2949 3.1629 5.2881 3.1629 5.2804 C 3.1629 5.2646 3.1681 5.2537 3.1782 5.248 C 3.16 5.2517 3.1398 5.2576 3.1175 5.2657 C 3.063 5.2793 2.982 5.2861 2.8749 5.2863 L 2.8749 5.6779 C 3.0124 5.6718 3.1307 5.6678 3.2297 5.6659 C 3.3287 5.6639 3.4279 5.663 3.5269 5.6632 L 3.5816 5.6632 C 3.6725 5.663 3.7625 5.6639 3.8514 5.6659 C 3.9404 5.6678 4.0516 5.6718 4.185 5.6779 L 4.185 5.2863 C 4.0819 5.2861 3.9986 5.285 3.9349 5.2832 C 3.8712 5.2811 3.8079 5.2764 3.7452 5.2686 C 3.7191 5.2646 3.6933 5.2605 3.6679 5.2567 C 3.6427 5.2526 3.627 5.2458 3.621 5.2362 L 3.0235 4.4472 L 3.8423 3.2812 L 4.2941 3.2812 L 4.2941 2.8896 Z " fill-rule="evenodd"/>
</g>
<path transform="matrix(.066484089,0,0,-.06650155,0,149.84226)" stroke-width="15" stroke-linecap="round" stroke-linejoin="round" fill="none" stroke="#000000" d="M 181.9 681.74 L 1681.9 681.74 "/>
<path transform="matrix(.066484089,0,0,-.06650155,0,149.84226)" stroke-width="15" stroke-linecap="round" stroke-linejoin="round" fill="none" stroke="#000000" d="M 181.9 856.64 L 1681.9 856.64 "/>
<path transform="matrix(.066484089,0,0,-.06650155,0,149.84226)" stroke-width="15" stroke-linecap="round" stroke-linejoin="round" fill="none" stroke="#000000" d="M 181.9 1031.53 L 1681.9 1031.53 "/>
<path transform="matrix(.066484089,0,0,-.06650155,0,149.84226)" stroke-width="15" stroke-linecap="round" stroke-linejoin="round" fill="none" stroke="#000000" d="M 181.9 1206.42 L 1681.9 1206.42 "/>
<path transform="matrix(.066484089,0,0,-.06650155,0,149.84226)" stroke-width="15" stroke-linecap="round" stroke-linejoin="round" fill="none" stroke="#000000" d="M 181.9 1381.31 L 1681.9 1381.31 "/>
<path transform="matrix(.066484089,0,0,-.06650155,0,149.84226)" stroke-width="15" stroke-linecap="round" stroke-linejoin="round" fill="none" stroke="#000000" d="M 181.9 1556.21 L 1681.9 1556.21 "/>
<path transform="matrix(.066484089,0,0,-.06650155,0,149.84226)" stroke-width="15" stroke-linecap="round" stroke-linejoin="round" fill="none" stroke="#000000" d="M 451.31 1902.93 L 451.31 402.94 "/>
<path transform="matrix(.066484089,0,0,-.06650155,0,149.84226)" stroke-width="15" stroke-linecap="round" stroke-linejoin="round" fill="none" stroke="#000000" d="M 614.36 1902.93 L 614.36 402.94 "/>
<path transform="matrix(.066484089,0,0,-.06650155,0,149.84226)" stroke-width="15" stroke-linecap="round" stroke-linejoin="round" fill="none" stroke="#000000" d="M 780.67 1902.93 L 780.67 402.94 "/>
<path transform="matrix(.066484089,0,0,-.06650155,0,149.84226)" stroke-width="15" stroke-linecap="round" stroke-linejoin="round" fill="none" stroke="#000000" d="M 943.7 1902.93 L 943.7 402.94 "/>
<path transform="matrix(.066484089,0,0,-.06650155,0,149.84226)" stroke-width="15" stroke-linecap="round" stroke-linejoin="round" fill="none" stroke="#000000" d="M 1106.76 1902.93 L 1106.76 402.94 "/>
<path transform="matrix(.066484089,0,0,-.06650155,0,149.84226)" stroke-width="15" stroke-linecap="round" stroke-linejoin="round" fill="none" stroke="#000000" d="M 1269.79 1902.93 L 1269.79 402.94 "/>
<path transform="matrix(.066484089,0,0,-.06650155,0,149.84226)" stroke-width="15" stroke-linecap="round" stroke-linejoin="round" fill="none" stroke="#990000" d="M 5946.69 345.64 L 5171.97 1687.51 "/>
<path transform="matrix(.066484089,0,0,-.06650155,0,149.84226)" stroke-width="15" stroke-linecap="round" stroke-linejoin="round" fill="none" stroke="#990000" d="M 5787.02 345.64 L 5012.32 1687.51 "/>
<path transform="matrix(.066484089,0,0,-.06650155,0,149.84226)" stroke-width="15" stroke-linecap="round" stroke-linejoin="round" fill="none" stroke="#990000" d="M 5626.64 345.64 L 4851.92 1687.51 "/>
<path transform="matrix(.066484089,0,0,-.06650155,0,149.84226)" stroke-width="15" stroke-linecap="round" stroke-linejoin="round" fill="none" stroke="#990000" d="M 5464.55 345.64 L 4689.83 1687.51 "/>
<path transform="matrix(.066484089,0,0,-.06650155,0,149.84226)" stroke-width="15" stroke-linecap="round" stroke-linejoin="round" fill="none" stroke="#6aa84f" d="M 5306.31 345.64 L 4531.59 1687.51 "/>
<path transform="matrix(.066484089,0,0,-.06650155,0,149.84226)" stroke-width="15" stroke-linecap="round" stroke-linejoin="round" fill="none" stroke="#990000" d="M 5146.64 345.64 L 4371.93 1687.51 "/>
<path transform="matrix(.066484089,0,0,-.06650155,0,149.84226)" stroke-width="15" stroke-linecap="round" stroke-linejoin="round" fill="none" stroke="#990000" d="M 4986.25 345.64 L 4211.54 1687.51 "/>
<path transform="matrix(.066484089,0,0,-.06650155,0,149.84226)" stroke-width="15" stroke-linecap="round" stroke-linejoin="round" fill="none" stroke="#990000" d="M 4464.59 1715.22 L 6148.05 742.87 "/>
<path transform="matrix(.066484089,0,0,-.06650155,0,149.84226)" stroke-width="15" stroke-linecap="round" stroke-linejoin="round" fill="none" stroke="#990000" d="M 4622.62 1715.22 L 6060.03 886.15 "/>
<path transform="matrix(.066484089,0,0,-.06650155,0,149.84226)" stroke-width="15" stroke-linecap="round" stroke-linejoin="round" fill="none" stroke="#990000" d="M 4788.69 1700.13 L 5996.36 1001.5 "/>
<path transform="matrix(.066484089,0,0,-.06650155,0,149.84226)" stroke-width="15" stroke-linecap="round" stroke-linejoin="round" fill="none" stroke="#990000" d="M 4946.72 1700.13 L 5915.1 1142.12 "/>
<path transform="matrix(.066484089,0,0,-.06650155,0,149.84226)" stroke-width="15" stroke-linecap="round" stroke-linejoin="round" fill="none" stroke="#990000" d="M 5104.77 1715.22 L 5830.73 1295.25 "/>
<path transform="matrix(.066484089,0,0,-.06650155,0,149.84226)" stroke-width="15" stroke-linecap="round" stroke-linejoin="round" fill="none" stroke="#990000" d="M 5262.79 1715.22 L 5752.19 1430.03 "/>
<path transform="matrix(.066484089,0,0,-.06650155,0,149.84226)" stroke-width="15" stroke-linecap="round" stroke-linejoin="round" fill="none" stroke="#990000" d="M 4464.59 1624.15 L 6214.22 610.52 "/>
<path transform="matrix(.066484089,0,0,-.06650155,0,149.84226)" stroke-width="15" stroke-linecap="round" stroke-linejoin="round" fill="none" stroke="#990000" d="M 4464.59 1544.88 L 5806.43 770.16 "/>
<path transform="matrix(.066484089,0,0,-.06650155,0,149.84226)" stroke-width="15" stroke-linecap="round" stroke-linejoin="round" fill="none" stroke="#990000" d="M 4464.59 1461.06 L 5806.43 686.34 "/>
<path transform="matrix(.066484089,0,0,-.06650155,0,149.84226)" stroke-width="15" stroke-linecap="round" stroke-linejoin="round" fill="none" stroke="#990000" d="M 4464.59 1369.98 L 5806.43 595.27 "/>
<path transform="matrix(.066484089,0,0,-.06650155,0,149.84226)" stroke-width="15" stroke-linecap="round" stroke-linejoin="round" fill="none" stroke="#990000" d="M 4464.59 1290.71 L 5806.43 516.01 "/>
<path transform="matrix(.066484089,0,0,-.06650155,0,149.84226)" stroke-width="15" stroke-linecap="round" stroke-linejoin="round" fill="none" stroke="#c4c4c4" d="M 4464.59 1205.91 L 5806.43 431.21 "/>
<path transform="matrix(.066484089,0,0,-.06650155,0,149.84226)" stroke-width="15" stroke-linecap="round" stroke-linejoin="round" fill="none" stroke="#c4c4c4" d="M 4464.59 1114.84 L 5806.43 340.12 "/>
<path transform="matrix(.066484089,0,0,-.06650155,0,149.84226)" stroke-width="15" stroke-linecap="round" stroke-linejoin="round" fill="none" stroke="#c4c4c4" d="M 4464.59 1035.57 L 5380.76 506.61 "/>
<path transform="matrix(.066484089,0,0,-.06650155,0,149.84226)" stroke-width="15" stroke-linecap="round" stroke-linejoin="round" fill="none" stroke="#c4c4c4" d="M 4464.59 951.76 L 5218.79 512.36 "/>
<path transform="matrix(.066484089,0,0,-.06650155,0,149.84226)" stroke-width="15" stroke-linecap="round" stroke-linejoin="round" fill="none" stroke="#c4c4c4" d="M 4464.59 860.69 L 5077.19 511.41 "/>
<path transform="matrix(.066484089,0,0,-.06650155,0,149.84226)" stroke-width="15" stroke-linecap="round" stroke-linejoin="round" fill="none" stroke="#990000" d="M 4976.56 1248.04 L 6318.41 473.33 "/>
<path transform="matrix(.066484089,0,0,-.06650155,0,149.84226)" stroke-width="15" stroke-linecap="round" stroke-linejoin="round" fill="none" stroke="#990000" d="M 4976.56 1164.16 L 6318.41 389.44 "/>
<path transform="matrix(.066484089,0,0,-.06650155,0,149.84226)" d="M 4421.97 610.36 L 5764.62 610.36 L 5764.62 599.11 L 4421.97 599.11 C 4418.86 599.11 4416.35 601.63 4416.35 604.74 C 4416.35 607.84 4418.86 610.36 4421.97 610.36 Z M 5921.96 604.74 L 5764.46 649.74 L 5764.46 610.36 L 5764.46 599.11 L 5764.46 559.74 Z "/>
<path transform="matrix(.066484089,0,0,-.06650155,0,149.84226)" d="M 4521.5 441.04 L 4521.5 1783.7 L 4532.75 1783.7 L 4532.75 441.04 C 4532.75 437.94 4530.23 435.42 4527.12 435.42 C 4524.01 435.42 4521.5 437.94 4521.5 441.04 Z M 4527.12 1941.05 L 4482.12 1783.55 L 4521.5 1783.55 L 4532.75 1783.55 L 4572.12 1783.55 Z "/>
<path transform="matrix(.066484089,0,0,-.06650155,0,149.84226)" stroke-width="15" stroke-linecap="round" stroke-linejoin="round" fill="none" stroke="#e69138" d="M 297.92 535.5 L 614.36 1035.57 "/>
<path transform="matrix(.066484089,0,0,-.06650155,0,149.84226)" stroke-width="15" stroke-linecap="round" stroke-linejoin="round" fill="none" stroke="#6aa84f" d="M 614.36 1035.57 L 287.05 1556.21 "/>
<clipPath id="cp7">
<path transform="matrix(1.3297086,0,0,-1.3300177,8.9839949,143.85785)" d="M 0 0 L 63.804 0 L 63.804 9.4548 L 0 9.4548 Z " fill-rule="evenodd"/>
</clipPath>
<g clip-path="url(#cp7)">
<path transform="matrix(1.3297086,0,0,-1.3300177,8.9839949,143.85785)" d="M 3.2414 3.5403 L 1.4536 2.9185 C 1.4357 2.7954 1.3904 2.7695 1.3191 2.8407 L 1.1054 3.4367 L 1.9329 3.6698 L 1.9329 5.7686 L 1.1588 5.7686 L 1.1588 6.2609 L 1.9329 6.2609 L 1.9329 7.7118 L 2.4398 7.7118 C 2.5823 7.6924 2.592 7.6406 2.4673 7.5564 L 2.4673 6.2609 L 3.1604 6.2609 L 3.1604 5.7686 L 2.4673 5.7686 L 2.4673 3.7994 L 3.2414 4.0585 Z M 6.1773 2.7889 C 6.3554 2.7873 6.4704 2.8731 6.5239 3.048 L 6.6842 3.5921 L 7.2704 3.4107 L 7.1376 2.9185 C 7.0307 2.5039 6.7732 2.2966 6.3635 2.2966 L 4.1482 2.2966 C 3.8276 2.2966 3.6673 2.4424 3.6673 2.7371 L 3.6673 5.1985 L 2.9742 4.9394 L 2.8138 5.4576 L 3.6673 5.7427 L 3.6673 7.2195 L 4.1757 7.2195 C 4.3182 7.2001 4.3263 7.1483 4.2017 7.0641 L 4.2017 5.924 L 4.8429 6.1572 L 4.8429 7.9191 L 5.3498 7.9191 C 5.4923 7.8997 5.502 7.8479 5.3757 7.7637 L 5.3757 6.3386 L 6.2826 6.6754 L 6.336 6.7791 L 6.8979 6.4163 L 6.791 6.3386 L 6.791 4.3694 C 6.791 4.0909 6.6485 3.9532 6.3635 3.9549 L 5.8291 3.9549 L 5.6963 4.4472 L 6.1498 4.4472 C 6.221 4.4455 6.2567 4.4795 6.2567 4.5508 L 6.2567 6.1054 L 5.3757 5.7945 L 5.3757 3.5662 L 4.8429 3.5662 L 4.8429 5.6131 L 4.2017 5.3799 L 4.2017 2.9962 C 4.2017 2.8569 4.2648 2.7873 4.3879 2.7889 L 6.1773 2.7889 Z " fill-rule="evenodd"/>
<path transform="matrix(1.3297086,0,0,-1.3300177,8.9839949,143.85785)" d="M 7.5141 3.0221 C 7.4963 2.899 7.451 2.8731 7.3797 2.9444 L 7.14 3.5662 C 7.4963 3.6342 7.8169 3.7022 8.1003 3.7735 L 8.1003 5.2245 L 7.4866 5.2245 L 7.4866 5.7167 L 8.1003 5.7167 L 8.1003 6.9086 L 7.3004 6.9086 L 7.3004 7.4009 L 9.4622 7.4009 L 9.4622 6.9086 L 8.6347 6.9086 L 8.6347 5.7167 L 9.3019 5.7167 L 9.3019 5.2245 L 8.6347 5.2245 L 8.6347 3.903 L 9.2744 4.0844 L 9.4088 3.618 C 8.9295 3.4269 8.2979 3.2278 7.5141 3.0221 Z M 13.171 6.3127 L 11.543 6.3127 L 11.543 6.0018 C 11.598 5.741 11.713 5.422 11.89 5.0431 C 12.175 5.3006 12.46 5.6034 12.745 5.9499 L 13.224 5.4836 C 13.244 5.3961 13.198 5.3702 13.091 5.4058 C 12.771 5.1273 12.452 4.8601 12.131 4.6026 C 12.452 4.031 12.86 3.5824 13.358 3.2553 L 12.905 2.763 C 12.354 3.2278 11.899 3.8755 11.543 4.7063 L 11.543 2.5816 C 11.543 2.3047 11.401 2.1671 11.116 2.1671 L 10.423 2.1671 L 10.316 2.7371 L 10.903 2.7371 C 10.975 2.7355 11.01 2.7695 11.01 2.8407 L 11.01 4.0067 C 10.618 3.6245 10.193 3.2974 9.7294 3.0221 C 9.6938 2.899 9.6582 2.8569 9.6226 2.8925 L 9.2485 3.4885 C 9.9076 3.7978 10.495 4.1686 11.01 4.6026 L 11.01 6.3127 L 9.4881 6.3127 L 9.4881 6.805 L 11.01 6.805 L 11.01 7.9968 L 11.517 7.9968 C 11.66 7.9774 11.669 7.9256 11.543 7.8414 L 11.543 6.805 L 13.171 6.805 Z M 12.317 6.8568 C 12.123 7.0803 11.899 7.2697 11.65 7.4268 L 12.078 7.7637 C 12.309 7.6406 12.541 7.4592 12.771 7.2195 Z M 10.155 4.5249 C 10.032 4.886 9.8363 5.2407 9.5691 5.5872 L 10.102 5.8722 C 10.44 5.49 10.654 5.137 10.743 4.8099 Z " fill-rule="evenodd"/>
<path transform="matrix(1.3297086,0,0,-1.3300177,8.9839949,143.85785)" d="M 18.538 3.7217 C 17.471 2.6853 16.093 2.1411 14.402 2.0893 L 14.268 2.5816 C 16.083 2.6674 17.427 3.2197 18.298 4.2399 L 18.671 3.8771 C 18.762 3.7897 18.716 3.7379 18.538 3.7217 Z M 15.602 6.9345 L 17.631 7.0123 C 17.382 7.2001 17.15 7.3653 16.937 7.5046 L 17.311 7.7637 C 17.863 7.4171 18.362 7.0544 18.805 6.6754 L 18.352 6.3645 L 18.031 6.6754 L 16.564 6.5718 C 16.475 6.3969 16.386 6.2414 16.297 6.1054 L 19.312 6.1054 L 19.312 5.6131 L 17.55 5.6131 C 17.942 5.1969 18.583 4.8941 19.472 4.7063 L 19.338 4.1881 C 18.217 4.4455 17.409 4.92 16.911 5.6131 L 16.083 5.6131 C 15.62 4.9556 14.767 4.4536 13.521 4.1103 L 13.307 4.6285 C 14.376 4.8682 15.087 5.1969 15.442 5.6131 L 13.494 5.6131 L 13.494 6.1054 L 15.762 6.1054 C 15.869 6.2592 15.95 6.4066 16.002 6.5459 L 14.349 6.4681 C 14.242 6.3111 14.171 6.3192 14.135 6.4941 L 14.028 6.9345 L 15.095 6.9345 L 15.869 8.0746 L 16.376 7.8932 C 16.519 7.8058 16.483 7.7442 16.269 7.7118 Z M 16.911 5.0172 C 17.017 4.9119 16.982 4.8601 16.804 4.8617 C 16.128 4.2723 15.382 3.8755 14.563 3.6698 L 14.349 4.1362 C 15.346 4.4115 16.067 4.8083 16.511 5.3281 L 16.911 5.0172 Z M 17.604 4.3435 C 17.711 4.2561 17.675 4.2042 17.497 4.1881 C 16.732 3.5306 15.853 3.1063 14.856 2.9185 L 14.721 3.4107 C 15.701 3.5468 16.538 3.9613 17.231 4.6544 L 17.604 4.3435 Z " fill-rule="evenodd"/>
<path transform="matrix(1.3297086,0,0,-1.3300177,8.9839949,143.85785)" d="M 19.554 4.214 C 20.285 4.4714 20.926 4.7565 21.476 5.069 L 21.53 5.1985 L 21.69 5.1985 C 21.957 5.3702 22.215 5.5516 22.464 5.7427 L 19.608 5.7427 L 19.608 6.235 L 22.037 6.235 L 22.037 6.8568 L 20.249 6.8568 L 20.249 7.3491 L 22.037 7.3491 L 22.037 8.1264 L 22.544 8.1264 C 22.757 8.107 22.767 8.047 22.571 7.945 L 22.571 7.3491 L 23.906 7.3491 L 23.906 7.0123 C 24.012 7.1143 24.191 7.3394 24.438 7.6859 L 24.892 7.3232 C 24.982 7.2179 24.937 7.1742 24.759 7.1936 C 24.438 6.8471 24.11 6.5264 23.771 6.235 L 25.719 6.235 L 25.719 5.7427 L 23.185 5.7427 C 22.9 5.5159 22.607 5.3087 22.304 5.1208 C 23.46 5.2407 24.216 5.3524 24.573 5.4576 L 24.866 4.9913 C 25.026 4.7824 24.973 4.7386 24.706 4.8617 C 23.799 4.7905 22.892 4.7386 21.983 4.7063 L 21.876 4.2917 L 24.919 4.2917 L 24.706 3.1257 C 24.582 2.4003 24.306 2.0634 23.878 2.1152 L 22.89 2.2448 L 22.864 2.8148 L 23.692 2.6853 C 23.941 2.6496 24.093 2.8051 24.145 3.1516 L 24.252 3.7994 L 21.744 3.7994 C 21.726 3.6763 21.619 3.401 21.423 2.9703 L 20.889 3.1516 C 21.086 3.5646 21.255 4.031 21.397 4.5508 C 21.041 4.3079 20.508 4.0391 19.796 3.7476 Z M 23.104 6.235 C 23.46 6.5621 23.684 6.7693 23.771 6.8568 L 22.571 6.8568 L 22.571 6.235 L 23.104 6.235 Z " fill-rule="evenodd"/>
<path transform="matrix(1.3297086,0,0,-1.3300177,8.9839949,143.85785)" d="M 28.497 7.2454 C 27.733 7.2098 26.986 7.192 26.256 7.1936 L 26.123 7.66 C 27.885 7.6762 29.45 7.796 30.82 8.0228 L 31.194 7.5305 C 31.229 7.443 31.168 7.4252 31.006 7.4786 C 30.295 7.3912 29.548 7.3216 28.765 7.2714 L 29.085 7.0641 C 29.21 6.9766 29.165 6.9248 28.951 6.9086 C 28.507 6.4228 28.161 6.0601 27.911 5.8204 L 28.525 5.4576 C 29.077 5.9402 29.54 6.3888 29.913 6.805 L 30.42 6.4422 C 30.544 6.3548 30.499 6.3111 30.285 6.3127 C 29.717 5.8269 29.121 5.3443 28.497 4.8617 L 30.445 4.9654 C 30.269 5.137 30.101 5.2747 29.939 5.3799 L 30.339 5.7427 C 30.926 5.3605 31.407 4.92 31.78 4.4212 L 31.273 3.9808 C 31.079 4.2723 30.926 4.4633 30.82 4.5508 L 29.085 4.4212 L 29.085 2.1152 L 28.551 2.1152 L 28.551 4.3694 L 26.31 4.2399 C 26.292 4.1168 26.248 4.0909 26.177 4.1621 L 25.989 4.8099 L 27.697 4.8358 L 28.044 5.069 C 27.6 5.3783 27.137 5.6552 26.656 5.8981 L 27.003 6.3127 L 27.484 6.0795 C 27.68 6.2511 28.018 6.6398 28.497 7.2454 Z M 31.433 2.3484 C 30.74 2.6415 30.144 3.0804 29.645 3.6698 L 30.152 4.0585 C 30.544 3.5905 31.087 3.2099 31.78 2.9185 Z M 28.018 3.7217 C 28.161 3.6342 28.135 3.5824 27.937 3.5662 C 27.529 3.0464 27.022 2.6075 26.416 2.2448 L 26.016 2.7889 C 26.622 3.15 27.111 3.5646 27.484 4.0326 Z " fill-rule="evenodd"/>
<path transform="matrix(1.3297086,0,0,-1.3300177,8.9839949,143.85785)" d="M 35.759 6.3645 C 35.581 5.8787 35.298 5.422 34.906 4.9913 L 34.504 5.4576 C 35.11 6.0439 35.494 6.8811 35.653 7.9709 L 36.213 7.7896 C 36.373 7.7183 36.365 7.6665 36.187 7.6341 C 36.134 7.3912 36.062 7.1321 35.973 6.8568 L 37.894 6.8568 L 37.761 3.333 C 37.745 2.6415 37.46 2.2966 36.908 2.2966 L 36.159 2.2966 L 36.08 2.7889 L 36.773 2.7889 C 37.023 2.7873 37.157 2.9427 37.173 3.2553 L 37.308 6.3645 Z M 36.08 3.9549 C 35.831 4.2982 35.555 4.6091 35.253 4.8876 L 35.706 5.354 C 36.062 5.0415 36.347 4.7386 36.559 4.4472 Z M 32.93 6.8568 C 33.037 7.1839 33.136 7.5628 33.224 7.9968 L 33.865 7.7637 C 33.936 7.6924 33.91 7.6503 33.784 7.6341 C 33.732 7.4074 33.633 7.1483 33.491 6.8568 L 34.479 6.8568 L 34.479 2.5816 L 33.944 2.5816 L 33.944 2.8925 L 32.77 2.8925 L 32.77 2.3743 L 32.237 2.3743 L 32.237 6.8568 Z M 33.944 6.3645 L 32.77 6.3645 L 32.77 5.2245 L 33.944 5.2245 Z M 33.944 4.7322 L 32.77 4.7322 L 32.77 3.3848 L 33.944 3.3848 Z " fill-rule="evenodd"/>
<path transform="matrix(1.3297086,0,0,-1.3300177,8.9839949,143.85785)" d="M 40.272 4.4731 C 40.058 3.9354 39.739 3.435 39.312 2.9703 L 39.019 3.3589 C 39.428 3.8415 39.739 4.35 39.951 4.8876 C 39.686 5.2666 39.41 5.6374 39.125 6.0018 L 39.391 6.2609 C 39.64 5.9823 39.864 5.7151 40.058 5.4576 C 40.129 5.8706 40.183 6.2933 40.218 6.7272 L 40.672 6.6236 C 40.814 6.5702 40.806 6.5183 40.646 6.4681 C 40.594 6.052 40.523 5.5775 40.432 5.0431 C 40.682 4.7127 40.913 4.3937 41.127 4.0844 L 40.86 3.6439 C 40.665 3.9192 40.469 4.1945 40.272 4.4731 Z M 38.884 7.1159 L 38.884 2.3225 L 38.351 2.3225 L 38.351 7.6082 L 43.875 7.6082 L 43.875 2.7889 C 43.875 2.512 43.742 2.3743 43.475 2.3743 L 42.808 2.3743 L 42.701 2.8666 L 43.261 2.8666 C 43.315 2.865 43.341 2.8909 43.341 2.9444 L 43.341 7.1159 Z M 42.034 5.3022 C 42.141 5.8188 42.212 6.303 42.248 6.7532 L 42.673 6.7013 C 42.852 6.6479 42.852 6.588 42.673 6.52 C 42.622 6.0341 42.523 5.4998 42.38 4.9135 C 42.648 4.5492 42.879 4.2042 43.075 3.8771 L 42.808 3.4626 C 42.594 3.8059 42.39 4.1265 42.194 4.4212 C 41.929 3.746 41.616 3.2278 41.26 2.8666 L 40.967 3.2812 C 41.323 3.6423 41.616 4.1524 41.848 4.8099 C 41.58 5.2228 41.313 5.5856 41.046 5.8981 L 41.313 6.1831 C 41.527 5.9402 41.768 5.6455 42.034 5.3022 Z " fill-rule="evenodd"/>
<path transform="matrix(1.3297086,0,0,-1.3300177,8.9839949,143.85785)" d="M 50.175 4.4472 C 49.429 4.6868 48.815 4.9977 48.334 5.3799 C 47.962 5.0496 47.401 4.7127 46.653 4.3694 L 46.493 4.784 L 46.253 4.4472 C 46.111 4.6706 45.96 4.852 45.8 4.9913 L 45.8 2.1152 L 45.265 2.1152 L 45.265 4.9654 C 45.107 4.4974 44.857 4.065 44.519 3.6698 L 44.171 4.1621 C 44.758 4.886 45.115 5.6115 45.239 6.3386 L 44.331 6.3386 L 44.331 6.8309 L 45.265 6.8309 L 45.265 8.0228 L 45.772 8.0228 C 45.898 7.9871 45.907 7.9353 45.8 7.8673 L 45.8 6.8309 L 46.574 6.8309 L 46.574 6.3386 L 45.8 6.3386 L 45.8 5.5613 C 46.12 5.3864 46.368 5.1888 46.546 4.9654 C 47.188 5.1888 47.659 5.4382 47.962 5.7167 C 47.783 5.9046 47.615 6.1475 47.453 6.4422 C 47.366 6.2155 47.142 5.9224 46.786 5.5613 L 46.386 5.9759 C 47.027 6.5621 47.437 7.2616 47.613 8.0746 L 48.174 7.945 C 48.245 7.8738 48.219 7.8317 48.094 7.8155 L 47.934 7.3491 L 49.322 7.3491 L 49.429 7.4786 L 49.829 7.1418 L 49.696 7.0641 C 49.447 6.5783 49.128 6.1297 48.736 5.7167 C 49.199 5.422 49.759 5.1791 50.417 4.9913 Z M 49.162 2.2448 L 49.162 2.5039 L 47.588 2.5039 L 47.588 2.1411 L 47.053 2.1411 L 47.053 4.5249 L 49.696 4.5249 L 49.696 2.2448 Z M 49.162 2.9185 L 49.162 4.1103 L 47.588 4.1103 L 47.588 2.9185 Z M 48.362 6.0536 C 48.611 6.2771 48.825 6.5702 49.001 6.9345 L 47.748 6.9345 C 47.908 6.6042 48.112 6.3111 48.362 6.0536 Z " fill-rule="evenodd"/>
<path transform="matrix(1.3297086,0,0,-1.3300177,8.9839949,143.85785)" d="M 52.26 3.7994 C 52.046 4.5054 51.94 5.171 51.94 5.7945 L 50.419 5.639 L 50.391 6.1831 L 51.94 6.3127 L 51.94 8.0228 L 52.446 8.0228 C 52.589 8.0033 52.599 7.9515 52.474 7.8673 L 52.474 6.3645 L 53.995 6.52 L 54.022 6.0018 L 52.474 5.8722 C 52.492 5.2147 52.553 4.6868 52.66 4.2917 C 52.927 4.7386 53.114 5.1273 53.221 5.4576 L 53.755 5.1985 C 53.826 5.1273 53.8 5.0852 53.674 5.069 C 53.587 4.7743 53.329 4.3338 52.902 3.7476 C 53.133 3.2974 53.365 3.0545 53.595 3.0221 C 53.684 3.0027 53.773 3.2018 53.862 3.618 L 54.341 3.3071 C 54.236 2.6496 54.04 2.3225 53.755 2.3225 C 53.347 2.3225 52.927 2.6496 52.5 3.3071 C 51.949 2.8051 51.344 2.4424 50.686 2.2189 L 50.498 2.763 C 51.175 2.9865 51.763 3.3314 52.26 3.7994 Z M 53.302 6.7013 C 53.123 6.9248 52.91 7.1224 52.66 7.2973 L 53.06 7.6859 C 53.31 7.5467 53.533 7.3556 53.727 7.1159 Z M 56.184 2.5557 C 56.184 2.261 56.042 2.1152 55.756 2.1152 L 55.143 2.1152 L 55.036 2.6075 L 55.57 2.6075 C 55.624 2.6075 55.65 2.6334 55.65 2.6853 L 55.65 7.9709 L 56.156 7.9709 C 56.299 7.9515 56.309 7.8997 56.184 7.8155 L 56.184 2.5557 Z M 54.955 7.375 C 55.097 7.3556 55.107 7.3037 54.982 7.2195 L 54.982 3.4626 L 54.448 3.4626 L 54.448 7.375 L 54.955 7.375 Z " fill-rule="evenodd"/>
<path transform="matrix(1.3297086,0,0,-1.3300177,8.9839949,143.85785)" d="M 61.469 5.4317 L 61.362 3.333 C 61.326 2.6075 61.069 2.2448 60.588 2.2448 L 59.786 2.2448 L 59.707 2.8148 L 60.374 2.8148 C 60.606 2.8132 60.73 2.9606 60.748 3.2553 L 60.855 4.9394 L 59.386 4.9394 L 59.36 4.7322 C 59.236 3.78 58.533 2.9087 57.252 2.1152 L 56.852 2.6075 C 58.008 3.2456 58.65 3.9192 58.773 4.6285 L 58.826 4.9394 L 57.812 4.9394 L 57.812 5.4317 Z M 59.067 7.4786 C 58.64 6.5783 57.955 5.7589 57.012 5.0172 L 56.585 5.5095 C 57.511 6.1297 58.186 6.9329 58.612 7.9191 L 59.119 7.6082 C 59.226 7.5369 59.21 7.4948 59.067 7.4786 Z M 62.376 5.0172 C 61.398 5.5678 60.677 6.4746 60.214 7.7377 L 60.721 7.945 C 61.148 6.8374 61.833 6.0439 62.776 5.5613 Z " fill-rule="evenodd"/>
</g>
<clipPath id="cp8">
<path transform="matrix(1.3296685,0,0,-1.3300177,145.07758,143.85785)" d="M 0 0 L 68.189 0 L 68.189 9.4548 L 0 9.4548 Z " fill-rule="evenodd"/>
</clipPath>
<g clip-path="url(#cp8)">
<path transform="matrix(1.3296685,0,0,-1.3300177,145.07758,143.85785)" d="M 7.0307 2.2966 C 7.1198 2.193 6.9595 2.1573 6.5498 2.193 C 6.1417 2.227 5.7093 2.3873 5.2559 2.6723 C 4.8024 2.9557 4.4915 3.3784 4.3231 3.9403 C 4.1547 4.5006 4.0689 5.0577 4.0689 5.6115 C 4.0689 6.1637 4.0689 6.7515 4.0689 7.375 L 2.0932 7.375 C 1.8633 7.3734 1.6495 7.3475 1.4536 7.2973 L 1.2123 7.5305 L 4.0154 7.5305 L 4.3085 7.8155 L 4.6826 7.4527 L 4.4413 7.2714 L 4.4413 5.8722 L 4.6551 5.7945 C 5.1539 6.2933 5.5636 6.8374 5.8826 7.4268 L 6.417 7.0123 L 6.1239 6.9086 C 5.6251 6.4406 5.1814 6.052 4.7895 5.7427 C 5.5538 5.4123 5.9862 5.184 6.0834 5.0544 C 6.1822 4.9249 6.2307 4.8083 6.2307 4.7063 C 6.2307 4.6528 6.2178 4.5832 6.1903 4.4974 C 6.1643 4.4099 6.132 4.3678 6.0963 4.3694 C 6.0445 4.3678 5.9457 4.4633 5.8032 4.6544 C 5.5895 4.9297 5.136 5.2925 4.4413 5.7427 C 4.4413 4.7743 4.6065 4.0439 4.9352 3.5516 C 5.2656 3.0593 5.7595 2.7614 6.417 2.6594 L 6.6032 4.0326 L 6.7101 4.0326 C 6.7101 3.5306 6.7425 3.1452 6.804 2.878 C 6.8672 2.6108 6.9433 2.4164 7.0307 2.2966 Z " fill="#0000ff" fill-rule="evenodd"/>
<path transform="matrix(1.3296685,0,0,-1.3300177,145.07758,143.85785)" d="M 7.7791 4.8617 L 7.5135 4.8358 C 7.4423 4.6965 7.3807 4.6868 7.3257 4.8099 L 7.2463 5.3281 L 7.7791 5.3281 L 7.7791 7.4009 L 8.3135 7.4009 L 8.5532 8.0487 L 9.0876 7.9709 C 9.2123 7.9515 9.2042 7.8997 9.0617 7.8155 L 8.7945 7.4009 L 9.8341 7.4009 L 9.8341 5.5095 L 9.9685 5.5354 C 10.467 6.1734 10.768 6.941 10.875 7.8414 L 11.41 7.7118 C 11.534 7.6924 11.525 7.6406 11.382 7.5564 C 11.259 6.6916 10.93 5.8884 10.396 5.1467 L 10.101 5.3799 L 10.101 5.0431 L 9.8341 5.0172 L 9.8341 2.6334 C 9.8341 2.3565 9.7288 2.2189 9.5151 2.2189 L 8.9273 2.2189 L 8.8204 2.6334 L 9.3013 2.6334 C 9.3548 2.6334 9.3807 2.6594 9.3807 2.7112 L 9.3807 4.9654 C 9.0082 4.9297 8.626 4.9038 8.2342 4.8876 L 8.2342 4.1881 C 8.2342 3.4269 8.0026 2.7355 7.5394 2.1152 L 7.2188 2.5557 C 7.5929 3.0545 7.7791 3.6083 7.7791 4.214 Z M 12.37 7.8932 C 12.548 6.8374 12.922 6.0601 13.491 5.5613 L 13.144 5.0949 C 12.469 5.7151 12.051 6.6042 11.889 7.7637 Z M 8.2342 5.354 C 8.5548 5.3702 8.937 5.3961 9.3807 5.4317 L 9.3807 6.9863 L 8.2342 6.9863 Z M 10.475 4.9135 L 13.011 4.9135 L 13.011 2.2966 L 12.477 2.2966 L 12.477 2.5039 L 11.01 2.5039 L 11.01 2.1152 L 10.475 2.1152 Z M 11.01 4.4212 L 11.01 2.9962 L 12.477 2.9962 L 12.477 4.4212 Z M 8.7669 5.5613 C 8.6439 5.9224 8.5095 6.2414 8.3669 6.52 L 8.741 6.7272 C 8.8657 6.5005 9.0163 6.1815 9.1945 5.7686 Z M 8.9273 4.7063 C 9.0698 4.6868 9.0795 4.635 8.9548 4.5508 L 8.9548 2.9962 L 8.4997 2.9962 L 8.4997 4.7063 Z " fill="#0000ff" fill-rule="evenodd"/>
<path transform="matrix(1.3296685,0,0,-1.3300177,145.07758,143.85785)" d="M 16.697 2.9404 C 16.333 2.952 15.978 2.9577 15.633 2.9577 C 15.289 2.9577 14.934 2.952 14.569 2.9404 L 14.569 3.1886 L 14.774 3.1886 C 14.84 3.1884 14.901 3.1893 14.959 3.1913 C 15.016 3.1931 15.071 3.1979 15.122 3.2057 C 15.174 3.2133 15.218 3.221 15.256 3.229 C 15.288 3.2346 15.314 3.2522 15.335 3.2822 C 15.356 3.3119 15.366 3.3451 15.366 3.3819 L 15.366 6.6338 C 15.267 6.5855 15.145 6.5489 15 6.524 C 14.856 6.4989 14.697 6.4865 14.525 6.4866 L 14.525 6.7319 C 14.763 6.7317 14.982 6.76 15.183 6.8168 C 15.384 6.8735 15.558 6.9799 15.705 7.1359 L 15.797 7.1359 C 15.862 7.1357 15.895 7.1039 15.895 7.0406 L 15.895 3.3819 C 15.895 3.3433 15.905 3.3096 15.924 3.2807 C 15.944 3.2519 15.973 3.2346 16.011 3.229 C 16.042 3.221 16.083 3.2133 16.133 3.2057 C 16.182 3.1979 16.238 3.1931 16.3 3.1913 C 16.363 3.1893 16.424 3.1884 16.483 3.1886 L 16.697 3.1886 L 16.697 2.9404 Z " fill="#0000ff" fill-rule="evenodd"/>
<path transform="matrix(1.3296685,0,0,-1.3300177,145.07758,143.85785)" d="M 22.923 3.7217 C 21.856 2.6853 20.478 2.1411 18.787 2.0893 L 18.653 2.5816 C 20.468 2.6674 21.812 3.2197 22.683 4.2399 L 23.056 3.8771 C 23.147 3.7897 23.101 3.7379 22.923 3.7217 Z M 19.987 6.9345 L 22.016 7.0123 C 21.767 7.2001 21.535 7.3653 21.321 7.5046 L 21.696 7.7637 C 22.248 7.4171 22.747 7.0544 23.19 6.6754 L 22.737 6.3645 L 22.416 6.6754 L 20.949 6.5718 C 20.86 6.3969 20.771 6.2414 20.682 6.1054 L 23.697 6.1054 L 23.697 5.6131 L 21.935 5.6131 C 22.327 5.1969 22.968 4.8941 23.857 4.7063 L 23.723 4.1881 C 22.602 4.4455 21.794 4.92 21.296 5.6131 L 20.468 5.6131 C 20.005 4.9556 19.151 4.4536 17.906 4.1103 L 17.692 4.6285 C 18.761 4.8682 19.472 5.1969 19.827 5.6131 L 17.879 5.6131 L 17.879 6.1054 L 20.147 6.1054 C 20.254 6.2592 20.335 6.4066 20.387 6.5459 L 18.734 6.4681 C 18.627 6.3111 18.556 6.3192 18.52 6.4941 L 18.413 6.9345 L 19.48 6.9345 L 20.254 8.0746 L 20.761 7.8932 C 20.904 7.8058 20.868 7.7442 20.654 7.7118 Z M 21.296 5.0172 C 21.402 4.9119 21.367 4.8601 21.189 4.8617 C 20.513 4.2723 19.767 3.8755 18.947 3.6698 L 18.734 4.1362 C 19.731 4.4115 20.452 4.8083 20.896 5.3281 L 21.296 5.0172 Z M 21.989 4.3435 C 22.096 4.2561 22.06 4.2042 21.882 4.1881 C 21.117 3.5306 20.238 3.1063 19.241 2.9185 L 19.106 3.4107 C 20.086 3.5468 20.923 3.9613 21.616 4.6544 L 21.989 4.3435 Z " fill="#0000ff" fill-rule="evenodd"/>
<path transform="matrix(1.3296685,0,0,-1.3300177,145.07758,143.85785)" d="M 23.939 4.214 C 24.67 4.4714 25.311 4.7565 25.861 5.069 L 25.915 5.1985 L 26.075 5.1985 C 26.342 5.3702 26.6 5.5516 26.849 5.7427 L 23.993 5.7427 L 23.993 6.235 L 26.422 6.235 L 26.422 6.8568 L 24.634 6.8568 L 24.634 7.3491 L 26.422 7.3491 L 26.422 8.1264 L 26.929 8.1264 C 27.142 8.107 27.152 8.047 26.956 7.945 L 26.956 7.3491 L 28.29 7.3491 L 28.29 7.0123 C 28.397 7.1143 28.576 7.3394 28.823 7.6859 L 29.277 7.3232 C 29.367 7.2179 29.322 7.1742 29.144 7.1936 C 28.823 6.8471 28.495 6.5264 28.156 6.235 L 30.104 6.235 L 30.104 5.7427 L 27.57 5.7427 C 27.285 5.5159 26.992 5.3087 26.689 5.1208 C 27.845 5.2407 28.601 5.3524 28.958 5.4576 L 29.251 4.9913 C 29.411 4.7824 29.358 4.7386 29.09 4.8617 C 28.184 4.7905 27.277 4.7386 26.368 4.7063 L 26.261 4.2917 L 29.304 4.2917 L 29.09 3.1257 C 28.967 2.4003 28.69 2.0634 28.263 2.1152 L 27.275 2.2448 L 27.249 2.8148 L 28.077 2.6853 C 28.326 2.6496 28.478 2.8051 28.53 3.1516 L 28.637 3.7994 L 26.129 3.7994 C 26.111 3.6763 26.004 3.401 25.808 2.9703 L 25.274 3.1516 C 25.471 3.5646 25.64 4.031 25.782 4.5508 C 25.426 4.3079 24.893 4.0391 24.181 3.7476 Z M 27.489 6.235 C 27.845 6.5621 28.069 6.7693 28.156 6.8568 L 26.956 6.8568 L 26.956 6.235 L 27.489 6.235 Z " fill="#0000ff" fill-rule="evenodd"/>
<path transform="matrix(1.3296685,0,0,-1.3300177,145.07758,143.85785)" d="M 32.882 7.2454 C 32.118 7.2098 31.371 7.192 30.641 7.1936 L 30.508 7.66 C 32.27 7.6762 33.834 7.796 35.204 8.0228 L 35.579 7.5305 C 35.614 7.443 35.553 7.4252 35.391 7.4786 C 34.68 7.3912 33.933 7.3216 33.149 7.2714 L 33.47 7.0641 C 33.595 6.9766 33.549 6.9248 33.336 6.9086 C 32.892 6.4228 32.545 6.0601 32.296 5.8204 L 32.91 5.4576 C 33.462 5.9402 33.925 6.3888 34.298 6.805 L 34.804 6.4422 C 34.929 6.3548 34.884 6.3111 34.67 6.3127 C 34.102 5.8269 33.506 5.3443 32.882 4.8617 L 34.83 4.9654 C 34.654 5.137 34.485 5.2747 34.324 5.3799 L 34.724 5.7427 C 35.311 5.3605 35.792 4.92 36.165 4.4212 L 35.658 3.9808 C 35.464 4.2723 35.311 4.4633 35.204 4.5508 L 33.47 4.4212 L 33.47 2.1152 L 32.936 2.1152 L 32.936 4.3694 L 30.694 4.2399 C 30.677 4.1168 30.633 4.0909 30.562 4.1621 L 30.374 4.8099 L 32.082 4.8358 L 32.429 5.069 C 31.985 5.3783 31.522 5.6552 31.041 5.8981 L 31.388 6.3127 L 31.869 6.0795 C 32.064 6.2511 32.403 6.6398 32.882 7.2454 Z M 35.818 2.3484 C 35.125 2.6415 34.529 3.0804 34.03 3.6698 L 34.537 4.0585 C 34.929 3.5905 35.472 3.2099 36.165 2.9185 Z M 32.403 3.7217 C 32.545 3.6342 32.52 3.5824 32.322 3.5662 C 31.914 3.0464 31.407 2.6075 30.801 2.2448 L 30.401 2.7889 C 31.007 3.15 31.496 3.5646 31.869 4.0326 Z " fill="#0000ff" fill-rule="evenodd"/>
<path transform="matrix(1.3296685,0,0,-1.3300177,145.07758,143.85785)" d="M 40.144 6.3645 C 39.966 5.8787 39.683 5.422 39.291 4.9913 L 38.889 5.4576 C 39.495 6.0439 39.879 6.8811 40.038 7.9709 L 40.598 7.7896 C 40.758 7.7183 40.75 7.6665 40.572 7.6341 C 40.519 7.3912 40.447 7.1321 40.358 6.8568 L 42.279 6.8568 L 42.146 3.333 C 42.13 2.6415 41.845 2.2966 41.293 2.2966 L 40.544 2.2966 L 40.465 2.7889 L 41.158 2.7889 C 41.408 2.7873 41.542 2.9427 41.558 3.2553 L 41.693 6.3645 Z M 40.465 3.9549 C 40.216 4.2982 39.94 4.6091 39.638 4.8876 L 40.091 5.354 C 40.447 5.0415 40.732 4.7386 40.944 4.4472 Z M 37.315 6.8568 C 37.422 7.1839 37.521 7.5628 37.608 7.9968 L 38.25 7.7637 C 38.321 7.6924 38.295 7.6503 38.169 7.6341 C 38.117 7.4074 38.018 7.1483 37.876 6.8568 L 38.863 6.8568 L 38.863 2.5816 L 38.329 2.5816 L 38.329 2.8925 L 37.155 2.8925 L 37.155 2.3743 L 36.622 2.3743 L 36.622 6.8568 Z M 38.329 6.3645 L 37.155 6.3645 L 37.155 5.2245 L 38.329 5.2245 Z M 38.329 4.7322 L 37.155 4.7322 L 37.155 3.3848 L 38.329 3.3848 Z " fill="#0000ff" fill-rule="evenodd"/>
<path transform="matrix(1.3296685,0,0,-1.3300177,145.07758,143.85785)" d="M 44.657 4.4731 C 44.443 3.9354 44.124 3.435 43.697 2.9703 L 43.403 3.3589 C 43.813 3.8415 44.124 4.35 44.336 4.8876 C 44.071 5.2666 43.795 5.6374 43.51 6.0018 L 43.776 6.2609 C 44.025 5.9823 44.249 5.7151 44.443 5.4576 C 44.514 5.8706 44.568 6.2933 44.603 6.7272 L 45.057 6.6236 C 45.199 6.5702 45.191 6.5183 45.031 6.4681 C 44.979 6.052 44.908 5.5775 44.817 5.0431 C 45.067 4.7127 45.298 4.3937 45.512 4.0844 L 45.245 3.6439 C 45.05 3.9192 44.854 4.1945 44.657 4.4731 Z M 43.269 7.1159 L 43.269 2.3225 L 42.736 2.3225 L 42.736 7.6082 L 48.26 7.6082 L 48.26 2.7889 C 48.26 2.512 48.127 2.3743 47.86 2.3743 L 47.193 2.3743 L 47.086 2.8666 L 47.646 2.8666 C 47.7 2.865 47.726 2.8909 47.726 2.9444 L 47.726 7.1159 Z M 46.419 5.3022 C 46.526 5.8188 46.597 6.303 46.633 6.7532 L 47.058 6.7013 C 47.237 6.6479 47.237 6.588 47.058 6.52 C 47.007 6.0341 46.908 5.4998 46.765 4.9135 C 47.032 4.5492 47.264 4.2042 47.46 3.8771 L 47.193 3.4626 C 46.979 3.8059 46.775 4.1265 46.579 4.4212 C 46.313 3.746 46.001 3.2278 45.645 2.8666 L 45.352 3.2812 C 45.708 3.6423 46.001 4.1524 46.233 4.8099 C 45.965 5.2228 45.698 5.5856 45.431 5.8981 L 45.698 6.1831 C 45.912 5.9402 46.153 5.6455 46.419 5.3022 Z " fill="#0000ff" fill-rule="evenodd"/>
<path transform="matrix(1.3296685,0,0,-1.3300177,145.07758,143.85785)" d="M 54.56 4.4472 C 53.814 4.6868 53.2 4.9977 52.719 5.3799 C 52.347 5.0496 51.786 4.7127 51.038 4.3694 L 50.878 4.784 L 50.638 4.4472 C 50.496 4.6706 50.345 4.852 50.185 4.9913 L 50.185 2.1152 L 49.65 2.1152 L 49.65 4.9654 C 49.492 4.4974 49.242 4.065 48.904 3.6698 L 48.556 4.1621 C 49.143 4.886 49.5 5.6115 49.624 6.3386 L 48.716 6.3386 L 48.716 6.8309 L 49.65 6.8309 L 49.65 8.0228 L 50.157 8.0228 C 50.283 7.9871 50.292 7.9353 50.185 7.8673 L 50.185 6.8309 L 50.959 6.8309 L 50.959 6.3386 L 50.185 6.3386 L 50.185 5.5613 C 50.505 5.3864 50.753 5.1888 50.931 4.9654 C 51.572 5.1888 52.044 5.4382 52.347 5.7167 C 52.168 5.9046 52 6.1475 51.838 6.4422 C 51.751 6.2155 51.527 5.9224 51.171 5.5613 L 50.771 5.9759 C 51.412 6.5621 51.822 7.2616 51.998 8.0746 L 52.559 7.945 C 52.63 7.8738 52.604 7.8317 52.479 7.8155 L 52.319 7.3491 L 53.707 7.3491 L 53.814 7.4786 L 54.214 7.1418 L 54.081 7.0641 C 53.831 6.5783 53.512 6.1297 53.121 5.7167 C 53.584 5.422 54.144 5.1791 54.802 4.9913 Z M 53.546 2.2448 L 53.546 2.5039 L 51.972 2.5039 L 51.972 2.1411 L 51.438 2.1411 L 51.438 4.5249 L 54.081 4.5249 L 54.081 2.2448 Z M 53.546 2.9185 L 53.546 4.1103 L 51.972 4.1103 L 51.972 2.9185 Z M 52.747 6.0536 C 52.996 6.2771 53.21 6.5702 53.386 6.9345 L 52.133 6.9345 C 52.293 6.6042 52.497 6.3111 52.747 6.0536 Z " fill="#0000ff" fill-rule="evenodd"/>
<path transform="matrix(1.3296685,0,0,-1.3300177,145.07758,143.85785)" d="M 56.645 3.7994 C 56.431 4.5054 56.325 5.171 56.325 5.7945 L 54.804 5.639 L 54.776 6.1831 L 56.325 6.3127 L 56.325 8.0228 L 56.831 8.0228 C 56.974 8.0033 56.984 7.9515 56.859 7.8673 L 56.859 6.3645 L 58.38 6.52 L 58.407 6.0018 L 56.859 5.8722 C 56.877 5.2147 56.938 4.6868 57.045 4.2917 C 57.312 4.7386 57.499 5.1273 57.605 5.4576 L 58.14 5.1985 C 58.211 5.1273 58.185 5.0852 58.059 5.069 C 57.971 4.7743 57.714 4.3338 57.286 3.7476 C 57.518 3.2974 57.75 3.0545 57.98 3.0221 C 58.069 3.0027 58.158 3.2018 58.247 3.618 L 58.726 3.3071 C 58.621 2.6496 58.425 2.3225 58.14 2.3225 C 57.732 2.3225 57.312 2.6496 56.885 3.3071 C 56.334 2.8051 55.729 2.4424 55.071 2.2189 L 54.883 2.763 C 55.56 2.9865 56.148 3.3314 56.645 3.7994 Z M 57.686 6.7013 C 57.508 6.9248 57.295 7.1224 57.045 7.2973 L 57.445 7.6859 C 57.695 7.5467 57.918 7.3556 58.112 7.1159 Z M 60.569 2.5557 C 60.569 2.261 60.426 2.1152 60.141 2.1152 L 59.528 2.1152 L 59.421 2.6075 L 59.955 2.6075 C 60.009 2.6075 60.035 2.6334 60.035 2.6853 L 60.035 7.9709 L 60.541 7.9709 C 60.684 7.9515 60.694 7.8997 60.569 7.8155 L 60.569 2.5557 Z M 59.34 7.375 C 59.482 7.3556 59.492 7.3037 59.367 7.2195 L 59.367 3.4626 L 58.833 3.4626 L 58.833 7.375 L 59.34 7.375 Z " fill="#0000ff" fill-rule="evenodd"/>
<path transform="matrix(1.3296685,0,0,-1.3300177,145.07758,143.85785)" d="M 65.854 5.4317 L 65.747 3.333 C 65.711 2.6075 65.454 2.2448 64.973 2.2448 L 64.171 2.2448 L 64.092 2.8148 L 64.759 2.8148 C 64.991 2.8132 65.115 2.9606 65.133 3.2553 L 65.24 4.9394 L 63.771 4.9394 L 63.745 4.7322 C 63.621 3.78 62.918 2.9087 61.637 2.1152 L 61.237 2.6075 C 62.393 3.2456 63.034 3.9192 63.158 4.6285 L 63.211 4.9394 L 62.197 4.9394 L 62.197 5.4317 Z M 63.452 7.4786 C 63.025 6.5783 62.34 5.7589 61.397 5.0172 L 60.97 5.5095 C 61.896 6.1297 62.571 6.9329 62.997 7.9191 L 63.504 7.6082 C 63.611 7.5369 63.595 7.4948 63.452 7.4786 Z M 66.761 5.0172 C 65.783 5.5678 65.062 6.4746 64.599 7.7377 L 65.106 7.945 C 65.533 6.8374 66.218 6.0439 67.161 5.5613 Z " fill="#0000ff" fill-rule="evenodd"/>
</g>
<clipPath id="cp9">
<path transform="matrix(1.3297049,0,0,-1.3300177,294.29447,143.85785)" d="M 0 0 L 80.524 0 L 80.524 9.4548 L 0 9.4548 Z " fill-rule="evenodd"/>
</clipPath>
<g clip-path="url(#cp9)">
<path transform="matrix(1.3297049,0,0,-1.3300177,294.29447,143.85785)" d="M 7.0307 2.2966 C 7.1198 2.193 6.9595 2.1573 6.5498 2.193 C 6.1417 2.227 5.7093 2.3873 5.2559 2.6723 C 4.8024 2.9557 4.4915 3.3784 4.3231 3.9403 C 4.1547 4.5006 4.0689 5.0577 4.0689 5.6115 C 4.0689 6.1637 4.0689 6.7515 4.0689 7.375 L 2.0932 7.375 C 1.8633 7.3734 1.6495 7.3475 1.4536 7.2973 L 1.2123 7.5305 L 4.0154 7.5305 L 4.3085 7.8155 L 4.6826 7.4527 L 4.4413 7.2714 L 4.4413 5.8722 L 4.6551 5.7945 C 5.1539 6.2933 5.5636 6.8374 5.8826 7.4268 L 6.417 7.0123 L 6.1239 6.9086 C 5.6251 6.4406 5.1814 6.052 4.7895 5.7427 C 5.5538 5.4123 5.9862 5.184 6.0834 5.0544 C 6.1822 4.9249 6.2307 4.8083 6.2307 4.7063 C 6.2307 4.6528 6.2178 4.5832 6.1903 4.4974 C 6.1643 4.4099 6.132 4.3678 6.0963 4.3694 C 6.0445 4.3678 5.9457 4.4633 5.8032 4.6544 C 5.5895 4.9297 5.136 5.2925 4.4413 5.7427 C 4.4413 4.7743 4.6065 4.0439 4.9352 3.5516 C 5.2656 3.0593 5.7595 2.7614 6.417 2.6594 L 6.6032 4.0326 L 6.7101 4.0326 C 6.7101 3.5306 6.7425 3.1452 6.804 2.878 C 6.8672 2.6108 6.9433 2.4164 7.0307 2.2966 Z " fill="#990000" fill-rule="evenodd"/>
<path transform="matrix(1.3297049,0,0,-1.3300177,294.29447,143.85785)" d="M 7.7791 4.8617 L 7.5135 4.8358 C 7.4423 4.6965 7.3807 4.6868 7.3257 4.8099 L 7.2463 5.3281 L 7.7791 5.3281 L 7.7791 7.4009 L 8.3135 7.4009 L 8.5532 8.0487 L 9.0876 7.9709 C 9.2123 7.9515 9.2042 7.8997 9.0617 7.8155 L 8.7945 7.4009 L 9.8341 7.4009 L 9.8341 5.5095 L 9.9685 5.5354 C 10.467 6.1734 10.768 6.941 10.875 7.8414 L 11.41 7.7118 C 11.534 7.6924 11.525 7.6406 11.382 7.5564 C 11.259 6.6916 10.93 5.8884 10.396 5.1467 L 10.101 5.3799 L 10.101 5.0431 L 9.8341 5.0172 L 9.8341 2.6334 C 9.8341 2.3565 9.7288 2.2189 9.5151 2.2189 L 8.9273 2.2189 L 8.8204 2.6334 L 9.3013 2.6334 C 9.3548 2.6334 9.3807 2.6594 9.3807 2.7112 L 9.3807 4.9654 C 9.0082 4.9297 8.626 4.9038 8.2342 4.8876 L 8.2342 4.1881 C 8.2342 3.4269 8.0026 2.7355 7.5394 2.1152 L 7.2188 2.5557 C 7.5929 3.0545 7.7791 3.6083 7.7791 4.214 Z M 12.37 7.8932 C 12.548 6.8374 12.922 6.0601 13.491 5.5613 L 13.144 5.0949 C 12.469 5.7151 12.051 6.6042 11.889 7.7637 Z M 8.2342 5.354 C 8.5548 5.3702 8.937 5.3961 9.3807 5.4317 L 9.3807 6.9863 L 8.2342 6.9863 Z M 10.475 4.9135 L 13.011 4.9135 L 13.011 2.2966 L 12.477 2.2966 L 12.477 2.5039 L 11.01 2.5039 L 11.01 2.1152 L 10.475 2.1152 Z M 11.01 4.4212 L 11.01 2.9962 L 12.477 2.9962 L 12.477 4.4212 Z M 8.7669 5.5613 C 8.6439 5.9224 8.5095 6.2414 8.3669 6.52 L 8.741 6.7272 C 8.8657 6.5005 9.0163 6.1815 9.1945 5.7686 Z M 8.9273 4.7063 C 9.0698 4.6868 9.0795 4.635 8.9548 4.5508 L 8.9548 2.9962 L 8.4997 2.9962 L 8.4997 4.7063 Z " fill="#990000" fill-rule="evenodd"/>
<path transform="matrix(1.3297049,0,0,-1.3300177,294.29447,143.85785)" d="M 16.706 2.9404 L 14.287 2.9404 L 14.287 3.0991 C 14.287 3.1105 14.293 3.1278 14.305 3.1511 L 15.277 4.2071 C 15.392 4.3339 15.508 4.4638 15.626 4.5965 C 15.744 4.7292 15.849 4.8648 15.943 5.0033 C 16.036 5.1418 16.11 5.2847 16.165 5.4318 C 16.221 5.579 16.249 5.7334 16.249 5.8951 C 16.249 6.0315 16.231 6.159 16.195 6.2773 C 16.159 6.3956 16.108 6.4994 16.04 6.5889 C 15.973 6.6783 15.889 6.7505 15.788 6.8053 C 15.687 6.8601 15.57 6.8875 15.437 6.8877 C 15.239 6.8875 15.064 6.8284 14.913 6.7101 C 14.761 6.5918 14.66 6.4614 14.611 6.3193 C 14.601 6.3153 14.617 6.3133 14.658 6.3135 L 14.709 6.3135 C 14.769 6.2998 14.82 6.2791 14.864 6.2513 C 14.907 6.2233 14.944 6.1849 14.974 6.1359 C 15.003 6.0868 15.018 6.0277 15.018 5.9586 C 15.018 5.843 14.981 5.7545 14.905 5.693 C 14.83 5.6313 14.746 5.6006 14.653 5.6008 C 14.563 5.6006 14.48 5.6313 14.403 5.693 C 14.326 5.7545 14.287 5.843 14.287 5.9586 C 14.287 6.12 14.319 6.2729 14.382 6.4172 C 14.446 6.5615 14.532 6.6865 14.641 6.7923 C 14.75 6.898 14.878 6.9817 15.027 7.0433 C 15.176 7.1048 15.333 7.1357 15.5 7.1359 C 15.706 7.1357 15.895 7.1054 16.066 7.0448 C 16.237 6.9842 16.383 6.8971 16.504 6.7837 C 16.625 6.67 16.72 6.5388 16.788 6.3898 C 16.856 6.2407 16.89 6.0758 16.89 5.8951 C 16.89 5.6949 16.845 5.5106 16.754 5.3424 C 16.663 5.1739 16.55 5.0196 16.415 4.8793 C 16.28 4.7388 16.137 4.6066 15.985 4.4825 C 15.834 4.3584 15.697 4.2378 15.574 4.1206 L 14.89 3.4771 L 15.785 3.4771 C 15.91 3.4769 16.026 3.4778 16.134 3.4798 C 16.242 3.4816 16.334 3.4856 16.409 3.4914 C 16.484 3.4971 16.523 3.5009 16.525 3.5031 C 16.541 3.5164 16.556 3.5433 16.57 3.5837 C 16.583 3.6241 16.596 3.6717 16.608 3.7265 C 16.62 3.7813 16.632 3.8371 16.644 3.8939 C 16.656 3.9505 16.667 4.0127 16.677 4.0802 L 16.896 4.0802 Z " fill="#990000" fill-rule="evenodd"/>
<path transform="matrix(1.3297049,0,0,-1.3300177,294.29447,143.85785)" d="M 19.961 3.5403 L 18.173 2.9185 C 18.156 2.7954 18.11 2.7695 18.039 2.8407 L 17.825 3.4367 L 18.653 3.6698 L 18.653 5.7686 L 17.879 5.7686 L 17.879 6.2609 L 18.653 6.2609 L 18.653 7.7118 L 19.16 7.7118 C 19.302 7.6924 19.312 7.6406 19.187 7.5564 L 19.187 6.2609 L 19.88 6.2609 L 19.88 5.7686 L 19.187 5.7686 L 19.187 3.7994 L 19.961 4.0585 Z M 22.897 2.7889 C 23.075 2.7873 23.19 2.8731 23.244 3.048 L 23.404 3.5921 L 23.99 3.4107 L 23.857 2.9185 C 23.751 2.5039 23.493 2.2966 23.083 2.2966 L 20.868 2.2966 C 20.547 2.2966 20.387 2.4424 20.387 2.7371 L 20.387 5.1985 L 19.694 4.9394 L 19.534 5.4576 L 20.387 5.7427 L 20.387 7.2195 L 20.896 7.2195 C 21.038 7.2001 21.046 7.1483 20.921 7.0641 L 20.921 5.924 L 21.563 6.1572 L 21.563 7.9191 L 22.07 7.9191 C 22.212 7.8997 22.222 7.8479 22.096 7.7637 L 22.096 6.3386 L 23.002 6.6754 L 23.056 6.7791 L 23.618 6.4163 L 23.511 6.3386 L 23.511 4.3694 C 23.511 4.0909 23.368 3.9532 23.083 3.9549 L 22.549 3.9549 L 22.416 4.4472 L 22.87 4.4472 C 22.941 4.4455 22.976 4.4795 22.976 4.5508 L 22.976 6.1054 L 22.096 5.7945 L 22.096 3.5662 L 21.563 3.5662 L 21.563 5.6131 L 20.921 5.3799 L 20.921 2.9962 C 20.921 2.8569 20.985 2.7873 21.108 2.7889 L 22.897 2.7889 Z " fill="#990000" fill-rule="evenodd"/>
<path transform="matrix(1.3297049,0,0,-1.3300177,294.29447,143.85785)" d="M 24.234 3.0221 C 24.216 2.899 24.171 2.8731 24.1 2.9444 L 23.86 3.5662 C 24.216 3.6342 24.537 3.7022 24.82 3.7735 L 24.82 5.2245 L 24.206 5.2245 L 24.206 5.7167 L 24.82 5.7167 L 24.82 6.9086 L 24.02 6.9086 L 24.02 7.4009 L 26.182 7.4009 L 26.182 6.9086 L 25.355 6.9086 L 25.355 5.7167 L 26.022 5.7167 L 26.022 5.2245 L 25.355 5.2245 L 25.355 3.903 L 25.994 4.0844 L 26.129 3.618 C 25.649 3.4269 25.018 3.2278 24.234 3.0221 Z M 29.89 6.3127 L 28.263 6.3127 L 28.263 6.0018 C 28.318 5.741 28.433 5.422 28.61 5.0431 C 28.895 5.3006 29.18 5.6034 29.465 5.9499 L 29.944 5.4836 C 29.963 5.3961 29.918 5.3702 29.811 5.4058 C 29.49 5.1273 29.171 4.8601 28.851 4.6026 C 29.171 4.031 29.58 3.5824 30.078 3.2553 L 29.625 2.763 C 29.074 3.2278 28.619 3.8755 28.263 4.7063 L 28.263 2.5816 C 28.263 2.3047 28.12 2.1671 27.835 2.1671 L 27.142 2.1671 L 27.035 2.7371 L 27.623 2.7371 C 27.695 2.7355 27.73 2.7695 27.73 2.8407 L 27.73 4.0067 C 27.338 3.6245 26.912 3.2974 26.449 3.0221 C 26.414 2.899 26.378 2.8569 26.342 2.8925 L 25.968 3.4885 C 26.627 3.7978 27.215 4.1686 27.73 4.6026 L 27.73 6.3127 L 26.208 6.3127 L 26.208 6.805 L 27.73 6.805 L 27.73 7.9968 L 28.237 7.9968 C 28.38 7.9774 28.389 7.9256 28.263 7.8414 L 28.263 6.805 L 29.89 6.805 Z M 29.037 6.8568 C 28.843 7.0803 28.619 7.2697 28.37 7.4268 L 28.797 7.7637 C 29.029 7.6406 29.261 7.4592 29.49 7.2195 Z M 26.875 4.5249 C 26.752 4.886 26.556 5.2407 26.289 5.5872 L 26.822 5.8722 C 27.16 5.49 27.374 5.137 27.463 4.8099 Z " fill="#990000" fill-rule="evenodd"/>
<path transform="matrix(1.3297049,0,0,-1.3300177,294.29447,143.85785)" d="M 35.258 3.7217 C 34.191 2.6853 32.813 2.1411 31.122 2.0893 L 30.988 2.5816 C 32.803 2.6674 34.147 3.2197 35.018 4.2399 L 35.391 3.8771 C 35.481 3.7897 35.436 3.7379 35.258 3.7217 Z M 32.322 6.9345 L 34.351 7.0123 C 34.102 7.2001 33.87 7.3653 33.656 7.5046 L 34.03 7.7637 C 34.583 7.4171 35.081 7.0544 35.525 6.6754 L 35.072 6.3645 L 34.751 6.6754 L 33.284 6.5718 C 33.195 6.3969 33.106 6.2414 33.017 6.1054 L 36.032 6.1054 L 36.032 5.6131 L 34.27 5.6131 C 34.662 5.1969 35.303 4.8941 36.192 4.7063 L 36.058 4.1881 C 34.937 4.4455 34.129 4.92 33.63 5.6131 L 32.803 5.6131 C 32.34 4.9556 31.486 4.4536 30.241 4.1103 L 30.027 4.6285 C 31.096 4.8682 31.807 5.1969 32.162 5.6131 L 30.214 5.6131 L 30.214 6.1054 L 32.482 6.1054 C 32.589 6.2592 32.67 6.4066 32.722 6.5459 L 31.069 6.4681 C 30.962 6.3111 30.89 6.3192 30.855 6.4941 L 30.748 6.9345 L 31.815 6.9345 L 32.589 8.0746 L 33.096 7.8932 C 33.239 7.8058 33.203 7.7442 32.989 7.7118 Z M 33.63 5.0172 C 33.737 4.9119 33.702 4.8601 33.524 4.8617 C 32.848 4.2723 32.102 3.8755 31.282 3.6698 L 31.069 4.1362 C 32.066 4.4115 32.787 4.8083 33.23 5.3281 L 33.63 5.0172 Z M 34.324 4.3435 C 34.43 4.2561 34.395 4.2042 34.217 4.1881 C 33.452 3.5306 32.573 3.1063 31.575 2.9185 L 31.441 3.4107 C 32.421 3.5468 33.258 3.9613 33.951 4.6544 L 34.324 4.3435 Z " fill="#990000" fill-rule="evenodd"/>
<path transform="matrix(1.3297049,0,0,-1.3300177,294.29447,143.85785)" d="M 36.274 4.214 C 37.004 4.4714 37.646 4.7565 38.196 5.069 L 38.25 5.1985 L 38.41 5.1985 C 38.677 5.3702 38.935 5.5516 39.184 5.7427 L 36.328 5.7427 L 36.328 6.235 L 38.757 6.235 L 38.757 6.8568 L 36.969 6.8568 L 36.969 7.3491 L 38.757 7.3491 L 38.757 8.1264 L 39.263 8.1264 C 39.477 8.107 39.487 8.047 39.291 7.945 L 39.291 7.3491 L 40.625 7.3491 L 40.625 7.0123 C 40.732 7.1143 40.91 7.3394 41.158 7.6859 L 41.612 7.3232 C 41.702 7.2179 41.657 7.1742 41.479 7.1936 C 41.158 6.8471 40.829 6.5264 40.491 6.235 L 42.439 6.235 L 42.439 5.7427 L 39.905 5.7427 C 39.62 5.5159 39.327 5.3087 39.024 5.1208 C 40.18 5.2407 40.936 5.3524 41.293 5.4576 L 41.586 4.9913 C 41.746 4.7824 41.693 4.7386 41.425 4.8617 C 40.519 4.7905 39.612 4.7386 38.703 4.7063 L 38.596 4.2917 L 41.639 4.2917 L 41.425 3.1257 C 41.302 2.4003 41.025 2.0634 40.598 2.1152 L 39.61 2.2448 L 39.584 2.8148 L 40.412 2.6853 C 40.661 2.6496 40.813 2.8051 40.865 3.1516 L 40.972 3.7994 L 38.464 3.7994 C 38.446 3.6763 38.339 3.401 38.143 2.9703 L 37.608 3.1516 C 37.806 3.5646 37.974 4.031 38.117 4.5508 C 37.761 4.3079 37.228 4.0391 36.515 3.7476 Z M 39.824 6.235 C 40.18 6.5621 40.404 6.7693 40.491 6.8568 L 39.291 6.8568 L 39.291 6.235 L 39.824 6.235 Z " fill="#990000" fill-rule="evenodd"/>
<path transform="matrix(1.3297049,0,0,-1.3300177,294.29447,143.85785)" d="M 45.217 7.2454 C 44.453 7.2098 43.706 7.192 42.976 7.1936 L 42.843 7.66 C 44.605 7.6762 46.169 7.796 47.539 8.0228 L 47.913 7.5305 C 47.949 7.443 47.888 7.4252 47.726 7.4786 C 47.015 7.3912 46.268 7.3216 45.484 7.2714 L 45.805 7.0641 C 45.93 6.9766 45.884 6.9248 45.671 6.9086 C 45.227 6.4228 44.88 6.0601 44.631 5.8204 L 45.245 5.4576 C 45.797 5.9402 46.26 6.3888 46.633 6.805 L 47.139 6.4422 C 47.264 6.3548 47.219 6.3111 47.005 6.3127 C 46.437 5.8269 45.841 5.3443 45.217 4.8617 L 47.165 4.9654 C 46.989 5.137 46.82 5.2747 46.658 5.3799 L 47.058 5.7427 C 47.646 5.3605 48.127 4.92 48.5 4.4212 L 47.993 3.9808 C 47.798 4.2723 47.646 4.4633 47.539 4.5508 L 45.805 4.4212 L 45.805 2.1152 L 45.271 2.1152 L 45.271 4.3694 L 43.029 4.2399 C 43.012 4.1168 42.968 4.0909 42.897 4.1621 L 42.709 4.8099 L 44.417 4.8358 L 44.764 5.069 C 44.32 5.3783 43.857 5.6552 43.376 5.8981 L 43.722 6.3127 L 44.203 6.0795 C 44.399 6.2511 44.738 6.6398 45.217 7.2454 Z M 48.153 2.3484 C 47.46 2.6415 46.864 3.0804 46.365 3.6698 L 46.872 4.0585 C 47.264 3.5905 47.807 3.2099 48.5 2.9185 Z M 44.738 3.7217 C 44.88 3.6342 44.854 3.5824 44.657 3.5662 C 44.249 3.0464 43.742 2.6075 43.136 2.2448 L 42.736 2.7889 C 43.342 3.15 43.831 3.5646 44.203 4.0326 Z " fill="#990000" fill-rule="evenodd"/>
<path transform="matrix(1.3297049,0,0,-1.3300177,294.29447,143.85785)" d="M 52.479 6.3645 C 52.301 5.8787 52.018 5.422 51.626 4.9913 L 51.224 5.4576 C 51.83 6.0439 52.214 6.8811 52.372 7.9709 L 52.933 7.7896 C 53.093 7.7183 53.085 7.6665 52.907 7.6341 C 52.853 7.3912 52.782 7.1321 52.693 6.8568 L 54.614 6.8568 L 54.481 3.333 C 54.465 2.6415 54.18 2.2966 53.627 2.2966 L 52.879 2.2966 L 52.8 2.7889 L 53.493 2.7889 C 53.742 2.7873 53.877 2.9427 53.893 3.2553 L 54.027 6.3645 Z M 52.8 3.9549 C 52.551 4.2982 52.275 4.6091 51.972 4.8876 L 52.426 5.354 C 52.782 5.0415 53.067 4.7386 53.279 4.4472 Z M 49.65 6.8568 C 49.757 7.1839 49.856 7.5628 49.943 7.9968 L 50.585 7.7637 C 50.656 7.6924 50.63 7.6503 50.504 7.6341 C 50.452 7.4074 50.353 7.1483 50.211 6.8568 L 51.198 6.8568 L 51.198 2.5816 L 50.664 2.5816 L 50.664 2.8925 L 49.49 2.8925 L 49.49 2.3743 L 48.957 2.3743 L 48.957 6.8568 Z M 50.664 6.3645 L 49.49 6.3645 L 49.49 5.2245 L 50.664 5.2245 Z M 50.664 4.7322 L 49.49 4.7322 L 49.49 3.3848 L 50.664 3.3848 Z " fill="#990000" fill-rule="evenodd"/>
<path transform="matrix(1.3297049,0,0,-1.3300177,294.29447,143.85785)" d="M 56.992 4.4731 C 56.778 3.9354 56.459 3.435 56.031 2.9703 L 55.738 3.3589 C 56.148 3.8415 56.459 4.35 56.671 4.8876 C 56.406 5.2666 56.13 5.6374 55.845 6.0018 L 56.111 6.2609 C 56.36 5.9823 56.584 5.7151 56.778 5.4576 C 56.849 5.8706 56.903 6.2933 56.938 6.7272 L 57.392 6.6236 C 57.534 6.5702 57.526 6.5183 57.366 6.4681 C 57.314 6.052 57.243 5.5775 57.152 5.0431 C 57.401 4.7127 57.633 4.3937 57.847 4.0844 L 57.58 3.6439 C 57.385 3.9192 57.189 4.1945 56.992 4.4731 Z M 55.604 7.1159 L 55.604 2.3225 L 55.071 2.3225 L 55.071 7.6082 L 60.595 7.6082 L 60.595 2.7889 C 60.595 2.512 60.462 2.3743 60.195 2.3743 L 59.528 2.3743 L 59.421 2.8666 L 59.981 2.8666 C 60.035 2.865 60.06 2.8909 60.06 2.9444 L 60.06 7.1159 Z M 58.754 5.3022 C 58.861 5.8188 58.932 6.303 58.967 6.7532 L 59.393 6.7013 C 59.571 6.6479 59.571 6.588 59.393 6.52 C 59.341 6.0341 59.243 5.4998 59.1 4.9135 C 59.367 4.5492 59.599 4.2042 59.795 3.8771 L 59.528 3.4626 C 59.314 3.8059 59.11 4.1265 58.914 4.4212 C 58.648 3.746 58.336 3.2278 57.98 2.8666 L 57.686 3.2812 C 58.043 3.6423 58.336 4.1524 58.567 4.8099 C 58.3 5.2228 58.033 5.5856 57.766 5.8981 L 58.033 6.1831 C 58.247 5.9402 58.488 5.6455 58.754 5.3022 Z " fill="#990000" fill-rule="evenodd"/>
<path transform="matrix(1.3297049,0,0,-1.3300177,294.29447,143.85785)" d="M 66.895 4.4472 C 66.149 4.6868 65.535 4.9977 65.054 5.3799 C 64.681 5.0496 64.121 4.7127 63.373 4.3694 L 63.213 4.784 L 62.973 4.4472 C 62.83 4.6706 62.68 4.852 62.52 4.9913 L 62.52 2.1152 L 61.985 2.1152 L 61.985 4.9654 C 61.826 4.4974 61.577 4.065 61.239 3.6698 L 60.89 4.1621 C 61.478 4.886 61.835 5.6115 61.959 6.3386 L 61.051 6.3386 L 61.051 6.8309 L 61.985 6.8309 L 61.985 8.0228 L 62.492 8.0228 C 62.618 7.9871 62.626 7.9353 62.52 7.8673 L 62.52 6.8309 L 63.294 6.8309 L 63.294 6.3386 L 62.52 6.3386 L 62.52 5.5613 C 62.84 5.3864 63.088 5.1888 63.266 4.9654 C 63.907 5.1888 64.379 5.4382 64.681 5.7167 C 64.503 5.9046 64.335 6.1475 64.173 6.4422 C 64.085 6.2155 63.862 5.9224 63.506 5.5613 L 63.106 5.9759 C 63.747 6.5621 64.157 7.2616 64.333 8.0746 L 64.894 7.945 C 64.965 7.8738 64.939 7.8317 64.814 7.8155 L 64.654 7.3491 L 66.042 7.3491 L 66.149 7.4786 L 66.549 7.1418 L 66.416 7.0641 C 66.166 6.5783 65.847 6.1297 65.455 5.7167 C 65.919 5.422 66.479 5.1791 67.136 4.9913 Z M 65.881 2.2448 L 65.881 2.5039 L 64.307 2.5039 L 64.307 2.1411 L 63.773 2.1411 L 63.773 4.5249 L 66.416 4.5249 L 66.416 2.2448 Z M 65.881 2.9185 L 65.881 4.1103 L 64.307 4.1103 L 64.307 2.9185 Z M 65.081 6.0536 C 65.331 6.2771 65.545 6.5702 65.721 6.9345 L 64.468 6.9345 C 64.628 6.6042 64.832 6.3111 65.081 6.0536 Z " fill="#990000" fill-rule="evenodd"/>
<path transform="matrix(1.3297049,0,0,-1.3300177,294.29447,143.85785)" d="M 68.98 3.7994 C 68.766 4.5054 68.659 5.171 68.659 5.7945 L 67.139 5.639 L 67.111 6.1831 L 68.659 6.3127 L 68.659 8.0228 L 69.166 8.0228 C 69.309 8.0033 69.319 7.9515 69.194 7.8673 L 69.194 6.3645 L 70.714 6.52 L 70.742 6.0018 L 69.194 5.8722 C 69.212 5.2147 69.273 4.6868 69.38 4.2917 C 69.647 4.7386 69.833 5.1273 69.94 5.4576 L 70.475 5.1985 C 70.546 5.1273 70.52 5.0852 70.394 5.069 C 70.306 4.7743 70.049 4.3338 69.621 3.7476 C 69.853 3.2974 70.084 3.0545 70.314 3.0221 C 70.404 3.0027 70.493 3.2018 70.582 3.618 L 71.061 3.3071 C 70.956 2.6496 70.76 2.3225 70.475 2.3225 C 70.067 2.3225 69.647 2.6496 69.22 3.3071 C 68.669 2.8051 68.063 2.4424 67.406 2.2189 L 67.218 2.763 C 67.895 2.9865 68.483 3.3314 68.98 3.7994 Z M 70.021 6.7013 C 69.843 6.9248 69.629 7.1224 69.38 7.2973 L 69.78 7.6859 C 70.029 7.5467 70.253 7.3556 70.447 7.1159 Z M 72.904 2.5557 C 72.904 2.261 72.761 2.1152 72.476 2.1152 L 71.863 2.1152 L 71.756 2.6075 L 72.29 2.6075 C 72.344 2.6075 72.369 2.6334 72.369 2.6853 L 72.369 7.9709 L 72.876 7.9709 C 73.019 7.9515 73.029 7.8997 72.904 7.8155 L 72.904 2.5557 Z M 71.675 7.375 C 71.817 7.3556 71.827 7.3037 71.702 7.2195 L 71.702 3.4626 L 71.168 3.4626 L 71.168 7.375 L 71.675 7.375 Z " fill="#990000" fill-rule="evenodd"/>
<path transform="matrix(1.3297049,0,0,-1.3300177,294.29447,143.85785)" d="M 78.189 5.4317 L 78.082 3.333 C 78.046 2.6075 77.789 2.2448 77.308 2.2448 L 76.506 2.2448 L 76.427 2.8148 L 77.094 2.8148 C 77.326 2.8132 77.45 2.9606 77.468 3.2553 L 77.575 4.9394 L 76.106 4.9394 L 76.08 4.7322 C 75.956 3.78 75.253 2.9087 73.972 2.1152 L 73.572 2.6075 C 74.728 3.2456 75.369 3.9192 75.492 4.6285 L 75.546 4.9394 L 74.532 4.9394 L 74.532 5.4317 Z M 75.787 7.4786 C 75.36 6.5783 74.675 5.7589 73.732 5.0172 L 73.305 5.5095 C 74.231 6.1297 74.906 6.9329 75.332 7.9191 L 75.839 7.6082 C 75.946 7.5369 75.93 7.4948 75.787 7.4786 Z M 79.096 5.0172 C 78.117 5.5678 77.397 6.4746 76.934 7.7377 L 77.441 7.945 C 77.868 6.8374 78.553 6.0439 79.496 5.5613 Z " fill="#990000" fill-rule="evenodd"/>
</g>
<path transform="matrix(.066484089,0,0,-.06650155,0,149.84226)" d="M 650.36 1031.53 C 650.36 1011.64 634.24 995.53 614.36 995.53 C 594.48 995.53 578.36 1011.64 578.36 1031.53 C 578.36 1051.41 594.48 1067.53 614.36 1067.53 C 634.24 1067.53 650.36 1051.41 650.36 1031.53 Z " fill-rule="evenodd"/>
<path transform="matrix(.066484089,0,0,-.06650155,0,149.84226)" d="M 638.36 1031.53 C 638.36 1018.27 627.61 1007.53 614.36 1007.53 C 601.1 1007.53 590.36 1018.27 590.36 1031.53 C 590.36 1044.78 601.1 1055.53 614.36 1055.53 C 627.61 1055.53 638.36 1044.78 638.36 1031.53 Z " fill="#ffe599" fill-rule="evenodd"/>
<clipPath id="cp10">
<path transform="matrix(1.3296871,0,0,-1.3300177,41.531946,83.510288)" d="M 0 0 L 6.0408 0 L 6.0408 9.4548 L 0 9.4548 Z " fill-rule="evenodd"/>
</clipPath>
<g clip-path="url(#cp10)">
<path transform="matrix(1.3296871,0,0,-1.3300177,41.531946,83.510288)" d="M 4.9151 5.9075 C 4.9151 5.7386 4.8792 5.577 4.8074 5.423 C 4.7357 5.2688 4.6321 5.1389 4.4964 5.0331 C 4.3408 4.9131 4.168 4.8286 3.9779 4.7797 C 3.788 4.7305 3.5959 4.7061 3.4017 4.7063 L 2.6982 4.7063 L 2.6982 3.2812 L 3.2804 3.2812 L 3.2804 2.8896 C 2.9004 2.9032 2.5416 2.9102 2.2037 2.9102 C 1.8602 2.9102 1.5004 2.9032 1.1243 2.8896 L 1.1243 3.2812 L 1.7065 3.2812 L 1.7065 6.7467 L 1.1243 6.7467 L 1.1243 7.1353 L 3.4017 7.1353 C 3.5959 7.1351 3.788 7.1101 3.9779 7.0601 C 4.168 7.01 4.3408 6.9241 4.4964 6.8026 C 4.6381 6.6926 4.7432 6.5599 4.812 6.405 C 4.8809 6.2498 4.9151 6.084 4.9151 5.9075 Z M 3.8566 5.9075 C 3.8566 5.9662 3.8557 6.0275 3.8537 6.0914 C 3.8516 6.1551 3.8476 6.2169 3.8415 6.2769 C 3.8354 6.3367 3.8259 6.3902 3.8126 6.4373 C 3.7996 6.4844 3.7808 6.5207 3.7565 6.5465 C 3.6899 6.6267 3.6025 6.6802 3.4943 6.7067 C 3.3861 6.7332 3.2744 6.7465 3.1592 6.7467 L 2.6678 6.7467 L 2.6678 5.0655 L 3.1592 5.0655 C 3.2744 5.0653 3.3861 5.0785 3.4943 5.105 C 3.6025 5.1315 3.6899 5.1869 3.7565 5.2716 C 3.7808 5.297 3.7996 5.3332 3.8126 5.3803 C 3.8259 5.4274 3.8354 5.4799 3.8415 5.5378 C 3.8476 5.5956 3.8516 5.6565 3.8537 5.7204 C 3.8557 5.7841 3.8566 5.8464 3.8566 5.9075 Z " fill-rule="evenodd"/>
</g>
<path transform="matrix(.066484089,0,0,-.06650155,0,149.84226)" d="M 2582.17 1035.57 C 2582.17 1015.69 2566.05 999.57 2546.17 999.57 C 2526.29 999.57 2510.17 1015.69 2510.17 1035.57 C 2510.17 1055.46 2526.29 1071.57 2546.17 1071.57 C 2566.05 1071.57 2582.17 1055.46 2582.17 1035.57 Z " fill-rule="evenodd"/>
<path transform="matrix(.066484089,0,0,-.06650155,0,149.84226)" d="M 2570.17 1035.57 C 2570.17 1022.32 2559.42 1011.57 2546.17 1011.57 C 2532.91 1011.57 2522.17 1022.32 2522.17 1035.57 C 2522.17 1048.83 2532.91 1059.57 2546.17 1059.57 C 2559.42 1059.57 2570.17 1048.83 2570.17 1035.57 Z " fill="#ffe599" fill-rule="evenodd"/>
<clipPath id="cp11">
<path transform="matrix(1.3296871,0,0,-1.3300177,169.9659,88.02707)" d="M 0 0 L 6.0408 0 L 6.0408 9.4548 L 0 9.4548 Z " fill-rule="evenodd"/>
</clipPath>
<g clip-path="url(#cp11)">
<path transform="matrix(1.3296871,0,0,-1.3300177,169.9659,88.02707)" d="M 4.9151 5.9075 C 4.9151 5.7386 4.8792 5.577 4.8074 5.423 C 4.7357 5.2688 4.6321 5.1389 4.4964 5.0331 C 4.3408 4.9131 4.168 4.8286 3.9779 4.7797 C 3.788 4.7305 3.5959 4.7061 3.4017 4.7063 L 2.6982 4.7063 L 2.6982 3.2812 L 3.2804 3.2812 L 3.2804 2.8896 C 2.9004 2.9032 2.5416 2.9102 2.2037 2.9102 C 1.8602 2.9102 1.5004 2.9032 1.1243 2.8896 L 1.1243 3.2812 L 1.7065 3.2812 L 1.7065 6.7467 L 1.1243 6.7467 L 1.1243 7.1353 L 3.4017 7.1353 C 3.5959 7.1351 3.788 7.1101 3.9779 7.0601 C 4.168 7.01 4.3408 6.9241 4.4964 6.8026 C 4.6381 6.6926 4.7432 6.5599 4.812 6.405 C 4.8809 6.2498 4.9151 6.084 4.9151 5.9075 Z M 3.8566 5.9075 C 3.8566 5.9662 3.8557 6.0275 3.8537 6.0914 C 3.8516 6.1551 3.8476 6.2169 3.8415 6.2769 C 3.8354 6.3367 3.8259 6.3902 3.8126 6.4373 C 3.7996 6.4844 3.7808 6.5207 3.7565 6.5465 C 3.6899 6.6267 3.6025 6.6802 3.4943 6.7067 C 3.3861 6.7332 3.2744 6.7465 3.1592 6.7467 L 2.6678 6.7467 L 2.6678 5.0655 L 3.1592 5.0655 C 3.2744 5.0653 3.3861 5.0785 3.4943 5.105 C 3.6025 5.1315 3.6899 5.1869 3.7565 5.2716 C 3.7808 5.297 3.7996 5.3332 3.8126 5.3803 C 3.8259 5.4274 3.8354 5.4799 3.8415 5.5378 C 3.8476 5.5956 3.8516 5.6565 3.8537 5.7204 C 3.8557 5.7841 3.8566 5.8464 3.8566 5.9075 Z " fill-rule="evenodd"/>
</g>
<path transform="matrix(.066484089,0,0,-.06650155,0,149.84226)" d="M 4944.02 1031.53 C 4944.02 1011.64 4927.9 995.53 4908.02 995.53 C 4888.14 995.53 4872.02 1011.64 4872.02 1031.53 C 4872.02 1051.41 4888.14 1067.53 4908.02 1067.53 C 4927.9 1067.53 4944.02 1051.41 4944.02 1031.53 Z " fill-rule="evenodd"/>
<path transform="matrix(.066484089,0,0,-.06650155,0,149.84226)" d="M 4932.02 1031.53 C 4932.02 1018.27 4921.27 1007.53 4908.02 1007.53 C 4894.76 1007.53 4884.02 1018.27 4884.02 1031.53 C 4884.02 1044.78 4894.76 1055.53 4908.02 1055.53 C 4921.27 1055.53 4932.02 1044.78 4932.02 1031.53 Z " fill="#ffe599" fill-rule="evenodd"/>
<clipPath id="cp12">
<path transform="matrix(1.3296871,0,0,-1.3300177,326.99134,83.510288)" d="M 0 0 L 6.0408 0 L 6.0408 9.4548 L 0 9.4548 Z " fill-rule="evenodd"/>
</clipPath>
<g clip-path="url(#cp12)">
<path transform="matrix(1.3296871,0,0,-1.3300177,326.99134,83.510288)" d="M 4.9151 5.9075 C 4.9151 5.7386 4.8792 5.577 4.8074 5.423 C 4.7357 5.2688 4.6321 5.1389 4.4964 5.0331 C 4.3408 4.9131 4.168 4.8286 3.9779 4.7797 C 3.788 4.7305 3.5959 4.7061 3.4017 4.7063 L 2.6982 4.7063 L 2.6982 3.2812 L 3.2804 3.2812 L 3.2804 2.8896 C 2.9004 2.9032 2.5416 2.9102 2.2037 2.9102 C 1.8602 2.9102 1.5004 2.9032 1.1243 2.8896 L 1.1243 3.2812 L 1.7065 3.2812 L 1.7065 6.7467 L 1.1243 6.7467 L 1.1243 7.1353 L 3.4017 7.1353 C 3.5959 7.1351 3.788 7.1101 3.9779 7.0601 C 4.168 7.01 4.3408 6.9241 4.4964 6.8026 C 4.6381 6.6926 4.7432 6.5599 4.812 6.405 C 4.8809 6.2498 4.9151 6.084 4.9151 5.9075 Z M 3.8566 5.9075 C 3.8566 5.9662 3.8557 6.0275 3.8537 6.0914 C 3.8516 6.1551 3.8476 6.2169 3.8415 6.2769 C 3.8354 6.3367 3.8259 6.3902 3.8126 6.4373 C 3.7996 6.4844 3.7808 6.5207 3.7565 6.5465 C 3.6899 6.6267 3.6025 6.6802 3.4943 6.7067 C 3.3861 6.7332 3.2744 6.7465 3.1592 6.7467 L 2.6678 6.7467 L 2.6678 5.0655 L 3.1592 5.0655 C 3.2744 5.0653 3.3861 5.0785 3.4943 5.105 C 3.6025 5.1315 3.6899 5.1869 3.7565 5.2716 C 3.7808 5.297 3.7996 5.3332 3.8126 5.3803 C 3.8259 5.4274 3.8354 5.4799 3.8415 5.5378 C 3.8476 5.5956 3.8516 5.6565 3.8537 5.7204 C 3.8557 5.7841 3.8566 5.8464 3.8566 5.9075 Z " fill-rule="evenodd"/>
</g>
</g>
</g>
</g>
</g>
</g>
</svg>
