<?xml version="1.0" encoding="UTF-8" standalone="no"?>
<!DOCTYPE svg PUBLIC "-//W3C//DTD SVG 1.1//EN" "http://www.w3.org/Graphics/SVG/1.1/DTD/svg11.dtd">
<svg xmlns="http://www.w3.org/2000/svg" xmlns:xlink="http://www.w3.org/1999/xlink" version="1.1" width="264pt" height="212.04pt" viewBox="0 0 264 212.04">
<g enable-background="new">
<g>
<g id="Layer-1" data-name="P">
<clipPath id="cp0">
<path transform="matrix(1,0,0,-1,0,212.04)" d="M .000003934 -.000015259 L 264 -.000015259 L 264 212.03998 L .000003934 212.03998 Z " fill-rule="evenodd"/>
</clipPath>
<g clip-path="url(#cp0)">
<text xml:space="preserve" transform="matrix(1 0 -0 1 0 212.04)" font-size="11.04" font-family="Calibri"><tspan y="-.14398" x="263.76"> </tspan></text>
</g>
</g>
<g id="Layer-1" data-name="P">
<clipPath id="cp1">
<path transform="matrix(1,0,0,-1,0,212.04)" d="M .000003934 .29002 L 263.69 .29002 L 263.69 212.04003 L .000003934 212.04003 Z " fill-rule="evenodd"/>
</clipPath>
<g clip-path="url(#cp1)">
<clipPath id="cp2">
<path transform="matrix(.13317222,0,0,-.13317731,0,211.74999)" d="M 0 0 L 1980.01 0 L 1980.01 1590.01 L 0 1590.01 Z " fill-rule="evenodd"/>
</clipPath>
<g clip-path="url(#cp2)">
<path transform="matrix(.13317222,0,0,-.13317731,0,211.74999)" d="M 190.55 257.32 L 1533.22 257.32 L 1533.22 246.07 L 190.55 246.07 C 187.45 246.07 184.93 248.58 184.93 251.69 C 184.93 254.8 187.45 257.32 190.55 257.32 Z M 1690.56 251.69 L 1533.06 296.69 L 1533.06 257.32 L 1533.06 246.07 L 1533.06 206.69 Z "/>
<path transform="matrix(.13317222,0,0,-.13317731,0,211.74999)" d="M 290.08 87.999 L 290.08 1430.66 L 301.33 1430.66 L 301.33 87.999 C 301.33 84.892 298.81 82.374 295.7 82.374 C 292.6 82.374 290.08 84.892 290.08 87.999 Z M 295.7 1588 L 250.7 1430.5 L 290.08 1430.5 L 301.33 1430.5 L 340.7 1430.5 Z "/>
<clipPath id="cp3">
<path transform="matrix(2.6634854,0,0,-2.6635197,11.140921,23.170914)" d="M 0 0 L 4.3153 0 L 4.3153 9.4548 L 0 9.4548 Z " fill-rule="evenodd"/>
</clipPath>
<g clip-path="url(#cp3)">
<path transform="matrix(2.6634854,0,0,-2.6635197,11.140921,23.170914)" d="M 3.1898 3.6581 C 3.1898 3.5598 3.1742 3.4636 3.1429 3.3693 C 3.1116 3.2751 3.068 3.1901 3.0124 3.1147 C 2.9568 3.039 2.8869 2.9772 2.803 2.9293 C 2.7191 2.8811 2.6227 2.8572 2.5135 2.8572 C 2.3943 2.8572 2.2704 2.8684 2.142 2.8911 C 2.0135 2.9135 1.8949 2.968 1.7855 3.0545 C 1.6865 3.1288 1.617 3.2201 1.5765 3.3281 C 1.536 3.436 1.5158 3.546 1.5158 3.6581 L 1.5158 5.2863 L 1.1245 5.2863 L 1.1245 5.6102 C 1.2863 5.61 1.4136 5.6418 1.5066 5.7057 C 1.5997 5.7693 1.6775 5.8558 1.7401 5.9648 C 1.8028 6.0737 1.8503 6.1988 1.8827 6.3402 C 1.9151 6.4815 1.9311 6.6434 1.9311 6.8262 L 2.3315 6.8262 L 2.3315 5.6749 L 3.0836 5.6749 L 3.0836 5.2863 L 2.3315 5.2863 L 2.3315 3.6581 C 2.3315 3.5834 2.3367 3.5151 2.3468 3.4533 C 2.3569 3.3914 2.3772 3.3379 2.4074 3.293 C 2.4377 3.2378 2.4883 3.2103 2.559 3.2105 C 2.6278 3.2103 2.6834 3.2505 2.7257 3.3311 C 2.7682 3.4115 2.7894 3.5204 2.7894 3.6581 L 2.7894 4.0644 L 3.1898 4.0644 L 3.1898 3.6581 Z " fill-rule="evenodd"/>
</g>
<clipPath id="cp4">
<path transform="matrix(2.663567,0,0,-2.6635197,202.29526,205.30048)" d="M 0 0 L 5.419 0 L 5.419 9.4548 L 0 9.4548 Z " fill-rule="evenodd"/>
</clipPath>
<g clip-path="url(#cp4)">
<path transform="matrix(2.663567,0,0,-2.6635197,202.29526,205.30048)" d="M 4.2941 2.8896 C 4.0374 2.9032 3.8039 2.9102 3.5936 2.9102 L 3.5877 2.9102 C 3.3389 2.9102 3.073 2.9032 2.7899 2.8896 L 2.7899 3.2812 L 3.0205 3.2812 L 2.5989 3.8789 L 2.1411 3.2724 C 2.1451 3.2781 2.1471 3.286 2.1471 3.2959 C 2.1471 3.3154 2.1431 3.3261 2.135 3.3283 C 2.1552 3.3184 2.1733 3.3095 2.1895 3.3018 C 2.2441 3.2878 2.3271 3.281 2.4383 3.2812 L 2.4383 2.8896 C 2.2016 2.9032 1.9823 2.9102 1.78 2.9102 L 1.7256 2.9102 C 1.5496 2.9102 1.3496 2.9032 1.1251 2.8896 L 1.1251 3.2812 C 1.2281 3.281 1.3111 3.2819 1.3737 3.284 C 1.4365 3.2858 1.4992 3.2908 1.5618 3.2989 C 1.5921 3.3066 1.6199 3.3128 1.6451 3.3178 C 1.6705 3.3226 1.6871 3.3301 1.6952 3.3401 L 2.3532 4.2175 L 1.6012 5.2863 L 1.1555 5.2863 L 1.1555 5.6779 C 1.301 5.6718 1.4263 5.6678 1.5314 5.6659 C 1.6367 5.6639 1.7429 5.663 1.85 5.6632 L 2.1107 5.6632 C 2.1935 5.663 2.2749 5.6639 2.3547 5.6659 C 2.4346 5.6678 2.5352 5.6718 2.6565 5.6779 L 2.6565 5.2863 L 2.4261 5.2863 L 2.7809 4.7858 L 3.169 5.301 C 3.165 5.2949 3.1629 5.2881 3.1629 5.2804 C 3.1629 5.2646 3.1681 5.2537 3.1782 5.248 C 3.16 5.2517 3.1398 5.2576 3.1175 5.2657 C 3.063 5.2793 2.982 5.2861 2.8749 5.2863 L 2.8749 5.6779 C 3.0124 5.6718 3.1307 5.6678 3.2297 5.6659 C 3.3287 5.6639 3.4279 5.663 3.5269 5.6632 L 3.5816 5.6632 C 3.6725 5.663 3.7625 5.6639 3.8514 5.6659 C 3.9404 5.6678 4.0516 5.6718 4.185 5.6779 L 4.185 5.2863 C 4.0819 5.2861 3.9986 5.285 3.9349 5.2832 C 3.8712 5.2811 3.8079 5.2764 3.7452 5.2686 C 3.7191 5.2646 3.6933 5.2605 3.6679 5.2567 C 3.6427 5.2526 3.627 5.2458 3.621 5.2362 L 3.0235 4.4472 L 3.8423 3.2812 L 4.2941 3.2812 L 4.2941 2.8896 Z " fill-rule="evenodd"/>
</g>
<path transform="matrix(.13317222,0,0,-.13317731,0,211.74999)" stroke-width="15" stroke-linecap="round" stroke-linejoin="round" fill="none" stroke="#e69138" d="M 303.15 263.67 L 604.81 786.16 "/>
<path transform="matrix(.13317222,0,0,-.13317731,0,211.74999)" stroke-width="15" stroke-linecap="round" stroke-linejoin="round" fill="none" stroke="#6aa84f" d="M 607.73 787.64 L 300.24 1320.22 "/>
<path transform="matrix(.13317222,0,0,-.13317731,0,211.74999)" d="M 640.81 787.64 C 640.81 767.76 624.7 751.64 604.81 751.64 C 584.93 751.64 568.81 767.76 568.81 787.64 C 568.81 807.52 584.93 823.64 604.81 823.64 C 624.7 823.64 640.81 807.52 640.81 787.64 Z " fill-rule="evenodd"/>
<path transform="matrix(.13317222,0,0,-.13317731,0,211.74999)" d="M 628.81 787.64 C 628.81 774.38 618.07 763.64 604.81 763.64 C 591.56 763.64 580.81 774.38 580.81 787.64 C 580.81 800.89 591.56 811.64 604.81 811.64 C 618.07 811.64 628.81 800.89 628.81 787.64 Z " fill="#ffe599" fill-rule="evenodd"/>
<path transform="matrix(.13317222,0,0,-.13317731,0,211.74999)" stroke-width="15" stroke-linecap="round" stroke-linejoin="round" fill="none" stroke="#0000ff" d="M 291.04 248.72 L 1625.77 1022.26 "/>
<path transform="matrix(.13317222,0,0,-.13317731,0,211.74999)" stroke-width="15" stroke-linecap="round" stroke-linejoin="round" fill="none" stroke="#0000ff" d="M 522.86 248.72 L 1625.77 885.83 "/>
<path transform="matrix(.13317222,0,0,-.13317731,0,211.74999)" stroke-width="15" stroke-linecap="round" stroke-linejoin="round" fill="none" stroke="#0000ff" d="M 759.22 248.72 L 1625.43 743.81 "/>
<path transform="matrix(.13317222,0,0,-.13317731,0,211.74999)" stroke-width="15" stroke-linecap="round" stroke-linejoin="round" fill="none" stroke="#0000ff" d="M 991.04 248.72 L 1590.07 601.22 "/>
<path transform="matrix(.13317222,0,0,-.13317731,0,211.74999)" stroke-width="15" stroke-linecap="round" stroke-linejoin="round" fill="none" stroke="#0000ff" d="M 399.65 437.04 L 1625.43 1148.72 "/>
<path transform="matrix(.13317222,0,0,-.13317731,0,211.74999)" stroke-width="15" stroke-linecap="round" stroke-linejoin="round" fill="none" stroke="#0000ff" d="M 502.86 601.22 L 1593.28 1231.31 "/>
<path transform="matrix(.13317222,0,0,-.13317731,0,211.74999)" stroke-width="15" stroke-linecap="round" stroke-linejoin="round" fill="none" stroke="#0000ff" d="M 605.35 773.72 L 1548.4 1317.1 "/>
<path transform="matrix(.13317222,0,0,-.13317731,0,211.74999)" stroke-width="15" stroke-linecap="round" stroke-linejoin="round" fill="none" stroke="#990000" d="M 605.35 781.94 L 1904.4 31.944 "/>
<path transform="matrix(.13317222,0,0,-.13317731,0,211.74999)" stroke-width="15" stroke-linecap="round" stroke-linejoin="round" fill="none" stroke="#990000" d="M 522.86 940.77 L 1821.89 190.77 "/>
<path transform="matrix(.13317222,0,0,-.13317731,0,211.74999)" stroke-width="15" stroke-linecap="round" stroke-linejoin="round" fill="none" stroke="#990000" d="M 424.02 1103.5 L 1723.06 353.5 "/>
<path transform="matrix(.13317222,0,0,-.13317731,0,211.74999)" stroke-width="15" stroke-linecap="round" stroke-linejoin="round" fill="none" stroke="#990000" d="M 341.52 1262.33 L 1640.56 512.33 "/>
<path transform="matrix(.13317222,0,0,-.13317731,0,211.74999)" stroke-width="15" stroke-linecap="round" stroke-linejoin="round" fill="none" stroke="#990000" d="M 49.055 1103.5 L 1073.54 512.33 "/>
<path transform="matrix(.13317222,0,0,-.13317731,0,211.74999)" stroke-width="15" stroke-linecap="round" stroke-linejoin="round" fill="none" stroke="#0000ff" d="M 81.45 468.2 L 1254.33 1148.72 "/>
<path transform="matrix(.13317222,0,0,-.13317731,0,211.74999)" stroke-width="15" stroke-linecap="round" stroke-linejoin="round" fill="none" stroke="#0000ff" d="M 78.325 251.69 L 1130.07 858.07 "/>
<path transform="matrix(.13317222,0,0,-.13317731,0,211.74999)" stroke-width="15" stroke-linecap="round" stroke-linejoin="round" fill="none" stroke="#0000ff" d="M 78.325 353.5 L 1233.28 1022.26 "/>
<path transform="matrix(.13317222,0,0,-.13317731,0,211.74999)" stroke-width="15" stroke-linecap="round" stroke-linejoin="round" fill="none" stroke="#990000" d="M 49.055 1213 L 1348.09 463 "/>
<path transform="matrix(.13317222,0,0,-.13317731,0,211.74999)" stroke-width="15" stroke-linecap="round" stroke-linejoin="round" fill="none" stroke="#990000" d="M 49.055 1320.22 L 1249.26 625.74 "/>
<path transform="matrix(.13317222,0,0,-.13317731,0,211.74999)" stroke-width="15" stroke-linecap="round" stroke-linejoin="round" fill="none" stroke="#990000" d="M 49.055 1430.67 L 1166.76 784.56 "/>
<path transform="matrix(.13317222,0,0,-.13317731,0,211.74999)" d="M 331.71 601.22 C 331.71 581.34 315.59 565.22 295.71 565.22 C 275.82 565.22 259.71 581.34 259.71 601.22 C 259.71 621.1 275.82 637.22 295.71 637.22 C 315.59 637.22 331.71 621.1 331.71 601.22 Z " fill-rule="evenodd"/>
<path transform="matrix(.13317222,0,0,-.13317731,0,211.74999)" d="M 319.71 601.22 C 319.71 587.96 308.96 577.22 295.71 577.22 C 282.45 577.22 271.71 587.96 271.71 601.22 C 271.71 614.47 282.45 625.22 295.71 625.22 C 308.96 625.22 319.71 614.47 319.71 601.22 Z " fill="#ffe599" fill-rule="evenodd"/>
<path transform="matrix(.13317222,0,0,-.13317731,0,211.74999)" d="M 336.24 954.98 C 336.24 935.1 320.13 918.98 300.24 918.98 C 280.36 918.98 264.24 935.1 264.24 954.98 C 264.24 974.86 280.36 990.98 300.24 990.98 C 320.13 990.98 336.24 974.86 336.24 954.98 Z " fill-rule="evenodd"/>
<path transform="matrix(.13317222,0,0,-.13317731,0,211.74999)" d="M 324.24 954.98 C 324.24 941.72 313.5 930.98 300.24 930.98 C 286.99 930.98 276.24 941.72 276.24 954.98 C 276.24 968.23 286.99 978.98 300.24 978.98 C 313.5 978.98 324.24 968.23 324.24 954.98 Z " fill="#ffe599" fill-rule="evenodd"/>
<clipPath id="cp5">
<path transform="matrix(2.663455,0,0,-2.6635197,57.923257,120.301128)" d="M 0 0 L 6.0408 0 L 6.0408 9.4548 L 0 9.4548 Z " fill-rule="evenodd"/>
</clipPath>
<g clip-path="url(#cp5)">
<path transform="matrix(2.663455,0,0,-2.6635197,57.923257,120.301128)" d="M 4.9151 5.9075 C 4.9151 5.7386 4.8792 5.577 4.8074 5.423 C 4.7357 5.2688 4.6321 5.1389 4.4964 5.0331 C 4.3408 4.9131 4.168 4.8286 3.9779 4.7797 C 3.788 4.7305 3.5959 4.7061 3.4017 4.7063 L 2.6982 4.7063 L 2.6982 3.2812 L 3.2804 3.2812 L 3.2804 2.8896 C 2.9004 2.9032 2.5416 2.9102 2.2037 2.9102 C 1.8602 2.9102 1.5004 2.9032 1.1243 2.8896 L 1.1243 3.2812 L 1.7065 3.2812 L 1.7065 6.7467 L 1.1243 6.7467 L 1.1243 7.1353 L 3.4017 7.1353 C 3.5959 7.1351 3.788 7.1101 3.9779 7.0601 C 4.168 7.01 4.3408 6.9241 4.4964 6.8026 C 4.6381 6.6926 4.7432 6.5599 4.812 6.405 C 4.8809 6.2498 4.9151 6.084 4.9151 5.9075 Z M 3.8566 5.9075 C 3.8566 5.9662 3.8557 6.0275 3.8537 6.0914 C 3.8516 6.1551 3.8476 6.2169 3.8415 6.2769 C 3.8354 6.3367 3.8259 6.3902 3.8126 6.4373 C 3.7996 6.4844 3.7808 6.5207 3.7565 6.5465 C 3.6899 6.6267 3.6025 6.6802 3.4943 6.7067 C 3.3861 6.7332 3.2744 6.7465 3.1592 6.7467 L 2.6678 6.7467 L 2.6678 5.0655 L 3.1592 5.0655 C 3.2744 5.0653 3.3861 5.0785 3.4943 5.105 C 3.6025 5.1315 3.6899 5.1869 3.7565 5.2716 C 3.7808 5.297 3.7996 5.3332 3.8126 5.3803 C 3.8259 5.4274 3.8354 5.4799 3.8415 5.5378 C 3.8476 5.5956 3.8516 5.6565 3.8537 5.7204 C 3.8557 5.7841 3.8566 5.8464 3.8566 5.9075 Z " fill-rule="evenodd"/>
</g>
<clipPath id="cp6">
<path transform="matrix(2.663426,0,0,-2.6635197,18.405734,143.2742)" d="M 0 0 L 6.5988 0 L 6.5988 9.4548 L 0 9.4548 Z " fill-rule="evenodd"/>
</clipPath>
<g clip-path="url(#cp6)">
<path transform="matrix(2.663426,0,0,-2.6635197,18.405734,143.2742)" d="M 5.4723 2.8896 C 5.1389 2.9032 4.8183 2.9102 4.511 2.9102 L 4.5049 2.9102 C 4.1652 2.9102 3.8084 2.9032 3.4343 2.8896 L 3.4343 3.2812 L 3.9256 3.2812 L 3.6649 3.9908 L 2.385 3.9908 L 2.1333 3.2989 L 2.1333 3.3018 C 2.1333 3.3193 2.1312 3.329 2.1272 3.3312 C 2.1618 3.3213 2.1951 3.3125 2.2273 3.3048 C 2.2819 3.2967 2.3375 3.2908 2.3942 3.2869 C 2.4509 3.2829 2.5247 3.281 2.6156 3.2812 L 2.6156 2.8896 C 2.3589 2.9032 2.1213 2.9102 1.9029 2.9102 L 1.8118 2.9102 C 1.6036 2.9102 1.3742 2.9032 1.1235 2.8896 L 1.1235 3.2812 L 1.3751 3.2812 C 1.4378 3.281 1.5035 3.2869 1.5724 3.2989 C 1.5987 3.3025 1.623 3.3075 1.645 3.3134 C 1.6673 3.3193 1.6784 3.3232 1.6784 3.3254 L 3.0309 7.0706 C 3.0471 7.1116 3.0745 7.1458 3.113 7.1734 C 3.1514 7.2008 3.196 7.2146 3.2464 7.2148 L 3.3585 7.2148 C 3.403 7.2146 3.4446 7.2008 3.4829 7.1734 C 3.5213 7.1458 3.5486 7.1116 3.5648 7.0706 L 4.9355 3.2812 L 5.4723 3.2812 L 5.4723 2.8896 Z M 3.028 5.7633 L 2.5276 4.3794 L 3.5283 4.3794 Z " fill-rule="evenodd"/>
</g>
<clipPath id="cp7">
<path transform="matrix(2.6633328,0,0,-2.6635197,18.918444,98.053859)" d="M 0 0 L 6.2136 0 L 6.2136 9.4548 L 0 9.4548 Z " fill-rule="evenodd"/>
</clipPath>
<g clip-path="url(#cp7)">
<path transform="matrix(2.6633328,0,0,-2.6635197,18.918444,98.053859)" d="M 5.0878 4.0732 C 5.0878 3.9082 5.0556 3.751 4.9908 3.6019 C 4.926 3.4527 4.8311 3.3222 4.7056 3.2105 C 4.5621 3.0946 4.402 3.0125 4.2249 2.9645 C 4.0481 2.9165 3.8687 2.8925 3.6867 2.8925 L 1.1242 2.8925 L 1.1242 3.2812 L 1.7064 3.2812 L 1.7064 6.7467 L 1.1242 6.7467 L 1.1242 7.1353 L 3.5139 7.1353 C 3.6959 7.1351 3.8747 7.1131 4.0507 7.0689 C 4.2266 7.0247 4.3854 6.9487 4.5267 6.8409 C 4.6541 6.7426 4.7507 6.6232 4.8164 6.483 C 4.8822 6.3426 4.915 6.195 4.915 6.04 C 4.915 5.8906 4.8811 5.7508 4.8134 5.6203 C 4.7457 5.4896 4.65 5.3794 4.5267 5.2892 C 4.3611 5.1772 4.2812 5.1221 4.2871 5.1243 C 4.2063 5.1339 4.2281 5.1168 4.3525 5.0726 C 4.4769 5.0285 4.5935 4.9643 4.7026 4.88 C 4.83 4.7817 4.926 4.6619 4.9908 4.5206 C 5.0556 4.3792 5.0878 4.23 5.0878 4.0732 Z M 3.9233 6.04 C 3.9233 6.1341 3.9169 6.2257 3.9036 6.3151 C 3.8904 6.4044 3.8585 6.4874 3.8079 6.5641 C 3.7757 6.6149 3.7329 6.6582 3.6791 6.6935 C 3.6256 6.7288 3.5705 6.7465 3.5139 6.7467 L 2.6284 6.7467 L 2.6284 5.2598 L 3.344 5.2598 C 3.427 5.2596 3.5039 5.2776 3.5746 5.3141 C 3.6453 5.3503 3.708 5.4019 3.7625 5.4688 C 3.8232 5.5472 3.8653 5.6354 3.8885 5.7336 C 3.9117 5.8317 3.9233 5.9339 3.9233 6.04 Z M 4.0597 4.0732 C 4.0597 4.1869 4.0521 4.2977 4.037 4.4057 C 4.022 4.5136 3.9861 4.6148 3.9294 4.7092 C 3.893 4.7758 3.8466 4.8301 3.7899 4.8724 C 3.7332 4.9146 3.6696 4.9357 3.5987 4.9359 L 2.6284 4.9359 L 2.6284 3.2812 L 3.5139 3.2812 C 3.5948 3.281 3.6696 3.3001 3.7384 3.3384 C 3.8072 3.3767 3.8637 3.4262 3.908 3.4873 C 3.9667 3.5734 4.0067 3.6667 4.0278 3.7668 C 4.0492 3.8669 4.0597 3.9691 4.0597 4.0732 Z " fill-rule="evenodd"/>
</g>
</g>
</g>
</g>
</g>
</g>
</svg>
