<?xml version="1.0" encoding="utf-8"?>
<!-- Generator: Adobe Illustrator 19.0.0, SVG Export Plug-In . SVG Version: 6.00 Build 0)  -->
<svg version="1.1" id="Layer_1" xmlns="http://www.w3.org/2000/svg" xmlns:xlink="http://www.w3.org/1999/xlink" x="0px" y="0px"
	 viewBox="0 0 138 128.0833282" style="enable-background:new 0 0 138 128.0833282;" xml:space="preserve">
<style type="text/css">
	.st0{fill:none;stroke:#939598;stroke-miterlimit:10;}
	.st1{fill:none;stroke:#000000;stroke-miterlimit:10;}
	.st2{fill:#F15A29;}
	.st3{fill:#010101;}
</style>
<line id="XMLID_7_" class="st0" x1="90.5427704" y1="77.1809387" x2="6.5489864" y2="77.1809387"/>
<line id="XMLID_6_" class="st0" x1="48.9520378" y1="68.5607071" x2="126.9346695" y2="68.5607071"/>
<path id="XMLID_1_" class="st1" d="M-50.27174,93.1594238"/>
<g id="XMLID_2_">
	<g id="XMLID_48_">
		<g id="XMLID_49_">
			<path id="XMLID_50_" class="st2" d="M104.1474915,29.8277645l1.449585,1.3872452l4.6998138-8.5664749l-8.3548737,5.0686264
				l1.449707,1.3873596c0,0-1.3629913,1.4242477-3.407486,3.5606289c-4.1886597,4.3769226-9.0754395,9.4833298-14.311264,14.9544754
				c-2.6473083,2.7045822-5.2446289,5.661377-8.1864319,8.2514191c-2.9477692,2.6068344-6.2935791,4.8471909-9.8420715,6.6812439
				c-7.0914001,3.7182274-15.116272,5.4746971-22.6005249,5.4854698c-7.5728149,0-14.6407623,0-20.6990204,0
				c-12.1164856,0-20.1941528,0-20.1941528,0v1.0460739c0,0,8.0776672,0,20.1941528,0c6.0582581,0,13.1262054,0,20.6990204,0
				c7.6416016-0.0101089,15.8378601-1.8051834,23.0795593-5.6016045c3.6239014-1.8728561,7.0403442-4.1613922,10.0510406-6.823204
				c1.5105133-1.3144455,2.9345245-2.742836,4.2673187-4.1500931c1.3471222-1.4076843,2.6779022-2.7982635,3.9868622-4.1660538
				c5.2358246-5.4711533,10.1226044-10.5775604,14.3112793-14.9544754
				C102.7844849,31.2520199,104.1474915,29.8277645,104.1474915,29.8277645z"/>
		</g>
	</g>
</g>
<g id="XMLID_3_">
	<g id="XMLID_55_">
		<g id="XMLID_56_">
			<path id="XMLID_57_" class="st2" d="M34.0881042,115.913887l-1.449585-1.3872528l-4.6998138,8.5664825l8.3548737-5.0686188
				l-1.449707-1.3873596c0,0,1.3629913-1.4242554,3.407486-3.5606384c4.1886597-4.3769226,9.0754395-9.4833221,14.311264-14.954483
				c2.6473083-2.7045746,5.2446289-5.6613617,8.1864319-8.2514038c2.9477692-2.606842,6.2935791-4.8471985,9.8420715-6.6812592
				c7.0914154-3.7182159,15.116272-5.4746857,22.6005402-5.4854584c7.5727997,0,14.6407623,0,20.6990051,0
				c12.1164856,0,20.1941376,0,20.1941376,0v-1.0460663c0,0-8.077652,0-20.1941376,0c-6.0582428,0-13.1262054,0-20.6990051,0
				c-7.6416168,0.0101013-15.8378754,1.8051758-23.0795746,5.601593c-3.6239014,1.8728638-7.0403442,4.1613922-10.0510406,6.8231964
				c-1.5105133,1.3144531-2.9345245,2.7428436-4.2673035,4.1501007c-1.3471375,1.4076843-2.6779175,2.7982635-3.9868774,4.1660614
				c-5.2358246,5.4711456-10.1226044,10.5775452-14.311264,14.9544678
				C35.4511108,114.4896317,34.0881042,115.913887,34.0881042,115.913887z"/>
		</g>
	</g>
</g>
<g id="XMLID_4_">
	<g id="XMLID_30_">
		<g id="XMLID_31_">
			<polygon id="XMLID_32_" points="126.1067505,73.6424637 126.1067505,75.6488876 135.5452576,73.1215286 126.1067505,70.5897903 
				126.1067505,72.5963974 2,72.5963974 2,73.6424637 			"/>
		</g>
	</g>
</g>
<g id="XMLID_5_">
	<g id="XMLID_84_">
		<g id="XMLID_85_">
			<polygon id="XMLID_86_" points="69.2957458,11.2265749 71.3021698,11.2265749 68.7747955,1.7880834 66.2430725,11.2265749 
				68.2496643,11.2265749 68.2496643,126.5833359 69.2957458,126.5833359 			"/>
		</g>
	</g>
</g>
<line id="XMLID_8_" class="st0" x1="68.7726288" y1="68.5607071" x2="104.2871552" y2="31.1986847"/>
<line id="XMLID_9_" class="st0" x1="33.1287613" y1="114.6790237" x2="68.7726212" y2="77.1809387"/>
<path id="XMLID_24_" class="st0" d="M73.9938507,63.0678673c2.2521057,2.0907478,2.2521057,3.2087059,2.2521057,5.4928398"/>
<path id="XMLID_10_" class="st0" d="M63.483223,82.6737823c-2.2521057-2.0907516-2.2521057-3.2087021-2.2521057-5.4928436"/>
<g id="XMLID_16_">
	<g id="XMLID_17_">
		<path id="XMLID_113_" class="st3" d="M132.8486328,63.3806953c0.1860352,0.1982422,0.3261719,0.3964844,0.4213867,0.5952148
			c0.0678711,0.1372108,0.1801758,0.4980507,0.3354492,1.0815468l0.5009766-0.7553711
			c0.1328125-0.1831055,0.2944336-0.357914,0.4838867-0.5239296c0.1899414-0.1660156,0.3569336-0.2792969,0.5009766-0.340332
			c0.0913086-0.0380859,0.1918945-0.0571289,0.3017578-0.0571289c0.1630859,0,0.293457,0.0439453,0.3901367,0.1313477
			c0.0966797,0.0878906,0.1450195,0.1948242,0.1450195,0.3208008c0,0.1450195-0.0283203,0.2441444-0.0854492,0.2973671
			c-0.105957,0.0957031-0.2275391,0.1430664-0.3642578,0.1430664c-0.0795898,0-0.1650391-0.0170898-0.2563477-0.0512695
			c-0.1782227-0.0610352-0.2978516-0.0917969-0.3583984-0.0917969c-0.0913086,0-0.1992188,0.0537109-0.324707,0.1601563
			c-0.2353516,0.1987305-0.5161133,0.5820313-0.8422852,1.1508789l0.4667969,1.96875
			c0.0722656,0.3012695,0.1328125,0.4819336,0.1821289,0.5410156s0.0986328,0.0883789,0.1479492,0.0883789
			c0.0795898,0,0.1728516-0.043457,0.2788086-0.1313477c0.2089844-0.1757813,0.387207-0.4047852,0.5351563-0.6870117
			l0.1992188,0.1030273c-0.2387695,0.4501953-0.5424805,0.8242188-0.9106445,1.1220703
			c-0.2089844,0.1674805-0.3852539,0.2514648-0.5292969,0.2514648c-0.2128906,0-0.3813477-0.1201172-0.5068359-0.3603516
			c-0.0795898-0.1489258-0.2446289-0.7900391-0.4951172-1.9233398c-0.5922852,1.0341797-1.0664063,1.7001953-1.4233398,1.9975586
			c-0.2314453,0.190918-0.4555664,0.2861328-0.671875,0.2861328c-0.1513672,0-0.2900391-0.0551758-0.4155273-0.1660156
			c-0.0908203-0.0834961-0.1362305-0.1962891-0.1362305-0.3374023c0-0.1259766,0.0415039-0.230957,0.125-0.3149414
			s0.1860352-0.1259766,0.3076172-0.1259766c0.1210938,0,0.2504883,0.0610352,0.3867188,0.1831055
			c0.0986328,0.0878906,0.1748047,0.1318359,0.2280273,0.1318359c0.0454102,0,0.1040039-0.0307617,0.1762695-0.0917969
			c0.1782227-0.1450195,0.4213867-0.4575195,0.7285156-0.9384766c0.3076172-0.480957,0.5087891-0.828125,0.6035156-1.0415039
			c-0.2353516-0.9272461-0.3623047-1.4174805-0.3813477-1.4711914c-0.0874023-0.2480469-0.2011719-0.4233398-0.3413086-0.526371
			c-0.140625-0.1030273-0.3476563-0.1547852-0.6206055-0.1547852c-0.0874023,0-0.1879883,0.0039063-0.3017578,0.0117188v-0.2060547
			L132.8486328,63.3806953z"/>
	</g>
</g>
<g id="XMLID_12_">
	<g id="XMLID_13_">
		<path id="XMLID_111_" class="st3" d="M75.8681641,3.0027668c0.1303711,0.2192383,0.2202148,0.4243164,0.2695313,0.6152344
			c0.0498047,0.190918,0.0996094,0.5659182,0.1494141,1.1254885l0.2524414,2.7895508
			c0.2290039-0.2719727,0.5620117-0.703125,0.9975586-1.2924805c0.2104492-0.2875977,0.4702148-0.6787109,0.7797852-1.1738281
			c0.1875-0.3022461,0.3022461-0.5141602,0.3442383-0.6352539c0.0229492-0.0600586,0.034668-0.1225586,0.034668-0.1870117
			c0-0.0415039-0.0136719-0.0756836-0.0405273-0.1020508c-0.0263672-0.0263672-0.0961914-0.0576172-0.2089844-0.0932617
			c-0.112793-0.0361328-0.206543-0.102051-0.28125-0.1987307c-0.0742188-0.0961914-0.1118164-0.2070313-0.1118164-0.331543
			c0-0.1552734,0.0458984-0.2797852,0.1376953-0.3745117c0.0917969-0.0942383,0.206543-0.1416016,0.3442383-0.1416016
			c0.1679688,0,0.3115234,0.0688477,0.4301758,0.2070313c0.1181641,0.1381836,0.1777344,0.328125,0.1777344,0.5698242
			c0,0.2988284-0.1035156,0.6396487-0.3100586,1.0234377c-0.2060547,0.3837891-0.6040039,0.972168-1.1923828,1.7661133
			c-0.5888672,0.7939453-1.3017578,1.6591792-2.1391602,2.5966792c-0.5776367,0.6464844-1.0058594,1.0537109-1.284668,1.222168
			C73.9379883,10.5559893,73.6987305,10.6404619,73.5,10.6404619c-0.1186523,0-0.2226563-0.0449219-0.3125-0.1333008
			c-0.0898438-0.0888672-0.1347656-0.1918945-0.1347656-0.309082c0-0.1474609,0.0620117-0.2817383,0.1865234-0.402832
			c0.1240234-0.1210938,0.2587891-0.1811523,0.4042969-0.1811523c0.0761719,0,0.1391602,0.0170898,0.1889648,0.0507813
			c0.0307617,0.019043,0.0639648,0.0727539,0.1005859,0.1616211c0.0361328,0.0888672,0.0693359,0.1484375,0.1000977,0.1787109
			c0.019043,0.019043,0.0419922,0.0283203,0.0688477,0.0283203c0.0229492,0,0.0629883-0.019043,0.1206055-0.0566406
			c0.2099609-0.128418,0.4545898-0.3325195,0.7338867-0.6123047c0.3671875-0.3706055,0.6386719-0.6728516,0.8144531-0.9072266
			L75.449707,4.8626304c-0.0537109-0.5932617-0.1337891-0.9545901-0.2407227-1.0830081s-0.2866211-0.1928711-0.5390625-0.1928711
			c-0.0805664,0-0.2236328,0.0112305-0.4301758,0.0341797L74.1879883,3.41097L75.8681641,3.0027668z"/>
	</g>
</g>
<g id="XMLID_14_">
	<g id="XMLID_15_">
		<path id="XMLID_107_" d="M85.6464844,62.0989571c0.4980469-1.4980469,1.1855469-2.6518555,2.0625-3.4619141
			c0.6621094-0.6088867,1.3125-0.9125977,1.9541016-0.9125977c0.6220703,0,1.0561523,0.2929688,1.3017578,0.878418
			c0.3432617,0.8173828,0.2807617,1.9301758-0.1875,3.3369141c-0.4453125,1.3378906-1.0986328,2.3950233-1.9599609,3.1709023
			c-0.6708984,0.6010742-1.3251953,0.9013672-1.9619141,0.9013672c-0.3457031,0-0.6337891-0.0830078-0.8623047-0.2509766
			c-0.2290039-0.1674805-0.4008789-0.4086914-0.515625-0.7246094c-0.1157227-0.3149414-0.1733398-0.6494141-0.1728516-1.003418
			C85.3061523,63.4241524,85.4199219,62.7801094,85.6464844,62.0989571z M86.7431641,62.0701485
			c-0.2099609,0.6777344-0.3618164,1.2861328-0.453125,1.8256836c-0.0722656,0.4106483-0.0800781,0.7680702-0.0209961,1.0722694
			c0.0336914,0.1821289,0.1206055,0.3378906,0.2602539,0.4648438c0.1401367,0.1279297,0.3144531,0.190918,0.5234375,0.190918
			c0.2421875,0,0.5107422-0.1137695,0.8051758-0.3417969c0.293457-0.2280273,0.5805664-0.5947266,0.8613281-1.1010742
			C89,63.6751289,89.3012695,62.9720039,89.6240234,62.0701485H86.7431641z M89.7607422,61.6941719
			c0.3261719-0.9926758,0.4951172-1.7885742,0.5097656-2.3896484c0.0083008-0.4599609-0.0737305-0.7885742-0.2470703-0.9868164
			c-0.1264648-0.1445313-0.3027344-0.2167969-0.53125-0.2167969c-0.2578125,0-0.5288086,0.1005859-0.8115234,0.3027344
			c-0.2841797,0.2011719-0.5595703,0.5375977-0.8291016,1.0092773c-0.2685547,0.4716797-0.5966797,1.2324219-0.9833984,2.28125
			H89.7607422z"/>
	</g>
</g>
<g id="XMLID_18_">
	<g id="XMLID_36_">
		<path id="XMLID_103_" d="M50.2890625,85.7400742c0.4985352-1.4985352,1.1860352-2.6518555,2.0625-3.4619141
			c0.6621094-0.6088867,1.3125-0.9125977,1.9541016-0.9125977c0.6220703,0,1.0561523,0.2929688,1.3017578,0.878418
			c0.3432617,0.8173828,0.2807617,1.9301758-0.1875,3.3369141c-0.4448242,1.3378906-1.0986328,2.3950195-1.9599609,3.1708984
			c-0.6708984,0.6010742-1.3251953,0.9013672-1.9619141,0.9013672c-0.3457031,0-0.6337891-0.0834961-0.8618164-0.2509766
			c-0.2294922-0.1679688-0.4013672-0.4086914-0.5161133-0.7246094c-0.1157227-0.3149414-0.1733398-0.6494141-0.1728516-1.003418
			C49.9487305,87.0652695,50.0625,86.4212265,50.2890625,85.7400742z M51.3857422,85.7112656
			c-0.2099609,0.6772461-0.3618164,1.2861328-0.453125,1.8256836c-0.0722656,0.4101563-0.0800781,0.7680664-0.0205078,1.0717773
			c0.0336914,0.1826172,0.1206055,0.3383789,0.2597656,0.465332c0.1401367,0.1279297,0.3144531,0.190918,0.5234375,0.190918
			c0.2421875,0,0.5107422-0.1137695,0.8051758-0.3417969c0.293457-0.2280273,0.5805664-0.5952148,0.8618164-1.1010742
			c0.2802734-0.5058594,0.581543-1.2089844,0.9042969-2.1108398H51.3857422z M54.4033203,85.335289
			c0.3261719-0.9926758,0.4951172-1.7885742,0.5097656-2.3896484c0.0087891-0.4599609-0.0732422-0.7885742-0.2470703-0.9873047
			c-0.1264648-0.1445313-0.3027344-0.2167969-0.53125-0.2167969c-0.2578125,0-0.5283203,0.1010742-0.8115234,0.3032227
			c-0.2836914,0.2011719-0.5595703,0.5375977-0.8291016,1.0092773c-0.2680664,0.4711914-0.5966797,1.2324219-0.9833984,2.28125
			H54.4033203z"/>
	</g>
</g>
<g id="XMLID_37_">
	<g id="XMLID_39_">
		<path id="XMLID_101_" class="st2" d="M12.4560547,62.0418282l1.0957031-0.5317383h0.1098633v3.7836952
			c0,0.2509766,0.0102539,0.4072266,0.0317383,0.4692383c0.0209961,0.0615234,0.0644531,0.1088867,0.1308594,0.1420898
			c0.0664063,0.0327148,0.2016602,0.0517578,0.4052734,0.0561523v0.1220703h-1.6938477v-0.1220703
			c0.2128906-0.0043945,0.3500977-0.0229492,0.4121094-0.0546875s0.1049805-0.074707,0.1293945-0.1289063
			s0.0366211-0.215332,0.0366211-0.4838867V62.874836c0-0.3261719-0.0112305-0.5356445-0.0332031-0.6279297
			c-0.015625-0.0703125-0.0439453-0.1225586-0.0849609-0.1552734c-0.0410156-0.0332031-0.0898438-0.0498047-0.1474609-0.0498047
			c-0.0820313,0-0.1962891,0.0341797-0.3422852,0.1025391L12.4560547,62.0418282z"/>
	</g>
	<g id="XMLID_38_">
		<path id="XMLID_99_" class="st2" d="M6.7006836,57.8953438l-0.746582,2.5776367
			c0.3330078-0.6054688,0.6162109-1.0610352,0.8500977-1.3657227c0.3637695-0.4726563,0.7177734-0.8154297,1.0625-1.0288086
			c0.203125-0.1220703,0.4155273-0.1831055,0.6376953-0.1831055c0.1914063,0,0.3500977,0.0610352,0.4765625,0.1831055
			c0.1264648,0.121582,0.1894531,0.277832,0.1894531,0.4682617c0,0.1870117-0.0439453,0.4306641-0.1318359,0.7319336
			l-0.4077148,1.4516602c0.6240234-1.1621094,1.2158203-1.9775391,1.7749023-2.4462891
			c0.3100586-0.2592773,0.6162109-0.3886719,0.9189453-0.3886719c0.1757813,0,0.3208008,0.0600586,0.4335938,0.1801758
			s0.1694336,0.3056641,0.1694336,0.5571289c0,0.2211914-0.034668,0.4555664-0.1035156,0.703125l-0.6318359,2.2236328
			c-0.1376953,0.4838867-0.206543,0.7524414-0.206543,0.8056641c0,0.0537109,0.0170898,0.0991211,0.0517578,0.137207
			c0.0229492,0.0268555,0.0532227,0.0400391,0.0917969,0.0400391c0.0380859,0,0.1049805-0.0361328,0.2011719-0.1083984
			c0.2182617-0.1679688,0.4228516-0.3886719,0.6142578-0.6630859l0.1899414,0.1201172
			c-0.0961914,0.1523438-0.265625,0.3618164-0.5087891,0.628418c-0.2431641,0.2670898-0.4506836,0.4477539-0.6230469,0.5429688
			s-0.3310547,0.1430664-0.4765625,0.1430664c-0.1342773,0-0.2460938-0.0458984-0.3364258-0.137207
			c-0.0898438-0.0913086-0.1347656-0.2036133-0.1347656-0.3374023c0-0.1826172,0.0786133-0.550293,0.2353516-1.1030273
			l0.5229492-1.8349609c0.1186523-0.4228516,0.1816406-0.6572266,0.1894531-0.7026367
			c0.0117188-0.0727539,0.0170898-0.1430664,0.0170898-0.2119141c0-0.0952148-0.0209961-0.1694336-0.0629883-0.2226563
			c-0.0458984-0.0532227-0.0976563-0.0800781-0.1552734-0.0800781c-0.1606445,0-0.3310547,0.0820313-0.5112305,0.2456055
			C9.762207,59.3055,9.2680664,59.9837227,8.8085938,60.8562813c-0.3022461,0.5751953-0.5859375,1.3125-0.8500977,2.2119141
			H7.0913086l0.9824219-3.4580078c0.1069336-0.3735352,0.1606445-0.6230469,0.1606445-0.7490234
			c0-0.1025391-0.0209961-0.1787109-0.0629883-0.2285156c-0.0424805-0.0493164-0.0942383-0.0742188-0.1552734-0.0742188
			c-0.1264648,0-0.2602539,0.0458984-0.4023438,0.137207c-0.2294922,0.1484375-0.5253906,0.4667969-0.887207,0.9545898
			s-0.6425781,0.9545898-0.8413086,1.4003906c-0.0957031,0.2094727-0.3237305,0.8823242-0.6835938,2.0175781H4.3515625
			l1.0625-3.7041016l0.1376953-0.4799805c0.0268555-0.0722656,0.0405273-0.1254883,0.0405273-0.1601563
			c0-0.0834961-0.0385742-0.1586914-0.1152344-0.2255859c-0.0766602-0.0664063-0.1743164-0.1000977-0.2929688-0.1000977
			c-0.0498047,0-0.1875,0.0229492-0.4135742,0.0688477l-0.0512695-0.2119141L6.7006836,57.8953438z"/>
	</g>
</g>
<g id="XMLID_40_">
	<g id="XMLID_42_">
		<path id="XMLID_97_" class="st2" d="M134.081543,88.5921249l-0.3120117,0.8623047h-2.6235352v-0.1220703
			c0.7714844-0.7094727,1.3149414-1.2890625,1.6298828-1.7382813c0.3149414-0.449707,0.472168-0.8603516,0.472168-1.2324219
			c0-0.2841797-0.0864258-0.5180664-0.2587891-0.7006836c-0.1728516-0.1831055-0.3793945-0.2744141-0.6201172-0.2744141
			c-0.21875,0-0.4150391,0.0644531-0.5888672,0.1933594s-0.3022461,0.3178711-0.3852539,0.5668945h-0.1210938
			c0.0541992-0.4077148,0.1948242-0.7207031,0.4213867-0.9384766c0.2260742-0.2182617,0.5087891-0.3271484,0.8476563-0.3271484
			c0.3608398,0,0.6621094,0.1166992,0.9038086,0.3500977s0.3623047,0.5087891,0.3623047,0.8261719
			c0,0.2270508-0.0522461,0.4536133-0.1572266,0.6806641c-0.1621094,0.3569336-0.4243164,0.7348633-0.7875977,1.1333008
			c-0.5444336,0.5996094-0.8842773,0.9604492-1.0200195,1.0839844h1.1611328c0.2363281,0,0.4018555-0.0087891,0.4970703-0.0263672
			s0.1806641-0.0532227,0.2573242-0.1074219c0.0766602-0.0537109,0.1435547-0.1303711,0.2001953-0.2294922H134.081543z"/>
	</g>
	<g id="XMLID_41_">
		<path id="XMLID_95_" class="st2" d="M125.387207,81.2669296l-0.737793,2.5776367
			c0.3291016-0.6054688,0.609375-1.0610352,0.8398438-1.3657227c0.359375-0.4726563,0.7089844-0.8154297,1.0498047-1.0288086
			c0.2001953-0.1220703,0.4101563-0.1831055,0.6293945-0.1831055c0.1894531,0,0.3461914,0.0610352,0.4711914,0.1831055
			c0.1245117,0.121582,0.1870117,0.277832,0.1870117,0.4682617c0,0.1870117-0.043457,0.4306641-0.1303711,0.7319336
			l-0.402832,1.4516602c0.6162109-1.1621094,1.2006836-1.9775391,1.7529297-2.4462891
			c0.3066406-0.2592773,0.6088867-0.3886719,0.9077148-0.3886719c0.1743164,0,0.3168945,0.0600586,0.4287109,0.1801758
			c0.1113281,0.1201172,0.1669922,0.3056641,0.1669922,0.5571289c0,0.2211914-0.0336914,0.4555664-0.1020508,0.703125
			l-0.6240234,2.2236328c-0.1362305,0.4838867-0.2041016,0.7524414-0.2041016,0.8056641
			c0,0.0537109,0.0170898,0.0991211,0.0507813,0.137207c0.0229492,0.0268555,0.0532227,0.0400391,0.0908203,0.0400391
			c0.0380859,0,0.1040039-0.0361328,0.1987305-0.1083984c0.2158203-0.1679688,0.4179688-0.3886719,0.6069336-0.6630859
			l0.1875,0.1201172c-0.0947266,0.1523438-0.262207,0.3618164-0.5024414,0.628418
			c-0.2402344,0.2670898-0.4453125,0.4477539-0.6152344,0.5429688c-0.1704102,0.0952148-0.3271484,0.1430664-0.4711914,0.1430664
			c-0.1323242,0-0.2426758-0.0458984-0.331543-0.137207s-0.1333008-0.2036133-0.1333008-0.3374023
			c0-0.1826172,0.0771484-0.550293,0.2324219-1.1030273l0.5161133-1.8349609
			c0.1171875-0.4228516,0.1796875-0.6572266,0.1875-0.7026367c0.0112305-0.0727539,0.0170898-0.1430664,0.0170898-0.2119141
			c0-0.0952148-0.0209961-0.1694336-0.0625-0.2226563c-0.0454102-0.0532227-0.0966797-0.0800781-0.1533203-0.0800781
			c-0.1586914,0-0.3271484,0.0820313-0.5048828,0.2456055c-0.5219727,0.484375-1.0097656,1.1625977-1.4638672,2.0351563
			c-0.2988281,0.5751953-0.5786133,1.3125-0.8393555,2.2119141h-0.8569336l0.9702148-3.4580078
			c0.105957-0.3735352,0.1586914-0.6230469,0.1586914-0.7490234c0-0.1025391-0.0205078-0.1787109-0.0625-0.2285156
			c-0.0415039-0.0493164-0.0922852-0.0742188-0.152832-0.0742188c-0.125,0-0.2573242,0.0458984-0.3974609,0.137207
			c-0.2265625,0.1484375-0.519043,0.4667969-0.8764648,0.9545898s-0.6342773,0.9545898-0.8310547,1.4003906
			c-0.0947266,0.2094727-0.3198242,0.8823242-0.675293,2.0175781h-0.8393555l1.0493164-3.7041016l0.1362305-0.4799805
			c0.0263672-0.0722656,0.0395508-0.1254883,0.0395508-0.1601563c0-0.0834961-0.0375977-0.1586914-0.1132813-0.2255859
			c-0.0756836-0.0664063-0.1723633-0.1000977-0.2895508-0.1000977c-0.0488281,0-0.1850586,0.0229492-0.4082031,0.0688477
			l-0.0512695-0.2119141L125.387207,81.2669296z"/>
	</g>
</g>
<g id="XMLID_94_">
</g>
<g id="XMLID_115_">
</g>
<g id="XMLID_116_">
</g>
<g id="XMLID_117_">
</g>
<g id="XMLID_118_">
</g>
<g id="XMLID_119_">
</g>
</svg>
