<?xml version="1.0" encoding="utf-8"?>
<!-- Generator: Adobe Illustrator 19.0.0, SVG Export Plug-In . SVG Version: 6.00 Build 0)  -->
<svg version="1.1" id="Layer_1" xmlns="http://www.w3.org/2000/svg" xmlns:xlink="http://www.w3.org/1999/xlink" x="0px" y="0px"
	 viewBox="0 0 231.25 31.25" style="enable-background:new 0 0 231.25 31.25;" xml:space="preserve">
<style type="text/css">
	.st0{fill:none;stroke:#939598;stroke-miterlimit:10;}
	.st1{fill:#010101;}
	.st2{fill:none;stroke:#000000;stroke-miterlimit:10;}
	.st3{fill:#939598;}
</style>
<polyline id="XMLID_9_" class="st0" points="168.7246246,12.8888893 160.0769653,12.8888893 157.1186371,22.2777786 
	152.5703888,3.5 148.1186371,22.2777786 143.5703888,3.5 141.0996246,12.8888893 132.4519653,12.8888893 "/>
<polyline id="XMLID_10_" class="st0" points="59.8333321,12.8888893 51.1856728,12.8888893 48.2273407,22.2777786 43.6790924,3.5 
	39.2273407,22.2777786 34.6790924,3.5 32.2083321,12.8888893 23.5606728,12.8888893 "/>
<g id="XMLID_6_">
	<g id="XMLID_8_">
		<path id="XMLID_50_" class="st1" d="M99.8374023,26.5258789l-0.6767578,2.3764648
			c-0.0458984,0.1601563-0.0683594,0.2568359-0.0683594,0.2880859c0,0.0361328,0.0107422,0.0654297,0.0322266,0.0878906
			S99.1713867,29.3125,99.2016602,29.3125c0.0341797,0,0.0751953-0.0185547,0.1230469-0.0546875
			c0.1298828-0.1015625,0.2607422-0.2460938,0.3935547-0.4335938l0.1191406,0.078125
			c-0.1552734,0.2353516-0.3369141,0.4326172-0.546875,0.5927734c-0.1552734,0.1201172-0.3037109,0.1796875-0.4453125,0.1796875
			c-0.09375,0-0.1699219-0.0273438-0.2294922-0.0830078c-0.0585938-0.0546875-0.0888672-0.125-0.0888672-0.2080078
			c0-0.0839844,0.0292969-0.2226563,0.0859375-0.4169922l0.4443359-1.5180664
			c0.0732422-0.2490234,0.1103516-0.4052734,0.1103516-0.4677734c0-0.0498047-0.0185547-0.0908203-0.0537109-0.1220703
			c-0.0351563-0.0322266-0.0839844-0.0478516-0.1455078-0.0478516c-0.0498047,0-0.1533203,0.0126953-0.3115234,0.0371094v-0.1318359
			L99.8374023,26.5258789z M99.793457,25.1801758c0.0957031,0,0.1767578,0.0332031,0.2431641,0.0986328
			c0.0654297,0.0654297,0.0986328,0.1455078,0.0986328,0.2402344c0,0.0927734-0.0332031,0.1728516-0.1005859,0.2392578
			s-0.1474609,0.1005859-0.2412109,0.1005859s-0.1738281-0.0341797-0.2412109-0.1005859s-0.1015625-0.1464844-0.1015625-0.2392578
			c0-0.0947266,0.0332031-0.1748047,0.0996094-0.2402344S99.6977539,25.1801758,99.793457,25.1801758z"/>
	</g>
	<g id="XMLID_7_">
		<path id="XMLID_48_" class="st1" d="M95.2802734,21.1938477c0.1933594,0.203125,0.3393555,0.4067383,0.4379883,0.6098633
			c0.0712891,0.140625,0.1875,0.5102539,0.3491211,1.1083984l0.5209961-0.7744141
			c0.1381836-0.1875,0.3056641-0.3662109,0.5029297-0.5361328c0.1972656-0.1704102,0.3710938-0.2866211,0.5214844-0.3491211
			c0.0947266-0.0390625,0.1992188-0.0585938,0.3134766-0.0585938c0.1699219,0,0.3046875,0.0449219,0.4052734,0.1347656
			s0.1513672,0.1992188,0.1513672,0.3286133c0,0.1484375-0.0302734,0.25-0.0888672,0.3046875
			c-0.1113281,0.0976563-0.2373047,0.1464844-0.3789063,0.1464844c-0.0830078,0-0.171875-0.0175781-0.2666016-0.0527344
			c-0.1855469-0.0625-0.3095703-0.09375-0.3730469-0.09375c-0.0947266,0-0.2070313,0.0546875-0.3369141,0.1640625
			c-0.2451172,0.2036133-0.5371094,0.5961914-0.8764648,1.1787109l0.4853516,2.0170898
			c0.0751953,0.3085938,0.1381836,0.4941406,0.1899414,0.5546875c0.0507813,0.0605469,0.1015625,0.0908203,0.1533203,0.0908203
			c0.0830078,0,0.1796875-0.0449219,0.2900391-0.1357422c0.2167969-0.1796875,0.4023438-0.4140625,0.5566406-0.703125
			l0.2070313,0.1054688c-0.2490234,0.4609375-0.5644531,0.8447266-0.9472656,1.1494141
			c-0.2167969,0.171875-0.4003906,0.2578125-0.550293,0.2578125c-0.2207031,0-0.3964844-0.1230469-0.5268555-0.3691406
			c-0.0825195-0.1523438-0.2543945-0.8095703-0.5146484-1.9707031c-0.6157227,1.0595703-1.1088867,1.7421875-1.4799805,2.046875
			c-0.2407227,0.1953125-0.4731445,0.2929688-0.6982422,0.2929688c-0.1577148,0-0.3017578-0.0566406-0.4321289-0.1699219
			c-0.0947266-0.0859375-0.1420898-0.2011719-0.1420898-0.3457031c0-0.1289063,0.043457-0.2363281,0.1303711-0.3232422
			c0.0869141-0.0859375,0.1933594-0.1289063,0.3193359-0.1289063c0.1264648,0,0.2607422,0.0625,0.402832,0.1884766
			c0.1025391,0.0898438,0.1811523,0.1347656,0.2368164,0.1347656c0.0473633,0,0.1083984-0.03125,0.1831055-0.09375
			c0.1855469-0.1494141,0.4379883-0.4697266,0.7578125-0.9619141c0.3198242-0.4931641,0.5288086-0.8486328,0.6274414-1.0673828
			c-0.2446289-0.949707-0.3769531-1.4521484-0.3964844-1.5068359c-0.0908203-0.2543945-0.2094727-0.434082-0.3554688-0.5395508
			s-0.3608398-0.1582031-0.6450195-0.1582031c-0.0908203,0-0.1953125,0.0039063-0.3134766,0.0117188v-0.2114258
			L95.2802734,21.1938477z"/>
	</g>
</g>
<polyline id="XMLID_1_" class="st2" points="96.1059952,12.8888893 87.4583359,12.8888893 84.5,22.2777786 79.9517517,3.5 
	75.5,22.2777786 70.9517517,3.5 68.4809952,12.8888893 59.8333321,12.8888893 "/>
<circle id="XMLID_2_" cx="59.8333321" cy="12.8888893" r="3"/>
<polyline id="XMLID_4_" class="st2" points="132.4519653,12.8888893 123.804306,12.8888893 120.8459778,22.2777786 116.2977295,3.5 
	111.8459778,22.2777786 107.2977295,3.5 104.826973,12.8888893 96.179306,12.8888893 "/>
<circle id="XMLID_3_" cx="96.179306" cy="12.8888893" r="3"/>
<circle id="XMLID_5_" cx="132.4519653" cy="12.8888893" r="3"/>
<g id="XMLID_12_">
	<g id="XMLID_16_">
		<path id="XMLID_46_" class="st1" d="M141.3222656,25.4487305l1.1201172-0.5458984h0.1123047v3.8803711
			c0,0.2578125,0.0107422,0.4189453,0.0322266,0.4814453c0.0214844,0.0634766,0.0664063,0.1123047,0.1347656,0.1464844
			c0.0673828,0.0332031,0.2060547,0.0527344,0.4140625,0.0576172v0.125h-1.7324219v-0.125
			c0.2177734-0.0048828,0.3583984-0.0234375,0.4208984-0.0566406c0.0634766-0.0322266,0.1083984-0.0761719,0.1328125-0.1318359
			c0.0253906-0.0556641,0.0371094-0.2207031,0.0371094-0.4970703v-2.480957c0-0.3339844-0.0107422-0.5488281-0.0332031-0.6435547
			c-0.0166016-0.0722656-0.0449219-0.1259766-0.0869141-0.1591797c-0.0419922-0.0341797-0.0927734-0.0507813-0.1513672-0.0507813
			c-0.0839844,0-0.2001953,0.0341797-0.3496094,0.1044922L141.3222656,25.4487305z"/>
	</g>
	<g id="XMLID_15_">
		<path id="XMLID_43_" class="st1" d="M136.0595703,26.5258789l-0.6723633,2.3764648
			c-0.0454102,0.1601563-0.0678711,0.2568359-0.0678711,0.2880859c0,0.0361328,0.0107422,0.0654297,0.0322266,0.0878906
			s0.046875,0.0341797,0.0761719,0.0341797c0.0341797,0,0.0751953-0.0185547,0.1225586-0.0546875
			c0.1289063-0.1015625,0.2592773-0.2460938,0.390625-0.4335938l0.1186523,0.078125
			c-0.1538086,0.2353516-0.3349609,0.4326172-0.543457,0.5927734c-0.1538086,0.1201172-0.3007813,0.1796875-0.4414063,0.1796875
			c-0.0927734,0-0.168457-0.0273438-0.2275391-0.0830078c-0.059082-0.0546875-0.0883789-0.125-0.0883789-0.2080078
			c0-0.0839844,0.0283203-0.2226563,0.0849609-0.4169922l0.4414063-1.5180664
			c0.0727539-0.2490234,0.1088867-0.4052734,0.1088867-0.4677734c0-0.0498047-0.0175781-0.0908203-0.0527344-0.1220703
			c-0.0351563-0.0322266-0.0830078-0.0478516-0.1445313-0.0478516c-0.0498047,0-0.152832,0.0126953-0.309082,0.0371094v-0.1318359
			L136.0595703,26.5258789z M136.015625,25.1801758c0.0947266,0,0.1748047,0.0332031,0.2412109,0.0986328
			c0.0654297,0.0654297,0.0976563,0.1455078,0.0976563,0.2402344c0,0.0927734-0.0332031,0.1728516-0.0996094,0.2392578
			s-0.1464844,0.1005859-0.2392578,0.1005859s-0.1728516-0.0341797-0.2397461-0.1005859
			c-0.0664063-0.0664063-0.1000977-0.1464844-0.1000977-0.2392578c0-0.0947266,0.0327148-0.1748047,0.0986328-0.2402344
			C135.8398438,25.2133789,135.9204102,25.1801758,136.015625,25.1801758z"/>
	</g>
	<g id="XMLID_14_">
		<path id="XMLID_41_" class="st1" d="M131.5375977,21.1938477c0.1918945,0.203125,0.3369141,0.4067383,0.4350586,0.6098633
			c0.0703125,0.140625,0.1860352,0.5102539,0.3466797,1.1083984l0.5166016-0.7744141
			c0.137207-0.1875,0.3037109-0.3662109,0.4995117-0.5361328c0.1958008-0.1704102,0.3681641-0.2866211,0.5170898-0.3491211
			c0.0942383-0.0390625,0.1977539-0.0585938,0.3115234-0.0585938c0.168457,0,0.3022461,0.0449219,0.4023438,0.1347656
			c0.0996094,0.0898438,0.1499023,0.1992188,0.1499023,0.3286133c0,0.1484375-0.0292969,0.25-0.0883789,0.3046875
			c-0.109375,0.0976563-0.2348633,0.1464844-0.3759766,0.1464844c-0.0820313,0-0.1704102-0.0175781-0.2641602-0.0527344
			c-0.184082-0.0625-0.3076172-0.09375-0.3701172-0.09375c-0.0942383,0-0.2055664,0.0546875-0.3349609,0.1640625
			c-0.2431641,0.2036133-0.5327148,0.5961914-0.8696289,1.1787109l0.4819336,2.0170898
			c0.0742188,0.3085938,0.1367188,0.4941406,0.1879883,0.5546875c0.0507813,0.0605469,0.1015625,0.0908203,0.152832,0.0908203
			c0.0820313,0,0.1782227-0.0449219,0.2875977-0.1357422c0.215332-0.1796875,0.3994141-0.4140625,0.5522461-0.703125
			l0.2055664,0.1054688c-0.246582,0.4609375-0.5600586,0.8447266-0.9399414,1.1494141
			c-0.215332,0.171875-0.3974609,0.2578125-0.5463867,0.2578125c-0.2192383,0-0.3935547-0.1230469-0.5229492-0.3691406
			c-0.0820313-0.1523438-0.2524414-0.8095703-0.5107422-1.9707031c-0.6113281,1.0595703-1.1010742,1.7421875-1.46875,2.046875
			c-0.2392578,0.1953125-0.4702148,0.2929688-0.6933594,0.2929688c-0.1567383,0-0.2998047-0.0566406-0.4291992-0.1699219
			c-0.09375-0.0859375-0.140625-0.2011719-0.140625-0.3457031c0-0.1289063,0.0429688-0.2363281,0.1289063-0.3232422
			c0.0864258-0.0859375,0.1923828-0.1289063,0.3173828-0.1289063c0.1254883,0,0.2587891,0.0625,0.3994141,0.1884766
			c0.1020508,0.0898438,0.1801758,0.1347656,0.2353516,0.1347656c0.046875,0,0.1074219-0.03125,0.1821289-0.09375
			c0.184082-0.1494141,0.4345703-0.4697266,0.7519531-0.9619141c0.3168945-0.4931641,0.5244141-0.8486328,0.6225586-1.0673828
			c-0.2426758-0.949707-0.3740234-1.4521484-0.3935547-1.5068359c-0.090332-0.2543945-0.2075195-0.434082-0.3525391-0.5395508
			s-0.3583984-0.1582031-0.6401367-0.1582031c-0.090332,0-0.1943359,0.0039063-0.3115234,0.0117188v-0.2114258
			L131.5375977,21.1938477z"/>
	</g>
	<g id="XMLID_13_">
		<path id="XMLID_39_" class="st1" d="M138.6826172,26.034668h0.3330078v1.6196289h1.6132813v0.3291016h-1.6132813V29.59375
			h-0.3330078v-1.6103516H137.0625v-0.3291016h1.6201172V26.034668z"/>
	</g>
</g>
<g id="XMLID_17_">
	<g id="XMLID_21_">
		<path id="XMLID_37_" class="st1" d="M68.6176758,25.4487305l1.1201172-0.5458984h0.1123047v3.8803711
			c0,0.2578125,0.0107422,0.4189453,0.0322266,0.4814453c0.0214844,0.0634766,0.0664063,0.1123047,0.1347656,0.1464844
			c0.0673828,0.0332031,0.2060547,0.0527344,0.4140625,0.0576172v0.125h-1.7324219v-0.125
			c0.2177734-0.0048828,0.3583984-0.0234375,0.4208984-0.0566406c0.0634766-0.0322266,0.1083984-0.0761719,0.1328125-0.1318359
			c0.0253906-0.0556641,0.0371094-0.2207031,0.0371094-0.4970703v-2.480957c0-0.3339844-0.0107422-0.5488281-0.0332031-0.6435547
			c-0.0166016-0.0722656-0.0449219-0.1259766-0.0869141-0.1591797c-0.0419922-0.0341797-0.0927734-0.0507813-0.1513672-0.0507813
			c-0.0839844,0-0.2001953,0.0341797-0.3496094,0.1044922L68.6176758,25.4487305z"/>
	</g>
	<g id="XMLID_20_">
		<path id="XMLID_34_" class="st1" d="M63.440918,26.5258789l-0.6723633,2.3764648
			c-0.0454102,0.1601563-0.0678711,0.2568359-0.0678711,0.2880859c0,0.0361328,0.0107422,0.0654297,0.0322266,0.0878906
			S62.7797852,29.3125,62.809082,29.3125c0.0341797,0,0.0751953-0.0185547,0.1225586-0.0546875
			c0.1289063-0.1015625,0.2592773-0.2460938,0.390625-0.4335938l0.1186523,0.078125
			c-0.1538086,0.2353516-0.3349609,0.4326172-0.543457,0.5927734c-0.1538086,0.1201172-0.3007813,0.1796875-0.4414063,0.1796875
			c-0.0927734,0-0.168457-0.0273438-0.2275391-0.0830078c-0.059082-0.0546875-0.0883789-0.125-0.0883789-0.2080078
			c0-0.0839844,0.0283203-0.2226563,0.0849609-0.4169922l0.4414063-1.5180664
			c0.0727539-0.2490234,0.1088867-0.4052734,0.1088867-0.4677734c0-0.0498047-0.0175781-0.0908203-0.0527344-0.1220703
			c-0.0351563-0.0322266-0.0830078-0.0478516-0.1445313-0.0478516c-0.0498047,0-0.152832,0.0126953-0.309082,0.0371094v-0.1318359
			L63.440918,26.5258789z M63.3969727,25.1801758c0.0947266,0,0.1748047,0.0332031,0.2412109,0.0986328
			c0.0654297,0.0654297,0.0976563,0.1455078,0.0976563,0.2402344c0,0.0927734-0.0332031,0.1728516-0.0996094,0.2392578
			s-0.1464844,0.1005859-0.2392578,0.1005859s-0.1728516-0.0341797-0.2397461-0.1005859
			c-0.0664063-0.0664063-0.1000977-0.1464844-0.1000977-0.2392578c0-0.0947266,0.0327148-0.1748047,0.0986328-0.2402344
			C63.2211914,25.2133789,63.3017578,25.1801758,63.3969727,25.1801758z"/>
	</g>
	<g id="XMLID_19_">
		<path id="XMLID_32_" class="st1" d="M58.9189453,21.1938477c0.1918945,0.203125,0.3369141,0.4067383,0.4350586,0.6098633
			c0.0703125,0.140625,0.1860352,0.5102539,0.3466797,1.1083984l0.5166016-0.7744141
			c0.137207-0.1875,0.3037109-0.3662109,0.4995117-0.5361328c0.1958008-0.1704102,0.3681641-0.2866211,0.5170898-0.3491211
			c0.0942383-0.0390625,0.1977539-0.0585938,0.3115234-0.0585938c0.168457,0,0.3022461,0.0449219,0.4023438,0.1347656
			c0.0996094,0.0898438,0.1499023,0.1992188,0.1499023,0.3286133c0,0.1484375-0.0292969,0.25-0.0883789,0.3046875
			c-0.109375,0.0976563-0.2348633,0.1464844-0.3759766,0.1464844c-0.0820313,0-0.1704102-0.0175781-0.2641602-0.0527344
			c-0.184082-0.0625-0.3076172-0.09375-0.3701172-0.09375c-0.0942383,0-0.2055664,0.0546875-0.3349609,0.1640625
			c-0.2431641,0.2036133-0.5327148,0.5961914-0.8696289,1.1787109l0.4819336,2.0170898
			c0.0742188,0.3085938,0.1367188,0.4941406,0.1879883,0.5546875c0.0507813,0.0605469,0.1015625,0.0908203,0.152832,0.0908203
			c0.0820313,0,0.1782227-0.0449219,0.2875977-0.1357422c0.215332-0.1796875,0.3994141-0.4140625,0.5522461-0.703125
			l0.2055664,0.1054688c-0.246582,0.4609375-0.5600586,0.8447266-0.9399414,1.1494141
			c-0.215332,0.171875-0.3974609,0.2578125-0.5463867,0.2578125c-0.2192383,0-0.3935547-0.1230469-0.5229492-0.3691406
			c-0.0820313-0.1523438-0.2524414-0.8095703-0.5107422-1.9707031c-0.6113281,1.0595703-1.1010742,1.7421875-1.46875,2.046875
			c-0.2392578,0.1953125-0.4702148,0.2929688-0.6933594,0.2929688c-0.1567383,0-0.2998047-0.0566406-0.4291992-0.1699219
			c-0.09375-0.0859375-0.140625-0.2011719-0.140625-0.3457031c0-0.1289063,0.0429688-0.2363281,0.1289063-0.3232422
			c0.0864258-0.0859375,0.1923828-0.1289063,0.3173828-0.1289063c0.1254883,0,0.2587891,0.0625,0.3994141,0.1884766
			c0.1020508,0.0898438,0.1801758,0.1347656,0.2353516,0.1347656c0.046875,0,0.1074219-0.03125,0.1821289-0.09375
			c0.184082-0.1494141,0.4345703-0.4697266,0.7519531-0.9619141c0.3168945-0.4931641,0.5244141-0.8486328,0.6225586-1.0673828
			c-0.2426758-0.949707-0.3740234-1.4521484-0.3935547-1.5068359c-0.090332-0.2543945-0.2075195-0.434082-0.3525391-0.5395508
			s-0.3583984-0.1582031-0.6401367-0.1582031c-0.090332,0-0.1943359,0.0039063-0.3115234,0.0117188v-0.2114258
			L58.9189453,21.1938477z"/>
	</g>
	<g id="XMLID_18_">
		<path id="XMLID_30_" class="st1" d="M64.4438477,27.6416016h3.5664063v0.3349609h-3.5664063V27.6416016z"/>
	</g>
</g>
<circle id="XMLID_11_" class="st3" cx="2.786298" cy="12.8888884" r="0.8435546"/>
<circle id="XMLID_22_" class="st3" cx="8.083333" cy="12.8888884" r="0.8435546"/>
<circle id="XMLID_23_" class="st3" cx="13.3803682" cy="12.8888884" r="0.8435546"/>
<circle id="XMLID_26_" class="st3" cx="176.7863007" cy="12.8888893" r="0.8435546"/>
<circle id="XMLID_25_" class="st3" cx="182.0833282" cy="12.8888893" r="0.8435546"/>
<circle id="XMLID_24_" class="st3" cx="187.3803711" cy="12.8888893" r="0.8435546"/>
<g id="XMLID_131_">
	<g id="XMLID_139_">
		<g id="XMLID_140_">
			<polygon id="XMLID_141_" points="211.3114929,13.4120178 211.3114929,15.4184265 220.75,12.8910522 211.3114929,10.3593445 
				211.3114929,12.3659363 195,12.3659363 195,13.4120178 			"/>
		</g>
	</g>
</g>
<g id="XMLID_133_">
	<g id="XMLID_134_">
		<path id="XMLID_28_" class="st1" d="M226.4550781,10.574707c0.1904297,0.2036133,0.3349609,0.4072266,0.4316406,0.6108398
			c0.0703125,0.140625,0.1855469,0.5107422,0.3447266,1.1098633l0.5146484-0.7753906
			c0.1357422-0.1879883,0.3007813-0.3666992,0.4960938-0.5371094c0.1943359-0.1704102,0.3662109-0.2866211,0.5136719-0.3496094
			c0.09375-0.0390625,0.1962891-0.0585938,0.3095703-0.0585938c0.1669922,0,0.3007813,0.0449219,0.4003906,0.1352539
			c0.0986328,0.0898438,0.1484375,0.199707,0.1484375,0.3286133c0,0.1489258-0.0292969,0.2504883-0.0878906,0.3051758
			c-0.1083984,0.0981445-0.2333984,0.1469727-0.3730469,0.1469727c-0.0820313,0-0.1699219-0.0175781-0.2626953-0.0527344
			c-0.1835938-0.0625-0.3056641-0.0942383-0.3681641-0.0942383c-0.09375,0-0.2041016,0.0551758-0.3330078,0.1645508
			c-0.2412109,0.2036133-0.5292969,0.597168-0.8642578,1.1801758l0.4785156,2.0195313
			c0.0742188,0.3095703,0.1367188,0.4951172,0.1875,0.5556641c0.0498047,0.0605469,0.1005859,0.0908203,0.1513672,0.0908203
			c0.0820313,0,0.1777344-0.0449219,0.2861328-0.1347656c0.2138672-0.1806641,0.3974609-0.4150391,0.5488281-0.7050781
			l0.2050781,0.1054688c-0.2451172,0.4619141-0.5566406,0.8457031-0.9345703,1.1513672
			c-0.2138672,0.171875-0.3955078,0.2578125-0.5429688,0.2578125c-0.21875,0-0.3916016-0.1230469-0.5205078-0.3691406
			c-0.0820313-0.1533203-0.2509766-0.8105469-0.5078125-1.9726563c-0.6064453,1.0605469-1.09375,1.7431641-1.4599609,2.0488281
			c-0.2373047,0.1953125-0.4667969,0.2929688-0.6894531,0.2929688c-0.1552734,0-0.296875-0.0566406-0.4257813-0.1699219
			c-0.09375-0.0859375-0.140625-0.2011719-0.140625-0.3466797c0-0.1289063,0.0429688-0.2363281,0.1289063-0.3222656
			c0.0859375-0.0869141,0.1914063-0.1298828,0.3154297-0.1298828s0.2568359,0.0625,0.3974609,0.1884766
			c0.1005859,0.0898438,0.1787109,0.1347656,0.2333984,0.1347656c0.0458984,0,0.1064453-0.03125,0.1806641-0.09375
			c0.1835938-0.1494141,0.4316406-0.4697266,0.7480469-0.9628906c0.3144531-0.4931641,0.5214844-0.8496094,0.6191406-1.0688477
			c-0.2421875-0.9511719-0.3730469-1.4541016-0.3916016-1.5092773c-0.0898438-0.2543945-0.2060547-0.4345703-0.3505859-0.5400391
			c-0.1445313-0.105957-0.3564453-0.1586914-0.6367188-0.1586914c-0.0898438,0-0.1923828,0.0039063-0.3085938,0.0117188v-0.2114258
			L226.4550781,10.574707z"/>
	</g>
</g>
<g id="XMLID_27_">
</g>
<g id="XMLID_53_">
</g>
<g id="XMLID_54_">
</g>
<g id="XMLID_55_">
</g>
<g id="XMLID_56_">
</g>
<g id="XMLID_57_">
</g>
</svg>
