<?xml version="1.0" encoding="utf-8"?>
<!-- Generator: Adobe Illustrator 19.0.0, SVG Export Plug-In . SVG Version: 6.00 Build 0)  -->
<svg version="1.1" id="Layer_1" xmlns="http://www.w3.org/2000/svg" xmlns:xlink="http://www.w3.org/1999/xlink" x="0px" y="0px"
	 viewBox="0 0 139 65.8333359" style="enable-background:new 0 0 139 65.8333359;" xml:space="preserve">
<style type="text/css">
	.st0{fill:none;stroke:#939598;stroke-miterlimit:10;}
	.st1{fill:#010101;}
	.st2{fill:none;stroke:#000000;stroke-miterlimit:10;}
	.st3{fill:#939598;}
	.st4{fill:#F15A29;}
</style>
<path id="XMLID_16_" class="st0" d="M83.4190903,29.2234688c1.213501,2.3799591,1.5041275,3.9991531,1.5041275,6.1580849"/>
<line id="XMLID_14_" class="st0" x1="70.6410751" y1="35.3815536" x2="98.375" y2="35.3815536"/>
<g id="XMLID_39_">
	<g id="XMLID_40_">
		<path id="XMLID_88_" class="st1" d="M132.7050781,33.7693672c0.1904297,0.2036133,0.3349609,0.4072266,0.4321289,0.6108398
			c0.0698242,0.140625,0.1850586,0.5107422,0.3442383,1.1098633l0.5146484-0.7753906
			c0.1357422-0.1879883,0.3007813-0.3666992,0.4960938-0.5371094c0.1943359-0.1704102,0.3662109-0.2866211,0.5136719-0.3496094
			c0.09375-0.0390625,0.1962891-0.0585938,0.3095703-0.0585938c0.1669922,0,0.3007813,0.0449219,0.4003906,0.1352539
			c0.0986328,0.0898438,0.1484375,0.199707,0.1484375,0.3286133c0,0.1489258-0.0292969,0.2504883-0.0878906,0.3051758
			c-0.1083984,0.0981445-0.2333984,0.1469727-0.3730469,0.1469727c-0.0820313,0-0.1699219-0.0175781-0.2626953-0.0527344
			c-0.1835938-0.0625-0.3056641-0.0942383-0.3681641-0.0942383c-0.09375,0-0.2041016,0.0551758-0.3330078,0.1645508
			c-0.2412109,0.2036133-0.5292969,0.597168-0.8642578,1.1801758l0.4785156,2.0195313
			c0.0742188,0.3095703,0.1367188,0.4951172,0.1875,0.5556641c0.0498047,0.0605469,0.1005859,0.0908203,0.1513672,0.0908203
			c0.0820313,0,0.1777344-0.0449219,0.2861328-0.1347656c0.2138672-0.1806641,0.3974609-0.4150391,0.5488281-0.7050781
			l0.2050781,0.1054688c-0.2451172,0.4619141-0.5566406,0.8457031-0.9345703,1.1513672
			c-0.2138672,0.171875-0.3955078,0.2578125-0.5429688,0.2578125c-0.21875,0-0.3916016-0.1230469-0.5205078-0.3691406
			c-0.0820313-0.1533203-0.2504883-0.8105469-0.5078125-1.9726563c-0.6069336,1.0605469-1.09375,1.7431641-1.4599609,2.0488281
			c-0.2373047,0.1953125-0.4672852,0.2929688-0.6889648,0.2929688c-0.1557617,0-0.2978516-0.0566406-0.4262695-0.1699219
			c-0.0932617-0.0859375-0.1401367-0.2011719-0.1401367-0.3466797c0-0.1289063,0.0429688-0.2363281,0.128418-0.3222656
			c0.0854492-0.0869141,0.190918-0.1298828,0.3154297-0.1298828s0.2568359,0.0625,0.3969727,0.1884766
			c0.1010742,0.0898438,0.1791992,0.1347656,0.2338867,0.1347656c0.0463867,0,0.1069336-0.03125,0.1806641-0.09375
			c0.1831055-0.1494141,0.4321289-0.4697266,0.7475586-0.9628906s0.5219727-0.8496094,0.6191406-1.0688477
			c-0.2412109-0.9511719-0.3720703-1.4541016-0.3911133-1.5092773c-0.0898438-0.2543945-0.206543-0.4345703-0.3505859-0.5400391
			c-0.144043-0.105957-0.3564453-0.1586914-0.6367188-0.1586914c-0.0893555,0-0.1923828,0.0039063-0.309082,0.0117188v-0.2114258
			L132.7050781,33.7693672z"/>
	</g>
</g>
<g id="XMLID_1_">
	<g id="XMLID_25_">
		<g id="XMLID_26_">
			<polygon id="XMLID_41_" points="128.2281647,47.20467 128.2281647,49.2111092 137.6666565,46.6837349 128.2281647,44.1519966 
				128.2281647,46.1585884 4.6666718,46.1585884 4.6666718,47.20467 			"/>
		</g>
	</g>
</g>
<circle id="XMLID_3_" cx="111.9928589" cy="15.452981" r="2.1589286"/>
<line id="XMLID_4_" class="st2" x1="70.6410751" y1="43.6922684" x2="70.6410751" y2="50.9994087"/>
<line id="XMLID_5_" class="st2" x1="111.9928589" y1="43.0279808" x2="111.9928589" y2="50.335125"/>
<line id="XMLID_7_" class="st2" x1="29.2892857" y1="43.0279808" x2="29.2892857" y2="50.335125"/>
<circle id="XMLID_6_" cx="29.2892857" cy="27.2440529" r="2.1589286"/>
<line id="XMLID_12_" class="st2" x1="70.6410751" y1="35.3815536" x2="111.9928589" y2="15.452981"/>
<line id="XMLID_13_" class="st2" x1="29.2892857" y1="27.2440529" x2="70.6410751" y2="35.3815536"/>
<g id="XMLID_15_">
	<g id="XMLID_43_">
		<g id="XMLID_44_">
			<polygon id="XMLID_45_" points="13.5231171,11.0316668 15.5295563,11.0316668 13.002182,1.59316 10.470459,11.0316668 
				12.4770508,11.0316668 12.4770508,55.8333321 13.5231171,55.8333321 			"/>
		</g>
	</g>
</g>
<g id="XMLID_18_">
	<g id="XMLID_19_">
		<path id="XMLID_86_" class="st1" d="M4.1738281,1.5086263C4.3071289,1.733724,4.3994141,1.9441732,4.4501953,2.1399739
			s0.1020508,0.5805664,0.152832,1.1542969l0.2592773,2.8623049C5.0976563,5.8772788,5.4384766,5.434896,5.8857422,4.8299155
			c0.2158203-0.2944336,0.4824219-0.6958008,0.7998047-1.2041018C6.8779297,3.3157551,6.9951172,3.09847,7.0390625,2.9744465
			C7.0625,2.9124348,7.0742188,2.84847,7.0742188,2.782552c0-0.0424805-0.0136719-0.0776367-0.0410156-0.1044922
			c-0.0273438-0.0273438-0.0996094-0.059082-0.2148438-0.0961914C6.7021484,2.5452473,6.6064453,2.4773762,6.5302734,2.3782551
			C6.453125,2.2796223,6.4150391,2.1658528,6.4150391,2.0379231c0-0.1586913,0.046875-0.286621,0.1416016-0.3837889
			c0.09375-0.0966797,0.2119141-0.1455078,0.3525391-0.1455078c0.1728516,0,0.3193359,0.0708008,0.4414063,0.2124023
			c0.1210938,0.1416016,0.1826172,0.3364257,0.1826172,0.5844725c0,0.3066406-0.1064453,0.6567383-0.3183594,1.0498047
			c-0.2109375,0.394043-0.6191406,0.9975588-1.2236328,1.812012C5.3876953,5.981771,4.65625,6.8694663,3.7973633,7.8313804
			C3.2050781,8.4944658,2.765625,8.9124346,2.4794922,9.0852861c-0.2861328,0.171875-0.53125,0.2587891-0.7353516,0.2587891
			c-0.121582,0-0.2285156-0.0458984-0.3208008-0.1367188C1.331543,9.1155596,1.2851563,9.0100908,1.2851563,8.8899736
			c0-0.1513672,0.0639648-0.2890625,0.1914063-0.4130859s0.265625-0.1855469,0.4145508-0.1855469
			c0.0786133,0,0.1430664,0.0166016,0.1943359,0.0517578c0.03125,0.0195313,0.0654297,0.0751953,0.1025391,0.1660156
			C2.2255859,8.5999346,2.2597656,8.661458,2.2910156,8.692708c0.0195313,0.0185547,0.043457,0.0283203,0.0708008,0.0283203
			c0.0234375,0,0.0644531-0.0195313,0.1235352-0.0576172c0.2158203-0.1318359,0.4667969-0.3417969,0.7529297-0.6289063
			c0.3764648-0.3798823,0.6547852-0.6894526,0.8354492-0.929687L3.7441406,3.4168293
			c-0.0546875-0.6088867-0.137207-0.9794922-0.2470703-1.1113281S3.203125,2.1077473,2.9443359,2.1077473
			c-0.0825195,0-0.2294922,0.0117188-0.4414063,0.0351563L2.4501953,1.9275717L4.1738281,1.5086263z"/>
	</g>
</g>
<g id="XMLID_20_">
	<g id="XMLID_22_">
		<path id="XMLID_83_" class="st1" d="M75.3017578,61.262043L74.625,63.6380196
			c-0.0458984,0.1601563-0.0683594,0.2568359-0.0683594,0.2880859c0,0.0361328,0.0107422,0.0654297,0.0322266,0.0878944
			c0.0214844,0.0234375,0.046875,0.0341797,0.0771484,0.0341797c0.0341797,0,0.0751953-0.0175781,0.1230469-0.0537148
			c0.1298828-0.1025391,0.2607422-0.2470703,0.3935547-0.4345703l0.1191406,0.078125
			c-0.1552734,0.2353516-0.3369141,0.432621-0.546875,0.5937538c-0.1552734,0.1191406-0.3037109,0.1796875-0.4453125,0.1796875
			c-0.09375,0-0.1699219-0.0283203-0.2294922-0.0830078c-0.0585938-0.0556641-0.0888672-0.125-0.0888672-0.2089844
			s0.0292969-0.2226601,0.0859375-0.416996l0.4443359-1.5185547c0.0732422-0.2490234,0.1103516-0.4042969,0.1103516-0.4677734
			c0-0.0498047-0.0185547-0.0908203-0.0537109-0.1220703s-0.0839844-0.0478516-0.1455078-0.0478516
			c-0.0498047,0-0.1533203,0.0126953-0.3115234,0.0371094v-0.1318359L75.3017578,61.262043z M75.2578125,59.9163399
			c0.0957031,0,0.1767578,0.0322266,0.2431641,0.0976563c0.0654297,0.0654297,0.0986328,0.1464844,0.0986328,0.2412109
			c0,0.0927734-0.0332031,0.171875-0.1005859,0.2382813c-0.0673828,0.0673828-0.1474609,0.1005859-0.2412109,0.1005859
			s-0.1738281-0.0332031-0.2412109-0.1005859c-0.0673828-0.0664063-0.1015625-0.1455078-0.1015625-0.2382813
			c0-0.0947266,0.0332031-0.1757813,0.0996094-0.2412109S75.1621094,59.9163399,75.2578125,59.9163399z"/>
	</g>
	<g id="XMLID_21_">
		<path id="XMLID_81_" class="st1" d="M70.7446289,55.9138985c0.1933594,0.203125,0.3393555,0.4067383,0.4379883,0.6098633
			c0.0712891,0.140625,0.1875,0.5097656,0.3491211,1.1083984l0.5209961-0.7744141
			c0.1381836-0.1875,0.3056641-0.3662109,0.503418-0.5361328c0.1972656-0.1704102,0.3706055-0.2866211,0.5205078-0.3491211
			c0.0947266-0.0390625,0.199707-0.0585938,0.3139648-0.0585938c0.1689453,0,0.3046875,0.0449219,0.4052734,0.1347656
			s0.1513672,0.1992188,0.1513672,0.3286133c0,0.1484375-0.0302734,0.25-0.0888672,0.3046875
			c-0.1113281,0.0976563-0.2373047,0.1464844-0.3789063,0.1464844c-0.0830078,0-0.171875-0.0175781-0.2666016-0.0527344
			c-0.1855469-0.0625-0.3095703-0.09375-0.3730469-0.09375c-0.0947266,0-0.2070313,0.0546875-0.3374023,0.1640625
			c-0.2446289,0.203125-0.5366211,0.5957031-0.8759766,1.1787109l0.4853516,2.0166016
			c0.0751953,0.3095703,0.1381836,0.4941406,0.1894531,0.5546875s0.1025391,0.0908203,0.1538086,0.0908203
			c0.0830078,0,0.1796875-0.0449219,0.2900391-0.1347656c0.2172852-0.1796875,0.402832-0.4150391,0.5566406-0.7041016
			l0.2070313,0.1054688c-0.2480469,0.4619141-0.5644531,0.8447266-0.9467773,1.1494141
			c-0.2172852,0.171875-0.4008789,0.2578125-0.5507813,0.2578125c-0.2207031,0-0.3964844-0.1230469-0.5268555-0.3691406
			c-0.0825195-0.1523438-0.2543945-0.8095703-0.5146484-1.9697266c-0.6157227,1.0585938-1.1088867,1.7412109-1.4799805,2.0458984
			c-0.2407227,0.1953125-0.4731445,0.2929688-0.6982422,0.2929688c-0.1577148,0-0.3017578-0.0566406-0.4321289-0.1699219
			c-0.0947266-0.0859375-0.1420898-0.2011719-0.1420898-0.3457031c0-0.1289063,0.043457-0.2363281,0.1303711-0.3222656
			s0.1933594-0.1289063,0.3193359-0.1289063c0.1264648,0,0.2607422,0.0625,0.402832,0.1875
			c0.1025391,0.0898438,0.1811523,0.1347656,0.2368164,0.1347656c0.0473633,0,0.1083984-0.03125,0.1831055-0.09375
			c0.1855469-0.1484375,0.4379883-0.4697266,0.7578125-0.9619141s0.5288086-0.8486328,0.6274414-1.0673828
			c-0.2446289-0.9492188-0.3769531-1.4521484-0.3964844-1.5068359c-0.0908203-0.2539063-0.2094727-0.4335938-0.3554688-0.5390625
			s-0.3608398-0.1582031-0.6450195-0.1582031c-0.0908203,0-0.1953125,0.0039063-0.3134766,0.0117188v-0.2114258
			L70.7446289,55.9138985z"/>
	</g>
</g>
<g id="XMLID_27_">
	<g id="XMLID_31_">
		<path id="XMLID_79_" class="st1" d="M120.2661133,60.1770821l1.1201172-0.5458984h0.1123047v3.8808594
			c0,0.2578125,0.0107422,0.4189453,0.0322266,0.4814453c0.0214844,0.0634804,0.0664063,0.1123085,0.1347656,0.1464882
			c0.0673828,0.0332031,0.2060547,0.0527344,0.4140625,0.0576172v0.125h-1.7324219v-0.125
			c0.2177734-0.0048828,0.3583984-0.0234375,0.4208984-0.0566406c0.0634766-0.0322266,0.1083984-0.0761719,0.1328125-0.1318359
			c0.0253906-0.0556679,0.0371094-0.2207069,0.0371094-0.4970741v-2.4814453c0-0.3339844-0.0107422-0.5488281-0.0332031-0.6435547
			c-0.0166016-0.0722656-0.0449219-0.1259766-0.0869141-0.1591797c-0.0419922-0.0341797-0.0927734-0.0507813-0.1513672-0.0507813
			c-0.0839844,0-0.2001953,0.0341797-0.3496094,0.1044922L120.2661133,60.1770821z"/>
	</g>
	<g id="XMLID_30_">
		<path id="XMLID_76_" class="st1" d="M115.003418,61.2542305l-0.6723633,2.3769531
			c-0.0454102,0.1601563-0.0678711,0.2568359-0.0678711,0.2880859c0,0.0361328,0.0107422,0.0654297,0.0322266,0.0878944
			c0.0214844,0.0224609,0.046875,0.0341797,0.0761719,0.0341797c0.0341797,0,0.0751953-0.0185547,0.1225586-0.0546913
			c0.1289063-0.1015625,0.2592773-0.2460938,0.390625-0.4335938l0.1186523,0.078125
			c-0.1538086,0.2353516-0.3349609,0.432621-0.543457,0.5927773c-0.1538086,0.1201172-0.3007813,0.1796875-0.4414063,0.1796875
			c-0.0927734,0-0.168457-0.0273438-0.2275391-0.0830078c-0.059082-0.0546875-0.0883789-0.125-0.0883789-0.2080078
			c0-0.0839844,0.0283203-0.2226601,0.0849609-0.416996l0.4414063-1.5185547
			c0.0727539-0.2490234,0.1088867-0.4052734,0.1088867-0.4677734c0-0.0498047-0.0175781-0.0908203-0.0527344-0.1220703
			c-0.0351563-0.0322266-0.0830078-0.0478516-0.1445313-0.0478516c-0.0498047,0-0.152832,0.0126953-0.309082,0.0371094v-0.1318359
			L115.003418,61.2542305z M114.9594727,59.9085274c0.0947266,0,0.1748047,0.0332031,0.2412109,0.0986328
			c0.0654297,0.0654297,0.0976563,0.1455078,0.0976563,0.2402344c0,0.0927734-0.0332031,0.1728516-0.0996094,0.2392578
			s-0.1464844,0.1005859-0.2392578,0.1005859s-0.1728516-0.0341797-0.2397461-0.1005859
			c-0.0664063-0.0664063-0.1000977-0.1464844-0.1000977-0.2392578c0-0.0947266,0.0327148-0.1748047,0.0986328-0.2402344
			C114.7836914,59.9417305,114.8642578,59.9085274,114.9594727,59.9085274z"/>
	</g>
	<g id="XMLID_29_">
		<path id="XMLID_74_" class="st1" d="M110.4814453,55.9221992c0.1918945,0.203125,0.3369141,0.4067383,0.4350586,0.6098633
			c0.0703125,0.140625,0.1860352,0.5102539,0.3466797,1.1079102l0.5166016-0.7744141
			c0.137207-0.1870117,0.3037109-0.3657227,0.4995117-0.5356445c0.1958008-0.1704102,0.3681641-0.2866211,0.5170898-0.3491211
			c0.0942383-0.0390625,0.1977539-0.0585938,0.3115234-0.0585938c0.168457,0,0.3022461,0.0449219,0.4023438,0.1347656
			c0.0996094,0.0898438,0.1499023,0.1992188,0.1499023,0.3286133c0,0.1484375-0.0292969,0.25-0.0883789,0.3046875
			c-0.109375,0.0976563-0.2348633,0.1459961-0.3759766,0.1459961c-0.0820313,0-0.1704102-0.0170898-0.2641602-0.0522461
			c-0.184082-0.0625-0.3076172-0.09375-0.3701172-0.09375c-0.0942383,0-0.2055664,0.0546875-0.3349609,0.1635742
			c-0.2431641,0.2041016-0.5327148,0.5966797-0.8696289,1.1787109l0.4819336,2.0175781
			c0.0742188,0.3085938,0.1367188,0.4941406,0.1879883,0.5546875c0.0507813,0.0605469,0.1015625,0.0908203,0.152832,0.0908203
			c0.0820313,0,0.1782227-0.0449219,0.2875977-0.1357422c0.215332-0.1796875,0.3994141-0.4140625,0.5522461-0.703125
			l0.2055664,0.1054688c-0.246582,0.4609375-0.5600586,0.8447266-0.9399414,1.1494141
			c-0.215332,0.171875-0.3974609,0.2578125-0.5463867,0.2578125c-0.2192383,0-0.3935547-0.1230469-0.5229492-0.3691406
			c-0.0820313-0.1523438-0.2524414-0.8095703-0.5107422-1.9707031c-0.6113281,1.0595703-1.1010742,1.7421875-1.46875,2.046875
			c-0.2392578,0.1953125-0.4702148,0.2929688-0.6933594,0.2929688c-0.1567383,0-0.2998047-0.0566406-0.4291992-0.1699219
			c-0.09375-0.0859375-0.140625-0.2011719-0.140625-0.3457031c0-0.1289063,0.0429688-0.2363281,0.1289063-0.3232422
			c0.0864258-0.0859375,0.1923828-0.1289063,0.3173828-0.1289063c0.1254883,0,0.2587891,0.0625,0.3994141,0.1884766
			c0.1020508,0.0898438,0.1801758,0.1347656,0.2353516,0.1347656c0.046875,0,0.1074219-0.03125,0.1821289-0.09375
			c0.184082-0.1494141,0.4345703-0.4697266,0.7519531-0.9619141c0.3168945-0.4931641,0.5244141-0.8486328,0.6225586-1.0673828
			c-0.2426758-0.9501953-0.3740234-1.4521484-0.3935547-1.5068359c-0.090332-0.2548828-0.2075195-0.434082-0.3525391-0.5395508
			s-0.3583984-0.1582031-0.6401367-0.1582031c-0.090332,0-0.1943359,0.0039063-0.3115234,0.0117188v-0.2114258
			L110.4814453,55.9221992z"/>
	</g>
	<g id="XMLID_28_">
		<path id="XMLID_72_" class="st1" d="M117.6264648,60.7630196h0.3330078v1.6201172h1.6132813v0.3291016h-1.6132813v1.6103554
			h-0.3330078v-1.6103554h-1.6201172v-0.3291016h1.6201172V60.7630196z"/>
	</g>
</g>
<g id="XMLID_32_">
	<g id="XMLID_36_">
		<path id="XMLID_70_" class="st1" d="M37.9902344,60.1770821l1.1201172-0.5458984h0.1123047v3.8808594
			c0,0.2578125,0.0107422,0.4189453,0.0322266,0.4814453c0.0214844,0.0634804,0.0664063,0.1123085,0.1347656,0.1464882
			c0.0673828,0.0332031,0.2060547,0.0527344,0.4140625,0.0576172v0.125h-1.7324219v-0.125
			c0.2177734-0.0048828,0.3583984-0.0234375,0.4208984-0.0566406c0.0634766-0.0322266,0.1083984-0.0761719,0.1328125-0.1318359
			c0.0253906-0.0556679,0.0371094-0.2207069,0.0371094-0.4970741v-2.4814453c0-0.3339844-0.0107422-0.5488281-0.0332031-0.6435547
			c-0.0166016-0.0722656-0.0449219-0.1259766-0.0869141-0.1591797C38.5,60.1936836,38.4492188,60.1770821,38.390625,60.1770821
			c-0.0839844,0-0.2001953,0.0341797-0.3496094,0.1044922L37.9902344,60.1770821z"/>
	</g>
	<g id="XMLID_35_">
		<path id="XMLID_67_" class="st1" d="M32.8134766,61.2542305l-0.6728516,2.3769531
			c-0.0449219,0.1601563-0.0673828,0.2568359-0.0673828,0.2880859c0,0.0361328,0.0107422,0.0654297,0.0322266,0.0878944
			c0.0214844,0.0224609,0.046875,0.0341797,0.0761719,0.0341797c0.0341797,0,0.0751953-0.0185547,0.1220703-0.0546913
			c0.1289063-0.1015625,0.2597656-0.2460938,0.390625-0.4335938l0.1191406,0.078125
			c-0.1542969,0.2353516-0.3349609,0.432621-0.5439453,0.5927773c-0.1533203,0.1201172-0.3007813,0.1796875-0.4414063,0.1796875
			c-0.0927734,0-0.1679688-0.0273438-0.2275391-0.0830078c-0.0585938-0.0546875-0.0878906-0.125-0.0878906-0.2080078
			c0-0.0839844,0.0283203-0.2226601,0.0849609-0.416996l0.4414063-1.5185547
			c0.0722656-0.2490234,0.1083984-0.4052734,0.1083984-0.4677734c0-0.0498047-0.0175781-0.0908203-0.0527344-0.1220703
			c-0.0351563-0.0322266-0.0830078-0.0478516-0.1445313-0.0478516c-0.0498047,0-0.1523438,0.0126953-0.3085938,0.0371094v-0.1318359
			L32.8134766,61.2542305z M32.7695313,59.9085274c0.0947266,0,0.1748047,0.0332031,0.2412109,0.0986328
			c0.0654297,0.0654297,0.0976563,0.1455078,0.0976563,0.2402344c0,0.0927734-0.0332031,0.1728516-0.0996094,0.2392578
			s-0.1464844,0.1005859-0.2392578,0.1005859s-0.1728516-0.0341797-0.2402344-0.1005859
			c-0.0664063-0.0664063-0.0996094-0.1464844-0.0996094-0.2392578c0-0.0947266,0.0322266-0.1748047,0.0986328-0.2402344
			C32.59375,59.9417305,32.6738281,59.9085274,32.7695313,59.9085274z"/>
	</g>
	<g id="XMLID_34_">
		<path id="XMLID_65_" class="st1" d="M28.2910156,55.921711c0.1923828,0.203125,0.3369141,0.4067383,0.4355469,0.6098633
			c0.0703125,0.140625,0.1855469,0.5107422,0.3466797,1.1083984l0.5166016-0.7744141
			c0.1367188-0.1875,0.3037109-0.3662109,0.4990234-0.5361328c0.1962891-0.1704102,0.3681641-0.2866211,0.5175781-0.3491211
			c0.09375-0.0390625,0.1972656-0.0585938,0.3115234-0.0585938c0.1679688,0,0.3017578,0.0449219,0.4023438,0.1347656
			c0.0996094,0.0898438,0.1494141,0.1992188,0.1494141,0.3286133c0,0.1484375-0.0292969,0.25-0.0878906,0.3046875
			c-0.109375,0.0976563-0.2353516,0.1464844-0.3759766,0.1464844c-0.0820313,0-0.1708984-0.0175781-0.2646484-0.0527344
			c-0.1835938-0.0625-0.3076172-0.09375-0.3701172-0.09375c-0.09375,0-0.2050781,0.0546875-0.3349609,0.1640625
			c-0.2431641,0.2041016-0.5322266,0.5966797-0.8691406,1.1787109l0.4814453,2.0175781
			c0.0742188,0.3085938,0.1367188,0.4941406,0.1884766,0.5546875c0.0507813,0.0605469,0.1015625,0.0908203,0.1523438,0.0908203
			c0.0820313,0,0.1787109-0.0449219,0.2880859-0.1357422c0.2148438-0.1796875,0.3994141-0.4140625,0.5517578-0.703125
			l0.2060547,0.1054688c-0.2470703,0.4609375-0.5605469,0.8447266-0.9404297,1.1494141
			c-0.2148438,0.171875-0.3974609,0.2578125-0.5458984,0.2578125c-0.2197266,0-0.3935547-0.1230469-0.5234375-0.3691406
			c-0.0820313-0.1523438-0.2519531-0.8095703-0.5107422-1.9707031c-0.6113281,1.0595703-1.1005859,1.7421875-1.46875,2.046875
			c-0.2392578,0.1953125-0.4697266,0.2929688-0.6933594,0.2929688c-0.15625,0-0.2998047-0.0566406-0.4287109-0.1699219
			c-0.09375-0.0859375-0.140625-0.2011719-0.140625-0.3457031c0-0.1289063,0.0429688-0.2363281,0.1289063-0.3232422
			c0.0859375-0.0859375,0.1923828-0.1289063,0.3173828-0.1289063s0.2587891,0.0625,0.3994141,0.1884766
			c0.1015625,0.0898438,0.1796875,0.1347656,0.2353516,0.1347656c0.046875,0,0.1074219-0.03125,0.1816406-0.09375
			c0.1845703-0.1494141,0.4345703-0.4697266,0.7519531-0.9619141c0.3173828-0.4931641,0.5244141-0.8486328,0.6230469-1.0673828
			c-0.2431641-0.9501953-0.3740234-1.4521484-0.3935547-1.5068359c-0.0908203-0.2548828-0.2080078-0.4345703-0.3525391-0.5400391
			c-0.1455078-0.1054688-0.3583984-0.1582031-0.640625-0.1582031c-0.0898438,0-0.1943359,0.0039063-0.3115234,0.0117188v-0.2114258
			L28.2910156,55.921711z"/>
	</g>
	<g id="XMLID_33_">
		<path id="XMLID_63_" class="st1" d="M33.8164063,62.3704414h3.5664063v0.3349609h-3.5664063V62.3704414z"/>
	</g>
</g>
<g id="XMLID_37_">
	<g id="XMLID_38_">
		<path id="XMLID_55_" class="st3" d="M82.6054688,41.8723946c0.5117188-1.5366211,1.2167969-2.7202148,2.1162109-3.5512695
			c0.6777344-0.6235352,1.3466797-0.9360352,2.0048828-0.9360352c0.6386719,0,1.0839844,0.300293,1.3359375,0.9008789
			c0.3525391,0.8383789,0.2861328,1.9799805-0.1933594,3.4233398c-0.4570313,1.3730469-1.1259766,2.4570313-2.0097656,3.2529297
			c-0.6884766,0.6162109-1.3598633,0.9248047-2.0141602,0.9248047c-0.3535156,0-0.6479492-0.0859375-0.8833008-0.2578125
			c-0.234375-0.1708984-0.4111328-0.4199219-0.5297852-0.7431641c-0.1176758-0.3232422-0.1762695-0.6669922-0.1772461-1.0292969
			C82.2568359,43.2317696,82.3730469,42.5716133,82.6054688,41.8723946z M83.7304688,41.8430977
			c-0.215332,0.6953125-0.3701172,1.3183594-0.4648438,1.8730469c-0.0737305,0.421875-0.0810547,0.7871094-0.0209961,1.0996094
			c0.034668,0.1875,0.1240234,0.3466797,0.2670898,0.4775391c0.144043,0.1308594,0.3222656,0.1953125,0.5361328,0.1953125
			c0.2490234,0,0.5253906-0.1171875,0.8271484-0.3515625c0.3017578-0.2333984,0.5957031-0.609375,0.8837891-1.1279297
			c0.2871094-0.5195313,0.5957031-1.2412109,0.9267578-2.1660156H83.7304688z M86.8251953,41.4578438
			c0.3359375-1.0185547,0.5107422-1.8359375,0.5244141-2.4521484c0.0087891-0.4716797-0.0742188-0.8095703-0.2529297-1.0126953
			c-0.1298828-0.1474609-0.3105469-0.222168-0.5449219-0.222168c-0.2646484,0-0.5429688,0.1035156-0.8330078,0.3100586
			c-0.2900391,0.2070313-0.5742188,0.5522461-0.8496094,1.0361328c-0.2763672,0.4838867-0.6132813,1.2641602-1.0102539,2.3408203
			H86.8251953z"/>
	</g>
</g>
<g id="XMLID_8_">
	<g id="XMLID_60_">
		<g id="XMLID_61_">
			<polygon id="XMLID_62_" class="st4" points="86.4493408,28.3438015 87.3204193,30.1512966 94.7257996,23.7768764 
				85.124054,25.593832 85.9952087,27.4014492 70.414032,34.91045 70.8681793,35.8528023 			"/>
		</g>
	</g>
</g>
<g id="XMLID_9_">
	<g id="XMLID_49_">
		<g id="XMLID_50_">
			<polygon id="XMLID_51_" class="st4" points="54.5218964,31.6763515 54.9093018,29.7076931 45.1604156,30.3650723 
				53.9324646,34.6715889 54.3199158,32.7027473 70.5401001,35.8946724 70.7420807,34.8682747 			"/>
		</g>
	</g>
</g>
<circle id="XMLID_2_" cx="70.6410751" cy="35.3815536" r="2.1589286"/>
<g id="XMLID_11_">
	<g id="XMLID_17_">
		<path id="XMLID_53_" class="st4" d="M90.1147461,12.3699541h6.059082l-0.6523438,2.09375h-0.2236328
			c0.0742188-0.3061523,0.1113281-0.5795898,0.1113281-0.8198242c0-0.2832031-0.0878906-0.496582-0.2646484-0.6401367
			c-0.1337891-0.1083984-0.4765625-0.1625977-1.0292969-0.1625977h-0.6298828l-1.5766602,5.4326181
			c-0.199707,0.6826172-0.2998047,1.1035156-0.2998047,1.2617188c0,0.1474609,0.0625,0.2685547,0.1879883,0.3642578
			c0.1254883,0.0947266,0.347168,0.1425781,0.6650391,0.1425781h0.2705078l-0.0703125,0.2148438H89.190918l0.0644531-0.2148438
			h0.1533203c0.3056641,0,0.5410156-0.0488281,0.7060547-0.1455078c0.1132813-0.0664063,0.2163086-0.1855469,0.3085938-0.3583984
			c0.0922852-0.171875,0.2207031-0.5380859,0.3852539-1.0957031l1.6533203-5.6015635h-0.4765625
			c-0.4589844,0-0.8286133,0.0581055-1.1088867,0.1743164c-0.2807617,0.1162109-0.5068359,0.2851563-0.6796875,0.5058594
			c-0.1723633,0.2211914-0.3134766,0.5351563-0.4233398,0.9423828h-0.2177734L90.1147461,12.3699541z"/>
	</g>
</g>
<g id="XMLID_10_">
	<g id="XMLID_23_">
		<path id="XMLID_47_" class="st4" d="M46.9248047,17.1980801h6.059082l-0.6523438,2.09375h-0.2236328
			c0.0742188-0.3061523,0.1113281-0.5795898,0.1113281-0.8198242c0-0.2832031-0.0878906-0.496582-0.2646484-0.6401367
			c-0.1337891-0.1083984-0.4765625-0.1625977-1.0292969-0.1625977h-0.6298828L48.71875,23.1018887
			c-0.199707,0.6826172-0.2998047,1.1035156-0.2998047,1.2617188c0,0.1474609,0.0625,0.2685547,0.1879883,0.3642578
			c0.1254883,0.0947266,0.347168,0.1425781,0.6650391,0.1425781h0.2705078l-0.0703125,0.2148438h-3.4711914l0.0644531-0.2148438
			H46.21875c0.3056641,0,0.5410156-0.0488281,0.7060547-0.1455078c0.1132813-0.0664063,0.2163086-0.1855469,0.3085938-0.3583984
			c0.0922852-0.171875,0.2207031-0.5380859,0.3852539-1.0957031l1.6533203-5.6015625h-0.4765625
			c-0.4589844,0-0.8286133,0.0581055-1.1088867,0.1743164c-0.2807617,0.1162109-0.5068359,0.2851563-0.6796875,0.5058594
			c-0.1723633,0.2211914-0.3134766,0.5351563-0.4233398,0.9423828h-0.2177734L46.9248047,17.1980801z"/>
	</g>
</g>
<g id="XMLID_46_">
</g>
<g id="XMLID_90_">
</g>
<g id="XMLID_91_">
</g>
<g id="XMLID_92_">
</g>
<g id="XMLID_93_">
</g>
<g id="XMLID_94_">
</g>
</svg>
