<?xml version="1.0" encoding="UTF-8" standalone="no"?>
<svg
   xmlns:dc="http://purl.org/dc/elements/1.1/"
   xmlns:cc="http://web.resource.org/cc/"
   xmlns:rdf="http://www.w3.org/1999/02/22-rdf-syntax-ns#"
   xmlns:svg="http://www.w3.org/2000/svg"
   xmlns="http://www.w3.org/2000/svg"
   xmlns:sodipodi="http://sodipodi.sourceforge.net/DTD/sodipodi-0.dtd"
   xmlns:inkscape="http://www.inkscape.org/namespaces/inkscape"
   preserveAspectRatio="xMinYMin meet"
   width="5478"
   height="3964"
   viewBox="0 0 5478 3964"
   version="1.0"
   id="svg2"
   sodipodi:version="0.32"
   inkscape:version="0.45.1"
   sodipodi:docname="Wave_packet.svg"
   inkscape:output_extension="org.inkscape.output.svg.inkscape"
   sodipodi:docbase="C:\Documents and Settings\YoungAe Han\Desktop">
  <metadata
     id="metadata36">
    <rdf:RDF>
      <cc:Work
         rdf:about="">
        <dc:format>image/svg+xml</dc:format>
        <dc:type
           rdf:resource="http://purl.org/dc/dcmitype/StillImage" />
      </cc:Work>
    </rdf:RDF>
  </metadata>
  <defs
     id="defs34" />
  <sodipodi:namedview
     inkscape:window-height="573"
     inkscape:window-width="744"
     inkscape:pageshadow="2"
     inkscape:pageopacity="0.0"
     guidetolerance="10.0"
     gridtolerance="10.0"
     objecttolerance="10.0"
     borderopacity="1.0"
     bordercolor="#666666"
     pagecolor="#ffffff"
     id="base"
     width="5478px"
     height="3964px"
     inkscape:zoom="0.05141355"
     inkscape:cx="3456"
     inkscape:cy="2592.5"
     inkscape:window-x="88"
     inkscape:window-y="116"
     inkscape:current-layer="g13" />
  <desc
     id="desc4">Matlab Figure Converted by PLOT2SVG written by Juerg Schwizer</desc>
  <g
     id="g8"
     transform="translate(-898.56,-593.656)">
    <clipPath
       id="ID000000">
      <rect
         x="898.56"
         y="473.93701"
         width="5356.7998"
         height="4055.6499"
         id="rect11" />
    </clipPath>
    <g
       id="g13">
      <g
         clip-path="url(#ID000000)"
         id="g15"
         transform="translate(77.800503,77.800502)">
        <polyline
           points="898.560,2501.762 909.295,2501.762 920.030,2501.762 930.765,2501.762 941.500,2501.762 952.235,2501.762 962.970,2501.762 973.705,2501.762 984.441,2501.762 995.176,2501.762 1005.911,2501.762 1016.646,2501.762 1027.381,2501.762 1038.116,2501.762 1048.851,2501.762 1059.586,2501.762 1070.321,2501.762 1081.056,2501.762 1091.791,2501.762 1102.526,2501.762 1113.261,2499.222 1123.996,2495.026 1134.732,2490.625 1145.467,2486.025 1156.202,2481.232 1166.937,2476.252 1177.672,2471.095 1188.407,2465.769 1199.142,2460.284 1209.877,2454.651 1220.612,2448.882 1231.347,2442.990 1242.082,2436.988 1252.817,2430.892 1263.552,2424.716 1274.287,2418.477 1285.023,2412.194 1295.758,2405.883 1306.493,2399.563 1317.228,2393.255 1327.963,2386.979 1338.698,2380.756 1349.433,2374.607 1360.168,2368.555 1370.903,2362.623 1381.638,2356.834 1392.373,2351.211 1403.108,2345.780 1413.843,2340.563 1424.578,2335.585 1435.314,2330.872 1446.049,2326.448 1456.784,2322.337 1467.519,2318.565 1478.254,2315.155 1488.989,2312.132 1499.724,2309.520 1510.459,2307.342 1521.194,2305.621 1531.929,2304.379 1542.664,2303.639 1553.399,2303.421 1564.134,2303.746 1574.869,2304.632 1585.604,2306.099 1596.340,2308.163 1607.075,2310.840 1617.810,2314.145 1628.545,2318.093 1639.280,2322.695 1650.015,2327.961 1660.750,2333.902 1671.485,2340.526 1682.220,2347.837 1692.955,2355.842 1703.690,2364.542 1714.425,2373.940 1725.160,2384.034 1735.895,2394.821 1746.631,2406.298 1757.366,2418.458 1768.101,2431.294 1778.836,2444.794 1789.571,2458.948 1800.306,2473.741 1811.041,2489.157 1821.776,2505.180 1832.511,2521.788 1843.246,2538.961 1853.981,2556.675 1864.716,2574.906 1875.451,2593.625 1886.186,2612.805 1896.922,2632.415 1907.657,2652.422 1918.392,2672.794 1929.127,2693.495 1939.862,2714.487 1950.597,2735.734 1961.332,2757.196 1972.067,2778.831 1982.802,2800.598 1993.537,2822.455 2004.272,2844.357 2015.007,2866.260 2025.742,2888.118 2036.477,2909.885 2047.213,2931.515 2057.948,2952.959 2068.683,2974.171 2079.418,2995.103 2090.153,3015.706 2100.888,3035.934 2111.623,3055.737 2122.358,3075.069 2133.093,3093.882 2143.828,3112.130 2154.563,3129.765 2165.298,3146.743 2176.033,3163.019 2186.768,3178.548 2197.503,3193.288 2208.239,3207.197 2218.974,3220.234 2229.709,3232.360 2240.444,3243.537 2251.179,3253.728 2261.914,3262.900 2272.649,3271.017 2283.384,3278.050 2294.119,3283.968 2304.854,3288.744 2315.589,3292.352 2326.324,3294.769 2337.059,3295.972 2347.794,3295.942 2358.530,3294.662 2369.265,3292.116 2380.000,3288.293 2390.735,3283.181 2401.470,3276.772 2412.205,3269.061 2422.940,3260.043 2433.675,3249.717 2444.410,3238.085 2455.145,3225.151 2465.880,3210.919 2476.615,3195.398 2487.350,3178.598 2498.085,3160.533 2508.821,3141.217 2519.556,3120.666 2530.291,3098.901 2541.026,3075.943 2551.761,3051.815 2562.496,3026.542 2573.231,3000.152 2583.966,2972.674 2594.701,2944.139 2605.436,2914.579 2616.171,2884.029 2626.906,2852.525 2637.641,2820.104 2648.376,2786.805 2659.112,2752.667 2669.847,2717.732 2680.582,2682.043 2691.317,2645.642 2702.052,2608.574 2712.787,2570.884 2723.522,2532.617 2734.257,2493.821 2744.992,2454.542 2755.727,2414.827 2766.462,2374.724 2777.197,2334.282 2787.932,2293.547 2798.667,2252.569 2809.402,2211.394 2820.138,2170.072 2830.873,2128.649 2841.608,2087.173 2852.343,2045.690 2863.078,2004.247 2873.813,1962.890 2884.548,1921.663 2895.283,1880.610 2906.018,1839.775 2916.753,1799.200 2927.488,1758.926 2938.223,1718.995 2948.958,1679.444 2959.693,1640.312 2970.429,1601.636 2981.164,1563.451 2991.899,1525.792 3002.634,1488.690 3013.369,1452.177 3024.104,1416.283 3034.839,1381.036 3045.574,1346.462 3056.309,1312.588 3067.044,1279.436 3077.779,1247.028 3088.514,1215.384 3099.249,1184.523 3109.984,1154.462 3120.720,1125.217 3131.455,1096.800 3142.190,1069.224 3152.925,1042.498 3163.660,1016.633 3174.395,991.634 3185.130,967.507 3195.865,944.256 3206.600,921.882 3217.335,900.387 3228.070,879.770 3238.805,860.028 3249.540,841.157 3260.275,823.152 3271.011,806.006 3281.746,789.712 3292.481,774.258 3303.216,759.635 3313.951,745.831 3324.686,732.832 3335.421,720.624 3346.156,709.192 3356.891,698.518 3367.626,688.585 3378.361,679.374 3389.096,670.866 3399.831,663.041 3410.566,655.876 3421.301,649.350 3432.037,643.440 3442.772,638.122 3453.507,633.372 3464.242,629.165 3474.977,625.476 3485.712,622.278 3496.447,619.546 3507.182,617.252 3517.917,615.370 3528.652,613.872 3539.387,612.729 3550.122,611.915 3560.857,611.400 3571.592,611.156 3582.328,611.156 3593.063,611.400 3603.798,611.915 3614.533,612.729 3625.268,613.872 3636.003,615.370 3646.738,617.252 3657.473,619.546 3668.208,622.278 3678.943,625.476 3689.678,629.165 3700.413,633.372 3711.148,638.122 3721.883,643.440 3732.619,649.350 3743.354,655.876 3754.089,663.041 3764.824,670.866 3775.559,679.374 3786.294,688.585 3797.029,698.518 3807.764,709.192 3818.499,720.624 3829.234,732.832 3839.969,745.831 3850.704,759.635 3861.439,774.258 3872.174,789.712 3882.909,806.006 3893.645,823.152 3904.380,841.157 3915.115,860.028 3925.850,879.770 3936.585,900.387 3947.320,921.882 3958.055,944.256 3968.790,967.507 3979.525,991.634 3990.260,1016.633 4000.995,1042.498 4011.730,1069.224 4022.465,1096.800 4033.200,1125.217 4043.936,1154.462 4054.671,1184.523 4065.406,1215.384 4076.141,1247.028 4086.876,1279.436 4097.611,1312.588 4108.346,1346.462 4119.081,1381.036 4129.816,1416.283 4140.551,1452.177 4151.286,1488.690 4162.021,1525.792 4172.756,1563.451 4183.491,1601.636 4194.227,1640.312 4204.962,1679.444 4215.697,1718.995 4226.432,1758.926 4237.167,1799.200 4247.902,1839.775 4258.637,1880.610 4269.372,1921.663 4280.107,1962.890 4290.842,2004.247 4301.577,2045.690 4312.312,2087.173 4323.047,2128.649 4333.782,2170.072 4344.518,2211.394 4355.253,2252.569 4365.988,2293.547 4376.723,2334.282 4387.458,2374.724 4398.193,2414.827 4408.928,2454.542 4419.663,2493.821 4430.398,2532.617 4441.133,2570.884 4451.868,2608.574 4462.603,2645.642 4473.338,2682.043 4484.073,2717.732 4494.808,2752.667 4505.544,2786.805 4516.279,2820.104 4527.014,2852.525 4537.749,2884.029 4548.484,2914.579 4559.219,2944.139 4569.954,2972.674 4580.689,3000.152 4591.424,3026.542 4602.159,3051.815 4612.894,3075.943 4623.629,3098.901 4634.364,3120.666 4645.099,3141.217 4655.835,3160.533 4666.570,3178.598 4677.305,3195.398 4688.040,3210.919 4698.775,3225.151 4709.510,3238.085 4720.245,3249.717 4730.980,3260.043 4741.715,3269.061 4752.450,3276.772 4763.185,3283.181 4773.920,3288.293 4784.655,3292.116 4795.390,3294.662 4806.126,3295.942 4816.861,3295.972 4827.596,3294.769 4838.331,3292.352 4849.066,3288.744 4859.801,3283.968 4870.536,3278.050 4881.271,3271.017 4892.006,3262.900 4902.741,3253.728 4913.476,3243.537 4924.211,3232.360 4934.946,3220.234 4945.681,3207.197 4956.417,3193.288 4967.152,3178.548 4977.887,3163.019 4988.622,3146.743 4999.357,3129.765 5010.092,3112.130 5020.827,3093.882 5031.562,3075.069 5042.297,3055.737 5053.032,3035.934 5063.767,3015.706 5074.502,2995.103 5085.237,2974.171 5095.972,2952.959 5106.707,2931.515 5117.443,2909.885 5128.178,2888.118 5138.913,2866.260 5149.648,2844.357 5160.383,2822.455 5171.118,2800.598 5181.853,2778.831 5192.588,2757.196 5203.323,2735.734 5214.058,2714.487 5224.793,2693.495 5235.528,2672.794 5246.263,2652.422 5256.998,2632.415 5267.734,2612.805 5278.469,2593.625 5289.204,2574.906 5299.939,2556.675 5310.674,2538.961 5321.409,2521.788 5332.144,2505.180 5342.879,2489.157 5353.614,2473.741 5364.349,2458.948 5375.084,2444.794 5385.819,2431.294 5396.554,2418.458 5407.289,2406.298 5418.025,2394.821 5428.760,2384.034 5439.495,2373.940 5450.230,2364.542 5460.965,2355.842 5471.700,2347.837 5482.435,2340.526 5493.170,2333.902 5503.905,2327.961 5514.640,2322.695 5525.375,2318.093 5536.110,2314.145 5546.845,2310.840 5557.580,2308.163 5568.316,2306.099 5579.051,2304.632 5589.786,2303.746 5600.521,2303.421 5611.256,2303.639 5621.991,2304.379 5632.726,2305.621 5643.461,2307.342 5654.196,2309.520 5664.931,2312.132 5675.666,2315.155 5686.401,2318.565 5697.136,2322.337 5707.871,2326.448 5718.606,2330.872 5729.342,2335.585 5740.077,2340.563 5750.812,2345.780 5761.547,2351.211 5772.282,2356.834 5783.017,2362.623 5793.752,2368.555 5804.487,2374.607 5815.222,2380.756 5825.957,2386.979 5836.692,2393.255 5847.427,2399.563 5858.162,2405.883 5868.897,2412.194 5879.633,2418.477 5890.368,2424.716 5901.103,2430.892 5911.838,2436.988 5922.573,2442.990 5933.308,2448.882 5944.043,2454.651 5954.778,2460.284 5965.513,2465.769 5976.248,2471.095 5986.983,2476.252 5997.718,2481.232 6008.453,2486.025 6019.188,2490.625 6029.924,2495.026 6040.659,2499.222 6051.394,2501.762 6062.129,2501.762 6072.864,2501.762 6083.599,2501.762 6094.334,2501.762 6105.069,2501.762 6115.804,2501.762 6126.539,2501.762 6137.274,2501.762 6148.009,2501.762 6158.744,2501.762 6169.479,2501.762 6180.215,2501.762 6190.950,2501.762 6201.685,2501.762 6212.420,2501.762 6223.155,2501.762 6233.890,2501.762 6244.625,2501.762 6255.360,2501.762 "
           id="polyline17"
           style="fill:none;stroke:#dd0f23;stroke-width:35;stroke-miterlimit:4;stroke-dasharray:210, 35;stroke-dashoffset:0" />
        <g
           id="g19" />
      </g>
      <g
         clip-path="url(#ID000000)"
         id="g21"
         transform="translate(19.450126,0)">
        <polyline
           points="898.560,2501.762 909.295,2501.762 920.030,2501.762 930.765,2501.762 941.500,2501.762 952.235,2501.762 962.970,2501.762 973.705,2501.762 984.441,2501.762 995.176,2501.762 1005.911,2501.762 1016.646,2501.762 1027.381,2501.762 1038.116,2501.762 1048.851,2501.762 1059.586,2501.762 1070.321,2501.762 1081.056,2501.762 1091.791,2501.762 1102.526,2501.762 1113.261,2504.303 1123.996,2508.499 1134.732,2512.900 1145.467,2517.500 1156.202,2522.293 1166.937,2527.273 1177.672,2532.430 1188.407,2537.756 1199.142,2543.241 1209.877,2548.874 1220.612,2554.643 1231.347,2560.535 1242.082,2566.537 1252.817,2572.633 1263.552,2578.809 1274.287,2585.048 1285.023,2591.331 1295.758,2597.642 1306.493,2603.962 1317.228,2610.270 1327.963,2616.546 1338.698,2622.769 1349.433,2628.918 1360.168,2634.970 1370.903,2640.902 1381.638,2646.691 1392.373,2652.314 1403.108,2657.745 1413.843,2662.962 1424.578,2667.940 1435.314,2672.653 1446.049,2677.077 1456.784,2681.188 1467.519,2684.960 1478.254,2688.370 1488.989,2691.393 1499.724,2694.005 1510.459,2696.183 1521.194,2697.904 1531.929,2699.146 1542.664,2699.886 1553.399,2700.104 1564.134,2699.779 1574.869,2698.893 1585.604,2697.426 1596.340,2695.362 1607.075,2692.685 1617.810,2689.380 1628.545,2685.432 1639.280,2680.830 1650.015,2675.564 1660.750,2669.623 1671.485,2662.999 1682.220,2655.688 1692.955,2647.683 1703.690,2638.983 1714.425,2629.585 1725.160,2619.491 1735.895,2608.704 1746.631,2597.227 1757.366,2585.067 1768.101,2572.231 1778.836,2558.731 1789.571,2544.577 1800.306,2529.784 1811.041,2514.368 1821.776,2498.345 1832.511,2481.737 1843.246,2464.564 1853.981,2446.850 1864.716,2428.619 1875.451,2409.900 1886.186,2390.720 1896.922,2371.110 1907.657,2351.103 1918.392,2330.731 1929.127,2310.030 1939.862,2289.038 1950.597,2267.791 1961.332,2246.329 1972.067,2224.694 1982.802,2202.927 1993.537,2181.070 2004.272,2159.168 2015.007,2137.265 2025.742,2115.407 2036.477,2093.640 2047.213,2072.010 2057.948,2050.566 2068.683,2029.354 2079.418,2008.422 2090.153,1987.819 2100.888,1967.591 2111.623,1947.788 2122.358,1928.456 2133.093,1909.643 2143.828,1891.395 2154.563,1873.760 2165.298,1856.782 2176.033,1840.506 2186.768,1824.977 2197.503,1810.237 2208.239,1796.328 2218.974,1783.291 2229.709,1771.165 2240.444,1759.988 2251.179,1749.797 2261.914,1740.625 2272.649,1732.508 2283.384,1725.475 2294.119,1719.557 2304.854,1714.781 2315.589,1711.173 2326.324,1708.756 2337.059,1707.553 2347.794,1707.583 2358.530,1708.863 2369.265,1711.409 2380.000,1715.232 2390.735,1720.344 2401.470,1726.753 2412.205,1734.464 2422.940,1743.482 2433.675,1753.808 2444.410,1765.440 2455.145,1778.374 2465.880,1792.606 2476.615,1808.127 2487.350,1824.927 2498.085,1842.992 2508.821,1862.308 2519.556,1882.859 2530.291,1904.624 2541.026,1927.582 2551.761,1951.710 2562.496,1976.983 2573.231,2003.373 2583.966,2030.851 2594.701,2059.386 2605.436,2088.946 2616.171,2119.496 2626.906,2151.000 2637.641,2183.421 2648.376,2216.720 2659.112,2250.858 2669.847,2285.793 2680.582,2321.482 2691.317,2357.883 2702.052,2394.951 2712.787,2432.641 2723.522,2470.908 2734.257,2509.704 2744.992,2548.983 2755.727,2588.698 2766.462,2628.801 2777.197,2669.243 2787.932,2709.978 2798.667,2750.956 2809.402,2792.131 2820.138,2833.453 2830.873,2874.876 2841.608,2916.352 2852.343,2957.835 2863.078,2999.278 2873.813,3040.635 2884.548,3081.862 2895.283,3122.915 2906.018,3163.750 2916.753,3204.325 2927.488,3244.599 2938.223,3284.530 2948.958,3324.081 2959.693,3363.213 2970.429,3401.889 2981.164,3440.074 2991.899,3477.733 3002.634,3514.835 3013.369,3551.348 3024.104,3587.242 3034.839,3622.489 3045.574,3657.063 3056.309,3690.937 3067.044,3724.089 3077.779,3756.497 3088.514,3788.141 3099.249,3819.002 3109.984,3849.063 3120.720,3878.308 3131.455,3906.725 3142.190,3934.301 3152.925,3961.027 3163.660,3986.892 3174.395,4011.891 3185.130,4036.018 3195.865,4059.269 3206.600,4081.643 3217.335,4103.138 3228.070,4123.755 3238.805,4143.497 3249.540,4162.368 3260.275,4180.373 3271.011,4197.519 3281.746,4213.813 3292.481,4229.267 3303.216,4243.890 3313.951,4257.694 3324.686,4270.693 3335.421,4282.901 3346.156,4294.333 3356.891,4305.007 3367.626,4314.940 3378.361,4324.151 3389.096,4332.659 3399.831,4340.484 3410.566,4347.649 3421.301,4354.175 3432.037,4360.085 3442.772,4365.403 3453.507,4370.153 3464.242,4374.360 3474.977,4378.049 3485.712,4381.247 3496.447,4383.979 3507.182,4386.273 3517.917,4388.155 3528.652,4389.653 3539.387,4390.796 3550.122,4391.610 3560.857,4392.125 3571.592,4392.369 3582.328,4392.369 3593.063,4392.125 3603.798,4391.610 3614.533,4390.796 3625.268,4389.653 3636.003,4388.155 3646.738,4386.273 3657.473,4383.979 3668.208,4381.247 3678.943,4378.049 3689.678,4374.360 3700.413,4370.153 3711.148,4365.403 3721.883,4360.085 3732.619,4354.175 3743.354,4347.649 3754.089,4340.484 3764.824,4332.659 3775.559,4324.151 3786.294,4314.940 3797.029,4305.007 3807.764,4294.333 3818.499,4282.901 3829.234,4270.693 3839.969,4257.694 3850.704,4243.890 3861.439,4229.267 3872.174,4213.813 3882.909,4197.519 3893.645,4180.373 3904.380,4162.368 3915.115,4143.497 3925.850,4123.755 3936.585,4103.138 3947.320,4081.643 3958.055,4059.269 3968.790,4036.018 3979.525,4011.891 3990.260,3986.892 4000.995,3961.027 4011.730,3934.301 4022.465,3906.725 4033.200,3878.308 4043.936,3849.063 4054.671,3819.002 4065.406,3788.141 4076.141,3756.497 4086.876,3724.089 4097.611,3690.937 4108.346,3657.063 4119.081,3622.489 4129.816,3587.242 4140.551,3551.348 4151.286,3514.835 4162.021,3477.733 4172.756,3440.074 4183.491,3401.889 4194.227,3363.213 4204.962,3324.081 4215.697,3284.530 4226.432,3244.599 4237.167,3204.325 4247.902,3163.750 4258.637,3122.915 4269.372,3081.862 4280.107,3040.635 4290.842,2999.278 4301.577,2957.835 4312.312,2916.352 4323.047,2874.876 4333.782,2833.453 4344.518,2792.131 4355.253,2750.956 4365.988,2709.978 4376.723,2669.243 4387.458,2628.801 4398.193,2588.698 4408.928,2548.983 4419.663,2509.704 4430.398,2470.908 4441.133,2432.641 4451.868,2394.951 4462.603,2357.883 4473.338,2321.482 4484.073,2285.793 4494.808,2250.858 4505.544,2216.720 4516.279,2183.421 4527.014,2151.000 4537.749,2119.496 4548.484,2088.946 4559.219,2059.386 4569.954,2030.851 4580.689,2003.373 4591.424,1976.983 4602.159,1951.710 4612.894,1927.582 4623.629,1904.624 4634.364,1882.859 4645.099,1862.308 4655.835,1842.992 4666.570,1824.927 4677.305,1808.127 4688.040,1792.606 4698.775,1778.374 4709.510,1765.440 4720.245,1753.808 4730.980,1743.482 4741.715,1734.464 4752.450,1726.753 4763.185,1720.344 4773.920,1715.232 4784.655,1711.409 4795.390,1708.863 4806.126,1707.583 4816.861,1707.553 4827.596,1708.756 4838.331,1711.173 4849.066,1714.781 4859.801,1719.557 4870.536,1725.475 4881.271,1732.508 4892.006,1740.625 4902.741,1749.797 4913.476,1759.988 4924.211,1771.165 4934.946,1783.291 4945.681,1796.328 4956.417,1810.237 4967.152,1824.977 4977.887,1840.506 4988.622,1856.782 4999.357,1873.760 5010.092,1891.395 5020.827,1909.643 5031.562,1928.456 5042.297,1947.788 5053.032,1967.591 5063.767,1987.819 5074.502,2008.422 5085.237,2029.354 5095.972,2050.566 5106.707,2072.010 5117.443,2093.640 5128.178,2115.407 5138.913,2137.265 5149.648,2159.168 5160.383,2181.070 5171.118,2202.927 5181.853,2224.694 5192.588,2246.329 5203.323,2267.791 5214.058,2289.038 5224.793,2310.030 5235.528,2330.731 5246.263,2351.103 5256.998,2371.110 5267.734,2390.720 5278.469,2409.900 5289.204,2428.619 5299.939,2446.850 5310.674,2464.564 5321.409,2481.737 5332.144,2498.345 5342.879,2514.368 5353.614,2529.784 5364.349,2544.577 5375.084,2558.731 5385.819,2572.231 5396.554,2585.067 5407.289,2597.227 5418.025,2608.704 5428.760,2619.491 5439.495,2629.585 5450.230,2638.983 5460.965,2647.683 5471.700,2655.688 5482.435,2662.999 5493.170,2669.623 5503.905,2675.564 5514.640,2680.830 5525.375,2685.432 5536.110,2689.380 5546.845,2692.685 5557.580,2695.362 5568.316,2697.426 5579.051,2698.893 5589.786,2699.779 5600.521,2700.104 5611.256,2699.886 5621.991,2699.146 5632.726,2697.904 5643.461,2696.183 5654.196,2694.005 5664.931,2691.393 5675.666,2688.370 5686.401,2684.960 5697.136,2681.188 5707.871,2677.077 5718.606,2672.653 5729.342,2667.940 5740.077,2662.962 5750.812,2657.745 5761.547,2652.314 5772.282,2646.691 5783.017,2640.902 5793.752,2634.970 5804.487,2628.918 5815.222,2622.769 5825.957,2616.546 5836.692,2610.270 5847.427,2603.962 5858.162,2597.642 5868.897,2591.331 5879.633,2585.048 5890.368,2578.809 5901.103,2572.633 5911.838,2566.537 5922.573,2560.535 5933.308,2554.643 5944.043,2548.874 5954.778,2543.241 5965.513,2537.756 5976.248,2532.430 5986.983,2527.273 5997.718,2522.293 6008.453,2517.500 6019.188,2512.900 6029.924,2508.499 6040.659,2504.303 6051.394,2501.762 6062.129,2501.762 6072.864,2501.762 6083.599,2501.762 6094.334,2501.762 6105.069,2501.762 6115.804,2501.762 6126.539,2501.762 6137.274,2501.762 6148.009,2501.762 6158.744,2501.762 6169.479,2501.762 6180.215,2501.762 6190.950,2501.762 6201.685,2501.762 6212.420,2501.762 6223.155,2501.762 6233.890,2501.762 6244.625,2501.762 6255.360,2501.762 "
           id="polyline23"
           style="fill:none;stroke:#dd0f23;stroke-width:35;stroke-miterlimit:4;stroke-dasharray:210, 35;stroke-dashoffset:0"
           transform="translate(58.350377,77.800502)" />
        <g
           id="g25" />
      </g>
      <g
         clip-path="url(#ID000000)"
         id="g27"
         transform="translate(77.800503,77.800502)">
        <polyline
           points="898.560,2501.762 909.295,2501.762 920.030,2501.762 930.765,2501.762 941.500,2501.762 952.235,2501.762 962.970,2501.762 973.705,2501.762 984.441,2501.762 995.176,2501.762 1005.911,2501.762 1016.646,2501.762 1027.381,2501.762 1038.116,2501.762 1048.851,2501.762 1059.586,2501.762 1070.321,2501.762 1081.056,2501.762 1091.791,2501.762 1102.526,2501.762 1113.261,2499.392 1123.996,2496.706 1134.732,2496.476 1145.467,2499.562 1156.202,2506.123 1166.937,2515.493 1177.672,2526.210 1188.407,2536.213 1199.142,2543.165 1209.877,2544.879 1220.612,2539.760 1231.347,2527.190 1242.082,2507.785 1252.817,2483.460 1263.552,2457.278 1274.287,2433.070 1285.023,2414.905 1295.758,2406.438 1306.493,2410.275 1317.228,2427.440 1327.963,2457.040 1338.698,2496.208 1349.433,2540.357 1360.168,2583.718 1370.903,2620.106 1381.638,2643.817 1392.373,2650.513 1403.108,2637.962 1413.843,2606.514 1424.578,2559.219 1435.314,2501.546 1446.049,2440.731 1456.784,2384.823 1467.519,2341.575 1478.254,2317.315 1488.989,2315.988 1499.724,2338.509 1510.459,2382.534 1521.194,2442.702 1531.929,2511.322 1542.664,2579.419 1553.399,2637.982 1564.134,2679.247 1574.869,2697.805 1585.604,2691.382 1596.340,2661.163 1607.075,2611.602 1617.810,2549.755 1628.545,2484.224 1639.280,2423.883 1650.015,2376.571 1660.750,2347.964 1671.485,2340.796 1682.220,2354.548 1692.955,2385.658 1703.690,2428.200 1714.425,2474.931 1725.160,2518.519 1735.895,2552.763 1746.631,2573.573 1757.366,2579.577 1768.101,2572.227 1778.836,2555.401 1789.571,2534.567 1800.306,2515.652 1811.041,2503.824 1821.776,2502.408 1832.511,2512.132 1843.246,2530.869 1853.981,2553.924 1864.716,2574.857 1875.451,2586.701 1886.186,2583.384 1896.922,2561.099 1907.657,2519.367 1918.392,2461.575 1929.127,2394.852 1939.862,2329.249 1950.597,2276.310 1961.332,2247.222 1972.067,2250.841 1982.802,2291.905 1993.537,2369.756 2004.272,2477.823 2015.007,2604.025 2025.742,2732.084 2036.477,2843.632 2047.213,2920.826 2057.948,2949.104 2068.683,2919.664 2079.418,2831.258 2090.153,2690.989 2100.888,2513.913 2111.623,2321.434 2122.358,2138.661 2133.093,1991.063 2143.828,1900.858 2154.563,1883.682 2165.298,1946.022 2176.033,2083.823 2186.768,2282.537 2197.503,2518.659 2208.239,2762.600 2218.974,2982.522 2229.709,3148.636 2240.444,3237.361 2251.179,3234.744 2261.914,3138.637 2272.649,2959.302 2283.384,2718.298 2294.119,2445.788 2304.854,2176.607 2315.589,1945.623 2326.324,1783.027 2337.059,1710.218 2347.794,1736.859 2358.530,1859.529 2369.265,2062.164 2380.000,2318.240 2390.735,2594.381 2401.470,2854.904 2412.205,3066.640 2422.940,3203.372 2433.675,3249.265 2444.410,3200.810 2455.145,3067.031 2465.880,2867.961 2476.615,2631.616 2487.350,2389.929 2498.085,2174.261 2508.821,2011.114 2519.556,1918.677 2530.291,1904.670 2541.026,1965.764 2551.761,2088.610 2562.496,2252.272 2573.231,2431.657 2583.966,2601.391 2594.701,2739.545 2605.436,2830.648 2616.171,2867.550 2626.906,2851.902 2637.641,2793.220 2648.376,2706.748 2659.112,2610.503 2669.847,2522.023 2680.582,2455.353 2691.317,2418.789 2702.052,2413.717 2712.787,2434.748 2723.522,2471.084 2734.257,2508.875 2744.992,2534.135 2755.727,2535.703 2766.462,2507.701 2777.197,2451.063 2787.932,2373.797 2798.667,2289.924 2809.402,2217.201 2820.138,2173.997 2830.873,2175.819 2841.608,2232.087 2852.343,2343.712 2863.078,2501.972 2873.813,2688.933 2884.548,2879.468 2895.283,3044.642 2906.018,3156.003 2916.753,3190.157 2927.488,3132.912 2938.223,2982.315 2948.958,2750.034 2959.693,2460.767 2970.429,2149.649 2981.164,1857.913 2991.899,1627.356 3002.634,1494.371 3013.369,1484.380 3024.104,1607.512 3034.839,1856.225 3045.574,2205.297 3056.309,2614.318 3067.044,3032.442 3077.779,3404.829 3088.514,3679.943 3099.249,3816.728 3109.984,3790.651 3120.720,3597.736 3131.455,3255.948 3142.190,2803.656 3152.925,2295.277 3163.660,1794.600 3174.395,1366.641 3185.130,1069.068 3195.865,944.360 3206.600,1013.763 3217.335,1273.907 3228.070,1696.593 3238.805,2231.865 3249.540,2814.015 3260.275,3369.787 3271.011,3827.749 3281.746,4127.596 3292.481,4228.172 3303.216,4113.133 3313.951,3793.458 3324.686,3306.466 3335.421,2711.383 3346.156,2082.028 3356.891,1497.526 3367.626,1032.226 3378.361,746.141 3389.096,677.137 3399.831,835.906 3410.566,1204.383 3421.301,1737.829 3432.037,2370.345 3442.772,3023.112 3453.507,3614.317 3464.242,4069.507 3474.977,4331.032 3485.712,4365.395 3496.447,4167.545 3507.182,3761.585 3517.917,3197.785 3528.652,2546.298 3539.387,1888.355 3550.122,1306.071 3560.857,872.144 3571.592,640.746 3582.328,640.746 3593.063,872.144 3603.798,1306.071 3614.533,1888.355 3625.268,2546.298 3636.003,3197.785 3646.738,3761.585 3657.473,4167.545 3668.208,4365.395 3678.943,4331.032 3689.678,4069.507 3700.413,3614.317 3711.148,3023.112 3721.883,2370.345 3732.619,1737.829 3743.354,1204.383 3754.089,835.906 3764.824,677.137 3775.559,746.141 3786.294,1032.226 3797.029,1497.526 3807.764,2082.028 3818.499,2711.383 3829.234,3306.466 3839.969,3793.458 3850.704,4113.133 3861.439,4228.172 3872.174,4127.596 3882.909,3827.749 3893.645,3369.787 3904.380,2814.015 3915.115,2231.865 3925.850,1696.593 3936.585,1273.907 3947.320,1013.763 3958.055,944.360 3968.790,1069.068 3979.525,1366.641 3990.260,1794.600 4000.995,2295.277 4011.730,2803.656 4022.465,3255.948 4033.200,3597.736 4043.936,3790.651 4054.671,3816.728 4065.406,3679.943 4076.141,3404.829 4086.876,3032.442 4097.611,2614.318 4108.346,2205.297 4119.081,1856.225 4129.816,1607.512 4140.551,1484.380 4151.286,1494.371 4162.021,1627.356 4172.756,1857.913 4183.491,2149.649 4194.227,2460.767 4204.962,2750.034 4215.697,2982.315 4226.432,3132.912 4237.167,3190.157 4247.902,3156.003 4258.637,3044.642 4269.372,2879.468 4280.107,2688.933 4290.842,2501.972 4301.577,2343.712 4312.312,2232.087 4323.047,2175.819 4333.782,2173.997 4344.518,2217.201 4355.253,2289.924 4365.988,2373.797 4376.723,2451.063 4387.458,2507.701 4398.193,2535.703 4408.928,2534.135 4419.663,2508.875 4430.398,2471.084 4441.133,2434.748 4451.868,2413.717 4462.603,2418.789 4473.338,2455.353 4484.073,2522.023 4494.808,2610.503 4505.544,2706.748 4516.279,2793.220 4527.014,2851.902 4537.749,2867.550 4548.484,2830.648 4559.219,2739.545 4569.954,2601.391 4580.689,2431.657 4591.424,2252.272 4602.159,2088.610 4612.894,1965.764 4623.629,1904.670 4634.364,1918.677 4645.099,2011.114 4655.835,2174.261 4666.570,2389.929 4677.305,2631.616 4688.040,2867.961 4698.775,3067.031 4709.510,3200.810 4720.245,3249.265 4730.980,3203.372 4741.715,3066.640 4752.450,2854.904 4763.185,2594.381 4773.920,2318.240 4784.655,2062.164 4795.390,1859.529 4806.126,1736.859 4816.861,1710.218 4827.596,1783.027 4838.331,1945.623 4849.066,2176.607 4859.801,2445.788 4870.536,2718.298 4881.271,2959.302 4892.006,3138.637 4902.741,3234.744 4913.476,3237.361 4924.211,3148.636 4934.946,2982.522 4945.681,2762.600 4956.417,2518.659 4967.152,2282.537 4977.887,2083.823 4988.622,1946.022 4999.357,1883.682 5010.092,1900.858 5020.827,1991.063 5031.562,2138.661 5042.297,2321.434 5053.032,2513.913 5063.767,2690.989 5074.502,2831.258 5085.237,2919.664 5095.972,2949.104 5106.707,2920.826 5117.443,2843.632 5128.178,2732.084 5138.913,2604.025 5149.648,2477.823 5160.383,2369.756 5171.118,2291.905 5181.853,2250.841 5192.588,2247.222 5203.323,2276.310 5214.058,2329.249 5224.793,2394.852 5235.528,2461.575 5246.263,2519.367 5256.998,2561.099 5267.734,2583.384 5278.469,2586.701 5289.204,2574.857 5299.939,2553.924 5310.674,2530.869 5321.409,2512.132 5332.144,2502.408 5342.879,2503.824 5353.614,2515.652 5364.349,2534.567 5375.084,2555.401 5385.819,2572.227 5396.554,2579.577 5407.289,2573.573 5418.025,2552.763 5428.760,2518.519 5439.495,2474.931 5450.230,2428.200 5460.965,2385.658 5471.700,2354.548 5482.435,2340.796 5493.170,2347.964 5503.905,2376.571 5514.640,2423.883 5525.375,2484.224 5536.110,2549.755 5546.845,2611.602 5557.580,2661.163 5568.316,2691.382 5579.051,2697.805 5589.786,2679.247 5600.521,2637.982 5611.256,2579.419 5621.991,2511.322 5632.726,2442.702 5643.461,2382.534 5654.196,2338.509 5664.931,2315.988 5675.666,2317.315 5686.401,2341.575 5697.136,2384.823 5707.871,2440.731 5718.606,2501.546 5729.342,2559.219 5740.077,2606.514 5750.812,2637.962 5761.547,2650.513 5772.282,2643.817 5783.017,2620.106 5793.752,2583.718 5804.487,2540.357 5815.222,2496.208 5825.957,2457.040 5836.692,2427.440 5847.427,2410.275 5858.162,2406.438 5868.897,2414.905 5879.633,2433.070 5890.368,2457.278 5901.103,2483.460 5911.838,2507.785 5922.573,2527.190 5933.308,2539.760 5944.043,2544.879 5954.778,2543.165 5965.513,2536.213 5976.248,2526.210 5986.983,2515.493 5997.718,2506.123 6008.453,2499.562 6019.188,2496.476 6029.924,2496.706 6040.659,2499.392 6051.394,2501.762 6062.129,2501.762 6072.864,2501.762 6083.599,2501.762 6094.334,2501.762 6105.069,2501.762 6115.804,2501.762 6126.539,2501.762 6137.274,2501.762 6148.009,2501.762 6158.744,2501.762 6169.479,2501.762 6180.215,2501.762 6190.950,2501.762 6201.685,2501.762 6212.420,2501.762 6223.155,2501.762 6233.890,2501.762 6244.625,2501.762 6255.360,2501.762 "
           id="polyline29"
           style="fill:none;stroke:#0080cc;stroke-width:40pt;stroke-linejoin:round;stroke-dasharray:none" />
        <g
           id="g31" />
      </g>
    </g>
  </g>
</svg>
