<?xml version="1.0" encoding="utf-8"?>
<!-- Generator: Adobe Illustrator 19.0.0, SVG Export Plug-In . SVG Version: 6.00 Build 0)  -->
<svg version="1.1" id="Layer_1" xmlns="http://www.w3.org/2000/svg" xmlns:xlink="http://www.w3.org/1999/xlink" x="0px" y="0px"
	 width="855px" height="621px" viewBox="0 0 855 621" style="enable-background:new 0 0 855 621;" xml:space="preserve">
<style type="text/css">
	.st0{fill:#89ADE2;}
	.st1{fill:#7A92D8;}
	.st2{fill:#4C5FA1;}
	.st3{fill:#324681;}
</style>
<path class="st0" d="M25,575l46.3333359-15.833313l35.5-12.166687c0,0,13-4.5,18.1666641-6.666687
	c5.1666718-2.166626,12-5,15.6666718-7.333313c3.6666565-2.333313,8.6666565-5,11.8333282-8.333313
	C155.6666718,521.333313,162,512.333313,164,508c2-4.3333435,4.8333282-10.8333435,6.3333282-16.3333435
	s5.6666718-22.833313,6.5-27.333313c0.8333435-4.5,4.6666718-30.3333435,5-35.5
	C182.1666718,423.6666565,186.1666718,377,187,361.1666565c0.8333282-15.833313,3.6666718-82.5,3.6666718-82.5l3-82.4999847
	c0,0,1.6666565-53.6666718,2.6666565-69.6666718s1.8333435-28.3333359,2.5-40.1666641
	C199.5,74.5,202,53.8333321,202.8333282,48.6666679C203.6666718,43.5,205,36.6666679,206.5,32
	s4.6666718-6.166666,4.6666718-6.166666l43.1666565-5.5c0,0,2.1666718,1.666666,3.5000153,4.8333321
	c1.333313,3.1666679,5.833313,15.166666,7.1666565,20.666666S271.6666565,75,272.5,80.5s5.3333435,29,6.3333435,35.6666641
	c1,6.6666718,4,24.8333359,5,31.3333359S289.6666565,183,291,192.6666718c1.3333435,9.6666565,5.5,36.6666565,6.5,43.8333282
	s3.3333435,21.8333435,4.5,30.5s5,32.8333435,6,39.1666565c1,6.3333435,6.6666565,41.666687,8.6666565,52.5
	c2,10.8333435,6.5,36.166687,6.5,36.166687l-17.833313,57.833313c0,0-3.5833435-5.75-4.8333435-9S295.75,430.5,294.5833435,426.5
	c-1.166687-4-3.5-11.75-5.166687-18.3333435c-1.6666565-6.583313-6.25-25.333313-7.1666565-30.25
	c-0.9166565-4.9166565-2.6666565-13.4166565-3.75-19.5c-1.0833435-6.083313-2.6666565-13-3.75-19.1666565
	s-4.5-25.1666565-5.1666565-28.8333435C268.9166565,306.75,265.75,288.25,265,284.1666565c-0.75-4.083313-4-24.75-4-24.75
	L254.3333282,219l-2.75-16.5833282L249.25,187.5l-3-17.4166718L242.6666718,148.75c0,0-2-10.8333282-2.75-15.5
	S238,123.25,238,123.25s-0.5833282,1.75-0.75,3.1666641c-0.1666718,1.4166718-0.4166718,10.4166641-0.6666718,13.7500076
	c-0.25,3.3333282-0.75,14.3333282-0.75,14.3333282l-0.75,16.5l-2.25,54l-2.1666565,53l-2.3333435,49L226.125,367.875l-2.25,33.625
	l-2.25,26.125c0,0-1.75,17.25-2.375,22.5S216.875,469.875,216,475s-3.25,17.625-4.25,22.25s-3,12.625-3.875,15.75
	s-2.75,8.125-3.875,11.25s-4.375,9.5-5.5,11.75s-4.625,7.625-6.375,9.5s-5.25,5.375-7.5,7.5s-8.75,6.25-11.375,7.625
	s-9.125,4.625-12.125,5.875s-10,4.25-14.5,5.875s-14.25,5.625-18.125,7S56.375,606.5,56.375,606.5l-32-31.3125L25,575z"/>
<path class="st1" d="M221.25,588.6875l-22.375,9.25l-40.6711884-30.2111206L205.3125,550.125c0,0,20.9375-8,29.875-11.625
	s20.9375-8.8125,28-12.75s14-8.5,18.8125-12.6875s9.3125-9.3125,13.125-14.3125s7.1875-10,9.75-14.9375s6.75-13,9-20.3125
	s7.1875-23.6875,9.6875-31.4375s7.25-22.25,10.5625-36.8125s12.0416565-54.75,13.5416565-64.25
	s4.666687-24.3333435,6.666687-33.8333435s5.333313-26.5,9-40.6666565c3.6666565-14.1666718,4.833313-18.6666718,7.5-26.1666718
	c2.6666565-7.5,5.6666565-13.9166565,8.25-17.25c2.583313-3.3333282,6.583313-5,6.583313-5l51.5,6.1666718
	c0,0,3.0833435,2.9166718,4.5833435,4.9166718s4.25,7.1666565,6,11.6666565s4.25,12.0833435,6.3333435,18.25
	C456.1666565,255.25,459.25,265.75,460.5,271.4166565c1.25,5.666687,6.3333435,25.916687,7.9166565,33.0833435
	c1.5833435,7.1666565,2.75,13.1666565,5.0833435,23.25s4.1666565,17.9166565,4.1666565,17.9166565L453.5833435,406.25
	c0,0-4.5833435-12-6.75-18.6666565c-2.166687-6.666687-6.416687-20.416687-7.75-25.3333435
	c-1.3333435-4.9166565-3.8333435-14.75-5.25-19.5833435C432.4166565,337.8333435,429.0833435,324,428,319.75
	s-3.0833435-12.3333435-4.1666565-16.6666565c-1.0833435-4.3333435-3.916687-15-4.8333435-18.5
	s-3.5833435-14.166687-4.4166565-17.25c-0.8333435-3.0833435-2.5833435-9-2.5833435-9s-0.8333435,2.1666565-1.4166565,4.333313
	c-0.5833435,2.166687-1.5,6.25-2.25,9.5833435s-3,12.8333435-3.75,16.5s-3,14.5-3.75,18.0833435
	c-0.75,3.583313-6.0833435,29.833313-6.75,33c-0.666687,3.1666565-6.5,32.583313-7.5,37.4166565s-9,41.1666565-9.75,44.25
	s-5.916687,23.25-7.5,29.1666565c-1.5833435,5.916687-3.5,11.3333435-5.25,16.666687c-1.75,5.333313-4.0833435,13.4166565-6,18
	c-1.916687,4.583313-4,9.25-5.916687,13.4166565c-1.9166565,4.1666565-3.9166565,7.1666565-5.333313,9.8333435
	c-1.416687,2.6666565-5.75,9.4166565-7.416687,11.9999695c-1.6666565,2.583374-5.25,7.083374-6.833313,8.916687
	c-1.5833435,1.833313-6.5,6.5-8.75,8.416687c-2.25,1.916626-7.5,6.333313-10.416687,8.166626
	c-2.9166565,1.833374-7.1666565,4.75-9.6666565,6s-12.4166565,6.833374-21,10.5
	c-8.5833435,3.666687-20.8333435,9.083374-26,11.166687c-5.1666718,2.083313-17.5833282,7.25-23.25,9.75
	S221.25,588.6875,221.25,588.6875z"/>
<path class="st0" d="M381.375,451.875l-11,35.125c0,0,14.875-4.75,19-6.25s15.375-5.5,20.5-7.625s12.5-4.625,17.25-6.5
	s12.625-5,12.625-5l-40.875-15.875L381.375,451.875z"/>
<path class="st1" d="M528.375,428l-9.625,23.5c0,0,4.5,1.875,6.125,2.375s12.375,1,15.75,0S554,449.75,558,448.125
	s10.875-4.625,10.875-4.625l9.65625-15.125c0,0-4.25-1-9.09375-2.375s-10.34375-3-12.3125-3.71875s-7.0625-2.3125-7.0625-2.3125
	L528.375,428z"/>
<path class="st2" d="M352.75,582l-16,7.5l-48.6104126-29.3681641c0,0,26.1729126-10.6943359,34.3604126-14.1318359
	s21-9.0625,29.25-12.6875S371.0625,524,375,522.0625s14.6875-8.375,20.3125-12.0625s14.4375-11,17.9375-14.1875
	S422.8125,486,427.875,479.25s4.4375-5.125,9.6875-13.5s8.8125-14.1875,11.3125-19.375s6.75-13.8125,9.0625-18.8125
	s8.4375-20.8125,11.1875-27.75s9.375-23.6875,11.9375-30.0625s7.6875-19.5,9.8125-24.75s6.3125-15.625,8.9375-21.75
	s6.9375-14.5,9.0625-18.75s5.1875-9.0625,6.75-11.25s4.5625-5.75,7.0625-7.5s8-3.625,8-3.625L588,291.9375
	c0,0,5,3.8125,8.0625,8.3125s5.75,9.5625,7.9375,13.9375s5.1875,11.4375,6.4375,14.5625s3.75,9.5,3.75,9.5L588.875,385
	c0,0-3.875-7.5625-5.3125-10.75s-4.9375-10.875-6-13.4375s-4.75-11.0625-6.125-14.8125S567,334.6875,565.5,331.125
	s-6.3125-15.3125-6.3125-15.3125s-5.6875,12-7.1875,15.75s-6.125,14.875-7.0625,17.4375s-6.8125,17.75-8.3125,22.25
	s-7.3125,19.4375-9.875,26.3125s-8.375,22.5625-10.5,27.6875s-6.8125,17.6875-8.875,21.8125s-9.6875,20.1875-11.3125,23.3125
	s-4.6875,8.4375-6.6875,11.9375s-5.625,9.0625-7.625,12.1875s-7.8125,10.4375-9.75,13s-10.375,10.75-12.5625,12.9375
	s-5.3604126,5.75-8.2739563,7.875s-5.7885437,4.5625-8.5385437,6.5s-11.25,7.5-13.5625,8.875s-10.375,6-14.9375,8.4375
	s-16,8.125-19.3125,9.8125s-11.25,5.8125-16.125,7.9375S352.75,582,352.75,582z"/>
<path class="st2" d="M657.666687,424.5833435l11.75-23.166687L678.333313,398l45.5,11.4166565c0,0-14.5,6.666687-16.833313,7.75
	c-2.333313,1.0833435-10.5,4.5833435-13.583313,5.75c-3.083374,1.166687-8.5,3.0833435-11.166687,3.75
	C679.583313,427.3333435,674.833313,428.25,672,428.25s-12.166687-2.3333435-12.833313-2.6666565
	C658.5,425.25,657.666687,424.5833435,657.666687,424.5833435z"/>
<path class="st3" d="M479.875,575.875L469.75,581.5l-55.625-28.125c0,0,28-13.125,34.5-16.25s27.125-13.875,34.625-17.75
	S510.25,504,520,496.25s26.5-23.375,35.125-34.5s13.75-18.25,13.75-18.25l9.65625-15.125c0,0,10.96875-19.125,13.46875-23.625
	s13.625-25.125,18-33.375s10.25-19.25,13.875-24.625s10.75-15.75,14.75-20.25s8.5-7.875,12.375-9.875s8-2.375,8-2.375l60.875,11.125
	c0,0,6.5,4.625,9.5,8.375s10.125,15,13.25,20.625s7.25,13.5,10.5,18.875s10.75,16.5,10.75,16.5s11.25-4.5,14.75-6
	s10.541687-4.9166565,10.541687-4.9166565l46.666626,10c0,0-15.5,7.833313-20.666626,10.1666565
	c-5.166687,2.3333435-7.5,3.5-11.666687,4.6666565c-4.166687,1.166687-7.166687,2.166687-12.333313,2.166687
	c-5.166687,0-12.666687-2.166687-19-3.5C765.833313,401,732,392.8333435,732,392.8333435s-10.5-5.166687-14.333313-9.3333435
	C713.833313,379.3333435,708.5,372.3333435,706,368.8333435s-16.5-26.666687-16.5-26.666687S682.833313,352,680,356.8333435
	c-2.833313,4.833313-9.166687,15.833313-12.5,22.6666565s-17.166687,32.6666565-20.5,39.3333435
	C643.666687,425.5,636.5,439,631.833313,447c-4.666626,8-11.958313,19.6666565-17.645813,27.8333435
	c-5.6875,8.1666565-15.354187,19.833313-21.1875,26C587.166687,507,574.333313,518,567.666687,523.5
	C561,529,546.833313,538.166687,539.5,542.666687s-16.666687,10.166626-23.833313,14C508.5,560.5,479.875,575.875,479.875,575.875z"
	/>
</svg>
